<svg xmlns="http://www.w3.org/2000/svg" viewBox="0 0 48 48"><polygon fill="#525252" points="16.184,41.395 23.98,26.656 31.812,41.395 34.611,41.395 23.975,21.377 13.386,41.395"/><polygon fill="#535353" points="13.4,41.395 23.975,21.403 34.598,41.395 31.826,41.395 23.98,26.63 16.17,41.395"/><polygon fill="#545454" points="13.414,41.395 23.975,21.429 34.584,41.395 31.84,41.395 23.98,26.604 16.156,41.395"/><polygon fill="#555" points="13.428,41.395 23.975,21.455 34.57,41.395 31.854,41.395 23.98,26.577 16.142,41.395"/><polygon fill="#565656" points="13.442,41.395 23.975,21.481 34.556,41.395 31.868,41.395 23.98,26.551 16.128,41.395"/><polygon fill="#575757" points="13.456,41.395 23.975,21.507 34.542,41.395 31.882,41.395 23.98,26.525 16.115,41.395"/><polygon fill="#585858" points="13.47,41.395 23.975,21.533 34.528,41.395 31.896,41.395 23.98,26.499 16.101,41.395"/><polygon fill="#595959" points="13.483,41.395 23.975,21.559 34.515,41.396 31.909,41.396 23.98,26.473 16.087,41.395"/><polygon fill="#5a5a5a" points="13.497,41.395 23.975,21.586 34.501,41.396 31.923,41.396 23.98,26.447 16.073,41.395"/><polygon fill="#5b5b5b" points="13.511,41.395 23.975,21.612 34.487,41.396 31.937,41.396 23.98,26.421 16.06,41.395"/><polygon fill="#5c5c5c" points="13.525,41.395 23.975,21.638 34.473,41.396 31.951,41.396 23.98,26.395 16.046,41.395"/><polygon fill="#5d5d5d" points="13.539,41.395 23.975,21.664 34.459,41.396 31.965,41.396 23.98,26.369 16.032,41.395"/><polygon fill="#5e5e5e" points="13.553,41.395 23.975,21.69 34.446,41.396 31.979,41.396 23.98,26.343 16.018,41.395"/><polygon fill="#5f5f5f" points="13.567,41.395 23.975,21.716 34.432,41.396 31.993,41.396 23.979,26.317 16.004,41.395"/><polygon fill="#606060" points="13.581,41.395 23.975,21.742 34.418,41.396 32.007,41.396 23.979,26.29 15.991,41.395"/><polygon fill="#616161" points="13.595,41.395 23.975,21.768 34.404,41.396 32.021,41.396 23.979,26.264 15.977,41.395"/><polygon fill="#626262" points="13.608,41.395 23.975,21.794 34.39,41.396 32.034,41.396 23.979,26.238 15.963,41.395"/><polygon fill="#636363" points="13.622,41.395 23.975,21.82 34.377,41.396 32.048,41.396 23.979,26.212 15.949,41.395"/><polygon fill="#646464" points="13.636,41.395 23.975,21.847 34.363,41.396 32.062,41.396 23.979,26.186 15.936,41.395"/><polygon fill="#656565" points="13.65,41.395 23.975,21.873 34.349,41.396 32.076,41.396 23.979,26.16 15.922,41.395"/><polygon fill="#666" points="13.664,41.394 23.976,21.899 34.335,41.396 32.09,41.396 23.979,26.134 15.908,41.394"/><polygon fill="#676767" points="13.678,41.394 23.976,21.925 34.321,41.396 32.104,41.396 23.979,26.108 15.894,41.394"/><polygon fill="#686868" points="13.692,41.394 23.976,21.951 34.308,41.396 32.118,41.396 23.979,26.082 15.88,41.394"/><polygon fill="#696969" points="13.706,41.394 23.976,21.977 34.294,41.396 32.132,41.396 23.979,26.056 15.867,41.394"/><polygon fill="#6a6a6a" points="13.719,41.394 23.976,22.003 34.28,41.396 32.145,41.396 23.979,26.029 15.853,41.394"/><polygon fill="#6b6b6b" points="13.733,41.394 23.976,22.029 34.266,41.396 32.159,41.396 23.979,26.003 15.839,41.394"/><polygon fill="#6c6c6c" points="13.747,41.394 23.976,22.055 34.252,41.397 32.173,41.397 23.979,25.977 15.825,41.394"/><polygon fill="#6d6d6d" points="13.761,41.394 23.976,22.081 34.239,41.397 32.187,41.397 23.979,25.951 15.811,41.394"/><polygon fill="#6e6e6e" points="13.775,41.394 23.976,22.107 34.225,41.397 32.201,41.397 23.979,25.925 15.798,41.394"/><polygon fill="#6f6f6f" points="13.789,41.394 23.976,22.134 34.211,41.397 32.215,41.397 23.979,25.899 15.784,41.394"/><polygon fill="#707070" points="13.803,41.394 23.976,22.16 34.197,41.397 32.229,41.397 23.979,25.873 15.77,41.394"/><polygon fill="#717171" points="13.817,41.394 23.976,22.186 34.183,41.397 32.243,41.397 23.979,25.847 15.756,41.394"/><polygon fill="#727272" points="13.83,41.394 23.976,22.212 34.169,41.397 32.256,41.397 23.979,25.821 15.743,41.394"/><polygon fill="#737373" points="13.844,41.394 23.976,22.238 34.156,41.397 32.27,41.397 23.979,25.795 15.729,41.394"/><polygon fill="#747474" points="13.858,41.394 23.976,22.264 34.142,41.397 32.284,41.397 23.979,25.769 15.715,41.394"/><polygon fill="#757575" points="13.872,41.394 23.976,22.29 34.128,41.397 32.298,41.397 23.979,25.742 15.701,41.394"/><polygon fill="#767676" points="13.886,41.394 23.976,22.316 34.114,41.397 32.312,41.397 23.979,25.716 15.687,41.394"/><polygon fill="#777" points="13.9,41.394 23.976,22.342 34.1,41.397 32.326,41.397 23.979,25.69 15.674,41.394"/><polygon fill="#787878" points="13.914,41.394 23.976,22.368 34.087,41.397 32.34,41.397 23.979,25.664 15.66,41.394"/><polygon fill="#797979" points="13.928,41.394 23.976,22.395 34.073,41.397 32.354,41.397 23.979,25.638 15.646,41.394"/><polygon fill="#7a7a7a" points="13.941,41.394 23.976,22.421 34.059,41.397 32.367,41.397 23.979,25.612 15.632,41.394"/><polygon fill="#7b7b7b" points="13.955,41.394 23.976,22.447 34.045,41.397 32.381,41.397 23.979,25.586 15.619,41.394"/><polygon fill="#7c7c7c" points="13.969,41.394 23.976,22.473 34.031,41.397 32.395,41.397 23.979,25.56 15.605,41.394"/><polygon fill="#7d7d7d" points="13.983,41.394 23.976,22.499 34.018,41.397 32.409,41.397 23.979,25.534 15.591,41.394"/><polygon fill="#7e7e7e" points="13.997,41.394 23.976,22.525 34.004,41.397 32.423,41.397 23.979,25.508 15.577,41.394"/><polygon fill="#7f7f7f" points="14.011,41.394 23.976,22.551 33.99,41.398 32.437,41.398 23.979,25.481 15.563,41.394"/><polygon fill="#7f7f7f" points="14.025,41.394 23.976,22.577 33.976,41.398 32.451,41.398 23.979,25.455 15.55,41.394"/><polygon fill="gray" points="14.039,41.394 23.976,22.603 33.962,41.398 32.465,41.398 23.979,25.429 15.536,41.394"/><polygon fill="#818181" points="14.052,41.394 23.976,22.629 33.949,41.398 32.479,41.398 23.978,25.403 15.522,41.394"/><polygon fill="#828282" points="14.066,41.393 23.976,22.655 33.935,41.398 32.492,41.398 23.978,25.377 15.508,41.393"/><polygon fill="#838383" points="14.08,41.393 23.976,22.682 33.921,41.398 32.506,41.398 23.978,25.351 15.495,41.393"/><polygon fill="#848484" points="14.094,41.393 23.976,22.708 33.907,41.398 32.52,41.398 23.978,25.325 15.481,41.393"/><polygon fill="#858585" points="14.108,41.393 23.976,22.734 33.893,41.398 32.534,41.398 23.978,25.299 15.467,41.393"/><polygon fill="#868686" points="14.122,41.393 23.976,22.76 33.879,41.398 32.548,41.398 23.978,25.273 15.453,41.393"/><polygon fill="#878787" points="14.136,41.393 23.976,22.786 33.866,41.398 32.562,41.398 23.978,25.247 15.439,41.393"/><polygon fill="#888" points="14.15,41.393 23.976,22.812 33.852,41.398 32.576,41.398 23.978,25.221 15.426,41.393"/><polygon fill="#898989" points="14.163,41.393 23.976,22.838 33.838,41.398 32.59,41.398 23.978,25.194 15.412,41.393"/><polygon fill="#8a8a8a" points="14.177,41.393 23.976,22.864 33.824,41.398 32.603,41.398 23.978,25.168 15.398,41.393"/><polygon fill="#8b8b8b" points="14.191,41.393 23.976,22.89 33.81,41.398 32.617,41.398 23.978,25.142 15.384,41.393"/><polygon fill="#8c8c8c" points="14.205,41.393 23.976,22.916 33.797,41.398 32.631,41.398 23.978,25.116 15.37,41.393"/><polygon fill="#8d8d8d" points="14.219,41.393 23.976,22.943 33.783,41.398 32.645,41.398 23.978,25.09 15.357,41.393"/><polygon fill="#8e8e8e" points="14.233,41.393 23.976,22.969 33.769,41.398 32.659,41.398 23.978,25.064 15.343,41.393"/><polygon fill="#8f8f8f" points="14.247,41.393 23.976,22.995 33.755,41.398 32.673,41.398 23.978,25.038 15.329,41.393"/><polygon fill="#909090" points="14.261,41.393 23.977,23.021 33.741,41.398 32.687,41.398 23.978,25.012 15.315,41.393"/><polygon fill="#919191" points="14.275,41.393 23.977,23.047 33.728,41.399 32.701,41.399 23.978,24.986 15.302,41.393"/><polygon fill="#929292" points="14.288,41.393 23.977,23.073 33.714,41.399 32.714,41.399 23.978,24.96 15.288,41.393"/><polygon fill="#939393" points="14.302,41.393 23.977,23.099 33.7,41.399 32.728,41.399 23.978,24.933 15.274,41.393"/><polygon fill="#949494" points="14.316,41.393 23.977,23.125 33.686,41.399 32.742,41.399 23.978,24.907 15.26,41.393"/><polygon fill="#959595" points="14.33,41.393 23.977,23.151 33.672,41.399 32.756,41.399 23.978,24.881 15.246,41.393"/><polygon fill="#969696" points="14.344,41.393 23.977,23.177 33.659,41.399 32.77,41.399 23.978,24.855 15.233,41.393"/><polygon fill="#979797" points="14.358,41.393 23.977,23.204 33.645,41.399 32.784,41.399 23.978,24.829 15.219,41.393"/><polygon fill="#989898" points="14.372,41.393 23.977,23.23 33.631,41.399 32.798,41.399 23.978,24.803 15.205,41.393"/><polygon fill="#999" points="14.386,41.393 23.977,23.256 33.617,41.399 32.812,41.399 23.978,24.777 15.191,41.393"/><polygon fill="#9a9a9a" points="14.399,41.393 23.977,23.282 33.603,41.399 32.825,41.399 23.978,24.751 15.178,41.393"/><polygon fill="#9b9b9b" points="14.413,41.393 23.977,23.308 33.59,41.399 32.839,41.399 23.978,24.725 15.164,41.393"/><polygon fill="#9c9c9c" points="14.427,41.393 23.977,23.334 33.576,41.399 32.853,41.399 23.978,24.699 15.15,41.393"/><polygon fill="#9d9d9d" points="14.441,41.393 23.977,23.36 33.562,41.399 32.867,41.399 23.978,24.673 15.136,41.393"/><polygon fill="#9e9e9e" points="14.455,41.393 23.977,23.386 33.548,41.399 32.881,41.399 23.978,24.646 15.122,41.393"/><polygon fill="#9f9f9f" points="14.469,41.393 23.977,23.412 33.534,41.399 32.895,41.399 23.978,24.62 15.109,41.393"/><polygon fill="#a0a0a0" points="14.483,41.392 23.977,23.438 33.52,41.399 32.909,41.399 23.978,24.594 15.095,41.392"/><polygon fill="#a1a1a1" points="14.497,41.392 23.977,23.464 33.507,41.399 32.923,41.399 23.978,24.568 15.081,41.392"/><polygon fill="#a2a2a2" points="14.51,41.392 23.977,23.491 33.493,41.399 32.937,41.399 23.978,24.542 15.067,41.392"/><polygon fill="#a3a3a3" points="14.524,41.392 23.977,23.517 33.479,41.399 32.95,41.399 23.977,24.516 15.054,41.392"/><polygon fill="#a4a4a4" points="14.538,41.392 23.977,23.543 33.465,41.4 32.964,41.4 23.977,24.49 15.04,41.392"/><polygon fill="#a5a5a5" points="14.552,41.392 23.977,23.569 33.451,41.4 32.978,41.4 23.977,24.464 15.026,41.392"/><polygon fill="#a6a6a6" points="14.566,41.392 23.977,23.595 33.438,41.4 32.992,41.4 23.977,24.438 15.012,41.392"/><polygon fill="#a7a7a7" points="14.58,41.392 23.977,23.621 33.424,41.4 33.006,41.4 23.977,24.412 14.998,41.392"/><polygon fill="#a8a8a8" points="14.594,41.392 23.977,23.647 33.41,41.4 33.02,41.4 23.977,24.385 14.985,41.392"/><polygon fill="#a9a9a9" points="14.608,41.392 23.977,23.673 33.396,41.4 33.034,41.4 23.977,24.359 14.971,41.392"/><polygon fill="#aaa" points="14.621,41.392 23.977,23.699 33.382,41.4 33.048,41.4 23.977,24.333 14.957,41.392"/><polygon fill="#ababab" points="14.635,41.392 23.977,23.725 33.369,41.4 33.061,41.4 23.977,24.307 14.943,41.392"/><polygon fill="#acacac" points="14.649,41.392 23.977,23.752 33.355,41.4 33.075,41.4 23.977,24.281 14.929,41.392"/><polygon fill="#adadad" points="14.663,41.392 23.977,23.778 33.341,41.4 33.089,41.4 23.977,24.255 14.916,41.392"/><g><rect width=".824" height="28.845" x="23.588" y="9.253" fill="#8f8f8f"/></g><g><rect width="28.845" height=".824" x="9.577" y="23.264" fill="#8f8f8f"/></g><g><rect width=".824" height="28.845" x="23.588" y="9.253" fill="#8f8f8f" transform="rotate(-45.001 24 23.676)"/></g><g><rect width="28.845" height=".824" x="9.577" y="23.264" fill="#8f8f8f" transform="rotate(-45.001 24 23.676)"/></g><g><path fill="#949494" d="M24,10.101c-7.466,0-13.54,6.074-13.54,13.539S16.534,37.18,24,37.18s13.54-6.074,13.54-13.54 S31.466,10.101,24,10.101z M24,38.91c-8.42,0-15.27-6.85-15.27-15.27C8.73,15.22,15.58,8.37,24,8.37s15.27,6.85,15.27,15.27 C39.27,32.06,32.42,38.91,24,38.91z"/><path fill="#959595" d="M24,10.092c-7.47,0-13.548,6.077-13.548,13.547S16.53,37.188,24,37.188 S37.548,31.11,37.548,23.64S31.47,10.092,24,10.092z M24,38.902c-8.415,0-15.262-6.846-15.262-15.262 c0-8.415,6.847-15.262,15.262-15.262s15.262,6.846,15.262,15.262C39.262,32.055,32.415,38.902,24,38.902z"/><path fill="#969696" d="M24,10.084c-7.475,0-13.556,6.081-13.556,13.556c0,7.475,6.081,13.556,13.556,13.556 s13.556-6.081,13.556-13.556C37.556,16.165,31.475,10.084,24,10.084z M24,38.894c-8.411,0-15.254-6.843-15.254-15.254 c0-8.411,6.843-15.253,15.254-15.253s15.254,6.843,15.254,15.253C39.254,32.051,32.411,38.894,24,38.894z"/><path fill="#979797" d="M24,10.076c-7.479,0-13.564,6.085-13.564,13.564c0,7.479,6.085,13.564,13.564,13.564 s13.564-6.085,13.564-13.564C37.564,16.161,31.479,10.076,24,10.076z M24,38.886c-8.406,0-15.246-6.839-15.246-15.246 c0-8.406,6.84-15.245,15.246-15.245s15.246,6.839,15.246,15.245C39.246,32.046,32.406,38.886,24,38.886z"/><path fill="#989898" d="M24,10.068c-7.484,0-13.572,6.088-13.572,13.572c0,7.484,6.089,13.572,13.572,13.572 s13.572-6.089,13.572-13.572C37.572,16.156,31.484,10.068,24,10.068z M24,38.877c-8.402,0-15.238-6.836-15.238-15.238 c0-8.402,6.836-15.237,15.238-15.237s15.238,6.836,15.238,15.237C39.238,32.042,32.402,38.877,24,38.877z"/><path fill="#999" d="M24,10.06c-7.488,0-13.58,6.092-13.58,13.58c0,7.488,6.092,13.58,13.58,13.58 s13.58-6.092,13.58-13.58C37.58,16.152,31.488,10.06,24,10.06z M24,38.869c-8.397,0-15.229-6.832-15.229-15.229 c0-8.397,6.832-15.229,15.229-15.229s15.229,6.832,15.229,15.229C39.229,32.037,32.397,38.869,24,38.869z"/><path fill="#9a9a9a" d="M24,10.052c-7.493,0-13.589,6.096-13.589,13.588c0,7.493,6.096,13.589,13.589,13.589 s13.589-6.096,13.589-13.589C37.589,16.147,31.493,10.052,24,10.052z M24,38.861c-8.393,0-15.221-6.828-15.221-15.221 c0-8.393,6.829-15.221,15.221-15.221s15.221,6.828,15.221,15.221C39.221,32.033,32.393,38.861,24,38.861z"/><path fill="#9b9b9b" d="M24,10.044c-7.497,0-13.597,6.099-13.597,13.596c0,7.497,6.1,13.597,13.597,13.597 s13.597-6.1,13.597-13.597C37.597,16.143,31.497,10.044,24,10.044z M24,38.853c-8.388,0-15.213-6.825-15.213-15.213 c0-8.388,6.825-15.213,15.213-15.213s15.213,6.825,15.213,15.213C39.213,32.028,32.388,38.853,24,38.853z"/><path fill="#9c9c9c" d="M24,10.035c-7.502,0-13.605,6.103-13.605,13.604c0,7.502,6.103,13.605,13.605,13.605 s13.605-6.103,13.605-13.605C37.605,16.138,31.502,10.035,24,10.035z M24,38.845c-8.384,0-15.205-6.821-15.205-15.205 c0-8.384,6.821-15.205,15.205-15.205s15.205,6.821,15.205,15.205C39.205,32.024,32.384,38.845,24,38.845z"/><path fill="#9d9d9d" d="M24,10.027c-7.506,0-13.613,6.107-13.613,13.613c0,7.506,6.107,13.613,13.613,13.613 s13.613-6.107,13.613-13.613C37.613,16.134,31.506,10.027,24,10.027z M24,38.837c-8.379,0-15.197-6.817-15.197-15.197 c0-8.379,6.818-15.196,15.197-15.196s15.197,6.817,15.197,15.196C39.197,32.019,32.379,38.837,24,38.837z"/><path fill="#9e9e9e" d="M24,10.019c-7.511,0-13.621,6.11-13.621,13.621c0,7.511,6.111,13.621,13.621,13.621 S37.621,31.15,37.621,23.64C37.621,16.129,31.511,10.019,24,10.019z M24,38.829c-8.375,0-15.189-6.814-15.189-15.189 c0-8.375,6.814-15.188,15.189-15.188s15.189,6.814,15.189,15.188C39.189,32.015,32.375,38.829,24,38.829z"/><path fill="#9f9f9f" d="M24,10.011c-7.515,0-13.629,6.114-13.629,13.629c0,7.515,6.114,13.629,13.629,13.629 s13.629-6.114,13.629-13.629C37.629,16.125,31.515,10.011,24,10.011z M24,38.82c-8.37,0-15.181-6.81-15.181-15.181 c0-8.37,6.81-15.18,15.181-15.18s15.181,6.81,15.181,15.18C39.181,32.01,32.37,38.82,24,38.82z"/><path fill="#a0a0a0" d="M24,10.003c-7.52,0-13.637,6.117-13.637,13.637c0,7.52,6.118,13.637,13.637,13.637 s13.637-6.118,13.637-13.637C37.637,16.12,31.52,10.003,24,10.003z M24,38.812c-8.366,0-15.172-6.806-15.172-15.172 c0-8.366,6.807-15.172,15.172-15.172s15.172,6.806,15.172,15.172C39.172,32.006,32.366,38.812,24,38.812z"/><path fill="#a1a1a1" d="M24,9.995c-7.524,0-13.646,6.121-13.646,13.645c0,7.524,6.122,13.646,13.646,13.646 s13.646-6.122,13.646-13.646C37.646,16.116,31.524,9.995,24,9.995z M24,38.804c-8.361,0-15.164-6.803-15.164-15.164 c0-8.361,6.803-15.164,15.164-15.164s15.164,6.803,15.164,15.164C39.164,32.002,32.361,38.804,24,38.804z"/><path fill="#a2a2a2" d="M24,9.987c-7.529,0-13.654,6.125-13.654,13.653c0,7.529,6.125,13.654,13.654,13.654 s13.654-6.125,13.654-13.654C37.654,16.111,31.529,9.987,24,9.987z M24,38.796c-8.357,0-15.156-6.799-15.156-15.156 c0-8.357,6.799-15.156,15.156-15.156s15.156,6.799,15.156,15.156C39.156,31.997,32.357,38.796,24,38.796z"/><path fill="#a3a3a3" d="M24,9.978c-7.533,0-13.662,6.128-13.662,13.661c0,7.533,6.129,13.662,13.662,13.662 s13.662-6.129,13.662-13.662C37.662,16.107,31.533,9.978,24,9.978z M24,38.788c-8.352,0-15.148-6.795-15.148-15.148 c0-8.352,6.796-15.148,15.148-15.148s15.148,6.795,15.148,15.148C39.148,31.993,32.352,38.788,24,38.788z"/><path fill="#a4a4a4" d="M24,9.97c-7.538,0-13.67,6.132-13.67,13.67c0,7.538,6.132,13.67,13.67,13.67 s13.67-6.132,13.67-13.67C37.67,16.102,31.538,9.97,24,9.97z M24,38.78c-8.348,0-15.14-6.792-15.14-15.14 C8.86,15.292,15.652,8.5,24,8.5s15.14,6.792,15.14,15.139C39.14,31.988,32.348,38.78,24,38.78z"/><path fill="#a5a5a5" d="M24,9.962c-7.542,0-13.678,6.136-13.678,13.678c0,7.542,6.136,13.678,13.678,13.678 s13.678-6.136,13.678-13.678C37.678,16.098,31.542,9.962,24,9.962z M24,38.772c-8.343,0-15.132-6.788-15.132-15.132 c0-8.343,6.788-15.131,15.132-15.131s15.132,6.788,15.132,15.131C39.132,31.984,32.343,38.772,24,38.772z"/><path fill="#a6a6a6" d="M24,9.954c-7.547,0-13.686,6.139-13.686,13.686c0,7.547,6.14,13.686,13.686,13.686 s13.686-6.14,13.686-13.686C37.686,16.093,31.547,9.954,24,9.954z M24,38.763c-8.339,0-15.124-6.784-15.124-15.124 c0-8.339,6.785-15.123,15.124-15.123s15.124,6.784,15.124,15.123C39.124,31.979,32.339,38.763,24,38.763z"/><path fill="#a7a7a7" d="M24,9.946c-7.551,0-13.694,6.143-13.694,13.694c0,7.551,6.143,13.694,13.694,13.694 s13.694-6.143,13.694-13.694C37.694,16.089,31.551,9.946,24,9.946z M24,38.755c-8.334,0-15.115-6.781-15.115-15.115 c0-8.334,6.781-15.115,15.115-15.115s15.115,6.781,15.115,15.115C39.115,31.975,32.334,38.755,24,38.755z"/><path fill="#a8a8a8" d="M24,9.938c-7.556,0-13.703,6.147-13.703,13.702c0,7.556,6.147,13.703,13.703,13.703 s13.703-6.147,13.703-13.703C37.703,16.084,31.556,9.938,24,9.938z M24,38.747c-8.33,0-15.107-6.777-15.107-15.107 C8.893,15.31,15.67,8.533,24,8.533S39.107,15.31,39.107,23.64C39.107,31.97,32.33,38.747,24,38.747z"/><path fill="#a9a9a9" d="M24,9.93c-7.56,0-13.711,6.15-13.711,13.71c0,7.56,6.151,13.711,13.711,13.711 S37.711,31.2,37.711,23.64C37.711,16.08,31.56,9.93,24,9.93z M24,38.739c-8.325,0-15.099-6.773-15.099-15.099 c0-8.325,6.774-15.099,15.099-15.099s15.099,6.773,15.099,15.099C39.099,31.966,32.325,38.739,24,38.739z"/><path fill="#aaa" d="M24,9.921c-7.564,0-13.719,6.154-13.719,13.718c0,7.565,6.154,13.719,13.719,13.719 s13.719-6.154,13.719-13.719C37.719,16.075,31.564,9.921,24,9.921z M24,38.731c-8.321,0-15.091-6.77-15.091-15.091 c0-8.321,6.77-15.091,15.091-15.091s15.091,6.77,15.091,15.091C39.091,31.961,32.321,38.731,24,38.731z"/><path fill="#ababab" d="M24,9.913c-7.569,0-13.727,6.158-13.727,13.727c0,7.569,6.158,13.727,13.727,13.727 s13.727-6.158,13.727-13.727C37.727,16.071,31.569,9.913,24,9.913z M24,38.723c-8.316,0-15.083-6.766-15.083-15.083 c0-8.316,6.766-15.082,15.083-15.082s15.083,6.766,15.083,15.082C39.083,31.957,32.316,38.723,24,38.723z"/><path fill="#acacac" d="M24,9.905c-7.573,0-13.735,6.161-13.735,13.735c0,7.573,6.162,13.735,13.735,13.735 s13.735-6.162,13.735-13.735C37.735,16.067,31.573,9.905,24,9.905z M24,38.715c-8.312,0-15.075-6.762-15.075-15.075 c0-8.312,6.763-15.074,15.075-15.074s15.075,6.762,15.075,15.074C39.075,31.952,32.312,38.715,24,38.715z"/><path fill="#adadad" d="M24,9.897c-7.578,0-13.743,6.165-13.743,13.743c0,7.578,6.165,13.743,13.743,13.743 s13.743-6.165,13.743-13.743C37.743,16.062,31.578,9.897,24,9.897z M24,38.706c-8.307,0-15.067-6.759-15.067-15.067 c0-8.307,6.759-15.066,15.067-15.066s15.067,6.759,15.067,15.066C39.067,31.948,32.307,38.706,24,38.706z"/><path fill="#aeaeae" d="M24,9.889c-7.582,0-13.751,6.169-13.751,13.751c0,7.582,6.169,13.751,13.751,13.751 s13.751-6.169,13.751-13.751C37.751,16.058,31.582,9.889,24,9.889z M24,38.698c-8.303,0-15.058-6.755-15.058-15.058 c0-8.303,6.755-15.058,15.058-15.058s15.058,6.755,15.058,15.058C39.058,31.943,32.303,38.698,24,38.698z"/><path fill="#afafaf" d="M24,9.881c-7.587,0-13.76,6.172-13.76,13.759c0,7.587,6.173,13.76,13.76,13.76 s13.76-6.173,13.76-13.76C37.76,16.053,31.587,9.881,24,9.881z M24,38.69c-8.299,0-15.05-6.752-15.05-15.05 c0-8.298,6.752-15.05,15.05-15.05s15.05,6.752,15.05,15.05C39.05,31.939,32.299,38.69,24,38.69z"/><path fill="#b0b0b0" d="M24,9.873c-7.591,0-13.768,6.176-13.768,13.767c0,7.591,6.176,13.768,13.768,13.768 s13.768-6.176,13.768-13.768C37.768,16.049,31.591,9.873,24,9.873z M24,38.682c-8.294,0-15.042-6.748-15.042-15.042 c0-8.294,6.748-15.042,15.042-15.042s15.042,6.748,15.042,15.042C39.042,31.934,32.294,38.682,24,38.682z"/><path fill="#b1b1b1" d="M24,9.864c-7.596,0-13.776,6.18-13.776,13.775c0,7.596,6.18,13.776,13.776,13.776 s13.776-6.18,13.776-13.776C37.776,16.044,31.596,9.864,24,9.864z M24,38.674c-8.29,0-15.034-6.744-15.034-15.034 C8.966,15.35,15.71,8.606,24,8.606S39.034,15.35,39.034,23.64C39.034,31.93,32.29,38.674,24,38.674z"/><path fill="#b2b2b2" d="M24,9.856c-7.6,0-13.784,6.183-13.784,13.784c0,7.6,6.184,13.784,13.784,13.784 S37.784,31.24,37.784,23.64C37.784,16.04,31.6,9.856,24,9.856z M24,38.666c-8.285,0-15.026-6.741-15.026-15.026 c0-8.285,6.741-15.025,15.026-15.025s15.026,6.741,15.026,15.025C39.026,31.925,32.285,38.666,24,38.666z"/><path fill="#b3b3b3" d="M24,9.848c-7.605,0-13.792,6.187-13.792,13.792c0,7.605,6.187,13.792,13.792,13.792 s13.792-6.187,13.792-13.792C37.792,16.035,31.605,9.848,24,9.848z M24,38.658c-8.281,0-15.018-6.737-15.018-15.018 c0-8.28,6.737-15.017,15.018-15.017s15.018,6.737,15.018,15.017C39.018,31.921,32.281,38.658,24,38.658z"/><path fill="#b4b4b4" d="M24,9.84c-7.609,0-13.8,6.191-13.8,13.8c0,7.609,6.191,13.8,13.8,13.8s13.8-6.191,13.8-13.8 C37.8,16.031,31.609,9.84,24,9.84z M24,38.649c-8.276,0-15.01-6.733-15.01-15.01c0-8.276,6.734-15.009,15.01-15.009 s15.01,6.733,15.01,15.009C39.01,31.916,32.276,38.649,24,38.649z"/><path fill="#b5b5b5" d="M24,9.832c-7.614,0-13.808,6.194-13.808,13.808c0,7.614,6.194,13.808,13.808,13.808 s13.808-6.194,13.808-13.808C37.808,16.026,31.614,9.832,24,9.832z M24,38.641c-8.272,0-15.001-6.73-15.001-15.001 c0-8.271,6.73-15.001,15.001-15.001s15.001,6.73,15.001,15.001C39.001,31.912,32.272,38.641,24,38.641z"/><path fill="#b6b6b6" d="M24,9.824c-7.618,0-13.817,6.198-13.817,13.816c0,7.618,6.198,13.817,13.817,13.817 s13.817-6.198,13.817-13.817C37.817,16.022,31.618,9.824,24,9.824z M24,38.633c-8.267,0-14.993-6.726-14.993-14.993 c0-8.267,6.726-14.993,14.993-14.993s14.993,6.726,14.993,14.993C38.993,31.907,32.267,38.633,24,38.633z"/><path fill="#b7b7b7" d="M24,9.816c-7.623,0-13.825,6.202-13.825,13.824c0,7.623,6.202,13.825,13.825,13.825 s13.825-6.202,13.825-13.825C37.825,16.017,31.623,9.816,24,9.816z M24,38.625c-8.263,0-14.985-6.722-14.985-14.985 c0-8.262,6.723-14.985,14.985-14.985s14.985,6.722,14.985,14.985C38.985,31.903,32.263,38.625,24,38.625z"/><path fill="#b8b8b8" d="M24,9.807c-7.627,0-13.833,6.205-13.833,13.832c0,7.627,6.205,13.833,13.833,13.833 s13.833-6.205,13.833-13.833C37.833,16.013,31.627,9.807,24,9.807z M24,38.617c-8.258,0-14.977-6.719-14.977-14.977 c0-8.258,6.719-14.977,14.977-14.977s14.977,6.719,14.977,14.977C38.977,31.898,32.258,38.617,24,38.617z"/><path fill="#b9b9b9" d="M24,9.799c-7.632,0-13.841,6.209-13.841,13.841c0,7.632,6.209,13.841,13.841,13.841 s13.841-6.209,13.841-13.841C37.841,16.008,31.632,9.799,24,9.799z M24,38.609c-8.254,0-14.969-6.715-14.969-14.969 c0-8.254,6.715-14.968,14.969-14.968s14.969,6.715,14.969,14.968C38.969,31.894,32.254,38.609,24,38.609z"/><path fill="#bababa" d="M24,9.791c-7.636,0-13.849,6.212-13.849,13.849c0,7.636,6.213,13.849,13.849,13.849 s13.849-6.213,13.849-13.849C37.849,16.004,31.636,9.791,24,9.791z M24,38.601c-8.249,0-14.961-6.711-14.961-14.961 c0-8.249,6.712-14.96,14.961-14.96s14.961,6.711,14.961,14.96C38.961,31.889,32.249,38.601,24,38.601z"/><path fill="#bbb" d="M24,9.783c-7.641,0-13.857,6.216-13.857,13.857c0,7.641,6.216,13.857,13.857,13.857 s13.857-6.216,13.857-13.857C37.857,15.999,31.641,9.783,24,9.783z M24,38.592c-8.245,0-14.953-6.708-14.953-14.953 c0-8.245,6.708-14.952,14.953-14.952s14.953,6.708,14.953,14.952C38.953,31.885,32.245,38.592,24,38.592z"/><path fill="#bcbcbc" d="M24,9.775c-7.645,0-13.865,6.22-13.865,13.865c0,7.645,6.22,13.865,13.865,13.865 s13.865-6.22,13.865-13.865C37.865,15.995,31.645,9.775,24,9.775z M24,38.584c-8.24,0-14.944-6.704-14.944-14.944 C9.056,15.4,15.76,8.696,24,8.696S38.944,15.4,38.944,23.64C38.944,31.88,32.24,38.584,24,38.584z"/><path fill="#bdbdbd" d="M24,9.767c-7.65,0-13.874,6.223-13.874,13.873c0,7.65,6.224,13.874,13.874,13.874 S37.874,31.29,37.874,23.64C37.874,15.99,31.65,9.767,24,9.767z M24,38.576c-8.236,0-14.936-6.7-14.936-14.936 c0-8.236,6.701-14.936,14.936-14.936s14.936,6.7,14.936,14.936C38.936,31.876,32.236,38.576,24,38.576z"/><path fill="#bebebe" d="M24,9.759c-7.654,0-13.882,6.227-13.882,13.881c0,7.654,6.227,13.882,13.882,13.882 s13.882-6.227,13.882-13.882C37.882,15.986,31.654,9.759,24,9.759z M24,38.568c-8.231,0-14.928-6.697-14.928-14.928 c0-8.231,6.697-14.928,14.928-14.928s14.928,6.697,14.928,14.928C38.928,31.871,32.231,38.568,24,38.568z"/><path fill="#bebebe" d="M24,9.751c-7.659,0-13.89,6.231-13.89,13.889c0,7.659,6.231,13.89,13.89,13.89 s13.89-6.231,13.89-13.89C37.89,15.981,31.659,9.751,24,9.751z M24,38.56c-8.227,0-14.92-6.693-14.92-14.92 c0-8.227,6.693-14.92,14.92-14.92s14.92,6.693,14.92,14.92C38.92,31.867,32.227,38.56,24,38.56z"/><path fill="#bfbfbf" d="M24,9.742c-7.663,0-13.898,6.234-13.898,13.898c0,7.663,6.235,13.898,13.898,13.898 s13.898-6.235,13.898-13.898C37.898,15.977,31.663,9.742,24,9.742z M24,38.552c-8.222,0-14.912-6.689-14.912-14.912 c0-8.222,6.69-14.911,14.912-14.911s14.912,6.689,14.912,14.911C38.912,31.862,32.222,38.552,24,38.552z"/><path fill="silver" d="M24,9.734c-7.668,0-13.906,6.238-13.906,13.906c0,7.668,6.238,13.906,13.906,13.906 s13.906-6.238,13.906-13.906C37.906,15.972,31.668,9.734,24,9.734z M24,38.544c-8.218,0-14.904-6.686-14.904-14.904 c0-8.218,6.686-14.903,14.904-14.903s14.904,6.686,14.904,14.903C38.904,31.858,32.218,38.544,24,38.544z"/><path fill="#c1c1c1" d="M24,9.726c-7.672,0-13.914,6.242-13.914,13.914c0,7.672,6.242,13.914,13.914,13.914 s13.914-6.242,13.914-13.914C37.914,15.968,31.672,9.726,24,9.726z M24,38.536c-8.213,0-14.896-6.682-14.896-14.896 c0-8.213,6.682-14.895,14.896-14.895s14.896,6.682,14.896,14.895C38.896,31.853,32.213,38.536,24,38.536z"/><path fill="#c2c2c2" d="M24,9.718c-7.677,0-13.922,6.245-13.922,13.922c0,7.677,6.246,13.922,13.922,13.922 s13.922-6.246,13.922-13.922C37.922,15.963,31.677,9.718,24,9.718z M24,38.527c-8.209,0-14.887-6.678-14.887-14.887 c0-8.209,6.679-14.887,14.887-14.887s14.887,6.678,14.887,14.887C38.887,31.849,32.209,38.527,24,38.527z"/><path fill="#c3c3c3" d="M24,9.71c-7.681,0-13.931,6.249-13.931,13.93c0,7.681,6.249,13.931,13.931,13.931 s13.931-6.249,13.931-13.931C37.931,15.959,31.681,9.71,24,9.71z M24,38.519c-8.204,0-14.879-6.675-14.879-14.879 c0-8.204,6.675-14.879,14.879-14.879s14.879,6.675,14.879,14.879C38.879,31.844,32.204,38.519,24,38.519z"/><path fill="#c4c4c4" d="M24,9.702c-7.686,0-13.939,6.253-13.939,13.938c0,7.686,6.253,13.939,13.939,13.939 s13.939-6.253,13.939-13.939C37.939,15.954,31.686,9.702,24,9.702z M24,38.511c-8.2,0-14.871-6.671-14.871-14.871 C9.129,15.44,15.8,8.769,24,8.769S38.871,15.44,38.871,23.64C38.871,31.84,32.2,38.511,24,38.511z"/><path fill="#c5c5c5" d="M24,9.694c-7.69,0-13.947,6.256-13.947,13.946c0,7.69,6.256,13.947,13.947,13.947 S37.947,31.33,37.947,23.64C37.947,15.95,31.69,9.694,24,9.694z M24,38.503c-8.195,0-14.863-6.667-14.863-14.863 c0-8.195,6.668-14.863,14.863-14.863s14.863,6.667,14.863,14.863C38.863,31.835,32.195,38.503,24,38.503z"/><path fill="#c6c6c6" d="M24,9.685c-7.695,0-13.955,6.26-13.955,13.955c0,7.695,6.26,13.955,13.955,13.955 s13.955-6.26,13.955-13.955C37.955,15.945,31.695,9.685,24,9.685z M24,38.495c-8.191,0-14.855-6.664-14.855-14.855 c0-8.191,6.664-14.855,14.855-14.855s14.855,6.664,14.855,14.855C38.855,31.831,32.191,38.495,24,38.495z"/><path fill="#c7c7c7" d="M24,9.677c-7.699,0-13.963,6.264-13.963,13.963c0,7.699,6.264,13.963,13.963,13.963 s13.963-6.264,13.963-13.963C37.963,15.941,31.699,9.677,24,9.677z M24,38.487c-8.186,0-14.847-6.66-14.847-14.847 c0-8.186,6.66-14.846,14.847-14.846s14.847,6.66,14.847,14.846C38.847,31.826,32.186,38.487,24,38.487z"/><path fill="#c8c8c8" d="M24,9.669c-7.704,0-13.971,6.267-13.971,13.971c0,7.704,6.267,13.971,13.971,13.971 s13.971-6.267,13.971-13.971C37.971,15.936,31.704,9.669,24,9.669z M24,38.479c-8.182,0-14.839-6.657-14.839-14.839 c0-8.182,6.657-14.838,14.839-14.838s14.839,6.657,14.839,14.838C38.839,31.822,32.182,38.479,24,38.479z"/><path fill="#c9c9c9" d="M24,9.661c-7.708,0-13.979,6.271-13.979,13.979c0,7.708,6.271,13.979,13.979,13.979 s13.979-6.271,13.979-13.979C37.979,15.932,31.708,9.661,24,9.661z M24,38.47c-8.177,0-14.831-6.653-14.831-14.831 c0-8.177,6.653-14.83,14.831-14.83s14.831,6.653,14.831,14.83C38.831,31.818,32.177,38.47,24,38.47z"/><path fill="#cacaca" d="M24,9.653c-7.713,0-13.987,6.275-13.987,13.987c0,7.713,6.275,13.987,13.987,13.987 s13.987-6.275,13.987-13.987C37.987,15.927,31.713,9.653,24,9.653z M24,38.462c-8.173,0-14.822-6.649-14.822-14.822 c0-8.173,6.649-14.822,14.822-14.822s14.822,6.649,14.822,14.822C38.822,31.813,32.173,38.462,24,38.462z"/><path fill="#cbcbcb" d="M24,9.645c-7.717,0-13.996,6.278-13.996,13.995c0,7.717,6.278,13.996,13.996,13.996 s13.996-6.278,13.996-13.996C37.996,15.923,31.717,9.645,24,9.645z M24,38.454c-8.169,0-14.814-6.646-14.814-14.814 c0-8.168,6.646-14.814,14.814-14.814s14.814,6.646,14.814,14.814C38.814,31.809,32.169,38.454,24,38.454z"/><path fill="#ccc" d="M24,9.637c-7.722,0-14.004,6.282-14.004,14.003c0,7.722,6.282,14.004,14.004,14.004 s14.004-6.282,14.004-14.004C38.004,15.918,31.722,9.637,24,9.637z M24,38.446c-8.164,0-14.806-6.642-14.806-14.806 c0-8.164,6.642-14.806,14.806-14.806s14.806,6.642,14.806,14.806C38.806,31.804,32.164,38.446,24,38.446z"/><path fill="#cdcdcd" d="M24,9.628c-7.726,0-14.012,6.286-14.012,14.011c0,7.726,6.286,14.012,14.012,14.012 s14.012-6.286,14.012-14.012C38.012,15.914,31.726,9.628,24,9.628z M24,38.438c-8.16,0-14.798-6.638-14.798-14.798 C9.202,15.481,15.84,8.842,24,8.842s14.798,6.638,14.798,14.798C38.798,31.8,32.16,38.438,24,38.438z"/><path fill="#cecece" d="M24,9.62c-7.731,0-14.02,6.289-14.02,14.02c0,7.731,6.289,14.02,14.02,14.02 s14.02-6.289,14.02-14.02C38.02,15.909,31.731,9.62,24,9.62z M24,38.43c-8.155,0-14.79-6.635-14.79-14.79 C9.21,15.485,15.845,8.85,24,8.85s14.79,6.635,14.79,14.789C38.79,31.795,32.155,38.43,24,38.43z"/><path fill="#cfcfcf" d="M24,9.612c-7.735,0-14.028,6.293-14.028,14.028c0,7.735,6.293,14.028,14.028,14.028 s14.028-6.293,14.028-14.028C38.028,15.905,31.735,9.612,24,9.612z M24,38.422c-8.151,0-14.782-6.631-14.782-14.782 c0-8.15,6.631-14.781,14.782-14.781S38.782,15.49,38.782,23.64C38.782,31.791,32.151,38.422,24,38.422z"/><path fill="#d0d0d0" d="M24,9.604c-7.74,0-14.036,6.296-14.036,14.036c0,7.74,6.297,14.036,14.036,14.036 S38.036,31.38,38.036,23.64C38.036,15.9,31.74,9.604,24,9.604z M24,38.413c-8.146,0-14.774-6.627-14.774-14.774 c0-8.146,6.627-14.773,14.774-14.773s14.774,6.627,14.774,14.773C38.774,31.786,32.146,38.413,24,38.413z"/><path fill="#d1d1d1" d="M24,9.596c-7.744,0-14.044,6.3-14.044,14.044c0,7.744,6.3,14.044,14.044,14.044 s14.044-6.3,14.044-14.044C38.044,15.896,31.744,9.596,24,9.596z M24,38.405c-8.142,0-14.765-6.624-14.765-14.765 c0-8.141,6.624-14.765,14.765-14.765s14.765,6.624,14.765,14.765C38.765,31.782,32.142,38.405,24,38.405z"/><path fill="#d2d2d2" d="M24,9.588c-7.749,0-14.053,6.304-14.053,14.052c0,7.749,6.304,14.053,14.053,14.053 s14.053-6.304,14.053-14.053C38.053,15.891,31.749,9.588,24,9.588z M24,38.397c-8.137,0-14.757-6.62-14.757-14.757 c0-8.137,6.62-14.757,14.757-14.757s14.757,6.62,14.757,14.757C38.757,31.777,32.137,38.397,24,38.397z"/><path fill="#d3d3d3" d="M24,9.58c-7.753,0-14.061,6.307-14.061,14.06c0,7.753,6.308,14.061,14.061,14.061 s14.061-6.308,14.061-14.061C38.061,15.887,31.753,9.58,24,9.58z M24,38.389c-8.133,0-14.749-6.616-14.749-14.749 c0-8.132,6.616-14.749,14.749-14.749s14.749,6.616,14.749,14.749C38.749,31.773,32.133,38.389,24,38.389z"/><path fill="#d4d4d4" d="M24,9.571c-7.758,0-14.069,6.311-14.069,14.068c0,7.758,6.311,14.069,14.069,14.069 s14.069-6.311,14.069-14.069C38.069,15.883,31.758,9.571,24,9.571z M24,38.381c-8.128,0-14.741-6.613-14.741-14.741 c0-8.128,6.613-14.741,14.741-14.741s14.741,6.613,14.741,14.741C38.741,31.768,32.128,38.381,24,38.381z"/><path fill="#d5d5d5" d="M24,9.563c-7.762,0-14.077,6.315-14.077,14.077c0,7.762,6.315,14.077,14.077,14.077 s14.077-6.315,14.077-14.077C38.077,15.878,31.762,9.563,24,9.563z M24,38.373c-8.124,0-14.733-6.609-14.733-14.733 c0-8.123,6.609-14.732,14.733-14.732s14.733,6.609,14.733,14.732C38.733,31.764,32.124,38.373,24,38.373z"/><path fill="#d6d6d6" d="M24,9.555c-7.767,0-14.085,6.318-14.085,14.085c0,7.767,6.319,14.085,14.085,14.085 s14.085-6.319,14.085-14.085C38.085,15.874,31.767,9.555,24,9.555z M24,38.365c-8.119,0-14.725-6.605-14.725-14.725 c0-8.119,6.605-14.724,14.725-14.724s14.725,6.605,14.725,14.724C38.725,31.759,32.119,38.365,24,38.365z"/><path fill="#d7d7d7" d="M24,9.547c-7.771,0-14.093,6.322-14.093,14.093c0,7.771,6.322,14.093,14.093,14.093 s14.093-6.322,14.093-14.093C38.093,15.869,31.771,9.547,24,9.547z M24,38.356c-8.115,0-14.717-6.602-14.717-14.717 c0-8.114,6.602-14.716,14.717-14.716s14.717,6.602,14.717,14.716C38.717,31.755,32.115,38.356,24,38.356z"/><path fill="#d8d8d8" d="M24,9.539c-7.776,0-14.101,6.326-14.101,14.101c0,7.776,6.326,14.101,14.101,14.101 s14.101-6.326,14.101-14.101C38.101,15.865,31.776,9.539,24,9.539z M24,38.348c-8.11,0-14.708-6.598-14.708-14.708 C9.292,15.53,15.89,8.932,24,8.932S38.708,15.53,38.708,23.64C38.708,31.75,32.11,38.348,24,38.348z"/><path fill="#d9d9d9" d="M24,9.531c-7.78,0-14.11,6.329-14.11,14.109c0,7.78,6.329,14.11,14.11,14.11 s14.11-6.329,14.11-14.11C38.11,15.86,31.78,9.531,24,9.531z M24,38.34c-8.106,0-14.7-6.594-14.7-14.7 c0-8.105,6.594-14.7,14.7-14.7s14.7,6.594,14.7,14.7C38.7,31.746,32.106,38.34,24,38.34z"/><path fill="#dadada" d="M24,9.523c-7.785,0-14.118,6.333-14.118,14.117c0,7.785,6.333,14.118,14.118,14.118 s14.118-6.333,14.118-14.118C38.118,15.856,31.785,9.523,24,9.523z M24,38.332c-8.101,0-14.692-6.591-14.692-14.692 c0-8.101,6.591-14.692,14.692-14.692s14.692,6.591,14.692,14.692C38.692,31.741,32.101,38.332,24,38.332z"/><path fill="#dbdbdb" d="M24,9.514c-7.789,0-14.126,6.337-14.126,14.125c0,7.789,6.337,14.126,14.126,14.126 s14.126-6.337,14.126-14.126C38.126,15.851,31.789,9.514,24,9.514z M24,38.324c-8.097,0-14.684-6.587-14.684-14.684 c0-8.096,6.587-14.684,14.684-14.684s14.684,6.587,14.684,14.684C38.684,31.737,32.097,38.324,24,38.324z"/><path fill="#dcdcdc" d="M24,9.506c-7.794,0-14.134,6.34-14.134,14.134c0,7.794,6.34,14.134,14.134,14.134 s14.134-6.34,14.134-14.134C38.134,15.847,31.794,9.506,24,9.506z M24,38.316c-8.092,0-14.676-6.583-14.676-14.676 c0-8.092,6.584-14.675,14.676-14.675s14.676,6.583,14.676,14.675C38.676,31.732,32.092,38.316,24,38.316z"/><path fill="#ddd" d="M24,9.498c-7.798,0-14.142,6.344-14.142,14.142c0,7.798,6.344,14.142,14.142,14.142 s14.142-6.344,14.142-14.142C38.142,15.842,31.798,9.498,24,9.498z M24,38.308c-8.088,0-14.668-6.58-14.668-14.668 c0-8.087,6.58-14.667,14.668-14.667s14.668,6.58,14.668,14.667C38.668,31.728,32.088,38.308,24,38.308z"/><path fill="#dedede" d="M24,9.49c-7.803,0-14.15,6.348-14.15,14.15c0,7.803,6.348,14.15,14.15,14.15 s14.15-6.348,14.15-14.15C38.15,15.838,31.803,9.49,24,9.49z M24,38.299c-8.083,0-14.66-6.576-14.66-14.66 c0-8.083,6.576-14.659,14.66-14.659s14.66,6.576,14.66,14.659C38.66,31.723,32.083,38.299,24,38.299z"/><path fill="#dfdfdf" d="M24,9.482c-7.807,0-14.158,6.351-14.158,14.158c0,7.807,6.351,14.158,14.158,14.158 s14.158-6.351,14.158-14.158C38.158,15.833,31.807,9.482,24,9.482z M24,38.291c-8.079,0-14.651-6.573-14.651-14.651 c0-8.078,6.573-14.651,14.651-14.651s14.651,6.573,14.651,14.651C38.651,31.719,32.079,38.291,24,38.291z"/><path fill="#e0e0e0" d="M24,9.474c-7.812,0-14.167,6.355-14.167,14.166c0,7.812,6.355,14.167,14.167,14.167 s14.167-6.355,14.167-14.167C38.167,15.829,31.812,9.474,24,9.474z M24,38.283c-8.074,0-14.643-6.569-14.643-14.643 c0-8.074,6.569-14.643,14.643-14.643s14.643,6.569,14.643,14.643C38.643,31.714,32.074,38.283,24,38.283z"/><path fill="#e1e1e1" d="M24,9.466c-7.816,0-14.175,6.359-14.175,14.174c0,7.816,6.359,14.175,14.175,14.175 s14.175-6.359,14.175-14.175C38.175,15.824,31.816,9.466,24,9.466z M24,38.275c-8.07,0-14.635-6.565-14.635-14.635 C9.365,15.57,15.93,9.005,24,9.005S38.635,15.57,38.635,23.64C38.635,31.71,32.07,38.275,24,38.275z"/><path fill="#e2e2e2" d="M24,9.457c-7.821,0-14.183,6.362-14.183,14.182c0,7.821,6.362,14.183,14.183,14.183 S38.183,31.46,38.183,23.64C38.183,15.82,31.821,9.457,24,9.457z M24,38.267c-8.065,0-14.627-6.562-14.627-14.627 c0-8.065,6.562-14.627,14.627-14.627s14.627,6.562,14.627,14.627C38.627,31.705,32.065,38.267,24,38.267z"/><path fill="#e3e3e3" d="M24,9.449c-7.825,0-14.191,6.366-14.191,14.191c0,7.825,6.366,14.191,14.191,14.191 s14.191-6.366,14.191-14.191C38.191,15.815,31.825,9.449,24,9.449z M24,38.259c-8.061,0-14.619-6.558-14.619-14.619 c0-8.061,6.558-14.618,14.619-14.618s14.619,6.558,14.619,14.618C38.619,31.701,32.061,38.259,24,38.259z"/><path fill="#e4e4e4" d="M24,9.441c-7.83,0-14.199,6.37-14.199,14.199c0,7.83,6.37,14.199,14.199,14.199 s14.199-6.37,14.199-14.199C38.199,15.811,31.83,9.441,24,9.441z M24,38.251c-8.056,0-14.611-6.554-14.611-14.611 c0-8.056,6.554-14.61,14.611-14.61s14.611,6.554,14.611,14.61C38.611,31.696,32.056,38.251,24,38.251z"/><path fill="#e5e5e5" d="M24,9.433c-7.834,0-14.207,6.373-14.207,14.207c0,7.834,6.373,14.207,14.207,14.207 s14.207-6.373,14.207-14.207C38.207,15.806,31.834,9.433,24,9.433z M24,38.242c-8.052,0-14.603-6.551-14.603-14.603 c0-8.052,6.551-14.602,14.603-14.602s14.603,6.551,14.603,14.602C38.603,31.692,32.052,38.242,24,38.242z"/><path fill="#e6e6e6" d="M24,9.425c-7.839,0-14.215,6.377-14.215,14.215c0,7.839,6.377,14.215,14.215,14.215 s14.215-6.377,14.215-14.215C38.215,15.802,31.839,9.425,24,9.425z M24,38.234c-8.047,0-14.594-6.547-14.594-14.594 c0-8.047,6.547-14.594,14.594-14.594s14.594,6.547,14.594,14.594C38.594,31.687,32.047,38.234,24,38.234z"/><path fill="#e7e7e7" d="M24,9.417c-7.843,0-14.224,6.381-14.224,14.223c0,7.843,6.381,14.224,14.224,14.224 s14.224-6.381,14.224-14.224C38.224,15.797,31.843,9.417,24,9.417z M24,38.226c-8.043,0-14.586-6.543-14.586-14.586 c0-8.043,6.543-14.586,14.586-14.586s14.586,6.543,14.586,14.586C38.586,31.683,32.043,38.226,24,38.226z"/><path fill="#e8e8e8" d="M24,9.409c-7.848,0-14.232,6.384-14.232,14.231c0,7.848,6.384,14.232,14.232,14.232 s14.232-6.384,14.232-14.232C38.232,15.793,31.848,9.409,24,9.409z M24,38.218c-8.039,0-14.578-6.54-14.578-14.578 c0-8.038,6.54-14.578,14.578-14.578s14.578,6.54,14.578,14.578C38.578,31.678,32.039,38.218,24,38.218z"/></g><g><path fill="#949494" d="M24,16.264c-4.067,0-7.376,3.309-7.376,7.376c0,4.067,3.309,7.377,7.376,7.377 s7.376-3.309,7.376-7.377C31.376,19.573,28.067,16.264,24,16.264z M24,32.747c-5.021,0-9.106-4.085-9.106-9.107 c0-5.021,4.085-9.106,9.106-9.106s9.106,4.085,9.106,9.106C33.106,28.662,29.021,32.747,24,32.747z"/><path fill="#959595" d="M24,16.256c-4.072,0-7.384,3.313-7.384,7.384c0,4.072,3.312,7.385,7.384,7.385 s7.384-3.313,7.384-7.385C31.384,19.568,28.072,16.256,24,16.256z M24,32.739c-5.017,0-9.098-4.082-9.098-9.099 c0-5.017,4.082-9.098,9.098-9.098s9.098,4.082,9.098,9.098C33.098,28.657,29.017,32.739,24,32.739z"/><path fill="#969696" d="M24,16.248c-4.076,0-7.392,3.316-7.392,7.392c0,4.076,3.316,7.393,7.392,7.393 s7.392-3.316,7.392-7.393C31.392,19.564,28.076,16.248,24,16.248z M24,32.73c-5.012,0-9.09-4.078-9.09-9.091 c0-5.012,4.078-9.09,9.09-9.09s9.09,4.078,9.09,9.09C33.09,28.653,29.012,32.73,24,32.73z"/><path fill="#979797" d="M24,16.239c-4.081,0-7.401,3.32-7.401,7.401c0,4.081,3.32,7.401,7.401,7.401 s7.401-3.32,7.401-7.401C31.401,19.559,28.081,16.239,24,16.239z M24,32.722c-5.008,0-9.082-4.074-9.082-9.082 c0-5.008,4.074-9.082,9.082-9.082s9.082,4.074,9.082,9.082C33.082,28.648,29.008,32.722,24,32.722z"/><path fill="#989898" d="M24,16.231c-4.085,0-7.409,3.324-7.409,7.409c0,4.085,3.323,7.409,7.409,7.409 s7.409-3.324,7.409-7.409C31.409,19.555,28.085,16.231,24,16.231z M24,32.714c-5.003,0-9.074-4.071-9.074-9.074 c0-5.003,4.071-9.074,9.074-9.074s9.074,4.071,9.074,9.074C33.074,28.644,29.003,32.714,24,32.714z"/><path fill="#999" d="M24,16.223c-4.09,0-7.417,3.327-7.417,7.417c0,4.09,3.327,7.417,7.417,7.417 s7.417-3.327,7.417-7.417C31.417,19.55,28.09,16.223,24,16.223z M24,32.706c-4.999,0-9.066-4.067-9.066-9.066 c0-4.999,4.067-9.066,9.066-9.066s9.066,4.067,9.066,9.066C33.066,28.639,28.999,32.706,24,32.706z"/><path fill="#9a9a9a" d="M24,16.215c-4.094,0-7.425,3.331-7.425,7.425c0,4.094,3.331,7.425,7.425,7.425 s7.425-3.331,7.425-7.425C31.425,19.546,28.094,16.215,24,16.215z M24,32.698c-4.994,0-9.058-4.063-9.058-9.058 c0-4.994,4.063-9.058,9.058-9.058s9.058,4.063,9.058,9.058C33.058,28.635,28.994,32.698,24,32.698z"/><path fill="#9b9b9b" d="M24,16.207c-4.099,0-7.433,3.335-7.433,7.433c0,4.099,3.334,7.434,7.433,7.434 s7.433-3.335,7.433-7.434C31.433,19.541,28.099,16.207,24,16.207z M24,32.69c-4.99,0-9.049-4.06-9.049-9.05 c0-4.99,4.06-9.049,9.049-9.049s9.049,4.06,9.049,9.049C33.049,28.63,28.99,32.69,24,32.69z"/><path fill="#9c9c9c" d="M24,16.199c-4.103,0-7.441,3.338-7.441,7.441c0,4.103,3.338,7.442,7.441,7.442 s7.441-3.338,7.441-7.442C31.441,19.537,28.103,16.199,24,16.199z M24,32.682c-4.985,0-9.041-4.056-9.041-9.042 c0-4.985,4.056-9.041,9.041-9.041s9.041,4.056,9.041,9.041C33.041,28.626,28.985,32.682,24,32.682z"/><path fill="#9d9d9d" d="M24,16.191c-4.108,0-7.449,3.342-7.449,7.449c0,4.108,3.342,7.45,7.449,7.45 s7.449-3.342,7.449-7.45C31.449,19.532,28.108,16.191,24,16.191z M24,32.674c-4.981,0-9.033-4.052-9.033-9.034 c0-4.981,4.052-9.033,9.033-9.033s9.033,4.052,9.033,9.033C33.033,28.621,28.981,32.674,24,32.674z"/><path fill="#9e9e9e" d="M24,16.182c-4.112,0-7.458,3.346-7.458,7.458c0,4.112,3.345,7.458,7.458,7.458 s7.458-3.346,7.458-7.458C31.458,19.528,28.112,16.182,24,16.182z M24,32.665c-4.976,0-9.025-4.049-9.025-9.025 c0-4.976,4.049-9.025,9.025-9.025s9.025,4.049,9.025,9.025C33.025,28.617,28.976,32.665,24,32.665z"/><path fill="#9f9f9f" d="M24,16.174c-4.117,0-7.466,3.349-7.466,7.466c0,4.117,3.349,7.466,7.466,7.466 s7.466-3.349,7.466-7.466C31.466,19.523,28.117,16.174,24,16.174z M24,32.657c-4.972,0-9.017-4.045-9.017-9.017 c0-4.972,4.045-9.017,9.017-9.017s9.017,4.045,9.017,9.017C33.017,28.612,28.972,32.657,24,32.657z"/><path fill="#a0a0a0" d="M24,16.166c-4.121,0-7.474,3.353-7.474,7.474c0,4.121,3.353,7.474,7.474,7.474 s7.474-3.353,7.474-7.474C31.474,19.519,28.121,16.166,24,16.166z M24,32.649c-4.967,0-9.009-4.041-9.009-9.009 c0-4.967,4.041-9.009,9.009-9.009s9.009,4.041,9.009,9.009C33.009,28.608,28.967,32.649,24,32.649z"/><path fill="#a1a1a1" d="M24,16.158c-4.126,0-7.482,3.357-7.482,7.482c0,4.126,3.356,7.482,7.482,7.482 s7.482-3.357,7.482-7.482C31.482,19.514,28.126,16.158,24,16.158z M24,32.641c-4.963,0-9.001-4.038-9.001-9.001 c0-4.963,4.038-9.001,9.001-9.001s9.001,4.038,9.001,9.001C33.001,28.603,28.963,32.641,24,32.641z"/><path fill="#a2a2a2" d="M24,16.15c-4.13,0-7.49,3.36-7.49,7.49c0,4.13,3.36,7.49,7.49,7.49s7.49-3.36,7.49-7.49 C31.49,19.51,28.13,16.15,24,16.15z M24,32.633c-4.958,0-8.993-4.034-8.993-8.993c0-4.958,4.034-8.993,8.993-8.993 s8.993,4.034,8.993,8.993C32.993,28.599,28.958,32.633,24,32.633z"/><path fill="#a3a3a3" d="M24,16.142c-4.135,0-7.498,3.364-7.498,7.498c0,4.135,3.364,7.499,7.498,7.499 s7.498-3.364,7.498-7.499C31.498,19.505,28.135,16.142,24,16.142z M24,32.625c-4.954,0-8.984-4.03-8.984-8.985 c0-4.954,4.03-8.984,8.984-8.984s8.984,4.03,8.984,8.984C32.984,28.594,28.954,32.625,24,32.625z"/><path fill="#a4a4a4" d="M24,16.134c-4.139,0-7.506,3.367-7.506,7.506c0,4.139,3.367,7.507,7.506,7.507 s7.506-3.368,7.506-7.507C31.506,19.501,28.139,16.134,24,16.134z M24,32.617c-4.949,0-8.976-4.027-8.976-8.977 c0-4.95,4.027-8.976,8.976-8.976s8.976,4.027,8.976,8.976C32.976,28.59,28.949,32.617,24,32.617z"/><path fill="#a5a5a5" d="M24,16.125c-4.144,0-7.514,3.371-7.514,7.514c0,4.144,3.371,7.515,7.514,7.515 s7.514-3.371,7.514-7.515C31.514,19.497,28.144,16.125,24,16.125z M24,32.608c-4.945,0-8.968-4.023-8.968-8.969 c0-4.945,4.023-8.968,8.968-8.968s8.968,4.023,8.968,8.968C32.968,28.585,28.945,32.608,24,32.608z"/><path fill="#a6a6a6" d="M24,16.117c-4.148,0-7.523,3.375-7.523,7.523c0,4.148,3.375,7.523,7.523,7.523 s7.523-3.375,7.523-7.523C31.523,19.492,28.148,16.117,24,16.117z M24,32.6c-4.94,0-8.96-4.019-8.96-8.96 c0-4.941,4.019-8.96,8.96-8.96s8.96,4.019,8.96,8.96C32.96,28.581,28.94,32.6,24,32.6z"/><path fill="#a7a7a7" d="M24,16.109c-4.153,0-7.531,3.378-7.531,7.531c0,4.153,3.378,7.531,7.531,7.531 s7.531-3.379,7.531-7.531C31.531,19.488,28.153,16.109,24,16.109z M24,32.592c-4.936,0-8.952-4.016-8.952-8.952 c0-4.936,4.016-8.952,8.952-8.952s8.952,4.016,8.952,8.952C32.952,28.576,28.936,32.592,24,32.592z"/><path fill="#a8a8a8" d="M24,16.101c-4.157,0-7.539,3.382-7.539,7.539c0,4.157,3.382,7.539,7.539,7.539 s7.539-3.382,7.539-7.539C31.539,19.483,28.157,16.101,24,16.101z M24,32.584c-4.931,0-8.944-4.012-8.944-8.944 c0-4.932,4.012-8.944,8.944-8.944s8.944,4.012,8.944,8.944C32.944,28.572,28.931,32.584,24,32.584z"/><path fill="#a9a9a9" d="M24,16.093c-4.162,0-7.547,3.386-7.547,7.547c0,4.162,3.385,7.547,7.547,7.547 s7.547-3.386,7.547-7.547C31.547,19.479,28.162,16.093,24,16.093z M24,32.576c-4.927,0-8.936-4.009-8.936-8.936 c0-4.927,4.009-8.936,8.936-8.936s8.936,4.008,8.936,8.936C32.936,28.567,28.927,32.576,24,32.576z"/><path fill="#aaa" d="M24,16.085c-4.166,0-7.555,3.389-7.555,7.555c0,4.166,3.389,7.556,7.555,7.556 s7.555-3.389,7.555-7.556C31.555,19.474,28.166,16.085,24,16.085z M24,32.568c-4.922,0-8.927-4.005-8.927-8.928 c0-4.923,4.005-8.927,8.927-8.927s8.927,4.005,8.927,8.927C32.927,28.563,28.922,32.568,24,32.568z"/><path fill="#ababab" d="M24,16.077c-4.171,0-7.563,3.393-7.563,7.563c0,4.171,3.393,7.564,7.563,7.564 s7.563-3.393,7.563-7.564C31.563,19.47,28.171,16.077,24,16.077z M24,32.56c-4.918,0-8.919-4.001-8.919-8.92 c0-4.918,4.001-8.919,8.919-8.919s8.919,4.001,8.919,8.919C32.919,28.558,28.918,32.56,24,32.56z"/><path fill="#acacac" d="M24,16.068c-4.175,0-7.571,3.397-7.571,7.571c0,4.175,3.396,7.572,7.571,7.572 s7.571-3.397,7.571-7.572C31.571,19.465,28.175,16.068,24,16.068z M24,32.551c-4.913,0-8.911-3.998-8.911-8.912 c0-4.914,3.998-8.911,8.911-8.911s8.911,3.997,8.911,8.911C32.911,28.554,28.913,32.551,24,32.551z"/><path fill="#adadad" d="M24,16.06c-4.179,0-7.58,3.4-7.58,7.58c0,4.18,3.4,7.58,7.58,7.58s7.58-3.4,7.58-7.58 C31.58,19.461,28.179,16.06,24,16.06z M24,32.543c-4.909,0-8.903-3.994-8.903-8.903c0-4.909,3.994-8.903,8.903-8.903 s8.903,3.994,8.903,8.903C32.903,28.549,28.909,32.543,24,32.543z"/><path fill="#aeaeae" d="M24,16.052c-4.184,0-7.588,3.404-7.588,7.588c0,4.184,3.404,7.588,7.588,7.588 s7.588-3.404,7.588-7.588C31.588,19.456,28.184,16.052,24,16.052z M24,32.535c-4.905,0-8.895-3.99-8.895-8.895 c0-4.905,3.99-8.895,8.895-8.895s8.895,3.99,8.895,8.895C32.895,28.545,28.905,32.535,24,32.535z"/><path fill="#afafaf" d="M24,16.044c-4.188,0-7.596,3.408-7.596,7.596c0,4.189,3.407,7.596,7.596,7.596 s7.596-3.408,7.596-7.596C31.596,19.452,28.188,16.044,24,16.044z M24,32.527c-4.9,0-8.887-3.987-8.887-8.887 c0-4.9,3.987-8.887,8.887-8.887s8.887,3.987,8.887,8.887C32.887,28.54,28.9,32.527,24,32.527z"/><path fill="#b0b0b0" d="M24,16.036c-4.193,0-7.604,3.411-7.604,7.604c0,4.193,3.411,7.604,7.604,7.604 s7.604-3.411,7.604-7.604C31.604,19.447,28.193,16.036,24,16.036z M24,32.519c-4.896,0-8.879-3.983-8.879-8.879 c0-4.896,3.983-8.879,8.879-8.879s8.879,3.983,8.879,8.879C32.879,28.536,28.896,32.519,24,32.519z"/><path fill="#b1b1b1" d="M24,16.028c-4.197,0-7.612,3.415-7.612,7.612c0,4.198,3.415,7.613,7.612,7.613 s7.612-3.415,7.612-7.613C31.612,19.443,28.197,16.028,24,16.028z M24,32.511c-4.891,0-8.87-3.979-8.87-8.871 c0-4.891,3.979-8.87,8.87-8.87s8.87,3.979,8.87,8.87C32.87,28.531,28.891,32.511,24,32.511z"/><path fill="#b2b2b2" d="M24,16.02c-4.202,0-7.62,3.419-7.62,7.62c0,4.202,3.418,7.621,7.62,7.621s7.62-3.419,7.62-7.621 C31.62,19.438,28.202,16.02,24,16.02z M24,32.503c-4.887,0-8.862-3.976-8.862-8.863c0-4.887,3.976-8.862,8.862-8.862 s8.862,3.976,8.862,8.862C32.862,28.527,28.887,32.503,24,32.503z"/><path fill="#b3b3b3" d="M24,16.011c-4.206,0-7.628,3.422-7.628,7.628c0,4.207,3.422,7.629,7.628,7.629 s7.628-3.422,7.628-7.629C31.628,19.434,28.206,16.011,24,16.011z M24,32.494c-4.882,0-8.854-3.972-8.854-8.855 c0-4.882,3.972-8.854,8.854-8.854s8.854,3.972,8.854,8.854C32.854,28.522,28.882,32.494,24,32.494z"/><path fill="#b4b4b4" d="M24,16.003c-4.211,0-7.637,3.426-7.637,7.637c0,4.211,3.426,7.637,7.637,7.637 s7.637-3.426,7.637-7.637C31.637,19.429,28.211,16.003,24,16.003z M24,32.486c-4.878,0-8.846-3.968-8.846-8.846 c0-4.878,3.968-8.846,8.846-8.846s8.846,3.968,8.846,8.846C32.846,28.518,28.878,32.486,24,32.486z"/><path fill="#b5b5b5" d="M24,15.995c-4.215,0-7.645,3.429-7.645,7.645c0,4.216,3.429,7.645,7.645,7.645 s7.645-3.43,7.645-7.645C31.645,19.425,28.215,15.995,24,15.995z M24,32.478c-4.873,0-8.838-3.965-8.838-8.838 c0-4.873,3.965-8.838,8.838-8.838s8.838,3.965,8.838,8.838C32.838,28.513,28.873,32.478,24,32.478z"/><path fill="#b6b6b6" d="M24,15.987c-4.22,0-7.653,3.433-7.653,7.653c0,4.22,3.433,7.653,7.653,7.653 s7.653-3.433,7.653-7.653C31.653,19.42,28.22,15.987,24,15.987z M24,32.47c-4.869,0-8.83-3.961-8.83-8.83 c0-4.869,3.961-8.83,8.83-8.83s8.83,3.961,8.83,8.83C32.83,28.509,28.869,32.47,24,32.47z"/><path fill="#b7b7b7" d="M24,15.979c-4.224,0-7.661,3.437-7.661,7.661c0,4.224,3.437,7.661,7.661,7.661 s7.661-3.437,7.661-7.661C31.661,19.416,28.224,15.979,24,15.979z M24,32.462c-4.864,0-8.822-3.957-8.822-8.822 c0-4.864,3.957-8.822,8.822-8.822s8.822,3.957,8.822,8.822C32.822,28.504,28.864,32.462,24,32.462z"/><path fill="#b8b8b8" d="M24,15.971c-4.229,0-7.669,3.44-7.669,7.669c0,4.229,3.44,7.67,7.669,7.67 s7.669-3.441,7.669-7.67C31.669,19.411,28.229,15.971,24,15.971z M24,32.454c-4.86,0-8.813-3.954-8.813-8.814 c0-4.86,3.954-8.813,8.813-8.813s8.813,3.954,8.813,8.813C32.813,28.5,28.86,32.454,24,32.454z"/><path fill="#b9b9b9" d="M24,15.963c-4.233,0-7.677,3.444-7.677,7.677c0,4.233,3.444,7.678,7.677,7.678 s7.677-3.444,7.677-7.678C31.677,19.407,28.233,15.963,24,15.963z M24,32.446c-4.855,0-8.805-3.95-8.805-8.806 c0-4.855,3.95-8.805,8.805-8.805s8.805,3.95,8.805,8.805C32.805,28.495,28.855,32.446,24,32.446z"/><path fill="#bababa" d="M24,15.954c-4.238,0-7.685,3.448-7.685,7.685c0,4.238,3.448,7.686,7.685,7.686 s7.685-3.448,7.685-7.686C31.685,19.402,28.238,15.954,24,15.954z M24,32.437c-4.851,0-8.797-3.947-8.797-8.798 c0-4.851,3.947-8.797,8.797-8.797s8.797,3.946,8.797,8.797C32.797,28.491,28.851,32.437,24,32.437z"/><path fill="#bbb" d="M24,15.946c-4.242,0-7.694,3.451-7.694,7.694c0,4.242,3.451,7.694,7.694,7.694 s7.694-3.452,7.694-7.694C31.694,19.398,28.242,15.946,24,15.946z M24,32.429c-4.846,0-8.789-3.943-8.789-8.789 c0-4.846,3.943-8.789,8.789-8.789s8.789,3.943,8.789,8.789C32.789,28.486,28.846,32.429,24,32.429z"/><path fill="#bcbcbc" d="M24,15.938c-4.247,0-7.702,3.455-7.702,7.702c0,4.247,3.455,7.702,7.702,7.702 s7.702-3.455,7.702-7.702C31.702,19.393,28.247,15.938,24,15.938z M24,32.421c-4.842,0-8.781-3.939-8.781-8.781 c0-4.842,3.939-8.781,8.781-8.781s8.781,3.939,8.781,8.781C32.781,28.482,28.842,32.421,24,32.421z"/><path fill="#bdbdbd" d="M24,15.93c-4.251,0-7.71,3.459-7.71,7.71c0,4.251,3.459,7.71,7.71,7.71s7.71-3.459,7.71-7.71 C31.71,19.389,28.251,15.93,24,15.93z M24,32.413c-4.837,0-8.773-3.936-8.773-8.773c0-4.837,3.936-8.773,8.773-8.773 s8.773,3.935,8.773,8.773C32.773,28.477,28.837,32.413,24,32.413z"/><path fill="#bebebe" d="M24,15.922c-4.256,0-7.718,3.462-7.718,7.718c0,4.256,3.462,7.718,7.718,7.718 s7.718-3.463,7.718-7.718C31.718,19.384,28.256,15.922,24,15.922z M24,32.405c-4.833,0-8.765-3.932-8.765-8.765 c0-4.833,3.932-8.765,8.765-8.765s8.765,3.932,8.765,8.765C32.765,28.473,28.833,32.405,24,32.405z"/><path fill="#bebebe" d="M24,15.914c-4.26,0-7.726,3.466-7.726,7.726c0,4.26,3.466,7.727,7.726,7.727 s7.726-3.466,7.726-7.727C31.726,19.38,28.26,15.914,24,15.914z M24,32.397c-4.828,0-8.756-3.928-8.756-8.757 c0-4.828,3.928-8.756,8.756-8.756s8.756,3.928,8.756,8.756C32.756,28.468,28.828,32.397,24,32.397z"/><path fill="#bfbfbf" d="M24,15.906c-4.265,0-7.734,3.47-7.734,7.734c0,4.265,3.47,7.735,7.734,7.735 s7.734-3.47,7.734-7.735C31.734,19.375,28.265,15.906,24,15.906z M24,32.389c-4.824,0-8.748-3.925-8.748-8.749 c0-4.824,3.925-8.748,8.748-8.748s8.748,3.924,8.748,8.748C32.748,28.464,28.824,32.389,24,32.389z"/><path fill="silver" d="M24,15.897c-4.269,0-7.742,3.473-7.742,7.742c0,4.269,3.473,7.743,7.742,7.743 s7.742-3.473,7.742-7.743C31.742,19.371,28.269,15.897,24,15.897z M24,32.38c-4.819,0-8.74-3.921-8.74-8.741 c0-4.819,3.921-8.74,8.74-8.74s8.74,3.921,8.74,8.74C32.74,28.459,28.819,32.38,24,32.38z"/><path fill="#c1c1c1" d="M24,15.889c-4.274,0-7.751,3.477-7.751,7.751c0,4.274,3.477,7.751,7.751,7.751 s7.751-3.477,7.751-7.751C31.751,19.366,28.274,15.889,24,15.889z M24,32.372c-4.815,0-8.732-3.917-8.732-8.732 c0-4.815,3.917-8.732,8.732-8.732s8.732,3.917,8.732,8.732C32.732,28.455,28.815,32.372,24,32.372z"/><path fill="#c2c2c2" d="M24,15.881c-4.278,0-7.759,3.481-7.759,7.759c0,4.278,3.481,7.759,7.759,7.759 s7.759-3.481,7.759-7.759C31.759,19.362,28.278,15.881,24,15.881z M24,32.364c-4.81,0-8.724-3.914-8.724-8.724 c0-4.81,3.914-8.724,8.724-8.724s8.724,3.913,8.724,8.724C32.724,28.45,28.81,32.364,24,32.364z"/><path fill="#c3c3c3" d="M24,15.873c-4.283,0-7.767,3.484-7.767,7.767c0,4.283,3.484,7.767,7.767,7.767 s7.767-3.484,7.767-7.767C31.767,19.357,28.283,15.873,24,15.873z M24,32.356c-4.806,0-8.716-3.91-8.716-8.716 c0-4.806,3.91-8.716,8.716-8.716s8.716,3.91,8.716,8.716C32.716,28.446,28.806,32.356,24,32.356z"/><path fill="#c4c4c4" d="M24,15.865c-4.287,0-7.775,3.488-7.775,7.775c0,4.287,3.488,7.775,7.775,7.775 s7.775-3.488,7.775-7.775C31.775,19.353,28.287,15.865,24,15.865z M24,32.348c-4.801,0-8.708-3.906-8.708-8.708 c0-4.801,3.906-8.708,8.708-8.708s8.708,3.906,8.708,8.708C32.708,28.441,28.801,32.348,24,32.348z"/><path fill="#c5c5c5" d="M24,15.857c-4.292,0-7.783,3.492-7.783,7.783c0,4.292,3.492,7.784,7.783,7.784 s7.783-3.492,7.783-7.784C31.783,19.348,28.292,15.857,24,15.857z M24,32.34c-4.797,0-8.699-3.903-8.699-8.7 c0-4.797,3.903-8.699,8.699-8.699s8.699,3.903,8.699,8.699C32.699,28.437,28.797,32.34,24,32.34z"/><path fill="#c6c6c6" d="M24,15.849c-4.296,0-7.791,3.495-7.791,7.791c0,4.296,3.495,7.792,7.791,7.792 s7.791-3.495,7.791-7.792C31.791,19.344,28.296,15.849,24,15.849z M24,32.332c-4.792,0-8.691-3.899-8.691-8.692 c0-4.792,3.899-8.691,8.691-8.691s8.691,3.899,8.691,8.691C32.691,28.432,28.792,32.332,24,32.332z"/><path fill="#c7c7c7" d="M24,15.84c-4.301,0-7.799,3.499-7.799,7.799c0,4.301,3.499,7.8,7.799,7.8s7.799-3.499,7.799-7.8 C31.799,19.339,28.301,15.84,24,15.84z M24,32.323c-4.788,0-8.683-3.895-8.683-8.684c0-4.788,3.895-8.683,8.683-8.683 s8.683,3.895,8.683,8.683C32.683,28.428,28.788,32.323,24,32.323z"/><path fill="#c8c8c8" d="M24,15.832c-4.305,0-7.808,3.502-7.808,7.808c0,4.305,3.503,7.808,7.808,7.808 s7.808-3.503,7.808-7.808C31.808,19.335,28.305,15.832,24,15.832z M24,32.315c-4.783,0-8.675-3.892-8.675-8.675 c0-4.783,3.892-8.675,8.675-8.675s8.675,3.892,8.675,8.675C32.675,28.423,28.783,32.315,24,32.315z"/><path fill="#c9c9c9" d="M24,15.824c-4.309,0-7.816,3.506-7.816,7.816c0,4.31,3.506,7.816,7.816,7.816 s7.816-3.506,7.816-7.816C31.816,19.33,28.309,15.824,24,15.824z M24,32.307c-4.779,0-8.667-3.888-8.667-8.667 c0-4.779,3.888-8.667,8.667-8.667s8.667,3.888,8.667,8.667C32.667,28.419,28.779,32.307,24,32.307z"/><path fill="#cacaca" d="M24,15.816c-4.314,0-7.824,3.51-7.824,7.824c0,4.314,3.51,7.824,7.824,7.824 s7.824-3.51,7.824-7.824C31.824,19.326,28.314,15.816,24,15.816z M24,32.299c-4.774,0-8.659-3.885-8.659-8.659 c0-4.774,3.885-8.659,8.659-8.659s8.659,3.884,8.659,8.659C32.659,28.415,28.774,32.299,24,32.299z"/><path fill="#cbcbcb" d="M24,15.808c-4.318,0-7.832,3.513-7.832,7.832c0,4.319,3.514,7.832,7.832,7.832 s7.832-3.514,7.832-7.832C31.832,19.321,28.318,15.808,24,15.808z M24,32.291c-4.77,0-8.651-3.881-8.651-8.651 c0-4.77,3.881-8.651,8.651-8.651s8.651,3.881,8.651,8.651C32.651,28.41,28.77,32.291,24,32.291z"/><path fill="#ccc" d="M24,15.8c-4.323,0-7.84,3.517-7.84,7.84c0,4.323,3.517,7.841,7.84,7.841s7.84-3.517,7.84-7.841 C31.84,19.317,28.323,15.8,24,15.8z M24,32.283c-4.765,0-8.642-3.877-8.642-8.643c0-4.766,3.877-8.642,8.642-8.642 s8.642,3.877,8.642,8.642C32.642,28.406,28.765,32.283,24,32.283z"/><path fill="#cdcdcd" d="M24,15.792c-4.327,0-7.848,3.521-7.848,7.848c0,4.328,3.521,7.849,7.848,7.849 s7.848-3.521,7.848-7.849C31.848,19.312,28.327,15.792,24,15.792z M24,32.275c-4.761,0-8.634-3.874-8.634-8.635 c0-4.761,3.874-8.634,8.634-8.634s8.634,3.873,8.634,8.634C32.634,28.401,28.761,32.275,24,32.275z"/><path fill="#cecece" d="M24,15.783c-4.332,0-7.856,3.524-7.856,7.856c0,4.332,3.525,7.857,7.856,7.857 s7.856-3.525,7.856-7.857C31.856,19.308,28.332,15.783,24,15.783z M24,32.266c-4.756,0-8.626-3.87-8.626-8.627 c0-4.757,3.87-8.626,8.626-8.626s8.626,3.87,8.626,8.626C32.626,28.397,28.756,32.266,24,32.266z"/><path fill="#cfcfcf" d="M24,15.775c-4.336,0-7.865,3.528-7.865,7.865c0,4.337,3.528,7.865,7.865,7.865 s7.865-3.528,7.865-7.865C31.865,19.303,28.336,15.775,24,15.775z M24,32.258c-4.752,0-8.618-3.866-8.618-8.618 c0-4.752,3.866-8.618,8.618-8.618s8.618,3.866,8.618,8.618C32.618,28.392,28.752,32.258,24,32.258z"/><path fill="#d0d0d0" d="M24,15.767c-4.341,0-7.873,3.532-7.873,7.873c0,4.341,3.532,7.873,7.873,7.873 s7.873-3.532,7.873-7.873C31.873,19.299,28.341,15.767,24,15.767z M24,32.25c-4.747,0-8.61-3.863-8.61-8.61 c0-4.748,3.863-8.61,8.61-8.61s8.61,3.862,8.61,8.61C32.61,28.388,28.747,32.25,24,32.25z"/><path fill="#d1d1d1" d="M24,15.759c-4.345,0-7.881,3.535-7.881,7.881c0,4.346,3.535,7.881,7.881,7.881 s7.881-3.536,7.881-7.881C31.881,19.294,28.345,15.759,24,15.759z M24,32.242c-4.743,0-8.602-3.859-8.602-8.602 c0-4.743,3.859-8.602,8.602-8.602s8.602,3.859,8.602,8.602C32.602,28.383,28.743,32.242,24,32.242z"/><path fill="#d2d2d2" d="M24,15.751c-4.35,0-7.889,3.539-7.889,7.889c0,4.35,3.539,7.889,7.889,7.889 s7.889-3.539,7.889-7.889C31.889,19.29,28.35,15.751,24,15.751z M24,32.234c-4.738,0-8.594-3.855-8.594-8.594 c0-4.739,3.855-8.594,8.594-8.594s8.594,3.855,8.594,8.594C32.594,28.379,28.738,32.234,24,32.234z"/><path fill="#d3d3d3" d="M24,15.743c-4.354,0-7.897,3.543-7.897,7.897c0,4.355,3.543,7.898,7.897,7.898 s7.897-3.543,7.897-7.898C31.897,19.285,28.354,15.743,24,15.743z M24,32.226c-4.734,0-8.585-3.852-8.585-8.586 c0-4.734,3.852-8.585,8.585-8.585s8.585,3.851,8.585,8.585C32.585,28.374,28.734,32.226,24,32.226z"/><path fill="#d4d4d4" d="M24,15.735c-4.359,0-7.905,3.546-7.905,7.905c0,4.359,3.546,7.906,7.905,7.906 s7.905-3.547,7.905-7.906C31.905,19.281,28.359,15.735,24,15.735z M24,32.218c-4.729,0-8.577-3.848-8.577-8.578 c0-4.73,3.848-8.577,8.577-8.577s8.577,3.848,8.577,8.577C32.577,28.37,28.729,32.218,24,32.218z"/><path fill="#d5d5d5" d="M24,15.726c-4.363,0-7.913,3.55-7.913,7.913c0,4.364,3.55,7.914,7.913,7.914 s7.913-3.55,7.913-7.914C31.913,19.276,28.363,15.726,24,15.726z M24,32.209c-4.725,0-8.569-3.844-8.569-8.57 c0-4.725,3.844-8.569,8.569-8.569s8.569,3.844,8.569,8.569C32.569,28.365,28.725,32.209,24,32.209z"/><path fill="#d6d6d6" d="M24,15.718c-4.368,0-7.922,3.554-7.922,7.922c0,4.368,3.554,7.922,7.922,7.922 s7.922-3.554,7.922-7.922C31.922,19.272,28.368,15.718,24,15.718z M24,32.201c-4.72,0-8.561-3.841-8.561-8.561 c0-4.721,3.841-8.561,8.561-8.561s8.561,3.84,8.561,8.561C32.561,28.361,28.72,32.201,24,32.201z"/><path fill="#d7d7d7" d="M24,15.71c-4.372,0-7.93,3.557-7.93,7.93c0,4.373,3.557,7.93,7.93,7.93s7.93-3.558,7.93-7.93 C31.93,19.267,28.372,15.71,24,15.71z M24,32.193c-4.716,0-8.553-3.837-8.553-8.553c0-4.716,3.837-8.553,8.553-8.553 s8.553,3.837,8.553,8.553C32.553,28.356,28.716,32.193,24,32.193z"/><path fill="#d8d8d8" d="M24,15.702c-4.377,0-7.938,3.561-7.938,7.938c0,4.377,3.561,7.938,7.938,7.938 s7.938-3.561,7.938-7.938C31.938,19.263,28.377,15.702,24,15.702z M24,32.185c-4.711,0-8.545-3.833-8.545-8.545 c0-4.712,3.833-8.545,8.545-8.545s8.545,3.833,8.545,8.545C32.545,28.352,28.711,32.185,24,32.185z"/><path fill="#d9d9d9" d="M24,15.694c-4.381,0-7.946,3.564-7.946,7.946c0,4.382,3.565,7.946,7.946,7.946 s7.946-3.565,7.946-7.946C31.946,19.258,28.381,15.694,24,15.694z M24,32.177c-4.707,0-8.537-3.83-8.537-8.537 c0-4.707,3.83-8.537,8.537-8.537s8.537,3.829,8.537,8.537C32.537,28.347,28.707,32.177,24,32.177z"/><path fill="#dadada" d="M24,15.686c-4.386,0-7.954,3.568-7.954,7.954c0,4.386,3.568,7.955,7.954,7.955 s7.954-3.568,7.954-7.955C31.954,19.254,28.386,15.686,24,15.686z M24,32.169c-4.702,0-8.528-3.826-8.528-8.529 c0-4.703,3.826-8.528,8.528-8.528s8.528,3.826,8.528,8.528C32.528,28.343,28.702,32.169,24,32.169z"/><path fill="#dbdbdb" d="M24,15.678c-4.39,0-7.962,3.572-7.962,7.962c0,4.391,3.572,7.963,7.962,7.963 s7.962-3.572,7.962-7.963C31.962,19.249,28.39,15.678,24,15.678z M24,32.161c-4.698,0-8.52-3.822-8.52-8.521 c0-4.698,3.822-8.52,8.52-8.52s8.52,3.822,8.52,8.52C32.52,28.338,28.698,32.161,24,32.161z"/><path fill="#dcdcdc" d="M24,15.669c-4.395,0-7.97,3.575-7.97,7.97c0,4.395,3.576,7.971,7.97,7.971s7.97-3.576,7.97-7.971 C31.97,19.245,28.395,15.669,24,15.669z M24,32.152c-4.693,0-8.512-3.819-8.512-8.513c0-4.694,3.819-8.512,8.512-8.512 s8.512,3.818,8.512,8.512C32.512,28.334,28.693,32.152,24,32.152z"/><path fill="#ddd" d="M24,15.661c-4.399,0-7.979,3.579-7.979,7.979c0,4.4,3.579,7.979,7.979,7.979 s7.979-3.579,7.979-7.979C31.979,19.24,28.399,15.661,24,15.661z M24,32.144c-4.689,0-8.504-3.815-8.504-8.504 c0-4.689,3.815-8.504,8.504-8.504s8.504,3.815,8.504,8.504C32.504,28.329,28.689,32.144,24,32.144z"/><path fill="#dedede" d="M24,15.653c-4.404,0-7.987,3.583-7.987,7.987c0,4.404,3.583,7.987,7.987,7.987 s7.987-3.583,7.987-7.987C31.987,19.236,28.404,15.653,24,15.653z M24,32.136c-4.684,0-8.496-3.812-8.496-8.496 c0-4.685,3.812-8.496,8.496-8.496s8.496,3.811,8.496,8.496C32.496,28.325,28.684,32.136,24,32.136z"/><path fill="#dfdfdf" d="M24,15.645c-4.408,0-7.995,3.586-7.995,7.995c0,4.409,3.587,7.995,7.995,7.995 s7.995-3.587,7.995-7.995C31.995,19.231,28.408,15.645,24,15.645z M24,32.128c-4.68,0-8.488-3.808-8.488-8.488 c0-4.68,3.808-8.488,8.488-8.488s8.488,3.808,8.488,8.488C32.488,28.32,28.68,32.128,24,32.128z"/><path fill="#e0e0e0" d="M24,15.637c-4.413,0-8.003,3.59-8.003,8.003c0,4.413,3.59,8.003,8.003,8.003 s8.003-3.59,8.003-8.003C32.003,19.227,28.413,15.637,24,15.637z M24,32.12c-4.675,0-8.48-3.804-8.48-8.48 c0-4.676,3.804-8.48,8.48-8.48s8.48,3.804,8.48,8.48C32.48,28.316,28.675,32.12,24,32.12z"/><path fill="#e1e1e1" d="M24,15.629c-4.417,0-8.011,3.594-8.011,8.011c0,4.417,3.594,8.012,8.011,8.012 s8.011-3.594,8.011-8.012C32.011,19.222,28.417,15.629,24,15.629z M24,32.112c-4.671,0-8.471-3.801-8.471-8.472 c0-4.671,3.801-8.471,8.471-8.471s8.471,3.8,8.471,8.471C32.471,28.311,28.671,32.112,24,32.112z"/><path fill="#e2e2e2" d="M24,15.621c-4.422,0-8.019,3.597-8.019,8.019c0,4.422,3.598,8.02,8.019,8.02 s8.019-3.598,8.019-8.02C32.019,19.218,28.422,15.621,24,15.621z M24,32.104c-4.666,0-8.463-3.797-8.463-8.464 c0-4.667,3.797-8.463,8.463-8.463s8.463,3.797,8.463,8.463C32.463,28.307,28.666,32.104,24,32.104z"/><path fill="#e3e3e3" d="M24,15.613c-4.426,0-8.027,3.601-8.027,8.027c0,4.426,3.601,8.028,8.027,8.028 s8.027-3.601,8.027-8.028C32.027,19.213,28.426,15.613,24,15.613z M24,32.095c-4.662,0-8.455-3.793-8.455-8.456 c0-4.662,3.793-8.455,8.455-8.455s8.455,3.793,8.455,8.455C32.455,28.302,28.662,32.095,24,32.095z"/><path fill="#e4e4e4" d="M24,15.604c-4.431,0-8.036,3.605-8.036,8.036c0,4.431,3.605,8.036,8.036,8.036 s8.036-3.605,8.036-8.036C32.036,19.209,28.431,15.604,24,15.604z M24,32.087c-4.657,0-8.447-3.79-8.447-8.447 c0-4.658,3.79-8.447,8.447-8.447s8.447,3.789,8.447,8.447C32.447,28.298,28.657,32.087,24,32.087z"/><path fill="#e5e5e5" d="M24,15.596c-4.435,0-8.044,3.608-8.044,8.044c0,4.435,3.609,8.044,8.044,8.044 s8.044-3.609,8.044-8.044C32.044,19.204,28.435,15.596,24,15.596z M24,32.079c-4.653,0-8.439-3.786-8.439-8.439 c0-4.653,3.786-8.439,8.439-8.439s8.439,3.786,8.439,8.439C32.439,28.293,28.653,32.079,24,32.079z"/><path fill="#e6e6e6" d="M24,15.588c-4.44,0-8.052,3.612-8.052,8.052c0,4.44,3.612,8.052,8.052,8.052 s8.052-3.612,8.052-8.052C32.052,19.2,28.44,15.588,24,15.588z M24,32.071c-4.648,0-8.431-3.782-8.431-8.431 c0-4.649,3.782-8.431,8.431-8.431s8.431,3.782,8.431,8.431C32.431,28.289,28.648,32.071,24,32.071z"/><path fill="#e7e7e7" d="M24,15.58c-4.444,0-8.06,3.616-8.06,8.06c0,4.444,3.616,8.06,8.06,8.06s8.06-3.616,8.06-8.06 C32.06,19.195,28.444,15.58,24,15.58z M24,32.063c-4.644,0-8.423-3.779-8.423-8.423c0-4.644,3.779-8.423,8.423-8.423 s8.423,3.778,8.423,8.423C32.423,28.284,28.644,32.063,24,32.063z"/><path fill="#e8e8e8" d="M24,15.572c-4.448,0-8.068,3.619-8.068,8.068s3.62,8.069,8.068,8.069s8.068-3.62,8.068-8.069 S28.448,15.572,24,15.572z M24,32.055c-4.639,0-8.414-3.775-8.414-8.415s3.775-8.414,8.414-8.414S32.414,19,32.414,23.64 S28.639,32.055,24,32.055z"/></g><linearGradient id="Ob9Lbd9vthogvVTzEIayfa" x1="11.638" x2="17.407" y1="42.219" y2="42.219" gradientUnits="userSpaceOnUse"><stop offset="0" stop-color="#21211f"/><stop offset=".148" stop-color="#4d4d4b"/><stop offset=".302" stop-color="#737373"/><stop offset=".425" stop-color="#8b8b8b"/><stop offset=".5" stop-color="#949494"/><stop offset=".575" stop-color="#8b8b8b"/><stop offset=".698" stop-color="#737373"/><stop offset=".852" stop-color="#4d4d4b"/><stop offset="1" stop-color="#21211f"/></linearGradient><rect width="5.769" height="1.648" x="11.638" y="41.395" fill="url(#Ob9Lbd9vthogvVTzEIayfa)"/><linearGradient id="Ob9Lbd9vthogvVTzEIayfb" x1="30.593" x2="36.362" y1="42.219" y2="42.219" gradientUnits="userSpaceOnUse"><stop offset="0" stop-color="#21211f"/><stop offset=".148" stop-color="#4d4d4b"/><stop offset=".302" stop-color="#737373"/><stop offset=".425" stop-color="#8b8b8b"/><stop offset=".5" stop-color="#949494"/><stop offset=".575" stop-color="#8b8b8b"/><stop offset=".698" stop-color="#737373"/><stop offset=".852" stop-color="#4d4d4b"/><stop offset="1" stop-color="#21211f"/></linearGradient><rect width="5.769" height="1.648" x="30.593" y="41.395" fill="url(#Ob9Lbd9vthogvVTzEIayfb)"/><radialGradient id="Ob9Lbd9vthogvVTzEIayfc" cx="24" cy="23.64" r="2.688" gradientUnits="userSpaceOnUse"><stop offset="0" stop-color="#fff"/><stop offset=".956" stop-color="#a2a2a2"/><stop offset="1" stop-color="#9e9e9e"/></radialGradient><circle cx="24" cy="23.64" r="2.687" fill="url(#Ob9Lbd9vthogvVTzEIayfc)"/><g><radialGradient id="Ob9Lbd9vthogvVTzEIayfd" cx="38.835" cy="22.982" r="4.85" gradientUnits="userSpaceOnUse"><stop offset="0" stop-color="#ffdc96"/><stop offset=".298" stop-color="#ffb726"/><stop offset=".402" stop-color="#f9b026"/><stop offset=".558" stop-color="#e89b26"/><stop offset=".746" stop-color="#cc7927"/><stop offset=".959" stop-color="#a64b28"/><stop offset="1" stop-color="#9e4128"/></radialGradient><circle cx="38.835" cy="23.264" r="3.297" fill="url(#Ob9Lbd9vthogvVTzEIayfd)"/><linearGradient id="Ob9Lbd9vthogvVTzEIayfe" x1="38.835" x2="38.835" y1="20.953" y2="24.8" gradientUnits="userSpaceOnUse"><stop offset=".005" stop-color="#2688c7"/><stop offset=".166" stop-color="#1e6a9c"/><stop offset=".353" stop-color="#164d71"/><stop offset=".535" stop-color="#0f3550"/><stop offset=".708" stop-color="#0b2538"/><stop offset=".867" stop-color="#081a29"/><stop offset="1" stop-color="#071724"/></linearGradient><path fill="url(#Ob9Lbd9vthogvVTzEIayfe)" d="M40.418,21.315h-3.166c-0.109,0-0.218,0.04-0.294,0.118 c-0.357,0.361-0.613,0.822-0.713,1.34c-0.049,0.254,0.151,0.491,0.409,0.491h4.362c0.259,0,0.459-0.237,0.409-0.491 c-0.1-0.517-0.356-0.978-0.713-1.34C40.636,21.355,40.527,21.315,40.418,21.315z"/></g><g><radialGradient id="Ob9Lbd9vthogvVTzEIayff" cx="9.165" cy="22.982" r="4.85" gradientUnits="userSpaceOnUse"><stop offset="0" stop-color="#ffdc96"/><stop offset=".298" stop-color="#ffb726"/><stop offset=".402" stop-color="#f9b026"/><stop offset=".558" stop-color="#e89b26"/><stop offset=".746" stop-color="#cc7927"/><stop offset=".959" stop-color="#a64b28"/><stop offset="1" stop-color="#9e4128"/></radialGradient><circle cx="9.165" cy="23.264" r="3.297" fill="url(#Ob9Lbd9vthogvVTzEIayff)"/><linearGradient id="Ob9Lbd9vthogvVTzEIayfg" x1="9.165" x2="9.165" y1="20.953" y2="24.8" gradientUnits="userSpaceOnUse"><stop offset=".005" stop-color="#2688c7"/><stop offset=".166" stop-color="#1e6a9c"/><stop offset=".353" stop-color="#164d71"/><stop offset=".535" stop-color="#0f3550"/><stop offset=".708" stop-color="#0b2538"/><stop offset=".867" stop-color="#081a29"/><stop offset="1" stop-color="#071724"/></linearGradient><path fill="url(#Ob9Lbd9vthogvVTzEIayfg)" d="M10.748,21.315H7.582c-0.109,0-0.218,0.04-0.294,0.118 c-0.357,0.361-0.613,0.822-0.713,1.34c-0.049,0.254,0.151,0.491,0.409,0.491h4.362c0.259,0,0.459-0.237,0.409-0.491 c-0.1-0.517-0.356-0.978-0.713-1.34C10.966,21.355,10.858,21.315,10.748,21.315z"/></g><g><radialGradient id="Ob9Lbd9vthogvVTzEIayfh" cx="24" cy="37.816" r="4.85" gradientUnits="userSpaceOnUse"><stop offset="0" stop-color="#ffdc96"/><stop offset=".298" stop-color="#ffb726"/><stop offset=".402" stop-color="#f9b026"/><stop offset=".558" stop-color="#e89b26"/><stop offset=".746" stop-color="#cc7927"/><stop offset=".959" stop-color="#a64b28"/><stop offset="1" stop-color="#9e4128"/></radialGradient><circle cx="24" cy="38.099" r="3.297" fill="url(#Ob9Lbd9vthogvVTzEIayfh)"/><linearGradient id="Ob9Lbd9vthogvVTzEIayfi" x1="24" x2="24" y1="35.787" y2="39.635" gradientUnits="userSpaceOnUse"><stop offset=".005" stop-color="#2688c7"/><stop offset=".166" stop-color="#1e6a9c"/><stop offset=".353" stop-color="#164d71"/><stop offset=".535" stop-color="#0f3550"/><stop offset=".708" stop-color="#0b2538"/><stop offset=".867" stop-color="#081a29"/><stop offset="1" stop-color="#071724"/></linearGradient><path fill="url(#Ob9Lbd9vthogvVTzEIayfi)" d="M25.583,36.15h-3.166c-0.109,0-0.218,0.04-0.294,0.118 c-0.357,0.361-0.613,0.822-0.713,1.34c-0.049,0.254,0.151,0.491,0.409,0.491h4.362c0.259,0,0.459-0.237,0.409-0.491 c-0.1-0.517-0.356-0.978-0.713-1.34C25.801,36.19,25.692,36.15,25.583,36.15z"/></g><g><radialGradient id="Ob9Lbd9vthogvVTzEIayfj" cx="24" cy="8.971" r="4.85" gradientUnits="userSpaceOnUse"><stop offset="0" stop-color="#ffdc96"/><stop offset=".298" stop-color="#ffb726"/><stop offset=".402" stop-color="#f9b026"/><stop offset=".558" stop-color="#e89b26"/><stop offset=".746" stop-color="#cc7927"/><stop offset=".959" stop-color="#a64b28"/><stop offset="1" stop-color="#9e4128"/></radialGradient><circle cx="24" cy="9.253" r="3.297" fill="url(#Ob9Lbd9vthogvVTzEIayfj)"/><linearGradient id="Ob9Lbd9vthogvVTzEIayfk" x1="24" x2="24" y1="6.942" y2="10.79" gradientUnits="userSpaceOnUse"><stop offset=".005" stop-color="#2688c7"/><stop offset=".166" stop-color="#1e6a9c"/><stop offset=".353" stop-color="#164d71"/><stop offset=".535" stop-color="#0f3550"/><stop offset=".708" stop-color="#0b2538"/><stop offset=".867" stop-color="#081a29"/><stop offset="1" stop-color="#071724"/></linearGradient><path fill="url(#Ob9Lbd9vthogvVTzEIayfk)" d="M25.583,7.305h-3.166c-0.109,0-0.218,0.04-0.294,0.118 c-0.357,0.361-0.613,0.822-0.713,1.34c-0.049,0.254,0.151,0.491,0.409,0.491h4.362c0.259,0,0.459-0.237,0.409-0.491 c-0.1-0.517-0.356-0.978-0.713-1.34C25.801,7.345,25.692,7.305,25.583,7.305z"/></g><g><radialGradient id="Ob9Lbd9vthogvVTzEIayfl" cx="14.11" cy="13.374" r="3.297" gradientUnits="userSpaceOnUse"><stop offset=".005" stop-color="#ff9875"/><stop offset=".309" stop-color="#e64229"/><stop offset=".443" stop-color="#df412b"/><stop offset=".643" stop-color="#ca4030"/><stop offset=".885" stop-color="#a93d38"/><stop offset="1" stop-color="#963c3c"/></radialGradient><circle cx="14.11" cy="13.374" r="3.297" fill="url(#Ob9Lbd9vthogvVTzEIayfl)"/><linearGradient id="Ob9Lbd9vthogvVTzEIayfm" x1="14.11" x2="14.11" y1="11.063" y2="14.91" gradientUnits="userSpaceOnUse"><stop offset=".005" stop-color="#2688c7"/><stop offset=".166" stop-color="#1e6a9c"/><stop offset=".353" stop-color="#164d71"/><stop offset=".535" stop-color="#0f3550"/><stop offset=".708" stop-color="#0b2538"/><stop offset=".867" stop-color="#081a29"/><stop offset="1" stop-color="#071724"/></linearGradient><path fill="url(#Ob9Lbd9vthogvVTzEIayfm)" d="M15.693,11.425h-3.166c-0.109,0-0.218,0.04-0.294,0.118 c-0.357,0.361-0.613,0.822-0.713,1.34c-0.049,0.254,0.151,0.491,0.409,0.491h4.362c0.259,0,0.459-0.237,0.409-0.491 c-0.1-0.517-0.356-0.978-0.713-1.34C15.911,11.465,15.803,11.425,15.693,11.425z"/></g><g><radialGradient id="Ob9Lbd9vthogvVTzEIayfn" cx="33.89" cy="13.092" r="4.85" gradientUnits="userSpaceOnUse"><stop offset=".005" stop-color="#ff9875"/><stop offset=".309" stop-color="#e64229"/><stop offset=".443" stop-color="#df412b"/><stop offset=".643" stop-color="#ca4030"/><stop offset=".885" stop-color="#a93d38"/><stop offset="1" stop-color="#963c3c"/></radialGradient><circle cx="33.89" cy="13.374" r="3.297" fill="url(#Ob9Lbd9vthogvVTzEIayfn)"/><linearGradient id="Ob9Lbd9vthogvVTzEIayfo" x1="33.89" x2="33.89" y1="11.063" y2="14.91" gradientUnits="userSpaceOnUse"><stop offset=".005" stop-color="#2688c7"/><stop offset=".166" stop-color="#1e6a9c"/><stop offset=".353" stop-color="#164d71"/><stop offset=".535" stop-color="#0f3550"/><stop offset=".708" stop-color="#0b2538"/><stop offset=".867" stop-color="#081a29"/><stop offset="1" stop-color="#071724"/></linearGradient><path fill="url(#Ob9Lbd9vthogvVTzEIayfo)" d="M35.473,11.425h-3.166c-0.109,0-0.218,0.04-0.294,0.118 c-0.357,0.361-0.613,0.822-0.713,1.34c-0.049,0.254,0.151,0.491,0.409,0.491h4.362c0.259,0,0.459-0.237,0.409-0.491 c-0.1-0.517-0.356-0.978-0.713-1.34C35.691,11.465,35.582,11.425,35.473,11.425z"/></g><g><radialGradient id="Ob9Lbd9vthogvVTzEIayfp" cx="14.11" cy="33.696" r="4.85" gradientUnits="userSpaceOnUse"><stop offset=".005" stop-color="#ff9875"/><stop offset=".309" stop-color="#e64229"/><stop offset=".443" stop-color="#df412b"/><stop offset=".643" stop-color="#ca4030"/><stop offset=".885" stop-color="#a93d38"/><stop offset="1" stop-color="#963c3c"/></radialGradient><circle cx="14.11" cy="33.978" r="3.297" fill="url(#Ob9Lbd9vthogvVTzEIayfp)"/><linearGradient id="Ob9Lbd9vthogvVTzEIayfq" x1="14.11" x2="14.11" y1="31.667" y2="35.514" gradientUnits="userSpaceOnUse"><stop offset=".005" stop-color="#2688c7"/><stop offset=".166" stop-color="#1e6a9c"/><stop offset=".353" stop-color="#164d71"/><stop offset=".535" stop-color="#0f3550"/><stop offset=".708" stop-color="#0b2538"/><stop offset=".867" stop-color="#081a29"/><stop offset="1" stop-color="#071724"/></linearGradient><path fill="url(#Ob9Lbd9vthogvVTzEIayfq)" d="M15.693,32.029h-3.166c-0.109,0-0.218,0.04-0.294,0.118 c-0.357,0.361-0.613,0.822-0.713,1.34c-0.049,0.254,0.151,0.491,0.409,0.491h4.362c0.259,0,0.459-0.237,0.409-0.491 c-0.1-0.517-0.356-0.978-0.713-1.34C15.911,32.069,15.803,32.029,15.693,32.029z"/></g><g><radialGradient id="Ob9Lbd9vthogvVTzEIayfr" cx="33.89" cy="33.696" r="4.85" gradientUnits="userSpaceOnUse"><stop offset=".005" stop-color="#ff9875"/><stop offset=".309" stop-color="#e64229"/><stop offset=".443" stop-color="#df412b"/><stop offset=".643" stop-color="#ca4030"/><stop offset=".885" stop-color="#a93d38"/><stop offset="1" stop-color="#963c3c"/></radialGradient><circle cx="33.89" cy="33.978" r="3.297" fill="url(#Ob9Lbd9vthogvVTzEIayfr)"/><linearGradient id="Ob9Lbd9vthogvVTzEIayfs" x1="33.89" x2="33.89" y1="31.667" y2="35.514" gradientUnits="userSpaceOnUse"><stop offset=".005" stop-color="#2688c7"/><stop offset=".166" stop-color="#1e6a9c"/><stop offset=".353" stop-color="#164d71"/><stop offset=".535" stop-color="#0f3550"/><stop offset=".708" stop-color="#0b2538"/><stop offset=".867" stop-color="#081a29"/><stop offset="1" stop-color="#071724"/></linearGradient><path fill="url(#Ob9Lbd9vthogvVTzEIayfs)" d="M35.473,32.029h-3.166c-0.109,0-0.218,0.04-0.294,0.118 c-0.357,0.361-0.613,0.822-0.713,1.34c-0.049,0.254,0.151,0.491,0.409,0.491h4.362c0.259,0,0.459-0.237,0.409-0.491 c-0.1-0.517-0.356-0.978-0.713-1.34C35.691,32.069,35.582,32.029,35.473,32.029z"/></g></svg>