<svg xmlns="http://www.w3.org/2000/svg" viewBox="0 0 48 48"><radialGradient id="JL3fssijBDHovGOqMv9VNa" cx="7.886" cy="15.667" r="5.772" gradientTransform="matrix(1 0 0 .775 0 2.377)" gradientUnits="userSpaceOnUse"><stop offset="0" stop-color="#ffdc96"/><stop offset=".298" stop-color="#ffb726"/><stop offset=".402" stop-color="#f9b026"/><stop offset=".558" stop-color="#e89b26"/><stop offset=".746" stop-color="#cc7927"/><stop offset=".959" stop-color="#a64b28"/><stop offset="1" stop-color="#9e4128"/></radialGradient><path fill="url(#JL3fssijBDHovGOqMv9VNa)" d="M11.626,16.515c0,1.491-1.363,2.699-3.045,2.699s-3.045-1.208-3.045-2.699 c0-1.665,1.723-2.914,3.045-4.308C9.962,13.605,11.626,14.807,11.626,16.515z"/><radialGradient id="JL3fssijBDHovGOqMv9VNb" cx="22.124" cy="13.223" r="16.902" gradientTransform="matrix(1 0 0 .7023 0 3.936)" gradientUnits="userSpaceOnUse"><stop offset="0" stop-color="#ffdc96"/><stop offset=".298" stop-color="#ffb726"/><stop offset=".402" stop-color="#f9b026"/><stop offset=".558" stop-color="#e89b26"/><stop offset=".746" stop-color="#cc7927"/><stop offset=".959" stop-color="#a64b28"/><stop offset="1" stop-color="#9e4128"/></radialGradient><path fill="url(#JL3fssijBDHovGOqMv9VNb)" d="M24.593,10.995c0.2-0.044,0.399-0.104,0.591-0.197c0.759-0.368,1.252-1.054,1.419-1.819 c-0.191,0.342-0.483,0.631-0.862,0.815c-0.985,0.477-2.17,0.065-2.647-0.92c-0.477-0.985-0.065-2.17,0.92-2.647 c0.379-0.184,0.787-0.233,1.174-0.171c-0.704-0.343-1.547-0.382-2.306-0.014c-1.313,0.636-1.862,2.216-1.226,3.53 c0.36,0.742,1.024,1.228,1.767,1.407c-3.037,2.452-9.376,4.368-9.376,9.025c0,3.497,4.455,6.332,9.951,6.332 s9.951-2.835,9.951-6.332C33.947,15.357,27.638,13.439,24.593,10.995z"/><radialGradient id="JL3fssijBDHovGOqMv9VNc" cx="23.143" cy="35.423" r="16.463" gradientTransform="matrix(.7143 0 0 1.3187 7.524 -14.038)" gradientUnits="userSpaceOnUse"><stop offset=".011" stop-color="#ffeed6"/><stop offset=".134" stop-color="#fae8d0"/><stop offset=".299" stop-color="#ebd8bf"/><stop offset=".488" stop-color="#d3bea3"/><stop offset=".694" stop-color="#b1997c"/><stop offset=".912" stop-color="#866b4b"/><stop offset="1" stop-color="#735635"/></radialGradient><rect width="16.585" height="15.573" x="15.704" y="23.503" fill="url(#JL3fssijBDHovGOqMv9VNc)"/><radialGradient id="JL3fssijBDHovGOqMv9VNd" cx="24.082" cy="38.432" r="17.271" gradientTransform="matrix(1 0 0 1.3348 0 -14.884)" gradientUnits="userSpaceOnUse"><stop offset=".011" stop-color="#ffeed6"/><stop offset=".134" stop-color="#fae8d0"/><stop offset=".299" stop-color="#ebd8bf"/><stop offset=".488" stop-color="#d3bea3"/><stop offset=".694" stop-color="#b1997c"/><stop offset=".912" stop-color="#866b4b"/><stop offset="1" stop-color="#735635"/></radialGradient><rect width="24.358" height="16.536" x="11.817" y="26.675" fill="url(#JL3fssijBDHovGOqMv9VNd)"/><linearGradient id="JL3fssijBDHovGOqMv9VNe" x1="23.997" x2="23.997" y1="43.871" y2="31.737" gradientUnits="userSpaceOnUse"><stop offset=".005" stop-color="#9e6431"/><stop offset=".085" stop-color="#925c2c"/><stop offset=".309" stop-color="#774921"/><stop offset=".535" stop-color="#643b19"/><stop offset=".764" stop-color="#583315"/><stop offset="1" stop-color="#543013"/></linearGradient><path fill="url(#JL3fssijBDHovGOqMv9VNe)" d="M23.996,31.535c0,0-3.915,2.099-3.915,4.716v6.959h7.829v-6.959 C27.911,33.663,23.996,31.535,23.996,31.535z"/><linearGradient id="JL3fssijBDHovGOqMv9VNf" x1="23.997" x2="23.997" y1="43.871" y2="31.737" gradientUnits="userSpaceOnUse"><stop offset=".005" stop-color="#9e6431" stop-opacity="0"/><stop offset=".029" stop-color="#935d2d" stop-opacity=".024"/><stop offset=".099" stop-color="#784b23" stop-opacity=".094"/><stop offset=".179" stop-color="#623c1b" stop-opacity=".174"/><stop offset=".272" stop-color="#513115" stop-opacity=".268"/><stop offset=".388" stop-color="#462911" stop-opacity=".385"/><stop offset=".55" stop-color="#3f240f" stop-opacity=".547"/><stop offset="1" stop-color="#3d230e"/></linearGradient><path fill="url(#JL3fssijBDHovGOqMv9VNf)" d="M27.911,43.211v-6.959c0-2.589-3.915-4.716-3.915-4.716 s-3.915,2.099-3.915,4.716v6.959l0.87-0.002v-6.957c0-1.494,1.951-3.024,3.043-3.707c1.121,0.704,3.046,2.223,3.046,3.707v6.957 L27.911,43.211z" opacity=".5"/><linearGradient id="JL3fssijBDHovGOqMv9VNg" x1="5.436" x2="11.873" y1="31.434" y2="31.434" gradientUnits="userSpaceOnUse"><stop offset="0" stop-color="#735635"/><stop offset=".019" stop-color="#7d6141"/><stop offset=".101" stop-color="#a58c6e"/><stop offset=".183" stop-color="#c5af94"/><stop offset=".264" stop-color="#dfcbb1"/><stop offset=".345" stop-color="#f1dec5"/><stop offset=".424" stop-color="#fbead2"/><stop offset=".5" stop-color="#ffeed6"/><stop offset=".576" stop-color="#fbead2"/><stop offset=".655" stop-color="#f1dec5"/><stop offset=".736" stop-color="#dfcbb1"/><stop offset=".817" stop-color="#c5af94"/><stop offset=".899" stop-color="#a58c6e"/><stop offset=".981" stop-color="#7d6141"/><stop offset="1" stop-color="#735635"/></linearGradient><rect width="6.438" height="23.538" x="5.436" y="19.665" fill="url(#JL3fssijBDHovGOqMv9VNg)"/><linearGradient id="JL3fssijBDHovGOqMv9VNh" x1="8.654" x2="8.654" y1="26.883" y2="21.945" gradientUnits="userSpaceOnUse"><stop offset=".016" stop-color="#664020"/><stop offset=".645" stop-color="#3a230f"/><stop offset="1" stop-color="#261608"/></linearGradient><path fill="url(#JL3fssijBDHovGOqMv9VNh)" d="M10.173,26.499H7.136v-3.037c0-1.124,1.519-1.796,1.519-1.796s1.519,0.665,1.519,1.796 V26.499z"/><linearGradient id="JL3fssijBDHovGOqMv9VNi" x1="4.858" x2="12.451" y1="18.906" y2="18.906" gradientUnits="userSpaceOnUse"><stop offset="0" stop-color="#735635"/><stop offset=".019" stop-color="#7d6141"/><stop offset=".101" stop-color="#a58c6e"/><stop offset=".183" stop-color="#c5af94"/><stop offset=".264" stop-color="#dfcbb1"/><stop offset=".345" stop-color="#f1dec5"/><stop offset=".424" stop-color="#fbead2"/><stop offset=".5" stop-color="#ffeed6"/><stop offset=".576" stop-color="#fbead2"/><stop offset=".655" stop-color="#f1dec5"/><stop offset=".736" stop-color="#dfcbb1"/><stop offset=".817" stop-color="#c5af94"/><stop offset=".899" stop-color="#a58c6e"/><stop offset=".981" stop-color="#7d6141"/><stop offset="1" stop-color="#735635"/></linearGradient><rect width="7.593" height="1.519" x="4.858" y="18.147" fill="url(#JL3fssijBDHovGOqMv9VNi)"/><rect width="6.438" height=".759" x="5.434" y="19.665" fill="#292929" opacity=".5"/><radialGradient id="JL3fssijBDHovGOqMv9VNj" cx="38.523" cy="15.667" r="5.772" gradientTransform="matrix(1 0 0 .775 0 2.377)" gradientUnits="userSpaceOnUse"><stop offset="0" stop-color="#ffdc96"/><stop offset=".298" stop-color="#ffb726"/><stop offset=".402" stop-color="#f9b026"/><stop offset=".558" stop-color="#e89b26"/><stop offset=".746" stop-color="#cc7927"/><stop offset=".959" stop-color="#a64b28"/><stop offset="1" stop-color="#9e4128"/></radialGradient><path fill="url(#JL3fssijBDHovGOqMv9VNj)" d="M42.263,16.515c0,1.491-1.363,2.699-3.045,2.699c-1.682,0-3.045-1.208-3.045-2.699 c0-1.665,1.723-2.914,3.045-4.308C40.598,13.605,42.263,14.807,42.263,16.515z"/><linearGradient id="JL3fssijBDHovGOqMv9VNk" x1="36.072" x2="42.51" y1="31.434" y2="31.434" gradientUnits="userSpaceOnUse"><stop offset="0" stop-color="#735635"/><stop offset=".019" stop-color="#7d6141"/><stop offset=".101" stop-color="#a58c6e"/><stop offset=".183" stop-color="#c5af94"/><stop offset=".264" stop-color="#dfcbb1"/><stop offset=".345" stop-color="#f1dec5"/><stop offset=".424" stop-color="#fbead2"/><stop offset=".5" stop-color="#ffeed6"/><stop offset=".576" stop-color="#fbead2"/><stop offset=".655" stop-color="#f1dec5"/><stop offset=".736" stop-color="#dfcbb1"/><stop offset=".817" stop-color="#c5af94"/><stop offset=".899" stop-color="#a58c6e"/><stop offset=".981" stop-color="#7d6141"/><stop offset="1" stop-color="#735635"/></linearGradient><rect width="6.438" height="23.538" x="36.072" y="19.665" fill="url(#JL3fssijBDHovGOqMv9VNk)"/><linearGradient id="JL3fssijBDHovGOqMv9VNl" x1="39.291" x2="39.291" y1="26.883" y2="21.945" gradientUnits="userSpaceOnUse"><stop offset=".016" stop-color="#664020"/><stop offset=".645" stop-color="#3a230f"/><stop offset="1" stop-color="#261608"/></linearGradient><path fill="url(#JL3fssijBDHovGOqMv9VNl)" d="M40.81,26.499h-3.037v-3.037c0-1.124,1.519-1.796,1.519-1.796s1.519,0.665,1.519,1.796 V26.499z"/><linearGradient id="JL3fssijBDHovGOqMv9VNm" x1="35.495" x2="43.088" y1="18.906" y2="18.906" gradientUnits="userSpaceOnUse"><stop offset="0" stop-color="#735635"/><stop offset=".019" stop-color="#7d6141"/><stop offset=".101" stop-color="#a58c6e"/><stop offset=".183" stop-color="#c5af94"/><stop offset=".264" stop-color="#dfcbb1"/><stop offset=".345" stop-color="#f1dec5"/><stop offset=".424" stop-color="#fbead2"/><stop offset=".5" stop-color="#ffeed6"/><stop offset=".576" stop-color="#fbead2"/><stop offset=".655" stop-color="#f1dec5"/><stop offset=".736" stop-color="#dfcbb1"/><stop offset=".817" stop-color="#c5af94"/><stop offset=".899" stop-color="#a58c6e"/><stop offset=".981" stop-color="#7d6141"/><stop offset="1" stop-color="#735635"/></linearGradient><rect width="7.593" height="1.519" x="35.495" y="18.147" fill="url(#JL3fssijBDHovGOqMv9VNm)"/><rect width="6.438" height=".759" x="36.071" y="19.665" fill="#292929" opacity=".5"/><rect width=".255" height="11.789" x="23.869" y="31.421" fill="#38270f" opacity=".5"/><rect width=".255" height="11.789" x="24.124" y="31.421" fill="#8c6342" opacity=".5"/><radialGradient id="JL3fssijBDHovGOqMv9VNn" cx="23.997" cy="36.634" r="8.821" gradientTransform="matrix(1 0 0 1.1858 0 -6.808)" gradientUnits="userSpaceOnUse"><stop offset=".011" stop-color="#ffeed6"/><stop offset=".134" stop-color="#fae8d0"/><stop offset=".299" stop-color="#ebd8bf"/><stop offset=".488" stop-color="#d3bea3"/><stop offset=".694" stop-color="#b1997c"/><stop offset=".912" stop-color="#866b4b"/><stop offset="1" stop-color="#735635"/></radialGradient><path fill="url(#JL3fssijBDHovGOqMv9VNn)" d="M24.62,30.388l-0.619-0.336l-0.621,0.333c-0.471,0.252-4.603,2.563-4.603,5.866v6.964 h10.439v-6.964C29.216,32.981,25.09,30.644,24.62,30.388z M27.911,43.211h-7.829v-6.959c0-2.617,3.915-4.716,3.915-4.716 s3.915,2.128,3.915,4.716V43.211z"/></svg>