<svg xmlns="http://www.w3.org/2000/svg" viewBox="0 0 48 48"><linearGradient id="RY8b39cmLQGkNrmZ~7Ol0a" x1="35" x2="35" y1="12.486" y2="19.75" gradientUnits="userSpaceOnUse"><stop offset="0" stop-color="#ff7448"/><stop offset="1" stop-color="#e51e25"/></linearGradient><rect width="24" height="5" x="23" y="15" fill="url(#RY8b39cmLQGkNrmZ~7Ol0a)"/><rect width="42" height="7" x="3" y="35" fill="#1c1c1c"/><radialGradient id="RY8b39cmLQGkNrmZ~7Ol0b" cx="10" cy="41" r="4" gradientUnits="userSpaceOnUse"><stop offset="0" stop-color="#666"/><stop offset=".513" stop-color="#646464"/><stop offset=".698" stop-color="#5e5e5d"/><stop offset=".829" stop-color="#525252"/><stop offset=".935" stop-color="#424241"/><stop offset="1" stop-color="#333332"/></radialGradient><circle cx="10" cy="41" r="4" fill="url(#RY8b39cmLQGkNrmZ~7Ol0b)"/><radialGradient id="RY8b39cmLQGkNrmZ~7Ol0c" cx="39" cy="41" r="4" gradientUnits="userSpaceOnUse"><stop offset="0" stop-color="#666"/><stop offset=".513" stop-color="#646464"/><stop offset=".698" stop-color="#5e5e5d"/><stop offset=".829" stop-color="#525252"/><stop offset=".935" stop-color="#424241"/><stop offset="1" stop-color="#333332"/></radialGradient><circle cx="39" cy="41" r="4" fill="url(#RY8b39cmLQGkNrmZ~7Ol0c)"/><linearGradient id="RY8b39cmLQGkNrmZ~7Ol0d" x1="12.483" x2="7.165" y1="43.33" y2="38.34" gradientUnits="userSpaceOnUse"><stop offset="0" stop-color="#999"/><stop offset="1" stop-color="#fff"/></linearGradient><circle cx="10" cy="41" r="2" fill="url(#RY8b39cmLQGkNrmZ~7Ol0d)"/><ellipse cx="10" cy="39.664" fill="#616161" rx=".781" ry=".336"/><ellipse cx="10" cy="42.352" fill="#616161" rx=".781" ry=".336"/><ellipse cx="8.656" cy="41.008" fill="#616161" rx=".336" ry=".781"/><ellipse cx="11.344" cy="41.008" fill="#616161" rx=".336" ry=".781"/><linearGradient id="RY8b39cmLQGkNrmZ~7Ol0e" x1="41.483" x2="36.165" y1="43.33" y2="38.34" gradientUnits="userSpaceOnUse"><stop offset="0" stop-color="#999"/><stop offset="1" stop-color="#fff"/></linearGradient><circle cx="39" cy="41" r="2" fill="url(#RY8b39cmLQGkNrmZ~7Ol0e)"/><ellipse cx="39" cy="39.664" fill="#616161" rx=".781" ry=".336"/><ellipse cx="39" cy="42.352" fill="#616161" rx=".781" ry=".336"/><ellipse cx="37.656" cy="41.008" fill="#616161" rx=".336" ry=".781"/><ellipse cx="40.344" cy="41.008" fill="#616161" rx=".336" ry=".781"/><radialGradient id="RY8b39cmLQGkNrmZ~7Ol0f" cx="30" cy="41" r="4" gradientUnits="userSpaceOnUse"><stop offset="0" stop-color="#666"/><stop offset=".513" stop-color="#646464"/><stop offset=".698" stop-color="#5e5e5d"/><stop offset=".829" stop-color="#525252"/><stop offset=".935" stop-color="#424241"/><stop offset="1" stop-color="#333332"/></radialGradient><circle cx="30" cy="41" r="4" fill="url(#RY8b39cmLQGkNrmZ~7Ol0f)"/><linearGradient id="RY8b39cmLQGkNrmZ~7Ol0g" x1="32.483" x2="27.165" y1="43.33" y2="38.34" gradientUnits="userSpaceOnUse"><stop offset="0" stop-color="#999"/><stop offset="1" stop-color="#fff"/></linearGradient><circle cx="30" cy="41" r="2" fill="url(#RY8b39cmLQGkNrmZ~7Ol0g)"/><ellipse cx="30" cy="39.664" fill="#616161" rx=".781" ry=".336"/><ellipse cx="30" cy="42.352" fill="#616161" rx=".781" ry=".336"/><ellipse cx="28.656" cy="41.008" fill="#616161" rx=".336" ry=".781"/><ellipse cx="31.344" cy="41.008" fill="#616161" rx=".336" ry=".781"/><linearGradient id="RY8b39cmLQGkNrmZ~7Ol0h" x1="23.28" x2="21.096" y1="12.235" y2="3.808" gradientUnits="userSpaceOnUse"><stop offset="0" stop-color="#999"/><stop offset="1" stop-color="#e0e0e0"/></linearGradient><path fill="url(#RY8b39cmLQGkNrmZ~7Ol0h)" d="M36.096,14l4.076-4h5.266V9H6v0.121L1.028,14H1v1h45v-1H36.096z M12.213,14l-4.076-4h8.176	l-4.076,4H12.213z M17.754,10h0.151l4.076,4h-8.303L17.754,10z M23.422,14l-4.076-4h8.176l-4.076,4H23.422z M28.963,10h0.151	l4.076,4h-8.303L28.963,10z M34.655,14h-0.024l-4.076-4h8.176L34.655,14z M6.545,10h0.151l4.076,4H2.469L6.545,10z"/><linearGradient id="RY8b39cmLQGkNrmZ~7Ol0i" x1="19.457" x2="25.992" y1="16.119" y2="35.404" gradientUnits="userSpaceOnUse"><stop offset="0" stop-color="#ff7448"/><stop offset="1" stop-color="#e51e25"/></linearGradient><path fill="url(#RY8b39cmLQGkNrmZ~7Ol0i)" d="M23,20v-3H5.429C5.429,17,2,26.479,2,28.409V42h2h1.101c-0.135-0.664-0.141-1.376,0.022-2.109	c0.427-1.914,1.998-3.448,3.927-3.803C12.229,35.503,15,37.928,15,41c0,0.343-0.035,0.677-0.101,1H23h2.101	c-0.133-0.654-0.141-1.352,0.014-2.073c0.429-1.992,2.106-3.57,4.122-3.87c2.311-0.344,4.358,0.904,5.263,2.8	c0.905-1.896,2.952-3.143,5.263-2.8c2.016,0.3,3.693,1.878,4.122,3.87c0.155,0.721,0.147,1.42,0.014,2.073H47V20H23z"/><linearGradient id="RY8b39cmLQGkNrmZ~7Ol0j" x1="40.674" x2="44.87" y1="9.118" y2="17.08" gradientUnits="userSpaceOnUse"><stop offset=".109" stop-color="gray"/><stop offset=".263" stop-color="#767676"/><stop offset=".529" stop-color="#5a5a5a"/><stop offset=".873" stop-color="#2d2d2d"/><stop offset="1" stop-color="#1a1a1a"/></linearGradient><path fill="url(#RY8b39cmLQGkNrmZ~7Ol0j)" d="M47,15v-4.188C47,9.636,46.375,9,45.687,9H45c-1.001,0-1.813,0.719-2.53,1.457L38,15H47z"/><linearGradient id="RY8b39cmLQGkNrmZ~7Ol0k" x1="19.198" x2="9.004" y1="41.982" y2="13.091" gradientUnits="userSpaceOnUse"><stop offset="0" stop-color="#999"/><stop offset="1" stop-color="#fff"/></linearGradient><path fill="url(#RY8b39cmLQGkNrmZ~7Ol0k)" d="M5.429,17C5.429,17,2,26.48,2,28.411V29h21v-9v-3H5.429z"/><linearGradient id="RY8b39cmLQGkNrmZ~7Ol0l" x1="8.458" x2="11.251" y1="16" y2="16" gradientUnits="userSpaceOnUse"><stop offset="0" stop-color="#ffb30b"/><stop offset="1" stop-color="#ed9216"/></linearGradient><path fill="url(#RY8b39cmLQGkNrmZ~7Ol0l)" d="M13,17H6c-0.552,0-1-0.448-1-1v0c0-0.552,0.448-1,1-1h7c0.552,0,1,0.448,1,1v0	C14,16.552,13.552,17,13,17z"/><circle cx="8" cy="16" r="1" fill="#ffeaa6"/><circle cx="11" cy="16" r="1" fill="#ffeaa6"/><linearGradient id="RY8b39cmLQGkNrmZ~7Ol0m" x1="5.858" x2="1.04" y1="41.977" y2="39.487" gradientUnits="userSpaceOnUse"><stop offset="0" stop-color="#999"/><stop offset="1" stop-color="#e0e0e0"/></linearGradient><rect width="4" height="3" x="1" y="39" fill="url(#RY8b39cmLQGkNrmZ~7Ol0m)"/><linearGradient id="RY8b39cmLQGkNrmZ~7Ol0n" x1="47.843" x2="43.893" y1="41.711" y2="39.669" gradientUnits="userSpaceOnUse"><stop offset="0" stop-color="#999"/><stop offset="1" stop-color="#e0e0e0"/></linearGradient><rect width="3" height="3" x="44" y="39" fill="url(#RY8b39cmLQGkNrmZ~7Ol0n)"/><path fill="#36464e" d="M18.141,27.512h-9.25c-0.828,0-1.344-0.7-1.141-1.7l1.594-6.469c0.099-0.412,0.685-0.856,1.094-0.856	h7.844c0.578,0,1.203,0.512,1.203,1.184v6.578C19.484,26.875,19,27.512,18.141,27.512z"/><path fill="#36464e" d="M6.471,18.503H4.896c-0.817,2.336-2.338,6.813-2.774,8.993h2.458c0.476,0,0.976-0.609,1.091-1.073	l1.659-6.741C7.518,18.953,6.898,18.503,6.471,18.503z"/><linearGradient id="RY8b39cmLQGkNrmZ~7Ol0o" x1="13.615" x2="13.615" y1="20.297" y2="26.756" gradientUnits="userSpaceOnUse"><stop offset="0" stop-color="#5ba5ea"/><stop offset="1" stop-color="#315b8e"/></linearGradient><path fill="url(#RY8b39cmLQGkNrmZ~7Ol0o)" d="M18.179,27H9.051c-0.534,0-0.926-0.502-0.796-1.02l1.59-6.359	C9.936,19.256,10.264,19,10.641,19h7.538C18.633,19,19,19.367,19,19.821v6.359C19,26.633,18.633,27,18.179,27z"/><linearGradient id="RY8b39cmLQGkNrmZ~7Ol0p" x1="4.533" x2="4.533" y1="20.297" y2="26.756" gradientUnits="userSpaceOnUse"><stop offset="0" stop-color="#5ba5ea"/><stop offset="1" stop-color="#315b8e"/></linearGradient><path fill="url(#RY8b39cmLQGkNrmZ~7Ol0p)" d="M4.723,19c-0.779,2.245-1.991,5.856-2.493,8h2.046c0.425,0,0.796-0.289,0.899-0.702	l1.642-6.568C6.91,19.359,6.63,19,6.248,19H4.723z"/><rect width=".5" height="13" x="22.5" y="29" fill="#991425" transform="rotate(-180 22.75 35.5)"/><rect width="45" height="2" x="2" y="32" fill="#dfdfdf"/><rect width="5" height="12" x="23" y="20" fill="#36464e"/><linearGradient id="RY8b39cmLQGkNrmZ~7Ol0q" x1="36.953" x2="33.886" y1="24.567" y2="16.533" gradientUnits="userSpaceOnUse"><stop offset="0" stop-color="#999"/><stop offset="1" stop-color="#fff"/></linearGradient><path fill="url(#RY8b39cmLQGkNrmZ~7Ol0q)" d="M37,20h-1h-8v12h8h1h10V20H37z M37,31h-8V21h8V31z M46,31h-8V21h8V31z"/><linearGradient id="RY8b39cmLQGkNrmZ~7Ol0r" x1="25.396" x2="24.623" y1="23.127" y2="20.343" gradientUnits="userSpaceOnUse"><stop offset="0" stop-color="#999"/><stop offset="1" stop-color="#fff"/></linearGradient><circle cx="25.5" cy="23.5" r="1.5" fill="url(#RY8b39cmLQGkNrmZ~7Ol0r)"/><circle cx="44.5" cy="11.5" r=".5" fill="#cbc9bc"/><linearGradient id="RY8b39cmLQGkNrmZ~7Ol0s" x1="25.396" x2="24.623" y1="28.127" y2="25.343" gradientUnits="userSpaceOnUse"><stop offset="0" stop-color="#999"/><stop offset="1" stop-color="#fff"/></linearGradient><circle cx="25.5" cy="28.5" r="1.5" fill="url(#RY8b39cmLQGkNrmZ~7Ol0s)"/><linearGradient id="RY8b39cmLQGkNrmZ~7Ol0t" x1="10" x2="10" y1="41.063" y2="33.937" gradientUnits="userSpaceOnUse"><stop offset="0" stop-color="#999"/><stop offset="1" stop-color="#e0e0e0"/></linearGradient><path fill="url(#RY8b39cmLQGkNrmZ~7Ol0t)" d="M10,35c-3.314,0-6,2.686-6,6c0,0.341,0.035,0.674,0.09,1h1.011C5.035,41.677,5,41.343,5,41	c0-2.761,2.239-5,5-5s5,2.239,5,5c0,0.343-0.035,0.677-0.101,1h1.011c0.055-0.326,0.09-0.659,0.09-1C16,37.686,13.314,35,10,35z"/><linearGradient id="RY8b39cmLQGkNrmZ~7Ol0u" x1="34.5" x2="34.5" y1="41.003" y2="33.875" gradientUnits="userSpaceOnUse"><stop offset="0" stop-color="#999"/><stop offset="1" stop-color="#e0e0e0"/></linearGradient><path fill="url(#RY8b39cmLQGkNrmZ~7Ol0u)" d="M39,35c-1.794,0-3.4,0.792-4.5,2.041C33.4,35.792,31.794,35,30,35c-3.314,0-6,2.686-6,6	c0,0.341,0.035,0.674,0.09,1h1.011C25.035,41.677,25,41.343,25,41c0-2.761,2.239-5,5-5c1.576,0,2.964,0.744,3.881,1.883	c0.241,0.3,0.452,0.623,0.619,0.974c0.168-0.351,0.378-0.674,0.619-0.974C36.036,36.744,37.424,36,39,36c2.761,0,5,2.239,5,5	c0,0.343-0.035,0.677-0.101,1h1.011c0.055-0.326,0.09-0.659,0.09-1C45,37.686,42.314,35,39,35z"/><path fill="#ccc" d="M6.375,17H5.429c0,0-0.067,0.185-0.179,0.5H23V17H6.375z"/><rect width=".5" height="2" x="22.5" y="32" fill="#bfbfbf" transform="rotate(-180 22.75 33)"/><rect width=".5" height="12" x="22.5" y="17" fill="#a3a3a3" transform="rotate(-180 22.75 23)"/><path fill="#6f7172" d="M3.157,36.344H2v-3.688h2.832c0.572,0,0.944,0.615,0.687,1.137l-0.688,1.498	C4.512,35.937,3.865,36.344,3.157,36.344z"/><linearGradient id="RY8b39cmLQGkNrmZ~7Ol0v" x1="3.513" x2="1.08" y1="34.491" y2="34.513" gradientUnits="userSpaceOnUse"><stop offset="0" stop-color="#fff"/><stop offset="1" stop-color="#90a4ae"/></linearGradient><path fill="url(#RY8b39cmLQGkNrmZ~7Ol0v)" d="M3.001,36H2v-3h2.608c0.389,0,0.643,0.41,0.468,0.758l-0.63,1.349	C4.173,35.654,3.613,36,3.001,36z"/><path fill="#feb218" d="M4.608,33H3.706l-0.789,3h0.084c0.612,0,1.172-0.346,1.446-0.893l0.63-1.349	C5.251,33.41,4.998,33,4.608,33z"/><path fill="#8e2809" d="M45.406,37H47v-5h-1.594C45.182,32,45,32.182,45,32.406v4.188C45,36.818,45.182,37,45.406,37z"/><path fill="#ff8989" d="M47,34.361v-2.044h-1.433c-0.164,0-0.296,0.186-0.296,0.415v1.629H47z"/><path fill="#ec9a1c" d="M45.271,34.659v1.612c0,0.227,0.133,0.411,0.296,0.411H47v-2.023H45.271z"/><rect width="1" height="5" x="37" y="15" fill="#bf3434" transform="rotate(-180 37.5 17.5)"/><linearGradient id="RY8b39cmLQGkNrmZ~7Ol0w" x1="5.502" x2=".436" y1="23.309" y2="21.958" gradientUnits="userSpaceOnUse"><stop offset="0" stop-color="#fff" stop-opacity="0"/><stop offset="1" stop-color="#fff"/></linearGradient><path fill="url(#RY8b39cmLQGkNrmZ~7Ol0w)" d="M6.471,18.503H4.896c-0.817,2.336-2.338,6.813-2.774,8.993h2.458	c0.476,0,0.976-0.609,1.091-1.073l1.659-6.741C7.518,18.953,6.898,18.503,6.471,18.503z"/></svg>