<svg xmlns="http://www.w3.org/2000/svg" viewBox="0 0 48 48"><rect width=".5" height="4" x="37.638" y="37.519" fill="#afafaf" transform="rotate(-134.999 37.889 39.52)"/><rect width=".5" height="4" x="34.81" y="31.862" fill="#afafaf" transform="rotate(-134.999 35.06 33.863)"/><rect width=".5" height="4" x="31.982" y="26.206" fill="#afafaf" transform="rotate(-134.999 32.232 28.206)"/><rect width=".5" height="4" x="8.257" y="8.138" fill="#afafaf" transform="rotate(45.001 8.507 10.137)"/><rect width=".5" height="4" x="13.914" y="10.966" fill="#afafaf" transform="rotate(45.001 14.164 12.966)"/><rect width=".5" height="4" x="19.57" y="13.794" fill="#afafaf" transform="rotate(45.001 19.82 15.794)"/><linearGradient id="xJiHHiaqgpqJbfm1JCii_a" x1="8.293" x2="11.293" y1="18.394" y2="18.394" gradientTransform="rotate(45.001 25.026 24)" gradientUnits="userSpaceOnUse"><stop offset="0" stop-color="#999"/><stop offset=".084" stop-color="#b6b6b6"/><stop offset=".179" stop-color="#cecece"/><stop offset=".278" stop-color="#e0e0e0"/><stop offset=".384" stop-color="#ebebeb"/><stop offset=".508" stop-color="#eee"/><stop offset=".625" stop-color="#eaeaea"/><stop offset=".73" stop-color="#e0e0e0"/><stop offset=".83" stop-color="#cdcdcd"/><stop offset=".926" stop-color="#b4b4b4"/><stop offset="1" stop-color="#9b9b9b"/></linearGradient><path fill="url(#xJiHHiaqgpqJbfm1JCii_a)" d="M16.594,12.568l-1.679-1.635l4.353-4.839c0.207-0.207,0.544-0.207,0.751,0l1.37,1.37 c0.207,0.207,0.207,0.544,0,0.751L16.594,12.568z"/><linearGradient id="xJiHHiaqgpqJbfm1JCii_b" x1="8.293" x2="11.293" y1="15.379" y2="15.379" gradientTransform="rotate(45.001 25.026 24)" gradientUnits="userSpaceOnUse"><stop offset="0" stop-color="#616161"/><stop offset=".161" stop-color="#797979"/><stop offset=".379" stop-color="#949494"/><stop offset=".508" stop-color="#9e9e9e"/><stop offset=".654" stop-color="#909090"/><stop offset=".93" stop-color="#6b6b6b"/><stop offset="1" stop-color="#616161"/></linearGradient><path fill="url(#xJiHHiaqgpqJbfm1JCii_b)" d="M21.042,8.531l0.347-0.315c0.207-0.207,0.207-0.544,0-0.751l-1.37-1.37 c-0.207-0.207-0.544-0.207-0.751,0l-0.314,0.349L21.042,8.531z"/><linearGradient id="xJiHHiaqgpqJbfm1JCii_c" x1="14.293" x2="17.293" y1="15.394" y2="15.394" gradientTransform="rotate(45.001 25.026 24)" gradientUnits="userSpaceOnUse"><stop offset="0" stop-color="#999"/><stop offset=".084" stop-color="#b6b6b6"/><stop offset=".179" stop-color="#cecece"/><stop offset=".278" stop-color="#e0e0e0"/><stop offset=".384" stop-color="#ebebeb"/><stop offset=".508" stop-color="#eee"/><stop offset=".625" stop-color="#eaeaea"/><stop offset=".73" stop-color="#e0e0e0"/><stop offset=".83" stop-color="#cdcdcd"/><stop offset=".926" stop-color="#b4b4b4"/><stop offset="1" stop-color="#9b9b9b"/></linearGradient><path fill="url(#xJiHHiaqgpqJbfm1JCii_c)" d="M22.958,14.69l-1.679-1.635l4.353-4.839c0.207-0.207,0.544-0.207,0.751,0l1.37,1.37 c0.207,0.207,0.207,0.544,0,0.751L22.958,14.69z"/><linearGradient id="xJiHHiaqgpqJbfm1JCii_d" x1="14.293" x2="17.293" y1="12.379" y2="12.379" gradientTransform="rotate(45.001 25.026 24)" gradientUnits="userSpaceOnUse"><stop offset="0" stop-color="#616161"/><stop offset=".161" stop-color="#797979"/><stop offset=".379" stop-color="#949494"/><stop offset=".508" stop-color="#9e9e9e"/><stop offset=".654" stop-color="#909090"/><stop offset=".93" stop-color="#6b6b6b"/><stop offset="1" stop-color="#616161"/></linearGradient><path fill="url(#xJiHHiaqgpqJbfm1JCii_d)" d="M27.406,10.652l0.347-0.315c0.207-0.207,0.207-0.544,0-0.751l-1.37-1.37 c-0.207-0.207-0.544-0.207-0.751,0l-0.314,0.349L27.406,10.652z"/><linearGradient id="xJiHHiaqgpqJbfm1JCii_e" x1="26.55" x2="3.55" y1="20.379" y2="20.379" gradientTransform="rotate(45.001 25.026 24)" gradientUnits="userSpaceOnUse"><stop offset="0" stop-color="#999"/><stop offset=".465" stop-color="#d0d0d0"/><stop offset=".594" stop-color="#e0e0e0"/></linearGradient><path fill="url(#xJiHHiaqgpqJbfm1JCii_e)" d="M31.664,13.496L8.447,6.199C7.506,5.904,6.478,6.155,5.781,6.853L3.38,9.254h1.414 l14.849,7.778l4.243,4.243L31.664,13.496z"/><linearGradient id="xJiHHiaqgpqJbfm1JCii_f" x1="13.604" x2="27.659" y1="18.726" y2="18.726" gradientTransform="rotate(45.001 25.026 24)" gradientUnits="userSpaceOnUse"><stop offset="0" stop-color="#0b71d9"/><stop offset="1" stop-color="#264774"/></linearGradient><path fill="url(#xJiHHiaqgpqJbfm1JCii_f)" d="M8.447,6.199C7.506,5.904,6.478,6.155,5.781,6.853L5.718,6.916l23.241,9.286l2.705-2.705 L8.447,6.199z"/><polygon fill="#a4a4a4" points="21.102,15.352 4.818,7.816 4.442,8.192 20.78,15.738 24.019,18.976 24.372,18.623"/><linearGradient id="xJiHHiaqgpqJbfm1JCii_g" x1="37.293" x2="40.293" y1="18.394" y2="18.394" gradientTransform="rotate(45.001 25.026 24)" gradientUnits="userSpaceOnUse"><stop offset="0" stop-color="#999"/><stop offset=".084" stop-color="#b6b6b6"/><stop offset=".179" stop-color="#cecece"/><stop offset=".278" stop-color="#e0e0e0"/><stop offset=".384" stop-color="#ebebeb"/><stop offset=".508" stop-color="#eee"/><stop offset=".625" stop-color="#eaeaea"/><stop offset=".73" stop-color="#e0e0e0"/><stop offset=".83" stop-color="#cdcdcd"/><stop offset=".926" stop-color="#b4b4b4"/><stop offset="1" stop-color="#9b9b9b"/></linearGradient><path fill="url(#xJiHHiaqgpqJbfm1JCii_g)" d="M35.421,31.395l1.635,1.679l4.839-4.353c0.207-0.207,0.207-0.544,0-0.751l-1.37-1.37 c-0.207-0.207-0.544-0.207-0.751,0L35.421,31.395z"/><linearGradient id="xJiHHiaqgpqJbfm1JCii_h" x1="37.293" x2="40.293" y1="15.379" y2="15.379" gradientTransform="rotate(45.001 25.026 24)" gradientUnits="userSpaceOnUse"><stop offset="0" stop-color="#616161"/><stop offset=".161" stop-color="#797979"/><stop offset=".379" stop-color="#949494"/><stop offset=".508" stop-color="#9e9e9e"/><stop offset=".654" stop-color="#909090"/><stop offset=".93" stop-color="#6b6b6b"/><stop offset="1" stop-color="#616161"/></linearGradient><path fill="url(#xJiHHiaqgpqJbfm1JCii_h)" d="M39.459,26.947l0.315-0.347c0.207-0.207,0.544-0.207,0.751,0l1.37,1.37 c0.207,0.207,0.207,0.544,0,0.751l-0.349,0.314L39.459,26.947z"/><linearGradient id="xJiHHiaqgpqJbfm1JCii_i" x1="31.293" x2="34.293" y1="15.394" y2="15.394" gradientTransform="rotate(45.001 25.026 24)" gradientUnits="userSpaceOnUse"><stop offset="0" stop-color="#999"/><stop offset=".084" stop-color="#b6b6b6"/><stop offset=".179" stop-color="#cecece"/><stop offset=".278" stop-color="#e0e0e0"/><stop offset=".384" stop-color="#ebebeb"/><stop offset=".508" stop-color="#eee"/><stop offset=".625" stop-color="#eaeaea"/><stop offset=".73" stop-color="#e0e0e0"/><stop offset=".83" stop-color="#cdcdcd"/><stop offset=".926" stop-color="#b4b4b4"/><stop offset="1" stop-color="#9b9b9b"/></linearGradient><path fill="url(#xJiHHiaqgpqJbfm1JCii_i)" d="M33.3,25.031l1.635,1.679l4.839-4.353c0.207-0.207,0.207-0.544,0-0.751l-1.37-1.37 c-0.207-0.207-0.544-0.207-0.751,0L33.3,25.031z"/><linearGradient id="xJiHHiaqgpqJbfm1JCii_j" x1="31.293" x2="34.293" y1="12.379" y2="12.379" gradientTransform="rotate(45.001 25.026 24)" gradientUnits="userSpaceOnUse"><stop offset="0" stop-color="#616161"/><stop offset=".161" stop-color="#797979"/><stop offset=".379" stop-color="#949494"/><stop offset=".508" stop-color="#9e9e9e"/><stop offset=".654" stop-color="#909090"/><stop offset=".93" stop-color="#6b6b6b"/><stop offset="1" stop-color="#616161"/></linearGradient><path fill="url(#xJiHHiaqgpqJbfm1JCii_j)" d="M37.337,20.583l0.315-0.347c0.207-0.207,0.544-0.207,0.751,0l1.37,1.37 c0.207,0.207,0.207,0.544,0,0.751l-0.349,0.314L37.337,20.583z"/><linearGradient id="xJiHHiaqgpqJbfm1JCii_k" x1="26.293" x2="49.293" y1="20.379" y2="20.379" gradientTransform="rotate(45.001 25.026 24)" gradientUnits="userSpaceOnUse"><stop offset="0" stop-color="#999"/><stop offset=".402" stop-color="#d0d0d0"/><stop offset=".508" stop-color="#dfdfdf"/></linearGradient><path fill="url(#xJiHHiaqgpqJbfm1JCii_k)" d="M34.493,16.325l7.297,23.218c0.296,0.941,0.044,1.968-0.654,2.666l-2.401,2.401v-1.414 l-7.778-14.849l-4.243-4.243L34.493,16.325z"/><linearGradient id="xJiHHiaqgpqJbfm1JCii_l" x1="33.46" x2="27.459" y1="18.726" y2="18.726" gradientTransform="rotate(45.001 25.026 24)" gradientUnits="userSpaceOnUse"><stop offset="0" stop-color="#0b71d9"/><stop offset="1" stop-color="#264774"/></linearGradient><path fill="url(#xJiHHiaqgpqJbfm1JCii_l)" d="M41.79,39.542c0.296,0.941,0.044,1.968-0.654,2.666l-0.063,0.063L31.787,19.03l2.705-2.705 L41.79,39.542z"/><polygon fill="#a4a4a4" points="32.674,26.924 40.21,43.208 39.834,43.584 32.288,27.246 29.05,24.007 29.403,23.654"/><linearGradient id="xJiHHiaqgpqJbfm1JCii_m" x1="23.571" x2="29.203" y1="39.98" y2="41.357" gradientTransform="rotate(45.001 25.026 24)" gradientUnits="userSpaceOnUse"><stop offset="0" stop-color="#999"/><stop offset=".465" stop-color="#d0d0d0"/><stop offset=".594" stop-color="#e0e0e0"/></linearGradient><path fill="url(#xJiHHiaqgpqJbfm1JCii_m)" d="M16.108,33.295l1.196,8.371c0.137,0.962-0.186,1.933-0.873,2.62l-1.03,1.03l-4.243-8.485 L16.108,33.295z"/><linearGradient id="xJiHHiaqgpqJbfm1JCii_n" x1="25.331" x2="18.854" y1="39.394" y2="41.523" gradientTransform="rotate(45.001 25.026 24)" gradientUnits="userSpaceOnUse"><stop offset="0" stop-color="#999"/><stop offset=".465" stop-color="#d0d0d0"/><stop offset=".594" stop-color="#e0e0e0"/></linearGradient><path fill="url(#xJiHHiaqgpqJbfm1JCii_n)" d="M14.694,31.881l-8.371-1.196c-0.962-0.137-1.933,0.186-2.62,0.873l-1.03,1.03l8.485,4.243 L14.694,31.881z"/><linearGradient id="xJiHHiaqgpqJbfm1JCii_o" x1="24.296" x2="24.271" y1="42.813" y2="42.821" gradientTransform="rotate(45.001 25.026 24)" gradientUnits="userSpaceOnUse"><stop offset="0" stop-color="#0b71d9"/><stop offset="1" stop-color="#264774"/></linearGradient><polygon fill="url(#xJiHHiaqgpqJbfm1JCii_o)" points="11.158,36.831 11.231,36.729 11.139,36.821"/><linearGradient id="xJiHHiaqgpqJbfm1JCii_p" x1="18.475" x2="24.157" y1="41.301" y2="37.98" gradientTransform="rotate(45.001 25.026 24)" gradientUnits="userSpaceOnUse"><stop offset="0" stop-color="#0b71d9"/><stop offset="1" stop-color="#264774"/></linearGradient><path fill="url(#xJiHHiaqgpqJbfm1JCii_p)" d="M5.129,31.829l7.839,2.468l1.725-2.416l-8.371-1.196c-0.962-0.137-1.933,0.186-2.62,0.873 l-0.21,0.21C4.029,31.652,4.591,31.659,5.129,31.829z"/><linearGradient id="xJiHHiaqgpqJbfm1JCii_q" x1="41.752" x2="47.434" y1="41.301" y2="37.98" gradientTransform="scale(-1 1) rotate(-45 10.906 110.747)" gradientUnits="userSpaceOnUse"><stop offset="0" stop-color="#0b71d9"/><stop offset="1" stop-color="#264774"/></linearGradient><path fill="url(#xJiHHiaqgpqJbfm1JCii_q)" d="M16.161,42.86l-2.468-7.839l2.416-1.725l1.196,8.371c0.137,0.962-0.186,1.933-0.873,2.62 l-0.21,0.21C16.337,43.96,16.33,43.398,16.161,42.86z"/><path fill="gray" d="M38.964,13.725l0.478,0.478l0.707-0.707l-0.478-0.478c-0.126-0.126-0.331-0.126-0.458,0l-0.25,0.25 C38.838,13.394,38.838,13.599,38.964,13.725z"/><path fill="gray" d="M37.55,15.139l0.478,0.478l0.707-0.707l-0.478-0.478c-0.126-0.126-0.331-0.126-0.458,0l-0.25,0.25 C37.424,14.808,37.424,15.013,37.55,15.139z"/><path fill="gray" d="M36.136,16.554l0.478,0.478l0.707-0.707l-0.478-0.478c-0.126-0.126-0.331-0.126-0.458,0l-0.25,0.25 C36.01,16.222,36.01,16.427,36.136,16.554z"/><linearGradient id="xJiHHiaqgpqJbfm1JCii_r" x1="20.293" x2="28.293" y1="19.879" y2="19.879" gradientTransform="rotate(45.001 25.026 24)" gradientUnits="userSpaceOnUse"><stop offset="0" stop-color="#999"/><stop offset=".084" stop-color="#b6b6b6"/><stop offset=".179" stop-color="#cecece"/><stop offset=".278" stop-color="#e0e0e0"/><stop offset=".384" stop-color="#ebebeb"/><stop offset=".508" stop-color="#eee"/><stop offset=".625" stop-color="#eaeaea"/><stop offset=".73" stop-color="#e0e0e0"/><stop offset=".83" stop-color="#cdcdcd"/><stop offset=".926" stop-color="#b4b4b4"/><stop offset="1" stop-color="#9b9b9b"/></linearGradient><path fill="url(#xJiHHiaqgpqJbfm1JCii_r)" d="M43.685,4.304c-1.414-1.414-6.364,0.707-9.192,3.536L21.159,21.173 c-2.411,2.411-4.448,5.169-6.043,8.182l-3.958,7.475l7.475-3.958c3.013-1.595,5.771-3.632,8.182-6.043L40.15,13.496 C42.978,10.668,45.1,5.718,43.685,4.304z"/><linearGradient id="xJiHHiaqgpqJbfm1JCii_s" x1="23.293" x2="25.293" y1="40.541" y2="40.541" gradientTransform="rotate(45.001 25.026 24)" gradientUnits="userSpaceOnUse"><stop offset="0" stop-color="#999"/><stop offset=".084" stop-color="#b6b6b6"/><stop offset=".179" stop-color="#cecece"/><stop offset=".278" stop-color="#e0e0e0"/><stop offset=".384" stop-color="#ebebeb"/><stop offset=".508" stop-color="#eee"/><stop offset=".625" stop-color="#eaeaea"/><stop offset=".73" stop-color="#e0e0e0"/><stop offset=".83" stop-color="#cdcdcd"/><stop offset=".926" stop-color="#b4b4b4"/><stop offset="1" stop-color="#9b9b9b"/></linearGradient><path fill="url(#xJiHHiaqgpqJbfm1JCii_s)" d="M17.444,31.194c0.083-0.379-0.269-0.731-0.649-0.649c-0.634,0.138-1.221,0.456-1.687,0.922 l-2.013,2.013c-0.818,0.818-1.568,1.703-2.24,2.645L8.33,39.659l3.535-2.525c0.942-0.673,1.826-1.422,2.645-2.24l2.013-2.013 C16.988,32.415,17.306,31.828,17.444,31.194z"/><linearGradient id="xJiHHiaqgpqJbfm1JCii_t" x1="24.321" x2="24.294" y1="-1.185" y2="2.046" gradientTransform="rotate(45.001 25.026 24)" gradientUnits="userSpaceOnUse"><stop offset="0" stop-color="#315b8e"/><stop offset="1" stop-color="#5ba5ea"/></linearGradient><path fill="url(#xJiHHiaqgpqJbfm1JCii_t)" d="M41.569,7.569c-0.091-0.276-0.226-0.531-0.419-0.725c-0.194-0.193-0.45-0.328-0.725-0.419 l0.535-1.306c0.493,0.043,0.944,0.236,1.311,0.6l0,0c0.001,0.001,0.001,0.002,0.002,0.002c0.001,0.001,0.002,0.001,0.002,0.002l0,0 c0.364,0.367,0.557,0.817,0.6,1.311L41.569,7.569z M42.863,7.573l-1.18,0.483c0.057,0.438,0.012,0.88-0.119,1.198l0.391,0.391 C42.468,8.969,42.784,8.248,42.863,7.573z M38.349,6.039L38.74,6.43c0.318-0.13,0.759-0.176,1.198-0.119l0.483-1.18 C39.746,5.209,39.025,5.525,38.349,6.039z"/><linearGradient id="xJiHHiaqgpqJbfm1JCii_u" x1="20.293" x2="21.293" y1="6.379" y2="6.379" gradientTransform="rotate(45.001 25.026 24)" gradientUnits="userSpaceOnUse"><stop offset="0" stop-color="#315b8e"/><stop offset="1" stop-color="#5ba5ea"/></linearGradient><path fill="url(#xJiHHiaqgpqJbfm1JCii_u)" d="M34.971,8.318l-0.478-0.478l-0.707,0.707l0.478,0.478c0.126,0.126,0.331,0.126,0.458,0 l0.25-0.25C35.098,8.649,35.098,8.444,34.971,8.318z"/><linearGradient id="xJiHHiaqgpqJbfm1JCii_v" x1="20.293" x2="21.293" y1="8.379" y2="8.379" gradientTransform="rotate(45.001 25.026 24)" gradientUnits="userSpaceOnUse"><stop offset="0" stop-color="#315b8e"/><stop offset="1" stop-color="#5ba5ea"/></linearGradient><path fill="url(#xJiHHiaqgpqJbfm1JCii_v)" d="M33.557,9.732l-0.478-0.478l-0.707,0.707l0.478,0.478c0.126,0.126,0.331,0.126,0.458,0 l0.25-0.25C33.683,10.063,33.683,9.858,33.557,9.732z"/><linearGradient id="xJiHHiaqgpqJbfm1JCii_w" x1="20.293" x2="21.293" y1="10.379" y2="10.379" gradientTransform="rotate(45.001 25.026 24)" gradientUnits="userSpaceOnUse"><stop offset="0" stop-color="#315b8e"/><stop offset="1" stop-color="#5ba5ea"/></linearGradient><path fill="url(#xJiHHiaqgpqJbfm1JCii_w)" d="M32.143,11.146l-0.478-0.478l-0.707,0.707l0.478,0.478c0.126,0.126,0.331,0.126,0.458,0 l0.25-0.25C32.269,11.477,32.269,11.273,32.143,11.146z"/><linearGradient id="xJiHHiaqgpqJbfm1JCii_x" x1="20.293" x2="21.293" y1="12.379" y2="12.379" gradientTransform="rotate(45.001 25.026 24)" gradientUnits="userSpaceOnUse"><stop offset="0" stop-color="#315b8e"/><stop offset="1" stop-color="#5ba5ea"/></linearGradient><path fill="url(#xJiHHiaqgpqJbfm1JCii_x)" d="M30.729,12.56l-0.478-0.478l-0.707,0.707l0.478,0.478c0.126,0.126,0.331,0.126,0.458,0 l0.25-0.25C30.855,12.892,30.855,12.687,30.729,12.56z"/><linearGradient id="xJiHHiaqgpqJbfm1JCii_y" x1="20.293" x2="21.293" y1="14.379" y2="14.379" gradientTransform="rotate(45.001 25.026 24)" gradientUnits="userSpaceOnUse"><stop offset="0" stop-color="#315b8e"/><stop offset="1" stop-color="#5ba5ea"/></linearGradient><path fill="url(#xJiHHiaqgpqJbfm1JCii_y)" d="M29.314,13.975l-0.478-0.478l-0.707,0.707l0.478,0.478c0.126,0.126,0.331,0.126,0.458,0 l0.25-0.25C29.441,14.306,29.441,14.101,29.314,13.975z"/><linearGradient id="xJiHHiaqgpqJbfm1JCii_z" x1="20.293" x2="21.293" y1="16.379" y2="16.379" gradientTransform="rotate(45.001 25.026 24)" gradientUnits="userSpaceOnUse"><stop offset="0" stop-color="#315b8e"/><stop offset="1" stop-color="#5ba5ea"/></linearGradient><path fill="url(#xJiHHiaqgpqJbfm1JCii_z)" d="M27.9,15.389l-0.478-0.478l-0.707,0.707l0.478,0.478c0.126,0.126,0.331,0.126,0.458,0 l0.25-0.25C28.027,15.72,28.027,15.515,27.9,15.389z"/><linearGradient id="xJiHHiaqgpqJbfm1JCii_A" x1="20.293" x2="21.293" y1="18.379" y2="18.379" gradientTransform="rotate(45.001 25.026 24)" gradientUnits="userSpaceOnUse"><stop offset="0" stop-color="#315b8e"/><stop offset="1" stop-color="#5ba5ea"/></linearGradient><path fill="url(#xJiHHiaqgpqJbfm1JCii_A)" d="M26.486,16.803l-0.478-0.478l-0.707,0.707l0.478,0.478c0.126,0.126,0.331,0.126,0.458,0 l0.25-0.25C26.612,17.134,26.612,16.929,26.486,16.803z"/><linearGradient id="xJiHHiaqgpqJbfm1JCii_B" x1="20.293" x2="21.293" y1="20.379" y2="20.379" gradientTransform="rotate(45.001 25.026 24)" gradientUnits="userSpaceOnUse"><stop offset="0" stop-color="#315b8e"/><stop offset="1" stop-color="#5ba5ea"/></linearGradient><path fill="url(#xJiHHiaqgpqJbfm1JCii_B)" d="M25.072,18.217l-0.478-0.478l-0.707,0.707l0.478,0.478c0.126,0.126,0.331,0.126,0.458,0 l0.25-0.25C25.198,18.548,25.198,18.344,25.072,18.217z"/><linearGradient id="xJiHHiaqgpqJbfm1JCii_C" x1="20.293" x2="21.293" y1="22.379" y2="22.379" gradientTransform="rotate(45.001 25.026 24)" gradientUnits="userSpaceOnUse"><stop offset="0" stop-color="#315b8e"/><stop offset="1" stop-color="#5ba5ea"/></linearGradient><path fill="url(#xJiHHiaqgpqJbfm1JCii_C)" d="M23.658,19.631l-0.478-0.478l-0.707,0.707l0.478,0.478c0.126,0.126,0.331,0.126,0.458,0 l0.25-0.25C23.784,19.963,23.784,19.758,23.658,19.631z"/><linearGradient id="xJiHHiaqgpqJbfm1JCii_D" x1="20.293" x2="21.293" y1="24.379" y2="24.379" gradientTransform="rotate(45.001 25.026 24)" gradientUnits="userSpaceOnUse"><stop offset="0" stop-color="#315b8e"/><stop offset="1" stop-color="#5ba5ea"/></linearGradient><path fill="url(#xJiHHiaqgpqJbfm1JCii_D)" d="M22.243,21.046l-0.478-0.478l-0.707,0.707l0.478,0.478c0.126,0.126,0.331,0.126,0.458,0 l0.25-0.25C22.37,21.377,22.37,21.172,22.243,21.046z"/><linearGradient id="xJiHHiaqgpqJbfm1JCii_E" x1="20.342" x2="21.293" y1="26.379" y2="26.379" gradientTransform="rotate(45.001 25.026 24)" gradientUnits="userSpaceOnUse"><stop offset="0" stop-color="#315b8e"/><stop offset="1" stop-color="#5ba5ea"/></linearGradient><path fill="url(#xJiHHiaqgpqJbfm1JCii_E)" d="M20.829,22.46l-0.444-0.444c-0.228,0.244-0.446,0.497-0.667,0.747l0.404,0.404 c0.126,0.126,0.331,0.126,0.458,0l0.25-0.25C20.955,22.791,20.955,22.586,20.829,22.46z"/><g><linearGradient id="xJiHHiaqgpqJbfm1JCii_F" x1="44.707" x2="45.707" y1="6.379" y2="6.379" gradientTransform="scale(-1 1) rotate(-45 11.474 112.12)" gradientUnits="userSpaceOnUse"><stop offset="0" stop-color="#315b8e"/><stop offset="1" stop-color="#5ba5ea"/></linearGradient><path fill="url(#xJiHHiaqgpqJbfm1JCii_F)" d="M39.671,13.018l0.478,0.478l-0.707,0.707l-0.478-0.478c-0.126-0.126-0.126-0.331,0-0.458 l0.25-0.25C39.34,12.892,39.545,12.892,39.671,13.018z"/><linearGradient id="xJiHHiaqgpqJbfm1JCii_G" x1="44.707" x2="45.707" y1="8.379" y2="8.379" gradientTransform="scale(-1 1) rotate(-45 11.474 112.12)" gradientUnits="userSpaceOnUse"><stop offset="0" stop-color="#315b8e"/><stop offset="1" stop-color="#5ba5ea"/></linearGradient><path fill="url(#xJiHHiaqgpqJbfm1JCii_G)" d="M38.257,14.432l0.478,0.478l-0.707,0.707l-0.478-0.478c-0.126-0.126-0.126-0.331,0-0.458 l0.25-0.25C37.926,14.306,38.131,14.306,38.257,14.432z"/><linearGradient id="xJiHHiaqgpqJbfm1JCii_H" x1="44.707" x2="45.707" y1="10.379" y2="10.379" gradientTransform="scale(-1 1) rotate(-45 11.474 112.12)" gradientUnits="userSpaceOnUse"><stop offset="0" stop-color="#315b8e"/><stop offset="1" stop-color="#5ba5ea"/></linearGradient><path fill="url(#xJiHHiaqgpqJbfm1JCii_H)" d="M36.843,15.846l0.478,0.478l-0.707,0.707l-0.478-0.478c-0.126-0.126-0.126-0.331,0-0.458 l0.25-0.25C36.512,15.72,36.717,15.72,36.843,15.846z"/><linearGradient id="xJiHHiaqgpqJbfm1JCii_I" x1="44.707" x2="45.707" y1="12.379" y2="12.379" gradientTransform="scale(-1 1) rotate(-45 11.474 112.12)" gradientUnits="userSpaceOnUse"><stop offset="0" stop-color="#315b8e"/><stop offset="1" stop-color="#5ba5ea"/></linearGradient><path fill="url(#xJiHHiaqgpqJbfm1JCii_I)" d="M35.429,17.261l0.478,0.478L35.2,18.446l-0.478-0.478c-0.126-0.126-0.126-0.331,0-0.458 l0.25-0.25C35.098,17.134,35.302,17.134,35.429,17.261z"/><linearGradient id="xJiHHiaqgpqJbfm1JCii_J" x1="44.707" x2="45.707" y1="14.379" y2="14.379" gradientTransform="scale(-1 1) rotate(-45 11.474 112.12)" gradientUnits="userSpaceOnUse"><stop offset="0" stop-color="#315b8e"/><stop offset="1" stop-color="#5ba5ea"/></linearGradient><path fill="url(#xJiHHiaqgpqJbfm1JCii_J)" d="M34.015,18.675l0.478,0.478l-0.707,0.707l-0.478-0.478c-0.126-0.126-0.126-0.331,0-0.458 l0.25-0.25C33.683,18.548,33.888,18.548,34.015,18.675z"/><linearGradient id="xJiHHiaqgpqJbfm1JCii_K" x1="44.707" x2="45.707" y1="16.379" y2="16.379" gradientTransform="scale(-1 1) rotate(-45 11.474 112.12)" gradientUnits="userSpaceOnUse"><stop offset="0" stop-color="#315b8e"/><stop offset="1" stop-color="#5ba5ea"/></linearGradient><path fill="url(#xJiHHiaqgpqJbfm1JCii_K)" d="M32.6,20.089l0.478,0.478l-0.707,0.707l-0.478-0.478c-0.126-0.126-0.126-0.331,0-0.458 l0.25-0.25C32.269,19.963,32.474,19.963,32.6,20.089z"/><linearGradient id="xJiHHiaqgpqJbfm1JCii_L" x1="44.707" x2="45.707" y1="18.379" y2="18.379" gradientTransform="scale(-1 1) rotate(-45 11.474 112.12)" gradientUnits="userSpaceOnUse"><stop offset="0" stop-color="#315b8e"/><stop offset="1" stop-color="#5ba5ea"/></linearGradient><path fill="url(#xJiHHiaqgpqJbfm1JCii_L)" d="M31.186,21.503l0.478,0.478l-0.707,0.707l-0.478-0.478c-0.126-0.126-0.126-0.331,0-0.458 l0.25-0.25C30.855,21.377,31.06,21.377,31.186,21.503z"/><linearGradient id="xJiHHiaqgpqJbfm1JCii_M" x1="44.707" x2="45.707" y1="20.379" y2="20.379" gradientTransform="scale(-1 1) rotate(-45 11.474 112.12)" gradientUnits="userSpaceOnUse"><stop offset="0" stop-color="#315b8e"/><stop offset="1" stop-color="#5ba5ea"/></linearGradient><path fill="url(#xJiHHiaqgpqJbfm1JCii_M)" d="M29.772,22.917l0.478,0.478l-0.707,0.707l-0.478-0.478c-0.126-0.126-0.126-0.331,0-0.458 l0.25-0.25C29.441,22.791,29.646,22.791,29.772,22.917z"/><linearGradient id="xJiHHiaqgpqJbfm1JCii_N" x1="44.707" x2="45.707" y1="22.379" y2="22.379" gradientTransform="scale(-1 1) rotate(-45 11.474 112.12)" gradientUnits="userSpaceOnUse"><stop offset="0" stop-color="#315b8e"/><stop offset="1" stop-color="#5ba5ea"/></linearGradient><path fill="url(#xJiHHiaqgpqJbfm1JCii_N)" d="M28.358,24.332l0.478,0.478l-0.707,0.707l-0.478-0.478c-0.126-0.126-0.126-0.331,0-0.458 l0.25-0.25C28.027,24.205,28.231,24.205,28.358,24.332z"/><linearGradient id="xJiHHiaqgpqJbfm1JCii_O" x1="44.707" x2="45.707" y1="24.379" y2="24.379" gradientTransform="scale(-1 1) rotate(-45 11.474 112.12)" gradientUnits="userSpaceOnUse"><stop offset="0" stop-color="#315b8e"/><stop offset="1" stop-color="#5ba5ea"/></linearGradient><path fill="url(#xJiHHiaqgpqJbfm1JCii_O)" d="M26.944,25.746l0.478,0.478l-0.707,0.707l-0.478-0.478c-0.126-0.126-0.126-0.331,0-0.458 l0.25-0.25C26.612,25.62,26.817,25.62,26.944,25.746z"/><linearGradient id="xJiHHiaqgpqJbfm1JCii_P" x1="44.756" x2="45.707" y1="26.379" y2="26.379" gradientTransform="scale(-1 1) rotate(-45 11.474 112.12)" gradientUnits="userSpaceOnUse"><stop offset="0" stop-color="#315b8e"/><stop offset="1" stop-color="#5ba5ea"/></linearGradient><path fill="url(#xJiHHiaqgpqJbfm1JCii_P)" d="M25.529,27.16l0.444,0.444c-0.244,0.228-0.497,0.446-0.747,0.667l-0.404-0.404 c-0.126-0.126-0.126-0.331,0-0.458l0.25-0.25C25.198,27.034,25.403,27.034,25.529,27.16z"/></g><path fill="#d9d9d9" d="M18.937,29.303c-0.064,0-0.128-0.024-0.177-0.073c-0.098-0.098-0.098-0.256,0-0.354l5.598-5.598 c0.098-0.098,0.256-0.098,0.354,0s0.098,0.256,0,0.354l-5.598,5.598C19.064,29.278,19.001,29.303,18.937,29.303z"/><path fill="#d9d9d9" d="M30.044,18.195c-0.064,0-0.128-0.024-0.177-0.073c-0.098-0.098-0.098-0.256,0-0.354l2.888-2.888 c0.098-0.098,0.256-0.098,0.354,0s0.098,0.256,0,0.354l-2.888,2.888C30.172,18.171,30.108,18.195,30.044,18.195z"/></svg>