<svg xmlns="http://www.w3.org/2000/svg" viewBox="0 0 48 48"><linearGradient id="l5AwDQqStTKEk_W7Adz3Ba" x1="20" x2="25" y1="11" y2="11" gradientUnits="userSpaceOnUse"><stop offset="0" stop-color="#ff7448"/><stop offset="1" stop-color="#e51e25"/></linearGradient><path fill="url(#l5AwDQqStTKEk_W7Adz3Ba)" d="M24.109,9h-3.218C20.399,9,20,9.399,20,9.891V13h5V9.891C25,9.399,24.601,9,24.109,9z"/><path fill="#b2b2b2" d="M26,14h-7v-1.042C19,12.429,19.429,12,19.958,12h5.083C25.571,12,26,12.429,26,12.958V14z"/><rect width="40" height="9" x="3" y="33" fill="#1c1c1c"/><linearGradient id="l5AwDQqStTKEk_W7Adz3Bb" x1="23.914" x2="24.012" y1="30.856" y2="40.75" gradientUnits="userSpaceOnUse"><stop offset="0" stop-color="#343838"/><stop offset=".999" stop-color="#171714"/></linearGradient><path fill="url(#l5AwDQqStTKEk_W7Adz3Bb)" d="M46,37.058v-8.21c0-1.06-0.78-1.958-1.83-2.106l-4.361-0.616l-2.513-10.533	c-0.258-1.022-1.172-1.812-2.434-1.968C27.969,13.125,22.812,13,16.878,13c-1.112,0-2.089,0.737-2.394,1.806L11.264,26l-0.327,0.063	C4.937,27.063,2,30,2,35v2.058c-0.568,0.133-1,0.619-1,1.228v2.429c0,0.609,0.432,1.095,1,1.228V42h0.286H4h0.349	C4.127,41.374,4,40.702,4,40c0-3.314,2.686-6,6-6s6,2.686,6,6c0,0.702-0.127,1.374-0.349,2h15.698C31.127,41.374,31,40.702,31,40	c0-3.314,2.686-6,6-6s6,2.686,6,6c0,0.702-0.127,1.374-0.349,2H43h1.714c0.674,0,1.898-0.341,2.039-1.271L47,38.286	C47,37.677,46.568,37.191,46,37.058z"/><linearGradient id="l5AwDQqStTKEk_W7Adz3Bc" x1="25.5" x2="25.5" y1="54.025" y2="33.4" gradientUnits="userSpaceOnUse"><stop offset="0" stop-color="#6b6b6b"/><stop offset="1" stop-color="#ced0d1"/></linearGradient><path fill="url(#l5AwDQqStTKEk_W7Adz3Bc)" d="M27.927,40h-8.823C18.494,40,18,39.506,18,38.896V29h15v3.425c0,0.36-0.184,0.693-0.476,0.904	c-2.378,1.714-3.212,2.921-3.499,5.63C28.964,39.539,28.51,40,27.927,40z"/><linearGradient id="l5AwDQqStTKEk_W7Adz3Bd" x1="24.401" x2="24.401" y1="37.67" y2="19.749" gradientUnits="userSpaceOnUse"><stop offset="0" stop-color="#999"/><stop offset="1" stop-color="#e0e0e0"/></linearGradient><path fill="url(#l5AwDQqStTKEk_W7Adz3Bd)" d="M44.159,26.63l-4.284-0.734l-2.503-10.515c-0.258-1.029-1.247-1.719-2.509-1.877	c-6.894-0.503-12.05-0.629-17.984-0.629c-1.112,0-2.089,0.742-2.394,1.818l-3.515,11.369C6.754,26.77,4.055,28.6,2.802,31	c2.589-1.196,6.14-2.014,8.198-2.014h35v-0.153C46,27.766,45.209,26.779,44.159,26.63z"/><radialGradient id="l5AwDQqStTKEk_W7Adz3Be" cx="10" cy="40" r="5" gradientUnits="userSpaceOnUse"><stop offset="0" stop-color="#666"/><stop offset=".513" stop-color="#646464"/><stop offset=".698" stop-color="#5e5e5d"/><stop offset=".829" stop-color="#525252"/><stop offset=".935" stop-color="#424241"/><stop offset="1" stop-color="#333332"/></radialGradient><circle cx="10" cy="40" r="5" fill="url(#l5AwDQqStTKEk_W7Adz3Be)"/><radialGradient id="l5AwDQqStTKEk_W7Adz3Bf" cx="37" cy="40" r="5" gradientUnits="userSpaceOnUse"><stop offset="0" stop-color="#666"/><stop offset=".513" stop-color="#646464"/><stop offset=".698" stop-color="#5e5e5d"/><stop offset=".829" stop-color="#525252"/><stop offset=".935" stop-color="#424241"/><stop offset="1" stop-color="#333332"/></radialGradient><circle cx="37" cy="40" r="5" fill="url(#l5AwDQqStTKEk_W7Adz3Bf)"/><linearGradient id="l5AwDQqStTKEk_W7Adz3Bg" x1="13.725" x2="5.747" y1="43.495" y2="36.009" gradientUnits="userSpaceOnUse"><stop offset="0" stop-color="#999"/><stop offset="1" stop-color="#fff"/></linearGradient><circle cx="10" cy="40" r="3" fill="url(#l5AwDQqStTKEk_W7Adz3Bg)"/><ellipse cx="10" cy="37.996" fill="#616161" rx="1.172" ry=".504"/><ellipse cx="10" cy="42.027" fill="#616161" rx="1.172" ry=".504"/><ellipse cx="7.984" cy="40.012" fill="#616161" rx=".504" ry="1.172"/><ellipse cx="12.016" cy="40.012" fill="#616161" rx=".504" ry="1.172"/><linearGradient id="l5AwDQqStTKEk_W7Adz3Bh" x1="40.725" x2="32.747" y1="43.495" y2="36.009" gradientUnits="userSpaceOnUse"><stop offset="0" stop-color="#999"/><stop offset="1" stop-color="#fff"/></linearGradient><circle cx="37" cy="40" r="3" fill="url(#l5AwDQqStTKEk_W7Adz3Bh)"/><ellipse cx="37" cy="37.996" fill="#616161" rx="1.172" ry=".504"/><ellipse cx="37" cy="42.027" fill="#616161" rx="1.172" ry=".504"/><ellipse cx="34.984" cy="40.012" fill="#616161" rx=".504" ry="1.172"/><ellipse cx="39.016" cy="40.012" fill="#616161" rx=".504" ry="1.172"/><path fill="#36464e" d="M14.604,14.464l-3.5,11.12h3.188c0.75,0,1.207-0.715,1.25-1.229l0.917-8.583	c0.049-0.578-0.623-1.307-1.208-1.307H14.604z"/><linearGradient id="l5AwDQqStTKEk_W7Adz3Bi" x1="13.573" x2="13.646" y1="16.989" y2="24.373" gradientUnits="userSpaceOnUse"><stop offset="0" stop-color="#5ba5ea"/><stop offset="1" stop-color="#315b8e"/></linearGradient><path fill="url(#l5AwDQqStTKEk_W7Adz3Bi)" d="M14.433,15l-3.141,10h2.888c0.464,0,0.85-0.355,0.888-0.818l0.851-8.217	C15.963,15.446,15.553,15,15.031,15H14.433z"/><linearGradient id="l5AwDQqStTKEk_W7Adz3Bj" x1="24.114" x2="24.114" y1="28.059" y2="26.205" gradientUnits="userSpaceOnUse"><stop offset="0" stop-color="#ced0d1"/><stop offset=".274" stop-color="#d6d7d8"/><stop offset=".693" stop-color="#ebecec"/><stop offset="1" stop-color="#fff"/></linearGradient><path fill="url(#l5AwDQqStTKEk_W7Adz3Bj)" d="M43.645,27.163l-4.272-0.603c-6.466-0.622-16.191-0.673-27.091-0.591	c-3.344,0-5.234,0.813-6.95,1.795C4.207,28.41,3.266,29.938,2.811,31c2.596-1.172,5.267-2,8.189-2h34.417	C45.314,28.064,44.597,27.297,43.645,27.163z"/><linearGradient id="l5AwDQqStTKEk_W7Adz3Bk" x1="22" x2="28" y1="32.5" y2="32.5" gradientUnits="userSpaceOnUse"><stop offset="0" stop-color="#343838"/><stop offset=".999" stop-color="#171714"/></linearGradient><path fill="url(#l5AwDQqStTKEk_W7Adz3Bk)" d="M25,29l-3,1v3.077C22,35,25,36,25,36s3-1,3-2.923V30L25,29z M27.25,32.932	c0,1.443-2.25,2.193-2.25,2.193s-2.25-0.75-2.25-2.193v-2.307l2.25-0.75l2.25,0.75V32.932z"/><path fill="#ffa48f" d="M20.599,11.583h0.114c0.158,0,0.287-0.128,0.287-0.287V9.87c0-0.158-0.128-0.287-0.287-0.287h-0.114	c-0.158,0-0.287,0.128-0.287,0.287v1.426C20.313,11.455,20.441,11.583,20.599,11.583z"/><linearGradient id="l5AwDQqStTKEk_W7Adz3Bl" x1="23.5" x2="23.5" y1="37.931" y2="35.25" gradientUnits="userSpaceOnUse"><stop offset="0" stop-color="#fff" stop-opacity="0"/><stop offset="1" stop-color="#fff"/></linearGradient><rect width="15" height="1" x="16" y="37" fill="url(#l5AwDQqStTKEk_W7Adz3Bl)"/><linearGradient id="l5AwDQqStTKEk_W7Adz3Bm" x1="10" x2="10" y1="33.583" y2="40.209" gradientUnits="userSpaceOnUse"><stop offset="0" stop-color="#666"/><stop offset="1" stop-color="#333332"/></linearGradient><path fill="url(#l5AwDQqStTKEk_W7Adz3Bm)" d="M4.349,42C4.127,41.374,4,40.702,4,40c0-3.314,2.686-6,6-6s6,2.686,6,6	c0,0.702-0.127,1.374-0.349,2h1.055C16.895,41.366,17,40.695,17,40c0-3.866-3.134-7-7-7s-7,3.134-7,7c0,0.695,0.105,1.366,0.294,2	H4.349z"/><path fill="gray" d="M45.305,35.375H46v-5.75h-0.695c-0.358,0-0.648,0.29-0.648,0.648v4.453	C44.656,35.085,44.947,35.375,45.305,35.375z"/><linearGradient id="l5AwDQqStTKEk_W7Adz3Bn" x1="37" x2="37" y1="33.583" y2="40.209" gradientUnits="userSpaceOnUse"><stop offset="0" stop-color="#666"/><stop offset="1" stop-color="#333332"/></linearGradient><path fill="url(#l5AwDQqStTKEk_W7Adz3Bn)" d="M31.349,42C31.127,41.374,31,40.702,31,40c0-3.314,2.686-6,6-6s6,2.686,6,6	c0,0.702-0.127,1.374-0.349,2h1.055C43.895,41.366,44,40.695,44,40c0-3.866-3.134-7-7-7s-7,3.134-7,7c0,0.695,0.105,1.366,0.294,2	H31.349z"/><path fill="#ff8989" d="M46,32v-2h-0.594C45.182,30,45,30.182,45,30.406V32H46z"/><path fill="gray" d="M4.022,28.953c0.301-0.045,0.778-0.102,1.536-0.166c0.432-0.037,1.46,0.355,0.615,1.932	c-0.602,1.124-1.223,1.733-2.578,2.141c-0.582,0.175-0.965,0.421-1.5,0.67C2.233,32.418,2.788,30.647,4.022,28.953z"/><path fill="#ec9a1c" d="M45,33v1.594C45,34.818,45.182,35,45.406,35H46v-2H45z"/><linearGradient id="l5AwDQqStTKEk_W7Adz3Bo" x1="4.383" x2=".331" y1="31.101" y2="31.101" gradientUnits="userSpaceOnUse"><stop offset="0" stop-color="#fff"/><stop offset="1" stop-color="#90a4ae"/></linearGradient><path fill="url(#l5AwDQqStTKEk_W7Adz3Bo)" d="M3.766,29.313c0,0,0.016-0.094,1.618-0.235c0.341-0.03,1.113,0.273,0.444,1.563	c-0.476,0.919-1.161,1.53-2.068,1.821c-0.62,0.199-0.848,0.292-1.604,0.664C2.437,31.609,2.984,30.375,3.766,29.313z"/><path fill="#ec9a1c" d="M5.384,29.078c-0.179,0.016-0.332,0.031-0.474,0.045c-0.315,0.579-0.946,1.88-1.245,3.37	c0.034-0.011,0.059-0.02,0.096-0.032c0.906-0.29,1.592-0.901,2.068-1.821C6.496,29.351,5.725,29.048,5.384,29.078z"/><path fill="#36464e" d="M28.245,14.469H19.75c-0.562,0-1.287,0.556-1.333,1.104l-0.896,8.431	c-0.104,0.929,0.68,1.548,1.313,1.548h9.399c0.746,0,1.351-0.599,1.351-1.339v-8.419C29.583,15.062,28.984,14.469,28.245,14.469z"/><linearGradient id="l5AwDQqStTKEk_W7Adz3Bp" x1="23.512" x2="23.586" y1="16.961" y2="24.407" gradientUnits="userSpaceOnUse"><stop offset="0" stop-color="#5ba5ea"/><stop offset="1" stop-color="#315b8e"/></linearGradient><path fill="url(#l5AwDQqStTKEk_W7Adz3Bp)" d="M28.023,15h-8.125c-0.508,0-0.931,0.389-0.973,0.896l-0.837,8.047	C18.041,24.512,18.49,25,19.061,25h8.962C28.563,25,29,24.563,29,24.023v-8.047C29,15.437,28.563,15,28.023,15z"/><path fill="#36464e" d="M32.636,14.562l1.639,0.076c1.327,0.047,2.408,1.077,2.51,2.394l0.799,6.894	c0.053,0.686-0.621,1.595-1.313,1.595h-3.526c-0.739,0-1.339-0.596-1.339-1.331v-8.447C31.406,15.074,31.964,14.539,32.636,14.562z"/><linearGradient id="l5AwDQqStTKEk_W7Adz3Bq" x1="21.508" x2="21.581" y1="17.097" y2="24.39" gradientTransform="matrix(-1 0 0 1 56 0)" gradientUnits="userSpaceOnUse"><stop offset="0" stop-color="#5ba5ea"/><stop offset="1" stop-color="#315b8e"/></linearGradient><path fill="url(#l5AwDQqStTKEk_W7Adz3Bq)" d="M32.968,15.125l1.291,0.06c1.045,0.037,1.896,0.853,1.976,1.895l0.687,6.912	C36.964,24.536,36.535,25,35.99,25h-3.055C32.419,25,32,24.581,32,24.065V16.06C32,15.53,32.439,15.106,32.968,15.125z"/><linearGradient id="l5AwDQqStTKEk_W7Adz3Br" x1="15.786" x2="9.709" y1="19.762" y2="18.332" gradientUnits="userSpaceOnUse"><stop offset="0" stop-color="#fff" stop-opacity="0"/><stop offset="1" stop-color="#fff"/></linearGradient><path fill="url(#l5AwDQqStTKEk_W7Adz3Br)" d="M18.89,12.881c-0.664-0.004-1.332-0.006-2.012-0.006c-1.112,0-2.089,0.742-2.394,1.818	l-3.609,11.526l5.262-0.385L18.89,12.881z"/><linearGradient id="l5AwDQqStTKEk_W7Adz3Bs" x1="35.48" x2="47.683" y1="19.798" y2="18.273" gradientUnits="userSpaceOnUse"><stop offset=".007" stop-opacity="0"/><stop offset=".893" stop-opacity=".8"/></linearGradient><path fill="url(#l5AwDQqStTKEk_W7Adz3Bs)" d="M35.271,25.542c1.634-0.046,2.604,0.083,4.589,0.292l-2.488-10.452	c-0.258-1.029-1.247-1.719-2.509-1.877c-0.375-0.027-0.727-0.05-1.093-0.075L35.271,25.542z"/><rect width=".5" height="3.396" x="17.5" y="25.604" fill="#c7c7c7" transform="rotate(-180 17.75 27.302)"/><rect width=".5" height="3.396" x="33" y="25.604" fill="#c7c7c7" transform="rotate(-180 33.25 27.302)"/><linearGradient id="l5AwDQqStTKEk_W7Adz3Bt" x1="16.378" x2="18.408" y1="24.326" y2="25.102" gradientUnits="userSpaceOnUse"><stop offset="0" stop-color="#666"/><stop offset="1" stop-color="#1a1a1a"/></linearGradient><path fill="url(#l5AwDQqStTKEk_W7Adz3Bt)" d="M18,27h0.573C18.809,27,19,26.809,19,26.573v-3.146C19,23.191,18.809,23,18.573,23H18	c-1.105,0-2,0.895-2,2v0C16,26.105,16.895,27,18,27z"/></svg>