<svg xmlns="http://www.w3.org/2000/svg" viewBox="0 0 48 48"><path fill="#1c1c1c" d="M38.19,41H3.922C3.413,41,3,40.587,3,40.078V33h43v4.82c0,0.694-0.47,1.3-1.143,1.472L38.19,41z"/><radialGradient id="8Qk6oVnKD8dMDF7F9WfT5a" cx="12" cy="40" r="5" gradientUnits="userSpaceOnUse"><stop offset="0" stop-color="#666"/><stop offset=".513" stop-color="#646464"/><stop offset=".698" stop-color="#5e5e5d"/><stop offset=".829" stop-color="#525252"/><stop offset=".935" stop-color="#424241"/><stop offset="1" stop-color="#333332"/></radialGradient><circle cx="12" cy="40" r="5" fill="url(#8Qk6oVnKD8dMDF7F9WfT5a)"/><radialGradient id="8Qk6oVnKD8dMDF7F9WfT5b" cx="37" cy="40" r="5" gradientUnits="userSpaceOnUse"><stop offset="0" stop-color="#666"/><stop offset=".513" stop-color="#646464"/><stop offset=".698" stop-color="#5e5e5d"/><stop offset=".829" stop-color="#525252"/><stop offset=".935" stop-color="#424241"/><stop offset="1" stop-color="#333332"/></radialGradient><circle cx="37" cy="40" r="5" fill="url(#8Qk6oVnKD8dMDF7F9WfT5b)"/><linearGradient id="8Qk6oVnKD8dMDF7F9WfT5c" x1="15.725" x2="7.747" y1="43.495" y2="36.009" gradientUnits="userSpaceOnUse"><stop offset="0" stop-color="#999"/><stop offset="1" stop-color="#fff"/></linearGradient><circle cx="12" cy="40" r="3" fill="url(#8Qk6oVnKD8dMDF7F9WfT5c)"/><ellipse cx="12" cy="37.996" fill="#616161" rx="1.172" ry=".504"/><ellipse cx="12" cy="42.027" fill="#616161" rx="1.172" ry=".504"/><ellipse cx="9.984" cy="40.012" fill="#616161" rx=".504" ry="1.172"/><ellipse cx="14.016" cy="40.012" fill="#616161" rx=".504" ry="1.172"/><linearGradient id="8Qk6oVnKD8dMDF7F9WfT5d" x1="40.725" x2="32.747" y1="43.495" y2="36.009" gradientUnits="userSpaceOnUse"><stop offset="0" stop-color="#999"/><stop offset="1" stop-color="#fff"/></linearGradient><circle cx="37" cy="40" r="3" fill="url(#8Qk6oVnKD8dMDF7F9WfT5d)"/><ellipse cx="37" cy="37.996" fill="#616161" rx="1.172" ry=".504"/><ellipse cx="37" cy="42.027" fill="#616161" rx="1.172" ry=".504"/><ellipse cx="34.984" cy="40.012" fill="#616161" rx=".504" ry="1.172"/><ellipse cx="39.016" cy="40.012" fill="#616161" rx=".504" ry="1.172"/><linearGradient id="8Qk6oVnKD8dMDF7F9WfT5e" x1="2.663" x2="5.361" y1="37.255" y2="39.233" gradientUnits="userSpaceOnUse"><stop offset="0" stop-color="#37474f"/><stop offset="1" stop-color="#263238"/></linearGradient><path fill="url(#8Qk6oVnKD8dMDF7F9WfT5e)" d="M6,41H3.316c-0.785,0-1.481-0.505-1.725-1.251l-0.565-1.731C1.009,37.965,1,37.909,1,37.853	v-1.322C1,36.238,1.238,36,1.531,36H6V41z"/><path fill="#4f6066" d="M1,36.531h5V36H1.485C1.217,36,1,36.217,1,36.485V36.531z"/><linearGradient id="8Qk6oVnKD8dMDF7F9WfT5f" x1="5.386" x2="16.416" y1="17.597" y2="32.819" gradientUnits="userSpaceOnUse"><stop offset="0" stop-color="#fdd835"/><stop offset="1" stop-color="#f9a825"/></linearGradient><path fill="url(#8Qk6oVnKD8dMDF7F9WfT5f)" d="M18,12.479C18,11.662,17.338,11,16.521,11H9.734c-1.396,0-1.771,0.521-2,1L1.516,24.173	C1.516,24.173,1,25,1,26.413v7.92C1,34.702,1.298,35,1.667,35h4.551c0.184,0,0.365-0.051,0.522-0.148l0.976-1.306	C7.974,33.203,8.378,33,8.807,33H18V12.479z"/><linearGradient id="8Qk6oVnKD8dMDF7F9WfT5g" x1="26.395" x2="35.396" y1="-3.581" y2="30.45" gradientUnits="userSpaceOnUse"><stop offset="0" stop-color="#fff"/><stop offset="1" stop-color="#999"/></linearGradient><rect width="29" height="27" x="18" y="6" fill="url(#8Qk6oVnKD8dMDF7F9WfT5g)"/><path fill="none" stroke="#db9a31" stroke-linecap="round" stroke-linejoin="round" stroke-miterlimit="10" stroke-width=".5" d="M16.167,14.5v15.354c0,0.909-0.715,1.646-1.596,1.646H5.5v-7"/><linearGradient id="8Qk6oVnKD8dMDF7F9WfT5h" x1="26.841" x2="35.185" y1="-1.897" y2="29.652" gradientUnits="userSpaceOnUse"><stop offset="0" stop-color="#b4b5de"/><stop offset=".538" stop-color="#7a7ec4"/><stop offset="1" stop-color="#595fa5"/></linearGradient><rect width="27" height="25" x="19" y="7" fill="url(#8Qk6oVnKD8dMDF7F9WfT5h)"/><linearGradient id="8Qk6oVnKD8dMDF7F9WfT5i" x1="5.119" x2="16.509" y1="19.045" y2="19.045" gradientUnits="userSpaceOnUse"><stop offset="0" stop-color="#37474f"/><stop offset="1" stop-color="#263238"/></linearGradient><path fill="url(#8Qk6oVnKD8dMDF7F9WfT5i)" d="M9.75,24.531h0.953l5.806-4.537v-4.677c0-1.088-0.6-1.759-1.34-1.759h-4.023	c-0.481,0-0.913,0.293-1.091,0.739l-4.887,9.4c-0.168,0.395,0.122,0.834,0.551,0.834H8.1H9.75z"/><linearGradient id="8Qk6oVnKD8dMDF7F9WfT5j" x1="11.547" x2="11.547" y1="12.654" y2="22.968" gradientUnits="userSpaceOnUse"><stop offset="0" stop-color="#5ba5ea"/><stop offset="1" stop-color="#315b8e"/></linearGradient><path fill="url(#8Qk6oVnKD8dMDF7F9WfT5j)" d="M8.396,24h2.094l5.427-4.285v-4.622c0-0.604-0.49-1.094-1.094-1.094h-3.385	c-0.447,0-0.849,0.272-1.015,0.688L7.329,20.62c-0.1,0.251-0.152,0.518-0.152,0.789v1.372C7.177,23.454,7.723,24,8.396,24z"/><linearGradient id="8Qk6oVnKD8dMDF7F9WfT5k" x1="12" x2="12" y1="39.896" y2="25.875" gradientUnits="userSpaceOnUse"><stop offset="0" stop-color="#fff" stop-opacity="0"/><stop offset="1" stop-color="#fff"/></linearGradient><path fill="url(#8Qk6oVnKD8dMDF7F9WfT5k)" d="M12,35c-2.761,0-5,2.239-5,5c0,0.071,0.018,0.138,0.021,0.208h1C8.017,40.138,8,40.071,8,40	c0-2.209,1.791-4,4-4s4,1.791,4,4c0,0.071-0.017,0.138-0.021,0.208h1C16.982,40.138,17,40.071,17,40C17,37.239,14.761,35,12,35z"/><linearGradient id="8Qk6oVnKD8dMDF7F9WfT5l" x1="37" x2="37" y1="39.688" y2="25.666" gradientUnits="userSpaceOnUse"><stop offset="0" stop-color="#fff" stop-opacity="0"/><stop offset="1" stop-color="#fff"/></linearGradient><path fill="url(#8Qk6oVnKD8dMDF7F9WfT5l)" d="M37,34.792c-2.761,0-5,2.239-5,5c0,0.071,0.018,0.138,0.021,0.208h1	C33.017,39.93,33,39.863,33,39.792c0-2.209,1.791-4,4-4s4,1.791,4,4c0,0.071-0.017,0.138-0.021,0.208h1	C41.982,39.929,42,39.863,42,39.792C42,37.03,39.761,34.792,37,34.792z"/><linearGradient id="8Qk6oVnKD8dMDF7F9WfT5m" x1="24.5" x2="24.5" y1="37.121" y2="41.82" gradientUnits="userSpaceOnUse"><stop offset="0" stop-color="#666"/><stop offset="1" stop-color="#333332"/></linearGradient><rect width="13" height="6" x="18" y="36" fill="url(#8Qk6oVnKD8dMDF7F9WfT5m)"/><linearGradient id="8Qk6oVnKD8dMDF7F9WfT5n" x1="19.5" x2="19.5" y1="38.121" y2="47.252" gradientTransform="rotate(180 20.5 39)" gradientUnits="userSpaceOnUse"><stop offset="0" stop-color="#4d4d4d"/><stop offset="1" stop-color="#fff"/></linearGradient><polygon fill="url(#8Qk6oVnKD8dMDF7F9WfT5n)" points="21,36 22,36 22,42 21,42"/><linearGradient id="8Qk6oVnKD8dMDF7F9WfT5o" x1="13.5" x2="13.5" y1="38.121" y2="47.252" gradientTransform="rotate(180 20.5 39)" gradientUnits="userSpaceOnUse"><stop offset="0" stop-color="#4d4d4d"/><stop offset="1" stop-color="#fff"/></linearGradient><polygon fill="url(#8Qk6oVnKD8dMDF7F9WfT5o)" points="27,36 28,36 28,42 27,42"/><linearGradient id="8Qk6oVnKD8dMDF7F9WfT5p" x1="44.352" x2="47.059" y1="32.596" y2="36.546" gradientUnits="userSpaceOnUse"><stop offset="0" stop-color="#546e7a"/><stop offset="1" stop-color="#263238"/></linearGradient><path fill="url(#8Qk6oVnKD8dMDF7F9WfT5p)" d="M47.292,37h-2.583C44.317,37,44,36.683,44,36.292v-2.583C44,33.317,44.317,33,44.708,33	h2.583C47.683,33,48,33.317,48,33.708v2.583C48,36.683,47.683,37,47.292,37z"/><linearGradient id="8Qk6oVnKD8dMDF7F9WfT5q" x1="3.364" x2="7.979" y1="17.361" y2="22.998" gradientUnits="userSpaceOnUse"><stop offset="0" stop-color="#37474f"/><stop offset="1" stop-color="#263238"/></linearGradient><path fill="url(#8Qk6oVnKD8dMDF7F9WfT5q)" d="M7.605,13.438h-0.6l-5.49,10.735c0,0-0.071,0.124-0.159,0.336	c1.526-0.138,2.316-0.665,2.716-1.446l4.294-8.379C8.659,14.114,8.245,13.438,7.605,13.438z"/><linearGradient id="8Qk6oVnKD8dMDF7F9WfT5r" x1="3.432" x2="7.407" y1="17.502" y2="22.356" gradientUnits="userSpaceOnUse"><stop offset="0" stop-color="#5ba5ea"/><stop offset="1" stop-color="#315b8e"/></linearGradient><path fill="url(#8Qk6oVnKD8dMDF7F9WfT5r)" d="M7.512,14H6.718l-5.105,9.982c0.879-0.047,1.674-0.543,2.078-1.332l4.154-8.105	C7.973,14.296,7.792,14,7.512,14z"/><path fill="#6f7172" d="M1.95,33.344H1v-3.688h2.326c0.47,0,0.775,0.615,0.564,1.137l-0.565,1.498	C3.064,32.937,2.532,33.344,1.95,33.344z"/><linearGradient id="8Qk6oVnKD8dMDF7F9WfT5s" x1="2.216" x2=".256" y1="31.492" y2="31.511" gradientUnits="userSpaceOnUse"><stop offset="0" stop-color="#fff"/><stop offset="1" stop-color="#90a4ae"/></linearGradient><path fill="url(#8Qk6oVnKD8dMDF7F9WfT5s)" d="M1.805,33H1v-3h2.097c0.313,0,0.517,0.41,0.377,0.758l-0.507,1.349	C2.747,32.654,2.297,33,1.805,33z"/><path fill="#feb218" d="M3.097,30H2.372l-0.635,3h0.068c0.492,0,0.942-0.346,1.162-0.893l0.507-1.349	C3.614,30.41,3.41,30,3.097,30z"/><linearGradient id="8Qk6oVnKD8dMDF7F9WfT5t" x1="25.74" x2="32.76" y1="4.6" y2="20.073" gradientUnits="userSpaceOnUse"><stop offset="0" stop-color="#9497cf"/><stop offset="1" stop-color="#5956af"/></linearGradient><path fill="url(#8Qk6oVnKD8dMDF7F9WfT5t)" d="M46,11v1H19v-1H46z M19,16h27v-1H19V16z M19,20h27v-1H19V20z M19,24h27v-1H19V24z M19,28h27	v-1H19V28z"/><linearGradient id="8Qk6oVnKD8dMDF7F9WfT5u" x1="9" x2="11" y1="21" y2="21" gradientUnits="userSpaceOnUse"><stop offset="0" stop-color="#37474f"/><stop offset="1" stop-color="#263238"/></linearGradient><path fill="url(#8Qk6oVnKD8dMDF7F9WfT5u)" d="M10.375,23h-0.75C9.28,23,9,22.72,9,22.375v-2.75C9,19.28,9.28,19,9.625,19h0.75	C10.72,19,11,19.28,11,19.625v2.75C11,22.72,10.72,23,10.375,23z"/><path fill="#35444c" d="M7.034,23.694c-0.064-0.001-0.128-0.027-0.176-0.076c-0.096-0.099-0.093-0.257,0.006-0.353	l3.049-2.95c0.099-0.096,0.257-0.093,0.353,0.006c0.096,0.099,0.093,0.257-0.006,0.353l-3.049,2.95	C7.162,23.672,7.098,23.695,7.034,23.694z"/><linearGradient id="8Qk6oVnKD8dMDF7F9WfT5v" x1="4.891" x2="1.214" y1="21.668" y2="19.459" gradientUnits="userSpaceOnUse"><stop offset="0" stop-color="#fff" stop-opacity="0"/><stop offset="1" stop-color="#fff"/></linearGradient><path fill="url(#8Qk6oVnKD8dMDF7F9WfT5v)" d="M12.733,11H9.734c-1.396,0-1.771,0.521-2,1L1.516,24.173C1.516,24.173,1,25,1,26.413v7.92	C1,34.702,1.298,35,1.667,35h2.579L12.733,11z"/><linearGradient id="8Qk6oVnKD8dMDF7F9WfT5w" x1="15.648" x2="21.387" y1="22" y2="22" gradientUnits="userSpaceOnUse"><stop offset=".007" stop-color="#7c3f06" stop-opacity="0"/><stop offset="1" stop-color="#7c3f06" stop-opacity=".8"/></linearGradient><path fill="url(#8Qk6oVnKD8dMDF7F9WfT5w)" d="M16.521,11h-3.896v22H18V12.479C18,11.662,17.338,11,16.521,11z"/><path fill="#da9934" d="M14.5,27h-2c-0.276,0-0.5-0.224-0.5-0.5l0,0c0-0.276,0.224-0.5,0.5-0.5h2c0.276,0,0.5,0.224,0.5,0.5	l0,0C15,26.776,14.776,27,14.5,27z"/></svg>