<svg xmlns="http://www.w3.org/2000/svg" viewBox="0 0 48 48"><radialGradient id="GHCGqCj9iL1oN85dFt~uPa" cx="40.167" cy="46.1" r="18.897" gradientUnits="userSpaceOnUse"><stop offset=".508" stop-color="#66981f"/><stop offset=".613" stop-color="#63941e"/><stop offset=".727" stop-color="#5a861a"/><stop offset=".847" stop-color="#4a7014"/><stop offset=".97" stop-color="#35520b"/><stop offset="1" stop-color="#2f4909"/></radialGradient><path fill="url(#GHCGqCj9iL1oN85dFt~uPa)" d="M32,29c-5.308,2.952-7.991,5.414-9,14h3.847C26.847,43,30.993,37.124,32,29z"/><linearGradient id="GHCGqCj9iL1oN85dFt~uPb" x1="28.663" x2="28.663" y1="42.658" y2="28.456" gradientUnits="userSpaceOnUse"><stop offset="0" stop-color="#5b8a1b"/><stop offset=".305" stop-color="#699e1f"/><stop offset=".73" stop-color="#79b524"/><stop offset="1" stop-color="#7fbd26"/></linearGradient><path fill="url(#GHCGqCj9iL1oN85dFt~uPb)" d="M32,29c-2.293,8.229-5.381,12.719-6.674,14h3.201C28.527,43,32,37.832,32,29z"/><linearGradient id="GHCGqCj9iL1oN85dFt~uPc" x1="24" x2="24" y1="27.651" y2="39.642" gradientUnits="userSpaceOnUse"><stop offset="0"/><stop offset=".159" stop-color="#2f4909"/><stop offset="1" stop-color="#66981f"/></linearGradient><path fill="url(#GHCGqCj9iL1oN85dFt~uPc)" d="M23,43h2c0-19,1-13,1-15c0-1.901-4-2-4,0C22,30.259,23,24,23,43z"/><radialGradient id="GHCGqCj9iL1oN85dFt~uPd" cx="44.142" cy="118.732" r="5.663" gradientTransform="matrix(-.167 -.9399 .7853 -.1258 -63.73 66.863)" gradientUnits="userSpaceOnUse"><stop offset="0" stop-color="#bd0051"/><stop offset=".174" stop-color="#c90f5e"/><stop offset=".415" stop-color="#e02a76"/><stop offset=".535" stop-color="#e12e79"/><stop offset=".646" stop-color="#e43983"/><stop offset=".755" stop-color="#ea4c93"/><stop offset=".862" stop-color="#f266ab"/><stop offset=".966" stop-color="#fb88c8"/><stop offset="1" stop-color="#ff95d3"/></radialGradient><path fill="url(#GHCGqCj9iL1oN85dFt~uPd)" d="M26.482,13.44c-0.157-2.171-1.4-7.804-4.482-7.804c-3.296,0-2.92,7.391-3.1,8.342 C18.72,14.929,26.482,15.954,26.482,13.44z"/><radialGradient id="GHCGqCj9iL1oN85dFt~uPe" cx="38.8" cy="121.384" r="10.414" gradientTransform="matrix(.1549 -.9417 .5411 .0803 -46.038 41.833)" gradientUnits="userSpaceOnUse"><stop offset="0" stop-color="#bd0051"/><stop offset=".174" stop-color="#c90f5e"/><stop offset=".415" stop-color="#e02a76"/><stop offset=".535" stop-color="#e12e79"/><stop offset=".646" stop-color="#e43983"/><stop offset=".755" stop-color="#ea4c93"/><stop offset=".862" stop-color="#f266ab"/><stop offset=".966" stop-color="#fb88c8"/><stop offset="1" stop-color="#ff95d3"/></radialGradient><path fill="url(#GHCGqCj9iL1oN85dFt~uPe)" d="M30.024,10.734C29.55,8.32,27.835,4.952,26,5.001c-1.835,0.049-2.209,3.48-3.568,6.589 s0.411,10.317,3.801,10.73C29.622,22.733,31.331,17.388,30.024,10.734z"/><radialGradient id="GHCGqCj9iL1oN85dFt~uPf" cx="36.38" cy="116.781" r="14.222" gradientTransform="matrix(.0732 -.9506 .5818 .0404 -49.11 47.904)" gradientUnits="userSpaceOnUse"><stop offset="0" stop-color="#e02a76"/><stop offset=".204" stop-color="#e12e79"/><stop offset=".396" stop-color="#e43983"/><stop offset=".581" stop-color="#ea4c93"/><stop offset=".764" stop-color="#f266ab"/><stop offset=".943" stop-color="#fb88c8"/><stop offset="1" stop-color="#ff95d3"/></radialGradient><path fill="url(#GHCGqCj9iL1oN85dFt~uPf)" d="M24,29c-7.821,0-9-5.989-9-10c0-1.994,1.648-7.061,2.117-8.566C17.861,8.047,17.241,6,18,6 c2.031,0,3.531,5.8,4.147,6.48C25.971,16.696,27.748,29,24,29z"/><radialGradient id="GHCGqCj9iL1oN85dFt~uPg" cx="37.02" cy="117.772" r="14.732" gradientTransform="matrix(.0612 -.9514 .7588 .044 -69.253 47.316)" gradientUnits="userSpaceOnUse"><stop offset="0" stop-color="#e02a76"/><stop offset=".444" stop-color="#e12c78"/><stop offset=".604" stop-color="#e3337e"/><stop offset=".717" stop-color="#e63e88"/><stop offset=".809" stop-color="#eb4f96"/><stop offset=".888" stop-color="#f165aa"/><stop offset=".957" stop-color="#f980c1"/><stop offset="1" stop-color="#ff95d3"/></radialGradient><path fill="url(#GHCGqCj9iL1oN85dFt~uPg)" d="M24,29c5.501,0,8.998-3.016,8.998-9c0-5.355-1.095-8.434-1.589-9.964 C30.536,7.333,31.185,6,30.348,6c-1.027,0-2.962,1.815-3.726,5.419c-0.518,2.441-1.012,4.056-2.466,5.57 C22.333,18.885,15.782,29,24,29z"/><radialGradient id="GHCGqCj9iL1oN85dFt~uPh" cx="32.438" cy="117.202" r="15.797" gradientTransform="matrix(.0609 -.9514 .4381 .0253 -30.746 49.58)" gradientUnits="userSpaceOnUse"><stop offset="0" stop-color="#e02a76"/><stop offset=".204" stop-color="#e12e79"/><stop offset=".396" stop-color="#e43983"/><stop offset=".581" stop-color="#ea4c93"/><stop offset=".764" stop-color="#f266ab"/><stop offset=".943" stop-color="#fb88c8"/><stop offset="1" stop-color="#ff95d3"/></radialGradient><path fill="url(#GHCGqCj9iL1oN85dFt~uPh)" d="M24,29c-3.69,0-6.733-2.964-7.079-7.698c-0.203-2.769,1.766-6.795,2.211-8.667 C19.752,10.031,20.592,7,23,7c3.851,0,6,6.224,6,14.129C29,25.996,26.975,29,24,29z"/><radialGradient id="GHCGqCj9iL1oN85dFt~uPi" cx="23.319" cy="11.827" r="18.025" gradientUnits="userSpaceOnUse"><stop offset=".561" stop-color="#ff4068" stop-opacity="0"/><stop offset="1" stop-color="#54002c" stop-opacity=".6"/></radialGradient><path fill="url(#GHCGqCj9iL1oN85dFt~uPi)" d="M31.409,10.036C30.536,7.333,31.185,6,30.348,6c-0.458,0-1.097,0.382-1.732,1.102	C27.883,5.885,26.959,4.975,26,5c-0.827,0.022-1.356,0.734-1.814,1.791C23.592,6.096,22.872,5.636,22,5.636	c-1.066,0-1.745,0.778-2.186,1.857C19.275,6.63,18.667,6,18,6c-0.759,0-0.139,2.047-0.883,4.434C16.648,11.939,15,17.006,15,19	c0,3.865,1.113,9.551,8.192,9.96C23.445,28.985,23.711,29,24,29c5.501,0,8.998-3.016,8.998-9	C32.998,14.645,31.903,11.566,31.409,10.036z"/><linearGradient id="GHCGqCj9iL1oN85dFt~uPj" x1="36.896" x2="32.326" y1="43.38" y2="33.313" gradientTransform="matrix(-1 0 0 1 55 0)" gradientUnits="userSpaceOnUse"><stop offset="0" stop-color="#5b8a1b"/><stop offset=".305" stop-color="#699e1f"/><stop offset=".73" stop-color="#79b524"/><stop offset="1" stop-color="#7fbd26"/></linearGradient><path fill="url(#GHCGqCj9iL1oN85dFt~uPj)" d="M16,31c4.073,3.912,8.414,8.082,10,12h-7C18.032,40.273,16.379,38.35,16,31z"/><linearGradient id="GHCGqCj9iL1oN85dFt~uPk" x1="36.501" x2="36.501" y1="42.707" y2="30.534" gradientTransform="matrix(-1 0 0 1 55 0)" gradientUnits="userSpaceOnUse"><stop offset="0" stop-color="#5b8a1b"/><stop offset=".28" stop-color="#61931d"/><stop offset=".74" stop-color="#73ac22"/><stop offset="1" stop-color="#7fbd26"/></linearGradient><path fill="url(#GHCGqCj9iL1oN85dFt~uPk)" d="M16,31c0.671,6.107,3.415,10.459,5,12h-2C17.842,41.642,15.94,38.423,16,31z"/></svg>