<svg xmlns="http://www.w3.org/2000/svg" viewBox="0 0 48 48"><radialGradient id="olXoIkM69XzVCpllwTJH2a" cx="24.018" cy="40.523" r="1.414" fx="23.297" fy="40.524" gradientTransform="matrix(0 1 -.7439 0 54.161 16.505)" gradientUnits="userSpaceOnUse"><stop offset="0" stop-color="#666"/><stop offset=".318" stop-color="#494949"/><stop offset="1"/></radialGradient><path fill="url(#olXoIkM69XzVCpllwTJH2a)" d="M25,40c0,0.552-1,2-1,2s-1-1.448-1-2s0.448-1,1-1S25,39.448,25,40z"/><path fill="#40190f" d="M19.61,21.312l-4.3-4.76c-0.328-0.363-0.3-0.923,0.063-1.252c0.363-0.328,0.923-0.3,1.252,0.063 c0.023,0.025,0.047,0.056,0.066,0.083l3.7,5.24c0.16,0.226,0.106,0.539-0.12,0.698C20.061,21.534,19.777,21.498,19.61,21.312z"/><path fill="#40190f" d="M16.005,11.661l0.416,4.231c0.022,0.228-0.144,0.431-0.372,0.453 c-0.206,0.02-0.391-0.113-0.442-0.307l-1.086-4.11c-0.107-0.404,0.134-0.818,0.538-0.925c0.404-0.107,0.818,0.134,0.925,0.538 C15.993,11.58,16.001,11.623,16.005,11.661z"/><path fill="#40190f" d="M14.865,11.811l-2.741-3.954c-0.17-0.245-0.109-0.58,0.136-0.75c0.245-0.17,0.58-0.109,0.75,0.136 c0.008,0.012,0.017,0.026,0.024,0.038l2.399,4.17c0.093,0.161,0.037,0.367-0.124,0.459C15.156,11.999,14.963,11.953,14.865,11.811 z"/><path fill="#40190f" d="M20.125,21.69l-4.72,3.189c-0.409,0.276-0.965,0.169-1.242-0.24 c-0.276-0.409-0.169-0.965,0.24-1.242c0.033-0.022,0.072-0.044,0.106-0.062l5.113-2.511c0.248-0.122,0.549-0.019,0.671,0.229 C20.406,21.281,20.329,21.552,20.125,21.69z"/><path fill="#40190f" d="M11.304,26.348l3.063-2.401c0.181-0.142,0.443-0.11,0.584,0.071 c0.121,0.155,0.115,0.369-0.002,0.516l-2.427,3.042c-0.3,0.376-0.848,0.437-1.224,0.137s-0.437-0.848-0.137-1.224 C11.202,26.437,11.253,26.388,11.304,26.348z"/><path fill="#40190f" d="M12.16,27.09l-4.378,1.968c-0.271,0.122-0.59,0.001-0.712-0.271 c-0.122-0.271-0.001-0.59,0.271-0.712c0.014-0.006,0.028-0.012,0.042-0.017l4.528-1.592c0.175-0.062,0.367,0.031,0.429,0.206 C12.398,26.838,12.317,27.019,12.16,27.09z"/><path fill="#40190f" d="M20.263,24.572l-3.612,5.096c-0.285,0.403-0.843,0.498-1.246,0.212 c-0.403-0.285-0.498-0.843-0.212-1.246c0.021-0.03,0.047-0.061,0.07-0.087l4.222-4.604c0.187-0.204,0.504-0.218,0.708-0.031 C20.381,24.085,20.407,24.369,20.263,24.572z"/><path fill="#40190f" d="M13.075,35.745l2.182-6.608c0.072-0.217,0.306-0.335,0.523-0.264c0.2,0.066,0.316,0.27,0.277,0.471 l-1.308,6.835c-0.09,0.47-0.544,0.778-1.014,0.688c-0.47-0.09-0.778-0.544-0.688-1.014C13.054,35.818,13.065,35.778,13.075,35.745 z"/><path fill="#40190f" d="M14.308,35.975l-3.289,4.898c-0.166,0.247-0.5,0.313-0.747,0.147s-0.313-0.5-0.147-0.747 c0.007-0.01,0.014-0.021,0.022-0.03l3.617-4.661c0.114-0.147,0.325-0.173,0.472-0.06C14.375,35.631,14.405,35.829,14.308,35.975z"/><path fill="#6e2c19" d="M23.353,8.838c-0.02-0.097-0.13-0.313-0.24-0.48C23,8.18,22.869,8.005,22.738,7.832 c-0.265-0.344-0.55-0.686-0.839-1.008l0,0l0.114,0.095c-0.725-0.371-1.411-0.772-2.079-1.243c-0.333-0.235-0.661-0.485-0.972-0.773 c-0.31-0.29-0.616-0.601-0.866-1.022c-0.162-0.273-0.072-0.625,0.201-0.786c0.273-0.162,0.625-0.072,0.786,0.201 c0.007,0.011,0.013,0.022,0.019,0.034l0.006,0.011c0.276,0.548,0.835,1.101,1.408,1.577c0.579,0.484,1.22,0.932,1.863,1.33 l0.033,0.021c0.032,0.02,0.06,0.046,0.081,0.074l0,0c0.271,0.373,0.522,0.745,0.764,1.136c0.119,0.197,0.237,0.393,0.343,0.605 c0.1,0.223,0.22,0.406,0.245,0.756c0.01,0.133-0.091,0.249-0.224,0.259c-0.123,0.009-0.231-0.076-0.255-0.193L23.353,8.838z"/><path fill="#6e2c19" d="M24.155,8.838c0.025-0.351,0.146-0.534,0.245-0.756c0.106-0.212,0.224-0.408,0.343-0.605 c0.242-0.391,0.493-0.763,0.764-1.136l0,0c0.023-0.03,0.05-0.055,0.08-0.074l0.034-0.021c0.643-0.398,1.284-0.846,1.863-1.33 c0.573-0.477,1.132-1.029,1.408-1.577l0.005-0.01c0.142-0.283,0.487-0.397,0.77-0.255c0.283,0.142,0.397,0.487,0.255,0.77 c-0.006,0.012-0.013,0.024-0.019,0.035c-0.25,0.422-0.556,0.733-0.866,1.022c-0.311,0.288-0.639,0.538-0.972,0.773 c-0.669,0.471-1.354,0.872-2.079,1.243L26.1,6.824l0,0c-0.288,0.323-0.574,0.664-0.839,1.008C25.131,8.005,25,8.18,24.888,8.358 c-0.11,0.167-0.221,0.383-0.24,0.48l-0.013,0.065c-0.027,0.131-0.154,0.216-0.285,0.189C24.228,9.068,24.147,8.958,24.155,8.838z"/><path fill="#40190f" d="M27.61,20.688l3.7-5.24c0.282-0.4,0.835-0.495,1.235-0.213s0.495,0.835,0.213,1.235 c-0.02,0.028-0.044,0.058-0.066,0.083l-4.3,4.76c-0.185,0.205-0.502,0.221-0.707,0.036C27.493,21.176,27.465,20.892,27.61,20.688z"/><path fill="#40190f" d="M33.48,11.929l-1.086,4.11c-0.059,0.221-0.286,0.354-0.507,0.295 c-0.2-0.053-0.327-0.243-0.307-0.442l0.416-4.231c0.041-0.416,0.411-0.72,0.827-0.679s0.72,0.411,0.679,0.827 C33.497,11.849,33.489,11.891,33.48,11.929z"/><path fill="#40190f" d="M32.568,11.452l2.399-4.17c0.148-0.258,0.478-0.347,0.736-0.198 c0.258,0.148,0.347,0.478,0.198,0.736c-0.007,0.013-0.016,0.026-0.024,0.038l-2.741,3.954c-0.106,0.153-0.315,0.191-0.468,0.085 C32.523,11.796,32.482,11.602,32.568,11.452z"/><path fill="#40190f" d="M28.376,20.825l5.113,2.511c0.443,0.218,0.626,0.753,0.409,1.197 c-0.218,0.443-0.753,0.626-1.197,0.409c-0.036-0.018-0.074-0.04-0.106-0.062l-4.72-3.189c-0.229-0.155-0.29-0.467-0.135-0.696 C27.882,20.784,28.155,20.716,28.376,20.825z"/><path fill="#40190f" d="M35.479,27.576l-2.427-3.042c-0.143-0.18-0.114-0.442,0.066-0.585 c0.154-0.123,0.368-0.119,0.516-0.002l3.063,2.401c0.378,0.297,0.445,0.844,0.148,1.222c-0.297,0.378-0.844,0.445-1.222,0.148 C35.569,27.677,35.519,27.626,35.479,27.576z"/><path fill="#40190f" d="M36.09,26.466l4.528,1.592c0.281,0.099,0.428,0.406,0.33,0.687 c-0.099,0.281-0.406,0.428-0.687,0.33c-0.014-0.005-0.029-0.011-0.042-0.017L35.84,27.09c-0.169-0.076-0.245-0.275-0.169-0.445 C35.743,26.485,35.927,26.409,36.09,26.466z"/><path fill="#40190f" d="M28.515,23.943l4.222,4.604c0.334,0.364,0.309,0.929-0.055,1.263s-0.929,0.309-1.263-0.055 c-0.024-0.027-0.05-0.059-0.071-0.087l-3.612-5.096c-0.16-0.226-0.107-0.538,0.119-0.698 C28.064,23.726,28.347,23.76,28.515,23.943z"/><path fill="#40190f" d="M33.25,36.179l-1.308-6.835c-0.043-0.225,0.104-0.442,0.329-0.485 c0.207-0.04,0.407,0.082,0.471,0.277l2.182,6.608c0.15,0.454-0.097,0.945-0.551,1.095s-0.945-0.097-1.095-0.551 C33.267,36.254,33.257,36.214,33.25,36.179z"/><path fill="#40190f" d="M34.237,35.581l3.617,4.661c0.182,0.235,0.14,0.573-0.095,0.756 c-0.235,0.182-0.573,0.14-0.756-0.095c-0.007-0.009-0.015-0.02-0.022-0.03l-3.289-4.898c-0.104-0.154-0.062-0.363,0.092-0.467 C33.932,35.409,34.13,35.443,34.237,35.581z"/><radialGradient id="olXoIkM69XzVCpllwTJH2b" cx="24" cy="11.869" r="29.748" gradientUnits="userSpaceOnUse"><stop offset=".391"/><stop offset=".407" stop-color="#987c17"/><stop offset=".418" stop-color="#ffd026"/><stop offset=".463" stop-color="#fecd24"/><stop offset=".497" stop-color="#f9c31f"/><stop offset=".528" stop-color="#f2b315"/><stop offset=".533" stop-color="#f0af13"/><stop offset=".547" stop-color="#584007"/><stop offset=".556"/><stop offset=".683"/><stop offset=".696" stop-color="#987c17"/><stop offset=".704" stop-color="#ffd026"/><stop offset=".752" stop-color="#fecd24"/><stop offset=".79" stop-color="#f9c31f"/><stop offset=".823" stop-color="#f2b315"/><stop offset=".829" stop-color="#f0af13"/><stop offset=".846" stop-color="#584007"/><stop offset=".856"/><stop offset="1"/></radialGradient><path fill="url(#olXoIkM69XzVCpllwTJH2b)" d="M31,30c0,6.351-3.134,10.5-7,10.5s-7-4.149-7-10.5s3.134-11.5,7-11.5S31,23.649,31,30z"/><radialGradient id="olXoIkM69XzVCpllwTJH2c" cx="24" cy="29.5" r="7.038" gradientTransform="matrix(1 0 0 1.586 0 -17.286)" gradientUnits="userSpaceOnUse"><stop offset="0" stop-opacity="0"/><stop offset=".855" stop-opacity=".513"/><stop offset="1" stop-opacity=".6"/></radialGradient><path fill="url(#olXoIkM69XzVCpllwTJH2c)" d="M31,30c0,6.351-3.134,10.5-7,10.5s-7-4.149-7-10.5s3.134-11.5,7-11.5S31,23.649,31,30z"/><radialGradient id="olXoIkM69XzVCpllwTJH2d" cx="23.894" cy="-2.251" r="25.66" gradientTransform="matrix(1 0 0 .9167 0 1.167)" gradientUnits="userSpaceOnUse"><stop offset=".391"/><stop offset=".407" stop-color="#987c17"/><stop offset=".418" stop-color="#ffd026"/><stop offset=".463" stop-color="#fecd24"/><stop offset=".497" stop-color="#f9c31f"/><stop offset=".528" stop-color="#f2b315"/><stop offset=".533" stop-color="#f0af13"/><stop offset=".547" stop-color="#584007"/><stop offset=".556"/><stop offset=".574"/><stop offset=".683"/><stop offset=".696" stop-color="#987c17"/><stop offset=".704" stop-color="#ffd026"/><stop offset=".752" stop-color="#fecd24"/><stop offset=".79" stop-color="#f9c31f"/><stop offset=".823" stop-color="#f2b315"/><stop offset=".829" stop-color="#f0af13"/><stop offset=".846" stop-color="#584007"/><stop offset=".856"/><stop offset="1"/></radialGradient><ellipse cx="24" cy="18.5" fill="url(#olXoIkM69XzVCpllwTJH2d)" rx="6" ry="5.5"/><radialGradient id="olXoIkM69XzVCpllwTJH2e" cx="24" cy="18.909" r="6" gradientTransform="matrix(1 0 0 .9167 0 1.167)" gradientUnits="userSpaceOnUse"><stop offset=".279" stop-opacity="0"/><stop offset="1" stop-opacity=".6"/></radialGradient><ellipse cx="24" cy="18.5" fill="url(#olXoIkM69XzVCpllwTJH2e)" rx="6" ry="5.5"/><linearGradient id="olXoIkM69XzVCpllwTJH2f" x1="25.221" x2="40.443" y1="17.641" y2="37.936" gradientUnits="userSpaceOnUse"><stop offset=".002" stop-color="#735b22"/><stop offset=".3" stop-color="#f0c660" stop-opacity=".5"/><stop offset="1" stop-color="#f0c660" stop-opacity=".5"/></linearGradient><path fill="url(#olXoIkM69XzVCpllwTJH2f)" d="M27.255,16.296c-0.975,0.64-3.673,6.404-1.735,11.818c0.661,1.847,1.615,3.287,5.109,5.644	c4.167,2.753,16.621,8.494,12.85-2.044c-1.631-4.558-15.244-15.344-15.244-15.344l0,0C27.98,16.249,27.589,16.077,27.255,16.296z"/><radialGradient id="olXoIkM69XzVCpllwTJH2g" cx="24.153" cy="7.608" r="8.273" gradientUnits="userSpaceOnUse"><stop offset="0" stop-color="#ffe16e"/><stop offset=".505" stop-color="#c79c0e"/><stop offset=".999" stop-color="#4a3300"/></radialGradient><ellipse cx="24" cy="11.5" fill="url(#olXoIkM69XzVCpllwTJH2g)" rx="5" ry="3.5"/><radialGradient id="olXoIkM69XzVCpllwTJH2h" cx="28.035" cy="11.538" r="2.51" fx="26.756" fy="11.54" gradientTransform="matrix(0 1 -.7439 0 36.618 -16.497)" gradientUnits="userSpaceOnUse"><stop offset="0" stop-color="#666"/><stop offset=".318" stop-color="#494949"/><stop offset="1"/></radialGradient><ellipse cx="28" cy="11.5" fill="url(#olXoIkM69XzVCpllwTJH2h)" rx="2" ry="2.5"/><radialGradient id="olXoIkM69XzVCpllwTJH2i" cx="20.035" cy="11.538" r="2.51" fx="18.756" fy="11.54" gradientTransform="matrix(0 1 -.7439 0 28.618 -8.497)" gradientUnits="userSpaceOnUse"><stop offset="0" stop-color="#666"/><stop offset=".318" stop-color="#494949"/><stop offset="1"/></radialGradient><ellipse cx="20" cy="11.5" fill="url(#olXoIkM69XzVCpllwTJH2i)" rx="2" ry="2.5"/><linearGradient id="olXoIkM69XzVCpllwTJH2j" x1="297.221" x2="312.443" y1="17.641" y2="37.936" gradientTransform="matrix(-1 0 0 1 320 0)" gradientUnits="userSpaceOnUse"><stop offset=".002" stop-color="#735b22"/><stop offset=".3" stop-color="#f0c660" stop-opacity=".5"/><stop offset="1" stop-color="#f0c660" stop-opacity=".5"/></linearGradient><path fill="url(#olXoIkM69XzVCpllwTJH2j)" d="M20.745,16.296c0.975,0.64,3.673,6.404,1.735,11.818c-0.661,1.847-1.615,3.287-5.109,5.644	c-4.167,2.753-16.621,8.494-12.85-2.044c1.631-4.558,15.244-15.344,15.244-15.344l0,0C20.02,16.249,20.411,16.077,20.745,16.296z"/></svg>