<svg xmlns="http://www.w3.org/2000/svg" viewBox="0 0 48 48"><radialGradient id="4AZCtBacH0JZ4KtMiHF3Na" cx="24.449" cy="94.029" r="14.444" gradientTransform="matrix(1 0 0 -1.1591 0 143.887)" gradientUnits="userSpaceOnUse"><stop offset="0" stop-color="#ffb74d"/><stop offset=".311" stop-color="#feb44a"/><stop offset=".552" stop-color="#fdaa41"/><stop offset=".768" stop-color="#fa9a31"/><stop offset=".97" stop-color="#f6831b"/><stop offset=".997" stop-color="#f57f17"/></radialGradient><path fill="url(#4AZCtBacH0JZ4KtMiHF3Na)" d="M13,23c0,0-4,11-4,21v1h34c0,0-0.2-7.4-6.5-11.6c0,0-3.5-9.2-4.5-10.4C32,23,13,23,13,23z"/><radialGradient id="4AZCtBacH0JZ4KtMiHF3Nb" cx="21.187" cy="100.653" r="12.162" gradientTransform="matrix(1.0023 0 0 -1.1768 1.74 155.468)" gradientUnits="userSpaceOnUse"><stop offset=".607" stop-color="#fff3e0"/><stop offset=".726" stop-color="#fde6ca"/><stop offset=".972" stop-color="#f9c390"/><stop offset="1" stop-color="#f8bf89"/></radialGradient><path fill="url(#4AZCtBacH0JZ4KtMiHF3Nb)" d="M30,32c0-3-1-4-1-4H16c0,0-1,1-1,4c0,0-2,6-2,13h21C34,40,30,32,30,32z"/><path fill="none" d="M29.9,30.5C27.2,31.6,24,32,22.5,32s-4.7-0.4-7.4-1.5c0-0.4,0.1-0.7,0.2-1 C15.6,28.4,16,28,16,28h13c0,0,0.4,0.4,0.7,1.6C29.8,29.8,29.9,30.2,29.9,30.5z"/><path fill="#E2DED6" d="M16,28h13c0,0,0.4,0.4,0.7,1.6c0.1,0.3,0.1,0.6,0.1,0.9 c-2.7,1.1-5.9,1.5-7.3,1.5c-1.5,0-4.6-0.4-7.3-1.4c0-0.4,0.1-0.7,0.1-0.9C15.6,28.4,16,28,16,28z" opacity=".067"/><path fill="#E1DDD6" d="M16,28h13c0,0,0.4,0.4,0.7,1.6c0,0.3,0.1,0.6,0.1,0.9 c-2.7,1-5.8,1.4-7.3,1.4s-4.6-0.4-7.3-1.4c0-0.3,0-0.6,0.1-0.9C15.6,28.4,16,28,16,28z" opacity=".133"/><path fill="#E1DCD5" d="M16,28h13c0,0,0.4,0.4,0.7,1.6c0,0.2,0,0.5,0,0.9 c-2.7,1-5.8,1.4-7.2,1.4c-1.4,0-4.5-0.4-7.2-1.4c0-0.3,0-0.6,0-0.8C15.6,28.4,16,28,16,28z" opacity=".2"/><path fill="#E1DBD5" d="M16,28h13c0,0,0.4,0.4,0.7,1.6c0,0.2,0,0.5-0.1,0.8 c-2.7,1-5.7,1.4-7.2,1.4c-1.4,0-4.5-0.4-7.1-1.4c0-0.3-0.1-0.6-0.1-0.8C15.6,28.4,16,28,16,28z" opacity=".267"/><path fill="#E0DAD4" d="M16,28h13c0,0,0.4,0.4,0.7,1.6c0,0.2-0.1,0.5-0.1,0.8 c-2.6,1-5.7,1.4-7.1,1.4c-1.4,0-4.5-0.4-7.1-1.4c-0.1-0.3-0.1-0.5-0.1-0.8C15.6,28.4,16,28,16,28z" opacity=".333"/><path fill="#E0D9D3" d="M16,28h13c0,0,0.4,0.4,0.7,1.6c-0.1,0.2-0.1,0.5-0.2,0.7 c-2.6,1-5.6,1.4-7,1.4s-4.4-0.4-7-1.4c-0.1-0.3-0.1-0.5-0.2-0.7C15.6,28.4,16,28,16,28z" opacity=".4"/><path fill="#E0D8D3" d="M16,28h13c0,0,0.4,0.4,0.7,1.6c-0.1,0.2-0.2,0.4-0.3,0.7 c-2.6,1-5.6,1.4-7,1.4s-4.4-0.4-7-1.4c-0.1-0.2-0.2-0.5-0.3-0.7C15.6,28.4,16,28,16,28z" opacity=".467"/><path fill="#DFD8D2" d="M16,28h13c0,0,0.4,0.4,0.7,1.6c-0.1,0.2-0.2,0.4-0.3,0.6 c-2.6,1-5.5,1.4-6.9,1.4s-4.3-0.4-6.9-1.4c-0.1-0.2-0.2-0.4-0.3-0.6C15.6,28.4,16,28,16,28z" opacity=".533"/><path fill="#DFD7D2" d="M16,28h13c0,0,0.4,0.4,0.7,1.6c-0.1,0.2-0.3,0.4-0.4,0.6 c-2.5,1-5.5,1.4-6.8,1.4c-1.4,0-4.3-0.4-6.8-1.4c-0.1-0.2-0.3-0.4-0.4-0.6C15.6,28.4,16,28,16,28z" opacity=".6"/><path fill="#DFD6D1" d="M16,28h13c0,0,0.4,0.4,0.7,1.6c-0.1,0.2-0.3,0.4-0.5,0.6 c-2.5,1-5.4,1.4-6.8,1.4s-4.2-0.4-6.8-1.3c-0.2-0.2-0.3-0.4-0.5-0.6C15.6,28.4,16,28,16,28z" opacity=".667"/><path fill="#DED5D0" d="M16,28h13c0,0,0.4,0.4,0.7,1.6c-0.2,0.2-0.3,0.3-0.5,0.5 c-2.5,1-5.4,1.4-6.7,1.4c-1.3,0-4.2-0.4-6.7-1.3c-0.2-0.2-0.4-0.3-0.5-0.5C15.6,28.4,16,28,16,28z" opacity=".733"/><path fill="#DED4D0" d="M16,28h13c0,0,0.4,0.4,0.7,1.6c-0.2,0.2-0.4,0.3-0.6,0.5 c-2.5,1-5.3,1.3-6.6,1.3s-4.2-0.4-6.6-1.3c-0.2-0.2-0.4-0.3-0.6-0.5C15.6,28.4,16,28,16,28z" opacity=".8"/><path fill="#DED3CF" d="M16,28h13c0,0,0.4,0.4,0.7,1.6c-0.2,0.1-0.4,0.3-0.7,0.4 c-2.4,1-5.3,1.3-6.6,1.3c-1.3,0-4.1-0.4-6.6-1.3c-0.2-0.1-0.4-0.3-0.7-0.4C15.6,28.4,16,28,16,28z" opacity=".867"/><path fill="#DDD2CF" d="M16,28h13c0,0,0.4,0.4,0.7,1.6c-0.2,0.1-0.5,0.3-0.7,0.4 c-2.4,1-5.2,1.3-6.5,1.3S18.4,30.9,16,30c-0.2-0.1-0.5-0.3-0.7-0.4C15.6,28.4,16,28,16,28z" opacity=".933"/><path fill="#DDD1CE" d="M29,28c0,0,0.4,0.4,0.7,1.6c-2.6,1.2-5.8,1.7-7.2,1.7c-1.4,0-4.7-0.4-7.2-1.6C15.6,28.4,16,28,16,28H29z"/><linearGradient id="4AZCtBacH0JZ4KtMiHF3Nc" x1="13.439" x2="22.359" y1="13.5" y2="13.5" gradientTransform="matrix(1 0 0 -1 0 50)" gradientUnits="userSpaceOnUse"><stop offset="0" stop-color="#f8bf89"/><stop offset=".643" stop-color="#fde2c4" stop-opacity=".357"/><stop offset="1" stop-color="#fff3e0" stop-opacity="0"/></linearGradient><path fill="url(#4AZCtBacH0JZ4KtMiHF3Nc)" d="M23,45H13c0-7,2-13,2-13c0-3,1-4,1-4h7V45z"/><linearGradient id="4AZCtBacH0JZ4KtMiHF3Nd" x1="31.883" x2="22.36" y1="13.5" y2="13.5" gradientTransform="matrix(1 0 0 -1 0 50)" gradientUnits="userSpaceOnUse"><stop offset="0" stop-color="#f8bf89"/><stop offset=".643" stop-color="#fde2c4" stop-opacity=".357"/><stop offset="1" stop-color="#fff3e0" stop-opacity="0"/></linearGradient><path fill="url(#4AZCtBacH0JZ4KtMiHF3Nd)" d="M34,45H22V28h7c0,0,1,1,1,4C30,32,34,40,34,45z"/><linearGradient id="4AZCtBacH0JZ4KtMiHF3Ne" x1="27.088" x2="35.274" y1="44.616" y2="39.679" gradientTransform="matrix(1 0 0 -1 0 50)" gradientUnits="userSpaceOnUse"><stop offset="0" stop-color="#f57f17"/><stop offset=".294" stop-color="#f27d17"/><stop offset=".474" stop-color="#ea7816"/><stop offset=".623" stop-color="#dc7015"/><stop offset=".756" stop-color="#c76413"/><stop offset=".877" stop-color="#ad5411"/><stop offset=".989" stop-color="#8d410e"/><stop offset="1" stop-color="#893f0e"/></linearGradient><path fill="url(#4AZCtBacH0JZ4KtMiHF3Ne)" d="M25,8.5c0,0,6.7-6.5,8-6.5c0.7,0,2,3.2,2,5.8c0,6.7-2.7,7.2-3.3,7.2C27,13.1,25,8.5,25,8.5z"/><path fill="#D8BFAC" d="M25.7,9.1c0,0,6-5.2,6.9-5.2c0.5,0,1.1,2.7,1.1,4.2c0,5.3-2.1,6.2-2.7,6.2C27.3,12.8,25.7,9.1,25.7,9.1z"/><path fill="#D7BEAB" d="M25.7,9.2c0,0,6-5.2,6.9-5.2c0.5,0,1.1,2.6,1.1,4.2c0,5.2-2.1,6.1-2.7,6.1C27.3,12.8,25.7,9.2,25.7,9.2z"/><path fill="#D6BDAA" d="M25.7,9.2c0,0,5.9-5.1,6.9-5.1c0.5,0,1.1,2.6,1.1,4.2c0,5.2-2.1,6.1-2.6,6.1C27.3,12.8,25.7,9.2,25.7,9.2z"/><path fill="#D6BCA9" d="M25.7,9.2c0,0,5.9-5.1,6.8-5.1c0.5,0,1.1,2.6,1.1,4.2c0,5.2-2.1,6.1-2.6,6.1C27.3,12.8,25.7,9.2,25.7,9.2z"/><path fill="#D5BBA8" d="M25.7,9.3c0,0,5.9-5.1,6.8-5.1c0.5,0,1,2.6,1,4.1c0,5.2-2.1,6-2.6,6C27.3,12.8,25.7,9.3,25.7,9.3z"/><path fill="#D4BBA7" d="M25.8,9.3c0,0,5.8-5,6.8-5c0.5,0,1,2.6,1,4.1c0,5.1-2.1,6-2.6,6C27.3,12.9,25.8,9.3,25.8,9.3z"/><path fill="#D3BAA6" d="M25.8,9.3c0,0,5.8-5,6.8-5c0.5,0,1,2.5,1,4.1c0,5.1-2.1,6-2.6,6C27.3,12.9,25.8,9.3,25.8,9.3z"/><path fill="#D3B9A5" d="M25.8,9.3c0,0,5.7-5,6.7-5c0.5,0,1,2.5,1,4c0,5.1-2.1,5.9-2.6,5.9C27.3,12.9,25.8,9.3,25.8,9.3z"/><path fill="#D2B8A4" d="M25.8,9.4c0,0,5.7-4.9,6.7-4.9c0.5,0,1,2.5,1,4c0,5-2.1,5.9-2.6,5.9C27.4,12.9,25.8,9.4,25.8,9.4z"/><path fill="#D1B7A3" d="M25.8,9.4c0,0,5.7-4.9,6.7-4.9c0.5,0,1,2.5,1,4c0,5-2,5.9-2.6,5.9C27.4,12.9,25.8,9.4,25.8,9.4z"/><path fill="#D0B6A2" d="M25.8,9.4c0,0,5.6-4.9,6.6-4.9c0.5,0,1,2.5,1,4c0,5-2,5.8-2.5,5.8C27.4,12.9,25.8,9.4,25.8,9.4z"/><path fill="#D0B5A1" d="M25.9,9.5c0,0,5.6-4.8,6.6-4.8c0.5,0,1,2.4,1,3.9c0,5-2,5.8-2.5,5.8C27.4,12.9,25.9,9.5,25.9,9.5z"/><path fill="#CFB4A0" d="M25.9,9.5c0,0,5.6-4.8,6.6-4.8c0.5,0,1,2.4,1,3.9c0,4.9-2,5.8-2.5,5.8C27.4,12.9,25.9,9.5,25.9,9.5z"/><path fill="#CEB39F" d="M25.9,9.5c0,0,5.5-4.8,6.5-4.8c0.5,0,1,2.4,1,3.9c0,4.9-2,5.7-2.5,5.7C27.4,12.9,25.9,9.5,25.9,9.5z"/><path fill="#CDB29E" d="M25.9,9.5c0,0,5.5-4.8,6.5-4.8c0.5,0,1,2.4,1,3.9c0,4.9-2,5.7-2.5,5.7C27.4,12.9,25.9,9.5,25.9,9.5z"/><path fill="#CDB29D" d="M25.9,9.6c0,0,5.4-4.7,6.5-4.7c0.5,0,1,2.4,1,3.8c0,4.8-2,5.7-2.5,5.7C27.4,12.9,25.9,9.6,25.9,9.6z"/><path fill="#CCB19C" d="M25.9,9.6c0,0,5.4-4.7,6.4-4.7c0.5,0,1,2.4,1,3.8c0,4.8-2,5.6-2.5,5.6C27.4,12.9,25.9,9.6,25.9,9.6z"/><path fill="#CBB09B" d="M26,9.6c0,0,5.4-4.7,6.4-4.7c0.5,0,1,2.3,1,3.8c0,4.8-2,5.6-2.5,5.6C27.4,12.9,26,9.6,26,9.6z"/><path fill="#CAAF9A" d="M26,9.7c0,0,5.3-4.6,6.4-4.6c0.5,0,1,2.3,1,3.7c0,4.8-2,5.6-2.5,5.6C27.5,13,26,9.7,26,9.7z"/><path fill="#C9AE99" d="M26,9.7c0,0,5.3-4.6,6.4-4.6c0.5,0,1,2.3,1,3.7c0,4.7-2,5.5-2.4,5.5C27.5,13,26,9.7,26,9.7z"/><path fill="#C9AD98" d="M26,9.7c0,0,5.3-4.6,6.3-4.6c0.5,0,1,2.3,1,3.7c0,4.7-1.9,5.5-2.4,5.5C27.5,13,26,9.7,26,9.7z"/><path fill="#C8AC97" d="M26,9.7c0,0,5.2-4.5,6.3-4.5c0.5,0,1,2.3,1,3.7c0,4.7-1.9,5.5-2.4,5.5C27.5,13,26,9.7,26,9.7z"/><path fill="#C7AB96" d="M26.1,9.8c0,0,5.2-4.5,6.3-4.5c0.5,0,1,2.2,1,3.6c0,4.7-1.9,5.4-2.4,5.4C27.5,13,26.1,9.8,26.1,9.8z"/><path fill="#C6AA95" d="M26.1,9.8c0,0,5.2-4.5,6.2-4.5c0.5,0,1,2.2,1,3.6c0,4.6-1.9,5.4-2.4,5.4C27.5,13,26.1,9.8,26.1,9.8z"/><path fill="#C6AA94" d="M26.1,9.8c0,0,5.1-4.4,6.2-4.4c0.5,0,1,2.2,1,3.6c0,4.6-1.9,5.4-2.4,5.4C27.5,13,26.1,9.8,26.1,9.8z"/><path fill="#C5A993" d="M26.1,9.8c0,0,5.1-4.4,6.2-4.4c0.5,0,0.9,2.2,0.9,3.6c0,4.6-1.9,5.3-2.4,5.3C27.5,13,26.1,9.8,26.1,9.8z"/><path fill="#C4A892" d="M26.1,9.9c0,0,5-4.4,6.1-4.4c0.5,0,0.9,2.2,0.9,3.5c0,4.5-1.9,5.3-2.4,5.3C27.5,13,26.1,9.9,26.1,9.9z"/><path fill="#C3A791" d="M26.1,9.9c0,0,5-4.3,6.1-4.3c0.5,0,0.9,2.1,0.9,3.5c0,4.5-1.9,5.3-2.4,5.3C27.6,13,26.1,9.9,26.1,9.9z"/><path fill="#C3A690" d="M26.2,9.9c0,0,5-4.3,6.1-4.3c0.5,0,0.9,2.1,0.9,3.5c0,4.5-1.9,5.3-2.3,5.3C27.6,13,26.2,9.9,26.2,9.9z"/><path fill="#C2A58F" d="M26.2,10c0,0,4.9-4.3,6.1-4.3c0.5,0,0.9,2.1,0.9,3.4c0,4.5-1.9,5.2-2.3,5.2C27.6,13,26.2,10,26.2,10z"/><path fill="#C1A48E" d="M26.2,10c0,0,4.9-4.2,6-4.2c0.5,0,0.9,2.1,0.9,3.4c0,4.4-1.9,5.2-2.3,5.2C27.6,13.1,26.2,10,26.2,10z"/><path fill="#C0A38D" d="M26.2,10c0,0,4.9-4.2,6-4.2c0.5,0,0.9,2.1,0.9,3.4c0,4.4-1.8,5.2-2.3,5.2C27.6,13.1,26.2,10,26.2,10z"/><path fill="#C0A28C" d="M26.2,10c0,0,4.8-4.2,6-4.2c0.5,0,0.9,2,0.9,3.4c0,4.4-1.8,5.1-2.3,5.1C27.6,13.1,26.2,10,26.2,10z"/><path fill="#BFA18B" d="M26.2,10.1c0,0,4.8-4.1,5.9-4.1C32.6,6,33,8,33,9.3c0,4.3-1.8,5.1-2.3,5.1C27.6,13.1,26.2,10.1,26.2,10.1z"/><path fill="#BEA18A" d="M26.3,10.1c0,0,4.7-4.1,5.9-4.1c0.5,0,0.9,2,0.9,3.3c0,4.3-1.8,5.1-2.3,5.1C27.6,13.1,26.3,10.1,26.3,10.1z"/><path fill="#BDA089" d="M26.3,10.1c0,0,4.7-4.1,5.9-4.1c0.5,0,0.9,2,0.9,3.3c0,4.3-1.8,5-2.3,5C27.6,13.1,26.3,10.1,26.3,10.1z"/><path fill="#BD9F88" d="M26.3,10.2c0,0,4.7-4,5.8-4c0.4,0,0.9,2,0.9,3.3c0,4.3-1.8,5-2.2,5C27.6,13.1,26.3,10.2,26.3,10.2z"/><path fill="#BC9E87" d="M26.3,10.2c0,0,4.6-4,5.8-4c0.4,0,0.9,2,0.9,3.2c0,4.2-1.8,5-2.2,5C27.7,13.1,26.3,10.2,26.3,10.2z"/><path fill="#BB9D86" d="M26.3,10.2c0,0,4.6-4,5.8-4c0.4,0,0.9,1.9,0.9,3.2c0,4.2-1.8,4.9-2.2,4.9C27.7,13.1,26.3,10.2,26.3,10.2z"/><path fill="#BA9C86" d="M26.4,10.2c0,0,4.6-4,5.7-4c0.4,0,0.9,1.9,0.9,3.2c0,4.2-1.8,4.9-2.2,4.9C27.7,13.1,26.4,10.2,26.4,10.2z"/><path fill="#B99B85" d="M26.4,10.3c0,0,4.5-3.9,5.7-3.9c0.4,0,0.9,1.9,0.9,3.1c0,4.2-1.8,4.9-2.2,4.9 C27.7,13.1,26.4,10.3,26.4,10.3z"/><path fill="#B99A84" d="M26.4,10.3c0,0,4.5-3.9,5.7-3.9c0.4,0,0.9,1.9,0.9,3.1c0,4.1-1.7,4.8-2.2,4.8 C27.7,13.1,26.4,10.3,26.4,10.3z"/><path fill="#B89983" d="M26.4,10.3c0,0,4.5-3.9,5.7-3.9c0.4,0,0.9,1.9,0.9,3.1c0,4.1-1.7,4.8-2.2,4.8 C27.7,13.2,26.4,10.3,26.4,10.3z"/><path fill="#B79982" d="M26.4,10.4c0,0,4.4-3.8,5.6-3.8c0.4,0,0.9,1.8,0.9,3.1c0,4.1-1.7,4.8-2.2,4.8 C27.7,13.2,26.4,10.4,26.4,10.4z"/><path fill="#B69881" d="M26.4,10.4c0,0,4.4-3.8,5.6-3.8c0.4,0,0.9,1.8,0.9,3c0,4-1.7,4.7-2.2,4.7C27.7,13.2,26.4,10.4,26.4,10.4z"/><path fill="#B69780" d="M26.5,10.4c0,0,4.3-3.8,5.6-3.8c0.4,0,0.9,1.8,0.9,3c0,4-1.7,4.7-2.1,4.7C27.7,13.2,26.5,10.4,26.5,10.4z"/><path fill="#B5967F" d="M26.5,10.4c0,0,4.3-3.7,5.5-3.7c0.4,0,0.9,1.8,0.9,3c0,4-1.7,4.7-2.1,4.7C27.8,13.2,26.5,10.4,26.5,10.4z"/><path fill="#B4957E" d="M26.5,10.5c0,0,4.3-3.7,5.5-3.7c0.4,0,0.8,1.8,0.8,3c0,4-1.7,4.6-2.1,4.6C27.8,13.2,26.5,10.5,26.5,10.5z"/><path fill="#B3947D" d="M26.5,10.5c0,0,4.2-3.7,5.5-3.7c0.4,0,0.8,1.7,0.8,2.9c0,3.9-1.7,4.6-2.1,4.6 C27.8,13.2,26.5,10.5,26.5,10.5z"/><path fill="#B3937C" d="M26.5,10.5c0,0,4.2-3.6,5.4-3.6c0.4,0,0.8,1.7,0.8,2.9c0,3.9-1.7,4.6-2.1,4.6 C27.8,13.2,26.5,10.5,26.5,10.5z"/><path fill="#B2927B" d="M26.5,10.5c0,0,4.2-3.6,5.4-3.6c0.4,0,0.8,1.7,0.8,2.9c0,3.9-1.7,4.5-2.1,4.5 C27.8,13.2,26.5,10.5,26.5,10.5z"/><path fill="#B1917A" d="M26.6,10.6c0,0,4.1-3.6,5.4-3.6c0.4,0,0.8,1.7,0.8,2.8c0,3.8-1.7,4.5-2.1,4.5 C27.8,13.2,26.6,10.6,26.6,10.6z"/><path fill="#B09079" d="M26.6,10.6c0,0,4.1-3.5,5.4-3.5c0.4,0,0.8,1.7,0.8,2.8c0,3.8-1.6,4.5-2.1,4.5 C27.8,13.2,26.6,10.6,26.6,10.6z"/><path fill="#B09078" d="M26.6,10.6c0,0,4-3.5,5.3-3.5c0.4,0,0.8,1.6,0.8,2.8c0,3.8-1.6,4.4-2,4.4C27.8,13.2,26.6,10.6,26.6,10.6z"/><path fill="#AF8F77" d="M26.6,10.7c0,0,4-3.5,5.3-3.5c0.4,0,0.8,1.6,0.8,2.8c0,3.8-1.6,4.4-2,4.4C27.8,13.2,26.6,10.7,26.6,10.7z"/><path fill="#AE8E76" d="M26.6,10.7c0,0,4-3.4,5.3-3.4c0.4,0,0.8,1.6,0.8,2.7c0,3.7-1.6,4.4-2,4.4C27.8,13.3,26.6,10.7,26.6,10.7z"/><path fill="#AD8D75" d="M26.6,10.7c0,0,3.9-3.4,5.2-3.4c0.4,0,0.8,1.6,0.8,2.7c0,3.7-1.6,4.3-2,4.3C27.9,13.3,26.6,10.7,26.6,10.7z"/><path fill="#AD8C74" d="M26.7,10.7c0,0,3.9-3.4,5.2-3.4c0.4,0,0.8,1.6,0.8,2.7c0,3.7-1.6,4.3-2,4.3C27.9,13.3,26.7,10.7,26.7,10.7z"/><path fill="#AC8B73" d="M26.7,10.8c0,0,3.9-3.3,5.2-3.3c0.4,0,0.8,1.6,0.8,2.6c0,3.7-1.6,4.3-2,4.3C27.9,13.3,26.7,10.8,26.7,10.8z"/><path fill="#AB8A72" d="M26.7,10.8c0,0,3.8-3.3,5.1-3.3c0.4,0,0.8,1.5,0.8,2.6c0,3.6-1.6,4.2-2,4.2C27.9,13.3,26.7,10.8,26.7,10.8z"/><path fill="#AA8971" d="M26.7,10.8c0,0,3.8-3.3,5.1-3.3c0.4,0,0.8,1.5,0.8,2.6c0,3.6-1.6,4.2-2,4.2C27.9,13.3,26.7,10.8,26.7,10.8z"/><path fill="#A98870" d="M26.7,10.9c0,0,3.8-3.3,5.1-3.3c0.4,0,0.8,1.5,0.8,2.6c0,3.6-1.6,4.2-2,4.2C27.9,13.3,26.7,10.9,26.7,10.9z"/><path fill="#A9886F" d="M26.8,10.9c0,0,3.7-3.2,5-3.2c0.4,0,0.8,1.5,0.8,2.5c0,3.5-1.6,4.1-1.9,4.1C27.9,13.3,26.8,10.9,26.8,10.9z"/><path fill="#A8876E" d="M26.8,10.9c0,0,3.7-3.2,5-3.2c0.4,0,0.8,1.5,0.8,2.5c0,3.5-1.5,4.1-1.9,4.1C27.9,13.3,26.8,10.9,26.8,10.9z"/><path fill="#A7866D" d="M26.8,10.9c0,0,3.6-3.2,5-3.2c0.4,0,0.8,1.4,0.8,2.5c0,3.5-1.5,4.1-1.9,4.1C27.9,13.3,26.8,10.9,26.8,10.9z"/><path fill="#A6856C" d="M26.8,11c0,0,3.6-3.1,5-3.1c0.4,0,0.8,1.4,0.8,2.5c0,3.5-1.5,4.1-1.9,4.1C28,13.3,26.8,11,26.8,11z"/><path fill="#A6846B" d="M26.8,11c0,0,3.6-3.1,4.9-3.1c0.4,0,0.8,1.4,0.8,2.4c0,3.4-1.5,4-1.9,4C28,13.3,26.8,11,26.8,11z"/><path fill="#A5836A" d="M26.8,11c0,0,3.5-3.1,4.9-3.1c0.4,0,0.8,1.4,0.8,2.4c0,3.4-1.5,4-1.9,4C28,13.4,26.8,11,26.8,11z"/><path fill="#A48269" d="M26.9,11c0,0,3.5-3,4.9-3c0.4,0,0.7,1.4,0.7,2.4c0,3.4-1.5,4-1.9,4C28,13.4,26.9,11,26.9,11z"/><path fill="#A38168" d="M26.9,11.1c0,0,3.5-3,4.8-3c0.4,0,0.7,1.3,0.7,2.3c0,3.4-1.5,3.9-1.9,3.9C28,13.4,26.9,11.1,26.9,11.1z"/><path fill="#A38067" d="M26.9,11.1c0,0,3.4-3,4.8-3c0.4,0,0.7,1.3,0.7,2.3c0,3.3-1.5,3.9-1.8,3.9C28,13.4,26.9,11.1,26.9,11.1z"/><path fill="#A27F66" d="M26.9,11.1c0,0,3.4-2.9,4.8-2.9c0.4,0,0.7,1.3,0.7,2.3c0,3.3-1.5,3.9-1.8,3.9C28,13.4,26.9,11.1,26.9,11.1z"/><path fill="#A17F65" d="M26.9,11.2c0,0,3.3-2.9,4.7-2.9c0.4,0,0.7,1.3,0.7,2.3c0,3.3-1.5,3.8-1.8,3.8C28,13.4,26.9,11.2,26.9,11.2z"/><path fill="#A07E64" d="M26.9,11.2c0,0,3.3-2.9,4.7-2.9c0.4,0,0.7,1.3,0.7,2.2c0,3.2-1.5,3.8-1.8,3.8C28,13.4,26.9,11.2,26.9,11.2z"/><path fill="#A07D63" d="M27,11.2c0,0,3.3-2.8,4.7-2.8c0.4,0,0.7,1.2,0.7,2.2c0,3.2-1.4,3.8-1.8,3.8C28,13.4,27,11.2,27,11.2z"/><path fill="#9F7C62" d="M27,11.2c0,0,3.2-2.8,4.7-2.8c0.4,0,0.7,1.2,0.7,2.2c0,3.2-1.4,3.7-1.8,3.7C28.1,13.4,27,11.2,27,11.2z"/><path fill="#9E7B61" d="M27,11.3c0,0,3.2-2.8,4.6-2.8c0.4,0,0.7,1.2,0.7,2.2c0,3.2-1.4,3.7-1.8,3.7C28.1,13.4,27,11.3,27,11.3z"/><linearGradient id="4AZCtBacH0JZ4KtMiHF3Nf" x1="-1846.912" x2="-1838.726" y1="44.616" y2="39.679" gradientTransform="rotate(180 -915 25)" gradientUnits="userSpaceOnUse"><stop offset="0" stop-color="#f57f17"/><stop offset=".294" stop-color="#f27d17"/><stop offset=".474" stop-color="#ea7816"/><stop offset=".623" stop-color="#dc7015"/><stop offset=".756" stop-color="#c76413"/><stop offset=".877" stop-color="#ad5411"/><stop offset=".989" stop-color="#8d410e"/><stop offset="1" stop-color="#893f0e"/></linearGradient><path fill="url(#4AZCtBacH0JZ4KtMiHF3Nf)" d="M19,8.5c0,0-6.7-6.5-8-6.5c-0.7,0-2,3.2-2,5.8c0,6.7,2.7,7.2,3.3,7.2C17,13.1,19,8.5,19,8.5z"/><g><path fill="#D8BFAC" d="M18.3,9.1c0,0-6-5.2-6.9-5.2c-0.5,0-1.1,2.7-1.1,4.2c0,5.3,2.1,6.2,2.7,6.2C16.7,12.8,18.3,9.1,18.3,9.1z"/><path fill="#D7BEAB" d="M18.3,9.2c0,0-6-5.2-6.9-5.2c-0.5,0-1.1,2.6-1.1,4.2c0,5.2,2.1,6.1,2.7,6.1C16.7,12.8,18.3,9.2,18.3,9.2z"/><path fill="#D6BDAA" d="M18.3,9.2c0,0-5.9-5.1-6.9-5.1c-0.5,0-1.1,2.6-1.1,4.2c0,5.2,2.1,6.1,2.6,6.1C16.7,12.8,18.3,9.2,18.3,9.2z"/><path fill="#D6BCA9" d="M18.3,9.2c0,0-5.9-5.1-6.8-5.1c-0.5,0-1.1,2.6-1.1,4.2c0,5.2,2.1,6.1,2.6,6.1C16.7,12.8,18.3,9.2,18.3,9.2z"/><path fill="#D5BBA8" d="M18.3,9.3c0,0-5.9-5.1-6.8-5.1c-0.5,0-1,2.6-1,4.1c0,5.2,2.1,6,2.6,6C16.7,12.8,18.3,9.3,18.3,9.3z"/><path fill="#D4BBA7" d="M18.2,9.3c0,0-5.8-5-6.8-5c-0.5,0-1,2.6-1,4.1c0,5.1,2.1,6,2.6,6C16.7,12.9,18.2,9.3,18.2,9.3z"/><path fill="#D3BAA6" d="M18.2,9.3c0,0-5.8-5-6.8-5c-0.5,0-1,2.5-1,4.1c0,5.1,2.1,6,2.6,6C16.7,12.9,18.2,9.3,18.2,9.3z"/><path fill="#D3B9A5" d="M18.2,9.3c0,0-5.7-5-6.7-5c-0.5,0-1,2.5-1,4c0,5.1,2.1,5.9,2.6,5.9C16.7,12.9,18.2,9.3,18.2,9.3z"/><path fill="#D2B8A4" d="M18.2,9.4c0,0-5.7-4.9-6.7-4.9c-0.5,0-1,2.5-1,4c0,5,2.1,5.9,2.6,5.9C16.6,12.9,18.2,9.4,18.2,9.4z"/><path fill="#D1B7A3" d="M18.2,9.4c0,0-5.7-4.9-6.7-4.9c-0.5,0-1,2.5-1,4c0,5,2,5.9,2.6,5.9C16.6,12.9,18.2,9.4,18.2,9.4z"/><path fill="#D0B6A2" d="M18.2,9.4c0,0-5.6-4.9-6.6-4.9c-0.5,0-1,2.5-1,4c0,5,2,5.8,2.5,5.8C16.6,12.9,18.2,9.4,18.2,9.4z"/><path fill="#D0B5A1" d="M18.1,9.5c0,0-5.6-4.8-6.6-4.8c-0.5,0-1,2.4-1,3.9c0,5,2,5.8,2.5,5.8C16.6,12.9,18.1,9.5,18.1,9.5z"/><path fill="#CFB4A0" d="M18.1,9.5c0,0-5.6-4.8-6.6-4.8c-0.5,0-1,2.4-1,3.9c0,4.9,2,5.8,2.5,5.8C16.6,12.9,18.1,9.5,18.1,9.5z"/><path fill="#CEB39F" d="M18.1,9.5c0,0-5.5-4.8-6.5-4.8c-0.5,0-1,2.4-1,3.9c0,4.9,2,5.7,2.5,5.7C16.6,12.9,18.1,9.5,18.1,9.5z"/><path fill="#CDB29E" d="M18.1,9.5c0,0-5.5-4.8-6.5-4.8c-0.5,0-1,2.4-1,3.9c0,4.9,2,5.7,2.5,5.7C16.6,12.9,18.1,9.5,18.1,9.5z"/><path fill="#CDB29D" d="M18.1,9.6c0,0-5.4-4.7-6.5-4.7c-0.5,0-1,2.4-1,3.8c0,4.8,2,5.7,2.5,5.7C16.6,12.9,18.1,9.6,18.1,9.6z"/><path fill="#CCB19C" d="M18.1,9.6c0,0-5.4-4.7-6.4-4.7c-0.5,0-1,2.4-1,3.8c0,4.8,2,5.6,2.5,5.6C16.6,12.9,18.1,9.6,18.1,9.6z"/><path fill="#CBB09B" d="M18,9.6c0,0-5.4-4.7-6.4-4.7c-0.5,0-1,2.3-1,3.8c0,4.8,2,5.6,2.5,5.6C16.6,12.9,18,9.6,18,9.6z"/><path fill="#CAAF9A" d="M18,9.7c0,0-5.3-4.6-6.4-4.6c-0.5,0-1,2.3-1,3.7c0,4.8,2,5.6,2.5,5.6C16.5,13,18,9.7,18,9.7z"/><path fill="#C9AE99" d="M18,9.7c0,0-5.3-4.6-6.4-4.6c-0.5,0-1,2.3-1,3.7c0,4.7,2,5.5,2.4,5.5C16.5,13,18,9.7,18,9.7z"/><path fill="#C9AD98" d="M18,9.7c0,0-5.3-4.6-6.3-4.6c-0.5,0-1,2.3-1,3.7c0,4.7,1.9,5.5,2.4,5.5C16.5,13,18,9.7,18,9.7z"/><path fill="#C8AC97" d="M18,9.7c0,0-5.2-4.5-6.3-4.5c-0.5,0-1,2.3-1,3.7c0,4.7,1.9,5.5,2.4,5.5C16.5,13,18,9.7,18,9.7z"/><path fill="#C7AB96" d="M17.9,9.8c0,0-5.2-4.5-6.3-4.5c-0.5,0-1,2.2-1,3.6c0,4.7,1.9,5.4,2.4,5.4C16.5,13,17.9,9.8,17.9,9.8z"/><path fill="#C6AA95" d="M17.9,9.8c0,0-5.2-4.5-6.2-4.5c-0.5,0-1,2.2-1,3.6c0,4.6,1.9,5.4,2.4,5.4C16.5,13,17.9,9.8,17.9,9.8z"/><path fill="#C6AA94" d="M17.9,9.8c0,0-5.1-4.4-6.2-4.4c-0.5,0-1,2.2-1,3.6c0,4.6,1.9,5.4,2.4,5.4C16.5,13,17.9,9.8,17.9,9.8z"/><path fill="#C5A993" d="M17.9,9.8c0,0-5.1-4.4-6.2-4.4c-0.5,0-0.9,2.2-0.9,3.6c0,4.6,1.9,5.3,2.4,5.3C16.5,13,17.9,9.8,17.9,9.8z"/><path fill="#C4A892" d="M17.9,9.9c0,0-5-4.4-6.1-4.4c-0.5,0-0.9,2.2-0.9,3.5c0,4.5,1.9,5.3,2.4,5.3C16.5,13,17.9,9.9,17.9,9.9z"/><path fill="#C3A791" d="M17.9,9.9c0,0-5-4.3-6.1-4.3c-0.5,0-0.9,2.1-0.9,3.5c0,4.5,1.9,5.3,2.4,5.3C16.4,13,17.9,9.9,17.9,9.9z"/><path fill="#C3A690" d="M17.8,9.9c0,0-5-4.3-6.1-4.3c-0.5,0-0.9,2.1-0.9,3.5c0,4.5,1.9,5.3,2.3,5.3C16.4,13,17.8,9.9,17.8,9.9z"/><path fill="#C2A58F" d="M17.8,10c0,0-4.9-4.3-6.1-4.3c-0.5,0-0.9,2.1-0.9,3.4c0,4.5,1.9,5.2,2.3,5.2C16.4,13,17.8,10,17.8,10z"/><path fill="#C1A48E" d="M17.8,10c0,0-4.9-4.2-6-4.2c-0.5,0-0.9,2.1-0.9,3.4c0,4.4,1.9,5.2,2.3,5.2C16.4,13.1,17.8,10,17.8,10z"/><path fill="#C0A38D" d="M17.8,10c0,0-4.9-4.2-6-4.2c-0.5,0-0.9,2.1-0.9,3.4c0,4.4,1.8,5.2,2.3,5.2C16.4,13.1,17.8,10,17.8,10z"/><path fill="#C0A28C" d="M17.8,10c0,0-4.8-4.2-6-4.2c-0.5,0-0.9,2-0.9,3.4c0,4.4,1.8,5.1,2.3,5.1C16.4,13.1,17.8,10,17.8,10z"/><path fill="#BFA18B" d="M17.8,10.1c0,0-4.8-4.1-5.9-4.1C11.4,6,11,8,11,9.3c0,4.3,1.8,5.1,2.3,5.1C16.4,13.1,17.8,10.1,17.8,10.1z"/><path fill="#BEA18A" d="M17.7,10.1c0,0-4.7-4.1-5.9-4.1c-0.5,0-0.9,2-0.9,3.3c0,4.3,1.8,5.1,2.3,5.1C16.4,13.1,17.7,10.1,17.7,10.1 z"/><path fill="#BDA089" d="M17.7,10.1c0,0-4.7-4.1-5.9-4.1c-0.5,0-0.9,2-0.9,3.3c0,4.3,1.8,5,2.3,5C16.4,13.1,17.7,10.1,17.7,10.1z"/><path fill="#BD9F88" d="M17.7,10.2c0,0-4.7-4-5.8-4c-0.4,0-0.9,2-0.9,3.3c0,4.3,1.8,5,2.2,5C16.4,13.1,17.7,10.2,17.7,10.2z"/><path fill="#BC9E87" d="M17.7,10.2c0,0-4.6-4-5.8-4c-0.4,0-0.9,2-0.9,3.2c0,4.2,1.8,5,2.2,5C16.3,13.1,17.7,10.2,17.7,10.2z"/><path fill="#BB9D86" d="M17.7,10.2c0,0-4.6-4-5.8-4c-0.4,0-0.9,1.9-0.9,3.2c0,4.2,1.8,4.9,2.2,4.9C16.3,13.1,17.7,10.2,17.7,10.2z"/><path fill="#BA9C86" d="M17.6,10.2c0,0-4.6-4-5.7-4c-0.4,0-0.9,1.9-0.9,3.2c0,4.2,1.8,4.9,2.2,4.9C16.3,13.1,17.6,10.2,17.6,10.2z"/><path fill="#B99B85" d="M17.6,10.3c0,0-4.5-3.9-5.7-3.9c-0.4,0-0.9,1.9-0.9,3.1c0,4.2,1.8,4.9,2.2,4.9 C16.3,13.1,17.6,10.3,17.6,10.3z"/><path fill="#B99A84" d="M17.6,10.3c0,0-4.5-3.9-5.7-3.9c-0.4,0-0.9,1.9-0.9,3.1c0,4.1,1.7,4.8,2.2,4.8 C16.3,13.1,17.6,10.3,17.6,10.3z"/><path fill="#B89983" d="M17.6,10.3c0,0-4.5-3.9-5.7-3.9c-0.4,0-0.9,1.9-0.9,3.1c0,4.1,1.7,4.8,2.2,4.8 C16.3,13.2,17.6,10.3,17.6,10.3z"/><path fill="#B79982" d="M17.6,10.4c0,0-4.4-3.8-5.6-3.8c-0.4,0-0.9,1.8-0.9,3.1c0,4.1,1.7,4.8,2.2,4.8 C16.3,13.2,17.6,10.4,17.6,10.4z"/><path fill="#B69881" d="M17.6,10.4c0,0-4.4-3.8-5.6-3.8c-0.4,0-0.9,1.8-0.9,3c0,4,1.7,4.7,2.2,4.7C16.3,13.2,17.6,10.4,17.6,10.4z"/><path fill="#B69780" d="M17.5,10.4c0,0-4.3-3.8-5.6-3.8c-0.4,0-0.9,1.8-0.9,3c0,4,1.7,4.7,2.1,4.7C16.3,13.2,17.5,10.4,17.5,10.4z"/><path fill="#B5967F" d="M17.5,10.4c0,0-4.3-3.7-5.5-3.7c-0.4,0-0.9,1.8-0.9,3c0,4,1.7,4.7,2.1,4.7C16.2,13.2,17.5,10.4,17.5,10.4z"/><path fill="#B4957E" d="M17.5,10.5c0,0-4.3-3.7-5.5-3.7c-0.4,0-0.8,1.8-0.8,3c0,4,1.7,4.6,2.1,4.6C16.2,13.2,17.5,10.5,17.5,10.5z"/><path fill="#B3947D" d="M17.5,10.5c0,0-4.2-3.7-5.5-3.7c-0.4,0-0.8,1.7-0.8,2.9c0,3.9,1.7,4.6,2.1,4.6 C16.2,13.2,17.5,10.5,17.5,10.5z"/><path fill="#B3937C" d="M17.5,10.5c0,0-4.2-3.6-5.4-3.6c-0.4,0-0.8,1.7-0.8,2.9c0,3.9,1.7,4.6,2.1,4.6 C16.2,13.2,17.5,10.5,17.5,10.5z"/><path fill="#B2927B" d="M17.5,10.5c0,0-4.2-3.6-5.4-3.6c-0.4,0-0.8,1.7-0.8,2.9c0,3.9,1.7,4.5,2.1,4.5 C16.2,13.2,17.5,10.5,17.5,10.5z"/><path fill="#B1917A" d="M17.4,10.6c0,0-4.1-3.6-5.4-3.6c-0.4,0-0.8,1.7-0.8,2.8c0,3.8,1.7,4.5,2.1,4.5 C16.2,13.2,17.4,10.6,17.4,10.6z"/><path fill="#B09079" d="M17.4,10.6c0,0-4.1-3.5-5.4-3.5c-0.4,0-0.8,1.7-0.8,2.8c0,3.8,1.6,4.5,2.1,4.5 C16.2,13.2,17.4,10.6,17.4,10.6z"/><path fill="#B09078" d="M17.4,10.6c0,0-4-3.5-5.3-3.5c-0.4,0-0.8,1.6-0.8,2.8c0,3.8,1.6,4.4,2,4.4C16.2,13.2,17.4,10.6,17.4,10.6z"/><path fill="#AF8F77" d="M17.4,10.7c0,0-4-3.5-5.3-3.5c-0.4,0-0.8,1.6-0.8,2.8c0,3.8,1.6,4.4,2,4.4C16.2,13.2,17.4,10.7,17.4,10.7z"/><path fill="#AE8E76" d="M17.4,10.7c0,0-4-3.4-5.3-3.4c-0.4,0-0.8,1.6-0.8,2.7c0,3.7,1.6,4.4,2,4.4C16.2,13.3,17.4,10.7,17.4,10.7z"/><path fill="#AD8D75" d="M17.4,10.7c0,0-3.9-3.4-5.2-3.4c-0.4,0-0.8,1.6-0.8,2.7c0,3.7,1.6,4.3,2,4.3C16.1,13.3,17.4,10.7,17.4,10.7 z"/><path fill="#AD8C74" d="M17.3,10.7c0,0-3.9-3.4-5.2-3.4c-0.4,0-0.8,1.6-0.8,2.7c0,3.7,1.6,4.3,2,4.3C16.1,13.3,17.3,10.7,17.3,10.7 z"/><path fill="#AC8B73" d="M17.3,10.8c0,0-3.9-3.3-5.2-3.3c-0.4,0-0.8,1.6-0.8,2.6c0,3.7,1.6,4.3,2,4.3C16.1,13.3,17.3,10.8,17.3,10.8 z"/><path fill="#AB8A72" d="M17.3,10.8c0,0-3.8-3.3-5.1-3.3c-0.4,0-0.8,1.5-0.8,2.6c0,3.6,1.6,4.2,2,4.2C16.1,13.3,17.3,10.8,17.3,10.8 z"/><path fill="#AA8971" d="M17.3,10.8c0,0-3.8-3.3-5.1-3.3c-0.4,0-0.8,1.5-0.8,2.6c0,3.6,1.6,4.2,2,4.2C16.1,13.3,17.3,10.8,17.3,10.8 z"/><path fill="#A98870" d="M17.3,10.9c0,0-3.8-3.3-5.1-3.3c-0.4,0-0.8,1.5-0.8,2.6c0,3.6,1.6,4.2,2,4.2C16.1,13.3,17.3,10.9,17.3,10.9 z"/><path fill="#A9886F" d="M17.2,10.9c0,0-3.7-3.2-5-3.2c-0.4,0-0.8,1.5-0.8,2.5c0,3.5,1.6,4.1,1.9,4.1C16.1,13.3,17.2,10.9,17.2,10.9 z"/><path fill="#A8876E" d="M17.2,10.9c0,0-3.7-3.2-5-3.2c-0.4,0-0.8,1.5-0.8,2.5c0,3.5,1.5,4.1,1.9,4.1C16.1,13.3,17.2,10.9,17.2,10.9 z"/><path fill="#A7866D" d="M17.2,10.9c0,0-3.6-3.2-5-3.2c-0.4,0-0.8,1.4-0.8,2.5c0,3.5,1.5,4.1,1.9,4.1C16.1,13.3,17.2,10.9,17.2,10.9 z"/><path fill="#A6856C" d="M17.2,11c0,0-3.6-3.1-5-3.1c-0.4,0-0.8,1.4-0.8,2.5c0,3.5,1.5,4.1,1.9,4.1C16,13.3,17.2,11,17.2,11z"/><path fill="#A6846B" d="M17.2,11c0,0-3.6-3.1-4.9-3.1c-0.4,0-0.8,1.4-0.8,2.4c0,3.4,1.5,4,1.9,4C16,13.3,17.2,11,17.2,11z"/><path fill="#A5836A" d="M17.2,11c0,0-3.5-3.1-4.9-3.1c-0.4,0-0.8,1.4-0.8,2.4c0,3.4,1.5,4,1.9,4C16,13.4,17.2,11,17.2,11z"/><path fill="#A48269" d="M17.1,11c0,0-3.5-3-4.9-3c-0.4,0-0.7,1.4-0.7,2.4c0,3.4,1.5,4,1.9,4C16,13.4,17.1,11,17.1,11z"/><path fill="#A38168" d="M17.1,11.1c0,0-3.5-3-4.8-3c-0.4,0-0.7,1.3-0.7,2.3c0,3.4,1.5,3.9,1.9,3.9C16,13.4,17.1,11.1,17.1,11.1z"/><path fill="#A38067" d="M17.1,11.1c0,0-3.4-3-4.8-3c-0.4,0-0.7,1.3-0.7,2.3c0,3.3,1.5,3.9,1.8,3.9C16,13.4,17.1,11.1,17.1,11.1z"/><path fill="#A27F66" d="M17.1,11.1c0,0-3.4-2.9-4.8-2.9c-0.4,0-0.7,1.3-0.7,2.3c0,3.3,1.5,3.9,1.8,3.9C16,13.4,17.1,11.1,17.1,11.1 z"/><path fill="#A17F65" d="M17.1,11.2c0,0-3.3-2.9-4.7-2.9c-0.4,0-0.7,1.3-0.7,2.3c0,3.3,1.5,3.8,1.8,3.8C16,13.4,17.1,11.2,17.1,11.2 z"/><path fill="#A07E64" d="M17.1,11.2c0,0-3.3-2.9-4.7-2.9c-0.4,0-0.7,1.3-0.7,2.2c0,3.2,1.5,3.8,1.8,3.8C16,13.4,17.1,11.2,17.1,11.2 z"/><path fill="#A07D63" d="M17,11.2c0,0-3.3-2.8-4.7-2.8c-0.4,0-0.7,1.2-0.7,2.2c0,3.2,1.4,3.8,1.8,3.8C16,13.4,17,11.2,17,11.2z"/><path fill="#9F7C62" d="M17,11.2c0,0-3.2-2.8-4.7-2.8c-0.4,0-0.7,1.2-0.7,2.2c0,3.2,1.4,3.7,1.8,3.7C15.9,13.4,17,11.2,17,11.2z"/><path fill="#9E7B61" d="M17,11.3c0,0-3.2-2.8-4.6-2.8c-0.4,0-0.7,1.2-0.7,2.2c0,3.2,1.4,3.7,1.8,3.7C15.9,13.4,17,11.3,17,11.3z"/></g><radialGradient id="4AZCtBacH0JZ4KtMiHF3Ng" cx="12.218" cy="269.125" r="6.358" gradientTransform="matrix(1.0111 -.00055 -.00095 -1.7126 10.429 480.793)" gradientUnits="userSpaceOnUse"><stop offset="0" stop-color="#ffbb78" stop-opacity="0"/><stop offset=".288" stop-color="#feb874" stop-opacity=".288"/><stop offset=".556" stop-color="#faad69" stop-opacity=".556"/><stop offset=".816" stop-color="#f39c56" stop-opacity=".816"/><stop offset="1" stop-color="#ec8b44"/></radialGradient><path fill="url(#4AZCtBacH0JZ4KtMiHF3Ng)" d="M21.1,9.5c0.3,0,0.7,2,0.7,4.1c0,1.3-0.4,4-0.7,4.8h2.8c-0.3-0.6-0.7-3.3-0.7-4.8	c0-2,0.4-4.1,0.7-4.1"/><g><radialGradient id="4AZCtBacH0JZ4KtMiHF3Nh" cx="9.614" cy="-40.55" r="13.355" gradientTransform="matrix(1.0142 0 0 -.8952 12.717 -17.655)" gradientUnits="userSpaceOnUse"><stop offset="0" stop-color="#ffb74d"/><stop offset=".471" stop-color="#ffb54b"/><stop offset=".662" stop-color="#fdae44"/><stop offset=".802" stop-color="#fba238"/><stop offset=".917" stop-color="#f89028"/><stop offset=".997" stop-color="#f57f17"/></radialGradient><path fill="url(#4AZCtBacH0JZ4KtMiHF3Nh)" d="M32.9,11.3c-1.4-1.3-2.1-2-5.5-4C26.6,6.9,25.3,6,22.5,6s-4.1,0.9-4.8,1.3c-3.5,2-4.2,2.7-5.5,4 S8,14.9,8,20.4C8.1,28.6,20.1,30,22.5,30s14.4-1.4,14.5-9.6C37,14.9,34.3,12.7,32.9,11.3z"/><radialGradient id="4AZCtBacH0JZ4KtMiHF3Ni" cx="9.463" cy="-59.434" r="13.526" gradientTransform="matrix(1.0144 0 0 -.8639 12.9 -31.849)" gradientUnits="userSpaceOnUse"><stop offset=".141" stop-color="#ffb74d" stop-opacity="0"/><stop offset=".351" stop-color="#feb148" stop-opacity=".244"/><stop offset=".619" stop-color="#fba238" stop-opacity=".556"/><stop offset=".917" stop-color="#f7881f" stop-opacity=".903"/><stop offset="1" stop-color="#f57f17"/></radialGradient><path fill="url(#4AZCtBacH0JZ4KtMiHF3Ni)" d="M32.9,11.3c-1.4-1.3-2.1-2-5.5-4C26.6,6.9,25.3,6,22.5,6s-4.1,0.9-4.8,1.3c-3.5,2-4.2,2.7-5.5,4 S8,14.9,8,20.4C8.1,28.6,20.1,30,22.5,30s14.4-1.4,14.5-9.6C37,14.9,34.3,12.7,32.9,11.3z M22.5,29.3c-5.5,0-13.2-4.4-13.2-8.2 c0-6.9,6.6-10.2,8.6-10.2c0.7,0,1.4,5.3,2,5s0.4-7,1-7c0.3,0,1,3,1,5c0,1.3-0.7,3.2-1,4h3c-0.3-0.6-1-2.6-1-4c0-2.1,0.7-5,1-5 c0.6,0,0.3,6.7,1,7c0.6,0.3,1.3-5,2-5c2.1,0,8.6,3.3,8.6,10.2C35.7,24.9,28,29.3,22.5,29.3z"/><radialGradient id="4AZCtBacH0JZ4KtMiHF3Nj" cx="18.145" cy="-46.477" r="3.92" gradientTransform="matrix(1.0142 0 0 -.8952 12.762 -17.18)" gradientUnits="userSpaceOnUse"><stop offset="0" stop-color="#ffc392"/><stop offset=".92" stop-color="#fcb16e" stop-opacity=".077"/><stop offset=".997" stop-color="#fcaf6b" stop-opacity="0"/></radialGradient><path fill="url(#4AZCtBacH0JZ4KtMiHF3Nj)" d="M32.9,11.3c-1.4-1.3-2.1-2-5.5-4C26.6,6.9,25.3,6,22.5,6s-4.1,0.9-4.8,1.3c-3.5,2-4.2,2.7-5.5,4 S8,14.9,8,20.4C8.1,28.6,20.1,30,22.5,30s14.4-1.4,14.5-9.6C37,14.9,34.3,12.7,32.9,11.3z"/><radialGradient id="4AZCtBacH0JZ4KtMiHF3Nk" cx="-1978.71" cy="-46.477" r="3.919" gradientTransform="matrix(-1.0144 0 0 -.8952 -1993.35 -17.18)" gradientUnits="userSpaceOnUse"><stop offset="0" stop-color="#ffc392"/><stop offset=".92" stop-color="#fcb16e" stop-opacity=".077"/><stop offset=".997" stop-color="#fcaf6b" stop-opacity="0"/></radialGradient><path fill="url(#4AZCtBacH0JZ4KtMiHF3Nk)" d="M12.1,11.3c1.4-1.3,2.1-2,5.5-4C18.4,6.9,19.7,6,22.5,6s4.1,0.9,4.8,1.3c3.5,2,4.2,2.7,5.5,4 c1.4,1.3,4.2,3.6,4.1,9c0,8.3-12,9.7-14.4,9.7S8.1,28.6,8,20.4C8,14.9,10.7,12.7,12.1,11.3z"/></g><radialGradient id="4AZCtBacH0JZ4KtMiHF3Nl" cx="-596.66" cy="130.303" r="2.534" gradientTransform="matrix(1.4515 -.4569 -.867 -1.3817 1007.106 -74.61)" gradientUnits="userSpaceOnUse"><stop offset="0" stop-color="#ffdcc2"/><stop offset=".208" stop-color="#ffd7b8" stop-opacity=".791"/><stop offset=".567" stop-color="#feca9c" stop-opacity=".431"/><stop offset=".997" stop-color="#fdb672" stop-opacity="0"/></radialGradient><path fill="url(#4AZCtBacH0JZ4KtMiHF3Nl)" d="M23.9,19.6c0,0,4.1-1.9,8.3-1.2c0-0.7-2.8-4.1-4.7-4.1C26,14.3,24,16,24,18.1	C23.9,19.5,23.9,19.6,23.9,19.6z"/><radialGradient id="4AZCtBacH0JZ4KtMiHF3Nm" cx="-1776.151" cy="425.238" r="2.534" gradientTransform="matrix(-1.4509 -.4569 .8666 -1.3817 -2928.6 -206.005)" gradientUnits="userSpaceOnUse"><stop offset="0" stop-color="#ffdcc2"/><stop offset=".208" stop-color="#ffd7b8" stop-opacity=".791"/><stop offset=".567" stop-color="#feca9c" stop-opacity=".431"/><stop offset=".997" stop-color="#fdb672" stop-opacity="0"/></radialGradient><path fill="url(#4AZCtBacH0JZ4KtMiHF3Nm)" d="M21.1,19.6c0,0-3.4-2.6-8.3-1.2c0-0.7,2.8-4.1,4.7-4.1c1.5,0,3.5,1.7,3.5,3.8	C21.1,19.5,21.1,19.6,21.1,19.6z"/><radialGradient id="4AZCtBacH0JZ4KtMiHF3Nn" cx="-1861.79" cy="18.012" r="5.447" gradientTransform="matrix(-1.087 0 0 -.9889 -2009.624 41.335)" gradientUnits="userSpaceOnUse"><stop offset=".659" stop-color="#ffbb78" stop-opacity="0"/><stop offset=".88" stop-color="#f89235" stop-opacity=".655"/><stop offset=".997" stop-color="#f57f17"/></radialGradient><path fill="url(#4AZCtBacH0JZ4KtMiHF3Nn)" d="M20.5,21c0-0.4,0-1,0-1.3c0-1.7-1.1-2.7-2.8-2.7c-3.7,0-6.2,2.7-6.2,2.7c0,4.7,6,5.3,6,5.3	S20.5,23.8,20.5,21z"/><radialGradient id="4AZCtBacH0JZ4KtMiHF3No" cx="18.76" cy="18.012" r="5.447" gradientTransform="matrix(1.087 0 0 -.9889 10.446 41.335)" gradientUnits="userSpaceOnUse"><stop offset=".659" stop-color="#ffbb78" stop-opacity="0"/><stop offset=".88" stop-color="#f89235" stop-opacity=".655"/><stop offset=".997" stop-color="#f57f17"/></radialGradient><path fill="url(#4AZCtBacH0JZ4KtMiHF3No)" d="M27.8,25c0,0,5.7-0.6,5.7-5.3c0,0-2.5-2.7-6.2-2.7c-1.7,0-2.8,1-2.8,2.7c0,0.3,0,0.8,0,1.2	C24.5,23.8,27.8,25,27.8,25z"/><g><path fill="#310A03" d="M20.1,19.1C19.7,18.5,19,18,17.9,18h-1.5c-0.4,0-0.8,0.3-0.8,0.7v0.7c0,1.1,0.9,2.2,2.3,2.2h1.7 c0.3,0,0.6-0.2,0.7-0.6C20.5,20.6,20.6,19.8,20.1,19.1z"/><radialGradient id="4AZCtBacH0JZ4KtMiHF3Np" cx="17.918" cy="30.141" r="2.067" gradientTransform="matrix(1 0 0 -1 0 50)" gradientUnits="userSpaceOnUse"><stop offset="0" stop-color="#dce775"/><stop offset=".019" stop-color="#d8e473"/><stop offset=".325" stop-color="#9cbf53"/><stop offset=".55" stop-color="#76a83f"/><stop offset=".668" stop-color="#689f38"/><stop offset=".714" stop-color="#669a36"/><stop offset=".77" stop-color="#608b31"/><stop offset=".832" stop-color="#577228"/><stop offset=".898" stop-color="#4a4f1b"/><stop offset=".967" stop-color="#3a220c"/><stop offset="1" stop-color="#310a03"/></radialGradient><path fill="url(#4AZCtBacH0JZ4KtMiHF3Np)" d="M20.2,19.5c0,0.5-0.2,1-0.5,1.4c-0.4,0.5-1.1,0.9-1.8,0.9c-1.2,0-2.3-1-2.3-2.2 c0-0.5,0.1-0.9,0.4-1.2c0.1-0.1,0.1-0.2,0.2-0.2s0.2,0,0.2,0h1.5c1.1,0,1.8,0.5,2.2,1.1l0,0C20.2,19.2,20.2,19.4,20.2,19.5z"/><path fill="#160604" d="M18.3,18.8c-0.2,0.8-0.7,1.4-0.7,1.4s-0.2-0.7-0.1-1.5c0.1-0.3,0.1-0.5,0.2-0.7h0.1c0.1,0,0.3,0,0.4,0 C18.3,18.3,18.3,18.5,18.3,18.8z"/><ellipse cx="17.5" cy="18.7" fill="#FFF" rx=".4" ry=".4"/></g><g><circle cx="22.5" cy="26.5" r="3.5" fill="#FFF3E0"/><radialGradient id="4AZCtBacH0JZ4KtMiHF3Nq" cx="292.469" cy="-188.334" r="4.5" gradientTransform="matrix(.7778 0 0 -.7778 -204.983 -119.986)" gradientUnits="userSpaceOnUse"><stop offset=".66" stop-color="#fff8e1" stop-opacity="0"/><stop offset=".83" stop-color="#fcddb7" stop-opacity=".5"/><stop offset="1" stop-color="#f8bf89"/></radialGradient><circle cx="22.5" cy="26.5" r="3.5" fill="url(#4AZCtBacH0JZ4KtMiHF3Nq)"/><radialGradient id="4AZCtBacH0JZ4KtMiHF3Nr" cx="292.469" cy="-188.334" r="4.5" gradientTransform="matrix(.7778 0 0 -.7778 -204.983 -119.986)" gradientUnits="userSpaceOnUse"><stop offset="0" stop-color="#f8bf89"/><stop offset=".123" stop-color="#f8c28e" stop-opacity=".804"/><stop offset=".266" stop-color="#faca9c" stop-opacity=".578"/><stop offset=".417" stop-color="#fbd8b3" stop-opacity=".337"/><stop offset=".574" stop-color="#feebd3" stop-opacity=".088"/><stop offset=".629" stop-color="#fff3e0" stop-opacity="0"/></radialGradient><circle cx="22.5" cy="26.5" r="3.5" fill="url(#4AZCtBacH0JZ4KtMiHF3Nr)"/></g><radialGradient id="4AZCtBacH0JZ4KtMiHF3Ns" cx="22.558" cy="28.412" r="5.885" gradientTransform="matrix(1 0 0 -1 0 50)" gradientUnits="userSpaceOnUse"><stop offset=".52" stop-color="#f57f16"/><stop offset=".544" stop-color="#f6851d"/><stop offset=".678" stop-color="#fba243"/><stop offset=".782" stop-color="#fdc180"/><stop offset=".883" stop-color="#fedcb4"/><stop offset=".958" stop-color="#ffedd4"/><stop offset="1" stop-color="#fff3e0"/></radialGradient><path fill="url(#4AZCtBacH0JZ4KtMiHF3Ns)" d="M24.5,20c-0.6,0-3.4,0-4,0c0,4.2-3.5,4.2-3.5,6.2c0,1.4,1,2.8,2.7,2.8c1.1,0,2.8-1.2,2.8-1.8	c0,0.6,1.7,1.8,2.8,1.8c1.7,0,2.7-1.4,2.7-2.8C28,24.2,24.5,24.2,24.5,20z"/><linearGradient id="4AZCtBacH0JZ4KtMiHF3Nt" x1="21.962" x2="18.073" y1="25.634" y2="21.745" gradientTransform="matrix(1 0 0 -1 0 50)" gradientUnits="userSpaceOnUse"><stop offset=".438" stop-color="#fff3e0" stop-opacity="0"/><stop offset=".541" stop-color="#feeed8" stop-opacity=".183"/><stop offset=".699" stop-color="#fde1c3" stop-opacity=".465"/><stop offset=".892" stop-color="#facda0" stop-opacity=".807"/><stop offset="1" stop-color="#f8bf89"/></linearGradient><path fill="url(#4AZCtBacH0JZ4KtMiHF3Nt)" d="M17.7,24.9c-0.4,0.4-0.7,0.8-0.7,1.4c0,1.4,1,2.8,2.7,2.8c1.1,0,2.8-1.2,2.8-1.8	C22.5,27.2,18.3,24.3,17.7,24.9z"/><linearGradient id="4AZCtBacH0JZ4KtMiHF3Nu" x1="-2009.038" x2="-2012.927" y1="25.634" y2="21.745" gradientTransform="rotate(180 -993 25)" gradientUnits="userSpaceOnUse"><stop offset=".438" stop-color="#fff3e0" stop-opacity="0"/><stop offset=".541" stop-color="#feeed8" stop-opacity=".183"/><stop offset=".699" stop-color="#fde1c3" stop-opacity=".465"/><stop offset=".892" stop-color="#facda0" stop-opacity=".807"/><stop offset="1" stop-color="#f8bf89"/></linearGradient><path fill="url(#4AZCtBacH0JZ4KtMiHF3Nu)" d="M27.3,24.9c0.4,0.4,0.7,0.8,0.7,1.4c0,1.4-1,2.8-2.7,2.8c-1.1,0-2.8-1.2-2.8-1.8	C22.5,27.2,26.7,24.3,27.3,24.9z"/><path fill="#FFB74D" d="M24.5,17h-4c0,0,0,1.6,0,3c0,2-0.5,3.7-0.5,4.3h5c0-0.7-0.5-2.3-0.5-4.3C24.5,18.6,24.5,17,24.5,17z"/><linearGradient id="4AZCtBacH0JZ4KtMiHF3Nv" x1="-2006.843" x2="-2004.408" y1="27.538" y2="28.104" gradientTransform="rotate(180 -991 25)" gradientUnits="userSpaceOnUse"><stop offset=".003" stop-color="#f57f16"/><stop offset=".064" stop-color="#f68520" stop-opacity=".837"/><stop offset=".168" stop-color="#f8943a" stop-opacity=".561"/><stop offset=".301" stop-color="#fbac65" stop-opacity=".208"/><stop offset=".379" stop-color="#fdbc82" stop-opacity="0"/></linearGradient><path fill="url(#4AZCtBacH0JZ4KtMiHF3Nv)" d="M24.5,20c0,1.7,0.5,3.7,0.5,4.3h-2.5L24.5,20z"/><linearGradient id="4AZCtBacH0JZ4KtMiHF3Nw" x1="-119.343" x2="-116.908" y1="27.538" y2="28.104" gradientTransform="matrix(1 0 0 -1 139.5 50)" gradientUnits="userSpaceOnUse"><stop offset=".003" stop-color="#f57f16"/><stop offset=".064" stop-color="#f68520" stop-opacity=".837"/><stop offset=".168" stop-color="#f8943a" stop-opacity=".561"/><stop offset=".301" stop-color="#fbac65" stop-opacity=".208"/><stop offset=".379" stop-color="#fdbc82" stop-opacity="0"/></linearGradient><path fill="url(#4AZCtBacH0JZ4KtMiHF3Nw)" d="M20.5,20c0,1.7-0.5,3.7-0.5,4.3h2.5L20.5,20z"/><g><radialGradient id="4AZCtBacH0JZ4KtMiHF3Nx" cx="85.674" cy="362.976" r="1.267" gradientTransform="matrix(.9377 0 0 -2.4489 -57.822 916.118)" gradientUnits="userSpaceOnUse"><stop offset="0" stop-color="#8a4723"/><stop offset=".325" stop-color="#8d4a26"/><stop offset=".578" stop-color="#96542e"/><stop offset=".807" stop-color="#a4643c"/><stop offset="1" stop-color="#b7794d"/></radialGradient><path fill="url(#4AZCtBacH0JZ4KtMiHF3Nx)" d="M20,24.3c0,1.2,1.4,1.8,1.8,2.4c0.1,0.2,0.3,0.3,0.5,0.3h0.4c0.2,0,0.4-0.1,0.5-0.3 c0.4-0.6,1.8-1.2,1.8-2.4C25,23,20,23,20,24.3z"/><radialGradient id="4AZCtBacH0JZ4KtMiHF3Ny" cx="85.638" cy="39.582" r="2.513" gradientTransform="matrix(.9377 0 0 -1.0247 -57.822 64.838)" gradientUnits="userSpaceOnUse"><stop offset="0" stop-color="#bc9475" stop-opacity="0"/><stop offset=".23" stop-color="#ba9172" stop-opacity=".255"/><stop offset=".421" stop-color="#b48767" stop-opacity=".468"/><stop offset=".6" stop-color="#a97756" stop-opacity=".665"/><stop offset=".769" stop-color="#9b603e" stop-opacity=".853"/><stop offset=".901" stop-color="#8c4925"/></radialGradient><path fill="url(#4AZCtBacH0JZ4KtMiHF3Ny)" d="M20,24.3c0,1.2,1.4,1.8,1.8,2.4c0.1,0.2,0.3,0.3,0.5,0.3h0.4c0.2,0,0.4-0.1,0.5-0.3 c0.4-0.6,1.8-1.2,1.8-2.4C25,23,20,23,20,24.3z"/><path fill="#BC9475" d="M22.9,23h-0.7c0,0-2.1,0-2.1,1.3c0,0,0.6-0.7,2.5-0.7s2.5,0.7,2.5,0.7C25,23,22.9,23,22.9,23z"/><path fill="#310A03" d="M23.3,25.7c-0.3-0.3-0.3-0.9,0-1.2c0.3-0.3,0.8-0.3,1.1,0.1C24.7,24.9,23.6,26.1,23.3,25.7z"/><path fill="#310A03" d="M20.5,24.6c0.3-0.3,0.8-0.4,1.1-0.1s0.3,0.8,0,1.2C21.3,26.1,20.3,24.9,20.5,24.6z"/></g><g><linearGradient id="4AZCtBacH0JZ4KtMiHF3Nz" x1="18.265" x2="14.065" y1="23.524" y2="23.239" gradientTransform="matrix(1 0 0 -1 0 50)" gradientUnits="userSpaceOnUse"><stop offset="0" stop-color="#e4e0da" stop-opacity="0"/><stop offset=".288" stop-color="#d0bdb0" stop-opacity=".288"/><stop offset=".936" stop-color="#9d6645" stop-opacity=".936"/><stop offset="1" stop-color="#985d3a"/></linearGradient><path fill="url(#4AZCtBacH0JZ4KtMiHF3Nz)" d="M8.1,27l10.5-0.9c0.2,0,0.4,0.1,0.4,0.3c0,0.2-0.1,0.4-0.3,0.4l0,0L8.1,27.2C8,27.2,8,27.1,8.1,27 C8,27,8,27,8.1,27z"/><linearGradient id="4AZCtBacH0JZ4KtMiHF3NA" x1="18.402" x2="13.857" y1="22.895" y2="21.563" gradientTransform="matrix(1 0 0 -1 0 50)" gradientUnits="userSpaceOnUse"><stop offset="0" stop-color="#e4e0da" stop-opacity="0"/><stop offset=".288" stop-color="#d0bdb0" stop-opacity=".288"/><stop offset=".936" stop-color="#9d6645" stop-opacity=".936"/><stop offset="1" stop-color="#985d3a"/></linearGradient><path fill="url(#4AZCtBacH0JZ4KtMiHF3NA)" d="M9.5,29.8l9.1-3.1c0.2-0.1,0.4,0,0.5,0.2s0,0.4-0.2,0.4l0,0L9.5,30c-0.1,0-0.1,0-0.1-0.1 C9.4,29.9,9.4,29.8,9.5,29.8z"/><linearGradient id="4AZCtBacH0JZ4KtMiHF3NB" x1="18.599" x2="14.531" y1="24.2" y2="25.031" gradientTransform="matrix(1 0 0 -1 0 50)" gradientUnits="userSpaceOnUse"><stop offset="0" stop-color="#e4e0da" stop-opacity="0"/><stop offset=".288" stop-color="#d0bdb0" stop-opacity=".288"/><stop offset=".936" stop-color="#9d6645" stop-opacity=".936"/><stop offset="1" stop-color="#985d3a"/></linearGradient><path fill="url(#4AZCtBacH0JZ4KtMiHF3NB)" d="M8.3,24l10.3,1.3c0.2,0,0.3,0.2,0.3,0.4c0,0.2-0.2,0.3-0.4,0.3l0,0L8.3,24.2 c-0.1,0-0.1-0.1-0.1-0.1C8.2,24,8.3,24,8.3,24z"/><linearGradient id="4AZCtBacH0JZ4KtMiHF3NC" x1="-2171.891" x2="-2176.092" y1="23.524" y2="23.239" gradientTransform="rotate(180 -1072.578 25)" gradientUnits="userSpaceOnUse"><stop offset="0" stop-color="#e4e0da" stop-opacity="0"/><stop offset=".288" stop-color="#d0bdb0" stop-opacity=".288"/><stop offset=".936" stop-color="#9d6645" stop-opacity=".936"/><stop offset="1" stop-color="#985d3a"/></linearGradient><path fill="url(#4AZCtBacH0JZ4KtMiHF3NC)" d="M36.9,27l-10.5-0.9c-0.2,0-0.4,0.1-0.4,0.3s0.1,0.4,0.3,0.4l0,0l10.5,0.4C37,27.2,37,27.1,36.9,27 C37,27,37,27,36.9,27z"/><linearGradient id="4AZCtBacH0JZ4KtMiHF3ND" x1="-2171.755" x2="-2176.299" y1="22.895" y2="21.563" gradientTransform="rotate(180 -1072.578 25)" gradientUnits="userSpaceOnUse"><stop offset="0" stop-color="#e4e0da" stop-opacity="0"/><stop offset=".288" stop-color="#d0bdb0" stop-opacity=".288"/><stop offset=".936" stop-color="#9d6645" stop-opacity=".936"/><stop offset="1" stop-color="#985d3a"/></linearGradient><path fill="url(#4AZCtBacH0JZ4KtMiHF3ND)" d="M35.5,29.8l-9.1-3.1c-0.2-0.1-0.4,0-0.5,0.2s0,0.4,0.2,0.4l0,0l9.3,2.6 C35.5,29.9,35.5,29.9,35.5,29.8C35.6,29.9,35.6,29.8,35.5,29.8z"/><linearGradient id="4AZCtBacH0JZ4KtMiHF3NE" x1="-2171.558" x2="-2175.626" y1="24.2" y2="25.031" gradientTransform="rotate(180 -1072.578 25)" gradientUnits="userSpaceOnUse"><stop offset="0" stop-color="#e4e0da" stop-opacity="0"/><stop offset=".288" stop-color="#d0bdb0" stop-opacity=".288"/><stop offset=".936" stop-color="#9d6645" stop-opacity=".936"/><stop offset="1" stop-color="#985d3a"/></linearGradient><path fill="url(#4AZCtBacH0JZ4KtMiHF3NE)" d="M36.7,24l-10.3,1.3c-0.2,0-0.3,0.2-0.3,0.4c0,0.2,0.2,0.3,0.4,0.3l0,0l10.2-1.8 c0.1,0,0.1-0.1,0.1-0.1C36.8,24,36.7,24,36.7,24z"/></g><g><path fill="#310A03" d="M24.9,19.1c0.4-0.6,1.1-1.1,2.2-1.1h1.5c0.4,0,0.8,0.3,0.8,0.7v0.7c0,1.1-0.9,2.2-2.3,2.2h-1.7 c-0.3,0-0.6-0.2-0.7-0.6C24.5,20.6,24.4,19.8,24.9,19.1z"/><radialGradient id="4AZCtBacH0JZ4KtMiHF3NF" cx="-2014.585" cy="5.928" r="2.233" gradientTransform="matrix(-1.0108 0 0 -.9591 -2009.3 25.237)" gradientUnits="userSpaceOnUse"><stop offset="0" stop-color="#dce775"/><stop offset=".019" stop-color="#d8e473"/><stop offset=".325" stop-color="#9cbf53"/><stop offset=".55" stop-color="#76a83f"/><stop offset=".668" stop-color="#689f38"/><stop offset=".714" stop-color="#669a36"/><stop offset=".77" stop-color="#608b31"/><stop offset=".832" stop-color="#577228"/><stop offset=".898" stop-color="#4a4f1b"/><stop offset=".967" stop-color="#3a220c"/><stop offset="1" stop-color="#310a03"/></radialGradient><path fill="url(#4AZCtBacH0JZ4KtMiHF3NF)" d="M24.8,19.5c0,0.5,0.2,1,0.5,1.4c0.4,0.5,1.1,0.9,1.8,0.9c1.2,0,2.3-1,2.3-2.2 c0-0.5-0.1-0.9-0.4-1.2c-0.1-0.1-0.1-0.2-0.2-0.2s-0.2,0-0.2,0h-1.5c-1.1,0-1.8,0.5-2.2,1.1l0,0C24.8,19.2,24.8,19.4,24.8,19.5z"/><path fill="#160604" d="M26.7,18.8c0.2,0.8,0.7,1.4,0.7,1.4s0.2-0.7,0.1-1.5c-0.1-0.3-0.1-0.5-0.2-0.7h-0.1c-0.1,0-0.3,0-0.4,0 C26.6,18.3,26.7,18.5,26.7,18.8z"/><ellipse cx="26.7" cy="18.7" fill="#FFF" rx=".4" ry=".4"/></g></svg>