<svg xmlns="http://www.w3.org/2000/svg" viewBox="0 0 48 48"><radialGradient id="bF82WIh08vI8hsi4Ogyk_a" cx="20.071" cy="34.33" r="17.447" gradientTransform="matrix(.6511 -.759 .4381 .3759 -8.038 36.66)" gradientUnits="userSpaceOnUse"><stop offset="0" stop-color="#ffd1e1"/><stop offset=".366" stop-color="#ff79ab"/><stop offset=".554" stop-color="#ff5c96"/><stop offset=".761" stop-color="#ff4081"/></radialGradient><path fill="url(#bF82WIh08vI8hsi4Ogyk_a)" d="M27.071,6.185L27.07,6.2c-1.987-0.928-4.679-0.942-7.26,0.168 c-4.155,1.787-6.45,5.804-5.125,8.973s5.768,4.289,9.923,2.502c2.384-1.025,3.829-2.487,4.627-3.979 c1.697,0.723,3.52,2.206,3.52,5.268c0,3.267-2.015,4.84-5.877,7.563c-4.426,3.122-9.934,7.006-9.934,15.715h7.027 c0-4.822,2.643-6.93,6.956-9.972c3.945-2.782,8.855-6.244,8.855-13.306C39.783,9.593,31.467,6.492,27.071,6.185z"/><radialGradient id="bF82WIh08vI8hsi4Ogyk_b" cx="21.011" cy="10.783" r="8.55" gradientTransform="matrix(.9022 -.4313 .283 .592 -.997 13.462)" gradientUnits="userSpaceOnUse"><stop offset="0" stop-color="#ffb5ce"/><stop offset=".77" stop-color="#ff4081"/></radialGradient><path fill="url(#bF82WIh08vI8hsi4Ogyk_b)" d="M39.783,19.133c0-9.541-8.315-12.641-12.712-12.948L27.07,6.2 c-1.987-0.928-4.679-0.942-7.26,0.168c-4.155,1.787-6.45,5.804-5.125,8.973s5.768,4.289,9.923,2.502 c2.384-1.025,3.829-2.487,4.627-3.979c1.697,0.723,3.52,2.206,3.52,5.268H39.783z"/><circle cx="18.92" cy="13.643" r="2.754" fill="#fce4ec"/><path fill="#fce4ec" d="M19.579,15.18c0.473-0.473-1.647-2.745-2.196-2.196c-1.318,1.318-3.074,0.878-3.074,0.878 s-2.723,2.16-4.753,4.403c0.927,1.296,2.158,2.746,3.752,4.109c0.042-0.054,0.08-0.115,0.123-0.167 c2.196-2.635,6.588-3.514,6.588-3.514S18.262,16.498,19.579,15.18z"/><radialGradient id="bF82WIh08vI8hsi4Ogyk_c" cx="9.156" cy="22.42" r="3.532" gradientTransform="matrix(.5039 -.8638 .834 .4865 -14.155 19.42)" gradientUnits="userSpaceOnUse"><stop offset="0" stop-color="#5e5e5e"/><stop offset=".173" stop-color="#575757"/><stop offset=".431" stop-color="#424242"/><stop offset=".742" stop-color="#212121"/><stop offset="1"/></radialGradient><path fill="url(#bF82WIh08vI8hsi4Ogyk_c)" d="M9.556,18.266c-0.533,0.589-1.021,1.183-1.396,1.746c-1.164,1.746,0.372,5.614,1.54,8.025 c0.32,0.66,1.291,0.543,1.435-0.177c0.34-1.694,0.992-3.967,2.172-5.485C11.713,21.012,10.483,19.562,9.556,18.266z"/><radialGradient id="bF82WIh08vI8hsi4Ogyk_d" cx="18.89" cy="13.673" r="2.372" gradientTransform="matrix(.7708 -.6371 .5078 .6144 -2.614 17.308)" gradientUnits="userSpaceOnUse"><stop offset="0" stop-color="#fce4ec"/><stop offset=".4" stop-color="#e082a0" stop-opacity=".6"/></radialGradient><path fill="url(#bF82WIh08vI8hsi4Ogyk_d)" d="M20.746,12.138c0,0,0.968,1.89-0.406,3.077c-1.426,1.232-3.266,0.085-3.266,0.085 s-1.048-1.892,0.367-3.2C18.776,10.866,20.746,12.138,20.746,12.138z"/><radialGradient id="bF82WIh08vI8hsi4Ogyk_e" cx="18.886" cy="13.67" r="2.079" gradientTransform="matrix(.7708 -.6371 .5078 .6144 -2.612 17.305)" gradientUnits="userSpaceOnUse"><stop offset="0" stop-color="#fcbaeb"/><stop offset="1" stop-color="#e0e0e0" stop-opacity=".6"/></radialGradient><path fill="url(#bF82WIh08vI8hsi4Ogyk_e)" d="M20.559,12.297c0,0,0.785,1.686-0.41,2.718c-1.241,1.071-2.905,0.08-2.905,0.08 s-0.846-1.652,0.384-2.789C18.789,11.233,20.559,12.297,20.559,12.297z"/><radialGradient id="bF82WIh08vI8hsi4Ogyk_f" cx="18.882" cy="13.676" r="1.66" gradientUnits="userSpaceOnUse"><stop offset=".575" stop-color="#f08b11"/><stop offset=".746" stop-color="#943200"/><stop offset=".922"/></radialGradient><path fill="url(#bF82WIh08vI8hsi4Ogyk_f)" d="M20.395,12.429c0,0,0.626,1.515-0.413,2.412c-1.079,0.931-2.592,0.142-2.592,0.142 s-0.67-1.509,0.4-2.498C18.799,11.553,20.395,12.429,20.395,12.429z"/><circle cx="18.841" cy="13.639" r=".453"/><circle cx="18.125" cy="13.454" r=".418" fill="#fff"/></svg>