<svg xmlns="http://www.w3.org/2000/svg" viewBox="0 0 48 48"><radialGradient id="H~bh5RTH8MWR6nubm75USa" cx="32.864" cy="11.355" r="10.738" gradientTransform="matrix(1 0 0 .9951 0 .044)" gradientUnits="userSpaceOnUse"><stop offset="0" stop-color="#c77324"/><stop offset=".243" stop-color="#cc7828"/><stop offset=".526" stop-color="#d98635"/><stop offset=".828" stop-color="#ef9d4a"/><stop offset="1" stop-color="#ffae59"/></radialGradient><path fill="url(#H~bh5RTH8MWR6nubm75USa)" d="M31,11.105c0-0.678,1.991,0.018,3.174-0.964C35.641,8.924,35.886,7,38.221,7	C41.245,7,42,10.222,42,11.913C42,17.296,37.885,20,35.814,20C33.989,20,33.558,11.692,31,11.105z"/><radialGradient id="H~bh5RTH8MWR6nubm75USb" cx="34.294" cy="13.048" r="7.7" gradientTransform="matrix(1 0 0 .9951 0 .044)" gradientUnits="userSpaceOnUse"><stop offset="0" stop-color="#9e5936"/><stop offset=".17" stop-color="#a05c3a"/><stop offset=".334" stop-color="#a86645"/><stop offset=".494" stop-color="#b47559"/><stop offset=".652" stop-color="#c68c74"/><stop offset=".809" stop-color="#dda897"/><stop offset=".964" stop-color="#f8cbc1"/><stop offset="1" stop-color="#ffd4cc"/></radialGradient><path fill="url(#H~bh5RTH8MWR6nubm75USb)" d="M32.375,13.157c0-0.571,1.788-0.542,2.75-1.368c1.192-1.025,2.062-3.421,3.117-3.421	c2.457,0,3.071,2.713,3.071,4.138c0,4.533-3.343,6.81-5.026,6.81C34.804,19.316,34.453,13.652,32.375,13.157z"/><radialGradient id="H~bh5RTH8MWR6nubm75USc" cx="55.864" cy="11.355" r="10.738" gradientTransform="matrix(-1 0 0 .9951 71 .044)" gradientUnits="userSpaceOnUse"><stop offset="0" stop-color="#c77324"/><stop offset=".243" stop-color="#cc7828"/><stop offset=".526" stop-color="#d98635"/><stop offset=".828" stop-color="#ef9d4a"/><stop offset="1" stop-color="#ffae59"/></radialGradient><path fill="url(#H~bh5RTH8MWR6nubm75USc)" d="M17,11.105c0-0.678-1.991,0.018-3.174-0.964C12.359,8.924,12.114,7,9.779,7	C6.755,7,6,10.222,6,11.913C6,17.296,10.115,20,12.186,20C14.011,20,14.442,11.692,17,11.105z"/><radialGradient id="H~bh5RTH8MWR6nubm75USd" cx="57.294" cy="13.048" r="7.7" gradientTransform="matrix(-1 0 0 .9951 71 .044)" gradientUnits="userSpaceOnUse"><stop offset="0" stop-color="#9e5936"/><stop offset=".17" stop-color="#a05c3a"/><stop offset=".334" stop-color="#a86645"/><stop offset=".494" stop-color="#b47559"/><stop offset=".652" stop-color="#c68c74"/><stop offset=".809" stop-color="#dda897"/><stop offset=".964" stop-color="#f8cbc1"/><stop offset="1" stop-color="#ffd4cc"/></radialGradient><path fill="url(#H~bh5RTH8MWR6nubm75USd)" d="M15.625,13.157c0-0.571-1.788-0.542-2.75-1.368c-1.192-1.025-2.062-3.421-3.117-3.421	c-2.457,0-3.071,2.713-3.071,4.138c0,4.533,3.343,6.81,5.026,6.81C13.196,19.316,13.547,13.652,15.625,13.157z"/><radialGradient id="H~bh5RTH8MWR6nubm75USe" cx="11.25" cy="36.014" r="30.245" gradientTransform="matrix(.004 1.0667 -.7594 .0028 51.305 25.58)" gradientUnits="userSpaceOnUse"><stop offset="0" stop-color="#ebcabe"/><stop offset=".046" stop-color="#eac7b9"/><stop offset=".098" stop-color="#e7c0ac"/><stop offset=".152" stop-color="#e2b395"/><stop offset=".209" stop-color="#daa176"/><stop offset=".266" stop-color="#d18b4e"/><stop offset=".317" stop-color="#c77324"/><stop offset="1" stop-color="#faa954"/></radialGradient><path fill="url(#H~bh5RTH8MWR6nubm75USe)" d="M37.047,18.496C36.404,15.8,33,8,24,8s-12.404,7.8-13.047,10.496C10.309,21.192,5,24,5,32.097	c0,7.38,11.749,7.385,11.749,7.385S20.056,42,24,42s7.251-2.519,7.251-2.519S43,39.477,43,32.097C43,24,37.691,21.192,37.047,18.496	z"/><radialGradient id="H~bh5RTH8MWR6nubm75USf" cx="-172.8" cy="-230.7" r="9" gradientTransform="matrix(0 .8333 -.75 0 -137.875 174.5)" gradientUnits="userSpaceOnUse"><stop offset="0" stop-color="#e6c0a1" stop-opacity=".5"/><stop offset="1" stop-color="#e6c0a1" stop-opacity="0"/></radialGradient><ellipse cx="35.15" cy="30.5" fill="url(#H~bh5RTH8MWR6nubm75USf)" rx="6.75" ry="7.5"/><radialGradient id="H~bh5RTH8MWR6nubm75USg" cx="-172.8" cy="-230.7" r="9" gradientTransform="matrix(0 .8333 .75 0 185.875 174.5)" gradientUnits="userSpaceOnUse"><stop offset="0" stop-color="#e6c0a1" stop-opacity=".5"/><stop offset="1" stop-color="#e6c0a1" stop-opacity="0"/></radialGradient><ellipse cx="12.85" cy="30.5" fill="url(#H~bh5RTH8MWR6nubm75USg)" rx="6.75" ry="7.5"/><radialGradient id="H~bh5RTH8MWR6nubm75USh" cx="24.042" cy="34.69" r="3.372" gradientUnits="userSpaceOnUse"><stop offset="0" stop-color="#edc6c6"/><stop offset=".204" stop-color="#ecbebe"/><stop offset=".518" stop-color="#eba8a8"/><stop offset=".902" stop-color="#e98585"/><stop offset="1" stop-color="#e87b7b"/></radialGradient><path fill="url(#H~bh5RTH8MWR6nubm75USh)" d="M25.984,37.003c0.32-0.421,0.516-0.941,0.516-1.511C26.5,34.108,25.381,34,24,34	s-2.5,0.108-2.5,1.492c0,0.57,0.197,1.09,0.516,1.511c0.46,0.008,0.828,0.33,0.936,0.759C23.272,37.911,23.624,38,24,38	s0.728-0.089,1.048-0.238C25.156,37.334,25.523,37.011,25.984,37.003z"/><radialGradient id="H~bh5RTH8MWR6nubm75USi" cx="31.42" cy="25.47" r="2.025" gradientUnits="userSpaceOnUse"><stop offset="0" stop-color="#dbd2c6"/><stop offset=".061" stop-color="#d3cbbf"/><stop offset=".156" stop-color="#beb6ab"/><stop offset=".272" stop-color="#9a948c"/><stop offset=".403" stop-color="#6a6660"/><stop offset=".406" stop-color="#64615b"/><stop offset=".433" stop-color="#393734"/><stop offset=".457" stop-color="#1a1917"/><stop offset=".477" stop-color="#070706"/><stop offset=".492"/></radialGradient><path fill="url(#H~bh5RTH8MWR6nubm75USi)" d="M33.13,25.266c0.352,1.242-0.555,2.586-1.411,2.828s-1.338-0.708-1.69-1.95	c-0.352-1.242-0.44-2.304,0.416-2.547S32.778,24.024,33.13,25.266z"/><radialGradient id="H~bh5RTH8MWR6nubm75USj" cx="-376.58" cy="25.47" r="2.025" gradientTransform="matrix(-1 0 0 1 -360 0)" gradientUnits="userSpaceOnUse"><stop offset="0" stop-color="#dbd2c6"/><stop offset=".061" stop-color="#d3cbbf"/><stop offset=".156" stop-color="#beb6ab"/><stop offset=".272" stop-color="#9a948c"/><stop offset=".403" stop-color="#6a6660"/><stop offset=".406" stop-color="#64615b"/><stop offset=".433" stop-color="#393734"/><stop offset=".457" stop-color="#1a1917"/><stop offset=".477" stop-color="#070706"/><stop offset=".492"/></radialGradient><path fill="url(#H~bh5RTH8MWR6nubm75USj)" d="M14.87,25.266c-0.352,1.242,0.555,2.586,1.411,2.828c0.856,0.243,1.338-0.708,1.69-1.95	c0.352-1.242,0.44-2.304-0.416-2.547S15.222,24.024,14.87,25.266z"/><linearGradient id="H~bh5RTH8MWR6nubm75USk" x1="-1102.265" x2="-1105.904" y1="34.151" y2="34.398" gradientTransform="matrix(-1 0 0 1 -1071.157 0)" gradientUnits="userSpaceOnUse"><stop offset="0" stop-color="#d4cdc0" stop-opacity="0"/><stop offset="1" stop-color="#d4cdc0" stop-opacity=".5"/></linearGradient><path fill="url(#H~bh5RTH8MWR6nubm75USk)" d="M39.923,34.598l-9.067-0.772c-0.169-0.014-0.318,0.111-0.332,0.28s0.111,0.318,0.28,0.332 c0.005,0,0.01,0.001,0.015,0.001l9.094,0.326c0.046,0.002,0.085-0.035,0.087-0.081C40.002,34.64,39.967,34.602,39.923,34.598z"/><linearGradient id="H~bh5RTH8MWR6nubm75USl" x1="-1102.135" x2="-1106.077" y1="34.75" y2="35.906" gradientTransform="matrix(-1 0 0 1 -1071.157 0)" gradientUnits="userSpaceOnUse"><stop offset="0" stop-color="#d4cdc0" stop-opacity="0"/><stop offset="1" stop-color="#d4cdc0" stop-opacity=".5"/></linearGradient><path fill="url(#H~bh5RTH8MWR6nubm75USl)" d="M38.73,37.078l-7.893-2.689c-0.161-0.055-0.335,0.031-0.39,0.192 c-0.055,0.161,0.031,0.335,0.192,0.39c0.005,0.002,0.011,0.003,0.016,0.005l8.026,2.263c0.045,0.013,0.091-0.013,0.104-0.058 C38.796,37.137,38.772,37.092,38.73,37.078z"/><linearGradient id="H~bh5RTH8MWR6nubm75USm" x1="-1101.97" x2="-1105.495" y1="33.527" y2="32.807" gradientTransform="matrix(-1 0 0 1 -1071.157 0)" gradientUnits="userSpaceOnUse"><stop offset="0" stop-color="#d4cdc0" stop-opacity="0"/><stop offset="1" stop-color="#d4cdc0" stop-opacity=".5"/></linearGradient><path fill="url(#H~bh5RTH8MWR6nubm75USm)" d="M39.705,31.976l-8.919,1.121c-0.168,0.021-0.288,0.175-0.267,0.343 c0.021,0.168,0.175,0.288,0.343,0.267c0.005-0.001,0.01-0.001,0.015-0.002l8.852-1.563c0.046-0.008,0.076-0.052,0.068-0.097 C39.791,32.001,39.749,31.971,39.705,31.976z"/><g><linearGradient id="H~bh5RTH8MWR6nubm75USn" x1="-1102.265" x2="-1105.904" y1="34.151" y2="34.398" gradientTransform="translate(1119.157)" gradientUnits="userSpaceOnUse"><stop offset="0" stop-color="#d4cdc0" stop-opacity="0"/><stop offset="1" stop-color="#d4cdc0" stop-opacity=".5"/></linearGradient><path fill="url(#H~bh5RTH8MWR6nubm75USn)" d="M8.077,34.598l9.067-0.772c0.169-0.014,0.318,0.111,0.332,0.28s-0.111,0.318-0.28,0.332 c-0.005,0-0.01,0.001-0.015,0.001l-9.094,0.326C8.041,34.767,8.002,34.731,8,34.685C7.998,34.64,8.033,34.602,8.077,34.598z"/><linearGradient id="H~bh5RTH8MWR6nubm75USo" x1="-1102.135" x2="-1106.077" y1="34.75" y2="35.906" gradientTransform="translate(1119.157)" gradientUnits="userSpaceOnUse"><stop offset="0" stop-color="#d4cdc0" stop-opacity="0"/><stop offset="1" stop-color="#d4cdc0" stop-opacity=".5"/></linearGradient><path fill="url(#H~bh5RTH8MWR6nubm75USo)" d="M9.27,37.078l7.893-2.689c0.161-0.055,0.335,0.031,0.39,0.192 c0.055,0.161-0.031,0.335-0.192,0.39c-0.005,0.002-0.011,0.003-0.016,0.005L9.32,37.238c-0.045,0.013-0.091-0.013-0.104-0.058 C9.204,37.137,9.228,37.092,9.27,37.078z"/><linearGradient id="H~bh5RTH8MWR6nubm75USp" x1="-1101.97" x2="-1105.495" y1="33.527" y2="32.807" gradientTransform="translate(1119.157)" gradientUnits="userSpaceOnUse"><stop offset="0" stop-color="#d4cdc0" stop-opacity="0"/><stop offset="1" stop-color="#d4cdc0" stop-opacity=".5"/></linearGradient><path fill="url(#H~bh5RTH8MWR6nubm75USp)" d="M8.295,31.976l8.919,1.121c0.168,0.021,0.288,0.175,0.267,0.343 c-0.021,0.168-0.175,0.288-0.343,0.267c-0.005-0.001-0.01-0.001-0.015-0.002l-8.852-1.563c-0.046-0.008-0.076-0.052-0.068-0.097 C8.209,32.001,8.251,31.971,8.295,31.976z"/></g></svg>