<svg xmlns="http://www.w3.org/2000/svg" viewBox="0 0 48 48"><radialGradient id="aENyR~wmHDYvtzYSWpLlwa" cx="36.636" cy="17.806" r="11.48" gradientUnits="userSpaceOnUse"><stop offset=".695" stop-color="#c0c1c4"/><stop offset=".777" stop-color="#b9babe"/><stop offset=".894" stop-color="#a7a8ac"/><stop offset="1" stop-color="#909296"/></radialGradient><path fill="url(#aENyR~wmHDYvtzYSWpLlwa)" d="M27.246,12.259c1.316-0.394,1.813-0.567,2.737-1.522c0.386-0.398,0.55-1.511,1.206-2.346	c0.21-0.268,0.563,0.713,0.831,0.497c0.296-0.239,0.416-1.217,1.392-1.782c0.167-0.097,0.397,0.667,0.795,0.491	c0.387-0.171,1.004-1.235,1.998-1.43c0.256-0.05-0.036,0.945,0.808,0.844c0.413-0.049,1.377-0.862,2.354-0.595	c0.16,0.044-0.391,0.853,0.382,1.084c0.404,0.121,1.604-0.368,2.435,0.17c0.172,0.111-0.55,0.585,0.145,1.019	c0.309,0.193,1.072-0.048,2.067,0.772c0.134,0.111-0.539,0.457-0.067,0.907c0.253,0.242,1.167,0.38,1.624,1.235	c0.075,0.14-0.562,0.234-0.223,0.765c0.342,0.536,0.916,0.864,1.1,1.544c0.031,0.114-0.518,0.181-0.53,0.53	c-0.015,0.427,0.566,1.012,0.747,1.747c0.038,0.156-0.487-0.101-0.446,0.205C46.657,16.804,47,17.447,47,17.947	c0,0.334-0.494-0.102-0.494,0.174c0,0.703,0.318,1.045,0.334,1.901c0.004,0.232-0.405-0.087-0.435,0.305	c-0.072,0.929,0.217,1.877,0.076,2.293c-0.112,0.331-0.44-0.149-0.592-0.029c-0.405,0.318-0.173,1.546-0.65,2.283	c-0.189,0.292-0.238-0.349-0.448-0.303c-0.317,0.069-0.695,0.979-1.517,1.618c-0.26,0.202-0.186-0.384-0.679-0.376	c-0.398,0.006-0.583,0.562-1.43,0.939c-0.26,0.116-0.255-0.517-0.607-0.231c-1.69,1.373-4.005,0.018-4.84,1.149	C33.492,24.661,29.547,13.559,27.246,12.259z"/><radialGradient id="aENyR~wmHDYvtzYSWpLlwb" cx="36.684" cy="25.235" r="14.87" gradientUnits="userSpaceOnUse"><stop offset=".566" stop-color="#c9b6b3"/><stop offset="1" stop-color="#a88c7d"/></radialGradient><path fill="url(#aENyR~wmHDYvtzYSWpLlwb)" d="M29.879,13.685c0.965-0.289,1.342-0.717,2.066-1.313c0.248-0.204,0.843,1.376,1.098,1.175	c0.29-0.229-0.102-1.58,0.921-2.573c0.243-0.236,0.579,2.532,1.338,2.342c0.119-0.03-0.119-2.32,0.807-2.858	c0.295-0.171,0.378,1.657,0.89,1.429c0.134-0.06,0.289-1.486,0.716-1.713c0.336-0.179,0.467,2.892,1.314,2.808	c0.138-0.014-0.125-1.7,0.725-1.857c0.507-0.093,0.303,2.23,0.884,2.095c0.114-0.027,0.189-1.348,0.729-1.523	c0.354-0.115,0.18,2.737,0.722,2.737c0.225,0,0.29-1.506,0.868-1.506c0.258,0-0.114,3.145,0.572,3.124	c0.145-0.004,0.169-1.074,0.474-1.074c0.376,0,0.602,2.103,0.602,2.845c0,9.071-6.356,4.878-8.544,7.109	C34.438,22.736,31.559,14.633,29.879,13.685z"/><radialGradient id="aENyR~wmHDYvtzYSWpLlwc" cx="36.636" cy="17.806" r="11.48" gradientTransform="matrix(-1 0 0 1 48 0)" gradientUnits="userSpaceOnUse"><stop offset=".695" stop-color="#c0c1c4"/><stop offset=".777" stop-color="#b9babe"/><stop offset=".894" stop-color="#a7a8ac"/><stop offset="1" stop-color="#909296"/></radialGradient><path fill="url(#aENyR~wmHDYvtzYSWpLlwc)" d="M20.754,12.259c-1.316-0.394-1.813-0.567-2.737-1.522c-0.386-0.398-0.55-1.511-1.206-2.346	c-0.21-0.268-0.563,0.713-0.831,0.497c-0.296-0.239-0.416-1.217-1.392-1.782c-0.167-0.097-0.397,0.667-0.795,0.491	c-0.387-0.171-1.004-1.235-1.998-1.43c-0.256-0.05,0.036,0.945-0.808,0.844C10.574,6.962,9.61,6.15,8.633,6.416	C8.473,6.46,9.024,7.269,8.251,7.5C7.847,7.62,6.648,7.131,5.817,7.67c-0.172,0.111,0.55,0.585-0.145,1.019	C5.362,8.882,4.599,8.641,3.604,9.461C3.47,9.571,4.143,9.917,3.671,10.368c-0.253,0.242-1.167,0.38-1.624,1.235	c-0.075,0.14,0.562,0.234,0.223,0.765c-0.342,0.536-0.916,0.864-1.1,1.544c-0.031,0.114,0.518,0.181,0.53,0.53	c0.015,0.427-0.566,1.012-0.747,1.747c-0.038,0.156,0.487-0.101,0.446,0.205C1.343,16.804,1,17.447,1,17.947	c0,0.334,0.494-0.102,0.494,0.174c0,0.703-0.318,1.045-0.334,1.901c-0.004,0.232,0.405-0.087,0.435,0.305	c0.072,0.929-0.217,1.877-0.076,2.293c0.112,0.331,0.44-0.149,0.592-0.029c0.405,0.318,0.173,1.546,0.65,2.283	c0.189,0.292,0.238-0.349,0.448-0.303c0.317,0.069,0.695,0.979,1.517,1.618c0.26,0.202,0.186-0.384,0.679-0.376	c0.398,0.006,0.583,0.562,1.43,0.939c0.26,0.116,0.255-0.517,0.607-0.231c1.69,1.373,4.005,0.018,4.84,1.149	C14.508,24.661,18.453,13.559,20.754,12.259z"/><radialGradient id="aENyR~wmHDYvtzYSWpLlwd" cx="36.684" cy="25.235" r="14.87" gradientTransform="matrix(-1 0 0 1 48 0)" gradientUnits="userSpaceOnUse"><stop offset=".566" stop-color="#c9b6b3"/><stop offset="1" stop-color="#a88c7d"/></radialGradient><path fill="url(#aENyR~wmHDYvtzYSWpLlwd)" d="M18.121,13.685c-0.965-0.289-1.342-0.717-2.066-1.313c-0.248-0.204-0.843,1.376-1.098,1.175	c-0.29-0.229,0.102-1.58-0.921-2.573c-0.243-0.236-0.579,2.532-1.338,2.342c-0.119-0.03,0.119-2.32-0.807-2.858	c-0.295-0.171-0.378,1.657-0.89,1.429c-0.134-0.06-0.289-1.486-0.716-1.713c-0.336-0.179-0.467,2.892-1.314,2.808	c-0.138-0.014,0.125-1.7-0.725-1.857c-0.507-0.093-0.303,2.23-0.884,2.095c-0.114-0.027-0.189-1.348-0.729-1.523	c-0.354-0.115-0.18,2.737-0.722,2.737c-0.225,0-0.29-1.506-0.868-1.506c-0.258,0,0.114,3.145-0.572,3.124	c-0.145-0.004-0.169-1.074-0.474-1.074c-0.376,0-0.602,2.103-0.602,2.845c0,9.071,6.356,4.878,8.544,7.109	C13.562,22.736,16.441,14.633,18.121,13.685z"/><radialGradient id="aENyR~wmHDYvtzYSWpLlwe" cx="534" cy="32.533" r="25.967" gradientTransform="matrix(-.004 1.0667 .9012 .0034 -3.195 -531.203)" gradientUnits="userSpaceOnUse"><stop offset="0" stop-color="#dadde3"/><stop offset=".052" stop-color="#d6d9df"/><stop offset=".104" stop-color="#cbcdd3"/><stop offset=".157" stop-color="#b7babf"/><stop offset=".209" stop-color="#9c9fa3"/><stop offset=".229" stop-color="#909296"/><stop offset=".427" stop-color="#a0a2a5"/><stop offset=".78" stop-color="#b7b9bc"/><stop offset="1" stop-color="#c0c1c4"/></radialGradient><path fill="url(#aENyR~wmHDYvtzYSWpLlwe)" d="M10.953,19.496C11.526,16.784,15,10,24,10s12.32,6.821,13.047,9.496	C38,23,40,26.522,40,31.097c0,7.38-10.749,7.385-10.749,7.385S28,41,24,41s-5.251-2.519-5.251-2.519S8,38.477,8,31.097	C8,26.522,10,24,10.953,19.496z"/><radialGradient id="aENyR~wmHDYvtzYSWpLlwf" cx="117.069" cy="-39.196" r="6.976" gradientTransform="matrix(0 .8085 -.7828 0 2.212 -63.502)" gradientUnits="userSpaceOnUse"><stop offset="0" stop-color="#aeb0b8"/><stop offset=".736" stop-color="#a7a9af" stop-opacity=".264"/><stop offset="1" stop-color="#a3a5ab" stop-opacity="0"/></radialGradient><ellipse cx="32.894" cy="31.153" fill="url(#aENyR~wmHDYvtzYSWpLlwf)" rx="5.46" ry="5.64"/><radialGradient id="aENyR~wmHDYvtzYSWpLlwg" cx="117.067" cy="-733.664" r="6.896" gradientTransform="matrix(0 .8085 .7828 0 589.788 -63.502)" gradientUnits="userSpaceOnUse"><stop offset="0" stop-color="#aeb0b8"/><stop offset=".736" stop-color="#a7a9af" stop-opacity=".264"/><stop offset="1" stop-color="#a3a5ab" stop-opacity="0"/></radialGradient><ellipse cx="15.489" cy="31.151" fill="url(#aENyR~wmHDYvtzYSWpLlwg)" rx="5.398" ry="5.575"/><radialGradient id="aENyR~wmHDYvtzYSWpLlwh" cx="30.5" cy="25.5" r="3.5" gradientUnits="userSpaceOnUse"><stop offset=".669" stop-color="#c0c1c4"/><stop offset="1" stop-color="#c0c1c4" stop-opacity="0"/></radialGradient><circle cx="30.5" cy="25.5" r="3.5" fill="url(#aENyR~wmHDYvtzYSWpLlwh)"/><radialGradient id="aENyR~wmHDYvtzYSWpLlwi" cx="17.5" cy="25.5" r="3.5" gradientUnits="userSpaceOnUse"><stop offset=".669" stop-color="#c0c1c4"/><stop offset="1" stop-color="#c0c1c4" stop-opacity="0"/></radialGradient><circle cx="17.5" cy="25.5" r="3.5" fill="url(#aENyR~wmHDYvtzYSWpLlwi)"/><radialGradient id="aENyR~wmHDYvtzYSWpLlwj" cx="31.295" cy="26.126" r="1.768" gradientTransform="matrix(.75 0 0 .9884 7 .29)" gradientUnits="userSpaceOnUse"><stop offset=".318"/><stop offset=".329" stop-color="#040201"/><stop offset=".339" stop-color="#100603"/><stop offset=".35" stop-color="#250e06"/><stop offset=".36" stop-color="#41190b"/><stop offset=".369" stop-color="#5c2410"/><stop offset=".537" stop-color="#54210f"/><stop offset=".801" stop-color="#3d180b"/><stop offset="1" stop-color="#281007"/></radialGradient><path fill="url(#aENyR~wmHDYvtzYSWpLlwj)" d="M29.869,25.117c-0.41,0.157-0.676,0.504-0.86,0.912C29.006,26.065,29,26.106,29,26.135	C29,27.25,29.653,28,30.391,28C31.122,28,32,27.291,32,25.898c0-0.154-0.032-0.267-0.063-0.378	C31.407,25.15,30.657,24.815,29.869,25.117z"/><ellipse cx="30.614" cy="25.818" fill="#bababa" rx=".405" ry=".4"/><radialGradient id="aENyR~wmHDYvtzYSWpLlwk" cx="31.338" cy="26.122" r="1.768" gradientTransform="matrix(-.75 0 0 .9884 41 .29)" gradientUnits="userSpaceOnUse"><stop offset=".318"/><stop offset=".329" stop-color="#040201"/><stop offset=".339" stop-color="#100603"/><stop offset=".35" stop-color="#250e06"/><stop offset=".36" stop-color="#41190b"/><stop offset=".369" stop-color="#5c2410"/><stop offset=".537" stop-color="#54210f"/><stop offset=".801" stop-color="#3d180b"/><stop offset="1" stop-color="#281007"/></radialGradient><path fill="url(#aENyR~wmHDYvtzYSWpLlwk)" d="M18.131,25.117c0.41,0.157,0.676,0.504,0.86,0.912C18.994,26.065,19,26.106,19,26.135	C19,27.25,18.347,28,17.609,28C16.878,28,16,27.291,16,25.898c0-0.154,0.032-0.267,0.063-0.378	C16.593,25.15,17.343,24.815,18.131,25.117z"/><ellipse cx="17.386" cy="25.818" fill="#bababa" rx=".405" ry=".4"/><radialGradient id="aENyR~wmHDYvtzYSWpLlwl" cx="24.037" cy="20.25" r="3.45" gradientTransform="matrix(1.9319 0 0 2.2942 -22.4 -26.825)" gradientUnits="userSpaceOnUse"><stop offset="0" stop-color="#cdced1" stop-opacity=".5"/><stop offset=".563" stop-color="#c3c7cf" stop-opacity=".218"/><stop offset="1" stop-color="#b8c0cc" stop-opacity="0"/></radialGradient><ellipse cx="24.037" cy="19.632" fill="url(#aENyR~wmHDYvtzYSWpLlwl)" rx="6.665" ry="7.915"/><radialGradient id="aENyR~wmHDYvtzYSWpLlwm" cx="24" cy="30.5" r="3.592" gradientTransform="matrix(1 0 0 1.709 0 -21.623)" gradientUnits="userSpaceOnUse"><stop offset="0" stop-color="#555757"/><stop offset=".293" stop-color="#515353"/><stop offset=".591" stop-color="#454747"/><stop offset=".888" stop-color="#313333"/><stop offset="1" stop-color="#282929"/></radialGradient><path fill="url(#aENyR~wmHDYvtzYSWpLlwm)" d="M24,36L24,36c-1.657,0-3-1.343-3-3v-5c0-1.657,1.343-3,3-3h0c1.657,0,3,1.343,3,3v5	C27,34.657,25.657,36,24,36z"/></svg>