<svg xmlns="http://www.w3.org/2000/svg" viewBox="0 0 48 48"><radialGradient id="HG~UvJJwynBa0~AUdY~n9a" cx="24.395" cy="24.989" r="18.876" fx="24.295" fy="16.903" gradientUnits="userSpaceOnUse"><stop offset="0" stop-color="#737373"/><stop offset=".551" stop-color="#39414d"/><stop offset=".662" stop-color="#323a44"/><stop offset=".843" stop-color="#1f262c"/><stop offset="1" stop-color="#0a1112"/></radialGradient><path fill="url(#HG~UvJJwynBa0~AUdY~n9a)" d="M40.723,23.538C38.895,15.343,34.079,5.856,24,5.856c-10.028,0-14.895,9.488-16.723,17.683 c-2.022,9.063,2.27,18.606,16.175,18.606c0.188,0,0.364-0.01,0.548-0.012c0.184,0.003,0.36,0.012,0.548,0.012 C38.453,42.144,42.745,32.601,40.723,23.538z"/><path fill="#fff" d="M36.779,22.346c0-3.826-2.297-6.799-5.028-6.799c-2.949,0-5.34,3.196-5.34,7.138v6.148l-2.404,1.081 l-2.419-1.303v-5.926c0-3.942-2.391-7.138-5.34-7.138c-2.73,0-5.028,2.973-5.028,6.799c0,2.053-1.719,4.605-1.719,7.069 c0,9.807,11.86,10.645,14.506,10.645c2.802,0,14.491-0.839,14.491-10.645C38.499,26.951,36.779,24.399,36.779,22.346z"/><radialGradient id="HG~UvJJwynBa0~AUdY~n9b" cx="23.556" cy="18.6" r="23.307" gradientUnits="userSpaceOnUse"><stop offset="0" stop-color="#a8a8a8" stop-opacity="0"/><stop offset=".304" stop-color="#a6a6a6" stop-opacity=".304"/><stop offset=".465" stop-color="#9e9e9e" stop-opacity=".465"/><stop offset=".592" stop-color="#909090" stop-opacity=".592"/><stop offset=".701" stop-color="#7d7d7d" stop-opacity=".701"/><stop offset=".799" stop-color="#646464" stop-opacity=".799"/><stop offset=".89" stop-color="#464646" stop-opacity=".89"/><stop offset=".972" stop-color="#222" stop-opacity=".972"/><stop offset="1" stop-color="#141414"/></radialGradient><path fill="url(#HG~UvJJwynBa0~AUdY~n9b)" d="M36.779,22.346c0-3.826-2.297-6.799-5.028-6.799 c-2.949,0-5.34,3.196-5.34,7.138v6.148l-2.404,1.081l-2.419-1.303v-5.926c0-3.942-2.391-7.138-5.34-7.138 c-2.73,0-5.028,2.973-5.028,6.799c0,2.053-1.719,4.605-1.719,7.069c0,9.807,11.86,10.645,14.506,10.645 c2.802,0,14.491-0.839,14.491-10.645C38.499,26.951,36.779,24.399,36.779,22.346z" opacity=".56"/><radialGradient id="HG~UvJJwynBa0~AUdY~n9c" cx="16.153" cy="23.794" r="5.408" gradientTransform="matrix(0 -1 .7762 0 -2.315 39.947)" gradientUnits="userSpaceOnUse"><stop offset=".771" stop-color="#141414"/><stop offset="1" stop-color="#a8a8a8" stop-opacity="0"/></radialGradient><ellipse cx="16.153" cy="23.806" fill="url(#HG~UvJJwynBa0~AUdY~n9c)" opacity=".56" rx="4.269" ry="5.489"/><radialGradient id="HG~UvJJwynBa0~AUdY~n9d" cx="31.862" cy="23.794" r="5.408" gradientTransform="matrix(0 -1 .7762 0 13.394 55.656)" gradientUnits="userSpaceOnUse"><stop offset=".771" stop-color="#141414"/><stop offset="1" stop-color="#a8a8a8" stop-opacity="0"/></radialGradient><ellipse cx="31.862" cy="23.806" fill="url(#HG~UvJJwynBa0~AUdY~n9d)" opacity=".56" rx="4.269" ry="5.489"/><radialGradient id="HG~UvJJwynBa0~AUdY~n9e" cx="24" cy="30.242" r="4.777" gradientTransform="matrix(.9999 -.0161 .0133 .8273 -.4 5.611)" gradientUnits="userSpaceOnUse"><stop offset=".529" stop-color="#630f03"/><stop offset=".651" stop-color="#691003"/><stop offset=".811" stop-color="#791204"/><stop offset=".992" stop-color="#951605"/><stop offset="1" stop-color="#961605"/></radialGradient><path fill="url(#HG~UvJJwynBa0~AUdY~n9e)" d="M24.407,29.934c-0.137,0-0.272-0.007-0.407-0.015c-0.135,0.008-0.27,0.015-0.407,0.015 c-2.876,0-4.674-1.997-4.674,0c0,1.997,1.694,4.966,5.081,4.966s5.081-2.969,5.081-4.966 C29.081,27.937,27.283,29.934,24.407,29.934z"/><radialGradient id="HG~UvJJwynBa0~AUdY~n9f" cx="-61.704" cy="29.35" r="5.038" fx="-61.731" fy="27.192" gradientTransform="matrix(.8783 0 0 1 78.196 0)" gradientUnits="userSpaceOnUse"><stop offset="0" stop-color="#ff9b52"/><stop offset=".477" stop-color="#e44723"/><stop offset=".776" stop-color="#d41708"/></radialGradient><path fill="url(#HG~UvJJwynBa0~AUdY~n9f)" d="M24,25.192c-1.848,0-5.081,2.992-5.081,4.685c0,1.783,5.081,3.631,5.081,3.631 s5.081-1.848,5.081-3.631C29.081,28.184,25.848,25.192,24,25.192z"/><radialGradient id="HG~UvJJwynBa0~AUdY~n9g" cx="16.153" cy="23.797" r="4.097" gradientTransform="matrix(0 -1 .7116 0 -.781 39.95)" gradientUnits="userSpaceOnUse"><stop offset=".413" stop-color="#636363"/><stop offset=".686" stop-color="#303030"/><stop offset=".961"/></radialGradient><ellipse cx="16.153" cy="23.806" fill="url(#HG~UvJJwynBa0~AUdY~n9g)" rx="3.234" ry="4.158"/><ellipse cx="16.153" cy="23.806" rx="1.312" ry="1.968"/><circle cx="15.03" cy="22.447" r=".575" fill="#fff"/><radialGradient id="HG~UvJJwynBa0~AUdY~n9h" cx="31.862" cy="23.797" r="4.097" gradientTransform="matrix(0 -1 .7116 0 14.928 55.659)" gradientUnits="userSpaceOnUse"><stop offset=".413" stop-color="#636363"/><stop offset=".686" stop-color="#303030"/><stop offset=".961"/></radialGradient><ellipse cx="31.862" cy="23.806" fill="url(#HG~UvJJwynBa0~AUdY~n9h)" rx="3.234" ry="4.158"/><ellipse cx="31.862" cy="23.806" rx="1.312" ry="1.968"/><circle cx="30.74" cy="22.447" r=".575" fill="#fff"/></svg>