<svg xmlns="http://www.w3.org/2000/svg" viewBox="0 0 48 48"><linearGradient id="V1f21nCcN6MIgPCGLgnEPa" x1="20" x2="31.56" y1="39.086" y2="39.086" gradientUnits="userSpaceOnUse"><stop offset="0" stop-color="#939599"/><stop offset="1" stop-color="#47484a"/></linearGradient><path fill="url(#V1f21nCcN6MIgPCGLgnEPa)" d="M24,44c-1,0-4,0-4-1s1.058-2.399,3.058-2.399s2.32,0.328,2.32-0.241C25.378,39.36,20,37,21,35	s8,0,8,2s4,6,2,6S24,44,24,44z"/><linearGradient id="V1f21nCcN6MIgPCGLgnEPb" x1="12.325" x2="21" y1="6.837" y2="6.837" gradientUnits="userSpaceOnUse"><stop offset="0" stop-color="#737578"/><stop offset="1" stop-color="#a4a6ab"/></linearGradient><path fill="url(#V1f21nCcN6MIgPCGLgnEPb)" d="M12.325,10.814c0.697-0.75,2.19-4.131,2.918-5.716C16.059,3.321,17.205,1,19,1	c1.287,0,2,1.786,2,3.335c0,7.564-4.969,7.292-5.678,8.338C14.533,12.561,12.99,10.861,12.325,10.814z"/><radialGradient id="V1f21nCcN6MIgPCGLgnEPc" cx="38.003" cy="42.643" r="3.878" gradientUnits="userSpaceOnUse"><stop offset="0" stop-color="#7b7d80"/><stop offset=".299" stop-color="#828588"/><stop offset=".756" stop-color="#96999d"/><stop offset="1" stop-color="#a4a7ab"/></radialGradient><circle cx="38.975" cy="42.975" r="2.025" fill="url(#V1f21nCcN6MIgPCGLgnEPc)"/><path fill="#8a8b8f" d="M4,14.657c0-1.05,1.702-2.886,3.178-3.892s3.624-1.678,4.899-2.013c1.275-0.336,2.416-0.336,3.288,0 c0.872,0.336,4.116,3.087,4.854,5.503s0.512,3.825,1.519,4.027s5.845-0.605,9.103,0.462C33.479,19.607,43,24.376,43,37 c0,4.429-4.082,5.91-4.686,5.843c-0.604-0.067,0.671,2.751-2.215,2.751C33.213,45.594,28.516,46,25.16,46C21.34,46,21,45.481,21,45 c0-1.076,1.006-2.023,2.684-2.023c1.678,0,4.429-0.201,4.496-0.604c0.067-0.403-2.215-1.208-2.819-3.154 c-0.604-1.946,0-2.013-0.671-2.483c-0.671-0.47-2.013-0.805-3.557-0.805S19,40.04,19,41c0,0.875-0.483,4-2.564,4 c-3.459,0-3.825,0.135-3.825-0.871C12.611,42.708,15,42.164,15,40c0-8.456-2.993-8.222-4.134-13.331 c-0.64-2.868,0.671-3.959-0.671-5.906C9.318,19.492,4,19.019,4,14.657z"/><path fill="#8b8c90" d="M4.182,14.683c0-1.03,1.671-2.829,3.119-3.816s3.553-1.645,4.803-1.974s2.368-0.329,3.224,0 s4.034,3.026,4.757,5.395c0.724,2.368,0.578,3.905,1.565,4.103c0.987,0.197,5.888-0.613,9.184,0.513 c2.803,0.957,12.035,5.762,12.035,18.151c0,4.342-4.122,5.76-4.714,5.694c-0.592-0.066,0.769,2.815-2.088,2.819 c-2.833,0.002-7.433,0.398-10.723,0.398c-3.739,0-4.244-0.501-4.245-0.979c-0.001-1.055,1.148-1.97,2.793-1.97 s4.419-0.201,4.485-0.595c0.066-0.395-2.3-1.312-2.909-3.213c-0.628-1.961,0.033-2.039-0.629-2.554 c-0.649-0.506-2.019-0.945-3.729-0.945c-1.513,0-2.17,4.407-2.169,5.347c0.001,0.858-0.471,3.924-2.511,3.924 c-3.374,0-3.75,0.138-3.75-0.848c0-1.387,2.352-1.937,2.358-4.058c0.024-8.291-2.855-8.365-3.967-13.374 c-0.625-2.816,0.494-4.121-0.822-6.029C9.387,19.423,4.182,18.959,4.182,14.683z"/><path fill="#8c8d91" d="M4.363,14.709c0-1.009,1.641-2.772,3.059-3.739s3.481-1.612,4.706-1.934s2.321-0.322,3.159,0 s3.952,2.966,4.661,5.287c0.709,2.321,0.644,3.986,1.611,4.179c0.967,0.193,5.931-0.617,9.264,0.563 c2.969,1.051,11.911,5.892,11.911,18.044c0,4.255-4.162,5.61-4.742,5.545c-0.58-0.064,0.867,2.878-1.961,2.886 c-2.78,0.005-7.283,0.39-10.507,0.39c-3.658,0-4.329-0.482-4.33-0.959c-0.002-1.033,1.289-1.917,2.901-1.917 c1.612,0,4.408-0.2,4.473-0.587c0.064-0.387-2.386-1.416-2.999-3.272c-0.653-1.976,0.066-2.063-0.586-2.626 c-0.627-0.541-2.025-1.084-3.902-1.084c-1.483,0-2.206,4.705-2.204,5.625c0.002,0.841-0.459,3.848-2.458,3.848 c-3.289,0-3.675,0.142-3.675-0.825c0-1.354,2.315-1.91,2.327-3.988c0.048-8.126-2.716-8.507-3.799-13.417 c-0.609-2.764,0.316-4.283-0.973-6.152C9.457,19.354,4.363,18.9,4.363,14.709z"/><path fill="#8d8e92" d="M4.545,14.735c0-0.988,1.61-2.716,3-3.663s3.41-1.579,4.61-1.895c1.2-0.316,2.273-0.316,3.094,0 c0.821,0.316,3.87,2.905,4.564,5.178c0.695,2.273,0.709,4.066,1.657,4.255c0.947,0.189,5.973-0.62,9.345,0.613 c3.134,1.147,11.788,6.021,11.788,17.938c0,4.168-4.201,5.46-4.77,5.396c-0.568-0.063,0.965,2.941-1.834,2.953 c-2.728,0.007-7.133,0.382-10.29,0.382c-3.577,0-4.413-0.463-4.415-0.938c-0.003-1.012,1.431-1.865,3.01-1.865 c1.579,0,4.398-0.199,4.461-0.578s-2.473-1.52-3.089-3.331c-0.678-1.991,0.099-2.086-0.544-2.697 c-0.605-0.575-2.031-1.223-4.075-1.223c-1.452,0-2.242,5.002-2.24,5.903c0.003,0.823-0.447,3.773-2.404,3.773 c-3.203,0-3.6,0.145-3.6-0.802c0-1.321,2.279-1.883,2.296-3.917c0.072-7.962-2.578-8.65-3.632-13.46 c-0.594-2.712,0.139-4.444-1.124-6.276C9.526,19.285,4.545,18.84,4.545,14.735z"/><path fill="#8e8f93" d="M4.727,14.762c0-0.968,1.58-2.659,2.94-3.586c1.36-0.927,3.339-1.546,4.514-1.855 s2.226-0.309,3.03,0c0.804,0.309,3.788,2.844,4.468,5.07s0.775,4.146,1.703,4.332c0.927,0.185,6.015-0.621,9.425,0.664 c3.299,1.243,11.664,6.15,11.664,17.832c0,4.081-4.241,5.31-4.798,5.248c-0.556-0.062,1.062,3.004-1.708,3.02 c-2.675,0.01-6.983,0.374-10.074,0.374c-3.496,0-4.497-0.445-4.5-0.918c-0.003-0.991,1.572-1.812,3.118-1.812 s4.388-0.198,4.45-0.569s-2.56-1.623-3.18-3.39c-0.703-2.006,0.132-2.108-0.501-2.769c-0.583-0.607-2.036-1.363-4.248-1.363 c-1.422,0-2.278,5.3-2.275,6.18c0.003,0.806-0.435,3.697-2.351,3.697c-3.118,0-3.524,0.148-3.524-0.779 c0-1.288,2.242-1.856,2.266-3.847c0.096-7.797-2.439-8.792-3.465-13.504c-0.578-2.661-0.039-4.606-1.275-6.399 C9.595,19.216,4.727,18.781,4.727,14.762z"/><path fill="#8f9094" d="M4.909,14.788c0-0.947,1.55-2.602,2.881-3.51s3.268-1.513,4.417-1.815 c1.15-0.303,2.178-0.303,2.965,0c0.787,0.303,3.706,2.784,4.371,4.962c0.666,2.178,0.841,4.226,1.749,4.408 c0.908,0.182,6.057-0.621,9.505,0.714c3.463,1.34,11.54,6.28,11.54,17.726c0,3.994-4.281,5.16-4.826,5.099 c-0.545-0.061,1.16,3.067-1.581,3.087c-2.622,0.012-6.833,0.366-9.858,0.366c-3.415,0-4.582-0.426-4.585-0.897 c-0.006-0.97,1.714-1.759,3.227-1.759c1.513,0,4.377-0.197,4.438-0.56c0.061-0.363-2.649-1.727-3.27-3.449 c-0.729-2.021,0.165-2.13-0.459-2.84c-0.561-0.639-2.042-1.502-4.42-1.502c-1.392,0-2.315,5.598-2.31,6.458 c0.004,0.789-0.422,3.621-2.298,3.621c-3.033,0-3.449,0.151-3.449-0.756c0-1.255,2.205-1.828,2.235-3.777 c0.12-7.632-2.301-8.935-3.298-13.547c-0.562-2.609-0.216-4.768-1.427-6.523C9.665,19.148,4.909,18.721,4.909,14.788z"/><path fill="#8f9195" d="M5.09,14.814c0-0.927,1.519-2.545,2.822-3.433c1.302-0.888,3.197-1.48,4.321-1.776 c1.125-0.296,2.131-0.296,2.901,0c0.77,0.296,3.624,2.723,4.275,4.854c0.651,2.131,0.907,4.307,1.794,4.484 c0.888,0.178,6.098-0.619,9.586,0.764c3.628,1.439,11.417,6.409,11.417,17.62c0,3.907-4.321,5.01-4.853,4.95 c-0.533-0.059,1.258,3.13-1.454,3.154c-2.57,0.015-6.682,0.358-9.642,0.358c-3.334,0-4.666-0.407-4.67-0.876 c-0.008-0.949,1.856-1.706,3.335-1.706s4.367-0.196,4.426-0.552s-2.738-1.83-3.36-3.508c-0.755-2.036,0.198-2.15-0.417-2.912 c-0.541-0.67-2.048-1.641-4.593-1.641c-1.361,0-2.351,5.895-2.346,6.736c0.005,0.772-0.41,3.545-2.245,3.545 c-2.947,0-3.374,0.155-3.374-0.733c0-1.222,2.168-1.801,2.204-3.706c0.144-7.468-2.162-9.077-3.131-13.59 c-0.547-2.557-0.394-4.929-1.578-6.646C9.734,19.079,5.09,18.662,5.09,14.814z"/><path fill="#909296" d="M5.272,14.84c0-0.906,1.489-2.489,2.762-3.357c1.273-0.868,3.125-1.447,4.225-1.736 s2.084-0.289,2.836,0s3.542,2.662,4.178,4.746c0.637,2.084,0.972,4.387,1.84,4.56c0.868,0.174,6.138-0.616,9.666,0.815 c3.792,1.538,11.293,6.538,11.293,17.513c0,3.82-4.36,4.86-4.881,4.802c-0.521-0.058,1.356,3.193-1.328,3.221 c-2.517,0.017-6.532,0.351-9.426,0.351c-3.253,0-4.751-0.389-4.755-0.856c-0.009-0.928,1.997-1.653,3.444-1.653 s4.357-0.196,4.414-0.543c0.058-0.347-2.828-1.933-3.451-3.567c-0.781-2.052,0.23-2.17-0.374-2.983 c-0.52-0.701-2.054-1.781-4.766-1.781c-1.331,0-2.387,6.193-2.381,7.013c0.006,0.754-0.398,3.47-2.192,3.47 c-2.862,0-3.299,0.158-3.299-0.71c0-1.188,2.132-1.774,2.173-3.636c0.168-7.303-2.023-9.22-2.964-13.633 c-0.531-2.505-0.571-5.091-1.729-6.769C9.803,19.01,5.272,18.602,5.272,14.84z"/><path fill="#919297" d="M5.454,14.866c0-0.885,1.459-2.432,2.703-3.28s3.054-1.414,4.129-1.697 c1.075-0.283,2.036-0.283,2.771,0c0.735,0.283,3.46,2.602,4.082,4.638c0.622,2.036,1.038,4.467,1.886,4.637 c0.848,0.17,6.179-0.612,9.747,0.865c3.955,1.638,11.169,6.668,11.169,17.407c0,3.733-4.4,4.71-4.909,4.653 s1.454,3.257-1.201,3.288c-2.464,0.02-6.382,0.343-9.21,0.343c-3.173,0-4.835-0.37-4.84-0.835c-0.01-0.906,2.139-1.6,3.553-1.6 c1.414,0,4.346-0.195,4.403-0.534c0.057-0.339-2.919-2.036-3.541-3.626c-0.808-2.067,0.261-2.189-0.332-3.054 c-0.5-0.73-2.059-1.92-4.939-1.92c-1.301,0-2.423,6.491-2.416,7.291c0.007,0.737-0.386,3.394-2.139,3.394 c-2.776,0-3.224,0.161-3.224-0.687c0-1.155,2.095-1.747,2.142-3.565c0.192-7.139-1.885-9.362-2.796-13.676 c-0.516-2.453-0.749-5.253-1.88-6.893C9.873,18.941,5.454,18.542,5.454,14.866z"/><path fill="#929398" d="M5.636,14.892c0-0.865,1.428-2.375,2.644-3.204c1.215-0.829,2.983-1.381,4.032-1.657 c1.05-0.276,1.989-0.276,2.707,0c0.718,0.276,3.377,2.541,3.985,4.529c0.608,1.989,1.104,4.547,1.932,4.713 c0.829,0.166,6.219-0.608,9.827,0.915c4.119,1.739,11.046,6.797,11.046,17.301c0,3.646-4.44,4.56-4.937,4.504 s1.552,3.325-1.074,3.355c-2.411,0.027-6.232,0.335-8.994,0.335c-3.092,0-4.919-0.352-4.925-0.814 c-0.011-0.885,2.28-1.547,3.661-1.547s4.336-0.194,4.391-0.525s-3.01-2.138-3.631-3.685c-0.836-2.082,0.292-2.208-0.289-3.126 c-0.481-0.759-2.065-2.059-5.111-2.059c-1.27,0-2.459,6.788-2.452,7.569c0.008,0.72-0.374,3.318-2.086,3.318 c-2.691,0-3.149,0.164-3.149-0.664c0-1.122,2.058-1.72,2.111-3.495c0.216-6.974-1.746-9.505-2.629-13.72 c-0.5-2.401-0.926-5.414-2.031-7.016C9.942,18.872,5.636,18.483,5.636,14.892z"/><path fill="#939499" d="M5.817,14.919c0-0.844,1.398-2.318,2.584-3.127s2.912-1.348,3.936-1.618 c1.024-0.27,1.941-0.27,2.642,0c0.701,0.27,3.295,2.48,3.889,4.421c0.593,1.941,1.17,4.627,1.978,4.789 c0.809,0.162,6.258-0.603,9.908,0.966c4.282,1.84,10.922,6.926,10.922,17.195c0,3.559-4.48,4.41-4.965,4.356 c-0.485-0.054,1.65,3.389-0.947,3.422c-2.359,0.03-6.082,0.327-8.778,0.327c-3.011,0-5.004-0.333-5.01-0.794 c-0.012-0.864,2.422-1.494,3.77-1.494c1.348,0,4.326-0.193,4.379-0.517s-3.103-2.241-3.722-3.744 c-0.863-2.098,0.323-2.226-0.247-3.197c-0.462-0.788-2.071-2.199-5.284-2.199c-1.24,0-2.495,7.086-2.487,7.846 c0.008,0.703-0.361,3.242-2.033,3.242c-2.606,0-3.073,0.168-3.073-0.641c0-1.089,2.021-1.692,2.08-3.425 c0.24-6.809-1.608-9.648-2.462-13.763c-0.484-2.349-1.104-5.576-2.182-7.14C10.011,18.803,5.817,18.423,5.817,14.919z"/><path fill="#94959a" d="M5.999,14.945c0-0.823,1.368-2.262,2.525-3.051c1.157-0.789,2.84-1.315,3.84-1.578 s1.894-0.263,2.577,0s3.213,2.42,3.792,4.313c0.579,1.894,1.235,4.708,2.024,4.865c0.789,0.158,6.298-0.597,9.988,1.016 c4.445,1.943,10.798,7.055,10.798,17.088c0,3.472-4.519,4.26-4.993,4.207c-0.473-0.053,1.748,3.453-0.821,3.489 c-2.306,0.033-5.932,0.319-8.562,0.319c-2.93,0-5.088-0.314-5.095-0.773c-0.013-0.843,2.563-1.441,3.878-1.441 s4.315-0.192,4.368-0.508c0.053-0.316-3.195-2.343-3.812-3.804c-0.892-2.113,0.352-2.244-0.204-3.269 c-0.444-0.817-2.077-2.338-5.457-2.338c-1.21,0-2.532,7.384-2.522,8.124c0.009,0.685-0.349,3.167-1.98,3.167 c-2.52,0-2.998,0.171-2.998-0.618c0-1.056,1.985-1.665,2.05-3.354c0.264-6.645-1.469-9.79-2.295-13.806 c-0.469-2.297-1.281-5.738-2.333-7.263C10.08,18.734,5.999,18.364,5.999,14.945z"/><path fill="#95969b" d="M6.181,14.971c0-0.803,1.337-2.205,2.465-2.974s2.769-1.282,3.743-1.538 c0.974-0.256,1.846-0.256,2.513,0c0.667,0.256,3.131,2.359,3.696,4.205c0.564,1.846,1.301,4.788,2.07,4.942 c0.769,0.154,6.337-0.59,10.068,1.066c4.607,2.046,10.675,7.185,10.675,16.982c0,3.384-4.559,4.11-5.02,4.058 s1.845,3.516-0.694,3.556c-2.253,0.036-5.781,0.311-8.345,0.311c-2.849,0-5.172-0.296-5.18-0.753 c-0.014-0.822,2.705-1.388,3.987-1.388s4.305-0.192,4.356-0.499c0.051-0.308-3.289-2.445-3.902-3.863 c-0.921-2.128,0.382-2.261-0.162-3.34c-0.426-0.845-2.083-2.477-5.629-2.477c-1.179,0-2.568,7.681-2.558,8.402 c0.01,0.668-0.337,3.091-1.927,3.091c-2.435,0-2.923,0.174-2.923-0.595c0-1.023,1.948-1.638,2.019-3.284 c0.288-6.48-1.331-9.933-2.128-13.849c-0.453-2.245-1.459-5.899-2.484-7.386C10.15,18.666,6.181,18.304,6.181,14.971z"/><path fill="#96979c" d="M6.362,14.997c0-0.782,1.307-2.148,2.406-2.898c1.099-0.749,2.698-1.249,3.647-1.499 c0.949-0.25,1.799-0.25,2.448,0s3.049,2.298,3.599,4.097c0.55,1.799,1.367,4.868,2.116,5.018s6.376-0.584,10.149,1.117 c4.769,2.149,10.551,7.314,10.551,16.876c0,3.297-4.599,3.96-5.048,3.91s1.943,3.58-0.567,3.623 c-2.201,0.038-5.631,0.303-8.129,0.303c-2.768,0-5.257-0.277-5.265-0.732c-0.015-0.801,2.846-1.335,4.096-1.335 c1.249,0,4.294-0.191,4.344-0.491s-3.383-2.547-3.992-3.922c-0.95-2.143,0.41-2.279-0.12-3.411 c-0.409-0.874-2.088-2.617-5.802-2.617c-1.149,0-2.604,7.979-2.593,8.679c0.011,0.651-0.325,3.015-1.873,3.015 c-2.35,0-2.848,0.177-2.848-0.572c0-0.99,1.911-1.611,1.988-3.214c0.312-6.315-1.192-10.075-1.961-13.893 c-0.438-2.193-1.636-6.061-2.635-7.51C10.219,18.597,6.362,18.245,6.362,14.997z"/><path fill="#97989d" d="M6.544,15.023c0-0.761,1.276-2.092,2.347-2.821s2.627-1.216,3.551-1.459 c0.924-0.243,1.751-0.243,2.383,0c0.632,0.243,2.967,2.238,3.502,3.989c0.535,1.751,1.433,4.948,2.162,5.094 c0.73,0.146,6.415-0.576,10.229,1.167c4.931,2.254,10.427,7.443,10.427,16.77c0,3.21-4.638,3.81-5.076,3.761 c-0.438-0.049,2.041,3.643-0.44,3.69c-2.148,0.041-5.481,0.295-7.913,0.295c-2.687,0-5.341-0.258-5.35-0.711 c-0.016-0.779,2.988-1.282,4.204-1.282s4.284-0.19,4.333-0.482c0.049-0.292-3.477-2.649-4.083-3.981 c-0.981-2.157,0.438-2.296-0.077-3.483c-0.392-0.902-2.094-2.756-5.975-2.756c-1.119,0-2.64,8.277-2.628,8.957 c0.012,0.634-0.312,2.939-1.82,2.939c-2.264,0-2.773,0.181-2.773-0.549c0-0.957,1.874-1.584,1.957-3.143 c0.336-6.151-1.054-10.218-1.793-13.936c-0.422-2.141-1.814-6.222-2.786-7.633C10.288,18.528,6.544,18.185,6.544,15.023z"/><path fill="#98999e" d="M6.726,15.049c0-0.741,1.246-2.035,2.287-2.745c1.041-0.71,2.555-1.183,3.455-1.42 c0.899-0.237,1.704-0.237,2.319,0c0.615,0.237,2.885,2.177,3.406,3.88c0.521,1.704,1.498,5.029,2.208,5.171 c0.71,0.142,6.453-0.569,10.31,1.217c5.093,2.359,10.304,7.573,10.304,16.664c0,3.123-4.678,3.66-5.104,3.612 c-0.426-0.047,2.139,3.706-0.314,3.758c-2.095,0.044-5.331,0.287-7.697,0.287c-2.606,0-5.425-0.24-5.435-0.691 c-0.017-0.758,3.13-1.23,4.313-1.23c1.183,0,4.274-0.189,4.321-0.473c0.047-0.284-3.573-2.75-4.173-4.04 c-1.011-2.172,0.466-2.313-0.035-3.554c-0.375-0.93-2.1-2.895-6.148-2.895c-1.088,0-2.676,8.574-2.664,9.235 c0.013,0.617-0.3,2.864-1.767,2.864c-2.179,0-2.697,0.184-2.697-0.526c0-0.923,1.837-1.556,1.926-3.073 c0.36-5.986-0.915-10.36-1.626-13.979c-0.407-2.089-1.991-6.384-2.938-7.756C10.358,18.459,6.726,18.125,6.726,15.049z"/><path fill="#989a9e" d="M6.908,15.076c0-0.72,1.216-1.978,2.228-2.668c1.012-0.69,2.484-1.15,3.358-1.38s1.656-0.23,2.254,0 c0.598,0.23,2.803,2.116,3.309,3.772c0.506,1.656,1.564,5.109,2.254,5.247s6.491-0.561,10.39,1.268 c5.254,2.464,10.18,7.702,10.18,16.557c0,3.036-4.718,3.51-5.132,3.464c-0.414-0.046,2.237,3.77-0.187,3.825 c-2.042,0.046-5.181,0.279-7.481,0.279c-2.525,0-5.509-0.221-5.52-0.67c-0.018-0.737,3.271-1.177,4.421-1.177 c1.15,0,4.263-0.188,4.309-0.464c0.046-0.276-3.668-2.852-4.263-4.099c-1.043-2.186,0.493-2.33,0.008-3.626 c-0.359-0.958-2.106-3.035-6.32-3.035c-1.058,0-2.712,8.872-2.699,9.512c0.014,0.599-0.288,2.788-1.714,2.788 c-2.093,0-2.622,0.187-2.622-0.503c0-0.89,1.801-1.529,1.895-3.002c0.384-5.821-0.776-10.503-1.459-14.022 c-0.391-2.037-2.169-6.546-3.089-7.88C10.427,18.39,6.908,18.066,6.908,15.076z"/><path fill="#999b9f" d="M7.089,15.102c0-0.699,1.185-1.921,2.168-2.592s2.413-1.117,3.262-1.341 c0.849-0.223,1.609-0.223,2.19,0c0.581,0.223,2.721,2.056,3.213,3.664s1.63,5.189,2.3,5.323c0.67,0.134,6.53-0.552,10.47,1.318 c5.415,2.57,10.056,7.831,10.056,16.451c0,2.949-4.758,3.36-5.16,3.315s2.335,3.833-0.06,3.892 c-1.99,0.049-5.031,0.271-7.265,0.271c-2.444,0-5.593-0.202-5.605-0.649c-0.019-0.716,3.413-1.124,4.53-1.124 s4.253-0.187,4.298-0.456c0.045-0.268-3.764-2.953-4.354-4.158c-1.075-2.2,0.519-2.347,0.05-3.697 c-0.343-0.986-2.111-3.174-6.493-3.174c-1.028,0-2.749,9.17-2.734,9.79c0.014,0.582-0.276,2.712-1.661,2.712 c-2.008,0-2.547,0.19-2.547-0.48c0-0.857,1.764-1.502,1.864-2.932c0.408-5.657-0.638-10.646-1.292-14.065 c-0.375-1.985-2.346-6.707-3.24-8.003C10.496,18.321,7.089,18.006,7.089,15.102z"/><path fill="#9a9ca0" d="M7.271,15.128c0-0.679,1.155-1.865,2.109-2.515c0.954-0.65,2.342-1.084,3.166-1.301 s1.561-0.217,2.125,0c0.564,0.217,2.639,1.995,3.116,3.556c0.477,1.561,1.696,5.269,2.346,5.399 c0.65,0.13,6.568-0.544,10.551,1.368c5.576,2.677,9.933,7.961,9.933,16.345c0,2.862-4.797,3.21-5.188,3.166 c-0.39-0.043,2.433,3.896,0.066,3.959c-1.937,0.051-4.88,0.263-7.049,0.263c-2.363,0-5.678-0.184-5.69-0.629 c-0.019-0.695,3.554-1.071,4.638-1.071c1.084,0,4.243-0.187,4.286-0.447c0.043-0.26-3.861-3.053-4.444-4.217 c-1.109-2.213,0.545-2.364,0.093-3.768c-0.327-1.014-2.117-3.313-6.666-3.313c-0.997,0-2.785,9.467-2.77,10.068 c0.015,0.565-0.264,2.636-1.608,2.636c-1.923,0-2.472,0.194-2.472-0.457c0-0.824,1.727-1.475,1.834-2.862 c0.432-5.492-0.499-10.788-1.125-14.109c-0.36-1.934-2.523-6.869-3.391-8.127C10.566,18.252,7.271,17.947,7.271,15.128z"/><path fill="#9b9da1" d="M7.453,15.154c0-0.658,1.125-1.808,2.05-2.439s2.271-1.051,3.069-1.261 c0.799-0.21,1.514-0.21,2.06,0c0.547,0.21,2.557,1.934,3.02,3.448c0.463,1.514,1.761,5.349,2.392,5.476s6.605-0.535,10.631,1.419 c5.736,2.784,9.809,8.09,9.809,16.239c0,2.775-4.837,3.06-5.215,3.017c-0.378-0.042,2.53,3.959,0.193,4.026 c-1.884,0.054-4.73,0.255-6.833,0.255c-2.282,0-5.762-0.165-5.775-0.608c-0.02-0.673,3.696-1.018,4.747-1.018 s4.232-0.186,4.274-0.438c0.042-0.252-3.958-3.154-4.534-4.276c-1.143-2.226,0.571-2.381,0.135-3.84 c-0.311-1.042-2.123-3.453-6.838-3.453c-0.967,0-2.821,9.765-2.805,10.346c0.016,0.548-0.251,2.561-1.555,2.561 c-1.837,0-2.397,0.197-2.397-0.434c0-0.791,1.69-1.448,1.803-2.791c0.456-5.327-0.361-10.931-0.958-14.152 c-0.344-1.882-2.701-7.031-3.542-8.25C10.635,18.184,7.453,17.887,7.453,15.154z"/><path fill="#9c9ea2" d="M7.634,15.18c0-0.637,1.094-1.751,1.99-2.362c0.896-0.611,2.199-1.018,2.973-1.222 s1.466-0.204,1.996,0c0.529,0.204,2.475,1.873,2.923,3.34c0.448,1.466,1.827,5.43,2.438,5.552 c0.611,0.122,6.643-0.526,10.712,1.469c5.896,2.891,9.685,8.219,9.685,16.132c0,2.688-4.877,2.91-5.243,2.869 c-0.367-0.041,2.628,4.022,0.32,4.093c-1.832,0.056-4.58,0.247-6.617,0.247c-2.201,0-5.846-0.146-5.86-0.588 c-0.021-0.652,3.837-0.965,4.856-0.965c1.018,0,4.222-0.185,4.263-0.429c0.041-0.244-4.056-3.254-4.624-4.335 c-1.178-2.239,0.596-2.398,0.177-3.911c-0.296-1.07-2.129-3.592-7.011-3.592c-0.937,0-2.857,10.063-2.84,10.623 c0.017,0.53-0.239,2.485-1.502,2.485c-1.752,0-2.321,0.2-2.321-0.411c0-0.758,1.654-1.42,1.772-2.721 c0.48-5.163-0.222-11.073-0.79-14.195c-0.329-1.83-2.878-7.192-3.693-8.373C10.704,18.115,7.634,17.828,7.634,15.18z"/><path fill="#9d9fa3" d="M7.816,15.206c0-0.617,1.064-1.695,1.931-2.286c0.867-0.591,2.128-0.985,2.877-1.182 c0.749-0.197,1.419-0.197,1.931,0c0.512,0.197,2.393,1.813,2.827,3.232s1.893,5.51,2.484,5.628s6.681-0.517,10.792,1.519 c6.056,2.999,9.562,8.349,9.562,16.026c0,2.601-4.916,2.76-5.271,2.72c-0.355-0.039,2.726,4.085,0.447,4.16 c-1.779,0.058-4.43,0.239-6.4,0.239c-2.12,0-5.93-0.128-5.945-0.567c-0.022-0.631,3.979-0.912,4.964-0.912 c0.985,0,4.212-0.184,4.251-0.421c0.039-0.236-4.154-3.354-4.715-4.394c-1.214-2.25,0.621-2.415,0.22-3.983 c-0.281-1.099-2.134-3.731-7.184-3.731c-0.906,0-2.893,10.36-2.876,10.901c0.018,0.513-0.227,2.409-1.449,2.409 c-1.667,0-2.246,0.203-2.246-0.388c0-0.725,1.617-1.393,1.741-2.65c0.504-4.998-0.084-11.216-0.623-14.238 c-0.313-1.778-3.056-7.354-3.844-8.497C10.774,18.046,7.816,17.768,7.816,15.206z"/><path fill="#9ea0a4" d="M7.998,15.233c0-0.596,1.034-1.638,1.872-2.209c0.838-0.571,2.057-0.952,2.781-1.143 s1.371-0.19,1.866,0c0.495,0.19,2.311,1.752,2.73,3.123c0.419,1.371,1.959,5.59,2.53,5.704c0.571,0.114,6.718-0.507,10.872,1.57 c6.216,3.108,9.438,8.478,9.438,15.92c0,2.514-4.956,2.61-5.299,2.571c-0.343-0.038,2.824,4.148,0.573,4.227 c-1.726,0.06-4.28,0.232-6.184,0.232c-2.039,0-6.014-0.109-6.03-0.546c-0.022-0.61,4.121-0.859,5.073-0.859 s4.201-0.183,4.239-0.412c0.038-0.229-4.252-3.454-4.805-4.453c-1.251-2.262,0.645-2.432,0.262-4.054 c-0.266-1.127-2.14-3.871-7.357-3.871c-0.876,0-2.929,10.658-2.911,11.179c0.019,0.496-0.215,2.333-1.396,2.333 c-1.581,0-2.171,0.207-2.171-0.365c0-0.691,1.58-1.366,1.71-2.58c0.528-4.834,0.055-11.358-0.456-14.282 c-0.298-1.726-3.233-7.516-3.995-8.62C10.843,17.977,7.998,17.708,7.998,15.233z"/><path fill="#9fa1a5" d="M8.18,15.259c0-0.576,1.003-1.581,1.812-2.133c0.809-0.552,1.986-0.919,2.684-1.103 c0.699-0.184,1.324-0.184,1.802,0c0.478,0.184,2.229,1.691,2.634,3.015c0.404,1.324,2.024,5.67,2.576,5.781 s6.756-0.498,10.953,1.62c6.375,3.217,9.314,8.607,9.314,15.814c0,2.427-4.996,2.46-5.327,2.423 c-0.331-0.037,2.922,4.211,0.7,4.294c-1.673,0.062-4.13,0.224-5.968,0.224c-1.958,0-6.098-0.09-6.115-0.526 c-0.023-0.589,4.262-0.806,5.181-0.806c0.919,0,4.191-0.183,4.228-0.403s-4.351-3.554-4.895-4.512 c-1.29-2.272,0.67-2.449,0.305-4.126c-0.252-1.155-2.146-4.01-7.529-4.01c-0.846,0-2.966,10.956-2.946,11.456 c0.019,0.479-0.203,2.258-1.342,2.258c-1.496,0-2.096,0.21-2.096-0.342c0-0.658,1.543-1.339,1.679-2.51 c0.552-4.669,0.194-11.501-0.289-14.325c-0.282-1.674-3.411-7.677-4.146-8.744C10.912,17.908,8.18,17.649,8.18,15.259z"/><path fill="#a0a1a6" d="M8.361,15.285c0-0.555,0.973-1.524,1.753-2.056c0.78-0.532,1.914-0.886,2.588-1.064 c0.674-0.177,1.276-0.177,1.737,0c0.461,0.177,2.147,1.631,2.537,2.907c0.39,1.276,2.09,5.751,2.622,5.857s6.793-0.488,11.033,1.67 c6.534,3.326,9.191,8.736,9.191,15.707c0,2.34-5.036,2.31-5.355,2.274c-0.319-0.035,3.02,4.274,0.827,4.361 c-1.621,0.065-3.979,0.216-5.752,0.216c-1.877,0-6.182-0.072-6.2-0.505c-0.023-0.568,4.404-0.753,5.29-0.753 s4.18-0.182,4.216-0.394c0.035-0.213-4.45-3.653-4.986-4.571c-1.33-2.281,0.694-2.467,0.347-4.197 c-0.237-1.184-2.152-4.149-7.702-4.149c-0.815,0-3.002,11.253-2.981,11.734c0.02,0.461-0.19,2.182-1.289,2.182 c-1.41,0-2.021,0.213-2.021-0.319c0-0.625,1.507-1.312,1.648-2.439c0.576-4.504,0.332-11.643-0.122-14.368 c-0.266-1.622-3.588-7.839-4.297-8.867C10.982,17.839,8.361,17.589,8.361,15.285z"/><path fill="#a1a2a7" d="M8.543,15.311c0-0.534,0.942-1.468,1.693-1.98c0.751-0.512,1.843-0.853,2.492-1.024 c0.649-0.171,1.229-0.171,1.672,0s2.065,1.57,2.441,2.799s2.156,5.831,2.668,5.933c0.512,0.102,6.83-0.478,11.114,1.721 c6.693,3.435,9.067,8.866,9.067,15.601c0,2.253-5.075,2.16-5.382,2.125c-0.307-0.034,3.118,4.337,0.953,4.428 c-1.568,0.066-3.829,0.208-5.536,0.208c-1.797,0-6.266-0.053-6.285-0.485c-0.024-0.546,4.545-0.7,5.398-0.7s4.17-0.181,4.204-0.386 c0.034-0.205-4.55-3.752-5.076-4.63c-1.371-2.289,0.717-2.484,0.389-4.268c-0.223-1.213-2.158-4.289-7.875-4.289 c-0.785,0-3.038,11.551-3.017,12.012c0.021,0.444-0.178,2.106-1.236,2.106c-1.325,0-1.946,0.216-1.946-0.296 c0-0.592,1.47-1.284,1.618-2.369c0.6-4.34,0.471-11.786,0.045-14.411c-0.251-1.57-3.766-8.001-4.448-8.99 C11.051,17.77,8.543,17.53,8.543,15.311z"/><path fill="#a1a3a8" d="M8.725,15.337c0-0.514,0.912-1.411,1.634-1.903c0.722-0.492,1.772-0.82,2.395-0.984 c0.623-0.164,1.181-0.164,1.608,0c0.427,0.164,1.983,1.509,2.344,2.691s2.222,5.911,2.714,6.01 c0.492,0.098,6.867-0.468,11.194,1.771c6.852,3.546,8.943,8.995,8.943,15.495c0,2.166-5.115,2.01-5.41,1.977 c-0.295-0.033,3.215,4.399,1.08,4.495c-1.515,0.068-3.679,0.2-5.32,0.2c-1.716,0-6.35-0.034-6.37-0.464 c-0.024-0.525,4.687-0.647,5.507-0.647c0.82,0,4.16-0.18,4.192-0.377s-4.65-3.851-5.166-4.689c-1.415-2.297,0.741-2.502,0.432-4.34 c-0.208-1.241-2.163-4.428-8.048-4.428c-0.755,0-3.074,11.849-3.052,12.289c0.022,0.427-0.166,2.03-1.183,2.03 c-1.24,0-1.87,0.22-1.87-0.272c0-0.559,1.433-1.257,1.587-2.299c0.624-4.175,0.609-11.929,0.213-14.454 c-0.235-1.518-3.943-8.162-4.6-9.114C11.12,17.701,8.725,17.47,8.725,15.337z"/><path fill="#a2a4a9" d="M8.907,15.364c0-0.493,0.882-1.354,1.575-1.827c0.693-0.472,1.701-0.787,2.299-0.945 s1.134-0.157,1.543,0s1.901,1.449,2.248,2.583c0.346,1.134,2.287,5.991,2.76,6.086s6.904-0.458,11.274,1.821 c7.01,3.656,8.82,9.124,8.82,15.389c0,2.079-5.155,1.859-5.438,1.828s3.313,4.461,1.207,4.562c-1.463,0.07-3.529,0.192-5.104,0.192 c-1.635,0-6.434-0.016-6.455-0.443c-0.025-0.504,4.828-0.595,5.616-0.595s4.149-0.179,4.181-0.368s-4.75-3.949-5.256-4.748 c-1.46-2.302,0.764-2.52,0.474-4.411c-0.194-1.27-2.169-4.567-8.22-4.567c-0.724,0-3.11,12.146-3.087,12.567 c0.023,0.41-0.154,1.955-1.13,1.955c-1.154,0-1.795,0.223-1.795-0.249c0-0.526,1.396-1.23,1.556-2.228 c0.648-4.01,0.748-12.071,0.38-14.498c-0.22-1.466-4.121-8.324-4.751-9.237C11.19,17.633,8.907,17.411,8.907,15.364z"/><path fill="#a3a5aa" d="M9.088,15.39c0-0.472,0.851-1.298,1.515-1.75c0.664-0.453,1.629-0.754,2.203-0.905 c0.573-0.151,1.086-0.151,1.479,0c0.392,0.151,1.819,1.388,2.151,2.474c0.332,1.086,2.353,6.072,2.806,6.162 c0.453,0.091,6.941-0.448,11.355,1.872c7.168,3.767,8.696,9.254,8.696,15.283c0,1.992-5.194,1.709-5.466,1.679 c-0.272-0.03,3.411,4.519,1.334,4.63c-1.41,0.069-3.379,0.184-4.888,0.184c-1.554,0-6.518,0.003-6.54-0.423 c-0.025-0.483,4.97-0.542,5.724-0.542c0.754,0,4.139-0.179,4.169-0.36c0.03-0.181-4.85-4.047-5.347-4.807 c-1.507-2.306,0.787-2.537,0.517-4.483c-0.18-1.299-2.175-4.707-8.393-4.707c-0.694,0-3.146,12.444-3.123,12.845 c0.024,0.393-0.142,1.879-1.077,1.879c-1.069,0-1.72,0.226-1.72-0.226c0-0.493,1.359-1.203,1.525-2.158 c0.672-3.846,0.886-12.214,0.547-14.541c-0.204-1.414-4.298-8.486-4.902-9.361C11.259,17.564,9.088,17.351,9.088,15.39z"/><path fill="#a4a6ab" d="M9.27,15.416c0-0.452,0.821-1.241,1.456-1.674c0.635-0.433,1.558-0.721,2.106-0.866 s1.039-0.144,1.414,0s1.737,1.327,2.055,2.366c0.317,1.039,2.419,6.152,2.852,6.238c0.433,0.087,6.973-0.429,11.435,1.922 c7.319,3.892,8.572,9.383,8.572,15.176c0,1.905-5.234,1.559-5.494,1.531c-0.26-0.029,3.509,4.583,1.46,4.697 c-1.358,0.072-3.229,0.176-4.672,0.176c-1.473,0-6.601,0.021-6.625-0.402c-0.026-0.462,5.111-0.489,5.833-0.489 s4.129-0.178,4.157-0.351c0.029-0.173-4.951-4.144-5.437-4.866c-1.556-2.308,0.81-2.555,0.559-4.554 c-0.166-1.328-2.181-4.846-8.566-4.846c-0.664,0-3.183,12.741-3.158,13.122c0.025,0.375-0.129,1.803-1.024,1.803 c-0.984,0-1.645,0.229-1.645-0.203c0-0.46,1.323-1.176,1.494-2.087c0.696-3.681,1.025-12.356,0.714-14.584 c-0.188-1.362-4.476-8.647-5.053-9.484C11.328,17.495,9.27,17.292,9.27,15.416z"/><path fill="#a5a7ac" d="M9.452,15.442c0-0.431,0.791-1.184,1.397-1.597s1.487-0.688,2.01-0.826 c0.523-0.138,0.991-0.138,1.349,0c0.358,0.138,1.655,1.267,1.958,2.258s2.485,6.232,2.898,6.315 c0.413,0.083,7.012-0.423,11.516,1.972c7.48,3.996,8.449,9.512,8.449,15.07c0,1.817-5.274,1.409-5.522,1.382 c-0.248-0.028,3.607,4.646,1.587,4.764c-1.305,0.074-3.079,0.168-4.455,0.168c-1.392,0-6.685,0.04-6.71-0.381 c-0.025-0.441,5.253-0.436,5.941-0.436s4.118-0.177,4.146-0.342c0.028-0.165-5.051-4.242-5.527-4.925 c-1.608-2.308,0.832-2.573,0.602-4.625c-0.152-1.357-2.186-4.985-8.738-4.985c-0.633,0-3.219,13.039-3.193,13.4 c0.025,0.358-0.117,1.727-0.971,1.727c-0.898,0-1.57,0.233-1.57-0.18c0-0.426,1.286-1.148,1.463-2.017 c0.72-3.516,1.163-12.499,0.881-14.627c-0.173-1.31-4.653-8.809-5.204-9.607C11.398,17.426,9.452,17.232,9.452,15.442z"/><path fill="#a6a8ad" d="M9.633,15.468c0-0.41,0.76-1.127,1.337-1.521c0.577-0.393,1.416-0.655,1.914-0.787 s0.944-0.131,1.285,0c0.341,0.131,1.573,1.206,1.861,2.15s2.55,6.312,2.944,6.391c0.393,0.079,7.051-0.417,11.596,2.023 c7.641,4.101,8.325,9.642,8.325,14.964c0,1.73-5.314,1.259-5.55,1.233s3.704,4.709,1.714,4.831c-1.252,0.077-2.928,0.16-4.239,0.16 s-6.769,0.059-6.795-0.361c-0.026-0.419,5.395-0.383,6.05-0.383c0.655,0,4.108-0.176,4.134-0.333 c0.026-0.157-5.152-4.338-5.618-4.984c-1.662-2.305,0.855-2.591,0.644-4.697c-0.139-1.386-2.192-5.125-8.911-5.125 c-0.603,0-3.255,13.337-3.229,13.678c0.026,0.341-0.105,1.652-0.918,1.652c-0.813,0-1.494,0.236-1.494-0.157 c0-0.393,1.249-1.121,1.432-1.947c0.744-3.352,1.302-12.641,1.048-14.671c-0.157-1.258-4.831-8.97-5.355-9.731 C11.467,17.357,9.633,17.172,9.633,15.468z"/><linearGradient id="V1f21nCcN6MIgPCGLgnEPd" x1="14.325" x2="22" y1="7.307" y2="7.307" gradientUnits="userSpaceOnUse"><stop offset="0" stop-color="#919397"/><stop offset="1" stop-color="#a4a6ab"/></linearGradient><path fill="url(#V1f21nCcN6MIgPCGLgnEPd)" d="M14.325,9.814c0.697-0.75,1.19-2.131,1.918-3.716C17.059,4.321,18.205,2,20,2	c1.287,0,2,1.786,2,3.335c0,7.564-4.838,6.234-5.547,7.279C16.738,10.925,14.99,9.861,14.325,9.814z"/><radialGradient id="V1f21nCcN6MIgPCGLgnEPe" cx="14.967" cy="4.704" r="6.364" gradientTransform="matrix(.8389 .5416 -.8896 1.3642 6.596 -10.134)" gradientUnits="userSpaceOnUse"><stop offset="0" stop-color="#bd704a"/><stop offset=".202" stop-color="#bd734e"/><stop offset=".396" stop-color="#bf7a59"/><stop offset=".586" stop-color="#c1876d"/><stop offset=".774" stop-color="#c49988"/><stop offset=".959" stop-color="#c8b0aa"/><stop offset="1" stop-color="#c9b6b3"/></radialGradient><path fill="url(#V1f21nCcN6MIgPCGLgnEPe)" d="M15.06,10.419C16.583,10.073,17.975,3,20,3c0.982,0,1,1.515,1,2	c0,6.36-4.101,5.712-4.861,6.268C15.505,11.733,16.69,10.006,15.06,10.419z"/><path fill="#6d6e6e" d="M4.35,14.776c-0.128,0.017-0.246-0.054-0.347-0.137C4.003,14.645,4,14.652,4,14.657	c0,0.535,0.082,1.009,0.224,1.436c0,0,0.354-0.816,1.532-1.316C5.649,14.491,4.664,14.736,4.35,14.776z"/><radialGradient id="V1f21nCcN6MIgPCGLgnEPf" cx="438.366" cy="-1179.148" r="2.857" gradientTransform="matrix(0 .8085 .7828 0 929.788 -338.407)" gradientUnits="userSpaceOnUse"><stop offset="0" stop-color="#aeb0b8"/><stop offset=".736" stop-color="#a7a9af" stop-opacity=".264"/><stop offset="1" stop-color="#a3a5ab" stop-opacity="0"/></radialGradient><ellipse cx="6.772" cy="16.031" fill="url(#V1f21nCcN6MIgPCGLgnEPf)" rx="2.236" ry="2.31"/><radialGradient id="V1f21nCcN6MIgPCGLgnEPg" cx="463.84" cy="-1145.555" r="7.566" gradientTransform="matrix(-.6148 .5251 .3468 .4061 715.567 258.246)" gradientUnits="userSpaceOnUse"><stop offset="0" stop-color="#aeb0b8"/><stop offset=".736" stop-color="#a7a9af" stop-opacity=".264"/><stop offset="1" stop-color="#a3a5ab" stop-opacity="0"/></radialGradient><path fill="url(#V1f21nCcN6MIgPCGLgnEPg)" d="M28.416,40.601c1.449,1.697,4.707,1.294,7.276-0.901c2.569-2.194,3.477-5.349,2.028-7.046	c-1.449-1.697-4.707-1.294-7.276,0.901S26.967,38.904,28.416,40.601z"/><radialGradient id="V1f21nCcN6MIgPCGLgnEPh" cx="434.608" cy="-1172.758" r="3.248" gradientTransform="matrix(0 .6447 .7828 0 929.788 -267.19)" gradientUnits="userSpaceOnUse"><stop offset=".377" stop-color="#c1c3c9"/><stop offset=".627" stop-color="#b8bac0" stop-opacity=".599"/><stop offset="1" stop-color="#a3a5ab" stop-opacity="0"/></radialGradient><ellipse cx="11.773" cy="12.992" fill="url(#V1f21nCcN6MIgPCGLgnEPh)" rx="2.543" ry="2.094"/><radialGradient id="V1f21nCcN6MIgPCGLgnEPi" cx="344.692" cy="-441.638" r=".997" gradientTransform="matrix(.2857 -.9569 .9394 .2903 327.985 470.975)" gradientUnits="userSpaceOnUse"><stop offset="0" stop-color="#dbd2c6"/><stop offset=".061" stop-color="#d3cbbf"/><stop offset=".156" stop-color="#beb6ab"/><stop offset=".272" stop-color="#9a948c"/><stop offset=".403" stop-color="#6a6660"/><stop offset=".406" stop-color="#64615b"/><stop offset=".433" stop-color="#393734"/><stop offset=".457" stop-color="#1a1917"/><stop offset=".477" stop-color="#070706"/><stop offset=".492"/></radialGradient><path fill="url(#V1f21nCcN6MIgPCGLgnEPi)" d="M11.757,12.071c0.624,0.012,1.118,0.631,1.11,1.07c-0.008,0.438-0.516,0.529-1.14,0.518	c-0.624-0.012-1.128-0.122-1.12-0.56C10.616,12.659,11.133,12.059,11.757,12.071z"/></svg>