<svg xmlns="http://www.w3.org/2000/svg" viewBox="0 0 48 48"><radialGradient id="q6PF_hOFHpyFFdWcD9P9wa" cx="18.03" cy="16.483" r="29.269" gradientTransform="matrix(1 0 0 .5981 0 6.625)" gradientUnits="userSpaceOnUse"><stop offset="0" stop-color="#ffe16e"/><stop offset=".629" stop-color="#ffd226"/><stop offset=".75" stop-color="#fdcd23"/><stop offset=".9" stop-color="#f6bd1b"/><stop offset="1" stop-color="#f0af13"/></radialGradient><path fill="url(#q6PF_hOFHpyFFdWcD9P9wa)" d="M44.69,10H7c-2.761,0-5,2.239-5,5v13c0,1.105,0.895,2,2,2h5.937l-0.367,0.333	c-1.143,1.037-1.12,2.839,0.048,3.847l2.501,2.158c1.02,0.88,2.547,0.822,3.498-0.132l0,0c3.472-3.484,7.699-6.121,12.354-7.708	l0.06-0.02c2.652-0.911,4.887-2.112,6.437-3.518C36.567,23.056,39.292,22,42.125,22h2.565c0.71,0,1.285-2.686,1.285-6	S45.4,10,44.69,10z"/><radialGradient id="q6PF_hOFHpyFFdWcD9P9wb" cx="8.984" cy="18.707" r="3.565" gradientTransform="matrix(.9638 .2666 -.4059 1.4672 7.917 -11.136)" gradientUnits="userSpaceOnUse"><stop offset=".572" stop-color="#ffd430" stop-opacity="0"/><stop offset=".624" stop-color="#fac726" stop-opacity=".12"/><stop offset=".707" stop-color="#f4b91b" stop-opacity=".314"/><stop offset=".811" stop-color="#f1b115" stop-opacity=".558"/><stop offset="1" stop-color="#f0af13"/></radialGradient><path fill="url(#q6PF_hOFHpyFFdWcD9P9wb)" d="M10.631,16.17c0.25,1.394-0.149,3.574-1.234,4.149l1.185,2.211l0.977-0.417	c0.148-1.073,0.874-1.976,2.154-2.716L10.631,16.17z"/><path fill="#f0af13" d="M11.479,23.713l-1.215-0.138l0-1.749c0.321,0.337,1.124,0.349,1.295,0.068L11.479,23.713z"/><path fill="#fac821" d="M14.513,20.342l-0.624-0.959c-1.844,1.204-2.662,2.621-2.493,4.285 c-0.2-0.069-0.41-0.115-0.629-0.124l-0.692-0.027l-0.616,1.015c0,0,0.609,0.012,1.156,0.153c0.424,0.098,0.711,0.357,0.915,0.7 c0.249,0.416,0.438,1.253,0.625,1.549l1.805-1.224C12.236,23.088,12.068,21.908,14.513,20.342z" opacity=".091"/><path fill="#f9c61f" d="M14.451,20.247l-0.57-0.879c-1.849,1.208-2.664,2.626-2.485,4.294 c-0.204-0.072-0.418-0.122-0.643-0.131l-0.692-0.027l-0.557,0.941c0,0,0.617,0.013,1.11,0.141c0.488,0.102,0.755,0.386,0.972,0.754 c0.224,0.374,0.424,1.201,0.619,1.517l1.652-1.118C12.094,23.092,11.985,21.797,14.451,20.247z" opacity=".182"/><path fill="#f8c31e" d="M14.39,20.153l-0.516-0.799c-1.854,1.211-2.666,2.631-2.478,4.303 c-0.208-0.076-0.427-0.129-0.657-0.138l-0.692-0.027l-0.498,0.867c0,0,0.625,0.015,1.063,0.128 c0.551,0.107,0.799,0.416,1.029,0.807c0.2,0.333,0.411,1.148,0.613,1.485l1.5-1.013C11.951,23.095,11.902,21.686,14.39,20.153z" opacity=".273"/><path fill="#f7c11d" d="M14.328,20.058l-0.463-0.719c-1.86,1.215-2.667,2.635-2.471,4.312 c-0.212-0.08-0.435-0.136-0.671-0.146l-0.692-0.027l-0.44,0.794c0,0,0.634,0.016,1.017,0.116c0.615,0.112,0.843,0.446,1.086,0.861 c0.175,0.291,0.397,1.096,0.607,1.453l1.347-0.907C11.808,23.099,11.819,21.576,14.328,20.058z" opacity=".364"/><path fill="#f6be1b" d="M14.266,19.964l-0.409-0.639c-1.865,1.218-2.669,2.64-2.463,4.321 c-0.216-0.084-0.444-0.143-0.685-0.153l-0.692-0.027l-0.381,0.72c0,0,0.642,0.018,0.971,0.103c0.679,0.116,0.888,0.475,1.143,0.915 c0.15,0.249,0.383,1.044,0.601,1.421l1.195-0.801C11.665,23.103,11.737,21.465,14.266,19.964z" opacity=".455"/><path fill="#f5bc1a" d="M14.205,19.869L13.85,19.31c-1.87,1.222-2.671,2.645-2.456,4.331 c-0.22-0.088-0.452-0.15-0.699-0.16l-0.692-0.027L9.68,24.1c0,0,0.65,0.019,0.924,0.09c0.743,0.121,0.932,0.505,1.2,0.968 c0.125,0.208,0.37,0.991,0.596,1.389l1.042-0.696C11.522,23.107,11.654,21.354,14.205,19.869z" opacity=".545"/><path fill="#f4b918" d="M14.143,19.775l-0.301-0.479c-1.876,1.225-2.673,2.65-2.449,4.34 c-0.224-0.092-0.461-0.158-0.713-0.167l-0.692-0.027l-0.264,0.573c0,0,0.659,0.021,0.878,0.078 c0.806,0.125,0.976,0.535,1.257,1.022c0.1,0.166,0.356,0.939,0.59,1.357l0.89-0.59C11.38,23.11,11.571,21.244,14.143,19.775z" opacity=".636"/><path fill="#f3b717" d="M14.081,19.68l-0.247-0.399c-1.881,1.229-2.675,2.655-2.441,4.349 c-0.228-0.096-0.469-0.165-0.727-0.175l-0.692-0.027l-0.205,0.5c0,0,0.667,0.023,0.832,0.065c0.87,0.13,1.02,0.564,1.314,1.076 c0.075,0.125,0.342,0.887,0.584,1.325l0.737-0.485C11.237,23.114,11.488,21.133,14.081,19.68z" opacity=".727"/><path fill="#f2b416" d="M14.02,19.586l-0.194-0.319c-1.886,1.232-2.676,2.659-2.434,4.358 c-0.232-0.099-0.478-0.172-0.741-0.182l-0.692-0.027l-0.147,0.426c0,0,0.676,0.024,0.785,0.053 c0.934,0.134,1.064,0.594,1.371,1.129c0.05,0.083,0.329,0.835,0.578,1.293l0.584-0.379C11.094,23.118,11.405,21.023,14.02,19.586z" opacity=".818"/><path fill="#f1b214" d="M13.958,19.492l-0.14-0.239c-1.892,1.236-2.678,2.664-2.427,4.367 c-0.237-0.103-0.486-0.179-0.755-0.189l-0.692-0.027l-0.088,0.352c0,0,0.684,0.026,0.739,0.04c0.998,0.139,1.108,0.624,1.427,1.183 c0.025,0.042,0.315,0.782,0.572,1.261l0.432-0.273C10.951,23.122,11.323,20.912,13.958,19.492z" opacity=".909"/><path fill="#f0af13" d="M13.897,19.397l-0.086-0.159c-1.897,1.239-2.68,2.669-2.419,4.376 c-0.241-0.107-0.495-0.186-0.769-0.197L9.93,23.391L9.9,23.669l0.692,0.027c1.061,0.144,1.152,0.653,1.484,1.237 c0,0,0.302,0.73,0.566,1.229l0.279-0.168C10.809,23.125,11.24,20.801,13.897,19.397z"/><g><linearGradient id="q6PF_hOFHpyFFdWcD9P9wc" x1="9.851" x2="7.171" y1="19.105" y2="26.764" gradientUnits="userSpaceOnUse"><stop offset=".017" stop-color="#fed228"/><stop offset=".41" stop-color="#fdce23"/><stop offset=".898" stop-color="#fed125"/></linearGradient><path fill="url(#q6PF_hOFHpyFFdWcD9P9wc)" d="M6.761,27.127l-0.923-1.199c1.179-0.581,3.202-2.225,3.212-3.252 c0.007-0.788-0.191-1.779-1.14-2.38l0.564-1.117c1.485,1.227,1.642,2.209,1.623,3.327C10.066,24.244,8.819,25.546,6.761,27.127z" opacity=".091"/><linearGradient id="q6PF_hOFHpyFFdWcD9P9wd" x1="9.917" x2="7.236" y1="19.128" y2="26.787" gradientUnits="userSpaceOnUse"><stop offset=".017" stop-color="#fed22b"/><stop offset=".41" stop-color="#fbcb22"/><stop offset=".898" stop-color="#fed125"/></linearGradient><path fill="url(#q6PF_hOFHpyFFdWcD9P9wd)" d="M6.761,27.127L5.91,26.022c1.249-0.668,3.229-2.28,3.24-3.337 c0.008-0.792-0.215-1.834-1.194-2.479l0.519-1.027c1.48,1.223,1.691,2.216,1.672,3.329C10.115,24.241,8.816,25.548,6.761,27.127z" opacity=".182"/><linearGradient id="q6PF_hOFHpyFFdWcD9P9we" x1="9.947" x2="7.266" y1="19.138" y2="26.797" gradientUnits="userSpaceOnUse"><stop offset=".017" stop-color="#fed32f"/><stop offset=".41" stop-color="#fac820"/><stop offset=".898" stop-color="#fed125"/></linearGradient><path fill="url(#q6PF_hOFHpyFFdWcD9P9we)" d="M6.761,27.127l-0.779-1.012c1.32-0.754,3.256-2.335,3.268-3.422 C9.258,21.898,9.01,20.804,8,20.116l0.473-0.937c1.475,1.219,1.739,2.224,1.72,3.332C10.164,24.238,8.814,25.55,6.761,27.127z" opacity=".273"/><linearGradient id="q6PF_hOFHpyFFdWcD9P9wf" x1="9.972" x2="7.291" y1="19.147" y2="26.806" gradientUnits="userSpaceOnUse"><stop offset=".017" stop-color="#fed432"/><stop offset=".41" stop-color="#f9c51e"/><stop offset=".898" stop-color="#fed125"/></linearGradient><path fill="url(#q6PF_hOFHpyFFdWcD9P9wf)" d="M6.761,27.127l-0.707-0.919c1.39-0.84,3.283-2.391,3.296-3.506 c0.009-0.799-0.264-1.945-1.304-2.676l0.428-0.847c1.47,1.215,1.788,2.232,1.769,3.334C10.212,24.235,8.812,25.551,6.761,27.127z" opacity=".364"/><linearGradient id="q6PF_hOFHpyFFdWcD9P9wg" x1="9.998" x2="7.317" y1="19.156" y2="26.815" gradientUnits="userSpaceOnUse"><stop offset=".017" stop-color="#fed535"/><stop offset=".41" stop-color="#f8c21d"/><stop offset=".898" stop-color="#fed125"/></linearGradient><path fill="url(#q6PF_hOFHpyFFdWcD9P9wg)" d="M6.761,27.127l-0.635-0.825c1.46-0.927,3.309-2.446,3.324-3.591 c0.01-0.802-0.288-2-1.358-2.774l0.382-0.758c1.466,1.211,1.836,2.239,1.817,3.337C10.261,24.232,8.809,25.553,6.761,27.127z" opacity=".455"/><linearGradient id="q6PF_hOFHpyFFdWcD9P9wh" x1="10.023" x2="7.342" y1="19.165" y2="26.824" gradientUnits="userSpaceOnUse"><stop offset=".017" stop-color="#ffd538"/><stop offset=".41" stop-color="#f6be1b"/><stop offset=".898" stop-color="#fed025"/></linearGradient><path fill="url(#q6PF_hOFHpyFFdWcD9P9wh)" d="M6.761,27.127l-0.564-0.732c1.53-1.013,3.336-2.501,3.352-3.676 c0.011-0.806-0.313-2.055-1.413-2.873l0.337-0.668c1.461,1.207,1.885,2.247,1.866,3.339C10.31,24.229,8.807,25.555,6.761,27.127z" opacity=".545"/><linearGradient id="q6PF_hOFHpyFFdWcD9P9wi" x1="10.049" x2="7.368" y1="19.174" y2="26.833" gradientUnits="userSpaceOnUse"><stop offset=".017" stop-color="#ffd63b"/><stop offset=".41" stop-color="#f5bb1a"/><stop offset=".898" stop-color="#fed025"/></linearGradient><path fill="url(#q6PF_hOFHpyFFdWcD9P9wi)" d="M6.761,27.127l-0.492-0.639c1.6-1.1,3.363-2.556,3.381-3.761 c0.012-0.81-0.337-2.111-1.468-2.971l0.292-0.578c1.456,1.203,1.933,2.254,1.914,3.342C10.358,24.226,8.805,25.557,6.761,27.127z" opacity=".636"/><linearGradient id="q6PF_hOFHpyFFdWcD9P9wj" x1="10.075" x2="7.394" y1="19.183" y2="26.842" gradientUnits="userSpaceOnUse"><stop offset=".017" stop-color="#ffd73e"/><stop offset=".41" stop-color="#f4b818"/><stop offset=".898" stop-color="#fed025"/></linearGradient><path fill="url(#q6PF_hOFHpyFFdWcD9P9wj)" d="M6.761,27.127l-0.42-0.545c1.67-1.186,3.39-2.611,3.409-3.845 c0.012-0.813-0.362-2.166-1.522-3.07l0.246-0.488c1.452,1.199,1.982,2.262,1.963,3.344C10.407,24.223,8.802,25.559,6.761,27.127z" opacity=".727"/><linearGradient id="q6PF_hOFHpyFFdWcD9P9wk" x1="10.101" x2="7.42" y1="19.192" y2="26.852" gradientUnits="userSpaceOnUse"><stop offset=".017" stop-color="#ffd842"/><stop offset=".41" stop-color="#f3b516"/><stop offset=".898" stop-color="#fed025"/></linearGradient><path fill="url(#q6PF_hOFHpyFFdWcD9P9wk)" d="M6.761,27.127l-0.348-0.452c1.741-1.272,3.416-2.666,3.437-3.93 c0.013-0.817-0.386-2.221-1.577-3.168l0.201-0.398c1.447,1.195,2.03,2.269,2.011,3.347C10.455,24.22,8.8,25.561,6.761,27.127z" opacity=".818"/><linearGradient id="q6PF_hOFHpyFFdWcD9P9wl" x1="10.127" x2="7.446" y1="19.201" y2="26.861" gradientUnits="userSpaceOnUse"><stop offset=".017" stop-color="#ffd845"/><stop offset=".41" stop-color="#f1b215"/><stop offset=".898" stop-color="#fed025"/></linearGradient><path fill="url(#q6PF_hOFHpyFFdWcD9P9wl)" d="M6.761,27.127l-0.276-0.359c1.811-1.359,3.443-2.721,3.465-4.015 c0.014-0.821-0.411-2.277-1.632-3.267l0.156-0.308c1.442,1.191,2.078,2.277,2.06,3.349C10.504,24.217,8.797,25.563,6.761,27.127z" opacity=".909"/><linearGradient id="q6PF_hOFHpyFFdWcD9P9wm" x1="10.153" x2="7.473" y1="19.21" y2="26.87" gradientUnits="userSpaceOnUse"><stop offset=".017" stop-color="#ffd948"/><stop offset=".41" stop-color="#f0af13"/><stop offset=".898" stop-color="#fed025"/></linearGradient><path fill="url(#q6PF_hOFHpyFFdWcD9P9wm)" d="M6.761,27.127l-0.204-0.265c1.881-1.445,3.47-2.776,3.493-4.099 c0.015-0.824-0.435-2.332-1.686-3.365l0.11-0.218c1.438,1.188,2.127,2.284,2.108,3.352C10.553,24.214,8.795,25.564,6.761,27.127z"/></g><g opacity=".5"><linearGradient id="q6PF_hOFHpyFFdWcD9P9wn" x1="8.928" x2="45.787" y1="22.9" y2="22.9" gradientUnits="userSpaceOnUse"><stop offset="0" stop-color="#f0af13"/><stop offset=".519" stop-color="#fed026" stop-opacity=".49"/><stop offset=".999" stop-color="#fecf24"/></linearGradient><linearGradient id="q6PF_hOFHpyFFdWcD9P9wo" x1="8.922" x2="45.798" y1="23.207" y2="23.207" gradientUnits="userSpaceOnUse"><stop offset="0" stop-color="#efae13"/><stop offset=".519" stop-color="#fccc24" stop-opacity=".536"/><stop offset=".999" stop-color="#fccb23"/></linearGradient><path fill="url(#q6PF_hOFHpyFFdWcD9P9wo)" d="M45.524,11.694c-0.161,2.106-0.469,3.686-1.009,3.833 c-0.013,0.06-1.08,0.102-1.097,0.102l-1.42-0.002c-0.39,0-0.902,0.021-1.286,0.064c-2.408,0.243-4.65,1.238-6.459,2.879 c-1.55,1.406-3.788,2.638-6.44,3.549l-0.06,0.02c-4.47,1.523-8.58,4.007-11.97,7.287c-0.157,0.152-0.314,0.302-0.47,0.451 c-0.82,0.786-1.343,2.031-2.098,1.828c-0.119-0.024-0.277-0.125-0.415-0.244l-2.049-1.729l-0.109,0.081 c-0.525,0.256-0.953,0.523-1.249,0.797c-0.61,0.75-0.679,1.545,0.105,2.221l2.05,1.479c0.209,0.181,0.516,0.333,0.782,0.372 c0.992,0.199,2.249-0.401,3.003-1.125c0.147-0.142,0.294-0.284,0.441-0.426c3.373-3.269,7.426-5.757,11.871-7.285 c0.002-0.001,0.058-0.02,0.059-0.02c0.312-0.108,0.606-0.223,0.886-0.345c0.021-0.009,0.047-0.021,0.068-0.03 c2.017-0.897,3.204-2.168,4.558-3.367c0.438-0.387,0.934-0.751,1.467-1.088c2.088-1.325,4.855-2.157,7.125-2.178 c0.031-0.003,1.07-0.029,1.102-0.029l1.471-0.033c0.248,0,0.587-0.249,0.782-0.726c0.364-0.767,0.619-2.274,0.635-4.343 C45.802,12.991,45.568,12.326,45.524,11.694z" opacity=".091"/><linearGradient id="q6PF_hOFHpyFFdWcD9P9wp" x1="8.914" x2="45.809" y1="23.518" y2="23.518" gradientUnits="userSpaceOnUse"><stop offset="0" stop-color="#eeac13"/><stop offset=".519" stop-color="#f9c723" stop-opacity=".583"/><stop offset=".999" stop-color="#f9c621"/></linearGradient><path fill="url(#q6PF_hOFHpyFFdWcD9P9wp)" d="M45.569,12.124c-0.145,1.884-0.441,3.585-0.962,3.88 c-0.026,0.12-1.003,0.205-1.038,0.205l-1.432-0.003c-0.351,0-0.948,0.017-1.293,0.056c-2.451,0.219-4.703,1.204-6.541,2.871 c-1.55,1.406-3.79,2.669-6.443,3.58l-0.06,0.02c-4.488,1.53-8.65,4.019-12.048,7.319c-0.158,0.153-0.319,0.303-0.479,0.449 c-0.832,0.756-1.418,1.87-2.182,1.616c-0.107-0.022-0.284-0.151-0.408-0.258l-2.038-1.77l-0.108,0.062 c-0.519,0.191-0.931,0.38-1.208,0.572c-0.567,0.763-0.601,1.573,0.178,2.244l2.03,1.491c0.189,0.163,0.53,0.356,0.77,0.391 c0.979,0.254,2.234-0.279,3.006-0.989c0.149-0.138,0.297-0.278,0.444-0.421c3.36-3.267,7.397-5.757,11.827-7.294 c0.003-0.001,0.056-0.019,0.059-0.021c0.309-0.108,0.603-0.222,0.884-0.341c0.019-0.008,0.049-0.021,0.067-0.029 c2.009-0.874,3.248-2.099,4.605-3.272c0.446-0.383,0.939-0.748,1.461-1.089c2.063-1.359,4.785-2.21,7.074-2.251 c0.063-0.006,1.032-0.031,1.096-0.031l1.465-0.03c0.223,0,0.643-0.224,0.819-0.654c0.384-0.69,0.661-2.214,0.693-4.31 C45.817,13.428,45.608,12.764,45.569,12.124z" opacity=".182"/><linearGradient id="q6PF_hOFHpyFFdWcD9P9wq" x1="8.904" x2="45.819" y1="23.833" y2="23.833" gradientUnits="userSpaceOnUse"><stop offset="0" stop-color="#edab14"/><stop offset=".519" stop-color="#f7c321" stop-opacity=".629"/><stop offset=".999" stop-color="#f7c220"/></linearGradient><path fill="url(#q6PF_hOFHpyFFdWcD9P9wq)" d="M45.615,12.555c-0.128,1.661-0.412,3.484-0.914,3.927 c-0.039,0.18-0.926,0.307-0.979,0.307l-1.443-0.005c-0.312,0-0.993,0.014-1.301,0.048c-2.493,0.194-4.755,1.169-6.623,2.863 c-1.55,1.406-3.793,2.7-6.445,3.61l-0.06,0.02c-4.507,1.536-8.719,4.031-12.126,7.352c-0.159,0.155-0.323,0.304-0.488,0.446 c-0.843,0.729-1.494,1.71-2.266,1.404c-0.095-0.019-0.291-0.177-0.401-0.272l-2.026-1.812l-0.107,0.043 c-0.512,0.126-0.909,0.236-1.167,0.346c-0.523,0.775-0.522,1.6,0.251,2.268l2.01,1.502c0.168,0.145,0.544,0.38,0.757,0.41 c0.967,0.309,2.22-0.155,3.008-0.852c0.151-0.134,0.3-0.272,0.446-0.415c3.347-3.265,7.368-5.758,11.783-7.303 c0.005-0.002,0.054-0.019,0.059-0.021c0.307-0.108,0.6-0.221,0.882-0.338c0.017-0.007,0.05-0.021,0.066-0.028 c2-0.851,3.29-2.033,4.653-3.178c0.453-0.38,0.945-0.743,1.455-1.09c2.041-1.389,4.716-2.263,7.024-2.325 c0.094-0.009,0.994-0.033,1.089-0.033l1.46-0.027c0.198,0,0.7-0.199,0.856-0.581c0.403-0.613,0.702-2.154,0.75-4.276 C45.832,13.866,45.649,13.201,45.615,12.555z" opacity=".273"/><linearGradient id="q6PF_hOFHpyFFdWcD9P9wr" x1="8.893" x2="45.831" y1="24.151" y2="24.151" gradientUnits="userSpaceOnUse"><stop offset="0" stop-color="#ecaa14"/><stop offset=".519" stop-color="#f5bf20" stop-opacity=".675"/><stop offset=".999" stop-color="#f5be1f"/></linearGradient><path fill="url(#q6PF_hOFHpyFFdWcD9P9wr)" d="M45.66,12.985c-0.112,1.438-0.384,3.383-0.867,3.973 c-0.052,0.24-0.849,0.409-0.92,0.409l-1.455-0.006c-0.273,0-1.039,0.01-1.308,0.04c-2.536,0.17-4.808,1.135-6.704,2.855 c-1.55,1.406-3.796,2.73-6.448,3.641l-0.06,0.02c-4.525,1.542-8.789,4.043-12.203,7.384c-0.161,0.157-0.328,0.305-0.497,0.444 c-0.853,0.701-1.57,1.55-2.35,1.191c-0.083-0.017-0.298-0.203-0.394-0.286L10.44,30.8l-0.105,0.024 c-0.505,0.061-0.887,0.093-1.126,0.121c-0.48,0.787-0.444,1.628,0.325,2.291l1.989,1.513c0.147,0.127,0.558,0.403,0.744,0.43 c0.954,0.364,2.205-0.033,3.011-0.716c0.153-0.13,0.303-0.267,0.449-0.41c3.333-3.263,7.34-5.759,11.738-7.313 c0.007-0.003,0.052-0.018,0.059-0.021c0.305-0.108,0.598-0.22,0.88-0.334c0.015-0.007,0.051-0.021,0.066-0.027 c1.992-0.827,3.333-1.965,4.7-3.083c0.461-0.377,0.951-0.739,1.449-1.091c2.017-1.423,4.647-2.316,6.973-2.398 c0.125-0.011,0.957-0.035,1.083-0.035l1.454-0.023c0.173,0,0.756-0.174,0.893-0.508c0.423-0.537,0.749-2.094,0.808-4.243 C45.848,14.304,45.69,13.638,45.66,12.985z" opacity=".364"/><linearGradient id="q6PF_hOFHpyFFdWcD9P9ws" x1="8.879" x2="45.843" y1="24.473" y2="24.473" gradientUnits="userSpaceOnUse"><stop offset="0" stop-color="#eba814"/><stop offset=".519" stop-color="#f3ba1e" stop-opacity=".722"/><stop offset=".999" stop-color="#f3ba1d"/></linearGradient><path fill="url(#q6PF_hOFHpyFFdWcD9P9ws)" d="M45.705,13.416c-0.096,1.216-0.355,3.282-0.819,4.02 c-0.064,0.3-0.772,0.512-0.86,0.512l-1.466-0.008c-0.234,0-1.085,0.006-1.315,0.032c-2.578,0.146-4.861,1.1-6.786,2.847 c-1.55,1.406-3.799,2.761-6.451,3.672l-0.06,0.02c-4.544,1.549-8.858,4.055-12.281,7.417c-0.162,0.159-0.333,0.306-0.506,0.441 c-0.864,0.674-1.646,1.39-2.434,0.979c-0.071-0.014-0.305-0.229-0.387-0.3l-2.002-1.894l-0.104,0.005 c-0.498-0.004-0.865-0.051-1.085-0.104c-0.437,0.8-0.366,1.656,0.398,2.315l1.969,1.525c0.126,0.108,0.572,0.426,0.731,0.449 c0.942,0.418,2.19,0.089,3.014-0.579c0.155-0.126,0.306-0.261,0.451-0.404c3.32-3.262,7.311-5.76,11.694-7.322 c0.009-0.003,0.05-0.018,0.059-0.021c0.302-0.108,0.595-0.218,0.879-0.331c0.013-0.006,0.052-0.02,0.065-0.026 c1.983-0.804,3.377-1.897,4.747-2.988c0.468-0.373,0.956-0.736,1.444-1.092c1.993-1.457,4.578-2.369,6.922-2.471 c0.156-0.014,0.919-0.037,1.077-0.037l1.448-0.02c0.149,0,0.813-0.149,0.93-0.436c0.443-0.46,0.791-2.034,0.866-4.209 C45.863,14.742,45.731,14.075,45.705,13.416z" opacity=".455"/><linearGradient id="q6PF_hOFHpyFFdWcD9P9wt" x1="8.863" x2="45.855" y1="24.799" y2="24.799" gradientUnits="userSpaceOnUse"><stop offset="0" stop-color="#eaa714"/><stop offset=".519" stop-color="#f0b61d" stop-opacity=".768"/><stop offset=".999" stop-color="#f0b51c"/></linearGradient><path fill="url(#q6PF_hOFHpyFFdWcD9P9wt)" d="M45.75,13.847c-0.08,0.993-0.327,3.181-0.772,4.067 c-0.077,0.36-0.695,0.614-0.801,0.614l-1.478-0.009c-0.195,0-1.131,0.003-1.323,0.025c-2.621,0.122-4.914,1.066-6.867,2.839 c-1.55,1.406-3.801,2.792-6.454,3.703l-0.06,0.02c-4.562,1.555-8.928,4.068-12.359,7.449c-0.163,0.161-0.337,0.307-0.515,0.439 c-0.874,0.648-1.721,1.229-2.518,0.767c-0.059-0.012-0.312-0.254-0.381-0.314l-1.99-1.935l-0.103-0.014 c-0.491-0.07-0.843-0.194-1.043-0.33c-0.393,0.812-0.288,1.684,0.471,2.339l1.948,1.536c0.105,0.09,0.585,0.449,0.719,0.468 c0.929,0.473,2.175,0.211,3.017-0.443c0.157-0.122,0.308-0.255,0.454-0.399c3.307-3.26,7.282-5.761,11.65-7.331 c0.01-0.004,0.048-0.017,0.058-0.021c0.3-0.108,0.592-0.217,0.877-0.327c0.01-0.005,0.053-0.02,0.064-0.025 c1.975-0.78,3.421-1.828,4.794-2.894c0.476-0.369,0.962-0.732,1.438-1.093c1.968-1.492,4.509-2.422,6.871-2.545 c0.188-0.017,0.881-0.038,1.071-0.038l1.442-0.017c0.124,0,0.869-0.125,0.967-0.363c0.462-0.383,0.833-1.974,0.924-4.176 C45.878,15.18,45.772,14.512,45.75,13.847z" opacity=".545"/><linearGradient id="q6PF_hOFHpyFFdWcD9P9wu" x1="8.843" x2="45.868" y1="25.129" y2="25.129" gradientUnits="userSpaceOnUse"><stop offset="0" stop-color="#e9a514"/><stop offset=".519" stop-color="#eeb11b" stop-opacity=".815"/><stop offset=".999" stop-color="#eeb11a"/></linearGradient><path fill="url(#q6PF_hOFHpyFFdWcD9P9wu)" d="M45.795,14.277c-0.064,0.77-0.299,3.08-0.724,4.113 c-0.09,0.419-0.618,0.716-0.742,0.716l-1.489-0.011c-0.156,0-1.176-0.001-1.33,0.017c-2.663,0.097-4.966,1.032-6.949,2.83 c-1.55,1.406-3.804,2.823-6.456,3.734l-0.06,0.02c-4.581,1.561-8.997,4.08-12.436,7.482c-0.165,0.163-0.342,0.308-0.524,0.436 c-0.884,0.621-1.797,1.069-2.602,0.555c-0.047-0.01-0.319-0.28-0.374-0.328l-1.979-1.976l-0.102-0.033 c-0.485-0.135-0.821-0.338-1.002-0.555c-0.35,0.825-0.21,1.712,0.545,2.362l1.928,1.547c0.084,0.072,0.599,0.472,0.706,0.488 c0.916,0.528,2.159,0.333,3.02-0.307c0.159-0.118,0.311-0.25,0.456-0.393c3.293-3.258,7.253-5.762,11.606-7.34 c0.012-0.005,0.046-0.017,0.058-0.021c0.297-0.108,0.589-0.216,0.875-0.324c0.008-0.004,0.055-0.02,0.063-0.024 c1.966-0.757,3.465-1.759,4.841-2.799c0.484-0.366,0.967-0.729,1.432-1.094c1.943-1.526,4.439-2.475,6.82-2.618 c0.219-0.02,0.843-0.04,1.064-0.04l1.437-0.013c0.099,0,0.926-0.1,1.004-0.291c0.482-0.307,0.875-1.914,0.982-4.142 C45.892,15.617,45.812,14.949,45.795,14.277z" opacity=".636"/><linearGradient id="q6PF_hOFHpyFFdWcD9P9wv" x1="8.821" x2="45.883" y1="25.462" y2="25.462" gradientUnits="userSpaceOnUse"><stop offset="0" stop-color="#e8a414"/><stop offset=".519" stop-color="#ecad1a" stop-opacity=".861"/><stop offset=".999" stop-color="#ecad19"/></linearGradient><path fill="url(#q6PF_hOFHpyFFdWcD9P9wv)" d="M45.84,14.708c-0.048,0.548-0.27,2.979-0.677,4.16 c-0.103,0.479-0.541,0.818-0.683,0.818l-1.501-0.012c-0.117,0-1.222-0.004-1.337,0.009c-2.706,0.073-5.019,0.997-7.03,2.822 c-1.55,1.406-3.807,2.854-6.459,3.764l-0.06,0.02c-4.6,1.568-9.067,4.092-12.514,7.515c-0.166,0.165-0.346,0.309-0.533,0.434 c-0.893,0.595-1.873,0.909-2.686,0.342c-0.036-0.007-0.325-0.306-0.367-0.342l-1.967-2.017L9.926,32.17 c-0.478-0.2-0.799-0.481-0.961-0.781c-0.307,0.837-0.131,1.739,0.618,2.386l1.907,1.559c0.063,0.054,0.613,0.496,0.693,0.507 c0.904,0.583,2.144,0.455,3.023-0.17c0.161-0.114,0.314-0.244,0.459-0.387c3.28-3.257,7.225-5.763,11.561-7.349 c0.014-0.005,0.044-0.016,0.058-0.021c0.295-0.108,0.586-0.214,0.873-0.32c0.006-0.003,0.056-0.02,0.062-0.023 c1.958-0.734,3.509-1.69,4.888-2.704c0.492-0.362,0.972-0.726,1.426-1.095c1.918-1.562,4.37-2.528,6.769-2.692 c0.25-0.023,0.805-0.042,1.058-0.042l1.431-0.01c0.074,0,0.982-0.075,1.041-0.218c0.502-0.23,0.912-1.854,1.04-4.109 C45.906,16.055,45.853,15.387,45.84,14.708z" opacity=".727"/><linearGradient id="q6PF_hOFHpyFFdWcD9P9ww" x1="8.795" x2="45.902" y1="25.798" y2="25.798" gradientUnits="userSpaceOnUse"><stop offset="0" stop-color="#e7a315"/><stop offset=".519" stop-color="#eaa918" stop-opacity=".907"/><stop offset=".999" stop-color="#eaa918"/></linearGradient><path fill="url(#q6PF_hOFHpyFFdWcD9P9ww)" d="M45.885,15.139c-0.032,0.325-0.242,2.878-0.629,4.207 c-0.116,0.539-0.464,0.921-0.624,0.921l-1.512-0.014c-0.078,0-1.268-0.008-1.345,0.001c-2.748,0.049-5.072,0.963-7.112,2.814 c-1.55,1.406-3.81,2.884-6.462,3.795l-0.06,0.02c-4.618,1.574-9.136,4.104-12.591,7.547c-0.168,0.167-0.35,0.31-0.542,0.431 c-0.903,0.569-1.949,0.748-2.77,0.13c-0.024-0.005-0.332-0.332-0.36-0.356l-1.955-2.059l-0.1-0.07 c-0.471-0.265-0.777-0.625-0.92-1.006C8.64,32.35,8.85,33.268,9.595,33.91l1.887,1.57c0.042,0.036,0.627,0.519,0.681,0.526 c0.891,0.637,2.127,0.575,3.025-0.034c0.162-0.111,0.317-0.238,0.461-0.382c3.267-3.255,7.196-5.764,11.517-7.358 c0.016-0.006,0.042-0.015,0.058-0.021c0.293-0.107,0.583-0.213,0.872-0.317c0.004-0.002,0.057-0.02,0.061-0.022 c1.949-0.71,3.555-1.619,4.935-2.609c0.501-0.357,0.977-0.723,1.42-1.096c1.89-1.601,4.301-2.581,6.719-2.765 c0.282-0.026,0.767-0.044,1.052-0.044l1.425-0.007c0.05,0,1.039-0.05,1.078-0.145c0.521-0.153,0.953-1.794,1.097-4.075 C45.921,16.493,45.894,15.824,45.885,15.139z" opacity=".818"/><linearGradient id="q6PF_hOFHpyFFdWcD9P9wx" x1="8.765" x2="45.932" y1="26.138" y2="26.138" gradientUnits="userSpaceOnUse"><stop offset="0" stop-color="#e6a115"/><stop offset=".519" stop-color="#e7a417" stop-opacity=".954"/><stop offset=".999" stop-color="#e7a416"/></linearGradient><path fill="url(#q6PF_hOFHpyFFdWcD9P9wx)" d="M45.931,15.569c-0.016,0.103-0.213,2.777-0.582,4.253 c-0.129,0.599-0.388,1.023-0.564,1.023l-1.524-0.015c-0.039,0-1.314-0.011-1.352-0.007c-2.791,0.024-5.124,0.929-7.194,2.806 c-1.55,1.406-3.812,2.915-6.465,3.826l-0.06,0.02c-4.637,1.58-9.206,4.116-12.669,7.58c-0.169,0.169-0.355,0.312-0.551,0.429 c-0.911,0.545-2.024,0.588-2.853-0.082c-0.012-0.002-0.339-0.358-0.353-0.37l-1.943-2.1l-0.099-0.089 c-0.464-0.33-0.755-0.768-0.879-1.231c-0.22,0.862,0.025,1.795,0.765,2.433l1.867,1.581c0.021,0.018,0.641,0.542,0.668,0.546 c0.879,0.692,2.112,0.696,3.028,0.103c0.164-0.107,0.32-0.232,0.464-0.376c3.253-3.253,7.167-5.765,11.473-7.367 c0.017-0.007,0.04-0.015,0.058-0.021c0.29-0.107,0.58-0.212,0.87-0.313c0.002-0.001,0.058-0.02,0.06-0.021 c1.941-0.687,3.599-1.55,4.982-2.515c0.509-0.353,0.982-0.72,1.414-1.097c1.865-1.635,4.232-2.634,6.668-2.839 c0.313-0.029,0.729-0.046,1.046-0.046l1.419-0.003c0.025,0,1.095-0.025,1.115-0.073c0.541-0.077,0.995-1.734,1.155-4.042 C45.935,16.931,45.935,16.261,45.931,15.569z" opacity=".909"/><path fill="#e5a015" d="M44.936,21.426l-2.895-0.032c-2.833,0-5.177,0.894-7.275,2.798c-1.55,1.406-3.815,2.946-6.467,3.857 l-0.06,0.02c-4.655,1.587-9.275,4.128-12.747,7.612c-0.951,0.954-2.478,1.012-3.498,0.132L9.619,33.18 c-0.457-0.395-0.733-0.912-0.838-1.457c-0.177,0.875,0.103,1.823,0.838,2.457l2.501,2.158c1.02,0.88,2.547,0.822,3.498-0.132 c3.472-3.484,7.699-6.121,12.354-7.708l0.06-0.02c2.652-0.911,4.887-2.112,6.437-3.518C36.567,23.056,39.292,22,42.125,22h2.565 c0.71,0,1.285-2.686,1.285-6C45.976,15.831,45.61,21.426,44.936,21.426z"/></g><g opacity=".33"><linearGradient id="q6PF_hOFHpyFFdWcD9P9wy" x1="2" x2="44.479" y1="20" y2="20" gradientUnits="userSpaceOnUse"><stop offset="0" stop-color="#f0af13"/><stop offset=".519" stop-color="#fed026" stop-opacity=".49"/><stop offset=".999" stop-color="#fecf24"/></linearGradient><linearGradient id="q6PF_hOFHpyFFdWcD9P9wz" x1="2" x2="44.429" y1="20" y2="20" gradientUnits="userSpaceOnUse"><stop offset="0" stop-color="#f0af13"/><stop offset=".519" stop-color="#fdcd24" stop-opacity=".536"/><stop offset=".999" stop-color="#fdcc22"/></linearGradient><path fill="url(#q6PF_hOFHpyFFdWcD9P9wz)" d="M7,10c-2.761,0-5,2.239-5,5v13c0,1.105,0.895,2,2,2l5.791-0.116l0.52-0.451 l1.12-1.074c0,0-1.931,0.098-3.525-0.097c-0.995-0.11-1.928-0.418-2.556-0.883c-0.524-0.304-0.857-0.901-0.842-1.471l-0.402-8.97 c0-0.01-0.012-0.257-0.011-0.266c0.011-2.49,1.139-4.42,3.488-4.624c0.136-0.013,0.32-0.02,0.465-0.02l10.79-0.532L44.429,10H7z" opacity=".091"/><linearGradient id="q6PF_hOFHpyFFdWcD9P9wA" x1="2" x2="44.38" y1="20" y2="20" gradientUnits="userSpaceOnUse"><stop offset="0" stop-color="#f0af13"/><stop offset=".519" stop-color="#fbca23" stop-opacity=".583"/><stop offset=".999" stop-color="#fbc921"/></linearGradient><path fill="url(#q6PF_hOFHpyFFdWcD9P9wA)" d="M7,10c-2.761,0-5,2.239-5,5v13c0,1.105,0.895,2,2,2l5.806-0.104l0.509-0.466 l0.802-0.966c0,0-2.126,0.088-3.56-0.088c-1.006-0.099-1.884-0.493-2.449-1.021c-0.471-0.274-0.77-1.01-0.756-1.523l-0.354-9.056 c0-0.02-0.01-0.253-0.009-0.272c0.022-2.501,1.198-4.437,3.577-4.62c0.122-0.012,0.336-0.019,0.466-0.019l10.902-0.492L44.38,10H7z" opacity=".182"/><linearGradient id="q6PF_hOFHpyFFdWcD9P9wB" x1="2" x2="44.331" y1="20" y2="20" gradientUnits="userSpaceOnUse"><stop offset="0" stop-color="#f0af13"/><stop offset=".519" stop-color="#fac721" stop-opacity=".629"/><stop offset=".999" stop-color="#fac61f"/></linearGradient><path fill="url(#q6PF_hOFHpyFFdWcD9P9wB)" d="M7,10c-2.761,0-5,2.239-5,5v13c0,1.105,0.895,2,2,2l5.82-0.093l0.498-0.481 l0.484-0.859c0,0-2.321,0.079-3.596-0.078c-1.017-0.088-1.84-0.568-2.342-1.16c-0.419-0.243-0.682-1.118-0.67-1.574L3.89,16.612 c0-0.03-0.009-0.249-0.008-0.278c0.033-2.513,1.257-4.454,3.667-4.617c0.109-0.01,0.352-0.017,0.468-0.017l11.013-0.452L44.331,10 H7z" opacity=".273"/><linearGradient id="q6PF_hOFHpyFFdWcD9P9wC" x1="2" x2="44.281" y1="20" y2="20" gradientUnits="userSpaceOnUse"><stop offset="0" stop-color="#f0af13"/><stop offset=".519" stop-color="#f9c41f" stop-opacity=".675"/><stop offset=".999" stop-color="#f9c31e"/></linearGradient><path fill="url(#q6PF_hOFHpyFFdWcD9P9wC)" d="M7,10c-2.761,0-5,2.239-5,5v13c0,1.105,0.895,2,2,2l5.835-0.081l0.487-0.497 l0.166-0.752c0,0-2.515,0.069-3.631-0.068c-1.028-0.077-1.795-0.642-2.235-1.299c-0.367-0.213-0.595-1.227-0.584-1.626 l-0.257-9.228c0-0.039-0.007-0.244-0.006-0.283c0.044-2.524,1.316-4.471,3.756-4.613c0.095-0.009,0.368-0.016,0.469-0.016 l11.124-0.411L44.281,10H7z" opacity=".364"/><linearGradient id="q6PF_hOFHpyFFdWcD9P9wD" x1="2" x2="44.232" y1="20" y2="20" gradientUnits="userSpaceOnUse"><stop offset="0" stop-color="#f0af13"/><stop offset=".519" stop-color="#f8c11d" stop-opacity=".722"/><stop offset=".999" stop-color="#f8c01c"/></linearGradient><path fill="url(#q6PF_hOFHpyFFdWcD9P9wD)" d="M7,10c-2.761,0-5,2.239-5,5v13c0,1.105,0.895,2,2,2l5.85-0.07l0.476-0.512 l-0.152-0.644c0,0-2.71,0.059-3.666-0.058c-1.039-0.066-1.751-0.717-2.128-1.438c-0.314-0.182-0.508-1.335-0.498-1.677 l-0.209-9.315c0-0.049-0.006-0.24-0.004-0.289c0.055-2.536,1.375-4.488,3.846-4.61c0.081-0.008,0.384-0.014,0.471-0.014 l11.236-0.371L44.232,10H7z" opacity=".455"/><linearGradient id="q6PF_hOFHpyFFdWcD9P9wE" x1="2" x2="44.183" y1="20" y2="20" gradientUnits="userSpaceOnUse"><stop offset="0" stop-color="#f0af13"/><stop offset=".519" stop-color="#f6be1c" stop-opacity=".768"/><stop offset=".999" stop-color="#f6be1b"/></linearGradient><path fill="url(#q6PF_hOFHpyFFdWcD9P9wE)" d="M7,10c-2.761,0-5,2.239-5,5v13c0,1.105,0.895,2,2,2l5.864-0.058l0.465-0.527 l-0.47-0.537c0,0-2.905,0.049-3.702-0.049c-1.05-0.055-1.707-0.792-2.021-1.576c-0.262-0.152-0.42-1.444-0.413-1.729l-0.161-9.401 c0-0.059-0.005-0.236-0.002-0.294c0.067-2.547,1.434-4.505,3.935-4.607c0.068-0.007,0.4-0.013,0.473-0.013l11.347-0.331L44.183,10 H7z" opacity=".545"/><linearGradient id="q6PF_hOFHpyFFdWcD9P9wF" x1="2" x2="44.133" y1="20" y2="20" gradientUnits="userSpaceOnUse"><stop offset="0" stop-color="#f0af13"/><stop offset=".519" stop-color="#f5bb1a" stop-opacity=".815"/><stop offset=".999" stop-color="#f5bb19"/></linearGradient><path fill="url(#q6PF_hOFHpyFFdWcD9P9wF)" d="M7,10c-2.761,0-5,2.239-5,5v13c0,1.105,0.895,2,2,2l5.879-0.046l0.455-0.542 l-0.788-0.43c0,0-3.1,0.039-3.737-0.039c-1.061-0.044-1.663-0.867-1.914-1.715c-0.21-0.122-0.333-1.552-0.327-1.78L3.455,15.96 c0-0.069-0.003-0.232,0-0.3c0.078-2.559,1.493-4.522,4.025-4.603c0.054-0.005,0.416-0.011,0.474-0.011l11.458-0.291L44.133,10H7z" opacity=".636"/><linearGradient id="q6PF_hOFHpyFFdWcD9P9wG" x1="2" x2="44.084" y1="20" y2="20" gradientUnits="userSpaceOnUse"><stop offset="0" stop-color="#f0af13"/><stop offset=".519" stop-color="#f4b818" stop-opacity=".861"/><stop offset=".999" stop-color="#f4b818"/></linearGradient><path fill="url(#q6PF_hOFHpyFFdWcD9P9wG)" d="M7,10c-2.761,0-5,2.239-5,5v13c0,1.105,0.895,2,2,2l5.894-0.035l0.444-0.557 l-1.105-0.322c0,0-3.294,0.029-3.772-0.029c-1.072-0.033-1.618-0.941-1.807-1.854c-0.157-0.091-0.246-1.661-0.241-1.832 l-0.065-9.573c0-0.079-0.002-0.228,0.002-0.305c0.089-2.57,1.552-4.539,4.114-4.6c0.041-0.004,0.432-0.01,0.476-0.01l11.57-0.251 L44.084,10H7z" opacity=".727"/><linearGradient id="q6PF_hOFHpyFFdWcD9P9wH" x1="2" x2="44.035" y1="20" y2="20" gradientUnits="userSpaceOnUse"><stop offset="0" stop-color="#f0af13"/><stop offset=".519" stop-color="#f3b516" stop-opacity=".907"/><stop offset=".999" stop-color="#f3b516"/></linearGradient><path fill="url(#q6PF_hOFHpyFFdWcD9P9wH)" d="M7,10c-2.761,0-5,2.239-5,5v13c0,1.105,0.895,2,2,2l5.908-0.023l0.433-0.573 l-1.423-0.215c0,0-3.489,0.02-3.808-0.019c-1.083-0.022-1.574-1.016-1.7-1.993c-0.105-0.061-0.159-1.769-0.155-1.883l-0.017-9.66 c0-0.089,0-0.224,0.004-0.311c0.1-2.582,1.611-4.556,4.204-4.596c0.027-0.003,0.448-0.008,0.477-0.008l11.681-0.211L44.035,10H7z" opacity=".818"/><linearGradient id="q6PF_hOFHpyFFdWcD9P9wI" x1="2" x2="43.986" y1="20" y2="20" gradientUnits="userSpaceOnUse"><stop offset="0" stop-color="#f0af13"/><stop offset=".519" stop-color="#f1b215" stop-opacity=".954"/><stop offset=".999" stop-color="#f1b215"/></linearGradient><path fill="url(#q6PF_hOFHpyFFdWcD9P9wI)" d="M7,10c-2.761,0-5,2.239-5,5v13c0,1.105,0.895,2,2,2l5.923-0.012l0.422-0.588 l-1.741-0.107c0,0-3.684,0.01-3.843-0.01c-1.094-0.011-1.53-1.091-1.593-2.131c-0.052-0.03-0.071-1.878-0.07-1.935l0.032-9.746 c0-0.098,0.001-0.22,0.006-0.317c0.111-2.593,1.67-4.572,4.293-4.593c0.014-0.001,0.464-0.007,0.479-0.007L19.7,10.384L43.985,10H7 z" opacity=".909"/><path fill="#f0af13" d="M10.349,29.397H4.411c-1.105,0-1.486-1.166-1.486-2.27l0.096-11.818c0-2.761,1.629-4.911,4.39-4.911 l12.384-0.136L43.936,10H7c-2.761,0-5,2.239-5,5v13c0,1.105,0.895,2,2,2h5.937L10.349,29.397z"/></g><g><linearGradient id="q6PF_hOFHpyFFdWcD9P9wJ" x1="13.599" x2="16.003" y1="26.457" y2="26.457" gradientUnits="userSpaceOnUse"><stop offset="0" stop-color="#f7bb1d"/><stop offset="1" stop-color="#f0af13" stop-opacity=".7"/></linearGradient><linearGradient id="q6PF_hOFHpyFFdWcD9P9wK" x1="13.164" x2="16.064" y1="26.509" y2="26.509" gradientUnits="userSpaceOnUse"><stop offset="0" stop-color="#f7bb1d"/><stop offset="1" stop-color="#f0af13" stop-opacity=".7"/></linearGradient><path fill="url(#q6PF_hOFHpyFFdWcD9P9wK)" d="M17.555,23.017L9.848,29.58L9.293,30C9.293,30,9.124,24.213,17.555,23.017z" opacity=".091"/><linearGradient id="q6PF_hOFHpyFFdWcD9P9wL" x1="12.728" x2="16.117" y1="26.56" y2="26.56" gradientUnits="userSpaceOnUse"><stop offset="0" stop-color="#f7bb1d"/><stop offset="1" stop-color="#f0af13" stop-opacity=".7"/></linearGradient><path fill="url(#q6PF_hOFHpyFFdWcD9P9wL)" d="M17.44,23.12l-7.583,6.502L9.293,30C9.293,30,9.852,24.196,17.44,23.12z" opacity=".182"/><linearGradient id="q6PF_hOFHpyFFdWcD9P9wM" x1="12.303" x2="16.166" y1="26.611" y2="26.611" gradientUnits="userSpaceOnUse"><stop offset="0" stop-color="#f7bb1d"/><stop offset="1" stop-color="#f0af13" stop-opacity=".7"/></linearGradient><path fill="url(#q6PF_hOFHpyFFdWcD9P9wM)" d="M17.325,23.222l-7.459,6.442L9.293,30C9.293,30,10.58,24.179,17.325,23.222z" opacity=".273"/><linearGradient id="q6PF_hOFHpyFFdWcD9P9wN" x1="11.889" x2="16.21" y1="26.662" y2="26.662" gradientUnits="userSpaceOnUse"><stop offset="0" stop-color="#f7bb1d"/><stop offset="1" stop-color="#f0af13" stop-opacity=".7"/></linearGradient><path fill="url(#q6PF_hOFHpyFFdWcD9P9wN)" d="M17.21,23.324l-7.335,6.382L9.293,30C9.293,30,11.308,24.162,17.21,23.324z" opacity=".364"/><linearGradient id="q6PF_hOFHpyFFdWcD9P9wO" x1="11.486" x2="16.25" y1="26.713" y2="26.713" gradientUnits="userSpaceOnUse"><stop offset="0" stop-color="#f7bb1d"/><stop offset="1" stop-color="#f0af13" stop-opacity=".7"/></linearGradient><path fill="url(#q6PF_hOFHpyFFdWcD9P9wO)" d="M17.095,23.427l-7.211,6.321L9.293,30C9.293,30,12.036,24.144,17.095,23.427 z" opacity=".455"/><linearGradient id="q6PF_hOFHpyFFdWcD9P9wP" x1="11.093" x2="16.286" y1="26.765" y2="26.765" gradientUnits="userSpaceOnUse"><stop offset="0" stop-color="#f7bb1d"/><stop offset="1" stop-color="#f0af13" stop-opacity=".7"/></linearGradient><path fill="url(#q6PF_hOFHpyFFdWcD9P9wP)" d="M16.98,23.529L9.893,29.79L9.293,30C9.293,30,12.764,24.127,16.98,23.529z" opacity=".545"/><linearGradient id="q6PF_hOFHpyFFdWcD9P9wQ" x1="10.712" x2="16.318" y1="26.816" y2="26.816" gradientUnits="userSpaceOnUse"><stop offset="0" stop-color="#f7bb1d"/><stop offset="1" stop-color="#f0af13" stop-opacity=".7"/></linearGradient><path fill="url(#q6PF_hOFHpyFFdWcD9P9wQ)" d="M16.865,23.632l-6.963,6.2L9.293,30C9.293,30,13.492,24.11,16.865,23.632z" opacity=".636"/><linearGradient id="q6PF_hOFHpyFFdWcD9P9wR" x1="10.341" x2="16.346" y1="26.867" y2="26.867" gradientUnits="userSpaceOnUse"><stop offset="0" stop-color="#f7bb1d"/><stop offset="1" stop-color="#f0af13" stop-opacity=".7"/></linearGradient><path fill="url(#q6PF_hOFHpyFFdWcD9P9wR)" d="M16.75,23.734l-6.839,6.14L9.293,30C9.293,30,14.22,24.093,16.75,23.734z" opacity=".727"/><linearGradient id="q6PF_hOFHpyFFdWcD9P9wS" x1="9.98" x2="16.37" y1="26.918" y2="26.918" gradientUnits="userSpaceOnUse"><stop offset="0" stop-color="#f7bb1d"/><stop offset="1" stop-color="#f0af13" stop-opacity=".7"/></linearGradient><path fill="url(#q6PF_hOFHpyFFdWcD9P9wS)" d="M16.634,23.836l-6.715,6.08L9.293,30C9.293,30,14.948,24.076,16.634,23.836z" opacity=".818"/><linearGradient id="q6PF_hOFHpyFFdWcD9P9wT" x1="9.631" x2="16.389" y1="26.969" y2="26.969" gradientUnits="userSpaceOnUse"><stop offset="0" stop-color="#f7bb1d"/><stop offset="1" stop-color="#f0af13" stop-opacity=".7"/></linearGradient><path fill="url(#q6PF_hOFHpyFFdWcD9P9wT)" d="M16.519,23.939l-6.591,6.019L9.293,30C9.293,30,15.676,24.058,16.519,23.939 z" opacity=".909"/><linearGradient id="q6PF_hOFHpyFFdWcD9P9wU" x1="9.293" x2="16.404" y1="27.02" y2="27.02" gradientUnits="userSpaceOnUse"><stop offset="0" stop-color="#f7bb1d"/><stop offset="1" stop-color="#f0af13" stop-opacity=".7"/></linearGradient><polygon fill="url(#q6PF_hOFHpyFFdWcD9P9wU)" points="9.937,30 9.293,30 16.404,24.041"/></g><g><linearGradient id="q6PF_hOFHpyFFdWcD9P9wV" x1="16.873" x2="15.043" y1="16.529" y2="17.891" gradientUnits="userSpaceOnUse"><stop offset="0" stop-color="#ffd845"/><stop offset="1" stop-color="#ffd73f"/></linearGradient><linearGradient id="q6PF_hOFHpyFFdWcD9P9wW" x1="17.073" x2="14.452" y1="15.869" y2="18.446" gradientUnits="userSpaceOnUse"><stop offset="0" stop-color="#ffd846"/><stop offset=".528" stop-color="#fed33e"/><stop offset="1" stop-color="#fed33b"/></linearGradient><path fill="url(#q6PF_hOFHpyFFdWcD9P9wW)" d="M18.087,23.035c-1.159-1.486-1.844-2.916-2.088-4.361 c-2.08-1.052-3.27-3.163-4.494-5.605l0.628-0.315c1.196,2.385,2.39,4.411,4.365,5.328l0.185,0.086l0.028,0.202 c0.194,1.38,0.806,2.78,1.936,4.229L18.087,23.035z" opacity=".091"/><linearGradient id="q6PF_hOFHpyFFdWcD9P9wX" x1="17.292" x2="14.014" y1="14.82" y2="19.072" gradientUnits="userSpaceOnUse"><stop offset="0" stop-color="#ffd947"/><stop offset=".528" stop-color="#fcd039"/><stop offset="1" stop-color="#fcd037"/></linearGradient><path fill="url(#q6PF_hOFHpyFFdWcD9P9wX)" d="M17.894,23.154c-1.159-1.487-1.844-2.916-2.088-4.361 c-2.08-1.052-3.27-3.163-4.494-5.605l0.586-0.294c1.196,2.385,2.432,4.39,4.408,5.307l0.185,0.086l0.028,0.202 c0.194,1.38,0.774,2.805,1.904,4.253L17.894,23.154z" opacity=".182"/><linearGradient id="q6PF_hOFHpyFFdWcD9P9wY" x1="17.098" x2="13.693" y1="13.834" y2="19.786" gradientUnits="userSpaceOnUse"><stop offset="0" stop-color="#ffd948"/><stop offset=".528" stop-color="#fbcc35"/><stop offset="1" stop-color="#fbcc33"/></linearGradient><path fill="url(#q6PF_hOFHpyFFdWcD9P9wY)" d="M17.701,23.274c-1.159-1.487-1.843-2.916-2.088-4.361 c-2.08-1.052-3.27-3.163-4.494-5.605l0.543-0.273c1.196,2.385,2.474,4.369,4.45,5.286l0.185,0.086l0.028,0.202 c0.194,1.38,0.743,2.83,1.872,4.278L17.701,23.274z" opacity=".273"/><linearGradient id="q6PF_hOFHpyFFdWcD9P9wZ" x1="16.546" x2="13.515" y1="13.021" y2="20.554" gradientUnits="userSpaceOnUse"><stop offset="0" stop-color="#ffd949"/><stop offset=".528" stop-color="#fac831"/><stop offset="1" stop-color="#fac82f"/></linearGradient><path fill="url(#q6PF_hOFHpyFFdWcD9P9wZ)" d="M17.509,23.393c-1.159-1.487-1.843-2.916-2.088-4.361 c-2.08-1.052-3.27-3.163-4.494-5.605l0.501-0.251c1.196,2.385,2.516,4.348,4.492,5.265l0.185,0.086l0.028,0.202 c0.194,1.38,0.711,2.854,1.841,4.303L17.509,23.393z" opacity=".364"/><linearGradient id="q6PF_hOFHpyFFdWcD9P9waa" x1="15.72" x2="13.497" y1="12.465" y2="21.334" gradientUnits="userSpaceOnUse"><stop offset="0" stop-color="#ffd94a"/><stop offset=".125" stop-color="#fdd442"/><stop offset=".528" stop-color="#f8c52d"/><stop offset="1" stop-color="#f8c52b"/></linearGradient><path fill="url(#q6PF_hOFHpyFFdWcD9P9waa)" d="M17.316,23.513c-1.159-1.487-1.843-2.916-2.087-4.361 c-2.08-1.052-3.27-3.163-4.494-5.605l0.459-0.23c1.196,2.385,2.558,4.327,4.534,5.244l0.185,0.086l0.028,0.202 c0.194,1.38,0.679,2.879,1.809,4.328L17.316,23.513z" opacity=".455"/><linearGradient id="q6PF_hOFHpyFFdWcD9P9wab" x1="14.717" x2="13.643" y1="12.217" y2="22.079" gradientUnits="userSpaceOnUse"><stop offset="0" stop-color="#ffda4b"/><stop offset=".232" stop-color="#fbce3a"/><stop offset=".528" stop-color="#f7c128"/><stop offset="1" stop-color="#f7c127"/></linearGradient><path fill="url(#q6PF_hOFHpyFFdWcD9P9wab)" d="M17.124,23.633c-1.159-1.487-1.843-2.916-2.087-4.361 c-2.08-1.052-3.27-3.163-4.494-5.605l0.417-0.209c1.196,2.385,2.601,4.306,4.576,5.223l0.185,0.086l0.028,0.202 c0.194,1.38,0.648,2.903,1.777,4.352L17.124,23.633z" opacity=".545"/><linearGradient id="q6PF_hOFHpyFFdWcD9P9wac" x1="13.644" x2="13.944" y1="12.296" y2="22.741" gradientUnits="userSpaceOnUse"><stop offset="0" stop-color="#ffda4c"/><stop offset=".292" stop-color="#f9c933"/><stop offset=".528" stop-color="#f5be24"/><stop offset="1" stop-color="#f5be23"/></linearGradient><path fill="url(#q6PF_hOFHpyFFdWcD9P9wac)" d="M16.931,23.752c-1.159-1.487-1.843-2.916-2.087-4.361 c-2.08-1.052-3.27-3.163-4.494-5.605l0.375-0.188c1.196,2.385,2.643,4.285,4.618,5.202l0.185,0.086l0.028,0.202 c0.194,1.38,0.616,2.928,1.745,4.377L16.931,23.752z" opacity=".636"/><linearGradient id="q6PF_hOFHpyFFdWcD9P9wad" x1="12.602" x2="14.373" y1="12.69" y2="23.276" gradientUnits="userSpaceOnUse"><stop offset="0" stop-color="#ffda4d"/><stop offset=".332" stop-color="#f7c32d"/><stop offset=".528" stop-color="#f4ba20"/><stop offset="1" stop-color="#f4ba1f"/></linearGradient><path fill="url(#q6PF_hOFHpyFFdWcD9P9wad)" d="M16.739,23.872c-1.159-1.487-1.843-2.916-2.087-4.361 c-2.08-1.052-3.27-3.163-4.494-5.605l0.333-0.167c1.196,2.385,2.685,4.263,4.66,5.18l0.185,0.086l0.028,0.202 c0.194,1.38,0.584,2.953,1.714,4.402L16.739,23.872z" opacity=".727"/><linearGradient id="q6PF_hOFHpyFFdWcD9P9wae" x1="11.68" x2="14.896" y1="13.356" y2="23.647" gradientUnits="userSpaceOnUse"><stop offset="0" stop-color="#ffda4e"/><stop offset=".058" stop-color="#fdd547"/><stop offset=".36" stop-color="#f6bf28"/><stop offset=".528" stop-color="#f3b61c"/><stop offset="1" stop-color="#f3b61b"/></linearGradient><path fill="url(#q6PF_hOFHpyFFdWcD9P9wae)" d="M16.546,23.991c-1.159-1.487-1.843-2.916-2.087-4.361 c-2.08-1.052-3.27-3.163-4.494-5.605l0.291-0.146c1.196,2.385,2.727,4.242,4.703,5.159l0.185,0.086l0.028,0.202 c0.194,1.38,0.553,2.977,1.682,4.426L16.546,23.991z" opacity=".818"/><linearGradient id="q6PF_hOFHpyFFdWcD9P9waf" x1="11.154" x2="15.673" y1="14.13" y2="23.729" gradientUnits="userSpaceOnUse"><stop offset="0" stop-color="#ffdb4f"/><stop offset=".129" stop-color="#fbcf3e"/><stop offset=".382" stop-color="#f4bb22"/><stop offset=".528" stop-color="#f1b317"/><stop offset="1" stop-color="#f1b317"/></linearGradient><path fill="url(#q6PF_hOFHpyFFdWcD9P9waf)" d="M16.354,24.111c-1.159-1.487-1.843-2.916-2.087-4.361 c-2.08-1.052-3.27-3.163-4.494-5.605l0.248-0.125c1.196,2.385,2.769,4.221,4.745,5.138l0.185,0.086l0.028,0.202 c0.194,1.38,0.521,3.002,1.65,4.451L16.354,24.111z" opacity=".909"/><linearGradient id="q6PF_hOFHpyFFdWcD9P9wag" x1="10.824" x2="16.42" y1="14.949" y2="23.545" gradientUnits="userSpaceOnUse"><stop offset="0" stop-color="#ffdb50"/><stop offset=".176" stop-color="#f9c937"/><stop offset=".396" stop-color="#f2b61d"/><stop offset=".528" stop-color="#f0af13"/></linearGradient><path fill="url(#q6PF_hOFHpyFFdWcD9P9wag)" d="M16.161,24.23c-1.159-1.487-1.843-2.916-2.087-4.361c-2.08-1.052-3.27-3.163-4.494-5.605 l0.206-0.103c1.196,2.385,2.811,4.2,4.787,5.117l0.185,0.086l0.028,0.202c0.194,1.38,0.489,3.026,1.618,4.476L16.161,24.23z"/></g></svg>