<svg xmlns="http://www.w3.org/2000/svg" viewBox="0 0 48 48"><radialGradient id="nhwFffiK5IXeF2IddB4kua" cx="428.128" cy="21.383" r="24.766" gradientTransform="matrix(-1 0 0 1 456 0)" gradientUnits="userSpaceOnUse"><stop offset="0" stop-color="#f9e5c8"/><stop offset=".629" stop-color="#f8daba"/><stop offset=".713" stop-color="#f5d5b5"/><stop offset=".818" stop-color="#eec7a5"/><stop offset=".933" stop-color="#e1b08c"/><stop offset=".999" stop-color="#d8a07a"/></radialGradient><path fill="url(#nhwFffiK5IXeF2IddB4kua)" d="M4.733,25.697c0,0,10.018,14.271,10.135,14.443c1.971,2.884,4.958,4.752,7.796,4.876	l10.986-0.02c3.061-0.008,5.808-2.055,6.68-4.977c0.863-2.895,1.325-6.257,1.334-9.724c0.004-1.55-0.086-3.092-0.263-4.58	c-0.165-1.389-0.37-12.132-0.37-12.132c0.081-1.041-0.204-2.069-0.762-2.709c-0.349-0.399-0.782-0.625-1.252-0.653	c-1.275-0.06-2.353,1.296-2.491,3.121c-0.008,0.099-0.808,8.251-1.09,11.525L35.338,8.149c0.027-1.068-0.309-2.084-0.897-2.699	c-0.368-0.385-0.811-0.593-1.281-0.603c-0.011,0-0.021,0-0.032,0c-1.25,0-2.259,1.407-2.305,3.223	c-0.004,0.129-0.409,11.357-0.602,16.797l-1.063-18.63c0.009-1.053-0.344-2.062-0.943-2.669c-0.374-0.379-0.82-0.581-1.291-0.584	c-0.003,0-0.007,0-0.01,0c-1.261,0-2.257,1.428-2.271,3.256c-0.002,0.082-0.214,12.004-0.359,18.627l-0.861-14.623	c-0.046-1.815-1.052-3.186-2.338-3.204c-0.47,0.01-0.913,0.218-1.28,0.603c-0.588,0.616-0.923,1.631-0.896,2.715	c-0.003,0.127-0.461,14.392-0.461,14.392c-0.01,1.406-0.323,4.059-2.915,2.43c-1.081-0.68-3.292-2.399-3.292-2.399	c-1.92-1.577-4.372-3.107-6.665-2.149C4.367,23.137,3.952,24.643,4.733,25.697z"/><radialGradient id="nhwFffiK5IXeF2IddB4kub" cx="-1858.547" cy="150.385" r="4.385" gradientTransform="matrix(.4762 -.0124 .0552 2.1228 903.818 -327.951)" gradientUnits="userSpaceOnUse"><stop offset=".425" stop-color="#fff"/><stop offset=".573" stop-color="#fefbf7" stop-opacity=".744"/><stop offset=".803" stop-color="#fcf0e0" stop-opacity=".342"/><stop offset="1" stop-color="#f9e5c8" stop-opacity="0"/></radialGradient><path fill="url(#nhwFffiK5IXeF2IddB4kub)" d="M29.369,14.244c0.152,5.845-0.765,10.61-2.049,10.643	c-1.284,0.033-2.448-4.678-2.6-10.522c-0.152-5.845,0.765-10.61,2.049-10.643C28.053,3.688,29.217,8.399,29.369,14.244z" opacity=".07"/><radialGradient id="nhwFffiK5IXeF2IddB4kuc" cx="-1939.508" cy="159.619" r="4.385" gradientTransform="matrix(.4496 0 0 2.054 905.04 -312.591)" gradientUnits="userSpaceOnUse"><stop offset=".425" stop-color="#fff"/><stop offset=".573" stop-color="#fefbf7" stop-opacity=".744"/><stop offset=".803" stop-color="#fcf0e0" stop-opacity=".342"/><stop offset="1" stop-color="#f9e5c8" stop-opacity="0"/></radialGradient><ellipse cx="33.016" cy="15.26" fill="url(#nhwFffiK5IXeF2IddB4kuc)" opacity=".07" rx="2.195" ry="10.24"/><radialGradient id="nhwFffiK5IXeF2IddB4kud" cx="-1962.358" cy="131.768" r="4.385" gradientTransform="matrix(.4472 .0202 -.0693 1.5379 925.225 -144.708)" gradientUnits="userSpaceOnUse"><stop offset=".425" stop-color="#fff"/><stop offset=".573" stop-color="#fefbf7" stop-opacity=".744"/><stop offset=".803" stop-color="#fcf0e0" stop-opacity=".342"/><stop offset="1" stop-color="#f9e5c8" stop-opacity="0"/></radialGradient><path fill="url(#nhwFffiK5IXeF2IddB4kud)" d="M40.78,18.48c-0.191,4.234-1.323,7.623-2.528,7.569	c-1.206-0.054-2.028-3.531-1.837-7.766s1.323-7.623,2.528-7.569C40.149,10.769,40.971,14.246,40.78,18.48z" opacity=".07"/><radialGradient id="nhwFffiK5IXeF2IddB4kue" cx="-2053.157" cy="96.203" r="4.385" gradientTransform="matrix(.421 -.011 .0441 1.6961 881.4 -168.232)" gradientUnits="userSpaceOnUse"><stop offset=".425" stop-color="#fff"/><stop offset=".573" stop-color="#fefbf7" stop-opacity=".744"/><stop offset=".803" stop-color="#fcf0e0" stop-opacity=".342"/><stop offset="1" stop-color="#f9e5c8" stop-opacity="0"/></radialGradient><path fill="url(#nhwFffiK5IXeF2IddB4kue)" d="M23.269,17.369c0.121,4.67-0.7,8.48-1.835,8.509	c-1.135,0.03-2.154-3.732-2.275-8.402c-0.121-4.67,0.7-8.48,1.835-8.509C22.129,8.937,23.148,12.699,23.269,17.369z" opacity=".07"/><path fill="#fff" d="M22.466,11l-0.041-0.697C22.393,9.05,21.786,8.05,21.071,8.04	c-0.166,0.004-0.361,0.103-0.543,0.294c-0.402,0.421-0.639,1.187-0.619,1.999c0,0.023-0.008,0.266-0.021,0.668H22.466z" opacity=".2"/><path fill="#fff" d="M25.63,7h2.572l-0.044-0.771c0.006-0.78-0.251-1.548-0.655-1.958	c-0.185-0.188-0.381-0.284-0.582-0.286h-0.006c-0.606,0-1.261,0.909-1.271,2.263C25.644,6.248,25.639,6.524,25.63,7z" opacity=".2"/><path fill="#fff" d="M31.823,8.096C31.822,8.119,31.81,8.453,31.791,9h2.552l-0.005-0.845	c0.02-0.833-0.217-1.593-0.62-2.014c-0.182-0.191-0.377-0.29-0.579-0.294C32.525,5.848,31.857,6.751,31.823,8.096z" opacity=".2"/><path fill="#fff" d="M36.884,11.878c-0.03,0.071-0.066,0.136-0.093,0.21	C36.818,12.014,36.853,11.949,36.884,11.878z" opacity=".5"/><path fill="#fff" d="M37.157,11.358c-0.042,0.066-0.088,0.125-0.126,0.195	C37.069,11.483,37.115,11.423,37.157,11.358z" opacity=".5"/><path fill="#fff" d="M40.035,13.506c0.06-0.77-0.144-1.545-0.518-1.974c-0.171-0.195-0.359-0.301-0.559-0.313	c-0.62,0-1.331,0.84-1.434,2.198c0,0.003-0.022,0.227-0.056,0.583h2.574L40.035,13.506z" opacity=".2"/><path fill="#fff" d="M36.672,12.502c-0.016,0.063-0.039,0.121-0.052,0.186	C36.633,12.623,36.656,12.565,36.672,12.502z" opacity=".5"/><path fill="#fff" d="M37.485,10.929c-0.051,0.055-0.105,0.104-0.152,0.164	C37.38,11.033,37.434,10.984,37.485,10.929z" opacity=".5"/><path fill="#fff" d="M37.862,10.594c-0.059,0.042-0.12,0.077-0.176,0.126	C37.742,10.672,37.803,10.636,37.862,10.594z" opacity=".5"/><radialGradient id="nhwFffiK5IXeF2IddB4kuf" cx="200.965" cy="-311.404" r="3.241" gradientTransform="matrix(-.5986 -.0912 -.2082 .2723 77.17 128.61)" gradientUnits="userSpaceOnUse"><stop offset=".249" stop-color="#fff7e6"/><stop offset="1" stop-color="#fff" stop-opacity="0"/></radialGradient><path fill="url(#nhwFffiK5IXeF2IddB4kuf)" d="M19.748,25.513c-0.053,0.608,0.786,1.096,1.874,1.089s2.013-0.506,2.066-1.115	s-0.786-1.096-1.874-1.089C20.725,24.405,19.801,24.905,19.748,25.513z" opacity=".3"/><radialGradient id="nhwFffiK5IXeF2IddB4kug" cx="142.71" cy="-173.971" r="3.241" gradientTransform="matrix(-.5971 -.146 -.2058 .3041 76.778 99.247)" gradientUnits="userSpaceOnUse"><stop offset=".249" stop-color="#fff7e6"/><stop offset="1" stop-color="#fff" stop-opacity="0"/></radialGradient><path fill="url(#nhwFffiK5IXeF2IddB4kug)" d="M25.406,25.385c-0.049,0.707,0.791,1.331,1.875,1.395s2.003-0.458,2.052-1.165	c0.049-0.707-0.791-1.331-1.875-1.395C26.374,24.157,25.455,24.678,25.406,25.385z" opacity=".3"/><radialGradient id="nhwFffiK5IXeF2IddB4kuh" cx="156.833" cy="-245.798" r="3.241" gradientTransform="matrix(-.5974 -.1355 -.2049 .2745 76.338 114.122)" gradientUnits="userSpaceOnUse"><stop offset=".249" stop-color="#fff7e6"/><stop offset="1" stop-color="#fff" stop-opacity="0"/></radialGradient><path fill="url(#nhwFffiK5IXeF2IddB4kuh)" d="M31.053,25.266c-0.047,0.64,0.794,1.211,1.878,1.274	c1.084,0.063,2.001-0.405,2.048-1.045c0.047-0.64-0.794-1.211-1.878-1.274S31.1,24.625,31.053,25.266z" opacity=".3"/><radialGradient id="nhwFffiK5IXeF2IddB4kui" cx="142.624" cy="-230.186" r="3.241" gradientTransform="matrix(-.5973 -.1383 -.2051 .2822 76.455 110.185)" gradientUnits="userSpaceOnUse"><stop offset=".249" stop-color="#fff7e6"/><stop offset="1" stop-color="#fff" stop-opacity="0"/></radialGradient><path fill="url(#nhwFffiK5IXeF2IddB4kui)" d="M36.522,25.385c-0.047,0.658,0.793,1.242,1.877,1.306s2.002-0.419,2.049-1.076	c0.047-0.658-0.793-1.242-1.877-1.306S36.569,24.728,36.522,25.385z" opacity=".3"/><path fill="#fff" d="M6.982,26.462c0.396-0.387,0.402-1.022,0.013-1.416l-0.988-1.004	c-0.522-0.53-1.231-0.366-1.623,0.067c-0.105,0.532-0.008,1.107,0.349,1.588c0,0,0.481,0.686,1.234,1.758L6.982,26.462z" opacity=".2"/></svg>