<svg xmlns="http://www.w3.org/2000/svg" viewBox="0 0 48 48"><ellipse cx="23.936" cy="24.468" fill="#110309" rx="21.021" ry="6.064"/><radialGradient id="jJAzqVmXYe34nuKHWGQb4a" cx="28.309" cy="14.201" r="7.22" gradientTransform="matrix(1 0 0 1.3409 0 -4.84)" gradientUnits="userSpaceOnUse"><stop offset="0" stop-color="#fff"/><stop offset=".322" stop-color="#fdfdfd"/><stop offset=".484" stop-color="#f8f7f5"/><stop offset=".61" stop-color="#eeede8"/><stop offset=".718" stop-color="#e0ded5"/><stop offset=".813" stop-color="#cecabd"/><stop offset=".901" stop-color="#b7b29f"/><stop offset=".981" stop-color="#9d977c"/><stop offset="1" stop-color="#968f72"/></radialGradient><path fill="url(#jJAzqVmXYe34nuKHWGQb4a)" d="M30.874,23.444H26c-1.105,0-2-0.895-2-2v-4.699c0-1.105,0.895-2,2-2h4.874	c1.105,0,2,0.895,2,2v4.699C32.874,22.549,31.979,23.444,30.874,23.444z"/><radialGradient id="jJAzqVmXYe34nuKHWGQb4b" cx="19.437" cy="14.201" r="7.22" gradientTransform="matrix(1 0 0 1.3409 0 -4.84)" gradientUnits="userSpaceOnUse"><stop offset="0" stop-color="#fff"/><stop offset=".322" stop-color="#fdfdfd"/><stop offset=".484" stop-color="#f8f7f5"/><stop offset=".61" stop-color="#eeede8"/><stop offset=".718" stop-color="#e0ded5"/><stop offset=".813" stop-color="#cecabd"/><stop offset=".901" stop-color="#b7b29f"/><stop offset=".981" stop-color="#9d977c"/><stop offset="1" stop-color="#968f72"/></radialGradient><path fill="url(#jJAzqVmXYe34nuKHWGQb4b)" d="M22.002,23.444h-4.874c-1.105,0-2-0.895-2-2v-4.699c0-1.105,0.895-2,2-2h4.874	c1.105,0,2,0.895,2,2v4.699C24.002,22.549,23.107,23.444,22.002,23.444z"/><linearGradient id="jJAzqVmXYe34nuKHWGQb4c" x1="24.002" x2="24.002" y1="17.249" y2="22.039" gradientUnits="userSpaceOnUse"><stop offset="0" stop-color="#0b0b0b"/><stop offset=".031" stop-color="#161616" stop-opacity=".969"/><stop offset=".24" stop-color="#5c5c5c" stop-opacity=".76"/><stop offset=".437" stop-color="#969696" stop-opacity=".563"/><stop offset=".617" stop-color="#c3c3c3" stop-opacity=".383"/><stop offset=".776" stop-color="#e4e4e4" stop-opacity=".224"/><stop offset=".91" stop-color="#f8f8f8" stop-opacity=".09"/><stop offset="1" stop-color="#fff" stop-opacity="0"/></linearGradient><path fill="url(#jJAzqVmXYe34nuKHWGQb4c)" d="M28.609,17.136c-0.917-0.228-1.863-0.181-2.786,0.022	c-0.541,0.119-1.122,0.182-1.724,0.195h-0.197c-0.637-0.014-1.251-0.084-1.819-0.217c-1.004-0.234-2.047-0.181-3.041,0.091	c-1.164,0.319-2.487,1.092-3.914,2.034v1.219c0,0.246,0.05,0.478,0.132,0.696c1.376-0.902,2.654-1.639,3.782-1.948	c0.994-0.272,2.037-0.326,3.041-0.091c0.568,0.133,1.182,0.203,1.819,0.217H24.1c0.602-0.013,1.183-0.076,1.724-0.195	c0.923-0.202,1.869-0.25,2.786-0.022c1.302,0.324,2.68,1.118,4.125,2.069c0.088-0.225,0.141-0.469,0.141-0.725v-1.184	C31.378,18.303,29.953,17.47,28.609,17.136z" opacity=".65"/><path fill="#c41b22" d="M39.2,27.284c-3.088-0.18-6.066-1.314-9.188-1.314c-1.65,0-3.197,0.211-4.538,0.581	c-0.967,0.266-1.975,0.266-2.943,0c-1.341-0.369-2.889-0.581-4.538-0.581c-3.143,0-6.087,1.133-9.188,1.314	c-2.984,0.174-6.795-3.117-6.795-3.117c3.498,7.801,12.062,13.61,21.993,13.61s18.268-5.508,21.766-13.309	C45.768,24.468,42.184,27.458,39.2,27.284z"/><radialGradient id="jJAzqVmXYe34nuKHWGQb4d" cx="24.143" cy="25.887" r="21.441" gradientTransform="matrix(1 0 0 .6467 0 9.146)" gradientUnits="userSpaceOnUse"><stop offset=".004" stop-color="#ff2c6d"/><stop offset=".134" stop-color="#f42868"/><stop offset=".363" stop-color="#d61c59"/><stop offset=".664" stop-color="#a60942"/><stop offset=".796" stop-color="#8e0037"/><stop offset=".841" stop-color="#8a0036"/><stop offset=".883" stop-color="#7f0132"/><stop offset=".926" stop-color="#6b012c"/><stop offset=".967" stop-color="#500223"/><stop offset="1" stop-color="#35031a"/></radialGradient><path fill="url(#jJAzqVmXYe34nuKHWGQb4d)" d="M39.2,27.284c-3.088-0.18-6.066-1.314-9.188-1.314c-1.65,0-3.197,0.211-4.538,0.581 c-0.967,0.266-1.975,0.266-2.943,0c-1.341-0.369-2.889-0.581-4.538-0.581c-3.143,0-6.087,1.133-9.188,1.314 c-2.984,0.174-6.795-3.117-6.795-3.117c0.874,1.95,2.066,3.776,3.516,5.418s3.159,3.099,5.069,4.313 c3.82,2.427,8.443,3.88,13.409,3.88s9.532-1.377,13.295-3.729c1.881-1.176,3.562-2.596,4.99-4.209 c1.429-1.613,2.606-3.42,3.48-5.371C45.768,24.468,42.184,27.458,39.2,27.284z"/><radialGradient id="jJAzqVmXYe34nuKHWGQb4e" cx="24.081" cy="26.308" r="21.578" gradientTransform="matrix(1 0 0 .6192 0 10.019)" gradientUnits="userSpaceOnUse"><stop offset=".004" stop-color="#ff3273"/><stop offset=".14" stop-color="#f42d6e"/><stop offset=".166" stop-color="#f12c6d"/><stop offset=".331" stop-color="#dc2261"/><stop offset=".607" stop-color="#b00d47"/><stop offset=".718" stop-color="#98043c"/><stop offset=".796" stop-color="#8c0036"/><stop offset=".836" stop-color="#880035"/><stop offset=".846" stop-color="#860034"/><stop offset=".983" stop-color="#480320"/><stop offset="1" stop-color="#3a031c"/></radialGradient><path fill="url(#jJAzqVmXYe34nuKHWGQb4e)" d="M2.009,24.167c0.023-0.005,3.752,3.351,6.74,3.227c3.046-0.137,6.156-1.089,9.19-1.063 c0.216,0.002,0.427,0.007,0.631,0.013c1.251,0.038,2.435,0.2,3.499,0.463c0.136,0.034,0.27,0.068,0.402,0.104 c0.696,0.189,1.413,0.245,2.121,0.169c0.277-0.03,0.552-0.08,0.824-0.15c0.532-0.137,1.092-0.256,1.675-0.354 c0.898-0.152,1.86-0.236,2.861-0.24c0.222-0.001,0.444,0.004,0.665,0.014c2.72,0.127,5.706,1.02,8.535,1.122 c0.342,0.012,0.684-0.015,1.016-0.069c2.67-0.443,5.498-2.824,5.523-2.819c-0.9,1.918-2.1,3.686-3.545,5.259 s-3.135,2.95-5.018,4.087c-3.765,2.275-8.297,3.591-13.168,3.59c-4.888-0.007-9.475-1.429-13.291-3.807 c-1.908-1.189-3.622-2.617-5.085-4.228C4.121,27.876,2.909,26.084,2.009,24.167z"/><radialGradient id="jJAzqVmXYe34nuKHWGQb4f" cx="24.019" cy="26.712" r="21.723" gradientTransform="matrix(1 0 0 .5917 0 10.908)" gradientUnits="userSpaceOnUse"><stop offset=".004" stop-color="#ff3879"/><stop offset=".158" stop-color="#f43373"/><stop offset=".166" stop-color="#f33373"/><stop offset=".326" stop-color="#de2765"/><stop offset=".607" stop-color="#b00d48"/><stop offset=".723" stop-color="#95053b"/><stop offset=".796" stop-color="#890136"/><stop offset=".84" stop-color="#850034"/><stop offset=".846" stop-color="#840033"/><stop offset=".983" stop-color="#4b0321"/><stop offset="1" stop-color="#3f031d"/></radialGradient><path fill="url(#jJAzqVmXYe34nuKHWGQb4f)" d="M2.009,24.167c0.045-0.009,3.693,3.42,6.684,3.336c2.991-0.084,6.266-0.863,9.192-0.813 c0.219,0.004,0.429,0.01,0.627,0.016c1.249,0.034,2.436,0.195,3.497,0.46c0.136,0.034,0.27,0.069,0.403,0.104 c0.697,0.186,1.413,0.245,2.122,0.176c0.277-0.027,0.553-0.073,0.826-0.139c0.536-0.128,1.096-0.246,1.676-0.349 c0.893-0.16,1.856-0.25,2.856-0.258c0.222-0.002,0.444,0.001,0.665,0.011c2.558,0.108,5.757,0.907,8.546,0.948 c0.351,0.005,0.693-0.028,1.015-0.086c2.618-0.474,5.445-2.883,5.497-2.873c-0.926,1.887-2.148,3.615-3.61,5.147 s-3.162,2.867-5.045,3.965c-3.766,2.198-8.264,3.452-13.041,3.452c-4.811-0.015-9.361-1.406-13.172-3.735 c-1.906-1.165-3.626-2.564-5.102-4.142S2.936,26.05,2.009,24.167z"/><radialGradient id="jJAzqVmXYe34nuKHWGQb4g" cx="23.957" cy="27.098" r="21.877" gradientTransform="matrix(1 0 0 .5641 0 11.811)" gradientUnits="userSpaceOnUse"><stop offset=".004" stop-color="#ff3d7f"/><stop offset=".166" stop-color="#f4397a"/><stop offset=".326" stop-color="#df2b6a"/><stop offset=".607" stop-color="#b10e48"/><stop offset=".727" stop-color="#93053a"/><stop offset=".796" stop-color="#870135"/><stop offset=".836" stop-color="#830034"/><stop offset=".846" stop-color="#810033"/><stop offset=".983" stop-color="#4f0223"/><stop offset="1" stop-color="#44021f"/></radialGradient><path fill="url(#jJAzqVmXYe34nuKHWGQb4g)" d="M2.009,24.167c0.068-0.014,3.633,3.484,6.628,3.446c2.936-0.037,6.377-0.635,9.194-0.562 c0.222,0.006,0.431,0.013,0.623,0.019c1.248,0.03,2.436,0.19,3.494,0.458c0.136,0.034,0.27,0.069,0.403,0.104 c0.697,0.183,1.413,0.244,2.123,0.183c0.277-0.024,0.554-0.066,0.827-0.128c0.539-0.119,1.101-0.235,1.678-0.344 c0.889-0.169,1.851-0.264,2.852-0.277c0.222-0.003,0.443-0.001,0.665,0.008c2.397,0.093,5.809,0.843,8.557,0.773 c0.359-0.009,0.702-0.041,1.013-0.103c2.565-0.509,5.393-2.942,5.47-2.927c-0.952,1.855-2.197,3.544-3.674,5.035 s-3.188,2.783-5.072,3.844c-3.768,2.121-8.231,3.314-12.914,3.313c-4.733-0.022-9.247-1.383-13.054-3.663 c-1.903-1.14-3.63-2.51-5.119-4.057S2.962,26.017,2.009,24.167z"/><radialGradient id="jJAzqVmXYe34nuKHWGQb4h" cx="23.895" cy="27.467" r="22.041" gradientTransform="matrix(1 0 0 .5366 0 12.728)" gradientUnits="userSpaceOnUse"><stop offset=".004" stop-color="#ff4385"/><stop offset=".166" stop-color="#f53f81"/><stop offset=".324" stop-color="#e0306f"/><stop offset=".607" stop-color="#b10e48"/><stop offset=".61" stop-color="#b00e48"/><stop offset=".73" stop-color="#910439"/><stop offset=".796" stop-color="#850134"/><stop offset=".833" stop-color="#810033"/><stop offset=".846" stop-color="#7e0032"/><stop offset=".983" stop-color="#520224"/><stop offset="1" stop-color="#490221"/></radialGradient><path fill="url(#jJAzqVmXYe34nuKHWGQb4h)" d="M2.009,24.167c0.091-0.018,3.573,3.574,6.572,3.555c2.88-0.018,6.487-0.405,9.196-0.312 c0.225,0.008,0.433,0.017,0.619,0.021c1.247,0.026,2.436,0.185,3.492,0.455c0.136,0.035,0.27,0.069,0.403,0.104 c0.698,0.18,1.413,0.244,2.123,0.191c0.278-0.021,0.554-0.06,0.829-0.116c0.543-0.111,1.105-0.225,1.679-0.339 c0.884-0.177,1.847-0.279,2.847-0.295c0.221-0.004,0.443-0.003,0.665,0.005c2.235,0.079,5.86,0.673,8.569,0.598 c0.368-0.01,0.711-0.055,1.011-0.12c2.513-0.544,5.341-3.002,5.444-2.981c-0.978,1.823-2.245,3.474-3.739,4.924 c-1.494,1.45-3.214,2.7-5.099,3.722c-3.77,2.044-8.198,3.175-12.787,3.174c-4.656-0.029-9.133-1.359-12.935-3.59 c-1.901-1.115-3.634-2.456-5.136-3.972C4.26,27.674,2.988,25.983,2.009,24.167z"/><radialGradient id="jJAzqVmXYe34nuKHWGQb4i" cx="23.833" cy="27.819" r="22.214" gradientTransform="matrix(1 0 0 .5091 0 13.656)" gradientUnits="userSpaceOnUse"><stop offset=".004" stop-color="#ff498b"/><stop offset=".166" stop-color="#f74687"/><stop offset=".322" stop-color="#e23574"/><stop offset=".607" stop-color="#b20e48"/><stop offset=".62" stop-color="#ae0d46"/><stop offset=".733" stop-color="#8f0439"/><stop offset=".796" stop-color="#830134"/><stop offset=".831" stop-color="#7f0133"/><stop offset=".846" stop-color="#7b0031"/><stop offset=".983" stop-color="#560225"/><stop offset="1" stop-color="#4e0222"/></radialGradient><path fill="url(#jJAzqVmXYe34nuKHWGQb4i)" d="M2.009,24.167c0.114-0.023,3.513,3.608,6.517,3.665c2.825,0.053,6.598-0.175,9.197-0.061 c0.228,0.01,0.435,0.02,0.615,0.024c1.245,0.023,2.436,0.181,3.489,0.452c0.135,0.035,0.27,0.069,0.404,0.103 c0.698,0.177,1.414,0.244,2.124,0.198c0.278-0.018,0.555-0.053,0.83-0.105c0.547-0.102,1.11-0.215,1.681-0.334 c0.88-0.185,1.842-0.293,2.842-0.313c0.221-0.004,0.443-0.005,0.665,0.002c2.073,0.066,5.911,0.552,8.58,0.423 c0.377-0.018,0.72-0.069,1.009-0.137c2.46-0.58,5.289-3.061,5.417-3.035c-1.004,1.791-2.294,3.403-3.804,4.812 c-1.51,1.409-3.24,2.616-5.126,3.6c-3.772,1.966-8.165,3.037-12.66,3.035c-4.578-0.036-9.018-1.336-12.817-3.518 c-1.899-1.091-3.638-2.402-5.153-3.887S3.014,25.949,2.009,24.167z"/><radialGradient id="jJAzqVmXYe34nuKHWGQb4j" cx="23.771" cy="28.153" r="22.397" gradientTransform="matrix(1 0 0 .4816 0 14.595)" gradientUnits="userSpaceOnUse"><stop offset=".004" stop-color="#ff4f91"/><stop offset=".166" stop-color="#f84c8e"/><stop offset=".32" stop-color="#e33979"/><stop offset=".607" stop-color="#b20e49"/><stop offset=".628" stop-color="#ab0c46"/><stop offset=".736" stop-color="#8c0538"/><stop offset=".796" stop-color="#800233"/><stop offset=".833" stop-color="#7c0131"/><stop offset=".846" stop-color="#790130"/><stop offset=".983" stop-color="#590226"/><stop offset="1" stop-color="#520224"/></radialGradient><path fill="url(#jJAzqVmXYe34nuKHWGQb4j)" d="M2.009,24.167c0.136-0.027,3.453,3.669,6.461,3.774c2.77,0.097,6.708,0.057,9.199,0.189 c0.231,0.012,0.436,0.023,0.612,0.027c1.244,0.019,2.437,0.176,3.487,0.45c0.135,0.035,0.27,0.07,0.404,0.103 c0.699,0.175,1.414,0.243,2.125,0.205c0.278-0.015,0.556-0.046,0.832-0.094c0.551-0.094,1.114-0.204,1.683-0.329 c0.876-0.194,1.838-0.308,2.838-0.332c0.221-0.005,0.443-0.007,0.665,0c1.911,0.053,5.962,0.43,8.592,0.248 c0.386-0.027,0.729-0.082,1.008-0.154c2.407-0.617,5.237-3.12,5.39-3.09c-1.03,1.76-2.342,3.332-3.869,4.7 c-1.526,1.368-3.267,2.533-5.153,3.478c-3.773,1.889-8.132,2.898-12.533,2.896c-4.501-0.044-8.904-1.313-12.698-3.446 c-1.897-1.066-3.642-2.349-5.17-3.801C4.352,27.539,3.04,25.916,2.009,24.167z"/><radialGradient id="jJAzqVmXYe34nuKHWGQb4k" cx="23.709" cy="28.47" r="22.592" gradientTransform="matrix(1 0 0 .4541 0 15.542)" gradientUnits="userSpaceOnUse"><stop offset=".004" stop-color="#ff5597"/><stop offset=".166" stop-color="#fa5394"/><stop offset=".311" stop-color="#e63f7f"/><stop offset=".607" stop-color="#b30e49"/><stop offset=".636" stop-color="#a90c45"/><stop offset=".739" stop-color="#8a0538"/><stop offset=".796" stop-color="#7e0233"/><stop offset=".831" stop-color="#7a0231"/><stop offset=".846" stop-color="#76012f"/><stop offset=".983" stop-color="#5d0227"/><stop offset="1" stop-color="#570225"/></radialGradient><path fill="url(#jJAzqVmXYe34nuKHWGQb4k)" d="M2.009,24.167c0.159-0.032,3.394,3.728,6.405,3.884c2.714,0.14,6.819,0.291,9.201,0.44 c0.234,0.015,0.438,0.027,0.608,0.029c1.242,0.015,2.437,0.171,3.484,0.447c0.135,0.036,0.27,0.07,0.405,0.103 c0.699,0.172,1.414,0.243,2.126,0.212c0.279-0.012,0.557-0.039,0.833-0.082c0.555-0.085,1.119-0.194,1.684-0.325 c0.871-0.202,1.833-0.322,2.833-0.35c0.221-0.006,0.443-0.009,0.665-0.003c1.749,0.041,6.014,0.305,8.603,0.074 c0.394-0.035,0.738-0.096,1.006-0.171c2.354-0.654,5.185-3.179,5.364-3.144c-1.056,1.728-2.391,3.261-3.934,4.589 c-1.543,1.328-3.293,2.45-5.181,3.356c-3.775,1.812-8.099,2.76-12.406,2.757c-4.423-0.051-8.79-1.29-12.58-3.373 c-1.895-1.042-3.645-2.295-5.187-3.716C4.399,27.472,3.067,25.882,2.009,24.167z"/><radialGradient id="jJAzqVmXYe34nuKHWGQb4l" cx="23.648" cy="28.769" r="22.796" gradientTransform="matrix(1 0 0 .4266 0 16.497)" gradientUnits="userSpaceOnUse"><stop offset=".004" stop-color="#ff5b9d"/><stop offset=".166" stop-color="#fb599b"/><stop offset=".3" stop-color="#e84686"/><stop offset=".577" stop-color="#b9144f"/><stop offset=".607" stop-color="#b30e49"/><stop offset=".64" stop-color="#a70b44"/><stop offset=".741" stop-color="#880537"/><stop offset=".796" stop-color="#7c0232"/><stop offset=".829" stop-color="#780230"/><stop offset=".846" stop-color="#73012e"/><stop offset=".983" stop-color="#600228"/><stop offset="1" stop-color="#5c0227"/></radialGradient><path fill="url(#jJAzqVmXYe34nuKHWGQb4l)" d="M2.009,24.167c0.182-0.036,3.334,3.787,6.35,3.993c2.659,0.182,6.929,0.525,9.203,0.69 c0.237,0.017,0.44,0.03,0.604,0.032c1.241,0.011,2.437,0.166,3.482,0.445c0.135,0.036,0.27,0.07,0.405,0.103 c0.7,0.169,1.414,0.243,2.127,0.22c0.279-0.009,0.558-0.033,0.835-0.071c0.559-0.076,1.123-0.184,1.686-0.32 c0.867-0.21,1.828-0.336,2.829-0.369c0.221-0.007,0.442-0.01,0.665-0.006c1.588,0.03,6.065,0.179,8.614-0.101 c0.403-0.044,0.747-0.11,1.004-0.188c2.301-0.693,5.132-3.239,5.337-3.198c-1.082,1.696-2.44,3.19-3.998,4.477 c-1.559,1.287-3.319,2.366-5.208,3.234c-3.777,1.735-8.066,2.621-12.279,2.619c-4.346-0.058-8.676-1.266-12.461-3.301 c-1.893-1.017-3.649-2.241-5.204-3.631S3.093,25.849,2.009,24.167z"/><radialGradient id="jJAzqVmXYe34nuKHWGQb4m" cx="23.586" cy="29.051" r="23.012" gradientTransform="matrix(1 0 0 .399 0 17.458)" gradientUnits="userSpaceOnUse"><stop offset=".004" stop-color="#ff60a3"/><stop offset=".166" stop-color="#fc5fa2"/><stop offset=".291" stop-color="#eb4c8d"/><stop offset=".548" stop-color="#bf1b56"/><stop offset=".607" stop-color="#b40f49"/><stop offset=".647" stop-color="#a50c43"/><stop offset=".743" stop-color="#860536"/><stop offset=".796" stop-color="#7a0231"/><stop offset=".827" stop-color="#760230"/><stop offset=".846" stop-color="#70012e"/><stop offset=".983" stop-color="#64012a"/><stop offset="1" stop-color="#610129"/></radialGradient><path fill="url(#jJAzqVmXYe34nuKHWGQb4m)" d="M2.009,24.167c0.205-0.041,3.274,3.844,6.294,4.103c2.604,0.223,7.039,0.761,9.205,0.94 c0.24,0.02,0.442,0.033,0.6,0.035c1.24,0.008,2.437,0.161,3.479,0.442c0.135,0.036,0.27,0.071,0.405,0.103 c0.701,0.166,1.415,0.242,2.128,0.227c0.279-0.006,0.559-0.026,0.836-0.06c0.563-0.068,1.127-0.173,1.688-0.315 c0.862-0.219,1.824-0.351,2.824-0.387c0.22-0.008,0.442-0.012,0.665-0.009c1.426,0.019,6.115,0.051,8.626-0.276 c0.411-0.054,0.756-0.124,1.003-0.205c2.247-0.732,5.08-3.298,5.311-3.252c-1.108,1.664-2.488,3.119-4.063,4.365 s-3.346,2.283-5.235,3.112c-3.779,1.658-8.033,2.483-12.152,2.48c-4.268-0.065-8.561-1.243-12.343-3.229 c-1.891-0.993-3.653-2.187-5.22-3.546C4.491,27.337,3.119,25.815,2.009,24.167z"/><radialGradient id="jJAzqVmXYe34nuKHWGQb4n" cx="23.524" cy="29.315" r="23.238" gradientTransform="matrix(1 0 0 .3715 0 18.424)" gradientUnits="userSpaceOnUse"><stop offset=".004" stop-color="#ff66a9"/><stop offset=".166" stop-color="#fe66a8"/><stop offset=".285" stop-color="#ed5293"/><stop offset=".53" stop-color="#c2205c"/><stop offset=".607" stop-color="#b40f4a"/><stop offset=".653" stop-color="#a20b43"/><stop offset=".745" stop-color="#830536"/><stop offset=".796" stop-color="#770331"/><stop offset=".829" stop-color="#73022f"/><stop offset=".846" stop-color="#6e012d"/><stop offset=".983" stop-color="#67012b"/><stop offset="1" stop-color="#66012a"/></radialGradient><path fill="url(#jJAzqVmXYe34nuKHWGQb4n)" d="M2.009,24.167c0.227-0.045,3.216,3.895,6.238,4.213c2.55,0.258,7.149,0.998,9.207,1.191 c0.242,0.023,0.444,0.037,0.596,0.037c1.238,0.004,2.438,0.156,3.477,0.439c0.135,0.037,0.27,0.071,0.406,0.102 c0.701,0.163,1.415,0.242,2.129,0.234c0.28-0.003,0.559-0.019,0.838-0.048c0.566-0.059,1.132-0.163,1.689-0.31 c0.858-0.227,1.819-0.365,2.819-0.405c0.22-0.009,0.442-0.013,0.665-0.012c1.264,0.009,6.165-0.079,8.637-0.451 c0.42-0.063,0.764-0.139,1.001-0.222c2.192-0.776,5.028-3.357,5.284-3.307c-1.134,1.633-2.537,3.048-4.128,4.253 c-1.591,1.205-3.372,2.2-5.262,2.99c-3.78,1.581-8,2.344-12.025,2.341c-4.191-0.073-8.447-1.22-12.224-3.156 c-1.888-0.968-3.657-2.134-5.237-3.461C4.538,27.27,3.145,25.782,2.009,24.167z"/><radialGradient id="jJAzqVmXYe34nuKHWGQb4o" cx="23.463" cy="29.562" r="23.476" gradientTransform="matrix(1 0 0 .344 0 19.392)" gradientUnits="userSpaceOnUse"><stop offset=".166" stop-color="#ff6caf"/><stop offset=".278" stop-color="#ef589a"/><stop offset=".508" stop-color="#c82663"/><stop offset=".607" stop-color="#b50f4a"/><stop offset=".69" stop-color="#96093d"/><stop offset=".79" stop-color="#770331"/><stop offset=".846" stop-color="#6b012c"/><stop offset=".983" stop-color="#6b012c"/></radialGradient><path fill="url(#jJAzqVmXYe34nuKHWGQb4o)" d="M23.537,34.957c-4.113-0.08-8.333-1.197-12.106-3.084c-1.886-0.944-3.661-2.08-5.254-3.375 s-3.006-2.75-4.169-4.331c0.25-0.05,3.156,3.955,6.183,4.322c2.809,0.34,8.493,1.481,9.801,1.481c1.237,0,2.438,0.151,3.474,0.437 c0.832,0.229,1.683,0.344,2.536,0.344s1.704-0.115,2.53-0.342c1.041-0.287,2.243-0.438,3.479-0.438c1.296,0,8.137-0.29,9.648-0.864 c2.139-0.813,4.976-3.416,5.258-3.361c-1.16,1.601-2.585,2.977-4.193,4.142c-1.608,1.164-3.398,2.116-5.289,2.868 C31.653,34.259,27.468,34.961,23.537,34.957z"/><g><radialGradient id="jJAzqVmXYe34nuKHWGQb4p" cx="22.766" cy="20.306" r="21.43" gradientTransform="matrix(1 0 0 .7946 0 4.17)" gradientUnits="userSpaceOnUse"><stop offset=".004" stop-color="#ff2c6d"/><stop offset=".138" stop-color="#f42868"/><stop offset=".374" stop-color="#d61c59"/><stop offset=".683" stop-color="#a60942"/><stop offset=".819" stop-color="#8e0037"/><stop offset=".879" stop-color="#840034"/><stop offset=".976" stop-color="#6b012c"/></radialGradient><path fill="url(#jJAzqVmXYe34nuKHWGQb4p)" d="M45.675,23.128c-0.852-1.784-2.763-4.585-5.065-7.201s-4.995-5.047-7.41-6.092 c0,0-1.444-0.766-3.096-0.836c-0.765-0.033-1.498,0.09-2.175,0.338c-2.474,0.908-5.197,1.175-7.624,0.148 c-0.74-0.313-1.554-0.486-2.409-0.486c-1.285,0-2.529,0.286-4.412,1.61c-2.215,1.558-4.683,3.908-6.791,6.274 S2.838,21.63,2.065,23.25c0,0-0.134,0.337-0.134,0.524c0,0.604,0.984,3.247,5.529,1.217c4.291-1.917,8.495-5.954,11.582-6.799 c0.994-0.272,2.037-0.326,3.041-0.091c0.568,0.133,1.182,0.203,1.819,0.217h0.197c0.602-0.013,1.183-0.076,1.724-0.195 c0.923-0.202,1.869-0.25,2.786-0.022c4.389,1.092,9.628,7.48,15.493,7.48C46.506,25.58,45.675,23.128,45.675,23.128z"/><radialGradient id="jJAzqVmXYe34nuKHWGQb4q" cx="22.714" cy="19.826" r="22.035" gradientTransform="matrix(1 0 0 .7764 0 4.432)" gradientUnits="userSpaceOnUse"><stop offset=".004" stop-color="#fe3373"/><stop offset=".158" stop-color="#f32e6d"/><stop offset=".166" stop-color="#f22e6d"/><stop offset=".333" stop-color="#dd2361"/><stop offset=".607" stop-color="#b20e48"/><stop offset=".737" stop-color="#97043b"/><stop offset=".819" stop-color="#8b0036"/><stop offset=".846" stop-color="#880035"/><stop offset=".976" stop-color="#6b012c"/><stop offset=".983" stop-color="#6b012c"/></radialGradient><path fill="url(#jJAzqVmXYe34nuKHWGQb4q)" d="M13.594,10.87c1.815-1.291,3.075-1.593,4.371-1.586c0.258,0.001,0.513,0.018,0.763,0.051 c0.566,0.073,1.111,0.216,1.624,0.418c2.405,0.954,5.088,0.698,7.553-0.173c0.675-0.239,1.403-0.352,2.158-0.313 c1.589,0.078,2.986,0.811,3.059,0.869c2.195,0.95,4.865,3.31,7.187,5.879c2.25,2.489,4.139,5.169,5.032,6.898 c0.069,0.061,0.876,2.256-1.274,2.386c-0.174,0.011-0.393,0.012-0.6-0.01c-2.624-0.285-5.251-1.845-7.693-3.509 c-1.849-1.266-3.584-2.566-5.036-3.323c-0.687-0.373-1.364-0.659-2.026-0.821c-0.623-0.153-1.261-0.179-1.894-0.111 c-0.299,0.033-0.597,0.082-0.893,0.146c-0.544,0.117-1.124,0.182-1.722,0.2c-0.006,0.001-0.192,0.001-0.198,0.002 c-0.636-0.007-1.25-0.068-1.822-0.187c-1.007-0.212-2.047-0.168-3.041,0.067c-0.31,0.072-0.629,0.174-0.958,0.296 c-1.103,0.409-2.315,1.125-3.564,1.984c-1.345,0.909-2.942,2.112-4.622,3.165c-0.781,0.489-1.577,0.94-2.376,1.317 c-2.81,1.324-4.269,0.829-4.983,0.175c-0.399-0.366-0.54-0.82-0.53-1.031c0.008-0.177,0.137-0.493,0.151-0.506 c0.781-1.546,2.577-3.883,4.694-6.199C9.108,14.608,11.581,12.286,13.594,10.87z"/><radialGradient id="jJAzqVmXYe34nuKHWGQb4r" cx="22.663" cy="19.425" r="22.631" gradientTransform="matrix(1 0 0 .7583 0 4.696)" gradientUnits="userSpaceOnUse"><stop offset=".004" stop-color="#fe3b79"/><stop offset=".158" stop-color="#f33673"/><stop offset=".166" stop-color="#f23673"/><stop offset=".335" stop-color="#dd2965"/><stop offset=".607" stop-color="#b30e48"/><stop offset=".742" stop-color="#95043a"/><stop offset=".819" stop-color="#890035"/><stop offset=".846" stop-color="#850034"/><stop offset=".976" stop-color="#6b012c"/><stop offset=".983" stop-color="#6b012c"/></radialGradient><path fill="url(#jJAzqVmXYe34nuKHWGQb4r)" d="M13.705,11.131c1.748-1.257,3.023-1.577,4.33-1.562c0.255,0.002,0.507,0.021,0.754,0.054 c0.559,0.075,1.1,0.211,1.612,0.398c2.382,0.881,5.027,0.637,7.481-0.199c0.673-0.229,1.396-0.331,2.142-0.287 c1.526,0.089,2.877,0.786,3.023,0.902c1.976,0.855,4.621,3.145,6.964,5.667c2.196,2.363,4.065,4.922,4.999,6.595 c0.137,0.123,0.909,2.044-0.975,2.319c-0.144,0.021-0.373,0.032-0.581,0.002c-2.509-0.36-5.167-1.957-7.616-3.651 c-1.916-1.336-3.691-2.683-4.998-3.364c-0.677-0.383-1.354-0.672-2.02-0.834c-0.623-0.151-1.261-0.175-1.893-0.1 c-0.3,0.036-0.599,0.087-0.897,0.15c-0.547,0.116-1.126,0.182-1.721,0.204c-0.012,0.001-0.186,0.003-0.198,0.004 c-0.635,0-1.25-0.051-1.826-0.158c-1.01-0.189-2.047-0.153-3.042,0.043c-0.312,0.062-0.633,0.148-0.962,0.251 c-1.124,0.349-2.355,1.026-3.588,1.89c-1.211,0.818-2.826,2.088-4.564,3.225c-0.767,0.501-1.553,0.967-2.344,1.36 c-2.687,1.336-4.161,0.984-4.923,0.453c-0.438-0.305-0.593-0.741-0.574-0.95c0.016-0.166,0.14-0.461,0.168-0.488 c0.79-1.472,2.634-3.765,4.76-6.032C9.416,14.698,11.893,12.406,13.705,11.131z"/><radialGradient id="jJAzqVmXYe34nuKHWGQb4s" cx="22.62" cy="19.078" r="23.225" gradientTransform="matrix(1 0 0 .7401 0 4.959)" gradientUnits="userSpaceOnUse"><stop offset=".004" stop-color="#fd427f"/><stop offset=".166" stop-color="#f33e7a"/><stop offset=".333" stop-color="#de2e6a"/><stop offset=".607" stop-color="#b30e49"/><stop offset=".614" stop-color="#b10d48"/><stop offset=".746" stop-color="#92043a"/><stop offset=".819" stop-color="#860135"/><stop offset=".846" stop-color="#820033"/><stop offset=".976" stop-color="#6b012c"/><stop offset=".983" stop-color="#6b012c"/></radialGradient><path fill="url(#jJAzqVmXYe34nuKHWGQb4s)" d="M13.815,11.392c1.68-1.223,2.971-1.56,4.289-1.537c0.252,0.004,0.5,0.023,0.745,0.057 c0.552,0.077,1.088,0.204,1.6,0.378c2.362,0.802,4.965,0.575,7.41-0.224c0.672-0.22,1.389-0.311,2.125-0.261 c1.463,0.098,2.767,0.761,2.986,0.935c1.756,0.76,4.376,2.981,6.741,5.455c2.14,2.238,3.99,4.675,4.966,6.291 c0.206,0.184,0.976,2.13-0.675,2.252c-0.108,0.053-0.353,0.053-0.563,0.015c-2.393-0.428-5.087-2.063-7.54-3.794 c-1.986-1.402-3.799-2.801-4.961-3.406c-0.668-0.393-1.345-0.685-2.015-0.846c-0.623-0.15-1.261-0.171-1.892-0.09 c-0.301,0.039-0.602,0.092-0.9,0.154c-0.55,0.114-1.127,0.182-1.719,0.208c-0.018,0.002-0.18,0.004-0.199,0.006 c-0.634,0.007-1.249-0.035-1.829-0.129c-1.012-0.166-2.047-0.14-3.042,0.019c-0.315,0.05-0.637,0.122-0.967,0.205 c-1.147,0.287-2.395,0.926-3.612,1.797c-1.076,0.727-2.71,2.062-4.506,3.284c-0.754,0.513-1.53,0.993-2.311,1.403 c-2.566,1.345-4.058,1.141-4.863,0.732c-0.479-0.243-0.647-0.662-0.617-0.868c0.023-0.154,0.143-0.43,0.185-0.469 c0.798-1.398,2.685-3.653,4.826-5.864C9.717,14.783,12.204,12.525,13.815,11.392z"/><radialGradient id="jJAzqVmXYe34nuKHWGQb4t" cx="22.579" cy="18.746" r="23.802" gradientTransform="matrix(1 0 0 .7219 0 5.214)" gradientUnits="userSpaceOnUse"><stop offset=".004" stop-color="#fd4985"/><stop offset=".166" stop-color="#f44681"/><stop offset=".331" stop-color="#df346f"/><stop offset=".607" stop-color="#b30e49"/><stop offset=".625" stop-color="#ae0d47"/><stop offset=".749" stop-color="#8f0439"/><stop offset=".819" stop-color="#830134"/><stop offset=".846" stop-color="#7f0032"/><stop offset=".976" stop-color="#6b012c"/><stop offset=".983" stop-color="#6b012c"/></radialGradient><path fill="url(#jJAzqVmXYe34nuKHWGQb4t)" d="M13.926,11.653c1.612-1.189,2.918-1.543,4.248-1.513c0.248,0.005,0.494,0.025,0.736,0.061 c0.545,0.079,1.077,0.199,1.588,0.358c2.34,0.728,4.904,0.513,7.339-0.25c0.67-0.21,1.382-0.291,2.109-0.236 c1.4,0.107,2.658,0.736,2.95,0.969c1.537,0.665,4.129,2.818,6.518,5.243c2.083,2.114,3.916,4.427,4.933,5.988 c0.274,0.246,1.024,2.023-0.376,2.185c-0.075,0.071-0.333,0.074-0.545,0.028c-2.278-0.491-5.003-2.174-7.463-3.937 c-2.054-1.471-3.906-2.918-4.923-3.448c-0.659-0.403-1.336-0.699-2.009-0.858c-0.622-0.148-1.261-0.167-1.891-0.079 c-0.302,0.043-0.604,0.096-0.903,0.157c-0.553,0.113-1.129,0.183-1.717,0.213c-0.024,0.003-0.174,0.005-0.199,0.008 c-0.633,0.013-1.248-0.018-1.832-0.099c-1.015-0.143-2.048-0.126-3.042-0.006c-0.318,0.039-0.641,0.096-0.971,0.159 c-1.169,0.225-2.435,0.827-3.636,1.703c-0.942,0.636-2.595,2.034-4.448,3.344c-0.741,0.523-1.506,1.019-2.279,1.446 c-2.445,1.352-3.96,1.301-4.803,1.011c-0.524-0.18-0.702-0.583-0.661-0.787c0.029-0.143,0.145-0.398,0.202-0.451 c0.807-1.324,2.741-3.537,4.893-5.697C10.024,14.873,12.516,12.645,13.926,11.653z"/><radialGradient id="jJAzqVmXYe34nuKHWGQb4u" cx="22.542" cy="18.434" r="24.369" gradientTransform="matrix(1 0 0 .7037 0 5.462)" gradientUnits="userSpaceOnUse"><stop offset=".004" stop-color="#fc518b"/><stop offset=".166" stop-color="#f54e88"/><stop offset=".329" stop-color="#e03974"/><stop offset=".607" stop-color="#b30e49"/><stop offset=".634" stop-color="#ab0c46"/><stop offset=".753" stop-color="#8c0438"/><stop offset=".819" stop-color="#800133"/><stop offset=".846" stop-color="#7c0031"/><stop offset=".976" stop-color="#6b012c"/><stop offset=".983" stop-color="#6b012c"/></radialGradient><path fill="url(#jJAzqVmXYe34nuKHWGQb4u)" d="M14.036,11.914c1.545-1.155,2.866-1.527,4.207-1.489c0.245,0.006,0.487,0.027,0.727,0.064 c0.538,0.081,1.065,0.194,1.576,0.338c2.317,0.654,4.843,0.452,7.267-0.275c0.669-0.201,1.375-0.271,2.093-0.21 c1.337,0.115,2.548,0.711,2.914,1.002c1.317,0.57,3.881,2.656,6.295,5.03c2.025,1.992,3.841,4.18,4.9,5.685 c0.343,0.307,1.073,1.916-0.077,2.118c-0.042,0.089-0.313,0.095-0.527,0.041c-2.163-0.548-4.918-2.286-7.386-4.08 c-2.121-1.541-4.014-3.035-4.885-3.489c-0.65-0.413-1.326-0.712-2.004-0.871c-0.622-0.146-1.261-0.163-1.89-0.069 c-0.303,0.046-0.606,0.101-0.907,0.161c-0.555,0.111-1.131,0.183-1.715,0.217c-0.031,0.003-0.169,0.006-0.199,0.009 c-0.631,0.02-1.248-0.002-1.836-0.07c-1.018-0.121-2.048-0.114-3.043-0.03c-0.32,0.027-0.645,0.069-0.975,0.114 c-1.192,0.161-2.475,0.728-3.661,1.609c-0.807,0.545-2.481,2.005-4.39,3.404c-0.728,0.533-1.483,1.045-2.246,1.489 c-2.326,1.356-3.864,1.466-4.743,1.29c-0.57-0.114-0.757-0.504-0.704-0.705c0.034-0.131,0.148-0.367,0.219-0.433 c0.815-1.251,2.797-3.419,4.959-5.529C10.331,14.962,12.828,12.764,14.036,11.914z"/><radialGradient id="jJAzqVmXYe34nuKHWGQb4v" cx="22.512" cy="18.142" r="24.926" gradientTransform="matrix(1 0 0 .6855 0 5.706)" gradientUnits="userSpaceOnUse"><stop offset=".004" stop-color="#fc5892"/><stop offset=".166" stop-color="#f5558e"/><stop offset=".32" stop-color="#e14079"/><stop offset=".607" stop-color="#b40f49"/><stop offset=".642" stop-color="#a90c44"/><stop offset=".756" stop-color="#8a0437"/><stop offset=".819" stop-color="#7e0132"/><stop offset=".846" stop-color="#7a0131"/><stop offset=".976" stop-color="#6b012c"/><stop offset=".983" stop-color="#6b012c"/></radialGradient><path fill="url(#jJAzqVmXYe34nuKHWGQb4v)" d="M14.146,12.175c1.477-1.121,2.814-1.51,4.165-1.464c0.241,0.007,0.481,0.03,0.718,0.067 c0.53,0.083,1.054,0.188,1.563,0.317c2.295,0.581,4.781,0.39,7.196-0.301c0.667-0.191,1.368-0.252,2.076-0.184 c1.275,0.122,2.438,0.686,2.877,1.035c1.098,0.475,3.632,2.496,6.073,4.818c1.965,1.87,3.767,3.933,4.866,5.382 c0.412,0.369,1.121,1.808,0.223,2.052c-0.009,0.107-0.293,0.117-0.509,0.054c-2.049-0.6-4.834-2.399-7.309-4.222 c-2.188-1.612-4.121-3.153-4.847-3.531c-0.641-0.423-1.317-0.726-1.999-0.883c-0.622-0.144-1.261-0.159-1.889-0.059 c-0.304,0.05-0.608,0.105-0.91,0.165c-0.558,0.11-1.133,0.183-1.714,0.222c-0.037,0.004-0.163,0.008-0.2,0.011 c-0.63,0.027-1.247,0.014-1.839-0.041c-1.021-0.098-2.049-0.101-3.043-0.054c-0.323,0.015-0.649,0.042-0.98,0.068 c-1.216,0.097-2.515,0.629-3.685,1.515c-0.673,0.454-2.368,1.975-4.332,3.463c-0.716,0.542-1.461,1.069-2.213,1.533 c-2.207,1.358-3.768,1.636-4.683,1.569c-0.616-0.045-0.813-0.424-0.748-0.624c0.039-0.12,0.151-0.335,0.236-0.414 c0.824-1.177,2.854-3.302,5.025-5.362C10.638,15.053,13.14,12.883,14.146,12.175z"/><radialGradient id="jJAzqVmXYe34nuKHWGQb4w" cx="22.49" cy="17.868" r="25.477" gradientTransform="matrix(1 0 0 .6673 0 5.945)" gradientUnits="userSpaceOnUse"><stop offset=".004" stop-color="#fb6098"/><stop offset=".166" stop-color="#f65d95"/><stop offset=".306" stop-color="#e44880"/><stop offset=".595" stop-color="#b6114b"/><stop offset=".607" stop-color="#b40f49"/><stop offset=".649" stop-color="#a60c43"/><stop offset=".758" stop-color="#870436"/><stop offset=".819" stop-color="#7b0131"/><stop offset=".846" stop-color="#770130"/><stop offset=".976" stop-color="#6b012c"/><stop offset=".983" stop-color="#6b012c"/></radialGradient><path fill="url(#jJAzqVmXYe34nuKHWGQb4w)" d="M14.257,12.436c1.409-1.087,2.761-1.493,4.124-1.44c0.238,0.008,0.474,0.032,0.708,0.07 c0.523,0.084,1.042,0.183,1.551,0.297c2.272,0.509,4.72,0.329,7.125-0.326c0.666-0.182,1.361-0.233,2.06-0.158 c1.212,0.129,2.329,0.661,2.841,1.068c0.878,0.38,3.381,2.337,5.85,4.606c1.904,1.751,3.692,3.685,4.833,5.079 c0.48,0.43,1.169,1.701,0.522,1.985c0.024,0.124-0.273,0.14-0.491,0.067c-1.937-0.647-4.749-2.512-7.232-4.365 c-2.255-1.683-4.229-3.27-4.81-3.573c-0.631-0.433-1.307-0.739-1.993-0.895c-0.622-0.142-1.261-0.155-1.888-0.048 c-0.306,0.053-0.61,0.11-0.913,0.168c-0.561,0.108-1.134,0.183-1.712,0.226c-0.043,0.005-0.157,0.009-0.2,0.013 c-0.629,0.034-1.247,0.031-1.843-0.011c-1.024-0.075-2.05-0.089-3.044-0.078c-0.326,0.003-0.654,0.014-0.984,0.022 c-1.239,0.031-2.556,0.53-3.709,1.421c-0.538,0.364-2.256,1.943-4.274,3.523c-0.704,0.551-1.439,1.093-2.181,1.576 c-2.09,1.359-3.671,1.809-4.624,1.848c-0.662,0.027-0.871-0.345-0.791-0.543c0.044-0.109,0.154-0.304,0.253-0.396 c0.832-1.103,2.911-3.184,5.091-5.195C10.946,15.143,13.451,13.003,14.257,12.436z"/><radialGradient id="jJAzqVmXYe34nuKHWGQb4x" cx="22.481" cy="17.614" r="26.026" gradientTransform="matrix(1 0 0 .6491 0 6.18)" gradientUnits="userSpaceOnUse"><stop offset=".004" stop-color="#fb679e"/><stop offset=".166" stop-color="#f7659c"/><stop offset=".295" stop-color="#e65088"/><stop offset=".56" stop-color="#bc1953"/><stop offset=".607" stop-color="#b40f49"/><stop offset=".656" stop-color="#a30b42"/><stop offset=".761" stop-color="#840435"/><stop offset=".819" stop-color="#780130"/><stop offset=".846" stop-color="#74012f"/><stop offset=".976" stop-color="#6b012c"/><stop offset=".983" stop-color="#6b012c"/></radialGradient><path fill="url(#jJAzqVmXYe34nuKHWGQb4x)" d="M14.367,12.697c1.341-1.053,2.709-1.476,4.083-1.416c0.235,0.01,0.468,0.034,0.699,0.073 c0.516,0.086,1.031,0.178,1.539,0.277c2.249,0.437,4.659,0.267,7.053-0.352c0.664-0.173,1.354-0.214,2.043-0.133 c1.149,0.136,2.219,0.636,2.804,1.101c0.659,0.285,3.128,2.18,5.627,4.394c1.842,1.632,3.618,3.438,4.8,4.775 c0.549,0.491,1.218,1.594,0.822,1.918c0.057,0.142-0.253,0.162-0.472,0.08c-1.826-0.69-4.66-2.63-7.155-4.508 c-2.317-1.758-4.336-3.387-4.772-3.614c-0.622-0.443-1.298-0.752-1.988-0.908c-0.621-0.14-1.261-0.151-1.887-0.038 c-0.307,0.057-0.612,0.114-0.916,0.172c-0.564,0.107-1.136,0.183-1.71,0.23c-0.049,0.005-0.152,0.01-0.2,0.015 c-0.628,0.041-1.246,0.047-1.846,0.018c-1.027-0.053-2.05-0.077-3.044-0.102c-0.328-0.008-0.658-0.014-0.988-0.023 c-1.262-0.037-2.596,0.43-3.734,1.327c-0.404,0.273-2.145,1.909-4.216,3.582c-0.693,0.56-1.417,1.116-2.148,1.619 c-1.974,1.357-3.573,1.985-4.564,2.127c-0.706,0.101-0.929-0.266-0.835-0.461c0.047-0.098,0.157-0.272,0.27-0.378 c0.841-1.029,2.969-3.065,5.157-5.027C11.254,15.235,13.763,13.122,14.367,12.697z"/><radialGradient id="jJAzqVmXYe34nuKHWGQb4y" cx="22.492" cy="17.38" r="26.585" gradientTransform="matrix(1 0 0 .6309 0 6.414)" gradientUnits="userSpaceOnUse"><stop offset=".004" stop-color="#fa6ea4"/><stop offset=".166" stop-color="#f86da3"/><stop offset=".285" stop-color="#e9588f"/><stop offset=".53" stop-color="#c1215b"/><stop offset=".607" stop-color="#b40f4a"/><stop offset=".662" stop-color="#a00b42"/><stop offset=".763" stop-color="#810435"/><stop offset=".819" stop-color="#750230"/><stop offset=".846" stop-color="#71012e"/><stop offset=".976" stop-color="#6b012c"/><stop offset=".983" stop-color="#6b012c"/></radialGradient><path fill="url(#jJAzqVmXYe34nuKHWGQb4y)" d="M14.478,12.958c1.274-1.02,2.657-1.46,4.042-1.391c0.231,0.011,0.462,0.036,0.69,0.076 c0.509,0.088,1.019,0.173,1.527,0.257c2.226,0.365,4.597,0.205,6.982-0.377c0.663-0.163,1.348-0.196,2.027-0.107 c1.086,0.142,2.11,0.611,2.768,1.134c0.439,0.19,2.873,2.025,5.404,4.181c1.779,1.515,3.544,3.191,4.767,4.472 c0.618,0.553,1.266,1.486,1.121,1.851c0.09,0.16-0.234,0.186-0.454,0.092c-1.718-0.729-4.575-2.742-7.078-4.651 c-2.384-1.829-4.444-3.505-4.734-3.656c-0.613-0.453-1.289-0.766-1.982-0.92c-0.621-0.138-1.261-0.147-1.886-0.027 c-0.308,0.06-0.614,0.119-0.92,0.176c-0.567,0.105-1.138,0.183-1.708,0.235c-0.055,0.006-0.146,0.011-0.201,0.017 c-0.627,0.048-1.245,0.064-1.85,0.047c-1.029-0.03-2.051-0.065-3.044-0.127c-0.331-0.021-0.662-0.042-0.993-0.069 c-1.285-0.105-2.636,0.331-3.758,1.233c-0.269,0.182-2.036,1.875-4.158,3.642c-0.682,0.568-1.396,1.139-2.116,1.662 c-1.86,1.353-3.472,2.162-4.504,2.406c-0.749,0.177-0.989-0.189-0.879-0.38c0.05-0.087,0.16-0.241,0.287-0.359 c0.849-0.956,3.03-2.942,5.223-4.86C11.567,15.332,14.075,13.241,14.478,12.958z"/><radialGradient id="jJAzqVmXYe34nuKHWGQb4z" cx="22.553" cy="17.196" r="27.206" gradientTransform="matrix(1 0 0 .6127 0 6.66)" gradientUnits="userSpaceOnUse"><stop offset=".004" stop-color="#fa76aa"/><stop offset=".166" stop-color="#f875a9"/><stop offset=".277" stop-color="#ea6095"/><stop offset=".505" stop-color="#c62963"/><stop offset=".607" stop-color="#b50f4a"/><stop offset=".668" stop-color="#9e0a41"/><stop offset=".765" stop-color="#7f0434"/><stop offset=".819" stop-color="#73022f"/><stop offset=".846" stop-color="#6e012d"/><stop offset=".976" stop-color="#6b012c"/><stop offset=".983" stop-color="#6b012c"/></radialGradient><path fill="url(#jJAzqVmXYe34nuKHWGQb4z)" d="M14.588,13.219c1.206-0.986,2.604-1.443,4.001-1.367c0.228,0.012,0.455,0.039,0.681,0.08 c0.502,0.09,1.007,0.169,1.515,0.237c2.203,0.298,4.536,0.144,6.911-0.403c0.661-0.154,1.341-0.178,2.01-0.081 c1.024,0.147,2,0.586,2.732,1.167c0.22,0.095,2.616,1.874,5.181,3.969c1.714,1.4,3.469,2.944,4.734,4.169 c0.686,0.614,1.314,1.379,1.42,1.784c0.123,0.178-0.215,0.21-0.436,0.105c-1.613-0.764-4.491-2.854-7.001-4.793 c-2.451-1.899-4.551-3.622-4.696-3.698c-0.604-0.464-1.279-0.779-1.977-0.932c-0.621-0.137-1.261-0.143-1.885-0.017 c-0.309,0.064-0.617,0.124-0.923,0.179c-0.57,0.104-1.139,0.183-1.707,0.239c-0.061,0.007-0.14,0.013-0.201,0.019 c-0.626,0.054-1.245,0.08-1.853,0.076c-1.032-0.007-2.051-0.055-3.045-0.151c-0.334-0.033-0.666-0.07-0.997-0.114 c-1.307-0.175-2.676,0.232-3.782,1.139c-0.135,0.091-1.928,1.839-4.1,3.702c-0.671,0.576-1.376,1.16-2.083,1.705 c-1.748,1.348-3.369,2.34-4.444,2.685c-0.79,0.253-1.05-0.113-0.922-0.298c0.053-0.077,0.163-0.209,0.304-0.341 c0.857-0.882,3.087-2.824,5.289-4.692C11.875,15.422,14.387,13.361,14.588,13.219z"/><radialGradient id="jJAzqVmXYe34nuKHWGQb4A" cx="22.618" cy="17.05" r="27.829" gradientTransform="matrix(1 0 0 .5945 0 6.913)" gradientUnits="userSpaceOnUse"><stop offset=".166" stop-color="#f97db0"/><stop offset=".27" stop-color="#ec689c"/><stop offset=".483" stop-color="#ca316a"/><stop offset=".607" stop-color="#b50f4a"/><stop offset=".69" stop-color="#96093d"/><stop offset=".79" stop-color="#770331"/><stop offset=".846" stop-color="#6b012c"/><stop offset=".983" stop-color="#6b012c"/></radialGradient><path fill="url(#jJAzqVmXYe34nuKHWGQb4A)" d="M43.321,22.612c-1.511-0.798-4.406-2.967-6.924-4.936s-4.658-3.739-4.658-3.739 c-1.121-0.893-2.527-1.234-3.855-0.951c-3.045,0.659-5.984,0.731-8.736,0.218c-1.329-0.244-2.716,0.133-3.807,1.045 c0,0-1.821,1.801-4.042,3.761s-4.839,4.078-6.435,4.712c-0.83,0.33-1.112-0.038-0.966-0.217c0.368-0.447,3.068-2.704,5.676-4.848 s5.124-4.177,5.124-4.177c1.32-1.104,3.01-1.565,4.631-1.26c2.62,0.487,5.427,0.417,8.342-0.212 c1.622-0.354,3.333,0.066,4.689,1.145c0,0,2.357,1.726,4.958,3.757s5.445,4.366,6.42,5.583 C43.896,22.689,43.543,22.728,43.321,22.612z"/></g></svg>