<svg xmlns="http://www.w3.org/2000/svg" viewBox="0 0 48 48"><path fill="#dedede" d="M24.094,9.678c6.451,0,11.681,8.554,11.681,19.106c0,4.886-1.122,9.344-2.967,12.722	c-1.199,2.196-4.523,1.523-4.803-0.963l-1.059-9.388c-0.152-1.349-1.166-2.514-2.515-2.67c-1.596-0.185-2.997,0.96-3.172,2.514	l-1.076,9.545c-0.28,2.486-3.604,3.158-4.803,0.963c-1.845-3.378-2.967-7.835-2.967-12.722C12.413,18.232,17.643,9.678,24.094,9.678	z"/><radialGradient id="~pySWCP9Q_s7G1wFpN4rba" cx="536.742" cy="1874.916" r="5.871" gradientTransform="matrix(.6368 0 0 .5358 -325.364 -980.233)" gradientUnits="userSpaceOnUse"><stop offset="0" stop-color="#f7f7f7"/><stop offset="1" stop-color="#f2f2f2" stop-opacity="0"/></radialGradient><ellipse cx="16.419" cy="24.299" fill="url(#~pySWCP9Q_s7G1wFpN4rba)" rx="3.676" ry="3.137"/><radialGradient id="~pySWCP9Q_s7G1wFpN4rbb" cx="-1264.106" cy="354.71" r="6.538" gradientTransform="matrix(-.9989 -.046 .1205 -2.6174 -1274.06 900.625)" gradientUnits="userSpaceOnUse"><stop offset=".07" stop-color="#f7f7f7"/><stop offset=".272" stop-color="#f4f4f4" stop-opacity=".783"/><stop offset=".442" stop-color="#e9e9e9" stop-opacity=".6"/><stop offset=".601" stop-color="#d8d8d8" stop-opacity=".429"/><stop offset=".753" stop-color="#bfbfbf" stop-opacity=".266"/><stop offset=".898" stop-color="#a0a0a0" stop-opacity=".109"/><stop offset="1" stop-color="#858585" stop-opacity="0"/></radialGradient><path fill="url(#~pySWCP9Q_s7G1wFpN4rbb)" d="M24.094,9.678c6.451,0,11.681,8.554,11.681,19.106c0,4.886-1.122,9.344-2.967,12.722	c-1.199,2.196-4.523,1.523-4.803-0.963l-1.059-9.388c-0.152-1.349-1.166-2.514-2.515-2.67c-1.596-0.185-2.997,0.96-3.172,2.514	l-1.076,9.545c-0.28,2.486-3.604,3.158-4.803,0.963c-1.845-3.378-2.967-7.835-2.967-12.722C12.413,18.232,17.643,9.678,24.094,9.678	z"/><radialGradient id="~pySWCP9Q_s7G1wFpN4rbc" cx="603.993" cy="321.879" r="6.538" gradientTransform="matrix(.9989 -.046 -.1205 -2.6174 -547.75 900.625)" gradientUnits="userSpaceOnUse"><stop offset=".07" stop-color="#f7f7f7"/><stop offset=".272" stop-color="#f4f4f4" stop-opacity=".783"/><stop offset=".442" stop-color="#e9e9e9" stop-opacity=".6"/><stop offset=".601" stop-color="#d8d8d8" stop-opacity=".429"/><stop offset=".753" stop-color="#bfbfbf" stop-opacity=".266"/><stop offset=".898" stop-color="#a0a0a0" stop-opacity=".109"/><stop offset="1" stop-color="#858585" stop-opacity="0"/></radialGradient><path fill="url(#~pySWCP9Q_s7G1wFpN4rbc)" d="M24.094,9.678c-6.451,0-11.681,8.554-11.681,19.106c0,4.886,1.122,9.344,2.967,12.722	c1.199,2.196,4.523,1.523,4.803-0.963l1.059-9.388c0.152-1.349,1.166-2.514,2.515-2.67c1.596-0.185,2.997,0.96,3.172,2.514	l1.076,9.545c0.28,2.486,3.604,3.158,4.803,0.963c1.845-3.378,2.967-7.835,2.967-12.722C35.775,18.232,30.545,9.678,24.094,9.678z"/><radialGradient id="~pySWCP9Q_s7G1wFpN4rbd" cx="24.309" cy="1194.679" r="17.803" gradientTransform="matrix(1 0 0 .8737 0 -1027.882)" gradientUnits="userSpaceOnUse"><stop offset="0" stop-color="#f7f7f7"/><stop offset=".383" stop-color="#f5f5f5"/><stop offset=".57" stop-color="#ededed"/><stop offset=".714" stop-color="#e0e0e0"/><stop offset=".837" stop-color="#cecece"/><stop offset=".944" stop-color="#b6b6b6"/><stop offset="1" stop-color="#a6a6a6"/></radialGradient><path fill="url(#~pySWCP9Q_s7G1wFpN4rbd)" d="M29.349,5.167c-2.019,0-3.873,0.776-5.349,2.067c-1.476-1.291-3.33-2.067-5.349-2.067	c-4.806,0-8.702,4.357-8.702,9.731c0,3.039,1.264,5.735,3.199,7.538c0.725,0.676,5.243,2.032,6.895,1.16	c0.915-0.483,1.771-0.913,2.557-1.343c0.65,0.588,1.507,1.14,2.656,1.747c1.652,0.872,8.098-0.194,9.597-1.564	c1.952-1.784,3.199-4.499,3.199-7.538C38.051,9.524,34.155,5.167,29.349,5.167z"/><radialGradient id="~pySWCP9Q_s7G1wFpN4rbe" cx="-135.061" cy="-114.162" r="5.52" gradientTransform="matrix(.9418 0 0 -.8325 146.048 -71.767)" gradientUnits="userSpaceOnUse"><stop offset="0" stop-color="#f7f7f7"/><stop offset=".804" stop-color="#f5f5f5" stop-opacity=".196"/><stop offset="1" stop-color="#f2f2f2" stop-opacity="0"/></radialGradient><ellipse cx="18.848" cy="23.271" fill="url(#~pySWCP9Q_s7G1wFpN4rbe)" rx="5.875" ry="5.41"/><radialGradient id="~pySWCP9Q_s7G1wFpN4rbf" cx="-130.474" cy="-113.396" r="5.52" gradientTransform="matrix(.9418 0 0 -.8325 146.048 -71.767)" gradientUnits="userSpaceOnUse"><stop offset="0" stop-color="#f7f7f7"/><stop offset=".804" stop-color="#f5f5f5" stop-opacity=".196"/><stop offset="1" stop-color="#f2f2f2" stop-opacity="0"/></radialGradient><ellipse cx="23.168" cy="22.633" fill="url(#~pySWCP9Q_s7G1wFpN4rbf)" rx="5.875" ry="5.41"/><radialGradient id="~pySWCP9Q_s7G1wFpN4rbg" cx="-124.95" cy="-114.737" r="5.52" gradientTransform="matrix(.9418 0 0 -.8325 146.048 -71.767)" gradientUnits="userSpaceOnUse"><stop offset="0" stop-color="#f7f7f7"/><stop offset=".804" stop-color="#f5f5f5" stop-opacity=".196"/><stop offset="1" stop-color="#f2f2f2" stop-opacity="0"/></radialGradient><ellipse cx="28.371" cy="23.75" fill="url(#~pySWCP9Q_s7G1wFpN4rbg)" rx="5.875" ry="5.41"/><radialGradient id="~pySWCP9Q_s7G1wFpN4rbh" cx="-122.073" cy="-113.396" r="3.754" gradientTransform="matrix(.9418 0 0 -.8325 146.048 -71.767)" gradientUnits="userSpaceOnUse"><stop offset="0" stop-color="#f7f7f7"/><stop offset=".804" stop-color="#f5f5f5" stop-opacity=".196"/><stop offset="1" stop-color="#f2f2f2" stop-opacity="0"/></radialGradient><ellipse cx="31.08" cy="22.633" fill="url(#~pySWCP9Q_s7G1wFpN4rbh)" rx="3.995" ry="3.679"/><radialGradient id="~pySWCP9Q_s7G1wFpN4rbi" cx="-127.142" cy="-114.047" r="5.26" gradientTransform="matrix(.9418 0 0 -.8325 146.048 -71.767)" gradientUnits="userSpaceOnUse"><stop offset="0" stop-color="#f7f7f7"/><stop offset=".804" stop-color="#f5f5f5" stop-opacity=".196"/><stop offset="1" stop-color="#f2f2f2" stop-opacity="0"/></radialGradient><ellipse cx="26.306" cy="23.176" fill="url(#~pySWCP9Q_s7G1wFpN4rbi)" rx="5.598" ry="5.154"/><radialGradient id="~pySWCP9Q_s7G1wFpN4rbj" cx="-132.124" cy="-113.702" r="5.26" gradientTransform="matrix(.9418 0 0 -.8325 146.048 -71.767)" gradientUnits="userSpaceOnUse"><stop offset="0" stop-color="#f7f7f7"/><stop offset=".804" stop-color="#f5f5f5" stop-opacity=".196"/><stop offset="1" stop-color="#f2f2f2" stop-opacity="0"/></radialGradient><ellipse cx="21.615" cy="22.888" fill="url(#~pySWCP9Q_s7G1wFpN4rbj)" rx="5.598" ry="5.154"/><radialGradient id="~pySWCP9Q_s7G1wFpN4rbk" cx="-137.518" cy="-114.102" r="3.346" gradientTransform="matrix(.9418 0 0 -.8325 146.048 -71.767)" gradientUnits="userSpaceOnUse"><stop offset="0" stop-color="#f7f7f7"/><stop offset=".804" stop-color="#f5f5f5" stop-opacity=".196"/><stop offset="1" stop-color="#f2f2f2" stop-opacity="0"/></radialGradient><ellipse cx="16.534" cy="23.221" fill="url(#~pySWCP9Q_s7G1wFpN4rbk)" rx="3.561" ry="3.279"/></svg>