<svg xmlns="http://www.w3.org/2000/svg" viewBox="0 0 48 48"><radialGradient id="JY_8ANXRGaHeVOLmmov5Ca" cx="24.371" cy="3.5" r="16.526" gradientTransform="matrix(1 0 0 -1 0 48)" gradientUnits="userSpaceOnUse"><stop offset="0" stop-color="#0ba852"/><stop offset=".999" stop-color="#006837"/></radialGradient><path fill="url(#JY_8ANXRGaHeVOLmmov5Ca)" d="M43,46c0,0,0.054-9.133-6.089-10.749C33.774,34.426,24.018,32,24.001,32	s-9.774,2.426-12.91,3.251C4.947,36.867,5,46,5,46H43z"/><linearGradient id="JY_8ANXRGaHeVOLmmov5Cb" x1="23.954" x2="23.954" y1="5.802" y2="12.492" gradientTransform="matrix(1 0 0 -1 0 48)" gradientUnits="userSpaceOnUse"><stop offset="0" stop-color="#0ba852"/><stop offset=".999" stop-color="#006837"/></linearGradient><path fill="url(#JY_8ANXRGaHeVOLmmov5Cb)" d="M23.529,40.994c-1.734-2.157-3.748-4.93-5.931-7.346c-0.38-0.748,0.058-1.992,1.477-2.126	c3.237-0.335,6.628-0.46,9.749,0.023c1.472,0.298,1.862,1.581,1.477,2.121c-1.833,2.022-4.048,4.912-5.819,7.322	C24.259,41.34,23.757,41.342,23.529,40.994z"/><linearGradient id="JY_8ANXRGaHeVOLmmov5Cc" x1="23.937" x2="23.937" y1="7.894" y2="12.346" gradientTransform="matrix(1 0 0 -1 0 48)" gradientUnits="userSpaceOnUse"><stop offset="0" stop-color="#fdd02d"/><stop offset=".999" stop-color="#cf941d"/></linearGradient><path fill="url(#JY_8ANXRGaHeVOLmmov5Cc)" d="M24,41L24,41l-5.156-7.75c-1.141-1.531,11.266-1.484,10.195,0.024L24,41z"/><radialGradient id="JY_8ANXRGaHeVOLmmov5Cd" cx="46.295" cy="3.33" r="15.162" gradientTransform="matrix(-1 0 0 -.9948 70.695 47.947)" gradientUnits="userSpaceOnUse"><stop offset="0" stop-color="#0ba852"/><stop offset=".999" stop-color="#006837"/></radialGradient><path fill="url(#JY_8ANXRGaHeVOLmmov5Cd)" d="M38.613,38.513c0.008,1.175,0.029,2.395-0.018,3.643c-0.046,1.247-0.159,2.521-0.416,3.801 h-1.055H36.07c0.386-1.251,0.709-2.418,0.972-3.623c0.262-1.206,0.464-2.45,0.607-3.858C37.714,37.564,38.601,37.607,38.613,38.513 z"/><radialGradient id="JY_8ANXRGaHeVOLmmov5Ce" cx="45.376" cy="3.293" r="14.119" gradientTransform="matrix(-1 0 0 -.9948 70.695 47.947)" gradientUnits="userSpaceOnUse"><stop offset="0" stop-color="#0a9d4d"/><stop offset=".999" stop-color="#006736"/></radialGradient><path fill="url(#JY_8ANXRGaHeVOLmmov5Ce)" d="M38.555,38.608c0.003,1.171,0.014,2.377-0.039,3.605c-0.05,1.195-0.161,2.411-0.404,3.638 c-0.006,0.036-0.917,0.071-0.924,0.106h-0.504H36.18c0.216-0.701,0.41-1.377,0.583-2.046c0.126-0.488,0.24-0.974,0.344-1.466 c0.034-0.16,0.067-0.322,0.098-0.484c0.132-0.675,0.245-1.369,0.341-2.101c0.049-0.374,0.094-0.759,0.134-1.156 c0.042-0.568,0.402-0.768,0.639-0.624C38.432,38.133,38.554,38.315,38.555,38.608z"/><radialGradient id="JY_8ANXRGaHeVOLmmov5Cf" cx="44.482" cy="3.259" r="13.11" gradientTransform="matrix(-1 0 0 -.9948 70.695 47.947)" gradientUnits="userSpaceOnUse"><stop offset="0" stop-color="#089348"/><stop offset=".999" stop-color="#016535"/></radialGradient><path fill="url(#JY_8ANXRGaHeVOLmmov5Cf)" d="M38.496,38.702c-0.003,1.168,0,2.358-0.059,3.567c-0.054,1.141-0.164,2.302-0.392,3.475 c-0.012,0.071-0.779,0.142-0.793,0.214h-0.481H36.29c0.209-0.678,0.394-1.332,0.557-1.98c0.119-0.474,0.227-0.945,0.324-1.423 c0.032-0.157,0.063-0.314,0.093-0.473c0.124-0.656,0.229-1.327,0.319-2.035c0.046-0.361,0.089-0.732,0.127-1.116 c0.04-0.524,0.345-0.742,0.548-0.675C38.354,38.255,38.498,38.415,38.496,38.702z"/><radialGradient id="JY_8ANXRGaHeVOLmmov5Cg" cx="43.603" cy="3.231" r="12.12" gradientTransform="matrix(-1 0 0 -.9948 70.695 47.947)" gradientUnits="userSpaceOnUse"><stop offset="0" stop-color="#078843"/><stop offset=".999" stop-color="#016434"/></radialGradient><path fill="url(#JY_8ANXRGaHeVOLmmov5Cg)" d="M38.438,38.796c-0.008,1.164-0.014,2.339-0.08,3.53c-0.057,1.088-0.166,2.194-0.38,3.311 c-0.018,0.106-0.641,0.213-0.662,0.32h-0.458H36.4c0.202-0.656,0.378-1.287,0.532-1.914c0.113-0.46,0.214-0.916,0.305-1.378 c0.03-0.153,0.059-0.306,0.087-0.461c0.115-0.636,0.213-1.285,0.298-1.97c0.043-0.349,0.083-0.706,0.121-1.075 c0.038-0.479,0.288-0.717,0.457-0.727C38.275,38.376,38.443,38.515,38.438,38.796z"/><radialGradient id="JY_8ANXRGaHeVOLmmov5Ch" cx="42.724" cy="3.207" r="11.133" gradientTransform="matrix(-1 0 0 -.9948 70.695 47.947)" gradientUnits="userSpaceOnUse"><stop offset="0" stop-color="#067e3f"/><stop offset=".999" stop-color="#016233"/></radialGradient><path fill="url(#JY_8ANXRGaHeVOLmmov5Ch)" d="M38.379,38.89c-0.014,1.16-0.029,2.32-0.101,3.493c-0.061,1.036-0.169,2.084-0.368,3.148 c-0.024,0.141-0.503,0.284-0.532,0.427h-0.435H36.51c0.195-0.633,0.362-1.242,0.507-1.847c0.106-0.445,0.201-0.887,0.285-1.334 c0.028-0.149,0.055-0.298,0.081-0.45c0.107-0.616,0.197-1.244,0.276-1.904c0.041-0.336,0.078-0.68,0.114-1.036 c0.036-0.436,0.232-0.691,0.366-0.779C38.196,38.497,38.387,38.615,38.379,38.89z"/><radialGradient id="JY_8ANXRGaHeVOLmmov5Ci" cx="41.846" cy="3.184" r="10.147" gradientTransform="matrix(-1 0 0 -.9948 70.695 47.947)" gradientUnits="userSpaceOnUse"><stop offset="0" stop-color="#05733a"/><stop offset=".999" stop-color="#016132"/></radialGradient><path fill="url(#JY_8ANXRGaHeVOLmmov5Ci)" d="M38.321,38.985c-0.019,1.157-0.043,2.3-0.122,3.455c-0.065,0.983-0.171,1.975-0.355,2.984 c-0.03,0.177-0.365,0.354-0.401,0.533h-0.411H36.62c0.188-0.61,0.346-1.198,0.482-1.781c0.1-0.431,0.187-0.859,0.265-1.29 c0.026-0.145,0.051-0.291,0.075-0.438c0.098-0.596,0.181-1.203,0.255-1.838c0.038-0.323,0.073-0.655,0.108-0.995 c0.034-0.392,0.175-0.666,0.276-0.831C38.118,38.619,38.332,38.714,38.321,38.985z"/><radialGradient id="JY_8ANXRGaHeVOLmmov5Cj" cx="40.967" cy="3.163" r="9.163" gradientTransform="matrix(-1 0 0 -.9948 70.695 47.947)" gradientUnits="userSpaceOnUse"><stop offset="0" stop-color="#036935"/><stop offset=".999" stop-color="#025f31"/></radialGradient><path fill="url(#JY_8ANXRGaHeVOLmmov5Cj)" d="M38.262,39.078c-0.025,1.153-0.057,2.281-0.143,3.417c-0.069,0.93-0.174,1.865-0.343,2.821 c-0.036,0.212-0.227,0.426-0.27,0.641h-0.388H36.73c0.181-0.587,0.33-1.153,0.456-1.714c0.093-0.416,0.174-0.83,0.246-1.245 c0.024-0.141,0.047-0.284,0.07-0.426c0.09-0.576,0.165-1.161,0.233-1.773c0.035-0.31,0.068-0.629,0.101-0.955 c0.032-0.347,0.118-0.64,0.185-0.882C38.039,38.74,38.276,38.814,38.262,39.078z"/><path fill="#025e30" d="M38.204,39.173c-0.03,1.15-0.072,2.262-0.164,3.379s-0.236,2.238-0.47,3.405h-0.365H36.84 c0.174-0.564,0.314-1.108,0.431-1.647c0.117-0.539,0.21-1.073,0.29-1.616c0.081-0.555,0.148-1.12,0.212-1.707 c0.063-0.588,0.122-1.199,0.188-1.848C37.96,38.862,38.221,38.913,38.204,39.173z"/><radialGradient id="JY_8ANXRGaHeVOLmmov5Ck" cx="-867.533" cy="-7.201" r="1.867" gradientTransform="matrix(-.8764 .1748 -.3931 -2.1652 -751.064 158.332)" gradientUnits="userSpaceOnUse"><stop offset="0" stop-color="#ffe16e"/><stop offset=".461" stop-color="#ffd226"/><stop offset=".741" stop-color="#f8c21d"/><stop offset=".999" stop-color="#f0af13"/></radialGradient><path fill="url(#JY_8ANXRGaHeVOLmmov5Ck)" d="M12.66,19.601c-0.759-0.243-2.592-0.088-2.656,2.142c-0.06,2.109,0.464,3.07,1.159,3.976	c0.78,1.016,2.183,1.008,2.067,0.201C13.115,25.113,12.66,19.601,12.66,19.601z"/><radialGradient id="JY_8ANXRGaHeVOLmmov5Cl" cx="-123.808" cy="-7.201" r="1.867" gradientTransform="matrix(.829 .1748 .3719 -2.1652 141.345 28.355)" gradientUnits="userSpaceOnUse"><stop offset="0" stop-color="#ffe16e"/><stop offset=".461" stop-color="#ffd226"/><stop offset=".741" stop-color="#f8c21d"/><stop offset=".999" stop-color="#f0af13"/></radialGradient><path fill="url(#JY_8ANXRGaHeVOLmmov5Cl)" d="M35.484,19.601c0.718-0.243,2.452-0.088,2.512,2.142c0.057,2.109-0.439,3.07-1.097,3.976	c-0.738,1.016-2.065,1.008-1.955,0.201C35.053,25.113,35.484,19.601,35.484,19.601z"/><radialGradient id="JY_8ANXRGaHeVOLmmov5Cm" cx="48.862" cy="58.257" r="14.627" fx="48.785" fy="51.99" gradientTransform="matrix(.8889 0 0 -1.0694 -19.419 82.444)" gradientUnits="userSpaceOnUse"><stop offset="0" stop-color="#ffe16e"/><stop offset=".629" stop-color="#ffd226"/><stop offset=".75" stop-color="#fdcd23"/><stop offset=".899" stop-color="#f6bd1b"/><stop offset=".999" stop-color="#f0af13"/></radialGradient><path fill="url(#JY_8ANXRGaHeVOLmmov5Cm)" d="M36.838,19.716c0,2.89-0.193,6.659-1.343,8.971C33.256,33.191,27.296,36,24.015,36	c-3.41,0-9.305-2.809-11.544-7.313c-1.149-2.312-1.279-6.081-1.279-8.971c0-0.635,0.017-1.234,0.051-1.803	c0.196-3.271,0.943-5.526,2.101-7.612c2.299-4.141,6.22-6.012,10.671-6.012c4.426,0,8.329,1.841,10.633,5.945	C36.031,12.695,36.838,15.43,36.838,19.716z"/><radialGradient id="JY_8ANXRGaHeVOLmmov5Cn" cx="24.68" cy="37.459" r="11.216" gradientTransform="matrix(.9947 0 0 -1 -.273 48)" gradientUnits="userSpaceOnUse"><stop offset="0" stop-color="#aa8765"/><stop offset=".059" stop-color="#a17c58"/><stop offset=".165" stop-color="#956d47"/><stop offset=".28" stop-color="#8e653c"/><stop offset=".418" stop-color="#8c6239"/><stop offset=".583" stop-color="#875d34"/><stop offset=".789" stop-color="#774e27"/><stop offset=".999" stop-color="#603813"/></radialGradient><path fill="url(#JY_8ANXRGaHeVOLmmov5Cn)" d="M11.774,20.328c0,0,0.321-3.984,0.12-5.147c0.905-0.657,3.722-2.63,3.32-5.714	c1.157,0.961,7.092,5.006,16.598,1.82c2.113,2.579,2.515,2.68,4.124,3.641c0.402,1.112,0.553,4.76,0.503,5.367	s0.704,1.062,1.056-0.202C37.606,19.695,38,16.346,38,14c0-5-1.547-12.643-13.884-12.747C12.14,1.152,10.062,8.979,10.062,13.979	c0,3,0.725,6.215,0.725,6.215C10.925,20.951,11.611,20.984,11.774,20.328z"/><radialGradient id="JY_8ANXRGaHeVOLmmov5Co" cx="24.843" cy="35.216" r="11.687" gradientTransform="matrix(.9537 -.2806 -.2791 -.9608 10.26 53.592)" gradientUnits="userSpaceOnUse"><stop offset="0" stop-color="#aa8765"/><stop offset=".145" stop-color="#a17c57"/><stop offset=".441" stop-color="#926941"/><stop offset=".629" stop-color="#8c6239"/><stop offset=".711" stop-color="#875d34"/><stop offset=".814" stop-color="#774e27"/><stop offset=".919" stop-color="#603813"/></radialGradient><path fill="url(#JY_8ANXRGaHeVOLmmov5Co)" d="M37.036,13.333c-0.03-0.099-0.101-0.179-0.19-0.231c-1.459-0.859-2.662-2.693-4.568-4.989 c-0.106-0.128-0.284-0.181-0.442-0.131c-8.114,2.613-14.926,0.077-17.213-1.39C14.334,6.406,14.001,6.637,14,6.983 c-0.012,4.21-1.761,6.11-3.068,6.792c-0.155,0.081-0.228,0.237-0.235,0.412c-0.058,1.359-0.205,4.163,0.022,5.526 c0.04,0.299,0.067,0.479,0.067,0.479c0.138,0.757,0.822,0.79,0.985,0.134c0,0,0.286-3.548,0.149-4.925 c-0.014-0.142,0.051-0.28,0.165-0.364c0.95-0.695,3.026-2.316,3.154-4.741c0.017-0.324,0.362-0.521,0.63-0.341 c2.024,1.362,7.501,4.056,15.652,1.417c0.158-0.051,0.338,0.002,0.444,0.131c1.894,2.294,2.352,2.48,3.798,3.338 c0.088,0.052,0.161,0.133,0.19,0.232c0.366,1.255,0.503,4.638,0.455,5.22c-0.05,0.607,0.703,1.062,1.055-0.202 c0.014-0.051,0.035-0.153,0.06-0.295C37.696,18.917,37.413,14.59,37.036,13.333z"/><radialGradient id="JY_8ANXRGaHeVOLmmov5Cp" cx="24.766" cy="35.063" r="11.572" gradientTransform="matrix(.9545 -.2806 -.2794 -.9608 10.307 53.576)" gradientUnits="userSpaceOnUse"><stop offset="0" stop-color="#9f7c59"/><stop offset=".081" stop-color="#9b7652"/><stop offset=".416" stop-color="#8c633c"/><stop offset=".629" stop-color="#865c34"/><stop offset=".719" stop-color="#81572f"/><stop offset=".831" stop-color="#714822"/><stop offset=".919" stop-color="#603813"/></radialGradient><path fill="url(#JY_8ANXRGaHeVOLmmov5Cp)" d="M14.071,7.255c0.021,3.627-1.444,5.555-2.683,6.386c-0.151,0.101-0.29,0.203-0.411,0.289 c-0.129,0.092-0.192,0.244-0.196,0.418c-0.028,1.131-0.12,3.172-0.059,4.418c0.002,0.364-0.011,0.671-0.01,0.902 c0.003,0.02,0.006,0.041,0.009,0.06c0.039,0.291,0.065,0.467,0.065,0.467c0.138,0.757,0.822,0.79,0.985,0.134 c0,0,0.286-3.548,0.149-4.925c-0.014-0.142,0.051-0.28,0.165-0.364c0.95-0.695,3.026-2.316,3.154-4.741 c0.017-0.324,0.362-0.521,0.63-0.341c2.024,1.362,7.501,4.056,15.652,1.417c0.158-0.051,0.338,0.002,0.444,0.131 c1.894,2.294,2.352,2.48,3.798,3.338c0.088,0.052,0.161,0.133,0.19,0.232c0.366,1.255,0.503,4.638,0.455,5.22 c-0.05,0.607,0.703,1.062,1.055-0.202c0.014-0.051,0.035-0.153,0.06-0.295c-0.006-0.118-0.024-0.494-0.023-0.961 c0.003-1.478-0.243-4.386-0.547-5.401c-0.029-0.096-0.097-0.173-0.182-0.225c-0.018-0.011-0.036-0.022-0.055-0.033 c-1.438-0.87-2.555-2.454-4.441-4.725c-0.106-0.128-0.284-0.181-0.442-0.131c-8.114,2.613-14.855,0.01-17.142-1.457 C14.404,6.678,14.068,6.909,14.071,7.255z"/><radialGradient id="JY_8ANXRGaHeVOLmmov5Cq" cx="24.669" cy="34.91" r="11.503" gradientTransform="matrix(.9554 -.2806 -.2796 -.9608 10.347 53.555)" gradientUnits="userSpaceOnUse"><stop offset="0" stop-color="#95704e"/><stop offset=".021" stop-color="#946f4c"/><stop offset=".392" stop-color="#855d36"/><stop offset=".629" stop-color="#7f562e"/><stop offset=".731" stop-color="#7a5129"/><stop offset=".857" stop-color="#6a421c"/><stop offset=".919" stop-color="#603813"/></radialGradient><path fill="url(#JY_8ANXRGaHeVOLmmov5Cq)" d="M14.141,7.525c0.052,3.504-1.489,5.441-2.739,6.248c-0.152,0.098-0.281,0.21-0.382,0.309 c-0.102,0.101-0.155,0.252-0.157,0.424c-0.01,1.19-0.092,3.299-0.042,4.337c-0.013,0.364-0.069,0.647-0.109,0.831 c0.003,0.022,0.007,0.044,0.01,0.065c0.038,0.283,0.063,0.454,0.063,0.454c0.138,0.757,0.822,0.79,0.985,0.134 c0,0,0.286-3.548,0.149-4.925c-0.014-0.142,0.051-0.28,0.165-0.364c0.95-0.695,3.026-2.316,3.154-4.741 c0.017-0.324,0.362-0.521,0.63-0.341c2.024,1.362,7.501,4.056,15.652,1.417c0.158-0.051,0.338,0.002,0.444,0.131 c1.894,2.294,2.352,2.48,3.798,3.338c0.088,0.052,0.161,0.133,0.19,0.232c0.366,1.255,0.503,4.638,0.455,5.22 c-0.05,0.607,0.703,1.062,1.055-0.202c0.014-0.051,0.035-0.153,0.06-0.295c-0.049-0.038-0.102-0.42-0.097-0.886 c0.015-1.329-0.237-4.319-0.553-5.375c-0.028-0.093-0.093-0.168-0.174-0.22c-0.018-0.012-0.036-0.023-0.055-0.034 c-1.442-0.868-2.479-2.219-4.369-4.494c-0.106-0.128-0.284-0.181-0.442-0.131C23.718,11.27,17.047,8.601,14.76,7.134 C14.475,6.949,14.135,7.18,14.141,7.525z"/><radialGradient id="JY_8ANXRGaHeVOLmmov5Cr" cx="24.566" cy="34.757" r="11.438" gradientTransform="matrix(.9563 -.2806 -.2799 -.9608 10.392 53.532)" gradientUnits="userSpaceOnUse"><stop offset="0" stop-color="#8a6542"/><stop offset=".346" stop-color="#7f5731"/><stop offset=".629" stop-color="#795029"/><stop offset=".745" stop-color="#744b24"/><stop offset=".888" stop-color="#643c17"/><stop offset=".919" stop-color="#603813"/></radialGradient><path fill="url(#JY_8ANXRGaHeVOLmmov5Cr)" d="M14.212,7.796c0.092,3.381-1.533,5.328-2.794,6.109c-0.152,0.095-0.273,0.217-0.353,0.33 c-0.076,0.109-0.119,0.259-0.118,0.43c0.01,1.249-0.065,3.426-0.024,4.257c-0.028,0.363-0.127,0.622-0.208,0.76 c0.003,0.024,0.007,0.047,0.01,0.07c0.037,0.276,0.062,0.441,0.062,0.441c0.138,0.757,0.822,0.79,0.985,0.134 c0,0,0.286-3.548,0.149-4.925c-0.014-0.142,0.051-0.28,0.165-0.364c0.95-0.695,3.026-2.316,3.154-4.741 c0.017-0.324,0.362-0.521,0.63-0.341c2.024,1.362,7.501,4.056,15.652,1.417c0.158-0.051,0.338,0.002,0.444,0.131 c1.894,2.294,2.352,2.48,3.798,3.338c0.088,0.052,0.161,0.133,0.19,0.232c0.366,1.255,0.503,4.638,0.455,5.22 c-0.05,0.607,0.703,1.062,1.055-0.202c0.014-0.051,0.035-0.153,0.06-0.295c-0.093,0.041-0.181-0.347-0.171-0.811 c0.025-1.179-0.232-4.252-0.56-5.348c-0.027-0.09-0.089-0.163-0.166-0.215c-0.018-0.012-0.036-0.024-0.055-0.035 c-1.445-0.866-2.403-1.984-4.296-4.263c-0.106-0.128-0.284-0.181-0.442-0.131c-8.114,2.613-14.714-0.123-17.001-1.59 C14.545,7.22,14.202,7.451,14.212,7.796z"/><radialGradient id="JY_8ANXRGaHeVOLmmov5Cs" cx="24.464" cy="34.604" r="11.374" gradientTransform="matrix(.9572 -.2806 -.2802 -.9608 10.437 53.51)" gradientUnits="userSpaceOnUse"><stop offset="0" stop-color="#805a36"/><stop offset=".285" stop-color="#79512b"/><stop offset=".629" stop-color="#734a23"/><stop offset=".765" stop-color="#6e451e"/><stop offset=".919" stop-color="#603813"/></radialGradient><path fill="url(#JY_8ANXRGaHeVOLmmov5Cs)" d="M14.282,8.067c0.123,3.257-1.577,5.214-2.85,5.971c-0.153,0.091-0.266,0.222-0.323,0.351 c-0.051,0.115-0.082,0.267-0.079,0.436c0.03,1.308-0.038,3.554-0.007,4.177c-0.044,0.363-0.185,0.598-0.307,0.689 c0.004,0.026,0.007,0.051,0.011,0.075c0.036,0.268,0.06,0.429,0.06,0.429c0.138,0.757,0.822,0.79,0.985,0.134 c0,0,0.286-3.548,0.149-4.925c-0.014-0.142,0.051-0.28,0.165-0.364c0.95-0.695,3.026-2.316,3.154-4.741 c0.017-0.324,0.362-0.521,0.63-0.341c2.024,1.362,7.501,4.056,15.652,1.417c0.158-0.051,0.338,0.002,0.444,0.131 c1.894,2.294,2.352,2.48,3.798,3.338c0.088,0.052,0.161,0.133,0.19,0.232c0.366,1.255,0.503,4.638,0.455,5.22 c-0.05,0.607,0.703,1.062,1.055-0.202c0.014-0.051,0.035-0.153,0.06-0.295c-0.137,0.121-0.26-0.274-0.244-0.736 c0.034-1.03-0.227-4.185-0.567-5.321c-0.026-0.086-0.085-0.158-0.159-0.209c-0.018-0.012-0.036-0.024-0.055-0.035 c-1.449-0.864-2.327-1.749-4.223-4.032c-0.106-0.128-0.284-0.181-0.442-0.131C23.72,11.948,17.19,9.146,14.903,7.678 C14.616,7.491,14.269,7.722,14.282,8.067z"/><radialGradient id="JY_8ANXRGaHeVOLmmov5Ct" cx="24.362" cy="34.451" r="11.311" gradientTransform="matrix(.9581 -.2806 -.2804 -.9608 10.477 53.487)" gradientUnits="userSpaceOnUse"><stop offset="0" stop-color="#754f2a"/><stop offset=".151" stop-color="#724b26"/><stop offset=".629" stop-color="#6d441e"/><stop offset=".8" stop-color="#683f19"/><stop offset=".919" stop-color="#603813"/></radialGradient><path fill="url(#JY_8ANXRGaHeVOLmmov5Ct)" d="M14.352,8.338c0.154,3.134-1.622,5.101-2.906,5.833c-0.154,0.088-0.26,0.227-0.294,0.371 c-0.028,0.122-0.046,0.274-0.039,0.442c0.052,1.367-0.01,3.681,0.01,4.097c-0.059,0.363-0.242,0.573-0.406,0.619 c0.004,0.027,0.008,0.054,0.011,0.079c0.035,0.26,0.058,0.416,0.058,0.416c0.138,0.757,0.822,0.79,0.985,0.134 c0,0,0.286-3.548,0.149-4.925c-0.014-0.142,0.051-0.28,0.165-0.364c0.95-0.695,3.026-2.316,3.154-4.741 c0.017-0.324,0.362-0.521,0.63-0.341c2.024,1.362,7.501,4.056,15.652,1.417c0.158-0.051,0.338,0.002,0.444,0.131 c1.894,2.294,2.352,2.48,3.798,3.338c0.088,0.052,0.161,0.133,0.19,0.232c0.366,1.255,0.503,4.638,0.455,5.22 c-0.05,0.607,0.703,1.062,1.055-0.202c0.014-0.051,0.035-0.153,0.06-0.295c-0.181,0.2-0.339-0.201-0.318-0.661 c0.04-0.881-0.222-4.118-0.574-5.294c-0.025-0.083-0.081-0.153-0.151-0.204c-0.018-0.013-0.036-0.025-0.055-0.036 c-1.452-0.862-2.251-1.514-4.151-3.801c-0.106-0.128-0.284-0.181-0.442-0.131c-8.114,2.613-14.574-0.256-16.861-1.723 C14.686,7.761,14.336,7.993,14.352,8.338z"/><radialGradient id="JY_8ANXRGaHeVOLmmov5Cu" cx="24.261" cy="34.298" r="11.248" gradientTransform="matrix(.9589 -.2806 -.2807 -.9608 10.522 53.464)" gradientUnits="userSpaceOnUse"><stop offset="0" stop-color="#6b431f"/><stop offset=".629" stop-color="#663e18"/><stop offset=".9" stop-color="#613914"/><stop offset=".919" stop-color="#603813"/></radialGradient><path fill="url(#JY_8ANXRGaHeVOLmmov5Cu)" d="M14.423,8.609c0.179,3.011-1.666,4.987-2.962,5.694c-0.154,0.084-0.257,0.232-0.265,0.392 c-0.006,0.128-0.009,0.281,0,0.447c0.075,1.426,0.017,3.809,0.027,4.017c-0.075,0.363-0.3,0.549-0.505,0.548 c0.004,0.029,0.008,0.057,0.012,0.084c0.034,0.253,0.056,0.403,0.056,0.403c0.138,0.757,0.822,0.79,0.985,0.134 c0,0,0.286-3.548,0.149-4.925c-0.014-0.142,0.051-0.28,0.165-0.364c0.95-0.695,3.026-2.316,3.154-4.741 c0.017-0.324,0.362-0.521,0.63-0.341c2.024,1.362,7.501,4.056,15.652,1.417c0.158-0.051,0.338,0.002,0.444,0.131 c1.894,2.294,2.352,2.48,3.798,3.338c0.088,0.052,0.161,0.133,0.19,0.232c0.366,1.255,0.503,4.638,0.455,5.22 c-0.05,0.607,0.703,1.062,1.055-0.202c0.014-0.051,0.035-0.153,0.06-0.295c-0.225,0.28-0.42-0.128-0.392-0.586 c0.045-0.731-0.216-4.051-0.581-5.268c-0.024-0.08-0.077-0.148-0.143-0.198c-0.017-0.013-0.036-0.026-0.055-0.037 c-1.456-0.861-2.175-1.279-4.078-3.57c-0.106-0.128-0.284-0.181-0.442-0.131c-8.114,2.613-14.503-0.322-16.79-1.79 C14.756,8.032,14.401,8.264,14.423,8.609z"/><path fill="#603813" d="M37.061,19.286c0.048-0.582-0.211-3.984-0.587-5.241c-0.03-0.099-0.101-0.179-0.19-0.231 c-1.459-0.859-2.099-1.044-4.005-3.34c-0.106-0.128-0.284-0.181-0.442-0.131c-8.114,2.613-14.433-0.389-16.72-1.856 c-0.289-0.186-0.648,0.046-0.623,0.391c0.211,2.888-1.71,4.874-3.017,5.556c-0.155,0.081-0.255,0.238-0.235,0.412 c0.151,1.364,0.083,4.389,0.083,4.389c-0.09,0.362-0.358,0.525-0.604,0.477c0.04,0.299,0.067,0.479,0.067,0.479 c0.138,0.757,0.822,0.79,0.985,0.134c0,0,0.286-3.548,0.149-4.925c-0.014-0.142,0.051-0.28,0.165-0.364 c0.95-0.695,3.026-2.316,3.154-4.741c0.017-0.324,0.362-0.521,0.63-0.341c2.024,1.362,7.501,4.056,15.652,1.417 c0.158-0.051,0.338,0.002,0.444,0.131c1.894,2.294,2.352,2.48,3.798,3.338c0.088,0.052,0.161,0.133,0.19,0.232 c0.366,1.255,0.503,4.638,0.455,5.22c-0.05,0.607,0.703,1.062,1.055-0.202c0.014-0.051,0.035-0.153,0.06-0.295 C37.258,20.157,37.023,19.743,37.061,19.286z"/><radialGradient id="JY_8ANXRGaHeVOLmmov5Cv" cx="24.86" cy="32.509" r="9.514" gradientTransform="matrix(.9936 0 0 -1 -.56 48)" gradientUnits="userSpaceOnUse"><stop offset="0" stop-color="#603813" stop-opacity="0"/><stop offset=".999" stop-color="#603813" stop-opacity=".2"/></radialGradient><path fill="url(#JY_8ANXRGaHeVOLmmov5Cv)" d="M35.476,14.77c-1.437-0.855-1.739-0.982-3.607-3.249c-0.12-0.145-0.288-0.094-0.466-0.036 c-8,2.584-13.177,0.134-15.193-1.18c-0.289-0.188-0.686-0.004-0.71,0.342c-0.158,2.297-2.163,3.586-3.122,4.24 c-0.144,0.098-0.212,0.265-0.196,0.439c0.11,1.216-0.226,4.763-0.345,4.823c0.213-0.051,1.03-3.226,1.171-4.358 c0.017-0.139,0.082-0.261,0.198-0.337c0.886-0.583,2.399-1.465,2.965-3.016c0.094-0.258,0.391-0.373,0.633-0.245 c1.827,0.963,6.988,3.008,14.117,0.864c0.175-0.053,0.368,0.007,0.486,0.147c1.502,1.773,2.383,1.94,3.553,2.462 c0.103,0.046,0.193,0.13,0.24,0.232c0.61,1.315,0.305,4.539,1.245,4.854c-0.409-0.65-0.185-4.419-0.771-5.761 C35.635,14.897,35.56,14.82,35.476,14.77z"/><radialGradient id="JY_8ANXRGaHeVOLmmov5Cw" cx="24.763" cy="32.526" r="9.553" gradientTransform="matrix(.9945 0 0 -1 -.48 48)" gradientUnits="userSpaceOnUse"><stop offset="0" stop-color="#5c3512" stop-opacity=".143"/><stop offset=".999" stop-color="#5c3512" stop-opacity=".314"/></radialGradient><path fill="url(#JY_8ANXRGaHeVOLmmov5Cw)" d="M15.463,10.59c-0.15,2.313-2.158,3.649-3.119,4.312c-0.023,0.016-0.044,0.033-0.063,0.051 c-0.102,0.097-0.15,0.237-0.136,0.383c0.094,1.003-0.113,3.625-0.236,4.473c-0.039,0.249-0.084,0.403-0.123,0.423 c0.082-0.02,0.203-0.258,0.324-0.616c0.302-0.953,0.707-3.006,0.804-3.867c0.016-0.135,0.078-0.254,0.191-0.329 c0.877-0.586,2.393-1.514,2.964-3.12c0.092-0.258,0.352-0.384,0.569-0.324c0.063,0.017,0.147,0.037,0.232,0.081 c1.939,0.997,7.085,2.983,14.114,0.828c0.14-0.043,0.294-0.011,0.407,0.077c0.03,0.023,0.058,0.05,0.083,0.079 c1.497,1.773,2.291,1.968,3.439,2.496c0.046,0.021,0.092,0.044,0.137,0.069c0.032,0.017,0.062,0.039,0.089,0.063 c0.057,0.051,0.105,0.114,0.135,0.187c0.41,0.97,0.388,2.957,0.634,4.02c0.109,0.47,0.308,0.848,0.6,0.893 c-0.112-0.112-0.192-0.388-0.227-0.747c-0.124-1.246-0.116-3.951-0.565-5.022c-0.038-0.091-0.112-0.168-0.197-0.218 c-1.439-0.856-1.763-0.991-3.635-3.263c-0.117-0.142-0.286-0.106-0.461-0.049c-8.028,2.595-13.25,0.103-15.264-1.216 C15.873,10.066,15.485,10.249,15.463,10.59z"/><radialGradient id="JY_8ANXRGaHeVOLmmov5Cx" cx="24.665" cy="32.543" r="9.592" gradientTransform="matrix(.9954 0 0 -1 -.4 48)" gradientUnits="userSpaceOnUse"><stop offset="0" stop-color="#573111" stop-opacity=".286"/><stop offset=".999" stop-color="#573111" stop-opacity=".429"/></radialGradient><path fill="url(#JY_8ANXRGaHeVOLmmov5Cx)" d="M15.426,10.534c-0.142,2.328-2.152,3.712-3.116,4.385c-0.022,0.016-0.043,0.032-0.063,0.05 c-0.104,0.095-0.153,0.234-0.139,0.379c0.1,1.04-0.12,3.842-0.222,4.548c-0.042,0.243-0.098,0.395-0.152,0.422 c0.106-0.025,0.246-0.258,0.366-0.605c0.279-0.911,0.624-3.107,0.717-4.005c0.014-0.131,0.075-0.248,0.184-0.321 c0.867-0.588,2.387-1.562,2.964-3.224c0.09-0.257,0.326-0.353,0.505-0.403c0.055-0.015,0.147-0.002,0.236,0.045 c1.876,0.992,7.132,3.157,14.339,0.908c0.143-0.044,0.299-0.009,0.412,0.086c0.029,0.024,0.056,0.051,0.081,0.081 c1.551,1.845,2.27,2.015,3.465,2.592c0.047,0.023,0.092,0.048,0.136,0.076c0.031,0.02,0.059,0.044,0.084,0.071 c0.051,0.054,0.095,0.121,0.124,0.196c0.39,1.014,0.37,3.117,0.586,4.105c0.101,0.463,0.33,0.87,0.636,0.867 c-0.138-0.088-0.239-0.365-0.267-0.72c-0.088-1.136-0.111-3.974-0.546-5.056c-0.037-0.092-0.11-0.169-0.195-0.219 c-1.441-0.856-1.787-1-3.664-3.277c-0.115-0.139-0.284-0.117-0.455-0.062c-8.055,2.605-13.323,0.073-15.335-1.253 C15.826,10.016,15.447,10.198,15.426,10.534z"/><radialGradient id="JY_8ANXRGaHeVOLmmov5Cy" cx="24.567" cy="32.556" r="9.632" gradientTransform="matrix(.9963 0 0 -1 -.32 48)" gradientUnits="userSpaceOnUse"><stop offset="0" stop-color="#532e10" stop-opacity=".429"/><stop offset=".999" stop-color="#532e10" stop-opacity=".543"/></radialGradient><path fill="url(#JY_8ANXRGaHeVOLmmov5Cy)" d="M15.39,10.478c-0.134,2.344-2.147,3.775-3.114,4.457c-0.022,0.016-0.043,0.032-0.063,0.049 c-0.106,0.093-0.156,0.231-0.142,0.375c0.107,1.076-0.126,4.058-0.208,4.623c-0.044,0.238-0.111,0.386-0.18,0.421 c0.13-0.031,0.289-0.259,0.409-0.593c0.255-0.868,0.543-3.207,0.631-4.142c0.012-0.128,0.072-0.241,0.177-0.313 c0.858-0.59,2.38-1.611,2.963-3.327c0.088-0.256,0.293-0.412,0.441-0.482c0.053-0.025,0.148-0.041,0.24,0.01 c1.814,0.986,7.18,3.331,14.564,0.989c0.145-0.046,0.306-0.007,0.416,0.094c0.028,0.026,0.055,0.053,0.08,0.083 c1.606,1.916,2.249,2.059,3.49,2.687c0.047,0.024,0.093,0.052,0.134,0.084c0.029,0.023,0.056,0.049,0.078,0.078 c0.045,0.058,0.085,0.128,0.113,0.206c0.37,1.059,0.351,3.276,0.539,4.189c0.093,0.455,0.353,0.893,0.672,0.841 c-0.163-0.064-0.288-0.342-0.307-0.694c-0.055-1.025-0.107-3.996-0.528-5.09c-0.036-0.093-0.109-0.17-0.194-0.22 c-1.443-0.857-1.811-1.009-3.693-3.291c-0.112-0.136-0.283-0.129-0.45-0.075c-8.083,2.615-13.396,0.043-15.406-1.289 C15.778,9.966,15.409,10.147,15.39,10.478z"/><radialGradient id="JY_8ANXRGaHeVOLmmov5Cz" cx="24.467" cy="32.567" r="9.672" gradientTransform="matrix(.9973 0 0 -1 -.24 48)" gradientUnits="userSpaceOnUse"><stop offset="0" stop-color="#4f2b0e" stop-opacity=".571"/><stop offset=".999" stop-color="#4f2b0e" stop-opacity=".657"/></radialGradient><path fill="url(#JY_8ANXRGaHeVOLmmov5Cz)" d="M15.353,10.421c-0.126,2.359-2.141,3.838-3.111,4.53c-0.022,0.016-0.043,0.032-0.063,0.048 c-0.108,0.09-0.16,0.227-0.145,0.371c0.113,1.113-0.132,4.274-0.194,4.698c-0.046,0.232-0.125,0.377-0.209,0.419 c0.154-0.037,0.332-0.259,0.452-0.581c0.232-0.826,0.462-3.308,0.544-4.279c0.011-0.124,0.068-0.234,0.17-0.305 c0.849-0.593,2.374-1.66,2.962-3.431c0.085-0.255,0.262-0.441,0.377-0.56c0.048-0.05,0.148-0.08,0.245-0.026 c1.753,0.978,7.228,3.506,14.789,1.07c0.147-0.047,0.312-0.005,0.421,0.102c0.027,0.027,0.054,0.055,0.078,0.085 c1.66,1.987,2.228,2.103,3.515,2.783c0.048,0.025,0.093,0.056,0.132,0.092c0.028,0.025,0.053,0.055,0.073,0.086 c0.04,0.062,0.076,0.135,0.102,0.216c0.35,1.103,0.331,3.435,0.491,4.274c0.085,0.448,0.375,0.915,0.708,0.815 c-0.189-0.039-0.337-0.318-0.346-0.668c-0.024-0.914-0.102-4.019-0.509-5.124c-0.034-0.093-0.107-0.171-0.192-0.221 c-1.445-0.858-1.835-1.018-3.722-3.305c-0.11-0.133-0.281-0.141-0.445-0.088c-8.11,2.623-13.468,0.011-15.476-1.327 C15.73,9.916,15.371,10.096,15.353,10.421z"/><radialGradient id="JY_8ANXRGaHeVOLmmov5CA" cx="24.37" cy="32.577" r="9.713" gradientTransform="matrix(.9982 0 0 -1 -.16 48)" gradientUnits="userSpaceOnUse"><stop offset="0" stop-color="#4b280d" stop-opacity=".714"/><stop offset=".999" stop-color="#4b280d" stop-opacity=".771"/></radialGradient><path fill="url(#JY_8ANXRGaHeVOLmmov5CA)" d="M15.316,10.365c-0.118,2.375-2.136,3.902-3.109,4.603c-0.022,0.016-0.043,0.032-0.063,0.048 c-0.11,0.088-0.163,0.224-0.148,0.367c0.12,1.149-0.138,4.49-0.179,4.773c-0.049,0.227-0.139,0.368-0.237,0.418 c0.178-0.043,0.375-0.26,0.494-0.57c0.209-0.784,0.382-3.409,0.458-4.416c0.009-0.121,0.065-0.228,0.164-0.297 c0.84-0.595,2.368-1.708,2.961-3.535c0.083-0.254,0.225-0.47,0.313-0.639c0.04-0.076,0.148-0.119,0.249-0.062 c1.693,0.969,7.276,3.68,15.014,1.151c0.15-0.049,0.318-0.003,0.425,0.11c0.027,0.028,0.052,0.057,0.077,0.086 c1.714,2.058,2.208,2.145,3.541,2.878c0.048,0.026,0.093,0.06,0.131,0.099c0.027,0.028,0.05,0.06,0.068,0.094 c0.035,0.066,0.066,0.141,0.09,0.225c0.33,1.147,0.31,3.595,0.443,4.359c0.077,0.441,0.398,0.937,0.745,0.789 c-0.215-0.015-0.387-0.294-0.386-0.641c0.003-0.803-0.098-4.041-0.491-5.157c-0.033-0.094-0.105-0.172-0.19-0.222 c-1.447-0.859-1.859-1.027-3.751-3.32c-0.107-0.13-0.279-0.152-0.44-0.101c-8.139,2.635-13.542-0.017-15.548-1.361 C15.683,9.865,15.333,10.045,15.316,10.365z"/><radialGradient id="JY_8ANXRGaHeVOLmmov5CB" cx="24.273" cy="32.585" r="9.754" gradientTransform="matrix(.9991 0 0 -1 -.08 48)" gradientUnits="userSpaceOnUse"><stop offset="0" stop-color="#46240c" stop-opacity=".857"/><stop offset=".999" stop-color="#46240c" stop-opacity=".886"/></radialGradient><path fill="url(#JY_8ANXRGaHeVOLmmov5CB)" d="M15.28,10.309c-0.11,2.391-2.13,3.965-3.106,4.675c-0.022,0.016-0.042,0.031-0.063,0.047 c-0.112,0.086-0.166,0.221-0.151,0.363c0.126,1.185-0.145,4.706-0.165,4.848c-0.051,0.222-0.152,0.359-0.266,0.416 c0.202-0.049,0.418-0.26,0.537-0.558c0.185-0.742,0.305-3.509,0.372-4.553c0.008-0.117,0.062-0.221,0.157-0.289 c0.831-0.598,2.362-1.757,2.96-3.639c0.081-0.254,0.184-0.496,0.249-0.718c0.03-0.101,0.149-0.159,0.253-0.097 c1.634,0.959,7.324,3.854,15.238,1.231c0.152-0.05,0.324-0.002,0.43,0.118c0.026,0.029,0.051,0.059,0.076,0.088 c1.769,2.129,2.19,2.186,3.566,2.974c0.049,0.028,0.093,0.064,0.129,0.107c0.026,0.031,0.047,0.065,0.063,0.102 c0.03,0.069,0.057,0.148,0.079,0.235c0.31,1.191,0.288,3.755,0.395,4.443c0.067,0.433,0.42,0.96,0.781,0.763 c-0.24,0.009-0.439-0.271-0.426-0.615c0.027-0.692-0.093-4.064-0.473-5.191c-0.032-0.095-0.103-0.173-0.188-0.223 c-1.449-0.86-1.883-1.036-3.78-3.334c-0.105-0.127-0.278-0.164-0.434-0.114c-8.167,2.645-13.615-0.048-15.619-1.397 C15.635,9.815,15.294,9.994,15.28,10.309z"/><path fill="#42210b" d="M36.411,20.295c0.048-0.582-0.088-4.086-0.454-5.225c-0.031-0.095-0.101-0.174-0.187-0.224 c-1.451-0.861-1.907-1.045-3.808-3.348c-0.103-0.124-0.276-0.176-0.429-0.126c-8.195,2.655-13.688-0.078-15.69-1.433 c-0.256-0.173-0.587,0.005-0.6,0.315c-0.104,2.459-2.214,4.098-3.166,4.794c-0.114,0.083-0.17,0.218-0.154,0.359 c0.132,1.222-0.151,4.922-0.151,4.922c-0.054,0.216-0.166,0.35-0.294,0.415c0.227-0.054,0.461-0.261,0.58-0.546 c0.162-0.699,0.225-3.61,0.285-4.69c0.006-0.114,0.058-0.214,0.15-0.281c0.929-0.678,2.769-2.131,3.145-4.539 c0.02-0.125,0.149-0.198,0.258-0.133c1.575,0.947,7.371,4.029,15.463,1.312c0.154-0.052,0.331,0,0.434,0.126 c1.888,2.29,2.224,2.308,3.666,3.159c0.084,0.05,0.154,0.131,0.186,0.224c0.362,1.081,0.328,4.115,0.416,4.772 c0.057,0.426,0.443,0.982,0.817,0.736C36.61,20.918,36.382,20.637,36.411,20.295z"/><path fill="#805b2a" d="M14.322,21.29c-0.023,0.367,0.055,0.336,0.196,0.519c0,0,1.594,2.204,6.402,0.695	c0.348-0.124,0.598-0.36,0.562-0.644C20.866,16.978,14.699,17.695,14.322,21.29z"/><path fill="#fff" d="M14.393,21.07c-0.12,0.258-0.082,0.464,0,0.672c0.343,0.906,3.095,4.131,6.809,0.745	c0.277-0.239,0.321-0.45,0.252-0.748C21.385,21.44,20.423,19,17.902,19C15.405,19,14.601,20.719,14.393,21.07z"/><linearGradient id="JY_8ANXRGaHeVOLmmov5CC" x1="15.901" x2="20.085" y1="26.931" y2="26.931" gradientTransform="matrix(1 0 0 -1 0 48)" gradientUnits="userSpaceOnUse"><stop offset="0" stop-color="#c69c6d"/><stop offset="1" stop-color="#754c24"/></linearGradient><circle cx="17.993" cy="21.069" r="2.092" fill="url(#JY_8ANXRGaHeVOLmmov5CC)"/><radialGradient id="JY_8ANXRGaHeVOLmmov5CD" cx="17.993" cy="26.931" r="1.053" gradientTransform="matrix(1 0 0 -1 0 48)" gradientUnits="userSpaceOnUse"><stop offset="0" stop-color="#1c1911"/><stop offset=".999" stop-color="#171714"/></radialGradient><circle cx="17.993" cy="21.069" r="1.053" fill="url(#JY_8ANXRGaHeVOLmmov5CD)"/><circle cx="17.484" cy="20.526" r=".494" fill="#fff"/><path fill="#805b2a" d="M33.574,21.29c0.023,0.367-0.055,0.336-0.196,0.519c0,0-1.594,2.204-6.402,0.695	c-0.348-0.124-0.598-0.36-0.562-0.644C27.03,16.978,33.197,17.695,33.574,21.29z"/><path fill="#fff" d="M33.503,21.07c0.12,0.258,0.082,0.464,0,0.672c-0.343,0.906-3.095,4.131-6.809,0.745	c-0.277-0.239-0.321-0.45-0.252-0.748C26.511,21.44,27.473,19,29.994,19C32.49,19,33.295,20.719,33.503,21.07z"/><linearGradient id="JY_8ANXRGaHeVOLmmov5CE" x1="209.432" x2="213.616" y1="430.932" y2="430.932" gradientTransform="translate(-181.622 -409.863)" gradientUnits="userSpaceOnUse"><stop offset="0" stop-color="#c69c6d"/><stop offset="1" stop-color="#754c24"/></linearGradient><circle cx="29.902" cy="21.069" r="2.092" fill="url(#JY_8ANXRGaHeVOLmmov5CE)"/><radialGradient id="JY_8ANXRGaHeVOLmmov5CF" cx="-932.475" cy="26.931" r="1.053" gradientTransform="rotate(180 -451.287 24)" gradientUnits="userSpaceOnUse"><stop offset="0" stop-color="#1c1911"/><stop offset=".999" stop-color="#171714"/></radialGradient><circle cx="29.902" cy="21.069" r="1.053" fill="url(#JY_8ANXRGaHeVOLmmov5CF)"/><circle cx="29.422" cy="20.526" r=".494" fill="#fff"/><path fill="#805b2a" d="M32.167,17.222c-1.366-0.349-2.812-0.246-4.06,0.234c-0.388,0.149-0.824-0.044-0.974-0.433 c-0.149-0.388,0.044-0.824,0.433-0.974c0.04-0.015,0.081-0.027,0.122-0.036l0.017-0.003c1.614-0.316,3.275-0.127,4.712,0.517 c0.187,0.083,0.27,0.302,0.187,0.489c-0.075,0.167-0.258,0.251-0.429,0.207L32.167,17.222z"/><g><path fill="#805b2a" d="M15.833,16.528c1.437-0.643,3.098-0.833,4.712-0.517l0.013,0.003 c0.408,0.08,0.675,0.476,0.595,0.884s-0.476,0.675-0.884,0.595c-0.042-0.008-0.087-0.021-0.126-0.036 c-1.248-0.48-2.693-0.583-4.06-0.234l-0.007,0.002c-0.198,0.051-0.4-0.069-0.45-0.267C15.581,16.78,15.672,16.6,15.833,16.528z"/></g><g><radialGradient id="JY_8ANXRGaHeVOLmmov5CG" cx="-58.575" cy="-87.749" r="2.561" gradientTransform="matrix(1.1109 0 0 -1.3094 89.098 -84.697)" gradientUnits="userSpaceOnUse"><stop offset=".696" stop-color="#cc9000"/><stop offset="1" stop-color="#cc9000" stop-opacity="0"/></radialGradient><path fill="url(#JY_8ANXRGaHeVOLmmov5CG)" d="M24,32.153c-2.85,0-2.946-1.638-2.946-1.638s0.07,3.276,2.946,3.276 s2.946-3.276,2.946-3.276S26.85,32.153,24,32.153z"/><radialGradient id="JY_8ANXRGaHeVOLmmov5CH" cx="66.726" cy="-297.831" r="3.951" fx="66.724" fy="-297.683" gradientTransform="matrix(.7953 0 0 -.5951 -29.067 -147.063)" gradientUnits="userSpaceOnUse"><stop offset=".371" stop-color="#ffd226"/><stop offset=".948" stop-color="#ffe16e"/><stop offset="1" stop-color="#ffe16e" stop-opacity="0"/></radialGradient><path fill="url(#JY_8ANXRGaHeVOLmmov5CH)" d="M27.094,30.023c0,0,0.039,2.526-3.094,2.526s-3.094-2.526-3.094-2.526 s0.687,0.769,3.094,0.769S27.094,30.023,27.094,30.023z"/><radialGradient id="JY_8ANXRGaHeVOLmmov5CI" cx="34.625" cy="-58.944" r="3.162" gradientTransform="matrix(.8379 0 0 -.855 -4.97 -20.438)" gradientUnits="userSpaceOnUse"><stop offset="0" stop-color="#1c1911"/><stop offset=".999" stop-color="#171714"/></radialGradient><path fill="url(#JY_8ANXRGaHeVOLmmov5CI)" d="M21.12,30.023c-0.169,0-0.267,0.179-0.184,0.324c0.617,1.072,2.032,1.396,3.064,1.396 c1.121,0,2.446-0.324,3.064-1.396c0.083-0.144-0.015-0.324-0.184-0.324C24.975,30.148,23.055,30.157,21.12,30.023z"/></g><g><radialGradient id="JY_8ANXRGaHeVOLmmov5CJ" cx="24.068" cy="31.718" r="9.844" gradientTransform="matrix(1 0 0 -1 0 48)" gradientUnits="userSpaceOnUse"><stop offset="0" stop-color="#5c3512" stop-opacity=".143"/><stop offset=".999" stop-color="#5c3512" stop-opacity=".314"/></radialGradient><path fill="url(#JY_8ANXRGaHeVOLmmov5CJ)" d="M37.667,18.385l0.125-1.281c-0.291-1.766-6.307-3.156-13.771-3.156 c-7.651,0-13.677,1.395-13.677,3.224c0,0.118,0.115,1.306,0.156,1.443c0.278-1.792,4.667-3.271,13.521-3.271 C28.458,15.344,36.792,15.981,37.667,18.385z"/><radialGradient id="JY_8ANXRGaHeVOLmmov5CK" cx="24.068" cy="31.787" r="9.836" gradientTransform="matrix(1 0 0 -1 0 48)" gradientUnits="userSpaceOnUse"><stop offset="0" stop-color="#5d3512" stop-opacity=".265"/><stop offset=".999" stop-color="#5d3512" stop-opacity=".412"/></radialGradient><path fill="url(#JY_8ANXRGaHeVOLmmov5CK)" d="M37.685,18.259l0.107-1.155c-0.291-1.766-6.307-3.156-13.771-3.156 c-7.651,0-13.677,1.395-13.677,3.224c0,0.118,0.096,1.169,0.137,1.306c0.278-1.792,4.685-3.277,13.54-3.277 C28.458,15.201,36.81,15.854,37.685,18.259z"/><radialGradient id="JY_8ANXRGaHeVOLmmov5CL" cx="24.067" cy="31.855" r="9.828" gradientTransform="matrix(1 0 0 -1 0 48)" gradientUnits="userSpaceOnUse"><stop offset="0" stop-color="#5d3612" stop-opacity=".388"/><stop offset=".999" stop-color="#5d3612" stop-opacity=".51"/></radialGradient><path fill="url(#JY_8ANXRGaHeVOLmmov5CL)" d="M37.702,18.132l0.089-1.028c-0.291-1.766-6.307-3.156-13.771-3.156 c-7.651,0-13.677,1.395-13.677,3.224c0,0.118,0.077,1.032,0.119,1.169c0.278-1.792,4.704-3.283,13.558-3.283 C28.458,15.058,36.827,15.727,37.702,18.132z"/><radialGradient id="JY_8ANXRGaHeVOLmmov5CM" cx="24.067" cy="31.924" r="9.82" gradientTransform="matrix(1 0 0 -1 0 48)" gradientUnits="userSpaceOnUse"><stop offset="0" stop-color="#5e3612" stop-opacity=".51"/><stop offset=".999" stop-color="#5e3612" stop-opacity=".608"/></radialGradient><path fill="url(#JY_8ANXRGaHeVOLmmov5CM)" d="M37.72,18.005l0.071-0.901c-0.291-1.766-6.307-3.156-13.771-3.156 c-7.651,0-13.677,1.395-13.677,3.224c0,0.118,0.058,0.895,0.1,1.032c0.278-1.792,4.723-3.289,13.577-3.289 C28.458,14.915,36.845,15.601,37.72,18.005z"/><radialGradient id="JY_8ANXRGaHeVOLmmov5CN" cx="24.068" cy="31.992" r="9.813" gradientTransform="matrix(1 0 0 -1 0 48)" gradientUnits="userSpaceOnUse"><stop offset="0" stop-color="#5e3713" stop-opacity=".633"/><stop offset=".999" stop-color="#5e3713" stop-opacity=".706"/></radialGradient><path fill="url(#JY_8ANXRGaHeVOLmmov5CN)" d="M37.738,17.879l0.054-0.775c-0.291-1.766-6.307-3.156-13.771-3.156 c-7.651,0-13.677,1.395-13.677,3.224c0,0.118,0.039,0.758,0.081,0.895c0.278-1.792,4.742-3.295,13.596-3.295 C28.458,14.772,36.863,15.474,37.738,17.879z"/><radialGradient id="JY_8ANXRGaHeVOLmmov5CO" cx="24.068" cy="32.061" r="9.806" gradientTransform="matrix(1 0 0 -1 0 48)" gradientUnits="userSpaceOnUse"><stop offset="0" stop-color="#5f3713" stop-opacity=".755"/><stop offset=".999" stop-color="#5f3713" stop-opacity=".804"/></radialGradient><path fill="url(#JY_8ANXRGaHeVOLmmov5CO)" d="M37.756,17.752l0.036-0.648c-0.291-1.766-6.307-3.156-13.771-3.156 c-7.651,0-13.677,1.395-13.677,3.224c0,0.118,0.021,0.621,0.062,0.758c0.278-1.792,4.761-3.301,13.615-3.301 C28.458,14.629,36.881,15.347,37.756,17.752z"/><radialGradient id="JY_8ANXRGaHeVOLmmov5CP" cx="24.068" cy="32.13" r="9.799" gradientTransform="matrix(1 0 0 -1 0 48)" gradientUnits="userSpaceOnUse"><stop offset="0" stop-color="#5f3813" stop-opacity=".878"/><stop offset=".999" stop-color="#5f3813" stop-opacity=".902"/></radialGradient><path fill="url(#JY_8ANXRGaHeVOLmmov5CP)" d="M37.774,17.625l0.018-0.521c-0.291-1.766-6.307-3.156-13.771-3.156 c-7.651,0-13.677,1.395-13.677,3.224c0,0.118,0.002,0.485,0.043,0.621c0.278-1.792,4.78-3.307,13.634-3.307 C28.458,14.487,36.899,15.22,37.774,17.625z"/><path fill="#603813" d="M37.792,17.499v-0.395c-0.291-1.766-6.307-3.156-13.771-3.156c-7.651,0-13.677,1.395-13.677,3.224 c0,0.118-0.017,0.348,0.024,0.484c0.278-1.792,4.798-3.313,13.653-3.313C28.458,14.344,36.917,15.094,37.792,17.499z"/></g><linearGradient id="JY_8ANXRGaHeVOLmmov5CQ" x1="11.838" x2="36.063" y1="35.105" y2="35.105" gradientTransform="matrix(1 0 0 -1 0 48)" gradientUnits="userSpaceOnUse"><stop offset=".002" stop-color="#c7545b"/><stop offset=".4" stop-color="#af4239"/><stop offset="1" stop-color="#8e2809"/></linearGradient><path fill="url(#JY_8ANXRGaHeVOLmmov5CQ)" d="M23.955,8.529c-7.398,0-13.313,1.231-14.034,3.026c0.042,2.161,0.271,5.306,0.392,5.706	c0-1.933,6.015-3.292,13.667-3.292c7.519,0,13.666,1.298,13.876,3.184c0.188-1.824,0.306-3.656,0.376-5.493	C37.699,9.799,31.505,8.529,23.955,8.529z"/><radialGradient id="JY_8ANXRGaHeVOLmmov5CR" cx="20.551" cy="44.896" r="22.968" gradientTransform="matrix(.9835 -.1811 -.0607 -.3294 3.065 21.614)" gradientUnits="userSpaceOnUse"><stop offset="0" stop-color="#d5234a"/><stop offset=".999" stop-color="#8e2809"/></radialGradient><path fill="url(#JY_8ANXRGaHeVOLmmov5CR)" d="M10.062,14.25c0,0-5.275-0.531-5.875-3.188C3.75,9.125,6.5,6.438,11.5,4.438	c2.936-1.174,11.008-4.406,15.042-4.406c13.458,0,14.083,2.594,14.333,4.594s-2.328,3.438-2.688,7.063	C37.471,8.929,9.116,12.737,10.062,14.25z"/><g><radialGradient id="JY_8ANXRGaHeVOLmmov5CS" cx="21.24" cy="44.278" r="21.618" gradientTransform="matrix(.9828 -.1847 -.0593 -.3154 2.991 21.61)" gradientUnits="userSpaceOnUse"><stop offset="0" stop-color="#d5234a"/><stop offset=".999" stop-color="#8e2809"/></radialGradient><path fill="url(#JY_8ANXRGaHeVOLmmov5CS)" d="M10.083,14.208c0,0,0.333-0.208,1.417-0.583s16.125-3.583,25.292-2.542 c1.125,0.167,1.396,0.604,1.396,0.604c0.313-4.146,3.578-4.964,2.328-8.422C39.891,6.974,7.417,11.417,4.375,9.542 C3.083,13,8.375,14.125,10.083,14.208z"/><radialGradient id="JY_8ANXRGaHeVOLmmov5CT" cx="21.255" cy="44.052" r="21.486" gradientTransform="matrix(.9828 -.1847 -.0593 -.3154 2.978 21.768)" gradientUnits="userSpaceOnUse"><stop offset="0" stop-color="#c82240"/><stop offset=".999" stop-color="#8b2608"/></radialGradient><path fill="url(#JY_8ANXRGaHeVOLmmov5CT)" d="M10.083,14.208c0,0,0.333-0.208,1.417-0.583s16.125-3.583,25.292-2.542 c1.125,0.167,1.396,0.604,1.396,0.604c0.321-4,3.425-4.965,2.379-8.185c-0.625,3.708-33.168,8.135-36.21,6.26 C3.315,12.994,8.375,14.125,10.083,14.208z"/><radialGradient id="JY_8ANXRGaHeVOLmmov5CU" cx="21.268" cy="43.825" r="21.362" gradientTransform="matrix(.9828 -.1847 -.0593 -.3154 2.965 21.926)" gradientUnits="userSpaceOnUse"><stop offset="0" stop-color="#bc2036"/><stop offset=".999" stop-color="#892407"/></radialGradient><path fill="url(#JY_8ANXRGaHeVOLmmov5CU)" d="M10.083,14.208c0,0,0.333-0.208,1.417-0.583s16.125-3.583,25.292-2.542 c1.125,0.167,1.396,0.604,1.396,0.604c0.33-3.854,3.272-4.966,2.431-7.949c-0.626,3.709-33.238,8.119-36.28,6.244 C3.548,12.988,8.375,14.125,10.083,14.208z"/><radialGradient id="JY_8ANXRGaHeVOLmmov5CV" cx="21.279" cy="43.598" r="21.248" gradientTransform="matrix(.9828 -.1847 -.0593 -.3154 2.952 22.083)" gradientUnits="userSpaceOnUse"><stop offset="0" stop-color="#af1f2c"/><stop offset=".999" stop-color="#862206"/></radialGradient><path fill="url(#JY_8ANXRGaHeVOLmmov5CV)" d="M10.083,14.208c0,0,0.333-0.208,1.417-0.583s16.125-3.583,25.292-2.542 c1.125,0.167,1.396,0.604,1.396,0.604c0.339-3.708,3.118-4.968,2.482-7.712c-0.625,3.708-33.307,8.102-36.348,6.227 C3.78,12.982,8.375,14.125,10.083,14.208z"/><radialGradient id="JY_8ANXRGaHeVOLmmov5CW" cx="21.288" cy="43.371" r="21.146" gradientTransform="matrix(.9828 -.1847 -.0593 -.3154 2.938 22.24)" gradientUnits="userSpaceOnUse"><stop offset="0" stop-color="#a21e21"/><stop offset=".999" stop-color="#842006"/></radialGradient><path fill="url(#JY_8ANXRGaHeVOLmmov5CW)" d="M10.083,14.208c0,0,0.333-0.208,1.417-0.583s16.125-3.583,25.292-2.542 c1.125,0.167,1.396,0.604,1.396,0.604c0.348-3.563,2.965-4.969,2.533-7.475C40.096,7.92,7.345,12.298,4.304,10.423 C4.012,12.976,8.375,14.125,10.083,14.208z"/><radialGradient id="JY_8ANXRGaHeVOLmmov5CX" cx="21.294" cy="43.145" r="21.06" gradientTransform="matrix(.9828 -.1847 -.0593 -.3154 2.925 22.397)" gradientUnits="userSpaceOnUse"><stop offset="0" stop-color="#951d17"/><stop offset=".999" stop-color="#811e05"/></radialGradient><path fill="url(#JY_8ANXRGaHeVOLmmov5CX)" d="M10.083,14.208c0,0,0.333-0.208,1.417-0.583s16.125-3.583,25.292-2.542 c1.125,0.167,1.396,0.604,1.396,0.604C38.545,8.27,41,6.717,40.773,4.448c-0.625,3.708-33.445,8.069-36.487,6.194 C4.244,12.97,8.375,14.125,10.083,14.208z"/><radialGradient id="JY_8ANXRGaHeVOLmmov5CY" cx="21.302" cy="42.918" r="20.991" gradientTransform="matrix(.9828 -.1847 -.0593 -.3154 2.912 22.553)" gradientUnits="userSpaceOnUse"><stop offset="0" stop-color="#891b0d"/><stop offset=".999" stop-color="#7f1c04"/></radialGradient><path fill="url(#JY_8ANXRGaHeVOLmmov5CY)" d="M10.083,14.208c0,0,0.333-0.208,1.417-0.583s16.125-3.583,25.292-2.542 c1.125,0.167,1.396,0.604,1.396,0.604c0.366-3.271,2.659-4.972,2.636-7.002C40.199,8.394,7.31,12.738,4.268,10.863 C4.476,12.964,8.375,14.125,10.083,14.208z"/><path fill="#7c1a03" d="M10.083,14.208c0,0,0.333-0.208,1.417-0.583s16.125-3.583,25.292-2.542 c1.125,0.167,1.396,0.604,1.396,0.604c0.375-3.125,2.506-4.973,2.688-6.766C40.25,8.63,7.292,12.958,4.25,11.083 C4.708,12.958,8.375,14.125,10.083,14.208z"/></g><path fill="#6d1d0b" d="M38.25,11.125c0.281-1.438-18.344-0.063-25.188,2.063c6.25-1.031,22.688-2.969,25.094-0.969	C38.219,11.813,38.25,11.125,38.25,11.125z"/><ellipse cx="20.655" cy="1.573" fill="#a72521" rx="1.693" ry="1" transform="rotate(-18.666 20.655 1.572)"/><rect width="1.427" height="11.414" x="4.44" y="31.159" fill="#333" transform="rotate(-14.805 5.152 36.866)"/><rect width="1.427" height="7.134" x="2.799" y="27.092" fill="gray" transform="rotate(-14.805 3.512 30.659)"/><polygon fill="#ea1e76" points="2.991,24.033 0.894,24.587 1.912,27.392 3.291,27.028"/><rect width="1" height="8" x="6" y="30" fill="#333"/><linearGradient id="JY_8ANXRGaHeVOLmmov5CZ" x1="1.336" x2="20.386" y1="6.509" y2="6.509" gradientTransform="matrix(1 0 0 -1 0 48)" gradientUnits="userSpaceOnUse"><stop offset="0" stop-color="#b78257"/><stop offset=".999" stop-color="#9d673b"/></linearGradient><path fill="url(#JY_8ANXRGaHeVOLmmov5CZ)" d="M20.386,46c-0.553-0.907-1.079-1.905-1.91-2.679c-5.508-5.133-12.126-7.71-15.351-5.602	c-2.344,1.531-2.25,5.716-0.5,8.281H20.386z"/><linearGradient id="JY_8ANXRGaHeVOLmmov5Caa" x1="2.179" x2="27.508" y1="6.606" y2="6.606" gradientTransform="matrix(1 0 0 -1 0 48)" gradientUnits="userSpaceOnUse"><stop offset="0" stop-color="#fbca9d"/><stop offset=".268" stop-color="#e1af82"/><stop offset=".999" stop-color="#9d673b"/></linearGradient><path fill="url(#JY_8ANXRGaHeVOLmmov5Caa)" d="M21.386,46C17,40,6.417,34.792,3.542,37.542C1.556,39.441,1.875,43.25,3.625,46H21.386z"/><path fill="#c6976e" d="M4.526,39.188c0,0-0.276,0.563,0.034,0.969c0.31,0.406,0.724,0.656,1.585,0.813	s1.757,0.094,1.998-0.563c0.241-0.656,0.069-0.938-0.482-1.344s-1.378-0.219-1.86-0.344S4.698,38.75,4.526,39.188z"/><path fill="#d5a276" d="M3.661,42.864c0,0-0.425,0.278,0,0.833s0.811,1.354,1.816,1.389s1.931,0.174,1.931-0.417	c0-0.59,0.309-1.042-0.657-1.632s-1.777-0.764-2.202-0.66C4.125,42.482,3.661,42.864,3.661,42.864z"/><path fill="#b47f54" d="M15.364,42.939c-0.567,0.102-1.097,0.716-0.53,1.296s1.4,1.671,2.459,1.671s2.194-0.375,1.74-1.194	c-0.454-0.818-1.475-1.569-2.118-1.569S15.364,42.939,15.364,42.939z"/><path fill="#c18d62" d="M11.012,40.086c-0.877-0.035-1.639,0.246-1.411,0.702c0.229,0.456,0.305,0.878,1.22,1.018	c0.915,0.14,1.983,0.842,2.86,0.421c0.877-0.421,0.991-1.053,0.229-1.615c-0.763-0.562-1.144-0.597-1.792-0.597	C11.469,40.016,11.012,40.086,11.012,40.086z"/><rect width="1" height="5" x="6" y="27" fill="gray"/><polygon fill="#276ee3" points="7.333,24.917 5.813,24.917 6,27 7,27"/><polygon fill="#c1272d" points="2.062,24.333 2.833,27.167 3.291,27.028 2.991,24.033"/><polygon fill="#0f4696" points="6.708,24.938 6.625,27.021 7,27 7.333,24.917"/><linearGradient id="JY_8ANXRGaHeVOLmmov5Cab" x1="9.341" x2="15.238" y1="7.173" y2="7.173" gradientTransform="matrix(1 0 0 -1 0 48)" gradientUnits="userSpaceOnUse"><stop offset="0" stop-color="#ff0"/><stop offset=".999" stop-color="#f3bd21"/></linearGradient><path fill="url(#JY_8ANXRGaHeVOLmmov5Cab)" d="M10.678,39.726c-0.807-0.035-1.509,0.246-1.299,0.702s0.281,0.878,1.123,1.018	c0.842,0.14,1.825,0.842,2.633,0.421c0.807-0.421,0.913-1.053,0.211-1.615s-1.053-0.597-1.65-0.597S10.678,39.726,10.678,39.726z"/><linearGradient id="JY_8ANXRGaHeVOLmmov5Cac" x1="4.303" x2="8.893" y1="8.39" y2="8.39" gradientTransform="matrix(1 0 0 -1 0 48)" gradientUnits="userSpaceOnUse"><stop offset="0" stop-color="#ed1e79"/><stop offset=".999" stop-color="#d4145a"/></linearGradient><path fill="url(#JY_8ANXRGaHeVOLmmov5Cac)" d="M4.406,38.938c0,0-0.25,0.563,0.031,0.969c0.281,0.406,0.656,0.656,1.438,0.813	s1.594,0.094,1.812-0.563C7.906,39.5,7.75,39.219,7.25,38.813S6,38.594,5.562,38.469C5.125,38.344,4.562,38.5,4.406,38.938z"/><linearGradient id="JY_8ANXRGaHeVOLmmov5Cad" x1="3.316" x2="8.037" y1="4.576" y2="4.576" gradientTransform="matrix(1 0 0 -1 0 48)" gradientUnits="userSpaceOnUse"><stop offset="0" stop-color="#2877f7"/><stop offset=".253" stop-color="#216ade"/><stop offset=".999" stop-color="#0f4696"/></linearGradient><path fill="url(#JY_8ANXRGaHeVOLmmov5Cad)" d="M3.486,42.551c0,0-0.382,0.278,0,0.833s0.729,1.354,1.632,1.389s1.736,0.174,1.736-0.417	c0-0.59,0.278-1.042-0.59-1.632s-1.597-0.764-1.979-0.66C3.902,42.169,3.486,42.551,3.486,42.551z"/><linearGradient id="JY_8ANXRGaHeVOLmmov5Cae" x1="14.438" x2="19.84" y1="3.816" y2="3.816" gradientTransform="matrix(1 0 0 -1 0 48)" gradientUnits="userSpaceOnUse"><stop offset="0" stop-color="#8544b7"/><stop offset=".999" stop-color="#552282"/></linearGradient><path fill="url(#JY_8ANXRGaHeVOLmmov5Cae)" d="M15.134,42.701c-0.512,0.102-0.989,0.716-0.477,1.296s1.262,1.671,2.217,1.671	s1.978-0.375,1.569-1.194c-0.409-0.818-1.33-1.569-1.91-1.569C15.953,42.905,15.134,42.701,15.134,42.701z"/><radialGradient id="JY_8ANXRGaHeVOLmmov5Caf" cx="-15.931" cy="28.695" r="1.709" gradientTransform="matrix(1.37 0 0 1.3195 45.883 -12.216)" gradientUnits="userSpaceOnUse"><stop offset=".245" stop-color="#cc9000"/><stop offset=".415" stop-color="#d09504" stop-opacity=".822"/><stop offset=".627" stop-color="#dca50f" stop-opacity=".599"/><stop offset=".851" stop-color="#eebd20" stop-opacity=".363"/><stop offset="1" stop-color="#fed12e" stop-opacity="0"/></radialGradient><path fill="url(#JY_8ANXRGaHeVOLmmov5Caf)" d="M24.04,26.328c-0.788,0-1.429-0.2-1.825-0.417c-0.291-0.16-0.586-0.086-0.393,0.415	c0.261,0.679,0.858,1.48,2.218,1.48c1.337,0,1.936-0.773,2.204-1.445c0.206-0.516-0.091-0.568-0.344-0.449	C25.412,26.14,24.808,26.328,24.04,26.328z"/><radialGradient id="JY_8ANXRGaHeVOLmmov5Cag" cx="-61.076" cy="-23.175" r="1.76" gradientTransform="matrix(1.4827 .036 -.0172 .7101 114.26 44.123)" gradientUnits="userSpaceOnUse"><stop offset=".479" stop-color="#fed53f"/><stop offset=".926" stop-color="#fed53f" stop-opacity=".141"/><stop offset="1" stop-color="#fed53f" stop-opacity="0"/></radialGradient><path fill="url(#JY_8ANXRGaHeVOLmmov5Cag)" d="M26.874,25.535c-0.018,0.757-1.286,1.339-2.831,1.302c-1.545-0.038-2.782-0.681-2.764-1.438	s1.286-1.339,2.831-1.302C25.655,24.135,26.892,24.779,26.874,25.535z"/><radialGradient id="JY_8ANXRGaHeVOLmmov5Cah" cx="24.117" cy="199.221" r="1.411" gradientTransform="matrix(1 0 0 .6596 0 -105.987)" gradientUnits="userSpaceOnUse"><stop offset=".004" stop-color="#fff4c9"/><stop offset="1" stop-color="#fff4c9" stop-opacity="0"/></radialGradient><ellipse cx="24.117" cy="25.419" fill="url(#JY_8ANXRGaHeVOLmmov5Cah)" rx="1.411" ry=".931"/><radialGradient id="JY_8ANXRGaHeVOLmmov5Cai" cx="24.125" cy="25.74" r="6.57" gradientUnits="userSpaceOnUse"><stop offset="0" stop-color="#c69c6d"/><stop offset=".53" stop-color="#956b41"/><stop offset=".626" stop-color="#8c6239"/><stop offset=".849" stop-color="#734a23"/><stop offset=".992" stop-color="#603813"/></radialGradient><path fill="url(#JY_8ANXRGaHeVOLmmov5Cai)" d="M24.015,27.7L24.015,27.7c-0.005,0-0.01,0-0.015,0s-0.01,0-0.015,0l0,0	c-5.306-0.08-6.11,2.031-6.11,2.974c0,0.37,0.437,0.426,0.637,0.113c0.152-0.229,0.768-0.579,1.592-0.59	c2.228-0.029,1.829-0.029,3.767-0.029c1.784,0,2.309,0,3.849,0c0.824,0,1.615,0.39,1.767,0.619c0.2,0.313,0.637,0.257,0.637-0.113	C30.125,29.731,29.321,27.62,24.015,27.7z"/></svg>