<svg xmlns="http://www.w3.org/2000/svg" viewBox="0 0 48 48"><linearGradient id="OQcEWSAsS~FxKmm~hJh3Pa" x1="-53.316" x2="-62.634" y1="18.58" y2="23.898" gradientTransform="matrix(.9959 -.0908 -.0897 -.9835 94.833 34.184)" gradientUnits="userSpaceOnUse"><stop offset="0" stop-color="#c69c6d"/><stop offset=".165" stop-color="#aa8054"/><stop offset=".337" stop-color="#946a40"/><stop offset=".447" stop-color="#8c6239"/><stop offset=".999" stop-color="#331604"/></linearGradient><path fill="url(#OQcEWSAsS~FxKmm~hJh3Pa)" d="M33.969,11.954c0,0,0.178,3.115,2.096,6.623c0.64,0.969-0.017,1.448-0.017,1.448	s-4.862,2.435-10.164,2.73c-0.195-2.142-1.282-14.056-1.282-14.056l9.024,0.781L33.969,11.954z"/><linearGradient id="OQcEWSAsS~FxKmm~hJh3Pb" x1="338.841" x2="347.687" y1="27.103" y2="31.442" gradientTransform="scale(-1) rotate(-5.209 -366.555 4162.49)" gradientUnits="userSpaceOnUse"><stop offset="0" stop-color="#c69c6d"/><stop offset=".165" stop-color="#aa8054"/><stop offset=".337" stop-color="#946a40"/><stop offset=".447" stop-color="#8c6239"/><stop offset=".999" stop-color="#331604"/></linearGradient><path fill="url(#OQcEWSAsS~FxKmm~hJh3Pb)" d="M34.197,19.459c0.381-0.247,0.404-0.578-0.156-1.482c-1.718-3.368-1.744-5.743-1.832-6.584 l-0.167-2.05l1.585,0.137l0.342,2.474c0,0,0.178,3.115,2.096,6.623c0.64,0.969-0.017,1.448-0.017,1.448s-4.862,2.435-10.164,2.73 c-0.023-0.255,0.235-0.265,0.19-0.761C30.489,21.311,34.197,19.459,34.197,19.459z"/><linearGradient id="OQcEWSAsS~FxKmm~hJh3Pc" x1="338.821" x2="347.689" y1="27.087" y2="31.437" gradientTransform="scale(-1) rotate(-5.209 -366.555 4162.49)" gradientUnits="userSpaceOnUse"><stop offset="0" stop-color="#b78e60"/><stop offset=".133" stop-color="#a47a4f"/><stop offset=".325" stop-color="#8e643b"/><stop offset=".447" stop-color="#865c34"/><stop offset=".999" stop-color="#391b06"/></linearGradient><path fill="url(#OQcEWSAsS~FxKmm~hJh3Pc)" d="M34.389,19.497c0.326-0.212,0.437-0.53-0.135-1.443c-1.746-3.388-1.787-5.896-1.862-6.618 l-0.188-2.08l1.423,0.123l0.336,2.373c0,0,0.187,3.176,2.105,6.684c0.643,0.971,0.04,1.488-0.035,1.524 c0,0-4.843,2.416-10.144,2.71c-0.021-0.23,0.195-0.268,0.155-0.709C30.554,21.415,34.389,19.497,34.389,19.497z"/><linearGradient id="OQcEWSAsS~FxKmm~hJh3Pd" x1="338.801" x2="347.691" y1="27.068" y2="31.43" gradientTransform="scale(-1) rotate(-5.209 -366.555 4162.49)" gradientUnits="userSpaceOnUse"><stop offset="0" stop-color="#a97f53"/><stop offset=".091" stop-color="#9d7449"/><stop offset=".308" stop-color="#875e35"/><stop offset=".447" stop-color="#7f562e"/><stop offset=".999" stop-color="#402008"/></linearGradient><path fill="url(#OQcEWSAsS~FxKmm~hJh3Pd)" d="M34.58,19.536c0.272-0.176,0.47-0.482-0.113-1.404c-1.775-3.408-1.83-6.05-1.892-6.651 l-0.209-2.11l1.261,0.109l0.33,2.272c0,0,0.196,3.236,2.114,6.744c0.645,0.973,0.097,1.527-0.054,1.6c0,0-4.823,2.396-10.124,2.691 c-0.019-0.205,0.155-0.272,0.119-0.657C30.618,21.519,34.58,19.536,34.58,19.536z"/><linearGradient id="OQcEWSAsS~FxKmm~hJh3Pe" x1="338.779" x2="347.693" y1="27.051" y2="31.424" gradientTransform="scale(-1) rotate(-5.209 -366.555 4162.49)" gradientUnits="userSpaceOnUse"><stop offset="0" stop-color="#9a7146"/><stop offset=".025" stop-color="#976f44"/><stop offset=".282" stop-color="#815830"/><stop offset=".447" stop-color="#795029"/><stop offset=".999" stop-color="#46250a"/></linearGradient><path fill="url(#OQcEWSAsS~FxKmm~hJh3Pe)" d="M34.772,19.575c0.218-0.141,0.503-0.434-0.091-1.366c-1.804-3.428-1.873-6.204-1.923-6.685 l-0.23-2.14l1.099,0.095l0.324,2.171c0,0,0.205,3.297,2.124,6.805c0.647,0.974,0.153,1.567-0.072,1.676 c0,0-4.803,2.377-10.105,2.671c-0.016-0.18,0.114-0.276,0.084-0.605C30.682,21.624,34.772,19.575,34.772,19.575z"/><linearGradient id="OQcEWSAsS~FxKmm~hJh3Pf" x1="338.758" x2="347.696" y1="27.032" y2="31.417" gradientTransform="scale(-1) rotate(-5.209 -366.555 4162.49)" gradientUnits="userSpaceOnUse"><stop offset="0" stop-color="#8c633a"/><stop offset=".246" stop-color="#7b522b"/><stop offset=".447" stop-color="#734a23"/><stop offset=".999" stop-color="#4d290d"/></linearGradient><path fill="url(#OQcEWSAsS~FxKmm~hJh3Pf)" d="M34.963,19.613c0.163-0.106,0.537-0.385-0.069-1.327c-1.832-3.448-1.916-6.358-1.953-6.718 l-0.25-2.169l0.936,0.081l0.318,2.07c0,0,0.215,3.358,2.133,6.866c0.649,0.976,0.21,1.606-0.09,1.752c0,0-4.783,2.357-10.085,2.652 c-0.014-0.155,0.074-0.279,0.049-0.553C30.747,21.728,34.963,19.613,34.963,19.613z"/><linearGradient id="OQcEWSAsS~FxKmm~hJh3Pg" x1="338.735" x2="347.698" y1="27.013" y2="31.41" gradientTransform="scale(-1) rotate(-5.209 -366.555 4162.49)" gradientUnits="userSpaceOnUse"><stop offset="0" stop-color="#7d552d"/><stop offset=".182" stop-color="#754c25"/><stop offset=".447" stop-color="#6d441e"/><stop offset=".999" stop-color="#532e0f"/></linearGradient><path fill="url(#OQcEWSAsS~FxKmm~hJh3Pg)" d="M35.155,19.652c0.109-0.071,0.57-0.337-0.048-1.288c-1.861-3.468-1.958-6.512-1.983-6.752 l-0.271-2.199l0.774,0.067l0.311,1.969c0,0,0.224,3.418,2.142,6.926c0.652,0.978,0.267,1.646-0.109,1.828 c0,0-4.763,2.338-10.065,2.633c-0.012-0.13,0.034-0.283,0.014-0.501C30.811,21.832,35.155,19.652,35.155,19.652z"/><linearGradient id="OQcEWSAsS~FxKmm~hJh3Ph" x1="338.712" x2="347.7" y1="26.994" y2="31.403" gradientTransform="scale(-1) rotate(-5.209 -366.555 4162.49)" gradientUnits="userSpaceOnUse"><stop offset="0" stop-color="#6f4620"/><stop offset=".03" stop-color="#6e451f"/><stop offset=".447" stop-color="#663e18"/><stop offset=".999" stop-color="#5a3311"/></linearGradient><path fill="url(#OQcEWSAsS~FxKmm~hJh3Ph)" d="M35.346,19.691c0.054-0.035,0.603-0.289-0.026-1.249c-1.89-3.488-2.001-6.665-2.014-6.786 l-0.292-2.229l0.612,0.053l0.305,1.868c0,0,0.233,3.479,2.151,6.987c0.654,0.98,0.323,1.685-0.127,1.904 c0,0-4.743,2.319-10.045,2.613c-0.01-0.105-0.007-0.287-0.021-0.449C30.875,21.936,35.346,19.691,35.346,19.691z"/><path fill="#603813" d="M35.538,19.729c0,0,0.636-0.241-0.004-1.21C33.616,15.012,33.49,11.7,33.49,11.7l-0.313-2.259 l0.45,0.039l0.299,1.767c0,0,0.242,3.54,2.16,7.047c0.656,0.982,0.38,1.725-0.146,1.98c0,0-4.724,2.299-10.025,2.594 c-0.007-0.08-0.047-0.29-0.057-0.397C30.94,22.041,35.538,19.729,35.538,19.729z"/><linearGradient id="OQcEWSAsS~FxKmm~hJh3Pi" x1="274.654" x2="265.335" y1="18.577" y2="23.895" gradientTransform="matrix(-.9959 .0908 -.0897 -.9835 286.495 16.71)" gradientUnits="userSpaceOnUse"><stop offset="0" stop-color="#c69c6d"/><stop offset=".165" stop-color="#aa8054"/><stop offset=".337" stop-color="#946a40"/><stop offset=".447" stop-color="#8c6239"/><stop offset=".999" stop-color="#331604"/></linearGradient><path fill="url(#OQcEWSAsS~FxKmm~hJh3Pi)" d="M15.716,13.618c0,0,0.388,3.096-0.864,6.893c-0.455,1.069,0.278,1.421,0.278,1.421	s5.223,1.516,10.49,0.847c-0.195-2.142-1.282-14.056-1.282-14.056l-8.734,2.4L15.716,13.618z"/><linearGradient id="OQcEWSAsS~FxKmm~hJh3Pj" x1="10.872" x2="19.717" y1="27.099" y2="31.439" gradientTransform="scale(1 -1) rotate(5.209 555.435 10.836)" gradientUnits="userSpaceOnUse"><stop offset="0" stop-color="#c69c6d"/><stop offset=".165" stop-color="#aa8054"/><stop offset=".337" stop-color="#946a40"/><stop offset=".447" stop-color="#8c6239"/><stop offset=".999" stop-color="#331604"/></linearGradient><path fill="url(#OQcEWSAsS~FxKmm~hJh3Pj)" d="M16.849,21.04c-0.419-0.174-0.502-0.496-0.114-1.486c1.08-3.623,0.677-5.963,0.611-6.807 l-0.206-2.046l-1.534,0.422l0.111,2.495c0,0,0.388,3.096-0.864,6.893c-0.455,1.069,0.278,1.421,0.278,1.421 s5.223,1.516,10.49,0.847c-0.023-0.255-0.279-0.218-0.324-0.715C20.831,22.191,16.849,21.04,16.849,21.04z"/><linearGradient id="OQcEWSAsS~FxKmm~hJh3Pk" x1="10.872" x2="19.82" y1="26.976" y2="31.366" gradientTransform="scale(.9995 -.9995) rotate(4.464 643.72 11.01)" gradientUnits="userSpaceOnUse"><stop offset="0" stop-color="#b78e60"/><stop offset=".133" stop-color="#a47a4f"/><stop offset=".325" stop-color="#8e643b"/><stop offset=".447" stop-color="#865c34"/><stop offset=".999" stop-color="#391b06"/></linearGradient><path fill="url(#OQcEWSAsS~FxKmm~hJh3Pk)" d="M16.668,21.113c-0.359-0.149-0.526-0.442-0.129-1.444c1.105-3.648,0.691-6.122,0.634-6.845 l-0.191-2.079l-1.377,0.378l0.099,2.394c0,0,0.39,3.157-0.862,6.954c-0.456,1.071,0.23,1.47,0.31,1.493c0,0,5.2,1.5,10.467,0.831 c-0.021-0.23-0.24-0.229-0.28-0.67C20.786,22.306,16.668,21.113,16.668,21.113z"/><linearGradient id="OQcEWSAsS~FxKmm~hJh3Pl" x1="10.879" x2="19.93" y1="26.849" y2="31.29" gradientTransform="scale(.9991 -.9991) rotate(3.724 766.2 11.2)" gradientUnits="userSpaceOnUse"><stop offset="0" stop-color="#a97f53"/><stop offset=".091" stop-color="#9d7449"/><stop offset=".308" stop-color="#875e35"/><stop offset=".447" stop-color="#7f562e"/><stop offset=".999" stop-color="#402008"/></linearGradient><path fill="url(#OQcEWSAsS~FxKmm~hJh3Pl)" d="M16.487,21.186c-0.299-0.124-0.549-0.389-0.143-1.402c1.13-3.673,0.706-6.281,0.658-6.884 l-0.176-2.113l-1.22,0.335l0.086,2.294c0,0,0.392,3.218-0.86,7.016c-0.458,1.073,0.181,1.519,0.342,1.564 c0,0,5.177,1.485,10.444,0.816c-0.019-0.205-0.201-0.24-0.236-0.625C20.742,22.42,16.487,21.186,16.487,21.186z"/><linearGradient id="OQcEWSAsS~FxKmm~hJh3Pm" x1="10.888" x2="20.042" y1="26.727" y2="31.218" gradientTransform="scale(.999 -.999) rotate(2.978 951.398 11.376)" gradientUnits="userSpaceOnUse"><stop offset="0" stop-color="#9a7146"/><stop offset=".025" stop-color="#976f44"/><stop offset=".282" stop-color="#815830"/><stop offset=".447" stop-color="#795029"/><stop offset=".999" stop-color="#46250a"/></linearGradient><path fill="url(#OQcEWSAsS~FxKmm~hJh3Pm)" d="M16.305,21.258c-0.24-0.099-0.573-0.335-0.157-1.359c1.154-3.698,0.72-6.44,0.682-6.922 l-0.161-2.146l-1.063,0.292l0.074,2.194c0,0,0.394,3.28-0.858,7.077c-0.46,1.075,0.132,1.569,0.374,1.635 c0,0,5.154,1.469,10.421,0.8c-0.016-0.18-0.162-0.25-0.192-0.58C20.698,22.534,16.305,21.258,16.305,21.258z"/><linearGradient id="OQcEWSAsS~FxKmm~hJh3Pn" x1="10.902" x2="20.158" y1="26.608" y2="31.149" gradientTransform="scale(.999 -.999) rotate(2.232 1260.423 11.55)" gradientUnits="userSpaceOnUse"><stop offset="0" stop-color="#8c633a"/><stop offset=".246" stop-color="#7b522b"/><stop offset=".447" stop-color="#734a23"/><stop offset=".999" stop-color="#4d290d"/></linearGradient><path fill="url(#OQcEWSAsS~FxKmm~hJh3Pn)" d="M16.124,21.331c-0.18-0.075-0.597-0.282-0.172-1.317c1.179-3.722,0.734-6.599,0.706-6.961 l-0.146-2.179l-0.906,0.249l0.062,2.093c0,0,0.396,3.341-0.856,7.138c-0.462,1.078,0.084,1.618,0.406,1.707 c0,0,5.131,1.454,10.398,0.785c-0.014-0.155-0.123-0.261-0.148-0.535C20.653,22.648,16.124,21.331,16.124,21.331z"/><linearGradient id="OQcEWSAsS~FxKmm~hJh3Po" x1="10.92" x2="20.278" y1="26.49" y2="31.081" gradientTransform="matrix(.9988 -.0259 -.0259 -.9988 .935 48.681)" gradientUnits="userSpaceOnUse"><stop offset="0" stop-color="#7d552d"/><stop offset=".182" stop-color="#754c25"/><stop offset=".447" stop-color="#6d441e"/><stop offset=".999" stop-color="#532e0f"/></linearGradient><path fill="url(#OQcEWSAsS~FxKmm~hJh3Po)" d="M15.942,21.404c-0.12-0.05-0.621-0.229-0.186-1.275c1.203-3.747,0.749-6.758,0.73-6.999 l-0.131-2.212l-0.749,0.206l0.05,1.993c0,0,0.398,3.402-0.854,7.199c-0.464,1.08,0.035,1.667,0.438,1.778 c0,0,5.107,1.438,10.375,0.769c-0.012-0.13-0.084-0.272-0.104-0.49C20.609,22.762,15.942,21.404,15.942,21.404z"/><linearGradient id="OQcEWSAsS~FxKmm~hJh3Pp" x1="10.943" x2="20.402" y1="26.374" y2="31.015" gradientTransform="matrix(.9994 -.013 -.013 -.9994 .47 48.34)" gradientUnits="userSpaceOnUse"><stop offset="0" stop-color="#6f4620"/><stop offset=".03" stop-color="#6e451f"/><stop offset=".447" stop-color="#663e18"/><stop offset=".999" stop-color="#5a3311"/></linearGradient><path fill="url(#OQcEWSAsS~FxKmm~hJh3Pp)" d="M15.761,21.476c-0.06-0.025-0.645-0.175-0.2-1.233c1.228-3.772,0.763-6.917,0.753-7.038 l-0.116-2.245l-0.592,0.163l0.038,1.892c0,0,0.4,3.464-0.852,7.261c-0.466,1.082-0.013,1.716,0.47,1.849 c0,0,5.084,1.422,10.352,0.754c-0.01-0.105-0.045-0.283-0.06-0.445C20.564,22.877,15.761,21.476,15.761,21.476z"/><path fill="#603813" d="M15.579,21.549c0,0-0.669-0.122-0.215-1.19c1.252-3.797,0.777-7.077,0.777-7.077l-0.101-2.279 l-0.435,0.12l0.025,1.792c0,0,0.402,3.525-0.85,7.322c-0.468,1.084-0.062,1.765,0.502,1.921c0,0,5.061,1.407,10.329,0.738 c-0.007-0.08-0.006-0.294-0.016-0.4C20.52,22.991,15.579,21.549,15.579,21.549z"/><radialGradient id="OQcEWSAsS~FxKmm~hJh3Pq" cx="22.173" cy="11.453" r="14.096" gradientTransform="matrix(1 0 0 -1.77 0 56.819)" gradientUnits="userSpaceOnUse"><stop offset=".002" stop-color="#03a0e5"/><stop offset="1" stop-color="#0071db"/></radialGradient><path fill="url(#OQcEWSAsS~FxKmm~hJh3Pq)" d="M25.972,21.898c-7.787,0.193-10.844,4.408-10.844,4.408c-2.928,3.218-8.302,9.3-9.042,10.522	l5.116,2.413c0,0,2.965-3.221,5.427-5.558l0.365,1.793l19.79-0.032l0.29-10.168C37.074,25.277,33.759,21.705,25.972,21.898z"/><radialGradient id="OQcEWSAsS~FxKmm~hJh3Pr" cx="22.101" cy="11.417" r="14.672" gradientTransform="matrix(1 0 0 -1.7033 0 56.03)" gradientUnits="userSpaceOnUse"><stop offset=".002" stop-color="#03a0e5"/><stop offset="1" stop-color="#0071db"/></radialGradient><path fill="url(#OQcEWSAsS~FxKmm~hJh3Pr)" d="M11.696,36.261c0,0,2.917-4.719,4.248-7.465s2.36-1.309,2.381-0.215 s0.107,3.926,0.107,3.926L11.696,36.261z"/><radialGradient id="OQcEWSAsS~FxKmm~hJh3Ps" cx="21.668" cy="11.652" r="13.675" gradientTransform="matrix(1 0 0 -1.7033 0 56.195)" gradientUnits="userSpaceOnUse"><stop offset=".002" stop-color="#059ae4"/><stop offset="1" stop-color="#0272db"/></radialGradient><path fill="url(#OQcEWSAsS~FxKmm~hJh3Ps)" d="M18.248,32.58c0,0-6.212,3.464-6.277,3.46c0.435-0.377,2.923-4.72,4.131-7.263 c1.149-2.418,2.1-1.188,2.088-0.174C18.167,29.775,18.248,32.58,18.248,32.58z"/><radialGradient id="OQcEWSAsS~FxKmm~hJh3Pt" cx="21.235" cy="11.886" r="12.678" gradientTransform="matrix(1 0 0 -1.7033 0 56.36)" gradientUnits="userSpaceOnUse"><stop offset=".002" stop-color="#0694e2"/><stop offset="1" stop-color="#0473db"/></radialGradient><path fill="url(#OQcEWSAsS~FxKmm~hJh3Pt)" d="M18.065,32.653c0,0-5.688,3.174-5.818,3.166c0.87-0.754,2.928-4.72,4.014-7.06 c0.969-2.089,1.841-1.067,1.795-0.133C17.989,29.876,18.065,32.653,18.065,32.653z"/><radialGradient id="OQcEWSAsS~FxKmm~hJh3Pu" cx="20.87" cy="12.12" r="11.778" gradientTransform="matrix(1 0 0 -1.7033 0 56.524)" gradientUnits="userSpaceOnUse"><stop offset=".002" stop-color="#088ee1"/><stop offset="1" stop-color="#0674db"/></radialGradient><path fill="url(#OQcEWSAsS~FxKmm~hJh3Pu)" d="M17.882,32.727c0,0-5.164,2.884-5.359,2.872c1.306-1.131,2.935-4.719,3.897-6.857 c0.791-1.759,1.581-0.946,1.501-0.092C17.81,29.976,17.882,32.727,17.882,32.727z"/><radialGradient id="OQcEWSAsS~FxKmm~hJh3Pv" cx="20.523" cy="12.354" r="10.901" gradientTransform="matrix(1 0 0 -1.7033 0 56.689)" gradientUnits="userSpaceOnUse"><stop offset=".002" stop-color="#0a89e0"/><stop offset="1" stop-color="#0974dc"/></radialGradient><path fill="url(#OQcEWSAsS~FxKmm~hJh3Pv)" d="M17.699,32.8c0,0-4.64,2.594-4.9,2.578c1.741-1.508,2.943-4.717,3.78-6.655 c0.617-1.428,1.322-0.826,1.208-0.052C17.632,30.076,17.699,32.8,17.699,32.8z"/><radialGradient id="OQcEWSAsS~FxKmm~hJh3Pw" cx="20.18" cy="12.588" r="10.032" gradientTransform="matrix(1 0 0 -1.7033 0 56.854)" gradientUnits="userSpaceOnUse"><stop offset=".002" stop-color="#0c83df"/><stop offset="1" stop-color="#0b75dc"/></radialGradient><path fill="url(#OQcEWSAsS~FxKmm~hJh3Pw)" d="M17.516,32.873c0,0-4.116,2.304-4.441,2.284c2.176-1.885,2.954-4.714,3.663-6.452 c0.446-1.094,1.062-0.705,0.915-0.011C17.453,30.176,17.516,32.873,17.516,32.873z"/><radialGradient id="OQcEWSAsS~FxKmm~hJh3Px" cx="19.846" cy="12.823" r="9.174" gradientTransform="matrix(1 0 0 -1.7033 0 57.018)" gradientUnits="userSpaceOnUse"><stop offset=".002" stop-color="#0d7ddd"/><stop offset="1" stop-color="#0d76dc"/></radialGradient><path fill="url(#OQcEWSAsS~FxKmm~hJh3Px)" d="M17.332,32.947c0,0-3.592,2.014-3.982,1.99c2.611-2.262,2.973-4.707,3.546-6.249 c0.281-0.758,0.803-0.584,0.622,0.03C17.275,30.277,17.332,32.947,17.332,32.947z"/><path fill="#0f77dc" d="M17.149,33.02c0,0-0.053-2.643,0.234-4.28c0.215-0.534-0.203-0.489-0.329-0.07 c-0.407,1.357-0.382,3.408-3.429,6.047C14.081,34.744,17.149,33.02,17.149,33.02z"/><linearGradient id="OQcEWSAsS~FxKmm~hJh3Py" x1="8.373" x2="15.982" y1="11.521" y2="11.521" gradientTransform="scale(1 -1) rotate(-5.52 -485.697 -12.13)" gradientUnits="userSpaceOnUse"><stop offset="0" stop-color="#0f4696" stop-opacity="0"/><stop offset=".999" stop-color="#0f4696"/></linearGradient><path fill="url(#OQcEWSAsS~FxKmm~hJh3Py)" d="M10.739,37.4c0,0-0.538-1.345-1.731-1.719c-1.192-0.374-0.241-0.649,0.263-0.514	s1.776,0.484,2.51,1.137C12.516,36.956,10.739,37.4,10.739,37.4z"/><radialGradient id="OQcEWSAsS~FxKmm~hJh3Pz" cx="36.688" cy="7.292" r="5.128" gradientTransform="matrix(1 0 0 -1.77 0 53.615)" gradientUnits="userSpaceOnUse"><stop offset=".002" stop-color="#03a0e5"/><stop offset="1" stop-color="#0071db"/></radialGradient><path fill="url(#OQcEWSAsS~FxKmm~hJh3Pz)" d="M36.977,25.148c1.698,1.859,4.183,10.49,4.312,16.475c-0.129,2.059-1.038,1.827-2.059,2.059	c-2.832,0.644-3.475-4.827-3.475-4.827l-3.861-10.554C30.863,25.985,34.658,22.61,36.977,25.148z"/><radialGradient id="OQcEWSAsS~FxKmm~hJh3PA" cx="31.808" cy="15.351" r="10.175" gradientTransform="matrix(1 0 0 -1.0207 0 48.317)" gradientUnits="userSpaceOnUse"><stop offset="0" stop-color="#ffe16e"/><stop offset=".535" stop-color="#ffd226"/><stop offset=".999" stop-color="#f0af13"/></radialGradient><path fill="url(#OQcEWSAsS~FxKmm~hJh3PA)" d="M25.232,33.343c0,0-2.917-3.733-3.604-5.964c-0.686-2.231-1.561-4.634,1.014-5.191	s6.023-1.116,8.039,1.158s2.875,4.462,4.033,6.865S25.232,33.343,25.232,33.343z"/><radialGradient id="OQcEWSAsS~FxKmm~hJh3PB" cx="28.036" cy="-325.137" r="4.505" gradientTransform="matrix(.9714 0 0 -.6679 1.988 -188.696)" gradientUnits="userSpaceOnUse"><stop offset=".004" stop-color="#fff4c9"/><stop offset=".035" stop-color="#ffeaa6" stop-opacity=".96"/><stop offset=".186" stop-color="#ffecac" stop-opacity=".81"/><stop offset="1" stop-color="#fff4c9" stop-opacity="0"/></radialGradient><ellipse cx="29.222" cy="28.447" fill="url(#OQcEWSAsS~FxKmm~hJh3PB)" rx="4.376" ry="3.009"/><radialGradient id="OQcEWSAsS~FxKmm~hJh3PC" cx="22.64" cy="14.976" r="21.599" gradientTransform="matrix(.9634 -.268 -.1238 -.4451 2.682 45.758)" gradientUnits="userSpaceOnUse"><stop offset=".002" stop-color="#fff"/><stop offset=".059" stop-color="#fcfcfc"/><stop offset="1" stop-color="#ccc"/></radialGradient><path fill="url(#OQcEWSAsS~FxKmm~hJh3PC)" d="M9.958,37.891c0,0,5.537-6.413,15.381-8.86c0.325-0.081,1.423,0.01,1.823,0.064	c1.216-0.263,1.799-0.604,3.132-0.729c6.393-0.601,9.546,2.317,11.219,4.762c1.278,1.868,2.604,6.774,0.772,8.817	c-0.837,0.933-3.282-4.762-7.73-2.2c-1.657,0.955-3.874,2.144-6.921,3.123c-7.079,2.274-10.512,2.274-11.799,2.274	s-5.921-0.129-7.208-2.102C7.341,41.066,9.958,37.891,9.958,37.891z"/><radialGradient id="OQcEWSAsS~FxKmm~hJh3PD" cx="22.34" cy="13.969" r="19.833" gradientTransform="matrix(.9634 -.268 -.1238 -.4451 2.546 46.236)" gradientUnits="userSpaceOnUse"><stop offset=".002" stop-color="#fff"/><stop offset=".059" stop-color="#fcfcfc"/><stop offset="1" stop-color="#ccc"/></radialGradient><path fill="url(#OQcEWSAsS~FxKmm~hJh3PD)" d="M34.713,35.594c-1.876,0.965-4.382,2.161-7.802,3.095c-7.943,2.17-11.75,2.029-13.178,1.977 c-0.864-0.032-3.086-0.168-5.005-0.754c-0.445,1.005-0.707,2.199-0.101,3.128c1.287,1.974,5.921,2.102,7.208,2.102 s4.719,0,11.799-2.274c3.047-0.979,5.264-2.168,6.921-3.123c4.448-2.562,6.894,3.134,7.73,2.2c0.808-0.901,1-2.358,0.855-3.866 C42.512,35.75,39.601,33.081,34.713,35.594z"/><radialGradient id="OQcEWSAsS~FxKmm~hJh3PE" cx="22.321" cy="13.611" r="19.651" gradientTransform="matrix(.9634 -.268 -.1238 -.4451 2.501 46.43)" gradientUnits="userSpaceOnUse"><stop offset=".002" stop-color="#f8f8f8"/><stop offset="1" stop-color="#cacaca"/></radialGradient><path fill="url(#OQcEWSAsS~FxKmm~hJh3PE)" d="M34.673,35.92c-1.878,0.967-4.326,2.164-7.748,3.1c-7.95,2.174-11.759,2.011-13.188,1.958 c-0.87-0.032-3.136-0.208-5.042-0.839c-0.399,0.934-0.63,2.038-0.067,2.901c1.287,1.974,5.921,2.102,7.208,2.102 s4.719,0,11.799-2.274c3.047-0.979,5.264-2.168,6.921-3.123c4.448-2.562,6.894,3.134,7.73,2.2c0.748-0.834,0.908-2.152,0.786-3.541 C42.378,36.056,39.476,33.448,34.673,35.92z"/><radialGradient id="OQcEWSAsS~FxKmm~hJh3PF" cx="22.302" cy="13.253" r="19.472" gradientTransform="matrix(.9634 -.268 -.1238 -.4451 2.456 46.623)" gradientUnits="userSpaceOnUse"><stop offset=".002" stop-color="#f1f1f1"/><stop offset="1" stop-color="#c7c7c7"/></radialGradient><path fill="url(#OQcEWSAsS~FxKmm~hJh3PF)" d="M34.633,36.246c-1.88,0.969-4.269,2.168-7.694,3.105 c-7.957,2.178-11.768,1.993-13.198,1.939c-0.875-0.033-3.186-0.249-5.08-0.924c-0.353,0.862-0.553,1.877-0.034,2.673 c1.287,1.974,5.921,2.102,7.208,2.102s4.719,0,11.799-2.274c3.047-0.979,5.264-2.168,6.921-3.123c4.448-2.562,6.894,3.134,7.73,2.2 c0.688-0.767,0.816-1.946,0.717-3.216C42.243,36.362,39.351,33.815,34.633,36.246z"/><radialGradient id="OQcEWSAsS~FxKmm~hJh3PG" cx="22.283" cy="12.895" r="19.296" gradientTransform="matrix(.9634 -.268 -.1238 -.4451 2.411 46.817)" gradientUnits="userSpaceOnUse"><stop offset=".002" stop-color="#eaeaea"/><stop offset="1" stop-color="#c5c5c5"/></radialGradient><path fill="url(#OQcEWSAsS~FxKmm~hJh3PG)" d="M34.593,36.572c-1.882,0.972-4.212,2.171-7.64,3.111c-7.964,2.182-11.777,1.975-13.208,1.92 c-0.881-0.034-3.236-0.289-5.117-1.009c-0.308,0.79-0.477,1.716-0.001,2.446c1.287,1.974,5.921,2.102,7.208,2.102 s4.719,0,11.799-2.274c3.047-0.979,5.264-2.168,6.921-3.123c4.448-2.562,6.894,3.134,7.73,2.2c0.628-0.7,0.724-1.74,0.648-2.891 C42.109,36.667,39.225,34.182,34.593,36.572z"/><radialGradient id="OQcEWSAsS~FxKmm~hJh3PH" cx="22.263" cy="12.537" r="19.124" gradientTransform="matrix(.9634 -.268 -.1238 -.4451 2.366 47.01)" gradientUnits="userSpaceOnUse"><stop offset=".002" stop-color="#e3e3e3"/><stop offset="1" stop-color="#c3c3c3"/></radialGradient><path fill="url(#OQcEWSAsS~FxKmm~hJh3PH)" d="M34.553,36.897c-1.884,0.974-4.155,2.175-7.586,3.116 c-7.97,2.187-11.787,1.956-13.218,1.901c-0.886-0.034-3.286-0.329-5.154-1.094c-0.262,0.719-0.4,1.555,0.033,2.219 c1.287,1.974,5.921,2.102,7.208,2.102s4.719,0,11.799-2.274c3.047-0.979,5.264-2.168,6.921-3.123c4.448-2.562,6.894,3.134,7.73,2.2 c0.568-0.633,0.632-1.534,0.579-2.566C41.975,36.973,39.1,34.548,34.553,36.897z"/><radialGradient id="OQcEWSAsS~FxKmm~hJh3PI" cx="22.243" cy="12.18" r="18.955" gradientTransform="matrix(.9634 -.268 -.1238 -.4451 2.321 47.203)" gradientUnits="userSpaceOnUse"><stop offset=".002" stop-color="#dcdcdc"/><stop offset="1" stop-color="#c1c1c1"/></radialGradient><path fill="url(#OQcEWSAsS~FxKmm~hJh3PI)" d="M34.514,37.223c-1.886,0.976-4.098,2.178-7.532,3.121 c-7.977,2.191-11.796,1.938-13.228,1.883c-0.892-0.035-3.336-0.37-5.191-1.179c-0.217,0.647-0.323,1.394,0.066,1.991 c1.287,1.974,5.921,2.102,7.208,2.102s4.719,0,11.799-2.274c3.047-0.979,5.264-2.168,6.921-3.123c4.448-2.562,6.894,3.134,7.73,2.2 c0.508-0.566,0.54-1.327,0.51-2.24C41.84,37.279,38.974,34.915,34.514,37.223z"/><radialGradient id="OQcEWSAsS~FxKmm~hJh3PJ" cx="22.223" cy="11.822" r="18.791" gradientTransform="matrix(.9634 -.268 -.1238 -.4451 2.276 47.396)" gradientUnits="userSpaceOnUse"><stop offset=".002" stop-color="#d6d6d6"/><stop offset="1" stop-color="#bebebe"/></radialGradient><path fill="url(#OQcEWSAsS~FxKmm~hJh3PJ)" d="M34.474,37.549c-1.887,0.979-4.041,2.182-7.478,3.127 c-7.984,2.195-11.805,1.92-13.239,1.864c-0.897-0.035-3.386-0.41-5.229-1.264c-0.171,0.575-0.246,1.233,0.1,1.764 c1.287,1.974,5.921,2.102,7.208,2.102s4.719,0,11.799-2.274c3.047-0.979,5.264-2.168,6.921-3.123c4.448-2.562,6.894,3.134,7.73,2.2 c0.448-0.499,0.448-1.121,0.441-1.915C41.706,37.585,38.849,35.282,34.474,37.549z"/><radialGradient id="OQcEWSAsS~FxKmm~hJh3PK" cx="22.203" cy="11.464" r="18.633" gradientTransform="matrix(.9634 -.268 -.1238 -.4451 2.231 47.59)" gradientUnits="userSpaceOnUse"><stop offset=".002" stop-color="#cfcfcf"/><stop offset="1" stop-color="#bcbcbc"/></radialGradient><path fill="url(#OQcEWSAsS~FxKmm~hJh3PK)" d="M34.434,37.875c-1.889,0.981-3.984,2.186-7.424,3.132 c-7.991,2.199-11.814,1.902-13.249,1.845c-0.903-0.036-3.436-0.45-5.266-1.349c-0.125,0.504-0.169,1.073,0.133,1.536 c1.287,1.974,5.921,2.102,7.208,2.102s4.719,0,11.799-2.274c3.047-0.979,5.264-2.168,6.921-3.123c4.448-2.562,6.894,3.134,7.73,2.2 c0.388-0.432,0.356-0.915,0.372-1.59C41.572,37.89,38.724,35.649,34.434,37.875z"/><radialGradient id="OQcEWSAsS~FxKmm~hJh3PL" cx="22.183" cy="11.106" r="18.481" gradientTransform="matrix(.9634 -.268 -.1238 -.4451 2.186 47.783)" gradientUnits="userSpaceOnUse"><stop offset=".002" stop-color="#c8c8c8"/><stop offset="1" stop-color="#bababa"/></radialGradient><path fill="url(#OQcEWSAsS~FxKmm~hJh3PL)" d="M34.394,38.201c-1.891,0.984-3.927,2.189-7.37,3.137 c-7.998,2.203-11.823,1.884-13.259,1.826c-0.908-0.036-3.486-0.491-5.303-1.434c-0.08,0.432-0.093,0.912,0.166,1.309 c1.287,1.974,5.921,2.102,7.208,2.102s4.719,0,11.799-2.274c3.047-0.979,5.264-2.168,6.921-3.123c4.448-2.562,6.894,3.134,7.73,2.2 c0.328-0.366,0.264-0.709,0.303-1.265C41.437,38.196,38.598,36.016,34.394,38.201z"/><radialGradient id="OQcEWSAsS~FxKmm~hJh3PM" cx="22.157" cy="10.748" r="18.336" gradientTransform="matrix(.9634 -.268 -.1238 -.4451 2.14 47.975)" gradientUnits="userSpaceOnUse"><stop offset=".002" stop-color="#c1c1c1"/><stop offset="1" stop-color="#b8b8b8"/></radialGradient><path fill="url(#OQcEWSAsS~FxKmm~hJh3PM)" d="M34.354,38.527c-1.893,0.986-3.87,2.193-7.316,3.143 c-8.005,2.207-11.832,1.866-13.269,1.807c-0.913-0.037-3.536-0.531-5.341-1.519c-0.034,0.36-0.016,0.751,0.2,1.082 c1.287,1.974,5.921,2.102,7.208,2.102s4.719,0,11.799-2.274c3.047-0.979,5.264-2.168,6.921-3.123c4.448-2.562,6.894,3.134,7.73,2.2 c0.268-0.299,0.172-0.503,0.234-0.94C41.303,38.502,38.473,36.383,34.354,38.527z"/><radialGradient id="OQcEWSAsS~FxKmm~hJh3PN" cx="22.117" cy="10.39" r="18.207" gradientTransform="matrix(.9634 -.268 -.1238 -.4451 2.095 48.163)" gradientUnits="userSpaceOnUse"><stop offset=".002" stop-color="#bababa"/><stop offset="1" stop-color="#b5b5b5"/></radialGradient><path fill="url(#OQcEWSAsS~FxKmm~hJh3PN)" d="M34.314,38.852c-1.895,0.988-3.813,2.196-7.262,3.148 c-8.012,2.211-11.842,1.847-13.279,1.789c-0.919-0.037-3.586-0.571-5.378-1.604c0.012,0.289,0.061,0.59,0.233,0.854 c1.287,1.974,5.921,2.102,7.208,2.102s4.719,0,11.799-2.274c3.047-0.979,5.264-2.168,6.921-3.123c4.448-2.562,6.894,3.134,7.73,2.2 c0.208-0.232,0.08-0.297,0.165-0.615C41.169,38.808,38.348,36.749,34.314,38.852z"/><path fill="#b3b3b3" d="M34.274,39.178c-1.897,0.991-3.756,2.2-7.208,3.153c-8.019,2.216-11.851,1.829-13.29,1.77 c-0.924-0.038-3.636-0.611-5.415-1.689c0.057,0.217,0.138,0.429,0.267,0.627c1.287,1.974,5.921,2.102,7.208,2.102 s4.719,0,11.799-2.274c3.047-0.979,5.264-2.168,6.921-3.123c4.448-2.562,6.894,3.134,7.73,2.2c0.148-0.165-0.012-0.091,0.097-0.29 C41.034,39.113,38.222,37.116,34.274,39.178z"/><linearGradient id="OQcEWSAsS~FxKmm~hJh3PO" x1="16.155" x2="28.632" y1="8.604" y2="8.604" gradientTransform="matrix(1 0 0 -1 0 48)" gradientUnits="userSpaceOnUse"><stop offset=".002" stop-color="#999" stop-opacity=".2"/><stop offset=".965" stop-color="#333" stop-opacity=".7"/></linearGradient><path fill="url(#OQcEWSAsS~FxKmm~hJh3PO)" d="M21.886,35.499c0,0-0.45,0.579-0.161,1.094s0.225,0.418,0.611,0.804	c-0.845,0.106-2.927,0.082-4.601-0.032c-0.875-0.06-1.77,0.064-1.545,0.708c0,0,0.154,0.718,0.454,1.564	c0.134,0.38,0.298,0.787,0.49,1.166c0.185,0.365,0.235,0.479,0.472,0.745c0.772,0.869,4.827,2.199,7.916,1.813	c0.965-0.097,1.866-0.434,2.429-0.595c1.838-0.525-0.627-3.727-0.627-3.727c-0.479-0.929-2.461-1.979-3.722-2.757	C22.519,35.615,22.123,35.108,21.886,35.499z"/><radialGradient id="OQcEWSAsS~FxKmm~hJh3PP" cx="31.778" cy="10.193" r="9.93" gradientTransform="matrix(1 0 0 -.9378 0 47.365)" gradientUnits="userSpaceOnUse"><stop offset=".002" stop-color="#03a0e5"/><stop offset="1" stop-color="#0071db"/></radialGradient><path fill="url(#OQcEWSAsS~FxKmm~hJh3PP)" d="M41.278,41.559c0.15,1.116-0.458,1.871-1.373,2.381c-1.695,0.944-10.151,0.087-14.094-1.545	c-0.708-0.129-0.579-0.386-0.515-1.03c0.064-0.644,0.386-2.51,0.515-2.832c0.129-0.322,0.579-0.579,0.901-0.579	c0.322,0,8.752,0.901,8.752,0.901C36.923,39.049,39.487,39.243,41.278,41.559z"/><radialGradient id="OQcEWSAsS~FxKmm~hJh3PQ" cx="31.778" cy="10.193" r="9.93" gradientTransform="matrix(1 0 0 -.9378 0 47.365)" gradientUnits="userSpaceOnUse"><stop offset=".002" stop-color="#03a0e5"/><stop offset="1" stop-color="#0071db"/></radialGradient><path fill="url(#OQcEWSAsS~FxKmm~hJh3PQ)" d="M41.278,41.559c0.15,1.116-0.458,1.871-1.373,2.381c-1.695,0.944-10.151,0.087-14.094-1.545	c-0.708-0.129-0.579-0.386-0.515-1.03c0.064-0.644,0.386-2.51,0.515-2.832c0.129-0.322,0.579-0.579,0.901-0.579	c0.322,0,8.752,0.901,8.752,0.901C36.923,39.049,39.487,39.243,41.278,41.559z"/><g><radialGradient id="OQcEWSAsS~FxKmm~hJh3PR" cx="29.29" cy="15.492" r="9.385" gradientTransform="scale(1 -1) rotate(5.209 555.435 10.836)" gradientUnits="userSpaceOnUse"><stop offset="0" stop-color="#ffe16e"/><stop offset=".629" stop-color="#ffd226"/><stop offset=".999" stop-color="#f0af13"/></radialGradient><path fill="url(#OQcEWSAsS~FxKmm~hJh3PR)" d="M28.852,22.51l-6.446,0.437c-0.634,0.383-0.231,1.091,0.178,1.361 c1.064,0.537,2.207,0.814,3.373,0.708c1.164-0.106,2.237-0.583,3.185-1.303C29.624,23.282,29.447,22.751,28.852,22.51z"/><radialGradient id="OQcEWSAsS~FxKmm~hJh3PS" cx="29.406" cy="15.822" r="9.159" gradientTransform="scale(.9995 -.9995) rotate(4.464 643.72 11.01)" gradientUnits="userSpaceOnUse"><stop offset="0" stop-color="#f7d563"/><stop offset=".629" stop-color="#f7c925"/><stop offset=".999" stop-color="#eaab15"/></radialGradient><path fill="url(#OQcEWSAsS~FxKmm~hJh3PS)" d="M28.802,22.317c0,0-6.205,0.419-6.334,0.464c-0.672,0.374-0.302,1.084,0.1,1.341 c1.064,0.537,2.207,0.814,3.373,0.708c1.164-0.106,2.237-0.583,3.185-1.303C29.62,23.073,29.39,22.555,28.802,22.317z"/><radialGradient id="OQcEWSAsS~FxKmm~hJh3PT" cx="29.519" cy="15.936" r="9.197" gradientTransform="scale(.9991 -.9991) rotate(3.724 766.2 11.2)" gradientUnits="userSpaceOnUse"><stop offset="0" stop-color="#f0ca57"/><stop offset=".629" stop-color="#f0bf24"/><stop offset=".999" stop-color="#e5a616"/></radialGradient><path fill="url(#OQcEWSAsS~FxKmm~hJh3PT)" d="M28.751,22.124c0,0-5.964,0.4-6.222,0.491c-0.711,0.365-0.372,1.077,0.022,1.32 c1.064,0.537,2.207,0.814,3.373,0.708c1.164-0.106,2.237-0.583,3.185-1.303C29.616,22.864,29.333,22.358,28.751,22.124z"/><radialGradient id="OQcEWSAsS~FxKmm~hJh3PU" cx="29.629" cy="15.923" r="9.391" gradientTransform="scale(.999 -.999) rotate(2.978 951.398 11.376)" gradientUnits="userSpaceOnUse"><stop offset="0" stop-color="#e8be4c"/><stop offset=".629" stop-color="#e8b623"/><stop offset=".999" stop-color="#dfa218"/></radialGradient><path fill="url(#OQcEWSAsS~FxKmm~hJh3PU)" d="M28.7,21.931c0,0-5.723,0.382-6.11,0.519c-0.75,0.356-0.443,1.07-0.056,1.3 c1.064,0.537,2.207,0.814,3.373,0.708c1.164-0.106,2.237-0.583,3.185-1.303C29.611,22.654,29.276,22.161,28.7,21.931z"/><radialGradient id="OQcEWSAsS~FxKmm~hJh3PV" cx="29.734" cy="15.915" r="9.583" gradientTransform="scale(.999 -.999) rotate(2.232 1260.423 11.55)" gradientUnits="userSpaceOnUse"><stop offset="0" stop-color="#e0b341"/><stop offset=".629" stop-color="#e0ac22"/><stop offset=".999" stop-color="#da9d1a"/></radialGradient><path fill="url(#OQcEWSAsS~FxKmm~hJh3PV)" d="M28.65,21.738c0,0-5.482,0.364-5.999,0.546c-0.788,0.347-0.513,1.063-0.134,1.28 c1.064,0.537,2.207,0.814,3.373,0.708c1.164-0.106,2.237-0.583,3.185-1.303C29.607,22.445,29.219,21.964,28.65,21.738z"/><radialGradient id="OQcEWSAsS~FxKmm~hJh3PW" cx="29.834" cy="15.911" r="9.772" gradientTransform="matrix(.9988 -.0259 -.0259 -.9988 .935 48.681)" gradientUnits="userSpaceOnUse"><stop offset="0" stop-color="#d8a736"/><stop offset=".629" stop-color="#d8a321"/><stop offset=".999" stop-color="#d4991c"/></radialGradient><path fill="url(#OQcEWSAsS~FxKmm~hJh3PW)" d="M28.599,21.545c0,0-5.241,0.345-5.887,0.573c-0.827,0.337-0.584,1.056-0.212,1.26 c1.064,0.537,2.207,0.814,3.373,0.708c1.164-0.106,2.237-0.583,3.185-1.303C29.602,22.236,29.161,21.768,28.599,21.545z"/><radialGradient id="OQcEWSAsS~FxKmm~hJh3PX" cx="29.93" cy="15.913" r="9.957" gradientTransform="matrix(.9994 -.013 -.013 -.9994 .47 48.34)" gradientUnits="userSpaceOnUse"><stop offset="0" stop-color="#d19c2a"/><stop offset=".629" stop-color="#d19920"/><stop offset=".999" stop-color="#cf941d"/></radialGradient><path fill="url(#OQcEWSAsS~FxKmm~hJh3PX)" d="M28.549,21.351c0,0-5,0.327-5.775,0.6C21.909,22.279,22.12,23,22.483,23.19 c1.064,0.537,2.207,0.814,3.373,0.708c1.164-0.106,2.237-0.583,3.185-1.303C29.598,22.026,29.104,21.571,28.549,21.351z"/><path fill="#c9901f" d="M28.498,21.158c0,0-4.759,0.309-5.663,0.627c-0.904,0.319-0.725,1.042-0.369,1.219 c1.064,0.537,2.207,0.814,3.373,0.708c1.164-0.106,2.237-0.583,3.185-1.303C29.594,21.817,29.047,21.374,28.498,21.158z"/></g><radialGradient id="OQcEWSAsS~FxKmm~hJh3PY" cx="-148.133" cy="-11.974" r="1.466" gradientTransform="matrix(-.8638 .2542 -.5912 -2.1203 -117.46 27.366)" gradientUnits="userSpaceOnUse"><stop offset="0" stop-color="#ffe16e"/><stop offset=".461" stop-color="#ffd226"/><stop offset=".658" stop-color="#fbc921"/><stop offset=".978" stop-color="#f1b114"/><stop offset=".999" stop-color="#f0af13"/></radialGradient><path fill="url(#OQcEWSAsS~FxKmm~hJh3PY)" d="M17.778,13.356c-0.494-0.109-1.645,0.094-1.558,1.498c0.083,1.328,0.469,1.901,0.961,2.429	c0.552,0.593,1.439,0.507,1.319,0.007C18.382,16.791,17.778,13.356,17.778,13.356z"/><radialGradient id="OQcEWSAsS~FxKmm~hJh3PZ" cx="-180.73" cy="-11.006" r="1.466" gradientTransform="matrix(.8993 .045 .0785 -2.1997 195.922 -2.43)" gradientUnits="userSpaceOnUse"><stop offset="0" stop-color="#ffe16e"/><stop offset=".461" stop-color="#ffd226"/><stop offset=".658" stop-color="#fbc921"/><stop offset=".978" stop-color="#f1b114"/><stop offset=".999" stop-color="#f0af13"/></radialGradient><path fill="url(#OQcEWSAsS~FxKmm~hJh3PZ)" d="M31.925,12.013c0.455-0.221,1.622-0.294,1.865,1.092c0.23,1.31-0.011,1.958-0.366,2.587	c-0.398,0.705-1.28,0.83-1.281,0.316C32.142,15.494,31.925,12.013,31.925,12.013z"/><g><radialGradient id="OQcEWSAsS~FxKmm~hJh3Paa" cx="31.878" cy="10.121" r="10.711" gradientTransform="matrix(1 0 0 -.9378 0 47.37)" gradientUnits="userSpaceOnUse"><stop offset=".002" stop-color="#03a0e5"/><stop offset="1" stop-color="#0071db"/></radialGradient><path fill="url(#OQcEWSAsS~FxKmm~hJh3Paa)" d="M25.602,42.251l0.756-2.204c0,0,9.541,1.673,14.866,1.48 c0.032,0.611,0.29,1.335-1.448,2.381s-13.965-1.512-13.965-1.512"/><radialGradient id="OQcEWSAsS~FxKmm~hJh3Pab" cx="31.887" cy="9.901" r="10.594" gradientTransform="matrix(1 0 0 -.9378 0 47.383)" gradientUnits="userSpaceOnUse"><stop offset=".002" stop-color="#049ce4"/><stop offset="1" stop-color="#0171db"/></radialGradient><path fill="url(#OQcEWSAsS~FxKmm~hJh3Pab)" d="M25.621,42.264c-0.053-0.01,0.633-2.031,0.638-2.07c0.007,0.003,0.083,0.017,0.22,0.04 c1.59,0.36,9.059,1.609,13.691,1.47c0.36-0.011,0.703-0.041,1.026-0.077c0.024,0.165,0.067,0.339,0.059,0.529 c-0.04,0.511-0.332,1.075-1.466,1.755c-1.734,1.037-13.619-1.367-13.977-1.515"/><radialGradient id="OQcEWSAsS~FxKmm~hJh3Pac" cx="31.894" cy="9.682" r="10.485" gradientTransform="matrix(1 0 0 -.9378 0 47.397)" gradientUnits="userSpaceOnUse"><stop offset=".002" stop-color="#0498e3"/><stop offset="1" stop-color="#0271db"/></radialGradient><path fill="url(#OQcEWSAsS~FxKmm~hJh3Pac)" d="M25.64,42.278c-0.106-0.019,0.51-1.859,0.519-1.936c0.014,0.005,0.091,0.02,0.226,0.044 c1.836,0.491,9.432,1.767,13.77,1.482c0.359-0.024,0.698-0.08,1.012-0.139c0.038,0.13,0.09,0.267,0.091,0.415 c-0.042,0.546-0.359,1.115-1.458,1.77c-1.73,1.027-13.272-1.222-13.989-1.518"/><radialGradient id="OQcEWSAsS~FxKmm~hJh3Pad" cx="31.897" cy="9.463" r="10.383" gradientTransform="matrix(1 0 0 -.9378 0 47.41)" gradientUnits="userSpaceOnUse"><stop offset=".002" stop-color="#0593e2"/><stop offset="1" stop-color="#0371da"/></radialGradient><path fill="url(#OQcEWSAsS~FxKmm~hJh3Pad)" d="M25.659,42.291c-0.159-0.029,0.387-1.686,0.4-1.801c0.02,0.008,0.098,0.024,0.231,0.047 c2.082,0.623,9.808,1.91,13.849,1.493c0.359-0.037,0.693-0.118,0.999-0.2c0.051,0.095,0.112,0.195,0.124,0.302 c-0.043,0.581-0.387,1.155-1.45,1.786c-1.726,1.018-12.925-1.076-14-1.521"/><radialGradient id="OQcEWSAsS~FxKmm~hJh3Pae" cx="31.895" cy="9.245" r="10.288" gradientTransform="matrix(1 0 0 -.9378 0 47.424)" gradientUnits="userSpaceOnUse"><stop offset=".002" stop-color="#068fe1"/><stop offset="1" stop-color="#0471da"/></radialGradient><path fill="url(#OQcEWSAsS~FxKmm~hJh3Pae)" d="M25.678,42.304c-0.212-0.039,0.264-1.513,0.282-1.667c0.027,0.01,0.106,0.028,0.236,0.05 c2.328,0.755,10.185,2.038,13.928,1.505c0.359-0.051,0.688-0.156,0.986-0.262c0.065,0.061,0.134,0.122,0.156,0.189 c-0.045,0.616-0.414,1.195-1.442,1.801c-1.722,1.009-12.578-0.931-14.012-1.524"/><radialGradient id="OQcEWSAsS~FxKmm~hJh3Paf" cx="31.887" cy="9.027" r="10.202" gradientTransform="matrix(1 0 0 -.9378 0 47.438)" gradientUnits="userSpaceOnUse"><stop offset=".002" stop-color="#078be0"/><stop offset="1" stop-color="#0571da"/></radialGradient><path fill="url(#OQcEWSAsS~FxKmm~hJh3Paf)" d="M25.697,42.317c-0.265-0.048,0.141-1.34,0.163-1.533c0.034,0.013,0.114,0.031,0.242,0.054 c2.575,0.886,10.562,2.151,14.007,1.517c0.36-0.066,0.684-0.194,0.972-0.324c0.079,0.026,0.157,0.05,0.189,0.075 c-0.046,0.651-0.442,1.235-1.434,1.817c-1.718,0.999-12.231-0.785-14.024-1.527"/><radialGradient id="OQcEWSAsS~FxKmm~hJh3Pag" cx="31.872" cy="8.809" r="10.125" gradientTransform="matrix(1 0 0 -.9378 0 47.451)" gradientUnits="userSpaceOnUse"><stop offset=".002" stop-color="#0787de"/><stop offset="1" stop-color="#0672da"/></radialGradient><path fill="url(#OQcEWSAsS~FxKmm~hJh3Pag)" d="M25.716,42.33c-0.318-0.058,0.018-1.167,0.044-1.399c0.041,0.015,0.122,0.035,0.247,0.057 c2.821,1.018,10.938,2.25,14.085,1.528c0.36-0.083,0.679-0.233,0.959-0.385c0.092-0.009,0.179-0.022,0.221-0.038 c-0.048,0.686-0.469,1.275-1.426,1.832c-1.714,0.99-11.885-0.64-14.036-1.53"/><radialGradient id="OQcEWSAsS~FxKmm~hJh3Pah" cx="31.849" cy="8.593" r="10.059" gradientTransform="matrix(1 0 0 -.9378 0 47.465)" gradientUnits="userSpaceOnUse"><stop offset=".002" stop-color="#0883dd"/><stop offset="1" stop-color="#0772da"/></radialGradient><path fill="url(#OQcEWSAsS~FxKmm~hJh3Pah)" d="M25.735,42.343c-0.371-0.067-0.105-0.994-0.074-1.264c0.048,0.018,0.13,0.039,0.252,0.06 c3.067,1.15,11.311,2.334,14.164,1.54c0.36-0.1,0.674-0.271,0.946-0.447c0.106-0.043,0.201-0.094,0.253-0.151 c-0.049,0.721-0.497,1.315-1.418,1.848c-1.71,0.981-11.538-0.494-14.047-1.533"/><radialGradient id="OQcEWSAsS~FxKmm~hJh3Pai" cx="31.818" cy="8.377" r="10.004" gradientTransform="matrix(1 0 0 -.9378 0 47.478)" gradientUnits="userSpaceOnUse"><stop offset=".002" stop-color="#097fdc"/><stop offset="1" stop-color="#0872da"/></radialGradient><path fill="url(#OQcEWSAsS~FxKmm~hJh3Pai)" d="M25.754,42.357c-0.424-0.077-0.228-0.821-0.193-1.13c0.054,0.02,0.138,0.042,0.258,0.064 c3.313,1.281,11.68,2.405,14.243,1.552c0.36-0.12,0.669-0.309,0.932-0.509c0.12-0.078,0.224-0.167,0.286-0.265 c-0.051,0.756-0.524,1.356-1.41,1.863c-1.706,0.972-11.191-0.349-14.059-1.536"/><radialGradient id="OQcEWSAsS~FxKmm~hJh3Paj" cx="31.778" cy="8.162" r="9.961" gradientTransform="matrix(1 0 0 -.9378 0 47.492)" gradientUnits="userSpaceOnUse"><stop offset=".002" stop-color="#0a7adb"/><stop offset="1" stop-color="#0972d9"/></radialGradient><path fill="url(#OQcEWSAsS~FxKmm~hJh3Paj)" d="M25.773,42.37c-0.477-0.087-0.351-0.649-0.312-0.996c0.061,0.023,0.145,0.046,0.263,0.067 c3.559,1.413,12.043,2.464,14.322,1.563c0.358-0.142,0.664-0.347,0.919-0.57c0.133-0.113,0.246-0.239,0.318-0.378 c-0.052,0.791-0.552,1.396-1.402,1.879c-1.703,0.962-10.844-0.204-14.071-1.539"/><radialGradient id="OQcEWSAsS~FxKmm~hJh3Pak" cx="31.731" cy="7.948" r="9.929" gradientTransform="matrix(1 0 0 -.9378 0 47.505)" gradientUnits="userSpaceOnUse"><stop offset=".002" stop-color="#0a76da"/><stop offset="1" stop-color="#0a72d9"/></radialGradient><path fill="url(#OQcEWSAsS~FxKmm~hJh3Pak)" d="M25.792,42.383c-0.53-0.096-0.474-0.476-0.43-0.862c0.068,0.025,0.153,0.049,0.268,0.07 c3.805,1.545,12.397,2.514,14.401,1.575c0.355-0.166,0.659-0.386,0.906-0.632c0.147-0.148,0.269-0.311,0.351-0.491 c-0.054,0.826-0.579,1.436-1.394,1.894c-1.699,0.953-10.497-0.058-14.082-1.542"/><path fill="#0b72d9" d="M40.016,43.329c-1.741,0.97-10.428,0.09-14.48-1.587c-0.113-0.021-0.199-0.046-0.274-0.074 c-0.049,0.424-0.034,0.621,0.549,0.727c3.944,1.632,12.399,2.488,14.094,1.545c0.779-0.434,1.331-1.049,1.386-1.91 C41.062,42.58,40.601,43.004,40.016,43.329z"/></g><radialGradient id="OQcEWSAsS~FxKmm~hJh3Pal" cx="7.398" cy="93.386" r="9.557" fx="7.348" fy="89.293" gradientTransform="matrix(.8852 -.0807 -.1006 -1.1034 27.722 116.293)" gradientUnits="userSpaceOnUse"><stop offset="0" stop-color="#ffe16e"/><stop offset=".629" stop-color="#ffd226"/><stop offset=".75" stop-color="#fdcd23"/><stop offset=".899" stop-color="#f6bd1b"/><stop offset=".999" stop-color="#f0af13"/></radialGradient><path fill="url(#OQcEWSAsS~FxKmm~hJh3Pal)" d="M33.151,12.378c0.175,1.922-0.555,4.614-1.328,6.137c-1.575,3.103-4.285,4.807-5.97,4.961	c-1.642,0.15-4.766-1.045-6.789-3.798c-1.012-1.377-2.2-3.877-2.376-5.8c-0.038-0.422-0.3-3.411-0.312-3.792	C16.303,7.9,17.322,2.431,23.89,1.832c6.57-0.599,8.505,4.469,8.842,6.504C32.807,8.788,33.104,11.86,33.151,12.378z"/><path fill="#8e2809" d="M23.075,19.902c-0.136,0.001-0.131,0.12-0.031,0.23c0.727,0.792,1.35,1.329,2.631,1.152	c1.278-0.177,1.819-0.875,2.193-1.673c0.063-0.135,0.025-0.273-0.099-0.232c-1.043,0.715-1.709-0.117-2.263,0.607	C24.825,19.418,24.221,20.229,23.075,19.902z"/><path fill="#601808" d="M25.555,20.692c0.031-0.017,0.868-0.48,1.609-0.652c-0.969,0.033-1.608,0.267-1.653,0.284	c-0.048-0.007-0.722-0.095-1.675,0.087c0.761,0.004,1.679,0.271,1.713,0.281v0.002c0,0,0.003-0.001,0.003-0.002H25.555	L25.555,20.692z"/><radialGradient id="OQcEWSAsS~FxKmm~hJh3Pam" cx="26.81" cy="54.56" r="5.664" gradientTransform="matrix(.0821 1.0279 1.4684 -.1166 -57.968 -14.036)" gradientUnits="userSpaceOnUse"><stop offset="0" stop-color="#c69c6d"/><stop offset=".232" stop-color="#aa8054"/><stop offset=".474" stop-color="#946a40"/><stop offset=".629" stop-color="#8c6239"/><stop offset=".734" stop-color="#875d34"/><stop offset=".865" stop-color="#774e27"/><stop offset=".999" stop-color="#603813"/></radialGradient><path fill="url(#OQcEWSAsS~FxKmm~hJh3Pam)" d="M16.748,11.331c0.841-0.324,2.925-1.897,4.453-4.262c0.175-0.27,0.524-0.349,0.808-0.201	c1.226,0.641,3.942,1.597,7.075,0.814c0.214-0.053,0.441,0.003,0.598,0.161c1.318,1.333,1.616,1.4,2.662,1.909	c0.795,0.39,1.464,1.319,1.587,1.828C33.95,9.271,33.708,0.157,23.782,1.062c-1.028,0.094-2.072,0.386-2.739,1.071	c-0.48-0.055-1.21,0.074-1.679,0.35c-5.233,3.077-3.542,9.962-3.508,11.021C15.818,11.955,16.418,11.516,16.748,11.331z"/><g><radialGradient id="OQcEWSAsS~FxKmm~hJh3Pan" cx="24.938" cy="38.605" r="8.493" gradientTransform="scale(1 -1) rotate(5.209 555.435 10.836)" gradientUnits="userSpaceOnUse"><stop offset="0" stop-color="#603813" stop-opacity="0"/><stop offset=".999" stop-color="#603813" stop-opacity=".2"/></radialGradient><path fill="url(#OQcEWSAsS~FxKmm~hJh3Pan)" d="M33.029,11.317c-0.122-0.494-2.067-2.277-3.378-3.566c-0.156-0.153-0.383-0.207-0.596-0.155 c-3.126,0.767-5.832-0.153-7.054-0.772c-0.282-0.143-0.631-0.066-0.806,0.197c-1.173,1.761-3.551,5.045-4.587,5.709 c-0.008,0.102,0.043,0.617,0.064,0.854c1.185-0.538,3.711-3.501,4.914-5.307c0.175-0.263,0.355-0.31,0.637-0.166 c1.222,0.619,3.785,1.499,6.911,0.732c0.213-0.052,0.456-0.013,0.596,0.155c1.164,1.398,2.757,2.802,3.389,3.095 C33.091,11.784,33.078,11.505,33.029,11.317z"/><radialGradient id="OQcEWSAsS~FxKmm~hJh3Pao" cx="24.923" cy="38.525" r="8.502" gradientTransform="scale(.9995 -.9995) rotate(4.464 643.72 11.01)" gradientUnits="userSpaceOnUse"><stop offset="0" stop-color="#5c3512" stop-opacity=".143"/><stop offset=".999" stop-color="#5c3512" stop-opacity=".314"/></radialGradient><path fill="url(#OQcEWSAsS~FxKmm~hJh3Pao)" d="M33.034,11.328c-0.122-0.494-2.072-2.288-3.383-3.577c-0.156-0.153-0.383-0.207-0.596-0.155 c-3.126,0.767-5.832-0.153-7.054-0.772c-0.282-0.143-0.631-0.066-0.806,0.197c-1.173,1.761-3.553,5.053-4.589,5.717 c-0.008,0.102,0.041,0.585,0.06,0.802c1.243-0.624,3.642-3.417,4.896-5.358c0.172-0.264,0.355-0.31,0.637-0.166 c1.222,0.619,3.806,1.505,6.931,0.738c0.213-0.052,0.451-0.008,0.591,0.16c1.207,1.445,2.778,2.852,3.394,3.146 C33.088,11.733,33.083,11.516,33.034,11.328z"/><radialGradient id="OQcEWSAsS~FxKmm~hJh3Pap" cx="24.911" cy="38.436" r="8.511" gradientTransform="scale(.9991 -.9991) rotate(3.724 766.2 11.2)" gradientUnits="userSpaceOnUse"><stop offset="0" stop-color="#573111" stop-opacity=".286"/><stop offset=".999" stop-color="#573111" stop-opacity=".429"/></radialGradient><path fill="url(#OQcEWSAsS~FxKmm~hJh3Pap)" d="M33.039,11.339c-0.122-0.494-2.077-2.298-3.388-3.588c-0.156-0.153-0.383-0.207-0.596-0.155 c-3.126,0.767-5.832-0.153-7.054-0.772c-0.282-0.143-0.631-0.066-0.806,0.197c-1.173,1.761-3.555,5.061-4.59,5.725 c-0.008,0.102,0.04,0.553,0.055,0.749c1.301-0.71,3.567-3.337,4.879-5.409c0.169-0.267,0.355-0.31,0.637-0.166 c1.222,0.619,3.826,1.511,6.952,0.744c0.213-0.052,0.445-0.003,0.585,0.165c1.25,1.491,2.8,2.902,3.4,3.198 C33.085,11.681,33.088,11.526,33.039,11.339z"/><radialGradient id="OQcEWSAsS~FxKmm~hJh3Paq" cx="24.896" cy="38.348" r="8.519" gradientTransform="scale(.999 -.999) rotate(2.978 951.398 11.376)" gradientUnits="userSpaceOnUse"><stop offset="0" stop-color="#532e10" stop-opacity=".429"/><stop offset=".999" stop-color="#532e10" stop-opacity=".543"/></radialGradient><path fill="url(#OQcEWSAsS~FxKmm~hJh3Paq)" d="M33.043,11.35c-0.122-0.494-2.082-2.309-3.393-3.598c-0.156-0.153-0.383-0.207-0.596-0.155 C25.928,8.364,23.222,7.444,22,6.825c-0.282-0.143-0.631-0.066-0.806,0.197c-1.173,1.761-3.557,5.069-4.592,5.733 c-0.008,0.102,0.038,0.521,0.051,0.696c1.359-0.796,3.497-3.254,4.862-5.46c0.166-0.268,0.355-0.31,0.637-0.166 c1.222,0.619,3.846,1.516,6.972,0.749c0.213-0.052,0.44,0.002,0.58,0.17c1.292,1.538,2.821,2.952,3.405,3.249 C33.082,11.63,33.093,11.537,33.043,11.35z"/><radialGradient id="OQcEWSAsS~FxKmm~hJh3Par" cx="24.883" cy="38.261" r="8.522" gradientTransform="scale(.999 -.999) rotate(2.232 1260.423 11.55)" gradientUnits="userSpaceOnUse"><stop offset="0" stop-color="#4f2b0e" stop-opacity=".571"/><stop offset=".999" stop-color="#4f2b0e" stop-opacity=".657"/></radialGradient><path fill="url(#OQcEWSAsS~FxKmm~hJh3Par)" d="M33.048,11.36c-0.122-0.494-2.087-2.32-3.398-3.609c-0.156-0.153-0.383-0.207-0.596-0.155 C25.928,8.363,23.222,7.443,22,6.824c-0.282-0.143-0.631-0.066-0.806,0.197c-1.173,1.761-3.558,5.077-4.594,5.741 c-0.008,0.102,0.036,0.489,0.046,0.643c1.417-0.882,3.428-3.17,4.844-5.511c0.163-0.27,0.355-0.31,0.637-0.166 c1.222,0.619,3.867,1.522,6.993,0.755c0.213-0.052,0.434,0.007,0.575,0.174c1.335,1.585,2.842,3.003,3.411,3.301 C33.079,11.578,33.097,11.548,33.048,11.36z"/><radialGradient id="OQcEWSAsS~FxKmm~hJh3Pas" cx="24.871" cy="38.172" r="8.522" gradientTransform="matrix(.9988 -.0259 -.0259 -.9988 .935 48.681)" gradientUnits="userSpaceOnUse"><stop offset="0" stop-color="#4b280d" stop-opacity=".714"/><stop offset=".999" stop-color="#4b280d" stop-opacity=".771"/></radialGradient><path fill="url(#OQcEWSAsS~FxKmm~hJh3Pas)" d="M33.053,11.371c-0.122-0.494-2.092-2.331-3.403-3.62c-0.156-0.153-0.383-0.207-0.596-0.155 C25.928,8.363,23.222,7.443,22,6.824c-0.282-0.143-0.631-0.066-0.806,0.197c-1.173,1.761-3.56,5.085-4.596,5.749 c-0.008,0.102,0.035,0.457,0.042,0.59c1.475-0.968,3.361-3.085,4.827-5.562c0.161-0.271,0.355-0.31,0.637-0.166 c1.222,0.619,3.887,1.528,7.013,0.761c0.213-0.052,0.429,0.012,0.57,0.179c1.378,1.631,2.864,3.053,3.417,3.353 C33.076,11.527,33.102,11.559,33.053,11.371z"/><radialGradient id="OQcEWSAsS~FxKmm~hJh3Pat" cx="24.856" cy="38.079" r="8.523" gradientTransform="matrix(.9994 -.013 -.013 -.9994 .47 48.34)" gradientUnits="userSpaceOnUse"><stop offset="0" stop-color="#46240c" stop-opacity=".857"/><stop offset=".999" stop-color="#46240c" stop-opacity=".886"/></radialGradient><path fill="url(#OQcEWSAsS~FxKmm~hJh3Pat)" d="M33.058,11.382c-0.122-0.494-2.097-2.341-3.408-3.631c-0.156-0.153-0.383-0.207-0.596-0.155 C25.928,8.363,23.222,7.443,22,6.824c-0.282-0.143-0.631-0.066-0.806,0.197c-1.173,1.761-3.562,5.093-4.598,5.757 c-0.008,0.102,0.033,0.425,0.037,0.538c1.534-1.054,3.298-2.997,4.809-5.613c0.159-0.273,0.355-0.31,0.637-0.166 c1.222,0.619,3.907,1.533,7.033,0.766c0.213-0.052,0.423,0.017,0.564,0.184c1.42,1.678,2.885,3.103,3.422,3.404 C33.073,11.475,33.107,11.569,33.058,11.382z"/><path fill="#42210b" d="M33.063,11.393c-0.122-0.494-2.102-2.352-3.413-3.641c-0.156-0.153-0.383-0.207-0.596-0.155 C25.928,8.364,23.222,7.444,22,6.825c-0.282-0.143-0.631-0.066-0.806,0.197c-1.173,1.761-3.564,5.1-4.6,5.764 c-0.008,0.102,0.032,0.393,0.033,0.485c1.592-1.14,3.229-2.914,4.792-5.664c0.156-0.274,0.355-0.31,0.637-0.166 c1.222,0.619,3.928,1.539,7.054,0.772c0.213-0.052,0.418,0.022,0.559,0.189c1.463,1.724,2.907,3.153,3.428,3.456 C33.07,11.424,33.112,11.58,33.063,11.393z"/></g><g><radialGradient id="OQcEWSAsS~FxKmm~hJh3Pau" cx="24.081" cy="39.092" r="7.521" gradientTransform="matrix(.991 -.0904 -.0908 -.9959 3.969 50.326)" gradientUnits="userSpaceOnUse"><stop offset="0" stop-color="#c69c6d"/><stop offset=".232" stop-color="#aa8054"/><stop offset=".474" stop-color="#946a40"/><stop offset=".629" stop-color="#8c6239"/><stop offset=".734" stop-color="#875d34"/><stop offset=".865" stop-color="#774e27"/><stop offset=".999" stop-color="#603813"/></radialGradient><path fill="url(#OQcEWSAsS~FxKmm~hJh3Pau)" d="M32.798,9.538c-0.651-0.851-1.356-2.098-2.67-3.387c-0.156-0.153-0.384-0.207-0.597-0.155 c-3.058,0.749-5.377,0.221-6.646-0.395c-0.355-0.249-0.999-0.53-1.009-2.026c-0.006-0.879-1.468-0.806-1.77,0.225 c0,0-0.476,1.031-0.221,2.265c0.092,0.223-0.359,0.759-0.387,0.8c-1.534,2.298-2.15,3.314-3.134,4.378 c-0.681,0.752-0.473,3.231-0.473,3.231c-0.057-1.384,0.335-1.589,0.865-2.007c0.741-0.566,2.91-2.939,4.445-5.237 c0.175-0.263,0.576-0.338,0.859-0.195c1.224,0.619,3.879,1.561,7.012,0.794c0.214-0.052,0.557,0.026,0.713,0.179 c1.314,1.289,1.762,2.128,2.649,2.866c0.698,0.581,1.459,1.153,1.581,1.647C34.005,12.14,33.386,10.307,32.798,9.538z"/><radialGradient id="OQcEWSAsS~FxKmm~hJh3Pav" cx="24.163" cy="38.923" r="7.518" gradientTransform="matrix(.9923 -.0774 -.0778 -.9965 3.4 49.994)" gradientUnits="userSpaceOnUse"><stop offset="0" stop-color="#b78e60"/><stop offset=".188" stop-color="#a47a4f"/><stop offset=".457" stop-color="#8e643b"/><stop offset=".629" stop-color="#865c34"/><stop offset=".744" stop-color="#81572f"/><stop offset=".886" stop-color="#714822"/><stop offset=".999" stop-color="#603813"/></radialGradient><path fill="url(#OQcEWSAsS~FxKmm~hJh3Pav)" d="M32.758,9.718c-0.669-0.868-1.396-2.048-2.683-3.375c-0.152-0.157-0.384-0.207-0.597-0.155 c-3.058,0.749-5.439,0.177-6.709-0.439c-0.355-0.249-0.99-0.555-1-2.12c-0.005-0.823-1.299-0.723-1.564,0.192 c0,0-0.436,1.063-0.151,2.287c0.092,0.223-0.304,0.695-0.331,0.736c-1.58,2.44-2.357,3.562-3.301,4.574 c-0.681,0.742-0.535,2.967-0.532,3.056c-0.032-1.282,0.375-1.521,0.877-1.926c1.046-0.871,2.902-3.012,4.436-5.31 c0.175-0.263,0.569-0.338,0.852-0.195c1.224,0.619,3.887,1.558,7.02,0.79c0.214-0.052,0.544,0.02,0.697,0.176 c1.276,1.302,1.724,2.089,2.681,2.925c0.68,0.594,1.446,1.146,1.57,1.646C33.99,12.111,33.334,10.466,32.758,9.718z"/><radialGradient id="OQcEWSAsS~FxKmm~hJh3Paw" cx="24.246" cy="38.755" r="7.513" gradientTransform="matrix(.9936 -.0645 -.0649 -.997 2.837 49.658)" gradientUnits="userSpaceOnUse"><stop offset="0" stop-color="#a97f53"/><stop offset=".129" stop-color="#9d7449"/><stop offset=".434" stop-color="#875e35"/><stop offset=".629" stop-color="#7f562e"/><stop offset=".759" stop-color="#7a5129"/><stop offset=".92" stop-color="#6a421c"/><stop offset=".999" stop-color="#603813"/></radialGradient><path fill="url(#OQcEWSAsS~FxKmm~hJh3Paw)" d="M32.717,9.897c-0.688-0.885-1.437-1.998-2.697-3.363c-0.148-0.16-0.384-0.207-0.597-0.155 c-3.058,0.749-5.502,0.133-6.771-0.483c-0.355-0.249-0.981-0.58-0.992-2.215c-0.004-0.766-1.13-0.64-1.359,0.159 c0,0-0.396,1.095-0.082,2.308c0.092,0.223-0.248,0.631-0.274,0.673c-1.633,2.577-2.564,3.81-3.468,4.771 c-0.681,0.731-0.597,2.703-0.59,2.882c-0.007-1.18,0.416-1.453,0.889-1.844c1.35-1.177,2.894-3.085,4.428-5.383 c0.175-0.263,0.561-0.339,0.844-0.196c1.224,0.619,3.895,1.555,7.029,0.787c0.214-0.052,0.531,0.013,0.68,0.172 c1.239,1.315,1.688,2.049,2.713,2.985c0.663,0.606,1.433,1.139,1.559,1.645C33.975,12.081,33.281,10.626,32.717,9.897z"/><radialGradient id="OQcEWSAsS~FxKmm~hJh3Pax" cx="24.332" cy="38.587" r="7.506" gradientTransform="matrix(.9949 -.0516 -.0519 -.9976 2.269 49.326)" gradientUnits="userSpaceOnUse"><stop offset="0" stop-color="#9a7146"/><stop offset=".035" stop-color="#976f44"/><stop offset=".397" stop-color="#815830"/><stop offset=".629" stop-color="#795029"/><stop offset=".776" stop-color="#744b24"/><stop offset=".96" stop-color="#643c17"/><stop offset=".999" stop-color="#603813"/></radialGradient><path fill="url(#OQcEWSAsS~FxKmm~hJh3Pax)" d="M32.677,10.077c-0.707-0.903-1.478-1.949-2.711-3.351c-0.144-0.163-0.384-0.207-0.597-0.155 c-3.058,0.749-5.564,0.089-6.834-0.527c-0.355-0.249-0.972-0.605-0.984-2.309c-0.003-0.71-0.96-0.557-1.153,0.127 c0,0-0.356,1.127-0.012,2.33c0.092,0.223-0.193,0.568-0.218,0.609c-1.68,2.718-2.77,4.058-3.635,4.968 c-0.681,0.721-0.659,2.44-0.649,2.707c0.018-1.078,0.456-1.385,0.901-1.763c1.654-1.483,2.885-3.158,4.42-5.456 c0.175-0.263,0.554-0.339,0.837-0.196c1.224,0.619,3.904,1.551,7.037,0.784c0.214-0.052,0.518,0.007,0.664,0.169 c1.201,1.327,1.653,2.006,2.746,3.044c0.648,0.616,1.42,1.131,1.548,1.643C33.96,12.052,33.229,10.785,32.677,10.077z"/><radialGradient id="OQcEWSAsS~FxKmm~hJh3Pay" cx="24.419" cy="38.42" r="7.497" gradientTransform="matrix(.9961 -.0387 -.0389 -.9982 1.7 48.995)" gradientUnits="userSpaceOnUse"><stop offset="0" stop-color="#8c633a"/><stop offset=".346" stop-color="#7b522b"/><stop offset=".629" stop-color="#734a23"/><stop offset=".803" stop-color="#6e451e"/><stop offset=".999" stop-color="#603813"/></radialGradient><path fill="url(#OQcEWSAsS~FxKmm~hJh3Pay)" d="M32.636,10.256c-0.725-0.92-1.518-1.899-2.725-3.339c-0.14-0.167-0.384-0.207-0.597-0.155 c-3.058,0.749-5.627,0.045-6.896-0.571c-0.355-0.249-0.963-0.63-0.975-2.404c-0.003-0.653-0.791-0.474-0.948,0.094 c0,0-0.316,1.16,0.058,2.352c0.092,0.223-0.137,0.504-0.162,0.546c-1.726,2.86-2.977,4.305-3.802,5.164 c-0.681,0.71-0.722,2.176-0.707,2.533c0.043-0.976,0.497-1.317,0.913-1.682c1.959-1.789,2.877-3.231,4.411-5.529 c0.175-0.263,0.547-0.339,0.83-0.196c1.224,0.619,3.912,1.548,7.046,0.78c0.214-0.052,0.504,0,0.647,0.165 c1.164,1.34,1.62,1.962,2.778,3.104c0.633,0.624,1.406,1.124,1.536,1.642C33.945,12.023,33.176,10.944,32.636,10.256z"/><radialGradient id="OQcEWSAsS~FxKmm~hJh3Paz" cx="24.508" cy="38.254" r="7.486" gradientTransform="matrix(.9974 -.0258 -.0259 -.9988 1.132 48.663)" gradientUnits="userSpaceOnUse"><stop offset="0" stop-color="#7d552d"/><stop offset=".257" stop-color="#754c25"/><stop offset=".629" stop-color="#6d441e"/><stop offset=".847" stop-color="#683f19"/><stop offset=".999" stop-color="#603813"/></radialGradient><path fill="url(#OQcEWSAsS~FxKmm~hJh3Paz)" d="M32.596,10.436c-0.744-0.937-1.559-1.85-2.738-3.327c-0.136-0.17-0.384-0.207-0.597-0.155 c-3.058,0.749-5.69,0.001-6.959-0.615c-0.355-0.249-0.957-0.655-0.967-2.499c-0.003-0.597-0.622-0.391-0.742,0.061 c0,0-0.275,1.192,0.128,2.373c0.092,0.223-0.081,0.44-0.106,0.482c-1.77,3.002-3.184,4.553-3.969,5.361 c-0.681,0.7-0.784,1.912-0.766,2.358c0.068-0.874,0.538-1.249,0.926-1.6c2.263-2.095,2.869-3.304,4.403-5.602 c0.175-0.263,0.54-0.34,0.823-0.197c1.224,0.619,3.92,1.545,7.054,0.777c0.214-0.052,0.491-0.006,0.63,0.162 c1.126,1.353,1.589,1.916,2.81,3.163c0.62,0.632,1.393,1.116,1.525,1.641C33.931,11.993,33.124,11.104,32.596,10.436z"/><radialGradient id="OQcEWSAsS~FxKmm~hJh3PaA" cx="24.598" cy="38.089" r="7.472" gradientTransform="matrix(.9987 -.0129 -.013 -.9994 .568 48.332)" gradientUnits="userSpaceOnUse"><stop offset="0" stop-color="#6f4620"/><stop offset=".042" stop-color="#6e451f"/><stop offset=".629" stop-color="#663e18"/><stop offset=".975" stop-color="#613914"/><stop offset=".999" stop-color="#603813"/></radialGradient><path fill="url(#OQcEWSAsS~FxKmm~hJh3PaA)" d="M32.555,10.616c-0.763-0.954-1.6-1.8-2.752-3.316c-0.132-0.174-0.384-0.207-0.597-0.155 c-3.058,0.749-5.752-0.043-7.021-0.659c-0.355-0.249-0.95-0.68-0.959-2.593c-0.003-0.54-0.453-0.308-0.537,0.028 c0,0-0.235,1.224,0.197,2.395c0.092,0.223-0.026,0.376-0.05,0.419c-1.809,3.148-3.391,4.801-4.135,5.558 c-0.681,0.689-0.846,1.649-0.824,2.183c0.093-0.772,0.578-1.181,0.938-1.519c2.567-2.401,2.86-3.377,4.395-5.675 c0.175-0.263,0.532-0.34,0.815-0.197c1.224,0.619,3.929,1.541,7.062,0.774C29.3,7.806,29.564,7.846,29.7,8.017 c1.088,1.366,1.559,1.869,2.843,3.222c0.607,0.64,1.38,1.109,1.514,1.64C33.916,11.964,33.072,11.263,32.555,10.616z"/><path fill="#603813" d="M32.515,10.795c-0.781-0.972-1.64-1.75-2.766-3.304c-0.128-0.177-0.384-0.207-0.597-0.155 c-3.058,0.749-5.815-0.087-7.084-0.703c-0.355-0.249-0.935-0.705-0.951-2.688c0-0.484-0.284-0.225-0.331-0.005 c0,0-0.195,1.256,0.267,2.416c0.092,0.223,0.03,0.313,0.006,0.355c-1.855,3.29-3.598,5.049-4.302,5.754 c-0.682,0.679-0.908,1.385-0.883,2.009c0.118-0.67,0.619-1.113,0.95-1.437c2.872-2.707,2.852-3.45,4.386-5.748 c0.175-0.263,0.525-0.34,0.808-0.197c1.224,0.619,3.937,1.538,7.071,0.77c0.214-0.052,0.465-0.019,0.597,0.155 c1.051,1.378,1.532,1.82,2.875,3.282c0.594,0.647,1.367,1.101,1.503,1.638C33.901,11.935,33.019,11.423,32.515,10.795z"/></g><radialGradient id="OQcEWSAsS~FxKmm~hJh3PaB" cx="11.171" cy="116.037" r="1.136" gradientTransform="matrix(1.4798 -.0988 -.0473 -.7087 14.245 100.607)" gradientUnits="userSpaceOnUse"><stop offset=".479" stop-color="#fed53f"/><stop offset=".926" stop-color="#fed53f" stop-opacity=".141"/><stop offset="1" stop-color="#fed53f" stop-opacity="0"/></radialGradient><path fill="url(#OQcEWSAsS~FxKmm~hJh3PaB)" d="M27.071,17.149c0.032,0.487-0.747,0.935-1.741,1.001s-1.826-0.274-1.858-0.761	s0.747-0.935,1.741-1.001C26.207,16.321,27.039,16.662,27.071,17.149z"/><radialGradient id="OQcEWSAsS~FxKmm~hJh3PaC" cx="24.936" cy="-306.667" r=".91" gradientTransform="matrix(.9959 -.0908 -.0599 -.6569 -17.904 -181.943)" gradientUnits="userSpaceOnUse"><stop offset=".004" stop-color="#fff4c9"/><stop offset="1" stop-color="#fff4c9" stop-opacity="0"/></radialGradient><path fill="url(#OQcEWSAsS~FxKmm~hJh3PaC)" d="M26.2,17.153c0.03,0.33-0.351,0.635-0.851,0.68c-0.5,0.046-0.93-0.185-0.96-0.515	c-0.03-0.33,0.351-0.635,0.851-0.68C25.74,16.592,26.17,16.823,26.2,17.153z"/><path fill="#805b2a" d="M19.111,15.437c-0.129-0.038-0.32,0.04-0.117,0.25c1.122,1.16,3.342,0.787,3.972-0.573	c0.046-0.127-0.044-0.296-0.134-0.193C21.982,15.481,20.5,15.848,19.111,15.437z"/><path fill="#805b2a" d="M26.749,14.514c-0.132-0.028-0.316,0.065-0.097,0.258c1.209,1.07,3.393,0.525,3.916-0.88	c0.036-0.13-0.067-0.291-0.149-0.182C29.615,14.335,28.166,14.815,26.749,14.514z"/><g><path fill="#805b2a" d="M29.75,12.45c-0.891-0.122-1.796,0.05-2.541,0.442c-0.295,0.155-0.661,0.042-0.816-0.254 s-0.042-0.661,0.254-0.816c0.038-0.02,0.078-0.036,0.118-0.047l0.019-0.005c1.048-0.288,2.146-0.242,3.115,0.109 c0.154,0.056,0.233,0.226,0.178,0.38c-0.049,0.134-0.183,0.211-0.319,0.193L29.75,12.45z"/></g><g><path fill="#805b2a" d="M19.199,12.854c0.889-0.521,1.961-0.764,3.044-0.671l0.016,0.001 c0.333,0.029,0.579,0.321,0.55,0.654c-0.029,0.333-0.321,0.579-0.654,0.55c-0.043-0.004-0.088-0.013-0.128-0.025 c-0.804-0.251-1.724-0.256-2.579,0.025l-0.007,0.002c-0.156,0.051-0.323-0.033-0.374-0.189 C19.022,13.068,19.081,12.924,19.199,12.854z"/></g><g><radialGradient id="OQcEWSAsS~FxKmm~hJh3PaD" cx="19.07" cy="25.829" r="6.583" gradientTransform="matrix(-1.1357 -.1725 .0862 -.6372 41.704 57.36)" gradientUnits="userSpaceOnUse"><stop offset="0" stop-color="#ffe16e"/><stop offset=".629" stop-color="#ffd226"/><stop offset=".75" stop-color="#fdcd23"/><stop offset=".899" stop-color="#f6bd1b"/><stop offset=".999" stop-color="#f0af13"/></radialGradient><path fill="url(#OQcEWSAsS~FxKmm~hJh3PaD)" d="M27.11,37.734c0,0-0.831-0.729-2.168-1.329c-1.337-0.599-2.05-1.127-2.213-1.367 c-0.501-0.736-1.308,0.067-0.901,0.875c0.407,0.808,0.938,0.944,1.36,1.347c-0.744,0.058-1.681,0.255-3.733,0.161 c-1.18-0.081-1.722-0.142-2.56-0.235c-0.901-0.076-1.059,0.85-0.488,0.977c-0.551,0.01-0.896,1.005,0.351,1.184 c-0.399,0.235-0.341,0.98,0.563,1.141c-0.043,0.271,0.282,0.761,0.88,0.914c0.94,0.345,2.261,0.665,3.154,0.816 c1.706,0.287,2.73,0.362,4.749,0.094C27.612,41.952,28.701,38.972,27.11,37.734z"/><radialGradient id="OQcEWSAsS~FxKmm~hJh3PaE" cx="32.06" cy="7.881" r="8.187" gradientTransform="matrix(-.9885 -.1514 .0698 -.4558 53.74 46.161)" gradientUnits="userSpaceOnUse"><stop offset="0" stop-color="#ffe16e"/><stop offset=".629" stop-color="#ffd226"/><stop offset=".75" stop-color="#fdcd23"/><stop offset=".899" stop-color="#f6bd1b"/><stop offset=".999" stop-color="#f0af13"/></radialGradient><path fill="url(#OQcEWSAsS~FxKmm~hJh3PaE)" d="M15.997,38.411c0,0,0.087-0.212,0.401-0.255c0.301,0.055,2.302,0.431,2.558,0.473 c0.256,0.043,2.165,0.172,2.414,0.163c0.25-0.009,0.301,0.388,0.301,0.388s-0.002,0.262-0.165,0.255 c-0.163-0.006-2.237-0.179-2.788-0.304c-0.55-0.125-2.219-0.484-2.219-0.484s-0.498-0.139-0.594,0.042 C15.902,38.575,15.997,38.411,15.997,38.411z"/><radialGradient id="OQcEWSAsS~FxKmm~hJh3PaF" cx="34.16" cy="7.481" r="10.728" gradientTransform="matrix(-.7142 -.0778 .0838 -.4521 46.288 43.556)" gradientUnits="userSpaceOnUse"><stop offset="0" stop-color="#fad862"/><stop offset=".629" stop-color="#facb24"/><stop offset=".761" stop-color="#f8c621"/><stop offset=".925" stop-color="#f1b619"/><stop offset=".999" stop-color="#edad14"/></radialGradient><path fill="url(#OQcEWSAsS~FxKmm~hJh3PaF)" d="M16.023,38.385c0.006-0.007,0.057-0.093,0.178-0.162c0.05-0.029,0.125-0.053,0.225-0.061 c0.323,0.059,2.205,0.411,2.523,0.464c0.027,0.004,0.065,0.009,0.113,0.015c0.501,0.058,2.006,0.156,2.269,0.151 c0.137-0.003,0.218,0.089,0.255,0.177c0.041,0.081,0.059,0.162,0.065,0.167c0.012,0.009,0.018,0.247-0.124,0.253 c-0.04,0.02-0.216-0.027-0.436-0.047c-0.603-0.052-1.939-0.168-2.336-0.256c-0.491-0.111-1.989-0.432-2.063-0.447 c-0.015-0.003-0.457-0.125-0.555,0.027C16.044,38.547,16.037,38.387,16.023,38.385z"/><radialGradient id="OQcEWSAsS~FxKmm~hJh3PaG" cx="39.049" cy="6.696" r="17.005" gradientTransform="matrix(-.4399 -.0043 .0977 -.4484 39.076 40.151)" gradientUnits="userSpaceOnUse"><stop offset="0" stop-color="#f4d056"/><stop offset=".629" stop-color="#f4c522"/><stop offset=".776" stop-color="#f2c01f"/><stop offset=".96" stop-color="#ecb017"/><stop offset=".999" stop-color="#eaac15"/></radialGradient><path fill="url(#OQcEWSAsS~FxKmm~hJh3PaG)" d="M16.048,38.359c0.012-0.014,0.073-0.085,0.185-0.148c0.041-0.025,0.116-0.042,0.22-0.045 c0.346,0.063,2.107,0.392,2.487,0.455c0.03,0.005,0.069,0.01,0.115,0.016c0.519,0.064,1.935,0.155,2.234,0.152 c0.144-0.001,0.23,0.075,0.26,0.149c0.043,0.069,0.067,0.141,0.08,0.151c0.023,0.018,0.038,0.231-0.083,0.25 c-0.037,0.041-0.221-0.041-0.426-0.06c-0.523-0.049-1.944-0.157-2.33-0.242c-0.432-0.095-1.759-0.38-1.907-0.411 c-0.03-0.006-0.416-0.112-0.515,0.012C16.185,38.519,16.077,38.364,16.048,38.359z"/><radialGradient id="OQcEWSAsS~FxKmm~hJh3PaH" cx="63.463" cy="3.751" r="49.741" gradientTransform="matrix(-.1656 .0692 .1117 -.4446 33.48 30.861)" gradientUnits="userSpaceOnUse"><stop offset="0" stop-color="#efc74a"/><stop offset=".629" stop-color="#efbe20"/><stop offset=".797" stop-color="#edb91d"/><stop offset=".999" stop-color="#e7aa16"/></radialGradient><path fill="url(#OQcEWSAsS~FxKmm~hJh3PaH)" d="M16.074,38.333c0.018-0.021,0.088-0.077,0.192-0.133c0.033-0.02,0.107-0.031,0.215-0.029 c0.368,0.067,2.009,0.372,2.452,0.446c0.032,0.005,0.072,0.011,0.117,0.017c0.537,0.071,1.864,0.156,2.198,0.154 c0.15-0.001,0.241,0.062,0.265,0.121c0.045,0.057,0.075,0.12,0.094,0.135c0.035,0.027,0.057,0.216-0.042,0.248 c-0.035,0.062-0.227-0.054-0.416-0.072c-0.444-0.044-1.95-0.148-2.324-0.228c-0.373-0.08-1.529-0.329-1.751-0.375 c-0.045-0.009-0.375-0.098-0.475-0.004C16.327,38.49,16.117,38.341,16.074,38.333z"/><radialGradient id="OQcEWSAsS~FxKmm~hJh3PaI" cx="-47.804" cy="32.239" r="48.984" gradientTransform="matrix(.1088 .1427 .1256 -.4409 18.38 54.287)" gradientUnits="userSpaceOnUse"><stop offset="0" stop-color="#eabe3d"/><stop offset=".629" stop-color="#eab81f"/><stop offset=".829" stop-color="#e7b31c"/><stop offset=".999" stop-color="#e3a916"/></radialGradient><path fill="url(#OQcEWSAsS~FxKmm~hJh3PaI)" d="M16.1,38.307c0.024-0.028,0.104-0.069,0.199-0.118c0.025-0.015,0.098-0.02,0.209-0.013 c0.39,0.071,1.911,0.353,2.416,0.437c0.035,0.006,0.076,0.012,0.12,0.018c0.555,0.078,1.793,0.151,2.163,0.156 c0.157,0.002,0.252,0.049,0.27,0.093c0.047,0.045,0.083,0.099,0.109,0.119c0.046,0.036,0.077,0.201-0.001,0.245 c-0.033,0.083-0.233-0.067-0.406-0.085c-0.364-0.038-1.956-0.139-2.318-0.215c-0.314-0.066-1.299-0.277-1.595-0.338 c-0.059-0.012-0.334-0.084-0.435-0.019C16.469,38.462,16.158,38.318,16.1,38.307z"/><radialGradient id="OQcEWSAsS~FxKmm~hJh3PaJ" cx="1.939" cy="15.225" r="16.185" gradientTransform="matrix(.3831 .2163 .1396 -.4371 13.476 42.91)" gradientUnits="userSpaceOnUse"><stop offset="0" stop-color="#e5b531"/><stop offset=".629" stop-color="#e5b11d"/><stop offset=".884" stop-color="#e2ac1a"/><stop offset=".999" stop-color="#e0a717"/></radialGradient><path fill="url(#OQcEWSAsS~FxKmm~hJh3PaJ)" d="M16.126,38.281c0.029-0.035,0.119-0.061,0.207-0.103c0.017-0.01,0.089-0.009,0.204,0.003 c0.412,0.075,1.814,0.333,2.381,0.428c0.038,0.006,0.079,0.013,0.122,0.019c0.573,0.085,1.721,0.149,2.128,0.157 c0.163,0.003,0.263,0.035,0.275,0.065c0.049,0.033,0.091,0.078,0.123,0.103c0.058,0.045,0.097,0.186,0.04,0.243 c-0.031,0.104-0.238-0.08-0.396-0.098c-0.285-0.033-1.961-0.13-2.312-0.201c-0.255-0.052-1.069-0.225-1.439-0.302 c-0.074-0.015-0.292-0.071-0.395-0.035C16.61,38.434,16.198,38.295,16.126,38.281z"/><radialGradient id="OQcEWSAsS~FxKmm~hJh3PaK" cx="11.891" cy="11.854" r="9.643" gradientTransform="matrix(.6574 .2898 .1536 -.4334 6.561 39.013)" gradientUnits="userSpaceOnUse"><stop offset="0" stop-color="#dfad25"/><stop offset=".629" stop-color="#dfab1b"/><stop offset=".999" stop-color="#dda618"/></radialGradient><path fill="url(#OQcEWSAsS~FxKmm~hJh3PaK)" d="M16.151,38.255c0.035-0.042,0.135-0.053,0.214-0.088c0.008-0.005,0.08,0.002,0.198,0.019 c0.435,0.079,1.716,0.314,2.345,0.419c0.041,0.007,0.083,0.014,0.124,0.02c0.591,0.093,1.65,0.146,2.093,0.159 c0.17,0.005,0.274,0.022,0.281,0.036c0.051,0.021,0.099,0.056,0.138,0.087c0.07,0.054,0.108,0.167,0.081,0.24 c-0.044,0.121-0.244-0.092-0.386-0.11c-0.205-0.026-1.967-0.121-2.307-0.187c-0.196-0.038-0.839-0.174-1.283-0.266 c-0.089-0.018-0.251-0.057-0.355-0.05C16.752,38.406,16.238,38.272,16.151,38.255z"/><path fill="#daa419" d="M16.177,38.229c0.101,0.02,0.717,0.149,1.348,0.28c0.631,0.131,1.279,0.265,1.443,0.295 c0.328,0.06,2.175,0.154,2.301,0.174c0.126,0.019,0.35,0.27,0.376,0.123c0.023-0.128-0.126-0.282-0.274-0.308 c0,0-1.51-0.032-2.343-0.169c-0.833-0.137-2.63-0.467-2.63-0.467C16.328,38.184,16.218,38.18,16.177,38.229z"/><g><radialGradient id="OQcEWSAsS~FxKmm~hJh3PaL" cx="32.153" cy="7.957" r="7.678" gradientTransform="matrix(-.9887 -.1501 .0892 -.5874 53.636 47.106)" gradientUnits="userSpaceOnUse"><stop offset="0" stop-color="#ffe16e"/><stop offset=".629" stop-color="#ffd226"/><stop offset=".75" stop-color="#fdcd23"/><stop offset=".899" stop-color="#f6bd1b"/><stop offset=".999" stop-color="#f0af13"/></radialGradient><path fill="url(#OQcEWSAsS~FxKmm~hJh3PaL)" d="M21.474,40.022l-2.495-0.249l-2.207-0.398c0,0-0.267,0.083-0.249,0.4 c0.13-0.074,0.252-0.056,0.355-0.023s1.708,0.382,2.089,0.435c0.381,0.054,2.545,0.33,2.593,0.323s0.195-0.08,0.177-0.231 S21.653,40.047,21.474,40.022z"/><radialGradient id="OQcEWSAsS~FxKmm~hJh3PaM" cx="34.396" cy="7.906" r="9.891" gradientTransform="matrix(-.7144 -.0766 .1074 -.5825 46.285 44.277)" gradientUnits="userSpaceOnUse"><stop offset="0" stop-color="#fad862"/><stop offset=".629" stop-color="#facb24"/><stop offset=".761" stop-color="#f8c621"/><stop offset=".925" stop-color="#f1b619"/><stop offset=".999" stop-color="#edad14"/></radialGradient><path fill="url(#OQcEWSAsS~FxKmm~hJh3PaM)" d="M16.769,39.37c-0.012,0.012-0.093,0.037-0.156,0.116c-0.04,0.054-0.065,0.136-0.04,0.256 c0.125-0.061,0.245-0.04,0.353-0.011c0.156,0.043,1.161,0.254,1.716,0.362c0.145,0.028,0.276,0.051,0.366,0.063 c0.338,0.045,1.596,0.201,2.174,0.27c0.219,0.027,0.388,0.078,0.402,0.055c0.044-0.024,0.162-0.1,0.132-0.236 c-0.012-0.053-0.031-0.095-0.058-0.127c-0.034-0.054-0.102-0.09-0.215-0.101c-0.066-0.007-2.317-0.227-2.411-0.243 c-0.003-0.001-0.063-0.007-0.066-0.007C18.847,39.746,16.769,39.37,16.769,39.37z"/><radialGradient id="OQcEWSAsS~FxKmm~hJh3PaN" cx="39.624" cy="7.884" r="15.288" gradientTransform="matrix(-.4401 -.0031 .1256 -.5777 39.235 40.378)" gradientUnits="userSpaceOnUse"><stop offset="0" stop-color="#f4d056"/><stop offset=".629" stop-color="#f4c522"/><stop offset=".776" stop-color="#f2c01f"/><stop offset=".96" stop-color="#ecb017"/><stop offset=".999" stop-color="#eaac15"/></radialGradient><path fill="url(#OQcEWSAsS~FxKmm~hJh3PaN)" d="M16.767,39.364c-0.025,0.025-0.099,0.048-0.152,0.122c-0.027,0.046-0.032,0.118,0.01,0.221 c0.121-0.048,0.24-0.026,0.351,0.002c0.23,0.057,1.212,0.257,1.712,0.354c0.132,0.025,0.261,0.047,0.364,0.06 c0.394,0.051,1.663,0.201,2.161,0.262c0.204,0.026,0.382,0.11,0.398,0.067c0.04-0.042,0.128-0.121,0.088-0.242 c-0.016-0.048-0.042-0.085-0.071-0.112c-0.028-0.045-0.097-0.076-0.212-0.087c-0.132-0.013-2.204-0.212-2.392-0.243 c-0.007-0.001-0.06-0.007-0.067-0.008C18.715,39.719,16.767,39.364,16.767,39.364z"/><radialGradient id="OQcEWSAsS~FxKmm~hJh3PaO" cx="65.751" cy="8.425" r="43.255" gradientTransform="matrix(-.1659 .0704 .1438 -.5728 34.27 28.813)" gradientUnits="userSpaceOnUse"><stop offset="0" stop-color="#efc74a"/><stop offset=".629" stop-color="#efbe20"/><stop offset=".797" stop-color="#edb91d"/><stop offset=".999" stop-color="#e7aa16"/></radialGradient><path fill="url(#OQcEWSAsS~FxKmm~hJh3PaO)" d="M16.764,39.359c-0.037,0.037-0.104,0.058-0.149,0.128c-0.014,0.039,0.001,0.099,0.06,0.187 c0.116-0.034,0.234-0.012,0.348,0.014c0.305,0.071,1.264,0.26,1.708,0.345c0.118,0.023,0.247,0.043,0.362,0.058 c0.451,0.056,1.729,0.2,2.148,0.253c0.188,0.024,0.368,0.139,0.393,0.078c0.026-0.063,0.094-0.142,0.043-0.247 c-0.022-0.044-0.052-0.076-0.085-0.098c-0.023-0.036-0.092-0.062-0.208-0.073c-0.198-0.019-2.09-0.198-2.373-0.244 c-0.01-0.002-0.058-0.007-0.068-0.009C18.584,39.691,16.764,39.359,16.764,39.359z"/><radialGradient id="OQcEWSAsS~FxKmm~hJh3PaP" cx="-37.76" cy="34.457" r="42.064" gradientTransform="matrix(.1084 .1439 .162 -.5679 18.228 54.008)" gradientUnits="userSpaceOnUse"><stop offset="0" stop-color="#eabe3d"/><stop offset=".629" stop-color="#eab81f"/><stop offset=".829" stop-color="#e7b31c"/><stop offset=".999" stop-color="#e3a916"/></radialGradient><path fill="url(#OQcEWSAsS~FxKmm~hJh3PaP)" d="M16.761,39.353c-0.049,0.05-0.11,0.068-0.146,0.134c-0.001,0.031,0.033,0.081,0.11,0.153 c0.111-0.021,0.229,0.001,0.346,0.027c0.38,0.083,1.315,0.264,1.703,0.337c0.104,0.02,0.233,0.039,0.359,0.055 c0.508,0.062,1.796,0.201,2.135,0.245c0.173,0.022,0.364,0.172,0.389,0.089c0.024-0.078,0.058-0.162-0.002-0.252 c-0.027-0.04-0.063-0.067-0.098-0.083C21.54,40.031,21.47,40.01,21.352,40c-0.264-0.024-1.977-0.183-2.354-0.245 c-0.014-0.002-0.055-0.007-0.069-0.01C18.452,39.664,16.761,39.353,16.761,39.353z"/><radialGradient id="OQcEWSAsS~FxKmm~hJh3PaQ" cx="5.081" cy="15.315" r="13.882" gradientTransform="matrix(.3827 .2174 .1802 -.563 13.118 43.655)" gradientUnits="userSpaceOnUse"><stop offset="0" stop-color="#e5b531"/><stop offset=".629" stop-color="#e5b11d"/><stop offset=".884" stop-color="#e2ac1a"/><stop offset=".999" stop-color="#e0a717"/></radialGradient><path fill="url(#OQcEWSAsS~FxKmm~hJh3PaQ)" d="M16.758,39.347c-0.062,0.062-0.116,0.079-0.143,0.14c0.012,0.023,0.066,0.062,0.161,0.118 c0.106-0.008,0.223,0.014,0.344,0.039c0.455,0.094,1.367,0.267,1.699,0.329c0.091,0.017,0.218,0.036,0.357,0.052 c0.565,0.068,1.862,0.201,2.122,0.236c0.157,0.021,0.36,0.205,0.385,0.1c0.022-0.094,0.022-0.182-0.047-0.258 c-0.033-0.036-0.074-0.058-0.111-0.069c-0.011-0.018-0.082-0.033-0.201-0.044c-0.33-0.029-1.864-0.168-2.335-0.245 c-0.017-0.003-0.053-0.008-0.07-0.01C18.32,39.636,16.758,39.347,16.758,39.347z"/><radialGradient id="OQcEWSAsS~FxKmm~hJh3PaR" cx="13.647" cy="11.478" r="8.257" gradientTransform="matrix(.657 .2909 .1983 -.5582 6.221 40.002)" gradientUnits="userSpaceOnUse"><stop offset="0" stop-color="#dfad25"/><stop offset=".629" stop-color="#dfab1b"/><stop offset=".999" stop-color="#dda618"/></radialGradient><path fill="url(#OQcEWSAsS~FxKmm~hJh3PaR)" d="M16.756,39.341c-0.074,0.074-0.121,0.089-0.139,0.146c0.025,0.015,0.099,0.044,0.211,0.084 c0.101,0.005,0.218,0.027,0.342,0.051c0.531,0.104,1.418,0.27,1.694,0.321c0.077,0.014,0.204,0.032,0.355,0.05 c0.621,0.074,1.929,0.202,2.109,0.228c0.142,0.02,0.358,0.238,0.381,0.112c0.02-0.111-0.015-0.202-0.092-0.263 c-0.039-0.031-0.084-0.049-0.125-0.054c-0.006-0.009-0.077-0.019-0.198-0.03c-0.396-0.033-1.751-0.153-2.316-0.246 c-0.02-0.003-0.05-0.008-0.071-0.011C18.188,39.609,16.756,39.341,16.756,39.341z"/><path fill="#daa419" d="M16.617,39.488c0.202,0.041,1.962,0.366,2.29,0.426c0.328,0.06,2.323,0.247,2.449,0.266 c0.126,0.019,0.355,0.271,0.376,0.123c0.028-0.195-0.151-0.309-0.274-0.308c0,0-1.659-0.125-2.491-0.262 c-0.833-0.137-2.213-0.398-2.213-0.398C16.667,39.423,16.626,39.435,16.617,39.488z"/></g><g><radialGradient id="OQcEWSAsS~FxKmm~hJh3PaS" cx="31.867" cy="7.874" r="7.962" gradientTransform="matrix(-.9948 -.1023 .0491 -.4775 54.077 44.842)" gradientUnits="userSpaceOnUse"><stop offset="0" stop-color="#ffe16e"/><stop offset=".629" stop-color="#ffd226"/><stop offset=".75" stop-color="#fdcd23"/><stop offset=".899" stop-color="#f6bd1b"/><stop offset=".999" stop-color="#f0af13"/></radialGradient><path fill="url(#OQcEWSAsS~FxKmm~hJh3PaS)" d="M17.314,40.481l1.93,0.302l1.161,0.115l1.161,0.115c0,0,0.168,0.074,0.196,0.207 s-0.05,0.228-0.177,0.225c-0.127-0.003-2.006-0.27-2.208-0.305s-1.646-0.296-1.646-0.296s-0.204-0.071-0.204,0.151 c-0.061-0.047-0.119-0.136-0.159-0.233S17.304,40.559,17.314,40.481z"/><radialGradient id="OQcEWSAsS~FxKmm~hJh3PaT" cx="34.082" cy="7.943" r="9.923" gradientTransform="matrix(-.7223 -.0293 .0701 -.4719 46.827 41.887)" gradientUnits="userSpaceOnUse"><stop offset="0" stop-color="#fad862"/><stop offset=".629" stop-color="#facb24"/><stop offset=".761" stop-color="#f8c621"/><stop offset=".925" stop-color="#f1b619"/><stop offset=".999" stop-color="#edad14"/></radialGradient><path fill="url(#OQcEWSAsS~FxKmm~hJh3PaT)" d="M17.314,40.477c0,0,1.805,0.279,1.923,0.299c0.003,0,0.034,0.004,0.036,0.004 c0.046,0.008,1.071,0.11,1.124,0.115c0.086,0.008,1.156,0.112,1.156,0.112c0.008,0,0.162,0.067,0.195,0.188 c0.033,0.122-0.028,0.215-0.139,0.227c-0.034,0.02-0.215-0.034-0.435-0.064c-0.532-0.071-1.544-0.208-1.759-0.24 c-0.085-0.013-0.269-0.044-0.475-0.082c-0.448-0.081-1.102-0.198-1.165-0.209c-0.016-0.003-0.206-0.066-0.22,0.122 c-0.071-0.043-0.135-0.123-0.182-0.208c-0.014-0.026-0.027-0.051-0.037-0.077C17.311,40.601,17.308,40.536,17.314,40.477z"/><radialGradient id="OQcEWSAsS~FxKmm~hJh3PaU" cx="39.248" cy="8.321" r="14.915" gradientTransform="matrix(-.4498 .0437 .0912 -.4662 39.96 37.6)" gradientUnits="userSpaceOnUse"><stop offset="0" stop-color="#f4d056"/><stop offset=".629" stop-color="#f4c522"/><stop offset=".776" stop-color="#f2c01f"/><stop offset=".96" stop-color="#ecb017"/><stop offset=".999" stop-color="#eaac15"/></radialGradient><path fill="url(#OQcEWSAsS~FxKmm~hJh3PaU)" d="M17.313,40.474c0,0,1.681,0.257,1.916,0.295c0.006,0.001,0.035,0.004,0.041,0.005 c0.091,0.015,1.013,0.108,1.12,0.119c0.172,0.017,1.152,0.109,1.152,0.109c0.017,0,0.156,0.06,0.193,0.168 c0.037,0.11-0.006,0.201-0.101,0.228c-0.032,0.042-0.221-0.046-0.425-0.074c-0.459-0.062-1.469-0.191-1.754-0.229 c-0.105-0.014-0.287-0.044-0.473-0.078c-0.405-0.073-1.035-0.185-1.161-0.206c-0.032-0.005-0.209-0.062-0.236,0.093 c-0.081-0.04-0.153-0.111-0.205-0.182c-0.017-0.023-0.031-0.045-0.042-0.066C17.307,40.598,17.31,40.536,17.313,40.474z"/><radialGradient id="OQcEWSAsS~FxKmm~hJh3PaV" cx="65.066" cy="11.268" r="41.567" gradientTransform="matrix(-.1773 .1168 .1122 -.4606 35.708 23.78)" gradientUnits="userSpaceOnUse"><stop offset="0" stop-color="#efc74a"/><stop offset=".629" stop-color="#efbe20"/><stop offset=".797" stop-color="#edb91d"/><stop offset=".999" stop-color="#e7aa16"/></radialGradient><path fill="url(#OQcEWSAsS~FxKmm~hJh3PaV)" d="M17.312,40.47c0,0,1.556,0.234,1.91,0.292c0.009,0.001,0.036,0.005,0.045,0.006 c0.137,0.023,0.955,0.106,1.116,0.122c0.258,0.025,1.148,0.106,1.148,0.106c0.025,0,0.151,0.053,0.191,0.149 c0.042,0.099,0.016,0.187-0.063,0.23c-0.029,0.063-0.227-0.057-0.415-0.084c-0.386-0.052-1.395-0.174-1.748-0.218 c-0.126-0.016-0.305-0.044-0.47-0.074c-0.362-0.065-0.968-0.172-1.157-0.204c-0.048-0.008-0.211-0.057-0.252,0.063 c-0.092-0.036-0.171-0.098-0.228-0.157c-0.019-0.02-0.036-0.038-0.048-0.056C17.302,40.594,17.311,40.536,17.312,40.47z"/><radialGradient id="OQcEWSAsS~FxKmm~hJh3PaW" cx="-30.111" cy="35.084" r="39.975" gradientTransform="matrix(.0952 .1898 .1332 -.4549 19.575 48.45)" gradientUnits="userSpaceOnUse"><stop offset="0" stop-color="#eabe3d"/><stop offset=".629" stop-color="#eab81f"/><stop offset=".829" stop-color="#e7b31c"/><stop offset=".999" stop-color="#e3a916"/></radialGradient><path fill="url(#OQcEWSAsS~FxKmm~hJh3PaW)" d="M17.311,40.467c0,0,1.432,0.211,1.903,0.288c0.012,0.002,0.038,0.005,0.05,0.007 c0.183,0.03,0.897,0.104,1.112,0.125c0.344,0.034,1.143,0.103,1.143,0.103c0.033,0,0.145,0.046,0.19,0.13 c0.047,0.088,0.038,0.174-0.025,0.231c-0.027,0.084-0.232-0.069-0.405-0.093c-0.313-0.044-1.32-0.157-1.743-0.207 c-0.147-0.018-0.323-0.044-0.467-0.07c-0.318-0.058-0.901-0.159-1.153-0.202c-0.064-0.011-0.213-0.052-0.268,0.034 c-0.102-0.033-0.189-0.085-0.251-0.132c-0.022-0.016-0.041-0.031-0.054-0.045C17.297,40.591,17.313,40.536,17.311,40.467z"/><radialGradient id="OQcEWSAsS~FxKmm~hJh3PaX" cx="7.491" cy="14.845" r="12.992" gradientTransform="matrix(.3676 .2628 .1542 -.4493 13.84 40.947)" gradientUnits="userSpaceOnUse"><stop offset="0" stop-color="#e5b531"/><stop offset=".629" stop-color="#e5b11d"/><stop offset=".884" stop-color="#e2ac1a"/><stop offset=".999" stop-color="#e0a717"/></radialGradient><path fill="url(#OQcEWSAsS~FxKmm~hJh3PaX)" d="M17.311,40.463c0,0,1.307,0.189,1.896,0.285c0.015,0.002,0.039,0.006,0.054,0.008 c0.229,0.038,0.839,0.103,1.107,0.129c0.429,0.042,1.139,0.1,1.139,0.1c0.042,0,0.14,0.039,0.188,0.111 c0.052,0.076,0.048,0.153,0.014,0.233c-0.043,0.099-0.238-0.081-0.396-0.103c-0.24-0.034-1.245-0.14-1.738-0.196 c-0.167-0.02-0.341-0.044-0.464-0.066c-0.275-0.05-0.834-0.146-1.149-0.199c-0.08-0.014-0.215-0.047-0.284,0.005 c-0.112-0.03-0.208-0.071-0.274-0.106c-0.025-0.013-0.045-0.024-0.059-0.035C17.292,40.587,17.314,40.535,17.311,40.463z"/><radialGradient id="OQcEWSAsS~FxKmm~hJh3PaY" cx="15.013" cy="10.773" r="7.61" gradientTransform="matrix(.6401 .3359 .1753 -.4437 6.912 37.896)" gradientUnits="userSpaceOnUse"><stop offset="0" stop-color="#dfad25"/><stop offset=".629" stop-color="#dfab1b"/><stop offset=".999" stop-color="#dda618"/></radialGradient><path fill="url(#OQcEWSAsS~FxKmm~hJh3PaY)" d="M17.31,40.46c0,0,1.183,0.166,1.89,0.281c0.018,0.003,0.041,0.006,0.058,0.009 c0.274,0.045,0.781,0.101,1.103,0.132c0.515,0.05,1.135,0.096,1.135,0.096c0.05,0,0.134,0.032,0.186,0.092 c0.057,0.065,0.076,0.144,0.052,0.234c-0.033,0.124-0.244-0.093-0.386-0.113c-0.167-0.024-1.171-0.122-1.733-0.185 c-0.188-0.021-0.359-0.044-0.462-0.063c-0.231-0.042-0.767-0.133-1.145-0.197c-0.096-0.016-0.217-0.042-0.3-0.024 c-0.123-0.026-0.227-0.057-0.296-0.081c-0.027-0.009-0.05-0.017-0.065-0.024C17.288,40.584,17.316,40.535,17.31,40.46z"/><path fill="#daa419" d="M17.349,40.608c0.202,0.041,1.518,0.257,1.847,0.317s2.061,0.214,2.187,0.233 s0.355,0.271,0.376,0.123c0.028-0.195-0.151-0.309-0.274-0.308c0,0-1.397-0.091-2.229-0.229c-0.833-0.137-1.946-0.288-1.946-0.288 C17.317,40.535,17.283,40.581,17.349,40.608z"/></g><linearGradient id="OQcEWSAsS~FxKmm~hJh3PaZ" x1="30.684" x2="33.414" y1="8.988" y2="8.988" gradientTransform="scale(-1) rotate(30.006 89.806 -116.893)" gradientUnits="userSpaceOnUse"><stop offset=".002" stop-color="#daa419"/><stop offset=".042" stop-color="#dca61b"/><stop offset="1" stop-color="#fed643"/></linearGradient><path fill="url(#OQcEWSAsS~FxKmm~hJh3PaZ)" d="M23.798,37.218c0.092-0.017,0.214-0.155-0.029-0.274c-0.22-0.108-0.943-0.299-1.409-0.708 c-0.465-0.409-0.638-0.778-0.638-0.778s0.022,0.468,0.343,0.864c0.321,0.396,0.792,0.688,1.122,0.939 C23.572,37.216,23.798,37.218,23.798,37.218z"/></g><linearGradient id="OQcEWSAsS~FxKmm~hJh3Pba" x1="27.206" x2="42.18" y1="13.263" y2="13.263" gradientTransform="matrix(1 0 0 -1 0 48)" gradientUnits="userSpaceOnUse"><stop offset=".002" stop-color="#e1e1e1"/><stop offset="1" stop-color="#b3b3b3"/></linearGradient><path fill="url(#OQcEWSAsS~FxKmm~hJh3Pba)" d="M27.206,29.117c2.767,0.107,13.209,1.804,14.974,11.37	C42.057,33.336,32.247,28.087,27.206,29.117z"/><path fill="#b3b3b3" d="M38.404,30.941c1.287,1.03,3.818,2.542,4.741,7.487C42.844,35.124,41.536,32.249,38.404,30.941z"/><linearGradient id="OQcEWSAsS~FxKmm~hJh3Pbb" x1="11.459" x2="18.812" y1="4.659" y2="4.659" gradientTransform="matrix(1 0 0 -1 0 48)" gradientUnits="userSpaceOnUse"><stop offset=".002" stop-color="#999" stop-opacity=".2"/><stop offset=".965" stop-color="#333" stop-opacity=".7"/></linearGradient><path fill="url(#OQcEWSAsS~FxKmm~hJh3Pbb)" d="M15.6,41.238c0,0,0.386,0.987-0.236,1.244s-1.282,0.526-1.282,0.526	c-0.241,0.08-0.544,0.449-0.225,0.692c0.28,0.213,1.251,0.796,2.027,0.821c0.966,0.03,2.446,0.161,2.928,0.338l-4.414,0.585	l-2.939-1.759l0.858-1.738L15.6,41.238z"/><g><radialGradient id="OQcEWSAsS~FxKmm~hJh3Pbc" cx="22.443" cy="14.714" r="22.911" gradientTransform="matrix(.9829 -.1844 -.0803 -.4281 1.566 43.722)" gradientUnits="userSpaceOnUse"><stop offset=".002" stop-color="#fff"/><stop offset=".059" stop-color="#fcfcfc"/><stop offset="1" stop-color="#ccc"/></radialGradient><path fill="url(#OQcEWSAsS~FxKmm~hJh3Pbc)" d="M20.877,30.469c0,0,10.447-0.086,17.462,3.068c-1.523-1.738-6.607-4.162-11.016-4.462 c-1.126-0.129-1.512-0.225-2.124-0.097S20.877,30.469,20.877,30.469z"/><radialGradient id="OQcEWSAsS~FxKmm~hJh3Pbd" cx="22.745" cy="14.939" r="21.996" gradientTransform="matrix(.9829 -.1844 -.0803 -.4281 1.589 43.649)" gradientUnits="userSpaceOnUse"><stop offset=".002" stop-color="#fff"/><stop offset="1" stop-color="#d3d3d3"/></radialGradient><path fill="url(#OQcEWSAsS~FxKmm~hJh3Pbd)" d="M21.242,30.338c0,0,9.75-0.193,16.765,2.96c-1.37-1.545-6.27-3.912-10.683-4.225 c-1.126-0.129-1.512-0.225-2.124-0.097S21.242,30.338,21.242,30.338z"/><radialGradient id="OQcEWSAsS~FxKmm~hJh3Pbe" cx="23.048" cy="15.163" r="21.082" gradientTransform="matrix(.9829 -.1844 -.0803 -.4281 1.612 43.576)" gradientUnits="userSpaceOnUse"><stop offset=".002" stop-color="#fff"/><stop offset="1" stop-color="#dbdbdb"/></radialGradient><path fill="url(#OQcEWSAsS~FxKmm~hJh3Pbe)" d="M21.607,30.208c0,0,9.053-0.3,16.068,2.853c-1.217-1.351-5.933-3.662-10.351-3.987 c-1.126-0.129-1.512-0.225-2.124-0.097S21.607,30.208,21.607,30.208z"/><radialGradient id="OQcEWSAsS~FxKmm~hJh3Pbf" cx="23.35" cy="15.388" r="20.167" gradientTransform="matrix(.9829 -.1844 -.0803 -.4281 1.635 43.503)" gradientUnits="userSpaceOnUse"><stop offset=".002" stop-color="#fff"/><stop offset="1" stop-color="#e2e2e2"/></radialGradient><path fill="url(#OQcEWSAsS~FxKmm~hJh3Pbf)" d="M21.971,30.078c0,0,8.356-0.408,15.37,2.746c-1.063-1.158-5.596-3.412-10.018-3.75 c-1.126-0.129-1.512-0.225-2.124-0.097S21.971,30.078,21.971,30.078z"/><radialGradient id="OQcEWSAsS~FxKmm~hJh3Pbg" cx="23.652" cy="15.613" r="19.252" gradientTransform="matrix(.9829 -.1844 -.0803 -.4281 1.659 43.43)" gradientUnits="userSpaceOnUse"><stop offset=".002" stop-color="#fff"/><stop offset="1" stop-color="#e9e9e9"/></radialGradient><path fill="url(#OQcEWSAsS~FxKmm~hJh3Pbg)" d="M22.336,29.948c0,0,7.658-0.515,14.673,2.639c-0.91-0.965-5.259-3.163-9.686-3.512 c-1.126-0.129-1.512-0.225-2.124-0.097S22.336,29.948,22.336,29.948z"/><radialGradient id="OQcEWSAsS~FxKmm~hJh3Pbh" cx="23.954" cy="15.837" r="18.337" gradientTransform="matrix(.9829 -.1844 -.0803 -.4281 1.682 43.358)" gradientUnits="userSpaceOnUse"><stop offset=".002" stop-color="#fff"/><stop offset="1" stop-color="#f0f0f0"/></radialGradient><path fill="url(#OQcEWSAsS~FxKmm~hJh3Pbh)" d="M22.701,29.817c0,0,6.961-0.622,13.976,2.531c-0.757-0.772-4.922-2.913-9.353-3.275 c-1.126-0.129-1.512-0.225-2.124-0.097S22.701,29.817,22.701,29.817z"/><radialGradient id="OQcEWSAsS~FxKmm~hJh3Pbi" cx="24.256" cy="16.062" r="17.422" gradientTransform="matrix(.9829 -.1844 -.0803 -.4281 1.705 43.285)" gradientUnits="userSpaceOnUse"><stop offset=".002" stop-color="#fff"/><stop offset="1" stop-color="#f8f8f8"/></radialGradient><path fill="url(#OQcEWSAsS~FxKmm~hJh3Pbi)" d="M23.065,29.687c0,0,6.264-0.729,13.279,2.424c-0.604-0.579-4.585-2.663-9.021-3.037 c-1.126-0.129-1.512-0.225-2.124-0.097S23.065,29.687,23.065,29.687z"/><path fill="#fff" d="M23.43,29.557c0,0,5.567-0.837,12.582,2.317c-0.45-0.386-4.248-2.413-8.688-2.8 c-1.126-0.129-1.512-0.225-2.124-0.097S23.43,29.557,23.43,29.557z"/></g><g><radialGradient id="OQcEWSAsS~FxKmm~hJh3Pbj" cx="29.235" cy="15.762" r="16.402" gradientTransform="matrix(.9989 .0459 .02 -.4351 -.485 35.871)" gradientUnits="userSpaceOnUse"><stop offset=".002" stop-color="#fff"/><stop offset=".059" stop-color="#fcfcfc"/><stop offset="1" stop-color="#ccc"/></radialGradient><path fill="url(#OQcEWSAsS~FxKmm~hJh3Pbj)" d="M28.257,28.769c3.33-0.322,7.771,1.129,11.817,4.355c-0.706-1.329-3.566-3.624-6.315-4.472 c-0.695-0.25-0.928-0.324-1.332-0.378C31.796,28.188,30.043,28.286,28.257,28.769z"/><radialGradient id="OQcEWSAsS~FxKmm~hJh3Pbk" cx="29.522" cy="15.814" r="15.603" gradientTransform="matrix(.9966 .013 .0057 -.4341 -.16 37.11)" gradientUnits="userSpaceOnUse"><stop offset=".002" stop-color="#fff"/><stop offset="1" stop-color="#d3d3d3"/></radialGradient><path fill="url(#OQcEWSAsS~FxKmm~hJh3Pbk)" d="M28.657,28.704c2.855-0.276,7.206,1.019,11.242,4.219c-0.638-1.183-3.39-3.415-6.14-4.272 c-0.695-0.25-0.928-0.329-1.332-0.378C31.828,28.2,30.188,28.29,28.657,28.704z"/><radialGradient id="OQcEWSAsS~FxKmm~hJh3Pbl" cx="29.837" cy="15.883" r="14.768" gradientTransform="matrix(.9943 -.0199 -.0087 -.4331 .173 38.345)" gradientUnits="userSpaceOnUse"><stop offset=".002" stop-color="#fff"/><stop offset="1" stop-color="#dbdbdb"/></radialGradient><path fill="url(#OQcEWSAsS~FxKmm~hJh3Pbl)" d="M29.057,28.64c2.379-0.23,6.641,0.909,10.667,4.084c-0.569-1.038-3.213-3.207-5.965-4.072 c-0.695-0.25-0.928-0.335-1.332-0.378C31.86,28.212,30.332,28.295,29.057,28.64z"/><radialGradient id="OQcEWSAsS~FxKmm~hJh3Pbm" cx="30.177" cy="15.968" r="13.9" gradientTransform="matrix(.9921 -.0528 -.023 -.4321 .505 39.575)" gradientUnits="userSpaceOnUse"><stop offset=".002" stop-color="#fff"/><stop offset="1" stop-color="#e2e2e2"/></radialGradient><path fill="url(#OQcEWSAsS~FxKmm~hJh3Pbm)" d="M29.457,28.575c1.903-0.184,6.076,0.799,10.092,3.948 c-0.501-0.893-3.037-2.998-5.789-3.872c-0.695-0.25-0.927-0.341-1.332-0.378C31.892,28.223,30.477,28.3,29.457,28.575z"/><radialGradient id="OQcEWSAsS~FxKmm~hJh3Pbn" cx="30.542" cy="16.07" r="13.006" gradientTransform="matrix(.9898 -.0857 -.0373 -.4311 .84 40.8)" gradientUnits="userSpaceOnUse"><stop offset=".002" stop-color="#fff"/><stop offset="1" stop-color="#e9e9e9"/></radialGradient><path fill="url(#OQcEWSAsS~FxKmm~hJh3Pbn)" d="M29.857,28.511c1.427-0.138,5.511,0.689,9.516,3.812c-0.433-0.748-2.861-2.789-5.614-3.672 c-0.695-0.25-0.927-0.347-1.332-0.378C31.924,28.234,30.622,28.304,29.857,28.511z"/><radialGradient id="OQcEWSAsS~FxKmm~hJh3Pbo" cx="30.928" cy="16.187" r="12.091" gradientTransform="matrix(.9875 -.1186 -.0517 -.4301 1.184 42.018)" gradientUnits="userSpaceOnUse"><stop offset=".002" stop-color="#fff"/><stop offset="1" stop-color="#f0f0f0"/></radialGradient><path fill="url(#OQcEWSAsS~FxKmm~hJh3Pbo)" d="M30.256,28.447c0.952-0.092,4.946,0.579,8.941,3.676c-0.364-0.602-2.684-2.581-5.439-3.472 c-0.695-0.25-0.926-0.354-1.332-0.378C31.956,28.244,30.767,28.309,30.256,28.447z"/><radialGradient id="OQcEWSAsS~FxKmm~hJh3Pbp" cx="31.334" cy="16.319" r="11.162" gradientTransform="matrix(.9852 -.1515 -.066 -.4291 1.524 43.23)" gradientUnits="userSpaceOnUse"><stop offset=".002" stop-color="#fff"/><stop offset="1" stop-color="#f8f8f8"/></radialGradient><path fill="url(#OQcEWSAsS~FxKmm~hJh3Pbp)" d="M30.656,28.382c0.476-0.046,4.381,0.469,8.366,3.54c-0.296-0.457-2.508-2.372-5.263-3.271 c-0.695-0.25-0.925-0.361-1.332-0.378C31.989,28.254,30.912,28.313,30.656,28.382z"/><path fill="#fff" d="M31.056,28.318c0,0,3.816,0.359,7.791,3.405c-0.228-0.312-2.332-2.164-5.088-3.071 c-0.695-0.25-0.925-0.369-1.332-0.378C32.021,28.263,31.056,28.318,31.056,28.318z"/></g><g><radialGradient id="OQcEWSAsS~FxKmm~hJh3Pbq" cx="22.45" cy="15.06" r="23.18" gradientTransform="matrix(.9327 -.3607 -.1571 -.4063 3.872 47.723)" gradientUnits="userSpaceOnUse"><stop offset=".002" stop-color="#fff"/><stop offset=".059" stop-color="#fcfcfc"/><stop offset="1" stop-color="#ccc"/></radialGradient><path fill="url(#OQcEWSAsS~FxKmm~hJh3Pbq)" d="M14.002,34.319c0,0,11.792-1.3,17.923,0.193c-9.611-4.559-13.32-2.973-13.794-2.778 C17.657,31.93,14.002,34.319,14.002,34.319z"/><radialGradient id="OQcEWSAsS~FxKmm~hJh3Pbr" cx="22.349" cy="15.245" r="21.913" gradientTransform="matrix(.9399 -.3355 -.1461 -.4094 3.539 46.998)" gradientUnits="userSpaceOnUse"><stop offset=".002" stop-color="#fff"/><stop offset="1" stop-color="#d3d3d3"/></radialGradient><path fill="url(#OQcEWSAsS~FxKmm~hJh3Pbr)" d="M14.328,34.099c0,0,10.798-1.348,16.929,0.146c-8.988-4.217-12.629-2.718-13.102-2.523 C17.681,31.917,14.328,34.099,14.328,34.099z"/><radialGradient id="OQcEWSAsS~FxKmm~hJh3Pbs" cx="22.238" cy="15.416" r="20.622" gradientTransform="matrix(.947 -.3103 -.1352 -.4125 3.216 46.279)" gradientUnits="userSpaceOnUse"><stop offset=".002" stop-color="#fff"/><stop offset="1" stop-color="#dbdbdb"/></radialGradient><path fill="url(#OQcEWSAsS~FxKmm~hJh3Pbs)" d="M14.655,33.878c0,0,9.803-1.395,15.934,0.098c-8.366-3.875-11.937-2.462-12.411-2.267 S14.655,33.878,14.655,33.878z"/><radialGradient id="OQcEWSAsS~FxKmm~hJh3Pbt" cx="22.118" cy="15.574" r="19.311" gradientTransform="matrix(.9542 -.2851 -.1242 -.4157 2.895 45.571)" gradientUnits="userSpaceOnUse"><stop offset=".002" stop-color="#fff"/><stop offset="1" stop-color="#e2e2e2"/></radialGradient><path fill="url(#OQcEWSAsS~FxKmm~hJh3Pbt)" d="M14.981,33.657c0,0,8.809-1.443,14.94,0.051c-7.744-3.533-11.246-2.207-11.72-2.011 C17.727,31.892,14.981,33.657,14.981,33.657z"/><radialGradient id="OQcEWSAsS~FxKmm~hJh3Pbu" cx="21.989" cy="15.718" r="17.985" gradientTransform="matrix(.9614 -.2599 -.1132 -.4188 2.578 44.865)" gradientUnits="userSpaceOnUse"><stop offset=".002" stop-color="#fff"/><stop offset="1" stop-color="#e9e9e9"/></radialGradient><path fill="url(#OQcEWSAsS~FxKmm~hJh3Pbu)" d="M15.307,33.437c0,0,7.814-1.49,13.945,0.003c-7.122-3.192-10.555-1.951-11.029-1.756 S15.307,33.437,15.307,33.437z"/><radialGradient id="OQcEWSAsS~FxKmm~hJh3Pbv" cx="21.852" cy="15.848" r="16.646" gradientTransform="matrix(.9685 -.2347 -.1023 -.4219 2.27 44.165)" gradientUnits="userSpaceOnUse"><stop offset=".002" stop-color="#fff"/><stop offset="1" stop-color="#f0f0f0"/></radialGradient><path fill="url(#OQcEWSAsS~FxKmm~hJh3Pbv)" d="M15.634,33.216c0,0,6.82-1.538,12.951-0.044c-6.5-2.85-9.864-1.696-10.337-1.5 C17.773,31.867,15.634,33.216,15.634,33.216z"/><radialGradient id="OQcEWSAsS~FxKmm~hJh3Pbw" cx="21.706" cy="15.963" r="15.301" gradientTransform="matrix(.9757 -.2096 -.0913 -.425 1.963 43.472)" gradientUnits="userSpaceOnUse"><stop offset=".002" stop-color="#fff"/><stop offset="1" stop-color="#f8f8f8"/></radialGradient><path fill="url(#OQcEWSAsS~FxKmm~hJh3Pbw)" d="M15.96,32.995c0,0,5.825-1.585,11.957-0.092c-5.878-2.508-9.172-1.44-9.646-1.245 S15.96,32.995,15.96,32.995z"/><path fill="#fff" d="M16.286,32.775c0,0,4.831-1.633,10.962-0.139c-5.256-2.167-8.481-1.185-8.955-0.989 C17.82,31.841,16.286,32.775,16.286,32.775z"/></g><path fill="#999" d="M39.819,40.043c-0.406-0.897-1.32-2.284-3.283-3.181c1.695,0.193,3.302,1.515,4.334,4.087	C40.549,40.762,39.819,40.043,39.819,40.043z"/><path fill="#999" d="M27.506,38.02c4.977,0.107,11.345-0.706,13.82,3.542C39.09,38.342,30.788,38.62,27.506,38.02z"/><linearGradient id="OQcEWSAsS~FxKmm~hJh3Pbx" x1="13.045" x2="11.932" y1="9.506" y2="3.284" gradientTransform="matrix(1 0 0 -1 0 48)" gradientUnits="userSpaceOnUse"><stop offset=".002" stop-color="#999" stop-opacity=".2"/><stop offset=".965" stop-color="#333" stop-opacity=".7"/></linearGradient><path fill="url(#OQcEWSAsS~FxKmm~hJh3Pbx)" d="M11.267,36.497c0,0-0.051,0.43,0.515,1.888c0.549,1.415,2.381,2.274,3.625,2.446	c-1.193,0.213-2.667,0.416-3.754,0.279l-1.158-3.904L11.267,36.497z"/><radialGradient id="OQcEWSAsS~FxKmm~hJh3Pby" cx="8.617" cy="4.909" r="3.186" gradientTransform="matrix(1 0 0 -1.77 0 51.78)" gradientUnits="userSpaceOnUse"><stop offset=".002" stop-color="#03a0e5"/><stop offset="1" stop-color="#0071db"/></radialGradient><path fill="url(#OQcEWSAsS~FxKmm~hJh3Pby)" d="M10.623,37.054c0.418,1.062,0.583,2.222,0.869,3.25c0,0,0.676,2.156-0.161,3.025	c-1.263,1.311-1.116,1.298-2.467,0.912s-2.249-1.649-2.81-2.424C3.351,38.084,7.985,33.086,10.623,37.054z"/><radialGradient id="OQcEWSAsS~FxKmm~hJh3Pbz" cx="13.696" cy="5.569" r="4.578" gradientTransform="matrix(1.2151 0 0 -.6299 -2.196 46.183)" gradientUnits="userSpaceOnUse"><stop offset="0" stop-color="#ffe16e"/><stop offset=".629" stop-color="#ffd226"/><stop offset=".75" stop-color="#fdcd23"/><stop offset=".899" stop-color="#f6bd1b"/><stop offset=".999" stop-color="#f0af13"/></radialGradient><path fill="url(#OQcEWSAsS~FxKmm~hJh3Pbz)" d="M10.205,40.819c0,0,0.588-0.161,1.995-0.257s1.919,0.376,3.014,0.182	c0.729-0.129,0.954,0.972-0.193,1.309c-1.147,0.336-1.652,0.365-1.652,0.365c-0.429,0.064-0.853,0.465-0.236,1.094	c0.569,0.58,2.181,1.25,2.494,1.25s2.817,0.085,3.234,0.097c0.579,0.016,1.063,0.821,0.177,0.965C18.152,45.967,15.72,46,15.407,46	c-0.313,0-0.683-0.006-1.309-0.15s-3.253-0.536-4.517-1.222C7.877,43.705,8.641,41.252,10.205,40.819z"/><radialGradient id="OQcEWSAsS~FxKmm~hJh3PbA" cx="-14.936" cy="22.113" r="1.079" gradientTransform="matrix(1.3628 -.1403 .1352 1.3126 42.646 -13.748)" gradientUnits="userSpaceOnUse"><stop offset=".245" stop-color="#cc9000"/><stop offset=".415" stop-color="#d09504" stop-opacity=".822"/><stop offset=".627" stop-color="#dca50f" stop-opacity=".599"/><stop offset=".851" stop-color="#eebd20" stop-opacity=".363"/><stop offset="1" stop-color="#fed12e" stop-opacity="0"/></radialGradient><path fill="url(#OQcEWSAsS~FxKmm~hJh3PbA)" d="M25.313,17.8c-0.495,0.051-0.91-0.033-1.173-0.144c-0.193-0.082-0.373-0.016-0.22,0.286	c0.208,0.409,0.634,0.874,1.488,0.786c0.839-0.086,1.166-0.611,1.29-1.05c0.096-0.337-0.094-0.351-0.245-0.26	C26.162,17.594,25.795,17.751,25.313,17.8z"/></svg>