<svg xmlns="http://www.w3.org/2000/svg" data-name="Слой 1" viewBox="0 0 48 48"><defs><linearGradient id="nmUjRTFRdLHTwayglEHF4a" x1="24.315" x2="23.177" y1="41.695" y2="36.057" data-name="Безымянный градиент 226" gradientUnits="userSpaceOnUse"><stop offset=".178" stop-color="#29abe2"/><stop offset=".204" stop-color="#2799d3"/><stop offset=".269" stop-color="#2471b1"/><stop offset=".336" stop-color="#204f95"/><stop offset=".404" stop-color="#1e3580"/><stop offset=".475" stop-color="#1c2370"/><stop offset=".548" stop-color="#1b1867"/><stop offset=".628" stop-color="#1b1464"/></linearGradient><radialGradient id="nmUjRTFRdLHTwayglEHF4b" cx="18.612" cy="18.647" r="25.589" data-name="Безымянный градиент 215" gradientUnits="userSpaceOnUse"><stop offset="0" stop-color="#29abe2"/><stop offset=".109" stop-color="#29a6de"/><stop offset=".233" stop-color="#2799d3"/><stop offset=".365" stop-color="#2582c0"/><stop offset=".501" stop-color="#2262a5"/><stop offset=".64" stop-color="#1e3a83"/><stop offset=".75" stop-color="#1b1464"/></radialGradient><radialGradient id="nmUjRTFRdLHTwayglEHF4c" cx="18.341" cy="18.237" r="15.495" data-name="Безымянный градиент 216" gradientUnits="userSpaceOnUse"><stop offset=".19" stop-color="#2cb4ff" stop-opacity=".967"/><stop offset=".372" stop-color="#2bb0f3" stop-opacity=".554"/><stop offset=".608" stop-color="#29abe2" stop-opacity="0"/></radialGradient><radialGradient id="nmUjRTFRdLHTwayglEHF4d" cx="33.901" cy="28.984" r="9.979" data-name="Безымянный градиент 214" gradientTransform="matrix(.363 -.932 .628 .245 3.389 53.471)" gradientUnits="userSpaceOnUse"><stop offset=".073" stop-color="#29abe2"/><stop offset=".211" stop-color="#2a95d4" stop-opacity=".821"/><stop offset=".497" stop-color="#2c6bb8" stop-opacity=".473"/><stop offset=".733" stop-color="#2d4ca3" stop-opacity=".217"/><stop offset=".907" stop-color="#2e3897" stop-opacity=".06"/><stop offset="1" stop-color="#2e3192" stop-opacity="0"/></radialGradient><radialGradient id="nmUjRTFRdLHTwayglEHF4e" cx="16.626" cy="16.072" r="5.114" data-name="Безымянный градиент 219" gradientUnits="userSpaceOnUse"><stop offset=".174" stop-color="#49c6f2" stop-opacity=".97"/><stop offset=".263" stop-color="#48c5f2" stop-opacity=".949"/><stop offset=".37" stop-color="#46c4f1" stop-opacity=".889"/><stop offset=".487" stop-color="#43c1ef" stop-opacity=".788"/><stop offset=".61" stop-color="#3ebded" stop-opacity=".648"/><stop offset=".738" stop-color="#38b8ea" stop-opacity=".468"/><stop offset=".869" stop-color="#31b2e6" stop-opacity=".25"/><stop offset="1" stop-color="#29abe2" stop-opacity="0"/></radialGradient></defs><path fill="#adadad" d="M38.748,43.765A21.83,21.83,0,0,1,27.09,40.632a20.041,20.041,0,0,1-3.427-2.7.266.266,0,1,1,.372-.379,19.507,19.507,0,0,0,3.336,2.628c6.843,4.261,14.705,3.138,18.781,2.091a.266.266,0,0,1,.132.515A30.7,30.7,0,0,1,38.748,43.765Z"/><path fill="url(#nmUjRTFRdLHTwayglEHF4a)" d="M22.416,39.7c.412.684,2.763.3,2.91-.391.072-.343-.459-.481-1.168-1.581-.474-.736-.582-1.211-.791-1.188-.187.02-.229.413-.507,1.385C22.467,39.3,22.276,39.469,22.416,39.7Z"/><path fill="url(#nmUjRTFRdLHTwayglEHF4b)" d="M28.94,33.879a20.375,20.375,0,0,1-3.06,2.6,23.026,23.026,0,0,1-2.34,1.46,22.153,22.153,0,0,1-5-1.2C11.7,34.279,7,28.779,6.03,22.919a2.7,2.7,0,0,1-.04-.28,13.561,13.561,0,0,1-.15-2.2,2.175,2.175,0,0,1,.01-.26,12.165,12.165,0,0,1,.12-1.33c.72-5.49,4.7-11.57,11.23-12.9,5.63-1.14,10.89,1.72,14.07,5.63a15.8,15.8,0,0,1,2.12,3.46,13.682,13.682,0,0,1,1.03,3.73A18.461,18.461,0,0,1,28.94,33.879Z"/><circle cx="17.731" cy="17.984" r="9.874" fill="url(#nmUjRTFRdLHTwayglEHF4c)"/><path fill="url(#nmUjRTFRdLHTwayglEHF4d)" d="M28.94,33.879a20.375,20.375,0,0,1-3.06,2.6c-.35.17-.71.32-1.07.47-.212-.77-2.089-8.046,2.63-13.7a14.273,14.273,0,0,1,6.98-4.479A18.461,18.461,0,0,1,28.94,33.879Z"/><path fill="url(#nmUjRTFRdLHTwayglEHF4e)" d="M21.326,12.578c1.105,2.186-.988,5.262-3.261,6.548-2.122,1.2-5.485,1.451-6.792-.293-1.484-1.98.069-6.009,2.892-7.5C16.556,10.076,20.242,10.435,21.326,12.578Z"/><path fill="#adadad" d="M22.782,38.207a.266.266,0,0,1-.041-.528l1.449-.226a.265.265,0,1,1,.082.524l-1.449.226A.2.2,0,0,1,22.782,38.207Z"/></svg>