<svg xmlns="http://www.w3.org/2000/svg" viewBox="0 0 48 48"><linearGradient id="YpVZrrTnJ2yr~sw8OFRIda" x1="8.9" x2="-.03" y1="25.851" y2="11.797" gradientUnits="userSpaceOnUse"><stop offset="0" stop-color="#919191"/><stop offset="1" stop-color="#e0e0e0"/></linearGradient><path fill="url(#YpVZrrTnJ2yr~sw8OFRIda)" d="M17.5,33c-0.202,0-0.393-0.124-0.468-0.324L9.56,10.082L1.98,32.64	c-0.077,0.265-0.353,0.412-0.62,0.341c-0.265-0.078-0.417-0.355-0.34-0.62l8-24C9.08,8.153,9.266,8.009,9.481,8	c0.222,0.015,0.412,0.123,0.487,0.324l8,24c0.097,0.259-0.034,0.547-0.292,0.644C17.618,32.99,17.559,33,17.5,33z"/><linearGradient id="YpVZrrTnJ2yr~sw8OFRIdb" x1="10.826" x2="4.034" y1="41.998" y2="6.498" gradientTransform="rotate(3.139 6.989 21.993)" gradientUnits="userSpaceOnUse"><stop offset="0" stop-color="#6a6a6a"/><stop offset="1" stop-color="#e0e0e0"/></linearGradient><path fill="url(#YpVZrrTnJ2yr~sw8OFRIdb)" d="M4.787,34.898c-0.02-0.001-0.04-0.003-0.06-0.007c-0.272-0.047-0.454-0.307-0.406-0.579	L8.694,9.515c0.048-0.271,0.31-0.459,0.579-0.405c0.272,0.047,0.454,0.307,0.406,0.579L5.306,34.485	C5.262,34.737,5.036,34.911,4.787,34.898z"/><radialGradient id="YpVZrrTnJ2yr~sw8OFRIdc" cx="4.398" cy="32.989" r="12.244" gradientTransform="matrix(1 0 0 .4578 0 17.888)" gradientUnits="userSpaceOnUse"><stop offset="0" stop-color="#f8e1ab"/><stop offset=".535" stop-color="#d5b376"/><stop offset="1" stop-color="#a06c25"/></radialGradient><path fill="url(#YpVZrrTnJ2yr~sw8OFRIdc)" d="M9.5,38c5.078,0,9.226-2.516,9.487-5.682C19.001,32.146,18.855,32,18.683,32H0.317	c-0.172,0-0.318,0.146-0.304,0.318C0.274,35.484,4.422,38,9.5,38z"/><linearGradient id="YpVZrrTnJ2yr~sw8OFRIdd" x1=".012" x2="18.988" y1="32.231" y2="32.231" gradientUnits="userSpaceOnUse"><stop offset=".006" stop-color="#fff" stop-opacity=".5"/><stop offset=".952" stop-color="#fff" stop-opacity="0"/></linearGradient><path fill="url(#YpVZrrTnJ2yr~sw8OFRIdd)" d="M18.964,32.463c0.006-0.049,0.019-0.096,0.023-0.145C19.001,32.146,18.855,32,18.683,32H0.317	c-0.172,0-0.318,0.146-0.304,0.318c0.004,0.049,0.017,0.096,0.023,0.145H18.964z"/><linearGradient id="YpVZrrTnJ2yr~sw8OFRIde" x1="1.549" x2="7.693" y1="36.035" y2="34.678" gradientUnits="userSpaceOnUse"><stop offset=".006" stop-color="#fff" stop-opacity=".5"/><stop offset=".952" stop-color="#fff" stop-opacity="0"/></linearGradient><path fill="url(#YpVZrrTnJ2yr~sw8OFRIde)" d="M4.926,33H1.411c0.716,1.451,3.523,3.982,7.578,4.457C7.294,36.648,6.032,35.894,4.926,33z"/><linearGradient id="YpVZrrTnJ2yr~sw8OFRIdf" x1="37.9" x2="28.97" y1="25.851" y2="11.797" gradientUnits="userSpaceOnUse"><stop offset="0" stop-color="#919191"/><stop offset="1" stop-color="#e0e0e0"/></linearGradient><path fill="url(#YpVZrrTnJ2yr~sw8OFRIdf)" d="M46.5,33c-0.202,0-0.393-0.124-0.468-0.324L38.56,10.082L30.98,32.64	c-0.077,0.265-0.353,0.412-0.62,0.341c-0.265-0.078-0.417-0.355-0.34-0.62l8-24c0.06-0.207,0.246-0.352,0.461-0.36	c0.222,0.015,0.412,0.123,0.487,0.324l8,24c0.097,0.259-0.034,0.547-0.292,0.644C46.618,32.99,46.559,33,46.5,33z"/><linearGradient id="YpVZrrTnJ2yr~sw8OFRIdg" x1="39.782" x2="32.99" y1="40.401" y2="4.901" gradientTransform="rotate(3.139 6.989 21.993)" gradientUnits="userSpaceOnUse"><stop offset="0" stop-color="#6a6a6a"/><stop offset="1" stop-color="#e0e0e0"/></linearGradient><path fill="url(#YpVZrrTnJ2yr~sw8OFRIdg)" d="M33.787,34.898c-0.02-0.001-0.04-0.003-0.06-0.007c-0.272-0.047-0.454-0.307-0.406-0.579	l4.372-24.797c0.048-0.271,0.31-0.459,0.579-0.405c0.272,0.047,0.454,0.307,0.406,0.579l-4.372,24.797	C34.262,34.737,34.036,34.911,33.787,34.898z"/><radialGradient id="YpVZrrTnJ2yr~sw8OFRIdh" cx="33.398" cy="32.989" r="12.244" gradientTransform="matrix(1 0 0 .4578 0 17.888)" gradientUnits="userSpaceOnUse"><stop offset="0" stop-color="#f8e1ab"/><stop offset=".535" stop-color="#d5b376"/><stop offset="1" stop-color="#a06c25"/></radialGradient><path fill="url(#YpVZrrTnJ2yr~sw8OFRIdh)" d="M38.5,38c5.078,0,9.226-2.516,9.487-5.682C48.001,32.146,47.855,32,47.683,32H29.317	c-0.172,0-0.318,0.146-0.304,0.318C29.274,35.484,33.422,38,38.5,38z"/><linearGradient id="YpVZrrTnJ2yr~sw8OFRIdi" x1="29.012" x2="47.988" y1="32.231" y2="32.231" gradientUnits="userSpaceOnUse"><stop offset=".006" stop-color="#fff" stop-opacity=".5"/><stop offset=".952" stop-color="#fff" stop-opacity="0"/></linearGradient><path fill="url(#YpVZrrTnJ2yr~sw8OFRIdi)" d="M47.964,32.463c0.006-0.049,0.019-0.096,0.023-0.145C48.001,32.146,47.855,32,47.683,32	H29.317c-0.172,0-0.318,0.146-0.304,0.318c0.004,0.049,0.017,0.096,0.023,0.145H47.964z"/><linearGradient id="YpVZrrTnJ2yr~sw8OFRIdj" x1="30.549" x2="36.693" y1="36.035" y2="34.678" gradientUnits="userSpaceOnUse"><stop offset=".006" stop-color="#fff" stop-opacity=".5"/><stop offset=".952" stop-color="#fff" stop-opacity="0"/></linearGradient><path fill="url(#YpVZrrTnJ2yr~sw8OFRIdj)" d="M33.926,33h-3.515c0.716,1.451,3.523,3.982,7.578,4.457	C36.294,36.648,35.032,35.894,33.926,33z"/><path fill="#7b5424" d="M33,6.271c2.272,0,5.899,3.002,9.167,0.562c0.117-0.09,0.252,0,0.243,0.171	C41.635,8.392,39.816,9.271,39,9.271c-3,0-3.149-1-6-1h-9v-2H33z"/><path fill="#7b5424" d="M15,6.271c-2.272,0-5.862,3.041-9.13,0.601C5.587,6.661,5.466,6.72,5.637,7.074	C6.32,8.488,8.184,9.271,9,9.271c3,0,3.149-1,6-1h9v-2H15z"/><linearGradient id="YpVZrrTnJ2yr~sw8OFRIdk" x1="31.52" x2="50" y1="7.5" y2="7.5" gradientTransform="matrix(-1 0 0 1 74 0)" gradientUnits="userSpaceOnUse"><stop offset="0" stop-color="#cca65c"/><stop offset=".78" stop-color="#a77831"/><stop offset="1" stop-color="#99621a"/></linearGradient><path fill="url(#YpVZrrTnJ2yr~sw8OFRIdk)" d="M33,6c2.272,0,5.893,3.206,9.161,0.766c0.283-0.211,0.44-0.005,0.202,0.309	C41.306,8.463,39.816,9,39,9c-3,0-3.149-1-6-1h-9V6H33z"/><linearGradient id="YpVZrrTnJ2yr~sw8OFRIdl" x1="35.351" x2="36.351" y1="9" y2="9" gradientTransform="matrix(-1 0 0 1 74 0)" gradientUnits="userSpaceOnUse"><stop offset="0" stop-color="#e2b971"/><stop offset="1" stop-color="#99621a"/></linearGradient><path fill="url(#YpVZrrTnJ2yr~sw8OFRIdl)" d="M39,10.5v-3C39,7.224,38.776,7,38.5,7l0,0C38.224,7,38,7.224,38,7.5v3	c0,0.276,0.224,0.5,0.5,0.5l0,0C38.776,11,39,10.776,39,10.5z"/><linearGradient id="YpVZrrTnJ2yr~sw8OFRIdm" x1="23" x2="25" y1="23" y2="23" gradientUnits="userSpaceOnUse"><stop offset="0" stop-color="#cca65c"/><stop offset=".383" stop-color="#f8e1ab"/><stop offset=".932" stop-color="#a77831"/><stop offset="1" stop-color="#99621a"/></linearGradient><rect width="2" height="36" x="23" y="5" fill="url(#YpVZrrTnJ2yr~sw8OFRIdm)"/><linearGradient id="YpVZrrTnJ2yr~sw8OFRIdn" x1="24" x2="24" y1="10.802" y2="13.249" gradientUnits="userSpaceOnUse"><stop offset="0" stop-color="#a06d26"/><stop offset="1" stop-color="#a4732b" stop-opacity="0"/></linearGradient><rect width="2" height="9" x="23" y="6" fill="url(#YpVZrrTnJ2yr~sw8OFRIdn)"/><linearGradient id="YpVZrrTnJ2yr~sw8OFRIdo" x1="5.52" x2="24" y1="7.5" y2="7.5" gradientUnits="userSpaceOnUse"><stop offset="0" stop-color="#cca65c"/><stop offset=".78" stop-color="#a77831"/><stop offset="1" stop-color="#99621a"/></linearGradient><path fill="url(#YpVZrrTnJ2yr~sw8OFRIdo)" d="M15,6c-2.272,0-5.893,3.206-9.161,0.766c-0.283-0.211-0.44-0.005-0.202,0.309	C6.694,8.463,8.184,9,9,9c3,0,3.149-1,6-1h9V6H15z"/><linearGradient id="YpVZrrTnJ2yr~sw8OFRIdp" x1="9.351" x2="10.351" y1="9" y2="9" gradientUnits="userSpaceOnUse"><stop offset="0" stop-color="#e2b971"/><stop offset="1" stop-color="#99621a"/></linearGradient><path fill="url(#YpVZrrTnJ2yr~sw8OFRIdp)" d="M9,10.5v-3C9,7.224,9.224,7,9.5,7h0C9.776,7,10,7.224,10,7.5v3c0,0.276-0.224,0.5-0.5,0.5h0	C9.224,11,9,10.776,9,10.5z"/><linearGradient id="YpVZrrTnJ2yr~sw8OFRIdq" x1="25.435" x2="31.904" y1="6.949" y2="7.057" gradientUnits="userSpaceOnUse"><stop offset="0" stop-color="#775124"/><stop offset="1" stop-color="#a4732b" stop-opacity="0"/></linearGradient><rect width="7" height="2" x="25" y="6" fill="url(#YpVZrrTnJ2yr~sw8OFRIdq)"/><radialGradient id="YpVZrrTnJ2yr~sw8OFRIdr" cx="22.101" cy="40.335" r="3.576" gradientTransform="matrix(1 0 0 .9699 0 1.214)" gradientUnits="userSpaceOnUse"><stop offset="0" stop-color="#f8e1ab"/><stop offset=".535" stop-color="#d5b376"/><stop offset="1" stop-color="#b58a46"/></radialGradient><path fill="url(#YpVZrrTnJ2yr~sw8OFRIdr)" d="M29.91,44c-0.477-2.837-2.938-5-5.91-5s-5.433,2.163-5.91,5H29.91z"/><linearGradient id="YpVZrrTnJ2yr~sw8OFRIds" x1="22.415" x2="25.585" y1="7.489" y2="7.489" gradientUnits="userSpaceOnUse"><stop offset="0" stop-color="#cca65c"/><stop offset=".314" stop-color="#f8e1ab"/><stop offset="1" stop-color="#b68b47"/></linearGradient><rect width="3.17" height="6.287" x="22.415" y="4.346" fill="url(#YpVZrrTnJ2yr~sw8OFRIds)"/><radialGradient id="YpVZrrTnJ2yr~sw8OFRIdt" cx="23.378" cy="1.521" r="2" gradientUnits="userSpaceOnUse"><stop offset="0" stop-color="#f8e1ab"/><stop offset=".535" stop-color="#d5b376"/><stop offset="1" stop-color="#b58a46"/></radialGradient><circle cx="24" cy="2" r="2" fill="url(#YpVZrrTnJ2yr~sw8OFRIdt)"/><circle cx="24" cy="7" r=".532" fill="#a06d26"/><linearGradient id="YpVZrrTnJ2yr~sw8OFRIdu" x1="23.973" x2="23.973" y1="4.981" y2="6.3" gradientUnits="userSpaceOnUse"><stop offset="0" stop-color="#a06d26" stop-opacity=".6"/><stop offset="1" stop-color="#a4732b" stop-opacity="0"/></linearGradient><rect width="3.16" height="1.468" x="22.394" y="5" fill="url(#YpVZrrTnJ2yr~sw8OFRIdu)"/><linearGradient id="YpVZrrTnJ2yr~sw8OFRIdv" x1="22" x2="26" y1="4.5" y2="4.5" gradientUnits="userSpaceOnUse"><stop offset="0" stop-color="#cca65c"/><stop offset=".314" stop-color="#f8e1ab"/><stop offset=".78" stop-color="#a77831"/><stop offset="1" stop-color="#99621a"/></linearGradient><path fill="url(#YpVZrrTnJ2yr~sw8OFRIdv)" d="M25.5,5h-3C22.224,5,22,4.776,22,4.5v0C22,4.224,22.224,4,22.5,4h3C25.776,4,26,4.224,26,4.5	v0C26,4.776,25.776,5,25.5,5z"/><linearGradient id="YpVZrrTnJ2yr~sw8OFRIdw" x1="22" x2="26" y1="10.5" y2="10.5" gradientUnits="userSpaceOnUse"><stop offset="0" stop-color="#cca65c"/><stop offset=".314" stop-color="#f8e1ab"/><stop offset=".78" stop-color="#a77831"/><stop offset="1" stop-color="#99621a"/></linearGradient><path fill="url(#YpVZrrTnJ2yr~sw8OFRIdw)" d="M25.5,11h-3c-0.276,0-0.5-0.224-0.5-0.5v0c0-0.276,0.224-0.5,0.5-0.5h3	c0.276,0,0.5,0.224,0.5,0.5v0C26,10.776,25.776,11,25.5,11z"/><linearGradient id="YpVZrrTnJ2yr~sw8OFRIdx" x1="24.09" x2="23.687" y1="44.578" y2="42.004" gradientUnits="userSpaceOnUse"><stop offset="0" stop-color="#775124"/><stop offset="1" stop-color="#a4732b" stop-opacity="0"/></linearGradient><path fill="url(#YpVZrrTnJ2yr~sw8OFRIdx)" d="M19.555,41c-0.744,0.828-1.272,1.854-1.465,3h11.82c-0.193-1.146-0.721-2.172-1.465-3H19.555	z"/><linearGradient id="YpVZrrTnJ2yr~sw8OFRIdy" x1="15" x2="33" y1="45" y2="45" gradientUnits="userSpaceOnUse"><stop offset="0" stop-color="#cca65c"/><stop offset=".216" stop-color="#f8e1ab"/><stop offset=".78" stop-color="#a77831"/><stop offset="1" stop-color="#99621a"/></linearGradient><path fill="url(#YpVZrrTnJ2yr~sw8OFRIdy)" d="M30.404,43H17.596C16.162,43,15,44.162,15,45.596v1.199C15,46.908,15.092,47,15.205,47h17.59	C32.908,47,33,46.908,33,46.795v-1.199C33,44.162,31.838,43,30.404,43z"/><linearGradient id="YpVZrrTnJ2yr~sw8OFRIdz" x1="23.497" x2="23.867" y1="41.114" y2="44.807" gradientUnits="userSpaceOnUse"><stop offset=".006" stop-color="#fff" stop-opacity=".5"/><stop offset=".952" stop-color="#fff" stop-opacity="0"/></linearGradient><path fill="url(#YpVZrrTnJ2yr~sw8OFRIdz)" d="M30.404,43H17.596C16.162,43,15,44.162,15,45.596v1.2C15,46.908,15.092,47,15.205,47h0.263	v-1.358c0-1.208,0.979-2.187,2.187-2.187h12.689c1.208,0,2.187,0.979,2.187,2.187V47h0.263C32.908,47,33,46.908,33,46.795v-1.2	C33,44.162,31.838,43,30.404,43z"/><path fill="#a06d26" d="M15,46.646v0.149C15,46.908,15.092,47,15.205,47h17.59C32.908,47,33,46.908,33,46.795v-0.149H15z"/></svg>