<svg xmlns="http://www.w3.org/2000/svg" viewBox="0 0 48 48"><linearGradient id="I6HmOir6thQKi0WwNmTAna" x1="22.05" x2="26" y1="9" y2="9" gradientUnits="userSpaceOnUse"><stop offset=".001" stop-color="#656569"/><stop offset=".16" stop-color="#96969b"/><stop offset=".299" stop-color="#bbbac1"/><stop offset=".372" stop-color="#c9c8cf"/><stop offset=".734" stop-color="#404042"/><stop offset="1" stop-color="#636366"/></linearGradient><rect width="4" height="4" x="22" y="7" fill="url(#I6HmOir6thQKi0WwNmTAna)"/><linearGradient id="I6HmOir6thQKi0WwNmTAnb" x1="24" x2="24" y1="9.032" y2="7.173" gradientUnits="userSpaceOnUse"><stop offset="0" stop-opacity=".2"/><stop offset="1"/></linearGradient><rect width="4" height="2" x="22" y="7" fill="url(#I6HmOir6thQKi0WwNmTAnb)" opacity=".5"/><linearGradient id="I6HmOir6thQKi0WwNmTAnc" x1="12.361" x2="15.851" y1="45.358" y2="45.358" gradientTransform="rotate(45.001 53.68 58.09) scale(.8105 .8588)" gradientUnits="userSpaceOnUse"><stop offset=".001" stop-color="#656569"/><stop offset=".175" stop-color="#96969b"/><stop offset=".327" stop-color="#bbbac1"/><stop offset=".407" stop-color="#c9c8cf"/><stop offset=".588" stop-color="#8a898e"/><stop offset=".759" stop-color="#555457"/><stop offset=".841" stop-color="#404042"/><stop offset="1" stop-color="#464648"/></linearGradient><polygon fill="url(#I6HmOir6thQKi0WwNmTAnc)" points="37.263,16.763 35.237,14.737 37.384,12.59 39.41,14.616"/><linearGradient id="I6HmOir6thQKi0WwNmTAnd" x1="12.361" x2="15.851" y1="42.419" y2="42.419" gradientTransform="matrix(.5731 .5731 -.226 .226 39.237 -3.38)" gradientUnits="userSpaceOnUse"><stop offset="0" stop-opacity=".2"/><stop offset="1"/></linearGradient><polygon fill="url(#I6HmOir6thQKi0WwNmTAnd)" points="38.057,15.97 36.585,13.389 37.384,12.59 39.41,14.616" opacity=".5"/><linearGradient id="I6HmOir6thQKi0WwNmTAne" x1="34.831" x2="38.681" y1="45.154" y2="45.154" gradientTransform="rotate(45.001 62.92 9.324) scale(1.3233 .6542)" gradientUnits="userSpaceOnUse"><stop offset="0" stop-color="#78787d"/><stop offset=".192" stop-color="#b4b3b9"/><stop offset=".333" stop-color="#d9d8df"/><stop offset=".407" stop-color="#e7e6ed"/><stop offset=".582" stop-color="#9f9ea3"/><stop offset=".727" stop-color="#69696c"/><stop offset=".796" stop-color="#545457"/><stop offset="1" stop-color="#707073"/></linearGradient><path fill="url(#I6HmOir6thQKi0WwNmTAne)" d="M39.037,15.84l-2.877-2.877c-0.213-0.213-0.213-0.558,0-0.771l1.033-1.033	c0.213-0.213,0.558-0.213,0.771,0l2.877,2.877c0.213,0.213,0.213,0.558,0,0.771l-1.033,1.033	C39.595,16.053,39.249,16.053,39.037,15.84z"/><linearGradient id="I6HmOir6thQKi0WwNmTAnf" x1="108.532" x2="112.023" y1="-45.401" y2="-45.401" gradientTransform="matrix(-.5731 .5731 .6073 .6073 101.439 -20.942)" gradientUnits="userSpaceOnUse"><stop offset="0" stop-color="#464648"/><stop offset=".159" stop-color="#404042"/><stop offset=".241" stop-color="#555457"/><stop offset=".412" stop-color="#8a898e"/><stop offset=".593" stop-color="#c9c8cf"/><stop offset=".673" stop-color="#bbbac1"/><stop offset=".825" stop-color="#96969b"/><stop offset=".999" stop-color="#656569"/></linearGradient><polygon fill="url(#I6HmOir6thQKi0WwNmTAnf)" points="10.737,16.763 12.763,14.737 10.616,12.59 8.59,14.616"/><linearGradient id="I6HmOir6thQKi0WwNmTAng" x1="108.532" x2="112.023" y1="-201.43" y2="-201.43" gradientTransform="matrix(-.5731 .5731 .226 .226 119 -3.38)" gradientUnits="userSpaceOnUse"><stop offset="0" stop-opacity=".2"/><stop offset="1"/></linearGradient><polygon fill="url(#I6HmOir6thQKi0WwNmTAng)" points="9.943,15.97 11.415,13.389 10.616,12.59 8.59,14.616" opacity=".5"/><linearGradient id="I6HmOir6thQKi0WwNmTAnh" x1="93.74" x2="97.59" y1="-73.983" y2="-73.983" gradientTransform="rotate(134.999 75.257 6.71) scale(1.3233 -.6542)" gradientUnits="userSpaceOnUse"><stop offset="0" stop-color="#707073"/><stop offset=".204" stop-color="#545457"/><stop offset=".273" stop-color="#69696c"/><stop offset=".418" stop-color="#9f9ea3"/><stop offset=".593" stop-color="#e7e6ed"/><stop offset=".667" stop-color="#d9d8df"/><stop offset=".808" stop-color="#b4b3b9"/><stop offset="1" stop-color="#78787d"/></linearGradient><path fill="url(#I6HmOir6thQKi0WwNmTAnh)" d="M8.963,15.84l2.877-2.877c0.213-0.213,0.213-0.558,0-0.771l-1.033-1.033	c-0.213-0.213-0.558-0.213-0.771,0L7.16,14.037c-0.213,0.213-0.213,0.558,0,0.771l1.033,1.033	C8.405,16.053,8.751,16.053,8.963,15.84z"/><linearGradient id="I6HmOir6thQKi0WwNmTAni" x1="20" x2="28" y1="6" y2="6" gradientUnits="userSpaceOnUse"><stop offset="0" stop-color="#4f4f52"/><stop offset=".077" stop-color="#c2c1c4"/><stop offset=".134" stop-color="#909094"/><stop offset=".163" stop-color="#7b7b80"/><stop offset=".295" stop-color="#e7e6eb"/><stop offset=".324" stop-color="#d2d1d6"/><stop offset=".404" stop-color="#9b9b9f"/><stop offset=".442" stop-color="#86868a"/><stop offset=".56" stop-color="#d8d7db"/><stop offset=".626" stop-color="#a5a4a8"/><stop offset=".702" stop-color="#6f6f71"/><stop offset=".739" stop-color="#5a5a5c"/><stop offset=".844" stop-color="#a3a3a6"/><stop offset=".858" stop-color="#939396"/><stop offset=".911" stop-color="#5d5d5f"/><stop offset=".937" stop-color="#48484a"/><stop offset="1" stop-color="#969699"/></linearGradient><path fill="url(#I6HmOir6thQKi0WwNmTAni)" d="M28,7c0,0.553-0.447,1-1,1h-6c-0.553,0-1-0.447-1-1V5c0-0.553,0.447-1,1-1h6	c0.553,0,1,0.447,1,1V7z"/><radialGradient id="I6HmOir6thQKi0WwNmTAnj" cx="-180" cy="89.046" r="16.977" gradientTransform="rotate(180 -78 58)" gradientUnits="userSpaceOnUse"><stop offset=".813" stop-color="#8f8f8f"/><stop offset=".9" stop-color="#e8e8e8"/><stop offset=".911" stop-color="#d5d5d5"/><stop offset=".938" stop-color="#aeaeae"/><stop offset=".963" stop-color="#919191"/><stop offset=".984" stop-color="gray"/><stop offset="1" stop-color="#7a7a7a"/></radialGradient><circle cx="24" cy="27" r="17" fill="url(#I6HmOir6thQKi0WwNmTAnj)"/><radialGradient id="I6HmOir6thQKi0WwNmTAnk" cx="-112" cy="89" r="14" gradientTransform="matrix(1 0 0 -1 136 116)" gradientUnits="userSpaceOnUse"><stop offset=".171" stop-color="#fff"/><stop offset=".92" stop-color="#fff"/><stop offset=".932" stop-color="#fafafa"/><stop offset=".946" stop-color="#ebebeb"/><stop offset=".962" stop-color="#d3d3d3"/><stop offset=".978" stop-color="#b0b0b0"/><stop offset=".996" stop-color="#858585"/><stop offset="1" stop-color="#787878"/></radialGradient><circle cx="24" cy="27" r="14" fill="url(#I6HmOir6thQKi0WwNmTAnk)"/><radialGradient id="I6HmOir6thQKi0WwNmTAnl" cx="-112" cy="96" r="3" gradientTransform="matrix(1 0 0 -1 136 116)" gradientUnits="userSpaceOnUse"><stop offset=".179" stop-color="#c9c9c9"/><stop offset=".2" stop-color="#fff"/><stop offset=".837" stop-color="#fff"/><stop offset=".875" stop-color="#c9c9c9"/></radialGradient><circle cx="24" cy="20" r="3" fill="url(#I6HmOir6thQKi0WwNmTAnl)"/><line x1="31.5" x2="24" y1="19.5" y2="27" fill="none" stroke="#d42a2a" stroke-linecap="round" stroke-miterlimit="10"/><radialGradient id="I6HmOir6thQKi0WwNmTAnm" cx="-112" cy="89" r="2" gradientTransform="matrix(1 0 0 -1 136 116)" gradientUnits="userSpaceOnUse"><stop offset=".485" stop-color="#b01313"/><stop offset=".507" stop-color="#d42b2b"/></radialGradient><circle cx="24" cy="27" r="2" fill="url(#I6HmOir6thQKi0WwNmTAnm)"/><polygon fill="#c9c9c9" points="24.213,20.177 23.823,19.787 25.683,18.335"/><circle cx="24" cy="14.5" r=".5" fill="#7a7a7a"/><circle cx="24" cy="39.5" r=".5" fill="#7a7a7a"/><circle cx="36.5" cy="27" r=".5" fill="#7a7a7a"/><circle cx="11.5" cy="27" r=".5" fill="#7a7a7a"/><circle cx="17.75" cy="16.175" r=".5" fill="#7a7a7a"/><circle cx="30.25" cy="37.825" r=".5" fill="#7a7a7a"/><circle cx="34.825" cy="20.75" r=".5" fill="#7a7a7a"/><circle cx="13.175" cy="33.25" r=".5" fill="#7a7a7a"/><circle cx="13.175" cy="20.75" r=".5" fill="#7a7a7a"/><circle cx="34.825" cy="33.25" r=".5" fill="#7a7a7a"/><circle cx="30.25" cy="16.175" r=".5" fill="#7a7a7a"/><circle cx="17.75" cy="37.825" r=".5" fill="#7a7a7a"/></svg>