<svg xmlns="http://www.w3.org/2000/svg" viewBox="0 0 48 48"><linearGradient id="Dhzup7lyZ_a5q5FAcesjEa" x1="9" x2="39" y1="20" y2="20" gradientUnits="userSpaceOnUse"><stop offset=".024" stop-color="#cc1d1f"/><stop offset=".321" stop-color="#f06666"/><stop offset=".631" stop-color="#e51e25"/><stop offset=".803" stop-color="#d63838"/><stop offset=".981" stop-color="#9a1f18"/></linearGradient><path fill="url(#Dhzup7lyZ_a5q5FAcesjEa)" d="M35.848,6H12.152c-1.269,0-2.308,0.973-2.346,2.198L9,34h30L38.194,8.198	C38.155,6.973,37.116,6,35.848,6z"/><circle cx="28.5" cy="20.5" r="8.5" fill="#b32a25"/><path fill="#e32026" d="M24.187,16.533c0-1.746,1.931-3.161,4.313-3.161s4.313,1.415,4.313,3.161	c0,1.152-1.931,1.595-4.313,1.595S24.187,17.537,24.187,16.533z"/><path fill="#a6251f" d="M32.813,24.842c0,1.746-1.931,3.161-4.313,3.161s-4.313-1.415-4.313-3.161	c0-1.152,1.931-1.595,4.313-1.595S32.813,23.838,32.813,24.842z"/><radialGradient id="Dhzup7lyZ_a5q5FAcesjEb" cx="17.181" cy="1.225" r="3.479" gradientTransform="matrix(1 0 0 .1426 .8 7.518)" gradientUnits="userSpaceOnUse"><stop offset="0" stop-color="#fff"/><stop offset=".999" stop-color="#fff" stop-opacity="0"/></radialGradient><ellipse cx="18.083" cy="7.688" fill="url(#Dhzup7lyZ_a5q5FAcesjEb)" rx="3.865" ry=".593"/><linearGradient id="Dhzup7lyZ_a5q5FAcesjEc" x1="7" x2="41" y1="40.5" y2="40.5" gradientUnits="userSpaceOnUse"><stop offset="0" stop-color="#666"/><stop offset=".999" stop-color="#171714"/></linearGradient><path fill="url(#Dhzup7lyZ_a5q5FAcesjEc)" d="M39.937,37H8.062C7.476,37,7,37.476,7,38.063V44h34v-5.938C41,37.476,40.524,37,39.937,37z"/><linearGradient id="Dhzup7lyZ_a5q5FAcesjEd" x1="8" x2="40" y1="35.5" y2="35.5" gradientUnits="userSpaceOnUse"><stop offset="0" stop-color="#999"/><stop offset=".403" stop-color="#eee"/><stop offset="1" stop-color="#9b9b9b"/></linearGradient><rect width="32" height="3" x="8" y="34" fill="url(#Dhzup7lyZ_a5q5FAcesjEd)"/><linearGradient id="Dhzup7lyZ_a5q5FAcesjEe" x1="15" x2="32" y1="20.5" y2="20.5" gradientTransform="rotate(180 21.5 20.5)" gradientUnits="userSpaceOnUse"><stop offset="0" stop-color="#cb1d1f"/><stop offset=".999" stop-color="#e22227"/></linearGradient><circle cx="19.5" cy="20.5" r="8.5" fill="url(#Dhzup7lyZ_a5q5FAcesjEe)"/><radialGradient id="Dhzup7lyZ_a5q5FAcesjEf" cx="19.5" cy="20.5" r="7.5" gradientUnits="userSpaceOnUse"><stop offset="0" stop-color="#f68381"/><stop offset="1" stop-color="#e51e25"/></radialGradient><circle cx="19.5" cy="20.5" r="7.5" fill="url(#Dhzup7lyZ_a5q5FAcesjEf)"/><radialGradient id="Dhzup7lyZ_a5q5FAcesjEg" cx="19.633" cy="20.589" r="19.316" gradientTransform="matrix(1 0 0 1.0229 0 -.471)" gradientUnits="userSpaceOnUse"><stop offset="0" stop-color="#fff"/><stop offset=".084" stop-color="#fff" stop-opacity=".916"/><stop offset=".999" stop-color="#fff" stop-opacity="0"/></radialGradient><polygon fill="url(#Dhzup7lyZ_a5q5FAcesjEg)" points="24.242,21.641 35.5,20.151 24.368,18.931 33.324,12.208 22.878,16.664 27.217,6.169 20.595,15.2 19.25,4.082 17.886,15.356 10.967,6.352 15.477,16.602 5.176,12.208 14.258,19.026 3,20.516 14.132,21.735 5.176,28.459 15.622,24.003 11.283,34.497 17.905,25.467 19.25,36.584 20.614,25.31 27.533,34.315 23.023,24.065 33.324,28.459"/><radialGradient id="Dhzup7lyZ_a5q5FAcesjEh" cx="19.532" cy="20.519" r="4.819" gradientTransform="matrix(.8604 -.5097 .5214 .8801 -7.915 12.246)" gradientUnits="userSpaceOnUse"><stop offset="0" stop-color="#fff"/><stop offset=".999" stop-color="#fff" stop-opacity="0"/></radialGradient><polygon fill="url(#Dhzup7lyZ_a5q5FAcesjEh)" points="16.893,16.002 19.447,19.327 21.926,15.946 20.325,19.82 24.492,20.277 20.336,20.827 22.024,24.664 19.47,21.34 16.99,24.721 18.592,20.846 14.425,20.39 18.581,19.84"/><radialGradient id="Dhzup7lyZ_a5q5FAcesjEi" cx="16.264" cy="27.808" r="3.479" gradientTransform="matrix(1 0 0 .1426 .8 30.312)" gradientUnits="userSpaceOnUse"><stop offset="0" stop-color="#fff"/><stop offset=".999" stop-color="#fff" stop-opacity="0"/></radialGradient><ellipse cx="17.167" cy="34.271" fill="url(#Dhzup7lyZ_a5q5FAcesjEi)" rx="3.865" ry=".593"/><radialGradient id="Dhzup7lyZ_a5q5FAcesjEj" cx="16.264" cy="31.142" r="3.479" gradientTransform="matrix(1.8975 0 0 .1426 -13.89 33.17)" gradientUnits="userSpaceOnUse"><stop offset="0" stop-color="#ababab"/><stop offset=".999" stop-color="#c7c7c7" stop-opacity="0"/></radialGradient><ellipse cx="17.167" cy="37.604" fill="url(#Dhzup7lyZ_a5q5FAcesjEj)" rx="7.333" ry=".593"/></svg>