<svg xmlns="http://www.w3.org/2000/svg" viewBox="0 0 48 48"><linearGradient id="u9tJqISRFFMeBoFdK0iW6a" x1="20.023" x2="26.674" y1="2.764" y2="11.52" gradientUnits="userSpaceOnUse"><stop offset="0" stop-color="#c7c7c7"/><stop offset="1" stop-color="#666"/></linearGradient><path fill="url(#u9tJqISRFFMeBoFdK0iW6a)" d="M24,13.5c-3.032,0-5.5-2.468-5.5-5.5s2.468-5.5,5.5-5.5s5.5,2.468,5.5,5.5	S27.032,13.5,24,13.5z M24,3.5c-2.481,0-4.5,2.019-4.5,4.5s2.019,4.5,4.5,4.5s4.5-2.019,4.5-4.5S26.481,3.5,24,3.5z"/><linearGradient id="u9tJqISRFFMeBoFdK0iW6b" x1="24" x2="24" y1="11.167" y2="-3.792" gradientUnits="userSpaceOnUse"><stop offset="0" stop-color="#979797"/><stop offset=".973" stop-color="#353535"/><stop offset="1" stop-color="#323232"/></linearGradient><path fill="url(#u9tJqISRFFMeBoFdK0iW6b)" d="M24,3c-2.761,0-5,2.239-5,5s2.239,5,5,5s5-2.239,5-5S26.761,3,24,3z M24,12.5	c-2.481,0-4.5-2.019-4.5-4.5s2.019-4.5,4.5-4.5s4.5,2.019,4.5,4.5S26.481,12.5,24,12.5z"/><linearGradient id="u9tJqISRFFMeBoFdK0iW6c" x1="27.466" x2="23.958" y1="11.71" y2="11.716" gradientUnits="userSpaceOnUse"><stop offset=".007" stop-opacity="0"/><stop offset=".893" stop-opacity=".8"/></linearGradient><path fill="url(#u9tJqISRFFMeBoFdK0iW6c)" d="M28,11.763v-1.745c-0.597,1.177-1.683,2.06-3,2.361v1.025	C26.173,13.188,27.214,12.598,28,11.763z"/><linearGradient id="u9tJqISRFFMeBoFdK0iW6d" x1="22.452" x2="18.188" y1="11.695" y2="11.703" gradientTransform="matrix(-1 0 0 1 43 0)" gradientUnits="userSpaceOnUse"><stop offset=".007" stop-opacity="0"/><stop offset=".893" stop-opacity=".8"/></linearGradient><path fill="url(#u9tJqISRFFMeBoFdK0iW6d)" d="M20,11.763v-1.745c0.597,1.177,1.683,2.06,3,2.361v1.025	C21.827,13.188,20.786,12.598,20,11.763z"/><linearGradient id="u9tJqISRFFMeBoFdK0iW6e" x1="18" x2="18" y1="18.303" y2="16.436" gradientUnits="userSpaceOnUse"><stop offset="0" stop-color="#5c5c62"/><stop offset="1" stop-color="#989898"/></linearGradient><polygon fill="url(#u9tJqISRFFMeBoFdK0iW6e)" points="12,18 24,19 24,16 12,17"/><linearGradient id="u9tJqISRFFMeBoFdK0iW6f" x1="34" x2="34" y1="18.303" y2="16.436" gradientTransform="matrix(-1 0 0 1 64 0)" gradientUnits="userSpaceOnUse"><stop offset="0" stop-color="#5c5c62"/><stop offset="1" stop-color="#989898"/></linearGradient><polygon fill="url(#u9tJqISRFFMeBoFdK0iW6f)" points="36,18 24,19 24,16 36,17"/><linearGradient id="u9tJqISRFFMeBoFdK0iW6g" x1="9.088" x2="3.459" y1="32.289" y2="26.661" gradientUnits="userSpaceOnUse"><stop offset="0" stop-color="#5d5d63"/><stop offset="1" stop-color="#989898"/></linearGradient><path fill="url(#u9tJqISRFFMeBoFdK0iW6g)" d="M4.023,31.483l1.957-6.293c0.085-0.236,0.413-0.256,0.525-0.032l3.453,6.282	C10.088,31.697,9.9,32,9.611,32H7.039h-2.65C4.12,32,3.933,31.735,4.023,31.483z"/><linearGradient id="u9tJqISRFFMeBoFdK0iW6h" x1="9.319" x2="16.697" y1="28.5" y2="28.5" gradientTransform="matrix(-1 0 0 1 54.775 0)" gradientUnits="userSpaceOnUse"><stop offset="0" stop-color="#5d5d63"/><stop offset="1" stop-color="#989898"/></linearGradient><path fill="url(#u9tJqISRFFMeBoFdK0iW6h)" d="M43.977,31.483l-1.957-6.293c-0.085-0.236-0.413-0.256-0.525-0.032l-3.453,6.282	C37.912,31.697,38.1,32,38.389,32h2.572h2.649C43.879,32,44.067,31.735,43.977,31.483z"/><linearGradient id="u9tJqISRFFMeBoFdK0iW6i" x1="7.966" x2="27.21" y1="14.558" y2="36.075" gradientUnits="userSpaceOnUse"><stop offset="0" stop-color="#7d7d7d"/><stop offset="1" stop-color="#989898"/></linearGradient><path fill="url(#u9tJqISRFFMeBoFdK0iW6i)" d="M22,9.688l-0.938,24.917c-0.083,1.458-1.437,5.083-5.437,4.271	c-4.488-0.912-8.13-4.896-8.589-9.45C7.012,29.184,6.816,29,6.575,29H6.497c-0.285,0-0.514,0.227-0.52,0.512	C5.933,31.753,6.379,40.729,16,44c2.071,0.69,4.617,0.904,5.996,0.97L24,47V9C22.681,8.953,22.021,9.396,22,9.688z"/><linearGradient id="u9tJqISRFFMeBoFdK0iW6j" x1="20.323" x2="37.294" y1="27.388" y2="46.364" gradientUnits="userSpaceOnUse"><stop offset="0" stop-color="#fff" stop-opacity="0"/><stop offset="1" stop-color="#fff"/></linearGradient><path fill="url(#u9tJqISRFFMeBoFdK0iW6j)" d="M6.263,29.324c0.507,5.033,4.532,9.436,9.491,10.443c4.42,0.898,5.917-3.108,6.009-4.72	l0.975-25.909C22.26,9.284,22.013,9.512,22,9.688l-0.938,24.917c-0.083,1.458-1.437,5.083-5.437,4.271	c-4.488-0.912-8.13-4.896-8.589-9.45C7.012,29.184,6.816,29,6.575,29H6.497c-0.118,0-0.221,0.046-0.308,0.111	C6.227,29.175,6.255,29.246,6.263,29.324z"/><linearGradient id="u9tJqISRFFMeBoFdK0iW6k" x1="26.371" x2="35.789" y1="27.77" y2="21.997" gradientUnits="userSpaceOnUse"><stop offset="0" stop-color="#5d5d63"/><stop offset="1" stop-color="#989898"/></linearGradient><path fill="url(#u9tJqISRFFMeBoFdK0iW6k)" d="M26.015,9.688l0.945,24.917c0.084,1.458,1.449,5.083,5.479,4.271	c4.499-0.907,8.164-4.855,8.647-9.38c0.03-0.28,0.258-0.495,0.539-0.495h-0.003c0.295,0,0.534,0.234,0.539,0.53	c0.041,2.27-0.43,11.208-10.1,14.47c-1.439,0.476-3.107,0.726-4.459,0.856c-1.063,0.103-2.051,0.584-2.804,1.341L24,47V9	C25.329,8.953,25.994,9.396,26.015,9.688z"/><linearGradient id="u9tJqISRFFMeBoFdK0iW6l" x1="44.288" x2="26.125" y1="38.005" y2="38.005" gradientUnits="userSpaceOnUse"><stop offset="0" stop-color="#7f7f7f"/><stop offset="1" stop-color="#323232"/></linearGradient><path fill="url(#u9tJqISRFFMeBoFdK0iW6l)" d="M42.161,30c0.003-0.167,0.002-0.315,0-0.443c0-0.009,0-0.02,0-0.029	c-0.006-0.278-0.221-0.495-0.494-0.519c-0.266,4.872-2.3,13.979-17.668,13.99V47l0.798-0.802c0.753-0.757,1.744-1.239,2.811-1.342	c1.351-0.131,3.015-0.38,4.453-0.856C41.163,40.929,42.115,32.834,42.161,30L42.161,30z"/><linearGradient id="u9tJqISRFFMeBoFdK0iW6m" x1="21.563" x2="-2.901" y1="38.003" y2="38.003" gradientUnits="userSpaceOnUse"><stop offset="0" stop-color="#606060"/><stop offset=".94" stop-color="#c2c0c2"/><stop offset=".995" stop-color="#c8c6c8"/></linearGradient><path fill="url(#u9tJqISRFFMeBoFdK0iW6m)" d="M6.466,29.006c-0.27,0.016-0.484,0.232-0.489,0.505c0,0.006,0,0.014,0,0.021	c-0.002,0.123-0.002,0.269,0,0.43C6.014,32.759,6.925,40.915,16,44c1.426,0.475,3.078,0.725,4.419,0.856	c1.058,0.103,2.042,0.585,2.789,1.342L24,47v-4.001C8.746,42.988,6.73,33.877,6.466,29.006z"/><linearGradient id="u9tJqISRFFMeBoFdK0iW6n" x1="6.852" x2="28.18" y1="18.891" y2="32.777" gradientTransform="matrix(-1 0 0 1 44.927 0)" gradientUnits="userSpaceOnUse"><stop offset="0" stop-color="#4e4e4e" stop-opacity="0"/><stop offset="1" stop-color="#313131"/></linearGradient><path fill="url(#u9tJqISRFFMeBoFdK0iW6n)" d="M41.842,29.324c-0.51,5.033-4.555,9.436-9.54,10.443c-4.443,0.898-5.947-3.108-6.04-4.72	l-0.98-25.909c0.48,0.145,0.729,0.373,0.742,0.548l0.942,24.917c0.084,1.458,1.445,5.083,5.465,4.271	c4.511-0.912,8.171-4.896,8.633-9.45C41.089,29.184,41.286,29,41.529,29h0.079c0.118,0,0.222,0.046,0.309,0.111	C41.879,29.175,41.85,29.246,41.842,29.324z"/><linearGradient id="u9tJqISRFFMeBoFdK0iW6o" x1="24.015" x2="23.999" y1="10.965" y2="9.461" gradientUnits="userSpaceOnUse"><stop offset="0" stop-color="#bbb"/><stop offset="1" stop-color="#989898"/></linearGradient><path fill="url(#u9tJqISRFFMeBoFdK0iW6o)" d="M24,9c-1.163-0.041-1.813,0.298-1.964,0.579c0.509,0.211,1.556,0.718,1.917,1.453	c0.299-0.684,1.362-1.208,2.011-1.475C25.79,9.28,25.142,8.96,24,9z"/></svg>