<svg xmlns="http://www.w3.org/2000/svg" viewBox="0 0 48 48"><radialGradient id="iLSkErz7fLsLSfmzeKQDNa" cx="24" cy="8.224" r="3.382" gradientTransform="matrix(.6329 0 0 .965 8.81 -.896)" gradientUnits="userSpaceOnUse"><stop offset="0" stop-color="#ffd66b"/><stop offset="1" stop-color="#ba8806"/></radialGradient><path fill="url(#iLSkErz7fLsLSfmzeKQDNa)" d="M26,10h-4V6c0-1.105,0.895-2,2-2l0,0c1.105,0,2,0.895,2,2V10z"/><radialGradient id="iLSkErz7fLsLSfmzeKQDNb" cx="24" cy="40" r="4" gradientUnits="userSpaceOnUse"><stop offset="0" stop-color="#ffd66b"/><stop offset="1" stop-color="#ba8806"/></radialGradient><circle cx="24" cy="40" r="4" fill="url(#iLSkErz7fLsLSfmzeKQDNb)"/><path fill="#ba8806" d="M36,20c0-6.627-5.373-12-12-12s-12,5.373-12,12c0,12-4,17-4,17h32C40,37,36,32,36,20z"/><path fill="#bb8907" d="M35.897,19.966c0-6.585-5.338-11.923-11.923-11.923s-11.923,5.338-11.923,11.923 c0,12.017-4,17.034-4,17.034h31.846C39.897,37,35.897,32,35.897,19.966z"/><path fill="#bb8908" d="M35.795,19.932c0-6.542-5.304-11.846-11.846-11.846s-11.846,5.304-11.846,11.846 c0,12.034-4,17.068-4,17.068h31.692C39.795,37,35.795,32,35.795,19.932z"/><path fill="#bc8a09" d="M35.692,19.897c0-6.5-5.269-11.769-11.769-11.769s-11.769,5.269-11.769,11.769 c0,12.051-4,17.103-4,17.103h31.538C39.692,37,35.692,32,35.692,19.897z"/><path fill="#bc8b0a" d="M35.59,19.863c0-6.458-5.235-11.692-11.692-11.692s-11.692,5.235-11.692,11.692 c0,12.068-4,17.137-4,17.137H39.59C39.59,37,35.59,32,35.59,19.863z"/><path fill="#bd8c0b" d="M35.487,19.829c0-6.415-5.2-11.615-11.615-11.615s-11.615,5.2-11.615,11.615 c0,12.085-4,17.171-4,17.171h31.231C39.487,37,35.487,32,35.487,19.829z"/><path fill="#be8c0c" d="M35.385,19.795c0-6.373-5.166-11.538-11.538-11.538s-11.538,5.166-11.538,11.538 c0,12.103-4,17.205-4,17.205h31.077C39.385,37,35.385,32,35.385,19.795z"/><path fill="#be8d0d" d="M35.282,19.761c0-6.33-5.131-11.462-11.462-11.462s-11.462,5.131-11.462,11.462 c0,12.12-4,17.239-4,17.239h30.923C39.282,37,35.282,32,35.282,19.761z"/><path fill="#bf8e0e" d="M35.179,19.726c0-6.288-5.097-11.385-11.385-11.385S12.41,13.439,12.41,19.726 c0,12.137-4,17.274-4,17.274h30.769C39.179,37,35.179,32,35.179,19.726z"/><path fill="#bf8e0f" d="M35.077,19.692c0-6.245-5.063-11.308-11.308-11.308s-11.308,5.063-11.308,11.308 c0,12.154-4,17.308-4,17.308h30.615C39.077,37,35.077,32,35.077,19.692z"/><path fill="#c08f10" d="M34.974,19.658c0-6.203-5.028-11.231-11.231-11.231s-11.231,5.028-11.231,11.231 c0,12.171-4,17.342-4,17.342h30.462C38.974,37,34.974,32,34.974,19.658z"/><path fill="#c09011" d="M34.872,19.624c0-6.16-4.994-11.154-11.154-11.154s-11.154,4.994-11.154,11.154 c0,12.188-4,17.376-4,17.376h30.308C38.872,37,34.872,32,34.872,19.624z"/><path fill="#c19012" d="M34.769,19.59c0-6.118-4.959-11.077-11.077-11.077S12.615,13.472,12.615,19.59 c0,12.205-4,17.41-4,17.41h30.154C38.769,37,34.769,32,34.769,19.59z"/><path fill="#c29113" d="M34.667,19.556c0-6.075-4.925-11-11-11s-11,4.925-11,11c0,12.222-4,17.444-4,17.444h30 C38.667,37,34.667,32,34.667,19.556z"/><path fill="#c29214" d="M34.564,19.521c0-6.033-4.89-10.923-10.923-10.923s-10.923,4.89-10.923,10.923 c0,12.239-4,17.479-4,17.479h29.846C38.564,37,34.564,32,34.564,19.521z"/><path fill="#c39315" d="M34.462,19.487c0-5.99-4.856-10.846-10.846-10.846s-10.846,4.856-10.846,10.846 c0,12.256-4,17.513-4,17.513h29.692C38.462,37,34.462,32,34.462,19.487z"/><path fill="#c39316" d="M34.359,19.453c0-5.948-4.822-10.769-10.769-10.769s-10.769,4.822-10.769,10.769 c0,12.274-4,17.547-4,17.547h29.538C38.359,37,34.359,32,34.359,19.453z"/><path fill="#c49417" d="M34.256,19.419c0-5.905-4.787-10.692-10.692-10.692s-10.692,4.787-10.692,10.692 c0,12.291-4,17.581-4,17.581h29.385C38.256,37,34.256,32,34.256,19.419z"/><path fill="#c59518" d="M34.154,19.385c0-5.863-4.753-10.615-10.615-10.615s-10.615,4.753-10.615,10.615 c0,12.308-4,17.615-4,17.615h29.231C38.154,37,34.154,32,34.154,19.385z"/><path fill="#c59519" d="M34.051,19.35c0-5.82-4.718-10.538-10.538-10.538S12.974,13.53,12.974,19.35 c0,12.325-4,17.65-4,17.65h29.077C38.051,37,34.051,32,34.051,19.35z"/><path fill="#c6961a" d="M33.949,19.316c0-5.778-4.684-10.462-10.462-10.462s-10.462,4.684-10.462,10.462 c0,12.342-4,17.684-4,17.684h28.923C37.949,37,33.949,32,33.949,19.316z"/><path fill="#c6971b" d="M33.846,19.282c0-5.735-4.649-10.385-10.385-10.385s-10.385,4.649-10.385,10.385 c0,12.359-4,17.718-4,17.718h28.769C37.846,37,33.846,32,33.846,19.282z"/><path fill="#c7971c" d="M33.744,19.248c0-5.693-4.615-10.308-10.308-10.308s-10.308,4.615-10.308,10.308 c0,12.376-4,17.752-4,17.752h28.615C37.744,37,33.744,32,33.744,19.248z"/><path fill="#c8981d" d="M33.641,19.214c0-5.65-4.58-10.231-10.231-10.231s-10.231,4.58-10.231,10.231 c0,12.393-4,17.786-4,17.786h28.462C37.641,37,33.641,32,33.641,19.214z"/><path fill="#c8991e" d="M33.538,19.179c0-5.608-4.546-10.154-10.154-10.154s-10.154,4.546-10.154,10.154 c0,12.41-4,17.821-4,17.821h28.308C37.538,37,33.538,32,33.538,19.179z"/><path fill="#c99a1f" d="M33.436,19.145c0-5.565-4.512-10.077-10.077-10.077S13.282,13.58,13.282,19.145 c0,12.427-4,17.855-4,17.855h28.154C37.436,37,33.436,32,33.436,19.145z"/><path fill="#c99a20" d="M33.333,19.111c0-5.523-4.477-10-10-10s-10,4.477-10,10c0,12.444-4,17.889-4,17.889h28 C37.333,37,33.333,32,33.333,19.111z"/><path fill="#ca9b21" d="M33.231,19.077c0-5.48-4.443-9.923-9.923-9.923s-9.923,4.443-9.923,9.923 c0,12.462-4,17.923-4,17.923h27.846C37.231,37,33.231,32,33.231,19.077z"/><path fill="#cb9c22" d="M33.128,19.043c0-5.438-4.408-9.846-9.846-9.846s-9.846,4.408-9.846,9.846 c0,12.479-4,17.957-4,17.957h27.692C37.128,37,33.128,32,33.128,19.043z"/><path fill="#cb9c23" d="M33.026,19.009c0-5.395-4.374-9.769-9.769-9.769s-9.769,4.374-9.769,9.769 c0,12.496-4,17.991-4,17.991h27.538C37.026,37,33.026,32,33.026,19.009z"/><path fill="#cc9d24" d="M32.923,18.974c0-5.353-4.339-9.692-9.692-9.692s-9.692,4.339-9.692,9.692 c0,12.513-4,18.026-4,18.026h27.385C36.923,37,32.923,32,32.923,18.974z"/><path fill="#cc9e25" d="M32.821,18.94c0-5.31-4.305-9.615-9.615-9.615S13.59,13.63,13.59,18.94c0,12.53-4,18.06-4,18.06 h27.231C36.821,37,32.821,32,32.821,18.94z"/><path fill="#cd9e26" d="M32.718,18.906c0-5.268-4.27-9.538-9.538-9.538s-9.538,4.27-9.538,9.538c0,12.547-4,18.094-4,18.094 h27.077C36.718,37,32.718,32,32.718,18.906z"/><path fill="#cd9f27" d="M32.615,18.872c0-5.225-4.236-9.462-9.462-9.462s-9.462,4.236-9.462,9.462 c0,12.564-4,18.128-4,18.128h26.923C36.615,37,32.615,32,32.615,18.872z"/><path fill="#cea028" d="M32.513,18.838c0-5.183-4.202-9.385-9.385-9.385s-9.385,4.202-9.385,9.385 c0,12.581-4,18.162-4,18.162h26.769C36.513,37,32.513,32,32.513,18.838z"/><path fill="#cfa129" d="M32.41,18.803c0-5.141-4.167-9.308-9.308-9.308s-9.308,4.167-9.308,9.308 c0,12.598-4,18.197-4,18.197H36.41C36.41,37,32.41,32,32.41,18.803z"/><path fill="#cfa12a" d="M32.308,18.769c0-5.098-4.133-9.231-9.231-9.231s-9.231,4.133-9.231,9.231 c0,12.615-4,18.231-4,18.231h26.462C36.308,37,32.308,32,32.308,18.769z"/><path fill="#d0a22b" d="M32.205,18.735c0-5.056-4.098-9.154-9.154-9.154s-9.154,4.098-9.154,9.154 c0,12.632-4,18.265-4,18.265h26.308C36.205,37,32.205,32,32.205,18.735z"/><path fill="#d0a32c" d="M32.103,18.701c0-5.013-4.064-9.077-9.077-9.077s-9.077,4.064-9.077,9.077 c0,12.65-4,18.299-4,18.299h26.154C36.103,37,32.103,32,32.103,18.701z"/><path fill="#d1a32d" d="M32,18.667c0-4.971-4.029-9-9-9s-9,4.029-9,9C14,31.333,10,37,10,37h26C36,37,32,32,32,18.667z"/><path fill="#d2a42e" d="M31.897,18.632c0-4.928-3.995-8.923-8.923-8.923s-8.923,3.995-8.923,8.923 c0,12.684-4,18.368-4,18.368h25.846C35.897,37,31.897,32,31.897,18.632z"/><path fill="#d2a52f" d="M31.795,18.598c0-4.886-3.961-8.846-8.846-8.846s-8.846,3.961-8.846,8.846 c0,12.701-4,18.402-4,18.402h25.692C35.795,37,31.795,32,31.795,18.598z"/><path fill="#d3a530" d="M31.692,18.564c0-4.843-3.926-8.769-8.769-8.769s-8.769,3.926-8.769,8.769 c0,12.718-4,18.436-4,18.436h25.538C35.692,37,31.692,32,31.692,18.564z"/><path fill="#d3a631" d="M31.59,18.53c0-4.801-3.892-8.692-8.692-8.692s-8.692,3.892-8.692,8.692c0,12.735-4,18.47-4,18.47 H35.59C35.59,37,31.59,32,31.59,18.53z"/><path fill="#d4a732" d="M31.487,18.496c0-4.758-3.857-8.615-8.615-8.615s-8.615,3.857-8.615,8.615 c0,12.752-4,18.504-4,18.504h25.231C35.487,37,31.487,32,31.487,18.496z"/><path fill="#d5a833" d="M31.385,18.462c0-4.716-3.823-8.538-8.538-8.538s-8.538,3.823-8.538,8.538 c0,12.769-4,18.538-4,18.538h25.077C35.385,37,31.385,32,31.385,18.462z"/><path fill="#d5a834" d="M31.282,18.427c0-4.673-3.788-8.462-8.462-8.462s-8.462,3.788-8.462,8.462 c0,12.786-4,18.573-4,18.573h24.923C35.282,37,31.282,32,31.282,18.427z"/><path fill="#d6a935" d="M31.179,18.393c0-4.631-3.754-8.385-8.385-8.385s-8.385,3.754-8.385,8.385 c0,12.803-4,18.607-4,18.607h24.769C35.179,37,31.179,32,31.179,18.393z"/><path fill="#d6aa36" d="M31.077,18.359c0-4.588-3.719-8.308-8.308-8.308s-8.308,3.719-8.308,8.308 c0,12.821-4,18.641-4,18.641h24.615C35.077,37,31.077,32,31.077,18.359z"/><path fill="#d7aa37" d="M30.974,18.325c0-4.546-3.685-8.231-8.231-8.231s-8.231,3.685-8.231,8.231 c0,12.838-4,18.675-4,18.675h24.462C34.974,37,30.974,32,30.974,18.325z"/><path fill="#d7ab38" d="M30.872,18.291c0-4.503-3.651-8.154-8.154-8.154s-8.154,3.651-8.154,8.154 c0,12.855-4,18.709-4,18.709h24.308C34.872,37,30.872,32,30.872,18.291z"/><path fill="#d8ac39" d="M30.769,18.256c0-4.461-3.616-8.077-8.077-8.077s-8.077,3.616-8.077,8.077 c0,12.872-4,18.744-4,18.744h24.154C34.769,37,30.769,32,30.769,18.256z"/><path fill="#d9ac3a" d="M30.667,18.222c0-4.418-3.582-8-8-8s-8,3.582-8,8c0,12.889-4,18.778-4,18.778h24 C34.667,37,30.667,32,30.667,18.222z"/><path fill="#d9ad3b" d="M30.564,18.188c0-4.376-3.547-7.923-7.923-7.923s-7.923,3.547-7.923,7.923 c0,12.906-4,18.812-4,18.812h23.846C34.564,37,30.564,32,30.564,18.188z"/><path fill="#daae3c" d="M30.462,18.154c0-4.333-3.513-7.846-7.846-7.846s-7.846,3.513-7.846,7.846 c0,12.923-4,18.846-4,18.846h23.692C34.462,37,30.462,32,30.462,18.154z"/><path fill="#daaf3d" d="M30.359,18.12c0-4.291-3.478-7.769-7.769-7.769s-7.769,3.478-7.769,7.769c0,12.94-4,18.88-4,18.88 h23.538C34.359,37,30.359,32,30.359,18.12z"/><path fill="#dbaf3e" d="M30.256,18.085c0-4.248-3.444-7.692-7.692-7.692s-7.692,3.444-7.692,7.692 c0,12.957-4,18.915-4,18.915h23.385C34.256,37,30.256,32,30.256,18.085z"/><path fill="#dcb03f" d="M30.154,18.051c0-4.206-3.41-7.615-7.615-7.615s-7.615,3.41-7.615,7.615c0,12.974-4,18.949-4,18.949 h23.231C34.154,37,30.154,32,30.154,18.051z"/><path fill="#dcb140" d="M30.051,18.017c0-4.163-3.375-7.538-7.538-7.538s-7.538,3.375-7.538,7.538 c0,12.991-4,18.983-4,18.983h23.077C34.051,37,30.051,32,30.051,18.017z"/><path fill="#ddb140" d="M29.949,17.983c0-4.121-3.341-7.462-7.462-7.462s-7.462,3.341-7.462,7.462 c0,13.009-4,19.017-4,19.017h22.923C33.949,37,29.949,32,29.949,17.983z"/><path fill="#ddb241" d="M29.846,17.949c0-4.078-3.306-7.385-7.385-7.385s-7.385,3.306-7.385,7.385 c0,13.026-4,19.051-4,19.051h22.769C33.846,37,29.846,32,29.846,17.949z"/><path fill="#deb342" d="M29.744,17.915c0-4.036-3.272-7.308-7.308-7.308s-7.308,3.272-7.308,7.308 c0,13.043-4,19.085-4,19.085h22.615C33.744,37,29.744,32,29.744,17.915z"/><path fill="#dfb343" d="M29.641,17.88c0-3.993-3.237-7.231-7.231-7.231s-7.231,3.237-7.231,7.231c0,13.06-4,19.12-4,19.12 h22.462C33.641,37,29.641,32,29.641,17.88z"/><path fill="#dfb444" d="M29.538,17.846c0-3.951-3.203-7.154-7.154-7.154s-7.154,3.203-7.154,7.154 c0,13.077-4,19.154-4,19.154h22.308C33.538,37,29.538,32,29.538,17.846z"/><path fill="#e0b545" d="M29.436,17.812c0-3.908-3.168-7.077-7.077-7.077s-7.077,3.168-7.077,7.077 c0,13.094-4,19.188-4,19.188h22.154C33.436,37,29.436,32,29.436,17.812z"/><path fill="#e0b646" d="M29.333,17.778c0-3.866-3.134-7-7-7s-7,3.134-7,7c0,13.111-4,19.222-4,19.222h22 C33.333,37,29.333,32,29.333,17.778z"/><path fill="#e1b647" d="M29.231,17.744c0-3.824-3.1-6.923-6.923-6.923s-6.923,3.1-6.923,6.923c0,13.128-4,19.256-4,19.256 h21.846C33.231,37,29.231,32,29.231,17.744z"/><path fill="#e2b748" d="M29.128,17.709c0-3.781-3.065-6.846-6.846-6.846s-6.846,3.065-6.846,6.846 c0,13.145-4,19.291-4,19.291h21.692C33.128,37,29.128,32,29.128,17.709z"/><path fill="#e2b849" d="M29.026,17.675c0-3.739-3.031-6.769-6.769-6.769s-6.769,3.031-6.769,6.769 c0,13.162-4,19.325-4,19.325h21.538C33.026,37,29.026,32,29.026,17.675z"/><path fill="#e3b84a" d="M28.923,17.641c0-3.696-2.996-6.692-6.692-6.692s-6.692,2.996-6.692,6.692 c0,13.179-4,19.359-4,19.359h21.385C32.923,37,28.923,32,28.923,17.641z"/><path fill="#e3b94b" d="M28.821,17.607c0-3.654-2.962-6.615-6.615-6.615s-6.615,2.962-6.615,6.615 c0,13.197-4,19.393-4,19.393h21.231C32.821,37,28.821,32,28.821,17.607z"/><path fill="#e4ba4c" d="M28.718,17.573c0-3.611-2.927-6.538-6.538-6.538s-6.538,2.927-6.538,6.538 c0,13.214-4,19.427-4,19.427h21.077C32.718,37,28.718,32,28.718,17.573z"/><path fill="#e4ba4d" d="M28.615,17.538c0-3.569-2.893-6.462-6.462-6.462s-6.462,2.893-6.462,6.462 c0,13.231-4,19.462-4,19.462h20.923C32.615,37,28.615,32,28.615,17.538z"/><path fill="#e5bb4e" d="M28.513,17.504c0-3.526-2.858-6.385-6.385-6.385s-6.385,2.858-6.385,6.385 c0,13.248-4,19.496-4,19.496h20.769C32.513,37,28.513,32,28.513,17.504z"/><path fill="#e6bc4f" d="M28.41,17.47c0-3.484-2.824-6.308-6.308-6.308s-6.308,2.824-6.308,6.308c0,13.265-4,19.53-4,19.53 H32.41C32.41,37,28.41,32,28.41,17.47z"/><path fill="#e6bd50" d="M28.308,17.436c0-3.441-2.79-6.231-6.231-6.231s-6.231,2.79-6.231,6.231c0,13.282-4,19.564-4,19.564 h20.462C32.308,37,28.308,32,28.308,17.436z"/><path fill="#e7bd51" d="M28.205,17.402c0-3.399-2.755-6.154-6.154-6.154s-6.154,2.755-6.154,6.154 c0,13.299-4,19.598-4,19.598h20.308C32.205,37,28.205,32,28.205,17.402z"/><path fill="#e7be52" d="M28.103,17.368c0-3.356-2.721-6.077-6.077-6.077s-6.077,2.721-6.077,6.077 c0,13.316-4,19.632-4,19.632h20.154C32.103,37,28.103,32,28.103,17.368z"/><path fill="#e8bf53" d="M28,17.333c0-3.314-2.686-6-6-6s-6,2.686-6,6C16,30.667,12,37,12,37h20C32,37,28,32,28,17.333z"/><path fill="#e9bf54" d="M27.897,17.299c0-3.271-2.652-5.923-5.923-5.923s-5.923,2.652-5.923,5.923 c0,13.35-4,19.701-4,19.701h19.846C31.897,37,27.897,32,27.897,17.299z"/><path fill="#e9c055" d="M27.795,17.265c0-3.229-2.617-5.846-5.846-5.846s-5.846,2.617-5.846,5.846 c0,13.368-4,19.735-4,19.735h19.692C31.795,37,27.795,32,27.795,17.265z"/><path fill="#eac156" d="M27.692,17.231c0-3.186-2.583-5.769-5.769-5.769s-5.769,2.583-5.769,5.769 c0,13.385-4,19.769-4,19.769h19.538C31.692,37,27.692,32,27.692,17.231z"/><path fill="#eac157" d="M27.59,17.197c0-3.144-2.549-5.692-5.692-5.692s-5.692,2.549-5.692,5.692 c0,13.402-4,19.803-4,19.803H31.59C31.59,37,27.59,32,27.59,17.197z"/><path fill="#ebc258" d="M27.487,17.162c0-3.101-2.514-5.615-5.615-5.615s-5.615,2.514-5.615,5.615 c0,13.419-4,19.838-4,19.838h19.231C31.487,37,27.487,32,27.487,17.162z"/><path fill="#ecc359" d="M27.385,17.128c0-3.059-2.48-5.538-5.538-5.538s-5.538,2.48-5.538,5.538c0,13.436-4,19.872-4,19.872 h19.077C31.385,37,27.385,32,27.385,17.128z"/><path fill="#ecc45a" d="M27.282,17.094c0-3.016-2.445-5.462-5.462-5.462s-5.462,2.445-5.462,5.462 c0,13.453-4,19.906-4,19.906h18.923C31.282,37,27.282,32,27.282,17.094z"/><path fill="#edc45b" d="M27.179,17.06c0-2.974-2.411-5.385-5.385-5.385s-5.385,2.411-5.385,5.385c0,13.47-4,19.94-4,19.94 h18.769C31.179,37,27.179,32,27.179,17.06z"/><path fill="#edc55c" d="M27.077,17.026c0-2.931-2.376-5.308-5.308-5.308s-5.308,2.376-5.308,5.308 c0,13.487-4,19.974-4,19.974h18.615C31.077,37,27.077,32,27.077,17.026z"/><path fill="#eec65d" d="M26.974,16.991c0-2.889-2.342-5.231-5.231-5.231s-5.231,2.342-5.231,5.231 c0,13.504-4,20.009-4,20.009h18.462C30.974,37,26.974,32,26.974,16.991z"/><path fill="#eec65e" d="M26.872,16.957c0-2.846-2.307-5.154-5.154-5.154s-5.154,2.307-5.154,5.154 c0,13.521-4,20.043-4,20.043h18.308C30.872,37,26.872,32,26.872,16.957z"/><path fill="#efc75f" d="M26.769,16.923c0-2.804-2.273-5.077-5.077-5.077s-5.077,2.273-5.077,5.077 c0,13.538-4,20.077-4,20.077h18.154C30.769,37,26.769,32,26.769,16.923z"/><path fill="#f0c860" d="M26.667,16.889c0-2.761-2.239-5-5-5s-5,2.239-5,5c0,13.556-4,20.111-4,20.111h18 C30.667,37,26.667,32,26.667,16.889z"/><path fill="#f0c861" d="M26.564,16.855c0-2.719-2.204-4.923-4.923-4.923s-4.923,2.204-4.923,4.923 c0,13.573-4,20.145-4,20.145h17.846C30.564,37,26.564,32,26.564,16.855z"/><path fill="#f1c962" d="M26.462,16.821c0-2.676-2.17-4.846-4.846-4.846s-4.846,2.17-4.846,4.846c0,13.59-4,20.179-4,20.179 h17.692C30.462,37,26.462,32,26.462,16.821z"/><path fill="#f1ca63" d="M26.359,16.786c0-2.634-2.135-4.769-4.769-4.769s-4.769,2.135-4.769,4.769 c0,13.607-4,20.214-4,20.214h17.538C30.359,37,26.359,32,26.359,16.786z"/><path fill="#f2cb64" d="M26.256,16.752c0-2.591-2.101-4.692-4.692-4.692s-4.692,2.101-4.692,4.692 c0,13.624-4,20.248-4,20.248h17.385C30.256,37,26.256,32,26.256,16.752z"/><path fill="#f3cb65" d="M26.154,16.718c0-2.549-2.066-4.615-4.615-4.615s-4.615,2.066-4.615,4.615 c0,13.641-4,20.282-4,20.282h17.231C30.154,37,26.154,32,26.154,16.718z"/><path fill="#f3cc66" d="M26.051,16.684c0-2.507-2.032-4.538-4.538-4.538s-4.538,2.032-4.538,4.538 c0,13.658-4,20.316-4,20.316h17.077C30.051,37,26.051,32,26.051,16.684z"/><path fill="#f4cd67" d="M25.949,16.65c0-2.464-1.997-4.462-4.462-4.462s-4.462,1.997-4.462,4.462c0,13.675-4,20.35-4,20.35 h16.923C29.949,37,25.949,32,25.949,16.65z"/><path fill="#f4cd68" d="M25.846,16.615c0-2.422-1.963-4.385-4.385-4.385s-4.385,1.963-4.385,4.385 c0,13.692-4,20.385-4,20.385h16.769C29.846,37,25.846,32,25.846,16.615z"/><path fill="#f5ce69" d="M25.744,16.581c0-2.379-1.929-4.308-4.308-4.308s-4.308,1.929-4.308,4.308 c0,13.709-4,20.419-4,20.419h16.615C29.744,37,25.744,32,25.744,16.581z"/><path fill="#f6cf6a" d="M25.641,16.547c0-2.337-1.894-4.231-4.231-4.231s-4.231,1.894-4.231,4.231 c0,13.726-4,20.453-4,20.453h16.462C29.641,37,25.641,32,25.641,16.547z"/><path fill="#f6cf6b" d="M25.538,16.513c0-2.294-1.86-4.154-4.154-4.154s-4.154,1.86-4.154,4.154c0,13.744-4,20.487-4,20.487 h16.308C29.538,37,25.538,32,25.538,16.513z"/><path fill="#f7d06c" d="M25.436,16.479c0-2.252-1.825-4.077-4.077-4.077s-4.077,1.825-4.077,4.077 c0,13.761-4,20.521-4,20.521h16.154C29.436,37,25.436,32,25.436,16.479z"/><path fill="#f7d16d" d="M25.333,16.444c0-2.209-1.791-4-4-4s-4,1.791-4,4c0,13.778-4,20.556-4,20.556h16 C29.333,37,25.333,32,25.333,16.444z"/><path fill="#f8d26e" d="M25.231,16.41c0-2.167-1.756-3.923-3.923-3.923s-3.923,1.756-3.923,3.923c0,13.795-4,20.59-4,20.59 h15.846C29.231,37,25.231,32,25.231,16.41z"/><path fill="#f9d26f" d="M25.128,16.376c0-2.124-1.722-3.846-3.846-3.846s-3.846,1.722-3.846,3.846 c0,13.812-4,20.624-4,20.624h15.692C29.128,37,25.128,32,25.128,16.376z"/><path fill="#f9d370" d="M25.026,16.342c0-2.082-1.688-3.769-3.769-3.769s-3.769,1.688-3.769,3.769 c0,13.829-4,20.658-4,20.658h15.538C29.026,37,25.026,32,25.026,16.342z"/><path fill="#fad471" d="M24.923,16.308c0-2.039-1.653-3.692-3.692-3.692s-3.692,1.653-3.692,3.692 c0,13.846-4,20.692-4,20.692h15.385C28.923,37,24.923,32,24.923,16.308z"/><path fill="#fad472" d="M24.821,16.274c0-1.997-1.619-3.615-3.615-3.615s-3.615,1.619-3.615,3.615 c0,13.863-4,20.726-4,20.726h15.231C28.821,37,24.821,32,24.821,16.274z"/><path fill="#fbd573" d="M24.718,16.239c0-1.954-1.584-3.538-3.538-3.538s-3.538,1.584-3.538,3.538 c0,13.88-4,20.761-4,20.761h15.077C28.718,37,24.718,32,24.718,16.239z"/><path fill="#fbd674" d="M24.615,16.205c0-1.912-1.55-3.462-3.462-3.462s-3.462,1.55-3.462,3.462c0,13.897-4,20.795-4,20.795 h14.923C28.615,37,24.615,32,24.615,16.205z"/><path fill="#fcd675" d="M24.513,16.171c0-1.869-1.515-3.385-3.385-3.385c-1.869,0-3.385,1.515-3.385,3.385 c0,13.915-4,20.829-4,20.829h14.769C28.513,37,24.513,32,24.513,16.171z"/><path fill="#fdd776" d="M24.41,16.137c0-1.827-1.481-3.308-3.308-3.308c-1.827,0-3.308,1.481-3.308,3.308 c0,13.932-4,20.863-4,20.863H28.41C28.41,37,24.41,32,24.41,16.137z"/><path fill="#fdd877" d="M24.308,16.103c0-1.784-1.446-3.231-3.231-3.231s-3.231,1.446-3.231,3.231 c0,13.949-4,20.897-4,20.897h14.462C28.308,37,24.308,32,24.308,16.103z"/><path fill="#fed978" d="M24.205,16.068c0-1.742-1.412-3.154-3.154-3.154c-1.742,0-3.154,1.412-3.154,3.154 c0,13.966-4,20.932-4,20.932h14.308C28.205,37,24.205,32,24.205,16.068z"/><path fill="#fed979" d="M24.103,16.034c0-1.699-1.378-3.077-3.077-3.077c-1.699,0-3.077,1.378-3.077,3.077 c0,13.983-4,20.966-4,20.966h14.154C28.103,37,24.103,32,24.103,16.034z"/><path fill="#ffda7a" d="M24,16c0-1.657-1.343-3-3-3s-3,1.343-3,3c0,14-4,21-4,21h14C28,37,24,32,24,16z"/><radialGradient id="iLSkErz7fLsLSfmzeKQDNc" cx="24" cy="38.5" r="12.772" gradientUnits="userSpaceOnUse"><stop offset="0" stop-color="#ffd66b"/><stop offset="1" stop-color="#ba8806"/></radialGradient><path fill="url(#iLSkErz7fLsLSfmzeKQDNc)" d="M40.5,37h-33C6.672,37,6,37.672,6,38.5l0,0C6,39.328,6.672,40,7.5,40h33	c0.828,0,1.5-0.672,1.5-1.5l0,0C42,37.672,41.328,37,40.5,37z"/><linearGradient id="iLSkErz7fLsLSfmzeKQDNd" x1="24" x2="24" y1="39.598" y2="41.743" gradientUnits="userSpaceOnUse"><stop offset="0" stop-color="#573f03"/><stop offset="1" stop-color="#573f03" stop-opacity="0"/></linearGradient><path fill="url(#iLSkErz7fLsLSfmzeKQDNd)" d="M27.445,42C27.789,41.41,28,40.732,28,40h-8c0,0.732,0.211,1.41,0.555,2H27.445z"/><radialGradient id="iLSkErz7fLsLSfmzeKQDNe" cx="24" cy="36.5" r="11.319" gradientUnits="userSpaceOnUse"><stop offset="0" stop-color="#f5ca5b"/><stop offset="1" stop-color="#ab7b00"/></radialGradient><path fill="url(#iLSkErz7fLsLSfmzeKQDNe)" d="M8.642,36C8.258,36.675,8,37,8,37h32c0,0-0.258-0.325-0.642-1H8.642z"/></svg>