<svg xmlns="http://www.w3.org/2000/svg" viewBox="0 0 48 48"><radialGradient id="VcMIJYgHfrYUEXaHiRW4Ga" cx="18.915" cy="25.966" r="13.572" gradientTransform="rotate(45.001 23 23.5)" gradientUnits="userSpaceOnUse"><stop offset="0" stop-color="#4d4d4d"/><stop offset=".999" stop-color="#1a1a1a"/></radialGradient><circle cx="18.793" cy="25.569" r="17" fill="url(#VcMIJYgHfrYUEXaHiRW4Ga)"/><linearGradient id="VcMIJYgHfrYUEXaHiRW4Gb" x1="17.489" x2="25.489" y1="11.422" y2="11.422" gradientTransform="rotate(45.001 23 23.5)" gradientUnits="userSpaceOnUse"><stop offset="0" stop-color="#4d4d4d"/><stop offset=".999" stop-color="#1a1a1a"/></linearGradient><path fill="url(#VcMIJYgHfrYUEXaHiRW4Gb)" d="M35.079,14.941l-5.657-5.657l-2.887,2.887l0.01,0.01c-0.009,0.006-0.025,0.005-0.032,0.013	c-0.358,0.358,0.618,1.914,2.18,3.477c1.562,1.562,3.119,2.538,3.477,2.18c0.008-0.008,0.006-0.023,0.013-0.032l0.01,0.01	L35.079,14.941z"/><linearGradient id="VcMIJYgHfrYUEXaHiRW4Gc" x1="17.489" x2="25.489" y1="8.938" y2="8.938" gradientTransform="rotate(45.001 23 23.5)" gradientUnits="userSpaceOnUse"><stop offset=".048" stop-color="#636666"/><stop offset="1" stop-color="#131414"/></linearGradient><path fill="url(#VcMIJYgHfrYUEXaHiRW4Gc)" d="M35.057,14.963c-0.391,0.391-1.973-0.559-3.536-2.121S29.009,9.696,29.4,9.306	c0.391-0.391,1.973,0.559,3.536,2.121C34.497,12.989,35.447,14.572,35.057,14.963z"/><ellipse cx="32.161" cy="12.023" fill="#0c0c0a" rx=".5" ry="1.626" transform="rotate(-45.001 32.161 12.023)"/><path fill="#794310" d="M42.861,18.104l-1.72-1.021l0.068-0.114c0.494-0.831,1.031-1.737,1.61-2.738 c1.365-2.271,1.742-4.272,1.043-5.508c-0.471-0.833-1.459-1.292-2.782-1.292c-2.435,0-4.644,2.034-7.202,4.39 c-0.394,0.363-0.794,0.731-1.203,1.1l-1.339-1.486c0.403-0.363,0.798-0.727,1.187-1.084c2.747-2.53,5.341-4.919,8.557-4.919 c2.076,0,3.682,0.819,4.523,2.307c1.079,1.909,0.702,4.575-1.062,7.509c-0.574,0.993-1.115,1.906-1.613,2.744L42.861,18.104z"/><path fill="#834c19" d="M42.793,18.064l-1.583-0.94l0.068-0.114c0.494-0.831,1.023-1.743,1.61-2.739 c1.362-2.31,1.758-4.324,1.043-5.587c-0.486-0.859-1.498-1.332-2.851-1.332c-2.466,0-4.685,2.044-7.256,4.411 c-0.394,0.363-0.794,0.731-1.202,1.099l-1.232-1.368c0.403-0.363,0.799-0.727,1.187-1.085c2.746-2.529,5.318-4.898,8.503-4.898 c2.046,0,3.627,0.805,4.454,2.266c1.064,1.883,0.662,4.505-1.06,7.429c-0.583,0.989-1.116,1.907-1.613,2.745L42.793,18.064z"/><path fill="#8e5421" d="M42.724,18.023l-1.446-0.859l0.068-0.114c0.494-0.832,1.023-1.744,1.611-2.74 c1.378-2.337,1.774-4.375,1.044-5.666C43.5,7.759,42.463,7.272,41.08,7.272c-2.497,0-4.727,2.054-7.309,4.432 c-0.394,0.363-0.793,0.731-1.201,1.098l-1.126-1.25c0.404-0.364,0.799-0.727,1.188-1.085c2.744-2.528,5.296-4.877,8.449-4.877 c2.016,0,3.573,0.791,4.385,2.226c1.05,1.857,0.648,4.451-1.059,7.348c-0.583,0.99-1.116,1.907-1.613,2.745L42.724,18.023z"/><path fill="#985d2a" d="M42.656,17.982l-1.309-0.778l0.068-0.114c0.494-0.832,1.024-1.744,1.611-2.741 c1.394-2.365,1.79-4.426,1.044-5.745c-0.515-0.911-1.577-1.413-2.99-1.413c-2.528,0-4.768,2.063-7.363,4.453 c-0.393,0.362-0.793,0.73-1.201,1.098l-1.019-1.132c0.404-0.364,0.8-0.728,1.188-1.086c2.743-2.526,5.273-4.856,8.395-4.856 c1.986,0,3.518,0.776,4.316,2.186c1.035,1.831,0.634,4.397-1.058,7.268c-0.584,0.991-1.116,1.908-1.613,2.745L42.656,17.982z"/><path fill="#a26532" d="M42.588,17.942l-1.172-0.696l0.068-0.114c0.494-0.832,1.024-1.745,1.612-2.742 c1.41-2.392,1.806-4.477,1.045-5.824c-0.53-0.937-1.616-1.454-3.059-1.454c-2.559,0-4.81,2.073-7.417,4.474 c-0.393,0.362-0.792,0.73-1.2,1.097L31.55,11.67c0.404-0.364,0.8-0.728,1.189-1.086c2.741-2.525,5.25-4.835,8.341-4.835 c1.956,0,3.464,0.762,4.246,2.145c1.02,1.805,0.62,4.342-1.057,7.188c-0.585,0.992-1.117,1.909-1.614,2.746L42.588,17.942z"/><path fill="#ac6e3b" d="M42.519,17.901l-1.036-0.615l0.068-0.114c0.494-0.833,1.024-1.745,1.612-2.743 c1.427-2.42,1.822-4.529,1.045-5.902c-0.545-0.964-1.656-1.494-3.128-1.494c-2.59,0-4.852,2.083-7.471,4.495 c-0.393,0.362-0.792,0.729-1.2,1.097l-0.806-0.895c0.404-0.364,0.8-0.729,1.19-1.087c2.74-2.524,5.227-4.814,8.287-4.814 c1.926,0,3.409,0.747,4.177,2.105c1.005,1.779,0.606,4.288-1.056,7.108c-0.585,0.993-1.117,1.909-1.614,2.746L42.519,17.901z"/><path fill="#b77643" d="M42.451,17.86l-0.899-0.534l0.068-0.114c0.494-0.833,1.024-1.746,1.613-2.744 c1.443-2.448,1.838-4.58,1.045-5.981c-0.559-0.99-1.695-1.534-3.198-1.534c-2.621,0-4.893,2.093-7.525,4.516 c-0.393,0.362-0.792,0.729-1.199,1.096l-0.7-0.777c0.404-0.364,0.801-0.729,1.19-1.088c2.739-2.522,5.204-4.793,8.233-4.793 c1.896,0,3.355,0.733,4.108,2.065c0.991,1.753,0.592,4.233-1.055,7.027c-0.586,0.993-1.118,1.91-1.614,2.747L42.451,17.86z"/><path fill="#c17f4c" d="M42.382,17.82l-0.762-0.452l0.068-0.114c0.495-0.834,1.025-1.747,1.613-2.744 c1.459-2.475,1.854-4.631,1.046-6.06c-0.574-1.016-1.734-1.575-3.267-1.575c-2.652,0-4.935,2.103-7.579,4.537 c-0.392,0.361-0.791,0.728-1.198,1.095l-0.593-0.659c0.405-0.365,0.801-0.73,1.191-1.088c2.737-2.521,5.181-4.772,8.179-4.772 c1.866,0,3.3,0.719,4.039,2.025c0.976,1.726,0.578,4.179-1.054,6.947c-0.586,0.994-1.118,1.911-1.614,2.747L42.382,17.82z"/><path fill="#cb8754" d="M42.314,17.779l-0.625-0.371l0.068-0.114c0.495-0.834,1.025-1.747,1.613-2.745 c1.476-2.503,1.87-4.682,1.046-6.139c-0.589-1.042-1.774-1.615-3.336-1.615c-2.683,0-4.977,2.112-7.633,4.558 c-0.392,0.361-0.791,0.728-1.198,1.095l-0.487-0.54c0.405-0.365,0.802-0.73,1.191-1.089c2.736-2.52,5.158-4.751,8.126-4.751 c1.836,0,3.246,0.704,3.969,1.984c0.961,1.7,0.564,4.124-1.053,6.867c-0.587,0.995-1.118,1.911-1.615,2.748L42.314,17.779z"/><path fill="#d5905d" d="M42.246,17.738l-0.488-0.29l0.068-0.114c0.495-0.834,1.025-1.748,1.614-2.746 c1.492-2.53,1.886-4.733,1.047-6.218c-0.603-1.068-1.813-1.656-3.405-1.656c-2.714,0-5.018,2.122-7.687,4.579 c-0.392,0.361-0.79,0.727-1.197,1.094l-0.38-0.422c0.405-0.365,0.802-0.731,1.192-1.09c2.734-2.518,5.136-4.73,8.072-4.73 c1.806,0,3.191,0.69,3.9,1.944c0.946,1.674,0.55,4.07-1.052,6.786c-0.587,0.996-1.119,1.912-1.615,2.748L42.246,17.738z"/><path fill="#e09865" d="M42.177,17.698l-0.352-0.208l0.068-0.114c0.495-0.835,1.026-1.749,1.614-2.747 c1.508-2.558,1.902-4.785,1.047-6.297c-0.618-1.094-1.852-1.696-3.475-1.696c-2.745,0-5.06,2.132-7.741,4.6 c-0.392,0.361-0.79,0.727-1.196,1.093l-0.274-0.304c0.405-0.365,0.802-0.731,1.193-1.09c2.733-2.517,5.113-4.709,8.018-4.709 c1.776,0,3.137,0.676,3.831,1.904c0.932,1.648,0.535,4.015-1.051,6.706c-0.588,0.997-1.119,1.912-1.615,2.749L42.177,17.698z"/><path fill="#eaa16e" d="M42.109,17.657l-0.215-0.127l0.068-0.114c0.495-0.835,1.035-1.744,1.615-2.748 c1.547-2.572,1.918-4.836,1.047-6.376c-0.633-1.12-1.892-1.736-3.544-1.736c-2.776,0-5.102,2.142-7.794,4.621 c-0.392,0.36-0.79,0.727-1.196,1.093l-0.167-0.186c0.405-0.365,0.803-0.731,1.193-1.091c2.731-2.516,5.09-4.688,7.964-4.688 c1.746,0,3.082,0.661,3.762,1.863c0.917,1.622,0.544,3.975-1.05,6.626c-0.58,1.003-1.12,1.913-1.615,2.749L42.109,17.657z"/><g><radialGradient id="VcMIJYgHfrYUEXaHiRW4Gd" cx="65.361" cy="139.906" r="4.867" gradientTransform="rotate(19.763 400.16 11.76)" gradientUnits="userSpaceOnUse"><stop offset="0" stop-color="#ff7666"/><stop offset=".126" stop-color="#fb6c59"/><stop offset=".714" stop-color="#ec4023"/><stop offset="1" stop-color="#e62f0e"/></radialGradient><polygon fill="url(#VcMIJYgHfrYUEXaHiRW4Gd)" points="42.546,16.632 44.92,16.049 43.928,18.303 45.951,19.768 43.482,20.426 43.749,23.367 41.526,21.854 38.584,23.453 39.731,20.208 37.017,19.406 39.249,18.496 37.077,15.598 40.377,16.67 40.657,13.882"/><radialGradient id="VcMIJYgHfrYUEXaHiRW4Ge" cx="65.409" cy="139.912" r="4.256" gradientTransform="rotate(19.763 400.16 11.76)" gradientUnits="userSpaceOnUse"><stop offset="0" stop-color="#ffac6a"/><stop offset=".168" stop-color="#fb9f58"/><stop offset=".728" stop-color="#f07622"/><stop offset="1" stop-color="#eb660d"/><stop offset="1" stop-color="#eb660d"/></radialGradient><polygon fill="url(#VcMIJYgHfrYUEXaHiRW4Ge)" points="42.395,17.102 44.555,16.362 43.542,18.49 45.479,19.68 43.172,20.253 43.447,22.882 41.548,21.438 38.977,22.919 40.057,20.072 37.509,19.375 39.658,18.65 37.707,16.068 40.594,17.134 40.781,14.548"/><radialGradient id="VcMIJYgHfrYUEXaHiRW4Gf" cx="65.457" cy="139.918" r="3.644" gradientTransform="rotate(19.763 400.16 11.76)" gradientUnits="userSpaceOnUse"><stop offset="0" stop-color="#ffe16e"/><stop offset=".205" stop-color="#fcd157"/><stop offset=".74" stop-color="#f3ab21"/><stop offset="1" stop-color="#f09c0c"/></radialGradient><polygon fill="url(#VcMIJYgHfrYUEXaHiRW4Gf)" points="42.244,17.573 44.191,16.674 43.157,18.677 45.007,19.593 42.862,20.079 43.144,22.397 41.57,21.023 39.37,22.384 40.384,19.936 38.001,19.344 40.066,18.804 38.338,16.537 40.811,17.598 40.905,15.213"/><radialGradient id="VcMIJYgHfrYUEXaHiRW4Gg" cx="65.424" cy="139.955" r="2.642" gradientTransform="rotate(19.763 400.16 11.76)" gradientUnits="userSpaceOnUse"><stop offset="0" stop-color="#fff0b7"/><stop offset=".384" stop-color="#fcde7f"/><stop offset=".798" stop-color="#f9cd49"/><stop offset="1" stop-color="#f8c634"/></radialGradient><polygon fill="url(#VcMIJYgHfrYUEXaHiRW4Gg)" points="42.081,18.053 43.46,17.396 42.751,18.863 44.088,19.5 42.535,19.891 42.722,21.562 41.587,20.583 40.008,21.542 40.717,19.786 39.037,19.346 40.483,18.956 39.262,17.313 41.03,18.071 41.111,16.327"/><radialGradient id="VcMIJYgHfrYUEXaHiRW4Gh" cx="65.392" cy="139.992" r="1.639" gradientTransform="rotate(19.763 400.16 11.76)" gradientUnits="userSpaceOnUse"><stop offset="0" stop-color="#fff"/><stop offset=".489" stop-color="#fff6a8"/><stop offset=".834" stop-color="#fff171"/><stop offset="1" stop-color="#ffef5c"/></radialGradient><polygon fill="url(#VcMIJYgHfrYUEXaHiRW4Gh)" points="41.918,18.533 42.73,18.117 42.345,19.048 43.168,19.408 42.207,19.703 42.3,20.728 41.604,20.144 40.646,20.699 41.05,19.636 40.072,19.347 40.901,19.108 40.186,18.088 41.249,18.544 41.317,17.441"/></g><linearGradient id="VcMIJYgHfrYUEXaHiRW4Gi" x1="34.328" x2="32.01" y1="9.977" y2="12.295" gradientUnits="userSpaceOnUse"><stop offset="0" stop-color="#2f3334" stop-opacity="0"/><stop offset=".932" stop-color="#0a1112"/></linearGradient><path fill="url(#VcMIJYgHfrYUEXaHiRW4Gi)" d="M34.117,8.922c-0.57,0.497-1.018,0.897-1.594,1.428c-0.388,0.357-0.857,0.772-1.26,1.136	l1.378,1.49c0.409-0.368,0.843-0.791,1.237-1.155c0.586-0.539,1.03-0.939,1.587-1.424L34.117,8.922z"/></svg>