<svg xmlns="http://www.w3.org/2000/svg" viewBox="0 0 48 48"><radialGradient id="Gulc2ONulih0~0UgQOfz0a" cx="24.413" cy="40.057" r="22.131" gradientTransform="matrix(1 0 0 .4899 0 20.433)" gradientUnits="userSpaceOnUse"><stop offset="0" stop-color="#7a7a7a"/><stop offset=".27" stop-color="#4e5153"/><stop offset=".487" stop-color="#313639"/><stop offset=".611" stop-color="#262c30"/></radialGradient><path fill="url(#Gulc2ONulih0~0UgQOfz0a)" d="M44.798,29.495c0,3.397-6.23,11.009-20.846,11.009c-15.642,0-20.749-7.592-20.749-10.988 c0-5.678,9.288,0.404,20.745,0.404S44.798,23.817,44.798,29.495z"/><radialGradient id="Gulc2ONulih0~0UgQOfz0b" cx="24.127" cy="34.542" r="22.092" gradientTransform="matrix(1 0 0 .4899 0 17.62)" gradientUnits="userSpaceOnUse"><stop offset=".389" stop-color="#262c30"/><stop offset=".513" stop-color="#313639"/><stop offset=".73" stop-color="#4e5153"/><stop offset="1" stop-color="#7a7a7a"/></radialGradient><path fill="url(#Gulc2ONulih0~0UgQOfz0b)" d="M44.798,29.016c0,3.397-6.23,10.436-20.846,10.436c-15.642,0-20.749-7.039-20.749-10.436 c0-5.678,9.288-0.148,20.745-0.148S44.798,23.338,44.798,29.016z"/><linearGradient id="Gulc2ONulih0~0UgQOfz0c" x1="11.607" x2="36.289" y1="30.593" y2="30.593" gradientUnits="userSpaceOnUse"><stop offset="0" stop-color="#ba2c00"/><stop offset=".5" stop-color="#ff511c"/><stop offset=".608" stop-color="#f74d19"/><stop offset=".774" stop-color="#e14110"/><stop offset=".978" stop-color="#be2e02"/><stop offset="1" stop-color="#ba2c00"/></linearGradient><path fill="url(#Gulc2ONulih0~0UgQOfz0c)" d="M23.948,28.174c-5.706,0-10.547-1.084-12.341-2.594l0.295,5.87 c0,1.973,5.395,4.156,12.05,4.156s12.05-2.183,12.05-4.156c0-0.012-0.006-0.024-0.006-0.036l0.293-5.835 C34.495,27.09,29.654,28.174,23.948,28.174z"/><linearGradient id="Gulc2ONulih0~0UgQOfz0d" x1="10.853" x2="37.043" y1="19.374" y2="19.374" gradientUnits="userSpaceOnUse"><stop offset="0" stop-color="#262c30"/><stop offset=".04" stop-color="#2e3437"/><stop offset=".102" stop-color="#45494b"/><stop offset=".18" stop-color="#6a6b6c"/><stop offset=".2" stop-color="#757575"/><stop offset=".226" stop-color="#68696a"/><stop offset=".296" stop-color="#4b4e51"/><stop offset=".366" stop-color="#373b3e"/><stop offset=".434" stop-color="#2a3034"/><stop offset=".5" stop-color="#262c30"/><stop offset=".558" stop-color="#2f3438"/><stop offset=".652" stop-color="#474b4d"/><stop offset=".77" stop-color="#6f6f70"/><stop offset=".8" stop-color="#7a7a7a"/><stop offset=".844" stop-color="#6d6e6e"/><stop offset=".926" stop-color="#4a4e50"/><stop offset="1" stop-color="#262c30"/></linearGradient><path fill="url(#Gulc2ONulih0~0UgQOfz0d)" d="M23.948,28.174c5.707,0,10.547-1.084,12.341-2.594l0.754-15.006h-26.19l0.754,15.006 C13.401,27.09,18.241,28.174,23.948,28.174z"/><radialGradient id="Gulc2ONulih0~0UgQOfz0e" cx="23.948" cy="12.498" r="12.736" gradientTransform="matrix(1 0 0 .2462 0 7.497)" gradientUnits="userSpaceOnUse"><stop offset="0" stop-color="#454545"/><stop offset=".425" stop-color="#3b3d3e"/><stop offset="1" stop-color="#262c30"/></radialGradient><ellipse cx="23.948" cy="10.574" fill="url(#Gulc2ONulih0~0UgQOfz0e)" rx="13.095" ry="3.079"/></svg>