<svg xmlns="http://www.w3.org/2000/svg" viewBox="0 0 48 48"><defs><radialGradient id="CZ6Ug~KEVqILSMNBZ5174a" cx="32.87" cy="15.71" r="5.31" gradientTransform="rotate(29.18 30.114 14.99) scale(1 .91)" gradientUnits="userSpaceOnUse"><stop offset="0" stop-color="#f99" stop-opacity=".5"/><stop offset=".06" stop-color="#f99" stop-opacity=".44"/><stop offset=".28" stop-color="#f99" stop-opacity=".26"/><stop offset=".45" stop-color="#f99" stop-opacity=".14"/><stop offset=".54" stop-color="#f99" stop-opacity=".1"/></radialGradient><radialGradient id="CZ6Ug~KEVqILSMNBZ5174b" cx="33.78" cy="19.57" r="15.47" gradientTransform="rotate(97.76 28.363 13.36) scale(1 .37)" gradientUnits="userSpaceOnUse"><stop offset=".48" stop-color="#750c0c" stop-opacity="0"/><stop offset=".55" stop-color="#750c0c" stop-opacity=".28"/><stop offset=".64" stop-color="#750c0c" stop-opacity=".56"/><stop offset=".71" stop-color="#750c0c" stop-opacity=".74"/><stop offset=".76" stop-color="#750c0c" stop-opacity=".8"/></radialGradient><linearGradient id="CZ6Ug~KEVqILSMNBZ5174c" x1="21.39" x2="21.24" y1="30.76" y2="34.98" gradientUnits="userSpaceOnUse"><stop offset=".16" stop-color="#750c0c" stop-opacity="0"/><stop offset=".41" stop-color="#750c0c" stop-opacity=".25"/><stop offset=".79" stop-color="#750c0c" stop-opacity=".7"/></linearGradient><radialGradient id="CZ6Ug~KEVqILSMNBZ5174d" cx="19.35" cy="12.06" r="14.42" gradientTransform="matrix(1 .04 -.02 .62 .31 3.8)" gradientUnits="userSpaceOnUse"><stop offset="0" stop-color="#f99" stop-opacity=".7"/><stop offset=".1" stop-color="#f99" stop-opacity=".65"/><stop offset=".29" stop-color="#f99" stop-opacity=".52"/><stop offset=".54" stop-color="#f99" stop-opacity=".3"/><stop offset=".59" stop-color="#f99" stop-opacity=".26"/><stop offset=".98" stop-color="#f99" stop-opacity=".01"/><stop offset="1" stop-color="#f99" stop-opacity="0"/></radialGradient><radialGradient id="CZ6Ug~KEVqILSMNBZ5174e" cx="19.55" cy="8.87" r="9.21" gradientTransform="matrix(1 -.02 .01 .35 -.06 6.18)" gradientUnits="userSpaceOnUse"><stop offset="0" stop-color="#f99" stop-opacity=".6"/><stop offset=".18" stop-color="#f99" stop-opacity=".47"/><stop offset=".57" stop-color="#f99" stop-opacity=".22"/><stop offset=".85" stop-color="#f99" stop-opacity=".06"/><stop offset="1" stop-color="#f99" stop-opacity="0"/></radialGradient><radialGradient id="CZ6Ug~KEVqILSMNBZ5174f" cx="13.84" cy="23.5" r="33.77" fy="32.97" gradientTransform="matrix(.08 1 -.4 .03 22.07 8.94)" gradientUnits="userSpaceOnUse"><stop offset="0" stop-color="#f99" stop-opacity=".3"/><stop offset=".17" stop-color="#f99" stop-opacity=".3"/><stop offset=".19" stop-color="#f99" stop-opacity=".29"/><stop offset=".3" stop-color="#f99" stop-opacity=".18"/><stop offset=".42" stop-color="#f99" stop-opacity=".1"/><stop offset=".56" stop-color="#f99" stop-opacity=".04"/><stop offset=".73" stop-color="#f99" stop-opacity=".01"/><stop offset="1" stop-color="#f99" stop-opacity="0"/></radialGradient><linearGradient id="CZ6Ug~KEVqILSMNBZ5174g" x1="21.37" x2="21.6" y1="43.4" y2="34.97" gradientUnits="userSpaceOnUse"><stop offset=".02" stop-color="#a11616"/><stop offset=".05" stop-color="#a71818"/><stop offset=".24" stop-color="#c82222"/><stop offset=".4" stop-color="#dc2828"/><stop offset=".51" stop-color="#e32a2a"/><stop offset=".62" stop-color="#dc2828"/><stop offset=".77" stop-color="#ca2222"/><stop offset=".94" stop-color="#ac1919"/><stop offset="1" stop-color="#a11616"/></linearGradient><linearGradient id="CZ6Ug~KEVqILSMNBZ5174h" x1="12.82" x2="29.55" y1="38.53" y2="38.69" gradientUnits="userSpaceOnUse"><stop offset="0" stop-color="#ff9c9c" stop-opacity="0"/><stop offset=".12" stop-color="#ff9c9c" stop-opacity=".01"/><stop offset=".17" stop-color="#ff9c9c" stop-opacity=".03"/><stop offset=".2" stop-color="#ff9c9c" stop-opacity=".08"/><stop offset=".22" stop-color="#ff9c9c" stop-opacity=".15"/><stop offset=".24" stop-color="#ff9c9c" stop-opacity=".23"/><stop offset=".26" stop-color="#ff9c9c" stop-opacity=".3"/><stop offset=".32" stop-color="#ff9c9c" stop-opacity=".25"/><stop offset=".44" stop-color="#ff9c9c" stop-opacity=".13"/><stop offset=".55" stop-color="#ff9c9c" stop-opacity="0"/></linearGradient><linearGradient id="CZ6Ug~KEVqILSMNBZ5174i" x1="28.74" x2="12.86" y1="38.46" y2="38.61" gradientUnits="userSpaceOnUse"><stop offset="0" stop-color="#ff9c9c" stop-opacity="0"/><stop offset=".34" stop-color="#ff9c9c" stop-opacity=".11"/><stop offset=".66" stop-color="#ff9c9c" stop-opacity=".18"/><stop offset=".89" stop-color="#ff9c9c" stop-opacity=".2"/><stop offset="1" stop-color="#ff9c9c" stop-opacity="0"/></linearGradient></defs><g data-name="Boxing Glove"><path fill="#c21b1b" d="M28.48,35c1.82-2.74,8.21-7.3,8.21-18.25,0-3.65-5.48-5.48-6.39-2.74L23,34.11S26.8,37.54,28.48,35Z"/><path fill="#c31b1b" d="M28.53,34.71c1.81-2.68,8.12-7.17,8.12-18,0-3.59-5.44-5.39-6.34-2.7L23.1,33.8S26.87,37.18,28.53,34.71Z"/><path fill="#c41c1c" d="M28.58,34.39c1.8-2.63,8-7,8-17.67,0-3.53-5.4-5.3-6.3-2.65l-7.1,19.41S26.94,36.81,28.58,34.39Z"/><path fill="#c51c1c" d="M28.64,34.07c1.77-2.57,7.93-6.91,7.93-17.37,0-3.48-5.37-5.22-6.25-2.61l-7,19.07S27,36.44,28.64,34.07Z"/><path fill="#c61d1d" d="M28.69,33.75c1.76-2.52,7.84-6.78,7.84-17.08,0-3.41-5.33-5.13-6.2-2.57L23.42,32.84S27.08,36.07,28.69,33.75Z"/><path fill="#c71d1d" d="M28.75,33.43c1.74-2.46,7.74-6.65,7.74-16.78,0-3.36-5.29-5-6.16-2.53l-6.81,18.4S27.16,35.7,28.75,33.43Z"/><path fill="#c81e1e" d="M28.8,33.12c1.73-2.42,7.64-6.53,7.64-16.5,0-3.3-5.24-5-6.1-2.49L23.62,32.2S27.23,35.33,28.8,33.12Z"/><path fill="#c91e1e" d="M28.86,32.8c1.71-2.36,7.54-6.4,7.54-16.21,0-3.24-5.21-4.87-6-2.44L23.73,31.88S27.3,35,28.86,32.8Z"/><path fill="#ca1f1f" d="M28.91,32.48c1.69-2.3,7.45-6.27,7.45-15.91,0-3.18-5.17-4.79-6-2.4l-6.52,17.4S27.37,34.59,28.91,32.48Z"/><path fill="#cb1f1f" d="M29,32.16c1.67-2.25,7.35-6.14,7.35-15.62,0-3.12-5.13-4.7-6-2.36L23.93,31.25S27.44,34.22,29,32.16Z"/><path fill="#cc2020" d="M29,31.84c1.66-2.19,7.26-6,7.26-15.33,0-3.06-5.09-4.61-5.91-2.31L24,30.93S27.51,33.85,29,31.84Z"/><path fill="#cd2020" d="M29.08,31.52c1.64-2.14,7.16-5.87,7.16-15,0-3-5.06-4.53-5.87-2.27L24.14,30.61S27.59,33.48,29.08,31.52Z"/><path fill="#ce2121" d="M29.13,31.2c1.62-2.08,7.07-5.74,7.07-14.74,0-2.94-5-4.44-5.82-2.23L24.25,30.29S27.65,33.11,29.13,31.2Z"/><path fill="#cf2121" d="M29.18,30.89c1.61-2,7-5.62,7-14.45,0-2.89-5-4.36-5.77-2.19L24.35,30S27.73,32.74,29.18,30.89Z"/><path fill="#d02222" d="M29.24,30.57c1.59-2,6.88-5.49,6.88-14.16,0-2.83-4.94-4.27-5.72-2.15L24.45,29.65S27.8,32.37,29.24,30.57Z"/><path fill="#d12222" d="M29.29,30.25c1.57-1.93,6.79-5.36,6.79-13.87,0-2.77-4.91-4.18-5.68-2.1L24.56,29.34S27.87,32,29.29,30.25Z"/><path fill="#d22323" d="M29.35,29.93C30.9,28.06,36,24.7,36,16.36c0-2.71-4.87-4.1-5.63-2.06L24.66,29S27.94,31.63,29.35,29.93Z"/><path fill="#d32323" d="M29.4,29.61c1.54-1.81,6.6-5.1,6.6-13.28,0-2.65-4.83-4-5.58-2L24.77,28.7S28,31.26,29.4,29.61Z"/><path fill="#d42424" d="M29.46,29.29c1.52-1.76,6.5-5,6.5-13,0-2.59-4.79-3.92-5.54-2L24.87,28.38S28.08,30.89,29.46,29.29Z"/><path fill="#d52424" d="M29.51,29c1.5-1.7,6.41-4.84,6.41-12.69,0-2.54-4.76-3.84-5.49-1.94L25,28.06S28.15,30.52,29.51,29Z"/><path fill="#d52424" d="M29.57,28.66c1.48-1.66,6.31-4.72,6.31-12.41,0-2.47-4.72-3.75-5.44-1.89L25.08,27.74S28.23,30.15,29.57,28.66Z"/><path fill="#d62525" d="M29.62,28.34c1.47-1.6,6.22-4.59,6.22-12.12,0-2.41-4.68-3.66-5.4-1.84L25.18,27.43S28.3,29.78,29.62,28.34Z"/><path fill="#d72525" d="M29.68,28c1.45-1.55,6.12-4.45,6.12-11.82,0-2.36-4.64-3.58-5.35-1.81L25.29,27.11S28.37,29.41,29.68,28Z"/><path fill="#d82626" d="M29.73,27.7c1.43-1.49,6-4.32,6-11.53,0-2.3-4.61-3.49-5.3-1.76L25.39,26.79S28.44,29,29.73,27.7Z"/><path fill="#d92626" d="M29.79,27.38c1.41-1.43,5.93-4.19,5.93-11.23,0-2.25-4.57-3.41-5.26-1.73l-5,12S28.51,28.67,29.79,27.38Z"/><path fill="#da2727" d="M29.84,27.06c1.4-1.38,5.83-4.06,5.83-10.94,0-2.18-4.52-3.32-5.2-1.68L25.6,26.15S28.59,28.3,29.84,27.06Z"/><path fill="#db2727" d="M29.89,26.74c1.39-1.32,5.74-3.93,5.74-10.65,0-2.12-4.48-3.23-5.15-1.63L25.7,25.83S28.66,27.93,29.89,26.74Z"/><path fill="#dc2828" d="M30,26.43c1.37-1.28,5.64-3.81,5.64-10.36,0-2.07-4.45-3.15-5.11-1.6l-4.68,11S28.73,27.56,30,26.43Z"/><path fill="#dd2828" d="M30,26.11c1.35-1.22,5.55-3.68,5.55-10.07,0-2-4.41-3.06-5.06-1.55L25.91,25.2S28.8,27.19,30,26.11Z"/><path fill="#de2929" d="M30.06,25.79c1.33-1.16,5.45-3.55,5.45-9.78,0-1.94-4.37-3-5-1.51L26,24.88S28.87,26.82,30.06,25.79Z"/><path fill="#df2929" d="M30.11,25.47c1.32-1.11,5.36-3.42,5.36-9.48,0-1.89-4.34-2.89-5-1.47l-4.38,10S28.94,26.45,30.11,25.47Z"/><path fill="#e02a2a" d="M30.17,25.15c1.3-1,5.26-3.29,5.26-9.19,0-1.83-4.3-2.8-4.92-1.42l-4.29,9.7S29,26.08,30.17,25.15Z"/><path fill="#e12a2a" d="M30.22,24.83c1.29-1,5.17-3.16,5.17-8.89,0-1.78-4.26-2.72-4.87-1.39l-4.2,9.37S29.09,25.72,30.22,24.83Z"/><path fill="#e22b2b" d="M30.28,24.52c1.27-.95,5.07-3,5.07-8.61,0-1.71-4.22-2.63-4.83-1.34l-4.09,9S29.16,25.35,30.28,24.52Z"/><path fill="#e32b2b" d="M30.33,24.2c1.25-.89,5-2.9,5-8.32,0-1.65-4.19-2.54-4.78-1.3l-4,8.7S29.23,25,30.33,24.2Z"/><path fill="#e42c2c" d="M30.39,23.88c1.23-.84,4.88-2.77,4.88-8,0-1.6-4.15-2.46-4.73-1.26L26.64,23S29.31,24.61,30.39,23.88Z"/><path fill="#e52c2c" d="M30.44,23.56c1.22-.78,4.79-2.64,4.79-7.73,0-1.54-4.11-2.37-4.69-1.21l-3.8,8S29.38,24.24,30.44,23.56Z"/><path fill="#e62d2d" d="M30.5,23.24a8.1,8.1,0,0,0,4.69-7.44c0-1.47-4.07-2.28-4.64-1.17l-3.71,7.7S29.45,23.87,30.5,23.24Z"/><path fill="#e72d2d" d="M30.55,22.92a7.68,7.68,0,0,0,4.6-7.14c0-1.42-4-2.2-4.59-1.13L27,22S29.52,23.5,30.55,22.92Z"/><path fill="#e82e2e" d="M30.6,22.6a7.29,7.29,0,0,0,4.51-6.85c0-1.36-4-2.11-4.54-1.09l-3.52,7S29.6,23.13,30.6,22.6Z"/><path fill="#e92e2e" d="M30.66,22.29a6.94,6.94,0,0,0,4.41-6.56c0-1.31-4-2-4.5-1.05l-3.42,6.69S29.67,22.76,30.66,22.29Z"/><path fill="url(#CZ6Ug~KEVqILSMNBZ5174a)" d="M36.69,16.78a22.4,22.4,0,0,1-2.16,10,21.72,21.72,0,0,1-1.46,2.54,11.56,11.56,0,0,1-.66,1v0l-.22.29c-.6.8-1.2,1.5-1.75,2.13l-.37.42-.12.15A16.32,16.32,0,0,0,28.48,35C26.8,37.55,23,34.11,23,34.11l2.33-6.38,1.41-3.91.18-.49,1.24-3.4L30.3,14a2.57,2.57,0,0,1,.16-.37,1.77,1.77,0,0,1,.16-.22h0a.8.8,0,0,1,.18-.19.7.7,0,0,1,.17-.14l.21-.12,0,0a1.36,1.36,0,0,1,.21-.1,3.29,3.29,0,0,1,.58-.13,4.51,4.51,0,0,1,3.33,1.2A3.81,3.81,0,0,1,36.69,16.78Z" opacity=".9"/><path fill="url(#CZ6Ug~KEVqILSMNBZ5174b)" d="M31.58,21.39c0,1,1.78,3.64,3,5.34a21.72,21.72,0,0,1-1.46,2.54,11.56,11.56,0,0,1-.66,1v0l-.22.29c-.6.8-1.2,1.5-1.75,2.13-.54-1.09-1.15-2.33-1.3-2.68l-1-10.06L30.3,14a2.57,2.57,0,0,1,.16-.37,1.77,1.77,0,0,1,.16-.22h0a.8.8,0,0,1,.18-.19.7.7,0,0,1,.17-.14l.21-.12,0,0a1.36,1.36,0,0,1,.21-.1,3.29,3.29,0,0,1,.58-.13,4.51,4.51,0,0,1,3.33,1.2A1.41,1.41,0,0,0,34,14C31.53,15,31.4,17.94,31.58,21.39Z" opacity=".8"/><path fill="#ba1717" d="M26.07,35.09H17a9.32,9.32,0,0,1-3.6-.89c-2.74-3.65-4.11-8.28-4.11-14.69a27.85,27.85,0,0,1,.91-7.3c1.21-3.62,3.69-6.38,10-6.38H23c4.54,0,8.21,3.65,7.87,7.37-1.48,6.31-.52,8.28.34,10.88s.92,6.38-1.82,11C29.39,35,28,35.09,26.07,35.09Z"/><path fill="#bb1717" d="M10.26,12.21c1.19-3.57,3.63-6.3,9.85-6.34H23c4.51,0,8.15,3.62,7.82,7.31-1.45,6.24-.5,8.2.34,10.79.89,2.75.86,6.38-1.82,10.86,0,0-1.42.08-3.29.08H17A9,9,0,0,1,13.43,34c-2.72-3.62-4.08-8.22-4.08-14.58A27.38,27.38,0,0,1,10.26,12.21Z"/><path fill="#bc1818" d="M10.3,12.21C11.48,8.67,13.9,6,20.08,5.92h2.84c4.48,0,8.09,3.58,7.77,7.24-1.41,6.16-.48,8.13.33,10.7.87,2.77.82,6.38-1.81,10.77a30.07,30.07,0,0,1-3.26.1H17a8.43,8.43,0,0,1-3.55-.87c-2.71-3.6-4.06-8.16-4.06-14.46A27,27,0,0,1,10.3,12.21Z"/><path fill="#bd1818" d="M10.34,12.21C11.51,8.69,13.91,6,20.06,6h2.81c4.46,0,8,3.55,7.73,7.17-1.37,6.08-.46,8.05.33,10.61.85,2.79.77,6.38-1.81,10.68a22.25,22.25,0,0,1-3.23.12H17a7.94,7.94,0,0,1-3.54-.87c-2.69-3.56-4-8.09-4-14.34A26.22,26.22,0,0,1,10.34,12.21Z"/><path fill="#be1919" d="M10.37,12.21C11.55,8.72,13.92,6.05,20,6h2.79c4.43,0,8,3.51,7.68,7.1-1.34,6-.44,8,.32,10.52.83,2.8.72,6.38-1.81,10.59a15.75,15.75,0,0,1-3.19.15H17a7.63,7.63,0,0,1-3.52-.87c-2.67-3.53-4-8-4-14.23A26.25,26.25,0,0,1,10.37,12.21Z"/><path fill="#bf1919" d="M10.41,12.21C11.58,8.75,13.93,6.1,20,6.07h2.78c4.41,0,7.92,3.47,7.64,7C29.12,19,30,21,30.74,23.53c.81,2.82.67,6.38-1.81,10.5a13.17,13.17,0,0,1-3.16.17H17a7.2,7.2,0,0,1-3.49-.86c-2.66-3.51-4-8-4-14.12A25.86,25.86,0,0,1,10.41,12.21Z"/><path fill="#c01a1a" d="M10.45,12.21C11.61,8.77,13.94,6.15,20,6.12h2.76c4.38,0,7.86,3.44,7.59,7-1.28,5.84-.4,7.82.3,10.35.79,2.83.63,6.37-1.8,10.4a11.22,11.22,0,0,1-3.13.19H17a7,7,0,0,1-3.47-.85c-2.64-3.48-3.94-7.9-3.94-14A25.41,25.41,0,0,1,10.45,12.21Z"/><path fill="#c11a1a" d="M10.49,12.21C11.64,8.8,14,6.2,20,6.16h2.75c4.35,0,7.8,3.41,7.54,6.9-1.24,5.77-.38,7.75.3,10.26a13,13,0,0,1-1.8,10.31,9.73,9.73,0,0,1-3.1.21H17A6.77,6.77,0,0,1,13.51,33C10.89,29.54,9.6,25.16,9.6,19.1A25,25,0,0,1,10.49,12.21Z"/><path fill="#c21b1b" d="M10.52,12.21c1.15-3.38,3.45-6,9.42-6h2.73c4.32,0,7.74,3.37,7.49,6.82-1.2,5.7-.36,7.68.29,10.18a13,13,0,0,1-1.79,10.22c0,.17-1.27.23-3.07.23H17a6.25,6.25,0,0,1-3.43-.84C10.91,29.4,9.64,25.05,9.64,19A25,25,0,0,1,10.52,12.21Z"/><path fill="#c31b1b" d="M10.56,12.21c1.14-3.36,3.42-5.92,9.36-6h2.7c4.31,0,7.69,3.34,7.45,6.75-1.17,5.62-.34,7.61.28,10.09a13,13,0,0,1-1.78,10.13c0,.2-1.25.25-3,.25H17a6.1,6.1,0,0,1-3.41-.83C10.94,29.26,9.68,24.94,9.68,19A24.54,24.54,0,0,1,10.56,12.21Z"/><path fill="#c41c1c" d="M10.6,12.2C11.73,8.88,14,6.34,19.89,6.31h2.69c4.28,0,7.63,3.3,7.4,6.68-1.13,5.54-.32,7.53.28,10a13.11,13.11,0,0,1-1.78,10c0,.22-1.23.27-3,.27H16.94c-1.7,0-3.32-.57-3.39-.82C11,29.11,9.72,24.83,9.72,18.92A24.3,24.3,0,0,1,10.6,12.2Z"/><path fill="#c51c1c" d="M10.63,12.2C11.76,8.91,14,6.39,19.87,6.36h2.67c4.25,0,7.57,3.26,7.36,6.61a18.06,18.06,0,0,0,.26,9.91,13.11,13.11,0,0,1-1.77,10c0,.23-1.21.28-3,.28H16.94c-1.7,0-3.3-.53-3.37-.81C11,29,9.76,24.72,9.76,18.86A24.32,24.32,0,0,1,10.63,12.2Z"/><path fill="#c61d1d" d="M10.67,12.2C11.79,8.93,14,6.43,19.85,6.41H22.5C26.72,6.4,30,9.64,29.81,13a18.38,18.38,0,0,0,.26,9.82,13.18,13.18,0,0,1-1.77,9.87c0,.25-1.19.3-2.94.3H16.93c-1.68,0-3.27-.5-3.35-.8C11,28.83,9.81,24.61,9.81,18.8A24,24,0,0,1,10.67,12.2Z"/><path fill="#c71d1d" d="M10.71,12.2C11.82,9,14,6.48,19.82,6.45h2.64c4.19,0,7.45,3.2,7.26,6.48A18.9,18.9,0,0,0,30,22.67a13.24,13.24,0,0,1-1.76,9.77c0,.28-1.17.33-2.91.33H16.92c-1.67,0-3.25-.48-3.33-.8-2.53-3.29-3.74-7.47-3.74-13.23A23.57,23.57,0,0,1,10.71,12.2Z"/><path fill="#c81d1e" d="M10.75,12.2C11.85,9,14,6.53,19.8,6.5h2.62c4.17,0,7.39,3.16,7.21,6.41a19.16,19.16,0,0,0,.25,9.65,13.27,13.27,0,0,1-1.76,9.68c0,.3-1.15.35-2.88.35H16.91c-1.66,0-3.22-.44-3.3-.8-2.52-3.25-3.72-7.39-3.72-13.11A23.13,23.13,0,0,1,10.75,12.2Z"/><path fill="#c91e1e" d="M10.78,12.2c1.1-3.19,3.26-5.62,9-5.65h2.59c4.15,0,7.34,3.13,7.17,6.34a19.6,19.6,0,0,0,.24,9.56A13.29,13.29,0,0,1,28,32c0,.32-1.13.37-2.85.37H16.91c-1.66,0-3.2-.41-3.29-.79-2.5-3.22-3.69-7.33-3.69-13A23.2,23.2,0,0,1,10.78,12.2Z"/><path fill="#ca1e1f" d="M10.82,12.2C11.91,9,14.06,6.62,19.75,6.6h2.58c4.12,0,7.28,3.09,7.13,6.27a19.83,19.83,0,0,0,.23,9.47,13.43,13.43,0,0,1-1.75,9.5c0,.34-1.11.39-2.82.39H16.9c-1.64,0-3.17-.38-3.27-.78C11.15,28.25,10,24.18,10,18.57A22.79,22.79,0,0,1,10.82,12.2Z"/><path fill="#cb1f1f" d="M10.86,12.2c1.08-3.13,3.21-5.53,8.87-5.55h2.56c4.09,0,7.22,3.06,7.08,6.2a20.48,20.48,0,0,0,.22,9.38,13.45,13.45,0,0,1-1.74,9.41c0,.37-1.09.41-2.79.41H16.89c-1.63,0-3.14-.34-3.24-.77C11.17,28.11,10,24.07,10,18.51A22.29,22.29,0,0,1,10.86,12.2Z"/><path fill="#cc1f20" d="M10.9,12.2C12,9.09,14.08,6.72,19.71,6.69h2.54c4.07,0,7.16,3,7,6.14a21,21,0,0,0,.22,9.29,13.54,13.54,0,0,1-1.74,9.32c-.05.39-1.07.43-2.76.43H16.88c-1.62,0-3.11-.31-3.22-.76C11.2,28,10.05,24,10.05,18.45A21.92,21.92,0,0,1,10.9,12.2Z"/><path fill="#cd2020" d="M10.93,12.2C12,9.12,14.09,6.77,19.68,6.74h2.53c4,0,7.1,3,7,6.07A21.64,21.64,0,0,0,29.4,22a13.57,13.57,0,0,1-1.74,9.23c0,.41-1,.45-2.72.45H16.88c-1.61,0-3.09-.28-3.21-.76-2.44-3.11-3.58-7.08-3.58-12.54A21.93,21.93,0,0,1,10.93,12.2Z"/><path fill="#ce2021" d="M11,12.2c1.06-3,3.13-5.39,8.69-5.41h2.51c4,0,7,3,6.93,6a22.19,22.19,0,0,0,.21,9.12A13.66,13.66,0,0,1,27.57,31c0,.43-1,.47-2.69.47h-8c-1.6,0-3.06-.24-3.19-.75-2.42-3.08-3.55-7-3.55-12.43A21.55,21.55,0,0,1,11,12.2Z"/><path fill="#cf2121" d="M11,12.2c1.05-3,3.1-5.34,8.63-5.36h2.48c4,0,7,2.92,6.89,5.93a23.15,23.15,0,0,0,.2,9,13.69,13.69,0,0,1-1.73,9c-.05.45-1,.5-2.66.5h-8c-1.59,0-3-.22-3.16-.75-2.41-3.05-3.53-7-3.53-12.32A21.13,21.13,0,0,1,11,12.2Z"/><path fill="#d02122" d="M11,12.19c1.05-3,3.08-5.28,8.57-5.3h2.47c4,0,6.93,2.88,6.85,5.86a23.86,23.86,0,0,0,.18,8.94,13.79,13.79,0,0,1-1.72,9c-.05.48-1,.52-2.63.52H16.85c-1.57,0-3-.19-3.14-.74-2.39-3-3.49-6.9-3.49-12.21A21.34,21.34,0,0,1,11,12.19Z"/><path fill="#d12222" d="M11.08,12.19c1-3,3.05-5.23,8.51-5.25H22c3.94,0,6.87,2.85,6.8,5.79A24.56,24.56,0,0,0,29,21.58a13.89,13.89,0,0,1-1.72,8.86c-.05.5-1,.54-2.6.54H16.85c-1.57,0-3-.15-3.13-.73-2.37-3-3.46-6.84-3.46-12.1A21,21,0,0,1,11.08,12.19Z"/><path fill="#d22223" d="M11.12,12.19c1-2.94,3-5.19,8.45-5.21H22c3.91,0,6.81,2.82,6.75,5.73a25.63,25.63,0,0,0,.17,8.76,14,14,0,0,1-1.71,8.78c-.06.51-.94.55-2.57.55h-7.8c-1.56,0-2.95-.12-3.1-.73-2.36-3-3.44-6.76-3.44-12A20.54,20.54,0,0,1,11.12,12.19Z"/><path fill="#d32323" d="M11.16,12.19c1-2.91,3-5.14,8.38-5.16H22c3.88,0,6.75,2.78,6.7,5.66a26.79,26.79,0,0,0,.17,8.67,14.15,14.15,0,0,1-1.71,8.69c-.06.53-.92.57-2.53.57H16.83c-1.55,0-2.92-.09-3.08-.72C11.41,27,10.34,23.2,10.34,18A20.17,20.17,0,0,1,11.16,12.19Z"/><path fill="#d32323" d="M11.19,12.19c1-2.88,3-5.09,8.33-5.11h2.39c3.86,0,6.7,2.75,6.66,5.59a28.2,28.2,0,0,0,.16,8.58,14.19,14.19,0,0,1-1.7,8.6c-.06.56-.9.59-2.5.59H16.82c-1.53,0-2.89-.05-3.06-.71-2.33-2.91-3.38-6.64-3.38-11.76A20.11,20.11,0,0,1,11.19,12.19Z"/><path fill="#d42324" d="M11.23,12.19c1-2.85,2.95-5,8.26-5.06h2.38c3.84,0,6.64,2.71,6.62,5.52a29.19,29.19,0,0,0,.15,8.5,14.31,14.31,0,0,1-1.7,8.5c-.07.58-.88.61-2.47.61H16.82c-1.53,0-2.87,0-3-.7-2.32-2.89-3.36-6.58-3.36-11.65A19.69,19.69,0,0,1,11.23,12.19Z"/><path fill="#d52424" d="M11.27,12.19c1-2.83,2.92-5,8.2-5h2.36c3.81,0,6.58,2.67,6.57,5.45A31,31,0,0,0,28.54,21a14.43,14.43,0,0,1-1.69,8.41c-.07.6-.86.63-2.44.63h-7.6c-1.52,0-2.84,0-3-.69-2.3-2.86-3.33-6.52-3.33-11.54A19.33,19.33,0,0,1,11.27,12.19Z"/><path fill="#d62425" d="M11.31,12.19c1-2.8,2.89-4.95,8.14-5h2.34c3.78,0,6.52,2.65,6.52,5.39a32.62,32.62,0,0,0,.14,8.32,14.56,14.56,0,0,1-1.69,8.32c-.07.62-.84.66-2.41.66H16.8c-1.5,0-2.81,0-3-.69-2.28-2.83-3.3-6.46-3.3-11.43A18.92,18.92,0,0,1,11.31,12.19Z"/><path fill="#d72525" d="M11.34,12.19c1-2.77,2.87-4.9,8.08-4.92h2.33c3.75,0,6.46,2.61,6.47,5.32a35.13,35.13,0,0,0,.13,8.23,14.7,14.7,0,0,1-1.68,8.23c-.08.64-.82.68-2.38.68h-7.5c-1.49,0-2.78.07-3-.69-2.27-2.8-3.28-6.39-3.28-11.3A19,19,0,0,1,11.34,12.19Z"/><path fill="#d82526" d="M11.38,12.19c1-2.75,2.84-4.85,8-4.87h2.31c3.73,0,6.4,2.57,6.42,5.25a38.06,38.06,0,0,0,.13,8.14,14.93,14.93,0,0,1-1.68,8.14c-.08.67-.8.7-2.35.7H16.79c-1.49,0-2.77.1-3-.68-2.25-2.77-3.24-6.33-3.24-11.19A18.63,18.63,0,0,1,11.38,12.19Z"/><path fill="#d92626" d="M11.42,12.19c1-2.72,2.81-4.81,8-4.82h2.28c3.71,0,6.35,2.54,6.38,5.18a41.06,41.06,0,0,0,.12,8.05,15,15,0,0,1-1.67,8c-.08.69-.78.72-2.32.72H16.78c-1.48,0-2.74.14-2.94-.67-2.23-2.74-3.21-6.27-3.21-11.08A18.22,18.22,0,0,1,11.42,12.19Z"/><path fill="#da2627" d="M11.45,12.18c1-2.68,2.79-4.75,7.9-4.76h2.27c3.68,0,6.29,2.5,6.34,5.11a44.78,44.78,0,0,0,.11,8,15.25,15.25,0,0,1-1.67,8c-.08.71-.76.74-2.29.74H16.77c-1.46,0-2.71.17-2.91-.66-2.22-2.72-3.19-6.21-3.19-11A18.4,18.4,0,0,1,11.45,12.18Z"/><path fill="#db2727" d="M11.49,12.18c1-2.66,2.76-4.7,7.84-4.71h2.25c3.65,0,6.23,2.46,6.29,5a49.58,49.58,0,0,0,.1,7.88,15.32,15.32,0,0,1-1.67,7.86c-.08.73-.73.76-2.25.76H16.76c-1.45,0-2.68.2-2.89-.65-2.2-2.69-3.16-6.14-3.16-10.86A18,18,0,0,1,11.49,12.18Z"/><path fill="#dc2728" d="M11.53,12.18c1-2.63,2.73-4.65,7.78-4.67h2.23c3.62,0,6.17,2.44,6.24,5a55.33,55.33,0,0,0,.1,7.79,15.48,15.48,0,0,1-1.67,7.77c-.08.76-.71.78-2.22.78H16.76c-1.45,0-2.66.24-2.88-.65-2.19-2.65-3.13-6.07-3.13-10.74A17.57,17.57,0,0,1,11.53,12.18Z"/><path fill="#dd2828" d="M11.57,12.18c.95-2.6,2.71-4.61,7.71-4.62H21.5c3.6,0,6.11,2.4,6.19,4.91a67.81,67.81,0,0,0,.09,7.7,15.67,15.67,0,0,1-1.66,7.68c-.08.78-.69.8-2.19.8H16.75c-1.43,0-2.63.27-2.85-.64-2.18-2.63-3.11-6-3.11-10.63A17.17,17.17,0,0,1,11.57,12.18Z"/><path fill="#de2829" d="M11.6,12.18c1-2.58,2.69-4.56,7.66-4.57h2.2c3.57,0,6.05,2.36,6.14,4.84-.21,3.43.07,5.53.08,7.61A16,16,0,0,1,26,27.66c-.09.79-.67.82-2.16.82H16.74c-1.42,0-2.6.29-2.83-.64-2.16-2.6-3.08-5.95-3.08-10.52A17.15,17.15,0,0,1,11.6,12.18Z"/><path fill="#df2929" d="M11.64,12.18c.94-2.55,2.66-4.5,7.6-4.52h2.17c3.55,0,6,2.33,6.1,4.77-.17,3.35.08,5.45.08,7.52a16.28,16.28,0,0,1-1.65,7.51c-.09.81-.65.84-2.13.84H16.73c-1.41,0-2.57.33-2.81-.63-2.14-2.58-3.05-5.89-3.05-10.41A16.8,16.8,0,0,1,11.64,12.18Z"/><path fill="#e0292a" d="M11.68,12.18c.93-2.52,2.63-4.45,7.53-4.47h2.16c3.52,0,5.94,2.29,6.06,4.7-.15,3.27.09,5.38.06,7.43a16.51,16.51,0,0,1-1.64,7.42c-.09.84-.63.86-2.1.86h-7c-1.41,0-2.55.36-2.79-.62-2.13-2.55-3-5.83-3-10.3A16.4,16.4,0,0,1,11.68,12.18Z"/><path fill="#e1292a" d="M11.71,12.18c.93-2.5,2.61-4.41,7.48-4.42h2.14c3.5,0,5.88,2.27,6,4.64-.11,3.19.1,5.31.06,7.34a16.93,16.93,0,0,1-1.64,7.33c-.1.86-.61.88-2.06.88h-7c-1.39,0-2.52.39-2.77-.62-2.11-2.51-3-5.76-3-10.18A16.49,16.49,0,0,1,11.71,12.18Z"/><path fill="#e22a2b" d="M11.75,12.18c.92-2.47,2.58-4.36,7.42-4.38h2.12c3.47,0,5.82,2.23,6,4.57-.07,3.11.11,5.23.05,7.26a17.2,17.2,0,0,1-1.63,7.23c-.1.88-.59.9-2,.9H16.71c-1.38,0-2.49.43-2.75-.61-2.09-2.49-3-5.7-3-10.07A16.09,16.09,0,0,1,11.75,12.18Z"/><path fill="#e32a2b" d="M11.79,12.18c.91-2.44,2.55-4.31,7.35-4.33h2.11c3.44,0,5.76,2.19,5.91,4.5,0,3,.12,5.16.05,7.17a17.63,17.63,0,0,1-1.63,7.14c-.1.9-.57.92-2,.92H16.71c-1.38,0-2.47.46-2.74-.6C11.9,24.52,11,21.34,11,17A15.69,15.69,0,0,1,11.79,12.18Z"/><path fill="#e42b2c" d="M11.83,12.18c.9-2.42,2.52-4.26,7.29-4.28H21.2c3.42,0,5.71,2.16,5.87,4.43,0,3,.14,5.08,0,7.08a18,18,0,0,1-1.62,7.05c-.11.92-.56.94-2,.94H16.7c-1.36,0-2.44.49-2.71-.59-2.07-2.43-2.91-5.58-2.91-9.85A15.35,15.35,0,0,1,11.83,12.18Z"/><path fill="#e52b2c" d="M11.86,12.17C12.77,9.79,14.36,8,19.1,8h2.06c3.39,0,5.65,2.12,5.83,4.36,0,2.88.14,5,0,7a18.47,18.47,0,0,1-1.62,7c-.11.95-.54,1-1.94,1H16.69c-1.35,0-2.41.53-2.69-.58-2.05-2.41-2.88-5.51-2.88-9.73A15.41,15.41,0,0,1,11.86,12.17Z"/><path fill="#e62c2d" d="M11.9,12.17C12.8,9.82,14.37,8,19.07,8h2.05c3.37,0,5.59,2.08,5.78,4.29.06,2.8.15,4.93,0,6.9a18.88,18.88,0,0,1-1.61,6.87c-.11,1-.52,1-1.91,1H16.68c-1.34,0-2.38.55-2.67-.58-2-2.38-2.85-5.45-2.85-9.62A15.08,15.08,0,0,1,11.9,12.17Z"/><path fill="#e72c2d" d="M11.94,12.17c.89-2.33,2.45-4.11,7.11-4.13h2c3.34,0,5.54,2.06,5.73,4.23a64.6,64.6,0,0,1,0,6.81,19.73,19.73,0,0,1-1.61,6.78c-.11,1-.5,1-1.88,1H16.68c-1.34,0-2.36.58-2.65-.58-2-2.34-2.83-5.38-2.83-9.5A14.69,14.69,0,0,1,11.94,12.17Z"/><path fill="#e82d2e" d="M12,12.17c.88-2.3,2.42-4.06,7.05-4.08h2c3.31,0,5.48,2,5.68,4.16a51.82,51.82,0,0,1,0,6.72,20.34,20.34,0,0,1-1.6,6.69c-.12,1-.48,1-1.85,1H16.67c-1.32,0-2.33.62-2.63-.57-2-2.32-2.8-5.32-2.8-9.39A14,14,0,0,1,12,12.17Z"/><path fill="#e92d2e" d="M12,12.17c.88-2.27,2.4-4,7-4h2c3.28,0,5.42,2,5.63,4.09a42,42,0,0,1,0,6.64A20.68,20.68,0,0,1,25,25.46c-.11,1-.45,1.05-1.81,1.05H16.66c-1.31,0-2.3.65-2.61-.56-2-2.29-2.77-5.26-2.77-9.28A14,14,0,0,1,12,12.17Z"/><path fill="#ea2e2f" d="M12.05,12.17c.87-2.25,2.37-4,6.93-4h2c3.27,0,5.37,2,5.59,4a34.8,34.8,0,0,1,0,6.55,21.64,21.64,0,0,1-1.6,6.5c-.11,1.06-.43,1.07-1.78,1.07H16.65c-1.3,0-2.27.68-2.58-.55-2-2.26-2.75-5.2-2.75-9.17A13.66,13.66,0,0,1,12.05,12.17Z"/><path fill="#eb2e2f" d="M12.09,12.17C13,10,14.43,8.25,19,8.24h2c3.24,0,5.31,1.91,5.55,3.95a30.78,30.78,0,0,1,0,6.46,22.63,22.63,0,0,1-1.59,6.42c-.12,1.07-.41,1.08-1.75,1.08H16.65c-1.29,0-2.26.72-2.57-.54-1.95-2.24-2.71-5.14-2.71-9.06A13.34,13.34,0,0,1,12.09,12.17Z"/><path fill="#ec2f30" d="M12.12,12.17C13,10,14.44,8.3,18.93,8.29h1.94c3.21,0,5.25,1.87,5.5,3.87a27.07,27.07,0,0,1,0,6.38,24.19,24.19,0,0,1-1.59,6.33C24.64,26,24.37,26,23,26h-6.4c-1.28,0-2.23.75-2.55-.54-1.93-2.2-2.68-5.07-2.68-8.94A13.34,13.34,0,0,1,12.12,12.17Z"/><path fill="#ed2f30" d="M23,25.79H16.63c-1.27,0-2.2.78-2.52-.53-1.93-2.18-2.66-5-2.66-8.83a13,13,0,0,1,.71-4.26C13,10,14.45,8.33,18.91,8.33h1.92c3.18,0,5.19,1.85,5.45,3.81a26.35,26.35,0,0,1-1.61,12.53C24.55,25.78,24.3,25.79,23,25.79Z"/><path fill="url(#CZ6Ug~KEVqILSMNBZ5174c)" d="M30.93,31.86a17.44,17.44,0,0,1-1.09,2.36c-.13.27-.29.53-.45.81,0,0-1.44.06-3.32.06H17a8.05,8.05,0,0,1-3.59-.89,2.14,2.14,0,0,1-.13-.19,16.69,16.69,0,0,1-1.5-2.43c1.52-.94,5.25-1.23,9.3-1.23C23.59,30.35,28.08,30.64,30.93,31.86Z" opacity=".8"/><path fill="url(#CZ6Ug~KEVqILSMNBZ5174d)" d="M26.07,35.09H17a9.32,9.32,0,0,1-3.6-.89c-2.74-3.65-4.11-8.28-4.11-14.69a27.85,27.85,0,0,1,.91-7.3c1.21-3.62,3.69-6.38,10-6.38H23c4.54,0,8.21,3.65,7.87,7.37-1.48,6.31-.52,8.28.34,10.88s.92,6.38-1.82,11C29.39,35,28,35.09,26.07,35.09Z" opacity=".8"/><path fill="url(#CZ6Ug~KEVqILSMNBZ5174e)" d="M26.07,35.09H17a9.32,9.32,0,0,1-3.6-.89c-2.74-3.65-4.11-8.28-4.11-14.69a27.85,27.85,0,0,1,.91-7.3c1.21-3.62,3.69-6.38,10-6.38H23c4.54,0,8.21,3.65,7.87,7.37-1.48,6.31-.52,8.28.34,10.88s.92,6.38-1.82,11C29.39,35,28,35.09,26.07,35.09Z"/><path fill="url(#CZ6Ug~KEVqILSMNBZ5174f)" d="M26.07,35.09H17a8.07,8.07,0,0,1-3.6-.89c-2.74-3.65-4.11-8.28-4.11-14.69a27.85,27.85,0,0,1,.91-7.3c1.21-3.62,3.69-6.38,10-6.38H23c4.54,0,8.21,3.65,7.87,7.37-1.48,6.31-.52,8.28.34,10.88s.92,6.38-1.82,11C29.39,35,28,35.09,26.07,35.09Z" opacity=".9"/><path fill="url(#CZ6Ug~KEVqILSMNBZ5174g)" d="M30.3,35.94V40.5c0,.16-.46,1.7-.49,1.85-1.74.2-6.36.31-8.51.31s-6.77-.11-8.51-.31a3.57,3.57,0,0,1,0-.47V34.81c0-.11,0-.21,0-.32,2.11.19,6.4.3,8.53.3s4.49.06,6.57-.13C27.88,34.77,30.3,35.83,30.3,35.94Z"/><path fill="url(#CZ6Ug~KEVqILSMNBZ5174h)" d="M30.3,35.94V40.5c0,.16-.46,1.7-.49,1.85-1.74.2-6.36.31-8.51.31s-6.77-.11-8.51-.31a3.57,3.57,0,0,1,0-.47V34.81c0-.11,0-.21,0-.32,2.11.19,6.4.3,8.53.3s4.49.06,6.57-.13C27.88,34.77,30.3,35.83,30.3,35.94Z" opacity=".6"/><path fill="url(#CZ6Ug~KEVqILSMNBZ5174i)" d="M30.3,35.94V40.5c0,.16-.46,1.7-.49,1.85-1.74.2-6.36.31-8.51.31s-6.77-.11-8.51-.31a3.57,3.57,0,0,1,0-.47V34.81c0-.11,0-.21,0-.32,2.11.19,6.4.3,8.53.3s4.49.06,6.57-.13C27.88,34.77,30.3,35.83,30.3,35.94Z" opacity=".9"/><path fill="#8e9ca5" d="M22.21,43.92A55,55,0,0,1,12.83,43a.7.7,0,0,1-.54-.81.69.69,0,0,1,.82-.53,55.35,55.35,0,0,0,9.1.9,39.17,39.17,0,0,0,5.87-.47,2,2,0,0,0,1.75-2V37.38a2,2,0,0,0-.72-1.55,2.07,2.07,0,0,0-1.62-.48,40,40,0,0,1-5.28.36,56.14,56.14,0,0,1-9.38-.92.69.69,0,1,1,.28-1.35,54.13,54.13,0,0,0,9.1.9A38.78,38.78,0,0,0,27.3,34,3.5,3.5,0,0,1,30,34.8a3.41,3.41,0,0,1,1.18,2.58v2.69a3.42,3.42,0,0,1-2.91,3.38A42.23,42.23,0,0,1,22.21,43.92Z"/><path fill="#8f9da6" d="M12.3,34a.54.54,0,0,1,.15-.3.67.67,0,0,1,.66-.23,54.76,54.76,0,0,0,9.1.9A38.89,38.89,0,0,0,27.3,34l.28,0H28a3.44,3.44,0,0,1,3.21,3.4v2.68c0,.08,0,.16,0,.24a3.41,3.41,0,0,1-2.9,3.14,40.61,40.61,0,0,1-6.09.48A54,54,0,0,1,12.84,43a.6.6,0,0,1-.19-.06l-.15-.11a.68.68,0,0,1-.2-.63.7.7,0,0,1,.82-.53,54.51,54.51,0,0,0,8.25.89h.85a39.75,39.75,0,0,0,5.19-.36l.68-.1a2.05,2.05,0,0,0,1.74-2V37.38a2.06,2.06,0,0,0-.71-1.55,1.5,1.5,0,0,0-.33-.23,2.08,2.08,0,0,0-1.29-.26L27,35.4l-.35,0a38,38,0,0,1-4.46.27h-.76a56,56,0,0,1-8.62-.92.69.69,0,0,1-.51-.42.65.65,0,0,1,0-.19A.41.41,0,0,1,12.3,34Z"/><path fill="#909ea7" d="M12.3,34a.77.77,0,0,1,.15-.3.71.71,0,0,1,.67-.22,55.46,55.46,0,0,0,9.09.89A37.23,37.23,0,0,0,27.3,34l.28,0H28a3.46,3.46,0,0,1,2,.83,3.41,3.41,0,0,1,1.18,2.57v2.68a1.93,1.93,0,0,1,0,.24,3.38,3.38,0,0,1-2.89,3.13,40.61,40.61,0,0,1-6.09.48A55.64,55.64,0,0,1,12.84,43l-.19-.07a.71.71,0,0,1-.14-.1.67.67,0,0,1-.2-.63.69.69,0,0,1,.82-.52,55.12,55.12,0,0,0,8.25.89h.85a41.36,41.36,0,0,0,5.19-.37l.68-.1a2.05,2.05,0,0,0,1.74-2V37.38a2.06,2.06,0,0,0-.71-1.55,2.19,2.19,0,0,0-.33-.23,2,2,0,0,0-1.29-.26L27,35.4l-.35,0a40.19,40.19,0,0,1-4.46.26h-.76a55.64,55.64,0,0,1-8.62-.91.71.71,0,0,1-.51-.42.67.67,0,0,1-.05-.19A1.28,1.28,0,0,1,12.3,34Z"/><path fill="#919ea7" d="M12.31,34a.57.57,0,0,1,.15-.3.69.69,0,0,1,.67-.22,53.8,53.8,0,0,0,9.08.9A38.74,38.74,0,0,0,27.29,34l.29,0H28a3.42,3.42,0,0,1,3.2,3.39v2.68c0,.07,0,.16,0,.24a3.4,3.4,0,0,1-2.89,3.13,40.73,40.73,0,0,1-6.09.48A54,54,0,0,1,12.84,43a.6.6,0,0,1-.19-.06l-.14-.11a.65.65,0,0,1-.19-.62.68.68,0,0,1,.82-.51,55.15,55.15,0,0,0,8.25.88h.85a39.75,39.75,0,0,0,5.19-.36l.68-.11a2,2,0,0,0,1.73-2V37.38a2.05,2.05,0,0,0-.7-1.55,2.62,2.62,0,0,0-.34-.24,2.12,2.12,0,0,0-1.29-.26l-.46.06-.35,0a40.37,40.37,0,0,1-4.47.26h-.75a55.37,55.37,0,0,1-8.62-.92.68.68,0,0,1-.51-.41.63.63,0,0,1,0-.38Z"/><path fill="#929fa8" d="M12.31,34a.73.73,0,0,1,.15-.29.71.71,0,0,1,.67-.22,55,55,0,0,0,9.08.89A38.7,38.7,0,0,0,27.29,34l.29,0A2.8,2.8,0,0,1,28,34a3.46,3.46,0,0,1,2,.83,3.39,3.39,0,0,1,1.18,2.56v2.68a1.77,1.77,0,0,1,0,.23,3.38,3.38,0,0,1-2.89,3.13,40.46,40.46,0,0,1-6.08.48A55.64,55.64,0,0,1,12.84,43l-.19-.07-.14-.11a.65.65,0,0,1-.19-.61.69.69,0,0,1,.83-.5,57.35,57.35,0,0,0,8.25.88h.85a40.89,40.89,0,0,0,5.18-.37l.69-.11a2.05,2.05,0,0,0,1.73-2V37.38a2.06,2.06,0,0,0-.71-1.55,2,2,0,0,0-.33-.24,2.07,2.07,0,0,0-1.29-.26l-.47.05-.34,0a38.13,38.13,0,0,1-4.47.27h-.75a55,55,0,0,1-8.62-.91.71.71,0,0,1-.52-.41,1.05,1.05,0,0,1,0-.19A1.28,1.28,0,0,1,12.31,34Z"/><path fill="#93a0a9" d="M12.32,34a.61.61,0,0,1,.15-.3.69.69,0,0,1,.67-.21,55.09,55.09,0,0,0,9.07.89A38.74,38.74,0,0,0,27.29,34l.28,0H28a3.45,3.45,0,0,1,2,.82,3.38,3.38,0,0,1,1.17,2.56v2.91a3.4,3.4,0,0,1-2.89,3.13,40.46,40.46,0,0,1-6.08.48A54,54,0,0,1,12.84,43a.48.48,0,0,1-.18-.07.36.36,0,0,1-.14-.1.66.66,0,0,1-.19-.61.69.69,0,0,1,.83-.5,54.86,54.86,0,0,0,8.25.88h.85a37.47,37.47,0,0,0,5.18-.37l.69-.1a2.07,2.07,0,0,0,1.73-2V37.38a2.06,2.06,0,0,0-.71-1.55,2,2,0,0,0-.33-.24,2.15,2.15,0,0,0-1.29-.27l-.47.06-.34,0a40.37,40.37,0,0,1-4.47.26h-.76a58.44,58.44,0,0,1-8.61-.91.72.72,0,0,1-.52-.41,1.05,1.05,0,0,1,0-.19A.55.55,0,0,1,12.32,34Z"/><path fill="#94a1aa" d="M12.32,34a.62.62,0,0,1,.16-.3.69.69,0,0,1,.66-.21,54,54,0,0,0,9.07.9A38.74,38.74,0,0,0,27.29,34l.28,0H28a3.4,3.4,0,0,1,2,.83,3.35,3.35,0,0,1,1.18,2.55v2.67a2,2,0,0,1,0,.24,3.37,3.37,0,0,1-2.88,3.12,40.46,40.46,0,0,1-6.08.48A55.64,55.64,0,0,1,12.84,43a.75.75,0,0,1-.18-.07l-.14-.11a.67.67,0,0,1-.18-.6.69.69,0,0,1,.83-.49,55.49,55.49,0,0,0,8.26.88h.84a40.89,40.89,0,0,0,5.18-.37l.69-.11a2.06,2.06,0,0,0,1.72-2V37.38a2.09,2.09,0,0,0-.7-1.55,3.43,3.43,0,0,0-.33-.24,2.08,2.08,0,0,0-1.29-.27l-.47,0-.34,0a40.42,40.42,0,0,1-4.47.27H21.5a55.89,55.89,0,0,1-8.61-.91.69.69,0,0,1-.52-.4.41.41,0,0,1,0-.19A.54.54,0,0,1,12.32,34Z"/><path fill="#95a2ab" d="M12.33,34a.61.61,0,0,1,.15-.3.71.71,0,0,1,.67-.2,54.62,54.62,0,0,0,9.06.89A38.48,38.48,0,0,0,27.28,34l.29,0H28a3.45,3.45,0,0,1,2,.82,3.36,3.36,0,0,1,1.17,2.55v2.9a3.38,3.38,0,0,1-2.88,3.13,42.07,42.07,0,0,1-6.08.47A54.49,54.49,0,0,1,12.84,43a.56.56,0,0,1-.18-.07.49.49,0,0,1-.14-.11.62.62,0,0,1-.17-.6.69.69,0,0,1,.83-.47,55.29,55.29,0,0,0,8.26.87h.84a37.35,37.35,0,0,0,5.18-.37l.69-.11a2.06,2.06,0,0,0,1.72-2V37.38a2.06,2.06,0,0,0-.71-1.55,2,2,0,0,0-.33-.24,2,2,0,0,0-1.28-.28l-.47,0-.35,0a37.83,37.83,0,0,1-4.46.27h-.76a56.46,56.46,0,0,1-8.61-.91.72.72,0,0,1-.53-.4,1.05,1.05,0,0,1,0-.19A1.09,1.09,0,0,1,12.33,34Z"/><path fill="#96a3ab" d="M12.34,34a.48.48,0,0,1,.15-.29.69.69,0,0,1,.67-.2,54.89,54.89,0,0,0,9.05.89A38.48,38.48,0,0,0,27.28,34l.29,0H28a3.39,3.39,0,0,1,3.19,3.36V40a1.85,1.85,0,0,1,0,.24,3.36,3.36,0,0,1-2.87,3.12,40.46,40.46,0,0,1-6.08.48A54,54,0,0,1,12.84,43l-.18-.06-.14-.11a.65.65,0,0,1-.16-.6.67.67,0,0,1,.83-.46,57.67,57.67,0,0,0,8.26.87h.84a40.75,40.75,0,0,0,5.18-.37l.69-.11a2.08,2.08,0,0,0,1.71-2V37.38a2.05,2.05,0,0,0-.7-1.55,2,2,0,0,0-.33-.24,2,2,0,0,0-1.28-.28l-.47,0-.35,0a42.66,42.66,0,0,1-4.46.27h-.76a55.25,55.25,0,0,1-8.61-.91.72.72,0,0,1-.53-.39,1.05,1.05,0,0,1-.05-.19A.37.37,0,0,1,12.34,34Z"/><path fill="#97a3ac" d="M12.34,34a.49.49,0,0,1,.16-.29.68.68,0,0,1,.66-.2,54.14,54.14,0,0,0,9.05.89,38.55,38.55,0,0,0,5.07-.34,2.66,2.66,0,0,1,.28,0A2.94,2.94,0,0,1,28,34a3.39,3.39,0,0,1,2,.82,3.34,3.34,0,0,1,1.17,2.54v2.9a3.38,3.38,0,0,1-2.87,3.12,42.07,42.07,0,0,1-6.08.47A55.64,55.64,0,0,1,12.84,43a.67.67,0,0,1-.18-.07.69.69,0,0,1-.13-.11.61.61,0,0,1-.16-.59.68.68,0,0,1,.83-.46,56,56,0,0,0,8.26.88h.84a39,39,0,0,0,5.18-.37l.69-.11a2.08,2.08,0,0,0,1.71-2V37.38a2.09,2.09,0,0,0-.7-1.55,1.55,1.55,0,0,0-.33-.24,2.11,2.11,0,0,0-1.28-.29l-.47.05-.35,0a37.83,37.83,0,0,1-4.46.27h-.76a54.85,54.85,0,0,1-8.61-.9.71.71,0,0,1-.53-.4.49.49,0,0,1-.06-.17A1.21,1.21,0,0,1,12.34,34Z"/><path fill="#98a4ad" d="M12.35,34a.62.62,0,0,1,.15-.29.71.71,0,0,1,.67-.19,54.26,54.26,0,0,0,9,.89,38.59,38.59,0,0,0,5.07-.35l.28,0H28a3.43,3.43,0,0,1,2,.81,3.37,3.37,0,0,1,1.17,2.54V40c0,.07,0,.17,0,.24a3.36,3.36,0,0,1-2.86,3.11,40.46,40.46,0,0,1-6.08.48,53.65,53.65,0,0,1-9.36-.93.44.44,0,0,1-.19-.07.33.33,0,0,1-.13-.11.64.64,0,0,1-.16-.58.7.7,0,0,1,.84-.45,55.77,55.77,0,0,0,8.26.87h.84a40.75,40.75,0,0,0,5.18-.37l.69-.12a2.07,2.07,0,0,0,1.7-2V37.38a2.05,2.05,0,0,0-.7-1.55,1.85,1.85,0,0,0-.32-.25,2.14,2.14,0,0,0-1.28-.28l-.47,0-.35,0a37.83,37.83,0,0,1-4.46.27h-.76a56.79,56.79,0,0,1-8.61-.9.69.69,0,0,1-.53-.4.49.49,0,0,1-.06-.17A.41.41,0,0,1,12.35,34Z"/><path fill="#99a5ae" d="M12.35,34a.56.56,0,0,1,.16-.29.71.71,0,0,1,.67-.18,55.07,55.07,0,0,0,9,.88,38.29,38.29,0,0,0,5.06-.34l.29,0H28a3.45,3.45,0,0,1,2,.82,3.34,3.34,0,0,1,1.16,2.53V40a1.77,1.77,0,0,1,0,.23,3.33,3.33,0,0,1-2.85,3.11,40.58,40.58,0,0,1-6.08.48,55.3,55.3,0,0,1-9.36-.92.75.75,0,0,1-.18-.07l-.14-.11a.65.65,0,0,1-.15-.58.69.69,0,0,1,.84-.44,58,58,0,0,0,8.26.87h.84a39,39,0,0,0,5.18-.37l.68-.11a2.09,2.09,0,0,0,1.71-2.06V37.38a2.09,2.09,0,0,0-.7-1.56,2.43,2.43,0,0,0-.32-.24,2.14,2.14,0,0,0-1.28-.29l-.47.05-.35,0a42.66,42.66,0,0,1-4.46.27h-.76a54.78,54.78,0,0,1-8.62-.9.74.74,0,0,1-.53-.39.48.48,0,0,1-.05-.17A.6.6,0,0,1,12.35,34Z"/><path fill="#9aa6af" d="M12.36,34a.5.5,0,0,1,.16-.28.69.69,0,0,1,.66-.19,54,54,0,0,0,9,.89,38.33,38.33,0,0,0,5.06-.35l.28,0H28a3.37,3.37,0,0,1,3.18,3.34V40c0,.07,0,.17,0,.24a3.34,3.34,0,0,1-2.85,3.11,40.58,40.58,0,0,1-6.08.48,53.65,53.65,0,0,1-9.36-.93.48.48,0,0,1-.18-.07.47.47,0,0,1-.13-.11.6.6,0,0,1-.15-.57.68.68,0,0,1,.85-.43,55.7,55.7,0,0,0,8.25.86h.84a38.77,38.77,0,0,0,5.18-.38l.68-.11a2.09,2.09,0,0,0,1.7-2.06V37.38a2.11,2.11,0,0,0-.69-1.56,2,2,0,0,0-.33-.24,2,2,0,0,0-1.27-.29l-.47,0-.35,0a37.83,37.83,0,0,1-4.46.27h-.76a56.7,56.7,0,0,1-8.62-.9.72.72,0,0,1-.53-.39.85.85,0,0,1-.06-.17A.41.41,0,0,1,12.36,34Z"/><path fill="#9ba7af" d="M12.36,34a.56.56,0,0,1,.16-.28.71.71,0,0,1,.67-.18,54.58,54.58,0,0,0,9,.88,38.4,38.4,0,0,0,5.06-.34l.28,0H28a3.45,3.45,0,0,1,2,.82,3.3,3.3,0,0,1,1.16,2.52V40a1.93,1.93,0,0,1,0,.24,3.32,3.32,0,0,1-2.84,3.1,40.58,40.58,0,0,1-6.08.48,55.3,55.3,0,0,1-9.36-.92.75.75,0,0,1-.18-.07.49.49,0,0,1-.13-.12.6.6,0,0,1-.14-.56.7.7,0,0,1,.85-.43,54.16,54.16,0,0,0,8.25.87h.84a40.52,40.52,0,0,0,5.18-.38l.68-.12a2.1,2.1,0,0,0,1.7-2.06V37.38a2.11,2.11,0,0,0-.69-1.56,2,2,0,0,0-.33-.24,2.12,2.12,0,0,0-1.28-.3l-.46,0-.35,0a40.3,40.3,0,0,1-4.46.28h-.76a55.66,55.66,0,0,1-8.62-.9.69.69,0,0,1-.53-.38.49.49,0,0,1-.06-.17A.6.6,0,0,1,12.36,34Z"/><path fill="#9ca8b0" d="M12.37,34a.49.49,0,0,1,.16-.29.71.71,0,0,1,.66-.17,55.2,55.2,0,0,0,9,.88,39.91,39.91,0,0,0,5.05-.34,1.43,1.43,0,0,1,.29,0H28a3.35,3.35,0,0,1,3.17,3.33v2.88a3.34,3.34,0,0,1-2.84,3.11,40.58,40.58,0,0,1-6.08.48,54.77,54.77,0,0,1-9.36-.93.48.48,0,0,1-.18-.07.69.69,0,0,1-.13-.11.6.6,0,0,1-.13-.56c.06-.31.43-.49.85-.42a55.56,55.56,0,0,0,8.25.86h.84a38.77,38.77,0,0,0,5.18-.38,6.38,6.38,0,0,0,.68-.12,2.1,2.1,0,0,0,1.7-2.06V37.38a2.12,2.12,0,0,0-.7-1.56,2.43,2.43,0,0,0-.32-.24,2.12,2.12,0,0,0-1.28-.3l-.46,0-.35,0a40.24,40.24,0,0,1-4.46.27h-.76a57.45,57.45,0,0,1-8.62-.9.71.71,0,0,1-.53-.38.51.51,0,0,1-.07-.17A.55.55,0,0,1,12.37,34Z"/><path fill="#9da8b1" d="M12.37,34a.56.56,0,0,1,.17-.29.68.68,0,0,1,.66-.16,55.32,55.32,0,0,0,9,.88,38.3,38.3,0,0,0,5.05-.35l.29,0H28a3.45,3.45,0,0,1,2,.81,3.33,3.33,0,0,1,1.16,2.52V40a1.77,1.77,0,0,1,0,.23,3.32,3.32,0,0,1-2.83,3.1,40.58,40.58,0,0,1-6.08.48,55.3,55.3,0,0,1-9.36-.92.49.49,0,0,1-.18-.08.32.32,0,0,1-.12-.11.57.57,0,0,1-.13-.55c.06-.31.43-.49.85-.41a56.15,56.15,0,0,0,8.25.86h.84a40.52,40.52,0,0,0,5.18-.38l.68-.12a2.12,2.12,0,0,0,1.69-2.07V37.38a2.11,2.11,0,0,0-.69-1.56,2.43,2.43,0,0,0-.32-.24,2.06,2.06,0,0,0-1.28-.31l-.47,0-.34,0a40.33,40.33,0,0,1-4.47.28h-.75A57,57,0,0,1,13,34.73a.78.78,0,0,1-.54-.38.85.85,0,0,1-.06-.17A.54.54,0,0,1,12.37,34Z"/><path fill="#9ea9b2" d="M12.38,34a.44.44,0,0,1,.16-.28.72.72,0,0,1,.67-.17,54.22,54.22,0,0,0,9,.88,38.25,38.25,0,0,0,5.05-.34l.28,0a2.94,2.94,0,0,1,.42,0,3.37,3.37,0,0,1,2,.81,3.32,3.32,0,0,1,1.15,2.51v2.88a3.33,3.33,0,0,1-2.84,3.1,40.53,40.53,0,0,1-6.07.47,55.15,55.15,0,0,1-9.36-.92.67.67,0,0,1-.18-.07.46.46,0,0,1-.12-.12.58.58,0,0,1-.13-.55.69.69,0,0,1,.86-.39,56.75,56.75,0,0,0,8.25.86h.84a40.52,40.52,0,0,0,5.18-.38,6.38,6.38,0,0,0,.68-.12,2.12,2.12,0,0,0,1.69-2.07V37.38a2.11,2.11,0,0,0-.69-1.56,2,2,0,0,0-.33-.24,2.1,2.1,0,0,0-1.27-.32l-.47,0-.34,0a40.48,40.48,0,0,1-4.47.28H21.6a55.37,55.37,0,0,1-8.62-.9.71.71,0,0,1-.54-.37.49.49,0,0,1-.06-.17A.54.54,0,0,1,12.38,34Z"/><path fill="#9faab2" d="M12.38,34a.53.53,0,0,1,.17-.28.71.71,0,0,1,.66-.16,54.82,54.82,0,0,0,9,.88,38.3,38.3,0,0,0,5.05-.35l.28,0H28a3.45,3.45,0,0,1,2,.81,3.31,3.31,0,0,1,1.16,2.51V40a1.69,1.69,0,0,1,0,.23,3.31,3.31,0,0,1-2.83,3.1,40.31,40.31,0,0,1-6.07.48,55.15,55.15,0,0,1-9.36-.92.71.71,0,0,1-.18-.08l-.12-.11a.61.61,0,0,1-.12-.55c.07-.29.43-.46.86-.39a55.81,55.81,0,0,0,8.25.86h.84a40.06,40.06,0,0,0,5.17-.38c.25,0,.48-.08.69-.13a2.11,2.11,0,0,0,1.68-2.07V37.38a2.11,2.11,0,0,0-.69-1.56,2.72,2.72,0,0,0-.32-.25,2.17,2.17,0,0,0-1.27-.31l-.47,0-.34,0a40.42,40.42,0,0,1-4.47.27h-.75A56.49,56.49,0,0,1,13,34.72a.71.71,0,0,1-.54-.37.44.44,0,0,1-.07-.17A.54.54,0,0,1,12.38,34Z"/><path fill="#a0abb3" d="M12.39,34a.5.5,0,0,1,.16-.28.72.72,0,0,1,.67-.15,55.62,55.62,0,0,0,9,.87,38,38,0,0,0,5-.34l.29,0H28a3.33,3.33,0,0,1,3.16,3.31v2.87a3.32,3.32,0,0,1-2.83,3.1,41.91,41.91,0,0,1-6.07.47,55.15,55.15,0,0,1-9.36-.92.51.51,0,0,1-.17-.07.49.49,0,0,1-.13-.12.62.62,0,0,1-.11-.54c.06-.29.43-.45.86-.38a56.39,56.39,0,0,0,8.25.86h.84a39.91,39.91,0,0,0,5.17-.38c.25,0,.48-.08.69-.12a2.13,2.13,0,0,0,1.68-2.08V37.38a2.11,2.11,0,0,0-.69-1.56,2.51,2.51,0,0,0-.32-.25,2.19,2.19,0,0,0-1.27-.32l-.47,0-.34,0a40.48,40.48,0,0,1-4.47.28h-.75A54.14,54.14,0,0,1,13,34.71a.72.72,0,0,1-.54-.36.44.44,0,0,1-.07-.17A.54.54,0,0,1,12.39,34Z"/><path fill="#a1acb4" d="M12.4,34a.5.5,0,0,1,.16-.28.74.74,0,0,1,.67-.15,54,54,0,0,0,9,.88,39.76,39.76,0,0,0,5-.34,1.43,1.43,0,0,1,.29,0H28a3.4,3.4,0,0,1,2,.8,3.3,3.3,0,0,1,1.15,2.5V40c0,.06,0,.17,0,.23a3.29,3.29,0,0,1-2.82,3.09,40.31,40.31,0,0,1-6.07.48,53.18,53.18,0,0,1-9.35-.93.48.48,0,0,1-.18-.07.34.34,0,0,1-.12-.12.54.54,0,0,1-.11-.53c.06-.28.43-.45.86-.37a56.09,56.09,0,0,0,8.25.85h.84a38,38,0,0,0,5.17-.39,6.15,6.15,0,0,0,.69-.12,2.13,2.13,0,0,0,1.67-2.08V37.38a2.14,2.14,0,0,0-.68-1.56,2.51,2.51,0,0,0-.32-.25,2.19,2.19,0,0,0-1.27-.32l-.47,0-.35,0a37.87,37.87,0,0,1-4.46.28h-.76A56,56,0,0,1,13,34.71a.74.74,0,0,1-.55-.36.67.67,0,0,1-.07-.17A.38.38,0,0,1,12.4,34Z"/><path fill="#a2adb5" d="M12.4,34a.45.45,0,0,1,.17-.27.72.72,0,0,1,.66-.15,55.11,55.11,0,0,0,9,.87,38,38,0,0,0,5-.34l.28,0H28a3.33,3.33,0,0,1,3.15,3.3v2.87a3.32,3.32,0,0,1-2.82,3.09,41.91,41.91,0,0,1-6.07.47,54.82,54.82,0,0,1-9.35-.92.48.48,0,0,1-.18-.07.46.46,0,0,1-.12-.12.57.57,0,0,1-.1-.53c.06-.28.43-.44.86-.36a58.47,58.47,0,0,0,8.25.85c.28,0,.56,0,.84,0a39.91,39.91,0,0,0,5.17-.38c.25,0,.48-.08.69-.13a2.13,2.13,0,0,0,1.67-2.08V37.38a2.14,2.14,0,0,0-.68-1.56,2,2,0,0,0-.33-.25,2.15,2.15,0,0,0-1.26-.33l-.47,0-.35,0a40.15,40.15,0,0,1-4.46.28h-.76A55.34,55.34,0,0,1,13,34.71a.75.75,0,0,1-.55-.36.44.44,0,0,1-.07-.17A.54.54,0,0,1,12.4,34Z"/><path fill="#a3adb6" d="M12.41,34a.44.44,0,0,1,.16-.27.71.71,0,0,1,.67-.14,55.23,55.23,0,0,0,9,.87,39.88,39.88,0,0,0,5-.34l.28,0a2.8,2.8,0,0,1,.41,0,3.25,3.25,0,0,1,2,.8,3.3,3.3,0,0,1,1.15,2.49V40c0,.06,0,.17,0,.23a3.29,3.29,0,0,1-2.81,3.09,40.31,40.31,0,0,1-6.07.48,54.29,54.29,0,0,1-9.35-.93.48.48,0,0,1-.18-.07.68.68,0,0,1-.12-.12.57.57,0,0,1-.1-.52c.07-.28.43-.43.87-.36a55.93,55.93,0,0,0,8.25.85h.84a38,38,0,0,0,5.17-.39c.25,0,.47-.08.69-.12a2.14,2.14,0,0,0,1.66-2.09V37.38a2.1,2.1,0,0,0-.68-1.56,1.54,1.54,0,0,0-.32-.25,2.08,2.08,0,0,0-1.26-.33l-.47,0-.35,0a40.15,40.15,0,0,1-4.46.28h-.76A56.68,56.68,0,0,1,13,34.7a.74.74,0,0,1-.55-.35.46.46,0,0,1-.07-.16A.41.41,0,0,1,12.41,34Z"/><path fill="#a4aeb6" d="M12.41,34a.45.45,0,0,1,.17-.27.74.74,0,0,1,.66-.14,54.46,54.46,0,0,0,9,.87,37.84,37.84,0,0,0,5-.34l.29,0a2.77,2.77,0,0,1,.41,0,3.4,3.4,0,0,1,2,.8,3.32,3.32,0,0,1,1.14,2.49V40a1.77,1.77,0,0,1,0,.23,3.27,3.27,0,0,1-2.8,3.08,40.31,40.31,0,0,1-6.07.48,54.82,54.82,0,0,1-9.35-.92.49.49,0,0,1-.18-.08.43.43,0,0,1-.11-.12.55.55,0,0,1-.1-.51c.07-.27.43-.43.87-.35a56.5,56.5,0,0,0,8.25.85h.84a39.91,39.91,0,0,0,5.17-.38l.68-.13A2.14,2.14,0,0,0,30,40.07V37.38a2.14,2.14,0,0,0-.68-1.56,1.85,1.85,0,0,0-.32-.25,2.19,2.19,0,0,0-1.27-.34l-.46,0-.35,0a40.2,40.2,0,0,1-4.46.29h-.76A56.59,56.59,0,0,1,13,34.7a.82.82,0,0,1-.55-.35.77.77,0,0,1-.07-.16A.6.6,0,0,1,12.41,34Z"/><path fill="#a5afb7" d="M12.42,34a.44.44,0,0,1,.17-.27.74.74,0,0,1,.66-.13,54.72,54.72,0,0,0,9,.87,37.84,37.84,0,0,0,5-.34l.28,0h.42a3.3,3.3,0,0,1,3.14,3.28v2.86a3.28,3.28,0,0,1-2.8,3.08,40.31,40.31,0,0,1-6.07.48,54.14,54.14,0,0,1-9.35-.93.48.48,0,0,1-.18-.07.63.63,0,0,1-.11-.12.56.56,0,0,1-.09-.51c.06-.27.43-.42.87-.34a57.08,57.08,0,0,0,8.25.85h.84a38,38,0,0,0,5.17-.39,6.32,6.32,0,0,0,.68-.13A2.15,2.15,0,0,0,30,40.07V37.38a2.14,2.14,0,0,0-.68-1.56,1.85,1.85,0,0,0-.32-.25,2.19,2.19,0,0,0-1.27-.34l-.46,0-.35,0a40.15,40.15,0,0,1-4.46.28h-.76A55.19,55.19,0,0,1,13,34.69a.74.74,0,0,1-.55-.34.46.46,0,0,1-.07-.16A.4.4,0,0,1,12.42,34Z"/><path fill="#a6b0b8" d="M12.42,34a.47.47,0,0,1,.17-.27.73.73,0,0,1,.67-.13,55,55,0,0,0,9,.87,39.6,39.6,0,0,0,5-.34,1.33,1.33,0,0,1,.28,0h.41a3.37,3.37,0,0,1,2,.8,3.3,3.3,0,0,1,1.14,2.48V40a1.69,1.69,0,0,1,0,.23,3.27,3.27,0,0,1-2.79,3.08,40.31,40.31,0,0,1-6.07.48,54.67,54.67,0,0,1-9.35-.92.71.71,0,0,1-.18-.08.43.43,0,0,1-.11-.12.55.55,0,0,1-.08-.51c.06-.26.43-.4.87-.32a56.74,56.74,0,0,0,8.25.84h.84a41.53,41.53,0,0,0,5.17-.39l.68-.13A2.16,2.16,0,0,0,30,40.07V37.38a2.1,2.1,0,0,0-.68-1.56,1.48,1.48,0,0,0-.31-.25,2.13,2.13,0,0,0-1.27-.35l-.46,0-.35,0a40.2,40.2,0,0,1-4.46.29h-.76a56.08,56.08,0,0,1-8.62-.88.76.76,0,0,1-.55-.34.8.8,0,0,1-.08-.16A.54.54,0,0,1,12.42,34Z"/><path fill="#a7b1b9" d="M12.43,34a.42.42,0,0,1,.17-.27.74.74,0,0,1,.66-.13,54.23,54.23,0,0,0,9,.87,38,38,0,0,0,5-.34l.28,0h.41a3.3,3.3,0,0,1,3.14,3.27v2.85a3.29,3.29,0,0,1-2.79,3.08,40.53,40.53,0,0,1-6.07.47,54.67,54.67,0,0,1-9.35-.92.51.51,0,0,1-.17-.07.37.37,0,0,1-.12-.13.56.56,0,0,1-.07-.5c.06-.25.42-.39.88-.32a54.83,54.83,0,0,0,8.24.85h.84a39.69,39.69,0,0,0,5.17-.39l.68-.13A2.16,2.16,0,0,0,30,40.07V37.38a2.18,2.18,0,0,0-.68-1.57,2.72,2.72,0,0,0-.32-.25,2.14,2.14,0,0,0-1.26-.34,3.55,3.55,0,0,0-.46,0l-.35,0a40.2,40.2,0,0,1-4.46.29h-.76a56.25,56.25,0,0,1-8.62-.88.8.8,0,0,1-.55-.34.48.48,0,0,1-.08-.16A.36.36,0,0,1,12.43,34Z"/><path fill="#a8b2ba" d="M12.43,34a.47.47,0,0,1,.18-.27.76.76,0,0,1,.66-.12,54.49,54.49,0,0,0,8.94.87,39.57,39.57,0,0,0,5-.34l.29,0h.41a3.37,3.37,0,0,1,2,.8,3.28,3.28,0,0,1,1.14,2.47V40a1.85,1.85,0,0,1,0,.23,3.25,3.25,0,0,1-2.78,3.07,40.31,40.31,0,0,1-6.07.48,54.67,54.67,0,0,1-9.35-.92.53.53,0,0,1-.17-.08.43.43,0,0,1-.11-.12.53.53,0,0,1-.07-.5c.06-.25.42-.39.88-.31a54.68,54.68,0,0,0,8.24.84h.84a39.46,39.46,0,0,0,5.17-.4,6.32,6.32,0,0,0,.68-.13A2.15,2.15,0,0,0,30,40.07V37.38a2.17,2.17,0,0,0-.67-1.57,3.92,3.92,0,0,0-.32-.25,2.22,2.22,0,0,0-1.26-.35l-.46,0-.35,0a40.3,40.3,0,0,1-4.46.28h-.76a55.41,55.41,0,0,1-8.62-.88.78.78,0,0,1-.56-.33.46.46,0,0,1-.07-.16A.51.51,0,0,1,12.43,34Z"/><path fill="#a9b2ba" d="M12.44,34a.45.45,0,0,1,.17-.27.76.76,0,0,1,.67-.11,55.09,55.09,0,0,0,8.93.86,37.81,37.81,0,0,0,5-.34l.28,0h.41a3.28,3.28,0,0,1,3.14,3.26v2.85a3.27,3.27,0,0,1-2.78,3.07,42,42,0,0,1-6.07.47,54.67,54.67,0,0,1-9.35-.92.38.38,0,0,1-.17-.08.43.43,0,0,1-.11-.12.54.54,0,0,1-.07-.49c.06-.25.43-.38.89-.3a56.71,56.71,0,0,0,8.24.84h.84a39.69,39.69,0,0,0,5.17-.39,6.27,6.27,0,0,0,.68-.14A2.16,2.16,0,0,0,30,40.07V37.38a2.21,2.21,0,0,0-.67-1.57,3.92,3.92,0,0,0-.32-.25,2.19,2.19,0,0,0-1.26-.35l-.47,0-.34,0a40.35,40.35,0,0,1-4.46.29H21.7a55.75,55.75,0,0,1-8.62-.88.83.83,0,0,1-.56-.33.8.8,0,0,1-.08-.16A.36.36,0,0,1,12.44,34Z"/><path fill="#aab3bb" d="M12.44,34a.41.41,0,0,1,.18-.26.76.76,0,0,1,.66-.12,53.85,53.85,0,0,0,8.93.87,39.57,39.57,0,0,0,5-.34l.28,0h.41a3.34,3.34,0,0,1,2,.8,3.26,3.26,0,0,1,1.14,2.46V40a1.69,1.69,0,0,1,0,.23,3.25,3.25,0,0,1-2.78,3.07,40.16,40.16,0,0,1-6.06.48,55.49,55.49,0,0,1-9.34-.92.75.75,0,0,1-.18-.08.47.47,0,0,1-.11-.13.52.52,0,0,1-.06-.48c.06-.24.43-.37.89-.29a56.34,56.34,0,0,0,8.24.83h.84a39.46,39.46,0,0,0,5.17-.4,6.32,6.32,0,0,0,.68-.13A2.17,2.17,0,0,0,30,40.07V37.38a2.17,2.17,0,0,0-.67-1.57,2.42,2.42,0,0,0-.31-.25,2.2,2.2,0,0,0-1.26-.36l-.47,0-.34,0a40.38,40.38,0,0,1-4.47.29h-.75a56.26,56.26,0,0,1-8.62-.88.79.79,0,0,1-.56-.32.48.48,0,0,1-.08-.16A.51.51,0,0,1,12.44,34Z"/><path fill="#abb4bc" d="M12.45,34a.38.38,0,0,1,.18-.26.76.76,0,0,1,.66-.11,54.58,54.58,0,0,0,8.92.86,39.52,39.52,0,0,0,5-.33,1.27,1.27,0,0,1,.28,0,2.77,2.77,0,0,1,.41,0,3.29,3.29,0,0,1,2,.79,3.25,3.25,0,0,1,1.13,2.46v2.84a3.26,3.26,0,0,1-2.78,3.07,41.75,41.75,0,0,1-6.06.47,54.33,54.33,0,0,1-9.34-.92.37.37,0,0,1-.18-.08.29.29,0,0,1-.1-.12.52.52,0,0,1-.06-.48c.06-.24.43-.37.89-.29a54.86,54.86,0,0,0,8.24.84h.84a39.54,39.54,0,0,0,5.17-.39l.68-.14A2.17,2.17,0,0,0,30,40.07V37.38a2.17,2.17,0,0,0-.67-1.57,2,2,0,0,0-.32-.25,2.08,2.08,0,0,0-1.25-.36l-.47,0-.34,0a38.28,38.28,0,0,1-4.47.3h-.75a55.77,55.77,0,0,1-8.62-.87.8.8,0,0,1-.56-.32.83.83,0,0,1-.09-.16A.54.54,0,0,1,12.45,34Z"/><path fill="#acb5bd" d="M12.46,34a.43.43,0,0,1,.17-.26.79.79,0,0,1,.67-.1,54.84,54.84,0,0,0,8.91.86,37.55,37.55,0,0,0,5-.34l.28,0h.42a3.26,3.26,0,0,1,3.13,3.24V40s0,.18,0,.23a3.24,3.24,0,0,1-2.77,3.06,40.28,40.28,0,0,1-6.06.48,53.81,53.81,0,0,1-9.34-.93.48.48,0,0,1-.18-.07.45.45,0,0,1-.1-.13.53.53,0,0,1-.05-.47c.06-.24.42-.36.89-.28a56.88,56.88,0,0,0,8.24.84h.84a39,39,0,0,0,5.16-.4,4.42,4.42,0,0,0,.69-.14A2.17,2.17,0,0,0,30,40.07V37.38a2.2,2.2,0,0,0-.66-1.57,2.51,2.51,0,0,0-.32-.25,2.15,2.15,0,0,0-1.25-.37l-.47,0-.34,0a40.53,40.53,0,0,1-4.47.29h-.75a57.68,57.68,0,0,1-8.62-.87.86.86,0,0,1-.57-.32.48.48,0,0,1-.08-.16A.36.36,0,0,1,12.46,34Z"/><path fill="#adb6be" d="M12.46,34a.4.4,0,0,1,.18-.26.79.79,0,0,1,.66-.1,54.07,54.07,0,0,0,8.91.86,39.25,39.25,0,0,0,5-.33l.28,0a2.84,2.84,0,0,1,.41,0,3.27,3.27,0,0,1,2,.79A3.23,3.23,0,0,1,31,37.38v2.83a3.23,3.23,0,0,1-2.77,3.06,40.28,40.28,0,0,1-6.06.48,54.19,54.19,0,0,1-9.34-.92.3.3,0,0,1-.17-.08.53.53,0,0,1-.15-.59c0-.23.42-.35.89-.27a56.5,56.5,0,0,0,8.24.83h.84a37.23,37.23,0,0,0,5.16-.4,6.07,6.07,0,0,0,.69-.13A2.2,2.2,0,0,0,30,40.07V37.38a2.17,2.17,0,0,0-.67-1.57,1.89,1.89,0,0,0-.31-.25,2.15,2.15,0,0,0-1.25-.37,3.7,3.7,0,0,0-.47,0l-.34,0a40.59,40.59,0,0,1-4.47.3h-.75a55.1,55.1,0,0,1-8.62-.87.75.75,0,0,1-.57-.31.3.3,0,0,1-.08-.16A.34.34,0,0,1,12.46,34Z"/><path fill="#aeb7be" d="M12.47,34a.36.36,0,0,1,.18-.25.78.78,0,0,1,.66-.1,54.33,54.33,0,0,0,8.9.86,37.66,37.66,0,0,0,5-.34l.28,0h.41A3.24,3.24,0,0,1,31,37.38v2.83a3.24,3.24,0,0,1-2.76,3.06,40.28,40.28,0,0,1-6.06.48,53.66,53.66,0,0,1-9.34-.93.34.34,0,0,1-.17-.08.32.32,0,0,1-.11-.12.5.5,0,0,1,0-.46c0-.23.42-.34.89-.26a57.24,57.24,0,0,0,8.24.83h.85a40.61,40.61,0,0,0,5.15-.4,6.46,6.46,0,0,0,.69-.14A2.2,2.2,0,0,0,30,40.07V37.38a2.21,2.21,0,0,0-.67-1.57,2.51,2.51,0,0,0-.31-.26,2.24,2.24,0,0,0-1.26-.37l-.46,0-.35,0a38,38,0,0,1-4.46.3h-.76a55.4,55.4,0,0,1-8.61-.87c-.31-.06-.52-.18-.57-.31a.35.35,0,0,1-.09-.16A.36.36,0,0,1,12.47,34Z"/><path fill="#afb7bf" d="M12.47,34a.36.36,0,0,1,.18-.26.76.76,0,0,1,.66-.09,54.77,54.77,0,0,0,8.9.86,39.42,39.42,0,0,0,5-.34l.28,0h.41a3.29,3.29,0,0,1,2,.79A3.25,3.25,0,0,1,31,37.38V40a1.77,1.77,0,0,1,0,.23,3.21,3.21,0,0,1-2.75,3,40.28,40.28,0,0,1-6.06.48,55.34,55.34,0,0,1-9.34-.92.53.53,0,0,1-.17-.08.32.32,0,0,1-.1-.13.5.5,0,0,1,0-.46c.06-.22.43-.33.9-.24a58.39,58.39,0,0,0,8.24.82c.28,0,.57,0,.85,0a38.83,38.83,0,0,0,5.15-.4,4.29,4.29,0,0,0,.68-.14A2.19,2.19,0,0,0,30,40.07V37.38a2.2,2.2,0,0,0-.66-1.57,2,2,0,0,0-.32-.26,2.22,2.22,0,0,0-1.25-.38l-.46,0-.35,0a40.2,40.2,0,0,1-4.46.29h-.76a54.93,54.93,0,0,1-8.62-.87c-.31,0-.51-.17-.56-.3a.29.29,0,0,1-.09-.15A.51.51,0,0,1,12.47,34Z"/><path fill="#b0b8c0" d="M12.48,34a.36.36,0,0,1,.18-.26c.1-.11.34-.14.66-.09a53.69,53.69,0,0,0,8.89.86,39.1,39.1,0,0,0,5-.33l.28,0a1.89,1.89,0,0,1,.41,0A3.22,3.22,0,0,1,31,37.38v2.83a3.22,3.22,0,0,1-2.75,3,40.49,40.49,0,0,1-6.06.47,54.19,54.19,0,0,1-9.34-.92.38.38,0,0,1-.17-.08.34.34,0,0,1-.1-.13.51.51,0,0,1,0-.45c.06-.21.42-.32.9-.24a56.83,56.83,0,0,0,8.24.83h.85a40.61,40.61,0,0,0,5.15-.4l.68-.14A2.22,2.22,0,0,0,30,40.07V37.38a2.17,2.17,0,0,0-.67-1.57,1.94,1.94,0,0,0-.31-.26,2.22,2.22,0,0,0-1.25-.38l-.46,0-.35,0a38,38,0,0,1-4.46.3h-.76a55.25,55.25,0,0,1-8.62-.87c-.31-.06-.52-.18-.57-.3a.38.38,0,0,1-.09-.15A.36.36,0,0,1,12.48,34Z"/><path fill="#b1b9c1" d="M12.48,34a.37.37,0,0,1,.18-.25.77.77,0,0,1,.67-.09,53.94,53.94,0,0,0,8.88.86,39.14,39.14,0,0,0,5-.34l.28,0h.41a3.29,3.29,0,0,1,2,.79A3.21,3.21,0,0,1,31,37.38V40a1.62,1.62,0,0,1,0,.22,3.2,3.2,0,0,1-2.74,3,40.28,40.28,0,0,1-6.06.48,55.34,55.34,0,0,1-9.34-.92l-.17-.08a.45.45,0,0,1-.1-.13.48.48,0,0,1,0-.45c.05-.21.42-.31.9-.23a56.41,56.41,0,0,0,8.24.82h.85a40.36,40.36,0,0,0,5.15-.41,4.54,4.54,0,0,0,.68-.14A2.21,2.21,0,0,0,30,40.07V37.38a2.2,2.2,0,0,0-.66-1.57,1.94,1.94,0,0,0-.31-.26,2.25,2.25,0,0,0-1.25-.39l-.46,0-.35,0a38,38,0,0,1-4.46.3c-.25,0-.51,0-.76,0a57.64,57.64,0,0,1-8.62-.86c-.31-.06-.52-.18-.57-.3a.38.38,0,0,1-.09-.15A.51.51,0,0,1,12.48,34Z"/><path fill="#b2bac2" d="M12.49,34a.36.36,0,0,1,.18-.25c.1-.11.34-.14.66-.08a56.21,56.21,0,0,0,8.88.85,39.1,39.1,0,0,0,5-.33,1.27,1.27,0,0,1,.28,0,2.77,2.77,0,0,1,.41,0A3.21,3.21,0,0,1,31,37.38V40.2a3.21,3.21,0,0,1-2.74,3,41.88,41.88,0,0,1-6.06.47,54.19,54.19,0,0,1-9.34-.92.38.38,0,0,1-.17-.08.43.43,0,0,1-.09-.13.46.46,0,0,1,0-.44c.05-.21.42-.31.9-.22a58.51,58.51,0,0,0,8.24.82h.85a40.61,40.61,0,0,0,5.15-.4,6.22,6.22,0,0,0,.68-.15A2.21,2.21,0,0,0,30,40.07V37.38a2.2,2.2,0,0,0-.66-1.57,2.51,2.51,0,0,0-.31-.26,2.25,2.25,0,0,0-1.25-.39h-.46l-.35,0a42.83,42.83,0,0,1-4.46.3h-.76a55.91,55.91,0,0,1-8.62-.87c-.31-.06-.52-.17-.57-.29a.29.29,0,0,1-.09-.15A.27.27,0,0,1,12.49,34Z"/><path fill="#b3bbc2" d="M12.49,34a.41.41,0,0,1,.19-.25.79.79,0,0,1,.66-.07,56.33,56.33,0,0,0,8.87.85,37.4,37.4,0,0,0,5-.34l.28,0h.4a3.27,3.27,0,0,1,2,.79A3.19,3.19,0,0,1,31,37.38V40a1.85,1.85,0,0,1,0,.23,3.2,3.2,0,0,1-2.73,3,40.28,40.28,0,0,1-6.06.48,55,55,0,0,1-9.33-.92.51.51,0,0,1-.18-.09.27.27,0,0,1-.09-.13.44.44,0,0,1,0-.43c.05-.2.42-.3.9-.21a59.28,59.28,0,0,0,8.24.82h.85a40.36,40.36,0,0,0,5.15-.41,4.52,4.52,0,0,0,.68-.15A2.2,2.2,0,0,0,30,40.07V37.38a2.19,2.19,0,0,0-.65-1.57,1.86,1.86,0,0,0-.31-.26,2.26,2.26,0,0,0-1.25-.4l-.46,0-.35,0a38,38,0,0,1-4.46.3h-.76a56.91,56.91,0,0,1-8.62-.86c-.32-.06-.53-.17-.58-.29a.38.38,0,0,1-.09-.15A.51.51,0,0,1,12.49,34Z"/><path fill="#b4bcc3" d="M12.5,34a.36.36,0,0,1,.18-.25.82.82,0,0,1,.67-.07,55.34,55.34,0,0,0,8.86.85,39.06,39.06,0,0,0,5-.33l.28,0a2.84,2.84,0,0,1,.41,0,3.28,3.28,0,0,1,2,.78A3.2,3.2,0,0,1,31,37.38v2.81a3.2,3.2,0,0,1-2.73,3.05,41.88,41.88,0,0,1-6.06.47,53.85,53.85,0,0,1-9.33-.92.3.3,0,0,1-.17-.08.45.45,0,0,1-.1-.13.47.47,0,0,1,0-.43c.05-.2.42-.29.9-.21a55.24,55.24,0,0,0,8.24.82h.85a38.6,38.6,0,0,0,5.15-.41,4.54,4.54,0,0,0,.68-.14A2.23,2.23,0,0,0,30,40.07V37.38a2.2,2.2,0,0,0-.66-1.57,1.53,1.53,0,0,0-.31-.26,2.13,2.13,0,0,0-1.24-.4h-.47l-.34,0a40.3,40.3,0,0,1-4.46.31H21.8a55.4,55.4,0,0,1-8.62-.87.79.79,0,0,1-.58-.28.29.29,0,0,1-.09-.15A.35.35,0,0,1,12.5,34Z"/><path fill="#b5bcc4" d="M12.5,34a.36.36,0,0,1,.19-.24.79.79,0,0,1,.66-.07,55.78,55.78,0,0,0,8.86.85,37.37,37.37,0,0,0,5-.34l.28,0h.41A3.25,3.25,0,0,1,31,37.38V40s0,.18,0,.22a3.19,3.19,0,0,1-2.72,3,40.28,40.28,0,0,1-6.06.48,55,55,0,0,1-9.33-.92.39.39,0,0,1-.17-.09.34.34,0,0,1-.1-.13.45.45,0,0,1,0-.42c.06-.19.42-.28.92-.2a55.39,55.39,0,0,0,8.23.82h.85a40.36,40.36,0,0,0,5.15-.41,6.22,6.22,0,0,0,.68-.15A2.22,2.22,0,0,0,30,40.07V37.38a2.23,2.23,0,0,0-.65-1.58,1.89,1.89,0,0,0-.31-.25,2.24,2.24,0,0,0-1.24-.41h-.47l-.34,0a40.25,40.25,0,0,1-4.46.3h-.76a56.37,56.37,0,0,1-8.62-.86c-.32-.06-.53-.17-.58-.28a.4.4,0,0,1-.1-.15A.5.5,0,0,1,12.5,34Z"/><path fill="#b6bdc5" d="M12.51,34a.34.34,0,0,1,.19-.24c.09-.1.33-.12.66-.06a56.36,56.36,0,0,0,8.85.84,39.06,39.06,0,0,0,5-.33l.28,0a2.77,2.77,0,0,1,.41,0,3.26,3.26,0,0,1,2,.78A3.17,3.17,0,0,1,31,37.38v2.81a3.2,3.2,0,0,1-2.73,3,41.6,41.6,0,0,1-6.05.47,55,55,0,0,1-9.33-.92.34.34,0,0,1-.17-.08.28.28,0,0,1-.09-.14.43.43,0,0,1,0-.41c.05-.19.42-.28.92-.19a56.41,56.41,0,0,0,8.23.81h.85a38.46,38.46,0,0,0,5.15-.41,3.56,3.56,0,0,0,.68-.15,2.22,2.22,0,0,0,1.6-2.14V37.38a2.28,2.28,0,0,0-.65-1.58,3.88,3.88,0,0,0-.31-.26,2.31,2.31,0,0,0-1.24-.4,3.69,3.69,0,0,0-.47,0l-.34,0a38.13,38.13,0,0,1-4.47.3q-.37,0-.75,0a55.84,55.84,0,0,1-8.62-.85c-.33-.06-.54-.17-.58-.28a.31.31,0,0,1-.1-.15A.5.5,0,0,1,12.51,34Z"/><path fill="#b7bec6" d="M12.52,34a.32.32,0,0,1,.18-.24.84.84,0,0,1,.66-.06,55.24,55.24,0,0,0,8.85.85,39.06,39.06,0,0,0,5-.33,1.24,1.24,0,0,1,.27,0,1.89,1.89,0,0,1,.41,0A3.17,3.17,0,0,1,31,37.38v2.8a3.18,3.18,0,0,1-2.72,3,40,40,0,0,1-6.05.48,53.33,53.33,0,0,1-9.33-.93.34.34,0,0,1-.17-.08.3.3,0,0,1-.09-.13.43.43,0,0,1,0-.41c0-.19.42-.27.92-.18a57,57,0,0,0,8.24.81h.84a42.11,42.11,0,0,0,5.15-.41,6.22,6.22,0,0,0,.68-.15,2.24,2.24,0,0,0,1.6-2.15V37.38a2.24,2.24,0,0,0-.66-1.58,2.55,2.55,0,0,0-.3-.26,2.32,2.32,0,0,0-1.24-.41h-.47l-.34,0a40.48,40.48,0,0,1-4.47.31h-.75a54.39,54.39,0,0,1-8.62-.86c-.33-.06-.54-.17-.59-.27a.29.29,0,0,1-.09-.15A.26.26,0,0,1,12.52,34Z"/><path fill="#b7bfc6" d="M12.52,34a.33.33,0,0,1,.19-.25c.09-.09.33-.11.66-.05a55.51,55.51,0,0,0,8.84.85,38.84,38.84,0,0,0,5-.34l.28,0h.41a3.23,3.23,0,0,1,2,.78A3.15,3.15,0,0,1,31,37.38v2.8a3.17,3.17,0,0,1-2.72,3,40.13,40.13,0,0,1-6.05.48,55,55,0,0,1-9.33-.92.38.38,0,0,1-.17-.08.38.38,0,0,1-.09-.14.45.45,0,0,1,0-.41c0-.17.42-.25.92-.17a54.59,54.59,0,0,0,8.24.81h.84a38.46,38.46,0,0,0,5.15-.41,4.52,4.52,0,0,0,.68-.15,2.25,2.25,0,0,0,1.59-2.15V37.38a2.23,2.23,0,0,0-.65-1.58,2.66,2.66,0,0,0-.31-.26,2.19,2.19,0,0,0-1.24-.41c-.15,0-.3,0-.46,0l-.34,0a40.59,40.59,0,0,1-4.47.3h-.75a56.48,56.48,0,0,1-8.62-.85c-.33-.06-.54-.17-.59-.27a.4.4,0,0,1-.1-.15A.44.44,0,0,1,12.52,34Z"/><path fill="#b8c0c7" d="M12.53,34a.31.31,0,0,1,.19-.24c.08-.09.32-.11.66,0a56.07,56.07,0,0,0,8.83.84,38.79,38.79,0,0,0,5-.33l.28,0a2.81,2.81,0,0,1,.41,0A3.17,3.17,0,0,1,31,37.38v2.8a3.17,3.17,0,0,1-2.71,3,40.34,40.34,0,0,1-6.05.47,53.85,53.85,0,0,1-9.33-.92.38.38,0,0,1-.17-.08.37.37,0,0,1-.08-.14.41.41,0,0,1,0-.4c0-.17.41-.25.92-.16a56.69,56.69,0,0,0,8.24.81h.84a41.76,41.76,0,0,0,5.14-.41,4.65,4.65,0,0,0,.69-.16,2.25,2.25,0,0,0,1.59-2.15V37.38a2.28,2.28,0,0,0-.65-1.58,3.88,3.88,0,0,0-.31-.26,2.2,2.2,0,0,0-1.24-.42h-.46l-.34,0a40.64,40.64,0,0,1-4.47.31h-.75a55,55,0,0,1-8.62-.86c-.33-.06-.55-.16-.59-.26a.31.31,0,0,1-.1-.15A.24.24,0,0,1,12.53,34Z"/><path fill="#b9c0c8" d="M12.53,34a.34.34,0,0,1,.19-.24c.09-.09.33-.11.66,0a55,55,0,0,0,8.83.85,37.22,37.22,0,0,0,5-.34l.28,0h.4a3.26,3.26,0,0,1,2,.78A3.16,3.16,0,0,1,31,37.38V40a1.77,1.77,0,0,1,0,.23,3.15,3.15,0,0,1-2.7,3,40.13,40.13,0,0,1-6.05.48,55,55,0,0,1-9.33-.92.4.4,0,0,1-.17-.09.41.41,0,0,1-.08-.13.43.43,0,0,1,0-.4c0-.17.42-.24.93-.15a57.22,57.22,0,0,0,8.24.81h.84a38,38,0,0,0,5.14-.41,4.27,4.27,0,0,0,.68-.15,2.26,2.26,0,0,0,1.59-2.16V37.38a2.27,2.27,0,0,0-.64-1.58,2.51,2.51,0,0,0-.31-.26,2.23,2.23,0,0,0-1.24-.42h-.46l-.34,0a36.26,36.26,0,0,1-4.47.31h-.75a55.94,55.94,0,0,1-8.62-.85c-.34-.06-.55-.16-.59-.26a.33.33,0,0,1-.11-.15A.44.44,0,0,1,12.53,34Z"/><path fill="#bac1c9" d="M12.54,34a.34.34,0,0,1,.19-.24c.08-.08.32-.1.66,0a55.51,55.51,0,0,0,8.82.84,38.91,38.91,0,0,0,5-.33l.27,0a2.84,2.84,0,0,1,.41,0A3.17,3.17,0,0,1,31,37.38v2.79a3.16,3.16,0,0,1-2.7,3,41.72,41.72,0,0,1-6.05.47,55,55,0,0,1-9.33-.92.3.3,0,0,1-.16-.08.28.28,0,0,1-.09-.14.44.44,0,0,1,0-.39c.05-.16.42-.23.93-.14a56.73,56.73,0,0,0,8.24.8h.84a39.46,39.46,0,0,0,5.14-.42,3.4,3.4,0,0,0,.68-.15,2.26,2.26,0,0,0,1.59-2.16V37.38a2.28,2.28,0,0,0-.65-1.58,1.87,1.87,0,0,0-.3-.26,2.35,2.35,0,0,0-1.24-.43h-.46a2.07,2.07,0,0,0-.35,0,40.3,40.3,0,0,1-4.46.31h-.76a56.58,56.58,0,0,1-8.62-.85.94.94,0,0,1-.59-.26.45.45,0,0,1-.1-.14A.35.35,0,0,1,12.54,34Z"/><path fill="#bbc2c9" d="M12.54,34a.33.33,0,0,1,.2-.24c.08-.08.32-.09.66,0a55.63,55.63,0,0,0,8.81.84,38.64,38.64,0,0,0,5-.33l.28,0a2.82,2.82,0,0,1,.41,0,3.26,3.26,0,0,1,2,.78A3.14,3.14,0,0,1,31,37.38V40a1.62,1.62,0,0,1,0,.22,3.14,3.14,0,0,1-2.69,3,40.13,40.13,0,0,1-6.05.48,54.51,54.51,0,0,1-9.32-.92.39.39,0,0,1-.17-.09.28.28,0,0,1-.09-.14.42.42,0,0,1,0-.38c.05-.16.42-.22.93-.14a56.77,56.77,0,0,0,8.24.81h.84a39.46,39.46,0,0,0,5.14-.42,4.51,4.51,0,0,0,.68-.16,2.27,2.27,0,0,0,1.58-2.16V37.38a2.27,2.27,0,0,0-.64-1.58,1.53,1.53,0,0,0-.31-.26,2.13,2.13,0,0,0-1.23-.43h-.46c-.12,0-.23,0-.35,0a40.3,40.3,0,0,1-4.46.31h-.76a55.72,55.72,0,0,1-8.62-.85c-.33-.06-.55-.16-.59-.25a.28.28,0,0,1-.1-.14A.35.35,0,0,1,12.54,34Z"/><path fill="#bcc3ca" d="M12.55,34a.3.3,0,0,1,.19-.23c.08-.08.32-.1.66,0a55,55,0,0,0,8.81.84,38.64,38.64,0,0,0,5-.33l.28,0a2.67,2.67,0,0,1,.4,0A3.16,3.16,0,0,1,31,37.38v2.79a3.16,3.16,0,0,1-2.69,3,41.72,41.72,0,0,1-6.05.47,54.51,54.51,0,0,1-9.32-.92.3.3,0,0,1-.17-.08.37.37,0,0,1-.08-.14.39.39,0,0,1,0-.38c.05-.16.42-.22.93-.13a56.28,56.28,0,0,0,8.24.8h.84a39.46,39.46,0,0,0,5.14-.42,3.56,3.56,0,0,0,.68-.16,2.27,2.27,0,0,0,1.58-2.16V37.38a2.27,2.27,0,0,0-.64-1.58,2.61,2.61,0,0,0-.31-.27,2.28,2.28,0,0,0-1.23-.43h-.46l-.35,0a38.06,38.06,0,0,1-4.46.32h-.76a55.88,55.88,0,0,1-8.62-.85c-.34-.06-.55-.16-.59-.25a.3.3,0,0,1-.11-.14A.34.34,0,0,1,12.55,34Z"/><path fill="#bdc4cb" d="M12.55,34a.31.31,0,0,1,.2-.23c.08-.08.32-.09.66,0a55.22,55.22,0,0,0,8.8.84,38.64,38.64,0,0,0,5-.33l.28,0a2.68,2.68,0,0,1,.4,0,3.22,3.22,0,0,1,2,.77A3.14,3.14,0,0,1,31,37.38v2.56s0,.19,0,.22a3.14,3.14,0,0,1-2.68,3,40.13,40.13,0,0,1-6.05.48,54.36,54.36,0,0,1-9.32-.92.46.46,0,0,1-.17-.09.37.37,0,0,1-.08-.14.37.37,0,0,1,0-.37c0-.15.41-.21.93-.12a56.79,56.79,0,0,0,8.24.8h.84a41.31,41.31,0,0,0,5.14-.42,4.51,4.51,0,0,0,.68-.16,2.28,2.28,0,0,0,1.57-2.17V37.38a2.27,2.27,0,0,0-.64-1.58,1.93,1.93,0,0,0-.3-.27,2.28,2.28,0,0,0-1.23-.43h-.46a2.07,2.07,0,0,0-.35,0,40.3,40.3,0,0,1-4.46.31h-.76a54.89,54.89,0,0,1-8.62-.85c-.34-.06-.55-.15-.59-.24a.3.3,0,0,1-.11-.14A.33.33,0,0,1,12.55,34Z"/><path fill="#bec5cc" d="M12.56,34a.31.31,0,0,1,.2-.23c.07-.07.31-.08.65,0a56.08,56.08,0,0,0,8.8.83,38.37,38.37,0,0,0,5-.33l.28,0a2.81,2.81,0,0,1,.41,0,3.19,3.19,0,0,1,2,.77,3.14,3.14,0,0,1,1.09,2.37v2.78a3.15,3.15,0,0,1-2.68,3,41.72,41.72,0,0,1-6.05.47,54.36,54.36,0,0,1-9.32-.92.28.28,0,0,1-.17-.09.37.37,0,0,1-.08-.14.38.38,0,0,1,.06-.36c0-.15.41-.2.93-.11a57.94,57.94,0,0,0,8.24.79h.84a39.46,39.46,0,0,0,5.14-.42,3.56,3.56,0,0,0,.68-.16,2.28,2.28,0,0,0,1.57-2.17V37.38a2.27,2.27,0,0,0-.64-1.58,1.93,1.93,0,0,0-.3-.27,2.3,2.3,0,0,0-1.23-.44,3.69,3.69,0,0,0-.47,0l-.34,0a38,38,0,0,1-4.46.31H21.9a56.68,56.68,0,0,1-8.62-.85c-.34-.06-.56-.16-.6-.24a.38.38,0,0,1-.11-.14A.33.33,0,0,1,12.56,34Z"/><path fill="#bfc5cd" d="M12.56,34a.36.36,0,0,1,.2-.23,1,1,0,0,1,.66,0,54.68,54.68,0,0,0,8.79.84,38.6,38.6,0,0,0,5-.33l.28,0,.41,0a3.16,3.16,0,0,1,3.07,3.14v2.78a3.12,3.12,0,0,1-2.67,3,40.13,40.13,0,0,1-6.05.48,54.36,54.36,0,0,1-9.32-.92.46.46,0,0,1-.17-.09.26.26,0,0,1-.07-.14.37.37,0,0,1,0-.36c.05-.15.42-.2.94-.11a56.5,56.5,0,0,0,8.24.8h.84a41.31,41.31,0,0,0,5.14-.42,4.51,4.51,0,0,0,.68-.17,2.3,2.3,0,0,0,1.57-2.17V37.38a2.27,2.27,0,0,0-.64-1.58,2.52,2.52,0,0,0-.3-.27,2.39,2.39,0,0,0-1.23-.45h-.47l-.34,0a38.06,38.06,0,0,1-4.46.32h-.76a56.09,56.09,0,0,1-8.62-.84c-.35-.07-.56-.16-.6-.24a.3.3,0,0,1-.11-.14A.44.44,0,0,1,12.56,34Z"/><path fill="#c0c6cd" d="M12.57,34a.3.3,0,0,1,.2-.23c.07-.07.31-.08.66,0a54.79,54.79,0,0,0,8.78.84,38.6,38.6,0,0,0,5-.33l.28,0h.4a3.17,3.17,0,0,1,2,.77,3.12,3.12,0,0,1,1.09,2.36v2.78a3.13,3.13,0,0,1-2.68,3,39.86,39.86,0,0,1-6,.48,54.36,54.36,0,0,1-9.32-.92.32.32,0,0,1-.16-.09.22.22,0,0,1-.08-.14.38.38,0,0,1,.06-.36c0-.13.42-.18.94-.09a56,56,0,0,0,8.24.79q.42,0,.84,0a39.31,39.31,0,0,0,5.14-.42,4.51,4.51,0,0,0,.68-.16,2.31,2.31,0,0,0,1.56-2.18V37.38a2.3,2.3,0,0,0-.63-1.58,2.61,2.61,0,0,0-.31-.27A2.28,2.28,0,0,0,28,35.08h-.47a2,2,0,0,0-.34,0,40.3,40.3,0,0,1-4.46.31h-.76a55.25,55.25,0,0,1-8.62-.84c-.35-.06-.57-.15-.6-.23a.3.3,0,0,1-.11-.14A.23.23,0,0,1,12.57,34Z"/><path fill="#c1c7ce" d="M12.58,34a.3.3,0,0,1,.19-.23c.08-.07.32-.07.66,0a55.62,55.62,0,0,0,8.78.83,38.6,38.6,0,0,0,5-.33l.27,0a2.84,2.84,0,0,1,.41,0,3.12,3.12,0,0,1,3.07,3.12v2.77a3.12,3.12,0,0,1-2.67,3,40.07,40.07,0,0,1-6,.47,54.36,54.36,0,0,1-9.32-.92.3.3,0,0,1-.16-.08.35.35,0,0,1-.08-.15.36.36,0,0,1,.07-.35c0-.13.41-.17.95-.08a57.6,57.6,0,0,0,8.23.79h.84a39.06,39.06,0,0,0,5.14-.43,3.56,3.56,0,0,0,.68-.16,2.31,2.31,0,0,0,1.56-2.18V37.38a2.27,2.27,0,0,0-.64-1.58,1.93,1.93,0,0,0-.3-.27A2.32,2.32,0,0,0,28,35.07h-.46l-.34,0a40.36,40.36,0,0,1-4.47.32h-.75a55.55,55.55,0,0,1-8.62-.84c-.35-.06-.57-.16-.61-.24a.28.28,0,0,1-.11-.13A.31.31,0,0,1,12.58,34Z"/><path fill="#c2c8cf" d="M12.58,34a.3.3,0,0,1,.2-.23,1.08,1.08,0,0,1,.66,0,54.26,54.26,0,0,0,8.77.84,38.33,38.33,0,0,0,4.95-.33l.28,0a2.82,2.82,0,0,1,.41,0,3.18,3.18,0,0,1,2,.76,3.14,3.14,0,0,1,1.09,2.36v2.55a1.62,1.62,0,0,1,0,.22,3.1,3.1,0,0,1-2.66,3,39.86,39.86,0,0,1-6,.48,54.36,54.36,0,0,1-9.32-.92.32.32,0,0,1-.16-.09.37.37,0,0,1-.08-.14.39.39,0,0,1,.08-.35c0-.13.41-.16.95-.07a58.12,58.12,0,0,0,8.23.79h.84a39.31,39.31,0,0,0,5.14-.42,3.56,3.56,0,0,0,.68-.17,2.3,2.3,0,0,0,1.55-2.18V37.38a2.34,2.34,0,0,0-.63-1.59,2.55,2.55,0,0,0-.3-.26A2.32,2.32,0,0,0,28,35.07H27.5l-.34,0a38.07,38.07,0,0,1-4.47.32c-.25,0-.5,0-.75,0a54.57,54.57,0,0,1-8.62-.84c-.35-.06-.57-.15-.61-.23a.21.21,0,0,1-.11-.13A.3.3,0,0,1,12.58,34Z"/><path fill="#c3c9d0" d="M12.59,34a.3.3,0,0,1,.2-.23c.07-.06.3-.06.66,0a54.89,54.89,0,0,0,8.76.83,38.33,38.33,0,0,0,4.95-.33l.28,0a2.67,2.67,0,0,1,.4,0,3.12,3.12,0,0,1,3.07,3.11v2.77a3.11,3.11,0,0,1-2.66,3,41.44,41.44,0,0,1-6,.47,54.36,54.36,0,0,1-9.32-.92.26.26,0,0,1-.16-.09.23.23,0,0,1-.07-.14.34.34,0,0,1,.08-.34c0-.12.41-.16.95-.07a54.28,54.28,0,0,0,8.23.79h.84a39.06,39.06,0,0,0,5.14-.43,3.75,3.75,0,0,0,.68-.16,2.34,2.34,0,0,0,1.55-2.19V37.38a2.34,2.34,0,0,0-.63-1.59l-.3-.27A2.5,2.5,0,0,0,28,35.06a3.53,3.53,0,0,0-.46,0,2,2,0,0,0-.34,0,40.53,40.53,0,0,1-4.47.32H22a54.87,54.87,0,0,1-8.62-.84c-.36-.06-.58-.15-.61-.23a.26.26,0,0,1-.12-.13A.31.31,0,0,1,12.59,34Z"/><path fill="#c4cad1" d="M12.59,34a.28.28,0,0,1,.2-.22,1.11,1.11,0,0,1,.66,0,55.31,55.31,0,0,0,8.76.83,38.33,38.33,0,0,0,4.95-.33l.28,0a2.68,2.68,0,0,1,.4,0,3.23,3.23,0,0,1,2,.76,3.14,3.14,0,0,1,1.08,2.35v2.54a1.55,1.55,0,0,1,0,.22,3.1,3.1,0,0,1-2.65,3,39.86,39.86,0,0,1-6,.48,54,54,0,0,1-9.31-.92.31.31,0,0,1-.17-.09.26.26,0,0,1-.07-.15.33.33,0,0,1,.09-.33c0-.12.41-.15.95-.06a54.89,54.89,0,0,0,8.23.79h.84a41.14,41.14,0,0,0,5.14-.42,4.37,4.37,0,0,0,.67-.17,2.32,2.32,0,0,0,1.55-2.19V37.38a2.3,2.3,0,0,0-.63-1.59,1.93,1.93,0,0,0-.3-.27A2.26,2.26,0,0,0,28,35.06a3.53,3.53,0,0,0-.46,0,1.87,1.87,0,0,0-.34,0,38.38,38.38,0,0,1-4.47.32H22a57.06,57.06,0,0,1-8.62-.83c-.36-.07-.58-.15-.61-.23a.22.22,0,0,1-.12-.13A.28.28,0,0,1,12.59,34Z"/><path fill="#c5cad1" d="M12.6,34a.28.28,0,0,1,.2-.22c.06-.06.3-.06.66,0a54.34,54.34,0,0,0,8.75.83,40.28,40.28,0,0,0,4.95-.32l.27,0a2.81,2.81,0,0,1,.41,0,3.12,3.12,0,0,1,3.06,3.1v2.76a3.11,3.11,0,0,1-2.65,3,41.44,41.44,0,0,1-6,.47,54,54,0,0,1-9.31-.92.28.28,0,0,1-.17-.09.37.37,0,0,1-.07-.14.35.35,0,0,1,.09-.33c.05-.12.42-.14,1-.05a55.76,55.76,0,0,0,8.23.78h.84a38.73,38.73,0,0,0,5.13-.43,2.82,2.82,0,0,0,.68-.17,2.32,2.32,0,0,0,1.55-2.19V37.38a2.34,2.34,0,0,0-.63-1.59,1.93,1.93,0,0,0-.3-.27A2.35,2.35,0,0,0,28,35.05h-.46l-.34,0a38.38,38.38,0,0,1-4.47.32H22a56,56,0,0,1-8.63-.84,1.11,1.11,0,0,1-.61-.22.22.22,0,0,1-.11-.12A.26.26,0,0,1,12.6,34Z"/><path fill="#c6cbd2" d="M12.6,34a.29.29,0,0,1,.21-.22,1.21,1.21,0,0,1,.65,0,54.76,54.76,0,0,0,8.75.83,38.18,38.18,0,0,0,4.94-.33l.28,0a2.82,2.82,0,0,1,.41,0,3.21,3.21,0,0,1,2,.76,3.12,3.12,0,0,1,1.08,2.34v2.54s0,.19,0,.22a3.09,3.09,0,0,1-2.64,3,40,40,0,0,1-6,.48,55.18,55.18,0,0,1-9.31-.92.46.46,0,0,1-.17-.09.36.36,0,0,1-.06-.15.32.32,0,0,1,.09-.32c0-.11.41-.13,1,0a56.24,56.24,0,0,0,8.23.78h.84a42.29,42.29,0,0,0,5.13-.43,3.57,3.57,0,0,0,.68-.18,2.31,2.31,0,0,0,1.54-2.19V37.38a2.33,2.33,0,0,0-.62-1.59,1.93,1.93,0,0,0-.3-.27A2.39,2.39,0,0,0,28,35.05a2.36,2.36,0,0,0-.46,0,1.87,1.87,0,0,0-.34,0,40.7,40.7,0,0,1-4.47.32H22a55.35,55.35,0,0,1-8.63-.83c-.36-.07-.58-.15-.61-.22a.28.28,0,0,1-.12-.12A.44.44,0,0,1,12.6,34Z"/><path fill="#c7ccd3" d="M12.61,34a.28.28,0,0,1,.2-.22,1.29,1.29,0,0,1,.66,0,54.87,54.87,0,0,0,8.74.83,38.18,38.18,0,0,0,4.94-.33l.28,0h.4a3.12,3.12,0,0,1,2,.76,3.09,3.09,0,0,1,1.07,2.33v2.76a3.09,3.09,0,0,1-2.64,3,41.69,41.69,0,0,1-6,.47,54,54,0,0,1-9.31-.92.24.24,0,0,1-.16-.09.26.26,0,0,1-.07-.15.32.32,0,0,1,.1-.31c0-.11.41-.13,1,0a53.93,53.93,0,0,0,8.23.78q.42,0,.84,0a38.58,38.58,0,0,0,5.13-.43,4.51,4.51,0,0,0,.68-.17,2.34,2.34,0,0,0,1.54-2.2V37.38a2.38,2.38,0,0,0-.62-1.59,3.65,3.65,0,0,0-.3-.27A2.4,2.4,0,0,0,28,35a3.53,3.53,0,0,0-.46,0,2.07,2.07,0,0,0-.35,0,38.06,38.06,0,0,1-4.46.32H22a55.23,55.23,0,0,1-8.62-.84c-.36-.06-.58-.14-.61-.21a.23.23,0,0,1-.12-.12A.25.25,0,0,1,12.61,34Z"/><path fill="#c8cdd4" d="M12.61,34a.3.3,0,0,1,.21-.21,1.24,1.24,0,0,1,.66,0,53.91,53.91,0,0,0,8.73.83,38.18,38.18,0,0,0,4.94-.33l.27,0,.41,0a3.13,3.13,0,0,1,2,.76,3.09,3.09,0,0,1,1.07,2.33v2.75a3.08,3.08,0,0,1-2.63,3,40.09,40.09,0,0,1-6,.48,55.18,55.18,0,0,1-9.31-.92.35.35,0,0,1-.16-.09.3.3,0,0,1-.07-.15.33.33,0,0,1,.11-.32c0-.1.41-.11,1,0a55.76,55.76,0,0,0,8.23.78h.84a40.08,40.08,0,0,0,5.13-.44,3,3,0,0,0,.68-.17,2.34,2.34,0,0,0,1.54-2.2V37.38a2.34,2.34,0,0,0-.63-1.59,1.93,1.93,0,0,0-.3-.27A2.25,2.25,0,0,0,28,35a3.54,3.54,0,0,0-.46,0l-.35,0a38.11,38.11,0,0,1-4.46.33H22a54.64,54.64,0,0,1-8.62-.83c-.36-.07-.58-.15-.61-.21a.25.25,0,0,1-.13-.12A.44.44,0,0,1,12.61,34Z"/><path fill="#c9ced5" d="M12.62,34.05a.28.28,0,0,1,.21-.22c.05,0,.29,0,.65,0a54.45,54.45,0,0,0,8.73.83,38.18,38.18,0,0,0,4.94-.33l.27,0a2.82,2.82,0,0,1,.41,0,3.14,3.14,0,0,1,2,.75,3.09,3.09,0,0,1,1.07,2.33v2.75a3.09,3.09,0,0,1-2.63,3,41.69,41.69,0,0,1-6,.47,54,54,0,0,1-9.31-.92.32.32,0,0,1-.16-.09.21.21,0,0,1-.06-.15.3.3,0,0,1,.11-.31c0-.09.41-.1,1,0a56.23,56.23,0,0,0,8.23.78h.84A38.58,38.58,0,0,0,28,42.45a3.57,3.57,0,0,0,.68-.18,2.33,2.33,0,0,0,1.53-2.2V37.38a2.33,2.33,0,0,0-.62-1.59,1.93,1.93,0,0,0-.3-.27A2.27,2.27,0,0,0,28,35a3.57,3.57,0,0,0-.46,0,2.07,2.07,0,0,0-.35,0,40.35,40.35,0,0,1-4.46.32H22a56.38,56.38,0,0,1-8.62-.83,1.31,1.31,0,0,1-.62-.21.2.2,0,0,1-.12-.12A.23.23,0,0,1,12.62,34.05Z"/><path fill="#cacfd5" d="M12.62,34.05a.29.29,0,0,1,.21-.22,1.51,1.51,0,0,1,.66,0,54.92,54.92,0,0,0,8.72.82,39.71,39.71,0,0,0,4.93-.32l.28,0,.4,0a3.13,3.13,0,0,1,2,.76,3.07,3.07,0,0,1,1.07,2.32v2.75a3.07,3.07,0,0,1-2.62,3,40.3,40.3,0,0,1-6,.47,55.6,55.6,0,0,1-9.31-.91.34.34,0,0,1-.16-.1.26.26,0,0,1-.06-.15.29.29,0,0,1,.12-.3c0-.09.4-.1,1,0a55.81,55.81,0,0,0,8.23.77h.84A40.08,40.08,0,0,0,28,42.45a3,3,0,0,0,.68-.17,2.37,2.37,0,0,0,1.53-2.21V37.38a2.38,2.38,0,0,0-.62-1.59,1.93,1.93,0,0,0-.3-.27A2.3,2.3,0,0,0,28,35a3.7,3.7,0,0,0-.47,0l-.34,0a40.4,40.4,0,0,1-4.46.33H22a54.12,54.12,0,0,1-8.62-.83c-.37-.06-.59-.14-.62-.2a.2.2,0,0,1-.12-.12A.29.29,0,0,1,12.62,34.05Z"/><path fill="#cbcfd6" d="M12.63,34.05a.29.29,0,0,1,.21-.22,1.41,1.41,0,0,1,.66,0,55.17,55.17,0,0,0,8.71.82,38,38,0,0,0,4.93-.33l.28,0a2.68,2.68,0,0,1,.4,0,3.12,3.12,0,0,1,2,.75,3.07,3.07,0,0,1,1.07,2.32v2.74a3.07,3.07,0,0,1-2.62,3,40.09,40.09,0,0,1-6,.48,53.87,53.87,0,0,1-9.31-.92.32.32,0,0,1-.16-.09.42.42,0,0,1-.06-.15.32.32,0,0,1,.12-.3c0-.09.41-.09,1,0A55.9,55.9,0,0,0,22,42.9h.84A38.42,38.42,0,0,0,28,42.46a3.57,3.57,0,0,0,.68-.18,2.36,2.36,0,0,0,1.52-2.21V37.38a2.33,2.33,0,0,0-.62-1.59,3.83,3.83,0,0,0-.29-.28A2.47,2.47,0,0,0,28,35l-.46,0-.34,0a38.11,38.11,0,0,1-4.46.33H22a56.2,56.2,0,0,1-8.62-.82c-.37-.07-.59-.14-.62-.2a.22.22,0,0,1-.13-.12A.3.3,0,0,1,12.63,34.05Z"/><path fill="#ccd0d7" d="M12.64,34.05a.25.25,0,0,1,.21-.21,1.45,1.45,0,0,1,.65,0,54.36,54.36,0,0,0,8.71.82,40,40,0,0,0,4.93-.32l.27,0a2.81,2.81,0,0,1,.41,0,3.07,3.07,0,0,1,3,3.06v2.74a3.06,3.06,0,0,1-2.62,3,40,40,0,0,1-6,.47,53.87,53.87,0,0,1-9.31-.92.26.26,0,0,1-.16-.09.36.36,0,0,1-.06-.15.29.29,0,0,1,.13-.29c0-.08.41-.08,1,0A55.32,55.32,0,0,0,22,42.9h.84A39.91,39.91,0,0,0,28,42.46a3,3,0,0,0,.68-.18,2.36,2.36,0,0,0,1.52-2.21V37.38a2.33,2.33,0,0,0-.62-1.59,3.83,3.83,0,0,0-.29-.28A2.41,2.41,0,0,0,28.05,35a2.33,2.33,0,0,0-.46,0,2,2,0,0,0-.34,0,38.06,38.06,0,0,1-4.46.32H22a54.83,54.83,0,0,1-8.62-.83,1.3,1.3,0,0,1-.62-.19.2.2,0,0,1-.13-.12A.22.22,0,0,1,12.64,34.05Z"/><path fill="#cdd1d8" d="M12.64,34.05a.27.27,0,0,1,.21-.21,1.58,1.58,0,0,1,.66,0,55.71,55.71,0,0,0,8.7.82,38.15,38.15,0,0,0,4.93-.33l.27,0a2.75,2.75,0,0,1,.4,0,3.12,3.12,0,0,1,2,.75,3.06,3.06,0,0,1,1.07,2.31V39.9a1.62,1.62,0,0,1,0,.22,3,3,0,0,1-2.61,3,39.82,39.82,0,0,1-6,.48,54.69,54.69,0,0,1-9.3-.92.35.35,0,0,1-.17-.09.3.3,0,0,1-.05-.16.27.27,0,0,1,.13-.28c0-.08.41-.07,1,0a55.77,55.77,0,0,0,8.23.77h.84A42.11,42.11,0,0,0,28,42.47a3.57,3.57,0,0,0,.68-.18,2.37,2.37,0,0,0,1.51-2.22V37.38a2.37,2.37,0,0,0-.61-1.59,2,2,0,0,0-.3-.28,2.36,2.36,0,0,0-1.21-.5,3.46,3.46,0,0,0-.46,0,2,2,0,0,0-.34,0,38.11,38.11,0,0,1-4.46.33H22a55.34,55.34,0,0,1-8.62-.82,1.52,1.52,0,0,1-.63-.19.25.25,0,0,1-.13-.12A.39.39,0,0,1,12.64,34.05Z"/><path fill="#ced2d9" d="M12.65,34.05a.27.27,0,0,1,.21-.21,1.64,1.64,0,0,1,.65,0,56.79,56.79,0,0,0,8.7.81,37.84,37.84,0,0,0,4.92-.32l.28,0a1.79,1.79,0,0,1,.4,0,3.07,3.07,0,0,1,3,3.05v2.73a3,3,0,0,1-2.61,3,41.41,41.41,0,0,1-6,.47,53.54,53.54,0,0,1-9.3-.92.24.24,0,0,1-.16-.09.21.21,0,0,1-.06-.15.28.28,0,0,1,.14-.28c0-.08.41-.07,1,0a56.59,56.59,0,0,0,8.23.76c.29,0,.57,0,.84,0A39.91,39.91,0,0,0,28,42.47a3.57,3.57,0,0,0,.68-.18,2.39,2.39,0,0,0,1.51-2.22V37.38a2.33,2.33,0,0,0-.62-1.59,1.54,1.54,0,0,0-.29-.28,2.36,2.36,0,0,0-1.21-.5,3.44,3.44,0,0,0-.46,0l-.34,0a38.11,38.11,0,0,1-4.47.33h-.75a55.78,55.78,0,0,1-8.62-.82,1.52,1.52,0,0,1-.63-.19.22.22,0,0,1-.13-.12A.22.22,0,0,1,12.65,34.05Z"/><path fill="#cfd3d9" d="M12.65,34.05a.27.27,0,0,1,.22-.21,1.89,1.89,0,0,1,.65,0,55.27,55.27,0,0,0,8.69.82,39.68,39.68,0,0,0,4.92-.32l.28,0,.4,0a3.12,3.12,0,0,1,2,.75,3.05,3.05,0,0,1,1.06,2.3v2.73a3,3,0,0,1-2.6,3,39.82,39.82,0,0,1-6,.48,54.69,54.69,0,0,1-9.3-.92.25.25,0,0,1-.16-.1.23.23,0,0,1-.06-.15.27.27,0,0,1,.15-.27c0-.07.4-.06,1,0a55.11,55.11,0,0,0,8.22.77h.84A39.91,39.91,0,0,0,28,42.47a2.45,2.45,0,0,0,.67-.18,2.37,2.37,0,0,0,1.51-2.22V37.38a2.37,2.37,0,0,0-.61-1.59,2.54,2.54,0,0,0-.29-.28A2.52,2.52,0,0,0,27.62,35a2,2,0,0,0-.34,0,40.4,40.4,0,0,1-4.47.33h-.75a53.57,53.57,0,0,1-8.62-.82,1.72,1.72,0,0,1-.63-.18.2.2,0,0,1-.13-.12A.26.26,0,0,1,12.65,34.05Z"/><path fill="#d0d4da" d="M12.66,34.05a.26.26,0,0,1,.21-.2,1.69,1.69,0,0,1,.66,0,55.38,55.38,0,0,0,8.68.82,37.88,37.88,0,0,0,4.92-.33l.27,0a2.82,2.82,0,0,1,.41,0,3.1,3.1,0,0,1,2,.74,3.05,3.05,0,0,1,1.06,2.3v2.73a3,3,0,0,1-2.6,3,41.41,41.41,0,0,1-6,.47,53.54,53.54,0,0,1-9.3-.92.24.24,0,0,1-.21-.25.25.25,0,0,1,.14-.26c0-.07.41,0,1,0a55.56,55.56,0,0,0,8.22.77h.84A39.91,39.91,0,0,0,28,42.48a3.46,3.46,0,0,0,.67-.18,2.4,2.4,0,0,0,1.51-2.23V37.38a2.42,2.42,0,0,0-.61-1.6,2.44,2.44,0,0,0-.29-.27A2.48,2.48,0,0,0,28.09,35l-.46,0a1.87,1.87,0,0,0-.34,0,38.27,38.27,0,0,1-4.47.33h-.75a55.53,55.53,0,0,1-8.63-.82,1.81,1.81,0,0,1-.63-.18.25.25,0,0,1-.13-.12A.22.22,0,0,1,12.66,34.05Z"/><path fill="#d1d4db" d="M12.66,34.05a.26.26,0,0,1,.22-.2,1.76,1.76,0,0,1,.65.06,56.3,56.3,0,0,0,8.68.81,39.8,39.8,0,0,0,4.92-.32l.27,0,.4,0a3.06,3.06,0,0,1,2,.75,3,3,0,0,1,1,2.29v2.73a3,3,0,0,1-2.59,3,39.82,39.82,0,0,1-6,.48,54.69,54.69,0,0,1-9.3-.92.29.29,0,0,1-.16-.1.26.26,0,0,1-.05-.15.28.28,0,0,1,.15-.27,2.17,2.17,0,0,1,1,.06,56.36,56.36,0,0,0,8.22.76h.84A39.91,39.91,0,0,0,28,42.48a2.87,2.87,0,0,0,.67-.18,2.4,2.4,0,0,0,1.51-2.23V37.38a2.42,2.42,0,0,0-.61-1.6,1.93,1.93,0,0,0-.3-.27A2.36,2.36,0,0,0,28.1,35a3.55,3.55,0,0,0-.46,0l-.34,0a40.63,40.63,0,0,1-4.47.34h-.75a53.35,53.35,0,0,1-8.63-.82,1.61,1.61,0,0,1-.63-.17.28.28,0,0,1-.13-.11A.31.31,0,0,1,12.66,34.05Z"/><path fill="#d2d5dc" d="M12.67,34.06a.27.27,0,0,1,.21-.21,2.53,2.53,0,0,1,.66.06,54.81,54.81,0,0,0,8.67.82,37.73,37.73,0,0,0,4.91-.33l.28,0a2.68,2.68,0,0,1,.4,0,3.11,3.11,0,0,1,2,.74,3.07,3.07,0,0,1,1,2.29V40.1a3,3,0,0,1-2.59,3,41.41,41.41,0,0,1-6,.47,54.69,54.69,0,0,1-9.3-.92.32.32,0,0,1-.16-.09.3.3,0,0,1-.05-.16.27.27,0,0,1,.16-.26,2.47,2.47,0,0,1,1,.07,56.82,56.82,0,0,0,8.22.76h.84A39.56,39.56,0,0,0,28,42.49a3,3,0,0,0,.68-.19,2.4,2.4,0,0,0,1.5-2.23V37.38a2.42,2.42,0,0,0-.61-1.6,2.57,2.57,0,0,0-.29-.28,2.44,2.44,0,0,0-1.2-.52,3.54,3.54,0,0,0-.46,0,1.87,1.87,0,0,0-.34,0,40.76,40.76,0,0,1-4.47.33h-.75a56.25,56.25,0,0,1-8.63-.82,1.84,1.84,0,0,1-.63-.17.26.26,0,0,1-.14-.11A.3.3,0,0,1,12.67,34.06Z"/><path fill="#d3d6dc" d="M12.67,34.06a.25.25,0,0,1,.22-.2,1.82,1.82,0,0,1,.66.06,55.25,55.25,0,0,0,8.66.81,39.52,39.52,0,0,0,4.91-.32l.27,0,.41,0a3.06,3.06,0,0,1,2,.75,3,3,0,0,1,1.05,2.28V40.1a3,3,0,0,1-2.58,3,40,40,0,0,1-6,.47,55.25,55.25,0,0,1-9.3-.91.34.34,0,0,1-.16-.1.27.27,0,0,1-.05-.16.29.29,0,0,1,.17-.25,2.7,2.7,0,0,1,1,.07,54.47,54.47,0,0,0,8.22.76h.84A41,41,0,0,0,28,42.49a2.53,2.53,0,0,0,.68-.19,2.4,2.4,0,0,0,1.5-2.23V37.38a2.42,2.42,0,0,0-.61-1.6,3.83,3.83,0,0,0-.29-.28,2.48,2.48,0,0,0-1.2-.52l-.46,0a2.07,2.07,0,0,0-.35,0,38.11,38.11,0,0,1-4.46.33H22.1a55.46,55.46,0,0,1-8.63-.81,2.15,2.15,0,0,1-.63-.17.26.26,0,0,1-.14-.11A.29.29,0,0,1,12.67,34.06Z"/><path fill="#d4d7dd" d="M12.68,34.06a.24.24,0,0,1,.22-.2,2.27,2.27,0,0,1,.65.07,56,56,0,0,0,8.66.81,37.73,37.73,0,0,0,4.91-.33l.27,0a2.75,2.75,0,0,1,.4,0,3.11,3.11,0,0,1,2,.74,3,3,0,0,1,1.05,2.28V40.1a3,3,0,0,1-2.58,2.95,39.82,39.82,0,0,1-6,.48,54.69,54.69,0,0,1-9.3-.92.23.23,0,0,1-.15-.1.16.16,0,0,1,0-.15.24.24,0,0,1,.17-.25,2.59,2.59,0,0,1,1,.08,54.9,54.9,0,0,0,8.22.76h.84a41.26,41.26,0,0,0,5.12-.44,3.57,3.57,0,0,0,.68-.19,2.42,2.42,0,0,0,1.49-2.24V37.38a2.41,2.41,0,0,0-.6-1.6,3.83,3.83,0,0,0-.29-.28A2.59,2.59,0,0,0,28.12,35a2.26,2.26,0,0,0-.45,0l-.35,0a40.46,40.46,0,0,1-4.46.34h-.75a54.62,54.62,0,0,1-8.63-.81,2.36,2.36,0,0,1-.64-.16.28.28,0,0,1-.13-.11A.22.22,0,0,1,12.68,34.06Z"/><path fill="#d5d8de" d="M12.68,34.06a.27.27,0,0,1,.22-.2,2.86,2.86,0,0,1,.66.07,54.8,54.8,0,0,0,8.65.81,39.52,39.52,0,0,0,4.91-.32l.27,0a2.69,2.69,0,0,1,.4,0,3.06,3.06,0,0,1,2,.74,3,3,0,0,1,1,2.28v2.71a3,3,0,0,1-2.57,3,40.15,40.15,0,0,1-6,.47,55.25,55.25,0,0,1-9.3-.91.27.27,0,0,1-.15-.1.23.23,0,0,1,0-.16.26.26,0,0,1,.18-.24,3,3,0,0,1,1,.09A55.79,55.79,0,0,0,22.1,43h.84a41,41,0,0,0,5.12-.45,3,3,0,0,0,.68-.19,2.42,2.42,0,0,0,1.49-2.24V37.38a2.42,2.42,0,0,0-.61-1.6,1.94,1.94,0,0,0-.29-.28,2.42,2.42,0,0,0-1.2-.53,3.44,3.44,0,0,0-.46,0l-.34,0a36.1,36.1,0,0,1-4.46.34h-.76a54.87,54.87,0,0,1-8.62-.81,2.36,2.36,0,0,1-.64-.16.25.25,0,0,1-.17-.28Z"/><path fill="#d6d9df" d="M12.69,34.06a.24.24,0,0,1,.22-.2,3.32,3.32,0,0,1,.66.08,54.91,54.91,0,0,0,8.64.81,39.24,39.24,0,0,0,4.9-.32l.28,0,.4,0a3.1,3.1,0,0,1,2,.74,3,3,0,0,1,1,2.27v2.71A3,3,0,0,1,28.24,43a39.94,39.94,0,0,1-6,.48,54.69,54.69,0,0,1-9.3-.92.25.25,0,0,1-.15-.1.27.27,0,0,1,0-.16.26.26,0,0,1,.18-.23,3.3,3.3,0,0,1,1,.1,56.23,56.23,0,0,0,8.22.75H23a39,39,0,0,0,5.11-.45,2.53,2.53,0,0,0,.68-.19,2.41,2.41,0,0,0,1.48-2.24V37.38a2.41,2.41,0,0,0-.6-1.6,2.57,2.57,0,0,0-.29-.28,2.43,2.43,0,0,0-1.2-.54,3.44,3.44,0,0,0-.46,0l-.34,0a40.46,40.46,0,0,1-4.46.34h-.76a53.92,53.92,0,0,1-8.62-.81,2.62,2.62,0,0,1-.64-.15.26.26,0,0,1-.14-.11A.21.21,0,0,1,12.69,34.06Z"/><path fill="#d7d9e0" d="M12.7,34.06a.22.22,0,0,1,.22-.19,2.57,2.57,0,0,1,.65.08,55.78,55.78,0,0,0,8.64.8,37.53,37.53,0,0,0,4.9-.32l.27,0a1.82,1.82,0,0,1,.4,0,3,3,0,0,1,3,3v2.71A3,3,0,0,1,28.24,43a41.53,41.53,0,0,1-6,.47,53.06,53.06,0,0,1-9.29-.92.25.25,0,0,1,0-.48,4.35,4.35,0,0,1,1,.1,55,55,0,0,0,8.22.76H23a40.78,40.78,0,0,0,5.11-.45,3,3,0,0,0,.68-.19,2.45,2.45,0,0,0,1.48-2.25V37.38a2.46,2.46,0,0,0-.6-1.6,2.54,2.54,0,0,0-.29-.28,2.47,2.47,0,0,0-1.2-.54,1.75,1.75,0,0,0-.46,0l-.34,0a38.15,38.15,0,0,1-4.46.34h-.76a54.32,54.32,0,0,1-8.62-.81,2.87,2.87,0,0,1-.64-.15.28.28,0,0,1-.15-.11A.27.27,0,0,1,12.7,34.06Z"/><path fill="#d8dae0" d="M12.7,34.06a.24.24,0,0,1,.22-.19,3.32,3.32,0,0,1,.66.08,54.33,54.33,0,0,0,8.63.81,39.49,39.49,0,0,0,4.9-.32l.27,0,.4,0a3.06,3.06,0,0,1,2,.74,3,3,0,0,1,1.05,2.26v2.49a1.62,1.62,0,0,1,0,.22A3,3,0,0,1,28.23,43a39.67,39.67,0,0,1-6,.48,54.19,54.19,0,0,1-9.29-.92.25.25,0,0,1-.16-.1.25.25,0,0,1,.15-.38,4.12,4.12,0,0,1,1,.11,54.34,54.34,0,0,0,8.22.75H23a39,39,0,0,0,5.11-.45,2.53,2.53,0,0,0,.68-.19,2.44,2.44,0,0,0,1.47-2.25V37.38a2.45,2.45,0,0,0-.59-1.6,2.54,2.54,0,0,0-.29-.28,2.49,2.49,0,0,0-1.2-.55,3.44,3.44,0,0,0-.46,0l-.34,0a38.2,38.2,0,0,1-4.46.35h-.76a53.56,53.56,0,0,1-8.62-.8,3.31,3.31,0,0,1-.65-.15.22.22,0,0,1-.14-.11A.21.21,0,0,1,12.7,34.06Z"/><path fill="#d9dbe1" d="M12.71,34.06a.25.25,0,0,1,.22-.19,3.83,3.83,0,0,1,.65.09,54.73,54.73,0,0,0,8.63.81,37.69,37.69,0,0,0,4.9-.33l.27,0a2.68,2.68,0,0,1,.4,0,3,3,0,0,1,2,.73,3,3,0,0,1,1,2.26v2.7a3,3,0,0,1-2.56,3,41.25,41.25,0,0,1-6,.47,54,54,0,0,1-9.29-.92.24.24,0,0,1-.16-.09.25.25,0,0,1,0-.17.22.22,0,0,1,.2-.21,4.51,4.51,0,0,1,1,.12,54.78,54.78,0,0,0,8.23.75H23a40.78,40.78,0,0,0,5.11-.45,3,3,0,0,0,.68-.2,2.44,2.44,0,0,0,1.47-2.25V37.38a2.41,2.41,0,0,0-.6-1.6,2.54,2.54,0,0,0-.28-.29,2.57,2.57,0,0,0-1.2-.54,2.32,2.32,0,0,0-.46,0,2,2,0,0,0-.34,0,40.46,40.46,0,0,1-4.46.34h-.76a54.86,54.86,0,0,1-8.62-.81,3.86,3.86,0,0,1-.65-.14.22.22,0,0,1-.14-.11A.21.21,0,0,1,12.71,34.06Z"/><path fill="#dadce2" d="M12.71,34.06a.26.26,0,0,1,.23-.19,4.89,4.89,0,0,1,.65.1,55.42,55.42,0,0,0,8.62.8,39.21,39.21,0,0,0,4.89-.32l.28,0a2.6,2.6,0,0,1,.4,0,3,3,0,0,1,3,3v2.7A3,3,0,0,1,28.23,43a39.67,39.67,0,0,1-6,.48,54,54,0,0,1-9.29-.92.27.27,0,0,1-.16-.1.24.24,0,0,1,0-.16.27.27,0,0,1,.21-.22,9.26,9.26,0,0,1,1,.14,54.13,54.13,0,0,0,8.23.74H23a39,39,0,0,0,5.11-.45,2.88,2.88,0,0,0,.67-.19,2.47,2.47,0,0,0,1.48-2.26V37.38a2.46,2.46,0,0,0-.6-1.6,2.65,2.65,0,0,0-.29-.29,2.42,2.42,0,0,0-1.19-.55,2.37,2.37,0,0,0-.46,0l-.34,0a38.2,38.2,0,0,1-4.47.35h-.75a54.21,54.21,0,0,1-8.62-.8,4.58,4.58,0,0,1-.65-.14.24.24,0,0,1-.15-.11A.26.26,0,0,1,12.71,34.06Z"/><path fill="#dbdde3" d="M12.72,34.07a.22.22,0,0,1,.22-.19,6.27,6.27,0,0,1,.66.09,54,54,0,0,0,8.61.81,39.21,39.21,0,0,0,4.89-.32l.27,0a2.75,2.75,0,0,1,.4,0,3,3,0,0,1,3,3v2.7A3,3,0,0,1,28.23,43a41.25,41.25,0,0,1-6,.47,54,54,0,0,1-9.29-.92.23.23,0,0,1-.15-.1.22.22,0,0,1,0-.16.24.24,0,0,1,.21-.21,9.64,9.64,0,0,1,1,.14,54.41,54.41,0,0,0,8.23.75H23a42.78,42.78,0,0,0,5.11-.45,2.89,2.89,0,0,0,.67-.2,2.46,2.46,0,0,0,1.47-2.26V37.38a2.45,2.45,0,0,0-.59-1.6,2.65,2.65,0,0,0-.29-.29,2.46,2.46,0,0,0-1.19-.55,2.38,2.38,0,0,0-.46,0l-.34,0a38.2,38.2,0,0,1-4.47.35h-.75a54.6,54.6,0,0,1-8.63-.81,6,6,0,0,1-.64-.13.22.22,0,0,1-.15-.11A.19.19,0,0,1,12.72,34.07Z"/><path fill="#dcdee4" d="M12.72,34.07a.24.24,0,0,1,.23-.19,4.89,4.89,0,0,1,.65.1,54.69,54.69,0,0,0,8.61.8,39.21,39.21,0,0,0,4.89-.32l.27,0a2.69,2.69,0,0,1,.4,0,3,3,0,0,1,2,.73,3,3,0,0,1,1,2.25v2.69A3,3,0,0,1,28.23,43a39.88,39.88,0,0,1-6,.47,54.6,54.6,0,0,1-9.29-.91.27.27,0,0,1-.15-.1.25.25,0,0,1,0-.17.23.23,0,0,1,.21-.2s.4,0,1,.15a53.48,53.48,0,0,0,8.22.74H23a39,39,0,0,0,5.11-.45,2.52,2.52,0,0,0,2.14-2.46V37.38a2.46,2.46,0,0,0-.6-1.6,1.92,1.92,0,0,0-.28-.29,2.57,2.57,0,0,0-1.19-.56,3.57,3.57,0,0,0-.46,0,1.87,1.87,0,0,0-.34,0,40.45,40.45,0,0,1-4.47.34h-.75a54,54,0,0,1-8.63-.8l-.65-.13a.27.27,0,0,1-.15-.11A.32.32,0,0,1,12.72,34.07Z"/><path fill="#dddee4" d="M12.73,34.07a.24.24,0,0,1,.23-.19l.65.11a54.93,54.93,0,0,0,8.6.8,39.33,39.33,0,0,0,4.89-.32l.27,0,.4,0a3,3,0,0,1,2,.73,3,3,0,0,1,1,2.24v2.69A3,3,0,0,1,28.23,43a41.25,41.25,0,0,1-6,.47,54,54,0,0,1-9.29-.92.23.23,0,0,1-.15-.1.24.24,0,0,1,0-.16.24.24,0,0,1,.22-.2l1,.16a53.87,53.87,0,0,0,8.22.74H23a40.49,40.49,0,0,0,5.11-.46,2.17,2.17,0,0,0,.67-.2,2.46,2.46,0,0,0,1.46-2.26V37.38a2.45,2.45,0,0,0-.59-1.6,2.57,2.57,0,0,0-.28-.29,2.52,2.52,0,0,0-1.19-.56,2.38,2.38,0,0,0-.46,0l-.34,0a38.2,38.2,0,0,1-4.47.35h-.75a55.45,55.45,0,0,1-8.63-.8l-.65-.13a.33.33,0,0,1-.15-.1A.21.21,0,0,1,12.73,34.07Z"/><path fill="#dedfe5" d="M12.73,34.07a.24.24,0,0,1,.23-.19l.66.11a53.81,53.81,0,0,0,8.59.8,37.23,37.23,0,0,0,4.88-.32l.27,0,.4,0a3,3,0,0,1,2,.73,3,3,0,0,1,1,2.24v2.69A3,3,0,0,1,28.23,43a39.88,39.88,0,0,1-6,.47,54.6,54.6,0,0,1-9.29-.91.31.31,0,0,1-.15-.1.21.21,0,0,1,0-.17A.22.22,0,0,1,13,42.1l1,.17A55.62,55.62,0,0,0,22.2,43H23a40.49,40.49,0,0,0,5.11-.46,3,3,0,0,0,.67-.2,2.5,2.5,0,0,0,1.46-2.27V37.38a2.5,2.5,0,0,0-.59-1.61,2.57,2.57,0,0,0-.29-.28,2.54,2.54,0,0,0-1.19-.57,2.28,2.28,0,0,0-.45,0l-.34,0a38.37,38.37,0,0,1-4.47.35H22.2a53.28,53.28,0,0,1-8.63-.8l-.65-.12a.27.27,0,0,1-.15-.1A.25.25,0,0,1,12.73,34.07Z"/><path fill="#dfe0e6" d="M22.21,43.47a54,54,0,0,1-9.29-.92.25.25,0,0,1-.15-.1.21.21,0,0,1,0-.17A.24.24,0,0,1,13,42.1a56.77,56.77,0,0,0,9.24.91,38.8,38.8,0,0,0,5.94-.47,2.49,2.49,0,0,0,2.13-2.47V37.38a2.47,2.47,0,0,0-.87-1.89,2.5,2.5,0,0,0-1.64-.62,1.87,1.87,0,0,0-.34,0,41,41,0,0,1-5.22.35,54.6,54.6,0,0,1-9.29-.91.25.25,0,0,1-.15-.1.21.21,0,0,1,0-.17.23.23,0,0,1,.23-.18,56.77,56.77,0,0,0,9.24.91,38,38,0,0,0,5.15-.36l.4,0a3,3,0,0,1,2,.73,3,3,0,0,1,1,2.23v2.69A3,3,0,0,1,28.23,43,39.67,39.67,0,0,1,22.21,43.47Z"/></g></svg>