<svg xmlns="http://www.w3.org/2000/svg" viewBox="0 0 48 48"><path fill="#80878e" d="M4,30.006L3.75,9.756c0.117-2.94,1.711-5.14,4.16-5.766c2.628-0.67,5.447,0.634,7.019,3.253 l-0.857,0.514c-1.549-2.58-4.09-3.263-5.913-2.798C6.123,5.479,4.85,7.277,4.75,9.77L5,29.994L4,30.006z"/><path fill="#81888f" d="M4.005,30.006l-0.25-20.25c0.117-2.938,1.709-5.135,4.156-5.761 c2.626-0.669,5.443,0.633,7.013,3.251l-0.849,0.509c-1.547-2.577-4.088-3.267-5.919-2.8C6.119,5.475,4.844,7.275,4.745,9.769 l0.25,20.225L4.005,30.006z"/><path fill="#828990" d="M4.009,30.006l-0.25-20.25C3.876,6.819,5.466,4.625,7.912,4c2.624-0.669,5.439,0.633,7.008,3.248 l-0.84,0.503c-1.546-2.575-4.087-3.271-5.924-2.802c-2.04,0.522-3.316,2.323-3.416,4.82l0.25,20.225L4.009,30.006z"/><path fill="#838a90" d="M4.014,30.005l-0.25-20.25c0.117-2.934,1.705-5.126,4.149-5.751 c2.622-0.668,5.434,0.633,7.002,3.246l-0.832,0.498c-1.544-2.572-4.085-3.275-5.93-2.805c-2.042,0.522-3.32,2.325-3.419,4.824 l0.25,20.225L4.014,30.005z"/><path fill="#848b91" d="M4.019,30.005l-0.25-20.25c0.117-2.932,1.703-5.122,4.145-5.746c2.62-0.668,5.43,0.632,6.996,3.244 l-0.823,0.493c-1.542-2.569-4.084-3.279-5.935-2.807C6.108,5.462,4.828,7.267,4.729,9.768l0.25,20.226L4.019,30.005z"/><path fill="#858c92" d="M4.023,30.005l-0.25-20.25c0.117-2.93,1.701-5.117,4.141-5.741c2.618-0.667,5.426,0.632,6.991,3.242 l-0.815,0.488C12.55,5.177,10.009,4.46,8.15,4.934c-2.046,0.523-3.327,2.33-3.427,4.834l0.25,20.226L4.023,30.005z"/><path fill="#868c93" d="M4.028,30.005l-0.25-20.25c0.117-2.928,1.699-5.113,4.138-5.736 c2.616-0.667,5.421,0.632,6.985,3.239l-0.806,0.483c-1.539-2.564-4.081-3.287-5.946-2.812C6.1,5.453,4.818,7.262,4.718,9.768 l0.25,20.226L4.028,30.005z"/><path fill="#878d94" d="M4.032,30.005l-0.25-20.25c0.117-2.926,1.697-5.108,4.134-5.731c2.614-0.666,5.417,0.632,6.98,3.237 l-0.797,0.478c-1.537-2.561-4.079-3.291-5.952-2.814C6.096,5.449,4.813,7.259,4.712,9.767l0.25,20.226L4.032,30.005z"/><path fill="#888e95" d="M4.037,30.005l-0.25-20.25c0.117-2.924,1.695-5.104,4.13-5.726c2.612-0.666,5.412,0.631,6.974,3.235 l-0.789,0.473c-1.536-2.559-4.078-3.295-5.957-2.816C6.092,5.444,4.807,7.256,4.707,9.767l0.25,20.227L4.037,30.005z"/><path fill="#898f95" d="M4.042,30.004l-0.25-20.25c0.116-2.923,1.693-5.1,4.126-5.722c2.61-0.665,5.408,0.631,6.969,3.232 l-0.78,0.467c-1.534-2.556-4.076-3.299-5.963-2.818C6.088,5.44,4.802,7.254,4.702,9.767l0.25,20.227L4.042,30.004z"/><path fill="#8a9096" d="M4.046,30.004l-0.25-20.25c0.116-2.921,1.691-5.095,4.123-5.717c2.607-0.665,5.404,0.631,6.963,3.23 L14.11,7.73c-1.533-2.553-4.075-3.304-5.968-2.821C6.084,5.436,4.797,7.251,4.696,9.767l0.25,20.227L4.046,30.004z"/><path fill="#8b9197" d="M4.051,30.004l-0.25-20.25C3.917,6.836,5.49,4.663,7.92,4.042c2.605-0.664,5.399,0.63,6.958,3.228 l-0.763,0.457c-1.531-2.55-4.073-3.308-5.974-2.823c-2.06,0.527-3.349,2.344-3.45,4.862l0.25,20.227L4.051,30.004z"/><path fill="#8c9298" d="M4.056,30.004l-0.25-20.25c0.116-2.917,1.687-5.086,4.115-5.707c2.603-0.664,5.395,0.63,6.952,3.226 l-0.755,0.452C12.589,5.177,10.047,4.413,8.139,4.9C6.077,5.427,4.786,7.246,4.686,9.766l0.25,20.228L4.056,30.004z"/><path fill="#8d9399" d="M4.06,30.004L3.81,9.754c0.116-2.915,1.685-5.082,4.111-5.702c2.601-0.663,5.391,0.63,6.947,3.223 l-0.746,0.447c-1.528-2.545-4.07-3.316-5.985-2.827C6.073,5.423,4.781,7.243,4.68,9.766l0.25,20.228L4.06,30.004z"/><path fill="#8e949a" d="M4.065,30.004l-0.25-20.25c0.116-2.913,1.683-5.077,4.107-5.697 c2.599-0.662,5.386,0.629,6.941,3.221l-0.737,0.442C12.6,5.177,10.058,4.4,8.136,4.89C6.069,5.418,4.776,7.24,4.675,9.765 l0.25,20.228L4.065,30.004z"/><path fill="#8f959a" d="M4.069,30.003l-0.25-20.25C3.935,6.843,5.5,4.681,7.923,4.061c2.597-0.662,5.382,0.629,6.936,3.219 L14.13,7.717c-1.524-2.54-4.067-3.324-5.996-2.832C6.065,5.414,4.77,7.238,4.669,9.765l0.25,20.228L4.069,30.003z"/><path fill="#90969b" d="M4.074,30.003l-0.25-20.25c0.116-2.909,1.679-5.068,4.1-5.687c2.595-0.661,5.378,0.629,6.93,3.216 l-0.72,0.432c-1.523-2.537-4.065-3.328-6.001-2.834c-2.071,0.53-3.367,2.355-3.468,4.885l0.25,20.229L4.074,30.003z"/><path fill="#91969c" d="M4.079,30.003l-0.25-20.25c0.116-2.907,1.677-5.064,4.096-5.682 c2.593-0.661,5.373,0.628,6.925,3.214l-0.712,0.426c-1.521-2.534-4.064-3.332-6.007-2.837c-2.073,0.53-3.371,2.358-3.472,4.89 l0.25,20.229L4.079,30.003z"/><path fill="#92979d" d="M4.083,30.003l-0.25-20.25c0.116-2.905,1.675-5.059,4.092-5.677c2.591-0.66,5.369,0.628,6.919,3.212 l-0.703,0.421c-1.52-2.532-4.062-3.336-6.012-2.839C6.054,5.401,4.755,7.23,4.653,9.764l0.25,20.229L4.083,30.003z"/><path fill="#93989e" d="M4.088,30.003l-0.25-20.25C3.954,6.85,5.511,4.698,7.927,4.08c2.589-0.66,5.365,0.628,6.914,3.21 l-0.695,0.416c-1.518-2.529-4.061-3.34-6.018-2.841C6.05,5.396,4.749,7.227,4.648,9.764l0.25,20.229L4.088,30.003z"/><path fill="#94999f" d="M4.093,30.003l-0.25-20.25c0.116-2.901,1.671-5.051,4.085-5.668c2.587-0.659,5.36,0.627,6.908,3.207 L14.15,7.703C12.633,5.177,10.09,4.359,8.126,4.86c-2.08,0.532-3.382,2.365-3.483,4.904l0.25,20.23L4.093,30.003z"/><path fill="#959a9f" d="M4.097,30.003l-0.25-20.25C3.963,6.854,5.516,4.706,7.928,4.09c2.585-0.659,5.356,0.627,6.903,3.205 l-0.677,0.406c-1.515-2.523-4.058-3.349-6.029-2.846C6.042,5.388,4.739,7.222,4.637,9.763l0.25,20.23L4.097,30.003z"/><path fill="#969ba0" d="M4.102,30.002l-0.25-20.25c0.115-2.897,1.667-5.042,4.077-5.658 c2.583-0.658,5.352,0.627,6.897,3.203l-0.669,0.401c-1.513-2.521-4.056-3.353-6.035-2.848C6.038,5.383,4.733,7.219,4.632,9.763 l0.25,20.23L4.102,30.002z"/><path fill="#979ca1" d="M4.106,30.002l-0.25-20.25C3.972,6.858,5.522,4.715,7.93,4.099c2.581-0.658,5.347,0.626,6.892,3.201 l-0.66,0.396c-1.511-2.518-4.055-3.357-6.04-2.85C6.034,5.379,4.728,7.217,4.626,9.763l0.25,20.23L4.106,30.002z"/><path fill="#989da2" d="M4.111,30.002l-0.25-20.25c0.115-2.893,1.663-5.033,4.07-5.648c2.579-0.657,5.343,0.626,6.886,3.198 l-0.652,0.391c-1.51-2.515-4.053-3.361-6.046-2.853C6.03,5.374,4.723,7.214,4.621,9.762l0.25,20.231L4.111,30.002z"/><path fill="#999ea3" d="M4.116,30.002l-0.25-20.25c0.115-2.891,1.661-5.028,4.066-5.643 c2.577-0.657,5.339,0.626,6.881,3.196L14.169,7.69c-1.508-2.513-4.052-3.365-6.051-2.855c-2.091,0.535-3.4,2.376-3.502,4.927 l0.25,20.231L4.116,30.002z"/><path fill="#9a9fa3" d="M4.12,30.002L3.87,9.752c0.115-2.889,1.659-5.024,4.062-5.638c2.575-0.656,5.334,0.625,6.875,3.194 l-0.635,0.38c-1.507-2.51-4.05-3.369-6.057-2.857C6.023,5.366,4.712,7.209,4.61,9.762l0.25,20.231L4.12,30.002z"/><path fill="#9b9fa4" d="M4.125,30.002l-0.25-20.25C3.99,6.865,5.532,4.732,7.934,4.118c2.573-0.656,5.33,0.625,6.869,3.191 l-0.626,0.375c-1.505-2.507-4.049-3.373-6.062-2.859c-2.096,0.536-3.408,2.381-3.51,4.936l0.25,20.231L4.125,30.002z"/><path fill="#9ca0a5" d="M4.13,30.001L3.88,9.751c0.115-2.885,1.655-5.015,4.055-5.629c2.571-0.655,5.325,0.625,6.864,3.189 l-0.618,0.37c-1.503-2.505-4.047-3.377-6.068-2.862C6.015,5.357,4.702,7.204,4.6,9.761l0.25,20.232L4.13,30.001z"/><path fill="#9da1a6" d="M4.134,30.001l-0.25-20.25c0.115-2.883,1.653-5.011,4.051-5.624 c2.569-0.654,5.321,0.624,6.858,3.187l-0.609,0.365c-1.502-2.502-4.046-3.381-6.073-2.864c-2.1,0.537-3.415,2.386-3.517,4.945 l0.25,20.232L4.134,30.001z"/><path fill="#9ea2a7" d="M4.139,30.001l-0.25-20.25C4.004,6.87,5.54,4.745,7.936,4.132c2.567-0.654,5.317,0.624,6.853,3.185 l-0.6,0.36c-1.5-2.499-4.044-3.385-6.079-2.866C6.007,5.348,4.691,7.198,4.589,9.76l0.25,20.232L4.139,30.001z"/><path fill="#9fa3a8" d="M4.143,30.001l-0.25-20.25c0.115-2.879,1.649-5.002,4.044-5.614 c2.565-0.653,5.312,0.624,6.847,3.182l-0.592,0.355c-1.498-2.497-4.043-3.389-6.084-2.868C6.003,5.344,4.686,7.196,4.583,9.76 l0.25,20.232L4.143,30.001z"/><path fill="#a0a4a8" d="M4.148,30.001l-0.25-20.25c0.115-2.877,1.647-4.997,4.04-5.609c2.563-0.653,5.308,0.623,6.842,3.18 l-0.583,0.35c-1.497-2.494-4.041-3.394-6.09-2.871C5.999,5.339,4.681,7.193,4.578,9.76l0.25,20.233L4.148,30.001z"/><path fill="#a1a5a9" d="M4.153,30.001l-0.25-20.25c0.115-2.875,1.645-4.993,4.036-5.604c2.56-0.652,5.304,0.623,6.836,3.178 L14.2,7.669c-1.495-2.491-4.04-3.398-6.095-2.873C5.996,5.335,4.675,7.19,4.573,9.76l0.25,20.233L4.153,30.001z"/><path fill="#a2a6aa" d="M4.157,30L3.907,9.75C4.022,6.878,5.551,4.762,7.94,4.151c2.558-0.652,5.299,0.623,6.831,3.175 l-0.566,0.339c-1.493-2.488-4.038-3.402-6.101-2.875C5.992,5.331,4.67,7.188,4.567,9.759l0.25,20.233L4.157,30z"/><path fill="#a3a7ab" d="M4.162,30L3.912,9.75C4.026,6.88,5.553,4.767,7.94,4.156c2.556-0.651,5.295,0.622,6.825,3.173 l-0.558,0.334c-1.492-2.486-4.037-3.406-6.106-2.878c-2.114,0.541-3.437,2.399-3.54,4.973l0.25,20.233L4.162,30z"/><path fill="#a4a8ac" d="M4.167,30L3.917,9.75c0.114-2.869,1.639-4.979,4.025-5.589c2.554-0.651,5.291,0.622,6.82,3.171 l-0.549,0.329c-1.49-2.483-4.035-3.41-6.112-2.88C5.984,5.322,4.659,7.183,4.557,9.759l0.25,20.234L4.167,30z"/><path fill="#a5a9ad" d="M4.171,30L3.921,9.75c0.114-2.867,1.637-4.975,4.021-5.584c2.552-0.65,5.286,0.622,6.814,3.169 l-0.54,0.324c-1.489-2.48-4.033-3.414-6.117-2.882C5.98,5.318,4.654,7.18,4.551,9.758l0.25,20.234L4.171,30z"/><path fill="#a5a9ad" d="M4.176,30L3.926,9.75c0.114-2.865,1.635-4.97,4.017-5.58c2.55-0.65,5.282,0.621,6.809,3.166 L14.22,7.655c-1.487-2.478-4.032-3.418-6.123-2.884C5.976,5.313,4.649,7.177,4.546,9.758l0.25,20.234L4.176,30z"/><path fill="#a6aaae" d="M4.18,30L3.93,9.75c0.114-2.863,1.633-4.966,4.013-5.575c2.548-0.649,5.278,0.621,6.803,3.164 l-0.523,0.314c-1.485-2.475-4.03-3.422-6.128-2.887C5.972,5.309,4.644,7.175,4.54,9.758l0.25,20.234L4.18,30z"/><path fill="#a7abaf" d="M4.185,30L3.935,9.75c0.114-2.861,1.631-4.962,4.01-5.57c2.546-0.649,5.273,0.621,6.798,3.162 L14.228,7.65c-1.484-2.472-4.029-3.426-6.134-2.889C5.969,5.304,4.638,7.172,4.535,9.757l0.25,20.235L4.185,30z"/><path fill="#a8acb0" d="M4.19,29.999L3.94,9.749c0.114-2.859,1.629-4.957,4.006-5.565c2.544-0.648,5.269,0.62,6.792,3.16 l-0.506,0.303c-1.482-2.47-4.027-3.43-6.139-2.891C5.965,5.3,4.633,7.169,4.53,9.757l0.25,20.235L4.19,29.999z"/><path fill="#a9adb1" d="M4.194,29.999l-0.25-20.25c0.114-2.857,1.627-4.953,4.002-5.56c2.542-0.648,5.265,0.62,6.787,3.157 l-0.498,0.298c-1.48-2.467-4.026-3.434-6.145-2.894c-2.13,0.545-3.463,2.416-3.566,5.006l0.25,20.235L4.194,29.999z"/><path fill="#aaaeb2" d="M4.199,29.999l-0.25-20.25c0.114-2.855,1.625-4.948,3.998-5.555c2.54-0.647,5.26,0.62,6.781,3.155 l-0.489,0.293c-1.479-2.464-4.024-3.439-6.15-2.896c-2.132,0.545-3.466,2.418-3.57,5.01l0.25,20.235L4.199,29.999z"/><path fill="#abafb2" d="M4.204,29.999l-0.25-20.25c0.114-2.853,1.623-4.944,3.995-5.55c2.538-0.646,5.256,0.619,6.776,3.153 l-0.48,0.288c-1.477-2.461-4.023-3.443-6.156-2.898c-2.134,0.546-3.47,2.42-3.574,5.015l0.25,20.235L4.204,29.999z"/><path fill="#acb0b3" d="M4.208,29.999l-0.25-20.25C4.072,6.898,5.58,4.809,7.949,4.203c2.536-0.646,5.252,0.619,6.77,3.15 l-0.472,0.283c-1.476-2.459-4.021-3.447-6.162-2.9c-2.137,0.546-3.474,2.423-3.578,5.02l0.25,20.236L4.208,29.999z"/><path fill="#adb1b4" d="M4.213,29.999l-0.25-20.25C4.076,6.9,5.582,4.814,7.95,4.208c2.534-0.645,5.247,0.619,6.765,3.148 l-0.463,0.278c-1.474-2.456-4.02-3.451-6.167-2.903C5.945,5.278,4.607,7.156,4.503,9.756l0.25,20.236L4.213,29.999z"/><path fill="#aeb2b5" d="M4.218,29.998l-0.25-20.25c0.114-2.847,1.617-4.93,3.983-5.536c2.532-0.645,5.243,0.618,6.759,3.146 l-0.455,0.273c-1.472-2.453-4.018-3.455-6.173-2.905C5.942,5.274,4.601,7.154,4.497,9.755l0.25,20.236L4.218,29.998z"/><path fill="#afb3b6" d="M4.222,29.998l-0.25-20.25c0.113-2.845,1.615-4.926,3.98-5.531c2.53-0.644,5.239,0.618,6.754,3.144 l-0.446,0.267c-1.471-2.451-4.017-3.459-6.178-2.907c-2.143,0.548-3.485,2.43-3.589,5.034l0.25,20.236L4.222,29.998z"/><path fill="#b0b3b7" d="M4.227,29.998l-0.25-20.25C4.09,6.905,5.59,4.827,7.953,4.222c2.528-0.644,5.234,0.618,6.748,3.141 l-0.438,0.262c-1.469-2.448-4.015-3.463-6.184-2.91C5.934,5.265,4.591,7.148,4.487,9.755l0.25,20.237L4.227,29.998z"/><path fill="#b1b4b7" d="M4.231,29.998l-0.25-20.25c0.113-2.841,1.611-4.917,3.972-5.521c2.526-0.643,5.23,0.618,6.743,3.139 l-0.429,0.257c-1.467-2.445-4.014-3.467-6.189-2.912C5.93,5.261,4.586,7.146,4.481,9.754l0.25,20.237L4.231,29.998z"/><path fill="#b2b5b8" d="M4.236,29.998l-0.25-20.25c0.113-2.839,1.609-4.913,3.968-5.516 c2.524-0.643,5.225,0.617,6.737,3.137l-0.42,0.252c-1.466-2.443-4.012-3.471-6.195-2.914c-2.15,0.55-3.496,2.437-3.6,5.048 l0.25,20.237L4.236,29.998z"/><path fill="#b3b6b9" d="M4.241,29.998l-0.25-20.25C4.104,6.911,5.598,4.84,7.955,4.237c2.522-0.642,5.221,0.617,6.731,3.134 l-0.412,0.247c-1.464-2.44-4.011-3.475-6.2-2.916c-2.152,0.55-3.5,2.439-3.604,5.052l0.25,20.237L4.241,29.998z"/><path fill="#b4b7ba" d="M4.245,29.997l-0.25-20.25c0.113-2.835,1.605-4.904,3.961-5.506c2.52-0.642,5.217,0.617,6.726,3.132 l-0.403,0.242c-1.463-2.437-4.009-3.479-6.206-2.919C5.918,5.247,4.57,7.138,4.465,9.754l0.25,20.238L4.245,29.997z"/><path fill="#b5b8bb" d="M4.25,29.997L4,9.747c0.113-2.833,1.603-4.899,3.957-5.501c2.518-0.641,5.212,0.616,6.72,3.13 l-0.395,0.237c-1.461-2.435-4.008-3.483-6.211-2.921C5.915,5.243,4.564,7.135,4.46,9.753l0.25,20.238L4.25,29.997z"/><path fill="#b6b9bb" d="M4.255,29.997l-0.25-20.25c0.113-2.831,1.601-4.895,3.953-5.496 c2.515-0.641,5.208,0.616,6.715,3.128L14.286,7.61C12.827,5.178,10.28,4.122,8.07,4.687C5.911,5.239,4.559,7.133,4.455,9.753 l0.25,20.238L4.255,29.997z"/><path fill="#b7babc" d="M4.259,29.997l-0.25-20.25c0.113-2.829,1.599-4.89,3.949-5.491c2.513-0.64,5.204,0.616,6.709,3.125 L14.29,7.607c-1.458-2.429-4.005-3.492-6.222-2.925C5.907,5.234,4.554,7.13,4.449,9.753l0.25,20.238L4.259,29.997z"/><path fill="#b8bbbd" d="M4.264,29.997l-0.25-20.25C4.127,6.92,5.611,4.861,7.959,4.26c2.511-0.639,5.199,0.615,6.704,3.123 l-0.369,0.221c-1.456-2.426-4.003-3.496-6.228-2.928C5.903,5.23,4.549,7.127,4.444,9.752l0.25,20.239L4.264,29.997z"/><path fill="#b9bcbe" d="M4.268,29.997l-0.25-20.25C4.131,6.922,5.614,4.865,7.96,4.265c2.509-0.639,5.195,0.615,6.698,3.121 l-0.36,0.216c-1.454-2.424-4.001-3.5-6.233-2.93c-2.166,0.554-3.522,2.453-3.626,5.08l0.25,20.239L4.268,29.997z"/><path fill="#babcbf" d="M4.273,29.997l-0.25-20.25C4.136,6.924,5.616,4.87,7.961,4.27c2.507-0.638,5.191,0.615,6.693,3.118 l-0.352,0.211c-1.453-2.421-4-3.504-6.239-2.932c-2.168,0.554-3.525,2.455-3.63,5.085l0.25,20.239L4.273,29.997z"/><path fill="#bbbdc0" d="M4.278,29.996l-0.25-20.25C4.14,6.925,5.619,4.874,7.962,4.274c2.505-0.638,5.186,0.614,6.687,3.116 l-0.343,0.206c-1.451-2.418-3.998-3.508-6.244-2.935c-2.17,0.555-3.529,2.457-3.634,5.089l0.25,20.239L4.278,29.996z"/><path fill="#bcbec0" d="M4.282,29.996l-0.25-20.25c0.112-2.819,1.589-4.868,3.931-5.467 c2.503-0.637,5.182,0.614,6.682,3.114L14.31,7.594c-1.45-2.416-3.997-3.512-6.25-2.937c-2.173,0.555-3.533,2.46-3.638,5.094 l0.25,20.24L4.282,29.996z"/><path fill="#bdbfc1" d="M4.287,29.996l-0.25-20.25c0.112-2.817,1.587-4.864,3.927-5.462 c2.501-0.637,5.178,0.614,6.676,3.112l-0.326,0.196c-1.448-2.413-3.995-3.516-6.255-2.939C5.884,5.208,4.522,7.114,4.417,9.751 l0.25,20.24L4.287,29.996z"/><path fill="#bec0c2" d="M4.292,29.996l-0.25-20.25c0.112-2.815,1.585-4.859,3.923-5.457 c2.499-0.636,5.173,0.613,6.671,3.109l-0.318,0.19c-1.446-2.41-3.994-3.52-6.261-2.941C5.88,5.204,4.517,7.112,4.412,9.751 l0.25,20.24L4.292,29.996z"/><path fill="#bfc1c3" d="M4.296,29.996l-0.25-20.25C4.158,6.933,5.63,4.891,7.965,4.293c2.497-0.636,5.169,0.613,6.665,3.107 l-0.309,0.185c-1.445-2.408-3.992-3.524-6.266-2.944C5.876,5.199,4.512,7.109,4.406,9.75l0.25,20.24L4.296,29.996z"/><path fill="#c0c2c4" d="M4.301,29.996l-0.25-20.25c0.112-2.811,1.581-4.85,3.916-5.447c2.495-0.635,5.165,0.613,6.66,3.105 l-0.301,0.18c-1.443-2.405-3.991-3.528-6.272-2.946C5.872,5.195,4.506,7.106,4.401,9.75l0.25,20.241L4.301,29.996z"/><path fill="#c1c3c5" d="M4.305,29.995l-0.25-20.25C4.167,6.936,5.635,4.9,7.967,4.303c2.493-0.635,5.16,0.612,6.654,3.103 l-0.292,0.175c-1.441-2.402-3.989-3.533-6.277-2.948C5.868,5.191,4.501,7.104,4.395,9.75l0.25,20.241L4.305,29.995z"/><path fill="#c2c4c5" d="M4.31,29.995L4.06,9.745c0.112-2.807,1.577-4.841,3.908-5.438c2.491-0.634,5.156,0.612,6.649,3.1 l-0.283,0.17c-1.44-2.399-3.988-3.537-6.283-2.951C5.864,5.186,4.496,7.101,4.39,9.749l0.25,20.241L4.31,29.995z"/><path fill="#c3c5c6" d="M4.315,29.995l-0.25-20.25C4.177,6.94,5.64,4.908,7.969,4.312c2.489-0.634,5.152,0.612,6.643,3.098 l-0.275,0.165c-1.438-2.397-3.986-3.541-6.289-2.953C5.86,5.182,4.49,7.098,4.385,9.749l0.25,20.241L4.315,29.995z"/><path fill="#c4c6c7" d="M4.319,29.995l-0.25-20.25C4.181,6.942,5.643,4.913,7.97,4.317c2.487-0.633,5.147,0.611,6.638,3.096 l-0.266,0.16c-1.437-2.394-3.985-3.545-6.294-2.955c-2.191,0.56-3.562,2.478-3.668,5.131l0.25,20.242L4.319,29.995z"/><path fill="#c5c6c8" d="M4.324,29.995l-0.25-20.25c0.112-2.801,1.571-4.828,3.897-5.423 c2.485-0.633,5.143,0.611,6.632,3.093L14.345,7.57c-1.435-2.391-3.983-3.549-6.3-2.957C5.853,5.173,4.48,7.093,4.374,9.748 l0.25,20.242L4.324,29.995z"/><path fill="#c6c7c9" d="M4.329,29.995l-0.25-20.25C4.19,6.946,5.648,4.921,7.972,4.327c2.483-0.632,5.138,0.611,6.627,3.091 l-0.249,0.149c-1.433-2.389-3.982-3.553-6.305-2.96C5.849,5.169,4.475,7.09,4.369,9.748l0.25,20.242L4.329,29.995z"/><path fill="#c7c8ca" d="M4.333,29.994l-0.25-20.25c0.112-2.797,1.568-4.819,3.889-5.413c2.481-0.631,5.134,0.61,6.621,3.089 l-0.241,0.144c-1.432-2.386-3.98-3.557-6.311-2.962C5.845,5.164,4.469,7.088,4.363,9.748l0.25,20.242L4.333,29.994z"/><path fill="#c8c9ca" d="M4.338,29.994l-0.25-20.25C4.199,6.949,5.653,4.93,7.973,4.336c2.479-0.631,5.13,0.61,6.616,3.087 l-0.232,0.139c-1.43-2.383-3.979-3.561-6.316-2.964c-2.2,0.562-3.577,2.488-3.683,5.15l0.25,20.243L4.338,29.994z"/><path fill="#c9cacb" d="M4.342,29.994l-0.25-20.25c0.111-2.793,1.564-4.81,3.882-5.403c2.477-0.63,5.125,0.61,6.61,3.084 l-0.223,0.134c-1.428-2.381-3.977-3.565-6.322-2.966c-2.202,0.563-3.58,2.49-3.687,5.155l0.25,20.243L4.342,29.994z"/><path fill="#cacbcc" d="M4.347,29.994l-0.25-20.25c0.111-2.791,1.562-4.806,3.878-5.398c2.475-0.63,5.121,0.609,6.604,3.082 l-0.215,0.129c-1.427-2.378-3.976-3.569-6.327-2.969C5.833,5.151,4.454,7.08,4.347,9.747l0.25,20.243L4.347,29.994z"/><g><radialGradient id="cmd9C06~EChJg1J43d8bWa" cx="208.516" cy="-391.902" r="2.187" gradientTransform="matrix(.7071 .7071 .6387 -.6386 119.668 -371.92)" gradientUnits="userSpaceOnUse"><stop offset=".66" stop-color="#c9f5ff" stop-opacity=".1"/><stop offset=".723" stop-color="#c5f3ff" stop-opacity=".267"/><stop offset=".781" stop-color="#baecfe" stop-opacity=".421"/><stop offset=".837" stop-color="#a7e1fd" stop-opacity=".57"/><stop offset=".892" stop-color="#8dd2fb" stop-opacity=".716"/><stop offset=".946" stop-color="#6cbef8" stop-opacity=".858"/><stop offset=".999" stop-color="#43a5f5" stop-opacity=".998"/><stop offset="1" stop-color="#42a5f5"/></radialGradient><circle cx="16.813" cy="25.813" r="2.187" fill="url(#cmd9C06~EChJg1J43d8bWa)"/><radialGradient id="cmd9C06~EChJg1J43d8bWb" cx="16.311" cy="-540.903" r="3.593" gradientTransform="matrix(1 0 0 -1 0 -516)" gradientUnits="userSpaceOnUse"><stop offset="0" stop-color="#c9f5ff" stop-opacity=".1"/><stop offset=".363" stop-color="#a9e2fd" stop-opacity=".341"/><stop offset=".851" stop-color="#58b2f7" stop-opacity=".866"/><stop offset="1" stop-color="#42a5f5"/></radialGradient><circle cx="16.813" cy="25.813" r="2.187" fill="url(#cmd9C06~EChJg1J43d8bWb)"/><radialGradient id="cmd9C06~EChJg1J43d8bWc" cx="22.71" cy="-545.845" r="2.187" gradientTransform="scale(-1 1) rotate(37.234 -843.84 -318.4)" gradientUnits="userSpaceOnUse"><stop offset="0" stop-color="#f6f9fb" stop-opacity=".7"/><stop offset=".299" stop-color="#fdfefe" stop-opacity=".605"/><stop offset=".616" stop-color="#fff" stop-opacity="0"/></radialGradient><circle cx="16.813" cy="25.813" r="2.187" fill="url(#cmd9C06~EChJg1J43d8bWc)"/></g><g><radialGradient id="cmd9C06~EChJg1J43d8bWd" cx="215.852" cy="-379.318" r="2.964" gradientTransform="matrix(.7071 .7071 .6387 -.6386 119.668 -371.92)" gradientUnits="userSpaceOnUse"><stop offset=".66" stop-color="#c9f5ff" stop-opacity=".1"/><stop offset=".723" stop-color="#c5f3ff" stop-opacity=".267"/><stop offset=".781" stop-color="#baecfe" stop-opacity=".421"/><stop offset=".837" stop-color="#a7e1fd" stop-opacity=".57"/><stop offset=".892" stop-color="#8dd2fb" stop-opacity=".716"/><stop offset=".946" stop-color="#6cbef8" stop-opacity=".858"/><stop offset=".999" stop-color="#43a5f5" stop-opacity=".998"/><stop offset="1" stop-color="#42a5f5"/></radialGradient><circle cx="30.036" cy="22.964" r="2.963" fill="url(#cmd9C06~EChJg1J43d8bWd)"/><radialGradient id="cmd9C06~EChJg1J43d8bWe" cx="29.357" cy="-537.73" r="4.869" gradientTransform="matrix(1 0 0 -1 0 -516)" gradientUnits="userSpaceOnUse"><stop offset="0" stop-color="#c9f5ff" stop-opacity=".1"/><stop offset=".363" stop-color="#a9e2fd" stop-opacity=".341"/><stop offset=".851" stop-color="#58b2f7" stop-opacity=".866"/><stop offset="1" stop-color="#42a5f5"/></radialGradient><circle cx="30.036" cy="22.964" r="2.963" fill="url(#cmd9C06~EChJg1J43d8bWe)"/><radialGradient id="cmd9C06~EChJg1J43d8bWf" cx="10.396" cy="-540.489" r="2.963" gradientTransform="scale(-1 1) rotate(37.234 -843.84 -318.4)" gradientUnits="userSpaceOnUse"><stop offset="0" stop-color="#f6f9fb" stop-opacity=".7"/><stop offset=".299" stop-color="#fdfefe" stop-opacity=".605"/><stop offset=".616" stop-color="#fff" stop-opacity="0"/></radialGradient><circle cx="30.036" cy="22.964" r="2.963" fill="url(#cmd9C06~EChJg1J43d8bWf)"/></g><g><radialGradient id="cmd9C06~EChJg1J43d8bWg" cx="205.245" cy="-394.194" r="2.964" gradientTransform="matrix(.7071 .7071 .6387 -.6386 119.668 -371.92)" gradientUnits="userSpaceOnUse"><stop offset=".66" stop-color="#c9f5ff" stop-opacity=".1"/><stop offset=".723" stop-color="#c5f3ff" stop-opacity=".267"/><stop offset=".781" stop-color="#baecfe" stop-opacity=".421"/><stop offset=".837" stop-color="#a7e1fd" stop-opacity=".57"/><stop offset=".892" stop-color="#8dd2fb" stop-opacity=".716"/><stop offset=".946" stop-color="#6cbef8" stop-opacity=".858"/><stop offset=".999" stop-color="#43a5f5" stop-opacity=".998"/><stop offset="1" stop-color="#42a5f5"/></radialGradient><circle cx="13.036" cy="24.964" r="2.963" fill="url(#cmd9C06~EChJg1J43d8bWg)"/><radialGradient id="cmd9C06~EChJg1J43d8bWh" cx="12.357" cy="-539.73" r="4.869" gradientTransform="matrix(1 0 0 -1 0 -516)" gradientUnits="userSpaceOnUse"><stop offset="0" stop-color="#c9f5ff" stop-opacity=".1"/><stop offset=".363" stop-color="#a9e2fd" stop-opacity=".341"/><stop offset=".851" stop-color="#58b2f7" stop-opacity=".866"/><stop offset="1" stop-color="#42a5f5"/></radialGradient><circle cx="13.036" cy="24.964" r="2.963" fill="url(#cmd9C06~EChJg1J43d8bWh)"/><radialGradient id="cmd9C06~EChJg1J43d8bWi" cx="25.141" cy="-549.183" r="2.963" gradientTransform="scale(-1 1) rotate(37.234 -843.84 -318.4)" gradientUnits="userSpaceOnUse"><stop offset="0" stop-color="#f6f9fb" stop-opacity=".7"/><stop offset=".299" stop-color="#fdfefe" stop-opacity=".605"/><stop offset=".616" stop-color="#fff" stop-opacity="0"/></radialGradient><circle cx="13.036" cy="24.964" r="2.963" fill="url(#cmd9C06~EChJg1J43d8bWi)"/></g><g><radialGradient id="cmd9C06~EChJg1J43d8bWj" cx="222.923" cy="-376.187" r="2.964" gradientTransform="matrix(.7071 .7071 .6387 -.6386 119.668 -371.92)" gradientUnits="userSpaceOnUse"><stop offset=".66" stop-color="#c9f5ff" stop-opacity=".1"/><stop offset=".723" stop-color="#c5f3ff" stop-opacity=".267"/><stop offset=".781" stop-color="#baecfe" stop-opacity=".421"/><stop offset=".837" stop-color="#a7e1fd" stop-opacity=".57"/><stop offset=".892" stop-color="#8dd2fb" stop-opacity=".716"/><stop offset=".946" stop-color="#6cbef8" stop-opacity=".858"/><stop offset=".999" stop-color="#43a5f5" stop-opacity=".998"/><stop offset="1" stop-color="#42a5f5"/></radialGradient><circle cx="37.036" cy="25.964" r="2.963" fill="url(#cmd9C06~EChJg1J43d8bWj)"/><radialGradient id="cmd9C06~EChJg1J43d8bWk" cx="36.357" cy="-540.73" r="4.869" gradientTransform="matrix(1 0 0 -1 0 -516)" gradientUnits="userSpaceOnUse"><stop offset="0" stop-color="#c9f5ff" stop-opacity=".1"/><stop offset=".363" stop-color="#a9e2fd" stop-opacity=".341"/><stop offset=".851" stop-color="#58b2f7" stop-opacity=".866"/><stop offset="1" stop-color="#42a5f5"/></radialGradient><circle cx="37.036" cy="25.964" r="2.963" fill="url(#cmd9C06~EChJg1J43d8bWk)"/><radialGradient id="cmd9C06~EChJg1J43d8bWl" cx="6.638" cy="-533.865" r="2.963" gradientTransform="scale(-1 1) rotate(37.234 -843.84 -318.4)" gradientUnits="userSpaceOnUse"><stop offset="0" stop-color="#f6f9fb" stop-opacity=".7"/><stop offset=".299" stop-color="#fdfefe" stop-opacity=".605"/><stop offset=".616" stop-color="#fff" stop-opacity="0"/></radialGradient><circle cx="37.036" cy="25.964" r="2.963" fill="url(#cmd9C06~EChJg1J43d8bWl)"/></g><g><radialGradient id="cmd9C06~EChJg1J43d8bWm" cx="219.936" cy="-379.493" r="1.964" gradientTransform="matrix(.7071 .7071 .6387 -.6386 119.668 -371.92)" gradientUnits="userSpaceOnUse"><stop offset=".66" stop-color="#c9f5ff" stop-opacity=".1"/><stop offset=".723" stop-color="#c5f3ff" stop-opacity=".267"/><stop offset=".781" stop-color="#baecfe" stop-opacity=".421"/><stop offset=".837" stop-color="#a7e1fd" stop-opacity=".57"/><stop offset=".892" stop-color="#8dd2fb" stop-opacity=".716"/><stop offset=".946" stop-color="#6cbef8" stop-opacity=".858"/><stop offset=".999" stop-color="#43a5f5" stop-opacity=".998"/><stop offset="1" stop-color="#42a5f5"/></radialGradient><circle cx="32.813" cy="25.964" r="1.963" fill="url(#cmd9C06~EChJg1J43d8bWm)"/><radialGradient id="cmd9C06~EChJg1J43d8bWn" cx="32.362" cy="-541.146" r="3.226" gradientTransform="matrix(1 0 0 -1 0 -516)" gradientUnits="userSpaceOnUse"><stop offset="0" stop-color="#c9f5ff" stop-opacity=".1"/><stop offset=".363" stop-color="#a9e2fd" stop-opacity=".341"/><stop offset=".851" stop-color="#58b2f7" stop-opacity=".866"/><stop offset="1" stop-color="#42a5f5"/></radialGradient><circle cx="32.813" cy="25.964" r="1.963" fill="url(#cmd9C06~EChJg1J43d8bWn)"/><radialGradient id="cmd9C06~EChJg1J43d8bWo" cx="10.081" cy="-535.936" r="1.963" gradientTransform="scale(-1 1) rotate(37.234 -843.84 -318.4)" gradientUnits="userSpaceOnUse"><stop offset="0" stop-color="#f6f9fb" stop-opacity=".7"/><stop offset=".299" stop-color="#fdfefe" stop-opacity=".605"/><stop offset=".616" stop-color="#fff" stop-opacity="0"/></radialGradient><circle cx="32.813" cy="25.964" r="1.963" fill="url(#cmd9C06~EChJg1J43d8bWo)"/></g><g><radialGradient id="cmd9C06~EChJg1J43d8bWp" cx="210.638" cy="-388.713" r="2.5" gradientTransform="matrix(.7071 .7071 .6387 -.6386 119.668 -371.92)" gradientUnits="userSpaceOnUse"><stop offset=".66" stop-color="#c9f5ff" stop-opacity=".1"/><stop offset=".723" stop-color="#c5f3ff" stop-opacity=".267"/><stop offset=".781" stop-color="#baecfe" stop-opacity=".421"/><stop offset=".837" stop-color="#a7e1fd" stop-opacity=".57"/><stop offset=".892" stop-color="#8dd2fb" stop-opacity=".716"/><stop offset=".946" stop-color="#6cbef8" stop-opacity=".858"/><stop offset=".999" stop-color="#43a5f5" stop-opacity=".998"/><stop offset="1" stop-color="#42a5f5"/></radialGradient><circle cx="20.35" cy="25.277" r="2.5" fill="url(#cmd9C06~EChJg1J43d8bWp)"/><radialGradient id="cmd9C06~EChJg1J43d8bWq" cx="19.776" cy="-540.236" r="4.108" gradientTransform="matrix(1 0 0 -1 0 -516)" gradientUnits="userSpaceOnUse"><stop offset="0" stop-color="#c9f5ff" stop-opacity=".1"/><stop offset=".363" stop-color="#a9e2fd" stop-opacity=".341"/><stop offset=".851" stop-color="#58b2f7" stop-opacity=".866"/><stop offset="1" stop-color="#42a5f5"/></radialGradient><circle cx="20.35" cy="25.277" r="2.5" fill="url(#cmd9C06~EChJg1J43d8bWq)"/><radialGradient id="cmd9C06~EChJg1J43d8bWr" cx="19.545" cy="-544.284" r="2.5" gradientTransform="scale(-1 1) rotate(37.234 -843.84 -318.4)" gradientUnits="userSpaceOnUse"><stop offset="0" stop-color="#f6f9fb" stop-opacity=".7"/><stop offset=".299" stop-color="#fdfefe" stop-opacity=".605"/><stop offset=".616" stop-color="#fff" stop-opacity="0"/></radialGradient><circle cx="20.35" cy="25.277" r="2.5" fill="url(#cmd9C06~EChJg1J43d8bWr)"/></g><g><radialGradient id="cmd9C06~EChJg1J43d8bWs" cx="213.466" cy="-382.625" r="2.388" gradientTransform="matrix(.7071 .7071 .6387 -.6386 119.668 -371.92)" gradientUnits="userSpaceOnUse"><stop offset=".66" stop-color="#c9f5ff" stop-opacity=".1"/><stop offset=".723" stop-color="#c5f3ff" stop-opacity=".267"/><stop offset=".781" stop-color="#baecfe" stop-opacity=".421"/><stop offset=".837" stop-color="#a7e1fd" stop-opacity=".57"/><stop offset=".892" stop-color="#8dd2fb" stop-opacity=".716"/><stop offset=".946" stop-color="#6cbef8" stop-opacity=".858"/><stop offset=".999" stop-color="#43a5f5" stop-opacity=".998"/><stop offset="1" stop-color="#42a5f5"/></radialGradient><circle cx="26.238" cy="23.388" r="2.388" fill="url(#cmd9C06~EChJg1J43d8bWs)"/><radialGradient id="cmd9C06~EChJg1J43d8bWt" cx="25.69" cy="-538.394" r="3.924" gradientTransform="matrix(1 0 0 -1 0 -516)" gradientUnits="userSpaceOnUse"><stop offset="0" stop-color="#c9f5ff" stop-opacity=".1"/><stop offset=".363" stop-color="#a9e2fd" stop-opacity=".341"/><stop offset=".851" stop-color="#58b2f7" stop-opacity=".866"/><stop offset="1" stop-color="#42a5f5"/></radialGradient><circle cx="26.238" cy="23.388" r="2.388" fill="url(#cmd9C06~EChJg1J43d8bWt)"/><radialGradient id="cmd9C06~EChJg1J43d8bWu" cx="13.724" cy="-542.171" r="2.388" gradientTransform="scale(-1 1) rotate(37.234 -843.84 -318.4)" gradientUnits="userSpaceOnUse"><stop offset="0" stop-color="#f6f9fb" stop-opacity=".7"/><stop offset=".299" stop-color="#fdfefe" stop-opacity=".605"/><stop offset=".616" stop-color="#fff" stop-opacity="0"/></radialGradient><circle cx="26.238" cy="23.388" r="2.388" fill="url(#cmd9C06~EChJg1J43d8bWu)"/></g><g><radialGradient id="cmd9C06~EChJg1J43d8bWv" cx="207.102" cy="-376.852" r="1.575" gradientTransform="matrix(.7071 .7071 .6387 -.6386 119.668 -371.92)" gradientUnits="userSpaceOnUse"><stop offset=".66" stop-color="#c9f5ff" stop-opacity=".1"/><stop offset=".723" stop-color="#c5f3ff" stop-opacity=".267"/><stop offset=".781" stop-color="#baecfe" stop-opacity=".421"/><stop offset=".837" stop-color="#a7e1fd" stop-opacity=".57"/><stop offset=".892" stop-color="#8dd2fb" stop-opacity=".716"/><stop offset=".946" stop-color="#6cbef8" stop-opacity=".858"/><stop offset=".999" stop-color="#43a5f5" stop-opacity=".998"/><stop offset="1" stop-color="#42a5f5"/></radialGradient><circle cx="25.425" cy="15.201" r="1.575" fill="url(#cmd9C06~EChJg1J43d8bWv)"/><radialGradient id="cmd9C06~EChJg1J43d8bWw" cx="25.063" cy="-530.545" r="2.588" gradientTransform="matrix(1 0 0 -1 0 -516)" gradientUnits="userSpaceOnUse"><stop offset="0" stop-color="#c9f5ff" stop-opacity=".1"/><stop offset=".363" stop-color="#a9e2fd" stop-opacity=".341"/><stop offset=".851" stop-color="#58b2f7" stop-opacity=".866"/><stop offset="1" stop-color="#42a5f5"/></radialGradient><circle cx="25.425" cy="15.201" r="1.575" fill="url(#cmd9C06~EChJg1J43d8bWw)"/><radialGradient id="cmd9C06~EChJg1J43d8bWx" cx="9.482" cy="-548.787" r="1.575" gradientTransform="scale(-1 1) rotate(37.234 -843.84 -318.4)" gradientUnits="userSpaceOnUse"><stop offset="0" stop-color="#f6f9fb" stop-opacity=".7"/><stop offset=".299" stop-color="#fdfefe" stop-opacity=".605"/><stop offset=".616" stop-color="#fff" stop-opacity="0"/></radialGradient><circle cx="25.425" cy="15.201" r="1.575" fill="url(#cmd9C06~EChJg1J43d8bWx)"/></g><g><radialGradient id="cmd9C06~EChJg1J43d8bWy" cx="204.38" cy="-387.03" r="2" gradientTransform="matrix(.7071 .7071 .6387 -.6386 119.668 -371.92)" gradientUnits="userSpaceOnUse"><stop offset=".66" stop-color="#c9f5ff" stop-opacity=".1"/><stop offset=".723" stop-color="#c5f3ff" stop-opacity=".267"/><stop offset=".781" stop-color="#baecfe" stop-opacity=".421"/><stop offset=".837" stop-color="#a7e1fd" stop-opacity=".57"/><stop offset=".892" stop-color="#8dd2fb" stop-opacity=".716"/><stop offset=".946" stop-color="#6cbef8" stop-opacity=".858"/><stop offset=".999" stop-color="#43a5f5" stop-opacity=".998"/><stop offset="1" stop-color="#42a5f5"/></radialGradient><circle cx="17" cy="19.777" r="2" fill="url(#cmd9C06~EChJg1J43d8bWy)"/><radialGradient id="cmd9C06~EChJg1J43d8bWz" cx="16.541" cy="-534.944" r="3.286" gradientTransform="matrix(1 0 0 -1 0 -516)" gradientUnits="userSpaceOnUse"><stop offset="0" stop-color="#c9f5ff" stop-opacity=".1"/><stop offset=".363" stop-color="#a9e2fd" stop-opacity=".341"/><stop offset=".851" stop-color="#58b2f7" stop-opacity=".866"/><stop offset="1" stop-color="#42a5f5"/></radialGradient><circle cx="17" cy="19.777" r="2" fill="url(#cmd9C06~EChJg1J43d8bWz)"/><radialGradient id="cmd9C06~EChJg1J43d8bWA" cx="18.924" cy="-550.447" r="2" gradientTransform="scale(-1 1) rotate(37.234 -843.84 -318.4)" gradientUnits="userSpaceOnUse"><stop offset="0" stop-color="#f6f9fb" stop-opacity=".7"/><stop offset=".299" stop-color="#fdfefe" stop-opacity=".605"/><stop offset=".616" stop-color="#fff" stop-opacity="0"/></radialGradient><circle cx="17" cy="19.777" r="2" fill="url(#cmd9C06~EChJg1J43d8bWA)"/></g><g><radialGradient id="cmd9C06~EChJg1J43d8bWB" cx="211.348" cy="-374.431" r="1.075" gradientTransform="matrix(.7071 .7071 .6387 -.6386 119.668 -371.92)" gradientUnits="userSpaceOnUse"><stop offset=".66" stop-color="#c9f5ff" stop-opacity=".1"/><stop offset=".723" stop-color="#c5f3ff" stop-opacity=".267"/><stop offset=".781" stop-color="#baecfe" stop-opacity=".421"/><stop offset=".837" stop-color="#a7e1fd" stop-opacity=".57"/><stop offset=".892" stop-color="#8dd2fb" stop-opacity=".716"/><stop offset=".946" stop-color="#6cbef8" stop-opacity=".858"/><stop offset=".999" stop-color="#43a5f5" stop-opacity=".998"/><stop offset="1" stop-color="#42a5f5"/></radialGradient><circle cx="29.973" cy="16.658" r="1.075" fill="url(#cmd9C06~EChJg1J43d8bWB)"/><radialGradient id="cmd9C06~EChJg1J43d8bWC" cx="29.727" cy="-532.21" r="1.767" gradientTransform="matrix(1 0 0 -1 0 -516)" gradientUnits="userSpaceOnUse"><stop offset="0" stop-color="#c9f5ff" stop-opacity=".1"/><stop offset=".363" stop-color="#a9e2fd" stop-opacity=".341"/><stop offset=".851" stop-color="#58b2f7" stop-opacity=".866"/><stop offset="1" stop-color="#42a5f5"/></radialGradient><circle cx="29.973" cy="16.658" r="1.075" fill="url(#cmd9C06~EChJg1J43d8bWC)"/><radialGradient id="cmd9C06~EChJg1J43d8bWD" cx="6.782" cy="-544.633" r="1.075" gradientTransform="scale(-1 1) rotate(37.234 -843.84 -318.4)" gradientUnits="userSpaceOnUse"><stop offset="0" stop-color="#f6f9fb" stop-opacity=".7"/><stop offset=".299" stop-color="#fdfefe" stop-opacity=".605"/><stop offset=".616" stop-color="#fff" stop-opacity="0"/></radialGradient><circle cx="29.973" cy="16.658" r="1.075" fill="url(#cmd9C06~EChJg1J43d8bWD)"/></g><g><radialGradient id="cmd9C06~EChJg1J43d8bWE" cx="210.744" cy="-384.799" r="3.075" gradientTransform="matrix(.7071 .7071 .6387 -.6386 119.668 -371.92)" gradientUnits="userSpaceOnUse"><stop offset=".66" stop-color="#c9f5ff" stop-opacity=".1"/><stop offset=".723" stop-color="#c5f3ff" stop-opacity=".267"/><stop offset=".781" stop-color="#baecfe" stop-opacity=".421"/><stop offset=".837" stop-color="#a7e1fd" stop-opacity=".57"/><stop offset=".892" stop-color="#8dd2fb" stop-opacity=".716"/><stop offset=".946" stop-color="#6cbef8" stop-opacity=".858"/><stop offset=".999" stop-color="#43a5f5" stop-opacity=".998"/><stop offset="1" stop-color="#42a5f5"/></radialGradient><circle cx="22.925" cy="22.852" r="3.075" fill="url(#cmd9C06~EChJg1J43d8bWE)"/><radialGradient id="cmd9C06~EChJg1J43d8bWF" cx="22.219" cy="-537.571" r="5.053" gradientTransform="matrix(1 0 0 -1 0 -516)" gradientUnits="userSpaceOnUse"><stop offset="0" stop-color="#c9f5ff" stop-opacity=".1"/><stop offset=".363" stop-color="#a9e2fd" stop-opacity=".341"/><stop offset=".851" stop-color="#58b2f7" stop-opacity=".866"/><stop offset="1" stop-color="#42a5f5"/></radialGradient><circle cx="22.925" cy="22.852" r="3.075" fill="url(#cmd9C06~EChJg1J43d8bWF)"/><radialGradient id="cmd9C06~EChJg1J43d8bWG" cx="15.982" cy="-544.935" r="3.075" gradientTransform="scale(-1 1) rotate(37.234 -843.84 -318.4)" gradientUnits="userSpaceOnUse"><stop offset="0" stop-color="#f6f9fb" stop-opacity=".7"/><stop offset=".299" stop-color="#fdfefe" stop-opacity=".605"/><stop offset=".616" stop-color="#fff" stop-opacity="0"/></radialGradient><circle cx="22.925" cy="22.852" r="3.075" fill="url(#cmd9C06~EChJg1J43d8bWG)"/></g><g><radialGradient id="cmd9C06~EChJg1J43d8bWH" cx="214.987" cy="-386.365" r="3.075" gradientTransform="matrix(.7071 .7071 .6387 -.6386 119.668 -371.92)" gradientUnits="userSpaceOnUse"><stop offset=".66" stop-color="#c9f5ff" stop-opacity=".1"/><stop offset=".723" stop-color="#c5f3ff" stop-opacity=".267"/><stop offset=".781" stop-color="#baecfe" stop-opacity=".421"/><stop offset=".837" stop-color="#a7e1fd" stop-opacity=".57"/><stop offset=".892" stop-color="#8dd2fb" stop-opacity=".716"/><stop offset=".946" stop-color="#6cbef8" stop-opacity=".858"/><stop offset=".999" stop-color="#43a5f5" stop-opacity=".998"/><stop offset="1" stop-color="#42a5f5"/></radialGradient><circle cx="24.925" cy="26.852" r="3.075" fill="url(#cmd9C06~EChJg1J43d8bWH)"/><radialGradient id="cmd9C06~EChJg1J43d8bWI" cx="24.219" cy="-541.571" r="5.053" gradientTransform="matrix(1 0 0 -1 0 -516)" gradientUnits="userSpaceOnUse"><stop offset="0" stop-color="#c9f5ff" stop-opacity=".1"/><stop offset=".363" stop-color="#a9e2fd" stop-opacity=".341"/><stop offset=".851" stop-color="#58b2f7" stop-opacity=".866"/><stop offset="1" stop-color="#42a5f5"/></radialGradient><circle cx="24.925" cy="26.852" r="3.075" fill="url(#cmd9C06~EChJg1J43d8bWI)"/><radialGradient id="cmd9C06~EChJg1J43d8bWJ" cx="16.81" cy="-540.541" r="3.075" gradientTransform="scale(-1 1) rotate(37.234 -843.84 -318.4)" gradientUnits="userSpaceOnUse"><stop offset="0" stop-color="#f6f9fb" stop-opacity=".7"/><stop offset=".299" stop-color="#fdfefe" stop-opacity=".605"/><stop offset=".616" stop-color="#fff" stop-opacity="0"/></radialGradient><circle cx="24.925" cy="26.852" r="3.075" fill="url(#cmd9C06~EChJg1J43d8bWJ)"/></g><g><radialGradient id="cmd9C06~EChJg1J43d8bWK" cx="217.815" cy="-382.45" r="2.575" gradientTransform="matrix(.7071 .7071 .6387 -.6386 119.668 -371.92)" gradientUnits="userSpaceOnUse"><stop offset=".66" stop-color="#c9f5ff" stop-opacity=".1"/><stop offset=".723" stop-color="#c5f3ff" stop-opacity=".267"/><stop offset=".781" stop-color="#baecfe" stop-opacity=".421"/><stop offset=".837" stop-color="#a7e1fd" stop-opacity=".57"/><stop offset=".892" stop-color="#8dd2fb" stop-opacity=".716"/><stop offset=".946" stop-color="#6cbef8" stop-opacity=".858"/><stop offset=".999" stop-color="#43a5f5" stop-opacity=".998"/><stop offset="1" stop-color="#42a5f5"/></radialGradient><circle cx="29.425" cy="26.352" r="2.575" fill="url(#cmd9C06~EChJg1J43d8bWK)"/><radialGradient id="cmd9C06~EChJg1J43d8bWL" cx="28.834" cy="-541.279" r="4.231" gradientTransform="matrix(1 0 0 -1 0 -516)" gradientUnits="userSpaceOnUse"><stop offset="0" stop-color="#c9f5ff" stop-opacity=".1"/><stop offset=".363" stop-color="#a9e2fd" stop-opacity=".341"/><stop offset=".851" stop-color="#58b2f7" stop-opacity=".866"/><stop offset="1" stop-color="#42a5f5"/></radialGradient><circle cx="29.425" cy="26.352" r="2.575" fill="url(#cmd9C06~EChJg1J43d8bWL)"/><radialGradient id="cmd9C06~EChJg1J43d8bWM" cx="12.964" cy="-537.973" r="2.575" gradientTransform="scale(-1 1) rotate(37.234 -843.84 -318.4)" gradientUnits="userSpaceOnUse"><stop offset="0" stop-color="#f6f9fb" stop-opacity=".7"/><stop offset=".299" stop-color="#fdfefe" stop-opacity=".605"/><stop offset=".616" stop-color="#fff" stop-opacity="0"/></radialGradient><circle cx="29.425" cy="26.352" r="2.575" fill="url(#cmd9C06~EChJg1J43d8bWM)"/></g><g><radialGradient id="cmd9C06~EChJg1J43d8bWN" cx="227.007" cy="-373.838" r="2.575" gradientTransform="matrix(.7071 .7071 .6387 -.6386 119.668 -371.92)" gradientUnits="userSpaceOnUse"><stop offset=".66" stop-color="#c9f5ff" stop-opacity=".1"/><stop offset=".723" stop-color="#c5f3ff" stop-opacity=".267"/><stop offset=".781" stop-color="#baecfe" stop-opacity=".421"/><stop offset=".837" stop-color="#a7e1fd" stop-opacity=".57"/><stop offset=".892" stop-color="#8dd2fb" stop-opacity=".716"/><stop offset=".946" stop-color="#6cbef8" stop-opacity=".858"/><stop offset=".999" stop-color="#43a5f5" stop-opacity=".998"/><stop offset="1" stop-color="#42a5f5"/></radialGradient><circle cx="41.425" cy="27.352" r="2.575" fill="url(#cmd9C06~EChJg1J43d8bWN)"/><radialGradient id="cmd9C06~EChJg1J43d8bWO" cx="40.834" cy="-542.279" r="4.231" gradientTransform="matrix(1 0 0 -1 0 -516)" gradientUnits="userSpaceOnUse"><stop offset="0" stop-color="#c9f5ff" stop-opacity=".1"/><stop offset=".363" stop-color="#a9e2fd" stop-opacity=".341"/><stop offset=".851" stop-color="#58b2f7" stop-opacity=".866"/><stop offset="1" stop-color="#42a5f5"/></radialGradient><circle cx="41.425" cy="27.352" r="2.575" fill="url(#cmd9C06~EChJg1J43d8bWO)"/><radialGradient id="cmd9C06~EChJg1J43d8bWP" cx="4.016" cy="-529.916" r="2.575" gradientTransform="scale(-1 1) rotate(37.234 -843.84 -318.4)" gradientUnits="userSpaceOnUse"><stop offset="0" stop-color="#f6f9fb" stop-opacity=".7"/><stop offset=".299" stop-color="#fdfefe" stop-opacity=".605"/><stop offset=".616" stop-color="#fff" stop-opacity="0"/></radialGradient><circle cx="41.425" cy="27.352" r="2.575" fill="url(#cmd9C06~EChJg1J43d8bWP)"/></g><g><radialGradient id="cmd9C06~EChJg1J43d8bWQ" cx="203.673" cy="-398.108" r="2.575" gradientTransform="matrix(.7071 .7071 .6387 -.6386 119.668 -371.92)" gradientUnits="userSpaceOnUse"><stop offset=".66" stop-color="#c9f5ff" stop-opacity=".1"/><stop offset=".723" stop-color="#c5f3ff" stop-opacity=".267"/><stop offset=".781" stop-color="#baecfe" stop-opacity=".421"/><stop offset=".837" stop-color="#a7e1fd" stop-opacity=".57"/><stop offset=".892" stop-color="#8dd2fb" stop-opacity=".716"/><stop offset=".946" stop-color="#6cbef8" stop-opacity=".858"/><stop offset=".999" stop-color="#43a5f5" stop-opacity=".998"/><stop offset="1" stop-color="#42a5f5"/></radialGradient><circle cx="9.425" cy="26.352" r="2.575" fill="url(#cmd9C06~EChJg1J43d8bWQ)"/><radialGradient id="cmd9C06~EChJg1J43d8bWR" cx="8.834" cy="-541.279" r="4.231" gradientTransform="matrix(1 0 0 -1 0 -516)" gradientUnits="userSpaceOnUse"><stop offset="0" stop-color="#c9f5ff" stop-opacity=".1"/><stop offset=".363" stop-color="#a9e2fd" stop-opacity=".341"/><stop offset=".851" stop-color="#58b2f7" stop-opacity=".866"/><stop offset="1" stop-color="#42a5f5"/></radialGradient><circle cx="9.425" cy="26.352" r="2.575" fill="url(#cmd9C06~EChJg1J43d8bWR)"/><radialGradient id="cmd9C06~EChJg1J43d8bWS" cx="28.888" cy="-550.075" r="2.575" gradientTransform="scale(-1 1) rotate(37.234 -843.84 -318.4)" gradientUnits="userSpaceOnUse"><stop offset="0" stop-color="#f6f9fb" stop-opacity=".7"/><stop offset=".299" stop-color="#fdfefe" stop-opacity=".605"/><stop offset=".616" stop-color="#fff" stop-opacity="0"/></radialGradient><circle cx="9.425" cy="26.352" r="2.575" fill="url(#cmd9C06~EChJg1J43d8bWS)"/></g><radialGradient id="cmd9C06~EChJg1J43d8bWT" cx="22.979" cy="17.617" r="26.9" gradientTransform="matrix(1 0 0 1.2253 0 -3.968)" gradientUnits="userSpaceOnUse"><stop offset=".354" stop-color="#dce4ef"/><stop offset=".491" stop-color="#d6dfea"/><stop offset=".664" stop-color="#c7cfdd"/><stop offset=".858" stop-color="#adb5c6"/><stop offset=".999" stop-color="#959eb2"/></radialGradient><path fill="url(#cmd9C06~EChJg1J43d8bWT)" d="M40.184,44H7.792c-1.695,0-3.2-1.114-3.669-2.742C2.898,37.009,2.231,32.576,2,28h44	c-0.379,4.736-1.033,9.205-2.14,13.231C43.408,42.876,41.89,44,40.184,44z"/><linearGradient id="cmd9C06~EChJg1J43d8bWU" x1="17.387" x2="17.393" y1="10.947" y2="12.093" gradientTransform="rotate(-30.63 15.522 12.854)" gradientUnits="userSpaceOnUse"><stop offset="0" stop-color="#d9dde1"/><stop offset="1" stop-color="#646f78"/></linearGradient><path fill="url(#cmd9C06~EChJg1J43d8bWU)" d="M20.421,8.909l-7.502,4.442c-0.292,0.173-0.668,0.076-0.84-0.215v0	c-0.173-0.292-0.076-0.668,0.215-0.84l7.502-4.442c0.292-0.173,0.668-0.076,0.84,0.215l0,0C20.809,8.36,20.713,8.737,20.421,8.909z"/><linearGradient id="cmd9C06~EChJg1J43d8bWV" x1="12.361" x2="20.742" y1="8.175" y2="10.047" gradientTransform="rotate(-30.63 15.522 12.854)" gradientUnits="userSpaceOnUse"><stop offset=".3" stop-color="#aab1b9"/><stop offset=".526" stop-color="#d9dde1"/><stop offset=".741" stop-color="#8c949d"/><stop offset=".913" stop-color="#646f78"/></linearGradient><path fill="url(#cmd9C06~EChJg1J43d8bWV)" d="M19.74,7.887l-7.39,4.375c0.543-2.134,0.961-3.739,1.292-5.042l1.056-0.625	C16.081,6.947,17.883,7.414,19.74,7.887z"/><linearGradient id="cmd9C06~EChJg1J43d8bWW" x1="23.96" x2="23.876" y1="29.947" y2="33.97" gradientUnits="userSpaceOnUse"><stop offset="0" stop-color="#969eb3"/><stop offset=".223" stop-color="#99a1b5" stop-opacity=".777"/><stop offset="1" stop-color="#9ea7ba" stop-opacity="0"/></linearGradient><path fill="url(#cmd9C06~EChJg1J43d8bWW)" d="M45.279,34.319C45.586,32.277,45.826,30.171,46,28H2c0.108,2.14,0.322,4.246,0.633,6.319	H45.279z"/><linearGradient id="cmd9C06~EChJg1J43d8bWX" x1="24" x2="24" y1="24.763" y2="30.51" gradientUnits="userSpaceOnUse"><stop offset=".22" stop-color="#dce4ef"/><stop offset=".383" stop-color="#d6deea"/><stop offset=".608" stop-color="#c4ccda"/><stop offset=".868" stop-color="#a7afc1"/><stop offset="1" stop-color="#959eb2"/></linearGradient><path fill="url(#cmd9C06~EChJg1J43d8bWX)" d="M46.334,30C28,30,17,30,1.666,29C1.298,29,1,28.702,1,28.334v-1.669	C1,26.298,1.666,26,1.666,26C17,27,28,27,46.334,27C46.702,27,47,27.298,47,27.666v1.669C47,29.702,46.702,30,46.334,30z"/><linearGradient id="cmd9C06~EChJg1J43d8bWY" x1="23.971" x2="23.971" y1="42.925" y2="40.358" gradientUnits="userSpaceOnUse"><stop offset="0" stop-color="#969eb3"/><stop offset=".221" stop-color="#99a1b5" stop-opacity=".777"/><stop offset=".993" stop-color="#9ea7ba" stop-opacity="0"/></linearGradient><path fill="url(#cmd9C06~EChJg1J43d8bWY)" d="M3.4,38.404c0.218,0.959,0.451,1.912,0.723,2.853C4.591,42.886,6.097,44,7.792,44h32.393	c1.706,0,3.223-1.124,3.676-2.769c0.252-0.918,0.475-1.865,0.682-2.827H3.4z"/><linearGradient id="cmd9C06~EChJg1J43d8bWZ" x1="9.429" x2="9.429" y1="45.652" y2="44.164" gradientUnits="userSpaceOnUse"><stop offset="0" stop-color="#98a1b5"/><stop offset=".611" stop-color="#b1baca"/><stop offset="1" stop-color="#bbc4d3"/></linearGradient><path fill="url(#cmd9C06~EChJg1J43d8bWZ)" d="M9.602,46H8.509C8.228,46,8,45.772,8,45.491v-2.981C8,42.228,8.228,42,8.509,42h1.838	c0.331,0,0.574,0.311,0.494,0.633l-0.745,2.981C10.04,45.841,9.836,46,9.602,46z"/><linearGradient id="cmd9C06~EChJg1J43d8bWaa" x1="38.286" x2="38.286" y1="45.652" y2="44.164" gradientTransform="matrix(-1 0 0 1 76.857 0)" gradientUnits="userSpaceOnUse"><stop offset="0" stop-color="#98a1b5"/><stop offset=".611" stop-color="#b1baca"/><stop offset="1" stop-color="#bbc4d3"/></linearGradient><path fill="url(#cmd9C06~EChJg1J43d8bWaa)" d="M38.398,46h1.093C39.772,46,40,45.772,40,45.491v-2.981C40,42.228,39.772,42,39.491,42	h-1.838c-0.331,0-0.574,0.311-0.494,0.633l0.745,2.981C37.96,45.841,38.164,46,38.398,46z"/><radialGradient id="cmd9C06~EChJg1J43d8bWab" cx="-388.311" cy="-298.308" r="4.575" gradientTransform="matrix(-1.6221 -.0503 .0045 -.144 -618.457 -35.3)" gradientUnits="userSpaceOnUse"><stop offset="0" stop-color="#fff" stop-opacity=".6"/><stop offset=".999" stop-color="#fff" stop-opacity="0"/></radialGradient><path fill="url(#cmd9C06~EChJg1J43d8bWab)" d="M1.965,27.011c0.013-0.435,3.715-0.673,8.269-0.531c4.553,0.141,8.233,0.608,8.22,1.043	c-0.013,0.435-3.715,0.673-8.269,0.531S1.951,27.445,1.965,27.011z"/></svg>