<svg xmlns="http://www.w3.org/2000/svg" viewBox="0 0 48 48"><linearGradient id="1X7lA9DNGs8so881Y8ST~a" x1="-.14" x2="11.486" y1="25.083" y2="25.083" gradientUnits="userSpaceOnUse"><stop offset="0" stop-color="#e4e9ed"/><stop offset=".308" stop-color="#e1e6ea"/><stop offset=".579" stop-color="#d6dee2"/><stop offset=".834" stop-color="#c4d0d4"/><stop offset=".999" stop-color="#b4c3c7"/></linearGradient><path fill="url(#1X7lA9DNGs8so881Y8ST~a)" d="M5,12.275c0.103,0.3,0.292,0.998,0.162,1.736c0.003,0.021,0.005,0.042,0.008,0.063	c0.175,0.505,0.206,1.454,0.237,1.666c0.031,0.217,0.279,1.517,0.279,1.888s0.062,0.867,0.155,1.393s0.031,1.238,0.093,1.548	c0.062,0.31,0.279,1.455,0.279,1.671c0,0.217,0,0.898,0.031,1.176c0.031,0.279,0.248,0.929,0.279,1.424	c0.031,0.495-0.031,0.774,0,1.114c0.031,0.34,0.248,1.207,0.31,1.486c0.062,0.279-0.031,0.959-0.031,1.176	c0,0.217,0.124,0.65,0.186,1.114C7.047,30.195,6.923,30.814,7.016,31c0.093,0.186,0.217,0.774,0.217,0.99	c0,0.217-0.062,0.898-0.031,1.145c0.031,0.248,0.248,0.929,0.248,1.207s-0.093,0.588-0.093,0.774c0,0.186,0.279,0.99,0.279,1.207	c0,0.217-0.062,0.805-0.062,1.114s0.186,0.836,0.186,1.083c0,0.248,0,0.929,0,1.176c0,0.248,0.217,0.929,0.217,0.929	s-0.186,0.867-0.093,1.114c0.015,0.039-0.002,0.073-0.031,0.105c0.006,0.079,0.011,0.132,0.011,0.132s1.097-3.848,7.722-5.984	c0.138-5.385,1.042-27.804,1.042-27.804S9.015,9.511,5,12.275z"/><radialGradient id="1X7lA9DNGs8so881Y8ST~b" cx="24.73" cy="22.976" r="19.163" gradientTransform="matrix(1 0 0 1.3716 0 -8.327)" gradientUnits="userSpaceOnUse"><stop offset="0" stop-color="#e4e9ed"/><stop offset=".274" stop-color="#e1e6ea"/><stop offset=".515" stop-color="#d6dde1"/><stop offset=".698" stop-color="#c8d2d5"/><stop offset=".999" stop-color="#b4c3c7"/></radialGradient><path fill="url(#1X7lA9DNGs8so881Y8ST~b)" d="M12.907,10.449V38.2h0.008c0.091,2.435,6.561,4.8,14.538,4.8s14.447-2.366,14.538-4.8H42	V10.449H12.907z"/><path fill="#aab8bc" d="M33.272,14.536c-0.069,0-0.125-0.056-0.125-0.125v-0.5c0-0.069,0.056-0.125,0.125-0.125 s0.125,0.056,0.125,0.125v0.5C33.397,14.48,33.341,14.536,33.272,14.536z"/><path fill="#aab8bc" d="M33.272,40.824c-0.069,0-0.125-0.056-0.125-0.125v-1.011c0-0.069,0.056-0.125,0.125-0.125 s0.125,0.056,0.125,0.125v1.011C33.397,40.769,33.341,40.824,33.272,40.824z M33.272,38.802c-0.069,0-0.125-0.056-0.125-0.125 v-1.011c0-0.069,0.056-0.125,0.125-0.125s0.125,0.056,0.125,0.125v1.011C33.397,38.746,33.341,38.802,33.272,38.802z M33.272,36.78 c-0.069,0-0.125-0.056-0.125-0.125v-1.012c0-0.069,0.056-0.125,0.125-0.125s0.125,0.056,0.125,0.125v1.012 C33.397,36.725,33.341,36.78,33.272,36.78z M33.272,34.758c-0.069,0-0.125-0.056-0.125-0.125v-1.011 c0-0.069,0.056-0.125,0.125-0.125s0.125,0.056,0.125,0.125v1.011C33.397,34.702,33.341,34.758,33.272,34.758z M33.272,32.735 c-0.069,0-0.125-0.056-0.125-0.125V31.6c0-0.069,0.056-0.125,0.125-0.125s0.125,0.056,0.125,0.125v1.011 C33.397,32.68,33.341,32.735,33.272,32.735z M33.272,30.713c-0.069,0-0.125-0.056-0.125-0.125v-1.011 c0-0.069,0.056-0.125,0.125-0.125s0.125,0.056,0.125,0.125v1.011C33.397,30.657,33.341,30.713,33.272,30.713z M33.272,28.691 c-0.069,0-0.125-0.056-0.125-0.125v-1.012c0-0.069,0.056-0.125,0.125-0.125s0.125,0.056,0.125,0.125v1.012 C33.397,28.636,33.341,28.691,33.272,28.691z M33.272,26.669c-0.069,0-0.125-0.056-0.125-0.125v-1.011 c0-0.069,0.056-0.125,0.125-0.125s0.125,0.056,0.125,0.125v1.011C33.397,26.613,33.341,26.669,33.272,26.669z M33.272,24.646 c-0.069,0-0.125-0.056-0.125-0.125v-1.011c0-0.069,0.056-0.125,0.125-0.125s0.125,0.056,0.125,0.125v1.011 C33.397,24.591,33.341,24.646,33.272,24.646z M33.272,22.625c-0.069,0-0.125-0.056-0.125-0.125v-1.012 c0-0.069,0.056-0.125,0.125-0.125s0.125,0.056,0.125,0.125V22.5C33.397,22.569,33.341,22.625,33.272,22.625z M33.272,20.603 c-0.069,0-0.125-0.056-0.125-0.125v-1.012c0-0.069,0.056-0.125,0.125-0.125s0.125,0.056,0.125,0.125v1.012 C33.397,20.547,33.341,20.603,33.272,20.603z M33.272,18.58c-0.069,0-0.125-0.056-0.125-0.125v-1.011 c0-0.069,0.056-0.125,0.125-0.125s0.125,0.056,0.125,0.125v1.011C33.397,18.524,33.341,18.58,33.272,18.58z M33.272,16.558 c-0.069,0-0.125-0.056-0.125-0.125v-1.011c0-0.069,0.056-0.125,0.125-0.125s0.125,0.056,0.125,0.125v1.011 C33.397,16.502,33.341,16.558,33.272,16.558z"/><path fill="#aab8bc" d="M33.272,42.336c-0.069,0-0.125-0.056-0.125-0.125v-0.5c0-0.069,0.056-0.125,0.125-0.125 s0.125,0.056,0.125,0.125v0.5C33.397,42.28,33.341,42.336,33.272,42.336z"/><linearGradient id="1X7lA9DNGs8so881Y8ST~c" x1="27.901" x2="27.446" y1="19.413" y2="10.307" gradientUnits="userSpaceOnUse"><stop offset="0" stop-color="#fff"/><stop offset="1" stop-color="#e4e9ed"/></linearGradient><ellipse cx="27.453" cy="10.449" fill="url(#1X7lA9DNGs8so881Y8ST~c)" rx="14.547" ry="3.394"/><ellipse cx="27.453" cy="10.449" fill="#baa090" rx="5.819" ry="1.358"/><linearGradient id="1X7lA9DNGs8so881Y8ST~d" x1="22.001" x2="28.887" y1="10.402" y2="10.402" gradientUnits="userSpaceOnUse"><stop offset="0" stop-color="#645041"/><stop offset=".498" stop-color="#847163"/><stop offset="1" stop-color="#a18e81"/></linearGradient><ellipse cx="27.453" cy="10.402" fill="url(#1X7lA9DNGs8so881Y8ST~d)" rx="5.452" ry="1.114"/></svg>