<svg xmlns="http://www.w3.org/2000/svg" viewBox="0 0 48 48"><defs><radialGradient id="As4kNsPqFc_UMbfsqkRjtc" cx="23.179" cy="47.138" r="26.327" gradientTransform="translate(0 .217)" gradientUnits="userSpaceOnUse"><stop offset=".097" stop-color="#c4a262"/><stop offset=".26" stop-color="#c7a767"/><stop offset=".462" stop-color="#d0b477"/><stop offset=".685" stop-color="#e0ca90"/><stop offset=".92" stop-color="#f5e8b2"/><stop offset="1" stop-color="#fdf4c0"/></radialGradient><radialGradient id="As4kNsPqFc_UMbfsqkRjtd" cx="23.464" cy="15.968" r="13.53" gradientTransform="matrix(1 0 0 .298 0 11.211)" gradientUnits="userSpaceOnUse"><stop offset="0" stop-color="#cfa95f"/><stop offset=".027" stop-color="#d2af66"/><stop offset=".163" stop-color="#e2c887"/><stop offset=".304" stop-color="#eedca0"/><stop offset=".451" stop-color="#f6eab2"/><stop offset=".605" stop-color="#fbf2bd"/><stop offset=".781" stop-color="#fdf5c0"/><stop offset="1" stop-color="#fefdbd"/></radialGradient><radialGradient id="As4kNsPqFc_UMbfsqkRjtf" cx="23.492" cy="11.88" r="11.918" gradientTransform="matrix(0 -1 .472 0 17.885 35.372)" gradientUnits="userSpaceOnUse"><stop offset="0" stop-color="#0027b5" stop-opacity=".7"/><stop offset=".106" stop-color="#d12300" stop-opacity=".7"/><stop offset=".375" stop-color="#ffe430"/><stop offset=".454" stop-color="#ffe328"/><stop offset=".599" stop-color="#ffe221"/><stop offset="1" stop-color="#ffe21f"/></radialGradient><linearGradient id="As4kNsPqFc_UMbfsqkRjta" x1="23.471" x2="23.471" y1="47" y2="15" gradientUnits="userSpaceOnUse"><stop offset=".097" stop-color="#c4a262"/><stop offset=".221" stop-color="#c7a767"/><stop offset=".374" stop-color="#d0b477"/><stop offset=".543" stop-color="#dfca90"/><stop offset=".722" stop-color="#f4e8b2"/><stop offset=".778" stop-color="#fcf3bf"/><stop offset=".871" stop-color="#fdf7be"/><stop offset=".938" stop-color="#ffb"/><stop offset="1" stop-color="#fdf4c0"/></linearGradient><linearGradient id="As4kNsPqFc_UMbfsqkRjtb" x1="23.472" x2="23.472" y1="47" y2="11.998" gradientUnits="userSpaceOnUse"><stop offset=".097" stop-color="#c4a262"/><stop offset=".243" stop-color="#c7a767"/><stop offset=".423" stop-color="#d0b477"/><stop offset=".622" stop-color="#e0ca90"/><stop offset=".832" stop-color="#f5e8b2"/><stop offset=".903" stop-color="#fdf4c0"/><stop offset=".994" stop-color="#fff8bc"/><stop offset="1" stop-color="#fff8bb"/></linearGradient><linearGradient id="As4kNsPqFc_UMbfsqkRjte" x1="23.5" x2="23.5" y1="16" y2="10" gradientUnits="userSpaceOnUse"><stop offset="0" stop-color="#ac8535"/><stop offset=".058" stop-color="#a78133"/><stop offset=".129" stop-color="#97752f"/><stop offset=".208" stop-color="#7e6228"/><stop offset=".292" stop-color="#5b481e"/><stop offset=".379" stop-color="#2f2611"/><stop offset=".433" stop-color="#0f0e08"/></linearGradient></defs><g data-name="candle"><path fill="url(#As4kNsPqFc_UMbfsqkRjta)" d="M33.3,25c0,4.26.7,19,.7,19,0,1.66-4.7,3-10.5,3S13,45.66,13,44c0,0-.13-4.9,0-8,.12-2.99.5-5.15.5-7,0-4-.5-13.67-.5-13.67a1.841,1.841,0,0,1,.03-.33H33.96a1.472,1.472,0,0,1,.04.36S33.3,21,33.3,25Z"/><path fill="url(#As4kNsPqFc_UMbfsqkRjtb)" d="M34,15.36S33.3,21,33.3,25c0,4.257.7,19,.7,19,0,1.66-4.7,3-10.5,3S13,45.66,13,44c0,0-.127-4.9,0-8,.123-2.993.5-5.153.5-7,0-4-.5-13.67-.5-13.67a1.993,1.993,0,0,1,1.24-1.85A19.808,19.808,0,0,1,19,12c2.76-.06,8,1,11,1a8.872,8.872,0,0,1,2.6.45A2,2,0,0,1,34,15.36Z"/><path fill="url(#As4kNsPqFc_UMbfsqkRjtc)" d="M33.3,25c0,4.26.7,19,.7,19,0,1.66-4.7,3-10.5,3S13,45.66,13,44c0,0-.13-4.9,0-8,.12-2.99.5-5.15.5-7,0-4-.5-13.67-.5-13.67a1.841,1.841,0,0,1,.03-.33H33.96a1.472,1.472,0,0,1,.04.36S33.3,21,33.3,25Z"/><path fill="url(#As4kNsPqFc_UMbfsqkRjtd)" d="M15.28,15.329c-.33-.129.211-.772.533-.925,2.715-1.284,3.58-1.4,3.78-1.4l.173,0a35.744,35.744,0,0,1,4.437.485A37.254,37.254,0,0,0,29.027,14c.574,0,2.141.063,1.958.9-.24,1.1-2.818,1.1-7.113,1.1C17.858,16,17,16,15.28,15.329Z"/><path fill="url(#As4kNsPqFc_UMbfsqkRjte)" d="M23.5,10a.546.546,0,0,0-.5.583V16h1V10.583A.546.546,0,0,0,23.5,10Z"/><path fill="url(#As4kNsPqFc_UMbfsqkRjtf)" d="M25,9.5c0,1.5-.672,2.5-1.5,2.5S22,11,22,9.5a40.376,40.376,0,0,1,.883-8.1c.185-.667.776-.618.888.093A77.979,77.979,0,0,1,25,9.5Z"/></g></svg>