<svg xmlns="http://www.w3.org/2000/svg" viewBox="0 0 48 48"><linearGradient id="VwN3MkGXJ~h16UwZU4uUCa" x1="22.423" x2="21.85" y1="36.651" y2="40.371" gradientUnits="userSpaceOnUse"><stop offset="0" stop-color="#932828"/><stop offset="1" stop-color="#e51e25"/></linearGradient><path fill="url(#VwN3MkGXJ~h16UwZU4uUCa)" d="M20.271,39.271l3.573,1.76l2.125-5.906L22.5,33.896C19.792,33,17.646,37.771,20.271,39.271z"/><linearGradient id="VwN3MkGXJ~h16UwZU4uUCb" x1="29.201" x2="22.317" y1="39.466" y2="37.241" gradientUnits="userSpaceOnUse"><stop offset="0" stop-color="#932828"/><stop offset="1" stop-color="#e51e25"/></linearGradient><path fill="url(#VwN3MkGXJ~h16UwZU4uUCb)" d="M26.726,38.732c-0.554,1.525-1.907,2.633-2.882,2.3c-1.188-0.406-1.366-2.193-0.813-3.719 s1.969-2.539,2.938-2.188S27.279,37.206,26.726,38.732z"/><linearGradient id="VwN3MkGXJ~h16UwZU4uUCc" x1="25.292" x2="25.292" y1="40.785" y2="37.508" gradientUnits="userSpaceOnUse"><stop offset="0" stop-color="#ff7448"/><stop offset="1" stop-color="#a92526"/></linearGradient><path fill="url(#VwN3MkGXJ~h16UwZU4uUCc)" d="M26.714,38.764c-0.449,1.237-1.45,2.009-2.235,1.724c-0.786-0.285-1.059-1.519-0.61-2.756 c0.449-1.237,1.45-2.009,2.235-1.724C26.89,36.293,27.163,37.527,26.714,38.764z"/><linearGradient id="VwN3MkGXJ~h16UwZU4uUCd" x1="24.897" x2="24.586" y1="36.053" y2="38.246" gradientUnits="userSpaceOnUse"><stop offset="0" stop-color="#e0e0e0"/><stop offset="1" stop-color="#999"/></linearGradient><path fill="url(#VwN3MkGXJ~h16UwZU4uUCd)" d="M25.294,38.172c-0.209,0.577-0.676,0.937-1.043,0.804c-0.367-0.133-0.494-0.709-0.285-1.286 c0.209-0.577,0.676-0.937,1.043-0.804C25.376,37.02,25.504,37.595,25.294,38.172z"/><linearGradient id="VwN3MkGXJ~h16UwZU4uUCe" x1="24.841" x2="24.693" y1="37.034" y2="38.082" gradientUnits="userSpaceOnUse"><stop offset="0" stop-color="#666"/><stop offset="1" stop-color="#333332"/></linearGradient><path fill="url(#VwN3MkGXJ~h16UwZU4uUCe)" d="M25.031,38.047c-0.1,0.276-0.323,0.448-0.498,0.384c-0.175-0.064-0.236-0.339-0.136-0.614 c0.1-0.276,0.323-0.448,0.498-0.384C25.07,37.496,25.131,37.771,25.031,38.047z"/><linearGradient id="VwN3MkGXJ~h16UwZU4uUCf" x1="38.485" x2="37.912" y1="22.963" y2="26.684" gradientUnits="userSpaceOnUse"><stop offset="0" stop-color="#932828"/><stop offset="1" stop-color="#e51e25"/></linearGradient><path fill="url(#VwN3MkGXJ~h16UwZU4uUCf)" d="M36.333,25.583l3.573,1.76l2.125-5.906l-3.469-1.229 C35.854,19.312,33.708,24.083,36.333,25.583z"/><linearGradient id="VwN3MkGXJ~h16UwZU4uUCg" x1="45.264" x2="38.379" y1="25.779" y2="23.553" gradientUnits="userSpaceOnUse"><stop offset="0" stop-color="#932828"/><stop offset="1" stop-color="#e51e25"/></linearGradient><path fill="url(#VwN3MkGXJ~h16UwZU4uUCg)" d="M42.788,25.044c-0.554,1.525-1.907,2.633-2.882,2.3c-1.188-0.406-1.366-2.193-0.813-3.719 s1.969-2.539,2.938-2.188S43.342,23.519,42.788,25.044z"/><linearGradient id="VwN3MkGXJ~h16UwZU4uUCh" x1="41.354" x2="41.354" y1="27.098" y2="23.82" gradientUnits="userSpaceOnUse"><stop offset="0" stop-color="#ff7448"/><stop offset="1" stop-color="#a92526"/></linearGradient><path fill="url(#VwN3MkGXJ~h16UwZU4uUCh)" d="M42.777,25.076c-0.449,1.237-1.45,2.009-2.235,1.724s-1.059-1.519-0.61-2.756 c0.449-1.237,1.45-2.009,2.235-1.724C42.953,22.606,43.226,23.839,42.777,25.076z"/><linearGradient id="VwN3MkGXJ~h16UwZU4uUCi" x1="40.959" x2="40.649" y1="22.365" y2="24.559" gradientUnits="userSpaceOnUse"><stop offset="0" stop-color="#e0e0e0"/><stop offset="1" stop-color="#999"/></linearGradient><path fill="url(#VwN3MkGXJ~h16UwZU4uUCi)" d="M41.357,24.485c-0.209,0.577-0.676,0.937-1.043,0.804s-0.494-0.709-0.285-1.286 c0.209-0.577,0.676-0.937,1.043-0.804C41.439,23.332,41.566,23.908,41.357,24.485z"/><linearGradient id="VwN3MkGXJ~h16UwZU4uUCj" x1="40.904" x2="40.755" y1="23.346" y2="24.395" gradientUnits="userSpaceOnUse"><stop offset="0" stop-color="#666"/><stop offset="1" stop-color="#333332"/></linearGradient><path fill="url(#VwN3MkGXJ~h16UwZU4uUCj)" d="M41.094,24.359c-0.1,0.276-0.323,0.448-0.498,0.384s-0.236-0.339-0.136-0.614 c0.1-0.276,0.323-0.448,0.498-0.384C41.133,23.808,41.194,24.083,41.094,24.359z"/><linearGradient id="VwN3MkGXJ~h16UwZU4uUCk" x1="30.792" x2="18.68" y1="7.187" y2="38.778" gradientUnits="userSpaceOnUse"><stop offset="0" stop-color="#dbc29c"/><stop offset="1" stop-color="#c69c6d"/></linearGradient><path fill="url(#VwN3MkGXJ~h16UwZU4uUCk)" d="M9.122,29.154c0,0-2.921,2.213-4.337,2.921s-3.12,3.308,0.797,6.462	c2.334,1.879,9.765,3.932,15.845-1.151c5.922-4.951,20.625-17.526,21.864-18.677c1.239-1.151,3.983-8.055-2.036-10.268	s-9.56,3.187-10.179,3.895S10.538,28.003,9.122,29.154z"/><linearGradient id="VwN3MkGXJ~h16UwZU4uUCl" x1="34.911" x2="20.414" y1="-3.064" y2="32.524" gradientUnits="userSpaceOnUse"><stop offset="0" stop-color="#666"/><stop offset="1" stop-color="#333332"/></linearGradient><path fill="url(#VwN3MkGXJ~h16UwZU4uUCl)" d="M8.923,28.279c0,0-2.921,2.213-4.337,2.921c-1.416,0.708-2.788,3.784,0.797,6.462	c2.4,1.793,9.765,3.932,15.845-1.151c5.922-4.951,20.625-17.526,21.864-18.677c1.239-1.151,3.983-8.055-2.036-10.268	s-9.56,3.187-10.179,3.895S10.339,27.129,8.923,28.279z"/><linearGradient id="VwN3MkGXJ~h16UwZU4uUCm" x1="14.474" x2="14.474" y1="29.857" y2="28.718" gradientUnits="userSpaceOnUse"><stop offset="0" stop-color="#3e3e3d"/><stop offset="1" stop-color="#999"/></linearGradient><ellipse cx="14.474" cy="29.253" fill="url(#VwN3MkGXJ~h16UwZU4uUCm)" rx=".583" ry=".377"/><linearGradient id="VwN3MkGXJ~h16UwZU4uUCn" x1="18.474" x2="18.474" y1="31.857" y2="30.718" gradientUnits="userSpaceOnUse"><stop offset="0" stop-color="#3e3e3d"/><stop offset="1" stop-color="#999"/></linearGradient><ellipse cx="18.474" cy="31.253" fill="url(#VwN3MkGXJ~h16UwZU4uUCn)" rx=".583" ry=".377"/><linearGradient id="VwN3MkGXJ~h16UwZU4uUCo" x1="17.474" x2="17.474" y1="27.857" y2="26.718" gradientUnits="userSpaceOnUse"><stop offset="0" stop-color="#3e3e3d"/><stop offset="1" stop-color="#999"/></linearGradient><ellipse cx="17.474" cy="27.253" fill="url(#VwN3MkGXJ~h16UwZU4uUCo)" rx=".583" ry=".377"/><linearGradient id="VwN3MkGXJ~h16UwZU4uUCp" x1="30.474" x2="30.474" y1="16.857" y2="15.719" gradientUnits="userSpaceOnUse"><stop offset="0" stop-color="#3e3e3d"/><stop offset="1" stop-color="#999"/></linearGradient><ellipse cx="30.474" cy="16.253" fill="url(#VwN3MkGXJ~h16UwZU4uUCp)" rx=".583" ry=".377"/><linearGradient id="VwN3MkGXJ~h16UwZU4uUCq" x1="33.474" x2="33.474" y1="14.857" y2="13.719" gradientUnits="userSpaceOnUse"><stop offset="0" stop-color="#3e3e3d"/><stop offset="1" stop-color="#999"/></linearGradient><ellipse cx="33.474" cy="14.253" fill="url(#VwN3MkGXJ~h16UwZU4uUCq)" rx=".583" ry=".377"/><linearGradient id="VwN3MkGXJ~h16UwZU4uUCr" x1="34.474" x2="34.474" y1="18.857" y2="17.718" gradientUnits="userSpaceOnUse"><stop offset="0" stop-color="#3e3e3d"/><stop offset="1" stop-color="#999"/></linearGradient><ellipse cx="34.474" cy="18.253" fill="url(#VwN3MkGXJ~h16UwZU4uUCr)" rx=".583" ry=".377"/><linearGradient id="VwN3MkGXJ~h16UwZU4uUCs" x1="37.474" x2="37.474" y1="16.857" y2="15.719" gradientUnits="userSpaceOnUse"><stop offset="0" stop-color="#3e3e3d"/><stop offset="1" stop-color="#999"/></linearGradient><ellipse cx="37.474" cy="16.253" fill="url(#VwN3MkGXJ~h16UwZU4uUCs)" rx=".583" ry=".377"/><linearGradient id="VwN3MkGXJ~h16UwZU4uUCt" x1="21.474" x2="21.474" y1="29.857" y2="28.718" gradientUnits="userSpaceOnUse"><stop offset="0" stop-color="#3e3e3d"/><stop offset="1" stop-color="#999"/></linearGradient><ellipse cx="21.474" cy="29.253" fill="url(#VwN3MkGXJ~h16UwZU4uUCt)" rx=".583" ry=".377"/></svg>