<svg xmlns="http://www.w3.org/2000/svg" viewBox="0 0 48 48"><polygon fill="#313434" points="2.958,39.813 1.313,43.438 6.688,43.438 7.083,40.625"/><radialGradient id="iUC5pfNxWNskprKUwAJUca" cx="354.56" cy="321.986" r="2" gradientTransform="matrix(-1 0 0 1 367.56 -313.986)" gradientUnits="userSpaceOnUse"><stop offset=".236" stop-color="#e6e6e6"/><stop offset="1" stop-color="#b3b3b3"/></radialGradient><circle cx="13" cy="8" r="2" fill="url(#iUC5pfNxWNskprKUwAJUca)"/><radialGradient id="iUC5pfNxWNskprKUwAJUcb" cx="333.59" cy="320.997" r="2.99" gradientTransform="matrix(-1 0 0 1 367.56 -313.986)" gradientUnits="userSpaceOnUse"><stop offset=".236" stop-color="#e6e6e6"/><stop offset="1" stop-color="#b3b3b3"/></radialGradient><circle cx="33.97" cy="7.01" r="2.99" fill="url(#iUC5pfNxWNskprKUwAJUcb)"/><radialGradient id="iUC5pfNxWNskprKUwAJUcc" cx="329.839" cy="321.639" r="2.652" gradientTransform="matrix(-1 0 0 1 367.56 -313.986)" gradientUnits="userSpaceOnUse"><stop offset=".236" stop-color="#e6e6e6"/><stop offset="1" stop-color="#b3b3b3"/></radialGradient><circle cx="37.72" cy="7.652" r="2.652" fill="url(#iUC5pfNxWNskprKUwAJUcc)"/><linearGradient id="iUC5pfNxWNskprKUwAJUcd" x1="24.516" x2="24.516" y1="42.5" y2="38.25" gradientUnits="userSpaceOnUse"><stop offset="0" stop-color="#343838"/><stop offset=".331" stop-color="#2e3231"/><stop offset=".813" stop-color="#1f201d"/><stop offset=".999" stop-color="#171714"/></linearGradient><polygon fill="url(#iUC5pfNxWNskprKUwAJUcd)" points="4.781,36 2.031,42 46,42 46,38.571 47,38.571 47,36"/><linearGradient id="iUC5pfNxWNskprKUwAJUce" x1="19.5" x2="19.5" y1="24.25" y2="34.003" gradientUnits="userSpaceOnUse"><stop offset="0" stop-color="#495152"/><stop offset=".235" stop-color="#5c676b"/><stop offset="1" stop-color="#171612"/></linearGradient><rect width="27" height="12" x="6" y="24" fill="url(#iUC5pfNxWNskprKUwAJUce)"/><linearGradient id="iUC5pfNxWNskprKUwAJUcf" x1="6.281" x2="6.281" y1="26.5" y2="31.753" gradientUnits="userSpaceOnUse"><stop offset="0" stop-color="#ccc"/><stop offset="1" stop-color="#5b6468"/></linearGradient><rect width=".563" height="12" x="6" y="24" fill="url(#iUC5pfNxWNskprKUwAJUcf)"/><linearGradient id="iUC5pfNxWNskprKUwAJUcg" x1="7.324" x2="7.632" y1="23.968" y2="33.654" gradientUnits="userSpaceOnUse"><stop offset="0" stop-color="#ccc"/><stop offset="1" stop-color="#5b6468"/></linearGradient><path fill="url(#iUC5pfNxWNskprKUwAJUcg)" d="M7,25.5C7,25.224,7.224,25,7.5,25S8,25.224,8,25.5C8,25.776,7.776,26,7.5,26S7,25.776,7,25.5z M7.5,27C7.224,27,7,27.224,7,27.5C7,27.776,7.224,28,7.5,28S8,27.776,8,27.5C8,27.224,7.776,27,7.5,27z M7.5,29	C7.224,29,7,29.224,7,29.5C7,29.776,7.224,30,7.5,30S8,29.776,8,29.5C8,29.224,7.776,29,7.5,29z M7.5,31C7.224,31,7,31.224,7,31.5	C7,31.776,7.224,32,7.5,32S8,31.776,8,31.5C8,31.224,7.776,31,7.5,31z M7.5,33C7.224,33,7,33.224,7,33.5C7,33.776,7.224,34,7.5,34	S8,33.776,8,33.5C8,33.224,7.776,33,7.5,33z"/><linearGradient id="iUC5pfNxWNskprKUwAJUch" x1="28.5" x2="28.5" y1="24.25" y2="34.003" gradientUnits="userSpaceOnUse"><stop offset="0" stop-color="#3f826e"/><stop offset=".24" stop-color="#46916a"/><stop offset="1" stop-color="#074127"/></linearGradient><rect width="27" height="12" x="15" y="24" fill="url(#iUC5pfNxWNskprKUwAJUch)"/><linearGradient id="iUC5pfNxWNskprKUwAJUci" x1="15.5" x2="15.5" y1="20.552" y2="33.669" gradientUnits="userSpaceOnUse"><stop offset=".129" stop-color="#d2a822"/><stop offset=".185" stop-color="#d5ae2a"/><stop offset=".27" stop-color="#debe3f"/><stop offset=".374" stop-color="#edd962"/><stop offset=".463" stop-color="#fcf485"/><stop offset=".541" stop-color="#e0d26a"/><stop offset=".67" stop-color="#b89f43"/><stop offset=".782" stop-color="#9b7b26"/><stop offset=".873" stop-color="#896414"/><stop offset=".93" stop-color="#825c0e"/></linearGradient><rect width="1" height="11" x="15" y="24" fill="url(#iUC5pfNxWNskprKUwAJUci)"/><linearGradient id="iUC5pfNxWNskprKUwAJUcj" x1="25.5" x2="25.5" y1="20.552" y2="33.669" gradientUnits="userSpaceOnUse"><stop offset=".129" stop-color="#d2a822"/><stop offset=".182" stop-color="#d5ae2a"/><stop offset=".262" stop-color="#debe3f"/><stop offset=".36" stop-color="#edd962"/><stop offset=".444" stop-color="#fcf485"/><stop offset=".526" stop-color="#e0d26a"/><stop offset=".659" stop-color="#b89f43"/><stop offset=".776" stop-color="#9b7b26"/><stop offset=".87" stop-color="#896414"/><stop offset=".93" stop-color="#825c0e"/></linearGradient><rect width="1" height="11" x="25" y="24" fill="url(#iUC5pfNxWNskprKUwAJUcj)"/><linearGradient id="iUC5pfNxWNskprKUwAJUck" x1="19.5" x2="19.5" y1="30.125" y2="35.002" gradientUnits="userSpaceOnUse"><stop offset=".278" stop-color="#074127" stop-opacity="0"/><stop offset=".893" stop-color="#071727" stop-opacity=".7"/></linearGradient><rect width="27" height="6" x="6" y="30" fill="url(#iUC5pfNxWNskprKUwAJUck)"/><linearGradient id="iUC5pfNxWNskprKUwAJUcl" x1="36" x2="36" y1="20.601" y2="36.396" gradientUnits="userSpaceOnUse"><stop offset="0" stop-color="#3f826e"/><stop offset="1" stop-color="#074127"/></linearGradient><polygon fill="url(#iUC5pfNxWNskprKUwAJUcl)" points="45,36 31,36 27,17 45,17"/><linearGradient id="iUC5pfNxWNskprKUwAJUcm" x1="8.625" x2="19.188" y1="23.5" y2="23.5" gradientUnits="userSpaceOnUse"><stop offset="0" stop-color="#90a4ae"/><stop offset="1" stop-color="#171612"/></linearGradient><path fill="url(#iUC5pfNxWNskprKUwAJUcm)" d="M15,24H8v0c0-0.552,0.448-1,1-1h5C14.552,23,15,23.448,15,24L15,24z"/><linearGradient id="iUC5pfNxWNskprKUwAJUcn" x1="20.5" x2="20.5" y1="21.083" y2="24.708" gradientUnits="userSpaceOnUse"><stop offset="0" stop-color="#45906a"/><stop offset="1" stop-color="#074127"/></linearGradient><path fill="url(#iUC5pfNxWNskprKUwAJUcn)" d="M23,24h-5v-1.5c0-0.828,0.672-1.5,1.5-1.5h2c0.828,0,1.5,0.672,1.5,1.5V24z"/><linearGradient id="iUC5pfNxWNskprKUwAJUco" x1="3.333" x2="15" y1="19" y2="19" gradientUnits="userSpaceOnUse"><stop offset="0" stop-color="#90a4ae"/><stop offset="1" stop-color="#171612"/></linearGradient><polygon fill="url(#iUC5pfNxWNskprKUwAJUco)" points="14,23 9,23 7,15 16,15"/><linearGradient id="iUC5pfNxWNskprKUwAJUcp" x1="4.75" x2="13.75" y1="13.5" y2="13.5" gradientUnits="userSpaceOnUse"><stop offset="0" stop-color="#90a4ae"/><stop offset="1" stop-color="#171612"/></linearGradient><rect width="9" height="3" x="7" y="12" fill="url(#iUC5pfNxWNskprKUwAJUcp)"/><linearGradient id="iUC5pfNxWNskprKUwAJUcq" x1="37" x2="37" y1="14.083" y2="16.292" gradientUnits="userSpaceOnUse"><stop offset="0" stop-color="#f08084"/><stop offset="1" stop-color="#cf1c24"/></linearGradient><path fill="url(#iUC5pfNxWNskprKUwAJUcq)" d="M48,14H26v2.016C26,16.559,26.441,17,26.984,17h20.031C47.559,17,48,16.559,48,16.016V14z"/><linearGradient id="iUC5pfNxWNskprKUwAJUcr" x1="26.001" x2="30.876" y1="37.214" y2="43.185" gradientUnits="userSpaceOnUse"><stop offset="0" stop-color="#90a4ae"/><stop offset="1" stop-color="#333332"/></linearGradient><path fill="url(#iUC5pfNxWNskprKUwAJUcr)" d="M29.5,37c-2.485,0-4.5,2.015-4.5,4.5s2.015,4.5,4.5,4.5s4.5-2.015,4.5-4.5S31.985,37,29.5,37	z M32.95,41h-2.242l1.587-1.587C32.636,39.869,32.864,40.409,32.95,41z M30,40.293V38.05c0.591,0.085,1.131,0.313,1.587,0.655	L30,40.293z M29,40.293l-1.587-1.587c0.457-0.342,0.997-0.57,1.587-0.655V40.293z M26.706,39.413L28.293,41H26.05	C26.136,40.409,26.364,39.869,26.706,39.413z M26.05,42h2.242l-1.587,1.587C26.364,43.131,26.136,42.591,26.05,42z M29,42.707v2.242	c-0.591-0.085-1.131-0.313-1.587-0.655L29,42.707z M30,42.707l1.587,1.587c-0.457,0.342-0.997,0.57-1.587,0.655V42.707z M32.295,43.587L30.707,42h2.242C32.864,42.591,32.636,43.131,32.295,43.587z"/><linearGradient id="iUC5pfNxWNskprKUwAJUcs" x1="28.042" x2="34.765" y1="40.202" y2="46.186" gradientUnits="userSpaceOnUse"><stop offset="0" stop-color="#999"/><stop offset="1" stop-color="#333332"/></linearGradient><path fill="url(#iUC5pfNxWNskprKUwAJUcs)" d="M29.5,37c-2.485,0-4.5,2.015-4.5,4.5s2.015,4.5,4.5,4.5s4.5-2.015,4.5-4.5S31.985,37,29.5,37	z M29.5,45c-1.933,0-3.5-1.567-3.5-3.5s1.567-3.5,3.5-3.5s3.5,1.567,3.5,3.5S31.433,45,29.5,45z"/><linearGradient id="iUC5pfNxWNskprKUwAJUct" x1="3.317" x2="8.073" y1="28.861" y2="30.881" gradientUnits="userSpaceOnUse"><stop offset="0" stop-color="#90a4ae"/><stop offset="1" stop-color="#171612"/></linearGradient><path fill="url(#iUC5pfNxWNskprKUwAJUct)" d="M6,24.049C4.775,25.514,4,27.634,4,30s0.775,4.486,2,5.951V24.049z"/><rect width="43" height="1" x="4" y="35" fill="#474747"/><rect width="43" height=".542" x="4" y="35" fill="#616b70"/><linearGradient id="iUC5pfNxWNskprKUwAJUcu" x1="28.732" x2="30.357" y1="40.559" y2="42.55" gradientUnits="userSpaceOnUse"><stop offset="0" stop-color="#90a4ae"/><stop offset="1" stop-color="#333332"/></linearGradient><circle cx="29.5" cy="41.5" r="1.5" fill="url(#iUC5pfNxWNskprKUwAJUcu)"/><linearGradient id="iUC5pfNxWNskprKUwAJUcv" x1="36.001" x2="40.876" y1="37.214" y2="43.185" gradientUnits="userSpaceOnUse"><stop offset="0" stop-color="#90a4ae"/><stop offset="1" stop-color="#333332"/></linearGradient><path fill="url(#iUC5pfNxWNskprKUwAJUcv)" d="M39.5,37c-2.485,0-4.5,2.015-4.5,4.5s2.015,4.5,4.5,4.5s4.5-2.015,4.5-4.5S41.985,37,39.5,37	z M42.95,41h-2.242l1.587-1.587C42.636,39.869,42.864,40.409,42.95,41z M40,40.293V38.05c0.591,0.085,1.131,0.313,1.587,0.655	L40,40.293z M39,40.293l-1.587-1.587c0.457-0.342,0.997-0.57,1.587-0.655V40.293z M36.706,39.413L38.293,41H36.05	C36.136,40.409,36.364,39.869,36.706,39.413z M36.05,42h2.242l-1.587,1.587C36.364,43.131,36.136,42.591,36.05,42z M39,42.707v2.242	c-0.591-0.085-1.131-0.313-1.587-0.655L39,42.707z M40,42.707l1.587,1.587c-0.457,0.342-0.997,0.57-1.587,0.655V42.707z M42.295,43.587L40.707,42h2.242C42.864,42.591,42.636,43.131,42.295,43.587z"/><linearGradient id="iUC5pfNxWNskprKUwAJUcw" x1="38.042" x2="44.765" y1="40.202" y2="46.186" gradientUnits="userSpaceOnUse"><stop offset="0" stop-color="#999"/><stop offset="1" stop-color="#333332"/></linearGradient><path fill="url(#iUC5pfNxWNskprKUwAJUcw)" d="M39.5,37c-2.485,0-4.5,2.015-4.5,4.5s2.015,4.5,4.5,4.5s4.5-2.015,4.5-4.5S41.985,37,39.5,37	z M39.5,45c-1.933,0-3.5-1.567-3.5-3.5s1.567-3.5,3.5-3.5s3.5,1.567,3.5,3.5S41.433,45,39.5,45z"/><linearGradient id="iUC5pfNxWNskprKUwAJUcx" x1="38.732" x2="40.357" y1="40.559" y2="42.55" gradientUnits="userSpaceOnUse"><stop offset="0" stop-color="#90a4ae"/><stop offset="1" stop-color="#333332"/></linearGradient><circle cx="39.5" cy="41.5" r="1.5" fill="url(#iUC5pfNxWNskprKUwAJUcx)"/><path fill="#cbcbcb" d="M42.661,43.189l-25.854-4.597c-0.34-0.06-0.567-0.385-0.506-0.725l0,0	c0.06-0.34,0.385-0.567,0.725-0.506l25.854,4.597c0.34,0.06,0.567,0.385,0.506,0.725l0,0C43.326,43.023,43.001,43.249,42.661,43.189	z"/><path fill="#323231" d="M18.655,38.246c-0.326-0.058-0.541-0.361-0.505-0.685l-1.123-0.2c-0.34-0.06-0.665,0.166-0.725,0.506	c-0.06,0.34,0.166,0.665,0.506,0.725l25.854,4.597c0.34,0.06,0.665-0.166,0.725-0.506c0.002-0.014-0.002-0.026-0.001-0.04	L18.655,38.246z"/><path fill="#3b7d6a" d="M40.766,25.745h-7.533c-0.992,0-1.796-0.804-1.796-1.796v-2.897c0-0.992,0.804-1.796,1.796-1.796	h7.533c0.992,0,1.796,0.804,1.796,1.796v2.897C42.563,24.941,41.758,25.745,40.766,25.745z"/><linearGradient id="iUC5pfNxWNskprKUwAJUcy" x1="37.009" x2="36.995" y1="24.503" y2="21.492" gradientUnits="userSpaceOnUse"><stop offset="0" stop-color="#343838"/><stop offset=".331" stop-color="#2e3231"/><stop offset=".813" stop-color="#1f201d"/><stop offset=".999" stop-color="#171714"/></linearGradient><path fill="url(#iUC5pfNxWNskprKUwAJUcy)" d="M40.781,25h-7.563C32.546,25,32,24.454,32,23.781v-2.563C32,20.546,32.546,20,33.219,20	h7.563C41.454,20,42,20.546,42,21.219v2.563C42,24.454,41.454,25,40.781,25z"/><path fill="#989898" d="M19.5,39c-1.933,0-3.5,1.567-3.5,3.5s1.567,3.5,3.5,3.5s3.5-1.567,3.5-3.5S21.433,39,19.5,39z M19.5,45c-1.381,0-2.5-1.119-2.5-2.5c0-1.381,1.119-2.5,2.5-2.5s2.5,1.119,2.5,2.5C22,43.881,20.881,45,19.5,45z"/><rect width="1" height="5" x="19" y="40" fill="#616b70"/><rect width="1" height="5" x="19" y="40" fill="#616b70" transform="rotate(-121.48 19.5 42.5)"/><rect width="1" height="5" x="19" y="40" fill="#616b70" transform="rotate(-58.378 19.501 42.502)"/><circle cx="19.5" cy="42.5" r="1.5" fill="#616b70"/><path fill="#989898" d="M11.5,39C9.567,39,8,40.567,8,42.5S9.567,46,11.5,46s3.5-1.567,3.5-3.5S13.433,39,11.5,39z M11.5,45	C10.119,45,9,43.881,9,42.5c0-1.381,1.119-2.5,2.5-2.5s2.5,1.119,2.5,2.5C14,43.881,12.881,45,11.5,45z"/><rect width="1" height="5" x="11" y="40" fill="#616b70"/><rect width="1" height="5" x="11" y="40" fill="#616b70" transform="rotate(-121.48 11.5 42.5)"/><rect width="1" height="5" x="11" y="40" fill="#616b70" transform="rotate(-58.378 11.501 42.502)"/><circle cx="11.5" cy="42.5" r="1.5" fill="#616b70"/><circle cx="11.5" cy="42.5" r=".5" fill="#191919"/><linearGradient id="iUC5pfNxWNskprKUwAJUcz" x1="4.5" x2="4.5" y1="36.375" y2="43.375" gradientUnits="userSpaceOnUse"><stop offset="0" stop-color="#ed363c"/><stop offset="1" stop-color="#ac1c24"/></linearGradient><path fill="url(#iUC5pfNxWNskprKUwAJUcz)" d="M4,36v0.889l-2.982,6.222H1V44h5h1l1-7.111V36H4z M5,36.889h0.375l-1.844,6.222H2.018	L5,36.889z M6.125,43.111H4.531l1.844-6.222H7L6.125,43.111z"/><linearGradient id="iUC5pfNxWNskprKUwAJUcA" x1="36" x2="36" y1="21.066" y2="16.066" gradientUnits="userSpaceOnUse"><stop offset=".353" stop-color="#074127" stop-opacity="0"/><stop offset=".893" stop-color="#071727" stop-opacity=".7"/></linearGradient><polygon fill="url(#iUC5pfNxWNskprKUwAJUcA)" points="45,22 45,17 27,17 28.246,22"/><linearGradient id="iUC5pfNxWNskprKUwAJUcB" x1="26.183" x2="41.094" y1="32.5" y2="32.5" gradientUnits="userSpaceOnUse"><stop offset=".129" stop-color="#d2a822"/><stop offset=".222" stop-color="#c59c1f"/><stop offset=".526" stop-color="#a17916"/><stop offset=".774" stop-color="#8a6410"/><stop offset=".93" stop-color="#825c0e"/></linearGradient><polygon fill="url(#iUC5pfNxWNskprKUwAJUcB)" points="45,33 30.318,33 30.088,32 45,32"/><path fill="#3b7d6a" d="M38.125,30.25h-1.25c-1.172,0-2.125-0.953-2.125-2.125V25h0.5v3.125	c0,0.896,0.729,1.625,1.625,1.625h1.25c0.896,0,1.625-0.729,1.625-1.625V25h0.5v3.125C40.25,29.297,39.297,30.25,38.125,30.25z" opacity=".5"/><linearGradient id="iUC5pfNxWNskprKUwAJUcC" x1="9.458" x2="13.063" y1="14.5" y2="14.5" gradientUnits="userSpaceOnUse"><stop offset="0" stop-color="#ef7378"/><stop offset="1" stop-color="#ed1c24"/></linearGradient><rect width="9" height="1" x="7" y="14" fill="url(#iUC5pfNxWNskprKUwAJUcC)"/><radialGradient id="iUC5pfNxWNskprKUwAJUcD" cx="348.435" cy="318.255" r="2.179" gradientTransform="matrix(-1 0 0 1 367.56 -313.986)" gradientUnits="userSpaceOnUse"><stop offset=".236" stop-color="#e6e6e6"/><stop offset="1" stop-color="#b3b3b3"/></radialGradient><circle cx="19.124" cy="4.268" r="2.179" fill="url(#iUC5pfNxWNskprKUwAJUcD)"/><radialGradient id="iUC5pfNxWNskprKUwAJUcE" cx="357.132" cy="321.558" r="1.428" gradientTransform="matrix(-1 0 0 1 367.56 -313.986)" gradientUnits="userSpaceOnUse"><stop offset=".236" stop-color="#e6e6e6"/><stop offset="1" stop-color="#b3b3b3"/></radialGradient><circle cx="10.428" cy="7.572" r="1.428" fill="url(#iUC5pfNxWNskprKUwAJUcE)"/><radialGradient id="iUC5pfNxWNskprKUwAJUcF" cx="354.56" cy="320.433" r="2" gradientTransform="matrix(-1 0 0 1 367.56 -313.986)" gradientUnits="userSpaceOnUse"><stop offset=".236" stop-color="#e6e6e6"/><stop offset="1" stop-color="#b3b3b3"/></radialGradient><circle cx="13" cy="6.447" r="2" fill="url(#iUC5pfNxWNskprKUwAJUcF)"/><radialGradient id="iUC5pfNxWNskprKUwAJUcG" cx="352.408" cy="322.282" r="1.152" gradientTransform="matrix(-1 0 0 1 367.56 -313.986)" gradientUnits="userSpaceOnUse"><stop offset=".236" stop-color="#e6e6e6"/><stop offset="1" stop-color="#b3b3b3"/></radialGradient><circle cx="15.152" cy="8.296" r="1.152" fill="url(#iUC5pfNxWNskprKUwAJUcG)"/><radialGradient id="iUC5pfNxWNskprKUwAJUcH" cx="343.435" cy="316.255" r="2.179" gradientTransform="matrix(-1 0 0 1 367.56 -313.986)" gradientUnits="userSpaceOnUse"><stop offset=".236" stop-color="#e6e6e6"/><stop offset="1" stop-color="#b3b3b3"/></radialGradient><circle cx="24.124" cy="2.268" r="2.179" fill="url(#iUC5pfNxWNskprKUwAJUcH)"/><radialGradient id="iUC5pfNxWNskprKUwAJUcI" cx="345.712" cy="319.531" r="2.455" gradientTransform="matrix(-1 0 0 1 367.56 -313.986)" gradientUnits="userSpaceOnUse"><stop offset=".236" stop-color="#e6e6e6"/><stop offset="1" stop-color="#b3b3b3"/></radialGradient><circle cx="21.848" cy="5.545" r="2.455" fill="url(#iUC5pfNxWNskprKUwAJUcI)"/><radialGradient id="iUC5pfNxWNskprKUwAJUcJ" cx="342.435" cy="319.255" r="2.179" gradientTransform="matrix(-1 0 0 1 367.56 -313.986)" gradientUnits="userSpaceOnUse"><stop offset=".236" stop-color="#e6e6e6"/><stop offset="1" stop-color="#b3b3b3"/></radialGradient><circle cx="25.124" cy="5.268" r="2.179" fill="url(#iUC5pfNxWNskprKUwAJUcJ)"/><radialGradient id="iUC5pfNxWNskprKUwAJUcK" cx="346.087" cy="316.603" r="1.527" gradientTransform="matrix(-1 0 0 1 367.56 -313.986)" gradientUnits="userSpaceOnUse"><stop offset=".236" stop-color="#e6e6e6"/><stop offset="1" stop-color="#b3b3b3"/></radialGradient><circle cx="21.473" cy="2.617" r="1.527" fill="url(#iUC5pfNxWNskprKUwAJUcK)"/><radialGradient id="iUC5pfNxWNskprKUwAJUcL" cx="323.057" cy="275.434" r="2.131" gradientTransform="matrix(-1.2174 0 0 1.1645 416.759 -317.22)" gradientUnits="userSpaceOnUse"><stop offset=".425" stop-color="#e6e6e6"/><stop offset="1" stop-color="#e6e6e6" stop-opacity="0"/></radialGradient><ellipse cx="23.469" cy="3.522" fill="url(#iUC5pfNxWNskprKUwAJUcL)" rx="2.594" ry="2.482"/><radialGradient id="iUC5pfNxWNskprKUwAJUcM" cx="324.871" cy="276.329" r="2.131" gradientTransform="matrix(-1.2174 0 0 1.1645 416.759 -317.22)" gradientUnits="userSpaceOnUse"><stop offset=".425" stop-color="#e6e6e6"/><stop offset="1" stop-color="#e6e6e6" stop-opacity="0"/></radialGradient><ellipse cx="21.261" cy="4.564" fill="url(#iUC5pfNxWNskprKUwAJUcM)" rx="2.594" ry="2.482"/><radialGradient id="iUC5pfNxWNskprKUwAJUcN" cx="333.04" cy="278.883" r="1.184" gradientTransform="matrix(-1.2174 0 0 1.1645 416.759 -317.22)" gradientUnits="userSpaceOnUse"><stop offset=".425" stop-color="#e6e6e6"/><stop offset="1" stop-color="#e6e6e6" stop-opacity="0"/></radialGradient><ellipse cx="11.316" cy="7.538" fill="url(#iUC5pfNxWNskprKUwAJUcN)" rx="1.441" ry="1.379"/><radialGradient id="iUC5pfNxWNskprKUwAJUcO" cx="331.708" cy="278.394" r="1.626" gradientTransform="matrix(-1.2174 0 0 1.1645 416.759 -317.22)" gradientUnits="userSpaceOnUse"><stop offset=".425" stop-color="#e6e6e6"/><stop offset="1" stop-color="#e6e6e6" stop-opacity="0"/></radialGradient><ellipse cx="12.938" cy="6.969" fill="url(#iUC5pfNxWNskprKUwAJUcO)" rx="1.979" ry="1.893"/><radialGradient id="iUC5pfNxWNskprKUwAJUcP" cx="335.907" cy="319.442" r="2.653" gradientTransform="matrix(-1 0 0 1 367.56 -313.986)" gradientUnits="userSpaceOnUse"><stop offset=".236" stop-color="#e6e6e6"/><stop offset="1" stop-color="#b3b3b3"/></radialGradient><circle cx="31.653" cy="5.456" r="2.653" fill="url(#iUC5pfNxWNskprKUwAJUcP)"/><radialGradient id="iUC5pfNxWNskprKUwAJUcQ" cx="329.818" cy="317.007" r="2.653" gradientTransform="matrix(-1 0 0 1 367.56 -313.986)" gradientUnits="userSpaceOnUse"><stop offset=".236" stop-color="#e6e6e6"/><stop offset="1" stop-color="#b3b3b3"/></radialGradient><circle cx="37.742" cy="3.021" r="2.653" fill="url(#iUC5pfNxWNskprKUwAJUcQ)"/><radialGradient id="iUC5pfNxWNskprKUwAJUcR" cx="327.601" cy="319.66" r="2.653" gradientTransform="matrix(-1 0 0 1 367.56 -313.986)" gradientUnits="userSpaceOnUse"><stop offset=".236" stop-color="#e6e6e6"/><stop offset="1" stop-color="#b3b3b3"/></radialGradient><circle cx="39.959" cy="5.674" r="2.653" fill="url(#iUC5pfNxWNskprKUwAJUcR)"/><radialGradient id="iUC5pfNxWNskprKUwAJUcS" cx="333.373" cy="317.105" r="2.186" gradientTransform="matrix(-1 0 0 1 367.56 -313.986)" gradientUnits="userSpaceOnUse"><stop offset=".236" stop-color="#e6e6e6"/><stop offset="1" stop-color="#b3b3b3"/></radialGradient><circle cx="34.186" cy="3.118" r="2.186" fill="url(#iUC5pfNxWNskprKUwAJUcS)"/><radialGradient id="iUC5pfNxWNskprKUwAJUcT" cx="311.988" cy="276.314" r="2.595" gradientTransform="matrix(-1.2174 0 0 1.1645 416.759 -317.22)" gradientUnits="userSpaceOnUse"><stop offset=".425" stop-color="#e6e6e6"/><stop offset="1" stop-color="#e6e6e6" stop-opacity="0"/></radialGradient><ellipse cx="36.944" cy="4.547" fill="url(#iUC5pfNxWNskprKUwAJUcT)" rx="3.159" ry="3.022"/><radialGradient id="iUC5pfNxWNskprKUwAJUcU" cx="311.734" cy="278.286" r="1.851" gradientTransform="matrix(-1.2174 0 0 1.1645 416.759 -317.22)" gradientUnits="userSpaceOnUse"><stop offset=".425" stop-color="#e6e6e6"/><stop offset="1" stop-color="#e6e6e6" stop-opacity="0"/></radialGradient><ellipse cx="37.254" cy="6.844" fill="url(#iUC5pfNxWNskprKUwAJUcU)" rx="2.254" ry="2.156"/><radialGradient id="iUC5pfNxWNskprKUwAJUcV" cx="314.198" cy="278.286" r="1.851" gradientTransform="matrix(-1.2174 0 0 1.1645 416.759 -317.22)" gradientUnits="userSpaceOnUse"><stop offset=".425" stop-color="#e6e6e6"/><stop offset="1" stop-color="#e6e6e6" stop-opacity="0"/></radialGradient><ellipse cx="34.254" cy="6.844" fill="url(#iUC5pfNxWNskprKUwAJUcV)" rx="2.254" ry="2.156"/><radialGradient id="iUC5pfNxWNskprKUwAJUcW" cx="314.197" cy="277.404" r="2.595" gradientTransform="matrix(-1.2174 0 0 1.1645 416.759 -317.22)" gradientUnits="userSpaceOnUse"><stop offset=".425" stop-color="#e6e6e6"/><stop offset="1" stop-color="#e6e6e6" stop-opacity="0"/></radialGradient><ellipse cx="34.255" cy="5.816" fill="url(#iUC5pfNxWNskprKUwAJUcW)" rx="3.159" ry="3.022"/><radialGradient id="iUC5pfNxWNskprKUwAJUcX" cx="332.047" cy="279.062" r="1.184" gradientTransform="matrix(-1.2174 0 0 1.1645 416.759 -317.22)" gradientUnits="userSpaceOnUse"><stop offset=".425" stop-color="#e6e6e6"/><stop offset="1" stop-color="#e6e6e6" stop-opacity="0"/></radialGradient><ellipse cx="12.525" cy="7.746" fill="url(#iUC5pfNxWNskprKUwAJUcX)" rx="1.441" ry="1.379"/><radialGradient id="iUC5pfNxWNskprKUwAJUcY" cx="331.123" cy="279.312" r="1.184" gradientTransform="matrix(-1.2174 0 0 1.1645 416.759 -317.22)" gradientUnits="userSpaceOnUse"><stop offset=".425" stop-color="#e6e6e6"/><stop offset="1" stop-color="#e6e6e6" stop-opacity="0"/></radialGradient><ellipse cx="13.65" cy="8.038" fill="url(#iUC5pfNxWNskprKUwAJUcY)" rx="1.441" ry="1.379"/><linearGradient id="iUC5pfNxWNskprKUwAJUcZ" x1="20" x2="20" y1="36.261" y2="41.404" gradientUnits="userSpaceOnUse"><stop offset="0" stop-color="#3f826e"/><stop offset="1" stop-color="#074127"/></linearGradient><rect width="8" height="6" x="16" y="37" fill="url(#iUC5pfNxWNskprKUwAJUcZ)"/><linearGradient id="iUC5pfNxWNskprKUwAJUcaa" x1="16.297" x2="16.297" y1="38" y2="43.184" gradientUnits="userSpaceOnUse"><stop offset="0" stop-color="#3f826e"/><stop offset="1" stop-color="#074127"/></linearGradient><rect width=".594" height="6" x="16" y="37" fill="url(#iUC5pfNxWNskprKUwAJUcaa)"/><linearGradient id="iUC5pfNxWNskprKUwAJUcab" x1="23.703" x2="23.703" y1="38" y2="43.184" gradientUnits="userSpaceOnUse"><stop offset="0" stop-color="#3f826e"/><stop offset="1" stop-color="#074127"/></linearGradient><rect width=".594" height="6" x="23.406" y="37" fill="url(#iUC5pfNxWNskprKUwAJUcab)"/><linearGradient id="iUC5pfNxWNskprKUwAJUcac" x1="20" x2="20" y1="59.694" y2="54.93" gradientTransform="rotate(180 20 50)" gradientUnits="userSpaceOnUse"><stop offset=".353" stop-opacity="0"/><stop offset=".893" stop-opacity=".7"/></linearGradient><polygon fill="url(#iUC5pfNxWNskprKUwAJUcac)" points="24,39.688 16,39.688 16,43 24,43"/></svg>