<svg xmlns="http://www.w3.org/2000/svg" viewBox="0 0 48 48"><linearGradient id="GaRSAxHYHnY8RrTcadh37a" x1="9.624" x2="51.624" y1="-24.048" y2="-24.048" gradientTransform="rotate(-45.001 87.928 23.001)" gradientUnits="userSpaceOnUse"><stop offset="0" stop-color="#87909b"/><stop offset=".291" stop-color="#a7adb7"/><stop offset="1" stop-color="#e8eaee"/></linearGradient><path fill="url(#GaRSAxHYHnY8RrTcadh37a)" d="M11.665,29.192l16.263-14.849l2.828,2.828L1.059,46.87	C3.009,40.877,6.008,34.849,11.665,29.192z"/><linearGradient id="GaRSAxHYHnY8RrTcadh37b" x1="30.549" x2="32.366" y1="-22.136" y2="-7.903" gradientTransform="rotate(-45.001 87.928 23.001)" gradientUnits="userSpaceOnUse"><stop offset="0" stop-color="#87909b"/><stop offset=".291" stop-color="#a7adb7"/><stop offset="1" stop-color="#e8eaee"/></linearGradient><path fill="url(#GaRSAxHYHnY8RrTcadh37b)" d="M18.736,36.263l14.849-16.263l-2.828-2.828L1.059,46.87	C7.051,44.919,13.079,41.92,18.736,36.263z"/><path fill="#979ea9" d="M18.736,36.263C13.079,41.92,7.051,44.919,1.059,46.87l0.729-0.729	c5.618-1.957,11.245-4.911,16.546-10.212l14.849-16.263l-2.46-2.46l0.034-0.034l2.828,2.828L18.736,36.263z"/><path fill="#dfe1e6" d="M11.665,29.192C6.008,34.849,3.009,40.877,1.059,46.87l0.729-0.729	C3.745,40.522,6.699,34.895,12,29.594l16.263-14.849l2.46,2.46l0.034-0.034l-2.828-2.828L11.665,29.192z"/><linearGradient id="GaRSAxHYHnY8RrTcadh37c" x1="60.124" x2="60.124" y1="-23.355" y2="-19.575" gradientTransform="rotate(-45.001 87.928 23.001)" gradientUnits="userSpaceOnUse"><stop offset="0" stop-color="#9e644b"/><stop offset=".276" stop-color="#c17f5d"/><stop offset="1" stop-color="#592e24"/></linearGradient><path fill="url(#GaRSAxHYHnY8RrTcadh37c)" d="M42.66,7.861c-2.553,3.562-5.395,6.849-8.523,9.862l-4.018-4.018	c3.233-3.05,6.519-5.896,9.862-8.523L42.66,7.861z"/><linearGradient id="GaRSAxHYHnY8RrTcadh37d" x1="59.369" x2="62.886" y1="-22.259" y2="-25.284" gradientTransform="rotate(-45.001 87.928 23.001)" gradientUnits="userSpaceOnUse"><stop offset=".241" stop-color="#56322a"/><stop offset=".961" stop-color="#6d3f31" stop-opacity="0"/></linearGradient><path fill="url(#GaRSAxHYHnY8RrTcadh37d)" d="M38.355,6.589c-2.954,2.373-5.865,4.908-8.732,7.613l4.018,4.018	c2.978-2.87,5.689-5.995,8.147-9.362C40.197,6.846,38.992,6.551,38.355,6.589z"/><linearGradient id="GaRSAxHYHnY8RrTcadh37e" x1="57.105" x2="57.105" y1="-23.276" y2="-19.538" gradientTransform="rotate(-45.001 87.928 23.001)" gradientUnits="userSpaceOnUse"><stop offset="0" stop-color="#9e644b"/><stop offset=".276" stop-color="#c17f5d"/><stop offset="1" stop-color="#592e24"/></linearGradient><path fill="url(#GaRSAxHYHnY8RrTcadh37e)" d="M35.732,8.529c-2.388,1.964-4.406,4.237-6.73,6.423l3.868,3.902	c2.461-2.366,5.067-4.604,7.156-7.326C38.908,9.805,36.733,8.853,35.732,8.529z"/><linearGradient id="GaRSAxHYHnY8RrTcadh37f" x1="53.409" x2="58.942" y1="-20.17" y2="-23.509" gradientTransform="rotate(-45.001 87.928 23.001)" gradientUnits="userSpaceOnUse"><stop offset=".531" stop-color="#59342b"/><stop offset="1" stop-color="#6d3f31" stop-opacity="0"/></linearGradient><path fill="url(#GaRSAxHYHnY8RrTcadh37f)" d="M33.55,10.607c-1.582,1.363-3.15,2.772-4.703,4.233l4.271,4.271	c1.933-1.858,3.738-3.84,5.442-5.918C36.454,11.208,34.408,10.718,33.55,10.607z"/><linearGradient id="GaRSAxHYHnY8RrTcadh37g" x1="69.997" x2="68.031" y1="-25.429" y2="-17.568" gradientTransform="rotate(-45.001 87.928 23.001)" gradientUnits="userSpaceOnUse"><stop offset="0" stop-color="#f8e1ab"/><stop offset="1" stop-color="#99621a"/></linearGradient><path fill="url(#GaRSAxHYHnY8RrTcadh37g)" d="M39.844,5.248l2.836,2.836c0.849,0.849,2.296,0.504,2.666-0.637	c0.531-1.639,0.869-3.732-0.132-4.733c-1.001-1.001-3.094-0.663-4.733-0.132C39.34,2.952,38.996,4.4,39.844,5.248z"/><linearGradient id="GaRSAxHYHnY8RrTcadh37h" x1="68.349" x2="69.799" y1="-20.03" y2="-23.446" gradientTransform="rotate(-45.001 87.928 23.001)" gradientUnits="userSpaceOnUse"><stop offset="0" stop-color="#cba566"/><stop offset="1" stop-color="#f9e3b7"/></linearGradient><path fill="url(#GaRSAxHYHnY8RrTcadh37h)" d="M40.942,5.068l1.919,1.919c0.574,0.574,1.553,0.341,1.804-0.431	c0.359-1.109,0.588-2.525-0.089-3.202c-0.677-0.677-2.093-0.449-3.202-0.089C40.601,3.514,40.368,4.494,40.942,5.068z"/><linearGradient id="GaRSAxHYHnY8RrTcadh37i" x1="54.938" x2="54.938" y1="-23.404" y2="-19.351" gradientTransform="rotate(-45.001 87.928 23.001)" gradientUnits="userSpaceOnUse"><stop offset="0" stop-color="#9e644b"/><stop offset=".276" stop-color="#c17f5d"/><stop offset="1" stop-color="#592e24"/></linearGradient><path fill="url(#GaRSAxHYHnY8RrTcadh37i)" d="M31.675,12.011c-1.054,0.935-1.787,1.849-2.828,2.828l4.243,4.243	c1.482-1.425,2.896-2.688,4.243-4.243C35.175,12.276,32.507,11.957,31.675,12.011z"/><radialGradient id="GaRSAxHYHnY8RrTcadh37j" cx="31.311" cy="18.34" r="8.869" gradientUnits="userSpaceOnUse"><stop offset="0" stop-color="#171714" stop-opacity=".5"/><stop offset="1" stop-color="#171714" stop-opacity="0"/></radialGradient><polygon fill="url(#GaRSAxHYHnY8RrTcadh37j)" points="26.089,28.21 33.586,19.999 30.757,17.171 27.929,14.343 19.718,21.839"/><linearGradient id="GaRSAxHYHnY8RrTcadh37k" x1="36.859" x2="24.932" y1="24.595" y2="12.522" gradientUnits="userSpaceOnUse"><stop offset="0" stop-color="#9b661e"/><stop offset="1" stop-color="#b48944"/></linearGradient><path fill="url(#GaRSAxHYHnY8RrTcadh37k)" d="M30.419,17.495l-10.268-6.687c4.599,0.837,8.446,2.338,11.493,5.384	c3.182,3.182,4.835,7.324,5.477,11.586L30.419,17.495z"/><linearGradient id="GaRSAxHYHnY8RrTcadh37l" x1="50.824" x2="49.453" y1="-30.338" y2="-26.58" gradientTransform="rotate(-45.001 87.928 23.001)" gradientUnits="userSpaceOnUse"><stop offset="0" stop-color="#c09857"/><stop offset="1" stop-color="#f0d7a0"/></linearGradient><path fill="url(#GaRSAxHYHnY8RrTcadh37l)" d="M20.151,10.807v1.414c4.95,2.121,6.632,4.27,8.485,7.071l2.121-2.121	C27.929,14.343,24.393,12.221,20.151,10.807z"/><linearGradient id="GaRSAxHYHnY8RrTcadh37m" x1="49.624" x2="49.624" y1="-18.994" y2="-8.341" gradientTransform="rotate(-45.001 87.928 23.001)" gradientUnits="userSpaceOnUse"><stop offset="0" stop-color="#c09857"/><stop offset="1" stop-color="#f0d7a0"/></linearGradient><path fill="url(#GaRSAxHYHnY8RrTcadh37m)" d="M37.121,27.778h-1.414c-2.121-4.95-4.27-6.632-7.071-8.485l2.121-2.121	C33.586,19.999,35.707,23.535,37.121,27.778z"/></svg>