<svg xmlns="http://www.w3.org/2000/svg" viewBox="0 0 48 48"><linearGradient id="zQ6JAP5AMS7Qnsa8EZiW0a" x1="46.472" x2="4.976" y1="49.049" y2="7.083" gradientTransform="rotate(45.001 20.5 27.5)" gradientUnits="userSpaceOnUse"><stop offset="0" stop-color="#6a6a6a"/><stop offset="1" stop-color="#c8c8c8"/></linearGradient><path fill="url(#zQ6JAP5AMS7Qnsa8EZiW0a)" d="M40.531,8.469c-4.882-4.882-12.796-4.882-17.678,0c-3.758,3.758-4.611,9.31-2.582,13.896	L3.484,39.152l-0.076,4.318l0,0l5.733,1.339l2.281-2.281l-0.943-1.886l1.414-1.414l1.886,0.943l1.414-1.414l-0.472-0.943	l1.414-1.414l0.943,0.472L19.2,34.75l-0.943-1.886l1.414-1.414l1.886,0.943l4.129-4.129c4.747,2.604,10.823,1.904,14.845-2.117	C45.413,21.265,45.413,13.35,40.531,8.469z M32.046,16.954c-1.367-1.367-1.367-3.583,0-4.95s3.583-1.367,4.95,0s1.367,3.583,0,4.95	C35.629,18.321,33.413,18.321,32.046,16.954z"/><linearGradient id="zQ6JAP5AMS7Qnsa8EZiW0b" x1="31.371" x2="19.323" y1="38.523" y2="38.131" gradientTransform="rotate(45.001 20.5 27.5)" gradientUnits="userSpaceOnUse"><stop offset="0" stop-color="#a1a1a1"/><stop offset="1" stop-color="#515151"/></linearGradient><polygon fill="url(#zQ6JAP5AMS7Qnsa8EZiW0b)" points="9.141,44.809 11.422,42.528 10.479,40.642 11.893,39.228 13.779,40.171 15.193,38.757 14.722,37.814 16.136,36.4 17.079,36.871 19.2,34.75 18.257,32.864 19.672,31.45 21.557,32.393 23.914,30.036 21.086,28.621 5.701,44.006"/><linearGradient id="zQ6JAP5AMS7Qnsa8EZiW0c" x1="18.879" x2="9.933" y1="38.529" y2="29.343" gradientTransform="rotate(45.001 20.5 27.5)" gradientUnits="userSpaceOnUse"><stop offset="0" stop-color="#606060"/><stop offset="1" stop-color="#a1a1a1"/></linearGradient><polygon fill="url(#zQ6JAP5AMS7Qnsa8EZiW0c)" points="3.408,43.471 19.672,27.207 18.965,26.5 3.433,42.031"/><linearGradient id="zQ6JAP5AMS7Qnsa8EZiW0d" x1="11.542" x2="12.057" y1="53.007" y2="22.283" gradientUnits="userSpaceOnUse"><stop offset="0" stop-color="#6a6a6a"/><stop offset="1" stop-color="#d4d4d4"/></linearGradient><polygon fill="url(#zQ6JAP5AMS7Qnsa8EZiW0d)" points="19.672,27.207 3.712,43.167 3.888,43.583 19.965,27.501"/><linearGradient id="zQ6JAP5AMS7Qnsa8EZiW0e" x1="14.578" x2="10.152" y1="35.531" y2="31.304" gradientUnits="userSpaceOnUse"><stop offset="0" stop-color="#6a6a6a"/><stop offset="1" stop-color="#e0e0e0"/></linearGradient><polygon fill="url(#zQ6JAP5AMS7Qnsa8EZiW0e)" points="20.746,22.838 20.743,22.832 20.269,22.358 20.272,22.365 3.484,39.152 3.408,43.471 3.408,43.471 3.888,43.583 3.958,39.626"/><linearGradient id="zQ6JAP5AMS7Qnsa8EZiW0f" x1="37.911" x2="20.879" y1="23.659" y2="5.358" gradientUnits="userSpaceOnUse"><stop offset="0" stop-color="#7f7f7f"/><stop offset="1" stop-color="#eee"/></linearGradient><path fill="url(#zQ6JAP5AMS7Qnsa8EZiW0f)" d="M40.531,8.469c-4.882-4.882-12.796-4.882-17.678,0c-3.955,3.955-4.703,9.899-2.251,14.61	l0.384-0.384C18.725,18.2,19.462,12.582,23.215,8.83c4.682-4.682,12.273-4.682,16.956,0s4.682,12.273,0,16.956	c-3.841,3.841-9.638,4.525-14.182,2.064l-0.372,0.372c4.757,2.651,10.874,1.967,14.916-2.075	C45.413,21.265,45.413,13.35,40.531,8.469z"/><linearGradient id="zQ6JAP5AMS7Qnsa8EZiW0g" x1="4.597" x2="27.683" y1="40.367" y2="29.911" gradientUnits="userSpaceOnUse"><stop offset="0" stop-color="#515151"/><stop offset="1" stop-color="#7f7f7f"/></linearGradient><path fill="url(#zQ6JAP5AMS7Qnsa8EZiW0g)" d="M11.167,42.017l0.255,0.511l-2.281,2.281l-3.44-0.803l0.588-0.592l2.804,0.677L11.167,42.017z M13.731,39.453l-1.886-0.943l-1.414,1.414l0.255,0.511l1.207-1.207l1.886,0.943l1.414-1.414l-0.255-0.511L13.731,39.453z M44.115,15.969c0.168,3.403-1.033,6.861-3.632,9.459c-4.021,4.022-10.098,4.722-14.845,2.117l-4.129,4.129l-1.886-0.943	l-1.414,1.414l0.255,0.511l1.207-1.207l1.886,0.943l4.129-4.129c4.747,2.604,10.823,1.904,14.845-2.117	C43.313,23.365,44.504,19.598,44.115,15.969z M17.031,36.153l-0.943-0.472l-1.414,1.414l0.255,0.511l1.207-1.207l0.943,0.471	L19.2,34.75l-0.255-0.511L17.031,36.153z"/><linearGradient id="zQ6JAP5AMS7Qnsa8EZiW0h" x1="37.463" x2="31.148" y1="17.496" y2="11.11" gradientUnits="userSpaceOnUse"><stop offset="0" stop-color="#eee"/><stop offset="1" stop-color="#6a6a6a"/></linearGradient><path fill="url(#zQ6JAP5AMS7Qnsa8EZiW0h)" d="M34.5,10.489c-2.215,0-4.011,1.796-4.011,4.011s1.796,4.011,4.011,4.011	s4.011-1.796,4.011-4.011S36.715,10.489,34.5,10.489z M34.5,18c-1.933,0-3.5-1.567-3.5-3.5s1.567-3.5,3.5-3.5s3.5,1.567,3.5,3.5	S36.433,18,34.5,18z"/><linearGradient id="zQ6JAP5AMS7Qnsa8EZiW0i" x1="32.586" x2="27.406" y1="19.91" y2="4.719" gradientUnits="userSpaceOnUse"><stop offset=".048" stop-color="#fff" stop-opacity="0"/><stop offset=".994" stop-color="#fff" stop-opacity=".5"/></linearGradient><path fill="url(#zQ6JAP5AMS7Qnsa8EZiW0i)" d="M32.046,12.004c1.367-1.367,3.583-1.367,4.95,0c0.417,0.417,0.691,0.917,0.854,1.444	l5.029-1.703c-0.587-1.181-1.363-2.293-2.348-3.277c-4.882-4.882-12.796-4.882-17.678,0c-3.049,3.049-4.185,7.279-3.422,11.215	l11.812-3.999C30.789,14.444,31.05,13,32.046,12.004z"/><radialGradient id="zQ6JAP5AMS7Qnsa8EZiW0j" cx="-641.244" cy="55.906" r="2.905" gradientTransform="matrix(-.4049 .4347 -.1589 -.1481 -213.618 304.206)" gradientUnits="userSpaceOnUse"><stop offset="0" stop-color="#fff"/><stop offset=".999" stop-color="#fff" stop-opacity="0"/></radialGradient><path fill="url(#zQ6JAP5AMS7Qnsa8EZiW0j)" d="M35.821,18.635c-0.305-0.284,0.033-1.142,0.755-1.917c0.722-0.775,1.554-1.173,1.858-0.889	c0.305,0.284-0.033,1.142-0.755,1.917C36.957,18.521,36.125,18.919,35.821,18.635z"/></svg>