<svg xmlns="http://www.w3.org/2000/svg" viewBox="0 0 48 48"><linearGradient id="sHqKNkcUrDfr4ORxlcV5ta" x1="15.204" x2="15.204" y1="30.633" y2="47.441" gradientTransform="rotate(45.001 35.717 23.247)" gradientUnits="userSpaceOnUse"><stop offset="0" stop-color="#474747"/><stop offset="1" stop-color="#757575"/></linearGradient><path fill="url(#sHqKNkcUrDfr4ORxlcV5ta)" d="M10.287,13.971c0,0,0.948,0.88-0.508,1.388c-1.151,1.219-5.73,7.05-8.337,12.467	c1.303,0.592,3.902,2.548,3.902,2.548s4.173-7.964,7.135-11.603c-0.567-0.844-0.555-2.112,0.427-1.706s1.425,0.816,1.425,0.816	l0.322-0.423l-4.045-3.876L10.287,13.971z"/><linearGradient id="sHqKNkcUrDfr4ORxlcV5tb" x1="21.495" x2="8.414" y1="41.215" y2="43.089" gradientTransform="rotate(45.001 35.717 23.247)" gradientUnits="userSpaceOnUse"><stop offset=".237" stop-color="#c8c8c8"/><stop offset=".784" stop-color="#707070"/></linearGradient><path fill="url(#sHqKNkcUrDfr4ORxlcV5tb)" d="M2.863,27.828c-0.002-0.001-0.004-0.002-0.006-0.003c2.607-5.416,7.186-11.248,8.337-12.467	c0.43-0.15,0.635-0.332,0.732-0.515l-1.317-1.262l-0.322,0.389c0,0,0.948,0.88-0.508,1.388c-1.151,1.219-5.73,7.05-8.337,12.467	c0.356,0.162,0.755,0.373,1.148,0.594L2.863,27.828z"/><linearGradient id="sHqKNkcUrDfr4ORxlcV5tc" x1="27.607" x2="27.607" y1="33.068" y2="30.564" gradientTransform="rotate(45.001 35.717 23.247)" gradientUnits="userSpaceOnUse"><stop offset="0" stop-color="#abb1ba"/><stop offset=".432" stop-color="#d9dde1"/><stop offset=".621" stop-color="#aab1b9"/><stop offset="1" stop-color="#7f8894"/></linearGradient><polygon fill="url(#sHqKNkcUrDfr4ORxlcV5tc)" points="29.731,31.906 15.589,17.764 18.169,15.184 32.311,29.326"/><linearGradient id="sHqKNkcUrDfr4ORxlcV5td" x1="14.896" x2="15.434" y1="27.031" y2="9.549" gradientTransform="rotate(45.001 35.717 23.247)" gradientUnits="userSpaceOnUse"><stop offset="0" stop-color="#474747"/><stop offset="1" stop-color="#666"/></linearGradient><path fill="url(#sHqKNkcUrDfr4ORxlcV5td)" d="M14.05,10.817c4.616-3.756,10.567-8.328,14.881-9.804c0,0,0.153,2.164-1.534,3.329	c-2.934,2.027-7.249,5.22-8.871,7.509c-1.117,1.591,0.643,2.945,0.643,2.945l-1.164-0.081L14.05,10.817z"/><linearGradient id="sHqKNkcUrDfr4ORxlcV5te" x1="44.177" x2="15.454" y1="23.509" y2="29.509" gradientTransform="rotate(45.001 35.717 23.247)" gradientUnits="userSpaceOnUse"><stop offset=".237" stop-color="#c8c8c8"/><stop offset=".784" stop-color="#707070"/></linearGradient><path fill="url(#sHqKNkcUrDfr4ORxlcV5te)" d="M18.321,13.673c-0.16,0.379-0.181,0.735-0.111,1.057l0.958,0.067 C19.169,14.796,18.606,14.347,18.321,13.673z"/><linearGradient id="sHqKNkcUrDfr4ORxlcV5tf" x1="36.726" x2="13.041" y1="16.291" y2="21.238" gradientTransform="rotate(45.001 35.717 23.247)" gradientUnits="userSpaceOnUse"><stop offset=".237" stop-color="#c8c8c8"/><stop offset=".784" stop-color="#707070"/></linearGradient><path fill="url(#sHqKNkcUrDfr4ORxlcV5tf)" d="M28.932,1.013c-4.314,1.475-10.265,6.048-14.881,9.804l0.793,0.782 c3.627-2.901,8.188-6.385,11.963-8.264C27.549,2.964,28.932,1.013,28.932,1.013z"/><linearGradient id="sHqKNkcUrDfr4ORxlcV5tg" x1="47.753" x2="47.753" y1="30.464" y2="32.135" gradientTransform="rotate(45.001 35.717 23.247)" gradientUnits="userSpaceOnUse"><stop offset=".019" stop-color="#030302"/><stop offset="1" stop-color="#39393b"/></linearGradient><path fill="url(#sHqKNkcUrDfr4ORxlcV5tg)" d="M42.494,45.941l-9.447-9.447c-0.062-0.062-0.122-0.128-0.177-0.196l-3.114-3.814	c-0.169-0.208-0.154-0.51,0.035-0.699l2.398-2.398c0.189-0.189,0.491-0.205,0.699-0.035l3.814,3.114	c0.068,0.056,0.134,0.115,0.197,0.178l9.446,9.446c0.541,0.541,0.392,1.568-0.333,2.293l-1.225,1.225	C44.062,46.333,43.036,46.482,42.494,45.941z"/><linearGradient id="sHqKNkcUrDfr4ORxlcV5th" x1="14.607" x2="14.607" y1="30.075" y2="34.989" gradientTransform="rotate(45.001 35.717 23.247)" gradientUnits="userSpaceOnUse"><stop offset=".037" stop-color="#626262"/><stop offset=".374" stop-color="#a2a2a2"/><stop offset=".784" stop-color="#707070"/></linearGradient><path fill="url(#sHqKNkcUrDfr4ORxlcV5th)" d="M19.253,14.913L14.359,9.73c-0.169-0.179-0.453-0.183-0.627-0.009l-3.603,3.603	c-0.174,0.174-0.17,0.458,0.009,0.627l5.189,4.889c0.172,0.162,0.442,0.158,0.609-0.009l3.308-3.308	C19.412,15.355,19.416,15.085,19.253,14.913z"/><g><path fill="#474747" d="M36.02,32.876c-0.193-0.193-0.951,0.251-1.693,0.993s-1.186,1.499-0.993,1.693 c0.193,0.193,0.951-0.251,1.693-0.993S36.213,33.07,36.02,32.876z"/><path fill="#474747" d="M37.847,34.704c-0.193-0.193-0.951,0.251-1.693,0.993s-1.186,1.499-0.993,1.693 c0.193,0.193,0.951-0.251,1.693-0.993S38.041,34.897,37.847,34.704z"/><path fill="#474747" d="M39.675,36.532c-0.193-0.193-0.951,0.251-1.693,0.993s-1.186,1.499-0.993,1.693 c0.193,0.193,0.951-0.251,1.693-0.993S39.869,36.725,39.675,36.532z"/><path fill="#474747" d="M41.503,38.36c-0.193-0.193-0.951,0.251-1.693,0.993s-1.186,1.499-0.993,1.693 c0.193,0.193,0.951-0.251,1.693-0.993S41.697,38.553,41.503,38.36z"/><path fill="#474747" d="M43.331,40.188c-0.193-0.193-0.951,0.251-1.693,0.993c-0.742,0.742-1.186,1.499-0.993,1.693 s0.951-0.251,1.693-0.993C43.08,41.139,43.524,40.381,43.331,40.188z"/><path fill="#474747" d="M45.159,42.016c-0.193-0.193-0.951,0.251-1.693,0.993c-0.742,0.742-1.186,1.499-0.993,1.693 s0.951-0.251,1.693-0.993C44.908,42.967,45.352,42.209,45.159,42.016z"/></g></svg>