<svg xmlns="http://www.w3.org/2000/svg" viewBox="0 0 48 48"><linearGradient id="pE75V6joNNLRhNniLhh1ya" x1="24" x2="24" y1="33.809" y2="42.971" gradientUnits="userSpaceOnUse"><stop offset=".001" stop-color="#171714"/><stop offset="1" stop-color="#393938"/></linearGradient><rect width="36" height="7" x="6" y="31" fill="url(#pE75V6joNNLRhNniLhh1ya)"/><linearGradient id="pE75V6joNNLRhNniLhh1yb" x1="23.501" x2="23.501" y1="16.96" y2="7.755" gradientUnits="userSpaceOnUse"><stop offset=".001" stop-color="#171714"/><stop offset="1" stop-color="#666"/></linearGradient><polygon fill="url(#pE75V6joNNLRhNniLhh1yb)" points="37.592,21.181 9.41,21.181 10.139,9.664 36.889,9.664"/><linearGradient id="pE75V6joNNLRhNniLhh1yc" x1="23.5" x2="23.5" y1="7.747" y2="17.032" gradientUnits="userSpaceOnUse"><stop offset="0" stop-color="#e0e0e0"/><stop offset=".209" stop-color="#d9d9d9"/><stop offset=".514" stop-color="#c5c5c5"/><stop offset=".876" stop-color="#a6a6a6"/><stop offset="1" stop-color="#999"/></linearGradient><polygon fill="url(#pE75V6joNNLRhNniLhh1yc)" points="36.149,21 10.851,21 11.702,4.713 35.277,4.713"/><linearGradient id="pE75V6joNNLRhNniLhh1yd" x1="9.49" x2="9.49" y1="17.805" y2="23.964" gradientUnits="userSpaceOnUse"><stop offset="0" stop-color="#666"/><stop offset=".999" stop-color="#171714"/></linearGradient><path fill="url(#pE75V6joNNLRhNniLhh1yd)" d="M9.694,21.205H8.574L9.286,8.96c0-0.118,0.096-0.214,0.214-0.214h0.69	c0.118,0,0.214,0.096,0.214,0.214L9.694,21.205z"/><linearGradient id="pE75V6joNNLRhNniLhh1ye" x1="699.596" x2="699.596" y1="17.805" y2="23.964" gradientTransform="matrix(-1 0 0 1 737.028 0)" gradientUnits="userSpaceOnUse"><stop offset="0" stop-color="#666"/><stop offset=".999" stop-color="#171714"/></linearGradient><path fill="url(#pE75V6joNNLRhNniLhh1ye)" d="M37.228,21.205h1.119L37.635,8.96c0-0.118-0.096-0.214-0.214-0.214h-0.69	c-0.118,0-0.214,0.096-0.214,0.214L37.228,21.205z"/><path fill="#31312f" d="M24,41.41L9.979,41.489v0.651c0,0.479,0.385,0.875,0.873,0.893c4.344,0.162,8.727,0.243,13.149,0.243	c4.341,0,8.644-0.081,12.909-0.243c0.479-0.018,0.857-0.414,0.857-0.893v-0.651L24,41.41z"/><linearGradient id="pE75V6joNNLRhNniLhh1yf" x1="23.872" x2="23.872" y1="37.652" y2="41.801" gradientUnits="userSpaceOnUse"><stop offset="0" stop-color="#22221f"/><stop offset="1" stop-color="#3f3f3e"/></linearGradient><path fill="url(#pE75V6joNNLRhNniLhh1yf)" d="M37.727,41.318L36,37H24H11.777l-1.759,4.318c-0.136,0.333,0.101,0.702,0.466,0.72	c4.424,0.217,8.931,0.318,13.516,0.312c4.501,0.006,8.927-0.094,13.27-0.312C37.628,42.02,37.861,41.652,37.727,41.318z"/><linearGradient id="pE75V6joNNLRhNniLhh1yg" x1="24" x2="24" y1="16.956" y2="52.984" gradientUnits="userSpaceOnUse"><stop offset="0" stop-color="#666"/><stop offset=".999" stop-color="#171714"/></linearGradient><path fill="url(#pE75V6joNNLRhNniLhh1yg)" d="M40.647,18H7.353c-0.829,0-1.588,0.469-1.959,1.21l-3.147,6.295	C2.085,25.831,2,26.189,2,26.553V31l0.844,7.599C2.933,39.397,3.607,40,4.409,40h3.813L8.8,34.798C8.914,33.774,9.779,33,10.809,33	h26.382c1.03,0,1.895,0.774,2.009,1.798L39.778,40h3.813c0.802,0,1.476-0.603,1.565-1.401L46,31v-4.447	c0-0.364-0.085-0.723-0.247-1.048l-3.147-6.295C42.234,18.469,41.476,18,40.647,18z"/><linearGradient id="pE75V6joNNLRhNniLhh1yh" x1="44.888" x2="41.998" y1="31.925" y2="31.925" gradientUnits="userSpaceOnUse"><stop offset="0" stop-color="#171714" stop-opacity=".4"/><stop offset="1" stop-color="#171714" stop-opacity="0"/></linearGradient><path fill="url(#pE75V6joNNLRhNniLhh1yh)" d="M44.926,23.851h-3.83V40h2.495c0.802,0,1.476-0.603,1.565-1.401L46,31v-4.447	c0-0.364-0.085-0.723-0.247-1.048L44.926,23.851z"/><linearGradient id="pE75V6joNNLRhNniLhh1yi" x1="-2.705" x2="4.955" y1="31.947" y2="31.925" gradientUnits="userSpaceOnUse"><stop offset="0" stop-color="#fff" stop-opacity=".8"/><stop offset="1" stop-color="#fff" stop-opacity="0"/></linearGradient><path fill="url(#pE75V6joNNLRhNniLhh1yi)" d="M3.074,23.851l-0.827,1.654C2.085,25.831,2,26.189,2,26.553V31l0.844,7.599	C2.933,39.397,3.607,40,4.409,40h2.218V23.851H3.074z"/><linearGradient id="pE75V6joNNLRhNniLhh1yj" x1="24" x2="24" y1="27.979" y2="5.563" gradientUnits="userSpaceOnUse"><stop offset="0" stop-color="#999"/><stop offset="1" stop-color="#fff"/></linearGradient><path fill="url(#pE75V6joNNLRhNniLhh1yj)" d="M43.828,26H4.172c-0.998,0-1.647-1.05-1.2-1.942l2.59-5.18C5.83,18.34,6.38,18,6.981,18	h34.037c0.601,0,1.151,0.34,1.42,0.878l2.59,5.18C45.475,24.95,44.826,26,43.828,26z"/><linearGradient id="pE75V6joNNLRhNniLhh1yk" x1="22" x2="22" y1="34.485" y2="14.871" gradientUnits="userSpaceOnUse"><stop offset="0" stop-color="#666"/><stop offset=".999" stop-color="#171714"/></linearGradient><path fill="url(#pE75V6joNNLRhNniLhh1yk)" d="M37.976,22.967l-1.626-4.833c-0.062-0.045-0.122-0.089-0.184-0.134H7.834	c-0.062,0.045-0.122,0.089-0.184,0.134l-1.626,4.833c-0.224,0.667,0.258,1.362,0.945,1.362H18v0.08c0,0.326,0.264,0.59,0.59,0.59	h6.819c0.326,0,0.59-0.264,0.59-0.59v-0.08h11.031C37.718,24.33,38.201,23.634,37.976,22.967z"/><linearGradient id="pE75V6joNNLRhNniLhh1yl" x1="22" x2="22" y1="24.431" y2="7.619" gradientUnits="userSpaceOnUse"><stop offset="0" stop-color="#666"/><stop offset=".999" stop-color="#171714"/></linearGradient><path fill="url(#pE75V6joNNLRhNniLhh1yl)" d="M37.012,24H6.988c-0.484,0-0.823-0.477-0.665-0.934l1.707-4.939	C8.09,18.084,8.148,18.043,8.208,18h27.583c0.06,0.043,0.118,0.084,0.179,0.127l1.707,4.939C37.835,23.523,37.496,24,37.012,24z"/><linearGradient id="pE75V6joNNLRhNniLhh1ym" x1="40.798" x2="40.798" y1="29.535" y2="16.658" gradientUnits="userSpaceOnUse"><stop offset="0" stop-color="#666"/><stop offset=".999" stop-color="#171714"/></linearGradient><path fill="url(#pE75V6joNNLRhNniLhh1ym)" d="M38.646,19.921l1.735,4.278c0.024,0.06,0.083,0.099,0.147,0.099h2.275	c0.114,0,0.191-0.117,0.146-0.222l-1.855-4.278c-0.025-0.058-0.082-0.096-0.146-0.096h-2.155	C38.681,19.702,38.604,19.816,38.646,19.921z"/><linearGradient id="pE75V6joNNLRhNniLhh1yn" x1="40.806" x2="40.806" y1="25.303" y2="14.095" gradientUnits="userSpaceOnUse"><stop offset="0" stop-color="#999"/><stop offset="1" stop-color="#fff"/></linearGradient><path fill="url(#pE75V6joNNLRhNniLhh1yn)" d="M41.911,22.404h-1.954l-0.413-1.019h1.926L41.911,22.404z M41.315,21.028L40.883,20h-1.888	l0.404,1.028H41.315z M40.102,22.762L40.617,24h2l-0.551-1.238H40.102z"/></svg>