<svg xmlns="http://www.w3.org/2000/svg" viewBox="0 0 100 100"><path fill="#78a2d2" d="M69,82H31c-7.18,0-13-5.82-13-13V31c0-7.18,5.82-13,13-13h38c7.18,0,13,5.82,13,13v38	C82,76.18,76.18,82,69,82z"/><path fill="#fefdef" d="M66,77H34c-6.075,0-11-4.925-11-11V34c0-6.075,4.925-11,11-11h32c6.075,0,11,4.925,11,11v32	C77,72.075,72.075,77,66,77z"/><path fill="#1f212b" d="M65.9,77H34.1C27.979,77,23,72.021,23,65.9V34.1c0-6.12,4.979-11.1,11.1-11.1h26.4	c0.276,0,0.5,0.224,0.5,0.5S60.776,24,60.5,24H34.1C28.531,24,24,28.53,24,34.1V65.9C24,71.47,28.531,76,34.1,76h31.8	C71.469,76,76,71.47,76,65.9V51.5c0-0.276,0.224-0.5,0.5-0.5s0.5,0.224,0.5,0.5v14.4C77,72.021,72.021,77,65.9,77z"/><path fill="#1f212b" d="M76.5,42c-0.276,0-0.5-0.224-0.5-0.5v-2c0-0.276,0.224-0.5,0.5-0.5s0.5,0.224,0.5,0.5v2	C77,41.776,76.776,42,76.5,42z"/><path fill="#1f212b" d="M76.5,49c-0.276,0-0.5-0.224-0.5-0.5v-4c0-0.276,0.224-0.5,0.5-0.5s0.5,0.224,0.5,0.5v4	C77,48.776,76.776,49,76.5,49z"/><path fill="#1f212b" d="M69,83H31c-7.72,0-14-6.28-14-14V31c0-7.72,6.28-14,14-14h38c7.72,0,14,6.28,14,14v38	C83,76.72,76.72,83,69,83z M31,19c-6.617,0-12,5.383-12,12v38c0,6.617,5.383,12,12,12h38c6.617,0,12-5.383,12-12V31	c0-6.617-5.383-12-12-12H31z"/><path fill="#1f212b" d="M47.216,55.87V44.092c0-2.786,0.721-4.831,2.163-6.136C50.821,36.652,52.756,36,55.184,36	s4.338,0.64,5.729,1.919C62.304,39.198,63,40.724,63,42.497c0,0.76-0.392,1.139-1.176,1.139c-0.886,0-1.328-0.342-1.328-1.026	c0-1.292-0.518-2.33-1.555-3.116c-1.038-0.785-2.314-1.177-3.832-1.177c-3.592,0-5.388,1.924-5.388,5.773v5.811	c1.239-1.67,3.149-2.505,5.729-2.505c5.033,0,7.55,2.521,7.55,7.561v0.912c0,2.812-0.715,4.87-2.144,6.174	C59.427,63.348,57.511,64,55.108,64c-2.403,0-4.319-0.652-5.748-1.957C47.931,60.739,47.216,58.681,47.216,55.87z M49.72,55.944	c0,3.826,1.796,5.738,5.388,5.738c3.591,0,5.387-1.913,5.387-5.738v-0.907c0-3.65-1.796-5.474-5.387-5.474	c-3.592,0-5.388,1.712-5.388,5.135V55.944z"/><path fill="#1f212b" d="M37,42.109c0-0.216,0.048-0.419,0.143-0.609c0.094-0.189,3.523-4.931,3.523-4.931	C40.942,36.19,41.257,36,41.61,36c0.277,0,0.529,0.089,0.756,0.266c0.227,0.177,0.34,0.405,0.34,0.683v25.837	c0,0.304-0.126,0.545-0.378,0.721c-0.252,0.177-0.542,0.266-0.869,0.266c-0.353,0-0.649-0.089-0.888-0.266	c-0.24-0.177-0.359-0.417-0.359-0.721V40.288L38.7,42.754c-0.202,0.303-0.441,0.455-0.718,0.455c-0.278,0-0.51-0.107-0.699-0.322	C37.094,42.672,37,42.412,37,42.109z"/></svg>