<svg xmlns="http://www.w3.org/2000/svg" xmlns:xlink="http://www.w3.org/1999/xlink" viewBox="0 0 48 48"><defs><radialGradient id="qdmI3_uXSqn9lUCY7JAkwb" cx="17.31" cy="15.76" r="28.24" gradientUnits="userSpaceOnUse"><stop offset="0" stop-color="#fea559"/><stop offset=".16" stop-color="#fe9347"/><stop offset=".54" stop-color="#ff6c20"/><stop offset=".63" stop-color="#f56620"/><stop offset=".79" stop-color="#da5821"/><stop offset=".93" stop-color="#bb4722"/></radialGradient><radialGradient id="qdmI3_uXSqn9lUCY7JAkwa" cx="8.93" cy="28.77" r="8.1" gradientTransform="matrix(-.64 .77 -2.17 -1.8 76.96 73.59)" gradientUnits="userSpaceOnUse"><stop offset=".9" stop-color="#feb97f" stop-opacity="0"/><stop offset=".9" stop-color="#feb97f" stop-opacity=".01"/><stop offset=".93" stop-color="#feb97f" stop-opacity=".36"/><stop offset=".95" stop-color="#feb97f" stop-opacity=".63"/><stop offset=".96" stop-color="#feb97f" stop-opacity=".83"/><stop offset=".97" stop-color="#feb97f" stop-opacity=".95"/><stop offset=".98" stop-color="#feb97f"/></radialGradient><radialGradient id="qdmI3_uXSqn9lUCY7JAkwc" cx="13.28" cy="28.49" r="7.25" xlink:href="#qdmI3_uXSqn9lUCY7JAkwa"/><radialGradient id="qdmI3_uXSqn9lUCY7JAkwd" cx="17.35" cy="9.93" r="4.78" gradientUnits="userSpaceOnUse"><stop offset=".82" stop-color="#feb97f"/><stop offset=".83" stop-color="#feb97f" stop-opacity=".95"/><stop offset=".86" stop-color="#feb97f" stop-opacity=".83"/><stop offset=".9" stop-color="#feb97f" stop-opacity=".63"/><stop offset=".95" stop-color="#feb97f" stop-opacity=".36"/><stop offset="1" stop-color="#feb97f" stop-opacity=".01"/><stop offset="1" stop-color="#feb97f" stop-opacity="0"/></radialGradient><radialGradient id="qdmI3_uXSqn9lUCY7JAkwe" cx="18.98" cy="-8.19" r="23.38" gradientTransform="rotate(85.81 16.484 -10.508) scale(1 1.57)" gradientUnits="userSpaceOnUse"><stop offset=".83" stop-color="#feb97f"/><stop offset=".94" stop-color="#feb97f"/><stop offset=".94" stop-color="#feb97f" stop-opacity=".95"/><stop offset=".95" stop-color="#feb97f" stop-opacity=".83"/><stop offset=".95" stop-color="#feb97f" stop-opacity=".63"/><stop offset=".96" stop-color="#feb97f" stop-opacity=".36"/><stop offset=".97" stop-color="#feb97f" stop-opacity=".01"/><stop offset=".97" stop-color="#feb97f" stop-opacity="0"/></radialGradient><radialGradient id="qdmI3_uXSqn9lUCY7JAkwf" cx="21.01" cy="27.9" r="8.57" gradientTransform="matrix(.98478 .17382 -.42586 2.4127 12.2 -43.07)" gradientUnits="userSpaceOnUse"><stop offset=".9" stop-color="#feb97f" stop-opacity="0"/><stop offset=".9" stop-color="#feb97f" stop-opacity=".01"/><stop offset=".93" stop-color="#feb97f" stop-opacity=".36"/><stop offset=".95" stop-color="#feb97f" stop-opacity=".63"/><stop offset=".97" stop-color="#feb97f" stop-opacity=".83"/><stop offset=".98" stop-color="#feb97f" stop-opacity=".95"/><stop offset=".99" stop-color="#feb97f"/></radialGradient><radialGradient id="qdmI3_uXSqn9lUCY7JAkwg" cx="19.93" cy="17.76" r="4.22" gradientTransform="rotate(25.19 98.041 35.21) scale(1 2.96)" gradientUnits="userSpaceOnUse"><stop offset=".83" stop-color="#feb97f" stop-opacity="0"/><stop offset=".84" stop-color="#feb97f" stop-opacity=".01"/><stop offset=".88" stop-color="#feb97f" stop-opacity=".36"/><stop offset=".93" stop-color="#feb97f" stop-opacity=".63"/><stop offset=".96" stop-color="#feb97f" stop-opacity=".83"/><stop offset=".99" stop-color="#feb97f" stop-opacity=".95"/><stop offset="1" stop-color="#feb97f"/></radialGradient><radialGradient id="qdmI3_uXSqn9lUCY7JAkwh" cx="24.08" cy="14.26" r="6.02" gradientTransform="rotate(40.79 38.152 19.491) scale(1 1.73)" gradientUnits="userSpaceOnUse"><stop offset=".88" stop-color="#feb97f" stop-opacity="0"/><stop offset=".88" stop-color="#feb97f" stop-opacity=".01"/><stop offset=".91" stop-color="#feb97f" stop-opacity=".36"/><stop offset=".93" stop-color="#feb97f" stop-opacity=".63"/><stop offset=".95" stop-color="#feb97f" stop-opacity=".83"/><stop offset=".97" stop-color="#feb97f" stop-opacity=".95"/><stop offset=".98" stop-color="#feb97f"/></radialGradient><radialGradient id="qdmI3_uXSqn9lUCY7JAkwi" cx="10.37" cy="18.59" r="2.1" gradientTransform="matrix(.13 -.99 3.83 .49 -62.09 19.68)" gradientUnits="userSpaceOnUse"><stop offset=".56" stop-color="#feb97f" stop-opacity="0"/><stop offset=".56" stop-color="#feb97f" stop-opacity=".01"/><stop offset=".66" stop-color="#feb97f" stop-opacity=".36"/><stop offset=".75" stop-color="#feb97f" stop-opacity=".63"/><stop offset=".82" stop-color="#feb97f" stop-opacity=".83"/><stop offset=".88" stop-color="#feb97f" stop-opacity=".95"/><stop offset=".91" stop-color="#feb97f"/></radialGradient><radialGradient id="qdmI3_uXSqn9lUCY7JAkwj" cx="15.47" cy="25.72" r="8.05" gradientTransform="rotate(-73.29 -46.332 71.687) scale(1 4.57)" gradientUnits="userSpaceOnUse"><stop offset=".8" stop-color="#feb97f" stop-opacity="0"/><stop offset=".8" stop-color="#feb97f" stop-opacity=".01"/><stop offset=".83" stop-color="#feb97f" stop-opacity=".36"/><stop offset=".86" stop-color="#feb97f" stop-opacity=".63"/><stop offset=".88" stop-color="#feb97f" stop-opacity=".83"/><stop offset=".9" stop-color="#feb97f" stop-opacity=".95"/><stop offset=".91" stop-color="#feb97f"/></radialGradient><radialGradient id="qdmI3_uXSqn9lUCY7JAkwk" cx="18.49" cy="16.15" r="27.63" gradientTransform="matrix(.78 .62 -.82 1.02 17.28 -11.94)" gradientUnits="userSpaceOnUse"><stop offset=".42" stop-color="#ff762a" stop-opacity="0"/><stop offset=".43" stop-color="#fd752a" stop-opacity="0"/><stop offset=".77" stop-color="#7a2e0b" stop-opacity=".29"/><stop offset="1" stop-color="#4a1400" stop-opacity=".4"/></radialGradient><radialGradient id="qdmI3_uXSqn9lUCY7JAkwl" cx="17.4" cy="15.6" r="14.84" gradientUnits="userSpaceOnUse"><stop offset="0" stop-color="#ffbb70" stop-opacity=".5"/><stop offset="1" stop-color="#ffd2a1" stop-opacity="0"/></radialGradient></defs><g data-name="Basketball"><path fill="url(#qdmI3_uXSqn9lUCY7JAkwb)" d="M42,24a18.11,18.11,0,0,1-.43,3.92,2.46,2.46,0,0,1-.07.29c-.08.34-.16.64-.26,1l-.06.2c0,.17-.11.19-.21.34l-.11.21a2.1,2.1,0,0,0-.21.69.17.17,0,0,0,0,.07,1.09,1.09,0,0,1-.07.35c-.14.34-.28.62-.42.93l-.09.16a18.05,18.05,0,0,1-8,8,2.27,2.27,0,0,1-.45.13,3.41,3.41,0,0,0-.51.15l-.14.07c-.19.11-.29.18-.39.25a.9.9,0,0,1-.26.13l-.84.28-.81.23A18,18,0,0,1,24,42a17.83,17.83,0,0,1-6.54-1.27c-.21-.08-.42-.18-.64-.29s-.65-.36-1-.58l-.35-.22-.19-.1c-.28-.14-.84-.44-1.44-.8-.35-.22-.72-.45-1.05-.69a5.76,5.76,0,0,1-.53-.42l-.39-.36a17.24,17.24,0,0,1-5-7.58,7.57,7.57,0,0,1-.2-1.08c0-.1,0-.2,0-.29a2.88,2.88,0,0,1,0-.39,1.56,1.56,0,0,1,0-.24s-.21-.51-.21-.53A5.69,5.69,0,0,1,6.11,26c0-.2,0-.4-.05-.6C6,24.94,6,24.47,6,24c0-.16,0-.32,0-.47A17.89,17.89,0,0,1,7.1,17.79a.2.2,0,0,1,0-.08,5.52,5.52,0,0,1,.42-.8l.15-.2h0s0,0,0,0a3.13,3.13,0,0,0,.16-.29L8,16.24l.08-.2.09-.21c0-.09,0-.08,0-.12s0,0,0,0a1.8,1.8,0,0,1,.05-.19c0-.1.06-.2.1-.31a1.23,1.23,0,0,1,.12-.26c.11-.19.22-.38.34-.56a17.66,17.66,0,0,1,3.12-3.71c.19-.16.39-.35.62-.53a7.3,7.3,0,0,1,.67-.5A5.39,5.39,0,0,1,14,9.2a5.7,5.7,0,0,1,.72-.29l0,0,.08-.11a2.57,2.57,0,0,1,.85-.7c.09,0,.17-.09.26-.12a15.85,15.85,0,0,1,2-.87,17.56,17.56,0,0,1,3.91-.93A16.46,16.46,0,0,1,23.66,6H24a10.93,10.93,0,0,1,1.71.12c.27,0,.54.1.83.17,0,0,.75,0,1,.07l.18,0c.38.08.76.16,1.13.26l.52.14a17.21,17.21,0,0,1,7.92,4.91,16.35,16.35,0,0,1,1.2,1.44l.15.2a5.81,5.81,0,0,1,.64,1.18c.08.17.15.35.23.54l0,.07.09.11c.08.1.22.28.37.5a6.06,6.06,0,0,1,.57,1c.2.5.39,1,.55,1.53A18.66,18.66,0,0,1,42,24Z"/><g opacity=".08"><circle cx="12.14" cy="12.16" r=".5" fill="#b03b16"/><circle cx="13.56" cy="13.57" r=".5" fill="#b03b16"/><circle cx="14.97" cy="14.99" r=".5" fill="#b03b16"/><circle cx="16.38" cy="16.4" r=".5" fill="#b03b16"/><circle cx="17.8" cy="17.81" r=".5" fill="#b03b16"/><circle cx="19.21" cy="19.23" r=".5" fill="#b03b16"/><circle cx="20.63" cy="20.64" r=".5" fill="#b03b16"/><circle cx="22.04" cy="22.06" r=".5" fill="#b03b16"/><circle cx="23.46" cy="23.47" r=".5" fill="#b03b16"/><circle cx="24.87" cy="24.88" r=".5" fill="#b03b16"/><circle cx="26.28" cy="26.3" r=".5" fill="#b03b16"/><circle cx="27.7" cy="27.71" r=".5" fill="#b03b16"/><circle cx="29.11" cy="29.13" r=".5" fill="#b03b16"/><circle cx="30.53" cy="30.54" r=".5" fill="#b03b16"/><circle cx="31.94" cy="31.96" r=".5" fill="#b03b16"/><circle cx="33.35" cy="33.37" r=".5" fill="#b03b16"/><circle cx="34.77" cy="34.78" r=".5" fill="#b03b16"/><circle cx="36.18" cy="36.2" r=".5" fill="#b03b16"/><circle cx="11.56" cy="13.57" r=".5" fill="#b03b16"/><circle cx="12.97" cy="14.99" r=".5" fill="#b03b16"/><circle cx="14.38" cy="16.4" r=".5" fill="#b03b16"/><circle cx="15.8" cy="17.81" r=".5" fill="#b03b16"/><circle cx="17.21" cy="19.23" r=".5" fill="#b03b16"/><circle cx="18.63" cy="20.64" r=".5" fill="#b03b16"/><circle cx="20.04" cy="22.06" r=".5" fill="#b03b16"/><circle cx="21.46" cy="23.47" r=".5" fill="#b03b16"/><circle cx="22.87" cy="24.88" r=".5" fill="#b03b16"/><circle cx="24.28" cy="26.3" r=".5" fill="#b03b16"/><circle cx="25.7" cy="27.71" r=".5" fill="#b03b16"/><circle cx="27.11" cy="29.13" r=".5" fill="#b03b16"/><circle cx="28.53" cy="30.54" r=".5" fill="#b03b16"/><circle cx="29.94" cy="31.96" r=".5" fill="#b03b16"/><circle cx="31.35" cy="33.37" r=".5" fill="#b03b16"/><circle cx="32.77" cy="34.78" r=".5" fill="#b03b16"/><circle cx="34.18" cy="36.2" r=".5" fill="#b03b16"/><path fill="#b03b16" d="M35.59,37.11a.51.51,0,0,0-.5.5.49.49,0,0,0,.21.41c.25-.2.5-.41.74-.63A.51.51,0,0,0,35.59,37.11Z"/><path fill="#b03b16" d="M10.05,13.57a.48.48,0,0,0-.37-.48,6.33,6.33,0,0,0-.55.76.52.52,0,0,0,.42.22A.5.5,0,0,0,10.05,13.57Z"/><circle cx="10.97" cy="14.99" r=".5" fill="#b03b16"/><circle cx="12.38" cy="16.4" r=".5" fill="#b03b16"/><circle cx="13.8" cy="17.81" r=".5" fill="#b03b16"/><circle cx="15.21" cy="19.23" r=".5" fill="#b03b16"/><circle cx="16.63" cy="20.64" r=".5" fill="#b03b16"/><circle cx="18.04" cy="22.06" r=".5" fill="#b03b16"/><circle cx="19.46" cy="23.47" r=".5" fill="#b03b16"/><circle cx="20.87" cy="24.88" r=".5" fill="#b03b16"/><circle cx="22.28" cy="26.3" r=".5" fill="#b03b16"/><circle cx="23.7" cy="27.71" r=".5" fill="#b03b16"/><circle cx="25.11" cy="29.13" r=".5" fill="#b03b16"/><circle cx="26.53" cy="30.54" r=".5" fill="#b03b16"/><circle cx="27.94" cy="31.96" r=".5" fill="#b03b16"/><circle cx="29.35" cy="33.37" r=".5" fill="#b03b16"/><circle cx="30.77" cy="34.78" r=".5" fill="#b03b16"/><circle cx="32.18" cy="36.2" r=".5" fill="#b03b16"/><circle cx="33.6" cy="37.61" r=".5" fill="#b03b16"/><circle cx="8.97" cy="14.99" r=".5" fill="#b03b16"/><circle cx="10.38" cy="16.4" r=".5" fill="#b03b16"/><circle cx="11.8" cy="17.81" r=".5" fill="#b03b16"/><circle cx="13.21" cy="19.23" r=".5" fill="#b03b16"/><circle cx="14.63" cy="20.64" r=".5" fill="#b03b16"/><circle cx="16.04" cy="22.06" r=".5" fill="#b03b16"/><circle cx="17.46" cy="23.47" r=".5" fill="#b03b16"/><circle cx="18.87" cy="24.88" r=".5" fill="#b03b16"/><circle cx="20.28" cy="26.3" r=".5" fill="#b03b16"/><circle cx="21.7" cy="27.71" r=".5" fill="#b03b16"/><circle cx="23.11" cy="29.13" r=".5" fill="#b03b16"/><circle cx="24.53" cy="30.54" r=".5" fill="#b03b16"/><circle cx="25.94" cy="31.96" r=".5" fill="#b03b16"/><circle cx="27.35" cy="33.37" r=".5" fill="#b03b16"/><circle cx="28.77" cy="34.78" r=".5" fill="#b03b16"/><circle cx="30.18" cy="36.2" r=".5" fill="#b03b16"/><circle cx="31.6" cy="37.61" r=".5" fill="#b03b16"/><circle cx="33.01" cy="39.03" r=".5" fill="#b03b16"/><circle cx="8.38" cy="16.4" r=".5" fill="#b03b16"/><circle cx="9.8" cy="17.81" r=".5" fill="#b03b16"/><circle cx="11.21" cy="19.23" r=".5" fill="#b03b16"/><circle cx="12.63" cy="20.64" r=".5" fill="#b03b16"/><circle cx="14.04" cy="22.06" r=".5" fill="#b03b16"/><circle cx="15.46" cy="23.47" r=".5" fill="#b03b16"/><circle cx="16.87" cy="24.88" r=".5" fill="#b03b16"/><circle cx="18.28" cy="26.3" r=".5" fill="#b03b16"/><circle cx="19.7" cy="27.71" r=".5" fill="#b03b16"/><circle cx="21.11" cy="29.13" r=".5" fill="#b03b16"/><circle cx="22.53" cy="30.54" r=".5" fill="#b03b16"/><circle cx="23.94" cy="31.96" r=".5" fill="#b03b16"/><circle cx="25.35" cy="33.37" r=".5" fill="#b03b16"/><circle cx="26.77" cy="34.78" r=".5" fill="#b03b16"/><circle cx="28.18" cy="36.2" r=".5" fill="#b03b16"/><circle cx="29.6" cy="37.61" r=".5" fill="#b03b16"/><circle cx="31.01" cy="39.03" r=".5" fill="#b03b16"/><circle cx="7.8" cy="17.81" r=".5" fill="#b03b16"/><circle cx="9.21" cy="19.23" r=".5" fill="#b03b16"/><circle cx="10.63" cy="20.64" r=".5" fill="#b03b16"/><circle cx="12.04" cy="22.06" r=".5" fill="#b03b16"/><circle cx="13.46" cy="23.47" r=".5" fill="#b03b16"/><circle cx="14.87" cy="24.88" r=".5" fill="#b03b16"/><circle cx="16.28" cy="26.3" r=".5" fill="#b03b16"/><circle cx="17.7" cy="27.71" r=".5" fill="#b03b16"/><circle cx="19.11" cy="29.13" r=".5" fill="#b03b16"/><circle cx="20.53" cy="30.54" r=".5" fill="#b03b16"/><circle cx="21.94" cy="31.96" r=".5" fill="#b03b16"/><circle cx="23.35" cy="33.37" r=".5" fill="#b03b16"/><circle cx="24.77" cy="34.78" r=".5" fill="#b03b16"/><circle cx="26.18" cy="36.2" r=".5" fill="#b03b16"/><circle cx="27.6" cy="37.61" r=".5" fill="#b03b16"/><circle cx="29.01" cy="39.03" r=".5" fill="#b03b16"/><path fill="#b03b16" d="M30.42,39.94a.5.5,0,0,0-.5.5.49.49,0,0,0,.28.45l.1,0a.9.9,0,0,0,.26-.13c.09-.06.18-.13.35-.23a.13.13,0,0,0,0-.06A.5.5,0,0,0,30.42,39.94Z"/><circle cx="7.21" cy="19.23" r=".5" fill="#b03b16"/><circle cx="8.63" cy="20.64" r=".5" fill="#b03b16"/><circle cx="10.04" cy="22.06" r=".5" fill="#b03b16"/><circle cx="11.46" cy="23.47" r=".5" fill="#b03b16"/><circle cx="12.87" cy="24.88" r=".5" fill="#b03b16"/><circle cx="14.28" cy="26.3" r=".5" fill="#b03b16"/><circle cx="15.7" cy="27.71" r=".5" fill="#b03b16"/><circle cx="17.11" cy="29.13" r=".5" fill="#b03b16"/><circle cx="18.53" cy="30.54" r=".5" fill="#b03b16"/><circle cx="19.94" cy="31.96" r=".5" fill="#b03b16"/><circle cx="21.35" cy="33.37" r=".5" fill="#b03b16"/><circle cx="22.77" cy="34.78" r=".5" fill="#b03b16"/><circle cx="24.18" cy="36.2" r=".5" fill="#b03b16"/><circle cx="25.6" cy="37.61" r=".5" fill="#b03b16"/><circle cx="27.01" cy="39.03" r=".5" fill="#b03b16"/><circle cx="28.43" cy="40.44" r=".5" fill="#b03b16"/><path fill="#b03b16" d="M7.12,20.64a.5.5,0,0,0-.5-.5.46.46,0,0,0-.23.06c-.06.25-.11.5-.15.76a.5.5,0,0,0,.88-.32Z"/><circle cx="8.04" cy="22.06" r=".5" fill="#b03b16"/><circle cx="9.46" cy="23.47" r=".5" fill="#b03b16"/><circle cx="10.87" cy="24.88" r=".5" fill="#b03b16"/><circle cx="12.28" cy="26.3" r=".5" fill="#b03b16"/><circle cx="13.7" cy="27.71" r=".5" fill="#b03b16"/><circle cx="15.11" cy="29.13" r=".5" fill="#b03b16"/><circle cx="16.53" cy="30.54" r=".5" fill="#b03b16"/><circle cx="17.94" cy="31.96" r=".5" fill="#b03b16"/><circle cx="19.35" cy="33.37" r=".5" fill="#b03b16"/><circle cx="20.77" cy="34.78" r=".5" fill="#b03b16"/><circle cx="22.18" cy="36.2" r=".5" fill="#b03b16"/><circle cx="23.6" cy="37.61" r=".5" fill="#b03b16"/><circle cx="25.01" cy="39.03" r=".5" fill="#b03b16"/><circle cx="26.43" cy="40.44" r=".5" fill="#b03b16"/><path fill="#b03b16" d="M6.54,22.06a.5.5,0,0,0-.39-.49c-.05.33-.08.66-.11,1A.51.51,0,0,0,6.54,22.06Z"/><circle cx="7.46" cy="23.47" r=".5" fill="#b03b16"/><circle cx="8.87" cy="24.88" r=".5" fill="#b03b16"/><circle cx="10.28" cy="26.3" r=".5" fill="#b03b16"/><circle cx="11.7" cy="27.71" r=".5" fill="#b03b16"/><circle cx="13.11" cy="29.13" r=".5" fill="#b03b16"/><circle cx="14.53" cy="30.54" r=".5" fill="#b03b16"/><circle cx="15.94" cy="31.96" r=".5" fill="#b03b16"/><circle cx="17.35" cy="33.37" r=".5" fill="#b03b16"/><circle cx="18.77" cy="34.78" r=".5" fill="#b03b16"/><circle cx="20.18" cy="36.2" r=".5" fill="#b03b16"/><circle cx="21.6" cy="37.61" r=".5" fill="#b03b16"/><circle cx="23.01" cy="39.03" r=".5" fill="#b03b16"/><circle cx="24.43" cy="40.44" r=".5" fill="#b03b16"/><path fill="#b03b16" d="M25.84,41.36a.5.5,0,0,0-.5.5.28.28,0,0,0,0,.09l1-.11A.5.5,0,0,0,25.84,41.36Z"/><circle cx="6.87" cy="24.88" r=".5" fill="#b03b16"/><circle cx="8.28" cy="26.3" r=".5" fill="#b03b16"/><circle cx="9.7" cy="27.71" r=".5" fill="#b03b16"/><circle cx="11.11" cy="29.13" r=".5" fill="#b03b16"/><circle cx="12.53" cy="30.54" r=".5" fill="#b03b16"/><circle cx="13.94" cy="31.96" r=".5" fill="#b03b16"/><circle cx="15.35" cy="33.37" r=".5" fill="#b03b16"/><circle cx="16.77" cy="34.78" r=".5" fill="#b03b16"/><circle cx="18.18" cy="36.2" r=".5" fill="#b03b16"/><circle cx="19.6" cy="37.61" r=".5" fill="#b03b16"/><circle cx="21.01" cy="39.03" r=".5" fill="#b03b16"/><circle cx="22.43" cy="40.44" r=".5" fill="#b03b16"/><path fill="#b03b16" d="M23.84,41.36a.5.5,0,0,0-.5.5.59.59,0,0,0,0,.13h1a.59.59,0,0,0,0-.13A.5.5,0,0,0,23.84,41.36Z"/><path fill="#b03b16" d="M6.28,25.8a.45.45,0,0,0-.2,0,.86.86,0,0,0,0,.16,4.53,4.53,0,0,0,.16.8h0a.5.5,0,0,0,0-1Z"/><circle cx="7.7" cy="27.71" r=".5" fill="#b03b16"/><circle cx="9.11" cy="29.13" r=".5" fill="#b03b16"/><circle cx="10.53" cy="30.54" r=".5" fill="#b03b16"/><circle cx="11.94" cy="31.96" r=".5" fill="#b03b16"/><circle cx="13.35" cy="33.37" r=".5" fill="#b03b16"/><circle cx="14.77" cy="34.78" r=".5" fill="#b03b16"/><circle cx="16.18" cy="36.2" r=".5" fill="#b03b16"/><circle cx="17.6" cy="37.61" r=".5" fill="#b03b16"/><circle cx="19.01" cy="39.03" r=".5" fill="#b03b16"/><circle cx="20.43" cy="40.44" r=".5" fill="#b03b16"/><path fill="#b03b16" d="M21.84,41.36a.48.48,0,0,0-.49.43c.32.06.65.1,1,.13a.13.13,0,0,0,0-.06A.5.5,0,0,0,21.84,41.36Z"/><path fill="#b03b16" d="M7.11,28.63a.49.49,0,0,0-.44.26h0l.12.6h0a.48.48,0,0,0,.32.12.51.51,0,0,0,.5-.5A.5.5,0,0,0,7.11,28.63Z"/><circle cx="8.53" cy="30.54" r=".5" fill="#b03b16"/><circle cx="9.94" cy="31.96" r=".5" fill="#b03b16"/><circle cx="11.35" cy="33.37" r=".5" fill="#b03b16"/><circle cx="12.77" cy="34.78" r=".5" fill="#b03b16"/><circle cx="14.18" cy="36.2" r=".5" fill="#b03b16"/><circle cx="15.6" cy="37.61" r=".5" fill="#b03b16"/><circle cx="17.01" cy="39.03" r=".5" fill="#b03b16"/><circle cx="18.43" cy="40.44" r=".5" fill="#b03b16"/><path fill="#b03b16" d="M7.94,31.46a.57.57,0,0,0-.36.14c.13.29.27.57.43.85A.5.5,0,0,0,8.44,32,.5.5,0,0,0,7.94,31.46Z"/><circle cx="9.35" cy="33.37" r=".5" fill="#b03b16"/><circle cx="10.77" cy="34.78" r=".5" fill="#b03b16"/><circle cx="12.18" cy="36.2" r=".5" fill="#b03b16"/><circle cx="13.6" cy="37.61" r=".5" fill="#b03b16"/><path fill="#b03b16" d="M15,38.53a.5.5,0,0,0-.5.5.5.5,0,0,0,0,.12l.64.35a.5.5,0,0,0-.16-1Z"/><path fill="#b03b16" d="M16.42,39.94a.52.52,0,0,0-.32.11l.7.39.11.06a.13.13,0,0,0,0-.06A.5.5,0,0,0,16.42,39.94Z"/><circle cx="12.73" cy="10.74" r=".5" fill="#b03b16"/><circle cx="14.14" cy="12.16" r=".5" fill="#b03b16"/><circle cx="15.56" cy="13.57" r=".5" fill="#b03b16"/><circle cx="16.97" cy="14.99" r=".5" fill="#b03b16"/><circle cx="18.38" cy="16.4" r=".5" fill="#b03b16"/><circle cx="19.8" cy="17.81" r=".5" fill="#b03b16"/><circle cx="21.21" cy="19.23" r=".5" fill="#b03b16"/><circle cx="22.63" cy="20.64" r=".5" fill="#b03b16"/><circle cx="24.04" cy="22.06" r=".5" fill="#b03b16"/><circle cx="25.46" cy="23.47" r=".5" fill="#b03b16"/><circle cx="26.87" cy="24.88" r=".5" fill="#b03b16"/><circle cx="28.28" cy="26.3" r=".5" fill="#b03b16"/><circle cx="29.7" cy="27.71" r=".5" fill="#b03b16"/><circle cx="31.11" cy="29.13" r=".5" fill="#b03b16"/><circle cx="32.53" cy="30.54" r=".5" fill="#b03b16"/><circle cx="33.94" cy="31.96" r=".5" fill="#b03b16"/><circle cx="35.35" cy="33.37" r=".5" fill="#b03b16"/><circle cx="36.77" cy="34.78" r=".5" fill="#b03b16"/><circle cx="14.73" cy="10.74" r=".5" fill="#b03b16"/><circle cx="16.14" cy="12.16" r=".5" fill="#b03b16"/><circle cx="17.56" cy="13.57" r=".5" fill="#b03b16"/><circle cx="18.97" cy="14.99" r=".5" fill="#b03b16"/><circle cx="20.38" cy="16.4" r=".5" fill="#b03b16"/><circle cx="21.8" cy="17.81" r=".5" fill="#b03b16"/><circle cx="23.21" cy="19.23" r=".5" fill="#b03b16"/><circle cx="24.63" cy="20.64" r=".5" fill="#b03b16"/><circle cx="26.04" cy="22.06" r=".5" fill="#b03b16"/><circle cx="27.46" cy="23.47" r=".5" fill="#b03b16"/><circle cx="28.87" cy="24.88" r=".5" fill="#b03b16"/><circle cx="30.28" cy="26.3" r=".5" fill="#b03b16"/><circle cx="31.7" cy="27.71" r=".5" fill="#b03b16"/><circle cx="33.11" cy="29.13" r=".5" fill="#b03b16"/><circle cx="34.53" cy="30.54" r=".5" fill="#b03b16"/><circle cx="35.94" cy="31.96" r=".5" fill="#b03b16"/><circle cx="37.35" cy="33.37" r=".5" fill="#b03b16"/><circle cx="15.31" cy="9.33" r=".5" fill="#b03b16"/><circle cx="16.73" cy="10.74" r=".5" fill="#b03b16"/><circle cx="18.14" cy="12.16" r=".5" fill="#b03b16"/><circle cx="19.56" cy="13.57" r=".5" fill="#b03b16"/><circle cx="20.97" cy="14.99" r=".5" fill="#b03b16"/><circle cx="22.38" cy="16.4" r=".5" fill="#b03b16"/><circle cx="23.8" cy="17.81" r=".5" fill="#b03b16"/><circle cx="25.21" cy="19.23" r=".5" fill="#b03b16"/><circle cx="26.63" cy="20.64" r=".5" fill="#b03b16"/><circle cx="28.04" cy="22.06" r=".5" fill="#b03b16"/><circle cx="29.46" cy="23.47" r=".5" fill="#b03b16"/><circle cx="30.87" cy="24.88" r=".5" fill="#b03b16"/><circle cx="32.28" cy="26.3" r=".5" fill="#b03b16"/><circle cx="33.7" cy="27.71" r=".5" fill="#b03b16"/><circle cx="35.11" cy="29.13" r=".5" fill="#b03b16"/><circle cx="36.53" cy="30.54" r=".5" fill="#b03b16"/><circle cx="37.94" cy="31.96" r=".5" fill="#b03b16"/><path fill="#b03b16" d="M38.85,33.37a.5.5,0,0,0,.24.43c.18-.28.35-.57.52-.86a.53.53,0,0,0-.26-.07A.5.5,0,0,0,38.85,33.37Z"/><path fill="#b03b16" d="M15.89,8.41a.5.5,0,0,0,.5-.5.46.46,0,0,0-.05-.2l-.46.23c-.09,0-.17.08-.26.12l-.16.09A.47.47,0,0,0,15.89,8.41Z"/><circle cx="17.31" cy="9.33" r=".5" fill="#b03b16"/><circle cx="18.73" cy="10.74" r=".5" fill="#b03b16"/><circle cx="20.14" cy="12.16" r=".5" fill="#b03b16"/><circle cx="21.56" cy="13.57" r=".5" fill="#b03b16"/><circle cx="22.97" cy="14.99" r=".5" fill="#b03b16"/><circle cx="24.38" cy="16.4" r=".5" fill="#b03b16"/><circle cx="25.8" cy="17.81" r=".5" fill="#b03b16"/><circle cx="27.21" cy="19.23" r=".5" fill="#b03b16"/><circle cx="28.63" cy="20.64" r=".5" fill="#b03b16"/><circle cx="30.04" cy="22.06" r=".5" fill="#b03b16"/><circle cx="31.46" cy="23.47" r=".5" fill="#b03b16"/><circle cx="32.87" cy="24.88" r=".5" fill="#b03b16"/><circle cx="34.28" cy="26.3" r=".5" fill="#b03b16"/><circle cx="35.7" cy="27.71" r=".5" fill="#b03b16"/><circle cx="37.11" cy="29.13" r=".5" fill="#b03b16"/><circle cx="38.53" cy="30.54" r=".5" fill="#b03b16"/><path fill="#b03b16" d="M39.44,32a.49.49,0,0,0,.43.49l.17-.31.09-.16.17-.36a.47.47,0,0,0-.36-.16A.5.5,0,0,0,39.44,32Z"/><circle cx="17.9" cy="7.91" r=".5" fill="#b03b16"/><circle cx="19.31" cy="9.33" r=".5" fill="#b03b16"/><circle cx="20.73" cy="10.74" r=".5" fill="#b03b16"/><circle cx="22.14" cy="12.16" r=".5" fill="#b03b16"/><circle cx="23.56" cy="13.57" r=".5" fill="#b03b16"/><circle cx="24.97" cy="14.99" r=".5" fill="#b03b16"/><circle cx="26.38" cy="16.4" r=".5" fill="#b03b16"/><circle cx="27.8" cy="17.81" r=".5" fill="#b03b16"/><circle cx="29.21" cy="19.23" r=".5" fill="#b03b16"/><circle cx="30.63" cy="20.64" r=".5" fill="#b03b16"/><circle cx="32.04" cy="22.06" r=".5" fill="#b03b16"/><circle cx="33.46" cy="23.47" r=".5" fill="#b03b16"/><circle cx="34.87" cy="24.88" r=".5" fill="#b03b16"/><circle cx="36.28" cy="26.3" r=".5" fill="#b03b16"/><circle cx="37.7" cy="27.71" r=".5" fill="#b03b16"/><circle cx="39.11" cy="29.13" r=".5" fill="#b03b16"/><path fill="#b03b16" d="M40,30.54a.5.5,0,0,0,.5.5h0a1,1,0,0,0,.07-.34.17.17,0,0,1,0-.07,1.68,1.68,0,0,1,.14-.52.43.43,0,0,0-.25-.07A.51.51,0,0,0,40,30.54Z"/><circle cx="19.9" cy="7.91" r=".5" fill="#b03b16"/><circle cx="21.31" cy="9.33" r=".5" fill="#b03b16"/><circle cx="22.73" cy="10.74" r=".5" fill="#b03b16"/><circle cx="24.14" cy="12.16" r=".5" fill="#b03b16"/><circle cx="25.56" cy="13.57" r=".5" fill="#b03b16"/><circle cx="26.97" cy="14.99" r=".5" fill="#b03b16"/><circle cx="28.38" cy="16.4" r=".5" fill="#b03b16"/><circle cx="29.8" cy="17.81" r=".5" fill="#b03b16"/><circle cx="31.21" cy="19.23" r=".5" fill="#b03b16"/><circle cx="32.63" cy="20.64" r=".5" fill="#b03b16"/><circle cx="34.04" cy="22.06" r=".5" fill="#b03b16"/><circle cx="35.46" cy="23.47" r=".5" fill="#b03b16"/><circle cx="36.87" cy="24.88" r=".5" fill="#b03b16"/><circle cx="38.28" cy="26.3" r=".5" fill="#b03b16"/><circle cx="39.7" cy="27.71" r=".5" fill="#b03b16"/><path fill="#b03b16" d="M40.61,29.13a.5.5,0,0,0,.42.49.47.47,0,0,0,.13-.23l.06-.2c.05-.17.1-.33.14-.49a.43.43,0,0,0-.25-.07A.5.5,0,0,0,40.61,29.13Z"/><path fill="#b03b16" d="M20.48,7a.5.5,0,0,0,.5-.5.46.46,0,0,0-.06-.23c-.32.05-.62.11-.93.18h0v0A.5.5,0,0,0,20.48,7Z"/><circle cx="21.9" cy="7.91" r=".5" fill="#b03b16"/><circle cx="23.31" cy="9.33" r=".5" fill="#b03b16"/><circle cx="24.73" cy="10.74" r=".5" fill="#b03b16"/><circle cx="26.14" cy="12.16" r=".5" fill="#b03b16"/><circle cx="27.56" cy="13.57" r=".5" fill="#b03b16"/><circle cx="28.97" cy="14.99" r=".5" fill="#b03b16"/><circle cx="30.38" cy="16.4" r=".5" fill="#b03b16"/><circle cx="31.8" cy="17.81" r=".5" fill="#b03b16"/><circle cx="33.21" cy="19.23" r=".5" fill="#b03b16"/><circle cx="34.63" cy="20.64" r=".5" fill="#b03b16"/><circle cx="36.04" cy="22.06" r=".5" fill="#b03b16"/><circle cx="37.46" cy="23.47" r=".5" fill="#b03b16"/><circle cx="38.87" cy="24.88" r=".5" fill="#b03b16"/><circle cx="40.28" cy="26.3" r=".5" fill="#b03b16"/><path fill="#b03b16" d="M41.19,27.71a.49.49,0,0,0,.3.46,1.83,1.83,0,0,0,.06-.25c.05-.23.1-.47.14-.71A.51.51,0,0,0,41.19,27.71Z"/><path fill="#b03b16" d="M22.48,7a.5.5,0,0,0,.5-.5.49.49,0,0,0-.28-.45l-.53,0a.51.51,0,0,0-.19.4A.5.5,0,0,0,22.48,7Z"/><circle cx="23.9" cy="7.91" r=".5" fill="#b03b16"/><circle cx="25.31" cy="9.33" r=".5" fill="#b03b16"/><circle cx="26.73" cy="10.74" r=".5" fill="#b03b16"/><circle cx="28.14" cy="12.16" r=".5" fill="#b03b16"/><circle cx="29.56" cy="13.57" r=".5" fill="#b03b16"/><circle cx="30.97" cy="14.99" r=".5" fill="#b03b16"/><circle cx="32.38" cy="16.4" r=".5" fill="#b03b16"/><circle cx="33.8" cy="17.81" r=".5" fill="#b03b16"/><circle cx="35.21" cy="19.23" r=".5" fill="#b03b16"/><circle cx="36.63" cy="20.64" r=".5" fill="#b03b16"/><circle cx="38.04" cy="22.06" r=".5" fill="#b03b16"/><circle cx="39.46" cy="23.47" r=".5" fill="#b03b16"/><circle cx="40.87" cy="24.88" r=".5" fill="#b03b16"/><circle cx="24.48" cy="6.5" r=".5" fill="#b03b16"/><circle cx="25.9" cy="7.91" r=".5" fill="#b03b16"/><circle cx="27.31" cy="9.33" r=".5" fill="#b03b16"/><circle cx="28.73" cy="10.74" r=".5" fill="#b03b16"/><circle cx="30.14" cy="12.16" r=".5" fill="#b03b16"/><circle cx="31.56" cy="13.57" r=".5" fill="#b03b16"/><circle cx="32.97" cy="14.99" r=".5" fill="#b03b16"/><circle cx="34.38" cy="16.4" r=".5" fill="#b03b16"/><circle cx="35.8" cy="17.81" r=".5" fill="#b03b16"/><circle cx="37.21" cy="19.23" r=".5" fill="#b03b16"/><circle cx="38.63" cy="20.64" r=".5" fill="#b03b16"/><circle cx="40.04" cy="22.06" r=".5" fill="#b03b16"/><circle cx="41.46" cy="23.47" r=".5" fill="#b03b16"/><path fill="#b03b16" d="M26.48,7a.5.5,0,0,0,.5-.5.41.41,0,0,0,0-.19l-.42,0-.44-.1a.52.52,0,0,0-.1.31A.5.5,0,0,0,26.48,7Z"/><circle cx="27.9" cy="7.91" r=".5" fill="#b03b16"/><circle cx="29.31" cy="9.33" r=".5" fill="#b03b16"/><circle cx="30.73" cy="10.74" r=".5" fill="#b03b16"/><circle cx="32.14" cy="12.16" r=".5" fill="#b03b16"/><circle cx="33.56" cy="13.57" r=".5" fill="#b03b16"/><circle cx="34.97" cy="14.99" r=".5" fill="#b03b16"/><circle cx="36.38" cy="16.4" r=".5" fill="#b03b16"/><circle cx="37.8" cy="17.81" r=".5" fill="#b03b16"/><circle cx="39.21" cy="19.23" r=".5" fill="#b03b16"/><circle cx="40.63" cy="20.64" r=".5" fill="#b03b16"/><path fill="#b03b16" d="M41.92,22.54c0-.31-.06-.62-.1-.93a.5.5,0,0,0,.1.93Z"/><path fill="#b03b16" d="M28.48,7a.48.48,0,0,0,.46-.3l-.13,0L28,6.46v0A.5.5,0,0,0,28.48,7Z"/><circle cx="29.9" cy="7.91" r=".5" fill="#b03b16"/><circle cx="31.31" cy="9.33" r=".5" fill="#b03b16"/><circle cx="32.73" cy="10.74" r=".5" fill="#b03b16"/><circle cx="34.14" cy="12.16" r=".5" fill="#b03b16"/><circle cx="35.56" cy="13.57" r=".5" fill="#b03b16"/><circle cx="36.97" cy="14.99" r=".5" fill="#b03b16"/><circle cx="38.38" cy="16.4" r=".5" fill="#b03b16"/><circle cx="39.8" cy="17.81" r=".5" fill="#b03b16"/><path fill="#b03b16" d="M41.21,19.73a.4.4,0,0,0,.24-.07c-.07-.31-.15-.62-.25-.93a.49.49,0,0,0-.49.5A.5.5,0,0,0,41.21,19.73Z"/><path fill="#b03b16" d="M31.89,8.41A.49.49,0,0,0,32.38,8h0q-.42-.22-.87-.42a.53.53,0,0,0-.12.32A.5.5,0,0,0,31.89,8.41Z"/><circle cx="33.31" cy="9.33" r=".5" fill="#b03b16"/><circle cx="34.73" cy="10.74" r=".5" fill="#b03b16"/><circle cx="36.14" cy="12.16" r=".5" fill="#b03b16"/><circle cx="37.56" cy="13.57" r=".5" fill="#b03b16"/><path fill="#b03b16" d="M39,15.49a.5.5,0,0,0,.49-.43h0c-.07-.17-.13-.32-.2-.47h0a.54.54,0,0,0-.28-.08.5.5,0,0,0-.5.5A.5.5,0,0,0,39,15.49Z"/><path fill="#b03b16" d="M40.38,16.9a.57.57,0,0,0,.18,0l0-.08A4.83,4.83,0,0,0,40.1,16a.51.51,0,0,0-.22.42A.5.5,0,0,0,40.38,16.9Z"/></g><path fill="url(#qdmI3_uXSqn9lUCY7JAkwa)" d="M13.83,22.18c2.07,1.28,4,4.24,6,7.42A54.84,54.84,0,0,0,24,35.78a39.73,39.73,0,0,1-5.68-7c-1.84-3.19-3.12-4.63-5-5.79Z" opacity=".6"/><path fill="url(#qdmI3_uXSqn9lUCY7JAkwc)" d="M12.44,22.64h-.13a4.19,4.19,0,0,0-1.21.25c-1.93.76-3.39,1.74-4.45,5.72,0-.1,0-.2,0-.29a2.88,2.88,0,0,1,0-.39,1.56,1.56,0,0,1,0-.24A6.29,6.29,0,0,1,10.73,22a5.78,5.78,0,0,1,1.85-.39Z" opacity=".8"/><path fill="url(#qdmI3_uXSqn9lUCY7JAkwd)" d="M15.85,13.58l0,0c-.16.29-.34.57-.53.86l-.1-.05a4.78,4.78,0,0,1-2.55-3.05,3.66,3.66,0,0,1-.16-1.24,7.3,7.3,0,0,1,.67-.5A5.39,5.39,0,0,1,14,9.2a1.79,1.79,0,0,0-.3,1.89,3.86,3.86,0,0,0,2,2.43Z"/><path fill="url(#qdmI3_uXSqn9lUCY7JAkwe)" d="M41.1,18.32a10.16,10.16,0,0,0-2.89-3.13C36.51,14,35,13.77,32.33,13.77h-.14a52.21,52.21,0,0,0-6.81.56l-1,.14a47.63,47.63,0,0,1-5.9.55c-.5,0-.95,0-1.37-.06l-.42-.07c.17-.32.34-.63.52-.93a39.79,39.79,0,0,0,8.07-.62,52.15,52.15,0,0,1,7.08-.57c3,0,5.17.3,7.19,2.37l.09.11c.08.1.22.28.37.5a6.06,6.06,0,0,1,.57,1C40.75,17.29,40.94,17.8,41.1,18.32Z"/><path fill="url(#qdmI3_uXSqn9lUCY7JAkwf)" d="M13.15,30.53c-.14,1.44,0,4.9,0,4.9-.86-3-1-7.36.68-13.22a7,7,0,0,1,.87.65C13.07,29,13.43,27.6,13.15,30.53Z" opacity=".7"/><path fill="url(#qdmI3_uXSqn9lUCY7JAkwg)" d="M17.18,14c-.42.7-1.33,2.38-1.33,2.38s-.63,1.4-.64,1.39c-.37,1-.58,2-.87,2.89a8.49,8.49,0,0,1,.87.56c0-.08,0-.17.08-.25.28-.86.61-1.8,1-2.77l.62-1.48c.39-.83.76-1.55,1.15-2.22l.27-.44A10.15,10.15,0,0,1,17.18,14Z"/><path fill="url(#qdmI3_uXSqn9lUCY7JAkwh)" d="M28.83,6.66c-.93.09-1.78.18-2.21.27-3.09.58-5.08,2.65-7.37,5.73a10.87,10.87,0,0,1-1.16,0H18l0-.06c2.79-3.82,4.85-5.78,8.46-6.27,0,0,.75,0,1,.07l.18,0C28.08,6.48,28.46,6.56,28.83,6.66Z"/><path fill="#333535" d="M26.54,6.29c-3.61.49-5.67,2.45-8.46,6.27a14.64,14.64,0,0,0-.9,1.4A23.57,23.57,0,0,0,16,16.32c-.19.43-.38.87-.56,1.34l0,.05c-.39,1-.74,2-1,2.91-.16.51-.31,1-.44,1.49-1.68,5.91-1.58,10.33-.71,13.32a11,11,0,0,0,2.08,4.11c-.28-.14-.84-.44-1.44-.8-2.4-3.34-3.52-9.61-1.34-17.19.14-.47.29-1,.45-1.46.29-.9.62-1.83,1-2.8a.87.87,0,0,0,.07-.17c.16-.42.37-.82.55-1.21a24.12,24.12,0,0,1,1.33-2.31,11.73,11.73,0,0,1,.92-1.34C20,7.94,22.43,6.32,25.71,6.12,26,6.16,26.25,6.22,26.54,6.29Z"/><path fill="#333535" d="M39.52,15.14c-2-2.07-4.24-2.37-7.19-2.37a52.15,52.15,0,0,0-7.08.57,39.79,39.79,0,0,1-8.07.62A4.55,4.55,0,0,1,16,13.63l-.11-.05-.15-.06a3.86,3.86,0,0,1-2-2.43A1.79,1.79,0,0,1,14,9.2a5.7,5.7,0,0,1,.72-.29,2.38,2.38,0,0,0,.2,1.86,2.94,2.94,0,0,0,1.61,1.46h0a5.54,5.54,0,0,0,1.58.39,37.42,37.42,0,0,0,6.83-.56,44.28,44.28,0,0,1,7.88-.48,8.7,8.7,0,0,1,6.46,2.94c.08.17.15.35.23.54Z"/><path fill="url(#qdmI3_uXSqn9lUCY7JAkwi)" d="M13.88,17.43c-.13.32-.24.64-.35.95l-.26-.07a25,25,0,0,0-4.33-.79,3.66,3.66,0,0,0-1.8.19,5.52,5.52,0,0,1,.42-.8l.15-.2h0C9.09,16.15,12,16.94,13.88,17.43Z" opacity=".8"/><path fill="url(#qdmI3_uXSqn9lUCY7JAkwj)" d="M40.65,30.63a.17.17,0,0,0,0,.07,1.09,1.09,0,0,1-.07.35c-.14.34-.28.62-.42.93l-.42-1c-.35-.81-4-3.44-7.27-5a122.66,122.66,0,0,0-17.4-7.19l-.08,0c.1-.31.22-.63.35-.95h0a124.19,124.19,0,0,1,17.54,7.25C35.72,26.47,40.08,29.3,40.65,30.63Z" opacity=".8"/><path fill="#333535" d="M41,29.73l-.11.21a2.1,2.1,0,0,0-.21.69c-.57-1.33-4.93-4.16-7.76-5.52a124.19,124.19,0,0,0-17.54-7.25c-.36-.12-.72-.22-1.07-.32l-.38-.1C12,17,9.09,16.15,7.72,16.71h0a3,3,0,0,0,.19-.32L8,16.24l.08-.2c0-.1.07-.17.09-.21s0-.08,0-.12v0h0c1-1,5.05,0,6.42.34.07,0,.89.27,1.32.38a106,106,0,0,1,17.61,7.19C36.38,25.07,41.19,27.93,41,29.73Z"/><path fill="#333535" d="M31.41,40.31a6.72,6.72,0,0,1-.83.42c-2.25.32-5.09-3.14-6.59-4.95a54.84,54.84,0,0,1-4.2-6.18c-2-3.18-3.89-6.14-6-7.42-.24-.16-.41-.39-.67-.46a4.45,4.45,0,0,0-2.43.24,6.29,6.29,0,0,0-4.14,5.73l-.21-.53A6.41,6.41,0,0,1,9.68,21a5.74,5.74,0,0,1,3.34-.8,3.5,3.5,0,0,1,.7.15,5,5,0,0,1,.62.3c2.53,1.37,4.57,4.69,6.73,8.2,1.29,2.09,2.7,4.2,4.07,6C26.66,36.82,29.32,40.19,31.41,40.31Z"/><path fill="#333535" d="M7.71,16.71a3,3,0,0,0,.19-.32,3.13,3.13,0,0,1-.16.29s0,0,0,0Z"/><path fill="#333535" d="M8.19,15.68s0,0,0,0v0Z"/><path fill="#333535" d="M31.37,40.33a6.37,6.37,0,0,1-.79.4c.1-.07.2-.14.39-.25l.14-.07Z"/><path fill="url(#qdmI3_uXSqn9lUCY7JAkwk)" d="M42,24a18.11,18.11,0,0,1-.43,3.92,2.46,2.46,0,0,1-.07.29c-.08.34-.16.64-.26,1l-.06.2c0,.17-.11.19-.21.34l-.11.21a2.1,2.1,0,0,0-.21.69.17.17,0,0,0,0,.07,1.09,1.09,0,0,1-.07.35c-.14.34-.28.62-.42.93l-.09.16a18.05,18.05,0,0,1-8,8,2.27,2.27,0,0,1-.45.13,3.41,3.41,0,0,0-.51.15l-.14.07c-.19.11-.29.18-.39.25a.9.9,0,0,1-.26.13l-.84.28-.81.23A18,18,0,0,1,24,42a17.83,17.83,0,0,1-6.54-1.27c-.21-.08-.42-.18-.64-.29s-.65-.36-1-.58l-.35-.22-.19-.1c-.28-.14-.84-.44-1.44-.8-.35-.22-.72-.45-1.05-.69a5.76,5.76,0,0,1-.53-.42l-.39-.36a17.24,17.24,0,0,1-5-7.58,7.57,7.57,0,0,1-.2-1.08c0-.1,0-.2,0-.29a2.88,2.88,0,0,1,0-.39,1.56,1.56,0,0,1,0-.24s-.21-.51-.21-.53A5.69,5.69,0,0,1,6.11,26c0-.2,0-.4-.05-.6C6,24.94,6,24.47,6,24c0-.16,0-.32,0-.47A17.89,17.89,0,0,1,7.1,17.79a.2.2,0,0,1,0-.08,5.52,5.52,0,0,1,.42-.8l.15-.2h0s0,0,0,0a3.13,3.13,0,0,0,.16-.29L8,16.24l.08-.2.09-.21c0-.09,0-.08,0-.12s0,0,0,0a1.8,1.8,0,0,1,.05-.19c0-.1.06-.2.1-.31a1.23,1.23,0,0,1,.12-.26c.11-.19.22-.38.34-.56a17.66,17.66,0,0,1,3.12-3.71c.19-.16.39-.35.62-.53a7.3,7.3,0,0,1,.67-.5A5.39,5.39,0,0,1,14,9.2a5.7,5.7,0,0,1,.72-.29l0,0,.08-.11a2.57,2.57,0,0,1,.85-.7c.09,0,.17-.09.26-.12a15.85,15.85,0,0,1,2-.87,17.56,17.56,0,0,1,3.91-.93A16.46,16.46,0,0,1,23.66,6H24a10.93,10.93,0,0,1,1.71.12c.27,0,.54.1.83.17,0,0,.75,0,1,.07l.18,0c.38.08.76.16,1.13.26l.52.14a17.21,17.21,0,0,1,7.92,4.91,16.35,16.35,0,0,1,1.2,1.44l.15.2a5.81,5.81,0,0,1,.64,1.18c.08.17.15.35.23.54l0,.07.09.11c.08.1.22.28.37.5a6.06,6.06,0,0,1,.57,1c.2.5.39,1,.55,1.53A18.66,18.66,0,0,1,42,24Z" opacity=".8"/><path fill="url(#qdmI3_uXSqn9lUCY7JAkwl)" d="M42,24a18.11,18.11,0,0,1-.43,3.92,2.46,2.46,0,0,1-.07.29c-.08.34-.16.64-.26,1l-.06.2c0,.17-.11.19-.21.34l-.11.21a2.1,2.1,0,0,0-.21.69.17.17,0,0,0,0,.07,1.09,1.09,0,0,1-.07.35c-.14.34-.28.62-.42.93l-.09.16a18.05,18.05,0,0,1-8,8,2.27,2.27,0,0,1-.45.13,3.41,3.41,0,0,0-.51.15l-.14.07c-.19.11-.29.18-.39.25a.9.9,0,0,1-.26.13l-.84.28-.81.23A18,18,0,0,1,24,42a17.83,17.83,0,0,1-6.54-1.27c-.21-.08-.42-.18-.64-.29s-.65-.36-1-.58l-.35-.22-.19-.1c-.28-.14-.84-.44-1.44-.8-.35-.22-.72-.45-1.05-.69a5.76,5.76,0,0,1-.53-.42l-.39-.36a17.24,17.24,0,0,1-5-7.58,7.57,7.57,0,0,1-.2-1.08c0-.1,0-.2,0-.29a2.88,2.88,0,0,1,0-.39,1.56,1.56,0,0,1,0-.24s-.21-.51-.21-.53A5.69,5.69,0,0,1,6.11,26c0-.2,0-.4-.05-.6C6,24.94,6,24.47,6,24c0-.16,0-.32,0-.47A17.89,17.89,0,0,1,7.1,17.79a.2.2,0,0,1,0-.08,5.52,5.52,0,0,1,.42-.8l.15-.2h0s0,0,0,0a3.13,3.13,0,0,0,.16-.29L8,16.24l.08-.2.09-.21c0-.09,0-.08,0-.12s0,0,0,0a1.8,1.8,0,0,1,.05-.19c0-.1.06-.2.1-.31a1.23,1.23,0,0,1,.12-.26c.11-.19.22-.38.34-.56a17.66,17.66,0,0,1,3.12-3.71c.19-.16.39-.35.62-.53a7.3,7.3,0,0,1,.67-.5A5.39,5.39,0,0,1,14,9.2a5.7,5.7,0,0,1,.72-.29l0,0,.08-.11a2.57,2.57,0,0,1,.85-.7c.09,0,.17-.09.26-.12a15.85,15.85,0,0,1,2-.87,17.56,17.56,0,0,1,3.91-.93A16.46,16.46,0,0,1,23.66,6H24a10.93,10.93,0,0,1,1.71.12c.27,0,.54.1.83.17,0,0,.75,0,1,.07l.18,0c.38.08.76.16,1.13.26l.52.14a17.21,17.21,0,0,1,7.92,4.91,16.35,16.35,0,0,1,1.2,1.44l.15.2a5.81,5.81,0,0,1,.64,1.18c.08.17.15.35.23.54l0,.07.09.11c.08.1.22.28.37.5a6.06,6.06,0,0,1,.57,1c.2.5.39,1,.55,1.53A18.66,18.66,0,0,1,42,24Z"/></g></svg>