<svg xmlns="http://www.w3.org/2000/svg" viewBox="0 0 48 48"><path fill="#dff0fc" d="M22.994,19.91l4.487-0.207c1.126,0.01,1.73-0.004,1.897,0.944l0.973,7.033	c0.031,0.292,0.466,0.673,0.57,0.84c0.281-0.219,0.448-0.573,0.396-0.949l-0.813-6.516c-0.198-1.564-1.533-2.742-3.107-2.742h-4.246	h-0.147L22.994,19.91z"/><path fill="#deeefb" d="M23.004,18.376l-0.01,1.59l0.417,0.023l2.144-0.09l1.879-0.079c0.087,0.001,0.194,0.001,0.275,0.002	c0.664,0.008,1.119,0.073,1.364,0.425c0.095,0.122,0.167,0.338,0.207,0.563l0.362,2.639l0.443,3.229	c0.005,0.036,0.172,1.105,0.204,1.116c0.026,0.127,0.131,0.269,0.249,0.397c0.138,0.15,0.292,0.282,0.355,0.353	c0.28-0.218,0.447-0.571,0.395-0.945l-0.405-3.246l-0.405-3.246c-0.197-1.558-1.527-2.732-3.095-2.732H25.16h-2.011h-0.145V18.376z"/><path fill="#dcedfa" d="M23.004,18.439l-0.009,1.585l0.375,0.067l2.141-0.081l1.877-0.071	c0.078,0.001,0.201,0.001,0.273,0.002c0.649,0.007,1.101,0.104,1.328,0.47c0.085,0.109,0.158,0.361,0.193,0.563l0.358,2.631	l0.438,3.218c0.009,0.071,0.186,1.065,0.249,1.087c0.037,0.119,0.148,0.248,0.27,0.362c0.143,0.133,0.299,0.244,0.368,0.298	c0.279-0.217,0.445-0.569,0.393-0.942l-0.404-3.234L30.45,21.16c-0.197-1.552-1.521-2.721-3.084-2.721h-2.212h-2.009	C23.145,18.439,23.004,18.439,23.004,18.439z"/><path fill="#dbebf9" d="M23.003,18.501l-0.008,1.579l0.333,0.111l2.138-0.072l1.874-0.063	c0.07,0.001,0.208,0.001,0.272,0.002c0.633,0.006,1.082,0.135,1.291,0.516c0.076,0.097,0.148,0.384,0.18,0.563l0.354,2.622	l0.432,3.207c0.014,0.107,0.2,1.024,0.294,1.057c0.049,0.112,0.164,0.228,0.29,0.327c0.149,0.116,0.305,0.207,0.382,0.243	c0.278-0.217,0.443-0.567,0.392-0.938l-0.402-3.222l-0.402-3.222c-0.196-1.546-1.515-2.711-3.072-2.711H25.15h-2.007L23.003,18.501	L23.003,18.501z"/><path fill="#dae9f8" d="M23.003,18.563l-0.007,1.574l0.292,0.155l2.135-0.063l1.872-0.055	c0.061,0.001,0.215,0.001,0.271,0.002c0.618,0.006,1.063,0.165,1.255,0.561c0.066,0.085,0.138,0.406,0.166,0.563l0.349,2.614	l0.427,3.196c0.018,0.142,0.214,0.984,0.339,1.028c0.06,0.104,0.18,0.208,0.311,0.292c0.154,0.099,0.312,0.17,0.395,0.187	c0.277-0.216,0.442-0.565,0.39-0.935l-0.401-3.21l-0.401-3.21c-0.195-1.541-1.51-2.701-3.061-2.701h-2.19h-2.006h-0.136V18.563z"/><path fill="#d9e8f7" d="M23.002,18.626l-0.006,1.568l0.25,0.2l2.132-0.054l1.869-0.047c0.052,0,0.221,0.001,0.269,0.001	c0.602,0.005,1.044,0.196,1.218,0.607c0.057,0.073,0.129,0.429,0.152,0.564l0.345,2.605l0.422,3.185	c0.023,0.178,0.228,0.943,0.385,0.999c0.072,0.096,0.197,0.188,0.331,0.257c0.159,0.082,0.319,0.133,0.409,0.132	c0.276-0.215,0.44-0.563,0.389-0.931l-0.399-3.197l-0.399-3.197c-0.194-1.535-1.504-2.691-3.049-2.691h-2.179h-2.004L23.002,18.626	L23.002,18.626z"/><path fill="#d7e6f6" d="M23.002,18.688l-0.005,1.563l0.208,0.244l2.129-0.045l1.866-0.04c0.044,0,0.228,0.001,0.268,0.001	c0.587,0.004,1.025,0.227,1.182,0.652c0.047,0.061,0.119,0.452,0.139,0.564l0.341,2.597l0.417,3.175	c0.027,0.213,0.242,0.903,0.43,0.969c0.083,0.088,0.213,0.168,0.352,0.222c0.164,0.064,0.326,0.096,0.422,0.077	c0.275-0.214,0.438-0.561,0.387-0.928l-0.398-3.185l-0.398-3.185c-0.194-1.529-1.498-2.681-3.038-2.681h-2.169h-2.002	C23.133,18.688,23.002,18.688,23.002,18.688z"/><path fill="#d6e5f5" d="M23.001,18.75l-0.004,1.558l0.167,0.288l2.127-0.036l1.864-0.032c0.035,0,0.235,0.001,0.267,0.001	c0.572,0.003,1.006,0.257,1.146,0.698c0.038,0.049,0.109,0.474,0.125,0.564l0.336,2.589l0.411,3.164	c0.032,0.249,0.256,0.862,0.475,0.94c0.095,0.081,0.229,0.148,0.372,0.187c0.17,0.047,0.333,0.059,0.436,0.021	c0.274-0.213,0.437-0.558,0.386-0.924l-0.396-3.173l-0.396-3.173c-0.193-1.523-1.493-2.671-3.026-2.671h-2.158h-2h-0.132V18.75z"/><path fill="#d5e3f4" d="M23.001,18.813l-0.003,1.552l0.125,0.332l2.124-0.027l1.861-0.024c0.026,0,0.241,0,0.265,0.001	c0.556,0.002,0.987,0.288,1.109,0.743c0.028,0.036,0.1,0.497,0.112,0.564l0.332,2.58l0.406,3.153c0.036,0.284,0.27,0.822,0.52,0.911	c0.106,0.073,0.246,0.127,0.393,0.152c0.175,0.03,0.34,0.021,0.449-0.034c0.273-0.212,0.435-0.556,0.384-0.921l-0.395-3.161	l-0.395-3.161c-0.192-1.517-1.487-2.66-3.015-2.66h-2.147H23.13H23.001z"/><path fill="#d4e1f3" d="M23,18.875l-0.002,1.547l0.083,0.376l2.121-0.018l1.859-0.016c0.017,0,0.248,0,0.264,0	c0.541,0.002,0.968,0.319,1.073,0.789c0.019,0.024,0.09,0.52,0.098,0.565l0.328,2.572l0.401,3.142	c0.041,0.32,0.284,0.782,0.566,0.881c0.118,0.065,0.262,0.107,0.413,0.117c0.18,0.013,0.346-0.016,0.463-0.089	c0.272-0.212,0.433-0.554,0.383-0.917l-0.393-3.149l-0.393-3.149c-0.191-1.512-1.481-2.65-3.003-2.65h-2.136h-1.997H23V18.875z"/><path fill="#d2e0f2" d="M23,18.938l-0.001,1.541l0.042,0.42l2.118-0.009l1.856-0.008c0.009,0,0.255,0,0.263,0	c0.525,0.001,0.949,0.349,1.036,0.834c0.009,0.012,0.08,0.542,0.084,0.565l0.324,2.563l0.395,3.131	c0.045,0.355,0.298,0.741,0.611,0.852c0.129,0.057,0.278,0.087,0.433,0.083c0.185-0.005,0.353-0.053,0.476-0.145	c0.271-0.211,0.432-0.552,0.381-0.913l-0.391-3.137l-0.391-3.137c-0.191-1.506-1.476-2.64-2.992-2.64h-2.126h-1.995H23z"/><path fill="#d1def1" d="M22.999,21h2.115h2.115c0.51,0,0.93,0.38,1,0.88l0.39,3.12l0.39,3.12c0.07,0.55,0.56,0.94,1.11,0.87	c0.19-0.02,0.36-0.09,0.49-0.2c0.27-0.21,0.43-0.55,0.38-0.91l-0.39-3.125l-0.39-3.125c-0.19-1.5-1.47-2.63-2.98-2.63h-2.115h-2.115	V21z"/><path fill="#cad6e8" d="M30.077,21.637c-0.189-1.491-1.465-2.518-2.964-2.517c-0.009,0-0.33,0-0.339,0h-1.739h-1.471	L23,19.165v0.173L23.13,21h0.848h1.226h1.313c0.02,0,0.75,0.007,0.765,0.018c0.34,0.014,0.635,0.202,0.803,0.48	c0.073,0.112,0.127,0.274,0.147,0.415l0.384,3.069l0.029,0.23L29,28.045c0.041,0.325,0.253,0.664,0.527,0.791	c0.151,0.097,0.321,0.128,0.505,0.106c0.18-0.022,0.346-0.09,0.486-0.193c0.249-0.191,0.393-0.527,0.343-0.897	c-0.006-0.058-0.372-2.986-0.385-3.073C30.455,24.628,30.077,21.637,30.077,21.637z"/><path fill="#c3cfdf" d="M29.944,21.645c-0.188-1.482-1.46-2.406-2.949-2.404c-0.018,0-0.317,0-0.334,0h-1.706h-1.447	L23,19.331v0.174L23.261,21h0.831h1.203h1.294c0.041,0,0.718,0.013,0.748,0.036c0.328,0.029,0.608,0.222,0.763,0.5	c0.066,0.101,0.119,0.282,0.136,0.409l0.377,3.018l0.028,0.227l0.347,2.78c0.037,0.292,0.238,0.68,0.485,0.795	c0.14,0.119,0.294,0.152,0.47,0.128c0.17-0.022,0.333-0.09,0.482-0.185c0.228-0.173,0.356-0.504,0.307-0.883	c-0.012-0.116-0.355-2.847-0.38-3.021C30.311,24.502,29.944,21.645,29.944,21.645z"/><path fill="#bdc7d7" d="M29.812,21.652c-0.187-1.473-1.455-2.293-2.933-2.291c-0.027,0-0.303,0-0.33,0h-1.673h-1.424	L23,19.496v0.174L23.393,21h0.813h1.18h1.275c0.061,0,0.686,0.02,0.731,0.053c0.315,0.043,0.581,0.242,0.724,0.521	c0.059,0.09,0.111,0.29,0.126,0.403l0.371,2.967l0.028,0.225l0.341,2.725c0.033,0.26,0.223,0.697,0.442,0.799	c0.129,0.14,0.267,0.175,0.435,0.151c0.159-0.022,0.319-0.09,0.479-0.178c0.207-0.154,0.32-0.482,0.27-0.87	c-0.018-0.174-0.337-2.708-0.375-2.97C30.167,24.375,29.812,21.652,29.812,21.652z"/><path fill="#b6c0ce" d="M29.679,21.66c-0.185-1.464-1.45-2.181-2.918-2.179c-0.035,0-0.29,0-0.326,0h-1.641h-1.401	l-0.395,0.181v0.175L23.524,21h0.795h1.157h1.255c0.081,0,0.653,0.026,0.714,0.071c0.303,0.058,0.554,0.262,0.684,0.541	c0.051,0.079,0.102,0.298,0.116,0.397l0.364,2.916l0.028,0.223l0.334,2.671c0.029,0.227,0.208,0.713,0.4,0.802	c0.118,0.162,0.24,0.198,0.4,0.174c0.149-0.022,0.306-0.089,0.475-0.17c0.186-0.135,0.283-0.459,0.233-0.857	c-0.024-0.232-0.32-2.57-0.37-2.918C30.023,24.249,29.679,21.66,29.679,21.66z"/><path fill="#afb8c5" d="M29.547,21.667c-0.184-1.455-1.445-2.069-2.902-2.066c-0.044,0-0.276,0-0.321,0h-1.608h-1.377	L23,19.827v0.175L23.655,21h0.778h1.134h1.236c0.101,0,0.621,0.033,0.697,0.089c0.29,0.072,0.527,0.282,0.644,0.561	c0.044,0.067,0.094,0.306,0.106,0.391l0.358,2.864l0.028,0.221l0.327,2.617c0.025,0.195,0.193,0.73,0.358,0.806	c0.107,0.183,0.213,0.221,0.365,0.197c0.139-0.022,0.292-0.089,0.471-0.163c0.165-0.116,0.246-0.436,0.197-0.843	c-0.03-0.29-0.302-2.431-0.365-2.866C29.879,24.122,29.547,21.667,29.547,21.667z"/><path fill="#a8b1bc" d="M29.414,21.675c-0.183-1.447-1.44-1.957-2.887-1.953c-0.053,0-0.263,0.001-0.317,0.001h-1.575h-1.354	l-0.282,0.271v0.176L23.786,21h0.76h1.111h1.216c0.122,0,0.589,0.04,0.68,0.107c0.278,0.087,0.5,0.302,0.604,0.582	c0.037,0.056,0.086,0.314,0.096,0.384l0.352,2.813l0.027,0.219l0.32,2.563c0.021,0.162,0.178,0.746,0.315,0.81	c0.096,0.205,0.186,0.245,0.33,0.22c0.129-0.022,0.278-0.089,0.467-0.156c0.145-0.098,0.209-0.413,0.16-0.83	c-0.036-0.349-0.285-2.292-0.36-2.814C29.735,23.996,29.414,21.675,29.414,21.675z"/><path fill="#a1a9b3" d="M29.282,21.682c-0.182-1.438-1.435-1.844-2.871-1.84c-0.062,0-0.249,0.001-0.312,0.001h-1.543h-1.331	l-0.226,0.316v0.177L23.917,21h0.742h1.088h1.197c0.142,0,0.557,0.046,0.663,0.125c0.265,0.101,0.473,0.322,0.564,0.602	c0.029,0.045,0.077,0.322,0.085,0.378l0.345,2.762l0.027,0.217l0.314,2.508c0.017,0.13,0.163,0.763,0.273,0.814	c0.084,0.226,0.159,0.268,0.295,0.242c0.119-0.022,0.265-0.089,0.463-0.148c0.124-0.079,0.172-0.391,0.123-0.817	c-0.042-0.407-0.267-2.153-0.355-2.763C29.591,23.869,29.282,21.682,29.282,21.682z"/><path fill="#9aa2aa" d="M29.15,21.69c-0.181-1.429-1.43-1.732-2.856-1.727c-0.071,0-0.236,0.001-0.308,0.001h-1.51h-1.307	L23,20.325v0.177L24.049,21h0.725h1.065h1.178c0.162,0,0.525,0.053,0.646,0.142c0.253,0.116,0.446,0.342,0.524,0.623	c0.022,0.034,0.069,0.33,0.075,0.372l0.339,2.711l0.027,0.214l0.307,2.454c0.012,0.097,0.149,0.779,0.231,0.817	c0.073,0.248,0.132,0.291,0.26,0.265c0.109-0.022,0.251-0.089,0.46-0.141c0.103-0.06,0.136-0.368,0.087-0.804	c-0.048-0.465-0.25-2.014-0.35-2.711C29.447,23.742,29.15,21.69,29.15,21.69z"/><path fill="#949aa2" d="M29.017,21.697c-0.18-1.42-1.425-1.62-2.84-1.614c-0.08,0-0.223,0.001-0.303,0.001h-1.477h-1.284	L23,20.49v0.178L24.18,21h0.707h1.042h1.158c0.182,0,0.493,0.059,0.629,0.16c0.24,0.13,0.419,0.362,0.484,0.643	c0.015,0.022,0.061,0.338,0.065,0.366l0.333,2.66l0.027,0.212l0.3,2.4c0.008,0.065,0.134,0.796,0.188,0.821	c0.062,0.269,0.105,0.315,0.225,0.288c0.099-0.022,0.238-0.089,0.456-0.133c0.082-0.042,0.099-0.345,0.05-0.79	c-0.055-0.523-0.232-1.875-0.345-2.659C29.303,23.616,29.017,21.697,29.017,21.697z"/><path fill="#8d9399" d="M28.885,21.705c-0.179-1.411-1.42-1.508-2.824-1.501c-0.089,0-0.209,0.001-0.299,0.001h-1.445h-1.261	l-0.057,0.451v0.178L24.311,21h0.69h1.019h1.139c0.203,0,0.461,0.066,0.612,0.178c0.227,0.145,0.392,0.382,0.445,0.664	c0.007,0.011,0.053,0.346,0.055,0.36l0.326,2.609l0.026,0.21l0.293,2.345c0.004,0.032,0.119,0.812,0.146,0.825	c0.051,0.291,0.078,0.338,0.19,0.311c0.089-0.022,0.224-0.088,0.452-0.126c0.061-0.023,0.062-0.322,0.013-0.777	c-0.061-0.581-0.214-1.736-0.34-2.607C29.159,23.489,28.885,21.705,28.885,21.705z"/><path fill="#868b90" d="M22.999,21h2.115h2.115c0.51,0,0.93,0.38,1,0.88l0.39,3.12l0.39,3.12	c0.07,0.55,0.053,0.285,0.603,0.215c0.095-0.01-0.12-1.666-0.359-3.319c-0.239-1.653-0.501-3.304-0.501-3.304	c-0.19-1.5-1.593-1.388-3.103-1.388h-2.65V21z"/><path fill="#dff0fc" d="M24.963,19.91l-4.487-0.207c-1.126,0.01-1.73-0.004-1.897,0.944l-0.973,7.033	c-0.031,0.292-0.466,0.673-0.57,0.84c-0.281-0.219-0.448-0.573-0.396-0.949l0.813-6.516c0.198-1.564,1.533-2.742,3.107-2.742h4.246	h0.147L24.963,19.91z"/><path fill="#deeefb" d="M24.953,18.376l0.01,1.59l-0.417,0.023l-2.144-0.09l-1.879-0.079	c-0.087,0.001-0.194,0.001-0.275,0.002c-0.664,0.008-1.119,0.073-1.364,0.425c-0.095,0.122-0.167,0.338-0.207,0.563l-0.362,2.639	l-0.443,3.229c-0.005,0.036-0.172,1.105-0.204,1.116c-0.026,0.127-0.131,0.269-0.249,0.397c-0.138,0.15-0.292,0.282-0.355,0.353	c-0.28-0.218-0.447-0.571-0.395-0.945l0.405-3.246l0.405-3.246c0.197-1.558,1.527-2.732,3.095-2.732h2.222h2.011h0.146V18.376z"/><path fill="#dcedfa" d="M24.953,18.439l0.009,1.585l-0.375,0.067l-2.141-0.081l-1.877-0.071	c-0.078,0.001-0.201,0.001-0.273,0.002c-0.649,0.007-1.101,0.104-1.328,0.47c-0.085,0.109-0.158,0.361-0.193,0.563l-0.358,2.631	l-0.438,3.218c-0.009,0.071-0.186,1.065-0.249,1.087c-0.037,0.119-0.148,0.248-0.27,0.362c-0.143,0.133-0.299,0.244-0.368,0.298	c-0.279-0.217-0.445-0.569-0.393-0.942l0.404-3.234l0.404-3.234c0.197-1.552,1.521-2.721,3.084-2.721h2.212h2.009	C24.812,18.439,24.953,18.439,24.953,18.439z"/><path fill="#dbebf9" d="M24.954,18.501l0.008,1.579l-0.333,0.111l-2.138-0.072l-1.874-0.063	c-0.07,0.001-0.208,0.001-0.272,0.002c-0.633,0.006-1.082,0.135-1.291,0.516c-0.076,0.097-0.148,0.384-0.18,0.563l-0.354,2.622	l-0.432,3.207c-0.014,0.107-0.2,1.024-0.294,1.057c-0.049,0.112-0.164,0.228-0.29,0.327c-0.149,0.116-0.305,0.207-0.382,0.243	c-0.278-0.217-0.443-0.567-0.392-0.938l0.402-3.222l0.402-3.222c0.196-1.546,1.515-2.711,3.072-2.711h2.201h2.007L24.954,18.501	L24.954,18.501z"/><path fill="#dae9f8" d="M24.954,18.563l0.007,1.574l-0.292,0.155l-2.135-0.063l-1.872-0.055	c-0.061,0.001-0.215,0.001-0.271,0.002c-0.618,0.006-1.063,0.165-1.255,0.561c-0.066,0.085-0.138,0.406-0.166,0.563l-0.349,2.614	l-0.427,3.196c-0.018,0.142-0.214,0.984-0.339,1.028c-0.06,0.104-0.18,0.208-0.311,0.292c-0.154,0.099-0.312,0.17-0.395,0.187	c-0.277-0.216-0.442-0.565-0.39-0.935l0.401-3.21l0.401-3.21c0.195-1.541,1.51-2.701,3.061-2.701h2.19h2.006h0.136V18.563z"/><path fill="#d9e8f7" d="M24.955,18.626l0.006,1.568l-0.25,0.2l-2.132-0.054l-1.869-0.047c-0.052,0-0.221,0.001-0.269,0.001	c-0.602,0.005-1.044,0.196-1.218,0.607c-0.057,0.073-0.129,0.429-0.152,0.564l-0.345,2.605l-0.422,3.185	c-0.023,0.178-0.228,0.943-0.385,0.999c-0.072,0.096-0.197,0.188-0.331,0.257c-0.159,0.082-0.319,0.133-0.409,0.132	c-0.276-0.215-0.44-0.563-0.389-0.931l0.399-3.197l0.399-3.197c0.194-1.535,1.504-2.691,3.049-2.691h2.179h2.004L24.955,18.626	L24.955,18.626z"/><path fill="#d7e6f6" d="M24.955,18.688l0.005,1.563l-0.208,0.244l-2.129-0.045l-1.866-0.04c-0.044,0-0.228,0.001-0.268,0.001	c-0.587,0.004-1.025,0.227-1.182,0.652c-0.047,0.061-0.119,0.452-0.139,0.564l-0.341,2.597l-0.417,3.175	c-0.027,0.213-0.242,0.903-0.43,0.969c-0.083,0.088-0.213,0.168-0.352,0.222c-0.164,0.064-0.326,0.096-0.422,0.077	c-0.275-0.214-0.438-0.561-0.387-0.928l0.398-3.185l0.398-3.185c0.194-1.529,1.498-2.681,3.038-2.681h2.169h2.002	C24.824,18.688,24.955,18.688,24.955,18.688z"/><path fill="#d6e5f5" d="M24.956,18.75l0.004,1.558l-0.167,0.288l-2.127-0.036l-1.864-0.032c-0.035,0-0.235,0.001-0.267,0.001	c-0.572,0.003-1.006,0.257-1.146,0.698c-0.038,0.049-0.109,0.474-0.125,0.564l-0.336,2.589l-0.411,3.164	c-0.032,0.249-0.256,0.862-0.475,0.94c-0.095,0.081-0.229,0.148-0.372,0.187c-0.17,0.047-0.333,0.059-0.436,0.021	c-0.274-0.213-0.437-0.558-0.386-0.924l0.396-3.173l0.396-3.173c0.193-1.523,1.493-2.671,3.026-2.671h2.158h2h0.132V18.75z"/><path fill="#d5e3f4" d="M24.956,18.813l0.003,1.552l-0.125,0.332L22.71,20.67l-1.861-0.024c-0.026,0-0.241,0-0.265,0.001	c-0.556,0.002-0.987,0.288-1.109,0.743c-0.028,0.036-0.1,0.497-0.112,0.564l-0.332,2.58l-0.406,3.153	c-0.036,0.284-0.27,0.822-0.52,0.911c-0.106,0.073-0.246,0.127-0.393,0.152c-0.175,0.03-0.34,0.021-0.449-0.034	c-0.273-0.212-0.435-0.556-0.384-0.921l0.395-3.161l0.395-3.161c0.192-1.517,1.487-2.66,3.015-2.66h2.147h1.998H24.956z"/><path fill="#d4e1f3" d="M24.957,18.875l0.002,1.547l-0.083,0.376l-2.121-0.018l-1.859-0.016c-0.017,0-0.248,0-0.264,0	c-0.541,0.002-0.968,0.319-1.073,0.789c-0.019,0.024-0.09,0.52-0.098,0.565l-0.328,2.572l-0.401,3.142	c-0.041,0.32-0.284,0.782-0.566,0.881c-0.118,0.065-0.262,0.107-0.413,0.117c-0.18,0.013-0.346-0.016-0.463-0.089	c-0.272-0.212-0.433-0.554-0.383-0.917l0.393-3.149l0.393-3.149c0.191-1.512,1.481-2.65,3.003-2.65h2.136h1.997h0.128V18.875z"/><path fill="#d2e0f2" d="M24.957,18.938l0.001,1.541l-0.042,0.42l-2.118-0.009l-1.856-0.008c-0.009,0-0.255,0-0.263,0	c-0.525,0.001-0.949,0.349-1.036,0.834c-0.009,0.012-0.08,0.542-0.084,0.565l-0.324,2.563l-0.395,3.131	c-0.045,0.355-0.298,0.741-0.611,0.852c-0.129,0.057-0.278,0.087-0.433,0.083c-0.185-0.005-0.353-0.053-0.476-0.145	c-0.271-0.211-0.432-0.552-0.381-0.913l0.391-3.137l0.391-3.137c0.191-1.506,1.476-2.64,2.992-2.64h2.126h1.995H24.957z"/><path fill="#d1def1" d="M24.958,21h-2.115h-2.115c-0.51,0-0.93,0.38-1,0.88L19.338,25l-0.39,3.12	c-0.07,0.55-0.56,0.94-1.11,0.87c-0.19-0.02-0.36-0.09-0.49-0.2c-0.27-0.21-0.43-0.55-0.38-0.91l0.39-3.125l0.39-3.125	c0.19-1.5,1.47-2.63,2.98-2.63h2.115h2.115L24.958,21z"/><path fill="#cad6e8" d="M17.88,21.637c0.189-1.491,1.465-2.518,2.964-2.517c0.009,0,0.33,0,0.339,0h1.739h1.471l0.564,0.045	v0.173L24.827,21h-0.848h-1.226H21.44c-0.02,0-0.75,0.007-0.765,0.018c-0.34,0.014-0.635,0.202-0.803,0.48	c-0.073,0.112-0.127,0.274-0.147,0.415l-0.384,3.069l-0.029,0.23l-0.354,2.834c-0.041,0.325-0.253,0.664-0.527,0.791	c-0.151,0.097-0.321,0.128-0.505,0.106c-0.18-0.022-0.346-0.09-0.486-0.193c-0.249-0.191-0.393-0.527-0.343-0.897	c0.006-0.058,0.372-2.986,0.385-3.073C17.502,24.628,17.88,21.637,17.88,21.637z"/><path fill="#c3cfdf" d="M18.013,21.645c0.188-1.482,1.46-2.406,2.949-2.404c0.018,0,0.317,0,0.334,0h1.706h1.447l0.508,0.09	v0.174L24.695,21h-0.831h-1.203h-1.294c-0.041,0-0.718,0.013-0.748,0.036c-0.328,0.029-0.608,0.222-0.763,0.5	c-0.066,0.101-0.119,0.282-0.136,0.409l-0.377,3.018l-0.028,0.227l-0.347,2.78c-0.037,0.292-0.238,0.68-0.485,0.795	c-0.14,0.119-0.294,0.152-0.47,0.128c-0.17-0.022-0.333-0.09-0.482-0.185c-0.228-0.173-0.356-0.504-0.307-0.883	c0.012-0.116,0.355-2.847,0.38-3.021C17.646,24.502,18.013,21.645,18.013,21.645z"/><path fill="#bdc7d7" d="M18.145,21.652c0.187-1.473,1.455-2.293,2.933-2.291c0.027,0,0.303,0,0.33,0h1.673h1.424l0.452,0.135	v0.174L24.564,21h-0.813h-1.18h-1.275c-0.061,0-0.686,0.02-0.731,0.053c-0.315,0.043-0.581,0.242-0.724,0.521	c-0.059,0.09-0.111,0.29-0.126,0.403l-0.371,2.967l-0.028,0.225l-0.341,2.725c-0.033,0.26-0.223,0.697-0.442,0.799	c-0.129,0.14-0.267,0.175-0.435,0.151c-0.159-0.022-0.319-0.09-0.479-0.178c-0.207-0.154-0.32-0.482-0.27-0.87	c0.018-0.174,0.337-2.708,0.375-2.97C17.79,24.375,18.145,21.652,18.145,21.652z"/><path fill="#b6c0ce" d="M18.278,21.66c0.185-1.464,1.45-2.181,2.918-2.179c0.035,0,0.29,0,0.326,0h1.641h1.401l0.395,0.181	v0.175L24.433,21h-0.795h-1.157h-1.255c-0.081,0-0.653,0.026-0.714,0.071c-0.303,0.058-0.554,0.262-0.684,0.541	c-0.051,0.079-0.102,0.298-0.116,0.397l-0.364,2.916l-0.028,0.223l-0.334,2.671c-0.029,0.227-0.208,0.713-0.4,0.802	c-0.118,0.162-0.24,0.198-0.4,0.174c-0.149-0.022-0.306-0.089-0.475-0.17c-0.186-0.135-0.283-0.459-0.233-0.857	c0.024-0.232,0.32-2.57,0.37-2.918C17.934,24.249,18.278,21.66,18.278,21.66z"/><path fill="#afb8c5" d="M18.41,21.667c0.184-1.455,1.445-2.069,2.902-2.066c0.044,0,0.276,0,0.321,0h1.608h1.377l0.339,0.226	v0.175L24.302,21h-0.778H22.39h-1.236c-0.101,0-0.621,0.033-0.697,0.089c-0.29,0.072-0.527,0.282-0.644,0.561	c-0.044,0.067-0.094,0.306-0.106,0.391l-0.358,2.864l-0.028,0.221l-0.327,2.617c-0.025,0.195-0.193,0.73-0.358,0.806	c-0.107,0.183-0.213,0.221-0.365,0.197c-0.139-0.022-0.292-0.089-0.471-0.163c-0.165-0.116-0.246-0.436-0.197-0.843	c0.03-0.29,0.302-2.431,0.365-2.866C18.078,24.122,18.41,21.667,18.41,21.667z"/><path fill="#a8b1bc" d="M18.542,21.675c0.183-1.447,1.44-1.957,2.887-1.953c0.053,0,0.263,0.001,0.317,0.001h1.575h1.354	l0.282,0.271v0.176L24.171,21h-0.76H22.3h-1.216c-0.122,0-0.589,0.04-0.68,0.107c-0.278,0.087-0.5,0.302-0.604,0.582	c-0.037,0.056-0.086,0.314-0.096,0.384l-0.352,2.813l-0.027,0.219l-0.32,2.563c-0.021,0.162-0.178,0.746-0.315,0.81	c-0.096,0.205-0.186,0.245-0.33,0.22c-0.129-0.022-0.278-0.089-0.467-0.156c-0.145-0.098-0.209-0.413-0.16-0.83	c0.036-0.349,0.285-2.292,0.36-2.814C18.222,23.996,18.542,21.675,18.542,21.675z"/><path fill="#a1a9b3" d="M18.675,21.682c0.182-1.438,1.435-1.844,2.871-1.84c0.062,0,0.249,0.001,0.312,0.001h1.543h1.331	l0.226,0.316v0.177L24.04,21h-0.742H22.21h-1.197c-0.142,0-0.557,0.046-0.663,0.125c-0.265,0.101-0.473,0.322-0.564,0.602	c-0.029,0.045-0.077,0.322-0.085,0.378l-0.345,2.762l-0.027,0.217l-0.314,2.508c-0.017,0.13-0.163,0.763-0.273,0.814	c-0.084,0.226-0.159,0.268-0.295,0.242c-0.119-0.022-0.265-0.089-0.463-0.148c-0.124-0.079-0.172-0.391-0.123-0.817	c0.042-0.407,0.267-2.153,0.355-2.763C18.366,23.869,18.675,21.682,18.675,21.682z"/><path fill="#9aa2aa" d="M18.807,21.69c0.181-1.429,1.43-1.732,2.856-1.727c0.071,0,0.236,0.001,0.308,0.001h1.51h1.307	l0.169,0.361v0.177L23.908,21h-0.725h-1.065H20.94c-0.162,0-0.525,0.053-0.646,0.142c-0.253,0.116-0.446,0.342-0.524,0.623	c-0.022,0.034-0.069,0.33-0.075,0.372l-0.339,2.711l-0.027,0.214l-0.307,2.454c-0.012,0.097-0.149,0.779-0.231,0.817	c-0.073,0.248-0.132,0.291-0.26,0.265c-0.109-0.022-0.251-0.089-0.46-0.141c-0.103-0.06-0.136-0.368-0.087-0.804	c0.048-0.465,0.25-2.014,0.35-2.711C18.51,23.742,18.807,21.69,18.807,21.69z"/><path fill="#949aa2" d="M18.94,21.697c0.18-1.42,1.425-1.62,2.84-1.614c0.08,0,0.223,0.001,0.303,0.001h1.477h1.284	l0.113,0.406v0.178L23.777,21H23.07h-1.042H20.87c-0.182,0-0.493,0.059-0.629,0.16c-0.24,0.13-0.419,0.362-0.484,0.643	c-0.015,0.022-0.061,0.338-0.065,0.366l-0.333,2.66l-0.027,0.212l-0.3,2.4c-0.008,0.065-0.134,0.796-0.188,0.821	c-0.062,0.269-0.105,0.315-0.225,0.288c-0.099-0.022-0.238-0.089-0.456-0.133c-0.082-0.042-0.099-0.345-0.05-0.79	c0.055-0.523,0.232-1.875,0.345-2.659C18.654,23.616,18.94,21.697,18.94,21.697z"/><path fill="#8d9399" d="M19.072,21.705c0.179-1.411,1.42-1.508,2.824-1.501c0.089,0,0.209,0.001,0.299,0.001h1.445h1.261	l0.057,0.451v0.178L23.646,21h-0.69h-1.019h-1.139c-0.203,0-0.461,0.066-0.612,0.178c-0.227,0.145-0.392,0.382-0.445,0.664	c-0.007,0.011-0.053,0.346-0.055,0.36l-0.326,2.609l-0.026,0.21l-0.293,2.345c-0.004,0.032-0.119,0.812-0.146,0.825	c-0.051,0.291-0.078,0.338-0.19,0.311c-0.089-0.022-0.224-0.088-0.452-0.126c-0.061-0.023-0.062-0.322-0.013-0.777	c0.061-0.581,0.214-1.736,0.34-2.607C18.798,23.489,19.072,21.705,19.072,21.705z"/><path fill="#868b90" d="M24.958,21h-2.115h-2.115c-0.51,0-0.93,0.38-1,0.88L19.338,25l-0.39,3.12	c-0.07,0.55-0.053,0.285-0.603,0.215c-0.095-0.01,0.12-1.666,0.359-3.319c0.239-1.653,0.501-3.304,0.501-3.304	c0.19-1.5,1.593-1.388,3.103-1.388h2.65L24.958,21z"/><linearGradient id="ZGoriPuLqYW2uH8J_m8eEa" x1="12.083" x2="32.316" y1="31.794" y2="4.979" gradientTransform="matrix(1 0 0 -1 0 50)" gradientUnits="userSpaceOnUse"><stop offset="0" stop-color="#f6fcfe"/><stop offset=".352" stop-color="#d1dff5"/><stop offset=".434" stop-color="#cddbf0"/><stop offset=".535" stop-color="#c3cfe0"/><stop offset=".648" stop-color="#b2bbc7"/><stop offset=".663" stop-color="#afb8c3"/><stop offset="1" stop-color="#717476"/></linearGradient><circle cx="24" cy="34" r="11" fill="url(#ZGoriPuLqYW2uH8J_m8eEa)"/><linearGradient id="ZGoriPuLqYW2uH8J_m8eEb" x1="14.156" x2="31.85" y1="29.047" y2="5.596" gradientTransform="matrix(1 0 0 -1 0 50)" gradientUnits="userSpaceOnUse"><stop offset=".104" stop-color="#717476"/><stop offset=".385" stop-color="#afb8c3"/><stop offset=".401" stop-color="#b2bbc7"/><stop offset=".516" stop-color="#c3cfe0"/><stop offset=".622" stop-color="#cddbf0"/><stop offset=".706" stop-color="#d1dff5"/><stop offset="1" stop-color="#f6fcfe"/></linearGradient><circle cx="24" cy="34" r="9.087" fill="url(#ZGoriPuLqYW2uH8J_m8eEb)"/><linearGradient id="ZGoriPuLqYW2uH8J_m8eEc" x1="18.674" x2="30.729" y1="21.996" y2="8.424" gradientTransform="matrix(1 0 0 -1 0 50)" gradientUnits="userSpaceOnUse"><stop offset="0" stop-color="#f6fcfe"/><stop offset=".5" stop-color="#d1dff5"/><stop offset=".593" stop-color="#cddbf0"/><stop offset=".709" stop-color="#c2cee0"/><stop offset=".837" stop-color="#afb9c7"/><stop offset=".974" stop-color="#959ca4"/><stop offset=".989" stop-color="#92989f"/></linearGradient><circle cx="24" cy="34" r="8.13" fill="url(#ZGoriPuLqYW2uH8J_m8eEc)"/><radialGradient id="ZGoriPuLqYW2uH8J_m8eEd" cx="25.211" cy="15.147" r="15.26" gradientTransform="matrix(1 0 0 -1 0 50.5)" gradientUnits="userSpaceOnUse"><stop offset="0" stop-color="#fffbe9" stop-opacity="0"/><stop offset=".756" stop-color="#fffbe9" stop-opacity="0"/><stop offset=".843" stop-color="#fff"/><stop offset=".94" stop-color="#fff" stop-opacity="0"/></radialGradient><circle cx="24" cy="34" r="11" fill="url(#ZGoriPuLqYW2uH8J_m8eEd)"/><radialGradient id="ZGoriPuLqYW2uH8J_m8eEe" cx="24.404" cy="17.84" r="13.683" gradientTransform="matrix(1 0 0 -1 0 50)" gradientUnits="userSpaceOnUse"><stop offset="0" stop-color="#fffbe9" stop-opacity="0"/><stop offset=".756" stop-color="#fffbe9" stop-opacity="0"/><stop offset=".843" stop-color="#fff"/><stop offset=".94" stop-color="#fff" stop-opacity="0"/></radialGradient><circle cx="24" cy="34" r="9.087" fill="url(#ZGoriPuLqYW2uH8J_m8eEe)"/><radialGradient id="ZGoriPuLqYW2uH8J_m8eEf" cx="24.404" cy="17.84" r="13.683" gradientTransform="matrix(1 0 0 -1 0 50)" gradientUnits="userSpaceOnUse"><stop offset="0" stop-color="#fffbe9" stop-opacity="0"/><stop offset=".756" stop-color="#fffbe9" stop-opacity="0"/><stop offset=".843" stop-color="#fff"/><stop offset=".94" stop-color="#fff" stop-opacity="0"/></radialGradient><circle cx="24" cy="34" r="9.087" fill="url(#ZGoriPuLqYW2uH8J_m8eEf)"/><linearGradient id="ZGoriPuLqYW2uH8J_m8eEg" x1="14.026" x2="22.228" y1="45.923" y2="34.211" gradientTransform="matrix(1 0 0 -1 0 50)" gradientUnits="userSpaceOnUse"><stop offset="0" stop-color="#f9eae7"/><stop offset=".616" stop-color="#f0d7d5"/><stop offset=".69" stop-color="#e0c5c3"/><stop offset=".896" stop-color="#b89896"/><stop offset="1" stop-color="#a88685"/></linearGradient><path fill="url(#ZGoriPuLqYW2uH8J_m8eEg)" d="M12.61,3l9.44,13.21c0.36,0.51,0.56,1.12,0.56,1.74V20h3.039v-2.05c0-0.62-0.2-1.23-0.56-1.74	L15.649,3H12.61z"/><linearGradient id="ZGoriPuLqYW2uH8J_m8eEh" x1="10.827" x2="20.232" y1="46.122" y2="33.143" gradientTransform="matrix(1 0 0 -1 0 50)" gradientUnits="userSpaceOnUse"><stop offset=".614" stop-color="#fe4532"/><stop offset=".751" stop-color="#e23a2a"/><stop offset=".907" stop-color="#c83122"/><stop offset="1" stop-color="#bf2d1f"/></linearGradient><path fill="url(#ZGoriPuLqYW2uH8J_m8eEh)" d="M10,3l9.44,13.21C19.8,16.72,20,17.33,20,17.95V20h2.7v-2.05c0-0.62-0.2-1.23-0.56-1.74	L12.7,3H10z"/><linearGradient id="ZGoriPuLqYW2uH8J_m8eEi" x1="16.033" x2="23.368" y1="46.313" y2="36.279" gradientTransform="matrix(1 0 0 -1 0 50)" gradientUnits="userSpaceOnUse"><stop offset="0" stop-color="#1d67bb"/><stop offset=".638" stop-color="#0353ae"/><stop offset=".746" stop-color="#024898"/><stop offset=".906" stop-color="#013b7d"/><stop offset="1" stop-color="#013673"/></linearGradient><path fill="url(#ZGoriPuLqYW2uH8J_m8eEi)" d="M15.49,3l9.44,13.21c0.36,0.51,0.56,1.12,0.56,1.74V20H28v-2.08c0-0.63-0.2-1.24-0.56-1.75	L18,3H15.49z"/><linearGradient id="ZGoriPuLqYW2uH8J_m8eEj" x1="28.87" x2="28.87" y1="45.644" y2="28.745" gradientTransform="matrix(1 0 0 -1 0 50)" gradientUnits="userSpaceOnUse"><stop offset="0" stop-color="#fff8f5"/><stop offset=".278" stop-color="#fff2ef"/><stop offset=".427" stop-color="#fff8f5"/><stop offset=".508" stop-color="#fbeeec"/><stop offset=".63" stop-color="#f0d7d5"/><stop offset="1" stop-color="#b59997"/></linearGradient><path fill="url(#ZGoriPuLqYW2uH8J_m8eEj)" d="M35.39,3l-9.44,13.21c-0.36,0.51-0.56,1.12-0.56,1.74V20h-3.039v-2.05	c0-0.62,0.2-1.23,0.56-1.74L32.351,3H35.39z"/><linearGradient id="ZGoriPuLqYW2uH8J_m8eEk" x1="31.65" x2="31.65" y1="47.447" y2="30.678" gradientTransform="matrix(1 0 0 -1 0 50)" gradientUnits="userSpaceOnUse"><stop offset="0" stop-color="#ff6c47"/><stop offset=".2" stop-color="#ff6744"/><stop offset=".445" stop-color="#fe583c"/><stop offset=".657" stop-color="#fe4532"/><stop offset="1" stop-color="#d43829"/></linearGradient><path fill="url(#ZGoriPuLqYW2uH8J_m8eEk)" d="M38,3l-2.86,4l-3.57,5l-1.43,2l-1.58,2.21C28.2,16.72,28,17.33,28,17.95V20h-2.7v-2.05	c0-0.62,0.2-1.23,0.56-1.74L27.44,14l1.43-2l3.57-5l2.86-4H38z"/><linearGradient id="ZGoriPuLqYW2uH8J_m8eEl" x1="26.255" x2="26.255" y1="47" y2="30" gradientTransform="matrix(1 0 0 -1 0 50)" gradientUnits="userSpaceOnUse"><stop offset="0" stop-color="#4686cf"/><stop offset=".77" stop-color="#0353ae"/><stop offset="1" stop-color="#013673"/></linearGradient><path fill="url(#ZGoriPuLqYW2uH8J_m8eEl)" d="M32.51,3l-2.86,4l-3.57,5l-1.43,2l-1.58,2.21c-0.36,0.51-0.56,1.12-0.56,1.74V20H20v-2.08	c0-0.63,0.2-1.24,0.56-1.75L22.12,14l1.43-2l3.58-5l1.44-2L30,3H32.51z"/><linearGradient id="ZGoriPuLqYW2uH8J_m8eEm" x1="21.35" x2="21.35" y1="32" y2="28" gradientTransform="matrix(1 0 0 -1 0 50)" gradientUnits="userSpaceOnUse"><stop offset="0" stop-color="#4686cf"/><stop offset=".77" stop-color="#0353ae"/><stop offset="1" stop-color="#013673"/></linearGradient><path fill="url(#ZGoriPuLqYW2uH8J_m8eEm)" d="M22.7,18v4H21c-0.55,0-1-0.45-1-1v-2c0-0.55,0.45-1,1-1H22.7z"/><linearGradient id="ZGoriPuLqYW2uH8J_m8eEn" x1="23.95" x2="23.95" y1="31.681" y2="27.705" gradientTransform="matrix(1 0 0 -1 0 50)" gradientUnits="userSpaceOnUse"><stop offset="0" stop-color="#fff8f5"/><stop offset=".274" stop-color="#fbeeec"/><stop offset=".689" stop-color="#f0d7d5"/><stop offset="1" stop-color="#b59997"/></linearGradient><rect width="2.88" height="4" x="22.51" y="18" fill="url(#ZGoriPuLqYW2uH8J_m8eEn)"/><linearGradient id="ZGoriPuLqYW2uH8J_m8eEo" x1="26.65" x2="26.65" y1="32.105" y2="28.16" gradientTransform="matrix(1 0 0 -1 0 50)" gradientUnits="userSpaceOnUse"><stop offset="0" stop-color="#ff6c47"/><stop offset=".2" stop-color="#ff6744"/><stop offset=".445" stop-color="#fe583c"/><stop offset=".657" stop-color="#fe4532"/><stop offset="1" stop-color="#d43829"/></linearGradient><path fill="url(#ZGoriPuLqYW2uH8J_m8eEo)" d="M28,19v2c0,0.55-0.45,1-1,1h-1.7v-4H27C27.55,18,28,18.45,28,19z"/><linearGradient id="ZGoriPuLqYW2uH8J_m8eEp" x1="29.345" x2="29.345" y1="44.196" y2="36.581" gradientTransform="matrix(1 0 0 -1 0 50)" gradientUnits="userSpaceOnUse"><stop offset="0" stop-color="#fff8f5" stop-opacity="0"/><stop offset=".54" stop-color="#fff8f5" stop-opacity=".6"/><stop offset="1" stop-color="#fff8f5" stop-opacity="0"/></linearGradient><polygon fill="url(#ZGoriPuLqYW2uH8J_m8eEp)" points="36.57,5 35.14,7 31.57,12 30.14,14 22.12,14 23.55,12 27.13,7 28.57,5" opacity=".6"/><linearGradient id="ZGoriPuLqYW2uH8J_m8eEq" x1="10.163" x2="32.121" y1="33.4" y2="4.729" gradientTransform="matrix(1 0 0 -1 0 50)" gradientUnits="userSpaceOnUse"><stop offset="0" stop-color="#f6fcfe"/><stop offset=".524" stop-color="#afb8c3"/><stop offset=".631" stop-color="#a6aeb8"/><stop offset=".842" stop-color="#999fa7"/><stop offset="1" stop-color="#949aa1"/></linearGradient><path fill="url(#ZGoriPuLqYW2uH8J_m8eEq)" d="M24.263,36.971l1.037-1.198c0.795-0.794,1.381-1.44,1.741-1.918	c0.37-0.491,0.647-0.968,0.824-1.418c0.181-0.461,0.272-0.942,0.272-1.43c0-1.158-0.373-2.064-1.109-2.694	c-0.724-0.618-1.753-0.931-3.06-0.931c-0.818,0-1.571,0.182-2.238,0.54c-0.672,0.362-1.204,0.87-1.582,1.511	c-0.378,0.641-0.569,1.349-0.569,2.103v0.3h3.264v-0.3c0-0.454,0.104-0.817,0.32-1.111c0.196-0.269,0.433-0.394,0.743-0.394	c0.318,0,0.55,0.091,0.707,0.279c0.168,0.201,0.254,0.516,0.254,0.935c0,0.365-0.224,1.054-1.281,2.26l-3.77,3.963v2.154h8.604	v-2.648h-4.157V36.971z"/></svg>