<svg xmlns="http://www.w3.org/2000/svg" viewBox="0 0 48 48"><linearGradient id="DSUFsiOFoxkzi8su~jXMna" x1="37.305" x2="41.802" y1="17.637" y2="27.675" gradientUnits="userSpaceOnUse"><stop offset=".458" stop-color="#d5d8de"/><stop offset=".794" stop-color="#636a70"/></linearGradient><ellipse cx="39.707" cy="23" fill="url(#DSUFsiOFoxkzi8su~jXMna)" rx="5.5" ry="6"/><linearGradient id="DSUFsiOFoxkzi8su~jXMnb" x1="34.388" x2="43.175" y1="19.378" y2="25.996" gradientUnits="userSpaceOnUse"><stop offset="0" stop-color="#a7adb7"/><stop offset=".501" stop-color="#d5d8de"/><stop offset="1" stop-color="#87909b"/></linearGradient><ellipse cx="39.197" cy="23" fill="url(#DSUFsiOFoxkzi8su~jXMnb)" rx="5.5" ry="6"/><radialGradient id="DSUFsiOFoxkzi8su~jXMnc" cx="38.041" cy="23.593" r="4.994" gradientTransform="matrix(1.1514 0 0 1.0313 -5.095 -.617)" gradientUnits="userSpaceOnUse"><stop offset=".41" stop-color="#1c1c19"/><stop offset=".812" stop-color="#1b1b18" stop-opacity=".259"/><stop offset="1" stop-color="#1b1b18" stop-opacity="0"/></radialGradient><ellipse cx="39.091" cy="23.568" fill="url(#DSUFsiOFoxkzi8su~jXMnc)" rx="5.44" ry="5.368"/><linearGradient id="DSUFsiOFoxkzi8su~jXMnd" x1="36.474" x2="38.496" y1="29.448" y2="29.568" gradientUnits="userSpaceOnUse"><stop offset="0" stop-color="#aab1b9"/><stop offset="1" stop-color="#6a727c"/></linearGradient><rect width="1.79" height="4" x="36.59" y="27.508" fill="url(#DSUFsiOFoxkzi8su~jXMnd)"/><linearGradient id="DSUFsiOFoxkzi8su~jXMne" x1="36.538" x2="38.404" y1="29.452" y2="29.564" gradientUnits="userSpaceOnUse"><stop offset="0" stop-color="#b1b8c0"/><stop offset="1" stop-color="#79818a"/></linearGradient><rect width="1.634" height="4" x="36.654" y="27.508" fill="url(#DSUFsiOFoxkzi8su~jXMne)"/><linearGradient id="DSUFsiOFoxkzi8su~jXMnf" x1="36.601" x2="38.312" y1="29.457" y2="29.559" gradientUnits="userSpaceOnUse"><stop offset="0" stop-color="#b7bfc6"/><stop offset="1" stop-color="#879099"/></linearGradient><rect width="1.478" height="4" x="36.717" y="27.508" fill="url(#DSUFsiOFoxkzi8su~jXMnf)"/><linearGradient id="DSUFsiOFoxkzi8su~jXMng" x1="36.664" x2="38.22" y1="29.462" y2="29.555" gradientUnits="userSpaceOnUse"><stop offset="0" stop-color="#bec6cd"/><stop offset="1" stop-color="#969ea7"/></linearGradient><rect width="1.322" height="4" x="36.781" y="27.508" fill="url(#DSUFsiOFoxkzi8su~jXMng)"/><linearGradient id="DSUFsiOFoxkzi8su~jXMnh" x1="36.728" x2="38.128" y1="29.466" y2="29.55" gradientUnits="userSpaceOnUse"><stop offset="0" stop-color="#c4cdd4"/><stop offset="1" stop-color="#a5adb6"/></linearGradient><rect width="1.166" height="4" x="36.845" y="27.508" fill="url(#DSUFsiOFoxkzi8su~jXMnh)"/><linearGradient id="DSUFsiOFoxkzi8su~jXMni" x1="36.791" x2="38.036" y1="29.471" y2="29.545" gradientUnits="userSpaceOnUse"><stop offset="0" stop-color="#cbd3db"/><stop offset="1" stop-color="#b3bcc4"/></linearGradient><rect width="1.01" height="4" x="36.908" y="27.508" fill="url(#DSUFsiOFoxkzi8su~jXMni)"/><linearGradient id="DSUFsiOFoxkzi8su~jXMnj" x1="36.855" x2="37.944" y1="29.475" y2="29.541" gradientUnits="userSpaceOnUse"><stop offset="0" stop-color="#d2dae2"/><stop offset="1" stop-color="#c2cbd2"/></linearGradient><rect width=".854" height="4" x="36.972" y="27.508" fill="url(#DSUFsiOFoxkzi8su~jXMnj)"/><linearGradient id="DSUFsiOFoxkzi8su~jXMnk" x1="36.918" x2="37.852" y1="29.48" y2="29.536" gradientUnits="userSpaceOnUse"><stop offset="0" stop-color="#d8e1e8"/><stop offset="1" stop-color="#d0d9e1"/></linearGradient><rect width=".698" height="4" x="37.036" y="27.508" fill="url(#DSUFsiOFoxkzi8su~jXMnk)"/><rect width=".542" height="4" x="37.099" y="27.508" fill="#dfe8ef"/><linearGradient id="DSUFsiOFoxkzi8su~jXMnl" x1="37.485" x2="37.485" y1="28.07" y2="29.482" gradientUnits="userSpaceOnUse"><stop offset="0" stop-color="#363b3d" stop-opacity=".6"/><stop offset="1" stop-color="#363a3c" stop-opacity="0"/></linearGradient><rect width="1.79" height="2.581" x="36.59" y="27.508" fill="url(#DSUFsiOFoxkzi8su~jXMnl)"/><linearGradient id="DSUFsiOFoxkzi8su~jXMnm" x1="36.896" x2="38.151" y1="22.073" y2="28.251" gradientUnits="userSpaceOnUse"><stop offset="0" stop-color="#4c4c4c"/><stop offset=".999" stop-color="#171714"/></linearGradient><ellipse cx="37.084" cy="22.995" fill="url(#DSUFsiOFoxkzi8su~jXMnm)" rx="4.725" ry="5.25"/><linearGradient id="DSUFsiOFoxkzi8su~jXMnn" x1="31.823" x2="40.453" y1="20.057" y2="25.487" gradientUnits="userSpaceOnUse"><stop offset="0" stop-color="#a7adb7"/><stop offset=".116" stop-color="#aeb3bd"/><stop offset=".281" stop-color="#c1c5cd"/><stop offset=".477" stop-color="#e0e2e6"/><stop offset=".501" stop-color="#e4e6ea"/><stop offset=".643" stop-color="#c6cad0"/><stop offset=".88" stop-color="#98a0aa"/><stop offset="1" stop-color="#87909b"/></linearGradient><ellipse cx="36.5" cy="23" fill="url(#DSUFsiOFoxkzi8su~jXMnn)" rx="4.354" ry="4.837"/><linearGradient id="DSUFsiOFoxkzi8su~jXMno" x1="-1.487" x2="11.489" y1="16.46" y2="17.236" gradientUnits="userSpaceOnUse"><stop offset="0" stop-color="#aab1b9"/><stop offset="1" stop-color="#6a727c"/></linearGradient><path fill="url(#DSUFsiOFoxkzi8su~jXMno)" d="M18,32C9.861,32,6.016,18.813,5.119,11.841C4.743,8.907,5.256,6.62,6.643,5.044 C8.421,3.023,10.958,3,11.066,3h2.972v2h-2.972c-0.012,0-1.769,0.038-2.936,1.383C7.15,7.51,6.805,9.261,7.104,11.587 C8.018,18.706,11.785,30,18,30V32z"/><linearGradient id="DSUFsiOFoxkzi8su~jXMnp" x1="-1.411" x2="11.501" y1="16.449" y2="17.221" gradientUnits="userSpaceOnUse"><stop offset="0" stop-color="#afb6be"/><stop offset="1" stop-color="#757d86"/></linearGradient><path fill="url(#DSUFsiOFoxkzi8su~jXMnp)" d="M17.978,31.914c-8.042,0-11.906-13.048-12.813-20.1C4.792,8.901,5.299,6.632,6.672,5.072 c1.758-1.998,4.265-2.021,4.372-2.021h2.972v1.864h-2.972c-0.013,0-1.797,0.037-2.987,1.405c-0.994,1.142-1.344,2.912-1.043,5.259 c0.92,7.169,4.701,18.473,10.964,18.473V31.914z"/><linearGradient id="DSUFsiOFoxkzi8su~jXMnq" x1="-1.333" x2="11.512" y1="16.437" y2="17.205" gradientUnits="userSpaceOnUse"><stop offset="0" stop-color="#b4bbc3"/><stop offset="1" stop-color="#7f8791"/></linearGradient><path fill="url(#DSUFsiOFoxkzi8su~jXMnq)" d="M17.956,31.829c-7.944,0-11.829-12.91-12.745-20.04C4.84,8.896,5.342,6.645,6.702,5.099 c1.738-1.975,4.215-1.998,4.32-1.998h2.972v1.727h-2.972c-0.013,0-1.826,0.036-3.037,1.427c-1.008,1.158-1.364,2.946-1.06,5.314 c0.927,7.218,4.721,18.532,11.032,18.532V31.829z"/><linearGradient id="DSUFsiOFoxkzi8su~jXMnr" x1="-1.257" x2="11.524" y1="16.426" y2="17.189" gradientUnits="userSpaceOnUse"><stop offset="0" stop-color="#b8c0c8"/><stop offset="1" stop-color="#8a929b"/></linearGradient><path fill="url(#DSUFsiOFoxkzi8su~jXMnr)" d="M17.935,31.743c-7.846,0-11.751-12.771-12.678-19.98C4.889,8.89,5.385,6.657,6.731,5.127 C8.449,3.175,10.897,3.152,11,3.152h2.972v1.591H11c-0.014,0-1.855,0.034-3.087,1.449c-1.022,1.173-1.385,2.979-1.078,5.369 c0.933,7.268,4.74,18.592,11.099,18.592V31.743z"/><linearGradient id="DSUFsiOFoxkzi8su~jXMns" x1="-1.18" x2="11.535" y1="16.414" y2="17.174" gradientUnits="userSpaceOnUse"><stop offset="0" stop-color="#bdc5cd"/><stop offset="1" stop-color="#959da6"/></linearGradient><path fill="url(#DSUFsiOFoxkzi8su~jXMns)" d="M17.913,31.658c-7.749,0-11.673-12.633-12.61-19.921C4.937,8.884,5.428,6.669,6.761,5.154 c1.697-1.929,4.115-1.951,4.218-1.951h2.972v1.455h-2.972c-0.015,0-1.884,0.033-3.137,1.471c-1.037,1.188-1.405,3.013-1.095,5.424 c0.94,7.318,4.76,18.651,11.167,18.651V31.658z"/><linearGradient id="DSUFsiOFoxkzi8su~jXMnt" x1="-1.103" x2="11.546" y1="16.402" y2="17.158" gradientUnits="userSpaceOnUse"><stop offset="0" stop-color="#c2cad2"/><stop offset="1" stop-color="#9fa8b0"/></linearGradient><path fill="url(#DSUFsiOFoxkzi8su~jXMnt)" d="M17.891,31.572c-7.651,0-11.595-12.494-12.542-19.861C4.986,8.878,5.47,6.682,6.79,5.182 c1.677-1.906,4.065-1.928,4.167-1.928h2.972v1.318h-2.972c-0.016,0-1.912,0.032-3.187,1.492c-1.051,1.204-1.425,3.047-1.113,5.478 c0.946,7.367,4.78,18.711,11.234,18.711V31.572z"/><linearGradient id="DSUFsiOFoxkzi8su~jXMnu" x1="-1.026" x2="11.558" y1="16.391" y2="17.143" gradientUnits="userSpaceOnUse"><stop offset="0" stop-color="#c7cfd6"/><stop offset="1" stop-color="#aab2bb"/></linearGradient><path fill="url(#DSUFsiOFoxkzi8su~jXMnu)" d="M17.869,31.486c-7.554,0-11.517-12.356-12.475-19.802C5.034,8.873,5.513,6.694,6.82,5.21 c1.657-1.883,4.015-1.905,4.115-1.905h2.972v1.182h-2.972c-0.017,0-1.941,0.031-3.237,1.514c-1.065,1.219-1.445,3.081-1.13,5.533 c0.952,7.417,4.799,18.771,11.302,18.771V31.486z"/><linearGradient id="DSUFsiOFoxkzi8su~jXMnv" x1="-.949" x2="11.569" y1="16.379" y2="17.127" gradientUnits="userSpaceOnUse"><stop offset="0" stop-color="#ccd4db"/><stop offset="1" stop-color="#b4bdc5"/></linearGradient><path fill="url(#DSUFsiOFoxkzi8su~jXMnv)" d="M17.848,31.401c-7.456,0-11.44-12.218-12.407-19.742C5.083,8.867,5.556,6.706,6.849,5.237 c1.637-1.86,3.965-1.882,4.064-1.882h2.972v1.045h-2.972c-0.017,0-1.97,0.029-3.288,1.536c-1.08,1.234-1.465,3.115-1.148,5.588 c0.959,7.467,4.819,18.83,11.37,18.83V31.401z"/><linearGradient id="DSUFsiOFoxkzi8su~jXMnw" x1="-.872" x2="11.581" y1="16.368" y2="17.112" gradientUnits="userSpaceOnUse"><stop offset="0" stop-color="#d1d9e0"/><stop offset="1" stop-color="#bfc8d0"/></linearGradient><path fill="url(#DSUFsiOFoxkzi8su~jXMnw)" d="M17.826,31.315c-7.358,0-11.362-12.079-12.339-19.683C5.131,8.861,5.599,6.719,6.879,5.265 c1.616-1.837,3.915-1.859,4.013-1.859h2.972v0.909h-2.972c-0.018,0-1.999,0.028-3.338,1.558c-1.094,1.25-1.485,3.149-1.165,5.643 c0.965,7.516,4.838,18.89,11.437,18.89V31.315z"/><linearGradient id="DSUFsiOFoxkzi8su~jXMnx" x1="-.795" x2="11.592" y1="16.356" y2="17.096" gradientUnits="userSpaceOnUse"><stop offset="0" stop-color="#d5dee5"/><stop offset="1" stop-color="#cad3da"/></linearGradient><path fill="url(#DSUFsiOFoxkzi8su~jXMnx)" d="M17.804,31.23c-7.261,0-11.284-11.941-12.272-19.623C5.18,8.855,5.642,6.731,6.908,5.292 c1.596-1.814,3.866-1.835,3.962-1.835h2.972V4.23H10.87c-0.019,0-2.027,0.027-3.388,1.58c-1.108,1.265-1.506,3.182-1.183,5.698 c0.972,7.566,4.858,18.949,11.505,18.949V31.23z"/><linearGradient id="DSUFsiOFoxkzi8su~jXMny" x1="-.718" x2="11.603" y1="16.345" y2="17.081" gradientUnits="userSpaceOnUse"><stop offset="0" stop-color="#dae3ea"/><stop offset="1" stop-color="#d4dde5"/></linearGradient><path fill="url(#DSUFsiOFoxkzi8su~jXMny)" d="M17.782,31.144c-7.163,0-11.206-11.802-12.204-19.563C5.228,8.849,5.685,6.743,6.937,5.32 c1.576-1.791,3.816-1.812,3.911-1.812h2.972v0.636h-2.972c-0.02,0-2.056,0.026-3.438,1.602c-1.122,1.281-1.526,3.216-1.2,5.753 c0.978,7.615,4.878,19.009,11.573,19.009V31.144z"/><path fill="#dfe8ef" d="M17.761,31.059c-7.065,0-11.129-11.664-12.136-19.504C5.277,8.844,5.728,6.756,6.967,5.348 c1.556-1.769,3.766-1.789,3.859-1.789h2.972v0.5h-2.972c-0.021,0-2.085,0.024-3.488,1.624C6.201,6.978,5.792,8.933,6.12,11.49 c0.984,7.665,4.897,19.068,11.64,19.068V31.059z"/><linearGradient id="DSUFsiOFoxkzi8su~jXMnz" x1="45.317" x2="58.279" y1="16.462" y2="17.236" gradientTransform="matrix(-1 0 0 1 83.798 0)" gradientUnits="userSpaceOnUse"><stop offset="0" stop-color="#aab1b9"/><stop offset="1" stop-color="#6a727c"/></linearGradient><path fill="url(#DSUFsiOFoxkzi8su~jXMnz)" d="M19.016,32c8.13,0,11.97-13.187,12.865-20.159c0.376-2.934-0.137-5.221-1.522-6.797 C28.583,3.023,26.049,3,25.942,3h-2.968v2h2.968c0.012,0,1.766,0.038,2.933,1.383c0.978,1.127,1.323,2.878,1.024,5.204 C28.986,18.706,25.223,30,19.016,30V32z"/><linearGradient id="DSUFsiOFoxkzi8su~jXMnA" x1="45.394" x2="58.291" y1="16.45" y2="17.221" gradientTransform="matrix(-1 0 0 1 83.798 0)" gradientUnits="userSpaceOnUse"><stop offset="0" stop-color="#afb6be"/><stop offset="1" stop-color="#757d86"/></linearGradient><path fill="url(#DSUFsiOFoxkzi8su~jXMnA)" d="M19.037,31.914c8.032,0,11.892-13.048,12.797-20.1c0.373-2.913-0.134-5.182-1.505-6.743 c-1.756-1.998-4.26-2.021-4.366-2.021h-2.968v1.864h2.968c0.013,0,1.795,0.037,2.983,1.405c0.993,1.142,1.343,2.912,1.042,5.259 c-0.919,7.169-4.695,18.473-10.951,18.473V31.914z"/><linearGradient id="DSUFsiOFoxkzi8su~jXMnB" x1="45.47" x2="58.302" y1="16.438" y2="17.205" gradientTransform="matrix(-1 0 0 1 83.798 0)" gradientUnits="userSpaceOnUse"><stop offset="0" stop-color="#b4bbc3"/><stop offset="1" stop-color="#7f8791"/></linearGradient><path fill="url(#DSUFsiOFoxkzi8su~jXMnB)" d="M19.059,31.829c7.935,0,11.814-12.91,12.73-20.04c0.37-2.893-0.131-5.144-1.489-6.69 c-1.736-1.975-4.21-1.998-4.315-1.998h-2.968v1.727h2.968c0.013,0,1.824,0.036,3.033,1.427c1.007,1.158,1.363,2.946,1.059,5.314 c-0.926,7.218-4.715,18.532-11.018,18.532V31.829z"/><linearGradient id="DSUFsiOFoxkzi8su~jXMnC" x1="45.547" x2="58.313" y1="16.427" y2="17.19" gradientTransform="matrix(-1 0 0 1 83.798 0)" gradientUnits="userSpaceOnUse"><stop offset="0" stop-color="#b8c0c8"/><stop offset="1" stop-color="#8a929b"/></linearGradient><path fill="url(#DSUFsiOFoxkzi8su~jXMnC)" d="M19.081,31.743c7.837,0,11.737-12.771,12.662-19.98c0.368-2.873-0.128-5.106-1.472-6.636 c-1.715-1.952-4.16-1.974-4.264-1.974h-2.968v1.591h2.968c0.014,0,1.853,0.034,3.083,1.449c1.021,1.173,1.383,2.979,1.077,5.369 c-0.932,7.268-4.735,18.592-11.086,18.592V31.743z"/><linearGradient id="DSUFsiOFoxkzi8su~jXMnD" x1="45.624" x2="58.325" y1="16.415" y2="17.174" gradientTransform="matrix(-1 0 0 1 83.798 0)" gradientUnits="userSpaceOnUse"><stop offset="0" stop-color="#bdc5cd"/><stop offset="1" stop-color="#959da6"/></linearGradient><path fill="url(#DSUFsiOFoxkzi8su~jXMnD)" d="M19.103,31.658c7.74,0,11.659-12.633,12.595-19.921c0.365-2.853-0.124-5.067-1.456-6.582 c-1.695-1.929-4.11-1.951-4.213-1.951h-2.968v1.455h2.968c0.015,0,1.881,0.033,3.133,1.471c1.035,1.188,1.403,3.013,1.094,5.424 c-0.938,7.318-4.754,18.651-11.153,18.651V31.658z"/><linearGradient id="DSUFsiOFoxkzi8su~jXMnE" x1="45.701" x2="58.336" y1="16.404" y2="17.159" gradientTransform="matrix(-1 0 0 1 83.798 0)" gradientUnits="userSpaceOnUse"><stop offset="0" stop-color="#c2cad2"/><stop offset="1" stop-color="#9fa8b0"/></linearGradient><path fill="url(#DSUFsiOFoxkzi8su~jXMnE)" d="M19.124,31.572c7.642,0,11.581-12.494,12.527-19.861c0.363-2.832-0.121-5.029-1.44-6.529 c-1.675-1.906-4.061-1.928-4.162-1.928h-2.968v1.318h2.968c0.016,0,1.91,0.032,3.183,1.492c1.05,1.204,1.423,3.047,1.111,5.478 C29.4,18.91,25.571,30.254,19.124,30.254V31.572z"/><linearGradient id="DSUFsiOFoxkzi8su~jXMnF" x1="45.778" x2="58.348" y1="16.392" y2="17.143" gradientTransform="matrix(-1 0 0 1 83.798 0)" gradientUnits="userSpaceOnUse"><stop offset="0" stop-color="#c7cfd6"/><stop offset="1" stop-color="#aab2bb"/></linearGradient><path fill="url(#DSUFsiOFoxkzi8su~jXMnF)" d="M19.146,31.486c7.544,0,11.504-12.356,12.46-19.802c0.36-2.812-0.118-4.991-1.423-6.475 c-1.655-1.883-4.011-1.905-4.11-1.905h-2.968v1.182h2.968c0.016,0,1.939,0.031,3.234,1.514c1.064,1.219,1.443,3.081,1.129,5.533 c-0.951,7.417-4.793,18.771-11.289,18.771V31.486z"/><linearGradient id="DSUFsiOFoxkzi8su~jXMnG" x1="45.855" x2="58.359" y1="16.38" y2="17.128" gradientTransform="matrix(-1 0 0 1 83.798 0)" gradientUnits="userSpaceOnUse"><stop offset="0" stop-color="#ccd4db"/><stop offset="1" stop-color="#b4bdc5"/></linearGradient><path fill="url(#DSUFsiOFoxkzi8su~jXMnG)" d="M19.168,31.401c7.447,0,11.426-12.218,12.392-19.742c0.358-2.792-0.115-4.952-1.407-6.422 c-1.635-1.86-3.961-1.882-4.059-1.882h-2.968v1.045h2.968c0.017,0,1.967,0.029,3.284,1.536c1.078,1.234,1.463,3.115,1.146,5.588 c-0.958,7.467-4.813,18.83-11.356,18.83V31.401z"/><linearGradient id="DSUFsiOFoxkzi8su~jXMnH" x1="45.931" x2="58.37" y1="16.369" y2="17.112" gradientTransform="matrix(-1 0 0 1 83.798 0)" gradientUnits="userSpaceOnUse"><stop offset="0" stop-color="#d1d9e0"/><stop offset="1" stop-color="#bfc8d0"/></linearGradient><path fill="url(#DSUFsiOFoxkzi8su~jXMnH)" d="M19.19,31.315c7.349,0,11.348-12.079,12.325-19.683c0.355-2.772-0.112-4.914-1.39-6.368 c-1.614-1.837-3.911-1.859-4.008-1.859h-2.968v0.909h2.968c0.018,0,1.996,0.028,3.334,1.558c1.092,1.25,1.484,3.149,1.164,5.643 c-0.964,7.516-4.833,18.89-11.424,18.89V31.315z"/><linearGradient id="DSUFsiOFoxkzi8su~jXMnI" x1="46.008" x2="58.382" y1="16.357" y2="17.097" gradientTransform="matrix(-1 0 0 1 83.798 0)" gradientUnits="userSpaceOnUse"><stop offset="0" stop-color="#d5dee5"/><stop offset="1" stop-color="#cad3da"/></linearGradient><path fill="url(#DSUFsiOFoxkzi8su~jXMnI)" d="M19.211,31.23c7.252,0,11.271-11.941,12.257-19.623c0.352-2.751-0.109-4.876-1.374-6.314 c-1.594-1.814-3.861-1.835-3.957-1.835h-2.968V4.23h2.968c0.019,0,2.025,0.027,3.384,1.58c1.107,1.265,1.504,3.182,1.181,5.698 c-0.97,7.566-4.852,18.949-11.491,18.949V31.23z"/><linearGradient id="DSUFsiOFoxkzi8su~jXMnJ" x1="46.085" x2="58.393" y1="16.346" y2="17.081" gradientTransform="matrix(-1 0 0 1 83.798 0)" gradientUnits="userSpaceOnUse"><stop offset="0" stop-color="#dae3ea"/><stop offset="1" stop-color="#d4dde5"/></linearGradient><path fill="url(#DSUFsiOFoxkzi8su~jXMnJ)" d="M19.233,31.144c7.154,0,11.193-11.802,12.189-19.563c0.35-2.731-0.106-4.837-1.358-6.261 c-1.574-1.791-3.811-1.812-3.906-1.812h-2.968v0.636h2.968c0.02,0,2.054,0.026,3.434,1.602c1.121,1.281,1.524,3.216,1.199,5.753 c-0.977,7.615-4.872,19.009-11.559,19.009V31.144z"/><path fill="#dfe8ef" d="M19.255,31.059c7.057,0,11.115-11.664,12.122-19.504c0.347-2.711-0.103-4.799-1.341-6.207 c-1.554-1.769-3.761-1.789-3.855-1.789h-2.968v0.5h2.968c0.02,0,2.082,0.024,3.484,1.624c1.135,1.296,1.544,3.25,1.216,5.808 c-0.983,7.665-4.891,19.068-11.626,19.068V31.059z"/><linearGradient id="DSUFsiOFoxkzi8su~jXMnK" x1="14.501" x2="14.501" y1="3.394" y2="5.08" gradientUnits="userSpaceOnUse"><stop offset="0" stop-color="#4c4c4c"/><stop offset=".999" stop-color="#171714"/></linearGradient><path fill="url(#DSUFsiOFoxkzi8su~jXMnK)" d="M16,2c-0.499,0-1.364,0.184-2.162,0.487C13.662,2.201,13.36,2,13,2c-0.552,0-1,0.448-1,1v2	c0,0.552,0.448,1,1,1c0.36,0,0.662-0.201,0.838-0.487C14.636,5.816,15.501,6,16,6c1.105,0,1-0.895,1-2C17,2.895,17.105,2,16,2z"/><linearGradient id="DSUFsiOFoxkzi8su~jXMnL" x1="20.501" x2="20.501" y1="3.394" y2="5.08" gradientTransform="matrix(-1 0 0 1 43 0)" gradientUnits="userSpaceOnUse"><stop offset="0" stop-color="#4c4c4c"/><stop offset=".999" stop-color="#171714"/></linearGradient><path fill="url(#DSUFsiOFoxkzi8su~jXMnL)" d="M21,2c0.499,0,1.364,0.184,2.162,0.487C23.338,2.201,23.639,2,24,2c0.552,0,1,0.448,1,1v2	c0,0.552-0.448,1-1,1c-0.36,0-0.662-0.201-0.838-0.487C22.364,5.816,21.499,6,21,6c-1.105,0-1-0.895-1-2C20,2.895,19.895,2,21,2z"/><linearGradient id="DSUFsiOFoxkzi8su~jXMnM" x1="11.043" x2="13.043" y1="4" y2="4" gradientUnits="userSpaceOnUse"><stop offset="0" stop-color="#fff" stop-opacity=".7"/><stop offset="1" stop-color="#fff" stop-opacity="0"/></linearGradient><path fill="url(#DSUFsiOFoxkzi8su~jXMnM)" d="M13,6L13,6c-0.552,0-1-0.448-1-1V3c0-0.552,0.448-1,1-1h0c0.552,0,1,0.448,1,1v2	C14,5.552,13.552,6,13,6z"/><linearGradient id="DSUFsiOFoxkzi8su~jXMnN" x1="19.043" x2="21.043" y1="4" y2="4" gradientUnits="userSpaceOnUse"><stop offset="0" stop-color="#fff" stop-opacity=".7"/><stop offset="1" stop-color="#fff" stop-opacity="0"/></linearGradient><path fill="url(#DSUFsiOFoxkzi8su~jXMnN)" d="M21,6L21,6c-0.552,0-1-0.448-1-1V3c0-0.552,0.448-1,1-1h0c0.552,0,1,0.448,1,1v2	C22,5.552,21.552,6,21,6z"/><path fill="#0d47a1" d="M38.225,30.033c-0.428-0.115-0.957-0.12-1.374-0.043c-0.277,0.051-0.378,0.171-0.378,0.369V35	c0,3.139-2.347,9-8,9c-6.208,0-9-5.263-9-9v-2.622c0-0.11,0.08-0.2,0.189-0.216c4.042-0.589,7.585-4.293,10.086-10.596	c0.083-0.209,0.021-0.465-0.165-0.591c-0.531-0.362-1.128-0.575-1.799-0.621c-0.212-0.015-0.404,0.116-0.482,0.314	c-1.404,3.539-4.317,9.083-8.789,9.083c-4.471,0-7.385-5.545-8.789-9.083c-0.078-0.197-0.27-0.328-0.482-0.314	c-0.67,0.047-1.267,0.259-1.799,0.621c-0.186,0.127-0.248,0.382-0.165,0.591c2.484,6.262,5.997,9.955,10.007,10.581	c0.108,0.017,0.186,0.106,0.186,0.215V35c0,4.567,3.413,11,11,11c6.524,0,10-6.389,10-11v-4.632	C38.473,30.216,38.372,30.072,38.225,30.033z"/><path fill="#1557ac" d="M7.516,20.937c0.13-0.089,0.561-0.278,0.7-0.346c0.165-0.053,0.558-0.137,0.808-0.159	c0.478-0.042,0.563,0.241,0.642,0.436c1.429,3.537,4.347,8.977,8.807,9.006c0.115,0.001,0.229-0.002,0.342-0.009	c4.283-0.24,7.174-5.6,8.583-9.058c0.08-0.197,0.241-0.368,0.437-0.378c0.457-0.024,0.825,0.201,1.21,0.333	c0.138,0.047,0.271,0.102,0.401,0.167c0.03,0.015,0.056,0.033,0.08,0.054c0.103,0.12,0.191,0.321,0.131,0.472	c-0.07,0.178-0.142,0.355-0.214,0.53c-2.197,5.297-5.329,9.019-9.074,9.906c-0.291,0.069-0.568,0.177-0.824,0.238	c-0.094,0.022-0.166,0.131-0.166,0.228V35c0,3.758,2.795,9.043,9.005,9.091c0.236,0.002,0.467-0.006,0.694-0.024	c5.141-0.398,7.397-5.772,7.473-8.885c0.01-0.062,0.015-1.366,0.015-1.424v-3.279c0-0.43,0.395-0.496,0.906-0.511	c0.885-0.005,0.907,0.305,0.907,0.387V35c0,4.572-3.443,10.906-9.906,10.906c-6.973,0-10.387-5.484-10.844-9.884	c-0.041-0.349-0.062-0.839-0.062-1.17V32.96c0-0.032-0.018-0.72-0.044-0.735c-0.011-0.102-0.092-0.184-0.199-0.2	c-4.117-0.631-7.573-4.582-9.924-10.501C7.318,21.318,7.363,21.071,7.516,20.937z"/><path fill="#1e66b7" d="M8.235,20.585c1.081-0.409,1.292,0.291,1.372,0.485c1.454,3.536,4.376,8.871,8.825,8.928	c0.114,0.001,0.228-0.001,0.341-0.006c4.289-0.206,7.133-5.309,8.583-8.778c0.082-0.196,0.187-0.677,0.53-0.731	c0.423-0.067,0.648,0.072,0.991,0.185c0.122,0.04,0.315,0.162,0.433,0.215c0.026,0.012,0.095,0.051,0.117,0.064	c0.135,0.104,0.191,0.267,0.139,0.397c-0.07,0.179-0.142,0.357-0.215,0.533c-2.088,5.046-5.212,9.064-9.124,9.912	c-0.302,0.066-0.585,0.181-0.799,0.304c-0.082,0.012-0.142,0.157-0.142,0.239V35c0,3.779,2.797,9.086,9.01,9.182	c0.235,0.004,0.467-0.002,0.696-0.017c5.129-0.341,7.485-5.581,7.639-8.801c0.02-0.125,0.03-1.312,0.03-1.429v-3.563	c0-0.211,0.213-0.408,0.812-0.406c0.34,0.005,0.813,0.063,0.813,0.373V35c0,4.533-3.41,10.813-9.813,10.813	c-6.987,0-10.367-5.557-10.76-9.936c-0.035-0.299-0.053-0.889-0.053-1.172v-1.899c0-0.065-0.035-0.685-0.088-0.716	c-0.022-0.094-0.105-0.17-0.212-0.186c-4.224-0.636-7.623-4.845-9.842-10.421C7.438,21.279,7.418,20.915,8.235,20.585z"/><path fill="#2676c1" d="M8.131,20.631c0.921-0.358,1.022-0.049,1.152,0.132c0.108,0.15,0.184,0.317,0.264,0.509	c1.479,3.535,4.406,8.764,8.843,8.85c0.114,0.002,0.227,0.001,0.34-0.004c4.295-0.172,7.161-5.151,8.652-8.631	c0.083-0.195,0.336-0.811,0.488-0.896c0.297-0.167,0.583-0.082,0.876,0.014c0.11,0.036,0.245,0.119,0.365,0.171	c0.023,0.01,0.146,0.098,0.167,0.104c0.122,0.081,0.239,0.245,0.196,0.353c-0.07,0.18-0.143,0.359-0.215,0.536	c-1.979,4.795-5.095,9.109-9.174,9.919c-0.312,0.063-0.596,0.207-0.774,0.371c-0.068,0.01-0.118,0.182-0.118,0.251V35	c0,3.8,2.8,9.129,9.015,9.273c0.235,0.005,0.468,0.002,0.699-0.011c5.116-0.285,7.574-5.391,7.804-8.716	c0.03-0.187,0.045-1.258,0.045-1.434v-3.072c0-0.176-0.005-0.522,0.002-0.736c0.006-0.206,0.246-0.32,0.71-0.338	c0.333-0.005,0.726,0.092,0.726,0.359V35c0,4.493-3.378,10.719-9.719,10.719c-7.001,0-10.348-5.63-10.675-9.989	c-0.03-0.249-0.044-0.938-0.044-1.174V32.65c0-0.097-0.053-0.651-0.132-0.697c-0.033-0.087-0.119-0.156-0.225-0.172	c-4.332-0.642-7.673-5.107-9.76-10.341C7.558,21.24,7.403,20.92,8.131,20.631z"/><path fill="#2e85cc" d="M8.206,20.606c0.66-0.249,0.728-0.068,0.873,0.094c0.075,0.084,0.328,0.584,0.408,0.774	c1.504,3.533,4.435,8.658,8.861,8.773c0.113,0.003,0.226,0.003,0.339-0.001c4.301-0.137,7.188-4.993,8.721-8.484	c0.085-0.194,0.353-0.78,0.465-0.974c0.201-0.345,0.512-0.303,0.874-0.192c0.422,0.129,0.709,0.387,0.635,0.527	c-0.071,0.181-0.143,0.361-0.216,0.54c-1.869,4.544-4.978,9.154-9.223,9.926c-0.323,0.059-0.607,0.232-0.75,0.438	c-0.054,0.008-0.095,0.208-0.095,0.263V35c0,3.82,2.802,9.171,9.02,9.364c0.234,0.007,0.468,0.006,0.701-0.004	c5.104-0.228,7.663-5.2,7.969-8.631c0.04-0.25,0.06-1.204,0.06-1.439v-3.083c0-0.141-0.002-0.735,0.005-0.906	c0.006-0.165,0.146-0.322,0.613-0.333c0.615,0.005,0.632,0.299,0.632,0.346V35c0,4.454-3.345,10.625-9.625,10.625	c-7.014,0-10.328-5.703-10.59-10.041c-0.024-0.2-0.035-0.987-0.035-1.176v-1.913c0-0.13-0.071-0.617-0.176-0.679	c-0.043-0.08-0.132-0.142-0.238-0.157c-4.44-0.647-7.723-5.37-9.678-10.261C7.678,21.202,7.511,20.893,8.206,20.606z"/><path fill="#3695d7" d="M8.281,20.58c0.519-0.245,0.648,0.09,0.75,0.284c0.096,0.183,0.315,0.622,0.397,0.81	c1.529,3.532,4.465,8.552,8.879,8.695c0.112,0.004,0.225,0.004,0.338,0.001c4.307-0.103,7.216-4.835,8.79-8.337	c0.087-0.194,0.55-1.226,0.67-1.35c0.096-0.099,0.276-0.196,0.703-0.069c0.294,0.087,0.478,0.39,0.421,0.547	c-0.071,0.182-0.081,0.212-0.154,0.392c-1.76,4.293-4.861,9.199-9.273,9.933c-0.334,0.056-0.618,0.258-0.725,0.504	c-0.041,0.006-0.071,0.233-0.071,0.274V35c0,3.841,2.805,9.214,9.025,9.455c0.234,0.009,0.468,0.01,0.703,0.002	c5.092-0.171,7.751-5.01,8.135-8.547c0.05-0.312,0.075-1.15,0.075-1.443v-3.094c0-0.106,0.002-0.942,0.004-1.1	c0.002-0.123,0.079-0.282,0.52-0.306c0.52-0.014,0.538,0.297,0.538,0.332V35c0,4.415-3.313,10.531-9.531,10.531	c-7.028,0-10.309-5.776-10.505-10.093c-0.018-0.15-0.026-1.036-0.026-1.178v-1.92c0-0.162-0.088-0.582-0.22-0.66	c-0.054-0.073-0.145-0.128-0.251-0.143c-4.547-0.652-7.773-5.632-9.595-10.181C7.798,21.163,7.587,20.852,8.281,20.58z"/><path fill="#3fa4e2" d="M28.81,20.641c0.029,0.034,0.414,0.127,0.273,0.532c-0.071,0.183-0.029,0.091-0.102,0.272	c-1.651,4.041-4.744,9.244-9.323,9.94c-0.344,0.053-0.629,0.284-0.701,0.571c-0.027,0.004-0.047,0.258-0.047,0.286V35	c0,3.862,2.807,9.257,9.03,9.546c0.233,0.011,0.468,0.014,0.705,0.009c5.079-0.114,7.84-4.819,8.3-8.462	c0.06-0.374,0.09-1.096,0.09-1.448V31.54c0-0.07-0.016-1.165-0.004-1.286c0.008-0.082,0.054-0.268,0.435-0.286	c0.131,0,0.439,0.009,0.445,0.318V35c0,4.375-3.28,10.438-9.438,10.438c-7.042,0-10.289-5.848-10.42-10.145	c-0.012-0.1-0.018-1.085-0.018-1.18v-1.927c0-0.194-0.119-0.528-0.264-0.641c-0.073-0.057-0.159-0.114-0.265-0.129	c-4.655-0.658-7.823-5.895-9.513-10.101c-0.076-0.19-0.303-0.525,0.265-0.732c0.437-0.194,0.566,0.115,0.631,0.261	c0.099,0.225,0.396,0.847,0.478,1.033c1.554,3.531,4.495,8.445,8.897,8.617c0.112,0.004,0.224,0.006,0.336,0.004	c4.313-0.069,7.244-4.677,8.86-8.19c0.089-0.193,0.532-1.178,0.605-1.341c0.159-0.353,0.228-0.459,0.541-0.384	C28.726,20.611,28.81,20.641,28.81,20.641z M28.702,20.612c0.026,0.007,0.092,0.048,0.108,0.029"/><path fill="#47b4ec" d="M8.206,20.606c0.019-0.013,0.395-0.154,0.499,0.098c0.082,0.199,0.124,0.331,0.225,0.55	c0.081,0.176,0.295,0.64,0.378,0.824c1.579,3.53,4.524,8.339,8.915,8.54c0.111,0.005,0.223,0.007,0.335,0.006	c4.319-0.034,7.271-4.519,8.929-8.043c0.09-0.192,0.678-1.518,0.777-1.768c0.11-0.276,0.261-0.234,0.321-0.234	c0.099,0,0.139,0.065,0.153,0.039c0.437,0.189,0.279,0.39,0.27,0.412c-0.071,0.184-0.045,0.126-0.119,0.309	c-1.541,3.79-4.626,9.29-9.373,9.947c-0.355,0.049-0.64,0.31-0.676,0.637c-0.014,0.002-0.024,0.284-0.024,0.297V35	c0,3.883,2.81,9.3,9.035,9.637c0.232,0.013,0.468,0.018,0.708,0.015c5.067-0.057,7.929-4.629,8.465-8.377	c0.069-0.437,0.104-1.043,0.104-1.453v-3.116c0-0.035-0.001-1.259-0.003-1.435c-0.002-0.158,0.036-0.293,0.34-0.304	c0.381-0.018,0.351,0.292,0.351,0.304V35c0,4.336-3.247,10.344-9.344,10.344c-7.056,0-10.27-5.921-10.335-10.198	c-0.006-0.05-0.009-1.135-0.009-1.182V32.03c0-0.227-0.131-0.502-0.308-0.622c-0.079-0.053-0.172-0.1-0.278-0.114	c-4.762-0.663-7.873-6.157-9.431-10.021C8.038,21.086,7.74,20.803,8.206,20.606z"/><path fill="#4fc3f7" d="M37.723,30.102V35c0,4.297-3.215,10.25-9.25,10.25c-7.07,0-10.25-5.994-10.25-10.25v-3.125	c0-0.366-0.281-0.654-0.643-0.703c-4.87-0.668-7.924-6.42-9.349-9.941c-0.074-0.184-0.087-0.166-0.158-0.35	c-0.07-0.19,0.416-0.373,0.491-0.172c0.071,0.183,0.082,0.161,0.156,0.343c1.465,3.622,4.688,9.699,9.794,9.699	c5.106,0,8.328-6.077,9.794-9.699c0.074-0.182,0.083-0.215,0.153-0.397c0.068-0.184,0.55,0.014,0.491,0.172	c-0.071,0.185-0.082,0.222-0.155,0.405c-1.432,3.539-4.509,9.335-9.423,9.954c-0.366,0.046-0.651,0.335-0.651,0.704V35	c0,4.049,3.025,9.75,9.75,9.75c5.709,0,8.75-5.662,8.75-9.75v-4.898C37.234,29.918,37.725,29.936,37.723,30.102z"/><ellipse cx="35.77" cy="22.934" fill="#4c4c4c" rx=".56" ry=".622"/><linearGradient id="DSUFsiOFoxkzi8su~jXMnO" x1="36.093" x2="38.572" y1="21.495" y2="30.666" gradientUnits="userSpaceOnUse"><stop offset="0" stop-color="#4c4c4c"/><stop offset=".999" stop-color="#171714"/></linearGradient><path fill="url(#DSUFsiOFoxkzi8su~jXMnO)" d="M36.5,28.25c-2.619,0-4.75-2.355-4.75-5.25s2.131-5.25,4.75-5.25s4.75,2.355,4.75,5.25	S39.119,28.25,36.5,28.25z M36.5,18.25c-2.344,0-4.25,2.131-4.25,4.75s1.906,4.75,4.25,4.75s4.25-2.131,4.25-4.75	S38.844,18.25,36.5,18.25z"/><radialGradient id="DSUFsiOFoxkzi8su~jXMnP" cx="33.466" cy="19.806" r="2.424" gradientUnits="userSpaceOnUse"><stop offset="0" stop-color="#fff" stop-opacity=".7"/><stop offset=".519" stop-color="#fff" stop-opacity=".336"/><stop offset="1" stop-color="#fff" stop-opacity="0"/></radialGradient><path fill="url(#DSUFsiOFoxkzi8su~jXMnP)" d="M36.832,18.276c-0.119-0.011-0.234-0.04-0.356-0.04c-2.332,0-4.223,2.101-4.223,4.692	c0,0.141,0.026,0.274,0.037,0.411C32.431,20.617,34.385,18.44,36.832,18.276z"/><radialGradient id="DSUFsiOFoxkzi8su~jXMnQ" cx="6.831" cy="5.551" r="2.856" gradientUnits="userSpaceOnUse"><stop offset="0" stop-color="#fff" stop-opacity=".7"/><stop offset=".519" stop-color="#fff" stop-opacity=".336"/><stop offset="1" stop-color="#fff" stop-opacity="0"/></radialGradient><path fill="url(#DSUFsiOFoxkzi8su~jXMnQ)" d="M10.574,3.612c0,0-5.138-0.016-5.09,6.303C5.803,8.782,6.234,5.271,10.574,3.612z"/><radialGradient id="DSUFsiOFoxkzi8su~jXMnR" cx="18.546" cy="29.124" r="3.671" gradientUnits="userSpaceOnUse"><stop offset="0" stop-color="#fff" stop-opacity=".7"/><stop offset=".519" stop-color="#fff" stop-opacity=".336"/><stop offset="1" stop-color="#fff" stop-opacity="0"/></radialGradient><path fill="url(#DSUFsiOFoxkzi8su~jXMnR)" d="M13.566,28.681c0,0,4.524,4.572,9.766,0C21.848,30.356,17.851,33.42,13.566,28.681z"/><radialGradient id="DSUFsiOFoxkzi8su~jXMnS" cx="8.437" cy="20.626" r=".856" gradientUnits="userSpaceOnUse"><stop offset="0" stop-color="#fff" stop-opacity=".7"/><stop offset=".519" stop-color="#fff" stop-opacity=".336"/><stop offset="1" stop-color="#fff" stop-opacity="0"/></radialGradient><path fill="url(#DSUFsiOFoxkzi8su~jXMnS)" d="M7.384,21.303c0,0,0.523-0.928,2.064-0.811C8.871,20.6,8.033,20.762,7.384,21.303z"/><radialGradient id="DSUFsiOFoxkzi8su~jXMnT" cx="27.323" cy="20.626" r=".856" gradientTransform="matrix(-1 0 0 1 55.928 0)" gradientUnits="userSpaceOnUse"><stop offset="0" stop-color="#fff" stop-opacity=".7"/><stop offset=".519" stop-color="#fff" stop-opacity=".336"/><stop offset="1" stop-color="#fff" stop-opacity="0"/></radialGradient><path fill="url(#DSUFsiOFoxkzi8su~jXMnT)" d="M29.658,21.303c0,0-0.523-0.928-2.064-0.811C28.171,20.6,29.009,20.762,29.658,21.303z"/><radialGradient id="DSUFsiOFoxkzi8su~jXMnU" cx="18.373" cy="29.942" r=".711" gradientTransform="scale(-1 1) rotate(22.112 -9.488 -112.715)" gradientUnits="userSpaceOnUse"><stop offset="0" stop-color="#fff" stop-opacity=".7"/><stop offset=".519" stop-color="#fff" stop-opacity=".336"/><stop offset="1" stop-color="#fff" stop-opacity="0"/></radialGradient><path fill="url(#DSUFsiOFoxkzi8su~jXMnU)" d="M38.379,30.193c-0.216-0.36-1.563-0.315-1.784-0.041	C37.088,30.052,37.766,29.999,38.379,30.193z"/></svg>