<svg xmlns="http://www.w3.org/2000/svg" viewBox="0 0 48 48"><path fill="#c1daea" d="M26.151,34.349c2.424-2.657,5.007-4.441,6.321-5.881c3.287-3.602,1.272-6.217,1.272-6.217 l0.709-0.777l-4.48-4.087l0,0l0,0l-4.48-4.087l-0.709,0.777c0,0-2.788-1.767-6.075,1.835c-1.315,1.441-2.855,4.176-5.279,6.832 c-3.636,3.986-5.274,4.428-7.186,6.653c-2.186,2.543-1.439,5.928,3.364,10.31l0,0l0,0c4.803,4.382,8.241,4.816,10.574,2.407 C22.224,40.006,22.515,38.335,26.151,34.349z"/><path fill="#e9eff4" d="M11.837,25.861c-0.907,0.836-1.67,1.45-2.335,1.982c-0.929,0.742-1.663,1.329-2.451,2.246 c-0.696,0.81-2.816,3.276,3.274,8.833c6.09,5.556,8.352,3.22,9.095,2.453c0.84-0.868,1.358-1.653,2.012-2.646 c0.83-1.258,1.862-2.824,3.935-5.096c1.44-1.578,2.952-2.873,4.166-3.913c0.88-0.754,1.641-1.405,2.154-1.968 c0.631-0.691,1.031-1.325,1.276-1.891H11.837z"/><radialGradient id="pL5pivpj5~7W45cHqrgKQa" cx="33.148" cy="4.71" r="10.46" gradientUnits="userSpaceOnUse"><stop offset="0" stop-color="#e1e388"/><stop offset=".542" stop-color="#f2c202"/><stop offset="1" stop-color="#d18801"/></radialGradient><path fill="url(#pL5pivpj5~7W45cHqrgKQa)" d="M38.696,13.434c-0.151-0.889-0.364-2.167,0.163-2.773c0.705-0.057,1.392-0.362,1.907-0.926 c1.059-1.161,0.99-2.945-0.134-4.029c-1.182-1.02-2.966-0.926-4.025,0.235c-0.514,0.564-0.756,1.276-0.748,1.983 c-0.556,0.58-1.848,0.485-2.747,0.416c-1.298-0.1-2.525,0.301-3.369,1.226c-0.107,0.117,1.599,1.847,3.809,3.864 c0.006,0.006,0.012,0.01,0.018,0.016s0.012,0.011,0.018,0.016c2.211,2.017,4.089,3.557,4.196,3.44 C38.627,15.975,38.915,14.717,38.696,13.434z"/><radialGradient id="pL5pivpj5~7W45cHqrgKQb" cx="31.332" cy="5.71" r="18.735" gradientUnits="userSpaceOnUse"><stop offset="0" stop-color="#f5f7ff"/><stop offset=".1" stop-color="#cee2f9"/><stop offset=".221" stop-color="#a5cdf2"/><stop offset=".316" stop-color="#8bc0ee"/><stop offset=".374" stop-color="#82bbed"/><stop offset="1" stop-color="#357ba1"/></radialGradient><path fill="url(#pL5pivpj5~7W45cHqrgKQb)" d="M34.413,21.469l-8.911-8.131c-0.816-0.745-0.874-2.01-0.129-2.825l1.632-1.789 c0.745-0.816,2.01-0.874,2.825-0.129l8.911,8.131c0.816,0.745,0.874,2.01,0.129,2.825l-1.632,1.789 C36.494,22.156,35.229,22.214,34.413,21.469z"/><radialGradient id="pL5pivpj5~7W45cHqrgKQc" cx="26.706" cy="10.631" r="4.374" gradientTransform="matrix(.7343 -.6788 .3956 .4279 2.89 24.21)" gradientUnits="userSpaceOnUse"><stop offset="0" stop-color="#fff" stop-opacity="0"/><stop offset=".066" stop-color="#deecf4" stop-opacity=".165"/><stop offset=".177" stop-color="#accfe3" stop-opacity=".439"/><stop offset=".274" stop-color="#87bad6" stop-opacity=".68"/><stop offset=".352" stop-color="#71adcf" stop-opacity=".875"/><stop offset=".402" stop-color="#69a8cc"/><stop offset="1" stop-color="#567796"/></radialGradient><path fill="url(#pL5pivpj5~7W45cHqrgKQc)" d="M26.904,12.989l-0.04-0.037c-0.262-0.239-0.281-0.645-0.042-0.907l1.841-2.018 c0.239-0.262,0.645-0.281,0.907-0.042l0.04,0.037c0.262,0.239,0.281,0.645,0.042,0.907l-1.841,2.018 C27.572,13.21,27.166,13.228,26.904,12.989z"/><radialGradient id="pL5pivpj5~7W45cHqrgKQd" cx="28.648" cy="12.404" r="4.374" gradientTransform="matrix(.7343 -.6788 .3956 .4279 2.704 26.542)" gradientUnits="userSpaceOnUse"><stop offset="0" stop-color="#fff" stop-opacity="0"/><stop offset=".066" stop-color="#deecf4" stop-opacity=".165"/><stop offset=".177" stop-color="#accfe3" stop-opacity=".439"/><stop offset=".274" stop-color="#87bad6" stop-opacity=".68"/><stop offset=".352" stop-color="#71adcf" stop-opacity=".875"/><stop offset=".402" stop-color="#69a8cc"/><stop offset="1" stop-color="#4f6d8a"/></radialGradient><path fill="url(#pL5pivpj5~7W45cHqrgKQd)" d="M28.846,14.761l-0.04-0.037c-0.262-0.239-0.281-0.645-0.042-0.907l1.841-2.018 c0.239-0.262,0.645-0.281,0.907-0.042l0.04,0.037c0.262,0.239,0.281,0.645,0.042,0.907l-1.841,2.018 C29.515,14.982,29.108,15,28.846,14.761z"/><radialGradient id="pL5pivpj5~7W45cHqrgKQe" cx="30.59" cy="14.176" r="4.374" gradientTransform="matrix(.7343 -.6788 .3956 .4279 2.52 28.874)" gradientUnits="userSpaceOnUse"><stop offset="0" stop-color="#fff" stop-opacity="0"/><stop offset=".066" stop-color="#deecf4" stop-opacity=".165"/><stop offset=".177" stop-color="#accfe3" stop-opacity=".439"/><stop offset=".274" stop-color="#87bad6" stop-opacity=".68"/><stop offset=".352" stop-color="#71adcf" stop-opacity=".875"/><stop offset=".402" stop-color="#69a8cc"/><stop offset="1" stop-color="#4c6985"/></radialGradient><path fill="url(#pL5pivpj5~7W45cHqrgKQe)" d="M30.789,16.534l-0.04-0.037c-0.262-0.239-0.281-0.645-0.042-0.907l1.841-2.018 c0.239-0.262,0.645-0.281,0.907-0.042l0.04,0.037c0.262,0.239,0.281,0.645,0.042,0.907l-1.841,2.018 C31.457,16.754,31.051,16.773,30.789,16.534z"/><radialGradient id="pL5pivpj5~7W45cHqrgKQf" cx="32.522" cy="15.939" r="4.374" gradientTransform="matrix(.7343 -.6788 .3956 .4279 2.335 31.194)" gradientUnits="userSpaceOnUse"><stop offset="0" stop-color="#fff" stop-opacity="0"/><stop offset=".066" stop-color="#deecf4" stop-opacity=".165"/><stop offset=".177" stop-color="#accfe3" stop-opacity=".439"/><stop offset=".274" stop-color="#87bad6" stop-opacity=".68"/><stop offset=".352" stop-color="#71adcf" stop-opacity=".875"/><stop offset=".402" stop-color="#69a8cc"/><stop offset="1" stop-color="#3c5369"/></radialGradient><path fill="url(#pL5pivpj5~7W45cHqrgKQf)" d="M32.721,18.296l-0.04-0.037c-0.262-0.239-0.281-0.645-0.042-0.907l1.841-2.018 c0.239-0.262,0.645-0.281,0.907-0.042l0.04,0.037c0.262,0.239,0.281,0.645,0.042,0.907l-1.841,2.018 C33.389,18.517,32.983,18.535,32.721,18.296z"/><radialGradient id="pL5pivpj5~7W45cHqrgKQg" cx="34.465" cy="17.711" r="4.374" gradientTransform="matrix(.7343 -.6788 .3956 .4279 2.15 33.526)" gradientUnits="userSpaceOnUse"><stop offset="0" stop-color="#fff" stop-opacity="0"/><stop offset=".066" stop-color="#deecf4" stop-opacity=".165"/><stop offset=".177" stop-color="#accfe3" stop-opacity=".439"/><stop offset=".274" stop-color="#87bad6" stop-opacity=".68"/><stop offset=".352" stop-color="#71adcf" stop-opacity=".875"/><stop offset=".402" stop-color="#69a8cc"/><stop offset="1" stop-color="#3d556b"/></radialGradient><path fill="url(#pL5pivpj5~7W45cHqrgKQg)" d="M34.663,20.069l-0.04-0.037c-0.262-0.239-0.281-0.645-0.042-0.907l1.841-2.018 c0.239-0.262,0.645-0.281,0.907-0.042l0.04,0.037c0.262,0.239,0.281,0.645,0.042,0.907l-1.841,2.018 C35.331,20.289,34.925,20.308,34.663,20.069z"/><ellipse cx="22.449" cy="25.846" fill="#fff" rx="10.488" ry="1.338"/><path fill="#7eb1e7" d="M14.711,37.46l-0.588,0.644l-3.332-3.041l0.588-0.644L14.711,37.46z M14.317,34.524l-0.588,0.644 l1.666,1.52l0.588-0.644L14.317,34.524z M13.945,31.608l-0.588,0.644l3.332,3.041l0.588-0.644L13.945,31.608z M16.883,31.712 l-0.588,0.644l1.666,1.52l0.588-0.644L16.883,31.712z M16.51,28.796l-0.588,0.644l3.332,3.041l0.588-0.644L16.51,28.796z M19.449,28.9l-0.588,0.644l1.666,1.52l0.588-0.644L19.449,28.9z M19.076,25.984l-0.588,0.644l3.332,3.041l0.588-0.644 L19.076,25.984z M22.014,26.088l-0.588,0.644l1.666,1.52l0.588-0.644L22.014,26.088z M21.642,23.172l-0.588,0.644l3.332,3.041 l0.588-0.644L21.642,23.172z M24.58,23.276l-0.588,0.644l1.666,1.52l0.588-0.644L24.58,23.276z M24.207,20.36l-0.588,0.644 l3.332,3.041l0.588-0.644L24.207,20.36z"/><radialGradient id="pL5pivpj5~7W45cHqrgKQh" cx="15.069" cy="20.537" r="28.106" gradientTransform="matrix(.7345 -.6786 .44 .4763 -5.036 20.98)" gradientUnits="userSpaceOnUse"><stop offset=".207" stop-color="#fff" stop-opacity="0"/><stop offset=".313" stop-color="#f9fbfd" stop-opacity=".094"/><stop offset=".452" stop-color="#e9eff7" stop-opacity=".216"/><stop offset=".609" stop-color="#cedcee" stop-opacity=".355"/><stop offset=".779" stop-color="#a8c1e1" stop-opacity=".505"/><stop offset=".959" stop-color="#78a0d0" stop-opacity=".663"/><stop offset="1" stop-color="#6c97cc" stop-opacity=".7"/></radialGradient><path fill="url(#pL5pivpj5~7W45cHqrgKQh)" d="M26.151,34.349c2.424-2.657,5.007-4.441,6.321-5.881 c3.287-3.602,1.272-6.217,1.272-6.217l0.709-0.777l-4.48-4.087l0,0l0,0l-4.48-4.087l-0.709,0.777c0,0-2.788-1.767-6.075,1.835 c-1.315,1.441-2.855,4.176-5.279,6.832c-3.636,3.986-5.274,4.428-7.186,6.653c-2.186,2.543-1.439,5.928,3.364,10.31l0,0l0,0 c4.803,4.382,8.241,4.816,10.574,2.407C22.224,40.006,22.515,38.335,26.151,34.349z" opacity=".61"/><radialGradient id="pL5pivpj5~7W45cHqrgKQi" cx="71.806" cy="-80.484" r="2.816" gradientTransform="matrix(1.0773 -.3731 .2423 .7203 -35.632 101.478)" gradientUnits="userSpaceOnUse"><stop offset="0" stop-color="#fff" stop-opacity=".7"/><stop offset="1" stop-color="#fff" stop-opacity="0"/></radialGradient><path fill="url(#pL5pivpj5~7W45cHqrgKQi)" d="M25.364,15.697c0.425,1.12-0.718,2.594-2.554,3.291s-3.669,0.355-4.095-0.766 c-0.425-1.12,0.718-2.594,2.554-3.291S24.939,14.577,25.364,15.697z"/><radialGradient id="pL5pivpj5~7W45cHqrgKQj" cx="45.004" cy="-113.209" r="2.201" gradientTransform="matrix(.7463 -.5296 .4388 .6687 53.853 106.28)" gradientUnits="userSpaceOnUse"><stop offset="0" stop-color="#fff"/><stop offset=".088" stop-color="#fefcf8" stop-opacity=".912"/><stop offset=".217" stop-color="#fcf5e4" stop-opacity=".783"/><stop offset=".373" stop-color="#f7e9c3" stop-opacity=".627"/><stop offset=".548" stop-color="#f2d896" stop-opacity=".452"/><stop offset=".741" stop-color="#eac25b" stop-opacity=".259"/><stop offset=".945" stop-color="#e2a915" stop-opacity=".055"/><stop offset="1" stop-color="#dfa101" stop-opacity="0"/></radialGradient><path fill="url(#pL5pivpj5~7W45cHqrgKQj)" d="M39.88,5.629c0.33,0.628-0.219,1.565-1.225,2.094c-1.006,0.529-2.089,0.448-2.419-0.179 s0.219-1.565,1.225-2.094C38.467,4.921,39.55,5.002,39.88,5.629z"/></svg>