<svg xmlns="http://www.w3.org/2000/svg" xmlns:xlink="http://www.w3.org/1999/xlink" viewBox="0 0 48 48"><defs><radialGradient id="TR2et6N79fOp84P1hEtySb" cx="5.133" cy="26.237" r="31.543" gradientTransform="rotate(-24.727 8.36 25.531) scale(1 .946)" gradientUnits="userSpaceOnUse"><stop offset="0" stop-color="#232a35"/><stop offset="1" stop-color="#2f3848"/></radialGradient><linearGradient id="TR2et6N79fOp84P1hEtySc" x1="1.606" x2="33.984" y1="18.189" y2="18.189" gradientUnits="userSpaceOnUse"><stop offset="0" stop-color="#1d222b"/><stop offset=".032" stop-color="#1e242d"/><stop offset=".444" stop-color="#2d3544"/><stop offset=".651" stop-color="#3a4457"/><stop offset=".715" stop-color="#333c4d"/><stop offset=".818" stop-color="#2b3341"/><stop offset="1" stop-color="#1d222b"/></linearGradient><linearGradient id="TR2et6N79fOp84P1hEtySd" x1="14.632" x2="20.81" y1="32.712" y2="15.738" gradientUnits="userSpaceOnUse"><stop offset="0" stop-color="#232a35"/><stop offset=".46" stop-color="#252d39"/><stop offset=".908" stop-color="#2d3545"/><stop offset="1" stop-color="#2f3848"/></linearGradient><radialGradient id="TR2et6N79fOp84P1hEtySe" cx="17.101" cy="22.702" r="14.052" gradientTransform="rotate(7.26 -74.396 16.898) scale(1 .489)" gradientUnits="userSpaceOnUse"><stop offset="0" stop-color="#fff"/><stop offset=".418" stop-color="#fbf9f7"/><stop offset="1" stop-color="#f0eae4"/></radialGradient><radialGradient id="TR2et6N79fOp84P1hEtySf" cx="20.736" cy="22.63" r="4.206" gradientTransform="matrix(1 -.027 .028 1.031 -.618 -.158)" gradientUnits="userSpaceOnUse"><stop offset=".295" stop-color="#e3d9d1"/><stop offset=".907" stop-color="#e3d9d1" stop-opacity="0"/></radialGradient><radialGradient id="TR2et6N79fOp84P1hEtySg" cx="15.664" cy="22.47" r="21.842" gradientTransform="rotate(12.553 -31.126 17.323) scale(1 .542)" gradientUnits="userSpaceOnUse"><stop offset="0" stop-color="#fff"/><stop offset=".086" stop-color="#fff" stop-opacity=".969"/><stop offset=".218" stop-color="#fff" stop-opacity=".884"/><stop offset=".381" stop-color="#fff" stop-opacity=".745"/><stop offset=".567" stop-color="#fff" stop-opacity=".552"/><stop offset=".774" stop-color="#fff" stop-opacity=".305"/><stop offset=".994" stop-color="#fff" stop-opacity=".008"/><stop offset="1" stop-color="#fff" stop-opacity="0"/></radialGradient><radialGradient id="TR2et6N79fOp84P1hEtySh" cx="13.912" cy="22.717" r="9.101" gradientTransform="matrix(1 0 0 .847 0 3.474)" gradientUnits="userSpaceOnUse"><stop offset="0" stop-color="#fcb80a"/><stop offset=".005" stop-color="#fcb80a"/><stop offset="1" stop-color="#fa8e57"/></radialGradient><linearGradient id="TR2et6N79fOp84P1hEtySa" x1="8.783" x2="26.411" y1="23.954" y2="23.468" gradientUnits="userSpaceOnUse"><stop offset="0" stop-color="#fae081"/><stop offset=".677" stop-color="#fae081" stop-opacity=".31"/><stop offset="1" stop-color="#fae081" stop-opacity="0"/></linearGradient><radialGradient id="TR2et6N79fOp84P1hEtySi" cx="17.139" cy="19.939" r="2.685" gradientTransform="matrix(-.729 .739 -.751 -.632 44.501 19.882)" xlink:href="#TR2et6N79fOp84P1hEtySa"/><radialGradient id="TR2et6N79fOp84P1hEtySj" cx="17.676" cy="29.139" r="20.49" gradientTransform="matrix(1 0 0 .364 0 18.531)" gradientUnits="userSpaceOnUse"><stop offset="0" stop-color="#2e3645"/><stop offset="1" stop-color="#1d222b"/></radialGradient><linearGradient id="TR2et6N79fOp84P1hEtySk" x1="31.803" x2="33.954" y1="29.966" y2="24.441" gradientUnits="userSpaceOnUse"><stop offset="0" stop-color="#5d5e5d"/><stop offset=".547" stop-color="#9c9e9c"/><stop offset=".824" stop-color="#777877"/><stop offset="1" stop-color="#5d5e5d"/></linearGradient><linearGradient id="TR2et6N79fOp84P1hEtySl" x1="40.731" x2="52.249" y1="29.689" y2="34.428" gradientUnits="userSpaceOnUse"><stop offset="0" stop-color="#1e232d"/><stop offset=".547" stop-color="#303948"/></linearGradient><linearGradient id="TR2et6N79fOp84P1hEtySm" x1="41.782" x2="39.932" y1="26.419" y2="31.814" gradientUnits="userSpaceOnUse"><stop offset="0" stop-color="#1e232d"/><stop offset=".547" stop-color="#303948"/><stop offset="1" stop-color="#262e3b"/></linearGradient><linearGradient id="TR2et6N79fOp84P1hEtySn" x1="8.214" x2="20.406" y1="-14.837" y2="30.376" gradientUnits="userSpaceOnUse"><stop offset="0" stop-color="#1e232d"/><stop offset=".341" stop-color="#212631"/><stop offset=".673" stop-color="#282f3d"/><stop offset="1" stop-color="#353e50"/></linearGradient><linearGradient id="TR2et6N79fOp84P1hEtySo" x1="16.822" x2="20.268" y1="19.635" y2="32.414" gradientUnits="userSpaceOnUse"><stop offset="0" stop-color="#29303e"/><stop offset=".5" stop-color="#272d3a"/><stop offset=".987" stop-color="#1f252e"/><stop offset="1" stop-color="#1f252e"/></linearGradient><linearGradient id="TR2et6N79fOp84P1hEtySp" x1="15.346" x2="20.179" y1="12.612" y2="30.534" gradientUnits="userSpaceOnUse"><stop offset="0" stop-color="#29303e"/><stop offset=".33" stop-color="#272d3a"/><stop offset=".651" stop-color="#1f252e"/><stop offset=".659" stop-color="#1f252e"/><stop offset="1" stop-color="#2b3340"/></linearGradient><linearGradient id="TR2et6N79fOp84P1hEtySq" x1="7.276" x2="30.726" y1="26.413" y2="12.874" gradientUnits="userSpaceOnUse"><stop offset="0" stop-color="#333c4c"/><stop offset="1" stop-color="#3b4659"/></linearGradient></defs><g data-name="Cooking" style="isolation:isolate"><path fill="url(#TR2et6N79fOp84P1hEtySb)" d="M32.151,24.328a2.787,2.787,0,0,1-.129.764,2.318,2.318,0,0,1-.087.259A8.292,8.292,0,0,1,27.863,29.7a20.146,20.146,0,0,1-8.338,2.284c-.248.022-.506.032-.754.043a24.868,24.868,0,0,1-4.105-.183c-.237-.032-.474-.065-.7-.108a18.412,18.412,0,0,1-6.572-2.251,10.4,10.4,0,0,1-2.456-1.982,8.04,8.04,0,0,1-.582-.733,5.441,5.441,0,0,1-.484-.8A5.99,5.99,0,0,1,3.6,25.3a4.316,4.316,0,0,1-.226-1.153c0-.14,0-.269.011-.409a.421.421,0,0,1,.021-.108,3.918,3.918,0,0,1,.442-1.379,6.4,6.4,0,0,1,.776-1.1c.107-.118.226-.247.355-.366a7.728,7.728,0,0,1,.625-.56,12.585,12.585,0,0,1,1.379-1,10.425,10.425,0,0,1,1.508-.851,16.036,16.036,0,0,1,2.866-1.11c.226-.064.452-.129.689-.183l.744-.161a21.029,21.029,0,0,1,3.178-.367c.258-.021.506-.021.765-.021a27.342,27.342,0,0,1,3.759.172l.259.033c.4.043.786.1,1.185.161a21.455,21.455,0,0,1,3.383.8l.635.227a13.056,13.056,0,0,1,3.232,1.713c.248.172.485.366.722.56a10.8,10.8,0,0,1,.927.926c.075.086.14.162.2.248a4.819,4.819,0,0,1,.453.625,4.888,4.888,0,0,1,.377.689,4.313,4.313,0,0,1,.226.722A2.967,2.967,0,0,1,32.151,24.328Z"/><path fill="#2f3848" d="M31.881,24.931l-2.262.345-1.648-.959.592-1.3,2.252-.344L32.1,23.4a4.313,4.313,0,0,0-.226-.722l-.55-.312.173-.377a4.819,4.819,0,0,0-.453-.625l-.409.894-2.263.345-1.659-.948.6-1.315L29.565,20l.345.194c-.237-.194-.474-.388-.722-.56l-2.068.312L25.461,19l.5-1.077-.635-.227-.55,1.185-2.251.356-1.659-.959.6-1.3.474-.076c-.4-.065-.786-.118-1.185-.161l-.259-.033.27.162-.6,1.3-2.251.345-1.648-.948.474-1.034c-.259,0-.507,0-.765.021l-.41.905L13.3,17.8l-1.25-.722c-.237.054-.463.119-.689.183l1.444.83L12.2,19.4l-2.251.345L8.289,18.8l.2-.431a10.425,10.425,0,0,0-1.508.851l.8-.129,1.659.959-.6,1.3-2.252.356-1.605-.927c-.129.119-.248.248-.355.366L6.08,22l-.592,1.3-2.08.323a.421.421,0,0,0-.021.108c-.011.14-.011.269-.011.409l.043-.086,2.263-.345,1.648.948-.6,1.315-2.241.344-.614-.344a5.441,5.441,0,0,0,.484.8l2.575-.4,1.648.959-.7,1.53,2.241,1.3,2.661-.409,1.659.959-.474,1.023c.226.043.463.076.7.108l.463-1.023,2.252-.356,1.659.959-.269.6c.248-.011.506-.021.754-.043l.205-.452,2.66-.421.7-1.529,2.661-.41.7-1.551,2.65-.4.7-1.551,2.133-.323a2.318,2.318,0,0,0,.087-.259,2.787,2.787,0,0,0,.129-.764Zm-4.018-2.026-.592,1.3-2.263.356-1.659-.959.6-1.3,2.251-.355Zm-12.572.528-.6,1.3-2.241.355-1.659-.958.592-1.315,2.263-.344Zm-1.142-1.26.593-1.3L17,20.525l1.648.948-.6,1.3-2.241.356ZM12.63,25.48l2.262-.345,1.649.959-.593,1.3-2.251.355L12.038,26.8Zm2.758-.635.6-1.3,2.252-.355,1.659.958-.593,1.3-2.262.355Zm3.361-1.95.593-1.3,2.262-.355,1.648.958-.592,1.3-2.252.356ZM17.23,26.2l2.263-.345,1.648.948-.593,1.315-2.251.344-1.659-.958ZM20,25.556l.592-1.3,2.263-.355,1.648.958-.593,1.3-2.251.355Zm2.7-5.925,2.262-.345,1.648.948-.592,1.314-2.252.345-1.659-.948Zm-4.6-.712,2.251-.344,1.659.948-.6,1.3-2.251.356L17.5,20.234Zm-4.611-.711,2.262-.344,1.649.948-.6,1.3-2.251.356L12.9,19.512Zm-3.35,1.95,2.251-.344,1.648.948-.592,1.3-2.262.356-1.649-.959ZM6.188,23.412l.592-1.3,2.263-.344,1.648.948-.6,1.3-2.252.356Zm1.239,2.672.6-1.315,2.252-.344,1.659.958-.6,1.3-2.251.355Zm5.16,3.274-2.252.345-1.659-.959.593-1.3,2.262-.356,1.649.959Zm4.611.712-2.262.344-1.649-.959.593-1.3,2.251-.345,1.659.948Zm4.611.711-2.263.344L17.9,30.177l.593-1.314,2.251-.345,1.659.959Zm3.35-1.95-2.251.344-1.659-.948.592-1.314,2.262-.345,1.649.959Zm3.361-1.95-2.262.344-1.648-.948.592-1.314,2.252-.345,1.659.959Z"/><path fill="url(#TR2et6N79fOp84P1hEtySc)" d="M33.974,21.189a4.939,4.939,0,0,1-.24,1.277,6.034,6.034,0,0,1-1.7,2.619l-.013.012a4.144,4.144,0,0,0-1.189-3.984c-2.479-2.808-6.362-3.947-10.081-4.377a25.9,25.9,0,0,0-7.968.177A15.948,15.948,0,0,0,5.6,20.227a7.086,7.086,0,0,0-1.758,2.024,3.6,3.6,0,0,0-.3,2.834l-.012-.013a6.3,6.3,0,0,1-1.708-2.745,6.722,6.722,0,0,1,1.7-6.21,13.323,13.323,0,0,1,5.705-3.441,26.589,26.589,0,0,1,17.328.114,13.229,13.229,0,0,1,5.617,3.478A7.093,7.093,0,0,1,33.974,21.189Z"/><path fill="url(#TR2et6N79fOp84P1hEtySd)" d="M17.844,32.329A21.159,21.159,0,0,1,7.25,29.736,10.919,10.919,0,0,1,4.721,27.7a6.515,6.515,0,0,1-1.4-2.322A4.281,4.281,0,0,1,3.1,23.708a4.227,4.227,0,0,1,.489-1.593A7.339,7.339,0,0,1,5.419,20a16.22,16.22,0,0,1,7.312-3.374,26.208,26.208,0,0,1,8.059-.181c4.669.541,8.123,2.046,10.266,4.473a4.382,4.382,0,0,1,1.25,4.258,8.449,8.449,0,0,1-4.3,4.777A21.24,21.24,0,0,1,17.844,32.329Zm-.668-15.524a22.916,22.916,0,0,0-4.332.393A15.653,15.653,0,0,0,5.79,20.45,6.807,6.807,0,0,0,4.1,22.391a3.639,3.639,0,0,0-.421,1.37,3.677,3.677,0,0,0,.2,1.444,5.956,5.956,0,0,0,1.28,2.111,10.319,10.319,0,0,0,2.394,1.92c5.49,3.276,14.54,3.368,20.174.212a7.891,7.891,0,0,0,4.024-4.43v0a3.837,3.837,0,0,0-1.127-3.709c-2.046-2.318-5.376-3.758-9.9-4.281A29.961,29.961,0,0,0,17.176,16.805Z"/><path fill="url(#TR2et6N79fOp84P1hEtySe)" d="M13.5,24.662c-2.207-1.274-2.233-3.337-.04-4.612a8.771,8.771,0,0,1,7.962.008c2.193,1.266,2.219,3.33.026,4.6a8.763,8.763,0,0,1-7.948,0m11.3-7.276c-1.666-.961-4.646-.846-8.364-.7-2.767.107-4.32-.938-8.041,1.225-4.686,2.723-2.525,6.966.455,8.687l.048.027c4.813,2.713,11.258,5.451,17.727,2.335s2.795-5.138,2.077-6.585c-.76-1.538-.157-2.828-3.9-4.991"/><path fill="url(#TR2et6N79fOp84P1hEtySf)" d="M23.232,20.263c-2.207-1.275-7.013-.9-4.54-.335,2.222.5,3.327,1.3,3.186,2.237-.117.768-.155,1.895-3.78,2.946-2.432.706,2.968,1.03,5.16-.244s2.167-3.338-.026-4.6"/><path fill="url(#TR2et6N79fOp84P1hEtySg)" d="M27.551,28.271c-6.479,3.113-12.925.372-17.729-2.335-.017-.017-.034-.017-.051-.034C7.1,24.38,5.085,20.81,8.062,18.137c-4.246,2.707-2.115,6.8.8,8.459.017.017.034.017.051.034,4.805,2.707,11.25,5.447,17.713,2.334a11.733,11.733,0,0,0,2.673-1.658A17.132,17.132,0,0,1,27.551,28.271Z"/><path fill="url(#TR2et6N79fOp84P1hEtySh)" d="M21.425,20.058a8.771,8.771,0,0,0-7.962-.008c-2.193,1.275-2.167,3.338.04,4.612a8.763,8.763,0,0,0,7.948,0c2.193-1.274,2.167-3.338-.026-4.6"/><path fill="url(#TR2et6N79fOp84P1hEtySa)" d="M21.444,24.667a8.743,8.743,0,0,1-7.934,0c-1.286-.744-1.827-1.742-1.624-2.707a3.038,3.038,0,0,0,1.624,1.929,8.743,8.743,0,0,0,7.934,0,2.876,2.876,0,0,0,1.59-1.912C23.237,22.925,22.713,23.923,21.444,24.667Z" opacity=".8"/><path fill="url(#TR2et6N79fOp84P1hEtySi)" d="M18.464,19.541a5.969,5.969,0,0,0-4.155.442c-1.108.592-1.095,1.551.02,2.144a4.78,4.78,0,0,0,4.019,0A1.425,1.425,0,0,0,18.464,19.541Z" opacity=".8"/><path fill="url(#TR2et6N79fOp84P1hEtySj)" d="M33.54,25.69a13.3,13.3,0,0,1-5.445,4,24.068,24.068,0,0,1-5.366,1.537,29.963,29.963,0,0,1-8.542.154,21.665,21.665,0,0,1-9.928-3.477,13.123,13.123,0,0,1-2.7-2.567c1.184,1.479,1.989,3.121,3.478,4.349A15.185,15.185,0,0,0,9.659,32.2q.322.115.651.219a25.129,25.129,0,0,0,13.407.486c3.327-.8,6.672-2.408,8.738-5.23.507-.692.93-1.464,1.423-2.168C33.84,25.554,33.579,25.642,33.54,25.69Zm-29.151,3.4a.184.184,0,0,0-.038-.05.8.8,0,0,1,.114.1A.3.3,0,0,0,4.389,29.094Z"/><path fill="url(#TR2et6N79fOp84P1hEtySk)" d="M35.144,26.527c-.011-.017.074-.047.061-.063l-.433-.167-.907-.349-.556-.215c-.09-.035-.179-.07-.27-.1a.715.715,0,0,0-.225-.077.2.2,0,0,0-.134.068c-.625.61-1.283,1.191-1.925,1.784a2.035,2.035,0,0,0-.471.556.692.692,0,0,0,.009.7,1.028,1.028,0,0,0,.5.317l1.057.409c.33.127.658.276,1,.382a.675.675,0,0,1-.434-.543,1.016,1.016,0,0,1,.566-.919,2.53,2.53,0,0,1,.713-.265c.146-.034.3,0,.434-.069s.226-.241.333-.34a9.53,9.53,0,0,0,.792-.643.555.555,0,0,0,.066-.119c.006-.025-.043-.055-.052-.08A1.22,1.22,0,0,0,35.144,26.527Z"/><path fill="url(#TR2et6N79fOp84P1hEtySl)" d="M44.87,31.335c-.466.44-1.637.227-2.876-.239s-1.931-1.132-1.571-1.479,1.651-.226,2.889.254S45.443,30.8,44.87,31.335Z"/><path fill="url(#TR2et6N79fOp84P1hEtySm)" d="M48.09,32.1a2.253,2.253,0,0,0-.7-1.22,5.283,5.283,0,0,0-1.19-.8,26.375,26.375,0,0,0-3.3-1.48,28.183,28.183,0,0,0-3.15-1.01c-.97-.23-1.96-.42-2.94-.65-.49-.12-.99-.26-1.48-.41-.03-.01-.07-.03-.13-.05-.02.01-.06.04-.06.05a.875.875,0,0,1,.12.26c.01.02.06.05.05.08a.672.672,0,0,1-.06.12c-.24.26-.53.4-.79.64-.11.1-.21.27-.34.34s-.29.03-.43.07a2.52,2.52,0,0,0-.71.26,1.015,1.015,0,0,0-.57.92.686.686,0,0,0,.43.55c.357.153.31.13.79.36.83.41,1.6.94,2.4,1.4a25.692,25.692,0,0,0,6.43,2.61,7.535,7.535,0,0,0,3.73.38,2.665,2.665,0,0,0,1.43-.85A1.963,1.963,0,0,0,48.09,32.1Zm-3.42-.84c-.43.4-1.49.2-2.61-.22s-1.75-1.03-1.42-1.34,1.49-.2,2.61.23S45.18,30.77,44.67,31.26Z"/><path fill="url(#TR2et6N79fOp84P1hEtySn)" d="M35.442,19.228a9.311,9.311,0,0,0-4.035-5.376,18.007,18.007,0,0,0-3.036-1.707,27.11,27.11,0,0,0-13.092-1.961A24.216,24.216,0,0,0,6.235,12.6a13.915,13.915,0,0,0-5.2,4.326,7.221,7.221,0,0,0-.582,6.3c.05.127.114.253.164.38.013.038.026.063.038.1a2.635,2.635,0,0,0,.127.278.69.69,0,0,0,.076.177l.113.228c.051.1.114.2.178.3s.139.228.2.342a1.013,1.013,0,0,1,.114.177,11.17,11.17,0,0,0,2.694,2.707h.013a21.439,21.439,0,0,0,9.588,3.466,32.55,32.55,0,0,0,7.526.038c.177-.026.354-.026.531-.051a21.354,21.354,0,0,0,9.638-3.491,13.327,13.327,0,0,0,1.632-1.417A9.346,9.346,0,0,0,34.8,24.022c.063-.139.126-.278.177-.417.025-.076.05-.139.075-.2A7.135,7.135,0,0,0,35.442,19.228Zm-1.708,3.238A6.1,6.1,0,0,1,32.026,25.1a17.837,17.837,0,0,1-3.314,2.315c-.063.038-.113.063-.177.1-.139.063-.265.127-.392.177l-.076.038a22.33,22.33,0,0,1-8.259,1.935,27.522,27.522,0,0,1-8.69-.746A19.3,19.3,0,0,1,5.3,26.489a11.03,11.03,0,0,1-1.758-1.4,6.38,6.38,0,0,1-1.72-2.758,6.722,6.722,0,0,1,1.7-6.21,13.323,13.323,0,0,1,5.705-3.441,26.589,26.589,0,0,1,17.328.114,13.229,13.229,0,0,1,5.617,3.478,7.093,7.093,0,0,1,1.808,4.921A4.939,4.939,0,0,1,33.734,22.466Z"/><path fill="url(#TR2et6N79fOp84P1hEtySo)" d="M.784,23.984A8.741,8.741,0,0,0,1.408,25L1.4,25l.128.184-.005-.008a11.705,11.705,0,0,0,2.758,2.578l-.122-.04h.073l.062.041a21.409,21.409,0,0,0,7.893,3.035,32.354,32.354,0,0,0,8.508.365,25.135,25.135,0,0,0,8.246-2.035A16.58,16.58,0,0,0,30.815,28.1,16.761,16.761,0,0,0,32.5,26.8,8.495,8.495,0,0,0,35.049,23.4a8.221,8.221,0,0,1-2.366,3.589,14.879,14.879,0,0,1-1.66,1.42,17.019,17.019,0,0,1-1.885,1.106A23.372,23.372,0,0,1,20.754,31.8a29.537,29.537,0,0,1-8.7-.34,19.5,19.5,0,0,1-8.008-3.373l.123.04H4.089l-.05-.038a10.744,10.744,0,0,1-2.631-2.836h0l0-.007-.1-.17L1.3,25.064A7.856,7.856,0,0,1,.784,23.984Z"/><path fill="url(#TR2et6N79fOp84P1hEtySp)" d="M33.974,21.189a5.79,5.79,0,0,1-1.742,3.961,18.271,18.271,0,0,1-3.551,2.605l-.01.006-.019.009-.4.192.022-.01a22.365,22.365,0,0,1-8.815,2.091,27.755,27.755,0,0,1-9.01-.978,19.03,19.03,0,0,1-4.219-1.71A11.413,11.413,0,0,1,2.706,24.46a5.681,5.681,0,0,1-1.17-4.344,7.426,7.426,0,0,1,1.98-4,7.316,7.316,0,0,0-1.755,4.025,5.571,5.571,0,0,0,1.27,4.064c1.9,2.26,4.776,3.455,7.587,4.252a27.058,27.058,0,0,0,8.8.873,23.02,23.02,0,0,0,8.6-1.9l.01,0,.013,0,.383-.163-.028.015a17.858,17.858,0,0,0,3.589-2.38A5.829,5.829,0,0,0,33.974,21.189Z"/><path fill="url(#TR2et6N79fOp84P1hEtySq)" d="M2.406,17.663a9.157,9.157,0,0,1,3.746-3.75,20.818,20.818,0,0,1,4.985-1.971,26.9,26.9,0,0,1,10.679-.615,25.079,25.079,0,0,1,5.224,1.329,14.1,14.1,0,0,1,4.688,2.728A7.55,7.55,0,0,1,34.2,20.21a5.7,5.7,0,0,1-.442,2.7,5.19,5.19,0,0,1-1.49,2.227,5.664,5.664,0,0,0,1.2-2.327,5.389,5.389,0,0,0,.242-2.546,7.431,7.431,0,0,0-2.391-4.432,13.531,13.531,0,0,0-4.479-2.624,26.988,26.988,0,0,0-5.1-1.343,26.459,26.459,0,0,0-10.517.39A20.579,20.579,0,0,0,6.256,14.1,10.287,10.287,0,0,0,2.406,17.663Z"/></g></svg>