<svg xmlns="http://www.w3.org/2000/svg" viewBox="0 0 48 48"><linearGradient id="7aatJ_Mj~XahjumRzz2AWa" x1="19.625" x2="41.212" y1="18.187" y2="4.011" gradientUnits="userSpaceOnUse"><stop offset="0" stop-color="#d6f55d"/><stop offset=".337" stop-color="#d4f45b"/><stop offset=".522" stop-color="#cff053"/><stop offset=".67" stop-color="#c6ea45"/><stop offset=".799" stop-color="#bae031"/><stop offset=".913" stop-color="#aad518"/><stop offset="1" stop-color="#9ac900"/></linearGradient><polygon fill="url(#7aatJ_Mj~XahjumRzz2AWa)" points="38.19,16.126 10.13,14.293 16.584,10.862 38.406,10.813"/><radialGradient id="7aatJ_Mj~XahjumRzz2AWb" cx="21.179" cy="28.924" r="24.762" gradientTransform="matrix(1 0 0 1.8731 0 -25.255)" gradientUnits="userSpaceOnUse"><stop offset="0" stop-color="#c4e636"/><stop offset=".338" stop-color="#c2e435"/><stop offset=".523" stop-color="#badc30"/><stop offset=".672" stop-color="#acce28"/><stop offset=".801" stop-color="#99ba1c"/><stop offset=".916" stop-color="#81a10e"/><stop offset="1" stop-color="#6a8a00"/></radialGradient><rect width="23.987" height="29.706" x="10.13" y="14.293" fill="url(#7aatJ_Mj~XahjumRzz2AWb)"/><linearGradient id="7aatJ_Mj~XahjumRzz2AWc" x1="66.771" x2="53.239" y1="12.151" y2="18.917" gradientUnits="userSpaceOnUse"><stop offset="0" stop-color="#bee817"/><stop offset=".386" stop-color="#bce616"/><stop offset=".597" stop-color="#b4de13"/><stop offset=".767" stop-color="#a7d00e"/><stop offset=".913" stop-color="#94bd06"/><stop offset="1" stop-color="#85ad00"/></linearGradient><polygon fill="url(#7aatJ_Mj~XahjumRzz2AWc)" points="38.406,40.519 34.117,43.999 34.117,14.293 38.406,10.813"/><radialGradient id="7aatJ_Mj~XahjumRzz2AWd" cx="31.677" cy="6.148" r="11.908" gradientTransform="matrix(.9499 -.3127 .2103 .639 .295 12.124)" gradientUnits="userSpaceOnUse"><stop offset="0" stop-color="#fdf5ac"/><stop offset=".064" stop-color="#fdf195"/><stop offset=".217" stop-color="#fee862"/><stop offset=".35" stop-color="#ffe23e"/><stop offset=".458" stop-color="#ffde27"/><stop offset=".527" stop-color="#ffdd1f"/><stop offset=".623" stop-color="#fcd81d"/><stop offset=".735" stop-color="#f2ca18"/><stop offset=".854" stop-color="#e1b30f"/><stop offset=".978" stop-color="#ca9303"/><stop offset="1" stop-color="#c58c00"/></radialGradient><path fill="url(#7aatJ_Mj~XahjumRzz2AWd)" d="M39.867,4.463l-7.59,1.952c-0.26,0.067-0.476,0.246-0.589,0.489l-2.514,5.408l-0.013,0.037 c0,0.086,0.44,0.156,0.983,0.156c0.529,0,0.952-0.067,0.975-0.15l0.008,0l2.005-4.314l7.18-1.846 c0.479-0.123,0.767-0.611,0.644-1.09v0C40.834,4.628,40.346,4.34,39.867,4.463z"/><linearGradient id="7aatJ_Mj~XahjumRzz2AWe" x1="47.622" x2="37.634" y1="23.859" y2="27.081" gradientUnits="userSpaceOnUse"><stop offset="0" stop-color="#fcfcfc"/><stop offset=".357" stop-color="#f2f2f2"/><stop offset=".956" stop-color="#d8d8d8"/><stop offset="1" stop-color="#d6d6d6"/></linearGradient><polygon fill="url(#7aatJ_Mj~XahjumRzz2AWe)" points="38.393,33.689 34.084,36.374 34.084,21.374 38.393,18.689"/><radialGradient id="7aatJ_Mj~XahjumRzz2AWf" cx="21.585" cy="30.71" r="37.972" gradientTransform="matrix(0 -1 1.1764 0 -14.505 52.295)" gradientUnits="userSpaceOnUse"><stop offset=".08" stop-color="#f7f7f7"/><stop offset=".523" stop-color="#ececec"/><stop offset="1" stop-color="#e8e8e8"/></radialGradient><rect width="23.963" height="15" x="10.121" y="21.374" fill="url(#7aatJ_Mj~XahjumRzz2AWf)"/><path fill="#736221" d="M21.772,29.326c1.074-2.223,0.696-4.637-0.843-5.38l-0.252,0.521 c1.252,0.605,1.509,2.672,0.574,4.608L21.772,29.326z"/><radialGradient id="7aatJ_Mj~XahjumRzz2AWg" cx="22.794" cy="30.171" r="14.089" gradientUnits="userSpaceOnUse"><stop offset="0" stop-color="#c4e636"/><stop offset=".338" stop-color="#c2e435"/><stop offset=".523" stop-color="#badc30"/><stop offset=".672" stop-color="#acce28"/><stop offset=".801" stop-color="#99ba1c"/><stop offset=".916" stop-color="#81a10e"/><stop offset="1" stop-color="#6a8a00"/></radialGradient><path fill="url(#7aatJ_Mj~XahjumRzz2AWg)" d="M22.298,25.685c-0.239,0.117-0.516,0.117-0.755,0c-2.182-1.067-5.118-0.073-5.118,3.06 c0,2.46,1.844,6.254,4.286,6.445c0.26,0.02,0.538-0.079,0.817-0.199c0.267-0.115,0.573-0.113,0.839,0.005 c0.271,0.12,0.534,0.216,0.8,0.191c2.423-0.227,4.249-3.994,4.249-6.441C27.416,25.612,24.481,24.619,22.298,25.685z"/><linearGradient id="7aatJ_Mj~XahjumRzz2AWh" x1="13.104" x2="16.215" y1="23.515" y2="23.515" gradientTransform="rotate(17.446 23.124 23.797)" gradientUnits="userSpaceOnUse"><stop offset="0" stop-color="#bee817"/><stop offset=".386" stop-color="#bce616"/><stop offset=".597" stop-color="#b4de13"/><stop offset=".767" stop-color="#a7d00e"/><stop offset=".913" stop-color="#94bd06"/><stop offset="1" stop-color="#85ad00"/></linearGradient><path fill="url(#7aatJ_Mj~XahjumRzz2AWh)" d="M21.474,24.43c0,0,0.452,0.708,1.699,0.49c1.883-0.33,1.994-2.459,1.994-2.459 s0.004,0.057-0.605,0.214c-0.854,0.22-1.578-0.082-2.316,0.332C21.387,23.489,21.474,24.43,21.474,24.43z"/><ellipse cx="24.65" cy="27.09" fill="#f7ffde" opacity=".68" rx=".811" ry="1.047" transform="rotate(-60 24.65 27.09)"/></svg>