<svg xmlns="http://www.w3.org/2000/svg" viewBox="0 0 48 48"><radialGradient id="_qhFZLXsbfW_JLDuT4pWoa" cx="12.763" cy="24.369" r="44.316" gradientTransform="matrix(.6449 -.7643 .2382 .2009 3.04 22.274)" gradientUnits="userSpaceOnUse"><stop offset=".59" stop-color="#9bcc00"/><stop offset=".736" stop-color="#7ca706"/><stop offset=".909" stop-color="#5b810d"/><stop offset="1" stop-color="#4f730f"/></radialGradient><path fill="url(#_qhFZLXsbfW_JLDuT4pWoa)" d="M39.284,26.735c2.087-3.311-0.026-4.877,1.762-11.303c0.974-3.501-0.947-6.334-2.76-7.963 c-1.935-1.738-4.702-3.201-8.082-1.859c-6.205,2.463-6.789,0.709-10.165,2.301c-4.028,1.899-2.955,6.61-5.623,8.664 c-3.096,2.383-2.08,4.967-2.219,7.024c-0.242,3.563-2.418,1.578-1.546,6.155c0.542,2.841-0.703,6.23-0.703,6.23l1.883,0.934 l0.87,2.014c0,0,3.74-1.122,6.622-0.886c4.643,0.379,3.913-2.464,7.504-3.111c2.073-0.374,3.45,0.169,5.514-3.19 C34.12,28.848,37.118,30.171,39.284,26.735z"/><radialGradient id="_qhFZLXsbfW_JLDuT4pWob" cx="23.138" cy="21.272" r="43.147" gradientTransform="matrix(.6928 -.7211 .2489 .2392 1.812 32.87)" gradientUnits="userSpaceOnUse"><stop offset=".562" stop-color="#e3f4be"/><stop offset=".724" stop-color="#c3d79a"/><stop offset="1" stop-color="#859e55"/></radialGradient><path fill="url(#_qhFZLXsbfW_JLDuT4pWob)" d="M26.141,22.274c1.05-0.157,2.067-0.368,3.081-0.625c0.112-0.029,0.223-0.064,0.335-0.094 l0.006,0.015c0.029-0.012,0.056-0.028,0.086-0.041c0.994-0.265,1.977-0.564,2.941-0.913c1.105-0.394,2.19-0.84,3.243-1.349 c1.062-0.491,2.076-1.076,3.074-1.677c-1.034,0.539-2.078,1.056-3.162,1.478c-1.076,0.439-2.176,0.813-3.29,1.134 c-0.221,0.065-0.445,0.117-0.667,0.177c0.541-0.343,1.066-0.706,1.575-1.088c1.167-0.89,2.274-1.849,3.307-2.881 c-1.106,0.951-2.278,1.822-3.494,2.613c-1.218,0.779-2.495,1.476-3.835,1.932c-0.087,0.017-0.174,0.039-0.261,0.056 c-0.755,0.143-1.519,0.253-2.28,0.342c0.278-0.389,0.563-0.787,0.867-1.208c3.085-4.277,8.111-8.858,8.111-8.858 s-3.993,2.379-8.206,6.732c-0.123-0.628-0.212-1.264-0.203-1.911c-0.002-0.144,0.015-0.289,0.018-0.434 c0.123-0.985,0.645-1.967,1.24-2.851c0.617-0.915,1.341-1.769,2.122-2.564c-0.856,0.717-1.663,1.498-2.383,2.368 c-0.275,0.335-0.533,0.687-0.771,1.056c0.026-0.136,0.036-0.273,0.067-0.408c0.413-1.869,1.198-3.679,2.311-5.272 c-1.23,1.508-2.163,3.272-2.733,5.163c-0.22,0.706-0.35,1.438-0.437,2.178c-0.029,0.104-0.058,0.208-0.079,0.317l0.041,0.005 c-0.013,0.143-0.042,0.283-0.05,0.427c-0.078,0.892,0.014,1.787,0.149,2.677c-0.072,0.078-0.144,0.151-0.216,0.231 c-2.069,2.272-3.3,3.86-4.56,5.409c-0.05-0.875-0.073-1.757-0.05-2.635c0.039-1.356,0.168-2.711,0.384-4.053 c0.203-1.346,0.548-2.667,0.972-3.962c0.419-1.3,1.019-2.532,1.687-3.729c-0.73,1.157-1.4,2.366-1.892,3.654 c-0.497,1.282-0.917,2.603-1.196,3.955c-0.123,0.573-0.223,1.151-0.315,1.73c-0.144-0.313-0.279-0.632-0.396-0.957 c-0.242-0.628-0.412-1.28-0.555-1.94c-0.244-1.321-0.322-2.708-0.005-4.042c-0.424,1.307-0.461,2.718-0.319,4.092 c0.092,0.686,0.214,1.373,0.411,2.041c0.184,0.672,0.434,1.324,0.705,1.968l0.004-0.002c-0.049,0.403-0.106,0.804-0.139,1.209 c-0.094,1.199-0.12,2.395-0.072,3.612c-1.544,1.843-3.375,3.814-6.916,6.971c-0.019-0.578-0.03-1.156-0.017-1.735 c0.001-0.208,0.018-0.416,0.024-0.624c0.02-0.619,0.22-1.277,0.478-1.899c0.288-0.687,0.648-1.352,1.04-1.998 c0.791-1.289,1.701-2.516,2.735-3.635c-1.113,1.043-2.114,2.207-3.009,3.455c-0.402,0.567-0.774,1.158-1.103,1.779 c0.028-0.297,0.049-0.594,0.08-0.891c0.147-1.267,0.367-2.527,0.65-3.773c0.289-1.245,0.633-2.482,1.11-3.673 c-0.544,1.163-0.96,2.384-1.321,3.618c-0.355,1.237-0.649,2.494-0.87,3.765c-0.152,0.921-0.273,1.849-0.366,2.781 c-0.045,0.214-0.077,0.434-0.088,0.664l0.025-0.001c-0.01,0.134-0.03,0.267-0.038,0.401c-0.064,0.81-0.085,1.623-0.091,2.437 c-0.197,0.173-0.394,0.346-0.6,0.526c-1.998,1.738-5.204,3.894-6.782,5.668c-1.015,1.14-1.055,2.834,0.08,3.854l0,0 c1.135,1.02,2.805,0.791,3.841-0.331c1.344-1.455,3.075-4.464,5.017-7.083c0.875-0.203,1.744-0.421,2.606-0.659l0.002,0.007 c0.017-0.007,0.033-0.015,0.05-0.022c1.141-0.315,2.274-0.656,3.4-1.025c2.419-0.788,4.79-1.72,7.084-2.803 c-2.353,0.95-4.762,1.74-7.208,2.385c-0.052,0.014-0.105,0.026-0.158,0.04c0.328-0.161,0.661-0.313,0.986-0.482 c1.343-0.709,2.668-1.482,3.822-2.469c-1.221,0.9-2.584,1.568-3.963,2.174c-1.382,0.599-2.803,1.128-4.228,1.584l0,0.001 c-0.557,0.119-1.115,0.229-1.674,0.334c0.38-0.476,0.766-0.932,1.159-1.349c1.285-1.364,2.35-2.54,3.281-3.609 c1.67-0.387,3.324-0.814,4.965-1.291l-0.004,0.026c1.563,0.177,3.116,0.264,4.678,0.24c1.553-0.033,3.133-0.154,4.606-0.659 c-1.503,0.399-3.064,0.406-4.6,0.332c-1.102-0.06-2.2-0.194-3.289-0.359c0.331-0.102,0.663-0.199,0.992-0.305 c2.783-0.91,5.547-1.943,8.085-3.406c-2.606,1.333-5.399,2.221-8.208,2.987c-0.697,0.186-1.397,0.364-2.099,0.533 c-0.019-0.004-0.039-0.005-0.059-0.009l-0.004,0.024c-1.401,0.337-2.811,0.64-4.223,0.91C23.168,26.417,24.515,24.55,26.141,22.274 z"/></svg>