<svg xmlns="http://www.w3.org/2000/svg" xmlns:xlink="http://www.w3.org/1999/xlink" width="48" height="48" viewBox="0 0 48 48"><defs><radialGradient id="16sWVYKY2VQSmkD0YU53yj" cx="14.167" cy="14.836" r=".52" gradientUnits="userSpaceOnUse"><stop offset="0" stop-color="#9698ad"/><stop offset=".093" stop-color="#8c90a5"/><stop offset=".49" stop-color="#646f84"/><stop offset=".806" stop-color="#4c5b70"/><stop offset="1" stop-color="#435469"/></radialGradient><radialGradient id="16sWVYKY2VQSmkD0YU53yl" cx="34.123" cy="35.935" r="41.058" gradientTransform="matrix(1 0 0 .334 0 23.944)" gradientUnits="userSpaceOnUse"><stop offset="0" stop-color="#a7bfcc"/><stop offset=".509" stop-color="#c0d0db"/><stop offset="1" stop-color="#d3dde6"/></radialGradient><radialGradient id="16sWVYKY2VQSmkD0YU53yn" cx="24.326" cy="27.524" r="19.089" gradientTransform="matrix(1 0 0 .532 0 12.481)" gradientUnits="userSpaceOnUse"><stop offset="0" stop-color="#f0f1f2"/><stop offset=".387" stop-color="#dde4e8"/><stop offset="1" stop-color="#b6c9d4"/></radialGradient><radialGradient id="16sWVYKY2VQSmkD0YU53yah" cx="19.892" cy="9.515" r=".52" gradientTransform="matrix(0 .845 -.726 0 30.815 -4.88)" xlink:href="#16sWVYKY2VQSmkD0YU53yj"/><radialGradient id="16sWVYKY2VQSmkD0YU53yb" cx="30.3" cy="23.173" r="23.475" gradientTransform="matrix(1 0 0 .488 0 11.863)" gradientUnits="userSpaceOnUse"><stop offset="0" stop-color="#e0a259"/><stop offset="1" stop-color="#b9662c"/></radialGradient><radialGradient id="16sWVYKY2VQSmkD0YU53yag" cx="19.892" cy="9.515" r=".681" gradientTransform="matrix(0 .845 -.726 0 30.815 -4.88)" xlink:href="#16sWVYKY2VQSmkD0YU53yi"/><radialGradient id="16sWVYKY2VQSmkD0YU53yaf" cx="22.638" cy="9.597" r="2.591" gradientTransform="matrix(.86 0 0 .826 3.977 4.004)" xlink:href="#16sWVYKY2VQSmkD0YU53yh"/><radialGradient id="16sWVYKY2VQSmkD0YU53yp" cx="30.44" cy="19.814" r="22.861" gradientTransform="matrix(1 0 0 .488 0 10.144)" xlink:href="#16sWVYKY2VQSmkD0YU53yb"/><radialGradient id="16sWVYKY2VQSmkD0YU53yae" cx="22.6" cy="10.003" r="1.571" gradientTransform="matrix(.86 0 0 .826 3.977 4.004)" xlink:href="#16sWVYKY2VQSmkD0YU53yg"/><radialGradient id="16sWVYKY2VQSmkD0YU53yad" cx="22.148" cy="9.528" r="2.593" gradientTransform="matrix(.86 0 0 .826 3.977 4.004)" xlink:href="#16sWVYKY2VQSmkD0YU53yf"/><radialGradient id="16sWVYKY2VQSmkD0YU53yac" cx="22.977" cy="14.221" r="1.857" gradientTransform="matrix(1.062 0 0 1.157 -.545 -3.917)" gradientUnits="userSpaceOnUse"><stop offset="0"/><stop offset=".994" stop-opacity=".013"/><stop offset="1" stop-opacity="0"/></radialGradient><radialGradient id="16sWVYKY2VQSmkD0YU53ys" cx="27.997" cy="17.825" r="22.861" gradientTransform="matrix(1 0 0 .488 0 9.125)" xlink:href="#16sWVYKY2VQSmkD0YU53yb"/><radialGradient id="16sWVYKY2VQSmkD0YU53yab" cx="34.136" cy="12.232" r=".479" gradientTransform="matrix(.924 0 0 1.092 2.191 -1.949)" xlink:href="#16sWVYKY2VQSmkD0YU53yj"/><radialGradient id="16sWVYKY2VQSmkD0YU53yaa" cx="34.136" cy="12.232" r=".627" gradientTransform="matrix(.924 0 0 1.092 2.191 -1.949)" xlink:href="#16sWVYKY2VQSmkD0YU53yi"/><radialGradient id="16sWVYKY2VQSmkD0YU53yv" cx="24.998" cy="12.982" r="21.873" gradientTransform="matrix(1 0 0 .488 0 6.646)" xlink:href="#16sWVYKY2VQSmkD0YU53yb"/><radialGradient id="16sWVYKY2VQSmkD0YU53yZ" cx="33.997" cy="10.139" r="2.384" gradientTransform="matrix(.924 0 0 .924 2.191 1.677)" xlink:href="#16sWVYKY2VQSmkD0YU53yh"/><radialGradient id="16sWVYKY2VQSmkD0YU53yx" cx="17.76" cy="12.196" r="18.465" gradientTransform="matrix(.965 -.261 .317 1.169 -3.243 2.577)" xlink:href="#16sWVYKY2VQSmkD0YU53yd"/><radialGradient id="16sWVYKY2VQSmkD0YU53yy" cx="21.151" cy="10.458" r="1.429" gradientUnits="userSpaceOnUse"><stop offset="0" stop-color="#f9820b"/><stop offset=".128" stop-color="#f9820b" stop-opacity=".984"/><stop offset=".256" stop-color="#f9820b" stop-opacity=".936"/><stop offset=".382" stop-color="#f9820b" stop-opacity=".856"/><stop offset=".509" stop-color="#f9820b" stop-opacity=".744"/><stop offset=".636" stop-color="#f9820b" stop-opacity=".599"/><stop offset=".762" stop-color="#f9820b" stop-opacity=".422"/><stop offset=".886" stop-color="#f9820b" stop-opacity=".217"/><stop offset="1" stop-color="#f9820b" stop-opacity="0"/></radialGradient><radialGradient id="16sWVYKY2VQSmkD0YU53yf" cx="20.553" cy="9.147" r="1.871" gradientUnits="userSpaceOnUse"><stop offset="0" stop-color="#c7c8dc"/><stop offset=".158" stop-color="#a6abc0"/><stop offset=".442" stop-color="#6f7d93"/><stop offset=".687" stop-color="#475b72"/><stop offset=".881" stop-color="#2f465d"/><stop offset="1" stop-color="#263e56"/></radialGradient><radialGradient id="16sWVYKY2VQSmkD0YU53yg" cx="20.879" cy="9.49" r="1.133" gradientUnits="userSpaceOnUse"><stop offset="0" stop-color="#30495f"/><stop offset=".129" stop-color="#29435a"/><stop offset=".668" stop-color="#112f47"/><stop offset="1" stop-color="#082840"/></radialGradient><radialGradient id="16sWVYKY2VQSmkD0YU53yh" cx="20.706" cy="8.986" r="1.87" gradientUnits="userSpaceOnUse"><stop offset="0" stop-color="#ecdff0"/><stop offset=".078" stop-color="#d5cadb"/><stop offset=".33" stop-color="#8f8b9c"/><stop offset=".558" stop-color="#585a6b"/><stop offset=".752" stop-color="#303647"/><stop offset=".906" stop-color="#182031"/><stop offset="1" stop-color="#0f1829"/></radialGradient><radialGradient id="16sWVYKY2VQSmkD0YU53yY" cx="33.821" cy="10.049" r="1.446" gradientTransform="matrix(.924 0 0 .924 2.191 1.677)" xlink:href="#16sWVYKY2VQSmkD0YU53yg"/><radialGradient id="16sWVYKY2VQSmkD0YU53yX" cx="33.405" cy="9.612" r="2.386" gradientTransform="matrix(.924 0 0 .924 2.191 1.677)" xlink:href="#16sWVYKY2VQSmkD0YU53yf"/><radialGradient id="16sWVYKY2VQSmkD0YU53yW" cx="34.02" cy="11.881" r="1.707" gradientTransform="rotate(-1.116 180.165 10.483) scale(1 .76)" gradientUnits="userSpaceOnUse"><stop offset="0" stop-color="#c8672a"/><stop offset=".143" stop-color="#c8672a" stop-opacity=".98"/><stop offset=".285" stop-color="#c8672a" stop-opacity=".921"/><stop offset=".426" stop-color="#c8672a" stop-opacity=".821"/><stop offset=".567" stop-color="#c8672a" stop-opacity=".682"/><stop offset=".708" stop-color="#c8672a" stop-opacity=".502"/><stop offset=".849" stop-color="#c8672a" stop-opacity=".281"/><stop offset=".987" stop-color="#c8672a" stop-opacity=".026"/><stop offset="1" stop-color="#c8672a" stop-opacity="0"/></radialGradient><radialGradient id="16sWVYKY2VQSmkD0YU53yV" cx="11.051" cy="33.762" r=".52" gradientTransform="matrix(1.187 0 0 1.355 -2.777 -12.955)" xlink:href="#16sWVYKY2VQSmkD0YU53yj"/><radialGradient id="16sWVYKY2VQSmkD0YU53yU" cx="11.051" cy="33.762" r=".681" gradientTransform="matrix(1.187 0 0 1.355 -2.777 -12.955)" xlink:href="#16sWVYKY2VQSmkD0YU53yi"/><radialGradient id="16sWVYKY2VQSmkD0YU53yD" cx="13.934" cy="17.676" r="2.586" gradientTransform="matrix(1.132 0 0 .467 -2.235 8.281)" gradientUnits="userSpaceOnUse"><stop offset="0" stop-color="#a72e17"/><stop offset=".157" stop-color="#a72e17" stop-opacity=".976"/><stop offset=".312" stop-color="#a72e17" stop-opacity=".905"/><stop offset=".466" stop-color="#a72e17" stop-opacity=".786"/><stop offset=".62" stop-color="#a72e17" stop-opacity=".619"/><stop offset=".774" stop-color="#a72e17" stop-opacity=".404"/><stop offset=".926" stop-color="#a72e17" stop-opacity=".144"/><stop offset="1" stop-color="#a72e17" stop-opacity="0"/></radialGradient><radialGradient id="16sWVYKY2VQSmkD0YU53yE" cx="13.496" cy="14.739" r="2.593" xlink:href="#16sWVYKY2VQSmkD0YU53yf"/><radialGradient id="16sWVYKY2VQSmkD0YU53yF" cx="13.947" cy="15.214" r="1.571" xlink:href="#16sWVYKY2VQSmkD0YU53yg"/><radialGradient id="16sWVYKY2VQSmkD0YU53yG" cx="13.497" cy="14.741" r="2.591" xlink:href="#16sWVYKY2VQSmkD0YU53yh"/><radialGradient id="16sWVYKY2VQSmkD0YU53yi" cx="14.167" cy="14.836" r=".681" gradientUnits="userSpaceOnUse"><stop offset="0" stop-color="#8f91a6"/><stop offset=".278" stop-color="#677186"/><stop offset=".594" stop-color="#3f5267"/><stop offset=".846" stop-color="#273e54"/><stop offset="1" stop-color="#1e374d"/></radialGradient><radialGradient id="16sWVYKY2VQSmkD0YU53ym" cx="24.398" cy="27.592" r="23.267" gradientTransform="matrix(1 0 0 .553 0 12.326)" gradientUnits="userSpaceOnUse"><stop offset="0" stop-color="#b6c9d4"/><stop offset=".479" stop-color="#ccd8e1"/><stop offset="1" stop-color="#dfe6ed"/></radialGradient><radialGradient id="16sWVYKY2VQSmkD0YU53yH" cx="26.133" cy="18.898" r="1.601" gradientTransform="matrix(.997 -.079 .051 .651 -.89 8.658)" gradientUnits="userSpaceOnUse"><stop offset="0" stop-color="#f02204"/><stop offset=".131" stop-color="#f02204" stop-opacity=".984"/><stop offset=".26" stop-color="#f02204" stop-opacity=".934"/><stop offset=".389" stop-color="#f02204" stop-opacity=".851"/><stop offset=".518" stop-color="#f02204" stop-opacity=".734"/><stop offset=".647" stop-color="#f02204" stop-opacity=".584"/><stop offset=".776" stop-color="#f02204" stop-opacity=".401"/><stop offset=".902" stop-color="#f02204" stop-opacity=".187"/><stop offset="1" stop-color="#f02204" stop-opacity="0"/></radialGradient><radialGradient id="16sWVYKY2VQSmkD0YU53yI" cx="24.789" cy="17.492" r="2.437" xlink:href="#16sWVYKY2VQSmkD0YU53yf"/><radialGradient id="16sWVYKY2VQSmkD0YU53yJ" cx="25.214" cy="17.938" r="1.476" xlink:href="#16sWVYKY2VQSmkD0YU53yg"/><radialGradient id="16sWVYKY2VQSmkD0YU53yK" cx="24.503" cy="17.559" r="3.147" xlink:href="#16sWVYKY2VQSmkD0YU53yh"/><radialGradient id="16sWVYKY2VQSmkD0YU53yL" cx="25.894" cy="18.874" r=".64" gradientTransform="matrix(1 0 0 1.087 0 -2.336)" xlink:href="#16sWVYKY2VQSmkD0YU53yi"/><radialGradient id="16sWVYKY2VQSmkD0YU53yM" cx="25.894" cy="18.874" r=".489" gradientTransform="matrix(1 0 0 1.087 0 -2.336)" xlink:href="#16sWVYKY2VQSmkD0YU53yj"/><radialGradient id="16sWVYKY2VQSmkD0YU53yk" cx="40.361" cy="30.52" r="2.445" gradientTransform="rotate(1.762 -341.661 24.637) scale(1 .615)" gradientUnits="userSpaceOnUse"><stop offset="0" stop-color="#a15f3a"/><stop offset=".159" stop-color="#a15f3a" stop-opacity=".975"/><stop offset=".317" stop-color="#a15f3a" stop-opacity=".902"/><stop offset=".474" stop-color="#a15f3a" stop-opacity=".778"/><stop offset=".631" stop-color="#a15f3a" stop-opacity=".605"/><stop offset=".788" stop-color="#a15f3a" stop-opacity=".382"/><stop offset=".943" stop-color="#a15f3a" stop-opacity=".112"/><stop offset="1" stop-color="#a15f3a" stop-opacity="0"/></radialGradient><radialGradient id="16sWVYKY2VQSmkD0YU53yN" cx="40.218" cy="29.34" r="2.413" xlink:href="#16sWVYKY2VQSmkD0YU53yf"/><radialGradient id="16sWVYKY2VQSmkD0YU53yO" cx="40.639" cy="29.782" r="1.462" xlink:href="#16sWVYKY2VQSmkD0YU53yg"/><radialGradient id="16sWVYKY2VQSmkD0YU53yP" cx="41.879" cy="29.071" r="2.411" xlink:href="#16sWVYKY2VQSmkD0YU53yh"/><radialGradient id="16sWVYKY2VQSmkD0YU53yQ" cx="10.657" cy="33.828" r="1.951" gradientTransform="matrix(.96778 -.25178 .18909 .7268 -6.054 11.922)" xlink:href="#16sWVYKY2VQSmkD0YU53yk"/><radialGradient id="16sWVYKY2VQSmkD0YU53yR" cx="9.862" cy="32.109" r="2.593" xlink:href="#16sWVYKY2VQSmkD0YU53yf"/><radialGradient id="16sWVYKY2VQSmkD0YU53yS" cx="10.313" cy="32.584" r="1.571" xlink:href="#16sWVYKY2VQSmkD0YU53yg"/><radialGradient id="16sWVYKY2VQSmkD0YU53yT" cx="10.34" cy="32.65" r="2.591" xlink:href="#16sWVYKY2VQSmkD0YU53yh"/><linearGradient id="16sWVYKY2VQSmkD0YU53yr" x1="7.23" x2="53.922" y1="27.684" y2="11.226" xlink:href="#16sWVYKY2VQSmkD0YU53ya"/><linearGradient id="16sWVYKY2VQSmkD0YU53yC" x1="25.365" x2="25.243" y1="16.478" y2="15.026" gradientUnits="userSpaceOnUse"><stop offset="0" stop-color="#fae27d" stop-opacity="0"/><stop offset="1" stop-color="#ffe270"/></linearGradient><linearGradient id="16sWVYKY2VQSmkD0YU53ye" x1="23.343" x2="23.54" y1="16.859" y2="13.119" gradientUnits="userSpaceOnUse"><stop offset="0" stop-color="#fff9bf" stop-opacity="0"/><stop offset="1" stop-color="#fff9bf"/></linearGradient><linearGradient id="16sWVYKY2VQSmkD0YU53yA" x1="22.492" x2="25.113" y1="15.142" y2="10.896" gradientUnits="userSpaceOnUse"><stop offset="0" stop-color="#fff6b4" stop-opacity="0"/><stop offset="1" stop-color="#ffe389"/></linearGradient><linearGradient id="16sWVYKY2VQSmkD0YU53yz" x1="22.21" x2="25.414" y1="15.001" y2="10.952" gradientUnits="userSpaceOnUse"><stop offset="0" stop-color="#fdc955" stop-opacity="0"/><stop offset="1" stop-color="#fdc955"/></linearGradient><linearGradient id="16sWVYKY2VQSmkD0YU53yw" x1="7.572" x2="40.686" y1="19.374" y2="19.374" xlink:href="#16sWVYKY2VQSmkD0YU53yc"/><linearGradient id="16sWVYKY2VQSmkD0YU53yu" x1="8.141" x2="52.775" y1="23.851" y2="8.118" xlink:href="#16sWVYKY2VQSmkD0YU53ya"/><linearGradient id="16sWVYKY2VQSmkD0YU53yt" x1="6.646" x2="41.239" y1="22.999" y2="22.999" xlink:href="#16sWVYKY2VQSmkD0YU53yc"/><linearGradient id="16sWVYKY2VQSmkD0YU53yB" x1="23.921" x2="24.145" y1="12.694" y2="10.732" xlink:href="#16sWVYKY2VQSmkD0YU53ye"/><linearGradient id="16sWVYKY2VQSmkD0YU53yd" x1="31.18" x2="36.896" y1="26.048" y2="33.348" gradientUnits="userSpaceOnUse"><stop offset="0" stop-color="#fcbc22"/><stop offset="1" stop-color="#f87e10"/></linearGradient><linearGradient id="16sWVYKY2VQSmkD0YU53yq" x1="6.636" x2="41.229" y1="26.903" y2="26.903" xlink:href="#16sWVYKY2VQSmkD0YU53yc"/><linearGradient id="16sWVYKY2VQSmkD0YU53yo" x1="11.816" x2="45.861" y1="29.883" y2="18.236" xlink:href="#16sWVYKY2VQSmkD0YU53ya"/><linearGradient id="16sWVYKY2VQSmkD0YU53yc" x1="6.193" x2="41.703" y1="30.312" y2="30.312" gradientUnits="userSpaceOnUse"><stop offset="0" stop-color="#fba955"/><stop offset="1" stop-color="#f7cd91"/></linearGradient><linearGradient id="16sWVYKY2VQSmkD0YU53ya" x1="8.235" x2="47.118" y1="34.562" y2="21.034" gradientUnits="userSpaceOnUse"><stop offset="0" stop-color="#d9813a"/><stop offset=".267" stop-color="#e0914d"/><stop offset=".807" stop-color="#f2bc80"/><stop offset="1" stop-color="#f9cc93"/></linearGradient><linearGradient id="16sWVYKY2VQSmkD0YU53yai" x1="27.875" x2="35.33" y1="21.575" y2="31.096" xlink:href="#16sWVYKY2VQSmkD0YU53yd"/><linearGradient id="16sWVYKY2VQSmkD0YU53yaj" x1="25.403" x2="33.703" y1="17.346" y2="27.947" xlink:href="#16sWVYKY2VQSmkD0YU53yd"/></defs><g data-name="Pancakes"><path fill="url(#16sWVYKY2VQSmkD0YU53yl)" d="M46.505,27.988c-.158,2.432-1.431,6.433-7.337,9.57a32.7,32.7,0,0,1-15.106,3.389A33.041,33.041,0,0,1,8.934,37.568c-4.621-2.453-7.242-5.895-7.442-9.759-.011.211-.021.4-.021.579.01,4.053,2.652,7.685,7.463,10.233A33.041,33.041,0,0,0,24.062,42a32.691,32.691,0,0,0,15.106-3.39c6.411-3.411,7.369-7.842,7.358-10.169A3.279,3.279,0,0,0,46.505,27.988Z"/><path fill="url(#16sWVYKY2VQSmkD0YU53ym)" d="M24.066,40.944A33.039,33.039,0,0,1,8.935,37.566c-4.807-2.547-7.457-6.18-7.462-10.23,0-2.334.95-6.76,7.365-10.182,8.449-4.507,21.726-4.505,30.229,0h0c4.807,2.548,7.457,6.181,7.462,10.231,0,2.334-.948,6.758-7.359,10.177A32.81,32.81,0,0,1,24.066,40.944Z"/><path fill="url(#16sWVYKY2VQSmkD0YU53yn)" d="M24.054,37.669A28.006,28.006,0,0,1,11.64,35C7.7,32.992,5.522,30.125,5.518,26.929c0-1.843.779-5.336,6.042-8.037,6.932-3.557,17.826-3.556,24.8,0h0c3.944,2.01,6.118,4.878,6.122,8.074,0,1.842-.778,5.334-6.037,8.033A27.807,27.807,0,0,1,24.054,37.669Z" opacity=".6"/><path fill="url(#16sWVYKY2VQSmkD0YU53ya)" d="M41.5,25.5v1.977c.023,2.384-1.683,4.779-5.095,6.6-6.835,3.649-17.952,3.649-24.833,0A11.731,11.731,0,0,1,7.7,30.992a5.757,5.757,0,0,1-1.31-3.514v-1.83c.1,2.327,1.841,4.632,5.185,6.406,6.881,3.649,18,3.649,24.833,0C39.806,30.246,41.5,27.874,41.5,25.5Z"/><path fill="url(#16sWVYKY2VQSmkD0YU53yb)" d="M36.317,18.856c-6.882-3.647-18-3.647-24.831,0s-6.8,9.557.081,13.2,18,3.647,24.838,0,6.8-9.554-.088-13.2"/><path fill="url(#16sWVYKY2VQSmkD0YU53yc)" d="M6.393,25.759A7.083,7.083,0,0,0,9.07,30.168a16.381,16.381,0,0,0,4.577,2.593,28.931,28.931,0,0,0,10.4,1.783,28.73,28.73,0,0,0,10.393-1.829,15.514,15.514,0,0,0,4.535-2.651A6.887,6.887,0,0,0,41.5,25.586a6.284,6.284,0,0,1-2.277,4.752A15.016,15.016,0,0,1,34.6,33.113a28.965,28.965,0,0,1-10.552,1.925,29.373,29.373,0,0,1-10.559-1.884,15.426,15.426,0,0,1-4.65-2.724A6.589,6.589,0,0,1,6.393,25.759Z"/><path fill="url(#16sWVYKY2VQSmkD0YU53yo)" d="M41.026,22.215V24.14c.022,2.322-1.639,4.655-4.962,6.426-6.657,3.554-17.483,3.554-24.184,0a11.413,11.413,0,0,1-3.774-3A5.607,5.607,0,0,1,6.83,24.14V22.358c.1,2.267,1.794,4.511,5.05,6.239,6.7,3.553,17.527,3.553,24.184,0C39.376,26.836,41.026,24.526,41.026,22.215Z"/><path fill="url(#16sWVYKY2VQSmkD0YU53yp)" d="M35.979,15.743c-6.7-3.551-17.531-3.551-24.183,0s-6.623,9.308.079,12.86,17.53,3.551,24.189,0,6.617-9.3-.085-12.857"/><path fill="url(#16sWVYKY2VQSmkD0YU53yq)" d="M6.836,22.466a6.91,6.91,0,0,0,2.61,4.29A15.943,15.943,0,0,0,13.9,29.28a28.165,28.165,0,0,0,10.13,1.735,27.975,27.975,0,0,0,10.119-1.779,15.175,15.175,0,0,0,4.416-2.581A6.718,6.718,0,0,0,41.029,22.3a6.111,6.111,0,0,1-2.214,4.632,14.65,14.65,0,0,1-4.5,2.705,28.231,28.231,0,0,1-10.278,1.875,28.619,28.619,0,0,1-10.285-1.836,14.99,14.99,0,0,1-4.529-2.655A6.407,6.407,0,0,1,6.836,22.466Z"/><path fill="url(#16sWVYKY2VQSmkD0YU53yd)" d="M38.452,31.61a1.237,1.237,0,0,1-.21.726v.021a2.949,2.949,0,0,1-.369.463v.011c-1.042,1.084-3.095,1.726-3.137.516-.021-.674-2.21-1.327-2.21-1.327l.589-.263L37.2,29.873l.085-.032A2.375,2.375,0,0,1,38.452,31.61Z"/><path fill="url(#16sWVYKY2VQSmkD0YU53yr)" d="M41.036,18.311v1.925c.022,2.322-1.639,4.654-4.962,6.426-6.656,3.554-17.483,3.554-24.184,0a11.41,11.41,0,0,1-3.773-3A5.6,5.6,0,0,1,6.84,20.236V18.454c.1,2.266,1.794,4.511,5.05,6.238,6.7,3.554,17.528,3.554,24.184,0C39.386,22.932,41.036,20.621,41.036,18.311Z"/><path fill="url(#16sWVYKY2VQSmkD0YU53ys)" d="M35.989,11.839c-6.7-3.551-17.531-3.551-24.183,0s-6.623,9.308.079,12.86,17.531,3.551,24.189,0,6.617-9.305-.085-12.857"/><path fill="url(#16sWVYKY2VQSmkD0YU53yt)" d="M6.846,18.562a6.91,6.91,0,0,0,2.61,4.29,15.959,15.959,0,0,0,4.457,2.524,28.177,28.177,0,0,0,10.129,1.735,27.955,27.955,0,0,0,10.119-1.78,15.15,15.15,0,0,0,4.416-2.58,6.718,6.718,0,0,0,2.462-4.358,6.111,6.111,0,0,1-2.214,4.632,14.628,14.628,0,0,1-4.5,2.7,28.211,28.211,0,0,1-10.278,1.876,28.619,28.619,0,0,1-10.285-1.836,14.99,14.99,0,0,1-4.529-2.655A6.407,6.407,0,0,1,6.846,18.562Z"/><path fill="url(#16sWVYKY2VQSmkD0YU53yu)" d="M40.484,14.966v1.759c.021,2.221-1.569,4.452-4.748,6.147a18.3,18.3,0,0,1-2.526,1.106.041.041,0,0,0-.032.01c-.074.021-.137.053-.189.063A24.867,24.867,0,0,1,28.525,25.1c-5.484.811-11.6.063-15.927-2.232A10.9,10.9,0,0,1,8.987,20a5.36,5.36,0,0,1-1.221-3.273V15.019a.371.371,0,0,0,.01.105,2.573,2.573,0,0,0,.042.4c.011.1.032.2.053.306.032.126.063.252.095.368.01.032.021.053.031.084a.038.038,0,0,1,.011.032c.032.105.074.211.116.316a.7.7,0,0,1,.031.084c.042.105.1.211.148.316,0,.01,0,.01.01.021a.518.518,0,0,0,.053.105,2.854,2.854,0,0,0,.137.253.9.9,0,0,0,.052.084c.074.116.137.221.211.326l.253.348c.01.01.01.021.031.031.074.095.158.2.242.295a.632.632,0,0,1,.074.084c.063.074.137.148.21.221a.516.516,0,0,0,.074.074.469.469,0,0,0,.074.074c.168.168.347.326.537.484.094.084.189.158.284.232a4.651,4.651,0,0,0,.453.347.836.836,0,0,0,.126.084c.1.074.221.158.337.232q.537.347,1.137.663c4.116,2.179,9.853,2.969,15.117,2.347h.01c.253-.031.495-.063.737-.105a23.7,23.7,0,0,0,5.127-1.284,16.565,16.565,0,0,0,2.147-.958,13.566,13.566,0,0,0,2.053-1.337.034.034,0,0,0,.021-.011c.147-.115.274-.231.4-.347s.263-.242.39-.368c.01-.011.021-.011.031-.021.116-.127.242-.253.348-.379v-.011a6.223,6.223,0,0,0,.81-1.126c.011-.011.011-.021.021-.042.074-.137.148-.274.211-.411a4.971,4.971,0,0,0,.389-1.221c.021-.137.042-.284.053-.421C40.473,15.188,40.484,15.072,40.484,14.966Z"/><path fill="url(#16sWVYKY2VQSmkD0YU53yv)" d="M35.655,8.691c-6.413-3.4-16.773-3.4-23.138,0s-6.337,8.906.076,12.3,16.772,3.4,23.143,0,6.331-8.9-.081-12.3Z"/><path fill="url(#16sWVYKY2VQSmkD0YU53yw)" d="M7.771,15.124a6.628,6.628,0,0,0,2.5,4.1,15.294,15.294,0,0,0,4.262,2.411,26.929,26.929,0,0,0,9.688,1.658,26.752,26.752,0,0,0,9.679-1.7,14.475,14.475,0,0,0,4.222-2.467,6.437,6.437,0,0,0,2.361-4.163A5.831,5.831,0,0,1,38.373,19.4a13.988,13.988,0,0,1-4.31,2.591,27.008,27.008,0,0,1-9.838,1.8,27.4,27.4,0,0,1-9.844-1.759,14.322,14.322,0,0,1-4.335-2.543A6.122,6.122,0,0,1,7.771,15.124Z"/><path fill="url(#16sWVYKY2VQSmkD0YU53yx)" d="M32.041,19.135c-.168.948,1.106.948,1.527,2.706a.384.384,0,0,1,.021.105,2.823,2.823,0,0,1-.158,1.3,2.43,2.43,0,0,1-.337.663h.032a.309.309,0,0,0,.084.053v.011a.041.041,0,0,0-.032.01c-.074.021-.137.053-.189.063-.832.285-1.569.485-2.19.643a15.189,15.189,0,0,1-2.274.421V25.1a2.729,2.729,0,0,1,.021-.295c.011-.042.011-.084.021-.115.053-.306.116-.537-.052-.737a1.28,1.28,0,0,0-.2-.211,3.74,3.74,0,0,0-.59-.411h-.01a2.781,2.781,0,0,1-1.137-.926,1,1,0,0,1-.106-.653v-.021a1.984,1.984,0,0,0,.064-.263,2.6,2.6,0,0,0,.242-.547.918.918,0,0,0,.084-.379,1.092,1.092,0,0,0-.221-.653c-.853-1.326-8.674-.547-11.433-3.284H15.2a2.915,2.915,0,0,1-.8-1.253c-.411-1.242.674-2.358,1.7-3.316l.01-.021a10.213,10.213,0,0,0,1.169-1.232.409.409,0,0,1,.084-.105,1.369,1.369,0,0,0,.211-.432.772.772,0,0,0,.021-.379.893.893,0,0,0-.464-.431.413.413,0,0,1-.073-.011,2.288,2.288,0,0,0-.621-.189.836.836,0,0,0-.169-.053c-.758-.158-1.716-.242-2.495-.368a5.876,5.876,0,0,1-1.052-.232H12.7a.394.394,0,0,1-.074-.7c.843-.569,3.2-1.685,8.58-1.864a22.122,22.122,0,0,1,3.874.148c2.79.421,2.168,1.547,2.284,2.021a.382.382,0,0,1,.063.137c.485.484,7.685,1.547,7.875,5.485C35.494,17.725,32.231,18.051,32.041,19.135Z"/><path fill="#fccc28" d="M27.365,8.187c-1.449-2.255-7.915-1.119-11.116-.463-.714.147-1.336.878.011,1.461-1.17-.241-2.768-.31-3.559-.6a.394.394,0,0,1-.069-.7c.843-.567,3.2-1.685,8.579-1.857C28.345,5.8,27.211,7.551,27.365,8.187Z"/><path fill="#fa960e" d="M17.944,9.7a3.16,3.16,0,0,1-.584.98,1.374,1.374,0,0,0,.206-.43.7.7,0,0,0,.017-.378.821.821,0,0,0-.464-.43.278.278,0,0,1-.069-.017,2.65,2.65,0,0,0-.619-.189c-.051-.017-.1-.034-.171-.051-.757-.155-1.72-.241-2.493-.362C13.767,8.823,18.322,8.566,17.944,9.7Z"/><path fill="#f9880f" d="M26.728,19.586a1.594,1.594,0,0,1,.139.962,1.14,1.14,0,0,0-.224-.653c-.859-1.324-8.681-.55-11.432-3.284C19.918,18.846,26.065,17.909,26.728,19.586Z"/><path fill="#f86a0c" d="M32.989,24.051c-.832.285-1.569.485-2.19.643a15.189,15.189,0,0,1-2.274.421V25.1c.011-.147.021-.284.042-.41.032-.306.074-.569-.084-.758-.053-.064-.105-.127-.168-.19a3.74,3.74,0,0,0-.59-.411h-.01a2.781,2.781,0,0,1-1.137-.926,1,1,0,0,1-.106-.653v-.021a1.984,1.984,0,0,0,.064-.263h.021c.284,1.084,1.284,1.411,1.905,1.758.347.19.569.379.537.706-.4,1.2,2.79.431,4.432-.685-.084.253-.168.527-.221.727C33.21,23.978,33.041,24.041,32.989,24.051Z"/><path fill="#faab17" d="M32.533,21.674a.877.877,0,0,0-.38,1c.134.715-2.416,1-2.416,1,.151.7,3.237-.338,3.334-.761C33.342,21.719,32.778,21.49,32.533,21.674Z"/><path fill="#fccc28" d="M30.349,10.175s5.9,1.571,3.634,5.413a5.5,5.5,0,0,0-.756-2.871A17.735,17.735,0,0,0,30.349,10.175Z"/><path fill="#fdcd2a" d="M17.236,11.583s-2.02,1.252-2.025,2.912a2.489,2.489,0,0,0,1.806,2.19S15.023,14.674,17.236,11.583Z"/><ellipse cx="21.579" cy="10.447" fill="url(#16sWVYKY2VQSmkD0YU53yy)" opacity=".8" rx="1.204" ry=".678"/><path fill="url(#16sWVYKY2VQSmkD0YU53yf)" d="M22.139,9.767a1.051,1.051,0,0,1-1.052,1.052.985.985,0,0,1-.72-.292s0,.008-.008,0a.669.669,0,0,1-.106-.113,1.018,1.018,0,0,1-.226-.647,1.062,1.062,0,0,1,1.65-.882,1.143,1.143,0,0,1,.462.882Z"/><path fill="url(#16sWVYKY2VQSmkD0YU53yg)" d="M21.993,9.54a1.112,1.112,0,0,1-1.108,1.117,1.023,1.023,0,0,1-.518-.13s0,.008-.008,0a.669.669,0,0,1-.106-.113,1.018,1.018,0,0,1-.226-.647,1.062,1.062,0,0,1,1.65-.882.985.985,0,0,1,.235.234A1.053,1.053,0,0,1,21.993,9.54Z" opacity=".5"/><circle cx="21.083" cy="9.764" r="1.055" fill="url(#16sWVYKY2VQSmkD0YU53yh)" opacity=".5"/><path fill="url(#16sWVYKY2VQSmkD0YU53yz)" d="M19.432,12.142c-.045-.745,4.987-1.453,5.889-1.066s3.077,2.179,3,2.639-5.837,1.6-6.235,1.186S19.485,13.037,19.432,12.142Z"/><path fill="#fedf78" d="M19.193,13.84c-.046-.785,5.255-1.531,6.2-1.123s3.243,2.3,3.159,2.78-6.149,1.684-6.569,1.25S19.249,14.783,19.193,13.84Z"/><path fill="#fee079" d="M19.2,13.759c-.046-.783,5.243-1.527,6.191-1.12s3.234,2.29,3.151,2.773-6.135,1.68-6.553,1.247S19.26,14.7,19.2,13.759Z"/><path fill="#fee07a" d="M19.216,13.678c-.046-.781,5.229-1.523,6.175-1.117s3.227,2.284,3.143,2.767S22.415,17,22,16.571,19.271,14.617,19.216,13.678Z"/><path fill="#fee17b" d="M19.227,13.6c-.046-.779,5.217-1.519,6.16-1.114s3.219,2.279,3.136,2.76-6.1,1.671-6.521,1.24S19.283,14.534,19.227,13.6Z"/><path fill="#fee27c" d="M19.238,13.516c-.046-.777,5.2-1.515,6.146-1.111s3.211,2.273,3.128,2.753-6.09,1.667-6.5,1.237S19.294,14.451,19.238,13.516Z"/><path fill="#fee37d" d="M19.25,13.435c-.046-.775,5.191-1.512,6.13-1.108s3.2,2.267,3.12,2.746-6.075,1.663-6.489,1.235S19.305,14.367,19.25,13.435Z"/><path fill="#fee37f" d="M19.261,13.354c-.046-.773,5.179-1.508,6.115-1.106s3.2,2.263,3.113,2.74-6.06,1.659-6.473,1.232S19.316,14.284,19.261,13.354Z"/><path fill="#fee480" d="M19.273,13.274c-.046-.772,5.165-1.5,6.1-1.1s3.187,2.257,3.1,2.733-6.045,1.655-6.457,1.229S19.327,14.2,19.273,13.274Z"/><path fill="#fee581" d="M19.284,13.193c-.046-.77,5.153-1.5,6.085-1.1s3.179,2.251,3.1,2.726-6.03,1.651-6.441,1.226S19.339,14.118,19.284,13.193Z"/><path fill="#fee582" d="M19.3,13.112c-.045-.768,5.141-1.5,6.07-1.1s3.172,2.245,3.09,2.719-6.015,1.647-6.426,1.223S19.35,14.035,19.3,13.112Z"/><path fill="#fee683" d="M19.307,13.031c-.046-.766,5.127-1.493,6.054-1.1s3.164,2.24,3.082,2.713-6,1.642-6.409,1.219S19.361,13.952,19.307,13.031Z"/><path fill="#ffe784" d="M19.318,12.95c-.045-.764,5.115-1.489,6.04-1.092s3.156,2.234,3.074,2.706S22.447,16.2,22.039,15.78,19.372,13.869,19.318,12.95Z"/><path fill="#ffe885" d="M19.329,12.869c-.045-.761,5.1-1.486,6.025-1.089s3.148,2.228,3.067,2.7-5.971,1.634-6.378,1.213S19.384,13.785,19.329,12.869Z"/><path fill="#ffe886" d="M19.341,12.788c-.045-.759,5.089-1.482,6.009-1.086s3.141,2.223,3.059,2.692-5.955,1.63-6.361,1.21S19.4,13.7,19.341,12.788Z"/><path fill="#ffe987" d="M19.352,12.708c-.045-.758,5.077-1.479,6-1.085s3.132,2.218,3.051,2.686-5.941,1.626-6.346,1.207S19.406,13.619,19.352,12.708Z"/><path fill="#ffea88" d="M19.363,12.627c-.044-.756,5.064-1.475,5.98-1.082s3.124,2.212,3.044,2.679-5.926,1.622-6.33,1.2S19.417,13.536,19.363,12.627Z"/><path fill="#ffea8a" d="M19.375,12.546c-.045-.754,5.051-1.471,5.964-1.079s3.117,2.207,3.036,2.672-5.911,1.618-6.314,1.2S19.428,13.453,19.375,12.546Z"/><path fill="#ffeb8b" d="M19.386,12.465c-.044-.752,5.038-1.467,5.95-1.076s3.108,2.2,3.028,2.665-5.9,1.614-6.3,1.2S19.44,13.37,19.386,12.465Z"/><path fill="#ffec8c" d="M19.4,12.384c-.044-.75,5.026-1.463,5.935-1.073s3.1,2.2,3.021,2.659-5.881,1.609-6.282,1.195S19.451,13.287,19.4,12.384Z"/><path fill="#ffed8d" d="M19.409,12.3c-.045-.748,5.013-1.46,5.919-1.07s3.093,2.189,3.013,2.652-5.866,1.605-6.266,1.192S19.462,13.2,19.409,12.3Z"/><path fill="#ffed8e" d="M19.42,12.222c-.044-.746,5-1.456,5.9-1.067s3.085,2.184,3,2.645-5.851,1.6-6.25,1.189S19.473,13.12,19.42,12.222Z"/><path fill="#ffee8f" d="M19.432,12.142c-.045-.745,4.987-1.453,5.889-1.066s3.077,2.179,3,2.639-5.837,1.6-6.235,1.186S19.485,13.037,19.432,12.142Z"/><path fill="url(#16sWVYKY2VQSmkD0YU53yA)" d="M19.432,12.142c-.045-.745,4.987-1.453,5.889-1.066s3.077,2.179,3,2.639-5.837,1.6-6.235,1.186S19.485,13.037,19.432,12.142Z"/><path fill="url(#16sWVYKY2VQSmkD0YU53ye)" d="M27.374,14.216c-1.429.1-2.641.2-4.041.376a6.077,6.077,0,0,1-1.108.078,3.481,3.481,0,0,1-.844-.518l-1.715-1.345h0a8.947,8.947,0,0,0,1.36,1.694c.279.247.771.565.884.713a7.007,7.007,0,0,1,.279,1.246h.127a4.883,4.883,0,0,1,.327-1.23c.139-.092,3.355-.6,4.731-1.014Z"/><path fill="url(#16sWVYKY2VQSmkD0YU53yB)" d="M28.242,13.47a12.41,12.41,0,0,0-3.185-2.191c-1.147-.318-5.453.612-5.453.612a11.629,11.629,0,0,1,5.72-.816,9.447,9.447,0,0,1,2.9,2.37A.041.041,0,0,0,28.242,13.47Z"/><path fill="url(#16sWVYKY2VQSmkD0YU53yC)" d="M28.4,15.624a18.958,18.958,0,0,1-6.161,1.2c.013-.076.077-.359.077-.359a4.871,4.871,0,0,1,.331-1.236c.127-.089,3.261-.586,4.663-.993.025,0,.038-.013.063-.013a4.248,4.248,0,0,1,.867-.115,8.109,8.109,0,0,1,.191,1.363C28.445,15.521,28.4,15.586,28.4,15.624Z"/><ellipse cx="14.799" cy="16.555" fill="url(#16sWVYKY2VQSmkD0YU53yD)" opacity=".8" rx="1.588" ry=".894"/><path fill="url(#16sWVYKY2VQSmkD0YU53yE)" d="M15.693,15.6a1.454,1.454,0,0,1-1.457,1.458,1.369,1.369,0,0,1-1-.4s0,.011-.011,0a.988.988,0,0,1-.146-.157,1.405,1.405,0,0,1-.314-.9,1.472,1.472,0,0,1,2.287-1.222,1.59,1.59,0,0,1,.639,1.222Z"/><path fill="url(#16sWVYKY2VQSmkD0YU53yF)" d="M15.491,15.284a1.541,1.541,0,0,1-1.536,1.548,1.415,1.415,0,0,1-.717-.18s0,.011-.011,0a.988.988,0,0,1-.146-.157,1.405,1.405,0,0,1-.314-.9,1.472,1.472,0,0,1,2.287-1.222,1.355,1.355,0,0,1,.325.325A1.456,1.456,0,0,1,15.491,15.284Z" opacity=".5"/><circle cx="14.23" cy="15.594" r="1.462" fill="url(#16sWVYKY2VQSmkD0YU53yG)" opacity=".5"/><ellipse cx="14.167" cy="14.836" fill="url(#16sWVYKY2VQSmkD0YU53yi)" rx=".724" ry=".635"/><ellipse cx="14.167" cy="14.836" fill="url(#16sWVYKY2VQSmkD0YU53yj)" rx=".553" ry=".485"/><ellipse cx="26.146" cy="18.974" fill="url(#16sWVYKY2VQSmkD0YU53yH)" opacity=".8" rx="1.588" ry=".894"/><path fill="url(#16sWVYKY2VQSmkD0YU53yI)" d="M26.855,18.3a1.367,1.367,0,0,1-1.37,1.37,1.288,1.288,0,0,1-.938-.379s0,.01-.011,0a.875.875,0,0,1-.137-.148,1.321,1.321,0,0,1-.3-.843,1.384,1.384,0,0,1,2.15-1.149,1.349,1.349,0,0,1,.306.306A1.323,1.323,0,0,1,26.855,18.3Z"/><path fill="url(#16sWVYKY2VQSmkD0YU53yJ)" d="M26.665,18a1.449,1.449,0,0,1-1.444,1.455,1.334,1.334,0,0,1-.674-.169s0,.01-.011,0a.875.875,0,0,1-.137-.148,1.321,1.321,0,0,1-.3-.843,1.384,1.384,0,0,1,2.15-1.149,1.288,1.288,0,0,1,.306.306A1.369,1.369,0,0,1,26.665,18Z" opacity=".5"/><circle cx="25.48" cy="18.295" r="1.374" fill="url(#16sWVYKY2VQSmkD0YU53yK)" opacity=".5"/><ellipse cx="25.894" cy="18.189" fill="url(#16sWVYKY2VQSmkD0YU53yL)" rx=".681" ry=".649"/><ellipse cx="25.894" cy="18.189" fill="url(#16sWVYKY2VQSmkD0YU53yM)" rx=".52" ry=".496"/><ellipse cx="41.436" cy="30.711" fill="url(#16sWVYKY2VQSmkD0YU53yk)" opacity=".8" rx="1.588" ry=".894"/><path fill="url(#16sWVYKY2VQSmkD0YU53yN)" d="M42.264,30.14A1.354,1.354,0,0,1,40.907,31.5a1.276,1.276,0,0,1-.929-.375s0,.01-.01,0a.942.942,0,0,1-.136-.146,1.311,1.311,0,0,1-.292-.835A1.371,1.371,0,0,1,41.669,29a1.342,1.342,0,0,1,.3.3A1.312,1.312,0,0,1,42.264,30.14Z"/><path fill="url(#16sWVYKY2VQSmkD0YU53yO)" d="M42.076,29.848a1.434,1.434,0,0,1-1.43,1.44,1.321,1.321,0,0,1-.668-.167s0,.01-.01,0a.942.942,0,0,1-.136-.146,1.311,1.311,0,0,1-.292-.835A1.371,1.371,0,0,1,41.669,29a1.3,1.3,0,0,1,.3.3A1.362,1.362,0,0,1,42.076,29.848Z" opacity=".5"/><circle cx="40.902" cy="30.136" r="1.361" fill="url(#16sWVYKY2VQSmkD0YU53yP)" opacity=".5"/><ellipse cx="11.198" cy="33.745" fill="url(#16sWVYKY2VQSmkD0YU53yQ)" opacity=".8" rx="1.588" ry=".894"/><path fill="url(#16sWVYKY2VQSmkD0YU53yR)" d="M12.059,32.968A1.454,1.454,0,0,1,10.6,34.426a1.367,1.367,0,0,1-1-.4s0,.011-.012,0a.982.982,0,0,1-.145-.157,1.405,1.405,0,0,1-.314-.9,1.472,1.472,0,0,1,2.287-1.222,1.59,1.59,0,0,1,.639,1.222Z"/><path fill="url(#16sWVYKY2VQSmkD0YU53yS)" d="M11.857,32.654A1.542,1.542,0,0,1,10.321,34.2a1.413,1.413,0,0,1-.717-.18s0,.011-.012,0a.982.982,0,0,1-.145-.157,1.405,1.405,0,0,1-.314-.9,1.472,1.472,0,0,1,2.287-1.222,1.355,1.355,0,0,1,.325.325A1.456,1.456,0,0,1,11.857,32.654Z" opacity=".5"/><circle cx="10.596" cy="32.964" r="1.462" fill="url(#16sWVYKY2VQSmkD0YU53yT)" opacity=".5"/><circle cx="10.339" cy="32.802" r=".86" fill="url(#16sWVYKY2VQSmkD0YU53yU)"/><circle cx="10.339" cy="32.802" r=".657" fill="url(#16sWVYKY2VQSmkD0YU53yV)"/><path fill="url(#16sWVYKY2VQSmkD0YU53yW)" d="M32.862,11.892c.113.509.727.843,1.626.8.823-.035,1.266-.338,1.266-.862s-.871-.786-1.71-.786C33.221,11.049,32.75,11.384,32.862,11.892Z" opacity=".7"/><path fill="url(#16sWVYKY2VQSmkD0YU53yX)" d="M34.919,11.292a1.237,1.237,0,0,1-1.239,1.24,1.166,1.166,0,0,1-.849-.343s0,.009-.009,0a.789.789,0,0,1-.124-.134,1.2,1.2,0,0,1-.267-.763,1.251,1.251,0,0,1,1.945-1.039,1.351,1.351,0,0,1,.543,1.039Z"/><path fill="url(#16sWVYKY2VQSmkD0YU53yY)" d="M34.748,11.025a1.31,1.31,0,0,1-1.306,1.316,1.208,1.208,0,0,1-.611-.152s0,.009-.009,0a.789.789,0,0,1-.124-.134,1.2,1.2,0,0,1-.267-.763,1.251,1.251,0,0,1,1.945-1.039,1.148,1.148,0,0,1,.276.276A1.239,1.239,0,0,1,34.748,11.025Z" opacity=".5"/><circle cx="33.675" cy="11.288" r="1.243" fill="url(#16sWVYKY2VQSmkD0YU53yZ)" opacity=".5"/><ellipse cx="33.726" cy="11.405" fill="url(#16sWVYKY2VQSmkD0YU53yaa)" rx=".616" ry=".638"/><ellipse cx="33.726" cy="11.405" fill="url(#16sWVYKY2VQSmkD0YU53yab)" rx=".47" ry=".487"/><ellipse cx="24.113" cy="13.013" fill="url(#16sWVYKY2VQSmkD0YU53yac)" opacity=".8" rx="1.49" ry=".894" style="mix-blend-mode:overlay"/><path fill="url(#16sWVYKY2VQSmkD0YU53yad)" d="M24.917,12.582a1.228,1.228,0,0,1-1.254,1.2,1.2,1.2,0,0,1-.858-.333s0,.009-.01,0a.809.809,0,0,1-.125-.13,1.133,1.133,0,0,1-.27-.741,1.237,1.237,0,0,1,1.263-1.213,1.307,1.307,0,0,1,.7.2,1.2,1.2,0,0,1,.28.269A1.136,1.136,0,0,1,24.917,12.582Z"/><path fill="url(#16sWVYKY2VQSmkD0YU53yae)" d="M24.743,12.323A1.3,1.3,0,0,1,23.422,13.6a1.259,1.259,0,0,1-.617-.148s0,.009-.01,0a.809.809,0,0,1-.125-.13,1.133,1.133,0,0,1-.27-.741,1.237,1.237,0,0,1,1.263-1.213,1.307,1.307,0,0,1,.7.2,1.149,1.149,0,0,1,.28.269A1.168,1.168,0,0,1,24.743,12.323Z" opacity=".5"/><ellipse cx="23.658" cy="12.579" fill="url(#16sWVYKY2VQSmkD0YU53yaf)" opacity=".5" rx="1.257" ry="1.207"/><ellipse cx="23.91" cy="11.929" fill="url(#16sWVYKY2VQSmkD0YU53yag)" rx=".461" ry=".612" transform="rotate(-71.459 23.91 11.93)"/><ellipse cx="23.91" cy="11.929" fill="url(#16sWVYKY2VQSmkD0YU53yah)" rx=".352" ry=".467" transform="rotate(-71.459 23.91 11.93)"/><path fill="url(#16sWVYKY2VQSmkD0YU53yai)" d="M37.281,29.845c-.514,1.009-4.756,2.171-4.756,2.171a2.5,2.5,0,0,0-.014-1.7,12.158,12.158,0,0,0-1.943-1.68l.6-.183,3.705-1.133a18.444,18.444,0,0,1,1.867,1.119C36.987,28.649,37.52,29.374,37.281,29.845Z"/><path fill="#f86a0c" d="M37.306,29.327a.525.525,0,0,1-.076.621c-1.261,1.479-4.7,2.068-4.7,2.068a2.823,2.823,0,0,0,0-1.657,12.027,12.027,0,0,0-1.981-1.728l.517-.152s2.008,1.337,1.952,2.232c-.039.609.554.816,1.632.446C35.609,30.828,37.05,29.993,37.306,29.327Z"/><path fill="#faab17" d="M34.288,30.468s1.67-.486,1.705-.832.172-.531.325-.549.562.167.374.513S34.691,30.814,34.288,30.468Z"/><path fill="url(#16sWVYKY2VQSmkD0YU53yaj)" d="M35.578,26.388c-.01.032-.021.468-.158.6-1.337,1.411-4.874,1.638-4.874,1.638a1.656,1.656,0,0,0,.464-1.853A13.819,13.819,0,0,0,28.525,25.1l.7-.168,3.99-.958A13.446,13.446,0,0,1,35.478,25.5,1.139,1.139,0,0,1,35.578,26.388Z"/><path fill="#f86a0c" d="M35.575,26.411a.814.814,0,0,1-.155.582c-1.337,1.411-4.874,1.638-4.874,1.638a1.686,1.686,0,0,0,.464-1.853A13.117,13.117,0,0,0,28.525,25.1l.7-.168s2.854,1.368,2.263,2.589C30.812,28.914,35.164,26.959,35.575,26.411Z"/><path fill="#faab17" d="M32.925,27.035s1.613-.336,1.684-.741c.068-.389.22-.6.365-.6a.44.44,0,0,1,.292.66C35.051,26.734,33.262,27.5,32.925,27.035Z"/><path fill="#f86a0c" d="M37.873,32.82v.011c-1.042,1.084-3.095,1.726-3.137.516-.021-.674-2.21-1.327-2.21-1.327l.589-.263,1.979-.474c-.965.424-2.647.71-1.531.85.454.057,1.573.814,1.552,1.382S37,33.589,37.873,32.82Z"/><path fill="#f86a0c" d="M38.242,32.336c.211-1.486-.415-1.824-.653-2.009a.538.538,0,0,0-.653-.075l.263-.379.085-.032a2.375,2.375,0,0,1,1.168,1.769A1.237,1.237,0,0,1,38.242,32.336Z"/><path fill="#faab17" d="M35.575,32.981a3.287,3.287,0,0,0,1.407-.406c.47-.347.891-.725.891-.725a1.922,1.922,0,0,1-.916,1.325A1.241,1.241,0,0,1,35.575,32.981Z"/></g></svg>