<svg xmlns="http://www.w3.org/2000/svg" xmlns:xlink="http://www.w3.org/1999/xlink" viewBox="0 0 48 48"><defs><radialGradient id="s_2tORmkYDd2qSJ_5M~Daj" cx="11.185" cy="25.143" r="75.682" gradientTransform="rotate(-31.09 38.777 17.468) scale(1 .389)" gradientUnits="userSpaceOnUse"><stop offset="0" stop-color="#c95d39"/><stop offset="1" stop-color="#faca80"/></radialGradient><linearGradient id="s_2tORmkYDd2qSJ_5M~Daa" x1="9.782" x2="7.063" y1="38.269" y2="33.365" gradientUnits="userSpaceOnUse"><stop offset="0" stop-color="#844f2d"/><stop offset="1" stop-color="#6d3c23"/></linearGradient><linearGradient id="s_2tORmkYDd2qSJ_5M~Dak" x1="11.81" x2="8.362" y1="36.267" y2="30.051" xlink:href="#s_2tORmkYDd2qSJ_5M~Daa"/><linearGradient id="s_2tORmkYDd2qSJ_5M~Dal" x1="14.44" x2="10.459" y1="31.633" y2="24.457" xlink:href="#s_2tORmkYDd2qSJ_5M~Daa"/><linearGradient id="s_2tORmkYDd2qSJ_5M~Dam" x1="18.091" x2="14.11" y1="29.073" y2="21.897" xlink:href="#s_2tORmkYDd2qSJ_5M~Daa"/><linearGradient id="s_2tORmkYDd2qSJ_5M~Dan" x1="12.953" x2="10.923" y1="25.893" y2="22.232" xlink:href="#s_2tORmkYDd2qSJ_5M~Daa"/><radialGradient id="s_2tORmkYDd2qSJ_5M~Dao" cx="5.599" cy="32.426" r="2.787" xlink:href="#s_2tORmkYDd2qSJ_5M~Daa"/><linearGradient id="s_2tORmkYDd2qSJ_5M~Dap" x1="10.329" x2="9.034" y1="26.965" y2="24.631" xlink:href="#s_2tORmkYDd2qSJ_5M~Daa"/><linearGradient id="s_2tORmkYDd2qSJ_5M~Daq" x1="8.929" x2="7.868" y1="27.535" y2="25.622" xlink:href="#s_2tORmkYDd2qSJ_5M~Daa"/><linearGradient id="s_2tORmkYDd2qSJ_5M~Dar" x1="15.114" x2="13.373" y1="24.614" y2="21.476" xlink:href="#s_2tORmkYDd2qSJ_5M~Daa"/><linearGradient id="s_2tORmkYDd2qSJ_5M~Das" x1="17.408" x2="15.853" y1="22.991" y2="20.188" xlink:href="#s_2tORmkYDd2qSJ_5M~Daa"/><linearGradient id="s_2tORmkYDd2qSJ_5M~Dat" x1="19.629" x2="18.074" y1="22.262" y2="19.459" xlink:href="#s_2tORmkYDd2qSJ_5M~Daa"/><linearGradient id="s_2tORmkYDd2qSJ_5M~Dau" x1="22.444" x2="18.463" y1="27.786" y2="20.61" xlink:href="#s_2tORmkYDd2qSJ_5M~Daa"/><linearGradient id="s_2tORmkYDd2qSJ_5M~Dav" x1="10.318" x2="8.073" y1="30.009" y2="25.961" xlink:href="#s_2tORmkYDd2qSJ_5M~Daa"/><linearGradient id="s_2tORmkYDd2qSJ_5M~Daw" x1="9.369" x2="7.428" y1="31.733" y2="28.236" xlink:href="#s_2tORmkYDd2qSJ_5M~Daa"/><linearGradient id="s_2tORmkYDd2qSJ_5M~Dax" x1="12.376" x2="10.285" y1="29.478" y2="25.709" xlink:href="#s_2tORmkYDd2qSJ_5M~Daa"/><radialGradient id="s_2tORmkYDd2qSJ_5M~Day" cx="6.354" cy="30.829" r="3.582" xlink:href="#s_2tORmkYDd2qSJ_5M~Daa"/><linearGradient id="s_2tORmkYDd2qSJ_5M~Daz" x1="10.803" x2="9.042" y1="33.009" y2="29.834" xlink:href="#s_2tORmkYDd2qSJ_5M~Daa"/><radialGradient id="s_2tORmkYDd2qSJ_5M~DaA" cx="8.653" cy="33.953" r="3.267" xlink:href="#s_2tORmkYDd2qSJ_5M~Daa"/><linearGradient id="s_2tORmkYDd2qSJ_5M~DaB" x1="14.76" x2="12.519" y1="28.174" y2="24.135" xlink:href="#s_2tORmkYDd2qSJ_5M~Daa"/><radialGradient id="s_2tORmkYDd2qSJ_5M~DaC" cx="10.31" cy="27.317" r="12.063" gradientTransform="matrix(.744 -.669 .316 .351 -5.976 24.624)" gradientUnits="userSpaceOnUse"><stop offset="0" stop-color="#fff8eb"/><stop offset="1" stop-color="#f4c468"/></radialGradient><linearGradient id="s_2tORmkYDd2qSJ_5M~DaD" x1="9.105" x2="10.568" y1="28.912" y2="26.759" gradientUnits="userSpaceOnUse"><stop offset="0" stop-color="#f4c468" stop-opacity="0"/><stop offset="1" stop-color="#f4c468"/></linearGradient><linearGradient id="s_2tORmkYDd2qSJ_5M~Dab" x1="7.441" x2="12.048" y1="26.562" y2="24.766" gradientUnits="userSpaceOnUse"><stop offset="0" stop-color="#b2ed48"/><stop offset=".401" stop-color="#90d735"/><stop offset=".773" stop-color="#78c828"/><stop offset="1" stop-color="#6fc223"/></linearGradient><linearGradient id="s_2tORmkYDd2qSJ_5M~DaE" x1="8.458" x2="10.728" y1="22.94" y2="22.496" xlink:href="#s_2tORmkYDd2qSJ_5M~Dab"/><linearGradient id="s_2tORmkYDd2qSJ_5M~DaF" x1="38.89" x2="32.065" y1="4.648" y2="19.246" xlink:href="#s_2tORmkYDd2qSJ_5M~Dab"/><linearGradient id="s_2tORmkYDd2qSJ_5M~DaG" x1="16.536" x2="18.941" y1="33.162" y2="30.529" xlink:href="#s_2tORmkYDd2qSJ_5M~Dab"/><linearGradient id="s_2tORmkYDd2qSJ_5M~Dac" x1="-.135" x2=".446" y1="19" y2="19.625" gradientTransform="rotate(-118.115 6.711 20.042)" gradientUnits="userSpaceOnUse"><stop offset="0" stop-color="#fcd370"/><stop offset=".211" stop-color="#fccd63"/><stop offset=".7" stop-color="#fcc24b"/><stop offset="1" stop-color="#fcbe42"/></linearGradient><linearGradient id="s_2tORmkYDd2qSJ_5M~Dad" x1=".856" x2="-.361" y1="25.404" y2="25.415" gradientTransform="rotate(-118.115 6.711 20.042)" gradientUnits="userSpaceOnUse"><stop offset="0" stop-color="#fa9403"/><stop offset=".27" stop-color="#fa9a0c"/><stop offset=".71" stop-color="#fbaa24"/><stop offset="1" stop-color="#fcb738"/></linearGradient><linearGradient id="s_2tORmkYDd2qSJ_5M~Dae" x1="-1.719" x2="-.031" y1="25.352" y2="25.439" gradientTransform="rotate(-118.115 6.711 20.042)" gradientUnits="userSpaceOnUse"><stop offset="0" stop-color="#fcd370"/><stop offset=".268" stop-color="#fcbe42"/><stop offset=".543" stop-color="#fbaa24"/><stop offset=".826" stop-color="#fa9a0c"/><stop offset="1" stop-color="#fa9403"/></linearGradient><radialGradient id="s_2tORmkYDd2qSJ_5M~Daf" cx="11.296" cy="26.172" r="9.65" gradientUnits="userSpaceOnUse"><stop offset="0" stop-color="#ff473d"/><stop offset=".313" stop-color="#f83d34"/><stop offset=".851" stop-color="#e6211a"/><stop offset="1" stop-color="#e01812"/></radialGradient><radialGradient id="s_2tORmkYDd2qSJ_5M~Dag" cx="7.053" cy="27.032" r="5.315" gradientTransform="matrix(.99321 .11632 -.05328 .4549 1.487 13.923)" gradientUnits="userSpaceOnUse"><stop offset="0" stop-color="#ff9a8c"/><stop offset=".086" stop-color="#ff9a8c" stop-opacity=".959"/><stop offset=".233" stop-color="#ff9a8c" stop-opacity=".85"/><stop offset=".425" stop-color="#ff9a8c" stop-opacity=".671"/><stop offset=".654" stop-color="#ff9a8c" stop-opacity=".424"/><stop offset=".912" stop-color="#ff9a8c" stop-opacity=".113"/><stop offset="1" stop-color="#ff9a8c" stop-opacity="0"/></radialGradient><linearGradient id="s_2tORmkYDd2qSJ_5M~DaH" x1="13.613" x2="19.335" y1="28.94" y2="24.429" xlink:href="#s_2tORmkYDd2qSJ_5M~Dab"/><linearGradient id="s_2tORmkYDd2qSJ_5M~DaI" x1="-1.327" x2="-.746" y1="22.439" y2="23.064" xlink:href="#s_2tORmkYDd2qSJ_5M~Dac"/><linearGradient id="s_2tORmkYDd2qSJ_5M~DaJ" x1="-.336" x2="-1.553" y1="28.843" y2="28.854" xlink:href="#s_2tORmkYDd2qSJ_5M~Dad"/><linearGradient id="s_2tORmkYDd2qSJ_5M~DaK" x1="-2.912" x2="-1.223" y1="28.791" y2="28.879" xlink:href="#s_2tORmkYDd2qSJ_5M~Dae"/><radialGradient id="s_2tORmkYDd2qSJ_5M~DaL" cx="9.986" cy="20.723" r="10.549" xlink:href="#s_2tORmkYDd2qSJ_5M~Daf"/><radialGradient id="s_2tORmkYDd2qSJ_5M~DaM" cx="5.347" cy="21.663" r="5.81" gradientTransform="matrix(.99321 .11632 -.05328 .4549 1.19 11.193)" xlink:href="#s_2tORmkYDd2qSJ_5M~Dag"/><linearGradient id="s_2tORmkYDd2qSJ_5M~DaN" x1="21.268" x2="24.077" y1="29" y2="24.331" xlink:href="#s_2tORmkYDd2qSJ_5M~Dab"/><linearGradient id="s_2tORmkYDd2qSJ_5M~DaO" x1="1.546" x2="2.127" y1="21.806" y2="22.431" gradientTransform="rotate(-113.83 6.582 19.508)" xlink:href="#s_2tORmkYDd2qSJ_5M~Dac"/><linearGradient id="s_2tORmkYDd2qSJ_5M~DaP" x1="2.537" x2="1.32" y1="28.21" y2="28.221" gradientTransform="rotate(-113.83 6.582 19.508)" xlink:href="#s_2tORmkYDd2qSJ_5M~Dad"/><linearGradient id="s_2tORmkYDd2qSJ_5M~DaQ" x1="-.039" x2="1.65" y1="28.158" y2="28.245" gradientTransform="rotate(-113.83 6.582 19.508)" xlink:href="#s_2tORmkYDd2qSJ_5M~Dae"/><radialGradient id="s_2tORmkYDd2qSJ_5M~DaR" cx="14.25" cy="21.605" r="12.826" xlink:href="#s_2tORmkYDd2qSJ_5M~Daf"/><radialGradient id="s_2tORmkYDd2qSJ_5M~DaS" cx="8.609" cy="22.748" r="7.065" gradientTransform="matrix(.99321 .11632 -.05328 .4549 1.27 11.406)" xlink:href="#s_2tORmkYDd2qSJ_5M~Dag"/><linearGradient id="s_2tORmkYDd2qSJ_5M~Dah" x1="22.213" x2="23.61" y1="-13.594" y2="-13.594" gradientTransform="rotate(-110.13 30.177 4.972)" gradientUnits="userSpaceOnUse"><stop offset="0" stop-color="#fcb738"/><stop offset=".29" stop-color="#fbaa24"/><stop offset=".73" stop-color="#fa9a0c"/><stop offset="1" stop-color="#fa9403"/></linearGradient><linearGradient id="s_2tORmkYDd2qSJ_5M~Dai" x1="20.905" x2="23.054" y1="-13.696" y2="-13.316" gradientTransform="rotate(-110.13 30.177 4.972)" gradientUnits="userSpaceOnUse"><stop offset="0" stop-color="#fcd370"/><stop offset=".011" stop-color="#fcd16d"/><stop offset=".105" stop-color="#fcc755"/><stop offset=".193" stop-color="#fcc047"/><stop offset=".268" stop-color="#fcbe42"/><stop offset=".543" stop-color="#fbaa24"/><stop offset=".826" stop-color="#fa9a0c"/><stop offset="1" stop-color="#fa9403"/></linearGradient><linearGradient id="s_2tORmkYDd2qSJ_5M~DaT" x1="9.702" x2="30.169" y1="19.498" y2="15.215" xlink:href="#s_2tORmkYDd2qSJ_5M~Dab"/><radialGradient id="s_2tORmkYDd2qSJ_5M~DaU" cx="16.99" cy="18.472" r="11.445" xlink:href="#s_2tORmkYDd2qSJ_5M~Daf"/><radialGradient id="s_2tORmkYDd2qSJ_5M~DaV" cx="11.956" cy="19.492" r="6.304" gradientTransform="matrix(.99321 .11632 -.05328 .4549 1.119 9.241)" xlink:href="#s_2tORmkYDd2qSJ_5M~Dag"/><radialGradient id="s_2tORmkYDd2qSJ_5M~DaW" cx="23.543" cy="12.769" r="10.094" xlink:href="#s_2tORmkYDd2qSJ_5M~Daf"/><radialGradient id="s_2tORmkYDd2qSJ_5M~DaX" cx="19.104" cy="13.668" r="5.56" gradientTransform="matrix(.99321 .11632 -.05328 .4549 .857 5.233)" xlink:href="#s_2tORmkYDd2qSJ_5M~Dag"/><linearGradient id="s_2tORmkYDd2qSJ_5M~DaY" x1="10.537" x2="10.69" y1="53.006" y2="53.966" gradientTransform="rotate(-109.476 3.066 30.18)" xlink:href="#s_2tORmkYDd2qSJ_5M~Dac"/><linearGradient id="s_2tORmkYDd2qSJ_5M~DaZ" x1="8.686" x2="9.826" y1="58.821" y2="59.026" gradientTransform="rotate(-109.476 3.066 30.18)" xlink:href="#s_2tORmkYDd2qSJ_5M~Dae"/><linearGradient id="s_2tORmkYDd2qSJ_5M~Daaa" x1="9.27" x2="10.6" y1="58.843" y2="59.019" gradientTransform="rotate(-109.476 3.066 30.18)" xlink:href="#s_2tORmkYDd2qSJ_5M~Dah"/><linearGradient id="s_2tORmkYDd2qSJ_5M~Daab" x1="19.611" x2="20.041" y1="20.222" y2="20.685" gradientTransform="rotate(-95.919 19.522 13.866)" xlink:href="#s_2tORmkYDd2qSJ_5M~Dac"/><linearGradient id="s_2tORmkYDd2qSJ_5M~Daac" x1="20.345" x2="19.444" y1="24.964" y2="24.972" gradientTransform="rotate(-95.919 19.522 13.866)" xlink:href="#s_2tORmkYDd2qSJ_5M~Dad"/><linearGradient id="s_2tORmkYDd2qSJ_5M~Daad" x1="18.438" x2="19.688" y1="24.925" y2="24.99" gradientTransform="rotate(-95.919 19.522 13.866)" xlink:href="#s_2tORmkYDd2qSJ_5M~Dae"/><radialGradient id="s_2tORmkYDd2qSJ_5M~Daae" cx="32.198" cy="11.806" r="7.949" xlink:href="#s_2tORmkYDd2qSJ_5M~Daf"/><radialGradient id="s_2tORmkYDd2qSJ_5M~Daaf" cx="28.702" cy="12.515" r="4.379" gradientTransform="matrix(.99321 .11632 -.05328 .4549 .861 3.487)" xlink:href="#s_2tORmkYDd2qSJ_5M~Dag"/><linearGradient id="s_2tORmkYDd2qSJ_5M~Daag" x1="10.607" x2="10.785" y1="59.819" y2="60.933" gradientTransform="rotate(-109.812 -.193 36.901)" xlink:href="#s_2tORmkYDd2qSJ_5M~Dac"/><linearGradient id="s_2tORmkYDd2qSJ_5M~Daah" x1="8.458" x2="9.782" y1="66.57" y2="66.807" gradientTransform="rotate(-109.812 -.193 36.901)" xlink:href="#s_2tORmkYDd2qSJ_5M~Dae"/><linearGradient id="s_2tORmkYDd2qSJ_5M~Daai" x1="9.136" x2="10.681" y1="66.595" y2="66.799" gradientTransform="rotate(-109.812 -.193 36.901)" xlink:href="#s_2tORmkYDd2qSJ_5M~Dah"/><linearGradient id="s_2tORmkYDd2qSJ_5M~Daaj" x1="22.387" x2="23.784" y1="10.337" y2="10.337" gradientTransform="matrix(.061 -.998 .826 .051 27.101 34.099)" xlink:href="#s_2tORmkYDd2qSJ_5M~Dah"/><linearGradient id="s_2tORmkYDd2qSJ_5M~Daak" x1="21.08" x2="23.229" y1="10.235" y2="10.615" gradientTransform="matrix(.061 -.998 .826 .051 27.101 34.099)" xlink:href="#s_2tORmkYDd2qSJ_5M~Dai"/><linearGradient id="s_2tORmkYDd2qSJ_5M~Daal" x1="27.152" x2="21.113" y1="32.549" y2="18.928" gradientUnits="userSpaceOnUse"><stop offset="0" stop-color="#e79b4c"/><stop offset="1" stop-color="#f0ae60"/></linearGradient><linearGradient id="s_2tORmkYDd2qSJ_5M~Daam" x1="25.134" x2="27.641" y1="27.938" y2="33.613" gradientUnits="userSpaceOnUse"><stop offset="0" stop-color="#da813b" stop-opacity="0"/><stop offset="1" stop-color="#da813b"/></linearGradient><radialGradient id="s_2tORmkYDd2qSJ_5M~Daan" cx="4.757" cy="36.06" r="2.921" xlink:href="#s_2tORmkYDd2qSJ_5M~Daa"/><linearGradient id="s_2tORmkYDd2qSJ_5M~Daao" x1="23.232" x2="23.706" y1="8.672" y2="9.181" gradientTransform="rotate(-120.653 21.224 15.793)" xlink:href="#s_2tORmkYDd2qSJ_5M~Dac"/><linearGradient id="s_2tORmkYDd2qSJ_5M~Daap" x1="24.04" x2="23.048" y1="13.887" y2="13.896" gradientTransform="rotate(-120.653 21.224 15.793)" xlink:href="#s_2tORmkYDd2qSJ_5M~Dad"/><linearGradient id="s_2tORmkYDd2qSJ_5M~Daaq" x1="21.942" x2="23.317" y1="13.845" y2="13.916" gradientTransform="rotate(-120.653 21.224 15.793)" xlink:href="#s_2tORmkYDd2qSJ_5M~Dae"/></defs><g data-name="Taco"><path fill="url(#s_2tORmkYDd2qSJ_5M~Daj)" d="M43.092,13.19c-2.585-2.211-7.35-3.47-15.511.853S10.487,29.233,7.7,37.01c-.693,1.914,1.112,1.661,1.266,3.058,0,.033-.2,0-.171.029,0,0-4.945.62-4.6-4.847a15.209,15.209,0,0,1,.264-2.068c1.012-5.346,5.522-17.269,16.566-22.6S42.531,12.244,43.092,13.19Z"/><path fill="#ffe7a4" d="M4.027,36.377a17.953,17.953,0,0,1,1.154-6.892A38.186,38.186,0,0,1,7.97,23.093a31.028,31.028,0,0,1,9.1-10.469,23.926,23.926,0,0,1,6.2-3.209,19.949,19.949,0,0,1,6.9-1A22.659,22.659,0,0,1,37,9.751a23.2,23.2,0,0,1,3.178,1.412,12.98,12.98,0,0,1,2.865,1.945,12.942,12.942,0,0,0-2.919-1.838,24.949,24.949,0,0,0-3.2-1.3A22.321,22.321,0,0,0,30.167,8.8a19.53,19.53,0,0,0-6.745,1.053,24.505,24.505,0,0,0-6.048,3.194,31.42,31.42,0,0,0-8.941,10.3,37.471,37.471,0,0,0-2.777,6.293,17.49,17.49,0,0,0-1.131,6.7Z"/><path fill="url(#s_2tORmkYDd2qSJ_5M~Daa)" d="M12.467,35.363c0,1.342-1.885,3.066-4.237,3.066S4.75,39.51,4.75,37.157A4.259,4.259,0,0,1,9.009,32.9C11.362,32.9,12.467,33.011,12.467,35.363Z"/><circle cx="10.086" cy="33.159" r="3.553" fill="url(#s_2tORmkYDd2qSJ_5M~Dak)"/><circle cx="12.45" cy="28.045" r="4.102" fill="url(#s_2tORmkYDd2qSJ_5M~Dal)"/><circle cx="16.101" cy="25.485" r="4.102" fill="url(#s_2tORmkYDd2qSJ_5M~Dam)"/><circle cx="11.938" cy="24.062" r="2.093" fill="url(#s_2tORmkYDd2qSJ_5M~Dan)"/><circle cx="7.44" cy="33.865" r="2.482" fill="url(#s_2tORmkYDd2qSJ_5M~Dao)"/><circle cx="9.681" cy="25.798" r="1.334" fill="url(#s_2tORmkYDd2qSJ_5M~Dap)"/><circle cx="8.398" cy="26.579" r="1.093" fill="url(#s_2tORmkYDd2qSJ_5M~Daq)"/><circle cx="14.244" cy="23.045" r="1.794" fill="url(#s_2tORmkYDd2qSJ_5M~Dar)"/><circle cx="16.631" cy="21.589" r="1.602" fill="url(#s_2tORmkYDd2qSJ_5M~Das)"/><circle cx="18.851" cy="20.86" r="1.602" fill="url(#s_2tORmkYDd2qSJ_5M~Dat)"/><circle cx="20.454" cy="24.198" r="4.102" fill="url(#s_2tORmkYDd2qSJ_5M~Dau)"/><circle cx="9.196" cy="27.985" r="2.314" fill="url(#s_2tORmkYDd2qSJ_5M~Dav)"/><circle cx="8.398" cy="29.984" r="1.999" fill="url(#s_2tORmkYDd2qSJ_5M~Daw)"/><circle cx="11.33" cy="27.593" r="2.155" fill="url(#s_2tORmkYDd2qSJ_5M~Dax)"/><circle cx="8.319" cy="32.553" r="2.166" fill="url(#s_2tORmkYDd2qSJ_5M~Day)"/><circle cx="9.923" cy="31.421" r="1.815" fill="url(#s_2tORmkYDd2qSJ_5M~Daz)"/><circle cx="8.23" cy="36.797" r="2.492" fill="url(#s_2tORmkYDd2qSJ_5M~DaA)"/><circle cx="13.639" cy="26.155" r="2.309" fill="url(#s_2tORmkYDd2qSJ_5M~DaB)"/><path fill="url(#s_2tORmkYDd2qSJ_5M~DaC)" d="M23.511,18.1S11.444,32.522,10.905,32.72s.759-2.25.2-2.393-.907.87-1.611,1.233c-.924.476-2.357.53-2.61-1.065a8.328,8.328,0,0,1-.048-2.708,10.358,10.358,0,0,1,.43-1.722v-.022a4.452,4.452,0,0,1,.253-.517c.825-1.573,2.464-3.366,3.993-3.63a11.9,11.9,0,0,0,5.126-2.4c1.111-1.044,5.3-1.4,5.3-1.4Z"/><path fill="url(#s_2tORmkYDd2qSJ_5M~DaD)" d="M11.939,30.047c-1.188,0-1.848-1.584-1.848-1.584-3.2-.3-2.882-2.167-2.827-2.4v-.022a4.452,4.452,0,0,1,.253-.517l4.422,1.936S13.127,30.047,11.939,30.047Z"/><path fill="url(#s_2tORmkYDd2qSJ_5M~Dab)" d="M14.054,28.139c-1.353.036-1.136.565-3.117.1-.967-.225-3.288-.615-3.542-2.029-.319-1.779,1.441-4.884,4.588-6.361,3.891-1.825,6.249-.983,9.48-1.872S31.51,12.269,30.5,16.248s-3.584,8.251-9.087,9.766S14.054,28.139,14.054,28.139Z"/><path fill="url(#s_2tORmkYDd2qSJ_5M~DaE)" d="M41.6,16.674c-4.2-1.242-12.1,6.347-17.607,7.865s-7.355,2.123-7.355,2.123c-1.353.033-2.7,1.276-5.565.594-2.3-.55-3.013-3.916-2.574-5.291s2.4-1.847,4.308-2.815c1.222-.627,2.805-1.289,4.039-1.872,3.891-1.826,11.822-1.769,14.527-3.628,3.429-2.354,7.261-1.32,9.669.187C43.591,15.421,44.516,17.544,41.6,16.674Z"/><path fill="url(#s_2tORmkYDd2qSJ_5M~DaF)" d="M19.368,24.758c-1.353.036,6.307-10.218,12.145-11.6,13.229-3.13,15.048,3.761,10.239,3.961-4.362.181-9.523,4-15.026,5.513S19.368,24.758,19.368,24.758Z"/><path fill="url(#s_2tORmkYDd2qSJ_5M~DaG)" d="M18.707,29.527c-1.353.036-2.71,1.279-5.571.594-2.3-.551-3.015-3.92-2.575-5.295.721-2.254,4.627-3.718,7.775-5.195,3.89-1.826,11.553-1.837,14.3-3.643,8.291-5.445,13.063,5.389,8.746,3.791-4.094-1.515-9.818,6.108-15.321,7.623S18.707,29.527,18.707,29.527Z"/><path fill="url(#s_2tORmkYDd2qSJ_5M~Dac)" d="M8.84,25.552l.43.2.2,1.025-.518-.252Z"/><path fill="url(#s_2tORmkYDd2qSJ_5M~Dad)" d="M8.84,25.552l.43.2c1.58-.639,8.72-3.724,10.719-4.256l.444-.09c-.12-.1-.247-.2-.379-.3a27.277,27.277,0,0,0-3.08,1C16.077,22.433,10.57,24.84,8.84,25.552Z"/><path fill="url(#s_2tORmkYDd2qSJ_5M~Dae)" d="M9.474,26.78c1.79-.734,3.554-1.553,5.329-2.411v.006l2.778-1.026a24.558,24.558,0,0,1,2.762-.893q.024-.52.089-1.047l-.444.09c-1.945.517-3.631,1.24-5.215,1.8,0,0-.265.1-.393.16-1.813.859-3.531,1.662-5.111,2.3Z"/><path fill="url(#s_2tORmkYDd2qSJ_5M~Daf)" d="M18.279,26H18.2a1.565,1.565,0,0,0-.172-.368,2.392,2.392,0,0,0-.865-.784.082.082,0,0,0-.035-.017,4.488,4.488,0,0,0-1.866-.546,5.51,5.51,0,0,0-2.024.183,3.569,3.569,0,0,0-1.466.8A1.753,1.753,0,0,0,11.31,26h-.072v.514a1.223,1.223,0,0,0,.02.209,1.877,1.877,0,0,0,.713,1.146,3.873,3.873,0,0,0,1.777.75,4.762,4.762,0,0,0,3.993-.916,1.686,1.686,0,0,0,.516-.972v0a.959.959,0,0,0,.017-.192l0-.05h0Zm-1.326,1.4a4.82,4.82,0,0,1-4.372,0,1.814,1.814,0,0,1-.845-.9h.585V26h-.644a1.615,1.615,0,0,1,.887-1.131,4.828,4.828,0,0,1,4.376,0,1.637,1.637,0,0,1,.9,1.127h-.359v.508l.31-.009A1.767,1.767,0,0,1,16.953,27.4Z"/><path fill="#ff5c3d" d="M17.256,27.38a5.922,5.922,0,0,1-4.977,0c-1.382-.731-1.387-1.916-.019-2.652a5.933,5.933,0,0,1,4.982,0C18.614,25.464,18.629,26.649,17.256,27.38Z"/><path fill="#ff6f5c" d="M14.768,27.5A4.976,4.976,0,0,1,12.48,27c-.517-.273-.814-.62-.815-.953s.289-.675.8-.948a4.957,4.957,0,0,1,2.277-.5,5.036,5.036,0,0,1,2.3.5c.515.274.811.622.811.955s-.291.671-.8.94A4.979,4.979,0,0,1,14.768,27.5Z"/><path fill="url(#s_2tORmkYDd2qSJ_5M~Dag)" d="M18.279,26H18.2a1.565,1.565,0,0,0-.172-.368,2.392,2.392,0,0,0-.865-.784.082.082,0,0,0-.035-.017,4.488,4.488,0,0,0-1.866-.546,5.51,5.51,0,0,0-2.024.183,3.569,3.569,0,0,0-1.466.8A1.753,1.753,0,0,0,11.31,26h-.072v.514a1.223,1.223,0,0,0,.02.209,1.877,1.877,0,0,0,.713,1.146,3.873,3.873,0,0,0,1.777.75,4.762,4.762,0,0,0,3.993-.916,1.686,1.686,0,0,0,.516-.972v0a.959.959,0,0,0,.017-.192l0-.05h0Zm-1.326,1.4a4.82,4.82,0,0,1-4.372,0,1.814,1.814,0,0,1-.845-.9h.585V26h-.644a1.615,1.615,0,0,1,.887-1.131,4.828,4.828,0,0,1,4.376,0,1.637,1.637,0,0,1,.9,1.127h-.359v.508l.31-.009A1.767,1.767,0,0,1,16.953,27.4Z" opacity=".4"/><path fill="#ff5c3d" d="M16.472,25.11a2.324,2.324,0,0,0-.521-.192c-.12-.031-.277-.034-.328.039L15.1,25.7c-.029.043,0,.085.048.113a.339.339,0,0,0,.213.024l1.4-.28c.135-.027.127-.09.071-.173a1.242,1.242,0,0,0-.362-.276"/><path fill="#ff5c3d" d="M14.955,24.793a.654.654,0,0,0-.209-.044,3.105,3.105,0,0,0-1.2.171c-.111.041-.2.111-.106.17l.957.614.015.009c.114.06.31.028.342-.059l.237-.783a.062.062,0,0,0-.038-.078"/><path fill="#ff5c3d" d="M14.165,25.85l-.016-.008-1.16-.506a.316.316,0,0,0-.319.056.662.662,0,0,0-.319.637.153.153,0,0,0,.083.107.259.259,0,0,0,.147.024l1.475-.129c.163-.017.224-.121.109-.181"/><path fill="#ff5c3d" d="M14.368,26.239a.332.332,0,0,0-.213-.025l-1.4.28c-.136.027-.127.09-.071.174a1.338,1.338,0,0,0,.365.274,2.333,2.333,0,0,0,.518.193c.124.03.277.034.328-.038l.522-.745c.03-.043.005-.085-.047-.113"/><path fill="#ff5c3d" d="M15.1,26.341c-.114-.061-.31-.028-.338.056l-.241.786c-.011.033,0,.057.037.075a.631.631,0,0,0,.214.044,3.021,3.021,0,0,0,1.2-.171c.11-.041.195-.109.1-.169l-.961-.612-.015-.009"/><path fill="#ff5c3d" d="M17.085,25.915a.265.265,0,0,0-.146-.024l-1.479.131c-.159.015-.22.119-.105.18l.017.008,1.159.5a.323.323,0,0,0,.319-.052.664.664,0,0,0,.315-.638.145.145,0,0,0-.08-.11"/><path fill="url(#s_2tORmkYDd2qSJ_5M~DaH)" d="M39.584,19.954c-3.833.836-9.957,2.243-14.572,3.508-5.5,1.518-7.368,2.123-7.368,2.123-1.352.044-2.7,1.287-5.564.594-2.3-.55-3.39-4.073-2.574-5.291,1.212-1.812,6.207-3.543,6.207-3.543,6.3-3.248,13.59-2.64,15.554-2.462C35.513,15.268,39.289,17.465,39.584,19.954Z"/><path fill="url(#s_2tORmkYDd2qSJ_5M~DaI)" d="M12.436,24.983l.429.2.205,1.025-.519-.252Z"/><path fill="url(#s_2tORmkYDd2qSJ_5M~DaJ)" d="M12.436,24.983l.429.2c1.581-.639,8.72-3.724,10.719-4.256l.445-.09c-.121-.1-.247-.2-.38-.3a27.4,27.4,0,0,0-3.079,1C19.672,21.864,14.166,24.271,12.436,24.983Z"/><path fill="url(#s_2tORmkYDd2qSJ_5M~DaK)" d="M13.07,26.211c1.789-.734,3.553-1.553,5.329-2.411v.006l2.777-1.026a24.624,24.624,0,0,1,2.762-.893q.024-.521.09-1.047l-.445.09c-1.944.517-3.63,1.24-5.214,1.8,0,0-.266.1-.394.16-1.812.859-3.53,1.662-5.111,2.3Z"/><path fill="url(#s_2tORmkYDd2qSJ_5M~DaL)" d="M17.619,20.534h-.088a1.64,1.64,0,0,0-.188-.4,2.608,2.608,0,0,0-.945-.857.1.1,0,0,0-.038-.019,4.893,4.893,0,0,0-2.04-.6,6.022,6.022,0,0,0-2.213.2,3.882,3.882,0,0,0-1.6.876,1.914,1.914,0,0,0-.505.8H9.923V21.1a1.267,1.267,0,0,0,.021.229,2.045,2.045,0,0,0,.78,1.252,4.223,4.223,0,0,0,1.942.82,5.2,5.2,0,0,0,4.365-1,1.844,1.844,0,0,0,.564-1.062v0a1.064,1.064,0,0,0,.018-.21l0-.054h0Zm-1.45,1.536a5.269,5.269,0,0,1-4.779,0,1.979,1.979,0,0,1-.923-.981h.639v-.555h-.7a1.768,1.768,0,0,1,.969-1.236,5.279,5.279,0,0,1,4.784.005,1.791,1.791,0,0,1,.983,1.231h-.393v.555l.339-.009A1.942,1.942,0,0,1,16.169,22.07Z"/><path fill="#ff5c3d" d="M16.5,22.043a6.473,6.473,0,0,1-5.44,0c-1.512-.8-1.517-2.095-.022-2.9a6.486,6.486,0,0,1,5.446.005C17.986,19.948,18,21.244,16.5,22.043Z"/><path fill="#ff6f5c" d="M13.781,22.177a5.438,5.438,0,0,1-2.5-.545c-.566-.3-.89-.678-.892-1.041s.317-.739.872-1.037a5.415,5.415,0,0,1,2.489-.541,5.5,5.5,0,0,1,2.518.547c.563.3.886.681.886,1.044s-.317.733-.871,1.028A5.441,5.441,0,0,1,13.781,22.177Z"/><path fill="url(#s_2tORmkYDd2qSJ_5M~DaM)" d="M17.619,20.534h-.088a1.64,1.64,0,0,0-.188-.4,2.608,2.608,0,0,0-.945-.857.1.1,0,0,0-.038-.019,4.893,4.893,0,0,0-2.04-.6,6.022,6.022,0,0,0-2.213.2,3.882,3.882,0,0,0-1.6.876,1.914,1.914,0,0,0-.505.8H9.923V21.1a1.267,1.267,0,0,0,.021.229,2.045,2.045,0,0,0,.78,1.252,4.223,4.223,0,0,0,1.942.82,5.2,5.2,0,0,0,4.365-1,1.844,1.844,0,0,0,.564-1.062v0a1.064,1.064,0,0,0,.018-.21l0-.054h0Zm-1.45,1.536a5.269,5.269,0,0,1-4.779,0,1.979,1.979,0,0,1-.923-.981h.639v-.555h-.7a1.768,1.768,0,0,1,.969-1.236,5.279,5.279,0,0,1,4.784.005,1.791,1.791,0,0,1,.983,1.231h-.393v.555l.339-.009A1.942,1.942,0,0,1,16.169,22.07Z" opacity=".4"/><path fill="#ff5c3d" d="M15.643,19.561a2.479,2.479,0,0,0-.569-.209c-.131-.035-.3-.037-.358.042l-.571.814c-.033.047-.006.093.051.124a.373.373,0,0,0,.233.027l1.532-.306c.149-.03.139-.1.078-.19a1.391,1.391,0,0,0-.4-.3"/><path fill="#ff5c3d" d="M13.985,19.215a.67.67,0,0,0-.228-.048,3.4,3.4,0,0,0-1.31.187c-.121.045-.218.121-.115.185l1.045.672.017.009c.125.066.339.031.374-.064l.259-.856c.013-.038,0-.065-.042-.085"/><path fill="#ff5c3d" d="M13.122,20.37l-.018-.009-1.268-.553a.347.347,0,0,0-.348.062.725.725,0,0,0-.349.7.168.168,0,0,0,.09.117.283.283,0,0,0,.162.026L13,20.569c.178-.019.244-.133.119-.2"/><path fill="#ff5c3d" d="M13.344,20.8a.365.365,0,0,0-.233-.028l-1.532.307c-.149.029-.139.1-.078.19a1.467,1.467,0,0,0,.4.3,2.523,2.523,0,0,0,.566.211c.135.033.3.037.358-.041l.572-.815c.032-.047,0-.093-.052-.123"/><path fill="#ff5c3d" d="M14.146,20.907c-.125-.066-.338-.031-.369.061l-.264.859c-.012.037,0,.063.041.082a.7.7,0,0,0,.234.049,3.321,3.321,0,0,0,1.31-.187c.121-.045.213-.119.115-.186l-1.05-.668-.017-.01"/><path fill="#ff5c3d" d="M16.314,20.441a.286.286,0,0,0-.16-.026l-1.617.144c-.173.016-.239.13-.115.2l.019.009,1.268.552a.354.354,0,0,0,.348-.056.73.73,0,0,0,.345-.7.162.162,0,0,0-.088-.12"/><path fill="url(#s_2tORmkYDd2qSJ_5M~DaN)" d="M42.345,17.731c-3.832.836-9.957,2.243-14.572,3.508-5.5,1.518-7.368,2.123-7.368,2.123-1.352.044-2.321,2.719-5.181,2.026-2.3-.55-3.834-3.87-3.019-5.089,1.212-1.811,3.324-3.272,11.018-5.208s9.993-3.5,11.966-3.458C40.338,11.751,42.05,15.242,42.345,17.731Z"/><path fill="url(#s_2tORmkYDd2qSJ_5M~DaO)" d="M10.616,22.166l.413.234.127,1.038-.5-.29Z"/><path fill="url(#s_2tORmkYDd2qSJ_5M~DaP)" d="M10.616,22.166l.413.234c1.624-.518,8.976-3.058,11.009-3.438l.45-.057q-.168-.166-.356-.332a27.274,27.274,0,0,0-3.145.761C18.067,19.6,12.4,21.586,10.616,22.166Z"/><path fill="url(#s_2tORmkYDd2qSJ_5M~DaQ)" d="M11.156,23.438c1.84-.6,3.661-1.282,5.5-2v.006l2.846-.814a24.767,24.767,0,0,1,2.822-.683q.063-.518.168-1.038l-.45.057c-1.978.37-3.714.964-5.335,1.4,0,0-.272.08-.4.13-1.872.721-3.646,1.392-5.27,1.91Z"/><path fill="url(#s_2tORmkYDd2qSJ_5M~DaR)" d="M23.53,21.376h-.106a2,2,0,0,0-.229-.489,3.176,3.176,0,0,0-1.149-1.042A.117.117,0,0,0,22,19.822a5.972,5.972,0,0,0-2.481-.725,7.322,7.322,0,0,0-2.69.243,4.731,4.731,0,0,0-1.948,1.065,2.337,2.337,0,0,0-.614.971h-.094v.683a1.549,1.549,0,0,0,.026.279,2.486,2.486,0,0,0,.948,1.522,5.134,5.134,0,0,0,2.362,1,6.325,6.325,0,0,0,5.307-1.218,2.239,2.239,0,0,0,.685-1.291v-.006a1.291,1.291,0,0,0,.023-.254l0-.067h0Zm-1.762,1.867a6.406,6.406,0,0,1-5.811,0,2.406,2.406,0,0,1-1.122-1.192h.776v-.675h-.856a2.152,2.152,0,0,1,1.179-1.5,6.419,6.419,0,0,1,5.817.006,2.177,2.177,0,0,1,1.194,1.5h-.477v.675l.412-.012A2.357,2.357,0,0,1,21.768,23.243Z"/><path fill="#ff5c3d" d="M22.171,23.211a7.865,7.865,0,0,1-6.614,0c-1.838-.972-1.844-2.548-.026-3.525a7.881,7.881,0,0,1,6.621.006C23.977,20.663,24,22.239,22.171,23.211Z"/><path fill="#ff6f5c" d="M18.864,23.373a6.612,6.612,0,0,1-3.041-.662c-.688-.364-1.082-.825-1.084-1.266s.385-.9,1.06-1.261a6.587,6.587,0,0,1,3.027-.658,6.7,6.7,0,0,1,3.061.666c.684.364,1.077.827,1.077,1.269s-.386.892-1.059,1.25A6.615,6.615,0,0,1,18.864,23.373Z"/><path fill="url(#s_2tORmkYDd2qSJ_5M~DaS)" d="M23.53,21.376h-.106a2,2,0,0,0-.229-.489,3.176,3.176,0,0,0-1.149-1.042A.117.117,0,0,0,22,19.822a5.972,5.972,0,0,0-2.481-.725,7.322,7.322,0,0,0-2.69.243,4.731,4.731,0,0,0-1.948,1.065,2.337,2.337,0,0,0-.614.971h-.094v.683a1.549,1.549,0,0,0,.026.279,2.486,2.486,0,0,0,.948,1.522,5.134,5.134,0,0,0,2.362,1,6.325,6.325,0,0,0,5.307-1.218,2.239,2.239,0,0,0,.685-1.291v-.006a1.291,1.291,0,0,0,.023-.254l0-.067h0Zm-1.762,1.867a6.406,6.406,0,0,1-5.811,0,2.406,2.406,0,0,1-1.122-1.192h.776v-.675h-.856a2.152,2.152,0,0,1,1.179-1.5,6.419,6.419,0,0,1,5.817.006,2.177,2.177,0,0,1,1.194,1.5h-.477v.675l.412-.012A2.357,2.357,0,0,1,21.768,23.243Z" opacity=".4"/><path fill="#ff5c3d" d="M21.129,20.193a3.04,3.04,0,0,0-.693-.255c-.159-.042-.368-.045-.435.051l-.7.991c-.039.057-.006.113.063.15a.446.446,0,0,0,.283.033l1.863-.372c.181-.036.169-.12.095-.231a1.69,1.69,0,0,0-.481-.367"/><path fill="#ff5c3d" d="M19.112,19.772a.843.843,0,0,0-.277-.059,4.131,4.131,0,0,0-1.593.228c-.147.054-.265.147-.14.225l1.271.817.021.012c.151.08.411.036.454-.078l.316-1.042c.014-.045-.006-.078-.052-.1"/><path fill="#ff5c3d" d="M18.063,21.177l-.022-.011L16.5,20.494a.419.419,0,0,0-.423.075.882.882,0,0,0-.425.846.207.207,0,0,0,.11.142.342.342,0,0,0,.2.032l1.961-.171c.216-.023.3-.161.145-.241"/><path fill="#ff5c3d" d="M18.332,21.694a.442.442,0,0,0-.282-.033l-1.864.372c-.18.036-.169.12-.094.231a1.789,1.789,0,0,0,.485.365,3.138,3.138,0,0,0,.689.256c.164.039.367.045.435-.051l.7-.99c.039-.057.006-.113-.064-.15"/><path fill="#ff5c3d" d="M19.308,21.829c-.152-.08-.411-.037-.449.075l-.321,1.044c-.014.045,0,.076.05.1a.83.83,0,0,0,.284.059,4.02,4.02,0,0,0,1.593-.228c.147-.054.259-.144.14-.225l-1.277-.813-.02-.012"/><path fill="#ff5c3d" d="M21.944,21.263a.344.344,0,0,0-.194-.031l-1.967.174c-.21.02-.291.158-.139.238l.022.011,1.542.672a.433.433,0,0,0,.424-.069.885.885,0,0,0,.418-.849.191.191,0,0,0-.106-.146"/><path fill="url(#s_2tORmkYDd2qSJ_5M~Dah)" d="M15.349,17.7a19.644,19.644,0,0,0-3.575,1.022c-.527.228-1.911,1.021-1.982,1.065l.5.288c.072-.042,1.454-.835,1.981-1.062A19.636,19.636,0,0,1,15.847,18l4.966-1.111-.495-.3Z"/><path fill="url(#s_2tORmkYDd2qSJ_5M~Dai)" d="M10.291,20.079c.072-.042,1.454-.835,1.981-1.062A19.636,19.636,0,0,1,15.847,18l4.966-1.111-.233.847Q15.434,18.87,10.291,20.079Z"/><path fill="url(#s_2tORmkYDd2qSJ_5M~DaT)" d="M43.214,15.353c.309,3.065-10.819,1.92-15.434,3.185-5.505,1.518-7.368,2.123-7.368,2.123-1.352.044-3.843,1.5-6.7.8-2.3-.55-2.835-1.438-2.02-2.657C12.9,17,19.667,13.537,24.778,12.2a29.177,29.177,0,0,1,10.6-.914C39.626,11.674,42.906,12.289,43.214,15.353Z"/><path fill="url(#s_2tORmkYDd2qSJ_5M~DaU)" d="M25.271,18.268h-.1a1.789,1.789,0,0,0-.2-.437,2.836,2.836,0,0,0-1.026-.93.1.1,0,0,0-.04-.02,5.331,5.331,0,0,0-2.214-.647,6.531,6.531,0,0,0-2.4.217,4.227,4.227,0,0,0-1.738.95,2.083,2.083,0,0,0-.548.867h-.084v.609a1.4,1.4,0,0,0,.023.249,2.227,2.227,0,0,0,.846,1.359,4.594,4.594,0,0,0,2.108.889,5.647,5.647,0,0,0,4.736-1.086,2,2,0,0,0,.611-1.153V19.13a1.1,1.1,0,0,0,.021-.227l0-.06h0ZM23.7,19.934a5.718,5.718,0,0,1-5.186,0,2.151,2.151,0,0,1-1-1.064H18.2v-.6h-.763a1.92,1.92,0,0,1,1.052-1.342,5.731,5.731,0,0,1,5.191.005,1.947,1.947,0,0,1,1.065,1.337h-.426v.6l.368-.01A2.106,2.106,0,0,1,23.7,19.934Z"/><path fill="#ff5c3d" d="M24.059,19.905a7.024,7.024,0,0,1-5.9,0c-1.64-.867-1.646-2.273-.023-3.146a7.031,7.031,0,0,1,5.908.006C25.67,17.632,25.687,19.038,24.059,19.905Z"/><path fill="#ff6f5c" d="M21.107,20.05a5.9,5.9,0,0,1-2.714-.591c-.613-.324-.965-.736-.967-1.13s.344-.8.946-1.125a5.886,5.886,0,0,1,2.7-.587,5.976,5.976,0,0,1,2.732.594c.61.325.961.738.961,1.133s-.345.795-.945,1.115A5.9,5.9,0,0,1,21.107,20.05Z"/><path fill="url(#s_2tORmkYDd2qSJ_5M~DaV)" d="M25.271,18.268h-.1a1.789,1.789,0,0,0-.2-.437,2.836,2.836,0,0,0-1.026-.93.1.1,0,0,0-.04-.02,5.331,5.331,0,0,0-2.214-.647,6.531,6.531,0,0,0-2.4.217,4.227,4.227,0,0,0-1.738.95,2.083,2.083,0,0,0-.548.867h-.084v.609a1.4,1.4,0,0,0,.023.249,2.227,2.227,0,0,0,.846,1.359,4.594,4.594,0,0,0,2.108.889,5.647,5.647,0,0,0,4.736-1.086,2,2,0,0,0,.611-1.153V19.13a1.1,1.1,0,0,0,.021-.227l0-.06h0ZM23.7,19.934a5.718,5.718,0,0,1-5.186,0,2.151,2.151,0,0,1-1-1.064H18.2v-.6h-.763a1.92,1.92,0,0,1,1.052-1.342,5.731,5.731,0,0,1,5.191.005,1.947,1.947,0,0,1,1.065,1.337h-.426v.6l.368-.01A2.106,2.106,0,0,1,23.7,19.934Z" opacity=".4"/><path fill="#ff5c3d" d="M23.128,17.212a2.714,2.714,0,0,0-.618-.227c-.142-.038-.328-.04-.388.045l-.62.884c-.035.051-.006.1.056.134a.4.4,0,0,0,.252.029l1.663-.332c.161-.032.151-.107.085-.206a1.5,1.5,0,0,0-.43-.327"/><path fill="#ff5c3d" d="M21.329,16.837a.733.733,0,0,0-.248-.053,3.68,3.68,0,0,0-1.421.2c-.131.049-.237.132-.125.2l1.134.729.018.01c.136.072.368.033.406-.069l.282-.929c.013-.041,0-.07-.046-.092"/><path fill="#ff5c3d" d="M20.393,18.09l-.02-.01L19,17.48a.375.375,0,0,0-.378.067.788.788,0,0,0-.379.755.182.182,0,0,0,.1.127.306.306,0,0,0,.175.029l1.749-.153c.193-.02.265-.144.13-.215"/><path fill="#ff5c3d" d="M20.633,18.551a.4.4,0,0,0-.253-.029l-1.662.332c-.161.032-.151.107-.085.206a1.6,1.6,0,0,0,.434.326,2.844,2.844,0,0,0,.614.229c.146.034.328.04.388-.046l.62-.884c.035-.051.006-.1-.056-.134"/><path fill="#ff5c3d" d="M21.5,18.672c-.135-.072-.367-.033-.4.067l-.287.932c-.013.039.005.068.044.089a.8.8,0,0,0,.255.053,3.587,3.587,0,0,0,1.421-.2c.131-.048.231-.128.125-.2l-1.139-.725-.019-.011"/><path fill="#ff5c3d" d="M23.855,18.167a.3.3,0,0,0-.173-.028l-1.754.155c-.188.018-.26.141-.125.213l.02.01,1.376.6a.384.384,0,0,0,.378-.061.791.791,0,0,0,.374-.758.175.175,0,0,0-.1-.13"/><path fill="url(#s_2tORmkYDd2qSJ_5M~DaW)" d="M30.846,12.588h-.083a1.654,1.654,0,0,0-.18-.385,2.516,2.516,0,0,0-.9-.82.094.094,0,0,0-.036-.018,4.7,4.7,0,0,0-1.952-.57,5.736,5.736,0,0,0-2.118.192,3.711,3.711,0,0,0-1.533.838,1.833,1.833,0,0,0-.483.763h-.074v.538a1.248,1.248,0,0,0,.02.219,1.962,1.962,0,0,0,.747,1.2,4.045,4.045,0,0,0,1.858.784,4.98,4.98,0,0,0,4.177-.958,1.762,1.762,0,0,0,.539-1.017v0a.976.976,0,0,0,.018-.2l0-.052h0Zm-1.387,1.47a5.042,5.042,0,0,1-4.573,0A1.893,1.893,0,0,1,24,13.12h.611v-.532H23.94a1.693,1.693,0,0,1,.928-1.182,5.049,5.049,0,0,1,4.578,0,1.717,1.717,0,0,1,.94,1.178H30.01v.532l.324-.01A1.846,1.846,0,0,1,29.459,14.058Z"/><path fill="#ff5c3d" d="M29.777,14.032a6.192,6.192,0,0,1-5.206,0c-1.446-.764-1.451-2.005-.02-2.774a6.2,6.2,0,0,1,5.211.005C31.2,12.027,31.213,13.268,29.777,14.032Z"/><path fill="#ff6f5c" d="M27.174,14.16a5.209,5.209,0,0,1-2.394-.521c-.541-.286-.851-.649-.852-1s.3-.706.834-.991a5.18,5.18,0,0,1,2.382-.518,5.266,5.266,0,0,1,2.409.524c.538.286.848.651.848,1s-.3.7-.834.983A5.205,5.205,0,0,1,27.174,14.16Z"/><path fill="url(#s_2tORmkYDd2qSJ_5M~DaX)" d="M30.846,12.588h-.083a1.654,1.654,0,0,0-.18-.385,2.516,2.516,0,0,0-.9-.82.094.094,0,0,0-.036-.018,4.7,4.7,0,0,0-1.952-.57,5.736,5.736,0,0,0-2.118.192,3.711,3.711,0,0,0-1.533.838,1.833,1.833,0,0,0-.483.763h-.074v.538a1.248,1.248,0,0,0,.02.219,1.962,1.962,0,0,0,.747,1.2,4.045,4.045,0,0,0,1.858.784,4.98,4.98,0,0,0,4.177-.958,1.762,1.762,0,0,0,.539-1.017v0a.976.976,0,0,0,.018-.2l0-.052h0Zm-1.387,1.47a5.042,5.042,0,0,1-4.573,0A1.893,1.893,0,0,1,24,13.12h.611v-.532H23.94a1.693,1.693,0,0,1,.928-1.182,5.049,5.049,0,0,1,4.578,0,1.717,1.717,0,0,1,.94,1.178H30.01v.532l.324-.01A1.846,1.846,0,0,1,29.459,14.058Z" opacity=".4"/><path fill="#ff5c3d" d="M28.956,11.657a2.435,2.435,0,0,0-.545-.2c-.125-.033-.289-.035-.342.04l-.547.78c-.031.044,0,.089.049.118a.357.357,0,0,0,.223.026l1.466-.293c.143-.029.133-.1.075-.182a1.351,1.351,0,0,0-.379-.289"/><path fill="#ff5c3d" d="M27.369,11.326a.671.671,0,0,0-.218-.046,3.255,3.255,0,0,0-1.254.179c-.115.043-.208.116-.11.178l1,.642.016.009c.119.063.324.029.357-.061l.249-.82c.011-.035,0-.061-.041-.081"/><path fill="#ff5c3d" d="M26.544,12.431l-.018-.008-1.213-.529a.332.332,0,0,0-.334.059.7.7,0,0,0-.334.666.163.163,0,0,0,.087.112.278.278,0,0,0,.155.025l1.542-.135c.17-.018.234-.126.115-.19"/><path fill="#ff5c3d" d="M26.756,12.839a.35.35,0,0,0-.223-.026l-1.466.293c-.143.028-.133.094-.075.181a1.391,1.391,0,0,0,.382.287,2.443,2.443,0,0,0,.542.2c.129.031.289.036.342-.04l.547-.779c.031-.045,0-.089-.049-.118"/><path fill="#ff5c3d" d="M27.523,12.945c-.119-.063-.323-.029-.353.059l-.253.822a.061.061,0,0,0,.039.078.653.653,0,0,0,.225.047,3.172,3.172,0,0,0,1.253-.179c.116-.043.2-.114.11-.178l-1-.64-.016-.009"/><path fill="#ff5c3d" d="M29.6,12.5a.271.271,0,0,0-.153-.025l-1.547.137c-.166.016-.23.124-.11.188l.017.008,1.214.529a.34.34,0,0,0,.333-.054.7.7,0,0,0,.33-.669A.154.154,0,0,0,29.6,12.5"/><polygon fill="url(#s_2tORmkYDd2qSJ_5M~DaY)" points="22.225 14.791 22.153 15.515 22.623 15.9 22.882 15.096 22.225 14.791"/><polyline fill="#fcd370" points="32.985 13.311 32.824 14.084 33.228 14.463 33.592 13.701"/><path fill="url(#s_2tORmkYDd2qSJ_5M~DaZ)" d="M22.882,15.1A98.287,98.287,0,0,1,33.592,13.7l-.364.762a95.916,95.916,0,0,0-10.6,1.437Z"/><path fill="url(#s_2tORmkYDd2qSJ_5M~Daaa)" d="M22.882,15.1A98.287,98.287,0,0,1,33.592,13.7l-.607-.39a95.956,95.956,0,0,0-10.76,1.48Z"/><path fill="url(#s_2tORmkYDd2qSJ_5M~Daab)" d="M26,12.373l.238.259-.146.761-.285-.318Z"/><path fill="url(#s_2tORmkYDd2qSJ_5M~Daac)" d="M26,12.373l.238.259c1.263,0,7.021-.114,8.54.081l.33.063c-.054-.1-.112-.21-.175-.315a20.109,20.109,0,0,0-2.39-.18C31.832,12.259,27.383,12.369,26,12.373Z"/><path fill="url(#s_2tORmkYDd2qSJ_5M~Daad)" d="M26.089,13.393c1.432,0,2.871-.071,4.328-.163v0l2.191.074a18.381,18.381,0,0,1,2.144.16q.162-.35.354-.692l-.33-.063c-1.478-.189-2.836-.165-4.078-.228,0,0-.209-.006-.314,0-1.483.083-2.885.152-4.148.148Z"/><path fill="url(#s_2tORmkYDd2qSJ_5M~Daae)" d="M37.949,11.664h-.066a1.226,1.226,0,0,0-.141-.3,1.963,1.963,0,0,0-.713-.646A.062.062,0,0,0,37,10.7a3.7,3.7,0,0,0-1.537-.45A4.565,4.565,0,0,0,33.8,10.4a2.931,2.931,0,0,0-1.207.66,1.451,1.451,0,0,0-.381.6H32.15v.423a1,1,0,0,0,.016.173,1.545,1.545,0,0,0,.588.944,3.187,3.187,0,0,0,1.463.618,3.925,3.925,0,0,0,3.29-.755,1.386,1.386,0,0,0,.424-.8v0a.767.767,0,0,0,.014-.158l0-.041h0Zm-1.092,1.157a3.968,3.968,0,0,1-3.6,0,1.489,1.489,0,0,1-.7-.739h.481v-.418h-.53a1.333,1.333,0,0,1,.731-.932,3.98,3.98,0,0,1,3.605,0,1.354,1.354,0,0,1,.74.928h-.3v.418l.255-.007A1.456,1.456,0,0,1,36.857,12.821Z"/><path fill="#ff5c3d" d="M37.107,12.8a4.88,4.88,0,0,1-4.1,0c-1.138-.6-1.142-1.579-.016-2.185a4.889,4.889,0,0,1,4.1,0C38.226,11.222,38.238,12.2,37.107,12.8Z"/><path fill="#ff6f5c" d="M35.057,12.9a4.1,4.1,0,0,1-1.885-.411c-.426-.225-.67-.511-.671-.784s.238-.557.657-.782a4.09,4.09,0,0,1,1.876-.408,4.148,4.148,0,0,1,1.9.413c.424.226.667.513.667.787s-.239.552-.656.774A4.094,4.094,0,0,1,35.057,12.9Z"/><path fill="url(#s_2tORmkYDd2qSJ_5M~Daaf)" d="M37.949,11.664h-.066a1.226,1.226,0,0,0-.141-.3,1.963,1.963,0,0,0-.713-.646A.062.062,0,0,0,37,10.7a3.7,3.7,0,0,0-1.537-.45A4.565,4.565,0,0,0,33.8,10.4a2.931,2.931,0,0,0-1.207.66,1.451,1.451,0,0,0-.381.6H32.15v.423a1,1,0,0,0,.016.173,1.545,1.545,0,0,0,.588.944,3.187,3.187,0,0,0,1.463.618,3.925,3.925,0,0,0,3.29-.755,1.386,1.386,0,0,0,.424-.8v0a.767.767,0,0,0,.014-.158l0-.041h0Zm-1.092,1.157a3.968,3.968,0,0,1-3.6,0,1.489,1.489,0,0,1-.7-.739h.481v-.418h-.53a1.333,1.333,0,0,1,.731-.932,3.98,3.98,0,0,1,3.605,0,1.354,1.354,0,0,1,.74.928h-.3v.418l.255-.007A1.456,1.456,0,0,1,36.857,12.821Z" opacity=".4"/><path fill="#ff5c3d" d="M36.461,10.931a1.866,1.866,0,0,0-.429-.158c-.1-.026-.228-.028-.27.032l-.431.613c-.024.036,0,.071.039.093a.277.277,0,0,0,.176.021L36.7,11.3c.111-.022.1-.074.058-.143a1.047,1.047,0,0,0-.3-.227"/><path fill="#ff5c3d" d="M35.211,10.67a.523.523,0,0,0-.172-.037,2.554,2.554,0,0,0-.987.142c-.091.033-.164.091-.087.139l.788.506.013.008c.094.049.255.022.281-.049l.2-.645a.05.05,0,0,0-.032-.064"/><path fill="#ff5c3d" d="M34.561,11.54l-.014-.006-.955-.417a.26.26,0,0,0-.263.047.546.546,0,0,0-.263.524.126.126,0,0,0,.068.088.215.215,0,0,0,.122.02l1.215-.106c.134-.014.184-.1.09-.15"/><path fill="#ff5c3d" d="M34.728,11.861a.275.275,0,0,0-.175-.02l-1.155.23c-.112.023-.105.075-.059.143a1.089,1.089,0,0,0,.3.226,1.865,1.865,0,0,0,.427.159c.1.025.228.028.269-.031l.431-.614c.024-.035,0-.07-.039-.093"/><path fill="#ff5c3d" d="M35.333,11.945c-.095-.05-.255-.023-.278.046l-.2.648c-.009.027,0,.047.031.061a.526.526,0,0,0,.177.037,2.5,2.5,0,0,0,.987-.141c.091-.034.16-.09.087-.14l-.792-.5-.012-.007"/><path fill="#ff5c3d" d="M36.966,11.594a.209.209,0,0,0-.12-.019l-1.219.107c-.13.013-.18.1-.086.148l.014.007.955.416a.268.268,0,0,0,.263-.042.549.549,0,0,0,.259-.527.119.119,0,0,0-.066-.09"/><polygon fill="url(#s_2tORmkYDd2qSJ_5M~Daag)" points="17.855 18.121 17.777 18.962 18.324 19.406 18.619 18.47 17.855 18.121"/><polyline fill="#fcd370" points="30.335 16.33 30.155 17.227 30.626 17.665 31.043 16.778"/><path fill="url(#s_2tORmkYDd2qSJ_5M~Daah)" d="M18.619,18.47a114.1,114.1,0,0,1,12.424-1.692l-.417.887a110.96,110.96,0,0,0-12.3,1.741Z"/><path fill="url(#s_2tORmkYDd2qSJ_5M~Daai)" d="M18.619,18.47a114.1,114.1,0,0,1,12.424-1.692l-.708-.448a110.91,110.91,0,0,0-12.48,1.791Z"/><path fill="url(#s_2tORmkYDd2qSJ_5M~Daaj)" d="M37.291,11.181a13.515,13.515,0,0,0-3.046-.459c-.475,0-1.789.192-1.858.205l.278.46c.069-.011,1.382-.2,1.857-.2a13.473,13.473,0,0,1,3.044.46l4.124.92-.272-.468Z"/><path fill="url(#s_2tORmkYDd2qSJ_5M~Daak)" d="M32.665,11.387c.069-.011,1.382-.2,1.857-.2a13.473,13.473,0,0,1,3.044.46l4.124.92-.465.688Q36.956,12.286,32.665,11.387Z"/><path fill="url(#s_2tORmkYDd2qSJ_5M~Daal)" d="M45.653,19.63a.021.021,0,0,0,0,.033,8.3,8.3,0,0,1-.165,1.111c-.055.253-.11.462-.143.594-.022.066-.033.121-.044.154a.463.463,0,0,1-.022.055,1.68,1.68,0,0,1-.22.363c-3.146,3.96-30.8,16.973-36,18.359-.33.1-2.453.726-3.762-.407l-.011-.011c-.671-.594-1.133-1.661-1.012-3.52.2,1.859.561,3.355,1.364,3.465a.3.3,0,0,0,.1.011c.418,0,.869-.385,1.342-1.276A11.235,11.235,0,0,0,7.7,37.01c.011-.033.044-.1.077-.187.088-.264.187-.539.308-.814a33.116,33.116,0,0,1,2-4c3.971-6.886,10.978-14.519,17.49-17.962,4.608-2.442,8.117-3.135,10.768-2.849a4.186,4.186,0,0,1,.649.077,1.168,1.168,0,0,1,.209.044,3.062,3.062,0,0,1,.55.121,1.287,1.287,0,0,1,.22.055,5.145,5.145,0,0,1,.583.187c.132.044.253.1.385.154.209.1.418.2.627.308a7.987,7.987,0,0,1,.792.484c.187.121.352.231.506.352a.517.517,0,0,1,.1.066.478.478,0,0,1,.077.066,7.3,7.3,0,0,1,.825.825h.011a7.313,7.313,0,0,1,.693.9c.121.187.231.374.341.572.011.033.033.066.044.1a6.812,6.812,0,0,1,.671,2.31c.011.055.011.121.022.176A9.029,9.029,0,0,1,45.653,19.63Z"/><path fill="url(#s_2tORmkYDd2qSJ_5M~Daam)" d="M45.653,19.63a.021.021,0,0,0,0,.033c-.044.418-.11.8-.165,1.111-.055.253-.11.462-.143.594-.022.066-.033.121-.044.154a.463.463,0,0,1-.022.055,1.68,1.68,0,0,1-.22.363c-3.146,3.96-30.8,16.973-36,18.359-.33.1-2.453.726-3.762-.407l-.011-.011a4.573,4.573,0,0,1-1.012-3.52c.2,1.859.561,3.355,1.364,3.465a.3.3,0,0,0,.1.011c.418,0,.869-.385,1.342-1.276A11.235,11.235,0,0,0,7.7,37.01c.011-.033.044-.1.077-.187.429-.924,2.178-4.51,2.31-4.818,1.463-.055,30-12.4,34.869-16.5a6.816,6.816,0,0,1,.693,2.486A10.163,10.163,0,0,1,45.653,19.63Z"/><path fill="#ffe7a4" d="M4.525,36.333a9.22,9.22,0,0,0,.4,1.969,4.234,4.234,0,0,0,.4.889c.144.259.42.522.553.521h.018l.016,0c.271.043.63-.35.854-.729a7.709,7.709,0,0,0,.609-1.271,28.984,28.984,0,0,1,1.091-2.722,42.21,42.21,0,0,1,2.853-5.129A57.8,57.8,0,0,1,18.7,20.777a38.712,38.712,0,0,1,9.339-7.062,25.758,25.758,0,0,1,5.473-2.141,12.8,12.8,0,0,1,5.875-.259l-.026-.006a3.1,3.1,0,0,1,.57.138l-.018,0,.239.064-.02,0a4.611,4.611,0,0,1,.607.212l-.01,0A9.461,9.461,0,0,1,42.944,13l0,0a2.014,2.014,0,0,1,.167.166c-.061-.046-.111-.114-.172-.15l0,0a9.357,9.357,0,0,0-2.265-1.121l-.009,0c-.189-.057-.379-.123-.559-.161l-.02,0-.2-.045-.019-.005h0a2.963,2.963,0,0,0-.529-.1l-.027-.006a13.6,13.6,0,0,0-5.677.446,28.611,28.611,0,0,0-5.354,2.161,38.2,38.2,0,0,0-9.185,7,58.34,58.34,0,0,0-7.337,8.982A41.6,41.6,0,0,0,8.919,35.2a27.985,27.985,0,0,0-1.081,2.692,8.216,8.216,0,0,1-.65,1.356,3.133,3.133,0,0,1-.491.624,1.082,1.082,0,0,1-.855.336l.033,0a1.375,1.375,0,0,1-.978-.758,4.787,4.787,0,0,1-.449-.993,9.773,9.773,0,0,1-.421-2.079Z"/><path fill="url(#s_2tORmkYDd2qSJ_5M~Daan)" d="M7.734,36.633c-.143.374-.286.784-.418,1.158a6.683,6.683,0,0,1-.748,1.451,1.179,1.179,0,0,1-.517.441H6.029a.571.571,0,0,1-.242-.023c-.011,0-.011-.011-.022-.011A1.92,1.92,0,0,1,4.236,37.78a1.6,1.6,0,0,1,.033-.33,1.807,1.807,0,0,1,.429-.913,1.927,1.927,0,0,1,1.474-.693A1.852,1.852,0,0,1,7.734,36.633Z"/><ellipse cx="21.759" cy="24.464" fill="#d8803f" opacity=".5" rx="1.579" ry="1.384" transform="rotate(-77.282 21.759 24.464)"/><ellipse cx="15.254" cy="31.383" fill="#d8803f" opacity=".5" rx=".978" ry=".857" transform="rotate(-77.282 15.254 31.383)"/><ellipse cx="29.649" cy="25.186" fill="#d8803f" opacity=".6" rx=".978" ry=".857" transform="rotate(-77.282 29.65 25.186)"/><ellipse cx="35.51" cy="14.937" fill="#d8803f" opacity=".4" rx=".692" ry=".607" transform="rotate(-77.282 35.51 14.937)"/><ellipse cx="30.401" cy="18.333" fill="#d8803f" opacity=".4" rx="1.288" ry="1.128" transform="rotate(-77.282 30.4 18.334)"/><ellipse cx="39.341" cy="21.342" fill="#d8803f" opacity=".7" rx="1.576" ry="1.381" transform="rotate(-77.282 39.341 21.342)"/><path fill="#d8803f" d="M45.631,17.816a1.354,1.354,0,0,1-1.155.275,1.362,1.362,0,0,1,.44-2.684c.011.033.033.066.044.1A6.812,6.812,0,0,1,45.631,17.816Z" opacity=".6"/><path fill="url(#s_2tORmkYDd2qSJ_5M~Daao)" d="M13.892,16.873l.357.15.2.827-.431-.187Z"/><path fill="url(#s_2tORmkYDd2qSJ_5M~Daap)" d="M13.892,16.873l.357.15c1.263-.577,6.96-3.345,8.567-3.849l.359-.09c-.1-.079-.209-.157-.32-.234a22.229,22.229,0,0,0-2.47.921C19.667,14.074,15.274,16.232,13.892,16.873Z"/><path fill="url(#s_2tORmkYDd2qSJ_5M~Daaq)" d="M14.452,17.85c1.43-.662,2.835-1.392,4.249-2.154v0l2.222-.934a20.264,20.264,0,0,1,2.216-.827c0-.282.012-.568.035-.855l-.359.09c-1.563.491-2.909,1.14-4.178,1.648,0,0-.212.091-.314.144-1.444.765-2.812,1.48-4.075,2.057Z"/></g></svg>