<svg xmlns="http://www.w3.org/2000/svg" viewBox="0 0 48 48"><radialGradient id="fScHhxVC_KciVHD9LNt_qa" cx="25.157" cy="3.808" r="27.959" gradientTransform="matrix(1 0 0 1.2422 0 -.922)" gradientUnits="userSpaceOnUse"><stop offset="0" stop-color="#eff2f7"/><stop offset=".187" stop-color="#eceff5"/><stop offset=".307" stop-color="#e4e7ec"/><stop offset=".409" stop-color="#d5d9df"/><stop offset=".499" stop-color="#c0c4cb"/><stop offset=".582" stop-color="#a5aab2"/><stop offset=".611" stop-color="#9a9fa8"/><stop offset=".692" stop-color="#8a8e97"/><stop offset=".853" stop-color="#61636b"/><stop offset="1" stop-color="#36363d"/></radialGradient><path fill="url(#fScHhxVC_KciVHD9LNt_qa)" d="M39.985,9.487H8.66l1.5,29.413h0.031c0.384,1.394,6.577,2.933,14.131,2.933 s13.747-1.539,14.131-2.933h0.031L39.985,9.487L39.985,9.487z"/><radialGradient id="fScHhxVC_KciVHD9LNt_qb" cx="25.343" cy="29.186" r="15.248" gradientTransform="matrix(1 0 0 1.202 0 -5.894)" gradientUnits="userSpaceOnUse"><stop offset="0" stop-color="#f2e85b"/><stop offset=".132" stop-color="#f1e559"/><stop offset=".24" stop-color="#efda52"/><stop offset=".341" stop-color="#ebc947"/><stop offset=".436" stop-color="#e5b138"/><stop offset=".528" stop-color="#de9223"/><stop offset=".617" stop-color="#d56c0b"/><stop offset=".651" stop-color="#d15b00"/><stop offset=".694" stop-color="#c85601"/><stop offset=".762" stop-color="#b14903"/><stop offset=".848" stop-color="#8a3406"/><stop offset=".947" stop-color="#55170a"/><stop offset="1" stop-color="#36060d"/></radialGradient><path fill="url(#fScHhxVC_KciVHD9LNt_qb)" d="M24.329,34.265c7.831,0,12.196-1.062,12.752-1.618l0.473-8.86l-26.463,0l0.473,8.849 C12.074,33.189,16.449,34.265,24.329,34.265z"/><radialGradient id="fScHhxVC_KciVHD9LNt_qc" cx="24.4" cy="36.973" r="18.264" gradientTransform="matrix(1 0 0 .494 0 18.709)" gradientUnits="userSpaceOnUse"><stop offset="0" stop-color="#eff2f7"/><stop offset=".068" stop-color="#e9edf2"/><stop offset=".155" stop-color="#d9dde3"/><stop offset=".253" stop-color="#bfc3ca"/><stop offset=".358" stop-color="#9ba0a9"/><stop offset=".36" stop-color="#9a9fa8"/><stop offset=".383" stop-color="#9397a0"/><stop offset=".507" stop-color="#71747c"/><stop offset=".631" stop-color="#565860"/><stop offset=".755" stop-color="#43444b"/><stop offset=".878" stop-color="#38383f"/><stop offset="1" stop-color="#34343b"/></radialGradient><path fill="url(#fScHhxVC_KciVHD9LNt_qc)" d="M24.329,36.004c-2.541,0-9.392-0.127-12.661-1.415l0.169,3.169 c0.018,0.346,0.239,0.642,0.562,0.768c1.665,0.649,5.825,1.57,11.923,1.57s10.258-0.921,11.923-1.57 c0.323-0.126,0.544-0.422,0.562-0.768l0.169-3.164C33.703,35.877,26.866,36.004,24.329,36.004z"/><radialGradient id="fScHhxVC_KciVHD9LNt_qd" cx="26.022" cy="23.508" r="43.701" gradientTransform="matrix(.9834 0 0 .371 .4 14.786)" gradientUnits="userSpaceOnUse"><stop offset="0" stop-color="#f2eeb3"/><stop offset=".119" stop-color="#f1ebb0"/><stop offset=".217" stop-color="#f0e3a5"/><stop offset=".308" stop-color="#ecd594"/><stop offset=".394" stop-color="#e8c17c"/><stop offset=".477" stop-color="#e2a75d"/><stop offset=".558" stop-color="#db8836"/><stop offset=".636" stop-color="#d3630a"/><stop offset=".651" stop-color="#d15b00"/><stop offset=".694" stop-color="#c85601"/><stop offset=".762" stop-color="#b14903"/><stop offset=".848" stop-color="#8a3406"/><stop offset=".947" stop-color="#55170a"/><stop offset="1" stop-color="#36060d"/></radialGradient><path fill="url(#fScHhxVC_KciVHD9LNt_qd)" d="M37.557,23.787c0,1.101-4.662,2.648-13.235,2.648c-8.882,0-13.235-1.547-13.235-2.648 s5.925-1.993,13.235-1.993S37.557,22.687,37.557,23.787z"/><radialGradient id="fScHhxVC_KciVHD9LNt_qe" cx="21.703" cy="30.026" r="6.437" gradientTransform="matrix(.9197 .3308 -.2338 .4617 8.763 4.887)" gradientUnits="userSpaceOnUse"><stop offset="0" stop-color="#fff"/><stop offset=".22" stop-color="#fbfbfc"/><stop offset=".422" stop-color="#f0f0f1"/><stop offset=".618" stop-color="#dededf"/><stop offset=".809" stop-color="#c4c3c7"/><stop offset=".996" stop-color="#a3a2a7"/><stop offset="1" stop-color="#a2a1a6"/></radialGradient><path fill="url(#fScHhxVC_KciVHD9LNt_qe)" d="M23.9,30.142c0.127,0.05,0.268,0.074,0.41,0.075v-6.414l-5.058-1.971 c-0.071,0.085-0.11,0.183-0.11,0.284c0,0-0.103,2.362,0,3.143c0.093,0.705,0,2.692,0,2.692c0,0.152,0.088,0.295,0.239,0.401 l0.311,0.137c0.291,0.092,1.026,0.336,1.574,0.625C21.881,29.438,23.9,30.142,23.9,30.142z"/><radialGradient id="fScHhxVC_KciVHD9LNt_qf" cx="27.382" cy="29.925" r="6.528" gradientTransform="matrix(.945 -.2756 .208 .5066 -4.719 18.23)" gradientUnits="userSpaceOnUse"><stop offset="0" stop-color="#fff"/><stop offset=".22" stop-color="#fbfbfc"/><stop offset=".422" stop-color="#f0f0f1"/><stop offset=".618" stop-color="#dededf"/><stop offset=".809" stop-color="#c4c3c7"/><stop offset=".996" stop-color="#a3a2a7"/><stop offset="1" stop-color="#a2a1a6"/></radialGradient><path fill="url(#fScHhxVC_KciVHD9LNt_qf)" d="M24.31,30.217c0.142,0,0.285-0.025,0.413-0.075c0,0,0.708-0.353,1.142-0.479 c0.337-0.098,1.301-0.572,1.829-0.754c0.697-0.239,1.364-0.46,1.364-0.46c0.261-0.102,0.422-0.292,0.422-0.498 c0,0,0.085-2.064,0.015-2.535c-0.124-0.836-0.015-3.3-0.015-3.3c0-0.028-0.003-0.055-0.009-0.082l-5.161,1.769V30.217z"/><radialGradient id="fScHhxVC_KciVHD9LNt_qg" cx="21.888" cy="26.169" r="4.668" gradientTransform="matrix(.9197 .3925 -.3303 .7738 10.4 -2.674)" gradientUnits="userSpaceOnUse"><stop offset="0" stop-color="#fdcd2d"/><stop offset=".187" stop-color="#fbc92d"/><stop offset=".359" stop-color="#f3be2d"/><stop offset=".526" stop-color="#e6ac2e"/><stop offset=".689" stop-color="#d4912e"/><stop offset=".847" stop-color="#bd702f"/><stop offset="1" stop-color="#a24830"/></radialGradient><path fill="url(#fScHhxVC_KciVHD9LNt_qg)" d="M19.165,26.308c0,1.011-0.024,1.646-0.023,1.643c0,0.152,0.088,0.295,0.239,0.401 l0.311,0.137c0.291,0.092,1.026,0.336,1.574,0.625c0.615,0.325,2.635,1.028,2.635,1.028c0.127,0.05,0.268,0.074,0.41,0.075 l-0.05-3.938C22.49,26.555,20.889,26.487,19.165,26.308z"/><radialGradient id="fScHhxVC_KciVHD9LNt_qh" cx="26.912" cy="26.409" r="5.64" gradientTransform="matrix(.945 -.327 .208 .6011 -4.013 19.332)" gradientUnits="userSpaceOnUse"><stop offset="0" stop-color="#fdcd2d"/><stop offset=".187" stop-color="#fbc92d"/><stop offset=".359" stop-color="#f3be2d"/><stop offset=".526" stop-color="#e6ac2e"/><stop offset=".689" stop-color="#d4912e"/><stop offset=".847" stop-color="#bd702f"/><stop offset="1" stop-color="#a24830"/></radialGradient><path fill="url(#fScHhxVC_KciVHD9LNt_qh)" d="M24.364,26.435l-0.054,3.781c0.142,0,0.285-0.025,0.413-0.075c0,0,0.708-0.353,1.142-0.479 c0.337-0.098,1.301-0.572,1.829-0.754c0.697-0.239,1.364-0.46,1.364-0.46c0.261-0.102,0.422-0.292,0.422-0.498 c0,0,0.107-1.147,0.06-1.77C27.843,26.125,26.031,26.347,24.364,26.435z"/><radialGradient id="fScHhxVC_KciVHD9LNt_qi" cx="24.409" cy="24.97" r="6.777" gradientTransform="matrix(1 0 0 .4098 0 11.438)" gradientUnits="userSpaceOnUse"><stop offset="0" stop-color="#fff"/><stop offset=".22" stop-color="#fbfbfc"/><stop offset=".422" stop-color="#f0f0f1"/><stop offset=".618" stop-color="#dededf"/><stop offset=".809" stop-color="#c4c3c7"/><stop offset=".996" stop-color="#a3a2a7"/><stop offset="1" stop-color="#a2a1a6"/></radialGradient><path fill="url(#fScHhxVC_KciVHD9LNt_qi)" d="M29.059,21.618c0,0-1.64-0.826-2.861-1.117c-0.391-0.093-1.475-0.576-1.475-0.576 c-0.255-0.1-0.568-0.1-0.823,0c0,0-1.038,0.409-2.464,0.997c-0.583,0.24-1.872,0.696-1.872,0.696 c-0.132,0.052-0.239,0.126-0.312,0.214l5.058,1.971l5.161-1.769C29.435,21.86,29.285,21.706,29.059,21.618z"/><path fill="#8e3f1e" d="M24.353,30.19c0,0,0.001-0.1,0.002-0.211c0.006-0.47,0.026-2.183,0.067-3.54 c-0.051,0-0.109,0-0.169,0C24.318,28.051,24.353,30.19,24.353,30.19z"/><path fill="#a2a1a6" d="M29.473,22.034c0,0-4.82,1.574-5.181,1.574c-0.36,0-5.038-1.776-5.038-1.776s4.586,1.921,4.775,2.08 c0.069,0.058,0.126,1.397,0.171,2.474c0.071,0,0.139,0,0.199,0c0.033-1.059,0.076-2.397,0.134-2.494 C24.689,23.632,29.473,22.034,29.473,22.034z"/><path fill="#70340d" d="M37.55,23.889c0,0-0.746,3.172-13.211,3.172c-12.752,0-13.26-3.181-13.26-3.181 s0.595,2.399,13.182,2.399C36.531,26.279,37.55,23.889,37.55,23.889z"/><linearGradient id="fScHhxVC_KciVHD9LNt_qj" x1="14.677" x2="14.677" y1="6.76" y2="40.242" gradientUnits="userSpaceOnUse"><stop offset=".196" stop-color="#fff" stop-opacity=".7"/><stop offset="1" stop-color="#fff" stop-opacity="0"/></linearGradient><polygon fill="url(#fScHhxVC_KciVHD9LNt_qj)" points="17.845,38.835 13.308,38.209 11.508,9.967 16.359,10.437"/><radialGradient id="fScHhxVC_KciVHD9LNt_qk" cx="30.256" cy="-9.727" r="34.049" gradientTransform="matrix(1.0204 0 0 .3148 -6.04 14.279)" gradientUnits="userSpaceOnUse"><stop offset="0" stop-color="#eff2f7"/><stop offset=".105" stop-color="#e7eaef"/><stop offset=".272" stop-color="#d0d4da"/><stop offset=".478" stop-color="#abafb8"/><stop offset=".561" stop-color="#9a9fa8"/><stop offset=".665" stop-color="#6a6e74"/><stop offset=".773" stop-color="#404246"/><stop offset=".869" stop-color="#212224"/><stop offset=".947" stop-color="#0e0e0f"/><stop offset="1" stop-color="#070708"/></radialGradient><path fill="url(#fScHhxVC_KciVHD9LNt_qk)" d="M40,9.497c0,1.101-7.017,1.993-15.674,1.993S8.653,10.598,8.653,9.497 c0-1.459,6.951-2.581,15.607-2.581S40,8.09,40,9.497z"/><radialGradient id="fScHhxVC_KciVHD9LNt_ql" cx="24.118" cy="902.331" r="23.257" gradientTransform="matrix(1 0 0 .2934 0 -254.246)" gradientUnits="userSpaceOnUse"><stop offset="0" stop-color="#eff2f7"/><stop offset=".076" stop-color="#e7eaef"/><stop offset=".197" stop-color="#d0d4da"/><stop offset=".345" stop-color="#abafb8"/><stop offset=".405" stop-color="#9a9fa8"/><stop offset=".546" stop-color="#6a6e74"/><stop offset=".692" stop-color="#404246"/><stop offset=".822" stop-color="#212224"/><stop offset=".929" stop-color="#0e0e0f"/><stop offset="1" stop-color="#070708"/></radialGradient><path fill="url(#fScHhxVC_KciVHD9LNt_ql)" d="M40,9.497c-0.164,0.623-0.964,0.87-1.543,1.123c-0.63,0.252-1.283,0.441-1.938,0.628 c-1.322,0.329-2.666,0.564-4.016,0.77c-2.701,0.413-5.442,0.542-8.177,0.57c-2.735-0.026-5.475-0.156-8.177-0.568 c-1.349-0.206-2.694-0.442-4.016-0.77c-0.655-0.188-1.308-0.377-1.938-0.629c-0.579-0.253-1.379-0.5-1.543-1.124 c0.293,0.542,1.068,0.638,1.67,0.82c0.641,0.158,1.306,0.256,1.966,0.35c1.319,0.203,2.656,0.332,3.995,0.422 c2.676,0.186,5.36,0.281,8.043,0.279c2.683,0.003,5.368-0.092,8.044-0.277c1.339-0.089,2.675-0.22,3.995-0.422 c0.66-0.095,1.324-0.193,1.966-0.351C38.933,10.135,39.708,10.04,40,9.497z"/></svg>