<svg xmlns="http://www.w3.org/2000/svg" xmlns:xlink="http://www.w3.org/1999/xlink" viewBox="0 0 48 48"><defs><linearGradient id="ZxoCRdAgNNk3x1sseA0fHl" x1="18.636" x2="31.364" y1="33.364" y2="20.636" gradientUnits="userSpaceOnUse"><stop offset="0" stop-color="#1a1a1a"/><stop offset=".5" stop-color="#4d4d4d"/><stop offset="1" stop-color="#1a1a1a"/></linearGradient><linearGradient id="ZxoCRdAgNNk3x1sseA0fHf" x1="3" x2="45" y1="28.5" y2="28.5" gradientUnits="userSpaceOnUse"><stop offset="0" stop-color="#353535"/><stop offset=".026" stop-color="#393939"/><stop offset=".05" stop-color="#444"/><stop offset=".063" stop-color="#4d4d4d"/><stop offset=".079" stop-color="#454545"/><stop offset=".103" stop-color="#404040"/><stop offset=".226" stop-color="#4d4d4d"/><stop offset=".82" stop-color="#4d4d4d"/><stop offset=".899" stop-color="#383838"/><stop offset=".9" stop-color="#383838"/><stop offset=".938" stop-color="#404040"/><stop offset=".953" stop-color="#333"/><stop offset=".979" stop-color="#242424"/><stop offset="1" stop-color="#1f1f1f"/></linearGradient><linearGradient id="ZxoCRdAgNNk3x1sseA0fHg" y1="15" y2="15" xlink:href="#ZxoCRdAgNNk3x1sseA0fHa"/><linearGradient id="ZxoCRdAgNNk3x1sseA0fHb" x1="33" x2="40" y1="12.5" y2="12.5" gradientUnits="userSpaceOnUse"><stop offset="0" stop-color="#24403c"/><stop offset=".024" stop-color="#274440"/><stop offset=".186" stop-color="#395854"/><stop offset=".346" stop-color="#446560"/><stop offset=".5" stop-color="#486964"/><stop offset=".654" stop-color="#446560"/><stop offset=".814" stop-color="#395854"/><stop offset=".976" stop-color="#274440"/><stop offset="1" stop-color="#24403c"/></linearGradient><linearGradient id="ZxoCRdAgNNk3x1sseA0fHh" y1="16.5" y2="16.5" xlink:href="#ZxoCRdAgNNk3x1sseA0fHb"/><linearGradient id="ZxoCRdAgNNk3x1sseA0fHc" x1="12" x2="18" y1="12" y2="12" gradientUnits="userSpaceOnUse"><stop offset="0" stop-color="#929292"/><stop offset=".031" stop-color="#a6a6a6"/><stop offset=".108" stop-color="#d2d2d2"/><stop offset=".147" stop-color="#e3e3e3"/><stop offset=".15" stop-color="#e2e2e2"/><stop offset=".208" stop-color="#c9c9c9"/><stop offset=".262" stop-color="#bababa"/><stop offset=".306" stop-color="#b5b5b5"/><stop offset=".577" stop-color="#b5b5b5"/><stop offset=".806" stop-color="#949494"/><stop offset="1" stop-color="#7c7c7c"/></linearGradient><linearGradient id="ZxoCRdAgNNk3x1sseA0fHi" x1="6" x2="11" y1="11.5" y2="11.5" xlink:href="#ZxoCRdAgNNk3x1sseA0fHc"/><linearGradient id="ZxoCRdAgNNk3x1sseA0fHj" x1="36" x2="36" y1="29" y2="23" gradientUnits="userSpaceOnUse"><stop offset="0" stop-color="#1a1a1a"/><stop offset=".041" stop-color="#2e2e2e"/><stop offset=".151" stop-color="#5e5e5e"/><stop offset=".255" stop-color="#848484"/><stop offset=".351" stop-color="#9f9f9f"/><stop offset=".435" stop-color="#afafaf"/><stop offset=".5" stop-color="#b5b5b5"/><stop offset=".565" stop-color="#afafaf"/><stop offset=".649" stop-color="#9f9f9f"/><stop offset=".745" stop-color="#848484"/><stop offset=".849" stop-color="#5e5e5e"/><stop offset=".959" stop-color="#2e2e2e"/><stop offset="1" stop-color="#1a1a1a"/></linearGradient><linearGradient id="ZxoCRdAgNNk3x1sseA0fHe" x1="33.5" x2="33.5" y1="16" y2="13" gradientUnits="userSpaceOnUse"><stop offset="0" stop-color="#212121"/><stop offset=".721" stop-color="#4a4a4a"/><stop offset="1" stop-color="#212121"/></linearGradient><linearGradient id="ZxoCRdAgNNk3x1sseA0fHa" x1="3" x2="45" y1="37" y2="37" gradientUnits="userSpaceOnUse"><stop offset="0" stop-color="#929292"/><stop offset=".015" stop-color="#969696"/><stop offset=".029" stop-color="#a1a1a1"/><stop offset=".042" stop-color="#b3b3b3"/><stop offset=".054" stop-color="#cdcdcd"/><stop offset=".063" stop-color="#e3e3e3"/><stop offset=".069" stop-color="#cbcbcb"/><stop offset=".078" stop-color="#a9a9a9"/><stop offset=".087" stop-color="#909090"/><stop offset=".096" stop-color="#818181"/><stop offset=".103" stop-color="#7c7c7c"/><stop offset=".226" stop-color="#b5b5b5"/><stop offset=".82" stop-color="#b5b5b5"/><stop offset=".852" stop-color="#a2a2a2"/><stop offset=".899" stop-color="#8a8a8a"/><stop offset=".907" stop-color="#a3a3a3"/><stop offset=".92" stop-color="#c6c6c6"/><stop offset=".931" stop-color="#dbdbdb"/><stop offset=".938" stop-color="#e3e3e3"/><stop offset=".947" stop-color="#cbcbcb"/><stop offset=".962" stop-color="#a9a9a9"/><stop offset=".976" stop-color="#909090"/><stop offset=".989" stop-color="#818181"/><stop offset="1" stop-color="#7c7c7c"/></linearGradient><linearGradient id="ZxoCRdAgNNk3x1sseA0fHs" x1="39.5" x2="39.5" xlink:href="#ZxoCRdAgNNk3x1sseA0fHe"/><radialGradient id="ZxoCRdAgNNk3x1sseA0fHm" cx="25" cy="27" r="8" gradientUnits="userSpaceOnUse"><stop offset=".488" stop-opacity=".6"/><stop offset=".928" stop-opacity=".319"/><stop offset="1" stop-opacity="0"/></radialGradient><radialGradient id="ZxoCRdAgNNk3x1sseA0fHn" cx="25" cy="27" r="5" gradientUnits="userSpaceOnUse"><stop offset=".003" stop-color="#0d0d0d"/><stop offset=".401" stop-color="#101010"/><stop offset=".711" stop-color="#1a1a1a"/><stop offset=".991" stop-color="#2a2a2a"/><stop offset="1" stop-color="#2b2b2b"/></radialGradient><radialGradient id="ZxoCRdAgNNk3x1sseA0fHo" cx="25" cy="27" r="3" gradientUnits="userSpaceOnUse"><stop offset=".003" stop-color="#0d0d0d"/><stop offset=".432" stop-color="#101010"/><stop offset=".766" stop-color="#1a1a1a"/><stop offset="1" stop-color="#262626"/></radialGradient><radialGradient id="ZxoCRdAgNNk3x1sseA0fHd" cx="25.314" cy="32.522" r="11.648" gradientTransform="translate(1.828 -.172)" gradientUnits="userSpaceOnUse"><stop offset="0" stop-color="#828282"/><stop offset=".034" stop-color="#787878" stop-opacity=".918"/><stop offset=".165" stop-color="#585858" stop-opacity=".638"/><stop offset=".304" stop-color="#3d3d3d" stop-opacity=".406"/><stop offset=".449" stop-color="#282828" stop-opacity=".227"/><stop offset=".604" stop-color="#191919" stop-opacity=".099"/><stop offset=".775" stop-color="#101010" stop-opacity=".024"/><stop offset=".995" stop-color="#0d0d0d" stop-opacity="0"/></radialGradient><radialGradient id="ZxoCRdAgNNk3x1sseA0fHp" cx="26.728" cy="33.936" r="11.648" gradientTransform="rotate(180 24.793 27.793)" xlink:href="#ZxoCRdAgNNk3x1sseA0fHd"/><radialGradient id="ZxoCRdAgNNk3x1sseA0fHq" cx="25.491" cy="29.428" r="6.589" gradientTransform="matrix(1 0 0 .644 1.828 10.319)" gradientUnits="userSpaceOnUse"><stop offset="0" stop-color="#2ed9c2" stop-opacity=".5"/><stop offset=".106" stop-color="#2aab99" stop-opacity=".377"/><stop offset=".251" stop-color="#25776c" stop-opacity=".241"/><stop offset=".406" stop-color="#214f49" stop-opacity=".134"/><stop offset=".571" stop-color="#1e3230" stop-opacity=".059"/><stop offset=".755" stop-color="#1d2121" stop-opacity=".014"/><stop offset=".995" stop-color="#1c1c1c" stop-opacity="0"/></radialGradient><radialGradient id="ZxoCRdAgNNk3x1sseA0fHr" cx="26.905" cy="30.843" r="6.589" gradientTransform="matrix(-1 0 0 -.644 49.586 44.591)" gradientUnits="userSpaceOnUse"><stop offset="0" stop-color="#c22ed9" stop-opacity=".5"/><stop offset=".106" stop-color="#992aab" stop-opacity=".377"/><stop offset=".251" stop-color="#6c2577" stop-opacity=".241"/><stop offset=".406" stop-color="#49214f" stop-opacity=".134"/><stop offset=".571" stop-color="#301e32" stop-opacity=".059"/><stop offset=".755" stop-color="#211d21" stop-opacity=".014"/><stop offset=".995" stop-color="#1c1c1c" stop-opacity="0"/></radialGradient><radialGradient id="ZxoCRdAgNNk3x1sseA0fHk" cx="25" cy="27" r="10" gradientUnits="userSpaceOnUse"><stop offset=".488"/><stop offset=".928" stop-color="#242424" stop-opacity=".532"/><stop offset="1" stop-color="#4d4d4d" stop-opacity="0"/></radialGradient></defs><g data-name="camera"><path fill="url(#ZxoCRdAgNNk3x1sseA0fHf)" d="M3,19H45a0,0,0,0,1,0,0V36a2,2,0,0,1-2,2H5a2,2,0,0,1-2-2V19A0,0,0,0,1,3,19Z"/><path fill="url(#ZxoCRdAgNNk3x1sseA0fHa)" d="M43,38H5a2,2,0,0,1-2-2H45A2,2,0,0,1,43,38Z"/><path fill="url(#ZxoCRdAgNNk3x1sseA0fHg)" d="M45,19H3V15a2,2,0,0,1,2-2H19V12a1,1,0,0,1,1-1l21,1h2a2,2,0,0,1,2,2Z"/><rect width="22" height="7" x="19" y="11" fill="#b5b5b5"/><rect width="7" height="5" x="33" y="12" fill="#212121"/><rect width="6" height="4" x="26" y="13" fill="#4d4d4d"/><circle cx="22.5" cy="14.5" r="1.5" fill="#c41919"/><rect width="2" height="1" x="35.5" y="14" fill="#b1b1b1"/><rect width="7" height="1" x="33" y="12" fill="url(#ZxoCRdAgNNk3x1sseA0fHb)"/><rect width="7" height="1" x="33" y="16" fill="url(#ZxoCRdAgNNk3x1sseA0fHh)"/><rect width="4" height="2" x="13" y="15" fill="#212121"/><rect width="6" height="2" x="12" y="11" fill="url(#ZxoCRdAgNNk3x1sseA0fHc)"/><rect width="5" height="3" x="6" y="10" fill="url(#ZxoCRdAgNNk3x1sseA0fHi)"/><path fill="url(#ZxoCRdAgNNk3x1sseA0fHj)" d="M37,24a1,1,0,0,0-2,0c0,.552-1,5-1,5h4S37,24.552,37,24Z"/><circle cx="36" cy="24" r="1" fill="#b5b5b5"/><circle cx="36" cy="29" r="2" fill="#999"/><circle cx="25" cy="27" r="10" fill="url(#ZxoCRdAgNNk3x1sseA0fHk)"/><circle cx="36" cy="29" r="1" fill="#b5b5b5"/><circle cx="25" cy="27" r="9" fill="url(#ZxoCRdAgNNk3x1sseA0fHl)"/><circle cx="25" cy="27" r="8" fill="url(#ZxoCRdAgNNk3x1sseA0fHm)"/><circle cx="25" cy="27" r="7" fill="#0f0f0f"/><circle cx="25" cy="27" r="6" fill="#1a1a1a"/><circle cx="25" cy="27" r="5" fill="url(#ZxoCRdAgNNk3x1sseA0fHn)"/><circle cx="25" cy="27" r="3" fill="url(#ZxoCRdAgNNk3x1sseA0fHo)"/><rect width="5" height="3" x="26.5" y="13.5" fill="#707070"/><ellipse cx="27.121" cy="29.121" fill="url(#ZxoCRdAgNNk3x1sseA0fHd)" rx="4" ry="3" transform="rotate(-45 27.121 29.121)"/><ellipse cx="22.879" cy="24.879" fill="url(#ZxoCRdAgNNk3x1sseA0fHp)" rx="4" ry="3" transform="rotate(-45 22.878 24.879)"/><ellipse cx="27.121" cy="29.121" fill="url(#ZxoCRdAgNNk3x1sseA0fHq)" rx="4" ry="3" transform="rotate(-45 27.121 29.121)"/><ellipse cx="22.879" cy="24.879" fill="url(#ZxoCRdAgNNk3x1sseA0fHr)" rx="4" ry="3" transform="rotate(-45 22.878 24.879)"/><rect width="1" height="3" x="33" y="13" fill="url(#ZxoCRdAgNNk3x1sseA0fHe)"/><rect width="1" height="3" x="39" y="13" fill="url(#ZxoCRdAgNNk3x1sseA0fHs)"/></g></svg>