<svg xmlns="http://www.w3.org/2000/svg" viewBox="0 0 48 48"><defs><linearGradient id="rVYVrnvVXTCImiKVeN3LFa" x1="24" x2="24" y1="6" y2="42.064" gradientUnits="userSpaceOnUse"><stop offset="0" stop-color="#737d8c"/><stop offset="1" stop-color="#545b69"/></linearGradient><linearGradient id="rVYVrnvVXTCImiKVeN3LFb" x1="24" x2="24" y1="8.224" y2="40.578" gradientUnits="userSpaceOnUse"><stop offset="0" stop-color="#f1f1f2" stop-opacity="0"/><stop offset=".009" stop-color="#f1f1f2" stop-opacity=".046"/><stop offset=".025" stop-color="#f1f1f2" stop-opacity=".169"/><stop offset=".046" stop-color="#f1f1f2" stop-opacity=".368"/><stop offset=".071" stop-color="#f1f1f2" stop-opacity=".645"/><stop offset=".1" stop-color="#f1f1f2" stop-opacity=".993"/><stop offset=".101" stop-color="#f1f1f2"/><stop offset=".102" stop-color="#f1f1f2" stop-opacity=".957"/><stop offset=".109" stop-color="#f1f1f2" stop-opacity=".758"/><stop offset=".116" stop-color="#f1f1f2" stop-opacity=".577"/><stop offset=".124" stop-color="#f1f1f2" stop-opacity=".422"/><stop offset=".132" stop-color="#f1f1f2" stop-opacity=".29"/><stop offset=".141" stop-color="#f1f1f2" stop-opacity=".184"/><stop offset=".151" stop-color="#f1f1f2" stop-opacity=".102"/><stop offset=".162" stop-color="#f1f1f2" stop-opacity=".044"/><stop offset=".176" stop-color="#f1f1f2" stop-opacity=".01"/><stop offset=".2" stop-color="#f1f1f2" stop-opacity="0"/><stop offset=".24" stop-color="#f1f1f2" stop-opacity=".011"/><stop offset=".267" stop-color="#f1f1f2" stop-opacity=".049"/><stop offset=".291" stop-color="#f1f1f2" stop-opacity=".112"/><stop offset=".312" stop-color="#f1f1f2" stop-opacity=".201"/><stop offset=".332" stop-color="#f1f1f2" stop-opacity=".317"/><stop offset=".351" stop-color="#f1f1f2" stop-opacity=".459"/><stop offset=".369" stop-color="#f1f1f2" stop-opacity=".628"/><stop offset=".386" stop-color="#f1f1f2" stop-opacity=".818"/><stop offset=".4" stop-color="#f1f1f2"/><stop offset=".407" stop-color="#f1f1f2" stop-opacity=".818"/><stop offset=".415" stop-color="#f1f1f2" stop-opacity=".628"/><stop offset=".424" stop-color="#f1f1f2" stop-opacity=".459"/><stop offset=".434" stop-color="#f1f1f2" stop-opacity=".317"/><stop offset=".444" stop-color="#f1f1f2" stop-opacity=".201"/><stop offset=".454" stop-color="#f1f1f2" stop-opacity=".112"/><stop offset=".466" stop-color="#f1f1f2" stop-opacity=".049"/><stop offset=".48" stop-color="#f1f1f2" stop-opacity=".011"/><stop offset=".499" stop-color="#f1f1f2" stop-opacity="0"/><stop offset=".661" stop-color="#f1f1f2" stop-opacity="0"/><stop offset=".8" stop-color="#f1f1f2"/><stop offset=".927" stop-color="#f1f1f2" stop-opacity="0"/></linearGradient><linearGradient id="rVYVrnvVXTCImiKVeN3LFc" x1="24" x2="24" y1="6.335" y2="41.797" gradientUnits="userSpaceOnUse"><stop offset="0" stop-color="#c3cdd4"/><stop offset="1" stop-color="#666d7a"/></linearGradient><linearGradient id="rVYVrnvVXTCImiKVeN3LFd" x1="24" x2="24" y1="6.335" y2="41.797" gradientUnits="userSpaceOnUse"><stop offset=".028" stop-color="#f1f1f2"/><stop offset=".028" stop-color="#f1f1f2" stop-opacity=".99"/><stop offset=".035" stop-color="#f1f1f2" stop-opacity=".784"/><stop offset=".042" stop-color="#f1f1f2" stop-opacity=".601"/><stop offset=".049" stop-color="#f1f1f2" stop-opacity=".439"/><stop offset=".057" stop-color="#f1f1f2" stop-opacity=".303"/><stop offset=".066" stop-color="#f1f1f2" stop-opacity=".192"/><stop offset=".075" stop-color="#f1f1f2" stop-opacity=".107"/><stop offset=".085" stop-color="#f1f1f2" stop-opacity=".046"/><stop offset=".098" stop-color="#f1f1f2" stop-opacity=".011"/><stop offset=".117" stop-color="#f1f1f2" stop-opacity="0"/><stop offset=".137" stop-color="#f1f1f2" stop-opacity="0"/><stop offset=".256" stop-color="#f1f1f2" stop-opacity="0"/><stop offset=".6" stop-color="#f1f1f2" stop-opacity="0"/><stop offset=".661" stop-color="#f1f1f2" stop-opacity="0"/><stop offset=".672" stop-color="#f1f1f2" stop-opacity=".069"/><stop offset=".735" stop-color="#f1f1f2" stop-opacity=".459"/><stop offset=".779" stop-color="#f1f1f2" stop-opacity=".705"/><stop offset=".8" stop-color="#f1f1f2" stop-opacity=".8"/><stop offset=".816" stop-color="#f1f1f2" stop-opacity=".766"/><stop offset=".842" stop-color="#f1f1f2" stop-opacity=".671"/><stop offset=".874" stop-color="#f1f1f2" stop-opacity=".518"/><stop offset=".911" stop-color="#f1f1f2" stop-opacity=".304"/><stop offset=".952" stop-color="#f1f1f2" stop-opacity=".034"/><stop offset=".956" stop-color="#f1f1f2" stop-opacity="0"/></linearGradient><linearGradient id="rVYVrnvVXTCImiKVeN3LFe" x1="31.14" x2="12.821" y1="3.152" y2="36.726" gradientUnits="userSpaceOnUse"><stop offset=".117" stop-color="#f1f1f2" stop-opacity="0"/><stop offset=".137" stop-color="#f1f1f2" stop-opacity="0"/><stop offset=".256" stop-color="#f1f1f2" stop-opacity="0"/><stop offset=".304" stop-color="#f1f1f2" stop-opacity=".188"/><stop offset=".412" stop-color="#f1f1f2" stop-opacity=".66"/><stop offset=".442" stop-color="#f1f1f2" stop-opacity=".8"/><stop offset=".465" stop-color="#f1f1f2" stop-opacity=".766"/><stop offset=".501" stop-color="#f1f1f2" stop-opacity=".671"/><stop offset=".546" stop-color="#f1f1f2" stop-opacity=".518"/><stop offset=".598" stop-color="#f1f1f2" stop-opacity=".304"/><stop offset=".655" stop-color="#f1f1f2" stop-opacity=".034"/><stop offset=".661" stop-color="#f1f1f2" stop-opacity="0"/><stop offset="1" stop-color="#f1f1f2" stop-opacity="0"/></linearGradient><linearGradient id="rVYVrnvVXTCImiKVeN3LFf" x1="28.15" x2="19.214" y1="40.214" y2="5.299" gradientUnits="userSpaceOnUse"><stop offset="0" stop-color="#d8d9d9"/><stop offset=".336" stop-color="#9ca0a6"/><stop offset=".638" stop-color="#6d737e"/><stop offset=".868" stop-color="#505765"/><stop offset="1" stop-color="#454d5c"/></linearGradient><radialGradient id="rVYVrnvVXTCImiKVeN3LFg" cx="19.936" cy="19.319" r="20.204" gradientUnits="userSpaceOnUse"><stop offset="0" stop-color="#fafaff"/><stop offset=".329" stop-color="#eeeef4"/><stop offset=".925" stop-color="#ceced5"/><stop offset="1" stop-color="#c9c9d1"/></radialGradient><radialGradient id="rVYVrnvVXTCImiKVeN3LFh" cx="24" cy="24" r="10.151" gradientUnits="userSpaceOnUse"><stop offset="0" stop-color="#eaeafc"/><stop offset=".208" stop-color="#dedff0"/><stop offset=".586" stop-color="#bdc3d1"/><stop offset="1" stop-color="#939ea8"/></radialGradient><radialGradient id="rVYVrnvVXTCImiKVeN3LFi" cx="24.203" cy="23.608" r="11.555" gradientTransform="rotate(134.702 20.637 15.06) scale(1 .276)" gradientUnits="userSpaceOnUse"><stop offset="0" stop-color="#282a2b"/><stop offset="1" stop-color="#323331" stop-opacity="0"/></radialGradient><linearGradient id="rVYVrnvVXTCImiKVeN3LFj" x1="23.847" x2="25.729" y1="17.666" y2="17.629" gradientTransform="scale(-1 1) rotate(-45 0 81.953)" gradientUnits="userSpaceOnUse"><stop offset="0" stop-color="#fe2925"/><stop offset="1" stop-color="#da2419"/></linearGradient><linearGradient id="rVYVrnvVXTCImiKVeN3LFk" x1="23.975" x2="22.705" y1="17.641" y2="17.641" gradientTransform="scale(-1 1) rotate(-45 0 81.953)" gradientUnits="userSpaceOnUse"><stop offset="0" stop-color="#ba170e"/><stop offset="1" stop-color="#a1140d"/></linearGradient><linearGradient id="rVYVrnvVXTCImiKVeN3LFl" x1="24.226" x2="21.914" y1="30.286" y2="30.409" gradientTransform="scale(-1 1) rotate(-45 0 81.953)" gradientUnits="userSpaceOnUse"><stop offset="0" stop-color="#463e3b"/><stop offset="1" stop-color="#221e1b"/></linearGradient><linearGradient id="rVYVrnvVXTCImiKVeN3LFm" x1="23.736" x2="25.636" y1="30.222" y2="30.406" gradientTransform="scale(-1 1) rotate(-45 0 81.953)" gradientUnits="userSpaceOnUse"><stop offset="0" stop-color="#9c9d97"/><stop offset="1" stop-color="#767e80"/></linearGradient><linearGradient id="rVYVrnvVXTCImiKVeN3LFn" x1="24.435" x2="23.565" y1="22.575" y2="25.424" gradientUnits="userSpaceOnUse"><stop offset="0" stop-color="#525247"/><stop offset=".562" stop-color="#49463f"/><stop offset="1" stop-color="#403936"/></linearGradient><linearGradient id="rVYVrnvVXTCImiKVeN3LFo" x1="23.35" x2="24.765" y1="22.925" y2="25.265" gradientUnits="userSpaceOnUse"><stop offset="0" stop-color="#ccd5d2"/><stop offset=".232" stop-color="#c1c9c6"/><stop offset=".651" stop-color="#a5a9a7"/><stop offset="1" stop-color="#898989"/></linearGradient><radialGradient id="rVYVrnvVXTCImiKVeN3LFp" cx="24" cy="24" r="14.138" gradientUnits="userSpaceOnUse"><stop offset=".399" stop-color="#444852" stop-opacity="0"/><stop offset=".673" stop-color="#444852" stop-opacity=".02"/><stop offset=".771" stop-color="#454953" stop-opacity=".092"/><stop offset=".842" stop-color="#474b55" stop-opacity=".218"/><stop offset=".898" stop-color="#494d57" stop-opacity=".398"/><stop offset=".947" stop-color="#4c505a" stop-opacity=".632"/><stop offset=".989" stop-color="#4f545d" stop-opacity=".915"/><stop offset="1" stop-color="#50555e"/></radialGradient><radialGradient id="rVYVrnvVXTCImiKVeN3LFq" cx="14.064" cy="12.383" r="21.678" gradientUnits="userSpaceOnUse"><stop offset="0" stop-color="#e6e6e6" stop-opacity=".6"/><stop offset="1" stop-color="#e6e6e6" stop-opacity="0"/></radialGradient></defs><g data-name="Compass"><circle cx="24" cy="24" r="18.26" fill="url(#rVYVrnvVXTCImiKVeN3LFa)"/><circle cx="24" cy="24" r="18.117" fill="url(#rVYVrnvVXTCImiKVeN3LFb)" opacity=".8"/><circle cx="24" cy="24" r="17.862" fill="url(#rVYVrnvVXTCImiKVeN3LFc)"/><circle cx="24" cy="24" r="17.862" fill="url(#rVYVrnvVXTCImiKVeN3LFd)" opacity=".7"/><path fill="url(#rVYVrnvVXTCImiKVeN3LFe)" d="M36.38,18.52A17.878,17.878,0,0,1,18.52,36.38a17.659,17.659,0,0,1-9.58-2.8A17.659,17.659,0,0,1,6.14,24,17.878,17.878,0,0,1,24,6.14a17.659,17.659,0,0,1,9.58,2.8A17.659,17.659,0,0,1,36.38,18.52Z" opacity=".9"/><g data-name="Screen"><circle cx="24" cy="24" r="14.872" fill="url(#rVYVrnvVXTCImiKVeN3LFf)"/><circle cx="24" cy="24" r="14" fill="url(#rVYVrnvVXTCImiKVeN3LFg)"/><path fill="#454545" d="M24.3,10V12.75h-.6V10c.1-.01.2,0,.3,0S24.2,9.986,24.3,10Z"/><path fill="#454545" d="M17.265,11.734l1.37,2.373-.52.3-1.37-2.373c.082-.058.168-.108.255-.158S17.173,11.776,17.265,11.734Z"/><path fill="#454545" d="M12.034,16.745l2.373,1.37-.3.52-2.373-1.37c.042-.092.092-.178.142-.265S11.976,16.827,12.034,16.745Z"/><path fill="#454545" d="M10.01,23.7h2.74v.6H10.01C10,24.2,10,24.1,10,24S10,23.8,10.01,23.7Z"/><path fill="#454545" d="M11.734,30.735l2.373-1.37.3.52-2.373,1.37c-.058-.082-.108-.168-.158-.255S11.776,30.827,11.734,30.735Z"/><path fill="#454545" d="M16.745,35.966l1.37-2.373.52.3-1.37,2.373c-.092-.042-.178-.092-.265-.142S16.827,36.024,16.745,35.966Z"/><path fill="#454545" d="M23.7,37.99V35.25h.6v2.74c-.1.01-.2.01-.3.01S23.8,38,23.7,37.99Z"/><path fill="#454545" d="M30.735,36.266l-1.37-2.373.52-.3,1.37,2.373c-.082.058-.168.108-.255.158S30.827,36.224,30.735,36.266Z"/><path fill="#454545" d="M35.966,31.255l-2.373-1.37.3-.52,2.373,1.37c-.042.092-.092.178-.142.265S36.024,31.173,35.966,31.255Z"/><path fill="#454545" d="M37.99,24.3H35.25v-.6h2.74c.01.1.01.2.01.3S38,24.2,37.99,24.3Z"/><path fill="#758a96" d="M21.09,19.75l.23.15a4.51,4.51,0,0,1,.93-.47l.06-.29A5.158,5.158,0,0,0,21.09,19.75Zm-1.95,2.56.29-.06a4.51,4.51,0,0,1,.47-.93l-.15-.23A5.158,5.158,0,0,0,19.14,22.31Zm3.11,6.26a4.51,4.51,0,0,1-.93-.47l-.23.15a5.158,5.158,0,0,0,1.22.61Zm-3.11-2.88a5.158,5.158,0,0,0,.61,1.22l.15-.23a4.51,4.51,0,0,1-.47-.93Zm9.11-4.6-.15.23a4.51,4.51,0,0,1,.47.93l.29.06A5.158,5.158,0,0,0,28.25,21.09Zm-2.5-1.66a4.51,4.51,0,0,1,.93.47l.23-.15a5.158,5.158,0,0,0-1.22-.61Zm2.82,6.32a4.51,4.51,0,0,1-.47.93l.15.23a5.158,5.158,0,0,0,.61-1.22Zm-2.82,2.82-.06.29a5.158,5.158,0,0,0,1.22-.61l-.23-.15A4.51,4.51,0,0,1,25.75,28.57Z"/><path fill="#758a96" d="M29.56,28.97a5.478,5.478,0,0,1-.59.59,7.362,7.362,0,0,1-3.84,1.82l-.06.26a7.722,7.722,0,0,0,4.12-1.94,6.136,6.136,0,0,0,.51-.51,7.722,7.722,0,0,0,1.94-4.12l-.26.06A7.362,7.362,0,0,1,29.56,28.97Zm-.59-10.53a5.478,5.478,0,0,1,.59.59,7.362,7.362,0,0,1,1.82,3.84l.26.06a7.722,7.722,0,0,0-1.94-4.12,6.136,6.136,0,0,0-.51-.51,7.722,7.722,0,0,0-4.12-1.94l.06.26A7.362,7.362,0,0,1,28.97,18.44ZM19.03,29.56a5.478,5.478,0,0,1-.59-.59,7.362,7.362,0,0,1-1.82-3.84l-.26-.06a7.722,7.722,0,0,0,1.94,4.12,6.136,6.136,0,0,0,.51.51,7.722,7.722,0,0,0,4.12,1.94l-.06-.26A7.362,7.362,0,0,1,19.03,29.56ZM18.3,18.81a7.722,7.722,0,0,0-1.94,4.12l.26-.06a7.362,7.362,0,0,1,1.82-3.84,5.478,5.478,0,0,1,.59-.59,7.362,7.362,0,0,1,3.84-1.82l.06-.26a7.722,7.722,0,0,0-4.12,1.94A6.136,6.136,0,0,0,18.3,18.81Z"/><path fill="#758a96" d="M30.15,29.92a2.5,2.5,0,0,1-.23.23,8.566,8.566,0,0,1-5.04,2.35l-.06.25a8.775,8.775,0,0,0,5.31-2.46l.16-.16a8.775,8.775,0,0,0,2.46-5.31l-.25.06A8.566,8.566,0,0,1,30.15,29.92Zm-.23-12.07a2.5,2.5,0,0,1,.23.23,8.566,8.566,0,0,1,2.35,5.04l.25.06a8.775,8.775,0,0,0-2.46-5.31l-.16-.16a8.775,8.775,0,0,0-5.31-2.46l.06.25A8.566,8.566,0,0,1,29.92,17.85ZM18.08,30.15a2.5,2.5,0,0,1-.23-.23,8.566,8.566,0,0,1-2.35-5.04l-.25-.06a8.775,8.775,0,0,0,2.46,5.31l.16.16a8.775,8.775,0,0,0,5.31,2.46l-.06-.25A8.566,8.566,0,0,1,18.08,30.15Zm-.37-12.28a8.775,8.775,0,0,0-2.46,5.31l.25-.06a8.566,8.566,0,0,1,2.35-5.04,2.5,2.5,0,0,1,.23-.23,8.566,8.566,0,0,1,5.04-2.35l.06-.25a8.775,8.775,0,0,0-5.31,2.46Z"/><path fill="#454545" d="M36.266,17.265l-2.373,1.37-.3-.52,2.373-1.37c.058.082.108.168.158.255S36.224,17.173,36.266,17.265Z"/><polygon fill="url(#rVYVrnvVXTCImiKVeN3LFh)" points="26.832 25.627 34.151 24 26.832 22.373 28.94 19.06 25.627 21.168 24 13.849 22.373 21.168 19.06 19.06 21.168 22.373 13.849 24 21.168 25.627 19.06 28.94 22.373 26.832 24 34.151 25.627 26.832 28.94 28.94 26.832 25.627"/><path fill="#758a96" d="M24,34.2a.049.049,0,0,1-.049-.039L22.34,26.912l-3.254,2.07a.048.048,0,0,1-.062-.006.05.05,0,0,1-.006-.062l2.07-3.254-7.249-1.611a.05.05,0,0,1,0-.1l7.249-1.611-2.07-3.254a.049.049,0,0,1,.068-.068l3.254,2.07,1.611-7.249a.052.052,0,0,1,.1,0l1.611,7.249,3.254-2.07a.049.049,0,0,1,.068.068l-2.07,3.254,7.249,1.611a.05.05,0,0,1,0,.1L26.912,25.66l2.07,3.254a.05.05,0,0,1-.006.062.047.047,0,0,1-.062.006l-3.254-2.07-1.611,7.249A.049.049,0,0,1,24,34.2Zm-1.627-7.418a.048.048,0,0,1,.02,0,.054.054,0,0,1,.029.035L24,33.92l1.578-7.1a.054.054,0,0,1,.029-.035.049.049,0,0,1,.046,0l3.124,1.987L26.79,25.653a.047.047,0,0,1,0-.046.054.054,0,0,1,.035-.029L33.92,24l-7.1-1.578a.054.054,0,0,1-.035-.029.047.047,0,0,1,0-.046l1.987-3.124L25.653,21.21a.05.05,0,0,1-.046,0,.054.054,0,0,1-.029-.035L24,14.08l-1.578,7.1a.054.054,0,0,1-.029.035.047.047,0,0,1-.046,0l-3.124-1.987,1.987,3.124a.047.047,0,0,1,0,.046.054.054,0,0,1-.035.029L14.08,24l7.1,1.578a.054.054,0,0,1,.035.029.047.047,0,0,1,0,.046l-1.987,3.124,3.124-1.987A.045.045,0,0,1,22.373,26.782Z"/><path fill="#454545" d="M31.255,12.034l-1.37,2.373-.52-.3,1.37-2.373c.092.042.178.092.265.142S31.173,11.976,31.255,12.034Z"/><polygon fill="url(#rVYVrnvVXTCImiKVeN3LFi)" points="32.677 16.28 32.75 16.207 32.707 16.237 32.737 16.194 32.664 16.266 22.115 23.558 14.823 34.107 14.75 34.18 14.793 34.151 14.763 34.194 14.836 34.121 25.385 26.829 32.677 16.28"/><polygon fill="url(#rVYVrnvVXTCImiKVeN3LFj)" points="22.365 22.365 24.007 24.007 33 15.013 22.365 22.365"/><polygon fill="url(#rVYVrnvVXTCImiKVeN3LFk)" points="25.635 25.635 23.993 23.993 32.987 15 25.635 25.635"/><polygon fill="url(#rVYVrnvVXTCImiKVeN3LFl)" points="25.635 25.635 23.993 23.993 15 32.987 25.635 25.635"/><polygon fill="url(#rVYVrnvVXTCImiKVeN3LFm)" points="22.365 22.365 24.007 24.007 15.013 33 22.365 22.365"/><circle cx="24" cy="24" r="1.723" fill="url(#rVYVrnvVXTCImiKVeN3LFn)"/><circle cx="24" cy="24" r="1.355" fill="url(#rVYVrnvVXTCImiKVeN3LFo)"/><circle cx="24" cy="24" r="14.138" fill="url(#rVYVrnvVXTCImiKVeN3LFp)"/><circle cx="24" cy="24" r="12.629" fill="url(#rVYVrnvVXTCImiKVeN3LFq)"/></g></g></svg>