<svg xmlns="http://www.w3.org/2000/svg" xmlns:xlink="http://www.w3.org/1999/xlink" viewBox="0 0 48 48"><defs><linearGradient id="nRlie674fMn0lZDtpfOPya" x1="11.798" x2="11.798" y1="30.1" y2="20.1" gradientTransform="rotate(-45 22.5 24)" gradientUnits="userSpaceOnUse"><stop offset="0" stop-color="#697882"/><stop offset=".042" stop-color="#5d6e78"/><stop offset=".141" stop-color="#455865"/><stop offset=".416" stop-color="#586d79"/><stop offset=".666" stop-color="#657b87"/><stop offset=".742" stop-color="#5d737f"/><stop offset=".851" stop-color="#4b5e6d"/><stop offset=".915" stop-color="#415065"/><stop offset="1" stop-color="#36425d"/></linearGradient><linearGradient id="nRlie674fMn0lZDtpfOPyb" x1="-.617" x2="-.617" y1="30.1" y2="20.1" gradientTransform="rotate(-45 22.5 24)" gradientUnits="userSpaceOnUse"><stop offset="0" stop-color="#797c80"/><stop offset=".145" stop-color="#0c0c0c"/><stop offset=".159"/><stop offset=".221" stop-color="#111"/><stop offset=".367" stop-color="#343537"/><stop offset=".445" stop-color="#424345"/><stop offset=".534" stop-color="#48494c"/><stop offset=".686" stop-color="#4d4e52"/><stop offset=".788" stop-color="#3d3e42"/><stop offset=".948" stop-color="#1c1e22"/></linearGradient><linearGradient id="nRlie674fMn0lZDtpfOPyc" x1="17.212" x2="23.212" y1="25.1" y2="25.1" gradientTransform="rotate(-45 22.5 24)" gradientUnits="userSpaceOnUse"><stop offset="0" stop-color="#b84728"/><stop offset=".11" stop-color="#b14428"/><stop offset=".266" stop-color="#9f3b27"/><stop offset=".448" stop-color="#812d26"/><stop offset=".519" stop-color="#732626"/><stop offset=".545" stop-color="#873232"/></linearGradient><linearGradient id="nRlie674fMn0lZDtpfOPyd" x1="32.005" x2="32.005" y1="35.1" y2="15.1" xlink:href="#nRlie674fMn0lZDtpfOPya"/><linearGradient id="nRlie674fMn0lZDtpfOPye" x1="38.005" x2="38.005" y1="35.1" y2="15.1" xlink:href="#nRlie674fMn0lZDtpfOPyb"/><linearGradient id="nRlie674fMn0lZDtpfOPyf" x1="43.798" x2="43.798" y1="35.1" y2="15.1" gradientTransform="translate(-5.46 -15.382)" gradientUnits="userSpaceOnUse"><stop offset="0" stop-color="#a6a62d"/><stop offset=".5" stop-color="#f5ea87"/><stop offset="1" stop-color="#a6a62d"/></linearGradient><linearGradient id="nRlie674fMn0lZDtpfOPyh" x1="38.555" x2="42.798" y1="25.1" y2="25.1" gradientTransform="rotate(-45 22.5 24)" gradientUnits="userSpaceOnUse"><stop offset="0" stop-color="#fcfcc7"/><stop offset=".557" stop-color="#fdfdc3"/><stop offset="1" stop-color="#ffffba"/></linearGradient><linearGradient id="nRlie674fMn0lZDtpfOPyi" x1="40.798" x2="40.798" y1="35.1" y2="15.1" gradientTransform="rotate(-45 22.5 24)" gradientUnits="userSpaceOnUse"><stop offset="0" stop-color="#5d6b74"/><stop offset=".01" stop-color="#576670"/><stop offset=".039" stop-color="#495c68"/><stop offset=".066" stop-color="#455865"/><stop offset=".381" stop-color="#586d79"/><stop offset=".666" stop-color="#657b87"/><stop offset=".742" stop-color="#5d737f"/><stop offset=".851" stop-color="#4b5e6d"/><stop offset=".915" stop-color="#415065"/><stop offset="1" stop-color="#36425d"/></linearGradient><radialGradient id="nRlie674fMn0lZDtpfOPyg" cx="41.141" cy="25.1" r="13.798" gradientTransform="matrix(-.7071 -.7071 .548 -.548 51.796 54.442)" gradientUnits="userSpaceOnUse"><stop offset=".331" stop-color="#f5f5cb"/><stop offset="1" stop-color="#cccc02"/></radialGradient></defs><g data-name="flashlight"><path fill="url(#nRlie674fMn0lZDtpfOPya)" d="M30.852,24.274,9.76,45.366c-1.174,1.174-3.7.537-5.657-1.414S1.515,39.469,2.689,38.3L23.781,17.2c-1.174,1.174-.538,3.705,1.414,5.657S29.678,25.448,30.852,24.274Z"/><path fill="url(#nRlie674fMn0lZDtpfOPyb)" d="M13.3,41.83,9.76,45.366c-1.174,1.174-3.7.537-5.657-1.414S1.515,39.469,2.689,38.3l3.535-3.536c-1.173,1.174-.537,3.706,1.415,5.657S12.122,43,13.3,41.83Z"/><rect width="8" height="4" x="17.66" y="24.395" fill="#40444d" rx="2" transform="rotate(-45 21.66 26.395)"/><path fill="url(#nRlie674fMn0lZDtpfOPyc)" d="M20.952,28.517A1,1,0,1,1,19.538,27.1l2.829-2.829a1,1,0,0,1,1.414,1.414Z"/><path fill="url(#nRlie674fMn0lZDtpfOPyd)" d="M41.873,20.324l-1.829,1.829c-1.171,1.171-9.192,6.364-14.849.707S24.731,9.182,25.9,8.011l1.829-1.829"/><path fill="url(#nRlie674fMn0lZDtpfOPye)" d="M31.266,2.647,45.408,16.789l-5.364,5.364c-1.562,1.563-6-.34-9.9-4.243s-5.806-8.337-4.243-9.9Z"/><ellipse cx="38.337" cy="9.718" fill="url(#nRlie674fMn0lZDtpfOPyf)" rx="4" ry="10" transform="rotate(-45 38.337 9.718)"/><path fill="url(#nRlie674fMn0lZDtpfOPyg)" d="M39.751,8.3c3.126,3.125,4.547,6.767,3.182,8.131a1.782,1.782,0,0,1-1.067.488,18.682,18.682,0,0,1-6.357-4.377,18.682,18.682,0,0,1-4.377-6.357,1.782,1.782,0,0,1,.488-1.067C32.984,3.757,36.626,5.178,39.751,8.3Z"/><path fill="url(#nRlie674fMn0lZDtpfOPyh)" d="M37.63,10.425c1.465,1.464,1.7,3.6.53,4.773s-6.474-4.132-5.3-5.3S36.166,8.96,37.63,10.425Z"/><path fill="url(#nRlie674fMn0lZDtpfOPyi)" d="M43.039,17.248c-2.071-.374-4.921-2.093-7.53-4.7s-4.328-5.459-4.7-7.53a2.576,2.576,0,0,1,.46-2.369L29.852,4.061c-1.563,1.563.339,6,4.243,9.9s8.336,5.806,9.9,4.243l1.414-1.414A2.574,2.574,0,0,1,43.039,17.248Z"/><path fill="#81919e" d="M32.819,3.1h0c1.514,0,4.55,1.407,7.639,4.5,3.885,3.885,5.108,7.621,4.243,8.486a1.174,1.174,0,0,1-.846.254c-1.514,0-4.55-1.407-7.639-4.5a18.7,18.7,0,0,1-3.96-5.515c-.593-1.383-.7-2.549-.283-2.97a1.171,1.171,0,0,1,.846-.254m0-1a2.119,2.119,0,0,0-1.553.547c-1.562,1.562.338,5.994,4.243,9.9,2.978,2.978,6.262,4.79,8.346,4.79a2.119,2.119,0,0,0,1.553-.547c1.562-1.562-.337-5.994-4.242-9.9C38.188,3.912,34.9,2.1,32.819,2.1Z"/></g></svg>