<svg xmlns="http://www.w3.org/2000/svg" viewBox="0 0 48 48"><path fill="#965a28" d="M24.494,27.97C24.396,25.554,24.305,22,24,22s-0.329,3.558-0.494,5.97 c-0.395,5.769-9.494,6.489-10.293,11.03h21.573C34.071,34.745,24.701,33.114,24.494,27.97z"/><path fill="#975b29" d="M24.493,28.014c-0.101-2.424-0.187-6.012-0.493-6.012c-0.306,0-0.325,3.601-0.492,6.011 C23.111,33.767,14.122,34.449,13.319,39H34.68C33.954,34.722,24.705,33.15,24.493,28.014z"/><path fill="#985c29" d="M24.491,28.057c-0.106-2.432-0.185-6.054-0.491-6.054c-0.307,0-0.322,3.644-0.49,6.053 C23.11,33.795,14.233,34.44,13.425,39h21.148C33.837,34.699,24.71,33.185,24.491,28.057z"/><path fill="#995c2a" d="M24.49,28.101c-0.11-2.441-0.182-6.096-0.49-6.096s-0.319,3.687-0.489,6.095 c-0.402,5.724-9.169,6.331-9.981,10.9h20.936C33.721,34.676,24.714,33.221,24.49,28.101z"/><path fill="#9a5d2b" d="M24.489,28.145c-0.114-2.449-0.18-6.138-0.489-6.138s-0.316,3.73-0.487,6.136 c-0.404,5.709-9.06,6.278-9.877,10.857H34.36C33.604,34.653,24.719,33.257,24.489,28.145z"/><path fill="#9b5e2c" d="M24.488,28.188c-0.118-2.457-0.178-6.18-0.488-6.18s-0.312,3.772-0.485,6.178 C23.109,33.88,14.563,34.412,13.742,39h20.511C33.487,34.63,24.723,33.293,24.488,28.188z"/><path fill="#9c5f2c" d="M24.487,28.232C24.364,25.766,24.311,22.01,24,22.01s-0.309,3.815-0.483,6.219 c-0.408,5.678-8.843,6.173-9.669,10.77h20.299C33.371,34.607,24.728,33.328,24.487,28.232z"/><path fill="#9d602d" d="M24.485,28.276c-0.126-2.474-0.173-6.264-0.485-6.264c-0.312,0-0.306,3.858-0.481,6.261 c-0.41,5.663-8.735,6.12-9.565,10.727H34.04C33.254,34.584,24.732,33.364,24.485,28.276z"/><path fill="#9e612e" d="M24.484,28.32c-0.131-2.483-0.171-6.306-0.484-6.306s-0.303,3.901-0.48,6.302 c-0.413,5.648-8.626,6.068-9.461,10.684h19.874C33.138,34.562,24.737,33.4,24.484,28.32z"/><path fill="#9f612e" d="M24.483,28.363c-0.135-2.491-0.168-6.348-0.483-6.348s-0.3,3.944-0.478,6.344 c-0.415,5.633-8.518,6.015-9.357,10.641h19.661C33.021,34.539,24.741,33.436,24.483,28.363z"/><path fill="#a0622f" d="M24.482,28.407c-0.139-2.499-0.166-6.39-0.482-6.39c-0.316,0-0.296,3.987-0.476,6.386 c-0.417,5.618-8.41,5.962-9.253,10.597H33.72C32.904,34.516,24.746,33.471,24.482,28.407z"/><path fill="#a16330" d="M24.481,28.451c-0.143-2.508-0.164-6.432-0.481-6.432c-0.317,0-0.293,4.03-0.474,6.427 c-0.419,5.603-8.301,5.909-9.149,10.554h19.237C32.788,34.493,24.75,33.507,24.481,28.451z"/><path fill="#a26430" d="M24.48,28.495c-0.142-2.516-0.162-6.474-0.479-6.474s-0.29,4.073-0.473,6.469 c-0.421,5.588-8.193,5.857-9.045,10.511h19.024C32.671,34.47,24.765,33.542,24.48,28.495z"/><path fill="#a36531" d="M24.478,28.538c-0.146-2.525-0.159-6.516-0.478-6.516s-0.287,4.116-0.471,6.51 c-0.424,5.573-8.084,5.804-8.941,10.467H33.4C32.554,34.447,24.77,33.578,24.478,28.538z"/><path fill="#a46532" d="M24.477,28.582c-0.15-2.533-0.157-6.558-0.477-6.558c-0.32,0-0.283,4.159-0.469,6.552 c-0.426,5.558-7.976,5.751-8.837,10.424h18.599C32.438,34.424,24.775,33.614,24.477,28.582z"/><path fill="#a56633" d="M24.476,28.626c-0.154-2.541-0.155-6.6-0.476-6.6s-0.28,4.202-0.467,6.593 c-0.428,5.543-7.867,5.699-8.733,10.381h18.387C32.321,34.402,24.78,33.649,24.476,28.626z"/><path fill="#a66733" d="M24.475,28.67c-0.157-2.55-0.152-6.642-0.475-6.642c-0.322,0-0.277,4.245-0.466,6.635 c-0.43,5.528-7.759,5.646-8.629,10.337H33.08C32.205,34.379,24.785,33.685,24.475,28.67z"/><path fill="#a76834" d="M24.474,28.713c-0.161-2.558-0.15-6.684-0.473-6.684s-0.274,4.288-0.464,6.677 c-0.432,5.513-7.65,5.593-8.525,10.294h17.962C32.088,34.356,24.79,33.721,24.474,28.713z"/><path fill="#a86935" d="M24.472,28.757c-0.165-2.566-0.148-6.726-0.472-6.726s-0.271,4.331-0.462,6.718 C23.104,34.247,15.996,34.29,15.117,39h17.75C31.971,34.333,24.794,33.757,24.472,28.757z"/><path fill="#a96935" d="M24.471,28.801c-0.169-2.575-0.145-6.768-0.471-6.768c-0.326,0-0.267,4.374-0.46,6.76 c-0.437,5.483-7.434,5.488-8.317,10.208H32.76C31.855,34.31,24.799,33.792,24.471,28.801z"/><path fill="#aa6a36" d="M24.47,28.845c-0.173-2.583-0.143-6.81-0.47-6.81c-0.327,0-0.264,4.417-0.459,6.801 c-0.439,5.468-7.325,5.435-8.214,10.164h17.325C31.738,34.287,24.804,33.828,24.47,28.845z"/><path fill="#ab6b37" d="M24.469,28.888c-0.177-2.592-0.141-6.852-0.469-6.852s-0.261,4.46-0.457,6.843 c-0.441,5.453-7.217,5.383-8.11,10.121h17.112C31.621,34.264,24.809,33.864,24.469,28.888z"/><path fill="#ac6c38" d="M24.468,28.932c-0.181-2.6-0.138-6.894-0.467-6.894s-0.258,4.503-0.455,6.884 C23.102,34.36,16.437,34.252,15.54,39h16.9C31.505,34.242,24.814,33.9,24.468,28.932z"/><path fill="#ad6d38" d="M24.467,28.976C24.282,26.367,24.33,22.04,24,22.04c-0.33,0-0.254,4.545-0.453,6.926 c-0.446,5.423-7,5.277-7.902,10.034h16.688C31.388,34.219,24.818,33.935,24.467,28.976z"/><path fill="#ae6e39" d="M24.465,29.019c-0.189-2.617-0.134-6.978-0.465-6.978c-0.331,0-0.251,4.588-0.452,6.968 c-0.448,5.407-6.891,5.225-7.798,9.991h16.475C31.271,34.196,24.823,33.971,24.465,29.019z"/><path fill="#af6e3a" d="M24.464,29.063c-0.193-2.625-0.131-7.02-0.464-7.02c-0.332,0-0.248,4.631-0.45,7.009 c-0.45,5.392-6.783,5.172-7.694,9.948H32.12C31.155,34.173,24.828,34.007,24.464,29.063z"/><path fill="#b06f3a" d="M24.463,29.107c-0.197-2.633-0.129-7.062-0.463-7.062s-0.245,4.674-0.448,7.051 c-0.452,5.377-6.674,5.119-7.59,9.904h16.05C31.038,34.15,24.832,34.042,24.463,29.107z"/><path fill="#b1703b" d="M24.462,29.151c-0.201-2.642-0.127-7.104-0.461-7.104s-0.241,4.717-0.446,7.092 C23.1,34.501,16.988,34.205,16.068,39h15.838C30.922,34.127,24.837,34.078,24.462,29.151z"/><path fill="#b2713c" d="M24.461,29.194c-0.205-2.65-0.125-7.146-0.46-7.146c-0.336,0-0.238,4.76-0.445,7.134 c-0.457,5.347-6.458,5.014-7.382,9.818h15.625C30.805,34.104,24.842,34.114,24.461,29.194z"/><path fill="#b3723d" d="M24.459,29.238c-0.209-2.659-0.122-7.188-0.459-7.188c-0.337,0-0.235,4.803-0.443,7.176 c-0.459,5.332-6.349,4.961-7.278,9.774h15.413C30.688,34.082,24.846,34.15,24.459,29.238z"/><path fill="#b4723d" d="M24.458,29.282c-0.213-2.667-0.12-7.23-0.458-7.23s-0.232,4.846-0.441,7.217 c-0.461,5.317-6.241,4.908-7.174,9.731h15.201C30.572,34.059,24.851,34.185,24.458,29.282z"/><path fill="#b5733e" d="M24.457,29.326c-0.217-2.675-0.118-7.272-0.457-7.272c-0.339,0-0.229,4.889-0.439,7.259 c-0.463,5.302-6.132,4.856-7.07,9.688h14.988C30.455,34.036,24.855,34.221,24.457,29.326z"/><path fill="#b6743f" d="M24.456,29.369c-0.222-2.684-0.115-7.314-0.455-7.314c-0.34,0-0.225,4.932-0.438,7.3 c-0.465,5.287-6.024,4.803-6.966,9.645h14.776C30.338,34.013,24.859,34.257,24.456,29.369z"/><path fill="#b6753f" d="M24.455,29.413c-0.226-2.692-0.113-7.356-0.454-7.356s-0.222,4.975-0.436,7.342 c-0.468,5.272-5.915,4.75-6.862,9.601h14.563C30.222,33.99,24.864,34.293,24.455,29.413z"/><path fill="#b77640" d="M24.454,29.457c-0.23-2.7-0.111-7.398-0.453-7.398c-0.342,0-0.219,5.018-0.434,7.383 c-0.47,5.257-5.807,4.698-6.758,9.558h14.351C30.105,33.967,24.868,34.328,24.454,29.457z"/><path fill="#b87741" d="M24.452,29.501c-0.234-2.709-0.108-7.44-0.452-7.44s-0.216,5.061-0.432,7.425 C23.096,34.727,17.87,34.13,16.914,39h14.138C29.989,33.944,24.873,34.364,24.452,29.501z"/><path fill="#b97741" d="M24.451,29.544c-0.238-2.717-0.106-7.482-0.451-7.482s-0.212,5.104-0.431,7.467 c-0.474,5.227-5.59,4.592-6.55,9.471h13.926C29.872,33.921,24.877,34.4,24.451,29.544z"/><path fill="#ba7842" d="M24.45,29.588c-0.242-2.725-0.104-7.524-0.449-7.524c-0.346,0-0.209,5.147-0.429,7.508 c-0.476,5.212-5.482,4.54-6.446,9.428h13.714C29.755,33.899,24.881,34.436,24.45,29.588z"/><path fill="#bb7943" d="M24.449,29.632c-0.247-2.734-0.101-7.566-0.448-7.566c-0.347,0-0.206,5.19-0.427,7.55 C23.095,34.812,18.2,34.102,17.231,39h13.501C29.639,33.876,24.885,34.471,24.449,29.632z"/><path fill="#bc7a44" d="M24.448,29.676c-0.251-2.742-0.099-7.608-0.447-7.608s-0.203,5.233-0.425,7.591 c-0.481,5.182-5.265,4.434-6.238,9.341h13.289C29.522,33.853,24.89,34.507,24.448,29.676z"/><path fill="#bd7b44" d="M24.446,29.719c-0.255-2.75-0.097-7.65-0.446-7.65c-0.349,0-0.2,5.276-0.424,7.633 c-0.483,5.167-5.156,4.382-6.134,9.298h13.076C29.405,33.83,24.894,34.543,24.446,29.719z"/><path fill="#be7b45" d="M24.445,29.763c-0.259-2.759-0.095-7.692-0.445-7.692c-0.35,0-0.196,5.319-0.422,7.674 c-0.485,5.152-5.048,4.329-6.03,9.255h12.864C29.289,33.807,24.898,34.579,24.445,29.763z"/><path fill="#bf7c46" d="M24.444,29.807c-0.264-2.767-0.092-7.734-0.443-7.734s-0.193,5.361-0.42,7.716 c-0.487,5.137-4.939,4.276-5.926,9.212h12.651C29.172,33.784,24.902,34.615,24.444,29.807z"/><path fill="#c07d46" d="M24.443,29.85c-0.268-2.775-0.09-7.776-0.442-7.776c-0.352,0-0.19,5.404-0.418,7.758 c-0.489,5.121-4.831,4.224-5.822,9.168h12.439C29.056,33.761,24.906,34.65,24.443,29.85z"/><path fill="#c17e47" d="M24.442,29.894c-0.272-2.784-0.088-7.818-0.441-7.818s-0.187,5.447-0.417,7.799 c-0.492,5.106-4.722,4.171-5.718,9.125h12.227C28.939,33.739,24.911,34.686,24.442,29.894z"/><path fill="#c27f48" d="M24.441,29.938c-0.277-2.792-0.085-7.86-0.44-7.86s-0.183,5.49-0.415,7.841 c-0.494,5.091-4.614,4.118-5.614,9.082h12.014C28.822,33.716,24.915,34.722,24.441,29.938z"/><path fill="#c38049" d="M24.439,29.982c-0.281-2.8-0.083-7.902-0.439-7.902c-0.356,0-0.18,5.533-0.413,7.882 c-0.496,5.076-4.506,4.066-5.51,9.038h11.802C28.706,33.693,24.919,34.758,24.439,29.982z"/><path fill="#c48049" d="M24.438,30.025c-0.285-2.809-0.081-7.944-0.437-7.944s-0.177,5.576-0.411,7.924 c-0.498,5.061-4.397,4.013-5.406,8.995h11.589C28.589,33.67,24.923,34.793,24.438,30.025z"/><path fill="#c5814a" d="M24.437,30.069c-0.29-2.817-0.078-7.986-0.436-7.986s-0.174,5.619-0.41,7.965 c-0.5,5.046-4.289,3.96-5.302,8.952h11.377C28.472,33.647,24.927,34.829,24.437,30.069z"/><path fill="#c6824b" d="M24.436,30.113c-0.294-2.825-0.076-8.028-0.435-8.028c-0.359,0-0.171,5.662-0.408,8.007 c-0.503,5.031-4.18,3.908-5.199,8.908h11.164C28.356,33.624,24.931,34.865,24.436,30.113z"/><path fill="#c7834b" d="M24.435,30.157c-0.299-2.834-0.074-8.07-0.434-8.07c-0.36,0-0.167,5.705-0.406,8.049 C23.09,35.151,19.523,33.99,18.5,39h10.952C28.239,33.601,24.935,34.901,24.435,30.157z"/><path fill="#c8844c" d="M24.433,30.2c-0.303-2.842-0.071-8.112-0.432-8.112s-0.164,5.748-0.404,8.09 C23.09,35.179,19.633,33.98,18.606,39h10.74C28.123,33.579,24.939,34.937,24.433,30.2z"/><path fill="#c9844d" d="M24.432,30.244c-0.313-2.85-0.069-8.155-0.431-8.155s-0.161,5.791-0.403,8.132 c-0.509,4.986-3.855,3.749-4.887,8.779h10.527C28.006,33.556,24.933,34.973,24.432,30.244z"/><path fill="#ca854e" d="M24.431,30.288c-0.317-2.858-0.067-8.197-0.43-8.197s-0.158,5.834-0.401,8.173 c-0.511,4.971-3.746,3.697-4.783,8.735h10.315C27.889,33.533,24.938,35.009,24.431,30.288z"/><path fill="#cb864e" d="M24.43,30.332c-0.322-2.867-0.064-8.239-0.429-8.239c-0.364,0-0.154,5.877-0.399,8.215 c-0.514,4.956-3.638,3.644-4.679,8.692h10.102C27.773,33.51,24.942,35.045,24.43,30.332z"/><path fill="#cc874f" d="M24.429,30.375c-0.326-2.875-0.062-8.281-0.428-8.281c-0.366,0-0.151,5.92-0.397,8.257 c-0.516,4.941-3.53,3.591-4.575,8.649h9.89C27.656,33.487,24.946,35.081,24.429,30.375z"/><path fill="#cd8850" d="M24.428,30.419c-0.33-2.883-0.06-8.323-0.426-8.323s-0.148,5.963-0.396,8.298 c-0.518,4.926-3.421,3.539-4.471,8.605h9.678C27.539,33.464,24.951,35.116,24.428,30.419z"/><path fill="#ce8850" d="M24.426,30.463c-0.334-2.892-0.058-8.365-0.425-8.365s-0.145,6.006-0.394,8.34 c-0.52,4.911-3.313,3.486-4.367,8.562h9.465C27.423,33.441,24.955,35.152,24.426,30.463z"/><path fill="#cf8951" d="M24.425,30.507c-0.338-2.9-0.055-8.407-0.424-8.407c-0.369,0-0.142,6.049-0.392,8.381 c-0.522,4.896-3.204,3.433-4.263,8.519h9.253C27.306,33.419,24.96,35.188,24.425,30.507z"/><path fill="#d08a52" d="M24.424,30.55c-0.342-2.908-0.053-8.449-0.423-8.449c-0.37,0-0.138,6.092-0.39,8.423 c-0.525,4.881-3.096,3.381-4.159,8.475h9.04C27.189,33.396,24.964,35.224,24.424,30.55z"/><path fill="#d18b52" d="M24.423,30.594c-0.346-2.917-0.051-8.491-0.422-8.491s-0.135,6.134-0.389,8.464 c-0.527,4.866-2.987,3.328-4.055,8.432h8.828C27.073,33.373,24.969,35.26,24.423,30.594z"/><path fill="#d28c53" d="M24.422,30.638c-0.351-2.925-0.048-8.533-0.42-8.533c-0.372,0-0.132,6.177-0.387,8.506 c-0.529,4.851-2.879,3.275-3.951,8.389h8.615C26.956,33.35,24.973,35.295,24.422,30.638z"/><path fill="#d38d54" d="M24.42,30.682c-0.355-2.933-0.046-8.575-0.419-8.575s-0.129,6.22-0.385,8.548 c-0.531,4.835-2.77,3.223-3.847,8.346h8.403C26.84,33.327,24.978,35.331,24.42,30.682z"/><path fill="#d48d55" d="M24.419,30.725c-0.359-2.942-0.044-8.617-0.418-8.617c-0.374,0-0.125,6.263-0.383,8.589 c-0.533,4.82-2.662,3.17-3.743,8.302h8.191C26.723,33.304,24.982,35.367,24.419,30.725z"/><path fill="#d58e55" d="M24.418,30.769c-0.363-2.95-0.041-8.659-0.417-8.659c-0.376,0-0.122,6.306-0.381,8.631 c-0.536,4.805-2.554,3.117-3.639,8.259h7.978C26.606,33.281,24.987,35.403,24.418,30.769z"/><path fill="#d68f56" d="M24.417,30.813c-0.367-2.958-0.039-8.701-0.416-8.701s-0.119,6.349-0.38,8.672 c-0.538,4.79-2.445,3.065-3.535,8.216h7.766C26.49,33.259,24.991,35.438,24.417,30.813z"/><radialGradient id="Ea_BeyKquBJp9vz2n4TkSa" cx="24" cy="12.484" r="10.387" gradientTransform="matrix(1.316 0 0 1.8073 -7.583 -19.252)" gradientUnits="userSpaceOnUse"><stop offset=".608" stop-color="#d9a97e"/><stop offset=".685" stop-color="#d7a579"/><stop offset=".774" stop-color="#d19a6b"/><stop offset=".871" stop-color="#c78854"/><stop offset=".971" stop-color="#ba6f33"/><stop offset="1" stop-color="#b56728"/></radialGradient><path fill="url(#Ea_BeyKquBJp9vz2n4TkSa)" d="M24,22.877c-0.335,0-0.59-0.47-1.902-0.761c-5.492-1.216-8.626-7.03-8.626-7.03	S20.052,16,24,16s10.528-0.914,10.528-0.914s-3.024,5.698-8.372,6.973C24.419,22.473,24.335,22.877,24,22.877z"/><radialGradient id="Ea_BeyKquBJp9vz2n4TkSb" cx="23.924" cy="11.416" r="11.502" gradientUnits="userSpaceOnUse"><stop offset=".278" stop-color="#c8ccd9" stop-opacity="0"/><stop offset=".626" stop-color="#c8cad4" stop-opacity=".437"/><stop offset=".994" stop-color="#c7c7c7" stop-opacity=".9"/></radialGradient><path fill="url(#Ea_BeyKquBJp9vz2n4TkSb)" d="M24,23L24,23c-6.627,0-12-5.373-12-12V9h24v2C36,17.627,30.627,23,24,23z"/><radialGradient id="Ea_BeyKquBJp9vz2n4TkSc" cx="24.182" cy="36.054" r="10.613" fx="16.385" fy="36.078" gradientTransform="matrix(.024 .9997 -1.1007 .0265 63.285 10.925)" gradientUnits="userSpaceOnUse"><stop offset=".278" stop-color="#c8ccd9" stop-opacity="0"/><stop offset=".626" stop-color="#c8cad4" stop-opacity=".437"/><stop offset=".994" stop-color="#c7c7c7" stop-opacity=".9"/></radialGradient><path fill="url(#Ea_BeyKquBJp9vz2n4TkSc)" d="M24,25L24,25c6.627,0,12,5.373,12,12v2H12v-2C12,30.373,17.373,25,24,25z"/><radialGradient id="Ea_BeyKquBJp9vz2n4TkSd" cx="23.945" cy="24.057" r="1.974" gradientTransform="matrix(1 0 0 .746 0 6.096)" gradientUnits="userSpaceOnUse"><stop offset="0" stop-color="#c8ccd9" stop-opacity="0"/><stop offset=".316" stop-color="#c8cad2" stop-opacity=".286"/><stop offset=".994" stop-color="#c7c7c7" stop-opacity=".9"/></radialGradient><path fill="url(#Ea_BeyKquBJp9vz2n4TkSd)" d="M25,23.997c0-0.459,1.032-1.077,1.636-1.333c0,0-0.74,0.117-2.636,0.117	s-2.636-0.117-2.636-0.117C21.968,22.921,23,23.538,23,23.997s-1.032,1.082-1.636,1.339c0,0,0.982-0.072,2.636-0.072	s2.636,0.072,2.636,0.072C26.032,25.079,25,24.456,25,23.997z"/><linearGradient id="Ea_BeyKquBJp9vz2n4TkSe" x1="10.919" x2="36.978" y1="38.5" y2="38.5" gradientUnits="userSpaceOnUse"><stop offset="0" stop-color="#5c3200"/><stop offset=".5" stop-color="#e8b882"/><stop offset="1" stop-color="#5c3200"/></linearGradient><path fill="url(#Ea_BeyKquBJp9vz2n4TkSe)" d="M11,39h26c0-0.552-0.448-1-1-1H12C11.448,38,11,38.448,11,39z"/><linearGradient id="Ea_BeyKquBJp9vz2n4TkSf" x1="10.919" x2="36.978" y1="39.5" y2="39.5" gradientUnits="userSpaceOnUse"><stop offset="0" stop-color="#3b1e00"/><stop offset=".5" stop-color="#b87d39"/><stop offset="1" stop-color="#3e2200"/></linearGradient><rect width="26" height="1" x="11" y="39" fill="url(#Ea_BeyKquBJp9vz2n4TkSf)"/><linearGradient id="Ea_BeyKquBJp9vz2n4TkSg" x1="9.913" x2="37.976" y1="40.5" y2="40.5" gradientUnits="userSpaceOnUse"><stop offset="0" stop-color="#5c3200"/><stop offset=".5" stop-color="#e8b882"/><stop offset="1" stop-color="#5c3200"/></linearGradient><path fill="url(#Ea_BeyKquBJp9vz2n4TkSg)" d="M10,41h28c0-0.552-0.448-1-1-1H11C10.448,40,10,40.448,10,41z"/><linearGradient id="Ea_BeyKquBJp9vz2n4TkSh" x1="9.913" x2="37.976" y1="41.5" y2="41.5" gradientUnits="userSpaceOnUse"><stop offset="0" stop-color="#3b1e00"/><stop offset=".5" stop-color="#b87d39"/><stop offset="1" stop-color="#3e2200"/></linearGradient><rect width="28" height="1" x="10" y="41" fill="url(#Ea_BeyKquBJp9vz2n4TkSh)"/><linearGradient id="Ea_BeyKquBJp9vz2n4TkSi" x1="-125.081" x2="-99.022" y1="72.5" y2="72.5" gradientTransform="rotate(180 -44 41)" gradientUnits="userSpaceOnUse"><stop offset="0" stop-color="#3b1e00"/><stop offset=".5" stop-color="#b87d39"/><stop offset="1" stop-color="#3e2200"/></linearGradient><path fill="url(#Ea_BeyKquBJp9vz2n4TkSi)" d="M37,9H11c0,0.552,0.448,1,1,1h24C36.552,10,37,9.552,37,9z"/><linearGradient id="Ea_BeyKquBJp9vz2n4TkSj" x1="-125.081" x2="-99.022" y1="73.5" y2="73.5" gradientTransform="rotate(180 -44 41)" gradientUnits="userSpaceOnUse"><stop offset="0" stop-color="#5c3200"/><stop offset=".5" stop-color="#e8b882"/><stop offset="1" stop-color="#5c3200"/></linearGradient><polygon fill="url(#Ea_BeyKquBJp9vz2n4TkSj)" points="11,8 37,8 37,9 11,9"/><linearGradient id="Ea_BeyKquBJp9vz2n4TkSk" x1="-126.087" x2="-98.024" y1="74.5" y2="74.5" gradientTransform="rotate(180 -44 41)" gradientUnits="userSpaceOnUse"><stop offset="0" stop-color="#3b1e00"/><stop offset=".5" stop-color="#b87d39"/><stop offset="1" stop-color="#3e2200"/></linearGradient><path fill="url(#Ea_BeyKquBJp9vz2n4TkSk)" d="M38,7H10c0,0.552,0.448,1,1,1h26C37.552,8,38,7.552,38,7z"/><linearGradient id="Ea_BeyKquBJp9vz2n4TkSl" x1="-126.087" x2="-98.024" y1="75.5" y2="75.5" gradientTransform="rotate(180 -44 41)" gradientUnits="userSpaceOnUse"><stop offset="0" stop-color="#5c3200"/><stop offset=".5" stop-color="#e8b882"/><stop offset="1" stop-color="#5c3200"/></linearGradient><polygon fill="url(#Ea_BeyKquBJp9vz2n4TkSl)" points="10,6 38,6 38,7 10,7"/></svg>