<svg xmlns="http://www.w3.org/2000/svg" xmlns:xlink="http://www.w3.org/1999/xlink" viewBox="0 0 48 48"><defs><radialGradient id="IKKyFAHE5PK9K6TO5D1bla" cx="24.457" cy="4.493" r="15.495" gradientTransform="matrix(1 0 0 .153 0 3.807)" gradientUnits="userSpaceOnUse"><stop offset="0" stop-color="#6f4942"/><stop offset=".186" stop-color="#6a453f"/><stop offset=".411" stop-color="#5b3b35"/><stop offset=".617" stop-color="#472d28"/><stop offset="1" stop-color="#392521"/></radialGradient><radialGradient id="IKKyFAHE5PK9K6TO5D1blh" cx="24.336" cy="44.053" r="6.007" xlink:href="#IKKyFAHE5PK9K6TO5D1bla"/><radialGradient id="IKKyFAHE5PK9K6TO5D1bli" cx="12.777" cy="12.096" r="9.221" xlink:href="#IKKyFAHE5PK9K6TO5D1bla"/><radialGradient id="IKKyFAHE5PK9K6TO5D1blb" cx="13.903" cy="12.869" r="7.238" gradientUnits="userSpaceOnUse"><stop offset=".411" stop-color="#392521"/><stop offset=".715" stop-color="#6f4942"/><stop offset=".888" stop-color="#563731"/></radialGradient><radialGradient id="IKKyFAHE5PK9K6TO5D1blj" cx="36.745" cy="11.872" r="8.207" xlink:href="#IKKyFAHE5PK9K6TO5D1bla"/><radialGradient id="IKKyFAHE5PK9K6TO5D1blk" cx="34.727" cy="12.441" r="6.531" xlink:href="#IKKyFAHE5PK9K6TO5D1blb"/><linearGradient id="IKKyFAHE5PK9K6TO5D1bll" x1="24.468" x2="24.213" y1="2.448" y2="42.594" gradientUnits="userSpaceOnUse"><stop offset="0" stop-color="#923d18"/><stop offset=".441" stop-color="#c95d22"/><stop offset="1" stop-color="#923d18"/></linearGradient><linearGradient id="IKKyFAHE5PK9K6TO5D1blm" x1="38.766" x2="10.617" y1="22.394" y2="22.554" gradientUnits="userSpaceOnUse"><stop offset="0" stop-color="#923d18"/><stop offset="1" stop-color="#4c230f"/></linearGradient><clipPath id="IKKyFAHE5PK9K6TO5D1bln"><path fill="none" d="M28.88,42.71H19.79v-.2c0-2.776-1.909-5.251-3.931-7.872-2.9-3.762-6.188-8.026-5.1-14.431.658-3.875,3.037-5.566,4.949-6.925,1.58-1.123,2.828-2.01,2.828-3.722a16.458,16.458,0,0,0-.1-1.858,4.983,4.983,0,0,0-.685-2.248,2.254,2.254,0,0,0-.387-.423,2.571,2.571,0,0,0-.641-.4,6.367,6.367,0,0,1-1.445-.788l-.044-.036-.018-.054a.832.832,0,0,1-.041-.265.638.638,0,0,1,.207-.465c.786-.779,3.906-.82,7.627-.783.948.008,1.705.031,2.655.023,2.817-.026,6.33-.079,7.429.616a.913.913,0,0,1,.209.174.493.493,0,0,1,.107.148l.03.067a.535.535,0,0,1,.046.22.776.776,0,0,1-.056.31l-.06.077a5.462,5.462,0,0,1-1.2.668l-.13-.164.079.184L32,4.6c.013,0-.021.017-.041.027a2.108,2.108,0,0,0-.666.4l-.065.053a3.128,3.128,0,0,0-.318.377A4.983,4.983,0,0,0,30.229,7.7a16.458,16.458,0,0,0-.1,1.858c0,1.712,1.249,2.6,2.83,3.723,1.913,1.359,4.294,3.05,4.957,6.923,1.093,6.406-2.2,10.67-5.1,14.432-2.023,2.621-3.934,5.1-3.934,7.872Z"/></clipPath><radialGradient id="IKKyFAHE5PK9K6TO5D1blo" cx="24.585" cy="8.426" r="10.103" gradientTransform="matrix(.882 0 0 1 3.263 0)" gradientUnits="userSpaceOnUse"><stop offset="0" stop-color="#c95d22" stop-opacity="0"/><stop offset=".999" stop-color="#45140a"/></radialGradient><radialGradient id="IKKyFAHE5PK9K6TO5D1blp" cx="23.18" cy="31.59" r="71.682" gradientTransform="matrix(.99992 -.01243 .00201 .16199 -.062 26.765)" gradientUnits="userSpaceOnUse"><stop offset="0" stop-color="#c95d22" stop-opacity="0"/><stop offset=".999" stop-color="#300e07"/></radialGradient><radialGradient id="IKKyFAHE5PK9K6TO5D1blq" cx="24.234" cy="45.606" r="14.762" gradientTransform="rotate(.666 -2957.775 28.289) scale(1 .24)" gradientUnits="userSpaceOnUse"><stop offset="0" stop-color="#784f48"/><stop offset=".165" stop-color="#734b45"/><stop offset=".365" stop-color="#64413b"/><stop offset=".583" stop-color="#4c302b"/><stop offset=".617" stop-color="#472d28"/><stop offset="1" stop-color="#392521"/></radialGradient><radialGradient id="IKKyFAHE5PK9K6TO5D1blr" cx="21.09" cy="44.426" r="3.381" gradientTransform="rotate(43.728 54.596 57.87) scale(1 1.605)" gradientUnits="userSpaceOnUse"><stop offset="0" stop-color="#784f48"/><stop offset=".158" stop-color="#784f48" stop-opacity=".957"/><stop offset=".35" stop-color="#784f48" stop-opacity=".833"/><stop offset=".56" stop-color="#784f48" stop-opacity=".628"/><stop offset=".781" stop-color="#784f48" stop-opacity=".345"/><stop offset="1" stop-color="#784f48" stop-opacity="0"/></radialGradient><radialGradient id="IKKyFAHE5PK9K6TO5D1bls" cx="24.282" cy="7.592" r="42.755" gradientTransform="matrix(1 0 0 .071 0 7.052)" gradientUnits="userSpaceOnUse"><stop offset="0" stop-color="#c95d22" stop-opacity="0"/><stop offset=".999" stop-color="#4f170b"/></radialGradient><clipPath id="IKKyFAHE5PK9K6TO5D1blt"><path fill="none" d="M28.68,42.51H19.99c0-6.81-10.88-11.42-9.03-22.27,1.17-6.89,7.78-6.64,7.78-10.68a16.66,16.66,0,0,0-.1-1.88,5.1,5.1,0,0,0-.72-2.34,2.373,2.373,0,0,0-.42-.46,2.775,2.775,0,0,0-.69-.43,6.15,6.15,0,0,1-1.4-.76.645.645,0,0,1-.03-.2c0-1.28,5.81-1.017,8.96-1.017,2.72,0,7.42-.2,8.65.577a.7.7,0,0,1,.16.13.34.34,0,0,1,.09.13.031.031,0,0,1,.01.02.317.317,0,0,1,.04.16.556.556,0,0,1-.04.23,5.19,5.19,0,0,1-1.15.64c-.03.01-.07.03-.1.04h-.01a.612.612,0,0,0-.12.05,2.25,2.25,0,0,0-.71.43h-.01a3.073,3.073,0,0,0-.4.46,5.1,5.1,0,0,0-.72,2.34,16.66,16.66,0,0,0-.1,1.88c0,4.04,6.61,3.79,7.79,10.68C39.57,31.09,28.68,35.7,28.68,42.51Z"/></clipPath><radialGradient id="IKKyFAHE5PK9K6TO5D1blc" cx="47.255" cy="41.234" r="32.045" gradientUnits="userSpaceOnUse"><stop offset="0" stop-color="#1c0a07"/><stop offset="1" stop-color="#1c0a07" stop-opacity="0"/></radialGradient><radialGradient id="IKKyFAHE5PK9K6TO5D1blu" cx="55.936" cy="1.404" r="33.542" fx="65.142" xlink:href="#IKKyFAHE5PK9K6TO5D1blc"/><radialGradient id="IKKyFAHE5PK9K6TO5D1blv" cx="56.319" cy="46.468" r="33.542" fx="65.525" xlink:href="#IKKyFAHE5PK9K6TO5D1blc"/><radialGradient id="IKKyFAHE5PK9K6TO5D1bld" cx="17.638" cy="19.872" r="13.032" gradientUnits="userSpaceOnUse"><stop offset="0" stop-color="#e6c8c3"/><stop offset="1" stop-color="#e6c8c3" stop-opacity="0"/></radialGradient><radialGradient id="IKKyFAHE5PK9K6TO5D1blw" cx="16.574" cy="18.83" r="7.321" xlink:href="#IKKyFAHE5PK9K6TO5D1bld"/><radialGradient id="IKKyFAHE5PK9K6TO5D1blf" cx="16.17" cy="18.617" r="3.52" gradientUnits="userSpaceOnUse"><stop offset="0" stop-color="#f0b292"/><stop offset="1" stop-color="#f0b292" stop-opacity="0"/></radialGradient><radialGradient id="IKKyFAHE5PK9K6TO5D1ble" cx="10.064" cy="18.596" r="18.24" gradientTransform="rotate(7.028 55.336 21.374) scale(1 1.299)" gradientUnits="userSpaceOnUse"><stop offset="0" stop-color="#ffcb8d"/><stop offset="1" stop-color="#ffcb8d" stop-opacity="0"/></radialGradient><radialGradient id="IKKyFAHE5PK9K6TO5D1blx" cx="15.106" cy="19.468" r="4.397" xlink:href="#IKKyFAHE5PK9K6TO5D1ble"/><radialGradient id="IKKyFAHE5PK9K6TO5D1bly" cx="21.511" cy="10.798" r="16.128" gradientTransform="rotate(1.302 -347.294 6.587) scale(1 .224)" xlink:href="#IKKyFAHE5PK9K6TO5D1blf"/><radialGradient id="IKKyFAHE5PK9K6TO5D1blg" cx="20.064" cy="10.83" r="10.974" gradientTransform="matrix(1 .023 -.006 .254 .068 7.625)" gradientUnits="userSpaceOnUse"><stop offset="0" stop-color="#f0e2da"/><stop offset="1" stop-color="#f0e2da" stop-opacity="0"/></radialGradient><radialGradient id="IKKyFAHE5PK9K6TO5D1blz" cx="20.064" cy="11.085" r="6.837" gradientTransform="matrix(.99974 .02272 -.00636 .27993 .076 7.523)" xlink:href="#IKKyFAHE5PK9K6TO5D1blg"/><radialGradient id="IKKyFAHE5PK9K6TO5D1blA" cx="21.669" cy="3.471" r="8.932" gradientTransform="matrix(1 -.024 .003 .119 -.004 3.568)" gradientUnits="userSpaceOnUse"><stop offset="0" stop-color="#6f4942"/><stop offset=".186" stop-color="#6a453f"/><stop offset=".411" stop-color="#5b3b35"/><stop offset=".617" stop-color="#472d28"/><stop offset=".991" stop-color="#392521"/></radialGradient></defs><g data-name="Amphora"><path fill="url(#IKKyFAHE5PK9K6TO5D1bla)" d="M33.77,2.93a1.015,1.015,0,0,1-.47.76c-.02.01-.03.02-.05.03a5.19,5.19,0,0,1-1.15.64c-.03.01-.07.03-.1.04h-.01a.612.612,0,0,0-.12.05,2.25,2.25,0,0,0-.71.43h-.01a66.5,66.5,0,0,0-6.78-.32h-.03a67.765,67.765,0,0,0-6.84.32,2.775,2.775,0,0,0-.69-.43,6.15,6.15,0,0,1-1.4-.76,1.015,1.015,0,0,1-.47-.76c0-.34,7.07-.76,9.4-.76h.03C26.7,2.17,33.77,2.59,33.77,2.93Z"/><path fill="url(#IKKyFAHE5PK9K6TO5D1blh)" d="M25.7,45.8H23.627c-2.191,0-4.058,0-5.362-.054-1.9-.08-2.244-.259-2.244-.584,0-.8,2.931-2.847,4.073-2.847h8.485c1.1,0,4.072,2.076,4.072,2.847,0,.325-.346.5-2.243.584C29.237,45.791,27.6,45.8,25.7,45.8Z"/><path fill="url(#IKKyFAHE5PK9K6TO5D1bli)" d="M12.333,20.8a1,1,0,0,1-.823-.431c-.46-.663-4.465-6.594-3.474-10.479a3.919,3.919,0,0,1,2.1-2.6c5.213-2.616,11.187,4.2,11.438,4.5a1,1,0,0,1-1.513,1.308c-.052-.061-5.2-5.939-9.029-4.017a1.9,1.9,0,0,0-1.057,1.308c-.652,2.555,2.075,7.252,3.18,8.846a1,1,0,0,1-.821,1.57Z"/><path fill="url(#IKKyFAHE5PK9K6TO5D1blb)" d="M12.333,20.5a.7.7,0,0,1-.577-.3c-.451-.651-4.388-6.474-3.429-10.234A3.622,3.622,0,0,1,10.27,7.557a5.306,5.306,0,0,1,2.405-.566c4.334,0,8.5,4.785,8.671,4.988a.7.7,0,0,1-1.06.917c-.037-.044-3.953-4.506-7.582-4.506a4,4,0,0,0-1.808.417,2.209,2.209,0,0,0-1.213,1.5c-.818,3.209,3.184,9.033,3.225,9.091a.7.7,0,0,1-.178.975A.694.694,0,0,1,12.333,20.5Z"/><path fill="url(#IKKyFAHE5PK9K6TO5D1blj)" d="M36.347,20.8a1,1,0,0,1-.822-1.57c1.106-1.6,3.831-6.3,3.18-8.847a1.9,1.9,0,0,0-1.057-1.307c-3.777-1.893-8.975,3.955-9.028,4.016a1,1,0,0,1-1.514-1.307c.252-.292,6.235-7.11,11.439-4.5a3.919,3.919,0,0,1,2.1,2.6c.991,3.885-3.014,9.816-3.474,10.479A1,1,0,0,1,36.347,20.8Z"/><path fill="url(#IKKyFAHE5PK9K6TO5D1blk)" d="M36.347,20.5a.69.69,0,0,1-.4-.125.7.7,0,0,1-.177-.974c.04-.058,4.042-5.889,3.224-9.092a2.206,2.206,0,0,0-1.213-1.5,3.908,3.908,0,0,0-1.777-.41c-3.653,0-7.573,4.451-7.612,4.5a.7.7,0,1,1-1.061-.914c.177-.2,4.354-4.988,8.676-4.988a5.291,5.291,0,0,1,2.4.565,3.624,3.624,0,0,1,1.943,2.406c.959,3.76-2.978,9.583-3.429,10.234A.7.7,0,0,1,36.347,20.5Z"/><path fill="url(#IKKyFAHE5PK9K6TO5D1bll)" d="M37.92,20.21c-.67-3.88-3.05-5.57-4.96-6.93-1.58-1.12-2.83-2.01-2.83-3.72a15.587,15.587,0,0,1,.1-1.86,4.9,4.9,0,0,1,.68-2.24,3.191,3.191,0,0,1,.32-.38l.06-.05a2.165,2.165,0,0,1,.67-.4c.02-.01.04-.02.04-.03l.13-.03-.08-.19.13.16a5.3,5.3,0,0,0,1.19-.66l.06-.08a.8.8,0,0,0,.06-.31.493.493,0,0,0-.05-.22l-.03-.07a.653.653,0,0,0-.1-.15,1.118,1.118,0,0,0-.21-.17c-1.1-.69-4.61-.64-7.43-.61-.95,0-1.71-.02-2.66-.03-3.72-.03-6.84.01-7.62.79a.618.618,0,0,0-.21.46.71.71,0,0,0,.04.26l.02.06.04.03a5.922,5.922,0,0,0,1.45.79,3.156,3.156,0,0,1,.64.4,2.99,2.99,0,0,1,.39.42,4.989,4.989,0,0,1,.68,2.25,15.587,15.587,0,0,1,.1,1.86,3.648,3.648,0,0,1-1.76,2.94c-.33.26-.69.51-1.07.78-1.8,1.28-4.01,2.85-4.82,6.27-.05.21-.09.43-.13.66a14.3,14.3,0,0,0,2.18,10.31,40.944,40.944,0,0,0,2.92,4.12c2.02,2.62,3.93,5.09,3.93,7.87v.2h9.09v-.2c0-2.78,1.91-5.25,3.93-7.87a41.606,41.606,0,0,0,3.07-4.35A14.229,14.229,0,0,0,37.92,20.21Z"/><path fill="url(#IKKyFAHE5PK9K6TO5D1blm)" d="M21.577,2.483c.464,0,.942,0,1.43.007l.969.013c.553.009,1.084.017,1.7.017h0l.15,0c.593-.006,1.214-.013,1.835-.013,2.036,0,4.481.067,5.335.606a.709.709,0,0,1,.122.1.508.508,0,0,1,.065.092l.036.083a.239.239,0,0,1,.024.108.54.54,0,0,1-.031.187L33.19,3.7a4.872,4.872,0,0,1-.935.533l-.011-.014-1.1-1.358.644,1.529L31.75,4.4v.046a2.323,2.323,0,0,0-.62.391l-.077.065a3.524,3.524,0,0,0-.347.412,5.114,5.114,0,0,0-.724,2.355,15.625,15.625,0,0,0-.1,1.89c0,1.843,1.36,2.807,2.943,3.929,1.871,1.332,4.2,2.99,4.851,6.763a13.95,13.95,0,0,1-2.01,9.912,40.905,40.905,0,0,1-3.012,4.272l-.056.072c-2.027,2.63-3.943,5.115-3.966,7.952H20.04c-.023-2.837-1.939-5.322-3.982-7.973a40.8,40.8,0,0,1-2.9-4.1,14.029,14.029,0,0,1-2.147-10.137c.039-.225.078-.44.127-.645.788-3.327,2.968-4.877,4.722-6.124l.176-.125c.319-.226.622-.441.9-.663A3.859,3.859,0,0,0,18.79,9.56a15.758,15.758,0,0,0-.1-1.887A5.211,5.211,0,0,0,17.957,5.3a3.221,3.221,0,0,0-.427-.458,3.437,3.437,0,0,0-.7-.439,5.923,5.923,0,0,1-1.375-.741l0-.006a.473.473,0,0,1-.02-.162.376.376,0,0,1,.137-.283c.637-.638,3.4-.724,6.01-.724m0-.25c-3.068,0-5.51.12-6.187.8a.618.618,0,0,0-.21.46.71.71,0,0,0,.04.26l.02.06.04.03a5.922,5.922,0,0,0,1.45.79,3.156,3.156,0,0,1,.64.4,2.99,2.99,0,0,1,.39.42,4.989,4.989,0,0,1,.68,2.25,15.587,15.587,0,0,1,.1,1.86,3.648,3.648,0,0,1-1.76,2.94c-.33.26-.69.51-1.07.78-1.8,1.28-4.01,2.85-4.82,6.27-.05.21-.09.43-.13.66a14.3,14.3,0,0,0,2.18,10.31,40.944,40.944,0,0,0,2.92,4.12c2.02,2.62,3.93,5.09,3.93,7.87v.2h9.09v-.2c0-2.78,1.91-5.25,3.93-7.87a41.606,41.606,0,0,0,3.07-4.35,14.229,14.229,0,0,0,2.04-10.08c-.67-3.88-3.05-5.57-4.96-6.93-1.58-1.12-2.83-2.01-2.83-3.72a15.587,15.587,0,0,1,.1-1.86,4.9,4.9,0,0,1,.68-2.24,3.191,3.191,0,0,1,.32-.38l.06-.05a2.165,2.165,0,0,1,.67-.4c.02-.01.04-.02.04-.03l.13-.03-.08-.19.13.16a5.3,5.3,0,0,0,1.19-.66l.06-.08a.8.8,0,0,0,.06-.31.493.493,0,0,0-.05-.22l-.03-.07a.653.653,0,0,0-.1-.15,1.118,1.118,0,0,0-.21-.17c-.851-.534-3.143-.625-5.442-.625-.674,0-1.349.008-1.988.015-.95,0-1.71-.02-2.66-.03-.489,0-.968-.007-1.433-.007Z"/><g clip-path="url(#IKKyFAHE5PK9K6TO5D1bln)"><ellipse cx="24.297" cy="7.275" fill="url(#IKKyFAHE5PK9K6TO5D1blo)" rx="11.555" ry="5.105"/></g><path fill="url(#IKKyFAHE5PK9K6TO5D1blp)" d="M35.88,30.29a41.606,41.606,0,0,1-3.07,4.35c-2.02,2.62-3.93,5.13-3.93,7.91H19.79c0-2.78-1.91-5.289-3.93-7.909a40.944,40.944,0,0,1-2.92-4.12,25.049,25.049,0,0,0,11.25,2.61A24.942,24.942,0,0,0,35.88,30.29Z"/><path fill="url(#IKKyFAHE5PK9K6TO5D1blq)" d="M28.579,42.511H20.094c-1.137,0-3.872,2.046-3.872,2.647,0,.463,3.327.438,8.115.437s8.114.026,8.114-.437C32.451,44.557,29.681,42.511,28.579,42.511Z"/><path fill="url(#IKKyFAHE5PK9K6TO5D1blr)" d="M28.579,42.511H20.094c-1.137,0-3.872,2.046-3.872,2.647,0,.463,3.327.438,8.115.437s8.114.026,8.114-.437C32.451,44.557,29.681,42.511,28.579,42.511Z" opacity=".7"/><path fill="url(#IKKyFAHE5PK9K6TO5D1bls)" d="M31.15,4.88a3.073,3.073,0,0,0-.4.46,5.1,5.1,0,0,0-.72,2.34c0,.03-.01.05-.01.08a18.2,18.2,0,0,0-5.49-.77,17.312,17.312,0,0,0-5.87.91,1.5,1.5,0,0,0-.02-.22,5.1,5.1,0,0,0-.72-2.34,2.373,2.373,0,0,0-.42-.46,67.765,67.765,0,0,1,6.84-.32h.03A66.5,66.5,0,0,1,31.15,4.88Z"/><g clip-path="url(#IKKyFAHE5PK9K6TO5D1blt)"><path fill="#472e28" d="M35.394,12.044c0,.009-.033.018-.095.026-.194.027-.678.053-1.4.077s-1.681.044-2.822.062-2.457.032-3.9.042c-1.1.007-2.269.012-3.489.014H22.034c-1.382,0-2.7-.007-3.909-.016l-.443,0c-1.329-.011-2.516-.026-3.5-.045s-1.772-.04-2.3-.065a4.181,4.181,0,0,1-.738-.065l-.008-.007a9.133,9.133,0,0,0,.637-.693l.007.007a.427.427,0,0,0,.1.021,6.948,6.948,0,0,0,.521-.726,5.923,5.923,0,0,0,.41-.786,5.425,5.425,0,0,0,.284-.855l-.056-.009a.142.142,0,0,1-.033-.009,5.4,5.4,0,0,1-.288.855.173.173,0,0,0,.034.009,5.749,5.749,0,0,1-.412.785.125.125,0,0,1-.035-.01h0l-.007-.007a5.512,5.512,0,0,0,.849-2.579l.007.006h0a.146.146,0,0,0,.032.009l.056.008.08.009.1.008.126.008.149.008a6.053,6.053,0,0,1-.139.941,5.749,5.749,0,0,1-.272.857,6.055,6.055,0,0,1-.391.786l-.163-.009-.136-.008a5.881,5.881,0,0,0,.4-.786l.13.008a5.488,5.488,0,0,0,.276-.856l-.127-.008-.1-.008A5.525,5.525,0,0,1,12.9,9.9a5.9,5.9,0,0,1-.407.786,6.9,6.9,0,0,1-.516.726c.119.011.289.022.507.032s.5.02.825.03a7.165,7.165,0,0,0,.455-.73,6.3,6.3,0,0,0,.359-.787,6.155,6.155,0,0,0,.249-.857l-.232-.008-.212-.007a5.725,5.725,0,0,1-.261.857l.218.007a6.154,6.154,0,0,1-.368.788l-.227-.008-.205-.008a6.028,6.028,0,0,0,.384-.787,5.623,5.623,0,0,0,.267-.857,6.054,6.054,0,0,0,.138-.941l.189.008.209.007.228.007.252.007.266.007.283.006.3.006a7.639,7.639,0,0,1-.112.942,6.855,6.855,0,0,1-.218.858,6.747,6.747,0,0,1-.313.789l-.326-.007-.307-.007a6.291,6.291,0,0,0,.338-.788l.295.007a6.379,6.379,0,0,0,.226-.858l-.287-.007L14.624,9.1a6.188,6.188,0,0,1-.591,1.645,7.049,7.049,0,0,1-.442.73c.32.008.676.016,1.066.023.442.009.927.016,1.449.023.119-.236.229-.479.327-.732A7.586,7.586,0,0,0,16.69,10a7.668,7.668,0,0,0,.179-.859l-.367,0-.353-.005a7.028,7.028,0,0,1-.2.858l.363,0a7.338,7.338,0,0,1-.273.79l-.376-.006-.368-.006a6.88,6.88,0,0,0,.3-.789,7.219,7.219,0,0,0,.209-.858,7.878,7.878,0,0,0,.107-.942l.339.005L16.6,8.2l.362,0,.376,0,.389,0,.41,0,.414,0c-.011.33-.035.643-.069.943s-.079.585-.133.859-.119.537-.193.79l-.448,0-.445,0c.086-.253.162-.516.226-.79l.428,0c.059-.274.108-.559.145-.859l-.415,0-.395,0a8.631,8.631,0,0,1-.168.858,8.007,8.007,0,0,1-.242.79c-.093.253-.2.5-.308.732.457.006.939.01,1.442.015l.42,0,1.532.009c.056-.237.107-.48.152-.734s.086-.516.12-.79.062-.56.083-.86l-.472,0-.454,0c-.028.3-.064.586-.109.86l.467,0c-.04.275-.086.538-.139.791l-.485,0-.473,0q.1-.38.175-.79c.05-.275.091-.56.122-.86s.052-.613.062-.942l.436,0,.447,0,.465,0h.466l.474,0h.971q0,.493-.014.942c-.007.3-.017.586-.029.86s-.025.537-.041.791H21.1c.031-.253.059-.516.082-.791h.5q.027-.411.043-.859h-.489l-.482,0c-.017.3-.041.585-.069.86s-.063.537-.1.79-.081.5-.128.734q.8,0,1.642,0h2.293c-.019-.237-.036-.481-.052-.734s-.03-.516-.041-.791-.022-.56-.029-.859H23.243c0,.3,0,.586,0,.86h.528c.006.275.013.538.021.791H22.7c.008-.253.015-.516.021-.791s.01-.56.014-.859.006-.614.007-.943h1.512l.5,0h.5l.479,0,.47,0c.007.329.022.642.044.942s.05.585.084.859.075.538.121.791l-.509,0-.52,0q-.046-.38-.082-.79l.5,0c-.029-.274-.052-.56-.071-.859l-.486,0-.5,0c.012.3.026.585.044.86s.038.537.061.79.05.5.078.734l2.017-.01,1.655-.014q-.135-.354-.246-.733c-.074-.253-.139-.515-.194-.789s-.1-.56-.136-.859l-.433,0-.454,0q.042.448.11.859l.467,0q.075.411.177.79l-.486,0-.487,0c-.054-.254-.1-.516-.14-.791s-.073-.559-.1-.859-.042-.613-.05-.942l.449,0,.448,0,.427,0,.416,0,.4-.005.39-.005.384,0a8.865,8.865,0,0,0,.093.942,8.12,8.12,0,0,0,.181.858,7.836,7.836,0,0,0,.259.789l-.415.006-.423.006q-.13-.38-.228-.79L29.447,10a8.646,8.646,0,0,1-.17-.859l-.4.005-.409,0q.057.449.148.859t.211.79c.08.252.17.5.268.732.554-.006,1.078-.013,1.568-.021.47-.007.908-.015,1.309-.024a7.25,7.25,0,0,1-.4-.73,6.5,6.5,0,0,1-.315-.788,6.812,6.812,0,0,1-.22-.858l-.32.007-.336.006a7.173,7.173,0,0,0,.2.858l.345-.006a6.984,6.984,0,0,0,.3.788l-.359.007-.376.006a7.186,7.186,0,0,1-.275-.789,7.589,7.589,0,0,1-.191-.858,8.587,8.587,0,0,1-.051-.943l.3-.005.331-.006.316-.006.305-.007.282-.007.264-.007.246-.007a6.587,6.587,0,0,0,.13.941,5.95,5.95,0,0,0,.251.857,6.162,6.162,0,0,0,.36.787l-.267.008-.287.007a6.5,6.5,0,0,1-.339-.787l.276-.007a6.285,6.285,0,0,1-.244-.857l-.268.007-.286.007a6.478,6.478,0,0,0,.228.857,6.553,6.553,0,0,0,.327.788,7.5,7.5,0,0,0,.416.73c.379-.009.719-.018,1.018-.028s.573-.021.786-.032a6.938,6.938,0,0,1-.5-.727,5.986,5.986,0,0,1-.392-.785,5.66,5.66,0,0,1-.273-.856l-.17.008-.191.008a5.873,5.873,0,0,0,.263.856l.2-.008a6.026,6.026,0,0,0,.386.786l-.2.008-.23.009a6.21,6.21,0,0,1-.369-.787,5.985,5.985,0,0,1-.257-.856,6.323,6.323,0,0,1-.133-.942l.212-.007.188-.008.167-.008.147-.008.125-.009.1-.008.08-.009a5.816,5.816,0,0,0,.148.941,5.465,5.465,0,0,0,.286.855,5.905,5.905,0,0,0,.411.784l-.086.009-.113.01a5.936,5.936,0,0,1-.4-.785l.109-.009a5.542,5.542,0,0,1-.284-.856l-.106.009-.127.008a5.527,5.527,0,0,0,.278.856,5.971,5.971,0,0,0,.4.786,7.1,7.1,0,0,0,.506.726c.17-.01.3-.021.373-.031.059-.009.089-.017.089-.026l.639.692"/><path fill="#472e28" d="M33.524,8.991s0,.005-.009.007a5.438,5.438,0,0,0,.289.855l.009-.008a5.743,5.743,0,0,0,.415.783s0,.006-.009.008a.125.125,0,0,1-.035.01,5.808,5.808,0,0,1-.414-.784,5.577,5.577,0,0,1-.288-.855,5.8,5.8,0,0,1-.149-.94.18.18,0,0,0,.033-.009c.006,0,.008,0,.008-.007a5.7,5.7,0,0,0,.15.94"/></g><g clip-path="url(#IKKyFAHE5PK9K6TO5D1blt)"><path fill="#472e28" d="M24.34,16.808H36.7a8.768,8.768,0,0,0-.872-1.139H12.85a8.763,8.763,0,0,0-.871,1.139H24.34Z"/><path fill="#472e28" d="M37.734,19.771H37.9a9.445,9.445,0,0,0-.526-1.678H11.3a9.445,9.445,0,0,0-.526,1.678h.653c-.033.159-.063.322-.091.489a15.111,15.111,0,0,0-.105,4.223q.086.717.235,1.4h1.342c-.089-.455-.16-.921-.21-1.4h-.92a15.574,15.574,0,0,1,.1-4.223q.039-.251.087-.489h3.242c-.023.159-.045.322-.064.489a20.928,20.928,0,0,0-.075,4.223c.04.478.1.944.167,1.4H17.7q-.077-.683-.121-1.4H15.919a23.351,23.351,0,0,1,.068-4.223c.017-.167.037-.33.058-.489H21.16c-.008.159-.015.322-.022.489-.06,1.508-.064,2.909-.026,4.223q.021.717.058,1.4H24.5q0-.683,0-1.4h-2.11c-.023-1.314-.021-2.715.016-4.223,0-.167.008-.33.013-.489H28.3l.028.489c.077,2.017.067,2.484.032,4.223q-.027.717-.072,1.4h2.937q.081-.683.126-1.4H29.558a37.454,37.454,0,0,0-.042-4.223l-.036-.489h4.652c.025.159.048.322.068.489a19.836,19.836,0,0,1,.08,4.223q-.064.717-.178,1.4h1.913c.09-.455.162-.921.213-1.4H35.1a18.216,18.216,0,0,0-.086-4.223l-.075-.489h2.8Z"/><path fill="#472e28" d="M35.638,29.757H12.262q.308.6.649,1.179H35.769q.341-.578.649-1.179h-.78Z"/><path fill="#472e28" d="M11.333,27.342h-.1c.147.435.312.861.492,1.277H36.955q.272-.624.493-1.277h-.774a14.958,14.958,0,0,0,.72-4.336,15.457,15.457,0,0,0-.054-1.552H35.873c.041.531.056,1.048.049,1.552h.987a15.557,15.557,0,0,1-.693,4.336H32.942a20.946,20.946,0,0,0,.5-4.336q.009-.756-.038-1.552h-2.68q.033.8.026,1.552h1.706a23.43,23.43,0,0,1-.447,4.336H26.976c.092-1.343.149-2.779.154-4.336q0-.756-.011-1.552H23.7q0,.8,0,1.552H25.83c0,1.557-.034,2.993-.083,4.336H20.1a41.893,41.893,0,0,1-.248-4.336q0-.756.019-1.552H16.918q-.039.8-.031,1.552h1.777a33.16,33.16,0,0,0,.313,4.336H14.588a18.68,18.68,0,0,1-.569-4.336q-.009-.756.044-1.552H12.191c-.043.531-.059,1.048-.051,1.552h1.081a17.352,17.352,0,0,0,.613,4.336h-2.5Z"/></g><g data-name="Dark"><path fill="url(#IKKyFAHE5PK9K6TO5D1blc)" d="M37.92,20.21c-.67-3.88-3.05-5.57-4.96-6.93-1.58-1.12-2.83-2.01-2.83-3.72a15.587,15.587,0,0,1,.1-1.86,4.9,4.9,0,0,1,.68-2.24,3.191,3.191,0,0,1,.32-.38l.06-.05a2.165,2.165,0,0,1,.67-.4c.02-.01.04-.02.04-.03l.13-.03-.08-.19.13.16a5.3,5.3,0,0,0,1.19-.66l.06-.08a.8.8,0,0,0,.06-.31.493.493,0,0,0-.05-.22l-.03-.07a.653.653,0,0,0-.1-.15,1.118,1.118,0,0,0-.21-.17c-1.1-.69-4.61-.64-7.43-.61-.95,0-1.71-.02-2.66-.03-3.72-.03-6.84.01-7.62.79a.618.618,0,0,0-.21.46.71.71,0,0,0,.04.26l.02.06.04.03a5.922,5.922,0,0,0,1.45.79,3.156,3.156,0,0,1,.64.4,2.99,2.99,0,0,1,.39.42,4.989,4.989,0,0,1,.68,2.25,15.587,15.587,0,0,1,.1,1.86,3.648,3.648,0,0,1-1.76,2.94c-.33.26-.69.51-1.07.78-1.8,1.28-4.01,2.85-4.82,6.27-.05.21-.09.43-.13.66a14.3,14.3,0,0,0,2.18,10.31,40.944,40.944,0,0,0,2.92,4.12c2.02,2.62,3.93,5.09,3.93,7.87v.2h9.09v-.2c0-2.78,1.91-5.25,3.93-7.87a41.606,41.606,0,0,0,3.07-4.35A14.229,14.229,0,0,0,37.92,20.21Z"/><path fill="url(#IKKyFAHE5PK9K6TO5D1blu)" d="M37.92,20.21c-.67-3.88-3.05-5.57-4.96-6.93-1.58-1.12-2.83-2.01-2.83-3.72a15.587,15.587,0,0,1,.1-1.86,4.9,4.9,0,0,1,.68-2.24,3.191,3.191,0,0,1,.32-.38l.06-.05a2.165,2.165,0,0,1,.67-.4c.02-.01.04-.02.04-.03l.13-.03-.08-.19.13.16a5.3,5.3,0,0,0,1.19-.66l.06-.08a.8.8,0,0,0,.06-.31.493.493,0,0,0-.05-.22l-.03-.07a.653.653,0,0,0-.1-.15,1.118,1.118,0,0,0-.21-.17c-1.1-.69-4.61-.64-7.43-.61-.95,0-1.71-.02-2.66-.03-3.72-.03-6.84.01-7.62.79a.618.618,0,0,0-.21.46.71.71,0,0,0,.04.26l.02.06.04.03a5.922,5.922,0,0,0,1.45.79,3.156,3.156,0,0,1,.64.4,2.99,2.99,0,0,1,.39.42,4.989,4.989,0,0,1,.68,2.25,15.587,15.587,0,0,1,.1,1.86,3.648,3.648,0,0,1-1.76,2.94c-.33.26-.69.51-1.07.78-1.8,1.28-4.01,2.85-4.82,6.27-.05.21-.09.43-.13.66a14.3,14.3,0,0,0,2.18,10.31,40.944,40.944,0,0,0,2.92,4.12c2.02,2.62,3.93,5.09,3.93,7.87v.2h9.09v-.2c0-2.78,1.91-5.25,3.93-7.87a41.606,41.606,0,0,0,3.07-4.35A14.229,14.229,0,0,0,37.92,20.21Z"/><path fill="url(#IKKyFAHE5PK9K6TO5D1blv)" d="M37.92,20.21c-.67-3.88-3.05-5.57-4.96-6.93-1.58-1.12-2.83-2.01-2.83-3.72a15.587,15.587,0,0,1,.1-1.86,4.9,4.9,0,0,1,.68-2.24,3.191,3.191,0,0,1,.32-.38l.06-.05a2.165,2.165,0,0,1,.67-.4c.02-.01.04-.02.04-.03l.13-.03-.08-.19.13.16a5.3,5.3,0,0,0,1.19-.66l.06-.08a.8.8,0,0,0,.06-.31.493.493,0,0,0-.05-.22l-.03-.07a.653.653,0,0,0-.1-.15,1.118,1.118,0,0,0-.21-.17c-1.1-.69-4.61-.64-7.43-.61-.95,0-1.71-.02-2.66-.03-3.72-.03-6.84.01-7.62.79a.618.618,0,0,0-.21.46.71.71,0,0,0,.04.26l.02.06.04.03a5.922,5.922,0,0,0,1.45.79,3.156,3.156,0,0,1,.64.4,2.99,2.99,0,0,1,.39.42,4.989,4.989,0,0,1,.68,2.25,15.587,15.587,0,0,1,.1,1.86,3.648,3.648,0,0,1-1.76,2.94c-.33.26-.69.51-1.07.78-1.8,1.28-4.01,2.85-4.82,6.27-.05.21-.09.43-.13.66a14.3,14.3,0,0,0,2.18,10.31,40.944,40.944,0,0,0,2.92,4.12c2.02,2.62,3.93,5.09,3.93,7.87v.2h9.09v-.2c0-2.78,1.91-5.25,3.93-7.87a41.606,41.606,0,0,0,3.07-4.35A14.229,14.229,0,0,0,37.92,20.21Z"/></g><g data-name="Light"><path fill="url(#IKKyFAHE5PK9K6TO5D1bld)" d="M37.92,20.21c-.67-3.88-3.05-5.57-4.96-6.93-1.58-1.12-2.83-2.01-2.83-3.72a15.587,15.587,0,0,1,.1-1.86,4.9,4.9,0,0,1,.68-2.24,3.191,3.191,0,0,1,.32-.38l.06-.05a2.165,2.165,0,0,1,.67-.4c.02-.01.04-.02.04-.03l.13-.03-.08-.19.13.16a5.3,5.3,0,0,0,1.19-.66l.06-.08a.8.8,0,0,0,.06-.31.493.493,0,0,0-.05-.22l-.03-.07a.653.653,0,0,0-.1-.15,1.118,1.118,0,0,0-.21-.17c-1.1-.69-4.61-.64-7.43-.61-.95,0-1.71-.02-2.66-.03-3.72-.03-6.84.01-7.62.79a.618.618,0,0,0-.21.46.71.71,0,0,0,.04.26l.02.06.04.03a5.922,5.922,0,0,0,1.45.79,3.156,3.156,0,0,1,.64.4,2.99,2.99,0,0,1,.39.42,4.989,4.989,0,0,1,.68,2.25,15.587,15.587,0,0,1,.1,1.86,3.648,3.648,0,0,1-1.76,2.94c-.33.26-.69.51-1.07.78-1.8,1.28-4.01,2.85-4.82,6.27-.05.21-.09.43-.13.66a14.3,14.3,0,0,0,2.18,10.31,40.944,40.944,0,0,0,2.92,4.12c2.02,2.62,3.93,5.09,3.93,7.87v.2h9.09v-.2c0-2.78,1.91-5.25,3.93-7.87a41.606,41.606,0,0,0,3.07-4.35A14.229,14.229,0,0,0,37.92,20.21Z" opacity=".25"/><path fill="url(#IKKyFAHE5PK9K6TO5D1blw)" d="M37.92,20.21c-.67-3.88-3.05-5.57-4.96-6.93-1.58-1.12-2.83-2.01-2.83-3.72a15.587,15.587,0,0,1,.1-1.86,4.9,4.9,0,0,1,.68-2.24,3.191,3.191,0,0,1,.32-.38l.06-.05a2.165,2.165,0,0,1,.67-.4c.02-.01.04-.02.04-.03l.13-.03-.08-.19.13.16a5.3,5.3,0,0,0,1.19-.66l.06-.08a.8.8,0,0,0,.06-.31.493.493,0,0,0-.05-.22l-.03-.07a.653.653,0,0,0-.1-.15,1.118,1.118,0,0,0-.21-.17c-1.1-.69-4.61-.64-7.43-.61-.95,0-1.71-.02-2.66-.03-3.72-.03-6.84.01-7.62.79a.618.618,0,0,0-.21.46.71.71,0,0,0,.04.26l.02.06.04.03a5.922,5.922,0,0,0,1.45.79,3.156,3.156,0,0,1,.64.4,2.99,2.99,0,0,1,.39.42,4.989,4.989,0,0,1,.68,2.25,15.587,15.587,0,0,1,.1,1.86,3.648,3.648,0,0,1-1.76,2.94c-.33.26-.69.51-1.07.78-1.8,1.28-4.01,2.85-4.82,6.27-.05.21-.09.43-.13.66a14.3,14.3,0,0,0,2.18,10.31,40.944,40.944,0,0,0,2.92,4.12c2.02,2.62,3.93,5.09,3.93,7.87v.2h9.09v-.2c0-2.78,1.91-5.25,3.93-7.87a41.606,41.606,0,0,0,3.07-4.35A14.229,14.229,0,0,0,37.92,20.21Z" opacity=".3"/><path fill="url(#IKKyFAHE5PK9K6TO5D1blf)" d="M37.92,20.21c-.67-3.88-3.05-5.57-4.96-6.93-1.58-1.12-2.83-2.01-2.83-3.72a15.587,15.587,0,0,1,.1-1.86,4.9,4.9,0,0,1,.68-2.24,3.191,3.191,0,0,1,.32-.38l.06-.05a2.165,2.165,0,0,1,.67-.4c.02-.01.04-.02.04-.03l.13-.03-.08-.19.13.16a5.3,5.3,0,0,0,1.19-.66l.06-.08a.8.8,0,0,0,.06-.31.493.493,0,0,0-.05-.22l-.03-.07a.653.653,0,0,0-.1-.15,1.118,1.118,0,0,0-.21-.17c-1.1-.69-4.61-.64-7.43-.61-.95,0-1.71-.02-2.66-.03-3.72-.03-6.84.01-7.62.79a.618.618,0,0,0-.21.46.71.71,0,0,0,.04.26l.02.06.04.03a5.922,5.922,0,0,0,1.45.79,3.156,3.156,0,0,1,.64.4,2.99,2.99,0,0,1,.39.42,4.989,4.989,0,0,1,.68,2.25,15.587,15.587,0,0,1,.1,1.86,3.648,3.648,0,0,1-1.76,2.94c-.33.26-.69.51-1.07.78-1.8,1.28-4.01,2.85-4.82,6.27-.05.21-.09.43-.13.66a14.3,14.3,0,0,0,2.18,10.31,40.944,40.944,0,0,0,2.92,4.12c2.02,2.62,3.93,5.09,3.93,7.87v.2h9.09v-.2c0-2.78,1.91-5.25,3.93-7.87a41.606,41.606,0,0,0,3.07-4.35A14.229,14.229,0,0,0,37.92,20.21Z" opacity=".3"/><path fill="url(#IKKyFAHE5PK9K6TO5D1ble)" d="M37.92,20.21c-.67-3.88-3.05-5.57-4.96-6.93-1.58-1.12-2.83-2.01-2.83-3.72a15.587,15.587,0,0,1,.1-1.86,4.9,4.9,0,0,1,.68-2.24,3.191,3.191,0,0,1,.32-.38l.06-.05a2.165,2.165,0,0,1,.67-.4c.02-.01.04-.02.04-.03l.13-.03-.08-.19.13.16a5.3,5.3,0,0,0,1.19-.66l.06-.08a.8.8,0,0,0,.06-.31.493.493,0,0,0-.05-.22l-.03-.07a.653.653,0,0,0-.1-.15,1.118,1.118,0,0,0-.21-.17c-1.1-.69-4.61-.64-7.43-.61-.95,0-1.71-.02-2.66-.03-3.72-.03-6.84.01-7.62.79a.618.618,0,0,0-.21.46.71.71,0,0,0,.04.26l.02.06.04.03a5.922,5.922,0,0,0,1.45.79,3.156,3.156,0,0,1,.64.4,2.99,2.99,0,0,1,.39.42,4.989,4.989,0,0,1,.68,2.25,15.587,15.587,0,0,1,.1,1.86,3.648,3.648,0,0,1-1.76,2.94c-.33.26-.69.51-1.07.78-1.8,1.28-4.01,2.85-4.82,6.27-.05.21-.09.43-.13.66a14.3,14.3,0,0,0,2.18,10.31,40.944,40.944,0,0,0,2.92,4.12c2.02,2.62,3.93,5.09,3.93,7.87v.2h9.09v-.2c0-2.78,1.91-5.25,3.93-7.87a41.606,41.606,0,0,0,3.07-4.35A14.229,14.229,0,0,0,37.92,20.21Z" opacity=".3"/><path fill="url(#IKKyFAHE5PK9K6TO5D1blx)" d="M37.92,20.21c-.67-3.88-3.05-5.57-4.96-6.93-1.58-1.12-2.83-2.01-2.83-3.72a15.587,15.587,0,0,1,.1-1.86,4.9,4.9,0,0,1,.68-2.24,3.191,3.191,0,0,1,.32-.38l.06-.05a2.165,2.165,0,0,1,.67-.4c.02-.01.04-.02.04-.03l.13-.03-.08-.19.13.16a5.3,5.3,0,0,0,1.19-.66l.06-.08a.8.8,0,0,0,.06-.31.493.493,0,0,0-.05-.22l-.03-.07a.653.653,0,0,0-.1-.15,1.118,1.118,0,0,0-.21-.17c-1.1-.69-4.61-.64-7.43-.61-.95,0-1.71-.02-2.66-.03-3.72-.03-6.84.01-7.62.79a.618.618,0,0,0-.21.46.71.71,0,0,0,.04.26l.02.06.04.03a5.922,5.922,0,0,0,1.45.79,3.156,3.156,0,0,1,.64.4,2.99,2.99,0,0,1,.39.42,4.989,4.989,0,0,1,.68,2.25,15.587,15.587,0,0,1,.1,1.86,3.648,3.648,0,0,1-1.76,2.94c-.33.26-.69.51-1.07.78-1.8,1.28-4.01,2.85-4.82,6.27-.05.21-.09.43-.13.66a14.3,14.3,0,0,0,2.18,10.31,40.944,40.944,0,0,0,2.92,4.12c2.02,2.62,3.93,5.09,3.93,7.87v.2h9.09v-.2c0-2.78,1.91-5.25,3.93-7.87a41.606,41.606,0,0,0,3.07-4.35A14.229,14.229,0,0,0,37.92,20.21Z" opacity=".3"/><path fill="url(#IKKyFAHE5PK9K6TO5D1bly)" d="M37.92,20.21c-.67-3.88-3.05-5.57-4.96-6.93-1.58-1.12-2.83-2.01-2.83-3.72a15.587,15.587,0,0,1,.1-1.86,4.9,4.9,0,0,1,.68-2.24,3.191,3.191,0,0,1,.32-.38l.06-.05a2.165,2.165,0,0,1,.67-.4c.02-.01.04-.02.04-.03l.13-.03-.08-.19.13.16a5.3,5.3,0,0,0,1.19-.66l.06-.08a.8.8,0,0,0,.06-.31.493.493,0,0,0-.05-.22l-.03-.07a.653.653,0,0,0-.1-.15,1.118,1.118,0,0,0-.21-.17c-1.1-.69-4.61-.64-7.43-.61-.95,0-1.71-.02-2.66-.03-3.72-.03-6.84.01-7.62.79a.618.618,0,0,0-.21.46.71.71,0,0,0,.04.26l.02.06.04.03a5.922,5.922,0,0,0,1.45.79,3.156,3.156,0,0,1,.64.4,2.99,2.99,0,0,1,.39.42,4.989,4.989,0,0,1,.68,2.25,15.587,15.587,0,0,1,.1,1.86,3.648,3.648,0,0,1-1.76,2.94c-.33.26-.69.51-1.07.78-1.8,1.28-4.01,2.85-4.82,6.27-.05.21-.09.43-.13.66a14.3,14.3,0,0,0,2.18,10.31,40.944,40.944,0,0,0,2.92,4.12c2.02,2.62,3.93,5.09,3.93,7.87v.2h9.09v-.2c0-2.78,1.91-5.25,3.93-7.87a41.606,41.606,0,0,0,3.07-4.35A14.229,14.229,0,0,0,37.92,20.21Z" opacity=".2"/><path fill="url(#IKKyFAHE5PK9K6TO5D1blg)" d="M37.92,20.21c-.67-3.88-3.05-5.57-4.96-6.93-1.58-1.12-2.83-2.01-2.83-3.72a15.587,15.587,0,0,1,.1-1.86,4.9,4.9,0,0,1,.68-2.24,3.191,3.191,0,0,1,.32-.38l.06-.05a2.165,2.165,0,0,1,.67-.4c.02-.01.04-.02.04-.03l.13-.03-.08-.19.13.16a5.3,5.3,0,0,0,1.19-.66l.06-.08a.8.8,0,0,0,.06-.31.493.493,0,0,0-.05-.22l-.03-.07a.653.653,0,0,0-.1-.15,1.118,1.118,0,0,0-.21-.17c-1.1-.69-4.61-.64-7.43-.61-.95,0-1.71-.02-2.66-.03-3.72-.03-6.84.01-7.62.79a.618.618,0,0,0-.21.46.71.71,0,0,0,.04.26l.02.06.04.03a5.922,5.922,0,0,0,1.45.79,3.156,3.156,0,0,1,.64.4,2.99,2.99,0,0,1,.39.42,4.989,4.989,0,0,1,.68,2.25,15.587,15.587,0,0,1,.1,1.86,3.648,3.648,0,0,1-1.76,2.94c-.33.26-.69.51-1.07.78-1.8,1.28-4.01,2.85-4.82,6.27-.05.21-.09.43-.13.66a14.3,14.3,0,0,0,2.18,10.31,40.944,40.944,0,0,0,2.92,4.12c2.02,2.62,3.93,5.09,3.93,7.87v.2h9.09v-.2c0-2.78,1.91-5.25,3.93-7.87a41.606,41.606,0,0,0,3.07-4.35A14.229,14.229,0,0,0,37.92,20.21Z" opacity=".1"/><path fill="url(#IKKyFAHE5PK9K6TO5D1blz)" d="M37.92,20.21c-.67-3.88-3.05-5.57-4.96-6.93-1.58-1.12-2.83-2.01-2.83-3.72a15.587,15.587,0,0,1,.1-1.86,4.9,4.9,0,0,1,.68-2.24,3.191,3.191,0,0,1,.32-.38l.06-.05a2.165,2.165,0,0,1,.67-.4c.02-.01.04-.02.04-.03l.13-.03-.08-.19.13.16a5.3,5.3,0,0,0,1.19-.66l.06-.08a.8.8,0,0,0,.06-.31.493.493,0,0,0-.05-.22l-.03-.07a.653.653,0,0,0-.1-.15,1.118,1.118,0,0,0-.21-.17c-1.1-.69-4.61-.64-7.43-.61-.95,0-1.71-.02-2.66-.03-3.72-.03-6.84.01-7.62.79a.618.618,0,0,0-.21.46.71.71,0,0,0,.04.26l.02.06.04.03a5.922,5.922,0,0,0,1.45.79,3.156,3.156,0,0,1,.64.4,2.99,2.99,0,0,1,.39.42,4.989,4.989,0,0,1,.68,2.25,15.587,15.587,0,0,1,.1,1.86,3.648,3.648,0,0,1-1.76,2.94c-.33.26-.69.51-1.07.78-1.8,1.28-4.01,2.85-4.82,6.27-.05.21-.09.43-.13.66a14.3,14.3,0,0,0,2.18,10.31,40.944,40.944,0,0,0,2.92,4.12c2.02,2.62,3.93,5.09,3.93,7.87v.2h9.09v-.2c0-2.78,1.91-5.25,3.93-7.87a41.606,41.606,0,0,0,3.07-4.35A14.229,14.229,0,0,0,37.92,20.21Z" opacity=".1"/></g><path fill="url(#IKKyFAHE5PK9K6TO5D1blA)" d="M17.434,5.087l-.065-.056a2.571,2.571,0,0,0-.641-.4,6.367,6.367,0,0,1-1.445-.788,1.18,1.18,0,0,1-.543-.915c0-.225,0-.42,4.012-.707,2.046-.147,4.4-.23,5.588-.23,1.222,0,3.572.083,5.618.23,4.012.287,4.012.482,4.012.707a1.185,1.185,0,0,1-.546.918.961.961,0,0,1-.084.05,5.235,5.235,0,0,1-1.163.647l-.051.02s-.145.053-.165.063a2.108,2.108,0,0,0-.666.4l-.057.053H31.16a67.44,67.44,0,0,0-6.79-.32,68.129,68.129,0,0,0-6.85.319Z"/></g></svg>