<svg xmlns="http://www.w3.org/2000/svg" viewBox="0 0 48 48"><linearGradient id="zHJalVDQSl_KPAO6o7Kdfa" x1="20.107" x2="7.657" y1="21.195" y2="-9.039" gradientUnits="userSpaceOnUse"><stop offset="0" stop-color="#00349c"/><stop offset="1" stop-color="#00b1f2"/></linearGradient><path fill="url(#zHJalVDQSl_KPAO6o7Kdfa)" d="M15.571,45c0.223,0,0.405-0.172,0.406-0.396C16,38.022,16,20.313,16,20.313	c0-4.283,3.23-8.041,7.506-8.298C28.148,11.736,32,15.418,32,20v24.594C32,44.818,32.182,45,32.406,45h8.189	C40.818,45,41,44.818,41,44.594V20c0-9.894-8.453-17.815-18.531-16.933C13.938,3.813,7,11.835,7,20.398l0,24.197	C7,44.818,7.182,45,7.406,45H15.571z"/><linearGradient id="zHJalVDQSl_KPAO6o7Kdfb" x1="17.279" x2="30.694" y1=".641" y2="20.999" gradientUnits="userSpaceOnUse"><stop offset="0" stop-color="#ff7448"/><stop offset=".91" stop-color="#e51e25"/></linearGradient><path fill="url(#zHJalVDQSl_KPAO6o7Kdfb)" d="M24,3.015v8.996c4.417,0.001,8,3.572,8,7.989v24.594C32,44.818,32.182,45,32.406,45h8.189	C40.818,45,41,44.818,41,44.594V20C41,10.612,33.387,3.017,24,3.015z"/><linearGradient id="zHJalVDQSl_KPAO6o7Kdfc" x1="6.149" x2="13.297" y1="3.955" y2="53.232" gradientUnits="userSpaceOnUse"><stop offset="0" stop-color="#a7adb7"/><stop offset=".441" stop-color="#d5d8de"/><stop offset="1" stop-color="#87909b"/></linearGradient><path fill="url(#zHJalVDQSl_KPAO6o7Kdfc)" d="M7,37v7.594C7,44.818,7.182,45,7.406,45h8.166c0.223,0,0.405-0.172,0.406-0.396 c0.006-1.823,0.011-4.577,0.014-7.604H7z"/><linearGradient id="zHJalVDQSl_KPAO6o7Kdfd" x1="30.637" x2="37.786" y1=".403" y2="49.679" gradientUnits="userSpaceOnUse"><stop offset="0" stop-color="#a7adb7"/><stop offset=".441" stop-color="#d5d8de"/><stop offset="1" stop-color="#87909b"/></linearGradient><path fill="url(#zHJalVDQSl_KPAO6o7Kdfd)" d="M32,37v7.594C32,44.818,32.182,45,32.406,45h8.189C40.818,45,41,44.818,41,44.594V37H32z"/><linearGradient id="zHJalVDQSl_KPAO6o7Kdfe" x1="7" x2="23.957" y1="24.001" y2="24.001" gradientUnits="userSpaceOnUse"><stop offset="0" stop-color="#fff" stop-opacity=".4"/><stop offset="1" stop-color="#fff" stop-opacity="0"/></linearGradient><path fill="url(#zHJalVDQSl_KPAO6o7Kdfe)" d="M23.957,3.002c-0.492,0.001-0.988,0.021-1.489,0.065C13.939,3.813,7,11.835,7,20.398v24.197	C7,44.818,7.182,45,7.406,45h0.084V25.149c0-0.071,0.01-0.14,0.011-0.21v-4.541c0-8.412,6.875-16.12,15.012-16.832	c0.481-0.042,0.967-0.062,1.445-0.063V3.002z"/><linearGradient id="zHJalVDQSl_KPAO6o7Kdff" x1="25.35" x2="18.088" y1="25.982" y2="21.8" gradientUnits="userSpaceOnUse"><stop offset="0" stop-color="#fff" stop-opacity=".4"/><stop offset="1" stop-color="#fff" stop-opacity="0"/></linearGradient><path fill="url(#zHJalVDQSl_KPAO6o7Kdff)" d="M32.511,44.5H32.5V20c0-2.271-0.884-4.405-2.49-6.01c-1.605-1.605-3.74-2.49-6.01-2.49	c-0.014,0-0.029,0.001-0.043,0.001v0.5C23.972,12.001,23.986,12,24,12c4.418,0,8,3.582,8,8v24.594C32,44.818,32.182,45,32.406,45	h0.105V44.5z"/><linearGradient id="zHJalVDQSl_KPAO6o7Kdfg" x1="28.01" x2="16.42" y1="20.321" y2="8.338" gradientUnits="userSpaceOnUse"><stop offset="0" stop-color="#363b3d" stop-opacity=".4"/><stop offset="1" stop-color="#363a3c" stop-opacity="0"/></linearGradient><path fill="url(#zHJalVDQSl_KPAO6o7Kdfg)" d="M25.553,3.067c-0.501-0.044-0.997-0.064-1.489-0.065v0.5c0.478,0.001,0.964,0.021,1.445,0.063	c8.137,0.712,15.012,8.42,15.012,16.832v4.541c0.001,0.071,0.011,0.139,0.011,0.21v19.346H40.5V44.5h-8v-0.005H32v0.1	C32,44.818,32.182,45,32.406,45h8.126h0.063h0.021c0.224,0,0.406-0.182,0.406-0.406V20.398C41.021,11.835,34.083,3.813,25.553,3.067	z"/><linearGradient id="zHJalVDQSl_KPAO6o7Kdfh" x1="16.761" x2="4.352" y1="28.797" y2="22.488" gradientUnits="userSpaceOnUse"><stop offset="0" stop-color="#363b3d" stop-opacity=".4"/><stop offset="1" stop-color="#363a3c" stop-opacity="0"/></linearGradient><path fill="url(#zHJalVDQSl_KPAO6o7Kdfh)" d="M24.021,11.5c-2.27,0-4.405,0.884-6.01,2.49c-1.605,1.605-2.49,3.74-2.49,6.01v24.495h-0.044	c0,0.002,0,0.004,0,0.005H7.5v-0.005H7v0.1C7,44.818,7.182,45,7.406,45h8.105h0.061h0.044c0.224,0,0.406-0.182,0.406-0.406V20	c0-4.418,3.582-8,8-8c0.014,0,0.029,0.001,0.043,0.001v-0.5C24.05,11.501,24.035,11.5,24.021,11.5z"/></svg>