<svg xmlns="http://www.w3.org/2000/svg" viewBox="0 0 48 48"><radialGradient id="boD9ufWHuKaXT_r2_kTH2a" cx="44.973" cy="23" r="6.904" gradientUnits="userSpaceOnUse"><stop offset="0" stop-color="gray"/><stop offset=".606" stop-color="#292929"/></radialGradient><circle cx="41" cy="23" r="4" fill="url(#boD9ufWHuKaXT_r2_kTH2a)"/><linearGradient id="boD9ufWHuKaXT_r2_kTH2b" x1="10" x2="10" y1="15.877" y2="30.145" gradientUnits="userSpaceOnUse"><stop offset="0" stop-color="#363636"/><stop offset=".357" stop-color="#949494"/><stop offset=".714" stop-color="#363636"/><stop offset=".836" stop-color="#363636"/><stop offset="1" stop-color="#6b6b6b"/></linearGradient><path fill="url(#boD9ufWHuKaXT_r2_kTH2b)" d="M16,16H6c-1.105,0-2,0.895-2,2v10c0,1.105,0.895,2,2,2h10V16z"/><path fill="#46accf" d="M40,26H14v3.72c0,0.78,0.454,1.489,1.162,1.816C15.162,31.536,37,37,40,43V26z"/><path fill="#46add0" d="M40,26.421c-0.021-0.134-26-0.324-26-0.324v3.624c0,0.78,0.454,1.489,1.162,1.816 C15.162,31.536,37,37,40,43V26.421z"/><path fill="#47aed1" d="M40,26.842c-0.042-0.269-26-0.649-26-0.649v3.527c0,0.78,0.454,1.489,1.162,1.816 C15.162,31.536,37,37,40,43V26.842z"/><path fill="#47aed2" d="M40,27.264c-0.063-0.403-26-0.973-26-0.973v3.43c0,0.78,0.454,1.489,1.162,1.816 C15.162,31.536,37,37,40,43V27.264z"/><path fill="#48afd3" d="M40,27.685c-0.085-0.537-26-1.298-26-1.298v3.333c0,0.78,0.454,1.489,1.162,1.816 C15.162,31.536,37,37,40,43V27.685z"/><path fill="#48b0d4" d="M40,28.106c-0.106-0.672-26-1.622-26-1.622v3.237c0,0.78,0.454,1.489,1.162,1.816 C15.162,31.536,37,37,40,43V28.106z"/><path fill="#49b1d5" d="M40,28.527c-0.127-0.806-26-1.947-26-1.947v3.14c0,0.78,0.454,1.489,1.162,1.816 C15.162,31.536,37,37,40,43V28.527z"/><path fill="#49b2d6" d="M40,28.948c-0.148-0.94-26-2.271-26-2.271v3.043c0,0.78,0.454,1.489,1.162,1.816 C15.162,31.536,37,37,40,43V28.948z"/><path fill="#4ab3d7" d="M40,29.369c-0.169-1.074-26-2.596-26-2.596v2.947c0,0.78,0.454,1.489,1.162,1.816 C15.162,31.536,37,37,40,43V29.369z"/><path fill="#4ab3d8" d="M40,29.791c-0.19-1.209-26-2.92-26-2.92v2.85c0,0.78,0.454,1.489,1.162,1.816 C15.162,31.536,37,37,40,43V29.791z"/><path fill="#4bb4d9" d="M40,30.212c-0.211-1.343-26-3.244-26-3.244v2.753c0,0.78,0.454,1.489,1.162,1.816 C15.162,31.536,37,37,40,43V30.212z"/><path fill="#4bb5da" d="M40,30.633c-0.233-1.477-26-3.569-26-3.569v2.656c0,0.78,0.454,1.489,1.162,1.816 C15.162,31.536,37,37,40,43V30.633z"/><path fill="#4cb6db" d="M40,31.054c-0.254-1.612-26-3.893-26-3.893v2.56c0,0.78,0.454,1.489,1.162,1.816 C15.162,31.536,37,37,40,43V31.054z"/><path fill="#4cb7dc" d="M40,31.475c-0.275-1.746-26-4.218-26-4.218v2.463c0,0.78,0.454,1.489,1.162,1.816 C15.162,31.536,37,37,40,43V31.475z"/><path fill="#4db8dd" d="M40,31.896c-0.296-1.88-26-4.542-26-4.542v2.366c0,0.78,0.454,1.489,1.162,1.816 C15.162,31.536,37,37,40,43V31.896z"/><path fill="#4db8de" d="M40,32.318c-0.317-2.015-26-4.867-26-4.867v2.269c0,0.78,0.454,1.489,1.162,1.816 C15.162,31.536,37,37,40,43V32.318z"/><path fill="#4eb9df" d="M40,32.739c-0.338-2.149-26-5.191-26-5.191v2.173c0,0.78,0.454,1.489,1.162,1.816 C15.162,31.536,37,37,40,43V32.739z"/><path fill="#4ebae0" d="M40,33.16c-0.359-2.283-26-5.516-26-5.516v2.076c0,0.78,0.454,1.489,1.162,1.816 C15.162,31.536,37,37,40,43V33.16z"/><path fill="#4ebbe0" d="M40,33.581c-0.38-2.417-26-5.84-26-5.84v1.979c0,0.78,0.454,1.489,1.162,1.816 C15.162,31.536,37,37,40,43V33.581z"/><path fill="#4fbce1" d="M40,34.002c-0.402-2.552-26-6.164-26-6.164v1.882c0,0.78,0.454,1.489,1.162,1.816 C15.162,31.536,37,37,40,43V34.002z"/><path fill="#4fbce2" d="M40,34.424c-0.423-2.686-26-6.489-26-6.489v1.786c0,0.78,0.454,1.489,1.162,1.816 C15.162,31.536,37,37,40,43V34.424z"/><path fill="#50bde3" d="M40,34.845c-0.444-2.82-26-6.813-26-6.813v1.689c0,0.78,0.454,1.489,1.162,1.816 C15.162,31.536,37,37,40,43V34.845z"/><path fill="#50bee4" d="M40,35.266c-0.465-2.955-26-7.138-26-7.138v1.592c0,0.78,0.454,1.489,1.162,1.816 C15.162,31.536,37,37,40,43V35.266z"/><path fill="#51bfe5" d="M40,35.687c-0.486-3.089-26-7.462-26-7.462v1.496c0,0.78,0.454,1.489,1.162,1.816 C15.162,31.536,37,37,40,43V35.687z"/><path fill="#51c0e6" d="M40,36.108c-0.507-3.223-26-7.787-26-7.787v1.399c0,0.78,0.454,1.489,1.162,1.816 C15.162,31.536,37,37,40,43V36.108z"/><path fill="#52c1e7" d="M40,36.529c-0.528-3.358-26-8.111-26-8.111v1.302c0,0.78,0.454,1.489,1.162,1.816 C15.162,31.536,37,37,40,43V36.529z"/><path fill="#52c1e8" d="M40,36.951c-0.55-3.492-26-8.436-26-8.436v1.205c0,0.78,0.454,1.489,1.162,1.816 C15.162,31.536,37,37,40,43V36.951z"/><path fill="#53c2e9" d="M40,37.372c-0.571-3.626-26-8.76-26-8.76v1.109c0,0.78,0.454,1.489,1.162,1.816 C15.162,31.536,37,37,40,43V37.372z"/><path fill="#53c3ea" d="M40,37.793c-0.592-3.761-26-9.085-26-9.085v1.012c0,0.78,0.454,1.489,1.162,1.816 C15.162,31.536,37,37,40,43V37.793z"/><path fill="#54c4eb" d="M40,38.214c-0.613-3.895-26-9.409-26-9.409v0.915c0,0.78,0.454,1.489,1.162,1.816 C15.162,31.536,37,37,40,43V38.214z"/><path fill="#54c5ec" d="M40,38.635c-0.634-4.029-26-9.733-26-9.733v0.818c0,0.78,0.454,1.489,1.162,1.816 C15.162,31.536,37,37,40,43V38.635z"/><path fill="#55c6ed" d="M40,39.056c-0.655-4.163-26-10.058-26-10.058v0.722c0,0.78,0.454,1.489,1.162,1.816 C15.162,31.536,37,37,40,43V39.056z"/><path fill="#55c6ee" d="M40,39.478c-0.676-4.298-26-10.382-26-10.382v0.625c0,0.78,0.454,1.489,1.162,1.816 C15.162,31.536,37,37,40,43V39.478z"/><path fill="#56c7ef" d="M40,39.899c-0.698-4.432-26-10.707-26-10.707v0.528c0,0.78,0.454,1.489,1.162,1.816 C15.162,31.536,37,37,40,43V39.899z"/><path fill="#56c8f0" d="M40,40.32c-0.719-4.566-26-11.031-26-11.031v0.432c0,0.78,0.454,1.489,1.162,1.816 C15.162,31.536,37,37,40,43V40.32z"/><g><path fill="#46accf" d="M40,3c-3,6-24.838,11.464-24.838,11.464C14.454,14.791,14,15.5,14,16.28V26h26V3z"/><path fill="#47adcf" d="M40,3.091c-2.991,5.982-24.842,11.421-24.842,11.421C14.452,14.837,14,15.543,14,16.32v9.643 l26-0.018V3.091z"/><path fill="#48add0" d="M40,3.182c-2.982,5.964-24.846,11.379-24.846,11.379C14.451,14.884,14,15.587,14,16.361v9.566 l26-0.036V3.182z"/><path fill="#49aed0" d="M40,3.273c-2.973,5.945-24.85,11.337-24.85,11.337C14.449,14.93,14,15.631,14,16.402v9.489l26-0.055 V3.273z"/><path fill="#4aaed1" d="M40,3.364c-2.964,5.927-24.853,11.294-24.853,11.294C14.448,14.977,14,15.675,14,16.443v9.412 l26-0.073V3.364z"/><path fill="#4bafd1" d="M40,3.455c-2.955,5.909-24.857,11.252-24.857,11.252C14.447,15.024,14,15.718,14,16.484v9.335 l26-0.091V3.455z"/><path fill="#4cafd2" d="M40,3.545c-2.945,5.891-24.861,11.209-24.861,11.209C14.445,15.07,14,15.762,14,16.524v9.257 l26-0.109V3.545z"/><path fill="#4db0d2" d="M40,3.636c-2.936,5.873-24.865,11.167-24.865,11.167C14.444,15.117,14,15.806,14,16.565v9.18 l26-0.127V3.636z"/><path fill="#4eb1d2" d="M40,3.727c-2.927,5.855-24.869,11.125-24.869,11.125C14.443,15.164,14,15.85,14,16.606v9.103 l26-0.145V3.727z"/><path fill="#4fb1d3" d="M40,3.818C37.082,9.655,15.127,14.9,15.127,14.9C14.441,15.21,14,15.893,14,16.647v9.026l26-0.164 V3.818z"/><path fill="#50b2d3" d="M40,3.909c-2.909,5.818-24.876,11.04-24.876,11.04C14.44,15.257,14,15.937,14,16.688v8.949l26-0.182 V3.909z"/><path fill="#51b2d4" d="M40,4c-2.9,5.8-24.88,10.997-24.88,10.997C14.439,15.303,14,15.981,14,16.728V25.6l26-0.2V4z"/><path fill="#52b3d4" d="M40,4.091c-2.891,5.782-24.884,10.955-24.884,10.955C14.437,15.35,14,16.025,14,16.769v8.795 l26-0.218V4.091z"/><path fill="#53b4d5" d="M40,4.182c-2.882,5.764-24.888,10.913-24.888,10.913C14.436,15.397,14,16.069,14,16.81v8.717 l26-0.236V4.182z"/><path fill="#54b4d5" d="M40,4.273c-2.873,5.745-24.892,10.87-24.892,10.87C14.434,15.443,14,16.112,14,16.851v8.64l26-0.255 V4.273z"/><path fill="#55b5d6" d="M40,4.364c-2.864,5.727-24.896,10.828-24.896,10.828C14.433,15.49,14,16.156,14,16.891v8.563 l26-0.273V4.364z"/><path fill="#56b5d6" d="M40,4.455C37.145,10.164,15.101,15.24,15.101,15.24C14.432,15.536,14,16.2,14,16.932v8.486l26-0.291 V4.455z"/><path fill="#57b6d6" d="M40,4.545c-2.845,5.691-24.903,10.743-24.903,10.743C14.43,15.583,14,16.244,14,16.973v8.409 l26-0.309V4.545z"/><path fill="#58b6d7" d="M40,4.636c-2.836,5.673-24.907,10.701-24.907,10.701C14.429,15.63,14,16.287,14,17.014v8.332 l26-0.327V4.636z"/><path fill="#59b7d7" d="M40,4.727c-2.827,5.655-24.911,10.658-24.911,10.658C14.428,15.676,14,16.331,14,17.055v8.254 l26-0.345V4.727z"/><path fill="#5ab8d8" d="M40,4.818c-2.818,5.636-24.915,10.616-24.915,10.616C14.426,15.723,14,16.375,14,17.095v8.177 l26-0.364V4.818z"/><path fill="#5bb8d8" d="M40,4.909c-2.809,5.618-24.919,10.574-24.919,10.574C14.425,15.77,14,16.419,14,17.136v8.1l26-0.382 V4.909z"/><path fill="#5cb9d9" d="M40,5c-2.8,5.6-24.922,10.531-24.922,10.531C14.424,15.816,14,16.462,14,17.177V25.2l26-0.4V5z"/><path fill="#5db9d9" d="M40,5.091C37.209,10.673,15.074,15.58,15.074,15.58C14.422,15.863,14,16.506,14,17.218v7.946 l26-0.418V5.091z"/><path fill="#5ebad9" d="M40,5.182c-2.782,5.564-24.93,10.446-24.93,10.446C14.421,15.909,14,16.55,14,17.259v7.869l26-0.436 V5.182z"/><path fill="#5fbbda" d="M40,5.273c-2.773,5.545-24.934,10.404-24.934,10.404C14.419,15.956,14,16.594,14,17.299v7.792 l26-0.455V5.273z"/><path fill="#60bbda" d="M40,5.364c-2.764,5.527-24.938,10.362-24.938,10.362C14.418,16.003,14,16.638,14,17.34v7.714 l26-0.473V5.364z"/><path fill="#61bcdb" d="M40,5.455c-2.755,5.509-24.942,10.319-24.942,10.319C14.417,16.049,14,16.681,14,17.381v7.637 l26-0.491V5.455z"/><path fill="#62bcdb" d="M40,5.545c-2.745,5.491-24.945,10.277-24.945,10.277C14.415,16.096,14,16.725,14,17.422v7.56 l26-0.509V5.545z"/><path fill="#63bddc" d="M40,5.636c-2.736,5.473-24.949,10.234-24.949,10.234C14.414,16.142,14,16.769,14,17.463v7.483 l26-0.527V5.636z"/><path fill="#64bddc" d="M40,5.727c-2.727,5.455-24.953,10.192-24.953,10.192C14.413,16.189,14,16.813,14,17.503v7.406 l26-0.545V5.727z"/><path fill="#65bedd" d="M40,5.818c-2.718,5.436-24.957,10.15-24.957,10.15C14.411,16.236,14,16.856,14,17.544v7.329 l26-0.564V5.818z"/><path fill="#66bfdd" d="M40,5.909c-2.709,5.418-24.961,10.107-24.961,10.107C14.41,16.282,14,16.9,14,17.585v7.251l26-0.582 V5.909z"/><path fill="#67bfdd" d="M40,6c-2.7,5.4-24.965,10.065-24.965,10.065C14.409,16.329,14,16.944,14,17.626V24.8l26-0.6V6z"/><path fill="#68c0de" d="M40,6.091c-2.691,5.382-24.969,10.022-24.969,10.022C14.407,16.376,14,16.988,14,17.666v7.097 l26-0.618V6.091z"/><path fill="#69c0de" d="M40,6.182c-2.682,5.364-24.972,9.98-24.972,9.98C14.406,16.422,14,17.031,14,17.707v7.02l26-0.636 V6.182z"/><path fill="#6ac1df" d="M40,6.273c-2.673,5.345-24.976,9.938-24.976,9.938C14.404,16.469,14,17.075,14,17.748v6.943 l26-0.655V6.273z"/><path fill="#6bc2df" d="M40,6.364c-2.664,5.327-24.98,9.895-24.98,9.895c-0.617,0.256-1.02,0.86-1.02,1.53v6.866l26-0.673 V6.364z"/><path fill="#6cc2e0" d="M40,6.455c-2.655,5.309-24.984,9.853-24.984,9.853C14.402,16.562,14,17.163,14,17.83v6.789l26-0.691 V6.455z"/><path fill="#6dc3e0" d="M40,6.545c-2.645,5.291-24.988,9.811-24.988,9.811C14.4,16.609,14,17.207,14,17.87v6.711l26-0.709 V6.545z"/><path fill="#6ec3e0" d="M40,6.636c-2.636,5.273-24.992,9.768-24.992,9.768C14.399,16.655,14,17.25,14,17.911v6.634l26-0.727 V6.636z"/><path fill="#6fc4e1" d="M40,6.727c-2.627,5.255-24.995,9.726-24.995,9.726C14.398,16.702,14,17.294,14,17.952v6.557 l26-0.745V6.727z"/><path fill="#70c4e1" d="M40,6.818c-2.618,5.236-24.999,9.683-24.999,9.683C14.396,16.748,14,17.338,14,17.993v6.48l26-0.764 V6.818z"/><path fill="#71c5e2" d="M40,6.909c-2.609,5.218-25.003,9.641-25.003,9.641C14.395,16.795,14,17.382,14,18.034v6.403 l26-0.782V6.909z"/><path fill="#72c6e2" d="M40,7c-2.6,5.2-25.007,9.599-25.007,9.599C14.394,16.842,14,17.425,14,18.074V24.4l26-0.8V7z"/><path fill="#73c6e3" d="M40,7.091c-2.591,5.182-25.011,9.556-25.011,9.556C14.392,16.888,14,17.469,14,18.115v6.248 l26-0.818V7.091z"/><path fill="#74c7e3" d="M40,7.182c-2.582,5.164-25.015,9.514-25.015,9.514C14.391,16.935,14,17.513,14,18.156v6.171 l26-0.836V7.182z"/><path fill="#75c7e4" d="M40,7.273c-2.573,5.145-25.018,9.471-25.018,9.471C14.389,16.982,14,17.557,14,18.197v6.094 l26-0.855V7.273z"/><path fill="#76c8e4" d="M40,7.364c-2.564,5.127-25.022,9.429-25.022,9.429C14.388,17.028,14,17.601,14,18.238v6.017 l26-0.873V7.364z"/><path fill="#77c9e4" d="M40,7.455c-2.555,5.109-25.026,9.387-25.026,9.387C14.387,17.075,14,17.644,14,18.278v5.94l26-0.891 V7.455z"/><path fill="#78c9e5" d="M40,7.545c-2.545,5.091-25.03,9.344-25.03,9.344C14.385,17.121,14,17.688,14,18.319v5.863l26-0.909 V7.545z"/><path fill="#79cae5" d="M40,7.636c-2.536,5.073-25.034,9.302-25.034,9.302C14.384,17.168,14,17.732,14,18.36v5.786l26-0.927 V7.636z"/><path fill="#7acae6" d="M40,7.727c-2.527,5.055-25.038,9.259-25.038,9.259C14.383,17.215,14,17.776,14,18.401v5.708 l26-0.945V7.727z"/><path fill="#7bcbe6" d="M40,7.818c-2.518,5.036-25.041,9.217-25.041,9.217C14.381,17.261,14,17.819,14,18.441v5.631 l26-0.964V7.818z"/><path fill="#7ccbe7" d="M40,7.909c-2.509,5.018-25.045,9.175-25.045,9.175C14.38,17.308,14,17.863,14,18.482v5.554l26-0.982 V7.909z"/><path fill="#7dcce7" d="M40,8c-2.5,5-25.049,9.132-25.049,9.132C14.378,17.354,14,17.907,14,18.523V24l26-1V8z"/><path fill="#7dcde7" d="M40,8.091c-2.491,4.982-25.053,9.09-25.053,9.09c-0.57,0.22-0.947,0.77-0.947,1.383v5.4l26-1.018 V8.091z"/><path fill="#7ecde8" d="M40,8.182c-2.482,4.964-25.057,9.047-25.057,9.047C14.376,17.448,14,17.994,14,18.605v5.323 l26-1.036V8.182z"/><path fill="#7fcee8" d="M40,8.273c-2.473,4.945-25.061,9.005-25.061,9.005C14.374,17.494,14,18.038,14,18.645v5.246 l26-1.055V8.273z"/><path fill="#80cee9" d="M40,8.364c-2.464,4.927-25.064,8.963-25.064,8.963C14.373,17.541,14,18.082,14,18.686v5.168 l26-1.073V8.364z"/><path fill="#81cfe9" d="M40,8.455c-2.455,4.909-25.068,8.92-25.068,8.92C14.372,17.588,14,18.126,14,18.727v5.091l26-1.091 V8.455z"/><path fill="#82cfea" d="M40,8.545c-2.445,4.891-25.072,8.878-25.072,8.878C14.37,17.634,14,18.17,14,18.768v5.014l26-1.109 V8.545z"/><path fill="#83d0ea" d="M40,8.636c-2.436,4.873-25.076,8.836-25.076,8.836C14.369,17.681,14,18.213,14,18.809v4.937 l26-1.127V8.636z"/><path fill="#84d1ea" d="M40,8.727c-2.427,4.855-25.08,8.793-25.08,8.793C14.368,17.727,14,18.257,14,18.849v4.86l26-1.145 V8.727z"/><path fill="#85d1eb" d="M40,8.818c-2.418,4.836-25.084,8.751-25.084,8.751C14.366,17.774,14,18.301,14,18.89v4.783l26-1.164 V8.818z"/><path fill="#86d2eb" d="M40,8.909c-2.409,4.818-25.087,8.708-25.087,8.708C14.365,17.821,14,18.345,14,18.931v4.705 l26-1.182V8.909z"/><path fill="#87d2ec" d="M40,9c-2.4,4.8-25.091,8.666-25.091,8.666C14.363,17.867,14,18.388,14,18.972V23.6l26-1.2V9z"/><path fill="#88d3ec" d="M40,9.091c-2.391,4.782-25.095,8.624-25.095,8.624C14.362,17.914,14,18.432,14,19.012v4.551 l26-1.218V9.091z"/><path fill="#89d4ed" d="M40,9.182c-2.382,4.764-25.099,8.581-25.099,8.581C14.361,17.96,14,18.476,14,19.053v4.474l26-1.236 V9.182z"/><path fill="#8ad4ed" d="M40,9.273c-2.373,4.745-25.103,8.539-25.103,8.539C14.359,18.007,14,18.52,14,19.094v4.397l26-1.255 V9.273z"/><path fill="#8bd5ee" d="M40,9.364c-2.364,4.727-25.107,8.496-25.107,8.496C14.358,18.054,14,18.563,14,19.135v4.32l26-1.273 V9.364z"/><path fill="#8cd5ee" d="M40,9.455c-2.355,4.709-25.11,8.454-25.11,8.454C14.357,18.1,14,18.607,14,19.176v4.243l26-1.291 V9.455z"/><path fill="#8dd6ee" d="M40,9.545c-2.345,4.691-25.114,8.412-25.114,8.412C14.355,18.147,14,18.651,14,19.216v4.165 l26-1.309V9.545z"/><path fill="#8ed6ef" d="M40,9.636c-2.336,4.673-25.118,8.369-25.118,8.369C14.354,18.194,14,18.695,14,19.257v4.088 l26-1.327V9.636z"/><path fill="#8fd7ef" d="M40,9.727c-2.327,4.655-25.122,8.327-25.122,8.327C14.353,18.24,14,18.739,14,19.298v4.011l26-1.345 V9.727z"/><path fill="#90d8f0" d="M40,9.818c-2.318,4.636-25.126,8.284-25.126,8.284C14.351,18.287,14,18.782,14,19.339v3.934 l26-1.364V9.818z"/><path fill="#91d8f0" d="M40,9.909c-2.309,4.618-25.13,8.242-25.13,8.242C14.35,18.333,14,18.826,14,19.38v3.857l26-1.382 V9.909z"/><path fill="#92d9f1" d="M40,10c-2.3,4.6-25.133,8.2-25.133,8.2C14.348,18.38,14,18.87,14,19.42v3.78l26-1.4V10z"/><path fill="#93d9f1" d="M40,10.091c-2.291,4.582-25.137,8.157-25.137,8.157C14.347,18.427,14,18.914,14,19.461v3.702 l26-1.418V10.091z"/><path fill="#94daf1" d="M40,10.182c-2.282,4.564-25.141,8.115-25.141,8.115C14.346,18.473,14,18.957,14,19.502v3.625 l26-1.436V10.182z"/><path fill="#95dbf2" d="M40,10.273c-2.273,4.545-25.145,8.072-25.145,8.072C14.344,18.52,14,19.001,14,19.543v3.548 l26-1.455V10.273z"/><path fill="#96dbf2" d="M40,10.364c-2.264,4.527-25.149,8.03-25.149,8.03C14.343,18.566,14,19.045,14,19.584v3.471l26-1.473 V10.364z"/><path fill="#97dcf3" d="M40,10.455c-2.255,4.509-25.153,7.988-25.153,7.988C14.342,18.613,14,19.089,14,19.624v3.394 l26-1.491V10.455z"/><path fill="#98dcf3" d="M40,10.545c-2.245,4.491-25.156,7.945-25.156,7.945C14.34,18.66,14,19.132,14,19.665v3.317l26-1.509 V10.545z"/><path fill="#99ddf4" d="M40,10.636c-2.236,4.473-25.16,7.903-25.16,7.903C14.339,18.706,14,19.176,14,19.706v3.24l26-1.527 V10.636z"/><path fill="#9addf4" d="M40,10.727c-2.227,4.455-25.164,7.861-25.164,7.861C14.338,18.753,14,19.22,14,19.747v3.162 l26-1.545V10.727z"/><path fill="#9bdef5" d="M40,10.818c-2.218,4.436-25.168,7.818-25.168,7.818C14.336,18.8,14,19.264,14,19.787v3.085l26-1.564 V10.818z"/><path fill="#9cdff5" d="M40,10.909c-2.209,4.418-25.172,7.776-25.172,7.776C14.335,18.846,14,19.308,14,19.828v3.008 l26-1.582V10.909z"/><path fill="#9ddff5" d="M40,11c-2.2,4.4-25.176,7.733-25.176,7.733C14.333,18.893,14,19.351,14,19.869V22.8l26-1.6V11z"/><path fill="#9ee0f6" d="M40,11.091c-2.191,4.382-25.179,7.691-25.179,7.691C14.332,18.939,14,19.395,14,19.91v2.854 l26-1.618V11.091z"/><path fill="#9fe0f6" d="M40,11.182c-2.182,4.364-25.183,7.649-25.183,7.649C14.331,18.986,14,19.439,14,19.951v2.777 l26-1.636V11.182z"/><path fill="#a0e1f7" d="M40,11.273c-2.173,4.345-25.187,7.606-25.187,7.606C14.329,19.033,14,19.483,14,19.991v2.7l26-1.655 V11.273z"/><path fill="#a1e2f7" d="M40,11.364c-2.164,4.327-25.191,7.564-25.191,7.564C14.328,19.079,14,19.526,14,20.032v2.622 l26-1.673V11.364z"/><path fill="#a2e2f8" d="M40,11.455c-2.155,4.309-25.195,7.521-25.195,7.521C14.327,19.126,14,19.57,14,20.073v2.545 l26-1.691V11.455z"/><path fill="#a3e3f8" d="M40,11.545c-2.145,4.291-25.199,7.479-25.199,7.479C14.325,19.172,14,19.614,14,20.114v2.468 l26-1.709V11.545z"/><path fill="#a4e3f8" d="M40,11.636c-2.136,4.273-25.202,7.437-25.202,7.437C14.324,19.219,14,19.658,14,20.155v2.391 l26-1.727V11.636z"/><path fill="#a5e4f9" d="M40,11.727c-2.127,4.255-25.206,7.394-25.206,7.394C14.323,19.266,14,19.701,14,20.195v2.314 l26-1.745V11.727z"/><path fill="#a6e4f9" d="M40,11.818c-2.118,4.236-25.21,7.352-25.21,7.352C14.321,19.312,14,19.745,14,20.236v2.237l26-1.764 V11.818z"/><path fill="#a7e5fa" d="M40,11.909c-2.109,4.218-25.214,7.309-25.214,7.309C14.32,19.359,14,19.789,14,20.277v2.159 l26-1.782V11.909z"/><path fill="#a8e6fa" d="M40,12c-2.1,4.2-25.218,7.267-25.218,7.267C14.318,19.406,14,19.833,14,20.318V22.4l26-1.8V12z"/><path fill="#a9e6fb" d="M40,12.091c-2.091,4.182-25.222,7.225-25.222,7.225C14.317,19.452,14,19.877,14,20.358v2.005 l26-1.818V12.091z"/><path fill="#aae7fb" d="M40,12.182c-2.082,4.164-25.225,7.182-25.225,7.182C14.316,19.499,14,19.92,14,20.399v1.928 l26-1.836V12.182z"/><path fill="#abe7fc" d="M40,12.273c-2.073,4.145-25.229,7.14-25.229,7.14C14.314,19.545,14,19.964,14,20.44v1.851l26-1.855 V12.273z"/><path fill="#ace8fc" d="M40,12.364c-2.064,4.127-25.233,7.097-25.233,7.097C14.313,19.592,14,20.008,14,20.481v1.774 l26-1.873V12.364z"/><path fill="#ade9fc" d="M40,12.455c-2.055,4.109-25.237,7.055-25.237,7.055C14.312,19.639,14,20.052,14,20.522v1.697 l26-1.891V12.455z"/><path fill="#aee9fd" d="M40,12.545c-2.045,4.091-25.241,7.013-25.241,7.013C14.31,19.685,14,20.095,14,20.562v1.619 l26-1.909V12.545z"/><path fill="#afeafd" d="M40,12.636c-2.036,4.073-25.245,6.97-25.245,6.97C14.309,19.732,14,20.139,14,20.603v1.542l26-1.927 V12.636z"/><path fill="#b0eafe" d="M40,12.727c-2.027,4.055-25.248,6.928-25.248,6.928C14.308,19.778,14,20.183,14,20.644v1.465 l26-1.945V12.727z"/><path fill="#b1ebfe" d="M40,12.818c-2.018,4.036-25.252,6.886-25.252,6.886C14.306,19.825,14,20.227,14,20.685v1.388 l26-1.964V12.818z"/><path fill="#b2ebff" d="M40,12.909c-2.009,4.018-25.256,6.843-25.256,6.843C14.305,19.872,14,20.27,14,20.726v1.311 l26-1.982V12.909z"/><path fill="#b3ecff" d="M40,13c-2,4-25.26,6.801-25.26,6.801C14.303,19.918,14,20.314,14,20.766V22l26-2V13z"/></g><linearGradient id="boD9ufWHuKaXT_r2_kTH2c" x1="41" x2="41" y1="1.631" y2="44.436" gradientUnits="userSpaceOnUse"><stop offset="0" stop-color="#46abcf"/><stop offset=".255" stop-color="#ccf2ff"/><stop offset=".563" stop-color="#5dbcde"/><stop offset=".751" stop-color="#5dbcde"/><stop offset=".882" stop-color="#59c9f0"/><stop offset="1" stop-color="#56d1fc"/></linearGradient><path fill="url(#boD9ufWHuKaXT_r2_kTH2c)" d="M41,2L41,2c-0.552,0-1,0.448-1,1v40c0,0.552,0.448,1,1,1l0,0c0.552,0,1-0.448,1-1V3	C42,2.448,41.552,2,41,2z"/><linearGradient id="boD9ufWHuKaXT_r2_kTH2d" x1="9" x2="9" y1="19.815" y2="41.218" gradientUnits="userSpaceOnUse"><stop offset="0" stop-color="#bfbfbf"/><stop offset=".184" stop-color="#bababa"/><stop offset=".414" stop-color="#aaa"/><stop offset=".667" stop-color="#919191"/><stop offset=".899" stop-color="#737373"/><stop offset="1" stop-color="#4f4f4f"/></linearGradient><path fill="url(#boD9ufWHuKaXT_r2_kTH2d)" d="M8,20h2c0.552,0,1,0.448,1,1v19c0,0.552-0.448,1-1,1H8c-0.552,0-1-0.448-1-1V21	C7,20.448,7.448,20,8,20z"/><circle cx="9" cy="22" r="1" fill="#333"/><radialGradient id="boD9ufWHuKaXT_r2_kTH2e" cx="39.5" cy="23" r="14.147" gradientUnits="userSpaceOnUse"><stop offset="0" stop-color="#fff" stop-opacity=".3"/><stop offset="1" stop-color="#fff" stop-opacity="0"/></radialGradient><polygon fill="url(#boD9ufWHuKaXT_r2_kTH2e)" points="40,3 39,4 39,42 40,43"/><linearGradient id="boD9ufWHuKaXT_r2_kTH2f" x1="39.5" x2="39.5" y1="3" y2="43" gradientUnits="userSpaceOnUse"><stop offset="0" stop-color="#178bb3"/><stop offset=".254" stop-color="#96def5"/><stop offset=".563" stop-color="#279bc4"/><stop offset=".751" stop-color="#279bc4"/><stop offset=".788" stop-color="#31a1c9"/><stop offset=".924" stop-color="#4fb5d8"/><stop offset="1" stop-color="#5bbcde"/></linearGradient><path fill="url(#boD9ufWHuKaXT_r2_kTH2f)" d="M39,41.648c0.426,0.446,0.773,0.897,1,1.352V3c-0.227,0.455-0.574,0.906-1,1.352V41.648z"/></svg>