<svg xmlns="http://www.w3.org/2000/svg" viewBox="0 0 48 48"><linearGradient id="j3I4t1Wp0h4GOmv59x2jZa" x1="16.934" x2="33.531" y1="19.496" y2="23.177" gradientTransform="rotate(45.001 21.5 22)" gradientUnits="userSpaceOnUse"><stop offset="0" stop-color="#d5a57c"/><stop offset=".975" stop-color="#ad7954"/></linearGradient><path fill="url(#j3I4t1Wp0h4GOmv59x2jZa)" d="M37.089,0.842c-0.692-0.212-1.42-0.032-1.908,0.456L19.904,16.575L6.469,30.01l-4.711,4.711	c-0.462,0.462-0.656,1.145-0.482,1.806c1.202,4.578,6.149,9.255,10.636,10.63c0.692,0.212,1.42,0.032,1.908-0.456l4.67-4.67	l13.435-13.435l15.318-15.318c0.462-0.462,0.656-1.145,0.482-1.806C46.523,6.895,41.577,2.217,37.089,0.842z"/><linearGradient id="j3I4t1Wp0h4GOmv59x2jZb" x1="13.126" x2="27.902" y1="8.031" y2="28.777" gradientUnits="userSpaceOnUse"><stop offset="0" stop-color="#fff" stop-opacity=".4"/><stop offset="1" stop-color="#fff" stop-opacity="0"/></linearGradient><path fill="url(#j3I4t1Wp0h4GOmv59x2jZb)" d="M12.767,47.023C8.38,45.679,3.544,41.106,2.369,36.63c-0.17-0.646,0.02-1.313,0.472-1.765	l4.606-4.606l13.135-13.135L35.516,2.189c0.477-0.477,1.19-0.653,1.866-0.446c4.376,1.341,9.197,5.894,10.388,10.359	c0.016-0.208,0.011-0.419-0.045-0.63c-1.202-4.578-6.149-9.255-10.636-10.63c-0.692-0.212-1.42-0.032-1.908,0.456L19.904,16.575	L6.469,30.01l-4.711,4.711c-0.462,0.462-0.656,1.145-0.482,1.806c1.202,4.578,6.149,9.255,10.636,10.63	c0.438,0.134,0.885,0.095,1.283-0.064C13.051,47.083,12.908,47.066,12.767,47.023z"/><linearGradient id="j3I4t1Wp0h4GOmv59x2jZc" x1="20.328" x2="31.228" y1="20.142" y2="23.815" gradientTransform="rotate(45.001 21.5 22)" gradientUnits="userSpaceOnUse"><stop offset="0" stop-color="#efc6ab"/><stop offset=".975" stop-color="#89563a"/></linearGradient><path fill="url(#j3I4t1Wp0h4GOmv59x2jZc)" d="M21.275,35.253l-7.757-7.757c-0.936-0.936-0.936-2.455,0-3.391l10.38-10.38	c0.936-0.936,2.455-0.936,3.391,0l7.757,7.757c0.936,0.936,0.936,2.455,0,3.391l-10.38,10.38	C23.729,36.19,22.211,36.19,21.275,35.253z"/><linearGradient id="j3I4t1Wp0h4GOmv59x2jZd" x1="18.908" x2="47.005" y1="21.793" y2="21.793" gradientTransform="rotate(45.001 21.5 22)" gradientUnits="userSpaceOnUse"><stop offset="0" stop-color="#d5a57c"/><stop offset=".975" stop-color="#ad7954"/></linearGradient><path fill="url(#j3I4t1Wp0h4GOmv59x2jZd)" d="M22.109,33.649l-7.258-7.258c-0.389-0.389-0.389-1.019,0-1.408l9.924-9.924	c0.389-0.389,1.019-0.389,1.408,0l7.258,7.258c0.389,0.389,0.389,1.019,0,1.408l-9.924,9.924	C23.128,34.037,22.498,34.037,22.109,33.649z"/><polygon fill="#9f6746" points="26.584,13.406 26.728,12.529 27.605,12.385 27.46,13.262"/><polygon fill="#9f6746" points="29.412,10.578 29.556,9.701 30.433,9.557 30.289,10.433"/><polygon fill="#9f6746" points="32.24,7.749 32.385,6.872 33.262,6.728 33.117,7.605"/><polygon fill="#9f6746" points="35.069,4.921 35.213,4.044 36.09,3.9 35.946,4.776"/><polygon fill="#9f6746" points="27.291,16.941 27.435,16.065 28.312,15.92 28.167,16.797"/><polygon fill="#9f6746" points="30.119,14.113 30.264,13.236 31.14,13.092 30.996,13.969"/><polygon fill="#9f6746" points="32.948,11.285 33.092,10.408 33.969,10.264 33.824,11.14"/><polygon fill="#9f6746" points="35.776,8.456 35.92,7.58 36.797,7.435 36.653,8.312"/><polygon fill="#9f6746" points="30.826,17.649 30.971,16.772 31.847,16.628 31.703,17.504"/><polygon fill="#9f6746" points="33.655,14.82 33.799,13.944 34.676,13.799 34.531,14.676"/><polygon fill="#9f6746" points="36.483,11.992 36.628,11.115 37.504,10.971 37.36,11.847"/><polygon fill="#9f6746" points="39.312,9.163 39.456,8.287 40.333,8.142 40.188,9.019"/><polygon fill="#9f6746" points="31.533,21.184 31.678,20.308 32.554,20.163 32.41,21.04"/><polygon fill="#9f6746" points="34.362,18.356 34.506,17.479 35.383,17.335 35.238,18.211"/><polygon fill="#9f6746" points="37.19,15.527 37.335,14.651 38.211,14.506 38.067,15.383"/><polygon fill="#9f6746" points="40.019,12.699 40.163,11.822 41.04,11.678 40.895,12.554"/><polygon fill="#9f6746" points="38.604,5.628 38.749,4.751 39.625,4.607 39.481,5.483"/><polygon fill="#9f6746" points="42.847,9.87 42.991,8.994 43.868,8.849 43.724,9.726"/><polygon fill="#9f6746" points="35.069,21.891 35.213,21.015 36.09,20.87 35.946,21.747"/><polygon fill="#9f6746" points="37.897,19.063 38.042,18.186 38.918,18.042 38.774,18.918"/><polygon fill="#9f6746" points="40.726,16.234 40.87,15.358 41.747,15.213 41.602,16.09"/><polygon fill="#9f6746" points="43.554,13.406 43.699,12.529 44.575,12.385 44.431,13.262"/><polygon fill="#9f6746" points="15.27,24.72 15.414,23.843 16.291,23.699 16.147,24.575"/><polygon fill="#9f6746" points="18.098,21.891 18.243,21.015 19.119,20.87 18.975,21.747"/><polygon fill="#9f6746" points="20.927,19.063 21.071,18.186 21.948,18.042 21.803,18.918"/><polygon fill="#9f6746" points="23.755,16.234 23.9,15.358 24.776,15.213 24.632,16.09"/><polygon fill="#9f6746" points="15.977,28.255 16.121,27.379 16.998,27.234 16.854,28.111"/><polygon fill="#9f6746" points="18.805,25.427 18.95,24.55 19.826,24.406 19.682,25.282"/><polygon fill="#9f6746" points="21.634,22.598 21.778,21.722 22.655,21.577 22.511,22.454"/><polygon fill="#9f6746" points="24.462,19.77 24.607,18.893 25.483,18.749 25.339,19.626"/><polygon fill="#9f6746" points="19.513,28.962 19.657,28.086 20.534,27.941 20.389,28.818"/><polygon fill="#9f6746" points="22.341,26.134 22.485,25.257 23.362,25.113 23.218,25.989"/><polygon fill="#9f6746" points="25.169,23.305 25.314,22.429 26.19,22.284 26.046,23.161"/><polygon fill="#9f6746" points="27.998,20.477 28.142,19.6 29.019,19.456 28.874,20.333"/><polygon fill="#9f6746" points="20.22,32.498 20.364,31.621 21.241,31.477 21.096,32.353"/><polygon fill="#9f6746" points="23.048,29.669 23.192,28.793 24.069,28.648 23.925,29.525"/><polygon fill="#9f6746" points="25.877,26.841 26.021,25.964 26.898,25.82 26.753,26.697"/><polygon fill="#9f6746" points="28.705,24.013 28.849,23.136 29.726,22.992 29.582,23.868"/><polygon fill="#9f6746" points="23.755,33.205 23.9,32.328 24.776,32.184 24.632,33.061"/><polygon fill="#9f6746" points="26.584,30.377 26.728,29.5 27.605,29.356 27.46,30.232"/><polygon fill="#9f6746" points="29.412,27.548 29.556,26.671 30.433,26.527 30.289,27.404"/><polygon fill="#9f6746" points="32.24,24.72 32.385,23.843 33.262,23.699 33.117,24.575"/><polygon fill="#9f6746" points="3.956,36.033 4.101,35.157 4.977,35.012 4.833,35.889"/><polygon fill="#9f6746" points="6.785,33.205 6.929,32.328 7.806,32.184 7.661,33.061"/><polygon fill="#9f6746" points="9.613,30.377 9.757,29.5 10.634,29.356 10.49,30.232"/><polygon fill="#9f6746" points="12.441,27.548 12.586,26.671 13.463,26.527 13.318,27.404"/><polygon fill="#9f6746" points="4.663,39.569 4.808,38.692 5.684,38.548 5.54,39.425"/><polygon fill="#9f6746" points="7.492,36.74 7.636,35.864 8.513,35.719 8.368,36.596"/><polygon fill="#9f6746" points="10.32,33.912 10.465,33.035 11.341,32.891 11.197,33.768"/><polygon fill="#9f6746" points="13.149,31.084 13.293,30.207 14.17,30.063 14.025,30.939"/><polygon fill="#9f6746" points="8.199,40.276 8.343,39.399 9.22,39.255 9.075,40.132"/><polygon fill="#9f6746" points="11.027,37.448 11.172,36.571 12.048,36.427 11.904,37.303"/><polygon fill="#9f6746" points="13.856,34.619 14,33.743 14.877,33.598 14.732,34.475"/><polygon fill="#9f6746" points="16.684,31.791 16.829,30.914 17.705,30.77 17.561,31.646"/><polygon fill="#9f6746" points="8.906,43.812 9.05,42.935 9.927,42.791 9.783,43.667"/><polygon fill="#9f6746" points="11.734,40.983 11.879,40.106 12.755,39.962 12.611,40.839"/><polygon fill="#9f6746" points="14.563,38.155 14.707,37.278 15.584,37.134 15.439,38.01"/><polygon fill="#9f6746" points="17.391,35.326 17.536,34.45 18.412,34.305 18.268,35.182"/><polygon fill="#9f6746" points="12.441,44.519 12.586,43.642 13.463,43.498 13.318,44.374"/><polygon fill="#9f6746" points="15.27,41.69 15.414,40.814 16.291,40.669 16.147,41.546"/><polygon fill="#9f6746" points="18.098,38.862 18.243,37.985 19.119,37.841 18.975,38.717"/><polygon fill="#9f6746" points="20.927,36.033 21.071,35.157 21.948,35.012 21.803,35.889"/></svg>