<svg xmlns="http://www.w3.org/2000/svg" viewBox="0 0 48 48"><linearGradient id="CQU3L4r3mmgEYRIEijDWDa" x1="5.147" x2="34.657" y1="16.97" y2="27.974" gradientUnits="userSpaceOnUse"><stop offset=".105" stop-color="#d9dde1"/><stop offset=".545" stop-color="#aab1b9"/><stop offset="1" stop-color="#6a727c"/></linearGradient><path fill="url(#CQU3L4r3mmgEYRIEijDWDa)" d="M24,1C18.304,4.753,11.979,7.192,5,8.263C5,26.421,10.067,39.737,24,47	c13.933-7.263,19-20.579,19-38.737C36.021,7.192,29.696,4.753,24,1z"/><linearGradient id="CQU3L4r3mmgEYRIEijDWDb" x1=".659" x2="32.741" y1="15.512" y2="27.178" gradientUnits="userSpaceOnUse"><stop offset="0" stop-color="#abb1ba"/><stop offset=".15" stop-color="#bdc3c9"/><stop offset=".59" stop-color="#aab1b9"/><stop offset="1" stop-color="#7f8894"/></linearGradient><path fill="url(#CQU3L4r3mmgEYRIEijDWDb)" d="M24,2.211C18.604,5.766,12.612,8.077,6,9.091c0,17.202,4.8,29.817,18,36.698	c13.2-6.881,18-19.496,18-36.698C35.388,8.077,29.396,5.766,24,2.211z"/><linearGradient id="CQU3L4r3mmgEYRIEijDWDc" x1="14.317" x2="2.178" y1="15.625" y2="7.796" gradientUnits="userSpaceOnUse"><stop offset=".048" stop-color="#fff" stop-opacity="0"/><stop offset=".831" stop-color="#fff"/></linearGradient><path fill="url(#CQU3L4r3mmgEYRIEijDWDc)" d="M6.601,9.569c6.347-0.986,12.442-3.856,17.488-7.303C24.06,2.247,24.029,2.23,24,2.211	C18.604,5.766,12.612,8.077,6,9.091c0,9.472,1.467,17.543,4.979,24.042C8.199,26.567,6.601,18.553,6.601,9.569z"/><linearGradient id="CQU3L4r3mmgEYRIEijDWDd" x1="19.774" x2="36.985" y1="16.19" y2="33.983" gradientUnits="userSpaceOnUse"><stop offset="0" stop-color="#fff"/><stop offset="1" stop-color="#bdbdbd"/></linearGradient><path fill="url(#CQU3L4r3mmgEYRIEijDWDd)" d="M24,7c-4.023,2.774-8.491,4.577-13.421,5.368C10.579,25.789,14.158,35.632,24,41	c9.842-5.368,13.421-15.211,13.421-28.632C32.491,11.577,28.023,9.774,24,7z"/><linearGradient id="CQU3L4r3mmgEYRIEijDWDe" x1="11.283" x2="46.362" y1="16.468" y2="37.245" gradientUnits="userSpaceOnUse"><stop offset="0" stop-color="#ff7448"/><stop offset=".737" stop-color="#e51e25"/><stop offset=".986" stop-color="#d31321"/></linearGradient><path fill="url(#CQU3L4r3mmgEYRIEijDWDe)" d="M36.259,24C34.527,31.566,30.729,37.33,24,41V24H36.259z M10.579,12.368	c0,4.256,0.392,8.125,1.199,11.632H24V7C19.977,9.774,15.509,11.577,10.579,12.368z"/><linearGradient id="CQU3L4r3mmgEYRIEijDWDf" x1="16.077" x2="33.288" y1="12.368" y2="30.161" gradientUnits="userSpaceOnUse"><stop offset=".006" stop-color="#fff" stop-opacity=".5"/><stop offset=".952" stop-color="#fff" stop-opacity="0"/></linearGradient><path fill="url(#CQU3L4r3mmgEYRIEijDWDf)" d="M24,7c-4.023,2.774-8.491,4.577-13.421,5.368C10.579,25.789,14.158,35.632,24,41	c9.842-5.368,13.421-15.211,13.421-28.632C32.491,11.577,28.023,9.774,24,7z M24,40c-9.263-5.053-12.632-14.316-12.632-26.947	C16.008,12.308,20.213,10.611,24,8c3.787,2.611,7.992,4.308,12.632,5.053C36.632,25.684,33.263,34.947,24,40z"/><linearGradient id="CQU3L4r3mmgEYRIEijDWDg" x1="18.514" x2="39.453" y1="17.157" y2="33.952" gradientUnits="userSpaceOnUse"><stop offset=".048" stop-color="#fff" stop-opacity="0"/><stop offset=".994" stop-color="#590808" stop-opacity=".5"/></linearGradient><path fill="url(#CQU3L4r3mmgEYRIEijDWDg)" d="M24,7c-4.023,2.774-8.491,4.577-13.421,5.368C10.579,25.789,14.158,35.632,24,41	c9.842-5.368,13.421-15.211,13.421-28.632C32.491,11.577,28.023,9.774,24,7z M24,40c-9.263-5.053-12.632-14.316-12.632-26.947	C16.008,12.308,20.213,10.611,24,8c3.787,2.611,7.992,4.308,12.632,5.053C36.632,25.684,33.263,34.947,24,40z"/><linearGradient id="CQU3L4r3mmgEYRIEijDWDh" x1="10.711" x2="19.4" y1="23.953" y2="23.953" gradientUnits="userSpaceOnUse"><stop offset="0" stop-color="#fff" stop-opacity="0"/><stop offset=".052" stop-color="#fff" stop-opacity=".042"/><stop offset=".366" stop-color="#fff" stop-opacity=".3"/><stop offset="1" stop-color="#fff" stop-opacity="0"/></linearGradient><path fill="url(#CQU3L4r3mmgEYRIEijDWDh)" d="M21,39.066V8.84c-3.214,1.745-6.684,2.929-10.421,3.529C10.579,24.319,13.43,33.422,21,39.066	z"/><linearGradient id="CQU3L4r3mmgEYRIEijDWDi" x1="24.29" x2="32.979" y1="23.953" y2="23.953" gradientTransform="matrix(-1 0 0 1 61.579 0)" gradientUnits="userSpaceOnUse"><stop offset="0" stop-color="#fff" stop-opacity="0"/><stop offset="0" stop-color="#f5f6f7" stop-opacity=".005"/><stop offset="0" stop-color="#d6d8dc" stop-opacity=".023"/><stop offset="0" stop-color="#babfc6" stop-opacity=".043"/><stop offset="0" stop-color="#a4abb3" stop-opacity=".066"/><stop offset="0" stop-color="#939ba5" stop-opacity=".092"/><stop offset="0" stop-color="#88909b" stop-opacity=".125"/><stop offset="0" stop-color="#818a96" stop-opacity=".172"/><stop offset="0" stop-color="#7f8894" stop-opacity=".3"/><stop offset="1" stop-color="#fff" stop-opacity="0"/></linearGradient><path fill="url(#CQU3L4r3mmgEYRIEijDWDi)" d="M27,39.066V8.84c3.214,1.745,6.684,2.929,10.421,3.529C37.421,24.319,34.57,33.422,27,39.066z"/></svg>