<svg xmlns="http://www.w3.org/2000/svg" viewBox="0 0 48 48"><defs><radialGradient id="qcdLAcNRQdqeXmcKcTemqa" cx="17.48" cy="15.5" r="35.01" gradientUnits="userSpaceOnUse"><stop offset=".06" stop-color="#e6fb0b"/><stop offset=".21" stop-color="#e0f70c"/><stop offset=".41" stop-color="#d0ec0e"/><stop offset=".63" stop-color="#b6da12"/><stop offset=".87" stop-color="#92c017"/><stop offset=".93" stop-color="#87b919"/></radialGradient><radialGradient id="qcdLAcNRQdqeXmcKcTemqb" cx="20.89" cy="20.95" r="21.05" gradientUnits="userSpaceOnUse"><stop offset=".46" stop-color="#5a7d0a" stop-opacity="0"/><stop offset=".58" stop-color="#5a7d0a" stop-opacity=".03"/><stop offset=".69" stop-color="#5a7d0a" stop-opacity=".13"/><stop offset=".81" stop-color="#5a7d0a" stop-opacity=".29"/><stop offset=".92" stop-color="#5a7d0a" stop-opacity=".51"/><stop offset="1" stop-color="#5a7d0a" stop-opacity=".7"/></radialGradient><radialGradient id="qcdLAcNRQdqeXmcKcTemqc" cx="19.99" cy="16.67" r="15.93" gradientUnits="userSpaceOnUse"><stop offset="0" stop-color="#f8ffd1" stop-opacity=".7"/><stop offset="1" stop-color="#f8ffd1" stop-opacity="0"/></radialGradient></defs><g data-name="Править Tennis"><circle cx="24" cy="24" r="18" fill="url(#qcdLAcNRQdqeXmcKcTemqa)"/><path fill="#97c417" d="M37.34,36.08a17.08,17.08,0,0,1-1.49,1.46,15.43,15.43,0,0,1-2.12,1.59c-.37.26-.76.48-1.15.7h0a6.89,6.89,0,0,1-.7-.39C29,37.71,27.5,34.82,26,31.76c-.18-.4-.36-.77-.54-1.14s-.45-.95-.68-1.43l-.3-.65c-2-4.32-4.14-8.8-8.89-10.18a10.39,10.39,0,0,0-9.29,2.18,11.78,11.78,0,0,1,.35-1.45A16.68,16.68,0,0,1,7.89,16c.19-.39.39-.76.61-1.13A13.77,13.77,0,0,1,17,14.52c6.71,1.95,9.58,8,11.89,12.89l.1.22.56,1.18L30.11,30c1.29,2.72,2.34,4.73,4.28,5.92A4.73,4.73,0,0,0,37.34,36.08Z"/><path fill="#9fc826" d="M7.89,16c.21-.37.42-.72.65-1.07a13.66,13.66,0,0,1,8.44-.3c6.66,1.93,9.52,8,11.83,12.84l.1.22.56,1.18L30,30c1.27,2.65,2.3,4.64,4.17,5.86a3.9,3.9,0,0,0,2.2.37,5.43,5.43,0,0,0,.67,0,12.45,12.45,0,0,1-1.21,1.37,15.43,15.43,0,0,1-2.12,1.59c-.38.22-.77.4-1.16.58h0a7,7,0,0,1-.7-.4A10,10,0,0,1,30.13,38a11.57,11.57,0,0,1-1-1.1,17,17,0,0,1-1.24-1.77l-.24-.42q-.32-.53-.6-1.08c-.19-.37-.38-.74-.56-1.12s-.28-.55-.41-.84c-.06-.12-.11-.25-.17-.37l-.36-.76-.36-.75c-.11-.22-.21-.44-.31-.66,0,0-.29-.62-.3-.64-.11-.24-.23-.47-.34-.71-.21-.45-.43-.9-.65-1.35-1.33-2.68-2.86-5.22-5.2-6.82-.16-.11-.32-.22-.49-.32s-.41-.23-.62-.34a7.77,7.77,0,0,0-.88-.38l-.13-.05a5.05,5.05,0,0,0-.55-.18,8,8,0,0,0-.81-.2h0L14.2,18a10.74,10.74,0,0,0-7.74,2.37c0-.11,0-.22,0-.33s.08-.52.14-.77a1.21,1.21,0,0,0,.05-.18A16.76,16.76,0,0,1,7.89,16Z"/><path fill="#a7cc36" d="M7.89,16a11.9,11.9,0,0,1,.7-1,13.5,13.5,0,0,1,8.35-.28c6.63,1.92,9.48,8,11.77,12.78l.1.22.56,1.18L29.92,30c1.25,2.59,2.26,4.56,4.08,5.8a4.32,4.32,0,0,0,2.12.46c.21,0,.43,0,.65,0a11,11,0,0,1-.92,1.27,15.43,15.43,0,0,1-2.12,1.59,9.94,9.94,0,0,1-1.18.46h0c-.23-.12-.46-.26-.69-.4a10.94,10.94,0,0,1-2.69-2.47A14.61,14.61,0,0,1,27.94,35l-.24-.42c-.21-.35-.4-.71-.59-1.08s-.38-.73-.56-1.11-.27-.55-.4-.84L26,31.13l-.36-.75q-.18-.36-.36-.75T25,29s-.28-.61-.29-.64c-.11-.24-.23-.47-.34-.71l-.65-1.34c-1.33-2.66-2.86-5.19-5.18-6.8L18,19.2c-.2-.12-.41-.24-.62-.34a8.53,8.53,0,0,0-.87-.39l-.13,0-.54-.19A7.54,7.54,0,0,0,15,18h0c-.23-.05-.46-.08-.69-.11a10.57,10.57,0,0,0-7.72,2.24v-.27c0-.22,0-.44,0-.64l.06-.18A16.37,16.37,0,0,1,7.89,16Z"/><path fill="#aed145" d="M7.89,16c.24-.33.48-.64.74-.94a13.49,13.49,0,0,1,8.28-.26c6.58,1.91,9.42,7.93,11.71,12.74l.1.22.56,1.18.55,1.14c1.21,2.54,2.22,4.49,4,5.74a3.91,3.91,0,0,0,2.06.55l.63,0a9.62,9.62,0,0,1-.64,1.17,15.43,15.43,0,0,1-2.12,1.59,7,7,0,0,1-1.19.33h0a6.71,6.71,0,0,1-.68-.4,9.46,9.46,0,0,1-1.69-1.37,10.26,10.26,0,0,1-1-1.1A18.54,18.54,0,0,1,28,34.81l-.24-.41c-.2-.36-.39-.72-.58-1.08s-.37-.74-.55-1.11-.27-.55-.4-.83c-.06-.13-.11-.25-.17-.37l-.36-.75-.36-.74c-.09-.21-.19-.41-.29-.62,0,0-.27-.58-.29-.64-.11-.23-.23-.46-.34-.7-.21-.44-.42-.88-.64-1.32-1.33-2.65-2.86-5.16-5.17-6.78l-.49-.31-.61-.35q-.42-.21-.87-.39l-.13-.05-.54-.19q-.4-.12-.81-.21h0c-.23-.05-.47-.09-.7-.12A10.46,10.46,0,0,0,6.71,20l0-.23a4.49,4.49,0,0,1,0-.51c0-.06,0-.12,0-.18A17.17,17.17,0,0,1,7.89,16Z"/><path fill="#b6d555" d="M7.89,16c.25-.31.51-.59.78-.87a13.32,13.32,0,0,1,8.21-.24c6.53,1.9,9.36,7.89,11.64,12.69l.1.22L29.18,29l.56,1.14c1.18,2.47,2.17,4.4,3.86,5.68a4,4,0,0,0,2,.63l.62.05c-.12.42-.25.79-.36,1.08a15.43,15.43,0,0,1-2.12,1.59,6.85,6.85,0,0,1-1.2.21h0c-.23-.12-.46-.26-.68-.4a10.22,10.22,0,0,1-1.67-1.38,11.33,11.33,0,0,1-1-1.11A17.23,17.23,0,0,1,28,34.67l-.24-.41q-.3-.52-.57-1.08c-.19-.36-.37-.73-.55-1.11s-.27-.54-.4-.82c-.05-.12-.11-.25-.17-.37l-.35-.74-.36-.74c-.09-.2-.18-.39-.28-.59l-.3-.64-.33-.69c-.21-.44-.42-.88-.64-1.32a17.54,17.54,0,0,0-5.16-6.75,3.94,3.94,0,0,0-.48-.31c-.2-.13-.4-.24-.61-.35a8.42,8.42,0,0,0-.86-.4l-.13-.05L16,18.11a6.87,6.87,0,0,0-.81-.22h0q-.35-.07-.69-.12a10.32,10.32,0,0,0-7.68,2,1.22,1.22,0,0,1-.07-.17q-.07-.21-.12-.39L6.71,19A16.75,16.75,0,0,1,7.89,16Z"/><path fill="#bed964" d="M7.89,16c.27-.29.54-.55.82-.81A13.22,13.22,0,0,1,16.85,15c6.49,1.88,9.31,7.85,11.58,12.63a1.47,1.47,0,0,0,.1.22L29.09,29l.55,1.15c1.15,2.41,2.13,4.33,3.76,5.62a4.11,4.11,0,0,0,1.92.71l.6.09c0,.39-.06.73-.07,1a15.43,15.43,0,0,1-2.12,1.59,7,7,0,0,1-1.21.09h0a7.66,7.66,0,0,1-.68-.41,10.06,10.06,0,0,1-1.65-1.38,11.35,11.35,0,0,1-1-1.12,15.62,15.62,0,0,1-1.17-1.78l-.24-.41c-.2-.35-.39-.71-.57-1.07s-.37-.73-.54-1.11l-.39-.82c-.06-.12-.12-.24-.17-.36L25.78,30c-.12-.24-.24-.48-.35-.73l-.27-.58c-.05-.09-.25-.54-.3-.63l-.33-.69c-.21-.43-.42-.87-.64-1.31a17.54,17.54,0,0,0-5.14-6.72,5.72,5.72,0,0,0-.48-.32c-.19-.12-.4-.24-.61-.35s-.55-.27-.85-.4l-.13-.05c-.18-.07-.36-.14-.54-.19a7.32,7.32,0,0,0-.8-.23h0a5.63,5.63,0,0,0-.69-.14A10.28,10.28,0,0,0,7,19.57l-.1-.12-.2-.26c0-.06,0-.12,0-.18A16.85,16.85,0,0,1,7.89,16Z"/><path fill="#c6dd74" d="M7.89,16c.28-.27.57-.51.87-.75a13.13,13.13,0,0,1,8-.18c6.45,1.87,9.26,7.81,11.52,12.58l.11.22c.18.41.37.8.55,1.18s.38.77.56,1.15c1.12,2.35,2.09,4.25,3.66,5.56a4.35,4.35,0,0,0,1.84.79c.2,0,.39.09.59.12a4,4,0,0,0,.21.89,15.43,15.43,0,0,1-2.12,1.59,6.36,6.36,0,0,1-1.23,0h0c-.23-.13-.45-.27-.67-.42a10.9,10.9,0,0,1-1.63-1.38,14.41,14.41,0,0,1-1-1.12,18.29,18.29,0,0,1-1.16-1.79L27.85,34c-.2-.35-.38-.71-.56-1.07s-.37-.73-.54-1.1L26.36,31l-.17-.36c-.12-.24-.23-.48-.35-.73l-.36-.73c-.08-.18-.16-.36-.26-.55L24.93,28l-.33-.69c-.21-.42-.42-.86-.64-1.29a17.51,17.51,0,0,0-5.12-6.7,5.72,5.72,0,0,0-.48-.32l-.6-.35c-.28-.15-.56-.28-.85-.41l-.13-.05c-.18-.08-.36-.14-.53-.2s-.53-.16-.81-.23h0a4.11,4.11,0,0,0-.68-.14,10.15,10.15,0,0,0-7.65,1.76L7,19.3l-.29-.13L6.72,19A15.75,15.75,0,0,1,7.89,16Z"/><path fill="#cee183" d="M7.89,16a11.32,11.32,0,0,1,.91-.68,13,13,0,0,1,8-.16C23.19,17,26,22.91,28.24,27.66l.1.23.56,1.17c.19.39.37.78.55,1.16,1.1,2.29,2.05,4.17,3.56,5.49a4.39,4.39,0,0,0,1.77.88,5.5,5.5,0,0,0,.58.16,2.1,2.1,0,0,0,.49.79,15.43,15.43,0,0,1-2.12,1.59A6.66,6.66,0,0,1,32.49,39h0a7.31,7.31,0,0,1-.66-.41,10.45,10.45,0,0,1-1.62-1.4A11.15,11.15,0,0,1,29.26,36a18.14,18.14,0,0,1-1.14-1.79c-.08-.13-.15-.27-.23-.41-.2-.35-.38-.7-.56-1.07s-.36-.72-.53-1.09l-.39-.81c-.05-.12-.11-.24-.17-.36s-.23-.48-.35-.73l-.35-.73-.25-.53L25,27.9l-.33-.68L24,25.93a17.63,17.63,0,0,0-5.11-6.67,4.87,4.87,0,0,0-.47-.32c-.2-.13-.41-.24-.61-.36a8.09,8.09,0,0,0-.84-.4l-.13-.06c-.17-.08-.36-.14-.53-.2s-.53-.17-.8-.24h0a5.67,5.67,0,0,0-.69-.15,10.06,10.06,0,0,0-7.63,1.65l-.17,0a2.28,2.28,0,0,0-.37,0c0-.06,0-.12,0-.18A17.28,17.28,0,0,1,7.89,16Z"/><path fill="#d6e593" d="M7.89,16c.32-.23.63-.43,1-.62a13,13,0,0,1,7.91-.13C23.11,17.07,25.9,23,28.14,27.7l.11.23c.19.4.38.79.55,1.17s.38.78.56,1.16a17,17,0,0,0,3.45,5.43,4.89,4.89,0,0,0,1.7,1l.56.18a2,2,0,0,0,.78.7,15.43,15.43,0,0,1-2.12,1.59,7.18,7.18,0,0,1-1.25-.27h0a7.39,7.39,0,0,1-.66-.42,10.64,10.64,0,0,1-2.52-2.53,19.23,19.23,0,0,1-1.14-1.78c-.07-.14-.14-.28-.22-.42-.2-.35-.38-.7-.55-1.06s-.36-.72-.53-1.09-.26-.54-.38-.81l-.17-.36c-.12-.23-.23-.47-.35-.71s-.23-.49-.35-.73-.15-.34-.24-.51l-.29-.63-.33-.67c-.21-.42-.41-.85-.63-1.28A17.85,17.85,0,0,0,19,19.2a4.76,4.76,0,0,0-.47-.31c-.2-.13-.41-.25-.6-.36a9.3,9.3,0,0,0-.84-.41L17,18.06a4.81,4.81,0,0,0-.53-.2,5,5,0,0,0-.8-.24h0a4.14,4.14,0,0,0-.68-.15A10,10,0,0,0,7.33,19l-.2,0a3.45,3.45,0,0,0-.46.12L6.73,19A16.29,16.29,0,0,1,7.89,16Z"/><path fill="#ddeaa2" d="M7.89,16a10.9,10.9,0,0,1,1-.55,12.85,12.85,0,0,1,7.83-.12C23,17.14,25.81,23,28.05,27.74l.1.22.56,1.18c.2.39.38.78.56,1.15a18,18,0,0,0,3.34,5.38,5.63,5.63,0,0,0,1.64,1l.54.22a2.37,2.37,0,0,0,1.06.6,15.43,15.43,0,0,1-2.12,1.59,6.33,6.33,0,0,1-1.26-.4h0a7.48,7.48,0,0,1-.66-.43,9.65,9.65,0,0,1-1.58-1.4,11.09,11.09,0,0,1-.91-1.14A17.83,17.83,0,0,1,28.19,34c-.07-.13-.15-.28-.23-.41-.19-.35-.37-.71-.54-1.07s-.36-.71-.52-1.09-.25-.53-.38-.8l-.17-.35c-.11-.23-.23-.47-.34-.71s-.24-.48-.35-.73-.15-.32-.23-.49-.22-.45-.29-.62L24.81,27c-.21-.41-.41-.84-.63-1.27a18,18,0,0,0-5.07-6.62l-.47-.32-.6-.36c-.27-.15-.55-.28-.83-.41L17.08,18a3.39,3.39,0,0,0-.53-.2,5.19,5.19,0,0,0-.79-.25h0a5.58,5.58,0,0,0-.68-.16,9.87,9.87,0,0,0-7.6,1.41,2.34,2.34,0,0,0-.24.09,5.22,5.22,0,0,0-.54.24L6.73,19A17,17,0,0,1,7.89,16Z"/><path fill="#e5eeb2" d="M7.89,16c.35-.18.69-.35,1-.49a12.73,12.73,0,0,1,7.75-.09C23,17.22,25.73,23.07,28,27.77a2.4,2.4,0,0,1,.11.23c.19.4.38.79.55,1.17s.38.78.56,1.16a19.09,19.09,0,0,0,3.25,5.32A6.25,6.25,0,0,0,34,36.78c.18.09.35.18.53.25a2.82,2.82,0,0,0,1.34.51,15.43,15.43,0,0,1-2.12,1.59,6.75,6.75,0,0,1-1.28-.52h0c-.22-.14-.44-.28-.65-.43a10.05,10.05,0,0,1-1.56-1.42,12,12,0,0,1-.9-1.13,20,20,0,0,1-1.11-1.79c-.07-.13-.14-.28-.22-.41-.19-.35-.36-.7-.53-1.06s-.36-.72-.52-1.09-.25-.53-.38-.8c-.05-.11-.11-.23-.16-.35s-.23-.46-.35-.7-.23-.48-.35-.72a3.31,3.31,0,0,0-.22-.47l-.29-.62c-.1-.22-.21-.44-.32-.66-.2-.42-.41-.84-.62-1.26a18.25,18.25,0,0,0-5.06-6.6,4.87,4.87,0,0,0-.47-.32c-.19-.13-.4-.25-.59-.36s-.55-.29-.83-.42l-.13-.06c-.17-.08-.35-.15-.52-.21a6.24,6.24,0,0,0-.8-.25h0a3.35,3.35,0,0,0-.68-.16,9.84,9.84,0,0,0-7.58,1.28l-.27.14a7,7,0,0,0-.63.38,1.21,1.21,0,0,0,.05-.18A16.75,16.75,0,0,1,7.89,16Z"/><path fill="#edf2c1" d="M35.85,37.54a15.43,15.43,0,0,1-2.12,1.59,7.36,7.36,0,0,1-1.29-.64,9.48,9.48,0,0,1-2.2-1.86,9.71,9.71,0,0,1-.89-1.14,17.77,17.77,0,0,1-1.09-1.79c-.07-.13-.14-.28-.22-.41-.19-.35-.36-.7-.53-1.06s-.35-.71-.51-1.08-.35-.75-.54-1.14l-.69-1.42c-.06-.15-.13-.29-.21-.45-.2-.42-.39-.84-.61-1.27l-.62-1.25a18.79,18.79,0,0,0-5-6.57,4.87,4.87,0,0,0-.47-.32c-.19-.13-.4-.25-.59-.37s-.54-.29-.82-.42l-.13-.06c-.17-.08-.35-.15-.52-.21a6.64,6.64,0,0,0-.79-.26h0a4.23,4.23,0,0,0-.68-.17A9.82,9.82,0,0,0,7.4,18.59a8.3,8.3,0,0,0-.71.5A16.68,16.68,0,0,1,7.89,16a12.48,12.48,0,0,1,8.76-.49c6.23,1.8,9,7.63,11.21,12.32.22.48.45,1,.66,1.4s.38.78.56,1.16c1.31,2.74,2.42,5.12,4.63,6.47A4.09,4.09,0,0,0,35.85,37.54Z"/><circle cx="24" cy="24" r="18" fill="url(#qcdLAcNRQdqeXmcKcTemqb)"/><circle cx="24" cy="24" r="18" fill="url(#qcdLAcNRQdqeXmcKcTemqc)" opacity=".7"/></g></svg>