<svg xmlns="http://www.w3.org/2000/svg" xmlns:xlink="http://www.w3.org/1999/xlink" viewBox="0 0 48 48"><defs><radialGradient id="TYIA~kFyGbuN~B_JcEU~re" cx="17.31" cy="15.76" r="28.24" gradientUnits="userSpaceOnUse"><stop offset="0" stop-color="#fcfdfd"/><stop offset=".2" stop-color="#f5f6f7"/><stop offset=".49" stop-color="#e0e1e8"/><stop offset=".52" stop-color="#dedfe6"/><stop offset=".63" stop-color="#d8dae2"/><stop offset=".77" stop-color="#c9cbd6"/><stop offset=".93" stop-color="#afb4c3"/><stop offset=".93" stop-color="#aeb3c2"/></radialGradient><radialGradient id="TYIA~kFyGbuN~B_JcEU~rd" cx="18.02" cy="17.09" r="20.01" gradientUnits="userSpaceOnUse"><stop offset="0" stop-color="#fefeff" stop-opacity=".7"/><stop offset=".98" stop-color="#fdfdfe" stop-opacity="0"/></radialGradient><radialGradient id="TYIA~kFyGbuN~B_JcEU~rf" cx="25.25" cy="18.72" r="20.76" gradientUnits="userSpaceOnUse"><stop offset=".98" stop-color="#f4f5f7"/><stop offset="1" stop-color="#f5f6f7" stop-opacity="0"/></radialGradient><radialGradient id="TYIA~kFyGbuN~B_JcEU~rg" cx="36.21" cy="13.94" r="2.89" gradientTransform="rotate(161.06 39.174 31.711) scale(1 3.55)" gradientUnits="userSpaceOnUse"><stop offset=".69" stop-color="#8e9db0"/><stop offset=".86" stop-color="#8e9cb0" stop-opacity="0"/></radialGradient><radialGradient id="TYIA~kFyGbuN~B_JcEU~rh" cx="25.11" cy="18.42" r="20.12" gradientUnits="userSpaceOnUse"><stop offset=".98" stop-color="#8e9cb0" stop-opacity="0"/><stop offset=".98" stop-color="#8e9cb0" stop-opacity=".26"/><stop offset=".99" stop-color="#8e9db0" stop-opacity=".52"/><stop offset=".99" stop-color="#8e9db0" stop-opacity=".73"/><stop offset=".99" stop-color="#8e9db0" stop-opacity=".88"/><stop offset="1" stop-color="#8e9db0" stop-opacity=".97"/><stop offset="1" stop-color="#8e9db0"/></radialGradient><radialGradient id="TYIA~kFyGbuN~B_JcEU~ri" cx="23.78" cy="17.78" r="17.31" gradientTransform="matrix(.6 .8 -.57 .43 19.62 -8.85)" gradientUnits="userSpaceOnUse"><stop offset=".93" stop-color="#a5b1c1" stop-opacity="0"/><stop offset=".93" stop-color="#a5b1c1" stop-opacity=".03"/><stop offset=".94" stop-color="#a5b1c1" stop-opacity=".32"/><stop offset=".95" stop-color="#a5b2c0" stop-opacity=".56"/><stop offset=".96" stop-color="#a5b2c0" stop-opacity=".75"/><stop offset=".97" stop-color="#a5b2c0" stop-opacity=".89"/><stop offset=".98" stop-color="#a5b2c0" stop-opacity=".97"/><stop offset=".98" stop-color="#a5b2c0"/></radialGradient><radialGradient id="TYIA~kFyGbuN~B_JcEU~rj" cx="22.63" cy="36" r="11.36" gradientTransform="matrix(-.05 1 -.51 -.03 42.28 14.3)" gradientUnits="userSpaceOnUse"><stop offset=".86" stop-color="#a5b1c1" stop-opacity="0"/><stop offset=".87" stop-color="#a5b1c1" stop-opacity=".03"/><stop offset=".89" stop-color="#a5b1c1" stop-opacity=".32"/><stop offset=".91" stop-color="#a5b2c0" stop-opacity=".56"/><stop offset=".93" stop-color="#a5b2c0" stop-opacity=".75"/><stop offset=".95" stop-color="#a5b2c0" stop-opacity=".89"/><stop offset=".97" stop-color="#a5b2c0" stop-opacity=".97"/><stop offset=".98" stop-color="#a5b2c0"/></radialGradient><radialGradient id="TYIA~kFyGbuN~B_JcEU~ra" cx="18.33" cy="33.13" r="7.38" gradientTransform="rotate(100.19 8.034 20.823) scale(1 .26)" gradientUnits="userSpaceOnUse"><stop offset=".74" stop-color="#f4f5f7"/><stop offset=".96" stop-color="#f5f6f7" stop-opacity="0"/></radialGradient><radialGradient id="TYIA~kFyGbuN~B_JcEU~rk" cx="29.72" cy="23.91" r="2.65" gradientTransform="matrix(-.33 -.94 5.23 -1.82 -85.66 95.5)" gradientUnits="userSpaceOnUse"><stop offset=".56" stop-color="#8e9db0"/><stop offset=".86" stop-color="#8e9cb0" stop-opacity="0"/></radialGradient><radialGradient id="TYIA~kFyGbuN~B_JcEU~rl" cx="16.6" cy="24.53" r="5.74" gradientTransform="matrix(-.45 -.89 3.79 -1.91 -68.82 86.29)" gradientUnits="userSpaceOnUse"><stop offset=".75" stop-color="#fff"/><stop offset="1" stop-color="#fff" stop-opacity="0"/></radialGradient><radialGradient id="TYIA~kFyGbuN~B_JcEU~rm" cx="27.48" cy="28.5" r="21.29" fx="12.214" gradientTransform="rotate(-114.37 27.801 28.009) scale(1 .97)" gradientUnits="userSpaceOnUse"><stop offset=".98" stop-color="#8e9db0"/><stop offset="1" stop-color="#8e9cb0" stop-opacity="0"/></radialGradient><radialGradient id="TYIA~kFyGbuN~B_JcEU~rn" cx="39.85" cy="24.23" r="1.04" gradientTransform="matrix(-.93245 .3613 -1.85708 -4.7928 122.01 125.94)" gradientUnits="userSpaceOnUse"><stop offset=".55" stop-color="#8e9db0"/><stop offset="1" stop-color="#8e9cb0" stop-opacity="0"/></radialGradient><radialGradient id="TYIA~kFyGbuN~B_JcEU~rb" cx="25.39" cy="33.33" r="2.03" gradientTransform="matrix(1 .01 -.08 6.07 2.8 -169.26)" gradientUnits="userSpaceOnUse"><stop offset=".54" stop-color="#8e9db0"/><stop offset=".94" stop-color="#8e9cb0" stop-opacity="0"/></radialGradient><radialGradient id="TYIA~kFyGbuN~B_JcEU~ro" cx="35.04" cy="30.24" r="3.19" gradientTransform="matrix(-.98873 .1497 -.37128 -2.45205 80.92 99.16)" xlink:href="#TYIA~kFyGbuN~B_JcEU~ra"/><radialGradient id="TYIA~kFyGbuN~B_JcEU~rp" cx="35.09" cy="32.29" r="2.24" gradientTransform="rotate(-5.22 -974.328 78.25) scale(1 3.85)" xlink:href="#TYIA~kFyGbuN~B_JcEU~rb"/><radialGradient id="TYIA~kFyGbuN~B_JcEU~rc" cx="32.08" cy="13.61" r="24.16" gradientTransform="matrix(.74 .67 -.6 .67 16.54 -17.01)" gradientUnits="userSpaceOnUse"><stop offset=".97" stop-color="#f5f6f7" stop-opacity="0"/><stop offset=".98" stop-color="#f5f6f7" stop-opacity=".24"/><stop offset=".98" stop-color="#f5f6f7" stop-opacity=".47"/><stop offset=".98" stop-color="#f4f5f7" stop-opacity=".66"/><stop offset=".99" stop-color="#f4f5f7" stop-opacity=".81"/><stop offset=".99" stop-color="#f4f5f7" stop-opacity=".91"/><stop offset="1" stop-color="#f4f5f7" stop-opacity=".98"/><stop offset="1" stop-color="#f4f5f7"/></radialGradient><radialGradient id="TYIA~kFyGbuN~B_JcEU~rq" cx="16.85" cy="35.74" r="1.12" gradientTransform="matrix(.74 .67 -.6 .67 25.98 .59)" xlink:href="#TYIA~kFyGbuN~B_JcEU~rc"/><radialGradient id="TYIA~kFyGbuN~B_JcEU~rr" cx="26.01" cy="33.32" r="2.5" gradientTransform="matrix(-.99696 -.07794 .38267 -4.89507 39.18 198.58)" xlink:href="#TYIA~kFyGbuN~B_JcEU~ra"/><radialGradient id="TYIA~kFyGbuN~B_JcEU~rs" cx="18.49" cy="16.15" r="27.63" gradientTransform="matrix(.78 .62 -.82 1.02 17.28 -11.94)" gradientUnits="userSpaceOnUse"><stop offset=".61" stop-color="#69778a" stop-opacity="0"/><stop offset=".69" stop-color="#69778a" stop-opacity=".04"/><stop offset=".8" stop-color="#69778a" stop-opacity=".16"/><stop offset=".93" stop-color="#69778a" stop-opacity=".36"/><stop offset="1" stop-color="#69778a" stop-opacity=".5"/></radialGradient><radialGradient id="TYIA~kFyGbuN~B_JcEU~rt" cx="17.51" cy="16.15" r="12.4" xlink:href="#TYIA~kFyGbuN~B_JcEU~rd"/></defs><g data-name="Volleyball"><path fill="url(#TYIA~kFyGbuN~B_JcEU~re)" d="M42,24v.31a17.15,17.15,0,0,1-.12,1.77c0,.17,0,.34-.07.51s-.09.6-.15.9c0,0,0,0,0,0-.1.47-.21.94-.34,1.4,0,.12-.06.23-.1.35a18.28,18.28,0,0,1-1.8,4h0a17.87,17.87,0,0,1-1.67,2.33c-.25.29-.5.56-.76.83h0c-.28.3-.58.59-.89.87h0l-.17.15-.14.13h0l-.39.33-.13.11-.26.2h0l0,0a17.45,17.45,0,0,1-2.3,1.5h0a17.91,17.91,0,0,1-3.73,1.52l-.87.22c-.25.06-.51.11-.77.15l-.6.1-.2,0-.37.05-.39,0h-.28l-.64,0h0L24,42c-.44,0-.87,0-1.3,0A18.38,18.38,0,0,1,18,41L18,41l-.38-.14-.64-.26-.06,0a17.48,17.48,0,0,1-4.68-3A16.22,16.22,0,0,1,10.58,36c-.37-.41-.71-.83-1-1.27h0a17.77,17.77,0,0,1-2.36-4.3h0a15.76,15.76,0,0,1-.77-2.62s0-.07,0-.11a14.34,14.34,0,0,1-.28-1.74.76.76,0,0,1,0-.15A14.93,14.93,0,0,1,6,24.27v0A1.77,1.77,0,0,1,6,24v-.1c0-.14,0-.28,0-.42s0-.51,0-.76v0l0-.28a1.1,1.1,0,0,1,0-.18,0,0,0,0,1,0,0c0-.17,0-.33.05-.5v0c0-.28.08-.56.13-.83a16.4,16.4,0,0,1,.52-2.12A5.76,5.76,0,0,1,7,18.16a17.67,17.67,0,0,1,2.71-5.07c.33-.43.67-.85,1-1.25l.08-.08,0,0a3.45,3.45,0,0,1,.26-.28,18.09,18.09,0,0,1,2.54-2.17L14,9.05a17.5,17.5,0,0,1,7.68-2.88c.15,0,.31,0,.47-.06l.27,0A13.88,13.88,0,0,1,24,6h0a16.65,16.65,0,0,1,1.88.11,17.62,17.62,0,0,1,3.71.79A16.5,16.5,0,0,1,32.26,8l.13.06.21.11h0l.09.05.24.14.17.1h0a10.53,10.53,0,0,1,1.06.67h0l0,0,.11.08a16.93,16.93,0,0,1,2.42,2.05l.32.32.18.19.18.2,0,0a1.29,1.29,0,0,1,.16.17q.28.33.54.66c.25.31.47.63.69.95l.08.12h0l.51.79a17.73,17.73,0,0,1,1.82,4.15A17.37,17.37,0,0,1,42,22.73C42,23.15,42,23.57,42,24Z"/><path fill="url(#TYIA~kFyGbuN~B_JcEU~rd)" d="M42,24v.31a18,18,0,0,1-.78,5,18.28,18.28,0,0,1-1.8,4h0a18,18,0,0,1-3.51,4.2l-.14.13h0c-.27.23-.54.46-.82.67a17.45,17.45,0,0,1-2.3,1.5h0a17.91,17.91,0,0,1-3.73,1.52l-.87.22a18.29,18.29,0,0,1-3.25.43h0L24,42c-.44,0-.87,0-1.3,0a17.81,17.81,0,0,1-10.5-4.37A16.22,16.22,0,0,1,10.58,36c-.37-.41-.71-.83-1-1.27h0a17.77,17.77,0,0,1-2.36-4.3h0A17.76,17.76,0,0,1,6,24.23,1.77,1.77,0,0,1,6,24v-.1c0-.4,0-.79,0-1.18h0c0-.34.06-.67.1-1s.08-.56.13-.83a16.4,16.4,0,0,1,.52-2.12A5.76,5.76,0,0,1,7,18.16a17.9,17.9,0,0,1,4.12-6.71,18.09,18.09,0,0,1,2.54-2.17L14,9.05a17.5,17.5,0,0,1,7.68-2.88c.15,0,.31,0,.47-.06l.27,0A13.88,13.88,0,0,1,24,6h0a17.78,17.78,0,0,1,8.35,2.08l.31.17a17.58,17.58,0,0,1,4.37,3.38,14,14,0,0,1,1.08,1.25c.25.31.47.63.69.95A17.86,17.86,0,0,1,42,22.73C42,23.15,42,23.57,42,24Z"/><path fill="url(#TYIA~kFyGbuN~B_JcEU~rf)" d="M17.23,36.51l-.48.88c-.08,0-.07.44-.14.4-3.86-2.16-8.68-6.37-10.2-10,0,0,0-.07,0-.11a14.34,14.34,0,0,1-.28-1.74.76.76,0,0,1,0-.15A14.93,14.93,0,0,1,6,24.27v0A1.77,1.77,0,0,1,6,24v-.1c0-.14,0-.28,0-.42C7.19,28.19,10.34,33,16.62,36.16h0Z" opacity=".3"/><path fill="#bac4d0" d="M19.81,29.19C18.14,33.76,17.47,37.74,18,41L18,41l-.38-.14-.64-.26a.83.83,0,0,1,0-.15,13.3,13.3,0,0,1-.26-3.68c0-.36,0-.68.08-1a32.76,32.76,0,0,1,1.58-6.63c0-.1.07-.2.1-.3l.47.15h1A2,2,0,0,1,19.81,29.19Z"/><path fill="#bac4d0" d="M17.44,36,17,36.9l-.22-.12C11.48,33.84,6.91,29.45,6,23.91H6c0-.4,0-.79,0-1.18v0l0-.28c1.07,4.89,4.22,9.92,10.75,13.25h0Z"/><path fill="#bac4d0" d="M19.21,28.54l-.34.36-.4.87-.23-.22c-4.31-4.11-8.77-9.95-8.55-16.46.33-.43.67-.85,1-1.25a19,19,0,0,0,0,2.95A10.59,10.59,0,0,0,11,16.18a17,17,0,0,0,2.39,5.61c.18.28.37.56.56.83a41.55,41.55,0,0,0,5.35,5.84C19.34,28.52,19.15,28.48,19.21,28.54Z"/><path fill="#bac4d0" d="M19,29.4,18.51,28c4.6-.65,17.39-4.14,20.76-6.9L40,22.19C36.54,24.82,23.52,28.85,19,29.4Z"/><path fill="#bac4d0" d="M26.45,41.83c-.25,0-.51.06-.76.09h-.28c1.56-3.65,1.38-11.37,1.21-14.51a4.5,4.5,0,0,0-.08-.62l1-.16c0,.11.28.18.29.4C28,29.28,28.28,37.67,26.45,41.83Z"/><path fill="#bac4d0" d="M36.08,37.34h0l-.17.15-.14.13h0l-.39.33a11,11,0,0,0,.9-1.8c1.29-4.2-.88-9.32-1.88-11.2-.08-.13-.14-.25-.2-.35-.18-.3,0-.29,0-.3l.88-.45a1.94,1.94,0,0,1,.34.5,1.09,1.09,0,0,0,.08.15C36.57,26.64,39.09,33.36,36.08,37.34Z"/><path fill="#bac4d0" d="M34.22,9.18c-9.38-4.28-19.34,1.34-23.24,7a2.14,2.14,0,0,0-.13.19L10,15.81c.23-.34.41,0,.68-.38C15.13,9.74,23.92,4.86,32.33,8.15c.19.07.48.2.78.34h0C33.5,8.7,33.87,8.94,34.22,9.18Z"/><path fill="#bac4d0" d="M41.81,26.59c0,.31-.09.6-.15.9a15.78,15.78,0,0,0-2.12-5A1.75,1.75,0,0,1,39.3,22l-.07-.13v-.14c0-.08,0-.16,0-.24a19.76,19.76,0,0,0-.84-6.66c-.11-.38-.23-.73-.35-1.07a23.58,23.58,0,0,0-1.31-2.48l.32.32.18.19.18.2,0,0a18.84,18.84,0,0,1,2.86,9.55A17.25,17.25,0,0,1,41.81,26.59Z"/><path fill="url(#TYIA~kFyGbuN~B_JcEU~rg)" d="M41.81,26.59c0,.31-.09.6-.15.9a15.78,15.78,0,0,0-2.12-5l-.27-1.4a20.08,20.08,0,0,0-.86-6.25c-.11-.38-.23-.73-.35-1.07a23.58,23.58,0,0,0-1.31-2.48l.32.32.18.19.18.2,0,0a18.84,18.84,0,0,1,2.86,9.55A17.25,17.25,0,0,1,41.81,26.59Z" opacity=".4"/><path fill="#bac4d0" d="M38.41,14.86c-5.1-1.07-16.72,2.46-24.64,7.86-.13.09-.1.09-.23.19l-.6-.8c.14-.11.08-.28.22-.39,8.09-5.41,20-8.9,25-7.79Z"/><path fill="url(#TYIA~kFyGbuN~B_JcEU~rh)" d="M16.64,36.73C11.38,33.79,6.91,29.45,6,23.91H6c0-.4,0-.79,0-1.18v0l0-.28c1.07,4.89,4.12,9.87,10.65,13.2Z" opacity=".4"/><path fill="url(#TYIA~kFyGbuN~B_JcEU~ri)" d="M18.16,29.48c-4.28-4.11-8.69-9.92-8.47-16.39.33-.43.67-.85,1-1.25a19,19,0,0,0,0,2.95A10.59,10.59,0,0,0,11,16.18a17,17,0,0,0,2.39,5.61c.18.28.37.56.56.83a47.92,47.92,0,0,0,4.53,5.87l.42.42Z"/><path fill="url(#TYIA~kFyGbuN~B_JcEU~rj)" d="M19.73,29.4C18.27,33.64,17.5,37.93,18,41L18,41l-.38-.14-.64-.26a.83.83,0,0,1,0-.15,13.3,13.3,0,0,1-.26-3.68c0-.36,0-.68.08-1a31.72,31.72,0,0,1,1.44-6.2l.55-.45Z"/><path fill="url(#TYIA~kFyGbuN~B_JcEU~ra)" d="M18,30.09a29.62,29.62,0,0,0-1.24,5.53l-.59-.32a32.76,32.76,0,0,1,1.13-5.9Z" opacity=".5"/><path fill="url(#TYIA~kFyGbuN~B_JcEU~rk)" d="M18.77,28c4.87-.77,17.22-4.17,20.5-6.86l.27,1.4c-3.77,2.48-14.8,5.9-19.75,6.74Z" opacity=".6"/><path fill="url(#TYIA~kFyGbuN~B_JcEU~rl)" d="M38.09,13.93c-4.91-1.1-16.73,2.35-24.81,7.71-.24-.38-.47-.77-.68-1.16,8-5.31,19.93-8.78,24.93-7.79a9.17,9.17,0,0,1,.47,1Z" opacity=".6"/><path fill="url(#TYIA~kFyGbuN~B_JcEU~rm)" d="M34.22,9.18c-9.38-4.28-19.34,1.34-23.24,7l-.17-.91C15.29,9.65,24,4.89,32.33,8.15c.19.07.48.2.78.34h0C33.5,8.7,33.87,8.94,34.22,9.18Z" opacity=".4"/><path fill="url(#TYIA~kFyGbuN~B_JcEU~rn)" d="M41.66,27.49a15.78,15.78,0,0,0-2.12-5l.54-.64C40.61,22.68,41.81,26.53,41.66,27.49Z" opacity=".4"/><path fill="url(#TYIA~kFyGbuN~B_JcEU~rb)" d="M26.45,41.83c-.25,0-.51.06-.76.09h-.28C27,38.35,26.8,30.81,26.63,27.58h0l1.2-.35C28,29.68,28.24,37.77,26.45,41.83Z" opacity=".6"/><path fill="url(#TYIA~kFyGbuN~B_JcEU~ro)" d="M37.74,35.63c-.25.29-.5.56-.76.83h0c-.28.3-.58.59-.89.87,3-4,.49-10.7-.59-12.82l.8-.34C37,25.59,39.3,31.16,37.74,35.63Z" opacity=".4"/><path fill="url(#TYIA~kFyGbuN~B_JcEU~rp)" d="M36.08,37.34h0l-.17.15-.14.13h0l-.39.33a11,11,0,0,0,.9-1.8c1.29-4.2-.88-9.32-1.88-11.2l1.11-.45C36.57,26.64,39.09,33.36,36.08,37.34Z" opacity=".6"/><path fill="url(#TYIA~kFyGbuN~B_JcEU~rc)" d="M18.16,29.48c-.06.21-.13.41-.19.61C13.71,26,9.1,20,9.32,13.54c.23-.3.46-.59.71-.88-.12.14-.23.29-.34.43C9.47,19.56,13.88,25.37,18.16,29.48Z" opacity=".6"/><path fill="url(#TYIA~kFyGbuN~B_JcEU~rq)" d="M16.72,35.68l-.08,1C16.66,36.37,16.68,36.05,16.72,35.68Z" opacity=".6"/><path fill="url(#TYIA~kFyGbuN~B_JcEU~rr)" d="M27.25,41.7l-.6.1-.2,0c1.79-4.06,1.51-12.15,1.38-14.61l.75-.23C28.72,30.2,28.83,37.5,27.25,41.7Z" opacity=".5"/><path fill="url(#TYIA~kFyGbuN~B_JcEU~rs)" d="M42,24v.31a18,18,0,0,1-.78,5,18.28,18.28,0,0,1-1.8,4h0a18,18,0,0,1-3.51,4.2l-.14.13h0c-.27.23-.54.46-.82.67a17.45,17.45,0,0,1-2.3,1.5h0a17.91,17.91,0,0,1-3.73,1.52l-.87.22a18.29,18.29,0,0,1-3.25.43h0L24,42c-.44,0-.87,0-1.3,0a17.81,17.81,0,0,1-10.5-4.37A16.22,16.22,0,0,1,10.58,36c-.37-.41-.71-.83-1-1.27h0a17.77,17.77,0,0,1-2.36-4.3h0A17.76,17.76,0,0,1,6,24.23,1.77,1.77,0,0,1,6,24v-.1c0-.4,0-.79,0-1.18h0c0-.34.06-.67.1-1s.08-.56.13-.83a16.4,16.4,0,0,1,.52-2.12A5.76,5.76,0,0,1,7,18.16a17.9,17.9,0,0,1,4.12-6.71,18.09,18.09,0,0,1,2.54-2.17L14,9.05a17.5,17.5,0,0,1,7.68-2.88c.15,0,.31,0,.47-.06l.27,0A13.88,13.88,0,0,1,24,6h0a17.78,17.78,0,0,1,8.35,2.08l.31.17a17.58,17.58,0,0,1,4.37,3.38,14,14,0,0,1,1.08,1.25c.25.31.47.63.69.95A17.86,17.86,0,0,1,42,22.73C42,23.15,42,23.57,42,24Z"/><path fill="url(#TYIA~kFyGbuN~B_JcEU~rt)" d="M42,24v.31a18,18,0,0,1-.78,5,18.28,18.28,0,0,1-1.8,4h0a18,18,0,0,1-3.51,4.2l-.14.13h0c-.27.23-.54.46-.82.67a17.45,17.45,0,0,1-2.3,1.5h0a17.91,17.91,0,0,1-3.73,1.52l-.87.22a18.29,18.29,0,0,1-3.25.43h0L24,42c-.44,0-.87,0-1.3,0a17.81,17.81,0,0,1-10.5-4.37A16.22,16.22,0,0,1,10.58,36c-.37-.41-.71-.83-1-1.27h0a17.77,17.77,0,0,1-2.36-4.3h0A17.76,17.76,0,0,1,6,24.23,1.77,1.77,0,0,1,6,24v-.1c0-.4,0-.79,0-1.18h0c0-.34.06-.67.1-1s.08-.56.13-.83a16.4,16.4,0,0,1,.52-2.12A5.76,5.76,0,0,1,7,18.16a17.9,17.9,0,0,1,4.12-6.71,18.09,18.09,0,0,1,2.54-2.17L14,9.05a17.5,17.5,0,0,1,7.68-2.88c.15,0,.31,0,.47-.06l.27,0A13.88,13.88,0,0,1,24,6h0a17.78,17.78,0,0,1,8.35,2.08l.31.17a17.58,17.58,0,0,1,4.37,3.38,14,14,0,0,1,1.08,1.25c.25.31.47.63.69.95A17.86,17.86,0,0,1,42,22.73C42,23.15,42,23.57,42,24Z"/></g></svg>