<svg xmlns="http://www.w3.org/2000/svg" viewBox="0 0 48 48"><linearGradient id="1DeB9yIUSHGamP3cGt9Qua" x1="23.99" x2="23.99" y1="8.745" y2="43.513" gradientUnits="userSpaceOnUse"><stop offset=".279" stop-color="#ab542c"/><stop offset=".748" stop-color="#84340d"/><stop offset="1" stop-color="#752700"/></linearGradient><path fill="url(#1DeB9yIUSHGamP3cGt9Qua)" d="M39.819,17.544l-1.865-1.169c-0.083-0.052-0.189-0.035-0.246,0.045 c-0.37,0.514-1.706,2.367-2.736,3.779c-0.201,0.275-0.636,0.138-0.636-0.203c0-2.48,0-8.498,0-9.62 c0-0.103-0.083-0.181-0.186-0.181H13.658c-0.103,0-0.186,0.083-0.186,0.186v13.684c0,0.168-0.205,0.249-0.32,0.128l-3.568-3.747 c-0.072-0.076-0.192-0.077-0.266-0.003l-1.19,1.19c-0.061,0.061-0.072,0.155-0.027,0.229l4.3,6.998 c0.7,1.14,1.071,2.452,1.071,3.789v5.004c-0.001,0.028-0.01,0.055-0.01,0.084c0,2.377,4.675,4.303,10.442,4.303 c5.767,0,10.442-1.927,10.442-4.303c0-0.029-0.009-0.056-0.01-0.085v-7.991c0-0.761,0.183-1.51,0.532-2.186l5.017-9.689 C39.929,17.701,39.9,17.595,39.819,17.544z"/><path fill="#7eab08" d="M12.164,17.7c0.358,1.17-0.178,1.91-0.835,2.111c-0.657,0.201-1.527-0.046-1.885-1.216 s0.551-3.408,0.551-3.408C10.615,16.116,11.807,16.53,12.164,17.7z"/><ellipse cx="23.904" cy="10.263" fill="#d46831" rx="10.442" ry="4.303"/><ellipse cx="23.904" cy="10.045" fill="#ffc15c" rx="9.227" ry="3.465"/><path fill="#ffa336" d="M23.104,13.116c-0.585,0-1.15-0.028-1.685-0.085l-0.013-0.002 c-1.965-0.246-3.695-0.802-4.746-1.526c-1.072-0.738-1.318-1.576-0.676-2.301c1.414-1.328,4.832-2.287,8.133-2.287 c2.081,0,4.786,0.272,6.139,1.034c1.243,0.7,2.051,1.614,2.011,2.274c-0.044,0.71-1.451,1.533-3.672,2.147 C26.838,12.857,24.884,13.116,23.104,13.116z M21.605,12.796c1.965,0.21,4.433-0.023,6.602-0.623 c2.031-0.562,3.369-1.329,3.407-1.956c0.031-0.511-0.544-1.368-1.901-2.133c-1.21-0.682-3.684-0.925-5.596-0.925 c-2.996,0-6.229,0.914-7.521,2.126c-0.579,0.653-0.35,1.421,0.635,2.099C18.204,12.055,19.798,12.569,21.605,12.796z"/><path fill="#ffa336" d="M24.101,12.393c-0.788,0-1.578-0.051-2.328-0.155c-1.848-0.257-3.209-0.785-3.833-1.489 c-0.599-0.675-0.298-1.407,0.825-2.008c1.238-0.663,3.236-1.071,5.344-1.091c1.42-0.012,2.899,0.229,4.091,0.684 c1.375,0.525,2.184,1.25,2.111,1.892c-0.031,0.271-0.32,1.201-2.753,1.81l-0.013,0.003 C26.505,12.273,25.306,12.393,24.101,12.393z M24.226,7.894c-0.033,0-0.067,0-0.101,0c-1.874,0.018-3.723,0.396-4.827,0.987 c-1.018,0.545-1.281,1.181-0.74,1.79c0.56,0.632,1.783,1.106,3.441,1.337c1.708,0.238,3.653,0.171,5.203-0.177 c2.171-0.545,2.429-1.374,2.456-1.616c0.066-0.576-0.672-1.231-1.925-1.709C26.699,8.11,25.457,7.894,24.226,7.894z"/><path fill="#ffa336" d="M23.688,11.681c-1.629,0-2.956-0.315-3.773-0.915c-0.632-0.465-0.527-1.059,0.274-1.551 c0.848-0.52,2.316-0.831,3.928-0.831c2.046,0,4.238,0.738,4.238,1.836c0,0.636-1.005,1.112-2.831,1.34 C24.88,11.641,24.265,11.681,23.688,11.681z M24.117,8.629c-1.403,0-2.632,0.26-3.371,0.714c-0.684,0.42-0.78,0.922-0.25,1.311 c1.293,0.95,3.578,0.83,4.822,0.674c1.971-0.247,2.385-0.739,2.385-1.108C27.703,9.283,25.813,8.629,24.117,8.629z"/><path fill="#ffa336" d="M24.117,10.71c-0.652,0-1.956-0.245-1.956-0.734c0-0.245,0.652-0.734,1.956-0.734 c0.652,0,1.853,0.188,1.956,0.734C26.122,10.235,25.421,10.71,24.117,10.71z"/><polygon fill="#d46831" points="28.071,13.27 26.923,11.721 29.134,13.078"/><polygon fill="#d46831" points="17.016,7.41 20.503,8.688 17.994,6.947"/><polygon fill="#d46831" points="29.383,7.136 28.009,8.163 30.319,7.28"/><path fill="#d46831" d="M32.238,8.193c-0.085,0.048-3.827,1.022-3.827,1.022l4.598-0.574L32.238,8.193z"/><polygon fill="#d46831" points="19.95,13.35 21.013,12.264 19.185,13.27 20.078,13.414"/><ellipse cx="38.885" cy="16.958" fill="#ffc15c" rx=".652" ry="1.273" transform="rotate(-57.92 38.885 16.959)"/><ellipse cx="8.739" cy="21.022" fill="#ffc15c" rx="1.01" ry=".353" transform="rotate(-45.001 8.739 21.022)"/><path fill="#ab542c" d="M10.666,21.813c0,0,0.75-1.359,0.104-4.173c0,0,1.11,1.369,0.249,4.433L10.666,21.813z"/></svg>