<svg xmlns="http://www.w3.org/2000/svg" viewBox="0 0 48 48"><radialGradient id="whXayx5xPmGx3g8AUXu_Ta" cx="24" cy="1.989" r="3.215" gradientUnits="userSpaceOnUse"><stop offset="0" stop-color="#338000"/><stop offset="1" stop-color="#afe35b"/></radialGradient><path fill="url(#whXayx5xPmGx3g8AUXu_Ta)" d="M25,6.009c0-1.015,1-1.399,1-2.397C26,3.06,25.578,2,24,2s-2,1.06-2,1.612C22,4.61,23,5,23,6	v1.2h2V6.009z"/><radialGradient id="whXayx5xPmGx3g8AUXu_Tb" cx="24" cy="235.189" r="3.215" gradientTransform="rotate(180 24 140.6)" gradientUnits="userSpaceOnUse"><stop offset="0" stop-color="#338000"/><stop offset="1" stop-color="#afe35b"/></radialGradient><path fill="url(#whXayx5xPmGx3g8AUXu_Tb)" d="M23,41.991c0,1.015-1,1.399-1,2.397C22,44.94,22.422,46,24,46s2-1.06,2-1.612	C26,43.39,25,43,25,42v-1.2h-2V41.991z"/><radialGradient id="whXayx5xPmGx3g8AUXu_Tc" cx="-112" cy="137.989" r="3.215" gradientTransform="rotate(90 24 160)" gradientUnits="userSpaceOnUse"><stop offset="0" stop-color="#338000"/><stop offset="1" stop-color="#afe35b"/></radialGradient><path fill="url(#whXayx5xPmGx3g8AUXu_Tc)" d="M41.991,25c1.015,0,1.399,1,2.397,1C44.94,26,46,25.578,46,24s-1.06-2-1.612-2	C43.39,22,43,23,42,23h-1.2v2H41.991z"/><radialGradient id="whXayx5xPmGx3g8AUXu_Td" cx="160" cy="99.189" r="3.215" gradientTransform="rotate(-90 43.4 140.6)" gradientUnits="userSpaceOnUse"><stop offset="0" stop-color="#338000"/><stop offset="1" stop-color="#afe35b"/></radialGradient><path fill="url(#whXayx5xPmGx3g8AUXu_Td)" d="M6.009,23c-1.015,0-1.399-1-2.397-1C3.06,22,2,22.422,2,24s1.06,2,1.612,2C4.61,26,5,25,6,25	h1.2v-2H6.009z"/><radialGradient id="whXayx5xPmGx3g8AUXu_Te" cx="92" cy="21.287" r="2.55" gradientTransform="rotate(-30 23.992 160)" gradientUnits="userSpaceOnUse"><stop offset="0" stop-color="#338000"/><stop offset="1" stop-color="#afe35b"/></radialGradient><path fill="url(#whXayx5xPmGx3g8AUXu_Te)" d="M15.815,8.236c-0.403-0.697,0.132-1.358-0.264-2.043c-0.219-0.379-0.929-0.94-2.013-0.314	S12.584,7.4,12.803,7.779c0.396,0.686,1.238,0.557,1.634,1.244l0.476,0.824l1.374-0.793L15.815,8.236z"/><radialGradient id="whXayx5xPmGx3g8AUXu_Tf" cx="-44" cy="216.969" r="3.215" gradientTransform="rotate(150 18.802 140.602)" gradientUnits="userSpaceOnUse"><stop offset="0" stop-color="#338000"/><stop offset="1" stop-color="#afe35b"/></radialGradient><path fill="url(#whXayx5xPmGx3g8AUXu_Tf)" d="M32.13,40.081c0.508,0.879-0.167,1.712,0.332,2.576c0.276,0.478,1.171,1.185,2.538,0.396	s1.202-1.918,0.926-2.396c-0.499-0.864-1.56-0.702-2.06-1.568l-0.6-1.039l-1.732,1L32.13,40.081z"/><radialGradient id="whXayx5xPmGx3g8AUXu_Tg" cx="-93.647" cy="72.037" r="3.215" gradientTransform="rotate(60 24.003 160.003)" gradientUnits="userSpaceOnUse"><stop offset="0" stop-color="#338000"/><stop offset="1" stop-color="#afe35b"/></radialGradient><path fill="url(#whXayx5xPmGx3g8AUXu_Tg)" d="M38.373,17.009c0.879-0.508,1.712,0.167,2.576-0.332c0.478-0.276,1.185-1.171,0.396-2.538	c-0.789-1.366-1.918-1.202-2.396-0.926c-0.864,0.499-0.702,1.56-1.568,2.06l-1.039,0.6l1,1.732L38.373,17.009z"/><radialGradient id="whXayx5xPmGx3g8AUXu_Th" cx="141.801" cy="169.156" r="3.215" gradientTransform="rotate(-120 35.2 140.601)" gradientUnits="userSpaceOnUse"><stop offset="0" stop-color="#338000"/><stop offset="1" stop-color="#afe35b"/></radialGradient><path fill="url(#whXayx5xPmGx3g8AUXu_Th)" d="M9.612,31.128C8.732,31.636,7.9,30.961,7.036,31.46c-0.478,0.276-1.185,1.171-0.396,2.538	c0.789,1.366,1.918,1.202,2.396,0.926c0.864-0.499,0.702-1.56,1.568-2.06l1.039-0.6l-1-1.732L9.612,31.128z"/><radialGradient id="whXayx5xPmGx3g8AUXu_Ti" cx="141.779" cy="69.989" r="3.215" gradientTransform="rotate(-60 23.998 160.004)" gradientUnits="userSpaceOnUse"><stop offset="0" stop-color="#338000"/><stop offset="1" stop-color="#afe35b"/></radialGradient><path fill="url(#whXayx5xPmGx3g8AUXu_Ti)" d="M8.919,14.138c-0.879-0.508-0.712-1.566-1.576-2.065C6.865,11.798,5.736,11.634,4.947,13	s-0.082,2.262,0.396,2.538c0.864,0.499,1.702-0.172,2.568,0.328l1.039,0.6l1-1.732L8.919,14.138z"/><radialGradient id="whXayx5xPmGx3g8AUXu_Tj" cx="-93.808" cy="166.626" r="3.934" gradientTransform="rotate(120 12.801 140.6)" gradientUnits="userSpaceOnUse"><stop offset="0" stop-color="#338000"/><stop offset="1" stop-color="#afe35b"/></radialGradient><path fill="url(#whXayx5xPmGx3g8AUXu_Tj)" d="M38.692,33.862c1.076,0.621,0.871,1.916,1.928,2.526c0.585,0.338,1.966,0.539,2.932-1.133	s0.101-2.768-0.484-3.106c-1.058-0.611-2.083,0.21-3.143-0.401l-1.272-0.734l-1.224,2.12L38.692,33.862z"/><radialGradient id="whXayx5xPmGx3g8AUXu_Tk" cx="-44" cy="20.21" r="3.215" gradientTransform="rotate(30 24.007 159.997)" gradientUnits="userSpaceOnUse"><stop offset="0" stop-color="#338000"/><stop offset="1" stop-color="#afe35b"/></radialGradient><path fill="url(#whXayx5xPmGx3g8AUXu_Tk)" d="M33.862,8.919c0.508-0.879,1.566-0.712,2.065-1.576c0.276-0.478,0.44-1.607-0.926-2.396	s-2.262-0.082-2.538,0.396c-0.499,0.864,0.172,1.702-0.328,2.568l-0.6,1.039l1.732,1L33.862,8.919z"/><radialGradient id="whXayx5xPmGx3g8AUXu_Tl" cx="92" cy="216.969" r="3.215" gradientTransform="rotate(-150 29.2 140.602)" gradientUnits="userSpaceOnUse"><stop offset="0" stop-color="#338000"/><stop offset="1" stop-color="#afe35b"/></radialGradient><path fill="url(#whXayx5xPmGx3g8AUXu_Tl)" d="M14.138,39.081c-0.508,0.879-1.566,0.712-2.065,1.576c-0.276,0.478-0.44,1.607,0.926,2.396	s2.262,0.082,2.538-0.396c0.499-0.864-0.172-1.702,0.328-2.568l0.6-1.039l-1.732-1L14.138,39.081z"/><radialGradient id="whXayx5xPmGx3g8AUXu_Tm" cx="24" cy="24" r="17" gradientUnits="userSpaceOnUse"><stop offset="0" stop-color="#338000"/><stop offset=".287" stop-color="#368202"/><stop offset=".459" stop-color="#3e8908"/><stop offset=".6" stop-color="#4c9412"/><stop offset=".725" stop-color="#60a421"/><stop offset=".839" stop-color="#7bb935"/><stop offset=".943" stop-color="#9ad24c"/><stop offset="1" stop-color="#afe35b"/></radialGradient><circle cx="24" cy="24" r="17" fill="url(#whXayx5xPmGx3g8AUXu_Tm)"/><radialGradient id="whXayx5xPmGx3g8AUXu_Tn" cx="26" cy="20" r="4" gradientUnits="userSpaceOnUse"><stop offset="0" stop-color="#338000"/><stop offset=".227" stop-color="#4a9311"/><stop offset=".702" stop-color="#86c33d"/><stop offset="1" stop-color="#afe35b"/></radialGradient><circle cx="26" cy="20" r="4" fill="url(#whXayx5xPmGx3g8AUXu_Tn)"/><radialGradient id="whXayx5xPmGx3g8AUXu_To" cx="17" cy="30" r="3" gradientUnits="userSpaceOnUse"><stop offset="0" stop-color="#338000"/><stop offset=".227" stop-color="#4a9311"/><stop offset=".702" stop-color="#86c33d"/><stop offset="1" stop-color="#afe35b"/></radialGradient><circle cx="17" cy="30" r="3" fill="url(#whXayx5xPmGx3g8AUXu_To)"/><radialGradient id="whXayx5xPmGx3g8AUXu_Tp" cx="32" cy="31" r="3" gradientUnits="userSpaceOnUse"><stop offset="0" stop-color="#338000"/><stop offset=".227" stop-color="#4a9311"/><stop offset=".702" stop-color="#86c33d"/><stop offset="1" stop-color="#afe35b"/></radialGradient><circle cx="32" cy="31" r="3" fill="url(#whXayx5xPmGx3g8AUXu_Tp)"/><radialGradient id="whXayx5xPmGx3g8AUXu_Tq" cx="36" cy="23" r="2" gradientUnits="userSpaceOnUse"><stop offset="0" stop-color="#338000"/><stop offset=".227" stop-color="#4a9311"/><stop offset=".702" stop-color="#86c33d"/><stop offset="1" stop-color="#afe35b"/></radialGradient><circle cx="36" cy="23" r="2" fill="url(#whXayx5xPmGx3g8AUXu_Tq)"/><radialGradient id="whXayx5xPmGx3g8AUXu_Tr" cx="28" cy="11" r="2" gradientUnits="userSpaceOnUse"><stop offset="0" stop-color="#338000"/><stop offset=".227" stop-color="#4a9311"/><stop offset=".702" stop-color="#86c33d"/><stop offset="1" stop-color="#afe35b"/></radialGradient><circle cx="28" cy="11" r="2" fill="url(#whXayx5xPmGx3g8AUXu_Tr)"/><radialGradient id="whXayx5xPmGx3g8AUXu_Ts" cx="24" cy="37.4" r="3" gradientTransform="matrix(1 0 0 .8333 0 5.333)" gradientUnits="userSpaceOnUse"><stop offset="0" stop-color="#338000"/><stop offset=".227" stop-color="#4a9311"/><stop offset=".702" stop-color="#86c33d"/><stop offset="1" stop-color="#afe35b"/></radialGradient><ellipse cx="24" cy="36.5" fill="url(#whXayx5xPmGx3g8AUXu_Ts)" rx="3" ry="2.5"/><radialGradient id="whXayx5xPmGx3g8AUXu_Tt" cx="31.879" cy="11.697" r="3.53" gradientTransform="rotate(45.001 27.16 14.166) scale(1 .6667)" gradientUnits="userSpaceOnUse"><stop offset="0" stop-color="#338000"/><stop offset=".227" stop-color="#4a9311"/><stop offset=".702" stop-color="#86c33d"/><stop offset="1" stop-color="#afe35b"/></radialGradient><path fill="url(#whXayx5xPmGx3g8AUXu_Tt)" d="M37.496,15.496c-0.919,0.919-2.781,0.546-4.16-0.832c-1.378-1.378-1.751-3.241-0.832-4.16	c0.919-0.919,2.781-0.546,4.16,0.832C38.042,12.715,38.415,14.577,37.496,15.496z"/><radialGradient id="whXayx5xPmGx3g8AUXu_Tu" cx="13" cy="21" r="3" gradientUnits="userSpaceOnUse"><stop offset="0" stop-color="#338000"/><stop offset=".227" stop-color="#4a9311"/><stop offset=".702" stop-color="#86c33d"/><stop offset="1" stop-color="#afe35b"/></radialGradient><circle cx="13" cy="21" r="3" fill="url(#whXayx5xPmGx3g8AUXu_Tu)"/><radialGradient id="whXayx5xPmGx3g8AUXu_Tv" cx="19" cy="12" r="3" gradientUnits="userSpaceOnUse"><stop offset="0" stop-color="#338000"/><stop offset=".227" stop-color="#4a9311"/><stop offset=".702" stop-color="#86c33d"/><stop offset="1" stop-color="#afe35b"/></radialGradient><circle cx="19" cy="12" r="3" fill="url(#whXayx5xPmGx3g8AUXu_Tv)"/></svg>