<svg xmlns="http://www.w3.org/2000/svg" viewBox="0 0 48 48"><path fill="#b3b3b3" d="M34,9h-3V8c0-0.552,0.448-1,1-1h1c0.552,0,1,0.448,1,1V9z"/><path fill="#b3b3b3" d="M17,9h-3V8c0-0.552,0.448-1,1-1h1c0.552,0,1,0.448,1,1V9z"/><path fill="none" stroke="#b3b3b3" stroke-linejoin="round" stroke-miterlimit="10" stroke-width="2" d="M20,8V4c0-0.552,0.448-1,1-1	h6c0.552,0,1,0.448,1,1v4"/><radialGradient id="p5lU_NCe4~A9xf~e_a5bDa" cx="32" cy="41" r="2" gradientUnits="userSpaceOnUse"><stop offset=".33" stop-color="#1f1f1f"/><stop offset=".462" stop-color="#4d4d4d"/><stop offset=".759" stop-color="#4d4d4d"/><stop offset=".829" stop-color="#3b3b3b"/><stop offset="1" stop-color="#141414"/></radialGradient><circle cx="32" cy="41" r="2" fill="url(#p5lU_NCe4~A9xf~e_a5bDa)"/><linearGradient id="p5lU_NCe4~A9xf~e_a5bDb" x1="32" x2="32" y1="40.01" y2="40.859" gradientUnits="userSpaceOnUse"><stop offset="0" stop-color="#141414"/><stop offset="1" stop-color="#141414" stop-opacity="0"/></linearGradient><path fill="url(#p5lU_NCe4~A9xf~e_a5bDb)" d="M32,39c1.105,0,2,0.895,2,2h-4C30,39.895,30.895,39,32,39z"/><radialGradient id="p5lU_NCe4~A9xf~e_a5bDc" cx="16" cy="41" r="2" gradientUnits="userSpaceOnUse"><stop offset=".33" stop-color="#1f1f1f"/><stop offset=".462" stop-color="#4d4d4d"/><stop offset=".759" stop-color="#4d4d4d"/><stop offset=".829" stop-color="#3b3b3b"/><stop offset="1" stop-color="#141414"/></radialGradient><circle cx="16" cy="41" r="2" fill="url(#p5lU_NCe4~A9xf~e_a5bDc)"/><linearGradient id="p5lU_NCe4~A9xf~e_a5bDd" x1="16" x2="16" y1="40.01" y2="40.859" gradientUnits="userSpaceOnUse"><stop offset="0" stop-color="#141414"/><stop offset="1" stop-color="#141414" stop-opacity="0"/></linearGradient><path fill="url(#p5lU_NCe4~A9xf~e_a5bDd)" d="M16,39c1.105,0,2,0.895,2,2h-4C14,39.895,14.895,39,16,39z"/><path fill="#6236c4" d="M35,8H13c-1.657,0-3,1.343-3,3v26c0,1.657,1.343,3,3,3h22c1.657,0,3-1.343,3-3V11 C38,9.343,36.657,8,35,8z"/><path fill="#6337c5" d="M35,8.047H13c-1.631,0-2.953,1.322-2.953,2.953v26c0,1.631,1.322,2.953,2.953,2.953h22 c1.631,0,2.953-1.322,2.953-2.953V11C37.953,9.369,36.631,8.047,35,8.047z"/><path fill="#6438c5" d="M35,8.093H13c-1.605,0-2.907,1.301-2.907,2.907v26c0,1.605,1.301,2.907,2.907,2.907h22 c1.605,0,2.907-1.301,2.907-2.907V11C37.907,9.395,36.605,8.093,35,8.093z"/><path fill="#6539c6" d="M35,8.14H13c-1.58,0-2.86,1.281-2.86,2.86v26c0,1.58,1.281,2.86,2.86,2.86h22 c1.58,0,2.86-1.281,2.86-2.86V11C37.86,9.42,36.58,8.14,35,8.14z"/><path fill="#663ac7" d="M35,8.186H13c-1.554,0-2.814,1.26-2.814,2.814v26c0,1.554,1.26,2.814,2.814,2.814h22 c1.554,0,2.814-1.26,2.814-2.814V11C37.814,9.446,36.554,8.186,35,8.186z"/><path fill="#663bc8" d="M35,8.233H13c-1.528,0-2.767,1.239-2.767,2.767v26c0,1.528,1.239,2.767,2.767,2.767h22 c1.528,0,2.767-1.239,2.767-2.767V11C37.767,9.472,36.528,8.233,35,8.233z"/><path fill="#673cc8" d="M35,8.279H13c-1.503,0-2.721,1.218-2.721,2.721v26c0,1.503,1.218,2.721,2.721,2.721h22 c1.503,0,2.721-1.218,2.721-2.721V11C37.721,9.497,36.503,8.279,35,8.279z"/><path fill="#683dc9" d="M35,8.326H13c-1.477,0-2.674,1.197-2.674,2.674v26c0,1.477,1.197,2.674,2.674,2.674h22 c1.477,0,2.674-1.197,2.674-2.674V11C37.674,9.523,36.477,8.326,35,8.326z"/><path fill="#693eca" d="M35,8.372H13c-1.451,0-2.628,1.177-2.628,2.628v26c0,1.451,1.177,2.628,2.628,2.628h22 c1.451,0,2.628-1.177,2.628-2.628V11C37.628,9.549,36.451,8.372,35,8.372z"/><path fill="#6a3fca" d="M35,8.419H13c-1.426,0-2.581,1.156-2.581,2.581v26c0,1.426,1.156,2.581,2.581,2.581h22 c1.426,0,2.581-1.156,2.581-2.581V11C37.581,9.574,36.426,8.419,35,8.419z"/><path fill="#6b40cb" d="M35,8.465H13c-1.4,0-2.535,1.135-2.535,2.535v26c0,1.4,1.135,2.535,2.535,2.535h22 c1.4,0,2.535-1.135,2.535-2.535V11C37.535,9.6,36.4,8.465,35,8.465z"/><path fill="#6c41cc" d="M35,8.512H13c-1.374,0-2.488,1.114-2.488,2.488v26c0,1.374,1.114,2.488,2.488,2.488h22 c1.374,0,2.488-1.114,2.488-2.488V11C37.488,9.626,36.374,8.512,35,8.512z"/><path fill="#6d42cd" d="M35,8.558H13c-1.349,0-2.442,1.093-2.442,2.442v26c0,1.349,1.093,2.442,2.442,2.442h22 c1.349,0,2.442-1.093,2.442-2.442V11C37.442,9.651,36.349,8.558,35,8.558z"/><path fill="#6d43cd" d="M35,8.605H13c-1.323,0-2.395,1.072-2.395,2.395v26c0,1.323,1.072,2.395,2.395,2.395h22 c1.323,0,2.395-1.072,2.395-2.395V11C37.395,9.677,36.323,8.605,35,8.605z"/><path fill="#6e44ce" d="M35,8.651H13c-1.297,0-2.349,1.052-2.349,2.349v26c0,1.297,1.052,2.349,2.349,2.349h22 c1.297,0,2.349-1.052,2.349-2.349V11C37.349,9.703,36.297,8.651,35,8.651z"/><path fill="#6f45cf" d="M35,8.698H13c-1.272,0-2.302,1.031-2.302,2.302v26c0,1.272,1.031,2.302,2.302,2.302h22 c1.272,0,2.302-1.031,2.302-2.302V11C37.302,9.728,36.272,8.698,35,8.698z"/><path fill="#7046d0" d="M35,8.744H13c-1.246,0-2.256,1.01-2.256,2.256v26c0,1.246,1.01,2.256,2.256,2.256h22 c1.246,0,2.256-1.01,2.256-2.256V11C37.256,9.754,36.246,8.744,35,8.744z"/><path fill="#7147d0" d="M35,8.791H13c-1.22,0-2.209,0.989-2.209,2.209v26c0,1.22,0.989,2.209,2.209,2.209h22 c1.22,0,2.209-0.989,2.209-2.209V11C37.209,9.78,36.22,8.791,35,8.791z"/><path fill="#7248d1" d="M35,8.837H13c-1.194,0-2.163,0.968-2.163,2.163v26c0,1.194,0.968,2.163,2.163,2.163h22 c1.194,0,2.163-0.968,2.163-2.163V11C37.163,9.806,36.194,8.837,35,8.837z"/><path fill="#7349d2" d="M35,8.884H13c-1.169,0-2.116,0.947-2.116,2.116v26c0,1.169,0.947,2.116,2.116,2.116h22 c1.169,0,2.116-0.947,2.116-2.116V11C37.116,9.831,36.169,8.884,35,8.884z"/><path fill="#744ad2" d="M35,8.93H13c-1.143,0-2.07,0.927-2.07,2.07v26c0,1.143,0.927,2.07,2.07,2.07h22 c1.143,0,2.07-0.927,2.07-2.07V11C37.07,9.857,36.143,8.93,35,8.93z"/><path fill="#754bd3" d="M35,8.977H13c-1.117,0-2.023,0.906-2.023,2.023v26c0,1.117,0.906,2.023,2.023,2.023h22 c1.117,0,2.023-0.906,2.023-2.023V11C37.023,9.883,36.117,8.977,35,8.977z"/><path fill="#754bd4" d="M35,9.023H13c-1.092,0-1.977,0.885-1.977,1.977v26c0,1.092,0.885,1.977,1.977,1.977h22 c1.092,0,1.977-0.885,1.977-1.977V11C36.977,9.908,36.092,9.023,35,9.023z"/><path fill="#764cd5" d="M35,9.07H13c-1.066,0-1.93,0.864-1.93,1.93v26c0,1.066,0.864,1.93,1.93,1.93h22 c1.066,0,1.93-0.864,1.93-1.93V11C36.93,9.934,36.066,9.07,35,9.07z"/><path fill="#774dd5" d="M35,9.116H13c-1.04,0-1.884,0.843-1.884,1.884v26c0,1.04,0.843,1.884,1.884,1.884h22 c1.04,0,1.884-0.843,1.884-1.884V11C36.884,9.96,36.04,9.116,35,9.116z"/><path fill="#784ed6" d="M35,9.163H13c-1.015,0-1.837,0.823-1.837,1.837v26c0,1.015,0.823,1.837,1.837,1.837h22 c1.015,0,1.837-0.823,1.837-1.837V11C36.837,9.985,36.015,9.163,35,9.163z"/><path fill="#794fd7" d="M35,9.209H13c-0.989,0-1.791,0.802-1.791,1.791v26c0,0.989,0.802,1.791,1.791,1.791h22 c0.989,0,1.791-0.802,1.791-1.791V11C36.791,10.011,35.989,9.209,35,9.209z"/><path fill="#7a50d7" d="M35,9.256H13c-0.963,0-1.744,0.781-1.744,1.744v26c0,0.963,0.781,1.744,1.744,1.744h22 c0.963,0,1.744-0.781,1.744-1.744V11C36.744,10.037,35.963,9.256,35,9.256z"/><path fill="#7b51d8" d="M35,9.302H13c-0.938,0-1.698,0.76-1.698,1.698v26c0,0.938,0.76,1.698,1.698,1.698h22 c0.938,0,1.698-0.76,1.698-1.698V11C36.698,10.062,35.938,9.302,35,9.302z"/><path fill="#7c52d9" d="M35,9.349H13c-0.912,0-1.651,0.739-1.651,1.651v26c0,0.912,0.739,1.651,1.651,1.651h22 c0.912,0,1.651-0.739,1.651-1.651V11C36.651,10.088,35.912,9.349,35,9.349z"/><path fill="#7d53da" d="M35,9.395H13c-0.886,0-1.605,0.718-1.605,1.605v26c0,0.886,0.718,1.605,1.605,1.605h22 c0.886,0,1.605-0.718,1.605-1.605V11C36.605,10.114,35.886,9.395,35,9.395z"/><path fill="#7d54da" d="M35,9.442H13c-0.861,0-1.558,0.698-1.558,1.558v26c0,0.861,0.698,1.558,1.558,1.558h22 c0.861,0,1.558-0.698,1.558-1.558V11C36.558,10.139,35.861,9.442,35,9.442z"/><path fill="#7e55db" d="M35,9.488H13c-0.835,0-1.512,0.677-1.512,1.512v26c0,0.835,0.677,1.512,1.512,1.512h22 c0.835,0,1.512-0.677,1.512-1.512V11C36.512,10.165,35.835,9.488,35,9.488z"/><path fill="#7f56dc" d="M35,9.535H13c-0.809,0-1.465,0.656-1.465,1.465v26c0,0.809,0.656,1.465,1.465,1.465h22 c0.809,0,1.465-0.656,1.465-1.465V11C36.465,10.191,35.809,9.535,35,9.535z"/><path fill="#8057dd" d="M35,9.581H13c-0.783,0-1.419,0.635-1.419,1.419v26c0,0.783,0.635,1.419,1.419,1.419h22 c0.783,0,1.419-0.635,1.419-1.419V11C36.419,10.217,35.783,9.581,35,9.581z"/><path fill="#8158dd" d="M35,9.628H13c-0.758,0-1.372,0.614-1.372,1.372v26c0,0.758,0.614,1.372,1.372,1.372h22 c0.758,0,1.372-0.614,1.372-1.372V11C36.372,10.242,35.758,9.628,35,9.628z"/><path fill="#8259de" d="M35,9.674H13c-0.732,0-1.326,0.593-1.326,1.326v26c0,0.732,0.593,1.326,1.326,1.326h22 c0.732,0,1.326-0.593,1.326-1.326V11C36.326,10.268,35.732,9.674,35,9.674z"/><path fill="#835adf" d="M35,9.721H13c-0.706,0-1.279,0.573-1.279,1.279v26c0,0.706,0.573,1.279,1.279,1.279h22 c0.706,0,1.279-0.573,1.279-1.279V11C36.279,10.294,35.706,9.721,35,9.721z"/><path fill="#845bdf" d="M35,9.767H13c-0.681,0-1.233,0.552-1.233,1.233v26c0,0.681,0.552,1.233,1.233,1.233h22 c0.681,0,1.233-0.552,1.233-1.233V11C36.233,10.319,35.681,9.767,35,9.767z"/><path fill="#845ce0" d="M35,9.814H13c-0.655,0-1.186,0.531-1.186,1.186v26c0,0.655,0.531,1.186,1.186,1.186h22 c0.655,0,1.186-0.531,1.186-1.186V11C36.186,10.345,35.655,9.814,35,9.814z"/><path fill="#855de1" d="M35,9.86H13c-0.629,0-1.14,0.51-1.14,1.14v26c0,0.629,0.51,1.14,1.14,1.14h22 c0.629,0,1.14-0.51,1.14-1.14V11C36.14,10.371,35.629,9.86,35,9.86z"/><path fill="#865ee2" d="M35,9.907H13c-0.604,0-1.093,0.489-1.093,1.093v26c0,0.604,0.489,1.093,1.093,1.093h22 c0.604,0,1.093-0.489,1.093-1.093V11C36.093,10.396,35.604,9.907,35,9.907z"/><path fill="#875fe2" d="M35,9.953H13c-0.578,0-1.047,0.469-1.047,1.047v26c0,0.578,0.469,1.047,1.047,1.047h22 c0.578,0,1.047-0.469,1.047-1.047V11C36.047,10.422,35.578,9.953,35,9.953z"/><path fill="#8860e3" d="M35,10H13c-0.552,0-1,0.448-1,1v26c0,0.552,0.448,1,1,1h22c0.552,0,1-0.448,1-1V11 C36,10.448,35.552,10,35,10z"/><path fill="#1c1c1c" d="M29,5H19V4c0-1.105,0.895-2,2-2h6c1.105,0,2,0.895,2,2V5z"/><linearGradient id="p5lU_NCe4~A9xf~e_a5bDe" x1="24" x2="24" y1="9.981" y2="18.161" gradientUnits="userSpaceOnUse"><stop offset="0" stop-color="#9574e3"/><stop offset="1" stop-color="#8860e3"/></linearGradient><path fill="url(#p5lU_NCe4~A9xf~e_a5bDe)" d="M35,10H13c-0.552,0-1,0.448-1,1v9h24v-9C36,10.448,35.552,10,35,10z"/><linearGradient id="p5lU_NCe4~A9xf~e_a5bDf" x1="21.952" x2="23.081" y1="24" y2="24" gradientUnits="userSpaceOnUse"><stop offset="0" stop-color="#a882ff"/><stop offset="1" stop-color="#8051ed"/></linearGradient><path fill="url(#p5lU_NCe4~A9xf~e_a5bDf)" d="M22.5,12L22.5,12c-0.276,0-0.5,0.224-0.5,0.5v23c0,0.276,0.224,0.5,0.5,0.5l0,0	c0.276,0,0.5-0.224,0.5-0.5v-23C23,12.224,22.776,12,22.5,12z"/><linearGradient id="p5lU_NCe4~A9xf~e_a5bDg" x1="18.952" x2="20.081" y1="24" y2="24" gradientUnits="userSpaceOnUse"><stop offset="0" stop-color="#a882ff"/><stop offset="1" stop-color="#8051ed"/></linearGradient><path fill="url(#p5lU_NCe4~A9xf~e_a5bDg)" d="M19.5,12L19.5,12c-0.276,0-0.5,0.224-0.5,0.5v23c0,0.276,0.224,0.5,0.5,0.5l0,0	c0.276,0,0.5-0.224,0.5-0.5v-23C20,12.224,19.776,12,19.5,12z"/><linearGradient id="p5lU_NCe4~A9xf~e_a5bDh" x1="15.952" x2="17.081" y1="24" y2="24" gradientUnits="userSpaceOnUse"><stop offset="0" stop-color="#a882ff"/><stop offset="1" stop-color="#8051ed"/></linearGradient><path fill="url(#p5lU_NCe4~A9xf~e_a5bDh)" d="M16.5,12L16.5,12c-0.276,0-0.5,0.224-0.5,0.5v23c0,0.276,0.224,0.5,0.5,0.5l0,0	c0.276,0,0.5-0.224,0.5-0.5v-23C17,12.224,16.776,12,16.5,12z"/><linearGradient id="p5lU_NCe4~A9xf~e_a5bDi" x1="24.952" x2="26.081" y1="24" y2="24" gradientUnits="userSpaceOnUse"><stop offset="0" stop-color="#a882ff"/><stop offset="1" stop-color="#8051ed"/></linearGradient><path fill="url(#p5lU_NCe4~A9xf~e_a5bDi)" d="M25.5,12L25.5,12c-0.276,0-0.5,0.224-0.5,0.5v23c0,0.276,0.224,0.5,0.5,0.5l0,0	c0.276,0,0.5-0.224,0.5-0.5v-23C26,12.224,25.776,12,25.5,12z"/><linearGradient id="p5lU_NCe4~A9xf~e_a5bDj" x1="27.952" x2="29.081" y1="24" y2="24" gradientUnits="userSpaceOnUse"><stop offset="0" stop-color="#a882ff"/><stop offset="1" stop-color="#8051ed"/></linearGradient><path fill="url(#p5lU_NCe4~A9xf~e_a5bDj)" d="M28.5,12L28.5,12c-0.276,0-0.5,0.224-0.5,0.5v23c0,0.276,0.224,0.5,0.5,0.5l0,0	c0.276,0,0.5-0.224,0.5-0.5v-23C29,12.224,28.776,12,28.5,12z"/><linearGradient id="p5lU_NCe4~A9xf~e_a5bDk" x1="30.952" x2="32.081" y1="24" y2="24" gradientUnits="userSpaceOnUse"><stop offset="0" stop-color="#a882ff"/><stop offset="1" stop-color="#8051ed"/></linearGradient><path fill="url(#p5lU_NCe4~A9xf~e_a5bDk)" d="M31.5,12L31.5,12c-0.276,0-0.5,0.224-0.5,0.5v23c0,0.276,0.224,0.5,0.5,0.5l0,0	c0.276,0,0.5-0.224,0.5-0.5v-23C32,12.224,31.776,12,31.5,12z"/><linearGradient id="p5lU_NCe4~A9xf~e_a5bDl" x1="17.611" x2="27.994" y1="20.541" y2="20.541" gradientUnits="userSpaceOnUse"><stop offset=".131" stop-color="#dbdbdb"/><stop offset=".137" stop-color="#f0f0f0"/><stop offset=".226" stop-color="#dbdbdb"/><stop offset=".231" stop-color="#cfcfcf"/><stop offset=".423" stop-color="#dbdbdb"/><stop offset=".433" stop-color="#efefef"/><stop offset=".513" stop-color="#dbdbdb"/><stop offset=".521" stop-color="#cfcfcf"/><stop offset=".765" stop-color="#dbdbdb"/><stop offset=".771" stop-color="#efefef"/><stop offset=".868" stop-color="#dbdbdb"/><stop offset=".877" stop-color="#cfcfcf"/><stop offset="1" stop-color="#dbdbdb"/></linearGradient><path fill="url(#p5lU_NCe4~A9xf~e_a5bDl)" d="M20.582,23.391c-0.199,0-0.393-0.02-0.58-0.059c-0.162-0.034-0.274-0.2-0.424-0.259	c-0.192-0.076-0.419-0.054-0.588-0.168c-0.758-0.512-1.257-1.38-1.257-2.363c0-0.983,0.499-1.851,1.257-2.363	c0.174-0.117,0.313-0.295,0.511-0.373c0.151-0.059,0.357-0.026,0.519-0.059c0.182-0.036,0.37-0.056,0.562-0.056	c0.53,0,1.026,0.145,1.451,0.397c0.196,0.116,0.38,0.176,0.542,0.335c0.172,0.168,0.32,0.436,0.446,0.643	c0.261,0.431,0.412,0.936,0.412,1.476c0,0.542-0.151,1.048-0.414,1.48c-0.122,0.2-0.322,0.249-0.488,0.413	c-0.165,0.164-0.296,0.441-0.497,0.561C21.608,23.246,21.112,23.391,20.582,23.391z"/><linearGradient id="p5lU_NCe4~A9xf~e_a5bDm" x1="23.756" x2="33.206" y1="27.484" y2="27.484" gradientUnits="userSpaceOnUse"><stop offset=".131" stop-color="#dbdbdb"/><stop offset=".137" stop-color="#f0f0f0"/><stop offset=".229" stop-color="#dbdbdb"/><stop offset=".237" stop-color="#cfcfcf"/><stop offset=".446" stop-color="#dbdbdb"/><stop offset=".455" stop-color="#efefef"/><stop offset=".549" stop-color="#dbdbdb"/><stop offset=".56" stop-color="#cfcfcf"/><stop offset=".765" stop-color="#dbdbdb"/><stop offset=".771" stop-color="#efefef"/><stop offset=".868" stop-color="#dbdbdb"/><stop offset=".877" stop-color="#cfcfcf"/><stop offset="1" stop-color="#dbdbdb"/></linearGradient><path fill="url(#p5lU_NCe4~A9xf~e_a5bDm)" d="M25.524,30.961c0,0-0.273-0.82-0.557-1.077l-1.211-3.219l1.229-0.462	c0,0,0.285-0.262,0.528-0.344s0.502-0.044,0.502-0.044l2.005-0.755l0.474-0.323l0.485-0.038l2.035-0.766	c0,0,0.432-0.088,0.542-0.062c0.095,0.3,0.481,1.41,0.481,1.41l1.169,3.107l-1.179,0.444c0,0-0.309,0.004-0.552,0.088	c-0.243,0.083-0.468,0.297-0.468,0.297l-1.998,0.752c0,0-0.249-0.07-0.516,0.041s-0.501,0.342-0.501,0.342l-1.993,0.75	C25.807,31.022,25.524,30.961,25.524,30.961z"/><linearGradient id="p5lU_NCe4~A9xf~e_a5bDn" x1="23.756" x2="33.206" y1="27.484" y2="27.484" gradientUnits="userSpaceOnUse"><stop offset=".131" stop-color="#dbdbdb"/><stop offset=".137" stop-color="#f0f0f0"/><stop offset=".229" stop-color="#dbdbdb"/><stop offset=".237" stop-color="#cfcfcf"/><stop offset=".446" stop-color="#dbdbdb"/><stop offset=".455" stop-color="#efefef"/><stop offset=".549" stop-color="#dbdbdb"/><stop offset=".56" stop-color="#cfcfcf"/><stop offset=".765" stop-color="#dbdbdb"/><stop offset=".771" stop-color="#efefef"/><stop offset=".868" stop-color="#dbdbdb"/><stop offset=".877" stop-color="#cfcfcf"/><stop offset="1" stop-color="#dbdbdb"/></linearGradient><path fill="url(#p5lU_NCe4~A9xf~e_a5bDn)" d="M25.524,30.961c0,0-0.273-0.82-0.557-1.077l-1.211-3.219l1.229-0.462	c0,0,0.285-0.262,0.528-0.344s0.502-0.044,0.502-0.044l2.005-0.755l0.474-0.323l0.485-0.038l2.035-0.766	c0,0,0.432-0.088,0.542-0.062c0.095,0.3,0.481,1.41,0.481,1.41l1.169,3.107l-1.179,0.444c0,0-0.309,0.004-0.552,0.088	c-0.243,0.083-0.468,0.297-0.468,0.297l-1.998,0.752c0,0-0.249-0.07-0.516,0.041s-0.501,0.342-0.501,0.342l-1.993,0.75	C25.807,31.022,25.524,30.961,25.524,30.961z"/></svg>