<svg xmlns="http://www.w3.org/2000/svg" viewBox="0 0 48 48"><linearGradient id="2BbtekGNsSrcC8V785v~Ja" x1="24" x2="24" y1="43.988" y2="40.866" gradientUnits="userSpaceOnUse"><stop offset=".005" stop-color="#969696"/><stop offset=".102" stop-color="#929292"/><stop offset="1" stop-color="#73706c"/></linearGradient><path fill="url(#2BbtekGNsSrcC8V785v~Ja)" d="M34.126,39.368c0,0-4.377-0.707-10.071-0.707c-0.019,0-0.037,0-0.055,0.001 c-0.018,0-0.036-0.001-0.055-0.001c-5.694,0-10.071,0.707-10.071,0.707s-0.005,1.223-0.005,1.386 c0,1.134,3.455,2.375,10.058,2.375c0.025,0,0.049,0,0.073-0.001c0.024,0,0.048,0.001,0.073,0.001 c6.603,0,10.058-1.241,10.058-2.375C34.13,40.591,34.126,39.368,34.126,39.368z"/><linearGradient id="2BbtekGNsSrcC8V785v~Jb" x1="24" x2="24" y1="41.617" y2="36.504" gradientUnits="userSpaceOnUse"><stop offset=".005" stop-color="#969696"/><stop offset=".039" stop-color="#959494"/><stop offset=".651" stop-color="#7c7a77"/><stop offset="1" stop-color="#73706c"/></linearGradient><path fill="url(#2BbtekGNsSrcC8V785v~Jb)" d="M8.736,33.993c-0.017,0.136-0.044,0.271-0.044,0.41c0,3.944,6.854,7.142,15.308,7.142 s15.308-3.197,15.308-7.142c0-0.138-0.028-0.273-0.044-0.41H8.736z"/><linearGradient id="2BbtekGNsSrcC8V785v~Jc" x1="8.224" x2="41.181" y1="33.983" y2="33.983" gradientUnits="userSpaceOnUse"><stop offset="0" stop-color="#73706c"/><stop offset=".133" stop-color="#898784"/><stop offset=".374" stop-color="#acacab"/><stop offset=".5" stop-color="#bababa"/><stop offset=".619" stop-color="#aeadad"/><stop offset=".839" stop-color="#8e8c8a"/><stop offset="1" stop-color="#73706c"/></linearGradient><path fill="url(#2BbtekGNsSrcC8V785v~Jc)" d="M40.47,31.498c0,0-7.12-1.15-16.382-1.15c-0.031,0-0.06,0-0.089,0.001 c-0.029,0-0.058-0.001-0.089-0.001c-9.261,0-16.382,1.15-16.382,1.15s-0.008,1.99-0.008,2.255c0,1.845,5.62,3.864,16.36,3.864 c0.041,0,0.079-0.001,0.118-0.001c0.039,0.001,0.078,0.001,0.118,0.001c10.74,0,16.36-2.019,16.36-3.864 C40.478,33.488,40.47,31.498,40.47,31.498z"/><radialGradient id="2BbtekGNsSrcC8V785v~Jd" cx="23.649" cy="25.948" r="11.927" gradientTransform="matrix(1 0 0 .8422 0 4.096)" gradientUnits="userSpaceOnUse"><stop offset="0" stop-color="#73706c"/><stop offset=".003" stop-color="#74716d"/><stop offset=".206" stop-color="#969492"/><stop offset=".41" stop-color="#b1b0af"/><stop offset=".611" stop-color="#c5c4c3"/><stop offset=".809" stop-color="#d0d0d0"/><stop offset="1" stop-color="#d4d4d4"/></radialGradient><path fill="url(#2BbtekGNsSrcC8V785v~Jd)" d="M23.705,35.203c-21.162,0-21.981-7.269,0.029-7.269 C46.477,27.934,45.628,35.203,23.705,35.203z"/><radialGradient id="2BbtekGNsSrcC8V785v~Je" cx="23.992" cy="30.288" r="10.026" gradientUnits="userSpaceOnUse"><stop offset="0" stop-color="#73706c"/><stop offset="1" stop-color="#969696"/></radialGradient><path fill="url(#2BbtekGNsSrcC8V785v~Je)" d="M10.281,31.697c1.487-0.991,7.062-1.74,13.715-1.74c6.653,0,12.226,0.743,13.713,1.734 c0.254-0.169,0.394-0.351,0.394-0.533c0-1.264-6.321-2.28-14.111-2.28c-7.791,0-14.107,1.004-14.107,2.28 C9.883,31.341,10.026,31.527,10.281,31.697z"/><radialGradient id="2BbtekGNsSrcC8V785v~Jf" cx="24" cy="31.709" r="13.7" gradientTransform="matrix(1.0019 0 0 .2969 -.05 22.278)" gradientUnits="userSpaceOnUse"><stop offset=".117" stop-color="#adf5ff"/><stop offset=".247" stop-color="#a7f2ff"/><stop offset=".427" stop-color="#95eaff"/><stop offset=".636" stop-color="#7df"/><stop offset=".867" stop-color="#4ecbff"/><stop offset="1" stop-color="#33bfff"/></radialGradient><path fill="url(#2BbtekGNsSrcC8V785v~Jf)" d="M23.99,29.957c-6.626,0-12.18,0.744-13.709,1.731c1.486,0.995,7.054,1.736,13.714,1.736 c6.659,0,12.226-0.741,13.713-1.736C36.193,30.698,30.63,29.957,23.99,29.957z"/><linearGradient id="2BbtekGNsSrcC8V785v~Jg" x1="15.897" x2="32.295" y1="31.425" y2="31.425" gradientUnits="userSpaceOnUse"><stop offset="0" stop-color="#73706c"/><stop offset=".133" stop-color="#898784"/><stop offset=".374" stop-color="#acacab"/><stop offset=".5" stop-color="#bababa"/><stop offset=".619" stop-color="#aeadad"/><stop offset=".839" stop-color="#8e8c8a"/><stop offset="1" stop-color="#73706c"/></linearGradient><path fill="url(#2BbtekGNsSrcC8V785v~Jg)" d="M30.586,30.019c0,0-2.847,0.105-6.551,0.105c-0.012,0-0.024,0-0.036,0 c-0.012,0-0.023,0-0.036,0c-3.703,0-6.551-0.105-6.551-0.105s-0.003,1.274-0.003,1.373c0,0.687,2.247,1.439,6.542,1.439 c0.016,0,0.032,0,0.047,0c0.016,0,0.031,0,0.047,0c4.295,0,6.542-0.752,6.542-1.439C30.589,31.293,30.586,30.019,30.586,30.019z"/><path fill="#d4d4d4" d="M23.882,31.351c-8.462,0-8.79-2.708,0.012-2.708C32.988,28.644,32.649,31.351,23.882,31.351z"/><linearGradient id="2BbtekGNsSrcC8V785v~Jh" x1="24" x2="24" y1="30.103" y2="17.891" gradientUnits="userSpaceOnUse"><stop offset=".005" stop-color="#bdbdbd"/><stop offset=".107" stop-color="#b3b3b2"/><stop offset=".284" stop-color="#999896"/><stop offset=".496" stop-color="#73706c"/></linearGradient><path fill="url(#2BbtekGNsSrcC8V785v~Jh)" d="M27.527,29.675c-1.169-2.522-1.797-3.618-1.797-11.053h-3.496 c0,6.265-0.611,8.522-1.761,11.053c-0.175,0.386,1.008,0.813,3.464,0.813C26.48,30.487,27.706,30.061,27.527,29.675z"/><linearGradient id="2BbtekGNsSrcC8V785v~Ji" x1="24" x2="24" y1="24.019" y2="17.118" gradientUnits="userSpaceOnUse"><stop offset=".005" stop-color="#969696"/><stop offset=".039" stop-color="#959494"/><stop offset=".651" stop-color="#7c7a77"/><stop offset="1" stop-color="#73706c"/></linearGradient><path fill="url(#2BbtekGNsSrcC8V785v~Ji)" d="M16.187,18.669c0.751,3.627,3.963,6.354,7.813,6.354s7.062-2.727,7.813-6.354H16.187z"/><linearGradient id="2BbtekGNsSrcC8V785v~Jj" x1="13.241" x2="35.015" y1="18.971" y2="18.971" gradientUnits="userSpaceOnUse"><stop offset="0" stop-color="#73706c"/><stop offset=".133" stop-color="#898784"/><stop offset=".374" stop-color="#acacab"/><stop offset=".5" stop-color="#bababa"/><stop offset=".619" stop-color="#aeadad"/><stop offset=".839" stop-color="#8e8c8a"/><stop offset="1" stop-color="#73706c"/></linearGradient><path fill="url(#2BbtekGNsSrcC8V785v~Jj)" d="M32.745,17.796c0,0-3.781-0.347-8.698-0.347c-0.016,0-0.032,0-0.047,0 c-0.015,0-0.031,0-0.047,0c-4.917,0-8.698,0.347-8.698,0.347s-0.004,0.968-0.004,1.079c0,0.772,2.984,1.618,8.687,1.618 c0.022,0,0.042,0,0.063-0.001c0.021,0,0.041,0.001,0.063,0.001c5.703,0,8.687-0.845,8.687-1.618 C32.749,18.764,32.745,17.796,32.745,17.796z"/><path fill="#d4d4d4" d="M23.844,19.322c-11.236,0-11.671-3.043,0.016-3.043C35.934,16.279,35.484,19.322,23.844,19.322z"/><path fill="#969696" d="M31.46,17.711c0-0.558-3.571-0.908-7.44-0.914v0c-0.001,0-0.003,0-0.004,0s-0.003,0-0.005,0v0 c-3.869,0.006-7.44,0.356-7.44,0.914c0,0.553,3.6,0.935,7.44,0.94v0c0.001,0,0.003,0,0.005,0s0.003,0,0.004,0v0 C27.86,18.645,31.46,18.263,31.46,17.711z"/><radialGradient id="2BbtekGNsSrcC8V785v~Jk" cx="24.006" cy="18.047" r="7.031" gradientTransform="matrix(1 0 0 .124 0 15.81)" gradientUnits="userSpaceOnUse"><stop offset=".117" stop-color="#adf5ff"/><stop offset=".247" stop-color="#a7f2ff"/><stop offset=".427" stop-color="#95eaff"/><stop offset=".636" stop-color="#7df"/><stop offset=".867" stop-color="#4ecbff"/><stop offset="1" stop-color="#33bfff"/></radialGradient><path fill="url(#2BbtekGNsSrcC8V785v~Jk)" d="M24.011,17.442L24.011,17.442c-0.001,0-0.003,0-0.004,0c-0.001,0-0.003,0-0.005,0v0 c-3.058,0.005-5.923,0.225-6.992,0.593c1.074,0.374,3.954,0.614,6.992,0.619v0c0.001,0,0.003,0,0.005,0c0.001,0,0.003,0,0.004,0 v0c3.038-0.004,5.919-0.245,6.992-0.619C29.934,17.667,27.069,17.447,24.011,17.442z"/><linearGradient id="2BbtekGNsSrcC8V785v~Jl" x1="24" x2="24" y1="14.096" y2="17.595" gradientUnits="userSpaceOnUse"><stop offset="0" stop-color="#73706c"/><stop offset=".349" stop-color="#7c7a77"/><stop offset=".961" stop-color="#959494"/><stop offset=".995" stop-color="#969696"/></linearGradient><path fill="url(#2BbtekGNsSrcC8V785v~Jl)" d="M23.965,14.768c-1.35,0-2.001,0.123-1.905,0.235c0.632,0.731,0.968,1.384,0.968,3.194 h0.003c0,0.001-0.003,0.001-0.003,0.002c0,0.071,0.465,0.121,0.96,0.121c0,0,0,0,0.001,0s0,0,0.001,0 c0.496-0.001,0.96-0.05,0.96-0.121c0-0.001-0.003-0.001-0.003-0.002h0.003c0-2.149,0.345-2.465,0.988-3.194 C26.038,14.891,25.364,14.768,23.965,14.768z"/><path fill="#d4d4d4" d="M23.965,15.296c-2.519,0-2.617-0.682,0.003-0.682C26.676,14.613,26.575,15.296,23.965,15.296z"/><radialGradient id="2BbtekGNsSrcC8V785v~Jm" cx="24.171" cy="9.184" r="15.306" gradientTransform="matrix(1 0 0 1.0289 0 -.266)" gradientUnits="userSpaceOnUse"><stop offset="0" stop-color="#33bfff"/><stop offset=".163" stop-color="#60d3ff"/><stop offset=".383" stop-color="#97ebff"/><stop offset=".49" stop-color="#adf5ff"/><stop offset="1" stop-color="#33bfff"/></radialGradient><path fill="url(#2BbtekGNsSrcC8V785v~Jm)" d="M29.069,4.87c-2.286,0-4.255,1.368-5.142,3.327C23.04,6.239,21.071,4.87,18.785,4.87 c-3.113,0-5.645,2.532-5.645,5.646c0,0.276,0.223,0.499,0.499,0.499s0.499-0.223,0.499-0.499c0-2.563,2.085-4.648,4.647-4.648 c2.424,0,4.397,1.872,4.607,4.242c-0.753-0.923-1.887-1.525-3.169-1.525c-1.069,0-2.081,0.408-2.85,1.149 c-0.199,0.191-0.205,0.507-0.014,0.706c0.192,0.2,0.509,0.205,0.706,0.014c0.583-0.561,1.349-0.87,2.158-0.87 c1.67,0,3.272,1.324,3.355,2.977c0.001,0.013,0.001,0.209,0.002,0.451c-0.624-0.806-1.59-1.332-2.687-1.332 c-0.276,0-0.499,0.223-0.499,0.499c0,0.276,0.223,0.499,0.499,0.499c1.285,0,2.586,1.006,2.69,2.269c0,0,0,0,0,0c0,0,0,0,0,0h0 c0.003,0.031,0.122,0.062,0.353,0.062c0.239,0,0.362-0.031,0.365-0.062h0.001c0.104-1.264,1.405-2.27,2.69-2.27 c0.276,0,0.499-0.223,0.499-0.499c0-0.276-0.223-0.499-0.499-0.499c-1.078,0-2.028,0.51-2.652,1.292 c0-0.222,0.001-0.398,0.002-0.411c0.083-1.653,1.685-2.977,3.355-2.977c0.809,0,1.575,0.309,2.158,0.87 c0.197,0.191,0.514,0.186,0.706-0.014c0.191-0.198,0.185-0.514-0.014-0.706c-0.769-0.741-1.782-1.149-2.85-1.149 c-1.322,0-2.49,0.636-3.242,1.609c0.169-2.41,2.163-4.326,4.615-4.326c2.563,0,4.647,2.085,4.647,4.648 c0,0.276,0.223,0.499,0.499,0.499s0.499-0.223,0.499-0.499C34.714,7.403,32.181,4.87,29.069,4.87z"/></svg>