<svg xmlns="http://www.w3.org/2000/svg" xmlns:xlink="http://www.w3.org/1999/xlink" data-name="Слой 1" viewBox="0 0 48 48"><defs><linearGradient id="~kNsFA_dbyaQrm9DNjP~Ca" x1="33.475" x2="26.998" y1="23.675" y2="36.186" data-name="Безымянный градиент 6" gradientUnits="userSpaceOnUse"><stop offset=".081" stop-color="#780000"/><stop offset=".188" stop-color="#9f0000"/><stop offset=".305" stop-color="#c10000"/><stop offset=".424" stop-color="#dc0000"/><stop offset=".544" stop-color="#f00000"/><stop offset=".666" stop-color="#fb0000"/><stop offset=".794" stop-color="red"/></linearGradient><linearGradient id="~kNsFA_dbyaQrm9DNjP~Cb" x1="131.035" x2="123.964" y1="17.098" y2="46.323" data-name="Безымянный градиент 27" gradientTransform="matrix(-1 0 0 1 159.526 0)" gradientUnits="userSpaceOnUse"><stop offset=".087" stop-color="#ed1c24" stop-opacity="0"/><stop offset=".868" stop-color="#7a0e13" stop-opacity=".486"/><stop offset="1"/></linearGradient><linearGradient id="~kNsFA_dbyaQrm9DNjP~Cd" x1="25.542" x2="43.542" y1="17.399" y2="18.322" data-name="Безымянный градиент 31" gradientUnits="userSpaceOnUse"><stop offset="0" stop-color="#bf0404"/><stop offset=".121" stop-color="#c90b0b"/><stop offset=".328" stop-color="#e51d1d"/><stop offset=".487" stop-color="#ff2e2e"/><stop offset=".568" stop-color="#f33"/><stop offset=".66" stop-color="#ff4040"/><stop offset=".731" stop-color="#ff5050"/><stop offset=".774" stop-color="#fb4b4b"/><stop offset=".822" stop-color="#ef3e3e"/><stop offset=".873" stop-color="#dc2727"/><stop offset=".925" stop-color="#c10808"/><stop offset=".937" stop-color="#ba0000"/><stop offset=".968" stop-color="#b80000"/><stop offset=".979" stop-color="#b10000"/><stop offset=".987" stop-color="#a60000"/><stop offset=".993" stop-color="#950000"/><stop offset=".999" stop-color="#7f0000"/><stop offset="1" stop-color="#780000"/></linearGradient><linearGradient id="~kNsFA_dbyaQrm9DNjP~Ce" x1="30.73" x2="33.631" y1="28.641" y2="19.838" data-name="Безымянный градиент 2" gradientUnits="userSpaceOnUse"><stop offset="0" stop-color="red"/><stop offset=".134" stop-color="#fa0000"/><stop offset=".287" stop-color="#ec0000"/><stop offset=".449" stop-color="#d60000"/><stop offset=".618" stop-color="#b60000"/><stop offset=".79" stop-color="#8d0000"/><stop offset=".867" stop-color="#780000"/></linearGradient><linearGradient id="~kNsFA_dbyaQrm9DNjP~Cc" x1="25.314" x2="37.083" y1="10.989" y2="46.989" data-name="Безымянный градиент 45" gradientUnits="userSpaceOnUse"><stop offset=".437" stop-color="#e3a099" stop-opacity="0"/><stop offset=".469" stop-color="#ea8c86" stop-opacity=".204"/><stop offset=".541" stop-color="#fc5958" stop-opacity=".713"/><stop offset=".553" stop-color="#ff5050" stop-opacity=".8"/><stop offset=".576" stop-color="#f86463" stop-opacity=".597"/><stop offset=".599" stop-color="#f27673" stop-opacity=".416"/><stop offset=".623" stop-color="#ec8581" stop-opacity=".266"/><stop offset=".646" stop-color="#e8918b" stop-opacity=".15"/><stop offset=".669" stop-color="#e59993" stop-opacity=".067"/><stop offset=".691" stop-color="#e49e97" stop-opacity=".017"/><stop offset=".712" stop-color="#e3a099" stop-opacity="0"/></linearGradient><linearGradient id="~kNsFA_dbyaQrm9DNjP~Cg" x1="26.889" x2="20.411" y1="23.675" y2="36.186" gradientTransform="matrix(-1 0 0 1 41.028 0)" xlink:href="#~kNsFA_dbyaQrm9DNjP~Ca"/><linearGradient id="~kNsFA_dbyaQrm9DNjP~Ch" x1="137.621" x2="130.55" y1="17.098" y2="46.323" gradientTransform="translate(-118.498)" xlink:href="#~kNsFA_dbyaQrm9DNjP~Cb"/><linearGradient id="~kNsFA_dbyaQrm9DNjP~Ci" x1="18.727" x2="30.497" y1="10.989" y2="46.989" gradientTransform="matrix(-1 0 0 1 41.028 0)" xlink:href="#~kNsFA_dbyaQrm9DNjP~Cc"/><linearGradient id="~kNsFA_dbyaQrm9DNjP~Cj" x1="8.334" x2="26.334" y1="17.399" y2="18.322" gradientTransform="matrix(-1 0 0 1 30.679 0)" xlink:href="#~kNsFA_dbyaQrm9DNjP~Cd"/><linearGradient id="~kNsFA_dbyaQrm9DNjP~Ck" x1="13.521" x2="16.422" y1="28.641" y2="19.838" gradientTransform="matrix(-1 0 0 1 30.679 0)" xlink:href="#~kNsFA_dbyaQrm9DNjP~Ce"/><linearGradient id="~kNsFA_dbyaQrm9DNjP~Cf" x1="30.502" x2="28.439" y1="9.681" y2="19.727" data-name="Безымянный градиент 18" gradientTransform="translate(-.061 .013)" gradientUnits="userSpaceOnUse"><stop offset=".545" stop-color="#ed1c24" stop-opacity="0"/><stop offset=".933" stop-color="#6f0d11" stop-opacity=".533"/><stop offset="1"/></linearGradient><linearGradient id="~kNsFA_dbyaQrm9DNjP~Cl" x1="20.117" x2="18.053" y1="7.577" y2="17.624" gradientTransform="matrix(0 -1 -1 0 33.896 35.593)" xlink:href="#~kNsFA_dbyaQrm9DNjP~Cf"/><radialGradient id="~kNsFA_dbyaQrm9DNjP~Cm" cx="23.885" cy="16.773" r="7.667" data-name="Безымянный градиент 114" gradientTransform="rotate(91.848 21.272 14.074) scale(1 .678)" gradientUnits="userSpaceOnUse"><stop offset="0" stop-color="red"/><stop offset=".166" stop-color="#fb0000"/><stop offset=".326" stop-color="#f00000"/><stop offset=".482" stop-color="#dc0000"/><stop offset=".637" stop-color="#c10000"/><stop offset=".789" stop-color="#9f0000"/><stop offset=".929" stop-color="#780000"/></radialGradient><radialGradient id="~kNsFA_dbyaQrm9DNjP~Cn" cx="24.032" cy="16.51" r="3.453" data-name="Безымянный градиент 46" gradientUnits="userSpaceOnUse"><stop offset=".129" stop-color="#ff6671"/><stop offset=".834" stop-color="#e3a099" stop-opacity="0"/></radialGradient></defs><path fill="url(#~kNsFA_dbyaQrm9DNjP~Ca)" d="M39.614,40.107l-5.82-2.58c-1.6,1.83-3.2,3.67-4.8,5.5-.05-1.7-.17-3.55-.4-5.51a67.2,67.2,0,0,0-1.14-6.92c-.38-1.74-.82-3.41-1.29-5-.38-1.3-.79-2.55-1.21-3.74-.35-.94-.69-1.84-1.05-2.71,0-.02-.01-.03-.02-.05-.04-.11-.09-.23-.14-.34a.694.694,0,0,0-.05-.13c-.24-.58-.48-1.15-.73-1.7-.05-.12-.11-.25-.17-.37-.04-.1-.09-.19-.13-.29.4.12.81.24,1.22.36l.83.24.09.06a.138.138,0,0,0,.04.03q.555.36,1.2.84c.36.26.75.55,1.15.87a32.749,32.749,0,0,1,3.02,2.67,33.759,33.759,0,0,1,2.8,3.13c.44.55.87,1.13,1.29,1.75a.035.035,0,0,1,.01.02c.17.24.34.49.5.74a31.275,31.275,0,0,1,3.97,8.86A29.869,29.869,0,0,1,39.614,40.107Z"/><path fill="url(#~kNsFA_dbyaQrm9DNjP~Cb)" d="M22.664,16.267l.3.66.12.27c.2.45.4.91.58,1.38a.251.251,0,0,1,.04.07l.18.45a.076.076,0,0,1,.02.04c.35.87.7,1.77,1.04,2.71.46,1.29.9,2.64,1.31,4.06.44,1.49.84,3.06,1.2,4.69a66.965,66.965,0,0,1,1.19,7.38c.19,1.79.3,3.48.35,5.05,1.54-1.76,3.08-3.53,4.62-5.29l.18-.21c.14.06.27.12.41.18,1.8.8,3.61,1.6,5.41,2.4-.09-.75-.22-1.64-.44-2.64a30.923,30.923,0,0,0-4.36-10.49c-.15-.22-.29-.45-.44-.66-.01-.01-.01-.02-.02-.02-.17-.26-.34-.51-.53-.75a33.2,33.2,0,0,0-3.54-4.14,34.768,34.768,0,0,0-3.11-2.76c-.44-.35-.87-.67-1.27-.96s-.76-.53-1.1-.76a.209.209,0,0,0-.06-.04c-.01-.01-.02-.01-.03-.02l-.83-.24C23.474,16.507,23.064,16.387,22.664,16.267Z"/><path fill="url(#~kNsFA_dbyaQrm9DNjP~Cd)" d="M42.984,17.107c-.26,4.91-.43,7.79-1.35,9.18a1.963,1.963,0,0,1-.63.65,3.2,3.2,0,0,1-1.1.45l-.17.03a4.541,4.541,0,0,1-1.43.03c-.13-.01-.25-.03-.38-.05a.355.355,0,0,1-.1-.02c-.16-.03-.33-.06-.49-.1a.355.355,0,0,1-.1-.02c-.13-.04-.27-.07-.4-.11a21.521,21.521,0,0,1-2.53-.93c-.32-.13-.63-.27-.94-.4-.46-.2-.98-.44-1.55-.74l-.58-.32A22.407,22.407,0,0,1,29.1,23.4a20.622,20.622,0,0,1-2.27-1.84,12.539,12.539,0,0,1-.93-.88c-.22-.22-.44-.45-.66-.68-.27-.28-.53-.58-.79-.89-.13-.14-.26-.3-.39-.46a1.71,1.71,0,0,1-.11-.14.01.01,0,0,1-.01-.01.01.01,0,0,0-.01-.01c.01-.01.01-.02.02-.03v-.01l.01-.01c.01-.02.02-.03.03-.05s.04-.07.09-.16a10.216,10.216,0,0,1,.6-1.03c.05-.08.1-.16.16-.24.09-.15.2-.3.31-.46.15-.22.43-.59.83-1.06v-.01c.08-.08.14-.16.22-.25A15.158,15.158,0,0,1,27.344,14a17.6,17.6,0,0,1,3.94-2.86c.36-.19,5.41-2.81,8.89-2.38a3.7,3.7,0,0,1,2.23.99C42.784,10.127,43.324,10.867,42.984,17.107Z"/><path fill="url(#~kNsFA_dbyaQrm9DNjP~Ce)" d="M41.634,26.287a2.584,2.584,0,0,1-.67.65,3.268,3.268,0,0,1-1.06.44,1.046,1.046,0,0,1-.17.04,4.541,4.541,0,0,1-1.43.03c-.13-.01-.25-.03-.38-.05a.355.355,0,0,1-.1-.02c-.16-.03-.33-.06-.49-.1a.355.355,0,0,1-.1-.02c-.13-.04-.27-.07-.4-.11a21.875,21.875,0,0,1-2.52-.91c-.33-.14-.66-.28-.98-.42-.45-.2-.96-.44-1.52-.74-.19-.09-.39-.2-.6-.32A21.072,21.072,0,0,1,29.1,23.4a20.622,20.622,0,0,1-2.27-1.84,12.539,12.539,0,0,1-.93-.88c-.22-.22-.44-.45-.66-.68-.27-.28-.53-.58-.79-.89-.13-.14-.26-.3-.39-.46a1.71,1.71,0,0,1-.11-.14.01.01,0,0,1-.01-.01h.02c.05.03.1.06.14.08.26.14.52.27.77.39.83.43,1.63.81,2.38,1.15,1.07.48,2.05.88,2.96,1.22a26.668,26.668,0,0,0,5.68,1.43,12.58,12.58,0,0,1,3.18.7.722.722,0,0,1,.2.09,3.933,3.933,0,0,1,2.04,1.75A3.142,3.142,0,0,1,41.634,26.287Z"/><path fill="url(#~kNsFA_dbyaQrm9DNjP~Cc)" d="M34.314,26.237c.17.24.34.49.5.74a31.275,31.275,0,0,1,3.97,8.86l-10.19,1.68a67.2,67.2,0,0,0-1.14-6.92c-.38-1.74-.82-3.41-1.29-5l5.05-.84h.02"/><path fill="url(#~kNsFA_dbyaQrm9DNjP~Cg)" d="M8,40.107l5.82-2.58c1.6,1.83,3.2,3.67,4.8,5.5.05-1.7.17-3.55.4-5.51a67.2,67.2,0,0,1,1.14-6.92c.38-1.74.82-3.41,1.29-5,.38-1.3.79-2.55,1.21-3.74.35-.94.69-1.84,1.05-2.71,0-.02.01-.03.02-.05.04-.11.09-.23.14-.34a.694.694,0,0,1,.05-.13c.24-.58.48-1.15.73-1.7.05-.12.11-.25.17-.37.04-.1.09-.19.13-.29-.4.12-.81.24-1.22.36l-.83.24-.09.06a.138.138,0,0,1-.04.03q-.555.36-1.2.84c-.36.26-.75.55-1.15.87a32.749,32.749,0,0,0-3.02,2.67,33.759,33.759,0,0,0-2.8,3.13c-.44.55-.87,1.13-1.29,1.75a.035.035,0,0,0-.01.02c-.17.24-.34.49-.5.74a31.275,31.275,0,0,0-3.97,8.86A29.869,29.869,0,0,0,8,40.107Z"/><path fill="url(#~kNsFA_dbyaQrm9DNjP~Ch)" d="M24.95,16.267l-.3.66-.12.27c-.2.45-.4.91-.58,1.38a.251.251,0,0,0-.04.07l-.18.45a.076.076,0,0,0-.02.04c-.35.87-.7,1.77-1.04,2.71-.46,1.29-.9,2.64-1.31,4.06-.44,1.49-.84,3.06-1.2,4.69a66.965,66.965,0,0,0-1.19,7.38c-.19,1.79-.3,3.48-.35,5.05-1.54-1.76-3.08-3.53-4.62-5.29l-.18-.21c-.14.06-.27.12-.41.18-1.8.8-3.61,1.6-5.41,2.4.09-.75.22-1.64.44-2.64a30.923,30.923,0,0,1,4.36-10.49c.15-.22.29-.45.44-.66.01-.01.01-.02.02-.02.17-.26.34-.51.53-.75a33.2,33.2,0,0,1,3.54-4.14,34.768,34.768,0,0,1,3.11-2.76c.44-.35.87-.67,1.27-.96s.76-.53,1.1-.76a.209.209,0,0,1,.06-.04c.01-.01.02-.01.03-.02l.83-.24C24.14,16.507,24.55,16.387,24.95,16.267Z"/><path fill="url(#~kNsFA_dbyaQrm9DNjP~Ci)" d="M13.3,26.237c-.17.24-.34.49-.5.74a31.275,31.275,0,0,0-3.97,8.86l10.19,1.68a67.2,67.2,0,0,1,1.14-6.92c.38-1.74.82-3.41,1.29-5l-5.05-.84h-.02"/><path fill="url(#~kNsFA_dbyaQrm9DNjP~Cj)" d="M4.9,17.107c.26,4.91.43,7.79,1.35,9.18a1.963,1.963,0,0,0,.63.65,3.2,3.2,0,0,0,1.1.45l.17.03a4.541,4.541,0,0,0,1.43.03c.13-.01.25-.03.38-.05a.355.355,0,0,0,.1-.02c.16-.03.33-.06.49-.1a.355.355,0,0,0,.1-.02c.13-.04.27-.07.4-.11a21.521,21.521,0,0,0,2.53-.93c.32-.13.63-.27.94-.4.46-.2.98-.44,1.55-.74l.58-.32a22.407,22.407,0,0,0,2.13-1.36,20.622,20.622,0,0,0,2.27-1.84,12.539,12.539,0,0,0,.93-.88c.22-.22.44-.45.66-.68.27-.28.53-.58.79-.89.13-.14.26-.3.39-.46a1.71,1.71,0,0,0,.11-.14.01.01,0,0,0,.01-.01.01.01,0,0,1,.01-.01c-.01-.01-.01-.02-.02-.03v-.01l-.01-.01c-.01-.02-.02-.03-.03-.05s-.04-.07-.09-.16a10.216,10.216,0,0,0-.6-1.03c-.05-.08-.1-.16-.16-.24-.09-.15-.2-.3-.31-.46-.15-.22-.43-.59-.83-1.06v-.01c-.08-.08-.14-.16-.22-.25A15.158,15.158,0,0,0,20.544,14a17.6,17.6,0,0,0-3.94-2.86c-.36-.19-5.41-2.81-8.89-2.38a3.7,3.7,0,0,0-2.23.99C5.1,10.127,4.564,10.867,4.9,17.107Z"/><path fill="url(#~kNsFA_dbyaQrm9DNjP~Ck)" d="M6.254,26.287a2.584,2.584,0,0,0,.67.65,3.268,3.268,0,0,0,1.06.44,1.046,1.046,0,0,0,.17.04,4.541,4.541,0,0,0,1.43.03c.13-.01.25-.03.38-.05a.355.355,0,0,0,.1-.02c.16-.03.33-.06.49-.1a.355.355,0,0,0,.1-.02c.13-.04.27-.07.4-.11a21.875,21.875,0,0,0,2.52-.91c.33-.14.66-.28.98-.42.45-.2.96-.44,1.52-.74.19-.09.39-.2.6-.32a21.072,21.072,0,0,0,2.11-1.36,20.622,20.622,0,0,0,2.27-1.84,12.539,12.539,0,0,0,.93-.88c.22-.22.44-.45.66-.68.27-.28.53-.58.79-.89.13-.14.26-.3.39-.46a1.71,1.71,0,0,0,.11-.14.01.01,0,0,0,.01-.01h-.02c-.05.03-.1.06-.14.08-.26.14-.52.27-.77.39-.83.43-1.63.81-2.38,1.15-1.07.48-2.05.88-2.96,1.22a26.668,26.668,0,0,1-5.68,1.43,12.58,12.58,0,0,0-3.18.7.722.722,0,0,0-.2.09,3.933,3.933,0,0,0-2.04,1.75A3.142,3.142,0,0,0,6.254,26.287Z"/><ellipse cx="28.947" cy="16.971" fill="url(#~kNsFA_dbyaQrm9DNjP~Cf)" rx="3" ry="1.17" transform="rotate(-11.452 28.946 16.97)"/><ellipse cx="19.043" cy="16.971" fill="url(#~kNsFA_dbyaQrm9DNjP~Cl)" rx="1.17" ry="3" transform="rotate(-78.548 19.043 16.97)"/><path fill="url(#~kNsFA_dbyaQrm9DNjP~Cm)" d="M27.254,20.117a1.862,1.862,0,0,1-.4,1.42l-.02.02c-.18.17-.45.29-1.88.3-.31.02-.68.02-1.11.01-.4,0-.73-.01-1.02-.02-1.29-.05-1.58-.15-1.75-.28l-.05-.05a1.811,1.811,0,0,1-.5-1.34,9.422,9.422,0,0,1,.07-1.53c.01-.12.03-.26.04-.39.15-1.45.27-2.69,1.03-3.12a.251.251,0,0,1,.07-.04.92.92,0,0,1,.63-.07,7.582,7.582,0,0,0,1.68.22,9.271,9.271,0,0,0,1.67-.17.7.7,0,0,1,.46.08c.01.01.02.01.03.02.8.44.9,1.77.99,3.49a.57.57,0,0,1,.01.13C27.234,19.317,27.264,19.757,27.254,20.117Z"/><path fill="url(#~kNsFA_dbyaQrm9DNjP~Cn)" d="M26.294,17.027a2.647,2.647,0,0,1-1.42,1.94,1.884,1.884,0,0,1-.42.14l-.21.03a1.933,1.933,0,0,1-.34.01.06.06,0,0,1-.04-.01,1.209,1.209,0,0,1-.38-.06,2.032,2.032,0,0,1-.39-.14,2.534,2.534,0,0,1-1.23-1.25,2.191,2.191,0,0,1-.17-.49,2.4,2.4,0,0,1,.29-1.68,2.349,2.349,0,0,1,.26-.38,1.2,1.2,0,0,1,.12-.11,7.582,7.582,0,0,0,1.68.22,9.271,9.271,0,0,0,1.67-.17,1.73,1.73,0,0,1,.27.35v.01A2.556,2.556,0,0,1,26.294,17.027Z"/></svg>