<svg xmlns="http://www.w3.org/2000/svg" viewBox="0 0 48 48"><polygon fill="#6b7277" points="14.75,30.257 14.638,22.089 14.526,13.922 15.026,13.915 15.526,13.908 15.638,22.076 15.75,30.243 15.25,30.25"/><path fill="#71787d" d="M14.572,13.91c0.006-0.001,0.466-0.001,0.466,0.005l0.455,0.033l0.111,8.128l0.11,8.028 c0,0.006-0.003,0.151-0.009,0.151c0,0,0,0,0,0c-0.006,0-0.466,0.001-0.466-0.005l-0.455-0.033l-0.111-8.128l-0.11-8.028 C14.562,14.055,14.565,13.91,14.572,13.91z"/><path fill="#767d82" d="M14.617,13.898c0.012-0.001,0.432,0.004,0.432,0.017l0.41,0.074l0.111,8.088l0.11,8.042 c0,0.013-0.008,0.148-0.021,0.149c0,0,0,0,0,0c-0.012,0-0.432-0.004-0.432-0.017l-0.41-0.074l-0.111-8.088l-0.11-8.042 C14.596,14.034,14.604,13.898,14.617,13.898z"/><path fill="#7c8388" d="M14.662,13.886c0.018-0.002,0.398,0.01,0.398,0.029l0.365,0.114l0.11,8.049l0.11,8.056 c0,0.019-0.013,0.146-0.032,0.146c0,0,0,0-0.001,0c-0.019,0-0.397-0.01-0.398-0.029l-0.365-0.114l-0.11-8.049l-0.11-8.056 C14.63,14.013,14.644,13.886,14.662,13.886z"/><path fill="#82888e" d="M14.707,13.874c0.024-0.002,0.364,0.015,0.364,0.04l0.32,0.154l0.11,8.009l0.11,8.07 c0,0.025-0.019,0.143-0.043,0.144c0,0,0,0-0.001,0c-0.025,0-0.363-0.016-0.364-0.04l-0.32-0.154l-0.11-8.009l-0.11-8.07 C14.664,13.992,14.683,13.874,14.707,13.874z"/><path fill="#878e93" d="M14.753,13.862c0.03-0.003,0.33,0.021,0.33,0.052l0.275,0.194l0.109,7.969l0.111,8.084 c0,0.032-0.024,0.141-0.055,0.141c0,0-0.001,0-0.001,0c-0.031,0-0.329-0.021-0.329-0.052l-0.275-0.194l-0.109-7.969l-0.111-8.084 C14.698,13.972,14.722,13.862,14.753,13.862z"/><path fill="#8d9399" d="M14.798,13.85c0.036-0.003,0.296,0.026,0.297,0.064l0.231,0.235l0.109,7.93l0.111,8.098 c0.001,0.038-0.029,0.138-0.066,0.139c-0.001,0-0.001,0-0.001,0c-0.037,0-0.295-0.027-0.295-0.064l-0.231-0.235l-0.109-7.93 l-0.111-8.098C14.731,13.951,14.761,13.85,14.798,13.85z"/><path fill="#92999e" d="M14.843,13.838c0.042-0.004,0.262,0.032,0.263,0.076l0.186,0.275l0.108,7.89l0.111,8.112 c0.001,0.044-0.034,0.136-0.078,0.137c-0.001,0-0.001,0-0.001,0c-0.044,0-0.261-0.032-0.261-0.076l-0.186-0.275l-0.108-7.89 l-0.111-8.112C14.765,13.93,14.8,13.839,14.843,13.838z"/><path fill="#989ea4" d="M14.889,13.826c0.048-0.004,0.228,0.037,0.229,0.088l0.141,0.315l0.107,7.851l0.111,8.126 c0.001,0.05-0.039,0.133-0.089,0.134c-0.001,0-0.001,0-0.001,0c-0.05,0-0.227-0.038-0.227-0.088l-0.141-0.315l-0.107-7.851 L14.8,13.96C14.799,13.91,14.839,13.827,14.889,13.826z"/><path fill="#9ea4aa" d="M14.934,13.814c0.054-0.005,0.194,0.043,0.195,0.099l0.096,0.355l0.107,7.811l0.111,8.14 c0.001,0.057-0.044,0.131-0.1,0.132c-0.001,0-0.001,0-0.002,0c-0.056,0-0.192-0.044-0.193-0.099l-0.096-0.355l-0.107-7.811 l-0.111-8.14C14.833,13.889,14.878,13.815,14.934,13.814z"/><path fill="#a3a9af" d="M14.979,13.802c0.059-0.005,0.16,0.048,0.161,0.111l0.051,0.396l0.106,7.771l0.112,8.154 c0.001,0.063-0.05,0.128-0.112,0.129c-0.001,0-0.001,0-0.002,0c-0.062,0-0.158-0.049-0.159-0.111l-0.051-0.396l-0.106-7.771 l-0.112-8.154C14.867,13.868,14.917,13.803,14.979,13.802z"/><path fill="#a9afb5" d="M15.25,30.375c-0.068,0-0.124-0.055-0.125-0.123l-0.112-8.167l-0.112-8.167 c-0.001-0.069,0.055-0.126,0.123-0.127c0.065-0.006,0.126,0.054,0.127,0.123l0.112,8.167l0.112,8.167 c0.001,0.069-0.055,0.126-0.123,0.127C15.251,30.375,15.251,30.375,15.25,30.375z"/><rect width="1" height="17.053" x="18.75" y="13.197" fill="#6b7277"/><path fill="#71787d" d="M18.784,13.197c0-0.006,0.46-0.011,0.466-0.011s0.466,0.005,0.466,0.011V30.25 c0,0.006-0.46,0.011-0.466,0.011s-0.466-0.005-0.466-0.011V13.197z"/><path fill="#767d82" d="M18.818,13.197c0-0.013,0.419-0.023,0.432-0.023s0.432,0.01,0.432,0.023V30.25 c0,0.013-0.419,0.023-0.432,0.023s-0.432-0.01-0.432-0.023V13.197z"/><path fill="#7c8388" d="M18.852,13.197c0-0.019,0.379-0.034,0.398-0.034s0.398,0.015,0.398,0.034V30.25 c0,0.019-0.379,0.034-0.398,0.034s-0.398-0.015-0.398-0.034V13.197z"/><path fill="#82888e" d="M18.886,13.197c0-0.025,0.338-0.045,0.364-0.045s0.364,0.02,0.364,0.045V30.25 c0,0.025-0.338,0.045-0.364,0.045s-0.364-0.02-0.364-0.045V13.197z"/><path fill="#878e93" d="M18.92,13.197c0-0.032,0.298-0.057,0.33-0.057s0.33,0.025,0.33,0.057V30.25 c0,0.032-0.298,0.057-0.33,0.057s-0.33-0.025-0.33-0.057V13.197z"/><path fill="#8d9399" d="M18.955,13.197c0-0.038,0.258-0.068,0.295-0.068s0.295,0.03,0.295,0.068V30.25 c0,0.038-0.258,0.068-0.295,0.068s-0.295-0.03-0.295-0.068V13.197z"/><path fill="#92999e" d="M18.989,13.197c0-0.044,0.217-0.08,0.261-0.08s0.261,0.035,0.261,0.08V30.25 c0,0.044-0.217,0.08-0.261,0.08s-0.261-0.035-0.261-0.08V13.197z"/><path fill="#989ea4" d="M19.023,13.197c0-0.05,0.177-0.091,0.227-0.091s0.227,0.04,0.227,0.091V30.25 c0,0.05-0.177,0.091-0.227,0.091s-0.227-0.04-0.227-0.091V13.197z"/><path fill="#9ea4aa" d="M19.057,13.197c0-0.057,0.136-0.102,0.193-0.102s0.193,0.046,0.193,0.102V30.25 c0,0.057-0.136,0.102-0.193,0.102s-0.193-0.046-0.193-0.102V13.197z"/><path fill="#a3a9af" d="M19.091,13.197c0-0.063,0.096-0.114,0.159-0.114s0.159,0.051,0.159,0.114V30.25 c0,0.063-0.096,0.114-0.159,0.114s-0.159-0.051-0.159-0.114V13.197z"/><path fill="#a9afb5" d="M19.25,30.375c-0.069,0-0.125-0.056-0.125-0.125V13.197c0-0.069,0.056-0.125,0.125-0.125 s0.125,0.056,0.125,0.125V30.25C19.375,30.319,19.319,30.375,19.25,30.375z"/><polygon fill="#6b7277" points="10.75,30.266 10.508,22.361 10.266,14.457 10.766,14.441 11.266,14.426 11.508,22.33 11.75,30.234 11.25,30.25"/><path fill="#71787d" d="M10.311,14.444C10.311,14.444,10.312,14.444,10.311,14.444c0.007,0,0.466-0.009,0.466-0.003 l0.456,0.026l0.241,7.865l0.238,7.763c0,0.006,0,0.153-0.007,0.153c0,0-0.001,0-0.001,0c-0.006,0-0.465,0.009-0.465,0.003 l-0.456-0.026l-0.241-7.865l-0.238-7.763C10.304,14.591,10.304,14.444,10.311,14.444z"/><path fill="#767d82" d="M10.356,14.431c0,0,0.001,0,0.001,0c0.012,0,0.431-0.003,0.431,0.009l0.412,0.067l0.24,7.825 l0.238,7.777c0,0.013-0.006,0.15-0.018,0.15c0,0-0.001,0-0.001,0c-0.012,0-0.431,0.003-0.431-0.009l-0.412-0.067l-0.24-7.825 l-0.238-7.777C10.337,14.569,10.343,14.432,10.356,14.431z"/><path fill="#7c8388" d="M10.401,14.419c0,0,0.001,0,0.001,0c0.018,0,0.397,0.003,0.397,0.022l0.367,0.108l0.239,7.785 l0.239,7.791c0.001,0.019-0.011,0.147-0.03,0.148c0,0-0.001,0-0.001,0c-0.018,0-0.397-0.003-0.397-0.022l-0.367-0.108l-0.239-7.785 l-0.239-7.791C10.371,14.548,10.382,14.419,10.401,14.419z"/><path fill="#82888e" d="M10.446,14.406c0,0,0.001,0,0.002,0c0.025,0,0.363,0.01,0.363,0.034l0.323,0.149l0.237,7.745 l0.239,7.806c0.001,0.025-0.016,0.145-0.041,0.146c0,0-0.001,0-0.002,0c-0.025,0-0.363-0.01-0.363-0.034l-0.323-0.149l-0.237-7.745 l-0.239-7.806C10.404,14.526,10.421,14.407,10.446,14.406z"/><path fill="#878e93" d="M10.491,14.393c0,0,0.002,0,0.002,0c0.031,0,0.328,0.016,0.329,0.047l0.279,0.19l0.236,7.705 l0.24,7.82c0.001,0.032-0.021,0.142-0.052,0.143c0,0-0.002,0-0.002,0c-0.031,0-0.328-0.016-0.329-0.047l-0.279-0.19l-0.236-7.705 l-0.24-7.82C10.438,14.505,10.46,14.394,10.491,14.393z"/><path fill="#8d9399" d="M10.536,14.38c0.001,0,0.002,0,0.002,0c0.037,0,0.294,0.022,0.295,0.059l0.235,0.232l0.235,7.666 l0.24,7.834c0.001,0.038-0.026,0.14-0.064,0.141c-0.001,0-0.002,0-0.002,0c-0.037,0-0.294-0.022-0.295-0.059l-0.235-0.232 l-0.235-7.666l-0.24-7.834C10.471,14.483,10.498,14.381,10.536,14.38z"/><path fill="#92999e" d="M10.581,14.368c0.001,0,0.002,0,0.003,0c0.043,0,0.26,0.029,0.261,0.071l0.19,0.273l0.234,7.626 l0.24,7.848c0.001,0.044-0.031,0.137-0.075,0.138c-0.001,0-0.002,0-0.003,0c-0.043,0-0.26-0.029-0.261-0.071l-0.19-0.273 l-0.234-7.626l-0.24-7.848C10.505,14.462,10.537,14.369,10.581,14.368z"/><path fill="#989ea4" d="M10.626,14.355c0.001,0,0.002,0,0.003,0c0.049,0,0.226,0.035,0.227,0.084l0.146,0.314l0.232,7.586 l0.241,7.862c0.001,0.05-0.036,0.135-0.087,0.136c-0.001,0-0.002,0-0.003,0c-0.049,0-0.226-0.035-0.227-0.084l-0.146-0.314 l-0.232-7.586l-0.241-7.862C10.538,14.44,10.576,14.356,10.626,14.355z"/><path fill="#9ea4aa" d="M10.672,14.342c0.001,0,0.003,0,0.003,0c0.055,0,0.191,0.041,0.193,0.096l0.102,0.355l0.231,7.546 l0.241,7.876c0.002,0.057-0.041,0.132-0.098,0.134c-0.001,0-0.003,0-0.003,0c-0.055,0-0.191-0.041-0.193-0.096l-0.102-0.355 l-0.231-7.546l-0.241-7.876C10.572,14.419,10.615,14.344,10.672,14.342z"/><path fill="#a3a9af" d="M10.717,14.329c0.001,0,0.003,0,0.004,0c0.061,0,0.157,0.047,0.159,0.109l0.058,0.396l0.23,7.506 l0.242,7.89c0.002,0.063-0.047,0.13-0.11,0.131c-0.001,0-0.003,0-0.004,0c-0.061,0-0.157-0.047-0.159-0.109l-0.058-0.396 l-0.23-7.506l-0.242-7.89C10.605,14.397,10.654,14.331,10.717,14.329z"/><path fill="#a9afb5" d="M11.25,30.375c-0.067,0-0.123-0.054-0.125-0.121l-0.242-7.904l-0.242-7.904 c-0.002-0.069,0.052-0.127,0.121-0.129c0.001,0,0.003,0,0.004,0c0.067,0,0.123,0.054,0.125,0.121l0.242,7.904l0.242,7.904 c0.002,0.069-0.052,0.127-0.121,0.129C11.253,30.375,11.251,30.375,11.25,30.375z"/><g><polygon fill="#6b7277" points="7.099,30.22 6.316,22.586 5.533,14.952 6.529,14.886 7.312,22.52 8.095,30.154"/><path fill="#71787d" d="M5.577,14.938c0.007,0.001,0.195-0.008,0.196-0.002l0.728,0.018l0.735,7.164l0.045,0.44l0.764,7.448 c0.001,0.006,0.011,0.161,0.005,0.161c0,0-0.001,0-0.001,0c-0.006,0-0.188,0.007-0.189,0.001l-0.735-0.018l-0.734-7.16 l-0.046-0.444L5.582,15.1C5.581,15.093,5.571,14.939,5.577,14.938z"/><path fill="#767d82" d="M5.621,14.924c0.013,0.002,0.189-0.002,0.19,0.01l0.663,0.088l0.732,7.139l0.045,0.435l0.762,7.427 c0.001,0.013,0.006,0.158-0.007,0.159c-0.001,0-0.001,0-0.002,0c-0.012,0-0.182,0.001-0.183-0.01l-0.669-0.089l-0.732-7.134 l-0.045-0.44l-0.762-7.426C5.613,15.07,5.609,14.925,5.621,14.924z"/><path fill="#7c8388" d="M5.665,14.91c0.02,0.002,0.182,0.003,0.184,0.022l0.598,0.158l0.73,7.114l0.044,0.431l0.76,7.406 c0.002,0.019,0,0.154-0.018,0.156c-0.001,0-0.002,0-0.003,0c-0.018,0-0.175-0.004-0.177-0.022l-0.603-0.16l-0.729-7.109 L6.406,22.47l-0.76-7.405C5.645,15.047,5.646,14.911,5.665,14.91z"/><path fill="#82888e" d="M5.709,14.895c0.026,0.003,0.176,0.009,0.179,0.034l0.532,0.228l0.727,7.089l0.044,0.427 l0.758,7.385c0.002,0.025-0.005,0.151-0.03,0.153c-0.001,0-0.002,0-0.003,0c-0.024,0-0.168-0.01-0.171-0.034l-0.537-0.231 l-0.727-7.084l-0.044-0.431l-0.757-7.383C5.677,15.023,5.684,14.897,5.709,14.895z"/><path fill="#878e93" d="M5.753,14.881c0.033,0.004,0.169,0.014,0.173,0.045l0.467,0.299l0.725,7.064l0.043,0.422 l0.755,7.364c0.003,0.031-0.011,0.148-0.042,0.15c-0.001,0-0.003,0-0.004,0c-0.03,0-0.162-0.016-0.165-0.046l-0.471-0.302 L6.511,22.82l-0.044-0.427l-0.755-7.362C5.709,15,5.722,14.883,5.753,14.881z"/><path fill="#8d9399" d="M5.797,14.867c0.039,0.005,0.163,0.02,0.167,0.057l0.401,0.369l0.722,7.039l0.043,0.418l0.753,7.343 c0.003,0.038-0.016,0.145-0.053,0.147c-0.002,0-0.003,0-0.005,0c-0.036,0-0.155-0.022-0.159-0.057L7.262,29.81L6.54,22.777 l-0.043-0.422l-0.753-7.341C5.741,14.976,5.76,14.869,5.797,14.867z"/><path fill="#92999e" d="M5.841,14.852c0.046,0.006,0.156,0.025,0.161,0.069l0.336,0.439l0.719,7.014L7.1,22.787l0.751,7.322 c0.004,0.044-0.021,0.141-0.065,0.144c-0.002,0-0.004,0-0.006,0c-0.042,0-0.148-0.027-0.153-0.069l-0.339-0.444L6.57,22.734 l-0.043-0.418l-0.751-7.319C5.772,14.953,5.798,14.855,5.841,14.852z"/><path fill="#989ea4" d="M5.885,14.838c0.052,0.006,0.15,0.031,0.155,0.081l0.27,0.51l0.717,6.989l0.042,0.409l0.749,7.301 c0.005,0.05-0.027,0.138-0.077,0.142c-0.002,0-0.004,0-0.006,0c-0.048,0-0.142-0.033-0.147-0.081l-0.273-0.515L6.6,22.691 l-0.042-0.413L5.809,14.98C5.804,14.929,5.836,14.841,5.885,14.838z"/><path fill="#9ea4aa" d="M5.929,14.824c0.059,0.007,0.144,0.037,0.149,0.092l0.205,0.58l0.714,6.963l0.042,0.405l0.747,7.28 c0.005,0.056-0.032,0.135-0.088,0.139c-0.002,0-0.005,0-0.007,0c-0.054,0-0.135-0.039-0.141-0.092l-0.207-0.586l-0.714-6.957 l-0.042-0.409l-0.746-7.276C5.836,14.906,5.874,14.828,5.929,14.824z"/><path fill="#a3a9af" d="M5.973,14.809c0.065,0.008,0.137,0.042,0.144,0.104l0.139,0.65l0.712,6.938l0.041,0.4l0.745,7.259 c0.006,0.063-0.038,0.132-0.1,0.136c-0.003,0-0.005,0-0.008,0c-0.059,0-0.129-0.045-0.135-0.104L7.37,29.536l-0.711-6.931 L6.618,22.2l-0.744-7.255C5.868,14.883,5.911,14.814,5.973,14.809z"/><path fill="#a9afb5" d="M7.601,30.311c-0.065,0-0.122-0.051-0.129-0.116l-0.783-7.634l-0.783-7.634 C5.9,14.859,5.949,14.8,6.017,14.795c0.072,0.009,0.131,0.048,0.138,0.116l0.783,7.634l0.783,7.634 c0.006,0.069-0.043,0.128-0.112,0.133C7.607,30.311,7.604,30.311,7.601,30.311z"/></g><g><polygon fill="#6b7277" points="23.75,30.26 23.25,30.25 22.75,30.24 22.923,21.45 23.096,12.66 23.596,12.67 24.096,12.68 23.923,21.47"/><path fill="#71787d" d="M23.584,12.67c0-0.006,0.459-0.002,0.466-0.002c0,0,0,0,0.001,0c0.006,0,0.009,0.141,0.008,0.147 l-0.17,8.654l-0.172,8.751l-0.455,0.03c0,0.006-0.459,0.002-0.466,0.002c0,0,0,0-0.001,0c-0.006,0-0.009-0.141-0.008-0.147 l0.17-8.654l0.172-8.751L23.584,12.67z"/><path fill="#767d82" d="M23.573,12.669c0-0.012,0.419-0.014,0.432-0.014c0,0,0.001,0,0.001,0c0.012,0,0.02,0.133,0.02,0.145 l-0.17,8.668l-0.171,8.712l-0.411,0.07c0,0.012-0.419,0.014-0.432,0.014c0,0-0.001,0-0.001,0c-0.012,0-0.02-0.133-0.02-0.145 l0.17-8.668l0.171-8.712L23.573,12.669z"/><path fill="#7c8388" d="M23.562,12.669c0-0.018,0.379-0.026,0.397-0.026c0,0,0.001,0,0.001,0 c0.019,0,0.031,0.125,0.031,0.144l-0.171,8.681L23.65,30.14l-0.366,0.11c0,0.018-0.379,0.026-0.397,0.026c0,0-0.001,0-0.001,0 c-0.019,0-0.031-0.125-0.031-0.144l0.171-8.681l0.171-8.673L23.562,12.669z"/><path fill="#82888e" d="M23.55,12.669c0-0.025,0.339-0.038,0.363-0.038c0,0,0.001,0,0.001,0 c0.025,0,0.043,0.116,0.043,0.142l-0.171,8.695l-0.17,8.633l-0.321,0.15c0,0.025-0.339,0.038-0.363,0.038c0,0-0.001,0-0.001,0 c-0.025,0-0.043-0.116-0.043-0.142l0.171-8.695l0.17-8.633L23.55,12.669z"/><path fill="#878e93" d="M23.539,12.669c0-0.031,0.298-0.05,0.329-0.05c0,0,0.001,0,0.002,0c0.031,0,0.054,0.108,0.054,0.14 l-0.171,8.709l-0.169,8.594l-0.277,0.19c0,0.031-0.298,0.05-0.329,0.05c0,0-0.001,0-0.002,0c-0.031,0-0.054-0.108-0.054-0.14 l0.171-8.709l0.169-8.594L23.539,12.669z"/><path fill="#8d9399" d="M23.528,12.668c0.001-0.037,0.258-0.062,0.295-0.062c0.001,0,0.001,0,0.002,0 c0.037,0.001,0.066,0.1,0.065,0.138l-0.172,8.722l-0.168,8.555l-0.232,0.231c-0.001,0.037-0.258,0.062-0.295,0.062 c-0.001,0-0.001,0-0.002,0c-0.037-0.001-0.066-0.1-0.065-0.138l0.172-8.722l0.168-8.555L23.528,12.668z"/><path fill="#92999e" d="M23.516,12.668c0.001-0.043,0.218-0.074,0.261-0.074c0.001,0,0.001,0,0.002,0 c0.044,0.001,0.077,0.092,0.077,0.136l-0.172,8.736l-0.167,8.516l-0.187,0.271c-0.001,0.043-0.218,0.074-0.261,0.074 c-0.001,0-0.001,0-0.002,0c-0.044-0.001-0.077-0.092-0.077-0.136l0.172-8.736l0.167-8.516L23.516,12.668z"/><path fill="#989ea4" d="M23.505,12.668c0.001-0.049,0.177-0.086,0.227-0.086c0.001,0,0.002,0,0.002,0 c0.05,0.001,0.089,0.083,0.088,0.134l-0.172,8.749l-0.167,8.477l-0.143,0.311c-0.001,0.049-0.177,0.086-0.227,0.086 c-0.001,0-0.002,0-0.002,0c-0.05-0.001-0.089-0.083-0.088-0.134l0.172-8.749l0.167-8.477L23.505,12.668z"/><path fill="#9ea4aa" d="M23.493,12.668c0.001-0.055,0.137-0.098,0.193-0.098c0.001,0,0.002,0,0.002,0 c0.056,0.001,0.1,0.075,0.099,0.132l-0.172,8.763l-0.166,8.438l-0.098,0.351c-0.001,0.055-0.137,0.098-0.193,0.098 c-0.001,0-0.002,0-0.002,0c-0.056-0.001-0.1-0.075-0.099-0.132l0.172-8.763l0.166-8.438L23.493,12.668z"/><path fill="#a3a9af" d="M23.482,12.667c0.001-0.061,0.097-0.11,0.159-0.11c0.001,0,0.002,0,0.003,0 c0.062,0.001,0.112,0.067,0.111,0.13l-0.173,8.776l-0.165,8.398l-0.053,0.391c-0.001,0.061-0.097,0.11-0.159,0.11 c-0.001,0-0.002,0-0.003,0c-0.062-0.001-0.112-0.067-0.111-0.13l0.173-8.776l0.165-8.398L23.482,12.667z"/><path fill="#a9afb5" d="M23.25,30.375c-0.001,0-0.002,0-0.003,0c-0.068-0.001-0.123-0.059-0.122-0.128l0.173-8.79 l0.173-8.79c0.001-0.067,0.057-0.122,0.125-0.122c0.001,0,0.002,0,0.003,0c0.068,0.001,0.123,0.059,0.122,0.128l-0.173,8.79 l-0.173,8.79C23.374,30.32,23.318,30.375,23.25,30.375z"/></g><g><polygon fill="#6b7277" points="27.749,30.288 26.751,30.212 27.437,21.207 28.123,12.201 29.121,12.277 28.435,21.283"/><path fill="#71787d" d="M29.077,12.263c0.006,0.001,0,0.151-0.001,0.157l-0.672,8.823l-0.031,0.411l-0.652,8.564 l-0.723,0.013c0,0.006-0.194-0.004-0.2-0.004c0,0-0.002,0-0.002,0c-0.006-0.001,0-0.151,0.001-0.157l0.672-8.823l0.031-0.411 l0.652-8.564l0.723-0.013c0-0.006,0.194,0.004,0.2,0.004C29.075,12.262,29.076,12.263,29.077,12.263z"/><path fill="#767d82" d="M29.032,12.248c0.012,0.001,0.012,0.142,0.011,0.155l-0.67,8.8l-0.031,0.412l-0.65,8.534 l-0.656,0.086c-0.001,0.012-0.181,0.008-0.192,0.008c-0.001,0-0.002,0-0.003,0c-0.012-0.001-0.012-0.142-0.011-0.155l0.67-8.8 l0.031-0.412l0.65-8.534l0.656-0.086c0.001-0.012,0.181-0.008,0.192-0.008C29.03,12.248,29.031,12.248,29.032,12.248z"/><path fill="#7c8388" d="M28.988,12.233c0.019,0.002,0.024,0.134,0.023,0.153l-0.669,8.777l-0.031,0.412l-0.648,8.503 l-0.589,0.159c-0.001,0.018-0.167,0.02-0.185,0.02c-0.001,0-0.003,0-0.004,0c-0.019-0.002-0.024-0.134-0.023-0.153l0.669-8.777 l0.031-0.412l0.648-8.503l0.589-0.159c0.001-0.018,0.167-0.02,0.185-0.02C28.985,12.233,28.987,12.233,28.988,12.233z"/><path fill="#82888e" d="M28.943,12.218c0.025,0.002,0.036,0.125,0.034,0.15l-0.667,8.753l-0.031,0.412l-0.645,8.473 l-0.523,0.233c-0.002,0.024-0.154,0.032-0.177,0.032c-0.001,0-0.003,0-0.004,0c-0.025-0.002-0.036-0.125-0.034-0.15l0.667-8.753 l0.031-0.412l0.645-8.473l0.523-0.233c0.002-0.024,0.154-0.032,0.177-0.032C28.94,12.218,28.942,12.218,28.943,12.218z"/><path fill="#878e93" d="M28.899,12.203c0.031,0.003,0.048,0.117,0.046,0.148l-0.665,8.73l-0.031,0.413l-0.643,8.443 l-0.456,0.306c-0.002,0.03-0.141,0.044-0.17,0.044c-0.001,0-0.003,0-0.005,0c-0.031-0.003-0.048-0.117-0.046-0.148l0.665-8.73 l0.031-0.413l0.643-8.443l0.456-0.306c0.002-0.03,0.141-0.044,0.17-0.044C28.895,12.203,28.897,12.203,28.899,12.203z"/><path fill="#8d9399" d="M28.854,12.188c0.037,0.003,0.06,0.108,0.057,0.146l-0.663,8.707l-0.031,0.413l-0.641,8.412 l-0.39,0.379c-0.003,0.036-0.127,0.056-0.162,0.056c-0.002,0-0.004,0-0.006,0c-0.037-0.003-0.06-0.108-0.057-0.146l0.663-8.707 l0.031-0.413l0.641-8.412l0.39-0.379c0.003-0.036,0.127-0.056,0.162-0.056C28.85,12.188,28.852,12.188,28.854,12.188z"/><path fill="#92999e" d="M28.81,12.174c0.044,0.004,0.072,0.1,0.069,0.144l-0.662,8.684l-0.031,0.413l-0.639,8.382 l-0.323,0.452c-0.003,0.042-0.114,0.068-0.155,0.068c-0.002,0-0.004,0-0.007,0c-0.044-0.004-0.072-0.1-0.069-0.144l0.662-8.684 l0.031-0.413l0.639-8.382l0.323-0.452c0.003-0.042,0.114-0.068,0.155-0.068C28.805,12.174,28.807,12.174,28.81,12.174z"/><path fill="#989ea4" d="M28.765,12.159c0.05,0.004,0.084,0.091,0.08,0.141l-0.66,8.661l-0.031,0.413l-0.636,8.351 l-0.257,0.525c-0.004,0.048-0.101,0.079-0.147,0.079c-0.002,0-0.005,0-0.008,0c-0.05-0.004-0.084-0.091-0.08-0.141l0.66-8.661 l0.031-0.413l0.636-8.351l0.257-0.525c0.004-0.048,0.101-0.079,0.147-0.079C28.76,12.159,28.762,12.159,28.765,12.159z"/><path fill="#9ea4aa" d="M28.721,12.144c0.056,0.005,0.096,0.082,0.092,0.139l-0.658,8.638l-0.032,0.414l-0.634,8.321 l-0.19,0.599c-0.004,0.054-0.087,0.091-0.14,0.091c-0.002,0-0.005,0-0.008,0c-0.056-0.005-0.096-0.082-0.092-0.139l0.658-8.638 l0.032-0.414l0.634-8.321l0.19-0.599c0.004-0.054,0.087-0.091,0.14-0.091C28.715,12.144,28.718,12.144,28.721,12.144z"/><path fill="#a3a9af" d="M28.676,12.129c0.062,0.005,0.108,0.074,0.104,0.137l-0.656,8.614l-0.032,0.414l-0.632,8.291 l-0.123,0.672c-0.004,0.059-0.074,0.103-0.132,0.103c-0.003,0-0.005,0-0.009,0c-0.062-0.005-0.108-0.074-0.104-0.137l0.656-8.614 l0.032-0.414l0.632-8.291l0.123-0.672c0.004-0.059,0.074-0.103,0.132-0.103C28.67,12.129,28.673,12.129,28.676,12.129z"/><path fill="#a9afb5" d="M27.25,30.375c-0.003,0-0.006,0-0.01,0c-0.068-0.006-0.12-0.065-0.115-0.135l0.686-9.005 l0.686-9.005c0.005-0.065,0.061-0.115,0.125-0.115c0.003,0,0.006,0,0.01,0c0.068,0.006,0.12,0.065,0.115,0.135l-0.686,9.005 l-0.686,9.005C27.37,30.325,27.314,30.375,27.25,30.375z"/></g><g><polygon fill="#6b7277" points="31.743,30.335 30.757,30.165 32.363,20.801 33.97,11.437 34.956,11.606 33.35,20.971"/><path fill="#71787d" d="M34.913,11.588c0.006,0.001-0.014,0.146-0.015,0.153l-1.576,9.185l-0.074,0.43l-1.528,8.907 L31,30.207c-0.001,0.006-0.186-0.022-0.192-0.022c-0.001,0-0.008-0.001-0.008-0.001c-0.006-0.001,0.014-0.146,0.015-0.153 l1.576-9.185l0.074-0.43l1.528-8.907l0.721,0.055C34.714,11.558,34.906,11.587,34.913,11.588z"/><path fill="#767d82" d="M34.87,11.569c0.012,0.002-0.001,0.139-0.003,0.152l-1.571,9.16l-0.074,0.43l-1.523,8.879 l-0.662,0.024c-0.002,0.011-0.174-0.009-0.185-0.009c-0.001,0-0.008-0.001-0.01-0.001c-0.012-0.002,0.001-0.139,0.003-0.152 l1.571-9.16l0.074-0.43l1.523-8.879l0.662-0.024C34.678,11.546,34.856,11.567,34.87,11.569z"/><path fill="#7c8388" d="M34.827,11.55c0.018,0.003,0.012,0.132,0.009,0.151l-1.567,9.134l-0.074,0.431l-1.518,8.851 l-0.602,0.103c-0.003,0.017-0.162,0.003-0.178,0.003c-0.002,0-0.009-0.001-0.011-0.001c-0.018-0.003-0.012-0.132-0.009-0.151 l1.567-9.134l0.074-0.431l1.518-8.851l0.602-0.103C34.642,11.533,34.806,11.547,34.827,11.55z"/><path fill="#82888e" d="M34.785,11.531c0.025,0.004,0.024,0.125,0.02,0.15l-1.563,9.109l-0.074,0.431l-1.514,8.823 l-0.543,0.183c-0.004,0.022-0.149,0.016-0.171,0.016c-0.002,0-0.009-0.001-0.012-0.001c-0.025-0.004-0.024-0.125-0.02-0.15 l1.563-9.109l0.074-0.431l1.514-8.823l0.543-0.183C34.605,11.521,34.756,11.528,34.785,11.531z"/><path fill="#878e93" d="M34.742,11.512c0.031,0.005,0.037,0.118,0.032,0.149l-1.558,9.083l-0.074,0.432l-1.509,8.795 l-0.483,0.262c-0.005,0.028-0.137,0.028-0.164,0.028c-0.003,0-0.01-0.001-0.014-0.002c-0.031-0.005-0.037-0.118-0.032-0.149 l1.558-9.083l0.074-0.432l1.509-8.795l0.483-0.262C34.569,11.508,34.706,11.508,34.742,11.512z"/><path fill="#8d9399" d="M34.699,11.493c0.037,0.006,0.05,0.111,0.043,0.149l-1.554,9.058l-0.074,0.432l-1.504,8.767 l-0.424,0.341c-0.006,0.033-0.125,0.041-0.157,0.041c-0.004,0-0.011-0.001-0.015-0.002c-0.037-0.006-0.05-0.111-0.043-0.149 l1.554-9.058l0.074-0.432l1.504-8.767l0.424-0.341C34.533,11.496,34.656,11.488,34.699,11.493z"/><path fill="#92999e" d="M34.656,11.474c0.043,0.007,0.063,0.104,0.055,0.148l-1.549,9.032l-0.074,0.433l-1.499,8.739 l-0.365,0.42c-0.007,0.039-0.113,0.053-0.15,0.053c-0.004,0-0.011-0.001-0.016-0.002c-0.043-0.007-0.063-0.104-0.055-0.148 l1.549-9.032l0.074-0.433l1.499-8.739l0.364-0.42C34.497,11.483,34.606,11.468,34.656,11.474z"/><path fill="#989ea4" d="M34.613,11.455c0.049,0.009,0.075,0.097,0.067,0.147l-1.545,9.006l-0.074,0.433l-1.494,8.711 l-0.305,0.5c-0.008,0.044-0.1,0.066-0.144,0.066c-0.005,0-0.012-0.001-0.018-0.002c-0.049-0.009-0.075-0.097-0.067-0.147 l1.545-9.006l0.074-0.433l1.494-8.711l0.305-0.5C34.46,11.47,34.556,11.449,34.613,11.455z"/><path fill="#9ea4aa" d="M34.57,11.436c0.055,0.01,0.088,0.09,0.078,0.146l-1.541,8.981l-0.074,0.434l-1.49,8.683 l-0.246,0.579c-0.009,0.05-0.088,0.078-0.137,0.078c-0.006,0-0.012-0.001-0.019-0.002c-0.055-0.01-0.088-0.09-0.078-0.146 l1.541-8.981l0.074-0.434l1.49-8.683l0.245-0.579C34.424,11.458,34.506,11.429,34.57,11.436z"/><path fill="#a3a9af" d="M34.527,11.417c0.061,0.011,0.101,0.083,0.09,0.145l-1.536,8.955l-0.074,0.434l-1.485,8.655 l-0.186,0.658c-0.01,0.055-0.076,0.091-0.13,0.091c-0.006,0-0.013-0.001-0.02-0.002c-0.061-0.011-0.101-0.083-0.09-0.145 l1.536-8.955l0.074-0.434l1.485-8.655l0.186-0.658C34.388,11.445,34.456,11.409,34.527,11.417z"/><path fill="#a9afb5" d="M31.25,30.375c-0.007,0-0.014-0.001-0.021-0.002c-0.067-0.012-0.113-0.076-0.102-0.145l1.606-9.364 L34.34,11.5c0.012-0.067,0.066-0.11,0.145-0.102c0.067,0.012,0.113,0.076,0.102,0.145l-1.606,9.364l-1.606,9.364 C31.362,30.332,31.31,30.375,31.25,30.375z"/></g><linearGradient id="zfv7wYn3DBGinA3RAQtX1a" x1="9.657" x2="7.392" y1="48.065" y2="42.508" gradientUnits="userSpaceOnUse"><stop offset="0" stop-color="#393938"/><stop offset=".999" stop-color="#70706f"/></linearGradient><circle cx="8" cy="44" r="3" fill="url(#zfv7wYn3DBGinA3RAQtX1a)"/><linearGradient id="zfv7wYn3DBGinA3RAQtX1b" x1="32.657" x2="30.392" y1="48.065" y2="42.508" gradientUnits="userSpaceOnUse"><stop offset="0" stop-color="#393938"/><stop offset=".999" stop-color="#70706f"/></linearGradient><circle cx="31" cy="44" r="3" fill="url(#zfv7wYn3DBGinA3RAQtX1b)"/><linearGradient id="zfv7wYn3DBGinA3RAQtX1c" x1="7.175" x2="10.312" y1="43.347" y2="45.829" gradientUnits="userSpaceOnUse"><stop offset=".001" stop-color="#171714"/><stop offset="1" stop-color="#393938"/></linearGradient><circle cx="8" cy="44" r="2" fill="url(#zfv7wYn3DBGinA3RAQtX1c)"/><linearGradient id="zfv7wYn3DBGinA3RAQtX1d" x1="30.175" x2="33.312" y1="43.347" y2="45.829" gradientUnits="userSpaceOnUse"><stop offset=".001" stop-color="#171714"/><stop offset="1" stop-color="#393938"/></linearGradient><circle cx="31" cy="44" r="2" fill="url(#zfv7wYn3DBGinA3RAQtX1d)"/><g><rect width="31.724" height="1" x="3.776" y="24" fill="#6b7277"/><path fill="#71787d" d="M3.776,24.034H35.5c0.006,0,0.011,0.46,0.011,0.466s-0.005,0.466-0.011,0.466H3.776 c-0.006,0-0.011-0.46-0.011-0.466S3.77,24.034,3.776,24.034z"/><path fill="#767d82" d="M3.776,24.068H35.5c0.013,0,0.023,0.419,0.023,0.432s-0.01,0.432-0.023,0.432H3.776 c-0.013,0-0.023-0.419-0.023-0.432S3.764,24.068,3.776,24.068z"/><path fill="#7c8388" d="M3.776,24.102H35.5c0.019,0,0.034,0.379,0.034,0.398s-0.015,0.398-0.034,0.398H3.776 c-0.019,0-0.034-0.379-0.034-0.398S3.757,24.102,3.776,24.102z"/><path fill="#82888e" d="M3.776,24.136H35.5c0.025,0,0.045,0.338,0.045,0.364s-0.02,0.364-0.045,0.364H3.776 c-0.025,0-0.045-0.338-0.045-0.364S3.751,24.136,3.776,24.136z"/><path fill="#878e93" d="M3.776,24.17H35.5c0.032,0,0.057,0.298,0.057,0.33s-0.025,0.33-0.057,0.33H3.776 c-0.032,0-0.057-0.298-0.057-0.33S3.745,24.17,3.776,24.17z"/><path fill="#8d9399" d="M3.776,24.205H35.5c0.038,0,0.068,0.258,0.068,0.295s-0.03,0.295-0.068,0.295H3.776 c-0.038,0-0.068-0.258-0.068-0.295S3.739,24.205,3.776,24.205z"/><path fill="#92999e" d="M3.776,24.239H35.5c0.044,0,0.08,0.217,0.08,0.261s-0.035,0.261-0.08,0.261H3.776 c-0.044,0-0.08-0.217-0.08-0.261S3.732,24.239,3.776,24.239z"/><path fill="#989ea4" d="M3.776,24.273H35.5c0.05,0,0.091,0.177,0.091,0.227s-0.04,0.227-0.091,0.227H3.776 c-0.05,0-0.091-0.177-0.091-0.227S3.726,24.273,3.776,24.273z"/><path fill="#9ea4aa" d="M3.776,24.307H35.5c0.057,0,0.102,0.136,0.102,0.193s-0.046,0.193-0.102,0.193H3.776 c-0.057,0-0.102-0.136-0.102-0.193S3.72,24.307,3.776,24.307z"/><path fill="#a3a9af" d="M3.776,24.341H35.5c0.063,0,0.114,0.096,0.114,0.159s-0.051,0.159-0.114,0.159H3.776 c-0.063,0-0.114-0.096-0.114-0.159S3.713,24.341,3.776,24.341z"/><path fill="#a9afb5" d="M35.5,24.625H3.776c-0.069,0-0.125-0.056-0.125-0.125s0.056-0.125,0.125-0.125H35.5 c0.069,0,0.125,0.056,0.125,0.125S35.569,24.625,35.5,24.625z"/></g><g><polygon fill="#6b7277" points="2.528,19.999 2.472,19.001 20.248,18.001 38.024,17.001 38.081,17.999 20.305,18.999"/><path fill="#71787d" d="M38.038,17.046c0,0.006,0.006,0.192,0,0.193l-0.026,0.73l-17.315,0.974l-0.429,0.024l-17.604,0.99 c0,0-0.001,0-0.001,0c-0.006,0-0.148,0.003-0.149-0.003c0-0.006-0.006-0.192,0-0.193l0.026-0.73l17.316-0.974l0.427-0.024 l17.607-0.99C37.897,17.043,38.038,17.04,38.038,17.046z"/><path fill="#767d82" d="M38.052,17.09c0.001,0.012,0,0.186-0.012,0.187l-0.098,0.662l-17.287,0.972l-0.424,0.024 L2.648,19.924c0,0-0.001,0-0.002,0c-0.012,0-0.145-0.002-0.146-0.015c-0.001-0.012,0-0.186,0.012-0.187l0.098-0.662l17.288-0.973 l0.423-0.024l17.586-0.989C37.918,17.077,38.052,17.078,38.052,17.09z"/><path fill="#7c8388" d="M38.066,17.135c0.001,0.019-0.005,0.179-0.024,0.18l-0.169,0.593l-17.259,0.971l-0.419,0.024 L2.633,19.891c-0.001,0-0.002,0-0.002,0c-0.018,0-0.143-0.008-0.144-0.026c-0.001-0.019,0.005-0.179,0.024-0.18l0.169-0.593 l17.26-0.971l0.418-0.023l17.565-0.988C37.939,17.11,38.065,17.117,38.066,17.135z"/><path fill="#82888e" d="M38.08,17.18c0.001,0.025-0.011,0.173-0.036,0.174l-0.241,0.524l-17.231,0.969l-0.415,0.023 L2.617,19.858c-0.001,0-0.002,0-0.003,0c-0.024,0-0.14-0.013-0.141-0.038c-0.001-0.025,0.011-0.173,0.036-0.174l0.241-0.524 l17.232-0.969l0.413-0.023l17.544-0.987C37.96,17.144,38.079,17.155,38.08,17.18z"/><path fill="#878e93" d="M38.094,17.225c0.002,0.031-0.016,0.167-0.048,0.168l-0.312,0.455l-17.203,0.968l-0.41,0.023 L2.601,19.824c-0.001,0-0.003,0-0.003,0c-0.03,0-0.137-0.019-0.139-0.049c-0.002-0.031,0.016-0.167,0.048-0.168l0.312-0.455 l17.204-0.968l0.408-0.023l17.523-0.986C37.981,17.177,38.092,17.194,38.094,17.225z"/><path fill="#8d9399" d="M38.108,17.269c0.002,0.037-0.022,0.16-0.059,0.162l-0.384,0.386L20.49,18.784l-0.405,0.023 l-17.5,0.984c-0.001,0-0.003,0-0.004,0c-0.036,0-0.135-0.024-0.137-0.061c-0.002-0.037,0.022-0.16,0.059-0.162l0.384-0.386 l17.176-0.966l0.403-0.023l17.502-0.985C38.002,17.211,38.106,17.232,38.108,17.269z"/><path fill="#92999e" d="M38.122,17.314c0.002,0.044-0.027,0.154-0.071,0.156l-0.455,0.317l-17.147,0.965l-0.4,0.023 L2.57,19.758c-0.001,0-0.003,0-0.005,0c-0.042,0-0.132-0.03-0.134-0.072c-0.002-0.044,0.027-0.154,0.071-0.156l0.455-0.317 l17.148-0.965l0.398-0.022l17.481-0.983C38.023,17.245,38.119,17.271,38.122,17.314z"/><path fill="#989ea4" d="M38.136,17.359c0.003,0.05-0.032,0.147-0.083,0.15l-0.527,0.248L20.407,18.72l-0.395,0.022 L2.554,19.725c-0.001,0-0.004,0-0.005,0c-0.048,0-0.129-0.035-0.132-0.084c-0.003-0.05,0.032-0.147,0.083-0.15l0.527-0.248 l17.12-0.963l0.394-0.022L38,17.275C38.044,17.278,38.133,17.309,38.136,17.359z"/><path fill="#9ea4aa" d="M38.15,17.404c0.003,0.056-0.038,0.141-0.095,0.144l-0.598,0.179l-17.091,0.961l-0.391,0.022 L2.538,19.691c-0.002,0-0.004,0-0.006,0c-0.054,0-0.127-0.041-0.13-0.095C2.4,19.54,2.441,19.456,2.498,19.452l0.598-0.179 l17.091-0.961l0.389-0.022l17.439-0.981C38.065,17.312,38.147,17.348,38.15,17.404z"/><path fill="#a3a9af" d="M38.164,17.448c0.004,0.062-0.043,0.134-0.106,0.138l-0.67,0.111l-17.063,0.96l-0.386,0.022 l-17.416,0.98c-0.002,0-0.004,0-0.006,0c-0.06,0-0.124-0.046-0.127-0.107c-0.004-0.062,0.043-0.134,0.106-0.138l0.67-0.111 l17.063-0.96l0.384-0.022l17.418-0.98C38.086,17.345,38.16,17.386,38.164,17.448z"/><path fill="#a9afb5" d="M2.5,19.625c-0.066,0-0.121-0.052-0.125-0.118c-0.004-0.068,0.049-0.128,0.118-0.132l17.776-1 l17.776-1c0.062,0.004,0.128,0.05,0.132,0.118s-0.049,0.128-0.118,0.132l-17.776,1l-17.776,1C2.505,19.625,2.502,19.625,2.5,19.625 z"/></g><linearGradient id="zfv7wYn3DBGinA3RAQtX1e" x1="6.772" x2="6.772" y1="40.678" y2="43.333" gradientUnits="userSpaceOnUse"><stop offset="0" stop-color="#a7adb7"/><stop offset="1" stop-color="#87909b"/></linearGradient><path fill="url(#zfv7wYn3DBGinA3RAQtX1e)" d="M8.618,40H4.491l2.481,4.314c0.299,0.491,0.848,0.814,1.368,0.627s0.765-0.598,0.705-1.268	L8.618,40z"/><g><path fill="#6b7277" d="M34,30.5H5c-0.23,0-0.432-0.158-0.486-0.383l-3.5-14.5c-0.064-0.269,0.101-0.538,0.369-0.604 c0.271-0.059,0.538,0.101,0.604,0.369L5.394,29.5H33.64l7.886-23.658c0.042-0.126,0.133-0.229,0.251-0.289l4-2 c0.248-0.123,0.547-0.023,0.671,0.224c0.123,0.247,0.023,0.547-0.224,0.671l-3.814,1.907l-7.935,23.804 C34.406,30.362,34.215,30.5,34,30.5z"/><path fill="#71787d" d="M34,30.466H5c-0.215,0-0.402-0.147-0.453-0.357l-3.5-14.5c-0.06-0.25,0.093-0.504,0.344-0.562 c0.251-0.058,0.501,0.094,0.562,0.344l3.414,14.143h28.297l7.894-23.681c0.039-0.117,0.124-0.214,0.234-0.269l4-2 c0.231-0.115,0.51-0.022,0.625,0.208c0.115,0.23,0.022,0.51-0.208,0.625L42.381,6.33l-7.939,23.817 C34.379,30.338,34.2,30.466,34,30.466z"/><path fill="#767d82" d="M34,30.432H5c-0.199,0-0.373-0.137-0.42-0.331l-3.5-14.5c-0.056-0.232,0.086-0.467,0.319-0.521 c0.233-0.054,0.465,0.087,0.521,0.319l3.42,14.169h28.349L41.59,5.863c0.036-0.109,0.115-0.198,0.217-0.25l4-2 c0.214-0.107,0.472-0.02,0.579,0.193c0.106,0.213,0.02,0.472-0.193,0.579l-3.84,1.92l-7.944,23.83 C34.351,30.313,34.186,30.432,34,30.432z"/><path fill="#7c8388" d="M34,30.398H5c-0.183,0-0.343-0.126-0.387-0.305l-3.5-14.5c-0.051-0.214,0.079-0.43,0.294-0.48 c0.215-0.05,0.428,0.08,0.48,0.294l3.426,14.195h28.4l7.909-23.728c0.033-0.1,0.105-0.183,0.2-0.23l4-2 c0.197-0.099,0.435-0.018,0.533,0.178c0.098,0.196,0.019,0.435-0.178,0.533l-3.852,1.926l-7.948,23.844 C34.323,30.288,34.171,30.398,34,30.398z"/><path fill="#82888e" d="M34,30.364H5c-0.168,0-0.314-0.115-0.354-0.278l-3.5-14.5c-0.047-0.195,0.073-0.393,0.268-0.439 c0.197-0.046,0.391,0.073,0.439,0.268l3.433,14.222h28.452l7.917-23.751c0.03-0.092,0.096-0.167,0.182-0.21l4-2 c0.181-0.09,0.398-0.017,0.488,0.163c0.09,0.18,0.017,0.398-0.163,0.488l-3.865,1.933l-7.953,23.857 C34.295,30.264,34.156,30.364,34,30.364z"/><path fill="#878e93" d="M34,30.33H5c-0.152,0-0.285-0.104-0.32-0.252l-3.5-14.5C1.137,15.4,1.245,15.221,1.423,15.18 c0.178-0.042,0.355,0.066,0.398,0.243L5.259,29.67h28.503l7.925-23.775c0.027-0.083,0.087-0.151,0.165-0.191l4-2 c0.164-0.082,0.36-0.015,0.442,0.147c0.081,0.163,0.015,0.36-0.147,0.442L42.27,6.234l-7.957,23.87 C34.268,30.239,34.142,30.33,34,30.33z"/><path fill="#8d9399" d="M34,30.295H5c-0.136,0-0.255-0.093-0.287-0.226l-3.5-14.5c-0.038-0.159,0.059-0.319,0.218-0.356 c0.16-0.038,0.318,0.059,0.356,0.218l3.446,14.274h28.555L41.72,5.907c0.024-0.075,0.078-0.136,0.148-0.171l4-2 c0.147-0.074,0.323-0.013,0.396,0.132c0.073,0.146,0.014,0.323-0.132,0.396l-3.89,1.946L34.28,30.093 C34.24,30.214,34.127,30.295,34,30.295z"/><path fill="#92999e" d="M34,30.261H5c-0.12,0-0.226-0.082-0.254-0.2l-3.5-14.5c-0.034-0.141,0.052-0.281,0.193-0.315 c0.142-0.034,0.281,0.052,0.315,0.193l3.452,14.3h28.606l7.94-23.821c0.021-0.066,0.069-0.12,0.131-0.151l4-2 c0.13-0.066,0.286-0.012,0.35,0.117c0.065,0.129,0.012,0.286-0.117,0.35l-3.903,1.952l-7.966,23.897 C34.212,30.19,34.112,30.261,34,30.261z"/><path fill="#989ea4" d="M34,30.227H5c-0.105,0-0.197-0.072-0.221-0.174l-3.5-14.5c-0.03-0.122,0.045-0.244,0.167-0.274 c0.124-0.03,0.245,0.045,0.274,0.167l3.458,14.326h28.657l7.948-23.844c0.019-0.058,0.06-0.104,0.114-0.131l4-2 c0.113-0.058,0.249-0.01,0.304,0.101c0.056,0.112,0.011,0.249-0.101,0.304l-3.915,1.958l-7.971,23.91 C34.185,30.165,34.098,30.227,34,30.227z"/><path fill="#9ea4aa" d="M34,30.193H5c-0.089,0-0.167-0.061-0.188-0.148l-3.5-14.5c-0.025-0.104,0.038-0.207,0.142-0.233 c0.105-0.026,0.208,0.038,0.233,0.142l3.465,14.352h28.709l7.956-23.868c0.016-0.049,0.051-0.089,0.097-0.112l4-2 c0.096-0.05,0.211-0.008,0.259,0.086c0.048,0.095,0.009,0.211-0.086,0.259l-3.928,1.965l-7.975,23.924 C34.157,30.14,34.083,30.193,34,30.193z"/><path fill="#a3a9af" d="M34,30.159H5c-0.073,0-0.138-0.05-0.154-0.122l-3.5-14.5c-0.021-0.086,0.032-0.17,0.117-0.192 c0.087-0.022,0.171,0.031,0.192,0.117l3.471,14.378h28.76L41.849,5.95c0.013-0.041,0.041-0.073,0.08-0.092l4-2 c0.079-0.041,0.174-0.007,0.213,0.071c0.04,0.078,0.007,0.174-0.071,0.213L42.13,6.113l-7.98,23.937 C34.129,30.116,34.068,30.159,34,30.159z"/><path fill="#a9afb5" d="M34,30.125H5c-0.058,0-0.108-0.039-0.121-0.096l-3.5-14.5c-0.017-0.067,0.024-0.135,0.092-0.15 c0.068-0.02,0.135,0.024,0.15,0.092l3.478,14.404H33.91l7.972-23.914c0.01-0.032,0.032-0.058,0.063-0.072l4-2 c0.063-0.033,0.137-0.005,0.167,0.056c0.031,0.062,0.006,0.137-0.056,0.167l-3.953,1.978l-7.984,23.95 C34.102,30.091,34.054,30.125,34,30.125z"/></g><g><path fill="#6b7277" d="M1.499,16c-0.247,0-0.463-0.185-0.495-0.437c-0.035-0.273,0.158-0.524,0.433-0.56l39-5 c0.27-0.038,0.524,0.158,0.56,0.433c0.035,0.273-0.158,0.524-0.433,0.56l-39,5C1.542,15.999,1.521,16,1.499,16z"/><path fill="#71787d" d="M1.499,15.966c-0.23,0-0.431-0.172-0.461-0.407c-0.033-0.255,0.147-0.489,0.403-0.521l39-5 c0.251-0.036,0.489,0.147,0.521,0.403c0.033,0.255-0.147,0.489-0.403,0.521l-39,5C1.539,15.965,1.519,15.966,1.499,15.966z"/><path fill="#767d82" d="M1.499,15.932c-0.214,0-0.4-0.159-0.428-0.377c-0.03-0.236,0.137-0.453,0.374-0.483l39-5 c0.233-0.034,0.453,0.137,0.483,0.374c0.03,0.236-0.137,0.453-0.374,0.483l-39,5C1.536,15.931,1.518,15.932,1.499,15.932z"/><path fill="#7c8388" d="M1.499,15.898c-0.197,0-0.368-0.147-0.394-0.347c-0.028-0.218,0.126-0.417,0.344-0.445l39-5 c0.214-0.032,0.417,0.126,0.445,0.344c0.028,0.218-0.126,0.417-0.344,0.445l-39,5C1.533,15.897,1.516,15.898,1.499,15.898z"/><path fill="#82888e" d="M1.499,15.864c-0.18,0-0.337-0.134-0.36-0.318c-0.026-0.199,0.115-0.381,0.315-0.407l39-5 c0.196-0.031,0.381,0.115,0.407,0.315c0.026,0.199-0.115,0.381-0.315,0.407l-39,5C1.531,15.863,1.515,15.864,1.499,15.864z"/><path fill="#878e93" d="M1.499,15.83c-0.163,0-0.305-0.122-0.326-0.288c-0.023-0.18,0.104-0.346,0.285-0.369l39-5 c0.178-0.029,0.346,0.104,0.369,0.285c0.023,0.18-0.104,0.346-0.285,0.369l-39,5C1.528,15.829,1.513,15.83,1.499,15.83z"/><path fill="#8d9399" d="M1.5,15.795c-0.146,0-0.274-0.109-0.293-0.258c-0.021-0.162,0.094-0.31,0.256-0.331l39-5 c0.159-0.027,0.31,0.094,0.331,0.256c0.021,0.162-0.094,0.31-0.256,0.331l-39,5C1.525,15.795,1.512,15.795,1.5,15.795z"/><path fill="#92999e" d="M1.5,15.761c-0.13,0-0.242-0.096-0.259-0.228c-0.018-0.143,0.083-0.274,0.226-0.292l39-5 c0.141-0.025,0.274,0.083,0.292,0.226c0.018,0.143-0.083,0.274-0.226,0.292l-39,5C1.522,15.761,1.511,15.761,1.5,15.761z"/><path fill="#989ea4" d="M1.5,15.727c-0.113,0-0.211-0.084-0.225-0.199c-0.016-0.124,0.072-0.238,0.197-0.254l39-5 c0.123-0.023,0.238,0.072,0.254,0.197c0.016,0.124-0.072,0.238-0.197,0.254l-39,5C1.519,15.727,1.509,15.727,1.5,15.727z"/><path fill="#9ea4aa" d="M1.5,15.693c-0.096,0-0.179-0.071-0.191-0.169c-0.014-0.106,0.062-0.202,0.167-0.216l39-5 c0.104-0.021,0.202,0.062,0.216,0.167c0.014,0.106-0.062,0.202-0.167,0.216l-39,5C1.516,15.693,1.508,15.693,1.5,15.693z"/><path fill="#a3a9af" d="M1.5,15.659c-0.079,0-0.148-0.059-0.158-0.139c-0.011-0.087,0.051-0.167,0.138-0.178l39-5 c0.086-0.019,0.167,0.051,0.178,0.138c0.011,0.087-0.051,0.167-0.138,0.178l-39,5C1.514,15.659,1.506,15.659,1.5,15.659z"/><path fill="#a9afb5" d="M1.5,15.625c-0.063,0-0.116-0.046-0.124-0.109c-0.009-0.068,0.04-0.131,0.108-0.14l39-5 c0.067-0.018,0.131,0.04,0.14,0.108s-0.04,0.131-0.108,0.14l-39,5C1.511,15.625,1.505,15.625,1.5,15.625z"/></g><g><path fill="#6b7277" d="M33.363,40H3.5C3.224,40,3,39.776,3,39.5S3.224,39,3.5,39h29.863c0.656,0,1.236-0.344,1.552-0.918 c0.315-0.575,0.293-1.248-0.06-1.802l-3.83-6.012c-0.148-0.232-0.08-0.542,0.153-0.69c0.23-0.146,0.541-0.08,0.69,0.153l3.83,6.012 c0.552,0.865,0.586,1.92,0.093,2.819C35.298,39.463,34.391,40,33.363,40z"/><path fill="#71787d" d="M33.363,39.966H3.5c-0.258,0-0.466-0.208-0.466-0.466s0.208-0.466,0.466-0.466h29.863 c0.669,0,1.26-0.35,1.582-0.936c0.321-0.586,0.299-1.272-0.061-1.836l-3.83-6.012c-0.138-0.217-0.075-0.505,0.143-0.643 c0.215-0.136,0.504-0.075,0.643,0.143l3.83,6.012c0.545,0.855,0.579,1.896,0.092,2.785C35.274,39.435,34.378,39.966,33.363,39.966z"/><path fill="#767d82" d="M33.363,39.932H3.5c-0.239,0-0.432-0.193-0.432-0.432s0.193-0.432,0.432-0.432h29.863 c0.681,0,1.284-0.357,1.612-0.953c0.328-0.597,0.304-1.296-0.062-1.871l-3.83-6.012c-0.128-0.201-0.069-0.468,0.132-0.596 c0.199-0.126,0.468-0.069,0.596,0.132l3.83,6.012c0.538,0.844,0.572,1.873,0.09,2.75C35.25,39.408,34.365,39.932,33.363,39.932z"/><path fill="#7c8388" d="M33.363,39.898H3.5c-0.22,0-0.398-0.178-0.398-0.398S3.28,39.102,3.5,39.102h29.863 c0.694,0,1.308-0.363,1.642-0.971c0.334-0.608,0.31-1.32-0.063-1.906l-3.83-6.012c-0.118-0.185-0.064-0.432,0.122-0.549 c0.184-0.116,0.431-0.064,0.549,0.122l3.83,6.012c0.531,0.834,0.564,1.849,0.089,2.715C35.226,39.38,34.353,39.898,33.363,39.898z"/><path fill="#82888e" d="M33.363,39.864H3.5c-0.201,0-0.364-0.163-0.364-0.364s0.163-0.364,0.364-0.364h29.863 c0.707,0,1.331-0.37,1.671-0.989c0.34-0.619,0.316-1.344-0.064-1.94l-3.83-6.012c-0.108-0.169-0.058-0.395,0.111-0.502 c0.168-0.106,0.394-0.058,0.502,0.111l3.83,6.012c0.524,0.823,0.557,1.825,0.088,2.68C35.203,39.353,34.34,39.864,33.363,39.864z"/><path fill="#878e93" d="M33.363,39.83H3.5c-0.182,0-0.33-0.147-0.33-0.33s0.147-0.33,0.33-0.33h29.863 c0.719,0,1.355-0.377,1.701-1.007c0.346-0.63,0.321-1.368-0.065-1.975l-3.83-6.012c-0.098-0.153-0.053-0.358,0.101-0.455 c0.153-0.097,0.357-0.053,0.455,0.101l3.83,6.012c0.518,0.812,0.55,1.802,0.087,2.646C35.179,39.325,34.327,39.83,33.363,39.83z"/><path fill="#8d9399" d="M33.363,39.795H3.5c-0.163,0-0.295-0.132-0.295-0.295s0.132-0.295,0.295-0.295h29.863 c0.732,0,1.379-0.383,1.731-1.025c0.352-0.641,0.327-1.392-0.066-2.009l-3.83-6.012c-0.088-0.138-0.047-0.321,0.09-0.408 c0.137-0.087,0.32-0.047,0.408,0.09l3.83,6.012c0.511,0.802,0.543,1.778,0.086,2.611C35.155,39.298,34.314,39.795,33.363,39.795z"/><path fill="#92999e" d="M33.363,39.761H3.5c-0.145,0-0.261-0.117-0.261-0.261s0.117-0.261,0.261-0.261h29.863 c0.744,0,1.403-0.39,1.761-1.042c0.358-0.652,0.333-1.416-0.068-2.044l-3.83-6.012c-0.078-0.122-0.042-0.284,0.08-0.361 c0.121-0.077,0.284-0.042,0.361,0.08l3.83,6.012c0.504,0.791,0.536,1.755,0.085,2.576C35.131,39.27,34.302,39.761,33.363,39.761z"/><path fill="#989ea4" d="M33.363,39.727H3.5c-0.126,0-0.227-0.101-0.227-0.227s0.101-0.227,0.227-0.227h29.863 c0.757,0,1.427-0.396,1.791-1.06c0.364-0.663,0.338-1.441-0.069-2.079l-3.83-6.012c-0.067-0.106-0.036-0.247,0.07-0.314 c0.106-0.067,0.247-0.036,0.314,0.07l3.83,6.012c0.497,0.781,0.528,1.731,0.084,2.542C35.108,39.243,34.289,39.727,33.363,39.727z"/><path fill="#9ea4aa" d="M33.363,39.693H3.5c-0.107,0-0.193-0.086-0.193-0.193s0.086-0.193,0.193-0.193h29.863 c0.77,0,1.45-0.403,1.821-1.078c0.37-0.674,0.344-1.465-0.07-2.113l-3.83-6.012c-0.057-0.09-0.031-0.21,0.059-0.267 c0.09-0.057,0.21-0.031,0.267,0.059l3.83,6.012c0.49,0.77,0.521,1.707,0.082,2.507C35.084,39.215,34.276,39.693,33.363,39.693z"/><path fill="#a3a9af" d="M33.363,39.659H3.5c-0.088,0-0.159-0.071-0.159-0.159s0.071-0.159,0.159-0.159h29.863 c0.782,0,1.474-0.409,1.851-1.096c0.376-0.685,0.35-1.489-0.071-2.148l-3.83-6.012c-0.047-0.074-0.025-0.173,0.049-0.22 c0.075-0.047,0.173-0.025,0.22,0.049l3.83,6.012c0.483,0.76,0.514,1.684,0.081,2.472C35.06,39.188,34.264,39.659,33.363,39.659z"/><path fill="#a9afb5" d="M33.363,39.625H3.5c-0.069,0-0.125-0.056-0.125-0.125s0.056-0.125,0.125-0.125h29.863 c0.795,0,1.498-0.416,1.881-1.113c0.382-0.696,0.355-1.513-0.072-2.183l-3.83-6.012c-0.037-0.059-0.02-0.136,0.038-0.173 c0.06-0.037,0.137-0.02,0.173,0.038l3.83,6.012c0.477,0.749,0.507,1.66,0.08,2.438C35.036,39.16,34.251,39.625,33.363,39.625z"/></g><linearGradient id="zfv7wYn3DBGinA3RAQtX1f" x1="7.388" x2="8.612" y1="44" y2="44" gradientUnits="userSpaceOnUse"><stop offset="0" stop-color="#393938"/><stop offset=".999" stop-color="#171714"/></linearGradient><circle cx="8" cy="44" r=".612" fill="url(#zfv7wYn3DBGinA3RAQtX1f)"/><linearGradient id="zfv7wYn3DBGinA3RAQtX1g" x1="29.773" x2="29.773" y1="40.678" y2="43.333" gradientUnits="userSpaceOnUse"><stop offset="0" stop-color="#a7adb7"/><stop offset="1" stop-color="#87909b"/></linearGradient><path fill="url(#zfv7wYn3DBGinA3RAQtX1g)" d="M31.618,40h-4.127l2.481,4.314c0.299,0.491,0.848,0.814,1.368,0.627s0.765-0.598,0.705-1.268	L31.618,40z"/><linearGradient id="zfv7wYn3DBGinA3RAQtX1h" x1="30.388" x2="31.612" y1="44" y2="44" gradientUnits="userSpaceOnUse"><stop offset="0" stop-color="#393938"/><stop offset=".999" stop-color="#171714"/></linearGradient><circle cx="31" cy="44" r=".612" fill="url(#zfv7wYn3DBGinA3RAQtX1h)"/><linearGradient id="zfv7wYn3DBGinA3RAQtX1i" x1="3.876" x2="4.103" y1="14.591" y2="16.824" gradientUnits="userSpaceOnUse"><stop offset="0" stop-color="#00b1f2"/><stop offset=".589" stop-color="#00349c"/></linearGradient><path fill="url(#zfv7wYn3DBGinA3RAQtX1i)" d="M7.033,17.125l-6.611,0.853C0.198,18.006,0,17.832,0,17.606v-2.245	c0-0.188,0.14-0.347,0.327-0.371L8,14v2.025C8,16.583,7.586,17.053,7.033,17.125z"/><linearGradient id="zfv7wYn3DBGinA3RAQtX1j" x1="45.639" x2="45.699" y1="3.403" y2="5.028" gradientTransform="rotate(-26.44 45.254 5.25)" gradientUnits="userSpaceOnUse"><stop offset="0" stop-color="#00b1f2"/><stop offset=".805" stop-color="#00349c"/></linearGradient><path fill="url(#zfv7wYn3DBGinA3RAQtX1j)" d="M47.337,4.385l-3.913,1.946c-0.096,0.048-0.213,0.009-0.261-0.088l-0.66-1.328	c-0.048-0.096-0.009-0.213,0.088-0.261l3.913-1.946c0.463-0.23,1.025-0.042,1.256,0.422v0C47.989,3.593,47.8,4.155,47.337,4.385z"/></svg>