<svg xmlns="http://www.w3.org/2000/svg" viewBox="0 0 48 48"><radialGradient id="N7jn8CzKLfgWHPTYEnTiMa" cx="40.95" cy="19.281" r="10.232" gradientTransform="matrix(.6892 -.6085 -.2067 -.533 -6.921 52.061)" gradientUnits="userSpaceOnUse"><stop offset="0" stop-color="#cf7c2b"/><stop offset=".474" stop-color="#cd7b2a"/><stop offset=".645" stop-color="#c67628"/><stop offset=".766" stop-color="#bb6e24"/><stop offset=".865" stop-color="#aa631d"/><stop offset=".948" stop-color="#945516"/><stop offset="1" stop-color="#82490f"/></radialGradient><path fill="url(#N7jn8CzKLfgWHPTYEnTiMa)" d="M23.555,26.27c3.204-6.632,2.075-13.832-2.514-16.049l-0.751,1.553 c3.733,1.803,4.501,7.97,1.711,13.746L23.555,26.27z"/><radialGradient id="N7jn8CzKLfgWHPTYEnTiMb" cx="16.071" cy="22.221" r="16.345" gradientUnits="userSpaceOnUse"><stop offset="0" stop-color="#f8ac91"/><stop offset=".043" stop-color="#f49983"/><stop offset=".297" stop-color="#df2d32"/><stop offset=".411" stop-color="#d60212"/><stop offset=".672" stop-color="#b1020b"/><stop offset="1" stop-color="#860102"/></radialGradient><path fill="url(#N7jn8CzKLfgWHPTYEnTiMb)" d="M25.127,15.411c-0.713,0.349-1.54,0.349-2.253,0c-6.509-3.182-15.265-0.219-15.265,9.126 c0,7.337,5.501,18.653,12.785,19.223c0.775,0.061,1.604-0.236,2.437-0.593c0.798-0.342,1.708-0.337,2.502,0.014 c0.81,0.357,1.591,0.644,2.386,0.57c7.228-0.676,12.673-11.914,12.673-19.213C40.391,15.192,31.636,12.229,25.127,15.411z"/><radialGradient id="N7jn8CzKLfgWHPTYEnTiMc" cx="-249.563" cy="-353.96" r="7.691" gradientTransform="matrix(1.0821 -.9141 -.7821 -.4335 16.258 -375.642)" gradientUnits="userSpaceOnUse"><stop offset="0" stop-color="#9bcc00"/><stop offset=".46" stop-color="#99ca00"/><stop offset=".626" stop-color="#94c301"/><stop offset=".744" stop-color="#8ab803"/><stop offset=".84" stop-color="#7ba706"/><stop offset=".921" stop-color="#69910a"/><stop offset=".992" stop-color="#52760e"/><stop offset="1" stop-color="#4f730f"/></radialGradient><path fill="url(#N7jn8CzKLfgWHPTYEnTiMc)" d="M23.054,13.14c0,0,1.92,1.61,5.273-0.127c5.063-2.622,3.474-8.782,3.474-8.782 s0.062,0.16-1.531,1.15c-2.235,1.389-4.563,1.179-6.293,3.017C21.964,10.54,23.054,13.14,23.054,13.14z"/></svg>