<svg xmlns="http://www.w3.org/2000/svg" xmlns:xlink="http://www.w3.org/1999/xlink" viewBox="0 0 48 48"><defs><radialGradient id="i1BX_Q~XuTm95_JmKRIBWa" cx="16.838" cy="25.183" r="6.59" gradientTransform="rotate(-177.337 16.995 18.408) scale(1 .462)" gradientUnits="userSpaceOnUse"><stop offset="0" stop-color="#f9d18a" stop-opacity=".8"/><stop offset=".112" stop-color="#f9d18a" stop-opacity=".745"/><stop offset=".321" stop-color="#f9d18a" stop-opacity=".6"/><stop offset=".606" stop-color="#f9d18a" stop-opacity=".366"/><stop offset=".952" stop-color="#f9d18a" stop-opacity=".046"/><stop offset="1" stop-color="#f9d18a" stop-opacity="0"/></radialGradient><linearGradient id="i1BX_Q~XuTm95_JmKRIBWb" x1="31.942" x2="33.133" y1="13.994" y2="9.122" gradientUnits="userSpaceOnUse"><stop offset="0" stop-color="#f9d18a"/><stop offset=".403" stop-color="#f4b95f"/><stop offset=".792" stop-color="#f0a53b"/><stop offset="1" stop-color="#ee9d2d"/></linearGradient><radialGradient id="i1BX_Q~XuTm95_JmKRIBWd" cx="26.958" cy="16.055" r="5.554" gradientTransform="matrix(-.999 -.046 .017 -.359 53.619 23.073)" xlink:href="#i1BX_Q~XuTm95_JmKRIBWa"/><radialGradient id="i1BX_Q~XuTm95_JmKRIBWe" cx="4.709" cy="31.93" r="8.439" gradientTransform="matrix(.929 .37 -.218 .547 7.296 12.717)" xlink:href="#i1BX_Q~XuTm95_JmKRIBWa"/><linearGradient id="i1BX_Q~XuTm95_JmKRIBWf" x1="23.177" x2="24.187" y1="22.533" y2="16.682" xlink:href="#i1BX_Q~XuTm95_JmKRIBWb"/><linearGradient id="i1BX_Q~XuTm95_JmKRIBWg" x1="12.999" x2="13.779" y1="32.512" y2="26.208" xlink:href="#i1BX_Q~XuTm95_JmKRIBWb"/><linearGradient id="i1BX_Q~XuTm95_JmKRIBWc" x1="10.88" x2="21.166" y1="29.769" y2="29.769" gradientUnits="userSpaceOnUse"><stop offset="0" stop-color="#a6430d"/><stop offset=".4" stop-color="#b14b10"/><stop offset="1" stop-color="#c95e16"/></linearGradient><linearGradient id="i1BX_Q~XuTm95_JmKRIBWh" x1="21.152" x2="30.662" y1="20.173" y2="20.173" xlink:href="#i1BX_Q~XuTm95_JmKRIBWc"/><linearGradient id="i1BX_Q~XuTm95_JmKRIBWi" x1="30.066" x2="39.367" y1="12.381" y2="12.381" xlink:href="#i1BX_Q~XuTm95_JmKRIBWc"/><radialGradient id="i1BX_Q~XuTm95_JmKRIBWj" cx="37.033" cy="6.145" r="6.388" gradientTransform="rotate(-7.832 53.506 5.02) scale(1 .633)" xlink:href="#i1BX_Q~XuTm95_JmKRIBWa"/></defs><g data-name="Baguette Bread"><path fill="#d7791d" d="M36.99,20.459c-9.076,7.981-20.8,19.968-24.78,22.063-4.566,2.4-9.319-.555-9.492-4.7a6.777,6.777,0,0,1,1.591-3.985,12.094,12.094,0,0,1,4.125-3.763c5.138-2.913,4.753-4.579,4.753-4.579s2.435-2.808,4.9-3.553,3.274-4.905,3.274-4.905a10.8,10.8,0,0,1,5.313-3.519,24.351,24.351,0,0,1,3.565-3.821s7.771-6.431,12.489-4.556A3.681,3.681,0,0,1,44.47,6.17C46.637,8.849,44.6,13.76,36.99,20.459Z"/><path fill="#d87a1e" d="M36.964,20.359C27.9,28.323,16.217,40.328,12.236,42.4,7.7,44.757,2.863,41.93,2.721,37.781A6.933,6.933,0,0,1,4.338,33.8a12.4,12.4,0,0,1,4.1-3.733c5.11-2.937,4.751-4.574,4.751-4.574s2.435-2.816,4.907-3.554,3.267-4.9,3.267-4.9a10.825,10.825,0,0,1,5.32-3.525,24.351,24.351,0,0,1,3.565-3.821s7.771-6.431,12.489-4.556a3.669,3.669,0,0,1,1.727,1.03C46.589,8.785,44.513,13.716,36.964,20.359Z"/><path fill="#d87c1f" d="M36.939,20.259c-9.049,7.947-20.695,19.97-24.676,22.009-4.5,2.322-9.427-.375-9.539-4.525a7.01,7.01,0,0,1,1.643-3.986,12.548,12.548,0,0,1,4.072-3.7c5.082-2.962,4.747-4.569,4.747-4.569s2.439-2.818,4.911-3.556,3.258-4.892,3.258-4.892,2.3-2.891,5.328-3.532a24.351,24.351,0,0,1,3.565-3.821s7.771-6.431,12.49-4.556a3.663,3.663,0,0,1,1.715,1.028C46.54,8.72,44.428,13.672,36.939,20.259Z"/><path fill="#d97d20" d="M36.913,20.159c-9.035,7.93-20.646,19.962-24.624,21.983-4.47,2.27-9.481-.286-9.561-4.436A7.09,7.09,0,0,1,4.4,33.718a12.8,12.8,0,0,1,4.045-3.672c5.062-2.975,4.745-4.565,4.745-4.565s2.441-2.819,4.913-3.557,3.251-4.885,3.251-4.885,2.306-2.9,5.335-3.539A24.351,24.351,0,0,1,30.25,9.679s7.771-6.431,12.49-4.556a3.658,3.658,0,0,1,1.7,1.026C46.492,8.655,44.343,13.628,36.913,20.159Z"/><path fill="#da7e21" d="M36.888,20.059c-9.022,7.913-20.595,19.96-24.572,21.956-4.438,2.227-9.536-.2-9.585-4.347a7.181,7.181,0,0,1,1.694-3.989,13.016,13.016,0,0,1,4.019-3.642c5.036-2.994,4.741-4.56,4.741-4.56s2.444-2.82,4.916-3.558,3.243-4.879,3.243-4.879,2.314-2.9,5.343-3.545a24.351,24.351,0,0,1,3.565-3.821s7.771-6.431,12.49-4.555a3.633,3.633,0,0,1,1.694,1.023C46.443,8.59,44.259,13.583,36.888,20.059Z"/><path fill="#da7f22" d="M36.862,19.958c-9.008,7.9-20.542,19.959-24.519,21.93-4.407,2.184-9.591-.1-9.608-4.257a7.259,7.259,0,0,1,1.719-3.99,13.238,13.238,0,0,1,3.992-3.612c5.012-3.014,4.739-4.555,4.739-4.555s2.446-2.822,4.918-3.56,3.236-4.872,3.236-4.872,2.321-2.911,5.351-3.552a24.351,24.351,0,0,1,3.565-3.821s7.771-6.431,12.489-4.555a3.615,3.615,0,0,1,1.683,1.021C46.4,8.525,44.174,13.539,36.862,19.958Z"/><path fill="#db8123" d="M36.837,19.858c-9,7.88-20.491,19.957-24.468,21.9C8,43.9,2.725,41.746,2.738,37.593A7.35,7.35,0,0,1,4.483,33.6,13.482,13.482,0,0,1,8.449,30.02c4.987-3.033,4.735-4.55,4.735-4.55s2.449-2.823,4.921-3.561,3.228-4.865,3.228-4.865,2.33-2.918,5.359-3.559a24.351,24.351,0,0,1,3.565-3.821s7.771-6.431,12.489-4.555a3.6,3.6,0,0,1,1.673,1.02C46.346,8.46,44.089,13.5,36.837,19.858Z"/><path fill="#db8224" d="M36.811,19.758C27.83,27.621,16.373,39.714,12.4,41.634c-4.342,2.1-9.7.075-9.655-4.079a7.45,7.45,0,0,1,1.771-3.992,13.763,13.763,0,0,1,3.939-3.551c4.962-3.053,4.733-4.546,4.733-4.546s2.451-2.823,4.923-3.562,3.221-4.859,3.221-4.859,2.337-2.924,5.366-3.565a24.351,24.351,0,0,1,3.565-3.821S38.03,3.228,42.749,5.1A3.587,3.587,0,0,1,44.41,6.122C46.3,8.4,44,13.451,36.811,19.758Z"/><path fill="#dc8325" d="M36.786,19.658C27.819,27.5,16.4,39.612,12.423,41.508c-4.31,2.054-9.754.164-9.678-3.99a7.522,7.522,0,0,1,1.8-3.993A14,14,0,0,1,8.454,30c4.937-3.074,4.729-4.542,4.729-4.542s2.455-2.824,4.927-3.563,3.212-4.852,3.212-4.852,2.345-2.931,5.374-3.572a24.351,24.351,0,0,1,3.565-3.821S38.032,3.223,42.751,5.1A3.575,3.575,0,0,1,44.4,6.115C46.249,8.331,43.92,13.407,36.786,19.658Z"/><path fill="#dd8426" d="M36.76,19.558c-8.953,7.829-20.334,19.953-24.311,21.823-4.277,2.011-9.808.254-9.7-3.9A7.626,7.626,0,0,1,4.57,33.486,14.315,14.315,0,0,1,8.456,30c4.912-3.094,4.727-4.536,4.727-4.536s2.457-2.826,4.929-3.565,3.205-4.845,3.205-4.845,2.352-2.938,5.381-3.579a24.351,24.351,0,0,1,3.565-3.821s7.771-6.431,12.49-4.555a3.567,3.567,0,0,1,1.64,1.014C46.2,8.266,43.835,13.363,36.76,19.558Z"/><path fill="#dd8627" d="M36.735,19.458C27.8,27.27,16.452,39.41,12.476,41.254c-4.245,1.969-9.862.344-9.725-3.811a7.725,7.725,0,0,1,1.848-4,14.624,14.624,0,0,1,3.86-3.46c4.887-3.116,4.723-4.532,4.723-4.532s2.46-2.827,4.932-3.566,3.2-4.839,3.2-4.839,2.36-2.944,5.389-3.585a24.324,24.324,0,0,1,3.566-3.821s7.771-6.431,12.489-4.555A3.54,3.54,0,0,1,44.384,6.1C46.152,8.2,43.75,13.319,36.735,19.458Z"/><path fill="#de8728" d="M36.709,19.358C27.783,27.153,16.479,39.309,12.5,41.127c-4.212,1.927-9.917.434-9.748-3.722a7.814,7.814,0,0,1,1.873-4,14.937,14.937,0,0,1,3.833-3.43c4.862-3.137,4.721-4.528,4.721-4.528s2.462-2.828,4.934-3.567,3.19-4.832,3.19-4.832,2.367-2.951,5.4-3.592a24.351,24.351,0,0,1,3.565-3.821s7.771-6.431,12.489-4.555a3.541,3.541,0,0,1,1.619,1.01C46.1,8.136,43.666,13.274,36.709,19.358Z"/><path fill="#df8829" d="M36.684,19.258C27.771,27.036,16.506,39.208,12.529,41c-4.179,1.884-9.971.523-9.771-3.634a7.913,7.913,0,0,1,1.9-4,15.322,15.322,0,0,1,3.807-3.4c4.836-3.158,4.717-4.522,4.717-4.522s2.465-2.83,4.937-3.569S21.3,17.054,21.3,17.054s2.375-2.958,5.4-3.6A24.341,24.341,0,0,1,30.27,9.634S38.041,3.2,42.759,5.079a3.528,3.528,0,0,1,1.608,1.008C46.055,8.071,43.581,13.23,36.684,19.258Z"/><path fill="#df892a" d="M36.658,19.157c-8.9,7.762-20.125,19.95-24.1,21.717-4.146,1.842-10.025.613-9.794-3.544a8.012,8.012,0,0,1,1.924-4,15.692,15.692,0,0,1,3.78-3.369c4.811-3.181,4.715-4.518,4.715-4.518s2.467-2.831,4.939-3.57S21.3,17.055,21.3,17.055s2.383-2.964,5.412-3.6a24.341,24.341,0,0,1,3.565-3.822S38.043,3.2,42.762,5.074a3.522,3.522,0,0,1,1.6,1.006C46.007,8.006,43.5,13.186,36.658,19.157Z"/><path fill="#e08b2b" d="M36.633,19.057c-8.886,7.745-20.073,19.95-24.05,21.69-4.113,1.8-10.08.7-9.818-3.455a8.108,8.108,0,0,1,1.95-4,16.13,16.13,0,0,1,3.754-3.34c4.784-3.2,4.711-4.513,4.711-4.513s2.471-2.832,4.943-3.571,3.167-4.812,3.167-4.812,2.39-2.971,5.419-3.611a24.341,24.341,0,0,1,3.565-3.822s7.771-6.431,12.49-4.555a3.494,3.494,0,0,1,1.586,1C45.958,7.942,43.412,13.142,36.633,19.057Z"/><path fill="#e18c2c" d="M36.607,18.957c-8.872,7.728-20.019,19.949-24,21.663-4.08,1.758-10.134.793-9.841-3.365a8.209,8.209,0,0,1,1.976-4,16.547,16.547,0,0,1,3.727-3.309c4.759-3.225,4.709-4.508,4.709-4.508s2.473-2.834,4.945-3.573,3.159-4.806,3.159-4.806,2.4-2.977,5.427-3.617a24.341,24.341,0,0,1,3.565-3.822s7.771-6.431,12.49-4.555a3.489,3.489,0,0,1,1.576,1C45.91,7.877,43.327,13.1,36.607,18.957Z"/><path fill="#e18d2d" d="M36.582,18.857c-8.858,7.711-19.967,19.949-23.946,21.636-4.047,1.717-10.189.883-9.864-3.276a8.314,8.314,0,0,1,2-4,17.039,17.039,0,0,1,3.7-3.278c4.732-3.248,4.705-4.5,4.705-4.5s2.476-2.835,4.948-3.574,3.152-4.8,3.152-4.8,2.405-2.984,5.435-3.624a24.289,24.289,0,0,1,3.565-3.822S38.05,3.183,42.768,5.059a3.473,3.473,0,0,1,1.565,1C45.861,7.812,43.242,13.054,36.582,18.857Z"/><path fill="#e28e2e" d="M36.556,18.757c-8.844,7.7-19.914,19.949-23.893,21.61-4.014,1.675-10.243.972-9.888-3.188a8.417,8.417,0,0,1,2.027-4,17.6,17.6,0,0,1,3.674-3.249c4.706-3.271,4.7-4.5,4.7-4.5s2.478-2.836,4.95-3.575,3.144-4.792,3.144-4.792,2.414-2.991,5.443-3.631a24.341,24.341,0,0,1,3.565-3.822S38.052,3.178,42.77,5.054a3.451,3.451,0,0,1,1.554,1C45.813,7.747,43.157,13.01,36.556,18.757Z"/><path fill="#e3902f" d="M36.531,18.657C27.7,26.335,16.67,38.606,12.689,40.24s-10.3,1.062-9.911-3.1a8.533,8.533,0,0,1,2.053-4A18.14,18.14,0,0,1,8.479,29.92c4.679-3.3,4.7-4.5,4.7-4.5s2.481-2.837,4.953-3.576,3.137-4.786,3.137-4.786,2.421-3,5.45-3.637A24.341,24.341,0,0,1,30.283,9.6s7.771-6.431,12.489-4.555a3.461,3.461,0,0,1,1.544,1C45.764,7.682,43.073,12.965,36.531,18.657Z"/><path fill="#e39130" d="M36.505,18.557C27.688,26.218,16.7,38.506,12.716,40.113,8.769,41.706,2.364,41.266,2.782,37.1A8.636,8.636,0,0,1,4.86,33.1a18.863,18.863,0,0,1,3.621-3.188c4.653-3.318,4.7-4.489,4.7-4.489s2.484-2.839,4.956-3.578,3.128-4.779,3.128-4.779,2.429-3,5.458-3.644A24.341,24.341,0,0,1,30.285,9.6s7.771-6.431,12.49-4.555a3.435,3.435,0,0,1,1.532,1C45.716,7.617,42.988,12.921,36.505,18.557Z"/><path fill="#e49231" d="M36.48,18.457c-8.8,7.644-19.755,19.95-23.737,21.529C8.83,41.539,2.336,41.229,2.785,37.067a8.739,8.739,0,0,1,2.1-4.006,19.5,19.5,0,0,1,3.6-3.158c4.625-3.343,4.693-4.485,4.693-4.485s2.487-2.84,4.959-3.579,3.121-4.772,3.121-4.772,2.436-3.011,5.465-3.651a24.341,24.341,0,0,1,3.565-3.822s7.771-6.431,12.49-4.555a3.428,3.428,0,0,1,1.522.993C45.667,7.553,42.9,12.877,36.48,18.457Z"/><path fill="#e49332" d="M36.455,18.356c-8.791,7.628-19.7,19.951-23.686,21.5-3.879,1.512-10.46,1.332-9.981-2.831a8.863,8.863,0,0,1,2.13-4.007A20.272,20.272,0,0,1,8.486,29.9c4.6-3.368,4.691-4.481,4.691-4.481s2.489-2.841,4.961-3.58,3.113-4.766,3.113-4.766,2.444-3.017,5.473-3.657A24.314,24.314,0,0,1,30.29,9.589s7.77-6.431,12.489-4.555a3.4,3.4,0,0,1,1.511.992C45.619,7.488,42.819,12.833,36.455,18.356Z"/><path fill="#e59433" d="M36.429,18.256C27.652,25.867,16.78,38.208,12.8,39.733c-3.846,1.471-10.515,1.422-10-2.741a8.971,8.971,0,0,1,2.155-4.009,21.067,21.067,0,0,1,3.541-3.1c4.571-3.392,4.688-4.475,4.688-4.475s2.492-2.843,4.964-3.582,3.106-4.759,3.106-4.759,2.451-3.023,5.481-3.664a24.341,24.341,0,0,1,3.565-3.822s7.771-6.431,12.489-4.555a3.4,3.4,0,0,1,1.5.99C45.57,7.423,42.734,12.789,36.429,18.256Z"/><path fill="#e69634" d="M36.4,18.156c-8.764,7.594-19.6,19.953-23.581,21.45C9.011,41.038,2.253,41.118,2.8,36.954a9.1,9.1,0,0,1,2.181-4.009,21.96,21.96,0,0,1,3.515-3.067c4.543-3.418,4.685-4.471,4.685-4.471s2.494-2.844,4.966-3.583,3.1-4.752,3.1-4.752,2.459-3.03,5.488-3.671a24.341,24.341,0,0,1,3.565-3.822s7.771-6.431,12.489-4.555a3.377,3.377,0,0,1,1.49.988C45.522,7.358,42.649,12.745,36.4,18.156Z"/><path fill="#e69735" d="M36.378,18.056c-8.75,7.577-19.542,19.955-23.529,21.423-3.778,1.392-10.623,1.6-10.05-2.563a9.2,9.2,0,0,1,2.206-4.01,23.179,23.179,0,0,1,3.488-3.037c4.515-3.443,4.682-4.466,4.682-4.466s2.5-2.845,4.969-3.584,3.091-4.746,3.091-4.746,2.467-3.036,5.5-3.677A24.341,24.341,0,0,1,30.3,9.574s7.771-6.431,12.49-4.555a3.356,3.356,0,0,1,1.478.986C45.473,7.293,42.565,12.7,36.378,18.056Z"/><path fill="#e79836" d="M36.353,17.956c-8.736,7.56-19.489,19.956-23.477,21.4C9.132,40.705,2.2,41.044,2.8,36.879a9.327,9.327,0,0,1,2.232-4.012A24.289,24.289,0,0,1,8.5,29.861c4.486-3.47,4.679-4.461,4.679-4.461s2.5-2.847,4.972-3.586,3.083-4.739,3.083-4.739,2.474-3.043,5.5-3.684A24.387,24.387,0,0,1,30.3,9.569s7.771-6.431,12.49-4.555A3.357,3.357,0,0,1,44.256,6C45.425,7.228,42.48,12.657,36.353,17.956Z"/><path fill="#e89937" d="M36.327,17.856C27.605,25.4,16.892,37.814,12.9,39.226c-3.71,1.312-10.733,1.781-10.1-2.385a9.445,9.445,0,0,1,2.258-4.012A25.612,25.612,0,0,1,8.5,29.853c4.457-3.5,4.676-4.457,4.676-4.457s2.5-2.848,4.975-3.587,3.075-4.732,3.075-4.732,2.482-3.05,5.511-3.691A24.387,24.387,0,0,1,30.3,9.564s7.771-6.431,12.49-4.555a3.349,3.349,0,0,1,1.457.982C45.376,7.163,42.4,12.612,36.327,17.856Z"/><path fill="#e89b38" d="M36.3,17.756C27.593,25.282,16.92,37.716,12.929,39.1,9.253,40.372,2.142,40.97,2.809,36.8A9.553,9.553,0,0,1,5.092,32.79,27.187,27.187,0,0,1,8.5,29.844c4.427-3.524,4.673-4.452,4.673-4.452s2.505-2.849,4.977-3.588,3.068-4.726,3.068-4.726,2.489-3.056,5.518-3.7A24.36,24.36,0,0,1,30.3,9.559S38.074,3.128,42.792,5a3.336,3.336,0,0,1,1.447.98C45.328,7.1,42.31,12.568,36.3,17.756Z"/><path fill="#e99c39" d="M36.276,17.656c-8.7,7.509-19.327,19.963-23.32,21.316C9.314,40.207,2.115,40.933,2.812,36.766a9.7,9.7,0,0,1,2.309-4.015A28.99,28.99,0,0,1,8.5,29.836c4.4-3.552,4.67-4.448,4.67-4.448s2.508-2.85,4.98-3.589,3.06-4.719,3.06-4.719,2.5-3.063,5.527-3.7a24.351,24.351,0,0,1,3.565-3.821S38.076,3.123,42.794,5a3.321,3.321,0,0,1,1.436.978C45.279,7.034,42.226,12.524,36.276,17.656Z"/><path fill="#ea9d3a" d="M36.251,17.555c-8.682,7.493-19.274,19.967-23.268,21.29-3.608,1.2-10.9,2.051-10.168-2.117A9.814,9.814,0,0,1,5.15,32.713a31.168,31.168,0,0,1,3.356-2.886c4.367-3.58,4.667-4.442,4.667-4.442s2.51-2.852,4.982-3.591,3.053-4.713,3.053-4.713,2.505-3.069,5.534-3.71A24.351,24.351,0,0,1,30.307,9.55S38.078,3.118,42.8,4.994a3.291,3.291,0,0,1,1.425.977C45.231,6.969,42.141,12.48,36.251,17.555Z"/><path fill="#ea9e3b" d="M36.225,17.455c-8.668,7.476-19.22,19.97-23.216,21.264-3.573,1.157-10.95,2.14-10.19-2.028a9.944,9.944,0,0,1,2.36-4.017,33.644,33.644,0,0,1,3.329-2.855c4.336-3.609,4.664-4.438,4.664-4.438s2.513-2.853,4.985-3.592S21.2,17.083,21.2,17.083s2.513-3.076,5.542-3.717a24.351,24.351,0,0,1,3.565-3.821S38.08,3.113,42.8,4.989a3.286,3.286,0,0,1,1.414.975C45.182,6.9,42.056,12.436,36.225,17.455Z"/><path fill="#eba03c" d="M36.2,17.355c-8.655,7.459-19.166,19.973-23.164,21.237-3.539,1.119-11,2.23-10.214-1.939a10.065,10.065,0,0,1,2.386-4.018,36.51,36.51,0,0,1,3.3-2.824c4.3-3.639,4.661-4.434,4.661-4.434s2.516-2.854,4.988-3.593,3.037-4.7,3.037-4.7,2.52-3.083,5.549-3.724A24.351,24.351,0,0,1,30.311,9.54S38.082,3.108,42.8,4.984a3.271,3.271,0,0,1,1.4.973C45.134,6.839,41.972,12.392,36.2,17.355Z"/><path fill="#eba13d" d="M36.174,17.255C27.533,24.7,17.062,37.232,13.063,38.465,9.558,39.546,2,40.785,2.826,36.616A10.185,10.185,0,0,1,5.237,32.6a40.286,40.286,0,0,1,3.276-2.8c4.273-3.668,4.658-4.428,4.658-4.428s2.519-2.856,4.991-3.595,3.029-4.693,3.029-4.693,2.528-3.089,5.557-3.73a24.351,24.351,0,0,1,3.565-3.821S38.084,3.1,42.8,4.979A3.263,3.263,0,0,1,44.2,5.95C45.085,6.774,41.887,12.348,36.174,17.255Z"/><path fill="#eca23e" d="M36.149,17.155c-8.627,7.425-19.058,19.981-23.06,21.183-3.47,1.043-11.113,2.411-10.26-1.76a10.321,10.321,0,0,1,2.437-4.02c1.058-1.1,2.3-1.937,3.25-2.764,4.24-3.7,4.655-4.424,4.655-4.424s2.521-2.857,4.993-3.6,3.022-4.686,3.022-4.686,2.535-3.1,5.565-3.737A24.3,24.3,0,0,1,30.316,9.53S38.087,3.1,42.805,4.974a3.248,3.248,0,0,1,1.382.969C45.037,6.71,41.8,12.3,36.149,17.155Z"/><path fill="#eda33f" d="M36.123,17.055c-8.613,7.408-19,19.985-23.007,21.157-3.436,1-11.168,2.5-10.284-1.672A10.436,10.436,0,0,1,5.3,32.519c1.058-1.089,2.3-1.913,3.223-2.734,4.207-3.729,4.652-4.419,4.652-4.419s2.524-2.858,5-3.6S21.18,17.09,21.18,17.09s2.544-3.1,5.573-3.744a24.351,24.351,0,0,1,3.565-3.821s7.771-6.432,12.489-4.556a3.234,3.234,0,0,1,1.372.967C44.988,6.645,41.718,12.259,36.123,17.055Z"/><path fill="#eda540" d="M36.1,16.955c-8.6,7.391-18.948,20-22.955,21.13-3.4.973-11.222,2.59-10.307-1.582a10.574,10.574,0,0,1,2.488-4.022c1.06-1.078,2.293-1.892,3.2-2.7a57.953,57.953,0,0,0,4.649-4.414s2.526-2.86,5-3.6,3.007-4.673,3.007-4.673,2.551-3.109,5.58-3.75A24.351,24.351,0,0,1,30.32,9.52s7.771-6.432,12.49-4.556a3.228,3.228,0,0,1,1.36.965C44.94,6.58,41.633,12.215,36.1,16.955Z"/><path fill="#eea641" d="M44.161,5.923c.73.592-2.613,6.248-8.089,10.932-8.586,7.374-18.9,20-22.9,21.1-3.367.932-11.276,2.68-10.33-1.493a10.726,10.726,0,0,1,2.514-4.023c1.063-1.067,2.291-1.867,3.17-2.673,4.138-3.794,4.646-4.41,4.646-4.41s2.532-2.854,5-3.6,3-4.666,3-4.666,2.558-3.116,5.587-3.757a24.351,24.351,0,0,1,3.565-3.821s7.771-6.431,12.49-4.556A3.2,3.2,0,0,1,44.161,5.923Z"/><path fill="url(#i1BX_Q~XuTm95_JmKRIBWa)" d="M23.681,25.948c-.12,1.13-1.639,1.9-3.64,2.27-.417.083-.852.148-1.3.194a15.367,15.367,0,0,1-7.6-1.019.1.1,0,0,1-.046-.018c.037-.037.083-.084.13-.139l.009-.009h.018l.01-.01c1.639-1.547,1.9-1.862,1.9-1.862s.352-.4.926-.944c.111-.093.222-.2.343-.315.491-.436.991-.853,1.482-1.232a9.77,9.77,0,0,1,1.741-1.093c.111.018.222.027.334.055a11.122,11.122,0,0,1,1.13.223C21.791,22.688,23.894,24.049,23.681,25.948Z"/><path fill="url(#i1BX_Q~XuTm95_JmKRIBWb)" d="M38.555,14.574a2.693,2.693,0,0,1-2.268.79,10.979,10.979,0,0,1-3.737-1.129,9.8,9.8,0,0,0-7.868-.085c.226-.235,3.53-3.642,5.384-4.574a2.639,2.639,0,0,1,.47-.188S42.545,10.452,38.555,14.574Z"/><path fill="url(#i1BX_Q~XuTm95_JmKRIBWd)" d="M32.245,16.222c-.167,2.733-7.9,2.585-10.8.852a.058.058,0,0,0-.009-.037.31.31,0,0,0-.021-.179,12.25,12.25,0,0,1,4.2-3.137c.158-.065.315-.12.491-.176.213-.065.436-.129.667-.185,0,0,.047-.056.13-.167C29.716,13.591,32.328,14.861,32.245,16.222Z"/><path fill="url(#i1BX_Q~XuTm95_JmKRIBWe)" d="M12.588,35.42c-3.51,3.6-8.216,3.163-9.609.678a.522.522,0,0,0,.038-.132.035.035,0,0,0,.009-.028,11.225,11.225,0,0,1,2.325-3.492,11.329,11.329,0,0,1,2.612-.7,13,13,0,0,0,2.142.1C13.136,32.49,16.137,31.778,12.588,35.42Z"/><path fill="url(#i1BX_Q~XuTm95_JmKRIBWf)" d="M30.656,21.113a.625.625,0,0,1-.028.185.782.782,0,0,1-.037.148,3.08,3.08,0,0,1-.806,1.316l-.259.259a2.162,2.162,0,0,1-1.306.482,1.433,1.433,0,0,1-.2.018c-2.186.056-5.521-1.676-8.929-1.472a7.468,7.468,0,0,0-3.224.9.216.216,0,0,1,.037-.056.009.009,0,0,0,.009-.009c1.344-2.028,4.474-4.9,5.243-5.789v-.009c.111-.13.25-.26.25-.26a.428.428,0,0,1,.074.009,1.321,1.321,0,0,1,.241.028.515.515,0,0,0,.13.019c.176.028.389.055.63.092.083.019.176.028.278.047.2.037.426.074.667.12.157.028.324.056.491.093a.138.138,0,0,0,.064.009c.315.065.64.13.973.213a.086.086,0,0,0,.046.009c.278.065.565.139.853.223a17.249,17.249,0,0,1,1.778.565C29.359,18.908,30.767,19.835,30.656,21.113Z"/><path fill="url(#i1BX_Q~XuTm95_JmKRIBWg)" d="M20.559,31.071a5.354,5.354,0,0,1-.4.472,2.94,2.94,0,0,1-1.269.825,9.149,9.149,0,0,1-3.511.361h-.055c-.435-.019-.88-.056-1.334-.1-3.112-.287-6.5-.963-8.29-.306-.01.009-.01.009-.019.009a2.217,2.217,0,0,0-.417.214c-.009,0-.018,0-.018.009a.375.375,0,0,0-.065.037c.908-1.881,4.094-4.27,5.7-5.215a1.073,1.073,0,0,1,.342-.139h.01l.009-.009h.018l.01-.01a.182.182,0,0,0,.065-.018c.2-.01.778-.028,1.546-.028,2.029,0,5.41.148,7.161,1.047.083.037.148.083.222.12.083.056.176.111.259.176.065.056.121.111.176.167C21.282,29.246,21.356,30.024,20.559,31.071Z"/><path fill="url(#i1BX_Q~XuTm95_JmKRIBWc)" d="M20.559,31.071a5.354,5.354,0,0,1-.4.472,2.94,2.94,0,0,1-1.269.825c2.121-2.1,1.491-3.28-.148-3.956-2.056-.852-5.734-.908-7.6-1.019h-.065c-.064-.009-.139-.009-.2-.018.12-.047.231-.093.342-.139h.01a.033.033,0,0,1,.027-.009l.01-.01a.182.182,0,0,0,.065-.018c.2-.01.778-.028,1.546-.028,2.029,0,5.41.148,7.161,1.047.083.037.148.083.222.12.083.056.176.111.259.176a1.7,1.7,0,0,1,.232.2C21.319,29.292,21.347,30.042,20.559,31.071Z" opacity=".3"/><path fill="url(#i1BX_Q~XuTm95_JmKRIBWh)" d="M30.656,21.113a.625.625,0,0,1-.028.185.782.782,0,0,1-.037.148,3.08,3.08,0,0,1-.806,1.316l-.259.259a2.162,2.162,0,0,1-1.306.482,1.433,1.433,0,0,1-.2.018,1.48,1.48,0,0,0,.389-.185,2.981,2.981,0,0,0,.964-.935,2.782,2.782,0,0,0,.407-1.686c-.074-1.1-1.908-1.946-3.872-2.538-1.426-.426-2.927-.741-3.853-.927-.2-.027-.695-.111-.9-.157v-.009c.111-.13.25-.26.25-.26a.428.428,0,0,1,.074.009,1.321,1.321,0,0,1,.241.028c.037.01.084.01.13.019.176.028.389.055.63.092a2.2,2.2,0,0,0,.278.047c.2.037.426.074.667.12.157.028.324.056.491.093a.138.138,0,0,0,.064.009c.306.065.64.139.973.213a.086.086,0,0,0,.046.009c.288.074.565.149.853.223a17.249,17.249,0,0,1,1.778.565C29.359,18.908,30.767,19.835,30.656,21.113Z" opacity=".3"/><path fill="url(#i1BX_Q~XuTm95_JmKRIBWi)" d="M38.555,14.574a2.693,2.693,0,0,1-2.268.79c.932-.357,2.71-1.251,2.259-2.767-.49-1.656-6.344-2.691-8.48-3.021a2.639,2.639,0,0,1,.47-.188S42.545,10.452,38.555,14.574Z" opacity=".3"/><path fill="url(#i1BX_Q~XuTm95_JmKRIBWj)" d="M43.543,7.779a2.916,2.916,0,0,1-.085.724v.01a2.162,2.162,0,0,1-.6,1.073s0,.009-.019.018C40.409,12,32.5,9.548,31.967,8.277c2.5-1.731,7.35-4.583,10.71-3.369A4.26,4.26,0,0,1,43.543,7.779Z"/></g></svg>