<svg xmlns="http://www.w3.org/2000/svg" xmlns:xlink="http://www.w3.org/1999/xlink" viewBox="0 0 48 48"><defs><linearGradient id="H53o22eYJtcrl0anzd8Moa" x1="16.135" x2="3.566" y1="16.541" y2="-.218" gradientUnits="userSpaceOnUse"><stop offset="0" stop-color="#b2ed48"/><stop offset=".401" stop-color="#90d735"/><stop offset=".773" stop-color="#78c828"/><stop offset="1" stop-color="#6fc223"/></linearGradient><linearGradient id="H53o22eYJtcrl0anzd8Mok" x1="8.343" x2="19.628" y1="7.465" y2="22.568" xlink:href="#H53o22eYJtcrl0anzd8Moa"/><linearGradient id="H53o22eYJtcrl0anzd8Mod" x1="23.002" x2="23.263" y1="-51.816" y2="-50.888" gradientTransform="rotate(-43.979 91.088 -8.895)" gradientUnits="userSpaceOnUse"><stop offset="0" stop-color="#fcd370"/><stop offset=".211" stop-color="#fccd63"/><stop offset=".7" stop-color="#fcc24b"/><stop offset="1" stop-color="#fcbe42"/></linearGradient><linearGradient id="H53o22eYJtcrl0anzd8Moe" x1="20.015" x2="22.507" y1="-46.386" y2="-45.777" gradientTransform="rotate(-43.979 91.088 -8.895)" gradientUnits="userSpaceOnUse"><stop offset="0" stop-color="#fcd370"/><stop offset=".268" stop-color="#fcbe42"/><stop offset=".543" stop-color="#fbaa24"/><stop offset=".826" stop-color="#fa9a0c"/><stop offset="1" stop-color="#fa9403"/></linearGradient><linearGradient id="H53o22eYJtcrl0anzd8Mob" x1="21.62" x2="23.098" y1="-46.058" y2="-45.798" gradientTransform="rotate(-43.979 91.088 -8.895)" gradientUnits="userSpaceOnUse"><stop offset="0" stop-color="#fcb738"/><stop offset=".29" stop-color="#fbaa24"/><stop offset=".73" stop-color="#fa9a0c"/><stop offset="1" stop-color="#fa9403"/></linearGradient><linearGradient id="H53o22eYJtcrl0anzd8Mol" x1="16.934" x2="19.355" y1="-55.685" y2="-55.565" gradientTransform="matrix(.414 -.638 .793 .514 49.833 54.461)" xlink:href="#H53o22eYJtcrl0anzd8Mob"/><linearGradient id="H53o22eYJtcrl0anzd8Moc" x1="16.016" x2="17.959" y1="-55.733" y2="-55.341" gradientTransform="matrix(.414 -.638 .793 .514 49.833 54.461)" gradientUnits="userSpaceOnUse"><stop offset="0" stop-color="#fcd370"/><stop offset=".011" stop-color="#fcd16d"/><stop offset=".105" stop-color="#fcc755"/><stop offset=".193" stop-color="#fcc047"/><stop offset=".268" stop-color="#fcbe42"/><stop offset=".543" stop-color="#fbaa24"/><stop offset=".826" stop-color="#fa9a0c"/><stop offset="1" stop-color="#fa9403"/></linearGradient><linearGradient id="H53o22eYJtcrl0anzd8Mom" x1="25.043" x2="27.464" y1="-53.587" y2="-53.468" gradientTransform="matrix(-.741 .173 .214 .92 46.188 56.739)" xlink:href="#H53o22eYJtcrl0anzd8Mob"/><linearGradient id="H53o22eYJtcrl0anzd8Mon" x1="24.124" x2="26.068" y1="-53.636" y2="-53.243" gradientTransform="matrix(-.741 .173 .214 .92 46.188 56.739)" xlink:href="#H53o22eYJtcrl0anzd8Moc"/><linearGradient id="H53o22eYJtcrl0anzd8Moo" x1="23.037" x2="25.458" y1="-50.918" y2="-50.799" gradientTransform="matrix(-.551 .524 .651 .684 60.847 35.218)" xlink:href="#H53o22eYJtcrl0anzd8Mob"/><linearGradient id="H53o22eYJtcrl0anzd8Mop" x1="22.118" x2="24.062" y1="-50.966" y2="-50.574" gradientTransform="matrix(-.551 .524 .651 .684 60.847 35.218)" xlink:href="#H53o22eYJtcrl0anzd8Moc"/><linearGradient id="H53o22eYJtcrl0anzd8Moq" x1="25.596" x2="25.753" y1="-52.988" y2="-51.872" gradientTransform="rotate(-33.21 119.006 -7.967)" xlink:href="#H53o22eYJtcrl0anzd8Mod"/><linearGradient id="H53o22eYJtcrl0anzd8Mor" x1="23.501" x2="24.837" y1="-47.162" y2="-46.895" gradientTransform="rotate(-33.21 119.006 -7.967)" xlink:href="#H53o22eYJtcrl0anzd8Moe"/><linearGradient id="H53o22eYJtcrl0anzd8Mof" x1="25.648" x2="24.752" y1="-46.879" y2="-47.02" gradientTransform="rotate(-33.21 119.006 -7.967)" gradientUnits="userSpaceOnUse"><stop offset="0" stop-color="#fa9403"/><stop offset=".27" stop-color="#fa9a0c"/><stop offset=".71" stop-color="#fbaa24"/><stop offset="1" stop-color="#fcb738"/></linearGradient><linearGradient id="H53o22eYJtcrl0anzd8Mos" x1="25.778" x2="25.935" y1="-52.701" y2="-51.585" gradientTransform="rotate(-48.57 85.883 -10.169)" xlink:href="#H53o22eYJtcrl0anzd8Mod"/><linearGradient id="H53o22eYJtcrl0anzd8Mot" x1="23.683" x2="25.019" y1="-46.876" y2="-46.609" gradientTransform="rotate(-48.57 85.883 -10.169)" xlink:href="#H53o22eYJtcrl0anzd8Moe"/><linearGradient id="H53o22eYJtcrl0anzd8Mou" x1="25.83" x2="24.934" y1="-46.593" y2="-46.734" gradientTransform="rotate(-48.57 85.883 -10.169)" xlink:href="#H53o22eYJtcrl0anzd8Mof"/><linearGradient id="H53o22eYJtcrl0anzd8Mov" x1="26.298" x2="26.455" y1="-51.562" y2="-50.446" gradientTransform="rotate(-48.57 85.883 -10.169)" xlink:href="#H53o22eYJtcrl0anzd8Mod"/><linearGradient id="H53o22eYJtcrl0anzd8Mow" x1="24.203" x2="25.538" y1="-45.737" y2="-45.47" gradientTransform="rotate(-48.57 85.883 -10.169)" xlink:href="#H53o22eYJtcrl0anzd8Moe"/><linearGradient id="H53o22eYJtcrl0anzd8Mox" x1="26.349" x2="25.453" y1="-45.454" y2="-45.595" gradientTransform="rotate(-48.57 85.883 -10.169)" xlink:href="#H53o22eYJtcrl0anzd8Mof"/><linearGradient id="H53o22eYJtcrl0anzd8Moy" x1="20.929" x2="23.35" y1="-52.914" y2="-52.795" gradientTransform="matrix(-.756 .086 .107 .939 41.133 59.379)" xlink:href="#H53o22eYJtcrl0anzd8Mob"/><linearGradient id="H53o22eYJtcrl0anzd8Moz" x1="20.011" x2="21.955" y1="-52.963" y2="-52.571" gradientTransform="matrix(-.756 .086 .107 .939 41.133 59.379)" xlink:href="#H53o22eYJtcrl0anzd8Moc"/><linearGradient id="H53o22eYJtcrl0anzd8MoA" x1="22.262" x2="22.419" y1="-52.689" y2="-51.573" gradientTransform="rotate(-47.788 86.176 -9.8)" xlink:href="#H53o22eYJtcrl0anzd8Mod"/><linearGradient id="H53o22eYJtcrl0anzd8MoB" x1="20.167" x2="21.503" y1="-46.864" y2="-46.597" gradientTransform="rotate(-47.788 86.176 -9.8)" xlink:href="#H53o22eYJtcrl0anzd8Moe"/><linearGradient id="H53o22eYJtcrl0anzd8MoC" x1="22.313" x2="21.418" y1="-46.581" y2="-46.722" gradientTransform="rotate(-47.788 86.176 -9.8)" xlink:href="#H53o22eYJtcrl0anzd8Mof"/><linearGradient id="H53o22eYJtcrl0anzd8MoD" x1="22.129" x2="22.286" y1="-52.695" y2="-51.58" gradientTransform="rotate(-63.151 67.983 -11.177)" xlink:href="#H53o22eYJtcrl0anzd8Mod"/><linearGradient id="H53o22eYJtcrl0anzd8MoE" x1="20.034" x2="21.37" y1="-46.87" y2="-46.603" gradientTransform="rotate(-63.151 67.983 -11.177)" xlink:href="#H53o22eYJtcrl0anzd8Moe"/><linearGradient id="H53o22eYJtcrl0anzd8MoF" x1="22.181" x2="21.285" y1="-46.587" y2="-46.728" gradientTransform="rotate(-63.151 67.983 -11.177)" xlink:href="#H53o22eYJtcrl0anzd8Mof"/><linearGradient id="H53o22eYJtcrl0anzd8MoG" x1="16.86" x2="17.121" y1="-51.901" y2="-50.974" gradientTransform="scale(-1 1) rotate(69.88 -42.439 -34.181)" xlink:href="#H53o22eYJtcrl0anzd8Mod"/><linearGradient id="H53o22eYJtcrl0anzd8MoH" x1="13.873" x2="16.366" y1="-46.472" y2="-45.863" gradientTransform="scale(-1 1) rotate(69.88 -42.439 -34.181)" xlink:href="#H53o22eYJtcrl0anzd8Moe"/><linearGradient id="H53o22eYJtcrl0anzd8MoI" x1="15.478" x2="16.956" y1="-46.144" y2="-45.884" gradientTransform="scale(-1 1) rotate(69.88 -42.439 -34.181)" xlink:href="#H53o22eYJtcrl0anzd8Mob"/><linearGradient id="H53o22eYJtcrl0anzd8MoJ" x1="31.437" x2="33.858" y1="-49.768" y2="-49.649" gradientTransform="matrix(.257 -.716 .889 .319 48.359 54.395)" xlink:href="#H53o22eYJtcrl0anzd8Mob"/><linearGradient id="H53o22eYJtcrl0anzd8MoK" x1="30.519" x2="32.463" y1="-49.816" y2="-49.424" gradientTransform="matrix(.257 -.716 .889 .319 48.359 54.395)" xlink:href="#H53o22eYJtcrl0anzd8Moc"/><linearGradient id="H53o22eYJtcrl0anzd8MoL" x1="15.888" x2="16.045" y1="-53.005" y2="-51.889" gradientTransform="scale(-1 1) rotate(66.05 -46.803 -36.698)" xlink:href="#H53o22eYJtcrl0anzd8Mod"/><linearGradient id="H53o22eYJtcrl0anzd8MoM" x1="13.793" x2="15.129" y1="-47.18" y2="-46.912" gradientTransform="scale(-1 1) rotate(66.05 -46.803 -36.698)" xlink:href="#H53o22eYJtcrl0anzd8Moe"/><linearGradient id="H53o22eYJtcrl0anzd8MoN" x1="15.94" x2="15.044" y1="-46.896" y2="-47.038" gradientTransform="scale(-1 1) rotate(66.05 -46.803 -36.698)" xlink:href="#H53o22eYJtcrl0anzd8Mof"/><linearGradient id="H53o22eYJtcrl0anzd8MoO" x1="18.593" x2="18.75" y1="-52.404" y2="-51.288" gradientTransform="scale(-1 1) rotate(66.05 -46.803 -36.698)" xlink:href="#H53o22eYJtcrl0anzd8Mod"/><linearGradient id="H53o22eYJtcrl0anzd8MoP" x1="16.498" x2="17.834" y1="-46.579" y2="-46.312" gradientTransform="scale(-1 1) rotate(66.05 -46.803 -36.698)" xlink:href="#H53o22eYJtcrl0anzd8Moe"/><linearGradient id="H53o22eYJtcrl0anzd8MoQ" x1="18.644" x2="17.749" y1="-46.296" y2="-46.437" gradientTransform="scale(-1 1) rotate(66.05 -46.803 -36.698)" xlink:href="#H53o22eYJtcrl0anzd8Mof"/><linearGradient id="H53o22eYJtcrl0anzd8MoR" x1="16.518" x2="16.675" y1="-51.809" y2="-50.693" gradientTransform="rotate(-47.788 86.176 -9.8)" xlink:href="#H53o22eYJtcrl0anzd8Mod"/><linearGradient id="H53o22eYJtcrl0anzd8MoS" x1="14.423" x2="15.758" y1="-45.984" y2="-45.717" gradientTransform="rotate(-47.788 86.176 -9.8)" xlink:href="#H53o22eYJtcrl0anzd8Moe"/><linearGradient id="H53o22eYJtcrl0anzd8MoT" x1="16.569" x2="15.673" y1="-45.7" y2="-45.842" gradientTransform="rotate(-47.788 86.176 -9.8)" xlink:href="#H53o22eYJtcrl0anzd8Mof"/><linearGradient id="H53o22eYJtcrl0anzd8MoU" x1="26.704" x2="29.125" y1="-49.535" y2="-49.416" gradientTransform="matrix(-.346 .677 .841 .43 62.173 22.658)" xlink:href="#H53o22eYJtcrl0anzd8Mob"/><linearGradient id="H53o22eYJtcrl0anzd8MoV" x1="25.786" x2="27.73" y1="-49.584" y2="-49.192" gradientTransform="matrix(-.346 .677 .841 .43 62.173 22.658)" xlink:href="#H53o22eYJtcrl0anzd8Moc"/><linearGradient id="H53o22eYJtcrl0anzd8MoW" x1="15.85" x2="16.007" y1="-54.064" y2="-52.948" gradientTransform="scale(-1 1) rotate(50.72 -66.292 -46.767)" xlink:href="#H53o22eYJtcrl0anzd8Mod"/><linearGradient id="H53o22eYJtcrl0anzd8MoX" x1="13.755" x2="15.091" y1="-48.239" y2="-47.972" gradientTransform="scale(-1 1) rotate(50.72 -66.292 -46.767)" xlink:href="#H53o22eYJtcrl0anzd8Moe"/><linearGradient id="H53o22eYJtcrl0anzd8MoY" x1="15.902" x2="15.006" y1="-47.955" y2="-48.097" gradientTransform="scale(-1 1) rotate(50.72 -66.292 -46.767)" xlink:href="#H53o22eYJtcrl0anzd8Mof"/><linearGradient id="H53o22eYJtcrl0anzd8MoZ" x1="21.131" x2="21.392" y1="-49.452" y2="-48.525" gradientTransform="scale(-1 1) rotate(60.84 -50.82 -38.82)" xlink:href="#H53o22eYJtcrl0anzd8Mod"/><linearGradient id="H53o22eYJtcrl0anzd8Moaa" x1="18.144" x2="20.637" y1="-44.023" y2="-43.414" gradientTransform="scale(-1 1) rotate(60.84 -50.82 -38.82)" xlink:href="#H53o22eYJtcrl0anzd8Moe"/><linearGradient id="H53o22eYJtcrl0anzd8Moab" x1="19.749" x2="21.227" y1="-43.695" y2="-43.435" gradientTransform="scale(-1 1) rotate(60.84 -50.82 -38.82)" xlink:href="#H53o22eYJtcrl0anzd8Mob"/><radialGradient id="H53o22eYJtcrl0anzd8Mog" cx="12.861" cy="13.85" r="8.226" gradientTransform="scale(1 -1) rotate(-75.75 -7.652 2.359)" gradientUnits="userSpaceOnUse"><stop offset="0" stop-color="#ff473d"/><stop offset=".313" stop-color="#f83d34"/><stop offset=".851" stop-color="#e6211a"/><stop offset="1" stop-color="#e01812"/></radialGradient><radialGradient id="H53o22eYJtcrl0anzd8Moh" cx="9.243" cy="14.584" r="4.531" gradientTransform="matrix(.357 .934 .428 -.163 -1.179 4.76)" gradientUnits="userSpaceOnUse"><stop offset="0" stop-color="#ff9a8c"/><stop offset=".086" stop-color="#ff9a8c" stop-opacity=".959"/><stop offset=".233" stop-color="#ff9a8c" stop-opacity=".85"/><stop offset=".425" stop-color="#ff9a8c" stop-opacity=".671"/><stop offset=".654" stop-color="#ff9a8c" stop-opacity=".424"/><stop offset=".912" stop-color="#ff9a8c" stop-opacity=".113"/><stop offset="1" stop-color="#ff9a8c" stop-opacity="0"/></radialGradient><radialGradient id="H53o22eYJtcrl0anzd8Moac" cx="13.225" cy="20.797" r="6.96" gradientTransform="scale(-1 1) rotate(-4.25 -148.216 452.142)" xlink:href="#H53o22eYJtcrl0anzd8Mog"/><radialGradient id="H53o22eYJtcrl0anzd8Moad" cx="10.165" cy="21.418" r="3.834" gradientTransform="matrix(-.999 .043 .019 .457 31.883 .653)" xlink:href="#H53o22eYJtcrl0anzd8Moh"/><radialGradient id="H53o22eYJtcrl0anzd8Moi" cx="19.11" cy="12.329" r="2.802" gradientUnits="userSpaceOnUse"><stop offset="0" stop-color="#844f2d"/><stop offset="1" stop-color="#6d3c23"/></radialGradient><radialGradient id="H53o22eYJtcrl0anzd8Moae" cx="13.72" cy="13.437" r="5.773" xlink:href="#H53o22eYJtcrl0anzd8Moi"/><radialGradient id="H53o22eYJtcrl0anzd8Moaf" cx="12.925" cy="11.209" r="2.802" xlink:href="#H53o22eYJtcrl0anzd8Moi"/><radialGradient id="H53o22eYJtcrl0anzd8Moag" cx="10.97" cy="12.277" r="2.594" xlink:href="#H53o22eYJtcrl0anzd8Moi"/><radialGradient id="H53o22eYJtcrl0anzd8Moah" cx="19.542" cy="10.109" r="2.594" xlink:href="#H53o22eYJtcrl0anzd8Moi"/><radialGradient id="H53o22eYJtcrl0anzd8Moai" cx="9.699" cy="13.832" r="1.606" xlink:href="#H53o22eYJtcrl0anzd8Moi"/><radialGradient id="H53o22eYJtcrl0anzd8Moaj" cx="16.962" cy="8.079" r="1.606" xlink:href="#H53o22eYJtcrl0anzd8Moi"/><radialGradient id="H53o22eYJtcrl0anzd8Moak" cx="16.248" cy="8.993" r="2.123" xlink:href="#H53o22eYJtcrl0anzd8Moi"/><radialGradient id="H53o22eYJtcrl0anzd8Moal" cx="10.798" cy="19.217" r="6.578" xlink:href="#H53o22eYJtcrl0anzd8Mog"/><radialGradient id="H53o22eYJtcrl0anzd8Moam" cx="7.905" cy="19.804" r="3.623" gradientTransform="matrix(.357 .934 .428 -.163 1.798 4.283)" xlink:href="#H53o22eYJtcrl0anzd8Moh"/><radialGradient id="H53o22eYJtcrl0anzd8Moan" cx="17.797" cy="9.505" r="2.314" xlink:href="#H53o22eYJtcrl0anzd8Moi"/><radialGradient id="H53o22eYJtcrl0anzd8Moao" cx="14.338" cy="11.41" r="2.654" xlink:href="#H53o22eYJtcrl0anzd8Moi"/><radialGradient id="H53o22eYJtcrl0anzd8Moap" cx="8.899" cy="15.984" r="2.825" xlink:href="#H53o22eYJtcrl0anzd8Moi"/><radialGradient id="H53o22eYJtcrl0anzd8Moaq" cx="18.711" cy="19.462" r="5.571" gradientTransform="scale(-1 1) rotate(-30.8 -.412 76.603)" xlink:href="#H53o22eYJtcrl0anzd8Mog"/><radialGradient id="H53o22eYJtcrl0anzd8Moar" cx="16.261" cy="19.959" r="3.069" gradientTransform="matrix(-.913 -.408 -.187 .418 33.67 17.719)" xlink:href="#H53o22eYJtcrl0anzd8Moh"/><radialGradient id="H53o22eYJtcrl0anzd8Moas" cx="8.557" cy="18.572" r="2.441" xlink:href="#H53o22eYJtcrl0anzd8Moi"/><radialGradient id="H53o22eYJtcrl0anzd8Moat" cx="11.952" cy="15.016" r="2.566" xlink:href="#H53o22eYJtcrl0anzd8Moi"/><radialGradient id="H53o22eYJtcrl0anzd8Moau" cx="14.905" cy="16.224" r="7.538" gradientTransform="scale(-1 1) rotate(40.74 1.923 -27.607)" xlink:href="#H53o22eYJtcrl0anzd8Mog"/><radialGradient id="H53o22eYJtcrl0anzd8Moav" cx="11.591" cy="16.895" r="4.152" gradientTransform="matrix(-.677 .736 .337 .31 21.955 -1.352)" xlink:href="#H53o22eYJtcrl0anzd8Moh"/><radialGradient id="H53o22eYJtcrl0anzd8Moaw" cx="15.017" cy="16.501" r="2.314" xlink:href="#H53o22eYJtcrl0anzd8Moi"/><radialGradient id="H53o22eYJtcrl0anzd8Moax" cx="12.821" cy="17.601" r="3.156" xlink:href="#H53o22eYJtcrl0anzd8Moi"/><radialGradient id="H53o22eYJtcrl0anzd8Moay" cx="13.883" cy="13.094" r="7.496" gradientTransform="rotate(36.535 19.666 15.507)" xlink:href="#H53o22eYJtcrl0anzd8Mog"/><radialGradient id="H53o22eYJtcrl0anzd8Moaz" cx="10.586" cy="13.762" r="4.129" gradientTransform="matrix(.729 .685 -.313 .334 10.008 -3.139)" xlink:href="#H53o22eYJtcrl0anzd8Moh"/><radialGradient id="H53o22eYJtcrl0anzd8MoaA" cx="17.297" cy="15.783" r="2.42" xlink:href="#H53o22eYJtcrl0anzd8Moi"/><radialGradient id="H53o22eYJtcrl0anzd8MoaB" cx="17.338" cy="11.836" r="2.146" xlink:href="#H53o22eYJtcrl0anzd8Moi"/><radialGradient id="H53o22eYJtcrl0anzd8MoaC" cx="15.749" cy="13.867" r="2.931" xlink:href="#H53o22eYJtcrl0anzd8Moi"/><radialGradient id="H53o22eYJtcrl0anzd8MoaD" cx="10.006" cy="18.925" r="3.989" xlink:href="#H53o22eYJtcrl0anzd8Moi"/><linearGradient id="H53o22eYJtcrl0anzd8MoaE" x1="20.593" x2="29.827" y1="31.924" y2="21.665" gradientUnits="userSpaceOnUse"><stop offset="0" stop-color="#d97e39"/><stop offset="1" stop-color="#eda855"/></linearGradient><linearGradient id="H53o22eYJtcrl0anzd8MoaF" x1="26.927" x2="31.671" y1="25.676" y2="18.197" gradientUnits="userSpaceOnUse"><stop offset="0" stop-color="#e79b4c"/><stop offset="1" stop-color="#f0ae60"/></linearGradient><linearGradient id="H53o22eYJtcrl0anzd8MoaG" x1="26.265" x2="16.22" y1="24.262" y2="11.823" gradientUnits="userSpaceOnUse"><stop offset="0" stop-color="#a14803"/><stop offset="1" stop-color="#a14803" stop-opacity="0"/></linearGradient><radialGradient id="H53o22eYJtcrl0anzd8Moj" cx="24.373" cy="20.087" r="4.213" gradientUnits="userSpaceOnUse"><stop offset="0" stop-color="#de8c38"/><stop offset="1" stop-color="#e69f4c"/></radialGradient><radialGradient id="H53o22eYJtcrl0anzd8MoaH" cx="18.898" cy="17.443" r="2.867" xlink:href="#H53o22eYJtcrl0anzd8Moj"/><radialGradient id="H53o22eYJtcrl0anzd8MoaI" cx="23.375" cy="15.137" r="1.998" gradientUnits="userSpaceOnUse"><stop offset="0" stop-color="#de8f3e"/><stop offset="1" stop-color="#e6a457"/></radialGradient><radialGradient id="H53o22eYJtcrl0anzd8MoaJ" cx="21.441" cy="10.625" r="3.494" xlink:href="#H53o22eYJtcrl0anzd8Moj"/><radialGradient id="H53o22eYJtcrl0anzd8MoaK" cx="22.792" cy="20.276" r="42.803" gradientTransform="rotate(135.533 19.459 12.122) scale(1 .196)" gradientUnits="userSpaceOnUse"><stop offset="0" stop-color="#a14803" stop-opacity="0"/><stop offset="1" stop-color="#a14803"/></radialGradient><linearGradient id="H53o22eYJtcrl0anzd8MoaL" x1="24.216" x2="37.325" y1="37.929" y2="22.71" gradientUnits="userSpaceOnUse"><stop offset="0" stop-color="#818181"/><stop offset=".43" stop-color="#cbcbcb"/><stop offset=".612" stop-color="#f5f5f7"/><stop offset=".69" stop-color="#f0f0f2"/><stop offset=".735" stop-color="#eaeaec"/><stop offset=".85" stop-color="#e8e8ea"/><stop offset=".898" stop-color="#e1e1e3"/><stop offset=".934" stop-color="#d5d5d7"/><stop offset=".963" stop-color="#c4c4c5"/><stop offset=".988" stop-color="#aeaeae"/><stop offset="1" stop-color="#a1a1a1"/></linearGradient><linearGradient id="H53o22eYJtcrl0anzd8MoaM" x1="17.556" x2="26.904" y1="20.797" y2="22.159" gradientUnits="userSpaceOnUse"><stop offset="0" stop-color="#606060"/><stop offset="1" stop-color="#606060" stop-opacity="0"/></linearGradient><radialGradient id="H53o22eYJtcrl0anzd8MoaN" cx="23.561" cy="21.145" r="22.589" gradientTransform="rotate(137.726 20.173 12.382) scale(1 .171)" gradientUnits="userSpaceOnUse"><stop offset="0" stop-color="#b0b1b0"/><stop offset="1" stop-color="#8a8885"/></radialGradient></defs><g data-name="Burrito"><path fill="#df8e59" d="M19.6,9.022a3.811,3.811,0,0,0-.181-.616,2.869,2.869,0,0,0-1.438-1.7,3.9,3.9,0,0,0-2.244-.015,11.706,11.706,0,0,0-5.882,3.717,12.556,12.556,0,0,0-3.368,6.17,3.953,3.953,0,0,0,.361,2.826,3.326,3.326,0,0,0,3,1.329c2.469-.145,4.943-1.924,6.618-3.635a10.717,10.717,0,0,0,3.206-6.434A5.652,5.652,0,0,0,19.6,9.022Z"/><path fill="url(#H53o22eYJtcrl0anzd8Moa)" d="M7.125,16.694s-1.986-2.451-1.639-2.987c.53-.818,2.378-.993,2.649-1.715s.015-2.123.347-2.537c.457-.569,2.241-.473,3.085-1.047.807-.548,1.07-1.8,2-2.24.384-.182,1.563.617,2.585.1s.327.578,1.285,1.163c1.163.708,1.725.215,1.487,1.232-.337,1.437-1.438-.627-1.438-.627L12.843,16.4Z"/><path fill="url(#H53o22eYJtcrl0anzd8Mok)" d="M6.9,18.708s-2.656-1.341-2.1-2.953c.464-1.35,1.87-1.221,2.173-2.048s-.692-1.746.147-2.6c1.012-1.029,1.793.087,2.544-.795s-.178-1.871.707-2.619c1.311-1.107,2.407-.035,3.549-.633s.724-1.283,1.944-1.586a2.12,2.12,0,0,1,2.53,1.951c-.141,1.451.091,1.364.091,1.364L13.3,18.37Z"/><polygon fill="url(#H53o22eYJtcrl0anzd8Mod)" points="13.266 7.226 12.382 7.553 12.07 8.212 13.106 8.014 13.266 7.226"/><polyline fill="#fcd370" points="19.094 16.129 18.128 16.465 17.856 17.061 18.9 16.91"/><path fill="url(#H53o22eYJtcrl0anzd8Moe)" d="M13.106,8.014c1.97,2.938,3.943,5.872,5.794,8.9l-1.044.151c-1.844-2.981-3.818-5.92-5.786-8.849Z"/><path fill="url(#H53o22eYJtcrl0anzd8Mob)" d="M13.106,8.014c1.97,2.938,3.943,5.872,5.794,8.9l.194-.781c-1.88-3.029-3.851-5.963-5.828-8.9Z"/><path fill="url(#H53o22eYJtcrl0anzd8Mol)" d="M13.77,14.17a17.818,17.818,0,0,0-3.189-2.487c-.557-.309-2.236-.982-2.324-1.017l-.044.669c.088.035,1.766.707,2.323,1.016a17.764,17.764,0,0,1,3.187,2.487c1.367,1.222,2.735,2.441,4.09,3.681l.056-.667Z"/><path fill="url(#H53o22eYJtcrl0anzd8Moc)" d="M8.213,11.335c.088.035,1.766.707,2.323,1.016a17.764,17.764,0,0,1,3.187,2.487c1.367,1.222,2.735,2.441,4.09,3.681l-1.1.41C13.911,16.386,11.057,13.859,8.213,11.335Z"/><path fill="url(#H53o22eYJtcrl0anzd8Mom)" d="M14.964,12.477a17.785,17.785,0,0,1-1.258-3.844C13.6,8,13.541,6.2,13.538,6.1l.644.185c0,.095.066,1.9.168,2.53a17.669,17.669,0,0,0,1.258,3.842c.686,1.7,1.369,3.4,2.076,5.1l-.647-.173Z"/><path fill="url(#H53o22eYJtcrl0anzd8Mon)" d="M14.182,6.287c0,.095.066,1.9.168,2.53a17.669,17.669,0,0,0,1.258,3.842c.686,1.7,1.369,3.4,2.076,5.1l.758-.893C17,13.361,15.591,9.819,14.182,6.287Z"/><path fill="url(#H53o22eYJtcrl0anzd8Moo)" d="M14.332,13.681A17.8,17.8,0,0,1,11.3,11.006c-.406-.49-1.377-2.016-1.428-2.1l.649-.167c.051.08,1.021,1.606,1.428,2.095a17.709,17.709,0,0,0,3.034,2.673c1.453,1.118,2.9,2.237,4.373,3.339l-.645.179Z"/><path fill="url(#H53o22eYJtcrl0anzd8Mop)" d="M10.518,8.743c.051.08,1.021,1.606,1.428,2.095a17.709,17.709,0,0,0,3.034,2.673c1.453,1.118,2.9,2.237,4.373,3.339l.2-1.154C16.535,13.41,13.524,11.072,10.518,8.743Z"/><polygon fill="url(#H53o22eYJtcrl0anzd8Moq)" points="17.165 5.525 16.262 5.713 15.877 6.319 16.911 6.282 17.165 5.525"/><polyline fill="#fcd370" points="21.676 15.316 20.691 15.478 20.336 16.019 21.372 16.057"/><path fill="url(#H53o22eYJtcrl0anzd8Mor)" d="M16.911,6.282c1.553,3.225,3.114,6.444,4.461,9.775l-1.036-.038c-1.344-3.262-2.908-6.49-4.459-9.7Z"/><path fill="url(#H53o22eYJtcrl0anzd8Mof)" d="M16.911,6.282c1.553,3.225,3.114,6.444,4.461,9.775l.3-.741c-1.389-3.346-2.949-6.562-4.511-9.791Z"/><polygon fill="url(#H53o22eYJtcrl0anzd8Mos)" points="15.139 6.484 14.319 6.905 14.108 7.591 15.095 7.281 15.139 6.484"/><polyline fill="#fcd370" points="22.084 14.731 21.177 15.148 20.978 15.763 21.986 15.525"/><path fill="url(#H53o22eYJtcrl0anzd8Mot)" d="M15.1,7.281c2.352,2.7,4.71,5.39,6.891,8.244l-1.008.238c-2.161-2.789-4.524-5.488-6.87-8.172Z"/><path fill="url(#H53o22eYJtcrl0anzd8Mou)" d="M15.1,7.281c2.352,2.7,4.71,5.39,6.891,8.244l.1-.794c-2.227-2.859-4.583-5.547-6.945-8.247Z"/><polygon fill="url(#H53o22eYJtcrl0anzd8Mov)" points="16.337 6.848 15.516 7.269 15.306 7.955 16.293 7.646 16.337 6.848"/><polyline fill="#fcd370" points="23.282 15.095 22.375 15.512 22.176 16.128 23.184 15.89"/><path fill="url(#H53o22eYJtcrl0anzd8Mow)" d="M16.293,7.646c2.352,2.7,4.71,5.389,6.891,8.244l-1.008.238c-2.161-2.79-4.524-5.488-6.87-8.173Z"/><path fill="url(#H53o22eYJtcrl0anzd8Mox)" d="M16.293,7.646c2.352,2.7,4.71,5.389,6.891,8.244l.1-.795c-2.227-2.859-4.583-5.547-6.945-8.247Z"/><path fill="url(#H53o22eYJtcrl0anzd8Moy)" d="M18.406,12.086A17.78,17.78,0,0,1,17.6,8.123c-.029-.637.117-2.439.125-2.534l.619.258c-.008.095-.155,1.9-.126,2.533a17.789,17.789,0,0,0,.807,3.962c.485,1.768.967,3.535,1.474,5.3l-.623-.246Z"/><path fill="url(#H53o22eYJtcrl0anzd8Moz)" d="M18.344,5.847c-.008.095-.155,1.9-.126,2.533a17.789,17.789,0,0,0,.807,3.962c.485,1.768.967,3.535,1.474,5.3l.855-.8C20.327,13.2,19.336,9.518,18.344,5.847Z"/><polygon fill="url(#H53o22eYJtcrl0anzd8MoA)" points="12.386 8.445 11.559 8.855 11.339 9.539 12.331 9.242 12.386 8.445"/><polyline fill="#fcd370" points="19.216 16.787 18.303 17.191 18.096 17.804 19.108 17.58"/><path fill="url(#H53o22eYJtcrl0anzd8MoB)" d="M12.331,9.242c2.314,2.731,4.635,5.454,6.777,8.338L18.1,17.8c-2.122-2.819-4.448-5.549-6.757-8.265Z"/><path fill="url(#H53o22eYJtcrl0anzd8MoC)" d="M12.331,9.242c2.314,2.731,4.635,5.454,6.777,8.338l.108-.793c-2.187-2.889-4.506-5.609-6.83-8.342Z"/><polygon fill="url(#H53o22eYJtcrl0anzd8MoD)" points="11.043 10.472 10.355 11.086 10.324 11.803 11.201 11.254 11.043 10.472"/><polyline fill="#fcd370" points="19.839 16.705 19.066 17.337 19.029 17.983 19.945 17.499"/><path fill="url(#H53o22eYJtcrl0anzd8MoE)" d="M11.2,11.254c2.956,2.02,5.915,4.031,8.744,6.245l-.916.484c-2.793-2.156-5.759-4.173-8.7-6.18Z"/><path fill="url(#H53o22eYJtcrl0anzd8MoF)" d="M11.2,11.254c2.956,2.02,5.915,4.031,8.744,6.245l-.106-.794c-2.874-2.206-5.83-4.214-8.8-6.233Z"/><polygon fill="url(#H53o22eYJtcrl0anzd8MoG)" points="5.55 16.4 5.491 15.459 5.968 14.907 6.205 15.935 5.55 16.4"/><polyline fill="#fcd370" points="16.049 18.13 15.966 17.111 16.4 16.621 16.685 17.637"/><path fill="url(#H53o22eYJtcrl0anzd8MoH)" d="M6.205,15.935c3.484.614,6.965,1.231,10.48,1.7L16.4,16.621c-3.472-.481-6.958-1.1-10.432-1.714Z"/><path fill="url(#H53o22eYJtcrl0anzd8MoI)" d="M6.205,15.935c3.484.614,6.965,1.231,10.48,1.7l-.636.493c-3.531-.494-7.011-1.111-10.5-1.73Z"/><path fill="url(#H53o22eYJtcrl0anzd8MoJ)" d="M13.031,14.915a17.711,17.711,0,0,0-3.673-1.693c-.612-.174-2.4-.445-2.495-.459l.11.661c.094.014,1.882.285,2.494.459a17.719,17.719,0,0,1,3.671,1.693c1.611.878,3.22,1.752,4.823,2.65l-.1-.663Z"/><path fill="url(#H53o22eYJtcrl0anzd8MoK)" d="M6.973,13.424c.094.014,1.882.285,2.494.459a17.719,17.719,0,0,1,3.671,1.693c1.611.878,3.22,1.752,4.823,2.65l-.975.649C13.675,17.04,10.319,15.231,6.973,13.424Z"/><polygon fill="url(#H53o22eYJtcrl0anzd8MoL)" points="6.574 14.944 6.614 14.023 7.15 13.545 7.28 14.572 6.574 14.944"/><polyline fill="#fcd370" points="16.965 17.818 16.966 16.82 17.443 16.382 17.647 17.398"/><path fill="url(#H53o22eYJtcrl0anzd8MoM)" d="M7.28,14.572c3.434,1.012,6.863,2.034,10.367,2.826l-.2-1.016c-3.437-.8-6.875-1.823-10.293-2.837Z"/><path fill="url(#H53o22eYJtcrl0anzd8MoN)" d="M7.28,14.572c3.434,1.012,6.863,2.034,10.367,2.826l-.682.42c-3.527-.832-6.952-1.853-10.391-2.874Z"/><polygon fill="url(#H53o22eYJtcrl0anzd8MoO)" points="6.025 17.66 6.066 16.738 6.602 16.261 6.732 17.288 6.025 17.66"/><polyline fill="#fcd370" points="16.416 20.534 16.417 19.536 16.894 19.098 17.098 20.114"/><path fill="url(#H53o22eYJtcrl0anzd8MoP)" d="M6.732,17.288c3.433,1.012,6.862,2.034,10.366,2.826l-.2-1.016c-3.437-.8-6.874-1.823-10.292-2.837Z"/><path fill="url(#H53o22eYJtcrl0anzd8MoQ)" d="M6.732,17.288c3.433,1.012,6.862,2.034,10.366,2.826l-.682.42C12.889,19.7,9.464,18.681,6.025,17.66Z"/><polygon fill="url(#H53o22eYJtcrl0anzd8MoR)" points="9.178 13.291 8.352 13.701 8.132 14.384 9.123 14.088 9.178 13.291"/><polyline fill="#fcd370" points="16.009 21.633 15.096 22.037 14.889 22.65 15.9 22.426"/><path fill="url(#H53o22eYJtcrl0anzd8MoS)" d="M9.123,14.088c2.315,2.731,4.636,5.454,6.777,8.338l-1.011.224c-2.123-2.819-4.448-5.549-6.757-8.266Z"/><path fill="url(#H53o22eYJtcrl0anzd8MoT)" d="M9.123,14.088c2.315,2.731,4.636,5.454,6.777,8.338l.109-.793c-2.187-2.89-4.506-5.609-6.831-8.342Z"/><path fill="url(#H53o22eYJtcrl0anzd8MoU)" d="M11.045,20.8A17.856,17.856,0,0,1,7.3,19.283c-.546-.328-1.967-1.447-2.041-1.506l.557-.372c.074.059,1.5,1.177,2.041,1.5A17.744,17.744,0,0,0,11.6,20.428c1.741.574,3.48,1.15,5.232,1.7l-.55.383Z"/><path fill="url(#H53o22eYJtcrl0anzd8MoV)" d="M5.812,17.405c.074.059,1.5,1.177,2.041,1.5A17.744,17.744,0,0,0,11.6,20.428c1.741.574,3.48,1.15,5.232,1.7l-.194-1.155C13.034,19.818,9.419,18.608,5.812,17.405Z"/><polygon fill="url(#H53o22eYJtcrl0anzd8MoW)" points="8.504 13.125 8.788 12.247 9.431 11.929 9.284 12.953 8.504 13.125"/><polyline fill="#fcd370" points="17.763 18.649 18.028 17.687 18.604 17.391 18.532 18.425"/><path fill="url(#H53o22eYJtcrl0anzd8MoX)" d="M9.284,12.953c3.043,1.886,6.078,3.779,9.248,5.472l.072-1.034c-3.1-1.683-6.146-3.58-9.173-5.462Z"/><path fill="url(#H53o22eYJtcrl0anzd8MoY)" d="M9.284,12.953c3.043,1.886,6.078,3.779,9.248,5.472l-.769.224c-3.181-1.736-6.213-3.628-9.259-5.524Z"/><polygon fill="url(#H53o22eYJtcrl0anzd8MoZ)" points="6.449 19.84 6.538 18.902 7.096 18.432 7.169 19.484 6.449 19.84"/><polyline fill="#fcd370" points="16.546 23.196 16.624 22.177 17.13 21.761 17.251 22.809"/><path fill="url(#H53o22eYJtcrl0anzd8Moaa)" d="M7.169,19.484c3.344,1.153,6.685,2.309,10.082,3.325l-.121-1.048c-3.354-1.02-6.7-2.176-10.034-3.329Z"/><path fill="url(#H53o22eYJtcrl0anzd8Moab)" d="M7.169,19.484c3.344,1.153,6.685,2.309,10.082,3.325l-.705.387C13.136,22.154,9.8,21,6.449,19.84Z"/><path fill="url(#H53o22eYJtcrl0anzd8Mog)" d="M10.254,20.4h0l.041-.013a.792.792,0,0,0,.155-.054h0a1.436,1.436,0,0,0,.7-.629,4.059,4.059,0,0,0-.079-3.492,3.3,3.3,0,0,0-.992-1.311,1.6,1.6,0,0,0-1.1-.35,1.158,1.158,0,0,0-.178.028l-.005,0L8.74,14.6l-.361.092.015.059a1.49,1.49,0,0,0-.507.534,3.014,3.014,0,0,0-.355,1.379A4.691,4.691,0,0,0,7.8,18.371,3.822,3.822,0,0,0,8.646,19.8a.075.075,0,0,0,.021.025,2.046,2.046,0,0,0,.83.55,1.265,1.265,0,0,0,.34.065l.016.067ZM10.163,20l-.057-.258-.42.106.075.3a1.4,1.4,0,0,1-1.119-.507,4.115,4.115,0,0,1-.92-3.615,1.378,1.378,0,0,1,.749-.97l.134.532.42-.106L8.9,14.993a1.543,1.543,0,0,1,.918.51,4.109,4.109,0,0,1,.915,3.613A1.509,1.509,0,0,1,10.163,20Z"/><path fill="#ff5c3d" d="M10.78,19.372a5.048,5.048,0,0,0-1.042-4.113c-.894-.989-1.875-.745-2.2.54a5.053,5.053,0,0,0,1.047,4.115C9.481,20.9,10.463,20.659,10.78,19.372Z"/><path fill="#ff6f5c" d="M10.36,17.29A4.249,4.249,0,0,0,9.469,15.5c-.335-.37-.684-.542-.958-.474s-.5.381-.617.858a4.224,4.224,0,0,0,.068,1.985,4.306,4.306,0,0,0,.9,1.8c.335.367.684.539.959.469s.494-.38.61-.855A4.238,4.238,0,0,0,10.36,17.29Z"/><path fill="url(#H53o22eYJtcrl0anzd8Moh)" d="M10.254,20.4h0l.041-.013a.792.792,0,0,0,.155-.054h0a1.436,1.436,0,0,0,.7-.629,4.059,4.059,0,0,0-.079-3.492,3.3,3.3,0,0,0-.992-1.311,1.6,1.6,0,0,0-1.1-.35,1.158,1.158,0,0,0-.178.028l-.005,0L8.74,14.6l-.361.092.015.059a1.49,1.49,0,0,0-.507.534,3.014,3.014,0,0,0-.355,1.379A4.691,4.691,0,0,0,7.8,18.371,3.822,3.822,0,0,0,8.646,19.8a.075.075,0,0,0,.021.025,2.046,2.046,0,0,0,.83.55,1.265,1.265,0,0,0,.34.065l.016.067ZM10.163,20l-.057-.258-.42.106.075.3a1.4,1.4,0,0,1-1.119-.507,4.115,4.115,0,0,1-.92-3.615,1.378,1.378,0,0,1,.749-.97l.134.532.42-.106L8.9,14.993a1.543,1.543,0,0,1,.918.51,4.109,4.109,0,0,1,.915,3.613A1.509,1.509,0,0,1,10.163,20Z" opacity=".4"/><path fill="#ff5c3d" d="M8.739,19.2a1.962,1.962,0,0,1-.267-.391c-.051-.092-.086-.221-.037-.278l.506-.588c.03-.034.07-.022.1.015a.3.3,0,0,1,.065.171l.062,1.217c.006.118-.048.124-.129.1a1.083,1.083,0,0,1-.3-.241"/><path fill="#ff5c3d" d="M8.16,18.012a.517.517,0,0,1-.08-.164,2.635,2.635,0,0,1-.109-1.026c.01-.1.049-.188.117-.122l.708.661.011.011c.074.082.088.25.023.3l-.6.36c-.026.017-.049.009-.072-.015"/><path fill="#ff5c3d" d="M8.868,17.138l-.01-.012L8.2,16.273A.267.267,0,0,1,8.177,16a.565.565,0,0,1,.459-.4.134.134,0,0,1,.106.046.227.227,0,0,1,.05.117l.2,1.246c.02.138-.053.21-.127.128"/><path fill="#ff5c3d" d="M9.232,17.224a.286.286,0,0,1-.065-.171l-.062-1.217c-.007-.118.048-.124.128-.1a1.17,1.17,0,0,1,.3.244,2.074,2.074,0,0,1,.268.388c.05.1.085.222.036.278l-.506.589c-.029.033-.069.021-.1-.016"/><path fill="#ff5c3d" d="M9.47,17.809c-.074-.082-.088-.25-.024-.29l.6-.365a.05.05,0,0,1,.07.015.567.567,0,0,1,.082.168,2.579,2.579,0,0,1,.109,1.026c-.01.1-.049.184-.118.123L9.48,17.82l-.01-.011"/><path fill="#ff5c3d" d="M9.533,19.537a.223.223,0,0,1-.05-.116l-.2-1.25c-.021-.134.052-.206.126-.124l.01.012.661.853a.277.277,0,0,1,.024.274.568.568,0,0,1-.462.394.123.123,0,0,1-.108-.043"/><path fill="url(#H53o22eYJtcrl0anzd8Moac)" d="M14.1,9.888h0v.036a.808.808,0,0,0,0,.139v0a1.223,1.223,0,0,0,.319.726,3.433,3.433,0,0,0,2.824.872,2.78,2.78,0,0,0,1.318-.445,1.348,1.348,0,0,0,.574-.786.761.761,0,0,0,.025-.149v-.005l0-.051.024-.314-.052,0a1.258,1.258,0,0,0-.293-.55,2.552,2.552,0,0,0-1.011-.654,3.957,3.957,0,0,0-1.446-.24,3.235,3.235,0,0,0-1.372.293.055.055,0,0,0-.026.01,1.737,1.737,0,0,0-.664.518,1.083,1.083,0,0,0-.143.256l-.057,0Zm.351.035.222.023.027-.365-.258-.019a1.184,1.184,0,0,1,.706-.763A3.485,3.485,0,0,1,18.3,9.03a1.164,1.164,0,0,1,.577.86l-.463-.034-.027.365.42.032a1.3,1.3,0,0,1-.655.6A3.479,3.479,0,0,1,15,10.619,1.276,1.276,0,0,1,14.45,9.923Z"/><path fill="#ff5c3d" d="M14.786,10.586a4.27,4.27,0,0,0,3.58.265c1.034-.452,1.1-1.3.156-1.906a4.277,4.277,0,0,0-3.584-.263C13.911,9.135,13.838,9.987,14.786,10.586Z"/><path fill="#ff6f5c" d="M16.57,10.807a3.593,3.593,0,0,0,1.672-.237c.387-.169.619-.4.637-.642s-.172-.5-.523-.724a3.561,3.561,0,0,0-1.611-.478,3.627,3.627,0,0,0-1.684.238c-.384.169-.616.4-.634.643s.174.5.523.719A3.6,3.6,0,0,0,16.57,10.807Z"/><path fill="url(#H53o22eYJtcrl0anzd8Moad)" d="M14.1,9.888h0v.036a.808.808,0,0,0,0,.139v0a1.223,1.223,0,0,0,.319.726,3.433,3.433,0,0,0,2.824.872,2.78,2.78,0,0,0,1.318-.445,1.348,1.348,0,0,0,.574-.786.761.761,0,0,0,.025-.149v-.005l0-.051.024-.314-.052,0a1.258,1.258,0,0,0-.293-.55,2.552,2.552,0,0,0-1.011-.654,3.957,3.957,0,0,0-1.446-.24,3.235,3.235,0,0,0-1.372.293.055.055,0,0,0-.026.01,1.737,1.737,0,0,0-.664.518,1.083,1.083,0,0,0-.143.256l-.057,0Zm.351.035.222.023.027-.365-.258-.019a1.184,1.184,0,0,1,.706-.763A3.485,3.485,0,0,1,18.3,9.03a1.164,1.164,0,0,1,.577.86l-.463-.034-.027.365.42.032a1.3,1.3,0,0,1-.655.6A3.479,3.479,0,0,1,15,10.619,1.276,1.276,0,0,1,14.45,9.923Z" opacity=".4"/><path fill="#ff5c3d" d="M15.472,8.994a1.707,1.707,0,0,1,.385-.11c.087-.016.2-.009.233.046l.337.563c.018.033,0,.062-.041.079a.246.246,0,0,1-.154.007L15.239,9.3c-.1-.026-.087-.071-.042-.128a.917.917,0,0,1,.275-.18"/><path fill="#ff5c3d" d="M16.58,8.848a.44.44,0,0,1,.152-.021,2.242,2.242,0,0,1,.853.187c.077.035.138.09.067.128l-.721.39-.011.006c-.086.037-.225,0-.243-.06L16.548,8.9c-.006-.025.006-.042.032-.053"/><path fill="#ff5c3d" d="M17.091,9.65l.013-.005.861-.3a.227.227,0,0,1,.226.058.478.478,0,0,1,.2.475.114.114,0,0,1-.065.072.185.185,0,0,1-.108.009L17.16,9.786c-.116-.021-.154-.1-.069-.136"/><path fill="#ff5c3d" d="M16.925,9.919a.246.246,0,0,1,.154-.007l.994.277c.1.026.086.071.042.129a.975.975,0,0,1-.278.177,1.666,1.666,0,0,1-.383.112c-.09.014-.2.009-.233-.045L16.885,10c-.019-.033,0-.062.04-.079"/><path fill="#ff5c3d" d="M16.391,9.953c.086-.037.224,0,.24.059l.132.578c.006.024-.006.041-.031.052a.463.463,0,0,1-.156.02,2.166,2.166,0,0,1-.853-.187c-.077-.035-.135-.088-.067-.127l.724-.389.011-.006"/><path fill="#ff5c3d" d="M14.988,9.541a.179.179,0,0,1,.106-.009l1.057.173c.113.019.151.1.066.134l-.013,0-.861.3a.232.232,0,0,1-.226-.054.479.479,0,0,1-.193-.476.1.1,0,0,1,.064-.075"/><circle cx="20.475" cy="14.079" r="2.33" fill="url(#H53o22eYJtcrl0anzd8Moi)"/><circle cx="16.423" cy="16.431" r="4.569" fill="url(#H53o22eYJtcrl0anzd8Moae)"/><circle cx="14.29" cy="12.958" r="2.33" fill="url(#H53o22eYJtcrl0anzd8Moaf)"/><circle cx="12.187" cy="13.348" r="1.486" fill="url(#H53o22eYJtcrl0anzd8Moag)"/><circle cx="20.759" cy="11.179" r="1.486" fill="url(#H53o22eYJtcrl0anzd8Moah)"/><ellipse cx="11.03" cy="14.546" fill="url(#H53o22eYJtcrl0anzd8Moai)" rx="1.288" ry="1.417"/><ellipse cx="18.293" cy="8.793" fill="url(#H53o22eYJtcrl0anzd8Moaj)" rx="1.288" ry="1.417"/><circle cx="17.276" cy="10.791" r="1.998" fill="url(#H53o22eYJtcrl0anzd8Moak)"/><path fill="url(#H53o22eYJtcrl0anzd8Moal)" d="M14.605,15.942h0l.032-.01a.7.7,0,0,0,.124-.043h0a1.154,1.154,0,0,0,.556-.5,3.247,3.247,0,0,0-.064-2.792,2.638,2.638,0,0,0-.793-1.049,1.278,1.278,0,0,0-.877-.279.74.74,0,0,0-.141.022h0l-.047.012-.289.073.012.047a1.2,1.2,0,0,0-.405.427,2.411,2.411,0,0,0-.284,1.1,3.739,3.739,0,0,0,.218,1.368,3.057,3.057,0,0,0,.673,1.142.056.056,0,0,0,.017.02,1.633,1.633,0,0,0,.663.44,1.034,1.034,0,0,0,.272.052l.013.053Zm-.073-.325-.046-.206-.335.085.06.237a1.115,1.115,0,0,1-.895-.405,3.292,3.292,0,0,1-.736-2.891,1.1,1.1,0,0,1,.6-.775l.107.425L13.622,12l-.1-.386a1.235,1.235,0,0,1,.734.408,3.285,3.285,0,0,1,.732,2.889A1.206,1.206,0,0,1,14.532,15.617Z"/><path fill="#ff5c3d" d="M15.025,15.117a4.035,4.035,0,0,0-.833-3.288c-.715-.791-1.5-.6-1.756.431a4.046,4.046,0,0,0,.837,3.291C13.986,16.336,14.772,16.147,15.025,15.117Z"/><path fill="#ff6f5c" d="M14.689,13.452a3.4,3.4,0,0,0-.712-1.428c-.268-.3-.547-.434-.766-.379s-.4.3-.493.686a3.362,3.362,0,0,0,.054,1.587,3.42,3.42,0,0,0,.717,1.438c.267.294.547.431.766.376s.395-.3.488-.684A3.4,3.4,0,0,0,14.689,13.452Z"/><path fill="url(#H53o22eYJtcrl0anzd8Moam)" d="M14.605,15.942h0l.032-.01a.7.7,0,0,0,.124-.043h0a1.154,1.154,0,0,0,.556-.5,3.247,3.247,0,0,0-.064-2.792,2.638,2.638,0,0,0-.793-1.049,1.278,1.278,0,0,0-.877-.279.74.74,0,0,0-.141.022h0l-.047.012-.289.073.012.047a1.2,1.2,0,0,0-.405.427,2.411,2.411,0,0,0-.284,1.1,3.739,3.739,0,0,0,.218,1.368,3.057,3.057,0,0,0,.673,1.142.056.056,0,0,0,.017.02,1.633,1.633,0,0,0,.663.44,1.034,1.034,0,0,0,.272.052l.013.053Zm-.073-.325-.046-.206-.335.085.06.237a1.115,1.115,0,0,1-.895-.405,3.292,3.292,0,0,1-.736-2.891,1.1,1.1,0,0,1,.6-.775l.107.425L13.622,12l-.1-.386a1.235,1.235,0,0,1,.734.408,3.285,3.285,0,0,1,.732,2.889A1.206,1.206,0,0,1,14.532,15.617Z" opacity=".4"/><path fill="#ff5c3d" d="M13.393,14.979a1.545,1.545,0,0,1-.213-.312c-.041-.074-.069-.177-.03-.223l.4-.47c.023-.027.056-.018.083.012a.231.231,0,0,1,.052.137l.049.973c0,.094-.038.1-.1.076a.889.889,0,0,1-.243-.193"/><path fill="#ff5c3d" d="M12.93,14.03a.44.44,0,0,1-.064-.131,2.106,2.106,0,0,1-.087-.82c.008-.08.039-.151.094-.1l.566.529.008.008c.059.066.071.2.019.236l-.478.288a.042.042,0,0,1-.058-.012"/><path fill="#ff5c3d" d="M13.5,13.331l-.008-.009-.528-.682a.213.213,0,0,1-.016-.22.453.453,0,0,1,.367-.318.1.1,0,0,1,.084.037.182.182,0,0,1,.041.094l.162,1c.016.11-.043.168-.1.1"/><path fill="#ff5c3d" d="M13.787,13.4a.231.231,0,0,1-.052-.137l-.049-.973c-.005-.094.038-.1.1-.076a.892.892,0,0,1,.243.2,1.623,1.623,0,0,1,.214.309c.04.077.069.178.03.223l-.405.47c-.023.027-.056.018-.083-.012"/><path fill="#ff5c3d" d="M13.978,13.868c-.06-.065-.071-.2-.02-.233l.479-.291c.02-.013.038-.007.056.012a.475.475,0,0,1,.065.134,2.052,2.052,0,0,1,.087.821c-.008.079-.039.147-.094.1l-.565-.533-.008-.008"/><path fill="#ff5c3d" d="M14.028,15.249a.183.183,0,0,1-.04-.092l-.161-1c-.017-.108.042-.165.1-.1l.008.01.529.682a.223.223,0,0,1,.019.219.456.456,0,0,1-.37.315.1.1,0,0,1-.086-.035"/><circle cx="19.51" cy="10.378" r="1.784" fill="url(#H53o22eYJtcrl0anzd8Moan)"/><circle cx="15.944" cy="12.443" r="1.784" fill="url(#H53o22eYJtcrl0anzd8Moao)"/><circle cx="11.347" cy="17.118" r="2.577" fill="url(#H53o22eYJtcrl0anzd8Moap)"/><path fill="url(#H53o22eYJtcrl0anzd8Moaq)" d="M9.689,15.832h0l-.014.026a.616.616,0,0,0-.048.1v0a.965.965,0,0,0-.031.634,2.747,2.747,0,0,0,1.71,1.634,2.226,2.226,0,0,0,1.1.153,1.085,1.085,0,0,0,.692-.357.7.7,0,0,0,.072-.1v0l.021-.035.129-.217-.035-.021a1.01,1.01,0,0,0-.013-.5,2.045,2.045,0,0,0-.491-.831,3.185,3.185,0,0,0-.949-.689,2.6,2.6,0,0,0-1.087-.28.043.043,0,0,0-.022,0,1.381,1.381,0,0,0-.661.133.928.928,0,0,0-.194.132l-.04-.023Zm.239.151.151.1.15-.252-.179-.106a.948.948,0,0,1,.779-.294A2.788,2.788,0,0,1,13,16.718a.932.932,0,0,1,.106.823l-.319-.19-.15.252.289.172a1.047,1.047,0,0,1-.683.2,2.785,2.785,0,0,1-2.169-1.292A1.018,1.018,0,0,1,9.928,15.983Z"/><path fill="#ff5c3d" d="M9.931,16.577A3.417,3.417,0,0,0,12.4,18.048c.9.045,1.255-.541.793-1.31a3.425,3.425,0,0,0-2.472-1.47C9.824,15.225,9.466,15.809,9.931,16.577Z"/><path fill="#ff6f5c" d="M11.13,17.373a2.868,2.868,0,0,0,1.282.429.734.734,0,0,0,.686-.232.72.72,0,0,0-.116-.706A2.855,2.855,0,0,0,12,15.946a2.909,2.909,0,0,0-1.29-.432.729.729,0,0,0-.684.234.716.716,0,0,0,.117.7A2.857,2.857,0,0,0,11.13,17.373Z"/><path fill="url(#H53o22eYJtcrl0anzd8Moar)" d="M9.689,15.832h0l-.014.026a.616.616,0,0,0-.048.1v0a.965.965,0,0,0-.031.634,2.747,2.747,0,0,0,1.71,1.634,2.226,2.226,0,0,0,1.1.153,1.085,1.085,0,0,0,.692-.357.7.7,0,0,0,.072-.1v0l.021-.035.129-.217-.035-.021a1.01,1.01,0,0,0-.013-.5,2.045,2.045,0,0,0-.491-.831,3.185,3.185,0,0,0-.949-.689,2.6,2.6,0,0,0-1.087-.28.043.043,0,0,0-.022,0,1.381,1.381,0,0,0-.661.133.928.928,0,0,0-.194.132l-.04-.023Zm.239.151.151.1.15-.252-.179-.106a.948.948,0,0,1,.779-.294A2.788,2.788,0,0,1,13,16.718a.932.932,0,0,1,.106.823l-.319-.19-.15.252.289.172a1.047,1.047,0,0,1-.683.2,2.785,2.785,0,0,1-2.169-1.292A1.018,1.018,0,0,1,9.928,15.983Z" opacity=".4"/><path fill="#ff5c3d" d="M10.992,15.683a1.309,1.309,0,0,1,.315.059c.068.019.147.065.151.116l.039.524c0,.03-.023.043-.057.042a.194.194,0,0,1-.113-.051l-.613-.553c-.059-.054-.036-.082.016-.107a.73.73,0,0,1,.262-.03"/><path fill="#ff5c3d" d="M11.837,15.974a.366.366,0,0,1,.117.04,1.787,1.787,0,0,1,.544.439c.043.053.066.114,0,.115l-.656.022h-.01c-.074,0-.162-.078-.152-.13L11.8,16a.036.036,0,0,1,.042-.027"/><path fill="#ff5c3d" d="M11.917,16.731h.011l.724.092a.183.183,0,0,1,.142.122.383.383,0,0,1-.03.41.09.09,0,0,1-.073.029.15.15,0,0,1-.08-.032l-.694-.5c-.075-.057-.075-.127,0-.123"/><path fill="#ff5c3d" d="M11.7,16.865a.186.186,0,0,1,.113.05l.613.553c.059.054.036.082-.016.107a.784.784,0,0,1-.262.029,1.338,1.338,0,0,1-.314-.058c-.07-.022-.148-.065-.151-.115l-.04-.524c0-.03.023-.044.057-.042"/><path fill="#ff5c3d" d="M11.307,16.7c.075,0,.162.078.151.128l-.112.461c-.005.02-.019.027-.041.026a.371.371,0,0,1-.119-.041,1.723,1.723,0,0,1-.544-.439c-.043-.053-.065-.111,0-.115l.657-.02h.01"/><path fill="#ff5c3d" d="M10.449,15.9a.15.15,0,0,1,.08.032l.7.5c.074.054.073.123,0,.12h-.011l-.725-.092a.187.187,0,0,1-.142-.12.384.384,0,0,1,.032-.41.085.085,0,0,1,.072-.031"/><circle cx="10.791" cy="19.695" r="2.389" fill="url(#H53o22eYJtcrl0anzd8Moas)"/><circle cx="14.008" cy="16.079" r="2.63" fill="url(#H53o22eYJtcrl0anzd8Moat)"/><path fill="url(#H53o22eYJtcrl0anzd8Moau)" d="M12.886,17.815h0l.027.029a.818.818,0,0,0,.108.1l0,0a1.32,1.32,0,0,0,.8.312,3.715,3.715,0,0,0,2.83-1.494,3.012,3.012,0,0,0,.669-1.35,1.458,1.458,0,0,0-.162-1.041.852.852,0,0,0-.095-.134l0,0-.036-.042-.223-.258-.042.036a1.362,1.362,0,0,0-.646-.2,2.778,2.778,0,0,0-1.276.273,4.314,4.314,0,0,0-1.291.924,3.492,3.492,0,0,0-.826,1.274.063.063,0,0,0-.012.028,1.861,1.861,0,0,0-.112.9,1.215,1.215,0,0,0,.086.3l-.047.041Zm.3-.241.187-.153-.259-.3L12.9,17.3a1.284,1.284,0,0,1-.043-1.125,3.773,3.773,0,0,1,2.588-2.234,1.263,1.263,0,0,1,1.1.217l-.381.328.259.3.346-.3a1.414,1.414,0,0,1-.042.961,3.766,3.766,0,0,1-2.588,2.229A1.375,1.375,0,0,1,13.183,17.574Z"/><path fill="#ff5c3d" d="M13.947,17.824a4.624,4.624,0,0,0,2.946-2.538c.445-1.137-.157-1.841-1.341-1.579a4.632,4.632,0,0,0-2.946,2.543C12.166,17.382,12.762,18.091,13.947,17.824Z"/><path fill="#ff6f5c" d="M15.482,16.627a3.867,3.867,0,0,0,1.1-1.461.989.989,0,0,0,0-.98.979.979,0,0,0-.955-.154,3.868,3.868,0,0,0-1.6.868,3.93,3.93,0,0,0-1.108,1.471.988.988,0,0,0,.007.978.971.971,0,0,0,.951.15A3.877,3.877,0,0,0,15.482,16.627Z"/><path fill="url(#H53o22eYJtcrl0anzd8Moav)" d="M12.886,17.815h0l.027.029a.818.818,0,0,0,.108.1l0,0a1.32,1.32,0,0,0,.8.312,3.715,3.715,0,0,0,2.83-1.494,3.012,3.012,0,0,0,.669-1.35,1.458,1.458,0,0,0-.162-1.041.852.852,0,0,0-.095-.134l0,0-.036-.042-.223-.258-.042.036a1.362,1.362,0,0,0-.646-.2,2.778,2.778,0,0,0-1.276.273,4.314,4.314,0,0,0-1.291.924,3.492,3.492,0,0,0-.826,1.274.063.063,0,0,0-.012.028,1.861,1.861,0,0,0-.112.9,1.215,1.215,0,0,0,.086.3l-.047.041Zm.3-.241.187-.153-.259-.3L12.9,17.3a1.284,1.284,0,0,1-.043-1.125,3.773,3.773,0,0,1,2.588-2.234,1.263,1.263,0,0,1,1.1.217l-.381.328.259.3.346-.3a1.414,1.414,0,0,1-.042.961,3.766,3.766,0,0,1-2.588,2.229A1.375,1.375,0,0,1,13.183,17.574Z" opacity=".4"/><path fill="#ff5c3d" d="M13.254,16.08a1.8,1.8,0,0,1,.211-.379c.054-.079.146-.161.213-.144l.689.174c.04.011.047.048.03.091a.267.267,0,0,1-.114.124l-.972.549c-.094.053-.121.011-.131-.067a1.012,1.012,0,0,1,.074-.348"/><path fill="#ff5c3d" d="M13.99,15.119a.5.5,0,0,1,.1-.132,2.438,2.438,0,0,1,.8-.51c.086-.032.174-.036.149.047l-.253.851-.005.013c-.036.094-.169.174-.232.139l-.54-.342a.048.048,0,0,1-.017-.066"/><path fill="#ff5c3d" d="M15,15.342,15,15.329l.429-.891a.247.247,0,0,1,.217-.129.519.519,0,0,1,.514.214.124.124,0,0,1,.005.106.2.2,0,0,1-.075.089l-.939.676c-.105.073-.194.042-.157-.052"/><path fill="#ff5c3d" d="M15.075,15.676a.258.258,0,0,1,.113-.123L16.16,15c.095-.054.122-.012.131.066a1.047,1.047,0,0,1-.076.349,1.89,1.89,0,0,1-.208.378c-.058.08-.147.161-.213.144l-.69-.174c-.039-.01-.046-.048-.029-.091"/><path fill="#ff5c3d" d="M14.692,16.11c.037-.094.169-.174.229-.138l.543.341c.024.014.027.036.017.064a.524.524,0,0,1-.1.135,2.36,2.36,0,0,1-.8.51c-.086.032-.171.035-.149-.047l.257-.852,0-.013"/><path fill="#ff5c3d" d="M13.3,16.869a.2.2,0,0,1,.074-.088l.942-.677c.1-.072.191-.041.154.053l-.006.013-.429.891a.255.255,0,0,1-.215.132.521.521,0,0,1-.512-.218.114.114,0,0,1-.008-.106"/><circle cx="16.73" cy="17.373" r="1.784" fill="url(#H53o22eYJtcrl0anzd8Moaw)"/><circle cx="14.599" cy="18.743" r="2.021" fill="url(#H53o22eYJtcrl0anzd8Moax)"/><path fill="url(#H53o22eYJtcrl0anzd8Moay)" d="M20.894,13.247l-.05-.037a1.165,1.165,0,0,0,.063-.309,1.865,1.865,0,0,0-.177-.89.073.073,0,0,0-.014-.026,3.48,3.48,0,0,0-.913-1.2,4.271,4.271,0,0,0-1.348-.821,2.752,2.752,0,0,0-1.285-.178,1.356,1.356,0,0,0-.626.242L16.5,9.991l-.2.273-.033.044,0,0a1.044,1.044,0,0,0-.085.14,1.46,1.46,0,0,0-.084,1.045,3.01,3.01,0,0,0,.762,1.29,3.7,3.7,0,0,0,2.916,1.274,1.306,1.306,0,0,0,.771-.368l0,0a.7.7,0,0,0,.1-.112l.025-.03h0Zm-1.477.263a3.746,3.746,0,0,1-2.729-2.021,1.4,1.4,0,0,1-.112-.951l.364.271.235-.317-.4-.3a1.259,1.259,0,0,1,1.077-.3,3.75,3.75,0,0,1,2.729,2.027,1.272,1.272,0,0,1,.04,1.118l-.224-.166-.235.317.2.138A1.374,1.374,0,0,1,19.417,13.51Z"/><path fill="#ff5c3d" d="M19.618,13.636a4.6,4.6,0,0,1-3.107-2.3c-.525-1.095.021-1.838,1.215-1.664a4.609,4.609,0,0,1,3.107,2.306C21.352,13.067,20.812,13.814,19.618,13.636Z"/><path fill="#ff6f5c" d="M18.008,12.561a3.853,3.853,0,0,1-1.2-1.369.983.983,0,0,1-.068-.971A.97.97,0,0,1,17.678,10a3.854,3.854,0,0,1,1.65.744,3.917,3.917,0,0,1,1.206,1.378.981.981,0,0,1,.064.971.962.962,0,0,1-.931.218A3.847,3.847,0,0,1,18.008,12.561Z"/><path fill="url(#H53o22eYJtcrl0anzd8Moaz)" d="M20.894,13.247l-.05-.037a1.165,1.165,0,0,0,.063-.309,1.865,1.865,0,0,0-.177-.89.073.073,0,0,0-.014-.026,3.48,3.48,0,0,0-.913-1.2,4.271,4.271,0,0,0-1.348-.821,2.752,2.752,0,0,0-1.285-.178,1.356,1.356,0,0,0-.626.242L16.5,9.991l-.2.273-.033.044,0,0a1.044,1.044,0,0,0-.085.14,1.46,1.46,0,0,0-.084,1.045,3.01,3.01,0,0,0,.762,1.29,3.7,3.7,0,0,0,2.916,1.274,1.306,1.306,0,0,0,.771-.368l0,0a.7.7,0,0,0,.1-.112l.025-.03h0Zm-1.477.263a3.746,3.746,0,0,1-2.729-2.021,1.4,1.4,0,0,1-.112-.951l.364.271.235-.317-.4-.3a1.259,1.259,0,0,1,1.077-.3,3.75,3.75,0,0,1,2.729,2.027,1.272,1.272,0,0,1,.04,1.118l-.224-.166-.235.317.2.138A1.374,1.374,0,0,1,19.417,13.51Z" opacity=".4"/><path fill="#ff5c3d" d="M20.178,11.856a1.8,1.8,0,0,0-.237-.361c-.06-.075-.157-.149-.222-.127l-.671.223c-.038.013-.042.051-.022.092a.25.25,0,0,0,.121.114l1,.474c.1.046.121,0,.125-.076a.967.967,0,0,0-.1-.339"/><path fill="#ff5c3d" d="M19.377,10.957a.471.471,0,0,0-.11-.125,2.423,2.423,0,0,0-.827-.447c-.087-.025-.175-.023-.144.057l.313.826.006.013c.043.09.18.16.24.121l.511-.379a.048.048,0,0,0,.011-.066"/><path fill="#ff5c3d" d="M18.4,11.251l-.007-.013-.49-.852a.245.245,0,0,0-.225-.112.514.514,0,0,0-.493.25.118.118,0,0,0,0,.105.2.2,0,0,0,.081.083l.98.6c.109.064.2.028.152-.063"/><path fill="#ff5c3d" d="M18.343,11.588a.257.257,0,0,0-.122-.114l-1-.474c-.1-.046-.121,0-.125.076a1.049,1.049,0,0,0,.1.34,1.829,1.829,0,0,0,.234.36c.064.075.157.149.222.127l.671-.223c.038-.013.042-.051.023-.092"/><path fill="#ff5c3d" d="M18.754,11.991c-.044-.091-.181-.161-.237-.121L18,12.248a.046.046,0,0,0-.012.064.516.516,0,0,0,.113.127,2.328,2.328,0,0,0,.828.447c.087.026.171.023.144-.057L18.759,12l0-.012"/><path fill="#ff5c3d" d="M20.188,12.642a.188.188,0,0,0-.08-.082l-.984-.6c-.106-.064-.192-.027-.148.064l.006.012.491.853A.254.254,0,0,0,19.7,13a.52.52,0,0,0,.493-.254.111.111,0,0,0,0-.105"/><circle cx="19.273" cy="16.563" r="2.021" fill="url(#H53o22eYJtcrl0anzd8MoaA)"/><circle cx="19.131" cy="12.892" r="2.021" fill="url(#H53o22eYJtcrl0anzd8MoaB)"/><circle cx="17.596" cy="15.015" r="2.572" fill="url(#H53o22eYJtcrl0anzd8MoaC)"/><circle cx="12.195" cy="20.844" r="2.412" fill="url(#H53o22eYJtcrl0anzd8MoaD)"/><path fill="url(#H53o22eYJtcrl0anzd8MoaE)" d="M42.153,31.075v.393a6.668,6.668,0,0,1-.043.8,5.343,5.343,0,0,1-.064.553.232.232,0,0,1-.021.106,2.28,2.28,0,0,1-.064.372,8.755,8.755,0,0,1-1.553,3.446c-.095.128-.2.277-.308.415-.064.075-.128.16-.2.234a10.207,10.207,0,0,1-1.574,1.479q-.255.159-.511.351c-.18.106-.361.223-.563.329a3.623,3.623,0,0,1-.351.181,4.35,4.35,0,0,1-.681.287.116.116,0,0,1-.1.043,1.261,1.261,0,0,1-.351.117,7.149,7.149,0,0,1-.787.234c-.159.042-.319.064-.5.1-.074.011-.138.022-.223.032a4.87,4.87,0,0,1-.681.054,7.532,7.532,0,0,1-2.892-.373,4.842,4.842,0,0,1-.671-.255,7.571,7.571,0,0,1-1.8-1.042A2.838,2.838,0,0,1,28,38.732a.211.211,0,0,1-.1-.064c-.053-.042-.1-.095-.149-.138q-5.1-4.658-10.231-9.306c-.617-.564-1.436-1.308-2.053-1.872-.053-.053-.117-.106-.181-.159v-.011a4.789,4.789,0,0,1-.415-.383c-.149-.117-.3-.255-.425-.372-.606-.564-1.425-1.308-2.042-1.861s-1.436-1.309-2.053-1.862c-.308-.276-.712-.659-1.021-.936-.532-.489-1.053-1.021-1.616-1.489.138.054.276.1.414.139a.042.042,0,0,0,.032.01,5.23,5.23,0,0,0,2.181.139l.244-.032a6.843,6.843,0,0,0,1.447-.415,11.362,11.362,0,0,0,1.712-.894,15.468,15.468,0,0,0,5.073-5.753,8.155,8.155,0,0,0,.628-1.574,5.458,5.458,0,0,0,.149-.787,5.6,5.6,0,0,0-.234-2.5.1.1,0,0,0-.032-.074,5.856,5.856,0,0,0-.511-1.117,1.085,1.085,0,0,0-.074-.117.986.986,0,0,1-.054-.085c0-.011,0-.011-.01-.011a.139.139,0,0,0-.032-.042l.032.032c.01,0,.01.01.021.021.511.447,1.032.915,1.553,1.383.542.478,1.085.957,1.648,1.446.011.011.032.021.054.043.595.521,1.212,1.063,1.829,1.616.181.149.34.3.51.447.734.638,1.468,1.287,2.2,1.925l.255.223.011.011a.032.032,0,0,1,.021.01,1.815,1.815,0,0,0,.16.149c2.169,1.894,4.339,3.808,6.456,5.68.4.361.808.712,1.212,1.063l.8.7L39.473,25.5a1.579,1.579,0,0,1,.223.234.991.991,0,0,1,.127.106c.171.17.32.34.468.5a8.1,8.1,0,0,1,.766,1.106c.075.117.139.255.213.383.021.074.064.138.085.2a4.981,4.981,0,0,1,.308.7,4.761,4.761,0,0,1,.2.627,3.77,3.77,0,0,1,.106.436,1.6,1.6,0,0,1,.042.224c.043.18.064.361.1.542C42.121,30.745,42.142,30.9,42.153,31.075Z"/><path fill="#f4b673" d="M7.742,20.287a6.165,6.165,0,0,0,4.892-.549,12.8,12.8,0,0,0,3.883-3.179,13.316,13.316,0,0,0,2.63-4.26,6.616,6.616,0,0,0-.329-4.878,5.712,5.712,0,0,1,.66,4.985,13.593,13.593,0,0,1-2.73,4.352,12.49,12.49,0,0,1-4.026,3.16A6.139,6.139,0,0,1,7.742,20.287Z"/><circle cx="20.054" cy="22.84" r="1.048" fill="#d8803f" opacity=".9"/><circle cx="15.877" cy="23.149" r=".499" fill="#d8803f" opacity=".9"/><path fill="url(#H53o22eYJtcrl0anzd8MoaF)" d="M40.838,35.026a9.544,9.544,0,0,1-2.4,3.241,10.43,10.43,0,0,1-1.661,1.206,7.841,7.841,0,0,1-1.138.629,6.877,6.877,0,0,1-1.125-1.125c-2.009-1.915-4.018-3.817-6.027-5.732-2.585-2.465-2.625-5.036-5.21-7.5-1.7-1.62-5.639-5.826-6.657-6.924a.407.407,0,0,1,0-.536,15.069,15.069,0,0,0,3.08-4.835,6.8,6.8,0,0,0-.375-4.916c-.013-.053-.04-.107-.053-.147-.027-.08-.549-1.1-.589-1.179,1.031.911,2.1,1.862,3.214,2.84.013.013.04.027.054.04.6.522,1.218,1.071,1.835,1.621.174.147.334.294.509.442,3.509,3.08,7.125,6.268,10.313,9.067,2.1,1.862,4.487,3.871,5.92,6.322A8.331,8.331,0,0,1,40.838,35.026Z"/><path fill="url(#H53o22eYJtcrl0anzd8MoaG)" d="M35.641,40.1a.885.885,0,0,1-.482.041c-.4-.148-.911-.871-1.219-1.166-2.009-1.915-4.018-3.817-6.027-5.732-2.585-2.465-2.612-5.036-5.21-7.5-1.7-1.615-5.64-5.83-6.656-6.919a.407.407,0,0,1,0-.54,14.975,14.975,0,0,0,3.081-4.836,4.761,4.761,0,0,0,.321-1.554,5.654,5.654,0,0,0-.174-3.509c.576,1.366,1.112,3.442.428,5.063a15.147,15.147,0,0,1-3.082,4.836.408.408,0,0,0,0,.539c1.015,1.088,4.96,5.305,6.657,6.92,2.585,2.465,2.625,5.036,5.21,7.5,2.009,1.915,4.018,3.817,6.027,5.732A6.877,6.877,0,0,0,35.641,40.1Z" opacity=".5"/><circle cx="25.793" cy="20.74" r="1.369" fill="url(#H53o22eYJtcrl0anzd8Moj)" opacity=".8"/><path fill="#f0ae60" d="M16.622,18.82a43.386,43.386,0,0,1,3.227,3.206c1.049,1.094,2.1,2.187,3.119,3.308l-.181.172c-1.065-1.079-2.1-2.186-3.136-3.292A43.38,43.38,0,0,1,16.622,18.82Z"/><path fill="#f4b673" d="M16.622,18.82a.406.406,0,0,1-.132-.391,1.018,1.018,0,0,1,.214-.368c.155-.222.331-.425.493-.64.333-.421.669-.837.965-1.279a14.137,14.137,0,0,0,1.429-2.848,5.672,5.672,0,0,0,.2-3.1A10.873,10.873,0,0,0,18.685,7.2a7.984,7.984,0,0,1,1.364,2.939,5.832,5.832,0,0,1-.168,3.262,12.342,12.342,0,0,1-1.491,2.9,15.279,15.279,0,0,1-1.01,1.275c-.183.2-.356.406-.55.594a1.092,1.092,0,0,0-.244.288A.386.386,0,0,0,16.622,18.82Z"/><circle cx="19.864" cy="17.888" r=".932" fill="url(#H53o22eYJtcrl0anzd8MoaH)"/><circle cx="24.049" cy="15.447" r=".65" fill="url(#H53o22eYJtcrl0anzd8MoaI)" opacity=".7"/><path fill="url(#H53o22eYJtcrl0anzd8MoaJ)" d="M23.788,11.708a1.207,1.207,0,0,1-1.032.549,1.272,1.272,0,0,1-1.272-1.273,1.211,1.211,0,0,1,.415-.937c.013.013.04.027.054.04C22.555,10.609,23.171,11.158,23.788,11.708Z" opacity=".5"/><path fill="url(#H53o22eYJtcrl0anzd8MoaK)" d="M26.493,14.078c.094,2.759-.6,10.983-11.626,12.724a5.215,5.215,0,0,0,.416.375c13.125-1.714,11.465-12.871,11.465-12.871a.107.107,0,0,1,.04.013Z" opacity=".7"/><ellipse cx="15.339" cy="20.437" fill="#d8803f" opacity=".9" rx=".941" ry=".779" transform="rotate(-38.376 15.339 20.437)"/><path fill="url(#H53o22eYJtcrl0anzd8MoaL)" d="M44.684,32.308c.1,1.915-1.989,4.871-2.872,6.031-.84,1.085-4.243,4.084-6.168,4.211a.377.377,0,0,1-.149.022,1.722,1.722,0,0,1-.4-.032c-2.659-.149-5.371-1.819-9.881-5.818-1.712-1.51-3.339-3.127-4.988-4.711q-1.245-1.2-2.457-2.393c-.393-.373-.766-.745-1.138-1.128l-.149-.149a6.729,6.729,0,0,0-.989-1,.01.01,0,0,0-.01-.01l-.064-.032.1.032A6.909,6.909,0,0,0,18.6,27.15a7.968,7.968,0,0,0,2.967-1.244,14.572,14.572,0,0,0,4.882-5.541,7.133,7.133,0,0,0,.9-4.3,4.185,4.185,0,0,0-.6-1.766c.16.149.319.287.479.436a2.158,2.158,0,0,0,.181.149l.415.351.191.16c3.137,2.637,6.562,5.254,9.71,7.838.256.213.511.436.766.649.138.117.266.223.394.33a.056.056,0,0,0,.01.032C42.248,27.182,44.578,30.192,44.684,32.308Z"/><path fill="url(#H53o22eYJtcrl0anzd8MoaM)" d="M27.4,18.457c.053.213.933,1.154-.207,1.748a1.05,1.05,0,0,0-.18.117,5.442,5.442,0,0,0-.16.893,4.391,4.391,0,0,1-.085.522,3.674,3.674,0,0,1-1.085,1.446,4.049,4.049,0,0,0-.489.681c-.362.574-.67,1.074-1.1,1.18a1.9,1.9,0,0,1-.468.075.881.881,0,0,0-.159.117,2.3,2.3,0,0,1-.83.574,1.727,1.727,0,0,0-.553.415,2.172,2.172,0,0,1-.989.606,3.408,3.408,0,0,0-.766.351,3.137,3.137,0,0,1-1.095.468,1.9,1.9,0,0,0-.925.4l-.139.1a2.026,2.026,0,0,1-1.106.393,1.317,1.317,0,0,1-.351-.042.257.257,0,0,0-.085-.011l-.149-.149a6.729,6.729,0,0,0-.989-1,.01.01,0,0,0-.01-.01l-.064-.032.1.032A6.909,6.909,0,0,0,18.6,27.15a7.968,7.968,0,0,0,2.967-1.244,14.572,14.572,0,0,0,4.882-5.541,7.133,7.133,0,0,0,.9-4.3,4.185,4.185,0,0,0-.6-1.766c.16.149.319.287.479.436a2.158,2.158,0,0,0,.181.149l.14.119a5.221,5.221,0,0,0-.047.965c.011.032.3.374.356.438a1.235,1.235,0,0,1,.17,1.072C27.861,18.491,27.384,18.414,27.4,18.457Z" opacity=".3"/><path fill="url(#H53o22eYJtcrl0anzd8MoaN)" d="M15.282,27.182s.091.959.5.9a2.542,2.542,0,0,1,1.025,0,1.369,1.369,0,0,0,1.123-.295,2.572,2.572,0,0,1,1.228-.556c.627-.112,1.226-.68,1.839-.822s.858-.727,1.471-1,.684-.527.912-.655.171-.015.612-.129,1.037-1.492,1.436-1.791a3.273,3.273,0,0,0,.926-1.226c.086-.285.128-1.439.4-1.638s.641-.314.684-.656-.363-1.09,0-1.111.392-.235.47-.955c.069-.628-.506-.8-.527-1.182a3.835,3.835,0,0,1,.06-1.044c.064-.235-.147-.408-.4-.558a2.147,2.147,0,0,0-.295-.165S28.406,25.462,15.282,27.182Z"/><path fill="url(#H53o22eYJtcrl0anzd8MoaN)" d="M15.282,27.182s.091.959.5.9a2.542,2.542,0,0,1,1.025,0,1.369,1.369,0,0,0,1.123-.295,2.572,2.572,0,0,1,1.228-.556c.627-.112,1.226-.68,1.839-.822s.858-.727,1.471-1,.684-.527.912-.655.171-.015.612-.129,1.037-1.492,1.436-1.791a3.273,3.273,0,0,0,.926-1.226c.086-.285.128-1.439.4-1.638s.641-.314.684-.656-.363-1.09,0-1.111.392-.235.47-.955c.069-.628-.506-.8-.527-1.182a3.835,3.835,0,0,1,.06-1.044c.064-.235-.147-.408-.4-.558a2.147,2.147,0,0,0-.295-.165S28.406,25.462,15.282,27.182Z"/><circle cx="20.527" cy="19.799" r=".649" fill="#d8803f" opacity=".7"/></g></svg>