<svg xmlns="http://www.w3.org/2000/svg" xmlns:xlink="http://www.w3.org/1999/xlink" data-name="Layer 1" viewBox="0 0 48 48"><defs><linearGradient id="6lpMSdqgJRnX6oLDY9pLHh" x1="24.21" x2="24.21" y1="13.16" y2="16.77" gradientUnits="userSpaceOnUse"><stop offset="0" stop-color="#fff" stop-opacity=".5"/><stop offset="1" stop-color="#fff" stop-opacity="0"/></linearGradient><linearGradient id="6lpMSdqgJRnX6oLDY9pLHm" x1="8.84" x2="8.88" y1="12.01" y2="16.47" xlink:href="#6lpMSdqgJRnX6oLDY9pLHb"/><linearGradient id="6lpMSdqgJRnX6oLDY9pLHl" x1="30.19" x2="30.29" y1="36.1" y2="46.76" xlink:href="#6lpMSdqgJRnX6oLDY9pLHb"/><linearGradient id="6lpMSdqgJRnX6oLDY9pLHj" x1="39.15" x2="41.85" y1="46.27" y2="42.34" gradientTransform="rotate(123.81 45.226 39.017)" xlink:href="#6lpMSdqgJRnX6oLDY9pLHa"/><linearGradient id="6lpMSdqgJRnX6oLDY9pLHg" x1="13.51" x2="17.17" y1="5.13" y2="13.74" gradientUnits="userSpaceOnUse"><stop offset="0" stop-color="#fff" stop-opacity="0"/><stop offset="1" stop-color="#fff"/></linearGradient><linearGradient id="6lpMSdqgJRnX6oLDY9pLHb" x1="32.63" x2="41.81" y1="32.71" y2="42.97" gradientUnits="userSpaceOnUse"><stop offset="0" stop-color="#fff" stop-opacity="0"/><stop offset=".51" stop-color="#fff" stop-opacity=".5"/><stop offset="1" stop-color="#fff" stop-opacity="0"/></linearGradient><linearGradient id="6lpMSdqgJRnX6oLDY9pLHa" x1="29.42" x2="32.33" y1="8.53" y2="4.3" gradientTransform="rotate(-29.68 21.148 32.686)" gradientUnits="userSpaceOnUse"><stop offset="0" stop-color="#fff"/><stop offset="1" stop-color="#fff" stop-opacity="0"/></linearGradient><linearGradient id="6lpMSdqgJRnX6oLDY9pLHi" x1="17.58" x2="23.19" y1="39.58" y2="31.42" gradientTransform="rotate(-29.68 21.148 32.686)" gradientUnits="userSpaceOnUse"><stop offset="0" stop-color="#fff" stop-opacity=".7"/><stop offset="1" stop-color="#fff" stop-opacity="0"/></linearGradient><radialGradient id="6lpMSdqgJRnX6oLDY9pLHd" cx="24.46" cy="24.91" r="23.18" gradientUnits="userSpaceOnUse"><stop offset="0" stop-color="#5e2194" stop-opacity="0"/><stop offset=".42" stop-color="#5e2194" stop-opacity=".01"/><stop offset=".58" stop-color="#5e2194" stop-opacity=".06"/><stop offset=".7" stop-color="#5e2194" stop-opacity=".14"/><stop offset=".8" stop-color="#5e2194" stop-opacity=".26"/><stop offset=".89" stop-color="#5e2194" stop-opacity=".41"/><stop offset=".97" stop-color="#5e2194" stop-opacity=".6"/><stop offset="1" stop-color="#5e2194" stop-opacity=".7"/></radialGradient><radialGradient id="6lpMSdqgJRnX6oLDY9pLHf" cx="24.62" cy="13.76" r="12.59" gradientTransform="matrix(1 .03 -.02 .77 .28 2.35)" gradientUnits="userSpaceOnUse"><stop offset="0" stop-color="#fff" stop-opacity=".5"/><stop offset=".16" stop-color="#fff" stop-opacity=".45"/><stop offset=".45" stop-color="#fff" stop-opacity=".31"/><stop offset=".84" stop-color="#fff" stop-opacity=".1"/><stop offset="1" stop-color="#fff" stop-opacity="0"/></radialGradient><radialGradient id="6lpMSdqgJRnX6oLDY9pLHk" cx="8.63" cy="15.38" r="5.42" gradientUnits="userSpaceOnUse"><stop offset="0" stop-color="#5e2194" stop-opacity="0"/><stop offset=".22" stop-color="#5e2194" stop-opacity=".07"/><stop offset=".58" stop-color="#5e2194" stop-opacity=".24"/><stop offset="1" stop-color="#5e2194" stop-opacity=".5"/></radialGradient><radialGradient id="6lpMSdqgJRnX6oLDY9pLHe" cx="24" cy="24" r="15.07" gradientUnits="userSpaceOnUse"><stop offset="0" stop-color="#5e2194" stop-opacity="0"/><stop offset=".4" stop-color="#5e2194" stop-opacity=".01"/><stop offset=".56" stop-color="#5e2194" stop-opacity=".06"/><stop offset=".68" stop-color="#5e2194" stop-opacity=".14"/><stop offset=".78" stop-color="#5e2194" stop-opacity=".26"/><stop offset=".86" stop-color="#5e2194" stop-opacity=".41"/><stop offset=".94" stop-color="#5e2194" stop-opacity=".6"/><stop offset="1" stop-color="#5e2194" stop-opacity=".8"/></radialGradient><radialGradient id="6lpMSdqgJRnX6oLDY9pLHc" cx="24.91" cy="18.18" r="36.98" gradientUnits="userSpaceOnUse"><stop offset="0" stop-color="#f0ddf8"/><stop offset=".1" stop-color="#e0c3f2"/><stop offset=".33" stop-color="#be8ae6"/><stop offset=".54" stop-color="#a35cdd"/><stop offset=".73" stop-color="#8f3cd6"/><stop offset=".89" stop-color="#8328d2"/><stop offset="1" stop-color="#7f21d0"/></radialGradient></defs><path fill="url(#6lpMSdqgJRnX6oLDY9pLHc)" d="M45.94,32.59c0,.71-1.29,1.78-1.76,2.21-.16.15-.34.3-.5.46a2.73,2.73,0,0,0-.86,1.25,5.69,5.69,0,0,0-.06,1.31,2.56,2.56,0,0,1,0,.39,3.08,3.08,0,0,1-1.07,1.73c-.24.22-.5.42-.75.62a7.31,7.31,0,0,1-3.11,1.68c-.29,0-.59,0-.88.08h0a2.76,2.76,0,0,0-1.1.25A5.08,5.08,0,0,0,34.37,44l-.17.18a5.77,5.77,0,0,1-2.55,1.62,2,2,0,0,1-2-.22,2.11,2.11,0,0,1-.56-1.29c0-.13,0-.25,0-.38,0-.55-.07-1.1-.07-1.66a23,23,0,0,1,.48-5.1,16.29,16.29,0,0,1,.43-1.63,12.77,12.77,0,0,1-7.77,1.3,13,13,0,0,1-8.92-20,19.81,19.81,0,0,1-2.77.18,34.84,34.84,0,0,1-4.79-.14c-.51-.06-1-.15-1.52-.26l-.8-.17c-.62-.16-1.29-.43-1.28-1s1.29-1.78,1.76-2.21A3.94,3.94,0,0,0,5.18,11.5a5.54,5.54,0,0,0,.06-1.29,1.84,1.84,0,0,1,0-.41A4.08,4.08,0,0,1,7.09,7.46,7.31,7.31,0,0,1,10.2,5.78c.45-.07.91,0,1.35-.13a2,2,0,0,0,.65-.2A5.09,5.09,0,0,0,13.63,4a5.81,5.81,0,0,1,2.72-1.79,2,2,0,0,1,2,.22,1.73,1.73,0,0,1,.45.75,5.5,5.5,0,0,1,.15.92q0,.54.06,1.08a23.06,23.06,0,0,1-.47,5.67,13,13,0,0,1-.44,1.63A13,13,0,0,1,23.6,11H24A13,13,0,0,1,34.79,31.18,19.81,19.81,0,0,1,37.56,31a37.12,37.12,0,0,1,4.08.07,16.85,16.85,0,0,1,2.22.33l.22,0C44.77,31.58,45.95,31.81,45.94,32.59Z"/><path fill="#fff" d="M44.08,31.45c-.3.32-.61.62-.91.9a6.11,6.11,0,0,0-1.69,2.1,5.21,5.21,0,0,0-.24,1.08A8.86,8.86,0,0,1,41,36.68a5.24,5.24,0,0,1-5.32,3.64l-.38,0a2.29,2.29,0,0,0-.68,0c-.22.07-.46.41-.69.74l-.17.23a8.22,8.22,0,0,1-4.67,3.05c0-.13,0-.25,0-.38,0-.55-.07-1.1-.07-1.66A6.14,6.14,0,0,0,32.17,40l.15-.2A3.49,3.49,0,0,1,34,38.37a3.3,3.3,0,0,1,1.55-.06l.31,0a3.26,3.26,0,0,0,3.24-2.21,7.48,7.48,0,0,0,.18-.92,8.16,8.16,0,0,1,.34-1.45,7.07,7.07,0,0,1,2-2.69,16.85,16.85,0,0,1,2.22.33Z"/><path fill="#fff" d="M19,5.17a6.09,6.09,0,0,0-3.4,2.26l-.15.21a3.46,3.46,0,0,1-1.7,1.47,3.3,3.3,0,0,1-1.55.06l-.3,0a3.23,3.23,0,0,0-3.24,2.21,7.47,7.47,0,0,0-.18.92,8.15,8.15,0,0,1-.34,1.45A7.66,7.66,0,0,1,6,16.58l-.3.28c-.51-.06-1-.15-1.52-.26l-.8-.17a12.83,12.83,0,0,1,1.25-1.3A6.13,6.13,0,0,0,6.27,13,5.26,5.26,0,0,0,6.51,12a8.66,8.66,0,0,1,.24-1.17,5.26,5.26,0,0,1,5.32-3.64l.38,0a2,2,0,0,0,.68,0c.21-.07.46-.41.69-.74L14,6.26a8.23,8.23,0,0,1,4.8-3.08,5.5,5.5,0,0,1,.15.92Q19,4.64,19,5.17Z"/><path fill="#fff" d="M32.23,14a52.23,52.23,0,0,1-3.34,11.35,51.84,51.84,0,0,1-6.75,11.5,12.89,12.89,0,0,1-8-4.39,43,43,0,0,0,6.46-10.61A42.63,42.63,0,0,0,23.6,11H24A12.93,12.93,0,0,1,32.23,14Z"/><path fill="url(#6lpMSdqgJRnX6oLDY9pLHd)" d="M43.67,35.26a4.51,4.51,0,0,0-1.11-1.07c-2.11-1.52-4.74-2.11-7.29-2.67-.21,0-.43-.09-.64-.12A13,13,0,0,0,24,11h-.4a12.9,12.9,0,0,0-8.15,3.22,5.66,5.66,0,0,0-.5-1.4Q13.32,9.42,11.71,6c0-.1-.1-.21-.16-.31-.44.08-.9.06-1.35.13A7.31,7.31,0,0,0,7.09,7.46,4.08,4.08,0,0,0,5.27,9.8a1.84,1.84,0,0,0,0,.41,6.22,6.22,0,0,0,1,.93c.71.58,1.44,1.12,2.18,1.64a38,38,0,0,0,4,2.45,15.37,15.37,0,0,0,1.36.75,13,13,0,0,0,8.31,20.85A12.72,12.72,0,0,0,24,37a12.88,12.88,0,0,0,6.56-1.79l.2.27a12.66,12.66,0,0,1,1.69,3.65c.48,1.5.85,3,1.46,4.48a5.72,5.72,0,0,0,.3.61l.17-.18a5.08,5.08,0,0,1,1.44-1.45,2.76,2.76,0,0,1,1.1-.25,8.86,8.86,0,0,0-.49-1.24A58,58,0,0,0,33.16,35a3.28,3.28,0,0,0-.87-1,13,13,0,0,0,1.2-1.16c.68.32,1.47.51,2.16.81A30.09,30.09,0,0,1,40,35.9c.79.5,1.56,1,2.29,1.61a2.85,2.85,0,0,0,.46.31,5.69,5.69,0,0,1,.06-1.31A2.73,2.73,0,0,1,43.67,35.26Z"/><path fill="url(#6lpMSdqgJRnX6oLDY9pLHe)" d="M36.51,24A12.51,12.51,0,0,1,24,36.51a12.27,12.27,0,0,1-1.8-.13A12.5,12.5,0,0,1,23.62,11.5H24A12.5,12.5,0,0,1,36.51,24Z"/><path fill="url(#6lpMSdqgJRnX6oLDY9pLHf)" d="M33.17,18.82c0,3.85-4.22,7-9.42,7a12.44,12.44,0,0,1-1.35-.08,10.58,10.58,0,0,1-5.8-2.36,6,6,0,0,1-2.27-4.53c0-3.78,4.06-6.85,9.13-7h.29a11.58,11.58,0,0,1,6,1.58A6.46,6.46,0,0,1,33.17,18.82Z"/><path fill="url(#6lpMSdqgJRnX6oLDY9pLHg)" d="M15.56,12.59c.12.27.31.58.6.56s.45-.44.47-.77c.13-2.49-.81-4.91-1.73-7.23-.18-.44-.44-1-.92-1a2.47,2.47,0,0,1-1.21,1.63c-.35.27-.29.21-.09.56s.38.71.55,1.08Z"/><path fill="url(#6lpMSdqgJRnX6oLDY9pLHb)" d="M41.66,39.92c-.24.22-.5.42-.75.62a7.31,7.31,0,0,1-3.11,1.68c-.29,0-.59,0-.88.08a1.8,1.8,0,0,0-.1-.24,11.61,11.61,0,0,1-.7-1.62,21.75,21.75,0,0,0-1.9-3.83,18.82,18.82,0,0,0-1.1-1.82c-.31-.46-1-1.15-.1-1.4a1.87,1.87,0,0,1,.94,0,15.12,15.12,0,0,1,6.81,3.62,3.39,3.39,0,0,1,1,1.33A2.26,2.26,0,0,1,41.66,39.92Z"/><ellipse cx="24.21" cy="14.24" fill="url(#6lpMSdqgJRnX6oLDY9pLHh)" rx="4.04" ry="2.12"/><path fill="url(#6lpMSdqgJRnX6oLDY9pLHi)" d="M18,33.7c.27-1.43,2.42-3,4.61-2.57s3.61,2.63,3.33,4.07-2.12,1.54-4.31,1.12S17.72,35.14,18,33.7Z"/><path fill="url(#6lpMSdqgJRnX6oLDY9pLHa)" d="M14.58,4.11a2.13,2.13,0,0,1,4.12.78c-.14.74-1.1.8-2.24.58S14.44,4.85,14.58,4.11Z"/><path fill="url(#6lpMSdqgJRnX6oLDY9pLHj)" d="M45.53,32.37c.16.58-.51,1.54-1.39,1.79a2.2,2.2,0,0,1-2.29-1.07c-.16-.58.62-1.11,1.5-1.36S45.37,31.79,45.53,32.37Z"/><path fill="url(#6lpMSdqgJRnX6oLDY9pLHk)" d="M8.45,15a.48.48,0,0,1,.17-.18.49.49,0,0,1,.38,0,25,25,0,0,0,4.19,1.19.22.22,0,0,1-.13.23.64.64,0,0,1-.28.05l-2.87.13-1.45.06c-.29,0-.82.16-.76-.28S8.22,15.37,8.45,15Z"/><path fill="url(#6lpMSdqgJRnX6oLDY9pLHl)" d="M29.84,44.11a1.31,1.31,0,0,0,.27.57.5.5,0,0,0,.58.13.66.66,0,0,0,.26-.47,9.65,9.65,0,0,0-.39-3.25,15,15,0,0,1,.28-4.51,1.22,1.22,0,0,0,0-.49c-.16-.62-.66-.21-.75.18-.14.61-.23,1.24-.33,1.86A18.1,18.1,0,0,0,29.5,42,10.12,10.12,0,0,0,29.84,44.11Z"/><path fill="url(#6lpMSdqgJRnX6oLDY9pLHm)" d="M12.21,15.59c-.43-.44-3.47-2.22-5.21-3.33a1.67,1.67,0,0,0-1-.36c-.24,0-.63.25-.54.54s.62.44.8.55c.62.4,1.25.79,1.89,1.14a15.23,15.23,0,0,0,2,.92,10.76,10.76,0,0,0,1,.33C11.47,15.45,12.39,15.78,12.21,15.59Z"/></svg>