<svg xmlns="http://www.w3.org/2000/svg" viewBox="0 0 48 48"><radialGradient id="95i8HQkQsXL2NXoeBzqF8a" cx="18.749" cy="17.891" r="29.84" gradientUnits="userSpaceOnUse"><stop offset=".006" stop-color="#b03100"/><stop offset=".132" stop-color="#a42d00"/><stop offset=".477" stop-color="#872400"/><stop offset=".778" stop-color="#761f00"/><stop offset="1" stop-color="#701d00"/></radialGradient><path fill="url(#95i8HQkQsXL2NXoeBzqF8a)" d="M42.821,26.329c0.232,9.42-8.22,15.134-18.821,15.134S4.946,35.749,5.179,26.329 C5.438,15.83,14.723,12.893,19.822,9.663C22.318,8.082,24,6.537,24,6.537s1.843,1.67,4.178,3.125 C33.301,12.857,42.562,15.83,42.821,26.329z"/><path fill="#6e1f00" d="M23.236,40.256c-0.262-1.391-0.444-2.793-0.644-4.194 c-0.167-1.404-0.318-2.81-0.454-4.219c-0.26-2.818-0.405-5.649-0.383-8.49c0.032-2.841,0.257-5.679,0.664-8.481l0.628-4.193 c0.24-1.413,0.657-2.761,0.954-4.141c-0.119,1.411-0.455,2.798-0.559,4.189l-0.368,4.218c-0.228,2.809-0.424,5.609-0.43,8.416 c-0.021,2.806,0.088,5.62,0.197,8.436L23.236,40.256z M20.534,35.724c-0.287-1.413-0.519-2.835-0.699-4.261 c-0.408-2.852-0.537-5.699-0.428-8.575c0.058-1.434,0.136-2.867,0.308-4.291c0.145-1.426,0.367-2.847,0.705-4.24 c0.32-1.398,0.835-2.746,1.46-4.043c0.616-1.303,1.419-2.51,2.121-3.778c-0.783,1.214-1.656,2.378-2.333,3.669 c-0.705,1.274-1.25,2.634-1.703,4.025c-0.87,2.794-1.297,5.709-1.425,8.622c-0.169,2.905,0.027,5.866,0.547,8.728 c0.547,2.862,1.286,5.687,2.376,8.379C21.115,38.552,20.804,37.142,20.534,35.724z M16.812,30.972 c-0.295-1.453-0.521-2.919-0.61-4.39c-0.076-1.465-0.068-2.955,0.047-4.427c0.226-2.936,0.844-5.881,2.36-8.447 c0.764-1.275,1.67-2.47,2.61-3.634c0.923-1.177,1.981-2.26,2.78-3.535c-0.406,0.632-0.94,1.165-1.437,1.724l-1.506,1.673 c-0.989,1.13-1.949,2.295-2.778,3.564c-1.743,2.508-2.619,5.561-2.887,8.582c-0.297,3.018-0.084,6.125,0.674,9.06 c0.758,2.934,1.84,5.78,3.339,8.391C18.297,36.741,17.393,33.883,16.812,30.972z M13.442,30.116 c-0.701-2.99-0.786-6.105-0.355-9.138c0.236-1.506,0.674-2.968,1.372-4.346c0.172-0.345,0.354-0.687,0.542-1.028 c0.183-0.349,0.366-0.681,0.594-0.989c0.446-0.623,0.96-1.207,1.501-1.763c1.082-1.115,2.262-2.141,3.452-3.152l1.789-1.515 c0.577-0.523,1.218-1,1.663-1.647c-0.469,0.627-1.126,1.077-1.722,1.575l-1.841,1.452c-1.222,0.976-2.435,1.969-3.564,3.065 c-0.564,0.548-1.105,1.125-1.588,1.759c-0.47,0.657-0.898,1.298-1.302,1.985c-0.819,1.357-1.423,2.887-1.705,4.464 c-0.548,3.137-0.452,6.398,0.398,9.47c0.861,3.054,2.232,5.95,4.099,8.472C15.295,36.025,14.136,33.118,13.442,30.116z M9.957,29.696c-0.295-1.557-0.304-3.156-0.226-4.766c0.079-1.602,0.346-3.167,0.859-4.692c0.824-3.201,3.303-5.518,5.744-7.629 c1.241-1.055,2.537-2.047,3.846-3.021l1.965-1.462C22.78,7.62,23.491,7.18,24,6.537c-0.525,0.626-1.247,1.045-1.896,1.533 l-2.005,1.406c-1.331,0.946-2.65,1.913-3.919,2.947c-1.266,1.035-2.497,2.126-3.585,3.367c-1.118,1.225-1.891,2.734-2.562,4.233 c-0.682,1.517-1.059,3.193-1.166,4.85c-0.122,1.645-0.085,3.338,0.255,4.987c0.345,1.644,0.993,3.216,1.874,4.627 c0.875,1.41,1.987,2.682,3.313,3.648C12.03,35.786,10.53,32.813,9.957,29.696z M25.409,36.061c0.167-1.404,0.318-2.81,0.454-4.219 c0.26-2.818,0.405-5.649,0.383-8.49c-0.032-2.841-0.257-5.679-0.664-8.481l-0.628-4.193C24.715,9.265,24.297,7.918,24,6.537 c0.119,1.411,0.455,2.798,0.559,4.189l0.368,4.218c0.228,2.809,0.424,5.609,0.43,8.416c0.021,2.806-0.088,5.62-0.197,8.436 l-0.396,8.459C25.026,38.864,25.208,37.462,25.409,36.061z M28.914,31.581c0.52-2.862,0.717-5.823,0.547-8.728 c-0.129-2.912-0.555-5.828-1.425-8.622c-0.453-1.391-0.998-2.751-1.703-4.025C25.656,8.915,24.783,7.751,24,6.537 c0.702,1.268,1.505,2.475,2.121,3.778c0.625,1.296,1.14,2.644,1.46,4.043c0.337,1.393,0.56,2.814,0.705,4.24 c0.172,1.424,0.25,2.857,0.308,4.291c0.109,2.876-0.019,5.723-0.428,8.575c-0.18,1.425-0.412,2.848-0.699,4.261 c-0.27,1.417-0.582,2.828-0.928,4.236C27.627,37.268,28.367,34.443,28.914,31.581z M31.935,31.14 c0.758-2.935,0.971-6.041,0.674-9.06c-0.268-3.021-1.144-6.074-2.887-8.582c-0.829-1.268-1.789-2.433-2.778-3.564l-1.506-1.673 C24.94,7.702,24.406,7.169,24,6.537c0.799,1.275,1.858,2.359,2.78,3.535c0.94,1.164,1.846,2.359,2.61,3.634 c1.515,2.566,2.134,5.511,2.36,8.447c0.116,1.473,0.124,2.963,0.047,4.427c-0.089,1.471-0.315,2.937-0.61,4.39 c-0.58,2.912-1.484,5.769-2.592,8.56C30.095,36.92,31.178,34.074,31.935,31.14z M35.323,30.308c0.85-3.072,0.946-6.334,0.398-9.47 c-0.282-1.578-0.886-3.107-1.705-4.464c-0.404-0.686-0.832-1.328-1.302-1.985c-0.483-0.634-1.024-1.211-1.588-1.759 c-1.129-1.096-2.342-2.089-3.564-3.065l-1.841-1.452C25.126,7.614,24.469,7.164,24,6.537c0.445,0.647,1.086,1.125,1.663,1.647 L27.452,9.7c1.191,1.01,2.37,2.036,3.452,3.152c0.541,0.557,1.054,1.14,1.501,1.763c0.228,0.308,0.411,0.64,0.594,0.989 c0.188,0.341,0.37,0.683,0.542,1.028c0.698,1.378,1.136,2.839,1.372,4.346c0.43,3.033,0.346,6.148-0.355,9.138 c-0.694,3.002-1.853,5.909-3.334,8.664C33.091,36.258,34.463,33.362,35.323,30.308z M37.006,34.488 c0.881-1.411,1.528-2.983,1.874-4.627c0.34-1.649,0.377-3.342,0.255-4.987c-0.107-1.657-0.484-3.333-1.166-4.85 c-0.671-1.499-1.444-3.008-2.562-4.233c-1.088-1.24-2.319-2.331-3.585-3.367c-1.269-1.034-2.588-2-3.919-2.947l-2.005-1.406 C25.247,7.583,24.525,7.163,24,6.537c0.509,0.642,1.22,1.083,1.855,1.589l1.965,1.462c1.309,0.974,2.605,1.966,3.846,3.021 c2.441,2.111,4.92,4.428,5.744,7.629c0.513,1.525,0.78,3.09,0.859,4.692c0.077,1.61,0.068,3.209-0.226,4.766 c-0.573,3.117-2.073,6.09-4.35,8.44C35.019,37.17,36.13,35.899,37.006,34.488z" opacity=".52"/><path fill="#cf8329" d="M28.14,34.343c-2.709,0.788-5.571,0.788-8.279,0c-1.499-0.436-3.23-0.793-4.88-0.793 c-2.371,0-4.532,0.88-6.19,2.323c3.414,3.587,8.935,5.59,15.21,5.59s11.796-2.003,15.21-5.59c-1.658-1.443-3.819-2.323-6.19-2.323 C31.37,33.55,29.639,33.907,28.14,34.343z"/><linearGradient id="95i8HQkQsXL2NXoeBzqF8b" x1="29.583" x2="11.759" y1="42.484" y2="21.378" gradientUnits="userSpaceOnUse"><stop offset="0" stop-color="#290d02" stop-opacity=".3"/><stop offset=".168" stop-color="#300f02" stop-opacity=".231"/><stop offset=".412" stop-color="#431402" stop-opacity=".132"/><stop offset=".702" stop-color="#631d01" stop-opacity=".013"/><stop offset=".734" stop-color="#671e01" stop-opacity="0"/></linearGradient><path fill="url(#95i8HQkQsXL2NXoeBzqF8b)" d="M28.14,34.343c-2.709,0.788-5.571,0.788-8.279,0c-1.499-0.436-3.23-0.793-4.88-0.793 c-2.371,0-4.532,0.88-6.19,2.323c3.414,3.587,8.935,5.59,15.21,5.59s11.796-2.003,15.21-5.59c-1.658-1.443-3.819-2.323-6.19-2.323 C31.37,33.55,29.639,33.907,28.14,34.343z"/><radialGradient id="95i8HQkQsXL2NXoeBzqF8c" cx="13.561" cy="19.952" r="9.908" gradientTransform="matrix(1.0804 -.6828 .4931 .7802 -6.52 11.133)" gradientUnits="userSpaceOnUse"><stop offset="0" stop-color="#ffedc9" stop-opacity=".8"/><stop offset=".601" stop-color="#932900" stop-opacity="0"/><stop offset=".637" stop-color="#9e3f17" stop-opacity="0"/><stop offset=".815" stop-color="#d2a585" stop-opacity="0"/><stop offset=".938" stop-color="#f2e6cb" stop-opacity="0"/><stop offset=".994" stop-color="#ffffe6" stop-opacity="0"/></radialGradient><path fill="url(#95i8HQkQsXL2NXoeBzqF8c)" d="M25.922,12.413c1.725,2.73-0.437,7.193-4.83,9.969s-9.352,2.814-11.077,0.085 s0.437-7.193,4.83-9.969S24.197,9.683,25.922,12.413z" opacity=".9"/></svg>