<svg xmlns="http://www.w3.org/2000/svg" viewBox="0 0 48 48"><radialGradient id="uKa_yoZJWeGKW3xauNe7ba" cx="21.718" cy="8.146" r="19.604" gradientTransform="matrix(-.7787 .6274 .8515 1.0569 15.893 -7.544)" gradientUnits="userSpaceOnUse"><stop offset="0" stop-color="#ebb88b"/><stop offset=".371" stop-color="#b26d3e"/><stop offset=".45" stop-color="#a65d2d"/><stop offset=".59" stop-color="#925027"/><stop offset=".854" stop-color="#723a1d"/><stop offset="1" stop-color="#663219"/></radialGradient><path fill="url(#uKa_yoZJWeGKW3xauNe7ba)" d="M11.461,11.577c0.436-0.525,1.494-1.665,1.494-1.665l25.449,24.66 c-0.425,0.515-1.462,1.523-1.974,1.974c-8.036,7.082-19.204,7.986-26.122,1.068S4.636,19.803,11.461,11.577z"/><path fill="#4d270f" d="M38.32,34.656c3.809-3.809,4.773-9.781,2.515-15.584l-0.552-1.413l-2.558-2.284l-0.85-2.76 l-1.199-1.139C35.13,10.957,34.55,10.461,33.951,10l-1.226-0.943l-1.489-0.263l-1.571-1.396L28.55,6.985 c-5.705-2.109-11.56-1.107-15.284,2.617c-3.033,3.033-4.296,7.429-3.489,12.105l-0.378,2.901l2.721,3.411 c0.854,1.48,2.141,3.483,3.567,4.909c1.846,1.846,3.329,2.539,4.812,3.141c0.29,0.116,0.552,0.221,0.834,0.361 c0.369,0.186,0.744,0.362,1.144,0.529l1.421,0.603l2.57-0.203l3.077,1.144l1.61-0.24C33.89,37.856,36.367,36.609,38.32,34.656z"/><path fill="#fafafa" d="M36.83,33.166c3.209-3.209,3.991-8.316,2.041-13.329l-0.367-0.942l-2.62-2.339l-0.861-2.793 l-0.799-0.76c-0.489-0.464-1.012-0.912-1.558-1.331l-0.818-0.63l-1.566-0.277l-1.72-1.528l-0.744-0.275 c-4.922-1.82-9.928-1.004-13.062,2.131c-2.617,2.617-3.644,6.446-2.847,10.56l-0.305,2.341l2.263,2.837 c0.674,1.18,1.941,3.24,3.309,4.608c1.572,1.572,2.745,2.122,4.115,2.678c0.293,0.118,0.626,0.25,0.985,0.43 c0.33,0.166,0.664,0.322,1.019,0.472l0.95,0.402l2.52-0.199l3.005,1.117l1.073-0.16C33.129,35.838,35.199,34.797,36.83,33.166z"/><linearGradient id="uKa_yoZJWeGKW3xauNe7bb" x1="12.023" x2="34.039" y1="8.781" y2="30.414" gradientUnits="userSpaceOnUse"><stop offset="0" stop-color="#839db1"/><stop offset=".416" stop-color="#adbcc8"/><stop offset="1" stop-color="#e4e5e7"/></linearGradient><path fill="url(#uKa_yoZJWeGKW3xauNe7bb)" d="M33.848,30.185c2.032-2.032,2.435-5.373,1.093-8.819l-2.741-2.447l-0.882-2.861 c-0.386-0.367-0.794-0.715-1.222-1.045l-1.723-0.305l-2.018-1.793c-3.372-1.247-6.646-0.816-8.62,1.158 c-1.666,1.666-2.258,4.251-1.624,7.091l0.07,0.317l-0.168,1.283l1.357,1.701l0.107,0.19c0.932,1.647,1.908,3.033,2.678,3.803 c1.091,1.091,1.774,1.368,2.719,1.752c0.385,0.156,0.821,0.333,1.292,0.57c0.248,0.124,0.503,0.243,0.773,0.357l2.42-0.191 l2.861,1.064C31.627,31.8,32.846,31.188,33.848,30.185z"/></svg>