<svg xmlns="http://www.w3.org/2000/svg" xmlns:xlink="http://www.w3.org/1999/xlink" data-name="Layer 1" viewBox="0 0 48 48"><defs><radialGradient id="36PlPcwDAd_DWeRAlrFr0o" cx="29.54" cy="9.31" r="5.6" xlink:href="#36PlPcwDAd_DWeRAlrFr0b"/><radialGradient id="36PlPcwDAd_DWeRAlrFr0d" cx="29.55" cy="13.91" r="34.28" gradientUnits="userSpaceOnUse"><stop offset="0" stop-color="#f5d68e"/><stop offset=".17" stop-color="#eecd86"/><stop offset=".45" stop-color="#dbb472"/><stop offset=".69" stop-color="#c79a5c"/><stop offset=".88" stop-color="#9a6837"/><stop offset="1" stop-color="#834f24"/></radialGradient><radialGradient id="36PlPcwDAd_DWeRAlrFr0g" cx="11.22" cy="23.7" r="6.25" xlink:href="#36PlPcwDAd_DWeRAlrFr0b"/><radialGradient id="36PlPcwDAd_DWeRAlrFr0i" cx="38.3" cy="22.81" r="7.33" gradientTransform="matrix(.59524 -.80355 .6107 .45239 1.54 43.25)" xlink:href="#36PlPcwDAd_DWeRAlrFr0b"/><radialGradient id="36PlPcwDAd_DWeRAlrFr0k" cx="23.36" cy="20.16" r="6.76" xlink:href="#36PlPcwDAd_DWeRAlrFr0b"/><radialGradient id="36PlPcwDAd_DWeRAlrFr0e" cx="24" cy="24.5" r="22.43" gradientUnits="userSpaceOnUse"><stop offset=".44" stop-color="#9b6636" stop-opacity="0"/><stop offset=".67" stop-color="#9b6636" stop-opacity=".01"/><stop offset=".75" stop-color="#9b6636" stop-opacity=".06"/><stop offset=".81" stop-color="#9b6636" stop-opacity=".13"/><stop offset=".86" stop-color="#9b6636" stop-opacity=".24"/><stop offset=".9" stop-color="#9b6636" stop-opacity=".38"/><stop offset=".94" stop-color="#9b6636" stop-opacity=".56"/><stop offset=".97" stop-color="#9b6636" stop-opacity=".76"/><stop offset="1" stop-color="#9b6636" stop-opacity=".99"/><stop offset="1" stop-color="#9b6636"/></radialGradient><radialGradient id="36PlPcwDAd_DWeRAlrFr0m" cx="16.29" cy="12.13" r="4.66" xlink:href="#36PlPcwDAd_DWeRAlrFr0b"/><radialGradient id="36PlPcwDAd_DWeRAlrFr0b" cx="23.6" cy="30.93" r="7.44" gradientUnits="userSpaceOnUse"><stop offset=".14" stop-color="#644a27"/><stop offset=".31" stop-color="#76592d"/><stop offset=".65" stop-color="#604017"/><stop offset="1" stop-color="#604017"/><stop offset="1" stop-color="#5f4926"/></radialGradient><radialGradient id="36PlPcwDAd_DWeRAlrFr0c" cx="26.66" cy="34.24" r="7.44" gradientUnits="userSpaceOnUse"><stop offset="0" stop-opacity="0"/><stop offset=".19" stop-color="#050301" stop-opacity=".05"/><stop offset=".4" stop-color="#120c04" stop-opacity=".19"/><stop offset=".62" stop-color="#281b0a" stop-opacity=".42"/><stop offset=".85" stop-color="#483011" stop-opacity=".75"/><stop offset="1" stop-color="#604017"/><stop offset="1"/></radialGradient><radialGradient id="36PlPcwDAd_DWeRAlrFr0p" cx="12.04" cy="24.07" r="8.25" xlink:href="#36PlPcwDAd_DWeRAlrFr0c"/><radialGradient id="36PlPcwDAd_DWeRAlrFr0q" cx="35.62" cy="23.13" r="7.33" gradientTransform="matrix(-.28083 -.95976 1.00774 -.29488 22.41 64.1)" xlink:href="#36PlPcwDAd_DWeRAlrFr0c"/><radialGradient id="36PlPcwDAd_DWeRAlrFr0r" cx="25.38" cy="20.81" r="6.85" xlink:href="#36PlPcwDAd_DWeRAlrFr0c"/><radialGradient id="36PlPcwDAd_DWeRAlrFr0s" cx="15.41" cy="12.44" r="7.13" xlink:href="#36PlPcwDAd_DWeRAlrFr0c"/><radialGradient id="36PlPcwDAd_DWeRAlrFr0t" cx="31.23" cy="10" r="7.16" xlink:href="#36PlPcwDAd_DWeRAlrFr0c"/><linearGradient id="36PlPcwDAd_DWeRAlrFr0j" x1="25.22" x2="25.22" y1="21.33" y2="26.4" xlink:href="#36PlPcwDAd_DWeRAlrFr0a"/><linearGradient id="36PlPcwDAd_DWeRAlrFr0f" x1="12.74" x2="12.74" y1="24.66" y2="32.72" xlink:href="#36PlPcwDAd_DWeRAlrFr0a"/><linearGradient id="36PlPcwDAd_DWeRAlrFr0a" x1="25.27" x2="25.27" y1="33.82" y2="43.22" gradientUnits="userSpaceOnUse"><stop offset="0" stop-color="#c29358"/><stop offset="1" stop-color="#f7da91"/></linearGradient><linearGradient id="36PlPcwDAd_DWeRAlrFr0h" x1="36.49" x2="36.49" y1="19.88" y2="29.06" xlink:href="#36PlPcwDAd_DWeRAlrFr0a"/><linearGradient id="36PlPcwDAd_DWeRAlrFr0n" x1="31.48" x2="31.48" y1="8.75" y2="14.76" xlink:href="#36PlPcwDAd_DWeRAlrFr0a"/><linearGradient id="36PlPcwDAd_DWeRAlrFr0u" x1="26.79" x2="15.21" y1="23.15" y2="41.81" gradientUnits="userSpaceOnUse"><stop offset="0" stop-color="#9b6636" stop-opacity="0"/><stop offset="1" stop-color="#9b6636"/></linearGradient><linearGradient id="36PlPcwDAd_DWeRAlrFr0l" x1="16.62" x2="16.62" y1="11.76" y2="17.88" xlink:href="#36PlPcwDAd_DWeRAlrFr0a"/></defs><path fill="url(#36PlPcwDAd_DWeRAlrFr0d)" d="M44.25,24.38a26.48,26.48,0,0,1-.32,4,19,19,0,0,1-3.19,8.11C37,41.61,31.45,43,25.65,44.09c-3.05.59-7.88-.35-10.65-1.66a27.43,27.43,0,0,1-4.64-2.64,12.49,12.49,0,0,1-3-3.09,21.71,21.71,0,0,1-3.16-8.08,23.83,23.83,0,0,1-.47-4.25q0-.77,0-1.53C4,15.71,7.58,9.29,14.65,6.39A26.16,26.16,0,0,1,29,5.21c7.44,1.28,13.42,6.09,14.81,13.93A30,30,0,0,1,44.25,24.38Z"/><g opacity=".16"><path fill="#f7da91" fill-rule="evenodd" d="M28.91,18.49a.5.5,0,0,1,0,1C28.17,19.23,28.94,19,28.91,18.49Z"/><path fill="#f7da91" fill-rule="evenodd" d="M34.37,25.81c1.08.23.57,2.91-1,1.94C33.36,26.77,34.69,27.17,34.37,25.81Z"/><path fill="#f7da91" fill-rule="evenodd" d="M33,23.3c.48,0,.36.61.46,1C33,24.27,33.07,23.68,33,23.3Z"/><path fill="#f7da91" fill-rule="evenodd" d="M32.38,26.24c.48,0,.36.62.46,1C32.37,27.21,32.48,26.63,32.38,26.24Z"/><path fill="#f7da91" fill-rule="evenodd" d="M32.44,24.27l0,1-1,0,0-1Z"/><path fill="#f7da91" fill-rule="evenodd" d="M30.33,28.65c1.61.77-2,1.17,0,0Z"/><path fill="#f7da91" fill-rule="evenodd" d="M29.63,35.54c1.46.78-.43,2.2-1.54,1.93C27.9,34.95,29.83,37.51,29.63,35.54Z"/><path fill="#f7da91" fill-rule="evenodd" d="M31.48,33.67c-.31,1-.8,1-1.49.45l0-1A2.32,2.32,0,0,0,31.48,33.67Z"/><path fill="#f7da91" fill-rule="evenodd" d="M26.76,32.48c-.75,2.87-2.27-1.86,0,0Z"/><path fill="#f7da91" fill-rule="evenodd" d="M25,40.33c1.93.63-2,.51,0,0Z"/><path fill="#f7da91" fill-rule="evenodd" d="M28.22,24.52l0,1c-.91-1-1.24-.09-2.47-.08-.12-1.14,1.44-.5,1.53-1.43C27.64,24.1,27.72,24.5,28.22,24.52Z"/><path fill="#f7da91" fill-rule="evenodd" d="M30.61,40.77c-.11,1.22-1.67.09-2-.06.14-.53,1-.3,1-1C30.19,39.89,30,40.75,30.61,40.77Z"/><path fill="#f7da91" fill-rule="evenodd" d="M23.62,38.31c1.93.63-2,.51,0,0Z"/><path fill="#f7da91" fill-rule="evenodd" d="M23.27,33.36a.5.5,0,0,1,0,1C22.53,34.11,23.31,33.92,23.27,33.36Z"/><path fill="#f7da91" fill-rule="evenodd" d="M21.58,40.22c1.93.63-2,.51,0,0Z"/><path fill="#f7da91" fill-rule="evenodd" d="M21.27,34.29c.2,1.06-.73.92-1.51.94.11-.4.51-.48.52-1Z"/><path fill="#f7da91" fill-rule="evenodd" d="M18.65,28c-.19.64-.89.75-1,1.45C16.4,29.17,17.65,27.5,18.65,28Z"/><path fill="#f7da91" fill-rule="evenodd" d="M19.64,40.38c-.18,1-1,1.28-1.54,1.93C16.87,41.78,18.56,40.14,19.64,40.38Z"/><path fill="#f7da91" fill-rule="evenodd" d="M14.83,35.08c1.14,1.69-1.62-1.24,0,0Z"/><path fill="#f7da91" fill-rule="evenodd" d="M14.41,32.59c.48,0,.36.62.46,1C14.4,33.57,14.51,33,14.41,32.59Z"/><path fill="#f7da91" fill-rule="evenodd" d="M13,29.59c.48,0,.36.62.46,1C13,30.56,13.12,30,13,29.59Z"/><path fill="#f7da91" fill-rule="evenodd" d="M11.67,25.6c.48,0,.36.62.46,1C11.65,26.57,11.77,26,11.67,25.6Z"/><path fill="#f7da91" fill-rule="evenodd" d="M11.08,28.54c.48,0,.36.62.46,1C11.07,29.51,11.18,28.93,11.08,28.54Z"/><path fill="#f7da91" fill-rule="evenodd" d="M11.51,30.53l0,1-1,0,0-1Z"/><path fill="#f7da91" fill-rule="evenodd" d="M10.16,26.54c.58.1.39.91.45,1.5C10,27.94,10.22,27.12,10.16,26.54Z"/><path fill="#f7da91" fill-rule="evenodd" d="M9.5,31.95c1.93.63-2,.51,0,0Z"/><path fill="#f7da91" fill-rule="evenodd" d="M9.25,24a.5.5,0,0,1,0,1C8.51,24.79,9.28,24.6,9.25,24Z"/><path fill="#f7da91" fill-rule="evenodd" d="M6.66,26a.5.5,0,0,1,0,1C5.92,26.79,6.7,26.6,6.66,26Z"/><path fill="#f7da91" fill-rule="evenodd" d="M40,14.48c1.39,1-1.94,1.29-2.53,1.9-.53-.14-.3-1-1-1C36.72,14.79,39.12,15.64,40,14.48Z"/><path fill="#f7da91" fill-rule="evenodd" d="M28.81,30.08c-1.18-1.34,1.51-2.81,0,0Z"/><path fill="#f7da91" fill-rule="evenodd" d="M21.16,21.94c-.08.93-1.64.29-1.53,1.43C18.6,23.19,20.21,21.68,21.16,21.94Z"/><path fill="#f7da91" fill-rule="evenodd" d="M18.71,21.37c-1,.23-1-2-.48-.51C19.28,20.34,19.29,20.37,18.71,21.37Z"/><path fill="#f7da91" fill-rule="evenodd" d="M18,28.26c-.56-.75-2-.64-1.91-2C16.65,27,18.12,26.87,18,28.26Z"/><path fill="#f7da91" fill-rule="evenodd" d="M13.24,38.48c-1.67-.47.39-2.53-1.88-3C10.6,34.32,14.29,36.27,13.24,38.48Z"/><path fill="#f7da91" fill-rule="evenodd" d="M30.35,24.1c1.32,1.54-1.95-.59,0,0Z"/><path fill="#f7da91" fill-rule="evenodd" d="M31,20.4c.45.44-.12,1.09-.54.83C30,20.65,30.74,20.89,31,20.4Z"/><path fill="#f7da91" fill-rule="evenodd" d="M37.09,9.55c1.32,1.54-1.94-.59,0,0Z"/><path fill="#f7da91" fill-rule="evenodd" d="M21.63,15.11c-1.51,1.71-2.28-2,0,0Z"/><path fill="#f7da91" fill-rule="evenodd" d="M23.52,25.54c.39.27,0,.71-.13,1.1C23,26.36,23.4,25.92,23.52,25.54Z"/><path fill="#f7da91" fill-rule="evenodd" d="M28.7,11.35c.94.52-.77,1.59-.94,2.34A1.58,1.58,0,0,1,28.7,11.35Z"/><path fill="#f7da91" fill-rule="evenodd" d="M15.92,18.22c1.32,1.54-1.95-.59,0,0Z"/><path fill="#f7da91" fill-rule="evenodd" d="M16.18,16c.94,2.08-1.76-.29,0,0Z"/><path fill="#f7da91" fill-rule="evenodd" d="M14.15,9.79c.91.36-.63,2.28-1.22,1l.54-.83C13.77,10.23,14,10,14.15,9.79Z"/><path fill="#f7da91" fill-rule="evenodd" d="M7.53,16.4c.44.38-.14,1-.4,1.51C6.7,17.53,7.28,16.93,7.53,16.4Z"/><path fill="#f7da91" fill-rule="evenodd" d="M11.83,19.08c-2.25.71-.57-2.16,0,0Z"/><path fill="#f7da91" fill-rule="evenodd" d="M30.45,37.86c1.32,1.54-1.95-.59,0,0Z"/><path fill="#f7da91" fill-rule="evenodd" d="M29.06,36.37c1.32,1.54-1.94-.59,0,0Z"/><path fill="#f7da91" fill-rule="evenodd" d="M34.85,26.6c.39.27,0,.72-.13,1.1C34.33,27.42,34.74,27,34.85,26.6Z"/><path fill="#f7da91" fill-rule="evenodd" d="M42.11,23.58c.94,2.08-1.76-.29,0,0Z"/><path fill="#f7da91" fill-rule="evenodd" d="M24.32,40.93c-1.34,1.68-2.11-2,0,0Z"/><path fill="#f7da91" fill-rule="evenodd" d="M27.12,33.92c1.32,1.54-1.95-.59,0,0Z"/><path fill="#f7da91" fill-rule="evenodd" d="M33.65,38.58c-.44-2.48,2.5-1.36,0,0Z"/><path fill="#f7da91" fill-rule="evenodd" d="M22.5,37.39c.4.27,0,.72-.13,1.1C22,38.21,22.39,37.77,22.5,37.39Z"/><path fill="#f7da91" fill-rule="evenodd" d="M30.31,23.63c.94,2.08-1.76-.29,0,0Z"/><path fill="#f7da91" fill-rule="evenodd" d="M41.26,27.84c.94,2.08-1.76-.29,0,0Z"/><path fill="#f7da91" fill-rule="evenodd" d="M33.57,31.39c-2.13,2.06-1-2.77,0,0Z"/><path fill="#f7da91" fill-rule="evenodd" d="M21.61,29.73c.45.44-.12,1.09-.54.83C20.59,30,21.35,30.22,21.61,29.73Z"/><path fill="#f7da91" fill-rule="evenodd" d="M16.63,38.27l-.54.83c-1-.38-.4-1.1,0-1.78C16.35,37.61,16.21,38,16.63,38.27Z"/><path fill="#f7da91" fill-rule="evenodd" d="M39.66,19.45c-.17.74-2.27,0-1.22,1-2.42.12.23-2.22.38-3.29C40.38,17.63,38.5,18.86,39.66,19.45Z"/><path fill="#f7da91" fill-rule="evenodd" d="M15,37.19c1.32,1.54-1.95-.59,0,0Z"/><path fill="#f7da91" fill-rule="evenodd" d="M15.84,14.77c-1.55-.51-.85-1.48-1.53-2.18C15.26,11.86,17.14,13.86,15.84,14.77Z"/><path fill="#f7da91" fill-rule="evenodd" d="M20.33,25.37c.73,2-2.78-.39,0,0Z"/><path fill="#f7da91" fill-rule="evenodd" d="M22.22,22.47c-2.25.71-.57-2.16,0,0Z"/><path fill="#f7da91" fill-rule="evenodd" d="M21.79,20.42c1,1.5-2.28,0,0,0Z"/><path fill="#f7da91" fill-rule="evenodd" d="M20,22.22c.45.44-.12,1.09-.54.83C19,22.47,19.77,22.71,20,22.22Z"/><path fill="#f7da91" fill-rule="evenodd" d="M12.41,7.67c.39.27,0,.71-.13,1.1C11.89,8.5,12.29,8.05,12.41,7.67Z"/><path fill="#f7da91" fill-rule="evenodd" d="M11.31,13.19c-.29.17-2.07.92-1.08,1.65-.81.67-2.16-1.25-2.73.57-.74-.94,1.27-2.82,2.18-1.53.24-.64-.81-1-1.38-1.49C9,11.38,10.21,12.48,11.31,13.19Z"/><path fill="#f7da91" fill-rule="evenodd" d="M11.35,30.1c.09,2-.73-1.9,0,0Z"/><path fill="#f7da91" fill-rule="evenodd" d="M14.17,24.88c.86,2.07-2.2-.44-2.59,1.26C10.05,23.89,13.14,24.95,14.17,24.88Z"/><path fill="#f7da91" fill-rule="evenodd" d="M15.64,7.49c.71,2.25-2.16.57,0,0Z"/><path fill="#f7da91" fill-rule="evenodd" d="M8.61,30.68c.45.44-.12,1.09-.54.83C7.59,30.93,8.35,31.17,8.61,30.68Z"/><path fill="#f7da91" fill-rule="evenodd" d="M12.91,22.29c1.32,1.55-1.95-.59,0,0Z"/><path fill="#f7da91" fill-rule="evenodd" d="M20.45,19.41c-.31-1.75,2.76-1.62,0,0Z"/><path fill="#f7da91" fill-rule="evenodd" d="M36,34.6c-.46.38-1.41.57-1.1-.13-.64-.24-1,.81-1.49,1.38a2.17,2.17,0,0,1,.25-2.19C34.5,34.48,35,33.49,36,34.6Z"/><path fill="#f7da91" fill-rule="evenodd" d="M40.24,31.09c1.29,1.55-3.6,1-1.92-.67C38.51,31.32,39.5,32,40.24,31.09Z"/><path fill="#f7da91" fill-rule="evenodd" d="M39.47,28.72c-.74,2.15-2.84-2.21-3.42.72-1.09-.72-2.46-1.38-2.62-2.3C35.44,27.62,37.43,28.09,39.47,28.72Z"/><path fill="#f7da91" fill-rule="evenodd" d="M37.86,23.9c-1-2.74.52-.68,1-1.74q-1.34,1.45.47,2.13c-.48.53-1.33-.66-1.78,0C37.18,23.92,37.63,23.75,37.86,23.9Z"/><path fill="#f7da91" fill-rule="evenodd" d="M25.23,36.82c1.84-.61-1.23.89-.13,1.1-.38.42-.56,0-.41-.27-.3-.31-.5-.09-.68.14C22.91,36.49,25,37.27,25.23,36.82Z"/><path fill="#f7da91" fill-rule="evenodd" d="M22.52,39.17c2-.31-1.95.52,0,0Z"/><path fill="#f7da91" fill-rule="evenodd" d="M21.28,38.36a16.13,16.13,0,0,0-4-.24C19.13,37.16,19.62,37.58,21.28,38.36Z"/><path fill="#f7da91" fill-rule="evenodd" d="M35.4,17.74c-.14-1.65-2.18-1.24-1.26-2.59C34.61,16,36.37,16.58,35.4,17.74Z"/><path fill="#f7da91" fill-rule="evenodd" d="M32.51,11c.8-.71,1.17,1.61,2.21,2-.48.19-3.17-.55-1.22,1-1.06,1.36-1.09-.76-1.78,0C31,13.57,34.2,12,32.51,11Z"/><path fill="#f7da91" fill-rule="evenodd" d="M23.91,27.11c.44.38-.14,1-.4,1.51-.2-.49-.41-1-.83-.54C21.64,27.07,23.74,27.85,23.91,27.11Z"/><path fill="#f7da91" fill-rule="evenodd" d="M28.61,21.16c-1.2-.07-2.22.77-3.56,0,0-.59-.67-1,0-1.78C25.23,21.78,26.82,20.09,28.61,21.16Z"/><path fill="#f7da91" fill-rule="evenodd" d="M29.69,16.94c1.93.63-2,.51,0,0Z"/><path fill="#f7da91" fill-rule="evenodd" d="M38.64,10.91c1.08.23.57,2.91-1,1.94C37.63,11.87,39,12.27,38.64,10.91Z"/><path fill="#f7da91" fill-rule="evenodd" d="M33.65,8.39c-.35,0-.41-.35-.44-.65l.35.16A2.62,2.62,0,0,0,33.65,8.39Z"/><path fill="#f7da91" fill-rule="evenodd" d="M26.22,17.33c.48,0,.36.62.46,1C26.2,18.3,26.32,17.71,26.22,17.33Z"/><path fill="#f7da91" fill-rule="evenodd" d="M26.28,15.36l0,1-1,0,0-1Z"/><path fill="#f7da91" fill-rule="evenodd" d="M19.42,13.7v.46a1.47,1.47,0,0,0-.52-.38Z"/><path fill="#f7da91" fill-rule="evenodd" d="M11.85,19.36a.83.83,0,0,0-.22-.22,4.83,4.83,0,0,0-.9-.52s0,0-.05,0l.41-.52h0a1.18,1.18,0,0,1,.71,1A.84.84,0,0,1,11.85,19.36Z"/><path fill="#f7da91" fill-rule="evenodd" d="M24.19,15.19c1.32,1.54-1.95-.59,0,0Z"/><path fill="#f7da91" fill-rule="evenodd" d="M17.43,5.37c.39.27,0,.71-.13,1.1C16.91,6.19,17.32,5.75,17.43,5.37Z"/><path fill="#f7da91" fill-rule="evenodd" d="M33.21,19.82a1,1,0,0,1-.27.22c-.27.16-.57.16-.79.49A1.67,1.67,0,0,1,32,19.44a4.78,4.78,0,0,1,.27-.82A13.43,13.43,0,0,1,33.21,19.82Z"/><path fill="#f7da91" fill-rule="evenodd" d="M32,12.74c-.1.47-.66.27-1.06.3C31,12.57,31.56,12.78,32,12.74Z"/><path fill="#f7da91" fill-rule="evenodd" d="M24.15,14.72c.94,2.08-1.76-.29,0,0Z"/><path fill="#f7da91" fill-rule="evenodd" d="M22.56,11.73c-2.13,2.06-1-2.77,0,0Z"/><path fill="#f7da91" fill-rule="evenodd" d="M18.25,9c-.22.05-.24.16.14.54a3.13,3.13,0,0,1-.54,0l0,0c-.9-.19-.24-1.12.35-2a7.79,7.79,0,0,1,1.25-.46c0,.54-.57,1.2.19,1.61C19.5,9,18.6,8.87,18.25,9Z"/><path fill="#f7da91" fill-rule="evenodd" d="M41,20.5c.73,2-2.78-.39,0,0Z"/><path fill="#f7da91" fill-rule="evenodd" d="M30.38,7.51c-.74,2.15-2.84-2.21-3.42.72-1.09-.72-2.46-1.38-2.62-2.3C26.34,6.41,28.34,6.87,30.38,7.51Z"/><path fill="#f7da91" fill-rule="evenodd" d="M26.74,10c-1-2.74.52-.68,1-1.74q-1.34,1.45.47,2.13c-.48.53-1.33-.66-1.78,0C26.06,10,26.51,9.81,26.74,10Z"/><path fill="#f7da91" fill-rule="evenodd" d="M23,5.4c.8-.71,1.17,1.61,2.21,2-.48.19-3.17-.55-1.22,1-1.06,1.36-1.09-.76-1.78,0C21.47,8,24.7,6.46,23,5.4Z"/><path fill="#f7da91" fill-rule="evenodd" d="M37.17,36.54c.44.38-.14,1-.4,1.51-.2-.49-.41-1-.83-.54C34.9,36.5,37,37.28,37.17,36.54Z"/><path fill="#f7da91" fill-rule="evenodd" d="M10.54,21.9c-.9,0-1.69.41-2.58.3a2.43,2.43,0,0,1-1-.27v0c0-.46-.38-.82-.24-1.31A2.45,2.45,0,0,1,7,20.35a1.48,1.48,0,0,0,.38,1,1.51,1.51,0,0,0,1,.22A3.51,3.51,0,0,1,10.54,21.9Z"/><path fill="#f7da91" fill-rule="evenodd" d="M14,30.63c-.66.88-.69-1.22-2.07-1.35C13.28,28.6,13.6,29.52,14,30.63Z"/><path fill="#f7da91" fill-rule="evenodd" d="M19.82,32.19c.53.49-1.72,1.81-2.73.57C18,32.43,18.94,32.52,19.82,32.19Z"/></g><path fill="url(#36PlPcwDAd_DWeRAlrFr0e)" d="M44.25,24.38a26.48,26.48,0,0,1-.32,4,19,19,0,0,1-3.19,8.11C37,41.61,31.45,43,25.65,44.09c-3.05.59-7.88-.35-10.65-1.66a27.43,27.43,0,0,1-4.64-2.64,12.49,12.49,0,0,1-3-3.09,21.71,21.71,0,0,1-3.16-8.08,23.83,23.83,0,0,1-.47-4.25q0-.77,0-1.53C4,15.71,7.58,9.29,14.65,6.39A26.16,26.16,0,0,1,29,5.21c7.44,1.28,13.42,6.09,14.81,13.93A30,30,0,0,1,44.25,24.38Z"/><path fill="url(#36PlPcwDAd_DWeRAlrFr0a)" d="M25.08,38.93a4.3,4.3,0,0,1-.9-.09,2.49,2.49,0,0,1-1.68-1.13,6.16,6.16,0,0,1,.26-4.51A2.58,2.58,0,0,1,25,32a3.07,3.07,0,0,1,2.14.81,4.91,4.91,0,0,1,1.1,3,2.83,2.83,0,0,1-.51,2.42,2.72,2.72,0,0,1-1.79.63C25.69,38.9,25.38,38.93,25.08,38.93Z"/><path fill="url(#36PlPcwDAd_DWeRAlrFr0b)" d="M22.92,37.47a2,2,0,0,0,1.36.9,5.76,5.76,0,0,0,1.67,0,2.33,2.33,0,0,0,1.49-.49,2.38,2.38,0,0,0,.37-2,4.46,4.46,0,0,0-1-2.7c-.92-.92-2.95-1-3.67.26A5.79,5.79,0,0,0,22.92,37.47Z"/><path fill="url(#36PlPcwDAd_DWeRAlrFr0f)" d="M13.71,29.33a6.45,6.45,0,0,1-.75-.06,4.33,4.33,0,0,1-2.34-.77,4.18,4.18,0,0,1-1.17-3.19,1.47,1.47,0,0,1,.82-1.24,2.51,2.51,0,0,1,1.07-.2h.16a6.25,6.25,0,0,1,3.56,1.18,2.76,2.76,0,0,1,.68.71,2.4,2.4,0,0,1-.18,2.61,2.24,2.24,0,0,1-.83.74,2.29,2.29,0,0,1-1,.22Z"/><path fill="url(#36PlPcwDAd_DWeRAlrFr0g)" d="M10.92,28.13a3.93,3.93,0,0,0,2.09.66,2.7,2.7,0,0,0,1.52-.11,1.78,1.78,0,0,0,.65-.59A1.93,1.93,0,0,0,15.34,26a2.26,2.26,0,0,0-.57-.58,5.74,5.74,0,0,0-3.29-1.08,2.22,2.22,0,0,0-1,.15C9.32,25.05,10.17,27.51,10.92,28.13Z"/><path fill="url(#36PlPcwDAd_DWeRAlrFr0h)" d="M36.27,28a2.31,2.31,0,0,1-2.21-1.8c-.22-.78-.66-2.69-.08-3.58a2,2,0,0,1,.6-.56,9.74,9.74,0,0,1,1.47-.81,2.72,2.72,0,0,1,1.1-.28,1.59,1.59,0,0,1,.38,0A2.2,2.2,0,0,1,39,22.64a5.08,5.08,0,0,1,.18,2.83,3.42,3.42,0,0,1-1.82,2.3A2.54,2.54,0,0,1,36.27,28Z"/><path fill="url(#36PlPcwDAd_DWeRAlrFr0i)" d="M34.39,22.9a1.6,1.6,0,0,1,.47-.43,9.21,9.21,0,0,1,1.39-.77,1.86,1.86,0,0,1,1.17-.21,1.8,1.8,0,0,1,1.1,1.3,4.62,4.62,0,0,1,.17,2.56,3,3,0,0,1-1.55,2,1.81,1.81,0,0,1-2.61-1.24C34.31,25.31,33.94,23.58,34.39,22.9Z"/><path fill="url(#36PlPcwDAd_DWeRAlrFr0j)" d="M25.59,25.56a5.5,5.5,0,0,1-2.4-.55,2.36,2.36,0,0,1-1.14-1,2.23,2.23,0,0,1-.11-1.58,2.09,2.09,0,0,1,2.17-1.76,4.36,4.36,0,0,1,.76.07,14.89,14.89,0,0,1,1.77.44,3.21,3.21,0,0,1,1.34.71,2,2,0,0,1,.3,2.49,2.8,2.8,0,0,1-2.22,1.16Z"/><path fill="url(#36PlPcwDAd_DWeRAlrFr0k)" d="M22.41,22.54a1.8,1.8,0,0,0,.07,1.24,1.94,1.94,0,0,0,.92.79,5,5,0,0,0,2.63.49,2.38,2.38,0,0,0,1.86-.94,1.57,1.57,0,0,0-.23-1.9,2.77,2.77,0,0,0-1.15-.59,14.3,14.3,0,0,0-1.72-.42C23.59,21,22.72,21.27,22.41,22.54Z"/><path fill="url(#36PlPcwDAd_DWeRAlrFr0l)" d="M16.38,17a6,6,0,0,1-2-.33,1.13,1.13,0,0,1-.49-.29c-.67-.73-.14-2.28.23-2.78a3.19,3.19,0,0,1,2.41-1.06,3.31,3.31,0,0,1,2.56,1.22,1.92,1.92,0,0,1,.38,2,2,2,0,0,1-1.36,1,6,6,0,0,1-1.77.27Z"/><path fill="url(#36PlPcwDAd_DWeRAlrFr0m)" d="M14.28,16a.68.68,0,0,0,.29.16,5.59,5.59,0,0,0,3.44.06,1.63,1.63,0,0,0,1.06-.75,1.44,1.44,0,0,0-.32-1.45,2.84,2.84,0,0,0-2.18-1,2.73,2.73,0,0,0-2,.86C14.2,14.34,13.87,15.6,14.28,16Z"/><path fill="url(#36PlPcwDAd_DWeRAlrFr0n)" d="M32.54,14.21h-.42a5.26,5.26,0,0,1-2.54-.62c-1.36-.84-1.26-1.83-1.15-2.21A2.56,2.56,0,0,1,31,9.76a3.16,3.16,0,0,1,.59.06,4.31,4.31,0,0,1,2.49,1.56,1.88,1.88,0,0,1,.52,1.54,1.61,1.61,0,0,1-1.11,1.17A2.82,2.82,0,0,1,32.54,14.21Z"/><path fill="url(#36PlPcwDAd_DWeRAlrFr0o)" d="M29.83,13.16a4.83,4.83,0,0,0,2.31.55,3.11,3.11,0,0,0,1.17-.09,1.14,1.14,0,0,0,.79-.8,1.47,1.47,0,0,0-.42-1.15,3.85,3.85,0,0,0-2.21-1.39C29.52,9.91,27.65,11.82,29.83,13.16Z"/><path fill="url(#36PlPcwDAd_DWeRAlrFr0c)" d="M22.92,37.47a2,2,0,0,0,1.36.9,5.76,5.76,0,0,0,1.67,0,2.33,2.33,0,0,0,1.49-.49,2.38,2.38,0,0,0,.37-2,4.46,4.46,0,0,0-1-2.7c-.92-.92-2.95-1-3.67.26A5.79,5.79,0,0,0,22.92,37.47Z"/><path fill="url(#36PlPcwDAd_DWeRAlrFr0p)" d="M10.92,28.13a3.93,3.93,0,0,0,2.09.66,2.7,2.7,0,0,0,1.52-.11,1.78,1.78,0,0,0,.65-.59A1.93,1.93,0,0,0,15.34,26a2.26,2.26,0,0,0-.57-.58,5.74,5.74,0,0,0-3.29-1.08,2.22,2.22,0,0,0-1,.15C9.32,25.05,10.17,27.51,10.92,28.13Z"/><path fill="url(#36PlPcwDAd_DWeRAlrFr0q)" d="M34.39,22.9a1.6,1.6,0,0,1,.47-.43,9.21,9.21,0,0,1,1.39-.77,1.86,1.86,0,0,1,1.17-.21,1.8,1.8,0,0,1,1.1,1.3,4.62,4.62,0,0,1,.17,2.56,3,3,0,0,1-1.55,2,1.81,1.81,0,0,1-2.61-1.24C34.31,25.31,33.94,23.58,34.39,22.9Z"/><path fill="url(#36PlPcwDAd_DWeRAlrFr0r)" d="M22.41,22.54a1.8,1.8,0,0,0,.07,1.24,1.94,1.94,0,0,0,.92.79,5,5,0,0,0,2.63.49,2.38,2.38,0,0,0,1.86-.94,1.57,1.57,0,0,0-.23-1.9,2.77,2.77,0,0,0-1.15-.59,14.3,14.3,0,0,0-1.72-.42C23.59,21,22.72,21.27,22.41,22.54Z"/><path fill="url(#36PlPcwDAd_DWeRAlrFr0s)" d="M14.28,16a.68.68,0,0,0,.29.16,5.59,5.59,0,0,0,3.44.06,1.63,1.63,0,0,0,1.06-.75,1.44,1.44,0,0,0-.32-1.45,2.84,2.84,0,0,0-2.18-1,2.73,2.73,0,0,0-2,.86C14.2,14.34,13.87,15.6,14.28,16Z"/><path fill="url(#36PlPcwDAd_DWeRAlrFr0t)" d="M29.83,13.16a4.83,4.83,0,0,0,2.31.55,3.11,3.11,0,0,0,1.17-.09,1.14,1.14,0,0,0,.79-.8,1.47,1.47,0,0,0-.42-1.15,3.85,3.85,0,0,0-2.21-1.39C29.52,9.91,27.65,11.82,29.83,13.16Z"/><path fill="url(#36PlPcwDAd_DWeRAlrFr0u)" d="M43.93,28.36a19,19,0,0,1-3.19,8.11C37,41.61,31.45,43,25.65,44.09c-3.05.59-7.88-.35-10.65-1.66a27.43,27.43,0,0,1-4.64-2.64,12.49,12.49,0,0,1-3-3.09,21.71,21.71,0,0,1-3.16-8.08,23.83,23.83,0,0,1-.47-4.25,2.48,2.48,0,0,1,1.85,2c.16.72.14,1.47.23,2.2A6.81,6.81,0,0,0,7.44,32a8.39,8.39,0,0,1,1.45,1.77c.37.78.39,1.79,1.09,2.28s1.44.25,2.13.49A4,4,0,0,1,13.8,38c1.08,1.3,2.72,2.57,4.33,2a4.2,4.2,0,0,1,1.46-.49,2.67,2.67,0,0,1,1.33.69,6.35,6.35,0,0,0,6.65.39,6.09,6.09,0,0,1,2.66-1.2c.46,0,.92.13,1.39.14A1.15,1.15,0,0,0,32.75,39a2.55,2.55,0,0,0,0-.78c0-1,1.24-1.84,2-1.24.27.21.43.54.73.69.7.35,1.41-.51,1.57-1.28s.16-1.68.8-2.13,1.58-.16,2.29-.51,1-1.55,1.33-2.46A5.23,5.23,0,0,1,43.93,28.36Z"/><path fill="#f7da91" d="M29.59,18.61a1.57,1.57,0,0,0-1.81-.48c-.45-.09-.61-.51-.85-.7a1.71,1.71,0,0,0-1-.36,8.32,8.32,0,0,0-2.61.47,6.15,6.15,0,0,1-2.79.3c-.45-.08-.82-.28-1.14-.36a2.92,2.92,0,0,0-1,0,3.29,3.29,0,0,1-1.52-.26c-.33-.15-.49-.28-.47-.31a5,5,0,0,0,2,.26,3,3,0,0,1,1.09-.05c.4.08.75.26,1.14.32a6.12,6.12,0,0,0,2.6-.32A8,8,0,0,1,26,16.68a2,2,0,0,1,1.19.49c.3.3.44.63.67.66s.58-.11.84,0a1.35,1.35,0,0,1,.62.31C29.58,18.39,29.61,18.61,29.59,18.61Z"/><path fill="#f7da91" d="M34.51,17.45c0-.06.24-.25.6-.61a2.8,2.8,0,0,0,.54-.67.61.61,0,0,0,.06-.4,1.61,1.61,0,0,1-.11-.66.56.56,0,0,1,.27-.36,1.05,1.05,0,0,0,.19-.12s0-.23,0-.36a1.47,1.47,0,0,0-.34-.74c-.31-.38-.65-.45-.63-.52s.4-.09.85.31a1.61,1.61,0,0,1,.51.89.87.87,0,0,1-.09.7c-.24.22-.38.24-.37.31a2.12,2.12,0,0,0,.1.49,1,1,0,0,1-.13.66,2.5,2.5,0,0,1-.69.72C34.86,17.4,34.53,17.5,34.51,17.45Z"/><path fill="#9b6636" d="M13.06,34.46s-.06-.16-.15-.45-.24-.74-.69-.81l-.42,0a.57.57,0,0,1-.5-.36,1.63,1.63,0,0,1,0-.55.26.26,0,0,0-.14-.27,7,7,0,0,1-1-.47,3.45,3.45,0,0,1-.93-.87A2.73,2.73,0,0,1,9,30.37a.51.51,0,0,1,0-.48.89.89,0,0,0,.14-.47,1.91,1.91,0,0,0-.31-.95,3.08,3.08,0,0,1-.7-1.83,1.9,1.9,0,0,1,.54-1.22c.23-.22.4-.28.41-.26a2.35,2.35,0,0,0-.65,1.49,3,3,0,0,0,.73,1.62,2.24,2.24,0,0,1,.39,1.15,1.31,1.31,0,0,1-.17.65c0,.07,0,0,0,.1l.15.23a3.15,3.15,0,0,0,.82.77,9.18,9.18,0,0,0,1,.49.66.66,0,0,1,.31.61,1.78,1.78,0,0,0,0,.43c0,.16.33.15.63.2a.93.93,0,0,1,.64.52,1.77,1.77,0,0,1,.16.56C13.11,34.28,13.09,34.45,13.06,34.46Z" opacity=".43"/></svg>