<svg xmlns="http://www.w3.org/2000/svg" viewBox="0 0 48 48"><radialGradient id="cuaARR6M2AiVAJtBCaAw5a" cx="35.898" cy="4.249" r="8.312" gradientTransform="matrix(.4869 -.8735 .4994 .2783 16.281 35.156)" gradientUnits="userSpaceOnUse"><stop offset=".189" stop-color="#efe32a"/><stop offset=".512" stop-color="#f1cb27"/><stop offset="1" stop-color="#f59f22"/></radialGradient><path fill="url(#cuaARR6M2AiVAJtBCaAw5a)" d="M35.14,8.925l-0.302-2.321c-0.115-0.561,0.507-0.914,0.867-0.492l0.957,1.123l1.622-1.17 c0.307-0.291,0.783,0.029,0.698,0.469l-0.178,1.739l1.567,0.102c0.543,0.16,0.44,0.81-0.025,1.117 c-0.535,0.353-2.138,1.018-2.138,1.018L35.14,8.925z"/><radialGradient id="cuaARR6M2AiVAJtBCaAw5b" cx="18.588" cy="18.114" r="36.096" gradientTransform="matrix(.7114 -.7028 .4059 .4109 -1.988 23.735)" gradientUnits="userSpaceOnUse"><stop offset="0" stop-color="#c2ed3b"/><stop offset=".156" stop-color="#b6e135"/><stop offset=".442" stop-color="#95c125"/><stop offset=".469" stop-color="#91bd23"/><stop offset=".602" stop-color="#6b9a1b"/><stop offset=".87" stop-color="#23570d"/><stop offset=".994" stop-color="#063d07"/></radialGradient><path fill="url(#cuaARR6M2AiVAJtBCaAw5b)" d="M8.339,39.8c-2.118-1.873-3.807-7.049,2.799-11.226c6.398-4.045,11.871-9.27,15.716-15.399 c2.904-4.63,6.976-6.33,10.399-4.048c4.484,2.989,3.606,11.553-6.906,21.851C22.239,38.922,13.375,44.252,8.339,39.8z"/><path fill="#367019" d="M11.239,34.555c-0.775,0-1.404-0.628-1.404-1.404c0-0.217,0.054-0.421,0.142-0.604 c-0.471,0.226-0.799,0.704-0.799,1.262c0,0.775,0.629,1.404,1.404,1.404c0.558,0,1.036-0.328,1.262-0.799 C11.66,34.501,11.456,34.555,11.239,34.555z" opacity=".59"/><path fill="#367019" d="M18.099,34.648c-0.775,0-1.404-0.628-1.404-1.404c0-0.217,0.054-0.421,0.142-0.604 c-0.471,0.226-0.799,0.704-0.799,1.262c0,0.775,0.629,1.404,1.404,1.404c0.558,0,1.036-0.328,1.262-0.799 C18.519,34.594,18.316,34.648,18.099,34.648z" opacity=".59"/><path fill="#367019" d="M19.296,27.958c-0.775,0-1.404-0.628-1.404-1.404c0-0.217,0.054-0.421,0.142-0.604 c-0.471,0.226-0.799,0.704-0.799,1.262c0,0.775,0.629,1.404,1.404,1.404c0.558,0,1.036-0.328,1.262-0.799 C19.717,27.905,19.513,27.958,19.296,27.958z" opacity=".59"/><path fill="#367019" d="M26.024,27.958c-0.775,0-1.404-0.628-1.404-1.404c0-0.217,0.054-0.421,0.142-0.604 c-0.471,0.226-0.799,0.704-0.799,1.262c0,0.775,0.629,1.404,1.404,1.404c0.558,0,1.036-0.328,1.262-0.799 C26.444,27.905,26.241,27.958,26.024,27.958z" opacity=".59"/><path fill="#367019" d="M34.018,19.597c-0.769,0.095-1.47-0.451-1.565-1.221 c-0.027-0.216,0.002-0.424,0.067-0.617c-0.44,0.282-0.707,0.797-0.639,1.351c0.095,0.769,0.796,1.316,1.565,1.221 c0.554-0.068,0.988-0.453,1.154-0.948C34.429,19.493,34.234,19.571,34.018,19.597z" opacity=".59"/><path fill="#367019" d="M27.475,20.813c-0.764,0.133-1.491-0.379-1.624-1.142 c-0.037-0.214-0.019-0.424,0.036-0.62c-0.426,0.304-0.667,0.831-0.571,1.38c0.133,0.764,0.86,1.275,1.624,1.142 c0.55-0.096,0.964-0.501,1.106-1.004C27.88,20.688,27.689,20.775,27.475,20.813z" opacity=".59"/><path fill="#367019" d="M33.093,13.021c-0.758,0.163-1.505-0.319-1.668-1.076 c-0.046-0.213-0.036-0.423,0.011-0.621c-0.413,0.321-0.633,0.857-0.516,1.402c0.163,0.758,0.91,1.24,1.668,1.077 c0.545-0.118,0.943-0.539,1.065-1.047C33.493,12.88,33.305,12.975,33.093,13.021z" opacity=".59"/></svg>