<svg xmlns="http://www.w3.org/2000/svg" viewBox="0 0 48 48"><radialGradient id="merfsCeFyWjhg1WM5UVkva" cx="9.777" cy="10.884" r="25.846" gradientTransform="matrix(.8044 -.5941 .3711 .5025 -2.127 11.223)" gradientUnits="userSpaceOnUse"><stop offset="0" stop-color="#f7eee9"/><stop offset=".149" stop-color="#f5eae4"/><stop offset=".332" stop-color="#eee0d5"/><stop offset=".386" stop-color="#ecdccf"/><stop offset=".544" stop-color="#e1cfc4"/><stop offset=".833" stop-color="#c6aea9"/><stop offset="1" stop-color="#b39896"/></radialGradient><path fill="url(#merfsCeFyWjhg1WM5UVkva)" d="M27.951,16.003c0.935-3.676,10.837-4.136,10.837-4.136l-1.484-1.418L35.82,9.032 c0,0-3.411,2.601-9.826,3.184c-5.688,0.517-12.466-2.712-17.29,2.339c-3.831,4.01-2.798,9.436,1.211,13.266 s9.289,4.811,13.729,0.163C27.16,24.303,26.89,20.176,27.951,16.003z"/><radialGradient id="merfsCeFyWjhg1WM5UVkvb" cx="22.604" cy="23.455" r="22.654" gradientTransform="matrix(.6814 -.7319 .5483 .5104 -5.659 28.028)" gradientUnits="userSpaceOnUse"><stop offset="0" stop-color="#f7eee9"/><stop offset=".206" stop-color="#f5eae4"/><stop offset=".457" stop-color="#eee0d5"/><stop offset=".531" stop-color="#ecdccf"/><stop offset=".726" stop-color="#ceb9b1"/><stop offset=".895" stop-color="#baa19d"/><stop offset="1" stop-color="#b39896"/></radialGradient><path fill="url(#merfsCeFyWjhg1WM5UVkvb)" d="M32.184,20.047c3.63-1.102,3.636-11.015,3.636-11.015l1.484,1.418l1.484,1.418 c0,0-2.442,3.526-2.731,9.962c-0.256,5.706,3.278,12.329-1.546,17.379c-3.831,4.01-9.298,3.226-13.308-0.604 s-5.23-9.059-0.79-13.707C23.93,21.217,28.065,21.298,32.184,20.047z"/><radialGradient id="merfsCeFyWjhg1WM5UVkvc" cx="18.823" cy="19.172" r="20.609" gradientTransform="matrix(.8051 -.5932 .4087 .5547 -4.166 19.704)" gradientUnits="userSpaceOnUse"><stop offset="0" stop-color="#f7eee9"/><stop offset=".145" stop-color="#f5eae4"/><stop offset=".322" stop-color="#eee0d5"/><stop offset=".374" stop-color="#ecdccf"/><stop offset="1" stop-color="#b39795"/></radialGradient><path fill="url(#merfsCeFyWjhg1WM5UVkvc)" d="M33.596,21.395c0.935-3.676,8.095-12.429,8.095-12.429l-1.484-1.418L38.722,6.13 c0,0-8.552,7.422-12.182,8.525c-4.12,1.251-8.255,1.169-11.771,4.85c-4.44,4.648-3.219,9.877,0.79,13.707s9.289,4.811,13.729,0.163 C32.805,29.695,32.534,25.568,33.596,21.395z"/></svg>