<svg xmlns="http://www.w3.org/2000/svg" viewBox="0 0 48 48"><radialGradient id="wBu7DkhSZawQbCc~Elq7ha" cx="16.806" cy="16.701" r="23.479" gradientUnits="userSpaceOnUse"><stop offset="0" stop-color="#ff7666"/><stop offset=".126" stop-color="#fb6c59"/><stop offset=".714" stop-color="#ec4023"/><stop offset="1" stop-color="#e62f0e"/></radialGradient><path fill="url(#wBu7DkhSZawQbCc~Elq7ha)" d="M32.589,8.533c-5.113,0-8.589,3.436-8.589,3.436s-3.457-3.436-8.589-3.436	c-5.692,0-10.307,4.615-10.307,10.307C5.104,29.147,24,39.454,24,39.454S42.896,29.147,42.896,18.84	C42.896,13.147,38.282,8.533,32.589,8.533z"/><linearGradient id="wBu7DkhSZawQbCc~Elq7hb" x1="24.224" x2="23.474" y1="10.495" y2="38.413" gradientUnits="userSpaceOnUse"><stop offset=".147" stop-color="#f4523d" stop-opacity="0"/><stop offset=".845" stop-color="#a52510"/></linearGradient><path fill="url(#wBu7DkhSZawQbCc~Elq7hb)" d="M32.589,8.533c-5.113,0-8.589,3.436-8.589,3.436s-3.457-3.436-8.589-3.436	c-5.692,0-10.307,4.615-10.307,10.307C5.104,29.147,24,39.454,24,39.454S42.896,29.147,42.896,18.84	C42.896,13.147,38.282,8.533,32.589,8.533z"/><radialGradient id="wBu7DkhSZawQbCc~Elq7hc" cx="18.796" cy="-12.671" r="7.589" gradientTransform="matrix(.8237 -.567 .3817 .5545 4.51 33.1)" gradientUnits="userSpaceOnUse"><stop offset=".129" stop-color="#f9a29b"/><stop offset=".834" stop-color="#f9a29b" stop-opacity="0"/></radialGradient><path fill="url(#wBu7DkhSZawQbCc~Elq7hc)" d="M21.164,11.949c1.267,2.195-0.395,5.528-3.714,7.444s-7.036,1.69-8.303-0.506	s0.395-5.528,3.714-7.444S19.897,9.753,21.164,11.949z" opacity=".69"/></svg>