<svg xmlns="http://www.w3.org/2000/svg" viewBox="0 0 48 48"><radialGradient id="LaY~ocDwkcnOZRPfloM3Wa" cx="-830.811" cy="2701.189" r="4.306" gradientTransform="scale(1 -1) rotate(-76.12 -2130.791 795.312)" gradientUnits="userSpaceOnUse"><stop offset="0" stop-color="#cf7c2b"/><stop offset=".474" stop-color="#cd7b2a"/><stop offset=".645" stop-color="#c67628"/><stop offset=".766" stop-color="#bb6e24"/><stop offset=".865" stop-color="#aa631d"/><stop offset=".948" stop-color="#945516"/><stop offset="1" stop-color="#82490f"/></radialGradient><path fill="url(#LaY~ocDwkcnOZRPfloM3Wa)" d="M31.597,14.829l-0.448-1.612c2.329-0.537,3.762-2.956,3.225-5.285l1.612-0.448 C36.793,10.798,34.822,14.023,31.597,14.829z"/><radialGradient id="LaY~ocDwkcnOZRPfloM3Wb" cx="-1039.169" cy="-1485.009" r="36.013" gradientTransform="matrix(1.126 -.534 -.448 -.945 508.135 -1916.548)" gradientUnits="userSpaceOnUse"><stop offset="0" stop-color="#276e00"/><stop offset=".071" stop-color="#5e8403"/><stop offset=".144" stop-color="#8f9805"/><stop offset=".216" stop-color="#b7a907"/><stop offset=".287" stop-color="#d6b508"/><stop offset=".355" stop-color="#edbf09"/><stop offset=".42" stop-color="#fac40a"/><stop offset=".478" stop-color="#ffc60a"/><stop offset=".576" stop-color="#ffae0a"/><stop offset=".783" stop-color="#ff7109"/><stop offset="1" stop-color="#ff2a09"/></radialGradient><path fill="url(#LaY~ocDwkcnOZRPfloM3Wb)" d="M5.17,37.762c-2.867-5.644,3.046-8.421,6.629-16.752c7.435-17.2,22.395-12.721,26.158-4.748 s-0.896,18.095-10.302,22.575S7.947,43.047,5.17,37.762z"/><radialGradient id="LaY~ocDwkcnOZRPfloM3Wc" cx="-1817.51" cy="-2535.36" r="27.322" gradientTransform="matrix(.889 -.839 -.629 -.525 37.33 -2833.39)" gradientUnits="userSpaceOnUse"><stop offset=".183" stop-color="#ffbe45" stop-opacity="0"/><stop offset=".263" stop-color="#dea238" stop-opacity=".079"/><stop offset=".384" stop-color="#b27f27" stop-opacity=".197"/><stop offset=".506" stop-color="#8e6119" stop-opacity=".317"/><stop offset=".629" stop-color="#734a0e" stop-opacity=".437"/><stop offset=".752" stop-color="#5f3a06" stop-opacity=".557"/><stop offset=".875" stop-color="#533002" stop-opacity=".678"/><stop offset="1" stop-color="#4f2d00" stop-opacity=".8"/></radialGradient><path fill="url(#LaY~ocDwkcnOZRPfloM3Wc)" d="M5.17,37.762c-2.867-5.644,3.046-8.421,6.629-16.752c7.435-17.2,22.395-12.721,26.158-4.748 s-0.896,18.095-10.302,22.575S7.947,43.047,5.17,37.762z"/><radialGradient id="LaY~ocDwkcnOZRPfloM3Wd" cx="-3508.626" cy="3394.661" r="9.213" gradientTransform="matrix(-.341 -1.666 .782 -.16 -3819.91 -5278.569)" gradientUnits="userSpaceOnUse"><stop offset="0" stop-color="#9bcc00"/><stop offset=".251" stop-color="#99c900"/><stop offset=".438" stop-color="#91c002"/><stop offset=".603" stop-color="#83af04"/><stop offset=".757" stop-color="#719906"/><stop offset=".9" stop-color="#597c0a"/><stop offset="1" stop-color="#44630d"/></radialGradient><path fill="url(#LaY~ocDwkcnOZRPfloM3Wd)" d="M34.732,11.425c0,0-3.673,2.15-2.777,8.869C33.209,30.506,43.87,31.849,43.87,31.849 s-0.269,0-0.985-3.315c-0.896-4.658,0.717-8.421-1.165-12.452C40.465,13.306,37.778,11.514,34.732,11.425z"/><radialGradient id="LaY~ocDwkcnOZRPfloM3We" cx=".295" cy="566.293" r="4.675" gradientTransform="matrix(.8496 .5275 .82 -1.3207 -447.601 770.332)" gradientUnits="userSpaceOnUse"><stop offset="0" stop-color="#fff" stop-opacity=".6"/><stop offset="1" stop-color="#fff" stop-opacity="0"/></radialGradient><path fill="url(#LaY~ocDwkcnOZRPfloM3We)" d="M20.937,25.041c-2.15,3.404-5.644,5.106-7.794,3.673s-2.24-5.196-0.179-8.6 s5.644-5.106,7.794-3.673S23.087,21.637,20.937,25.041z"/></svg>