<svg xmlns="http://www.w3.org/2000/svg" viewBox="0 0 48 48"><path fill="#dd9f45" d="M38.033,24.835c5.842-6.087,0.958-16.285,0.958-16.285S28.716,3.971,22.76,10.177 c-1.291,1.346-2.226,2.889-2.803,4.502c-0.812,2.268-2.55,4.079-4.782,4.983c-1.588,0.643-3.092,1.64-4.383,2.985 c-4.488,4.677-4.708,11.749-0.49,15.797c4.218,4.048,11.275,3.538,15.763-1.139c1.291-1.346,2.226-2.889,2.803-4.502 c0.812-2.268,2.55-4.079,4.782-4.983C35.238,27.178,36.742,26.181,38.033,24.835z"/><path fill="#efcd6f" d="M40.115,8.867c-0.015-0.039-0.031-0.077-0.047-0.114c-0.14-0.334-0.238-0.543-0.264-0.597 l-0.145-0.303l-0.307-0.137c-0.324-0.145-6.011-2.616-11.519-1.369c-0.014-0.004-0.039-0.012-0.045-0.013L27.78,6.359 c-2.014,0.465-4.001,1.424-5.691,3.185c-1.351,1.407-2.361,3.032-3.004,4.827c-0.722,2.019-2.277,3.639-4.265,4.444 c-1.768,0.716-3.349,1.793-4.7,3.2c-4.83,5.032-5.038,12.699-0.463,17.089c4.574,4.39,12.226,3.867,17.056-1.165 c1.351-1.408,2.362-3.032,3.004-4.827c0.722-2.019,2.277-3.639,4.265-4.444c1.767-0.715,3.349-1.792,4.7-3.2 C44.04,19.885,41.144,11.377,40.115,8.867z M40.864,17.892c-0.229-0.491-0.52-1.066-0.896-1.707 c0.29-0.914,0.469-1.814,0.568-2.675C40.794,14.85,40.952,16.355,40.864,17.892z M11.182,35.436 c0.313,0.342,0.638,0.683,0.99,1.021c0.381,0.365,0.763,0.7,1.145,1.019c-1.516,0.782-2.649,1.092-2.955,1.001 c-0.009-0.008-0.02-0.014-0.028-0.022C10.219,38.122,10.474,36.975,11.182,35.436z M9.58,37.208 c-0.373-1.054-0.398-2.426-0.115-3.886c0.322,0.449,0.676,0.907,1.066,1.371C10.075,35.632,9.753,36.494,9.58,37.208z M12.805,35.797c-0.427-0.41-0.82-0.827-1.188-1.244c0.61-1.158,1.452-2.465,2.549-3.782c0.538,0.598,1.134,1.218,1.797,1.854 c0.644,0.618,1.272,1.175,1.879,1.677c-1.268,1.147-2.537,2.042-3.665,2.701C13.72,36.633,13.26,36.234,12.805,35.797z M16.596,31.966c-0.678-0.65-1.28-1.283-1.823-1.893c0.15-0.166,0.297-0.331,0.455-0.496c1.014-1.056,2.162-1.882,3.376-2.731 c0.452,0.476,0.927,0.955,1.421,1.429c0.521,0.5,1.045,0.976,1.561,1.427c-0.799,1.248-1.578,2.431-2.592,3.489 c-0.159,0.165-0.319,0.32-0.479,0.477C17.895,33.161,17.254,32.598,16.596,31.966z M20.657,27.616 c-0.451-0.432-0.883-0.869-1.298-1.303c1.204-0.846,2.441-1.768,3.717-2.987l1.841,1.767c-1.165,1.324-2.036,2.597-2.831,3.834 C21.613,28.511,21.134,28.073,20.657,27.616z M23.734,22.69c0.017-0.018,0.034-0.032,0.051-0.05 c1.177-1.226,2.034-2.358,2.771-3.443c0.385,0.344,0.772,0.697,1.157,1.066c0.411,0.394,0.803,0.79,1.183,1.184 c-1.053,0.78-2.148,1.683-3.324,2.908c-0.017,0.018-0.03,0.035-0.048,0.053L23.734,22.69z M28.346,19.604 c-0.426-0.409-0.854-0.8-1.28-1.177c0.215-0.333,0.426-0.663,0.632-0.99c0.692-1.094,1.362-2.14,2.215-3.165 c0.637,0.521,1.298,1.1,1.98,1.755c0.664,0.637,1.256,1.259,1.791,1.86c-0.989,0.896-2.008,1.608-3.074,2.345 c-0.319,0.221-0.641,0.445-0.965,0.674C29.23,20.473,28.798,20.038,28.346,19.604z M32.526,15.367 c-0.692-0.664-1.361-1.253-2.006-1.783c0.045-0.048,0.082-0.097,0.128-0.145c1.124-1.171,2.233-2.078,3.261-2.781 c0.552,0.429,1.108,0.898,1.655,1.424c0.58,0.556,1.093,1.118,1.558,1.674c-0.66,1.054-1.519,2.196-2.64,3.364 c-0.045,0.047-0.092,0.086-0.137,0.132C33.802,16.643,33.199,16.013,32.526,15.367z M36.198,11.422 c-0.489-0.469-0.983-0.899-1.473-1.292c2.174-1.317,3.839-1.66,4.226-1.529c0.005,0.003,0.011,0.005,0.016,0.009 c0.003,0.005,0.006,0.011,0.009,0.015c0.147,0.382-0.127,2.063-1.358,4.293C37.188,12.422,36.717,11.921,36.198,11.422z M39.628,10.523c0.195,1.268,0.128,2.902-0.314,4.624c-0.317-0.476-0.673-0.971-1.075-1.478 C38.912,12.509,39.366,11.432,39.628,10.523z M37.028,8.028c-0.894,0.298-1.947,0.794-3.074,1.509 c-0.513-0.377-1.017-0.713-1.502-1.015C34.142,8.018,35.76,7.886,37.028,8.028z M33.137,10.084 c-1.033,0.731-2.103,1.634-3.148,2.722c-0.066,0.069-0.12,0.139-0.184,0.208c-0.866-0.67-1.673-1.222-2.412-1.678 c1.216-1.095,2.569-1.882,3.922-2.42C31.892,9.247,32.507,9.637,33.137,10.084z M26.577,10.852 c-1.386-0.781-2.448-1.19-3.061-1.389c1.315-1.115,2.79-1.793,4.296-2.161c0.427,0.145,1.324,0.477,2.473,1.06 C28.996,8.952,27.729,9.769,26.577,10.852z M26.706,11.995c0.754,0.454,1.591,1.015,2.491,1.707 c-0.881,1.06-1.565,2.129-2.271,3.246c-0.182,0.289-0.368,0.58-0.557,0.873c-0.848-0.723-1.671-1.376-2.427-1.947 C24.628,14.645,25.392,13.371,26.706,11.995z M25.862,18.59c-0.729,1.081-1.574,2.206-2.736,3.417 c-0.017,0.018-0.034,0.032-0.051,0.05l-1.998-1.917c1.092-1.177,1.787-2.334,2.415-3.461C24.232,17.24,25.037,17.883,25.862,18.59z M22.416,22.692c-1.259,1.198-2.49,2.107-3.689,2.947c-0.685-0.745-1.31-1.47-1.863-2.141c0.079-0.048,0.159-0.096,0.238-0.143 c0.983-0.588,1.921-1.155,3.342-2.557L22.416,22.692z M17.974,26.171c-1.212,0.85-2.362,1.685-3.406,2.773 c-0.137,0.143-0.265,0.289-0.397,0.434c-0.664-0.793-1.214-1.536-1.674-2.219c0.076-0.084,0.147-0.173,0.224-0.254 c1.482-1.545,2.496-2.34,3.365-2.915C16.646,24.672,17.277,25.41,17.974,26.171z M13.561,30.074 c-1.045,1.243-1.912,2.53-2.574,3.735c-0.462-0.574-0.868-1.137-1.226-1.678c0.439-1.475,1.164-2.961,2.126-4.232 C12.354,28.574,12.906,29.301,13.561,30.074z M9.118,31.109c-0.849-1.44-1.297-2.56-1.447-2.962 c0.392-1.475,1.074-2.911,2.045-4.221c0.246,0.648,0.736,1.753,1.635,3.168C10.418,28.267,9.648,29.665,9.118,31.109z M14.082,38.09c0.483,0.371,0.958,0.707,1.421,1.009c-1.453,0.346-2.829,0.378-3.901,0.047 C12.309,38.945,13.16,38.586,14.082,38.09z M14.946,37.598c1.174-0.71,2.421-1.628,3.618-2.72c0.796,0.621,1.546,1.143,2.242,1.584 c-1.227,1.009-2.676,1.792-4.127,2.292C16.123,38.419,15.542,38.038,14.946,37.598z M21.631,36.964 c1.38,0.801,2.469,1.25,3.147,1.489c-1.264,1.011-2.663,1.743-4.111,2.189c-0.435-0.143-1.53-0.537-2.942-1.29 C19.141,38.765,20.501,37.941,21.631,36.964z M21.519,35.823c-0.703-0.434-1.468-0.954-2.285-1.582 c0.14-0.138,0.281-0.273,0.419-0.417c1.045-1.089,1.833-2.273,2.633-3.521c0.794,0.668,1.557,1.267,2.259,1.794 c-0.539,0.893-1.292,1.94-2.779,3.489C21.687,35.668,21.6,35.743,21.519,35.823z M22.786,29.529 c0.79-1.232,1.647-2.498,2.791-3.803l1.973,1.893c-1.342,1.477-1.87,2.438-2.417,3.444c-0.042,0.078-0.086,0.157-0.129,0.236 C24.312,30.778,23.563,30.186,22.786,29.529z M26.184,25.042c0.017-0.018,0.03-0.035,0.047-0.053 c1.161-1.21,2.249-2.099,3.298-2.872c0.743,0.801,1.417,1.578,2.004,2.291c-1.098,0.673-2.224,1.414-3.352,2.551L26.184,25.042z M30.278,21.578c0.286-0.202,0.571-0.4,0.853-0.595c1.088-0.752,2.128-1.479,3.152-2.404c0.725,0.868,1.321,1.681,1.808,2.419 c-1.324,1.373-2.568,2.189-3.771,2.927C31.722,23.196,31.038,22.401,30.278,21.578z M34.945,17.944 c0.066-0.066,0.133-0.122,0.199-0.191c1.04-1.084,1.897-2.187,2.583-3.245c0.478,0.626,0.889,1.232,1.236,1.798 c-0.481,1.361-1.209,2.731-2.242,3.979C36.233,19.563,35.648,18.778,34.945,17.944z M39.551,17.325 c0.724,1.347,1.035,2.289,1.079,2.425c-0.301,1.481-0.894,2.936-1.899,4.249c-0.242-0.622-0.697-1.635-1.493-2.919 C38.258,19.9,39.015,18.62,39.551,17.325z M34.293,7.206c-0.93,0.126-1.906,0.344-2.896,0.7c-0.684-0.376-1.3-0.67-1.831-0.902 C31.229,6.834,32.864,6.961,34.293,7.206z M22.739,10.188L22.739,10.188c0.022,0.006,1.233,0.29,3.155,1.341 c-1.259,1.353-2.02,2.597-2.692,3.796c-1.293-0.943-2.302-1.595-2.74-1.87C21.025,12.292,21.783,11.186,22.739,10.188z M19.945,14.679c0.045-0.125,0.106-0.247,0.155-0.371c0.483,0.307,1.44,0.932,2.652,1.82c-0.638,1.148-1.289,2.249-2.336,3.379 l-2.136-2.05C19,16.653,19.574,15.718,19.945,14.679z M15.163,19.662c0.921-0.373,1.751-0.907,2.474-1.557l2.148,2.061 c-1.337,1.315-2.223,1.85-3.152,2.406c-0.115,0.069-0.231,0.139-0.348,0.21c-1.054-1.324-1.759-2.333-2.011-2.703 C14.567,19.931,14.862,19.784,15.163,19.662z M13.47,20.524c0.212,0.313,0.933,1.357,2.039,2.751 c-0.894,0.598-1.939,1.424-3.448,2.997c-0.028,0.029-0.053,0.062-0.081,0.092c-1.168-1.894-1.544-3.131-1.585-3.277 c0.128-0.146,0.248-0.297,0.385-0.439C11.6,21.793,12.512,21.096,13.47,20.524z M7.352,29.735c0.321,0.686,0.773,1.557,1.397,2.535 c-0.335,1.23-0.473,2.45-0.39,3.56C7.425,33.979,7.091,31.856,7.352,29.735z M13.095,40.311c1.098,0.028,2.292-0.16,3.487-0.54 c0.97,0.563,1.828,0.967,2.51,1.254C17.032,41.361,14.949,41.126,13.095,40.311z M26.053,37.306 c-0.152,0.158-0.313,0.299-0.471,0.448c-0.408-0.12-1.581-0.508-3.248-1.447c0.029-0.03,0.062-0.057,0.091-0.087 c1.513-1.577,2.297-2.656,2.858-3.576c1.442,1.046,2.501,1.708,2.785,1.882C27.535,35.508,26.875,36.45,26.053,37.306z M28.856,32.804c-0.109,0.304-0.242,0.602-0.377,0.9c-0.345-0.213-1.366-0.858-2.736-1.856c0.064-0.117,0.128-0.233,0.191-0.348 c0.517-0.951,1.015-1.858,2.274-3.249l2.101,2.017C29.69,31.017,29.191,31.868,28.856,32.804z M33.638,27.821 c-1.022,0.414-1.934,1.025-2.707,1.777l-2.09-2.006c1.084-1.09,2.154-1.785,3.272-2.468c0.927,1.166,1.574,2.079,1.884,2.529 C33.877,27.706,33.76,27.772,33.638,27.821z M34.835,27.258c-0.273-0.4-0.947-1.363-1.938-2.615 c1.173-0.722,2.388-1.535,3.692-2.852c0.953,1.581,1.35,2.682,1.459,3.015c-0.009,0.01-0.017,0.02-0.027,0.03 C37.06,25.837,35.98,26.645,34.835,27.258z"/><radialGradient id="MIS94NZTubpz_6UbU9sH8a" cx="16.941" cy="21.661" r="45.375" gradientTransform="matrix(.6442 -.7649 .4888 .4117 -1.41 21.326)" gradientUnits="userSpaceOnUse"><stop offset=".339" stop-color="#e6cd93" stop-opacity="0"/><stop offset=".355" stop-color="#ddbf87" stop-opacity=".022"/><stop offset=".411" stop-color="#c39361" stop-opacity=".101"/><stop offset=".467" stop-color="#ac6f41" stop-opacity=".181"/><stop offset=".524" stop-color="#9b5328" stop-opacity=".261"/><stop offset=".58" stop-color="#8f3f17" stop-opacity=".341"/><stop offset=".637" stop-color="#87330c" stop-opacity=".42"/><stop offset=".693" stop-color="#852f09" stop-opacity=".5"/></radialGradient><path fill="url(#MIS94NZTubpz_6UbU9sH8a)" d="M9.657,39.116c-4.574-4.39-4.367-12.057,0.463-17.089c1.351-1.407,2.932-2.484,4.7-3.2 c1.988-0.804,3.543-2.425,4.265-4.444c0.643-1.796,1.654-3.42,3.004-4.827c6.328-6.593,16.82-2.026,17.263-1.828l0.307,0.137 l0.145,0.303c0.211,0.44,5.086,10.843-1.123,17.313c-1.351,1.408-2.933,2.485-4.7,3.2c-1.987,0.805-3.542,2.425-4.265,4.444 c-0.642,1.795-1.653,3.419-3.004,4.827C21.883,42.984,14.231,43.506,9.657,39.116z"/><radialGradient id="MIS94NZTubpz_6UbU9sH8b" cx="15.376" cy="26.63" r="4.654" gradientTransform="matrix(1.1102 -1.4838 .919 .6811 -27.057 31.928)" gradientUnits="userSpaceOnUse"><stop offset="0" stop-color="#ffffc9" stop-opacity=".7"/><stop offset=".186" stop-color="#ffffcd" stop-opacity=".661"/><stop offset=".364" stop-color="#ffffd8" stop-opacity=".624"/><stop offset=".478" stop-color="#ffffe4" stop-opacity=".6"/><stop offset=".994" stop-color="#ffffe6" stop-opacity="0"/></radialGradient><path fill="url(#MIS94NZTubpz_6UbU9sH8b)" d="M20.336,31.624c-3.162,3.716-8.056,4.744-10.933,2.297 c-2.876-2.447-2.645-7.444,0.517-11.159s8.056-4.744,10.933-2.297S23.497,27.908,20.336,31.624z" opacity=".57"/><radialGradient id="MIS94NZTubpz_6UbU9sH8c" cx="16.253" cy="17.059" r="4.654" gradientTransform="matrix(1.1094 -1.4844 .9267 .6877 -6.82 27.02)" gradientUnits="userSpaceOnUse"><stop offset="0" stop-color="#ffffc9" stop-opacity=".7"/><stop offset=".186" stop-color="#ffffcd" stop-opacity=".661"/><stop offset=".364" stop-color="#ffffd8" stop-opacity=".624"/><stop offset=".478" stop-color="#ffffe4" stop-opacity=".6"/><stop offset=".994" stop-color="#ffffe6" stop-opacity="0"/></radialGradient><path fill="url(#MIS94NZTubpz_6UbU9sH8c)" d="M32.92,19.04c-3.162,3.716-8.077,4.726-10.979,2.257s-2.691-7.483,0.47-11.199 s8.077-4.726,10.979-2.257C36.292,10.31,36.082,15.324,32.92,19.04z" opacity=".57"/></svg>