<svg xmlns="http://www.w3.org/2000/svg" xmlns:xlink="http://www.w3.org/1999/xlink" data-name="Layer 1" viewBox="0 0 48 48"><defs><radialGradient id="ysiViQRbfBxLxcp4UAbrTr" cx="24" cy="24.15" r="25.38" gradientTransform="matrix(.95 0 0 .33 1.06 16.32)" gradientUnits="userSpaceOnUse"><stop offset="0" stop-color="#dbc076"/><stop offset=".49" stop-color="#d9b34c"/><stop offset=".62" stop-color="#cea645"/><stop offset=".86" stop-color="#b28533"/><stop offset="1" stop-color="#9e6e26"/></radialGradient><radialGradient id="ysiViQRbfBxLxcp4UAbrTb" cx="23.78" cy="28.05" r="22.42" gradientTransform="matrix(1 0 0 .54 0 13.8)" gradientUnits="userSpaceOnUse"><stop offset=".01" stop-color="#c8c8ce"/><stop offset=".53" stop-color="#dddcdc"/><stop offset="1" stop-color="#979699"/></radialGradient><radialGradient id="ysiViQRbfBxLxcp4UAbrTF" cx="33.01" cy="17.53" r="12.26" xlink:href="#ysiViQRbfBxLxcp4UAbrTa"/><radialGradient id="ysiViQRbfBxLxcp4UAbrTe" cx="23.9" cy="24.62" r="25.41" gradientTransform="matrix(.95 -.02 .01 .35 .95 16.33)" gradientUnits="userSpaceOnUse"><stop offset="0" stop-color="#c2a455"/><stop offset=".49" stop-color="#c09930"/><stop offset=".62" stop-color="#b58c2a"/><stop offset=".87" stop-color="#976b1c"/><stop offset="1" stop-color="#855713"/></radialGradient><radialGradient id="ysiViQRbfBxLxcp4UAbrTf" cx="23.9" cy="24.58" r="25.41" gradientTransform="matrix(.95 -.02 .01 .35 .96 16.32)" gradientUnits="userSpaceOnUse"><stop offset="0" stop-color="#c4a658"/><stop offset=".49" stop-color="#c29b32"/><stop offset=".62" stop-color="#b78e2c"/><stop offset=".87" stop-color="#996d1d"/><stop offset="1" stop-color="#875914"/></radialGradient><radialGradient id="ysiViQRbfBxLxcp4UAbrTg" cx="23.91" cy="24.54" r="25.42" gradientTransform="matrix(.95 -.02 .01 .35 .97 16.32)" gradientUnits="userSpaceOnUse"><stop offset="0" stop-color="#c6a85a"/><stop offset=".49" stop-color="#c49d34"/><stop offset=".62" stop-color="#b9902e"/><stop offset=".87" stop-color="#9b6f1f"/><stop offset="1" stop-color="#895b16"/></radialGradient><radialGradient id="ysiViQRbfBxLxcp4UAbrTh" cx="23.92" cy="24.51" r="25.42" gradientTransform="matrix(.95 -.01 0 .35 .98 16.32)" gradientUnits="userSpaceOnUse"><stop offset="0" stop-color="#c8aa5d"/><stop offset=".49" stop-color="#c69f37"/><stop offset=".62" stop-color="#bb9231"/><stop offset=".86" stop-color="#9e7121"/><stop offset="1" stop-color="#8b5c17"/></radialGradient><radialGradient id="ysiViQRbfBxLxcp4UAbrTi" cx="23.93" cy="24.48" r="25.41" gradientTransform="matrix(.95 -.01 0 .35 .99 16.32)" gradientUnits="userSpaceOnUse"><stop offset="0" stop-color="#caac5f"/><stop offset=".49" stop-color="#c8a139"/><stop offset=".62" stop-color="#bd9433"/><stop offset=".86" stop-color="#a07323"/><stop offset="1" stop-color="#8d5e19"/></radialGradient><radialGradient id="ysiViQRbfBxLxcp4UAbrTj" cx="23.94" cy="24.44" r="25.41" gradientTransform="matrix(.95 -.01 0 .34 .99 16.33)" gradientUnits="userSpaceOnUse"><stop offset="0" stop-color="#ccaf62"/><stop offset=".49" stop-color="#caa33b"/><stop offset=".62" stop-color="#bf9635"/><stop offset=".86" stop-color="#a27524"/><stop offset="1" stop-color="#8f601a"/></radialGradient><radialGradient id="ysiViQRbfBxLxcp4UAbrTk" cx="23.94" cy="24.41" r="25.41" gradientTransform="matrix(.95 -.01 0 .34 1 16.33)" gradientUnits="userSpaceOnUse"><stop offset="0" stop-color="#ceb164"/><stop offset=".49" stop-color="#cca53d"/><stop offset=".62" stop-color="#c19837"/><stop offset=".86" stop-color="#a47726"/><stop offset="1" stop-color="#91621c"/></radialGradient><radialGradient id="ysiViQRbfBxLxcp4UAbrTl" cx="23.95" cy="24.38" r="25.4" gradientTransform="matrix(.95 -.01 0 .34 1.01 16.33)" gradientUnits="userSpaceOnUse"><stop offset="0" stop-color="#d0b367"/><stop offset=".49" stop-color="#cea73f"/><stop offset=".62" stop-color="#c39a39"/><stop offset=".86" stop-color="#a67928"/><stop offset="1" stop-color="#93631d"/></radialGradient><radialGradient id="ysiViQRbfBxLxcp4UAbrTm" cx="23.96" cy="24.36" r="25.4" gradientTransform="matrix(.95 -.01 0 .34 1.02 16.34)" gradientUnits="userSpaceOnUse"><stop offset="0" stop-color="#d2b569"/><stop offset=".49" stop-color="#d0a941"/><stop offset=".62" stop-color="#c59c3b"/><stop offset=".86" stop-color="#a87b2a"/><stop offset="1" stop-color="#95651f"/></radialGradient><radialGradient id="ysiViQRbfBxLxcp4UAbrTn" cx="23.97" cy="24.33" r="25.39" gradientTransform="matrix(.95 -.01 0 .34 1.03 16.34)" gradientUnits="userSpaceOnUse"><stop offset="0" stop-color="#d3b76c"/><stop offset=".49" stop-color="#d1ab44"/><stop offset=".62" stop-color="#c69e3d"/><stop offset=".86" stop-color="#a97d2c"/><stop offset="1" stop-color="#966720"/></radialGradient><radialGradient id="ysiViQRbfBxLxcp4UAbrTo" cx="23.98" cy="24.31" r="25.38" gradientTransform="matrix(.95 -.01 0 .33 1.04 16.35)" gradientUnits="userSpaceOnUse"><stop offset="0" stop-color="#d5b96e"/><stop offset=".49" stop-color="#d3ad46"/><stop offset=".62" stop-color="#c8a03f"/><stop offset=".86" stop-color="#ab7f2e"/><stop offset="1" stop-color="#986922"/></radialGradient><radialGradient id="ysiViQRbfBxLxcp4UAbrTp" cx="23.98" cy="24.28" r="25.37" gradientTransform="matrix(.95 -.01 0 .33 1.05 16.36)" gradientUnits="userSpaceOnUse"><stop offset="0" stop-color="#d7bb71"/><stop offset=".49" stop-color="#d5af48"/><stop offset=".62" stop-color="#caa241"/><stop offset=".86" stop-color="#ae812f"/><stop offset="1" stop-color="#9a6a23"/></radialGradient><radialGradient id="ysiViQRbfBxLxcp4UAbrTq" cx="23.99" cy="24.23" r="25.37" gradientTransform="matrix(.95 -.01 0 .33 1.05 16.34)" gradientUnits="userSpaceOnUse"><stop offset="0" stop-color="#d9bd73"/><stop offset=".49" stop-color="#d7b14a"/><stop offset=".62" stop-color="#cca443"/><stop offset=".86" stop-color="#b08331"/><stop offset="1" stop-color="#9c6c25"/></radialGradient><radialGradient id="ysiViQRbfBxLxcp4UAbrTc" cx="16.39" cy="23.91" r="37.54" gradientTransform="matrix(.85 .58 -.67 1.17 18.61 -12.9)" gradientUnits="userSpaceOnUse"><stop offset="0" stop-opacity="0"/><stop offset=".51" stop-opacity=".4"/><stop offset=".52" stop-opacity=".38"/><stop offset="1" stop-opacity="0"/></radialGradient><radialGradient id="ysiViQRbfBxLxcp4UAbrTs" cx="24.01" cy="24.07" r="25.39" gradientTransform="matrix(.95 0 0 .33 1.07 16.28)" gradientUnits="userSpaceOnUse"><stop offset="0" stop-color="#ddc278"/><stop offset=".49" stop-color="#dbb54e"/><stop offset=".62" stop-color="#d0a847"/><stop offset=".86" stop-color="#b48735"/><stop offset="1" stop-color="#a07028"/></radialGradient><radialGradient id="ysiViQRbfBxLxcp4UAbrTt" cx="24.01" cy="23.99" r="25.4" gradientTransform="matrix(.95 0 0 .32 1.08 16.25)" gradientUnits="userSpaceOnUse"><stop offset="0" stop-color="#dfc47b"/><stop offset=".49" stop-color="#ddb751"/><stop offset=".62" stop-color="#d2aa4a"/><stop offset=".85" stop-color="#b68937"/><stop offset="1" stop-color="#a27129"/></radialGradient><radialGradient id="ysiViQRbfBxLxcp4UAbrTu" cx="24.02" cy="23.9" r="25.4" gradientTransform="matrix(.95 0 0 .32 1.09 16.21)" gradientUnits="userSpaceOnUse"><stop offset="0" stop-color="#e1c67d"/><stop offset=".49" stop-color="#dfb953"/><stop offset=".62" stop-color="#d4ac4c"/><stop offset=".85" stop-color="#b88b39"/><stop offset="1" stop-color="#a4732b"/></radialGradient><radialGradient id="ysiViQRbfBxLxcp4UAbrTv" cx="24.03" cy="23.83" r="25.42" gradientTransform="matrix(.95 0 0 .32 1.09 16.18)" gradientUnits="userSpaceOnUse"><stop offset="0" stop-color="#e3c880"/><stop offset=".49" stop-color="#e1bb55"/><stop offset=".62" stop-color="#d6ae4e"/><stop offset=".85" stop-color="#ba8d3a"/><stop offset="1" stop-color="#a6752c"/></radialGradient><radialGradient id="ysiViQRbfBxLxcp4UAbrTw" cx="24.07" cy="17.26" r="24.44" gradientTransform="matrix(1 0 0 .61 0 6.66)" gradientUnits="userSpaceOnUse"><stop offset="0" stop-color="#e3c880"/><stop offset=".63" stop-color="#e1bb55"/><stop offset=".89" stop-color="#b98c39"/><stop offset="1" stop-color="#a6752c"/></radialGradient><radialGradient id="ysiViQRbfBxLxcp4UAbrTx" cx="22.51" cy="31.19" r="33.03" gradientTransform="matrix(1 -.07 .04 .49 -1.05 17.68)" gradientUnits="userSpaceOnUse"><stop offset=".01" stop-color="#42210b" stop-opacity=".6"/><stop offset=".32" stop-color="#42210b" stop-opacity=".54"/><stop offset=".64" stop-color="#42210b" stop-opacity=".36"/><stop offset=".95" stop-color="#42210b" stop-opacity=".06"/><stop offset="1" stop-color="#42210b" stop-opacity="0"/></radialGradient><radialGradient id="ysiViQRbfBxLxcp4UAbrTa" cx="21.44" cy="15.59" r="16.65" gradientUnits="userSpaceOnUse"><stop offset="0" stop-color="#e3c880"/><stop offset=".26" stop-color="#e1bb55"/><stop offset=".5" stop-color="#caa045"/><stop offset=".82" stop-color="#b08133"/><stop offset="1" stop-color="#a6752c"/></radialGradient><radialGradient id="ysiViQRbfBxLxcp4UAbrTy" cx="24.79" cy="17.35" r="14.01" xlink:href="#ysiViQRbfBxLxcp4UAbrTa"/><radialGradient id="ysiViQRbfBxLxcp4UAbrTz" cx="30.05" cy="20.6" r="12.58" xlink:href="#ysiViQRbfBxLxcp4UAbrTa"/><radialGradient id="ysiViQRbfBxLxcp4UAbrTA" cx="15.89" cy="19.51" r="11.78" xlink:href="#ysiViQRbfBxLxcp4UAbrTa"/><radialGradient id="ysiViQRbfBxLxcp4UAbrTB" cx="18.96" cy="17.86" r="12.94" xlink:href="#ysiViQRbfBxLxcp4UAbrTa"/><radialGradient id="ysiViQRbfBxLxcp4UAbrTG" cx="44.94" cy="-147.19" r="8.24" gradientTransform="matrix(0 .7 -1.3 0 -176.06 -13.63)" gradientUnits="userSpaceOnUse"><stop offset="0" stop-color="#fee19b"/><stop offset=".08" stop-color="#fee19b" stop-opacity=".86"/><stop offset=".22" stop-color="#fee19b" stop-opacity=".64"/><stop offset=".36" stop-color="#fee19b" stop-opacity=".44"/><stop offset=".5" stop-color="#fee19b" stop-opacity=".28"/><stop offset=".63" stop-color="#fee19b" stop-opacity=".16"/><stop offset=".76" stop-color="#fee19b" stop-opacity=".07"/><stop offset=".89" stop-color="#fee19b" stop-opacity=".02"/><stop offset="1" stop-color="#fee19b" stop-opacity="0"/></radialGradient><linearGradient id="ysiViQRbfBxLxcp4UAbrTC" x1="23.11" x2="34.24" y1="16.93" y2="27.12" xlink:href="#ysiViQRbfBxLxcp4UAbrTa"/><linearGradient id="ysiViQRbfBxLxcp4UAbrTD" x1="24.24" x2="35.37" y1="15.7" y2="25.89" xlink:href="#ysiViQRbfBxLxcp4UAbrTa"/><linearGradient id="ysiViQRbfBxLxcp4UAbrTE" x1="23.56" x2="34.69" y1="16.44" y2="26.64" xlink:href="#ysiViQRbfBxLxcp4UAbrTa"/><linearGradient id="ysiViQRbfBxLxcp4UAbrTd" x1="4.59" x2="54.39" y1="27.05" y2="22.87" gradientUnits="userSpaceOnUse"><stop offset="0" stop-opacity="0"/><stop offset=".52" stop-opacity=".3"/><stop offset=".99" stop-opacity="0"/></linearGradient></defs><path fill="url(#ysiViQRbfBxLxcp4UAbrTb)" d="M46.85,25.25a14,14,0,0,1-1.37,5.68,15.85,15.85,0,0,1-3.6,5h0c-3,3-9.94,5-18.09,5-1.13,0-2.25,0-3.32-.13A36.58,36.58,0,0,1,13,39.64,16.75,16.75,0,0,1,5.69,36h0a16,16,0,0,1-3.83-5.58A13.45,13.45,0,0,1,.72,25.25c0-4.52,10.32-8.19,23.06-8.19S46.85,20.73,46.85,25.25Z"/><path fill="url(#ysiViQRbfBxLxcp4UAbrTc)" d="M46.85,25.25a14,14,0,0,1-1.37,5.68,15.85,15.85,0,0,1-3.6,5h0c-3,3-9.94,5-18.09,5-1.13,0-2.25,0-3.32-.13A36.58,36.58,0,0,1,13,39.64,16.75,16.75,0,0,1,5.69,36h0a16,16,0,0,1-3.83-5.58A13.45,13.45,0,0,1,.72,25.25c0-4.52,10.32-8.19,23.06-8.19S46.85,20.73,46.85,25.25Z"/><path fill="url(#ysiViQRbfBxLxcp4UAbrTd)" d="M46.85,24.56a11.92,11.92,0,0,1-1.37,5.2l-.2.12c-.55.3-1.44,0-2.09.23s-1,1-1.68,1.26-1.41-.23-2.08,0-1.23.38-1.9.53-1.22.62-1.89.75-1.27.37-1.94.47-1.37-.51-2-.43-1.25.86-1.91.92-1.31.09-2,.13-1.33-.17-2-.15-1.31.12-2,.12-1.34.09-2,.08-1.31-.61-2-.66-1.36.48-2,.43-1.28-.63-1.93-.7-1.35,0-2-.07-1.36.06-2-.06-1.34-.17-2-.31-1.23-.62-1.86-.8-1.36-.16-2-.37-1.29-.47-1.87-.71S2.92,30,2.38,29.71a2,2,0,0,1-.52-.45,11.44,11.44,0,0,1-1.14-4.7c0-4.14,10.32-7.5,23.06-7.5S46.85,20.42,46.85,24.56Z"/><path fill="url(#ysiViQRbfBxLxcp4UAbrTe)" d="M48,24.56c0-.63-1-1-1.37-1.61a5.49,5.49,0,0,0-1.15-1.43,11.64,11.64,0,0,0-1.6-1,16.23,16.23,0,0,0-1.59-1c-.55-.23-1.09-.63-1.71-.85s-1.2-.32-1.83-.49-1.19-.36-1.82-.5-1.3.25-1.93.13-1.1-1-1.74-1.12-1.33.64-2,.56-1.23-.1-1.87-.15-1.2-.85-1.83-.89-1.27.44-1.91.43-1.25.2-1.88.2-1.26-.32-1.88-.31-1.27-.07-1.89,0-1.28-.14-1.9-.08-1.27.06-1.89.13S15,17,14.4,17.06s-1.23.36-1.84.47-1.25.24-1.85.37-1.28.15-1.87.31-1.13.71-1.7.9-1.2.41-1.76.65-1.46-.07-2,.21S2.49,21.05,2,21.41,1.35,22.53,1,23s-1,.92-1,1.55.54,1,.94,1.62a5.54,5.54,0,0,0,1.19,1.39c.46.36.74,1.12,1.35,1.46s1.15.47,1.77.73,1.15.47,1.77.68,1.23.18,1.86.35,1.13.61,1.77.75,1.23.18,1.86.3,1.26,0,1.89.06,1.25,0,1.88.06,1.2.62,1.83.67,1.28-.44,1.91-.4,1.23.6,1.86.62,1.26-.07,1.89-.07,1.26-.1,1.88-.11,1.27.18,1.89.15,1.27-.07,1.89-.12,1.2-.81,1.81-.88,1.33.49,1.94.4,1.24-.34,1.84-.45,1.19-.57,1.79-.71,1.22-.35,1.81-.51,1.4.24,2,0,1-1,1.59-1.18,1.46.06,2-.22a11.37,11.37,0,0,0,1.52-1.25c.56-.44.58-1.29.91-1.77S48,25.19,48,24.56Z"/><path fill="url(#ysiViQRbfBxLxcp4UAbrTf)" d="M3.49,20.05c.55-.31,1.42,0,2.07-.3l.69-.27,1.17-.4c.61-.2,1.15-.71,1.81-.89s1.3-.17,2-.31,1.28-.24,2-.35,1.27-.35,1.94-.43,1.28-.42,1.95-.49,1.19-.07,1.79-.12,1.2.11,1.8.08,1.19,0,1.79,0,1.18.29,1.79.29,1.2-.2,1.79-.19,1.22-.43,1.81-.4,1.15.79,1.74.84,1.19.08,1.77.15,1.29-.61,1.86-.53,1.08.95,1.65,1.05,1.27-.25,1.83-.13,1.17.32,1.73.47,1.19.28,1.74.46,1.1.58,1.63.8a15.54,15.54,0,0,1,1.51,1,15.39,15.39,0,0,1,1.52.91,7.85,7.85,0,0,1,1.48,1.43c.52.6,1.56,1.05,1.67,1.78s-.95,1-1.34,1.57-.35,1.29-.9,1.72a11.23,11.23,0,0,1-1.48,1.23c-.51.29-1.34,0-1.95.26s-1,.94-1.59,1.15-1.33-.19-2,0l-.73.21c-.35.1-.7.21-1.07.29-.59.13-1.15.57-1.77.69-.32.06-.64.15-1,.24a7.32,7.32,0,0,1-.87.2c-.61.09-1.29-.43-1.92-.36s-1.17.79-1.8.84-1.24.09-1.87.13-1.25-.14-1.88-.13-1.24.11-1.87.11-1.26.09-1.87.07-1.23-.55-1.85-.58-1.28.43-1.89.38a1.72,1.72,0,0,1-.46-.11,6.38,6.38,0,0,0-1.36-.53c-.65-.07-1.29,0-1.92-.07s-1.32,0-1.93-.08-1.29-.16-1.89-.29a4.86,4.86,0,0,1-1.09-.43A4.23,4.23,0,0,0,9,30.77c-.2-.05-.4-.1-.6-.13s-.59-.09-.87-.14l-.41-.1-.4-.13c-.49-.17-1-.35-1.41-.54A18.32,18.32,0,0,1,3.52,29c-.59-.33-.88-1.06-1.34-1.43A5.6,5.6,0,0,1,1,26.16c-.4-.58-.92-1-.92-1.61s.61-1,1-1.54.46-1.13,1-1.56S2.9,20.38,3.49,20.05Z"/><path fill="url(#ysiViQRbfBxLxcp4UAbrTg)" d="M3.56,20.13c.59-.33,1.47-.1,2.15-.39l.72-.28c.4-.14.8-.28,1.23-.41.65-.2,1.23-.7,1.92-.87s1.37-.17,2.07-.3,1.35-.23,2.05-.33,1.34-.32,2-.39,1.35-.37,2.06-.44c.55-.05,1.12-.06,1.69-.11s1.13.11,1.7.08,1.12,0,1.69,0S24,17,24.59,17s1.13-.19,1.69-.17,1.15-.4,1.71-.37,1.09.74,1.64.79,1.12.07,1.68.14,1.22-.57,1.76-.49,1,.89,1.56,1,1.2-.24,1.73-.12,1.11.3,1.64.44,1.13.26,1.64.44,1,.54,1.54.75a14.84,14.84,0,0,1,1.43.93c.54.29,1,.57,1.44.86a11.24,11.24,0,0,1,1.81,1.42c.64.62,1.75,1.13,2,2,0,.6-.92,1-1.3,1.54s-.36,1.25-.89,1.67A11.08,11.08,0,0,1,44.22,29c-.51.29-1.31,0-1.91.3s-1,.91-1.59,1.12-1.31-.16-1.93,0l-.72.21c-.34.1-.69.2-1.06.28-.59.13-1.14.55-1.76.66-.32.06-.63.15-1,.24a7.65,7.65,0,0,1-.86.2c-.6.09-1.28-.39-1.9-.32s-1.17.75-1.79.81-1.22.1-1.84.14-1.23-.13-1.86-.1-1.23.11-1.85.12-1.24.09-1.85.07-1.23-.51-1.84-.54-1.27.4-1.88.35a1.79,1.79,0,0,1-.46-.1,6.64,6.64,0,0,0-1.35-.5c-.66-.07-1.32,0-1.95-.08s-1.34,0-2-.1-1.31-.16-1.93-.28A5.14,5.14,0,0,1,9.86,31a4.82,4.82,0,0,0-.73-.28l-.61-.14-.88-.16-.41-.1-.41-.13c-.5-.16-1-.35-1.44-.54a16.89,16.89,0,0,1-1.82-.78c-.57-.32-.88-1-1.33-1.4A5.65,5.65,0,0,1,1,26.14c-.39-.57-.9-1-.9-1.59s.59-1,1-1.53.48-1.1,1-1.52S3,20.45,3.56,20.13Z"/><path fill="url(#ysiViQRbfBxLxcp4UAbrTh)" d="M3.64,20.21c.62-.35,1.52-.17,2.24-.47l.76-.29c.42-.15.85-.29,1.29-.43.68-.21,1.3-.69,2-.85s1.44-.17,2.17-.3,1.42-.21,2.16-.3,1.41-.29,2.15-.35,1.43-.33,2.16-.39l1.59-.1c.52,0,1.07.1,1.6.07s1.06,0,1.59,0,1.06.26,1.59.26,1.07-.18,1.59-.16,1.09-.38,1.61-.35,1,.69,1.55.74,1.06.07,1.58.13S32.46,16.92,33,17s1,.83,1.47.92,1.13-.22,1.63-.11,1,.28,1.54.41,1.06.25,1.55.41,1,.51,1.45.7A14.15,14.15,0,0,1,42,20.2c.51.27.93.55,1.35.8a16,16,0,0,1,2.14,1.41c.76.63,1.94,1.21,2.28,2.14,0,.58-.89,1-1.26,1.5s-.37,1.21-.87,1.63a10.92,10.92,0,0,1-1.4,1.18c-.51.3-1.28.09-1.88.34s-1,.88-1.59,1.08-1.29-.13-1.91,0l-.72.2c-.34.1-.69.2-1,.28-.59.13-1.13.53-1.75.64-.31.06-.63.15-.94.23a8,8,0,0,1-.85.19c-.6.09-1.27-.35-1.89-.27s-1.16.72-1.78.78-1.21.1-1.82.14-1.22-.11-1.84-.08-1.21.11-1.83.12-1.23.09-1.84.08-1.22-.47-1.83-.5-1.26.37-1.86.33a1.87,1.87,0,0,1-.45-.1,7,7,0,0,0-1.34-.47c-.67-.07-1.34,0-2-.09s-1.37,0-2-.12-1.33-.16-2-.28A5.43,5.43,0,0,1,10,31a5.56,5.56,0,0,0-.75-.27l-.62-.15-.89-.18-.42-.11-.41-.13c-.51-.16-1-.34-1.46-.53a15.75,15.75,0,0,1-1.84-.81c-.55-.32-.87-1-1.33-1.37A5.71,5.71,0,0,1,1.1,26.11c-.39-.56-.88-1-.88-1.58s.57-1,1-1.51a5.58,5.58,0,0,1,1-1.48C2.72,21.18,3.08,20.52,3.64,20.21Z"/><path fill="url(#ysiViQRbfBxLxcp4UAbrTi)" d="M3.71,20.29c.66-.37,1.57-.25,2.33-.56l.8-.3c.44-.16.89-.3,1.35-.44.72-.21,1.38-.67,2.15-.84s1.5-.18,2.27-.29,1.49-.2,2.26-.28,1.49-.26,2.26-.31,1.5-.28,2.27-.34l1.5-.09c.49,0,1,.09,1.5.07s1,0,1.5,0,1,.24,1.49.24,1-.16,1.49-.15,1-.35,1.51-.32,1,.64,1.46.69,1,.07,1.48.12,1.08-.5,1.56-.43.91.77,1.39.86,1.06-.2,1.53-.1,1,.26,1.45.39,1,.23,1.45.38.92.47,1.37.65a13.47,13.47,0,0,1,1.27.81c.48.26.87.52,1.27.74a22.43,22.43,0,0,1,2.46,1.4c.88.65,2.13,1.28,2.58,2.32-.05.56-.86.94-1.22,1.47s-.38,1.17-.86,1.58a10.88,10.88,0,0,1-1.36,1.15c-.5.3-1.26.13-1.84.38s-1,.85-1.58,1-1.28-.1-1.89.06l-.71.2c-.34.1-.68.19-1,.27-.58.13-1.13.5-1.74.62-.31.06-.62.15-.93.23a8.46,8.46,0,0,1-.84.19c-.59.1-1.25-.31-1.87-.23s-1.16.68-1.77.74-1.2.11-1.8.15-1.21-.09-1.82-.06-1.2.11-1.81.12-1.22.08-1.82.08-1.21-.44-1.81-.46-1.25.35-1.85.3a2,2,0,0,1-.45-.09,7.33,7.33,0,0,0-1.33-.44c-.68-.07-1.36,0-2-.1s-1.39,0-2.05-.14-1.35-.16-2-.27A5.75,5.75,0,0,1,10.12,31a6.52,6.52,0,0,0-.77-.27l-.62-.16-.9-.2-.43-.11L7,30.11c-.52-.15-1-.33-1.49-.53a14.8,14.8,0,0,1-1.87-.84c-.54-.31-.86-1-1.32-1.35a5.83,5.83,0,0,1-1.15-1.31c-.38-.55-.85-1-.85-1.56s.55-1,1-1.5a5.64,5.64,0,0,1,1.06-1.44C2.79,21.23,3.17,20.59,3.71,20.29Z"/><path fill="url(#ysiViQRbfBxLxcp4UAbrTj)" d="M3.79,20.37a22.26,22.26,0,0,1,2.41-.64L7,19.41c.46-.16.93-.31,1.41-.45.75-.22,1.46-.66,2.26-.82s1.57-.18,2.37-.29,1.56-.19,2.36-.26,1.56-.23,2.36-.27,1.57-.24,2.38-.29l1.4-.08c.46,0,.94.09,1.41.07s.93,0,1.4,0,.93.22,1.4.22.94-.15,1.4-.13,1-.32,1.42-.29.91.6,1.37.63.93.06,1.39.11,1-.46,1.46-.39.85.71,1.3.79,1-.19,1.43-.09.92.24,1.36.36.93.21,1.36.35.86.44,1.28.6a12.79,12.79,0,0,1,1.19.75c.45.24.81.49,1.19.69A31,31,0,0,1,44.71,22c1,.67,2.32,1.36,2.88,2.49-.07.55-.83.93-1.18,1.44s-.38,1.13-.85,1.53a10.72,10.72,0,0,1-1.31,1.13c-.5.3-1.23.17-1.81.42s-1,.81-1.58,1S39.6,30,39,30.16l-.7.19c-.34.09-.67.19-1,.26-.58.13-1.12.48-1.72.6-.31.06-.62.14-.93.23s-.55.14-.83.19c-.59.1-1.24-.27-1.85-.18s-1.15.65-1.77.71-1.18.11-1.78.16-1.2-.07-1.8,0-1.19.11-1.79.12-1.2.08-1.8.08-1.2-.4-1.8-.43-1.23.32-1.83.28a2.08,2.08,0,0,1-.45-.09,7.79,7.79,0,0,0-1.33-.42c-.69-.07-1.38,0-2-.11s-1.42,0-2.09-.16-1.37-.16-2-.26a6.1,6.1,0,0,1-1.18-.35,7.8,7.8,0,0,0-.78-.26l-.63-.17-.91-.22-.44-.11-.43-.12a14.53,14.53,0,0,1-1.52-.52,14,14,0,0,1-1.89-.86c-.52-.31-.86-.94-1.32-1.32a5.91,5.91,0,0,1-1.14-1.29c-.38-.55-.83-1-.83-1.55s.53-1,.94-1.49a5.72,5.72,0,0,1,1.08-1.41A15.88,15.88,0,0,1,3.79,20.37Z"/><path fill="url(#ysiViQRbfBxLxcp4UAbrTk)" d="M3.86,20.45a21.74,21.74,0,0,1,2.5-.73l.87-.33c.48-.17,1-.32,1.47-.46.79-.22,1.53-.64,2.37-.8s1.64-.18,2.47-.29,1.63-.17,2.46-.23,1.63-.2,2.47-.23,1.65-.19,2.49-.24l1.3-.07c.43,0,.87.08,1.31.06s.86,0,1.3,0,.86.2,1.3.21.87-.13,1.3-.12.89-.29,1.32-.27.84.55,1.27.58.86.06,1.29.11.94-.42,1.36-.36.79.66,1.21.73.92-.17,1.33-.08.85.22,1.26.33.87.2,1.26.33.81.4,1.19.55a11.9,11.9,0,0,1,1.11.69c.42.22.75.46,1.11.63,1.13.56,2.18.81,3.12,1.39a8.28,8.28,0,0,1,3.18,2.67c-.08.53-.8.91-1.14,1.41S46,27,45.53,27.43a10.55,10.55,0,0,1-1.27,1.1c-.49.31-1.2.21-1.78.46s-1,.78-1.58,1-1.25,0-1.84.12l-.7.19c-.33.09-.67.18-1,.26-.57.13-1.11.46-1.71.58-.3.06-.61.14-.92.22s-.55.14-.82.18c-.59.1-1.23-.23-1.83-.14s-1.15.61-1.76.68-1.17.12-1.76.17-1.19-.05-1.78,0-1.18.11-1.77.12-1.19.08-1.78.08S22,32,21.43,32s-1.22.29-1.81.25a2.22,2.22,0,0,1-.44-.08,8.35,8.35,0,0,0-1.32-.39c-.7-.07-1.4,0-2.08-.12s-1.44-.06-2.13-.19-1.38-.16-2-.25a6.47,6.47,0,0,1-1.2-.33c-.27-.09-.53-.18-.8-.25L9,30.47,8,30.24l-.44-.11L7.16,30a13.43,13.43,0,0,1-1.55-.52,13.34,13.34,0,0,1-1.92-.89c-.5-.3-.85-.91-1.31-1.29A6,6,0,0,1,1.26,26c-.38-.54-.81-1-.81-1.53s.51-1,.92-1.48a5.8,5.8,0,0,1,1.09-1.37A17.44,17.44,0,0,1,3.86,20.45Z"/><path fill="url(#ysiViQRbfBxLxcp4UAbrTl)" d="M3.93,20.52a21.45,21.45,0,0,1,2.59-.81l.91-.34c.5-.17,1-.33,1.53-.48.83-.23,1.61-.63,2.48-.79s1.71-.19,2.57-.28,1.7-.16,2.56-.21,1.7-.17,2.57-.19a20.29,20.29,0,0,0,2.59-.19c.39-.06.8,0,1.2-.07s.81.08,1.21.06.8,0,1.2,0,.8.19,1.2.19.81-.12,1.2-.11.82-.26,1.22-.24.78.5,1.18.53.8.05,1.19.1.87-.38,1.26-.32.74.6,1.13.67S34.6,17.92,35,18s.79.2,1.17.3.8.18,1.17.3.75.37,1.1.51a11.2,11.2,0,0,1,1,.63,8.1,8.1,0,0,1,1,.58,13.94,13.94,0,0,1,3.45,1.38,8.84,8.84,0,0,1,3.49,2.85c-.09.52-.76.89-1.1,1.38s-.4,1-.83,1.43a10.35,10.35,0,0,1-1.23,1.08c-.49.31-1.17.25-1.74.5a16.16,16.16,0,0,1-1.57.94c-.56.18-1.23,0-1.82.14l-.69.18c-.33.09-.66.18-1,.25-.57.13-1.11.44-1.7.55-.3.06-.6.14-.91.22s-.54.14-.81.18c-.58.1-1.22-.18-1.81-.1s-1.15.57-1.75.65l-1.74.18c-.58.05-1.17,0-1.76,0s-1.16.11-1.75.12-1.18.08-1.76.08S22.25,32,21.66,32s-1.21.26-1.8.23a2.38,2.38,0,0,1-.44-.08,9.07,9.07,0,0,0-1.31-.36c-.71-.07-1.42,0-2.11-.14s-1.47-.07-2.17-.21-1.4-.16-2.08-.25a6.86,6.86,0,0,1-1.23-.31c-.27-.09-.54-.17-.81-.24s-.42-.13-.64-.2-.61-.18-.93-.25l-.45-.11L7.25,30a12.54,12.54,0,0,1-1.57-.51,12.76,12.76,0,0,1-1.94-.91,14.31,14.31,0,0,1-1.3-1.26A6.1,6.1,0,0,1,1.32,26c-.37-.53-.79-1-.79-1.52s.49-1,.9-1.47a5.9,5.9,0,0,1,1.11-1.33C3,21.36,3.44,20.81,3.93,20.52Z"/><path fill="url(#ysiViQRbfBxLxcp4UAbrTm)" d="M4,20.6a21.32,21.32,0,0,1,2.67-.9l.95-.35c.52-.18,1.05-.34,1.6-.49.86-.23,1.69-.61,2.59-.77s1.77-.19,2.67-.28,1.77-.15,2.67-.19,1.77-.14,2.68-.15a19.24,19.24,0,0,0,2.7-.14c.36-.05.74,0,1.11-.06s.74.07,1.11.05.73,0,1.11,0,.73.17,1.11.17.74-.11,1.11-.1.76-.24,1.12-.22.72.45,1.09.48.73.05,1.1.09.8-.34,1.16-.29.68.54,1,.6.78-.14,1.13-.06.73.18,1.07.27.74.16,1.08.27.69.33,1,.46a10.51,10.51,0,0,1,1,.56,7.61,7.61,0,0,1,1,.52,15.21,15.21,0,0,1,3.78,1.37,9.41,9.41,0,0,1,3.79,3c-.11.5-.73.87-1.06,1.35s-.4,1-.82,1.38a10.13,10.13,0,0,1-1.19,1,12.56,12.56,0,0,1-1.71.54,15.47,15.47,0,0,1-1.57.91c-.55.18-1.21,0-1.8.17l-.69.18-1,.25c-.56.12-1.1.42-1.68.53-.3.06-.6.14-.9.21s-.53.13-.81.18c-.58.1-1.2-.14-1.8-.05s-1.14.54-1.74.61L28.87,32c-.57.05-1.16,0-1.74,0s-1.15.11-1.73.13-1.17.08-1.74.08-1.17-.29-1.76-.31-1.2.24-1.78.2a2.57,2.57,0,0,1-.44-.07,10,10,0,0,0-1.3-.33c-.72-.07-1.44-.05-2.14-.15s-1.49-.09-2.21-.23-1.42-.16-2.11-.24a7.28,7.28,0,0,1-1.25-.29l-.83-.23c-.2-.05-.42-.13-.65-.21s-.61-.19-.94-.27L7.79,30l-.45-.11a11.8,11.8,0,0,1-1.6-.51,12.25,12.25,0,0,1-2-.94,14.87,14.87,0,0,1-1.3-1.24A6.2,6.2,0,0,1,1.37,26,2.85,2.85,0,0,1,.6,24.5c0-.56.47-1,.88-1.46a6,6,0,0,1,1.12-1.29C3.1,21.4,3.53,20.88,4,20.6Z"/><path fill="url(#ysiViQRbfBxLxcp4UAbrTn)" d="M4.08,20.68a21.31,21.31,0,0,1,2.76-1l1-.36c.54-.18,1.09-.35,1.66-.5.9-.24,1.77-.6,2.7-.75S14,17.89,15,17.81s1.84-.13,2.77-.16,1.84-.12,2.78-.11a18.69,18.69,0,0,0,2.81-.09c.33,0,.67,0,1,0s.68.06,1,.05.67,0,1,0,.67.15,1,.16.67-.09,1-.08.69-.21,1-.19.66.4,1,.43l1,.08c.34,0,.73-.3,1.06-.25s.62.48,1,.54.71-.12,1-.05.66.17,1,.25.67.15,1,.24.63.29.93.41a9.83,9.83,0,0,1,.87.5,7.14,7.14,0,0,1,.87.47,16.49,16.49,0,0,1,4.1,1.37,10,10,0,0,1,4.09,3.21c-.12.48-.7.86-1,1.32a6.65,6.65,0,0,1-.81,1.33,9.89,9.89,0,0,1-1.15,1,11.48,11.48,0,0,1-1.67.58,14.81,14.81,0,0,1-1.57.87c-.55.18-1.2.05-1.78.2l-.68.17-1,.24c-.56.12-1.1.4-1.67.51-.3.06-.59.14-.89.21s-.53.13-.8.18c-.57.1-1.19-.1-1.78,0s-1.14.5-1.73.58l-1.7.19c-.57.06-1.15,0-1.73,0s-1.14.11-1.71.13-1.15.08-1.72.08-1.17-.26-1.75-.27-1.19.21-1.77.17a2.82,2.82,0,0,1-.43-.06,11.19,11.19,0,0,0-1.29-.3c-.73-.07-1.46-.06-2.17-.16s-1.52-.11-2.25-.25-1.44-.16-2.14-.23a7.73,7.73,0,0,1-1.28-.26l-.84-.23c-.2,0-.42-.14-.65-.22a9.74,9.74,0,0,0-.95-.29L7.88,30l-.46-.1a11.18,11.18,0,0,1-1.63-.5,11.8,11.8,0,0,1-2-1A15.39,15.39,0,0,1,2.52,27.2,6.31,6.31,0,0,1,1.42,26,2.8,2.8,0,0,1,.68,24.5c0-.55.45-1,.86-1.45A6.13,6.13,0,0,1,2.68,21.8C3.18,21.45,3.62,21,4.08,20.68Z"/><path fill="url(#ysiViQRbfBxLxcp4UAbrTo)" d="M4.16,20.76A21.38,21.38,0,0,1,7,19.69q.51-.2,1-.37c.56-.19,1.14-.36,1.72-.51.93-.24,1.84-.58,2.81-.74s1.91-.19,2.87-.27,1.9-.12,2.87-.14,1.91-.09,2.88-.07a18.54,18.54,0,0,0,2.92,0c.3,0,.61,0,.91,0s.61.06.92,0,.61,0,.91,0,.61.13.91.14.61-.08.91-.07.62-.18.93-.16.6.35.9.38l.9.07c.31,0,.66-.26,1-.22s.57.42.86.47.64-.1.94,0,.6.15.89.22.61.13.89.21.57.26.84.36a9,9,0,0,1,.79.44,6.68,6.68,0,0,1,.79.41,17.76,17.76,0,0,1,4.43,1.36,10.53,10.53,0,0,1,4.39,3.38c-.13.47-.67.84-1,1.29a6.88,6.88,0,0,1-.8,1.29,9.63,9.63,0,0,1-1.11,1,10.56,10.56,0,0,1-1.64.62,14.16,14.16,0,0,1-1.57.84c-.55.17-1.18.08-1.76.22l-.67.17-1,.24c-.55.12-1.09.37-1.66.49l-.88.2c-.26.06-.52.13-.79.17-.57.1-1.18-.06-1.76,0s-1.13.47-1.72.55l-1.68.2c-.56.06-1.14,0-1.71.06s-1.13.11-1.7.13-1.14.08-1.7.08-1.16-.22-1.74-.23-1.17.18-1.75.15a3.13,3.13,0,0,1-.43-.06,12.85,12.85,0,0,0-1.29-.27c-.74-.07-1.48-.07-2.2-.17s-1.54-.13-2.29-.27-1.46-.16-2.17-.22a8.21,8.21,0,0,1-1.3-.24l-.86-.22a6.23,6.23,0,0,1-.66-.23,8.61,8.61,0,0,0-1-.31L8,29.92l-.46-.1a10.65,10.65,0,0,1-1.66-.5,11.39,11.39,0,0,1-2-1,15.84,15.84,0,0,1-1.29-1.18A6.43,6.43,0,0,1,1.48,26a2.75,2.75,0,0,1-.73-1.47c0-.54.43-.95.85-1.43a6.26,6.26,0,0,1,1.15-1.21C3.26,21.49,3.71,21,4.16,20.76Z"/><path fill="url(#ysiViQRbfBxLxcp4UAbrTp)" d="M4.23,20.84a21.53,21.53,0,0,1,2.93-1.15q.52-.21,1.06-.39c.58-.2,1.18-.37,1.78-.52a29.55,29.55,0,0,1,2.92-.72c1-.15,2-.2,3-.27s2-.1,3-.12,2-.06,3,0a18.77,18.77,0,0,0,3,0c.26,0,.54,0,.81,0s.55.05.82,0,.54,0,.81,0,.54.12.81.12.54-.07.81-.06.56-.15.83-.14.54.31.81.33l.81.07c.28,0,.59-.22.86-.18s.51.36.78.41.57-.09.84,0,.54.13.79.19.54.11.79.19.51.22.76.31.48.28.71.38a6.25,6.25,0,0,1,.71.35A19.16,19.16,0,0,1,42.4,21a11.12,11.12,0,0,1,4.7,3.56c-.15.45-.64.82-.94,1.26A7.15,7.15,0,0,1,45.37,27a9.34,9.34,0,0,1-1.06,1,9.76,9.76,0,0,1-1.61.66,13.55,13.55,0,0,1-1.56.8c-.54.17-1.17.11-1.74.25l-.67.17-1,.23c-.55.12-1.08.35-1.64.47l-.87.2-.78.17c-.57.11-1.16,0-1.74.08s-1.13.43-1.71.51l-1.66.21c-.56.06-1.12,0-1.69.08s-1.12.11-1.68.13-1.13.08-1.69.08-1.15-.19-1.72-.2-1.16.15-1.73.12l-.42-.05c-.43-.08-.85-.21-1.28-.24-.75-.06-1.5-.08-2.24-.18s-1.57-.14-2.33-.29a20,20,0,0,0-2.2-.21,8.72,8.72,0,0,1-1.32-.22l-.88-.21a5.39,5.39,0,0,1-.66-.24,7.76,7.76,0,0,0-1-.33l-.48-.11-.47-.1a10.2,10.2,0,0,1-1.68-.49,11,11,0,0,1-2-1A16.21,16.21,0,0,1,2.6,27.12a6.56,6.56,0,0,1-1.07-1.18,2.71,2.71,0,0,1-.7-1.46c0-.53.41-.95.83-1.42a6.41,6.41,0,0,1,1.17-1.18C3.33,21.53,3.8,21.09,4.23,20.84Z"/><path fill="url(#ysiViQRbfBxLxcp4UAbrTq)" d="M4.31,20.92a21.72,21.72,0,0,1,3-1.24q.54-.21,1.1-.4c.61-.2,1.22-.38,1.84-.54a29.83,29.83,0,0,1,3-.7c1-.14,2-.2,3.08-.27s2-.09,3.08-.1,2.06,0,3.09,0a19.44,19.44,0,0,0,3.13.05c.23,0,.48,0,.72,0s.48,0,.72,0,.48,0,.72,0,.48.1.72.1.48-.05.72,0,.49-.13.73-.11.47.26.71.28l.71.06c.25,0,.52-.18.76-.15s.45.31.69.34.5-.07.74,0l.7.16c.24.06.48.1.7.16s.45.19.67.26.43.23.63.32a5.86,5.86,0,0,1,.63.3A20.41,20.41,0,0,1,42,20.78a11.67,11.67,0,0,1,5,3.74,6.88,6.88,0,0,1-.9,1.22,7.5,7.5,0,0,1-.77,1.19,9,9,0,0,1-1,.95,9.08,9.08,0,0,1-1.57.7,13,13,0,0,1-1.56.77c-.54.17-1.15.14-1.72.28l-.66.16-1,.22c-.54.12-1.08.33-1.63.44l-.86.2-.77.17c-.56.11-1.15,0-1.72.12s-1.13.4-1.7.48l-1.64.21c-.55.06-1.11.05-1.67.1s-1.1.11-1.66.13-1.11.07-1.67.08-1.14-.15-1.71-.16-1.15.13-1.72.1l-.42,0c-.42-.07-.84-.18-1.27-.22-.76-.06-1.52-.09-2.27-.19s-1.59-.16-2.37-.31a18.39,18.39,0,0,0-2.23-.21,9.26,9.26,0,0,1-1.35-.2l-.89-.2a4.78,4.78,0,0,1-.67-.25,7.09,7.09,0,0,0-1-.34l-.49-.11-.48-.09A9.81,9.81,0,0,1,6,29.24a10.69,10.69,0,0,1-2.06-1,16.45,16.45,0,0,1-1.27-1.13,6.71,6.71,0,0,1-1.06-1.16A2.66,2.66,0,0,1,.9,24.47a2.3,2.3,0,0,1,.81-1.41,6.57,6.57,0,0,1,1.18-1.14C3.41,21.58,3.89,21.16,4.31,20.92Z"/><path fill="url(#ysiViQRbfBxLxcp4UAbrTr)" d="M4.38,21a22,22,0,0,1,3.11-1.32q.56-.22,1.14-.41c.63-.21,1.26-.39,1.9-.55A30.14,30.14,0,0,1,13.67,18c1-.14,2.11-.2,3.18-.26S19,17.69,20,17.7s2.13,0,3.2,0a20.76,20.76,0,0,0,3.24.1c.2,0,.41,0,.62,0s.41,0,.62,0,.41,0,.62,0,.41.08.62.09.41,0,.62,0,.42-.1.63-.08.41.21.62.23l.61.05c.21,0,.45-.14.65-.12s.4.25.6.28.44-.05.64,0l.6.13.61.13c.21.05.39.15.58.21s.37.19.55.26a5.54,5.54,0,0,1,.55.24,21.66,21.66,0,0,1,5.42,1.33,12.22,12.22,0,0,1,5.3,3.92,7.75,7.75,0,0,1-.86,1.19,8,8,0,0,1-.76,1.14,8.69,8.69,0,0,1-1,.92,8.48,8.48,0,0,1-1.54.74,12.38,12.38,0,0,1-1.56.73c-.54.17-1.13.17-1.69.3l-.66.16-.95.22c-.54.12-1.07.31-1.62.42l-.86.19-.76.17c-.56.11-1.14.06-1.7.17s-1.12.36-1.7.45l-1.62.22c-.55.07-1.1.07-1.65.12s-1.09.11-1.64.14-1.1.07-1.65.08-1.13-.11-1.7-.12-1.14.1-1.7.07l-.42,0c-.42-.06-.84-.15-1.26-.19-.77-.06-1.54-.1-2.3-.2s-1.62-.18-2.41-.33a17.08,17.08,0,0,0-2.26-.2,9.83,9.83,0,0,1-1.37-.18l-.91-.19a4.33,4.33,0,0,1-.68-.26,6.56,6.56,0,0,0-1-.36l-.49-.11-.48-.09A9.47,9.47,0,0,1,6,29.2,10.39,10.39,0,0,1,4,28.13,16.55,16.55,0,0,1,2.69,27a6.86,6.86,0,0,1-1-1.14A2.61,2.61,0,0,1,1,24.47a2.23,2.23,0,0,1,.79-1.4A6.75,6.75,0,0,1,3,22C3.49,21.62,4,21.23,4.38,21Z"/><path fill="url(#ysiViQRbfBxLxcp4UAbrTs)" d="M4.46,21.08a22.21,22.21,0,0,1,3.19-1.41q.58-.23,1.17-.42c.65-.21,1.3-.4,2-.56A30.46,30.46,0,0,1,14,18c1.08-.14,2.18-.21,3.28-.26s2.18-.06,3.28,0,2.2,0,3.3.08a23.29,23.29,0,0,0,3.35.15c.17,0,.35,0,.52,0s.35,0,.52,0l.52,0c.17,0,.35.07.52.07s.35,0,.52,0,.36-.07.53-.06.35.16.53.17l.52,0c.18,0,.38-.1.55-.08s.34.19.52.22.37,0,.54,0l.51.1.51.1c.17,0,.33.12.49.17s.32.14.47.2.32.14.47.19c2,.59,4,.63,5.74,1.33a12.76,12.76,0,0,1,5.6,4.09A9.11,9.11,0,0,1,46,25.67a8.53,8.53,0,0,1-.75,1.09,8.33,8.33,0,0,1-.94.9,8,8,0,0,1-1.5.78,11.84,11.84,0,0,1-1.55.7c-.54.17-1.12.2-1.67.33l-.65.15-.94.21c-.54.12-1.06.29-1.61.4l-.85.19-.75.16c-.56.11-1.13.11-1.69.21s-1.12.33-1.69.42l-1.6.23c-.54.07-1.09.09-1.63.14s-1.08.11-1.62.14-1.09.07-1.63.09-1.12-.08-1.68-.08-1.13.07-1.68,0l-.41,0c-.42,0-.83-.13-1.25-.16-.78-.06-1.56-.11-2.33-.21S16,31.17,15.14,31a16,16,0,0,0-2.29-.19,10.44,10.44,0,0,1-1.39-.16l-.92-.18a4,4,0,0,1-.68-.27,6.13,6.13,0,0,0-1-.38l-.5-.11-.49-.09a9.16,9.16,0,0,1-1.77-.48A10.1,10.1,0,0,1,4,28.06,16.47,16.47,0,0,1,2.73,27a7,7,0,0,1-1-1.12,2.56,2.56,0,0,1-.64-1.41,2.16,2.16,0,0,1,.77-1.39A7,7,0,0,1,3,22C3.57,21.67,4.07,21.31,4.46,21.08Z"/><path fill="url(#ysiViQRbfBxLxcp4UAbrTt)" d="M4.53,21.15a22.23,22.23,0,0,1,3.28-1.49q.6-.23,1.21-.43,1-.33,2-.57A30.8,30.8,0,0,1,14.41,18c1.12-.14,2.24-.21,3.38-.26s2.25,0,3.38,0,2.27.06,3.41.12A28.77,28.77,0,0,0,28,18h.42l.43,0,.42,0c.14,0,.28,0,.43.05h.42c.14,0,.29,0,.43,0s.29.11.44.12l.42,0c.15,0,.31-.06.45,0s.28.13.43.15.3,0,.44,0l.42.08.42.08c.14,0,.27.08.41.12s.26.1.39.14.26.1.39.13c2.13.53,4.2.61,6.07,1.32a13.31,13.31,0,0,1,5.91,4.27A11.48,11.48,0,0,1,46,25.64a9.31,9.31,0,0,1-.74,1,7.94,7.94,0,0,1-.9.87,7.5,7.5,0,0,1-1.47.82,11.32,11.32,0,0,1-1.55.66c-.53.16-1.1.23-1.65.36l-.64.15-.93.21c-.53.11-1.06.27-1.59.38l-.84.18-.75.16c-.55.11-1.11.15-1.67.25s-1.11.29-1.68.38L30,31.35c-.54.07-1.07.11-1.61.16s-1.07.11-1.6.14-1.07.07-1.61.09-1.11,0-1.67,0-1.12,0-1.67,0l-.41,0c-.42,0-.83-.1-1.24-.13-.79-.06-1.58-.12-2.36-.23s-1.67-.22-2.49-.37A15.1,15.1,0,0,0,13,30.77a11.08,11.08,0,0,1-1.42-.14c-.32-.05-.63-.11-.94-.18a3.69,3.69,0,0,1-.69-.28,5.78,5.78,0,0,0-1-.4l-.51-.11L8,29.58a8.9,8.9,0,0,1-1.79-.47A9.83,9.83,0,0,1,4,28a15.94,15.94,0,0,1-1.26-1,7.16,7.16,0,0,1-1-1.1,2.51,2.51,0,0,1-.62-1.4,2.1,2.1,0,0,1,.75-1.38,7.16,7.16,0,0,1,1.23-1C3.64,21.71,4.15,21.38,4.53,21.15Z"/><path fill="url(#ysiViQRbfBxLxcp4UAbrTu)" d="M4.61,21.23A22.64,22.64,0,0,1,8,19.65q.62-.24,1.25-.44,1-.34,2.08-.58A31.16,31.16,0,0,1,14.79,18c1.15-.14,2.31-.21,3.48-.25s2.32,0,3.48,0,2.34.08,3.51.16,2.38.19,3.57.25h.33l.33,0,.33,0,.33,0h.33c.11,0,.22,0,.34,0s.23.06.34.07l.32,0c.12,0,.24,0,.35,0s.23.07.34.09.23,0,.34,0l.32,0,.32,0,.32.07.31.08.31.08a39.64,39.64,0,0,1,6.4,1.31,13.86,13.86,0,0,1,6.21,4.45c-.22.37-.49.74-.74,1.1a10.24,10.24,0,0,1-.73,1,7.46,7.46,0,0,1-.86.85,7.1,7.1,0,0,1-1.44.86,10.82,10.82,0,0,1-1.55.63c-.53.16-1.09.26-1.63.38l-.64.14-.92.2L36.61,30l-.83.18-.74.16c-.55.11-1.1.19-1.65.3s-1.11.25-1.67.35l-1.55.24c-.53.07-1.06.13-1.6.18s-1.05.11-1.58.14-1.06.07-1.59.09-1.11,0-1.66,0-1.1,0-1.65,0l-.41,0-1.24-.1c-.8-.06-1.6-.13-2.4-.24s-1.69-.23-2.53-.39a14.35,14.35,0,0,0-2.35-.18,11.76,11.76,0,0,1-1.44-.12c-.32,0-.64-.1-1-.17a3.44,3.44,0,0,1-.7-.29,5.51,5.51,0,0,0-1-.42l-.51-.11L8,29.53a8.66,8.66,0,0,1-1.82-.47,9.57,9.57,0,0,1-2.16-1.14,15.63,15.63,0,0,1-1.25-1,7.39,7.39,0,0,1-1-1.08,2.46,2.46,0,0,1-.6-1.38,2,2,0,0,1,.74-1.36,7.44,7.44,0,0,1,1.24-1C3.72,21.76,4.24,21.45,4.61,21.23Z"/><path fill="url(#ysiViQRbfBxLxcp4UAbrTv)" d="M21.94,31.57l-1.23-.07a43.9,43.9,0,0,1-5-.66c-1.33-.25-2.52-.08-3.85-.26-.33,0-.66-.09-1-.16a3.28,3.28,0,0,1-.7-.3,5.22,5.22,0,0,0-1-.43,7.55,7.55,0,0,0-1-.19,8.94,8.94,0,0,1-4-1.63c-.9-.65-2.81-2.13-2.82-3.42s2.43-2.55,3.4-3.13a23.54,23.54,0,0,1,4.74-2.12c6.48-2.1,13.43-1.53,20.19-.95l3.75.33c5.2.45,9.69,1.57,13.24,5.93a12.19,12.19,0,0,1-2.24,2.84,11.47,11.47,0,0,1-5.19,2l-3.29.7c-1.84.39-3.69.79-5.56,1.06A43.79,43.79,0,0,1,21.94,31.57Z"/><path fill="url(#ysiViQRbfBxLxcp4UAbrTw)" d="M45.83,23.54a4,4,0,0,1-.6,2.12A6.51,6.51,0,0,1,42.53,28,16.65,16.65,0,0,1,39,29.37a34,34,0,0,1-3.57.76,59.88,59.88,0,0,1-6.39.63c-1.22.07-2.48.12-3.77.13H23.78c-1,0-2.06,0-3.06,0-.78,0-1.55,0-2.29-.09h0c-.66,0-1.29-.08-1.93-.14-1.52-.12-3-.29-4.32-.51A29.32,29.32,0,0,1,8,29.18a13.82,13.82,0,0,1-3.84-1.71,5.11,5.11,0,0,1-2.23-2.72,3.8,3.8,0,0,1-.18-1.21,4.91,4.91,0,0,1,.36-1.81,9.2,9.2,0,0,1,2.12-3.22,14.68,14.68,0,0,1,2.2-1.94,24.4,24.4,0,0,1,4.21-2.48,29,29,0,0,1,3.77-1.41,30.91,30.91,0,0,1,6.22-1.23,31.71,31.71,0,0,1,3.17-.16c.61,0,1.21,0,1.8.06h.24A31.54,31.54,0,0,1,34.19,13c.45.15.9.31,1.33.48a26.8,26.8,0,0,1,2.84,1.31,20.61,20.61,0,0,1,4.31,3,12.48,12.48,0,0,1,1.57,1.7,7.27,7.27,0,0,1,1.53,3.27A4.22,4.22,0,0,1,45.83,23.54Z"/><path fill="url(#ysiViQRbfBxLxcp4UAbrTx)" d="M45.83,23.54a4.22,4.22,0,0,0-.07-.75,6.75,6.75,0,0,0-1-2.49l-2.39.37c-.5-.67-1-1.33-1.5-2q1.25-.12,2.49-.17h0a4,4,0,0,0-.32-.3l-.44-.42-.14-.12A21.85,21.85,0,0,0,39.2,15.4c-.38,0-.77.08-1.15.14C37.52,15,37,14.5,36.41,14c-.43-.18-.88-.36-1.31-.52a31.45,31.45,0,0,0-8.31-1.9h-.24c-1.14.28-2.27.58-3.38.91-.47-.3-1-.63-1.59-1a30.76,30.76,0,0,0-6.25,1A17.27,17.27,0,0,1,18.86,14l-.59.22c-1,.39-2,.82-3,1.3a29.34,29.34,0,0,0-3.76-1.63,24.15,24.15,0,0,0-4.28,2.35,25.51,25.51,0,0,1,4.13,1.29c-.93.51-1.84,1.07-2.76,1.68A23.08,23.08,0,0,0,5,18.09a9.11,9.11,0,0,0-2.21,3.16,16.58,16.58,0,0,1,2.47.46A31.77,31.77,0,0,0,2.5,24.26a5.11,5.11,0,0,0,2.14,2.79A28.32,28.32,0,0,1,9,23.16a20.4,20.4,0,0,1,3.19,2.11l.39.33c-1.43,1-2.83,2.11-4.15,3.26a28.45,28.45,0,0,0,4.16,1c.81-.63,1.63-1.23,2.47-1.81a20.62,20.62,0,0,1,1.83,2.46c.63.07,1.27.14,1.93.18h0c.3,0,.61.06.91.07l1,0c1,0,2,0,3.06,0h1.1l.51-.3.14.29c1.19,0,2.34,0,3.47-.12h.25c-.27-.61-.53-1.22-.83-1.82q2.37-1.18,4.87-2.13a39.29,39.29,0,0,1,2.19,3.32c1.26-.21,2.41-.46,3.48-.75l.07,0c-.71-1.28-1.5-2.51-2.34-3.72,1.36-.42,2.73-.78,4.12-1.08a37.17,37.17,0,0,1,1.84,3.4,6.32,6.32,0,0,0,2.58-2.27.36.36,0,0,0,.07-.15c-.28-.57-.58-1.12-.89-1.66.47-.08.93-.15,1.41-.2A.39.39,0,0,0,45.83,23.54ZM31,14.14c1,.68,1.88,1.4,2.77,2.16-1.45.31-2.88.67-4.29,1.1-.88-.81-1.78-1.58-2.72-2.31C28.14,14.72,29.55,14.41,31,14.14Zm-15.45,9.5c-.39-.37-.8-.71-1.21-1A24.52,24.52,0,0,0,12.21,21c1-.6,2-1.15,3-1.64a26,26,0,0,1,3.45,2.46C17.58,22.43,16.57,23,15.56,23.64Zm4.83,6A27.43,27.43,0,0,0,18,26.2c1-.63,2.13-1.23,3.24-1.81a25.3,25.3,0,0,1,2.44,3.21C22.56,28.23,21.47,28.92,20.39,29.64ZM22,20.2l-.7-.65a26.74,26.74,0,0,0-2.4-1.87l.69-.28c1-.4,2-.77,3.06-1.11a36.86,36.86,0,0,1,3.07,2.36C24.43,19.13,23.2,19.64,22,20.2Zm4.75,5.73a29,29,0,0,0-2.26-3.06c1.35-.59,2.72-1.11,4.12-1.58C29.43,22.15,30.27,23,31,24,29.57,24.56,28.14,25.21,26.73,25.93Zm7.76-3.24c-.69-.86-1.41-1.7-2.17-2.5,1.48-.39,3-.7,4.47-1,.66.73,1.28,1.46,1.88,2.25C37.28,21.83,35.87,22.24,34.49,22.69Z"/><path fill="url(#ysiViQRbfBxLxcp4UAbrTa)" d="M14.44,19.52c-.95.52-1.93,1.1-2.92,1.73s-2.11,1.41-3.15,2.21a28.42,28.42,0,0,0-4.23,4,5.11,5.11,0,0,1-2.23-2.72,30,30,0,0,1,2.65-2.63,35.42,35.42,0,0,1,3.31-2.62q1.33-1,2.7-1.76A26,26,0,0,1,14.44,19.52Z"/><path fill="url(#ysiViQRbfBxLxcp4UAbrTa)" d="M30.13,13.79c-1.45.32-2.85.67-4.21,1.07s-2.79.84-4.12,1.34c-1,.37-2,.77-3,1.2l-.68.3a29.46,29.46,0,0,0-3.67-2.09c1-.51,2-1,3-1.38L18,14c1.37-.59,2.79-1.12,4.25-1.61,1.1-.37,2.21-.7,3.36-1h.24A32.86,32.86,0,0,1,30.13,13.79Z"/><path fill="url(#ysiViQRbfBxLxcp4UAbrTy)" d="M27.9,21c-1.37.51-2.73,1.07-4.06,1.7-1.08.5-2.16,1-3.19,1.61s-2.16,1.23-3.19,1.9A25.39,25.39,0,0,0,15,23.74c1-.66,2-1.27,3-1.87s2.19-1.21,3.31-1.75,2.42-1.14,3.67-1.65A38.79,38.79,0,0,1,27.9,21Z"/><path fill="url(#ysiViQRbfBxLxcp4UAbrTy)" d="M14.58,28.23c-.82.6-1.63,1.23-2.41,1.89A29.32,29.32,0,0,1,8,29.18c1.29-1.19,2.65-2.32,4-3.38A21,21,0,0,1,14.58,28.23Z"/><path fill="url(#ysiViQRbfBxLxcp4UAbrTy)" d="M42.66,17.83q-1.26.09-2.53.24c-1.37.16-2.73.38-4.08.65s-3,.66-4.45,1.08c-.93-.95-1.9-1.86-2.91-2.71,1.4-.47,2.81-.88,4.25-1.22s2.81-.65,4.24-.88c.38-.07.77-.13,1.15-.17A20.61,20.61,0,0,1,42.66,17.83Z"/><path fill="url(#ysiViQRbfBxLxcp4UAbrTz)" d="M25,30.41c-.27.16-.52.32-.77.5h-.43c-1,0-2.06,0-3.06,0-.78,0-1.55,0-2.29-.09.51-.4,1-.78,1.53-1.15,1-.76,2.12-1.49,3.22-2.16A25.85,25.85,0,0,1,25,30.41Z"/><path fill="url(#ysiViQRbfBxLxcp4UAbrTz)" d="M40.22,23.89q-2.06.52-4.08,1.21c-1.14.39-2.26.82-3.37,1.28q-2.46,1-4.8,2.27a29.55,29.55,0,0,0-1.79-3c1.4-.76,2.81-1.45,4.27-2.09,1.12-.5,2.26-1,3.4-1.37,1.37-.5,2.76-.95,4.15-1.34C38.79,21.86,39.52,22.85,40.22,23.89Z"/><path fill="url(#ysiViQRbfBxLxcp4UAbrTz)" d="M45.76,22.8c-.66.08-1.3.18-2,.31C43.16,22,42.44,21,41.69,20c.84-.17,1.68-.33,2.54-.47A7.27,7.27,0,0,1,45.76,22.8Z"/><path fill="url(#ysiViQRbfBxLxcp4UAbrTA)" d="M4.22,18.52a21.85,21.85,0,0,1,3.67,1,35.42,35.42,0,0,0-3.31,2.62,16.54,16.54,0,0,0-2.48-.39A9.2,9.2,0,0,1,4.22,18.52Z"/><path fill="url(#ysiViQRbfBxLxcp4UAbrTA)" d="M20,29.61c-.52.37-1,.75-1.53,1.15h0c-.66,0-1.29-.08-1.93-.14a23,23,0,0,0-1.91-2.4A21,21,0,0,0,12,25.8c-.13-.12-.27-.22-.4-.32a20,20,0,0,0-3.25-2c1-.81,2.1-1.55,3.15-2.21a22.76,22.76,0,0,1,2.19,1.48c.43.32.84.66,1.25,1a25.39,25.39,0,0,1,2.49,2.49A26.48,26.48,0,0,1,20,29.61Z"/><path fill="url(#ysiViQRbfBxLxcp4UAbrTB)" d="M21.27,20.12c-1.12.54-2.23,1.14-3.31,1.75a26,26,0,0,0-3.52-2.35,26,26,0,0,0-3.86-1.78,25.41,25.41,0,0,0-4.16-1.16,24.4,24.4,0,0,1,4.21-2.48,30,30,0,0,1,3.81,1.51A29.46,29.46,0,0,1,18.1,17.7a26.65,26.65,0,0,1,2.44,1.8Z"/><path fill="url(#ysiViQRbfBxLxcp4UAbrTB)" d="M29,30.76c-1.22.07-2.48.12-3.77.13-.07-.16-.16-.32-.24-.48a25.85,25.85,0,0,0-1.8-3,25.45,25.45,0,0,0-2.54-3.12c1-.58,2.11-1.12,3.19-1.61a29,29,0,0,1,2.34,3,29.55,29.55,0,0,1,1.79,3C28.34,29.34,28.67,30,29,30.76Z"/><path fill="url(#ysiViQRbfBxLxcp4UAbrTC)" d="M22.23,12.37c-1.46.5-2.88,1-4.25,1.61a17.32,17.32,0,0,0-3.57-1.29,30.91,30.91,0,0,1,6.22-1.23C21.2,11.77,21.74,12.08,22.23,12.37Z"/><path fill="url(#ysiViQRbfBxLxcp4UAbrTD)" d="M33.85,22.24c-1.14.42-2.28.88-3.4,1.37-.81-.9-1.66-1.76-2.55-2.59a38.79,38.79,0,0,0-3-2.55c-1-.82-2.06-1.57-3.14-2.27,1.33-.5,2.7-.93,4.12-1.34,1,.69,1.88,1.44,2.78,2.23s2,1.76,2.91,2.71C32.39,20.58,33.14,21.4,33.85,22.24Z"/><path fill="url(#ysiViQRbfBxLxcp4UAbrTE)" d="M39,29.37a34,34,0,0,1-3.57.76,41.93,41.93,0,0,0-2.62-3.75c1.11-.46,2.23-.89,3.37-1.28A45.53,45.53,0,0,1,39,29.37Z"/><path fill="url(#ysiViQRbfBxLxcp4UAbrTF)" d="M37.2,15c-1.43.23-2.85.53-4.24.88-.91-.74-1.85-1.43-2.83-2.08a32.86,32.86,0,0,0-4.3-2.42A31.54,31.54,0,0,1,34.19,13c.45.15.9.31,1.33.48C36.09,14,36.65,14.48,37.2,15Z"/><path fill="url(#ysiViQRbfBxLxcp4UAbrTF)" d="M45.23,25.67A6.51,6.51,0,0,1,42.53,28a33.6,33.6,0,0,0-2.32-4.12c-.69-1-1.43-2-2.21-3-.62-.76-1.27-1.49-1.95-2.19,1.35-.27,2.71-.48,4.08-.65.54.62,1,1.27,1.56,1.93.75,1,1.46,2,2.11,3.11C44.32,23.94,44.79,24.79,45.23,25.67Z"/><ellipse cx="15.52" cy="17.75" fill="url(#ysiViQRbfBxLxcp4UAbrTG)" opacity=".6" rx="11.73" ry="5.15" transform="rotate(-15.84 15.522 17.73)"/></svg>