<svg xmlns="http://www.w3.org/2000/svg" viewBox="0 0 48 48"><radialGradient id="p1Mhi~AxNXQOYqwSR39Boa" cx="23.592" cy="32.935" r="15.067" gradientUnits="userSpaceOnUse"><stop offset="0" stop-color="#eff2f7"/><stop offset=".183" stop-color="#c5c9d0"/><stop offset=".347" stop-color="#a6aab3"/><stop offset=".438" stop-color="#9a9fa8"/><stop offset=".56" stop-color="#7e838a"/><stop offset=".823" stop-color="#393a3e"/><stop offset="1" stop-color="#070708"/></radialGradient><path fill="url(#p1Mhi~AxNXQOYqwSR39Boa)" d="M33.056,40.768c0,1.353-4.055,2.449-9.056,2.449s-9.056-1.097-9.056-2.449 c0-0.314,0-0.689,0-0.689s5.215-1.76,9.056-1.76c3.934,0,9.048,1.795,9.048,1.795S33.056,40.48,33.056,40.768z"/><radialGradient id="p1Mhi~AxNXQOYqwSR39Bob" cx="24" cy="40.079" r="8.795" gradientTransform="matrix(1 0 0 .2787 0 28.91)" gradientUnits="userSpaceOnUse"><stop offset="0" stop-color="#070708"/><stop offset=".08" stop-color="#313336"/><stop offset=".177" stop-color="#5e6167"/><stop offset=".263" stop-color="#7f838a"/><stop offset=".332" stop-color="#9397a0"/><stop offset=".377" stop-color="#9a9fa8"/><stop offset=".418" stop-color="#a0a5ad"/><stop offset="1" stop-color="#eff2f7"/></radialGradient><ellipse cx="24" cy="40.079" fill="url(#p1Mhi~AxNXQOYqwSR39Bob)" rx="9.056" ry="2.449"/><radialGradient id="p1Mhi~AxNXQOYqwSR39Boc" cx="24.038" cy="35.15" r="4.389" gradientTransform="matrix(1 0 0 1.5408 0 -18.877)" gradientUnits="userSpaceOnUse"><stop offset="0" stop-color="#eff2f7"/><stop offset=".211" stop-color="#c5c9d0"/><stop offset=".4" stop-color="#a6aab3"/><stop offset=".505" stop-color="#9a9fa8"/><stop offset=".612" stop-color="#7e838a"/><stop offset=".844" stop-color="#393a3e"/><stop offset="1" stop-color="#070708"/></radialGradient><path fill="url(#p1Mhi~AxNXQOYqwSR39Boc)" d="M24.016,40.5h-0.032c-0.59,0-1.068-0.478-1.068-1.068V24.857c0-0.59,0.478-1.068,1.068-1.068 h0.032c0.59,0,1.068,0.478,1.068,1.068v14.575C25.084,40.022,24.606,40.5,24.016,40.5z"/><radialGradient id="p1Mhi~AxNXQOYqwSR39Bod" cx="24.408" cy="11.901" r="20.369" gradientTransform="matrix(1 0 0 .9005 0 1.184)" gradientUnits="userSpaceOnUse"><stop offset="0" stop-color="#eff2f7"/><stop offset=".114" stop-color="#e7eaef"/><stop offset=".294" stop-color="#d0d4da"/><stop offset=".517" stop-color="#abafb8"/><stop offset=".605" stop-color="#9a9fa8"/><stop offset=".699" stop-color="#6a6e74"/><stop offset=".796" stop-color="#404246"/><stop offset=".882" stop-color="#212224"/><stop offset=".953" stop-color="#0e0e0f"/><stop offset="1" stop-color="#070708"/></radialGradient><path fill="url(#p1Mhi~AxNXQOYqwSR39Bod)" d="M31.112,5.79c0.019,0.031,0.033,0.063,0.033,0.094c0,0.575-3.2,1.042-7.147,1.042 s-7.147-0.466-7.147-1.042c0-0.025,0.014-0.049,0.025-0.074c-0.928,1.907-2.793,6.507-2.793,12.671 c0,8.463,6.235,10.886,9.916,10.886s9.916-2.423,9.916-10.886C33.916,12.293,32.036,7.683,31.112,5.79z"/><radialGradient id="p1Mhi~AxNXQOYqwSR39Boe" cx="24.28" cy="15.305" r="9.783" gradientTransform="matrix(1 0 0 1.3173 0 -4.856)" gradientUnits="userSpaceOnUse"><stop offset=".153" stop-color="#db1128"/><stop offset=".289" stop-color="#d71127"/><stop offset=".428" stop-color="#cb1126"/><stop offset=".567" stop-color="#b71223"/><stop offset=".706" stop-color="#9a1220"/><stop offset=".846" stop-color="#76131b"/><stop offset=".985" stop-color="#491416"/><stop offset="1" stop-color="#441415"/></radialGradient><path fill="url(#p1Mhi~AxNXQOYqwSR39Boe)" d="M15.15,14.931c-0.135,1.112-0.215,2.299-0.215,3.552c0,7.922,5.698,10.036,9.065,10.036 c3.367,0,9.065-2.114,9.065-10.036c0-1.238-0.078-2.411-0.209-3.51L15.15,14.931z"/><radialGradient id="p1Mhi~AxNXQOYqwSR39Bof" cx="24.152" cy="15.952" r="17.464" gradientTransform="matrix(1 0 0 .2303 0 12.278)" gradientUnits="userSpaceOnUse"><stop offset="0" stop-color="#ed828d"/><stop offset="1" stop-color="#cf001c"/></radialGradient><ellipse cx="23.999" cy="14.931" fill="url(#p1Mhi~AxNXQOYqwSR39Bof)" rx="8.847" ry="1.32"/><linearGradient id="p1Mhi~AxNXQOYqwSR39Bog" x1="6.408" x2="30.815" y1="16.337" y2="16.337" gradientUnits="userSpaceOnUse"><stop offset=".359" stop-color="#fff" stop-opacity=".7"/><stop offset="1" stop-color="#fff" stop-opacity="0"/></linearGradient><path fill="url(#p1Mhi~AxNXQOYqwSR39Bog)" d="M18.476,5.557l3.878,0.051c0,0-2.603,4.516-2.603,11.916 s1.429,9.594,1.429,9.594s-5.205-0.714-5.205-11.533C15.975,10.507,18.476,5.557,18.476,5.557z" opacity=".78"/><radialGradient id="p1Mhi~AxNXQOYqwSR39Boh" cx="24.069" cy="6.78" r="15.525" gradientTransform="matrix(1.0204 0 0 .3608 -.496 6.381)" gradientUnits="userSpaceOnUse"><stop offset="0" stop-color="#eff2f7"/><stop offset=".114" stop-color="#e7eaef"/><stop offset=".294" stop-color="#d0d4da"/><stop offset=".517" stop-color="#abafb8"/><stop offset=".605" stop-color="#9a9fa8"/><stop offset=".699" stop-color="#6a6e74"/><stop offset=".796" stop-color="#404246"/><stop offset=".882" stop-color="#212224"/><stop offset=".953" stop-color="#0e0e0f"/><stop offset="1" stop-color="#070708"/></radialGradient><ellipse cx="23.998" cy="5.885" fill="url(#p1Mhi~AxNXQOYqwSR39Boh)" rx="7.147" ry="1.042"/><radialGradient id="p1Mhi~AxNXQOYqwSR39Boi" cx="23.998" cy="761.735" r="9.185" gradientTransform="matrix(1 0 0 .3536 0 -263.744)" gradientUnits="userSpaceOnUse"><stop offset="0" stop-color="#eff2f7"/><stop offset=".114" stop-color="#e7eaef"/><stop offset=".294" stop-color="#d0d4da"/><stop offset=".517" stop-color="#abafb8"/><stop offset=".605" stop-color="#9a9fa8"/><stop offset=".699" stop-color="#6a6e74"/><stop offset=".796" stop-color="#404246"/><stop offset=".882" stop-color="#212224"/><stop offset=".953" stop-color="#0e0e0f"/><stop offset="1" stop-color="#070708"/></radialGradient><path fill="url(#p1Mhi~AxNXQOYqwSR39Boi)" d="M31.145,5.885c-0.075,0.326-0.44,0.455-0.704,0.587c-0.287,0.132-0.585,0.231-0.884,0.328 c-0.603,0.172-1.216,0.295-1.831,0.402c-1.232,0.216-2.481,0.283-3.728,0.298c-1.247-0.014-2.497-0.082-3.728-0.297 c-0.615-0.107-1.228-0.231-1.831-0.403c-0.299-0.098-0.596-0.197-0.884-0.329c-0.264-0.132-0.629-0.261-0.703-0.587 c0.133,0.283,0.487,0.333,0.761,0.428c0.292,0.083,0.595,0.134,0.896,0.183c0.602,0.106,1.211,0.174,1.822,0.22 c1.22,0.097,2.444,0.147,3.667,0.146c1.223,0.002,2.447-0.048,3.668-0.145c0.61-0.047,1.22-0.115,1.822-0.221 c0.301-0.049,0.604-0.101,0.896-0.184C30.658,6.218,31.012,6.169,31.145,5.885z"/><radialGradient id="p1Mhi~AxNXQOYqwSR39Boj" cx="24.069" cy="6.007" r="15.525" gradientTransform="matrix(1.0204 0 0 .3608 -.496 5.589)" gradientUnits="userSpaceOnUse"><stop offset="0" stop-color="#eff2f7"/><stop offset=".114" stop-color="#e7eaef"/><stop offset=".294" stop-color="#d0d4da"/><stop offset=".517" stop-color="#abafb8"/><stop offset=".605" stop-color="#9a9fa8"/><stop offset=".699" stop-color="#6a6e74"/><stop offset=".796" stop-color="#404246"/><stop offset=".882" stop-color="#212224"/><stop offset=".953" stop-color="#0e0e0f"/><stop offset="1" stop-color="#070708"/></radialGradient><ellipse cx="23.998" cy="5.885" fill="url(#p1Mhi~AxNXQOYqwSR39Boj)" rx="7.147" ry="1.042"/></svg>