<svg xmlns="http://www.w3.org/2000/svg" viewBox="0 0 48 48"><radialGradient id="AeIXDAYtMyHoHgUN7POdba" cx="13.228" cy="55.701" r="12.648" gradientTransform="matrix(1.0103 0 0 .8182 5.5 -40.991)" gradientUnits="userSpaceOnUse"><stop offset="0" stop-color="#ffa726"/><stop offset=".245" stop-color="#ffa222"/><stop offset=".552" stop-color="#ff9218"/><stop offset=".889" stop-color="#ff7907"/><stop offset="1" stop-color="#ff6f00"/></radialGradient><path fill="url(#AeIXDAYtMyHoHgUN7POdba)" d="M37.246,11.429c2.145,6.857,1.933,7.541,2.353,10.413c0.392,2.682,1.572,6.33-3.509,10.421	C34.503,33.54,30.09,37,24.377,37h-0.754c-5.713,0-10.126-3.46-11.712-4.737c-5.082-4.091-3.901-7.739-3.509-10.421	c0.419-2.873,0.208-3.556,2.353-10.413C11.816,8.034,16,1,24,1C32,1,36.184,8.034,37.246,11.429z"/><radialGradient id="AeIXDAYtMyHoHgUN7POdbb" cx="18.459" cy="11.602" r="17.589" gradientTransform="matrix(1.0574 0 0 .9442 4.48 14.045)" gradientUnits="userSpaceOnUse"><stop offset=".38" stop-color="#ddb993"/><stop offset=".442" stop-color="#d8b08a"/><stop offset=".616" stop-color="#cb9c76"/><stop offset=".734" stop-color="#c7956f"/><stop offset=".795" stop-color="#cd9f79"/><stop offset=".892" stop-color="#ddb993"/><stop offset=".929" stop-color="#dbb690"/><stop offset=".955" stop-color="#d6ad87"/><stop offset=".978" stop-color="#cd9e78"/><stop offset=".999" stop-color="#c08862"/><stop offset="1" stop-color="#bf8660"/></radialGradient><ellipse cx="24" cy="25" fill="url(#AeIXDAYtMyHoHgUN7POdbb)" rx="19" ry="17"/><radialGradient id="AeIXDAYtMyHoHgUN7POdbc" cx="18.459" cy="11.602" r="17.383" gradientTransform="matrix(1.0574 0 0 .9479 4.48 14.002)" gradientUnits="userSpaceOnUse"><stop offset="0" stop-color="#ddb993" stop-opacity="0"/><stop offset=".403" stop-color="#dbb791" stop-opacity=".403"/><stop offset=".611" stop-color="#d6af89" stop-opacity=".611"/><stop offset=".775" stop-color="#cda27c" stop-opacity=".775"/><stop offset=".915" stop-color="#c08f6a" stop-opacity=".915"/><stop offset="1" stop-color="#b57f5b"/></radialGradient><path fill="url(#AeIXDAYtMyHoHgUN7POdbc)" d="M43,25c0-6.523-5.053-12.079-10.556-14.939C29.532,8.546,26.558,8,24,8 c-2.555,0-5.535,0.55-8.444,2.061C10.049,12.92,5,18.473,5,25c0,8.5,9.5,17,19,17S43,33.5,43,25z"/><path fill="#D4AC86" d="M28.254,16.05c-1.985,0-4.254,1.408-4.254,1.408s-1.701-1.408-4.254-1.408 c-4.254,0-5.696,4.588-5.696,8.343c0,3.375,5,8.582,5,8.582h9.9c0,0,5-5.208,5-8.582C33.95,20.638,32.507,16.05,28.254,16.05z" opacity=".025"/><path fill="#D4AB85" d="M28.221,16.1c-1.97,0-4.221,1.4-4.221,1.4s-1.689-1.4-4.221-1.4 c-4.221,0-5.679,4.562-5.679,8.295c0,3.371,5,8.555,5,8.555h9.8c0,0,5-5.185,5-8.555C33.9,20.662,32.443,16.1,28.221,16.1z" opacity=".05"/><path fill="#D3AA84" d="M28.189,16.15c-1.955,0-4.189,1.391-4.189,1.391s-1.676-1.391-4.189-1.391 c-4.189,0-5.661,4.536-5.661,8.246c0,3.367,5,8.529,5,8.529h9.7c0,0,5-5.162,5-8.529C33.85,20.686,32.379,16.15,28.189,16.15z" opacity=".075"/><path fill="#D3A983" d="M28.157,16.2c-1.94,0-4.157,1.383-4.157,1.383S22.337,16.2,19.843,16.2 c-4.157,0-5.643,4.511-5.643,8.198c0,3.363,5,8.502,5,8.502h9.6c0,0,5-5.138,5-8.502C33.8,20.711,32.314,16.2,28.157,16.2z" opacity=".1"/><path fill="#D2A882" d="M28.125,16.25C26.2,16.25,24,17.624,24,17.624s-1.65-1.374-4.125-1.374 c-4.125,0-5.625,4.485-5.625,8.15c0,3.36,5,8.475,5,8.475h9.5c0,0,5-5.115,5-8.475C33.75,20.735,32.25,16.25,28.125,16.25z" opacity=".125"/><path fill="#D2A781" d="M28.093,16.3c-1.91,0-4.093,1.366-4.093,1.366S22.363,16.3,19.907,16.3 c-4.093,0-5.607,4.46-5.607,8.102c0,3.356,5,8.448,5,8.448h9.4c0,0,5-5.092,5-8.448C33.7,20.76,32.186,16.3,28.093,16.3z" opacity=".15"/><path fill="#D1A680" d="M28.061,16.35c-1.895,0-4.061,1.357-4.061,1.357s-1.624-1.357-4.061-1.357 c-4.061,0-5.589,4.434-5.589,8.053c0,3.352,5,8.422,5,8.422h9.3c0,0,5-5.069,5-8.422C33.65,20.784,32.121,16.35,28.061,16.35z" opacity=".175"/><path fill="#D1A57F" d="M28.029,16.4c-1.88,0-4.029,1.349-4.029,1.349S22.389,16.4,19.971,16.4 c-4.029,0-5.571,4.409-5.571,8.005c0,3.349,5,8.395,5,8.395h9.2c0,0,5-5.046,5-8.395C33.6,20.809,32.057,16.4,28.029,16.4z" opacity=".2"/><path fill="#D0A47E" d="M27.996,16.45c-1.865,0-3.996,1.34-3.996,1.34s-1.599-1.34-3.996-1.34 c-3.996,0-5.554,4.383-5.554,7.957c0,3.345,5,8.368,5,8.368h9.1c0,0,5-5.023,5-8.368C33.55,20.833,31.993,16.45,27.996,16.45z" opacity=".225"/><path fill="#CFA37D" d="M27.964,16.5c-1.85,0-3.964,1.332-3.964,1.332S22.414,16.5,20.036,16.5 c-3.964,0-5.536,4.357-5.536,7.909c0,3.341,5,8.341,5,8.341h9c0,0,5-5,5-8.341C33.5,20.857,31.929,16.5,27.964,16.5z" opacity=".25"/><path fill="#CFA27C" d="M27.932,16.55c-1.835,0-3.932,1.323-3.932,1.323s-1.573-1.323-3.932-1.323 c-3.932,0-5.518,4.332-5.518,7.86c0,3.338,5,8.315,5,8.315h8.9c0,0,5-4.977,5-8.315C33.45,20.882,31.864,16.55,27.932,16.55z" opacity=".275"/><path fill="#CEA17B" d="M27.9,16.6c-1.82,0-3.9,1.315-3.9,1.315S22.44,16.6,20.1,16.6c-3.9,0-5.5,4.306-5.5,7.812 c0,3.334,5,8.288,5,8.288h8.8c0,0,5-4.954,5-8.288C33.4,20.906,31.8,16.6,27.9,16.6z" opacity=".3"/><path fill="#CEA07A" d="M27.868,16.65c-1.805,0-3.868,1.306-3.868,1.306s-1.547-1.306-3.868-1.306 c-3.868,0-5.482,4.281-5.482,7.764c0,3.33,5,8.261,5,8.261h8.7c0,0,5-4.931,5-8.261C33.35,20.931,31.736,16.65,27.868,16.65z" opacity=".325"/><path fill="#CD9F79" d="M27.836,16.7c-1.79,0-3.836,1.298-3.836,1.298S22.466,16.7,20.164,16.7 c-3.836,0-5.464,4.255-5.464,7.716c0,3.327,5,8.234,5,8.234h8.6c0,0,5-4.908,5-8.234C33.3,20.955,31.671,16.7,27.836,16.7z" opacity=".35"/><path fill="#CD9E78" d="M27.804,16.75c-1.775,0-3.804,1.289-3.804,1.289s-1.521-1.289-3.804-1.289 c-3.804,0-5.446,4.229-5.446,7.667c0,3.323,5,8.208,5,8.208h8.5c0,0,5-4.885,5-8.208C33.25,20.979,31.607,16.75,27.804,16.75z" opacity=".375"/><path fill="#CC9D77" d="M27.771,16.8c-1.76,0-3.771,1.281-3.771,1.281S22.491,16.8,20.229,16.8 c-3.771,0-5.429,4.204-5.429,7.619c0,3.319,5,8.181,5,8.181h8.4c0,0,5-4.862,5-8.181C33.2,21.004,31.543,16.8,27.771,16.8z" opacity=".4"/><path fill="#CC9C76" d="M27.739,16.85c-1.745,0-3.739,1.272-3.739,1.272s-1.496-1.272-3.739-1.272 c-3.739,0-5.411,4.178-5.411,7.571c0,3.316,5,8.154,5,8.154h8.3c0,0,5-4.838,5-8.154C33.15,21.028,31.479,16.85,27.739,16.85z" opacity=".425"/><path fill="#CB9B75" d="M27.707,16.9c-1.73,0-3.707,1.264-3.707,1.264S22.517,16.9,20.293,16.9 c-3.707,0-5.393,4.153-5.393,7.523c0,3.312,5,8.127,5,8.127h8.2c0,0,5-4.815,5-8.127C33.1,21.053,31.414,16.9,27.707,16.9z" opacity=".45"/><path fill="#CB9A74" d="M27.675,16.95C25.96,16.95,24,18.205,24,18.205s-1.47-1.255-3.675-1.255 c-3.675,0-5.375,4.127-5.375,7.475c0,3.308,5,8.1,5,8.1h8.1c0,0,5-4.792,5-8.1C33.05,21.077,31.35,16.95,27.675,16.95z" opacity=".475"/><path fill="#CA9A74" d="M27.643,17C25.943,17,24,18.247,24,18.247S22.543,17,20.357,17 C16.714,17,15,21.101,15,24.426c0,3.304,5,8.074,5,8.074h8c0,0,5-4.769,5-8.074C33,21.101,31.286,17,27.643,17z" opacity=".5"/><path fill="#C99973" d="M27.611,17.05c-1.685,0-3.611,1.238-3.611,1.238s-1.444-1.238-3.611-1.238 c-3.611,0-5.339,4.076-5.339,7.378c0,3.301,5,8.047,5,8.047h7.9c0,0,5-4.746,5-8.047C32.95,21.126,31.221,17.05,27.611,17.05z" opacity=".525"/><path fill="#C99872" d="M27.579,17.1c-1.67,0-3.579,1.23-3.579,1.23s-1.431-1.23-3.579-1.23 c-3.579,0-5.321,4.05-5.321,7.33c0,3.297,5,8.02,5,8.02h7.8c0,0,5-4.723,5-8.02C32.9,21.15,31.157,17.1,27.579,17.1z" opacity=".55"/><path fill="#C89771" d="M27.546,17.15c-1.655,0-3.546,1.221-3.546,1.221s-1.419-1.221-3.546-1.221 c-3.546,0-5.304,4.025-5.304,7.282c0,3.293,5,7.993,5,7.993h7.7c0,0,5-4.7,5-7.993C32.85,21.175,31.093,17.15,27.546,17.15z" opacity=".575"/><path fill="#C89670" d="M27.514,17.2c-1.64,0-3.514,1.213-3.514,1.213S22.594,17.2,20.486,17.2 c-3.514,0-5.286,3.999-5.286,7.233c0,3.29,5,7.967,5,7.967h7.6c0,0,5-4.677,5-7.967C32.8,21.199,31.029,17.2,27.514,17.2z" opacity=".6"/><path fill="#C7956F" d="M27.482,17.25c-1.625,0-3.482,1.204-3.482,1.204s-1.393-1.204-3.482-1.204 c-3.482,0-5.268,3.974-5.268,7.185c0,3.286,5,7.94,5,7.94h7.5c0,0,5-4.654,5-7.94C32.75,21.224,30.964,17.25,27.482,17.25z" opacity=".625"/><path fill="#C7946E" d="M27.45,17.3c-1.61,0-3.45,1.196-3.45,1.196S22.62,17.3,20.55,17.3 c-3.45,0-5.25,3.948-5.25,7.137c0,3.282,5,7.913,5,7.913h7.4c0,0,5-4.631,5-7.913C32.7,21.248,30.9,17.3,27.45,17.3z" opacity=".65"/><path fill="#C6936D" d="M27.418,17.35c-1.595,0-3.418,1.187-3.418,1.187s-1.367-1.187-3.418-1.187 c-3.418,0-5.232,3.922-5.232,7.089c0,3.279,5,7.886,5,7.886h7.3c0,0,5-4.608,5-7.886C32.65,21.272,30.836,17.35,27.418,17.35z" opacity=".675"/><path fill="#C6926C" d="M27.386,17.4c-1.58,0-3.386,1.179-3.386,1.179S22.646,17.4,20.614,17.4 c-3.386,0-5.214,3.897-5.214,7.04c0,3.275,5,7.86,5,7.86h7.2c0,0,5-4.585,5-7.86C32.6,21.297,30.771,17.4,27.386,17.4z" opacity=".7"/><path fill="#C5916B" d="M27.354,17.45c-1.565,0-3.354,1.17-3.354,1.17s-1.341-1.17-3.354-1.17 c-3.354,0-5.196,3.871-5.196,6.992c0,3.271,5,7.833,5,7.833h7.1c0,0,5-4.562,5-7.833C32.55,21.321,30.707,17.45,27.354,17.45z" opacity=".725"/><path fill="#C5906A" d="M27.321,17.5c-1.55,0-3.321,1.162-3.321,1.162S22.671,17.5,20.679,17.5 c-3.321,0-5.179,3.846-5.179,6.944c0,3.268,5,7.806,5,7.806h7c0,0,5-4.538,5-7.806C32.5,21.346,30.643,17.5,27.321,17.5z" opacity=".75"/><path fill="#C48F69" d="M27.289,17.55c-1.535,0-3.289,1.153-3.289,1.153s-1.316-1.153-3.289-1.153 c-3.289,0-5.161,3.82-5.161,6.896c0,3.264,5,7.779,5,7.779h6.9c0,0,5-4.515,5-7.779C32.45,21.37,30.579,17.55,27.289,17.55z" opacity=".775"/><path fill="#C38E68" d="M27.257,17.6c-1.52,0-3.257,1.145-3.257,1.145S22.697,17.6,20.743,17.6 c-3.257,0-5.143,3.794-5.143,6.847c0,3.26,5,7.753,5,7.753h6.8c0,0,5-4.492,5-7.753C32.4,21.394,30.514,17.6,27.257,17.6z" opacity=".8"/><path fill="#C38D67" d="M27.225,17.65C25.72,17.65,24,18.786,24,18.786s-1.29-1.136-3.225-1.136 c-3.225,0-5.125,3.769-5.125,6.799c0,3.257,5,7.726,5,7.726h6.7c0,0,5-4.469,5-7.726C32.35,21.419,30.45,17.65,27.225,17.65z" opacity=".825"/><path fill="#C28C66" d="M27.193,17.7c-1.49,0-3.193,1.128-3.193,1.128S22.723,17.7,20.807,17.7 c-3.193,0-5.107,3.743-5.107,6.751c0,3.253,5,7.699,5,7.699h6.6c0,0,5-4.446,5-7.699C32.3,21.443,30.386,17.7,27.193,17.7z" opacity=".85"/><path fill="#C28B65" d="M27.161,17.75c-1.475,0-3.161,1.119-3.161,1.119s-1.264-1.119-3.161-1.119 c-3.161,0-5.089,3.718-5.089,6.703c0,3.249,5,7.672,5,7.672h6.5c0,0,5-4.423,5-7.672C32.25,21.468,30.321,17.75,27.161,17.75z" opacity=".875"/><path fill="#C18A64" d="M27.129,17.8c-1.46,0-3.129,1.111-3.129,1.111S22.749,17.8,20.871,17.8 c-3.129,0-5.071,3.692-5.071,6.654c0,3.246,5,7.646,5,7.646h6.4c0,0,5-4.4,5-7.646C32.2,21.492,30.257,17.8,27.129,17.8z" opacity=".9"/><path fill="#C18963" d="M27.096,17.85c-1.445,0-3.096,1.102-3.096,1.102s-1.239-1.102-3.096-1.102 c-3.096,0-5.054,3.667-5.054,6.606c0,3.242,5,7.619,5,7.619h6.3c0,0,5-4.377,5-7.619C32.15,21.517,30.193,17.85,27.096,17.85z" opacity=".925"/><path fill="#C08862" d="M27.064,17.9c-1.43,0-3.064,1.094-3.064,1.094S22.774,17.9,20.936,17.9 c-3.064,0-5.036,3.641-5.036,6.558c0,3.238,5,7.592,5,7.592h6.2c0,0,5-4.354,5-7.592C32.1,21.541,30.129,17.9,27.064,17.9z" opacity=".95"/><path fill="#C08761" d="M27.032,17.95c-1.415,0-3.032,1.085-3.032,1.085s-1.213-1.085-3.032-1.085 c-3.032,0-5.018,3.615-5.018,6.51c0,3.234,5,7.565,5,7.565h6.1c0,0,5-4.331,5-7.565C32.05,21.565,30.064,17.95,27.032,17.95z" opacity=".975"/><path fill="#BF8660" d="M27,18c-1.4,0-3,1.077-3,1.077S22.8,18,21,18c-3,0-5,3.59-5,6.462C16,27.692,21,32,21,32h6 c0,0,5-4.308,5-7.538C32,21.59,30,18,27,18z"/><radialGradient id="AeIXDAYtMyHoHgUN7POdbd" cx="23.868" cy="11.111" r="11.023" gradientTransform="matrix(1 0 0 1.2828 0 17.465)" gradientUnits="userSpaceOnUse"><stop offset="0" stop-color="#ffa726"/><stop offset=".245" stop-color="#ffa222"/><stop offset=".552" stop-color="#ff9218"/><stop offset=".889" stop-color="#ff7907"/><stop offset="1" stop-color="#ff6f00"/></radialGradient><path fill="url(#AeIXDAYtMyHoHgUN7POdbd)" d="M34.138,37.629C34.138,33.492,29,26,26,25h-4c-3,1-8.138,8.492-8.138,12.629	C13.862,43.012,17.849,47,24,47S34.138,43.012,34.138,37.629z"/><radialGradient id="AeIXDAYtMyHoHgUN7POdbe" cx="24.047" cy="16.82" r="9.728" gradientTransform="matrix(1 0 0 1.233 0 17.046)" gradientUnits="userSpaceOnUse"><stop offset="0" stop-color="#ffa726" stop-opacity="0"/><stop offset=".225" stop-color="#fea223" stop-opacity=".225"/><stop offset=".505" stop-color="#f9921a" stop-opacity=".505"/><stop offset=".814" stop-color="#f2790b" stop-opacity=".814"/><stop offset="1" stop-color="#ed6600"/></radialGradient><path fill="url(#AeIXDAYtMyHoHgUN7POdbe)" d="M34.138,37.629C34.138,33.492,29,26,26,25h-4c-3,1-8.138,8.492-8.138,12.629	C13.862,43.012,17.849,47,24,47S34.138,43.012,34.138,37.629z"/><path fill="#DDB993" d="M30,31.054c0-2.527-3.237-6.279-5.037-7.012h-1.925C21.237,24.775,18,28.528,18,31.054	C18,35,20.686,38,24,38S30,35,30,31.054z"/><linearGradient id="AeIXDAYtMyHoHgUN7POdbf" x1="24" x2="24" y1="33" y2="24.043" gradientUnits="userSpaceOnUse"><stop offset="0" stop-color="#b57f5b"/><stop offset=".064" stop-color="#ddb993" stop-opacity="0"/></linearGradient><path fill="url(#AeIXDAYtMyHoHgUN7POdbf)" d="M27,31.054c0-2.527-0.237-6.279-2.037-7.012h-1.925C21.237,24.775,21,28.528,21,31.054	c0,0.68-2.149,1.332-2,1.946h10C29.149,32.387,27,31.735,27,31.054z"/><g><path fill="#DDB993" d="M27.373,28.981C27.708,28.564,28,27.993,28,27.266c0-1.308-1.892-2.615-2.767-3.15 c-0.253-0.155-2.214-0.155-2.467,0C21.892,24.65,20,25.958,20,27.266c0,0.738,0.302,1.316,0.643,1.734"/><radialGradient id="AeIXDAYtMyHoHgUN7POdbg" cx="79.524" cy="70.588" r="4.955" gradientTransform="matrix(.8254 0 0 1.0213 -41.683 -43.424)" gradientUnits="userSpaceOnUse"><stop offset="0" stop-color="#ddb993" stop-opacity="0"/><stop offset=".483" stop-color="#ddb993" stop-opacity="0"/><stop offset=".566" stop-color="#ddb993" stop-opacity="0"/><stop offset=".666" stop-color="#d8b28c" stop-opacity=".23"/><stop offset=".815" stop-color="#c99d79" stop-opacity=".573"/><stop offset=".994" stop-color="#b17c59" stop-opacity=".985"/><stop offset="1" stop-color="#b07b58"/></radialGradient><path fill="url(#AeIXDAYtMyHoHgUN7POdbg)" d="M27.373,28.981C27.708,28.564,28,27.993,28,27.266c0-1.308-1.892-2.615-2.767-3.15 c-0.253-0.155-2.214-0.155-2.467,0C21.892,24.65,20,25.958,20,27.266c0,0.738,0.302,1.316,0.643,1.734"/><path fill="#3A1A0F" d="M26.877,26.071c0.312,0.302-0.026,1.353-0.412,1.662s-0.953,0.315-1.265,0.012s-0.252-0.798,0.134-1.107 C25.721,26.33,26.565,25.769,26.877,26.071z"/><path fill="#3A1A0F" d="M22.666,26.639c0.386,0.309,0.447,0.805,0.134,1.107s-0.879,0.297-1.265-0.012s-0.725-1.36-0.412-1.662 S22.279,26.33,22.666,26.639z"/></g><radialGradient id="AeIXDAYtMyHoHgUN7POdbh" cx="23.955" cy="33.339" r="5.011" gradientTransform="matrix(1 0 0 .526 0 15.804)" gradientUnits="userSpaceOnUse"><stop offset=".532" stop-color="#cc9d77"/><stop offset="1" stop-color="#ddb993" stop-opacity="0"/></radialGradient><path fill="url(#AeIXDAYtMyHoHgUN7POdbh)" d="M29,33c0,0-1,3-5,3s-5-3-5-3s3,1,5,0.5C26,34,29,33,29,33z"/><path fill="#3A1A0F" d="M19,33c0,0,0,0,5,0s5,0,5,0c-0.624,0.897-3,1-5,1S19.631,33.896,19,33z"/><g><path fill="#212121" d="M29.967,21.88c0-1.443-1.105-2.613-2.467-2.613c-1.362,0-2.467,1.17-2.467,2.613 c0,0.373,1.105,1.12,2.467,1.12C28.863,23,29.967,22.253,29.967,21.88z"/><radialGradient id="AeIXDAYtMyHoHgUN7POdbi" cx="-3.064" cy="-3.522" r="1.687" gradientTransform="matrix(1.1031 0 0 1.1065 30.861 25.03)" gradientUnits="userSpaceOnUse"><stop offset="0" stop-color="#5d4037"/><stop offset=".356" stop-color="#5b3f36"/><stop offset=".539" stop-color="#533a33"/><stop offset=".683" stop-color="#46332d"/><stop offset=".805" stop-color="#332825"/><stop offset=".914" stop-color="#1b1a1a"/><stop offset=".916" stop-color="#1a1a1a"/></radialGradient><ellipse cx="27.481" cy="21.133" fill="url(#AeIXDAYtMyHoHgUN7POdbi)" rx="1.861" ry="1.867"/><path fill="#DDB993" d="M29.967,21.88c-0.115-0.655-1.245-2.213-2.486-2.213c-1.241,0-2.332,1.558-2.448,2.213 c-0.115-0.657,0.072-1.387,0.527-1.945c0.444-0.565,1.179-0.938,1.94-0.935c0.761-0.002,1.496,0.371,1.939,0.936 C29.894,20.494,30.082,21.223,29.967,21.88z"/><radialGradient id="AeIXDAYtMyHoHgUN7POdbj" cx="-5.549" cy="138.277" r="1.198" gradientTransform="translate(32.132 -94.42) scale(.8347)" gradientUnits="userSpaceOnUse"><stop offset="0" stop-color="#1c1911"/><stop offset=".999" stop-color="#171714"/></radialGradient><circle cx="27.5" cy="21" r="1" fill="url(#AeIXDAYtMyHoHgUN7POdbj)"/><circle cx="27.023" cy="20.495" r=".338" fill="#FFF"/></g><g><path fill="#212121" d="M22.967,21.88c0-1.443-1.105-2.613-2.467-2.613c-1.362,0-2.467,1.17-2.467,2.613 c0,0.373,1.105,1.12,2.467,1.12C21.863,23,22.967,22.253,22.967,21.88z"/><radialGradient id="AeIXDAYtMyHoHgUN7POdbk" cx="-9.409" cy="-3.522" r="1.687" gradientTransform="matrix(1.1031 0 0 1.1065 30.861 25.03)" gradientUnits="userSpaceOnUse"><stop offset="0" stop-color="#5d4037"/><stop offset=".356" stop-color="#5b3f36"/><stop offset=".539" stop-color="#533a33"/><stop offset=".683" stop-color="#46332d"/><stop offset=".805" stop-color="#332825"/><stop offset=".914" stop-color="#1b1a1a"/><stop offset=".916" stop-color="#1a1a1a"/></radialGradient><ellipse cx="20.481" cy="21.133" fill="url(#AeIXDAYtMyHoHgUN7POdbk)" rx="1.861" ry="1.867"/><path fill="#DDB993" d="M22.967,21.88c-0.115-0.655-1.245-2.213-2.486-2.213c-1.241,0-2.332,1.558-2.448,2.213 c-0.115-0.657,0.072-1.387,0.527-1.945c0.444-0.565,1.179-0.938,1.94-0.935c0.761-0.002,1.496,0.371,1.939,0.936 C22.894,20.494,23.082,21.223,22.967,21.88z"/><radialGradient id="AeIXDAYtMyHoHgUN7POdbl" cx="-13.935" cy="138.277" r="1.198" gradientTransform="translate(32.132 -94.42) scale(.8347)" gradientUnits="userSpaceOnUse"><stop offset="0" stop-color="#1c1911"/><stop offset=".999" stop-color="#171714"/></radialGradient><circle cx="20.5" cy="21" r="1" fill="url(#AeIXDAYtMyHoHgUN7POdbl)"/><circle cx="20.023" cy="20.495" r=".338" fill="#FFF"/></g></svg>