<svg xmlns="http://www.w3.org/2000/svg" viewBox="0 0 48 48"><path fill="#1c1c1c" d="M26.114,26.024C25.613,25.273,24.146,34,23,34c-1.201,0-2.837,1.648-3.114,3.718	c-0.098,0.733-0.903,2.291-1.256,3.123c-0.19,0.447-0.76,1.16-1.351,1.16c-1.08,0-1.953,0.07-1.953-0.365	c0-0.372,1.402-0.561,1.624-4.989c0.106-2.123,0.608-3.859-1.168-5.258c-1.772-1.396-1.888-4.401-4.209-4.401L26.114,26.024z"/><path fill="#1c1c1c" d="M32.465,31.39c-0.735,1.741-1.839,2.766-2.217,3.683c-0.378,0.918-0.75,2.849-0.858,3.659	s-0.162,1.35-0.324,2.105C28.905,41.593,28.635,42,27.663,42c-0.972,0-1.781,0.025-1.727-0.299c0.054-0.324,0.915-0.756,0.915-1.781	c0-2.017-1.353-2.299-2.074-3.38C24.276,35.789,23.146,34,22,34L32.465,31.39z"/><path fill="#1c1c1c" d="M2,28.491c0-0.601,1.83-0.935,2.461-2.326c1.905-4.205,3.513-3.562,4.149-3.818 c2.962-1.191,4.55,1.198,6.379,1.198C16.938,23.545,18.713,17,25,17c4.589,0,7.553,3.131,8.013,2.381C33.472,18.63,26,15.762,26,10 c0-3.617,2.147-6,7.808-6C38.837,4,46,8.105,46,14c0,3.201-0.94,5-3,5c-3.787,0-2.841-6-5-6c-0.459,0-0.91,0.559-0.91,1.617 C37.09,16.611,39,18.87,39,21c0,3.188-2,4.113-2,5.138c0,2.425,0.164,4.143-0.576,6.153c-0.856,2.324-1.547,2.362-2.176,3.782 c-0.401,0.908-0.75,2.849-0.858,3.659c-0.108,0.81-0.162,1.35-0.324,2.105C32.905,42.593,32.635,43,31.663,43 s-1.781,0.025-1.727-0.299c0.054-0.324,0.915-0.756,0.915-1.781c0-2.017-1.353-2.299-2.074-3.38C28.276,36.789,27.146,35,26,35 c-1.201,0-2.837,1.648-3.114,3.718c-0.098,0.733-0.903,2.291-1.256,3.123c-0.19,0.447-0.76,1.16-1.351,1.16 c-1.08,0-1.953,0.07-1.953-0.365c0-0.372,1.402-0.561,1.624-4.989c0.106-2.123-3.317-1.75-5.092-3.149 c-1.772-1.396-2.944-5.585-5.265-5.585S6.22,30,5.248,30c-0.685,0-0.853-0.213-1.243-0.46C2.994,29.734,2,29.3,2,28.491z"/><path fill="#1d1d1d" d="M2.13,28.457c-0.003-0.589,1.801-0.935,2.419-2.301c1.869-4.125,3.476-3.497,4.1-3.748 c2.906-1.168,4.531,1.262,6.353,1.262c2,0,3.841-6.536,10.009-6.536c4.502,0,7.657,3.133,8.14,2.331 c0.462-0.761-6.977-3.726-6.977-9.437c0-3.548,2.105-5.935,7.679-5.935c5.067,0,12.086,4.115,12.086,9.903 c0,3.14-0.902,4.932-2.923,4.932c-3.684,0-2.8-6.058-5.07-6.058c-0.495,0-0.964,0.603-0.964,1.69c0,1.99,1.954,4.372,1.954,6.461 c0,3.133-2.061,4.045-2.07,5.053c-0.021,2.351,0.222,4.071-0.498,6.071c-0.819,2.274-1.501,2.382-2.137,3.784 c-0.437,0.963-0.768,3.009-0.872,3.795c-0.104,0.791-0.159,1.371-0.316,2.103c-0.158,0.735-0.424,1.148-1.365,1.148 c-0.941,0-1.725,0.023-1.671-0.301c0.053-0.318,0.899-0.778,0.884-1.875c-0.026-1.978-1.365-2.284-2.079-3.357 c-0.513-0.774-1.645-2.693-2.82-2.693c-1.225,0-2.829,1.796-3.101,3.826c-0.096,0.719-0.937,2.448-1.283,3.264 c-0.186,0.439-0.745,1.138-1.325,1.138c-1.059,0-1.9,0.069-1.9-0.358c0-0.365,1.422-0.69,1.637-5.035 c0.104-2.149-3.335-1.778-5.093-3.16c-1.74-1.369-2.998-5.601-5.275-5.601s-3.295,1.085-4.3,1.085c-0.672,0-0.839-0.208-1.222-0.45 C3.138,29.647,2.132,29.243,2.13,28.457z"/><path fill="#1e1e1e" d="M2.261,28.423c-0.004-0.578,1.771-0.936,2.378-2.275c1.833-4.045,3.439-3.432,4.051-3.678 c2.85-1.146,4.511,1.326,6.327,1.326c2.053,0,3.958-6.528,10.007-6.528c4.415,0,7.757,3.134,8.267,2.281 c0.462-0.773-6.941-3.833-6.941-9.494c0-3.48,2.063-5.869,7.55-5.869c5.104,0,11.979,4.125,11.979,9.807 c0,3.08-0.864,4.863-2.845,4.863c-3.581,0-2.758-6.115-5.139-6.115c-0.531,0-1.018,0.646-1.018,1.762 c0,1.986,1.998,4.49,1.998,6.54c0,3.078-2.122,3.977-2.14,4.967c-0.041,2.276,0.28,3.998-0.42,5.989 c-0.783,2.224-1.456,2.401-2.098,3.785c-0.472,1.019-0.787,3.17-0.887,3.932c-0.1,0.772-0.155,1.392-0.307,2.1 c-0.154,0.714-0.416,1.133-1.326,1.133c-0.911,0-1.669,0.021-1.615-0.302c0.052-0.312,0.883-0.801,0.853-1.969 c-0.049-1.938-1.377-2.27-2.083-3.334c-0.525-0.797-1.66-2.847-2.863-2.847c-1.25,0-2.822,1.944-3.088,3.935 c-0.094,0.705-0.97,2.606-1.31,3.406c-0.183,0.43-0.731,1.116-1.3,1.116c-1.039,0-1.848,0.067-1.848-0.351 c0-0.358,1.442-0.819,1.65-5.08c0.103-2.175-3.354-1.807-5.094-3.172c-1.707-1.341-3.051-5.618-5.284-5.618 s-3.219,1.082-4.257,1.082c-0.659,0-0.824-0.203-1.2-0.441C3.283,29.56,2.267,29.186,2.261,28.423z"/><path fill="#1f1f1f" d="M2.391,28.388c-0.007-0.566,1.742-0.937,2.337-2.249c1.797-3.966,3.402-3.367,4.002-3.608 c2.794-1.123,4.492,1.39,6.301,1.39c2.105,0,4.075-6.52,10.005-6.52c4.328,0,7.859,3.136,8.394,2.231 c0.463-0.784-6.905-3.941-6.905-9.55c0-3.411,2.021-5.804,7.421-5.804c5.142,0,11.872,4.135,11.872,9.71 c0,3.019-0.825,4.795-2.768,4.795c-3.478,0-2.717-6.173-5.209-6.173c-0.568,0-1.072,0.69-1.072,1.835 c0,1.982,2.042,4.609,2.042,6.618c0,3.023-2.183,3.91-2.21,4.882c-0.061,2.202,0.338,3.926-0.342,5.907 c-0.746,2.174-1.413,2.421-2.06,3.787c-0.508,1.074-0.806,3.33-0.902,4.068c-0.096,0.754-0.152,1.413-0.299,2.098 c-0.15,0.693-0.408,1.119-1.287,1.119c-0.881,0-1.613,0.019-1.559-0.304c0.051-0.306,0.867-0.823,0.823-2.062 c-0.068-1.899-1.389-2.255-2.087-3.31c-0.538-0.82-1.674-3-2.906-3c-1.274,0-2.814,2.091-3.075,4.043 c-0.093,0.691-1.004,2.763-1.337,3.547c-0.179,0.422-0.717,1.094-1.274,1.094c-1.018,0-1.796,0.066-1.796-0.344 c0-0.351,1.462-0.949,1.664-5.126c0.101-2.201-3.372-1.836-5.094-3.183c-1.675-1.313-3.105-5.634-5.294-5.634 s-3.143,1.08-4.213,1.08c-0.646,0-0.81-0.199-1.178-0.432C3.428,29.473,2.4,29.129,2.391,28.388z"/><path fill="#202020" d="M2.521,28.354c-0.009-0.554,1.713-0.937,2.296-2.224c1.761-3.886,3.365-3.302,3.953-3.539 c2.738-1.101,4.473,1.454,6.275,1.454c2.157,0,4.192-6.511,10.003-6.511c4.241,0,7.962,3.138,8.522,2.181 c0.465-0.795-6.87-4.048-6.87-9.607c0-3.343,1.979-5.739,7.292-5.739c5.179,0,11.766,4.146,11.766,9.613 c0,2.958-0.787,4.727-2.691,4.727c-3.375,0-2.676-6.231-5.279-6.231c-0.604,0-1.126,0.734-1.126,1.907 c0,1.979,2.086,4.728,2.086,6.696c0,2.969-2.244,3.842-2.28,4.796c-0.08,2.127,0.396,3.853-0.264,5.825 c-0.711,2.124-1.37,2.439-2.021,3.789c-0.545,1.129-0.825,3.49-0.917,4.205c-0.092,0.735-0.149,1.435-0.291,2.095 c-0.146,0.672-0.4,1.104-1.249,1.104c-0.85,0-1.557,0.017-1.503-0.306c0.05-0.299,0.852-0.845,0.792-2.156 c-0.086-1.859-1.404-2.239-2.092-3.287c-0.552-0.841-1.688-3.154-2.949-3.154c-1.299,0-2.806,2.239-3.062,4.152 c-0.091,0.677-1.037,2.92-1.364,3.689c-0.176,0.413-0.702,1.072-1.249,1.072c-0.998,0-1.744,0.065-1.744-0.337 c0-0.344,1.481-1.078,1.677-5.171c0.099-2.227-3.39-1.864-5.095-3.194c-1.642-1.285-3.158-5.651-5.304-5.651 s-3.068,1.077-4.17,1.077c-0.633,0-0.796-0.194-1.156-0.423C3.573,29.386,2.533,29.071,2.521,28.354z"/><path fill="#212121" d="M2.652,28.32c-0.011-0.542,1.683-0.938,2.254-2.198c1.725-3.807,3.328-3.237,3.904-3.469 c2.682-1.078,4.453,1.518,6.249,1.518c2.209,0,4.309-6.503,10.001-6.503c4.154,0,8.064,3.141,8.649,2.131 c0.467-0.806-6.834-4.155-6.834-9.663c0-3.275,1.938-5.673,7.163-5.673c5.216,0,11.659,4.156,11.659,9.517 c0,2.898-0.749,4.658-2.613,4.658c-3.272,0-2.635-6.288-5.348-6.288c-0.641,0-1.18,0.778-1.18,1.979c0,1.975,2.13,4.847,2.13,6.775 c0,2.914-2.305,3.774-2.35,4.711c-0.099,2.052,0.454,3.78-0.186,5.743c-0.675,2.074-1.328,2.458-1.982,3.79 c-0.581,1.185-0.845,3.651-0.932,4.341c-0.09,0.716-0.145,1.456-0.283,2.092c-0.142,0.651-0.392,1.089-1.21,1.089 c-0.82,0-1.501,0.015-1.447-0.308c0.049-0.293,0.837-0.867,0.761-2.249c-0.101-1.819-1.417-2.225-2.096-3.264 c-0.565-0.864-1.703-3.307-2.992-3.307c-1.323,0-2.798,2.387-3.049,4.26c-0.089,0.663-1.071,3.077-1.391,3.83 c-0.172,0.405-0.688,1.05-1.223,1.05c-0.977,0-1.691,0.063-1.691-0.331c0-0.337,1.501-1.207,1.69-5.217 c0.098-2.253-3.409-1.893-5.095-3.206c-1.61-1.257-3.212-5.667-5.313-5.667s-2.992,1.075-4.127,1.075 c-0.62,0-0.781-0.19-1.134-0.413C3.718,29.3,2.666,29.014,2.652,28.32z"/><path fill="#222" d="M2.782,28.286c-0.014-0.53,1.654-0.939,2.213-2.172c1.689-3.727,3.291-3.172,3.855-3.399 c2.626-1.056,4.434,1.582,6.222,1.582c2.262,0,4.427-6.495,9.999-6.495c4.067,0,8.166,3.143,8.776,2.082 c0.469-0.817-6.798-4.262-6.798-9.72c0-3.206,1.896-5.608,7.034-5.608c5.254,0,11.552,4.166,11.552,9.42 c0,2.837-0.711,4.59-2.536,4.59c-3.169,0-2.594-6.346-5.418-6.346c-0.677,0-1.234,0.822-1.234,2.052 c0,1.971,2.175,4.965,2.175,6.853c0,2.859-2.365,3.706-2.42,4.625c-0.117,1.977,0.511,3.707-0.107,5.661 c-0.64,2.023-1.287,2.476-1.944,3.792c-0.618,1.24-0.864,3.811-0.947,4.478c-0.086,0.698-0.142,1.477-0.275,2.09 c-0.137,0.63-0.384,1.075-1.171,1.075c-0.79,0-1.445,0.013-1.391-0.31c0.048-0.287,0.823-0.889,0.73-2.343 c-0.114-1.78-1.429-2.21-2.101-3.24c-0.578-0.887-1.717-3.461-3.036-3.461c-1.348,0-2.79,2.534-3.036,4.369 c-0.087,0.65-1.105,3.234-1.418,3.972c-0.168,0.396-0.674,1.028-1.198,1.028c-0.957,0-1.639,0.062-1.639-0.324 c0-0.33,1.53-1.336,1.703-5.262c0.101-2.278-3.427-1.922-5.096-3.217c-1.577-1.229-3.265-5.684-5.323-5.684 s-2.916,1.072-4.084,1.072c-0.607,0-0.767-0.185-1.112-0.404C3.863,29.213,2.799,28.957,2.782,28.286z"/><path fill="#232323" d="M2.912,28.252c-0.016-0.519,1.625-0.939,2.172-2.147c1.653-3.647,3.254-3.107,3.806-3.329 c2.57-1.033,4.414,1.646,6.196,1.646c2.314,0,4.544-6.487,9.998-6.487c3.981,0,8.269,3.145,8.903,2.032 c0.472-0.828-6.762-4.37-6.762-9.776c0-3.138,1.854-5.543,6.905-5.543c5.291,0,11.446,4.176,11.446,9.323 c0,2.777-0.672,4.521-2.459,4.521c-3.066,0-2.553-6.404-5.488-6.404c-0.713,0-1.288,0.865-1.288,2.124 c0,1.967,2.219,5.084,2.219,6.931c0,2.804-2.426,3.637-2.49,4.54c-0.135,1.901,0.568,3.634-0.029,5.579 c-0.606,1.972-1.247,2.494-1.905,3.793c-0.656,1.295-0.883,3.971-0.961,4.614c-0.082,0.679-0.139,1.498-0.266,2.087 c-0.133,0.609-0.376,1.06-1.132,1.06c-0.76,0-1.389,0.011-1.335-0.312c0.047-0.281,0.81-0.911,0.699-2.436 c-0.126-1.74-1.442-2.195-2.105-3.217c-0.591-0.91-1.731-3.614-3.079-3.614c-1.372,0-2.783,2.682-3.023,4.477 c-0.085,0.636-1.138,3.392-1.445,4.113c-0.165,0.388-0.659,1.006-1.172,1.006c-0.937,0-1.587,0.061-1.587-0.317 c0-0.323,1.55-1.466,1.717-5.308c0.1-2.304-3.446-1.95-5.096-3.228c-1.545-1.202-3.319-5.7-5.332-5.7s-2.84,1.07-4.041,1.07 c-0.594,0-0.752-0.18-1.09-0.395C4.008,29.126,2.932,28.899,2.912,28.252z"/><path fill="#242424" d="M3.043,28.218c-0.018-0.507,1.595-0.94,2.13-2.121c1.617-3.568,3.217-3.043,3.756-3.26 c2.514-1.011,4.395,1.71,6.17,1.71c2.366,0,4.661-6.478,9.996-6.478c3.894,0,8.372,3.147,9.03,1.982 c0.474-0.839-6.727-4.477-6.727-9.832c0-3.069,1.812-5.477,6.776-5.477c5.328,0,11.339,4.186,11.339,9.227 c0,2.716-0.634,4.453-2.382,4.453c-2.963,0-2.512-6.461-5.557-6.461c-0.75,0-1.342,0.909-1.342,2.197 c0,1.964,2.263,5.203,2.263,7.01c0,2.749-2.486,3.569-2.56,4.454c-0.151,1.826,0.625,3.56,0.049,5.497 c-0.572,1.921-1.207,2.512-1.867,3.795c-0.694,1.349-0.903,4.131-0.976,4.751c-0.079,0.66-0.135,1.52-0.258,2.085 c-0.129,0.588-0.368,1.045-1.094,1.045c-0.729,0-1.332,0.009-1.279-0.313c0.046-0.275,0.797-0.932,0.668-2.53 c-0.137-1.7-1.454-2.181-2.11-3.194c-0.603-0.932-1.746-3.768-3.122-3.768c-1.397,0-2.775,2.83-3.01,4.586 c-0.083,0.622-1.172,3.549-1.472,4.254c-0.161,0.379-0.645,0.984-1.146,0.984c-0.916,0-1.534,0.059-1.534-0.31 c0-0.316,1.571-1.595,1.73-5.354c0.099-2.33-3.464-1.979-5.097-3.239c-1.512-1.174-3.372-5.717-5.342-5.717 s-2.764,1.067-3.997,1.067c-0.581,0-0.738-0.176-1.069-0.385C4.153,29.039,3.065,28.842,3.043,28.218z"/><path fill="#252525" d="M3.173,28.184c-0.021-0.495,1.566-0.941,2.089-2.095c1.581-3.488,3.179-2.978,3.707-3.19 c2.458-0.988,4.376,1.774,6.144,1.774c2.419,0,4.778-6.47,9.994-6.47c3.807,0,8.475,3.15,9.158,1.932 c0.477-0.85-6.691-4.584-6.691-9.889c0-3.001,1.771-5.412,6.647-5.412c5.366,0,11.232,4.197,11.232,9.13 c0,2.655-0.596,4.385-2.304,4.385c-2.86,0-2.471-6.519-5.627-6.519c-0.786,0-1.396,0.953-1.396,2.269 c0,1.96,2.307,5.321,2.307,7.088c0,2.694-2.546,3.501-2.629,4.369c-0.168,1.75,0.682,3.487,0.127,5.415 c-0.538,1.87-1.167,2.529-1.828,3.797c-0.732,1.404-0.922,4.292-0.991,4.887c-0.075,0.642-0.132,1.541-0.25,2.082 c-0.125,0.567-0.36,1.031-1.055,1.031c-0.699,0-1.276,0.007-1.223-0.315c0.045-0.269,0.784-0.954,0.637-2.623 c-0.146-1.661-1.466-2.166-2.114-3.171c-0.616-0.955-1.76-3.921-3.165-3.921c-1.421,0-2.767,2.977-2.997,4.694 c-0.081,0.608-1.205,3.706-1.499,4.396c-0.158,0.371-0.63,0.962-1.121,0.962c-0.896,0-1.482,0.058-1.482-0.303 c0-0.309,1.591-1.724,1.743-5.399c0.098-2.356-3.483-2.008-5.097-3.251c-1.48-1.146-3.426-5.733-5.351-5.733 s-2.688,1.065-3.954,1.065c-0.568,0-0.723-0.171-1.047-0.376C4.298,28.953,3.198,28.784,3.173,28.184z"/><path fill="#262626" d="M3.303,28.15c-0.023-0.484,1.537-0.942,2.048-2.07c1.545-3.409,3.142-2.913,3.658-3.12 c2.401-0.966,4.356,1.838,6.118,1.838c2.471,0,4.895-6.462,9.992-6.462c3.72,0,8.578,3.152,9.285,1.882 c0.479-0.86-6.655-4.691-6.655-9.945c0-2.932,1.729-5.346,6.518-5.346c5.403,0,11.126,4.207,11.126,9.033 c0,2.595-0.557,4.316-2.227,4.316c-2.757,0-2.429-6.577-5.697-6.577c-0.822,0-1.45,0.997-1.45,2.342 c0,1.956,2.351,5.44,2.351,7.167c0,2.639-2.606,3.432-2.699,4.283c-0.183,1.675,0.738,3.413,0.205,5.333 c-0.505,1.818-1.128,2.546-1.789,3.798c-0.77,1.458-0.941,4.452-1.006,5.024c-0.071,0.623-0.128,1.562-0.242,2.08 c-0.121,0.546-0.351,1.016-1.016,1.016c-0.669,0-1.22,0.004-1.167-0.317c0.043-0.263,0.772-0.976,0.607-2.717 c-0.154-1.621-1.479-2.152-2.118-3.147c-0.629-0.978-1.774-4.075-3.208-4.075c-1.446,0-2.759,3.125-2.984,4.803 c-0.08,0.594-1.239,3.863-1.525,4.537c-0.154,0.363-0.616,0.94-1.095,0.94c-0.875,0-1.43,0.057-1.43-0.296 c0-0.302,1.611-1.853,1.757-5.445c0.096-2.382-3.501-2.036-5.098-3.262c-1.447-1.118-3.479-5.75-5.361-5.75 s-2.612,1.062-3.911,1.062c-0.555,0-0.709-0.167-1.025-0.367C4.443,28.866,3.331,28.727,3.303,28.15z"/><path fill="#272727" d="M3.434,28.116c-0.026-0.472,1.507-0.942,2.007-2.044c1.509-3.329,3.105-2.848,3.609-3.05 c2.345-0.943,4.337,1.903,6.092,1.903c2.523,0,5.012-6.453,9.99-6.453c3.633,0,8.681,3.155,9.412,1.832 c0.482-0.871-6.619-4.799-6.619-10.002c0-2.864,1.687-5.281,6.389-5.281c5.44,0,11.019,4.217,11.019,8.936 c0,2.534-0.519,4.248-2.15,4.248c-2.655,0-2.388-6.634-5.766-6.634c-0.859,0-1.503,1.04-1.503,2.414 c0,1.952,2.395,5.559,2.395,7.245c0,2.584-2.666,3.363-2.769,4.198c-0.198,1.599,0.795,3.339,0.283,5.251 c-0.472,1.766-1.09,2.563-1.751,3.8c-0.809,1.513-0.96,4.612-1.021,5.16c-0.067,0.604-0.125,1.583-0.234,2.077 c-0.117,0.525-0.343,1.002-0.978,1.002c-0.638,0-1.164,0.002-1.111-0.319c0.042-0.257,0.761-0.997,0.576-2.81 c-0.162-1.582-1.491-2.137-2.123-3.124c-0.641-1.001-1.789-4.228-3.251-4.228c-1.47,0-2.751,3.273-2.971,4.911 c-0.078,0.58-1.273,4.021-1.552,4.679c-0.15,0.354-0.602,0.918-1.07,0.918c-0.855,0-1.377,0.055-1.377-0.289 c0-0.295,1.631-1.983,1.77-5.49c0.095-2.408-3.52-2.065-5.098-3.273c-1.415-1.09-3.533-5.766-5.371-5.766s-2.536,1.06-3.868,1.06 c-0.542,0-0.694-0.162-1.003-0.358C4.588,28.779,3.463,28.67,3.434,28.116z"/><path fill="#282828" d="M3.564,28.082c-0.028-0.46,1.478-0.943,1.965-2.018c1.472-3.25,3.068-2.783,3.56-2.981 c2.289-0.92,4.317,1.967,6.065,1.967c2.575,0,5.129-6.445,9.988-6.445c3.546,0,8.784,3.158,9.539,1.782 c0.484-0.882-6.584-4.906-6.584-10.058c0-2.795,1.645-5.216,6.26-5.216c5.478,0,10.912,4.227,10.912,8.84 c0,2.474-0.481,4.18-2.072,4.18c-2.552,0-2.347-6.692-5.836-6.692c-0.895,0-1.557,1.084-1.557,2.487 c0,1.949,2.439,5.677,2.439,7.323c0,2.529-2.726,3.294-2.839,4.112c-0.211,1.523,0.85,3.265,0.361,5.169 c-0.44,1.714-1.051,2.58-1.712,3.801c-0.848,1.567-0.979,4.773-1.036,5.297c-0.064,0.586-0.122,1.605-0.225,2.074 c-0.113,0.504-0.335,0.987-0.939,0.987c-0.608,0-1.108,0-1.055-0.321c0.041-0.25,0.751-1.019,0.545-2.904 c-0.169-1.542-1.503-2.123-2.127-3.101c-0.654-1.024-1.803-4.382-3.295-4.382c-1.495,0-2.744,3.42-2.958,5.02 c-0.076,0.566-1.306,4.178-1.579,4.82c-0.147,0.346-0.587,0.896-1.044,0.896c-0.834,0-1.325,0.054-1.325-0.282 c0-0.287,1.651-2.112,1.783-5.536c0.094-2.434-3.538-2.094-5.099-3.285c-1.382-1.063-3.586-5.783-5.38-5.783 s-2.46,1.057-3.825,1.057c-0.529,0-0.68-0.157-0.981-0.348C4.733,28.692,3.596,28.612,3.564,28.082z"/><path fill="#292929" d="M3.694,28.048c-0.031-0.448,1.449-0.944,1.924-1.993c1.436-3.17,3.031-2.718,3.511-2.911 c2.233-0.898,4.298,2.031,6.039,2.031c2.628,0,5.247-6.437,9.986-6.437c3.459,0,8.887,3.16,9.667,1.733 c0.487-0.892-6.548-5.013-6.548-10.115c0-2.727,1.604-5.15,6.131-5.15c5.515,0,10.806,4.238,10.806,8.743 c0,2.413-0.442,4.111-1.995,4.111c-2.449,0-2.306-6.749-5.906-6.749c-0.932,0-1.611,1.128-1.611,2.559 c0,1.945,2.483,5.796,2.483,7.402c0,2.474-2.785,3.226-2.909,4.027c-0.224,1.447,0.906,3.19,0.439,5.087 c-0.409,1.662-1.013,2.597-1.673,3.803c-0.888,1.621-0.998,4.933-1.05,5.433c-0.06,0.567-0.118,1.626-0.217,2.072 c-0.109,0.483-0.327,0.972-0.9,0.972c-0.578,0-1.052-0.002-0.999-0.322c0.04-0.244,0.741-1.041,0.514-2.997 c-0.175-1.503-1.515-2.109-2.132-3.077c-0.666-1.047-1.817-4.535-3.338-4.535c-1.519,0-2.736,3.568-2.945,5.128 c-0.074,0.552-1.34,4.335-1.606,4.962c-0.143,0.337-0.573,0.874-1.019,0.874c-0.814,0-1.273,0.053-1.273-0.275 c0-0.28,1.671-2.241,1.796-5.582c0.092-2.46-3.557-2.122-5.099-3.296c-1.35-1.035-3.64-5.799-5.39-5.799s-2.384,1.055-3.781,1.055 c-0.516,0-0.665-0.153-0.959-0.339C4.878,28.605,3.729,28.555,3.694,28.048z"/><path fill="#292929" d="M3.824,28.013c-0.033-0.437,1.419-0.944,1.883-1.967c1.4-3.09,2.994-2.653,3.462-2.841 c2.177-0.875,4.278,2.095,6.013,2.095c2.68,0,5.364-6.429,9.985-6.429c3.373,0,8.99,3.163,9.794,1.683 c0.49-0.903-6.512-5.12-6.512-10.171c0-2.658,1.562-5.085,6.002-5.085c5.552,0,10.699,4.248,10.699,8.646 c0,2.353-0.404,4.043-1.918,4.043c-2.346,0-2.265-6.807-5.975-6.807c-0.968,0-1.665,1.172-1.665,2.631 c0,1.941,2.527,5.915,2.527,7.48c0,2.419-2.844,3.157-2.979,3.941c-0.236,1.371,0.96,3.116,0.518,5.005 c-0.377,1.61-0.975,2.613-1.635,3.804c-0.927,1.674-1.017,5.093-1.065,5.569c-0.056,0.548-0.114,1.647-0.209,2.069 c-0.104,0.463-0.319,0.958-0.861,0.958c-0.547,0-0.996-0.004-0.943-0.324c0.039-0.238,0.733-1.063,0.483-3.091 c-0.18-1.463-1.527-2.094-2.136-3.054c-0.679-1.07-1.832-4.689-3.381-4.689c-1.544,0-2.728,3.715-2.932,5.237 c-0.072,0.539-1.373,4.492-1.633,5.103c-0.14,0.329-0.558,0.852-0.993,0.852c-0.794,0-1.221,0.051-1.221-0.268 c0-0.273,1.691-2.371,1.81-5.627c0.091-2.486-3.575-2.151-5.1-3.307c-1.317-1.007-3.693-5.816-5.399-5.816 s-2.308,1.052-3.738,1.052c-0.504,0-0.651-0.148-0.938-0.33C5.022,28.519,3.861,28.498,3.824,28.013z"/><path fill="#2a2a2a" d="M3.955,27.979c-0.036-0.425,1.39-0.945,1.842-1.942c1.364-3.011,2.957-2.588,3.413-2.771 c2.121-0.853,4.259,2.159,5.987,2.159c2.732,0,5.481-6.42,9.983-6.42c3.286,0,9.094,3.166,9.921,1.633 c0.493-0.913-6.476-5.228-6.476-10.228c0-2.59,1.52-5.02,5.873-5.02c5.59,0,10.592,4.258,10.592,8.55 c0,2.292-0.366,3.974-1.84,3.974c-2.243,0-2.224-6.865-6.045-6.865c-1.004,0-1.719,1.216-1.719,2.704 c0,1.937,2.571,6.034,2.571,7.559c0,2.364-2.903,3.087-3.049,3.856c-0.247,1.296,1.015,3.041,0.596,4.923 c-0.347,1.558-0.937,2.63-1.596,3.806c-0.968,1.728-1.035,5.254-1.08,5.706c-0.052,0.53-0.111,1.669-0.201,2.067 c-0.1,0.442-0.311,0.943-0.823,0.943c-0.517,0-0.94-0.006-0.887-0.326c0.038-0.232,0.725-1.085,0.452-3.185 c-0.185-1.424-1.539-2.08-2.14-3.031c-0.691-1.093-1.846-4.842-3.424-4.842c-1.568,0-2.72,3.863-2.919,5.345 c-0.07,0.525-1.407,4.65-1.66,5.245c-0.136,0.32-0.544,0.83-0.967,0.83c-0.773,0-1.168,0.05-1.168-0.261 c0-0.266,1.71-2.5,1.823-5.673c0.089-2.512-3.593-2.18-5.1-3.319c-1.285-0.979-3.747-5.832-5.409-5.832s-2.232,1.05-3.695,1.05 c-0.491,0-0.636-0.144-0.916-0.32C5.167,28.432,3.994,28.44,3.955,27.979z"/><path fill="#2b2b2b" d="M4.085,27.945c-0.039-0.413,1.361-0.946,1.8-1.916c1.328-2.931,2.92-2.523,3.364-2.702 c2.065-0.83,4.24,2.223,5.961,2.223c2.784,0,5.598-6.412,9.981-6.412c3.199,0,9.198,3.169,10.048,1.583 c0.496-0.924-6.441-5.335-6.441-10.284c0-2.521,1.478-4.954,5.744-4.954c5.627,0,10.486,4.268,10.486,8.453 c0,2.231-0.327,3.906-1.763,3.906c-2.14,0-2.183-6.922-6.115-6.922c-1.041,0-1.773,1.259-1.773,2.776 c0,1.934,2.615,6.152,2.615,7.637c0,2.309-2.961,3.018-3.119,3.77c-0.256,1.22,1.069,2.966,0.674,4.841 c-0.317,1.505-0.9,2.646-1.557,3.808c-1.009,1.781-1.054,5.414-1.095,5.842c-0.049,0.511-0.107,1.69-0.193,2.064 c-0.096,0.421-0.303,0.928-0.784,0.928c-0.487,0-0.883-0.008-0.831-0.328c0.037-0.226,0.718-1.107,0.421-3.278 c-0.189-1.385-1.551-2.066-2.145-3.008c-0.703-1.116-1.861-4.996-3.467-4.996c-1.593,0-2.712,4.011-2.906,5.453 c-0.068,0.511-1.441,4.807-1.687,5.386c-0.132,0.312-0.53,0.808-0.942,0.808c-0.753,0-1.116,0.049-1.116-0.255 c0-0.259,1.73-2.629,1.836-5.718c0.088-2.538-3.612-2.208-5.101-3.33c-1.252-0.951-3.8-5.849-5.418-5.849s-2.156,1.047-3.652,1.047 c-0.478,0-0.622-0.139-0.894-0.311C5.312,28.345,4.126,28.383,4.085,27.945z"/><path fill="#2c2c2c" d="M4.215,27.911c-0.041-0.402,1.331-0.946,1.759-1.89c1.292-2.852,2.883-2.458,3.315-2.632 c2.009-0.808,4.22,2.287,5.935,2.287c2.837,0,5.715-6.404,9.979-6.404c3.112,0,9.301,3.172,10.176,1.533 c0.499-0.934-6.405-5.442-6.405-10.341c0-2.453,1.436-4.889,5.615-4.889c5.664,0,10.379,4.278,10.379,8.356 c0,2.171-0.289,3.838-1.686,3.838c-2.037,0-2.142-6.98-6.184-6.98c-1.077,0-1.827,1.303-1.827,2.849 c0,1.93,2.659,6.271,2.659,7.715c0,2.254-3.019,2.949-3.189,3.685c-0.265,1.144,1.122,2.891,0.752,4.759 c-0.287,1.452-0.862,2.662-1.519,3.809c-1.05,1.834-1.073,5.574-1.11,5.979c-0.045,0.492-0.104,1.711-0.184,2.062 c-0.092,0.4-0.295,0.914-0.745,0.914c-0.457,0-0.827-0.01-0.775-0.33c0.036-0.22,0.713-1.13,0.39-3.372 c-0.193-1.346-1.563-2.052-2.149-2.984c-0.716-1.139-1.875-5.149-3.51-5.149c-1.617,0-2.705,4.158-2.893,5.562 c-0.067,0.497-1.474,4.964-1.714,5.528c-0.129,0.303-0.515,0.786-0.916,0.786c-0.732,0-1.064,0.047-1.064-0.248 c0-0.252,1.749-2.759,1.85-5.764c0.086-2.564-3.63-2.237-5.101-3.341c-1.22-0.923-3.854-5.866-5.428-5.866s-2.08,1.045-3.608,1.045 c-0.465,0-0.608-0.134-0.872-0.302C5.457,28.258,4.258,28.325,4.215,27.911z"/><path fill="#2d2d2d" d="M4.346,27.877c-0.044-0.39,1.302-0.947,1.718-1.865c1.256-2.772,2.846-2.394,3.265-2.562 c1.953-0.785,4.201,2.351,5.909,2.351c2.889,0,5.832-6.395,9.977-6.395c3.025,0,9.405,3.174,10.303,1.483 c0.501-0.945-6.369-5.549-6.369-10.397c0-2.385,1.395-4.824,5.486-4.824c5.702,0,10.272,4.289,10.272,8.26 c0,2.11-0.251,3.769-1.609,3.769c-1.934,0-2.101-7.038-6.254-7.038c-1.114,0-1.881,1.347-1.881,2.921 c0,1.926,2.703,6.39,2.703,7.794c0,2.199-3.076,2.88-3.259,3.599c-0.272,1.068,1.174,2.816,0.83,4.677 c-0.259,1.399-0.825,2.679-1.48,3.811c-1.091,1.886-1.092,5.735-1.125,6.115c-0.041,0.474-0.101,1.732-0.176,2.059 c-0.087,0.379-0.287,0.899-0.707,0.899c-0.426,0-0.771-0.012-0.719-0.331c0.035-0.214,0.708-1.152,0.36-3.465 c-0.197-1.307-1.575-2.037-2.154-2.961c-0.728-1.162-1.889-5.303-3.553-5.303c-1.642,0-2.697,4.306-2.879,5.67 c-0.065,0.483-1.508,5.121-1.741,5.669c-0.125,0.295-0.501,0.764-0.891,0.764c-0.712,0-1.011,0.046-1.011-0.241 c0-0.245,1.768-2.888,1.863-5.81c0.084-2.59-3.649-2.265-5.102-3.353c-1.187-0.896-3.907-5.882-5.437-5.882 s-2.004,1.042-3.565,1.042c-0.452,0-0.593-0.13-0.85-0.293C5.602,28.171,4.39,28.268,4.346,27.877z"/><path fill="#2e2e2e" d="M4.476,27.843c-0.047-0.378,1.273-0.948,1.677-1.839c1.22-2.692,2.809-2.329,3.216-2.493 c1.897-0.763,4.181,2.415,5.882,2.415c2.941,0,5.949-6.387,9.975-6.387c2.938,0,9.509,3.177,10.43,1.433 c0.504-0.955-6.333-5.657-6.333-10.454c0-2.316,1.353-4.758,5.357-4.758c5.739,0,10.166,4.299,10.166,8.163 c0,2.05-0.212,3.701-1.531,3.701c-1.831,0-2.059-7.095-6.324-7.095c-1.15,0-1.935,1.391-1.935,2.994 c0,1.922,2.747,6.508,2.747,7.872c0,2.144-3.132,2.811-3.329,3.514c-0.278,0.993,1.225,2.741,0.908,4.595 c-0.23,1.346-0.788,2.695-1.442,3.812c-1.133,1.939-1.111,5.895-1.14,6.252c-0.037,0.455-0.097,1.754-0.168,2.056 c-0.083,0.358-0.279,0.884-0.668,0.884c-0.396,0-0.715-0.014-0.663-0.333c0.034-0.208,0.705-1.175,0.329-3.559 c-0.2-1.268-1.587-2.023-2.158-2.938c-0.74-1.185-1.904-5.456-3.597-5.456c-1.666,0-2.689,4.454-2.866,5.779 c-0.063,0.469-1.541,5.278-1.768,5.811c-0.122,0.286-0.487,0.743-0.865,0.743c-0.691,0-0.959,0.045-0.959-0.234 c0-0.238,1.787-3.018,1.876-5.855c0.082-2.616-3.667-2.294-5.102-3.364c-1.155-0.868-3.961-5.899-5.447-5.899 s-1.928,1.04-3.522,1.04c-0.439,0-0.579-0.125-0.828-0.283C5.747,28.085,4.522,28.211,4.476,27.843z"/><path fill="#2f2f2f" d="M4.606,27.809c-0.051-0.367,1.243-0.949,1.635-1.813c1.184-2.613,2.772-2.264,3.167-2.423 c1.841-0.74,4.162,2.479,5.856,2.479c2.993,0,6.066-6.379,9.973-6.379c2.852,0,9.613,3.18,10.557,1.384 c0.507-0.965-6.298-5.764-6.298-10.51c0-2.248,1.311-4.693,5.228-4.693c5.776,0,10.059,4.309,10.059,8.066 c0,1.989-0.174,3.633-1.454,3.633c-1.728,0-2.018-7.153-6.393-7.153c-1.186,0-1.989,1.434-1.989,3.066 c0,1.919,2.791,6.627,2.791,7.951c0,2.089-3.188,2.742-3.399,3.428c-0.283,0.918,1.276,2.666,0.986,4.513 c-0.203,1.293-0.751,2.711-1.403,3.814c-1.176,1.991-1.129,6.055-1.154,6.388c-0.033,0.436-0.094,1.775-0.16,2.054 c-0.079,0.337-0.271,0.87-0.629,0.87c-0.366,0-0.659-0.016-0.607-0.335c0.033-0.201,0.703-1.199,0.298-3.652 c-0.203-1.229-1.599-2.009-2.163-2.914c-0.752-1.208-1.918-5.61-3.64-5.61c-1.691,0-2.681,4.601-2.853,5.887 c-0.061,0.455-1.575,5.436-1.795,5.952c-0.118,0.278-0.472,0.721-0.84,0.721c-0.671,0-0.907,0.043-0.907-0.227 c0-0.231,1.806-3.147,1.89-5.901c0.08-2.642-3.686-2.323-5.103-3.375c-1.122-0.84-4.014-5.915-5.457-5.915 s-1.852,1.037-3.479,1.037c-0.426,0-0.564-0.121-0.806-0.274C5.892,27.998,4.654,28.153,4.606,27.809z"/><path fill="#303030" d="M4.737,27.775c-0.054-0.355,1.214-0.949,1.594-1.788c1.148-2.533,2.735-2.199,3.118-2.353 c1.785-0.718,4.143,2.543,5.83,2.543c3.046,0,6.184-6.371,9.972-6.371c2.765,0,9.717,3.183,10.685,1.334 c0.511-0.976-6.262-5.871-6.262-10.567c0-2.179,1.269-4.628,5.099-4.628c5.814,0,9.952,4.319,9.952,7.97 c0,1.928-0.136,3.564-1.377,3.564c-1.625,0-1.977-7.211-6.463-7.211c-1.223,0-2.043,1.478-2.043,3.139 c0,1.915,2.835,6.746,2.835,8.029c0,2.034-3.242,2.674-3.469,3.343c-0.286,0.843,1.325,2.59,1.064,4.431 c-0.176,1.24-0.714,2.726-1.364,3.815c-1.219,2.042-1.148,6.216-1.169,6.525c-0.029,0.418-0.091,1.796-0.152,2.051 c-0.075,0.316-0.263,0.855-0.59,0.855c-0.335,0-0.603-0.018-0.551-0.337c0.032-0.195,0.703-1.222,0.267-3.746 c-0.206-1.191-1.611-1.995-2.167-2.891c-0.764-1.231-1.932-5.763-3.683-5.763c-1.715,0-2.673,4.749-2.84,5.996 c-0.059,0.441-1.609,5.593-1.821,6.094c-0.114,0.269-0.458,0.699-0.814,0.699c-0.651,0-0.854,0.042-0.854-0.22 c0-0.224,1.825-3.276,1.903-5.946c0.078-2.668-3.704-2.351-5.103-3.387c-1.09-0.812-4.068-5.932-5.466-5.932 s-1.776,1.035-3.436,1.035c-0.413,0-0.55-0.116-0.785-0.265C6.037,27.911,4.785,28.096,4.737,27.775z"/><path fill="#313131" d="M4.867,27.741c-0.057-0.343,1.185-0.95,1.553-1.762c1.112-2.454,2.698-2.134,3.069-2.283 c1.729-0.695,4.123,2.608,5.804,2.608c3.098,0,6.301-6.362,9.97-6.362c2.678,0,9.821,3.187,10.812,1.284 c0.514-0.986-6.226-5.978-6.226-10.623c0-2.111,1.228-4.562,4.97-4.562c5.851,0,9.845,4.329,9.845,7.873 c0,1.868-0.097,3.496-1.299,3.496c-1.522,0-1.936-7.268-6.533-7.268c-1.259,0-2.097,1.522-2.097,3.211 c0,1.911,2.879,6.864,2.879,8.107c0,1.979-3.295,2.606-3.539,3.257c-0.288,0.769,1.374,2.515,1.143,4.349 c-0.149,1.187-0.678,2.742-1.326,3.817c-1.262,2.094-1.167,6.376-1.184,6.661c-0.024,0.399-0.088,1.817-0.143,2.049 c-0.071,0.295-0.255,0.84-0.552,0.84c-0.305,0-0.547-0.02-0.495-0.339c0.031-0.189,0.705-1.246,0.236-3.839 c-0.208-1.152-1.622-1.98-2.171-2.868c-0.776-1.254-1.947-5.917-3.726-5.917c-1.74,0-2.666,4.897-2.827,6.104 c-0.057,0.428-1.642,5.75-1.848,6.235c-0.111,0.261-0.443,0.677-0.788,0.677c-0.63,0-0.802,0.041-0.802-0.213 c0-0.217,1.844-3.406,1.916-5.992c0.075-2.694-3.723-2.38-5.104-3.398c-1.057-0.784-4.121-5.948-5.476-5.948 s-1.7,1.032-3.392,1.032c-0.4,0-0.535-0.111-0.763-0.256C6.182,27.824,4.917,28.039,4.867,27.741z"/><path fill="#323232" d="M4.997,27.707c-0.061-0.331,1.155-0.951,1.511-1.736c1.076-2.374,2.661-2.069,3.02-2.214 c1.673-0.672,4.104,2.672,5.778,2.672c3.15,0,6.418-6.354,9.968-6.354c2.591,0,9.925,3.19,10.939,1.234 c0.517-0.997-6.19-6.086-6.19-10.68c0-2.042,1.186-4.497,4.841-4.497c5.888,0,9.739,4.34,9.739,7.776 c0,1.807-0.059,3.428-1.222,3.428c-1.419,0-1.895-7.326-6.602-7.326c-1.296,0-2.15,1.566-2.15,3.283 c0,1.907,2.923,6.983,2.923,8.186c0,1.924-3.347,2.539-3.609,3.172c-0.288,0.696,1.42,2.439,1.221,4.267 c-0.124,1.134-0.641,2.758-1.287,3.819c-1.306,2.145-1.185,6.537-1.199,6.798c-0.02,0.381-0.084,1.839-0.135,2.046 c-0.067,0.274-0.247,0.826-0.513,0.826c-0.275,0-0.491-0.022-0.439-0.341c0.03-0.183,0.708-1.271,0.205-3.933 c-0.21-1.114-1.632-1.967-2.176-2.844c-0.785-1.279-1.961-6.07-3.769-6.07c-1.764,0-2.658,5.044-2.814,6.213 c-0.055,0.414-1.676,5.907-1.875,6.377c-0.107,0.252-0.429,0.655-0.763,0.655c-0.61,0-0.75,0.039-0.75-0.206 c0-0.21,1.863-3.535,1.929-6.037c0.073-2.72-3.741-2.409-5.105-3.409c-1.025-0.756-4.175-5.965-5.485-5.965s-1.624,1.03-3.349,1.03 c-0.387,0-0.521-0.107-0.741-0.246C6.327,27.737,5.048,27.981,4.997,27.707z"/><path fill="#333" d="M5.128,27.673c-0.065-0.319,1.126-0.951,1.47-1.711c1.04-2.295,2.624-2.004,2.971-2.144 c1.617-0.65,4.084,2.736,5.752,2.736c3.203,0,6.535-6.346,9.966-6.346c2.504,0,10.033,3.195,11.066,1.184 c0.522-1.006-6.155-6.193-6.155-10.736c0-1.974,1.144-4.432,4.712-4.432c5.926,0,9.632,4.35,9.632,7.68 c0,1.747-0.021,3.359-1.145,3.359c-1.316,0-1.854-7.384-6.672-7.384c-1.332,0-2.204,1.61-2.204,3.356 c0,1.904,2.967,7.102,2.967,8.264c0,1.869-3.396,2.473-3.679,3.086c-0.287,0.624,1.465,2.363,1.299,4.185 c-0.099,1.081-0.604,2.773-1.248,3.82c-1.351,2.196-1.203,6.697-1.214,6.934c-0.016,0.362-0.081,1.86-0.127,2.044 c-0.063,0.253-0.239,0.811-0.474,0.811c-0.244,0-0.434-0.024-0.383-0.342c0.029-0.177,0.713-1.296,0.174-4.026 c-0.212-1.076-1.644-1.953-2.18-2.821c-0.798-1.302-1.975-6.224-3.812-6.224c-1.789,0-2.65,5.192-2.801,6.321 c-0.054,0.4-1.709,6.065-1.902,6.518c-0.104,0.244-0.415,0.633-0.737,0.633c-0.589,0-0.698,0.038-0.698-0.199 c0-0.203,1.877-3.664,1.943-6.083c0.065-2.746-3.76-2.437-5.105-3.421c-0.992-0.729-4.228-5.981-5.495-5.981 s-1.548,1.027-3.306,1.027c-0.374,0-0.506-0.102-0.719-0.237C6.472,27.651,5.179,27.924,5.128,27.673z"/><path fill="#343434" d="M5.258,27.638c-0.07-0.307,1.097-0.952,1.429-1.685c1.004-2.215,2.586-1.939,2.922-2.074 c1.56-0.627,4.065,2.8,5.725,2.8c3.255,0,6.652-6.337,9.964-6.337c2.417,0,10.136,3.197,11.193,1.134 c0.524-1.017-6.119-6.3-6.119-10.793c0-1.905,1.102-4.366,4.584-4.366c5.963,0,9.525,4.36,9.525,7.583 c0,1.686,0.018,3.291-1.067,3.291c-1.213,0-1.813-7.441-6.742-7.441c-1.368,0-2.258,1.653-2.258,3.428 c0,1.9,3.011,7.221,3.011,8.342c0,1.815-3.443,2.409-3.749,3.001c-0.285,0.553,1.509,2.288,1.377,4.103 c-0.075,1.028-0.568,2.789-1.21,3.822c-1.396,2.246-1.222,6.857-1.229,7.071c-0.011,0.343-0.078,1.881-0.119,2.041 c-0.059,0.232-0.231,0.797-0.436,0.797c-0.214,0-0.378-0.027-0.327-0.344c0.028-0.171,0.721-1.321,0.144-4.12 c-0.214-1.038-1.657-1.939-2.185-2.798c-0.81-1.325-1.99-6.377-3.856-6.377c-1.813,0-2.642,5.34-2.788,6.43 c-0.052,0.386-1.743,6.222-1.929,6.66c-0.1,0.236-0.4,0.611-0.712,0.611c-0.569,0-0.645,0.037-0.645-0.192 c0-0.196,1.897-3.794,1.956-6.129c0.063-2.772-3.778-2.466-5.106-3.432c-0.96-0.701-4.282-5.998-5.504-5.998 S9.637,27.69,7.847,27.69c-0.361,0-0.492-0.098-0.697-0.228C6.617,27.564,5.31,27.867,5.258,27.638z"/><path fill="#353535" d="M5.388,27.604c-0.075-0.295,1.067-0.953,1.388-1.66c0.968-2.135,2.549-1.874,2.873-2.004 c1.504-0.605,4.045,2.864,5.699,2.864c3.307,0,6.769-6.329,9.962-6.329c2.33,0,10.239,3.2,11.321,1.085 c0.527-1.028-6.083-6.407-6.083-10.849c0-1.837,1.061-4.301,4.455-4.301c6,0,9.419,4.37,9.419,7.486 c0,1.626,0.056,3.222-0.99,3.222c-1.11,0-1.772-7.499-6.811-7.499c-1.405,0-2.312,1.697-2.312,3.501 c0,1.896,3.055,7.339,3.055,8.421c0,1.76-3.488,2.347-3.819,2.915c-0.282,0.484,1.55,2.213,1.455,4.021 c-0.051,0.976-0.531,2.804-1.171,3.823c-1.441,2.296-1.24,7.018-1.243,7.207c-0.006,0.325-0.075,1.902-0.111,2.038 c-0.056,0.211-0.223,0.782-0.397,0.782c-0.184,0-0.322-0.029-0.271-0.346c0.027-0.165,0.731-1.347,0.113-4.213 c-0.216-1-1.669-1.924-2.189-2.775c-0.823-1.348-2.004-6.531-3.899-6.531c-1.838,0-2.634,5.487-2.775,6.538 c-0.05,0.372-1.776,6.379-1.956,6.801c-0.097,0.227-0.386,0.589-0.686,0.589c-0.548,0-0.593,0.035-0.593-0.185 c0-0.189,1.917-3.923,1.969-6.174c0.062-2.798-3.796-2.495-5.106-3.443c-0.927-0.673-4.335-6.014-5.514-6.014 s-1.396,1.022-3.22,1.022c-0.348,0-0.477-0.093-0.675-0.218C6.762,27.477,5.441,27.81,5.388,27.604z"/><path fill="#363636" d="M5.519,27.57c-0.081-0.283,1.038-0.954,1.346-1.634c0.932-2.056,2.512-1.81,2.823-1.935 c1.448-0.582,4.026,2.928,5.673,2.928c3.359,0,6.886-6.321,9.96-6.321c2.244,0,10.343,3.203,11.448,1.035 c0.529-1.038-6.047-6.515-6.047-10.906c0-1.768,1.019-4.235,4.326-4.235c6.038,0,9.312,4.381,9.312,7.39 c0,1.565,0.094,3.154-0.913,3.154s-1.73-7.557-6.881-7.557c-1.441,0-2.366,1.741-2.366,3.573c0,1.892,3.099,7.458,3.099,8.499 c0,1.705-3.528,2.289-3.888,2.83c-0.278,0.417,1.588,2.138,1.533,3.939c-0.028,0.923-0.495,2.82-1.132,3.825 c-1.487,2.346-1.258,7.178-1.258,7.344c-0.001,0.306-0.072,1.923-0.102,2.036c-0.052,0.19-0.215,0.767-0.358,0.767 c-0.153,0-0.266-0.031-0.215-0.348c0.026-0.159,0.743-1.374,0.082-4.307c-0.217-0.962-1.681-1.91-2.193-2.751 c-0.835-1.371-2.018-6.684-3.942-6.684c-1.862,0-2.626,5.635-2.762,6.647c-0.048,0.358-1.81,6.536-1.983,6.943 c-0.093,0.219-0.372,0.567-0.661,0.567c-0.528,0-0.541,0.034-0.541-0.178c0-0.182,1.936-4.052,1.983-6.22 c0.06-2.824-3.815-2.523-5.107-3.454c-0.895-0.645-4.389-6.031-5.524-6.031s-1.32,1.02-3.176,1.02 c-0.335,0-0.463-0.088-0.654-0.209C6.906,27.39,5.571,27.753,5.519,27.57z"/><path fill="#e3e3e3" d="M6.599,24.697C6.99,24.239,8.027,23,10,23c2.096,0,3.399,1.5,5.006,1.5c3.147,0,4.833-5.5,8.994-5.5	c5.858,0,11.256,5.341,12.778,2.922C38.166,19.715,29,14.259,29,10c0-1.759,0.943-4,5-4c3.143,0,10.021,2.282,10.021,10.342	C43.449,12.151,37.77,8,34.744,8c-2.331,0-2.723,1.671-2.723,2.638C32.021,12.87,38,17.706,38,21.55c0,1.29-0.974,3.45-4,3.45	c-3.596,0-4.927-2-9-2c-2.648,0-5.731,3-10,3c-2.368,0-3.528-2-4.992-2C8.603,24,6.599,24.697,6.599,24.697z"/><radialGradient id="t2TDPPyRGOF8EKx0HlO74a" cx="8.981" cy="25.906" r="2.29" gradientUnits="userSpaceOnUse"><stop offset=".403" stop-color="#363636"/><stop offset="1" stop-color="#212121"/></radialGradient><path fill="url(#t2TDPPyRGOF8EKx0HlO74a)" d="M8.401,25.374c-0.024-0.221-0.06-0.629,0.016-0.928c0.124-0.486,0.667-0.921,1.159-0.921	c0.485,0,1.087,0.512,1.098,1.011c0.011,0.487-0.119,0.99-0.309,1.234c-0.177,0.227-0.597,0.619-0.597,0.619L8.401,25.374z"/><radialGradient id="t2TDPPyRGOF8EKx0HlO74b" cx="-205.125" cy="151.604" r=".572" gradientTransform="rotate(-88.172 -164.003 -20.303)" gradientUnits="userSpaceOnUse"><stop offset="0" stop-color="#dbd2c6"/><stop offset=".061" stop-color="#d3cbbf"/><stop offset=".156" stop-color="#beb6ab"/><stop offset=".272" stop-color="#9a948c"/><stop offset=".403" stop-color="#6a6660"/><stop offset=".406" stop-color="#64615b"/><stop offset=".433" stop-color="#393734"/><stop offset=".457" stop-color="#1a1917"/><stop offset=".477" stop-color="#070706"/><stop offset=".492"/></radialGradient><path fill="url(#t2TDPPyRGOF8EKx0HlO74b)" d="M6.459,25.799c0.354-0.088,0.725,0.18,0.786,0.424c0.061,0.244-0.212,0.372-0.566,0.46	c-0.354,0.088-0.655,0.104-0.716-0.141S6.105,25.887,6.459,25.799z"/></svg>