<svg xmlns="http://www.w3.org/2000/svg" viewBox="0 0 48 48"><radialGradient id="zZ8mz_OBaoMCy40~ZBjTUa" cx="24" cy="21.082" r="28.941" fx="16.012" fy="21.181" gradientTransform="matrix(-.0147 .9999 1.0401 .0153 2.425 -3.237)" gradientUnits="userSpaceOnUse"><stop offset="0" stop-color="#c27359"/><stop offset=".218" stop-color="#b96c50"/><stop offset=".578" stop-color="#a05b39"/><stop offset=".885" stop-color="#854821"/><stop offset=".923" stop-color="#804621"/><stop offset=".97" stop-color="#704122"/><stop offset=".999" stop-color="#633c23"/></radialGradient><path fill="url(#zZ8mz_OBaoMCy40~ZBjTUa)" d="M37,18.605c0,0,0.151-2.207-1.162-4.017c-1.458-2.008-2.357-1.903-2.864-2.674 c-0.13-0.197-0.169-0.502-0.198-0.834c0.185,0.021,0.406,0.035,0.69,0.035c2.061,0,2.223-1.981,2.223-2.91 c0-0.93-0.323-2.021-1.698-2.021c-0.889,0-1.949,0.832-2.679,1.429C30.278,6.291,28.757,5,27,5c-1.508,0-2.323,0.775-3,0.775 S22.488,5,21,5c-1.757,0-3.278,1.291-4.312,2.613c-0.73-0.597-1.79-1.429-2.679-1.429c-1.374,0-1.698,1.091-1.698,2.021 c0,0.93,0.162,2.91,2.223,2.91c0.284,0,0.505-0.014,0.69-0.035c-0.029,0.332-0.068,0.636-0.198,0.834 c-0.507,0.771-1.406,0.666-2.864,2.674C10.849,16.397,11,18.605,11,18.605S7,21.901,7,27c0,6.076,2,12,17,12s17-5.924,17-12 C41,21.901,37,18.605,37,18.605z"/><radialGradient id="zZ8mz_OBaoMCy40~ZBjTUb" cx="33.485" cy="29.288" r="6.343" gradientTransform="matrix(1.0615 0 0 1.1977 -2.112 -7.713)" gradientUnits="userSpaceOnUse"><stop offset=".001" stop-color="#a87156"/><stop offset="1" stop-color="#a87156" stop-opacity="0"/></radialGradient><ellipse cx="33.434" cy="27.366" fill="url(#zZ8mz_OBaoMCy40~ZBjTUb)" rx="6.733" ry="7.597"/><radialGradient id="zZ8mz_OBaoMCy40~ZBjTUc" cx="33.485" cy="29.288" r="6.343" gradientTransform="matrix(-1.0615 0 0 1.1977 50.112 -7.713)" gradientUnits="userSpaceOnUse"><stop offset=".001" stop-color="#a87156"/><stop offset="1" stop-color="#a87156" stop-opacity="0"/></radialGradient><ellipse cx="14.566" cy="27.366" fill="url(#zZ8mz_OBaoMCy40~ZBjTUc)" rx="6.733" ry="7.597"/><path fill="#c77550" d="M24,36H13.173c0,0,0.076,7,4.827,7c3.466,0,4.202-0.495,6-0.495S26.534,43,30,43 c4.751,0,4.827-7,4.827-7H24z"/><path fill="#c67450" d="M24,36H13.183c0,0,0.076,6.973,4.822,6.973c3.463,0,4.192-0.498,5.995-0.498 s2.531,0.498,5.995,0.498c4.747,0,4.822-6.973,4.822-6.973H24z"/><path fill="#c5744f" d="M24,36H13.193c0,0,0.076,6.945,4.818,6.945c3.46,0,4.181-0.502,5.989-0.502s2.529,0.502,5.989,0.502 c4.742,0,4.818-6.945,4.818-6.945H24z"/><path fill="#c4734f" d="M24,36H13.203c0,0,0.075,6.918,4.814,6.918c3.457,0,4.17-0.506,5.984-0.506s2.527,0.506,5.984,0.506 c4.738,0,4.814-6.918,4.814-6.918H24z"/><path fill="#c3734e" d="M24,36H13.213c0,0,0.075,6.891,4.809,6.891c3.454,0,4.16-0.509,5.978-0.509s2.524,0.509,5.978,0.509 c4.734,0,4.809-6.891,4.809-6.891H24z"/><path fill="#c2724e" d="M24,36H13.222c0,0,0.075,6.864,4.805,6.864c3.451,0,4.149-0.513,5.973-0.513 s2.522,0.513,5.973,0.513c4.729,0,4.805-6.864,4.805-6.864H24z"/><path fill="#c1714d" d="M24,36H13.232c0,0,0.075,6.836,4.8,6.836c3.448,0,4.138-0.517,5.967-0.517s2.52,0.517,5.967,0.517 c4.725,0,4.8-6.836,4.8-6.836H24z"/><path fill="#c0714d" d="M24,36H13.242c0,0,0.075,6.809,4.796,6.809c3.444,0,4.127-0.52,5.962-0.52s2.517,0.52,5.962,0.52 c4.721,0,4.796-6.809,4.796-6.809H24z"/><path fill="#bf704d" d="M24,36H13.252c0,0,0.075,6.782,4.792,6.782c3.441,0,4.117-0.524,5.956-0.524 s2.515,0.524,5.956,0.524c4.716,0,4.792-6.782,4.792-6.782H24z"/><path fill="#be704c" d="M24,36H13.262c0,0,0.075,6.755,4.787,6.755c3.438,0,4.106-0.528,5.951-0.528 s2.513,0.528,5.951,0.528c4.712,0,4.787-6.755,4.787-6.755H24z"/><path fill="#bd6f4c" d="M24,36H13.272c0,0,0.075,6.727,4.783,6.727c3.435,0,4.095-0.531,5.946-0.531 s2.511,0.531,5.946,0.531c4.708,0,4.783-6.727,4.783-6.727H24z"/><path fill="#bc6f4b" d="M24,36H13.281c0,0,0.075,6.7,4.778,6.7c3.432,0,4.085-0.535,5.94-0.535s2.508,0.535,5.94,0.535 c4.704,0,4.778-6.7,4.778-6.7H24z"/><path fill="#bb6e4b" d="M24,36H13.291c0,0,0.075,6.673,4.774,6.673c3.429,0,4.074-0.539,5.935-0.539 s2.506,0.539,5.935,0.539c4.699,0,4.774-6.673,4.774-6.673H24z"/><path fill="#ba6d4a" d="M24,36H13.301c0,0,0.075,6.646,4.77,6.646c3.426,0,4.063-0.542,5.929-0.542s2.504,0.542,5.929,0.542 c4.695,0,4.77-6.646,4.77-6.646H24z"/><path fill="#b96d4a" d="M24,36H13.311c0,0,0.075,6.618,4.765,6.618c3.422,0,4.053-0.546,5.924-0.546 s2.501,0.546,5.924,0.546c4.691,0,4.765-6.618,4.765-6.618H24z"/><path fill="#b86c49" d="M24,36H13.321c0,0,0.075,6.591,4.761,6.591c3.419,0,4.042-0.55,5.918-0.55s2.499,0.55,5.918,0.55 c4.686,0,4.761-6.591,4.761-6.591H24z"/><path fill="#b76c49" d="M24,36H13.331c0,0,0.075,6.564,4.757,6.564c3.416,0,4.031-0.553,5.913-0.553 s2.497,0.553,5.913,0.553c4.682,0,4.757-6.564,4.757-6.564H24z"/><path fill="#b66b49" d="M24,36H13.34c0,0,0.075,6.536,4.752,6.536c3.413,0,4.02-0.557,5.907-0.557s2.494,0.557,5.907,0.557 c4.678,0,4.752-6.536,4.752-6.536H24z"/><path fill="#b56a48" d="M24,36H13.35c0,0,0.074,6.509,4.748,6.509c3.41,0,4.01-0.561,5.902-0.561s2.492,0.561,5.902,0.561 c4.673,0,4.748-6.509,4.748-6.509H24z"/><path fill="#b46a48" d="M24,36H13.36c0,0,0.074,6.482,4.743,6.482c3.407,0,3.999-0.564,5.896-0.564s2.49,0.564,5.896,0.564 c4.669,0,4.743-6.482,4.743-6.482H24z"/><path fill="#b36947" d="M24,36H13.37c0,0,0.074,6.455,4.739,6.455c3.403,0,3.988-0.568,5.891-0.568s2.488,0.568,5.891,0.568 c4.665,0,4.739-6.455,4.739-6.455H24z"/><path fill="#b26947" d="M24,36H13.38c0,0,0.074,6.427,4.735,6.427c3.4,0,3.978-0.572,5.886-0.572s2.485,0.572,5.886,0.572 c4.66,0,4.735-6.427,4.735-6.427H24z"/><path fill="#b16846" d="M24,36H13.39c0,0,0.074,6.4,4.73,6.4c3.397,0,3.967-0.575,5.88-0.575s2.483,0.575,5.88,0.575 c4.656,0,4.73-6.4,4.73-6.4H24z"/><path fill="#b06846" d="M24,36H13.399c0,0,0.074,6.373,4.726,6.373c3.394,0,3.956-0.579,5.875-0.579 s2.481,0.579,5.875,0.579c4.652,0,4.726-6.373,4.726-6.373H24z"/><path fill="#af6746" d="M24,36H13.409c0,0,0.074,6.346,4.721,6.346c3.391,0,3.945-0.583,5.869-0.583 s2.478,0.583,5.869,0.583c4.647,0,4.721-6.346,4.721-6.346H24z"/><path fill="#ae6645" d="M24,36H13.419c0,0,0.074,6.318,4.717,6.318c3.388,0,3.935-0.586,5.864-0.586 s2.476,0.586,5.864,0.586c4.643,0,4.717-6.318,4.717-6.318H24z"/><path fill="#ad6645" d="M24,36H13.429c0,0,0.074,6.291,4.713,6.291c3.385,0,3.924-0.59,5.858-0.59s2.474,0.59,5.858,0.59 c4.639,0,4.713-6.291,4.713-6.291H24z"/><path fill="#ac6544" d="M24,36H13.439c0,0,0.074,6.264,4.708,6.264c3.381,0,3.913-0.594,5.853-0.594 s2.471,0.594,5.853,0.594c4.634,0,4.708-6.264,4.708-6.264H24z"/><path fill="#ab6544" d="M24,36H13.449c0,0,0.074,6.237,4.704,6.237c3.378,0,3.903-0.597,5.847-0.597 s2.469,0.597,5.847,0.597c4.63,0,4.704-6.237,4.704-6.237H24z"/><path fill="#aa6443" d="M24,36H13.458c0,0,0.074,6.209,4.7,6.209c3.375,0,3.892-0.601,5.842-0.601s2.467,0.601,5.842,0.601 c4.626,0,4.7-6.209,4.7-6.209H24z"/><path fill="#a96343" d="M24,36H13.468c0,0,0.074,6.182,4.695,6.182c3.372,0,3.881-0.605,5.837-0.605 s2.465,0.605,5.837,0.605c4.622,0,4.695-6.182,4.695-6.182H24z"/><path fill="#a86342" d="M24,36H13.478c0,0,0.074,6.155,4.691,6.155c3.369,0,3.87-0.608,5.831-0.608s2.462,0.608,5.831,0.608 c4.617,0,4.691-6.155,4.691-6.155H24z"/><path fill="#a76242" d="M24,36H13.488c0,0,0.073,6.127,4.686,6.127c3.366,0,3.86-0.612,5.826-0.612s2.46,0.612,5.826,0.612 c4.613,0,4.686-6.127,4.686-6.127H24z"/><path fill="#a66242" d="M24,36H13.498c0,0,0.073,6.1,4.682,6.1c3.363,0,3.849-0.616,5.82-0.616s2.458,0.616,5.82,0.616 c4.609,0,4.682-6.1,4.682-6.1H24z"/><path fill="#a56141" d="M24,36H13.508c0,0,0.073,6.073,4.678,6.073c3.359,0,3.838-0.619,5.815-0.619 s2.455,0.619,5.815,0.619c4.604,0,4.678-6.073,4.678-6.073H24z"/><path fill="#a46041" d="M24,36H13.517c0,0,0.073,6.046,4.673,6.046c3.356,0,3.828-0.623,5.809-0.623 s2.453,0.623,5.809,0.623c4.6,0,4.673-6.046,4.673-6.046H24z"/><path fill="#a36040" d="M24,36H13.527c0,0,0.073,6.018,4.669,6.018c3.353,0,3.817-0.627,5.804-0.627 s2.451,0.627,5.804,0.627c4.596,0,4.669-6.018,4.669-6.018H24z"/><path fill="#a25f40" d="M24,36H13.537c0,0,0.073,5.991,4.664,5.991c3.35,0,3.806-0.631,5.798-0.631s2.448,0.631,5.798,0.631 c4.591,0,4.664-5.991,4.664-5.991H24z"/><path fill="#a15f3f" d="M24,36H13.547c0,0,0.073,5.964,4.66,5.964c3.347,0,3.796-0.634,5.793-0.634s2.446,0.634,5.793,0.634 c4.587,0,4.66-5.964,4.66-5.964H24z"/><path fill="#a05e3f" d="M24,36H13.557c0,0,0.073,5.937,4.656,5.937c3.344,0,3.785-0.638,5.788-0.638 s2.444,0.638,5.788,0.638c4.583,0,4.656-5.937,4.656-5.937H24z"/><path fill="#9f5e3f" d="M24,36H13.567c0,0,0.073,5.909,4.651,5.909c3.341,0,3.774-0.642,5.782-0.642 s2.442,0.642,5.782,0.642c4.578,0,4.651-5.909,4.651-5.909H24z"/><path fill="#9e5d3e" d="M24,36H13.576c0,0,0.073,5.882,4.647,5.882c3.337,0,3.763-0.645,5.777-0.645 s2.439,0.645,5.777,0.645c4.574,0,4.647-5.882,4.647-5.882H24z"/><path fill="#9d5c3e" d="M24,36H13.586c0,0,0.073,5.855,4.643,5.855c3.334,0,3.753-0.649,5.771-0.649 s2.437,0.649,5.771,0.649c4.57,0,4.643-5.855,4.643-5.855H24z"/><path fill="#9c5c3d" d="M24,36H13.596c0,0,0.073,5.828,4.638,5.828c3.331,0,3.742-0.653,5.766-0.653 s2.435,0.653,5.766,0.653c4.565,0,4.638-5.828,4.638-5.828H24z"/><path fill="#9b5b3d" d="M24,36H13.606c0,0,0.073,5.8,4.634,5.8c3.328,0,3.731-0.656,5.76-0.656s2.432,0.656,5.76,0.656 c4.561,0,4.634-5.8,4.634-5.8H24z"/><path fill="#9a5b3c" d="M24,36H13.616c0,0,0.073,5.773,4.629,5.773c3.325,0,3.721-0.66,5.755-0.66s2.43,0.66,5.755,0.66 c4.557,0,4.629-5.773,4.629-5.773H24z"/><path fill="#995a3c" d="M24,36H13.626c0,0,0.073,5.746,4.625,5.746c3.322,0,3.71-0.664,5.749-0.664s2.428,0.664,5.749,0.664 c4.553,0,4.625-5.746,4.625-5.746H24z"/><path fill="#98593c" d="M24,36H13.635c0,0,0.072,5.719,4.621,5.719c3.318,0,3.699-0.667,5.744-0.667 s2.425,0.667,5.744,0.667c4.548,0,4.621-5.719,4.621-5.719H24z"/><path fill="#97593b" d="M24,36H13.645c0,0,0.072,5.691,4.616,5.691c3.315,0,3.688-0.671,5.738-0.671 s2.423,0.671,5.738,0.671c4.544,0,4.616-5.691,4.616-5.691H24z"/><path fill="#96583b" d="M24,36H13.655c0,0,0.072,5.664,4.612,5.664c3.312,0,3.678-0.675,5.733-0.675 s2.421,0.675,5.733,0.675c4.54,0,4.612-5.664,4.612-5.664H24z"/><path fill="#95583a" d="M24,36H13.665c0,0,0.072,5.637,4.608,5.637c3.309,0,3.667-0.678,5.728-0.678 s2.419,0.678,5.728,0.678c4.535,0,4.608-5.637,4.608-5.637H24z"/><path fill="#94573a" d="M24,36H13.675c0,0,0.072,5.609,4.603,5.609c3.306,0,3.656-0.682,5.722-0.682 s2.416,0.682,5.722,0.682c4.531,0,4.603-5.609,4.603-5.609H24z"/><path fill="#935739" d="M24,36H13.685c0,0,0.072,5.582,4.599,5.582c3.303,0,3.646-0.686,5.717-0.686 s2.414,0.686,5.717,0.686c4.527,0,4.599-5.582,4.599-5.582H24z"/><path fill="#925639" d="M24,36H13.694c0,0,0.072,5.555,4.594,5.555c3.3,0,3.635-0.689,5.711-0.689s2.412,0.689,5.711,0.689 c4.522,0,4.594-5.555,4.594-5.555H24z"/><path fill="#915538" d="M24,36H13.704c0,0,0.072,5.528,4.59,5.528c3.296,0,3.624-0.693,5.706-0.693s2.409,0.693,5.706,0.693 c4.518,0,4.59-5.528,4.59-5.528H24z"/><path fill="#905538" d="M24,36H13.714c0,0,0.072,5.5,4.586,5.5c3.293,0,3.613-0.697,5.7-0.697s2.407,0.697,5.7,0.697 c4.514,0,4.586-5.5,4.586-5.5H24z"/><path fill="#8f5438" d="M24,36H13.724c0,0,0.072,5.473,4.581,5.473c3.29,0,3.603-0.7,5.695-0.7s2.405,0.7,5.695,0.7 c4.509,0,4.581-5.473,4.581-5.473H24z"/><path fill="#8e5437" d="M24,36H13.734c0,0,0.072,5.446,4.577,5.446c3.287,0,3.592-0.704,5.689-0.704 s2.402,0.704,5.689,0.704c4.505,0,4.577-5.446,4.577-5.446H24z"/><path fill="#8d5337" d="M24,36H13.744c0,0,0.072,5.419,4.572,5.419c3.284,0,3.581-0.708,5.684-0.708s2.4,0.708,5.684,0.708 c4.501,0,4.572-5.419,4.572-5.419H24z"/><path fill="#8c5236" d="M24,36H13.753c0,0,0.072,5.391,4.568,5.391c3.281,0,3.571-0.711,5.679-0.711 s2.398,0.711,5.679,0.711c4.496,0,4.568-5.391,4.568-5.391H24z"/><path fill="#8b5236" d="M24,36H13.763c0,0,0.072,5.364,4.564,5.364c3.278,0,3.56-0.715,5.673-0.715s2.396,0.715,5.673,0.715 c4.492,0,4.564-5.364,4.564-5.364H24z"/><path fill="#8a5135" d="M24,36H13.773c0,0,0.071,5.337,4.559,5.337c3.274,0,3.549-0.719,5.668-0.719 s2.393,0.719,5.668,0.719c4.488,0,4.559-5.337,4.559-5.337H24z"/><path fill="#895135" d="M24,36H13.783c0,0,0.071,5.31,4.555,5.31c3.271,0,3.539-0.722,5.662-0.722s2.391,0.722,5.662,0.722 c4.483,0,4.555-5.31,4.555-5.31H24z"/><path fill="#885035" d="M24,36H13.793c0,0,0.071,5.282,4.551,5.282c3.268,0,3.528-0.726,5.657-0.726 s2.389,0.726,5.657,0.726c4.479,0,4.551-5.282,4.551-5.282H24z"/><path fill="#874f34" d="M24,36H13.803c0,0,0.071,5.255,4.546,5.255c3.265,0,3.517-0.73,5.651-0.73s2.386,0.73,5.651,0.73 c4.475,0,4.546-5.255,4.546-5.255H24z"/><path fill="#864f34" d="M24,36H13.812c0,0,0.071,5.228,4.542,5.228c3.262,0,3.506-0.733,5.646-0.733 s2.384,0.733,5.646,0.733c4.471,0,4.542-5.228,4.542-5.228H24z"/><path fill="#854e33" d="M24,36H13.822c0,0,0.071,5.2,4.537,5.2c3.259,0,3.496-0.737,5.64-0.737s2.382,0.737,5.64,0.737 c4.466,0,4.537-5.2,4.537-5.2H24z"/><path fill="#844e33" d="M24,36H13.832c0,0,0.071,5.173,4.533,5.173c3.256,0,3.485-0.741,5.635-0.741 s2.379,0.741,5.635,0.741c4.462,0,4.533-5.173,4.533-5.173H24z"/><path fill="#834d32" d="M24,36H13.842c0,0,0.071,5.146,4.529,5.146c3.252,0,3.474-0.744,5.63-0.744s2.377,0.744,5.63,0.744 c4.458,0,4.529-5.146,4.529-5.146H24z"/><path fill="#824d32" d="M24,36H13.852c0,0,0.071,5.119,4.524,5.119c3.249,0,3.464-0.748,5.624-0.748 s2.375,0.748,5.624,0.748c4.453,0,4.524-5.119,4.524-5.119H24z"/><path fill="#814c31" d="M24,36H13.862c0,0,0.071,5.091,4.52,5.091c3.246,0,3.453-0.752,5.619-0.752s2.373,0.752,5.619,0.752 c4.449,0,4.52-5.091,4.52-5.091H24z"/><path fill="#804b31" d="M24,36H13.871c0,0,0.071,5.064,4.515,5.064c3.243,0,3.442-0.755,5.613-0.755s2.37,0.755,5.613,0.755 c4.445,0,4.515-5.064,4.515-5.064H24z"/><path fill="#7f4b31" d="M24,36H13.881c0,0,0.071,5.037,4.511,5.037c3.24,0,3.431-0.759,5.608-0.759s2.368,0.759,5.608,0.759 c4.44,0,4.511-5.037,4.511-5.037H24z"/><path fill="#7e4a30" d="M24,36H13.891c0,0,0.071,5.01,4.507,5.01c3.237,0,3.421-0.763,5.602-0.763s2.366,0.763,5.602,0.763 c4.436,0,4.507-5.01,4.507-5.01H24z"/><path fill="#7d4a30" d="M24,36H13.901c0,0,0.071,4.982,4.502,4.982c3.233,0,3.41-0.766,5.597-0.766s2.363,0.766,5.597,0.766 c4.432,0,4.502-4.982,4.502-4.982H24z"/><path fill="#7c492f" d="M24,36H13.911c0,0,0.071,4.955,4.498,4.955c3.23,0,3.399-0.77,5.591-0.77s2.361,0.77,5.591,0.77 c4.427,0,4.498-4.955,4.498-4.955H24z"/><path fill="#7b482f" d="M24,36H13.921c0,0,0.07,4.928,4.494,4.928c3.227,0,3.389-0.774,5.586-0.774s2.359,0.774,5.586,0.774 c4.423,0,4.494-4.928,4.494-4.928H24z"/><path fill="#7a482e" d="M24,36H13.93c0,0,0.07,4.901,4.489,4.901c3.224,0,3.378-0.777,5.58-0.777s2.356,0.777,5.58,0.777 c4.419,0,4.489-4.901,4.489-4.901H24z"/><path fill="#79472e" d="M24,36H13.94c0,0,0.07,4.873,4.485,4.873c3.221,0,3.367-0.781,5.575-0.781s2.354,0.781,5.575,0.781 c4.414,0,4.485-4.873,4.485-4.873H24z"/><path fill="#78472e" d="M24,36H13.95c0,0,0.07,4.846,4.48,4.846c3.218,0,3.356-0.785,5.57-0.785s2.352,0.785,5.57,0.785 c4.41,0,4.48-4.846,4.48-4.846H24z"/><path fill="#77462d" d="M24,36H13.96c0,0,0.07,4.819,4.476,4.819c3.215,0,3.346-0.788,5.564-0.788s2.35,0.788,5.564,0.788 C33.97,40.819,34.04,36,34.04,36H24z"/><path fill="#76452d" d="M24,36H13.97c0,0,0.07,4.791,4.472,4.791c3.211,0,3.335-0.792,5.559-0.792s2.347,0.792,5.559,0.792 C33.96,40.791,34.03,36,34.03,36H24z"/><path fill="#75452c" d="M24,36H13.98c0,0,0.07,4.764,4.467,4.764c3.208,0,3.324-0.796,5.553-0.796s2.345,0.796,5.553,0.796 C33.95,40.764,34.02,36,34.02,36H24z"/><path fill="#74442c" d="M24,36H13.989c0,0,0.07,4.737,4.463,4.737c3.205,0,3.314-0.8,5.548-0.8s2.343,0.8,5.548,0.8 c4.393,0,4.463-4.737,4.463-4.737H24z"/><path fill="#73442b" d="M24,36H13.999c0,0,0.07,4.71,4.458,4.71c3.202,0,3.303-0.803,5.542-0.803s2.34,0.803,5.542,0.803 c4.389,0,4.458-4.71,4.458-4.71H24z"/><path fill="#72432b" d="M24,36h-9.991c0,0,0.07,4.682,4.454,4.682c3.199,0,3.292-0.807,5.537-0.807s2.338,0.807,5.537,0.807 c4.384,0,4.454-4.682,4.454-4.682H24z"/><path fill="#71432a" d="M24,36h-9.981c0,0,0.07,4.655,4.45,4.655c3.196,0,3.282-0.811,5.531-0.811s2.336,0.811,5.531,0.811 c4.38,0,4.45-4.655,4.45-4.655H24z"/><path fill="#70422a" d="M24,36h-9.971c0,0,0.07,4.628,4.445,4.628c3.193,0,3.271-0.814,5.526-0.814s2.333,0.814,5.526,0.814 c4.376,0,4.445-4.628,4.445-4.628H24z"/><path fill="#6f412a" d="M24,36h-9.961c0,0,0.07,4.601,4.441,4.601c3.189,0,3.26-0.818,5.521-0.818s2.331,0.818,5.521,0.818 c4.371,0,4.441-4.601,4.441-4.601H24z"/><path fill="#6e4129" d="M24,36h-9.952c0,0,0.07,4.573,4.437,4.573c3.186,0,3.249-0.822,5.515-0.822s2.329,0.822,5.515,0.822 c4.367,0,4.437-4.573,4.437-4.573H24z"/><path fill="#6d4029" d="M24,36h-9.942c0,0,0.069,4.546,4.432,4.546c3.183,0,3.239-0.825,5.51-0.825s2.327,0.825,5.51,0.825 c4.363,0,4.432-4.546,4.432-4.546H24z"/><path fill="#6c4028" d="M24,36h-9.932c0,0,0.069,4.519,4.428,4.519c3.18,0,3.228-0.829,5.504-0.829s2.324,0.829,5.504,0.829 c4.358,0,4.428-4.519,4.428-4.519H24z"/><path fill="#6b3f28" d="M24,36h-9.922c0,0,0.069,4.492,4.423,4.492c3.177,0,3.217-0.833,5.499-0.833 s2.322,0.833,5.499,0.833c4.354,0,4.423-4.492,4.423-4.492H24z"/><path fill="#6a3e27" d="M24,36h-9.912c0,0,0.069,4.464,4.419,4.464c3.174,0,3.207-0.836,5.493-0.836s2.32,0.836,5.493,0.836 c4.35,0,4.419-4.464,4.419-4.464H24z"/><path fill="#693e27" d="M24,36h-9.903c0,0,0.069,4.437,4.415,4.437c3.171,0,3.196-0.84,5.488-0.84s2.317,0.84,5.488,0.84 c4.345,0,4.415-4.437,4.415-4.437H24z"/><path fill="#683d27" d="M24,36h-9.893c0,0,0.069,4.41,4.41,4.41c3.167,0,3.185-0.844,5.482-0.844s2.315,0.844,5.482,0.844 c4.341,0,4.41-4.41,4.41-4.41H24z"/><path fill="#673d26" d="M24,36h-9.883c0,0,0.069,4.382,4.406,4.382c3.164,0,3.174-0.847,5.477-0.847 s2.313,0.847,5.477,0.847c4.337,0,4.406-4.382,4.406-4.382H24z"/><path fill="#663c26" d="M24,36h-9.873c0,0,0.069,4.355,4.402,4.355c3.161,0,3.164-0.851,5.472-0.851s2.31,0.851,5.472,0.851 c4.332,0,4.402-4.355,4.402-4.355H24z"/><path fill="#653c25" d="M24,36h-9.863c0,0,0.069,4.328,4.397,4.328c3.158,0,3.153-0.855,5.466-0.855 s2.308,0.855,5.466,0.855c4.328,0,4.397-4.328,4.397-4.328H24z"/><path fill="#643b25" d="M24,36h-9.853c0,0,0.069,4.301,4.393,4.301c3.155,0,3.142-0.858,5.461-0.858 s2.306,0.858,5.461,0.858c4.324,0,4.393-4.301,4.393-4.301H24z"/><path fill="#633a24" d="M24,36h-9.844c0,0,0.069,4.273,4.388,4.273c3.152,0,3.132-0.862,5.455-0.862 s2.304,0.862,5.455,0.862c4.32,0,4.388-4.273,4.388-4.273H24z"/><path fill="#623a24" d="M24,36h-9.834c0,0,0.069,4.246,4.384,4.246c3.149,0,3.121-0.866,5.45-0.866s2.301,0.866,5.45,0.866 c4.315,0,4.384-4.246,4.384-4.246H24z"/><path fill="#613924" d="M24,36h-9.824c0,0,0.069,4.219,4.38,4.219c3.145,0,3.11-0.869,5.444-0.869s2.299,0.869,5.444,0.869 c4.311,0,4.38-4.219,4.38-4.219H24z"/><path fill="#603923" d="M24,36h-9.814c0,0,0.069,4.192,4.375,4.192c3.142,0,3.1-0.873,5.439-0.873s2.297,0.873,5.439,0.873 c4.307,0,4.375-4.192,4.375-4.192H24z"/><path fill="#5f3823" d="M24,36h-9.804c0,0,0.069,4.164,4.371,4.164c3.139,0,3.089-0.877,5.433-0.877 s2.294,0.877,5.433,0.877c4.302,0,4.371-4.164,4.371-4.164H24z"/><path fill="#5e3722" d="M24,36h-9.794c0,0,0.068,4.137,4.366,4.137c3.136,0,3.078-0.88,5.428-0.88s2.292,0.88,5.428,0.88 c4.298,0,4.366-4.137,4.366-4.137H24z"/><path fill="#5d3722" d="M24,36h-9.785c0,0,0.068,4.11,4.362,4.11c3.133,0,3.067-0.884,5.422-0.884s2.29,0.884,5.422,0.884 c4.294,0,4.362-4.11,4.362-4.11H24z"/><path fill="#5c3621" d="M24,36h-9.775c0,0,0.068,4.083,4.358,4.083c3.13,0,3.057-0.888,5.417-0.888s2.287,0.888,5.417,0.888 c4.289,0,4.358-4.083,4.358-4.083H24z"/><path fill="#5b3621" d="M24,36h-9.765c0,0,0.068,4.055,4.353,4.055c3.126,0,3.046-0.891,5.412-0.891 s2.285,0.891,5.412,0.891c4.285,0,4.353-4.055,4.353-4.055H24z"/><path fill="#5a3520" d="M24,36h-9.755c0,0,0.068,4.028,4.349,4.028c3.123,0,3.035-0.895,5.406-0.895 s2.283,0.895,5.406,0.895c4.281,0,4.349-4.028,4.349-4.028H24z"/><path fill="#593420" d="M24,36h-9.745c0,0,0.068,4.001,4.345,4.001c3.12,0,3.025-0.899,5.401-0.899s2.28,0.899,5.401,0.899 c4.276,0,4.345-4.001,4.345-4.001H24z"/><path fill="#583420" d="M24,36h-9.735c0,0,0.068,3.973,4.34,3.973c3.117,0,3.014-0.902,5.395-0.902s2.278,0.902,5.395,0.902 c4.272,0,4.34-3.973,4.34-3.973H24z"/><path fill="#57331f" d="M24,36h-9.726c0,0,0.068,3.946,4.336,3.946c3.114,0,3.003-0.906,5.39-0.906s2.276,0.906,5.39,0.906 c4.268,0,4.336-3.946,4.336-3.946H24z"/><path fill="#56331f" d="M24,36h-9.716c0,0,0.068,3.919,4.331,3.919c3.111,0,2.992-0.91,5.384-0.91s2.274,0.91,5.384,0.91 c4.263,0,4.331-3.919,4.331-3.919H24z"/><path fill="#55321e" d="M24,36h-9.706c0,0,0.068,3.892,4.327,3.892c3.108,0,2.982-0.913,5.379-0.913 s2.271,0.913,5.379,0.913c4.259,0,4.327-3.892,4.327-3.892H24z"/><path fill="#54321e" d="M24,36h-9.696c0,0,0.068,3.864,4.323,3.864c3.104,0,2.971-0.917,5.373-0.917 s2.269,0.917,5.373,0.917c4.255,0,4.323-3.864,4.323-3.864H24z"/><path fill="#53311d" d="M24,36h-9.686c0,0,0.068,3.837,4.318,3.837c3.101,0,2.96-0.921,5.368-0.921s2.267,0.921,5.368,0.921 c4.251,0,4.318-3.837,4.318-3.837H24z"/><path fill="#52301d" d="M24,36h-9.676c0,0,0.068,3.81,4.314,3.81c3.098,0,2.95-0.924,5.363-0.924s2.264,0.924,5.363,0.924 c4.246,0,4.314-3.81,4.314-3.81H24z"/><path fill="#51301d" d="M24,36h-9.667c0,0,0.068,3.783,4.309,3.783c3.095,0,2.939-0.928,5.357-0.928 s2.262,0.928,5.357,0.928c4.242,0,4.309-3.783,4.309-3.783H24z"/><path fill="#502f1c" d="M24,36h-9.657c0,0,0.068,3.755,4.305,3.755c3.092,0,2.928-0.932,5.352-0.932s2.26,0.932,5.352,0.932 c4.238,0,4.305-3.755,4.305-3.755H24z"/><path fill="#4f2f1c" d="M24,36h-9.647c0,0,0.067,3.728,4.301,3.728c3.089,0,2.917-0.935,5.346-0.935 s2.257,0.935,5.346,0.935c4.233,0,4.301-3.728,4.301-3.728H24z"/><path fill="#4e2e1b" d="M24,36h-9.637c0,0,0.067,3.701,4.296,3.701c3.086,0,2.907-0.939,5.341-0.939 s2.255,0.939,5.341,0.939c4.229,0,4.296-3.701,4.296-3.701H24z"/><path fill="#4d2d1b" d="M24,36h-9.627c0,0,0.067,3.674,4.292,3.674c3.082,0,2.896-0.943,5.335-0.943 s2.253,0.943,5.335,0.943c4.225,0,4.292-3.674,4.292-3.674H24z"/><path fill="#4c2d1a" d="M24,36h-9.617c0,0,0.067,3.646,4.288,3.646c3.079,0,2.885-0.946,5.33-0.946s2.251,0.946,5.33,0.946 c4.22,0,4.288-3.646,4.288-3.646H24z"/><path fill="#4b2c1a" d="M24,36h-9.608c0,0,0.067,3.619,4.283,3.619c3.076,0,2.875-0.95,5.324-0.95s2.248,0.95,5.324,0.95 c4.216,0,4.283-3.619,4.283-3.619H24z"/><path fill="#4a2c19" d="M24,36h-9.598c0,0,0.067,3.592,4.279,3.592c3.073,0,2.864-0.954,5.319-0.954 s2.246,0.954,5.319,0.954c4.212,0,4.279-3.592,4.279-3.592H24z"/><path fill="#492b19" d="M24,36h-9.588c0,0,0.067,3.565,4.274,3.565c3.07,0,2.853-0.957,5.313-0.957s2.244,0.957,5.313,0.957 c4.207,0,4.274-3.565,4.274-3.565H24z"/><path fill="#482b19" d="M24,36h-9.578c0,0,0.067,3.537,4.27,3.537c3.067,0,2.843-0.961,5.308-0.961s2.241,0.961,5.308,0.961 c4.203,0,4.27-3.537,4.27-3.537H24z"/><path fill="#472a18" d="M24,36h-9.568c0,0,0.067,3.51,4.266,3.51c3.064,0,2.832-0.965,5.303-0.965s2.239,0.965,5.303,0.965 c4.199,0,4.266-3.51,4.266-3.51H24z"/><path fill="#462918" d="M24,36h-9.558c0,0,0.067,3.483,4.261,3.483c3.06,0,2.821-0.969,5.297-0.969s2.237,0.969,5.297,0.969 c4.194,0,4.261-3.483,4.261-3.483H24z"/><path fill="#452917" d="M24,36h-9.549c0,0,0.067,3.455,4.257,3.455c3.057,0,2.81-0.972,5.292-0.972s2.234,0.972,5.292,0.972 c4.19,0,4.257-3.455,4.257-3.455H24z"/><path fill="#442817" d="M24,36h-9.539c0,0,0.067,3.428,4.252,3.428c3.054,0,2.8-0.976,5.286-0.976s2.232,0.976,5.286,0.976 c4.186,0,4.252-3.428,4.252-3.428H24z"/><path fill="#432816" d="M24,36h-9.529c0,0,0.067,3.401,4.248,3.401c3.051,0,2.789-0.98,5.281-0.98s2.23,0.98,5.281,0.98 c4.181,0,4.248-3.401,4.248-3.401H24z"/><path fill="#422716" d="M24,36h-9.519c0,0,0.067,3.374,4.244,3.374c3.048,0,2.778-0.983,5.275-0.983 s2.228,0.983,5.275,0.983c4.177,0,4.244-3.374,4.244-3.374H24z"/><radialGradient id="zZ8mz_OBaoMCy40~ZBjTUd" cx="23.851" cy="23.22" r="25.561" gradientTransform="matrix(-.0087 1 .5093 .0044 12.53 -.732)" gradientUnits="userSpaceOnUse"><stop offset="0" stop-color="#c27359"/><stop offset=".202" stop-color="#b96c50"/><stop offset=".536" stop-color="#9f5b39"/><stop offset=".819" stop-color="#854821"/><stop offset=".879" stop-color="#804621"/><stop offset=".953" stop-color="#704122"/><stop offset=".999" stop-color="#633c23"/></radialGradient><path fill="url(#zZ8mz_OBaoMCy40~ZBjTUd)" d="M15.27,27.873c0.963-1.086,1.612-1.397,1.612-2.793c0-1.397,0.529-4.04,1.033-4.727	s3.653-4.152,6.085-4.152s5.316,3.271,6.085,4.152s1.033,3.331,1.033,4.727c0,1.397,0.648,1.708,1.612,2.793	c1.482,1.671,2.364,3.784,2.364,7.74C35.093,37.93,33.041,39,31,39c-2.645,0-4.69-1-7-1s-4.355,1-7,1	c-2.041,0-4.093-1.07-4.093-3.387C12.907,31.657,13.788,29.544,15.27,27.873z"/><radialGradient id="zZ8mz_OBaoMCy40~ZBjTUe" cx="128.484" cy="-514.474" r="1.717" gradientTransform="matrix(-1.3386 -.4924 .6334 -1.7216 529.367 -806.258)" gradientUnits="userSpaceOnUse"><stop offset=".616" stop-color="#ba7863" stop-opacity=".8"/><stop offset="1" stop-color="#ba7863" stop-opacity="0"/></radialGradient><path fill="url(#zZ8mz_OBaoMCy40~ZBjTUe)" d="M29.173,15.319c0.624-1.696,2.188-2.681,3.493-2.201c1.305,0.48,1.857,2.244,1.233,3.94	c-0.624,1.696-2.188,2.681-3.493,2.201C29.101,18.779,28.549,17.015,29.173,15.319z"/><radialGradient id="zZ8mz_OBaoMCy40~ZBjTUf" cx="27.308" cy="8.024" r="2.423" gradientUnits="userSpaceOnUse"><stop offset="0" stop-color="#ba8163" stop-opacity=".7"/><stop offset="1" stop-color="#ba8163" stop-opacity="0"/></radialGradient><circle cx="27.308" cy="8.024" r="2.423" fill="url(#zZ8mz_OBaoMCy40~ZBjTUf)"/><radialGradient id="zZ8mz_OBaoMCy40~ZBjTUg" cx="24" cy="16.081" r="7.573" gradientUnits="userSpaceOnUse"><stop offset="0" stop-color="#c27359"/><stop offset="1" stop-color="#c27359" stop-opacity="0"/></radialGradient><circle cx="24" cy="16.081" r="7.573" fill="url(#zZ8mz_OBaoMCy40~ZBjTUg)"/><radialGradient id="zZ8mz_OBaoMCy40~ZBjTUh" cx="20.992" cy="8.024" r="2.423" gradientUnits="userSpaceOnUse"><stop offset="0" stop-color="#ba8163" stop-opacity=".7"/><stop offset="1" stop-color="#ba8163" stop-opacity="0"/></radialGradient><circle cx="20.992" cy="8.024" r="2.423" fill="url(#zZ8mz_OBaoMCy40~ZBjTUh)"/><radialGradient id="zZ8mz_OBaoMCy40~ZBjTUi" cx="29.345" cy="34.042" r="4.968" gradientTransform="matrix(1.0615 0 0 1.1977 -2.112 -7.713)" gradientUnits="userSpaceOnUse"><stop offset="0" stop-color="#ba7863"/><stop offset="1" stop-color="#ba7863" stop-opacity="0"/></radialGradient><ellipse cx="29.039" cy="33.06" fill="url(#zZ8mz_OBaoMCy40~ZBjTUi)" rx="5.273" ry="5.95"/><radialGradient id="zZ8mz_OBaoMCy40~ZBjTUj" cx="29.345" cy="34.042" r="4.968" gradientTransform="matrix(-1.0615 0 0 1.1977 50.112 -7.713)" gradientUnits="userSpaceOnUse"><stop offset="0" stop-color="#ba7863"/><stop offset="1" stop-color="#ba7863" stop-opacity="0"/></radialGradient><ellipse cx="18.961" cy="33.06" fill="url(#zZ8mz_OBaoMCy40~ZBjTUj)" rx="5.273" ry="5.95"/><linearGradient id="zZ8mz_OBaoMCy40~ZBjTUk" x1="35.863" x2="32.516" y1="7.313" y2="9.447" gradientUnits="userSpaceOnUse"><stop offset="0" stop-color="#ba7863" stop-opacity=".5"/><stop offset="1" stop-color="#ba7863" stop-opacity="0"/></linearGradient><path fill="url(#zZ8mz_OBaoMCy40~ZBjTUk)" d="M30.495,8.205c0.323-0.02,2.122-2.021,3.496-2.021c1.374,0,1.698,1.091,1.698,2.021	s-0.162,2.91-2.223,2.91c-1.132,0-1.253-0.222-2.162-0.222L30.495,8.205z"/><radialGradient id="zZ8mz_OBaoMCy40~ZBjTUl" cx="35.05" cy="11.514" r="4.385" gradientUnits="userSpaceOnUse"><stop offset=".21" stop-color="#c27359"/><stop offset=".316" stop-color="#ba6b50"/><stop offset=".492" stop-color="#a55437"/><stop offset=".631" stop-color="#913e1e"/><stop offset=".706" stop-color="#7d361a"/><stop offset=".857" stop-color="#48200f"/><stop offset="1" stop-color="#120904"/></radialGradient><path fill="url(#zZ8mz_OBaoMCy40~ZBjTUl)" d="M33.82,7.001c-1.504,0.148-1.325,2.939-2.637,3.491l0.121,0.401	c0.909,0,1.031,0.222,2.162,0.222C34.978,10.791,36.32,6.755,33.82,7.001z"/><linearGradient id="zZ8mz_OBaoMCy40~ZBjTUm" x1="35.863" x2="32.516" y1="7.313" y2="9.447" gradientTransform="matrix(-1 0 0 1 48 0)" gradientUnits="userSpaceOnUse"><stop offset="0" stop-color="#ba7863" stop-opacity=".5"/><stop offset="1" stop-color="#ba7863" stop-opacity="0"/></linearGradient><path fill="url(#zZ8mz_OBaoMCy40~ZBjTUm)" d="M17.505,8.205c-0.323-0.02-2.122-2.021-3.496-2.021s-1.698,1.091-1.698,2.021	s0.162,2.91,2.223,2.91c1.132,0,1.253-0.222,2.162-0.222L17.505,8.205z"/><radialGradient id="zZ8mz_OBaoMCy40~ZBjTUn" cx="35.05" cy="11.514" r="4.385" gradientTransform="matrix(-1 0 0 1 48 0)" gradientUnits="userSpaceOnUse"><stop offset=".21" stop-color="#c27359"/><stop offset=".316" stop-color="#ba6b50"/><stop offset=".492" stop-color="#a55437"/><stop offset=".631" stop-color="#913e1e"/><stop offset=".706" stop-color="#7d361a"/><stop offset=".857" stop-color="#48200f"/><stop offset="1" stop-color="#120904"/></radialGradient><path fill="url(#zZ8mz_OBaoMCy40~ZBjTUn)" d="M14.18,7.001c1.504,0.148,1.325,2.939,2.637,3.491l-0.121,0.401	c-0.909,0-1.031,0.222-2.162,0.222C13.022,10.791,11.68,6.755,14.18,7.001z"/><g><radialGradient id="zZ8mz_OBaoMCy40~ZBjTUo" cx="31.344" cy="15.98" r="1.984" gradientTransform="matrix(-.0991 .9951 -.7998 -.0796 47.23 -13.938)" gradientUnits="userSpaceOnUse"><stop offset=".097" stop-color="#1c1411"/><stop offset=".361" stop-color="#1c1411"/><stop offset=".362" stop-color="#231b18"/><stop offset=".364" stop-color="#372d2a"/><stop offset=".366" stop-color="#443a37"/><stop offset=".701" stop-color="#443a37"/><stop offset=".73" stop-color="#715f58"/><stop offset=".781" stop-color="#c7a597"/></radialGradient><path fill="url(#zZ8mz_OBaoMCy40~ZBjTUo)" d="M30.584,17.67c-0.032-0.011-0.058-0.035-0.072-0.066c-0.023-0.052-0.564-1.287-0.13-2.354 c0.216-0.531,0.636-0.924,1.248-1.167c0.015-0.006,0.031-0.009,0.046-0.009c0.041,0,0.08,0.02,0.104,0.055 c0.026,0.039,0.641,0.965,0.372,2.038c-0.216,0.867-1.419,1.473-1.47,1.498c-0.018,0.009-0.037,0.013-0.056,0.013 C30.613,17.678,30.598,17.675,30.584,17.67z"/><path fill="#52342b" d="M31.677,14.199c0,0,0.612,0.906,0.355,1.937c-0.205,0.821-1.404,1.417-1.404,1.417 S29.514,15.059,31.677,14.199 M31.677,13.949c-0.031,0-0.062,0.006-0.092,0.018c-0.645,0.256-1.088,0.672-1.317,1.236 c-0.454,1.115,0.108,2.398,0.132,2.452c0.028,0.062,0.08,0.11,0.144,0.133c0.027,0.01,0.056,0.015,0.085,0.015 c0.038,0,0.076-0.009,0.111-0.026c0.053-0.026,1.305-0.657,1.536-1.58c0.282-1.126-0.363-2.097-0.39-2.138 C31.836,13.989,31.758,13.949,31.677,13.949L31.677,13.949z"/></g><radialGradient id="zZ8mz_OBaoMCy40~ZBjTUp" cx="128.484" cy="-514.474" r="1.717" gradientTransform="matrix(1.3386 -.4924 -.6334 -1.7216 -481.367 -806.258)" gradientUnits="userSpaceOnUse"><stop offset=".616" stop-color="#ba7863" stop-opacity=".8"/><stop offset="1" stop-color="#ba7863" stop-opacity="0"/></radialGradient><path fill="url(#zZ8mz_OBaoMCy40~ZBjTUp)" d="M18.827,15.319c-0.624-1.696-2.188-2.681-3.493-2.201s-1.857,2.244-1.233,3.94	s2.188,2.681,3.493,2.201C18.899,18.779,19.451,17.015,18.827,15.319z"/><g><radialGradient id="zZ8mz_OBaoMCy40~ZBjTUq" cx="31.344" cy="15.98" r="1.984" gradientTransform="matrix(.0991 .9951 .7998 -.0796 .77 -13.938)" gradientUnits="userSpaceOnUse"><stop offset=".097" stop-color="#1c1411"/><stop offset=".361" stop-color="#1c1411"/><stop offset=".362" stop-color="#231b18"/><stop offset=".364" stop-color="#372d2a"/><stop offset=".366" stop-color="#443a37"/><stop offset=".701" stop-color="#443a37"/><stop offset=".73" stop-color="#715f58"/><stop offset=".781" stop-color="#c7a597"/></radialGradient><path fill="url(#zZ8mz_OBaoMCy40~ZBjTUq)" d="M17.373,17.678c-0.019,0-0.038-0.004-0.056-0.013c-0.051-0.025-1.253-0.631-1.47-1.498 c-0.269-1.073,0.346-1.999,0.372-2.038c0.024-0.035,0.063-0.055,0.104-0.055c0.016,0,0.031,0.003,0.046,0.009 c0.612,0.243,1.032,0.636,1.248,1.167c0.434,1.066-0.107,2.302-0.13,2.354c-0.014,0.031-0.04,0.056-0.072,0.066 C17.402,17.675,17.387,17.678,17.373,17.678z"/><path fill="#52342b" d="M16.323,14.199c2.162,0.86,1.049,3.354,1.049,3.354s-1.199-0.595-1.404-1.417 C15.711,15.105,16.323,14.199,16.323,14.199 M16.323,13.949c-0.081,0-0.16,0.04-0.207,0.11c-0.028,0.041-0.672,1.012-0.39,2.138 c0.231,0.923,1.482,1.553,1.536,1.58c0.035,0.017,0.073,0.026,0.111,0.026c0.029,0,0.057-0.005,0.085-0.015 c0.064-0.023,0.116-0.071,0.144-0.133c0.024-0.054,0.586-1.337,0.132-2.452c-0.229-0.564-0.673-0.98-1.317-1.236 C16.386,13.955,16.354,13.949,16.323,13.949L16.323,13.949z"/></g><radialGradient id="zZ8mz_OBaoMCy40~ZBjTUr" cx="23.964" cy="12.59" r="2.423" gradientTransform="matrix(.8443 0 0 1.5034 3.73 -9.291)" gradientUnits="userSpaceOnUse"><stop offset="0" stop-color="#854821" stop-opacity=".2"/><stop offset="1" stop-color="#854821" stop-opacity="0"/></radialGradient><ellipse cx="23.964" cy="9.637" fill="url(#zZ8mz_OBaoMCy40~ZBjTUr)" rx="2.046" ry="3.642"/><radialGradient id="zZ8mz_OBaoMCy40~ZBjTUs" cx="32.444" cy="12.508" r="2.423" gradientTransform="matrix(.5702 0 0 .5363 12.429 2.257)" gradientUnits="userSpaceOnUse"><stop offset="0" stop-color="#854821" stop-opacity=".4"/><stop offset="1" stop-color="#854821" stop-opacity="0"/></radialGradient><ellipse cx="30.927" cy="8.966" fill="url(#zZ8mz_OBaoMCy40~ZBjTUs)" rx="1.381" ry="1.299"/><radialGradient id="zZ8mz_OBaoMCy40~ZBjTUt" cx="8.509" cy="12.508" r="2.423" gradientTransform="matrix(.5702 0 0 .5363 12.429 2.257)" gradientUnits="userSpaceOnUse"><stop offset="0" stop-color="#854821" stop-opacity=".4"/><stop offset="1" stop-color="#854821" stop-opacity="0"/></radialGradient><ellipse cx="17.28" cy="8.966" fill="url(#zZ8mz_OBaoMCy40~ZBjTUt)" rx="1.381" ry="1.299"/><radialGradient id="zZ8mz_OBaoMCy40~ZBjTUu" cx="127.627" cy="-530.702" r="1.717" gradientTransform="matrix(-1.0576 -.3891 .577 -1.5684 469.279 -752.047)" gradientUnits="userSpaceOnUse"><stop offset=".616" stop-color="#ba7863" stop-opacity=".8"/><stop offset="1" stop-color="#ba7863" stop-opacity="0"/></radialGradient><path fill="url(#zZ8mz_OBaoMCy40~ZBjTUu)" d="M26.23,29.941c0.568-1.545,1.865-2.49,2.896-2.11c1.031,0.379,1.406,1.939,0.838,3.484	s-1.865,2.49-2.896,2.11C26.037,33.045,25.662,31.486,26.23,29.941z"/><radialGradient id="zZ8mz_OBaoMCy40~ZBjTUv" cx="27.824" cy="30.211" r="1.497" gradientUnits="userSpaceOnUse"><stop offset="0" stop-color="#1c1911"/><stop offset=".999" stop-color="#171714"/></radialGradient><path fill="url(#zZ8mz_OBaoMCy40~ZBjTUv)" d="M26.728,31.072c0-0.658,0.266-2.114,1.097-2.114c0.832,0,1.109,0.832,1.109,1.19	c0,0.358-0.497,1.663-1.479,1.663C26.785,31.811,26.728,31.372,26.728,31.072z"/><radialGradient id="zZ8mz_OBaoMCy40~ZBjTUw" cx="127.627" cy="-530.702" r="1.717" gradientTransform="matrix(1.0576 -.3891 -.577 -1.5684 -421.279 -752.047)" gradientUnits="userSpaceOnUse"><stop offset=".616" stop-color="#ba7863" stop-opacity=".8"/><stop offset="1" stop-color="#ba7863" stop-opacity="0"/></radialGradient><path fill="url(#zZ8mz_OBaoMCy40~ZBjTUw)" d="M21.77,29.941c-0.568-1.545-1.865-2.49-2.896-2.11c-1.031,0.379-1.406,1.939-0.838,3.484	s1.865,2.49,2.896,2.11C21.963,33.045,22.338,31.486,21.77,29.941z"/><radialGradient id="zZ8mz_OBaoMCy40~ZBjTUx" cx="27.824" cy="30.211" r="1.497" gradientTransform="matrix(-1 0 0 1 48 0)" gradientUnits="userSpaceOnUse"><stop offset="0" stop-color="#1c1911"/><stop offset=".999" stop-color="#171714"/></radialGradient><path fill="url(#zZ8mz_OBaoMCy40~ZBjTUx)" d="M21.272,31.072c0-0.658-0.266-2.114-1.097-2.114c-0.832,0-1.109,0.832-1.109,1.19	c0,0.358,0.497,1.663,1.479,1.663C21.215,31.811,21.272,31.372,21.272,31.072z"/></svg>