<svg xmlns="http://www.w3.org/2000/svg" viewBox="0 0 48 48"><path fill="#171514" d="M11.8,18c0,0-1.8-1.8-1.8-4.5s0.1-4.9,1-8.5c0.4-1.7,2-4,4-4c0.9,0,2,3,6,9.8L11.8,18z"/><radialGradient id="hxmqTTT117JBvJP3HCj~ea" cx="-2086.474" cy="389.406" r="5.956" gradientTransform="matrix(-.9743 -.2253 .3847 -1.6636 -2166.791 187.497)" gradientUnits="userSpaceOnUse"><stop offset="0" stop-color="#242120" stop-opacity="0"/><stop offset=".348" stop-color="#262323" stop-opacity=".348"/><stop offset=".579" stop-color="#2e2b2c" stop-opacity=".579"/><stop offset=".775" stop-color="#3b393b" stop-opacity=".775"/><stop offset=".951" stop-color="#4d4b50" stop-opacity=".951"/><stop offset="1" stop-color="#535257"/></radialGradient><path fill="url(#hxmqTTT117JBvJP3HCj~ea)" d="M10,13.5c0,2.7,1.8,4.5,1.8,4.5l9.2-7.2C17,4,15.9,1,15,1c-2,0-3.6,2.3-4,4C10.1,8.6,10,10.8,10,13.5	z"/><path fill="#171514" d="M36.2,18c0,0,1.8-1.8,1.8-4.5S37.9,8.6,37,5c-0.4-1.7-2-4-4-4c-0.9,0-2,3-6,9.8L36.2,18z"/><radialGradient id="hxmqTTT117JBvJP3HCj~eb" cx="134.883" cy="376.83" r="5.956" gradientTransform="matrix(.9792 .2028 .3463 -1.672 -228.22 613.171)" gradientUnits="userSpaceOnUse"><stop offset="0" stop-color="#242120" stop-opacity="0"/><stop offset=".348" stop-color="#262323" stop-opacity=".348"/><stop offset=".579" stop-color="#2e2b2c" stop-opacity=".579"/><stop offset=".775" stop-color="#3b393b" stop-opacity=".775"/><stop offset=".951" stop-color="#4d4b50" stop-opacity=".951"/><stop offset="1" stop-color="#535257"/></radialGradient><path fill="url(#hxmqTTT117JBvJP3HCj~eb)" d="M38,13.5c0,2.7-1.8,4.5-1.8,4.5L27,10.8C31,4,32.1,1,33,1c2,0,3.6,2.3,4,4C37.9,8.6,38,10.8,38,13.5z"/><path fill="#7E7E80" d="M35.5,18c0,0,1.5-1.6,1.5-3.9s-0.1-4.4-0.8-7.5C35.8,5,34.5,3,32.9,3c-0.8,0-1.6,2.6-4.9,8.7L35.5,18z"/><path fill="#7D7D7F" d="M35.5,18c0,0,1.5-1.6,1.5-3.9s-0.1-4.3-0.8-7.5c-0.4-1.5-1.6-3.5-3.3-3.5c-0.7,0-1.6,2.6-4.9,8.6L35.5,18z"/><path fill="#7C7C7E" d="M35.5,17.9c0,0,1.5-1.6,1.5-3.9s-0.1-4.3-0.8-7.4c-0.4-1.5-1.6-3.5-3.2-3.5c-0.7,0-1.6,2.6-4.8,8.6 L35.5,17.9z"/><path fill="#7B7B7D" d="M35.4,17.9c0,0,1.5-1.5,1.5-3.9s-0.1-4.3-0.8-7.4c-0.4-1.5-1.6-3.5-3.2-3.5c-0.7,0-1.6,2.6-4.8,8.5 L35.4,17.9z"/><path fill="#7A7A7C" d="M35.4,17.9c0,0,1.5-1.5,1.5-3.8s-0.1-4.3-0.8-7.3c-0.4-1.5-1.6-3.4-3.2-3.4c-0.7,0-1.6,2.6-4.8,8.5 L35.4,17.9z"/><path fill="#79797B" d="M35.4,17.8c0,0,1.4-1.5,1.4-3.8S36.7,9.8,36,6.7c-0.4-1.5-1.6-3.4-3.2-3.4c-0.7,0-1.6,2.6-4.7,8.4 L35.4,17.8z"/><path fill="#78787A" d="M35.4,17.8c0,0,1.4-1.5,1.4-3.8S36.7,9.8,36,6.8c-0.3-1.5-1.6-3.4-3.1-3.4c-0.7,0-1.6,2.5-4.7,8.4 L35.4,17.8z"/><path fill="#777779" d="M35.4,17.8c0,0,1.4-1.5,1.4-3.8S36.7,9.8,36,6.8c-0.3-1.5-1.6-3.4-3.1-3.4c-0.7,0-1.6,2.5-4.7,8.3 L35.4,17.8z"/><path fill="#767678" d="M35.3,17.8c0,0,1.4-1.5,1.4-3.8s0-4.1-0.7-7.2c-0.3-1.5-1.5-3.4-3.1-3.4c-0.7,0-1.5,2.5-4.6,8.3L35.3,17.8z"/><path fill="#767577" d="M35.3,17.7c0,0,1.4-1.5,1.4-3.7s0-4.1-0.7-7.1c-0.3-1.4-1.5-3.3-3.1-3.3c-0.7,0-1.5,2.5-4.6,8.2L35.3,17.7z"/><path fill="#757576" d="M35.3,17.7c0,0,1.4-1.5,1.4-3.7s-0.1-4.1-0.8-7.1c-0.3-1.4-1.5-3.3-3-3.3c-0.7,0-1.5,2.5-4.6,8.1L35.3,17.7 z"/><path fill="#747475" d="M35.3,17.7c0,0,1.4-1.5,1.4-3.7s-0.1-4.1-0.8-7c-0.3-1.4-1.5-3.3-3-3.3c-0.7,0-1.5,2.5-4.5,8.1L35.3,17.7z"/><path fill="#737374" d="M35.3,17.6c0,0,1.4-1.5,1.4-3.7s-0.1-4-0.8-7c-0.3-1.4-1.5-3.3-3-3.3c-0.7,0-1.5,2.5-4.5,8L35.3,17.6z"/><path fill="#727273" d="M35.2,17.6c0,0,1.4-1.5,1.4-3.6s-0.1-4-0.7-6.9c-0.3-1.4-1.5-3.2-3-3.2c-0.7,0-1.5,2.4-4.5,8L35.2,17.6z"/><path fill="#717172" d="M35.2,17.6c0,0,1.4-1.4,1.4-3.6s-0.1-4-0.7-6.9c-0.3-1.4-1.5-3.2-3-3.2c-0.7,0-1.5,2.4-4.4,7.9L35.2,17.6z"/><path fill="#707071" d="M35.2,17.5c0,0,1.3-1.4,1.3-3.6s-0.1-4-0.7-6.8c-0.3-1.4-1.5-3.2-2.9-3.2c-0.7,0-1.5,2.4-4.4,7.9L35.2,17.5 z"/><path fill="#6F6F70" d="M35.2,17.5c0,0,1.3-1.4,1.3-3.6s-0.1-3.9-0.7-6.8C35.5,5.8,34.3,4,32.9,4c-0.7,0-1.5,2.4-4.4,7.8L35.2,17.5 z"/><path fill="#6E6E6F" d="M35.1,17.5c0,0,1.3-1.4,1.3-3.5s-0.1-3.9-0.7-6.7c-0.3-1.4-1.4-3.2-2.9-3.2c-0.7,0-1.4,2.4-4.3,7.8 L35.1,17.5z"/><path fill="#6D6D6E" d="M35.1,17.4c0,0,1.3-1.4,1.3-3.5s-0.1-3.9-0.7-6.7c-0.3-1.4-1.4-3.1-2.9-3.1c-0.7,0-1.4,2.4-4.3,7.7 L35.1,17.4z"/><path fill="#6C6C6D" d="M35.1,17.4c0,0,1.3-1.4,1.3-3.5s-0.1-3.9-0.7-6.6c-0.3-1.4-1.4-3.1-2.8-3.1c-0.7,0-1.4,2.3-4.3,7.7 L35.1,17.4z"/><path fill="#6B6B6C" d="M35.1,17.4c0,0,1.3-1.4,1.3-3.5s-0.1-3.8-0.7-6.6c-0.3-1.3-1.4-3.1-2.8-3.1c-0.6,0-1.4,2.3-4.2,7.6 L35.1,17.4z"/><path fill="#6A6A6B" d="M35.1,17.4c0,0,1.3-1.4,1.3-3.4s-0.1-3.8-0.7-6.5c-0.3-1.3-1.4-3.1-2.8-3.1c-0.6,0-1.4,2.3-4.2,7.6 L35.1,17.4z"/><path fill="#69696A" d="M35,17.3c0,0,1.3-1.4,1.3-3.4s-0.1-3.8-0.7-6.5c-0.3-1.3-1.4-3-2.8-3c-0.6,0-1.4,2.3-4.2,7.5L35,17.3z"/><path fill="#686869" d="M35,17.3c0,0,1.3-1.4,1.3-3.4s-0.1-3.7-0.7-6.5c-0.3-1.3-1.4-3-2.8-3c-0.6,0-1.4,2.3-4.1,7.4L35,17.3z"/><path fill="#676768" d="M35,17.3c0,0,1.3-1.3,1.3-3.4s-0.1-3.7-0.7-6.4c-0.3-1.3-1.4-3-2.7-3c-0.6,0-1.4,2.3-4.1,7.4L35,17.3z"/><path fill="#676667" d="M35,17.2c0,0,1.2-1.3,1.2-3.3s-0.1-3.7-0.7-6.4c-0.3-1.3-1.4-3-2.7-3c-0.6,0-1.4,2.2-4.1,7.3L35,17.2z"/><path fill="#666566" d="M35,17.2c0,0,1.2-1.3,1.2-3.3s-0.1-3.7-0.7-6.3c-0.3-1.3-1.3-3-2.7-3c-0.6,0-1.3,2.2-4,7.3L35,17.2z"/><path fill="#656465" d="M34.9,17.2c0,0,1.2-1.3,1.2-3.3s-0.1-3.6-0.7-6.3c-0.3-1.3-1.3-2.9-2.7-2.9c-0.6,0-1.3,2.2-4,7.2L34.9,17.2 z"/><path fill="#646364" d="M34.9,17.1c0,0,1.2-1.3,1.2-3.3s-0.1-3.6-0.7-6.2c-0.3-1.3-1.3-2.9-2.6-2.9c-0.6,0-1.3,2.2-4,7.2L34.9,17.1 z"/><path fill="#636263" d="M34.9,17.1c0,0,1.2-1.3,1.2-3.2s-0.1-3.6-0.7-6.2c-0.3-1.3-1.3-2.9-2.6-2.9c-0.6,0-1.3,2.2-3.9,7.1 L34.9,17.1z"/><path fill="#626262" d="M34.9,17.1c0,0,1.2-1.3,1.2-3.2s-0.1-3.6-0.6-6.1c-0.3-1.2-1.3-2.9-2.6-2.9c-0.6,0-1.3,2.2-3.9,7.1 L34.9,17.1z"/><path fill="#616161" d="M34.9,17c0,0,1.2-1.3,1.2-3.2s-0.1-3.5-0.6-6.1c-0.3-1.2-1.3-2.9-2.6-2.9c-0.6,0-1.3,2.1-3.9,7L34.9,17z"/><path fill="#606060" d="M34.8,17c0,0,1.2-1.3,1.2-3.2s-0.1-3.5-0.6-6C35.1,6.6,34.1,5,32.8,5c-0.6,0-1.3,2.1-3.8,7L34.8,17z"/><path fill="#5F5F5F" d="M34.8,17c0,0,1.2-1.3,1.2-3.1s-0.1-3.5-0.6-6C35.1,6.6,34.1,5,32.8,5c-0.6,0-1.2,2.1-3.8,7L34.8,17z"/><path fill="#5E5E5E" d="M34.8,16.9c0,0,1.1-1.2,1.1-3.1s-0.1-3.4-0.6-5.9C35,6.7,34,5.1,32.8,5.1c-0.6,0-1.3,2.1-3.8,6.9L34.8,16.9 z"/><path fill="#5D5D5D" d="M34.8,16.9c0,0,1.1-1.2,1.1-3.1s-0.1-3.4-0.6-5.9c-0.3-1.2-1.2-2.8-2.5-2.8c-0.6,0-1.2,2.1-3.7,6.8 L34.8,16.9z"/><path fill="#5C5C5C" d="M34.8,16.9c0,0,1.1-1.2,1.1-3.1s-0.1-3.4-0.6-5.8C35,6.8,34,5.2,32.8,5.2c-0.6,0-1.2,2.1-3.7,6.8L34.8,16.9 z"/><path fill="#5B5B5B" d="M34.7,16.9c0,0,1.1-1.2,1.1-3s-0.1-3.4-0.6-5.8C35,6.8,34,5.3,32.8,5.3c-0.6,0-1.2,2-3.7,6.7L34.7,16.9z"/><path fill="#5A5A5A" d="M34.7,16.8c0,0,1.1-1.2,1.1-3s-0.1-3.3-0.6-5.8C35,6.9,34,5.4,32.8,5.4c-0.6,0-1.2,2-3.6,6.6L34.7,16.8z"/><path fill="#595959" d="M34.7,16.8c0,0,1.1-1.2,1.1-3s0-3.3-0.6-5.7c-0.3-1.2-1.2-2.7-2.4-2.7c-0.5,0-1.2,2-3.6,6.6L34.7,16.8z"/><path fill="#585858" d="M34.7,16.8c0,0,1.1-1.2,1.1-3s0-3.3-0.6-5.7C34.9,7,34,5.5,32.8,5.5c-0.5,0-1.2,2-3.6,6.5L34.7,16.8z"/><path fill="#585757" d="M34.7,16.7c0,0,1.1-1.2,1.1-2.9s0-3.3-0.6-5.6C34.9,7,34,5.5,32.8,5.5c-0.5,0-1.2,2-3.5,6.5L34.7,16.7z"/><path fill="#575656" d="M34.6,16.7c0,0,1.1-1.2,1.1-2.9s0-3.2-0.6-5.6c-0.3-1.1-1.2-2.6-2.3-2.6c-0.5,0-1.2,2-3.5,6.4L34.6,16.7z"/><path fill="#565555" d="M34.6,16.7c0,0,1.1-1.2,1.1-2.9s0-3.2-0.6-5.5c-0.3-1.1-1.2-2.6-2.3-2.6c-0.5,0-1.2,1.9-3.5,6.4L34.6,16.7z"/><path fill="#555454" d="M34.6,16.6c0,0,1-1.1,1-2.9s0-3.2-0.6-5.5c-0.3-1.1-1.1-2.6-2.3-2.6c-0.5,0-1.1,1.9-3.4,6.3L34.6,16.6z"/><path fill="#545353" d="M34.6,16.6c0,0,1-1.1,1-2.8s0-3.2-0.6-5.4c-0.3-1.1-1.1-2.5-2.3-2.5c-0.5,0-1.1,1.9-3.4,6.3L34.6,16.6z"/><path fill="#535252" d="M34.6,16.6c0,0,1-1.1,1-2.8s0-3.1-0.6-5.4c-0.2-1.1-1.1-2.5-2.2-2.5c-0.5,0-1.1,1.9-3.4,6.2L34.6,16.6z"/><path fill="#525151" d="M34.5,16.5c0,0,1-1.1,1-2.8s0-3.1-0.6-5.3c-0.2-1.1-1.1-2.5-2.2-2.5c-0.5,0-1.1,1.9-3.3,6.2L34.5,16.5z"/><path fill="#515050" d="M34.5,16.5c0,0,1-1.1,1-2.8s0-3.1-0.5-5.3c-0.3-1-1.1-2.4-2.2-2.4c-0.5,0-1.1,1.9-3.3,6.1L34.5,16.5z"/><path fill="#505050" d="M34.5,16.5c0,0,1-1.1,1-2.8s0-3-0.5-5.2C34.7,7.4,33.9,6,32.8,6c-0.5,0-1.1,1.8-3.3,6.1L34.5,16.5z"/><path fill="#4F4F4F" d="M34.5,16.5c0,0,1-1.1,1-2.7s0-3-0.5-5.2c-0.2-1.1-1.1-2.4-2.1-2.4c-0.5,0-1.1,1.8-3.2,6L34.5,16.5z"/><path fill="#4E4E4E" d="M34.4,16.4c0,0,1-1.1,1-2.7s0-3-0.5-5.1c-0.2-1-1.1-2.4-2.1-2.4c-0.5,0-1.1,1.8-3.2,5.9L34.4,16.4z"/><path fill="#4D4D4D" d="M34.4,16.4c0,0,1-1.1,1-2.7s0-3-0.5-5.1c-0.2-1-1.1-2.4-2.1-2.4c-0.5,0-1.1,1.8-3.2,5.9L34.4,16.4z"/><path fill="#4C4C4C" d="M34.4,16.4c0,0,1-1.1,1-2.7s0-2.9-0.5-5.1c-0.2-1-1-2.4-2.1-2.4c-0.5,0-1,1.8-3.1,5.8L34.4,16.4z"/><path fill="#4B4B4B" d="M34.4,16.3c0,0,0.9-1.1,0.9-2.6s0-2.9-0.5-5c-0.2-1-1-2.4-2.1-2.4c-0.5,0-1,1.8-3.1,5.8L34.4,16.3z"/><path fill="#4A4A4A" d="M34.4,16.3c0,0,0.9-1,0.9-2.6s0-2.9-0.5-5c-0.2-1-1-2.3-2-2.3c-0.5,0-1,1.7-3.1,5.7L34.4,16.3z"/><path fill="#494949" d="M34.3,16.3c0,0,0.9-1,0.9-2.6s0-2.9-0.5-4.9c-0.2-1-1-2.3-2-2.3c-0.5,0-1,1.7-3,5.7L34.3,16.3z"/><path fill="#494848" d="M34.3,16.2c0,0,0.9-1,0.9-2.6s0-2.8-0.5-4.9c-0.2-1-1-2.3-2-2.3c-0.5,0-1,1.7-3,5.6L34.3,16.2z"/><path fill="#484747" d="M34.3,16.2c0,0,0.9-1,0.9-2.5s0-2.8-0.5-4.8c-0.2-1-1-2.3-2-2.3c-0.5,0-1,1.7-3,5.6L34.3,16.2z"/><path fill="#474646" d="M34.3,16.2c0,0,0.9-1,0.9-2.5s0-2.8-0.5-4.8c-0.2-1-1-2.2-1.9-2.2c-0.4,0-1,1.7-2.9,5.5L34.3,16.2z"/><path fill="#464545" d="M34.3,16.1c0,0,0.9-1,0.9-2.5s0-2.7-0.5-4.7c-0.2-1-1-2.2-1.9-2.2c-0.4,0-1,1.7-2.9,5.5L34.3,16.1z"/><path fill="#454444" d="M34.2,16.1c0,0,0.9-1,0.9-2.5s0-2.7-0.5-4.7c-0.2-1-1-2.2-1.9-2.2c-0.4,0-1,1.6-2.9,5.4L34.2,16.1z"/><path fill="#444343" d="M34.2,16.1c0,0,0.9-1,0.9-2.4S35,11,34.6,9c-0.2-0.9-0.9-2.2-1.9-2.2c-0.4,0-0.9,1.6-2.8,5.4L34.2,16.1z"/><path fill="#434242" d="M34.2,16.1c0,0,0.9-1,0.9-2.4s0-2.7-0.5-4.6c-0.2-0.9-0.9-2.2-1.9-2.2c-0.4,0-0.9,1.6-2.8,5.3L34.2,16.1z"/><path fill="#424141" d="M34.2,16c0,0,0.8-1,0.8-2.4s0-2.6-0.5-4.5C34.4,8.2,33.6,7,32.7,7c-0.4,0-0.9,1.6-2.7,5.2L34.2,16z"/><path fill="#414040" d="M34.2,16c0,0,0.8-0.9,0.8-2.4s0-2.6-0.5-4.5C34.3,8.2,33.6,7,32.7,7c-0.4,0-0.9,1.6-2.7,5.2L34.2,16z"/><path fill="#403F3F" d="M34.1,16c0,0,0.8-0.9,0.8-2.3s0-2.6-0.4-4.5c-0.2-0.9-0.9-2.1-1.8-2.1c-0.4,0-0.9,1.6-2.7,5.1L34.1,16z"/><path fill="#3F3E3E" d="M34.1,15.9c0,0,0.8-0.9,0.8-2.3s0-2.6-0.4-4.4c-0.2-0.9-0.9-2.1-1.8-2.1c-0.4,0-0.9,1.6-2.6,5.1L34.1,15.9z"/><path fill="#3E3E3D" d="M34.1,15.9c0,0,0.8-0.9,0.8-2.3s0-2.5-0.4-4.4c-0.2-0.9-0.9-2-1.7-2c-0.4,0-0.9,1.5-2.6,5L34.1,15.9z"/><path fill="#3D3D3C" d="M34.1,15.9c0,0,0.8-0.9,0.8-2.3s0-2.5-0.4-4.3c-0.2-0.9-0.9-2-1.7-2c-0.4,0-0.9,1.5-2.6,5L34.1,15.9z"/><path fill="#3C3C3B" d="M34.1,15.8c0,0,0.8-0.9,0.8-2.2s0-2.5-0.4-4.3c-0.2-0.9-0.8-2-1.7-2c-0.4,0-0.8,1.5-2.5,4.9L34.1,15.8z"/><path fill="#3B3B3A" d="M34,15.8c0,0,0.8-0.9,0.8-2.2s0-2.4-0.4-4.2c-0.2-0.9-0.8-2-1.7-2c-0.4,0-0.8,1.5-2.5,4.9L34,15.8z"/><path fill="#3A3A39" d="M34,15.8c0,0,0.8-0.9,0.8-2.2s0-2.4-0.4-4.2c-0.2-0.8-0.8-2-1.7-2c-0.4,0-0.8,1.5-2.5,4.8L34,15.8z"/><path fill="#3A3938" d="M34,15.7c0,0,0.7-0.9,0.7-2.2s0-2.4-0.4-4.1c-0.2-0.8-0.8-1.9-1.6-1.9c-0.4,0-0.8,1.5-2.4,4.8L34,15.7z"/><path fill="#393837" d="M34,15.7c0,0,0.7-0.9,0.7-2.1s0-2.4-0.4-4.1c-0.2-0.8-0.8-1.9-1.6-1.9c-0.4,0-0.8,1.4-2.4,4.7L34,15.7z"/><path fill="#383736" d="M34,15.7c0,0,0.7-0.8,0.7-2.1s0-2.3-0.4-4c-0.2-0.8-0.8-1.9-1.6-1.9c-0.4,0-0.8,1.4-2.4,4.7L34,15.7z"/><path fill="#373635" d="M33.9,15.6c0,0,0.7-0.8,0.7-2.1s0-2.3-0.4-4c-0.2-0.8-0.8-1.9-1.6-1.9c-0.4,0-0.8,1.4-2.3,4.6L33.9,15.6z"/><path fill="#363534" d="M33.9,15.6c0,0,0.7-0.8,0.7-2.1s0-2.3-0.4-3.9c-0.2-0.8-0.8-1.8-1.5-1.8c-0.4,0-0.8,1.4-2.3,4.5L33.9,15.6z"/><path fill="#353433" d="M33.9,15.6c0,0,0.7-0.8,0.7-2s0-2.3-0.4-3.9c-0.2-0.8-0.8-1.8-1.5-1.8c-0.3,0-0.8,1.4-2.3,4.5L33.9,15.6z"/><path fill="#343332" d="M33.9,15.6c0,0,0.7-0.8,0.7-2s0-2.2-0.4-3.8C34,9,33.5,8,32.7,8c-0.3,0-0.7,1.4-2.2,4.4L33.9,15.6z"/><path fill="#333231" d="M33.9,15.5c0,0,0.7-0.8,0.7-2s0-2.2-0.4-3.8C34,9,33.4,7.9,32.7,7.9c-0.3,0-0.7,1.3-2.2,4.4L33.9,15.5z"/><path fill="#323130" d="M33.8,15.5c0,0,0.7-0.8,0.7-2s0-2.2-0.4-3.8C34,9,33.4,8,32.7,8c-0.3,0-0.7,1.3-2.2,4.3L33.8,15.5z"/><path fill="#31302F" d="M33.8,15.5c0,0,0.7-0.8,0.7-1.9s0-2.2-0.4-3.7c-0.2-0.8-0.7-1.7-1.4-1.7c-0.3,0-0.7,1.3-2.1,4.3L33.8,15.5z"/><path fill="#302F2E" d="M33.8,15.4c0,0,0.6-0.8,0.6-1.9s0-2.1-0.4-3.7c-0.2-0.7-0.7-1.7-1.4-1.7c-0.3,0-0.7,1.3-2.1,4.2L33.8,15.4z"/><path fill="#2F2E2D" d="M33.8,15.4c0,0,0.6-0.8,0.6-1.9s0-2.1-0.3-3.6c-0.2-0.7-0.7-1.7-1.4-1.7c-0.3,0-0.7,1.3-2.1,4.2L33.8,15.4z"/><path fill="#2E2D2C" d="M33.7,15.4c0,0,0.6-0.7,0.6-1.9s0-2.1-0.3-3.6c-0.2-0.7-0.7-1.7-1.4-1.7c-0.3,0-0.7,1.3-2,4.1L33.7,15.4z"/><path fill="#2D2C2B" d="M33.7,15.3c0,0,0.6-0.7,0.6-1.8s0-2-0.3-3.5c-0.1-0.7-0.7-1.7-1.3-1.7c-0.3,0-0.7,1.2-2,4.1L33.7,15.3z"/><path fill="#2C2B2A" d="M33.7,15.3c0,0,0.6-0.7,0.6-1.8s0-2-0.3-3.5c-0.1-0.7-0.7-1.6-1.3-1.6c-0.3,0-0.7,1.2-2,4L33.7,15.3z"/><path fill="#2B2B29" d="M33.7,15.3c0,0,0.6-0.7,0.6-1.8s0-2-0.3-3.4c-0.1-0.7-0.6-1.6-1.3-1.6c-0.3,0-0.6,1.2-1.9,4L33.7,15.3z"/><path fill="#2B2A28" d="M33.7,15.2c0,0,0.6-0.7,0.6-1.8s0-2-0.3-3.4c-0.1-0.7-0.6-1.6-1.3-1.6c-0.3,0-0.6,1.2-1.9,3.9L33.7,15.2z"/><path fill="#2A2927" d="M33.6,15.2c0,0,0.6-0.7,0.6-1.7s0-1.9-0.3-3.3c-0.1-0.7-0.6-1.6-1.2-1.6c-0.3,0-0.6,1.2-1.9,3.8L33.6,15.2z"/><path fill="#292826" d="M33.6,15.2c0,0,0.6-0.7,0.6-1.7s0-1.9-0.3-3.3c-0.1-0.7-0.6-1.5-1.2-1.5c-0.3,0-0.6,1.2-1.8,3.8L33.6,15.2z"/><path fill="#282725" d="M33.6,15.2c0,0,0.6-0.7,0.6-1.7s0-1.9-0.3-3.2c-0.1-0.7-0.6-1.5-1.2-1.5c-0.3,0-0.6,1.1-1.8,3.7L33.6,15.2z"/><path fill="#272624" d="M33.6,15.1c0,0,0.5-0.7,0.5-1.7s0-1.9-0.3-3.2c-0.1-0.7-0.6-1.5-1.2-1.5c-0.3,0-0.6,1.1-1.8,3.7L33.6,15.1z"/><path fill="#262523" d="M33.6,15.1c0,0,0.5-0.7,0.5-1.7s0-1.8-0.3-3.1c-0.1-0.6-0.6-1.5-1.2-1.5c-0.3,0-0.6,1.1-1.7,3.6L33.6,15.1z"/><path fill="#252422" d="M33.5,15.1c0,0,0.5-0.7,0.5-1.6s0-1.8-0.3-3.1c-0.1-0.6-0.6-1.5-1.1-1.5c-0.3,0-0.6,1.1-1.7,3.6L33.5,15.1z"/><path fill="#242321" d="M33.5,15c0,0,0.5-0.6,0.5-1.6s0-1.8-0.3-3.1c-0.1-0.6-0.6-1.4-1.1-1.4c-0.3,0-0.6,1.1-1.7,3.5L33.5,15z"/><path fill="#232220" d="M33.5,15c0,0,0.5-0.6,0.5-1.6s0-1.7-0.3-3C33.6,9.8,33.2,9,32.6,9c-0.2,0-0.5,1.1-1.6,3.5L33.5,15z"/><g><path fill="#7E7E80" d="M12.5,18c0,0-1.5-1.6-1.5-3.9s0.1-4.4,0.8-7.5C12.2,5,13.5,3,15.1,3c0.8,0,1.6,2.6,4.9,8.7L12.5,18z"/><path fill="#7D7D7F" d="M12.5,18c0,0-1.5-1.6-1.5-3.9s0.1-4.3,0.8-7.5c0.4-1.5,1.6-3.5,3.3-3.5c0.7,0,1.6,2.6,4.9,8.6L12.5,18z"/><path fill="#7C7C7E" d="M12.5,17.9c0,0-1.5-1.6-1.5-3.9s0.1-4.3,0.8-7.4c0.4-1.5,1.6-3.5,3.2-3.5c0.7,0,1.6,2.6,4.8,8.6L12.5,17.9z"/><path fill="#7B7B7D" d="M12.6,17.9c0,0-1.5-1.5-1.5-3.9s0.1-4.3,0.8-7.4c0.4-1.5,1.6-3.5,3.2-3.5c0.7,0,1.6,2.6,4.8,8.5L12.6,17.9z"/><path fill="#7A7A7C" d="M12.6,17.9c0,0-1.5-1.5-1.5-3.8s0.1-4.3,0.8-7.3c0.4-1.5,1.6-3.4,3.2-3.4c0.7,0,1.6,2.6,4.8,8.5L12.6,17.9z"/><path fill="#79797B" d="M12.6,17.8c0,0-1.4-1.5-1.4-3.8s0.1-4.2,0.8-7.3c0.4-1.5,1.6-3.4,3.2-3.4c0.7,0,1.6,2.6,4.7,8.4L12.6,17.8z"/><path fill="#78787A" d="M12.6,17.8c0,0-1.4-1.5-1.4-3.8s0.1-4.2,0.8-7.2c0.3-1.5,1.6-3.4,3.1-3.4c0.7,0,1.6,2.5,4.7,8.4L12.6,17.8z"/><path fill="#777779" d="M12.6,17.8c0,0-1.4-1.5-1.4-3.8s0.1-4.2,0.8-7.2c0.3-1.5,1.6-3.4,3.1-3.4c0.7,0,1.6,2.5,4.7,8.3L12.6,17.8z"/><path fill="#767678" d="M12.7,17.8c0,0-1.4-1.5-1.4-3.8s0.1-4.1,0.8-7.2c0.3-1.5,1.5-3.4,3.1-3.4c0.7,0,1.5,2.5,4.6,8.3L12.7,17.8z"/><path fill="#767577" d="M12.7,17.7c0,0-1.4-1.5-1.4-3.7s0.1-4.1,0.8-7.1c0.3-1.4,1.5-3.3,3.1-3.3c0.7,0,1.5,2.5,4.6,8.2L12.7,17.7z"/><path fill="#757576" d="M12.7,17.7c0,0-1.4-1.5-1.4-3.7s0.1-4.1,0.8-7.1c0.3-1.4,1.5-3.3,3-3.3c0.7,0,1.5,2.5,4.6,8.1L12.7,17.7z"/><path fill="#747475" d="M12.7,17.7c0,0-1.4-1.5-1.4-3.7s0.1-4.1,0.8-7c0.3-1.4,1.5-3.3,3-3.3c0.7,0,1.5,2.5,4.5,8.1L12.7,17.7z"/><path fill="#737374" d="M12.7,17.6c0,0-1.4-1.5-1.4-3.7s0.1-4,0.8-7c0.3-1.4,1.5-3.3,3-3.3c0.7,0,1.5,2.5,4.5,8L12.7,17.6z"/><path fill="#727273" d="M12.8,17.6c0,0-1.4-1.5-1.4-3.6s0.1-4,0.7-6.9c0.3-1.4,1.5-3.2,3-3.2c0.7,0,1.5,2.4,4.5,8L12.8,17.6z"/><path fill="#717172" d="M12.8,17.6c0,0-1.4-1.4-1.4-3.6s0.1-4,0.7-6.9c0.3-1.4,1.5-3.2,3-3.2c0.7,0,1.5,2.4,4.4,7.9L12.8,17.6z"/><path fill="#707071" d="M12.8,17.5c0,0-1.3-1.4-1.3-3.6s0.1-4,0.7-6.8c0.3-1.4,1.5-3.2,2.9-3.2c0.7,0,1.5,2.4,4.4,7.9L12.8,17.5z"/><path fill="#6F6F70" d="M12.8,17.5c0,0-1.3-1.4-1.3-3.6s0.1-3.9,0.7-6.8C12.5,5.8,13.7,4,15.1,4c0.7,0,1.5,2.4,4.4,7.8L12.8,17.5z"/><path fill="#6E6E6F" d="M12.9,17.5c0,0-1.3-1.4-1.3-3.5s0.1-3.9,0.7-6.7c0.3-1.4,1.4-3.2,2.9-3.2c0.7,0,1.4,2.4,4.3,7.8L12.9,17.5z"/><path fill="#6D6D6E" d="M12.9,17.4c0,0-1.3-1.4-1.3-3.5s0.1-3.9,0.7-6.7c0.3-1.4,1.4-3.1,2.9-3.1c0.7,0,1.4,2.4,4.3,7.7L12.9,17.4z"/><path fill="#6C6C6D" d="M12.9,17.4c0,0-1.3-1.4-1.3-3.5s0.1-3.9,0.7-6.6c0.3-1.4,1.4-3.1,2.8-3.1c0.7,0,1.4,2.3,4.3,7.7L12.9,17.4z"/><path fill="#6B6B6C" d="M12.9,17.4c0,0-1.3-1.4-1.3-3.5s0.1-3.8,0.7-6.6c0.3-1.3,1.4-3.1,2.8-3.1c0.6,0,1.4,2.3,4.2,7.6L12.9,17.4z"/><path fill="#6A6A6B" d="M12.9,17.4c0,0-1.3-1.4-1.3-3.4s0.1-3.8,0.7-6.5c0.3-1.3,1.4-3.1,2.8-3.1c0.6,0,1.4,2.3,4.2,7.6L12.9,17.4z"/><path fill="#69696A" d="M13,17.3c0,0-1.3-1.4-1.3-3.4s0.1-3.8,0.7-6.5c0.3-1.3,1.4-3,2.8-3c0.6,0,1.4,2.3,4.2,7.5L13,17.3z"/><path fill="#686869" d="M13,17.3c0,0-1.3-1.4-1.3-3.4s0.1-3.7,0.7-6.5c0.3-1.3,1.4-3,2.8-3c0.6,0,1.4,2.3,4.1,7.4L13,17.3z"/><path fill="#676768" d="M13,17.3c0,0-1.3-1.3-1.3-3.4s0.1-3.7,0.7-6.4c0.3-1.3,1.4-3,2.7-3c0.6,0,1.4,2.3,4.1,7.4L13,17.3z"/><path fill="#676667" d="M13,17.2c0,0-1.2-1.3-1.2-3.3s0.1-3.7,0.7-6.4c0.3-1.3,1.4-3,2.7-3c0.6,0,1.4,2.2,4.1,7.3L13,17.2z"/><path fill="#666566" d="M13,17.2c0,0-1.2-1.3-1.2-3.3s0.1-3.7,0.7-6.3c0.3-1.3,1.3-3,2.7-3c0.6,0,1.3,2.2,4,7.3L13,17.2z"/><path fill="#656465" d="M13.1,17.2c0,0-1.2-1.3-1.2-3.3s0.1-3.6,0.7-6.3c0.3-1.3,1.3-2.9,2.7-2.9c0.6,0,1.3,2.2,4,7.2L13.1,17.2z"/><path fill="#646364" d="M13.1,17.1c0,0-1.2-1.3-1.2-3.3s0.1-3.6,0.7-6.2c0.3-1.3,1.3-2.9,2.6-2.9c0.6,0,1.3,2.2,4,7.2L13.1,17.1z"/><path fill="#636263" d="M13.1,17.1c0,0-1.2-1.3-1.2-3.2s0.1-3.6,0.7-6.2c0.3-1.3,1.3-2.9,2.6-2.9c0.6,0,1.3,2.2,3.9,7.1L13.1,17.1z"/><path fill="#626262" d="M13.1,17.1c0,0-1.2-1.3-1.2-3.2s0.1-3.6,0.6-6.1c0.3-1.2,1.3-2.9,2.6-2.9c0.6,0,1.3,2.2,3.9,7.1L13.1,17.1z"/><path fill="#616161" d="M13.1,17c0,0-1.2-1.3-1.2-3.2s0.1-3.5,0.6-6.1c0.3-1.2,1.3-2.9,2.6-2.9c0.6,0,1.3,2.1,3.9,7L13.1,17z"/><path fill="#606060" d="M13.2,17c0,0-1.2-1.3-1.2-3.2s0.1-3.5,0.6-6C12.9,6.6,13.9,5,15.2,5c0.6,0,1.3,2.1,3.8,7L13.2,17z"/><path fill="#5F5F5F" d="M13.2,17c0,0-1.2-1.3-1.2-3.1s0.1-3.5,0.6-6C12.9,6.6,13.9,5,15.2,5c0.6,0,1.3,2.1,3.8,6.9L13.2,17z"/><path fill="#5E5E5E" d="M13.2,16.9c0,0-1.1-1.2-1.1-3.1s0.1-3.4,0.6-5.9C13,6.7,14,5.1,15.2,5.1c0.6,0,1.3,2.1,3.8,6.9L13.2,16.9z"/><path fill="#5D5D5D" d="M13.2,16.9c0,0-1.1-1.2-1.1-3.1s0.1-3.4,0.6-5.9c0.3-1.2,1.2-2.8,2.5-2.8c0.6,0,1.2,2.1,3.7,6.8L13.2,16.9z"/><path fill="#5C5C5C" d="M13.2,16.9c0,0-1.1-1.2-1.1-3.1s0.1-3.4,0.6-5.8C13,6.8,14,5.2,15.2,5.2c0.6,0,1.2,2.1,3.7,6.8L13.2,16.9z"/><path fill="#5B5B5B" d="M13.3,16.9c0,0-1.1-1.2-1.1-3s0.1-3.4,0.6-5.8C13,6.8,14,5.3,15.2,5.3c0.6,0,1.2,2,3.7,6.7L13.3,16.9z"/><path fill="#5A5A5A" d="M13.3,16.8c0,0-1.1-1.2-1.1-3s0.1-3.3,0.6-5.8C13,6.9,14,5.4,15.2,5.4c0.6,0,1.2,2,3.6,6.6L13.3,16.8z"/><path fill="#595959" d="M13.3,16.8c0,0-1.1-1.2-1.1-3s0-3.3,0.6-5.7c0.3-1.2,1.2-2.7,2.4-2.7c0.5,0,1.2,2,3.6,6.6L13.3,16.8z"/><path fill="#585858" d="M13.3,16.8c0,0-1.1-1.2-1.1-3s0-3.3,0.6-5.7C13.1,7,14,5.5,15.2,5.5c0.5,0,1.2,2,3.6,6.5L13.3,16.8z"/><path fill="#585757" d="M13.3,16.7c0,0-1.1-1.2-1.1-2.9s0-3.3,0.6-5.6C13.1,7,14,5.5,15.2,5.5c0.5,0,1.2,2,3.5,6.5L13.3,16.7z"/><path fill="#575656" d="M13.4,16.7c0,0-1.1-1.2-1.1-2.9s0-3.2,0.6-5.6c0.3-1.1,1.2-2.6,2.3-2.6c0.5,0,1.2,2,3.5,6.4L13.4,16.7z"/><path fill="#565555" d="M13.4,16.7c0,0-1.1-1.2-1.1-2.9s0-3.2,0.6-5.5c0.3-1.1,1.2-2.6,2.3-2.6c0.5,0,1.2,1.9,3.5,6.4L13.4,16.7z"/><path fill="#555454" d="M13.4,16.6c0,0-1-1.1-1-2.9s0-3.2,0.6-5.5c0.3-1.1,1.1-2.6,2.3-2.6c0.5,0,1.1,1.9,3.4,6.3L13.4,16.6z"/><path fill="#545353" d="M13.4,16.6c0,0-1-1.1-1-2.8s0-3.2,0.6-5.4c0.3-1.1,1.1-2.5,2.3-2.5c0.5,0,1.1,1.9,3.4,6.3L13.4,16.6z"/><path fill="#535252" d="M13.4,16.6c0,0-1-1.1-1-2.8s0-3.1,0.6-5.4c0.2-1.1,1.1-2.5,2.2-2.5c0.5,0,1.1,1.9,3.4,6.2L13.4,16.6z"/><path fill="#525151" d="M13.5,16.5c0,0-1-1.1-1-2.8s0-3.1,0.6-5.3c0.2-1.1,1.1-2.5,2.2-2.5c0.5,0,1.1,1.9,3.3,6.2L13.5,16.5z"/><path fill="#515050" d="M13.5,16.5c0,0-1-1.1-1-2.8s0-3.1,0.5-5.3c0.3-1,1.1-2.4,2.2-2.4c0.5,0,1.1,1.9,3.3,6.1L13.5,16.5z"/><path fill="#505050" d="M13.5,16.5c0,0-1-1.1-1-2.8s0-3,0.5-5.2C13.3,7.4,14.1,6,15.2,6c0.5,0,1.1,1.8,3.3,6.1L13.5,16.5z"/><path fill="#4F4F4F" d="M13.5,16.5c0,0-1-1.1-1-2.7s0-3,0.5-5.2c0.2-1.1,1.1-2.4,2.1-2.4c0.5,0,1.1,1.8,3.2,6L13.5,16.5z"/><path fill="#4E4E4E" d="M13.6,16.4c0,0-1-1.1-1-2.7s0-3,0.5-5.1c0.2-1,1.1-2.4,2.1-2.4c0.5,0,1.1,1.8,3.2,5.9L13.6,16.4z"/><path fill="#4D4D4D" d="M13.6,16.4c0,0-1-1.1-1-2.7s0-3,0.5-5.1c0.2-1,1.1-2.4,2.1-2.4c0.5,0,1.1,1.8,3.2,5.9L13.6,16.4z"/><path fill="#4C4C4C" d="M13.6,16.4c0,0-1-1.1-1-2.7s0-2.9,0.5-5.1c0.2-1,1-2.4,2.1-2.4c0.5,0,1,1.8,3.1,5.8L13.6,16.4z"/><path fill="#4B4B4B" d="M13.6,16.3c0,0-0.9-1.1-0.9-2.6s0-2.9,0.5-5c0.2-1,1-2.4,2.1-2.4c0.5,0,1,1.8,3.1,5.8L13.6,16.3z"/><path fill="#4A4A4A" d="M13.6,16.3c0,0-0.9-1-0.9-2.6s0-2.9,0.5-5c0.2-1,1-2.3,2-2.3c0.5,0,1,1.7,3.1,5.7L13.6,16.3z"/><path fill="#494949" d="M13.7,16.3c0,0-0.9-1-0.9-2.6s0-2.9,0.5-4.9c0.2-1,1-2.3,2-2.3c0.5,0,1,1.7,3,5.7L13.7,16.3z"/><path fill="#494848" d="M13.7,16.2c0,0-0.9-1-0.9-2.6s0-2.8,0.5-4.9c0.2-1,1-2.3,2-2.3c0.5,0,1,1.7,3,5.6L13.7,16.2z"/><path fill="#484747" d="M13.7,16.2c0,0-0.9-1-0.9-2.5s0-2.8,0.5-4.8c0.2-1,1-2.3,2-2.3c0.5,0,1,1.7,3,5.6L13.7,16.2z"/><path fill="#474646" d="M13.7,16.2c0,0-0.9-1-0.9-2.5s0-2.8,0.5-4.8c0.2-1,1-2.2,1.9-2.2c0.4,0,1,1.7,2.9,5.5L13.7,16.2z"/><path fill="#464545" d="M13.7,16.1c0,0-0.9-1-0.9-2.5s0-2.7,0.5-4.7c0.2-1,1-2.2,1.9-2.2c0.4,0,1,1.7,2.9,5.5L13.7,16.1z"/><path fill="#454444" d="M13.8,16.1c0,0-0.9-1-0.9-2.5s0-2.7,0.5-4.7c0.2-1,1-2.2,1.9-2.2c0.4,0,1,1.6,2.9,5.4L13.8,16.1z"/><path fill="#444343" d="M13.8,16.1c0,0-0.9-1-0.9-2.4S13,11,13.4,9c0.2-0.9,0.9-2.2,1.9-2.2c0.4,0,0.9,1.6,2.8,5.4L13.8,16.1z"/><path fill="#434242" d="M13.8,16.1c0,0-0.9-1-0.9-2.4s0-2.7,0.5-4.6c0.2-0.9,0.9-2.2,1.9-2.2c0.4,0,0.9,1.6,2.8,5.3L13.8,16.1z"/><path fill="#424141" d="M13.8,16c0,0-0.8-1-0.8-2.4s0-2.6,0.5-4.5C13.6,8.2,14.4,7,15.3,7c0.4,0,0.9,1.6,2.7,5.2L13.8,16z"/><path fill="#414040" d="M13.8,16c0,0-0.8-0.9-0.8-2.4s0-2.6,0.5-4.5C13.7,8.2,14.4,7,15.3,7c0.4,0,0.9,1.6,2.7,5.2L13.8,16z"/><path fill="#403F3F" d="M13.9,16c0,0-0.8-0.9-0.8-2.3s0-2.6,0.4-4.5c0.2-0.9,0.9-2.1,1.8-2.1c0.4,0,0.9,1.6,2.7,5.1L13.9,16z"/><path fill="#3F3E3E" d="M13.9,15.9c0,0-0.8-0.9-0.8-2.3s0-2.6,0.4-4.4c0.2-0.9,0.9-2.1,1.8-2.1c0.4,0,0.9,1.6,2.6,5.1L13.9,15.9z"/><path fill="#3E3E3D" d="M13.9,15.9c0,0-0.8-0.9-0.8-2.3s0-2.5,0.4-4.4c0.2-0.9,0.9-2,1.7-2c0.4,0,0.9,1.5,2.6,5L13.9,15.9z"/><path fill="#3D3D3C" d="M13.9,15.9c0,0-0.8-0.9-0.8-2.3s0-2.5,0.4-4.3c0.2-0.9,0.9-2,1.7-2c0.4,0,0.9,1.5,2.6,5L13.9,15.9z"/><path fill="#3C3C3B" d="M13.9,15.8c0,0-0.8-0.9-0.8-2.2s0-2.5,0.4-4.3c0.2-0.9,0.8-2,1.7-2c0.4,0,0.8,1.5,2.5,4.9L13.9,15.8z"/><path fill="#3B3B3A" d="M14,15.8c0,0-0.8-0.9-0.8-2.2s0-2.4,0.4-4.2c0.2-0.9,0.8-2,1.7-2c0.4,0,0.8,1.5,2.5,4.9L14,15.8z"/><path fill="#3A3A39" d="M14,15.8c0,0-0.8-0.9-0.8-2.2s0-2.4,0.4-4.2c0.2-0.8,0.8-2,1.7-2c0.4,0,0.8,1.5,2.5,4.8L14,15.8z"/><path fill="#3A3938" d="M14,15.7c0,0-0.7-0.9-0.7-2.2s0-2.4,0.4-4.1c0.2-0.8,0.8-1.9,1.6-1.9c0.4,0,0.8,1.5,2.4,4.8L14,15.7z"/><path fill="#393837" d="M14,15.7c0,0-0.7-0.9-0.7-2.1s0-2.4,0.4-4.1c0.2-0.8,0.8-1.9,1.6-1.9c0.4,0,0.8,1.4,2.4,4.7L14,15.7z"/><path fill="#383736" d="M14,15.7c0,0-0.7-0.8-0.7-2.1s0-2.3,0.4-4c0.2-0.8,0.8-1.9,1.6-1.9c0.4,0,0.8,1.4,2.4,4.7L14,15.7z"/><path fill="#373635" d="M14.1,15.6c0,0-0.7-0.8-0.7-2.1s0-2.3,0.4-4c0.2-0.8,0.8-1.9,1.6-1.9c0.4,0,0.8,1.4,2.3,4.6L14.1,15.6z"/><path fill="#363534" d="M14.1,15.6c0,0-0.7-0.8-0.7-2.1s0-2.3,0.4-3.9c0.2-0.8,0.8-1.8,1.5-1.8c0.4,0,0.8,1.4,2.3,4.5L14.1,15.6z"/><path fill="#353433" d="M14.1,15.6c0,0-0.7-0.8-0.7-2s0-2.3,0.4-3.9c0.2-0.8,0.8-1.8,1.5-1.8c0.3,0,0.8,1.4,2.3,4.5L14.1,15.6z"/><path fill="#343332" d="M14.1,15.6c0,0-0.7-0.8-0.7-2s0-2.2,0.4-3.8C14,9,14.5,8,15.3,8c0.3,0,0.7,1.4,2.2,4.4L14.1,15.6z"/><path fill="#333231" d="M14.1,15.5c0,0-0.7-0.8-0.7-2s0-2.2,0.4-3.8C14,9,14.6,7.9,15.3,7.9c0.3,0,0.7,1.3,2.2,4.4L14.1,15.5z"/><path fill="#323130" d="M14.2,15.5c0,0-0.7-0.8-0.7-2s0-2.2,0.4-3.8C14,9,14.6,8,15.3,8c0.3,0,0.7,1.3,2.2,4.3L14.2,15.5z"/><path fill="#31302F" d="M14.2,15.5c0,0-0.7-0.8-0.7-1.9s0-2.2,0.4-3.7c0.2-0.8,0.7-1.7,1.4-1.7c0.3,0,0.7,1.3,2.1,4.3L14.2,15.5z"/><path fill="#302F2E" d="M14.2,15.4c0,0-0.6-0.8-0.6-1.9s0-2.1,0.4-3.7c0.2-0.7,0.7-1.7,1.4-1.7c0.3,0,0.7,1.3,2.1,4.2L14.2,15.4z"/><path fill="#2F2E2D" d="M14.2,15.4c0,0-0.6-0.8-0.6-1.9s0-2.1,0.3-3.6c0.2-0.7,0.7-1.7,1.4-1.7c0.3,0,0.7,1.3,2.1,4.2L14.2,15.4z"/><path fill="#2E2D2C" d="M14.3,15.4c0,0-0.6-0.7-0.6-1.9s0-2.1,0.3-3.6c0.2-0.7,0.7-1.7,1.4-1.7c0.3,0,0.7,1.3,2,4.1L14.3,15.4z"/><path fill="#2D2C2B" d="M14.3,15.3c0,0-0.6-0.7-0.6-1.8s0-2,0.3-3.5c0.1-0.7,0.7-1.7,1.3-1.7c0.3,0,0.7,1.2,2,4.1L14.3,15.3z"/><path fill="#2C2B2A" d="M14.3,15.3c0,0-0.6-0.7-0.6-1.8s0-2,0.3-3.5c0.1-0.7,0.7-1.6,1.3-1.6c0.3,0,0.7,1.2,2,4L14.3,15.3z"/><path fill="#2B2B29" d="M14.3,15.3c0,0-0.6-0.7-0.6-1.8s0-2,0.3-3.4c0.1-0.7,0.6-1.6,1.3-1.6c0.3,0,0.6,1.2,1.9,4L14.3,15.3z"/><path fill="#2B2A28" d="M14.3,15.2c0,0-0.6-0.7-0.6-1.8s0-2,0.3-3.4c0.1-0.7,0.6-1.6,1.3-1.6c0.3,0,0.6,1.2,1.9,3.9L14.3,15.2z"/><path fill="#2A2927" d="M14.4,15.2c0,0-0.6-0.7-0.6-1.7s0-1.9,0.3-3.3c0.1-0.7,0.6-1.6,1.2-1.6c0.3,0,0.6,1.2,1.9,3.8L14.4,15.2z"/><path fill="#292826" d="M14.4,15.2c0,0-0.6-0.7-0.6-1.7s0-1.9,0.3-3.3c0.1-0.7,0.6-1.5,1.2-1.5c0.3,0,0.6,1.2,1.8,3.8L14.4,15.2z"/><path fill="#282725" d="M14.4,15.2c0,0-0.6-0.7-0.6-1.7s0-1.9,0.3-3.2c0.1-0.7,0.6-1.5,1.2-1.5c0.3,0,0.6,1.1,1.8,3.7L14.4,15.2z"/><path fill="#272624" d="M14.4,15.1c0,0-0.5-0.7-0.5-1.7s0-1.9,0.3-3.2c0.1-0.7,0.6-1.5,1.2-1.5c0.3,0,0.6,1.1,1.8,3.7L14.4,15.1z"/><path fill="#262523" d="M14.4,15.1c0,0-0.5-0.7-0.5-1.7s0-1.8,0.3-3.1c0.1-0.6,0.6-1.5,1.2-1.5c0.3,0,0.6,1.1,1.7,3.6L14.4,15.1z"/><path fill="#252422" d="M14.5,15.1c0,0-0.5-0.7-0.5-1.6s0-1.8,0.3-3.1c0.1-0.6,0.6-1.5,1.1-1.5c0.3,0,0.6,1.1,1.7,3.6L14.5,15.1z"/><path fill="#242321" d="M14.5,15c0,0-0.5-0.6-0.5-1.6s0-1.8,0.3-3.1c0.1-0.6,0.6-1.4,1.1-1.4c0.3,0,0.6,1.1,1.7,3.5L14.5,15z"/><path fill="#232220" d="M14.5,15c0,0-0.5-0.6-0.5-1.6c0-0.9,0-1.7,0.3-3C14.4,9.8,14.8,9,15.4,9c0.2,0,0.5,1.1,1.6,3.5L14.5,15z"/></g><radialGradient id="hxmqTTT117JBvJP3HCj~ec" cx="24.2" cy="20.526" r="17.198" gradientTransform="matrix(1 0 0 -1 0 50)" gradientUnits="userSpaceOnUse"><stop offset=".621" stop-color="#4d4d4f"/><stop offset=".764" stop-color="#464648"/><stop offset=".975" stop-color="#343434"/><stop offset="1" stop-color="#313131"/></radialGradient><path fill="url(#hxmqTTT117JBvJP3HCj~ec)" d="M38,14c0,0,0,1-2,1c-3,0-6.4-5-9-5h-6c-2.6,0-6,5-9,5c-2,0-2-1-2-1S7,24,7,29c0,8,12,18,17,18	s17-10,17-18C41,24,38,14,38,14z"/><radialGradient id="hxmqTTT117JBvJP3HCj~ed" cx="27.526" cy="86.905" r="3.865" gradientTransform="matrix(1 0 0 -1.1108 0 116.983)" gradientUnits="userSpaceOnUse"><stop offset="0" stop-color="#605c5a"/><stop offset=".359" stop-color="#5c5857" stop-opacity=".641"/><stop offset=".748" stop-color="#4f4d4d" stop-opacity=".252"/><stop offset="1" stop-color="#424244" stop-opacity="0"/></radialGradient><path fill="url(#hxmqTTT117JBvJP3HCj~ed)" d="M41,29c0,7.8-11.3,17.4-16.5,18c-0.2,0-0.3,0-0.5,0V10h3c2.6,0,6,5,9,5c2,0,2-1,2-1S41,24,41,29z"/><radialGradient id="hxmqTTT117JBvJP3HCj~ee" cx="-1998.474" cy="86.905" r="3.865" gradientTransform="matrix(-1 0 0 -1.1108 -1978 116.983)" gradientUnits="userSpaceOnUse"><stop offset="0" stop-color="#605c5a"/><stop offset=".359" stop-color="#5c5857" stop-opacity=".641"/><stop offset=".748" stop-color="#4f4d4d" stop-opacity=".252"/><stop offset="1" stop-color="#424244" stop-opacity="0"/></radialGradient><path fill="url(#hxmqTTT117JBvJP3HCj~ee)" d="M7,29c0,7.8,11.3,17.4,16.5,18c0.2,0,0.3,0,0.5,0V10h-3c-2.6,0-6,5-9,5c-2,0-2-1-2-1S7,24,7,29z"/><linearGradient id="hxmqTTT117JBvJP3HCj~ef" x1="41.011" x2="39.119" y1="29.02" y2="28.369" gradientTransform="matrix(1 0 0 -1 0 50)" gradientUnits="userSpaceOnUse"><stop offset=".336" stop-color="#242222"/><stop offset="1" stop-color="#1f1f21" stop-opacity="0"/></linearGradient><path fill="url(#hxmqTTT117JBvJP3HCj~ef)" d="M41,29c-2.5-10.7-4.2-14.1-4.2-14.1C38,14.7,38,14,38,14S41,24,41,29z"/><linearGradient id="hxmqTTT117JBvJP3HCj~eg" x1="-2093.244" x2="-2095.136" y1="28.998" y2="28.348" gradientTransform="rotate(180 -1043.097 25)" gradientUnits="userSpaceOnUse"><stop offset="0" stop-color="#3e3c3f"/><stop offset=".808" stop-color="#343434" stop-opacity=".192"/><stop offset="1" stop-color="#313131" stop-opacity="0"/></linearGradient><path fill="url(#hxmqTTT117JBvJP3HCj~eg)" d="M7,29c2.5-10.7,4.2-14.1,4.2-14.1C10,14.7,10,14,10,14S7,24,7,29z"/><radialGradient id="hxmqTTT117JBvJP3HCj~eh" cx="24.113" cy="-85.862" r="12.509" gradientTransform="matrix(1 0 0 -.8441 0 -42.812)" gradientUnits="userSpaceOnUse"><stop offset=".712" stop-color="#ede9df"/><stop offset=".757" stop-color="#e6e2d8"/><stop offset=".825" stop-color="#d2cdc4"/><stop offset=".906" stop-color="#b2aca3"/><stop offset=".997" stop-color="#867e75"/><stop offset="1" stop-color="#857d74"/></radialGradient><path fill="url(#hxmqTTT117JBvJP3HCj~eh)" d="M33,24c-1.4-1.4-4-4-5-4c-2,0-3,2-3,4c0,2.3,1,4,1,4s-1-0.5-2-0.5S22,28,22,28s1-1.7,1-4c0-2-1-4-3-4	c-1,0-3.7,2.6-5.1,4S11,27.8,11,30c0,3,3.3,4.7,5.3,8c2.4,3.9,3.9,5,7.7,5s5.3-1.1,7.7-5c2-3.3,5.3-5,5.3-8C37,27.8,34.4,25.4,33,24	z"/><radialGradient id="hxmqTTT117JBvJP3HCj~ei" cx="48.939" cy="126.832" r="8.65" gradientTransform="matrix(.9604 0 0 -1.2373 -23 190.376)" gradientUnits="userSpaceOnUse"><stop offset=".661" stop-color="#ede9df"/><stop offset=".747" stop-color="#eae6dc"/><stop offset=".809" stop-color="#e1ddd3"/><stop offset=".864" stop-color="#d2cdc3"/><stop offset=".915" stop-color="#bcb6ad"/><stop offset=".963" stop-color="#a09a90"/><stop offset="1" stop-color="#857d74"/></radialGradient><path fill="url(#hxmqTTT117JBvJP3HCj~ei)" d="M24,27.5c-0.5,0-2.9,3.5-5.8,3.5c-1.8,2.1-2.8,5.5-1.9,7c2.3,3.9,4,6,7.7,6s5.4-2.1,7.7-6	c0.9-1.5-0.1-4.9-1.9-7C27.8,31,24.5,27.5,24,27.5z"/><radialGradient id="hxmqTTT117JBvJP3HCj~ej" cx="85.582" cy="-221.261" r="4.254" gradientTransform="matrix(.9076 0 0 -.7138 -53.69 -117.221)" gradientUnits="userSpaceOnUse"><stop offset=".668" stop-color="#a7a096"/><stop offset="1" stop-color="#cfc9c0" stop-opacity="0"/></radialGradient><path fill="url(#hxmqTTT117JBvJP3HCj~ej)" d="M27.6,40.7C27.5,42,26.6,44,24,44c-2.7,0-3.6-1.9-3.6-3.3c0.5,0.6,1.5,1.3,3.6,1.3	S27.2,41.3,27.6,40.7z"/><radialGradient id="hxmqTTT117JBvJP3HCj~ek" cx="85.585" cy="-1278.212" r="5.456" gradientTransform="matrix(.9076 0 0 -.3087 -53.69 -354.02)" gradientUnits="userSpaceOnUse"><stop offset="0" stop-color="#9b948b"/><stop offset=".154" stop-color="#a19a91" stop-opacity=".807"/><stop offset=".36" stop-color="#b1aba2" stop-opacity=".55"/><stop offset=".594" stop-color="#cbc7bd" stop-opacity=".257"/><stop offset=".8" stop-color="#e8e5db" stop-opacity="0"/></radialGradient><path fill="url(#hxmqTTT117JBvJP3HCj~ek)" d="M20,40c0,0,0.4,2,4,2s4-2,4-2h-3.9H20z"/><radialGradient id="hxmqTTT117JBvJP3HCj~el" cx="24.071" cy="105.139" r="8.599" gradientTransform="matrix(1 0 0 -1.1201 0 151.756)" gradientUnits="userSpaceOnUse"><stop offset=".712" stop-color="#ede9df"/><stop offset=".757" stop-color="#e6e2d8"/><stop offset=".825" stop-color="#d2cdc4"/><stop offset=".906" stop-color="#b2aca3"/><stop offset=".997" stop-color="#867e75"/><stop offset="1" stop-color="#857d74"/></radialGradient><path fill="url(#hxmqTTT117JBvJP3HCj~el)" d="M22,31l-4,3c0,0,0.8,7,3,7c0.4,0,5.6,0,6,0c2.2,0,3-7,3-7l-4-3c0,0-1-0.5-2-0.5S22,31,22,31z"/><g><path fill="#06050A" d="M27,27c0,0,0-1.8,1.1-2.6c1.1-0.8,3.9,0,3.9,0S31.2,27,28.7,27C27.4,27,27,27,27,27L27,27z"/><radialGradient id="hxmqTTT117JBvJP3HCj~em" cx="231.854" cy="-90.289" r="2.049" gradientTransform="matrix(.8333 0 0 -.8661 -164.359 -52.97)" gradientUnits="userSpaceOnUse"><stop offset="0" stop-color="#c06f4d"/><stop offset=".438" stop-color="#b69865"/><stop offset=".499" stop-color="#b19463"/><stop offset=".577" stop-color="#a1885b"/><stop offset=".663" stop-color="#877550"/><stop offset=".755" stop-color="#63593f"/><stop offset=".852" stop-color="#35372a"/><stop offset=".869" stop-color="#2c3026"/><stop offset="1" stop-color="#2c3026" stop-opacity="0"/></radialGradient><path fill="url(#hxmqTTT117JBvJP3HCj~em)" d="M30.8,25.6c0,0.3-0.1,0.5-0.2,0.7c-0.5,0.4-1.1,0.7-2,0.7h-0.5c-0.4-0.3-0.7-0.8-0.7-1.4 c0-0.2,0-0.4,0.1-0.6s0.3-0.4,0.5-0.6c0.4-0.3,1.1-0.4,1.8-0.3C30.4,24.3,30.8,24.9,30.8,25.6z"/><radialGradient id="hxmqTTT117JBvJP3HCj~en" cx="28.705" cy="25.265" r=".814" gradientTransform="matrix(1 0 0 -1 0 50)" gradientUnits="userSpaceOnUse"><stop offset="0" stop-color="#1c1911"/><stop offset=".999" stop-color="#171714"/></radialGradient><path fill="url(#hxmqTTT117JBvJP3HCj~en)" d="M29.6,24.5c0,0.5-0.4,0.9-0.9,0.9s-0.9-0.4-0.9-0.9c0.1-0.1,0.2-0.2,0.2-0.2 c0.3-0.2,0.8-0.3,1.3-0.4C29.5,24.1,29.6,24.3,29.6,24.5z"/><ellipse cx="29.7" cy="24.7" fill="#FFF" rx=".3" ry=".3"/></g><g><path fill="#06050A" d="M21,27c0,0,0-1.8-1.1-2.6c-1.1-0.8-3.9,0-3.9,0s0.8,2.6,3.3,2.6C20.6,27,21,27,21,27L21,27z"/><radialGradient id="hxmqTTT117JBvJP3HCj~eo" cx="-2186.22" cy="-90.289" r="2.049" gradientTransform="matrix(-.8333 0 0 -.8661 -1802.641 -52.97)" gradientUnits="userSpaceOnUse"><stop offset="0" stop-color="#c06f4d"/><stop offset=".438" stop-color="#b69865"/><stop offset=".499" stop-color="#b19463"/><stop offset=".577" stop-color="#a1885b"/><stop offset=".663" stop-color="#877550"/><stop offset=".755" stop-color="#63593f"/><stop offset=".852" stop-color="#35372a"/><stop offset=".869" stop-color="#2c3026"/><stop offset="1" stop-color="#2c3026" stop-opacity="0"/></radialGradient><path fill="url(#hxmqTTT117JBvJP3HCj~eo)" d="M17.2,25.6c0,0.3,0.1,0.5,0.2,0.7c0.5,0.4,1.1,0.7,2,0.7h0.5c0.4-0.3,0.7-0.8,0.7-1.4 c0-0.2,0-0.4-0.1-0.6s-0.3-0.4-0.5-0.6C19.5,24,18.8,24,18.1,24C17.6,24.3,17.2,24.9,17.2,25.6z"/><radialGradient id="hxmqTTT117JBvJP3HCj~ep" cx="-1986.295" cy="25.265" r=".814" gradientTransform="rotate(180 -983.5 25)" gradientUnits="userSpaceOnUse"><stop offset="0" stop-color="#1c1911"/><stop offset=".999" stop-color="#171714"/></radialGradient><path fill="url(#hxmqTTT117JBvJP3HCj~ep)" d="M18.4,24.5c0,0.5,0.4,0.9,0.9,0.9s0.9-0.4,0.9-0.9c-0.1-0.1-0.2-0.2-0.2-0.2 c-0.3-0.2-0.8-0.3-1.3-0.4C18.5,24.1,18.4,24.3,18.4,24.5z"/><ellipse cx="18.3" cy="24.7" fill="#FFF" rx=".3" ry=".3"/></g><radialGradient id="hxmqTTT117JBvJP3HCj~eq" cx="-2005.208" cy="392.576" r="3.045" gradientTransform="matrix(-1 0 0 -2.9093 -1981 1176.905)" gradientUnits="userSpaceOnUse"><stop offset="0" stop-color="#b1aba2"/><stop offset=".166" stop-color="#a6a099" stop-opacity=".834"/><stop offset=".459" stop-color="#88847f" stop-opacity=".541"/><stop offset=".842" stop-color="#585757" stop-opacity=".158"/><stop offset="1" stop-color="#424244" stop-opacity="0"/></radialGradient><path fill="url(#hxmqTTT117JBvJP3HCj~eq)" d="M24,27.5V35c0.3,0,3.6,0.6,3.6,0c0-1.7-1.6-7-1.6-7S25,27.5,24,27.5z"/><radialGradient id="hxmqTTT117JBvJP3HCj~er" cx="17.792" cy="392.576" r="3.045" gradientTransform="matrix(1 0 0 -2.9093 6 1176.905)" gradientUnits="userSpaceOnUse"><stop offset="0" stop-color="#b1aba2"/><stop offset=".166" stop-color="#a6a099" stop-opacity=".834"/><stop offset=".459" stop-color="#88847f" stop-opacity=".541"/><stop offset=".842" stop-color="#585757" stop-opacity=".158"/><stop offset="1" stop-color="#424244" stop-opacity="0"/></radialGradient><path fill="url(#hxmqTTT117JBvJP3HCj~er)" d="M22,28c0,0-1.6,5.3-1.6,7c0,0.6,3.3,0,3.6,0v-7.5C23,27.5,22,28,22,28z"/><radialGradient id="hxmqTTT117JBvJP3HCj~es" cx="113.913" cy="14.72" r="4.459" gradientTransform="matrix(.9 0 0 -1 -78.5 50)" gradientUnits="userSpaceOnUse"><stop offset="0" stop-color="#3e3c3f"/><stop offset=".629" stop-color="#242222"/><stop offset="1" stop-color="#191716"/></radialGradient><path fill="url(#hxmqTTT117JBvJP3HCj~es)" d="M24.5,34h-1c0,0-3.1,0-3.1,2s2.1,4,3.1,4h1c1,0,3.1-2,3.1-4S24.5,34,24.5,34z"/><path fill="#3E3C3F" d="M24.5,34h-1c0,0-3.1,0-3.1,2c0,0,0.9-1,3.6-1s3.6,1,3.6,1C27.6,34,24.5,34,24.5,34z"/><path fill="#171514" d="M24.6,37.9c-0.1-0.7,0.3-1.3,0.9-1.4c0.6-0.1,1.1,0.3,1.2,1C26.8,38.1,24.7,38.5,24.6,37.9z"/><path fill="#171514" d="M21.3,37.4c0.1-0.7,0.7-1.1,1.2-1c0.6,0.1,1,0.8,0.9,1.4C23.3,38.5,21.2,38.1,21.3,37.4z"/></svg>