<svg xmlns="http://www.w3.org/2000/svg" viewBox="0 0 48 48"><radialGradient id="PtDPGGtyYZCI75aQ4CpBKa" cx="14.049" cy="33.364" r="16.378" gradientTransform="matrix(.5542 -.8324 .6373 .4244 -15 30.9)" gradientUnits="userSpaceOnUse"><stop offset="0" stop-color="#7d8187"/><stop offset="1" stop-color="#312e36"/></radialGradient><path fill="url(#PtDPGGtyYZCI75aQ4CpBKa)" d="M16.009,29.959c0,0-4.118,6.33-4.658,12.885h26.975c0,0-0.899-8.992-3.254-19.467 L16.009,29.959z"/><radialGradient id="PtDPGGtyYZCI75aQ4CpBKb" cx="20.263" cy="15.79" r="20.811" gradientTransform="matrix(-.5456 .838 -.5008 -.3261 39.227 3.958)" gradientUnits="userSpaceOnUse"><stop offset=".232" stop-color="#dceaf0"/><stop offset=".36" stop-color="#d3e5ec"/><stop offset=".564" stop-color="#bcd6e2"/><stop offset=".817" stop-color="#97bfd2"/><stop offset=".932" stop-color="#83b3c9"/></radialGradient><path fill="url(#PtDPGGtyYZCI75aQ4CpBKb)" d="M36.665,30.961c0,0,1.578,0.9,3.379-0.799c0,0-2.455-0.338-3.426-2.765 c-0.904-2.261-0.982-6.557-1.85-12.827c-0.135-0.974-0.363-1.859-0.664-2.667c0.572-0.146,1.624,0.092,1.624,0.092 c-0.985-2.296-2.853-2.386-2.853-2.386c2.691-0.663,3.203-3.171,3.203-3.171C34.136,7.84,31.049,7.8,30.907,7.703 c0.04,0.012,2.207-0.878,2.015-2.668c0,0-1.376,0.944-8.361,0.944c-5.637,0-9.435,3.325-9.435,8.07 c0,2.675,0.928,1.163,1.632,5.793c0.626,4.12-0.507,10.684-4.991,13.618c0,0,3.953,1.654,6.92-1.669c0,0,0.534,1.365-1.839,3.501 c0,0,4.332,0.594,6.379-3.026c0.102,0.25-0.089,3.204,4.065,3.62c0.002,0.048-0.831-1.78-0.001-3.878c0,0,0.832,3.879,6.291,3.284 c0,0-2.255-1.78-2.018-3.798c0,0,3.301,4.575,8.156,1.864C39.72,33.358,37.345,32.501,36.665,30.961z"/><linearGradient id="PtDPGGtyYZCI75aQ4CpBKc" x1="15.511" x2="14.088" y1="9.941" y2="23.227" gradientUnits="userSpaceOnUse"><stop offset=".235" stop-color="#ffe78f"/><stop offset=".771" stop-color="#d68814"/></linearGradient><path fill="url(#PtDPGGtyYZCI75aQ4CpBKc)" d="M9.072,15.852c0,0-1.211,2.866,0.632,3.023c3.518,0.3,5.68,1.844,7.83,1.844 c3.924,0,2.818-1.554,2.818-1.554l-7.287-3.894L9.072,15.852z"/><path fill="#ffda96" d="M9.481,18.751l0.555,0.073c0,0,2.034-0.244,4.395-0.113c2.569,0.142,5.996,1.066,5.996,1.066 s0.065-0.21,0.049-0.256c-0.015-0.042-0.124-0.152-0.124-0.152l-6.042-1.722L9.481,18.751z"/><path fill="#422d06" d="M9.481,18.549l0.518,0.299c0,0,2.459-0.593,4.816-0.411c2.163,0.167,5.661,1.082,5.661,1.082 s-0.02-0.134-0.036-0.181c-0.015-0.042-0.088-0.174-0.088-0.174l-6.042-1.722L9.481,18.549z"/><radialGradient id="PtDPGGtyYZCI75aQ4CpBKd" cx="8.222" cy="-10.618" r="6.165" gradientTransform="matrix(.887 -.2342 .1208 .472 4.781 21.33)" gradientUnits="userSpaceOnUse"><stop offset="0" stop-color="#ffeaab"/><stop offset=".463" stop-color="#fadf77"/><stop offset=".624" stop-color="#f6d549"/><stop offset=".789" stop-color="#f3cc22"/><stop offset=".92" stop-color="#f1c609"/><stop offset="1" stop-color="#f0c400"/></radialGradient><path fill="url(#PtDPGGtyYZCI75aQ4CpBKd)" d="M15.445,11.773c0,0-8.787-0.568-8.687,4.78c0.047,2.516,1.854,4.379,1.854,4.379 s-0.033-5.081,11.74-1.767C20.352,19.165,14.085,15.529,15.445,11.773z"/><path fill="#b2c7d1" d="M18.865,12.852c-0.077-0.002-0.144-0.013-0.211-0.023c0.261,0.513,1.35,2.442,2.967,2.442 c2.128,0,3.087-2.478,3.087-2.478s-0.237-0.591-0.712-1.201C21.381,11.259,19.9,12.874,18.865,12.852z"/><path fill="#cae2ed" d="M19.064,12.835c0.237,0.461,1.174,2.1,2.562,2.1c1.842,0,2.672-2.145,2.672-2.145 s-0.26-0.649-0.783-1.24C21.349,11.461,20.02,12.687,19.064,12.835z"/><radialGradient id="PtDPGGtyYZCI75aQ4CpBKe" cx="21.631" cy="12.826" r="1.956" gradientUnits="userSpaceOnUse"><stop offset=".514" stop-color="#f08b11"/><stop offset=".832"/></radialGradient><path fill="url(#PtDPGGtyYZCI75aQ4CpBKe)" d="M22.984,11.553c-1.669,0.097-2.8,0.947-3.646,1.217c0.002,0.004,0.882,1.815,2.291,1.815 c1.61,0,2.335-1.752,2.335-1.752S23.636,12.082,22.984,11.553z"/><path d="M21.651,11.805c-0.026,0-0.047,0.013-0.072,0.015c-0.158,0.051-0.309,0.106-0.455,0.164 c-0.257,0.173-0.436,0.452-0.436,0.785c0,0.532,0.431,0.963,0.963,0.963c0.532,0,0.963-0.431,0.963-0.963 C22.614,12.236,22.183,11.805,21.651,11.805z"/><linearGradient id="PtDPGGtyYZCI75aQ4CpBKf" x1="22.428" x2="21.289" y1="8.549" y2="13.428" gradientUnits="userSpaceOnUse"><stop offset=".256" stop-color="#d7e7ee" stop-opacity="0"/><stop offset=".658" stop-color="#c5dbe5" stop-opacity=".541"/><stop offset="1" stop-color="#b3cfdb"/></linearGradient><path fill="url(#PtDPGGtyYZCI75aQ4CpBKf)" d="M18.069,10.601c0,0-0.928,2.214,0.796,2.251c1.224,0.026,3.066-2.251,6.682-0.866 c0,0-1.055-2.649-2.579-2.649C19.92,9.337,18.069,10.601,18.069,10.601z"/><path d="M18.865,12.852c-0.173-0.004-0.313-0.034-0.436-0.077c-0.017-0.006-0.035-0.01-0.051-0.016 c-0.116-0.047-0.208-0.112-0.283-0.188c-0.007-0.007-0.019-0.01-0.026-0.017c0.131,0.385,0.419,0.748,1.065,0.748 c1.224,0,3.185-2.129,6.413-1.315C21.931,10.601,20.089,12.878,18.865,12.852z" opacity=".36"/><path fill="#fff" d="M20.609,12.204c0.004,0.257,0.213,0.464,0.471,0.464c0.261,0,0.472-0.211,0.472-0.472 c0-0.126-0.051-0.239-0.132-0.324C21.129,11.975,20.858,12.089,20.609,12.204z"/></svg>