<svg xmlns="http://www.w3.org/2000/svg" viewBox="0 0 48 48"><linearGradient id="e5WNtFw7HjbI3M5Jug9bva" x1="12.055" x2="14.952" y1="22.177" y2="22.177" gradientUnits="userSpaceOnUse"><stop offset="0" stop-color="#bd8181"/><stop offset=".995" stop-color="#edc6c6"/></linearGradient><path fill="url(#e5WNtFw7HjbI3M5Jug9bva)" d="M13.577,23.699c-1.809,0.687-2.565-0.947-0.45-2.336c0.972-0.639,1.586-0.445,2.56-0.848	c0.597-0.247,1.073,1.52-0.314,1.949c-0.401,0.124-0.948,0.363-1.481,0.511c-0.53,0.148-0.958,0.025-0.938,0.245	C12.982,23.538,13.646,23.18,13.577,23.699z"/><path fill="#363231" d="M20.574,35.303c1.273,0.009,11.386,0.679,12.688,0.679c1.303,0-1.537-1.147-1.35-1.668	s-6.485-0.839-9.016-0.914S17.66,35.283,20.574,35.303z"/><path fill="#363231" d="M14.168,22.378c1.09-0.657,10.063-5.369,11.174-6.05s-1.91-0.175-2.023-0.717	c-0.114-0.542-5.968,2.673-8.165,3.932S11.673,23.883,14.168,22.378z"/><path fill="#363231" d="M13.628,9.874c-0.229-1.174-0.879-3.141-0.567-4.188c0.247-0.828,0.837-1.238,1.523-1.152	s1.528,0.771,1.478,1.635s-0.378,1.758-0.986,2.436S13.628,9.874,13.628,9.874z"/><path fill="#b07272" d="M40.869,34.09C43.002,35.428,44,36.649,44,38.547C44,40.91,39.952,44,31,44 c-8.122,0-13.149-2-16.602-2c-2.101,0-1.626-1,0.045-1c2.941,0,9.103,1.472,16.55,1.472c5.195,0,10.618-1.221,10.618-3.924 C41.611,37.05,39.202,37,36,37C34.975,37,38.102,32.354,40.869,34.09z"/><path fill="#b17373" d="M40.84,34.093c2.134,1.334,3.146,2.546,3.146,4.455c0,2.363-4.052,5.438-12.985,5.438 c-8.112,0-13.15-1.997-16.603-1.997c-2.074,0-1.606-0.983,0.045-0.983c2.949,0,9.146,1.476,16.552,1.476 c5.217,0,10.638-1.23,10.638-3.934c0-1.509-2.428-1.563-5.585-1.578C35.037,36.964,38.111,32.382,40.84,34.093z"/><path fill="#b17474" d="M40.811,34.095c2.135,1.33,3.161,2.533,3.161,4.452c0,2.363-4.056,5.424-12.969,5.424 c-8.102,0-13.151-1.993-16.604-1.993c-2.047,0-1.586-0.967,0.044-0.967c2.957,0,9.189,1.48,16.554,1.48 c5.238,0,10.658-1.239,10.658-3.943c0-1.521-2.447-1.579-5.558-1.608C35.098,36.927,38.12,32.41,40.811,34.095z"/><path fill="#b27575" d="M40.782,34.098c2.136,1.325,3.177,2.519,3.177,4.449c0,2.363-4.061,5.41-12.954,5.41 c-8.092,0-13.152-1.99-16.606-1.99c-2.02,0-1.566-0.95,0.043-0.95c2.965,0,9.233,1.483,16.556,1.483 c5.26,0,10.678-1.249,10.678-3.953c0-1.533-2.466-1.595-5.532-1.639C35.16,36.891,38.129,32.438,40.782,34.098z"/><path fill="#b37676" d="M40.753,34.101c2.134,1.327,3.192,2.506,3.192,4.446c0,2.363-4.065,5.395-12.938,5.395 c-8.082,0-13.153-1.987-16.607-1.987c-1.993,0-1.546-0.934,0.043-0.934c2.973,0,9.276,1.487,16.558,1.487 c5.281,0,10.697-1.258,10.697-3.962c0-1.544-2.484-1.604-5.506-1.669C35.222,36.857,38.133,32.472,40.753,34.101z"/><path fill="#b47777" d="M40.725,34.104c2.134,1.324,3.207,2.493,3.207,4.443c0,2.363-4.069,5.381-12.923,5.381 c-8.072,0-13.154-1.983-16.608-1.983c-1.966,0-1.526-0.917,0.042-0.917c2.981,0,9.319,1.491,16.559,1.491 c5.302,0,10.717-1.268,10.717-3.971c0-1.556-2.503-1.618-5.479-1.7C35.284,36.822,38.141,32.501,40.725,34.104z"/><path fill="#b47878" d="M40.696,34.107c2.134,1.321,3.222,2.479,3.222,4.441c0,2.363-4.074,5.367-12.907,5.367 c-8.062,0-13.155-1.98-16.609-1.98c-1.938,0-1.506-0.901,0.041-0.901c2.989,0,9.362,1.495,16.561,1.495 c5.324,0,10.737-1.277,10.737-3.981c0-1.568-2.522-1.632-5.453-1.73C35.345,36.786,38.149,32.53,40.696,34.107z"/><path fill="#b57979" d="M40.667,34.109c2.134,1.318,3.238,2.466,3.238,4.438c0,2.363-4.078,5.352-12.892,5.352 c-8.052,0-13.156-1.977-16.61-1.977c-1.911,0-1.486-0.884,0.041-0.884c2.997,0,9.406,1.499,16.563,1.499 c5.345,0,10.757-1.286,10.757-3.99c0-1.58-2.54-1.647-5.426-1.76C35.407,36.75,38.157,32.559,40.667,34.109z"/><path fill="#b67a7a" d="M40.638,34.112c2.134,1.315,3.253,2.453,3.253,4.435c0,2.363-4.082,5.338-12.876,5.338 c-8.042,0-13.157-1.974-16.611-1.974c-1.884,0-1.466-0.868,0.04-0.868c3.005,0,9.449,1.503,16.565,1.503 c5.366,0,10.777-1.296,10.777-4c0-1.592-2.559-1.661-5.4-1.791C35.469,36.714,38.165,32.588,40.638,34.112z"/><path fill="#b77b7b" d="M40.609,34.115c2.135,1.312,3.268,2.439,3.268,4.432c0,2.363-4.087,5.324-12.861,5.324 c-8.032,0-13.158-1.97-16.612-1.97c-1.857,0-1.446-0.851,0.039-0.851c3.013,0,9.492,1.507,16.567,1.507 c5.388,0,10.796-1.305,10.796-4.009c0-1.604-2.578-1.675-5.373-1.821C35.53,36.679,38.173,32.617,40.609,34.115z"/><path fill="#b77c7c" d="M40.58,34.118c2.135,1.309,3.283,2.426,3.283,4.429c0,2.363-4.091,5.309-12.845,5.309 c-8.022,0-13.159-1.967-16.613-1.967c-1.83,0-1.425-0.835,0.039-0.835c3.021,0,9.535,1.511,16.569,1.511 c5.409,0,10.816-1.315,10.816-4.018c0-1.615-2.597-1.69-5.347-1.852C35.592,36.643,38.181,32.646,40.58,34.118z"/><path fill="#b87d7d" d="M40.551,34.121c2.135,1.307,3.299,2.412,3.299,4.427c0,2.363-4.095,5.295-12.83,5.295 c-8.012,0-13.16-1.964-16.614-1.964c-1.803,0-1.405-0.818,0.038-0.818c3.029,0,9.579,1.515,16.571,1.515 c5.43,0,10.836-1.324,10.836-4.028c0-1.627-2.616-1.704-5.321-1.882C35.654,36.607,38.189,32.675,40.551,34.121z"/><path fill="#b97e7e" d="M40.522,34.124c2.135,1.304,3.314,2.399,3.314,4.424c0,2.363-4.099,5.281-12.814,5.281 c-8.002,0-13.161-1.96-16.615-1.96c-1.775,0-1.385-0.802,0.037-0.802c3.037,0,9.622,1.519,16.572,1.519 c5.452,0,10.856-1.333,10.856-4.037c0-1.639-2.634-1.718-5.294-1.913C35.716,36.572,38.197,32.704,40.522,34.124z"/><path fill="#ba7f7f" d="M40.493,34.126c2.136,1.301,3.329,2.386,3.329,4.421c0,2.363-4.104,5.266-12.799,5.266 c-7.992,0-13.163-1.957-16.616-1.957c-1.748,0-1.365-0.785,0.037-0.785c3.045,0,9.665,1.522,16.574,1.522 c5.473,0,10.876-1.343,10.876-4.047c0-1.651-2.653-1.733-5.268-1.943C35.777,36.536,38.205,32.733,40.493,34.126z"/><path fill="#ba8080" d="M40.464,34.129c2.136,1.298,3.344,2.372,3.344,4.418c0,2.363-4.108,5.252-12.783,5.252 c-7.982,0-13.164-1.954-16.617-1.954c-1.721,0-1.345-0.769,0.036-0.769c3.052,0,9.708,1.526,16.576,1.526 c5.494,0,10.895-1.352,10.895-4.056c0-1.663-2.672-1.747-5.241-1.974C35.839,36.5,38.213,32.762,40.464,34.129z"/><path fill="#bb8181" d="M40.435,34.132c2.136,1.295,3.36,2.359,3.36,4.415c0,2.363-4.112,5.238-12.768,5.238 c-7.972,0-13.165-1.95-16.618-1.95c-1.694,0-1.325-0.752,0.035-0.752c3.06,0,9.752,1.53,16.578,1.53 c5.516,0,10.915-1.361,10.915-4.065c0-1.674-2.691-1.762-5.215-2.004C35.901,36.464,38.222,32.79,40.435,34.132z"/><path fill="#bc8282" d="M40.406,34.135c2.137,1.292,3.375,2.346,3.375,4.413c0,2.363-4.117,5.224-12.752,5.224 c-7.962,0-13.166-1.947-16.619-1.947c-1.667,0-1.305-0.736,0.035-0.736c3.068,0,9.795,1.534,16.58,1.534 c5.537,0,10.935-1.371,10.935-4.075c0-1.686-2.71-1.776-5.188-2.035C35.962,36.429,38.23,32.819,40.406,34.135z"/><path fill="#bd8383" d="M40.378,34.138c2.137,1.289,3.39,2.332,3.39,4.41c0,2.363-4.121,5.209-12.737,5.209 c-7.952,0-13.167-1.944-16.62-1.944c-1.64,0-1.285-0.719,0.034-0.719c3.076,0,9.838,1.538,16.582,1.538 c5.558,0,10.955-1.38,10.955-4.084c0-1.698-2.729-1.791-5.162-2.065C36.024,36.393,38.238,32.847,40.378,34.138z"/><path fill="#bd8484" d="M40.349,34.14c2.137,1.286,3.405,2.319,3.405,4.407c0,2.363-4.125,5.195-12.721,5.195 c-7.942,0-13.168-1.94-16.622-1.94c-1.612,0-1.265-0.703,0.033-0.703c3.084,0,9.881,1.542,16.584,1.542 c5.58,0,10.975-1.39,10.975-4.094c0-1.71-2.748-1.806-5.136-2.095C36.085,36.357,38.246,32.876,40.349,34.14z"/><path fill="#be8585" d="M40.32,34.143c2.138,1.283,3.421,2.305,3.421,4.404c0,2.363-4.13,5.181-12.706,5.181 c-7.932,0-13.169-1.937-16.623-1.937c-1.585,0-1.245-0.686,0.033-0.686c3.092,0,9.925,1.546,16.585,1.546 c5.601,0,10.994-1.399,10.994-4.103c0-1.722-2.767-1.82-5.109-2.126C36.147,36.321,38.255,32.904,40.32,34.143z"/><path fill="#bf8686" d="M40.291,34.146c2.138,1.28,3.436,2.292,3.436,4.401c0,2.363-4.134,5.166-12.69,5.166 c-7.922,0-13.17-1.934-16.624-1.934c-1.558,0-1.225-0.67,0.032-0.67c3.1,0,9.968,1.55,16.587,1.55 c5.622,0,11.014-1.408,11.014-4.112c0-1.734-2.786-1.835-5.083-2.156C36.209,36.285,38.263,32.933,40.291,34.146z"/><path fill="#c08787" d="M40.262,34.149c2.138,1.277,3.451,2.279,3.451,4.398c0,2.363-4.138,5.152-12.675,5.152 c-7.912,0-13.171-1.931-16.625-1.931c-1.531,0-1.205-0.653,0.031-0.653c3.108,0,10.011,1.554,16.589,1.554 c5.644,0,11.034-1.418,11.034-4.122c0-1.745-2.805-1.85-5.056-2.187C36.27,36.25,38.272,32.961,40.262,34.149z"/><path fill="#c08888" d="M40.233,34.152c2.139,1.273,3.466,2.265,3.466,4.396c0,2.363-4.143,5.138-12.659,5.138 c-7.902,0-13.172-1.927-16.626-1.927c-1.504,0-1.185-0.637,0.031-0.637c3.116,0,10.054,1.558,16.591,1.558 c5.665,0,11.054-1.427,11.054-4.131c0-1.757-2.824-1.865-5.03-2.217C36.332,36.214,38.28,32.989,40.233,34.152z"/><path fill="#c18989" d="M40.204,34.154c2.139,1.27,3.482,2.252,3.482,4.393c0,2.363-4.147,5.123-12.644,5.123 c-7.892,0-13.173-1.924-16.627-1.924c-1.477,0-1.164-0.62,0.03-0.62c3.124,0,10.098,1.562,16.593,1.562 c5.686,0,11.074-1.437,11.074-4.14c0-1.769-2.843-1.879-5.003-2.248C36.393,36.178,38.289,33.017,40.204,34.154z"/><path fill="#c28a8a" d="M40.175,34.157c2.14,1.267,3.497,2.239,3.497,4.39c0,2.363-4.151,5.109-12.628,5.109 c-7.882,0-13.174-1.921-16.628-1.921c-1.449,0-1.144-0.604,0.029-0.604c3.132,0,10.141,1.565,16.595,1.565 c5.708,0,11.093-1.446,11.093-4.15c0-1.781-2.862-1.894-4.977-2.278C36.455,36.142,38.297,33.045,40.175,34.157z"/><path fill="#c38b8b" d="M40.146,34.16c2.14,1.264,3.512,2.225,3.512,4.387c0,2.363-4.156,5.095-12.613,5.095 c-7.872,0-13.175-1.917-16.629-1.917c-1.422,0-1.124-0.587,0.028-0.587c3.14,0,10.184,1.569,16.597,1.569 c5.729,0,11.113-1.455,11.113-4.159c0-1.793-2.882-1.909-4.95-2.309C36.517,36.106,38.306,33.073,40.146,34.16z"/><path fill="#c38c8c" d="M40.117,34.163c2.141,1.261,3.527,2.212,3.527,4.384c0,2.363-4.16,5.08-12.597,5.08 c-7.862,0-13.176-1.914-16.63-1.914c-1.395,0-1.104-0.571,0.028-0.571c3.148,0,10.227,1.573,16.599,1.573 c5.751,0,11.133-1.465,11.133-4.169c0-1.805-2.901-1.924-4.924-2.339C36.578,36.07,38.314,33.101,40.117,34.163z"/><path fill="#c48d8d" d="M40.088,34.166c2.141,1.257,3.543,2.198,3.543,4.382c0,2.363-4.164,5.066-12.582,5.066 c-7.852,0-13.177-1.911-16.631-1.911c-1.368,0-1.084-0.554,0.027-0.554c3.156,0,10.271,1.577,16.6,1.577 c5.772,0,11.153-1.474,11.153-4.178c0-1.816-2.92-1.94-4.898-2.369C36.64,36.034,38.323,33.129,40.088,34.166z"/><path fill="#c58e8e" d="M40.059,34.169c2.142,1.254,3.558,2.185,3.558,4.379c0,2.363-4.168,5.052-12.566,5.052 c-7.842,0-13.179-1.907-16.632-1.907c-1.341,0-1.064-0.538,0.026-0.538c3.164,0,10.314,1.581,16.602,1.581 c5.793,0,11.173-1.484,11.173-4.187c0-1.828-2.939-1.955-4.871-2.4C36.701,35.998,38.332,33.157,40.059,34.169z"/><path fill="#c68f8f" d="M40.031,34.171c2.142,1.251,3.573,2.172,3.573,4.376c0,2.363-4.173,5.037-12.551,5.037 c-7.832,0-13.18-1.904-16.633-1.904c-1.314,0-1.044-0.521,0.026-0.521c3.172,0,10.357,1.585,16.604,1.585 c5.815,0,11.192-1.493,11.192-4.197c0-1.84-2.959-1.97-4.845-2.43C36.763,35.962,38.341,33.185,40.031,34.171z"/><path fill="#c68f8f" d="M40.002,34.174c2.143,1.247,3.588,2.158,3.588,4.373c0,2.363-4.177,5.023-12.535,5.023 c-7.822,0-13.181-1.901-16.634-1.901c-1.286,0-1.024-0.505,0.025-0.505c3.179,0,10.4,1.589,16.606,1.589 c5.836,0,11.212-1.502,11.212-4.206c0-1.852-2.978-1.986-4.818-2.461C36.824,35.926,38.349,33.212,40.002,34.174z"/><path fill="#c79090" d="M39.973,34.177c2.144,1.244,3.604,2.145,3.604,4.37c0,2.363-4.181,5.009-12.52,5.009 c-7.812,0-13.182-1.897-16.635-1.897c-1.259,0-1.004-0.488,0.024-0.488c3.187,0,10.444,1.593,16.608,1.593 c5.857,0,11.232-1.512,11.232-4.216c0-1.864-2.997-2.001-4.792-2.491C36.886,35.89,38.358,33.24,39.973,34.177z"/><path fill="#c89191" d="M39.944,34.18c2.144,1.24,3.619,2.132,3.619,4.368c0,2.363-4.186,4.994-12.504,4.994 c-7.802,0-13.183-1.894-16.636-1.894c-1.232,0-0.984-0.472,0.024-0.472c3.195,0,10.487,1.597,16.61,1.597 c5.879,0,11.252-1.521,11.252-4.225c0-1.876-3.017-2.017-4.765-2.522C36.947,35.854,38.367,33.268,39.944,34.18z"/><path fill="#c89292" d="M39.915,34.183c2.145,1.237,3.634,2.118,3.634,4.365c0,2.363-4.19,4.98-12.489,4.98 c-7.792,0-13.184-1.891-16.638-1.891c-1.205,0-0.964-0.455,0.023-0.455c3.203,0,10.53,1.601,16.612,1.601 c5.9,0,11.272-1.531,11.272-4.234c0-1.887-3.036-2.033-4.739-2.552C37.009,35.818,38.376,33.295,39.915,34.183z"/><path fill="#c99393" d="M39.886,34.185c2.146,1.233,3.649,2.105,3.649,4.362c0,2.363-4.194,4.966-12.473,4.966 c-7.783,0-13.185-1.888-16.639-1.888c-1.178,0-0.944-0.439,0.022-0.439c3.211,0,10.573,1.604,16.613,1.604 c5.921,0,11.292-1.54,11.292-4.244c0-1.899-3.055-2.048-4.713-2.583C37.07,35.782,38.385,33.323,39.886,34.185z"/><path fill="#ca9494" d="M39.857,34.188c2.147,1.23,3.665,2.091,3.665,4.359c0,2.363-4.199,4.951-12.458,4.951 c-7.773,0-13.186-1.884-16.64-1.884c-1.151,0-0.924-0.422,0.022-0.422c3.219,0,10.617,1.608,16.615,1.608 c5.943,0,11.311-1.549,11.311-4.253c0-1.911-3.075-2.064-4.686-2.613C37.132,35.745,38.394,33.35,39.857,34.188z"/><path fill="#cb9595" d="M39.828,34.191c2.148,1.226,3.68,2.078,3.68,4.356c0,2.363-4.203,4.937-12.442,4.937 c-7.763,0-13.187-1.881-16.641-1.881c-1.123,0-0.903-0.406,0.021-0.406c3.227,0,10.66,1.612,16.617,1.612 c5.964,0,11.331-1.559,11.331-4.263c0-1.923-3.094-2.081-4.66-2.644C37.193,35.709,38.403,33.377,39.828,34.191z"/><path fill="#cb9696" d="M39.799,34.194c2.148,1.222,3.695,2.065,3.695,4.353c0,2.363-4.207,4.923-12.427,4.923 c-7.753,0-13.188-1.878-16.642-1.878c-1.096,0-0.883-0.389,0.02-0.389c3.235,0,10.703,1.616,16.619,1.616 c5.985,0,11.351-1.568,11.351-4.272c0-1.935-3.113-2.097-4.633-2.674C37.255,35.673,38.412,33.405,39.799,34.194z"/><path fill="#cc9797" d="M39.77,34.197c2.149,1.218,3.71,2.051,3.71,4.351c0,2.363-4.212,4.908-12.411,4.908 c-7.743,0-13.189-1.874-16.643-1.874c-1.069,0-0.863-0.373,0.02-0.373c3.243,0,10.746,1.62,16.621,1.62 c6.007,0,11.371-1.577,11.371-4.281c0-1.947-3.133-2.113-4.607-2.704C37.316,35.636,38.421,33.432,39.77,34.197z"/><path fill="#cd9898" d="M39.741,34.199c2.15,1.214,3.726,2.038,3.726,4.348c0,2.363-4.216,4.894-12.396,4.894 c-7.733,0-13.19-1.871-16.644-1.871c-1.042,0-0.843-0.356,0.019-0.356c3.251,0,10.79,1.624,16.623,1.624 c6.028,0,11.391-1.587,11.391-4.291c0-1.958-3.152-2.13-4.58-2.735C37.378,35.6,38.43,33.459,39.741,34.199z"/><path fill="#ce9999" d="M39.713,34.202c2.151,1.21,3.741,2.025,3.741,4.345c0,2.363-4.22,4.88-12.38,4.88 c-7.723,0-13.191-1.868-16.645-1.868c-1.015,0-0.823-0.34,0.018-0.34c3.259,0,10.833,1.628,16.625,1.628 c6.049,0,11.41-1.596,11.41-4.3c0-1.97-3.171-2.147-4.554-2.765C37.439,35.564,38.439,33.486,39.713,34.202z"/><path fill="#ce9a9a" d="M39.684,34.205c2.152,1.206,3.756,2.011,3.756,4.342c0,2.363-4.225,4.865-12.365,4.865 c-7.713,0-13.192-1.864-16.646-1.864c-0.988,0-0.803-0.323,0.018-0.323c3.267,0,10.876,1.632,16.626,1.632 c6.071,0,11.43-1.606,11.43-4.31c0-1.982-3.19-2.164-4.528-2.796C37.501,35.527,38.449,33.513,39.684,34.205z"/><path fill="#cf9b9b" d="M39.655,34.208c2.154,1.202,3.771,1.998,3.771,4.339c0,2.363-4.229,4.851-12.35,4.851 c-7.703,0-13.193-1.861-16.647-1.861c-0.96,0-0.783-0.307,0.017-0.307c3.275,0,10.919,1.636,16.628,1.636 c6.092,0,11.45-1.615,11.45-4.319c0-1.994-3.209-2.181-4.501-2.826C37.562,35.491,38.458,33.54,39.655,34.208z"/><path fill="#d09c9c" d="M39.626,34.211c2.155,1.197,3.787,1.984,3.787,4.337c0,2.363-4.233,4.837-12.334,4.837 c-7.693,0-13.195-1.858-16.648-1.858c-0.933,0-0.763-0.29,0.016-0.29c3.283,0,10.962,1.64,16.63,1.64 c6.113,0,11.47-1.624,11.47-4.328c0-2.006-3.228-2.198-4.475-2.857C37.624,35.454,38.467,33.567,39.626,34.211z"/><path fill="#d19d9d" d="M39.597,34.214c2.156,1.193,3.802,1.971,3.802,4.334c0,2.363-4.238,4.822-12.319,4.822 c-7.683,0-13.196-1.854-16.649-1.854c-0.906,0-0.743-0.274,0.016-0.274c3.291,0,11.006,1.643,16.632,1.643 c6.135,0,11.49-1.634,11.49-4.338c0-2.018-3.247-2.215-4.448-2.887C37.685,35.417,38.477,33.594,39.597,34.214z"/><path fill="#d19e9e" d="M39.568,34.216c2.157,1.188,3.817,1.958,3.817,4.331c0,2.363-4.242,4.808-12.303,4.808 c-7.673,0-13.197-1.851-16.65-1.851c-0.879,0-0.723-0.257,0.015-0.257c3.298,0,11.049,1.647,16.634,1.647 c6.156,0,11.509-1.643,11.509-4.347c0-2.029-3.266-2.233-4.422-2.918C37.747,35.38,38.486,33.621,39.568,34.216z"/><path fill="#d29f9f" d="M39.539,34.219c2.159,1.183,3.832,1.944,3.832,4.328c0,2.363-4.246,4.794-12.288,4.794 c-7.663,0-13.198-1.848-16.651-1.848c-0.852,0-0.703-0.241,0.014-0.241c3.306,0,11.092,1.651,16.636,1.651 c6.177,0,11.529-1.653,11.529-4.356c0-2.041-3.285-2.251-4.395-2.948C37.809,35.344,38.495,33.647,39.539,34.219z"/><path fill="#d3a0a0" d="M39.51,34.222c2.161,1.178,3.848,1.931,3.848,4.325c0,2.363-4.25,4.779-12.272,4.779 c-7.653,0-13.199-1.845-16.652-1.845c-0.825,0-0.683-0.224,0.014-0.224c3.314,0,11.135,1.655,16.638,1.655 c6.199,0,11.549-1.662,11.549-4.366c0-2.053-3.303-2.269-4.369-2.978C37.871,35.307,38.505,33.674,39.51,34.222z"/><path fill="#d4a1a1" d="M39.481,34.225c2.162,1.172,3.863,1.918,3.863,4.323c0,2.363-4.255,4.765-12.257,4.765 c-7.643,0-13.2-1.841-16.654-1.841c-0.798,0-0.663-0.208,0.013-0.208c3.322,0,11.179,1.659,16.639,1.659 c6.22,0,11.569-1.671,11.569-4.375c0-2.065-3.322-2.287-4.342-3.009C37.933,35.27,38.514,33.7,39.481,34.225z"/><path fill="#d4a2a2" d="M39.452,34.228c2.164,1.167,3.878,1.904,3.878,4.32c0,2.363-4.259,4.751-12.241,4.751 c-7.633,0-13.201-1.838-16.655-1.838c-0.77,0-0.643-0.191,0.012-0.191c3.33,0,11.222,1.663,16.641,1.663 c6.241,0,11.589-1.681,11.589-4.385c0-2.077-3.34-2.306-4.316-3.039C37.994,35.233,38.524,33.727,39.452,34.228z"/><path fill="#d5a3a3" d="M39.423,34.23c2.166,1.161,3.893,1.891,3.893,4.317c0,2.363-4.263,4.736-12.226,4.736 c-7.623,0-13.202-1.835-16.656-1.835c-0.743,0-0.622-0.175,0.012-0.175c3.338,0,11.265,1.667,16.643,1.667 c6.263,0,11.608-1.69,11.608-4.394c0-2.089-3.357-2.324-4.29-3.07C38.057,35.195,38.533,33.753,39.423,34.23z"/><path fill="#d6a4a4" d="M39.394,34.233c2.168,1.155,3.909,1.877,3.909,4.314c0,2.363-4.268,4.722-12.21,4.722 c-7.613,0-13.203-1.831-16.657-1.831c-0.716,0-0.602-0.158,0.011-0.158c3.346,0,11.308,1.671,16.645,1.671 c6.284,0,11.628-1.7,11.628-4.403c0-2.1-3.375-2.343-4.263-3.1C38.119,35.158,38.543,33.78,39.394,34.233z"/><path fill="#d7a5a5" d="M39.366,34.236c2.171,1.148,3.924,1.864,3.924,4.311c0,2.363-4.272,4.708-12.195,4.708 c-7.603,0-13.204-1.828-16.658-1.828c-0.689,0-0.582-0.142,0.01-0.142c3.354,0,11.352,1.675,16.647,1.675 c6.306,0,11.648-1.709,11.648-4.413c0-2.112-3.392-2.362-4.237-3.131C38.181,35.121,38.552,33.806,39.366,34.236z"/><path fill="#d7a6a6" d="M39.337,34.239c2.173,1.141,3.939,1.851,3.939,4.308c0,2.363-4.276,4.693-12.179,4.693 c-7.593,0-13.205-1.825-16.659-1.825c-0.662,0-0.562-0.125,0.009-0.125c3.362,0,11.395,1.679,16.649,1.679 c6.327,0,11.668-1.718,11.668-4.422c0-2.124-3.409-2.38-4.21-3.161C38.243,35.084,38.562,33.832,39.337,34.239z"/><path fill="#d8a7a7" d="M39.308,34.242c2.176,1.133,3.954,1.837,3.954,4.306c0,2.363-4.281,4.679-12.164,4.679 c-7.583,0-13.206-1.821-16.66-1.821c-0.635,0-0.542-0.109,0.009-0.109c3.37,0,11.438,1.682,16.651,1.682 c6.348,0,11.688-1.728,11.688-4.432c0-2.136-3.426-2.399-4.184-3.192C38.306,35.046,38.572,33.858,39.308,34.242z"/><path fill="#d9a8a8" d="M39.279,34.244c2.179,1.125,3.97,1.824,3.97,4.303c0,2.363-4.285,4.665-12.148,4.665 c-7.573,0-13.207-1.818-16.661-1.818c-0.607,0-0.522-0.092,0.008-0.092c3.378,0,11.481,1.686,16.653,1.686 c6.37,0,11.707-1.737,11.707-4.441c0-2.148-3.442-2.418-4.157-3.222C38.369,35.009,38.581,33.884,39.279,34.244z"/><path fill="#daa9a9" d="M39.25,34.247c2.183,1.116,3.985,1.811,3.985,4.3c0,2.363-4.289,4.651-12.133,4.651 c-7.563,0-13.208-1.815-16.662-1.815c-0.58,0-0.502-0.076,0.007-0.076c3.386,0,11.525,1.69,16.654,1.69 c6.391,0,11.727-1.747,11.727-4.45c0-2.16-3.458-2.437-4.131-3.253C38.431,34.972,38.591,33.91,39.25,34.247z"/><path fill="#daaaaa" d="M39.221,34.25c2.187,1.106,4,1.797,4,4.297c0,2.363-4.294,4.636-12.117,4.636 c-7.553,0-13.209-1.811-16.663-1.811c-0.553,0-0.482-0.059,0.007-0.059c3.394,0,11.568,1.694,16.656,1.694 c6.412,0,11.747-1.756,11.747-4.46c0-2.171-3.474-2.456-4.105-3.283C38.494,34.934,38.601,33.936,39.221,34.25z"/><path fill="#dbabab" d="M39.192,34.253c2.191,1.096,4.015,1.784,4.015,4.294c0,2.363-4.298,4.622-12.102,4.622 c-7.543,0-13.211-1.808-16.664-1.808c-0.526,0-0.462-0.043,0.006-0.043c3.402,0,11.611,1.698,16.658,1.698 c6.434,0,11.767-1.765,11.767-4.469c0-2.183-3.489-2.475-4.078-3.313C38.558,34.897,38.61,33.962,39.192,34.253z"/><linearGradient id="e5WNtFw7HjbI3M5Jug9bvb" x1="12.327" x2="15.224" y1="22.702" y2="22.702" gradientUnits="userSpaceOnUse"><stop offset=".005" stop-color="#edc6c6"/><stop offset="1" stop-color="#bd8181"/></linearGradient><path fill="url(#e5WNtFw7HjbI3M5Jug9bvb)" d="M13.85,24.225c-1.809,0.687-2.565-0.947-0.45-2.336c0.972-0.639,1.586-0.445,2.56-0.848	c0.597-0.247,1.073,1.52-0.314,1.949c-0.401,0.124-0.948,0.363-1.481,0.511c-0.53,0.148-0.958,0.025-0.938,0.245	C13.254,24.064,13.918,23.706,13.85,24.225z"/><g><path fill="#474241" d="M38.717,31.111C38.542,29.252,40,28.997,40,25.088c0-2.84,0.4-9.772-8.721-14.332 c-3.114-1.557-8.034,0.198-10.367-1.188s-3.085-3.046-5.763-3.338c-2.046-0.31-4.499-0.517-5.37-0.21 C8.807,6.363,7.7,6.863,6.157,7.134C4.615,7.405,3.493,7.09,3.507,7.904c0.013,0.748,0.906,3.886,3.477,4.672 c1.928,0.59,3.258,0.223,4.369,0.76c1.842,1.744,2.571,4.299,4.054,6.266c0.875,1.16-1.786,1.55-2.474,2.881 c-0.252,0.487,0.688,1.084,0.895,1.078c0.803-0.023,3.679-1.469,4.496-1.147c1.838,0.725,4.019,1.26,4.433,3.642 c0.576,3.304,0.988,5.229,1.975,6.507s1.383,2.423,0.267,2.423s-3.424-0.358-5-0.358c-1.303,0-3,0.862-3,1.691 c0,0.662,1.072,0.667,3,0.667c4.811,0,7.25,0.162,7.754-0.706c0.542-0.934,0.407-2.15,1.278-2.266s4.428,2.972,6.81,2.972 s3.225-0.236,4.154-1.398c0.93-1.162,0.888-1.516,0.888-1.516S38.891,32.97,38.717,31.111z"/><path fill="#484342" d="M38.561,30.929c-0.121-1.816,1.278-2.121,1.278-5.937c0-2.772,0.263-9.577-8.64-14.028 c-3.039-1.52-7.967,0.132-10.301-1.221c-2.3-1.332-3.174-3.138-5.788-3.422c-1.997-0.302-4.391-0.505-5.242-0.205 C8.921,6.45,7.84,6.938,6.334,7.202c-1.506,0.264-2.6-0.043-2.587,0.752c0.013,0.731,0.884,3.793,3.394,4.56 c1.882,0.576,3.278,0.188,4.363,0.712c1.798,1.703,2.685,4.298,4.09,6.25c0.864,1.2-1.955,1.714-2.627,3.013 c-0.246,0.476,0.669,1.053,0.871,1.047c0.784-0.022,3.923-1.622,4.721-1.307c1.794,0.708,3.965,1.313,4.38,3.704 c0.561,3.225,0.821,5.138,1.843,6.54c0.927,1.272,1.382,2.555,0.293,2.555s-3.415-0.341-4.953-0.341 c-1.271,0-3.063,0.82-3.063,1.629c0,0.647,1.193,0.648,3.075,0.648c4.696,0,7.105,0.158,7.597-0.689 c0.529-0.912,0.411-2.386,1.355-2.503c0.852-0.106,4.308,3.036,6.674,3.095c2.315,0.058,3.241-0.163,4.155-1.291 c0.915-1.129,0.898-1.49,0.898-1.49S38.695,32.934,38.561,30.929z"/><path fill="#494443" d="M38.406,30.746c-0.075-1.771,1.273-2.129,1.273-5.851c0-2.705,0.126-9.382-8.558-13.724 c-2.965-1.482-7.9,0.065-10.236-1.254c-2.266-1.279-3.264-3.23-5.813-3.507c-1.948-0.295-4.284-0.492-5.113-0.2 C9.034,6.537,7.979,7.013,6.51,7.271C5.041,7.529,3.974,7.229,3.987,8.005c0.012,0.713,0.863,3.7,3.311,4.449 c1.836,0.562,3.299,0.153,4.356,0.663c1.754,1.661,2.796,4.299,4.126,6.233c0.853,1.241-2.124,1.878-2.779,3.145 c-0.24,0.464,0.65,1.022,0.847,1.016c0.764-0.022,4.168-1.774,4.947-1.467c1.75,0.69,3.911,1.365,4.327,3.765 c0.547,3.146,0.654,5.043,1.71,6.573c0.871,1.262,1.381,2.687,0.319,2.687c-1.062,0-3.405-0.325-4.906-0.325 c-1.24,0-3.127,0.777-3.127,1.567c0,0.631,1.314,0.629,3.15,0.629c4.581,0,6.96,0.154,7.44-0.672 c0.516-0.89,0.416-2.622,1.432-2.74c0.831-0.097,4.187,3.099,6.538,3.218c2.247,0.114,3.258-0.091,4.155-1.184 c0.9-1.095,0.907-1.464,0.907-1.464S38.497,32.901,38.406,30.746z"/><path fill="#4a4544" d="M38.251,30.564c-0.035-1.725,1.269-2.136,1.269-5.764c0-2.637-0.011-9.186-8.477-13.419 c-2.891-1.445-7.832-0.001-10.17-1.287c-2.232-1.227-3.353-3.322-5.838-3.592c-1.899-0.287-4.176-0.48-4.985-0.195 C9.147,6.624,8.119,7.088,6.687,7.34c-1.432,0.252-2.473-0.041-2.46,0.715c0.012,0.695,0.841,3.607,3.227,4.337 c1.79,0.548,3.319,0.117,4.35,0.615c1.71,1.619,2.905,4.302,4.162,6.216c0.842,1.283-2.293,2.042-2.932,3.277 c-0.234,0.452,0.631,0.991,0.822,0.985c0.745-0.021,4.413-1.927,5.172-1.627c1.706,0.673,3.857,1.418,4.273,3.827 c0.532,3.067,0.487,4.947,1.577,6.606c0.819,1.247,1.38,2.818,0.345,2.818c-1.035,0-3.396-0.308-4.859-0.308 c-1.209,0-3.19,0.735-3.19,1.505c0,0.615,1.436,0.609,3.226,0.609c4.466,0,6.815,0.15,7.283-0.656 c0.503-0.867,0.42-2.858,1.509-2.977c0.811-0.089,4.064,3.161,6.402,3.342c2.178,0.169,3.274-0.018,4.155-1.077 c0.884-1.062,0.916-1.438,0.916-1.438S38.297,32.869,38.251,30.564z"/><path fill="#4b4645" d="M38.095,30.381c-0.001-1.679,1.264-2.143,1.264-5.678c0-2.569-0.147-8.991-8.396-13.115 c-2.816-1.408-7.764-0.068-10.105-1.32c-2.197-1.175-3.442-3.413-5.863-3.677c-1.85-0.28-4.068-0.468-4.856-0.19 c-0.879,0.31-1.88,0.762-3.275,1.007c-1.395,0.245-2.409-0.04-2.397,0.697c0.012,0.677,0.819,3.514,3.144,4.225 c1.744,0.533,3.339,0.082,4.344,0.567c1.666,1.577,3.012,4.308,4.198,6.199c0.831,1.326-2.462,2.206-3.084,3.409 c-0.228,0.441,0.612,0.959,0.798,0.954c0.726-0.021,4.658-2.079,5.398-1.787c1.662,0.656,3.803,1.47,4.22,3.889 c0.518,2.988,0.321,4.848,1.445,6.639c0.771,1.229,1.38,2.95,0.371,2.95c-1.009,0-3.386-0.291-4.811-0.291 c-1.178,0-3.253,0.693-3.253,1.443c0,0.599,1.557,0.59,3.301,0.59c4.351,0,6.67,0.146,7.126-0.639 c0.49-0.845,0.424-3.095,1.585-3.214c0.79-0.081,3.94,3.222,6.266,3.465c2.109,0.221,3.291,0.055,4.155-0.97 c0.869-1.029,0.926-1.412,0.926-1.412S38.096,32.839,38.095,30.381z"/><path fill="#4c4746" d="M37.94,30.199c0.029-1.632,1.259-2.15,1.259-5.592c0-2.501-0.284-8.796-8.314-12.811 c-2.742-1.371-7.696-0.135-10.039-1.353c-2.163-1.124-3.531-3.505-5.889-3.761c-1.801-0.273-3.961-0.455-4.728-0.185 c-0.855,0.302-1.83,0.741-3.189,0.98C5.682,7.716,4.694,7.439,4.707,8.155c0.011,0.659,0.798,3.421,3.061,4.114 c1.698,0.519,3.359,0.047,4.337,0.519c1.621,1.536,3.116,4.315,4.233,6.182c0.819,1.37-2.63,2.369-3.236,3.541 c-0.222,0.429,0.593,0.928,0.774,0.923c0.707-0.02,4.903-2.231,5.623-1.948c1.618,0.638,3.75,1.522,4.167,3.951 c0.504,2.91,0.155,4.748,1.312,6.672c0.727,1.209,1.379,3.082,0.397,3.082c-0.982,0-3.377-0.275-4.764-0.275 c-1.147,0-3.317,0.651-3.317,1.381c0,0.583,1.678,0.571,3.376,0.571c4.236,0,6.525,0.142,6.969-0.622 c0.477-0.823,0.429-3.332,1.662-3.451c0.77-0.075,3.815,3.281,6.131,3.588c2.039,0.27,3.308,0.127,4.155-0.864 c0.854-0.995,0.935-1.386,0.935-1.386S37.893,32.811,37.94,30.199z"/><path fill="#4d4847" d="M37.784,30.016c0.055-1.584,1.254-2.158,1.254-5.506c0-2.433-0.421-8.6-8.233-12.507 c-2.667-1.334-7.628-0.203-9.974-1.386c-2.127-1.073-3.62-3.597-5.914-3.846c-1.752-0.265-3.853-0.443-4.6-0.18 c-0.832,0.293-1.78,0.721-3.102,0.953c-1.321,0.232-2.282-0.037-2.27,0.66c0.011,0.641,0.776,3.328,2.978,4.002 c1.652,0.505,3.38,0.012,4.331,0.471c1.577,1.494,3.219,4.325,4.269,6.166c0.807,1.415-2.799,2.533-3.389,3.673 c-0.216,0.417,0.574,0.897,0.75,0.892c0.688-0.02,5.148-2.384,5.849-2.108c1.574,0.621,3.696,1.575,4.113,4.012 c0.489,2.831-0.009,4.645,1.179,6.704c0.685,1.186,1.378,3.213,0.422,3.213c-0.955,0-3.367-0.258-4.717-0.258 c-1.116,0-3.38,0.609-3.38,1.319c0,0.567,1.8,0.551,3.451,0.551c4.121,0,6.38,0.138,6.812-0.606c0.464-0.8,0.433-3.569,1.739-3.689 c0.749-0.069,3.688,3.339,5.995,3.712c1.968,0.318,3.324,0.2,4.155-0.757c0.839-0.962,0.945-1.36,0.945-1.36 S37.688,32.783,37.784,30.016z"/><path fill="#4e4947" d="M37.629,29.834c0.078-1.536,1.249-2.165,1.249-5.42c0-2.365-0.557-8.405-8.151-12.202 c-2.593-1.296-7.559-0.27-9.908-1.419c-2.092-1.022-3.709-3.689-5.939-3.931c-1.703-0.258-3.746-0.431-4.471-0.175 C9.599,6.973,8.678,7.389,7.393,7.614C6.108,7.84,5.175,7.578,5.186,8.256c0.011,0.623,0.754,3.235,2.895,3.89 c1.606,0.491,3.4-0.024,4.325,0.423c1.533,1.452,3.319,4.336,4.305,6.149c0.794,1.461-2.968,2.697-3.541,3.805 c-0.21,0.406,0.554,0.866,0.726,0.861c0.669-0.019,5.393-2.536,6.074-2.268c1.53,0.604,3.642,1.627,4.06,4.074 c0.475,2.752-0.172,4.541,1.047,6.737c0.645,1.162,1.377,3.345,0.448,3.345s-3.358-0.242-4.67-0.242 c-1.085,0-3.443,0.567-3.443,1.257c0,0.552,1.921,0.532,3.526,0.532c4.006,0,6.235,0.134,6.655-0.589 c0.451-0.778,0.437-3.807,1.816-3.926c0.729-0.063,3.56,3.396,5.859,3.835c1.897,0.362,3.341,0.272,4.155-0.65 c0.824-0.929,0.954-1.334,0.954-1.334S37.48,32.756,37.629,29.834z"/><path fill="#4f4a48" d="M37.474,29.652c0.098-1.489,1.244-2.172,1.244-5.333c0-2.297-0.694-8.21-8.07-11.898 c-2.518-1.259-7.489-0.339-9.843-1.452c-2.056-0.972-3.798-3.78-5.964-4.016c-1.655-0.25-3.638-0.418-4.343-0.17 c-0.786,0.277-1.681,0.681-2.929,0.9C6.322,7.902,5.415,7.648,5.426,8.306c0.01,0.605,0.733,3.142,2.812,3.778 c1.559,0.477,3.42-0.059,4.318,0.375c1.489,1.411,3.418,4.349,4.341,6.132c0.781,1.508-3.137,2.861-3.694,3.937 c-0.204,0.394,0.535,0.835,0.702,0.83c0.649-0.019,5.638-2.689,6.299-2.428c1.486,0.586,3.588,1.68,4.007,4.136 c0.46,2.673-0.333,4.436,0.914,6.77c0.607,1.137,1.376,3.477,0.474,3.477s-3.349-0.225-4.623-0.225 c-1.053,0-3.507,0.525-3.507,1.195c0,0.536,2.042,0.513,3.602,0.513c3.891,0,6.09,0.129,6.497-0.572 c0.438-0.756,0.441-4.045,1.893-4.163c0.708-0.058,3.432,3.45,5.723,3.958c1.825,0.405,3.357,0.345,4.155-0.543 c0.809-0.895,0.964-1.308,0.964-1.308S37.27,32.729,37.474,29.652z"/><path fill="#504b49" d="M37.318,29.469c0.116-1.441,1.239-2.179,1.239-5.247c0-2.229-0.831-8.015-7.989-11.594 c-2.444-1.222-7.42-0.407-9.777-1.485c-2.019-0.923-3.887-3.872-5.989-4.1c-1.606-0.243-3.531-0.406-4.215-0.165 C9.826,7.147,8.957,7.539,7.746,7.752c-1.211,0.213-2.091-0.034-2.08,0.605c0.01,0.587,0.711,3.05,2.729,3.667 c1.513,0.463,3.44-0.094,4.312,0.327c1.445,1.369,3.514,4.364,4.377,6.115c0.766,1.555-3.306,3.025-3.846,4.069 c-0.198,0.382,0.516,0.804,0.678,0.799c0.63-0.018,5.883-2.841,6.525-2.588c1.442,0.569,3.535,1.732,3.953,4.198 c0.446,2.594-0.492,4.329,0.781,6.803c0.571,1.11,1.375,3.608,0.5,3.608s-3.339-0.208-4.576-0.208c-1.022,0-3.57,0.482-3.57,1.133 c0,0.52,2.163,0.494,3.677,0.494c3.776,0,5.945,0.125,6.34-0.555c0.426-0.733,0.445-4.283,1.969-4.4 c0.687-0.053,3.303,3.503,5.587,4.082c1.753,0.444,3.374,0.418,4.155-0.436c0.794-0.862,0.973-1.282,0.973-1.282 S37.057,32.703,37.318,29.469z"/><path fill="#514c4a" d="M37.163,29.287c0.132-1.393,1.234-2.187,1.234-5.161c0-2.161-0.967-7.819-7.907-11.289 c-2.369-1.185-7.35-0.477-9.712-1.518c-1.983-0.874-3.976-3.964-6.014-4.185c-1.557-0.236-3.423-0.394-4.086-0.16 C9.939,7.234,9.096,7.614,7.922,7.82C6.748,8.026,5.895,7.787,5.906,8.407c0.01,0.569,0.689,2.957,2.646,3.555 c1.467,0.449,3.461-0.13,4.306,0.279c1.401,1.327,3.609,4.379,4.413,6.098c0.75,1.604-3.475,3.188-3.998,4.201 c-0.192,0.371,0.497,0.773,0.654,0.768c0.611-0.017,6.128-2.993,6.75-2.748c1.398,0.552,3.481,1.785,3.9,4.26 c0.432,2.515-0.649,4.22,0.648,6.836c0.537,1.083,1.374,3.74,0.526,3.74s-3.33-0.192-4.528-0.192c-0.991,0-3.633,0.44-3.633,1.071 c0,0.504,2.285,0.474,3.752,0.474c3.661,0,5.8,0.121,6.183-0.539c0.413-0.711,0.449-4.522,2.046-4.637 c0.666-0.048,3.174,3.553,5.451,4.205c1.682,0.482,3.39,0.49,4.155-0.33c0.779-0.829,0.982-1.257,0.982-1.257 S36.841,32.676,37.163,29.287z"/><path fill="#524d4b" d="M37.007,29.104c0.147-1.346,1.229-2.194,1.229-5.075c0-2.093-1.104-7.624-7.826-10.985 c-2.295-1.147-7.279-0.546-9.646-1.551c-1.946-0.826-4.065-4.055-6.039-4.27c-1.508-0.228-3.316-0.381-3.958-0.155 c-0.716,0.252-1.532,0.621-2.669,0.82c-1.137,0.2-1.963-0.032-1.953,0.568c0.01,0.552,0.668,2.864,2.562,3.443 c1.421,0.435,3.481-0.165,4.299,0.23c1.357,1.286,3.701,4.396,4.448,6.082c0.733,1.654-3.644,3.352-4.151,4.333 c-0.186,0.359,0.478,0.742,0.63,0.737c0.592-0.017,6.373-3.146,6.976-2.908c1.354,0.534,3.427,1.837,3.847,4.321 c0.417,2.436-0.803,4.11,0.516,6.869c0.504,1.055,1.374,3.872,0.552,3.872c-0.822,0-3.32-0.175-4.481-0.175 c-0.96,0-3.696,0.398-3.696,1.009c0,0.488,2.406,0.455,3.827,0.455c3.546,0,5.655,0.117,6.026-0.522 c0.4-0.689,0.452-4.761,2.123-4.874c0.645-0.044,3.044,3.6,5.315,4.328c1.611,0.516,3.407,0.563,4.156-0.223 c0.764-0.795,0.992-1.231,0.992-1.231S36.621,32.65,37.007,29.104z"/><path fill="#534e4c" d="M36.852,28.922c0.159-1.299,1.225-2.201,1.225-4.989c0-2.025-1.241-7.429-7.744-10.681 c-2.22-1.11-7.208-0.617-9.581-1.584c-1.909-0.778-4.155-4.147-6.064-4.355c-1.459-0.221-3.208-0.369-3.829-0.15 c-0.693,0.244-1.482,0.601-2.582,0.794c-1.1,0.193-1.9-0.031-1.89,0.549c0.009,0.534,0.646,2.771,2.479,3.332 c1.375,0.421,3.501-0.2,4.293,0.182c1.313,1.244,3.792,4.413,4.484,6.065c0.714,1.704-3.812,3.516-4.303,4.465 c-0.18,0.347,0.459,0.71,0.606,0.706c0.573-0.016,6.618-3.298,7.201-3.068c1.31,0.517,3.373,1.89,3.793,4.383 c0.403,2.357-0.953,3.998,0.383,6.902c0.472,1.026,1.373,4.003,0.577,4.003c-0.795,0-3.311-0.159-4.434-0.159 c-0.929,0-3.76,0.356-3.76,0.947c0,0.472,2.527,0.436,3.902,0.436c3.431,0,5.51,0.113,5.869-0.505 c0.387-0.666,0.456-5.001,2.2-5.111c0.625-0.039,2.915,3.645,5.179,4.452c1.54,0.549,3.422,0.634,4.156-0.116 c0.747-0.764,1.001-1.205,1.001-1.205S36.398,32.623,36.852,28.922z"/><path fill="#534e4d" d="M36.697,28.739c0.171-1.251,1.22-2.208,1.22-4.902c0-1.958-1.377-7.234-7.663-10.377 c-2.146-1.073-7.137-0.688-9.515-1.617c-1.871-0.731-4.244-4.239-6.089-4.439c-1.41-0.213-3.1-0.356-3.701-0.145 c-0.67,0.236-1.433,0.58-2.496,0.767c-1.063,0.187-1.836-0.03-1.826,0.531c0.009,0.516,0.624,2.678,2.396,3.22 c1.329,0.407,3.521-0.236,4.287,0.134c1.269,1.202,3.881,4.432,4.52,6.048c0.694,1.755-3.981,3.68-4.456,4.597 c-0.174,0.336,0.44,0.679,0.582,0.675c0.553-0.016,6.863-3.451,7.426-3.228c1.267,0.5,3.319,1.942,3.74,4.445 c0.389,2.278-1.101,3.885,0.25,6.934c0.442,0.997,1.372,4.135,0.603,4.135c-0.769,0-3.301-0.142-4.387-0.142 c-0.898,0-3.823,0.314-3.823,0.885c0,0.457,2.649,0.416,3.977,0.416c3.316,0,5.365,0.109,5.712-0.489 c0.374-0.644,0.46-5.242,2.277-5.348c0.604-0.035,2.786,3.686,5.043,4.575c1.469,0.578,3.438,0.706,4.156-0.009 c0.732-0.73,1.011-1.179,1.011-1.179S36.17,32.595,36.697,28.739z"/><path fill="#544f4e" d="M36.541,28.557c0.181-1.205,1.215-2.216,1.215-4.816c0-1.89-1.514-7.038-7.582-10.072 c-2.072-1.036-7.066-0.76-9.45-1.65c-1.833-0.685-4.333-4.331-6.114-4.524c-1.361-0.206-2.993-0.344-3.573-0.14 c-0.646,0.228-1.383,0.56-2.409,0.74c-1.026,0.18-1.772-0.029-1.763,0.513c0.009,0.498,0.603,2.585,2.313,3.108 c1.283,0.392,3.541-0.271,4.28,0.086c1.225,1.16,3.968,4.451,4.556,6.031c0.672,1.807-4.15,3.844-4.608,4.729 c-0.168,0.324,0.421,0.648,0.558,0.644c0.534-0.015,7.108-3.603,7.652-3.389c1.223,0.482,3.266,1.995,3.687,4.507 c0.374,2.2-1.244,3.771,0.118,6.967c0.412,0.967,1.371,4.267,0.629,4.267c-0.742,0-3.292-0.125-4.34-0.125 c-0.867,0-3.886,0.272-3.886,0.823c0,0.441,2.77,0.397,4.053,0.397c3.201,0,5.22,0.105,5.555-0.472 c0.361-0.622,0.464-5.483,2.354-5.585c0.583-0.032,2.659,3.725,4.908,4.698c1.4,0.606,3.455,0.779,4.156,0.098 c0.717-0.697,1.02-1.153,1.02-1.153S35.938,32.567,36.541,28.557z"/><path fill="#55504f" d="M36.386,28.374c0.19-1.158,1.21-2.223,1.21-4.73c0-1.822-1.651-6.843-7.5-9.768 c-1.997-0.999-6.994-0.833-9.384-1.683c-1.795-0.639-4.422-4.422-6.139-4.609c-1.312-0.199-2.885-0.332-3.444-0.135 c-0.623,0.22-1.333,0.54-2.323,0.714c-0.989,0.174-1.709-0.028-1.7,0.494c0.008,0.48,0.581,2.492,2.23,2.997 c1.237,0.378,3.562-0.306,4.274,0.038c1.181,1.119,4.054,4.47,4.592,6.014c0.648,1.859-4.319,4.007-4.76,4.861 c-0.162,0.312,0.402,0.617,0.534,0.613c0.515-0.015,7.353-3.755,7.877-3.549c1.179,0.465,3.212,2.047,3.633,4.568 c0.36,2.121-1.383,3.654-0.015,7c0.383,0.937,1.37,4.398,0.655,4.398s-3.282-0.109-4.293-0.109c-0.835,0-3.95,0.23-3.95,0.761 c0,0.425,2.891,0.378,4.128,0.378c3.086,0,5.075,0.101,5.398-0.455c0.348-0.599,0.467-5.725,2.43-5.823 c0.562-0.028,2.533,3.76,4.772,4.821c1.331,0.631,3.471,0.851,4.156,0.205c0.702-0.664,1.029-1.127,1.029-1.127 S35.701,32.537,36.386,28.374z"/><path fill="#565150" d="M36.23,28.192c0.199-1.111,1.205-2.23,1.205-4.644c0-1.754-1.787-6.648-7.419-9.464 c-1.923-0.961-6.922-0.906-9.319-1.716c-1.757-0.594-4.511-4.514-6.164-4.694c-1.263-0.191-2.778-0.319-3.316-0.13 c-0.6,0.211-1.283,0.52-2.236,0.687C8.029,8.399,7.336,8.205,7.345,8.708c0.008,0.462,0.559,2.399,2.147,2.885 c1.191,0.364,3.582-0.341,4.268-0.01c1.137,1.077,4.138,4.49,4.628,5.997c0.621,1.912-4.488,4.171-4.913,4.993 c-0.156,0.301,0.382,0.586,0.51,0.582c0.496-0.014,7.598-3.908,8.103-3.709c1.135,0.448,3.158,2.1,3.58,4.63 c0.345,2.042-1.517,3.536-0.148,7.033c0.355,0.907,1.369,4.53,0.681,4.53s-3.273-0.092-4.245-0.092 c-0.804,0-4.013,0.187-4.013,0.699c0,0.409,3.012,0.358,4.203,0.358c2.971,0,4.93,0.097,5.241-0.439 c0.335-0.577,0.471-5.967,2.507-6.06c0.541-0.025,2.409,3.791,4.636,4.945c1.264,0.655,3.488,0.924,4.156,0.311 c0.687-0.63,1.039-1.101,1.039-1.101S35.458,32.506,36.23,28.192z"/><path fill="#575251" d="M36.075,28.009c0.207-1.065,1.2-2.238,1.2-4.558c0-1.686-1.924-6.453-7.338-9.159 c-1.848-0.924-6.85-0.981-9.253-1.749c-1.718-0.549-4.6-4.606-6.19-4.779c-1.214-0.184-2.67-0.307-3.187-0.125 c-0.577,0.203-1.234,0.5-2.15,0.661C8.242,8.462,7.577,8.275,7.585,8.758c0.008,0.444,0.538,2.306,2.064,2.773 c1.145,0.35,3.602-0.377,4.261-0.058c1.093,1.035,4.221,4.51,4.663,5.981c0.592,1.966-4.657,4.335-5.065,5.125 c-0.15,0.289,0.363,0.555,0.486,0.551c0.477-0.014,7.843-4.06,8.328-3.869c1.091,0.43,3.104,2.152,3.527,4.692 c0.331,1.963-1.645,3.417-0.28,7.066c0.328,0.877,1.369,4.662,0.707,4.662c-0.662,0-3.263-0.075-4.198-0.075 c-0.773,0-4.076,0.145-4.076,0.637c0,0.393,3.134,0.339,4.278,0.339c2.856,0,4.785,0.093,5.084-0.422 c0.322-0.555,0.475-6.211,2.584-6.297c0.52-0.021,2.288,3.818,4.5,5.068c1.197,0.677,3.505,0.997,4.156,0.418 c0.672-0.597,1.048-1.075,1.048-1.075S35.209,32.474,36.075,28.009z"/><path fill="#585351" d="M35.92,27.827c0.214-1.02,1.195-2.245,1.195-4.471c0-1.618-2.061-6.257-7.256-8.855 c-1.774-0.887-6.777-1.057-9.188-1.782c-1.68-0.505-4.689-4.698-6.215-4.863c-1.165-0.176-2.563-0.295-3.059-0.12 c-0.553,0.195-1.184,0.48-2.063,0.634c-0.879,0.154-1.518-0.025-1.51,0.439c0.007,0.426,0.516,2.213,1.981,2.661 c1.098,0.336,3.622-0.412,4.255-0.106c1.049,0.994,4.302,4.53,4.699,5.964c0.56,2.02-4.826,4.499-5.218,5.257 c-0.144,0.278,0.344,0.524,0.462,0.52c0.457-0.013,8.088-4.213,8.554-4.029c1.047,0.413,3.051,2.204,3.473,4.754 c0.317,1.884-1.767,3.296-0.413,7.099c0.302,0.847,1.368,4.793,0.732,4.793s-3.254-0.059-4.151-0.059 c-0.742,0-4.14,0.103-4.14,0.575c0,0.377,3.255,0.32,4.353,0.32c2.741,0,4.64,0.089,4.927-0.405 c0.309-0.532,0.478-6.456,2.661-6.534c0.499-0.018,2.171,3.842,4.364,5.191c1.133,0.697,3.521,1.069,4.156,0.525 c0.657-0.564,1.058-1.049,1.058-1.049S34.953,32.439,35.92,27.827z"/><path fill="#595452" d="M35.764,27.645c0.22-0.974,1.19-2.252,1.19-4.385c0-1.55-2.197-6.062-7.175-8.551 c-1.699-0.85-6.705-1.134-9.122-1.815c-1.641-0.462-4.778-4.789-6.24-4.948c-1.117-0.169-2.455-0.282-2.931-0.115 c-0.53,0.187-1.134,0.46-1.976,0.607C8.669,8.586,8.057,8.414,8.065,8.859c0.007,0.408,0.494,2.121,1.897,2.55 c1.052,0.322,3.643-0.447,4.249-0.154c1.005,0.952,4.382,4.55,4.735,5.947c0.524,2.074-4.994,4.662-5.37,5.389 c-0.138,0.266,0.325,0.492,0.438,0.489c0.438-0.013,8.333-4.365,8.779-4.189c1.003,0.396,2.997,2.257,3.42,4.816 c0.302,1.805-1.882,3.172-0.546,7.132c0.276,0.817,1.367,4.925,0.758,4.925c-0.609,0-3.244-0.042-4.104-0.042 c-0.711,0-4.203,0.061-4.203,0.513c0,0.362,3.376,0.3,4.429,0.3c2.626,0,4.495,0.085,4.77-0.388 c0.296-0.51,0.482-6.702,2.738-6.771c0.479-0.015,2.057,3.861,4.228,5.315c1.07,0.716,3.538,1.142,4.156,0.632 c0.643-0.53,1.067-1.023,1.067-1.023S34.688,32.402,35.764,27.645z"/><path fill="#5a5553" d="M35.609,27.462c0.226-0.93,1.186-2.259,1.186-4.299c0-1.482-2.334-5.867-7.093-8.247 c-1.625-0.812-6.632-1.212-9.057-1.848c-1.602-0.42-4.867-4.881-6.265-5.033c-1.068-0.162-2.348-0.27-2.802-0.11 c-0.507,0.179-1.085,0.439-1.89,0.581c-0.805,0.141-1.39-0.023-1.383,0.402c0.007,0.391,0.473,2.028,1.814,2.438 c1.006,0.308,3.663-0.483,4.242-0.203c0.961,0.91,4.461,4.57,4.771,5.93c0.485,2.129-5.163,4.826-5.522,5.521 c-0.131,0.254,0.306,0.461,0.414,0.458c0.419-0.012,8.578-4.517,9.004-4.349c0.959,0.378,2.943,2.309,3.367,4.877 c0.288,1.726-1.989,3.048-0.679,7.165c0.251,0.787,1.366,5.056,0.784,5.056c-0.582,0-3.235-0.026-4.057-0.026 c-0.68,0-4.266,0.019-4.266,0.451c0,0.346,3.498,0.281,4.504,0.281c2.511,0,4.35,0.081,4.613-0.372 c0.283-0.488,0.486-6.949,2.814-7.008c0.458-0.012,1.948,3.876,4.092,5.438c1.009,0.735,3.555,1.215,4.157,0.739 c0.628-0.497,1.077-0.997,1.077-0.997S34.416,32.362,35.609,27.462z"/><path fill="#5b5654" d="M35.453,27.28c0.232-0.885,1.181-2.267,1.181-4.213c0-1.414-2.471-5.672-7.012-7.942 c-1.55-0.775-6.559-1.292-8.991-1.881c-1.563-0.379-4.957-4.973-6.29-5.118c-1.019-0.154-2.24-0.258-2.674-0.105 c-0.484,0.171-1.035,0.419-1.803,0.554C9.096,8.71,8.537,8.554,8.544,8.959c0.006,0.373,0.451,1.935,1.731,2.326 c0.96,0.294,3.683-0.518,4.236-0.251c0.917,0.869,4.538,4.589,4.807,5.913c0.443,2.184-5.332,4.99-5.675,5.653 c-0.125,0.243,0.287,0.43,0.39,0.427c0.4-0.011,8.823-4.67,9.23-4.509c0.915,0.361,2.889,2.362,3.313,4.939 c0.273,1.647-2.086,2.921-0.811,7.197c0.226,0.757,1.365,5.188,0.81,5.188s-3.225-0.009-4.01-0.009c-0.649,0-4.33-0.023-4.33,0.39 c0,0.33,3.619,0.262,4.579,0.262c2.396,0,4.205,0.077,4.456-0.355c0.27-0.465,0.489-7.198,2.891-7.245 c0.437-0.009,1.844,3.888,3.956,5.561c0.95,0.752,3.572,1.289,4.157,0.846c0.614-0.462,1.086-0.971,1.086-0.971 S34.133,32.318,35.453,27.28z"/><path fill="#5c5755" d="M35.298,27.097c0.237-0.842,1.176-2.274,1.176-4.127c0-1.346-2.607-5.476-6.931-7.638 c-1.476-0.738-6.485-1.373-8.926-1.914c-1.524-0.338-5.046-5.064-6.315-5.202c-0.97-0.147-2.132-0.245-2.545-0.1 c-0.46,0.162-0.985,0.399-1.717,0.528C9.309,8.772,8.778,8.623,8.784,9.009c0.006,0.355,0.429,1.842,1.648,2.215 c0.914,0.28,3.703-0.553,4.23-0.299c0.873,0.827,4.615,4.608,4.843,5.897c0.396,2.238-5.501,5.154-5.827,5.785 c-0.119,0.231,0.268,0.399,0.366,0.396c0.381-0.011,9.068-4.822,9.455-4.669c0.871,0.344,2.835,2.414,3.26,5.001 c0.259,1.568-2.173,2.793-0.944,7.23c0.202,0.728,1.364,5.32,0.836,5.32c-0.529,0-3.216,0.008-3.962,0.008 c-0.617,0-4.393-0.066-4.393,0.328c0,0.314,3.74,0.242,4.654,0.242c2.281,0,4.06,0.073,4.299-0.338 c0.257-0.443,0.493-7.449,2.968-7.482c0.416-0.006,1.747,3.896,3.82,5.685c0.893,0.77,3.589,1.361,4.157,0.952 c0.599-0.429,1.095-0.945,1.095-0.945S33.839,32.27,35.298,27.097z"/><path fill="#5d5856" d="M35.143,26.915c0.242-0.799,1.171-2.281,1.171-4.04c0-1.278-2.744-5.281-6.849-7.334 c-1.402-0.701-6.412-1.457-8.86-1.947c-1.486-0.298-5.135-5.156-6.34-5.287c-0.921-0.139-2.025-0.233-2.417-0.094 c-0.437,0.154-0.936,0.379-1.63,0.501C9.522,8.835,9.018,8.693,9.024,9.06c0.006,0.337,0.408,1.749,1.565,2.103 c0.868,0.265,3.724-0.588,4.223-0.347c0.829,0.785,4.69,4.626,4.878,5.88c0.345,2.293-5.67,5.318-5.98,5.917 c-0.113,0.219,0.249,0.368,0.342,0.365c0.361-0.01,9.313-4.975,9.681-4.83c0.827,0.326,2.782,2.467,3.207,5.063 c0.245,1.49-2.248,2.663-1.077,7.263c0.178,0.699,1.364,5.451,0.861,5.451s-3.206,0.024-3.915,0.024 c-0.586,0-4.456-0.108-4.456,0.266c0,0.298,3.861,0.223,4.729,0.223c2.166,0,3.915,0.069,4.142-0.322 c0.244-0.421,0.497-7.701,3.045-7.719c0.395-0.003,1.656,3.901,3.685,5.808c0.838,0.788,3.605,1.434,4.157,1.059 c0.584-0.395,1.105-0.919,1.105-0.919S33.533,32.217,35.143,26.915z"/><path fill="#5e5957" d="M34.987,26.732c0.247-0.756,1.166-2.288,1.166-3.954c0-1.211-2.881-5.086-6.768-7.029 c-1.327-0.664-6.339-1.542-8.795-1.98c-1.447-0.258-5.224-5.248-6.365-5.372c-0.872-0.132-1.917-0.22-2.289-0.089 c-0.414,0.146-0.886,0.359-1.543,0.474C9.736,8.897,9.258,8.763,9.264,9.11c0.006,0.319,0.386,1.656,1.482,1.991 c0.822,0.251,3.744-0.624,4.217-0.395c0.785,0.743,4.764,4.643,4.914,5.863c0.289,2.347-5.839,5.481-6.132,6.048 c-0.107,0.208,0.23,0.337,0.317,0.334c0.342-0.01,9.558-5.127,9.906-4.99c0.783,0.309,2.728,2.519,3.153,5.125 c0.23,1.411-2.309,2.532-1.209,7.296c0.155,0.671,1.363,5.583,0.887,5.583s-3.197,0.041-3.868,0.041c-0.555,0-4.52-0.15-4.52,0.204 c0,0.282,3.983,0.204,4.805,0.204c2.051,0,3.77,0.065,3.985-0.305c0.231-0.398,0.5-7.957,3.122-7.957 c0.375,0,1.572,3.904,3.549,5.931c0.786,0.806,3.622,1.506,4.157,1.166c0.569-0.362,1.114-0.893,1.114-0.893 S33.213,32.157,34.987,26.732z"/></g><radialGradient id="e5WNtFw7HjbI3M5Jug9bvc" cx="14.048" cy="8.56" r="4.52" gradientUnits="userSpaceOnUse"><stop offset=".001" stop-color="#8f6550"/><stop offset=".119" stop-color="#946a56"/><stop offset=".274" stop-color="#a47a66"/><stop offset=".449" stop-color="#bd9381"/><stop offset=".59" stop-color="#d6ad9c"/><stop offset="1" stop-color="#ebc7bc"/></radialGradient><path fill="url(#e5WNtFw7HjbI3M5Jug9bvc)" d="M14.688,10.383c-0.229-1.174-0.879-3.141-0.567-4.188c0.247-0.828,0.837-1.238,1.523-1.152	s1.528,0.771,1.478,1.635s-0.378,1.758-0.986,2.436C15.528,9.793,14.688,10.383,14.688,10.383z"/><radialGradient id="e5WNtFw7HjbI3M5Jug9bvd" cx="-69.333" cy="62.146" r=".79" gradientTransform="rotate(-57.049 -79.102 -37.605)" gradientUnits="userSpaceOnUse"><stop offset="0" stop-color="#dbd2c6"/><stop offset=".061" stop-color="#d3cbbf"/><stop offset=".156" stop-color="#beb6ab"/><stop offset=".272" stop-color="#9a948c"/><stop offset=".403" stop-color="#6a6660"/><stop offset=".406" stop-color="#64615b"/><stop offset=".433" stop-color="#393734"/><stop offset=".457" stop-color="#1a1917"/><stop offset=".477" stop-color="#070706"/><stop offset=".492"/></radialGradient><path fill="url(#e5WNtFw7HjbI3M5Jug9bvd)" d="M10.213,7.855c0.481,0.148,0.729,0.731,0.627,1.063c-0.102,0.332-0.516,0.288-0.997,0.14	C9.361,8.908,8.995,8.712,9.097,8.38S9.732,7.706,10.213,7.855z"/></svg>