<svg xmlns="http://www.w3.org/2000/svg" viewBox="0 0 48 48"><radialGradient id="pkQzHG42f_8A0mGa2kHD4a" cx="23.855" cy="20" r="21.823" gradientTransform="matrix(-1 0 0 1.0092 48 -.185)" gradientUnits="userSpaceOnUse"><stop offset="0" stop-color="#9c8573"/><stop offset=".497" stop-color="#816c5b"/><stop offset="1" stop-color="#614e3e"/></radialGradient><path fill="url(#pkQzHG42f_8A0mGa2kHD4a)" d="M24,5c11.046,0,19,8.059,19,18c0,4.932-0.436,16-3,16c-6.894,0-9.413,4-16,4	c-5.587,0-8.106-4-16-4c-2.564,0-3-11.068-3-16C5,13.059,12.954,5,24,5z"/><radialGradient id="pkQzHG42f_8A0mGa2kHD4b" cx="33.212" cy="23.257" r="6.2" gradientTransform="matrix(1 0 0 .905 0 2.21)" gradientUnits="userSpaceOnUse"><stop offset="0" stop-color="#3b2d22"/><stop offset="1" stop-color="#3b2d22" stop-opacity="0"/></radialGradient><circle cx="33.212" cy="23.257" r="5.893" fill="url(#pkQzHG42f_8A0mGa2kHD4b)"/><radialGradient id="pkQzHG42f_8A0mGa2kHD4c" cx="23.926" cy="27.097" r="6.2" gradientTransform="matrix(1.4048 0 0 .9171 -9.61 2.182)" gradientUnits="userSpaceOnUse"><stop offset=".623" stop-color="#3b2d22"/><stop offset="1" stop-color="#3b2d22" stop-opacity="0"/></radialGradient><ellipse cx="24" cy="27.032" fill="url(#pkQzHG42f_8A0mGa2kHD4c)" rx="8.278" ry="5.971"/><radialGradient id="pkQzHG42f_8A0mGa2kHD4d" cx="33.212" cy="23.257" r="6.2" gradientTransform="matrix(-1 0 0 .905 48 2.21)" gradientUnits="userSpaceOnUse"><stop offset="0" stop-color="#3b2d22"/><stop offset="1" stop-color="#3b2d22" stop-opacity="0"/></radialGradient><circle cx="14.788" cy="23.257" r="5.893" fill="url(#pkQzHG42f_8A0mGa2kHD4d)"/><radialGradient id="pkQzHG42f_8A0mGa2kHD4e" cx="24.083" cy="23.847" r="16.484" gradientTransform="matrix(1 0 0 .7626 0 5.31)" gradientUnits="userSpaceOnUse"><stop offset="0" stop-color="#ecddbe"/><stop offset=".196" stop-color="#e8d8ba"/><stop offset=".419" stop-color="#dbcaae"/><stop offset=".657" stop-color="#c6b49b"/><stop offset=".903" stop-color="#a99480"/><stop offset="1" stop-color="#9c8573"/></radialGradient><path fill="url(#pkQzHG42f_8A0mGa2kHD4e)" d="M33.405,20C36.645,20,39,23,39,23s-1.025-9.048-15-9.048S9,23,9,23s2.355-3,5.595-3	c1.388,0,3.702,1.123,3.702,3.495c0,4.339-7.867,2.198-7.867,7.115c0,4.454,7.983,6.999,13.57,6.999s13.57-2.545,13.57-6.999	c0-4.917-7.867-2.777-7.867-7.115C29.703,21.123,32.017,20,33.405,20z M30.414,29C30.803,29,31,29.407,31,29.948	C31,30.488,28.915,33,24,33s-7-2.512-7-3.052C17,29.407,17.197,29,17.586,29c0.779,0,2.218,1.302,6.414,1.302S29.634,29,30.414,29z"/><radialGradient id="pkQzHG42f_8A0mGa2kHD4f" cx="24.049" cy="28.827" r="9.202" gradientUnits="userSpaceOnUse"><stop offset="0" stop-color="#3b2d22" stop-opacity=".6"/><stop offset="1" stop-color="#3b2d22" stop-opacity="0"/></radialGradient><path fill="url(#pkQzHG42f_8A0mGa2kHD4f)" d="M24,19c-2.5,0-4.5,6.742-4.5,7.275c0,2.556,2.25,1.132,4.5,1.132s4.5,1.425,4.5-1.132	C28.5,25.742,26.5,19,24,19z"/><radialGradient id="pkQzHG42f_8A0mGa2kHD4g" cx="24.067" cy="25.854" r="4.054" gradientTransform="matrix(1 0 0 1.3455 0 -8.932)" gradientUnits="userSpaceOnUse"><stop offset="0" stop-color="#2e2b2a"/><stop offset=".399" stop-color="#322f2e"/><stop offset=".803" stop-color="#3e3a39"/><stop offset="1" stop-color="#474241"/></radialGradient><path fill="url(#pkQzHG42f_8A0mGa2kHD4g)" d="M24,27c-2.5,0-4.5-1.258-4.5-0.725c0,2.556,1.147,2.627,1.605,2.99	c0.443,0.353,0.645,1.142,2.895,1.142s2.452-0.789,2.895-1.142c0.457-0.363,1.605-0.434,1.605-2.99C28.5,25.742,26.5,27,24,27z"/><radialGradient id="pkQzHG42f_8A0mGa2kHD4h" cx="26.158" cy="28.417" r=".622" gradientUnits="userSpaceOnUse"><stop offset="0" stop-color="#0f0f0f"/><stop offset=".91" stop-color="#111" stop-opacity=".09"/><stop offset="1" stop-color="#121212" stop-opacity="0"/></radialGradient><path fill="url(#pkQzHG42f_8A0mGa2kHD4h)" d="M26,29c-0.276,0-0.5-0.224-0.5-0.5S25.724,28,26,28c0.138,0,0.71-0.237,0.8-0.146	C26.891,27.944,26.598,29,26,29z"/><radialGradient id="pkQzHG42f_8A0mGa2kHD4i" cx="26.158" cy="28.417" r=".622" gradientTransform="matrix(-1 0 0 1 48 0)" gradientUnits="userSpaceOnUse"><stop offset="0" stop-color="#0f0f0f"/><stop offset=".91" stop-color="#111" stop-opacity=".09"/><stop offset="1" stop-color="#121212" stop-opacity="0"/></radialGradient><path fill="url(#pkQzHG42f_8A0mGa2kHD4i)" d="M22,29c0.276,0,0.5-0.224,0.5-0.5S22.276,28,22,28c-0.138,0-0.71-0.237-0.8-0.146	C21.109,27.944,21.402,29,22,29z"/><radialGradient id="pkQzHG42f_8A0mGa2kHD4j" cx="34.889" cy="31.158" r="12.528" gradientTransform="matrix(1.0478 0 0 .983 -1.12 .34)" gradientUnits="userSpaceOnUse"><stop offset=".495" stop-color="#a35e00" stop-opacity="0"/><stop offset="1" stop-color="#a35e00"/></radialGradient><path fill="url(#pkQzHG42f_8A0mGa2kHD4j)" d="M39.065,23.703c0,2.641-2.283,4.783-5.098,4.783s-5.098-2.483-5.098-5.124	c0-2.315,1.48-4.442,4.699-4.442C35.949,18.92,39.065,21.4,39.065,23.703z"/><radialGradient id="pkQzHG42f_8A0mGa2kHD4k" cx="34.889" cy="31.158" r="12.528" gradientTransform="matrix(-1.0478 0 0 .983 49.12 .34)" gradientUnits="userSpaceOnUse"><stop offset=".495" stop-color="#a35e00" stop-opacity="0"/><stop offset="1" stop-color="#a35e00"/></radialGradient><path fill="url(#pkQzHG42f_8A0mGa2kHD4k)" d="M8.935,23.703c0,2.641,2.283,4.783,5.098,4.783s5.098-2.483,5.098-5.124	c0-2.315-1.48-4.442-4.699-4.442C12.051,18.92,8.935,21.4,8.935,23.703z"/><radialGradient id="pkQzHG42f_8A0mGa2kHD4l" cx="33.452" cy="23.095" r="1.9" gradientTransform="matrix(.8471 0 0 1.1043 5.211 -2.55)" gradientUnits="userSpaceOnUse"><stop offset=".318"/><stop offset=".328" stop-color="#040301"/><stop offset=".337" stop-color="#100c03"/><stop offset=".347" stop-color="#241b08"/><stop offset=".356" stop-color="#41300e"/><stop offset=".366" stop-color="#654a16"/><stop offset=".369" stop-color="#755619"/><stop offset=".5" stop-color="#6d5017"/><stop offset=".705" stop-color="#563f12"/><stop offset=".958" stop-color="#322409"/><stop offset="1" stop-color="#2b1f07"/></radialGradient><path fill="url(#pkQzHG42f_8A0mGa2kHD4l)" d="M33.432,21.252c-0.768,0-1.478,0.7-1.703,1.193c-0.004,0.043-0.01,0.093-0.01,0.128	c0,1.345,0.796,2.251,1.698,2.251c0.891,0,1.963-0.856,1.963-2.537c0-0.186-0.038-0.322-0.077-0.456	C34.743,21.341,33.966,21.252,33.432,21.252z"/><ellipse cx="33.077" cy="22.492" fill="#bababa" rx=".405" ry=".4"/><radialGradient id="pkQzHG42f_8A0mGa2kHD4m" cx="33.452" cy="23.095" r="1.9" gradientTransform="matrix(-.8471 0 0 1.1043 42.789 -2.55)" gradientUnits="userSpaceOnUse"><stop offset=".318"/><stop offset=".328" stop-color="#040301"/><stop offset=".337" stop-color="#100c03"/><stop offset=".347" stop-color="#241b08"/><stop offset=".356" stop-color="#41300e"/><stop offset=".366" stop-color="#654a16"/><stop offset=".369" stop-color="#755619"/><stop offset=".5" stop-color="#6d5017"/><stop offset=".705" stop-color="#563f12"/><stop offset=".958" stop-color="#322409"/><stop offset="1" stop-color="#2b1f07"/></radialGradient><path fill="url(#pkQzHG42f_8A0mGa2kHD4m)" d="M14.568,21.252c0.768,0,1.478,0.7,1.703,1.193c0.004,0.043,0.01,0.093,0.01,0.128	c0,1.345-0.796,2.251-1.698,2.251c-0.891,0-1.963-0.856-1.963-2.537c0-0.186,0.038-0.322,0.077-0.456	C13.257,21.341,14.034,21.252,14.568,21.252z"/><ellipse cx="14.021" cy="22.492" fill="#bababa" rx=".405" ry=".4"/></svg>