<svg xmlns="http://www.w3.org/2000/svg" viewBox="0 0 48 48"><path fill="#6e3c15" d="M27.168,17.652l4.447,1.228c0.308,0.085,0.488,0.403,0.403,0.711c-0.08,0.29-0.37,0.466-0.66,0.415 l-4.54-0.822c-0.427-0.077-0.711-0.486-0.634-0.914c0.077-0.427,0.486-0.711,0.914-0.634 C27.122,17.64,27.146,17.646,27.168,17.652z"/><path fill="#6e3c15" d="M34.246,19.999l-2.747-0.144c-0.229-0.012-0.405-0.207-0.393-0.436 c0.011-0.205,0.169-0.368,0.367-0.391l2.732-0.313c0.353-0.041,0.673,0.213,0.713,0.567c0.04,0.353-0.213,0.673-0.567,0.713 C34.318,20,34.28,20.001,34.246,19.999z"/><path fill="#6e3c15" d="M34.193,19.023l1.922-0.396c0.293-0.06,0.579,0.128,0.639,0.421 c0.06,0.293-0.128,0.579-0.421,0.639c-0.036,0.007-0.075,0.011-0.111,0.011l-1.962-0.006c-0.187-0.001-0.337-0.152-0.337-0.339 C33.923,19.191,34.039,19.055,34.193,19.023z"/><path fill="#6e3c15" d="M36.086,18.837l1.562-0.603c0.279-0.108,0.593,0.031,0.701,0.311 c0.108,0.279-0.031,0.593-0.311,0.701c-0.041,0.016-0.085,0.027-0.127,0.032l-1.661,0.211c-0.185,0.024-0.355-0.108-0.378-0.293 C35.852,19.038,35.944,18.892,36.086,18.837z"/><path fill="#6e3c15" d="M39.773,18.961c-0.264-0.21-0.589-0.277-0.914-0.236c-0.319,0.041-0.66,0.174-0.918,0.337 l-0.011,0.007c-0.162,0.102-0.377,0.053-0.479-0.109c-0.102-0.162-0.053-0.377,0.109-0.479c0.018-0.011,0.039-0.021,0.058-0.029 c0.412-0.162,0.805-0.234,1.232-0.217c0.421,0.019,0.855,0.201,1.127,0.52c0.052,0.061,0.045,0.153-0.017,0.205 C39.906,19.005,39.826,19.003,39.773,18.961z"/><path fill="#6e3c15" d="M27.475,19.337l4.546,2.651c0.276,0.161,0.369,0.514,0.208,0.79 c-0.153,0.262-0.481,0.358-0.749,0.229l-4.741-2.283c-0.391-0.188-0.555-0.658-0.367-1.049c0.188-0.391,0.658-0.555,1.049-0.367 C27.439,19.317,27.458,19.327,27.475,19.337z"/><path fill="#6e3c15" d="M34.378,23.822l-2.729-0.924c-0.217-0.073-0.333-0.309-0.26-0.526 c0.066-0.196,0.265-0.31,0.462-0.276l2.841,0.48c0.351,0.059,0.587,0.392,0.528,0.742c-0.059,0.351-0.392,0.587-0.742,0.528 C34.444,23.842,34.409,23.833,34.378,23.822z"/><path fill="#6e3c15" d="M34.521,22.864l2.477-0.306c0.296-0.037,0.566,0.174,0.602,0.47 c0.037,0.296-0.174,0.566-0.47,0.602c-0.028,0.004-0.06,0.005-0.087,0.004l-2.494-0.099c-0.186-0.007-0.331-0.164-0.324-0.35 C34.232,23.018,34.36,22.884,34.521,22.864z"/><path fill="#6e3c15" d="M36.931,22.773l1.917-0.741c0.279-0.108,0.592,0.031,0.7,0.309c0.108,0.279-0.031,0.592-0.309,0.7 c-0.033,0.013-0.069,0.022-0.103,0.028l-2.025,0.352c-0.184,0.032-0.359-0.091-0.391-0.275 C36.692,22.984,36.784,22.829,36.931,22.773z"/><path fill="#6e3c15" d="M40.724,23.901c-0.175-0.319-0.449-0.56-0.768-0.722c-0.313-0.159-0.689-0.261-1.015-0.288 l-0.014-0.001c-0.191-0.015-0.333-0.183-0.318-0.374c0.015-0.191,0.183-0.334,0.374-0.318c0.02,0.002,0.041,0.005,0.06,0.01 c0.448,0.117,0.822,0.299,1.177,0.557c0.347,0.257,0.634,0.615,0.772,1.023c0.026,0.076-0.015,0.159-0.091,0.184 C40.833,23.995,40.758,23.961,40.724,23.901z"/><path fill="#6e3c15" d="M27.995,21.838l4.366,4.303c0.227,0.224,0.23,0.589,0.006,0.817 c-0.214,0.217-0.559,0.228-0.788,0.032l-4.648-3.997c-0.329-0.283-0.366-0.779-0.083-1.108c0.283-0.329,0.779-0.366,1.108-0.083 C27.969,21.813,27.983,21.826,27.995,21.838z"/><path fill="#6e3c15" d="M34.8,28.852l-3.029-1.924c-0.193-0.123-0.25-0.379-0.128-0.572c0.113-0.178,0.34-0.24,0.526-0.153 l3.249,1.524c0.322,0.151,0.46,0.534,0.309,0.856c-0.151,0.322-0.534,0.46-0.856,0.309C34.848,28.88,34.822,28.866,34.8,28.852z"/><path fill="#6e3c15" d="M35.206,27.968l2.425,0.52c0.292,0.063,0.477,0.35,0.415,0.641 c-0.063,0.292-0.35,0.477-0.641,0.415c-0.028-0.006-0.058-0.015-0.084-0.025l-2.308-0.907c-0.173-0.068-0.259-0.264-0.19-0.437 C34.883,28.018,35.047,27.934,35.206,27.968z"/><path fill="#6e3c15" d="M37.484,28.667l2.17-0.143c0.298-0.02,0.555,0.206,0.575,0.504c0.02,0.298-0.206,0.555-0.504,0.575 c-0.033,0.002-0.069,0.001-0.101-0.003l-2.159-0.262c-0.185-0.022-0.317-0.191-0.294-0.376 C37.191,28.799,37.326,28.677,37.484,28.667z"/><path fill="#6e3c15" d="M41.722,29.937c-0.204-0.319-0.539-0.498-0.908-0.564c-0.363-0.068-0.775-0.046-1.121,0.03 l-0.015,0.003c-0.187,0.041-0.372-0.077-0.413-0.265s0.078-0.372,0.265-0.413c0.018-0.004,0.038-0.007,0.056-0.008 c0.481-0.025,0.919,0.027,1.362,0.18c0.436,0.148,0.85,0.468,1.032,0.903c0.031,0.074-0.004,0.159-0.078,0.19 C41.836,30.023,41.759,29.995,41.722,29.937z"/><path fill="#6e3c15" d="M27.964,24.771l3.97,5.959c0.177,0.265,0.105,0.624-0.16,0.801 c-0.255,0.17-0.598,0.109-0.781-0.133l-4.31-5.718c-0.261-0.347-0.192-0.839,0.155-1.1c0.347-0.261,0.839-0.192,1.1,0.155 C27.946,24.745,27.956,24.759,27.964,24.771z"/><path fill="#6e3c15" d="M34.457,34.8l-3.279-3.436c-0.158-0.165-0.152-0.427,0.014-0.585 c0.155-0.148,0.397-0.151,0.556-0.014l3.594,3.105c0.269,0.232,0.298,0.638,0.066,0.907s-0.638,0.298-0.907,0.066 C34.486,34.829,34.471,34.814,34.457,34.8z"/><path fill="#6e3c15" d="M35.051,34.035l2.272,0.922c0.276,0.112,0.41,0.427,0.297,0.704 c-0.112,0.276-0.427,0.41-0.704,0.297c-0.027-0.011-0.055-0.026-0.08-0.04l-2.089-1.283c-0.159-0.097-0.208-0.305-0.111-0.464 C34.725,34.028,34.901,33.974,35.051,34.035z"/><path fill="#6e3c15" d="M37.203,35.124l2.61,0.807c0.285,0.088,0.444,0.39,0.356,0.675s-0.39,0.444-0.675,0.356 c-0.025-0.008-0.052-0.018-0.074-0.029l-2.462-1.184c-0.168-0.081-0.238-0.282-0.158-0.45 C36.873,35.147,37.046,35.075,37.203,35.124z"/><path fill="#6e3c15" d="M41.726,37.931c-0.225-0.367-0.56-0.642-0.943-0.827c-0.377-0.182-0.819-0.298-1.212-0.329 l-0.016-0.001c-0.191-0.015-0.333-0.182-0.318-0.373s0.182-0.333,0.373-0.318c0.017,0.001,0.035,0.004,0.051,0.008 c0.513,0.119,0.953,0.314,1.371,0.591c0.411,0.277,0.761,0.664,0.954,1.121c0.031,0.074-0.003,0.159-0.077,0.19 C41.842,38.021,41.763,37.991,41.726,37.931z"/><radialGradient id="mk59jgqQ0ZXa2FdTeQGlBa" cx="-263.738" cy="33.15" r="2.831" gradientTransform="matrix(1 0 0 -.5938 288.544 32.637)" gradientUnits="userSpaceOnUse"><stop offset="0" stop-color="#db9056"/><stop offset=".044" stop-color="#cb844d"/><stop offset=".145" stop-color="#ac6c3b"/><stop offset=".256" stop-color="#92582c"/><stop offset=".378" stop-color="#7f4920"/><stop offset=".518" stop-color="#713e18"/><stop offset=".691" stop-color="#683813"/><stop offset=".994" stop-color="#663612"/></radialGradient><path fill="url(#mk59jgqQ0ZXa2FdTeQGlBa)" d="M26,14.781c0,0.492-1.224,0-1.5,0S24.224,13,24.5,13S26,14.289,26,14.781z"/><radialGradient id="mk59jgqQ0ZXa2FdTeQGlBb" cx="41.349" cy="33.15" r="2.831" gradientTransform="matrix(-1 0 0 -.5938 64.544 32.637)" gradientUnits="userSpaceOnUse"><stop offset="0" stop-color="#db9056"/><stop offset=".044" stop-color="#cb844d"/><stop offset=".145" stop-color="#ac6c3b"/><stop offset=".256" stop-color="#92582c"/><stop offset=".378" stop-color="#7f4920"/><stop offset=".518" stop-color="#713e18"/><stop offset=".691" stop-color="#683813"/><stop offset=".994" stop-color="#663612"/></radialGradient><path fill="url(#mk59jgqQ0ZXa2FdTeQGlBb)" d="M22,14.781c0,0.492,1.224,0,1.5,0S23.776,13,23.5,13S22,14.289,22,14.781z"/><radialGradient id="mk59jgqQ0ZXa2FdTeQGlBc" cx="-257.26" cy="41.776" r="3.311" gradientTransform="matrix(1 0 0 -1 288.215 75.177)" gradientUnits="userSpaceOnUse"><stop offset=".119" stop-color="#db9056"/><stop offset=".994" stop-color="#663612"/></radialGradient><path fill="url(#mk59jgqQ0ZXa2FdTeQGlBc)" d="M32.308,36.984c-0.235,0.794-0.749,0.277-1.025,0.277s-1.524-1.939-0.582-3.767	C30.674,34.713,32.668,35.765,32.308,36.984z"/><radialGradient id="mk59jgqQ0ZXa2FdTeQGlBd" cx="25.96" cy="68.989" r="2.704" gradientTransform="matrix(-.8 0 0 -1.6211 52.257 151.748)" gradientUnits="userSpaceOnUse"><stop offset=".119" stop-color="#db9056"/><stop offset=".994" stop-color="#663612"/></radialGradient><path fill="url(#mk59jgqQ0ZXa2FdTeQGlBd)" d="M33,39c0-1.671-0.3-2.356-1.5-3c-1.2,0.644-1.5,1.329-1.5,3s0.3,3,1.5,3S33,40.671,33,39z"/><radialGradient id="mk59jgqQ0ZXa2FdTeQGlBe" cx="26.658" cy="65.444" r="2.975" gradientTransform="rotate(-135.001 19.042 57.856) scale(.8 1.1639)" gradientUnits="userSpaceOnUse"><stop offset=".119" stop-color="#db9056"/><stop offset=".994" stop-color="#663612"/></radialGradient><path fill="url(#mk59jgqQ0ZXa2FdTeQGlBe)" d="M32.062,43.957c0.934-0.934,1.083-1.549,0.509-2.842c-1.293-0.574-1.909-0.425-2.842,0.509	s-1.442,1.909-0.509,2.842C30.153,45.399,31.128,44.89,32.062,43.957z"/><radialGradient id="mk59jgqQ0ZXa2FdTeQGlBf" cx="24.924" cy="60.579" r="2.975" gradientTransform="matrix(0 -.8 1.2239 0 -46.596 64.277)" gradientUnits="userSpaceOnUse"><stop offset=".119" stop-color="#db9056"/><stop offset=".994" stop-color="#663612"/></radialGradient><path fill="url(#mk59jgqQ0ZXa2FdTeQGlBf)" d="M28.306,46c1.388,0,1.957-0.33,2.492-1.65c-0.535-1.32-1.104-1.65-2.492-1.65	s-2.492,0.33-2.492,1.65S26.918,46,28.306,46z"/><radialGradient id="mk59jgqQ0ZXa2FdTeQGlBg" cx="24.524" cy="61.891" r="2.975" gradientTransform="matrix(.5657 -.5657 .8619 .8619 -42.559 2.928)" gradientUnits="userSpaceOnUse"><stop offset=".119" stop-color="#db9056"/><stop offset=".994" stop-color="#663612"/></radialGradient><path fill="url(#mk59jgqQ0ZXa2FdTeQGlBg)" d="M24.017,44.108c0.978,0.978,1.611,1.145,2.922,0.588c0.557-1.31,0.39-1.944-0.588-2.922	s-1.988-1.521-2.922-0.588C22.495,42.12,23.039,43.13,24.017,44.108z"/><radialGradient id="mk59jgqQ0ZXa2FdTeQGlBh" cx="24.018" cy="56.474" r="3.606" gradientTransform="matrix(.8 0 0 1.1683 4.8 -27.305)" gradientUnits="userSpaceOnUse"><stop offset=".119" stop-color="#db9056"/><stop offset=".994" stop-color="#663612"/></radialGradient><path fill="url(#mk59jgqQ0ZXa2FdTeQGlBh)" d="M22,39.549c0,1.606,0.4,2.264,2,2.883c1.6-0.619,2-1.277,2-2.883s-0.4-2.883-2-2.883	S22,37.943,22,39.549z"/><radialGradient id="mk59jgqQ0ZXa2FdTeQGlBi" cx="41.514" cy="42.157" r="3.737" gradientTransform="matrix(-1.069 .7972 -1.5309 -1.9528 145.039 59.013)" gradientUnits="userSpaceOnUse"><stop offset=".119" stop-color="#db9056"/><stop offset=".994" stop-color="#663612"/></radialGradient><path fill="url(#mk59jgqQ0ZXa2FdTeQGlBi)" d="M37.869,7.261C34.662,4.134,32.193,3.439,29,4.403c4.923,1.827,3.708,5.362,5.067,7.531	c1.378,2.199,3.626,2.68,5.077,1.265C40.877,11.507,39.737,9.084,37.869,7.261z"/><radialGradient id="mk59jgqQ0ZXa2FdTeQGlBj" cx="33.873" cy="37.672" r="2.704" gradientTransform="matrix(-.3979 -.6916 1.7306 -.9957 -16.366 75.99)" gradientUnits="userSpaceOnUse"><stop offset=".119" stop-color="#db9056"/><stop offset=".994" stop-color="#663612"/></radialGradient><path fill="url(#mk59jgqQ0ZXa2FdTeQGlBj)" d="M37.075,15.799c1.784-1.027,2.366-1.707,2.457-3.14c-1.284-0.642-2.164-0.481-3.949,0.546	s-3.053,2.102-2.457,3.14C33.723,17.382,35.29,16.826,37.075,15.799z"/><radialGradient id="mk59jgqQ0ZXa2FdTeQGlBk" cx="33.371" cy="33.469" r="2.704" gradientTransform="matrix(.0192 -.7178 2.5934 .0694 -58.693 37.21)" gradientUnits="userSpaceOnUse"><stop offset=".119" stop-color="#db9056"/><stop offset=".994" stop-color="#663612"/></radialGradient><path fill="url(#mk59jgqQ0ZXa2FdTeQGlBk)" d="M30.17,16.973c2.674,0.072,3.777-0.168,4.835-1.218c-1.001-1.104-2.089-1.403-4.763-1.474	s-4.807,0.141-4.835,1.218C25.378,16.575,27.496,16.901,30.17,16.973z"/><radialGradient id="mk59jgqQ0ZXa2FdTeQGlBl" cx="41.514" cy="42.157" r="3.737" gradientTransform="matrix(1.069 .7972 1.5309 -1.9528 -97.039 59.013)" gradientUnits="userSpaceOnUse"><stop offset=".119" stop-color="#db9056"/><stop offset=".994" stop-color="#663612"/></radialGradient><path fill="url(#mk59jgqQ0ZXa2FdTeQGlBl)" d="M10.131,7.261C13.338,4.134,15.807,3.439,19,4.403c-4.923,1.827-3.708,5.362-5.067,7.531	c-1.378,2.199-3.626,2.68-5.077,1.265C7.123,11.507,8.263,9.084,10.131,7.261z"/><radialGradient id="mk59jgqQ0ZXa2FdTeQGlBm" cx="33.873" cy="37.672" r="2.704" gradientTransform="matrix(.3979 -.6916 -1.7306 -.9957 64.366 75.99)" gradientUnits="userSpaceOnUse"><stop offset=".119" stop-color="#db9056"/><stop offset=".994" stop-color="#663612"/></radialGradient><path fill="url(#mk59jgqQ0ZXa2FdTeQGlBm)" d="M10.925,15.799c-1.784-1.027-2.366-1.707-2.457-3.14c1.284-0.642,2.164-0.481,3.949,0.546	s3.053,2.102,2.457,3.14C14.277,17.382,12.71,16.826,10.925,15.799z"/><radialGradient id="mk59jgqQ0ZXa2FdTeQGlBn" cx="33.371" cy="33.469" r="2.704" gradientTransform="matrix(-.0192 -.7178 -2.5934 .0694 106.693 37.21)" gradientUnits="userSpaceOnUse"><stop offset=".119" stop-color="#db9056"/><stop offset=".994" stop-color="#663612"/></radialGradient><path fill="url(#mk59jgqQ0ZXa2FdTeQGlBn)" d="M17.83,16.973c-2.674,0.072-3.777-0.168-4.835-1.218c1.001-1.104,2.089-1.403,4.763-1.474	s4.807,0.141,4.835,1.218C22.622,16.575,20.504,16.901,17.83,16.973z"/><g><path fill="#6e3c15" d="M21.181,19.183l-4.54,0.822c-0.314,0.057-0.614-0.152-0.671-0.466 c-0.054-0.296,0.131-0.58,0.415-0.66l4.447-1.228c0.419-0.116,0.852,0.13,0.967,0.549s-0.13,0.852-0.549,0.967 C21.228,19.174,21.204,19.179,21.181,19.183z"/><path fill="#6e3c15" d="M13.794,18.716l2.732,0.313c0.228,0.026,0.391,0.232,0.365,0.459 c-0.023,0.204-0.192,0.357-0.391,0.367l-2.747,0.144c-0.355,0.019-0.658-0.254-0.677-0.61c-0.019-0.355,0.254-0.658,0.61-0.677 C13.722,18.711,13.76,18.713,13.794,18.716z"/><path fill="#6e3c15" d="M13.74,19.692l-1.962,0.006c-0.299,0.001-0.542-0.241-0.543-0.539s0.241-0.542,0.539-0.543 c0.037,0,0.076,0.004,0.111,0.011l1.922,0.396c0.183,0.038,0.3,0.216,0.263,0.399C14.037,19.582,13.897,19.692,13.74,19.692z"/><path fill="#6e3c15" d="M11.749,19.489l-1.661-0.211c-0.297-0.038-0.507-0.309-0.47-0.606 c0.038-0.297,0.309-0.507,0.606-0.47c0.044,0.006,0.088,0.017,0.127,0.032l1.562,0.603c0.174,0.067,0.261,0.263,0.194,0.438 C12.051,19.423,11.9,19.508,11.749,19.489z"/><path fill="#6e3c15" d="M8.023,18.754c0.272-0.32,0.706-0.501,1.127-0.52c0.427-0.017,0.82,0.055,1.232,0.217 c0.178,0.07,0.266,0.272,0.196,0.45c-0.07,0.178-0.272,0.266-0.45,0.196c-0.02-0.008-0.039-0.017-0.056-0.028l-0.013-0.008 c-0.258-0.162-0.599-0.296-0.918-0.337c-0.324-0.04-0.649,0.026-0.914,0.236c-0.062,0.051-0.154,0.043-0.205-0.019 C7.977,18.887,7.98,18.807,8.023,18.754z"/></g><g><path fill="#6e3c15" d="M21.262,20.724l-4.741,2.283c-0.287,0.138-0.633,0.018-0.771-0.27 c-0.131-0.273-0.027-0.599,0.229-0.749l4.546-2.651c0.375-0.219,0.856-0.092,1.075,0.283c0.219,0.375,0.092,0.856-0.283,1.075 C21.299,20.705,21.28,20.715,21.262,20.724z"/><path fill="#6e3c15" d="M13.308,22.577l2.841-0.48c0.226-0.038,0.44,0.114,0.478,0.34c0.034,0.204-0.086,0.398-0.276,0.462 l-2.729,0.924c-0.337,0.114-0.702-0.067-0.816-0.404s0.067-0.702,0.404-0.816C13.241,22.592,13.276,22.583,13.308,22.577z"/><path fill="#6e3c15" d="M13.451,23.536l-2.494,0.099c-0.298,0.012-0.549-0.22-0.561-0.518 c-0.012-0.298,0.22-0.549,0.518-0.561c0.029-0.001,0.06,0,0.087,0.004l2.477,0.306c0.185,0.023,0.316,0.191,0.293,0.376 C13.752,23.406,13.613,23.529,13.451,23.536z"/><path fill="#6e3c15" d="M10.889,23.42l-2.025-0.352c-0.294-0.051-0.492-0.331-0.44-0.626s0.331-0.492,0.625-0.44 c0.035,0.006,0.071,0.016,0.103,0.028l1.917,0.741c0.174,0.067,0.26,0.263,0.193,0.437C11.203,23.362,11.045,23.447,10.889,23.42z"/><path fill="#6e3c15" d="M7.008,23.788c0.138-0.408,0.425-0.766,0.772-1.023c0.355-0.258,0.729-0.44,1.177-0.557 c0.185-0.048,0.375,0.063,0.423,0.248c0.048,0.185-0.063,0.375-0.248,0.423c-0.019,0.005-0.039,0.008-0.058,0.01l-0.016,0.001 c-0.326,0.026-0.702,0.128-1.015,0.288c-0.319,0.162-0.593,0.403-0.768,0.722c-0.036,0.072-0.124,0.1-0.195,0.064 C7.016,23.932,6.988,23.855,7.008,23.788z"/></g><g><path fill="#6e3c15" d="M21.069,22.993l-4.648,3.997c-0.242,0.208-0.606,0.18-0.814-0.061 c-0.199-0.231-0.181-0.576,0.032-0.788l4.366-4.303c0.309-0.305,0.807-0.301,1.111,0.008c0.305,0.309,0.301,0.807-0.008,1.111 C21.096,22.969,21.082,22.982,21.069,22.993z"/><path fill="#6e3c15" d="M12.582,27.727l3.249-1.524c0.207-0.097,0.454-0.008,0.551,0.199 c0.09,0.191,0.021,0.416-0.153,0.526L13.2,28.852c-0.3,0.191-0.697,0.102-0.888-0.198c-0.191-0.3-0.102-0.697,0.198-0.888 C12.533,27.752,12.559,27.738,12.582,27.727z"/><path fill="#6e3c15" d="M12.988,28.611l-2.308,0.907c-0.278,0.109-0.591-0.027-0.7-0.305 c-0.109-0.278,0.027-0.591,0.305-0.7c0.027-0.011,0.057-0.019,0.084-0.025l2.425-0.52c0.182-0.039,0.361,0.077,0.4,0.259 C13.23,28.39,13.139,28.552,12.988,28.611z"/><path fill="#6e3c15" d="M10.534,29.339L8.375,29.6c-0.296,0.036-0.566-0.175-0.602-0.472 c-0.036-0.296,0.175-0.566,0.472-0.602c0.033-0.004,0.069-0.005,0.101-0.003l2.17,0.143c0.186,0.012,0.327,0.173,0.315,0.359 C10.819,29.191,10.692,29.32,10.534,29.339z"/><path fill="#6e3c15" d="M6.02,29.805c0.182-0.436,0.596-0.755,1.032-0.903c0.443-0.154,0.882-0.205,1.362-0.18 c0.191,0.01,0.338,0.173,0.329,0.364c-0.01,0.191-0.173,0.338-0.364,0.329c-0.019-0.001-0.037-0.003-0.055-0.007l-0.017-0.004 c-0.346-0.076-0.759-0.098-1.121-0.03c-0.369,0.066-0.704,0.245-0.908,0.564c-0.042,0.069-0.131,0.09-0.2,0.048 C6.017,29.948,5.994,29.869,6.02,29.805z"/></g><g><path fill="#6e3c15" d="M21.318,25.679l-4.31,5.718c-0.192,0.255-0.554,0.305-0.809,0.114 c-0.245-0.185-0.3-0.529-0.133-0.781l3.97-5.959c0.241-0.361,0.728-0.459,1.09-0.218c0.361,0.241,0.459,0.728,0.218,1.09 C21.336,25.654,21.326,25.668,21.318,25.679z"/><path fill="#6e3c15" d="M12.658,33.87l3.594-3.105c0.173-0.149,0.434-0.13,0.584,0.043c0.14,0.162,0.131,0.404-0.014,0.556 L13.543,34.8c-0.245,0.257-0.652,0.266-0.909,0.021s-0.266-0.652-0.021-0.909C12.627,33.897,12.643,33.883,12.658,33.87z"/><path fill="#6e3c15" d="M13.252,34.634l-2.089,1.283c-0.254,0.156-0.587,0.077-0.743-0.178 c-0.156-0.254-0.076-0.587,0.178-0.743c0.025-0.015,0.053-0.029,0.08-0.04l2.272-0.922c0.173-0.07,0.369,0.013,0.439,0.186 C13.451,34.375,13.39,34.55,13.252,34.634z"/><path fill="#6e3c15" d="M11.043,35.75L8.58,36.933c-0.269,0.129-0.591,0.016-0.72-0.253 c-0.129-0.269-0.016-0.591,0.253-0.72c0.023-0.011,0.05-0.022,0.074-0.029l2.61-0.807c0.178-0.055,0.367,0.045,0.421,0.222 C11.268,35.508,11.191,35.678,11.043,35.75z"/><path fill="#6e3c15" d="M6.014,37.802c0.193-0.457,0.543-0.844,0.954-1.121c0.418-0.278,0.858-0.472,1.371-0.591 c0.186-0.043,0.373,0.073,0.416,0.26c0.043,0.187-0.073,0.373-0.26,0.416c-0.016,0.004-0.033,0.006-0.049,0.008l-0.018,0.001 c-0.393,0.031-0.835,0.147-1.212,0.329c-0.383,0.185-0.718,0.46-0.943,0.827c-0.04,0.07-0.129,0.094-0.198,0.054 C6.012,37.948,5.988,37.868,6.014,37.802z"/></g><radialGradient id="mk59jgqQ0ZXa2FdTeQGlBo" cx="24.022" cy="52.411" r="4.327" gradientTransform="matrix(1 0 0 1.3509 0 -37.018)" gradientUnits="userSpaceOnUse"><stop offset=".119" stop-color="#db9056"/><stop offset=".994" stop-color="#663612"/></radialGradient><path fill="url(#mk59jgqQ0ZXa2FdTeQGlBo)" d="M21,35c0,2.229,0.6,3.141,3,4c2.4-0.859,3-1.771,3-4s-0.6-4-3-4S21,32.771,21,35z"/><radialGradient id="mk59jgqQ0ZXa2FdTeQGlBp" cx="24.025" cy="44.965" r="5.048" gradientTransform="matrix(1 0 0 1.0132 0 -15.121)" gradientUnits="userSpaceOnUse"><stop offset=".119" stop-color="#db9056"/><stop offset=".994" stop-color="#663612"/></radialGradient><path fill="url(#mk59jgqQ0ZXa2FdTeQGlBp)" d="M20.5,31.5c0,1.95,0.7,2.749,3.5,3.5c2.8-0.751,3.5-1.55,3.5-3.5S26.8,28,24,28	S20.5,29.55,20.5,31.5z"/><radialGradient id="mk59jgqQ0ZXa2FdTeQGlBq" cx="24.025" cy="39.365" r="5.048" gradientTransform="matrix(1 0 0 1.0132 0 -12.448)" gradientUnits="userSpaceOnUse"><stop offset=".119" stop-color="#db9056"/><stop offset=".994" stop-color="#663612"/></radialGradient><path fill="url(#mk59jgqQ0ZXa2FdTeQGlBq)" d="M20.5,28.5c0,1.95,0.7,2.749,3.5,3.5c2.8-0.751,3.5-1.55,3.5-3.5S26.8,25,24,25	S20.5,26.55,20.5,28.5z"/><radialGradient id="mk59jgqQ0ZXa2FdTeQGlBr" cx="24.029" cy="32.852" r="5.77" gradientTransform="matrix(1 0 0 .7599 0 .124)" gradientUnits="userSpaceOnUse"><stop offset=".119" stop-color="#db9056"/><stop offset=".994" stop-color="#663612"/></radialGradient><path fill="url(#mk59jgqQ0ZXa2FdTeQGlBr)" d="M20,26c0,1.671,0.8,2.356,4,3c3.2-0.644,4-1.329,4-3s-0.8-3-4-3S20,24.329,20,26z"/><radialGradient id="mk59jgqQ0ZXa2FdTeQGlBs" cx="24.029" cy="27.252" r="5.77" gradientTransform="matrix(1 0 0 .7599 0 1.38)" gradientUnits="userSpaceOnUse"><stop offset=".119" stop-color="#db9056"/><stop offset=".994" stop-color="#663612"/></radialGradient><path fill="url(#mk59jgqQ0ZXa2FdTeQGlBs)" d="M20,23c0,1.671,0.8,2.356,4,3c3.2-0.644,4-1.329,4-3s-0.8-3-4-3S20,21.329,20,23z"/><radialGradient id="mk59jgqQ0ZXa2FdTeQGlBt" cx="24.029" cy="22.457" r="6.04" gradientTransform="matrix(1 0 0 1.075 0 -7.01)" gradientUnits="userSpaceOnUse"><stop offset=".119" stop-color="#db9056"/><stop offset=".994" stop-color="#663612"/></radialGradient><path fill="url(#mk59jgqQ0ZXa2FdTeQGlBt)" d="M20,18.756c0,2.365,0.8,3.333,4,4.244c3.2-0.911,4-1.88,4-4.244s-2-6.131-4-4.244	C22,12.625,20,16.391,20,18.756z"/></svg>