<svg xmlns="http://www.w3.org/2000/svg" viewBox="0 0 48 48"><polygon fill="#353535" points="39,41 5,41 5,33 44,33 47,39"/><path fill="#f9b32e" d="M25,13H14v-2.833C14,9.522,14.522,9,15.167,9h8.667C24.478,9,25,9.522,25,10.167V13z"/><path fill="#f9b32e" d="M40,13H29v-2.833C29,9.522,29.522,9,30.167,9h8.667C39.478,9,40,9.522,40,10.167V13z"/><radialGradient id="Bigl5rw9X31~DAmvfg2ASa" cx="13" cy="40" r="4" gradientUnits="userSpaceOnUse"><stop offset="0" stop-color="#666"/><stop offset=".513" stop-color="#646464"/><stop offset=".698" stop-color="#5e5e5d"/><stop offset=".829" stop-color="#525252"/><stop offset=".935" stop-color="#424241"/><stop offset="1" stop-color="#333332"/></radialGradient><circle cx="13" cy="40" r="4" fill="url(#Bigl5rw9X31~DAmvfg2ASa)"/><radialGradient id="Bigl5rw9X31~DAmvfg2ASb" cx="38" cy="40" r="4" gradientUnits="userSpaceOnUse"><stop offset="0" stop-color="#666"/><stop offset=".513" stop-color="#646464"/><stop offset=".698" stop-color="#5e5e5d"/><stop offset=".829" stop-color="#525252"/><stop offset=".935" stop-color="#424241"/><stop offset="1" stop-color="#333332"/></radialGradient><circle cx="38" cy="40" r="4" fill="url(#Bigl5rw9X31~DAmvfg2ASb)"/><linearGradient id="Bigl5rw9X31~DAmvfg2ASc" x1="25" x2="25" y1="14.891" y2="36.525" gradientUnits="userSpaceOnUse"><stop offset="0" stop-color="#fdd835"/><stop offset="1" stop-color="#f9a825"/></linearGradient><path fill="url(#Bigl5rw9X31~DAmvfg2ASc)" d="M44.437,10H8.328c-0.801,0-1.525,0.488-1.813,1.235C4.689,15.982,3,22.608,3,29.5v9.292	C3,40.011,3.989,41,5.208,41h2.892C8.035,40.677,8,40.343,8,40c0-2.761,2.239-5,5-5s5,2.239,5,5c0,0.343-0.035,0.677-0.101,1h15.202	C33.035,40.677,33,40.343,33,40c0-2.761,2.239-5,5-5s5,2.239,5,5c0,0.011-0.003,0.022-0.003,0.033L47,39V26.208l-1-14.646	C46,10.7,45.3,10,44.437,10z"/><path fill="#fcd73b" d="M3,18H2.225C1.548,18,1,17.452,1,16.775v-3.551C1,12.548,1.548,12,2.225,12H3V18z"/><path fill="#fcd73b" d="M2,13.5H1C1,11.21,2.21,10,4.5,10H9v1H4.5C2.771,11,2,11.771,2,13.5z"/><rect width=".469" height="6" x="2.531" y="12" fill="#4077af"/><linearGradient id="Bigl5rw9X31~DAmvfg2ASd" x1="15.483" x2="10.165" y1="42.33" y2="37.34" gradientUnits="userSpaceOnUse"><stop offset="0" stop-color="#999"/><stop offset="1" stop-color="#fff"/></linearGradient><circle cx="13" cy="40" r="2" fill="url(#Bigl5rw9X31~DAmvfg2ASd)"/><ellipse cx="13" cy="38.664" fill="#616161" rx=".781" ry=".336"/><ellipse cx="13" cy="41.352" fill="#616161" rx=".781" ry=".336"/><ellipse cx="11.656" cy="40.008" fill="#616161" rx=".336" ry=".781"/><ellipse cx="14.344" cy="40.008" fill="#616161" rx=".336" ry=".781"/><linearGradient id="Bigl5rw9X31~DAmvfg2ASe" x1="40.483" x2="35.165" y1="42.33" y2="37.34" gradientUnits="userSpaceOnUse"><stop offset="0" stop-color="#999"/><stop offset="1" stop-color="#fff"/></linearGradient><circle cx="38" cy="40" r="2" fill="url(#Bigl5rw9X31~DAmvfg2ASe)"/><ellipse cx="38" cy="38.664" fill="#616161" rx=".781" ry=".336"/><ellipse cx="38" cy="41.352" fill="#616161" rx=".781" ry=".336"/><ellipse cx="36.656" cy="40.008" fill="#616161" rx=".336" ry=".781"/><ellipse cx="39.344" cy="40.008" fill="#616161" rx=".336" ry=".781"/><rect width="34" height=".531" x="13" y="32" fill="#eb9824"/><rect width="3" height=".521" x="11.76" y="33.24" fill="#eb9824" transform="rotate(-90 13.26 33.5)"/><rect width="9" height=".521" x="16.76" y="36.24" fill="#eb9824" transform="rotate(-90 21.26 36.5)"/><rect width="9" height=".521" x="24.76" y="36.24" fill="#eb9824" transform="rotate(-90 29.26 36.5)"/><linearGradient id="Bigl5rw9X31~DAmvfg2ASf" x1="25" x2="25" y1="37.575" y2="41.375" gradientUnits="userSpaceOnUse"><stop offset="0" stop-color="#f3ab28" stop-opacity="0"/><stop offset="1" stop-color="#c6420e"/></linearGradient><path fill="url(#Bigl5rw9X31~DAmvfg2ASf)" d="M8,40c0,0.343,0.035,0.677,0.101,1H5.208C3.989,41,3,40.011,3,38.792V38h5.432	C8.159,38.612,8,39.285,8,40z M42.568,38C42.841,38.612,43,39.285,43,40c0,0.011-0.003,0.022-0.003,0.033L47,39v-1H42.568z M33.432,38H17.568C17.841,38.612,18,39.285,18,40c0,0.343-0.035,0.677-0.101,1h15.202C33.035,40.677,33,40.343,33,40	C33,39.285,33.159,38.612,33.432,38z"/><rect width="1.563" height="1" x="24.437" y="38" fill="#cbc9bc"/><linearGradient id="Bigl5rw9X31~DAmvfg2ASg" x1="43.333" x2="48.208" y1="25.016" y2="25.016" gradientUnits="userSpaceOnUse"><stop offset="0" stop-color="#f3ab28" stop-opacity="0"/><stop offset="1" stop-color="#c6420e"/></linearGradient><path fill="url(#Bigl5rw9X31~DAmvfg2ASg)" d="M46,11.563C46,10.7,45.3,10,44.437,10H43v30.032L47,39V26.208L46,11.563z"/><linearGradient id="Bigl5rw9X31~DAmvfg2ASh" x1="26.363" x2="23.055" y1="42.69" y2="22.82" gradientUnits="userSpaceOnUse"><stop offset="0" stop-color="#999"/><stop offset="1" stop-color="#fff"/></linearGradient><path fill="url(#Bigl5rw9X31~DAmvfg2ASh)" d="M3,35l7.402-3.483C12.524,30.518,14.841,30,17.187,30h27.047c0.699,0,1.266-0.567,1.266-1.266	V25H13.541L3,30V35z"/><linearGradient id="Bigl5rw9X31~DAmvfg2ASi" x1="24.282" x2="24.282" y1="11.91" y2="26.776" gradientUnits="userSpaceOnUse"><stop offset="0" stop-color="#37474f"/><stop offset="1" stop-color="#263238"/></linearGradient><path fill="url(#Bigl5rw9X31~DAmvfg2ASi)" d="M44.826,13.167c-0.031-0.467-0.4-0.829-0.844-0.829h-26.08c-3.536,0-7.063,0.383-10.524,1.144	L5.562,13.88c-1.031,3.027-1.916,7.382-2.322,11.166c-0.003,0.035-0.008,0.069-0.012,0.104c-0.05,0.475-0.082,0.965-0.116,1.454	c-0.019,0.285-0.044,0.565-0.058,0.854c-0.019,0.395-0.024,0.801-0.032,1.205C3.015,28.992,3,29.317,3,29.653v4.055l5.333-3.649	c3.037-2.238,6.655-3.403,10.363-3.403h26.001c0.491,0,0.899-0.579,0.865-1.094L44.826,13.167z"/><g><linearGradient id="Bigl5rw9X31~DAmvfg2ASj" x1="6" x2="6" y1="13.406" y2="26.769" gradientUnits="userSpaceOnUse"><stop offset="0" stop-color="#5ba5ea"/><stop offset="1" stop-color="#315b8e"/></linearGradient><path fill="url(#Bigl5rw9X31~DAmvfg2ASj)" d="M9,13.79c-0.528,0.093-1.057,0.178-1.582,0.288l-2.06,0.43C4.037,18.528,3,24.12,3,29.5V33 l5.437-3.806C8.62,29.066,8.812,28.952,9,28.831V13.79z"/><linearGradient id="Bigl5rw9X31~DAmvfg2ASk" x1="27.5" x2="27.5" y1="12.74" y2="21.783" gradientUnits="userSpaceOnUse"><stop offset="0" stop-color="#5ba5ea"/><stop offset="1" stop-color="#315b8e"/></linearGradient><rect width="11" height="13" x="22" y="13" fill="url(#Bigl5rw9X31~DAmvfg2ASk)"/><linearGradient id="Bigl5rw9X31~DAmvfg2ASl" x1="39.484" x2="39.484" y1="12.74" y2="21.783" gradientUnits="userSpaceOnUse"><stop offset="0" stop-color="#5ba5ea"/><stop offset="1" stop-color="#315b8e"/></linearGradient><path fill="url(#Bigl5rw9X31~DAmvfg2ASl)" d="M44.195,13.414C44.179,13.181,43.985,13,43.751,13H34v13h10.523 c0.258,0,0.462-0.219,0.444-0.476L44.195,13.414z"/><linearGradient id="Bigl5rw9X31~DAmvfg2ASm" x1="15.5" x2="15.5" y1="12.695" y2="23.29" gradientUnits="userSpaceOnUse"><stop offset="0" stop-color="#5ba5ea"/><stop offset="1" stop-color="#315b8e"/></linearGradient><path fill="url(#Bigl5rw9X31~DAmvfg2ASm)" d="M21,13h-3.14c-2.633,0-5.261,0.204-7.86,0.608v14.623C12.615,26.78,15.559,26,18.57,26H21 V13z"/></g><linearGradient id="Bigl5rw9X31~DAmvfg2ASn" x1="5.997" x2="-.108" y1="25.278" y2="24.543" gradientUnits="userSpaceOnUse"><stop offset="0" stop-color="#fff" stop-opacity="0"/><stop offset="1" stop-color="#fff"/></linearGradient><path fill="url(#Bigl5rw9X31~DAmvfg2ASn)" d="M6.75,40.704V30.216c0-7.651,1.845-14.914,3.867-20.216H8.328	c-0.801,0-1.525,0.488-1.813,1.235C4.689,15.982,3,22.608,3,29.5v9.292C3,40.011,3.989,41,5.208,41H6.78	C6.768,40.902,6.75,40.805,6.75,40.704z"/><path fill="#fcee21" d="M4.958,36.479L3,37.357v-2.369l3.086-1.427c0.596-0.275,0.776,0.541,0.639,0.989l-0.25,0.772	C6.184,35.903,5.687,36.167,4.958,36.479z"/><ellipse cx="4.038" cy="35.68" fill="#fff" rx=".5" ry="1"/><ellipse cx="5.5" cy="35" fill="#fff" rx=".5" ry="1"/><path fill="#eb1c24" d="M45.406,36H47v-3h-1.594C45.182,33,45,33.182,45,33.406v2.188C45,35.818,45.182,36,45.406,36z"/></svg>