<svg xmlns="http://www.w3.org/2000/svg" viewBox="0 0 48 48"><linearGradient id="RMl66fZ8FQjnR7n7d4AKBa" x1="5.406" x2="30.021" y1="33.208" y2="33.208" gradientUnits="userSpaceOnUse"><stop offset="0" stop-color="#2877f7"/><stop offset="1" stop-color="#1156a8"/></linearGradient><path fill="url(#RMl66fZ8FQjnR7n7d4AKBa)" d="M42.529,38.607c-11.055,1.089-26.065,1.071-37.032-0.002	c-2.949-0.289-5.099-3.827-4.804-6.664L1.792,27c13.785,1.899,30.608,1.878,44.546,0l0.969,4.949	C47.601,34.776,45.468,38.318,42.529,38.607z"/><linearGradient id="RMl66fZ8FQjnR7n7d4AKBb" x1="24" x2="24" y1="33.526" y2="44.999" gradientUnits="userSpaceOnUse"><stop offset=".007" stop-opacity="0"/><stop offset=".893" stop-opacity=".8"/></linearGradient><path fill="url(#RMl66fZ8FQjnR7n7d4AKBb)" d="M42.529,38.607c-11.055,1.089-26.065,1.071-37.032-0.002	c-2.949-0.289-5.099-3.827-4.804-6.664L1.792,27c13.785,1.899,30.608,1.878,44.546,0l0.969,4.949	C47.601,34.776,45.468,38.318,42.529,38.607z"/><radialGradient id="RMl66fZ8FQjnR7n7d4AKBc" cx="24.617" cy="27.088" r="30.538" gradientTransform="matrix(1 0 0 .1682 0 22.531)" gradientUnits="userSpaceOnUse"><stop offset=".182"/><stop offset=".993" stop-opacity="0"/></radialGradient><path fill="url(#RMl66fZ8FQjnR7n7d4AKBc)" d="M46.557,28.119c-13.098,2.511-30.885,2.512-45.014,0.003l-0.458,2.06	c7.217,1.287,16.347,1.936,23.348,1.936c6.987,0,15.846-0.648,22.53-1.929L46.557,28.119z"/><linearGradient id="RMl66fZ8FQjnR7n7d4AKBd" x1="5.833" x2="-6.662" y1="32.953" y2="32.953" gradientUnits="userSpaceOnUse"><stop offset=".007" stop-color="#f5f5f5" stop-opacity="0"/><stop offset=".893" stop-color="#ef9a9a" stop-opacity=".8"/></linearGradient><path fill="url(#RMl66fZ8FQjnR7n7d4AKBd)" d="M11,27.804C8.617,27.589,4.223,27.335,1.792,27l-1.098,4.941	c-0.295,2.837,1.855,6.375,4.804,6.664c1.167,0.114,2.334,0.21,3.502,0.3L11,27.804z"/><linearGradient id="RMl66fZ8FQjnR7n7d4AKBe" x1="18.5" x2="8.423" y1="32.953" y2="32.953" gradientTransform="matrix(-1 0 0 1 61.667 0)" gradientUnits="userSpaceOnUse"><stop offset=".007" stop-opacity="0"/><stop offset=".893" stop-opacity=".8"/></linearGradient><path fill="url(#RMl66fZ8FQjnR7n7d4AKBe)" d="M39,27.804c2.383-0.216,4.777-0.469,7.208-0.804l1.098,4.941	c0.295,2.837-1.855,6.375-4.804,6.664c-1.167,0.114-2.334,0.21-3.502,0.3V27.804z"/><path fill="#d98e1f" d="M24.41,30.129c-6.877,0-15.884-0.655-22.98-1.964c-0.188-0.035-0.314-0.217-0.278-0.405l0.242-1.29	c0.035-0.185,0.212-0.305,0.397-0.271c13.934,2.571,31.526,2.573,44.405,0.006c0.184-0.037,0.362,0.081,0.399,0.265l0.262,1.288	c0.038,0.188-0.084,0.372-0.271,0.409C40.024,29.475,31.282,30.129,24.41,30.129z"/><path fill="#fee06f" d="M46.674,26.777l-0.067-0.329c-0.037-0.184-0.215-0.302-0.399-0.265	c-12.879,2.567-30.471,2.564-44.405-0.006c-0.185-0.034-0.363,0.086-0.397,0.271l1.94,0.317	C17.587,29.316,33.481,29.321,46.674,26.777z"/><linearGradient id="RMl66fZ8FQjnR7n7d4AKBf" x1="28.197" x2="25.177" y1="29.704" y2="27.576" gradientUnits="userSpaceOnUse"><stop offset=".007" stop-opacity="0"/><stop offset=".893" stop-opacity=".8"/></linearGradient><path fill="url(#RMl66fZ8FQjnR7n7d4AKBf)" d="M26.25,28.063l4.104-0.125c0,0-1.125,1.208-1.875,2.146l-4.26,0.104L26.25,28.063z"/><linearGradient id="RMl66fZ8FQjnR7n7d4AKBg" x1="23.655" x2="18.266" y1="35.058" y2="32.639" gradientUnits="userSpaceOnUse"><stop offset=".007" stop-opacity="0"/><stop offset=".893" stop-opacity=".8"/></linearGradient><path fill="url(#RMl66fZ8FQjnR7n7d4AKBg)" d="M26.844,30.125c0,0-2.188,2.688-2.75,4s-0.469,4.5-0.156,5.281	c-0.844,0-4.844-0.031-4.844-0.031l1.531-5.5l4.062-3.688L26.844,30.125z"/><linearGradient id="RMl66fZ8FQjnR7n7d4AKBh" x1="24.28" x2="35.746" y1="37.226" y2="41.498" gradientTransform="rotate(45.001 21.5 23.53)" gradientUnits="userSpaceOnUse"><stop offset="0" stop-color="#eaa347"/><stop offset=".315" stop-color="#c07a33"/><stop offset=".999" stop-color="#591502"/></linearGradient><path fill="url(#RMl66fZ8FQjnR7n7d4AKBh)" d="M22.089,33.458l-0.029-0.029l-0.707-0.707l-0.029-0.029 c-4.051,1.282-7.425,3.241-10.98,6.797l-2.129,2.129c-0.297,0.297-0.346,0.728-0.11,0.964l1.694,1.694l0.707,0.707l1.694,1.694 c0.236,0.236,0.668,0.187,0.964-0.11l2.129-2.129C18.848,40.883,20.807,37.509,22.089,33.458z"/><path fill="#d98e1f" d="M38.435,17.76l-1.414-1.414c-0.195-0.195-0.512-0.195-0.707,0c-0.195,0.195-0.195,0.512,0,0.707 l0.354,0.354L11.565,42.508c-0.195,0.195-0.195,0.512,0,0.707c0.195,0.195,0.512,0.195,0.707,0l25.102-25.102l0.354,0.354 c0.195,0.195,0.512,0.195,0.707,0S38.63,17.955,38.435,17.76z"/><path fill="#eaa347" d="M36.543,17.282c-0.144-0.196-0.136-0.468,0.041-0.645c0.195-0.195,0.512-0.195,0.707,0l1.184,1.185 c-0.015-0.02-0.023-0.044-0.041-0.062l-1.414-1.414c-0.195-0.195-0.512-0.195-0.707,0c-0.195,0.195-0.195,0.512,0,0.707 L36.543,17.282z"/><path fill="#eaa347" d="M11.836,42.8l25.102-25.102l-0.281-0.281L11.565,42.508c-0.195,0.195-0.195,0.512,0,0.707 c0.046,0.046,0.1,0.08,0.157,0.104C11.66,43.144,11.695,42.941,11.836,42.8z"/></svg>