<svg xmlns="http://www.w3.org/2000/svg" viewBox="0 0 48 48"><linearGradient id="wqGEQD0i5GQw_eNwPtO9Ma" x1="38.336" x2="41.658" y1="21.92" y2="32.059" gradientUnits="userSpaceOnUse"><stop offset="0" stop-color="#e0e0e0"/><stop offset="1" stop-color="#757575"/></linearGradient><polygon fill="url(#wqGEQD0i5GQw_eNwPtO9Ma)" points="36,31 41,23 44,23 41,32"/><linearGradient id="wqGEQD0i5GQw_eNwPtO9Mb" x1="23.352" x2="32.068" y1="26.692" y2="30.875" gradientUnits="userSpaceOnUse"><stop offset="0" stop-color="#5ba5ea"/><stop offset="1" stop-color="#315b8e"/></linearGradient><path fill="url(#wqGEQD0i5GQw_eNwPtO9Mb)" d="M19,29l4-5c0,0,5.375,0.125,8.583,2.375C33.414,27.659,35,29,36,31C34,31,19,29,19,29z"/><linearGradient id="wqGEQD0i5GQw_eNwPtO9Mc" x1="19.153" x2="24.032" y1="24.677" y2="27.018" gradientUnits="userSpaceOnUse"><stop offset="0" stop-color="#fff"/><stop offset="1" stop-color="#fff" stop-opacity="0"/></linearGradient><path fill="url(#wqGEQD0i5GQw_eNwPtO9Mc)" d="M19,29l4-5c0,0,5.375,0.125,8.583,2.375C33.414,27.659,35,29,36,31C34,31,19,29,19,29z"/><path fill="#dcdcdc" d="M25.466,24.217L23,29.25l1.594,0.156l1.667-5.068C25.989,24.293,25.721,24.251,25.466,24.217z"/><linearGradient id="wqGEQD0i5GQw_eNwPtO9Md" x1="19.699" x2="31.385" y1="30.851" y2="42.236" gradientUnits="userSpaceOnUse"><stop offset="0" stop-color="#fdd835"/><stop offset=".339" stop-color="#fcc830"/><stop offset="1" stop-color="#f9a825"/></linearGradient><path fill="url(#wqGEQD0i5GQw_eNwPtO9Md)" d="M48,44H16C9,44,2,36,0,29l45,5C45,34,48,40,48,44z"/><linearGradient id="wqGEQD0i5GQw_eNwPtO9Me" x1="9.773" x2="35.959" y1="24.974" y2="38.416" gradientUnits="userSpaceOnUse"><stop offset="0" stop-color="#f68381"/><stop offset="1" stop-color="#e51e25"/></linearGradient><path fill="url(#wqGEQD0i5GQw_eNwPtO9Me)" d="M47.534,40.917C46.691,37.819,45,34,45,34l-1.125-0.131V33.74C33.886,32.202,0,29,0,29	C9.958,34.625,47.534,40.917,47.534,40.917z"/><linearGradient id="wqGEQD0i5GQw_eNwPtO9Mf" x1="9.207" x2="41.538" y1="27.558" y2="33.981" gradientUnits="userSpaceOnUse"><stop offset="0" stop-color="#e0e0e0"/><stop offset="1" stop-color="#999"/></linearGradient><path fill="url(#wqGEQD0i5GQw_eNwPtO9Mf)" d="M43,31l2,3L0,29C10,27,28.86,28.988,43,31z"/><linearGradient id="wqGEQD0i5GQw_eNwPtO9Mg" x1="23.229" x2="22.512" y1="26.192" y2="31.41" gradientUnits="userSpaceOnUse"><stop offset="0" stop-color="#fff"/><stop offset="1" stop-color="#fff" stop-opacity="0"/></linearGradient><path fill="url(#wqGEQD0i5GQw_eNwPtO9Mg)" d="M43,31l2,3L0,29C10,27,28.86,28.988,43,31z"/><linearGradient id="wqGEQD0i5GQw_eNwPtO9Mh" x1="22.658" x2="22.34" y1="30.352" y2="32.668" gradientUnits="userSpaceOnUse"><stop offset="0" stop-color="#fff"/><stop offset="1" stop-color="#fff" stop-opacity="0"/></linearGradient><path fill="url(#wqGEQD0i5GQw_eNwPtO9Mh)" d="M2.048,28.663C1.332,28.76,0.646,28.871,0,29l45,5l-0.407-0.61L2.048,28.663z"/><linearGradient id="wqGEQD0i5GQw_eNwPtO9Mi" x1="24.899" x2="26.547" y1="42.611" y2="27.799" gradientUnits="userSpaceOnUse"><stop offset=".007" stop-opacity="0"/><stop offset=".893" stop-opacity=".8"/></linearGradient><path fill="url(#wqGEQD0i5GQw_eNwPtO9Mi)" d="M47.581,41.002C47.572,41.002,47.564,41,47.554,41C41.375,40.625,27.938,39.875,18,39	c-5.931-0.522-11.444-1.749-15.09-3.863c0.532,0.809,1.117,1.592,1.739,2.341C8.594,39.782,13.891,41.783,20,42	c6.859,0,21.4,0,27.788,0C47.729,41.669,47.661,41.338,47.581,41.002z"/><linearGradient id="wqGEQD0i5GQw_eNwPtO9Mj" x1="25.925" x2="26.918" y1="45.703" y2="33.084" gradientUnits="userSpaceOnUse"><stop offset=".007" stop-opacity="0"/><stop offset=".893" stop-opacity=".8"/></linearGradient><path fill="url(#wqGEQD0i5GQw_eNwPtO9Mj)" d="M48,44c0-0.626-0.088-1.307-0.212-2C41.982,42,30.499,42,21,42	c-7.379,0-13.77-2.701-16.368-4.534C7.734,41.199,11.862,44,16,44h5h1h25H48z"/><polygon fill="#acacac" points="40,34.5 43.906,34.906 44.25,35.781 40,34.875"/></svg>