<svg xmlns="http://www.w3.org/2000/svg" viewBox="0 0 48 48"><radialGradient id="HsMLVgUxX74oCAubRkGgaa" cx="24.371" cy="3.5" r="16.526" gradientTransform="matrix(1 0 0 -1 0 48)" gradientUnits="userSpaceOnUse"><stop offset=".002" stop-color="#fff"/><stop offset="1" stop-color="#d2d5d6"/></radialGradient><path fill="url(#HsMLVgUxX74oCAubRkGgaa)" d="M43,46c0,0,0.054-9.133-6.089-10.749C33.774,34.426,24.018,32,24.001,32	s-9.774,2.426-12.91,3.251C4.947,36.867,5,46,5,46H43z"/><radialGradient id="HsMLVgUxX74oCAubRkGgab" cx="22.295" cy="3.33" r="15.162" gradientTransform="matrix(1 0 0 -1 0 48)" gradientUnits="userSpaceOnUse"><stop offset=".002" stop-color="#f7f7f7"/><stop offset="1" stop-color="#d1d3d4"/></radialGradient><path fill="url(#HsMLVgUxX74oCAubRkGgab)" d="M8.082,38.517c-0.008,1.181-0.029,2.408,0.018,3.662C8.146,43.433,8.258,44.713,8.516,46 H9.57h1.055c-0.386-1.258-0.709-2.431-0.972-3.642c-0.262-1.212-0.464-2.463-0.607-3.878C8.981,37.563,8.094,37.606,8.082,38.517z"/><radialGradient id="HsMLVgUxX74oCAubRkGgac" cx="21.376" cy="3.293" r="14.119" gradientTransform="matrix(1 0 0 -1 0 48)" gradientUnits="userSpaceOnUse"><stop offset=".002" stop-color="#f0f0f0"/><stop offset="1" stop-color="#d0d2d2"/></radialGradient><path fill="url(#HsMLVgUxX74oCAubRkGgac)" d="M8.14,38.612c-0.003,1.177-0.014,2.389,0.039,3.624c0.05,1.201,0.161,2.424,0.404,3.657 C8.589,45.928,9.5,45.964,9.507,46h0.504h0.504c-0.216-0.705-0.41-1.384-0.583-2.057c-0.126-0.491-0.24-0.979-0.344-1.474 c-0.034-0.161-0.067-0.324-0.098-0.487c-0.132-0.679-0.245-1.376-0.341-2.112c-0.049-0.376-0.094-0.763-0.134-1.162 c-0.042-0.571-0.402-0.772-0.639-0.627C8.263,38.135,8.141,38.318,8.14,38.612z"/><radialGradient id="HsMLVgUxX74oCAubRkGgad" cx="20.482" cy="3.259" r="13.11" gradientTransform="matrix(1 0 0 -1 0 48)" gradientUnits="userSpaceOnUse"><stop offset=".002" stop-color="#eaeaea"/><stop offset="1" stop-color="#cfd0d1"/></radialGradient><path fill="url(#HsMLVgUxX74oCAubRkGgad)" d="M8.199,38.707c0.003,1.174,0,2.37,0.059,3.586c0.054,1.147,0.164,2.314,0.392,3.493 c0.012,0.07,0.779,0.142,0.793,0.214h0.481h0.481c-0.209-0.682-0.394-1.339-0.557-1.99c-0.119-0.476-0.227-0.95-0.324-1.43 c-0.032-0.158-0.063-0.316-0.093-0.475c-0.124-0.659-0.229-1.334-0.319-2.046c-0.046-0.363-0.089-0.736-0.127-1.122 c-0.04-0.527-0.345-0.746-0.548-0.679C8.341,38.257,8.197,38.418,8.199,38.707z"/><radialGradient id="HsMLVgUxX74oCAubRkGgae" cx="19.603" cy="3.231" r="12.12" gradientTransform="matrix(1 0 0 -1 0 48)" gradientUnits="userSpaceOnUse"><stop offset=".002" stop-color="#e3e3e3"/><stop offset="1" stop-color="#cecfcf"/></radialGradient><path fill="url(#HsMLVgUxX74oCAubRkGgae)" d="M8.257,38.801c0.008,1.17,0.014,2.351,0.08,3.548c0.057,1.094,0.166,2.205,0.38,3.328 C8.736,45.785,9.358,45.892,9.38,46h0.458h0.458c-0.202-0.659-0.378-1.294-0.532-1.924c-0.113-0.462-0.214-0.921-0.305-1.385 c-0.03-0.154-0.059-0.308-0.087-0.463c-0.115-0.639-0.213-1.292-0.298-1.98c-0.043-0.351-0.083-0.71-0.121-1.081 c-0.038-0.482-0.288-0.721-0.457-0.731C8.42,38.379,8.252,38.519,8.257,38.801z"/><radialGradient id="HsMLVgUxX74oCAubRkGgaf" cx="18.724" cy="3.207" r="11.133" gradientTransform="matrix(1 0 0 -1 0 48)" gradientUnits="userSpaceOnUse"><stop offset=".002" stop-color="#ddd"/><stop offset="1" stop-color="#cccdce"/></radialGradient><path fill="url(#HsMLVgUxX74oCAubRkGgaf)" d="M8.316,38.896c0.014,1.166,0.029,2.332,0.101,3.511c0.061,1.041,0.169,2.095,0.368,3.164 C8.809,45.713,9.287,45.856,9.316,46h0.435h0.435c-0.195-0.636-0.362-1.249-0.507-1.857c-0.106-0.447-0.201-0.892-0.285-1.341 c-0.028-0.15-0.055-0.3-0.081-0.452c-0.107-0.619-0.197-1.251-0.276-1.914c-0.041-0.338-0.078-0.684-0.114-1.041 c-0.036-0.438-0.232-0.695-0.366-0.783C8.499,38.501,8.308,38.619,8.316,38.896z"/><radialGradient id="HsMLVgUxX74oCAubRkGgag" cx="17.846" cy="3.184" r="10.147" gradientTransform="matrix(1 0 0 -1 0 48)" gradientUnits="userSpaceOnUse"><stop offset=".002" stop-color="#d6d6d6"/><stop offset="1" stop-color="#cbcccc"/></radialGradient><path fill="url(#HsMLVgUxX74oCAubRkGgag)" d="M8.374,38.991c0.019,1.163,0.043,2.312,0.122,3.473c0.065,0.988,0.171,1.985,0.355,3 C8.882,45.641,9.217,45.82,9.253,46h0.411h0.411c-0.188-0.613-0.346-1.204-0.482-1.79c-0.1-0.433-0.187-0.863-0.265-1.297 c-0.026-0.146-0.051-0.293-0.075-0.44c-0.098-0.599-0.181-1.209-0.255-1.848c-0.038-0.325-0.073-0.658-0.108-1 c-0.034-0.394-0.175-0.669-0.276-0.835C8.577,38.623,8.363,38.719,8.374,38.991z"/><radialGradient id="HsMLVgUxX74oCAubRkGgah" cx="16.967" cy="3.163" r="9.163" gradientTransform="matrix(1 0 0 -1 0 48)" gradientUnits="userSpaceOnUse"><stop offset=".002" stop-color="#d0d0d0"/><stop offset="1" stop-color="#cacacb"/></radialGradient><path fill="url(#HsMLVgUxX74oCAubRkGgah)" d="M8.433,39.085c0.025,1.159,0.057,2.293,0.143,3.435c0.069,0.935,0.174,1.875,0.343,2.836 c0.036,0.213,0.227,0.428,0.27,0.644h0.388h0.388c-0.181-0.59-0.33-1.159-0.456-1.723c-0.093-0.418-0.174-0.834-0.246-1.252 c-0.024-0.142-0.047-0.285-0.07-0.428c-0.09-0.579-0.165-1.167-0.233-1.782c-0.035-0.312-0.068-0.632-0.101-0.96 c-0.032-0.349-0.118-0.643-0.185-0.887C8.656,38.745,8.418,38.819,8.433,39.085z"/><path fill="#c9c9c9" d="M8.491,39.18c0.03,1.156,0.072,2.274,0.164,3.397s0.236,2.25,0.47,3.423H9.49h0.365 c-0.174-0.567-0.314-1.114-0.431-1.656s-0.21-1.079-0.29-1.624c-0.081-0.558-0.148-1.126-0.212-1.716 C8.86,40.412,8.8,39.798,8.735,39.145C8.735,38.867,8.474,38.919,8.491,39.18z"/><radialGradient id="HsMLVgUxX74oCAubRkGgai" cx="45.295" cy="3.33" r="15.162" gradientTransform="matrix(-1 0 0 -.9999 70.695 47.999)" gradientUnits="userSpaceOnUse"><stop offset=".002" stop-color="#f7f7f7"/><stop offset="1" stop-color="#d1d3d4"/></radialGradient><path fill="url(#HsMLVgUxX74oCAubRkGgai)" d="M39.613,38.517c0.008,1.181,0.029,2.408-0.018,3.662c-0.046,1.254-0.159,2.534-0.416,3.821 h-1.055H37.07c0.386-1.258,0.709-2.431,0.972-3.642c0.262-1.212,0.464-2.463,0.607-3.878 C38.714,37.563,39.601,37.606,39.613,38.517z"/><radialGradient id="HsMLVgUxX74oCAubRkGgaj" cx="44.376" cy="3.293" r="14.119" gradientTransform="matrix(-1 0 0 -.9999 70.695 47.999)" gradientUnits="userSpaceOnUse"><stop offset=".002" stop-color="#f0f0f0"/><stop offset="1" stop-color="#d0d2d2"/></radialGradient><path fill="url(#HsMLVgUxX74oCAubRkGgaj)" d="M39.555,38.612c0.003,1.177,0.014,2.389-0.039,3.624c-0.05,1.201-0.161,2.424-0.404,3.657 c-0.006,0.036-0.917,0.071-0.924,0.107h-0.504H37.18c0.216-0.705,0.41-1.384,0.583-2.057c0.126-0.491,0.24-0.979,0.344-1.474 c0.034-0.161,0.067-0.324,0.098-0.487c0.132-0.679,0.245-1.376,0.341-2.112c0.049-0.376,0.094-0.763,0.134-1.162 c0.042-0.571,0.402-0.772,0.639-0.627C39.432,38.135,39.554,38.318,39.555,38.612z"/><radialGradient id="HsMLVgUxX74oCAubRkGgak" cx="43.482" cy="3.259" r="13.11" gradientTransform="matrix(-1 0 0 -.9999 70.695 47.999)" gradientUnits="userSpaceOnUse"><stop offset=".002" stop-color="#eaeaea"/><stop offset="1" stop-color="#cfd0d1"/></radialGradient><path fill="url(#HsMLVgUxX74oCAubRkGgak)" d="M39.496,38.707c-0.003,1.174,0,2.37-0.059,3.586c-0.054,1.147-0.164,2.314-0.392,3.493 c-0.012,0.071-0.779,0.143-0.793,0.215h-0.481H37.29c0.209-0.682,0.394-1.339,0.557-1.99c0.119-0.476,0.227-0.95,0.324-1.43 c0.032-0.158,0.063-0.316,0.093-0.475c0.124-0.659,0.229-1.334,0.319-2.046c0.046-0.363,0.089-0.736,0.127-1.122 c0.04-0.527,0.345-0.746,0.548-0.679C39.354,38.257,39.498,38.418,39.496,38.707z"/><radialGradient id="HsMLVgUxX74oCAubRkGgal" cx="42.603" cy="3.231" r="12.12" gradientTransform="matrix(-1 0 0 -.9999 70.695 47.999)" gradientUnits="userSpaceOnUse"><stop offset=".002" stop-color="#e3e3e3"/><stop offset="1" stop-color="#cecfcf"/></radialGradient><path fill="url(#HsMLVgUxX74oCAubRkGgal)" d="M39.438,38.801c-0.008,1.17-0.014,2.351-0.08,3.548c-0.057,1.094-0.166,2.205-0.38,3.328 c-0.018,0.107-0.641,0.214-0.662,0.322h-0.458H37.4c0.202-0.659,0.378-1.294,0.532-1.924c0.113-0.462,0.214-0.921,0.305-1.385 c0.03-0.154,0.059-0.308,0.087-0.463c0.115-0.639,0.213-1.292,0.298-1.98c0.043-0.351,0.083-0.71,0.121-1.081 c0.038-0.482,0.288-0.721,0.457-0.731C39.275,38.379,39.443,38.519,39.438,38.801z"/><radialGradient id="HsMLVgUxX74oCAubRkGgam" cx="41.724" cy="3.207" r="11.133" gradientTransform="matrix(-1 0 0 -.9999 70.695 47.999)" gradientUnits="userSpaceOnUse"><stop offset=".002" stop-color="#ddd"/><stop offset="1" stop-color="#cccdce"/></radialGradient><path fill="url(#HsMLVgUxX74oCAubRkGgam)" d="M39.379,38.896c-0.014,1.166-0.029,2.332-0.101,3.511c-0.061,1.041-0.169,2.095-0.368,3.164 c-0.024,0.142-0.503,0.285-0.532,0.429h-0.435H37.51c0.195-0.636,0.362-1.249,0.507-1.857c0.106-0.447,0.201-0.892,0.285-1.341 c0.028-0.15,0.055-0.3,0.081-0.452c0.107-0.619,0.197-1.251,0.276-1.914c0.041-0.338,0.078-0.684,0.114-1.041 c0.036-0.438,0.232-0.695,0.366-0.783C39.196,38.501,39.387,38.619,39.379,38.896z"/><radialGradient id="HsMLVgUxX74oCAubRkGgan" cx="40.846" cy="3.184" r="10.147" gradientTransform="matrix(-1 0 0 -.9999 70.695 47.999)" gradientUnits="userSpaceOnUse"><stop offset=".002" stop-color="#d6d6d6"/><stop offset="1" stop-color="#cbcccc"/></radialGradient><path fill="url(#HsMLVgUxX74oCAubRkGgan)" d="M39.321,38.991c-0.019,1.163-0.043,2.312-0.122,3.473c-0.065,0.988-0.171,1.985-0.355,3 c-0.03,0.178-0.365,0.356-0.401,0.536h-0.411H37.62c0.188-0.613,0.346-1.204,0.482-1.79c0.1-0.433,0.187-0.863,0.265-1.297 c0.026-0.146,0.051-0.293,0.075-0.44c0.098-0.599,0.181-1.209,0.255-1.848c0.038-0.325,0.073-0.658,0.108-1 c0.034-0.394,0.175-0.669,0.276-0.835C39.118,38.623,39.332,38.719,39.321,38.991z"/><radialGradient id="HsMLVgUxX74oCAubRkGgao" cx="39.967" cy="3.163" r="9.163" gradientTransform="matrix(-1 0 0 -.9999 70.695 47.999)" gradientUnits="userSpaceOnUse"><stop offset=".002" stop-color="#d0d0d0"/><stop offset="1" stop-color="#cacacb"/></radialGradient><path fill="url(#HsMLVgUxX74oCAubRkGgao)" d="M39.262,39.085c-0.025,1.159-0.057,2.293-0.143,3.435c-0.069,0.935-0.174,1.875-0.343,2.836 c-0.036,0.213-0.227,0.428-0.27,0.644h-0.388H37.73c0.181-0.59,0.33-1.159,0.456-1.723c0.093-0.418,0.174-0.834,0.246-1.252 c0.024-0.142,0.047-0.285,0.07-0.428c0.09-0.579,0.165-1.167,0.233-1.782c0.035-0.312,0.068-0.632,0.101-0.96 c0.032-0.349,0.118-0.643,0.185-0.887C39.039,38.745,39.276,38.819,39.262,39.085z"/><path fill="#c9c9c9" d="M39.204,39.18c-0.03,1.156-0.072,2.274-0.164,3.397c-0.092,1.123-0.236,2.25-0.47,3.423h-0.365 H37.84c0.174-0.567,0.314-1.114,0.431-1.656s0.21-1.079,0.29-1.624c0.081-0.558,0.148-1.126,0.212-1.716 c0.063-0.591,0.122-1.205,0.188-1.858C38.96,38.867,39.221,38.919,39.204,39.18z"/><radialGradient id="HsMLVgUxX74oCAubRkGgap" cx="24.492" cy="2.973" r="16.675" gradientTransform="matrix(1 0 .2175 -1.0119 -2.376 48.023)" gradientUnits="userSpaceOnUse"><stop offset=".002" stop-color="#fff"/><stop offset="1" stop-color="#d2d5d6"/></radialGradient><path fill="url(#HsMLVgUxX74oCAubRkGgap)" d="M13.668,34.596c-0.724,2.135-1.511,6.642-1.432,11.363h4.25 c-0.225-4.562,0.834-10.892,1.33-12.379C17.221,33.683,14.198,34.393,13.668,34.596z"/><radialGradient id="HsMLVgUxX74oCAubRkGgaq" cx="23.828" cy="2.973" r="15.862" gradientTransform="matrix(1 0 .1864 -1.0102 -2.035 48.02)" gradientUnits="userSpaceOnUse"><stop offset=".002" stop-color="#f7f7f7"/><stop offset="1" stop-color="#d0d3d3"/></radialGradient><path fill="url(#HsMLVgUxX74oCAubRkGgaq)" d="M13.58,34.617c-0.724,2.135-1.508,6.62-1.43,11.341h4.25 c-0.225-4.562,0.831-10.874,1.327-12.361C17.114,33.71,14.1,34.425,13.58,34.617z"/><radialGradient id="HsMLVgUxX74oCAubRkGgar" cx="23.199" cy="2.973" r="15.144" gradientTransform="matrix(1 0 .1554 -1.0085 -1.699 48.017)" gradientUnits="userSpaceOnUse"><stop offset=".002" stop-color="#eee"/><stop offset="1" stop-color="#ced0d1"/></radialGradient><path fill="url(#HsMLVgUxX74oCAubRkGgar)" d="M13.493,34.639c-0.724,2.135-1.506,6.598-1.427,11.32h4.25 c-0.225-4.562,0.827-10.856,1.324-12.342C17.008,33.737,14.002,34.456,13.493,34.639z"/><radialGradient id="HsMLVgUxX74oCAubRkGgas" cx="22.61" cy="2.973" r="14.535" gradientTransform="matrix(1 0 .1243 -1.0068 -1.358 48.013)" gradientUnits="userSpaceOnUse"><stop offset=".002" stop-color="#e6e6e6"/><stop offset="1" stop-color="#cccece"/></radialGradient><path fill="url(#HsMLVgUxX74oCAubRkGgas)" d="M13.405,34.66c-0.724,2.135-1.503,6.577-1.424,11.298h4.25 c-0.225-4.562,0.824-10.838,1.321-12.324C16.901,33.764,13.904,34.488,13.405,34.66z"/><radialGradient id="HsMLVgUxX74oCAubRkGgat" cx="22.442" cy="2.974" r="14.578" gradientTransform="matrix(1 0 .0932 -1.0051 -1.017 48.01)" gradientUnits="userSpaceOnUse"><stop offset=".002" stop-color="#ddd"/><stop offset="1" stop-color="#cacbcc"/></radialGradient><path fill="url(#HsMLVgUxX74oCAubRkGgat)" d="M13.318,34.682c-0.724,2.135-1.5,6.555-1.422,11.277h4.25 c-0.225-4.562,0.821-10.82,1.318-12.306C16.794,33.791,13.806,34.52,13.318,34.682z"/><radialGradient id="HsMLVgUxX74oCAubRkGgau" cx="22.747" cy="2.974" r="15.35" gradientTransform="matrix(1 0 .0621 -1.0034 -.677 48.007)" gradientUnits="userSpaceOnUse"><stop offset=".002" stop-color="#d5d5d5"/><stop offset="1" stop-color="#c8c9c9"/></radialGradient><path fill="url(#HsMLVgUxX74oCAubRkGgau)" d="M13.23,34.703c-0.724,2.135-1.498,6.534-1.419,11.255h4.25 c-0.225-4.562,0.818-10.802,1.315-12.288C16.688,33.819,13.709,34.552,13.23,34.703z"/><radialGradient id="HsMLVgUxX74oCAubRkGgav" cx="23.099" cy="2.974" r="16.248" gradientTransform="matrix(1 0 .0311 -1.0017 -.34 48.003)" gradientUnits="userSpaceOnUse"><stop offset=".002" stop-color="#ccc"/><stop offset="1" stop-color="#c6c6c7"/></radialGradient><path fill="url(#HsMLVgUxX74oCAubRkGgav)" d="M13.142,34.725c-0.724,2.135-1.495,6.512-1.416,11.234h4.25 c-0.225-4.562,0.815-10.784,1.312-12.27C16.581,33.846,13.611,34.583,13.142,34.725z"/><path fill="#c4c4c4" d="M13.055,34.746c-0.724,2.135-1.492,6.491-1.413,11.212h4.25c-0.225-4.562,0.812-10.765,1.308-12.252 C16.475,33.873,13.513,34.615,13.055,34.746z"/><radialGradient id="HsMLVgUxX74oCAubRkGgaw" cx="23.96" cy="3.382" r="16.388" gradientTransform="matrix(1 0 0 -1 0 48)" gradientUnits="userSpaceOnUse"><stop offset=".002" stop-color="#fff"/><stop offset="1" stop-color="#d2d5d6"/></radialGradient><path fill="url(#HsMLVgUxX74oCAubRkGgaw)" d="M24.621,38.597c-0.288-0.241-0.709-0.236-0.991,0.011l-2.14,1.867 c-0.3,0.308-0.816,0.22-0.997-0.171c-1.497-1.989-3.041-4.374-3.202-6.444l13.42-0.02c-0.121,2.129-1.206,4.648-2.786,6.449 c-0.156,0.421-0.696,0.539-1.012,0.22L24.621,38.597z"/><radialGradient id="HsMLVgUxX74oCAubRkGgax" cx="23.96" cy="3.687" r="16.278" gradientTransform="matrix(1 0 0 -1 0 48)" gradientUnits="userSpaceOnUse"><stop offset=".002" stop-color="#f7f7f7"/><stop offset="1" stop-color="#d0d3d3"/></radialGradient><path fill="url(#HsMLVgUxX74oCAubRkGgax)" d="M24.621,38.408c-0.288-0.241-0.709-0.236-0.991,0.011l-2.14,1.867 c-0.3,0.308-0.816,0.22-0.997-0.171c-1.283-1.705-3.07-4.452-3.208-6.225l13.431-0.037c-0.103,1.825-1.437,4.704-2.792,6.248 c-0.156,0.421-0.696,0.539-1.012,0.22L24.621,38.408z"/><radialGradient id="HsMLVgUxX74oCAubRkGgay" cx="23.96" cy="3.991" r="16.172" gradientTransform="matrix(1 0 0 -1 0 48)" gradientUnits="userSpaceOnUse"><stop offset=".002" stop-color="#eee"/><stop offset="1" stop-color="#ced0d1"/></radialGradient><path fill="url(#HsMLVgUxX74oCAubRkGgay)" d="M24.621,38.218c-0.288-0.241-0.709-0.236-0.991,0.011l-2.14,1.867 c-0.3,0.308-0.816,0.22-0.997-0.171c-1.069-1.421-3.099-4.529-3.214-6.007l13.443-0.055c-0.086,1.521-1.669,4.761-2.797,6.047 c-0.156,0.421-0.696,0.539-1.012,0.22L24.621,38.218z"/><radialGradient id="HsMLVgUxX74oCAubRkGgaz" cx="23.96" cy="4.296" r="16.068" gradientTransform="matrix(1 0 0 -1 0 48)" gradientUnits="userSpaceOnUse"><stop offset=".002" stop-color="#e6e6e6"/><stop offset="1" stop-color="#cccece"/></radialGradient><path fill="url(#HsMLVgUxX74oCAubRkGgaz)" d="M24.621,38.029c-0.288-0.241-0.709-0.236-0.991,0.011l-2.14,1.867 c-0.3,0.308-0.816,0.22-0.997-0.171c-0.855-1.137-3.128-4.607-3.219-5.789l13.454-0.072c-0.069,1.217-1.9,4.817-2.803,5.846 c-0.156,0.421-0.696,0.539-1.012,0.22L24.621,38.029z"/><radialGradient id="HsMLVgUxX74oCAubRkGgaA" cx="23.96" cy="4.6" r="15.967" gradientTransform="matrix(1 0 0 -1 0 48)" gradientUnits="userSpaceOnUse"><stop offset=".002" stop-color="#ddd"/><stop offset="1" stop-color="#cacbcc"/></radialGradient><path fill="url(#HsMLVgUxX74oCAubRkGgaA)" d="M24.621,37.839c-0.288-0.241-0.709-0.236-0.991,0.011l-2.14,1.867 c-0.3,0.308-0.816,0.22-0.997-0.171c-0.642-0.852-3.156-4.684-3.225-5.571l13.466-0.089c-0.052,0.913-2.132,4.873-2.809,5.645 c-0.156,0.421-0.696,0.539-1.012,0.22L24.621,37.839z"/><radialGradient id="HsMLVgUxX74oCAubRkGgaB" cx="23.96" cy="4.905" r="15.869" gradientTransform="matrix(1 0 0 -1 0 48)" gradientUnits="userSpaceOnUse"><stop offset=".002" stop-color="#d5d5d5"/><stop offset="1" stop-color="#c8c9c9"/></radialGradient><path fill="url(#HsMLVgUxX74oCAubRkGgaB)" d="M24.621,37.65c-0.288-0.241-0.709-0.236-0.991,0.011l-2.14,1.867 c-0.3,0.308-0.816,0.22-0.997-0.171c-0.428-0.568-3.185-4.762-3.231-5.353l13.477-0.106c-0.034,0.608-2.363,4.93-2.815,5.445 c-0.156,0.421-0.696,0.539-1.012,0.22L24.621,37.65z"/><radialGradient id="HsMLVgUxX74oCAubRkGgaC" cx="23.96" cy="5.209" r="15.774" gradientTransform="matrix(1 0 0 -1 0 48)" gradientUnits="userSpaceOnUse"><stop offset=".002" stop-color="#ccc"/><stop offset="1" stop-color="#c6c6c7"/></radialGradient><path fill="url(#HsMLVgUxX74oCAubRkGgaC)" d="M24.621,37.46c-0.288-0.241-0.709-0.236-0.991,0.011l-2.14,1.867 c-0.3,0.308-0.816,0.22-0.997-0.171c-0.214-0.284-3.214-4.839-3.237-5.135l13.489-0.123c-0.017,0.304-2.595,4.986-2.82,5.244 c-0.156,0.421-0.696,0.539-1.012,0.22L24.621,37.46z"/><path fill="#c4c4c4" d="M24.621,37.271c-0.288-0.241-0.709-0.236-0.991,0.011l-2.14,1.867 c-0.3,0.308-0.816,0.22-0.997-0.171l-3.242-4.917l13.5-0.141l-2.826,5.043c-0.156,0.421-0.696,0.539-1.012,0.22L24.621,37.271z"/><linearGradient id="HsMLVgUxX74oCAubRkGgaD" x1="23.983" x2="24.006" y1="5.931" y2="17.768" gradientTransform="matrix(1 0 0 -1 0 48)" gradientUnits="userSpaceOnUse"><stop offset=".002" stop-color="#fff"/><stop offset=".355" stop-color="#e3e3e3"/><stop offset="1" stop-color="#b3b3b3"/></linearGradient><path fill="url(#HsMLVgUxX74oCAubRkGgaD)" d="M24.16,35.849l-2.671,2.737c-0.3,0.308-0.603,0.156-0.997-0.171	c-1.388-1.237-3.242-3.37-3.242-4.917c0-1.346,0.864-1.567,1.908-1.607l9.904-0.04c1.004,0,1.688,0.301,1.688,1.507	c0,1.688-1.672,3.811-2.826,5.043c-0.288,0.401-0.696,0.539-1.012,0.22L24.16,35.849z"/><radialGradient id="HsMLVgUxX74oCAubRkGgaE" cx="-2.205" cy="-2.607" r="1.867" gradientTransform="matrix(-.8764 .1748 -.3931 -2.1652 9.127 17.05)" gradientUnits="userSpaceOnUse"><stop offset="0" stop-color="#ffe16e"/><stop offset=".461" stop-color="#ffd226"/><stop offset=".741" stop-color="#f8c21d"/><stop offset=".999" stop-color="#f0af13"/></radialGradient><path fill="url(#HsMLVgUxX74oCAubRkGgaE)" d="M12.66,19.601c-0.759-0.243-2.592-0.088-2.656,2.142c-0.06,2.109,0.464,3.07,1.159,3.976	c0.78,1.016,2.183,1.008,2.067,0.201C13.115,25.113,12.66,19.601,12.66,19.601z"/><radialGradient id="HsMLVgUxX74oCAubRkGgaF" cx="-199.274" cy="-2.607" r="1.867" gradientTransform="matrix(.829 .1748 .3719 -2.1652 202.2 51.49)" gradientUnits="userSpaceOnUse"><stop offset="0" stop-color="#ffe16e"/><stop offset=".461" stop-color="#ffd226"/><stop offset=".741" stop-color="#f8c21d"/><stop offset=".999" stop-color="#f0af13"/></radialGradient><path fill="url(#HsMLVgUxX74oCAubRkGgaF)" d="M35.484,19.601c0.718-0.243,2.452-0.088,2.512,2.142c0.057,2.109-0.439,3.07-1.097,3.976	c-0.738,1.016-2.065,1.008-1.955,0.201C35.053,25.113,35.484,19.601,35.484,19.601z"/><radialGradient id="HsMLVgUxX74oCAubRkGgaG" cx="-2.137" cy="53.975" r="14.627" fx="-2.214" fy="47.709" gradientTransform="matrix(.8889 0 0 -1.0694 25.915 77.865)" gradientUnits="userSpaceOnUse"><stop offset="0" stop-color="#ffe16e"/><stop offset=".629" stop-color="#ffd226"/><stop offset=".75" stop-color="#fdcd23"/><stop offset=".899" stop-color="#f6bd1b"/><stop offset=".999" stop-color="#f0af13"/></radialGradient><path fill="url(#HsMLVgUxX74oCAubRkGgaG)" d="M36.838,19.716c0,2.89-0.193,6.659-1.343,8.971C33.256,33.191,27.296,36,24.015,36	c-3.41,0-9.305-2.809-11.544-7.313c-1.149-2.312-1.279-6.081-1.279-8.971c0-0.635,0.017-1.234,0.051-1.803	c0.196-3.271,0.943-5.526,2.101-7.612c2.299-4.141,6.22-6.012,10.671-6.012c4.426,0,8.329,1.841,10.633,5.945	C36.031,12.695,36.838,15.43,36.838,19.716z"/><radialGradient id="HsMLVgUxX74oCAubRkGgaH" cx="22.492" cy="37.459" r="11.216" gradientTransform="matrix(.9947 0 0 -1 1.904 48)" gradientUnits="userSpaceOnUse"><stop offset="0" stop-color="#aa8765"/><stop offset=".059" stop-color="#a17c58"/><stop offset=".165" stop-color="#956d47"/><stop offset=".28" stop-color="#8e653c"/><stop offset=".418" stop-color="#8c6239"/><stop offset=".583" stop-color="#875d34"/><stop offset=".789" stop-color="#774e27"/><stop offset=".999" stop-color="#603813"/></radialGradient><path fill="url(#HsMLVgUxX74oCAubRkGgaH)" d="M11.774,20.328c0,0,0.321-3.984,0.12-5.147c0.905-0.657,3.722-2.63,3.32-5.714	c1.157,0.961,7.092,5.006,16.598,1.82c2.113,2.579,2.515,2.68,4.124,3.641c0.402,1.112,0.553,4.76,0.503,5.367	s0.704,1.062,1.056-0.202C37.606,19.695,38,16.346,38,14c0-5-1.547-12.643-13.884-12.747C12.14,1.152,10.062,8.979,10.062,13.979	c0,3,0.725,6.215,0.725,6.215C10.925,20.951,11.611,20.984,11.774,20.328z"/><g><radialGradient id="HsMLVgUxX74oCAubRkGgaI" cx="22.209" cy="35.216" r="11.687" gradientTransform="matrix(.9537 -.2806 -.2791 -.9608 12.772 52.853)" gradientUnits="userSpaceOnUse"><stop offset="0" stop-color="#aa8765"/><stop offset=".145" stop-color="#a17c57"/><stop offset=".441" stop-color="#926941"/><stop offset=".629" stop-color="#8c6239"/><stop offset=".711" stop-color="#875d34"/><stop offset=".814" stop-color="#774e27"/><stop offset=".919" stop-color="#603813"/></radialGradient><path fill="url(#HsMLVgUxX74oCAubRkGgaI)" d="M37.036,13.333c-0.03-0.099-0.101-0.179-0.19-0.231c-1.459-0.859-2.662-2.693-4.568-4.989 c-0.106-0.128-0.284-0.181-0.442-0.131c-8.114,2.613-14.926,0.077-17.213-1.39C14.334,6.406,14.001,6.637,14,6.983 c-0.012,4.21-1.761,6.11-3.068,6.792c-0.155,0.081-0.228,0.237-0.235,0.412c-0.058,1.359-0.205,4.163,0.022,5.526 c0.04,0.299,0.067,0.479,0.067,0.479c0.138,0.757,0.822,0.79,0.985,0.134c0,0,0.286-3.548,0.149-4.925 c-0.014-0.142,0.051-0.28,0.165-0.364c0.95-0.695,3.026-2.316,3.154-4.741c0.017-0.324,0.362-0.521,0.63-0.341 c2.024,1.362,7.501,4.056,15.652,1.417c0.158-0.051,0.338,0.002,0.444,0.131c1.894,2.294,2.352,2.48,3.798,3.338 c0.088,0.052,0.161,0.133,0.19,0.232c0.366,1.255,0.503,4.638,0.455,5.22c-0.05,0.607,0.703,1.062,1.055-0.202 c0.014-0.051,0.035-0.153,0.06-0.295C37.696,18.917,37.413,14.59,37.036,13.333z"/><radialGradient id="HsMLVgUxX74oCAubRkGgaJ" cx="22.511" cy="35.063" r="11.572" gradientTransform="matrix(.9545 -.2806 -.2794 -.9608 12.46 52.943)" gradientUnits="userSpaceOnUse"><stop offset="0" stop-color="#9f7c59"/><stop offset=".081" stop-color="#9b7652"/><stop offset=".416" stop-color="#8c633c"/><stop offset=".629" stop-color="#865c34"/><stop offset=".719" stop-color="#81572f"/><stop offset=".831" stop-color="#714822"/><stop offset=".919" stop-color="#603813"/></radialGradient><path fill="url(#HsMLVgUxX74oCAubRkGgaJ)" d="M14.071,7.255c0.021,3.627-1.444,5.555-2.683,6.386c-0.151,0.101-0.29,0.203-0.411,0.289 c-0.129,0.092-0.192,0.244-0.196,0.418c-0.028,1.131-0.12,3.172-0.059,4.418c0.002,0.364-0.011,0.671-0.01,0.902 c0.003,0.02,0.006,0.041,0.009,0.06c0.039,0.291,0.065,0.467,0.065,0.467c0.138,0.757,0.822,0.79,0.985,0.134 c0,0,0.286-3.548,0.149-4.925c-0.014-0.142,0.051-0.28,0.165-0.364c0.95-0.695,3.026-2.316,3.154-4.741 c0.017-0.324,0.362-0.521,0.63-0.341c2.024,1.362,7.501,4.056,15.652,1.417c0.158-0.051,0.338,0.002,0.444,0.131 c1.894,2.294,2.352,2.48,3.798,3.338c0.088,0.052,0.161,0.133,0.19,0.232c0.366,1.255,0.503,4.638,0.455,5.22 c-0.05,0.607,0.703,1.062,1.055-0.202c0.014-0.051,0.035-0.153,0.06-0.295c-0.006-0.118-0.024-0.494-0.023-0.961 c0.003-1.478-0.243-4.386-0.547-5.401c-0.029-0.096-0.097-0.173-0.182-0.225c-0.018-0.011-0.036-0.022-0.055-0.033 c-1.438-0.87-2.555-2.454-4.441-4.725c-0.106-0.128-0.284-0.181-0.442-0.131c-8.114,2.613-14.855,0.01-17.142-1.457 C14.404,6.678,14.068,6.909,14.071,7.255z"/><radialGradient id="HsMLVgUxX74oCAubRkGgaK" cx="22.791" cy="34.91" r="11.503" gradientTransform="matrix(.9554 -.2806 -.2796 -.9608 12.141 53.028)" gradientUnits="userSpaceOnUse"><stop offset="0" stop-color="#95704e"/><stop offset=".021" stop-color="#946f4c"/><stop offset=".392" stop-color="#855d36"/><stop offset=".629" stop-color="#7f562e"/><stop offset=".731" stop-color="#7a5129"/><stop offset=".857" stop-color="#6a421c"/><stop offset=".919" stop-color="#603813"/></radialGradient><path fill="url(#HsMLVgUxX74oCAubRkGgaK)" d="M14.141,7.525c0.052,3.504-1.489,5.441-2.739,6.248c-0.152,0.098-0.281,0.21-0.382,0.309 c-0.102,0.101-0.155,0.252-0.157,0.424c-0.01,1.19-0.092,3.299-0.042,4.337c-0.013,0.364-0.069,0.647-0.109,0.831 c0.003,0.022,0.007,0.044,0.01,0.065c0.038,0.283,0.063,0.454,0.063,0.454c0.138,0.757,0.822,0.79,0.985,0.134 c0,0,0.286-3.548,0.149-4.925c-0.014-0.142,0.051-0.28,0.165-0.364c0.95-0.695,3.026-2.316,3.154-4.741 c0.017-0.324,0.362-0.521,0.63-0.341c2.024,1.362,7.501,4.056,15.652,1.417c0.158-0.051,0.338,0.002,0.444,0.131 c1.894,2.294,2.352,2.48,3.798,3.338c0.088,0.052,0.161,0.133,0.19,0.232c0.366,1.255,0.503,4.638,0.455,5.22 c-0.05,0.607,0.703,1.062,1.055-0.202c0.014-0.051,0.035-0.153,0.06-0.295c-0.049-0.038-0.102-0.42-0.097-0.886 c0.015-1.329-0.237-4.319-0.553-5.375c-0.028-0.093-0.093-0.168-0.174-0.22c-0.018-0.012-0.036-0.023-0.055-0.034 c-1.442-0.868-2.479-2.219-4.369-4.494c-0.106-0.128-0.284-0.181-0.442-0.131C23.718,11.27,17.047,8.601,14.76,7.134 C14.475,6.949,14.135,7.18,14.141,7.525z"/><radialGradient id="HsMLVgUxX74oCAubRkGgaL" cx="23.066" cy="34.757" r="11.438" gradientTransform="matrix(.9563 -.2806 -.2799 -.9608 11.828 53.111)" gradientUnits="userSpaceOnUse"><stop offset="0" stop-color="#8a6542"/><stop offset=".346" stop-color="#7f5731"/><stop offset=".629" stop-color="#795029"/><stop offset=".745" stop-color="#744b24"/><stop offset=".888" stop-color="#643c17"/><stop offset=".919" stop-color="#603813"/></radialGradient><path fill="url(#HsMLVgUxX74oCAubRkGgaL)" d="M14.212,7.796c0.092,3.381-1.533,5.328-2.794,6.109c-0.152,0.095-0.273,0.217-0.353,0.33 c-0.076,0.109-0.119,0.259-0.118,0.43c0.01,1.249-0.065,3.426-0.024,4.257c-0.028,0.363-0.127,0.622-0.208,0.76 c0.003,0.024,0.007,0.047,0.01,0.07c0.037,0.276,0.062,0.441,0.062,0.441c0.138,0.757,0.822,0.79,0.985,0.134 c0,0,0.286-3.548,0.149-4.925c-0.014-0.142,0.051-0.28,0.165-0.364c0.95-0.695,3.026-2.316,3.154-4.741 c0.017-0.324,0.362-0.521,0.63-0.341c2.024,1.362,7.501,4.056,15.652,1.417c0.158-0.051,0.338,0.002,0.444,0.131 c1.894,2.294,2.352,2.48,3.798,3.338c0.088,0.052,0.161,0.133,0.19,0.232c0.366,1.255,0.503,4.638,0.455,5.22 c-0.05,0.607,0.703,1.062,1.055-0.202c0.014-0.051,0.035-0.153,0.06-0.295c-0.093,0.041-0.181-0.347-0.171-0.811 c0.025-1.179-0.232-4.252-0.56-5.348c-0.027-0.09-0.089-0.163-0.166-0.215c-0.018-0.012-0.036-0.024-0.055-0.035 c-1.445-0.866-2.403-1.984-4.296-4.263c-0.106-0.128-0.284-0.181-0.442-0.131c-8.114,2.613-14.714-0.123-17.001-1.59 C14.545,7.22,14.202,7.451,14.212,7.796z"/><radialGradient id="HsMLVgUxX74oCAubRkGgaM" cx="23.34" cy="34.604" r="11.374" gradientTransform="matrix(.9572 -.2806 -.2802 -.9608 11.514 53.194)" gradientUnits="userSpaceOnUse"><stop offset="0" stop-color="#805a36"/><stop offset=".285" stop-color="#79512b"/><stop offset=".629" stop-color="#734a23"/><stop offset=".765" stop-color="#6e451e"/><stop offset=".919" stop-color="#603813"/></radialGradient><path fill="url(#HsMLVgUxX74oCAubRkGgaM)" d="M14.282,8.067c0.123,3.257-1.577,5.214-2.85,5.971c-0.153,0.091-0.266,0.222-0.323,0.351 c-0.051,0.115-0.082,0.267-0.079,0.436c0.03,1.308-0.038,3.554-0.007,4.177c-0.044,0.363-0.185,0.598-0.307,0.689 c0.004,0.026,0.007,0.051,0.011,0.075c0.036,0.268,0.06,0.429,0.06,0.429c0.138,0.757,0.822,0.79,0.985,0.134 c0,0,0.286-3.548,0.149-4.925c-0.014-0.142,0.051-0.28,0.165-0.364c0.95-0.695,3.026-2.316,3.154-4.741 c0.017-0.324,0.362-0.521,0.63-0.341c2.024,1.362,7.501,4.056,15.652,1.417c0.158-0.051,0.338,0.002,0.444,0.131 c1.894,2.294,2.352,2.48,3.798,3.338c0.088,0.052,0.161,0.133,0.19,0.232c0.366,1.255,0.503,4.638,0.455,5.22 c-0.05,0.607,0.703,1.062,1.055-0.202c0.014-0.051,0.035-0.153,0.06-0.295c-0.137,0.121-0.26-0.274-0.244-0.736 c0.034-1.03-0.227-4.185-0.567-5.321c-0.026-0.086-0.085-0.158-0.159-0.209c-0.018-0.012-0.036-0.024-0.055-0.035 c-1.449-0.864-2.327-1.749-4.223-4.032c-0.106-0.128-0.284-0.181-0.442-0.131C23.72,11.948,17.19,9.146,14.903,7.678 C14.616,7.491,14.269,7.722,14.282,8.067z"/><radialGradient id="HsMLVgUxX74oCAubRkGgaN" cx="23.613" cy="34.451" r="11.311" gradientTransform="matrix(.9581 -.2806 -.2804 -.9608 11.195 53.277)" gradientUnits="userSpaceOnUse"><stop offset="0" stop-color="#754f2a"/><stop offset=".151" stop-color="#724b26"/><stop offset=".629" stop-color="#6d441e"/><stop offset=".8" stop-color="#683f19"/><stop offset=".919" stop-color="#603813"/></radialGradient><path fill="url(#HsMLVgUxX74oCAubRkGgaN)" d="M14.352,8.338c0.154,3.134-1.622,5.101-2.906,5.833c-0.154,0.088-0.26,0.227-0.294,0.371 c-0.028,0.122-0.046,0.274-0.039,0.442c0.052,1.367-0.01,3.681,0.01,4.097c-0.059,0.363-0.242,0.573-0.406,0.619 c0.004,0.027,0.008,0.054,0.011,0.079c0.035,0.26,0.058,0.416,0.058,0.416c0.138,0.757,0.822,0.79,0.985,0.134 c0,0,0.286-3.548,0.149-4.925c-0.014-0.142,0.051-0.28,0.165-0.364c0.95-0.695,3.026-2.316,3.154-4.741 c0.017-0.324,0.362-0.521,0.63-0.341c2.024,1.362,7.501,4.056,15.652,1.417c0.158-0.051,0.338,0.002,0.444,0.131 c1.894,2.294,2.352,2.48,3.798,3.338c0.088,0.052,0.161,0.133,0.19,0.232c0.366,1.255,0.503,4.638,0.455,5.22 c-0.05,0.607,0.703,1.062,1.055-0.202c0.014-0.051,0.035-0.153,0.06-0.295c-0.181,0.2-0.339-0.201-0.318-0.661 c0.04-0.881-0.222-4.118-0.574-5.294c-0.025-0.083-0.081-0.153-0.151-0.204c-0.018-0.013-0.036-0.025-0.055-0.036 c-1.452-0.862-2.251-1.514-4.151-3.801c-0.106-0.128-0.284-0.181-0.442-0.131c-8.114,2.613-14.574-0.256-16.861-1.723 C14.686,7.761,14.336,7.993,14.352,8.338z"/><radialGradient id="HsMLVgUxX74oCAubRkGgaO" cx="23.886" cy="34.298" r="11.248" gradientTransform="matrix(.9589 -.2806 -.2807 -.9608 10.88 53.36)" gradientUnits="userSpaceOnUse"><stop offset="0" stop-color="#6b431f"/><stop offset=".629" stop-color="#663e18"/><stop offset=".9" stop-color="#613914"/><stop offset=".919" stop-color="#603813"/></radialGradient><path fill="url(#HsMLVgUxX74oCAubRkGgaO)" d="M14.423,8.609c0.179,3.011-1.666,4.987-2.962,5.694c-0.154,0.084-0.257,0.232-0.265,0.392 c-0.006,0.128-0.009,0.281,0,0.447c0.075,1.426,0.017,3.809,0.027,4.017c-0.075,0.363-0.3,0.549-0.505,0.548 c0.004,0.029,0.008,0.057,0.012,0.084c0.034,0.253,0.056,0.403,0.056,0.403c0.138,0.757,0.822,0.79,0.985,0.134 c0,0,0.286-3.548,0.149-4.925c-0.014-0.142,0.051-0.28,0.165-0.364c0.95-0.695,3.026-2.316,3.154-4.741 c0.017-0.324,0.362-0.521,0.63-0.341c2.024,1.362,7.501,4.056,15.652,1.417c0.158-0.051,0.338,0.002,0.444,0.131 c1.894,2.294,2.352,2.48,3.798,3.338c0.088,0.052,0.161,0.133,0.19,0.232c0.366,1.255,0.503,4.638,0.455,5.22 c-0.05,0.607,0.703,1.062,1.055-0.202c0.014-0.051,0.035-0.153,0.06-0.295c-0.225,0.28-0.42-0.128-0.392-0.586 c0.045-0.731-0.216-4.051-0.581-5.268c-0.024-0.08-0.077-0.148-0.143-0.198c-0.017-0.013-0.036-0.026-0.055-0.037 c-1.456-0.861-2.175-1.279-4.078-3.57c-0.106-0.128-0.284-0.181-0.442-0.131c-8.114,2.613-14.503-0.322-16.79-1.79 C14.756,8.032,14.401,8.264,14.423,8.609z"/><g><path fill="#603813" d="M37.061,19.286c0.048-0.582-0.211-3.984-0.587-5.241c-0.03-0.099-0.101-0.179-0.19-0.231 c-1.459-0.859-2.099-1.044-4.005-3.34c-0.106-0.128-0.284-0.181-0.442-0.131c-8.114,2.613-14.433-0.389-16.72-1.856 c-0.289-0.186-0.648,0.046-0.623,0.391c0.211,2.888-1.71,4.874-3.017,5.556c-0.155,0.081-0.255,0.238-0.235,0.412 c0.151,1.364,0.083,4.389,0.083,4.389c-0.09,0.362-0.358,0.525-0.604,0.477c0.04,0.299,0.067,0.479,0.067,0.479 c0.138,0.757,0.822,0.79,0.985,0.134c0,0,0.286-3.548,0.149-4.925c-0.014-0.142,0.051-0.28,0.165-0.364 c0.95-0.695,3.026-2.316,3.154-4.741c0.017-0.324,0.362-0.521,0.63-0.341c2.024,1.362,7.501,4.056,15.652,1.417 c0.158-0.051,0.338,0.002,0.444,0.131c1.894,2.294,2.352,2.48,3.798,3.338c0.088,0.052,0.161,0.133,0.19,0.232 c0.366,1.255,0.503,4.638,0.455,5.22c-0.05,0.607,0.703,1.062,1.055-0.202c0.014-0.051,0.035-0.153,0.06-0.295 C37.258,20.157,37.023,19.743,37.061,19.286z"/></g></g><g><radialGradient id="HsMLVgUxX74oCAubRkGgaP" cx="22.227" cy="32.509" r="9.514" gradientTransform="matrix(.9936 0 0 -1 2.057 48)" gradientUnits="userSpaceOnUse"><stop offset="0" stop-color="#603813" stop-opacity="0"/><stop offset=".999" stop-color="#603813" stop-opacity=".2"/></radialGradient><path fill="url(#HsMLVgUxX74oCAubRkGgaP)" d="M35.476,14.77c-1.437-0.855-1.739-0.982-3.607-3.249c-0.12-0.145-0.288-0.094-0.466-0.036 c-8,2.584-13.177,0.134-15.193-1.18c-0.289-0.188-0.686-0.004-0.71,0.342c-0.158,2.297-2.163,3.586-3.122,4.24 c-0.144,0.098-0.212,0.265-0.196,0.439c0.11,1.216-0.226,4.763-0.345,4.823c0.213-0.051,1.03-3.226,1.171-4.358 c0.017-0.139,0.082-0.261,0.198-0.337c0.886-0.583,2.399-1.465,2.965-3.016c0.094-0.258,0.391-0.373,0.633-0.245 c1.827,0.963,6.988,3.008,14.117,0.864c0.175-0.053,0.368,0.007,0.486,0.147c1.502,1.773,2.383,1.94,3.553,2.462 c0.103,0.046,0.193,0.13,0.24,0.232c0.61,1.315,0.305,4.539,1.245,4.854c-0.409-0.65-0.185-4.419-0.771-5.761 C35.635,14.897,35.56,14.82,35.476,14.77z"/><radialGradient id="HsMLVgUxX74oCAubRkGgaQ" cx="22.508" cy="32.526" r="9.553" gradientTransform="matrix(.9945 0 0 -1 1.763 48)" gradientUnits="userSpaceOnUse"><stop offset="0" stop-color="#5c3512" stop-opacity=".143"/><stop offset=".999" stop-color="#5c3512" stop-opacity=".314"/></radialGradient><path fill="url(#HsMLVgUxX74oCAubRkGgaQ)" d="M15.463,10.59c-0.15,2.313-2.158,3.649-3.119,4.312c-0.023,0.016-0.044,0.033-0.063,0.051 c-0.102,0.097-0.15,0.237-0.136,0.383c0.094,1.003-0.113,3.625-0.236,4.473c-0.039,0.249-0.084,0.403-0.123,0.423 c0.082-0.02,0.203-0.258,0.324-0.616c0.302-0.953,0.707-3.006,0.804-3.867c0.016-0.135,0.078-0.254,0.191-0.329 c0.877-0.586,2.393-1.514,2.964-3.12c0.092-0.258,0.352-0.384,0.569-0.324c0.063,0.017,0.147,0.037,0.232,0.081 c1.939,0.997,7.085,2.983,14.114,0.828c0.14-0.043,0.294-0.011,0.407,0.077c0.03,0.023,0.058,0.05,0.083,0.079 c1.497,1.773,2.291,1.968,3.439,2.496c0.046,0.021,0.092,0.044,0.137,0.069c0.032,0.017,0.062,0.039,0.089,0.063 c0.057,0.051,0.105,0.114,0.135,0.187c0.41,0.97,0.388,2.957,0.634,4.02c0.109,0.47,0.308,0.848,0.6,0.893 c-0.112-0.112-0.192-0.388-0.227-0.747c-0.124-1.246-0.116-3.951-0.565-5.022c-0.038-0.091-0.112-0.168-0.197-0.218 c-1.439-0.856-1.763-0.991-3.635-3.263c-0.117-0.142-0.286-0.106-0.461-0.049c-8.028,2.595-13.25,0.103-15.264-1.216 C15.873,10.066,15.485,10.249,15.463,10.59z"/><radialGradient id="HsMLVgUxX74oCAubRkGgaR" cx="22.787" cy="32.543" r="9.592" gradientTransform="matrix(.9954 0 0 -1 1.47 48)" gradientUnits="userSpaceOnUse"><stop offset="0" stop-color="#573111" stop-opacity=".286"/><stop offset=".999" stop-color="#573111" stop-opacity=".429"/></radialGradient><path fill="url(#HsMLVgUxX74oCAubRkGgaR)" d="M15.426,10.534c-0.142,2.328-2.152,3.712-3.116,4.385c-0.022,0.016-0.043,0.032-0.063,0.05 c-0.104,0.095-0.153,0.234-0.139,0.379c0.1,1.04-0.12,3.842-0.222,4.548c-0.042,0.243-0.098,0.395-0.152,0.422 c0.106-0.025,0.246-0.258,0.366-0.605c0.279-0.911,0.624-3.107,0.717-4.005c0.014-0.131,0.075-0.248,0.184-0.321 c0.867-0.588,2.387-1.562,2.964-3.224c0.09-0.257,0.326-0.353,0.505-0.403c0.055-0.015,0.147-0.002,0.236,0.045 c1.876,0.992,7.132,3.157,14.339,0.908c0.143-0.044,0.299-0.009,0.412,0.086c0.029,0.024,0.056,0.051,0.081,0.081 c1.551,1.845,2.27,2.015,3.465,2.592c0.047,0.023,0.092,0.048,0.136,0.076c0.031,0.02,0.059,0.044,0.084,0.071 c0.051,0.054,0.095,0.121,0.124,0.196c0.39,1.014,0.37,3.117,0.586,4.105c0.101,0.463,0.33,0.87,0.636,0.867 c-0.138-0.088-0.239-0.365-0.267-0.72c-0.088-1.136-0.111-3.974-0.546-5.056c-0.037-0.092-0.11-0.169-0.195-0.219 c-1.441-0.856-1.787-1-3.664-3.277c-0.115-0.139-0.284-0.117-0.455-0.062c-8.055,2.605-13.323,0.073-15.335-1.253 C15.826,10.016,15.447,10.198,15.426,10.534z"/><radialGradient id="HsMLVgUxX74oCAubRkGgaS" cx="23.067" cy="32.556" r="9.632" gradientTransform="matrix(.9963 0 0 -1 1.175 48)" gradientUnits="userSpaceOnUse"><stop offset="0" stop-color="#532e10" stop-opacity=".429"/><stop offset=".999" stop-color="#532e10" stop-opacity=".543"/></radialGradient><path fill="url(#HsMLVgUxX74oCAubRkGgaS)" d="M15.39,10.478c-0.134,2.344-2.147,3.775-3.114,4.457c-0.022,0.016-0.043,0.032-0.063,0.049 c-0.106,0.093-0.156,0.231-0.142,0.375c0.107,1.076-0.126,4.058-0.208,4.623c-0.044,0.238-0.111,0.386-0.18,0.421 c0.13-0.031,0.289-0.259,0.409-0.593c0.255-0.868,0.543-3.207,0.631-4.142c0.012-0.128,0.072-0.241,0.177-0.313 c0.858-0.59,2.38-1.611,2.963-3.327c0.088-0.256,0.293-0.412,0.441-0.482c0.053-0.025,0.148-0.041,0.24,0.01 c1.814,0.986,7.18,3.331,14.564,0.989c0.145-0.046,0.306-0.007,0.416,0.094c0.028,0.026,0.055,0.053,0.08,0.083 c1.606,1.916,2.249,2.059,3.49,2.687c0.047,0.024,0.093,0.052,0.134,0.084c0.029,0.023,0.056,0.049,0.078,0.078 c0.045,0.058,0.085,0.128,0.113,0.206c0.37,1.059,0.351,3.276,0.539,4.189c0.093,0.455,0.353,0.893,0.672,0.841 c-0.163-0.064-0.288-0.342-0.307-0.694c-0.055-1.025-0.107-3.996-0.528-5.09c-0.036-0.093-0.109-0.17-0.194-0.22 c-1.443-0.857-1.811-1.009-3.693-3.291c-0.112-0.136-0.283-0.129-0.45-0.075c-8.083,2.615-13.396,0.043-15.406-1.289 C15.778,9.966,15.409,10.147,15.39,10.478z"/><radialGradient id="HsMLVgUxX74oCAubRkGgaT" cx="23.342" cy="32.567" r="9.672" gradientTransform="matrix(.9973 0 0 -1 .881 48)" gradientUnits="userSpaceOnUse"><stop offset="0" stop-color="#4f2b0e" stop-opacity=".571"/><stop offset=".999" stop-color="#4f2b0e" stop-opacity=".657"/></radialGradient><path fill="url(#HsMLVgUxX74oCAubRkGgaT)" d="M15.353,10.421c-0.126,2.359-2.141,3.838-3.111,4.53c-0.022,0.016-0.043,0.032-0.063,0.048 c-0.108,0.09-0.16,0.227-0.145,0.371c0.113,1.113-0.132,4.274-0.194,4.698c-0.046,0.232-0.125,0.377-0.209,0.419 c0.154-0.037,0.332-0.259,0.452-0.581c0.232-0.826,0.462-3.308,0.544-4.279c0.011-0.124,0.068-0.234,0.17-0.305 c0.849-0.593,2.374-1.66,2.962-3.431c0.085-0.255,0.262-0.441,0.377-0.56c0.048-0.05,0.148-0.08,0.245-0.026 c1.753,0.978,7.228,3.506,14.789,1.07c0.147-0.047,0.312-0.005,0.421,0.102c0.027,0.027,0.054,0.055,0.078,0.085 c1.66,1.987,2.228,2.103,3.515,2.783c0.048,0.025,0.093,0.056,0.132,0.092c0.028,0.025,0.053,0.055,0.073,0.086 c0.04,0.062,0.076,0.135,0.102,0.216c0.35,1.103,0.331,3.435,0.491,4.274c0.085,0.448,0.375,0.915,0.708,0.815 c-0.189-0.039-0.337-0.318-0.346-0.668c-0.024-0.914-0.102-4.019-0.509-5.124c-0.034-0.093-0.107-0.171-0.192-0.221 c-1.445-0.858-1.835-1.018-3.722-3.305c-0.11-0.133-0.281-0.141-0.445-0.088c-8.11,2.623-13.468,0.011-15.476-1.327 C15.73,9.916,15.371,10.096,15.353,10.421z"/><radialGradient id="HsMLVgUxX74oCAubRkGgaU" cx="23.621" cy="32.577" r="9.713" gradientTransform="matrix(.9982 0 0 -1 .588 48)" gradientUnits="userSpaceOnUse"><stop offset="0" stop-color="#4b280d" stop-opacity=".714"/><stop offset=".999" stop-color="#4b280d" stop-opacity=".771"/></radialGradient><path fill="url(#HsMLVgUxX74oCAubRkGgaU)" d="M15.316,10.365c-0.118,2.375-2.136,3.902-3.109,4.603c-0.022,0.016-0.043,0.032-0.063,0.048 c-0.11,0.088-0.163,0.224-0.148,0.367c0.12,1.149-0.138,4.49-0.179,4.773c-0.049,0.227-0.139,0.368-0.237,0.418 c0.178-0.043,0.375-0.26,0.494-0.57c0.209-0.784,0.382-3.409,0.458-4.416c0.009-0.121,0.065-0.228,0.164-0.297 c0.84-0.595,2.368-1.708,2.961-3.535c0.083-0.254,0.225-0.47,0.313-0.639c0.04-0.076,0.148-0.119,0.249-0.062 c1.693,0.969,7.276,3.68,15.014,1.151c0.15-0.049,0.318-0.003,0.425,0.11c0.027,0.028,0.052,0.057,0.077,0.086 c1.714,2.058,2.208,2.145,3.541,2.878c0.048,0.026,0.093,0.06,0.131,0.099c0.027,0.028,0.05,0.06,0.068,0.094 c0.035,0.066,0.066,0.141,0.09,0.225c0.33,1.147,0.31,3.595,0.443,4.359c0.077,0.441,0.398,0.937,0.745,0.789 c-0.215-0.015-0.387-0.294-0.386-0.641c0.003-0.803-0.098-4.041-0.491-5.157c-0.033-0.094-0.105-0.172-0.19-0.222 c-1.447-0.859-1.859-1.027-3.751-3.32c-0.107-0.13-0.279-0.152-0.44-0.101c-8.139,2.635-13.542-0.017-15.548-1.361 C15.683,9.865,15.333,10.045,15.316,10.365z"/><radialGradient id="HsMLVgUxX74oCAubRkGgaV" cx="23.899" cy="32.585" r="9.754" gradientTransform="matrix(.9991 0 0 -1 .294 48)" gradientUnits="userSpaceOnUse"><stop offset="0" stop-color="#46240c" stop-opacity=".857"/><stop offset=".999" stop-color="#46240c" stop-opacity=".886"/></radialGradient><path fill="url(#HsMLVgUxX74oCAubRkGgaV)" d="M15.28,10.309c-0.11,2.391-2.13,3.965-3.106,4.675c-0.022,0.016-0.042,0.031-0.063,0.047 c-0.112,0.086-0.166,0.221-0.151,0.363c0.126,1.185-0.145,4.706-0.165,4.848c-0.051,0.222-0.152,0.359-0.266,0.416 c0.202-0.049,0.418-0.26,0.537-0.558c0.185-0.742,0.305-3.509,0.372-4.553c0.008-0.117,0.062-0.221,0.157-0.289 c0.831-0.598,2.362-1.757,2.96-3.639c0.081-0.254,0.184-0.496,0.249-0.718c0.03-0.101,0.149-0.159,0.253-0.097 c1.634,0.959,7.324,3.854,15.238,1.231c0.152-0.05,0.324-0.002,0.43,0.118c0.026,0.029,0.051,0.059,0.076,0.088 c1.769,2.129,2.19,2.186,3.566,2.974c0.049,0.028,0.093,0.064,0.129,0.107c0.026,0.031,0.047,0.065,0.063,0.102 c0.03,0.069,0.057,0.148,0.079,0.235c0.31,1.191,0.288,3.755,0.395,4.443c0.067,0.433,0.42,0.96,0.781,0.763 c-0.24,0.009-0.439-0.271-0.426-0.615c0.027-0.692-0.093-4.064-0.473-5.191c-0.032-0.095-0.103-0.173-0.188-0.223 c-1.449-0.86-1.883-1.036-3.78-3.334c-0.105-0.127-0.278-0.164-0.434-0.114c-8.167,2.645-13.615-0.048-15.619-1.397 C15.635,9.815,15.294,9.994,15.28,10.309z"/><path fill="#42210b" d="M36.411,20.295c0.048-0.582-0.088-4.086-0.454-5.225c-0.031-0.095-0.101-0.174-0.187-0.224 c-1.451-0.861-1.907-1.045-3.808-3.348c-0.103-0.124-0.276-0.176-0.429-0.126c-8.195,2.655-13.688-0.078-15.69-1.433 c-0.256-0.173-0.587,0.005-0.6,0.315c-0.104,2.459-2.214,4.098-3.166,4.794c-0.114,0.083-0.17,0.218-0.154,0.359 c0.132,1.222-0.151,4.922-0.151,4.922c-0.054,0.216-0.166,0.35-0.294,0.415c0.227-0.054,0.461-0.261,0.58-0.546 c0.162-0.699,0.225-3.61,0.285-4.69c0.006-0.114,0.058-0.214,0.15-0.281c0.929-0.678,2.769-2.131,3.145-4.539 c0.02-0.125,0.149-0.198,0.258-0.133c1.575,0.947,7.371,4.029,15.463,1.312c0.154-0.052,0.331,0,0.434,0.126 c1.888,2.29,2.224,2.308,3.666,3.159c0.084,0.05,0.154,0.131,0.186,0.224c0.362,1.081,0.328,4.115,0.416,4.772 c0.057,0.426,0.443,0.982,0.817,0.736C36.61,20.918,36.382,20.637,36.411,20.295z"/></g><path fill="#805b2a" d="M14.322,21.29c-0.023,0.367,0.055,0.336,0.196,0.519c0,0,1.594,2.204,6.402,0.695	c0.348-0.124,0.598-0.36,0.562-0.644C20.866,16.978,14.699,17.695,14.322,21.29z"/><path fill="#fff" d="M14.393,21.07c-0.12,0.258-0.082,0.464,0,0.672c0.343,0.906,3.095,4.131,6.809,0.745	c0.277-0.239,0.321-0.45,0.252-0.748C21.385,21.44,20.423,19,17.902,19C15.405,19,14.601,20.719,14.393,21.07z"/><linearGradient id="HsMLVgUxX74oCAubRkGgaW" x1="15.901" x2="20.085" y1="26.931" y2="26.931" gradientTransform="matrix(1 0 0 -1 0 48)" gradientUnits="userSpaceOnUse"><stop offset="0" stop-color="#c69c6d"/><stop offset="1" stop-color="#754c24"/></linearGradient><circle cx="17.993" cy="21.069" r="2.092" fill="url(#HsMLVgUxX74oCAubRkGgaW)"/><radialGradient id="HsMLVgUxX74oCAubRkGgaX" cx="17.993" cy="26.931" r="1.053" gradientTransform="matrix(1 0 0 -1 0 48)" gradientUnits="userSpaceOnUse"><stop offset="0" stop-color="#1c1911"/><stop offset=".999" stop-color="#171714"/></radialGradient><circle cx="17.993" cy="21.069" r="1.053" fill="url(#HsMLVgUxX74oCAubRkGgaX)"/><circle cx="17.484" cy="20.526" r=".494" fill="#fff"/><path fill="#805b2a" d="M33.574,21.29c0.023,0.367-0.055,0.336-0.196,0.519c0,0-1.594,2.204-6.402,0.695	c-0.348-0.124-0.598-0.36-0.562-0.644C27.03,16.978,33.197,17.695,33.574,21.29z"/><path fill="#fff" d="M33.503,21.07c0.12,0.258,0.082,0.464,0,0.672c-0.343,0.906-3.095,4.131-6.809,0.745	c-0.277-0.239-0.321-0.45-0.252-0.748C26.511,21.44,27.473,19,29.994,19C32.49,19,33.295,20.719,33.503,21.07z"/><linearGradient id="HsMLVgUxX74oCAubRkGgaY" x1="209.432" x2="213.616" y1="298.932" y2="298.932" gradientTransform="translate(-181.622 -277.863)" gradientUnits="userSpaceOnUse"><stop offset="0" stop-color="#c69c6d"/><stop offset="1" stop-color="#754c24"/></linearGradient><circle cx="29.902" cy="21.069" r="2.092" fill="url(#HsMLVgUxX74oCAubRkGgaY)"/><radialGradient id="HsMLVgUxX74oCAubRkGgaZ" cx="-116.475" cy="26.931" r="1.053" gradientTransform="rotate(180 -43.287 24)" gradientUnits="userSpaceOnUse"><stop offset="0" stop-color="#1c1911"/><stop offset=".999" stop-color="#171714"/></radialGradient><circle cx="29.902" cy="21.069" r="1.053" fill="url(#HsMLVgUxX74oCAubRkGgaZ)"/><circle cx="29.422" cy="20.526" r=".494" fill="#fff"/><g><path fill="#805b2a" d="M32.167,17.222c-1.366-0.349-2.812-0.246-4.06,0.234c-0.388,0.149-0.824-0.044-0.974-0.433 c-0.149-0.388,0.044-0.824,0.433-0.974c0.04-0.015,0.081-0.027,0.122-0.036l0.017-0.003c1.614-0.316,3.275-0.127,4.712,0.517 c0.187,0.083,0.27,0.302,0.187,0.489c-0.075,0.167-0.258,0.251-0.429,0.207L32.167,17.222z"/></g><g><path fill="#805b2a" d="M15.833,16.528c1.437-0.643,3.098-0.833,4.712-0.517l0.013,0.003 c0.408,0.08,0.675,0.476,0.595,0.884c-0.08,0.408-0.476,0.675-0.884,0.595c-0.042-0.008-0.087-0.021-0.126-0.036 c-1.248-0.48-2.693-0.583-4.06-0.234l-0.007,0.002c-0.198,0.051-0.4-0.069-0.45-0.267C15.581,16.78,15.672,16.6,15.833,16.528z"/></g><g><radialGradient id="HsMLVgUxX74oCAubRkGgaaa" cx="-17.845" cy="-75.595" r="2.561" gradientTransform="matrix(1.1109 0 0 -1.3094 43.85 -68.783)" gradientUnits="userSpaceOnUse"><stop offset=".696" stop-color="#cc9000"/><stop offset="1" stop-color="#cc9000" stop-opacity="0"/></radialGradient><path fill="url(#HsMLVgUxX74oCAubRkGgaaa)" d="M24,32.153c-2.85,0-2.946-1.638-2.946-1.638s0.07,3.276,2.946,3.276 s2.946-3.276,2.946-3.276S26.85,32.153,24,32.153z"/><radialGradient id="HsMLVgUxX74oCAubRkGgaab" cx="-38.289" cy="-252.931" r="3.95" fx="-38.292" fy="-252.783" gradientTransform="matrix(.7953 0 0 -.5951 54.451 -120.341)" gradientUnits="userSpaceOnUse"><stop offset=".371" stop-color="#ffd226"/><stop offset=".948" stop-color="#ffe16e"/><stop offset="1" stop-color="#ffe16e" stop-opacity="0"/></radialGradient><path fill="url(#HsMLVgUxX74oCAubRkGgaab)" d="M27.094,30.023c0,0,0.039,2.526-3.094,2.526s-3.094-2.526-3.094-2.526 s0.687,0.769,3.094,0.769S27.094,30.023,27.094,30.023z"/><radialGradient id="HsMLVgUxX74oCAubRkGgaac" cx="-44.316" cy="-47.75" r="3.162" gradientTransform="matrix(.8379 0 0 -.855 61.174 -10.867)" gradientUnits="userSpaceOnUse"><stop offset="0" stop-color="#1c1911"/><stop offset=".999" stop-color="#171714"/></radialGradient><path fill="url(#HsMLVgUxX74oCAubRkGgaac)" d="M21.12,30.023c-0.169,0-0.267,0.179-0.184,0.324c0.617,1.072,2.032,1.396,3.064,1.396 c1.121,0,2.446-0.324,3.064-1.396c0.083-0.144-0.015-0.324-0.184-0.324C24.975,30.148,23.055,30.157,21.12,30.023z"/></g><g><radialGradient id="HsMLVgUxX74oCAubRkGgaad" cx="23.877" cy="2.852" r="17.629" gradientTransform="matrix(1 0 0 -1 0 48)" gradientUnits="userSpaceOnUse"><stop offset=".002" stop-color="#fff"/><stop offset="1" stop-color="#d2d5d6"/></radialGradient><path fill="url(#HsMLVgUxX74oCAubRkGgaad)" d="M35.324,34.813l0.818,0.248c0,0,1.405,3.972,1.279,10.924c-0.713,0-0.841,0-0.841,0 S36.834,39.881,35.324,34.813z"/><radialGradient id="HsMLVgUxX74oCAubRkGgaae" cx="23.803" cy="2.851" r="17.629" gradientTransform="matrix(1 0 0 -1 0 48)" gradientUnits="userSpaceOnUse"><stop offset=".002" stop-color="#f7f7f7"/><stop offset="1" stop-color="#d0d3d3"/></radialGradient><path fill="url(#HsMLVgUxX74oCAubRkGgaae)" d="M35.25,34.792l0.818,0.249c0,0,1.405,3.98,1.279,10.945c-0.713,0-0.841,0-0.841,0 S36.761,39.871,35.25,34.792z"/><radialGradient id="HsMLVgUxX74oCAubRkGgaaf" cx="23.729" cy="2.85" r="17.629" gradientTransform="matrix(1 0 0 -1 0 48)" gradientUnits="userSpaceOnUse"><stop offset=".002" stop-color="#eee"/><stop offset="1" stop-color="#ced0d1"/></radialGradient><path fill="url(#HsMLVgUxX74oCAubRkGgaaf)" d="M35.177,34.772l0.818,0.249c0,0,1.405,3.988,1.279,10.967c-0.713,0-0.841,0-0.841,0 S36.687,39.861,35.177,34.772z"/><radialGradient id="HsMLVgUxX74oCAubRkGgaag" cx="23.656" cy="2.85" r="17.629" gradientTransform="matrix(1 0 0 -1 0 48)" gradientUnits="userSpaceOnUse"><stop offset=".002" stop-color="#e6e6e6"/><stop offset="1" stop-color="#cccece"/></radialGradient><path fill="url(#HsMLVgUxX74oCAubRkGgaag)" d="M35.103,34.752l0.818,0.25c0,0,1.405,3.996,1.279,10.989c-0.713,0-0.841,0-0.841,0 S36.613,39.851,35.103,34.752z"/><radialGradient id="HsMLVgUxX74oCAubRkGgaah" cx="23.582" cy="2.849" r="17.63" gradientTransform="matrix(1 0 0 -1 0 48)" gradientUnits="userSpaceOnUse"><stop offset=".002" stop-color="#ddd"/><stop offset="1" stop-color="#cacbcc"/></radialGradient><path fill="url(#HsMLVgUxX74oCAubRkGgaah)" d="M35.029,34.732l0.818,0.25c0,0,1.405,4.004,1.279,11.011c-0.713,0-0.841,0-0.841,0 S36.54,39.841,35.029,34.732z"/><radialGradient id="HsMLVgUxX74oCAubRkGgaai" cx="23.508" cy="2.849" r="17.63" gradientTransform="matrix(1 0 0 -1 0 48)" gradientUnits="userSpaceOnUse"><stop offset=".002" stop-color="#d5d5d5"/><stop offset="1" stop-color="#c8c9c9"/></radialGradient><path fill="url(#HsMLVgUxX74oCAubRkGgaai)" d="M34.956,34.712l0.818,0.251c0,0,1.405,4.012,1.279,11.033c-0.713,0-0.841,0-0.841,0 S36.466,39.831,34.956,34.712z"/><radialGradient id="HsMLVgUxX74oCAubRkGgaaj" cx="23.435" cy="2.848" r="17.63" gradientTransform="matrix(1 0 0 -1 0 48)" gradientUnits="userSpaceOnUse"><stop offset=".002" stop-color="#ccc"/><stop offset="1" stop-color="#c6c6c7"/></radialGradient><path fill="url(#HsMLVgUxX74oCAubRkGgaaj)" d="M34.882,34.692l0.818,0.251c0,0,1.405,4.02,1.279,11.055c-0.713,0-0.841,0-0.841,0 S36.392,39.821,34.882,34.692z"/><path fill="#c4c4c4" d="M34.808,34.672l0.818,0.252c0,0,1.405,4.028,1.279,11.076c-0.713,0-0.841,0-0.841,0 S36.319,39.811,34.808,34.672z"/></g><linearGradient id="HsMLVgUxX74oCAubRkGgaak" x1="23.99" x2="23.99" y1="13.047" y2="2.207" gradientTransform="matrix(1 0 0 -1 0 48)" gradientUnits="userSpaceOnUse"><stop offset=".002" stop-color="#90bcfc"/><stop offset=".378" stop-color="#709cdc"/><stop offset=".981" stop-color="#416dac"/></linearGradient><path fill="url(#HsMLVgUxX74oCAubRkGgaak)" d="M35.307,34.794c-0.216-0.571-4.256-1.412-4.17-1.063c0.36,1.082,0.996,4.646,1.233,8.269	H15.61c0.237-3.623,0.872-7.186,1.233-8.269c0.085-0.349-3.954,0.492-4.17,1.063C11.949,36.936,11.22,41.263,11.299,46H14h1.548	h16.884H34h2.682C36.76,41.263,36.032,36.936,35.307,34.794z"/><radialGradient id="HsMLVgUxX74oCAubRkGgaal" cx="23.917" cy="40.833" r="14.922" gradientTransform="matrix(1 0 0 -.5379 0 29.13)" gradientUnits="userSpaceOnUse"><stop offset="0" stop-color="#fbcc4d"/><stop offset=".147" stop-color="#f3c549"/><stop offset=".371" stop-color="#deb03f"/><stop offset=".645" stop-color="#bb8f2d"/><stop offset=".956" stop-color="#8b6216"/><stop offset=".999" stop-color="#845b12"/></radialGradient><path fill="url(#HsMLVgUxX74oCAubRkGgaal)" d="M10.167,17.346c0-1.933,6.203-3.499,13.854-3.499c7.519,0,13.624,1.514,13.834,3.4	c0.201-1.947,0.327-3.903,0.395-5.865c0-4.953-3.249-9.279-7.602-10.671c-2.911-0.93-10.527-0.962-13.229-0.012	c-4.294,1.508-7.502,5.755-7.502,10.727c0.03,2.161,0.115,4.181,0.25,6.074h0.031C10.189,17.449,10.167,17.398,10.167,17.346z"/><radialGradient id="HsMLVgUxX74oCAubRkGgaam" cx="24.25" cy="30.115" r="26.004" gradientTransform="matrix(1 0 0 -.4975 0 32.868)" gradientUnits="userSpaceOnUse"><stop offset="0" stop-color="#563708"/><stop offset=".143" stop-color="#5e3d09"/><stop offset=".365" stop-color="#744c0c"/><stop offset=".587" stop-color="#906110"/><stop offset="1" stop-color="#d4a238"/></radialGradient><path fill="url(#HsMLVgUxX74oCAubRkGgaam)" d="M37.445,8.373c-5.311,0.125-7.248-1.527-13.278-1.558V6.813	c-0.029,0-0.055,0.001-0.084,0.001s-0.055-0.001-0.084-0.001v0.003c-6.03,0.031-7.967,1.683-13.278,1.558	C5.646,8.25,1.334,9.792,1.792,14.25c0.375,2.875,2.833,5.417,4.333,6.5c0.988,0.601,1.816,1.237,3.881,1.747	c-0.002-0.019-0.005-0.042-0.007-0.059c-0.125-1.313,0.719-2.469,0.719-2.469l-0.344-2.172c-0.061-0.126-0.031-0.402-0.031-0.531	c0-1.829,6.026-3.224,13.677-3.224s13.799,1.46,13.799,3.289c0,0.051-0.006,0.102-0.016,0.152c-0.063,0.565-0.214,1.951-0.341,2.667	c0.572,0.73,0.543,1.977,0.51,2.392c2.218-0.517,3.048-1.171,4.069-1.791c1.5-1.083,3.958-3.625,4.333-6.5	C46.833,9.792,42.521,8.25,37.445,8.373z"/><path fill="#ecbe49" d="M37.973,22.541c0.004-0.001,0.007-0.002,0.011-0.003c-0.001-0.039-0.002-0.078-0.004-0.119	C37.977,22.462,37.975,22.508,37.973,22.541z"/><path fill="#ecbe49" d="M10.722,8.915C16.033,9.04,17.97,7.388,24,7.357V7.354c0.029,0,0.055,0.001,0.084,0.001	s0.055-0.001,0.084-0.001v0.003c6.03,0.031,7.967,1.683,13.278,1.558c4.695-0.114,8.728,1.201,8.946,4.925	c0.153-4.137-4.032-5.587-8.946-5.467c-5.311,0.125-7.248-1.527-13.278-1.558V6.813c-0.029,0-0.055,0.001-0.084,0.001	S24.029,6.813,24,6.813v0.003c-6.03,0.031-7.967,1.683-13.278,1.558c-4.914-0.12-9.099,1.33-8.946,5.467	C1.995,10.116,6.028,8.801,10.722,8.915z"/><path fill="#ecbe49" d="M9.995,22.494c0.004,0.001,0.007,0.002,0.011,0.003c-0.001-0.014-0.003-0.031-0.005-0.046	C10,22.465,9.996,22.479,9.995,22.494z"/><g><radialGradient id="HsMLVgUxX74oCAubRkGgaan" cx="24.068" cy="31.625" r="9.842" gradientTransform="matrix(1 0 0 -1.0065 0 48.206)" gradientUnits="userSpaceOnUse"><stop offset="0" stop-color="#603813" stop-opacity="0"/><stop offset=".999" stop-color="#603813" stop-opacity=".2"/></radialGradient><path fill="url(#HsMLVgUxX74oCAubRkGgaan)" d="M37.667,18.479l0.125-1.281c-0.291-1.766-6.307-3.156-13.771-3.156 c-7.651,0-13.677,1.395-13.677,3.224c0,0.118,0.115,1.306,0.156,1.443c0.278-1.792,4.667-3.271,13.521-3.271 C28.458,15.438,36.792,16.074,37.667,18.479z"/><radialGradient id="HsMLVgUxX74oCAubRkGgaao" cx="24.068" cy="31.695" r="9.834" gradientTransform="matrix(1 0 0 -1.0065 0 48.207)" gradientUnits="userSpaceOnUse"><stop offset="0" stop-color="#603813" stop-opacity=".143"/><stop offset=".999" stop-color="#603813" stop-opacity=".314"/></radialGradient><path fill="url(#HsMLVgUxX74oCAubRkGgaao)" d="M37.685,18.352l0.107-1.155c-0.291-1.766-6.307-3.156-13.771-3.156 c-7.651,0-13.677,1.395-13.677,3.224c0,0.118,0.096,1.169,0.137,1.306c0.278-1.792,4.685-3.277,13.54-3.277 C28.458,15.295,36.81,15.948,37.685,18.352z"/><radialGradient id="HsMLVgUxX74oCAubRkGgaap" cx="24.067" cy="31.762" r="9.826" gradientTransform="matrix(1 0 0 -1.0065 0 48.207)" gradientUnits="userSpaceOnUse"><stop offset="0" stop-color="#603813" stop-opacity=".286"/><stop offset=".999" stop-color="#603813" stop-opacity=".429"/></radialGradient><path fill="url(#HsMLVgUxX74oCAubRkGgaap)" d="M37.702,18.226l0.089-1.028c-0.291-1.766-6.307-3.156-13.771-3.156 c-7.651,0-13.677,1.395-13.677,3.224c0,0.118,0.077,1.032,0.119,1.169c0.278-1.792,4.704-3.283,13.558-3.283 C28.458,15.152,36.827,15.821,37.702,18.226z"/><radialGradient id="HsMLVgUxX74oCAubRkGgaaq" cx="24.067" cy="31.831" r="9.819" gradientTransform="matrix(1 0 0 -1.0065 0 48.208)" gradientUnits="userSpaceOnUse"><stop offset="0" stop-color="#603813" stop-opacity=".429"/><stop offset=".999" stop-color="#603813" stop-opacity=".543"/></radialGradient><path fill="url(#HsMLVgUxX74oCAubRkGgaaq)" d="M37.72,18.099l0.071-0.901c-0.291-1.766-6.307-3.156-13.771-3.156 c-7.651,0-13.677,1.395-13.677,3.224c0,0.118,0.058,0.895,0.1,1.032c0.278-1.792,4.723-3.289,13.577-3.289 C28.458,15.009,36.845,15.694,37.72,18.099z"/><radialGradient id="HsMLVgUxX74oCAubRkGgaar" cx="24.068" cy="31.9" r="9.812" gradientTransform="matrix(1 0 0 -1.0065 0 48.208)" gradientUnits="userSpaceOnUse"><stop offset="0" stop-color="#603813" stop-opacity=".571"/><stop offset=".999" stop-color="#603813" stop-opacity=".657"/></radialGradient><path fill="url(#HsMLVgUxX74oCAubRkGgaar)" d="M37.738,17.972l0.054-0.775c-0.291-1.766-6.307-3.156-13.771-3.156 c-7.651,0-13.677,1.395-13.677,3.224c0,0.118,0.039,0.758,0.081,0.895c0.278-1.792,4.742-3.295,13.596-3.295 C28.458,14.866,36.863,15.568,37.738,17.972z"/><radialGradient id="HsMLVgUxX74oCAubRkGgaas" cx="24.068" cy="31.968" r="9.805" gradientTransform="matrix(1 0 0 -1.0065 0 48.209)" gradientUnits="userSpaceOnUse"><stop offset="0" stop-color="#603813" stop-opacity=".714"/><stop offset=".999" stop-color="#603813" stop-opacity=".771"/></radialGradient><path fill="url(#HsMLVgUxX74oCAubRkGgaas)" d="M37.756,17.846l0.036-0.648c-0.291-1.766-6.307-3.156-13.771-3.156 c-7.651,0-13.677,1.395-13.677,3.224c0,0.118,0.021,0.621,0.062,0.758c0.278-1.792,4.761-3.301,13.615-3.301 C28.458,14.723,36.881,15.441,37.756,17.846z"/><radialGradient id="HsMLVgUxX74oCAubRkGgaat" cx="24.068" cy="32.036" r="9.798" gradientTransform="matrix(1 0 0 -1.0065 0 48.209)" gradientUnits="userSpaceOnUse"><stop offset="0" stop-color="#603813" stop-opacity=".857"/><stop offset=".999" stop-color="#603813" stop-opacity=".886"/></radialGradient><path fill="url(#HsMLVgUxX74oCAubRkGgaat)" d="M37.774,17.719l0.018-0.521c-0.291-1.766-6.307-3.156-13.771-3.156 c-7.651,0-13.677,1.395-13.677,3.224c0,0.118,0.002,0.485,0.043,0.621c0.278-1.792,4.78-3.307,13.634-3.307 C28.458,14.58,36.899,15.314,37.774,17.719z"/><path fill="#603813" d="M37.792,17.592v-0.395c-0.291-1.766-6.307-3.156-13.771-3.156c-7.651,0-13.677,1.395-13.677,3.224 c0,0.118-0.017,0.348,0.024,0.484c0.278-1.792,4.798-3.313,13.653-3.313C28.458,14.438,36.917,15.188,37.792,17.592z"/></g><g><path fill="#7c7c7c" d="M9.667,27c0,0,0.333,4.229,0.333,6v4.778c0,0.324-0.129,0.63-0.364,0.86 C9.39,38.879,9.061,39.017,8.7,39H8v-6c0-3.708-0.938-6.271-1.333-6C6.667,27,7,31.229,7,33v6H5v-6c0-3.708-0.938-6.271-1.333-6 C3.667,27,4,31.229,4,33v6H3.29c-0.344,0.017-0.632-0.107-0.862-0.332C2.152,38.397,2,37.982,2,37.5V33 c0-3.708-0.938-6.271-1.333-6C0.667,27,1,31.229,1,33v4.608h0.009c0.024,0.708,0.273,1.337,0.719,1.774 c0.408,0.4,0.952,0.619,1.525,0.618c0.016,0,0.031,0,0.047,0h5.39c0.619,0.003,1.206-0.217,1.646-0.647 c0.426-0.418,0.661-0.972,0.664-1.564h0V33C11,29.292,10.063,26.729,9.667,27z"/><path fill="#848484" d="M0.705,27.089c0.014,0.199,0.33,4.223,0.33,5.896v4.584h0.008c0.001,0.028,0.002,0.067,0.004,0.094 c0.002,0.025,0.004,0.05,0.006,0.076c0.051,0.635,0.29,1.195,0.695,1.592c0.36,0.354,0.829,0.562,1.33,0.597 c0.015,0.001,0.038,0.002,0.053,0.003c0.038,0.002,0.087,0.003,0.125,0.003c0.013,0,0.027,0,0.04,0h5.358 c0.045,0,0.111-0.001,0.156-0.004c0.559-0.027,1.079-0.242,1.475-0.63c0.372-0.365,0.595-0.837,0.639-1.346 c0.006-0.06,0.009-0.146,0.01-0.208h0.001v-4.763c0-3.448-0.852-5.984-1.23-5.896c0.014,0.199,0.276,3.545,0.322,5.393 c0.005,0.184,0.008,0.434,0.008,0.583v4.338c0,0.02-0.003,0.4-0.008,0.419c-0.01,0.316-0.141,0.612-0.372,0.838 C9.41,38.9,9.083,39.04,8.726,39.033c-0.011,0.002-0.232,0.002-0.243,0.002H8.444H8.019l-0.034-0.172 c-0.028,0-0.05-0.476-0.05-0.504v-5.251c0-0.265-0.006-0.647-0.016-0.898c-0.115-3.023-0.864-5.19-1.214-5.121 c0.014,0.199,0.271,3.481,0.32,5.337c0.006,0.206,0.009,0.483,0.009,0.647v5.469c0,0.028-0.022,0.493-0.05,0.493h-2 c-0.028,0-0.05-0.476-0.05-0.504v-5.449c0-0.208-0.003-0.509-0.01-0.708c-0.093-3.114-0.864-5.358-1.22-5.285 c0.014,0.199,0.276,3.545,0.322,5.393c0.005,0.184,0.008,0.43,0.008,0.58v5.595c0,0.019-0.01,0.363-0.026,0.372 c-0.007,0.004-0.177,0.006-0.186,0.006H3.305c-0.067,0.003-0.161,0-0.222-0.008c-0.018-0.003-0.045-0.005-0.062-0.009 C2.8,38.98,2.605,38.88,2.438,38.731c-0.119-0.106-0.219-0.237-0.297-0.388c-0.109-0.213-0.173-0.466-0.186-0.742 c-0.013-0.035-0.02-0.776-0.02-0.818v-3.671c0-0.273-0.006-0.665-0.017-0.923C1.801,29.178,1.054,27.021,0.705,27.089z"/><path fill="#8c8c8c" d="M0.744,27.179c0.028,0.398,0.326,4.216,0.326,5.792v4.561l0.007,0.001 c0.001,0.023,0.002,0.07,0.003,0.093c0.003,0.025,0.005,0.049,0.007,0.074c0.046,0.633,0.282,1.191,0.681,1.582 c0.357,0.35,0.823,0.555,1.321,0.584c0.013,0.001,0.04,0.002,0.053,0.003c0.031,0.002,0.086,0.003,0.118,0.003 c0.011,0,0.023,0,0.034,0h5.325c0.038,0,0.117-0.001,0.154-0.003c0.557-0.023,1.073-0.234,1.463-0.616 c0.37-0.362,0.588-0.834,0.626-1.341c0.005-0.05,0.008-0.151,0.008-0.202h0.001v-4.738c0-3.188-0.767-5.697-1.126-5.792 c0.028,0.398,0.282,3.652,0.32,5.372c0.004,0.154,0.006,0.455,0.006,0.579v4.318c0,0.04-0.005,0.379-0.015,0.417 c-0.02,0.307-0.153,0.594-0.379,0.816c-0.247,0.241-0.571,0.384-0.924,0.386c-0.021,0.003-0.218,0.005-0.24,0.005H8.468H8.039 L7.97,38.927c-0.055,0-0.1-0.423-0.1-0.478v-5.232c0-0.221-0.005-0.683-0.013-0.892c-0.096-2.834-0.777-5.035-1.113-5.146 c0.028,0.398,0.277,3.599,0.318,5.326c0.005,0.172,0.008,0.505,0.008,0.641v5.455c0,0.055-0.045,0.469-0.1,0.469h-2 c-0.055,0-0.1-0.423-0.1-0.478v-5.427c0-0.173-0.003-0.537-0.008-0.703c-0.078-2.91-0.777-5.175-1.118-5.283 c0.028,0.398,0.282,3.652,0.32,5.372c0.004,0.154,0.006,0.448,0.006,0.572v5.573c0,0.038-0.021,0.344-0.051,0.361 c-0.014,0.008-0.166,0.013-0.183,0.013H3.32c-0.055,0.003-0.169,0-0.22-0.007c-0.015-0.002-0.047-0.004-0.062-0.007 c-0.221-0.031-0.417-0.123-0.589-0.262c-0.124-0.101-0.232-0.226-0.318-0.373c-0.12-0.205-0.194-0.45-0.22-0.72 c-0.026-0.069-0.04-0.733-0.04-0.816v-3.661c0-0.227-0.005-0.703-0.014-0.917C1.758,29.483,1.079,27.29,0.744,27.179z"/><path fill="#949494" d="M0.783,27.268c0.041,0.597,0.323,4.21,0.323,5.687v4.537l0.005,0.001 c0.001,0.018,0.002,0.073,0.003,0.091c0.003,0.024,0.006,0.048,0.007,0.073c0.041,0.631,0.273,1.186,0.668,1.573 c0.354,0.347,0.817,0.547,1.312,0.571c0.01,0.001,0.042,0.002,0.052,0.002c0.025,0.001,0.085,0.002,0.11,0.002 c0.009,0,0.018,0,0.027,0h5.293c0.03,0,0.122-0.001,0.152-0.002c0.555-0.018,1.066-0.226,1.45-0.602 c0.367-0.36,0.582-0.831,0.612-1.336c0.004-0.04,0.006-0.156,0.006-0.197h0.001v-4.713c0-2.928-0.681-5.41-1.023-5.687 c0.041,0.597,0.287,3.758,0.317,5.352c0.003,0.123,0.005,0.475,0.005,0.575v4.299c0,0.06-0.008,0.359-0.023,0.415 c-0.031,0.298-0.165,0.576-0.386,0.793c-0.247,0.242-0.569,0.387-0.918,0.398c-0.032,0.005-0.205,0.007-0.238,0.007l-0.051-0.001 H8.054L7.955,38.99c-0.083,0-0.15-0.37-0.15-0.452v-5.213c0-0.177-0.004-0.719-0.011-0.886c-0.077-2.644-0.689-4.88-1.012-5.171 c0.041,0.597,0.284,3.716,0.316,5.315c0.004,0.137,0.006,0.527,0.006,0.636v5.441c0,0.083-0.067,0.445-0.15,0.445h-2 c-0.083,0-0.15-0.37-0.15-0.453v-5.406c0-0.139-0.002-0.566-0.007-0.699c-0.062-2.705-0.689-4.992-1.016-5.28 C3.824,27.865,4.07,31.026,4.1,32.62c0.003,0.123,0.005,0.465,0.005,0.565v5.552c0,0.056-0.031,0.324-0.077,0.35 c-0.022,0.012-0.154,0.019-0.181,0.019H3.335c-0.044,0.002-0.177,0-0.218-0.006c-0.012-0.002-0.05-0.003-0.062-0.005 c-0.221-0.025-0.42-0.108-0.596-0.237c-0.13-0.095-0.244-0.215-0.338-0.357c-0.13-0.197-0.216-0.435-0.254-0.698 c-0.04-0.104-0.061-0.689-0.061-0.815v-3.651c0-0.182-0.004-0.74-0.011-0.912C1.716,29.788,1.105,27.559,0.783,27.268z"/><path fill="#9b9b9b" d="M0.821,27.357c0.055,0.796,0.319,4.204,0.319,5.583v4.513l0.004,0.001 c0,0.014,0.001,0.075,0.002,0.089c0.004,0.023,0.006,0.047,0.008,0.071c0.036,0.629,0.265,1.182,0.654,1.564 c0.351,0.344,0.811,0.54,1.303,0.558c0.008,0.001,0.044,0.001,0.052,0.002c0.019,0.001,0.084,0.002,0.103,0.002 c0.007,0,0.014,0,0.021,0h5.261c0.023,0,0.128,0,0.15-0.002c0.553-0.014,1.06-0.218,1.438-0.589 c0.365-0.358,0.576-0.827,0.599-1.331c0.003-0.03,0.005-0.16,0.005-0.191l0,0l0.001-4.688c0-2.667-0.596-5.123-0.919-5.583 c0.055,0.796,0.292,3.865,0.315,5.332c0.002,0.092,0.004,0.496,0.004,0.571v4.279c0,0.08-0.011,0.338-0.031,0.413 c-0.041,0.29-0.177,0.559-0.393,0.771c-0.248,0.242-0.567,0.389-0.912,0.41c-0.043,0.006-0.192,0.009-0.235,0.009L8.512,39.14 H8.075L7.94,39.054c-0.11,0-0.2-0.316-0.2-0.427v-5.194c0-0.133-0.003-0.755-0.008-0.88c-0.057-2.455-0.602-4.726-0.911-5.196 c0.055,0.796,0.29,3.833,0.314,5.304c0.003,0.103,0.005,0.549,0.005,0.631v5.427c0,0.11-0.09,0.422-0.2,0.422h-2 c-0.11,0-0.2-0.317-0.2-0.427v-5.385c0-0.104-0.002-0.594-0.005-0.694c-0.047-2.5-0.602-4.81-0.914-5.278 c0.055,0.796,0.292,3.865,0.315,5.332c0.002,0.092,0.004,0.483,0.004,0.557v5.53c0,0.075-0.041,0.305-0.103,0.339 C4.009,39.131,3.895,39.14,3.86,39.14H3.35c-0.033,0.002-0.185,0-0.216-0.004c-0.009-0.001-0.053-0.002-0.062-0.004 c-0.22-0.018-0.422-0.092-0.603-0.212c-0.135-0.089-0.257-0.203-0.359-0.342c-0.14-0.189-0.237-0.419-0.289-0.676 c-0.053-0.139-0.081-0.646-0.081-0.813v-3.641c0-0.136-0.003-0.777-0.008-0.906C1.673,30.094,1.13,27.828,0.821,27.357z"/><path fill="#a3a3a3" d="M0.86,27.446c0.069,0.995,0.315,4.197,0.315,5.479v4.49l0.003,0.002 c0,0.009,0.001,0.078,0.001,0.087c0.004,0.023,0.007,0.046,0.008,0.07c0.031,0.627,0.256,1.178,0.641,1.554 c0.347,0.341,0.806,0.533,1.294,0.545c0.005,0,0.046,0.001,0.052,0.001c0.013,0.001,0.083,0.001,0.096,0.001 c0.004,0,0.01,0,0.014,0h5.228c0.015,0,0.133,0,0.148-0.001c0.551-0.009,1.053-0.21,1.425-0.575 c0.363-0.355,0.569-0.824,0.585-1.326c0.002-0.02,0.003-0.165,0.003-0.186l0,0l0.001-4.662c0-2.407-0.511-4.836-0.815-5.479 c0.069,0.995,0.298,3.971,0.313,5.311c0.002,0.061,0.003,0.517,0.003,0.566v4.259c0,0.099-0.013,0.317-0.039,0.411 c-0.051,0.281-0.189,0.541-0.401,0.748c-0.248,0.243-0.565,0.392-0.906,0.422c-0.054,0.008-0.178,0.012-0.233,0.012l-0.063-0.001 H8.092l-0.168-0.057c-0.138,0-0.25-0.263-0.25-0.401v-5.175c0-0.088-0.002-0.791-0.005-0.875c-0.038-2.266-0.515-4.571-0.81-5.221 c0.069,0.995,0.296,3.95,0.312,5.293c0.002,0.069,0.003,0.571,0.003,0.626v5.413c0,0.138-0.112,0.398-0.25,0.398h-2 c-0.138,0-0.25-0.263-0.25-0.401v-5.363c0-0.069-0.001-0.623-0.003-0.689c-0.031-2.296-0.515-4.627-0.812-5.275 c0.069,0.995,0.298,3.971,0.313,5.311c0.002,0.061,0.003,0.5,0.003,0.55v5.508c0,0.094-0.052,0.285-0.129,0.328 c-0.036,0.02-0.131,0.031-0.175,0.031H3.365c-0.022,0.001-0.194,0-0.214-0.003c-0.006-0.001-0.055-0.001-0.061-0.002 c-0.221-0.013-0.425-0.078-0.61-0.188C2.338,38.9,2.21,38.791,2.1,38.657c-0.15-0.181-0.259-0.404-0.323-0.653 c-0.066-0.173-0.101-0.603-0.101-0.812v-3.631c0-0.091-0.002-0.815-0.006-0.901C1.631,30.399,1.155,28.097,0.86,27.446z"/><path fill="#ababab" d="M0.899,27.536c0.083,1.194,0.312,4.191,0.312,5.375v4.466l0.001,0.002c0,0.005,0,0.081,0.001,0.086 c0.005,0.022,0.008,0.045,0.009,0.069c0.026,0.625,0.248,1.173,0.627,1.545c0.344,0.337,0.8,0.525,1.285,0.531 c0.003,0,0.049,0,0.051,0.001c0.006,0,0.082,0.001,0.088,0.001c0.002,0,0.005,0,0.008,0h5.196c0.008,0,0.139,0,0.146-0.001 c0.549-0.005,1.047-0.202,1.413-0.561c0.36-0.353,0.563-0.821,0.572-1.321c0.001-0.01,0.002-0.17,0.002-0.18l0,0l0.001-4.637 c0-2.147-0.425-4.549-0.712-5.375c0.083,1.194,0.303,4.078,0.311,5.291c0.001,0.031,0.001,0.537,0.001,0.562v4.24 c0,0.119-0.016,0.296-0.046,0.409c-0.061,0.272-0.201,0.523-0.408,0.726c-0.249,0.243-0.563,0.395-0.9,0.434 c-0.064,0.009-0.165,0.014-0.231,0.014L8.557,39.21H8.112L7.91,39.181c-0.166,0-0.3-0.21-0.3-0.376V33.65 c0-0.044-0.001-0.827-0.003-0.869c-0.019-2.076-0.427-4.416-0.709-5.246c0.083,1.194,0.302,4.067,0.31,5.282 c0.001,0.034,0.002,0.593,0.002,0.621v5.399c0,0.166-0.134,0.374-0.3,0.374h-2c-0.166,0-0.3-0.21-0.3-0.376v-5.342 c0-0.035-0.001-0.651-0.002-0.685c-0.016-2.091-0.427-4.444-0.71-5.273c0.083,1.194,0.303,4.078,0.311,5.291 c0.001,0.031,0.001,0.518,0.001,0.543v5.486c0,0.113-0.062,0.266-0.154,0.317c-0.043,0.024-0.12,0.038-0.173,0.038H3.381 c-0.011,0.001-0.202,0-0.212-0.001c-0.003,0-0.058,0-0.061,0c-0.221-0.006-0.428-0.062-0.618-0.163 c-0.147-0.078-0.281-0.182-0.401-0.311c-0.159-0.174-0.28-0.388-0.357-0.631c-0.079-0.208-0.121-0.56-0.121-0.81v-3.621 c0-0.045-0.001-0.852-0.003-0.895C1.588,30.704,1.181,28.365,0.899,27.536z"/><path fill="#b3b3b3" d="M1.255,37.492c0.021,0.623,0.239,1.169,0.614,1.536c0.341,0.334,0.794,0.518,1.276,0.518h0.051h5.39 c0.547,0,1.04-0.194,1.401-0.547c0.358-0.351,0.556-0.818,0.559-1.316l0.001-4.787c0-1.887-0.34-4.262-0.608-5.271 c0.097,1.393,0.308,4.184,0.308,5.271v4.778c0,0.419-0.167,0.813-0.469,1.11c-0.305,0.299-0.704,0.463-1.122,0.463L8.58,39.245 H7.896c-0.193,0-0.35-0.157-0.35-0.35v-6c0-1.887-0.34-4.262-0.608-5.271c0.097,1.393,0.308,4.184,0.308,5.271v6 c0,0.193-0.157,0.35-0.35,0.35h-2c-0.193,0-0.35-0.157-0.35-0.35v-6c0-1.887-0.34-4.262-0.608-5.271 c0.097,1.393,0.308,4.184,0.308,5.271v6c0,0.193-0.157,0.35-0.35,0.35h-0.71l-0.061,0.002c-0.395,0-0.756-0.15-1.046-0.433 c-0.344-0.337-0.533-0.841-0.533-1.418v-4.5c0-1.887-0.34-4.262-0.608-5.271c0.097,1.393,0.308,4.184,0.308,5.271v4.529 C1.251,37.446,1.254,37.469,1.255,37.492z"/></g><linearGradient id="HsMLVgUxX74oCAubRkGgaau" x1="4.658" x2="6.973" y1="5" y2="5" gradientTransform="matrix(1 0 0 -1 0 48)" gradientUnits="userSpaceOnUse"><stop offset=".002" stop-color="#daa419"/><stop offset=".23" stop-color="#cb961c"/><stop offset="1" stop-color="#9b6b26"/></linearGradient><rect width="2" height="6" x="5" y="40" fill="url(#HsMLVgUxX74oCAubRkGgaau)"/><linearGradient id="HsMLVgUxX74oCAubRkGgaav" x1="5" x2="6.279" y1="6.856" y2="6.856" gradientTransform="matrix(1 0 0 -1 0 48)" gradientUnits="userSpaceOnUse"><stop offset=".002" stop-color="#b3b3b3"/><stop offset=".124" stop-color="#acacac"/><stop offset="1" stop-color="#7c7c7c"/></linearGradient><path fill="url(#HsMLVgUxX74oCAubRkGgaav)" d="M7,42c0,0.384-2,0.384-2,0v-2h2V42z"/><radialGradient id="HsMLVgUxX74oCAubRkGgaaw" cx="-15.931" cy="28.695" r="1.709" gradientTransform="matrix(1.37 0 0 1.3195 45.883 -12.216)" gradientUnits="userSpaceOnUse"><stop offset=".245" stop-color="#cc9000"/><stop offset=".415" stop-color="#d09504" stop-opacity=".822"/><stop offset=".627" stop-color="#dca50f" stop-opacity=".599"/><stop offset=".851" stop-color="#eebd20" stop-opacity=".363"/><stop offset="1" stop-color="#fed12e" stop-opacity="0"/></radialGradient><path fill="url(#HsMLVgUxX74oCAubRkGgaaw)" d="M24.04,26.328c-0.788,0-1.429-0.2-1.825-0.417c-0.291-0.16-0.586-0.086-0.393,0.415	c0.261,0.679,0.858,1.48,2.218,1.48c1.337,0,1.936-0.773,2.204-1.445c0.206-0.516-0.091-0.568-0.344-0.449	C25.412,26.14,24.808,26.328,24.04,26.328z"/><radialGradient id="HsMLVgUxX74oCAubRkGgaax" cx="-61.076" cy="-23.175" r="1.76" gradientTransform="matrix(1.4827 .036 -.0172 .7101 114.26 44.123)" gradientUnits="userSpaceOnUse"><stop offset=".479" stop-color="#fed53f"/><stop offset=".926" stop-color="#fed53f" stop-opacity=".141"/><stop offset="1" stop-color="#fed53f" stop-opacity="0"/></radialGradient><path fill="url(#HsMLVgUxX74oCAubRkGgaax)" d="M26.874,25.535c-0.018,0.757-1.286,1.339-2.831,1.302c-1.545-0.038-2.782-0.681-2.764-1.438	s1.286-1.339,2.831-1.302C25.655,24.135,26.892,24.779,26.874,25.535z"/><radialGradient id="HsMLVgUxX74oCAubRkGgaay" cx="24.117" cy="199.221" r="1.411" gradientTransform="matrix(1 0 0 .6596 0 -105.987)" gradientUnits="userSpaceOnUse"><stop offset=".004" stop-color="#fff4c9"/><stop offset="1" stop-color="#fff4c9" stop-opacity="0"/></radialGradient><ellipse cx="24.117" cy="25.419" fill="url(#HsMLVgUxX74oCAubRkGgaay)" rx="1.411" ry=".931"/><radialGradient id="HsMLVgUxX74oCAubRkGgaaz" cx="24.125" cy="25.74" r="6.57" gradientUnits="userSpaceOnUse"><stop offset="0" stop-color="#c69c6d"/><stop offset=".53" stop-color="#956b41"/><stop offset=".626" stop-color="#8c6239"/><stop offset=".849" stop-color="#734a23"/><stop offset=".992" stop-color="#603813"/></radialGradient><path fill="url(#HsMLVgUxX74oCAubRkGgaaz)" d="M24.015,27.7L24.015,27.7c-0.005,0-0.01,0-0.015,0s-0.01,0-0.015,0l0,0	c-5.306-0.08-6.11,2.031-6.11,2.974c0,0.37,0.437,0.426,0.637,0.113c0.152-0.229,0.768-0.579,1.592-0.59	c2.228-0.029,1.829-0.029,3.767-0.029c1.784,0,2.309,0,3.849,0c0.824,0,1.615,0.39,1.767,0.619c0.2,0.313,0.637,0.257,0.637-0.113	C30.125,29.731,29.321,27.62,24.015,27.7z"/></svg>