<svg xmlns="http://www.w3.org/2000/svg" viewBox="0 0 48 48"><radialGradient id="FoucFpONwWnAEobmqy3pBa" cx="24.371" cy="3.5" r="16.526" gradientTransform="matrix(1 0 0 -1 0 48)" gradientUnits="userSpaceOnUse"><stop offset=".002" stop-color="#fff"/><stop offset="1" stop-color="#d2d5d6"/></radialGradient><path fill="url(#FoucFpONwWnAEobmqy3pBa)" d="M43,46c0,0,0.054-9.133-6.089-10.749C33.774,34.426,24.018,32,24.001,32	s-9.774,2.426-12.91,3.251C4.947,36.867,5,46,5,46H43z"/><linearGradient id="FoucFpONwWnAEobmqy3pBb" x1="23.942" x2="23.942" y1="9.659" y2="12.36" gradientTransform="matrix(1 0 0 -1 0 48)" gradientUnits="userSpaceOnUse"><stop offset="0" stop-color="#fdd02d"/><stop offset=".999" stop-color="#cf941d"/></linearGradient><polygon fill="url(#FoucFpONwWnAEobmqy3pBb)" points="26,46 22,46 18.844,33.25 29.039,33.289"/><linearGradient id="FoucFpONwWnAEobmqy3pBc" x1="24" x2="24" y1="6.423" y2="-7.254" gradientTransform="matrix(1 0 0 -1 0 48)" gradientUnits="userSpaceOnUse"><stop offset="0" stop-color="#2dc9ab"/><stop offset="1" stop-color="#0d7f69"/></linearGradient><path fill="url(#FoucFpONwWnAEobmqy3pBc)" d="M24,39c-1.46,0-2.825-0.373-4.003-1.013L22,46h4l2.003-8.013C26.825,38.627,25.46,39,24,39z"/><radialGradient id="FoucFpONwWnAEobmqy3pBd" cx="24.274" cy="3.141" r="16.497" gradientTransform="matrix(1 0 0 -1 0 48)" gradientUnits="userSpaceOnUse"><stop offset=".002" stop-color="#fff"/><stop offset="1" stop-color="#d2d5d6"/></radialGradient><path fill="url(#FoucFpONwWnAEobmqy3pBd)" d="M14.996,34.247c-1.111,1.69-1.861,4.383-1.923,4.994c-0.063,0.618,0.188,0.761,0.401,0.853 c0.213,0.091,3.253,0.67,3.253,0.67s-1.807,0.985-2.142,1.198c-0.335,0.213-0.609,0.548-0.426,1.096s1.939,2.456,2.243,2.913 c0.731,0,3.146,0.03,3.146,0.03L17.051,33.72L14.996,34.247z"/><radialGradient id="FoucFpONwWnAEobmqy3pBe" cx="24.508" cy="3.145" r="16.558" gradientTransform="matrix(1 0 0 -1 0 48)" gradientUnits="userSpaceOnUse"><stop offset=".002" stop-color="#f8f9f9"/><stop offset="1" stop-color="#d2d5d6"/></radialGradient><path fill="url(#FoucFpONwWnAEobmqy3pBe)" d="M15.195,34.202c-1.116,1.696-1.868,4.399-1.931,5.012c-0.063,0.62,0.188,0.764,0.402,0.856 c0.214,0.092,3.265,0.672,3.265,0.672s-1.813,0.988-2.15,1.202c-0.336,0.214-0.611,0.55-0.428,1.1s1.946,2.465,2.252,2.924 c0.734,0,3.158,0.031,3.158,0.031l-2.506-12.327L15.195,34.202z"/><radialGradient id="FoucFpONwWnAEobmqy3pBf" cx="24.742" cy="3.149" r="16.62" gradientTransform="matrix(1 0 0 -1 0 48)" gradientUnits="userSpaceOnUse"><stop offset=".002" stop-color="#f2f3f3"/><stop offset="1" stop-color="#d2d5d6"/></radialGradient><path fill="url(#FoucFpONwWnAEobmqy3pBf)" d="M15.394,34.158c-1.12,1.703-1.875,4.416-1.938,5.031c-0.064,0.622,0.189,0.767,0.404,0.859 c0.215,0.092,3.277,0.675,3.277,0.675s-1.82,0.992-2.158,1.207c-0.337,0.215-0.614,0.552-0.429,1.104 c0.184,0.552,1.953,2.475,2.26,2.935c0.736,0,3.17,0.031,3.17,0.031l-2.516-12.374L15.394,34.158z"/><radialGradient id="FoucFpONwWnAEobmqy3pBg" cx="24.977" cy="3.154" r="16.683" gradientTransform="matrix(1 0 0 -1 0 48)" gradientUnits="userSpaceOnUse"><stop offset=".002" stop-color="#ebeded"/><stop offset="1" stop-color="#d2d5d6"/></radialGradient><path fill="url(#FoucFpONwWnAEobmqy3pBg)" d="M15.594,34.114c-1.124,1.709-1.882,4.432-1.945,5.05c-0.064,0.625,0.19,0.77,0.405,0.862 c0.216,0.092,3.29,0.677,3.29,0.677s-1.827,0.996-2.166,1.211c-0.339,0.216-0.616,0.554-0.431,1.109 c0.185,0.554,1.96,2.484,2.268,2.946c0.739,0,3.182,0.031,3.182,0.031l-2.525-12.42L15.594,34.114z"/><radialGradient id="FoucFpONwWnAEobmqy3pBh" cx="25.21" cy="3.158" r="16.744" gradientTransform="matrix(1 0 0 -1 0 48)" gradientUnits="userSpaceOnUse"><stop offset=".002" stop-color="#e5e6e7"/><stop offset="1" stop-color="#d1d4d5"/></radialGradient><path fill="url(#FoucFpONwWnAEobmqy3pBh)" d="M15.793,34.07c-1.128,1.715-1.889,4.448-1.952,5.069c-0.064,0.627,0.191,0.773,0.407,0.865 c0.216,0.093,3.302,0.68,3.302,0.68s-1.834,0.999-2.174,1.216c-0.34,0.216-0.618,0.556-0.433,1.113s1.968,2.493,2.277,2.957 c0.742,0,3.194,0.031,3.194,0.031L17.88,33.535L15.793,34.07z"/><radialGradient id="FoucFpONwWnAEobmqy3pBi" cx="25.445" cy="3.162" r="16.806" gradientTransform="matrix(1 0 0 -1 0 48)" gradientUnits="userSpaceOnUse"><stop offset=".002" stop-color="#dee0e1"/><stop offset="1" stop-color="#d1d4d5"/></radialGradient><path fill="url(#FoucFpONwWnAEobmqy3pBi)" d="M15.992,34.026c-1.132,1.722-1.896,4.465-1.96,5.087c-0.064,0.629,0.191,0.776,0.408,0.869 s3.314,0.682,3.314,0.682s-1.841,1.003-2.182,1.22c-0.341,0.217-0.62,0.558-0.434,1.117c0.186,0.558,1.975,2.502,2.285,2.968 c0.745,0,3.206,0.031,3.206,0.031l-2.544-12.512L15.992,34.026z"/><radialGradient id="FoucFpONwWnAEobmqy3pBj" cx="25.679" cy="3.166" r="16.868" gradientTransform="matrix(1 0 0 -1 0 48)" gradientUnits="userSpaceOnUse"><stop offset=".002" stop-color="#d8dadb"/><stop offset="1" stop-color="#d1d4d5"/></radialGradient><path fill="url(#FoucFpONwWnAEobmqy3pBj)" d="M16.191,33.982c-1.136,1.728-1.903,4.481-1.967,5.106c-0.065,0.632,0.192,0.778,0.41,0.872 c0.218,0.093,3.326,0.685,3.326,0.685s-1.847,1.007-2.19,1.225c-0.342,0.218-0.623,0.56-0.436,1.121 c0.187,0.56,1.982,2.512,2.294,2.979c0.747,0,3.217,0.031,3.217,0.031l-2.553-12.558L16.191,33.982z"/><path fill="#d1d4d5" d="M16.391,33.938c-1.141,1.734-1.91,4.498-1.974,5.125c-0.065,0.634,0.193,0.781,0.411,0.875 s3.339,0.688,3.339,0.688s-1.854,1.01-2.198,1.229s-0.625,0.563-0.438,1.125s1.99,2.521,2.302,2.99c0.75,0,3.229,0.031,3.229,0.031 L18.5,33.396L16.391,33.938z"/><linearGradient id="FoucFpONwWnAEobmqy3pBk" x1="13.009" x2="17.309" y1="2.519" y2="13.607" gradientTransform="matrix(1 0 0 -1 0 48)" gradientUnits="userSpaceOnUse"><stop offset=".361" stop-color="#ccc"/><stop offset=".534" stop-color="#c4c4c4" stop-opacity=".728"/><stop offset=".809" stop-color="#adadad" stop-opacity=".298"/><stop offset="1" stop-color="#999" stop-opacity="0"/></linearGradient><path fill="url(#FoucFpONwWnAEobmqy3pBk)" d="M15.089,40.59c0.63-3.491,2.502-6.059,3.161-6.819c0,0-0.281-0.25-0.578-0.469 c-2.703,2.734-3.207,6.128-3.48,7.06c-0.044-0.002-0.085-0.013-0.13-0.013c-1.335,0-2.417,1.082-2.417,2.417 s1.082,2.417,2.417,2.417s2.417-1.082,2.417-2.417C16.479,41.853,15.835,41.001,15.089,40.59z"/><linearGradient id="FoucFpONwWnAEobmqy3pBl" x1="12.96" x2="17.26" y1="2.533" y2="13.621" gradientTransform="matrix(1 0 0 -1 0 48)" gradientUnits="userSpaceOnUse"><stop offset=".361" stop-color="#c2c2c2"/><stop offset=".554" stop-color="#bababa" stop-opacity=".741"/><stop offset=".86" stop-color="#a3a3a3" stop-opacity=".331"/><stop offset="1" stop-color="#969696" stop-opacity=".143"/></linearGradient><path fill="url(#FoucFpONwWnAEobmqy3pBl)" d="M15.04,40.576c0.63-3.491,2.502-6.059,3.161-6.819c0,0-0.281-0.25-0.578-0.469 c-2.613,2.711-3.207,6.128-3.48,7.06c-0.044-0.002-0.085-0.013-0.13-0.013c-1.335,0-2.417,1.082-2.417,2.417 s1.082,2.417,2.417,2.417s2.417-1.082,2.417-2.417C16.43,41.839,15.786,40.987,15.04,40.576z"/><linearGradient id="FoucFpONwWnAEobmqy3pBm" x1="12.91" x2="17.21" y1="2.547" y2="13.635" gradientTransform="matrix(1 0 0 -1 0 48)" gradientUnits="userSpaceOnUse"><stop offset=".361" stop-color="#b8b8b8"/><stop offset=".584" stop-color="#b0b0b0" stop-opacity=".75"/><stop offset=".938" stop-color="#999" stop-opacity=".356"/><stop offset="1" stop-color="#949494" stop-opacity=".286"/></linearGradient><path fill="url(#FoucFpONwWnAEobmqy3pBm)" d="M14.99,40.562c0.63-3.491,2.502-6.059,3.161-6.819c0,0-0.281-0.25-0.578-0.469 c-2.524,2.688-3.207,6.128-3.48,7.06c-0.044-0.002-0.085-0.013-0.13-0.013c-1.335,0-2.417,1.082-2.417,2.417 s1.082,2.417,2.417,2.417s2.417-1.082,2.417-2.417C16.381,41.825,15.737,40.973,14.99,40.562z"/><linearGradient id="FoucFpONwWnAEobmqy3pBn" x1="12.861" x2="17.161" y1="2.561" y2="13.649" gradientTransform="matrix(1 0 0 -1 0 48)" gradientUnits="userSpaceOnUse"><stop offset=".361" stop-color="#aeaeae"/><stop offset=".622" stop-color="#a6a6a6" stop-opacity=".767"/><stop offset="1" stop-color="#919191" stop-opacity=".429"/></linearGradient><path fill="url(#FoucFpONwWnAEobmqy3pBn)" d="M14.941,40.548c0.63-3.491,2.502-6.059,3.161-6.819c0,0-0.281-0.25-0.578-0.469 c-2.434,2.666-3.207,6.128-3.48,7.06c-0.044-0.002-0.085-0.013-0.13-0.013c-1.335,0-2.417,1.082-2.417,2.417 s1.082,2.417,2.417,2.417s2.417-1.082,2.417-2.417C16.332,41.81,15.688,40.959,14.941,40.548z"/><linearGradient id="FoucFpONwWnAEobmqy3pBo" x1="12.812" x2="17.112" y1="2.575" y2="13.663" gradientTransform="matrix(1 0 0 -1 0 48)" gradientUnits="userSpaceOnUse"><stop offset=".361" stop-color="#a5a5a5"/><stop offset=".679" stop-color="#9d9d9d" stop-opacity=".786"/><stop offset="1" stop-color="#8f8f8f" stop-opacity=".571"/></linearGradient><path fill="url(#FoucFpONwWnAEobmqy3pBo)" d="M14.892,40.534c0.63-3.491,2.502-6.059,3.161-6.819c0,0-0.281-0.25-0.578-0.469 c-2.344,2.643-3.207,6.128-3.48,7.06c-0.044-0.002-0.085-0.013-0.13-0.013c-1.335,0-2.417,1.082-2.417,2.417 s1.082,2.417,2.417,2.417s2.417-1.082,2.417-2.417C16.283,41.796,15.639,40.945,14.892,40.534z"/><linearGradient id="FoucFpONwWnAEobmqy3pBp" x1="12.763" x2="17.063" y1="2.589" y2="13.677" gradientTransform="matrix(1 0 0 -1 0 48)" gradientUnits="userSpaceOnUse"><stop offset=".361" stop-color="#9b9b9b"/><stop offset=".78" stop-color="#939393" stop-opacity=".812"/><stop offset="1" stop-color="#8c8c8c" stop-opacity=".714"/></linearGradient><path fill="url(#FoucFpONwWnAEobmqy3pBp)" d="M14.843,40.519c0.63-3.491,2.502-6.059,3.161-6.819c0,0-0.281-0.25-0.578-0.469 c-2.255,2.62-3.207,6.128-3.48,7.06c-0.044-0.002-0.085-0.013-0.13-0.013c-1.335,0-2.417,1.082-2.417,2.417 s1.082,2.417,2.417,2.417s2.417-1.082,2.417-2.417C16.234,41.782,15.59,40.931,14.843,40.519z"/><linearGradient id="FoucFpONwWnAEobmqy3pBq" x1="12.714" x2="17.014" y1="2.604" y2="13.691" gradientTransform="matrix(1 0 0 -1 0 48)" gradientUnits="userSpaceOnUse"><stop offset=".361" stop-color="#919191"/><stop offset="1" stop-color="#8a8a8a" stop-opacity=".857"/></linearGradient><path fill="url(#FoucFpONwWnAEobmqy3pBq)" d="M14.794,40.505c0.63-3.491,2.502-6.059,3.161-6.819c0,0-0.281-0.25-0.578-0.469 c-2.165,2.597-3.207,6.128-3.48,7.06c-0.044-0.002-0.085-0.013-0.13-0.013c-1.335,0-2.417,1.082-2.417,2.417 s1.082,2.417,2.417,2.417s2.417-1.082,2.417-2.417C16.185,41.768,15.541,40.916,14.794,40.505z"/><path fill="#878787" d="M14.745,40.491c0.63-3.491,2.502-6.059,3.161-6.819c0,0-0.281-0.25-0.578-0.469 c-2.075,2.574-3.207,6.128-3.48,7.06c-0.044-0.002-0.085-0.013-0.13-0.013c-1.335,0-2.417,1.082-2.417,2.417 s1.082,2.417,2.417,2.417s2.417-1.082,2.417-2.417C16.135,41.754,15.492,40.902,14.745,40.491z"/><linearGradient id="FoucFpONwWnAEobmqy3pBr" x1="18.492" x2="18.998" y1="6.528" y2="13.547" gradientTransform="matrix(1 0 0 -1 0 48)" gradientUnits="userSpaceOnUse"><stop offset=".002" stop-color="#fff"/><stop offset=".355" stop-color="#e3e3e3"/><stop offset="1" stop-color="#b3b3b3"/></linearGradient><path fill="url(#FoucFpONwWnAEobmqy3pBr)" d="M16.922,33.766c-0.969,1.141-1.994,4.073-2.047,4.693c-0.054,0.635,0.094,0.844,0.312,0.938	c0.219,0.094,3.438,0.625,3.438,0.625s-1.854,1.01-2.198,1.229s-0.625,0.563-0.438,1.125c0.188,0.563,2.469,3.125,2.781,3.594	C19.521,45.969,22,46,22,46l-3.271-13.375L16.922,33.766z"/><radialGradient id="FoucFpONwWnAEobmqy3pBs" cx="42.566" cy="3.141" r="16.497" gradientTransform="rotate(180 33.115 24)" gradientUnits="userSpaceOnUse"><stop offset=".002" stop-color="#fff"/><stop offset="1" stop-color="#d2d5d6"/></radialGradient><path fill="url(#FoucFpONwWnAEobmqy3pBs)" d="M32.942,34.247c1.111,1.69,1.861,4.383,1.923,4.994c0.063,0.618-0.188,0.761-0.401,0.853 c-0.213,0.091-3.253,0.67-3.253,0.67s1.807,0.985,2.142,1.198c0.335,0.213,0.609,0.548,0.426,1.096s-1.939,2.456-2.243,2.913 c-0.731,0-3.146,0.03-3.146,0.03l2.497-12.281L32.942,34.247z"/><radialGradient id="FoucFpONwWnAEobmqy3pBt" cx="42.8" cy="3.145" r="16.558" gradientTransform="rotate(180 33.115 24)" gradientUnits="userSpaceOnUse"><stop offset=".002" stop-color="#f8f9f9"/><stop offset="1" stop-color="#d2d5d6"/></radialGradient><path fill="url(#FoucFpONwWnAEobmqy3pBt)" d="M32.742,34.202c1.116,1.696,1.868,4.399,1.931,5.012c0.063,0.62-0.188,0.764-0.402,0.856 s-3.265,0.672-3.265,0.672s1.813,0.988,2.15,1.202c0.336,0.214,0.611,0.55,0.428,1.1s-1.946,2.465-2.252,2.924 c-0.734,0-3.158,0.031-3.158,0.031l2.506-12.327L32.742,34.202z"/><radialGradient id="FoucFpONwWnAEobmqy3pBu" cx="43.034" cy="3.149" r="16.62" gradientTransform="rotate(180 33.115 24)" gradientUnits="userSpaceOnUse"><stop offset=".002" stop-color="#f2f3f3"/><stop offset="1" stop-color="#d2d5d6"/></radialGradient><path fill="url(#FoucFpONwWnAEobmqy3pBu)" d="M32.543,34.158c1.12,1.703,1.875,4.416,1.938,5.031c0.064,0.622-0.189,0.767-0.404,0.859 S30.8,40.723,30.8,40.723s1.82,0.992,2.158,1.207s0.614,0.552,0.429,1.104c-0.184,0.552-1.953,2.475-2.26,2.935 c-0.736,0-3.17,0.031-3.17,0.031l2.516-12.374L32.543,34.158z"/><radialGradient id="FoucFpONwWnAEobmqy3pBv" cx="43.268" cy="3.154" r="16.683" gradientTransform="rotate(180 33.115 24)" gradientUnits="userSpaceOnUse"><stop offset=".002" stop-color="#ebeded"/><stop offset="1" stop-color="#d2d5d6"/></radialGradient><path fill="url(#FoucFpONwWnAEobmqy3pBv)" d="M32.344,34.114c1.124,1.709,1.882,4.432,1.945,5.05c0.064,0.625-0.19,0.77-0.405,0.862 c-0.216,0.092-3.29,0.677-3.29,0.677s1.827,0.996,2.166,1.211c0.339,0.216,0.616,0.554,0.431,1.109 c-0.185,0.554-1.96,2.484-2.268,2.946c-0.739,0-3.182,0.031-3.182,0.031l2.525-12.42L32.344,34.114z"/><radialGradient id="FoucFpONwWnAEobmqy3pBw" cx="43.502" cy="3.158" r="16.744" gradientTransform="rotate(180 33.115 24)" gradientUnits="userSpaceOnUse"><stop offset=".002" stop-color="#e5e6e7"/><stop offset="1" stop-color="#d1d4d5"/></radialGradient><path fill="url(#FoucFpONwWnAEobmqy3pBw)" d="M32.145,34.07c1.128,1.715,1.889,4.448,1.952,5.069c0.064,0.627-0.191,0.773-0.407,0.865 c-0.216,0.093-3.302,0.68-3.302,0.68s1.834,0.999,2.174,1.216c0.34,0.216,0.618,0.556,0.433,1.113 c-0.185,0.556-1.968,2.493-2.277,2.957c-0.742,0-3.194,0.031-3.194,0.031l2.534-12.466L32.145,34.07z"/><radialGradient id="FoucFpONwWnAEobmqy3pBx" cx="43.736" cy="3.162" r="16.806" gradientTransform="rotate(180 33.115 24)" gradientUnits="userSpaceOnUse"><stop offset=".002" stop-color="#dee0e1"/><stop offset="1" stop-color="#d1d4d5"/></radialGradient><path fill="url(#FoucFpONwWnAEobmqy3pBx)" d="M31.946,34.026c1.132,1.722,1.896,4.465,1.96,5.087c0.064,0.629-0.191,0.776-0.408,0.869 s-3.314,0.682-3.314,0.682s1.841,1.003,2.182,1.22c0.341,0.217,0.62,0.558,0.434,1.117c-0.186,0.558-1.975,2.502-2.285,2.968 c-0.745,0-3.206,0.031-3.206,0.031l2.544-12.512L31.946,34.026z"/><radialGradient id="FoucFpONwWnAEobmqy3pBy" cx="43.97" cy="3.166" r="16.868" gradientTransform="rotate(180 33.115 24)" gradientUnits="userSpaceOnUse"><stop offset=".002" stop-color="#d8dadb"/><stop offset="1" stop-color="#d1d4d5"/></radialGradient><path fill="url(#FoucFpONwWnAEobmqy3pBy)" d="M31.746,33.982c1.136,1.728,1.903,4.481,1.967,5.106c0.065,0.632-0.192,0.778-0.41,0.872 s-3.326,0.685-3.326,0.685s1.847,1.007,2.19,1.225s0.623,0.56,0.436,1.121s-1.982,2.512-2.294,2.979 c-0.747,0-3.217,0.031-3.217,0.031l2.553-12.558L31.746,33.982z"/><path fill="#d1d4d5" d="M31.547,33.938c1.141,1.734,1.91,4.498,1.974,5.125c0.065,0.634-0.193,0.781-0.411,0.875 s-3.339,0.688-3.339,0.688s1.854,1.01,2.198,1.229s0.625,0.563,0.438,1.125s-1.99,2.521-2.302,2.99 c-0.75,0-3.229,0.031-3.229,0.031l2.563-12.604L31.547,33.938z"/><linearGradient id="FoucFpONwWnAEobmqy3pBz" x1="36.856" x2="37.366" y1="7.54" y2="14.613" gradientTransform="rotate(180 33.115 24)" gradientUnits="userSpaceOnUse"><stop offset=".002" stop-color="#fff"/><stop offset=".355" stop-color="#e3e3e3"/><stop offset="1" stop-color="#b3b3b3"/></linearGradient><path fill="url(#FoucFpONwWnAEobmqy3pBz)" d="M31.016,33.766c0.969,1.141,1.994,4.073,2.047,4.693c0.054,0.635-0.094,0.844-0.313,0.938	s-3.438,0.625-3.438,0.625s1.854,1.01,2.198,1.229s0.625,0.563,0.438,1.125c-0.188,0.563-2.469,3.125-2.781,3.594	c-0.75,0-3.229,0.031-3.229,0.031l3.271-13.479L31.016,33.766z"/><linearGradient id="FoucFpONwWnAEobmqy3pBA" x1="15.453" x2="18.07" y1="8.115" y2="14.861" gradientTransform="matrix(1 0 0 -1 0 48)" gradientUnits="userSpaceOnUse"><stop offset=".361" stop-color="#ccc"/><stop offset=".534" stop-color="#c4c4c4" stop-opacity=".728"/><stop offset=".809" stop-color="#adadad" stop-opacity=".298"/><stop offset="1" stop-color="#999" stop-opacity="0"/></linearGradient><path fill="url(#FoucFpONwWnAEobmqy3pBA)" d="M15.187,39.458c0.024,0.01,0.087,0.026,0.172,0.045c0.2-0.692,0.48-1.357,0.801-1.974 c0.321-0.617,0.682-1.185,1.043-1.683c0.722-0.996,1.442-1.71,1.838-1.969c0,0-0.134-1.062-0.416-1.274l-1.061,1.06 c-0.501,0.513-0.926,1.049-1.287,1.587s-0.658,1.077-0.904,1.599c-0.282,0.757-0.476,1.415-0.497,1.672 C14.821,39.156,14.969,39.365,15.187,39.458z"/><linearGradient id="FoucFpONwWnAEobmqy3pBB" x1="15.43" x2="18.041" y1="8.132" y2="14.866" gradientTransform="matrix(1 0 0 -1 0 48)" gradientUnits="userSpaceOnUse"><stop offset=".361" stop-color="#c2c2c2"/><stop offset=".554" stop-color="#bababa" stop-opacity=".741"/><stop offset=".86" stop-color="#a3a3a3" stop-opacity=".331"/><stop offset="1" stop-color="#969696" stop-opacity=".143"/></linearGradient><path fill="url(#FoucFpONwWnAEobmqy3pBB)" d="M18.628,32.613l-0.807,0.795c-0.005,0.007-0.206,0.209-0.214,0.217 c-0.466,0.481-0.887,0.994-1.251,1.509c-0.363,0.514-0.667,1.029-0.899,1.512c-0.299,0.771-0.518,1.469-0.561,1.78 c-0.03,0.221-0.031,0.395-0.015,0.523c0.035,0.29,0.14,0.422,0.284,0.494c0.022,0.001,0.079,0.006,0.154,0.015 c0.184-0.642,0.439-1.261,0.733-1.841c0.021-0.041,0.042-0.082,0.063-0.123c0.318-0.61,0.677-1.173,1.037-1.669 c0.407-0.56,0.816-1.034,1.169-1.389c0.259-0.261,0.486-0.457,0.66-0.576c0.017-0.015,0.012-0.196-0.016-0.412 C18.907,33.173,18.795,32.74,18.628,32.613z"/><polygon fill="#878787" points="16.009,39.91 16.01,39.912 16.009,39.906"/><linearGradient id="FoucFpONwWnAEobmqy3pBC" x1="15.408" x2="18.016" y1="8.147" y2="14.87" gradientTransform="matrix(1 0 0 -1 0 48)" gradientUnits="userSpaceOnUse"><stop offset=".361" stop-color="#b8b8b8"/><stop offset=".584" stop-color="#b0b0b0" stop-opacity=".75"/><stop offset=".938" stop-color="#999" stop-opacity=".356"/><stop offset="1" stop-color="#949494" stop-opacity=".286"/></linearGradient><path fill="url(#FoucFpONwWnAEobmqy3pBC)" d="M18.631,32.622l-0.778,0.756c-0.011,0.014-0.186,0.191-0.201,0.209 c-0.43,0.448-0.849,0.94-1.214,1.431c-0.365,0.491-0.677,0.981-0.894,1.425c-0.317,0.785-0.56,1.522-0.624,1.889 c-0.041,0.234-0.049,0.417-0.039,0.546c0.025,0.319,0.122,0.468,0.263,0.55c0.021-0.009,0.07-0.013,0.135-0.015 c0.182-0.638,0.435-1.254,0.729-1.832c0.021-0.041,0.042-0.082,0.064-0.123c0.315-0.604,0.672-1.162,1.032-1.655 c0.403-0.553,0.809-1.023,1.164-1.382c0.253-0.256,0.478-0.452,0.655-0.579c0.035-0.03,0.049-0.195,0.042-0.388 C18.916,33.224,18.804,32.754,18.631,32.622z"/><polygon fill="#878787" points="16.006,40.332 16.008,40.335 16.005,40.323"/><g><linearGradient id="FoucFpONwWnAEobmqy3pBD" x1="15.385" x2="17.988" y1="8.163" y2="14.874" gradientTransform="matrix(1 0 0 -1 0 48)" gradientUnits="userSpaceOnUse"><stop offset=".361" stop-color="#aeaeae"/><stop offset=".622" stop-color="#a6a6a6" stop-opacity=".767"/><stop offset="1" stop-color="#919191" stop-opacity=".429"/></linearGradient><path fill="url(#FoucFpONwWnAEobmqy3pBD)" d="M18.634,32.631l-0.75,0.717c-0.016,0.021-0.166,0.174-0.189,0.2 c-0.394,0.415-0.81,0.885-1.177,1.353c-0.367,0.467-0.686,0.933-0.889,1.339c-0.335,0.799-0.6,1.575-0.688,1.998 c-0.051,0.246-0.067,0.44-0.062,0.569c0.014,0.349,0.104,0.515,0.242,0.606c0.019-0.018,0.062-0.033,0.117-0.046 c0.179-0.634,0.432-1.247,0.724-1.822c0.021-0.041,0.042-0.082,0.064-0.123c0.313-0.597,0.667-1.151,1.026-1.642 c0.399-0.546,0.802-1.013,1.159-1.376c0.247-0.251,0.47-0.448,0.65-0.582c0.052-0.044,0.086-0.195,0.101-0.364 C18.924,33.275,18.813,32.769,18.634,32.631z"/><path fill="#878787" d="M16.003,40.753c0,0.001,0.002,0.003,0.002,0.004c-0.002-0.006-0.003-0.011-0.004-0.017 C16.002,40.745,16.001,40.748,16.003,40.753z"/></g><g><linearGradient id="FoucFpONwWnAEobmqy3pBE" x1="15.37" x2="17.968" y1="8.176" y2="14.875" gradientTransform="matrix(1 0 0 -1 0 48)" gradientUnits="userSpaceOnUse"><stop offset=".361" stop-color="#a5a5a5"/><stop offset=".679" stop-color="#9d9d9d" stop-opacity=".786"/><stop offset="1" stop-color="#8f8f8f" stop-opacity=".571"/></linearGradient><path fill="url(#FoucFpONwWnAEobmqy3pBE)" d="M18.637,32.64l-0.721,0.678c-0.022,0.029-0.145,0.157-0.176,0.192 c-0.359,0.382-0.771,0.83-1.141,1.275c-0.369,0.444-0.695,0.884-0.884,1.252c-0.352,0.813-0.639,1.629-0.752,2.106 c-0.061,0.259-0.086,0.463-0.085,0.593c0.002,0.379,0.085,0.562,0.221,0.663c0.018-0.027,0.054-0.052,0.099-0.076 c0.177-0.63,0.428-1.24,0.72-1.813c0.021-0.041,0.042-0.082,0.064-0.123c0.31-0.591,0.663-1.14,1.021-1.628 c0.395-0.538,0.796-1.003,1.155-1.369c0.241-0.246,0.462-0.444,0.645-0.586c0.069-0.059,0.123-0.194,0.16-0.34 C18.933,33.326,18.822,32.784,18.637,32.64z"/><path fill="#878787" d="M16,41.174c0,0.001,0.003,0.004,0.003,0.006c-0.002-0.008-0.004-0.015-0.006-0.023 C15.999,41.163,15.997,41.168,16,41.174z"/></g><g><linearGradient id="FoucFpONwWnAEobmqy3pBF" x1="15.364" x2="17.958" y1="8.185" y2="14.873" gradientTransform="matrix(1 0 0 -1 0 48)" gradientUnits="userSpaceOnUse"><stop offset=".361" stop-color="#9b9b9b"/><stop offset=".78" stop-color="#939393" stop-opacity=".812"/><stop offset="1" stop-color="#8c8c8c" stop-opacity=".714"/></linearGradient><path fill="url(#FoucFpONwWnAEobmqy3pBF)" d="M18.64,32.649l-0.693,0.639c-0.027,0.036-0.125,0.14-0.164,0.183 c-0.323,0.349-0.732,0.775-1.104,1.197c-0.371,0.421-0.704,0.836-0.879,1.165c-0.37,0.826-0.677,1.683-0.815,2.215 c-0.071,0.272-0.105,0.486-0.108,0.616c-0.011,0.408,0.067,0.608,0.2,0.719c0.017-0.037,0.045-0.072,0.08-0.106 c0.174-0.626,0.424-1.233,0.715-1.804c0.021-0.041,0.042-0.082,0.064-0.123c0.307-0.584,0.658-1.128,1.015-1.615 c0.39-0.531,0.789-0.993,1.15-1.362c0.236-0.241,0.454-0.439,0.64-0.589c0.086-0.074,0.16-0.194,0.219-0.316 C18.941,33.377,18.831,32.799,18.64,32.649z"/><path fill="#878787" d="M15.996,41.595c0.001,0.002,0.003,0.005,0.004,0.007c-0.003-0.009-0.004-0.019-0.007-0.028 C15.995,41.582,15.994,41.587,15.996,41.595z"/></g><g><linearGradient id="FoucFpONwWnAEobmqy3pBG" x1="15.367" x2="17.956" y1="8.191" y2="14.867" gradientTransform="matrix(1 0 0 -1 0 48)" gradientUnits="userSpaceOnUse"><stop offset=".361" stop-color="#919191"/><stop offset="1" stop-color="#8a8a8a" stop-opacity=".857"/></linearGradient><path fill="url(#FoucFpONwWnAEobmqy3pBG)" d="M18.643,32.658l-0.664,0.6c-0.033,0.043-0.105,0.123-0.151,0.175 c-0.287,0.316-0.693,0.721-1.067,1.119c-0.373,0.397-0.714,0.788-0.874,1.079c-0.387,0.84-0.715,1.738-0.879,2.324 c-0.08,0.285-0.124,0.508-0.131,0.639c-0.025,0.438,0.049,0.655,0.179,0.775c0.015-0.046,0.037-0.091,0.062-0.136 c0.172-0.622,0.42-1.226,0.711-1.794c0.021-0.041,0.042-0.082,0.064-0.123c0.305-0.577,0.653-1.117,1.01-1.601 c0.386-0.524,0.782-0.983,1.145-1.355c0.23-0.236,0.446-0.435,0.635-0.592c0.104-0.089,0.197-0.194,0.278-0.292 C18.95,33.428,18.839,32.813,18.643,32.658z"/><path fill="#878787" d="M15.993,42.016c0.001,0.002,0.004,0.007,0.005,0.009c-0.003-0.011-0.005-0.023-0.009-0.034 C15.992,42,15.99,42.007,15.993,42.016z"/></g><g><path fill="#878787" d="M15.033,39.352c0.17-0.677,0.433-1.334,0.75-1.951s0.686-1.194,1.068-1.71s0.776-0.972,1.141-1.348 s0.701-0.67,0.967-0.864c0,0-0.11-0.651-0.312-0.813l-0.636,0.561c-0.396,0.521-1.715,1.64-2.038,2.199 c-0.593,1.251-1.062,2.682-1.097,3.095C14.835,38.988,14.906,39.223,15.033,39.352z"/><path fill="#878787" d="M15.99,42.438c0.001,0.002,0.005,0.008,0.005,0.01c-0.004-0.013-0.006-0.026-0.01-0.04 C15.988,42.419,15.986,42.427,15.99,42.438z"/></g><g><radialGradient id="FoucFpONwWnAEobmqy3pBH" cx="23.295" cy="3.33" r="15.162" gradientTransform="matrix(1 0 0 -1 0 48)" gradientUnits="userSpaceOnUse"><stop offset=".002" stop-color="#fff"/><stop offset="1" stop-color="#d2d5d6"/></radialGradient><path fill="url(#FoucFpONwWnAEobmqy3pBH)" d="M9.082,38.517C9.065,40.879,9.001,43.426,9.516,46h2.109 c-0.772-2.516-1.293-4.69-1.579-7.521C9.981,37.563,9.094,37.606,9.082,38.517z"/><radialGradient id="FoucFpONwWnAEobmqy3pBI" cx="22.376" cy="3.303" r="14.12" gradientTransform="matrix(1 0 0 -1 0 48)" gradientUnits="userSpaceOnUse"><stop offset=".002" stop-color="#f7f7f7"/><stop offset="1" stop-color="#d1d3d4"/></radialGradient><path fill="url(#FoucFpONwWnAEobmqy3pBI)" d="M9.14,38.612C9.134,40.967,9.095,43.459,9.603,46h1.912 c-0.762-2.485-1.231-4.63-1.513-7.426C9.946,37.749,9.148,37.794,9.14,38.612z"/><radialGradient id="FoucFpONwWnAEobmqy3pBJ" cx="21.482" cy="3.276" r="13.112" gradientTransform="matrix(1 0 0 -1 0 48)" gradientUnits="userSpaceOnUse"><stop offset=".002" stop-color="#f0f0f0"/><stop offset="1" stop-color="#cfd2d2"/></radialGradient><path fill="url(#FoucFpONwWnAEobmqy3pBJ)" d="M9.199,38.707C9.204,41.054,9.188,43.491,9.69,46h1.715 c-0.753-2.453-1.169-4.571-1.448-7.33C9.911,37.935,9.202,37.981,9.199,38.707z"/><radialGradient id="FoucFpONwWnAEobmqy3pBK" cx="20.603" cy="3.25" r="12.123" gradientTransform="matrix(1 0 0 -1 0 48)" gradientUnits="userSpaceOnUse"><stop offset=".002" stop-color="#e8e8e8"/><stop offset="1" stop-color="#ced0d0"/></radialGradient><path fill="url(#FoucFpONwWnAEobmqy3pBK)" d="M9.257,38.801c0.016,2.34,0.025,4.723,0.52,7.199h1.518 c-0.743-2.421-1.107-4.512-1.382-7.235C9.875,38.122,9.257,38.169,9.257,38.801z"/><radialGradient id="FoucFpONwWnAEobmqy3pBL" cx="19.724" cy="3.223" r="11.135" gradientTransform="matrix(1 0 0 -1 0 48)" gradientUnits="userSpaceOnUse"><stop offset=".002" stop-color="#e0e0e0"/><stop offset="1" stop-color="#cdcecf"/></radialGradient><path fill="url(#FoucFpONwWnAEobmqy3pBL)" d="M9.316,38.896c0.027,2.333,0.06,4.661,0.548,7.104h1.321 c-0.733-2.389-1.046-4.453-1.317-7.14C9.84,38.308,9.311,38.356,9.316,38.896z"/><radialGradient id="FoucFpONwWnAEobmqy3pBM" cx="18.845" cy="3.197" r="10.148" gradientTransform="matrix(1 0 0 -1 0 48)" gradientUnits="userSpaceOnUse"><stop offset=".002" stop-color="#d8d8d8"/><stop offset="1" stop-color="#cccccd"/></radialGradient><path fill="url(#FoucFpONwWnAEobmqy3pBM)" d="M9.374,38.991C9.413,41.316,9.469,43.589,9.951,46h1.124 c-0.723-2.357-0.984-4.393-1.252-7.045C9.805,38.494,9.365,38.544,9.374,38.991z"/><radialGradient id="FoucFpONwWnAEobmqy3pBN" cx="17.966" cy="3.17" r="9.163" gradientTransform="matrix(1 0 0 -1 0 48)" gradientUnits="userSpaceOnUse"><stop offset=".002" stop-color="#d1d1d1"/><stop offset="1" stop-color="#cacbcb"/></radialGradient><path fill="url(#FoucFpONwWnAEobmqy3pBN)" d="M9.433,39.085c0.05,2.318,0.13,4.537,0.606,6.915h0.927 c-0.714-2.326-0.922-4.334-1.186-6.95C9.77,38.681,9.42,38.732,9.433,39.085z"/><path fill="#c9c9c9" d="M9.491,39.18c0.061,2.311,0.165,4.474,0.634,6.82h0.73c-0.704-2.294-0.86-4.275-1.121-6.855 C9.735,38.867,9.474,38.919,9.491,39.18z"/></g><g><radialGradient id="FoucFpONwWnAEobmqy3pBO" cx="47.107" cy="3.33" r="15.162" gradientTransform="rotate(180 36.004 24)" gradientUnits="userSpaceOnUse"><stop offset=".002" stop-color="#fff"/><stop offset="1" stop-color="#d2d5d6"/></radialGradient><path fill="url(#FoucFpONwWnAEobmqy3pBO)" d="M39.113,38.517c0.017,2.362,0.081,4.909-0.434,7.483H36.57 c0.772-2.516,1.293-4.69,1.579-7.521C38.214,37.563,39.101,37.606,39.113,38.517z"/><radialGradient id="FoucFpONwWnAEobmqy3pBP" cx="50.262" cy="3.303" r="19.7" gradientTransform="matrix(-.7143 0 0 -1 61.72 48)" gradientUnits="userSpaceOnUse"><stop offset=".002" stop-color="#f7f7f7"/><stop offset="1" stop-color="#d1d3d4"/></radialGradient><path fill="url(#FoucFpONwWnAEobmqy3pBP)" d="M39.055,38.612c0.006,2.355,0.046,4.847-0.463,7.388H36.68 c0.762-2.485,1.231-4.63,1.513-7.426C38.249,37.749,39.047,37.794,39.055,38.612z"/><radialGradient id="FoucFpONwWnAEobmqy3pBQ" cx="57.683" cy="3.276" r="30.398" gradientTransform="matrix(-.4286 0 0 -1 51.434 48)" gradientUnits="userSpaceOnUse"><stop offset=".002" stop-color="#f0f0f0"/><stop offset="1" stop-color="#cfd2d2"/></radialGradient><path fill="url(#FoucFpONwWnAEobmqy3pBQ)" d="M38.996,38.707c-0.005,2.347,0.011,4.785-0.491,7.293H36.79 c0.753-2.453,1.169-4.571,1.448-7.33C38.284,37.935,38.993,37.981,38.996,38.707z"/><radialGradient id="FoucFpONwWnAEobmqy3pBR" cx="94.885" cy="3.25" r="84.122" gradientTransform="matrix(-.1429 0 0 -1 41.147 48)" gradientUnits="userSpaceOnUse"><stop offset=".002" stop-color="#e8e8e8"/><stop offset="1" stop-color="#ced0d0"/></radialGradient><path fill="url(#FoucFpONwWnAEobmqy3pBR)" d="M38.938,38.801c-0.016,2.34-0.025,4.723-0.52,7.199H36.9 c0.743-2.421,1.107-4.512,1.382-7.235C38.319,38.122,38.938,38.169,38.938,38.801z"/><radialGradient id="FoucFpONwWnAEobmqy3pBS" cx="115.9" cy="3.223" r="77.171" gradientTransform="matrix(.1429 0 0 -1 30.86 48)" gradientUnits="userSpaceOnUse"><stop offset=".002" stop-color="#e0e0e0"/><stop offset="1" stop-color="#cdcecf"/></radialGradient><path fill="url(#FoucFpONwWnAEobmqy3pBS)" d="M38.879,38.896c-0.027,2.333-0.06,4.661-0.548,7.104H37.01 c0.733-2.389,1.046-4.453,1.317-7.14C38.355,38.308,38.884,38.356,38.879,38.896z"/><radialGradient id="FoucFpONwWnAEobmqy3pBT" cx="60.705" cy="3.197" r="23.453" gradientTransform="matrix(.4286 0 0 -1 20.573 48)" gradientUnits="userSpaceOnUse"><stop offset=".002" stop-color="#d8d8d8"/><stop offset="1" stop-color="#cccccd"/></radialGradient><path fill="url(#FoucFpONwWnAEobmqy3pBT)" d="M38.821,38.991c-0.039,2.326-0.095,4.599-0.577,7.009H37.12 c0.723-2.357,0.984-4.393,1.252-7.045C38.39,38.494,38.83,38.544,38.821,38.991z"/><radialGradient id="FoucFpONwWnAEobmqy3pBU" cx="49.667" cy="3.17" r="12.742" gradientTransform="matrix(.7143 0 0 -1 10.287 48)" gradientUnits="userSpaceOnUse"><stop offset=".002" stop-color="#d1d1d1"/><stop offset="1" stop-color="#cacbcb"/></radialGradient><path fill="url(#FoucFpONwWnAEobmqy3pBU)" d="M38.762,39.085c-0.05,2.318-0.13,4.537-0.606,6.915H37.23 c0.714-2.326,0.922-4.334,1.186-6.95C38.425,38.681,38.775,38.732,38.762,39.085z"/><path fill="#c9c9c9" d="M38.704,39.18c-0.061,2.311-0.165,4.474-0.634,6.82h-0.73c0.704-2.294,0.86-4.275,1.121-6.855 C38.46,38.867,38.721,38.919,38.704,39.18z"/></g><g><linearGradient id="FoucFpONwWnAEobmqy3pBV" x1="33.245" x2="29.501" y1="15.3" y2="13.498" gradientTransform="scale(1 -1) rotate(-3.371 -784.174 -10.448)" gradientUnits="userSpaceOnUse"><stop offset=".361" stop-color="gray"/><stop offset=".679" stop-color="#888" stop-opacity=".573"/><stop offset="1" stop-color="#969696" stop-opacity=".143"/></linearGradient><path fill="url(#FoucFpONwWnAEobmqy3pBV)" d="M28.833,33.833c0,0,1.995,0.853,2.245,1.932c0.799-0.099,1.547-0.495,1.547-0.495 s-3.02-2.627-3.333-2.979C29.146,32.729,28.833,33.833,28.833,33.833z"/><linearGradient id="FoucFpONwWnAEobmqy3pBW" x1="33.225" x2="29.571" y1="15.272" y2="13.513" gradientTransform="matrix(.9985 .0504 .0504 -.9985 -.636 46.393)" gradientUnits="userSpaceOnUse"><stop offset=".361" stop-color="#818181"/><stop offset=".715" stop-color="#898989" stop-opacity=".593"/><stop offset="1" stop-color="#949494" stop-opacity=".265"/></linearGradient><path fill="url(#FoucFpONwWnAEobmqy3pBW)" d="M28.866,33.738c0,0,2.047,0.908,2.317,1.981c0.799-0.099,1.462-0.447,1.462-0.447 c-0.077-0.147-2.988-2.649-3.348-2.95C29.155,32.747,28.866,33.738,28.866,33.738z"/><linearGradient id="FoucFpONwWnAEobmqy3pBX" x1="33.203" x2="29.641" y1="15.247" y2="13.533" gradientTransform="matrix(.9988 .042 .042 -.9988 -.53 46.663)" gradientUnits="userSpaceOnUse"><stop offset=".361" stop-color="#828282"/><stop offset=".761" stop-color="#8a8a8a" stop-opacity=".616"/><stop offset="1" stop-color="#929292" stop-opacity=".388"/></linearGradient><path fill="url(#FoucFpONwWnAEobmqy3pBX)" d="M28.899,33.643c0,0,2.099,0.964,2.389,2.029c0.799-0.099,1.378-0.4,1.378-0.4 c-0.154-0.293-2.955-2.67-3.362-2.921C29.164,32.765,28.899,33.643,28.899,33.643z"/><linearGradient id="FoucFpONwWnAEobmqy3pBY" x1="33.181" x2="29.715" y1="15.216" y2="13.548" gradientTransform="matrix(.999 .0336 .0336 -.999 -.424 46.929)" gradientUnits="userSpaceOnUse"><stop offset=".361" stop-color="#838383"/><stop offset=".826" stop-color="#8b8b8b" stop-opacity=".643"/><stop offset="1" stop-color="#909090" stop-opacity=".51"/></linearGradient><path fill="url(#FoucFpONwWnAEobmqy3pBY)" d="M28.932,33.548c0,0,2.151,1.019,2.461,2.077c0.799-0.099,1.293-0.352,1.293-0.352 c-0.23-0.44-2.923-2.692-3.376-2.892C29.173,32.783,28.932,33.548,28.932,33.548z"/><linearGradient id="FoucFpONwWnAEobmqy3pBZ" x1="33.157" x2="29.788" y1="15.188" y2="13.567" gradientTransform="matrix(.9993 .0252 .0252 -.9993 -.318 47.199)" gradientUnits="userSpaceOnUse"><stop offset=".361" stop-color="#848484"/><stop offset=".968" stop-color="#8c8c8c" stop-opacity=".651"/><stop offset="1" stop-color="#8d8d8d" stop-opacity=".633"/></linearGradient><path fill="url(#FoucFpONwWnAEobmqy3pBZ)" d="M28.964,33.452c0,0,2.203,1.074,2.533,2.126c0.799-0.099,1.208-0.304,1.208-0.304 c-0.307-0.586-2.89-2.714-3.39-2.863C29.182,32.801,28.964,33.452,28.964,33.452z"/><linearGradient id="FoucFpONwWnAEobmqy3pBaa" x1="33.134" x2="29.865" y1="15.155" y2="13.582" gradientTransform="matrix(.9995 .0168 .0168 -.9995 -.212 47.464)" gradientUnits="userSpaceOnUse"><stop offset=".361" stop-color="#858585"/><stop offset="1" stop-color="#8b8b8b" stop-opacity=".755"/></linearGradient><path fill="url(#FoucFpONwWnAEobmqy3pBaa)" d="M28.997,33.357c0,0,2.255,1.129,2.606,2.174c0.799-0.099,1.124-0.257,1.124-0.257 c-0.384-0.733-2.858-2.735-3.405-2.834C29.19,32.818,28.997,33.357,28.997,33.357z"/><linearGradient id="FoucFpONwWnAEobmqy3pBab" x1="33.109" x2="29.941" y1="15.125" y2="13.601" gradientTransform="matrix(.9998 .0084 .0084 -.9998 -.106 47.735)" gradientUnits="userSpaceOnUse"><stop offset=".361" stop-color="#868686"/><stop offset="1" stop-color="#898989" stop-opacity=".878"/></linearGradient><path fill="url(#FoucFpONwWnAEobmqy3pBab)" d="M29.03,33.262c0,0,2.307,1.184,2.678,2.222c0.799-0.099,1.039-0.209,1.039-0.209 c-0.461-0.879-2.825-2.757-3.419-2.805C29.199,32.836,29.03,33.262,29.03,33.262z"/><path fill="#878787" d="M29.062,33.167c0,0,2.359,1.24,2.75,2.271c0.799-0.099,0.954-0.161,0.954-0.161 c-0.538-1.026-2.793-2.779-3.433-2.776C29.208,32.854,29.062,33.167,29.062,33.167z"/></g><g><path fill="#666" d="M35.102,45.048c-0.01,0-0.019,0.001-0.029,0.001c-0.276,0.011-0.509-0.203-0.52-0.479 s0.233-0.519,0.479-0.52c0.008,0,0.016-0.001,0.023-0.001c0.814-0.038,1.388-0.306,1.708-0.795 c0.399-0.609,0.347-1.476,0.117-2.064l0,0c0,0-1.112-2.74-1.7-4.226c-0.342-0.865-1.148-0.891-1.945-0.836l-0.15,0.009 l-0.204,0.008c-0.782,0.027-1.571,0.122-1.83,1.014c-0.446,1.536-1.297,4.373-1.297,4.373c-0.171,0.6-0.141,1.468,0.313,2.037 c0.368,0.462,0.98,0.633,1.799,0.63c0.001,0,0.002,0,0.003,0c0.275-0.013,0.508,0.198,0.523,0.473 c0.014,0.276-0.197,0.511-0.473,0.526c-0.01,0-0.019,0.001-0.029,0.001c-1.434,0.068-2.208-0.509-2.604-1.006 c-0.722-0.906-0.716-2.15-0.491-2.942c0.002-0.007,0.852-2.838,1.297-4.372c0.484-1.665,2.137-1.715,2.76-1.734l0.133-0.004 l0.188-0.011c0.63-0.038,2.3-0.146,2.938,1.466c0.587,1.486,1.699,4.225,1.699,4.225c0.301,0.774,0.424,2.013-0.21,2.982 C37.253,44.334,36.537,44.981,35.102,45.048z"/><path fill="#717171" d="M30.144,36.879c0.466-1.605,2.038-1.675,2.683-1.695c0.009,0,0.02-0.001,0.029-0.001l0.135-0.004 l0.02-0.001l0.166-0.01c0.634-0.039,2.261-0.144,2.885,1.432c0.586,1.483,1.698,4.221,1.699,4.225 c0.296,0.761,0.417,1.98-0.205,2.933c-0.36,0.549-1.082,1.157-2.456,1.222c-0.02,0.001-0.038-0.005-0.047-0.016 c-0.06-0.007-0.111-0.026-0.154-0.046l0,0c-0.006-0.003-0.012-0.006-0.017-0.009c-0.117-0.065-0.196-0.21-0.176-0.383 c0.028-0.245,0.277-0.461,0.52-0.484c0.008-0.001,0.015-0.002,0.023-0.003c0.348-0.038,0.647-0.121,0.899-0.247 c0.312-0.157,0.549-0.375,0.709-0.654c0.258-0.456,0.283-1.026,0.198-1.519c-0.029-0.167-0.08-0.351-0.151-0.533l0,0 c-0.05-0.123-0.947-2.335-1.53-3.801c-0.058-0.147-0.116-0.285-0.171-0.412c-0.373-0.852-1.205-0.866-1.968-0.814l-0.157,0.009 l-0.196,0.007c-0.747,0.026-1.556,0.111-1.849,0.983c-0.053,0.157-0.107,0.329-0.161,0.514c-0.442,1.51-1.103,3.715-1.142,3.845 c-0.058,0.2-0.093,0.401-0.104,0.579c-0.031,0.489,0.049,1.041,0.342,1.463c0.188,0.268,0.451,0.454,0.785,0.577 c0.265,0.098,0.572,0.16,0.92,0.17c0.001,0,0.002,0,0.003,0c0.265,0.002,0.499,0.192,0.546,0.432 c0.041,0.209-0.063,0.389-0.219,0.44c-0.006,0.002-0.012,0.004-0.018,0.005l0,0c-0.018,0.005-0.037,0.009-0.058,0.012 c-0.007,0.001-0.014,0.003-0.022,0.004c-0.035,0.006-0.071,0.009-0.107,0.015c-0.064,0.011-0.138,0.019-0.21,0.018 c-1.183-0.019-1.878-0.512-2.259-0.989c-0.709-0.89-0.712-2.117-0.482-2.894C28.85,41.241,29.699,38.411,30.144,36.879z"/><path fill="#7c7c7c" d="M30.194,36.88c0.456-1.571,1.992-1.636,2.638-1.656c0.008,0,0.019-0.001,0.026-0.001l0.138-0.005 l0.022-0.001l0.162-0.009c0.638-0.039,2.222-0.141,2.832,1.399c0.585,1.481,1.696,4.217,1.699,4.225 c0.291,0.749,0.411,1.948-0.2,2.883c-0.371,0.567-1.1,1.136-2.414,1.197c-0.03,0.001-0.057-0.011-0.065-0.033 c-0.051-0.018-0.084-0.043-0.108-0.06l0,0c-0.003-0.002-0.007-0.005-0.01-0.008c-0.065-0.055-0.103-0.181-0.056-0.329 c0.068-0.215,0.322-0.408,0.56-0.447c0.008-0.001,0.015-0.003,0.023-0.004c0.336-0.059,0.623-0.163,0.862-0.311 c0.29-0.179,0.506-0.412,0.646-0.698c0.229-0.47,0.225-1.036,0.135-1.514c-0.026-0.14-0.08-0.325-0.159-0.526l0,0 c-0.099-0.245-0.968-2.387-1.526-3.791c-0.059-0.147-0.118-0.284-0.178-0.409c-0.403-0.84-1.261-0.841-1.991-0.791l-0.164,0.01 l-0.187,0.007c-0.711,0.024-1.542,0.1-1.867,0.952c-0.059,0.154-0.116,0.324-0.17,0.509c-0.422,1.441-1.061,3.575-1.139,3.836 c-0.065,0.225-0.104,0.43-0.116,0.579c-0.038,0.475,0.012,1.028,0.278,1.466c0.168,0.276,0.411,0.481,0.724,0.63 c0.254,0.12,0.549,0.205,0.888,0.235c0.001,0,0.002,0,0.003,0c0.255,0.017,0.489,0.185,0.57,0.392 c0.07,0.178,0.019,0.331-0.071,0.371c-0.003,0.002-0.007,0.003-0.011,0.004l0,0c-0.011,0.004-0.022,0.009-0.035,0.014 c-0.005,0.002-0.009,0.004-0.014,0.006c-0.025,0.009-0.054,0.015-0.084,0.026c-0.054,0.02-0.126,0.038-0.199,0.037 c-1.155-0.004-1.866-0.468-2.265-0.968c-0.697-0.874-0.699-2.082-0.472-2.846C28.902,41.238,29.751,38.409,30.194,36.88z"/><path fill="#878787" d="M30.245,36.88c0.447-1.538,1.947-1.598,2.592-1.618c0.006,0,0.017-0.001,0.023-0.001L33,35.256 l0.024-0.001l0.157-0.009c0.642-0.039,2.183-0.139,2.779,1.365c0.584,1.478,1.695,4.214,1.699,4.225 c0.286,0.736,0.405,1.915-0.196,2.834c-0.383,0.585-1.118,1.114-2.372,1.173c-0.041,0.001-0.076-0.017-0.083-0.05 c-0.041-0.028-0.057-0.059-0.063-0.074l0,0c-0.001-0.002-0.002-0.004-0.003-0.006c-0.015-0.046-0.009-0.153,0.064-0.276 c0.11-0.186,0.366-0.355,0.601-0.41c0.007-0.002,0.015-0.004,0.022-0.006c0.324-0.079,0.598-0.204,0.824-0.374 c0.268-0.201,0.463-0.449,0.583-0.741c0.199-0.485,0.167-1.045,0.073-1.51c-0.023-0.113-0.079-0.298-0.167-0.518l0,0 c-0.149-0.368-0.988-2.439-1.521-3.781c-0.059-0.148-0.121-0.283-0.184-0.405c-0.433-0.828-1.318-0.815-2.014-0.769l-0.171,0.01 l-0.178,0.006c-0.676,0.023-1.528,0.089-1.886,0.922c-0.065,0.15-0.126,0.319-0.18,0.504c-0.401,1.373-1.019,3.436-1.136,3.827 c-0.073,0.25-0.116,0.459-0.128,0.58c-0.045,0.463-0.024,1.013,0.215,1.47c0.148,0.284,0.371,0.508,0.663,0.682 c0.242,0.144,0.526,0.25,0.855,0.3c0.001,0,0.002,0,0.003,0c0.245,0.032,0.479,0.178,0.594,0.351 c0.098,0.148,0.102,0.272,0.077,0.301c-0.001,0.001-0.002,0.002-0.003,0.003l0,0c-0.003,0.003-0.007,0.008-0.013,0.015 c-0.002,0.002-0.004,0.006-0.007,0.008c-0.015,0.012-0.037,0.021-0.06,0.036c-0.044,0.03-0.115,0.056-0.188,0.057 c-1.126,0.01-1.853-0.425-2.271-0.947c-0.684-0.858-0.686-2.046-0.462-2.798C28.953,41.234,29.802,38.406,30.245,36.88z"/><path fill="#929292" d="M30.296,36.88c0.437-1.504,1.901-1.56,2.547-1.58c0.005,0,0.016-0.001,0.02-0.001l0.142-0.005 l0.026-0.001l0.153-0.009c0.646-0.039,2.144-0.136,2.725,1.331c0.584,1.476,1.693,4.21,1.7,4.226 c0.281,0.723,0.399,1.883-0.191,2.784c-0.395,0.603-1.137,1.093-2.33,1.149c-0.051,0.001-0.096-0.023-0.101-0.067 c-0.032-0.038-0.03-0.076-0.017-0.088l0,0c0.002-0.002,0.003-0.003,0.004-0.005c0.037-0.038,0.087-0.124,0.185-0.223 c0.153-0.156,0.41-0.302,0.642-0.374c0.007-0.002,0.015-0.005,0.022-0.007c0.312-0.099,0.574-0.245,0.787-0.437 c0.247-0.222,0.42-0.486,0.52-0.784c0.168-0.5,0.109-1.055,0.01-1.505c-0.019-0.086-0.079-0.271-0.174-0.51l0,0 c-0.198-0.49-1.009-2.491-1.516-3.771c-0.059-0.148-0.123-0.282-0.191-0.402c-0.464-0.815-1.374-0.79-2.037-0.747l-0.178,0.01 l-0.169,0.006c-0.641,0.022-1.513,0.078-1.905,0.891c-0.071,0.147-0.135,0.313-0.19,0.5c-0.38,1.304-0.976,3.296-1.132,3.818 c-0.081,0.275-0.128,0.488-0.139,0.58c-0.052,0.45-0.059,0.999,0.151,1.474c0.129,0.292,0.33,0.537,0.602,0.735 c0.231,0.168,0.503,0.295,0.823,0.364c0.001,0,0.002,0,0.003,0.001c0.235,0.047,0.468,0.171,0.617,0.31 c0.125,0.117,0.184,0.212,0.225,0.232c0.001,0.001,0.003,0.001,0.004,0.002l0,0c0.005,0.002,0.008,0.008,0.009,0.017 c0,0.003,0,0.007,0,0.011c-0.008,0.013-0.021,0.028-0.037,0.047c-0.034,0.042-0.103,0.074-0.177,0.076 c-1.097,0.023-1.841-0.381-2.277-0.927c-0.671-0.842-0.673-2.01-0.453-2.75C29.005,41.231,29.854,38.404,30.296,36.88z"/><path fill="#9d9d9d" d="M30.347,36.88c0.427-1.471,1.856-1.522,2.502-1.541c0.003,0,0.015-0.001,0.018-0.001l0.145-0.005 l0.028-0.001l0.148-0.009c0.65-0.039,2.106-0.134,2.672,1.298c0.583,1.473,1.692,4.207,1.7,4.226 c0.277,0.711,0.392,1.851-0.186,2.735c-0.407,0.621-1.155,1.072-2.288,1.125c-0.061,0.001-0.105-0.031-0.119-0.084 c-0.013-0.051-0.003-0.093,0.028-0.102l0,0c0.004-0.001,0.008-0.002,0.012-0.004c0.09-0.029,0.183-0.093,0.305-0.169 c0.198-0.124,0.454-0.249,0.682-0.337c0.007-0.003,0.014-0.006,0.021-0.008c0.301-0.118,0.55-0.285,0.75-0.5 c0.225-0.243,0.376-0.523,0.457-0.828c0.138-0.515,0.053-1.064-0.053-1.5c-0.014-0.059-0.078-0.245-0.182-0.503l0,0 c-0.248-0.613-1.029-2.543-1.512-3.761c-0.059-0.149-0.126-0.282-0.198-0.399c-0.494-0.803-1.431-0.764-2.061-0.724l-0.184,0.011 l-0.161,0.006c-0.606,0.02-1.499,0.067-1.923,0.86c-0.077,0.143-0.145,0.308-0.199,0.495c-0.36,1.235-0.934,3.156-1.129,3.809 c-0.089,0.3-0.142,0.516-0.151,0.58c-0.061,0.438-0.094,0.984,0.087,1.478c0.11,0.3,0.289,0.566,0.541,0.787 c0.219,0.193,0.48,0.339,0.791,0.429c0.001,0,0.002,0,0.002,0.001c0.225,0.062,0.457,0.165,0.641,0.269 c0.153,0.087,0.266,0.154,0.374,0.163c0.004,0,0.007,0.001,0.011,0.001l0,0c0.012,0.001,0.023,0.007,0.031,0.018 c0.003,0.004,0.006,0.008,0.007,0.013c0.003,0.015-0.003,0.035-0.013,0.058c-0.022,0.054-0.092,0.092-0.166,0.095 c-1.069,0.036-1.829-0.338-2.283-0.906c-0.659-0.826-0.66-1.975-0.443-2.702C29.057,41.227,29.905,38.402,30.347,36.88z"/><path fill="#a8a8a8" d="M30.397,36.88c0.417-1.437,1.81-1.484,2.456-1.503c0.002,0,0.013,0,0.015-0.001l0.147-0.005 l0.03-0.001l0.144-0.009c0.654-0.04,2.067-0.131,2.619,1.264c0.582,1.471,1.69,4.203,1.7,4.226 c0.272,0.698,0.386,1.818-0.181,2.686c-0.418,0.639-1.173,1.05-2.245,1.101c-0.071,0.002-0.129-0.036-0.138-0.102 c-0.008-0.059,0.023-0.11,0.074-0.116l0,0c0.006-0.001,0.012-0.002,0.019-0.002c0.141-0.019,0.279-0.062,0.425-0.116 c0.243-0.09,0.498-0.196,0.723-0.301c0.007-0.003,0.014-0.007,0.021-0.01c0.29-0.137,0.527-0.325,0.712-0.563 c0.205-0.263,0.332-0.561,0.395-0.871c0.106-0.53-0.001-1.074-0.116-1.495c-0.009-0.033-0.078-0.218-0.19-0.495l0,0 c-0.298-0.735-1.05-2.596-1.507-3.751c-0.059-0.15-0.128-0.281-0.204-0.396c-0.525-0.791-1.487-0.739-2.084-0.702l-0.191,0.011 l-0.152,0.005c-0.571,0.019-1.484,0.056-1.942,0.829c-0.083,0.14-0.154,0.302-0.209,0.49c-0.339,1.166-0.891,3.017-1.126,3.799 c-0.097,0.325-0.156,0.545-0.163,0.581c-0.072,0.425-0.128,0.97,0.024,1.482c0.091,0.308,0.248,0.595,0.48,0.84 c0.206,0.218,0.458,0.384,0.758,0.493c0.001,0,0.002,0.001,0.002,0.001c0.216,0.076,0.446,0.159,0.664,0.229 c0.18,0.057,0.349,0.095,0.522,0.094c0.006,0,0.012,0,0.019,0l0,0c0.02,0,0.039,0.007,0.053,0.019 c0.005,0.005,0.01,0.01,0.014,0.016c0.011,0.018,0.014,0.042,0.011,0.068c-0.009,0.066-0.08,0.11-0.155,0.114 c-1.04,0.049-1.817-0.295-2.289-0.885c-0.646-0.81-0.647-1.939-0.433-2.654C29.109,41.224,29.956,38.399,30.397,36.88z"/><path fill="#b3b3b3" d="M35.079,44.57c-0.082,0.002-0.153-0.042-0.156-0.119c-0.003-0.068,0.05-0.127,0.119-0.13l0,0 c0.009,0,0.017-0.001,0.026-0.001c0.94-0.044,1.615-0.368,2.004-0.964c0.504-0.77,0.398-1.778,0.153-2.405 c-0.011-0.026-1.119-2.758-1.7-4.228c-0.471-1.19-1.673-1.111-2.318-1.072l-0.198,0.011l-0.143,0.005 c-0.633,0.021-1.822,0.055-2.179,1.284c-0.44,1.518-1.288,4.343-1.296,4.371c-0.184,0.646-0.195,1.659,0.379,2.378 c0.444,0.557,1.146,0.816,2.086,0.772c0.009,0,0.017-0.001,0.026-0.001l0,0c0.069-0.003,0.127,0.05,0.131,0.118 c0.004,0.077-0.069,0.127-0.144,0.133c-1.012,0.048-1.805-0.251-2.295-0.865c-0.633-0.794-0.624-1.9-0.424-2.606 c0.009-0.03,0.856-2.853,1.297-4.369c0.408-1.404,1.765-1.446,2.411-1.465l0.194-0.007l0.139-0.009 c0.658-0.04,2.028-0.129,2.566,1.23c0.581,1.468,1.689,4.2,1.7,4.227c0.267,0.685,0.38,1.786-0.176,2.636 C36.852,44.15,36.091,44.522,35.079,44.57z"/><path fill="#b3b3b3" d="M35.079,44.57c-0.082,0.002-0.153-0.042-0.156-0.119c-0.003-0.068,0.05-0.127,0.119-0.13l0,0 c0.009,0,0.017-0.001,0.026-0.001c0.94-0.044,1.615-0.368,2.004-0.964c0.504-0.77,0.402-1.779,0.153-2.405 c-0.01-0.026-1.119-2.758-1.7-4.228c-0.471-1.19-1.673-1.111-2.318-1.072l-0.198,0.011l-0.143,0.005 c-0.633,0.021-1.822,0.055-2.179,1.284c-0.44,1.518-1.288,4.343-1.296,4.371c-0.191,0.644-0.195,1.659,0.379,2.378 c0.444,0.557,1.146,0.816,2.086,0.772c0.009,0,0.017-0.001,0.026-0.001l0,0c0.069-0.003,0.127,0.05,0.131,0.118 c0.004,0.077-0.069,0.128-0.144,0.133c-1.011,0.061-1.805-0.251-2.295-0.865c-0.633-0.794-0.634-1.903-0.424-2.606 c0.009-0.03,0.856-2.853,1.297-4.369c0.408-1.404,1.765-1.446,2.411-1.465l0.194-0.007l0.139-0.009 c0.658-0.04,2.028-0.129,2.566,1.23c0.581,1.468,1.689,4.2,1.7,4.227c0.273,0.683,0.38,1.786-0.176,2.636 C36.852,44.15,36.091,44.522,35.079,44.57z"/><path fill="#b3b3b3" d="M35.079,44.57c-0.082,0.002-0.153-0.042-0.156-0.119c-0.003-0.068,0.05-0.127,0.119-0.13l0,0 c0.009,0,0.017-0.001,0.026-0.001c0.94-0.044,1.615-0.368,2.004-0.964c0.504-0.77,0.402-1.779,0.153-2.405 c-0.01-0.026-1.119-2.758-1.7-4.228c-0.471-1.19-1.673-1.111-2.318-1.072l-0.198,0.011l-0.143,0.005 c-0.633,0.021-1.822,0.055-2.179,1.284c-0.44,1.518-1.288,4.343-1.296,4.371c-0.191,0.644-0.195,1.659,0.379,2.378 c0.444,0.557,1.146,0.816,2.086,0.772c0.009,0,0.017-0.001,0.026-0.001l0,0c0.069-0.003,0.127,0.05,0.131,0.118 c0.004,0.077-0.069,0.128-0.144,0.133c-1.011,0.061-1.805-0.251-2.295-0.865c-0.633-0.794-0.634-1.903-0.424-2.606 c0.009-0.03,0.856-2.853,1.297-4.369c0.408-1.404,1.765-1.446,2.411-1.465l0.194-0.007l0.139-0.009 c0.658-0.04,2.028-0.129,2.566,1.23c0.581,1.468,1.689,4.2,1.7,4.227c0.273,0.683,0.38,1.786-0.176,2.636 C36.852,44.15,36.091,44.522,35.079,44.57z"/><path fill="#b3b3b3" d="M35.079,44.57c-0.082,0.002-0.153-0.042-0.156-0.119c-0.003-0.068,0.05-0.127,0.119-0.13l0,0 c0.009,0,0.017-0.001,0.026-0.001c0.94-0.044,1.615-0.368,2.004-0.964c0.504-0.77,0.402-1.779,0.153-2.405 c-0.01-0.026-1.119-2.758-1.7-4.228c-0.471-1.19-1.673-1.111-2.318-1.072l-0.198,0.011l-0.143,0.005 c-0.633,0.021-1.822,0.055-2.179,1.284c-0.44,1.518-1.288,4.343-1.296,4.371c-0.191,0.644-0.195,1.659,0.379,2.378 c0.444,0.557,1.146,0.816,2.086,0.772c0.009,0,0.017-0.001,0.026-0.001l0,0c0.069-0.003,0.127,0.05,0.131,0.118 c0.004,0.077-0.069,0.128-0.144,0.133c-1.011,0.061-1.805-0.251-2.295-0.865c-0.633-0.794-0.634-1.903-0.424-2.606 c0.009-0.03,0.856-2.853,1.297-4.369c0.408-1.404,1.765-1.446,2.411-1.465l0.194-0.007l0.139-0.009 c0.658-0.04,2.028-0.129,2.566,1.23c0.581,1.468,1.689,4.2,1.7,4.227c0.273,0.683,0.38,1.786-0.176,2.636 C36.852,44.15,36.091,44.522,35.079,44.57z"/><path fill="#b3b3b3" d="M35.079,44.57c-0.082,0.002-0.153-0.042-0.156-0.119c-0.003-0.068,0.05-0.127,0.119-0.13l0,0 c0.009,0,0.017-0.001,0.026-0.001c0.94-0.044,1.615-0.368,2.004-0.964c0.504-0.77,0.402-1.779,0.153-2.405 c-0.01-0.026-1.119-2.758-1.7-4.228c-0.471-1.19-1.673-1.111-2.318-1.072l-0.198,0.011l-0.143,0.005 c-0.633,0.021-1.822,0.055-2.179,1.284c-0.44,1.518-1.288,4.343-1.296,4.371c-0.191,0.644-0.195,1.659,0.379,2.378 c0.444,0.557,1.146,0.816,2.086,0.772c0.009,0,0.017-0.001,0.026-0.001l0,0c0.069-0.003,0.127,0.05,0.131,0.118 c0.004,0.077-0.069,0.128-0.144,0.133c-1.011,0.061-1.805-0.251-2.295-0.865c-0.633-0.794-0.634-1.903-0.424-2.606 c0.009-0.03,0.856-2.853,1.297-4.369c0.408-1.404,1.765-1.446,2.411-1.465l0.194-0.007l0.139-0.009 c0.658-0.04,2.028-0.129,2.566,1.23c0.581,1.468,1.689,4.2,1.7,4.227c0.273,0.683,0.38,1.786-0.176,2.636 C36.852,44.15,36.091,44.522,35.079,44.57z"/><path fill="#b3b3b3" d="M35.079,44.57c-0.082,0.002-0.153-0.042-0.156-0.119c-0.003-0.068,0.05-0.127,0.119-0.13l0,0 c0.009,0,0.017-0.001,0.026-0.001c0.94-0.044,1.615-0.368,2.004-0.964c0.504-0.77,0.402-1.779,0.153-2.405 c-0.01-0.026-1.119-2.758-1.7-4.228c-0.471-1.19-1.673-1.111-2.318-1.072l-0.198,0.011l-0.143,0.005 c-0.633,0.021-1.822,0.055-2.179,1.284c-0.44,1.518-1.288,4.343-1.296,4.371c-0.191,0.644-0.195,1.659,0.379,2.378 c0.444,0.557,1.146,0.816,2.086,0.772c0.009,0,0.017-0.001,0.026-0.001l0,0c0.069-0.003,0.127,0.05,0.131,0.118 c0.004,0.077-0.069,0.128-0.144,0.133c-1.011,0.061-1.805-0.251-2.295-0.865c-0.633-0.794-0.634-1.903-0.424-2.606 c0.009-0.03,0.856-2.853,1.297-4.369c0.408-1.404,1.765-1.446,2.411-1.465l0.194-0.007l0.139-0.009 c0.658-0.04,2.028-0.129,2.566,1.23c0.581,1.468,1.689,4.2,1.7,4.227c0.273,0.683,0.38,1.786-0.176,2.636 C36.852,44.15,36.091,44.522,35.079,44.57z"/><path fill="#b3b3b3" d="M35.079,44.57c-0.082,0.002-0.153-0.042-0.156-0.119c-0.003-0.068,0.05-0.127,0.119-0.13l0,0 c0.009,0,0.017-0.001,0.026-0.001c0.94-0.044,1.615-0.368,2.004-0.964c0.504-0.77,0.402-1.779,0.153-2.405 c-0.01-0.026-1.119-2.758-1.7-4.228c-0.471-1.19-1.673-1.111-2.318-1.072l-0.198,0.011l-0.143,0.005 c-0.633,0.021-1.822,0.055-2.179,1.284c-0.44,1.518-1.288,4.343-1.296,4.371c-0.191,0.644-0.195,1.659,0.379,2.378 c0.444,0.557,1.146,0.816,2.086,0.772c0.009,0,0.017-0.001,0.026-0.001l0,0c0.069-0.003,0.127,0.05,0.131,0.118 c0.004,0.077-0.069,0.128-0.144,0.133c-1.011,0.061-1.805-0.251-2.295-0.865c-0.633-0.794-0.634-1.903-0.424-2.606 c0.009-0.03,0.856-2.853,1.297-4.369c0.408-1.404,1.765-1.446,2.411-1.465l0.194-0.007l0.139-0.009 c0.658-0.04,2.028-0.129,2.566,1.23c0.581,1.468,1.689,4.2,1.7,4.227c0.273,0.683,0.38,1.786-0.176,2.636 C36.852,44.15,36.091,44.522,35.079,44.57z"/><path fill="#b3b3b3" d="M35.079,44.57c-0.082,0.002-0.153-0.042-0.156-0.119c-0.003-0.068,0.05-0.127,0.119-0.13l0,0 c0.009,0,0.017-0.001,0.026-0.001c0.94-0.044,1.615-0.368,2.004-0.964c0.504-0.77,0.398-1.778,0.153-2.405 c-0.011-0.026-1.119-2.758-1.7-4.228c-0.471-1.19-1.673-1.111-2.318-1.072l-0.198,0.011l-0.143,0.005 c-0.633,0.021-1.822,0.055-2.179,1.284c-0.44,1.518-1.288,4.343-1.296,4.371c-0.184,0.646-0.195,1.659,0.379,2.378 c0.444,0.557,1.146,0.816,2.086,0.772c0.009,0,0.017-0.001,0.026-0.001l0,0c0.069-0.003,0.127,0.05,0.131,0.118 c0.004,0.077-0.069,0.127-0.144,0.133c-1.012,0.048-1.805-0.251-2.295-0.865c-0.633-0.794-0.624-1.9-0.424-2.606 c0.009-0.03,0.856-2.853,1.297-4.369c0.408-1.404,1.765-1.446,2.411-1.465l0.194-0.007l0.139-0.009 c0.658-0.04,2.028-0.129,2.566,1.23c0.581,1.468,1.689,4.2,1.7,4.227c0.267,0.685,0.38,1.786-0.176,2.636 C36.852,44.15,36.091,44.522,35.079,44.57z"/><path fill="#b3b3b3" d="M35.079,44.57c-0.082,0.002-0.153-0.042-0.156-0.119c-0.003-0.068,0.05-0.127,0.119-0.13l0,0 c0.009,0,0.017-0.001,0.026-0.001c0.94-0.044,1.615-0.368,2.004-0.964c0.504-0.77,0.402-1.779,0.153-2.405 c-0.01-0.026-1.119-2.758-1.7-4.228c-0.471-1.19-1.673-1.111-2.318-1.072l-0.198,0.011l-0.143,0.005 c-0.633,0.021-1.822,0.055-2.179,1.284c-0.44,1.518-1.288,4.343-1.296,4.371c-0.191,0.644-0.195,1.659,0.379,2.378 c0.444,0.557,1.146,0.816,2.086,0.772c0.009,0,0.017-0.001,0.026-0.001l0,0c0.069-0.003,0.127,0.05,0.131,0.118 c0.004,0.077-0.069,0.128-0.144,0.133c-1.011,0.061-1.805-0.251-2.295-0.865c-0.633-0.794-0.634-1.903-0.424-2.606 c0.009-0.03,0.856-2.853,1.297-4.369c0.408-1.404,1.765-1.446,2.411-1.465l0.194-0.007l0.139-0.009 c0.658-0.04,2.028-0.129,2.566,1.23c0.581,1.468,1.689,4.2,1.7,4.227c0.273,0.683,0.38,1.786-0.176,2.636 C36.852,44.15,36.091,44.522,35.079,44.57z"/><path fill="#b3b3b3" d="M35.079,44.57c-0.082,0.002-0.153-0.042-0.156-0.119c-0.003-0.068,0.05-0.127,0.119-0.13l0,0 c0.009,0,0.017-0.001,0.026-0.001c0.94-0.044,1.615-0.368,2.004-0.964c0.504-0.77,0.402-1.779,0.153-2.405 c-0.01-0.026-1.119-2.758-1.7-4.228c-0.471-1.19-1.673-1.111-2.318-1.072l-0.198,0.011l-0.143,0.005 c-0.633,0.021-1.822,0.055-2.179,1.284c-0.44,1.518-1.288,4.343-1.296,4.371c-0.191,0.644-0.195,1.659,0.379,2.378 c0.444,0.557,1.146,0.816,2.086,0.772c0.009,0,0.017-0.001,0.026-0.001l0,0c0.069-0.003,0.127,0.05,0.131,0.118 c0.004,0.077-0.069,0.128-0.144,0.133c-1.011,0.061-1.805-0.251-2.295-0.865c-0.633-0.794-0.634-1.903-0.424-2.606 c0.009-0.03,0.856-2.853,1.297-4.369c0.408-1.404,1.765-1.446,2.411-1.465l0.194-0.007l0.139-0.009 c0.658-0.04,2.028-0.129,2.566,1.23c0.581,1.468,1.689,4.2,1.7,4.227c0.273,0.683,0.38,1.786-0.176,2.636 C36.852,44.15,36.091,44.522,35.079,44.57z"/><path fill="#b3b3b3" d="M35.079,44.57c-0.082,0.002-0.153-0.042-0.156-0.119c-0.003-0.068,0.05-0.127,0.119-0.13l0,0 c0.009,0,0.017-0.001,0.026-0.001c0.94-0.044,1.615-0.368,2.004-0.964c0.504-0.77,0.402-1.779,0.153-2.405 c-0.01-0.026-1.119-2.758-1.7-4.228c-0.471-1.19-1.673-1.111-2.318-1.072l-0.198,0.011l-0.143,0.005 c-0.633,0.021-1.822,0.055-2.179,1.284c-0.44,1.518-1.288,4.343-1.296,4.371c-0.191,0.644-0.195,1.659,0.379,2.378 c0.444,0.557,1.146,0.816,2.086,0.772c0.009,0,0.017-0.001,0.026-0.001l0,0c0.069-0.003,0.127,0.05,0.131,0.118 c0.004,0.077-0.069,0.128-0.144,0.133c-1.011,0.061-1.805-0.251-2.295-0.865c-0.633-0.794-0.634-1.903-0.424-2.606 c0.009-0.03,0.856-2.853,1.297-4.369c0.408-1.404,1.765-1.446,2.411-1.465l0.194-0.007l0.139-0.009 c0.658-0.04,2.028-0.129,2.566,1.23c0.581,1.468,1.689,4.2,1.7,4.227c0.273,0.683,0.38,1.786-0.176,2.636 C36.852,44.15,36.091,44.522,35.079,44.57z"/><path fill="#b3b3b3" d="M35.079,44.57c-0.082,0.002-0.153-0.042-0.156-0.119c-0.003-0.068,0.05-0.127,0.119-0.13l0,0 c0.009,0,0.017-0.001,0.026-0.001c0.94-0.044,1.615-0.368,2.004-0.964c0.504-0.77,0.402-1.779,0.153-2.405 c-0.01-0.026-1.119-2.758-1.7-4.228c-0.471-1.19-1.673-1.111-2.318-1.072l-0.198,0.011l-0.143,0.005 c-0.633,0.021-1.822,0.055-2.179,1.284c-0.44,1.518-1.288,4.343-1.296,4.371c-0.191,0.644-0.195,1.659,0.379,2.378 c0.444,0.557,1.146,0.816,2.086,0.772c0.009,0,0.017-0.001,0.026-0.001l0,0c0.069-0.003,0.127,0.05,0.131,0.118 c0.004,0.077-0.069,0.128-0.144,0.133c-1.011,0.061-1.805-0.251-2.295-0.865c-0.633-0.794-0.634-1.903-0.424-2.606 c0.009-0.03,0.856-2.853,1.297-4.369c0.408-1.404,1.765-1.446,2.411-1.465l0.194-0.007l0.139-0.009 c0.658-0.04,2.028-0.129,2.566,1.23c0.581,1.468,1.689,4.2,1.7,4.227c0.273,0.683,0.38,1.786-0.176,2.636 C36.852,44.15,36.091,44.522,35.079,44.57z"/><path fill="#b3b3b3" d="M35.079,44.57c-0.082,0.002-0.153-0.042-0.156-0.119c-0.003-0.068,0.05-0.127,0.119-0.13l0,0 c0.009,0,0.017-0.001,0.026-0.001c0.94-0.044,1.615-0.368,2.004-0.964c0.504-0.77,0.402-1.779,0.153-2.405 c-0.01-0.026-1.119-2.758-1.7-4.228c-0.471-1.19-1.673-1.111-2.318-1.072l-0.198,0.011l-0.143,0.005 c-0.633,0.021-1.822,0.055-2.179,1.284c-0.44,1.518-1.288,4.343-1.296,4.371c-0.191,0.644-0.195,1.659,0.379,2.378 c0.444,0.557,1.146,0.816,2.086,0.772c0.009,0,0.017-0.001,0.026-0.001l0,0c0.069-0.003,0.127,0.05,0.131,0.118 c0.004,0.077-0.069,0.128-0.144,0.133c-1.011,0.061-1.805-0.251-2.295-0.865c-0.633-0.794-0.634-1.903-0.424-2.606 c0.009-0.03,0.856-2.853,1.297-4.369c0.408-1.404,1.765-1.446,2.411-1.465l0.194-0.007l0.139-0.009 c0.658-0.04,2.028-0.129,2.566,1.23c0.581,1.468,1.689,4.2,1.7,4.227c0.273,0.683,0.38,1.786-0.176,2.636 C36.852,44.15,36.091,44.522,35.079,44.57z"/><path fill="#b3b3b3" d="M35.079,44.57c-0.082,0.002-0.153-0.042-0.156-0.119c-0.003-0.068,0.05-0.127,0.119-0.13l0,0 c0.009,0,0.017-0.001,0.026-0.001c0.94-0.044,1.615-0.368,2.004-0.964c0.504-0.77,0.402-1.779,0.153-2.405 c-0.01-0.026-1.119-2.758-1.7-4.228c-0.471-1.19-1.673-1.111-2.318-1.072l-0.198,0.011l-0.143,0.005 c-0.633,0.021-1.822,0.055-2.179,1.284c-0.44,1.518-1.288,4.343-1.296,4.371c-0.191,0.644-0.195,1.659,0.379,2.378 c0.444,0.557,1.146,0.816,2.086,0.772c0.009,0,0.017-0.001,0.026-0.001l0,0c0.069-0.003,0.127,0.05,0.131,0.118 c0.004,0.077-0.069,0.128-0.144,0.133c-1.011,0.061-1.805-0.251-2.295-0.865c-0.633-0.794-0.634-1.903-0.424-2.606 c0.009-0.03,0.856-2.853,1.297-4.369c0.408-1.404,1.765-1.446,2.411-1.465l0.194-0.007l0.139-0.009 c0.658-0.04,2.028-0.129,2.566,1.23c0.581,1.468,1.689,4.2,1.7,4.227c0.273,0.683,0.38,1.786-0.176,2.636 C36.852,44.15,36.091,44.522,35.079,44.57z"/><path fill="#b3b3b3" d="M35.079,44.57c-0.082,0.002-0.153-0.042-0.156-0.119c-0.003-0.068,0.05-0.127,0.119-0.13l0,0 c0.009,0,0.017-0.001,0.026-0.001c0.94-0.044,1.615-0.368,2.004-0.964c0.504-0.77,0.398-1.778,0.153-2.405 c-0.011-0.026-1.119-2.758-1.7-4.228c-0.471-1.19-1.673-1.111-2.318-1.072l-0.198,0.011l-0.143,0.005 c-0.633,0.021-1.822,0.055-2.179,1.284c-0.44,1.518-1.288,4.343-1.296,4.371c-0.184,0.646-0.195,1.659,0.379,2.378 c0.444,0.557,1.146,0.816,2.086,0.772c0.009,0,0.017-0.001,0.026-0.001l0,0c0.069-0.003,0.127,0.05,0.131,0.118 c0.004,0.077-0.069,0.127-0.144,0.133c-1.012,0.048-1.805-0.251-2.295-0.865c-0.633-0.794-0.624-1.9-0.424-2.606 c0.009-0.03,0.856-2.853,1.297-4.369c0.408-1.404,1.765-1.446,2.411-1.465l0.194-0.007l0.139-0.009 c0.658-0.04,2.028-0.129,2.566,1.23c0.581,1.468,1.689,4.2,1.7,4.227c0.267,0.685,0.38,1.786-0.176,2.636 C36.852,44.15,36.091,44.522,35.079,44.57z"/></g><radialGradient id="FoucFpONwWnAEobmqy3pBac" cx="31.906" cy="3.589" r=".703" gradientTransform="matrix(1 0 0 -1 0 48)" gradientUnits="userSpaceOnUse"><stop offset=".002" stop-color="gray"/><stop offset=".363" stop-color="#636363"/><stop offset="1" stop-color="#333"/></radialGradient><circle cx="32.031" cy="44.614" r=".703" fill="url(#FoucFpONwWnAEobmqy3pBac)"/><radialGradient id="FoucFpONwWnAEobmqy3pBad" cx="34.871" cy="3.73" r=".703" gradientTransform="matrix(1 0 0 -1 0 48)" gradientUnits="userSpaceOnUse"><stop offset=".002" stop-color="gray"/><stop offset=".363" stop-color="#636363"/><stop offset="1" stop-color="#333"/></radialGradient><circle cx="35.028" cy="44.473" r=".703" fill="url(#FoucFpONwWnAEobmqy3pBad)"/><g><radialGradient id="FoucFpONwWnAEobmqy3pBae" cx="23.31" cy="10.141" r="9.457" gradientTransform="matrix(.9989 -.047 -.0454 -.9643 .47 48.81)" gradientUnits="userSpaceOnUse"><stop offset="0" stop-color="#999"/><stop offset=".41" stop-color="#696969"/><stop offset=".798" stop-color="#424242"/><stop offset="1" stop-color="#333"/></radialGradient><path fill="url(#FoucFpONwWnAEobmqy3pBae)" d="M36.112,36.596c-0.631-1.594-2.268-1.507-2.913-1.467 c-1.636-3.125-6.205-4.352-10.123-4.167c-0.007,0-0.014,0.001-0.02,0.001c-2.407,0.117-4.622,0.969-6.383,2.846 c-0.881,0.938-1.648,2.133-2.269,3.62s-1.096,3.267-1.392,5.376c-0.038,0.274,0.152,0.527,0.425,0.565 c0.031,0.004,0.063,0.006,0.094,0.004c0.236-0.011,0.437-0.188,0.471-0.43c0.275-1.957,0.704-3.609,1.263-4.989 c0.559-1.38,1.246-2.488,2.038-3.358c1.584-1.74,3.585-2.528,5.801-2.636c0.006,0,0.012-0.001,0.018-0.001 c3.315-0.156,7.364,0.81,8.974,3.254c-0.735,0.122-1.661,0.485-2.004,1.665c-0.157,0.541-0.279,0.949-0.482,1.632 c0.265-0.202,0.905-0.049,0.974,0.243c0.17-0.574,0.337-1.141,0.469-1.595c0.259-0.892,1.048-0.987,1.83-1.014l0.204-0.008 l0.15-0.009c0.797-0.055,1.602-0.028,1.945,0.836c0.174,0.439,0.393,0.989,0.617,1.544c0.062-0.221,0.74-0.453,0.945-0.339 C36.478,37.509,36.319,37.119,36.112,36.596z"/><radialGradient id="FoucFpONwWnAEobmqy3pBaf" cx="23.325" cy="10.238" r="9.38" gradientTransform="matrix(.9989 -.047 -.0454 -.9643 .47 48.806)" gradientUnits="userSpaceOnUse"><stop offset="0" stop-color="#959595"/><stop offset=".329" stop-color="#747474"/><stop offset=".77" stop-color="#4d4d4d"/><stop offset="1" stop-color="#3e3e3e"/></radialGradient><path fill="url(#FoucFpONwWnAEobmqy3pBaf)" d="M17.066,33.554c-1.072,0.985-1.966,2.336-2.624,3.928c-0.621,1.498-1.069,3.229-1.348,5.14 c-0.041,0.279,0.118,0.522,0.352,0.556c0.027,0.004,0.089,0.01,0.116,0.009c0.202-0.011,0.381-0.196,0.42-0.46 c0.187-1.249,0.451-2.459,0.806-3.573c0.155-0.488,0.324-0.954,0.508-1.395c0.562-1.349,1.26-2.462,2.079-3.334 c0.488-0.522,1.018-0.957,1.587-1.308c1.294-0.799,2.736-1.188,4.258-1.258c0.006,0,0.012-0.001,0.018-0.001 c1.228-0.054,2.53,0.053,3.767,0.327c2.193,0.489,4.17,1.504,5.17,3.044c-0.044,0.017-0.089,0.035-0.134,0.055 c-0.689,0.132-1.537,0.483-1.876,1.561c-0.034,0.108-0.065,0.212-0.096,0.316c-0.117,0.398-0.231,0.781-0.389,1.315 c0.034-0.019,0.076-0.031,0.122-0.036c0.081-0.017,0.17-0.018,0.26-0.007c0.229-0.014,0.463,0.061,0.509,0.184 c0.082-0.276,0.162-0.548,0.237-0.805c0.084-0.286,0.171-0.547,0.254-0.774c0.261-0.719,0.882-0.882,1.506-0.932 c0.041-0.004,0.102-0.007,0.143-0.01c0.064-0.004,0.157-0.008,0.222-0.01c0.009-0.001,0.193-0.008,0.203-0.008 c0.006,0,0.14-0.008,0.146-0.008c0.773-0.05,1.589-0.016,1.944,0.851c0.018,0.043,0.035,0.087,0.053,0.132 c0.164,0.415,0.364,0.914,0.567,1.42c0.03-0.072,0.127-0.145,0.249-0.203c0.191-0.124,0.464-0.207,0.569-0.166 c-0.248-0.617-0.404-1-0.598-1.49c-0.618-1.561-2.216-1.473-2.863-1.433c-0.021-0.039-0.062-0.077-0.083-0.116 c-0.007-0.013-0.022-0.026-0.029-0.039c-1.178-2.085-3.754-3.344-6.545-3.832c-1.046-0.18-2.12-0.252-3.159-0.221 c-0.007,0-0.013,0-0.02,0.001C21.041,31.051,18.902,31.866,17.066,33.554z"/><radialGradient id="FoucFpONwWnAEobmqy3pBag" cx="23.34" cy="10.337" r="9.303" gradientTransform="matrix(.9989 -.047 -.0454 -.9643 .47 48.803)" gradientUnits="userSpaceOnUse"><stop offset="0" stop-color="#929292"/><stop offset=".224" stop-color="#7f7f7f"/><stop offset=".734" stop-color="#585858"/><stop offset="1" stop-color="#494949"/></radialGradient><path fill="url(#FoucFpONwWnAEobmqy3pBag)" d="M17.459,33.3c-1.273,1.027-2.283,2.538-2.979,4.236c-0.62,1.508-1.044,3.191-1.304,4.904 c-0.043,0.285,0.084,0.518,0.279,0.548c0.022,0.003,0.116,0.014,0.138,0.013c0.169-0.012,0.324-0.205,0.369-0.49 c0.184-1.165,0.456-2.395,0.843-3.564c0.159-0.479,0.331-0.942,0.522-1.384c0.565-1.319,1.273-2.437,2.119-3.311 c0.492-0.512,1.03-0.94,1.61-1.28c1.325-0.776,2.775-1.152,4.279-1.217c0.006,0,0.012-0.001,0.018-0.001 c1.245-0.052,2.543,0.071,3.766,0.36c2.208,0.528,4.158,1.601,5.134,3.128c-0.03,0.025-0.062,0.05-0.094,0.077 c-0.678,0.114-1.562,0.423-1.923,1.491c-0.036,0.106-0.069,0.211-0.1,0.317c-0.115,0.394-0.233,0.789-0.388,1.313 c0.025-0.007,0.057-0.007,0.094-0.001c0.082-0.012,0.169-0.011,0.257,0.004c0.203-0.052,0.41-0.028,0.459,0.036 c0.081-0.276,0.161-0.546,0.235-0.798c0.085-0.29,0.182-0.546,0.279-0.765c0.305-0.686,0.952-0.826,1.551-0.871 c0.034-0.003,0.109-0.007,0.143-0.009c0.054-0.003,0.164-0.009,0.218-0.011c0.017-0.001,0.182-0.008,0.201-0.009 c0.011-0.001,0.13-0.007,0.141-0.008c0.749-0.045,1.575-0.003,1.943,0.865c0.019,0.044,0.037,0.089,0.055,0.135 c0.164,0.415,0.365,0.916,0.569,1.424c0.037-0.065,0.132-0.131,0.247-0.183c0.149-0.13,0.365-0.225,0.442-0.216 c-0.231-0.574-0.383-0.949-0.564-1.406c-0.605-1.527-2.165-1.439-2.814-1.4c-0.017-0.033-0.075-0.063-0.093-0.095 c-0.006-0.011-0.026-0.021-0.032-0.032c-1.114-2.004-3.578-3.314-6.315-3.848c-1.008-0.197-2.05-0.286-3.069-0.273 c-0.006,0-0.013,0-0.019,0C21.433,31.022,19.344,31.78,17.459,33.3z"/><radialGradient id="FoucFpONwWnAEobmqy3pBah" cx="23.354" cy="10.437" r="9.227" gradientTransform="matrix(.9989 -.047 -.0454 -.9643 .47 48.8)" gradientUnits="userSpaceOnUse"><stop offset="0" stop-color="#8e8e8e"/><stop offset=".059" stop-color="#8a8a8a"/><stop offset=".677" stop-color="#636363"/><stop offset="1" stop-color="#545454"/></radialGradient><path fill="url(#FoucFpONwWnAEobmqy3pBah)" d="M17.853,33.046c-1.484,1.06-2.601,2.741-3.334,4.544c-0.62,1.519-1.021,3.152-1.26,4.669 c-0.046,0.29,0.05,0.513,0.205,0.54c0.018,0.003,0.142,0.018,0.16,0.017c0.135-0.012,0.267-0.213,0.318-0.519 c0.179-1.082,0.459-2.331,0.881-3.554c0.162-0.471,0.338-0.93,0.535-1.372c0.568-1.288,1.287-2.412,2.16-3.288 c0.496-0.502,1.041-0.922,1.633-1.251c1.356-0.753,2.813-1.115,4.3-1.176c0.006,0,0.012,0,0.018-0.001 c1.263-0.049,2.556,0.089,3.765,0.392c2.223,0.566,4.145,1.698,5.097,3.212c-0.017,0.032-0.035,0.065-0.055,0.099 c-0.667,0.096-1.586,0.363-1.969,1.42c-0.038,0.104-0.072,0.21-0.104,0.318c-0.114,0.391-0.235,0.797-0.387,1.311 c0.017,0.006,0.039,0.017,0.065,0.033c0.083-0.008,0.168-0.003,0.254,0.015c0.176-0.089,0.356-0.117,0.409-0.111 c0.081-0.276,0.16-0.543,0.233-0.791c0.086-0.293,0.192-0.545,0.305-0.756c0.348-0.653,1.021-0.771,1.595-0.81 c0.027-0.002,0.115-0.006,0.143-0.008c0.043-0.003,0.171-0.009,0.214-0.011c0.026-0.002,0.17-0.008,0.199-0.009 c0.017-0.001,0.12-0.007,0.137-0.007c0.726-0.039,1.561,0.01,1.942,0.88c0.02,0.044,0.039,0.09,0.058,0.138 c0.164,0.414,0.365,0.917,0.571,1.429c0.045-0.059,0.137-0.117,0.245-0.162c0.106-0.135,0.267-0.243,0.316-0.267 c-0.213-0.531-0.362-0.899-0.53-1.323c-0.591-1.493-2.113-1.405-2.764-1.366c-0.014-0.026-0.088-0.048-0.102-0.074 c-0.005-0.009-0.03-0.017-0.035-0.025c-1.05-1.922-3.403-3.279-6.084-3.864c-0.97-0.212-1.98-0.319-2.98-0.324 c-0.006,0-0.012,0-0.018,0C21.826,30.993,19.769,31.677,17.853,33.046z"/><radialGradient id="FoucFpONwWnAEobmqy3pBai" cx="23.367" cy="10.539" r="9.152" gradientTransform="matrix(.9989 -.047 -.0454 -.9643 .47 48.796)" gradientUnits="userSpaceOnUse"><stop offset="0" stop-color="#8b8b8b"/><stop offset=".594" stop-color="#6e6e6e"/><stop offset="1" stop-color="#5f5f5f"/></radialGradient><path fill="url(#FoucFpONwWnAEobmqy3pBai)" d="M18.246,32.792c-1.703,1.083-2.919,2.943-3.689,4.852c-0.62,1.529-0.999,3.113-1.216,4.433 c-0.049,0.295,0.016,0.508,0.132,0.531c0.013,0.002,0.169,0.022,0.182,0.021c0.102-0.012,0.21-0.222,0.267-0.549 c0.174-0.999,0.462-2.268,0.919-3.545c0.165-0.462,0.346-0.919,0.548-1.361c0.572-1.258,1.3-2.387,2.2-3.265 c0.5-0.492,1.052-0.904,1.655-1.223c1.387-0.73,2.851-1.079,4.321-1.135c0.006,0,0.012,0,0.019-0.001 c1.281-0.046,2.569,0.107,3.764,0.425c2.239,0.604,4.132,1.795,5.061,3.296c-0.003,0.04-0.008,0.08-0.015,0.122 c-0.656,0.077-1.61,0.303-2.016,1.35c-0.04,0.103-0.076,0.208-0.108,0.319c-0.113,0.387-0.237,0.806-0.386,1.309 c0.009,0.019,0.021,0.041,0.036,0.067c0.084-0.004,0.167,0.005,0.251,0.026c0.15-0.127,0.302-0.207,0.358-0.258 c0.081-0.275,0.159-0.541,0.23-0.784c0.087-0.297,0.202-0.544,0.33-0.747c0.39-0.621,1.091-0.715,1.64-0.748 c0.02-0.002,0.122-0.006,0.143-0.007c0.032-0.002,0.178-0.01,0.21-0.011c0.034-0.002,0.159-0.008,0.198-0.01 c0.022-0.001,0.109-0.006,0.133-0.007c0.702-0.034,1.547,0.023,1.941,0.894c0.021,0.045,0.041,0.092,0.06,0.141 c0.164,0.414,0.366,0.919,0.572,1.433c0.053-0.052,0.142-0.103,0.243-0.142c0.064-0.141,0.169-0.261,0.19-0.317 c-0.196-0.488-0.342-0.849-0.496-1.239c-0.578-1.46-2.062-1.371-2.715-1.332c-0.01-0.02-0.1-0.034-0.111-0.054 c-0.004-0.007-0.035-0.012-0.038-0.019c-0.986-1.841-3.228-3.243-5.854-3.88c-0.932-0.226-1.911-0.354-2.891-0.376 c-0.006,0-0.012,0-0.018,0C22.218,30.965,20.183,31.56,18.246,32.792z"/><radialGradient id="FoucFpONwWnAEobmqy3pBaj" cx="23.377" cy="10.643" r="9.08" gradientTransform="matrix(.9989 -.047 -.0454 -.9643 .47 48.792)" gradientUnits="userSpaceOnUse"><stop offset="0" stop-color="#878787"/><stop offset=".426" stop-color="#797979"/><stop offset="1" stop-color="#6a6a6a"/></radialGradient><path fill="url(#FoucFpONwWnAEobmqy3pBaj)" d="M18.64,32.538c-1.928,1.093-3.237,3.146-4.044,5.16c-0.619,1.54-0.979,3.074-1.172,4.197 c-0.052,0.301-0.018,0.504,0.059,0.523c0.009,0.001,0.195,0.025,0.204,0.025c0.069-0.013,0.153-0.23,0.216-0.579 c0.167-0.916,0.464-2.205,0.956-3.535c0.168-0.453,0.353-0.907,0.562-1.349c0.575-1.227,1.314-2.361,2.241-3.241 c0.504-0.481,1.063-0.887,1.678-1.194c1.418-0.707,2.889-1.043,4.342-1.095c0.006,0,0.013,0,0.019-0.001 c1.298-0.043,2.582,0.124,3.762,0.457c2.254,0.642,4.119,1.892,5.025,3.38c0.01,0.047,0.018,0.095,0.025,0.144 c-0.645,0.059-1.635,0.243-2.062,1.279c-0.042,0.101-0.079,0.207-0.112,0.32c-0.111,0.383-0.239,0.814-0.385,1.307 c0,0.031,0.003,0.065,0.007,0.102c0.085,0.001,0.166,0.012,0.249,0.037c0.124-0.164,0.248-0.296,0.308-0.406 c0.081-0.275,0.158-0.539,0.228-0.777c0.088-0.301,0.212-0.543,0.355-0.737c0.432-0.589,1.161-0.66,1.684-0.687 c0.014-0.001,0.129-0.006,0.143-0.006c0.021-0.001,0.185-0.01,0.206-0.011c0.043-0.003,0.147-0.008,0.196-0.01 c0.028-0.001,0.099-0.005,0.129-0.006c0.679-0.029,1.533,0.036,1.94,0.908c0.022,0.046,0.042,0.094,0.062,0.144 c0.163,0.413,0.366,0.921,0.574,1.438c0.061-0.046,0.147-0.089,0.241-0.121c0.021-0.147,0.07-0.279,0.064-0.368 c-0.178-0.445-0.321-0.799-0.462-1.156c-0.564-1.426-2.011-1.338-2.665-1.298c-0.007-0.013-0.113-0.02-0.121-0.033 c-0.002-0.004-0.039-0.007-0.041-0.012c-0.922-1.76-3.053-3.206-5.624-3.895c-0.895-0.24-1.841-0.385-2.801-0.428 c-0.006,0-0.011,0-0.017-0.001C22.61,30.936,20.592,31.431,18.64,32.538z"/><radialGradient id="FoucFpONwWnAEobmqy3pBak" cx="23.4" cy="10.751" r="9.027" gradientTransform="matrix(.9989 -.047 -.0454 -.9643 .47 48.788)" gradientUnits="userSpaceOnUse"><stop offset="0" stop-color="#848484"/><stop offset=".006" stop-color="#848484"/><stop offset="1" stop-color="#757575"/></radialGradient><path fill="url(#FoucFpONwWnAEobmqy3pBak)" d="M19.033,32.284c-2.159,1.088-3.555,3.348-4.399,5.468c-0.619,1.55-0.96,3.035-1.128,3.962 c-0.055,0.306-0.052,0.499-0.015,0.515c0.004,0.001,0.221,0.029,0.226,0.029c0.035-0.013,0.094-0.239,0.165-0.609 c0.159-0.834,0.462-2.143,0.994-3.526c0.169-0.445,0.36-0.895,0.575-1.338c0.578-1.197,1.327-2.336,2.281-3.218 c0.508-0.471,1.074-0.869,1.701-1.165c1.449-0.684,2.927-1.006,4.362-1.054c0.006,0,0.013,0,0.019-0.001 c1.316-0.041,2.595,0.142,3.761,0.49c2.269,0.681,4.107,1.989,4.989,3.464c0.023,0.055,0.045,0.11,0.065,0.166 c-0.634,0.041-1.659,0.183-2.109,1.208c-0.044,0.1-0.083,0.206-0.116,0.32c-0.11,0.379-0.241,0.822-0.384,1.305 c-0.008,0.044-0.015,0.09-0.022,0.136c0.086,0.005,0.165,0.02,0.246,0.048c0.097-0.201,0.194-0.386,0.257-0.553 c0.081-0.275,0.158-0.537,0.226-0.77c0.089-0.305,0.222-0.543,0.38-0.728c0.474-0.557,1.231-0.605,1.729-0.626 c0.007-0.001,0.136-0.005,0.143-0.006c0.011-0.001,0.192-0.011,0.202-0.011c0.051-0.003,0.136-0.008,0.194-0.01 c0.033-0.002,0.089-0.004,0.125-0.005c0.655-0.024,1.52,0.049,1.939,0.923c0.023,0.047,0.044,0.096,0.064,0.147 c0.163,0.413,0.367,0.922,0.575,1.442c0.069-0.039,0.152-0.075,0.239-0.101c-0.021-0.152-0.028-0.297-0.062-0.418 c-0.161-0.402-0.3-0.749-0.428-1.072c-0.551-1.393-1.959-1.304-2.615-1.264c-0.003-0.007-0.126-0.006-0.13-0.012 c-0.001-0.002-0.043-0.003-0.044-0.005c-0.857-1.678-2.88-3.164-5.394-3.911c-0.858-0.252-1.771-0.419-2.712-0.479 c-0.005,0-0.011-0.001-0.016-0.001C23.003,30.907,20.999,31.293,19.033,32.284z"/><path fill="gray" d="M35.783,36.713c-0.538-1.359-1.908-1.27-2.566-1.23l-0.139,0.009l-0.048,0.002 c-0.793-1.597-2.705-3.128-5.163-3.927c-2.458-0.799-5.462-0.866-8.44,0.464c-2.394,1.068-3.873,3.551-4.755,5.776 C13.79,40.032,13.506,42,13.5,42.039l0.248,0.033c0.005-0.038,0.285-1.972,1.145-4.155c0.861-2.184,2.303-4.618,4.634-5.658 c2.88-1.286,5.78-1.241,8.162-0.491c2.383,0.75,4.248,2.204,5.058,3.737c-0.683,0.025-1.893,0.143-2.275,1.459 c-0.122,0.42-0.275,0.941-0.433,1.474c0.087,0.009,0.164,0.028,0.243,0.059c0.157-0.53,0.309-1.047,0.43-1.464 c0.357-1.228,1.546-1.263,2.179-1.284l0.143-0.005l0.198-0.011c0.644-0.039,1.847-0.118,2.318,1.072 c0.163,0.412,0.367,0.924,0.577,1.446c0.076-0.033,0.157-0.061,0.237-0.08C36.153,37.643,35.947,37.127,35.783,36.713z"/></g><linearGradient id="FoucFpONwWnAEobmqy3pBal" x1="10.803" x2="15.024" y1="6.316" y2="4.618" gradientTransform="matrix(1 0 0 -1 0 48)" gradientUnits="userSpaceOnUse"><stop offset="0" stop-color="#ccc"/><stop offset=".947" stop-color="#9b9b9b"/><stop offset=".992" stop-color="#999"/></linearGradient><circle cx="13.513" cy="42.774" r="2.274" fill="url(#FoucFpONwWnAEobmqy3pBal)"/><circle cx="13.699" cy="42.945" r="1.616" fill="#4d4d4d" opacity=".18"/><linearGradient id="FoucFpONwWnAEobmqy3pBam" x1="11.303" x2="14.303" y1="6.114" y2="4.908" gradientTransform="matrix(1 0 0 -1 0 48)" gradientUnits="userSpaceOnUse"><stop offset="0" stop-color="#fff"/><stop offset=".649" stop-color="#cecece"/><stop offset=".992" stop-color="#b3b3b3"/></linearGradient><circle cx="13.513" cy="42.774" r="1.616" fill="url(#FoucFpONwWnAEobmqy3pBam)"/><radialGradient id="FoucFpONwWnAEobmqy3pBan" cx="-290.647" cy="1.987" r="1.867" gradientTransform="matrix(-.8764 .1748 -.3931 -2.1652 -241.862 77.406)" gradientUnits="userSpaceOnUse"><stop offset="0" stop-color="#ffe16e"/><stop offset=".461" stop-color="#ffd226"/><stop offset=".741" stop-color="#f8c21d"/><stop offset=".999" stop-color="#f0af13"/></radialGradient><path fill="url(#FoucFpONwWnAEobmqy3pBan)" d="M12.66,19.601c-0.759-0.243-2.592-0.088-2.656,2.142c-0.06,2.109,0.464,3.07,1.159,3.976	c0.78,1.016,2.183,1.008,2.067,0.201C13.115,25.113,12.66,19.601,12.66,19.601z"/><radialGradient id="FoucFpONwWnAEobmqy3pBao" cx="-174.119" cy="1.987" r="1.867" gradientTransform="matrix(.829 .1748 .3719 -2.1652 179.637 57.041)" gradientUnits="userSpaceOnUse"><stop offset="0" stop-color="#ffe16e"/><stop offset=".461" stop-color="#ffd226"/><stop offset=".741" stop-color="#f8c21d"/><stop offset=".999" stop-color="#f0af13"/></radialGradient><path fill="url(#FoucFpONwWnAEobmqy3pBao)" d="M35.484,19.601c0.718-0.243,2.452-0.088,2.512,2.142c0.057,2.109-0.439,3.07-1.097,3.976	c-0.738,1.016-2.065,1.008-1.955,0.201C35.053,25.113,35.484,19.601,35.484,19.601z"/><radialGradient id="FoucFpONwWnAEobmqy3pBap" cx="14.863" cy="49.693" r="14.627" fx="14.786" fy="43.427" gradientTransform="matrix(.8889 0 0 -1.0694 10.803 73.286)" gradientUnits="userSpaceOnUse"><stop offset="0" stop-color="#ffe16e"/><stop offset=".629" stop-color="#ffd226"/><stop offset=".75" stop-color="#fdcd23"/><stop offset=".899" stop-color="#f6bd1b"/><stop offset=".999" stop-color="#f0af13"/></radialGradient><path fill="url(#FoucFpONwWnAEobmqy3pBap)" d="M36.838,19.716c0,2.89-0.193,6.659-1.343,8.971C33.256,33.191,27.296,36,24.015,36	c-3.41,0-9.305-2.809-11.544-7.313c-1.149-2.312-1.279-6.081-1.279-8.971c0-0.635,0.017-1.234,0.051-1.803	c0.196-3.271,0.943-5.526,2.101-7.612c2.299-4.141,6.22-6.012,10.671-6.012c4.426,0,8.329,1.841,10.633,5.945	C36.031,12.695,36.838,15.43,36.838,19.716z"/><radialGradient id="FoucFpONwWnAEobmqy3pBaq" cx="23.221" cy="37.459" r="11.216" gradientTransform="matrix(.9947 0 0 -1 1.178 48)" gradientUnits="userSpaceOnUse"><stop offset="0" stop-color="#aa8765"/><stop offset=".059" stop-color="#a17c58"/><stop offset=".165" stop-color="#956d47"/><stop offset=".28" stop-color="#8e653c"/><stop offset=".418" stop-color="#8c6239"/><stop offset=".583" stop-color="#875d34"/><stop offset=".789" stop-color="#774e27"/><stop offset=".999" stop-color="#603813"/></radialGradient><path fill="url(#FoucFpONwWnAEobmqy3pBaq)" d="M11.774,20.328c0,0,0.321-3.984,0.12-5.147c0.905-0.657,3.722-2.63,3.32-5.714	c1.157,0.961,7.092,5.006,16.598,1.82c2.113,2.579,2.515,2.68,4.124,3.641c0.402,1.112,0.553,4.76,0.503,5.367	s0.704,1.062,1.056-0.202C37.606,19.695,38,16.346,38,14c0-5-1.547-12.643-13.884-12.747C12.14,1.152,10.062,8.979,10.062,13.979	c0,3,0.725,6.215,0.725,6.215C10.925,20.951,11.611,20.984,11.774,20.328z"/><radialGradient id="FoucFpONwWnAEobmqy3pBar" cx="-15.953" cy="19.322" r="1.709" gradientTransform="matrix(1.37 0 0 -1.3195 45.883 51.12)" gradientUnits="userSpaceOnUse"><stop offset=".245" stop-color="#cc9000"/><stop offset=".415" stop-color="#d09504" stop-opacity=".822"/><stop offset=".627" stop-color="#dca50f" stop-opacity=".599"/><stop offset=".851" stop-color="#eebd20" stop-opacity=".363"/><stop offset="1" stop-color="#fed12e" stop-opacity="0"/></radialGradient><path fill="url(#FoucFpONwWnAEobmqy3pBar)" d="M24.01,26.305c-0.788,0-1.429-0.2-1.825-0.417c-0.291-0.16-0.586-0.086-0.393,0.415	c0.261,0.679,0.858,1.48,2.218,1.48c1.337,0,1.936-0.773,2.204-1.445c0.206-0.516-0.091-0.568-0.344-0.449	C25.382,26.117,24.778,26.305,24.01,26.305z"/><g><radialGradient id="FoucFpONwWnAEobmqy3pBas" cx="23.087" cy="35.216" r="11.687" gradientTransform="matrix(.9537 -.2806 -.2791 -.9608 11.935 53.099)" gradientUnits="userSpaceOnUse"><stop offset="0" stop-color="#aa8765"/><stop offset=".145" stop-color="#a17c57"/><stop offset=".441" stop-color="#926941"/><stop offset=".629" stop-color="#8c6239"/><stop offset=".711" stop-color="#875d34"/><stop offset=".814" stop-color="#774e27"/><stop offset=".919" stop-color="#603813"/></radialGradient><path fill="url(#FoucFpONwWnAEobmqy3pBas)" d="M37.036,13.333c-0.03-0.099-0.101-0.179-0.19-0.231c-1.459-0.859-2.662-2.693-4.568-4.989 c-0.106-0.128-0.284-0.181-0.442-0.131c-8.114,2.613-14.926,0.077-17.213-1.39C14.334,6.406,14.001,6.637,14,6.983 c-0.012,4.21-1.761,6.11-3.068,6.792c-0.155,0.081-0.228,0.237-0.235,0.412c-0.058,1.359-0.205,4.163,0.022,5.526 c0.04,0.299,0.067,0.479,0.067,0.479c0.138,0.757,0.822,0.79,0.985,0.134c0,0,0.286-3.548,0.149-4.925 c-0.014-0.142,0.051-0.28,0.165-0.364c0.95-0.695,3.026-2.316,3.154-4.741c0.017-0.324,0.362-0.521,0.63-0.341 c2.024,1.362,7.501,4.056,15.652,1.417c0.158-0.051,0.338,0.002,0.444,0.131c1.894,2.294,2.352,2.48,3.798,3.338 c0.088,0.052,0.161,0.133,0.19,0.232c0.366,1.255,0.503,4.638,0.455,5.22c-0.05,0.607,0.703,1.062,1.055-0.202 c0.014-0.051,0.035-0.153,0.06-0.295C37.696,18.917,37.413,14.59,37.036,13.333z"/><radialGradient id="FoucFpONwWnAEobmqy3pBat" cx="23.262" cy="35.063" r="11.572" gradientTransform="matrix(.9545 -.2806 -.2794 -.9608 11.742 53.154)" gradientUnits="userSpaceOnUse"><stop offset="0" stop-color="#9f7c59"/><stop offset=".081" stop-color="#9b7652"/><stop offset=".416" stop-color="#8c633c"/><stop offset=".629" stop-color="#865c34"/><stop offset=".719" stop-color="#81572f"/><stop offset=".831" stop-color="#714822"/><stop offset=".919" stop-color="#603813"/></radialGradient><path fill="url(#FoucFpONwWnAEobmqy3pBat)" d="M14.071,7.255c0.021,3.627-1.444,5.555-2.683,6.386c-0.151,0.101-0.29,0.203-0.411,0.289 c-0.129,0.092-0.192,0.244-0.196,0.418c-0.028,1.131-0.12,3.172-0.059,4.418c0.002,0.364-0.011,0.671-0.01,0.902 c0.003,0.02,0.006,0.041,0.009,0.06c0.039,0.291,0.065,0.467,0.065,0.467c0.138,0.757,0.822,0.79,0.985,0.134 c0,0,0.286-3.548,0.149-4.925c-0.014-0.142,0.051-0.28,0.165-0.364c0.95-0.695,3.026-2.316,3.154-4.741 c0.017-0.324,0.362-0.521,0.63-0.341c2.024,1.362,7.501,4.056,15.652,1.417c0.158-0.051,0.338,0.002,0.444,0.131 c1.894,2.294,2.352,2.48,3.798,3.338c0.088,0.052,0.161,0.133,0.19,0.232c0.366,1.255,0.503,4.638,0.455,5.22 c-0.05,0.607,0.703,1.062,1.055-0.202c0.014-0.051,0.035-0.153,0.06-0.295c-0.006-0.118-0.024-0.494-0.023-0.961 c0.003-1.478-0.243-4.386-0.547-5.401c-0.029-0.096-0.097-0.173-0.182-0.225c-0.018-0.011-0.036-0.022-0.055-0.033 c-1.438-0.87-2.555-2.454-4.441-4.725c-0.106-0.128-0.284-0.181-0.442-0.131c-8.114,2.613-14.855,0.01-17.142-1.457 C14.404,6.678,14.068,6.909,14.071,7.255z"/><radialGradient id="FoucFpONwWnAEobmqy3pBau" cx="23.417" cy="34.91" r="11.503" gradientTransform="matrix(.9554 -.2806 -.2796 -.9608 11.543 53.204)" gradientUnits="userSpaceOnUse"><stop offset="0" stop-color="#95704e"/><stop offset=".021" stop-color="#946f4c"/><stop offset=".392" stop-color="#855d36"/><stop offset=".629" stop-color="#7f562e"/><stop offset=".731" stop-color="#7a5129"/><stop offset=".857" stop-color="#6a421c"/><stop offset=".919" stop-color="#603813"/></radialGradient><path fill="url(#FoucFpONwWnAEobmqy3pBau)" d="M14.141,7.525c0.052,3.504-1.489,5.441-2.739,6.248c-0.152,0.098-0.281,0.21-0.382,0.309 c-0.102,0.101-0.155,0.252-0.157,0.424c-0.01,1.19-0.092,3.299-0.042,4.337c-0.013,0.364-0.069,0.647-0.109,0.831 c0.003,0.022,0.007,0.044,0.01,0.065c0.038,0.283,0.063,0.454,0.063,0.454c0.138,0.757,0.822,0.79,0.985,0.134 c0,0,0.286-3.548,0.149-4.925c-0.014-0.142,0.051-0.28,0.165-0.364c0.95-0.695,3.026-2.316,3.154-4.741 c0.017-0.324,0.362-0.521,0.63-0.341c2.024,1.362,7.501,4.056,15.652,1.417c0.158-0.051,0.338,0.002,0.444,0.131 c1.894,2.294,2.352,2.48,3.798,3.338c0.088,0.052,0.161,0.133,0.19,0.232c0.366,1.255,0.503,4.638,0.455,5.22 c-0.05,0.607,0.703,1.062,1.055-0.202c0.014-0.051,0.035-0.153,0.06-0.295c-0.049-0.038-0.102-0.42-0.097-0.886 c0.015-1.329-0.237-4.319-0.553-5.375c-0.028-0.093-0.093-0.168-0.174-0.22c-0.018-0.012-0.036-0.023-0.055-0.034 c-1.442-0.868-2.479-2.219-4.369-4.494c-0.106-0.128-0.284-0.181-0.442-0.131C23.718,11.27,17.047,8.601,14.76,7.134 C14.475,6.949,14.135,7.18,14.141,7.525z"/><radialGradient id="FoucFpONwWnAEobmqy3pBav" cx="23.566" cy="34.757" r="11.438" gradientTransform="matrix(.9563 -.2806 -.2799 -.9608 11.349 53.252)" gradientUnits="userSpaceOnUse"><stop offset="0" stop-color="#8a6542"/><stop offset=".346" stop-color="#7f5731"/><stop offset=".629" stop-color="#795029"/><stop offset=".745" stop-color="#744b24"/><stop offset=".888" stop-color="#643c17"/><stop offset=".919" stop-color="#603813"/></radialGradient><path fill="url(#FoucFpONwWnAEobmqy3pBav)" d="M14.212,7.796c0.092,3.381-1.533,5.328-2.794,6.109c-0.152,0.095-0.273,0.217-0.353,0.33 c-0.076,0.109-0.119,0.259-0.118,0.43c0.01,1.249-0.065,3.426-0.024,4.257c-0.028,0.363-0.127,0.622-0.208,0.76 c0.003,0.024,0.007,0.047,0.01,0.07c0.037,0.276,0.062,0.441,0.062,0.441c0.138,0.757,0.822,0.79,0.985,0.134 c0,0,0.286-3.548,0.149-4.925c-0.014-0.142,0.051-0.28,0.165-0.364c0.95-0.695,3.026-2.316,3.154-4.741 c0.017-0.324,0.362-0.521,0.63-0.341c2.024,1.362,7.501,4.056,15.652,1.417c0.158-0.051,0.338,0.002,0.444,0.131 c1.894,2.294,2.352,2.48,3.798,3.338c0.088,0.052,0.161,0.133,0.19,0.232c0.366,1.255,0.503,4.638,0.455,5.22 c-0.05,0.607,0.703,1.062,1.055-0.202c0.014-0.051,0.035-0.153,0.06-0.295c-0.093,0.041-0.181-0.347-0.171-0.811 c0.025-1.179-0.232-4.252-0.56-5.348c-0.027-0.09-0.089-0.163-0.166-0.215c-0.018-0.012-0.036-0.024-0.055-0.035 c-1.445-0.866-2.403-1.984-4.296-4.263c-0.106-0.128-0.284-0.181-0.442-0.131c-8.114,2.613-14.714-0.123-17.001-1.59 C14.545,7.22,14.202,7.451,14.212,7.796z"/><radialGradient id="FoucFpONwWnAEobmqy3pBaw" cx="23.715" cy="34.604" r="11.374" gradientTransform="matrix(.9572 -.2806 -.2802 -.9608 11.155 53.3)" gradientUnits="userSpaceOnUse"><stop offset="0" stop-color="#805a36"/><stop offset=".285" stop-color="#79512b"/><stop offset=".629" stop-color="#734a23"/><stop offset=".765" stop-color="#6e451e"/><stop offset=".919" stop-color="#603813"/></radialGradient><path fill="url(#FoucFpONwWnAEobmqy3pBaw)" d="M14.282,8.067c0.123,3.257-1.577,5.214-2.85,5.971c-0.153,0.091-0.266,0.222-0.323,0.351 c-0.051,0.115-0.082,0.267-0.079,0.436c0.03,1.308-0.038,3.554-0.007,4.177c-0.044,0.363-0.185,0.598-0.307,0.689 c0.004,0.026,0.007,0.051,0.011,0.075c0.036,0.268,0.06,0.429,0.06,0.429c0.138,0.757,0.822,0.79,0.985,0.134 c0,0,0.286-3.548,0.149-4.925c-0.014-0.142,0.051-0.28,0.165-0.364c0.95-0.695,3.026-2.316,3.154-4.741 c0.017-0.324,0.362-0.521,0.63-0.341c2.024,1.362,7.501,4.056,15.652,1.417c0.158-0.051,0.338,0.002,0.444,0.131 c1.894,2.294,2.352,2.48,3.798,3.338c0.088,0.052,0.161,0.133,0.19,0.232c0.366,1.255,0.503,4.638,0.455,5.22 c-0.05,0.607,0.703,1.062,1.055-0.202c0.014-0.051,0.035-0.153,0.06-0.295c-0.137,0.121-0.26-0.274-0.244-0.736 c0.034-1.03-0.227-4.185-0.567-5.321c-0.026-0.086-0.085-0.158-0.159-0.209c-0.018-0.012-0.036-0.024-0.055-0.035 c-1.449-0.864-2.327-1.749-4.223-4.032c-0.106-0.128-0.284-0.181-0.442-0.131C23.72,11.948,17.19,9.146,14.903,7.678 C14.616,7.491,14.269,7.722,14.282,8.067z"/><radialGradient id="FoucFpONwWnAEobmqy3pBax" cx="23.863" cy="34.451" r="11.311" gradientTransform="matrix(.9581 -.2806 -.2804 -.9608 10.956 53.347)" gradientUnits="userSpaceOnUse"><stop offset="0" stop-color="#754f2a"/><stop offset=".151" stop-color="#724b26"/><stop offset=".629" stop-color="#6d441e"/><stop offset=".8" stop-color="#683f19"/><stop offset=".919" stop-color="#603813"/></radialGradient><path fill="url(#FoucFpONwWnAEobmqy3pBax)" d="M14.352,8.338c0.154,3.134-1.622,5.101-2.906,5.833c-0.154,0.088-0.26,0.227-0.294,0.371 c-0.028,0.122-0.046,0.274-0.039,0.442c0.052,1.367-0.01,3.681,0.01,4.097c-0.059,0.363-0.242,0.573-0.406,0.619 c0.004,0.027,0.008,0.054,0.011,0.079c0.035,0.26,0.058,0.416,0.058,0.416c0.138,0.757,0.822,0.79,0.985,0.134 c0,0,0.286-3.548,0.149-4.925c-0.014-0.142,0.051-0.28,0.165-0.364c0.95-0.695,3.026-2.316,3.154-4.741 c0.017-0.324,0.362-0.521,0.63-0.341c2.024,1.362,7.501,4.056,15.652,1.417c0.158-0.051,0.338,0.002,0.444,0.131 c1.894,2.294,2.352,2.48,3.798,3.338c0.088,0.052,0.161,0.133,0.19,0.232c0.366,1.255,0.503,4.638,0.455,5.22 c-0.05,0.607,0.703,1.062,1.055-0.202c0.014-0.051,0.035-0.153,0.06-0.295c-0.181,0.2-0.339-0.201-0.318-0.661 c0.04-0.881-0.222-4.118-0.574-5.294c-0.025-0.083-0.081-0.153-0.151-0.204c-0.018-0.013-0.036-0.025-0.055-0.036 c-1.452-0.862-2.251-1.514-4.151-3.801c-0.106-0.128-0.284-0.181-0.442-0.131c-8.114,2.613-14.574-0.256-16.861-1.723 C14.686,7.761,14.336,7.993,14.352,8.338z"/><radialGradient id="FoucFpONwWnAEobmqy3pBay" cx="24.011" cy="34.298" r="11.248" gradientTransform="matrix(.9589 -.2806 -.2807 -.9608 10.761 53.394)" gradientUnits="userSpaceOnUse"><stop offset="0" stop-color="#6b431f"/><stop offset=".629" stop-color="#663e18"/><stop offset=".9" stop-color="#613914"/><stop offset=".919" stop-color="#603813"/></radialGradient><path fill="url(#FoucFpONwWnAEobmqy3pBay)" d="M14.423,8.609c0.179,3.011-1.666,4.987-2.962,5.694c-0.154,0.084-0.257,0.232-0.265,0.392 c-0.006,0.128-0.009,0.281,0,0.447c0.075,1.426,0.017,3.809,0.027,4.017c-0.075,0.363-0.3,0.549-0.505,0.548 c0.004,0.029,0.008,0.057,0.012,0.084c0.034,0.253,0.056,0.403,0.056,0.403c0.138,0.757,0.822,0.79,0.985,0.134 c0,0,0.286-3.548,0.149-4.925c-0.014-0.142,0.051-0.28,0.165-0.364c0.95-0.695,3.026-2.316,3.154-4.741 c0.017-0.324,0.362-0.521,0.63-0.341c2.024,1.362,7.501,4.056,15.652,1.417c0.158-0.051,0.338,0.002,0.444,0.131 c1.894,2.294,2.352,2.48,3.798,3.338c0.088,0.052,0.161,0.133,0.19,0.232c0.366,1.255,0.503,4.638,0.455,5.22 c-0.05,0.607,0.703,1.062,1.055-0.202c0.014-0.051,0.035-0.153,0.06-0.295c-0.225,0.28-0.42-0.128-0.392-0.586 c0.045-0.731-0.216-4.051-0.581-5.268c-0.024-0.08-0.077-0.148-0.143-0.198c-0.017-0.013-0.036-0.026-0.055-0.037 c-1.456-0.861-2.175-1.279-4.078-3.57c-0.106-0.128-0.284-0.181-0.442-0.131c-8.114,2.613-14.503-0.322-16.79-1.79 C14.756,8.032,14.401,8.264,14.423,8.609z"/><g><path fill="#603813" d="M37.061,19.286c0.048-0.582-0.211-3.984-0.587-5.241c-0.03-0.099-0.101-0.179-0.19-0.231 c-1.459-0.859-2.099-1.044-4.005-3.34c-0.106-0.128-0.284-0.181-0.442-0.131c-8.114,2.613-14.433-0.389-16.72-1.856 c-0.289-0.186-0.648,0.046-0.623,0.391c0.211,2.888-1.71,4.874-3.017,5.556c-0.155,0.081-0.255,0.238-0.235,0.412 c0.151,1.364,0.083,4.389,0.083,4.389c-0.09,0.362-0.358,0.525-0.604,0.477c0.04,0.299,0.067,0.479,0.067,0.479 c0.138,0.757,0.822,0.79,0.985,0.134c0,0,0.286-3.548,0.149-4.925c-0.014-0.142,0.051-0.28,0.165-0.364 c0.95-0.695,3.026-2.316,3.154-4.741c0.017-0.324,0.362-0.521,0.63-0.341c2.024,1.362,7.501,4.056,15.652,1.417 c0.158-0.051,0.338,0.002,0.444,0.131c1.894,2.294,2.352,2.48,3.798,3.338c0.088,0.052,0.161,0.133,0.19,0.232 c0.366,1.255,0.503,4.638,0.455,5.22c-0.05,0.607,0.703,1.062,1.055-0.202c0.014-0.051,0.035-0.153,0.06-0.295 C37.258,20.157,37.023,19.743,37.061,19.286z"/></g></g><g><path fill="#f7c126" d="M35.476,14.77c-1.437-0.855-1.739-0.982-3.607-3.249c-0.12-0.145-0.288-0.094-0.466-0.036 c-8,2.584-13.177,0.134-15.193-1.18c-0.289-0.188-0.686-0.004-0.71,0.342c-0.158,2.297-2.163,3.586-3.122,4.24 c-0.144,0.098-0.212,0.265-0.196,0.439c0.11,1.216-0.226,4.763-0.345,4.823c0.213-0.051,1.03-3.226,1.171-4.358 c0.017-0.139,0.082-0.261,0.198-0.337c0.886-0.583,2.399-1.465,2.965-3.016c0.094-0.258,0.391-0.373,0.633-0.245 c1.827,0.963,6.988,3.008,14.117,0.864c0.175-0.053,0.368,0.007,0.486,0.147c1.502,1.773,2.383,1.94,3.553,2.462 c0.103,0.046,0.193,0.13,0.24,0.232c0.61,1.315,0.305,4.539,1.245,4.854c-0.409-0.65-0.185-4.419-0.771-5.761 C35.635,14.897,35.56,14.82,35.476,14.77z"/><path fill="#da2" d="M15.463,10.59c-0.15,2.313-2.158,3.649-3.119,4.312c-0.023,0.016-0.044,0.033-0.063,0.051 c-0.102,0.097-0.15,0.237-0.136,0.383c0.094,1.003-0.113,3.625-0.236,4.473c-0.039,0.249-0.084,0.403-0.123,0.423 c0.082-0.02,0.203-0.258,0.324-0.616c0.302-0.953,0.707-3.006,0.804-3.867c0.016-0.135,0.078-0.254,0.191-0.329 c0.877-0.586,2.393-1.514,2.964-3.12c0.092-0.258,0.352-0.384,0.569-0.324c0.063,0.017,0.147,0.037,0.232,0.081 c1.939,0.997,7.085,2.983,14.114,0.828c0.14-0.043,0.294-0.011,0.407,0.077c0.03,0.023,0.058,0.05,0.083,0.079 c1.497,1.773,2.291,1.968,3.439,2.496c0.046,0.021,0.092,0.044,0.137,0.069c0.032,0.017,0.062,0.039,0.089,0.063 c0.057,0.051,0.105,0.114,0.135,0.187c0.41,0.97,0.388,2.957,0.634,4.02c0.109,0.47,0.308,0.848,0.6,0.893 c-0.112-0.112-0.192-0.388-0.227-0.747c-0.124-1.246-0.116-3.951-0.565-5.022c-0.038-0.091-0.112-0.168-0.197-0.218 c-1.439-0.856-1.763-0.991-3.635-3.263c-0.117-0.142-0.286-0.106-0.461-0.049c-8.028,2.595-13.25,0.103-15.264-1.216 C15.873,10.066,15.485,10.249,15.463,10.59z"/><path fill="#c3931e" d="M15.426,10.534c-0.142,2.328-2.152,3.712-3.116,4.385c-0.022,0.016-0.043,0.032-0.063,0.05 c-0.104,0.095-0.153,0.234-0.139,0.379c0.1,1.04-0.12,3.842-0.222,4.548c-0.042,0.243-0.098,0.395-0.152,0.422 c0.106-0.025,0.246-0.258,0.366-0.605c0.279-0.911,0.624-3.107,0.717-4.005c0.014-0.131,0.075-0.248,0.184-0.321 c0.867-0.588,2.387-1.562,2.964-3.224c0.09-0.257,0.326-0.353,0.505-0.403c0.055-0.015,0.147-0.002,0.236,0.045 c1.876,0.992,7.132,3.157,14.339,0.908c0.143-0.044,0.299-0.009,0.412,0.086c0.029,0.024,0.056,0.051,0.081,0.081 c1.551,1.845,2.27,2.015,3.465,2.592c0.047,0.023,0.092,0.048,0.136,0.076c0.031,0.02,0.059,0.044,0.084,0.071 c0.051,0.054,0.095,0.121,0.124,0.196c0.39,1.014,0.37,3.117,0.586,4.105c0.101,0.463,0.33,0.87,0.636,0.867 c-0.138-0.088-0.239-0.365-0.267-0.72c-0.088-1.136-0.111-3.974-0.546-5.056c-0.037-0.092-0.11-0.169-0.195-0.219 c-1.441-0.856-1.787-1-3.664-3.277c-0.115-0.139-0.284-0.117-0.455-0.062c-8.055,2.605-13.323,0.073-15.335-1.253 C15.826,10.016,15.447,10.198,15.426,10.534z"/><path fill="#a97c1a" d="M15.39,10.478c-0.134,2.344-2.147,3.775-3.114,4.457c-0.022,0.016-0.043,0.032-0.063,0.049 c-0.106,0.093-0.156,0.231-0.142,0.375c0.107,1.076-0.126,4.058-0.208,4.623c-0.044,0.238-0.111,0.386-0.18,0.421 c0.13-0.031,0.289-0.259,0.409-0.593c0.255-0.868,0.543-3.207,0.631-4.142c0.012-0.128,0.072-0.241,0.177-0.313 c0.858-0.59,2.38-1.611,2.963-3.327c0.088-0.256,0.293-0.412,0.441-0.482c0.053-0.025,0.148-0.041,0.24,0.01 c1.814,0.986,7.18,3.331,14.564,0.989c0.145-0.046,0.306-0.007,0.416,0.094c0.028,0.026,0.055,0.053,0.08,0.083 c1.606,1.916,2.249,2.059,3.49,2.687c0.047,0.024,0.093,0.052,0.134,0.084c0.029,0.023,0.056,0.049,0.078,0.078 c0.045,0.058,0.085,0.128,0.113,0.206c0.37,1.059,0.351,3.276,0.539,4.189c0.093,0.455,0.353,0.893,0.672,0.841 c-0.163-0.064-0.288-0.342-0.307-0.694c-0.055-1.025-0.107-3.996-0.528-5.09c-0.036-0.093-0.109-0.17-0.194-0.22 c-1.443-0.857-1.811-1.009-3.693-3.291c-0.112-0.136-0.283-0.129-0.45-0.075c-8.083,2.615-13.396,0.043-15.406-1.289 C15.778,9.966,15.409,10.147,15.39,10.478z"/><path fill="#906617" d="M15.353,10.421c-0.126,2.359-2.141,3.838-3.111,4.53c-0.022,0.016-0.043,0.032-0.063,0.048 c-0.108,0.09-0.16,0.227-0.145,0.371c0.113,1.113-0.132,4.274-0.194,4.698c-0.046,0.232-0.125,0.377-0.209,0.419 c0.154-0.037,0.332-0.259,0.452-0.581c0.232-0.826,0.462-3.308,0.544-4.279c0.011-0.124,0.068-0.234,0.17-0.305 c0.849-0.593,2.374-1.66,2.962-3.431c0.085-0.255,0.262-0.441,0.377-0.56c0.048-0.05,0.148-0.08,0.245-0.026 c1.753,0.978,7.228,3.506,14.789,1.07c0.147-0.047,0.312-0.005,0.421,0.102c0.027,0.027,0.054,0.055,0.078,0.085 c1.66,1.987,2.228,2.103,3.515,2.783c0.048,0.025,0.093,0.056,0.132,0.092c0.028,0.025,0.053,0.055,0.073,0.086 c0.04,0.062,0.076,0.135,0.102,0.216c0.35,1.103,0.331,3.435,0.491,4.274c0.085,0.448,0.375,0.915,0.708,0.815 c-0.189-0.039-0.337-0.318-0.346-0.668c-0.024-0.914-0.102-4.019-0.509-5.124c-0.034-0.093-0.107-0.171-0.192-0.221 c-1.445-0.858-1.835-1.018-3.722-3.305c-0.11-0.133-0.281-0.141-0.445-0.088c-8.11,2.623-13.468,0.011-15.476-1.327 C15.73,9.916,15.371,10.096,15.353,10.421z"/><path fill="#764f13" d="M15.316,10.365c-0.118,2.375-2.136,3.902-3.109,4.603c-0.022,0.016-0.043,0.032-0.063,0.048 c-0.11,0.088-0.163,0.224-0.148,0.367c0.12,1.149-0.138,4.49-0.179,4.773c-0.049,0.227-0.139,0.368-0.237,0.418 c0.178-0.043,0.375-0.26,0.494-0.57c0.209-0.784,0.382-3.409,0.458-4.416c0.009-0.121,0.065-0.228,0.164-0.297 c0.84-0.595,2.368-1.708,2.961-3.535c0.083-0.254,0.225-0.47,0.313-0.639c0.04-0.076,0.148-0.119,0.249-0.062 c1.693,0.969,7.276,3.68,15.014,1.151c0.15-0.049,0.318-0.003,0.425,0.11c0.027,0.028,0.052,0.057,0.077,0.086 c1.714,2.058,2.208,2.145,3.541,2.878c0.048,0.026,0.093,0.06,0.131,0.099c0.027,0.028,0.05,0.06,0.068,0.094 c0.035,0.066,0.066,0.141,0.09,0.225c0.33,1.147,0.31,3.595,0.443,4.359c0.077,0.441,0.398,0.937,0.745,0.789 c-0.215-0.015-0.387-0.294-0.386-0.641c0.003-0.803-0.098-4.041-0.491-5.157c-0.033-0.094-0.105-0.172-0.19-0.222 c-1.447-0.859-1.859-1.027-3.751-3.32c-0.107-0.13-0.279-0.152-0.44-0.101c-8.139,2.635-13.542-0.017-15.548-1.361 C15.683,9.865,15.333,10.045,15.316,10.365z"/><path fill="#5c380f" d="M15.28,10.309c-0.11,2.391-2.13,3.965-3.106,4.675c-0.022,0.016-0.042,0.031-0.063,0.047 c-0.112,0.086-0.166,0.221-0.151,0.363c0.126,1.185-0.145,4.706-0.165,4.848c-0.051,0.222-0.152,0.359-0.266,0.416 c0.202-0.049,0.418-0.26,0.537-0.558c0.185-0.742,0.305-3.509,0.372-4.553c0.008-0.117,0.062-0.221,0.157-0.289 c0.831-0.598,2.362-1.757,2.96-3.639c0.081-0.254,0.184-0.496,0.249-0.718c0.03-0.101,0.149-0.159,0.253-0.097 c1.634,0.959,7.324,3.854,15.238,1.231c0.152-0.05,0.324-0.002,0.43,0.118c0.026,0.029,0.051,0.059,0.076,0.088 c1.769,2.129,2.19,2.186,3.566,2.974c0.049,0.028,0.093,0.064,0.129,0.107c0.026,0.031,0.047,0.065,0.063,0.102 c0.03,0.069,0.057,0.148,0.079,0.235c0.31,1.191,0.288,3.755,0.395,4.443c0.067,0.433,0.42,0.96,0.781,0.763 c-0.24,0.009-0.439-0.271-0.426-0.615c0.027-0.692-0.093-4.064-0.473-5.191c-0.032-0.095-0.103-0.173-0.188-0.223 c-1.449-0.86-1.883-1.036-3.78-3.334c-0.105-0.127-0.278-0.164-0.434-0.114c-8.167,2.645-13.615-0.048-15.619-1.397 C15.635,9.815,15.294,9.994,15.28,10.309z"/><path fill="#42210b" d="M36.411,20.295c0.048-0.582-0.088-4.086-0.454-5.225c-0.031-0.095-0.101-0.174-0.187-0.224 c-1.451-0.861-1.907-1.045-3.808-3.348c-0.103-0.124-0.276-0.176-0.429-0.126c-8.195,2.655-13.688-0.078-15.69-1.433 c-0.256-0.173-0.587,0.005-0.6,0.315c-0.104,2.459-2.214,4.098-3.166,4.794c-0.114,0.083-0.17,0.218-0.154,0.359 c0.132,1.222-0.151,4.922-0.151,4.922c-0.054,0.216-0.166,0.35-0.294,0.415c0.227-0.054,0.461-0.261,0.58-0.546 c0.162-0.699,0.225-3.61,0.285-4.69c0.006-0.114,0.058-0.214,0.15-0.281c0.929-0.678,2.769-2.131,3.145-4.539 c0.02-0.125,0.149-0.198,0.258-0.133c1.575,0.947,7.371,4.029,15.463,1.312c0.154-0.052,0.331,0,0.434,0.126 c1.888,2.29,2.224,2.308,3.666,3.159c0.084,0.05,0.154,0.131,0.186,0.224c0.362,1.081,0.328,4.115,0.416,4.772 c0.057,0.426,0.443,0.982,0.817,0.736C36.61,20.918,36.382,20.637,36.411,20.295z"/></g><radialGradient id="FoucFpONwWnAEobmqy3pBaz" cx="-16.747" cy="68.294" r="1.761" gradientTransform="matrix(1.4827 .036 .0172 -.7101 47.759 74.566)" gradientUnits="userSpaceOnUse"><stop offset=".479" stop-color="#fed53f"/><stop offset=".926" stop-color="#fed53f" stop-opacity=".141"/><stop offset="1" stop-color="#fed53f" stop-opacity="0"/></radialGradient><path fill="url(#FoucFpONwWnAEobmqy3pBaz)" d="M26.874,25.535c-0.018,0.757-1.286,1.339-2.831,1.302c-1.545-0.038-2.782-0.681-2.764-1.438	s1.286-1.339,2.831-1.302C25.655,24.135,26.892,24.779,26.874,25.535z"/><radialGradient id="FoucFpONwWnAEobmqy3pBaA" cx="24.117" cy="-151.221" r="1.411" gradientTransform="matrix(1 0 0 -.6596 0 -74.326)" gradientUnits="userSpaceOnUse"><stop offset=".004" stop-color="#fff4c9"/><stop offset="1" stop-color="#fff4c9" stop-opacity="0"/></radialGradient><ellipse cx="24.117" cy="25.419" fill="url(#FoucFpONwWnAEobmqy3pBaA)" rx="1.411" ry=".931"/><path fill="#805b2a" d="M14.322,21.29c-0.023,0.367,0.055,0.336,0.196,0.519c0,0,1.594,2.204,6.402,0.695	c0.348-0.124,0.598-0.36,0.562-0.644C20.866,16.978,14.699,17.695,14.322,21.29z"/><path fill="#fff" d="M14.393,21.07c-0.12,0.258-0.082,0.464,0,0.672c0.343,0.906,3.095,4.131,6.809,0.745	c0.277-0.239,0.321-0.45,0.252-0.748C21.385,21.44,20.423,19,17.902,19C15.405,19,14.601,20.719,14.393,21.07z"/><linearGradient id="FoucFpONwWnAEobmqy3pBaB" x1="15.901" x2="20.085" y1="26.931" y2="26.931" gradientTransform="matrix(1 0 0 -1 0 48)" gradientUnits="userSpaceOnUse"><stop offset="0" stop-color="#c69c6d"/><stop offset="1" stop-color="#754c24"/></linearGradient><circle cx="17.993" cy="21.069" r="2.092" fill="url(#FoucFpONwWnAEobmqy3pBaB)"/><radialGradient id="FoucFpONwWnAEobmqy3pBaC" cx="17.993" cy="26.931" r="1.053" gradientTransform="matrix(1 0 0 -1 0 48)" gradientUnits="userSpaceOnUse"><stop offset="0" stop-color="#1c1911"/><stop offset=".999" stop-color="#171714"/></radialGradient><circle cx="17.993" cy="21.069" r="1.053" fill="url(#FoucFpONwWnAEobmqy3pBaC)"/><circle cx="17.484" cy="20.526" r=".494" fill="#fff"/><path fill="#805b2a" d="M33.574,21.29c0.023,0.367-0.055,0.336-0.196,0.519c0,0-1.594,2.204-6.402,0.695	c-0.348-0.124-0.598-0.36-0.562-0.644C27.03,16.978,33.197,17.695,33.574,21.29z"/><path fill="#fff" d="M33.503,21.07c0.12,0.258,0.082,0.464,0,0.672c-0.343,0.906-3.095,4.131-6.809,0.745	c-0.277-0.239-0.321-0.45-0.252-0.748C26.511,21.44,27.473,19,29.994,19C32.49,19,33.295,20.719,33.503,21.07z"/><linearGradient id="FoucFpONwWnAEobmqy3pBaD" x1="209.432" x2="213.616" y1="166.932" y2="166.932" gradientTransform="translate(-181.622 -145.863)" gradientUnits="userSpaceOnUse"><stop offset="0" stop-color="#c69c6d"/><stop offset="1" stop-color="#754c24"/></linearGradient><circle cx="29.902" cy="21.069" r="2.092" fill="url(#FoucFpONwWnAEobmqy3pBaD)"/><radialGradient id="FoucFpONwWnAEobmqy3pBaE" cx="-388.475" cy="26.931" r="1.053" gradientTransform="rotate(180 -179.287 24)" gradientUnits="userSpaceOnUse"><stop offset="0" stop-color="#1c1911"/><stop offset=".999" stop-color="#171714"/></radialGradient><circle cx="29.902" cy="21.069" r="1.053" fill="url(#FoucFpONwWnAEobmqy3pBaE)"/><circle cx="29.422" cy="20.526" r=".494" fill="#fff"/><g><path fill="#805b2a" d="M32.167,17.222c-1.366-0.349-2.812-0.246-4.06,0.234c-0.388,0.149-0.824-0.044-0.974-0.433 c-0.149-0.388,0.044-0.824,0.433-0.974c0.04-0.015,0.081-0.027,0.122-0.036l0.017-0.003c1.614-0.316,3.275-0.127,4.712,0.517 c0.187,0.083,0.27,0.302,0.187,0.489c-0.075,0.167-0.258,0.251-0.429,0.207L32.167,17.222z"/></g><g><path fill="#805b2a" d="M15.833,16.528c1.437-0.643,3.098-0.833,4.712-0.517l0.013,0.003 c0.408,0.08,0.675,0.476,0.595,0.884c-0.08,0.408-0.476,0.675-0.884,0.595c-0.042-0.008-0.087-0.021-0.126-0.036 c-1.248-0.48-2.693-0.583-4.06-0.234l-0.007,0.002c-0.198,0.051-0.4-0.069-0.45-0.267C15.581,16.78,15.672,16.6,15.833,16.528z"/></g><g><radialGradient id="FoucFpONwWnAEobmqy3pBaF" cx="-31.422" cy="-63.441" r="2.561" gradientTransform="matrix(1.1109 0 0 -1.3094 58.933 -52.869)" gradientUnits="userSpaceOnUse"><stop offset=".696" stop-color="#cc9000"/><stop offset="1" stop-color="#cc9000" stop-opacity="0"/></radialGradient><path fill="url(#FoucFpONwWnAEobmqy3pBaF)" d="M24,32.153c-2.85,0-2.946-1.638-2.946-1.638s0.07,3.276,2.946,3.276 s2.946-3.276,2.946-3.276S26.85,32.153,24,32.153z"/><radialGradient id="FoucFpONwWnAEobmqy3pBaG" cx="-3.284" cy="-208.031" r="3.95" fx="-3.287" fy="-207.883" gradientTransform="matrix(.7953 0 0 -.5951 26.612 -93.62)" gradientUnits="userSpaceOnUse"><stop offset=".371" stop-color="#ffd226"/><stop offset=".948" stop-color="#ffe16e"/><stop offset="1" stop-color="#ffe16e" stop-opacity="0"/></radialGradient><path fill="url(#FoucFpONwWnAEobmqy3pBaG)" d="M27.094,30.023c0,0,0.039,2.526-3.094,2.526s-3.094-2.526-3.094-2.526 s0.687,0.769,3.094,0.769S27.094,30.023,27.094,30.023z"/><radialGradient id="FoucFpONwWnAEobmqy3pBaH" cx="-18.002" cy="-36.557" r="3.162" gradientTransform="matrix(.8379 0 0 -.855 39.126 -1.296)" gradientUnits="userSpaceOnUse"><stop offset="0" stop-color="#1c1911"/><stop offset=".999" stop-color="#171714"/></radialGradient><path fill="url(#FoucFpONwWnAEobmqy3pBaH)" d="M21.12,30.023c-0.169,0-0.267,0.179-0.184,0.324c0.617,1.072,2.032,1.396,3.064,1.396 c1.121,0,2.446-0.324,3.064-1.396c0.083-0.144-0.015-0.324-0.184-0.324C24.975,30.148,23.055,30.157,21.12,30.023z"/></g><radialGradient id="FoucFpONwWnAEobmqy3pBaI" cx="24" cy="22.75" r="6.751" gradientTransform="matrix(1 0 0 -1 0 48)" gradientUnits="userSpaceOnUse"><stop offset="0" stop-color="#c69c6d"/><stop offset=".53" stop-color="#956b41"/><stop offset=".626" stop-color="#8c6239"/><stop offset=".849" stop-color="#734a23"/><stop offset=".992" stop-color="#603813"/></radialGradient><path fill="url(#FoucFpONwWnAEobmqy3pBaI)" d="M24.015,27.7L24.015,27.7c-0.005,0-0.01,0-0.015,0s-0.01,0-0.015,0l0,0	c-5.306-0.08-6.11,2.031-6.11,2.974c0,0.37,0.437,0.426,0.637,0.113c0.152-0.229,0.768-0.579,1.592-0.59	c2.228-0.029,1.829-0.029,3.767-0.029c1.784,0,2.309,0,3.849,0c0.824,0,1.615,0.39,1.767,0.619c0.2,0.313,0.637,0.257,0.637-0.113	C30.125,29.731,29.321,27.62,24.015,27.7z"/></svg>