<svg xmlns="http://www.w3.org/2000/svg" viewBox="0 0 48 48"><radialGradient id="v03GvOp7TrsUeNe2eUQ3ia" cx="34.99" cy="32.263" r="2.47" gradientTransform="matrix(.9938 .1701 -.4458 2.1078 18.48 -45.36)" gradientUnits="userSpaceOnUse"><stop offset="0" stop-color="#f9e5c8"/><stop offset=".103" stop-color="#f8daba"/><stop offset=".306" stop-color="#f5d5b5"/><stop offset=".56" stop-color="#eec7a5"/><stop offset=".839" stop-color="#e1b08c"/><stop offset=".999" stop-color="#d8a07a"/></radialGradient><path fill="url(#v03GvOp7TrsUeNe2eUQ3ia)" d="M38,34c-0.6,0-0.932-0.234-0.846-0.753C37.327,32.207,38.01,25,38.01,25	c1.716,0,3.99,0,3.99,3C42,31.34,40.495,34,38,34z"/><radialGradient id="v03GvOp7TrsUeNe2eUQ3ib" cx="-602.485" cy="32.263" r="2.47" gradientTransform="matrix(-.9938 .1701 .4458 2.1078 -603.972 63.094)" gradientUnits="userSpaceOnUse"><stop offset="0" stop-color="#f9e5c8"/><stop offset=".103" stop-color="#f8daba"/><stop offset=".306" stop-color="#f5d5b5"/><stop offset=".56" stop-color="#eec7a5"/><stop offset=".839" stop-color="#e1b08c"/><stop offset=".999" stop-color="#d8a07a"/></radialGradient><path fill="url(#v03GvOp7TrsUeNe2eUQ3ib)" d="M10,34c0.6,0,0.932-0.234,0.846-0.753C10.673,32.207,9.99,25,9.99,25C8.274,25,6,25,6,28	C6,31.34,7.505,34,10,34z"/><radialGradient id="v03GvOp7TrsUeNe2eUQ3ic" cx="10.923" cy="27.5" r="18.252" fx="10.827" fy="19.681" gradientTransform="matrix(-.8889 0 0 1 33.71 0)" gradientUnits="userSpaceOnUse"><stop offset="0" stop-color="#f9e5c8"/><stop offset=".629" stop-color="#f8daba"/><stop offset=".713" stop-color="#f5d5b5"/><stop offset=".818" stop-color="#eec7a5"/><stop offset=".933" stop-color="#e1b08c"/><stop offset=".999" stop-color="#d8a07a"/></radialGradient><path fill="url(#v03GvOp7TrsUeNe2eUQ3ic)" d="M8,27c0,3.372,0.824,8.528,2.258,11.226c1.861,3.501,4.75,5.232,8.198,6.665	C20.183,45.608,22.051,46,24,46c1.958,0,3.835-0.396,5.569-1.12c3.437-1.436,6.316-3.161,8.173-6.654C39.176,35.528,40,30.372,40,27	c0-0.741-0.022-1.44-0.064-2.104c-0.244-3.817-1.176-6.448-2.622-8.882C34.445,11.182,29.553,9,24,9	c-5.523,0-10.392,2.148-13.267,6.936c-1.381,2.3-2.302,4.804-2.615,8.278C8.04,25.079,8,26.003,8,27z"/><radialGradient id="v03GvOp7TrsUeNe2eUQ3id" cx="25.218" cy="11.113" r="11.325" gradientTransform="matrix(-.0118 .976 -1.5027 -.0163 40.85 -9.71)" gradientUnits="userSpaceOnUse"><stop offset="0" stop-color="#5c5050"/><stop offset=".419" stop-color="#5a4e4e"/><stop offset=".621" stop-color="#524848"/><stop offset=".776" stop-color="#453d3d"/><stop offset=".908" stop-color="#332d2d"/><stop offset=".998" stop-color="#211e1e"/></radialGradient><path fill="url(#v03GvOp7TrsUeNe2eUQ3id)" d="M9.878,18.712c1.743-0.46,4.624-1.879,8.115-6.013c0.399-0.473,1.114-0.56,1.654-0.237	c2.339,1.399,6.884,3.21,13.298,2.286c0.438-0.063,0.883,0.081,1.168,0.401c2.396,2.699,2.07,2.814,4.071,3.938	c1.52,0.859,1.693,6.189,1.847,7.156C43.946,19.212,43.601,2,24.153,2c-3.645,0-5.563,1.942-5.563,1.942s-2.737-0.616-4.97,0.376	C2.804,9.126,6.112,23.23,7.994,26.077C8.29,23.616,9.184,19.001,9.878,18.712z"/><path d="M38.063,18.02c-0.15-0.991-1.576-0.929-3.896-3.694	c-0.276-0.329-0.707-0.476-1.131-0.411c-6.211,0.946-11.308-1.344-13.573-2.777c-0.523-0.331-1.215-0.242-1.602,0.243	c-2.592,3.247-5.823,5.557-7.954,6.675c-0.035,0.198-0.534,0.716-0.555,0.883c-0.042,0.346-0.763,0.125-1.259,6.021	c0.392-0.854,1.172-3.804,2.703-4.771c3.693-2.333,5.952-3.673,7.706-5.871c0.387-0.484,0.745-0.544,1.269-0.213	c2.265,1.433,6.295,3.368,12.507,2.422c0.424-0.065,0.855,0.083,1.131,0.411c2.32,2.765,3.92,0.854,6.437,8.021	C40.299,20.312,38.125,18.396,38.063,18.02z" opacity=".1"/><path d="M17.887,11.471c-2.511,3.146-5.757,5.393-7.908,6.536	c-0.105,0.192-0.553,0.62-0.635,0.78c-0.019,0.134-0.091,0.221-0.194,0.433c-0.206,0.424-0.847,1.819-1.045,5.77	c0.351-1.109,1.106-4.261,2.47-5.083c3.49-2.104,5.984-3.606,7.873-5.973c0.387-0.484,0.745-0.544,1.269-0.213	c2.231,1.412,6.552,3.132,12.423,2.447c0.123-0.014,0.247-0.026,0.37-0.034c0.272-0.019,0.54,0.044,0.762,0.191	c0.129,0.085,0.248,0.189,0.351,0.311c1.334,1.577,2.411,1.916,3.51,2.768c1.052,0.815,1.887,2.844,2.71,5.531	c0.534-4.371-1.627-6.535-1.779-6.914c-0.15-0.991-1.576-0.929-3.896-3.694c-0.276-0.329-0.707-0.476-1.131-0.411	c-6.211,0.946-11.283-1.253-13.548-2.687C18.965,10.897,18.273,10.986,17.887,11.471z" opacity=".1"/><path d="M17.912,11.561c-2.43,3.044-5.69,5.229-7.862,6.398	c-0.175,0.186-0.572,0.523-0.716,0.677c-0.024,0.156-0.082,0.276-0.159,0.473c-0.15,0.381-0.997,1.973-1.06,5.912	c0.309-1.365,1.042-4.716,2.237-5.396c3.29-1.87,6.016-3.54,8.041-6.076c0.387-0.484,0.745-0.544,1.269-0.213	c2.243,1.419,6.965,2.959,12.701,2.419c0.127-0.012,0.254-0.018,0.379-0.016c0.276,0.003,0.541,0.084,0.752,0.258	c0.123,0.1,0.238,0.212,0.342,0.334c1.373,1.611,2.472,2.186,3.524,2.885c1.22,0.811,1.946,3.484,2.479,5.692	c0.614-4.096-1.533-6.508-1.775-6.889c-0.15-0.991-1.576-0.929-3.896-3.694c-0.276-0.329-0.707-0.476-1.131-0.411	c-6.211,0.946-11.258-1.162-13.522-2.596C18.99,10.987,18.299,11.077,17.912,11.561z" opacity=".1"/><path d="M17.937,11.652c-2.349,2.943-5.623,5.065-7.817,6.259	c-0.246,0.18-0.591,0.427-0.796,0.574c-0.029,0.177-0.073,0.331-0.125,0.513c-0.096,0.337-1.147,2.126-1.076,6.054	c0.268-1.62,0.979-5.169,2.004-5.708c3.095-1.629,6.048-3.473,8.208-6.179c0.387-0.484,0.745-0.544,1.269-0.213	c2.254,1.426,7.38,2.811,12.979,2.392c0.13-0.009,0.261-0.01,0.388,0.001c0.28,0.024,0.543,0.125,0.743,0.325	c0.116,0.116,0.228,0.235,0.333,0.358c1.412,1.645,2.544,2.44,3.537,3.002c1.399,0.791,2.005,4.125,2.248,5.854	c0.694-3.822-1.44-6.48-1.771-6.865c-0.15-0.991-1.576-0.929-3.896-3.694c-0.276-0.329-0.707-0.476-1.131-0.411	c-6.211,0.946-11.232-1.072-13.497-2.505C19.016,11.078,18.324,11.168,17.937,11.652z" opacity=".1"/><path d="M38.063,18.02c-0.15-0.991-1.576-0.929-3.896-3.694	c-0.276-0.329-0.707-0.476-1.131-0.411c-6.211,0.946-11.207-0.981-13.471-2.414c-0.523-0.331-1.215-0.242-1.602,0.243	c-2.592,3.247-6.516,5.474-8.647,6.592c-0.035,0.198-0.066,0.386-0.09,0.552c-0.043,0.294-1.297,2.28-1.091,6.197	c0.227-1.875,0.918-5.617,1.771-6.021c2.906-1.375,6.081-3.407,8.375-6.281c0.387-0.484,0.745-0.544,1.269-0.213	c2.265,1.433,7.794,2.65,13.257,2.364c0.428-0.022,0.855,0.083,1.131,0.411c1.602,1.91,2.875,3.031,3.875,3.5	c1.589,0.745,2.064,4.766,2.017,6.016C40.603,21.312,38.484,18.406,38.063,18.02z" opacity=".1"/><linearGradient id="v03GvOp7TrsUeNe2eUQ3ie" x1="29.216" x2="29.216" y1="33.174" y2="41.564" gradientUnits="userSpaceOnUse"><stop offset="0" stop-opacity=".15"/><stop offset=".087" stop-opacity=".137"/><stop offset="1" stop-opacity="0"/></linearGradient><path fill="url(#v03GvOp7TrsUeNe2eUQ3ie)" d="M30.418,40.709c0.9-1.754,0.591-5.212-2.129-7.266c-0.721-0.544-0.993-0.341-0.414,0.248	c1.845,1.879,2.555,4.79,2.001,6.967C29.635,41.462,30.144,41.164,30.418,40.709z"/><linearGradient id="v03GvOp7TrsUeNe2eUQ3if" x1="29.216" x2="29.216" y1="33.174" y2="41.564" gradientTransform="matrix(-1 0 0 1 48 0)" gradientUnits="userSpaceOnUse"><stop offset="0" stop-opacity=".15"/><stop offset=".087" stop-opacity=".137"/><stop offset="1" stop-opacity="0"/></linearGradient><path fill="url(#v03GvOp7TrsUeNe2eUQ3if)" d="M17.582,40.709c-0.9-1.754-0.591-5.212,2.129-7.266c0.721-0.544,0.993-0.341,0.414,0.248	c-1.845,1.879-2.555,4.79-2.001,6.967C18.365,41.462,17.856,41.164,17.582,40.709z"/><path fill="#fff" d="M12,27.237c-0.151,0.309-0.007,0.804,0.096,1.053c0.43,1.087,3.887,4.957,8.551,0.894	c0.348-0.287,0.596-0.822,0.51-1.18c-0.086-0.358-0.843-3.374-4.654-3.374C13.368,24.63,12.262,26.816,12,27.237z"/><linearGradient id="v03GvOp7TrsUeNe2eUQ3ig" x1="14" x2="19" y1="27.5" y2="27.5" gradientUnits="userSpaceOnUse"><stop offset="0" stop-color="#c69c6d"/><stop offset="1" stop-color="#754c24"/></linearGradient><circle cx="16.5" cy="27.5" r="2.5" fill="url(#v03GvOp7TrsUeNe2eUQ3ig)"/><radialGradient id="v03GvOp7TrsUeNe2eUQ3ih" cx="16.5" cy="27.5" r="1.266" gradientUnits="userSpaceOnUse"><stop offset="0" stop-color="#1c1911"/><stop offset=".999" stop-color="#171714"/></radialGradient><circle cx="16.5" cy="27.5" r="1.266" fill="url(#v03GvOp7TrsUeNe2eUQ3ih)"/><path fill="#fff" d="M35.904,27.484c0.151,0.309,0.103,0.557,0,0.806c-0.43,1.087-3.887,4.957-8.551,0.894	c-0.348-0.287-0.607-0.826-0.521-1.184s1.499-3.466,4.666-3.466C34.632,24.534,35.642,27.063,35.904,27.484z"/><linearGradient id="v03GvOp7TrsUeNe2eUQ3ii" x1="15" x2="20" y1="27.5" y2="27.5" gradientTransform="translate(14)" gradientUnits="userSpaceOnUse"><stop offset="0" stop-color="#c69c6d"/><stop offset="1" stop-color="#754c24"/></linearGradient><circle cx="31.5" cy="27.5" r="2.5" fill="url(#v03GvOp7TrsUeNe2eUQ3ii)"/><radialGradient id="v03GvOp7TrsUeNe2eUQ3ij" cx="-800.5" cy="27.5" r="1.266" gradientTransform="matrix(-1 0 0 1 -769 0)" gradientUnits="userSpaceOnUse"><stop offset="0" stop-color="#1c1911"/><stop offset=".999" stop-color="#171714"/></radialGradient><circle cx="31.5" cy="27.5" r="1.266" fill="url(#v03GvOp7TrsUeNe2eUQ3ij)"/><circle cx="15.5" cy="26.5" r=".5" fill="#fff"/><circle cx="30.5" cy="26.5" r=".5" fill="#fff"/><path fill="#171515" d="M13.592,22.088c0.472-0.19,0.899-0.319,1.354-0.446c0.449-0.123,0.902-0.228,1.358-0.321	c0.911-0.182,1.832-0.313,2.759-0.4l0.006-0.001c0.562-0.052,1.059,0.36,1.112,0.922s-0.36,1.059-0.922,1.112	c-0.064,0.006-0.134,0.005-0.196-0.001c-0.862-0.086-1.73-0.129-2.597-0.125c-0.433,0.004-0.867,0.019-1.299,0.052	c-0.424,0.033-0.875,0.084-1.258,0.156l-0.037,0.007c-0.271,0.051-0.533-0.127-0.584-0.399	C13.242,22.406,13.375,22.175,13.592,22.088z"/><path fill="#171515" d="M33.967,22.921c-0.399-0.052-0.852-0.084-1.283-0.102c-0.437-0.018-0.875-0.022-1.312-0.017	c-0.876,0.013-1.751,0.065-2.621,0.151c-0.561,0.055-1.061-0.355-1.116-0.916c-0.055-0.561,0.355-1.061,0.916-1.116	c0.064-0.006,0.138-0.005,0.2,0c0.922,0.086,1.84,0.209,2.75,0.371c0.455,0.083,0.908,0.175,1.359,0.281	c0.456,0.11,0.889,0.222,1.361,0.38c0.262,0.088,0.404,0.371,0.316,0.634c-0.077,0.231-0.307,0.368-0.539,0.338L33.967,22.921z"/><path fill="#171515" d="M40.033,17.583c-1.754-1.364-4.416-4.953-5.278-5.47 c-0.831-0.498-6.574,1.44-13.445-1.905c-0.947-0.461-1.789-1.666-2.358-2.89c-0.875-1.901-1.8-1.132-1.772-0.056 c0.044,1.713-0.417,3.079-1.257,4.205c-3.294,4.412-6.673,4.911-7.667,5.994C6.995,18.833,7.687,22.75,8,25.219 c0,0,0.061-0.045,0.159-0.117c0.377-2.538,1.139-6.129,1.747-6.383c1.739-0.46,4.615-1.879,8.099-6.013 c0.398-0.473,1.112-0.56,1.651-0.237c2.334,1.399,6.87,3.21,13.272,2.286c0.437-0.063,0.881,0.081,1.165,0.401 c2.391,2.699,2.066,2.814,4.062,3.938c1.221,0.691,1.571,4.274,1.741,6.152c0.036-0.001,0.066,0.006,0.103,0.004 C40.344,23.531,41.288,18.559,40.033,17.583z" opacity=".167"/><path fill="#171515" d="M39.831,17.724c-1.754-1.364-4.346-4.801-5.209-5.318 c-0.831-0.498-6.604,1.448-13.503-1.937c-0.945-0.464-1.642-1.595-2.216-2.816c-0.809-1.72-1.58-1.086-1.552-0.01 c0.044,1.713-0.335,2.859-1.175,3.985c-3.294,4.412-6.784,4.869-7.778,5.953c-1.26,1.373-0.71,5.17-0.398,7.639 c0,0,0.061-0.045,0.159-0.117c0.377-2.538,1.139-6.129,1.747-6.383c1.739-0.46,4.615-1.879,8.099-6.013 c0.398-0.473,1.112-0.56,1.651-0.237c2.334,1.399,6.87,3.21,13.272,2.286c0.437-0.063,0.881,0.081,1.165,0.401 c2.391,2.699,2.066,2.814,4.062,3.938c1.221,0.691,1.571,4.274,1.741,6.152c0.036-0.001,0.066,0.006,0.103,0.004 C40.344,23.531,41.086,18.7,39.831,17.724z" opacity=".333"/><path fill="#171515" d="M39.63,17.865c-1.754-1.364-4.277-4.649-5.139-5.166 c-0.831-0.498-6.634,1.455-13.561-1.968c-0.944-0.466-1.492-1.524-2.075-2.741c-0.738-1.542-1.36-1.04-1.332,0.036 c0.044,1.713-0.253,2.639-1.093,3.764c-3.294,4.412-6.895,4.827-7.889,5.911C7.281,19.074,7.687,22.75,8,25.219 c0,0,0.061-0.045,0.159-0.117c0.377-2.538,1.139-6.129,1.747-6.383c1.739-0.46,4.615-1.879,8.099-6.013 c0.398-0.473,1.112-0.56,1.651-0.237c2.334,1.399,6.87,3.21,13.272,2.286c0.437-0.063,0.881,0.081,1.165,0.401 c2.391,2.699,2.066,2.814,4.062,3.938c1.221,0.691,1.571,4.274,1.741,6.152c0.036-0.001,0.066,0.006,0.103,0.004 C40.344,23.531,40.884,18.841,39.63,17.865z" opacity=".5"/><path fill="#171515" d="M39.428,18.006c-1.754-1.364-4.207-4.497-5.069-5.014 c-0.831-0.498-6.664,1.462-13.618-1.999c-0.943-0.469-1.341-1.454-1.933-2.667c-0.666-1.364-1.14-0.994-1.113,0.082 c0.044,1.713-0.171,2.419-1.011,3.544c-3.294,4.412-7.006,4.785-8,5.869C7.423,19.194,7.687,22.75,8,25.219 c0,0,0.061-0.045,0.159-0.117c0.377-2.538,1.139-6.129,1.747-6.383c1.739-0.46,4.615-1.879,8.099-6.013 c0.398-0.473,1.112-0.56,1.651-0.237c2.334,1.399,6.87,3.21,13.272,2.286c0.437-0.063,0.881,0.081,1.165,0.401 c2.391,2.699,2.066,2.814,4.062,3.938c1.221,0.691,1.571,4.274,1.741,6.152c0.036-0.001,0.066,0.006,0.103,0.004 C40.344,23.531,40.682,18.982,39.428,18.006z" opacity=".667"/><path fill="#171515" d="M39.226,18.148c-1.754-1.364-4.137-4.345-5-4.862 c-0.831-0.498-6.694,1.469-13.676-2.03c-0.941-0.472-1.188-1.385-1.791-2.592c-0.593-1.187-0.921-0.948-0.893,0.128 c0.044,1.713-0.088,2.198-0.929,3.324c-3.294,4.412-7.117,4.743-8.111,5.827C7.566,19.315,7.687,22.75,8,25.219 c0,0,0.061-0.045,0.159-0.117c0.377-2.538,1.139-6.129,1.747-6.383c1.739-0.46,4.615-1.879,8.099-6.013 c0.398-0.473,1.112-0.56,1.651-0.237c2.334,1.399,6.87,3.21,13.272,2.286c0.437-0.063,0.881,0.081,1.165,0.401 c2.391,2.699,2.066,2.814,4.062,3.938c1.221,0.691,1.571,4.274,1.741,6.152c0.036-0.001,0.066,0.006,0.103,0.004 C40.344,23.531,40.48,19.124,39.226,18.148z" opacity=".833"/><path fill="#171515" d="M39.024,18.289c-1.754-1.364-4.068-4.192-4.93-4.709c-0.831-0.498-6.724,1.476-13.734-2.062 C19.42,11.043,19.326,10.201,18.71,9c-0.518-1.011-0.701-0.902-0.673,0.174c0.044,1.713-0.006,1.978-0.846,3.103 c-3.294,4.412-7.228,4.701-8.223,5.785C7.709,19.436,7.687,22.75,8,25.219c0,0,0.061-0.045,0.159-0.117 c0.377-2.538,1.139-6.129,1.747-6.383c1.739-0.46,4.615-1.879,8.099-6.013c0.398-0.473,1.112-0.56,1.651-0.237 c2.334,1.399,6.87,3.21,13.272,2.286c0.437-0.063,0.881,0.081,1.165,0.401c2.391,2.699,2.066,2.814,4.062,3.938 c1.221,0.691,1.571,4.274,1.741,6.152c0.036-0.001,0.066,0.006,0.103,0.004C40.344,23.531,40.279,19.265,39.024,18.289z"/><ellipse cx="31.5" cy="28.5" fill="none" stroke="gray" stroke-miterlimit="10" rx="5" ry="4"/><ellipse cx="16.5" cy="28.5" fill="none" stroke="gray" stroke-miterlimit="10" rx="5" ry="4"/><path fill="none" stroke="gray" stroke-miterlimit="10" d="M21.5,27.625c1.694-0.615,3.361-0.635,5,0"/><line x1="7.5" x2="11.5" y1="25.5" y2="27.5" fill="none" stroke="gray" stroke-linecap="round" stroke-miterlimit="10"/><line x1="40.5" x2="36.5" y1="25.5" y2="27.5" fill="none" stroke="gray" stroke-linecap="round" stroke-miterlimit="10"/><g><radialGradient id="v03GvOp7TrsUeNe2eUQ3ik" cx="-50.109" cy="46.874" r="3.789" gradientTransform="matrix(1.0927 0 0 1.0817 78.812 -11.736)" gradientUnits="userSpaceOnUse"><stop offset=".57" stop-opacity=".2"/><stop offset="1" stop-opacity="0"/></radialGradient><path fill="url(#v03GvOp7TrsUeNe2eUQ3ik)" d="M24,41c-3.673,0-4.299-1.947-4.299-1.947S20.314,43,24,43s4.299-3.947,4.299-3.947 S27.673,41,24,41z"/><radialGradient id="v03GvOp7TrsUeNe2eUQ3il" cx="51.126" cy="-36.322" r="5.86" fx="51.122" fy="-36.102" gradientTransform="matrix(.7909 0 0 .4766 -16.437 55.505)" gradientUnits="userSpaceOnUse"><stop offset=".78" stop-color="#fff" stop-opacity=".4"/><stop offset="1" stop-color="#fff" stop-opacity="0"/></radialGradient><path fill="url(#v03GvOp7TrsUeNe2eUQ3il)" d="M28.562,38c0,0,0.058,3-4.564,3s-4.564-3-4.564-3s1.014,0.914,4.564,0.914 S28.562,38,28.562,38z"/><radialGradient id="v03GvOp7TrsUeNe2eUQ3im" cx="23.298" cy="2.511" r="4.691" gradientTransform="matrix(.8333 0 0 .6703 4.648 36.242)" gradientUnits="userSpaceOnUse"><stop offset="0" stop-color="#1c1911"/><stop offset=".999" stop-color="#171714"/></radialGradient><path fill="url(#v03GvOp7TrsUeNe2eUQ3im)" d="M19.75,38c-0.249,0-0.394,0.209-0.271,0.377C20.39,39.623,22.477,40,23.999,40 c1.654,0,3.609-0.377,4.519-1.623C28.641,38.209,28.496,38,28.247,38C25.031,38,23.031,38,19.75,38z"/></g><g><radialGradient id="v03GvOp7TrsUeNe2eUQ3in" cx="24" cy="31.951" r="3.384" gradientTransform="matrix(.9999 -.011 .0059 .5371 -.188 15.056)" gradientUnits="userSpaceOnUse"><stop offset="0" stop-color="#fff"/><stop offset="1" stop-color="#fff" stop-opacity="0"/></radialGradient><ellipse cx="24" cy="32" fill="url(#v03GvOp7TrsUeNe2eUQ3in)" rx="3.5" ry="2"/><radialGradient id="v03GvOp7TrsUeNe2eUQ3io" cx="24.029" cy="32.953" r="2.701" gradientTransform="matrix(.0022 1 -1.2107 .0026 63.875 8.837)" gradientUnits="userSpaceOnUse"><stop offset=".415" stop-opacity=".3"/><stop offset="1" stop-opacity="0"/></radialGradient><path fill="url(#v03GvOp7TrsUeNe2eUQ3io)" d="M26.754,33.238C26.465,33.386,25.66,34,24,34s-2.465-0.614-2.754-0.762 c-0.289-0.148-0.48-0.078-0.48,0.198C20.766,34.155,21.931,36,24,36s3.234-1.845,3.234-2.564 C27.234,33.16,27.043,33.09,26.754,33.238z"/></g></svg>