<svg xmlns="http://www.w3.org/2000/svg" viewBox="0 0 48 48"><polygon fill="#e34800" points="24.394,5.715 24.394,8.274 28.061,6.994"/><rect width=".781" height="6.07" x="23.614" y="5.225" fill="#595959"/><polygon fill="#e34800" points="38.711,11.511 38.711,14.07 42.377,12.79"/><rect width=".781" height="6.07" x="37.955" y="11.021" fill="#595959"/><linearGradient id="HU98~CqYf25o4ONemqmWHa" x1="64.619" x2="105.596" y1="28.805" y2="28.805" gradientTransform="matrix(.2471 0 0 1.2337 2.968 -9.64)" gradientUnits="userSpaceOnUse"><stop offset="0" stop-color="#73706c"/><stop offset=".045" stop-color="#868481"/><stop offset=".137" stop-color="#a9a8a6"/><stop offset=".23" stop-color="#c5c4c3"/><stop offset=".322" stop-color="#d8d8d7"/><stop offset=".413" stop-color="#e4e4e4"/><stop offset=".5" stop-color="#e8e8e8"/><stop offset=".587" stop-color="#e4e4e4"/><stop offset=".678" stop-color="#d8d8d7"/><stop offset=".77" stop-color="#c5c4c3"/><stop offset=".863" stop-color="#a9a8a6"/><stop offset=".955" stop-color="#868481"/><stop offset="1" stop-color="#73706c"/></linearGradient><rect width="10.126" height="13.502" x="18.937" y="19.147" fill="url(#HU98~CqYf25o4ONemqmWHa)"/><radialGradient id="HU98~CqYf25o4ONemqmWHb" cx="87" cy="20.787" r="88.171" gradientTransform="matrix(.2471 0 0 1.2337 2.968 -9.64)" gradientUnits="userSpaceOnUse"><stop offset="0" stop-color="#e8e8e8" stop-opacity="0"/><stop offset=".126" stop-color="#d2d2d2" stop-opacity=".17"/><stop offset=".39" stop-color="#9a9a98" stop-opacity=".524"/><stop offset=".743" stop-color="#474643"/></radialGradient><rect width="10.126" height="13.502" x="18.937" y="19.147" fill="url(#HU98~CqYf25o4ONemqmWHb)"/><radialGradient id="HU98~CqYf25o4ONemqmWHc" cx="24.083" cy="36.184" r="17.565" gradientTransform="matrix(1 0 0 1.0539 0 -1.95)" gradientUnits="userSpaceOnUse"><stop offset="0" stop-color="#f5f5f5"/><stop offset=".167" stop-color="#e5e5e4"/><stop offset=".495" stop-color="#bcbbb9"/><stop offset=".949" stop-color="#7b7874"/><stop offset="1" stop-color="#73706c"/></radialGradient><polygon fill="url(#HU98~CqYf25o4ONemqmWHc)" points="32.861,29.273 32.861,26.742 30.329,26.742 30.329,29.273 27.797,29.273 27.797,26.742 25.266,26.742 25.266,29.273 22.734,29.273 22.734,26.742 20.203,26.742 20.203,29.273 17.671,29.273 17.671,26.742 15.139,26.742 15.139,29.273 12.186,29.273 12.186,42.775 35.814,42.775 35.814,29.273"/><linearGradient id="HU98~CqYf25o4ONemqmWHd" x1="24" x2="24" y1="43.371" y2="32.409" gradientUnits="userSpaceOnUse"><stop offset=".005" stop-color="#9e6431"/><stop offset=".085" stop-color="#925c2c"/><stop offset=".309" stop-color="#774921"/><stop offset=".535" stop-color="#643b19"/><stop offset=".764" stop-color="#583315"/><stop offset="1" stop-color="#543013"/></linearGradient><path fill="url(#HU98~CqYf25o4ONemqmWHd)" d="M24,32.227c-2.094,0-3.797,1.704-3.797,3.797v6.751h7.595v-6.751 C27.797,33.93,26.094,32.227,24,32.227z"/><linearGradient id="HU98~CqYf25o4ONemqmWHe" x1="12.581" x2="41.532" y1="33.935" y2="33.935" gradientTransform="matrix(.2471 0 0 1.2337 2.968 -9.64)" gradientUnits="userSpaceOnUse"><stop offset="0" stop-color="#73706c"/><stop offset=".045" stop-color="#868481"/><stop offset=".137" stop-color="#a9a8a6"/><stop offset=".23" stop-color="#c5c4c3"/><stop offset=".322" stop-color="#d8d8d7"/><stop offset=".413" stop-color="#e4e4e4"/><stop offset=".5" stop-color="#e8e8e8"/><stop offset=".587" stop-color="#e4e4e4"/><stop offset=".678" stop-color="#d8d8d7"/><stop offset=".77" stop-color="#c5c4c3"/><stop offset=".863" stop-color="#a9a8a6"/><stop offset=".955" stop-color="#868481"/><stop offset="1" stop-color="#73706c"/></linearGradient><rect width="7.155" height="21.097" x="6.077" y="21.678" fill="url(#HU98~CqYf25o4ONemqmWHe)"/><linearGradient id="HU98~CqYf25o4ONemqmWHf" x1="9.654" x2="9.654" y1="29.322" y2="24.515" gradientUnits="userSpaceOnUse"><stop offset="0" stop-color="#949494"/><stop offset=".215" stop-color="#6d6d6c"/><stop offset=".434" stop-color="#4c4c4b"/><stop offset=".644" stop-color="#343433"/><stop offset=".838" stop-color="#262624"/><stop offset="1" stop-color="#21211f"/></linearGradient><path fill="url(#HU98~CqYf25o4ONemqmWHf)" d="M11.342,29.273H7.966v-3.541c0-0.841,0.682-1.522,1.522-1.522H9.82 c0.841,0,1.522,0.682,1.522,1.522V29.273z"/><linearGradient id="HU98~CqYf25o4ONemqmWHg" x1="24" x2="24" y1="25.947" y2="21.14" gradientUnits="userSpaceOnUse"><stop offset="0" stop-color="#949494"/><stop offset=".215" stop-color="#6d6d6c"/><stop offset=".434" stop-color="#4c4c4b"/><stop offset=".644" stop-color="#343433"/><stop offset=".838" stop-color="#262624"/><stop offset="1" stop-color="#21211f"/></linearGradient><path fill="url(#HU98~CqYf25o4ONemqmWHg)" d="M25.688,25.898h-3.375v-3.541c0-0.841,0.682-1.522,1.522-1.522h0.331 c0.841,0,1.522,0.682,1.522,1.522V25.898z"/><linearGradient id="HU98~CqYf25o4ONemqmWHh" x1="5.435" x2="13.873" y1="20.834" y2="20.834" gradientUnits="userSpaceOnUse"><stop offset="0" stop-color="#73706c"/><stop offset=".045" stop-color="#868481"/><stop offset=".137" stop-color="#a9a8a6"/><stop offset=".23" stop-color="#c5c4c3"/><stop offset=".322" stop-color="#d8d8d7"/><stop offset=".413" stop-color="#e4e4e4"/><stop offset=".5" stop-color="#e8e8e8"/><stop offset=".587" stop-color="#e4e4e4"/><stop offset=".678" stop-color="#d8d8d7"/><stop offset=".77" stop-color="#c5c4c3"/><stop offset=".863" stop-color="#a9a8a6"/><stop offset=".955" stop-color="#868481"/><stop offset="1" stop-color="#73706c"/></linearGradient><rect width="8.439" height="1.688" x="5.435" y="19.991" fill="url(#HU98~CqYf25o4ONemqmWHh)"/><linearGradient id="HU98~CqYf25o4ONemqmWHi" x1="128.682" x2="157.633" y1="33.935" y2="33.935" gradientTransform="matrix(.2471 0 0 1.2337 2.968 -9.64)" gradientUnits="userSpaceOnUse"><stop offset="0" stop-color="#73706c"/><stop offset=".045" stop-color="#868481"/><stop offset=".137" stop-color="#a9a8a6"/><stop offset=".23" stop-color="#c5c4c3"/><stop offset=".322" stop-color="#d8d8d7"/><stop offset=".413" stop-color="#e4e4e4"/><stop offset=".5" stop-color="#e8e8e8"/><stop offset=".587" stop-color="#e4e4e4"/><stop offset=".678" stop-color="#d8d8d7"/><stop offset=".77" stop-color="#c5c4c3"/><stop offset=".863" stop-color="#a9a8a6"/><stop offset=".955" stop-color="#868481"/><stop offset="1" stop-color="#73706c"/></linearGradient><rect width="7.155" height="21.097" x="34.769" y="21.678" fill="url(#HU98~CqYf25o4ONemqmWHi)"/><linearGradient id="HU98~CqYf25o4ONemqmWHj" x1="38.346" x2="38.346" y1="29.322" y2="24.515" gradientUnits="userSpaceOnUse"><stop offset="0" stop-color="#949494"/><stop offset=".215" stop-color="#6d6d6c"/><stop offset=".434" stop-color="#4c4c4b"/><stop offset=".644" stop-color="#343433"/><stop offset=".838" stop-color="#262624"/><stop offset="1" stop-color="#21211f"/></linearGradient><path fill="url(#HU98~CqYf25o4ONemqmWHj)" d="M40.034,29.273h-3.375v-3.541c0-0.841,0.682-1.522,1.522-1.522h0.331 c0.841,0,1.522,0.682,1.522,1.522V29.273z"/><linearGradient id="HU98~CqYf25o4ONemqmWHk" x1="34.127" x2="42.565" y1="20.834" y2="20.834" gradientUnits="userSpaceOnUse"><stop offset="0" stop-color="#73706c"/><stop offset=".045" stop-color="#868481"/><stop offset=".137" stop-color="#a9a8a6"/><stop offset=".23" stop-color="#c5c4c3"/><stop offset=".322" stop-color="#d8d8d7"/><stop offset=".413" stop-color="#e4e4e4"/><stop offset=".5" stop-color="#e8e8e8"/><stop offset=".587" stop-color="#e4e4e4"/><stop offset=".678" stop-color="#d8d8d7"/><stop offset=".77" stop-color="#c5c4c3"/><stop offset=".863" stop-color="#a9a8a6"/><stop offset=".955" stop-color="#868481"/><stop offset="1" stop-color="#73706c"/></linearGradient><rect width="8.439" height="1.688" x="34.126" y="19.991" fill="url(#HU98~CqYf25o4ONemqmWHk)"/><rect width="7.155" height=".844" x="6.075" y="21.678" fill="#292929" opacity=".4"/><rect width="7.153" height=".844" x="34.767" y="21.678" fill="#292929" opacity=".4"/><rect width="10.126" height=".844" x="18.937" y="19.147" fill="#292929" opacity=".4"/><path fill="#38270f" d="M24.124,42.775h-0.248v-10.97h0.248V42.775z M22.188,31.805h-0.248v10.97h0.248V31.805 z M26.059,31.805h-0.248v10.97h0.248V31.805z" opacity=".5"/><path fill="#8c6342" d="M24.371,42.775h-0.248v-10.97h0.248V42.775z M22.436,31.805h-0.248v10.97h0.248V31.805 z M26.306,31.805h-0.248v10.97h0.248V31.805z" opacity=".5"/><linearGradient id="HU98~CqYf25o4ONemqmWHl" x1="24" x2="24" y1="44.666" y2="33.704" gradientUnits="userSpaceOnUse"><stop offset=".005" stop-color="#9e6431" stop-opacity="0"/><stop offset=".029" stop-color="#935d2d" stop-opacity=".024"/><stop offset=".099" stop-color="#784b23" stop-opacity=".094"/><stop offset=".179" stop-color="#623c1b" stop-opacity=".174"/><stop offset=".272" stop-color="#513115" stop-opacity=".268"/><stop offset=".388" stop-color="#462911" stop-opacity=".385"/><stop offset=".55" stop-color="#3f240f" stop-opacity=".547"/><stop offset="1" stop-color="#3d230e"/></linearGradient><path fill="url(#HU98~CqYf25o4ONemqmWHl)" d="M27.695,35.18c-0.386-1.688-1.892-2.954-3.695-2.954s-3.31,1.266-3.695,2.954 h-0.524v7.595h0.844v-5.903c0-1.718,1.22-3.279,2.926-3.484c0.147-0.018,0.297-0.027,0.45-0.027s0.302,0.009,0.45,0.027 c1.705,0.205,2.926,1.766,2.926,3.484v5.903h0.844V35.18H27.695z" opacity=".5"/><path fill="#a3a3a3" d="M24,32.227c2.094,0,3.797,1.704,3.797,3.797v6.751h-7.595v-6.751 C20.203,33.93,21.906,32.227,24,32.227 M24,30.961L24,30.961c-2.796,0-5.063,2.267-5.063,5.063v6.751h10.126v-6.751 C29.063,33.228,26.796,30.961,24,30.961L24,30.961z"/><radialGradient id="HU98~CqYf25o4ONemqmWHm" cx="38.346" cy="17.881" r="2.815" gradientUnits="userSpaceOnUse"><stop offset="0" stop-color="#eb4b1a"/><stop offset=".281" stop-color="#e74818"/><stop offset=".573" stop-color="#da4011"/><stop offset=".868" stop-color="#c63306"/><stop offset="1" stop-color="#ba2b00"/></radialGradient><polygon fill="url(#HU98~CqYf25o4ONemqmWHm)" points="38.908,15.771 37.783,15.771 34.97,19.991 41.721,19.991"/><polygon fill="#e34800" points="10.019,11.511 10.019,14.07 13.686,12.79"/><rect width=".781" height="6.07" x="9.264" y="11.021" fill="#595959"/><radialGradient id="HU98~CqYf25o4ONemqmWHn" cx="9.654" cy="17.881" r="2.815" gradientUnits="userSpaceOnUse"><stop offset="0" stop-color="#eb4b1a"/><stop offset=".281" stop-color="#e74818"/><stop offset=".573" stop-color="#da4011"/><stop offset=".868" stop-color="#c63306"/><stop offset="1" stop-color="#ba2b00"/></radialGradient><polygon fill="url(#HU98~CqYf25o4ONemqmWHn)" points="10.217,15.771 9.092,15.771 6.279,19.991 13.03,19.991"/><radialGradient id="HU98~CqYf25o4ONemqmWHo" cx="24.005" cy="13.662" r="4.014" gradientUnits="userSpaceOnUse"><stop offset="0" stop-color="#eb4b1a"/><stop offset=".281" stop-color="#e74818"/><stop offset=".573" stop-color="#da4011"/><stop offset=".868" stop-color="#c63306"/><stop offset="1" stop-color="#ba2b00"/></radialGradient><polygon fill="url(#HU98~CqYf25o4ONemqmWHo)" points="24.607,9.864 23.402,9.864 19.785,14.927 19.785,17.459 28.224,17.459 28.224,14.927"/><linearGradient id="HU98~CqYf25o4ONemqmWHp" x1="18.093" x2="29.907" y1="17.037" y2="17.037" gradientUnits="userSpaceOnUse"><stop offset="0" stop-color="#73706c"/><stop offset=".045" stop-color="#868481"/><stop offset=".137" stop-color="#a9a8a6"/><stop offset=".23" stop-color="#c5c4c3"/><stop offset=".322" stop-color="#d8d8d7"/><stop offset=".413" stop-color="#e4e4e4"/><stop offset=".5" stop-color="#e8e8e8"/><stop offset=".587" stop-color="#e4e4e4"/><stop offset=".678" stop-color="#d8d8d7"/><stop offset=".77" stop-color="#c5c4c3"/><stop offset=".863" stop-color="#a9a8a6"/><stop offset=".955" stop-color="#868481"/><stop offset="1" stop-color="#73706c"/></linearGradient><polygon fill="url(#HU98~CqYf25o4ONemqmWHp)" points="27.375,14.927 27.375,17.459 25.266,17.459 25.266,14.927 22.734,14.927 22.734,17.459 20.625,17.459 20.625,14.927 18.093,14.927 18.093,17.459 18.093,19.147 29.907,19.147 29.907,17.459 29.907,14.927"/></svg>