<svg xmlns="http://www.w3.org/2000/svg" xmlns:xlink="http://www.w3.org/1999/xlink" viewBox="0 0 48 48"><defs><radialGradient id="ulLd~GrotburgOYgto5vma" cx="8.941" cy="10.922" r="45.016" gradientUnits="userSpaceOnUse"><stop offset="0" stop-color="#ffd95d"/><stop offset="1" stop-color="#fab03a"/></radialGradient><linearGradient id="ulLd~GrotburgOYgto5vmg" x1="5.186" x2="29.263" y1="19.778" y2="27.11" xlink:href="#ulLd~GrotburgOYgto5vma"/><radialGradient id="ulLd~GrotburgOYgto5vmh" cx="8.925" cy="15.911" r="42.361" xlink:href="#ulLd~GrotburgOYgto5vma"/><radialGradient id="ulLd~GrotburgOYgto5vmb" cx="27.587" cy="22.757" r="117.282" gradientUnits="userSpaceOnUse"><stop offset="0" stop-color="#ffad45"/><stop offset="1" stop-color="#d66f04"/></radialGradient><linearGradient id="ulLd~GrotburgOYgto5vmi" x1="47.185" x2="46.525" y1="21.846" y2="27.824" gradientUnits="userSpaceOnUse"><stop offset="0" stop-color="#ffd374"/><stop offset="1" stop-color="#ffb569"/></linearGradient><linearGradient id="ulLd~GrotburgOYgto5vmj" x1=".679" x2="1.682" y1="21.6" y2="28.884" gradientUnits="userSpaceOnUse"><stop offset="0" stop-color="#ffe999"/><stop offset="1" stop-color="#ffbc59"/></linearGradient><linearGradient id="ulLd~GrotburgOYgto5vmk" x1="21.057" x2="26.473" y1="8.234" y2="31.749" gradientUnits="userSpaceOnUse"><stop offset="0" stop-color="#ffe06f"/><stop offset="1" stop-color="#fab03a"/></linearGradient><linearGradient id="ulLd~GrotburgOYgto5vml" x1="26.405" x2="21.068" y1="13.073" y2="11.131" xlink:href="#ulLd~GrotburgOYgto5vmb"/><linearGradient id="ulLd~GrotburgOYgto5vmm" x1="42.435" x2="35.759" y1="22.233" y2="19.803" xlink:href="#ulLd~GrotburgOYgto5vmb"/><linearGradient id="ulLd~GrotburgOYgto5vmn" x1="32.326" x2="25.647" y1="16.396" y2="13.965" xlink:href="#ulLd~GrotburgOYgto5vmb"/><linearGradient id="ulLd~GrotburgOYgto5vmo" x1="37.377" x2="30.703" y1="19.311" y2="16.882" xlink:href="#ulLd~GrotburgOYgto5vmb"/><linearGradient id="ulLd~GrotburgOYgto5vmp" x1="12.151" x2="5.476" y1="22.26" y2="19.831" xlink:href="#ulLd~GrotburgOYgto5vmb"/><linearGradient id="ulLd~GrotburgOYgto5vmq" x1="27.213" x2="20.54" y1="31.072" y2="28.643" xlink:href="#ulLd~GrotburgOYgto5vmb"/><linearGradient id="ulLd~GrotburgOYgto5vmr" x1="17.107" x2="10.433" y1="25.236" y2="22.807" xlink:href="#ulLd~GrotburgOYgto5vmb"/><linearGradient id="ulLd~GrotburgOYgto5vms" x1="22.163" x2="15.484" y1="28.153" y2="25.722" xlink:href="#ulLd~GrotburgOYgto5vmb"/><linearGradient id="ulLd~GrotburgOYgto5vmt" x1="17.228" x2="10.551" y1="19.312" y2="16.882" xlink:href="#ulLd~GrotburgOYgto5vmb"/><linearGradient id="ulLd~GrotburgOYgto5vmu" x1="32.29" x2="25.615" y1="28.124" y2="25.695" xlink:href="#ulLd~GrotburgOYgto5vmb"/><linearGradient id="ulLd~GrotburgOYgto5vmv" x1="22.18" x2="15.51" y1="22.286" y2="19.858" xlink:href="#ulLd~GrotburgOYgto5vmb"/><linearGradient id="ulLd~GrotburgOYgto5vmw" x1="27.233" x2="20.562" y1="25.206" y2="22.778" xlink:href="#ulLd~GrotburgOYgto5vmb"/><linearGradient id="ulLd~GrotburgOYgto5vmx" x1="22.298" x2="15.618" y1="16.366" y2="13.935" xlink:href="#ulLd~GrotburgOYgto5vmb"/><linearGradient id="ulLd~GrotburgOYgto5vmy" x1="37.36" x2="30.686" y1="25.178" y2="22.749" xlink:href="#ulLd~GrotburgOYgto5vmb"/><linearGradient id="ulLd~GrotburgOYgto5vmz" x1="27.254" x2="20.576" y1="19.344" y2="16.913" xlink:href="#ulLd~GrotburgOYgto5vmb"/><linearGradient id="ulLd~GrotburgOYgto5vmA" x1="32.31" x2="25.629" y1="22.263" y2="19.831" xlink:href="#ulLd~GrotburgOYgto5vmb"/><linearGradient id="ulLd~GrotburgOYgto5vmc" x1="25.19" x2="22.577" y1="14.111" y2="11.919" gradientUnits="userSpaceOnUse"><stop offset="0" stop-color="#ffa94d"/><stop offset="1" stop-color="#cc6800"/></linearGradient><linearGradient id="ulLd~GrotburgOYgto5vmB" x1="40.731" x2="37.461" y1="23.321" y2="20.577" xlink:href="#ulLd~GrotburgOYgto5vmc"/><linearGradient id="ulLd~GrotburgOYgto5vmC" x1="30.613" x2="27.352" y1="17.48" y2="14.744" xlink:href="#ulLd~GrotburgOYgto5vmc"/><linearGradient id="ulLd~GrotburgOYgto5vmD" x1="35.674" x2="32.413" y1="20.399" y2="17.662" xlink:href="#ulLd~GrotburgOYgto5vmc"/><linearGradient id="ulLd~GrotburgOYgto5vmE" x1="10.166" x2="7.973" y1="23.11" y2="21.27" xlink:href="#ulLd~GrotburgOYgto5vmc"/><linearGradient id="ulLd~GrotburgOYgto5vmF" x1="25.506" x2="22.245" y1="32.149" y2="29.413" xlink:href="#ulLd~GrotburgOYgto5vmc"/><linearGradient id="ulLd~GrotburgOYgto5vmG" x1="15.401" x2="12.14" y1="26.313" y2="23.577" xlink:href="#ulLd~GrotburgOYgto5vmc"/><linearGradient id="ulLd~GrotburgOYgto5vmH" x1="20.461" x2="17.2" y1="29.231" y2="26.495" xlink:href="#ulLd~GrotburgOYgto5vmc"/><linearGradient id="ulLd~GrotburgOYgto5vmI" x1="15.522" x2="12.252" y1="20.403" y2="17.659" xlink:href="#ulLd~GrotburgOYgto5vmc"/><linearGradient id="ulLd~GrotburgOYgto5vmJ" x1="30.591" x2="27.312" y1="29.208" y2="26.456" xlink:href="#ulLd~GrotburgOYgto5vmc"/><linearGradient id="ulLd~GrotburgOYgto5vmK" x1="20.478" x2="17.2" y1="23.378" y2="20.628" xlink:href="#ulLd~GrotburgOYgto5vmc"/><linearGradient id="ulLd~GrotburgOYgto5vmL" x1="25.538" x2="22.26" y1="26.297" y2="23.546" xlink:href="#ulLd~GrotburgOYgto5vmc"/><linearGradient id="ulLd~GrotburgOYgto5vmM" x1="20.586" x2="17.325" y1="17.449" y2="14.713" xlink:href="#ulLd~GrotburgOYgto5vmc"/><linearGradient id="ulLd~GrotburgOYgto5vmN" x1="35.659" x2="32.381" y1="26.266" y2="23.515" xlink:href="#ulLd~GrotburgOYgto5vmc"/><linearGradient id="ulLd~GrotburgOYgto5vmO" x1="25.554" x2="22.276" y1="20.429" y2="17.679" xlink:href="#ulLd~GrotburgOYgto5vmc"/><linearGradient id="ulLd~GrotburgOYgto5vmP" x1="30.607" x2="27.328" y1="23.356" y2="20.604" xlink:href="#ulLd~GrotburgOYgto5vmc"/><linearGradient id="ulLd~GrotburgOYgto5vmQ" x1="24.045" x2="24.194" y1="35.66" y2="40.131" gradientUnits="userSpaceOnUse"><stop offset="0" stop-color="#ffc65f"/><stop offset="1" stop-color="#ffba36"/></linearGradient><linearGradient id="ulLd~GrotburgOYgto5vmR" x1="22.528" x2="27.012" y1="14.69" y2="34.16" gradientUnits="userSpaceOnUse"><stop offset="0" stop-color="#ffe999"/><stop offset="1" stop-color="#ffc363"/></linearGradient><linearGradient id="ulLd~GrotburgOYgto5vmS" x1="-1.782" x2="40.823" y1="30.316" y2="31.108" gradientUnits="userSpaceOnUse"><stop offset="0" stop-color="#ffdd83"/><stop offset=".289" stop-color="#ffd47a"/><stop offset=".526" stop-color="#ffc046"/><stop offset="1" stop-color="#ffc870"/></linearGradient><radialGradient id="ulLd~GrotburgOYgto5vmT" cx="24.094" cy="19.194" r="15.059" gradientTransform="rotate(87.166 25.716 20.738) scale(1 1.161)" gradientUnits="userSpaceOnUse"><stop offset="0" stop-color="#c23e02"/><stop offset=".102" stop-color="#cd4d08"/><stop offset=".334" stop-color="#e36b14"/><stop offset=".564" stop-color="#f2801d"/><stop offset=".789" stop-color="#fc8d22"/><stop offset="1" stop-color="#ff9124"/></radialGradient><radialGradient id="ulLd~GrotburgOYgto5vme" cx="31.792" cy="31.788" r="4.201" gradientUnits="userSpaceOnUse"><stop offset="0" stop-color="#e9600f"/><stop offset="1" stop-color="#ff7816"/></radialGradient><radialGradient id="ulLd~GrotburgOYgto5vmf" cx="23.742" cy="21.392" r="7.768" gradientUnits="userSpaceOnUse"><stop offset="0" stop-color="#ffaf3b"/><stop offset=".227" stop-color="#ffaf3e"/><stop offset="1" stop-color="#ffaf42"/></radialGradient><linearGradient id="ulLd~GrotburgOYgto5vmU" x1="22.564" x2="25.58" y1="21.601" y2="17.791" gradientUnits="userSpaceOnUse"><stop offset="0" stop-color="#fdc955" stop-opacity="0"/><stop offset="1" stop-color="#fdc955"/></linearGradient><linearGradient id="ulLd~GrotburgOYgto5vmV" x1="22.804" x2="25.391" y1="21.795" y2="17.605" gradientUnits="userSpaceOnUse"><stop offset="0" stop-color="#fff6b4" stop-opacity="0"/><stop offset="1" stop-color="#ffe271"/></linearGradient><linearGradient id="ulLd~GrotburgOYgto5vmd" x1="23.697" x2="23.946" y1="24.471" y2="19.758" gradientUnits="userSpaceOnUse"><stop offset="0" stop-color="#fff9bf" stop-opacity="0"/><stop offset="1" stop-color="#fff9bf"/></linearGradient><linearGradient id="ulLd~GrotburgOYgto5vmW" x1="24.191" x2="24.459" y1="19.521" y2="17.163" xlink:href="#ulLd~GrotburgOYgto5vmd"/><linearGradient id="ulLd~GrotburgOYgto5vmX" x1="25.286" x2="25.139" y1="23.685" y2="21.936" gradientUnits="userSpaceOnUse"><stop offset="0" stop-color="#fae27d" stop-opacity="0"/><stop offset="1" stop-color="#ffe270"/></linearGradient><radialGradient id="ulLd~GrotburgOYgto5vmY" cx="23.039" cy="28.214" r="6.719" xlink:href="#ulLd~GrotburgOYgto5vme"/><radialGradient id="ulLd~GrotburgOYgto5vmZ" cx="19.792" cy="31.103" r="2.523" xlink:href="#ulLd~GrotburgOYgto5vmf"/><radialGradient id="ulLd~GrotburgOYgto5vmaa" cx="31.725" cy="29.304" r="2.166" xlink:href="#ulLd~GrotburgOYgto5vmf"/><radialGradient id="ulLd~GrotburgOYgto5vmab" cx="21.421" cy="22.874" r="4.17" gradientUnits="userSpaceOnUse"><stop offset="0" stop-color="#f0a537"/><stop offset=".417" stop-color="#f8aa3d"/><stop offset="1" stop-color="#fcad41"/></radialGradient><radialGradient id="ulLd~GrotburgOYgto5vmac" cx="28.454" cy="24.557" r="3.666" gradientUnits="userSpaceOnUse"><stop offset="0" stop-color="#f2b55f"/><stop offset=".258" stop-color="#f6b252"/><stop offset=".64" stop-color="#fbae45"/><stop offset="1" stop-color="#fcad41"/></radialGradient></defs><g data-name="Waffle"><path fill="url(#ulLd~GrotburgOYgto5vma)" d="M47.626,22.508,46.8,20.722c.2.559-.078,1.165-.838,1.6L26.282,33.777a4.9,4.9,0,0,1-4.409,0L2.051,22.337c-.823-.481-1.087-1.164-.776-1.754H1.259L.374,22.508a3.572,3.572,0,0,0-.341,1.417c.343.2.86.518,1.5.917-.621-.381-1.135-.7-1.5-.917a3.356,3.356,0,0,0,.326,1.5L1.2,27.289l.109.217a2.2,2.2,0,0,0,.745.714L21.873,39.66a4.851,4.851,0,0,0,4.409-.015L45.965,28.2a1.746,1.746,0,0,0,.853-.946l.823-1.832a1.662,1.662,0,0,0,.13-.423L47.783,25A3.236,3.236,0,0,0,47.626,22.508Z"/><path fill="url(#ulLd~GrotburgOYgto5vmg)" d="M48,24.06C45.2,25.659,26.065,36.618,25.63,36.773a4.7,4.7,0,0,1-1.614.264,4.157,4.157,0,0,1-1.584-.3c-.419-.171-19.108-11.176-22.4-13.1a2.979,2.979,0,0,1,.342-1.133l.884-1.925h.016c-.311.59-.047,1.273.776,1.754l19.822,11.44a4.9,4.9,0,0,0,4.409,0L45.965,22.321c.76-.434,1.04-1.04.838-1.6l.822,1.786A3.051,3.051,0,0,1,48,24.06Z"/><path fill="url(#ulLd~GrotburgOYgto5vmh)" d="M47.876,24.37a3.47,3.47,0,0,1-.235,1.056l-.823,1.832a1.746,1.746,0,0,1-.853.946L26.282,39.645a4.851,4.851,0,0,1-4.409.015L2.051,28.22a2.2,2.2,0,0,1-.745-.714L1.2,27.289.359,25.426a3.356,3.356,0,0,1-.326-1.5c3.617,2.2,21.546,13.267,22.1,13.515a5.259,5.259,0,0,0,1.879.373,5.2,5.2,0,0,0,1.878-.326C26.468,37.254,44.492,26.388,47.876,24.37Z"/><path fill="url(#ulLd~GrotburgOYgto5vmb)" d="M47.082,26.668l-.264.59a1.746,1.746,0,0,1-.853.946L26.282,39.645a4.851,4.851,0,0,1-4.409.015L2.051,28.22a2.2,2.2,0,0,1-.745-.714L1.2,27.289l-.279-.637L21.641,38.6a5.318,5.318,0,0,0,4.905-.016Z"/><path fill="url(#ulLd~GrotburgOYgto5vmi)" d="M47.641,25.426l-.823,1.832a1.746,1.746,0,0,1-.853.946l-.218.125a1.626,1.626,0,0,0,.233-.466l.994-2.22a3.733,3.733,0,0,0,0-3.523l-.715-1.568.451-.047.915,2A3.086,3.086,0,0,1,47.641,25.426Z"/><path fill="url(#ulLd~GrotburgOYgto5vmj)" d="M1.937,28.14a3.044,3.044,0,0,1-.631-.634L1.2,27.289.359,25.426a3.086,3.086,0,0,1,.016-2.918l.884-1.925.365.358L.917,22.2a3.712,3.712,0,0,0-.055,3.515Z"/><path fill="url(#ulLd~GrotburgOYgto5vmk)" d="M45.959,19.787,26.138,8.344a4.839,4.839,0,0,0-4.387,0L2.059,19.788a1.345,1.345,0,0,0,0,2.546L21.885,33.778a4.839,4.839,0,0,0,4.4-.006L45.973,22.328a1.343,1.343,0,0,0-.014-2.541"/><path fill="url(#ulLd~GrotburgOYgto5vmk)" d="M10.493,24.657c-.615-.355-.618-.915-.007-1.27l2.186-1.271a2.412,2.412,0,0,1,2.193,0l2.2,1.271a.672.672,0,0,1,.007,1.27l-2.186,1.27a2.409,2.409,0,0,1-2.193,0l-2.2-1.27m5.054,2.918c-.614-.355-.617-.915-.007-1.27l2.186-1.27a2.409,2.409,0,0,1,2.193,0l2.2,1.27a.672.672,0,0,1,.007,1.27l-2.185,1.27a2.406,2.406,0,0,1-2.193,0l-2.2-1.27M20.6,30.493c-.615-.354-.618-.915-.007-1.27l2.186-1.27a2.409,2.409,0,0,1,2.193,0l2.2,1.27a.672.672,0,0,1,.007,1.27L25,31.764a2.412,2.412,0,0,1-2.193,0l-2.2-1.271M5.537,21.682c-.615-.355-.618-.916-.007-1.271l2.186-1.27a2.409,2.409,0,0,1,2.193,0l2.2,1.27a.673.673,0,0,1,.007,1.271L9.93,22.952a2.409,2.409,0,0,1-2.193,0l-2.2-1.27m10.027.028a.67.67,0,0,1-.007-1.27l2.185-1.27a2.411,2.411,0,0,1,2.194,0l2.2,1.27a.672.672,0,0,1,.007,1.27l-2.186,1.27a2.428,2.428,0,0,1-2.193,0l-2.2-1.27m5.054,2.918a.67.67,0,0,1-.007-1.27l2.186-1.27a2.409,2.409,0,0,1,2.193,0l2.2,1.27a.672.672,0,0,1,.007,1.27L25.011,25.9a2.428,2.428,0,0,1-2.193,0l-2.2-1.271m5.055,2.919a.671.671,0,0,1-.007-1.271l2.185-1.27a2.409,2.409,0,0,1,2.193,0l2.2,1.27a.673.673,0,0,1,.007,1.271l-2.186,1.27a2.428,2.428,0,0,1-2.193,0l-2.2-1.27M10.608,18.735a.67.67,0,0,1-.007-1.27l2.186-1.271a2.391,2.391,0,0,1,2.193,0l2.2,1.27a.671.671,0,0,1,.007,1.271L15,20.005a2.428,2.428,0,0,1-2.193,0l-2.2-1.27m10.027.028a.67.67,0,0,1-.008-1.27l2.186-1.27a2.391,2.391,0,0,1,2.193,0l2.2,1.27a.67.67,0,0,1,.007,1.27l-2.186,1.271a2.428,2.428,0,0,1-2.193,0l-2.2-1.271m5.054,2.919a.671.671,0,0,1-.007-1.271l2.186-1.27a2.391,2.391,0,0,1,2.193,0l2.2,1.27a.671.671,0,0,1,.007,1.271l-2.186,1.27a2.428,2.428,0,0,1-2.193,0l-2.2-1.27M30.743,24.6a.671.671,0,0,1-.007-1.271l2.186-1.27a2.391,2.391,0,0,1,2.193,0l2.2,1.27a.671.671,0,0,1,.008,1.271l-2.186,1.27a2.428,2.428,0,0,1-2.193,0l-2.2-1.27M15.679,15.788a.67.67,0,0,1-.008-1.27l2.186-1.271a2.4,2.4,0,0,1,2.193,0l2.2,1.271a.67.67,0,0,1,.007,1.27l-2.186,1.27a2.428,2.428,0,0,1-2.193,0l-2.2-1.27m10.026.028a.671.671,0,0,1-.007-1.27l2.186-1.27a2.391,2.391,0,0,1,2.193,0l2.2,1.27c.6.349.618.916.007,1.27L30.1,17.087a2.428,2.428,0,0,1-2.193,0l-2.2-1.271m5.055,2.919a.671.671,0,0,1-.007-1.271l2.186-1.27a2.391,2.391,0,0,1,2.193,0l2.2,1.27a.671.671,0,0,1,.007,1.271l-2.186,1.27a2.428,2.428,0,0,1-2.193,0l-2.2-1.27m5.054,2.918a.671.671,0,0,1-.007-1.27l2.186-1.271a2.4,2.4,0,0,1,2.193,0l2.2,1.271c.6.349.618.915.007,1.27l-2.185,1.27a2.43,2.43,0,0,1-2.194,0l-2.2-1.27M20.749,12.841l-.079-.057a.659.659,0,0,1,.062-1.219l2.186-1.27a2.412,2.412,0,0,1,2.2.006l2.2,1.27c.575.332.608.852.086,1.213l-.078.057-2.186,1.27a2.428,2.428,0,0,1-2.193,0l-2.2-1.27m25.21,6.946L26.138,8.344a4.839,4.839,0,0,0-4.387,0L2.059,19.788a1.345,1.345,0,0,0,0,2.546L21.885,33.778a4.839,4.839,0,0,0,4.4-.006L45.973,22.328a1.343,1.343,0,0,0-.014-2.541"/><path fill="url(#ulLd~GrotburgOYgto5vml)" d="M27.4,12.79l-.078.047-.512.295-1.677.978a2.369,2.369,0,0,1-2.188,0l-1.708-.978-.5-.295-.077-.047a.662.662,0,0,1,.062-1.226l2.188-1.273a2.4,2.4,0,0,1,2.2.016l2.2,1.257C27.9,11.906,27.927,12.418,27.4,12.79Z"/><path fill="url(#ulLd~GrotburgOYgto5vmm)" d="M42.394,21.654l-.512.3-1.676.978a2.5,2.5,0,0,1-2.205,0l-1.691-.978-.5-.3a.673.673,0,0,1-.016-1.273l2.189-1.273a2.371,2.371,0,0,1,2.189,0l2.2,1.273C42.984,20.738,43,21.3,42.394,21.654Z"/><path fill="url(#ulLd~GrotburgOYgto5vmn)" d="M32.274,15.817l-.513.295-1.676.978a2.463,2.463,0,0,1-2.189,0L26.2,16.112l-.512-.295a.673.673,0,0,1,0-1.273l2.189-1.272a2.369,2.369,0,0,1,2.188,0l2.205,1.272C32.879,14.9,32.894,15.46,32.274,15.817Z"/><path fill="url(#ulLd~GrotburgOYgto5vmo)" d="M37.334,18.736l-.512.295-1.677.977a2.461,2.461,0,0,1-2.188,0l-1.692-.977-.513-.295c-.62-.357-.605-.916,0-1.273l2.174-1.273a2.4,2.4,0,0,1,2.2,0l2.189,1.273C37.924,17.82,37.939,18.379,37.334,18.736Z"/><path fill="url(#ulLd~GrotburgOYgto5vmp)" d="M12.11,21.685l-.5.3-1.692.978a2.47,2.47,0,0,1-2.189,0L6.025,21.98l-.5-.3c-.6-.357-.621-.916,0-1.273l2.189-1.273a2.417,2.417,0,0,1,2.188,0l2.205,1.273A.676.676,0,0,1,12.11,21.685Z"/><path fill="url(#ulLd~GrotburgOYgto5vmq)" d="M27.167,30.486l-.513.295-1.66.978a2.4,2.4,0,0,1-2.2,0L21.1,30.781l-.5-.295c-.621-.341-.621-.916-.016-1.257l2.189-1.273a2.369,2.369,0,0,1,2.188,0l2.205,1.273A.662.662,0,0,1,27.167,30.486Z"/><path fill="url(#ulLd~GrotburgOYgto5vmr)" d="M17.061,24.65l-.512.3-1.676.978a2.371,2.371,0,0,1-2.189,0l-1.692-.978-.512-.3a.662.662,0,0,1,0-1.258l2.189-1.272a2.369,2.369,0,0,1,2.188,0l2.2,1.272A.662.662,0,0,1,17.061,24.65Z"/><path fill="url(#ulLd~GrotburgOYgto5vms)" d="M22.122,27.568l-.513.295-1.676.978a2.371,2.371,0,0,1-2.189,0l-1.692-.978-.512-.295c-.621-.342-.621-.916,0-1.257l2.173-1.273a2.4,2.4,0,0,1,2.2,0l2.188,1.273C22.712,26.652,22.727,27.226,22.122,27.568Z"/><path fill="url(#ulLd~GrotburgOYgto5vmt)" d="M17.186,18.736l-.513.295L15,20.008a2.463,2.463,0,0,1-2.189,0L11.1,19.031l-.5-.295a.673.673,0,0,1-.016-1.273l2.189-1.273a2.371,2.371,0,0,1,2.189,0l2.2,1.273C17.775,17.82,17.791,18.379,17.186,18.736Z"/><path fill="url(#ulLd~GrotburgOYgto5vmu)" d="M32.243,27.552l-.5.28-1.692.978a2.371,2.371,0,0,1-2.189,0l-1.707-.978-.5-.28c-.605-.357-.605-.931,0-1.272l2.189-1.273a2.369,2.369,0,0,1,2.188,0l2.205,1.273C32.848,26.621,32.848,27.2,32.243,27.552Z"/><path fill="url(#ulLd~GrotburgOYgto5vmv)" d="M22.137,21.716l-.512.295-1.676.962a2.371,2.371,0,0,1-2.189,0L16.052,22l-.5-.279a.673.673,0,0,1,0-1.273l2.173-1.273a2.4,2.4,0,0,1,2.2,0l2.189,1.273A.673.673,0,0,1,22.137,21.716Z"/><path fill="url(#ulLd~GrotburgOYgto5vmw)" d="M27.2,24.634l-.513.295-1.676.963a2.4,2.4,0,0,1-2.2,0l-1.692-.978-.5-.28a.673.673,0,0,1-.015-1.273l2.188-1.273a2.371,2.371,0,0,1,2.189,0l2.2,1.273A.676.676,0,0,1,27.2,24.634Z"/><path fill="url(#ulLd~GrotburgOYgto5vmx)" d="M22.246,15.786l-.512.295-1.661.978a2.5,2.5,0,0,1-2.2,0l-1.692-.978-.513-.295a.673.673,0,0,1,0-1.273l2.189-1.272a2.463,2.463,0,0,1,2.189,0l2.2,1.272C22.851,14.87,22.867,15.429,22.246,15.786Z"/><path fill="url(#ulLd~GrotburgOYgto5vmy)" d="M37.319,24.6l-.513.295-1.676.978a2.463,2.463,0,0,1-2.189,0l-1.707-.993-.5-.28a.67.67,0,0,1,0-1.273l2.173-1.273a2.4,2.4,0,0,1,2.2,0L37.3,23.33A.673.673,0,0,1,37.319,24.6Z"/><path fill="url(#ulLd~GrotburgOYgto5vmz)" d="M27.213,18.767l-.512.3-1.676.977a2.463,2.463,0,0,1-2.189,0l-1.708-.993-.5-.279a.673.673,0,0,1-.016-1.273l2.189-1.273a2.371,2.371,0,0,1,2.189,0l2.2,1.273A.673.673,0,0,1,27.213,18.767Z"/><path fill="url(#ulLd~GrotburgOYgto5vmA)" d="M32.258,21.685l-.5.3-1.692.978a2.468,2.468,0,0,1-2.188,0l-1.708-.978-.5-.3a.673.673,0,0,1,0-1.273l2.188-1.273a2.371,2.371,0,0,1,2.189,0l2.2,1.273A.67.67,0,0,1,32.258,21.685Z"/><path fill="url(#ulLd~GrotburgOYgto5vmc)" d="M26.81,13.132l-1.677.978a2.369,2.369,0,0,1-2.188,0l-1.708-.978,1.676-.978a2.4,2.4,0,0,1,2.2,0Z"/><path fill="url(#ulLd~GrotburgOYgto5vmB)" d="M41.882,21.949l-1.676.978a2.5,2.5,0,0,1-2.205,0l-1.691-.978,1.676-.978a2.371,2.371,0,0,1,2.189,0Z"/><path fill="url(#ulLd~GrotburgOYgto5vmC)" d="M31.761,16.112l-1.676.978a2.463,2.463,0,0,1-2.189,0L26.2,16.112l1.677-.978a2.369,2.369,0,0,1,2.188,0Z"/><path fill="url(#ulLd~GrotburgOYgto5vmD)" d="M36.822,19.031l-1.677.977a2.461,2.461,0,0,1-2.188,0l-1.692-.977,1.661-.978a2.4,2.4,0,0,1,2.2,0Z"/><path fill="url(#ulLd~GrotburgOYgto5vmE)" d="M11.613,21.98l-1.692.978a2.47,2.47,0,0,1-2.189,0L6.025,21.98,7.717,21A2.369,2.369,0,0,1,9.9,21Z"/><path fill="url(#ulLd~GrotburgOYgto5vmF)" d="M26.654,30.781l-1.66.978a2.4,2.4,0,0,1-2.2,0L21.1,30.781l1.677-.978a2.417,2.417,0,0,1,2.188,0Z"/><path fill="url(#ulLd~GrotburgOYgto5vmG)" d="M16.549,24.945l-1.676.978a2.371,2.371,0,0,1-2.189,0l-1.692-.978,1.677-.978a2.414,2.414,0,0,1,2.188,0Z"/><path fill="url(#ulLd~GrotburgOYgto5vmH)" d="M21.609,27.863l-1.676.978a2.371,2.371,0,0,1-2.189,0l-1.692-.978,1.661-.978a2.45,2.45,0,0,1,2.2,0Z"/><path fill="url(#ulLd~GrotburgOYgto5vmI)" d="M16.673,19.031,15,20.008a2.463,2.463,0,0,1-2.189,0L11.1,19.031l1.676-.978a2.371,2.371,0,0,1,2.189,0Z"/><path fill="url(#ulLd~GrotburgOYgto5vmJ)" d="M31.746,27.832l-1.692.978a2.371,2.371,0,0,1-2.189,0l-1.707-.978,1.692-.978a2.461,2.461,0,0,1,2.188,0Z"/><path fill="url(#ulLd~GrotburgOYgto5vmK)" d="M21.625,22.011l-1.676.962a2.371,2.371,0,0,1-2.189,0L16.052,22l1.677-.978a2.5,2.5,0,0,1,2.2,0Z"/><path fill="url(#ulLd~GrotburgOYgto5vmL)" d="M26.685,24.929l-1.676.963a2.4,2.4,0,0,1-2.2,0l-1.692-.978,1.676-.978a2.463,2.463,0,0,1,2.189,0Z"/><path fill="url(#ulLd~GrotburgOYgto5vmM)" d="M21.734,16.081l-1.661.978a2.5,2.5,0,0,1-2.2,0l-1.692-.978,1.676-.978a2.371,2.371,0,0,1,2.189,0Z"/><path fill="url(#ulLd~GrotburgOYgto5vmN)" d="M36.806,24.9l-1.676.978a2.463,2.463,0,0,1-2.189,0l-1.707-.993,1.676-.963a2.4,2.4,0,0,1,2.2,0Z"/><path fill="url(#ulLd~GrotburgOYgto5vmO)" d="M26.7,19.062l-1.676.977a2.463,2.463,0,0,1-2.189,0l-1.708-.993,1.677-.962a2.371,2.371,0,0,1,2.189,0Z"/><path fill="url(#ulLd~GrotburgOYgto5vmP)" d="M31.761,21.98l-1.692.978a2.468,2.468,0,0,1-2.188,0l-1.708-.978L27.865,21a2.371,2.371,0,0,1,2.189,0Z"/><polygon fill="url(#ulLd~GrotburgOYgto5vmQ)" points="24.582 34.302 24.213 40.178 23.877 40.178 23.418 34.302 24.582 34.302"/><path fill="url(#ulLd~GrotburgOYgto5vmR)" d="M2.052,19.787a1.508,1.508,0,0,0-.784,1.395,1.8,1.8,0,0,0,1.1,1.149l3.1,1.734,6.194,3.466,6.172,3.506L20.917,32.8c.5.271,1.056.637,1.511.827a4.387,4.387,0,0,0,1.592.291,4.522,4.522,0,0,0,1.6-.255,13.95,13.95,0,0,0,1.505-.811l3.077-1.767,6.162-3.523,6.184-3.484,3.092-1.742a1.8,1.8,0,0,0,1.1-1.152,1.51,1.51,0,0,0-.791-1.392,1.522,1.522,0,0,1,1.018,1.42,1.994,1.994,0,0,1-1.166,1.4L42.76,24.43l-6.089,3.648-6.112,3.61-3.059,1.8a13.934,13.934,0,0,1-1.609.882,5.331,5.331,0,0,1-1.878.321,5.142,5.142,0,0,1-1.873-.366c-.631-.283-1.056-.593-1.593-.888l-3.064-1.79-6.122-3.592-6.1-3.631-3.05-1.815a2,2,0,0,1-1.17-1.395A1.518,1.518,0,0,1,2.052,19.787Z"/><path fill="url(#ulLd~GrotburgOYgto5vmS)" d="M.538,23.938s21.435,12.615,21.89,12.805a4.366,4.366,0,0,0,1.592.291,4.522,4.522,0,0,0,1.6-.255C26.092,36.6,47.53,24.334,47.53,24.334c.513-.265.433,0,.16.275,0,0-21.164,12.622-21.8,12.88a5.331,5.331,0,0,1-1.878.321,5.142,5.142,0,0,1-1.873-.366C21.509,37.161.379,24.213.379,24.213-.121,23.937.025,23.675.538,23.938Z"/><path style="mix-blend-mode:soft-light" fill="#42372c" d="M20.716,21.938c.084.448.46,2.557-.025,3.212a.784.784,0,0,1-.1.109,6.376,6.376,0,0,0,.025-2.982,1.5,1.5,0,0,1,.278-1.43l.109.085-.145.145A1.336,1.336,0,0,0,20.716,21.938Z" opacity=".7"/><path fill="url(#ulLd~GrotburgOYgto5vmT)" d="M32.9,30.022a1.918,1.918,0,0,1-1.176,1.854l-.073.012a1.073,1.073,0,0,1-.254.036c-.473,0-.388-.46-.449-.957-.048-.339-.036-.727-.06-1.091v-.194c0-.024-.012-.048-.012-.072a.207.207,0,0,0-.012-.085c0-.025,0-.049-.013-.061a1.322,1.322,0,0,0-.06-.327.919.919,0,0,0-.194-.352,1.254,1.254,0,0,0-.121-.121c-.012-.012-.024-.012-.037-.036-.036-.024-.072-.049-.121-.085a.95.95,0,0,0-.194-.1,1.15,1.15,0,0,0-.218-.085,1,1,0,0,0-.182-.048,1.281,1.281,0,0,0-.315-.049,3.479,3.479,0,0,0-.375-.024,2.558,2.558,0,0,0-.3.012c-.073,0-.134.012-.194.012a.5.5,0,0,0-.061.012.272.272,0,0,0-.1.012,1.5,1.5,0,0,0-.315.037,1.892,1.892,0,0,1-.521,0c-.012-.012-.012-.012-.024-.012a6.334,6.334,0,0,1-1.83-.861l-.885-.569a1.367,1.367,0,0,0-1.539-.037,5.82,5.82,0,0,0-2.436,1.673,2.361,2.361,0,0,0-.412,1.03,2.308,2.308,0,0,0-.049.315c-.133,1.951-.073,4.084-.569,4.424-.17.121-.4.036-.728-.328-1.284-1.454-.145-2.811-.133-4.29a6.764,6.764,0,0,1,.024-.7,6.768,6.768,0,0,1,.061-.872,2.912,2.912,0,0,1,1.042-2.024,1.714,1.714,0,0,0,.521-.812h.012a6.376,6.376,0,0,0,.025-2.982,1.5,1.5,0,0,1,.278-1.43c1.406-1.806,6.545-2.145,6.375-.751C27.054,21.805,30,21.974,30.3,23.4a3.164,3.164,0,0,1,.1.788c0,.024.012.037.012.061-.06,1.539,1.539,2.012,2.048,2.739V27a.759.759,0,0,1,.146.376c.024.278.1.7.157,1.187A9.658,9.658,0,0,1,32.9,30.022Z"/><path fill="url(#ulLd~GrotburgOYgto5vme)" d="M31.647,31.888a1.073,1.073,0,0,1-.254.036c-.473,0-.388-.46-.449-.957-.048-.339-.036-.727-.06-1.091v-.194c0-.024-.012-.048-.012-.072a.207.207,0,0,0-.012-.085c0-.025,0-.049-.013-.061a1.322,1.322,0,0,0-.06-.327.919.919,0,0,0-.194-.352,1.254,1.254,0,0,0-.121-.121c-.012-.012-.024-.012-.037-.036-.036-.024-.072-.049-.121-.085a.95.95,0,0,0-.194-.1,1.15,1.15,0,0,0-.218-.085,1,1,0,0,0-.182-.048,2.308,2.308,0,0,0-.315-.049,3.479,3.479,0,0,0-.375-.024,3.731,3.731,0,0,1,1.151.085,1.032,1.032,0,0,1,.691.448,1.659,1.659,0,0,1,.169.558,19.967,19.967,0,0,1,.1,2.036C31.2,31.791,31.175,31.924,31.647,31.888Z"/><path fill="url(#ulLd~GrotburgOYgto5vmf)" d="M21.069,21.546s1.428,2.938,1.915,2.887,4.221-.744,4.6-1.862-1.8-.3-1.8-.3Z" opacity=".7"/><path fill="url(#ulLd~GrotburgOYgto5vmU)" d="M20.943,18.723c-.032-.841,3.63-1.64,4.287-1.2s2.239,2.46,2.182,2.979-4.248,1.8-4.538,1.339S20.982,19.734,20.943,18.723Z"/><path fill="#fedf78" d="M20.77,20.64c-.034-.886,3.824-1.728,4.516-1.267s2.36,2.591,2.3,3.138-4.476,1.9-4.781,1.411S20.81,21.705,20.77,20.64Z"/><path fill="#fee079" d="M20.778,20.548c-.034-.883,3.815-1.723,4.505-1.263s2.355,2.585,2.294,3.13-4.465,1.9-4.77,1.408S20.818,21.611,20.778,20.548Z"/><path fill="#fee07a" d="M20.786,20.457c-.034-.881,3.806-1.719,4.495-1.261s2.348,2.579,2.288,3.124-4.455,1.891-4.758,1.4S20.827,21.517,20.786,20.457Z"/><path fill="#fee17b" d="M20.794,20.366c-.033-.879,3.8-1.715,4.484-1.258s2.343,2.573,2.282,3.116-4.443,1.886-4.746,1.4S20.835,21.423,20.794,20.366Z"/><path fill="#fee27c" d="M20.8,20.275c-.034-.878,3.787-1.711,4.472-1.255s2.337,2.566,2.277,3.108-4.432,1.882-4.735,1.4S20.843,21.33,20.8,20.275Z"/><path fill="#fee37d" d="M20.811,20.183c-.033-.875,3.778-1.706,4.462-1.251s2.331,2.56,2.271,3.1-4.422,1.877-4.723,1.394S20.851,21.236,20.811,20.183Z"/><path fill="#fee37f" d="M20.819,20.092c-.033-.873,3.769-1.7,4.451-1.249S27.6,21.4,27.535,21.936s-4.41,1.873-4.711,1.391S20.859,21.142,20.819,20.092Z"/><path fill="#fee480" d="M20.827,20c-.033-.871,3.76-1.7,4.44-1.246s2.32,2.548,2.26,3.085-4.4,1.869-4.7,1.387S20.867,21.048,20.827,20Z"/><path fill="#fee581" d="M20.836,19.909c-.033-.868,3.75-1.694,4.429-1.242s2.314,2.541,2.254,3.078-4.389,1.863-4.688,1.383S20.876,20.954,20.836,19.909Z"/><path fill="#fee582" d="M20.844,19.818c-.033-.866,3.741-1.69,4.418-1.239s2.308,2.535,2.249,3.07-4.378,1.859-4.677,1.38S20.884,20.86,20.844,19.818Z"/><path fill="#fee683" d="M20.852,19.727c-.033-.864,3.732-1.686,4.407-1.236s2.3,2.528,2.243,3.062-4.367,1.854-4.665,1.377S20.892,20.766,20.852,19.727Z"/><path fill="#ffe784" d="M20.861,19.636c-.033-.863,3.722-1.682,4.4-1.234s2.3,2.523,2.237,3.055-4.356,1.85-4.653,1.373S20.9,20.672,20.861,19.636Z"/><path fill="#ffe885" d="M20.869,19.544c-.033-.86,3.713-1.677,4.385-1.23s2.291,2.516,2.232,3.047-4.346,1.845-4.642,1.37S20.908,20.579,20.869,19.544Z"/><path fill="#ffe886" d="M20.877,19.453c-.033-.858,3.7-1.673,4.374-1.227s2.286,2.51,2.227,3.04-4.335,1.84-4.631,1.366S20.916,20.485,20.877,19.453Z"/><path fill="#ffe987" d="M20.885,19.362c-.032-.856,3.695-1.669,4.363-1.224s2.28,2.5,2.221,3.032-4.323,1.836-4.618,1.363S20.925,20.391,20.885,19.362Z"/><path fill="#ffea88" d="M20.894,19.27c-.033-.853,3.685-1.664,4.352-1.22s2.274,2.5,2.215,3.024-4.313,1.831-4.607,1.359S20.933,20.3,20.894,19.27Z"/><path fill="#ffea8a" d="M20.9,19.179c-.033-.851,3.676-1.66,4.341-1.218s2.269,2.491,2.21,3.017-4.3,1.827-4.6,1.356S20.941,20.2,20.9,19.179Z"/><path fill="#ffeb8b" d="M20.91,19.088c-.032-.849,3.667-1.657,4.33-1.215s2.263,2.485,2.205,3.009-4.292,1.822-4.584,1.353S20.949,20.109,20.91,19.088Z"/><path fill="#ffec8c" d="M20.918,19c-.032-.847,3.658-1.653,4.32-1.212s2.257,2.478,2.2,3-4.28,1.818-4.572,1.35S20.957,20.015,20.918,19Z"/><path fill="#ffed8d" d="M20.927,18.905c-.033-.845,3.648-1.648,4.308-1.208s2.251,2.472,2.193,2.994-4.27,1.812-4.561,1.346S20.965,19.922,20.927,18.905Z"/><path fill="#ffed8e" d="M20.935,18.814c-.032-.843,3.639-1.644,4.3-1.2s2.246,2.465,2.188,2.986-4.259,1.808-4.549,1.342S20.974,19.828,20.935,18.814Z"/><path fill="#ffee8f" d="M20.943,18.723c-.032-.841,3.63-1.64,4.287-1.2s2.239,2.46,2.182,2.979-4.248,1.8-4.538,1.339S20.982,19.734,20.943,18.723Z"/><path fill="url(#ulLd~GrotburgOYgto5vmV)" d="M20.943,18.723c-.032-.841,3.63-1.64,4.287-1.2s2.239,2.46,2.182,2.979-4.248,1.8-4.538,1.339S20.982,19.734,20.943,18.723Z"/><path fill="url(#ulLd~GrotburgOYgto5vmd)" d="M26.724,21.065c-1.04.109-1.922.222-2.941.424a2.864,2.864,0,0,1-.807.088,2.67,2.67,0,0,1-.614-.585l-1.248-1.518h0a10.53,10.53,0,0,0,.99,1.912c.2.279.561.638.643.8a17.341,17.341,0,0,1,.2,1.812l.046,0a13.162,13.162,0,0,1,.293-1.8c.1-.105,2.442-.68,3.443-1.145Z"/><path fill="url(#ulLd~GrotburgOYgto5vmW)" d="M27.356,20.223a10.343,10.343,0,0,0-2.319-2.474c-.834-.359-3.968.691-3.968.691.649-.734,3.579-1.309,4.163-.921a8.625,8.625,0,0,1,2.114,2.675A.058.058,0,0,0,27.356,20.223Z"/><path fill="url(#ulLd~GrotburgOYgto5vmX)" d="M27.473,22.654a9.693,9.693,0,0,1-4.485,1.354c.01-.086.056-.4.056-.4a7.987,7.987,0,0,1,.241-1.4c.093-.1,2.374-.662,3.394-1.122.018,0,.027-.015.046-.015a2.028,2.028,0,0,1,.631-.129,13.79,13.79,0,0,1,.139,1.539A.947.947,0,0,1,27.473,22.654Z"/><path fill="url(#ulLd~GrotburgOYgto5vmY)" d="M27.515,28.313a6.533,6.533,0,0,1-1.9-.745l-.814-.685a1.367,1.367,0,0,0-1.539-.037c-1.673.776-2.788,1.455-2.9,3.018-.133,1.951-.073,4.084-.569,4.424a29.045,29.045,0,0,0,.3-4.048,3.626,3.626,0,0,1,2.217-3.2c1.261-.691,1.867-.788,2.267-.594s2.557,1.818,2.908,1.855C27.5,28.3,27.5,28.3,27.515,28.313Z"/><path fill="url(#ulLd~GrotburgOYgto5vmZ)" d="M18.765,32.774c0-.317.175-.575.4-.575s.265.4.265.721.035.8-.2.8S18.765,33.288,18.765,32.774Z"/><path fill="url(#ulLd~GrotburgOYgto5vmaa)" d="M32.58,30.458a1.192,1.192,0,0,1-.735,1.033c-.232,0-.117-.569-.117-1.063s.016-.864.249-.864S32.58,29.964,32.58,30.458Z"/><path fill="url(#ulLd~GrotburgOYgto5vmab)" d="M20.16,27.018s.5-.928.954-1.759a4.516,4.516,0,0,0,.117-2.521c-.044-.46,1.3,1.839.915,2.618C21.553,26.549,20.3,26.786,20.16,27.018Z" opacity=".5"/><path fill="url(#ulLd~GrotburgOYgto5vmac)" d="M29.911,24.888c.4.371.461,1.489,1.647,1.9,0,0-.8.437-1.277-.117S28.828,24.962,29.1,24.6,29.507,24.518,29.911,24.888Z" opacity=".4"/></g></svg>