<svg xmlns="http://www.w3.org/2000/svg" xmlns:xlink="http://www.w3.org/1999/xlink" viewBox="0 0 48 48"><defs><linearGradient id="xdMt8r9_OjfezcTfIuUgZb" x1="40.496" x2="-16.781" y1="4.438" y2="69.459" gradientUnits="userSpaceOnUse"><stop offset=".03" stop-color="#eef0f3"/><stop offset=".047" stop-color="#eef0f3"/><stop offset=".145" stop-color="#eef0f3"/><stop offset=".149" stop-color="#ebeef1"/><stop offset=".201" stop-color="#ccd0d6"/><stop offset=".258" stop-color="#b1b7be"/><stop offset=".324" stop-color="#9ba3ab"/><stop offset=".401" stop-color="#8a939d"/><stop offset=".496" stop-color="#7f8893"/><stop offset=".629" stop-color="#78828d"/><stop offset="1" stop-color="#76808b"/></linearGradient><linearGradient id="xdMt8r9_OjfezcTfIuUgZc" x1="17.036" x2="13.844" y1="2.628" y2="27.394" gradientUnits="userSpaceOnUse"><stop offset=".106" stop-color="#eef0f3"/><stop offset=".493" stop-color="#eef0f3"/><stop offset=".636" stop-color="#c3c8ce"/><stop offset=".797" stop-color="#99a1aa"/><stop offset=".924" stop-color="#808993"/><stop offset="1" stop-color="#76808b"/></linearGradient><linearGradient id="xdMt8r9_OjfezcTfIuUgZd" x1="27.201" x2="31.602" y1="34.238" y2="31.113" gradientUnits="userSpaceOnUse"><stop offset="0" stop-color="#c9ced4"/><stop offset=".016" stop-color="#d1d6db"/><stop offset=".044" stop-color="#d8dce0"/><stop offset=".123" stop-color="#dadee2"/><stop offset=".195" stop-color="#dfe2e6"/><stop offset=".279" stop-color="#edeff2"/><stop offset=".282" stop-color="#eef0f3"/><stop offset=".392" stop-color="#ebedf0"/><stop offset=".473" stop-color="#e2e5e8"/><stop offset=".511" stop-color="#dadee2"/><stop offset=".615" stop-color="#d2d6db"/><stop offset=".759" stop-color="#bec3cb"/><stop offset="1" stop-color="#7f8894"/></linearGradient><linearGradient id="xdMt8r9_OjfezcTfIuUgZe" x1="20.318" x2="11.637" y1="2.057" y2="22.769" gradientUnits="userSpaceOnUse"><stop offset=".106" stop-color="#eef0f3"/><stop offset=".542" stop-color="#e5e8eb"/><stop offset=".648" stop-color="#c4c9cf"/><stop offset=".805" stop-color="#9aa2aa"/><stop offset=".927" stop-color="#808993"/><stop offset="1" stop-color="#76808b"/></linearGradient><radialGradient id="xdMt8r9_OjfezcTfIuUgZf" cx="17.511" cy="12.235" r="14.88" gradientTransform="rotate(52.485 15.88 11.431) scale(1 .869)" gradientUnits="userSpaceOnUse"><stop offset=".315" stop-color="#eef0f3"/><stop offset=".427" stop-color="#e6e9ed"/><stop offset=".595" stop-color="#d1d5db"/><stop offset=".717" stop-color="#bec3cb"/><stop offset=".902" stop-color="#7f8894"/></radialGradient><radialGradient id="xdMt8r9_OjfezcTfIuUgZg" cx="10.234" cy="2.489" r="22.342" gradientTransform="matrix(-.83424 .5514 -.23876 -.36123 19.366 -2.254)" gradientUnits="userSpaceOnUse"><stop offset=".07" stop-color="#a6adba"/><stop offset=".138" stop-color="#a6adba" stop-opacity=".87"/><stop offset=".293" stop-color="#a6adba" stop-opacity=".607"/><stop offset=".447" stop-color="#a6adba" stop-opacity=".389"/><stop offset=".597" stop-color="#a6adba" stop-opacity=".219"/><stop offset=".741" stop-color="#a6adba" stop-opacity=".098"/><stop offset=".878" stop-color="#a6adba" stop-opacity=".025"/><stop offset="1" stop-color="#a6adba" stop-opacity="0"/></radialGradient><radialGradient id="xdMt8r9_OjfezcTfIuUgZh" cx="21.504" cy="9.805" r="12.676" gradientTransform="rotate(-34.595 24.278 24.595)" gradientUnits="userSpaceOnUse"><stop offset=".117" stop-color="#f5f6f7"/><stop offset=".553" stop-color="#f5f6f7" stop-opacity="0"/></radialGradient><radialGradient id="xdMt8r9_OjfezcTfIuUgZi" cx="22.761" cy="19.735" r="18.872" gradientTransform="rotate(-34.595 24.278 24.595)" gradientUnits="userSpaceOnUse"><stop offset="0" stop-color="#eaebeb"/><stop offset=".052" stop-color="#eaebeb" stop-opacity=".965"/><stop offset=".135" stop-color="#ebeced" stop-opacity=".869"/><stop offset=".237" stop-color="#edeeee" stop-opacity=".713"/><stop offset=".354" stop-color="#f0f1f1" stop-opacity=".496"/><stop offset=".483" stop-color="#f3f4f4" stop-opacity=".222"/><stop offset=".578" stop-color="#f5f6f7" stop-opacity="0"/></radialGradient><radialGradient id="xdMt8r9_OjfezcTfIuUgZa" cx="2.84" cy="9.713" r="24.458" gradientTransform="matrix(.575 .818 -.437 .307 5.455 4.403)" gradientUnits="userSpaceOnUse"><stop offset="0" stop-color="#7f8894"/><stop offset=".01" stop-color="#808995" stop-opacity=".97"/><stop offset=".106" stop-color="#8c95a1" stop-opacity=".713"/><stop offset=".209" stop-color="#969eaa" stop-opacity=".492"/><stop offset=".319" stop-color="#9fa6b2" stop-opacity=".312"/><stop offset=".439" stop-color="#a5acb8" stop-opacity=".173"/><stop offset=".575" stop-color="#aab1bd" stop-opacity=".075"/><stop offset=".737" stop-color="#acb3bf" stop-opacity=".017"/><stop offset="1" stop-color="#adb4c0" stop-opacity="0"/></radialGradient><radialGradient id="xdMt8r9_OjfezcTfIuUgZj" cx="20.234" cy="22.351" r="15.93" gradientTransform="rotate(1.825 -285.056 17.477) scale(1 .565)" xlink:href="#xdMt8r9_OjfezcTfIuUgZa"/><linearGradient id="xdMt8r9_OjfezcTfIuUgZk" x1="8.305" x2="12.504" y1="52.432" y2="52.432" gradientTransform="rotate(-34.1 -15.113 11.956)" gradientUnits="userSpaceOnUse"><stop offset="0" stop-color="#dadee2"/><stop offset=".135" stop-color="#e8ebef"/><stop offset=".271" stop-color="#f2f4f7"/><stop offset=".511" stop-color="#dadee2"/><stop offset=".615" stop-color="#d2d6db"/><stop offset=".759" stop-color="#bec3cb"/><stop offset="1" stop-color="#7f8894"/></linearGradient><radialGradient id="xdMt8r9_OjfezcTfIuUgZl" cx="23.792" cy="20.177" r="37.121" gradientTransform="rotate(-34.595 24.278 24.595)" gradientUnits="userSpaceOnUse"><stop offset="0" stop-color="#adb4c0"/><stop offset=".124" stop-color="#e0e3e7" stop-opacity=".29"/><stop offset=".179" stop-color="#f5f6f7" stop-opacity="0"/></radialGradient><radialGradient id="xdMt8r9_OjfezcTfIuUgZm" cx="34.753" cy="41.702" r="5.089" gradientTransform="matrix(.73374 -.67943 .48443 .52316 -10.956 43.489)" gradientUnits="userSpaceOnUse"><stop offset="0" stop-color="#b6bbc3" stop-opacity="0"/><stop offset=".161" stop-color="#b3b8c1" stop-opacity=".033"/><stop offset=".321" stop-color="#abb0b9" stop-opacity=".133"/><stop offset=".481" stop-color="#9da3ad" stop-opacity=".3"/><stop offset=".641" stop-color="#89909b" stop-opacity=".533"/><stop offset=".8" stop-color="#6f7885" stop-opacity=".831"/><stop offset=".877" stop-color="#616a78"/><stop offset="1" stop-color="#616a78"/></radialGradient><radialGradient id="xdMt8r9_OjfezcTfIuUgZn" cx="13.883" cy="7.169" r="11.449" gradientTransform="matrix(.289 .957 -.791 .239 15.541 -7.834)" gradientUnits="userSpaceOnUse"><stop offset="0" stop-color="#fff"/><stop offset=".041" stop-color="#fff" stop-opacity=".948"/><stop offset=".316" stop-color="#fff" stop-opacity=".616"/><stop offset=".559" stop-color="#fff" stop-opacity=".352"/><stop offset=".76" stop-color="#fff" stop-opacity=".161"/><stop offset=".914" stop-color="#fff" stop-opacity=".044"/><stop offset="1" stop-color="#fff" stop-opacity="0"/></radialGradient><linearGradient id="xdMt8r9_OjfezcTfIuUgZo" x1="21.17" x2="22.59" y1="20.297" y2="22.548" gradientUnits="userSpaceOnUse"><stop offset="0" stop-color="#c7ccd3"/><stop offset=".304" stop-color="#c7ccd3" stop-opacity=".99"/><stop offset=".448" stop-color="#c7ccd3" stop-opacity=".954"/><stop offset=".559" stop-color="#c7ccd3" stop-opacity=".893"/><stop offset=".653" stop-color="#c7ccd3" stop-opacity=".805"/><stop offset=".736" stop-color="#c7ccd3" stop-opacity=".692"/><stop offset=".811" stop-color="#c7ccd3" stop-opacity=".552"/><stop offset=".881" stop-color="#c7cbd3" stop-opacity=".385"/><stop offset=".944" stop-color="#c7cbd3" stop-opacity=".198"/><stop offset="1" stop-color="#c7cbd3" stop-opacity="0"/></linearGradient><linearGradient id="xdMt8r9_OjfezcTfIuUgZp" x1="21.255" x2="23.763" y1="20.415" y2="24.001" gradientUnits="userSpaceOnUse"><stop offset="0" stop-color="#7f8894" stop-opacity="0"/><stop offset=".041" stop-color="#7f8894" stop-opacity=".211"/><stop offset=".096" stop-color="#7f8894" stop-opacity=".452"/><stop offset=".155" stop-color="#7f8894" stop-opacity=".651"/><stop offset=".217" stop-color="#7f8894" stop-opacity=".806"/><stop offset=".284" stop-color="#7f8894" stop-opacity=".915"/><stop offset=".359" stop-color="#7f8894" stop-opacity=".98"/><stop offset=".458" stop-color="#7f8894"/><stop offset=".529" stop-color="#7f8894" stop-opacity=".958"/><stop offset=".625" stop-color="#7f8894" stop-opacity=".841"/><stop offset=".736" stop-color="#7f8894" stop-opacity=".648"/><stop offset=".857" stop-color="#7f8894" stop-opacity=".38"/><stop offset=".986" stop-color="#7f8894" stop-opacity=".039"/><stop offset="1" stop-color="#7f8894" stop-opacity="0"/></linearGradient></defs><g data-name="Spoon"><path fill="url(#xdMt8r9_OjfezcTfIuUgZb)" d="M37.535,43.847a3,3,0,0,1-3.495.071,9.128,9.128,0,0,1-2.485-2.551c-.167-.241-.438-.663-.765-1.2-.6-1.017-1.5-2.557-2.393-4.245L27.53,34.3c-1.77-3.32-2.839-5.326-5.154-8.934l-1.552-2.437a1.86,1.86,0,0,0-1.4-.833,11.748,11.748,0,0,1-8.931-4.848C7.1,12.337,6.4,5.67,9.642,3.431s9.228.787,12.618,5.7a11.774,11.774,0,0,1,1.269,10.158,1.868,1.868,0,0,0,.281,1.649c2.619,3.44,5.569,7.019,9.281,11.264,1.149,1.286,2.334,2.725,3.252,3.945.379.489.688.905.875,1.176a9.246,9.246,0,0,1,1.589,3.334,2.955,2.955,0,0,1-1.267,3.184Z"/><path fill="url(#xdMt8r9_OjfezcTfIuUgZc)" d="M21.993,9.317A11.389,11.389,0,0,1,23.224,19.2a2.346,2.346,0,0,0,.021,1.344L20.7,22.3a2.242,2.242,0,0,0-1.242-.526,11.361,11.361,0,0,1-8.7-4.705C7.456,12.3,6.714,5.838,9.824,3.692S18.7,4.541,21.993,9.317Z"/><path fill="url(#xdMt8r9_OjfezcTfIuUgZd)" d="M37.36,43.58a2.722,2.722,0,0,1-3.16.07,6.869,6.869,0,0,1-1.38-1.18,13.508,13.508,0,0,1-1-1.29A13.106,13.106,0,0,1,31.07,40c-.63-1.04-1.51-2.56-2.39-4.22-2.35-4.38-3.36-6.41-6.04-10.58l-.1-.16-.01-.01-1.01-1.59-.43-.67a1.994,1.994,0,0,0-.39-.47l.04-.03,2.51-1.73a1.762,1.762,0,0,0,.31.59c.1.12.19.25.3.38.05.07.08.12.1.14.37.48.74.96,1.13,1.44,0,.01.01.02.02.03.02.03.05.06.07.09,2.45,3.14,5.04,6.19,7.67,9.2,1.29,1.45,2.45,2.9,3.24,3.94.38.47.67.89.86,1.16a8.8,8.8,0,0,1,1.54,3.21A2.64,2.64,0,0,1,37.36,43.58Z"/><path fill="url(#xdMt8r9_OjfezcTfIuUgZe)" d="M22.66,20.5l-1.8,1.239-.09-.058a3.006,3.006,0,0,0-1.284-.266c-3.76-.357-6.6-1.887-8.434-4.55a6.22,6.22,0,0,1-.342-.534C7.692,11.6,7.372,5.836,10.036,4c2.779-1.917,8.333.718,11.651,5.529a9.789,9.789,0,0,1,1.473,3.244,10.71,10.71,0,0,1,.222,3.614l-.007.075a12.783,12.783,0,0,1-.192,1.267c-.083.45-.188.9-.322,1.368a3.617,3.617,0,0,0-.219,1.3Zm-1.965.967,1.777-1.226a3.217,3.217,0,0,1,.081-1.222c.132-.465.235-.9.315-1.347a11.744,11.744,0,0,0,.188-1.24L23,16.344l.074-.057a10.449,10.449,0,0,0-.221-3.441A9.487,9.487,0,0,0,21.424,9.71C18.2,5.037,12.859,2.44,10.218,4.262c-2.529,1.745-2.169,7.305.772,11.9a5.961,5.961,0,0,0,.331.515,10.618,10.618,0,0,0,8.2,4.413A2.774,2.774,0,0,1,20.7,21.462Z" opacity=".5"/><path fill="url(#xdMt8r9_OjfezcTfIuUgZf)" d="M22.92,19.97a4.362,4.362,0,0,0,.33.57L20.7,22.3a1.715,1.715,0,0,0-.52-.71,2.348,2.348,0,0,0-.25-.19,1.424,1.424,0,0,0-.25-.12c-.03-.01-.06-.01-.09-.02s-.04-.01-.06-.01H19.5a10.785,10.785,0,0,1-8.31-4.48,4.125,4.125,0,0,1-.33-.52C7.88,11.6,7.51,5.94,10.13,4.13c2.7-1.87,8.16.75,11.43,5.49a9.87,9.87,0,0,1,1.45,3.19,10.731,10.731,0,0,1,.21,3.56v.01a12.717,12.717,0,0,1-.19,1.32c-.09.44-.19.89-.32,1.35a1.108,1.108,0,0,0-.02.19c0,.04.01.09.01.13A2.426,2.426,0,0,0,22.92,19.97Z"/><path fill="url(#xdMt8r9_OjfezcTfIuUgZg)" d="M21.555,9.619a9.583,9.583,0,0,1,1.45,3.19,10.65,10.65,0,0,1,.219,3.561.011.011,0,0,0,0,.015,12.448,12.448,0,0,1-.2,1.311c-.081.444-.187.891-.318,1.357a3.013,3.013,0,0,0-.063,1.259L20.7,21.654a2.59,2.59,0,0,0-1.2-.4,10.778,10.778,0,0,1-8.315-4.48,5.9,5.9,0,0,1-.333-.521C7.882,11.6,7.506,5.938,10.127,4.131,12.834,2.263,18.285,4.879,21.555,9.619Z"/><path fill="url(#xdMt8r9_OjfezcTfIuUgZh)" d="M21.555,9.619a9.583,9.583,0,0,1,1.45,3.19,10.65,10.65,0,0,1,.219,3.561.011.011,0,0,0,0,.015,12.448,12.448,0,0,1-.2,1.311c-.081.444-.187.891-.318,1.357a3.013,3.013,0,0,0-.063,1.259L20.7,21.654a2.59,2.59,0,0,0-1.2-.4,10.778,10.778,0,0,1-8.315-4.48,5.9,5.9,0,0,1-.333-.521C7.882,11.6,7.506,5.938,10.127,4.131,12.834,2.263,18.285,4.879,21.555,9.619Z"/><path fill="url(#xdMt8r9_OjfezcTfIuUgZi)" d="M21.555,9.619a9.583,9.583,0,0,1,1.45,3.19,10.65,10.65,0,0,1,.219,3.561.011.011,0,0,0,0,.015,12.448,12.448,0,0,1-.2,1.311c-.081.444-.187.891-.318,1.357a1.9,1.9,0,0,0,.537,1.492L20.7,22.3c0-.473-.754-1.018-1.191-1.053a10.778,10.778,0,0,1-8.315-4.48,5.9,5.9,0,0,1-.333-.521C7.882,11.6,7.506,5.938,10.127,4.131,12.834,2.263,18.285,4.879,21.555,9.619Z"/><path fill="url(#xdMt8r9_OjfezcTfIuUgZa)" d="M19.5,21.25a10.785,10.785,0,0,1-8.31-4.48,4.125,4.125,0,0,1-.33-.52C7.88,11.6,7.51,5.94,10.13,4.13a3.767,3.767,0,0,1,2.18-.61c-1.76,2.31-1.16,7.25,1.48,11.39.1.18.22.35.33.52C15.93,18.05,19.94,21.28,19.5,21.25Z"/><path fill="url(#xdMt8r9_OjfezcTfIuUgZj)" d="M19.5,21.25a10.785,10.785,0,0,1-8.31-4.48,4.125,4.125,0,0,1-.33-.52C7.88,11.6,7.51,5.94,10.13,4.13a3.767,3.767,0,0,1,2.18-.61c-1.76,2.31-1.16,7.25,1.48,11.39.1.18.22.35.33.52C15.93,18.05,19.94,21.28,19.5,21.25Z"/><path fill="url(#xdMt8r9_OjfezcTfIuUgZk)" d="M36.343,39.2a2.761,2.761,0,0,1-.96,1.752,2.817,2.817,0,0,1-1.981.264c-.319-.529-1.145-1.819-1.467-2.371C29,33.877,25.991,28.961,22.84,24.119l-1.5-2.263c.256-.133,1.186-.831,1.451-1l.373.541c3.637,5.163,7.422,10.2,11.269,15.2C34.927,37.223,35.892,38.586,36.343,39.2Z"/><path fill="url(#xdMt8r9_OjfezcTfIuUgZl)" d="M21.555,9.619a9.583,9.583,0,0,1,1.45,3.19,10.65,10.65,0,0,1,.219,3.561.011.011,0,0,0,0,.015,12.448,12.448,0,0,1-.2,1.311c-.081.444-.187.891-.318,1.357a1.988,1.988,0,0,0,.537,1.492L20.7,22.3A1.536,1.536,0,0,0,19.5,21.25a10.778,10.778,0,0,1-8.315-4.48,5.9,5.9,0,0,1-.333-.521C7.882,11.6,7.506,5.938,10.127,4.131,12.834,2.263,18.285,4.879,21.555,9.619Z"/><path fill="url(#xdMt8r9_OjfezcTfIuUgZm)" d="M37.36,43.58a2.722,2.722,0,0,1-3.16.07,6.107,6.107,0,0,1-1.04-.83,4.606,4.606,0,0,0,2.92-.94,5.239,5.239,0,0,0,1.97-2.5,6,6,0,0,1,.44,1.34A2.64,2.64,0,0,1,37.36,43.58Z"/><path fill="url(#xdMt8r9_OjfezcTfIuUgZn)" d="M16.91,16.45a20.248,20.248,0,0,1-.63,5.02,10.817,10.817,0,0,1-5.79-4.22C7.1,12.34,6.4,5.67,9.64,3.43a4.328,4.328,0,0,1,1.85-.69A19.954,19.954,0,0,1,16.91,16.45Z" opacity=".4"/><path fill="url(#xdMt8r9_OjfezcTfIuUgZo)" d="M23.96,21.65l-2.44,1.79a9.368,9.368,0,0,0-.78-1.17,5.505,5.505,0,0,0-.56-.68,2.348,2.348,0,0,0-.25-.19,1.424,1.424,0,0,0-.25-.12c-.03-.01-.06-.01-.09-.02l3.1-2.02c0,.04.01.09.01.13a2.426,2.426,0,0,0,.22.6c.04.08.18.31.33.57.22.34.47.75.61.97C23.91,21.58,23.94,21.63,23.96,21.65Z"/><path fill="url(#xdMt8r9_OjfezcTfIuUgZp)" d="M25.18,23.23l-2.64,1.81-.01-.01-1.01-1.59-.43-.67a1.994,1.994,0,0,0-.39-.47l.04-.03a5.505,5.505,0,0,0-.56-.68,2.348,2.348,0,0,0-.25-.19,1.424,1.424,0,0,0-.25-.12c-.03-.01-.06-.01-.09-.02l3.1-2.02c0,.04.01.09.01.13a2.426,2.426,0,0,0,.22.6c.04.08.18.31.33.57.22.34.47.75.61.97.05.07.08.12.1.14.37.48.74.96,1.13,1.44,0,.01.01.02.02.03A.413.413,0,0,0,25.18,23.23Z" opacity=".7"/></g></svg>