<svg xmlns="http://www.w3.org/2000/svg" xmlns:xlink="http://www.w3.org/1999/xlink" viewBox="0 0 48 48"><defs><linearGradient id="k~oEo8lsKLSWQwhwXe2UNc" x1="17.017" x2="36.875" y1="37.869" y2="2.944" gradientTransform="matrix(-1 0 0 1 47.714 0)" gradientUnits="userSpaceOnUse"><stop offset="0" stop-color="#c25d0f"/><stop offset=".325" stop-color="#d78c43"/><stop offset=".622" stop-color="#e8b06b"/><stop offset=".856" stop-color="#f2c683"/><stop offset="1" stop-color="#f6ce8c"/></linearGradient><linearGradient id="k~oEo8lsKLSWQwhwXe2UNd" x1="23.295" x2="19.454" y1="25.049" y2="17.881" gradientUnits="userSpaceOnUse"><stop offset="0" stop-color="#c95e16"/><stop offset=".258" stop-color="#ce6818"/><stop offset=".688" stop-color="#db811f"/><stop offset="1" stop-color="#e69824"/></linearGradient><linearGradient id="k~oEo8lsKLSWQwhwXe2UNb" x1="20.873" x2="19.695" y1="19.862" y2="17.455" gradientUnits="userSpaceOnUse"><stop offset="0" stop-color="#eda43e"/><stop offset="1" stop-color="#f2b55e"/></linearGradient><radialGradient id="k~oEo8lsKLSWQwhwXe2UNa" cx="25.546" cy="15.613" r="21.549" gradientTransform="matrix(-.845 .535 .146 .23 41.471 -1.651)" gradientUnits="userSpaceOnUse"><stop offset="0" stop-color="#b2ed48"/><stop offset=".401" stop-color="#90d735"/><stop offset=".773" stop-color="#78c828"/><stop offset="1" stop-color="#6fc223"/></radialGradient><radialGradient id="k~oEo8lsKLSWQwhwXe2UNe" cx="23.922" cy="20.734" r="8.545" gradientTransform="matrix(.513 .858 3.717 -2.221 -65.547 46.237)" gradientUnits="userSpaceOnUse"><stop offset="0" stop-color="#d16251"/><stop offset=".344" stop-color="#b75139"/><stop offset=".75" stop-color="#9f4222"/><stop offset="1" stop-color="#963c1a"/></radialGradient><linearGradient id="k~oEo8lsKLSWQwhwXe2UNf" x1="17.359" x2="16.32" y1="27.716" y2="28.624" gradientTransform="matrix(-1 0 0 1 47.714 0)" gradientUnits="userSpaceOnUse"><stop offset="0" stop-color="#e07e6e" stop-opacity="0"/><stop offset=".093" stop-color="#e07e6e" stop-opacity=".04"/><stop offset=".246" stop-color="#e07e6e" stop-opacity=".15"/><stop offset=".439" stop-color="#e07e6e" stop-opacity=".328"/><stop offset=".665" stop-color="#e07e6e" stop-opacity=".576"/><stop offset=".916" stop-color="#e07e6e" stop-opacity=".888"/><stop offset="1" stop-color="#e07e6e"/></linearGradient><radialGradient id="k~oEo8lsKLSWQwhwXe2UNg" cx="24.368" cy="20.403" r="18.809" gradientTransform="matrix(-.847 .531 .072 .115 42.525 5.117)" gradientUnits="userSpaceOnUse"><stop offset="0" stop-color="#e07e6e"/><stop offset=".084" stop-color="#e07e6e" stop-opacity=".888"/><stop offset=".335" stop-color="#e07e6e" stop-opacity=".576"/><stop offset=".561" stop-color="#e07e6e" stop-opacity=".328"/><stop offset=".754" stop-color="#e07e6e" stop-opacity=".15"/><stop offset=".907" stop-color="#e07e6e" stop-opacity=".04"/><stop offset="1" stop-color="#e07e6e" stop-opacity="0"/></radialGradient><radialGradient id="k~oEo8lsKLSWQwhwXe2UNh" cx="21.072" cy="20.104" r="57.657" gradientTransform="matrix(-.863 .505 .027 .045 44.297 8.551)" gradientUnits="userSpaceOnUse"><stop offset="0" stop-color="#ffdb6e"/><stop offset=".408" stop-color="#fcca4b"/><stop offset=".775" stop-color="#fabe33"/><stop offset="1" stop-color="#f9b92a"/></radialGradient><radialGradient id="k~oEo8lsKLSWQwhwXe2UNi" cx="20.823" cy="26.213" r="11.564" gradientTransform="matrix(-1.028 -.016 -.049 .972 49.582 1.067)" xlink:href="#k~oEo8lsKLSWQwhwXe2UNa"/><linearGradient id="k~oEo8lsKLSWQwhwXe2UNj" x1="27.988" x2="24.916" y1="32.063" y2="22.795" xlink:href="#k~oEo8lsKLSWQwhwXe2UNb"/><radialGradient id="k~oEo8lsKLSWQwhwXe2UNk" cx="22.961" cy="25.203" r="17.919" gradientTransform="matrix(-.88 .476 .094 .173 42.588 9.913)" gradientUnits="userSpaceOnUse"><stop offset="0" stop-color="#f9d18a"/><stop offset=".153" stop-color="#f9d18a" stop-opacity=".799"/><stop offset=".384" stop-color="#f9d18a" stop-opacity=".518"/><stop offset=".594" stop-color="#f9d18a" stop-opacity=".295"/><stop offset=".772" stop-color="#f9d18a" stop-opacity=".135"/><stop offset=".914" stop-color="#f9d18a" stop-opacity=".036"/><stop offset="1" stop-color="#f9d18a" stop-opacity="0"/></radialGradient><linearGradient id="k~oEo8lsKLSWQwhwXe2UNl" x1="28.291" x2="31.21" y1="31.759" y2="36.367" gradientUnits="userSpaceOnUse"><stop offset="0" stop-color="#c25d0f" stop-opacity="0"/><stop offset=".101" stop-color="#c25d0f" stop-opacity=".045"/><stop offset=".266" stop-color="#c35d10" stop-opacity=".166"/><stop offset=".474" stop-color="#c55e12" stop-opacity=".364"/><stop offset=".718" stop-color="#c75f13" stop-opacity=".638"/><stop offset=".988" stop-color="#ca6016" stop-opacity=".984"/><stop offset="1" stop-color="#ca6016"/></linearGradient></defs><g data-name="Hot dog"><path fill="url(#k~oEo8lsKLSWQwhwXe2UNc)" d="M7.45,30.124a2.5,2.5,0,0,0,.049.505c.767,4.161,11.209,1.681,15.909-1.044,9.9-5.711,12.156-10.753,12.139-15.762a3.2,3.2,0,0,0-.75-2.4c-.636-.636-1.664-.587-2.9.131L13.34,22.275C10.077,24.152,7.433,27.252,7.45,30.124Z"/><path fill="url(#k~oEo8lsKLSWQwhwXe2UNd)" d="M7.5,30.629c.767,4.161,11.209,1.681,15.909-1.044,9.9-5.711,12.156-10.753,12.139-15.762a3.2,3.2,0,0,0-.75-2.4S16.608,22.845,14.55,23.824,6.67,27.5,7.5,30.629Z"/><path fill="url(#k~oEo8lsKLSWQwhwXe2UNb)" d="M7.5,29.422c.636-2.594,5.254-4.748,7.049-5.6,2.056-.979,20.249-12.4,20.249-12.4-.636-.636-1.664-.587-2.9.131L13.34,22.275C10.338,24.005,7.858,26.762,7.5,29.422Z"/><path fill="url(#k~oEo8lsKLSWQwhwXe2UNa)" d="M33.878,12.332a3.186,3.186,0,0,0-1.589.17c-1.657.626-1.778,2.123-3.525,2.413-.45.074-2,.415-2.436.537-1.259.351-1.547,1.884-2.271,2.972a1.476,1.476,0,0,1-.668.618c-.257.095-.751-.32-1.02-.267-.843.167-1.108,1.364-1.965,1.426a11.779,11.779,0,0,0-1.344.061c-.247.047-.651.522-.845.681-1.083.892.01,1.793-1.361,2.092a15.638,15.638,0,0,0-2.568.308c-.4.255-.61,1.649-1,1.913-.64.432-1.736-.619-2.452-.331-.289.117-.615.793-.76,1.07-1.033,1.977-1.841,5.089-.863,5.694a2.412,2.412,0,0,0,2.21.034,6.8,6.8,0,0,0,1.837-1.365c2.352-2.217,4.635-4.586,7.479-6.122C22,23.551,23.365,23.042,24.6,22.3a23.821,23.821,0,0,0,3.576-2.812l3.464-3.1,1.732-1.55q.432-.389.866-.776a5.418,5.418,0,0,0,.675-.532C35.393,12.908,34.37,12.405,33.878,12.332Z"/><path fill="url(#k~oEo8lsKLSWQwhwXe2UNe)" d="M6.208,33.439A5.716,5.716,0,0,0,11.5,36.064a2.591,2.591,0,0,0,.292-.011c.119-.011.248-.022.378-.043a9.5,9.5,0,0,0,1.523-.357c.669-.2,1.318-.464,1.966-.734.151-.076.313-.152.464-.216a89.333,89.333,0,0,0,16.32-9.721c.735-.54,1.459-1.08,2.171-1.642a58.811,58.811,0,0,0,5.012-4.267c.151-.151.313-.3.465-.453a2.42,2.42,0,0,1,.237-.238c.022-.021.033-.032.033-.043a5.842,5.842,0,0,0,1.922-4.364v-.021A4.024,4.024,0,0,0,40.145,10.5a6.228,6.228,0,0,0-3.6-.367,6.071,6.071,0,0,0-2.322,1.264c-1.2,1.112-2.4,2.225-3.63,3.283a81.955,81.955,0,0,1-8.835,6.6,51.354,51.354,0,0,1-9.753,5.282,22.092,22.092,0,0,0-4.407,1.8A3.956,3.956,0,0,0,6.456,29.4,3.607,3.607,0,0,0,6.208,33.439Z"/><path fill="url(#k~oEo8lsKLSWQwhwXe2UNf)" d="M11.5,36.064a2.591,2.591,0,0,0,.292-.011c.119-.011.248-.022.378-.043a10.5,10.5,0,0,0,1.523-.357c.669-.2,1.318-.464,1.966-.734.151-.065.313-.141.475-.206a88.345,88.345,0,0,0,16.309-9.731c.735-.54,1.459-1.08,2.171-1.642a58.811,58.811,0,0,0,5.012-4.267c.151-.151.313-.3.465-.453l.237-.238c.022-.021.033-.032.033-.043a5.842,5.842,0,0,0,1.922-4.364v-.021a3.165,3.165,0,0,0-.432-1.026c.141,2.117-1.652,3.8-3.067,5.184a70.714,70.714,0,0,1-5.649,4.817A102.586,102.586,0,0,1,12.278,35.718C12.019,35.837,11.759,35.945,11.5,36.064Z"/><path fill="url(#k~oEo8lsKLSWQwhwXe2UNg)" d="M12.269,29.411a5.894,5.894,0,0,0,1.715-.392c5.975-2.168,11.543-6.012,16.532-9.878a31.613,31.613,0,0,0,4.83-4.2c.2-.238.7-.988.169-1.419-1.281-1.045-3.307,1.092-3.769,1.5q-1.422,1.24-2.883,2.435a69.541,69.541,0,0,1-6.1,4.468,63.281,63.281,0,0,1-5.761,3.408,36.855,36.855,0,0,1-3.592,1.512c-.6.226-3.128.792-3,1.611a.972.972,0,0,0,.48.633A2.322,2.322,0,0,0,12.269,29.411Z"/><path fill="url(#k~oEo8lsKLSWQwhwXe2UNh)" d="M36.683,11.248a.9.9,0,0,1,1.02.618,9.662,9.662,0,0,0,.553,1.323,2.039,2.039,0,0,1,.193.74.871.871,0,0,1-.347.764l-.208.144a3.852,3.852,0,0,1-1.487.4c-.779.09-1.631.1-2.337.15a8.364,8.364,0,0,0-.9.091,1.392,1.392,0,0,0-.372.092l-.013.01-.021.012,0,0a.424.424,0,0,0-.059.371,8.711,8.711,0,0,0,.449,1.335,2.092,2.092,0,0,1,.131.752.959.959,0,0,1-.42.758l-.135.09a3.92,3.92,0,0,1-1.571.391c-.81.072-1.682.048-2.419.066-.353.012-.686.036-.914.06a1.213,1.213,0,0,0-.362.086l-.013.01-.01.006-.007,0a.43.43,0,0,0-.1.37,8.623,8.623,0,0,0,.273,1.354,2.29,2.29,0,0,1,.026.752,1.034,1.034,0,0,1-.513.739l-.052.03a3.759,3.759,0,0,1-1.663.361c-.841.042-1.744-.036-2.5-.042a6.615,6.615,0,0,0-.945.018,1.083,1.083,0,0,0-.346.065l-.008.007-.01.005a.482.482,0,0,0-.158.356,8.915,8.915,0,0,0,.044,1.342,1.973,1.973,0,0,1-.077.739,1.167,1.167,0,0,1-.585.71l-.073.042a3.8,3.8,0,0,1-1.725.289c-.852-.012-1.734-.138-2.5-.2a9.585,9.585,0,0,0-.965-.03,1.116,1.116,0,0,0-.385.055l-.01.006a.8.8,0,0,0-.22.366,11.72,11.72,0,0,0-.163,1.294,2.464,2.464,0,0,1-.191.7,1.373,1.373,0,0,1-.6.656l-.218.1a3.967,3.967,0,0,1-1.756.2c-.841-.067-1.7-.241-2.46-.343-.373-.048-.706-.069-.944-.09-.856-.076-1.283-1.022.473-.921.862.05,1.732.235,2.469.337a6.969,6.969,0,0,0,.924.09,1.245,1.245,0,0,0,.343-.03l.02-.012a.72.72,0,0,0,.231-.385,8.105,8.105,0,0,0,.173-1.287,2.417,2.417,0,0,1,.181-.692A1.308,1.308,0,0,1,14,25.826l.146-.072a4.109,4.109,0,0,1,1.735-.271c.862.018,1.744.144,2.5.2a6.785,6.785,0,0,0,.934.036,1.351,1.351,0,0,0,.333-.048l.01-.006a.531.531,0,0,0,.168-.361,6.917,6.917,0,0,0-.054-1.348,2.252,2.252,0,0,1,.076-.74,1.263,1.263,0,0,1,.586-.709,3.875,3.875,0,0,1,1.663-.361c.852-.036,1.745.036,2.513.048a6.615,6.615,0,0,0,.945-.018,1.2,1.2,0,0,0,.354-.072l.006,0a.435.435,0,0,0,.1-.347,7.49,7.49,0,0,0-.262-1.347,1.844,1.844,0,0,1-.048-.752,1.016,1.016,0,0,1,.482-.746l.1-.06a3.879,3.879,0,0,1,1.55-.391c.81-.06,1.672-.042,2.42-.066a7.147,7.147,0,0,0,.914-.06,1.287,1.287,0,0,0,.395-.1l.01-.006h0c.025-.015.087-.129.049-.354a9.582,9.582,0,0,0-.439-1.329,1.9,1.9,0,0,1-.141-.746.944.944,0,0,1,.388-.764l.188-.12a3.81,3.81,0,0,1,1.477-.4c.779-.09,1.62-.1,2.337-.15a4.525,4.525,0,0,0,1.286-.189l.013-.01.021-.012h0c.025-.014.086-.139.029-.354a9.714,9.714,0,0,0-.553-1.323,2.194,2.194,0,0,1-.2-.746S35.967,11.276,36.683,11.248Z"/><path fill="url(#k~oEo8lsKLSWQwhwXe2UNi)" d="M37.588,16.811a.72.72,0,0,0-.365.07c-.207.121-1.645,1.24-1.91,1.377a3.1,3.1,0,0,1-1.535.4c-.905.1-1.908-.189-2.67.3-1,.637-.938,2.215-1.988,2.764a4.517,4.517,0,0,0-.606.293c-.185.134-.3.334-.474.484a2.632,2.632,0,0,1-1.923.314,8.869,8.869,0,0,0-2.91.32,1.44,1.44,0,0,0-.5.217c-.348.269-.375.746-.519,1.145a2.067,2.067,0,0,1-1.609,1.285,2.383,2.383,0,0,0-1.055.233,1.906,1.906,0,0,0-.45.593,2.851,2.851,0,0,1-1.737,1.22,10.525,10.525,0,0,0-1.584.3,2.679,2.679,0,0,0-1.055.851,9.482,9.482,0,0,0-1.544,3.751c-.132.529.717,2.268.584,2.8a10.864,10.864,0,0,0,5.056-.64A25.472,25.472,0,0,0,23.377,31.6,72.534,72.534,0,0,1,33.5,24.9a14.126,14.126,0,0,0,3.58-2.493c.546-.591.972-1.275,1.537-1.851.549-.56,2.352-.111,2.007-1.023a6.574,6.574,0,0,0-1.393-2.06A3.857,3.857,0,0,0,37.588,16.811Z"/><path fill="url(#k~oEo8lsKLSWQwhwXe2UNj)" d="M12.343,36.539a3.352,3.352,0,0,0,1.155,2.6c2.927,2.365,10.639-1.188,14.441-3.77,10.672-7.226,13.469-9.2,13.34-13.847a12.611,12.611,0,0,0-.151-1.825c-.292-2.085-1.567-2.5-2.938-2.268a4.122,4.122,0,0,0-1.383.54L18.251,28.686a12.964,12.964,0,0,0-5.282,5.358A5.2,5.2,0,0,0,12.343,36.539Z"/><path fill="url(#k~oEo8lsKLSWQwhwXe2UNk)" d="M12.965,34.04a6.189,6.189,0,0,0,.848.049A28.745,28.745,0,0,0,25.79,30.711c9.154-5.3,11.781-9.66,12.4-13.282a4.231,4.231,0,0,0-1.387.539L18.252,28.688A13,13,0,0,0,12.965,34.04Z"/><path fill="url(#k~oEo8lsKLSWQwhwXe2UNl)" d="M13.5,39.142c2.927,2.365,10.639-1.188,14.441-3.77,10.672-7.226,13.469-9.2,13.34-13.847C40.857,21.99,31.3,32.37,13.5,39.142Z"/></g></svg>