<svg xmlns="http://www.w3.org/2000/svg" xmlns:xlink="http://www.w3.org/1999/xlink" viewBox="0 0 48 48"><defs><linearGradient id="KzYJZST2lWYyrun8SZvBsi" x1="24.31" x2="23.98" y1="32.299" y2="8.212" gradientUnits="userSpaceOnUse"><stop offset="0" stop-color="#b00d0c"/><stop offset=".29" stop-color="#ba1313"/><stop offset=".783" stop-color="#d52326"/><stop offset="1" stop-color="#e32b30"/></linearGradient><linearGradient id="KzYJZST2lWYyrun8SZvBsf" x1="24.502" x2="24.255" y1="8.715" y2="15.52" gradientUnits="userSpaceOnUse"><stop offset="0" stop-color="#ff5957"/><stop offset=".109" stop-color="#ff5957" stop-opacity=".881"/><stop offset=".554" stop-color="#ff5a58" stop-opacity=".412"/><stop offset=".86" stop-color="#ff5b59" stop-opacity=".116"/><stop offset="1" stop-color="#ff5b59" stop-opacity="0"/></linearGradient><linearGradient id="KzYJZST2lWYyrun8SZvBsh" x1="23.217" x2="32.621" y1="26.806" y2="-43.971" gradientUnits="userSpaceOnUse"><stop offset="0" stop-color="#ff4a4d"/><stop offset=".171" stop-color="#f54345"/><stop offset=".685" stop-color="#dd3332"/><stop offset="1" stop-color="#d42d2b"/></linearGradient><linearGradient id="KzYJZST2lWYyrun8SZvBsa" x1="14.514" x2="14.795" y1="10.227" y2="12.219" gradientTransform="rotate(-37.564 14.471 21.66)" gradientUnits="userSpaceOnUse"><stop offset="0" stop-color="#fcd370"/><stop offset=".211" stop-color="#fccd63"/><stop offset=".7" stop-color="#fcc24b"/><stop offset="1" stop-color="#fcbe42"/></linearGradient><linearGradient id="KzYJZST2lWYyrun8SZvBsb" x1="10.773" x2="13.158" y1="20.629" y2="21.107" gradientTransform="rotate(-37.564 14.471 21.66)" gradientUnits="userSpaceOnUse"><stop offset="0" stop-color="#fcd370"/><stop offset=".268" stop-color="#fcbe42"/><stop offset=".543" stop-color="#fbaa24"/><stop offset=".826" stop-color="#fa9a0c"/><stop offset="1" stop-color="#fa9403"/></linearGradient><linearGradient id="KzYJZST2lWYyrun8SZvBsd" x1="14.606" x2="13.007" y1="21.136" y2="20.883" gradientTransform="rotate(-37.564 14.471 21.66)" gradientUnits="userSpaceOnUse"><stop offset="0" stop-color="#fa9403"/><stop offset=".27" stop-color="#fa9a0c"/><stop offset=".71" stop-color="#fbaa24"/><stop offset="1" stop-color="#fcb738"/></linearGradient><linearGradient id="KzYJZST2lWYyrun8SZvBsj" x1="26.013" x2="26.308" y1="6.553" y2="8.395" gradientTransform="rotate(-8.5 24.372 16.598)" xlink:href="#KzYJZST2lWYyrun8SZvBsa"/><linearGradient id="KzYJZST2lWYyrun8SZvBsk" x1="22.46" x2="24.649" y1="17.716" y2="18.109" gradientTransform="rotate(-8.5 24.372 16.598)" xlink:href="#KzYJZST2lWYyrun8SZvBsb"/><linearGradient id="KzYJZST2lWYyrun8SZvBsc" x1="23.581" x2="26.135" y1="17.758" y2="18.095" gradientTransform="rotate(-8.5 24.372 16.598)" gradientUnits="userSpaceOnUse"><stop offset="0" stop-color="#fcb738"/><stop offset=".29" stop-color="#fbaa24"/><stop offset=".73" stop-color="#fa9a0c"/><stop offset="1" stop-color="#fa9403"/></linearGradient><linearGradient id="KzYJZST2lWYyrun8SZvBsl" x1="14.81" x2="15.589" y1="12.192" y2="13.665" xlink:href="#KzYJZST2lWYyrun8SZvBsa"/><linearGradient id="KzYJZST2lWYyrun8SZvBsm" x1="13.027" x2="16.366" y1="21.467" y2="21.214" xlink:href="#KzYJZST2lWYyrun8SZvBsb"/><linearGradient id="KzYJZST2lWYyrun8SZvBsn" x1="15.86" x2="17.291" y1="21.117" y2="21.004" xlink:href="#KzYJZST2lWYyrun8SZvBsc"/><linearGradient id="KzYJZST2lWYyrun8SZvBso" x1="22.608" x2="26.93" y1="21.638" y2="20.628" xlink:href="#KzYJZST2lWYyrun8SZvBsd"/><linearGradient id="KzYJZST2lWYyrun8SZvBse" x1="20.852" x2="26.52" y1="22.251" y2="21.24" gradientUnits="userSpaceOnUse"><stop offset="0" stop-color="#fcd370"/><stop offset=".011" stop-color="#fcd16d"/><stop offset=".105" stop-color="#fcc755"/><stop offset=".193" stop-color="#fcc047"/><stop offset=".268" stop-color="#fcbe42"/><stop offset=".543" stop-color="#fbaa24"/><stop offset=".826" stop-color="#fa9a0c"/><stop offset="1" stop-color="#fa9403"/></linearGradient><linearGradient id="KzYJZST2lWYyrun8SZvBsp" x1="14.294" x2="19.262" y1="23.62" y2="20.786" xlink:href="#KzYJZST2lWYyrun8SZvBsc"/><linearGradient id="KzYJZST2lWYyrun8SZvBsq" x1="12.118" x2="18.573" y1="24.638" y2="22.674" xlink:href="#KzYJZST2lWYyrun8SZvBse"/><linearGradient id="KzYJZST2lWYyrun8SZvBsr" x1="12.055" x2="13.286" y1="9.141" y2="11.024" gradientTransform="rotate(-4.858 18.837 16.906)" xlink:href="#KzYJZST2lWYyrun8SZvBsa"/><linearGradient id="KzYJZST2lWYyrun8SZvBss" x1="18.552" x2="14.027" y1="18.694" y2="21.704" gradientTransform="rotate(-4.858 18.837 16.906)" xlink:href="#KzYJZST2lWYyrun8SZvBsd"/><linearGradient id="KzYJZST2lWYyrun8SZvBst" x1="12.897" x2="15.676" y1="21.244" y2="20.711" gradientTransform="rotate(-4.858 18.837 16.906)" xlink:href="#KzYJZST2lWYyrun8SZvBsb"/><linearGradient id="KzYJZST2lWYyrun8SZvBsu" x1="16.701" x2="17.438" y1="6.642" y2="8.115" xlink:href="#KzYJZST2lWYyrun8SZvBsa"/><linearGradient id="KzYJZST2lWYyrun8SZvBsv" x1="14.876" x2="18.451" y1="18.637" y2="18.637" xlink:href="#KzYJZST2lWYyrun8SZvBsb"/><linearGradient id="KzYJZST2lWYyrun8SZvBsw" x1="16.921" x2="19.73" y1="18.378" y2="18.378" xlink:href="#KzYJZST2lWYyrun8SZvBsd"/><linearGradient id="KzYJZST2lWYyrun8SZvBsx" x1="18.239" x2="22.056" y1="20.931" y2="21.268" gradientTransform="rotate(-3.62 22.701 16.513)" xlink:href="#KzYJZST2lWYyrun8SZvBsc"/><linearGradient id="KzYJZST2lWYyrun8SZvBsy" x1="16.534" x2="20.266" y1="21.389" y2="21.529" gradientTransform="rotate(-3.62 22.701 16.513)" xlink:href="#KzYJZST2lWYyrun8SZvBse"/><linearGradient id="KzYJZST2lWYyrun8SZvBsz" x1="26.196" x2="26.934" y1="9.646" y2="11.269" gradientTransform="rotate(3.249 27.015 16.843)" xlink:href="#KzYJZST2lWYyrun8SZvBsa"/><linearGradient id="KzYJZST2lWYyrun8SZvBsA" x1="23.28" x2="28.559" y1="22.044" y2="21.784" gradientTransform="rotate(3.249 27.015 16.843)" xlink:href="#KzYJZST2lWYyrun8SZvBsb"/><linearGradient id="KzYJZST2lWYyrun8SZvBsB" x1="27.221" x2="29.075" y1="21.703" y2="21.614" gradientTransform="rotate(3.249 27.015 16.843)" xlink:href="#KzYJZST2lWYyrun8SZvBsd"/><linearGradient id="KzYJZST2lWYyrun8SZvBsC" x1="13.208" x2="16.972" y1="22.519" y2="22.519" gradientTransform="matrix(.793 -.214 .26 .966 -1.012 5.857)" xlink:href="#KzYJZST2lWYyrun8SZvBsc"/><linearGradient id="KzYJZST2lWYyrun8SZvBsD" x1="11.63" x2="15.389" y1="22.858" y2="22.858" gradientTransform="matrix(.793 -.214 .26 .966 -1.012 5.857)" xlink:href="#KzYJZST2lWYyrun8SZvBse"/><linearGradient id="KzYJZST2lWYyrun8SZvBsE" x1="21.178" x2="21.921" y1="5.697" y2="7.184" gradientTransform="rotate(-7.024 24.472 16.32)" xlink:href="#KzYJZST2lWYyrun8SZvBsa"/><linearGradient id="KzYJZST2lWYyrun8SZvBsF" x1="20.61" x2="23.052" y1="18.224" y2="17.972" gradientTransform="rotate(-7.024 24.472 16.32)" xlink:href="#KzYJZST2lWYyrun8SZvBsb"/><linearGradient id="KzYJZST2lWYyrun8SZvBsG" x1="22.372" x2="24.518" y1="17.878" y2="17.583" gradientTransform="rotate(-7.024 24.472 16.32)" xlink:href="#KzYJZST2lWYyrun8SZvBsc"/><linearGradient id="KzYJZST2lWYyrun8SZvBsH" x1="29.036" x2="30.152" y1="6.003" y2="7.203" xlink:href="#KzYJZST2lWYyrun8SZvBsa"/><linearGradient id="KzYJZST2lWYyrun8SZvBsI" x1="30.939" x2="28.603" y1="18.295" y2="18.316" xlink:href="#KzYJZST2lWYyrun8SZvBsd"/><linearGradient id="KzYJZST2lWYyrun8SZvBsJ" x1="25.995" x2="29.236" y1="18.196" y2="18.364" xlink:href="#KzYJZST2lWYyrun8SZvBsb"/><linearGradient id="KzYJZST2lWYyrun8SZvBsK" x1="37.637" x2="38.016" y1="12.302" y2="13.65" gradientTransform="rotate(8.88 34.842 17.942)" xlink:href="#KzYJZST2lWYyrun8SZvBsa"/><linearGradient id="KzYJZST2lWYyrun8SZvBsL" x1="33.298" x2="36.918" y1="20.189" y2="21.073" gradientTransform="rotate(8.88 34.842 17.942)" xlink:href="#KzYJZST2lWYyrun8SZvBsb"/><linearGradient id="KzYJZST2lWYyrun8SZvBsM" x1="35.63" x2="37.776" y1="20.664" y2="21.043" gradientTransform="rotate(8.88 34.842 17.942)" xlink:href="#KzYJZST2lWYyrun8SZvBsc"/><linearGradient id="KzYJZST2lWYyrun8SZvBsN" x1="32.944" x2="36.929" y1="20.768" y2="20.964" gradientTransform="rotate(10.667 32.703 20.048)" xlink:href="#KzYJZST2lWYyrun8SZvBsc"/><linearGradient id="KzYJZST2lWYyrun8SZvBsO" x1="31.433" x2="34.632" y1="20.689" y2="21.334" gradientTransform="rotate(10.667 32.703 20.048)" xlink:href="#KzYJZST2lWYyrun8SZvBse"/><linearGradient id="KzYJZST2lWYyrun8SZvBsP" x1="33.498" x2="33.779" y1="8.087" y2="10.08" gradientTransform="rotate(9.291 33.068 15.151)" xlink:href="#KzYJZST2lWYyrun8SZvBsa"/><linearGradient id="KzYJZST2lWYyrun8SZvBsQ" x1="29.757" x2="32.143" y1="18.49" y2="18.967" gradientTransform="rotate(9.291 33.068 15.151)" xlink:href="#KzYJZST2lWYyrun8SZvBsb"/><linearGradient id="KzYJZST2lWYyrun8SZvBsR" x1="33.59" x2="31.991" y1="18.996" y2="18.743" gradientTransform="rotate(9.291 33.068 15.151)" xlink:href="#KzYJZST2lWYyrun8SZvBsd"/><linearGradient id="KzYJZST2lWYyrun8SZvBsS" x1="29.218" x2="31.9" y1="20.164" y2="20.164" gradientTransform="rotate(4.655 30.45 15.237)" xlink:href="#KzYJZST2lWYyrun8SZvBsc"/><linearGradient id="KzYJZST2lWYyrun8SZvBsT" x1="26.708" x2="30.833" y1="19.969" y2="20.699" gradientTransform="rotate(4.655 30.45 15.237)" xlink:href="#KzYJZST2lWYyrun8SZvBse"/><linearGradient id="KzYJZST2lWYyrun8SZvBsU" x1="17.966" x2="18.745" y1="12.541" y2="14.015" gradientTransform="rotate(-6.747 23.017 18.755)" xlink:href="#KzYJZST2lWYyrun8SZvBsa"/><linearGradient id="KzYJZST2lWYyrun8SZvBsV" x1="16.183" x2="19.523" y1="21.817" y2="21.564" gradientTransform="rotate(-6.747 23.017 18.755)" xlink:href="#KzYJZST2lWYyrun8SZvBsb"/><linearGradient id="KzYJZST2lWYyrun8SZvBsW" x1="19.017" x2="20.448" y1="21.466" y2="21.354" gradientTransform="rotate(-6.747 23.017 18.755)" xlink:href="#KzYJZST2lWYyrun8SZvBsc"/><linearGradient id="KzYJZST2lWYyrun8SZvBsX" x1="33.907" x2="34.201" y1="12.29" y2="14.132" gradientTransform="rotate(4.334 32.627 19.448)" xlink:href="#KzYJZST2lWYyrun8SZvBsa"/><linearGradient id="KzYJZST2lWYyrun8SZvBsY" x1="30.354" x2="32.543" y1="23.452" y2="23.845" gradientTransform="rotate(4.334 32.627 19.448)" xlink:href="#KzYJZST2lWYyrun8SZvBsb"/><linearGradient id="KzYJZST2lWYyrun8SZvBsZ" x1="31.475" x2="34.029" y1="23.495" y2="23.832" gradientTransform="rotate(4.334 32.627 19.448)" xlink:href="#KzYJZST2lWYyrun8SZvBsc"/><linearGradient id="KzYJZST2lWYyrun8SZvBsaa" x1="10.087" x2="11.112" y1="15.896" y2="16.808" xlink:href="#KzYJZST2lWYyrun8SZvBsa"/><linearGradient id="KzYJZST2lWYyrun8SZvBsab" x1="13.179" x2="14.863" y1="24.242" y2="23.505" gradientUnits="userSpaceOnUse"><stop offset="0" stop-color="#fcbe42"/><stop offset=".375" stop-color="#fbaa24"/><stop offset=".762" stop-color="#fa9a0c"/><stop offset="1" stop-color="#fa9403"/></linearGradient><linearGradient id="KzYJZST2lWYyrun8SZvBsac" x1="14.14" x2="15.466" y1="23.623" y2="23.023" xlink:href="#KzYJZST2lWYyrun8SZvBsc"/><linearGradient id="KzYJZST2lWYyrun8SZvBsad" x1="27.317" x2="28.096" y1="14.786" y2="16.259" gradientTransform="rotate(4.457 30.539 19.58)" xlink:href="#KzYJZST2lWYyrun8SZvBsa"/><linearGradient id="KzYJZST2lWYyrun8SZvBsae" x1="25.512" x2="28.852" y1="24.039" y2="23.786" gradientTransform="rotate(4.457 30.539 19.58)" xlink:href="#KzYJZST2lWYyrun8SZvBsb"/><linearGradient id="KzYJZST2lWYyrun8SZvBsaf" x1="28.367" x2="29.798" y1="23.71" y2="23.598" gradientTransform="rotate(4.457 30.539 19.58)" xlink:href="#KzYJZST2lWYyrun8SZvBsc"/><linearGradient id="KzYJZST2lWYyrun8SZvBsag" x1="23.826" x2="24.107" y1="10.93" y2="12.923" gradientTransform="rotate(-11.1 23.957 20.352)" xlink:href="#KzYJZST2lWYyrun8SZvBsa"/><linearGradient id="KzYJZST2lWYyrun8SZvBsah" x1="20.085" x2="22.47" y1="21.333" y2="21.81" gradientTransform="rotate(-11.1 23.957 20.352)" xlink:href="#KzYJZST2lWYyrun8SZvBsb"/><linearGradient id="KzYJZST2lWYyrun8SZvBsai" x1="23.918" x2="22.319" y1="21.839" y2="21.586" gradientTransform="rotate(-11.1 23.957 20.352)" xlink:href="#KzYJZST2lWYyrun8SZvBsd"/><linearGradient id="KzYJZST2lWYyrun8SZvBsaj" x1="26.239" x2="26.533" y1="12.671" y2="14.513" gradientTransform="rotate(-7.611 23.546 21.506)" xlink:href="#KzYJZST2lWYyrun8SZvBsa"/><linearGradient id="KzYJZST2lWYyrun8SZvBsak" x1="22.686" x2="24.875" y1="23.834" y2="24.227" gradientTransform="rotate(-7.611 23.546 21.506)" xlink:href="#KzYJZST2lWYyrun8SZvBsb"/><linearGradient id="KzYJZST2lWYyrun8SZvBsal" x1="23.795" x2="26.349" y1="23.864" y2="24.201" gradientTransform="rotate(-7.611 23.546 21.506)" xlink:href="#KzYJZST2lWYyrun8SZvBsc"/><linearGradient id="KzYJZST2lWYyrun8SZvBsam" x1="31.356" x2="35.121" y1="28.774" y2="28.774" gradientTransform="matrix(.816 .097 -.118 .993 6.814 -6.237)" xlink:href="#KzYJZST2lWYyrun8SZvBsc"/><linearGradient id="KzYJZST2lWYyrun8SZvBsan" x1="29.778" x2="33.537" y1="29.113" y2="29.113" gradientTransform="matrix(.816 .097 -.118 .993 6.814 -6.237)" xlink:href="#KzYJZST2lWYyrun8SZvBse"/><linearGradient id="KzYJZST2lWYyrun8SZvBsg" x1="12.5" x2="17.724" y1="24.232" y2="40.785" gradientUnits="userSpaceOnUse"><stop offset="0" stop-color="#f7272c"/><stop offset=".29" stop-color="#e32023"/><stop offset=".73" stop-color="#cb1817"/><stop offset="1" stop-color="#c21513"/></linearGradient><linearGradient id="KzYJZST2lWYyrun8SZvBsao" x1="13.253" x2="12.373" y1="20.126" y2="28.87" xlink:href="#KzYJZST2lWYyrun8SZvBsf"/><linearGradient id="KzYJZST2lWYyrun8SZvBsap" x1="38.49" x2="26.253" y1="21.567" y2="45.494" xlink:href="#KzYJZST2lWYyrun8SZvBsg"/><linearGradient id="KzYJZST2lWYyrun8SZvBsaq" x1="34.681" x2="35.919" y1="21.397" y2="24.065" xlink:href="#KzYJZST2lWYyrun8SZvBsf"/><linearGradient id="KzYJZST2lWYyrun8SZvBsar" x1="24.14" x2="24.387" y1="27.12" y2="46.01" xlink:href="#KzYJZST2lWYyrun8SZvBsg"/><linearGradient id="KzYJZST2lWYyrun8SZvBsas" x1="24.081" x2="24.216" y1="22.845" y2="30.926" xlink:href="#KzYJZST2lWYyrun8SZvBsf"/><linearGradient id="KzYJZST2lWYyrun8SZvBsat" x1="16.375" x2="16.413" y1="30.463" y2="32.719" xlink:href="#KzYJZST2lWYyrun8SZvBsf"/><linearGradient id="KzYJZST2lWYyrun8SZvBsau" x1="31.99" x2="32.032" y1="30.163" y2="32.655" xlink:href="#KzYJZST2lWYyrun8SZvBsf"/><linearGradient id="KzYJZST2lWYyrun8SZvBsav" x1="23.204" x2="28.973" y1="26.904" y2="-16.52" xlink:href="#KzYJZST2lWYyrun8SZvBsh"/></defs><g data-name="French fries"><g data-name="Box"><path fill="url(#KzYJZST2lWYyrun8SZvBsi)" d="M37.687,13.4H35.076A13.492,13.492,0,0,0,24.188,7.917,13.673,13.673,0,0,0,13.2,13.4H10.774L9.326,19.858l2.135,1.565,3.877,2.832.66.358c2.377,2.158,5.1,2.444,8.1,2.444,3.037,0,6.515-.564,8.893-2.774l4.014-2.64,1.948-1.785Z"/><path fill="url(#KzYJZST2lWYyrun8SZvBsf)" d="M38.627,18.062c-3.9-2.843-9.3-1.836-14.536-1.836-5.311,0-10.484-.956-14.4,1.991L10.777,13.4h2.43A13.67,13.67,0,0,1,24.192,7.917,13.486,13.486,0,0,1,35.076,13.4h2.611Z" opacity=".7"/><path fill="url(#KzYJZST2lWYyrun8SZvBsh)" d="M37.687,13.4H35.076a13.752,13.752,0,0,0-21.97,0H10.677L9.326,19.858l2.346,1.512,3.851,2.365.1.091a12.457,12.457,0,0,0,16.839-.091l4.161-2.494,2.326-1.383Zm-1.4,7.289-4.213,2.533-.052.039a11.8,11.8,0,0,1-15.96.091l-.116-.1-4.381-2.7-1.6-1,.943-4.252.285-1.253H13.43l.193-.259a13.1,13.1,0,0,1,20.936,0l.194.259h2.4l.258,1.344.815,4.148-1.487.879Z"/><polygon fill="url(#KzYJZST2lWYyrun8SZvBsa)" points="9.239 12.376 7.656 12.834 7.053 13.965 8.889 13.759 9.239 12.376"/><polyline fill="#fcd370" points="18.598 29.2 16.866 29.622 16.308 30.634 18.157 30.561"/><path fill="url(#KzYJZST2lWYyrun8SZvBsb)" d="M8.889,13.759c3.2,5.532,6.418,11.053,9.268,16.8l-1.849.073C13.471,25.007,10.25,19.47,7.053,13.965Z"/><path fill="url(#KzYJZST2lWYyrun8SZvBsd)" d="M8.889,13.759c3.2,5.532,6.418,11.053,9.268,16.8L18.6,29.2c-2.927-5.771-6.14-11.285-9.359-16.824Z"/><polygon fill="url(#KzYJZST2lWYyrun8SZvBsj)" points="25.83 6.936 24.491 6.537 23.595 7.282 25.016 8.062 25.83 6.936"/><polyline fill="#fcd370" points="24.707 27.753 23.31 27.171 22.448 27.794 23.752 28.756"/><path fill="url(#KzYJZST2lWYyrun8SZvBsk)" d="M25.016,8.062a188.728,188.728,0,0,1-1.264,20.694l-1.3-.962A183.761,183.761,0,0,0,23.6,7.282Z"/><path fill="url(#KzYJZST2lWYyrun8SZvBsc)" d="M25.016,8.062a188.728,188.728,0,0,1-1.264,20.694l.955-1A183.752,183.752,0,0,0,25.83,6.936Z"/><polygon fill="url(#KzYJZST2lWYyrun8SZvBsl)" points="16.819 12.582 14.801 12.427 13.493 13.111 15.654 13.541 16.819 12.582"/><polyline fill="#fcd370" points="18.335 28.502 16.139 28.394 15.015 29.068 17.181 29.473"/><polygon fill="url(#KzYJZST2lWYyrun8SZvBsm)" points="15.654 13.541 17.181 29.473 15.015 29.068 13.493 13.111 15.654 13.541"/><polygon fill="url(#KzYJZST2lWYyrun8SZvBsn)" points="15.654 13.541 17.181 29.473 18.335 28.502 16.819 12.582 15.654 13.541"/><path fill="url(#KzYJZST2lWYyrun8SZvBso)" d="M26.142,21.312a45.194,45.194,0,0,0-1.48-7.581C24.3,12.6,22.973,9.583,22.9,9.425l-.626.973c.069.158,1.393,3.175,1.759,4.306a45.194,45.194,0,0,1,1.48,7.581l1.521,10.462.626-.973Z"/><path fill="url(#KzYJZST2lWYyrun8SZvBse)" d="M22.277,10.4c.069.158,1.393,3.175,1.759,4.306a45.194,45.194,0,0,1,1.48,7.581l1.521,10.462-1.6-.623Z"/><path fill="url(#KzYJZST2lWYyrun8SZvBsp)" d="M16.845,23.008c-1.549-4.557-2.349-5.884-3.011-6.847a45.733,45.733,0,0,0-3.1-3.484l-.769,1.184a45.765,45.765,0,0,1,3.086,3.478c.657.961,1.455,2.287,2.979,6.828a74.672,74.672,0,0,1,2.718,9.885c.328-.344.65-.7.965-1.066A90.807,90.807,0,0,0,16.845,23.008Z"/><path fill="url(#KzYJZST2lWYyrun8SZvBsq)" d="M9.966,13.861a45.765,45.765,0,0,1,3.086,3.478c.657.961,1.455,2.287,2.979,6.828a74.672,74.672,0,0,1,2.718,9.885c-.784-.159-1.566-.287-2.349-.393a90.28,90.28,0,0,0-2.878-9.924C12.4,20.429,11.2,17.138,9.966,13.861Z"/><path fill="url(#KzYJZST2lWYyrun8SZvBsr)" d="M13.335,10.076l-.265,1.239-2.124-.068.336-1.476Z"/><path fill="url(#KzYJZST2lWYyrun8SZvBss)" d="M19.744,30.019,19.225,31.2c-.1-.5-.163-1-.284-1.475A177.356,177.356,0,0,0,13.07,11.315l.265-1.239c1.112,3.042,2.256,6.2,3.367,9.5A105.488,105.488,0,0,1,19.744,30.019Z"/><path fill="url(#KzYJZST2lWYyrun8SZvBst)" d="M18.941,29.727c.121.475.185.98.284,1.475q-1.032-.279-2.056-.5a95.814,95.814,0,0,0-2.832-9.824c-1.08-3.241-2.23-6.449-3.391-9.629l2.124.068A177.356,177.356,0,0,1,18.941,29.727Z"/><polygon fill="url(#KzYJZST2lWYyrun8SZvBsu)" points="18.143 7.068 16.775 6.745 15.943 7.585 17.426 8.284 18.143 7.068"/><polyline fill="#fcd370" points="20.235 28.472 18.749 28.171 18.034 28.989 19.518 29.689"/><polygon fill="url(#KzYJZST2lWYyrun8SZvBsv)" points="17.426 8.284 19.518 29.689 18.034 28.989 15.943 7.585 17.426 8.284"/><polygon fill="url(#KzYJZST2lWYyrun8SZvBsw)" points="17.426 8.284 19.518 29.689 20.235 28.472 18.143 7.068 17.426 8.284"/><path fill="url(#KzYJZST2lWYyrun8SZvBsx)" d="M22.022,21.6c-.127-4.943-.424-6.508-.751-7.668s-1.715-4.295-1.787-4.46l-1.119.893c.072.165,1.46,3.3,1.787,4.461s.625,2.725.753,7.67l.313,10.521,1.107-.9Z"/><path fill="url(#KzYJZST2lWYyrun8SZvBsy)" d="M18.365,10.369c.072.165,1.46,3.3,1.787,4.461s.625,2.725.753,7.67l.313,10.521-2.271-.768Z"/><polygon fill="url(#KzYJZST2lWYyrun8SZvBsz)" points="28.527 10.094 26.539 9.603 25.16 10.36 27.258 11.249 28.527 10.094"/><polyline fill="#fcd370" points="28.139 32.178 25.972 31.694 24.773 32.445 26.87 33.334"/><polygon fill="url(#KzYJZST2lWYyrun8SZvBsA)" points="27.258 11.249 26.87 33.334 24.773 32.445 25.16 10.36 27.258 11.249"/><polygon fill="url(#KzYJZST2lWYyrun8SZvBsB)" points="27.258 11.249 26.87 33.334 28.139 32.178 28.527 10.094 27.258 11.249"/><path fill="url(#KzYJZST2lWYyrun8SZvBsC)" d="M18.307,24.568c-.919-4.6-1.477-6.018-2.013-7.057s-2.523-3.781-2.627-3.927l-1.084,1c.1.147,2.1,2.893,2.63,3.931s1.1,2.464,2.022,7.069c.665,3.264,1.333,6.542,2.123,9.745l1.024-1.064C19.63,31.1,18.966,27.819,18.307,24.568Z"/><path fill="url(#KzYJZST2lWYyrun8SZvBsD)" d="M12.583,14.579c.1.147,2.1,2.893,2.63,3.931s1.1,2.464,2.022,7.069c.665,3.264,1.333,6.543,2.123,9.745l-2.587-.234C15.172,28.193,13.9,21.416,12.583,14.579Z"/><polygon fill="url(#KzYJZST2lWYyrun8SZvBsE)" points="21.303 6.275 19.895 6.173 19.225 7.171 20.814 7.639 21.303 6.275"/><polyline fill="#fcd370" points="26.818 28.004 25.304 27.851 24.689 28.766 26.246 29.339"/><path fill="url(#KzYJZST2lWYyrun8SZvBsF)" d="M20.814,7.639c1.948,7.195,3.91,14.385,5.432,21.7l-1.557-.573c-1.552-7.222-3.51-14.423-5.464-21.595Z"/><path fill="url(#KzYJZST2lWYyrun8SZvBsG)" d="M20.814,7.639c1.948,7.195,3.91,14.385,5.432,21.7L26.818,28C25.224,20.663,23.266,13.476,21.3,6.275Z"/><path fill="url(#KzYJZST2lWYyrun8SZvBsH)" d="M30.922,6.623l-.732.544-1.921-.581.9-.65Z"/><path fill="url(#KzYJZST2lWYyrun8SZvBsI)" d="M30.922,6.623l-.732.544c-.347,3.254-1.583,18.133-2.491,22-.082.275-.166.555-.249.835q.423-.166.859-.368a52.442,52.442,0,0,0,1.1-6.112C29.657,21.7,30.562,10.2,30.922,6.623Z"/><path fill="url(#KzYJZST2lWYyrun8SZvBsJ)" d="M28.269,6.586c-.376,3.694-.584,7.421-.739,11.2l-.01,0c-.258,1.87-.516,3.742-.776,5.629a47.479,47.479,0,0,1-.986,5.485q.86.512,1.692,1.1c.083-.28.167-.56.249-.835.883-3.759,1.185-7.268,1.678-10.452,0,0,.071-.539.086-.81.184-3.847.38-7.481.727-10.735Z"/><polygon fill="url(#KzYJZST2lWYyrun8SZvBsK)" points="39.636 13.711 38.483 12.972 37.447 13.187 38.583 14.214 39.636 13.711"/><polyline fill="#fcd370" points="34.409 28.255 33.176 27.429 32.246 27.634 33.334 28.713"/><path fill="url(#KzYJZST2lWYyrun8SZvBsL)" d="M38.583,14.214c-1.684,4.854-3.361,9.708-5.249,14.5l-1.088-1.079c1.845-4.745,3.526-9.6,5.2-14.447Z"/><path fill="url(#KzYJZST2lWYyrun8SZvBsM)" d="M38.583,14.214c-1.684,4.854-3.361,9.708-5.249,14.5l1.075-.458c1.87-4.829,3.547-9.68,5.227-14.544Z"/><path fill="url(#KzYJZST2lWYyrun8SZvBsN)" d="M35.479,22.051c1.661-4.217,1.938-5.653,2.051-6.758s-.058-4.284-.067-4.451l-1.35.324c.009.167.179,3.345.067,4.45s-.391,2.541-2.052,6.755c-1.184,2.99-2.361,5.979-3.592,8.959l1.358-.3Z"/><path fill="url(#KzYJZST2lWYyrun8SZvBsO)" d="M36.113,11.166c.009.167.179,3.345.067,4.45s-.391,2.541-2.052,6.755c-1.184,2.99-2.361,5.979-3.592,8.959L28.76,29.757C31.261,23.6,33.686,17.376,36.113,11.166Z"/><polygon fill="url(#KzYJZST2lWYyrun8SZvBsP)" points="35.941 9.358 34.525 8.517 33.287 8.85 34.693 10.049 35.941 9.358"/><polyline fill="#fcd370" points="30.066 27.693 28.574 26.717 27.454 27.001 28.772 28.301"/><path fill="url(#KzYJZST2lWYyrun8SZvBsQ)" d="M34.693,10.049c-1.847,6.12-3.676,12.242-5.921,18.252L27.454,27c2.166-5.917,4-12.053,5.833-18.151Z"/><path fill="url(#KzYJZST2lWYyrun8SZvBsR)" d="M34.693,10.049c-1.847,6.12-3.676,12.242-5.921,18.252l1.294-.608C32.275,21.61,34.1,15.5,35.941,9.358Z"/><path fill="url(#KzYJZST2lWYyrun8SZvBsS)" d="M30.909,20.723a37.638,37.638,0,0,0,1.1-7.054c.026-1.1-.242-4.152-.261-4.311l-.9.638c.016.159.286,3.206.257,4.307A37.638,37.638,0,0,1,30,21.354L27.939,30.9l.917-.624Z"/><path fill="url(#KzYJZST2lWYyrun8SZvBsT)" d="M30.84,10c.016.159.286,3.206.257,4.307A37.638,37.638,0,0,1,30,21.354L27.939,30.9,26.65,29.817Q28.809,19.929,30.84,10Z"/><polygon fill="url(#KzYJZST2lWYyrun8SZvBsU)" points="19.313 13.329 17.291 13.413 16.072 14.246 18.268 14.419 19.313 13.329"/><polyline fill="#fcd370" points="22.689 28.961 20.495 29.112 19.458 29.914 21.657 30.061"/><polygon fill="url(#KzYJZST2lWYyrun8SZvBsV)" points="18.268 14.419 21.657 30.061 19.458 29.914 16.072 14.246 18.268 14.419"/><polygon fill="url(#KzYJZST2lWYyrun8SZvBsW)" points="18.268 14.419 21.657 30.061 22.689 28.961 19.313 13.329 18.268 14.419"/><polygon fill="url(#KzYJZST2lWYyrun8SZvBsX)" points="35.631 13.205 34.415 12.517 33.375 13.043 34.587 14.121 35.631 13.205"/><polyline fill="#fcd370" points="29.892 33.247 28.66 32.367 27.681 32.783 28.738 34.012"/><path fill="url(#KzYJZST2lWYyrun8SZvBsY)" d="M34.587,14.121a189.033,189.033,0,0,1-5.849,19.891l-1.057-1.229a183.542,183.542,0,0,0,5.694-19.74Z"/><path fill="url(#KzYJZST2lWYyrun8SZvBsZ)" d="M34.587,14.121a189.033,189.033,0,0,1-5.849,19.891l1.154-.765a183.469,183.469,0,0,0,5.739-20.042Z"/><polygon fill="url(#KzYJZST2lWYyrun8SZvBsaa)" points="11.426 15.63 10.093 15.956 9.552 16.878 11.089 16.769 11.426 15.63"/><polyline fill="#fcd370" points="19.163 29.54 17.753 30.012 17.37 30.901 18.897 30.691"/><path fill="url(#KzYJZST2lWYyrun8SZvBsab)" d="M11.089,16.769c2.518,4.69,5.025,9.4,7.808,13.922l-1.527.21c-2.793-4.615-5.3-9.312-7.818-14.023Z"/><path fill="url(#KzYJZST2lWYyrun8SZvBsac)" d="M11.089,16.769c2.518,4.69,5.025,9.4,7.808,13.922l.266-1.151c-2.718-4.514-5.233-9.223-7.737-13.91Z"/><polygon fill="url(#KzYJZST2lWYyrun8SZvBsad)" points="29.673 15.095 27.673 14.784 26.315 15.364 28.436 15.961 29.673 15.095"/><polyline fill="#fcd370" points="29.947 31.085 27.765 30.807 26.592 31.391 28.721 31.963"/><polygon fill="url(#KzYJZST2lWYyrun8SZvBsae)" points="28.436 15.961 28.721 31.963 26.592 31.391 26.315 15.364 28.436 15.961"/><polygon fill="url(#KzYJZST2lWYyrun8SZvBsaf)" points="28.436 15.961 28.721 31.963 29.947 31.085 29.673 15.095 28.436 15.961"/><polygon fill="url(#KzYJZST2lWYyrun8SZvBsag)" points="23.627 11.716 22.006 11.421 20.962 12.165 22.698 12.798 23.627 11.716"/><polyline fill="#fcd370" points="24.509 30.949 22.77 30.554 21.819 31.211 23.507 31.97"/><path fill="url(#KzYJZST2lWYyrun8SZvBsah)" d="M22.7,12.8c.4,6.38.82,12.756.809,19.172l-1.688-.759c-.031-6.3-.448-12.693-.857-19.046Z"/><path fill="url(#KzYJZST2lWYyrun8SZvBsai)" d="M22.7,12.8c.4,6.38.82,12.756.809,19.172l1-1.021c-.049-6.471-.469-12.84-.882-19.233Z"/><polygon fill="url(#KzYJZST2lWYyrun8SZvBsaj)" points="26.371 12.927 25.039 12.506 24.131 13.236 25.539 14.04 26.371 12.927"/><polyline fill="#fcd370" points="24.905 33.723 23.517 33.117 22.646 33.727 23.934 34.71"/><path fill="url(#KzYJZST2lWYyrun8SZvBsak)" d="M25.539,14.04a188.969,188.969,0,0,1-1.605,20.67l-1.288-.983a184.042,184.042,0,0,0,1.485-20.491Z"/><path fill="url(#KzYJZST2lWYyrun8SZvBsal)" d="M25.539,14.04a188.969,188.969,0,0,1-1.605,20.67l.971-.987a183.6,183.6,0,0,0,1.466-20.8Z"/><path fill="url(#KzYJZST2lWYyrun8SZvBsam)" d="M31.843,26.3c.859-4.607.871-6.136.761-7.3s-.933-4.448-.975-4.623l-1.377.519c.042.175.867,3.465.977,4.629s.1,2.694-.757,7.313c-.6,3.276-1.2,6.568-1.661,9.834l1.347-.606C30.638,32.85,31.243,29.56,31.843,26.3Z"/><path fill="url(#KzYJZST2lWYyrun8SZvBsan)" d="M30.252,14.894c.042.175.867,3.466.977,4.629s.1,2.694-.757,7.313c-.6,3.276-1.2,6.568-1.661,9.834L26.5,35.489C27.584,28.493,28.926,21.729,30.252,14.894Z"/><path fill="url(#KzYJZST2lWYyrun8SZvBsg)" d="M18.376,40.484l-5.169-2.533L11.746,31.14v-.013L9.33,19.858l2.442,1.512,4.27,2.607c.026.4.008.895.021,1.283a65.1,65.1,0,0,0,.465,7.522A43.552,43.552,0,0,0,18.376,40.484Z"/><path fill="url(#KzYJZST2lWYyrun8SZvBsao)" d="M16.063,25.26l.115,5.061s-5.181-3.678-4.432.806L9.33,19.858l2.442,1.512,4.239,2.7C16.037,24.472,16.05,24.872,16.063,25.26Z" opacity=".5"/><path fill="url(#KzYJZST2lWYyrun8SZvBsap)" d="M38.95,19.858l-.478,2.714-2.094,9.744-1.2,5.635-5.17,2.533a40.686,40.686,0,0,0,1.887-7.7,41.471,41.471,0,0,0,.349-5.894c.013-.917-.013-2,0-3.011l.711-.439v-.013l.3-.181,3.425-2.132Z"/><path fill="url(#KzYJZST2lWYyrun8SZvBsaq)" d="M38.953,19.858l-.481,2.714c-1.5.711-4.769,2.43-6.229,4.316.013-.917-.013-2.009,0-3.017l4.384-2.63Z" opacity=".5"/><path fill="#ff6e6e" d="M11.746,31.14v-.013L9.33,19.858l2.442,1.512L15.4,23.661c.013.246.046.484.046.743l-2.773-1.69L10.234,21.2l1.859,11.556Z" opacity=".8"/><path fill="#ff6e6e" d="M38.95,19.858l-.478,2.714-2.094,9.744L38.162,21.2l-2.468,1.409L32.835,24.18c0-.259-.011-.422,0-.667l.117-.088.3-.181,3.334-1.977Z" opacity=".8"/><path fill="url(#KzYJZST2lWYyrun8SZvBsar)" d="M32.566,23.58a66.851,66.851,0,0,1-.633,8.879c-.013.1-.026.219-.039.323-.09.581-.181,1.15-.3,1.705a38.241,38.241,0,0,1-1.59,6H18.376a40.246,40.246,0,0,1-1.551-6.009v-.013c-.116-.543-.207-1.1-.3-1.68-.013-.1-.039-.207-.052-.311a86.087,86.087,0,0,1-.853-8.736l.1.091a12.422,12.422,0,0,0,8.374,3.23c.194,0,.375,0,.569-.012A12.621,12.621,0,0,0,32.566,23.58Z"/><path fill="url(#KzYJZST2lWYyrun8SZvBsas)" d="M32.566,23.58v.155a64.454,64.454,0,0,1-.633,8.724c-1.034-.724-3.425-1.939-7.845-1.939a13.693,13.693,0,0,0-7.612,1.951,86.087,86.087,0,0,1-.853-8.736l.1.091a12.422,12.422,0,0,0,8.374,3.23c.194,0,.375,0,.569-.012A12.762,12.762,0,0,0,32.566,23.58Z" opacity=".5"/><path fill="url(#KzYJZST2lWYyrun8SZvBsat)" d="M16.528,32.782c.013.116.039.219.052.323a.58.58,0,0,1-.1.077c-.129-.827-.206-1.654-.258-2.507.077.62.168,1.215.258,1.8C16.489,32.575,16.515,32.678,16.528,32.782Z" opacity=".5"/><path fill="url(#KzYJZST2lWYyrun8SZvBsau)" d="M32.191,30.391a25.025,25.025,0,0,1-.258,2.778.55.55,0,0,0-.091-.064c.013-.1.039-.22.052-.323s.026-.22.039-.323C32.023,31.8,32.114,31.1,32.191,30.391Z" opacity=".5"/><path fill="#ff6e6e" d="M32.191,30.352c.078-1.758.039-3.58.052-5.622v-.155a11.594,11.594,0,0,1-7.573,3.179c-.194.013-.375.013-.569.013a11.228,11.228,0,0,1-8.012-2.907l-.1-.091c.117,2.21.117,4.11.233,5.906-.259-2.106-.462-4.329-.591-6.849l.11.105A12.284,12.284,0,0,0,24.1,27.056c.194,0,.375,0,.569-.012a12.528,12.528,0,0,0,7.891-3.4A64.713,64.713,0,0,1,32.191,30.352Z" opacity=".8"/><path fill="url(#KzYJZST2lWYyrun8SZvBsav)" d="M38.431,17.192c-.142.4-.281.811-.423,1.212l.218,1.131-.439.258-1.047.621-.452.271-4.213,2.533-.052.039a11.8,11.8,0,0,1-15.96.09l-.117-.1-4.381-2.7-1.021-.633-.581-.362.085-.37c-.129-.245-.272-.493-.427-.739L9.33,19.858,11.2,21.073l.465.3,3.851,2.365.1.091a12.461,12.461,0,0,0,16.84-.091l4.161-2.494.814-.491,1.512-.892Z"/></g></g></svg>