<svg xmlns="http://www.w3.org/2000/svg" viewBox="0 0 48 48"><radialGradient id="UAWgSZ6ELEhEW5Cs~tv3pa" cx="25.124" cy="8.195" r="28.537" gradientTransform="matrix(.9612 .276 -.2317 .807 .81 -5.38)" gradientUnits="userSpaceOnUse"><stop offset="0" stop-color="#f0b652"/><stop offset=".118" stop-color="#ecb250"/><stop offset=".234" stop-color="#e0a74a"/><stop offset=".349" stop-color="#cd943f"/><stop offset=".462" stop-color="#b17a30"/><stop offset=".533" stop-color="#9c6625"/><stop offset=".571" stop-color="#956123"/><stop offset=".778" stop-color="#714a18"/><stop offset=".888" stop-color="#634114"/></radialGradient><path fill="url(#UAWgSZ6ELEhEW5Cs~tv3pa)" d="M13.836,10.008c-1.858,1.04-3.317,2.165-3.317,2.165l17.324,28.949 c1.307-0.541,2.553-1.276,3.816-2.05c10.164-6.233,14.387-17.835,9.516-25.779S24.443,4.07,13.836,10.008z"/><ellipse cx="20.032" cy="26.144" fill="#b9874a" rx="14.421" ry="16.91" transform="rotate(-31.519 20.03 26.143)"/><radialGradient id="UAWgSZ6ELEhEW5Cs~tv3pb" cx="21.335" cy="22.876" r="19.914" gradientTransform="matrix(.727 -.4458 .5228 .8525 -7.438 16.155)" gradientUnits="userSpaceOnUse"><stop offset="0" stop-color="#d6d21c"/><stop offset=".144" stop-color="#d2d11c"/><stop offset=".298" stop-color="#c5cd1b"/><stop offset=".456" stop-color="#b0c61a"/><stop offset=".617" stop-color="#92bd18"/><stop offset=".635" stop-color="#8ebc18"/><stop offset=".701" stop-color="#88b517"/><stop offset=".796" stop-color="#78a115"/><stop offset=".909" stop-color="#5e8211"/><stop offset="1" stop-color="#44630d"/></radialGradient><path fill="url(#UAWgSZ6ELEhEW5Cs~tv3pb)" d="M31.447,19.144c4.533,7.393,3.098,16.52-3.207,20.386s-15.09,1.007-19.624-6.385 s-3.098-16.52,3.207-20.386S26.914,11.752,31.447,19.144z"/><radialGradient id="UAWgSZ6ELEhEW5Cs~tv3pc" cx="21.335" cy="22.876" r="11.305" gradientTransform="matrix(.727 -.4458 .5228 .8525 -7.438 16.155)" gradientUnits="userSpaceOnUse"><stop offset=".346" stop-color="#090d02"/><stop offset=".434" stop-color="#172105"/><stop offset=".612" stop-color="#3b550b"/><stop offset=".75" stop-color="#5a8211"/><stop offset=".945" stop-color="#74a916" stop-opacity=".219"/><stop offset="1" stop-color="#7cb518" stop-opacity="0"/></radialGradient><path fill="url(#UAWgSZ6ELEhEW5Cs~tv3pc)" d="M28.251,21.104c3.264,5.323,2.23,11.894-2.309,14.678s-10.865,0.725-14.129-4.597 s-2.23-11.894,2.309-14.678S24.987,15.782,28.251,21.104z"/><radialGradient id="UAWgSZ6ELEhEW5Cs~tv3pd" cx="21.335" cy="22.876" r="12.639" gradientTransform="matrix(.727 -.4458 .5228 .8525 -7.438 16.155)" gradientUnits="userSpaceOnUse"><stop offset="0" stop-color="#fbfece"/><stop offset=".172" stop-color="#fafecc"/><stop offset=".267" stop-color="#f5fcc4"/><stop offset=".342" stop-color="#eef9b6"/><stop offset=".408" stop-color="#e4f5a2"/><stop offset=".467" stop-color="#d7f089"/><stop offset=".501" stop-color="#cdec77"/><stop offset=".626" stop-color="#b8d950"/><stop offset=".816" stop-color="#99bf19"/></radialGradient><path fill="url(#UAWgSZ6ELEhEW5Cs~tv3pd)" d="M24.527,24.625c0.983-1.196,2.518-2.455,4.694-4.115c-2.561,1.231-4.427,2.052-5.972,2.36 c0.361-1.632,1.217-3.584,2.49-6.255c-1.657,2.241-2.907,3.819-4.073,4.81c-0.227-1.721-0.169-3.923-0.004-6.945 c-0.658,2.871-1.195,4.927-1.865,6.373c-0.804-1.595-1.529-3.778-2.449-6.808c0.436,3.083,0.691,5.317,0.615,7.007 c-1.265-1.237-2.667-3.083-4.538-5.68c1.523,2.954,2.56,5.097,3.07,6.817c-1.586-0.625-3.543-1.832-6.236-3.594 c2.343,2.117,4.005,3.699,5.103,5.105c-1.585,0.001-3.664-0.376-6.529-0.985c2.793,1.124,4.802,1.999,6.257,2.932 c-1.385,0.646-3.334,1.121-6.052,1.688c2.837-0.034,4.9,0.008,6.5,0.331c-0.983,1.196-2.518,2.455-4.694,4.115 c2.561-1.231,4.427-2.052,5.972-2.36c-0.361,1.632-1.217,3.584-2.49,6.255c1.657-2.241,2.907-3.819,4.073-4.81 c0.227,1.721,0.169,3.923,0.004,6.945c0.658-2.871,1.195-4.927,1.865-6.373c0.804,1.595,1.529,3.778,2.45,6.809 c-0.436-3.083-0.691-5.317-0.615-7.007c1.265,1.237,2.667,3.083,4.538,5.68c-1.523-2.954-2.56-5.097-3.07-6.817 c1.586,0.625,3.543,1.832,6.236,3.594c-2.343-2.117-4.005-3.699-5.103-5.105c1.585-0.001,3.664,0.376,6.529,0.985 c-2.793-1.124-4.802-1.999-6.257-2.932c1.385-0.646,3.334-1.121,6.052-1.688C28.19,24.99,26.127,24.948,24.527,24.625z"/><path fill="#030501" d="M14.185,18.552c0.425,0.48,0.715,1.888,0.715,1.888s-1.302-0.389-1.728-0.869 s-0.543-1.097-0.264-1.378S13.759,18.072,14.185,18.552z"/><path fill="#030501" d="M26.659,32.49c-0.431-0.474-1.736-0.842-1.736-0.842s0.309,1.406,0.74,1.88 s1.004,0.626,1.278,0.339C27.217,33.58,27.09,32.963,26.659,32.49z"/><path fill="#030501" d="M17.137,17.117c0.234,0.597-0.01,1.934-0.01,1.934s-1.123-0.898-1.357-1.495 s-0.118-1.179,0.259-1.3C16.406,16.135,16.902,16.52,17.137,17.117z"/><path fill="#030501" d="M24.215,34.434c-0.253-0.59-1.4-1.449-1.4-1.449s-0.199,1.352,0.055,1.943 c0.253,0.59,0.759,0.958,1.131,0.822C24.373,35.613,24.469,35.024,24.215,34.434z"/><path fill="#030501" d="M20.408,17.126c0.014,0.616-0.707,1.676-0.707,1.676s-0.775-1.247-0.789-1.863 c-0.014-0.616,0.309-1.074,0.722-1.022C20.047,15.969,20.393,16.51,20.408,17.126z"/><path fill="#030501" d="M21.162,35.118c-0.039-0.619-0.858-1.836-0.858-1.836s-0.674,1.099-0.635,1.717 c0.039,0.619,0.405,1.147,0.817,1.18C20.898,36.211,21.201,35.736,21.162,35.118z"/><path fill="#030501" d="M23.594,18.488c-0.207,0.542-1.293,1.165-1.293,1.165s-0.311-1.406-0.104-1.948 c0.207-0.542,0.688-0.806,1.073-0.59S23.801,17.946,23.594,18.488z"/><path fill="#030501" d="M17.957,34.487c0.179-0.557-0.198-1.954-0.198-1.954s-1.046,0.688-1.225,1.245 c-0.179,0.557-0.005,1.167,0.388,1.363C17.314,35.337,17.778,35.044,17.957,34.487z"/><path fill="#030501" d="M26.271,21.058c-0.401,0.381-1.69,0.462-1.69,0.462s0.211-1.348,0.612-1.73 c0.401-0.381,0.967-0.407,1.264-0.057C26.755,20.083,26.672,20.676,26.271,21.058z"/><path fill="#030501" d="M14.868,32.482c0.381-0.404,0.532-1.77,0.532-1.77s-1.275,0.146-1.656,0.55 c-0.381,0.404-0.438,1.004-0.127,1.341C13.927,32.94,14.487,32.885,14.868,32.482z"/><path fill="#030501" d="M27.916,24.323c-0.529,0.167-1.819-0.295-1.819-0.295s0.689-1.086,1.218-1.253 c0.529-0.167,1.092,0.045,1.258,0.472S28.445,24.157,27.916,24.323z"/><path fill="#030501" d="M12.64,29.485c0.519-0.19,1.164-1.311,1.164-1.311s-1.299-0.41-1.819-0.22 c-0.519,0.19-0.794,0.686-0.613,1.109C11.554,29.486,12.121,29.675,12.64,29.485z"/><path fill="#030501" d="M28.362,27.76c-0.577-0.067-1.682-0.992-1.682-0.992s1.056-0.674,1.633-0.606 c0.577,0.067,1.056,0.479,1.07,0.921C29.396,27.523,28.939,27.827,28.362,27.76z"/><path fill="#030501" d="M11.546,26.062c0.576,0.048,1.606-0.665,1.606-0.665s-1.127-0.89-1.704-0.938 c-0.576-0.048-1.022,0.273-0.995,0.715C10.481,25.617,10.97,26.014,11.546,26.062z"/><path fill="#030501" d="M27.621,30.928c-0.544-0.29-1.308-1.543-1.308-1.543s1.27-0.168,1.814,0.122 s0.871,0.843,0.731,1.236C28.719,31.134,28.165,31.218,27.621,30.928z"/><path fill="#030501" d="M11.709,22.626c0.548,0.277,1.81,0.077,1.81,0.077s-0.789-1.238-1.337-1.516 c-0.548-0.277-1.098-0.18-1.229,0.217C10.823,21.802,11.161,22.349,11.709,22.626z"/></svg>