<svg xmlns="http://www.w3.org/2000/svg" viewBox="0 0 48 48"><radialGradient id="8HCICS8ELaTW4HUC2XMaka" cx="23.406" cy="18.223" r="20.96" gradientTransform="matrix(1 0 0 .3874 0 11.164)" gradientUnits="userSpaceOnUse"><stop offset="0" stop-color="#6f6b63"/><stop offset=".229" stop-color="#726e66"/><stop offset=".397" stop-color="#7b776f"/><stop offset=".547" stop-color="#8b877f"/><stop offset=".685" stop-color="#a29d95"/><stop offset=".816" stop-color="#bfbab1"/><stop offset=".939" stop-color="#e2ddd4"/><stop offset="1" stop-color="#f7f1e8"/></radialGradient><path fill="url(#8HCICS8ELaTW4HUC2XMaka)" d="M23.609,12.451c-7.022,0-14.285,1.892-14.285,5.057s7.263,5.057,14.285,5.057 s14.285-1.892,14.285-5.057c0-0.164-0.021-0.328-0.063-0.487c-0.012-0.045-0.025-0.092-0.04-0.135 C36.93,14.314,30.966,12.451,23.609,12.451z"/><radialGradient id="8HCICS8ELaTW4HUC2XMakb" cx="23.558" cy="37.948" r="26.105" gradientTransform="matrix(1 .009 -.0035 .4197 .132 21.924)" gradientUnits="userSpaceOnUse"><stop offset="0" stop-color="#f7f1e8"/><stop offset=".196" stop-color="#f4eee5"/><stop offset=".366" stop-color="#e9e3da"/><stop offset=".526" stop-color="#d7d2c9"/><stop offset=".68" stop-color="#beb9b0"/><stop offset=".83" stop-color="#9e9991"/><stop offset=".975" stop-color="#77736b"/><stop offset="1" stop-color="#6f6b63"/></radialGradient><path fill="url(#8HCICS8ELaTW4HUC2XMakb)" d="M45.979,31.684c0,6.893-9.769,12.292-22.239,12.292c-12.47,0-22.239-5.399-22.239-12.292"/><radialGradient id="8HCICS8ELaTW4HUC2XMakc" cx="24.273" cy="30.136" r="24.12" gradientTransform="matrix(.9543 -.2989 .1204 .3842 -2.517 25.814)" gradientUnits="userSpaceOnUse"><stop offset="0" stop-color="#ded9cd"/><stop offset=".514" stop-color="#c0bcb1"/><stop offset="1" stop-color="#a8a49a"/></radialGradient><ellipse cx="23.74" cy="31.381" fill="url(#8HCICS8ELaTW4HUC2XMakc)" rx="22.392" ry="11.408"/><radialGradient id="8HCICS8ELaTW4HUC2XMakd" cx="23.434" cy="35.323" r="12.833" gradientTransform="matrix(.9999 -.0302 .0038 .3961 -.131 20.53)" gradientUnits="userSpaceOnUse"><stop offset=".43" stop-color="#474640"/><stop offset=".565" stop-color="#4b4a44" stop-opacity=".764"/><stop offset=".698" stop-color="#555550" stop-opacity=".531"/><stop offset=".83" stop-color="#676764" stop-opacity=".298"/><stop offset=".961" stop-color="#80807f" stop-opacity=".068"/><stop offset="1" stop-color="#898989" stop-opacity="0"/></radialGradient><ellipse cx="23.84" cy="34.428" fill="url(#8HCICS8ELaTW4HUC2XMakd)" rx="14.997" ry="5.137"/><radialGradient id="8HCICS8ELaTW4HUC2XMake" cx="34.779" cy="34.744" r="13.678" gradientTransform="matrix(.9984 .0566 -.0215 .3788 .802 19.615)" gradientUnits="userSpaceOnUse"><stop offset=".198" stop-color="#474640"/><stop offset=".402" stop-color="#4a4944" stop-opacity=".746"/><stop offset=".583" stop-color="#54534e" stop-opacity=".521"/><stop offset=".754" stop-color="#646460" stop-opacity=".307"/><stop offset=".919" stop-color="#7b7b7a" stop-opacity=".101"/><stop offset="1" stop-color="#898989" stop-opacity="0"/></radialGradient><path fill="url(#8HCICS8ELaTW4HUC2XMake)" d="M24.025,35.377c0,2.632,5.783,4.799,13.232,5.098 c5.391-2.083,8.875-5.381,8.875-9.094c0-0.179-0.01-0.356-0.026-0.533c-2.11-0.388-4.521-0.609-7.083-0.609 C30.739,30.239,24.025,32.54,24.025,35.377z" opacity=".81"/><radialGradient id="8HCICS8ELaTW4HUC2XMakf" cx="32.623" cy="25.127" r="19.725" gradientTransform="matrix(1 0 0 .688 0 7.84)" gradientUnits="userSpaceOnUse"><stop offset=".131" stop-color="#5e5b54"/><stop offset=".233" stop-color="#625f58"/><stop offset=".334" stop-color="#6e6a63"/><stop offset=".434" stop-color="#827e76"/><stop offset=".534" stop-color="#9e9991"/><stop offset=".633" stop-color="#c1bcb3"/><stop offset=".69" stop-color="#d9d3ca"/><stop offset=".785" stop-color="#e8e3dc"/><stop offset=".909" stop-color="#f7f2ee"/><stop offset="1" stop-color="#fcf8f4"/></radialGradient><path fill="url(#8HCICS8ELaTW4HUC2XMakf)" d="M46.652,22.532c0-1.864-1.174-3.776-4.112-3.776c-3.63,0-4.293,3.352-4.293,5.346 c0-0.004,0.028-0.07,0.028-0.052c0,0.261,0.212,0.473,0.473,0.473s0.473-0.212,0.473-0.473s-0.212-0.332-0.099-1.095 c0.171-1.155,2.119-2.796,3.432-2.712c1.848,0.119,2.552,1.258,2.5,2.373c-0.104,2.209-2.203,3.813-8.644,5.254l-2.161,3.39 c2.479,0,2.784-0.976,3.94-1.78C39.716,28.421,46.652,27.193,46.652,22.532z"/><radialGradient id="8HCICS8ELaTW4HUC2XMakg" cx="23.132" cy="21.88" r="16.971" gradientTransform="matrix(.9998 -.021 .0083 .3967 -.177 13.687)" gradientUnits="userSpaceOnUse"><stop offset="0" stop-color="#634422"/><stop offset=".107" stop-color="#5d4020"/><stop offset=".254" stop-color="#4b331a"/><stop offset=".424" stop-color="#2e1f10"/><stop offset=".593" stop-color="#0a0603"/><stop offset=".713" stop-color="#26180b"/><stop offset=".969" stop-color="#6c4620"/><stop offset="1" stop-color="#754c23"/></radialGradient><path fill="url(#8HCICS8ELaTW4HUC2XMakg)" d="M9.761,19.734c1.103-2.547,6.826-4.49,13.739-4.49c6.855,0,12.542,1.91,13.714,4.425 c-2.269,1.992-7.579,3.39-13.769,3.39C17.325,23.059,12.072,21.691,9.761,19.734z"/><radialGradient id="8HCICS8ELaTW4HUC2XMakh" cx="23.794" cy="28.853" r="19.345" gradientUnits="userSpaceOnUse"><stop offset=".131" stop-color="#6a665e"/><stop offset=".226" stop-color="#757169"/><stop offset=".393" stop-color="#938f86"/><stop offset=".613" stop-color="#c4beb5"/><stop offset=".7" stop-color="#d9d3ca"/><stop offset=".812" stop-color="#e2ded5"/><stop offset="1" stop-color="#faf8f2"/></radialGradient><path fill="url(#8HCICS8ELaTW4HUC2XMakh)" d="M23.609,23.553c-7.255,0-14.577-1.901-15.211-5.535c-0.13,0.841-0.22,1.696-0.22,2.576 c0,8.911,6.833,16.135,15.261,16.135c8.428,0,15.261-7.224,15.261-16.135c0-0.545-0.044-1.186-0.112-1.817 C37.135,21.916,30.342,23.553,23.609,23.553z"/><radialGradient id="8HCICS8ELaTW4HUC2XMaki" cx="23.491" cy="17.864" r="15.261" gradientTransform="matrix(1 0 0 .3874 0 10.943)" gradientUnits="userSpaceOnUse"><stop offset=".636" stop-color="#6f6b63"/><stop offset=".689" stop-color="#747068"/><stop offset=".754" stop-color="#848077"/><stop offset=".827" stop-color="#9d9990"/><stop offset=".905" stop-color="#c1bcb3"/><stop offset=".986" stop-color="#eee9e0"/><stop offset="1" stop-color="#f7f1e8"/></radialGradient><path fill="url(#8HCICS8ELaTW4HUC2XMaki)" d="M23.609,23.553c-7.59,0-15.274-2.076-15.274-6.045s7.684-6.045,15.274-6.045 c8.02,0,14.095,2.051,15.118,5.103c0.021,0.06,0.042,0.131,0.061,0.203c0.063,0.243,0.095,0.491,0.095,0.739 C38.883,21.477,31.199,23.553,23.609,23.553z M23.609,12.451c-7.022,0-14.285,1.892-14.285,5.057s7.263,5.057,14.285,5.057 s14.285-1.892,14.285-5.057c0-0.164-0.021-0.328-0.063-0.487c-0.012-0.045-0.025-0.092-0.04-0.135 C36.93,14.314,30.966,12.451,23.609,12.451z"/><radialGradient id="8HCICS8ELaTW4HUC2XMakj" cx="23.478" cy="18.892" r="20.731" gradientTransform="matrix(0 -.8161 2.1865 0 -17.83 38.577)" gradientUnits="userSpaceOnUse"><stop offset="0" stop-color="#424242"/><stop offset=".681" stop-color="#bdbdbd" stop-opacity=".864"/><stop offset="1" stop-color="#f2f2f2" stop-opacity=".8"/></radialGradient><path fill="url(#8HCICS8ELaTW4HUC2XMakj)" d="M21.165,1.436c-0.987,0.148-1.856,0.494-2.383,1.045 c-0.549,0.532-0.796,1.223-0.919,1.927c-0.22,1.428,0.107,2.936,0.588,4.385c0.548,1.481,1.093,3.14,1.175,4.802 c0.063,0.833-0.008,1.692-0.288,2.525c-0.154,0.412-0.351,0.822-0.671,1.175c-0.305,0.349-0.737,0.662-1.238,0.742 c0.409-0.236,0.618-0.598,0.759-0.947c0.136-0.355,0.2-0.725,0.204-1.1c0.034-0.747-0.103-1.502-0.285-2.252 c-0.362-1.521-0.971-2.935-1.557-4.508c-0.553-1.615-0.78-3.373-0.2-5.091c0.293-0.846,0.859-1.697,1.775-2.246 C19.049,1.348,20.203,1.222,21.165,1.436z M23.463,1.892c-0.917,0.549-1.482,1.401-1.775,2.246c-0.581,1.718-0.353,3.476,0.2,5.091 c0.586,1.574,1.194,2.987,1.557,4.508c0.183,0.75,0.319,1.505,0.285,2.252c-0.004,0.375-0.068,0.745-0.204,1.1 c-0.141,0.348-0.35,0.71-0.759,0.947c0.501-0.08,0.933-0.393,1.238-0.742c0.32-0.353,0.517-0.764,0.671-1.175 c0.28-0.833,0.351-1.692,0.288-2.525c-0.082-1.662-0.627-3.32-1.175-4.802c-0.481-1.449-0.808-2.957-0.588-4.385 c0.123-0.703,0.37-1.394,0.919-1.927c0.526-0.551,1.395-0.897,2.383-1.045C25.54,1.222,24.386,1.348,23.463,1.892z M28.8,1.892 c-0.917,0.549-1.482,1.401-1.775,2.246c-0.581,1.718-0.353,3.476,0.2,5.091c0.586,1.574,1.194,2.987,1.557,4.508 c0.183,0.75,0.319,1.505,0.285,2.252c-0.004,0.375-0.068,0.745-0.204,1.1c-0.141,0.348-0.35,0.71-0.759,0.947 c0.501-0.08,0.933-0.393,1.238-0.742c0.32-0.353,0.517-0.764,0.671-1.175c0.28-0.833,0.351-1.692,0.288-2.525 c-0.082-1.662-0.627-3.32-1.175-4.802c-0.481-1.449-0.808-2.957-0.588-4.385c0.123-0.703,0.37-1.394,0.919-1.927 c0.526-0.551,1.395-0.897,2.383-1.045C30.877,1.222,29.724,1.348,28.8,1.892z" opacity=".43"/></svg>