<svg xmlns="http://www.w3.org/2000/svg" viewBox="0 0 48 48"><radialGradient id="vI3dYUDcBUElxoUglG2iVa" cx="24.66" cy="21.395" r="35.954" gradientTransform="matrix(1 0 0 .7987 0 4.307)" gradientUnits="userSpaceOnUse"><stop offset=".005" stop-color="#b56f2f"/><stop offset=".273" stop-color="#965b26"/><stop offset=".761" stop-color="#633a17"/><stop offset="1" stop-color="#4f2d11"/></radialGradient><path fill="url(#vI3dYUDcBUElxoUglG2iVa)" d="M40.028,42.545H8.288c-4.229-1.667-1.998-16.213,1.553-23.411 c0.279-0.566,0.769-1.002,1.377-1.171c7.495-2.086,18.062-2.045,25.601-0.004c0.629,0.17,1.135,0.622,1.41,1.214 C41.564,26.342,43.849,40.881,40.028,42.545z"/><radialGradient id="vI3dYUDcBUElxoUglG2iVb" cx="14.827" cy="24.72" r="7.131" gradientUnits="userSpaceOnUse"><stop offset=".005" stop-color="#e0a048"/><stop offset=".036" stop-color="#d99b46"/><stop offset=".231" stop-color="#b57d39"/><stop offset=".427" stop-color="#986530"/><stop offset=".621" stop-color="#835429"/><stop offset=".813" stop-color="#774a24"/><stop offset="1" stop-color="#734723"/></radialGradient><path fill="url(#vI3dYUDcBUElxoUglG2iVb)" d="M16.987,27.93h-4.32v-4.629l1.145-1.791h1.976l1.2,1.787V27.93z M13.427,27.17h2.801v-3.643 l-0.845-1.258h-1.155l-0.801,1.254V27.17z"/><polygon fill="#d69740" points="15.585,21.89 16.607,23.412 16.607,27.55 13.047,27.55 13.047,23.412 14.02,21.89"/><radialGradient id="vI3dYUDcBUElxoUglG2iVc" cx="33.172" cy="24.724" r="7.131" gradientUnits="userSpaceOnUse"><stop offset=".005" stop-color="#e0a048"/><stop offset=".036" stop-color="#d99b46"/><stop offset=".231" stop-color="#b57d39"/><stop offset=".427" stop-color="#986530"/><stop offset=".621" stop-color="#835429"/><stop offset=".813" stop-color="#774a24"/><stop offset="1" stop-color="#734723"/></radialGradient><path fill="url(#vI3dYUDcBUElxoUglG2iVc)" d="M35.332,27.934h-4.32v-4.629l1.145-1.791h1.976l1.2,1.787V27.934z M31.772,27.174h2.801 v-3.643l-0.845-1.258h-1.155l-0.801,1.254V27.174z"/><polygon fill="#d69740" points="33.93,21.894 34.952,23.416 34.952,27.554 31.392,27.554 31.392,23.416 32.365,21.894"/><path fill="#734723" d="M32.156,21.514C32.155,21.374,31.864,7.479,24,7.479c-7.995,0-8.212,13.895-8.213,14.035h-1.981 C13.81,20.859,14.004,5.455,24,5.455c9.858,0,10.126,15.404,10.133,16.059H32.156z"/><path fill="#744823" d="M32.162,21.514C32.161,21.374,31.87,7.472,24,7.472c-8.001,0-8.218,13.901-8.219,14.042l-1.969,0 C13.816,20.864,14.01,5.461,24,5.461c9.852,0,10.12,15.398,10.127,16.053L32.162,21.514z"/><path fill="#754924" d="M32.168,21.514C32.167,21.374,31.877,7.466,24,7.466c-8.007,0-8.224,13.908-8.225,14.048l-1.957,0 C13.822,20.869,14.016,5.468,24,5.468c9.846,0,10.113,15.392,10.12,16.046L32.168,21.514z"/><path fill="#764924" d="M32.174,21.514C32.173,21.374,31.883,7.46,24,7.46c-8.013,0-8.23,13.914-8.231,14.054l-1.945,0 c0.004-0.64,0.198-16.04,10.176-16.04c9.84,0,10.107,15.385,10.114,16.04L32.174,21.514z"/><path fill="#774a24" d="M32.18,21.514c-0.001-0.141-0.291-14.06-8.18-14.06c-8.02,0-8.236,13.92-8.237,14.06l-1.933,0 C13.834,20.879,14.028,5.48,24,5.48c9.833,0,10.101,15.379,10.108,16.033L32.18,21.514z"/><path fill="#784b24" d="M32.186,21.514C32.185,21.373,31.895,7.447,24,7.447c-8.026,0-8.243,13.926-8.244,14.067l-1.92,0 C13.84,20.883,14.035,5.487,24,5.487c9.827,0,10.095,15.373,10.102,16.027L32.186,21.514z"/><path fill="#794c25" d="M32.192,21.514C32.191,21.373,31.902,7.441,24,7.441c-8.032,0-8.249,13.932-8.25,14.073l-1.908,0 C13.846,20.888,14.041,5.493,24,5.493c9.821,0,10.089,15.367,10.095,16.02L32.192,21.514z"/><path fill="#7a4d25" d="M32.198,21.514C32.197,21.373,31.908,7.434,24,7.434c-8.039,0-8.255,13.938-8.256,14.079l-1.896,0 C13.853,20.893,14.047,5.499,24,5.499c9.815,0,10.082,15.361,10.089,16.014L32.198,21.514z"/><path fill="#7b4d25" d="M32.204,21.514C32.202,21.373,31.914,7.428,24,7.428c-8.045,0-8.261,13.945-8.262,14.085l-1.884,0 C13.859,20.898,14.053,5.506,24,5.506c9.809,0,10.076,15.354,10.083,16.007L32.204,21.514z"/><path fill="#7c4e26" d="M32.21,21.514C32.208,21.373,31.92,7.422,24,7.422c-8.051,0-8.267,13.951-8.268,14.092 l-1.871-0.001C13.865,20.903,14.059,5.512,24,5.512c9.802,0,10.07,15.348,10.077,16.001L32.21,21.514z"/><path fill="#7d4f26" d="M32.216,21.514C32.214,21.373,31.927,7.416,24,7.416c-8.057,0-8.273,13.957-8.274,14.098 l-1.859-0.001C13.871,20.908,14.066,5.518,24,5.518c9.796,0,10.064,15.342,10.07,15.994L32.216,21.514z"/><path fill="#7e5026" d="M32.222,21.513C32.22,21.372,31.933,7.409,24,7.409c-8.064,0-8.28,13.963-8.281,14.104 l-1.847-0.001C13.877,20.913,14.072,5.525,24,5.525c9.79,0,10.057,15.336,10.064,15.988L32.222,21.513z"/><path fill="#7f5126" d="M32.228,21.513C32.226,21.372,31.939,7.403,24,7.403c-8.07,0-8.286,13.969-8.287,14.11 l-1.835-0.001C13.883,20.918,14.078,5.531,24,5.531c9.784,0,10.051,15.329,10.058,15.981L32.228,21.513z"/><path fill="#805127" d="M32.234,21.513C32.232,21.372,31.946,7.397,24,7.397c-8.076,0-8.292,13.975-8.293,14.117 l-1.823-0.001c0.004-0.59,0.2-15.975,10.115-15.975c9.778,0,10.045,15.323,10.052,15.975L32.234,21.513z"/><path fill="#815227" d="M32.24,21.513C32.238,21.372,31.952,7.39,24,7.39c-8.083,0-8.298,13.982-8.299,14.123l-1.81-0.001 C13.895,20.927,14.091,5.544,24,5.544c9.772,0,10.039,15.317,10.046,15.969L32.24,21.513z"/><path fill="#825327" d="M32.246,21.513C32.244,21.372,31.958,7.384,24,7.384c-8.089,0-8.304,13.988-8.305,14.129 l-1.798-0.001C13.901,20.932,14.097,5.55,24,5.55c9.765,0,10.032,15.311,10.039,15.962L32.246,21.513z"/><path fill="#835428" d="M32.251,21.513C32.25,21.372,31.964,7.378,24,7.378c-8.095,0-8.31,13.994-8.311,14.135 l-1.786-0.001C13.907,20.937,14.103,5.556,24,5.556c9.759,0,10.026,15.305,10.033,15.956L32.251,21.513z"/><path fill="#845528" d="M32.257,21.513C32.256,21.372,31.971,7.371,24,7.371c-8.102,0-8.317,14-8.318,14.142l-1.774-0.001 c0.004-0.57,0.2-15.949,10.091-15.949c9.753,0,10.02,15.298,10.027,15.949L32.257,21.513z"/><path fill="#855528" d="M32.263,21.513C32.262,21.372,31.977,7.365,24,7.365c-8.108,0-8.323,14.006-8.324,14.148 l-1.761-0.001C13.919,20.947,14.115,5.569,24,5.569c9.747,0,10.014,15.292,10.021,15.943L32.263,21.513z"/><path fill="#865629" d="M32.269,21.513C32.268,21.371,31.983,7.359,24,7.359c-8.114,0-8.329,14.012-8.33,14.154 l-1.749-0.001C13.925,20.952,14.122,5.575,24,5.575c9.741,0,10.007,15.286,10.014,15.936L32.269,21.513z"/><path fill="#875729" d="M32.275,21.513C32.274,21.371,31.989,7.352,24,7.352c-8.12,0-8.335,14.019-8.336,14.16 l-1.737-0.001C13.931,20.957,14.128,5.582,24,5.582c9.734,0,10.001,15.28,10.008,15.93L32.275,21.513z"/><path fill="#885829" d="M32.281,21.513C32.28,21.371,31.996,7.346,24,7.346c-8.127,0-8.341,14.025-8.342,14.167 l-1.725-0.001C13.937,20.961,14.134,5.588,24,5.588c9.728,0,9.995,15.274,10.002,15.923L32.281,21.513z"/><path fill="#895929" d="M32.287,21.513C32.286,21.371,32.002,7.34,24,7.34c-8.133,0-8.347,14.031-8.348,14.173 l-1.712-0.001C13.943,20.966,14.14,5.594,24,5.594c9.722,0,9.989,15.267,9.996,15.917L32.287,21.513z"/><path fill="#8a592a" d="M32.293,21.513C32.292,21.371,32.008,7.333,24,7.333c-8.139,0-8.354,14.037-8.355,14.179 l-1.7-0.001C13.949,20.971,14.146,5.601,24,5.601c9.716,0,9.983,15.261,9.989,15.91L32.293,21.513z"/><path fill="#8b5a2a" d="M32.299,21.513C32.298,21.371,32.015,7.327,24,7.327c-8.146,0-8.36,14.043-8.361,14.185 l-1.688-0.001C13.955,20.976,14.153,5.607,24,5.607c9.71,0,9.976,15.255,9.983,15.904L32.299,21.513z"/><path fill="#8c5b2a" d="M32.305,21.512C32.303,21.371,32.021,7.321,24,7.321c-8.152,0-8.366,14.05-8.367,14.192 l-1.676-0.001C13.961,20.981,14.159,5.613,24,5.613c9.703,0,9.97,15.249,9.977,15.897L32.305,21.512z"/><path fill="#8d5c2b" d="M32.311,21.512C32.309,21.371,32.027,7.314,24,7.314c-8.158,0-8.372,14.056-8.373,14.198 l-1.664-0.002C13.967,20.986,14.165,5.619,24,5.619c9.697,0,9.964,15.242,9.971,15.891L32.311,21.512z"/><path fill="#8e5d2b" d="M32.317,21.512C32.315,21.37,32.033,7.308,24,7.308c-8.165,0-8.378,14.062-8.379,14.204 l-1.651-0.002C13.973,20.991,14.171,5.626,24,5.626c9.691,0,9.958,15.236,9.964,15.884L32.317,21.512z"/><path fill="#8f5d2b" d="M32.323,21.512C32.321,21.37,32.04,7.302,24,7.302c-8.171,0-8.385,14.068-8.385,14.21 l-1.639-0.002C13.979,20.995,14.178,5.632,24,5.632c9.685,0,9.951,15.23,9.958,15.878L32.323,21.512z"/><path fill="#905e2b" d="M32.329,21.512C32.327,21.37,32.046,7.295,24,7.295c-8.177,0-8.391,14.074-8.392,14.217 l-1.627-0.002C13.985,21,14.184,5.638,24,5.638c9.679,0,9.945,15.224,9.952,15.871L32.329,21.512z"/><path fill="#915f2c" d="M32.335,21.512C32.333,21.37,32.052,7.289,24,7.289c-8.183,0-8.397,14.08-8.398,14.223 l-1.615-0.002C13.991,21.005,14.19,5.645,24,5.645c9.673,0,9.939,15.218,9.946,15.865L32.335,21.512z"/><path fill="#92602c" d="M32.341,21.512C32.339,21.37,32.058,7.283,24,7.283c-8.19,0-8.403,14.087-8.404,14.229 l-1.602-0.002C13.997,21.01,14.196,5.651,24,5.651c9.666,0,9.933,15.211,9.94,15.859L32.341,21.512z"/><path fill="#93612c" d="M32.347,21.512C32.345,21.37,32.065,7.276,24,7.276c-8.196,0-8.409,14.093-8.41,14.235L14,21.51 c0.003-0.495,0.203-15.852,10-15.852c9.66,0,9.926,15.205,9.933,15.852L32.347,21.512z"/><path fill="#94612d" d="M32.352,21.512C32.351,21.37,32.071,7.27,24,7.27c-8.202,0-8.415,14.099-8.416,14.242 l-1.578-0.002C14.009,21.02,14.209,5.664,24,5.664c9.654,0,9.92,15.199,9.927,15.846L32.352,21.512z"/><path fill="#95622d" d="M32.358,21.512C32.357,21.37,32.077,7.264,24,7.264c-8.209,0-8.422,14.105-8.423,14.248 l-1.566-0.002C14.015,21.025,14.215,5.67,24,5.67c9.648,0,9.914,15.193,9.921,15.839L32.358,21.512z"/><path fill="#96632d" d="M32.364,21.512C32.363,21.369,32.084,7.257,24,7.257c-8.215,0-8.428,14.111-8.429,14.254 l-1.554-0.002C14.021,21.03,14.221,5.676,24,5.676c9.642,0,9.908,15.186,9.915,15.833L32.364,21.512z"/><path fill="#97642d" d="M32.37,21.512C32.369,21.369,32.09,7.251,24,7.251c-8.221,0-8.434,14.117-8.435,14.26 l-1.541-0.002C14.027,21.034,14.227,5.683,24,5.683c9.635,0,9.901,15.18,9.908,15.826L32.37,21.512z"/><path fill="#98652e" d="M32.376,21.512C32.375,21.369,32.096,7.245,24,7.245c-8.228,0-8.44,14.124-8.441,14.267 l-1.529-0.002c0.003-0.47,0.204-15.82,9.97-15.82c9.629,0,9.895,15.174,9.902,15.82L32.376,21.512z"/><path fill="#99652e" d="M32.382,21.512C32.381,21.369,32.102,7.238,24,7.238c-8.234,0-8.446,14.13-8.447,14.273 l-1.517-0.002C14.039,21.044,14.24,5.695,24,5.695c9.623,0,9.889,15.168,9.896,15.813L32.382,21.512z"/><path fill="#9a662e" d="M32.388,21.512C32.387,21.369,32.109,7.232,24,7.232c-8.24,0-8.452,14.136-8.453,14.279 l-1.505-0.002C14.045,21.049,14.246,5.702,24,5.702c9.617,0,9.883,15.162,9.89,15.807L32.388,21.512z"/><path fill="#9b672f" d="M32.394,21.511C32.393,21.369,32.115,7.226,24,7.226c-8.246,0-8.459,14.142-8.46,14.285 l-1.492-0.002C14.051,21.054,14.252,5.708,24,5.708c9.611,0,9.877,15.155,9.883,15.8L32.394,21.511z"/><path fill="#9c682f" d="M32.4,21.511C32.399,21.369,32.121,7.219,24,7.219c-8.253,0-8.465,14.148-8.466,14.292 l-1.48-0.002C14.057,21.059,14.258,5.714,24,5.714c9.605,0,9.87,15.149,9.877,15.794L32.4,21.511z"/><path fill="#9d692f" d="M32.406,21.511C32.404,21.369,32.127,7.213,24,7.213c-8.259,0-8.471,14.155-8.472,14.298 l-1.468-0.002C14.063,21.064,14.265,5.721,24,5.721c9.598,0,9.864,15.143,9.871,15.787L32.406,21.511z"/><path fill="#9e692f" d="M32.412,21.511C32.41,21.368,32.134,7.207,24,7.207c-8.265,0-8.477,14.161-8.478,14.304 l-1.456-0.003C14.069,21.069,14.271,5.727,24,5.727c9.592,0,9.858,15.137,9.865,15.781L32.412,21.511z"/><path fill="#9f6a30" d="M32.418,21.511C32.416,21.368,32.14,7.2,24,7.2c-8.272,0-8.483,14.167-8.484,14.31l-1.444-0.003 C14.075,21.073,14.277,5.733,24,5.733c9.586,0,9.852,15.131,9.858,15.774L32.418,21.511z"/><path fill="#a06b30" d="M32.424,21.511C32.422,21.368,32.146,7.194,24,7.194c-8.278,0-8.489,14.173-8.49,14.316 l-1.431-0.003C14.081,21.078,14.283,5.74,24,5.74c9.58,0,9.845,15.124,9.852,15.768L32.424,21.511z"/><path fill="#a16c30" d="M32.43,21.511C32.428,21.368,32.152,7.188,24,7.188c-8.284,0-8.496,14.179-8.497,14.323 l-1.419-0.003C14.087,21.083,14.289,5.746,24,5.746c9.574,0,9.839,15.118,9.846,15.761L32.43,21.511z"/><path fill="#a26d31" d="M32.436,21.511C32.434,21.368,32.159,7.182,24,7.182c-8.291,0-8.502,14.185-8.503,14.329 l-1.407-0.003c0.003-0.42,0.205-15.755,9.91-15.755c9.567,0,9.833,15.112,9.84,15.755L32.436,21.511z"/><path fill="#a36d31" d="M32.442,21.511C32.44,21.368,32.165,7.175,24,7.175c-8.297,0-8.508,14.192-8.509,14.335 l-1.395-0.003C14.099,21.093,14.302,5.759,24,5.759c9.561,0,9.827,15.106,9.834,15.748L32.442,21.511z"/><path fill="#a46e31" d="M32.448,21.511C32.446,21.368,32.171,7.169,24,7.169c-8.303,0-8.514,14.198-8.515,14.341 l-1.382-0.003C14.105,21.098,14.308,5.765,24,5.765c9.555,0,9.82,15.099,9.827,15.742L32.448,21.511z"/><path fill="#a46f31" d="M32.453,21.511C32.452,21.367,32.178,7.163,24,7.163c-8.309,0-8.52,14.204-8.521,14.348 l-1.37-0.003C14.111,21.103,14.314,5.771,24,5.771c9.549,0,9.814,15.093,9.821,15.736L32.453,21.511z"/><path fill="#a57032" d="M32.459,21.511C32.458,21.367,32.184,7.156,24,7.156c-8.316,0-8.526,14.21-8.527,14.354 l-1.358-0.003c0.003-0.4,0.206-15.73,9.885-15.73c9.543,0,9.808,15.087,9.815,15.729L32.459,21.511z"/><path fill="#a67132" d="M32.465,21.511C32.464,21.367,32.19,7.15,24,7.15c-8.322,0-8.533,14.216-8.534,14.36l-1.346-0.003 C14.123,21.112,14.327,5.784,24,5.784c9.536,0,9.802,15.081,9.809,15.723L32.465,21.511z"/><path fill="#a77132" d="M32.471,21.511C32.47,21.367,32.196,7.144,24,7.144c-8.328,0-8.539,14.222-8.54,14.366 l-1.333-0.003C14.129,21.117,14.333,5.79,24,5.79c9.53,0,9.795,15.075,9.802,15.716L32.471,21.511z"/><path fill="#a87233" d="M32.477,21.51C32.476,21.367,32.203,7.137,24,7.137c-8.335,0-8.545,14.229-8.546,14.373 l-1.321-0.003c0.003-0.385,0.206-15.71,9.867-15.71c9.524,0,9.789,15.068,9.796,15.71L32.477,21.51z"/><path fill="#a97333" d="M32.483,21.51C32.482,21.367,32.209,7.131,24,7.131c-8.341,0-8.551,14.235-8.552,14.379 l-1.309-0.003C14.141,21.127,14.345,5.803,24,5.803c9.518,0,9.783,15.062,9.79,15.703L32.483,21.51z"/><path fill="#aa7433" d="M32.489,21.51C32.488,21.367,32.215,7.125,24,7.125c-8.347,0-8.557,14.241-8.558,14.385 l-1.297-0.003C14.147,21.132,14.352,5.809,24,5.809c9.512,0,9.777,15.056,9.784,15.697L32.489,21.51z"/><path fill="#ab7534" d="M32.495,21.51C32.494,21.367,32.221,7.118,24,7.118c-8.354,0-8.564,14.247-8.565,14.391 l-1.285-0.003C14.153,21.137,14.358,5.816,24,5.816c9.506,0,9.771,15.05,9.777,15.69L32.495,21.51z"/><path fill="#ac7534" d="M32.501,21.51C32.499,21.366,32.228,7.112,24,7.112c-8.36,0-8.57,14.253-8.571,14.398 l-1.272-0.003C14.159,21.142,14.364,5.822,24,5.822c9.499,0,9.764,15.044,9.771,15.684L32.501,21.51z"/><path fill="#ad7634" d="M32.507,21.51C32.505,21.366,32.234,7.106,24,7.106c-8.366,0-8.576,14.26-8.577,14.404 l-1.26-0.003C14.165,21.147,14.37,5.828,24,5.828c9.493,0,9.758,15.037,9.765,15.677L32.507,21.51z"/><path fill="#ae7734" d="M32.513,21.51C32.511,21.366,32.24,7.099,24,7.099c-8.372,0-8.582,14.266-8.583,14.41 l-1.248-0.004C14.171,21.151,14.376,5.834,24,5.834c9.487,0,9.752,15.031,9.759,15.671L32.513,21.51z"/><path fill="#af7835" d="M32.519,21.51C32.517,21.366,32.247,7.093,24,7.093c-8.379,0-8.588,14.272-8.589,14.416 l-1.236-0.004C14.177,21.156,14.383,5.841,24,5.841c9.481,0,9.746,15.025,9.752,15.664L32.519,21.51z"/><path fill="#b07935" d="M32.525,21.51C32.523,21.366,32.253,7.087,24,7.087c-8.385,0-8.594,14.278-8.595,14.423 l-1.223-0.004C14.183,21.161,14.389,5.847,24,5.847c9.475,0,9.739,15.019,9.746,15.658L32.525,21.51z"/><path fill="#b17935" d="M32.531,21.51C32.529,21.366,32.259,7.08,24,7.08c-8.391,0-8.601,14.284-8.602,14.429 l-1.211-0.004C14.189,21.166,14.395,5.853,24,5.853c9.468,0,9.733,15.012,9.74,15.651L32.531,21.51z"/><path fill="#b27a36" d="M32.537,21.51C32.535,21.366,32.265,7.074,24,7.074c-8.398,0-8.607,14.29-8.608,14.435 l-1.199-0.004C14.195,21.171,14.401,5.86,24,5.86c9.462,0,9.727,15.006,9.734,15.645L32.537,21.51z"/><path fill="#b37b36" d="M32.543,21.51C32.541,21.366,32.272,7.068,24,7.068c-8.404,0-8.613,14.297-8.614,14.441 l-1.187-0.004C14.202,21.176,14.408,5.866,24,5.866c9.456,0,9.721,15,9.728,15.638L32.543,21.51z"/><path fill="#b47c36" d="M32.548,21.51C32.547,21.365,32.278,7.061,24,7.061c-8.41,0-8.619,14.303-8.62,14.448 l-1.175-0.004C14.208,21.181,14.414,5.872,24,5.872c9.45,0,9.714,14.994,9.721,15.632L32.548,21.51z"/><path fill="#b57d36" d="M32.554,21.51C32.553,21.365,32.284,7.055,24,7.055c-8.417,0-8.625,14.309-8.626,14.454 l-1.162-0.004C14.214,21.185,14.42,5.879,24,5.879c9.444,0,9.708,14.988,9.715,15.626L32.554,21.51z"/><path fill="#b67d37" d="M32.56,21.51C32.559,21.365,32.29,7.049,24,7.049c-8.423,0-8.631,14.315-8.632,14.46l-1.15-0.004 C14.22,21.19,14.426,5.885,24,5.885c9.437,0,9.702,14.981,9.709,15.619L32.56,21.51z"/><path fill="#b77e37" d="M32.566,21.509C32.565,21.365,32.297,7.042,24,7.042c-8.429,0-8.638,14.321-8.639,14.466 l-1.138-0.004C14.226,21.195,14.432,5.891,24,5.891c9.431,0,9.696,14.975,9.703,15.613L32.566,21.509z"/><path fill="#b87f37" d="M32.572,21.509C32.571,21.365,32.303,7.036,24,7.036c-8.435,0-8.644,14.327-8.645,14.473 l-1.126-0.004C14.232,21.2,14.439,5.898,24,5.898c9.425,0,9.689,14.969,9.696,15.606L32.572,21.509z"/><path fill="#b98038" d="M32.578,21.509C32.577,21.365,32.309,7.03,24,7.03c-8.442,0-8.65,14.334-8.651,14.479 l-1.113-0.004c0.002-0.299,0.209-15.6,9.764-15.6c9.419,0,9.683,14.963,9.69,15.6L32.578,21.509z"/><path fill="#ba8138" d="M32.584,21.509C32.583,21.365,32.315,7.023,24,7.023c-8.448,0-8.656,14.34-8.657,14.485 l-1.101-0.004C14.244,21.21,14.451,5.91,24,5.91c9.413,0,9.677,14.957,9.684,15.593L32.584,21.509z"/><path fill="#bb8138" d="M32.59,21.509C32.589,21.365,32.322,7.017,24,7.017c-8.454,0-8.662,14.346-8.663,14.491 l-1.089-0.004C14.25,21.215,14.457,5.917,24,5.917c9.407,0,9.671,14.95,9.678,15.587L32.59,21.509z"/><path fill="#bc8238" d="M32.596,21.509C32.595,21.364,32.328,7.011,24,7.011c-8.461,0-8.668,14.352-8.669,14.498 l-1.077-0.004C14.256,21.22,14.463,5.923,24,5.923c9.4,0,9.665,14.944,9.671,15.58L32.596,21.509z"/><path fill="#bd8339" d="M32.602,21.509C32.6,21.364,32.334,7.004,24,7.004c-8.467,0-8.675,14.358-8.676,14.504 l-1.065-0.004C14.262,21.224,14.47,5.929,24,5.929c9.394,0,9.658,14.938,9.665,15.574L32.602,21.509z"/><path fill="#be8439" d="M32.608,21.509C32.606,21.364,32.341,6.998,24,6.998c-8.473,0-8.681,14.365-8.682,14.51 l-1.052-0.005C14.268,21.229,14.476,5.936,24,5.936c9.388,0,9.652,14.932,9.659,15.567L32.608,21.509z"/><path fill="#bf8539" d="M32.614,21.509C32.612,21.364,32.347,6.992,24,6.992c-8.48,0-8.687,14.371-8.688,14.516 l-1.04-0.005C14.274,21.234,14.482,5.942,24,5.942c9.382,0,9.646,14.925,9.653,15.561L32.614,21.509z"/><path fill="#c0853a" d="M32.62,21.509C32.618,21.364,32.353,6.985,24,6.985c-8.486,0-8.693,14.377-8.694,14.523 l-1.028-0.005C14.28,21.239,14.488,5.948,24,5.948c9.376,0,9.64,14.919,9.646,15.554L32.62,21.509z"/><path fill="#c1863a" d="M32.626,21.509C32.624,21.364,32.359,6.979,24,6.979c-8.492,0-8.699,14.383-8.7,14.529 l-1.016-0.005C14.286,21.244,14.495,5.955,24,5.955c9.369,0,9.633,14.913,9.64,15.548L32.626,21.509z"/><path fill="#c2873a" d="M32.632,21.509C32.63,21.364,32.366,6.973,24,6.973c-8.498,0-8.706,14.389-8.707,14.535 l-1.003-0.005C14.292,21.249,14.501,5.961,24,5.961c9.363,0,9.627,14.907,9.634,15.541L32.632,21.509z"/><path fill="#c3883a" d="M32.638,21.509C32.636,21.363,32.372,6.967,24,6.967c-8.505,0-8.712,14.395-8.713,14.541 l-0.991-0.005C14.298,21.254,14.507,5.967,24,5.967c9.357,0,9.621,14.901,9.628,15.535L32.638,21.509z"/><path fill="#c4893b" d="M32.644,21.509C32.642,21.363,32.378,6.96,24,6.96c-8.511,0-8.718,14.402-8.719,14.548 l-0.979-0.005C14.304,21.259,14.513,5.974,24,5.974c9.351,0,9.615,14.894,9.622,15.528L32.644,21.509z"/><path fill="#c5893b" d="M32.649,21.508C32.648,21.363,32.384,6.954,24,6.954c-8.517,0-8.724,14.408-8.725,14.554 l-0.967-0.005C14.31,21.263,14.519,5.98,24,5.98c9.345,0,9.608,14.888,9.615,15.522L32.649,21.508z"/><path fill="#c68a3b" d="M32.655,21.508C32.654,21.363,32.391,6.948,24,6.948c-8.524,0-8.73,14.414-8.731,14.56 l-0.954-0.005C14.316,21.268,14.526,5.986,24,5.986c9.339,0,9.602,14.882,9.609,15.515L32.655,21.508z"/><path fill="#c78b3c" d="M32.661,21.508C32.66,21.363,32.397,6.941,24,6.941c-8.53,0-8.736,14.42-8.737,14.566 l-0.942-0.005c0.002-0.229,0.211-15.51,9.68-15.51c9.332,0,9.596,14.876,9.603,15.509L32.661,21.508z"/><path fill="#c88c3c" d="M32.667,21.508C32.666,21.363,32.403,6.935,24,6.935c-8.536,0-8.743,14.426-8.744,14.573 l-0.93-0.005C14.328,21.278,14.538,5.999,24,5.999c9.326,0,9.59,14.87,9.597,15.503L32.667,21.508z"/><path fill="#c98d3c" d="M32.673,21.508C32.672,21.363,32.41,6.929,24,6.929c-8.543,0-8.749,14.432-8.75,14.579 l-0.918-0.005C14.334,21.283,14.544,6.005,24,6.005c9.32,0,9.583,14.863,9.59,15.496L32.673,21.508z"/><path fill="#ca8d3d" d="M32.679,21.508C32.678,21.363,32.416,6.922,24,6.922c-8.549,0-8.755,14.439-8.756,14.585 l-0.906-0.005C14.34,21.288,14.55,6.012,24,6.012c9.314,0,9.577,14.857,9.584,15.49L32.679,21.508z"/><path fill="#cb8e3d" d="M32.685,21.508C32.684,21.362,32.422,6.916,24,6.916c-8.555,0-8.761,14.445-8.762,14.591 l-0.893-0.005C14.346,21.293,14.557,6.018,24,6.018c9.308,0,9.571,14.851,9.578,15.483L32.685,21.508z"/><path fill="#cc8f3d" d="M32.691,21.508C32.69,21.362,32.428,6.91,24,6.91c-8.561,0-8.767,14.451-8.768,14.598 l-0.881-0.005C14.352,21.298,14.563,6.024,24,6.024c9.301,0,9.565,14.845,9.572,15.477L32.691,21.508z"/><path fill="#cd903d" d="M32.697,21.508C32.695,21.362,32.435,6.903,24,6.903c-8.568,0-8.773,14.457-8.774,14.604 l-0.869-0.005C14.358,21.302,14.569,6.031,24,6.031c9.295,0,9.559,14.838,9.565,15.47L32.697,21.508z"/><path fill="#ce913e" d="M32.703,21.508C32.701,21.362,32.441,6.897,24,6.897c-8.574,0-8.78,14.463-8.781,14.61 l-0.857-0.005C14.364,21.307,14.575,6.037,24,6.037c9.289,0,9.552,14.832,9.559,15.464L32.703,21.508z"/><path fill="#cf913e" d="M32.709,21.508C32.707,21.362,32.447,6.891,24,6.891c-8.58,0-8.786,14.47-8.787,14.616 l-0.844-0.006C14.37,21.312,14.582,6.043,24,6.043c9.283,0,9.546,14.826,9.553,15.457L32.709,21.508z"/><path fill="#d0923e" d="M32.715,21.508C32.713,21.362,32.453,6.884,24,6.884c-8.587,0-8.792,14.476-8.793,14.622 l-0.832-0.006C14.376,21.317,14.588,6.05,24,6.05c9.277,0,9.54,14.82,9.547,15.451L32.715,21.508z"/><path fill="#d1933f" d="M32.721,21.508C32.719,21.362,32.46,6.878,24,6.878c-8.593,0-8.798,14.482-8.799,14.629 l-0.82-0.006C14.382,21.322,14.594,6.056,24,6.056c9.27,0,9.534,14.814,9.54,15.444L32.721,21.508z"/><path fill="#d2943f" d="M32.727,21.508C32.725,21.362,32.466,6.872,24,6.872c-8.599,0-8.804,14.488-8.805,14.635 l-0.808-0.006C14.388,21.327,14.6,6.062,24,6.062c9.264,0,9.527,14.807,9.534,15.438L32.727,21.508z"/><path fill="#d3953f" d="M32.733,21.508C32.731,21.361,32.472,6.865,24,6.865c-8.606,0-8.81,14.494-8.811,14.641 l-0.796-0.006C14.394,21.332,14.606,6.068,24,6.068c9.258,0,9.521,14.801,9.528,15.431L32.733,21.508z"/><path fill="#d4953f" d="M32.739,21.507C32.737,21.361,32.479,6.859,24,6.859c-8.612,0-8.817,14.5-8.818,14.647 l-0.783-0.006C14.4,21.336,14.613,6.075,24,6.075c9.252,0,9.515,14.795,9.522,15.425L32.739,21.507z"/><path fill="#d59640" d="M32.744,21.507C32.743,21.361,32.485,6.853,24,6.853c-8.618,0-8.823,14.507-8.824,14.654 l-0.771-0.006C14.406,21.341,14.619,6.081,24,6.081c9.246,0,9.509,14.789,9.516,15.418L32.744,21.507z"/><path fill="#d69740" d="M32.75,21.507C32.749,21.361,32.491,6.846,24,6.846c-8.624,0-8.829,14.513-8.83,14.66L14.411,21.5 C14.412,21.346,14.625,6.087,24,6.087c9.24,0,9.502,14.782,9.509,15.412L32.75,21.507z"/><linearGradient id="vI3dYUDcBUElxoUglG2iVd" x1="24" x2="24" y1="23.733" y2="16.709" gradientUnits="userSpaceOnUse"><stop offset="0" stop-color="#9e4128"/><stop offset=".036" stop-color="#a64b28"/><stop offset=".222" stop-color="#cc7927"/><stop offset=".387" stop-color="#e89b26"/><stop offset=".524" stop-color="#f9b026"/><stop offset=".615" stop-color="#ffb726"/><stop offset=".681" stop-color="#ffb92b"/><stop offset=".756" stop-color="#ffbd38"/><stop offset=".836" stop-color="#ffc54f"/><stop offset=".918" stop-color="#ffcf6f"/><stop offset="1" stop-color="#ffdc96"/></linearGradient><polygon fill="url(#vI3dYUDcBUElxoUglG2iVd)" points="21.628,22.065 21.628,20.964 26.372,20.964 26.372,22.065"/><rect width="4.432" height=".822" x="21.784" y="21.104" fill="#ffb726"/></svg>