<svg xmlns="http://www.w3.org/2000/svg" viewBox="0 0 48 48"><linearGradient id="a9FyWWdZBWwgkShGOE5KJa" x1="34.112" x2="17.674" y1="-1.287" y2="56.434" gradientTransform="rotate(31.643 24.172 25.947)" gradientUnits="userSpaceOnUse"><stop offset=".396" stop-color="#383838"/><stop offset=".418" stop-color="#313131"/><stop offset=".518" stop-color="#161616"/><stop offset=".606" stop-color="#060606"/><stop offset=".674"/></linearGradient><path fill="url(#a9FyWWdZBWwgkShGOE5KJa)" d="M24.787,36.409c-2.652-1.634-5.067-3.322-6.189-4.197c-0.909-0.709-2.788-1.87-4.778-3.1 c-2.892-1.786-6.171-3.811-7.658-5.176c-2.693-2.474-1.473-5.235-1.445-5.357c0,0,6.019-2.084,6.348-1.984l32.253,20.179 l0.231,0.852c-0.143,1.205-0.507,2.172-1.501,2.726c-2.779,1.548-6.419,0.895-8.849,0.228c-2.446-0.671-5.924-2.639-8.412-4.171 C24.788,36.409,24.788,36.409,24.787,36.409z"/><linearGradient id="a9FyWWdZBWwgkShGOE5KJb" x1="28.357" x2="13.258" y1="18.494" y2="71.512" gradientTransform="rotate(31.643 24.172 25.947)" gradientUnits="userSpaceOnUse"><stop offset=".133" stop-color="#dedede"/><stop offset=".207" stop-color="#c9c9c8"/><stop offset=".36" stop-color="#94928f"/><stop offset=".447" stop-color="#73706c"/></linearGradient><path fill="url(#a9FyWWdZBWwgkShGOE5KJb)" d="M8.997,16.009c0,0-0.744-0.226-0.998,0.036c-0.254,0.262-3.282,2.534-3.282,2.534 S4.48,20.85,6.944,23.112s9.768,6.856,12.028,8.621s10.172,7.106,14.388,8.262c4.215,1.156,9.718,1.619,10.19-2.369L8.997,16.009z"/><linearGradient id="a9FyWWdZBWwgkShGOE5KJc" x1="26.162" x2="16.661" y1="6.334" y2="23.198" gradientTransform="rotate(31.643 24.172 25.947)" gradientUnits="userSpaceOnUse"><stop offset=".477" stop-color="#383838"/><stop offset=".517" stop-color="#313131"/><stop offset=".706" stop-color="#161616"/><stop offset=".873" stop-color="#060606"/><stop offset="1"/></linearGradient><path fill="url(#a9FyWWdZBWwgkShGOE5KJc)" d="M21.732,15.977c0,0,0.59-1.965,1.265-2.637c0.831-0.827,2.761-2.482,3.317-2.14 c0.531,0.327,3.238,5.552,2.825,7.808L21.732,15.977z"/><linearGradient id="a9FyWWdZBWwgkShGOE5KJd" x1="32.521" x2="18.62" y1="-.107" y2="47.367" gradientTransform="rotate(31.643 24.172 25.947)" gradientUnits="userSpaceOnUse"><stop offset=".396" stop-color="#383838"/><stop offset=".418" stop-color="#313131"/><stop offset=".518" stop-color="#161616"/><stop offset=".606" stop-color="#060606"/><stop offset=".674"/></linearGradient><path fill="url(#a9FyWWdZBWwgkShGOE5KJd)" d="M16.807,7.108c-0.668-0.501-1.799-0.551-2.3-0.116s0.892,1.549-3.26,4.441 c-1.405,0.979-2.287,3.002-2.739,4.49c0,0-0.671,0.591,7.283,6.411c5.532,4.048,8.943,8.935,15.756,13.057 c7.297,4.416,12.203,4.632,12.03,1.602c-0.144-2.522-9.937-6.96-12.248-13.295c-1.968-5.394-1.238-6.313-3.9-7.954 c-2.359-1.453-8.847,0.173-10.317-3.476C16.809,11.517,17.841,7.884,16.807,7.108z"/><linearGradient id="a9FyWWdZBWwgkShGOE5KJe" x1="24.036" x2="18.822" y1="15.071" y2="32.879" gradientTransform="rotate(31.647 20.626 38.467) skewX(-14.997)" gradientUnits="userSpaceOnUse"><stop offset=".185" stop-color="#dedede"/><stop offset=".284" stop-color="#d0cfcf"/><stop offset=".773" stop-color="#8d8b88"/><stop offset="1" stop-color="#73706c"/></linearGradient><path fill="url(#a9FyWWdZBWwgkShGOE5KJe)" d="M19.6,23.368l-1.123-1.161l6.076-1.455l1.123,1.161L19.6,23.368z M28.118,24.319 l-1.123-1.161l-6.076,1.455l1.123,1.161L28.118,24.319z"/><circle cx="28.6" cy="19.125" r=".673" fill="#262626"/><linearGradient id="a9FyWWdZBWwgkShGOE5KJf" x1="10.918" x2="13.537" y1="-24.961" y2="-22.633" gradientTransform="matrix(.5592 .6117 -.6305 .5763 7.494 24.078)" gradientUnits="userSpaceOnUse"><stop offset=".748" stop-color="#d4d4d4"/><stop offset=".824" stop-color="#b1b1b1"/><stop offset=".942" stop-color="#818181"/><stop offset="1" stop-color="#6e6e6e"/></linearGradient><path fill="url(#a9FyWWdZBWwgkShGOE5KJf)" d="M28.34,19.407c-0.059-0.065-0.097-0.149-0.104-0.244c-0.015-0.229,0.158-0.432,0.388-0.455 l1.361-0.144c0.23-0.023,0.429,0.145,0.445,0.374c0.015,0.229-0.158,0.432-0.388,0.455l-1.361,0.144 C28.546,19.549,28.423,19.498,28.34,19.407z"/><circle cx="29.246" cy="21.037" r=".673" fill="#262626"/><linearGradient id="a9FyWWdZBWwgkShGOE5KJg" x1="13.146" x2="15.765" y1="-24.009" y2="-21.68" gradientTransform="matrix(.5592 .6117 -.6305 .5763 7.494 24.078)" gradientUnits="userSpaceOnUse"><stop offset=".748" stop-color="#d4d4d4"/><stop offset=".824" stop-color="#b1b1b1"/><stop offset=".942" stop-color="#818181"/><stop offset="1" stop-color="#6e6e6e"/></linearGradient><path fill="url(#a9FyWWdZBWwgkShGOE5KJg)" d="M28.985,21.319c-0.059-0.065-0.097-0.149-0.104-0.244 c-0.015-0.229,0.158-0.432,0.388-0.455l1.361-0.144c0.23-0.023,0.429,0.145,0.445,0.374c0.015,0.229-0.158,0.432-0.388,0.455 l-1.361,0.144C29.191,21.461,29.068,21.409,28.985,21.319z"/><circle cx="29.984" cy="22.953" r=".673" fill="#262626"/><linearGradient id="a9FyWWdZBWwgkShGOE5KJh" x1="15.453" x2="18.073" y1="-23.133" y2="-20.805" gradientTransform="matrix(.5592 .6117 -.6305 .5763 7.494 24.078)" gradientUnits="userSpaceOnUse"><stop offset=".748" stop-color="#d4d4d4"/><stop offset=".824" stop-color="#b1b1b1"/><stop offset=".942" stop-color="#818181"/><stop offset="1" stop-color="#6e6e6e"/></linearGradient><path fill="url(#a9FyWWdZBWwgkShGOE5KJh)" d="M29.724,23.235c-0.059-0.065-0.097-0.149-0.104-0.244 c-0.015-0.229,0.158-0.432,0.388-0.455l1.361-0.144c0.23-0.023,0.429,0.145,0.445,0.374c0.015,0.229-0.158,0.432-0.388,0.455 l-1.361,0.144C29.93,23.377,29.806,23.326,29.724,23.235z"/><circle cx="30.629" cy="24.865" r=".673" fill="#262626"/><g><linearGradient id="a9FyWWdZBWwgkShGOE5KJi" x1="17.681" x2="20.301" y1="-22.181" y2="-19.852" gradientTransform="matrix(.5592 .6117 -.6305 .5763 7.494 24.078)" gradientUnits="userSpaceOnUse"><stop offset=".748" stop-color="#d4d4d4"/><stop offset=".824" stop-color="#b1b1b1"/><stop offset=".942" stop-color="#818181"/><stop offset="1" stop-color="#6e6e6e"/></linearGradient><path fill="url(#a9FyWWdZBWwgkShGOE5KJi)" d="M30.369,25.147c-0.059-0.065-0.097-0.149-0.104-0.244 c-0.015-0.229,0.158-0.432,0.388-0.455l1.361-0.144c0.23-0.023,0.429,0.145,0.445,0.374c0.015,0.229-0.158,0.432-0.388,0.455 l-1.361,0.144C30.575,25.289,30.452,25.237,30.369,25.147z"/></g></svg>