<svg xmlns="http://www.w3.org/2000/svg" viewBox="0 0 48 48"><linearGradient id="owhtGyURO1CC8ROS9f6Poa" x1="26.907" x2="15.83" y1="24.157" y2="31.146" gradientUnits="userSpaceOnUse"><stop offset="0" stop-color="#8a2000"/><stop offset=".368" stop-color="#a62904"/><stop offset="1" stop-color="#de3b0b"/></linearGradient><path fill="url(#owhtGyURO1CC8ROS9f6Poa)" d="M29.526,23.582c-0.11-0.013-0.215-0.02-0.327-0.034c-6.539-0.853-13.789,0.704-17.195,4.846 c-0.031,0.021-0.061,0.045-0.084,0.077l-1.922,2.623c-0.108,0.148-0.083,0.352,0.055,0.469c0.007,0.006,0.013,0.011,0.02,0.016 c0.155,0.113,0.372,0.08,0.485-0.075l1.695-2.313l0.336,0.426l-1.793,2.446c-0.108,0.148-0.083,0.352,0.055,0.469 c0.007,0.006,0.013,0.011,0.02,0.016c0.155,0.113,0.372,0.08,0.485-0.075l1.679-2.291l0.339,0.429l-1.736,2.369 c-0.108,0.148-0.083,0.352,0.055,0.469c0.007,0.006,0.013,0.011,0.02,0.016c0.155,0.113,0.372,0.08,0.485-0.075l1.622-2.214 l0.339,0.43l-1.674,2.285c-0.108,0.148-0.083,0.352,0.055,0.469c0.007,0.006,0.013,0.011,0.02,0.016 c0.155,0.113,0.372,0.08,0.485-0.075l1.56-2.13l0.34,0.431l-1.608,2.195c-0.108,0.148-0.083,0.352,0.055,0.469 c0.007,0.006,0.013,0.011,0.02,0.016c0.155,0.113,0.372,0.08,0.485-0.075l1.494-2.039l0.336,0.426l-1.588,2.167 c-0.108,0.148-0.083,0.352,0.055,0.469c0.007,0.006,0.013,0.011,0.02,0.016c0.155,0.113,0.372,0.08,0.485-0.075l1.474-2.012 l0.34,0.431l-1.522,2.077c-0.108,0.148-0.083,0.352,0.055,0.469c0.007,0.006,0.013,0.011,0.02,0.016 c0.155,0.113,0.372,0.08,0.485-0.075l1.481-2.021c2.747-3.223,6.205-4.822,9.676-5.868L29.526,23.582z"/><linearGradient id="owhtGyURO1CC8ROS9f6Pob" x1="26.992" x2="26.992" y1="2.437" y2="14.652" gradientUnits="userSpaceOnUse"><stop offset="0" stop-color="#8a2000"/><stop offset=".368" stop-color="#a62904"/><stop offset="1" stop-color="#de3b0b"/></linearGradient><path fill="url(#owhtGyURO1CC8ROS9f6Pob)" d="M20.662,14.293l-1.335-6.206c0,0,2.28-2.855,2.57-2.936 c1.496-0.418,3.206-0.731,5.157-0.731c2.381,0,4.435,0.4,6.033,0.984l1.57,3.152l-2.563,5.368l0.072,0.071 c-0.07-0.064-1.742-1.576-5.112-1.576C23.289,12.421,20.688,14.275,20.662,14.293z"/><path fill="#ff450d" d="M20.982,8.315c0.182-1.638,1.852-3.52,6.072-3.52c4.809,0,6.536,1.698,6.456,3.659l0.652-2.16 l-1.074-0.889c0,0-1.867-1.125-6.033-1.125c-3.288,0-5.157,0.872-5.157,0.872s-0.792,0.454-1.097,0.795L20.982,8.315z"/><linearGradient id="owhtGyURO1CC8ROS9f6Poc" x1="19.085" x2="41.228" y1="40.398" y2="7.463" gradientUnits="userSpaceOnUse"><stop offset="0" stop-color="#ff450d"/><stop offset=".154" stop-color="#fd440d"/><stop offset=".21" stop-color="#f6420c"/><stop offset=".25" stop-color="#eb3e0a"/><stop offset=".282" stop-color="#da3807"/><stop offset=".309" stop-color="#c43104"/><stop offset=".33" stop-color="#ad2900"/><stop offset=".332" stop-color="#ae2900"/><stop offset=".441" stop-color="#cb3305"/><stop offset=".556" stop-color="#e23b08"/><stop offset=".681" stop-color="#f2410b"/><stop offset=".819" stop-color="#fc440d"/><stop offset="1" stop-color="#ff450d"/></linearGradient><path fill="url(#owhtGyURO1CC8ROS9f6Poc)" d="M35.883,7.694c-1.033-1.251-2.796-2.289-2.796-2.289c0.297,0.791,2.621,6.082-7.203,15.577 c-4.877,4.714-8.428,11.89-8.331,17.679c-0.01,0.039-0.019,0.079-0.015,0.122l0.254,3.502c0.014,0.197,0.179,0.348,0.374,0.348 c0.009,0,0.019,0,0.028-0.001c0.207-0.015,0.362-0.195,0.347-0.401l-0.224-3.088l0.574,0.115l0.237,3.266 c0.014,0.197,0.179,0.348,0.374,0.348c0.009,0,0.019,0,0.028-0.001c0.207-0.015,0.362-0.194,0.347-0.401l-0.222-3.059l0.579,0.116 l0.23,3.163c0.014,0.197,0.179,0.348,0.374,0.348c0.009,0,0.019,0,0.028-0.001c0.207-0.015,0.362-0.195,0.347-0.401l-0.215-2.956 l0.58,0.116l0.222,3.051c0.014,0.197,0.179,0.348,0.374,0.348c0.009,0,0.019,0,0.028-0.001c0.207-0.015,0.362-0.195,0.347-0.401 l-0.207-2.843l0.581,0.116l0.213,2.93c0.014,0.197,0.179,0.348,0.374,0.348c0.009,0,0.019,0,0.028-0.001 c0.207-0.015,0.362-0.195,0.347-0.401l-0.198-2.723l0.575,0.115l0.21,2.894c0.014,0.197,0.179,0.348,0.374,0.348 c0.009,0,0.019,0,0.028-0.001c0.207-0.015,0.362-0.195,0.347-0.401l-0.195-2.686l0.581,0.116l0.201,2.773 c0.014,0.197,0.179,0.348,0.374,0.348c0.009,0,0.019,0,0.028-0.001c0.207-0.015,0.362-0.195,0.347-0.401l-0.196-2.698 c0.009-9.015,6.702-14.782,9.954-20.268C38.648,16.406,38.804,11.231,35.883,7.694z"/><g><path fill="#ff450d" d="M28.62,31.795c0,0,1.931,0.369,3.75-2.654c1.681-2.794,0.816-4.352,0.816-4.352 C17.263,14.405,21.217,5.769,21.897,5.151c0,0-2.211,0.698-3.642,2.542C15.443,11.319,10.818,21.41,28.62,31.795z"/></g></svg>