<svg xmlns="http://www.w3.org/2000/svg" viewBox="0 0 48 48"><path d="M43.891,38.98l-0.698-0.054l-0.006-0.004l0,0c0,0-11.294-0.514-20.266-11.404c-4.746-5.762-10.505-9.294-13.18-10.846 c-1.183-0.686-2.162-0.533-2.162-0.533s0.001-0.004,0.001-0.004L6.98,15.859l-1.308,2.019l-1.563,2.413l10.708,6.98l1.39-2.06 c1.235,1.155,2.516,2.492,3.78,4.036c1.894,2.315,3.488,3.933,5.942,5.668c9.618,6.8,17.211,6.223,17.596,6.227L43.891,38.98z"/><linearGradient id="E6dW9BkHFPsU7fvrETgU3a" x1="7.444" x2="18.36" y1="27.316" y2="27.316" gradientTransform="rotate(32.934 21.928 21.036)" gradientUnits="userSpaceOnUse"><stop offset="0"/><stop offset=".119" stop-color="#0d0d0d"/><stop offset=".342" stop-color="#1f1f1f"/><stop offset=".499" stop-color="#262626"/><stop offset=".668" stop-color="#1e1e1e"/><stop offset=".935" stop-color="#070707"/><stop offset="1"/></linearGradient><path fill="url(#E6dW9BkHFPsU7fvrETgU3a)" d="M16.096,24.235l-1.457,2.159L4.99,20.104l2.224-3.433l0.102,0.047 c0.013,0.007,1.394,0.639,3.468,1.983c1.608,1.042,3.674,2.536,5.883,4.533L16.096,24.235z"/><radialGradient id="E6dW9BkHFPsU7fvrETgU3b" cx="50.594" cy="15.595" r="22.572" gradientTransform="matrix(.8393 .5437 -.372 .5742 12.283 -4.408)" gradientUnits="userSpaceOnUse"><stop offset="0" stop-color="#e8723b"/><stop offset=".478" stop-color="#af4d1e"/><stop offset="1" stop-color="#752700"/></radialGradient><path fill="url(#E6dW9BkHFPsU7fvrETgU3b)" d="M7.58,16.137c0,0,1.988-6.677,9.008-9.29c0,0,1.572,2.67,3.481,5.209 c4.337,5.769,9.434,2.991,9.434,2.991c2.204,4.841,2.47,8.11,5.027,11.633c4.901,6.755,10.357,4.776,8.658,12.24 c0,0-12.232-0.154-21.203-11.045C15.139,19.567,7.58,16.137,7.58,16.137z"/><linearGradient id="E6dW9BkHFPsU7fvrETgU3c" x1="22.785" x2="49.031" y1="27.478" y2="27.478" gradientTransform="rotate(32.934 21.928 21.036)" gradientUnits="userSpaceOnUse"><stop offset="0"/><stop offset=".119" stop-color="#0d0d0d"/><stop offset=".342" stop-color="#1f1f1f"/><stop offset=".499" stop-color="#262626"/><stop offset=".668" stop-color="#1e1e1e"/><stop offset=".935" stop-color="#070707"/><stop offset="1"/></linearGradient><path fill="url(#E6dW9BkHFPsU7fvrETgU3c)" d="M19.23,25.73c0.755,0.792,1.513,1.642,2.261,2.551c2.061,2.501,4.461,4.649,7.136,6.381 c0.001,0.001,0.001,0.001,0.002,0.001c7.02,4.548,13.668,4.871,14.477,4.894l0.039,0.004c0,0-5.971,1.921-15.465-4.229 C20.727,30.828,19.23,25.73,19.23,25.73z"/><radialGradient id="E6dW9BkHFPsU7fvrETgU3d" cx="32.554" cy="30.656" r="36.74" gradientTransform="matrix(.8393 .5437 -.4429 .6837 11.87 -3.77)" gradientUnits="userSpaceOnUse"><stop offset=".01" stop-color="#ad4e21"/><stop offset=".219" stop-color="#a04519"/><stop offset=".932" stop-color="#752700"/></radialGradient><path fill="url(#E6dW9BkHFPsU7fvrETgU3d)" d="M7.709,16.199c0.027,0.013,0.057,0.028,0.093,0.046c0.162,0.079,0.413,0.207,0.746,0.386 c0.019,0.01,0.036,0.019,0.055,0.03c0.89,0.48,2.305,1.309,4.027,2.527c0.009,0.007,0.019,0.013,0.028,0.02 c0.707,0.5,1.461,1.066,2.251,1.7c0.07,0.056,0.14,0.113,0.211,0.17c0.246,0.2,0.493,0.402,0.745,0.615c0,0,0,0,0,0 c5.796-1.904,12.496,6.589,12.496,6.589l5.489-2.634c-0.699-1.136-1.209-2.272-1.657-3.455c-0.002-0.006-0.005-0.012-0.007-0.019 c0,0,0-0.001,0-0.001c-0.436-1.156-0.83-2.361-1.303-3.681c-0.019-0.054-0.04-0.108-0.059-0.162 c-0.147-0.406-0.308-0.829-0.476-1.258c-0.053-0.134-0.104-0.267-0.159-0.404c-0.21-0.522-0.435-1.058-0.69-1.619 c0,0-5.097,2.778-9.434-2.991c-1.909-2.539-3.481-5.209-3.481-5.209c-7.02,2.613-9.008,9.29-9.008,9.29s0.019,0.009,0.05,0.024 C7.65,16.17,7.67,16.18,7.709,16.199z"/><circle cx="28.268" cy="17.506" r=".914" fill="#858585"/><linearGradient id="E6dW9BkHFPsU7fvrETgU3e" x1="23.655" x2="26.275" y1="11.593" y2="13.922" gradientTransform="rotate(32.934 21.928 21.036)" gradientUnits="userSpaceOnUse"><stop offset=".636" stop-color="#262626"/><stop offset=".802" stop-color="#131313"/><stop offset="1"/></linearGradient><path fill="url(#E6dW9BkHFPsU7fvrETgU3e)" d="M28.007,17.908c-0.086-0.056-0.154-0.139-0.191-0.242c-0.087-0.249,0.044-0.522,0.293-0.61 l2.185-0.768c0.249-0.088,0.523,0.043,0.61,0.293c0.087,0.249-0.044,0.522-0.293,0.61l-2.185,0.768 C28.28,18.009,28.127,17.986,28.007,17.908z"/><circle cx="29.278" cy="19.956" r=".914" fill="#858585"/><circle cx="30.289" cy="22.405" r=".914" fill="#858585"/><circle cx="31.334" cy="24.877" r=".914" fill="#858585"/><linearGradient id="E6dW9BkHFPsU7fvrETgU3f" x1="25.839" x2="28.459" y1="13.101" y2="15.43" gradientTransform="rotate(32.934 21.928 21.036)" gradientUnits="userSpaceOnUse"><stop offset=".636" stop-color="#262626"/><stop offset=".802" stop-color="#131313"/><stop offset="1"/></linearGradient><path fill="url(#E6dW9BkHFPsU7fvrETgU3f)" d="M29.02,20.361c-0.086-0.056-0.154-0.139-0.191-0.242c-0.087-0.249,0.044-0.522,0.293-0.61 l2.185-0.768c0.249-0.088,0.523,0.043,0.61,0.293c0.087,0.249-0.044,0.522-0.293,0.61l-2.185,0.768 C29.293,20.463,29.14,20.439,29.02,20.361z"/><g><linearGradient id="E6dW9BkHFPsU7fvrETgU3g" x1="28.038" x2="30.658" y1="14.608" y2="16.937" gradientTransform="rotate(32.934 21.928 21.036)" gradientUnits="userSpaceOnUse"><stop offset=".636" stop-color="#262626"/><stop offset=".802" stop-color="#131313"/><stop offset="1"/></linearGradient><path fill="url(#E6dW9BkHFPsU7fvrETgU3g)" d="M30.046,22.821c-0.086-0.056-0.154-0.139-0.191-0.242c-0.087-0.249,0.044-0.522,0.293-0.61 l2.185-0.768c0.249-0.088,0.523,0.043,0.61,0.293c0.087,0.249-0.044,0.522-0.293,0.61l-2.185,0.768 C30.32,22.923,30.167,22.899,30.046,22.821z"/></g><g><linearGradient id="E6dW9BkHFPsU7fvrETgU3h" x1="30.237" x2="32.857" y1="16.114" y2="18.443" gradientTransform="rotate(32.934 21.928 21.036)" gradientUnits="userSpaceOnUse"><stop offset=".636" stop-color="#262626"/><stop offset=".802" stop-color="#131313"/><stop offset="1"/></linearGradient><path fill="url(#E6dW9BkHFPsU7fvrETgU3h)" d="M31.073,25.281c-0.086-0.056-0.154-0.139-0.191-0.242c-0.087-0.249,0.044-0.522,0.293-0.61 l2.185-0.768c0.249-0.088,0.523,0.043,0.61,0.293c0.087,0.249-0.044,0.522-0.293,0.61l-2.185,0.768 C31.346,25.382,31.193,25.359,31.073,25.281z"/></g></svg>