<svg xmlns="http://www.w3.org/2000/svg" viewBox="0 0 48 48"><path fill="#fff" d="M20.713,3.999c-0.001-1.077,0.113-1.548,0.478-1.984	c0.167-0.199,0.353-0.308,0.553-0.324c0.62-0.013,1.225,0.664,1.468,2.074c0.028,0.16,0.045,0.256,0.052,0.315l-2.55,0.104	L20.713,3.999z" opacity=".22"/><radialGradient id="iRyfsmasG6dullIjYHRz1a" cx="-114.723" cy="25.504" r="24.323" gradientTransform="matrix(0 1 1 0 .07 135.93)" gradientUnits="userSpaceOnUse"><stop offset="0" stop-color="#ffe16e"/><stop offset=".629" stop-color="#ffd226"/><stop offset=".75" stop-color="#fdcd23"/><stop offset=".9" stop-color="#f6bd1b"/><stop offset="1" stop-color="#f0af13"/></radialGradient><path fill="url(#iRyfsmasG6dullIjYHRz1a)" d="M21.07,45.668V42.54c0-1.834-0.778-3.569-2.113-4.826c-0.614-0.578-1.181-1.237-1.681-1.968	c-0.1-0.146-0.177-0.3-0.27-0.449l-1.913-2.729l-0.014,0.02l-2.391-3.437l-0.281-0.264c-1.01-0.947-2.243-1.63-3.59-1.992	L5.88,26.11c-0.576-0.151-0.967-0.669-0.955-1.251c0.277-3.73,6.903-4.476,13.512-1.462l0-0.012c0.37,0.161,0.612-0.05,0.676-0.804	c0-0.005,0.001-0.011,0.001-0.016c0.024-0.807,0.538-17.842,0.542-18.004c-0.028-0.94,0.175-1.779,0.537-2.444	c0.411-0.755,1.001-1.177,1.658-1.188c0.658-0.011,1.262,0.391,1.699,1.132c0.384,0.652,0.604,1.512,0.619,2.407l0.717,14.056	c0.009,0,0.017,0,0.035,0c0.27-1.379,1.479-2.421,2.937-2.421c1.657,0,3,1.343,3,3c0-1.657,1.343-3,3-3	c1.455,0,2.661,1.037,2.935,2.411c0.246-1.409,1.468-2.483,2.948-2.483c1.657,0,3.287,1.438,3.287,3.095	c0,0.003,0.322,14.022-0.747,16.705c-0.374,0.939-1.028,1.77-1.837,2.458c-1.489,1.267-2.376,3.102-2.376,5.057v2.321	c0,0.697-3.806,1.261-8.5,1.261C24.876,46.93,21.07,46.365,21.07,45.668z"/><g opacity=".62"><linearGradient id="iRyfsmasG6dullIjYHRz1b" x1="678.858" x2="677.352" y1="-630.389" y2="-626.16" gradientTransform="rotate(-9.97 4078.696 3409.293)" gradientUnits="userSpaceOnUse"><stop offset="0" stop-color="#fccb22" stop-opacity=".56"/><stop offset=".999" stop-color="#ffd32b"/></linearGradient><linearGradient id="iRyfsmasG6dullIjYHRz1c" x1="678.858" x2="677.367" y1="-630.393" y2="-626.193" gradientTransform="rotate(-9.97 4078.696 3409.293)" gradientUnits="userSpaceOnUse"><stop offset="0" stop-color="#fcc822" stop-opacity=".6"/><stop offset=".999" stop-color="#ffd32b"/><stop offset="1" stop-color="#ffd32b"/></linearGradient><path fill="url(#iRyfsmasG6dullIjYHRz1c)" d="M30.973,18.97l1.276,2.988c-0.014,0.777-0.656,1.396-1.433,1.381 c-0.777-0.014-1.396-0.656-1.381-1.433c0.002-0.111,0.019-0.225,0.045-0.328l1.205-2.648c0.02-0.078,0.1-0.125,0.178-0.105 C30.931,18.843,30.975,18.904,30.973,18.97z" opacity=".091"/><linearGradient id="iRyfsmasG6dullIjYHRz1d" x1="678.858" x2="677.383" y1="-630.397" y2="-626.227" gradientTransform="rotate(-9.97 4078.696 3409.293)" gradientUnits="userSpaceOnUse"><stop offset="0" stop-color="#fbc622" stop-opacity=".64"/><stop offset=".999" stop-color="#ffd32b"/><stop offset="1" stop-color="#ffd32b"/></linearGradient><path fill="url(#iRyfsmasG6dullIjYHRz1d)" d="M30.963,18.96l1.174,3.065c-0.015,0.72-0.611,1.292-1.331,1.276 c-0.72-0.015-1.292-0.611-1.276-1.331c0.002-0.1,0.017-0.204,0.041-0.297l1.126-2.75c0.019-0.073,0.093-0.116,0.165-0.098 C30.923,18.842,30.964,18.899,30.963,18.96z" opacity=".182"/><linearGradient id="iRyfsmasG6dullIjYHRz1e" x1="678.858" x2="677.398" y1="-630.401" y2="-626.26" gradientTransform="rotate(-9.97 4078.696 3409.293)" gradientUnits="userSpaceOnUse"><stop offset="0" stop-color="#fbc322" stop-opacity=".68"/><stop offset=".999" stop-color="#ffd32b"/><stop offset="1" stop-color="#ffd32b"/></linearGradient><path fill="url(#iRyfsmasG6dullIjYHRz1e)" d="M30.953,18.951l1.072,3.143c-0.016,0.663-0.566,1.187-1.229,1.172 c-0.663-0.016-1.185-0.566-1.172-1.229c0.002-0.09,0.015-0.183,0.036-0.266l1.047-2.852c0.017-0.067,0.085-0.107,0.152-0.09 C30.916,18.841,30.954,18.894,30.953,18.951z" opacity=".273"/><linearGradient id="iRyfsmasG6dullIjYHRz1f" x1="678.858" x2="677.412" y1="-630.405" y2="-626.294" gradientTransform="rotate(-9.97 4078.696 3409.293)" gradientUnits="userSpaceOnUse"><stop offset="0" stop-color="#fac122" stop-opacity=".72"/><stop offset=".999" stop-color="#ffd32b"/><stop offset="1" stop-color="#ffd32b"/></linearGradient><path fill="url(#iRyfsmasG6dullIjYHRz1f)" d="M30.942,18.941l0.969,3.22c-0.017,0.606-0.521,1.083-1.127,1.067 c-0.606-0.017-1.081-0.521-1.067-1.127c0.002-0.079,0.014-0.162,0.032-0.236l0.967-2.954c0.015-0.061,0.077-0.098,0.138-0.083 C30.909,18.84,30.944,18.889,30.942,18.941z" opacity=".364"/><linearGradient id="iRyfsmasG6dullIjYHRz1g" x1="678.858" x2="677.427" y1="-630.408" y2="-626.328" gradientTransform="rotate(-9.97 4078.696 3409.293)" gradientUnits="userSpaceOnUse"><stop offset="0" stop-color="#fabe22" stop-opacity=".76"/><stop offset=".999" stop-color="#ffd32b"/><stop offset="1" stop-color="#ffd32b"/></linearGradient><path fill="url(#iRyfsmasG6dullIjYHRz1g)" d="M30.932,18.931l0.867,3.297c-0.018,0.549-0.477,0.979-1.025,0.962 c-0.549-0.018-0.976-0.476-0.962-1.025c0.002-0.069,0.012-0.141,0.028-0.205l0.888-3.056c0.014-0.055,0.07-0.089,0.125-0.076 C30.902,18.84,30.934,18.884,30.932,18.931z" opacity=".455"/><linearGradient id="iRyfsmasG6dullIjYHRz1h" x1="678.857" x2="677.441" y1="-630.412" y2="-626.361" gradientTransform="rotate(-9.97 4078.696 3409.293)" gradientUnits="userSpaceOnUse"><stop offset="0" stop-color="#f9bc21" stop-opacity=".8"/><stop offset=".999" stop-color="#ffd32b"/><stop offset="1" stop-color="#ffd32b"/></linearGradient><path fill="url(#iRyfsmasG6dullIjYHRz1h)" d="M30.922,18.922l0.765,3.374c-0.018,0.492-0.432,0.875-0.923,0.857 c-0.492-0.018-0.871-0.432-0.857-0.923c0.002-0.059,0.01-0.12,0.024-0.174l0.809-3.158c0.012-0.05,0.062-0.08,0.112-0.069 C30.895,18.839,30.924,18.879,30.922,18.922z" opacity=".545"/><linearGradient id="iRyfsmasG6dullIjYHRz1i" x1="678.857" x2="677.456" y1="-630.416" y2="-626.395" gradientTransform="rotate(-9.97 4078.696 3409.293)" gradientUnits="userSpaceOnUse"><stop offset="0" stop-color="#f9b921" stop-opacity=".84"/><stop offset=".999" stop-color="#ffd32b"/><stop offset="1" stop-color="#ffd32b"/></linearGradient><path fill="url(#iRyfsmasG6dullIjYHRz1i)" d="M30.912,18.912l0.663,3.451c-0.019,0.434-0.387,0.771-0.821,0.752 c-0.434-0.019-0.767-0.387-0.752-0.821c0.002-0.048,0.009-0.098,0.02-0.143l0.729-3.26c0.01-0.044,0.054-0.071,0.098-0.061 C30.887,18.838,30.913,18.874,30.912,18.912z" opacity=".636"/><linearGradient id="iRyfsmasG6dullIjYHRz1j" x1="678.856" x2="677.47" y1="-630.419" y2="-626.428" gradientTransform="rotate(-9.97 4078.696 3409.293)" gradientUnits="userSpaceOnUse"><stop offset="0" stop-color="#f8b721" stop-opacity=".88"/><stop offset=".999" stop-color="#ffd32b"/><stop offset="1" stop-color="#ffd32b"/></linearGradient><path fill="url(#iRyfsmasG6dullIjYHRz1j)" d="M30.901,18.903l0.561,3.528c-0.02,0.377-0.342,0.667-0.719,0.647 c-0.377-0.02-0.662-0.342-0.647-0.719c0.002-0.038,0.007-0.077,0.015-0.113l0.65-3.362c0.009-0.038,0.047-0.063,0.085-0.054 C30.88,18.837,30.903,18.869,30.901,18.903z" opacity=".727"/><linearGradient id="iRyfsmasG6dullIjYHRz1k" x1="678.855" x2="677.483" y1="-630.423" y2="-626.462" gradientTransform="rotate(-9.97 4078.696 3409.293)" gradientUnits="userSpaceOnUse"><stop offset="0" stop-color="#f8b421" stop-opacity=".92"/><stop offset=".999" stop-color="#ffd32b"/><stop offset="1" stop-color="#ffd32b"/></linearGradient><path fill="url(#iRyfsmasG6dullIjYHRz1k)" d="M30.891,18.893l0.458,3.605c-0.021,0.32-0.297,0.563-0.617,0.542 c-0.32-0.021-0.558-0.297-0.542-0.617c0.001-0.027,0.005-0.056,0.011-0.082l0.57-3.464c0.007-0.033,0.039-0.054,0.072-0.047 C30.873,18.836,30.893,18.863,30.891,18.893z" opacity=".818"/><linearGradient id="iRyfsmasG6dullIjYHRz1l" x1="678.817" x2="677.46" y1="-630.439" y2="-626.508" gradientTransform="rotate(-9.97 4078.696 3409.293)" gradientUnits="userSpaceOnUse"><stop offset="0" stop-color="#f7b221" stop-opacity=".96"/><stop offset=".999" stop-color="#ffd32b"/><stop offset="1" stop-color="#ffd32b"/></linearGradient><path fill="url(#iRyfsmasG6dullIjYHRz1l)" d="M30.881,18.883l0.356,3.682c-0.022,0.263-0.252,0.459-0.516,0.437 c-0.263-0.022-0.454-0.252-0.437-0.515c0.001-0.017,0.003-0.035,0.007-0.051l0.491-3.566c0.005-0.027,0.031-0.045,0.058-0.039 C30.866,18.835,30.883,18.858,30.881,18.883z" opacity=".909"/><linearGradient id="iRyfsmasG6dullIjYHRz1m" x1="678.773" x2="677.43" y1="-630.458" y2="-626.557" gradientTransform="rotate(-9.97 4078.696 3409.293)" gradientUnits="userSpaceOnUse"><stop offset="0" stop-color="#f7af21"/><stop offset="1" stop-color="#ffd32b"/></linearGradient><path fill="url(#iRyfsmasG6dullIjYHRz1m)" d="M30.871,18.874l0.254,3.759c-0.022,0.206-0.208,0.355-0.414,0.332 c-0.206-0.022-0.355-0.208-0.332-0.414c0.001-0.007,0.002-0.014,0.003-0.021l0.412-3.668c0.004-0.021,0.024-0.036,0.045-0.032 C30.859,18.835,30.873,18.853,30.871,18.874z"/></g><g opacity=".58"><linearGradient id="iRyfsmasG6dullIjYHRz1n" x1="673.08" x2="671.574" y1="-631.717" y2="-627.488" gradientTransform="rotate(-9.97 4078.696 3409.293)" gradientUnits="userSpaceOnUse"><stop offset="0" stop-color="#fccb22" stop-opacity=".56"/><stop offset=".999" stop-color="#ffd32b"/></linearGradient><linearGradient id="iRyfsmasG6dullIjYHRz1o" x1="673.08" x2="671.59" y1="-631.721" y2="-627.521" gradientTransform="rotate(-9.97 4078.696 3409.293)" gradientUnits="userSpaceOnUse"><stop offset="0" stop-color="#fcc822" stop-opacity=".6"/><stop offset=".999" stop-color="#ffd32b"/><stop offset="1" stop-color="#ffd32b"/></linearGradient><path fill="url(#iRyfsmasG6dullIjYHRz1o)" d="M25.053,18.661l1.276,2.988c-0.014,0.777-0.656,1.396-1.433,1.381 c-0.777-0.014-1.396-0.656-1.381-1.433c0.002-0.111,0.019-0.225,0.045-0.328l1.205-2.648c0.02-0.078,0.1-0.125,0.178-0.105 C25.01,18.534,25.054,18.595,25.053,18.661z" opacity=".091"/><linearGradient id="iRyfsmasG6dullIjYHRz1p" x1="673.081" x2="671.605" y1="-631.725" y2="-627.555" gradientTransform="rotate(-9.97 4078.696 3409.293)" gradientUnits="userSpaceOnUse"><stop offset="0" stop-color="#fbc622" stop-opacity=".64"/><stop offset=".999" stop-color="#ffd32b"/><stop offset="1" stop-color="#ffd32b"/></linearGradient><path fill="url(#iRyfsmasG6dullIjYHRz1p)" d="M25.043,18.652l1.174,3.065c-0.015,0.72-0.611,1.292-1.331,1.276 c-0.72-0.015-1.292-0.611-1.276-1.331c0.002-0.1,0.017-0.204,0.041-0.297l1.126-2.75c0.019-0.073,0.093-0.116,0.165-0.098 C25.003,18.534,25.044,18.59,25.043,18.652z" opacity=".182"/><linearGradient id="iRyfsmasG6dullIjYHRz1q" x1="673.081" x2="671.62" y1="-631.729" y2="-627.588" gradientTransform="rotate(-9.97 4078.696 3409.293)" gradientUnits="userSpaceOnUse"><stop offset="0" stop-color="#fbc322" stop-opacity=".68"/><stop offset=".999" stop-color="#ffd32b"/><stop offset="1" stop-color="#ffd32b"/></linearGradient><path fill="url(#iRyfsmasG6dullIjYHRz1q)" d="M25.033,18.642l1.072,3.143c-0.016,0.663-0.566,1.187-1.229,1.172 c-0.663-0.016-1.185-0.566-1.172-1.229c0.002-0.09,0.015-0.183,0.036-0.266l1.047-2.852c0.017-0.067,0.085-0.107,0.152-0.09 C24.996,18.533,25.034,18.585,25.033,18.642z" opacity=".273"/><linearGradient id="iRyfsmasG6dullIjYHRz1r" x1="673.081" x2="671.635" y1="-631.732" y2="-627.622" gradientTransform="rotate(-9.97 4078.696 3409.293)" gradientUnits="userSpaceOnUse"><stop offset="0" stop-color="#fac122" stop-opacity=".72"/><stop offset=".999" stop-color="#ffd32b"/><stop offset="1" stop-color="#ffd32b"/></linearGradient><path fill="url(#iRyfsmasG6dullIjYHRz1r)" d="M25.022,18.633l0.969,3.22c-0.017,0.606-0.521,1.083-1.127,1.067 c-0.606-0.017-1.081-0.521-1.067-1.127c0.002-0.079,0.014-0.162,0.032-0.236l0.967-2.954c0.015-0.061,0.077-0.098,0.138-0.083 C24.989,18.532,25.024,18.58,25.022,18.633z" opacity=".364"/><linearGradient id="iRyfsmasG6dullIjYHRz1s" x1="673.08" x2="671.649" y1="-631.736" y2="-627.655" gradientTransform="rotate(-9.97 4078.696 3409.293)" gradientUnits="userSpaceOnUse"><stop offset="0" stop-color="#fabe22" stop-opacity=".76"/><stop offset=".999" stop-color="#ffd32b"/><stop offset="1" stop-color="#ffd32b"/></linearGradient><path fill="url(#iRyfsmasG6dullIjYHRz1s)" d="M25.012,18.623l0.867,3.297c-0.018,0.549-0.477,0.979-1.025,0.962 c-0.549-0.018-0.976-0.476-0.962-1.025c0.002-0.069,0.012-0.141,0.028-0.205l0.888-3.056c0.014-0.055,0.07-0.089,0.125-0.076 C24.982,18.531,25.014,18.575,25.012,18.623z" opacity=".455"/><linearGradient id="iRyfsmasG6dullIjYHRz1t" x1="673.08" x2="671.664" y1="-631.74" y2="-627.689" gradientTransform="rotate(-9.97 4078.696 3409.293)" gradientUnits="userSpaceOnUse"><stop offset="0" stop-color="#f9bc21" stop-opacity=".8"/><stop offset=".999" stop-color="#ffd32b"/><stop offset="1" stop-color="#ffd32b"/></linearGradient><path fill="url(#iRyfsmasG6dullIjYHRz1t)" d="M25.002,18.613l0.765,3.374c-0.018,0.492-0.432,0.875-0.923,0.857 c-0.492-0.018-0.871-0.432-0.857-0.923c0.002-0.059,0.01-0.12,0.024-0.174l0.809-3.158c0.012-0.05,0.062-0.08,0.112-0.069 C24.974,18.53,25.003,18.57,25.002,18.613z" opacity=".545"/><linearGradient id="iRyfsmasG6dullIjYHRz1u" x1="673.079" x2="671.678" y1="-631.744" y2="-627.723" gradientTransform="rotate(-9.97 4078.696 3409.293)" gradientUnits="userSpaceOnUse"><stop offset="0" stop-color="#f9b921" stop-opacity=".84"/><stop offset=".999" stop-color="#ffd32b"/><stop offset="1" stop-color="#ffd32b"/></linearGradient><path fill="url(#iRyfsmasG6dullIjYHRz1u)" d="M24.991,18.604l0.663,3.451c-0.019,0.434-0.387,0.771-0.821,0.752 c-0.434-0.019-0.767-0.387-0.752-0.821c0.002-0.048,0.009-0.098,0.02-0.143l0.729-3.26c0.01-0.044,0.054-0.071,0.098-0.061 C24.967,18.529,24.993,18.565,24.991,18.604z" opacity=".636"/><linearGradient id="iRyfsmasG6dullIjYHRz1v" x1="673.078" x2="671.692" y1="-631.747" y2="-627.756" gradientTransform="rotate(-9.97 4078.696 3409.293)" gradientUnits="userSpaceOnUse"><stop offset="0" stop-color="#f8b721" stop-opacity=".88"/><stop offset=".999" stop-color="#ffd32b"/><stop offset="1" stop-color="#ffd32b"/></linearGradient><path fill="url(#iRyfsmasG6dullIjYHRz1v)" d="M24.981,18.594l0.561,3.528c-0.02,0.377-0.342,0.667-0.719,0.647 c-0.377-0.02-0.662-0.342-0.647-0.719c0.002-0.038,0.007-0.077,0.015-0.113l0.65-3.362c0.009-0.038,0.047-0.063,0.085-0.054 C24.96,18.529,24.983,18.56,24.981,18.594z" opacity=".727"/><linearGradient id="iRyfsmasG6dullIjYHRz1w" x1="673.078" x2="671.706" y1="-631.751" y2="-627.79" gradientTransform="rotate(-9.97 4078.696 3409.293)" gradientUnits="userSpaceOnUse"><stop offset="0" stop-color="#f8b421" stop-opacity=".92"/><stop offset=".999" stop-color="#ffd32b"/><stop offset="1" stop-color="#ffd32b"/></linearGradient><path fill="url(#iRyfsmasG6dullIjYHRz1w)" d="M24.971,18.585l0.458,3.605c-0.021,0.32-0.297,0.563-0.617,0.542 c-0.32-0.021-0.558-0.297-0.542-0.617c0.001-0.027,0.005-0.056,0.011-0.082l0.57-3.464c0.007-0.033,0.039-0.054,0.072-0.047 C24.953,18.528,24.973,18.555,24.971,18.585z" opacity=".818"/><linearGradient id="iRyfsmasG6dullIjYHRz1x" x1="673.04" x2="671.683" y1="-631.767" y2="-627.836" gradientTransform="rotate(-9.97 4078.696 3409.293)" gradientUnits="userSpaceOnUse"><stop offset="0" stop-color="#f7b221" stop-opacity=".96"/><stop offset=".999" stop-color="#ffd32b"/><stop offset="1" stop-color="#ffd32b"/></linearGradient><path fill="url(#iRyfsmasG6dullIjYHRz1x)" d="M24.961,18.575l0.356,3.682c-0.022,0.263-0.252,0.459-0.516,0.437 c-0.263-0.022-0.454-0.252-0.437-0.515c0.001-0.017,0.003-0.035,0.007-0.051l0.491-3.566c0.005-0.027,0.031-0.045,0.058-0.039 C24.946,18.527,24.963,18.55,24.961,18.575z" opacity=".909"/><linearGradient id="iRyfsmasG6dullIjYHRz1y" x1="672.996" x2="671.653" y1="-631.785" y2="-627.884" gradientTransform="rotate(-9.97 4078.696 3409.293)" gradientUnits="userSpaceOnUse"><stop offset="0" stop-color="#f7af21"/><stop offset="1" stop-color="#ffd32b"/></linearGradient><path fill="url(#iRyfsmasG6dullIjYHRz1y)" d="M24.95,18.565l0.254,3.759c-0.022,0.206-0.208,0.355-0.414,0.332 c-0.206-0.022-0.355-0.208-0.332-0.414c0.001-0.007,0.002-0.014,0.003-0.021l0.412-3.668c0.004-0.021,0.024-0.036,0.045-0.032 C24.938,18.526,24.953,18.545,24.95,18.565z"/></g><g opacity=".82"><linearGradient id="iRyfsmasG6dullIjYHRz1z" x1="684.747" x2="683.241" y1="-629.695" y2="-625.466" gradientTransform="rotate(-9.97 4078.696 3409.293)" gradientUnits="userSpaceOnUse"><stop offset="0" stop-color="#fccb22" stop-opacity=".56"/><stop offset=".999" stop-color="#fdcd23"/></linearGradient><linearGradient id="iRyfsmasG6dullIjYHRz1A" x1="684.747" x2="683.256" y1="-629.699" y2="-625.5" gradientTransform="rotate(-9.97 4078.696 3409.293)" gradientUnits="userSpaceOnUse"><stop offset="0" stop-color="#fac722" stop-opacity=".6"/><stop offset=".999" stop-color="#fdcd23"/><stop offset="1" stop-color="#fdcd23"/></linearGradient><path fill="url(#iRyfsmasG6dullIjYHRz1A)" d="M36.894,18.635l1.276,2.988c-0.014,0.777-0.656,1.396-1.433,1.381 s-1.396-0.656-1.381-1.433c0.002-0.111,0.019-0.225,0.045-0.328l1.205-2.648c0.02-0.078,0.1-0.125,0.178-0.105 C36.851,18.508,36.895,18.569,36.894,18.635z" opacity=".091"/><linearGradient id="iRyfsmasG6dullIjYHRz1B" x1="684.747" x2="683.271" y1="-629.703" y2="-625.533" gradientTransform="rotate(-9.97 4078.696 3409.293)" gradientUnits="userSpaceOnUse"><stop offset="0" stop-color="#f8c322" stop-opacity=".64"/><stop offset=".999" stop-color="#fdcd23"/><stop offset="1" stop-color="#fdcd23"/></linearGradient><path fill="url(#iRyfsmasG6dullIjYHRz1B)" d="M36.883,18.625l1.174,3.065c-0.015,0.72-0.611,1.292-1.331,1.276 c-0.72-0.015-1.292-0.611-1.276-1.331c0.002-0.1,0.017-0.204,0.041-0.297l1.126-2.75c0.019-0.073,0.093-0.116,0.165-0.098 C36.844,18.507,36.885,18.564,36.883,18.625z" opacity=".182"/><linearGradient id="iRyfsmasG6dullIjYHRz1C" x1="684.747" x2="683.286" y1="-629.707" y2="-625.567" gradientTransform="rotate(-9.97 4078.696 3409.293)" gradientUnits="userSpaceOnUse"><stop offset="0" stop-color="#f7bf22" stop-opacity=".68"/><stop offset=".999" stop-color="#fdcd23"/><stop offset="1" stop-color="#fdcd23"/></linearGradient><path fill="url(#iRyfsmasG6dullIjYHRz1C)" d="M36.873,18.616l1.072,3.143c-0.016,0.663-0.566,1.187-1.229,1.172 c-0.663-0.016-1.185-0.566-1.172-1.229c0.002-0.09,0.015-0.183,0.036-0.266l1.047-2.852c0.017-0.067,0.085-0.107,0.152-0.09 C36.836,18.506,36.874,18.559,36.873,18.616z" opacity=".273"/><linearGradient id="iRyfsmasG6dullIjYHRz1D" x1="684.747" x2="683.301" y1="-629.711" y2="-625.6" gradientTransform="rotate(-9.97 4078.696 3409.293)" gradientUnits="userSpaceOnUse"><stop offset="0" stop-color="#f5bb22" stop-opacity=".72"/><stop offset=".999" stop-color="#fdcd23"/><stop offset="1" stop-color="#fdcd23"/></linearGradient><path fill="url(#iRyfsmasG6dullIjYHRz1D)" d="M36.863,18.606l0.97,3.22c-0.017,0.606-0.521,1.083-1.127,1.067 c-0.606-0.017-1.081-0.521-1.067-1.127c0.002-0.079,0.014-0.162,0.032-0.236l0.967-2.954c0.015-0.061,0.077-0.098,0.138-0.083 C36.829,18.505,36.864,18.554,36.863,18.606z" opacity=".364"/><linearGradient id="iRyfsmasG6dullIjYHRz1E" x1="684.747" x2="683.316" y1="-629.715" y2="-625.634" gradientTransform="rotate(-9.97 4078.696 3409.293)" gradientUnits="userSpaceOnUse"><stop offset="0" stop-color="#f3b722" stop-opacity=".76"/><stop offset=".999" stop-color="#fdcd23"/><stop offset="1" stop-color="#fdcd23"/></linearGradient><path fill="url(#iRyfsmasG6dullIjYHRz1E)" d="M36.852,18.596l0.867,3.297c-0.018,0.549-0.477,0.979-1.025,0.962 c-0.549-0.018-0.976-0.476-0.962-1.025c0.002-0.069,0.012-0.141,0.028-0.205l0.888-3.056c0.014-0.055,0.07-0.089,0.125-0.076 C36.822,18.504,36.854,18.549,36.852,18.596z" opacity=".455"/><linearGradient id="iRyfsmasG6dullIjYHRz1F" x1="684.746" x2="683.33" y1="-629.718" y2="-625.667" gradientTransform="rotate(-9.97 4078.696 3409.293)" gradientUnits="userSpaceOnUse"><stop offset="0" stop-color="#f1b421" stop-opacity=".8"/><stop offset=".999" stop-color="#fdcd23"/><stop offset="1" stop-color="#fdcd23"/></linearGradient><path fill="url(#iRyfsmasG6dullIjYHRz1F)" d="M36.842,18.587l0.765,3.374c-0.018,0.492-0.432,0.875-0.923,0.857 c-0.492-0.018-0.871-0.432-0.857-0.923c0.002-0.059,0.01-0.12,0.024-0.174l0.809-3.158c0.012-0.05,0.062-0.08,0.112-0.069 C36.815,18.504,36.844,18.543,36.842,18.587z" opacity=".545"/><linearGradient id="iRyfsmasG6dullIjYHRz1G" x1="684.746" x2="683.345" y1="-629.722" y2="-625.701" gradientTransform="rotate(-9.97 4078.696 3409.293)" gradientUnits="userSpaceOnUse"><stop offset="0" stop-color="#efb021" stop-opacity=".84"/><stop offset=".999" stop-color="#fdcd23"/><stop offset="1" stop-color="#fdcd23"/></linearGradient><path fill="url(#iRyfsmasG6dullIjYHRz1G)" d="M36.832,18.577l0.663,3.451c-0.019,0.434-0.387,0.771-0.821,0.752 c-0.434-0.019-0.767-0.387-0.752-0.821c0.002-0.048,0.009-0.098,0.02-0.143l0.729-3.26c0.01-0.044,0.054-0.071,0.098-0.061 C36.808,18.503,36.834,18.538,36.832,18.577z" opacity=".636"/><linearGradient id="iRyfsmasG6dullIjYHRz1H" x1="684.745" x2="683.359" y1="-629.726" y2="-625.735" gradientTransform="rotate(-9.97 4078.696 3409.293)" gradientUnits="userSpaceOnUse"><stop offset="0" stop-color="#edac21" stop-opacity=".88"/><stop offset=".999" stop-color="#fdcd23"/><stop offset="1" stop-color="#fdcd23"/></linearGradient><path fill="url(#iRyfsmasG6dullIjYHRz1H)" d="M36.822,18.568l0.561,3.528c-0.02,0.377-0.342,0.667-0.719,0.647 c-0.377-0.02-0.662-0.342-0.647-0.719c0.002-0.038,0.007-0.077,0.015-0.113l0.65-3.362c0.009-0.038,0.047-0.063,0.085-0.054 C36.8,18.502,36.824,18.533,36.822,18.568z" opacity=".727"/><linearGradient id="iRyfsmasG6dullIjYHRz1I" x1="684.744" x2="683.372" y1="-629.729" y2="-625.768" gradientTransform="rotate(-9.97 4078.696 3409.293)" gradientUnits="userSpaceOnUse"><stop offset="0" stop-color="#eca821" stop-opacity=".92"/><stop offset=".999" stop-color="#fdcd23"/><stop offset="1" stop-color="#fdcd23"/></linearGradient><path fill="url(#iRyfsmasG6dullIjYHRz1I)" d="M36.811,18.558l0.458,3.605c-0.021,0.32-0.297,0.563-0.617,0.542 c-0.32-0.021-0.558-0.297-0.542-0.617c0.001-0.027,0.005-0.056,0.011-0.082l0.57-3.464c0.007-0.033,0.039-0.054,0.072-0.047 C36.793,18.501,36.813,18.528,36.811,18.558z" opacity=".818"/><linearGradient id="iRyfsmasG6dullIjYHRz1J" x1="684.706" x2="683.349" y1="-629.745" y2="-625.814" gradientTransform="rotate(-9.97 4078.696 3409.293)" gradientUnits="userSpaceOnUse"><stop offset="0" stop-color="#eaa421" stop-opacity=".96"/><stop offset=".999" stop-color="#fdcd23"/><stop offset="1" stop-color="#fdcd23"/></linearGradient><path fill="url(#iRyfsmasG6dullIjYHRz1J)" d="M36.801,18.548l0.356,3.682c-0.022,0.263-0.252,0.459-0.516,0.437 c-0.263-0.022-0.454-0.252-0.437-0.515c0.001-0.017,0.003-0.035,0.007-0.051l0.491-3.566c0.005-0.027,0.031-0.045,0.058-0.039 C36.786,18.5,36.803,18.523,36.801,18.548z" opacity=".909"/><linearGradient id="iRyfsmasG6dullIjYHRz1K" x1="684.662" x2="683.319" y1="-629.764" y2="-625.862" gradientTransform="rotate(-9.97 4078.696 3409.293)" gradientUnits="userSpaceOnUse"><stop offset="0" stop-color="#e8a021"/><stop offset="1" stop-color="#fdcd23"/></linearGradient><path fill="url(#iRyfsmasG6dullIjYHRz1K)" d="M36.791,18.539l0.254,3.759c-0.022,0.206-0.208,0.355-0.414,0.332 c-0.206-0.022-0.355-0.208-0.332-0.414c0.001-0.007,0.002-0.014,0.003-0.021l0.412-3.668c0.004-0.021,0.024-0.036,0.045-0.032 C36.779,18.499,36.793,18.518,36.791,18.539z"/></g><radialGradient id="iRyfsmasG6dullIjYHRz1L" cx="-114.772" cy="27.438" r="5.058" gradientTransform="matrix(0 1 1.1761 0 -4.76 135.93)" gradientUnits="userSpaceOnUse"><stop offset=".224" stop-color="#ffd73f" stop-opacity="0"/><stop offset=".999" stop-color="#f0af13"/></radialGradient><path fill="url(#iRyfsmasG6dullIjYHRz1L)" d="M28.03,20.153c-1.418,0.051-2.564,1.08-2.829,2.414	c-0.168-1.642-0.339-3.316-0.339-3.33c-0.059-1.656,1.235-3.046,2.891-3.105c1.656-0.059,3.046,1.235,3.105,2.891	c0.002,0.048,0.09,2.535,0.09,2.535l0.015,0.63C30.548,20.969,29.385,20.105,28.03,20.153z" opacity=".49"/><radialGradient id="iRyfsmasG6dullIjYHRz1M" cx="-114.772" cy="33.428" r="5.058" gradientTransform="matrix(0 1 1.1761 0 -5.815 135.93)" gradientUnits="userSpaceOnUse"><stop offset=".224" stop-color="#ffd73f" stop-opacity="0"/><stop offset=".999" stop-color="#f0af13"/></radialGradient><path fill="url(#iRyfsmasG6dullIjYHRz1M)" d="M34.021,20.153c-1.418,0.051-2.564,1.08-2.829,2.414	c-0.168-1.642-0.339-3.316-0.339-3.33c-0.059-1.656,1.235-3.046,2.891-3.105c1.656-0.059,3.046,1.235,3.105,2.891	c0.002,0.048,0.09,2.535,0.09,2.535l0.015,0.63C36.539,20.969,35.375,20.105,34.021,20.153z" opacity=".49"/><radialGradient id="iRyfsmasG6dullIjYHRz1N" cx="-114.847" cy="39.349" r="5.058" gradientTransform="matrix(0 1 1.1761 0 -6.857 135.93)" gradientUnits="userSpaceOnUse"><stop offset=".224" stop-color="#ffd73f" stop-opacity="0"/><stop offset=".999" stop-color="#f0af13"/></radialGradient><path fill="url(#iRyfsmasG6dullIjYHRz1N)" d="M39.941,20.079c-1.418,0.051-2.564,1.08-2.829,2.414	c-0.168-1.642-0.339-3.316-0.339-3.33c-0.059-1.656,1.235-3.046,2.891-3.105c1.656-0.059,3.046,1.235,3.105,2.891	c0.002,0.048,0.09,2.535,0.09,2.535l0.015,0.63C42.459,20.894,41.295,20.031,39.941,20.079z" opacity=".41"/><linearGradient id="iRyfsmasG6dullIjYHRz1O" x1="-122.246" x2="-115.809" y1="27.899" y2="27.899" gradientTransform="matrix(0 1 1 0 .07 135.93)" gradientUnits="userSpaceOnUse"><stop offset=".249" stop-color="#fff7e6"/><stop offset="1" stop-color="#fff" stop-opacity="0"/></linearGradient><path fill="url(#iRyfsmasG6dullIjYHRz1O)" d="M28.088,21.073c-1.418,0.051-2.564,1.08-2.829,2.414	c-0.168-1.642-0.339-3.316-0.339-3.33c-0.059-1.656,1.235-3.046,2.891-3.105c1.656-0.059,3.046,1.235,3.105,2.891	c0.002,0.048,0.09,2.535,0.09,2.535l0.015,0.63C30.606,21.889,29.442,21.025,28.088,21.073z" opacity=".17"/><linearGradient id="iRyfsmasG6dullIjYHRz1P" x1="-121.752" x2="-115.315" y1="33.89" y2="33.89" gradientTransform="matrix(0 1 1 0 .07 135.93)" gradientUnits="userSpaceOnUse"><stop offset=".249" stop-color="#fff7e6"/><stop offset="1" stop-color="#fff" stop-opacity="0"/></linearGradient><path fill="url(#iRyfsmasG6dullIjYHRz1P)" d="M34.078,21.073c-1.418,0.051-2.564,1.08-2.829,2.414	c-0.168-1.642-0.339-3.316-0.339-3.33c-0.059-1.656,1.235-3.046,2.891-3.105c1.656-0.059,3.046,1.235,3.105,2.891	c0.002,0.048,0.09,2.535,0.09,2.535l0.015,0.63C36.596,21.889,35.433,21.025,34.078,21.073z" opacity=".17"/><linearGradient id="iRyfsmasG6dullIjYHRz1Q" x1="-122.699" x2="-116.262" y1="39.81" y2="39.81" gradientTransform="matrix(0 1 1 0 .07 135.93)" gradientUnits="userSpaceOnUse"><stop offset=".249" stop-color="#fff7e6"/><stop offset="1" stop-color="#fff" stop-opacity="0"/></linearGradient><path fill="url(#iRyfsmasG6dullIjYHRz1Q)" d="M39.999,20.999c-1.418,0.051-2.564,1.08-2.829,2.414	c-0.168-1.642-0.339-3.316-0.339-3.33c-0.059-1.656,1.235-3.046,2.891-3.105c1.656-0.059,3.046,1.235,3.105,2.891	c0.002,0.048,0.09,2.535,0.09,2.535l0.015,0.63C42.516,21.814,41.353,20.951,39.999,20.999z" opacity=".17"/><g opacity=".26"><linearGradient id="iRyfsmasG6dullIjYHRz1R" x1="5.691" x2="24" y1="33.994" y2="33.994" gradientUnits="userSpaceOnUse"><stop offset="0" stop-color="#f0af13"/><stop offset=".519" stop-color="#fed026" stop-opacity=".49"/><stop offset=".999" stop-color="#fecf24"/></linearGradient><linearGradient id="iRyfsmasG6dullIjYHRz1S" x1="5.621" x2="23.734" y1="33.933" y2="33.933" gradientUnits="userSpaceOnUse"><stop offset="0" stop-color="#efae13"/><stop offset=".519" stop-color="#fccc24" stop-opacity=".536"/><stop offset=".999" stop-color="#fccb23"/></linearGradient><path fill="url(#iRyfsmasG6dullIjYHRz1S)" d="M23.734,45.985c0-0.167-2.038-9.083-2.159-9.198 c-0.056-1.72-0.811-3.36-2.074-4.566c-0.565-0.54-1.09-1.152-1.552-1.83c-0.091-0.133-0.335-0.521-0.42-0.656l-1.74-2.479 l-0.23-0.294l-2.199-3.149c-0.092-0.086-0.459-0.388-0.582-0.421c-0.918-0.861-1.64-1.183-2.864-1.513 c-0.037-0.01-1.813,0.114-1.827,0.081c-1.382,0.421-2.465,1.046-2.466,1.311c-0.012,0.582,0.379,1.1,0.955,1.251l2.938,0.786 c1.347,0.362,2.58,1.044,3.59,1.992l0.281,0.264l2.391,3.437l0.014-0.02l1.913,2.729c0.093,0.149,0.17,0.303,0.27,0.449 c0.5,0.731,1.067,1.39,1.681,1.968c1.12,1.055,1.759,6.761,1.417,9.152L23.734,45.985z" opacity=".091"/><linearGradient id="iRyfsmasG6dullIjYHRz1T" x1="5.551" x2="23.467" y1="33.87" y2="33.87" gradientUnits="userSpaceOnUse"><stop offset="0" stop-color="#eeac13"/><stop offset=".519" stop-color="#f9c723" stop-opacity=".583"/><stop offset=".999" stop-color="#f9c621"/></linearGradient><path fill="url(#iRyfsmasG6dullIjYHRz1T)" d="M23.467,45.541c0-0.333-1.912-8.532-2.155-8.761 c-0.112-1.606-0.844-3.152-2.034-4.306c-0.517-0.502-0.998-1.066-1.424-1.691c-0.082-0.12-0.493-0.742-0.569-0.863l-1.568-2.229 l-0.446-0.608l-2.007-2.86c-0.184-0.172-0.638-0.512-0.882-0.578c-0.827-0.775-1.77-1.143-2.872-1.44 c-0.074-0.019-1.703,0.062-1.73-0.004c-1.248,0.396-2.227,0.975-2.229,1.231c-0.012,0.582,0.379,1.1,0.955,1.251l2.938,0.786 c1.347,0.362,2.58,1.044,3.59,1.992l0.281,0.264l2.391,3.437l0.014-0.02l1.913,2.729c0.093,0.149,0.17,0.303,0.27,0.449 c0.5,0.731,1.067,1.39,1.681,1.968c1.141,1.075,1.794,6.384,1.486,8.719L23.467,45.541z" opacity=".182"/><linearGradient id="iRyfsmasG6dullIjYHRz1U" x1="5.482" x2="23.201" y1="33.767" y2="33.767" gradientUnits="userSpaceOnUse"><stop offset="0" stop-color="#edab14"/><stop offset=".519" stop-color="#f7c321" stop-opacity=".629"/><stop offset=".999" stop-color="#f7c220"/></linearGradient><path fill="url(#iRyfsmasG6dullIjYHRz1U)" d="M23.201,45.096c0-0.5-1.786-7.98-2.15-8.323 c-0.167-1.491-0.878-2.942-1.995-4.047c-0.469-0.464-0.907-0.981-1.296-1.553c-0.073-0.106-0.651-0.962-0.718-1.071l-1.395-1.979 l-0.662-0.923l-1.815-2.572c-0.276-0.258-0.816-0.636-1.183-0.735c-0.735-0.689-1.9-1.104-2.879-1.367 c-0.111-0.029-1.593,0.011-1.633-0.089c-1.114,0.37-1.988,0.904-1.992,1.152c-0.012,0.582,0.379,1.1,0.955,1.251l2.938,0.786 c1.347,0.362,2.58,1.044,3.59,1.992l0.281,0.264l2.391,3.437l0.014-0.02l1.913,2.729c0.093,0.149,0.17,0.303,0.27,0.449 c0.5,0.731,1.067,1.39,1.681,1.968c1.163,1.095,1.83,6.007,1.556,8.287L23.201,45.096z" opacity=".273"/><linearGradient id="iRyfsmasG6dullIjYHRz1V" x1="5.412" x2="22.935" y1="33.664" y2="33.664" gradientUnits="userSpaceOnUse"><stop offset="0" stop-color="#ecaa14"/><stop offset=".519" stop-color="#f5bf20" stop-opacity=".675"/><stop offset=".999" stop-color="#f5be1f"/></linearGradient><path fill="url(#iRyfsmasG6dullIjYHRz1V)" d="M22.935,44.652c0-0.667-1.66-7.429-2.145-7.886 c-0.223-1.377-0.912-2.733-1.956-3.787c-0.422-0.426-0.816-0.896-1.168-1.415c-0.064-0.093-0.809-1.183-0.868-1.278l-1.222-1.729 l-0.878-1.237l-1.624-2.283c-0.367-0.345-0.994-0.76-1.484-0.892c-0.643-0.603-2.029-1.064-2.886-1.295 c-0.148-0.039-1.483-0.041-1.536-0.174c-0.98,0.345-1.75,0.833-1.755,1.072C5.4,24.33,5.791,24.849,6.367,25l2.938,0.786 c1.347,0.362,2.58,1.044,3.59,1.992l0.281,0.264l2.391,3.437l0.014-0.02l1.913,2.729c0.093,0.149,0.17,0.303,0.27,0.449 c0.5,0.731,1.067,1.39,1.681,1.968c1.185,1.115,1.865,5.63,1.625,7.854L22.935,44.652z" opacity=".364"/><linearGradient id="iRyfsmasG6dullIjYHRz1W" x1="5.343" x2="22.668" y1="33.561" y2="33.561" gradientUnits="userSpaceOnUse"><stop offset="0" stop-color="#eba814"/><stop offset=".519" stop-color="#f3ba1e" stop-opacity=".722"/><stop offset=".999" stop-color="#f3ba1d"/></linearGradient><path fill="url(#iRyfsmasG6dullIjYHRz1W)" d="M22.668,44.207c0-0.834-1.534-6.878-2.141-7.449 c-0.279-1.263-0.946-2.523-1.916-3.527c-0.374-0.387-0.725-0.811-1.04-1.277c-0.055-0.08-0.966-1.404-1.017-1.485l-1.05-1.479 l-1.094-1.551l-1.432-1.995c-0.459-0.431-1.173-0.884-1.785-1.049c-0.551-0.517-2.159-1.024-2.894-1.222 c-0.185-0.049-1.373-0.092-1.439-0.258c-0.846,0.32-1.512,0.762-1.518,0.993c-0.012,0.582,0.379,1.1,0.955,1.251l2.938,0.786 c1.347,0.362,2.58,1.044,3.59,1.992l0.281,0.264l2.391,3.437l0.014-0.02l1.913,2.729c0.093,0.149,0.17,0.303,0.27,0.449 c0.5,0.731,1.067,1.39,1.681,1.968c1.206,1.136,1.9,5.253,1.695,7.422L22.668,44.207z" opacity=".455"/><linearGradient id="iRyfsmasG6dullIjYHRz1X" x1="5.273" x2="22.402" y1="33.531" y2="33.531" gradientUnits="userSpaceOnUse"><stop offset="0" stop-color="#eaa714"/><stop offset=".519" stop-color="#f0b61d" stop-opacity=".768"/><stop offset=".999" stop-color="#f0b51c"/></linearGradient><path fill="url(#iRyfsmasG6dullIjYHRz1X)" d="M22.402,43.763c0-1-1.408-6.326-2.136-7.012 c-0.335-1.149-0.98-2.313-1.877-3.267c-0.327-0.348-0.634-0.726-0.911-1.139c-0.045-0.067-1.124-1.625-1.166-1.692l-0.877-1.229 l-1.31-1.866l-1.24-1.706c-0.551-0.517-1.351-1.009-2.086-1.206c-0.459-0.431-2.289-0.985-2.901-1.149 c-0.222-0.058-1.263-0.144-1.342-0.343c-0.712,0.294-1.274,0.69-1.281,0.913c-0.012,0.582,0.379,1.1,0.955,1.251l2.938,0.786 c1.347,0.362,2.58,1.044,3.59,1.992l0.281,0.264l2.391,3.437l0.014-0.02l1.913,2.729c0.093,0.149,0.17,0.303,0.27,0.449 c0.5,0.731,1.067,1.39,1.681,1.968c1.228,1.156,1.936,4.876,1.765,6.989L22.402,43.763z" opacity=".545"/><linearGradient id="iRyfsmasG6dullIjYHRz1Y" x1="5.203" x2="22.136" y1="33.513" y2="33.513" gradientUnits="userSpaceOnUse"><stop offset="0" stop-color="#e9a514"/><stop offset=".519" stop-color="#eeb11b" stop-opacity=".815"/><stop offset=".999" stop-color="#eeb11a"/></linearGradient><path fill="url(#iRyfsmasG6dullIjYHRz1Y)" d="M22.136,43.318c0-1.167-1.282-5.775-2.131-6.575 c-0.39-1.034-1.016-2.101-1.838-3.007c-0.281-0.309-0.542-0.641-0.783-1.001c-0.036-0.053-1.282-1.845-1.316-1.9l-0.705-0.979 l-1.527-2.18l-1.048-1.418c-0.643-0.603-1.53-1.133-2.387-1.363c-0.367-0.345-2.419-0.945-2.909-1.077 c-0.259-0.068-1.153-0.195-1.245-0.428c-0.578,0.269-1.036,0.619-1.044,0.834c-0.012,0.582,0.379,1.1,0.955,1.251l2.938,0.786 c1.347,0.362,2.58,1.044,3.59,1.992l0.281,0.264l2.391,3.437l0.014-0.02l1.913,2.729c0.093,0.149,0.17,0.303,0.27,0.449 c0.5,0.731,1.067,1.39,1.681,1.968c1.249,1.176,1.971,4.5,1.834,6.556L22.136,43.318z" opacity=".636"/><linearGradient id="iRyfsmasG6dullIjYHRz1Z" x1="5.134" x2="21.869" y1="33.495" y2="33.495" gradientUnits="userSpaceOnUse"><stop offset="0" stop-color="#e8a414"/><stop offset=".519" stop-color="#ecad1a" stop-opacity=".861"/><stop offset=".999" stop-color="#ecad19"/></linearGradient><path fill="url(#iRyfsmasG6dullIjYHRz1Z)" d="M21.869,42.874c0-1.334-1.156-5.223-2.127-6.138 c-0.446-0.92-1.052-1.889-1.798-2.747c-0.234-0.269-0.451-0.556-0.655-0.863c-0.027-0.04-1.44-2.066-1.465-2.107l-0.532-0.729 l-1.743-2.494l-0.856-1.129c-0.735-0.689-1.708-1.257-2.687-1.521c-0.276-0.258-2.549-0.905-2.916-1.004 c-0.296-0.078-1.043-0.247-1.149-0.513c-0.444,0.243-0.798,0.548-0.808,0.754c-0.012,0.582,0.379,1.1,0.955,1.251l2.938,0.786 c1.347,0.362,2.58,1.044,3.59,1.992l0.281,0.264l2.391,3.437l0.014-0.02l1.913,2.729c0.093,0.149,0.17,0.303,0.27,0.449 c0.5,0.731,1.067,1.39,1.681,1.968c1.271,1.196,2.007,4.123,1.904,6.124L21.869,42.874z" opacity=".727"/><linearGradient id="iRyfsmasG6dullIjYHRz1aa" x1="5.064" x2="21.603" y1="33.477" y2="33.477" gradientUnits="userSpaceOnUse"><stop offset="0" stop-color="#e7a315"/><stop offset=".519" stop-color="#eaa918" stop-opacity=".907"/><stop offset=".999" stop-color="#eaa918"/></linearGradient><path fill="url(#iRyfsmasG6dullIjYHRz1aa)" d="M21.603,42.429c0-1.5-1.03-4.672-2.122-5.7 c-0.502-0.806-1.09-1.675-1.759-2.487c-0.189-0.229-0.36-0.47-0.527-0.725c-0.018-0.027-1.598-2.287-1.614-2.314l-0.359-0.48 l-1.959-2.809l-0.664-0.841c-0.827-0.775-1.886-1.381-2.988-1.678c-0.184-0.172-2.678-0.865-2.923-0.931 c-0.333-0.087-0.933-0.298-1.052-0.598c-0.311,0.218-0.56,0.477-0.571,0.675c-0.012,0.582,0.379,1.1,0.955,1.251l2.938,0.786 c1.347,0.362,2.58,1.044,3.59,1.992l0.281,0.264l2.391,3.437l0.014-0.02l1.913,2.729c0.093,0.149,0.17,0.303,0.27,0.449 c0.5,0.731,1.067,1.39,1.681,1.968c1.292,1.217,2.042,3.746,1.974,5.691L21.603,42.429z" opacity=".818"/><linearGradient id="iRyfsmasG6dullIjYHRz1ab" x1="4.995" x2="21.337" y1="33.459" y2="33.459" gradientUnits="userSpaceOnUse"><stop offset="0" stop-color="#e6a115"/><stop offset=".519" stop-color="#e7a417" stop-opacity=".954"/><stop offset=".999" stop-color="#e7a416"/></linearGradient><path fill="url(#iRyfsmasG6dullIjYHRz1ab)" d="M21.337,41.985c0-1.667-0.904-4.12-2.117-5.263 c-0.558-0.692-1.132-1.458-1.72-2.227c-0.144-0.188-0.269-0.385-0.398-0.587c-0.009-0.013-1.755-2.508-1.764-2.521l-0.187-0.23 l-2.175-3.123l-0.473-0.552c-0.918-0.861-2.065-1.505-3.289-1.835c-0.092-0.086-2.808-0.826-2.931-0.859 c-0.37-0.097-0.823-0.35-0.955-0.683c-0.177,0.192-0.322,0.406-0.334,0.595c-0.012,0.582,0.379,1.1,0.955,1.251l2.938,0.786 c1.347,0.362,2.58,1.044,3.59,1.992l0.281,0.264l2.391,3.437l0.014-0.02l1.913,2.729c0.093,0.149,0.17,0.303,0.27,0.449 c0.5,0.731,1.067,1.39,1.681,1.968c1.314,1.237,2.077,3.369,2.043,5.259L21.337,41.985z" opacity=".909"/><path fill="#e5a015" d="M21.07,41.54c0-1.834-0.778-3.569-2.113-4.826c-0.614-0.578-1.181-1.237-1.681-1.968 c-0.1-0.146-0.177-0.3-0.27-0.449l-1.913-2.729l-0.014,0.02l-2.391-3.437l-0.281-0.264c-1.01-0.947-2.243-1.63-3.59-1.992 L5.88,25.11c-0.407-0.107-0.713-0.401-0.858-0.767c-0.043,0.167-0.083,0.335-0.097,0.516c-0.012,0.582,0.379,1.1,0.955,1.251 l2.938,0.786c1.347,0.362,2.58,1.044,3.59,1.992l0.281,0.264l2.391,3.437l0.014-0.02l1.913,2.729 c0.093,0.149,0.17,0.303,0.27,0.449c0.5,0.731,1.067,1.39,1.681,1.968c1.335,1.257,2.113,2.992,2.113,4.826V41.54z"/></g><g opacity=".3"><linearGradient id="iRyfsmasG6dullIjYHRz1ac" x1="21.07" x2="38.07" y1="43.758" y2="43.758" gradientUnits="userSpaceOnUse"><stop offset="0" stop-color="#f0af13"/><stop offset=".519" stop-color="#fed026" stop-opacity=".49"/><stop offset=".999" stop-color="#fecf24"/></linearGradient><linearGradient id="iRyfsmasG6dullIjYHRz1ad" x1="21.07" x2="38.07" y1="43.944" y2="43.944" gradientUnits="userSpaceOnUse"><stop offset="0" stop-color="#efae13"/><stop offset=".519" stop-color="#fccc24" stop-opacity=".536"/><stop offset=".999" stop-color="#fccb23"/></linearGradient><path fill="url(#iRyfsmasG6dullIjYHRz1ad)" d="M29.57,42.673c-4.694,0-8.5-0.565-8.5-1.261v3.802 c0,0.697,3.806,1.261,8.5,1.261c4.694,0,8.5-0.565,8.5-1.261v-3.802C38.07,42.108,34.265,42.673,29.57,42.673z" opacity=".091"/><linearGradient id="iRyfsmasG6dullIjYHRz1ae" x1="21.07" x2="38.07" y1="44.129" y2="44.129" gradientUnits="userSpaceOnUse"><stop offset="0" stop-color="#eeac13"/><stop offset=".519" stop-color="#f9c723" stop-opacity=".583"/><stop offset=".999" stop-color="#f9c621"/></linearGradient><path fill="url(#iRyfsmasG6dullIjYHRz1ae)" d="M29.57,42.999c-4.694,0-8.5-0.565-8.5-1.261v3.522 c0,0.697,3.806,1.261,8.5,1.261c4.694,0,8.5-0.565,8.5-1.261v-3.522C38.07,42.434,34.265,42.999,29.57,42.999z" opacity=".182"/><linearGradient id="iRyfsmasG6dullIjYHRz1af" x1="21.07" x2="38.07" y1="44.315" y2="44.315" gradientUnits="userSpaceOnUse"><stop offset="0" stop-color="#edab14"/><stop offset=".519" stop-color="#f7c321" stop-opacity=".629"/><stop offset=".999" stop-color="#f7c220"/></linearGradient><path fill="url(#iRyfsmasG6dullIjYHRz1af)" d="M29.57,43.324c-4.694,0-8.5-0.565-8.5-1.261v3.242 c0,0.697,3.806,1.261,8.5,1.261c4.694,0,8.5-0.565,8.5-1.261v-3.242C38.07,42.76,34.265,43.324,29.57,43.324z" opacity=".273"/><linearGradient id="iRyfsmasG6dullIjYHRz1ag" x1="21.07" x2="38.07" y1="44.5" y2="44.5" gradientUnits="userSpaceOnUse"><stop offset="0" stop-color="#ecaa14"/><stop offset=".519" stop-color="#f5bf20" stop-opacity=".675"/><stop offset=".999" stop-color="#f5be1f"/></linearGradient><path fill="url(#iRyfsmasG6dullIjYHRz1ag)" d="M29.57,43.65c-4.694,0-8.5-0.565-8.5-1.261v2.961 c0,0.697,3.806,1.261,8.5,1.261c4.694,0,8.5-0.565,8.5-1.261v-2.961C38.07,43.085,34.265,43.65,29.57,43.65z" opacity=".364"/><linearGradient id="iRyfsmasG6dullIjYHRz1ah" x1="21.07" x2="38.07" y1="44.686" y2="44.686" gradientUnits="userSpaceOnUse"><stop offset="0" stop-color="#eba814"/><stop offset=".519" stop-color="#f3ba1e" stop-opacity=".722"/><stop offset=".999" stop-color="#f3ba1d"/></linearGradient><path fill="url(#iRyfsmasG6dullIjYHRz1ah)" d="M29.57,43.976c-4.694,0-8.5-0.565-8.5-1.261v2.681 c0,0.697,3.806,1.261,8.5,1.261c4.694,0,8.5-0.565,8.5-1.261v-2.681C38.07,43.411,34.265,43.976,29.57,43.976z" opacity=".455"/><linearGradient id="iRyfsmasG6dullIjYHRz1ai" x1="21.07" x2="38.07" y1="44.871" y2="44.871" gradientUnits="userSpaceOnUse"><stop offset="0" stop-color="#eaa714"/><stop offset=".519" stop-color="#f0b61d" stop-opacity=".768"/><stop offset=".999" stop-color="#f0b51c"/></linearGradient><path fill="url(#iRyfsmasG6dullIjYHRz1ai)" d="M29.57,44.301c-4.694,0-8.5-0.565-8.5-1.261v2.401 c0,0.697,3.806,1.261,8.5,1.261c4.694,0,8.5-0.565,8.5-1.261V43.04C38.07,43.737,34.265,44.301,29.57,44.301z" opacity=".545"/><linearGradient id="iRyfsmasG6dullIjYHRz1aj" x1="21.07" x2="38.07" y1="45.057" y2="45.057" gradientUnits="userSpaceOnUse"><stop offset="0" stop-color="#e9a514"/><stop offset=".519" stop-color="#eeb11b" stop-opacity=".815"/><stop offset=".999" stop-color="#eeb11a"/></linearGradient><path fill="url(#iRyfsmasG6dullIjYHRz1aj)" d="M29.57,44.627c-4.694,0-8.5-0.565-8.5-1.261v2.121 c0,0.697,3.806,1.261,8.5,1.261c4.694,0,8.5-0.565,8.5-1.261v-2.121C38.07,44.062,34.265,44.627,29.57,44.627z" opacity=".636"/><linearGradient id="iRyfsmasG6dullIjYHRz1ak" x1="21.07" x2="38.07" y1="45.242" y2="45.242" gradientUnits="userSpaceOnUse"><stop offset="0" stop-color="#e8a414"/><stop offset=".519" stop-color="#ecad1a" stop-opacity=".861"/><stop offset=".999" stop-color="#ecad19"/></linearGradient><path fill="url(#iRyfsmasG6dullIjYHRz1ak)" d="M29.57,44.953c-4.694,0-8.5-0.565-8.5-1.261v1.841 c0,0.697,3.806,1.261,8.5,1.261c4.694,0,8.5-0.565,8.5-1.261v-1.841C38.07,44.388,34.265,44.953,29.57,44.953z" opacity=".727"/><linearGradient id="iRyfsmasG6dullIjYHRz1al" x1="21.07" x2="38.07" y1="45.428" y2="45.428" gradientUnits="userSpaceOnUse"><stop offset="0" stop-color="#e7a315"/><stop offset=".519" stop-color="#eaa918" stop-opacity=".907"/><stop offset=".999" stop-color="#eaa918"/></linearGradient><path fill="url(#iRyfsmasG6dullIjYHRz1al)" d="M29.57,45.278c-4.694,0-8.5-0.565-8.5-1.261v1.56 c0,0.697,3.806,1.261,8.5,1.261c4.694,0,8.5-0.565,8.5-1.261v-1.56C38.07,44.714,34.265,45.278,29.57,45.278z" opacity=".818"/><linearGradient id="iRyfsmasG6dullIjYHRz1am" x1="21.07" x2="38.07" y1="45.614" y2="45.614" gradientUnits="userSpaceOnUse"><stop offset="0" stop-color="#e6a115"/><stop offset=".519" stop-color="#e7a417" stop-opacity=".954"/><stop offset=".999" stop-color="#e7a416"/></linearGradient><path fill="url(#iRyfsmasG6dullIjYHRz1am)" d="M29.57,45.604c-4.694,0-8.5-0.565-8.5-1.261v1.28 c0,0.697,3.806,1.261,8.5,1.261c4.694,0,8.5-0.565,8.5-1.261v-1.28C38.07,45.039,34.265,45.604,29.57,45.604z" opacity=".909"/><path fill="#e5a015" d="M29.57,45.93c-4.694,0-8.5-0.565-8.5-1.261v1c0,0.697,3.806,1.261,8.5,1.261 c4.694,0,8.5-0.565,8.5-1.261v-1C38.07,45.365,34.265,45.93,29.57,45.93z"/></g><g opacity=".34"><linearGradient id="iRyfsmasG6dullIjYHRz1an" x1="38.07" x2="43.078" y1="31.166" y2="31.166" gradientUnits="userSpaceOnUse"><stop offset="0" stop-color="#f0af13"/><stop offset=".519" stop-color="#fed026" stop-opacity=".49"/><stop offset=".999" stop-color="#fecf24"/></linearGradient><linearGradient id="iRyfsmasG6dullIjYHRz1ao" x1="38.07" x2="43.077" y1="31.359" y2="31.359" gradientUnits="userSpaceOnUse"><stop offset="0" stop-color="#efae13"/><stop offset=".519" stop-color="#fccc24" stop-opacity=".536"/><stop offset=".999" stop-color="#fccb23"/></linearGradient><path fill="url(#iRyfsmasG6dullIjYHRz1ao)" d="M42.283,32.152c-0.374,0.939-1.028,1.77-1.837,2.458 c-1.489,1.267-2.376,3.102-2.376,5.057v2.513c0-1.956,0.886-3.254,2.376-4.522c0.809-0.688,1.587-1.283,1.961-2.222 c0.693-1.741,0.677-10.539,0.668-14.9C43.065,24.835,42.925,30.54,42.283,32.152z" opacity=".091"/><linearGradient id="iRyfsmasG6dullIjYHRz1ap" x1="38.07" x2="43.077" y1="31.551" y2="31.551" gradientUnits="userSpaceOnUse"><stop offset="0" stop-color="#eeac13"/><stop offset=".519" stop-color="#f9c723" stop-opacity=".583"/><stop offset=".999" stop-color="#f9c621"/></linearGradient><path fill="url(#iRyfsmasG6dullIjYHRz1ap)" d="M42.283,32.42c-0.374,0.939-1.028,1.77-1.837,2.458 c-1.489,1.267-2.376,3.102-2.376,5.057v2.361c0-1.956,0.886-3.308,2.376-4.575c0.809-0.688,1.575-1.307,1.948-2.246 c0.693-1.741,0.69-10.311,0.68-14.671C43.065,25.103,42.925,30.808,42.283,32.42z" opacity=".182"/><linearGradient id="iRyfsmasG6dullIjYHRz1aq" x1="38.07" x2="43.076" y1="31.743" y2="31.743" gradientUnits="userSpaceOnUse"><stop offset="0" stop-color="#edab14"/><stop offset=".519" stop-color="#f7c321" stop-opacity=".629"/><stop offset=".999" stop-color="#f7c220"/></linearGradient><path fill="url(#iRyfsmasG6dullIjYHRz1aq)" d="M42.283,32.688c-0.374,0.939-1.028,1.77-1.837,2.458 c-1.489,1.267-2.376,3.102-2.376,5.057v2.21c0-1.956,0.886-3.362,2.376-4.629c0.809-0.688,1.562-1.331,1.936-2.269 c0.693-1.741,0.702-10.083,0.692-14.443C43.065,25.371,42.925,31.076,42.283,32.688z" opacity=".273"/><linearGradient id="iRyfsmasG6dullIjYHRz1ar" x1="38.07" x2="43.076" y1="31.936" y2="31.936" gradientUnits="userSpaceOnUse"><stop offset="0" stop-color="#ecaa14"/><stop offset=".519" stop-color="#f5bf20" stop-opacity=".675"/><stop offset=".999" stop-color="#f5be1f"/></linearGradient><path fill="url(#iRyfsmasG6dullIjYHRz1ar)" d="M42.283,32.956c-0.374,0.939-1.028,1.77-1.837,2.458 c-1.489,1.267-2.376,3.102-2.376,5.057v2.059c0-1.956,0.886-3.415,2.376-4.682c0.809-0.688,1.55-1.354,1.924-2.293 c0.693-1.741,0.714-9.854,0.705-14.215C43.065,25.639,42.925,31.343,42.283,32.956z" opacity=".364"/><linearGradient id="iRyfsmasG6dullIjYHRz1as" x1="38.07" x2="43.076" y1="32.128" y2="32.128" gradientUnits="userSpaceOnUse"><stop offset="0" stop-color="#eba814"/><stop offset=".519" stop-color="#f3ba1e" stop-opacity=".722"/><stop offset=".999" stop-color="#f3ba1d"/></linearGradient><path fill="url(#iRyfsmasG6dullIjYHRz1as)" d="M42.283,33.224c-0.374,0.939-1.028,1.77-1.837,2.458 c-1.489,1.267-2.376,3.102-2.376,5.057v1.908c0-1.956,0.886-3.469,2.376-4.736c0.809-0.688,1.537-1.378,1.911-2.317 c0.693-1.741,0.727-9.626,0.717-13.986C43.065,25.907,42.925,31.611,42.283,33.224z" opacity=".455"/><linearGradient id="iRyfsmasG6dullIjYHRz1at" x1="38.07" x2="43.075" y1="32.32" y2="32.32" gradientUnits="userSpaceOnUse"><stop offset="0" stop-color="#eaa714"/><stop offset=".519" stop-color="#f0b61d" stop-opacity=".768"/><stop offset=".999" stop-color="#f0b51c"/></linearGradient><path fill="url(#iRyfsmasG6dullIjYHRz1at)" d="M42.283,33.492c-0.374,0.939-1.028,1.77-1.837,2.458 c-1.489,1.267-2.376,3.102-2.376,5.057v1.756c0-1.956,0.886-3.522,2.376-4.79c0.809-0.688,1.525-1.401,1.899-2.34 c0.693-1.741,0.739-9.397,0.729-13.758C43.065,26.175,42.925,31.879,42.283,33.492z" opacity=".545"/><linearGradient id="iRyfsmasG6dullIjYHRz1au" x1="38.07" x2="43.075" y1="32.513" y2="32.513" gradientUnits="userSpaceOnUse"><stop offset="0" stop-color="#e9a514"/><stop offset=".519" stop-color="#eeb11b" stop-opacity=".815"/><stop offset=".999" stop-color="#eeb11a"/></linearGradient><path fill="url(#iRyfsmasG6dullIjYHRz1au)" d="M42.283,33.76c-0.374,0.939-1.028,1.77-1.837,2.458 c-1.489,1.267-2.376,3.102-2.376,5.057v1.605c0-1.956,0.886-3.576,2.376-4.843c0.809-0.688,1.513-1.425,1.887-2.364 c0.693-1.741,0.752-9.169,0.742-13.529C43.065,26.443,42.925,32.147,42.283,33.76z" opacity=".636"/><linearGradient id="iRyfsmasG6dullIjYHRz1av" x1="38.07" x2="43.075" y1="32.705" y2="32.705" gradientUnits="userSpaceOnUse"><stop offset="0" stop-color="#e8a414"/><stop offset=".519" stop-color="#ecad1a" stop-opacity=".861"/><stop offset=".999" stop-color="#ecad19"/></linearGradient><path fill="url(#iRyfsmasG6dullIjYHRz1av)" d="M42.283,34.028c-0.374,0.939-1.028,1.77-1.837,2.458 c-1.489,1.267-2.376,3.102-2.376,5.057v1.454c0-1.956,0.886-3.629,2.376-4.897c0.809-0.688,1.5-1.449,1.874-2.387 c0.693-1.741,0.764-8.94,0.754-13.301C43.065,26.71,42.925,32.415,42.283,34.028z" opacity=".727"/><linearGradient id="iRyfsmasG6dullIjYHRz1aw" x1="38.07" x2="43.075" y1="32.897" y2="32.897" gradientUnits="userSpaceOnUse"><stop offset="0" stop-color="#e7a315"/><stop offset=".519" stop-color="#eaa918" stop-opacity=".907"/><stop offset=".999" stop-color="#eaa918"/></linearGradient><path fill="url(#iRyfsmasG6dullIjYHRz1aw)" d="M42.283,34.296c-0.374,0.939-1.028,1.77-1.837,2.458 c-1.489,1.267-2.376,3.102-2.376,5.057v1.303c0-1.956,0.886-3.683,2.376-4.95c0.809-0.688,1.488-1.472,1.862-2.411 c0.693-1.741,0.776-8.712,0.767-13.072C43.065,26.978,42.925,32.683,42.283,34.296z" opacity=".818"/><linearGradient id="iRyfsmasG6dullIjYHRz1ax" x1="38.07" x2="43.075" y1="33.09" y2="33.09" gradientUnits="userSpaceOnUse"><stop offset="0" stop-color="#e6a115"/><stop offset=".519" stop-color="#e7a417" stop-opacity=".954"/><stop offset=".999" stop-color="#e7a416"/></linearGradient><path fill="url(#iRyfsmasG6dullIjYHRz1ax)" d="M42.283,34.564c-0.374,0.939-1.028,1.77-1.837,2.458 c-1.489,1.267-2.376,3.102-2.376,5.057v1.151c0-1.956,0.886-3.737,2.376-5.004c0.809-0.688,1.476-1.496,1.849-2.435 c0.693-1.741,0.789-8.483,0.779-12.844C43.065,27.246,42.925,32.951,42.283,34.564z" opacity=".909"/><path fill="#e5a015" d="M42.283,34.832c-0.374,0.939-1.028,1.77-1.837,2.458c-1.489,1.267-2.376,3.102-2.376,5.057v1 c0-1.956,0.886-3.79,2.376-5.057c0.809-0.688,1.463-1.519,1.837-2.458c0.693-1.741,0.801-8.255,0.791-12.615 C43.065,27.514,42.925,33.219,42.283,34.832z"/></g></svg>