<svg xmlns="http://www.w3.org/2000/svg" viewBox="0 0 48 48"><radialGradient id="WWaQuZlvLTqY_eeDIG~AFa" cx="-243.069" cy="1056.776" r="24.277" gradientTransform="matrix(1 .007 -.0067 .9552 269.596 -984.739)" gradientUnits="userSpaceOnUse"><stop offset="0" stop-color="#ffe16e"/><stop offset=".629" stop-color="#ffd226"/><stop offset=".75" stop-color="#fdcd23"/><stop offset=".9" stop-color="#f6bd1b"/><stop offset="1" stop-color="#f0af13"/></radialGradient><path fill="url(#WWaQuZlvLTqY_eeDIG~AFa)" d="M26.93,2.191v3.128c0,1.834,0.778,3.569,2.113,4.826c0.614,0.578,1.181,1.237,1.681,1.968	c0.1,0.146,0.177,0.3,0.27,0.449l1.913,2.729l0.014-0.02l2.391,3.437l0.281,0.264c1.01,0.947,2.243,1.63,3.59,1.992l2.938,0.786	c0.576,0.151,0.967,0.669,0.955,1.251c-0.277,3.73-6.903,4.476-13.512,1.462v0.012c-0.37-0.161-0.612,0.05-0.676,0.804	c0,0.005-0.001,0.011-0.001,0.016c-0.024,0.807-0.538,17.842-0.542,18.004c0.028,0.94-0.175,1.779-0.537,2.444	c-0.411,0.755-1.001,1.177-1.658,1.188c-0.658,0.011-1.262-0.391-1.699-1.132c-0.384-0.652-0.604-1.512-0.619-2.407l-0.717-14.056	c-0.009,0-0.017,0-0.035,0c-0.27,1.379-1.479,2.421-2.937,2.421c-1.657,0-3-1.343-3-3c0,1.657-1.343,3-3,3	c-1.455,0-2.661-1.037-2.935-2.411c-0.246,1.409-1.468,2.483-2.948,2.483c-1.657,0-3.287-1.438-3.287-3.095	c0-0.003-0.322-14.022,0.747-16.705c0.374-0.939,1.028-1.77,1.837-2.458C9.043,8.302,9.93,6.468,9.93,4.512V2.191	c0-0.697,3.806-1.261,8.5-1.261C23.124,0.93,26.93,1.494,26.93,2.191z"/><g opacity=".62"><linearGradient id="WWaQuZlvLTqY_eeDIG~AFb" x1="-761.855" x2="-763.345" y1="1932.335" y2="1928.136" gradientTransform="scale(-1 1) rotate(9.968 10522.53 5253.802)" gradientUnits="userSpaceOnUse"><stop offset="0" stop-color="#fcc822" stop-opacity=".6"/><stop offset=".999" stop-color="#ffd32b"/><stop offset="1" stop-color="#ffd32b"/></linearGradient><path fill="url(#WWaQuZlvLTqY_eeDIG~AFb)" d="M17.027,28.89l-1.276-2.988 c0.014-0.777,0.656-1.396,1.433-1.381c0.777,0.014,1.396,0.656,1.381,1.433c-0.002,0.111-0.019,0.225-0.045,0.328l-1.205,2.648 c-0.02,0.078-0.1,0.125-0.178,0.105C17.069,29.017,17.025,28.956,17.027,28.89z" opacity=".091"/><linearGradient id="WWaQuZlvLTqY_eeDIG~AFc" x1="-761.855" x2="-763.33" y1="1932.339" y2="1928.169" gradientTransform="scale(-1 1) rotate(9.968 10522.53 5253.802)" gradientUnits="userSpaceOnUse"><stop offset="0" stop-color="#fbc622" stop-opacity=".64"/><stop offset=".999" stop-color="#ffd32b"/><stop offset="1" stop-color="#ffd32b"/></linearGradient><path fill="url(#WWaQuZlvLTqY_eeDIG~AFc)" d="M17.037,28.899l-1.174-3.065 c0.015-0.72,0.611-1.292,1.331-1.276c0.72,0.015,1.292,0.611,1.276,1.331c-0.002,0.1-0.017,0.204-0.041,0.297l-1.126,2.75 c-0.019,0.073-0.093,0.116-0.165,0.098C17.077,29.017,17.036,28.961,17.037,28.899z" opacity=".182"/><linearGradient id="WWaQuZlvLTqY_eeDIG~AFd" x1="-761.855" x2="-763.314" y1="1932.343" y2="1928.203" gradientTransform="scale(-1 1) rotate(9.968 10522.53 5253.802)" gradientUnits="userSpaceOnUse"><stop offset="0" stop-color="#fbc322" stop-opacity=".68"/><stop offset=".999" stop-color="#ffd32b"/><stop offset="1" stop-color="#ffd32b"/></linearGradient><path fill="url(#WWaQuZlvLTqY_eeDIG~AFd)" d="M17.047,28.909l-1.072-3.143 c0.016-0.663,0.566-1.187,1.229-1.172c0.663,0.016,1.185,0.566,1.172,1.229c-0.002,0.09-0.015,0.183-0.036,0.266l-1.047,2.852 c-0.017,0.067-0.085,0.107-0.152,0.09C17.084,29.018,17.046,28.966,17.047,28.909z" opacity=".273"/><linearGradient id="WWaQuZlvLTqY_eeDIG~AFe" x1="-761.856" x2="-763.301" y1="1932.348" y2="1928.237" gradientTransform="scale(-1 1) rotate(9.968 10522.53 5253.802)" gradientUnits="userSpaceOnUse"><stop offset="0" stop-color="#fac122" stop-opacity=".72"/><stop offset=".999" stop-color="#ffd32b"/><stop offset="1" stop-color="#ffd32b"/></linearGradient><path fill="url(#WWaQuZlvLTqY_eeDIG~AFe)" d="M17.058,28.918l-0.969-3.22 c0.017-0.606,0.521-1.083,1.127-1.067c0.606,0.017,1.081,0.521,1.067,1.127c-0.002,0.079-0.014,0.162-0.032,0.236l-0.967,2.954 c-0.015,0.061-0.077,0.098-0.138,0.083C17.091,29.019,17.056,28.971,17.058,28.918z" opacity=".364"/><linearGradient id="WWaQuZlvLTqY_eeDIG~AFf" x1="-761.854" x2="-763.285" y1="1932.351" y2="1928.269" gradientTransform="scale(-1 1) rotate(9.968 10522.53 5253.802)" gradientUnits="userSpaceOnUse"><stop offset="0" stop-color="#fabe22" stop-opacity=".76"/><stop offset=".999" stop-color="#ffd32b"/><stop offset="1" stop-color="#ffd32b"/></linearGradient><path fill="url(#WWaQuZlvLTqY_eeDIG~AFf)" d="M17.068,28.928L16.2,25.631 c0.018-0.549,0.477-0.979,1.025-0.962c0.549,0.018,0.976,0.476,0.962,1.025c-0.002,0.069-0.012,0.141-0.028,0.205l-0.888,3.056 c-0.014,0.055-0.07,0.089-0.125,0.076C17.098,29.02,17.066,28.976,17.068,28.928z" opacity=".455"/><linearGradient id="WWaQuZlvLTqY_eeDIG~AFg" x1="-761.855" x2="-763.27" y1="1932.355" y2="1928.306" gradientTransform="scale(-1 1) rotate(9.968 10522.53 5253.802)" gradientUnits="userSpaceOnUse"><stop offset="0" stop-color="#f9bc21" stop-opacity=".8"/><stop offset=".999" stop-color="#ffd32b"/><stop offset="1" stop-color="#ffd32b"/></linearGradient><path fill="url(#WWaQuZlvLTqY_eeDIG~AFg)" d="M17.078,28.938l-0.765-3.374 c0.018-0.492,0.432-0.875,0.923-0.857c0.492,0.018,0.871,0.432,0.857,0.923c-0.002,0.059-0.01,0.12-0.024,0.174l-0.809,3.158 c-0.012,0.05-0.062,0.08-0.112,0.069C17.105,29.021,17.076,28.981,17.078,28.938z" opacity=".545"/><linearGradient id="WWaQuZlvLTqY_eeDIG~AFh" x1="-761.855" x2="-763.256" y1="1932.359" y2="1928.338" gradientTransform="scale(-1 1) rotate(9.968 10522.53 5253.802)" gradientUnits="userSpaceOnUse"><stop offset="0" stop-color="#f9b921" stop-opacity=".84"/><stop offset=".999" stop-color="#ffd32b"/><stop offset="1" stop-color="#ffd32b"/></linearGradient><path fill="url(#WWaQuZlvLTqY_eeDIG~AFh)" d="M17.088,28.947l-0.663-3.451 c0.019-0.434,0.387-0.771,0.821-0.752s0.767,0.387,0.752,0.821c-0.002,0.048-0.009,0.098-0.02,0.143l-0.729,3.26 c-0.01,0.044-0.054,0.071-0.098,0.061C17.113,29.022,17.087,28.986,17.088,28.947z" opacity=".636"/><linearGradient id="WWaQuZlvLTqY_eeDIG~AFi" x1="-761.857" x2="-763.243" y1="1932.363" y2="1928.372" gradientTransform="scale(-1 1) rotate(9.968 10522.53 5253.802)" gradientUnits="userSpaceOnUse"><stop offset="0" stop-color="#f8b721" stop-opacity=".88"/><stop offset=".999" stop-color="#ffd32b"/><stop offset="1" stop-color="#ffd32b"/></linearGradient><path fill="url(#WWaQuZlvLTqY_eeDIG~AFi)" d="M17.099,28.957l-0.561-3.528 c0.02-0.377,0.342-0.667,0.719-0.647c0.377,0.02,0.662,0.342,0.647,0.719c-0.002,0.038-0.007,0.077-0.015,0.113l-0.65,3.362 c-0.009,0.038-0.047,0.063-0.085,0.054C17.12,29.022,17.097,28.991,17.099,28.957z" opacity=".727"/><linearGradient id="WWaQuZlvLTqY_eeDIG~AFj" x1="-761.858" x2="-763.23" y1="1932.366" y2="1928.405" gradientTransform="scale(-1 1) rotate(9.968 10522.53 5253.802)" gradientUnits="userSpaceOnUse"><stop offset="0" stop-color="#f8b421" stop-opacity=".92"/><stop offset=".999" stop-color="#ffd32b"/><stop offset="1" stop-color="#ffd32b"/></linearGradient><path fill="url(#WWaQuZlvLTqY_eeDIG~AFj)" d="M17.109,28.966l-0.458-3.605 c0.021-0.32,0.297-0.563,0.617-0.542s0.558,0.297,0.542,0.617c-0.001,0.027-0.005,0.056-0.011,0.082l-0.57,3.464 c-0.007,0.033-0.039,0.054-0.072,0.047C17.127,29.023,17.107,28.996,17.109,28.966z" opacity=".818"/><linearGradient id="WWaQuZlvLTqY_eeDIG~AFk" x1="-761.895" x2="-763.253" y1="1932.383" y2="1928.452" gradientTransform="scale(-1 1) rotate(9.968 10522.53 5253.802)" gradientUnits="userSpaceOnUse"><stop offset="0" stop-color="#f7b221" stop-opacity=".96"/><stop offset=".999" stop-color="#ffd32b"/><stop offset="1" stop-color="#ffd32b"/></linearGradient><path fill="url(#WWaQuZlvLTqY_eeDIG~AFk)" d="M17.119,28.976l-0.356-3.682 c0.022-0.263,0.252-0.459,0.516-0.437c0.263,0.022,0.454,0.252,0.437,0.515c-0.001,0.017-0.003,0.035-0.007,0.051l-0.491,3.566 c-0.005,0.027-0.031,0.045-0.058,0.039C17.134,29.024,17.117,29.001,17.119,28.976z" opacity=".909"/><linearGradient id="WWaQuZlvLTqY_eeDIG~AFl" x1="-761.939" x2="-763.281" y1="1932.401" y2="1928.5" gradientTransform="scale(-1 1) rotate(9.968 10522.53 5253.802)" gradientUnits="userSpaceOnUse"><stop offset="0" stop-color="#f7af21"/><stop offset="1" stop-color="#ffd32b"/></linearGradient><path fill="url(#WWaQuZlvLTqY_eeDIG~AFl)" d="M17.129,28.986l-0.254-3.759c0.022-0.206,0.208-0.355,0.414-0.332 c0.206,0.022,0.355,0.208,0.332,0.414c-0.001,0.007-0.002,0.014-0.003,0.021l-0.412,3.668c-0.004,0.021-0.024,0.036-0.045,0.032 C17.141,29.025,17.127,29.006,17.129,28.986z"/></g><g opacity=".58"><linearGradient id="WWaQuZlvLTqY_eeDIG~AFm" x1="-767.632" x2="-769.123" y1="1933.663" y2="1929.464" gradientTransform="scale(-1 1) rotate(9.968 10522.53 5253.802)" gradientUnits="userSpaceOnUse"><stop offset="0" stop-color="#fcc822" stop-opacity=".6"/><stop offset=".999" stop-color="#ffd32b"/><stop offset="1" stop-color="#ffd32b"/></linearGradient><path fill="url(#WWaQuZlvLTqY_eeDIG~AFm)" d="M22.947,29.198l-1.276-2.988 c0.014-0.777,0.656-1.396,1.433-1.381c0.777,0.014,1.396,0.656,1.381,1.433c-0.002,0.111-0.019,0.225-0.045,0.328l-1.205,2.648 c-0.02,0.078-0.1,0.125-0.178,0.105C22.99,29.325,22.946,29.264,22.947,29.198z" opacity=".091"/><linearGradient id="WWaQuZlvLTqY_eeDIG~AFn" x1="-767.631" x2="-769.107" y1="1933.667" y2="1929.497" gradientTransform="scale(-1 1) rotate(9.968 10522.53 5253.802)" gradientUnits="userSpaceOnUse"><stop offset="0" stop-color="#fbc622" stop-opacity=".64"/><stop offset=".999" stop-color="#ffd32b"/><stop offset="1" stop-color="#ffd32b"/></linearGradient><path fill="url(#WWaQuZlvLTqY_eeDIG~AFn)" d="M22.957,29.208l-1.174-3.065 c0.015-0.72,0.611-1.292,1.331-1.276c0.72,0.015,1.292,0.611,1.276,1.331c-0.002,0.1-0.017,0.204-0.041,0.297l-1.126,2.75 c-0.019,0.073-0.093,0.116-0.165,0.098C22.997,29.326,22.956,29.269,22.957,29.208z" opacity=".182"/><linearGradient id="WWaQuZlvLTqY_eeDIG~AFo" x1="-767.631" x2="-769.092" y1="1933.671" y2="1929.531" gradientTransform="scale(-1 1) rotate(9.968 10522.53 5253.802)" gradientUnits="userSpaceOnUse"><stop offset="0" stop-color="#fbc322" stop-opacity=".68"/><stop offset=".999" stop-color="#ffd32b"/><stop offset="1" stop-color="#ffd32b"/></linearGradient><path fill="url(#WWaQuZlvLTqY_eeDIG~AFo)" d="M22.967,29.217l-1.072-3.143 c0.016-0.663,0.566-1.187,1.229-1.172c0.663,0.016,1.185,0.566,1.172,1.229c-0.002,0.09-0.015,0.183-0.036,0.266l-1.047,2.852 c-0.017,0.067-0.085,0.107-0.152,0.09C23.004,29.327,22.966,29.274,22.967,29.217z" opacity=".273"/><linearGradient id="WWaQuZlvLTqY_eeDIG~AFp" x1="-767.633" x2="-769.079" y1="1933.676" y2="1929.565" gradientTransform="scale(-1 1) rotate(9.968 10522.53 5253.802)" gradientUnits="userSpaceOnUse"><stop offset="0" stop-color="#fac122" stop-opacity=".72"/><stop offset=".999" stop-color="#ffd32b"/><stop offset="1" stop-color="#ffd32b"/></linearGradient><path fill="url(#WWaQuZlvLTqY_eeDIG~AFp)" d="M22.978,29.227l-0.969-3.22 c0.017-0.606,0.521-1.083,1.127-1.067c0.606,0.017,1.081,0.521,1.067,1.127c-0.002,0.079-0.014,0.162-0.032,0.236l-0.967,2.954 c-0.015,0.061-0.077,0.098-0.138,0.083C23.011,29.328,22.976,29.279,22.978,29.227z" opacity=".364"/><linearGradient id="WWaQuZlvLTqY_eeDIG~AFq" x1="-767.633" x2="-769.064" y1="1933.679" y2="1929.596" gradientTransform="scale(-1 1) rotate(9.968 10522.53 5253.802)" gradientUnits="userSpaceOnUse"><stop offset="0" stop-color="#fabe22" stop-opacity=".76"/><stop offset=".999" stop-color="#ffd32b"/><stop offset="1" stop-color="#ffd32b"/></linearGradient><path fill="url(#WWaQuZlvLTqY_eeDIG~AFq)" d="M22.988,29.236l-0.867-3.297 c0.018-0.549,0.477-0.979,1.025-0.962c0.549,0.018,0.976,0.476,0.962,1.025c-0.002,0.069-0.012,0.141-0.028,0.205l-0.888,3.056 c-0.014,0.055-0.07,0.089-0.125,0.076C23.018,29.328,22.986,29.284,22.988,29.236z" opacity=".455"/><linearGradient id="WWaQuZlvLTqY_eeDIG~AFr" x1="-767.633" x2="-769.048" y1="1933.683" y2="1929.634" gradientTransform="scale(-1 1) rotate(9.968 10522.53 5253.802)" gradientUnits="userSpaceOnUse"><stop offset="0" stop-color="#f9bc21" stop-opacity=".8"/><stop offset=".999" stop-color="#ffd32b"/><stop offset="1" stop-color="#ffd32b"/></linearGradient><path fill="url(#WWaQuZlvLTqY_eeDIG~AFr)" d="M22.998,29.246l-0.765-3.374 c0.018-0.492,0.432-0.875,0.923-0.857c0.492,0.018,0.871,0.432,0.857,0.923c-0.002,0.059-0.01,0.12-0.024,0.174L23.18,29.27 c-0.012,0.05-0.062,0.08-0.112,0.069C23.026,29.329,22.997,29.289,22.998,29.246z" opacity=".545"/><linearGradient id="WWaQuZlvLTqY_eeDIG~AFs" x1="-767.634" x2="-769.035" y1="1933.687" y2="1929.666" gradientTransform="scale(-1 1) rotate(9.968 10522.53 5253.802)" gradientUnits="userSpaceOnUse"><stop offset="0" stop-color="#f9b921" stop-opacity=".84"/><stop offset=".999" stop-color="#ffd32b"/><stop offset="1" stop-color="#ffd32b"/></linearGradient><path fill="url(#WWaQuZlvLTqY_eeDIG~AFs)" d="M23.009,29.256l-0.663-3.451 c0.019-0.434,0.387-0.771,0.821-0.752s0.767,0.387,0.752,0.821c-0.002,0.048-0.009,0.098-0.02,0.143l-0.729,3.26 c-0.01,0.044-0.054,0.071-0.098,0.061C23.033,29.33,23.007,29.294,23.009,29.256z" opacity=".636"/><linearGradient id="WWaQuZlvLTqY_eeDIG~AFt" x1="-767.633" x2="-769.02" y1="1933.69" y2="1929.7" gradientTransform="scale(-1 1) rotate(9.968 10522.53 5253.802)" gradientUnits="userSpaceOnUse"><stop offset="0" stop-color="#f8b721" stop-opacity=".88"/><stop offset=".999" stop-color="#ffd32b"/><stop offset="1" stop-color="#ffd32b"/></linearGradient><path fill="url(#WWaQuZlvLTqY_eeDIG~AFt)" d="M23.019,29.265l-0.561-3.528 c0.02-0.377,0.342-0.667,0.719-0.647c0.377,0.02,0.662,0.342,0.647,0.719c-0.002,0.038-0.007,0.077-0.015,0.113l-0.65,3.362 c-0.009,0.038-0.047,0.063-0.085,0.054C23.04,29.331,23.017,29.299,23.019,29.265z" opacity=".727"/><linearGradient id="WWaQuZlvLTqY_eeDIG~AFu" x1="-767.635" x2="-769.007" y1="1933.694" y2="1929.733" gradientTransform="scale(-1 1) rotate(9.968 10522.53 5253.802)" gradientUnits="userSpaceOnUse"><stop offset="0" stop-color="#f8b421" stop-opacity=".92"/><stop offset=".999" stop-color="#ffd32b"/><stop offset="1" stop-color="#ffd32b"/></linearGradient><path fill="url(#WWaQuZlvLTqY_eeDIG~AFu)" d="M23.029,29.275l-0.458-3.605 c0.021-0.32,0.297-0.563,0.617-0.542s0.558,0.297,0.542,0.617c-0.001,0.027-0.005,0.056-0.011,0.082l-0.57,3.464 c-0.007,0.033-0.039,0.054-0.072,0.047C23.047,29.332,23.027,29.304,23.029,29.275z" opacity=".818"/><linearGradient id="WWaQuZlvLTqY_eeDIG~AFv" x1="-767.673" x2="-769.03" y1="1933.71" y2="1929.779" gradientTransform="scale(-1 1) rotate(9.968 10522.53 5253.802)" gradientUnits="userSpaceOnUse"><stop offset="0" stop-color="#f7b221" stop-opacity=".96"/><stop offset=".999" stop-color="#ffd32b"/><stop offset="1" stop-color="#ffd32b"/></linearGradient><path fill="url(#WWaQuZlvLTqY_eeDIG~AFv)" d="M23.039,29.285l-0.356-3.682 c0.022-0.263,0.252-0.459,0.516-0.437c0.263,0.022,0.454,0.252,0.437,0.515c-0.001,0.017-0.003,0.035-0.007,0.051l-0.491,3.566 c-0.005,0.027-0.031,0.045-0.058,0.039C23.054,29.333,23.037,29.31,23.039,29.285z" opacity=".909"/><linearGradient id="WWaQuZlvLTqY_eeDIG~AFw" x1="-767.717" x2="-769.06" y1="1933.729" y2="1929.827" gradientTransform="scale(-1 1) rotate(9.968 10522.53 5253.802)" gradientUnits="userSpaceOnUse"><stop offset="0" stop-color="#f7af21"/><stop offset="1" stop-color="#ffd32b"/></linearGradient><path fill="url(#WWaQuZlvLTqY_eeDIG~AFw)" d="M23.05,29.294l-0.254-3.759c0.022-0.206,0.208-0.355,0.414-0.332 c0.206,0.022,0.355,0.208,0.332,0.414c-0.001,0.007-0.002,0.014-0.003,0.021l-0.412,3.668c-0.004,0.021-0.024,0.036-0.045,0.032 C23.062,29.333,23.047,29.315,23.05,29.294z"/></g><g opacity=".82"><linearGradient id="WWaQuZlvLTqY_eeDIG~AFx" x1="-755.965" x2="-757.455" y1="1931.642" y2="1927.442" gradientTransform="scale(-1 1) rotate(9.968 10522.53 5253.802)" gradientUnits="userSpaceOnUse"><stop offset="0" stop-color="#fac722" stop-opacity=".6"/><stop offset=".999" stop-color="#fdcd23"/><stop offset="1" stop-color="#fdcd23"/></linearGradient><path fill="url(#WWaQuZlvLTqY_eeDIG~AFx)" d="M11.106,29.225L9.83,26.236 c0.014-0.777,0.656-1.396,1.433-1.381c0.777,0.014,1.396,0.656,1.381,1.433c-0.002,0.111-0.019,0.225-0.045,0.328l-1.205,2.648 c-0.02,0.078-0.1,0.125-0.178,0.105C11.149,29.352,11.105,29.291,11.106,29.225z" opacity=".091"/><linearGradient id="WWaQuZlvLTqY_eeDIG~AFy" x1="-755.966" x2="-757.441" y1="1931.645" y2="1927.475" gradientTransform="scale(-1 1) rotate(9.968 10522.53 5253.802)" gradientUnits="userSpaceOnUse"><stop offset="0" stop-color="#f8c322" stop-opacity=".64"/><stop offset=".999" stop-color="#fdcd23"/><stop offset="1" stop-color="#fdcd23"/></linearGradient><path fill="url(#WWaQuZlvLTqY_eeDIG~AFy)" d="M11.117,29.234l-1.174-3.065 c0.015-0.72,0.611-1.292,1.331-1.276c0.72,0.015,1.292,0.611,1.276,1.331c-0.002,0.1-0.017,0.204-0.041,0.297l-1.126,2.75 c-0.019,0.073-0.093,0.116-0.165,0.098C11.156,29.353,11.115,29.296,11.117,29.234z" opacity=".182"/><linearGradient id="WWaQuZlvLTqY_eeDIG~AFz" x1="-755.966" x2="-757.426" y1="1931.649" y2="1927.509" gradientTransform="scale(-1 1) rotate(9.968 10522.53 5253.802)" gradientUnits="userSpaceOnUse"><stop offset="0" stop-color="#f7bf22" stop-opacity=".68"/><stop offset=".999" stop-color="#fdcd23"/><stop offset="1" stop-color="#fdcd23"/></linearGradient><path fill="url(#WWaQuZlvLTqY_eeDIG~AFz)" d="M11.127,29.244l-1.072-3.143 c0.016-0.663,0.566-1.187,1.229-1.172c0.663,0.016,1.185,0.566,1.172,1.229c-0.002,0.09-0.015,0.183-0.036,0.266l-1.047,2.852 c-0.017,0.067-0.085,0.107-0.152,0.09C11.164,29.353,11.126,29.301,11.127,29.244z" opacity=".273"/><linearGradient id="WWaQuZlvLTqY_eeDIG~AFA" x1="-755.965" x2="-757.411" y1="1931.653" y2="1927.542" gradientTransform="scale(-1 1) rotate(9.968 10522.53 5253.802)" gradientUnits="userSpaceOnUse"><stop offset="0" stop-color="#f5bb22" stop-opacity=".72"/><stop offset=".999" stop-color="#fdcd23"/><stop offset="1" stop-color="#fdcd23"/></linearGradient><path fill="url(#WWaQuZlvLTqY_eeDIG~AFA)" d="M11.137,29.253l-0.969-3.22 c0.017-0.606,0.521-1.083,1.127-1.067c0.606,0.017,1.081,0.521,1.067,1.127c-0.002,0.079-0.014,0.162-0.032,0.236l-0.967,2.954 c-0.015,0.061-0.077,0.098-0.138,0.083C11.171,29.354,11.136,29.306,11.137,29.253z" opacity=".364"/><linearGradient id="WWaQuZlvLTqY_eeDIG~AFB" x1="-755.966" x2="-757.398" y1="1931.658" y2="1927.576" gradientTransform="scale(-1 1) rotate(9.968 10522.53 5253.802)" gradientUnits="userSpaceOnUse"><stop offset="0" stop-color="#f3b722" stop-opacity=".76"/><stop offset=".999" stop-color="#fdcd23"/><stop offset="1" stop-color="#fdcd23"/></linearGradient><path fill="url(#WWaQuZlvLTqY_eeDIG~AFB)" d="M11.148,29.263l-0.867-3.297 c0.018-0.549,0.477-0.979,1.025-0.962c0.549,0.018,0.976,0.476,0.962,1.025c-0.002,0.069-0.012,0.141-0.028,0.205l-0.888,3.056 c-0.014,0.055-0.07,0.089-0.125,0.076C11.178,29.355,11.146,29.311,11.148,29.263z" opacity=".455"/><linearGradient id="WWaQuZlvLTqY_eeDIG~AFC" x1="-755.966" x2="-757.382" y1="1931.66" y2="1927.612" gradientTransform="scale(-1 1) rotate(9.968 10522.53 5253.802)" gradientUnits="userSpaceOnUse"><stop offset="0" stop-color="#f1b421" stop-opacity=".8"/><stop offset=".999" stop-color="#fdcd23"/><stop offset="1" stop-color="#fdcd23"/></linearGradient><path fill="url(#WWaQuZlvLTqY_eeDIG~AFC)" d="M11.158,29.273l-0.765-3.374 c0.018-0.492,0.432-0.875,0.923-0.857c0.492,0.018,0.871,0.432,0.857,0.923c-0.002,0.059-0.01,0.12-0.024,0.174l-0.809,3.158 c-0.012,0.05-0.062,0.08-0.112,0.069C11.185,29.356,11.156,29.316,11.158,29.273z" opacity=".545"/><linearGradient id="WWaQuZlvLTqY_eeDIG~AFD" x1="-755.966" x2="-757.367" y1="1931.664" y2="1927.643" gradientTransform="scale(-1 1) rotate(9.968 10522.53 5253.802)" gradientUnits="userSpaceOnUse"><stop offset="0" stop-color="#efb021" stop-opacity=".84"/><stop offset=".999" stop-color="#fdcd23"/><stop offset="1" stop-color="#fdcd23"/></linearGradient><path fill="url(#WWaQuZlvLTqY_eeDIG~AFD)" d="M11.168,29.282l-0.663-3.451 c0.019-0.434,0.387-0.771,0.821-0.752s0.767,0.387,0.752,0.821c-0.002,0.048-0.009,0.098-0.02,0.143l-0.729,3.26 c-0.01,0.044-0.054,0.071-0.098,0.061C11.192,29.357,11.166,29.321,11.168,29.282z" opacity=".636"/><linearGradient id="WWaQuZlvLTqY_eeDIG~AFE" x1="-755.967" x2="-757.353" y1="1931.668" y2="1927.678" gradientTransform="scale(-1 1) rotate(9.968 10522.53 5253.802)" gradientUnits="userSpaceOnUse"><stop offset="0" stop-color="#edac21" stop-opacity=".88"/><stop offset=".999" stop-color="#fdcd23"/><stop offset="1" stop-color="#fdcd23"/></linearGradient><path fill="url(#WWaQuZlvLTqY_eeDIG~AFE)" d="M11.178,29.292l-0.561-3.528 c0.02-0.377,0.342-0.667,0.719-0.647s0.662,0.342,0.647,0.719c-0.002,0.038-0.007,0.077-0.015,0.113l-0.65,3.362 c-0.009,0.038-0.047,0.063-0.085,0.054C11.2,29.358,11.176,29.326,11.178,29.292z" opacity=".727"/><linearGradient id="WWaQuZlvLTqY_eeDIG~AFF" x1="-755.97" x2="-757.341" y1="1931.672" y2="1927.711" gradientTransform="scale(-1 1) rotate(9.968 10522.53 5253.802)" gradientUnits="userSpaceOnUse"><stop offset="0" stop-color="#eca821" stop-opacity=".92"/><stop offset=".999" stop-color="#fdcd23"/><stop offset="1" stop-color="#fdcd23"/></linearGradient><path fill="url(#WWaQuZlvLTqY_eeDIG~AFF)" d="M11.189,29.302l-0.458-3.605 c0.021-0.32,0.297-0.563,0.617-0.542s0.558,0.297,0.542,0.617c-0.001,0.027-0.005,0.056-0.011,0.082l-0.57,3.464 c-0.007,0.033-0.039,0.054-0.072,0.047C11.207,29.358,11.187,29.331,11.189,29.302z" opacity=".818"/><linearGradient id="WWaQuZlvLTqY_eeDIG~AFG" x1="-756.006" x2="-757.364" y1="1931.688" y2="1927.758" gradientTransform="scale(-1 1) rotate(9.968 10522.53 5253.802)" gradientUnits="userSpaceOnUse"><stop offset="0" stop-color="#eaa421" stop-opacity=".96"/><stop offset=".999" stop-color="#fdcd23"/><stop offset="1" stop-color="#fdcd23"/></linearGradient><path fill="url(#WWaQuZlvLTqY_eeDIG~AFG)" d="M11.199,29.311l-0.356-3.682 c0.022-0.263,0.252-0.459,0.516-0.437c0.263,0.022,0.454,0.252,0.437,0.515c-0.001,0.017-0.003,0.035-0.007,0.051l-0.491,3.566 c-0.005,0.027-0.031,0.045-0.058,0.039C11.214,29.359,11.197,29.336,11.199,29.311z" opacity=".909"/><linearGradient id="WWaQuZlvLTqY_eeDIG~AFH" x1="-756.05" x2="-757.392" y1="1931.707" y2="1927.806" gradientTransform="scale(-1 1) rotate(9.968 10522.53 5253.802)" gradientUnits="userSpaceOnUse"><stop offset="0" stop-color="#e8a021"/><stop offset="1" stop-color="#fdcd23"/></linearGradient><path fill="url(#WWaQuZlvLTqY_eeDIG~AFH)" d="M11.209,29.321l-0.254-3.759c0.022-0.206,0.208-0.355,0.414-0.332 c0.206,0.022,0.355,0.208,0.332,0.414c-0.001,0.007-0.002,0.014-0.003,0.021l-0.412,3.668c-0.004,0.021-0.024,0.036-0.045,0.032 C11.221,29.36,11.207,29.341,11.209,29.321z"/></g><radialGradient id="WWaQuZlvLTqY_eeDIG~AFI" cx="-1600.773" cy="1120.52" r="5.058" gradientTransform="matrix(0 -1 1.1761 0 -1297.36 -1574.07)" gradientUnits="userSpaceOnUse"><stop offset=".224" stop-color="#ffd73f" stop-opacity="0"/><stop offset=".999" stop-color="#f0af13"/></radialGradient><path fill="url(#WWaQuZlvLTqY_eeDIG~AFI)" d="M19.97,27.706c1.418-0.051,2.564-1.08,2.829-2.414	c0.168,1.642,0.339,3.316,0.339,3.33c0.059,1.656-1.235,3.046-2.891,3.105s-3.046-1.235-3.105-2.891	c-0.002-0.048-0.09-2.535-0.09-2.535l-0.015-0.63C17.452,26.891,18.615,27.754,19.97,27.706z" opacity=".6"/><radialGradient id="WWaQuZlvLTqY_eeDIG~AFJ" cx="-1600.773" cy="1114.53" r="5.058" gradientTransform="matrix(0 -1 1.1761 0 -1296.305 -1574.07)" gradientUnits="userSpaceOnUse"><stop offset=".224" stop-color="#ffd73f" stop-opacity="0"/><stop offset=".999" stop-color="#f0af13"/></radialGradient><path fill="url(#WWaQuZlvLTqY_eeDIG~AFJ)" d="M13.979,27.706c1.418-0.051,2.564-1.08,2.829-2.414	c0.168,1.642,0.339,3.316,0.339,3.33c0.059,1.656-1.235,3.046-2.891,3.105s-3.046-1.235-3.105-2.891	c-0.002-0.048-0.09-2.535-0.09-2.535l-0.015-0.63C11.461,26.891,12.625,27.754,13.979,27.706z" opacity=".6"/><radialGradient id="WWaQuZlvLTqY_eeDIG~AFK" cx="-1600.847" cy="1108.609" r="5.058" gradientTransform="matrix(0 -1 1.1761 0 -1295.263 -1574.07)" gradientUnits="userSpaceOnUse"><stop offset=".224" stop-color="#ffd73f" stop-opacity="0"/><stop offset=".999" stop-color="#f0af13"/></radialGradient><path fill="url(#WWaQuZlvLTqY_eeDIG~AFK)" d="M8.059,27.78c1.418-0.051,2.564-1.08,2.829-2.414	c0.168,1.642,0.339,3.316,0.339,3.33c0.059,1.656-1.235,3.046-2.891,3.105S5.29,30.566,5.231,28.91	c-0.002-0.048-0.09-2.535-0.09-2.535l-0.015-0.63C5.541,26.965,6.705,27.829,8.059,27.78z" opacity=".6"/><linearGradient id="WWaQuZlvLTqY_eeDIG~AFL" x1="-1608.247" x2="-1601.81" y1="1236.101" y2="1236.101" gradientTransform="rotate(-90 -1395.07 -179)" gradientUnits="userSpaceOnUse"><stop offset=".249" stop-color="#fff7e6"/><stop offset="1" stop-color="#fff" stop-opacity="0"/></linearGradient><path fill="url(#WWaQuZlvLTqY_eeDIG~AFL)" d="M19.912,26.786c1.418-0.051,2.564-1.08,2.829-2.414	c0.168,1.642,0.339,3.316,0.339,3.33c0.059,1.656-1.235,3.046-2.891,3.105s-3.046-1.235-3.105-2.891	c-0.002-0.048-0.09-2.535-0.09-2.535l-0.015-0.63C17.394,25.971,18.558,26.834,19.912,26.786z" opacity=".17"/><linearGradient id="WWaQuZlvLTqY_eeDIG~AFM" x1="-1607.752" x2="-1601.315" y1="1230.111" y2="1230.111" gradientTransform="rotate(-90 -1395.07 -179)" gradientUnits="userSpaceOnUse"><stop offset=".249" stop-color="#fff7e6"/><stop offset="1" stop-color="#fff" stop-opacity="0"/></linearGradient><path fill="url(#WWaQuZlvLTqY_eeDIG~AFM)" d="M13.922,26.786c1.418-0.051,2.564-1.08,2.829-2.414	c0.168,1.642,0.339,3.316,0.339,3.33c0.059,1.656-1.235,3.046-2.891,3.105s-3.046-1.235-3.105-2.891	c-0.002-0.048-0.09-2.535-0.09-2.535l-0.015-0.63C11.404,25.971,12.567,26.834,13.922,26.786z" opacity=".17"/><linearGradient id="WWaQuZlvLTqY_eeDIG~AFN" x1="-1608.699" x2="-1602.262" y1="1224.189" y2="1224.189" gradientTransform="rotate(-90 -1395.07 -179)" gradientUnits="userSpaceOnUse"><stop offset=".249" stop-color="#fff7e6"/><stop offset="1" stop-color="#fff" stop-opacity="0"/></linearGradient><path fill="url(#WWaQuZlvLTqY_eeDIG~AFN)" d="M8.001,26.86c1.418-0.051,2.564-1.08,2.829-2.414	c0.168,1.642,0.339,3.316,0.339,3.33c0.059,1.656-1.235,3.046-2.891,3.105s-3.046-1.235-3.105-2.891	c-0.002-0.048-0.09-2.535-0.09-2.535l-0.015-0.63C5.484,26.045,6.647,26.909,8.001,26.86z" opacity=".17"/></svg>