<svg xmlns="http://www.w3.org/2000/svg" viewBox="0 0 48 48"><radialGradient id="vcrLxF1_ExoRCWn3VbFcna" cx="24.584" cy="32.723" r="25.177" gradientTransform="matrix(1 0 0 -1 0 50)" gradientUnits="userSpaceOnUse"><stop offset="0" stop-color="#ffe16e"/><stop offset=".629" stop-color="#ffd226"/><stop offset=".75" stop-color="#fdcd23"/><stop offset=".9" stop-color="#f6bd1b"/><stop offset="1" stop-color="#f0af13"/></radialGradient><path fill="url(#vcrLxF1_ExoRCWn3VbFcna)" d="M45.7,21.1h-3.1c-1.8,0-3.6-0.8-4.8-2.1c-0.6-0.6-1.2-1.2-2-1.7c-0.1-0.1-0.3-0.2-0.4-0.3l-2.7-1.9l0,0	l-3.4-2.4l-0.3-0.3c-0.9-1-1.6-2.2-2-3.6l-0.8-2.9c-0.2-0.6-0.7-1-1.3-1c-3.7,0.3-4.5,6.9-1.5,13.5h0c0.2,0.4,0,0.6-0.8,0.7	c0,0,0,0,0,0c-0.8,0-17.8,0.5-18,0.5c-0.9,0-1.8,0.2-2.4,0.5c-0.8,0.4-1.2,1-1.2,1.7c0,0.7,0.4,1.3,1.1,1.7c0.7,0.4,1.5,0.6,2.4,0.6	l14.1,0.7c0,0,0,0,0,0c-1.4,0.3-2.4,1.5-2.4,2.9c0,1.7,1.3,3,3,3c-1.7,0-3,1.3-3,3c0,1.5,1,2.7,2.4,2.9c-1.4,0.2-2.5,1.5-2.5,2.9	c0,1.7,1.4,3.3,3.1,3.3c0,0,14,0.3,16.7-0.7c0.9-0.4,1.8-1,2.5-1.8c1.3-1.5,3.1-2.4,5.1-2.4h2.3c0.7,0,1.3-3.8,1.3-8.5	C47,24.9,46.4,21.1,45.7,21.1z"/><g opacity=".62"><linearGradient id="vcrLxF1_ExoRCWn3VbFcnb" x1="-392.421" x2="-393.911" y1="-333.39" y2="-337.59" gradientTransform="rotate(99.962 -339.93 21.653)" gradientUnits="userSpaceOnUse"><stop offset="0" stop-color="#fcc822" stop-opacity=".6"/><stop offset=".999" stop-color="#ffd32b"/><stop offset="1" stop-color="#ffd32b"/></linearGradient><path fill="url(#vcrLxF1_ExoRCWn3VbFcnb)" d="M19,31l3,1.3c0.8,0,1.4-0.7,1.4-1.4c0-0.8-0.7-1.4-1.4-1.4c-0.1,0-0.2,0-0.3,0L19,30.7c-0.1,0-0.1,0.1-0.1,0.2 C18.9,30.9,19,31,19,31z" opacity=".091"/><linearGradient id="vcrLxF1_ExoRCWn3VbFcnc" x1="-392.421" x2="-393.896" y1="-333.387" y2="-337.557" gradientTransform="rotate(99.962 -339.93 21.653)" gradientUnits="userSpaceOnUse"><stop offset="0" stop-color="#fbc622" stop-opacity=".64"/><stop offset=".999" stop-color="#ffd32b"/><stop offset="1" stop-color="#ffd32b"/></linearGradient><path fill="url(#vcrLxF1_ExoRCWn3VbFcnc)" d="M19,31l3.1,1.2c0.7,0,1.3-0.6,1.3-1.3c0-0.7-0.6-1.3-1.3-1.3c-0.1,0-0.2,0-0.3,0L19,30.7 c-0.1,0-0.1,0.1-0.1,0.2C18.9,30.9,19,31,19,31z" opacity=".182"/><linearGradient id="vcrLxF1_ExoRCWn3VbFcnd" x1="-392.42" x2="-393.88" y1="-333.383" y2="-337.523" gradientTransform="rotate(99.962 -339.93 21.653)" gradientUnits="userSpaceOnUse"><stop offset="0" stop-color="#fbc322" stop-opacity=".68"/><stop offset=".999" stop-color="#ffd32b"/><stop offset="1" stop-color="#ffd32b"/></linearGradient><path fill="url(#vcrLxF1_ExoRCWn3VbFcnd)" d="M19,31l3.1,1.1c0.7,0,1.2-0.6,1.2-1.2c0-0.7-0.6-1.2-1.2-1.2c-0.1,0-0.2,0-0.3,0l-2.9,1 c-0.1,0-0.1,0.1-0.1,0.2C18.9,30.9,19,31,19,31z" opacity=".273"/><linearGradient id="vcrLxF1_ExoRCWn3VbFcne" x1="-392.422" x2="-393.867" y1="-333.379" y2="-337.49" gradientTransform="rotate(99.962 -339.93 21.653)" gradientUnits="userSpaceOnUse"><stop offset="0" stop-color="#fac122" stop-opacity=".72"/><stop offset=".999" stop-color="#ffd32b"/><stop offset="1" stop-color="#ffd32b"/></linearGradient><path fill="url(#vcrLxF1_ExoRCWn3VbFcne)" d="M19,30.9l3.2,1c0.6,0,1.1-0.5,1.1-1.1c0-0.6-0.5-1.1-1.1-1.1c-0.1,0-0.2,0-0.2,0l-3,1c-0.1,0-0.1,0.1-0.1,0.1 C18.9,30.9,18.9,30.9,19,30.9z" opacity=".364"/><linearGradient id="vcrLxF1_ExoRCWn3VbFcnf" x1="-392.421" x2="-393.852" y1="-333.375" y2="-337.457" gradientTransform="rotate(99.962 -339.93 21.653)" gradientUnits="userSpaceOnUse"><stop offset="0" stop-color="#fabe22" stop-opacity=".76"/><stop offset=".999" stop-color="#ffd32b"/><stop offset="1" stop-color="#ffd32b"/></linearGradient><path fill="url(#vcrLxF1_ExoRCWn3VbFcnf)" d="M19,30.9l3.3,0.9c0.5,0,1-0.5,1-1c0-0.5-0.5-1-1-1c-0.1,0-0.1,0-0.2,0L19,30.7c-0.1,0-0.1,0.1-0.1,0.1 C18.9,30.9,18.9,30.9,19,30.9z" opacity=".455"/><linearGradient id="vcrLxF1_ExoRCWn3VbFcng" x1="-392.421" x2="-393.836" y1="-333.372" y2="-337.42" gradientTransform="rotate(99.962 -339.93 21.653)" gradientUnits="userSpaceOnUse"><stop offset="0" stop-color="#f9bc21" stop-opacity=".8"/><stop offset=".999" stop-color="#ffd32b"/><stop offset="1" stop-color="#ffd32b"/></linearGradient><path fill="url(#vcrLxF1_ExoRCWn3VbFcng)" d="M19,30.9l3.4,0.8c0.5,0,0.9-0.4,0.9-0.9c0-0.5-0.4-0.9-0.9-0.9c-0.1,0-0.1,0-0.2,0L19,30.7 C18.9,30.8,18.9,30.8,19,30.9C18.9,30.9,18.9,30.9,19,30.9z" opacity=".545"/><linearGradient id="vcrLxF1_ExoRCWn3VbFcnh" x1="-392.421" x2="-393.822" y1="-333.368" y2="-337.389" gradientTransform="rotate(99.962 -339.93 21.653)" gradientUnits="userSpaceOnUse"><stop offset="0" stop-color="#f9b921" stop-opacity=".84"/><stop offset=".999" stop-color="#ffd32b"/><stop offset="1" stop-color="#ffd32b"/></linearGradient><path fill="url(#vcrLxF1_ExoRCWn3VbFcnh)" d="M19,30.9l3.5,0.7c0.4,0,0.8-0.4,0.8-0.8S22.8,30,22.4,30c0,0-0.1,0-0.1,0L19,30.8C18.9,30.8,18.9,30.8,19,30.9 C18.9,30.9,18.9,30.9,19,30.9z" opacity=".636"/><linearGradient id="vcrLxF1_ExoRCWn3VbFcni" x1="-392.423" x2="-393.809" y1="-333.364" y2="-337.355" gradientTransform="rotate(99.962 -339.93 21.653)" gradientUnits="userSpaceOnUse"><stop offset="0" stop-color="#f8b721" stop-opacity=".88"/><stop offset=".999" stop-color="#ffd32b"/><stop offset="1" stop-color="#ffd32b"/></linearGradient><path fill="url(#vcrLxF1_ExoRCWn3VbFcni)" d="M19,30.9l3.5,0.6c0.4,0,0.7-0.3,0.6-0.7c0-0.4-0.3-0.7-0.7-0.6c0,0-0.1,0-0.1,0l-3.4,0.6 C18.9,30.8,18.9,30.8,19,30.9C18.9,30.9,18.9,30.9,19,30.9z" opacity=".727"/><linearGradient id="vcrLxF1_ExoRCWn3VbFcnj" x1="-392.424" x2="-393.795" y1="-333.361" y2="-337.322" gradientTransform="rotate(99.962 -339.93 21.653)" gradientUnits="userSpaceOnUse"><stop offset="0" stop-color="#f8b421" stop-opacity=".92"/><stop offset=".999" stop-color="#ffd32b"/><stop offset="1" stop-color="#ffd32b"/></linearGradient><path fill="url(#vcrLxF1_ExoRCWn3VbFcnj)" d="M19,30.9l3.6,0.5c0.3,0,0.6-0.3,0.5-0.6s-0.3-0.6-0.6-0.5c0,0-0.1,0-0.1,0l-3.5,0.6 C18.9,30.8,18.9,30.8,19,30.9C18.9,30.9,18.9,30.9,19,30.9z" opacity=".818"/><linearGradient id="vcrLxF1_ExoRCWn3VbFcnk" x1="-392.461" x2="-393.819" y1="-333.344" y2="-337.275" gradientTransform="rotate(99.962 -339.93 21.653)" gradientUnits="userSpaceOnUse"><stop offset="0" stop-color="#f7b221" stop-opacity=".96"/><stop offset=".999" stop-color="#ffd32b"/><stop offset="1" stop-color="#ffd32b"/></linearGradient><path fill="url(#vcrLxF1_ExoRCWn3VbFcnk)" d="M18.9,30.9l3.7,0.4c0.3,0,0.5-0.3,0.4-0.5c0-0.3-0.3-0.5-0.5-0.4c0,0,0,0-0.1,0L18.9,30.9 C18.9,30.8,18.9,30.8,18.9,30.9C18.9,30.9,18.9,30.9,18.9,30.9z" opacity=".909"/><linearGradient id="vcrLxF1_ExoRCWn3VbFcnl" x1="-392.505" x2="-393.847" y1="-333.326" y2="-337.227" gradientTransform="rotate(99.962 -339.93 21.653)" gradientUnits="userSpaceOnUse"><stop offset="0" stop-color="#f7af21"/><stop offset="1" stop-color="#ffd32b"/></linearGradient><path fill="url(#vcrLxF1_ExoRCWn3VbFcnl)" d="M18.9,30.9l3.8,0.3c0.2,0,0.4-0.2,0.3-0.4c0-0.2-0.2-0.4-0.4-0.3c0,0,0,0,0,0L18.9,30.9 C18.9,30.8,18.9,30.8,18.9,30.9C18.9,30.9,18.9,30.9,18.9,30.9z"/></g><g opacity=".58"><linearGradient id="vcrLxF1_ExoRCWn3VbFcnm" x1="-398.198" x2="-399.689" y1="-332.063" y2="-336.262" gradientTransform="rotate(99.962 -339.93 21.653)" gradientUnits="userSpaceOnUse"><stop offset="0" stop-color="#fcc822" stop-opacity=".6"/><stop offset=".999" stop-color="#ffd32b"/><stop offset="1" stop-color="#ffd32b"/></linearGradient><path fill="url(#vcrLxF1_ExoRCWn3VbFcnm)" d="M18.7,25.1l3,1.3c0.8,0,1.4-0.7,1.4-1.4c0-0.8-0.7-1.4-1.4-1.4c-0.1,0-0.2,0-0.3,0l-2.6,1.2 c-0.1,0-0.1,0.1-0.1,0.2C18.6,25,18.7,25.1,18.7,25.1z" opacity=".091"/><linearGradient id="vcrLxF1_ExoRCWn3VbFcnn" x1="-398.197" x2="-399.673" y1="-332.059" y2="-336.229" gradientTransform="rotate(99.962 -339.93 21.653)" gradientUnits="userSpaceOnUse"><stop offset="0" stop-color="#fbc622" stop-opacity=".64"/><stop offset=".999" stop-color="#ffd32b"/><stop offset="1" stop-color="#ffd32b"/></linearGradient><path fill="url(#vcrLxF1_ExoRCWn3VbFcnn)" d="M18.7,25l3.1,1.2c0.7,0,1.3-0.6,1.3-1.3c0-0.7-0.6-1.3-1.3-1.3c-0.1,0-0.2,0-0.3,0l-2.8,1.1 c-0.1,0-0.1,0.1-0.1,0.2C18.6,25,18.6,25,18.7,25z" opacity=".182"/><linearGradient id="vcrLxF1_ExoRCWn3VbFcno" x1="-398.197" x2="-399.658" y1="-332.055" y2="-336.195" gradientTransform="rotate(99.962 -339.93 21.653)" gradientUnits="userSpaceOnUse"><stop offset="0" stop-color="#fbc322" stop-opacity=".68"/><stop offset=".999" stop-color="#ffd32b"/><stop offset="1" stop-color="#ffd32b"/></linearGradient><path fill="url(#vcrLxF1_ExoRCWn3VbFcno)" d="M18.7,25l3.1,1.1c0.7,0,1.2-0.6,1.2-1.2c0-0.7-0.6-1.2-1.2-1.2c-0.1,0-0.2,0-0.3,0l-2.9,1 c-0.1,0-0.1,0.1-0.1,0.2C18.6,25,18.6,25,18.7,25z" opacity=".273"/><linearGradient id="vcrLxF1_ExoRCWn3VbFcnp" x1="-398.199" x2="-399.644" y1="-332.051" y2="-336.162" gradientTransform="rotate(99.962 -339.93 21.653)" gradientUnits="userSpaceOnUse"><stop offset="0" stop-color="#fac122" stop-opacity=".72"/><stop offset=".999" stop-color="#ffd32b"/><stop offset="1" stop-color="#ffd32b"/></linearGradient><path fill="url(#vcrLxF1_ExoRCWn3VbFcnp)" d="M18.7,25l3.2,1c0.6,0,1.1-0.5,1.1-1.1c0-0.6-0.5-1.1-1.1-1.1c-0.1,0-0.2,0-0.2,0l-3,1c-0.1,0-0.1,0.1-0.1,0.1 C18.6,25,18.6,25,18.7,25z" opacity=".364"/><linearGradient id="vcrLxF1_ExoRCWn3VbFcnq" x1="-398.199" x2="-399.63" y1="-332.047" y2="-336.129" gradientTransform="rotate(99.962 -339.93 21.653)" gradientUnits="userSpaceOnUse"><stop offset="0" stop-color="#fabe22" stop-opacity=".76"/><stop offset=".999" stop-color="#ffd32b"/><stop offset="1" stop-color="#ffd32b"/></linearGradient><path fill="url(#vcrLxF1_ExoRCWn3VbFcnq)" d="M18.7,25l3.3,0.9c0.5,0,1-0.5,1-1c0-0.5-0.5-1-1-1c-0.1,0-0.1,0-0.2,0l-3.1,0.9c-0.1,0-0.1,0.1-0.1,0.1 C18.6,25,18.6,25,18.7,25z" opacity=".455"/><linearGradient id="vcrLxF1_ExoRCWn3VbFcnr" x1="-398.199" x2="-399.614" y1="-332.044" y2="-336.092" gradientTransform="rotate(99.962 -339.93 21.653)" gradientUnits="userSpaceOnUse"><stop offset="0" stop-color="#f9bc21" stop-opacity=".8"/><stop offset=".999" stop-color="#ffd32b"/><stop offset="1" stop-color="#ffd32b"/></linearGradient><path fill="url(#vcrLxF1_ExoRCWn3VbFcnr)" d="M18.7,25l3.4,0.8c0.5,0,0.9-0.4,0.9-0.9c0-0.5-0.4-0.9-0.9-0.9c-0.1,0-0.1,0-0.2,0l-3.2,0.8 C18.6,24.8,18.6,24.9,18.7,25C18.6,25,18.6,25,18.7,25z" opacity=".545"/><linearGradient id="vcrLxF1_ExoRCWn3VbFcns" x1="-398.199" x2="-399.601" y1="-332.04" y2="-336.061" gradientTransform="rotate(99.962 -339.93 21.653)" gradientUnits="userSpaceOnUse"><stop offset="0" stop-color="#f9b921" stop-opacity=".84"/><stop offset=".999" stop-color="#ffd32b"/><stop offset="1" stop-color="#ffd32b"/></linearGradient><path fill="url(#vcrLxF1_ExoRCWn3VbFcns)" d="M18.7,25l3.5,0.7c0.4,0,0.8-0.4,0.8-0.8s-0.4-0.8-0.8-0.8c0,0-0.1,0-0.1,0l-3.3,0.7 C18.6,24.8,18.6,24.9,18.7,25C18.6,25,18.6,25,18.7,25z" opacity=".636"/><linearGradient id="vcrLxF1_ExoRCWn3VbFcnt" x1="-398.199" x2="-399.586" y1="-332.036" y2="-336.027" gradientTransform="rotate(99.962 -339.93 21.653)" gradientUnits="userSpaceOnUse"><stop offset="0" stop-color="#f8b721" stop-opacity=".88"/><stop offset=".999" stop-color="#ffd32b"/><stop offset="1" stop-color="#ffd32b"/></linearGradient><path fill="url(#vcrLxF1_ExoRCWn3VbFcnt)" d="M18.7,25l3.5,0.6c0.4,0,0.7-0.3,0.6-0.7c0-0.4-0.3-0.7-0.7-0.6c0,0-0.1,0-0.1,0l-3.4,0.6 C18.6,24.9,18.6,24.9,18.7,25C18.6,25,18.6,25,18.7,25z" opacity=".727"/><linearGradient id="vcrLxF1_ExoRCWn3VbFcnu" x1="-398.201" x2="-399.573" y1="-332.033" y2="-335.994" gradientTransform="rotate(99.962 -339.93 21.653)" gradientUnits="userSpaceOnUse"><stop offset="0" stop-color="#f8b421" stop-opacity=".92"/><stop offset=".999" stop-color="#ffd32b"/><stop offset="1" stop-color="#ffd32b"/></linearGradient><path fill="url(#vcrLxF1_ExoRCWn3VbFcnu)" d="M18.6,25l3.6,0.5c0.3,0,0.6-0.3,0.5-0.6s-0.3-0.6-0.6-0.5c0,0-0.1,0-0.1,0l-3.5,0.6 C18.6,24.9,18.6,24.9,18.6,25C18.6,25,18.6,25,18.6,25z" opacity=".818"/><linearGradient id="vcrLxF1_ExoRCWn3VbFcnv" x1="-398.239" x2="-399.596" y1="-332.017" y2="-335.948" gradientTransform="rotate(99.962 -339.93 21.653)" gradientUnits="userSpaceOnUse"><stop offset="0" stop-color="#f7b221" stop-opacity=".96"/><stop offset=".999" stop-color="#ffd32b"/><stop offset="1" stop-color="#ffd32b"/></linearGradient><path fill="url(#vcrLxF1_ExoRCWn3VbFcnv)" d="M18.6,25l3.7,0.4c0.3,0,0.5-0.3,0.4-0.5c0-0.3-0.3-0.5-0.5-0.4c0,0,0,0-0.1,0L18.6,25 C18.6,24.9,18.6,24.9,18.6,25C18.6,24.9,18.6,25,18.6,25z" opacity=".909"/><linearGradient id="vcrLxF1_ExoRCWn3VbFcnw" x1="-398.283" x2="-399.626" y1="-331.998" y2="-335.899" gradientTransform="rotate(99.962 -339.93 21.653)" gradientUnits="userSpaceOnUse"><stop offset="0" stop-color="#f7af21"/><stop offset="1" stop-color="#ffd32b"/></linearGradient><path fill="url(#vcrLxF1_ExoRCWn3VbFcnw)" d="M18.6,25l3.8,0.3c0.2,0,0.4-0.2,0.3-0.4c0-0.2-0.2-0.4-0.4-0.3c0,0,0,0,0,0L18.6,25 C18.6,24.9,18.6,24.9,18.6,25C18.6,24.9,18.6,25,18.6,25z"/></g><g opacity=".82"><linearGradient id="vcrLxF1_ExoRCWn3VbFcnx" x1="-386.531" x2="-388.021" y1="-334.084" y2="-338.284" gradientTransform="rotate(99.962 -339.93 21.653)" gradientUnits="userSpaceOnUse"><stop offset="0" stop-color="#fac722" stop-opacity=".6"/><stop offset=".999" stop-color="#fdcd23"/><stop offset="1" stop-color="#fdcd23"/></linearGradient><path fill="url(#vcrLxF1_ExoRCWn3VbFcnx)" d="M18.7,36.9l3,1.3c0.8,0,1.4-0.7,1.4-1.4c0-0.8-0.7-1.4-1.4-1.4c-0.1,0-0.2,0-0.3,0l-2.6,1.2 c-0.1,0-0.1,0.1-0.1,0.2C18.6,36.9,18.6,36.9,18.7,36.9z" opacity=".091"/><linearGradient id="vcrLxF1_ExoRCWn3VbFcny" x1="-386.532" x2="-388.007" y1="-334.08" y2="-338.251" gradientTransform="rotate(99.962 -339.93 21.653)" gradientUnits="userSpaceOnUse"><stop offset="0" stop-color="#f8c322" stop-opacity=".64"/><stop offset=".999" stop-color="#fdcd23"/><stop offset="1" stop-color="#fdcd23"/></linearGradient><path fill="url(#vcrLxF1_ExoRCWn3VbFcny)" d="M18.7,36.9l3.1,1.2c0.7,0,1.3-0.6,1.3-1.3c0-0.7-0.6-1.3-1.3-1.3c-0.1,0-0.2,0-0.3,0l-2.8,1.1 c-0.1,0-0.1,0.1-0.1,0.2C18.6,36.8,18.6,36.9,18.7,36.9z" opacity=".182"/><linearGradient id="vcrLxF1_ExoRCWn3VbFcnz" x1="-386.531" x2="-387.992" y1="-334.077" y2="-338.217" gradientTransform="rotate(99.962 -339.93 21.653)" gradientUnits="userSpaceOnUse"><stop offset="0" stop-color="#f7bf22" stop-opacity=".68"/><stop offset=".999" stop-color="#fdcd23"/><stop offset="1" stop-color="#fdcd23"/></linearGradient><path fill="url(#vcrLxF1_ExoRCWn3VbFcnz)" d="M18.7,36.9l3.1,1.1c0.7,0,1.2-0.6,1.2-1.2c0-0.7-0.6-1.2-1.2-1.2c-0.1,0-0.2,0-0.3,0l-2.9,1 c-0.1,0-0.1,0.1-0.1,0.2C18.6,36.8,18.6,36.9,18.7,36.9z" opacity=".273"/><linearGradient id="vcrLxF1_ExoRCWn3VbFcnA" x1="-386.53" x2="-387.976" y1="-334.073" y2="-338.184" gradientTransform="rotate(99.962 -339.93 21.653)" gradientUnits="userSpaceOnUse"><stop offset="0" stop-color="#f5bb22" stop-opacity=".72"/><stop offset=".999" stop-color="#fdcd23"/><stop offset="1" stop-color="#fdcd23"/></linearGradient><path fill="url(#vcrLxF1_ExoRCWn3VbFcnA)" d="M18.7,36.9l3.2,1c0.6,0,1.1-0.5,1.1-1.1c0-0.6-0.5-1.1-1.1-1.1c-0.1,0-0.2,0-0.2,0l-3,1 c-0.1,0-0.1,0.1-0.1,0.1C18.6,36.8,18.6,36.9,18.7,36.9z" opacity=".364"/><linearGradient id="vcrLxF1_ExoRCWn3VbFcnB" x1="-386.532" x2="-387.964" y1="-334.069" y2="-338.151" gradientTransform="rotate(99.962 -339.93 21.653)" gradientUnits="userSpaceOnUse"><stop offset="0" stop-color="#f3b722" stop-opacity=".76"/><stop offset=".999" stop-color="#fdcd23"/><stop offset="1" stop-color="#fdcd23"/></linearGradient><path fill="url(#vcrLxF1_ExoRCWn3VbFcnB)" d="M18.7,36.9l3.3,0.9c0.5,0,1-0.5,1-1c0-0.5-0.5-1-1-1c-0.1,0-0.1,0-0.2,0l-3.1,0.9c-0.1,0-0.1,0.1-0.1,0.1 C18.6,36.8,18.6,36.9,18.7,36.9z" opacity=".455"/><linearGradient id="vcrLxF1_ExoRCWn3VbFcnC" x1="-386.531" x2="-387.947" y1="-334.065" y2="-338.113" gradientTransform="rotate(99.962 -339.93 21.653)" gradientUnits="userSpaceOnUse"><stop offset="0" stop-color="#f1b421" stop-opacity=".8"/><stop offset=".999" stop-color="#fdcd23"/><stop offset="1" stop-color="#fdcd23"/></linearGradient><path fill="url(#vcrLxF1_ExoRCWn3VbFcnC)" d="M18.6,36.8l3.4,0.8c0.5,0,0.9-0.4,0.9-0.9c0-0.5-0.4-0.9-0.9-0.9c-0.1,0-0.1,0-0.2,0l-3.2,0.8 C18.6,36.7,18.5,36.7,18.6,36.8C18.6,36.8,18.6,36.8,18.6,36.8z" opacity=".545"/><linearGradient id="vcrLxF1_ExoRCWn3VbFcnD" x1="-386.532" x2="-387.933" y1="-334.062" y2="-338.083" gradientTransform="rotate(99.962 -339.93 21.653)" gradientUnits="userSpaceOnUse"><stop offset="0" stop-color="#efb021" stop-opacity=".84"/><stop offset=".999" stop-color="#fdcd23"/><stop offset="1" stop-color="#fdcd23"/></linearGradient><path fill="url(#vcrLxF1_ExoRCWn3VbFcnD)" d="M18.6,36.8l3.5,0.7c0.4,0,0.8-0.4,0.8-0.8s-0.4-0.8-0.8-0.8c0,0-0.1,0-0.1,0l-3.3,0.7 C18.6,36.7,18.5,36.7,18.6,36.8C18.6,36.8,18.6,36.8,18.6,36.8z" opacity=".636"/><linearGradient id="vcrLxF1_ExoRCWn3VbFcnE" x1="-386.533" x2="-387.919" y1="-334.058" y2="-338.049" gradientTransform="rotate(99.962 -339.93 21.653)" gradientUnits="userSpaceOnUse"><stop offset="0" stop-color="#edac21" stop-opacity=".88"/><stop offset=".999" stop-color="#fdcd23"/><stop offset="1" stop-color="#fdcd23"/></linearGradient><path fill="url(#vcrLxF1_ExoRCWn3VbFcnE)" d="M18.6,36.8l3.5,0.6c0.4,0,0.7-0.3,0.6-0.7c0-0.4-0.3-0.7-0.7-0.6c0,0-0.1,0-0.1,0l-3.4,0.7 C18.6,36.7,18.5,36.7,18.6,36.8C18.6,36.8,18.6,36.8,18.6,36.8z" opacity=".727"/><linearGradient id="vcrLxF1_ExoRCWn3VbFcnF" x1="-386.535" x2="-387.907" y1="-334.055" y2="-338.015" gradientTransform="rotate(99.962 -339.93 21.653)" gradientUnits="userSpaceOnUse"><stop offset="0" stop-color="#eca821" stop-opacity=".92"/><stop offset=".999" stop-color="#fdcd23"/><stop offset="1" stop-color="#fdcd23"/></linearGradient><path fill="url(#vcrLxF1_ExoRCWn3VbFcnF)" d="M18.6,36.8l3.6,0.5c0.3,0,0.6-0.3,0.5-0.6s-0.3-0.6-0.6-0.5c0,0-0.1,0-0.1,0l-3.5,0.6 C18.6,36.7,18.5,36.7,18.6,36.8C18.6,36.8,18.6,36.8,18.6,36.8z" opacity=".818"/><linearGradient id="vcrLxF1_ExoRCWn3VbFcnG" x1="-386.572" x2="-387.93" y1="-334.038" y2="-337.969" gradientTransform="rotate(99.962 -339.93 21.653)" gradientUnits="userSpaceOnUse"><stop offset="0" stop-color="#eaa421" stop-opacity=".96"/><stop offset=".999" stop-color="#fdcd23"/><stop offset="1" stop-color="#fdcd23"/></linearGradient><path fill="url(#vcrLxF1_ExoRCWn3VbFcnG)" d="M18.6,36.8l3.7,0.4c0.3,0,0.5-0.3,0.4-0.5c0-0.3-0.3-0.5-0.5-0.4c0,0,0,0-0.1,0L18.6,36.8 C18.6,36.7,18.5,36.7,18.6,36.8C18.6,36.8,18.6,36.8,18.6,36.8z" opacity=".909"/><linearGradient id="vcrLxF1_ExoRCWn3VbFcnH" x1="-386.616" x2="-387.958" y1="-334.02" y2="-337.921" gradientTransform="rotate(99.962 -339.93 21.653)" gradientUnits="userSpaceOnUse"><stop offset="0" stop-color="#e8a021"/><stop offset="1" stop-color="#fdcd23"/></linearGradient><path fill="url(#vcrLxF1_ExoRCWn3VbFcnH)" d="M18.6,36.8l3.8,0.3c0.2,0,0.4-0.2,0.3-0.4c0-0.2-0.2-0.4-0.4-0.3c0,0,0,0,0,0L18.6,36.8 C18.6,36.7,18.5,36.7,18.6,36.8C18.6,36.8,18.6,36.8,18.6,36.8z"/></g><radialGradient id="vcrLxF1_ExoRCWn3VbFcnI" cx="21.216" cy="108.588" r="5.058" gradientTransform="matrix(1 0 0 -1.1761 0 155.22)" gradientUnits="userSpaceOnUse"><stop offset=".224" stop-color="#ffd73f" stop-opacity="0"/><stop offset=".999" stop-color="#f0af13"/></radialGradient><path fill="url(#vcrLxF1_ExoRCWn3VbFcnI)" d="M20.2,28c0.1-1.4,1.1-2.6,2.4-2.8c-1.6-0.2-3.3-0.3-3.3-0.3c-1.7-0.1-3,1.2-3.1,2.9s1.2,3,2.9,3.1	c0,0,2.5,0.1,2.5,0.1l0.6,0C21,30.5,20.2,29.4,20.2,28z" opacity=".76"/><radialGradient id="vcrLxF1_ExoRCWn3VbFcnJ" cx="21.216" cy="102.597" r="5.058" gradientTransform="matrix(1 0 0 -1.1761 0 154.166)" gradientUnits="userSpaceOnUse"><stop offset=".224" stop-color="#ffd73f" stop-opacity="0"/><stop offset=".999" stop-color="#f0af13"/></radialGradient><path fill="url(#vcrLxF1_ExoRCWn3VbFcnJ)" d="M20.2,34c0.1-1.4,1.1-2.6,2.4-2.8c-1.6-0.2-3.3-0.3-3.3-0.3c-1.7-0.1-3,1.2-3.1,2.9c-0.1,1.7,1.2,3,2.9,3.1	c0,0,2.5,0.1,2.5,0.1l0.6,0C21,36.5,20.2,35.4,20.2,34z" opacity=".76"/><radialGradient id="vcrLxF1_ExoRCWn3VbFcnK" cx="21.141" cy="96.677" r="5.058" gradientTransform="matrix(1 0 0 -1.1761 0 153.123)" gradientUnits="userSpaceOnUse"><stop offset=".224" stop-color="#ffd73f" stop-opacity="0"/><stop offset=".999" stop-color="#f0af13"/></radialGradient><path fill="url(#vcrLxF1_ExoRCWn3VbFcnK)" d="M20.1,39.9c0.1-1.4,1.1-2.6,2.4-2.8c-1.6-0.2-3.3-0.3-3.3-0.3c-1.7-0.1-3,1.2-3.1,2.9s1.2,3,2.9,3.1	c0,0,2.5,0.1,2.5,0.1l0.6,0C21,42.5,20.1,41.3,20.1,39.9z" opacity=".79"/><linearGradient id="vcrLxF1_ExoRCWn3VbFcnL" x1="13.742" x2="20.179" y1="22.03" y2="22.03" gradientTransform="matrix(1 0 0 -1 0 50)" gradientUnits="userSpaceOnUse"><stop offset=".249" stop-color="#fff7e6"/><stop offset="1" stop-color="#fff" stop-opacity="0"/></linearGradient><path fill="url(#vcrLxF1_ExoRCWn3VbFcnL)" d="M21.1,28.1c0.1-1.4,1.1-2.6,2.4-2.8c-1.6-0.2-3.3-0.3-3.3-0.3c-1.7-0.1-3,1.2-3.1,2.9s1.2,3,2.9,3.1	c0,0,2.5,0.1,2.5,0.1l0.6,0C21.9,30.6,21.1,29.4,21.1,28.1z" opacity=".17"/><linearGradient id="vcrLxF1_ExoRCWn3VbFcnM" x1="14.236" x2="20.673" y1="16.041" y2="16.041" gradientTransform="matrix(1 0 0 -1 0 50)" gradientUnits="userSpaceOnUse"><stop offset=".249" stop-color="#fff7e6"/><stop offset="1" stop-color="#fff" stop-opacity="0"/></linearGradient><path fill="url(#vcrLxF1_ExoRCWn3VbFcnM)" d="M21.1,34.1c0.1-1.4,1.1-2.6,2.4-2.8c-1.6-0.2-3.3-0.3-3.3-0.3c-1.7-0.1-3,1.2-3.1,2.9c-0.1,1.7,1.2,3,2.9,3.1	c0,0,2.5,0.1,2.5,0.1l0.6,0C21.9,36.6,21.1,35.4,21.1,34.1z" opacity=".17"/><linearGradient id="vcrLxF1_ExoRCWn3VbFcnN" x1="13.29" x2="19.727" y1="10.12" y2="10.12" gradientTransform="matrix(1 0 0 -1 0 50)" gradientUnits="userSpaceOnUse"><stop offset=".249" stop-color="#fff7e6"/><stop offset="1" stop-color="#fff" stop-opacity="0"/></linearGradient><path fill="url(#vcrLxF1_ExoRCWn3VbFcnN)" d="M21.1,40c0.1-1.4,1.1-2.6,2.4-2.8c-1.6-0.2-3.3-0.3-3.3-0.3c-1.7-0.1-3,1.2-3.1,2.9s1.2,3,2.9,3.1	c0,0,2.5,0.1,2.5,0.1l0.6,0C21.9,42.5,21,41.4,21.1,40z" opacity=".17"/><g opacity=".3"><linearGradient id="vcrLxF1_ExoRCWn3VbFcnO" x1="-1743.096" x2="-1705.535" y1="15.942" y2="15.942" gradientTransform="matrix(-.8182 0 0 -1 -1379.198 50)" gradientUnits="userSpaceOnUse"><stop offset="0" stop-color="#efae13"/><stop offset=".519" stop-color="#fccc24" stop-opacity=".536"/><stop offset=".999" stop-color="#fccb23"/></linearGradient><path fill="url(#vcrLxF1_ExoRCWn3VbFcnO)" d="M19.2,37.5c0,0,14,0.3,16.7-0.7c0.9-0.4,1.8-1,2.5-1.8c1.3-1.5,3.1-2.4,5.1-2.4h2.3c0.6,0,1-2.4,1.2-5.8 c0,0.6,0.1,1.2,0.1,1.9c-0.1,4.3-0.6,7.6-1.3,7.6h-2.3c-2,0-3.8,0.9-5.1,2.4c-0.7,0.8-1.5,1.5-2.5,1.8c-2.7,1.1-16.7,0.7-16.7,0.7 c-1.4,0-2.6-1.1-2.9-2.4c0.3-0.8,1-1.5,1.8-1.8C18.4,37.3,18.8,37.5,19.2,37.5z" opacity=".091"/><linearGradient id="vcrLxF1_ExoRCWn3VbFcnP" x1="-2024.353" x2="-1976.035" y1="15.74" y2="15.74" gradientTransform="matrix(-.6364 0 0 -1 -1241.294 50)" gradientUnits="userSpaceOnUse"><stop offset="0" stop-color="#eeac13"/><stop offset=".519" stop-color="#f9c723" stop-opacity=".583"/><stop offset=".999" stop-color="#f9c621"/></linearGradient><path fill="url(#vcrLxF1_ExoRCWn3VbFcnP)" d="M19.2,38c0,0,14,0.3,16.7-0.7c0.9-0.4,1.8-1,2.5-1.8c1.3-1.5,3.1-2.4,5.1-2.4h2.3c0.6,0,1-2.5,1.2-6 c0,0.6,0,1.1,0.1,1.7c-0.1,4.3-0.6,7.7-1.3,7.7h-2.3c-2,0-3.8,0.9-5.1,2.4c-0.7,0.8-1.5,1.5-2.5,1.8c-2.7,1.1-16.7,0.7-16.7,0.7 c-1.4,0-2.6-1.2-3-2.5c0.3-0.8,0.9-1.4,1.6-1.6C18.2,37.7,18.7,38,19.2,38z" opacity=".182"/><linearGradient id="vcrLxF1_ExoRCWn3VbFcnQ" x1="-2530.952" x2="-2463.262" y1="15.539" y2="15.539" gradientTransform="matrix(-.4545 0 0 -1 -1103.313 50)" gradientUnits="userSpaceOnUse"><stop offset="0" stop-color="#edab14"/><stop offset=".519" stop-color="#f7c321" stop-opacity=".629"/><stop offset=".999" stop-color="#f7c220"/></linearGradient><path fill="url(#vcrLxF1_ExoRCWn3VbFcnQ)" d="M19.2,38.4c0,0,14,0.3,16.7-0.7c0.9-0.4,1.8-1,2.5-1.8c1.3-1.5,3.1-2.4,5.1-2.4h2.3c0.6,0,1.1-2.6,1.2-6.2 c0,0.5,0,1,0.1,1.6c-0.1,4.4-0.6,7.8-1.3,7.8h-2.3c-2,0-3.8,0.9-5.1,2.4c-0.7,0.8-1.5,1.5-2.5,1.8c-2.7,1.1-16.7,0.7-16.7,0.7 c-1.4,0-2.7-1.2-3-2.6c0.2-0.7,0.8-1.3,1.5-1.5C18,38,18.6,38.4,19.2,38.4z" opacity=".273"/><linearGradient id="vcrLxF1_ExoRCWn3VbFcnR" x1="-3712.554" x2="-3599.675" y1="15.338" y2="15.338" gradientTransform="matrix(-.2727 0 0 -1 -965.408 50)" gradientUnits="userSpaceOnUse"><stop offset="0" stop-color="#ecaa14"/><stop offset=".519" stop-color="#f5bf20" stop-opacity=".675"/><stop offset=".999" stop-color="#f5be1f"/></linearGradient><path fill="url(#vcrLxF1_ExoRCWn3VbFcnR)" d="M19.2,38.9c0,0,14,0.3,16.7-0.7c0.9-0.4,1.8-1,2.5-1.8c1.3-1.5,3.1-2.4,5.1-2.4h2.3c0.6,0,1.1-2.8,1.2-6.4 c0,0.5,0,1,0,1.5c0,4.4-0.6,7.9-1.3,7.9h-2.3c-2,0-3.8,0.9-5.1,2.4c-0.7,0.8-1.5,1.5-2.5,1.8c-2.7,1.1-16.7,0.7-16.7,0.7 c-1.4,0-2.7-1.3-3-2.7c0.2-0.6,0.7-1.2,1.3-1.4C17.8,38.3,18.5,38.9,19.2,38.9z" opacity=".364"/><linearGradient id="vcrLxF1_ExoRCWn3VbFcnS" x1="-9620.567" x2="-9281.755" y1="15.136" y2="15.136" gradientTransform="matrix(-.0909 0 0 -1 -827.504 50)" gradientUnits="userSpaceOnUse"><stop offset="0" stop-color="#eba814"/><stop offset=".519" stop-color="#f3ba1e" stop-opacity=".722"/><stop offset=".999" stop-color="#f3ba1d"/></linearGradient><path fill="url(#vcrLxF1_ExoRCWn3VbFcnS)" d="M19.2,39.3c0,0,14,0.3,16.7-0.7c0.9-0.4,1.8-1,2.5-1.8c1.3-1.5,3.1-2.4,5.1-2.4h2.3c0.6,0,1.1-2.9,1.2-6.7 c0,0.4,0,0.9,0,1.3c0,4.4-0.6,8-1.3,8h-2.3c-2,0-3.8,0.9-5.1,2.4c-0.7,0.8-1.5,1.5-2.5,1.8C33.2,42.3,19.2,42,19.2,42 c-1.5,0-2.8-1.3-3-2.8c0.2-0.6,0.6-1,1.1-1.3C17.6,38.7,18.3,39.3,19.2,39.3z" opacity=".455"/><linearGradient id="vcrLxF1_ExoRCWn3VbFcnT" x1="7764.494" x2="8103.482" y1="14.936" y2="14.936" gradientTransform="matrix(.0909 0 0 -1 -689.6 50)" gradientUnits="userSpaceOnUse"><stop offset="0" stop-color="#eaa714"/><stop offset=".519" stop-color="#f0b61d" stop-opacity=".768"/><stop offset=".999" stop-color="#f0b51c"/></linearGradient><path fill="url(#vcrLxF1_ExoRCWn3VbFcnT)" d="M19.2,39.8c0,0,14,0.3,16.7-0.7c0.9-0.4,1.8-1,2.5-1.8c1.3-1.5,3.1-2.4,5.1-2.4h2.3c0.6,0,1.1-3,1.2-6.9 c0,0.4,0,0.8,0,1.2c0,4.5-0.6,8.1-1.3,8.1h-2.3c-2,0-3.8,0.9-5.1,2.4c-0.7,0.8-1.5,1.5-2.5,1.8c-2.7,1.1-16.7,0.7-16.7,0.7 c-1.5,0-2.8-1.4-3-2.8c0.1-0.5,0.5-0.9,0.9-1.1C17.4,39,18.2,39.8,19.2,39.8z" opacity=".545"/><linearGradient id="vcrLxF1_ExoRCWn3VbFcnU" x1="2082.404" x2="2195.462" y1="14.734" y2="14.734" gradientTransform="matrix(.2727 0 0 -1 -551.694 50)" gradientUnits="userSpaceOnUse"><stop offset="0" stop-color="#e9a514"/><stop offset=".519" stop-color="#eeb11b" stop-opacity=".815"/><stop offset=".999" stop-color="#eeb11a"/></linearGradient><path fill="url(#vcrLxF1_ExoRCWn3VbFcnU)" d="M19.2,40.2c0,0,14,0.3,16.7-0.7c0.9-0.4,1.8-1,2.5-1.8c1.3-1.5,3.1-2.4,5.1-2.4h2.3c0.6,0,1.1-3.1,1.2-7.1 c0,0.3,0,0.7,0,1c0,4.5-0.6,8.1-1.3,8.1h-2.3c-2,0-3.8,0.9-5.1,2.4c-0.7,0.8-1.5,1.5-2.5,1.8c-2.7,1.1-16.7,0.7-16.7,0.7 c-1.5,0-2.9-1.4-3-2.9c0.1-0.4,0.4-0.8,0.8-1C17.2,39.3,18.1,40.2,19.2,40.2z" opacity=".636"/><linearGradient id="vcrLxF1_ExoRCWn3VbFcnV" x1="945.988" x2="1013.86" y1="14.532" y2="14.532" gradientTransform="matrix(.4545 0 0 -1 -413.79 50)" gradientUnits="userSpaceOnUse"><stop offset="0" stop-color="#e8a414"/><stop offset=".519" stop-color="#ecad1a" stop-opacity=".861"/><stop offset=".999" stop-color="#ecad19"/></linearGradient><path fill="url(#vcrLxF1_ExoRCWn3VbFcnV)" d="M19.2,40.7c0,0,14,0.3,16.7-0.7c0.9-0.4,1.8-1,2.5-1.8c1.3-1.5,3.1-2.4,5.1-2.4h2.3c0.6,0,1.2-3.2,1.2-7.3 c0,0.3,0,0.6,0,0.9c0,4.6-0.6,8.2-1.3,8.2h-2.3c-2,0-3.8,0.9-5.1,2.4c-0.7,0.8-1.5,1.5-2.5,1.8c-2.7,1.1-16.7,0.7-16.7,0.7 c-1.6,0-2.9-1.5-3-3c0.1-0.4,0.3-0.7,0.6-0.9C17,39.7,18,40.7,19.2,40.7z" opacity=".727"/><linearGradient id="vcrLxF1_ExoRCWn3VbFcnW" x1="458.759" x2="507.257" y1="14.331" y2="14.331" gradientTransform="matrix(.6364 0 0 -1 -275.809 50)" gradientUnits="userSpaceOnUse"><stop offset="0" stop-color="#e7a315"/><stop offset=".519" stop-color="#eaa918" stop-opacity=".907"/><stop offset=".999" stop-color="#eaa918"/></linearGradient><path fill="url(#vcrLxF1_ExoRCWn3VbFcnW)" d="M19.2,41.1c0,0,14,0.3,16.7-0.7c0.9-0.4,1.8-1,2.5-1.8c1.3-1.5,3.1-2.4,5.1-2.4h2.3c0.6,0,1.2-3.3,1.2-7.6 c0,0.3,0,0.5,0,0.8c0,4.6-0.6,8.3-1.3,8.3h-2.3c-2,0-3.8,0.9-5.1,2.4c-0.7,0.8-1.5,1.5-2.5,1.8c-2.7,1.1-16.7,0.7-16.7,0.7 c-1.6,0-3-1.5-3.1-3.1c0.1-0.3,0.2-0.6,0.4-0.8C16.8,40,17.9,41.1,19.2,41.1z" opacity=".818"/><linearGradient id="vcrLxF1_ExoRCWn3VbFcnX" x1="188.261" x2="226.003" y1="14.129" y2="14.129" gradientTransform="matrix(.8182 0 0 -1 -137.905 50)" gradientUnits="userSpaceOnUse"><stop offset="0" stop-color="#e6a115"/><stop offset=".519" stop-color="#e7a417" stop-opacity=".954"/><stop offset=".999" stop-color="#e7a416"/></linearGradient><path fill="url(#vcrLxF1_ExoRCWn3VbFcnX)" d="M19.2,41.6c0,0,14,0.3,16.7-0.7c0.9-0.4,1.8-1,2.5-1.8c1.3-1.5,3.1-2.4,5.1-2.4h2.3c0.7,0,1.2-3.4,1.3-7.8 c0,0.2,0,0.4,0,0.6c0,4.7-0.6,8.4-1.3,8.4h-2.3c-2,0-3.8,0.9-5.1,2.4c-0.7,0.8-1.5,1.5-2.5,1.8c-2.7,1.1-16.7,0.7-16.7,0.7 c-1.6,0-3-1.6-3.1-3.2c0-0.3,0.1-0.5,0.2-0.7C16.6,40.4,17.8,41.6,19.2,41.6z" opacity=".909"/><path fill="#e5a015" d="M19.2,42c0,0,14,0.3,16.7-0.7c0.9-0.4,1.8-1,2.5-1.8c1.3-1.5,3.1-2.4,5.1-2.4h2.3c0.7,0,1.2-3.5,1.3-8 c0,0.2,0,0.3,0,0.5c0,4.7-0.6,8.5-1.3,8.5h-2.3c-2,0-3.8,0.9-5.1,2.4c-0.7,0.8-1.5,1.5-2.5,1.8C33.2,43.4,19.2,43,19.2,43 c-1.7,0-3.1-1.6-3.1-3.3c0-0.2,0-0.4,0-0.5C16.4,40.7,17.7,42,19.2,42z"/></g></svg>