<svg xmlns="http://www.w3.org/2000/svg" viewBox="0 0 48 48"><linearGradient id="KtFwFs76m9H3B8KqTlE2ha" x1="18" x2="34" y1="24" y2="24" gradientTransform="rotate(180 26 24)" gradientUnits="userSpaceOnUse"><stop offset="0" stop-color="#bd7e37"/><stop offset=".053" stop-color="#c2863f"/><stop offset=".121" stop-color="#cd9751"/><stop offset=".123" stop-color="#d8a862"/><stop offset=".127" stop-color="#edc985"/><stop offset=".248" stop-color="#edc985"/><stop offset=".252" stop-color="#bd7e37"/><stop offset=".305" stop-color="#c2863f"/><stop offset=".373" stop-color="#cd9751"/><stop offset=".375" stop-color="#d8a862"/><stop offset=".378" stop-color="#edc985"/><stop offset=".495" stop-color="#edc985"/><stop offset=".501" stop-color="#bd7e37"/><stop offset=".554" stop-color="#c2863f"/><stop offset=".623" stop-color="#cd9751"/><stop offset=".624" stop-color="#d8a862"/><stop offset=".627" stop-color="#edc985"/><stop offset=".746" stop-color="#edc985"/><stop offset=".754" stop-color="#bd7e37"/><stop offset=".806" stop-color="#c2863f"/><stop offset=".873" stop-color="#cd9751"/><stop offset=".875" stop-color="#d8a862"/><stop offset=".878" stop-color="#edc985"/></linearGradient><path fill="url(#KtFwFs76m9H3B8KqTlE2ha)" d="M18,6l2,1l2-1l2,1l2-1l2,1l2-1l2,1l2-1v36l-2-1l-2,1l-2-1l-2,1l-2-1l-2,1l-2-1l-2,1V6z"/><linearGradient id="KtFwFs76m9H3B8KqTlE2hb" x1="6" x2="18" y1="24" y2="24" gradientUnits="userSpaceOnUse"><stop offset="0" stop-color="#d93232"/><stop offset="1" stop-color="#d93232"/></linearGradient><path fill="url(#KtFwFs76m9H3B8KqTlE2hb)" d="M18,42H8c-1.105,0-2-0.895-2-2V8c0-1.105,0.895-2,2-2h10V42z"/><linearGradient id="KtFwFs76m9H3B8KqTlE2hc" x1="8" x2="16" y1="24" y2="24" gradientUnits="userSpaceOnUse"><stop offset=".056" stop-color="#e0e0e0"/><stop offset=".066" stop-color="#fff"/><stop offset=".163" stop-color="#f9f9f9"/><stop offset=".394" stop-color="#f7f7f7"/><stop offset=".915" stop-color="#d6d6d6"/><stop offset=".917" stop-color="#c3c2c2"/><stop offset="1" stop-color="#878686"/></linearGradient><path fill="url(#KtFwFs76m9H3B8KqTlE2hc)" d="M8.5,8H16v32H8.5C8.224,40,8,39.776,8,39.5v-31C8,8.224,8.224,8,8.5,8z"/><linearGradient id="KtFwFs76m9H3B8KqTlE2hd" x1="34" x2="42" y1="24" y2="24" gradientUnits="userSpaceOnUse"><stop offset="0" stop-color="#d93232"/><stop offset="1" stop-color="#d93232"/></linearGradient><path fill="url(#KtFwFs76m9H3B8KqTlE2hd)" d="M40,42h-6V6h6c1.105,0,2,0.895,2,2v32C42,41.105,41.105,42,40,42z"/><linearGradient id="KtFwFs76m9H3B8KqTlE2he" x1="10" x2="16" y1="24" y2="24" gradientUnits="userSpaceOnUse"><stop offset="0" stop-color="#454545"/><stop offset=".873" stop-color="#212121"/><stop offset=".88" stop-color="#050505"/></linearGradient><path fill="url(#KtFwFs76m9H3B8KqTlE2he)" d="M10,11h6v2h-6V11z M10,14h6v2h-6V14z M10,32h6v2h-6V32z M10,35h6v2h-6V35z M10,20h6v2h-6V20z M10,23h6v2h-6V23z M10,26h6v2h-6V26z"/><circle cx="39" cy="12" r="1" fill="#ffd6d6"/><circle cx="39" cy="16" r="1" fill="#ffd6d6"/><circle cx="39" cy="20" r="1" fill="#ffd6d6"/><circle cx="39" cy="24" r="1" fill="#ffd6d6"/><circle cx="39" cy="28" r="1" fill="#ffd6d6"/><circle cx="39" cy="32" r="1" fill="#ffd6d6"/><circle cx="39" cy="36" r="1" fill="#ffd6d6"/><circle cx="37" cy="14" r="1" fill="#ffd6d6"/><circle cx="37" cy="18" r="1" fill="#ffd6d6"/><circle cx="37" cy="22" r="1" fill="#ffd6d6"/><circle cx="37" cy="26" r="1" fill="#ffd6d6"/><circle cx="37" cy="30" r="1" fill="#ffd6d6"/><circle cx="37" cy="34" r="1" fill="#ffd6d6"/></svg>