<svg xmlns="http://www.w3.org/2000/svg" viewBox="0 0 48 48"><linearGradient id="sUanof7tSbKCJWX8IiZX~a" x1="14.651" x2="19.358" y1="34.04" y2="45.129" gradientUnits="userSpaceOnUse"><stop offset="0" stop-color="#d66f6f"/><stop offset=".101" stop-color="#c32d2d"/><stop offset=".201" stop-color="#d66f6f"/><stop offset=".304" stop-color="#c32d2d"/><stop offset=".409" stop-color="#d66f6f"/><stop offset=".508" stop-color="#c32d2d"/><stop offset=".599" stop-color="#d66f6f"/><stop offset=".702" stop-color="#c32d2d"/><stop offset=".801" stop-color="#d66f6f"/><stop offset=".907" stop-color="#c32d2d"/><stop offset="1" stop-color="#d66f6f"/></linearGradient><path fill="url(#sUanof7tSbKCJWX8IiZX~a)" d="M17.004,33.127L17.004,33.127c-0.552,0-1,0.448-1,1v10.914c0,0.552,0.448,1,1,1h0	c0.552,0,1-0.448,1-1V34.127C18.004,33.575,17.557,33.127,17.004,33.127z"/><radialGradient id="sUanof7tSbKCJWX8IiZX~b" cx="16.94" cy="44.276" r="2.591" gradientUnits="userSpaceOnUse"><stop offset="0" stop-color="#d66f6f"/><stop offset="1" stop-color="#c32d2d"/></radialGradient><circle cx="17" cy="45" r="2" fill="url(#sUanof7tSbKCJWX8IiZX~b)"/><linearGradient id="sUanof7tSbKCJWX8IiZX~c" x1="19.651" x2="24.358" y1="35.04" y2="46.129" gradientUnits="userSpaceOnUse"><stop offset="0" stop-color="#d66f6f"/><stop offset=".101" stop-color="#c32d2d"/><stop offset=".201" stop-color="#d66f6f"/><stop offset=".304" stop-color="#c32d2d"/><stop offset=".409" stop-color="#d66f6f"/><stop offset=".508" stop-color="#c32d2d"/><stop offset=".599" stop-color="#d66f6f"/><stop offset=".702" stop-color="#c32d2d"/><stop offset=".801" stop-color="#d66f6f"/><stop offset=".907" stop-color="#c32d2d"/><stop offset="1" stop-color="#d66f6f"/></linearGradient><path fill="url(#sUanof7tSbKCJWX8IiZX~c)" d="M22.004,34.127L22.004,34.127c-0.552,0-1,0.448-1,1v10.914c0,0.552,0.448,1,1,1h0	c0.552,0,1-0.448,1-1V35.127C23.004,34.575,22.557,34.127,22.004,34.127z"/><path fill="#b88300" d="M20,37C44.699,37,47,7.589,47,6H30c-0.101,3.293,7.512,27-10,27V37z"/><path fill="#bc8807" d="M20,36.916C44.283,36.916,46.375,7.615,46.375,6H30.179C30.084,9.274,37.417,33.148,20,33.148 V36.916z"/><path fill="#c18d0d" d="M20,36.832C43.868,36.832,45.75,7.64,45.75,6H30.358C30.27,9.256,37.323,33.297,20,33.297V36.832z"/><path fill="#c59214" d="M20,36.748C43.452,36.748,45.125,7.666,45.125,6H30.537C30.455,9.238,37.228,33.445,20,33.445 V36.748z"/><path fill="#ca971a" d="M20,36.664C43.036,36.664,44.5,7.692,44.5,6H30.716C30.64,9.219,37.134,33.593,20,33.593V36.664z"/><path fill="#ce9c21" d="M20,36.58C42.621,36.58,43.875,7.717,43.875,6h-12.98C30.826,9.201,37.039,33.742,20,33.742V36.58z"/><path fill="#d3a127" d="M20,36.496C42.205,36.496,43.25,7.743,43.25,6H31.074C31.011,9.183,36.945,33.89,20,33.89V36.496z"/><path fill="#d7a62e" d="M20,36.412C41.789,36.412,42.625,7.769,42.625,6H31.254C31.197,9.165,36.85,34.039,20,34.039V36.412 z"/><path fill="#dcac35" d="M20,36.328C41.374,36.328,42,7.794,42,6H31.433C31.382,9.146,36.756,34.187,20,34.187V36.328z"/><path fill="#e0b13b" d="M20,36.245C40.958,36.245,41.375,7.82,41.375,6h-9.763C31.567,9.128,36.661,34.335,20,34.335V36.245 z"/><path fill="#e4b642" d="M20,36.161C40.542,36.161,40.75,7.846,40.75,6h-8.959C31.753,9.11,36.567,34.484,20,34.484V36.161z"/><path fill="#e9bb48" d="M20,36.077C40.127,36.077,40.125,7.872,40.125,6H31.97C31.938,9.091,36.472,34.632,20,34.632V36.077 z"/><path fill="#edc04f" d="M20,35.993C39.711,35.993,39.5,7.897,39.5,6h-7.351C32.124,9.073,36.378,34.78,20,34.78V35.993z"/><path fill="#f2c555" d="M20,35.909C39.295,35.909,38.875,7.923,38.875,6h-6.547C32.309,9.055,36.283,34.929,20,34.929 V35.909z"/><path fill="#f6ca5c" d="M20,35.825C38.879,35.825,38.25,7.949,38.25,6h-5.743C32.495,9.037,36.189,35.077,20,35.077V35.825z"/><path fill="#fbcf62" d="M20,35.741C38.464,35.741,37.625,7.974,37.625,6h-4.939C32.68,9.018,36.094,35.225,20,35.225V35.741 z"/><path fill="#ffd469" d="M20,35.657C38.048,35.657,37,8,37,6h-4.135C32.865,9,36,35.374,20,35.374V35.657z"/><path fill="#b88300" d="M1,16l3-1c0,0,2,18,16,18v4C8,37,2,26,1,16z"/><path fill="#b98401" d="M1.004,15.999l2.976-0.992c0,0,2.002,18.013,16.02,18.013v3.967C8,36.986,2.017,26.015,1.004,15.999 z"/><path fill="#b98502" d="M1.007,15.998l2.953-0.984c0,0,2.005,18.026,16.04,18.026v3.933C8,36.973,2.035,26.029,1.007,15.998 z"/><path fill="#ba8503" d="M1.011,15.997l2.929-0.977c0,0,2.007,18.039,16.06,18.039v3.9 C8.001,36.959,2.052,26.044,1.011,15.997z"/><path fill="#bb8604" d="M1.014,15.996l2.905-0.969c0,0,2.009,18.052,16.08,18.052v3.866 C8.001,36.946,2.069,26.058,1.014,15.996z"/><path fill="#bb8705" d="M1.018,15.995L3.9,15.034c0,0,2.011,18.065,16.1,18.065v3.833 C8.001,36.932,2.086,26.073,1.018,15.995z"/><path fill="#bc8806" d="M1.022,15.994l2.858-0.953c0,0,2.014,18.078,16.12,18.078v3.8 C8.001,36.919,2.104,26.087,1.022,15.994z"/><path fill="#bd8807" d="M1.025,15.994l2.835-0.945c0,0,2.016,18.091,16.14,18.091v3.766 C8.002,36.905,2.121,26.102,1.025,15.994z"/><path fill="#bd8908" d="M1.029,15.993l2.811-0.938c0,0,2.018,18.104,16.16,18.104v3.733 C8.002,36.892,2.138,26.116,1.029,15.993z"/><path fill="#be8a09" d="M1.032,15.992l2.787-0.93c0,0,2.02,18.117,16.18,18.117v3.699 C8.002,36.878,2.155,26.131,1.032,15.992z"/><path fill="#bf8b0a" d="M1.036,15.991l2.764-0.922c0,0,2.023,18.13,16.201,18.13v3.666 C8.002,36.865,2.173,26.145,1.036,15.991z"/><path fill="#bf8b0b" d="M1.039,15.99l2.74-0.914c0,0,2.025,18.143,16.221,18.143v3.633C8.002,36.851,2.19,26.16,1.039,15.99 z"/><path fill="#c08c0c" d="M1.043,15.989l2.716-0.907c0,0,2.027,18.156,16.241,18.156v3.599 C8.003,36.838,2.207,26.174,1.043,15.989z"/><path fill="#c18d0d" d="M1.047,15.988l2.693-0.899c0,0,2.029,18.169,16.261,18.169v3.566 C8.003,36.824,2.225,26.189,1.047,15.988z"/><path fill="#c18e0e" d="M1.05,15.987l2.669-0.891c0,0,2.032,18.182,16.281,18.182v3.532 C8.003,36.811,2.242,26.204,1.05,15.987z"/><path fill="#c28e0f" d="M1.054,15.986l2.645-0.883c0,0,2.034,18.195,16.301,18.195v3.499 C8.003,36.797,2.259,26.218,1.054,15.986z"/><path fill="#c38f10" d="M1.057,15.985l2.622-0.875c0,0,2.036,18.208,16.321,18.208v3.466 C8.004,36.784,2.276,26.233,1.057,15.985z"/><path fill="#c39011" d="M1.061,15.984l2.598-0.868c0,0,2.039,18.221,16.341,18.221v3.432 C8.004,36.77,2.294,26.247,1.061,15.984z"/><path fill="#c49112" d="M1.065,15.983l2.575-0.86c0,0,2.041,18.234,16.361,18.234v3.399 C8.004,36.757,2.311,26.262,1.065,15.983z"/><path fill="#c59213" d="M1.068,15.982l2.551-0.852c0,0,2.043,18.247,16.381,18.247v3.365 C8.004,36.743,2.328,26.276,1.068,15.982z"/><path fill="#c59214" d="M1.072,15.981l2.527-0.844c0,0,2.045,18.26,16.401,18.26v3.332 C8.004,36.73,2.345,26.291,1.072,15.981z"/><path fill="#c69315" d="M1.075,15.981l2.504-0.836c0,0,2.048,18.273,16.421,18.273v3.299 C8.005,36.716,2.363,26.305,1.075,15.981z"/><path fill="#c79416" d="M1.079,15.98l2.48-0.829c0,0,2.05,18.286,16.441,18.286v3.265C8.005,36.703,2.38,26.32,1.079,15.98z"/><path fill="#c79517" d="M1.082,15.979l2.456-0.821c0,0,2.052,18.299,16.461,18.299v3.232 C8.005,36.689,2.397,26.334,1.082,15.979z"/><path fill="#c89518" d="M1.086,15.978l2.433-0.813c0,0,2.054,18.312,16.481,18.312v3.198 C8.005,36.676,2.414,26.349,1.086,15.978z"/><path fill="#c99619" d="M1.09,15.977l2.409-0.805c0,0,2.057,18.326,16.501,18.326v3.165 C8.006,36.662,2.432,26.364,1.09,15.977z"/><path fill="#c9971a" d="M1.093,15.976l2.385-0.798c0,0,2.059,18.339,16.521,18.339v3.132 C8.006,36.648,2.449,26.378,1.093,15.976z"/><path fill="#ca981b" d="M1.097,15.975l2.362-0.79c0,0,2.061,18.352,16.541,18.352v3.098 C8.006,36.635,2.466,26.393,1.097,15.975z"/><path fill="#cb981c" d="M1.1,15.974l2.338-0.782c0,0,2.064,18.365,16.561,18.365v3.065 C8.006,36.621,2.484,26.407,1.1,15.974z"/><path fill="#cb991d" d="M1.104,15.973l2.314-0.774c0,0,2.066,18.378,16.582,18.378v3.031 C8.007,36.608,2.501,26.422,1.104,15.973z"/><path fill="#cc9a1e" d="M1.108,15.972l2.291-0.766c0,0,2.068,18.391,16.602,18.391v2.998 C8.007,36.594,2.518,26.436,1.108,15.972z"/><path fill="#cd9b1f" d="M1.111,15.971l2.267-0.759c0,0,2.07,18.404,16.622,18.404v2.965 C8.007,36.581,2.535,26.451,1.111,15.971z"/><path fill="#cd9b20" d="M1.115,15.97l2.244-0.751c0,0,2.073,18.417,16.642,18.417v2.931 C8.007,36.567,2.553,26.465,1.115,15.97z"/><path fill="#ce9c21" d="M1.118,15.969l2.22-0.743c0,0,2.075,18.43,16.662,18.43v2.898C8.007,36.554,2.57,26.48,1.118,15.969 z"/><path fill="#cf9d22" d="M1.122,15.968l2.196-0.735c0,0,2.077,18.443,16.682,18.443v2.864 C8.008,36.54,2.587,26.494,1.122,15.968z"/><path fill="#cf9e23" d="M1.126,15.968l2.173-0.727c0,0,2.079,18.456,16.702,18.456v2.831 C8.008,36.527,2.604,26.509,1.126,15.968z"/><path fill="#d09f24" d="M1.129,15.967l2.149-0.72c0,0,2.082,18.469,16.722,18.469v2.798 C8.008,36.513,2.622,26.523,1.129,15.967z"/><path fill="#d19f25" d="M1.133,15.966l2.125-0.712c0,0,2.084,18.482,16.742,18.482V36.5 C8.008,36.5,2.639,26.538,1.133,15.966z"/><path fill="#d1a026" d="M1.136,15.965l2.102-0.704c0,0,2.086,18.495,16.762,18.495v2.731 C8.009,36.486,2.656,26.553,1.136,15.965z"/><path fill="#d2a127" d="M1.14,15.964l2.078-0.696c0,0,2.088,18.508,16.782,18.508v2.697 C8.009,36.473,2.674,26.567,1.14,15.964z"/><path fill="#d3a228" d="M1.143,15.963l2.054-0.688c0,0,2.091,18.521,16.802,18.521v2.664 C8.009,36.459,2.691,26.582,1.143,15.963z"/><path fill="#d3a229" d="M1.147,15.962l2.031-0.681c0,0,2.093,18.534,16.822,18.534v2.631 C8.009,36.446,2.708,26.596,1.147,15.962z"/><path fill="#d4a32a" d="M1.151,15.961l2.007-0.673c0,0,2.095,18.547,16.842,18.547v2.597 C8.009,36.432,2.725,26.611,1.151,15.961z"/><path fill="#d5a42b" d="M1.154,15.96l1.984-0.665c0,0,2.098,18.56,16.862,18.56v2.564C8.01,36.419,2.743,26.625,1.154,15.96 z"/><path fill="#d5a52c" d="M1.158,15.959l1.96-0.657c0,0,2.1,18.573,16.882,18.573v2.53C8.01,36.405,2.76,26.64,1.158,15.959z"/><path fill="#d6a52d" d="M1.161,15.958l1.936-0.65c0,0,2.102,18.586,16.902,18.586v2.497 C8.01,36.392,2.777,26.654,1.161,15.958z"/><path fill="#d7a62e" d="M1.165,15.957l1.913-0.642c0,0,2.104,18.599,16.922,18.599v2.464 C8.01,36.378,2.794,26.669,1.165,15.957z"/><path fill="#d7a72f" d="M1.169,15.956l1.889-0.634c0,0,2.107,18.612,16.942,18.612v2.43 C8.011,36.365,2.812,26.683,1.169,15.956z"/><path fill="#d8a830" d="M1.172,15.955l1.865-0.626c0,0,2.109,18.625,16.963,18.625v2.397 C8.011,36.351,2.829,26.698,1.172,15.955z"/><path fill="#d9a831" d="M1.176,15.955l1.842-0.618c0,0,2.111,18.638,16.983,18.638v2.363 C8.011,36.338,2.846,26.713,1.176,15.955z"/><path fill="#d9a932" d="M1.179,15.954l1.818-0.611c0,0,2.113,18.651,17.003,18.651v2.33 C8.011,36.324,2.863,26.727,1.179,15.954z"/><path fill="#daaa33" d="M1.183,15.953l1.794-0.603c0,0,2.116,18.664,17.023,18.664v2.297 C8.011,36.31,2.881,26.742,1.183,15.953z"/><path fill="#dbab34" d="M1.186,15.952l1.771-0.595c0,0,2.118,18.677,17.043,18.677v2.263 C8.012,36.297,2.898,26.756,1.186,15.952z"/><path fill="#dbab34" d="M1.19,15.951l1.747-0.587c0,0,2.12,18.69,17.063,18.69v2.23C8.012,36.283,2.915,26.771,1.19,15.951z"/><path fill="#dcac35" d="M1.194,15.95l1.724-0.579c0,0,2.123,18.703,17.083,18.703v2.196 C8.012,36.27,2.933,26.785,1.194,15.95z"/><path fill="#ddad36" d="M1.197,15.949l1.7-0.572c0,0,2.125,18.716,17.103,18.716v2.163C8.012,36.256,2.95,26.8,1.197,15.949 z"/><path fill="#deae37" d="M1.201,15.948l1.676-0.564c0,0,2.127,18.729,17.123,18.729v2.13 C8.013,36.243,2.967,26.814,1.201,15.948z"/><path fill="#deaf38" d="M1.204,15.947l1.653-0.556c0,0,2.129,18.742,17.143,18.742v2.096 C8.013,36.229,2.984,26.829,1.204,15.947z"/><path fill="#dfaf39" d="M1.208,15.946l1.629-0.548c0,0,2.132,18.755,17.163,18.755v2.063 C8.013,36.216,3.002,26.843,1.208,15.946z"/><path fill="#e0b03a" d="M1.212,15.945l1.605-0.541c0,0,2.134,18.768,17.183,18.768v2.029 C8.013,36.202,3.019,26.858,1.212,15.945z"/><path fill="#e0b13b" d="M1.215,15.944l1.582-0.533c0,0,2.136,18.781,17.203,18.781v1.996 C8.013,36.189,3.036,26.872,1.215,15.944z"/><path fill="#e1b23c" d="M1.219,15.943l1.558-0.525c0,0,2.138,18.794,17.223,18.794v1.963 C8.014,36.175,3.053,26.887,1.219,15.943z"/><path fill="#e2b23d" d="M1.222,15.942l1.534-0.517c0,0,2.141,18.807,17.243,18.807v1.929 C8.014,36.162,3.071,26.902,1.222,15.942z"/><path fill="#e2b33e" d="M1.226,15.942l1.511-0.509c0,0,2.143,18.82,17.263,18.82v1.896 C8.014,36.148,3.088,26.916,1.226,15.942z"/><path fill="#e3b43f" d="M1.229,15.941l1.487-0.502c0,0,2.145,18.833,17.283,18.833v1.862 C8.014,36.135,3.105,26.931,1.229,15.941z"/><path fill="#e4b540" d="M1.233,15.94l1.464-0.494c0,0,2.147,18.846,17.303,18.846v1.829 C8.015,36.121,3.123,26.945,1.233,15.94z"/><path fill="#e4b541" d="M1.237,15.939l1.44-0.486c0,0,2.15,18.859,17.323,18.859v1.796 C8.015,36.108,3.14,26.96,1.237,15.939z"/><path fill="#e5b642" d="M1.24,15.938l1.416-0.478c0,0,2.152,18.872,17.343,18.872v1.762 C8.015,36.094,3.157,26.974,1.24,15.938z"/><path fill="#e6b743" d="M1.244,15.937l1.393-0.47c0,0,2.154,18.885,17.364,18.885v1.729 C8.015,36.081,3.174,26.989,1.244,15.937z"/><path fill="#e6b844" d="M1.247,15.936l1.369-0.463c0,0,2.157,18.898,17.384,18.898v1.695 C8.015,36.067,3.192,27.003,1.247,15.936z"/><path fill="#e7b845" d="M1.251,15.935l1.345-0.455c0,0,2.159,18.911,17.404,18.911v1.662 C8.016,36.054,3.209,27.018,1.251,15.935z"/><path fill="#e8b946" d="M1.255,15.934l1.322-0.447c0,0,2.161,18.924,17.424,18.924v1.629 C8.016,36.04,3.226,27.032,1.255,15.934z"/><path fill="#e8ba47" d="M1.258,15.933l1.298-0.439c0,0,2.163,18.937,17.444,18.937v1.595 C8.016,36.027,3.243,27.047,1.258,15.933z"/><path fill="#e9bb48" d="M1.262,15.932l1.274-0.431c0,0,2.166,18.951,17.464,18.951v1.562 C8.016,36.013,3.261,27.062,1.262,15.932z"/><path fill="#eabc49" d="M1.265,15.931l1.251-0.424c0,0,2.168,18.964,17.484,18.964V36C8.017,36,3.278,27.076,1.265,15.931z"/><path fill="#eabc4a" d="M1.269,15.93l1.227-0.416c0,0,2.17,18.977,17.504,18.977v1.495 C8.017,35.986,3.295,27.091,1.269,15.93z"/><path fill="#ebbd4b" d="M1.273,15.93l1.204-0.408c0,0,2.172,18.99,17.524,18.99v1.461 C8.017,35.972,3.312,27.105,1.273,15.93z"/><path fill="#ecbe4c" d="M1.276,15.929l1.18-0.4c0,0,2.175,19.003,17.544,19.003v1.428C8.017,35.959,3.33,27.12,1.276,15.929 z"/><path fill="#ecbf4d" d="M1.28,15.928l1.156-0.393c0,0,2.177,19.016,17.564,19.016v1.395 C8.017,35.945,3.347,27.134,1.28,15.928z"/><path fill="#edbf4e" d="M1.283,15.927l1.133-0.385c0,0,2.179,19.029,17.584,19.029v1.361 C8.018,35.932,3.364,27.149,1.283,15.927z"/><path fill="#eec04f" d="M1.287,15.926l1.109-0.377c0,0,2.181,19.042,17.604,19.042v1.328 C8.018,35.918,3.382,27.163,1.287,15.926z"/><path fill="#eec150" d="M1.29,15.925l1.085-0.369c0,0,2.184,19.055,17.624,19.055v1.294 C8.018,35.905,3.399,27.178,1.29,15.925z"/><path fill="#efc251" d="M1.294,15.924l1.062-0.361c0,0,2.186,19.068,17.644,19.068v1.261 C8.018,35.891,3.416,27.192,1.294,15.924z"/><path fill="#f0c252" d="M1.298,15.923l1.038-0.354c0,0,2.188,19.081,17.664,19.081v1.228 C8.019,35.878,3.433,27.207,1.298,15.923z"/><path fill="#f0c353" d="M1.301,15.922l1.014-0.346c0,0,2.191,19.094,17.684,19.094v1.194 C8.019,35.864,3.451,27.221,1.301,15.922z"/><path fill="#f1c454" d="M1.305,15.921l0.991-0.338c0,0,2.193,19.107,17.704,19.107v1.161 C8.019,35.851,3.468,27.236,1.305,15.921z"/><path fill="#f2c555" d="M1.308,15.92l0.967-0.33c0,0,2.195,19.12,17.724,19.12v1.127C8.019,35.837,3.485,27.251,1.308,15.92 z"/><path fill="#f2c556" d="M1.312,15.919l0.943-0.322c0,0,2.197,19.133,17.745,19.133v1.094 C8.02,35.824,3.502,27.265,1.312,15.919z"/><path fill="#f3c657" d="M1.316,15.918l0.92-0.315c0,0,2.2,19.146,17.765,19.146v1.061C8.02,35.81,3.52,27.28,1.316,15.918z"/><path fill="#f4c758" d="M1.319,15.917l0.896-0.307c0,0,2.202,19.159,17.785,19.159v1.027 C8.02,35.797,3.537,27.294,1.319,15.917z"/><path fill="#f4c859" d="M1.323,15.917l0.873-0.299c0,0,2.204,19.172,17.805,19.172v0.994 C8.02,35.783,3.554,27.309,1.323,15.917z"/><path fill="#f5c95a" d="M1.326,15.916l0.849-0.291c0,0,2.206,19.185,17.825,19.185v0.96 C8.02,35.77,3.572,27.323,1.326,15.916z"/><path fill="#f6c95b" d="M1.33,15.915l0.825-0.284c0,0,2.209,19.198,17.845,19.198v0.927 C8.021,35.756,3.589,27.338,1.33,15.915z"/><path fill="#f6ca5c" d="M1.333,15.914l0.802-0.276c0,0,2.211,19.211,17.865,19.211v0.894 C8.021,35.743,3.606,27.352,1.333,15.914z"/><path fill="#f7cb5d" d="M1.337,15.913l0.778-0.268c0,0,2.213,19.224,17.885,19.224v0.86 C8.021,35.729,3.623,27.367,1.337,15.913z"/><path fill="#f8cc5e" d="M1.341,15.912l0.754-0.26c0,0,2.216,19.237,17.905,19.237v0.827 C8.021,35.716,3.641,27.381,1.341,15.912z"/><path fill="#f8cc5f" d="M1.344,15.911l0.731-0.252c0,0,2.218,19.25,17.925,19.25v0.793 C8.022,35.702,3.658,27.396,1.344,15.911z"/><path fill="#f9cd60" d="M1.348,15.91l0.707-0.245c0,0,2.22,19.263,17.945,19.263v0.76 C8.022,35.689,3.675,27.411,1.348,15.91z"/><path fill="#face61" d="M1.351,15.909l0.683-0.237c0,0,2.222,19.276,17.965,19.276v0.727 C8.022,35.675,3.692,27.425,1.351,15.909z"/><path fill="#facf62" d="M1.355,15.908l0.66-0.229c0,0,2.225,19.289,17.985,19.289v0.693 C8.022,35.662,3.71,27.44,1.355,15.908z"/><path fill="#fbcf63" d="M1.359,15.907l0.636-0.221c0,0,2.227,19.302,18.005,19.302v0.66 C8.022,35.648,3.727,27.454,1.359,15.907z"/><path fill="#fcd064" d="M1.362,15.906l0.613-0.213c0,0,2.229,19.315,18.025,19.315v0.626 C8.023,35.634,3.744,27.469,1.362,15.906z"/><path fill="#fcd165" d="M1.366,15.905L1.955,15.7c0,0,2.231,19.328,18.045,19.328v0.593 C8.023,35.621,3.761,27.483,1.366,15.905z"/><path fill="#fdd266" d="M1.369,15.904l0.565-0.198c0,0,2.234,19.341,18.065,19.341v0.56 C8.023,35.607,3.779,27.498,1.369,15.904z"/><path fill="#fed267" d="M1.373,15.904l0.542-0.19c0,0,2.236,19.354,18.085,19.354v0.526 C8.023,35.594,3.796,27.512,1.373,15.904z"/><path fill="#fed368" d="M1.377,15.903l0.518-0.182c0,0,2.238,19.367,18.105,19.367v0.493 C8.024,35.58,3.813,27.527,1.377,15.903z"/><path fill="#ffd469" d="M1.38,15.902l0.494-0.174c0,0,2.24,19.38,18.126,19.38v0.459C8.024,35.567,3.831,27.541,1.38,15.902 z"/><radialGradient id="sUanof7tSbKCJWX8IiZX~d" cx="20" cy="23" r="14" gradientUnits="userSpaceOnUse"><stop offset=".728" stop-color="#b88400"/><stop offset=".891" stop-color="#ffd66b"/><stop offset="1" stop-color="#b88400"/></radialGradient><path fill="url(#sUanof7tSbKCJWX8IiZX~d)" d="M20,37c-7.72,0-14-6.281-14-14S12.28,9,20,9s14,6.281,14,14S27.72,37,20,37z M20,13	c-5.514,0-10,4.486-10,10s4.486,10,10,10s10-4.486,10-10S25.514,13,20,13z"/><linearGradient id="sUanof7tSbKCJWX8IiZX~e" x1="17.91" x2="20.099" y1="32.505" y2="37.663" gradientUnits="userSpaceOnUse"><stop offset="0" stop-color="#d66f6f"/><stop offset=".174" stop-color="#c32d2d"/><stop offset=".344" stop-color="#d66f6f"/><stop offset=".499" stop-color="#c32d2d"/><stop offset=".678" stop-color="#d66f6f"/><stop offset=".854" stop-color="#c32d2d"/><stop offset="1" stop-color="#d66f6f"/></linearGradient><path fill="url(#sUanof7tSbKCJWX8IiZX~e)" d="M19.004,32.127L19.004,32.127c-0.552,0-1,0.448-1,1v3.914c0,0.552,0.448,1,1,1h0	c0.552,0,1-0.448,1-1v-3.914C20.004,32.575,19.557,32.127,19.004,32.127z"/><linearGradient id="sUanof7tSbKCJWX8IiZX~f" x1="19.91" x2="22.099" y1="32.505" y2="37.663" gradientUnits="userSpaceOnUse"><stop offset="0" stop-color="#d66f6f"/><stop offset=".174" stop-color="#c32d2d"/><stop offset=".344" stop-color="#d66f6f"/><stop offset=".499" stop-color="#c32d2d"/><stop offset=".678" stop-color="#d66f6f"/><stop offset=".854" stop-color="#c32d2d"/><stop offset="1" stop-color="#d66f6f"/></linearGradient><path fill="url(#sUanof7tSbKCJWX8IiZX~f)" d="M21.004,32.127L21.004,32.127c-0.552,0-1,0.448-1,1v3.914c0,0.552,0.448,1,1,1h0	c0.552,0,1-0.448,1-1v-3.914C22.004,32.575,21.557,32.127,21.004,32.127z"/><linearGradient id="sUanof7tSbKCJWX8IiZX~g" x1="21.681" x2="23.871" y1="32.372" y2="37.53" gradientTransform="rotate(-4.842 23.255 34.51)" gradientUnits="userSpaceOnUse"><stop offset="0" stop-color="#d66f6f"/><stop offset=".174" stop-color="#c32d2d"/><stop offset=".344" stop-color="#d66f6f"/><stop offset=".499" stop-color="#c32d2d"/><stop offset=".678" stop-color="#d66f6f"/><stop offset=".854" stop-color="#c32d2d"/><stop offset="1" stop-color="#d66f6f"/></linearGradient><path fill="url(#sUanof7tSbKCJWX8IiZX~g)" d="M22.565,32.044L22.565,32.044c-0.55,0.047-0.959,0.531-0.912,1.081l0.33,3.9	c0.047,0.55,0.531,0.959,1.081,0.912l0,0c0.55-0.047,0.959-0.531,0.912-1.081l-0.33-3.9C23.599,32.406,23.115,31.997,22.565,32.044z"/><linearGradient id="sUanof7tSbKCJWX8IiZX~h" x1="23.471" x2="25.665" y1="32.008" y2="37.177" gradientTransform="matrix(.9902 -.1397 .1513 1.0726 -4.874 .984)" gradientUnits="userSpaceOnUse"><stop offset="0" stop-color="#d66f6f"/><stop offset=".174" stop-color="#c32d2d"/><stop offset=".344" stop-color="#d66f6f"/><stop offset=".499" stop-color="#c32d2d"/><stop offset=".678" stop-color="#d66f6f"/><stop offset=".854" stop-color="#c32d2d"/><stop offset="1" stop-color="#d66f6f"/></linearGradient><path fill="url(#sUanof7tSbKCJWX8IiZX~h)" d="M24.24,31.484L24.24,31.484c-0.547,0.077-0.928,0.583-0.851,1.13l0.615,4.363	c0.077,0.547,0.583,0.928,1.13,0.851h0c0.547-0.077,0.928-0.583,0.851-1.13l-0.615-4.363C25.292,31.787,24.787,31.406,24.24,31.484z"/><linearGradient id="sUanof7tSbKCJWX8IiZX~i" x1="29.954" x2="27.216" y1="33.019" y2="37.634" gradientTransform="scale(-1 1) rotate(-3.681 .467 746.827)" gradientUnits="userSpaceOnUse"><stop offset="0" stop-color="#d66f6f"/><stop offset=".174" stop-color="#c32d2d"/><stop offset=".344" stop-color="#d66f6f"/><stop offset=".499" stop-color="#c32d2d"/><stop offset=".678" stop-color="#d66f6f"/><stop offset=".854" stop-color="#c32d2d"/><stop offset="1" stop-color="#d66f6f"/></linearGradient><path fill="url(#sUanof7tSbKCJWX8IiZX~i)" d="M17.342,32.039L17.342,32.039c0.551,0.035,0.969,0.511,0.934,1.062l-0.251,3.906	c-0.035,0.551-0.511,0.969-1.062,0.934h0c-0.551-0.035-0.969-0.511-0.934-1.062l0.251-3.906	C16.316,32.422,16.791,32.004,17.342,32.039z"/><linearGradient id="sUanof7tSbKCJWX8IiZX~j" x1="31.838" x2="29.087" y1="32.688" y2="37.326" gradientTransform="matrix(-.9913 -.1316 -.1415 1.0664 50.472 1.17)" gradientUnits="userSpaceOnUse"><stop offset="0" stop-color="#d66f6f"/><stop offset=".174" stop-color="#c32d2d"/><stop offset=".344" stop-color="#d66f6f"/><stop offset=".499" stop-color="#c32d2d"/><stop offset=".678" stop-color="#d66f6f"/><stop offset=".854" stop-color="#c32d2d"/><stop offset="1" stop-color="#d66f6f"/></linearGradient><path fill="url(#sUanof7tSbKCJWX8IiZX~j)" d="M15.727,31.338l0.023,0.003c0.541,0.072,0.922,0.569,0.85,1.11l-0.577,4.347	c-0.072,0.541-0.569,0.922-1.11,0.85l-0.023-0.003c-0.541-0.072-0.922-0.569-0.85-1.11l0.577-4.347	C14.689,31.646,15.186,31.266,15.727,31.338z"/><radialGradient id="sUanof7tSbKCJWX8IiZX~k" cx="38.5" cy="6" r="11.863" gradientTransform="matrix(1 0 0 .104 0 5.376)" gradientUnits="userSpaceOnUse"><stop offset="0" stop-color="#ffd66b"/><stop offset="1" stop-color="#ba8806"/></radialGradient><path fill="url(#sUanof7tSbKCJWX8IiZX~k)" d="M47,7H30c-0.552,0-1-0.448-1-1v0c0-0.552,0.448-1,1-1h17c0.552,0,1,0.448,1,1v0	C48,6.552,47.552,7,47,7z"/><radialGradient id="sUanof7tSbKCJWX8IiZX~l" cx="-.176" cy="12.919" r="2.534" gradientTransform="matrix(.9438 -.3305 .1538 .4391 .488 9.284)" gradientUnits="userSpaceOnUse"><stop offset="0" stop-color="#ffd66b"/><stop offset="1" stop-color="#ba8806"/></radialGradient><path fill="url(#sUanof7tSbKCJWX8IiZX~l)" d="M3.814,15.507l-2.338,0.784c-0.521,0.183-1.092-0.092-1.274-0.613l0,0	c-0.183-0.521,0.092-1.092,0.613-1.274l2.338-0.784c0.521-0.183,1.092,0.092,1.274,0.613l0,0C4.61,14.754,4.335,15.324,3.814,15.507	z"/><radialGradient id="sUanof7tSbKCJWX8IiZX~m" cx="21.94" cy="45.276" r="2.591" gradientUnits="userSpaceOnUse"><stop offset="0" stop-color="#d66f6f"/><stop offset="1" stop-color="#c32d2d"/></radialGradient><circle cx="22" cy="46" r="2" fill="url(#sUanof7tSbKCJWX8IiZX~m)"/></svg>