<svg xmlns="http://www.w3.org/2000/svg" viewBox="0 0 48 48"><path fill="#ba8806" d="M35.392,29c-3.711,0-1.378,14-12.813,14C16.561,43,13,38.373,13,33c0-6.06,10-20.427,10-22.952 C23,9.102,22.407,9,22,9c-0.955,0-1.905,1-5,1V7c4.137,0,4.46-2,7.46-2C27,5,28,6.631,28,9c0,4.335-7,18.589-7,23 c0,0.609,0.24,1.955,1.773,1.955c2.335,0,1.627-2.626,4.126-8.077c1.693-3.693,4.174-5.932,3.197-7.397 c2.031-0.196,7.79,10.418,7.264,11.375C36.921,29.212,35.987,29,35.392,29z"/><path fill="#bb8907" d="M35.375,28.944c-3.708-0.017-1.403,14.013-12.793,14.013c-6,0-9.539-4.62-9.539-9.957 c0-6.077,9.983-20.417,9.983-22.96c0-0.947-0.588-1.057-1.009-1.057c-0.955,0-1.922,1.009-5.017,1.009v-2.98 c4.137,0,4.46-2.003,7.46-2.003c2.529,0,3.531,1.625,3.531,3.991c0,4.335-7.009,18.57-7.009,23.009c0,0.609,0.247,1.973,1.79,1.973 c2.346,0,1.648-2.64,4.139-8.093c1.691-3.704,4.172-5.932,3.196-7.396c2.029-0.188,7.761,10.367,7.241,11.327 C36.904,29.166,35.968,28.946,35.375,28.944z"/><path fill="#bb8908" d="M35.358,28.888c-3.704-0.027-1.429,14.027-12.774,14.027c-5.981,0-9.499-4.614-9.499-9.915 c0-6.094,9.966-20.407,9.966-22.969c0-0.947-0.584-1.065-1.017-1.065c-0.955,0-1.939,1.017-5.034,1.017V7.022 c4.137,0,4.46-2.005,7.46-2.005c2.519,0,3.523,1.618,3.523,3.983c0,4.335-7.017,18.552-7.017,23.017c0,0.609,0.255,1.99,1.807,1.99 c2.358,0,1.668-2.654,4.153-8.11c1.689-3.716,4.169-5.933,3.195-7.395c2.027-0.18,7.733,10.317,7.217,11.278 C36.887,29.12,35.948,28.892,35.358,28.888z"/><path fill="#bc8a09" d="M35.342,28.832c-3.701-0.041-1.455,14.04-12.755,14.04c-5.963,0-9.459-4.608-9.459-9.872 c0-6.111,9.949-20.397,9.949-22.977c0-0.947-0.579-1.074-1.026-1.074c-0.955,0-1.956,1.026-5.051,1.026V7.033 c4.137,0,4.46-2.008,7.46-2.008c2.508,0,3.514,1.612,3.514,3.974c0,4.335-7.026,18.533-7.026,23.026 c0,0.609,0.263,2.007,1.824,2.007c2.369,0,1.689-2.667,4.166-8.126c1.687-3.727,4.167-5.933,3.194-7.394 c2.025-0.173,7.704,10.267,7.194,11.23C36.871,29.074,35.929,28.838,35.342,28.832z"/><path fill="#bc8b0a" d="M35.325,28.776c-3.698-0.054-1.481,14.053-12.735,14.053c-5.944,0-9.419-4.602-9.419-9.829 c0-6.128,9.932-20.386,9.932-22.986c0-0.947-0.574-1.083-1.034-1.083c-0.955,0-1.973,1.034-5.068,1.034V7.045 c4.137,0,4.46-2.01,7.46-2.01c2.497,0,3.506,1.605,3.506,3.966c0,4.335-7.034,18.514-7.034,23.034c0,0.609,0.271,2.024,1.842,2.024 c2.381,0,1.709-2.681,4.179-8.143c1.685-3.738,4.164-5.934,3.193-7.393c2.023-0.165,7.675,10.216,7.171,11.182 C36.854,29.028,35.91,28.785,35.325,28.776z"/><path fill="#bd8c0b" d="M35.308,28.72c-3.694-0.068-1.507,14.066-12.716,14.066c-5.926,0-9.379-4.595-9.379-9.786 c0-6.144,9.915-20.376,9.915-22.994c0-0.947-0.569-1.091-1.043-1.091c-0.955,0-1.99,1.043-5.085,1.043V7.056 c4.137,0,4.46-2.013,7.46-2.013c2.487,0,3.497,1.599,3.497,3.957c0,4.335-7.043,18.495-7.043,23.043 c0,0.609,0.278,2.041,1.859,2.041c2.392,0,1.73-2.695,4.193-8.159c1.682-3.749,4.162-5.934,3.192-7.392 c2.021-0.157,7.647,10.166,7.147,11.133C36.837,28.982,35.891,28.731,35.308,28.72z"/><path fill="#be8c0c" d="M35.292,28.664c-3.691-0.081-1.532,14.08-12.697,14.08c-5.907,0-9.339-4.589-9.339-9.744 c0-6.161,9.897-20.366,9.897-23.003c0-0.947-0.565-1.1-1.051-1.1c-0.955,0-2.008,1.051-5.103,1.051V7.067 c4.137,0,4.46-2.015,7.46-2.015c2.476,0,3.489,1.592,3.489,3.949c0,4.335-7.051,18.477-7.051,23.051 c0,0.609,0.286,2.058,1.876,2.058c2.404,0,1.75-2.708,4.206-8.175c1.68-3.761,4.16-5.935,3.191-7.391 c2.02-0.149,7.618,10.116,7.124,11.085C36.82,28.936,35.871,28.677,35.292,28.664z"/><path fill="#be8d0d" d="M35.275,28.608c-3.688-0.095-1.558,14.093-12.677,14.093c-5.888,0-9.299-4.583-9.299-9.701 c0-6.178,9.88-20.356,9.88-23.011c0-0.947-0.56-1.108-1.06-1.108c-0.955,0-2.025,1.06-5.12,1.06V7.078 c4.137,0,4.46-2.018,7.46-2.018c2.465,0,3.48,1.586,3.48,3.94c0,4.335-7.06,18.458-7.06,23.06c0,0.609,0.294,2.075,1.893,2.075 c2.415,0,1.771-2.722,4.22-8.192c1.678-3.772,4.157-5.935,3.19-7.39c2.018-0.141,7.589,10.066,7.101,11.036 C36.803,28.89,35.852,28.623,35.275,28.608z"/><path fill="#bf8e0e" d="M35.259,28.552c-3.684-0.109-1.584,14.106-12.658,14.106c-5.87,0-9.258-4.577-9.258-9.658 c0-6.195,9.863-20.345,9.863-23.02c0-0.947-0.555-1.117-1.068-1.117c-0.955,0-2.042,1.068-5.137,1.068V7.089 c4.137,0,4.46-2.021,7.46-2.021c2.455,0,3.472,1.579,3.472,3.932c0,4.335-7.068,18.439-7.068,23.068 c0,0.609,0.302,2.092,1.91,2.092c2.427,0,1.791-2.736,4.233-8.208c1.676-3.783,4.155-5.935,3.189-7.389 c2.016-0.133,7.561,10.015,7.077,10.988C36.786,28.844,35.833,28.569,35.259,28.552z"/><path fill="#bf8e0f" d="M35.242,28.496c-3.681-0.123-1.61,14.119-12.639,14.119c-5.851,0-9.218-4.57-9.218-9.615 c0-6.211,9.846-20.335,9.846-23.029c0-0.947-0.55-1.125-1.077-1.125c-0.955,0-2.059,1.077-5.154,1.077V7.1 c4.137,0,4.46-2.023,7.46-2.023c2.444,0,3.463,1.573,3.463,3.923c0,4.335-7.077,18.421-7.077,23.077 c0,0.609,0.31,2.109,1.927,2.109c2.438,0,1.812-2.75,4.246-8.224c1.674-3.795,4.152-5.936,3.188-7.388 c2.014-0.125,7.532,9.965,7.054,10.939C36.769,28.798,35.814,28.515,35.242,28.496z"/><path fill="#c08f10" d="M35.225,28.44c-3.678-0.136-1.636,14.133-12.62,14.133c-5.833,0-9.178-4.564-9.178-9.573 c0-6.228,9.829-20.325,9.829-23.037c0-0.947-0.546-1.134-1.085-1.134c-0.955,0-2.076,1.085-5.171,1.085V7.111 c4.137,0,4.46-2.026,7.46-2.026c2.433,0,3.454,1.567,3.454,3.915c0,4.335-7.085,18.402-7.085,23.085 c0,0.609,0.317,2.126,1.944,2.126c2.45,0,1.832-2.763,4.26-8.241c1.672-3.806,4.15-5.936,3.187-7.387 c2.012-0.117,7.503,9.915,7.031,10.891C36.752,28.752,35.794,28.461,35.225,28.44z"/><path fill="#c09011" d="M35.209,28.384c-3.675-0.15-1.661,14.146-12.6,14.146c-5.814,0-9.138-4.558-9.138-9.53 c0-6.245,9.812-20.315,9.812-23.046c0-0.947-0.541-1.142-1.094-1.142c-0.955,0-2.093,1.094-5.188,1.094V7.122 c4.137,0,4.46-2.028,7.46-2.028c2.423,0,3.446,1.56,3.446,3.906c0,4.335-7.094,18.383-7.094,23.094 c0,0.609,0.325,2.143,1.961,2.143c2.461,0,1.853-2.777,4.273-8.257c1.67-3.817,4.147-5.937,3.186-7.386 c2.01-0.11,7.475,9.864,7.007,10.842C36.735,28.706,35.775,28.407,35.209,28.384z"/><path fill="#c19012" d="M35.192,28.328c-3.672-0.164-1.687,14.159-12.581,14.159c-5.796,0-9.098-4.552-9.098-9.487 c0-6.262,9.795-20.304,9.795-23.054c0-0.947-0.536-1.151-1.103-1.151c-0.955,0-2.11,1.103-5.205,1.103V7.134 c4.137,0,4.46-2.031,7.46-2.031c2.412,0,3.437,1.554,3.437,3.897c0,4.335-7.103,18.364-7.103,23.103 c0,0.609,0.333,2.161,1.978,2.161c2.473,0,1.873-2.791,4.286-8.273c1.668-3.828,4.145-5.937,3.185-7.385 c2.008-0.102,7.446,9.814,6.984,10.794C36.718,28.66,35.756,28.353,35.192,28.328z"/><path fill="#c29113" d="M35.175,28.272c-3.668-0.178-1.713,14.173-12.562,14.173c-5.777,0-9.058-4.545-9.058-9.444 c0-6.279,9.778-20.294,9.778-23.063c0-0.947-0.531-1.159-1.111-1.159c-0.955,0-2.127,1.111-5.222,1.111V7.145 c4.137,0,4.46-2.034,7.46-2.034c2.401,0,3.429,1.547,3.429,3.889c0,4.335-7.111,18.346-7.111,23.111 c0,0.609,0.341,2.178,1.995,2.178c2.484,0,1.905-2.8,4.3-8.29c1.674-3.836,4.143-5.937,3.184-7.384 c2.007-0.094,7.418,9.764,6.961,10.745C36.702,28.614,35.737,28.299,35.175,28.272z"/><path fill="#c29214" d="M35.159,28.216c-3.665-0.192-1.739,14.186-12.542,14.186c-5.758,0-9.018-4.539-9.018-9.402 c0-6.295,9.761-20.284,9.761-23.071c0-0.947-0.527-1.168-1.12-1.168c-0.955,0-2.144,1.12-5.239,1.12V7.156 c4.137,0,4.46-2.036,7.46-2.036c2.39,0,3.42,1.541,3.42,3.88c0,4.335-7.12,18.327-7.12,23.12c0,0.609,0.348,2.195,2.013,2.195 c2.496,0,1.926-2.813,4.313-8.306c1.672-3.847,4.14-5.938,3.183-7.383c2.005-0.086,7.389,9.714,6.938,10.697 C36.685,28.568,35.717,28.245,35.159,28.216z"/><path fill="#c39315" d="M35.142,28.16c-3.662-0.206-1.764,14.199-12.523,14.199c-5.74,0-8.978-4.533-8.978-9.359 c0-6.312,9.744-20.274,9.744-23.08c0-0.947-0.522-1.177-1.128-1.177c-0.955,0-2.161,1.128-5.256,1.128V7.167 c4.137,0,4.46-2.039,7.46-2.039c2.38,0,3.412,1.534,3.412,3.872c0,4.335-7.128,18.308-7.128,23.128c0,0.609,0.356,2.212,2.03,2.212 c2.508,0,1.947-2.826,4.326-8.322c1.67-3.858,4.138-5.938,3.182-7.382c2.003-0.078,7.36,9.663,6.914,10.649 C36.668,28.522,35.698,28.191,35.142,28.16z"/><path fill="#c39316" d="M35.125,28.104c-3.659-0.22-1.79,14.212-12.504,14.212c-5.721,0-8.938-4.526-8.938-9.316 c0-6.329,9.726-20.263,9.726-23.088c0-0.947-0.517-1.185-1.137-1.185c-0.955,0-2.179,1.137-5.274,1.137V7.178 c4.137,0,4.46-2.041,7.46-2.041c2.369,0,3.403,1.528,3.403,3.863c0,4.335-7.137,18.29-7.137,23.137 c0,0.609,0.364,2.229,2.047,2.229c2.519,0,1.968-2.84,4.34-8.339c1.669-3.869,4.135-5.939,3.181-7.381 c2.001-0.07,7.332,9.613,6.891,10.6C36.651,28.476,35.679,28.137,35.125,28.104z"/><path fill="#c49417" d="M35.109,28.048c-3.656-0.234-1.816,14.226-12.485,14.226c-5.703,0-8.898-4.52-8.898-9.274 c0-6.346,9.709-20.253,9.709-23.097c0-0.947-0.512-1.194-1.145-1.194c-0.955,0-2.196,1.145-5.291,1.145V7.189 c4.137,0,4.46-2.044,7.46-2.044c2.358,0,3.395,1.522,3.395,3.855c0,4.335-7.145,18.271-7.145,23.145 c0,0.609,0.372,2.246,2.064,2.246c2.531,0,1.989-2.853,4.353-8.355c1.667-3.88,4.133-5.939,3.18-7.38 c1.999-0.062,7.303,9.563,6.868,10.552C36.634,28.43,35.66,28.083,35.109,28.048z"/><path fill="#c59518" d="M35.092,27.992c-3.653-0.248-1.842,14.239-12.465,14.239c-5.684,0-8.857-4.514-8.857-9.231 c0-6.362,9.692-20.243,9.692-23.105c0-0.947-0.508-1.202-1.154-1.202c-0.955,0-2.213,1.154-5.308,1.154V7.2 c4.137,0,4.46-2.046,7.46-2.046c2.348,0,3.386,1.515,3.386,3.846c0,4.335-7.154,18.252-7.154,23.154 c0,0.609,0.38,2.263,2.081,2.263c2.542,0,2.01-2.867,4.366-8.372c1.666-3.891,4.13-5.939,3.179-7.379 c1.997-0.054,7.274,9.512,6.844,10.503C36.617,28.384,35.64,28.029,35.092,27.992z"/><path fill="#c59519" d="M35.075,27.936c-3.65-0.262-1.868,14.252-12.446,14.252c-5.666,0-8.817-4.508-8.817-9.188 c0-6.379,9.675-20.233,9.675-23.114c0-0.947-0.503-1.211-1.162-1.211c-0.955,0-2.23,1.162-5.325,1.162V7.211 c4.137,0,4.46-2.049,7.46-2.049c2.337,0,3.378,1.509,3.378,3.838c0,4.335-7.162,18.233-7.162,23.162c0,0.609,0.387,2.28,2.098,2.28 c2.554,0,2.031-2.88,4.38-8.388c1.664-3.902,4.128-5.94,3.178-7.378c1.996-0.046,7.246,9.462,6.821,10.455 C36.6,28.338,35.621,27.975,35.075,27.936z"/><path fill="#c6961a" d="M35.059,27.88c-3.647-0.277-1.893,14.266-12.427,14.266c-5.647,0-8.777-4.501-8.777-9.145 c0-6.396,9.658-20.222,9.658-23.123c0-0.947-0.498-1.219-1.171-1.219c-0.955,0-2.247,1.171-5.342,1.171V7.223 c4.137,0,4.46-2.052,7.46-2.052c2.326,0,3.369,1.502,3.369,3.829c0,4.335-7.171,18.215-7.171,23.171 c0,0.609,0.395,2.297,2.115,2.297c2.565,0,2.053-2.894,4.393-8.404c1.662-3.914,4.126-5.94,3.177-7.377 c1.994-0.039,7.217,9.412,6.798,10.406C36.583,28.292,35.602,27.921,35.059,27.88z"/><path fill="#c6971b" d="M35.042,27.824c-3.644-0.291-1.919,14.279-12.407,14.279c-5.628,0-8.737-4.495-8.737-9.103 c0-6.413,9.641-20.212,9.641-23.131c0-0.947-0.493-1.228-1.179-1.228c-0.955,0-2.264,1.179-5.359,1.179V7.234 c4.137,0,4.46-2.054,7.46-2.054c2.316,0,3.36,1.496,3.36,3.821c0,4.335-7.179,18.196-7.179,23.179c0,0.609,0.403,2.314,2.132,2.314 c2.577,0,2.074-2.907,4.407-8.421c1.661-3.925,4.123-5.941,3.176-7.376c1.992-0.031,7.188,9.362,6.774,10.358 C36.566,28.246,35.583,27.867,35.042,27.824z"/><path fill="#c7971c" d="M35.025,27.768C31.384,27.462,33.08,42.06,22.637,42.06c-5.61,0-8.697-4.489-8.697-9.06 c0-6.43,9.624-20.202,9.624-23.14c0-0.947-0.489-1.236-1.188-1.236c-0.955,0-2.281,1.188-5.376,1.188V7.245 c4.137,0,4.46-2.057,7.46-2.057c2.305,0,3.352,1.489,3.352,3.812c0,4.335-7.188,18.177-7.188,23.188 c0,0.609,0.411,2.331,2.149,2.331c2.588,0,2.095-2.921,4.42-8.437c1.659-3.936,4.121-5.941,3.175-7.375 c1.99-0.023,7.16,9.311,6.751,10.309C36.549,28.2,35.563,27.813,35.025,27.768z"/><path fill="#c8981d" d="M35.009,27.712c-3.639-0.32-1.971,14.305-12.369,14.305c-5.591,0-8.657-4.483-8.657-9.017 c0-6.446,9.607-20.192,9.607-23.148c0-0.947-0.484-1.245-1.197-1.245c-0.955,0-2.298,1.197-5.393,1.197V7.256 c4.137,0,4.46-2.059,7.46-2.059c2.294,0,3.343,1.483,3.343,3.803c0,4.335-7.197,18.159-7.197,23.197 c0,0.609,0.418,2.349,2.166,2.349c2.6,0,2.116-2.934,4.433-8.453c1.657-3.947,4.118-5.941,3.174-7.374 c1.988-0.015,7.131,9.261,6.728,10.261C36.533,28.154,35.544,27.759,35.009,27.712z"/><path fill="#c8991e" d="M34.992,27.656c-3.636-0.334-1.996,14.319-12.35,14.319c-5.573,0-8.617-4.476-8.617-8.974 c0-6.463,9.59-20.181,9.59-23.157c0-0.947-0.479-1.254-1.205-1.254c-0.955,0-2.315,1.205-5.41,1.205V7.267 c4.137,0,4.46-2.062,7.46-2.062c2.284,0,3.335,1.476,3.335,3.795c0,4.335-7.205,18.14-7.205,23.205 c0,0.609,0.426,2.366,2.183,2.366c2.611,0,2.137-2.948,4.447-8.47c1.656-3.958,4.116-5.942,3.173-7.373 c1.986-0.007,7.103,9.211,6.704,10.212C36.516,28.108,35.525,27.705,34.992,27.656z"/><path fill="#c99a1f" d="M34.975,27.6c-3.633-0.349-2.022,14.332-12.33,14.332c-5.554,0-8.577-4.47-8.577-8.932 c0-6.48,9.573-20.171,9.573-23.165c0-0.947-0.474-1.262-1.214-1.262c-0.955,0-2.332,1.214-5.427,1.214V7.278 c4.137,0,4.46-2.065,7.46-2.065c2.273,0,3.326,1.47,3.326,3.786c0,4.335-7.214,18.121-7.214,23.214 c0,0.609,0.434,2.383,2.201,2.383c2.623,0,2.158-2.961,4.46-8.486c1.654-3.969,4.113-5.942,3.172-7.372 c1.985,0.001,7.074,9.16,6.681,10.164C36.499,28.062,35.505,27.651,34.975,27.6z"/><path fill="#c99a20" d="M34.959,27.544c-3.63-0.363-2.048,14.345-12.311,14.345c-5.536,0-8.537-4.464-8.537-8.889 c0-6.497,9.556-20.161,9.556-23.174c0-0.947-0.47-1.271-1.222-1.271c-0.955,0-2.349,1.222-5.444,1.222V7.289 c4.137,0,4.46-2.067,7.46-2.067c2.262,0,3.318,1.464,3.318,3.778c0,4.335-7.222,18.102-7.222,23.222c0,0.609,0.442,2.4,2.218,2.4 c2.634,0,2.179-2.975,4.473-8.502c1.652-3.98,4.111-5.943,3.171-7.371c1.983,0.009,7.045,9.11,6.658,10.116 C36.482,28.016,35.486,27.596,34.959,27.544z"/><path fill="#ca9b21" d="M34.942,27.488c-3.627-0.378-2.074,14.358-12.292,14.358c-5.517,0-8.497-4.458-8.497-8.846 c0-6.514,9.538-20.151,9.538-23.182c0-0.947-0.465-1.279-1.231-1.279c-0.955,0-2.367,1.231-5.462,1.231V7.3 c4.137,0,4.46-2.07,7.46-2.07c2.252,0,3.309,1.457,3.309,3.769c0,4.335-7.231,18.084-7.231,23.231c0,0.609,0.45,2.417,2.235,2.417 c2.646,0,2.2-2.988,4.487-8.519c1.651-3.991,4.108-5.943,3.17-7.37c1.981,0.017,7.017,9.06,6.635,10.067 C36.465,27.97,35.467,27.542,34.942,27.488z"/><path fill="#cb9c22" d="M34.925,27.432c-3.624-0.392-2.1,14.372-12.272,14.372c-5.498,0-8.456-4.451-8.456-8.803 c0-6.53,9.521-20.14,9.521-23.191c0-0.947-0.46-1.288-1.239-1.288c-0.955,0-2.384,1.239-5.479,1.239V7.312 c4.137,0,4.46-2.072,7.46-2.072c2.241,0,3.301,1.451,3.301,3.761c0,4.335-7.239,18.065-7.239,23.239 c0,0.609,0.457,2.434,2.252,2.434c2.657,0,2.221-3.002,4.5-8.535c1.649-4.002,4.106-5.944,3.169-7.369 c1.979,0.024,6.988,9.01,6.611,10.019C36.448,27.924,35.448,27.488,34.925,27.432z"/><path fill="#cb9c23" d="M34.909,27.376c-3.622-0.407-2.125,14.385-12.253,14.385c-5.48,0-8.416-4.445-8.416-8.761 c0-6.547,9.504-20.13,9.504-23.199c0-0.947-0.455-1.296-1.248-1.296c-0.955,0-2.401,1.248-5.496,1.248V7.323 c4.137,0,4.46-2.075,7.46-2.075c2.23,0,3.292,1.444,3.292,3.752c0,4.335-7.248,18.046-7.248,23.248 c0,0.609,0.465,2.451,2.269,2.451c2.669,0,2.241-3.016,4.513-8.552c1.647-4.014,4.104-5.944,3.168-7.368 c1.977,0.032,6.959,8.959,6.588,9.97C36.431,27.878,35.428,27.434,34.909,27.376z"/><path fill="#cc9d24" d="M34.892,27.32c-3.619-0.422-2.151,14.398-12.234,14.398c-5.461,0-8.376-4.439-8.376-8.718 c0-6.564,9.487-20.12,9.487-23.208c0-0.947-0.451-1.305-1.256-1.305c-0.955,0-2.418,1.256-5.513,1.256v-2.41 c4.137,0,4.46-2.077,7.46-2.077c2.22,0,3.283,1.438,3.283,3.744c0,4.335-7.256,18.028-7.256,23.256 c0,0.609,0.473,2.468,2.286,2.468c2.681,0,2.262-3.029,4.527-8.568c1.645-4.025,4.101-5.944,3.167-7.367 c1.975,0.04,6.931,8.909,6.565,9.922C36.414,27.832,35.409,27.38,34.892,27.32z"/><path fill="#cc9e25" d="M34.875,27.264c-3.616-0.437-2.177,14.412-12.215,14.412c-5.443,0-8.336-4.433-8.336-8.675 c0-6.581,9.47-20.11,9.47-23.217c0-0.947-0.446-1.313-1.265-1.313c-0.955,0-2.435,1.265-5.53,1.265v-2.39 c4.137,0,4.46-2.08,7.46-2.08c2.209,0,3.275,1.431,3.275,3.735c0,4.335-7.265,18.009-7.265,23.265c0,0.609,0.481,2.485,2.303,2.485 c2.692,0,2.283-3.043,4.54-8.584c1.644-4.036,4.099-5.945,3.166-7.366c1.973,0.048,6.902,8.859,6.541,9.873 C36.397,27.786,35.39,27.326,34.875,27.264z"/><path fill="#cd9e26" d="M34.859,27.208c-3.613-0.451-2.203,14.425-12.195,14.425c-5.424,0-8.296-4.426-8.296-8.632 c0-6.597,9.453-20.099,9.453-23.225c0-0.947-0.441-1.322-1.274-1.322c-0.955,0-2.452,1.274-5.547,1.274v-2.37 c4.137,0,4.46-2.083,7.46-2.083c2.198,0,3.266,1.425,3.266,3.726c0,4.335-7.274,17.99-7.274,23.274c0,0.609,0.488,2.502,2.32,2.502 c2.704,0,2.304-3.056,4.554-8.601c1.642-4.047,4.096-5.945,3.165-7.365c1.972,0.056,6.873,8.808,6.518,9.825 C36.381,27.74,35.37,27.272,34.859,27.208z"/><path fill="#cd9f27" d="M34.842,27.152c-3.611-0.466-2.229,14.438-12.176,14.438c-5.406,0-8.256-4.42-8.256-8.59 c0-6.614,9.436-20.089,9.436-23.234c0-0.947-0.436-1.33-1.282-1.33c-0.955,0-2.469,1.282-5.564,1.282V7.367 c4.137,0,4.46-2.085,7.46-2.085c2.188,0,3.258,1.418,3.258,3.718c0,4.335-7.282,17.971-7.282,23.282c0,0.609,0.496,2.52,2.337,2.52 c2.715,0,2.325-3.07,4.567-8.617c1.64-4.058,4.094-5.946,3.164-7.364c1.97,0.064,6.845,8.758,6.495,9.776 C36.364,27.695,35.351,27.217,34.842,27.152z"/><path fill="#cea028" d="M34.826,27.096c-3.608-0.481-2.254,14.451-12.157,14.451c-5.387,0-8.216-4.414-8.216-8.547 c0-6.631,9.419-20.079,9.419-23.242c0-0.947-0.432-1.339-1.291-1.339c-0.955,0-2.486,1.291-5.581,1.291V7.378 c4.137,0,4.46-2.088,7.46-2.088c2.177,0,3.249,1.412,3.249,3.709c0,4.335-7.291,17.953-7.291,23.291 c0,0.609,0.504,2.537,2.354,2.537c2.727,0,2.346-3.084,4.58-8.633c1.638-4.069,4.091-5.946,3.163-7.363 c1.968,0.072,6.816,8.708,6.471,9.728C36.347,27.649,35.332,27.163,34.826,27.096z"/><path fill="#cfa129" d="M34.809,27.04c-3.605-0.496-2.28,14.465-12.137,14.465c-5.369,0-8.176-4.408-8.176-8.504 c0-6.648,9.402-20.069,9.402-23.251c0-0.947-0.427-1.348-1.299-1.348c-0.955,0-2.503,1.299-5.598,1.299V7.389 c4.137,0,4.46-2.09,7.46-2.09c2.166,0,3.241,1.406,3.241,3.701c0,4.335-7.299,17.934-7.299,23.299c0,0.609,0.512,2.554,2.371,2.554 c2.738,0,2.367-3.097,4.594-8.65c1.637-4.08,4.089-5.946,3.162-7.362c1.966,0.08,6.788,8.658,6.448,9.68 C36.33,27.603,35.313,27.109,34.809,27.04z"/><path fill="#cfa12a" d="M34.792,26.984c-3.603-0.511-2.306,14.478-12.118,14.478c-5.35,0-8.136-4.401-8.136-8.462 c0-6.665,9.385-20.058,9.385-23.259c0-0.947-0.422-1.356-1.308-1.356c-0.955,0-2.52,1.308-5.615,1.308V7.401 c4.137,0,4.46-2.093,7.46-2.093c2.156,0,3.232,1.399,3.232,3.692c0,4.335-7.308,17.915-7.308,23.308 c0,0.609,0.52,2.571,2.389,2.571c2.75,0,2.387-3.111,4.607-8.666c1.635-4.092,4.087-5.947,3.161-7.361 c1.964,0.088,6.759,8.607,6.425,9.631C36.313,27.557,35.293,27.055,34.792,26.984z"/><path fill="#d0a22b" d="M34.776,26.928c-3.6-0.527-2.332,14.491-12.099,14.491c-5.331,0-8.096-4.395-8.096-8.419 c0-6.681,9.368-20.048,9.368-23.268c0-0.947-0.417-1.365-1.316-1.365c-0.955,0-2.538,1.316-5.632,1.316V7.412 c4.137,0,4.46-2.095,7.46-2.095c2.145,0,3.224,1.393,3.224,3.684c0,4.335-7.316,17.897-7.316,23.316 c0,0.609,0.527,2.588,2.406,2.588c2.761,0,2.408-3.124,4.62-8.682c1.633-4.103,4.084-5.947,3.16-7.36 c1.962,0.095,6.73,8.557,6.401,9.583C36.296,27.511,35.274,27.001,34.776,26.928z"/><path fill="#d0a32c" d="M34.759,26.872c-3.598-0.542-2.357,14.504-12.079,14.504c-5.313,0-8.055-4.389-8.055-8.376 c0-6.698,9.35-20.038,9.35-23.276c0-0.947-0.413-1.373-1.325-1.373c-0.955,0-2.555,1.325-5.65,1.325V7.423 c4.137,0,4.46-2.098,7.46-2.098c2.134,0,3.215,1.386,3.215,3.675c0,4.335-7.325,17.878-7.325,23.325 c0,0.609,0.535,2.605,2.423,2.605c2.773,0,2.429-3.138,4.634-8.699c1.631-4.114,4.082-5.948,3.159-7.359 c1.961,0.103,6.702,8.507,6.378,9.534C36.279,27.465,35.255,26.946,34.759,26.872z"/><path fill="#d1a32d" d="M34.742,26.816c-3.595-0.557-2.383,14.518-12.06,14.518c-5.294,0-8.015-4.383-8.015-8.333 C14.667,26.285,24,12.972,24,9.715c0-0.947-0.408-1.382-1.333-1.382c-0.955,0-2.572,1.333-5.667,1.333V7.434 c4.137,0,4.46-2.101,7.46-2.101c2.124,0,3.207,1.38,3.207,3.667c0,4.335-7.333,17.859-7.333,23.333c0,0.609,0.543,2.622,2.44,2.622 c2.784,0,2.45-3.152,4.647-8.715c1.629-4.125,4.079-5.948,3.158-7.358c1.959,0.111,6.673,8.456,6.355,9.486 C36.262,27.419,35.235,26.892,34.742,26.816z"/><path fill="#d2a42e" d="M34.726,26.76c-3.592-0.573-2.409,14.531-12.041,14.531c-5.276,0-7.975-4.376-7.975-8.291 c0-6.732,9.316-20.017,9.316-23.294c0-0.947-0.403-1.39-1.342-1.39c-0.955,0-2.589,1.342-5.684,1.342V7.445 c4.137,0,4.46-2.103,7.46-2.103c2.113,0,3.198,1.373,3.198,3.658c0,4.335-7.342,17.84-7.342,23.342 c0,0.609,0.551,2.639,2.457,2.639c2.796,0,2.47-3.165,4.66-8.731c1.627-4.136,4.077-5.948,3.157-7.357 c1.957,0.119,6.644,8.406,6.332,9.437C36.245,27.373,35.216,26.838,34.726,26.76z"/><path fill="#d2a52f" d="M34.709,26.704c-3.59-0.588-2.435,14.544-12.022,14.544c-5.257,0-7.935-4.37-7.935-8.248 c0-6.748,9.299-20.007,9.299-23.302c0-0.947-0.398-1.399-1.35-1.399c-0.955,0-2.606,1.35-5.701,1.35V7.456 c4.137,0,4.46-2.106,7.46-2.106c2.102,0,3.189,1.367,3.189,3.65c0,4.335-7.35,17.822-7.35,23.35c0,0.609,0.558,2.656,2.474,2.656 c2.807,0,2.491-3.179,4.674-8.748c1.626-4.148,4.074-5.949,3.156-7.356c1.955,0.127,6.616,8.356,6.308,9.389 C36.228,27.327,35.197,26.783,34.709,26.704z"/><path fill="#d3a530" d="M34.692,26.648c-3.587-0.603-2.461,14.558-12.002,14.558c-5.239,0-7.895-4.364-7.895-8.205 c0-6.765,9.282-19.997,9.282-23.311c0-0.947-0.394-1.407-1.359-1.407c-0.955,0-2.623,1.359-5.718,1.359V7.467 c4.137,0,4.46-2.108,7.46-2.108c2.092,0,3.181,1.36,3.181,3.641c0,4.335-7.359,17.803-7.359,23.359 c0,0.609,0.566,2.673,2.491,2.673c2.819,0,2.512-3.193,4.687-8.764c1.624-4.159,4.072-5.949,3.155-7.355 c1.953,0.135,6.587,8.306,6.285,9.34C36.212,27.281,35.177,26.729,34.692,26.648z"/><path fill="#d3a631" d="M34.676,26.592c-3.584-0.619-2.486,14.571-11.983,14.571c-5.22,0-7.855-4.358-7.855-8.162 c0-6.782,9.265-19.987,9.265-23.319c0-0.947-0.389-1.416-1.368-1.416c-0.955,0-2.64,1.368-5.735,1.368V7.478 c4.137,0,4.46-2.111,7.46-2.111c2.081,0,3.172,1.354,3.172,3.632c0,4.335-7.368,17.784-7.368,23.368c0,0.609,0.574,2.69,2.508,2.69 c2.831,0,2.532-3.206,4.7-8.781c1.622-4.17,4.07-5.95,3.154-7.354c1.951,0.143,6.558,8.255,6.262,9.292 C36.195,27.235,35.158,26.675,34.676,26.592z"/><path fill="#d4a732" d="M34.659,26.536c-3.582-0.635-2.512,14.584-11.964,14.584c-5.201,0-7.815-4.351-7.815-8.12 c0-6.799,9.248-19.976,9.248-23.328c0-0.947-0.384-1.424-1.376-1.424c-0.955,0-2.657,1.376-5.752,1.376V7.49 c4.137,0,4.46-2.114,7.46-2.114c2.07,0,3.164,1.348,3.164,3.624c0,4.335-7.376,17.766-7.376,23.376 c0,0.609,0.582,2.708,2.525,2.708c2.842,0,2.553-3.22,4.714-8.797c1.62-4.181,4.067-5.95,3.153-7.353 c1.95,0.151,6.53,8.205,6.238,9.243C36.178,27.189,35.139,26.621,34.659,26.536z"/><path fill="#d5a833" d="M34.642,26.48c-3.579-0.65-2.538,14.597-11.944,14.597c-5.183,0-7.775-4.345-7.775-8.077 c0-6.816,9.231-19.966,9.231-23.336c0-0.947-0.379-1.433-1.385-1.433c-0.955,0-2.674,1.385-5.769,1.385V7.501 c4.137,0,4.46-2.116,7.46-2.116c2.06,0,3.155,1.341,3.155,3.615c0,4.335-7.385,17.747-7.385,23.385c0,0.609,0.59,2.725,2.542,2.725 c2.854,0,2.574-3.234,4.727-8.813c1.618-4.192,4.065-5.95,3.152-7.352c1.948,0.158,6.501,8.155,6.215,9.195 C36.161,27.143,35.12,26.566,34.642,26.48z"/><path fill="#d5a834" d="M34.626,26.424c-3.577-0.666-2.564,14.611-11.925,14.611c-5.164,0-7.735-4.339-7.735-8.034 c0-6.832,9.214-19.956,9.214-23.345c0-0.947-0.375-1.442-1.393-1.442c-0.955,0-2.691,1.393-5.786,1.393V7.512 c4.137,0,4.46-2.119,7.46-2.119c2.049,0,3.147,1.335,3.147,3.607c0,4.335-7.393,17.728-7.393,23.393 c0,0.609,0.597,2.742,2.56,2.742c2.865,0,2.594-3.247,4.741-8.83c1.616-4.204,4.062-5.951,3.151-7.351 c1.946,0.166,6.473,8.104,6.192,9.147C36.144,27.097,35.1,26.512,34.626,26.424z"/><path fill="#d6a935" d="M34.609,26.367c-3.574-0.682-2.59,14.624-11.906,14.624c-5.146,0-7.695-4.333-7.695-7.991 c0-6.849,9.197-19.946,9.197-23.353c0-0.947-0.37-1.45-1.402-1.45c-0.955,0-2.708,1.402-5.803,1.402V7.523 c4.137,0,4.46-2.121,7.46-2.121c2.038,0,3.138,1.328,3.138,3.598c0,4.335-7.402,17.709-7.402,23.402 c0,0.609,0.605,2.759,2.577,2.759c2.877,0,2.615-3.261,4.754-8.846c1.614-4.215,4.06-5.951,3.15-7.35 c1.944,0.174,6.444,8.054,6.168,9.098C36.127,27.051,35.081,26.458,34.609,26.367z"/><path fill="#d6aa36" d="M34.592,26.311c-3.572-0.698-2.615,14.637-11.887,14.637c-5.127,0-7.655-4.326-7.655-7.949 c0-6.866,9.179-19.935,9.179-23.362c0-0.947-0.365-1.459-1.41-1.459c-0.955,0-2.726,1.41-5.821,1.41V7.534 c4.137,0,4.46-2.124,7.46-2.124c2.028,0,3.13,1.322,3.13,3.59c0,4.335-7.41,17.691-7.41,23.41c0,0.609,0.613,2.776,2.594,2.776 c2.888,0,2.636-3.275,4.767-8.862c1.612-4.226,4.057-5.952,3.149-7.348c1.942,0.182,6.415,8.004,6.145,9.05 C36.11,27.005,35.062,26.403,34.592,26.311z"/><path fill="#d7aa37" d="M34.576,26.255c-3.569-0.714-2.641,14.651-11.867,14.651c-5.109,0-7.614-4.32-7.614-7.906 c0-6.883,9.162-19.925,9.162-23.37c0-0.947-0.36-1.467-1.419-1.467c-0.955,0-2.743,1.419-5.838,1.419V7.545 c4.137,0,4.46-2.126,7.46-2.126c2.017,0,3.121,1.315,3.121,3.581c0,4.335-7.419,17.672-7.419,23.419 c0,0.609,0.621,2.793,2.611,2.793c2.9,0,2.656-3.288,4.781-8.879c1.61-4.237,4.055-5.952,3.148-7.347 c1.94,0.19,6.387,7.954,6.122,9.001C36.093,26.959,35.042,26.349,34.576,26.255z"/><path fill="#d7ab38" d="M34.559,26.199c-3.566-0.73-2.667,14.664-11.848,14.664c-5.09,0-7.574-4.314-7.574-7.863 c0-6.899,9.145-19.915,9.145-23.379c0-0.947-0.356-1.476-1.427-1.476c-0.955,0-2.76,1.427-5.855,1.427V7.556 c4.137,0,4.46-2.129,7.46-2.129c2.006,0,3.113,1.309,3.113,3.573c0,4.335-7.427,17.653-7.427,23.427c0,0.609,0.628,2.81,2.628,2.81 c2.911,0,2.677-3.302,4.794-8.895c1.608-4.249,4.052-5.952,3.147-7.346c1.938,0.198,6.358,7.903,6.098,8.953 C36.076,26.913,35.023,26.294,34.559,26.199z"/><path fill="#d8ac39" d="M34.542,26.143c-3.564-0.746-2.693,14.677-11.829,14.677c-5.071,0-7.534-4.308-7.534-7.821 c0-6.916,9.128-19.905,9.128-23.388c0-0.947-0.351-1.484-1.436-1.484c-0.955,0-2.777,1.436-5.872,1.436V7.568 c4.137,0,4.46-2.132,7.46-2.132c1.996,0,3.104,1.302,3.104,3.564c0,4.335-7.436,17.635-7.436,23.436 c0,0.609,0.636,2.827,2.645,2.827c2.923,0,2.697-3.316,4.807-8.911c1.606-4.26,4.05-5.953,3.146-7.345 c1.937,0.206,6.329,7.853,6.075,8.904C36.06,26.867,35.004,26.24,34.542,26.143z"/><path fill="#d9ac3a" d="M34.526,26.087c-3.561-0.762-2.718,14.69-11.809,14.69c-5.053,0-7.494-4.301-7.494-7.778 c0-6.933,9.111-19.894,9.111-23.396c0-0.947-0.346-1.493-1.444-1.493c-0.955,0-2.794,1.444-5.889,1.444V7.579 c4.137,0,4.46-2.134,7.46-2.134c1.985,0,3.095,1.296,3.095,3.556c0,4.335-7.444,17.616-7.444,23.444 c0,0.609,0.644,2.844,2.662,2.844c2.934,0,2.718-3.33,4.821-8.928c1.604-4.271,4.048-5.953,3.145-7.344 c1.935,0.214,6.301,7.803,6.052,8.856C36.043,26.821,34.984,26.186,34.526,26.087z"/><path fill="#d9ad3b" d="M34.509,26.031c-3.559-0.778-2.744,14.704-11.79,14.704c-5.034,0-7.454-4.295-7.454-7.735 c0-6.95,9.094-19.884,9.094-23.405c0-0.947-0.341-1.501-1.453-1.501c-0.955,0-2.811,1.453-5.906,1.453V7.59 c4.137,0,4.46-2.137,7.46-2.137c1.974,0,3.087,1.29,3.087,3.547c0,4.335-7.453,17.597-7.453,23.453 c0,0.609,0.652,2.861,2.679,2.861c2.946,0,2.738-3.343,4.834-8.944c1.602-4.282,4.045-5.954,3.144-7.343 c1.933,0.222,6.272,7.752,6.029,8.807C36.026,26.775,34.965,26.131,34.509,26.031z"/><path fill="#daae3c" d="M34.492,25.975c-3.556-0.795-2.77,14.717-11.771,14.717c-5.016,0-7.414-4.289-7.414-7.692 c0-6.967,9.077-19.874,9.077-23.413c0-0.947-0.337-1.51-1.462-1.51c-0.955,0-2.828,1.462-5.923,1.462V7.601 c4.137,0,4.46-2.139,7.46-2.139c1.964,0,3.078,1.283,3.078,3.538c0,4.335-7.462,17.578-7.462,23.462 c0,0.609,0.659,2.879,2.696,2.879c2.957,0,2.759-3.357,4.847-8.961c1.6-4.293,4.043-5.954,3.143-7.342 c1.931,0.229,6.243,7.702,6.005,8.759C36.009,26.729,34.946,26.077,34.492,25.975z"/><path fill="#daaf3d" d="M34.476,25.919c-3.553-0.811-2.796,14.73-11.752,14.73c-4.997,0-7.374-4.283-7.374-7.65 c0-6.983,9.06-19.864,9.06-23.422c0-0.947-0.332-1.518-1.47-1.518c-0.955,0-2.845,1.47-5.94,1.47V7.612 c4.137,0,4.46-2.142,7.46-2.142c1.953,0,3.07,1.277,3.07,3.53c0,4.335-7.47,17.56-7.47,23.47c0,0.609,0.667,2.896,2.713,2.896 c2.969,0,2.779-3.371,4.861-8.977c1.598-4.305,4.04-5.955,3.142-7.341c1.929,0.237,6.215,7.652,5.982,8.711 C35.992,26.683,34.927,26.022,34.476,25.919z"/><path fill="#dbaf3e" d="M34.459,25.863c-3.551-0.828-2.822,14.743-11.732,14.743c-4.979,0-7.334-4.276-7.334-7.607 c0-7,9.043-19.853,9.043-23.43c0-0.947-0.327-1.527-1.479-1.527c-0.955,0-2.862,1.479-5.957,1.479V7.623 c4.137,0,4.46-2.145,7.46-2.145c1.942,0,3.061,1.27,3.061,3.521c0,4.335-7.479,17.541-7.479,23.479c0,0.609,0.675,2.913,2.73,2.913 c2.98,0,2.8-3.385,4.874-8.993c1.596-4.316,4.038-5.955,3.141-7.34c1.927,0.245,6.186,7.601,5.959,8.662 C35.975,26.637,34.907,25.968,34.459,25.863z"/><path fill="#dcb03f" d="M34.442,25.807c-3.548-0.844-2.847,14.757-11.713,14.757c-4.96,0-7.294-4.27-7.294-7.564 c0-7.017,9.026-19.843,9.026-23.439c0-0.947-0.322-1.536-1.487-1.536c-0.955,0-2.879,1.487-5.974,1.487V7.634 c4.137,0,4.46-2.147,7.46-2.147c1.932,0,3.053,1.264,3.053,3.513c0,4.335-7.487,17.522-7.487,23.487c0,0.609,0.683,2.93,2.748,2.93 c2.992,0,2.82-3.398,4.887-9.01c1.594-4.327,4.035-5.955,3.14-7.339c1.926,0.253,6.157,7.551,5.935,8.614 C35.958,26.591,34.888,25.913,34.442,25.807z"/><path fill="#dcb140" d="M34.426,25.751c-3.546-0.861-2.873,14.77-11.694,14.77c-4.941,0-7.254-4.264-7.254-7.521 c0-7.034,9.009-19.833,9.009-23.447c0-0.947-0.318-1.544-1.496-1.544c-0.955,0-2.896,1.496-5.991,1.496V7.645 c4.137,0,4.46-2.15,7.46-2.15c1.921,0,3.044,1.257,3.044,3.504c0,4.335-7.496,17.504-7.496,23.496c0,0.609,0.691,2.947,2.765,2.947 c3.004,0,2.841-3.412,4.901-9.026c1.592-4.339,4.033-5.956,3.139-7.338c1.924,0.261,6.129,7.501,5.912,8.565 C35.941,26.545,34.869,25.859,34.426,25.751z"/><path fill="#ddb140" d="M34.409,25.695c-3.543-0.878-2.899,14.783-11.674,14.783c-4.923,0-7.213-4.258-7.213-7.479 c0-7.05,8.991-19.823,8.991-23.456c0-0.947-0.313-1.553-1.504-1.553c-0.955,0-2.914,1.504-6.009,1.504V7.657 c4.137,0,4.46-2.152,7.46-2.152c1.91,0,3.036,1.251,3.036,3.496c0,4.335-7.504,17.485-7.504,23.504 c0,0.609,0.698,2.964,2.782,2.964c3.015,0,2.861-3.426,4.914-9.042c1.59-4.35,4.031-5.956,3.138-7.337 c1.922,0.269,6.1,7.451,5.889,8.517C35.924,26.499,34.849,25.804,34.409,25.695z"/><path fill="#ddb241" d="M34.393,25.639c-3.54-0.895-2.925,14.797-11.655,14.797c-4.904,0-7.173-4.251-7.173-7.436 c0-7.067,8.974-19.812,8.974-23.464c0-0.947-0.308-1.561-1.513-1.561c-0.955,0-2.931,1.513-6.026,1.513v-1.82 c4.137,0,4.46-2.155,7.46-2.155c1.9,0,3.027,1.244,3.027,3.487c0,4.335-7.513,17.466-7.513,23.513c0,0.609,0.706,2.981,2.799,2.981 c3.027,0,2.882-3.44,4.928-9.059c1.588-4.361,4.028-5.957,3.137-7.336c1.92,0.277,6.072,7.4,5.865,8.468 C35.907,26.453,34.83,25.75,34.393,25.639z"/><path fill="#deb342" d="M34.376,25.583c-3.538-0.912-2.95,14.81-11.636,14.81c-4.886,0-7.133-4.245-7.133-7.393 c0-7.084,8.957-19.802,8.957-23.473c0-0.947-0.303-1.57-1.521-1.57c-0.955,0-2.948,1.521-6.043,1.521v-1.8 c4.137,0,4.46-2.157,7.46-2.157c1.889,0,3.019,1.238,3.019,3.479c0,4.335-7.521,17.447-7.521,23.521 c0,0.609,0.714,2.998,2.816,2.998c3.038,0,2.902-3.453,4.941-9.075c1.586-4.372,4.026-5.957,3.136-7.335 c1.918,0.285,6.043,7.35,5.842,8.42C35.891,26.407,34.811,25.695,34.376,25.583z"/><path fill="#dfb343" d="M34.359,25.527c-3.535-0.929-2.976,14.823-11.617,14.823c-4.867,0-7.093-4.239-7.093-7.35 c0-7.101,8.94-19.792,8.94-23.482c0-0.947-0.299-1.578-1.53-1.578c-0.955,0-2.965,1.53-6.06,1.53V7.69c4.137,0,4.46-2.16,7.46-2.16 c1.878,0,3.01,1.232,3.01,3.47c0,4.335-7.53,17.429-7.53,23.53c0,0.609,0.722,3.015,2.833,3.015c3.05,0,2.922-3.467,4.954-9.091 c1.584-4.384,4.023-5.957,3.135-7.334c1.916,0.292,6.014,7.3,5.819,8.371C35.874,26.361,34.792,25.641,34.359,25.527z"/><path fill="#dfb444" d="M34.343,25.471c-3.532-0.946-3.002,14.836-11.597,14.836c-4.849,0-7.053-4.233-7.053-7.308 c0-7.118,8.923-19.782,8.923-23.49c0-0.947-0.294-1.587-1.538-1.587c-0.955,0-2.982,1.538-6.077,1.538v-1.76 c4.137,0,4.46-2.163,7.46-2.163c1.868,0,3.001,1.225,3.001,3.462c0,4.335-7.538,17.41-7.538,23.538c0,0.609,0.729,3.032,2.85,3.032 c3.061,0,2.943-3.481,4.968-9.108c1.582-4.395,4.021-5.958,3.134-7.333c1.914,0.3,5.986,7.249,5.795,8.323 C35.857,26.315,34.772,25.586,34.343,25.471z"/><path fill="#e0b545" d="M34.326,25.415c-3.529-0.963-3.028,14.85-11.578,14.85c-4.83,0-7.013-4.226-7.013-7.265 c0-7.134,8.906-19.771,8.906-23.499c0-0.947-0.289-1.595-1.547-1.595c-0.955,0-2.999,1.547-6.094,1.547V7.712 c4.137,0,4.46-2.165,7.46-2.165c1.857,0,2.993,1.219,2.993,3.453c0,4.335-7.547,17.391-7.547,23.547 c0,0.609,0.737,3.049,2.867,3.049c3.073,0,2.963-3.495,4.981-9.124c1.579-4.406,4.018-5.958,3.133-7.332 c1.913,0.308,5.957,7.199,5.772,8.274C35.84,26.269,34.753,25.532,34.326,25.415z"/><path fill="#e0b646" d="M34.309,25.359c-3.527-0.98-3.054,14.863-11.559,14.863c-4.811,0-6.973-4.22-6.973-7.222 c0-7.151,8.889-19.761,8.889-23.507c0-0.947-0.284-1.604-1.556-1.604c-0.955,0-3.016,1.556-6.111,1.556V7.723 c4.137,0,4.46-2.168,7.46-2.168c1.846,0,2.984,1.212,2.984,3.444c0,4.335-7.556,17.373-7.556,23.556 c0,0.609,0.745,3.067,2.884,3.067c3.084,0,2.983-3.509,4.994-9.14c1.577-4.418,4.016-5.959,3.132-7.331 c1.911,0.316,5.928,7.149,5.749,8.226C35.823,26.223,34.734,25.477,34.309,25.359z"/><path fill="#e1b647" d="M34.293,25.303c-3.524-0.998-3.079,14.876-11.539,14.876c-4.793,0-6.933-4.214-6.933-7.179 c0-7.168,8.872-19.751,8.872-23.516c0-0.947-0.28-1.612-1.564-1.612c-0.955,0-3.033,1.564-6.128,1.564V7.734 c4.137,0,4.46-2.17,7.46-2.17c1.836,0,2.976,1.206,2.976,3.436c0,4.335-7.564,17.354-7.564,23.564c0,0.609,0.753,3.084,2.901,3.084 c3.096,0,3.004-3.522,5.008-9.157c1.575-4.429,4.014-5.959,3.131-7.33c1.909,0.324,5.9,7.099,5.726,8.178 C35.806,26.177,34.714,25.423,34.293,25.303z"/><path fill="#e2b748" d="M34.276,25.247c-3.521-1.015-3.105,14.889-11.52,14.889c-4.774,0-6.893-4.208-6.893-7.137 c0-7.185,8.855-19.741,8.855-23.524c0-0.947-0.275-1.621-1.573-1.621c-0.955,0-3.05,1.573-6.145,1.573V7.746 c4.137,0,4.46-2.173,7.46-2.173c1.825,0,2.967,1.199,2.967,3.427c0,4.335-7.573,17.335-7.573,23.573 c0,0.609,0.761,3.101,2.918,3.101c3.107,0,3.024-3.536,5.021-9.173c1.573-4.44,4.011-5.959,3.13-7.329 c1.907,0.332,5.871,7.048,5.702,8.129C35.789,26.132,34.695,25.368,34.276,25.247z"/><path fill="#e2b849" d="M34.259,25.191c-3.518-1.033-3.131,14.903-11.501,14.903c-4.756,0-6.853-4.201-6.853-7.094 c0-7.202,8.838-19.73,8.838-23.533c0-0.947-0.27-1.63-1.581-1.63c-0.955,0-3.067,1.581-6.162,1.581V7.757 c4.137,0,4.46-2.175,7.46-2.175c1.814,0,2.959,1.193,2.959,3.419c0,4.335-7.581,17.316-7.581,23.581 c0,0.609,0.768,3.118,2.936,3.118c3.119,0,3.044-3.55,5.034-9.19c1.571-4.452,4.009-5.96,3.129-7.328 c1.905,0.34,5.842,6.998,5.679,8.081C35.772,26.086,34.676,25.314,34.259,25.191z"/><path fill="#e3b84a" d="M34.243,25.135c-3.515-1.05-3.157,14.916-11.481,14.916c-4.737,0-6.812-4.195-6.812-7.051 c0-7.218,8.821-19.72,8.821-23.541c0-0.947-0.265-1.638-1.59-1.638c-0.955,0-3.085,1.59-6.179,1.59V7.768 c4.137,0,4.46-2.178,7.46-2.178c1.804,0,2.95,1.186,2.95,3.41c0,4.335-7.59,17.298-7.59,23.59c0,0.609,0.776,3.135,2.953,3.135 c3.13,0,3.065-3.564,5.048-9.206c1.569-4.463,4.006-5.96,3.128-7.327c1.903,0.348,5.814,6.948,5.656,8.032 C35.755,26.04,34.657,25.259,34.243,25.135z"/><path fill="#e3b94b" d="M34.226,25.079c-3.512-1.068-3.183,14.929-11.462,14.929c-4.719,0-6.772-4.189-6.772-7.009 c0-7.235,8.803-19.71,8.803-23.55c0-0.947-0.261-1.647-1.598-1.647c-0.955,0-3.102,1.598-6.197,1.598V7.779 c4.137,0,4.46-2.181,7.46-2.181c1.793,0,2.942,1.18,2.942,3.402c0,4.335-7.598,17.279-7.598,23.598c0,0.609,0.784,3.152,2.97,3.152 c3.142,0,3.085-3.578,5.061-9.222c1.566-4.474,4.004-5.961,3.127-7.326c1.902,0.356,5.785,6.897,5.632,7.984 C35.738,25.994,34.637,25.204,34.226,25.079z"/><path fill="#e4ba4c" d="M34.209,25.023c-3.51-1.086-3.208,14.943-11.443,14.943c-4.7,0-6.732-4.183-6.732-6.966 c0-7.252,8.786-19.7,8.786-23.558c0-0.947-0.256-1.655-1.607-1.655c-0.955,0-3.119,1.607-6.214,1.607V7.79 c4.137,0,4.46-2.183,7.46-2.183c1.782,0,2.933,1.174,2.933,3.393c0,4.335-7.607,17.26-7.607,23.607 c0,0.609,0.792,3.169,2.987,3.169c3.153,0,3.105-3.592,5.074-9.239c1.564-4.485,4.001-5.961,3.126-7.325 c1.9,0.363,5.757,6.847,5.609,7.935C35.722,25.948,34.618,25.15,34.209,25.023z"/><path fill="#e4ba4d" d="M34.193,24.967c-3.507-1.104-3.234,14.956-11.424,14.956c-4.681,0-6.692-4.176-6.692-6.923 c0-7.269,8.769-19.689,8.769-23.567c0-0.947-0.251-1.664-1.615-1.664c-0.955,0-3.136,1.615-6.231,1.615V7.801 c4.137,0,4.46-2.186,7.46-2.186c1.772,0,2.925,1.167,2.925,3.385c0,4.335-7.615,17.242-7.615,23.615 c0,0.609,0.799,3.186,3.004,3.186c3.165,0,3.125-3.605,5.088-9.255c1.562-4.497,3.999-5.961,3.125-7.324 c1.898,0.371,5.728,6.797,5.586,7.887C35.705,25.902,34.599,25.095,34.193,24.967z"/><path fill="#e5bb4e" d="M34.176,24.911c-3.504-1.122-3.26,14.969-11.404,14.969c-4.663,0-6.652-4.17-6.652-6.88 c0-7.285,8.752-19.679,8.752-23.576c0-0.947-0.246-1.672-1.624-1.672c-0.955,0-3.153,1.624-6.248,1.624V7.812 c4.137,0,4.46-2.188,7.46-2.188c1.761,0,2.916,1.161,2.916,3.376c0,4.335-7.624,17.223-7.624,23.624 c0,0.609,0.807,3.203,3.021,3.203c3.177,0,3.146-3.619,5.101-9.271c1.56-4.508,3.996-5.962,3.124-7.323 c1.896,0.379,5.699,6.747,5.562,7.838C35.688,25.856,34.58,25.04,34.176,24.911z"/><path fill="#e6bc4f" d="M34.159,24.855c-3.5-1.14-3.286,14.982-11.385,14.982c-4.644,0-6.612-4.164-6.612-6.838 c0-7.302,8.735-19.669,8.735-23.584c0-0.947-0.242-1.681-1.632-1.681c-0.955,0-3.17,1.632-6.265,1.632V7.823 c4.137,0,4.46-2.191,7.46-2.191c1.75,0,2.907,1.154,2.907,3.368c0,4.335-7.632,17.204-7.632,23.632c0,0.609,0.815,3.22,3.038,3.22 c3.188,0,3.166-3.633,5.115-9.288c1.557-4.519,3.994-5.962,3.123-7.322c1.894,0.387,5.671,6.696,5.539,7.79 C35.671,25.81,34.56,24.986,34.159,24.855z"/><path fill="#e6bd50" d="M34.143,24.799c-3.497-1.158-3.311,14.996-11.366,14.996c-4.626,0-6.572-4.158-6.572-6.795 c0-7.319,8.718-19.659,8.718-23.593c0-0.947-0.237-1.689-1.641-1.689c-0.955,0-3.187,1.641-6.282,1.641V7.835 c4.137,0,4.46-2.194,7.46-2.194c1.74,0,2.899,1.148,2.899,3.359c0,4.335-7.641,17.185-7.641,23.641 c0,0.609,0.823,3.237,3.055,3.237c3.2,0,3.186-3.647,5.128-9.304c1.555-4.531,3.992-5.963,3.122-7.321 c1.892,0.395,5.642,6.646,5.516,7.742C35.654,25.764,34.541,24.931,34.143,24.799z"/><path fill="#e7bd51" d="M34.126,24.743c-3.494-1.176-3.337,15.009-11.346,15.009c-4.607,0-6.532-4.151-6.532-6.752 c0-7.336,8.701-19.648,8.701-23.601c0-0.947-0.232-1.698-1.65-1.698c-0.955,0-3.204,1.65-6.299,1.65V7.846 c4.137,0,4.46-2.196,7.46-2.196c1.729,0,2.89,1.141,2.89,3.35c0,4.335-7.65,17.167-7.65,23.65c0,0.609,0.831,3.255,3.072,3.255 c3.211,0,3.206-3.661,5.141-9.32c1.553-4.542,3.989-5.963,3.121-7.32c1.891,0.403,5.613,6.596,5.492,7.693 C35.637,25.718,34.522,24.876,34.126,24.743z"/><path fill="#e7be52" d="M34.109,24.687c-3.491-1.195-3.363,15.022-11.327,15.022c-4.589,0-6.492-4.145-6.492-6.709 c0-7.353,8.684-19.638,8.684-23.61c0-0.947-0.227-1.706-1.658-1.706c-0.955,0-3.221,1.658-6.316,1.658V7.857 c4.137,0,4.46-2.199,7.46-2.199c1.718,0,2.882,1.135,2.882,3.342c0,4.335-7.658,17.148-7.658,23.658 c0,0.609,0.838,3.272,3.089,3.272c3.223,0,3.226-3.675,5.155-9.337c1.551-4.554,3.987-5.964,3.12-7.319 c1.889,0.411,5.585,6.545,5.469,7.645C35.62,25.672,34.503,24.822,34.109,24.687z"/><path fill="#e8bf53" d="M34.093,24.631c-3.488-1.213-3.389,15.036-11.308,15.036c-4.57,0-6.452-4.139-6.452-6.667 C16.333,25.631,25,13.372,25,9.382c0-0.947-0.223-1.715-1.667-1.715c-0.955,0-3.238,1.667-6.333,1.667V7.868 c4.137,0,4.46-2.201,7.46-2.201c1.707,0,2.873,1.129,2.873,3.333c0,4.335-7.667,17.129-7.667,23.667 c0,0.609,0.846,3.289,3.107,3.289c3.234,0,3.247-3.688,5.168-9.353c1.548-4.565,3.984-5.964,3.119-7.318 c1.887,0.419,5.556,6.495,5.446,7.596C35.603,25.626,34.483,24.767,34.093,24.631z"/><path fill="#e9bf54" d="M34.076,24.575c-3.485-1.232-3.415,15.049-11.289,15.049c-4.551,0-6.411-4.133-6.411-6.624 c0-7.386,8.65-19.617,8.65-23.627c0-0.947-0.218-1.724-1.675-1.724c-0.955,0-3.255,1.675-6.35,1.675V7.879 c4.137,0,4.46-2.204,7.46-2.204c1.697,0,2.865,1.122,2.865,3.325c0,4.335-7.675,17.111-7.675,23.675 c0,0.609,0.854,3.306,3.124,3.306c3.246,0,3.267-3.702,5.181-9.37c1.546-4.576,3.982-5.964,3.118-7.317 c1.885,0.426,5.527,6.445,5.423,7.548C35.586,25.58,34.464,24.712,34.076,24.575z"/><path fill="#e9c055" d="M34.059,24.519c-3.481-1.251-3.44,15.062-11.269,15.062c-4.533,0-6.371-4.126-6.371-6.581 c0-7.403,8.632-19.607,8.632-23.635c0-0.947-0.213-1.732-1.684-1.732c-0.955,0-3.273,1.684-6.368,1.684V7.89 c4.137,0,4.46-2.206,7.46-2.206c1.686,0,2.856,1.116,2.856,3.316c0,4.335-7.684,17.092-7.684,23.684 c0,0.609,0.862,3.323,3.141,3.323c3.257,0,3.287-3.716,5.195-9.386c1.544-4.588,3.979-5.965,3.117-7.316 c1.883,0.434,5.499,6.395,5.399,7.499C35.57,25.534,34.445,24.658,34.059,24.519z"/><path fill="#eac156" d="M34.043,24.463c-3.478-1.27-3.466,15.075-11.25,15.075c-4.514,0-6.331-4.12-6.331-6.538 c0-7.42,8.615-19.597,8.615-23.644c0-0.947-0.208-1.741-1.692-1.741c-0.955,0-3.29,1.692-6.385,1.692V7.901 c4.137,0,4.46-2.209,7.46-2.209c1.675,0,2.848,1.109,2.848,3.308c0,4.335-7.692,17.073-7.692,23.692c0,0.609,0.869,3.34,3.158,3.34 c3.269,0,3.307-3.73,5.208-9.402c1.541-4.599,3.977-5.965,3.116-7.315c1.881,0.442,5.47,6.344,5.376,7.451 C35.553,25.488,34.426,24.603,34.043,24.463z"/><path fill="#eac157" d="M34.026,24.407c-3.474-1.289-3.492,15.089-11.231,15.089c-4.496,0-6.291-4.114-6.291-6.496 c0-7.436,8.598-19.587,8.598-23.652c0-0.947-0.204-1.749-1.701-1.749c-0.955,0-3.307,1.701-6.402,1.701V7.912 c4.137,0,4.46-2.212,7.46-2.212c1.665,0,2.839,1.103,2.839,3.299c0,4.335-7.701,17.054-7.701,23.701 c0,0.609,0.877,3.357,3.175,3.357c3.28,0,3.327-3.744,5.221-9.419c1.539-4.61,3.975-5.966,3.115-7.314 c1.879,0.45,5.442,6.294,5.353,7.402C35.536,25.442,34.407,24.548,34.026,24.407z"/><path fill="#ebc258" d="M34.009,24.351c-3.471-1.308-3.518,15.102-11.211,15.102c-4.477,0-6.251-4.108-6.251-6.453 c0-7.453,8.581-19.576,8.581-23.661c0-0.947-0.199-1.758-1.709-1.758c-0.955,0-3.324,1.709-6.419,1.709V7.924 c4.137,0,4.46-2.214,7.46-2.214c1.654,0,2.83,1.096,2.83,3.291c0,4.335-7.709,17.036-7.709,23.709c0,0.609,0.885,3.374,3.192,3.374 c3.292,0,3.347-3.758,5.235-9.435c1.537-4.622,3.972-5.966,3.114-7.313c1.878,0.458,5.413,6.244,5.329,7.354 C35.519,25.396,34.387,24.494,34.009,24.351z"/><path fill="#ecc359" d="M33.993,24.295c-3.467-1.327-3.543,15.115-11.192,15.115c-4.459,0-6.211-4.101-6.211-6.41 c0-7.47,8.564-19.566,8.564-23.67c0-0.947-0.194-1.766-1.718-1.766c-0.955,0-3.341,1.718-6.436,1.718V7.935 c4.137,0,4.46-2.217,7.46-2.217c1.643,0,2.822,1.09,2.822,3.282c0,4.335-7.718,17.017-7.718,23.718 c0,0.609,0.893,3.391,3.209,3.391c3.303,0,3.367-3.772,5.248-9.451c1.534-4.633,3.97-5.966,3.113-7.312 c1.876,0.466,5.384,6.193,5.306,7.305C35.502,25.35,34.368,24.439,33.993,24.295z"/><path fill="#ecc45a" d="M33.976,24.239c-3.464-1.346-3.569,15.128-11.173,15.128c-4.44,0-6.171-4.095-6.171-6.368 c0-7.487,8.547-19.556,8.547-23.678c0-0.947-0.189-1.775-1.726-1.775c-0.955,0-3.358,1.726-6.453,1.726V7.946 c4.137,0,4.46-2.219,7.46-2.219c1.633,0,2.813,1.083,2.813,3.274c0,4.335-7.726,16.998-7.726,23.726 c0,0.609,0.901,3.408,3.226,3.408c3.315,0,3.387-3.786,5.261-9.468c1.532-4.644,3.967-5.967,3.112-7.311 c1.874,0.474,5.356,6.143,5.283,7.257C35.485,25.304,34.349,24.384,33.976,24.239z"/><path fill="#edc45b" d="M33.959,24.183c-3.46-1.365-3.595,15.142-11.154,15.142c-4.421,0-6.131-4.089-6.131-6.325 c0-7.504,8.53-19.546,8.53-23.687c0-0.947-0.185-1.783-1.735-1.783c-0.955,0-3.375,1.735-6.47,1.735V7.957 c4.137,0,4.46-2.222,7.46-2.222c1.622,0,2.805,1.077,2.805,3.265c0,4.335-7.735,16.98-7.735,23.735 c0,0.609,0.908,3.426,3.243,3.426c3.327,0,3.407-3.799,5.275-9.484c1.53-4.656,3.965-5.967,3.111-7.31 c1.872,0.482,5.327,6.093,5.259,7.209C35.468,25.258,34.33,24.329,33.959,24.183z"/><path fill="#edc55c" d="M33.943,24.127c-3.456-1.385-3.621,15.155-11.134,15.155c-4.403,0-6.091-4.083-6.091-6.282 c0-7.52,8.513-19.535,8.513-23.695c0-0.947-0.18-1.792-1.744-1.792c-0.955,0-3.392,1.744-6.487,1.744V7.968 c4.137,0,4.46-2.225,7.46-2.225c1.611,0,2.796,1.071,2.796,3.256c0,4.335-7.744,16.961-7.744,23.744 c0,0.609,0.916,3.443,3.26,3.443c3.338,0,3.427-3.813,5.288-9.5c1.527-4.667,3.962-5.968,3.11-7.309 c1.87,0.49,5.298,6.043,5.236,7.16C35.451,25.212,34.311,24.274,33.943,24.127z"/><path fill="#eec65d" d="M33.926,24.071c-3.453-1.404-3.647,15.168-11.115,15.168c-4.384,0-6.051-4.076-6.051-6.239 c0-7.537,8.496-19.525,8.496-23.704c0-0.947-0.175-1.801-1.752-1.801c-0.955,0-3.409,1.752-6.504,1.752V7.979 c4.137,0,4.46-2.227,7.46-2.227c1.601,0,2.788,1.064,2.788,3.248c0,4.335-7.752,16.942-7.752,23.752c0,0.609,0.924,3.46,3.277,3.46 c3.35,0,3.447-3.827,5.302-9.517c1.525-4.679,3.96-5.968,3.109-7.308c1.868,0.497,5.27,5.992,5.213,7.112 C35.434,25.166,34.292,24.22,33.926,24.071z"/><path fill="#eec65e" d="M33.91,24.015c-3.449-1.424-3.672,15.182-11.096,15.182c-4.366,0-6.01-4.07-6.01-6.197 c0-7.554,8.479-19.515,8.479-23.712c0-0.947-0.17-1.809-1.761-1.809c-0.955,0-3.426,1.761-6.521,1.761V7.99 c4.137,0,4.46-2.23,7.46-2.23c1.59,0,2.779,1.058,2.779,3.239c0,4.335-7.761,16.923-7.761,23.761c0,0.609,0.932,3.477,3.295,3.477 c3.361,0,3.467-3.841,5.315-9.533c1.522-4.69,3.958-5.968,3.108-7.307c1.867,0.505,5.241,5.942,5.19,7.063 C35.417,25.12,34.272,24.165,33.91,24.015z"/><path fill="#efc75f" d="M33.893,23.959c-3.445-1.444-3.698,15.195-11.076,15.195c-4.347,0-5.97-4.064-5.97-6.154 c0-7.571,8.462-19.505,8.462-23.721c0-0.947-0.166-1.818-1.769-1.818c-0.955,0-3.443,1.769-6.538,1.769V8.002 c4.137,0,4.46-2.232,7.46-2.232c1.579,0,2.771,1.051,2.771,3.231c0,4.335-7.769,16.905-7.769,23.769 c0,0.609,0.939,3.494,3.312,3.494c3.373,0,3.487-3.855,5.328-9.549c1.52-4.701,3.955-5.969,3.107-7.306 c1.865,0.513,5.212,5.892,5.166,7.015C35.401,25.074,34.253,24.11,33.893,23.959z"/><path fill="#f0c860" d="M33.876,23.903c-3.441-1.464-3.724,15.208-11.057,15.208c-4.329,0-5.93-4.058-5.93-6.111 c0-7.587,8.444-19.494,8.444-23.729c0-0.947-0.161-1.826-1.778-1.826c-0.955,0-3.461,1.778-6.556,1.778v-1.21 c4.137,0,4.46-2.235,7.46-2.235c1.569,0,2.762,1.045,2.762,3.222c0,4.335-7.778,16.886-7.778,23.778 c0,0.609,0.947,3.511,3.329,3.511c3.384,0,3.507-3.869,5.342-9.566c1.517-4.713,3.953-5.969,3.106-7.305 c1.863,0.521,5.184,5.841,5.143,6.966C35.384,25.028,34.234,24.055,33.876,23.903z"/><path fill="#f0c861" d="M33.86,23.847c-3.437-1.484-3.75,15.221-11.038,15.221c-4.31,0-5.89-4.051-5.89-6.068 c0-7.604,8.427-19.484,8.427-23.738c0-0.947-0.156-1.835-1.786-1.835c-0.955,0-3.478,1.786-6.573,1.786v-1.19 c4.137,0,4.46-2.237,7.46-2.237c1.558,0,2.754,1.038,2.754,3.214c0,4.335-7.786,16.867-7.786,23.786 c0,0.609,0.955,3.528,3.346,3.528c3.396,0,3.527-3.883,5.355-9.582c1.515-4.724,3.95-5.97,3.105-7.304 c1.861,0.529,5.155,5.791,5.12,6.918C35.367,24.982,34.215,24,33.86,23.847z"/><path fill="#f1c962" d="M33.843,23.791c-3.433-1.504-3.776,15.235-11.019,15.235c-4.291,0-5.85-4.045-5.85-6.026 c0-7.621,8.41-19.474,8.41-23.746c0-0.947-0.151-1.843-1.795-1.843c-0.955,0-3.495,1.795-6.59,1.795v-1.17 c4.137,0,4.46-2.24,7.46-2.24c1.547,0,2.745,1.032,2.745,3.205c0,4.335-7.795,16.849-7.795,23.795c0,0.609,0.963,3.545,3.363,3.545 c3.407,0,3.547-3.897,5.368-9.599c1.512-4.735,3.948-5.97,3.104-7.303c1.859,0.537,5.127,5.741,5.096,6.869 C35.35,24.936,34.196,23.946,33.843,23.791z"/><path fill="#f1ca63" d="M33.826,23.735c-3.428-1.524-3.801,15.248-10.999,15.248c-4.273,0-5.81-4.039-5.81-5.983 c0-7.638,8.393-19.464,8.393-23.755c0-0.947-0.147-1.852-1.803-1.852c-0.955,0-3.512,1.803-6.607,1.803V8.046 c4.137,0,4.46-2.243,7.46-2.243c1.537,0,2.736,1.025,2.736,3.197c0,4.335-7.803,16.83-7.803,23.803c0,0.609,0.971,3.562,3.38,3.562 c3.419,0,3.567-3.911,5.382-9.615c1.51-4.747,3.945-5.97,3.103-7.302c1.857,0.545,5.098,5.691,5.073,6.821 C35.333,24.89,34.177,23.891,33.826,23.735z"/><path fill="#f2cb64" d="M33.81,23.679c-3.424-1.545-3.827,15.261-10.98,15.261c-4.254,0-5.77-4.033-5.77-5.94 c0-7.655,8.376-19.453,8.376-23.764c0-0.947-0.142-1.86-1.812-1.86c-0.955,0-3.529,1.812-6.624,1.812V8.057 c4.137,0,4.46-2.245,7.46-2.245c1.526,0,2.728,1.019,2.728,3.188c0,4.335-7.812,16.811-7.812,23.812 c0,0.609,0.978,3.579,3.397,3.579c3.43,0,3.587-3.925,5.395-9.631c1.507-4.758,3.943-5.971,3.102-7.301 c1.855,0.553,5.069,5.64,5.05,6.772C35.316,24.844,34.158,23.836,33.81,23.679z"/><path fill="#f3cb65" d="M33.793,23.623c-3.42-1.565-3.853,15.274-10.961,15.274c-4.236,0-5.73-4.026-5.73-5.897 c0-7.671,8.359-19.443,8.359-23.772c0-0.947-0.137-1.869-1.821-1.869c-0.955,0-3.546,1.821-6.641,1.821V8.068 c4.137,0,4.46-2.248,7.46-2.248c1.515,0,2.719,1.013,2.719,3.179c0,4.335-7.821,16.792-7.821,23.821 c0,0.609,0.986,3.596,3.414,3.596c3.442,0,3.607-3.938,5.408-9.648c1.505-4.77,3.94-5.971,3.101-7.3 c1.854,0.56,5.041,5.59,5.026,6.724C35.299,24.798,34.138,23.781,33.793,23.623z"/><path fill="#f3cc66" d="M33.776,23.567c-3.415-1.586-3.879,15.288-10.941,15.288c-4.217,0-5.69-4.02-5.69-5.855 c0-7.688,8.342-19.433,8.342-23.781c0-0.947-0.133-1.877-1.829-1.877c-0.955,0-3.563,1.829-6.658,1.829V8.079 c4.137,0,4.46-2.25,7.46-2.25c1.505,0,2.711,1.006,2.711,3.171c0,4.335-7.829,16.774-7.829,23.829c0,0.609,0.994,3.614,3.431,3.614 c3.453,0,3.627-3.952,5.422-9.664c1.502-4.781,3.938-5.972,3.1-7.299c1.852,0.568,5.012,5.54,5.003,6.676 C35.282,24.752,34.119,23.726,33.776,23.567z"/><path fill="#f4cd67" d="M33.76,23.511c-3.41-1.606-3.904,15.301-10.922,15.301c-4.199,0-5.65-4.014-5.65-5.812 c0-7.705,8.325-19.423,8.325-23.789c0-0.947-0.128-1.886-1.838-1.886c-0.955,0-3.58,1.838-6.675,1.838V8.091 c4.137,0,4.46-2.253,7.46-2.253c1.494,0,2.702,1,2.702,3.162c0,4.335-7.838,16.755-7.838,23.838c0,0.609,1.002,3.631,3.448,3.631 c3.465,0,3.647-3.966,5.435-9.68c1.5-4.793,3.936-5.972,3.099-7.298c1.85,0.576,4.983,5.489,4.98,6.627 C35.265,24.706,34.1,23.671,33.76,23.511z"/><path fill="#f4cd68" d="M33.743,23.455c-3.406-1.627-3.93,15.314-10.903,15.314c-4.18,0-5.609-4.008-5.609-5.769 c0-7.722,8.308-19.412,8.308-23.798c0-0.947-0.123-1.895-1.846-1.895c-0.955,0-3.597,1.846-6.692,1.846V8.102 c4.137,0,4.46-2.256,7.46-2.256c1.483,0,2.694,0.993,2.694,3.154c0,4.335-7.846,16.736-7.846,23.846 c0,0.609,1.009,3.648,3.465,3.648c3.476,0,3.667-3.98,5.448-9.697c1.497-4.804,3.933-5.972,3.098-7.297 c1.848,0.584,4.955,5.439,4.956,6.579C35.249,24.66,34.081,23.617,33.743,23.455z"/><path fill="#f5ce69" d="M33.726,23.399c-3.401-1.648-3.956,15.328-10.883,15.328c-4.162,0-5.569-4.001-5.569-5.726 c0-7.738,8.291-19.402,8.291-23.806c0-0.947-0.118-1.903-1.855-1.903c-0.955,0-3.614,1.855-6.709,1.855V8.113 c4.137,0,4.46-2.258,7.46-2.258c1.473,0,2.685,0.987,2.685,3.145c0,4.335-7.855,16.718-7.855,23.855 c0,0.609,1.017,3.665,3.483,3.665c3.488,0,3.687-3.994,5.462-9.713c1.495-4.815,3.931-5.973,3.097-7.296 c1.846,0.592,4.926,5.389,4.933,6.53C35.232,24.615,34.062,23.562,33.726,23.399z"/><path fill="#f6cf6a" d="M33.71,23.343c-3.396-1.669-3.982,15.341-10.864,15.341c-4.143,0-5.529-3.995-5.529-5.684 c0-7.755,8.274-19.392,8.274-23.815c0-0.947-0.114-1.912-1.863-1.912c-0.955,0-3.632,1.863-6.726,1.863V8.124 c4.137,0,4.46-2.261,7.46-2.261c1.462,0,2.677,0.98,2.677,3.137c0,4.335-7.863,16.699-7.863,23.863c0,0.609,1.025,3.682,3.5,3.682 c3.5,0,3.695-4.012,5.475-9.729c1.482-4.83,3.928-5.973,3.096-7.295c1.844,0.6,4.897,5.338,4.91,6.482 C35.215,24.569,34.043,23.507,33.71,23.343z"/><path fill="#f6cf6b" d="M33.693,23.287c-3.391-1.69-4.008,15.354-10.845,15.354c-4.124,0-5.489-3.989-5.489-5.641 c0-7.772,8.256-19.382,8.256-23.823c0-0.947-0.109-1.92-1.872-1.92c-0.955,0-3.649,1.872-6.744,1.872V8.135 c4.137,0,4.46-2.263,7.46-2.263c1.451,0,2.668,0.974,2.668,3.128c0,4.335-7.872,16.68-7.872,23.872 c0,0.609,1.033,3.699,3.517,3.699c3.511,0,3.716-4.025,5.489-9.746c1.48-4.841,3.926-5.974,3.095-7.293 c1.843,0.608,4.869,5.288,4.887,6.433C35.198,24.523,34.024,23.452,33.693,23.287z"/><path fill="#f7d06c" d="M33.676,23.231c-3.386-1.711-4.033,15.367-10.826,15.367c-4.106,0-5.449-3.983-5.449-5.598 c0-7.789,8.239-19.371,8.239-23.832c0-0.947-0.104-1.929-1.88-1.929c-0.955,0-3.666,1.88-6.761,1.88V8.146 c4.137,0,4.46-2.266,7.46-2.266c1.441,0,2.66,0.967,2.66,3.12c0,4.335-7.88,16.661-7.88,23.88c0,0.609,1.041,3.716,3.534,3.716 c3.523,0,3.736-4.039,5.502-9.762c1.478-4.852,3.923-5.974,3.094-7.292c1.841,0.616,4.84,5.238,4.863,6.385 C35.181,24.477,34.005,23.397,33.676,23.231z"/><path fill="#f7d16d" d="M33.66,23.175c-3.381-1.733-4.059,15.381-10.806,15.381c-4.087,0-5.409-3.976-5.409-5.556 c0-7.806,8.222-19.361,8.222-23.841c0-0.947-0.099-1.937-1.889-1.937c-0.955,0-3.683,1.889-6.778,1.889V8.157 c4.137,0,4.46-2.268,7.46-2.268c1.43,0,2.651,0.961,2.651,3.111c0,4.335-7.889,16.643-7.889,23.889 c0,0.609,1.048,3.733,3.551,3.733c3.534,0,3.757-4.053,5.515-9.779c1.476-4.863,3.921-5.975,3.093-7.291 c1.839,0.624,4.811,5.188,4.84,6.336C35.164,24.431,33.986,23.342,33.66,23.175z"/><path fill="#f8d26e" d="M33.643,23.119c-3.375-1.754-4.085,15.394-10.787,15.394c-4.069,0-5.369-3.97-5.369-5.513 c0-7.822,8.205-19.351,8.205-23.849c0-0.947-0.095-1.946-1.897-1.946c-0.955,0-3.7,1.897-6.795,1.897V8.168 c4.137,0,4.46-2.271,7.46-2.271c1.419,0,2.642,0.955,2.642,3.103c0,4.335-7.897,16.624-7.897,23.897c0,0.609,1.056,3.75,3.568,3.75 c3.546,0,3.777-4.066,5.529-9.795c1.474-4.875,3.919-5.975,3.092-7.29c1.837,0.631,4.783,5.137,4.817,6.288 C35.147,24.385,33.967,23.287,33.643,23.119z"/><path fill="#f9d26f" d="M33.626,23.063c-3.37-1.776-4.111,15.407-10.768,15.407c-4.05,0-5.329-3.964-5.329-5.47 c0-7.839,8.188-19.341,8.188-23.858c0-0.947-0.09-1.954-1.906-1.954c-0.955,0-3.717,1.906-6.812,1.906V8.18 c4.137,0,4.46-2.274,7.46-2.274c1.409,0,2.634,0.948,2.634,3.094c0,4.335-7.906,16.605-7.906,23.906 c0,0.609,1.064,3.767,3.585,3.767c3.557,0,3.798-4.08,5.542-9.811c1.472-4.886,3.916-5.975,3.091-7.289 c1.835,0.639,4.754,5.087,4.793,6.24C35.13,24.339,33.948,23.232,33.626,23.063z"/><path fill="#f9d370" d="M33.61,23.007c-3.364-1.798-4.136,15.421-10.748,15.421c-4.032,0-5.289-3.958-5.289-5.427 c0-7.856,8.171-19.33,8.171-23.866c0-0.947-0.085-1.963-1.915-1.963c-0.955,0-3.734,1.915-6.829,1.915V8.191 c4.137,0,4.46-2.276,7.46-2.276c1.398,0,2.625,0.942,2.625,3.085c0,4.335-7.915,16.587-7.915,23.915 c0,0.609,1.072,3.784,3.602,3.784c3.569,0,3.818-4.094,5.555-9.828c1.47-4.897,3.914-5.976,3.09-7.288 c1.833,0.647,4.726,5.037,4.77,6.191C35.113,24.293,33.929,23.177,33.61,23.007z"/><path fill="#fad471" d="M33.593,22.951c-3.359-1.819-4.162,15.434-10.729,15.434c-4.013,0-5.249-3.951-5.249-5.385 c0-7.873,8.154-19.32,8.154-23.875c0-0.947-0.08-1.971-1.923-1.971c-0.955,0-3.751,1.923-6.846,1.923V8.202 c4.137,0,4.46-2.279,7.46-2.279c1.387,0,2.617,0.935,2.617,3.077c0,4.335-7.923,16.568-7.923,23.923 c0,0.609,1.079,3.802,3.619,3.802c3.58,0,3.838-4.108,5.569-9.844c1.468-4.908,3.911-5.976,3.089-7.287 c1.832,0.655,4.697,4.986,4.747,6.143C35.096,24.247,33.91,23.122,33.593,22.951z"/><path fill="#fad472" d="M33.576,22.895c-3.353-1.841-4.188,15.447-10.71,15.447c-3.994,0-5.208-3.945-5.208-5.342 c0-7.889,8.137-19.31,8.137-23.883c0-0.947-0.076-1.98-1.932-1.98c-0.955,0-3.768,1.932-6.863,1.932V8.213 c4.137,0,4.46-2.281,7.46-2.281c1.377,0,2.608,0.929,2.608,3.068c0,4.335-7.932,16.549-7.932,23.932 c0,0.609,1.087,3.819,3.636,3.819c3.592,0,3.859-4.121,5.582-9.86c1.466-4.92,3.909-5.977,3.088-7.286 c1.83,0.663,4.668,4.936,4.723,6.094C35.08,24.201,33.891,23.067,33.576,22.895z"/><path fill="#fbd573" d="M33.56,22.839c-3.347-1.863-4.214,15.46-10.691,15.46c-3.976,0-5.168-3.939-5.168-5.299 c0-7.906,8.12-19.3,8.12-23.892c0-0.947-0.071-1.989-1.94-1.989c-0.955,0-3.785,1.94-6.88,1.94V8.224 c4.137,0,4.46-2.284,7.46-2.284c1.366,0,2.6,0.922,2.6,3.06c0,4.335-7.94,16.53-7.94,23.94c0,0.609,1.095,3.836,3.654,3.836 c3.603,0,3.879-4.135,5.595-9.877c1.464-4.931,3.906-5.977,3.087-7.285c1.828,0.671,4.64,4.886,4.7,6.046 C35.063,24.155,33.872,23.013,33.56,22.839z"/><path fill="#fbd674" d="M33.543,22.783c-3.341-1.885-4.24,15.474-10.671,15.474c-3.957,0-5.128-3.933-5.128-5.256 c0-7.923,8.103-19.289,8.103-23.9c0-0.947-0.066-1.997-1.949-1.997c-0.955,0-3.802,1.949-6.897,1.949V8.235 c4.137,0,4.46-2.286,7.46-2.286c1.355,0,2.591,0.916,2.591,3.051c0,4.335-7.949,16.512-7.949,23.949 c0,0.609,1.103,3.853,3.671,3.853c3.615,0,3.9-4.149,5.609-9.893c1.462-4.942,3.904-5.977,3.086-7.284 c1.826,0.679,4.611,4.836,4.677,5.997C35.046,24.109,33.853,22.958,33.543,22.783z"/><path fill="#fcd675" d="M33.526,22.727c-3.335-1.908-4.265,15.487-10.652,15.487c-3.939,0-5.088-3.926-5.088-5.214 c0-7.94,8.085-19.279,8.085-23.909c0-0.947-0.061-2.006-1.957-2.006c-0.955,0-3.82,1.957-6.915,1.957V8.246 c4.137,0,4.46-2.289,7.46-2.289c1.345,0,2.583,0.909,2.583,3.043c0,4.335-7.957,16.493-7.957,23.957c0,0.609,1.11,3.87,3.688,3.87 c3.626,0,3.92-4.162,5.622-9.909c1.46-4.953,3.902-5.978,3.085-7.283c1.824,0.687,4.582,4.785,4.653,5.949 C35.029,24.063,33.834,22.903,33.526,22.727z"/><path fill="#fdd776" d="M33.51,22.671c-3.329-1.93-4.291,15.5-10.633,15.5c-3.92,0-5.048-3.92-5.048-5.171 c0-7.957,8.068-19.269,8.068-23.917c0-0.947-0.057-2.014-1.966-2.014c-0.955,0-3.837,1.966-6.932,1.966V8.257 c4.137,0,4.46-2.292,7.46-2.292c1.334,0,2.574,0.903,2.574,3.034c0,4.335-7.966,16.474-7.966,23.966 c0,0.609,1.118,3.887,3.705,3.887c3.638,0,3.941-4.176,5.636-9.926c1.457-4.965,3.899-5.978,3.084-7.282 c1.822,0.694,4.554,4.735,4.63,5.9C35.012,24.017,33.815,22.848,33.51,22.671z"/><path fill="#fdd877" d="M33.493,22.615c-3.322-1.953-4.317,15.513-10.613,15.513c-3.902,0-5.008-3.914-5.008-5.128 c0-7.973,8.051-19.259,8.051-23.926c0-0.947-0.052-2.023-1.974-2.023c-0.955,0-3.854,1.974-6.949,1.974V8.269 c4.137,0,4.46-2.294,7.46-2.294c1.323,0,2.566,0.897,2.566,3.026c0,4.335-7.974,16.456-7.974,23.974 c0,0.609,1.126,3.904,3.722,3.904c3.649,0,3.961-4.19,5.649-9.942c1.455-4.976,3.897-5.979,3.083-7.281 c1.82,0.702,4.525,4.685,4.607,5.852C34.995,23.971,33.796,22.793,33.493,22.615z"/><path fill="#fed978" d="M33.477,22.559c-3.316-1.975-4.343,15.527-10.594,15.527c-3.883,0-4.968-3.908-4.968-5.085 c0-7.99,8.034-19.248,8.034-23.935c0-0.947-0.047-2.031-1.983-2.031c-0.955,0-3.871,1.983-6.966,1.983V8.28 c4.137,0,4.46-2.297,7.46-2.297c1.313,0,2.557,0.89,2.557,3.017c0,4.335-7.983,16.437-7.983,23.983 c0,0.609,1.134,3.921,3.739,3.921c3.661,0,3.982-4.204,5.662-9.959c1.453-4.987,3.894-5.979,3.082-7.28 c1.819,0.71,4.496,4.634,4.584,5.803C34.978,23.925,33.777,22.738,33.477,22.559z"/><path fill="#fed979" d="M33.46,22.503c-3.306-2.003-4.369,15.54-10.575,15.54c-3.864,0-4.928-3.901-4.928-5.043 c0-8.007,8.017-19.238,8.017-23.943c0-0.947-0.042-2.04-1.991-2.04c-0.955,0-3.888,1.991-6.983,1.991V8.291 c4.137,0,4.46-2.299,7.46-2.299c1.302,0,2.548,0.884,2.548,3.009c0,4.335-7.991,16.418-7.991,23.991 c0,0.609,1.142,3.938,3.756,3.938c3.673,0,4.002-4.217,5.676-9.975c1.451-4.999,3.892-5.979,3.081-7.279 c1.817,0.718,4.468,4.584,4.56,5.755C34.961,23.879,33.758,22.682,33.46,22.503z"/><path fill="#ffda7a" d="M33.443,22.447C30.141,20.426,29.049,38,22.888,38C19.042,38,18,34.105,18,33 c0-8.024,8-19.228,8-23.952C26,8.102,25.962,7,24,7c-0.955,0-3.905,2-7,2V8.302C21.137,8.302,21.46,6,24.46,6 C25.751,6,27,6.877,27,9c0,4.335-8,16.399-8,24c0,0.609,1.149,3.955,3.773,3.955c3.684,0,4.023-4.231,5.689-9.991 c1.449-5.01,3.889-5.98,3.08-7.278c1.815,0.726,4.439,4.534,4.537,5.707C34.944,23.833,33.739,22.628,33.443,22.447z"/><linearGradient id="gquuw1RHW1JUoW3J1Wv38a" x1="15.5" x2="15.5" y1="10.016" y2="7.005" gradientUnits="userSpaceOnUse"><stop offset="0" stop-color="#202020"/><stop offset=".262" stop-color="#050505"/><stop offset=".632" stop-color="#4a4a4a"/><stop offset=".798" stop-color="#383838"/><stop offset="1" stop-color="#1c1c1c"/></linearGradient><rect width="3" height="3" x="14" y="7" fill="url(#gquuw1RHW1JUoW3J1Wv38a)"/><linearGradient id="gquuw1RHW1JUoW3J1Wv38b" x1="11.5" x2="11.5" y1="11.027" y2="6.008" gradientUnits="userSpaceOnUse"><stop offset="0" stop-color="#202020"/><stop offset=".262" stop-color="#050505"/><stop offset=".632" stop-color="#4a4a4a"/><stop offset=".798" stop-color="#383838"/><stop offset="1" stop-color="#1c1c1c"/></linearGradient><path fill="url(#gquuw1RHW1JUoW3J1Wv38b)" d="M15,7c0-0.552-0.448-1-1-1h-0.343c-1.061,0-2.078,0.421-2.828,1.172L8,10v1h6	c0.552,0,1-0.448,1-1V7z"/><linearGradient id="gquuw1RHW1JUoW3J1Wv38c" x1="28.395" x2="38.836" y1="18.443" y2="29.64" gradientUnits="userSpaceOnUse"><stop offset=".162" stop-color="#8c6500"/><stop offset=".278" stop-color="#f0c452"/><stop offset=".412" stop-color="#f0c452"/><stop offset=".692" stop-color="#9c7306"/><stop offset="1" stop-color="#d2a329"/></linearGradient><path fill="url(#gquuw1RHW1JUoW3J1Wv38c)" d="M36.291,26.7l-4.569-7.158c-0.64-0.687-1.211-1.102-1.626-1.062	c0.277,0.416,0.262,0.9,0.078,1.457l5.831,9.135c0.504,0.104,1.049,0.333,1.355,0.782C37.527,29.554,37.064,28.286,36.291,26.7z"/><linearGradient id="gquuw1RHW1JUoW3J1Wv38d" x1="30.043" x2="38.893" y1="16.442" y2="30.183" gradientUnits="userSpaceOnUse"><stop offset="0" stop-color="#cb9c23"/><stop offset=".216" stop-color="#ffda7a"/><stop offset=".367" stop-color="#ffda7a"/><stop offset=".694" stop-color="#ba8806"/><stop offset="1" stop-color="#d2a329"/></linearGradient><path fill="url(#gquuw1RHW1JUoW3J1Wv38d)" d="M29.903,18.194l7.455,11.679c0.325,0.509,1.002,0.659,1.511,0.334v0	c0.509-0.325,0.659-1.002,0.334-1.511l-7.455-11.679c-0.325-0.509-1.002-0.659-1.511-0.334l0,0	C29.728,17.008,29.578,17.685,29.903,18.194z"/><linearGradient id="gquuw1RHW1JUoW3J1Wv38e" x1="25.548" x2="29.596" y1="27.446" y2="29.62" gradientUnits="userSpaceOnUse"><stop offset="0" stop-color="#cb9c23"/><stop offset=".017" stop-color="#d0a432"/><stop offset=".07" stop-color="#debb5f"/><stop offset=".124" stop-color="#eacd85"/><stop offset=".177" stop-color="#f3dca2"/><stop offset=".23" stop-color="#fae7b6"/><stop offset=".282" stop-color="#feedc3"/><stop offset=".333" stop-color="#ffefc7"/><stop offset=".418" stop-color="#f9e2aa"/><stop offset=".602" stop-color="#e9c360"/><stop offset=".617" stop-color="#e8c05a"/><stop offset=".825" stop-color="#ba8806"/></linearGradient><path fill="url(#gquuw1RHW1JUoW3J1Wv38e)" d="M29.5,30c-0.075,0-0.151-0.017-0.223-0.053l-3.557-1.773c-0.247-0.123-0.348-0.423-0.224-0.67	c0.123-0.246,0.422-0.348,0.67-0.224l3.557,1.773c0.247,0.123,0.348,0.423,0.224,0.67C29.86,29.898,29.683,30,29.5,30z"/><linearGradient id="gquuw1RHW1JUoW3J1Wv38f" x1="20.916" x2="23.024" y1="17.599" y2="18.732" gradientUnits="userSpaceOnUse"><stop offset="0" stop-color="#cb9c23"/><stop offset=".017" stop-color="#d0a432"/><stop offset=".07" stop-color="#debb5f"/><stop offset=".124" stop-color="#eacd85"/><stop offset=".177" stop-color="#f3dca2"/><stop offset=".23" stop-color="#fae7b6"/><stop offset=".282" stop-color="#feedc3"/><stop offset=".333" stop-color="#ffefc7"/><stop offset=".418" stop-color="#f9e2aa"/><stop offset=".602" stop-color="#e9c360"/><stop offset=".617" stop-color="#e8c05a"/><stop offset=".825" stop-color="#ba8806"/></linearGradient><path fill="url(#gquuw1RHW1JUoW3J1Wv38f)" d="M22.759,19.061c-0.075,0-0.151-0.017-0.223-0.053l-1.424-0.707	c-0.247-0.123-0.348-0.423-0.224-0.67c0.123-0.246,0.422-0.348,0.67-0.224l1.424,0.707c0.247,0.123,0.348,0.423,0.224,0.67	C23.12,18.96,22.943,19.061,22.759,19.061z"/><linearGradient id="gquuw1RHW1JUoW3J1Wv38g" x1="19.24" x2="21.348" y1="21.459" y2="22.592" gradientUnits="userSpaceOnUse"><stop offset="0" stop-color="#cb9c23"/><stop offset=".017" stop-color="#d0a432"/><stop offset=".07" stop-color="#debb5f"/><stop offset=".124" stop-color="#eacd85"/><stop offset=".177" stop-color="#f3dca2"/><stop offset=".23" stop-color="#fae7b6"/><stop offset=".282" stop-color="#feedc3"/><stop offset=".333" stop-color="#ffefc7"/><stop offset=".418" stop-color="#f9e2aa"/><stop offset=".602" stop-color="#e9c360"/><stop offset=".617" stop-color="#e8c05a"/><stop offset=".825" stop-color="#ba8806"/></linearGradient><path fill="url(#gquuw1RHW1JUoW3J1Wv38g)" d="M21.084,22.921c-0.075,0-0.151-0.017-0.223-0.053l-1.424-0.707	c-0.247-0.123-0.348-0.423-0.224-0.67c0.123-0.246,0.422-0.348,0.67-0.224l1.424,0.707c0.247,0.123,0.348,0.423,0.224,0.67	C21.444,22.819,21.268,22.921,21.084,22.921z"/><linearGradient id="gquuw1RHW1JUoW3J1Wv38h" x1="17.501" x2="19.609" y1="25.298" y2="26.43" gradientUnits="userSpaceOnUse"><stop offset="0" stop-color="#cb9c23"/><stop offset=".017" stop-color="#d0a432"/><stop offset=".07" stop-color="#debb5f"/><stop offset=".124" stop-color="#eacd85"/><stop offset=".177" stop-color="#f3dca2"/><stop offset=".23" stop-color="#fae7b6"/><stop offset=".282" stop-color="#feedc3"/><stop offset=".333" stop-color="#ffefc7"/><stop offset=".418" stop-color="#f9e2aa"/><stop offset=".602" stop-color="#e9c360"/><stop offset=".617" stop-color="#e8c05a"/><stop offset=".825" stop-color="#ba8806"/></linearGradient><path fill="url(#gquuw1RHW1JUoW3J1Wv38h)" d="M19.345,26.76c-0.075,0-0.151-0.017-0.223-0.053L17.698,26	c-0.247-0.123-0.348-0.423-0.224-0.67c0.123-0.246,0.422-0.348,0.67-0.224l1.424,0.707c0.247,0.123,0.348,0.423,0.224,0.67	C19.705,26.658,19.529,26.76,19.345,26.76z"/><linearGradient id="gquuw1RHW1JUoW3J1Wv38i" x1="15.953" x2="18.061" y1="28.84" y2="29.972" gradientUnits="userSpaceOnUse"><stop offset="0" stop-color="#cb9c23"/><stop offset=".017" stop-color="#d0a432"/><stop offset=".07" stop-color="#debb5f"/><stop offset=".124" stop-color="#eacd85"/><stop offset=".177" stop-color="#f3dca2"/><stop offset=".23" stop-color="#fae7b6"/><stop offset=".282" stop-color="#feedc3"/><stop offset=".333" stop-color="#ffefc7"/><stop offset=".418" stop-color="#f9e2aa"/><stop offset=".602" stop-color="#e9c360"/><stop offset=".617" stop-color="#e8c05a"/><stop offset=".825" stop-color="#ba8806"/></linearGradient><path fill="url(#gquuw1RHW1JUoW3J1Wv38i)" d="M17.797,30.301c-0.075,0-0.151-0.017-0.223-0.053l-1.424-0.707	c-0.247-0.123-0.348-0.423-0.224-0.67c0.123-0.246,0.422-0.348,0.67-0.224l1.424,0.707c0.247,0.123,0.348,0.423,0.224,0.67	C18.157,30.2,17.98,30.301,17.797,30.301z"/><path fill="#ffe6a5" d="M14.836,30.104c0.002-0.075,0.02-0.15,0.058-0.221l6.545-14.077c0.129-0.244,0.431-0.338,0.675-0.209	c0.243,0.129,0.338,0.43,0.209,0.675l-6.545,14.077c-0.129,0.244-0.431,0.338-0.675,0.209	C14.929,30.467,14.832,30.288,14.836,30.104z"/><linearGradient id="gquuw1RHW1JUoW3J1Wv38j" x1="23.548" x2="27.596" y1="32.446" y2="34.62" gradientUnits="userSpaceOnUse"><stop offset="0" stop-color="#cb9c23"/><stop offset=".017" stop-color="#d0a432"/><stop offset=".07" stop-color="#debb5f"/><stop offset=".124" stop-color="#eacd85"/><stop offset=".177" stop-color="#f3dca2"/><stop offset=".23" stop-color="#fae7b6"/><stop offset=".282" stop-color="#feedc3"/><stop offset=".333" stop-color="#ffefc7"/><stop offset=".418" stop-color="#f9e2aa"/><stop offset=".602" stop-color="#e9c360"/><stop offset=".617" stop-color="#e8c05a"/><stop offset=".825" stop-color="#ba8806"/></linearGradient><path fill="url(#gquuw1RHW1JUoW3J1Wv38j)" d="M27.5,35c-0.075,0-0.151-0.017-0.223-0.053l-3.557-1.773	c-0.247-0.123-0.348-0.423-0.224-0.67c0.123-0.246,0.422-0.348,0.67-0.224l3.557,1.773c0.247,0.123,0.348,0.423,0.224,0.67	C27.86,34.898,27.683,35,27.5,35z"/><circle cx="29.5" cy="29.818" r="1.5" fill="#b88e21"/><circle cx="27.5" cy="34.818" r="1.5" fill="#b88e21"/><radialGradient id="gquuw1RHW1JUoW3J1Wv38k" cx="29.533" cy="30.985" r="2.975" gradientUnits="userSpaceOnUse"><stop offset=".006" stop-color="#ffe6a5"/><stop offset=".253" stop-color="#ffe7a7"/><stop offset=".39" stop-color="#ffe9af"/><stop offset=".5" stop-color="#ffecbd"/><stop offset=".589" stop-color="#fff1cf"/><stop offset=".713" stop-color="#fff3d5"/><stop offset=".879" stop-color="#fff8e6"/><stop offset="1" stop-color="#fffdf7"/></radialGradient><circle cx="29.5" cy="29.5" r="1.5" fill="url(#gquuw1RHW1JUoW3J1Wv38k)"/><radialGradient id="gquuw1RHW1JUoW3J1Wv38l" cx="27.533" cy="35.985" r="2.975" gradientUnits="userSpaceOnUse"><stop offset=".006" stop-color="#ffe6a5"/><stop offset=".253" stop-color="#ffe7a7"/><stop offset=".39" stop-color="#ffe9af"/><stop offset=".5" stop-color="#ffecbd"/><stop offset=".589" stop-color="#fff1cf"/><stop offset=".713" stop-color="#fff3d5"/><stop offset=".879" stop-color="#fff8e6"/><stop offset="1" stop-color="#fffdf7"/></radialGradient><circle cx="27.5" cy="34.5" r="1.5" fill="url(#gquuw1RHW1JUoW3J1Wv38l)"/><circle cx="18" cy="30.228" r="1" fill="#b88e21"/><circle cx="19.475" cy="26.643" r="1" fill="#b88e21"/><circle cx="21.136" cy="22.858" r="1" fill="#b88e21"/><circle cx="22.887" cy="19.016" r="1" fill="#b88e21"/><radialGradient id="gquuw1RHW1JUoW3J1Wv38m" cx="18.023" cy="30.86" r="1.983" gradientUnits="userSpaceOnUse"><stop offset=".006" stop-color="#ffe6a5"/><stop offset=".253" stop-color="#ffe7a7"/><stop offset=".39" stop-color="#ffe9af"/><stop offset=".5" stop-color="#ffecbd"/><stop offset=".589" stop-color="#fff1cf"/><stop offset=".713" stop-color="#fff3d5"/><stop offset=".879" stop-color="#fff8e6"/><stop offset="1" stop-color="#fffdf7"/></radialGradient><circle cx="18" cy="29.87" r="1" fill="url(#gquuw1RHW1JUoW3J1Wv38m)"/><radialGradient id="gquuw1RHW1JUoW3J1Wv38n" cx="19.497" cy="27.275" r="1.983" gradientUnits="userSpaceOnUse"><stop offset=".006" stop-color="#ffe6a5"/><stop offset=".253" stop-color="#ffe7a7"/><stop offset=".39" stop-color="#ffe9af"/><stop offset=".5" stop-color="#ffecbd"/><stop offset=".589" stop-color="#fff1cf"/><stop offset=".713" stop-color="#fff3d5"/><stop offset=".879" stop-color="#fff8e6"/><stop offset="1" stop-color="#fffdf7"/></radialGradient><circle cx="19.475" cy="26.285" r="1" fill="url(#gquuw1RHW1JUoW3J1Wv38n)"/><radialGradient id="gquuw1RHW1JUoW3J1Wv38o" cx="21.158" cy="23.491" r="1.983" gradientUnits="userSpaceOnUse"><stop offset=".006" stop-color="#ffe6a5"/><stop offset=".253" stop-color="#ffe7a7"/><stop offset=".39" stop-color="#ffe9af"/><stop offset=".5" stop-color="#ffecbd"/><stop offset=".589" stop-color="#fff1cf"/><stop offset=".713" stop-color="#fff3d5"/><stop offset=".879" stop-color="#fff8e6"/><stop offset="1" stop-color="#fffdf7"/></radialGradient><circle cx="21.136" cy="22.501" r="1" fill="url(#gquuw1RHW1JUoW3J1Wv38o)"/><radialGradient id="gquuw1RHW1JUoW3J1Wv38p" cx="22.909" cy="19.648" r="1.983" gradientUnits="userSpaceOnUse"><stop offset=".006" stop-color="#ffe6a5"/><stop offset=".253" stop-color="#ffe7a7"/><stop offset=".39" stop-color="#ffe9af"/><stop offset=".5" stop-color="#ffecbd"/><stop offset=".589" stop-color="#fff1cf"/><stop offset=".713" stop-color="#fff3d5"/><stop offset=".879" stop-color="#fff8e6"/><stop offset="1" stop-color="#fffdf7"/></radialGradient><circle cx="22.887" cy="18.658" r="1" fill="url(#gquuw1RHW1JUoW3J1Wv38p)"/></svg>