<svg xmlns="http://www.w3.org/2000/svg" viewBox="0 0 48 48"><circle cx="24.937" cy="21.54" r="7.708" fill="#210309"/><radialGradient id="uaYgQ2gx0Y8zYwgt0JStpa" cx="24.794" cy="22.475" r="21.002" gradientTransform="matrix(.983 0 0 .9561 .433 .955)" gradientUnits="userSpaceOnUse"><stop offset="0" stop-color="#7a0e1e"/><stop offset=".161" stop-color="#c71631"/><stop offset=".317" stop-color="#e85a8e"/><stop offset=".328" stop-color="#ea5d91"/><stop offset=".443" stop-color="#f974a8"/><stop offset=".515" stop-color="#ff7db1"/><stop offset=".684" stop-color="#ff91c0"/><stop offset="1" stop-color="#ffc0e3"/></radialGradient><path fill="url(#uaYgQ2gx0Y8zYwgt0JStpa)" d="M25.68,23.419c0.357,0.632,3.872,1.664,7.325,6.482c1.843,2.571,2.822,3.727,2.822,5.723	c0,2.686-2.822,7.883-9.906,7.883c-6.814,0-10.777-4.929-10.777-6.336c0-2.569,1.081-7.27,3.092-9.46	c1.865-2.03,6.032-3.027,6.007-4.604c-0.01-0.644-0.634-1.233-0.634-1.233l1.977-0.127C25.585,21.747,25.072,22.346,25.68,23.419z"/><radialGradient id="uaYgQ2gx0Y8zYwgt0JStpb" cx="24.794" cy="22.475" r="21.002" gradientTransform="matrix(.983 0 0 .9561 .433 .955)" gradientUnits="userSpaceOnUse"><stop offset=".147" stop-color="#590a16"/><stop offset=".259" stop-color="#b52339"/><stop offset=".395" stop-color="#e85a8e"/><stop offset=".401" stop-color="#ea5d91"/><stop offset=".471" stop-color="#f974a8"/><stop offset=".515" stop-color="#ff7db1"/><stop offset=".684" stop-color="#ff91c0"/><stop offset="1" stop-color="#ffc0e3"/></radialGradient><path fill="url(#uaYgQ2gx0Y8zYwgt0JStpb)" d="M25.68,23.419c0.357,0.632,3.872,1.664,7.325,6.482c1.843,2.571,2.822,3.727,2.822,5.723	c0,2.686-2.822,7.883-9.906,7.883c-6.814,0-10.777-4.929-10.777-6.336c0-2.569,1.081-7.27,3.092-9.46	c1.865-2.03,6.032-3.027,6.007-4.604c-0.01-0.644-0.634-1.233-0.634-1.233l1.977-0.127C25.585,21.747,25.072,22.346,25.68,23.419z"/><radialGradient id="uaYgQ2gx0Y8zYwgt0JStpc" cx="12.96" cy="26.729" r="11.723" gradientTransform="matrix(-.5405 .8414 -.615 -.3951 36.404 26.386)" gradientUnits="userSpaceOnUse"><stop offset=".734" stop-color="#750d1d" stop-opacity=".4"/><stop offset="1" stop-color="#750d1d" stop-opacity="0"/></radialGradient><path fill="url(#uaYgQ2gx0Y8zYwgt0JStpc)" d="M15.143,37.171c0-2.569,1.081-7.27,3.092-9.46c1.294-1.408,3.695-2.32,5.037-3.272	C21.774,29.989,21.074,32.758,15.143,37.171z"/><radialGradient id="uaYgQ2gx0Y8zYwgt0JStpd" cx="24.363" cy="22.048" r="20.501" gradientUnits="userSpaceOnUse"><stop offset=".147" stop-color="#590a16"/><stop offset=".259" stop-color="#b52339"/><stop offset=".395" stop-color="#e85a8e"/><stop offset=".401" stop-color="#ea5d91"/><stop offset=".471" stop-color="#f974a8"/><stop offset=".515" stop-color="#ff7db1"/><stop offset=".684" stop-color="#ff91c0"/><stop offset="1" stop-color="#ffc0e3"/></radialGradient><path fill="url(#uaYgQ2gx0Y8zYwgt0JStpd)" d="M22.969,22.648c-0.522,0.545-0.452,3.212-4.365,7.945c-2.089,2.526-3.201,3.823-5.212,4.382	c-2.707,0.753-7.536-0.332-9.196-5.278C1.99,23.125,4.97,18.604,6.387,18.21c2.589-0.72,7.578-0.918,10.823,0.199	c2.858,0.984,4.504,3.19,6.101,2.778c1.597-0.412,1.357-0.474,1.357-0.474l0.379,1.821C25.046,22.534,23.823,21.757,22.969,22.648z"/><radialGradient id="uaYgQ2gx0Y8zYwgt0JStpe" cx="14.59" cy="16.324" r="8.958" gradientTransform="matrix(.9945 .1048 -.059 .5602 1.044 5.65)" gradientUnits="userSpaceOnUse"><stop offset=".734" stop-color="#750d1d" stop-opacity=".4"/><stop offset="1" stop-color="#750d1d" stop-opacity="0"/></radialGradient><path fill="url(#uaYgQ2gx0Y8zYwgt0JStpe)" d="M6.387,18.21c2.589-0.72,7.578-0.918,10.823,0.199c1.429,0.492,2.555,1.29,3.523,1.913	C18.28,22.241,11.46,22.821,6.387,18.21z"/><radialGradient id="uaYgQ2gx0Y8zYwgt0JStpf" cx="24.104" cy="21.724" r="20.037" gradientUnits="userSpaceOnUse"><stop offset=".147" stop-color="#590a16"/><stop offset=".259" stop-color="#b52339"/><stop offset=".395" stop-color="#e85a8e"/><stop offset=".401" stop-color="#ea5d91"/><stop offset=".471" stop-color="#f974a8"/><stop offset=".515" stop-color="#ff7db1"/><stop offset=".684" stop-color="#ff91c0"/><stop offset="1" stop-color="#ffc0e3"/></radialGradient><path fill="url(#uaYgQ2gx0Y8zYwgt0JStpf)" d="M22.854,20.24c-1.507-0.582-1.08,0.238-7.243,0.001c-3.099-0.119-5.653-2.285-7.152-3.409	C6.076,15.045,6.546,9.1,10.82,6.796c5.483-2.956,9.776-2.366,10.537-1.287c1.39,1.97,2.891,6.102,2.929,9.061	c0.034,2.607-0.339,4.782,0.155,5.618c0.265,0.448,0.998,0.611,0.998,0.611L23.912,22C23.912,22,23.902,20.645,22.854,20.24z"/><radialGradient id="uaYgQ2gx0Y8zYwgt0JStpg" cx="26.649" cy="12.021" r="9.1" gradientTransform="matrix(.3299 .944 -.5918 .2068 24.972 -15.622)" gradientUnits="userSpaceOnUse"><stop offset=".734" stop-color="#750d1d" stop-opacity=".4"/><stop offset="1" stop-color="#750d1d" stop-opacity="0"/></radialGradient><path fill="url(#uaYgQ2gx0Y8zYwgt0JStpg)" d="M21.357,5.509c1.39,1.97,2.891,6.102,2.929,9.061c0.017,1.304-0.068,2.499-0.095,3.473	C23.505,17.936,17.41,11.647,21.357,5.509z"/><radialGradient id="uaYgQ2gx0Y8zYwgt0JStph" cx="25.327" cy="20.775" r="17.313" gradientUnits="userSpaceOnUse"><stop offset=".147" stop-color="#590a16"/><stop offset=".259" stop-color="#b52339"/><stop offset=".395" stop-color="#e85a8e"/><stop offset=".401" stop-color="#ea5d91"/><stop offset=".471" stop-color="#f974a8"/><stop offset=".515" stop-color="#ff7db1"/><stop offset=".684" stop-color="#ff91c0"/><stop offset="1" stop-color="#ffc0e3"/></radialGradient><path fill="url(#uaYgQ2gx0Y8zYwgt0JStph)" d="M25.043,19.686c0.111-2.347-0.725-1.257-2.344-7.208c-0.814-2.993,0.543-4.981,0.44-7.376	c-0.04-0.928,8.163-2.101,11.792,1.419c4.611,4.473,5.296,6.735,4.495,7.783c-1.464,1.916-4.974,4.098-7.786,5.021	c-2.478,0.813-4.891,0.875-5.541,1.597c-0.348,0.387-0.989,1.1-0.989,1.1l-1.08-0.794C24.029,21.228,24.982,20.964,25.043,19.686z"/><radialGradient id="uaYgQ2gx0Y8zYwgt0JStpi" cx="34.957" cy="20.829" r="8.854" gradientTransform="matrix(.8376 -.5463 .329 .5045 -1.176 29.418)" gradientUnits="userSpaceOnUse"><stop offset=".734" stop-color="#750d1d" stop-opacity=".4"/><stop offset="1" stop-color="#750d1d" stop-opacity="0"/></radialGradient><path fill="url(#uaYgQ2gx0Y8zYwgt0JStpi)" d="M39.425,14.304c-1.464,1.916-4.974,4.098-7.786,5.021c-1.032,0.338-2.052,0.547-2.939,0.727	C29.932,15.01,38.857,13.529,39.425,14.304z"/><radialGradient id="uaYgQ2gx0Y8zYwgt0JStpj" cx="25.166" cy="21.734" r="19.359" gradientUnits="userSpaceOnUse"><stop offset=".147" stop-color="#590a16"/><stop offset=".259" stop-color="#b52339"/><stop offset=".395" stop-color="#e85a8e"/><stop offset=".401" stop-color="#ea5d91"/><stop offset=".471" stop-color="#f974a8"/><stop offset=".515" stop-color="#ff7db1"/><stop offset=".684" stop-color="#ff91c0"/><stop offset="1" stop-color="#ffc0e3"/></radialGradient><path fill="url(#uaYgQ2gx0Y8zYwgt0JStpj)" d="M40.299,15.643c-1.501-0.038-3.574-0.556-7.459,1.931c-2.638,1.688-3.723,3.006-4.85,3.57	c-0.83,0.416-1.569,0.041-1.914-0.197c-0.142,0.158-0.324,0.36-0.495,0.55l-0.103,0.257l0.107-0.007c0,0-0.09,0.113-0.15,0.318	c0.204,0.106,0.858,0.445,1.245,0.646c0.519,0.27,0.969,1.223,1.55,2.414c1.348,0.94,3.068,2.395,4.774,4.775	c1.05,1.466,1.809,2.469,2.277,3.433c0.396,0.246,0.784,0.466,1.148,0.619c1.216,0.513,6.426,0.003,7.638-6.306	C45.557,19.898,41.228,15.666,40.299,15.643z"/><radialGradient id="uaYgQ2gx0Y8zYwgt0JStpk" cx="29.179" cy="30.955" r="8.686" gradientTransform="matrix(.6177 .7864 -.4912 .3858 26.359 -3.935)" gradientUnits="userSpaceOnUse"><stop offset=".734" stop-color="#750d1d" stop-opacity=".4"/><stop offset="1" stop-color="#750d1d" stop-opacity="0"/></radialGradient><path fill="url(#uaYgQ2gx0Y8zYwgt0JStpk)" d="M27.432,23.573c0.25,0.421,0.508,0.957,0.799,1.552c1.348,0.94,3.068,2.395,4.774,4.775	c1.05,1.466,1.809,2.469,2.277,3.433c0.396,0.246,0.784,0.466,1.148,0.619C36.872,33.445,34.279,23.831,27.432,23.573z"/><radialGradient id="uaYgQ2gx0Y8zYwgt0JStpl" cx="22.657" cy="19.909" r="14.158" gradientTransform="matrix(1.0088 .1186 .1186 1.0897 -2.903 -4.74)" gradientUnits="userSpaceOnUse"><stop offset="0" stop-color="#170306" stop-opacity=".2"/><stop offset=".376" stop-color="#37060e" stop-opacity=".125"/><stop offset="1" stop-color="#750d1d" stop-opacity="0"/></radialGradient><path fill="url(#uaYgQ2gx0Y8zYwgt0JStpl)" d="M22.994,20.152c-0.751-0.715-3.513-1.16-6.631-2.087c-0.124-0.037-4.08-0.401-4.204-0.439	c-0.216-0.066,3.399,0.192,3.181,0.12c-2.126-0.696-4.331-1.645-6.117-3.072c-0.149-0.119,2.167,1.906,8.265,3.473	c0.17,0.044-2.273-1.935-2.097-1.892c0.201,0.049,3.02,2.119,3.229,2.167c0.813,0.187,1.685,0.364,2.619,0.526	c-0.193-0.214-1.621-1.317-3.632-2.832c-0.099-0.075-4.87-1.94-4.971-2.016c-0.128-0.096,4.162,1.416,4.032,1.319	c-3.153-2.371-6.77-5.06-6.756-5.104c0.032-0.096,2.097,1.41,3.586,2.492c0.119,0.086-1.939-2.783-1.816-2.693	c0.105,0.077,2.57,3.152,2.678,3.232c3.04,2.231,6.004,4.577,6.482,4.926c1.144,0.878,1.618,0.749,1.416,0.524	c-0.521-0.41-1.631-1.567-2.923-2.985c-0.069-0.076-4.079-2.833-4.149-2.911c-0.103-0.113,3.734,2.453,3.629,2.337	c-2.904-3.221-6.421-7.372-6.356-7.409c0.038-0.021,3.515,3.913,5.114,5.703c0.064,0.071-2.556-4.698-2.491-4.625	c0.058,0.065,3.077,5.264,3.136,5.33c2.533,2.834,3.265,3.61,4.27,4.433c-0.555-0.975-1.241-2.23-1.953-3.555	c-0.049-0.092-2.316-2.253-2.366-2.346c-0.082-0.153,2.053,1.762,1.971,1.608c-1.757-3.292-3.545-6.776-3.789-7.382	c0.048-0.002,1.415,2.486,2.747,4.926c0.045,0.082-1.007-4.549-0.962-4.466c0.056,0.102,1.458,5.141,1.514,5.244	c1.692,3.1,3.082,5.881,3.19,5.858c0.117-0.025-0.082-0.513-0.781-3.076c-0.016-0.057-1.821-3.243-1.836-3.3	c-0.032-0.119,1.6,2.477,1.568,2.358c-0.452-1.669-1.606-6.751-1.756-7.658c-0.022-0.135,0.758,3.063,1.323,5.147	c0.024,0.087,0.086-2.228,0.11-2.139c0.022,0.079,0.142,2.98,0.164,3.061c0.868,3.185,2.015,6.852,2.482,7.581	c0.259,0.404,0.313,1.011,0.313,1.011s-0.47,0.361-0.47,0.36C23.805,21.263,23.462,20.597,22.994,20.152z"/><radialGradient id="uaYgQ2gx0Y8zYwgt0JStpm" cx="22.657" cy="19.909" r="14.158" gradientTransform="matrix(.4687 -.9012 1.0609 .2755 -9.935 37.564)" gradientUnits="userSpaceOnUse"><stop offset="0" stop-color="#170306" stop-opacity=".2"/><stop offset=".376" stop-color="#37060e" stop-opacity=".125"/><stop offset="1" stop-color="#750d1d" stop-opacity="0"/></radialGradient><path fill="url(#uaYgQ2gx0Y8zYwgt0JStpm)" d="M22.522,22.177c-0.935,0.448-2.33,2.873-4.303,5.46c-0.078,0.102-1.822,3.672-1.902,3.775	c-0.139,0.178,1.385-3.11,1.241-2.932c-1.405,1.741-3.074,3.466-5.041,4.63c-0.164,0.097,2.55-1.351,6.179-6.496	c0.101-0.143-2.615,1.439-2.513,1.29c0.117-0.17,3.052-2.073,3.171-2.251c0.463-0.694,0.938-1.447,1.421-2.262	c-0.268,0.104-1.806,1.049-3.936,2.392c-0.105,0.066-3.541,3.866-3.648,3.933c-0.135,0.085,2.8-3.389,2.663-3.302	c-3.335,2.108-7.132,4.536-7.168,4.507c-0.079-0.064,2.062-1.461,3.602-2.469c0.123-0.08-3.29,0.826-3.162,0.743	c0.109-0.071,3.859-1.285,3.971-1.358c3.164-2.052,6.409-3.991,6.904-4.314c1.227-0.758,1.274-1.248,0.992-1.138	c-0.568,0.342-2.044,0.969-3.828,1.674c-0.096,0.038-4.096,2.809-4.193,2.847c-0.142,0.056,3.618-2.621,3.473-2.565	c-4.041,1.573-9.17,3.389-9.181,3.316c-0.007-0.043,4.905-1.899,7.146-2.759c0.089-0.034-5.299,0.724-5.208,0.689	c0.081-0.031,6.014-1.011,6.096-1.042c3.548-1.363,4.533-1.773,5.659-2.42c-1.109,0.173-2.525,0.37-4.016,0.565	c-0.104,0.014-2.928,1.367-3.032,1.38c-0.172,0.022,2.376-1.295,2.202-1.272c-3.701,0.475-7.593,0.912-8.246,0.924	c0.015-0.046,2.827-0.442,5.58-0.821c0.093-0.013-4.611-0.672-4.517-0.685c0.116-0.016,5.324,0.46,5.44,0.444	c3.499-0.483,6.592-0.796,6.609-0.905c0.018-0.118-0.509-0.105-3.153-0.36c-0.059-0.006-3.678,0.552-3.736,0.547	c-0.122-0.012,2.883-0.618,2.761-0.63c-1.721-0.17-6.882-0.893-7.783-1.074c-0.134-0.027,3.132,0.378,5.281,0.588	c0.09,0.009-2.052-0.87-1.961-0.861c0.082,0.008,2.837,0.924,2.92,0.932c3.286,0.317,7.122,0.546,7.968,0.368	c0.47-0.099,1.056,0.066,1.056,0.066s0.17,0.567,0.17,0.567C23.849,21.813,23.105,21.897,22.522,22.177z"/><radialGradient id="uaYgQ2gx0Y8zYwgt0JStpn" cx="21.628" cy="19.739" r="14.158" gradientTransform="matrix(-.7532 -.6815 .5351 -.9567 31.01 58.699)" gradientUnits="userSpaceOnUse"><stop offset="0" stop-color="#170306" stop-opacity=".2"/><stop offset=".376" stop-color="#37060e" stop-opacity=".125"/><stop offset="1" stop-color="#750d1d" stop-opacity="0"/></radialGradient><path fill="url(#uaYgQ2gx0Y8zYwgt0JStpn)" d="M25.022,24.268c0.197,1.018,2.19,2.982,4.193,5.544c0.079,0.102,3.092,2.692,3.171,2.795	c0.137,0.179-2.659-2.127-2.523-1.943c1.329,1.8,2.575,3.851,3.204,6.049c0.052,0.183-0.661-2.809-4.721-7.622	c-0.113-0.134,0.73,2.894,0.612,2.757c-0.135-0.156-1.233-3.478-1.375-3.638c-0.554-0.623-1.162-1.273-1.829-1.947	c0.033,0.286,0.558,2.013,1.318,4.413c0.038,0.118,2.844,4.404,2.882,4.525c0.048,0.152-2.57-3.566-2.521-3.412	c1.195,3.76,2.583,8.048,2.546,8.075c-0.082,0.06-0.891-2.365-1.477-4.109c-0.047-0.139-0.033,3.392-0.082,3.247	c-0.041-0.124-0.266-4.058-0.308-4.186c-1.184-3.58-2.239-7.21-2.426-7.771c-0.423-1.379-0.885-1.548-0.85-1.248	c0.187,0.636,0.42,2.222,0.651,4.127c0.012,0.102,1.681,4.673,1.693,4.777c0.018,0.152-1.62-4.163-1.602-4.009	c0.499,4.308,0.958,9.73,0.884,9.722c-0.043-0.005-0.596-5.226-0.861-7.612c-0.011-0.095-0.641,5.31-0.651,5.213	c-0.01-0.086,0.544-6.074,0.535-6.161c-0.421-3.778-0.567-4.834-0.909-6.088c-0.114,1.116-0.281,2.536-0.47,4.028	c-0.013,0.104,0.581,3.179,0.568,3.283c-0.022,0.172-0.651-2.626-0.674-2.453c-0.477,3.701-1.039,7.576-1.193,8.211	c-0.04-0.026,0.288-2.846,0.618-5.607c0.011-0.093-1.817,4.29-1.806,4.197c0.014-0.116,1.793-5.034,1.807-5.151	c0.418-3.507,0.899-6.579,0.797-6.623c-0.11-0.047-0.23,0.466-1.147,2.959c-0.02,0.055-0.396,3.698-0.417,3.753	c-0.043,0.115,0.132-2.946,0.089-2.831c-0.6,1.622-2.605,6.432-3.009,7.258c-0.06,0.123,1.158-2.935,1.906-4.96	c0.031-0.085-1.361,1.765-1.33,1.679c0.028-0.077,1.612-2.511,1.641-2.589c1.139-3.099,2.331-6.752,2.373-7.616	c0.023-0.479,0.331-1.005,0.331-1.005s0.592-0.021,0.592-0.021C25.006,22.892,24.899,23.633,25.022,24.268z"/><radialGradient id="uaYgQ2gx0Y8zYwgt0JStpo" cx="22.461" cy="19.7" r="14.158" gradientTransform="matrix(-.8843 .4999 -.7391 -.8095 61.992 27.073)" gradientUnits="userSpaceOnUse"><stop offset="0" stop-color="#170306" stop-opacity=".2"/><stop offset=".376" stop-color="#37060e" stop-opacity=".125"/><stop offset="1" stop-color="#750d1d" stop-opacity="0"/></radialGradient><path fill="url(#uaYgQ2gx0Y8zYwgt0JStpo)" d="M26.723,22.344c1.028,0.134,3.52-1.138,6.584-2.231c0.121-0.043,3.53-2.085,3.653-2.128	c0.213-0.074-2.857,1.852-2.639,1.781c2.127-0.693,4.467-1.229,6.751-1.133c0.19,0.008-2.874-0.258-8.722,2.076	c-0.163,0.065,2.977,0.22,2.81,0.289c-0.191,0.079-3.689,0.073-3.886,0.158c-0.766,0.329-1.575,0.701-2.425,1.121	c0.282,0.059,2.086,0.106,4.603,0.141c0.124,0.002,5.076-1.309,5.202-1.308c0.16,0.002-4.195,1.314-4.033,1.316	c3.945,0.052,8.452,0.086,8.466,0.131c0.031,0.097-2.525,0.1-4.366,0.105c-0.147,0,3.208,1.101,3.056,1.102	c-0.13,0-3.935-1.027-4.069-1.027c-3.771-0.006-7.549-0.15-8.139-0.149c-1.442-0.034-1.748,0.351-1.452,0.413	c0.662,0.023,2.241,0.302,4.121,0.684c0.101,0.02,4.965-0.121,5.068-0.1c0.15,0.031-4.462,0.225-4.309,0.256	c4.246,0.885,9.535,2.159,9.504,2.227c-0.018,0.039-5.147-1.083-7.495-1.584c-0.094-0.02,4.837,2.282,4.742,2.262	c-0.085-0.018-5.592-2.432-5.678-2.45c-3.717-0.792-4.767-0.986-6.064-1.058c1.023,0.46,2.318,1.067,3.675,1.716	c0.094,0.045,3.2,0.451,3.295,0.497c0.156,0.075-2.697-0.21-2.54-0.134c3.362,1.62,6.862,3.376,7.416,3.721	c-0.037,0.03-2.61-1.171-5.126-2.354c-0.085-0.04,3.499,3.077,3.413,3.037c-0.106-0.05-4.212-3.289-4.318-3.339	c-3.196-1.503-5.959-2.927-6.033-2.845c-0.08,0.089,0.369,0.365,2.447,2.021c0.046,0.037,3.384,1.542,3.43,1.579	c0.096,0.077-2.754-1.054-2.658-0.977c1.35,1.081,5.282,4.501,5.939,5.144c0.098,0.096-2.42-2.025-4.106-3.373	c-0.07-0.056,1.246,1.849,1.174,1.791c-0.064-0.051-1.874-2.322-1.939-2.374c-2.581-2.058-5.672-4.341-6.479-4.654	c-0.447-0.173-0.849-0.631-0.849-0.631s0.166-0.568,0.167-0.568C25.412,21.925,26.081,22.26,26.723,22.344z"/><radialGradient id="uaYgQ2gx0Y8zYwgt0JStpp" cx="22.634" cy="19.86" r="14.158" gradientTransform="matrix(.2686 .9796 -.9656 .5188 38.922 -12.517)" gradientUnits="userSpaceOnUse"><stop offset="0" stop-color="#170306" stop-opacity=".2"/><stop offset=".376" stop-color="#37060e" stop-opacity=".125"/><stop offset="1" stop-color="#750d1d" stop-opacity="0"/></radialGradient><path fill="url(#uaYgQ2gx0Y8zYwgt0JStpp)" d="M25.607,20.779c0.381-0.964-0.243-3.692-0.554-6.929c-0.012-0.128-1.159-3.932-1.17-4.062	c-0.019-0.225,1.098,3.223,1.082,2.994c-0.152-2.232-0.1-4.632,0.552-6.823c0.054-0.183-0.953,2.724-0.118,8.964	c0.023,0.174,0.94-2.833,0.967-2.654c0.03,0.205-0.831,3.595-0.797,3.806c0.132,0.823,0.295,1.698,0.495,2.625	c0.126-0.259,0.612-1.997,1.262-4.429c0.032-0.12-0.029-5.242,0.004-5.364c0.041-0.155,0.249,4.389,0.29,4.232	c1.014-3.812,2.15-8.174,2.196-8.177c0.101-0.007-0.52,2.473-0.965,4.259c-0.035,0.142,1.852-2.842,1.815-2.694	c-0.032,0.126-1.958,3.565-1.991,3.695c-0.927,3.655-1.99,7.283-2.134,7.856c-0.385,1.39-0.087,1.781,0.045,1.509	c0.184-0.637,0.841-2.1,1.671-3.829c0.045-0.093,1.096-4.844,1.141-4.938c0.066-0.137-0.873,4.381-0.805,4.241	c1.896-3.901,4.424-8.718,4.483-8.672c0.034,0.027-2.308,4.726-3.368,6.88c-0.042,0.086,3.395-4.132,3.353-4.045	c-0.038,0.078-3.725,4.828-3.764,4.907c-1.677,3.411-2.121,4.381-2.508,5.621c0.696-0.88,1.601-1.987,2.562-3.144	c0.067-0.08,1.22-2.992,1.287-3.073c0.111-0.133-0.863,2.564-0.751,2.43c2.392-2.864,4.951-5.829,5.421-6.282	c0.02,0.044-1.774,2.245-3.536,4.395c-0.059,0.073,3.839-2.64,3.779-2.567c-0.074,0.09-4.219,3.28-4.293,3.371	c-2.238,2.732-4.295,5.063-4.233,5.155c0.067,0.099,0.445-0.269,2.558-1.878c0.047-0.036,2.323-2.904,2.37-2.94	c0.098-0.074-1.695,2.413-1.597,2.339c1.378-1.045,5.655-4.021,6.44-4.501c0.117-0.071-2.555,1.852-4.274,3.157	c-0.072,0.055,2.097-0.756,2.024-0.701c-0.065,0.05-2.709,1.25-2.776,1.3c-2.626,2-5.596,4.439-6.096,5.145	c-0.277,0.391-0.82,0.669-0.82,0.669s-0.511-0.3-0.51-0.3C24.881,21.948,25.369,21.38,25.607,20.779z"/><radialGradient id="uaYgQ2gx0Y8zYwgt0JStpq" cx="24.531" cy="21.904" r="14.909" gradientTransform="rotate(-17.554 25.217 22.067)" gradientUnits="userSpaceOnUse"><stop offset="0" stop-color="#ad4555"/><stop offset=".129" stop-color="#c75667"/><stop offset=".21" stop-color="#d07b6d"/><stop offset=".304" stop-color="#d99e73"/><stop offset=".403" stop-color="#e0bb78"/><stop offset=".509" stop-color="#e6d17b"/><stop offset=".624" stop-color="#eae17e"/><stop offset=".754" stop-color="#ecea80"/><stop offset=".934" stop-color="#eded80"/></radialGradient><path fill="url(#uaYgQ2gx0Y8zYwgt0JStpq)" d="M24.116,20.892c0.256-0.352,0.634-0.965,1.299-1.712c2.385-2.676,3.82-5.127,4.006-5.464	c0.186-0.337-0.526-1.525-0.526-1.525l0.579-0.227c0,0,0.347,1.142,0.492,1.164c0.144,0.023,0.935-1.419,0.935-1.419l0.593,0.1	c0,0-1.22,1.687-1.156,1.845c0.064,0.158,1.779-0.878,1.779-0.878l0.137,0.434c0,0-1.678,0.64-2.147,1.243	c-0.469,0.603-3.652,5.51-4.165,6.727c-0.259,0.615-0.865,1.185-1.41,0.929C23.988,21.853,23.86,21.244,24.116,20.892z"/><radialGradient id="uaYgQ2gx0Y8zYwgt0JStpr" cx="29" cy="16" r="1" gradientUnits="userSpaceOnUse"><stop offset="0" stop-color="#f0af13"/><stop offset=".496" stop-color="#ffd226"/><stop offset=".603" stop-color="#ffd32b" stop-opacity=".789"/><stop offset=".736" stop-color="#ffd63b" stop-opacity=".525"/><stop offset=".882" stop-color="#ffdc54" stop-opacity=".235"/><stop offset="1" stop-color="#ffe16e" stop-opacity="0"/></radialGradient><circle cx="29" cy="16" r="1" fill="url(#uaYgQ2gx0Y8zYwgt0JStpr)"/><radialGradient id="uaYgQ2gx0Y8zYwgt0JStps" cx="31" cy="15" r="1" gradientUnits="userSpaceOnUse"><stop offset="0" stop-color="#f0af13"/><stop offset=".496" stop-color="#ffd226"/><stop offset=".603" stop-color="#ffd32b" stop-opacity=".789"/><stop offset=".736" stop-color="#ffd63b" stop-opacity=".525"/><stop offset=".882" stop-color="#ffdc54" stop-opacity=".235"/><stop offset="1" stop-color="#ffe16e" stop-opacity="0"/></radialGradient><circle cx="31" cy="15" r="1" fill="url(#uaYgQ2gx0Y8zYwgt0JStps)"/><radialGradient id="uaYgQ2gx0Y8zYwgt0JStpt" cx="29" cy="14" r="1" gradientUnits="userSpaceOnUse"><stop offset="0" stop-color="#f0af13"/><stop offset=".496" stop-color="#ffd226"/><stop offset=".603" stop-color="#ffd32b" stop-opacity=".789"/><stop offset=".736" stop-color="#ffd63b" stop-opacity=".525"/><stop offset=".882" stop-color="#ffdc54" stop-opacity=".235"/><stop offset="1" stop-color="#ffe16e" stop-opacity="0"/></radialGradient><circle cx="29" cy="14" r="1" fill="url(#uaYgQ2gx0Y8zYwgt0JStpt)"/><radialGradient id="uaYgQ2gx0Y8zYwgt0JStpu" cx="29" cy="12" r="1" gradientUnits="userSpaceOnUse"><stop offset="0" stop-color="#f0af13"/><stop offset=".496" stop-color="#ffd226"/><stop offset=".603" stop-color="#ffd32b" stop-opacity=".789"/><stop offset=".736" stop-color="#ffd63b" stop-opacity=".525"/><stop offset=".882" stop-color="#ffdc54" stop-opacity=".235"/><stop offset="1" stop-color="#ffe16e" stop-opacity="0"/></radialGradient><circle cx="29" cy="12" r="1" fill="url(#uaYgQ2gx0Y8zYwgt0JStpu)"/><radialGradient id="uaYgQ2gx0Y8zYwgt0JStpv" cx="31" cy="12" r="1" gradientUnits="userSpaceOnUse"><stop offset="0" stop-color="#f0af13"/><stop offset=".496" stop-color="#ffd226"/><stop offset=".603" stop-color="#ffd32b" stop-opacity=".789"/><stop offset=".736" stop-color="#ffd63b" stop-opacity=".525"/><stop offset=".882" stop-color="#ffdc54" stop-opacity=".235"/><stop offset="1" stop-color="#ffe16e" stop-opacity="0"/></radialGradient><circle cx="31" cy="12" r="1" fill="url(#uaYgQ2gx0Y8zYwgt0JStpv)"/><radialGradient id="uaYgQ2gx0Y8zYwgt0JStpw" cx="32" cy="13" r="1" gradientUnits="userSpaceOnUse"><stop offset="0" stop-color="#f0af13"/><stop offset=".496" stop-color="#ffd226"/><stop offset=".603" stop-color="#ffd32b" stop-opacity=".789"/><stop offset=".736" stop-color="#ffd63b" stop-opacity=".525"/><stop offset=".882" stop-color="#ffdc54" stop-opacity=".235"/><stop offset="1" stop-color="#ffe16e" stop-opacity="0"/></radialGradient><circle cx="32" cy="13" r="1" fill="url(#uaYgQ2gx0Y8zYwgt0JStpw)"/><radialGradient id="uaYgQ2gx0Y8zYwgt0JStpx" cx="30" cy="13" r="1" gradientUnits="userSpaceOnUse"><stop offset="0" stop-color="#f0af13"/><stop offset=".496" stop-color="#ffd226"/><stop offset=".603" stop-color="#ffd32b" stop-opacity=".789"/><stop offset=".736" stop-color="#ffd63b" stop-opacity=".525"/><stop offset=".882" stop-color="#ffdc54" stop-opacity=".235"/><stop offset="1" stop-color="#ffe16e" stop-opacity="0"/></radialGradient><circle cx="30" cy="13" r="1" fill="url(#uaYgQ2gx0Y8zYwgt0JStpx)"/><radialGradient id="uaYgQ2gx0Y8zYwgt0JStpy" cx="28" cy="15" r="1" gradientUnits="userSpaceOnUse"><stop offset="0" stop-color="#f0af13"/><stop offset=".496" stop-color="#ffd226"/><stop offset=".603" stop-color="#ffd32b" stop-opacity=".789"/><stop offset=".736" stop-color="#ffd63b" stop-opacity=".525"/><stop offset=".882" stop-color="#ffdc54" stop-opacity=".235"/><stop offset="1" stop-color="#ffe16e" stop-opacity="0"/></radialGradient><circle cx="28" cy="15" r="1" fill="url(#uaYgQ2gx0Y8zYwgt0JStpy)"/></svg>