<svg xmlns="http://www.w3.org/2000/svg" viewBox="0 0 48 48"><radialGradient id="pxxy3250imXxDzkEANATQa" cx="56.165" cy="8.457" r="13.758" gradientTransform="matrix(-.9778 .1024 .0979 .9344 60.923 -2.423)" gradientUnits="userSpaceOnUse"><stop offset=".004" stop-color="#ff2a14"/><stop offset=".261" stop-color="#e62110"/><stop offset=".802" stop-color="#a70904"/><stop offset=".995" stop-color="#8f0000"/></radialGradient><path fill="url(#pxxy3250imXxDzkEANATQa)" d="M17.919,18.429c0.681-0.969-1.509-6.625-1.843-7.49c-0.334-0.865-1.723-1.751-2.712-1.909	s-2.601,1.08-3.479,1.114c-0.878,0.034-3.063-0.38-2.862,0.354s2.39,4.139,3.927,4.879C12.487,16.116,17.258,19.37,17.919,18.429z"/><linearGradient id="pxxy3250imXxDzkEANATQb" x1="23.831" x2="23.831" y1="38.131" y2="44.799" gradientUnits="userSpaceOnUse"><stop offset="0"/><stop offset=".474" stop-color="#2f4909"/><stop offset="1" stop-color="#66981f"/></linearGradient><path fill="url(#pxxy3250imXxDzkEANATQb)" d="M22.989,45h3.272c-0.48-5.167,1.957-4.402,2.723-6.142c0.766-1.74-0.07-3.202-2.019-2.994	s-6.057,0.418-7.24,1.323s-1.632,1.451-1.114,2.228C19.863,41.294,22.37,40.181,22.989,45z"/><radialGradient id="pxxy3250imXxDzkEANATQc" cx="26.445" cy="35.661" r="25.614" gradientTransform="matrix(.8396 0 0 1 3.846 0)" gradientUnits="userSpaceOnUse"><stop offset=".11" stop-color="#203008"/><stop offset=".16" stop-color="#2b4308"/><stop offset=".261" stop-color="#48740a"/><stop offset=".362" stop-color="#68ab0b"/><stop offset=".406" stop-color="#87c329"/><stop offset=".467" stop-color="#aee04e"/><stop offset=".499" stop-color="#bdeb5c"/><stop offset=".552" stop-color="#b2e351"/><stop offset=".825" stop-color="#7dbb1f"/><stop offset=".958" stop-color="#68ab0b"/></radialGradient><path fill="url(#pxxy3250imXxDzkEANATQc)" d="M23.971,37.953c0,0,1.901,2.712,3.565,2.924c4.384,0.557,6.445-2.311,8.79-2.166	C38.478,38.844,40,39.998,40,39.998s-0.652-1.97-3.386-2.795s-4.811,1.725-6.74,0.611C27.945,36.7,26.425,35.099,23.971,37.953z"/><linearGradient id="pxxy3250imXxDzkEANATQd" x1="25.831" x2="29.544" y1="37.115" y2="47.68" gradientUnits="userSpaceOnUse"><stop offset=".11" stop-color="#203008"/><stop offset=".16" stop-color="#2b4308"/><stop offset=".261" stop-color="#48740a"/><stop offset=".362" stop-color="#68ab0b"/><stop offset=".406" stop-color="#87c329"/><stop offset=".467" stop-color="#aee04e"/><stop offset=".499" stop-color="#bdeb5c"/><stop offset=".552" stop-color="#b2e351"/><stop offset=".825" stop-color="#7dbb1f"/><stop offset=".958" stop-color="#68ab0b"/></linearGradient><path fill="url(#pxxy3250imXxDzkEANATQd)" d="M21.81,37.06c0,0,0.749,2.749,1.423,3.459c1.774,1.87,5.994,0.757,6.789,1.712	c0.76,0.912,0.684,2.737,0.684,2.737s0.815-1.782,0.684-3.498s-5.587-1.796-5.627-3.194C25.724,36.879,25.505,36.013,21.81,37.06z"/><radialGradient id="pxxy3250imXxDzkEANATQe" cx="22.639" cy="35.335" r="25.257" gradientTransform="matrix(.8356 0 0 1 3.829 0)" gradientUnits="userSpaceOnUse"><stop offset=".11" stop-color="#203008"/><stop offset=".16" stop-color="#2b4308"/><stop offset=".261" stop-color="#48740a"/><stop offset=".362" stop-color="#68ab0b"/><stop offset=".406" stop-color="#87c329"/><stop offset=".467" stop-color="#aee04e"/><stop offset=".499" stop-color="#bdeb5c"/><stop offset=".552" stop-color="#b2e351"/><stop offset=".825" stop-color="#7dbb1f"/><stop offset=".958" stop-color="#68ab0b"/></radialGradient><path fill="url(#pxxy3250imXxDzkEANATQe)" d="M23.297,37.953c0,0-1.892,2.712-3.549,2.924c-4.363,0.557-7.278-2.638-9.345-2.019	C8.542,39.414,8,42,8,42s-0.354-3.306,2.09-4.628c2.443-1.323,5.443,1.312,7.363,0.198S20.853,35.099,23.297,37.953z"/><radialGradient id="pxxy3250imXxDzkEANATQf" cx="24.003" cy="11.723" r="7.156" gradientTransform="matrix(.1149 -.9934 1.342 .1553 5.512 33.746)" gradientUnits="userSpaceOnUse"><stop offset="0" stop-color="#8f0000"/><stop offset=".158" stop-color="#990402"/><stop offset=".425" stop-color="#b30e06"/><stop offset=".766" stop-color="#de1e0e"/><stop offset="1" stop-color="#ff2a14"/></radialGradient><path fill="url(#pxxy3250imXxDzkEANATQf)" d="M17.861,7.999c0.035-1.318,1.084-1.912,2.202-2.312c2.035-0.728,4.628-1.014,7.302-0.173	c1.21,0.38,4.916,1.76,3.658,3.876s-4.569,4.837-6.455,4.323C22.682,13.199,17.819,9.571,17.861,7.999z"/><radialGradient id="pxxy3250imXxDzkEANATQg" cx="34.469" cy="10.291" r="12.495" gradientTransform="rotate(1.827 8.53 49.408) scale(.9831)" gradientUnits="userSpaceOnUse"><stop offset=".004" stop-color="#ff2a14"/><stop offset=".261" stop-color="#e62110"/><stop offset=".802" stop-color="#a70904"/><stop offset=".995" stop-color="#8f0000"/></radialGradient><path fill="url(#pxxy3250imXxDzkEANATQg)" d="M34.445,13.253c-0.748-0.959-9.621-2.795-9.349-3.724c0.272-0.929,2.237-3.573,7.583-3.463	c1.914,0.039,3.587,1.025,4.465,0.992s3.986,0.248,3.838,1.029c-0.148,0.782-2.546,4.266-4.026,5.156	C35.475,14.133,35.171,14.184,34.445,13.253z"/><radialGradient id="pxxy3250imXxDzkEANATQh" cx="13.221" cy="9.912" r="12.712" gradientTransform="matrix(.9827 -.0293 .0293 .9827 -.74 1.357)" gradientUnits="userSpaceOnUse"><stop offset=".004" stop-color="#ff2a14"/><stop offset=".261" stop-color="#e62110"/><stop offset=".802" stop-color="#a70904"/><stop offset=".995" stop-color="#8f0000"/></radialGradient><path fill="url(#pxxy3250imXxDzkEANATQh)" d="M22.54,13.693c0.334-1.887-1.551-7.393-4.884-7.596s-5.639-0.467-5.455,0.647	s2.485,7.275,4.062,8.437S22.126,16.034,22.54,13.693z"/><radialGradient id="pxxy3250imXxDzkEANATQi" cx="28.855" cy="15.426" r="9.487" gradientTransform="matrix(.0339 .9825 -1.2036 .0415 46.34 -13.167)" gradientUnits="userSpaceOnUse"><stop offset="0" stop-color="#8f0000"/><stop offset=".178" stop-color="#a20703"/><stop offset=".539" stop-color="#d41a0c"/><stop offset=".818" stop-color="#ff2a14"/><stop offset=".858" stop-color="#ff3f2d"/><stop offset=".941" stop-color="#ff746c"/><stop offset="1" stop-color="#ff9c9c"/></radialGradient><path fill="url(#pxxy3250imXxDzkEANATQi)" d="M29.95,21.399c-1.642,0-9.017-5.477-9.792-7.579s3.375-6.915,7.468-6.915	s6.915,0.664,7.136,1.328s-0.166,7.302-0.553,8.685S33.38,21.399,29.95,21.399z"/><radialGradient id="pxxy3250imXxDzkEANATQj" cx="25.68" cy="19.773" r="25.136" gradientTransform="matrix(-.0127 .9831 -.635 -.0082 37.958 -5.047)" gradientUnits="userSpaceOnUse"><stop offset=".004" stop-color="#ff2424"/><stop offset=".284" stop-color="#e61818"/><stop offset=".768" stop-color="#b30000"/><stop offset=".819" stop-color="#a90001"/><stop offset=".906" stop-color="#8f0005"/><stop offset="1" stop-color="#6b0009"/></radialGradient><path fill="url(#pxxy3250imXxDzkEANATQj)" d="M22.32,38.62c-5.698,0.17-10.913-4.008-10.857-10.774c0.056-6.766,2.378-8.078,2.273-11.6	c-0.18-6.035-1.566-8.406-1.534-9.502c0,0,0.962,1.593,5.285,2.356c2.191,0.387,4.388-0.603,7.998,0.863	c5.312,2.157,9.092,8.327,9.333,16.413C35.071,34.872,32.16,38.326,22.32,38.62z"/><radialGradient id="pxxy3250imXxDzkEANATQk" cx="38.592" cy="28.836" r="22.634" gradientTransform="matrix(-.0127 .9831 -.6796 -.0087 58.116 -9.122)" gradientUnits="userSpaceOnUse"><stop offset=".502" stop-color="#1c0000"/><stop offset=".518" stop-color="#240000" stop-opacity=".968"/><stop offset=".759" stop-color="#900" stop-opacity=".485"/><stop offset=".924" stop-color="#e20000" stop-opacity=".153"/><stop offset="1" stop-color="red" stop-opacity="0"/></radialGradient><path fill="url(#pxxy3250imXxDzkEANATQk)" d="M22.32,38.62c-5.698,0.17-10.913-4.008-10.857-10.774c0.056-6.766,2.378-8.078,2.273-11.6	c-0.18-6.035-1.566-8.406-1.534-9.502c0,0,0.962,1.593,5.285,2.356c2.191,0.387,4.388-0.603,7.998,0.863	c5.312,2.157,9.092,8.327,9.333,16.413C35.071,34.872,32.16,38.326,22.32,38.62z"/><radialGradient id="pxxy3250imXxDzkEANATQl" cx="10.952" cy="29.869" r="26.843" gradientTransform="matrix(.2369 .9542 -.6596 .1638 28.007 15.047)" gradientUnits="userSpaceOnUse"><stop offset=".314" stop-color="#1c0000"/><stop offset=".368" stop-color="#340000" stop-opacity=".921"/><stop offset=".542" stop-color="#7b0000" stop-opacity=".667"/><stop offset=".699" stop-color="#b40000" stop-opacity=".44"/><stop offset=".832" stop-color="#d00" stop-opacity=".245"/><stop offset=".937" stop-color="#f60000" stop-opacity=".092"/><stop offset="1" stop-color="red" stop-opacity="0"/></radialGradient><path fill="url(#pxxy3250imXxDzkEANATQl)" d="M22.32,38.62c-5.698,0.17-10.913-4.008-10.857-10.774c0.056-6.766,2.378-8.078,2.273-11.6	c-0.18-6.035-1.566-8.406-1.534-9.502c0,0,0.962,1.593,5.285,2.356c2.191,0.387,4.388-0.603,7.998,0.863	c5.312,2.157,9.092,8.327,9.333,16.413C35.071,34.872,32.16,38.326,22.32,38.62z"/><linearGradient id="pxxy3250imXxDzkEANATQm" x1="13.416" x2="35.857" y1="7.661" y2="21.618" gradientUnits="userSpaceOnUse"><stop offset=".004" stop-color="#ff5a4a"/><stop offset=".377" stop-color="#ef4231"/><stop offset="1" stop-color="#cf1300"/></linearGradient><path fill="url(#pxxy3250imXxDzkEANATQm)" d="M18.81,10.388c-7.119,0.708-6.978-2.444-6.609-3.645c0,0,0.962,1.593,5.285,2.356	c2.191,0.387,4.388-0.603,7.998,0.863c5.312,2.157,9.092,8.327,9.333,16.413C31.916,8.157,24.336,15.933,18.81,10.388z"/><radialGradient id="pxxy3250imXxDzkEANATQn" cx="39.038" cy="28.703" r="21.288" gradientTransform="rotate(1.827 8.53 49.408) scale(.9831)" gradientUnits="userSpaceOnUse"><stop offset=".004" stop-color="#ff2b2b"/><stop offset=".176" stop-color="#f42626"/><stop offset=".48" stop-color="#d61a1a"/><stop offset=".878" stop-color="#a50606"/><stop offset=".995" stop-color="#960000"/></radialGradient><path fill="url(#pxxy3250imXxDzkEANATQn)" d="M26.628,38.562c2.896,0.093,12.364-4.046,12.324-10.812s-1.725-9.64-1.405-11.562	s3.387-6.649,3.433-8.101c-1.327,1.244-13.609,3.971-14.078,18.517C26.63,35.1,25.084,38.512,26.628,38.562z"/><linearGradient id="pxxy3250imXxDzkEANATQo" x1="36.718" x2="28.551" y1="9.224" y2="29.427" gradientUnits="userSpaceOnUse"><stop offset=".004" stop-color="#ff5a4a"/><stop offset=".377" stop-color="#ef4231"/><stop offset="1" stop-color="#cf1300"/></linearGradient><path fill="url(#pxxy3250imXxDzkEANATQo)" d="M35.696,12.945c3.154-0.509,5.164-1.268,5.285-4.858	c-1.327,1.244-13.609,3.971-14.078,18.517c-0.109,3.386-0.42,5.965-0.657,7.845C27.964,18.211,35.166,15.728,35.696,12.945z"/><radialGradient id="pxxy3250imXxDzkEANATQp" cx="52.714" cy="29.14" r="21.65" gradientTransform="matrix(-.9778 .1024 .0979 .9344 60.923 -2.423)" gradientUnits="userSpaceOnUse"><stop offset=".004" stop-color="#ff2b2b"/><stop offset=".18" stop-color="#f42626"/><stop offset=".491" stop-color="#d61a1a"/><stop offset=".898" stop-color="#a50505"/><stop offset=".995" stop-color="#900"/></radialGradient><path fill="url(#pxxy3250imXxDzkEANATQp)" d="M26.671,38.59c-9.189,1.866-16.098-2.899-16.515-9.352	c-0.417-6.453,0.691-9.254,0.242-11.063s-3.239-6.315-3.384-7.695c1.407,1.088,12.921,3.049,14.701,16.842	C23.08,37.896,28.185,38.282,26.671,38.59z"/><linearGradient id="pxxy3250imXxDzkEANATQq" x1="11.896" x2="27.377" y1="13.924" y2="37.366" gradientUnits="userSpaceOnUse"><stop offset=".004" stop-color="#ff5a4a"/><stop offset=".377" stop-color="#ef4231"/><stop offset="1" stop-color="#cf1300"/></linearGradient><path fill="url(#pxxy3250imXxDzkEANATQq)" d="M21.156,28.237c-1.404-7.38-6.307-9.272-8.383-13.578c-3.964-0.843-6.196-1.405-5.758-4.18	c1.407,1.088,12.921,3.049,14.701,16.842c0.58,4.49,1.833,7.143,2.968,8.733C24.684,36.055,22.386,34.702,21.156,28.237z"/></svg>