<svg xmlns="http://www.w3.org/2000/svg" viewBox="0 0 48 48"><radialGradient id="5_F1sZkydtk8fHvDcbAcxa" cx="-662.202" cy="15.641" r="8.874" gradientTransform="matrix(-1 0 0 1.9681 -632.334 -15.142)" gradientUnits="userSpaceOnUse"><stop offset="0" stop-color="#f9e5c8"/><stop offset=".629" stop-color="#f8daba"/><stop offset=".713" stop-color="#f5d5b5"/><stop offset=".818" stop-color="#eec7a5"/><stop offset=".933" stop-color="#e1b08c"/><stop offset=".999" stop-color="#d8a07a"/></radialGradient><path fill="url(#5_F1sZkydtk8fHvDcbAcxa)" d="M32.639,34.972l-0.995-0.098c0,0,1.996-20.464,2.013-20.649	c0.126-2.032,1.231-3.567,2.478-3.485c1.263,0.079,2.154,1.732,2.029,3.74l-0.229,20.383l-0.52-0.006l-4.771,0.06	C32.643,34.935,32.641,34.953,32.639,34.972z"/><radialGradient id="5_F1sZkydtk8fHvDcbAcxb" cx="-657.656" cy="14.768" r="9.313" gradientTransform="matrix(-.9702 .2423 .4868 1.949 -619.924 145.34)" gradientUnits="userSpaceOnUse"><stop offset="0" stop-color="#f9e5c8"/><stop offset=".629" stop-color="#f8daba"/><stop offset=".713" stop-color="#f5d5b5"/><stop offset=".818" stop-color="#eec7a5"/><stop offset=".933" stop-color="#e1b08c"/><stop offset=".999" stop-color="#d8a07a"/></radialGradient><path fill="url(#5_F1sZkydtk8fHvDcbAcxb)" d="M28.674,7.444c0.308-0.811,0.836-1.31,1.487-1.406c0.644-0.099,1.302,0.226,1.833,0.911	c0.467,0.603,0.58,1.354,0.922,2.283L38,26l-0.385,1.482l-5.839,2.809c0.007,0.059,0.013,0.113,0.02,0.173l-0.993,0.113	c0,0-2.316-20.432-2.338-20.615C28.328,9.052,28.403,8.157,28.674,7.444z"/><radialGradient id="5_F1sZkydtk8fHvDcbAcxc" cx="-652.42" cy="15.484" r="10.853" gradientTransform="matrix(-.7975 .6034 .9887 1.3068 -515.504 388.899)" gradientUnits="userSpaceOnUse"><stop offset="0" stop-color="#f9e5c8"/><stop offset=".629" stop-color="#f8daba"/><stop offset=".713" stop-color="#f5d5b5"/><stop offset=".818" stop-color="#eec7a5"/><stop offset=".933" stop-color="#e1b08c"/><stop offset=".999" stop-color="#d8a07a"/></radialGradient><path fill="url(#5_F1sZkydtk8fHvDcbAcxc)" d="M19.183,3.802c0.23-0.414,0.531-0.739,0.985-0.917c0.736-0.289,1.385,0.031,1.816,0.344	c0.445,0.323,0.813,0.744,1.178,1.153c0.598,0.671,1.153,1.382,1.675,2.114c0.02,0.028,12.887,20.054,12.887,20.054	s-0.421,0.271-0.421,0.271l-0.421,0.27l-0.375-0.584l-10.685-4.209l-0.466,0.181c0,0-6.073-15.646-6.121-15.769	C18.65,5.283,18.884,4.341,19.183,3.802z"/><radialGradient id="5_F1sZkydtk8fHvDcbAcxd" cx="18.474" cy="29.829" r="16.654" gradientTransform="matrix(1 0 0 1.0105 0 -.314)" gradientUnits="userSpaceOnUse"><stop offset="0" stop-color="#f9e5c8"/><stop offset=".629" stop-color="#f8daba"/><stop offset=".713" stop-color="#f5d5b5"/><stop offset=".818" stop-color="#eec7a5"/><stop offset=".933" stop-color="#e1b08c"/><stop offset=".999" stop-color="#d8a07a"/></radialGradient><path fill="url(#5_F1sZkydtk8fHvDcbAcxd)" d="M21.739,18.936c-0.564-0.258-1.202-0.285-1.784-0.072c-1.894,0.693-6.109,2.234-6.152,2.25	c-1.937,0.627-3.151,2.061-2.762,3.266c0.195,0.605,0.742,1.034,1.543,1.217c0.42,0.096,0.856,0.114,1.285,0.081	c0.441-0.034,0.877-0.124,1.298-0.26c0,0,2.89-0.736,3.853-0.982c0.874-0.223,1.667,0.25,2.234,0.952	c0.653,0.809,1.715,2.577,2.03,3.584c0.252,0.804,0.22,1.57-0.222,2.287c-0.22,0.358-0.955,1.244-1.475,1.72	c-0.642,0.589-1.455,0.757-2.299,0.54c-0.641-0.164-1.956-0.745-2.623-1.111c-0.704-0.386-1.22-1.038-1.22-1.842v-1.046	c0-2.007-1.679-3.622-3.71-3.516c-0.914,0.048-1.507,0.841-1.619,1.75c-0.219,1.777-0.381,5.462,0,7.823	C10.574,38.404,20.468,44,22.646,44h8.545C34.952,44,38,40.952,38,37.191C38,34.394,38,26,38,26S27.336,21.498,21.739,18.936z"/><g opacity=".37"><path fill="#f6d7b7" d="M11.735,22.38c-0.268,0.281-0.467,0.579-0.585,0.885 c-0.108,0.207-0.133,0.48-0.042,0.763c0.213,0.577,0.858,1.142,2.186,1.346c0.375,0.052,0.801,0.074,1.28,0.057 c0.209-0.002,0.453-0.018,0.723-0.046c0.438-0.112,2.324-0.592,3.353-0.854c0.155-0.039,0.293-0.073,0.407-0.099 c0.768-0.179,1.471,0.174,2.011,0.745c0.07,0.074,0.137,0.152,0.202,0.233c0.402,0.504,1.444,1.977,1.924,3.39 c0.185,0.542,0.302,1.098,0.249,1.668c0.013-0.033,0.212-0.751,0.205-1.151c-0.012-0.648-0.032-1.149-0.064-1.543 c-0.062-0.744-0.159-1.161-0.331-1.685c-0.33-1.004-1.354-2.712-1.988-3.497c-0.567-0.702-1.36-1.175-2.234-0.952 c-0.945,0.241-3.809,0.968-3.923,0.992c-0.191,0.059-0.377,0.108-0.552,0.145c-0.254,0.053-0.511,0.087-0.77,0.101 c-0.11,0.006-0.221,0.009-0.331,0.008c-0.329-0.005-0.652-0.049-0.961-0.138C12.195,22.661,11.949,22.53,11.735,22.38z" opacity=".091"/><path fill="#f4d4b3" d="M11.667,22.482c-0.252,0.285-0.432,0.587-0.528,0.894 c-0.088,0.212-0.095,0.479,0.007,0.754c0.271,0.585,0.941,1.091,2.215,1.273c0.379,0.043,0.802,0.054,1.273,0.027 c0.188-0.002,0.434-0.023,0.716-0.058c0.486-0.124,2.345-0.597,3.337-0.85c0.153-0.039,0.291-0.071,0.407-0.095 c0.763-0.161,1.46,0.199,1.993,0.772c0.068,0.073,0.135,0.151,0.2,0.232c0.427,0.539,1.449,2.014,1.91,3.378 c0.171,0.502,0.296,1.035,0.246,1.661c0.016-0.05,0.198-0.728,0.193-1.122c-0.009-0.626-0.03-1.121-0.067-1.504 c-0.068-0.701-0.172-1.121-0.348-1.638c-0.344-1-1.331-2.649-1.946-3.411c-0.567-0.702-1.36-1.175-2.234-0.952 c-0.927,0.236-3.764,0.953-3.993,1.002c-0.205,0.06-0.396,0.11-0.562,0.143c-0.258,0.051-0.521,0.08-0.783,0.09 c-0.112,0.004-0.224,0.004-0.336,0c-0.336-0.013-0.66-0.074-0.963-0.179C12.109,22.795,11.869,22.646,11.667,22.482z" opacity=".182"/><path fill="#f3d0b0" d="M11.599,22.585c-0.235,0.29-0.396,0.595-0.47,0.902 c-0.069,0.217-0.058,0.479,0.056,0.744c0.329,0.593,1.025,1.041,2.243,1.201c0.382,0.034,0.804,0.035,1.265-0.004 c0.167-0.002,0.415-0.028,0.709-0.07c0.533-0.136,2.365-0.602,3.322-0.846c0.151-0.039,0.289-0.068,0.406-0.091 c0.758-0.143,1.448,0.223,1.975,0.798c0.067,0.073,0.133,0.15,0.197,0.232c0.452,0.575,1.455,2.05,1.897,3.365 c0.157,0.463,0.289,0.972,0.244,1.653c0.018-0.067,0.184-0.705,0.181-1.092c-0.006-0.603-0.028-1.093-0.069-1.464 c-0.073-0.659-0.184-1.08-0.366-1.591c-0.358-0.997-1.308-2.586-1.904-3.325c-0.567-0.702-1.36-1.175-2.234-0.952 c-0.909,0.232-3.72,0.939-4.063,1.012c-0.218,0.061-0.414,0.111-0.572,0.14c-0.263,0.049-0.53,0.073-0.796,0.078 c-0.114,0.002-0.228,0-0.341-0.007c-0.343-0.022-0.668-0.099-0.966-0.221C12.022,22.928,11.79,22.763,11.599,22.585z" opacity=".273"/><path fill="#f1cdac" d="M11.531,22.688c-0.218,0.295-0.361,0.603-0.413,0.911 c-0.05,0.222-0.02,0.479,0.105,0.734c0.387,0.601,1.108,0.991,2.272,1.128c0.386,0.025,0.805,0.015,1.258-0.034 c0.146-0.002,0.396-0.033,0.702-0.082c0.58-0.148,2.385-0.608,3.307-0.843c0.149-0.038,0.286-0.066,0.406-0.086 c0.752-0.126,1.436,0.247,1.957,0.824c0.066,0.073,0.131,0.15,0.194,0.231c0.476,0.611,1.461,2.086,1.883,3.352 c0.143,0.423,0.283,0.909,0.241,1.645c0.021-0.084,0.17-0.682,0.169-1.062c-0.003-0.581-0.026-1.065-0.072-1.424 c-0.079-0.617-0.197-1.039-0.384-1.544c-0.373-0.994-1.285-2.524-1.863-3.238c-0.567-0.702-1.36-1.175-2.234-0.952 c-0.891,0.227-3.676,0.925-4.133,1.023c-0.232,0.062-0.433,0.112-0.582,0.138c-0.267,0.047-0.539,0.067-0.81,0.066 c-0.116,0-0.231-0.005-0.346-0.015c-0.35-0.03-0.676-0.123-0.968-0.262C11.936,23.062,11.71,22.88,11.531,22.688z" opacity=".364"/><path fill="#efcaa9" d="M11.463,22.79c-0.202,0.3-0.326,0.611-0.356,0.92 c-0.031,0.227,0.017,0.478,0.154,0.724c0.446,0.609,1.191,0.94,2.301,1.056c0.389,0.015,0.806-0.004,1.25-0.065 c0.125-0.001,0.377-0.038,0.695-0.094c0.627-0.16,2.405-0.613,3.292-0.839c0.147-0.038,0.284-0.064,0.405-0.082 c0.747-0.109,1.424,0.271,1.939,0.85c0.064,0.072,0.129,0.149,0.192,0.231c0.501,0.647,1.464,2.124,1.87,3.339 c0.128,0.384,0.276,0.846,0.239,1.637c0.023-0.101,0.156-0.659,0.157-1.033c-0.001-0.558-0.024-1.037-0.074-1.385 c-0.083-0.575-0.21-0.998-0.402-1.497c-0.387-0.991-1.263-2.461-1.821-3.152c-0.567-0.702-1.36-1.175-2.234-0.952 c-0.873,0.222-3.631,0.911-4.203,1.033c-0.245,0.063-0.451,0.113-0.592,0.136c-0.272,0.045-0.548,0.06-0.823,0.055 c-0.117-0.002-0.235-0.009-0.351-0.022c-0.357-0.038-0.683-0.148-0.971-0.304C11.85,23.195,11.631,22.997,11.463,22.79z" opacity=".455"/><path fill="#edc7a5" d="M11.395,22.893c-0.185,0.304-0.291,0.619-0.299,0.929 c-0.012,0.232,0.055,0.478,0.202,0.714c0.504,0.617,1.274,0.89,2.33,0.983c0.392,0.006,0.808-0.023,1.243-0.095 c0.104-0.001,0.357-0.042,0.688-0.106c0.675-0.172,2.426-0.618,3.277-0.835c0.146-0.037,0.282-0.062,0.405-0.077 c0.741-0.092,1.412,0.295,1.921,0.876c0.063,0.072,0.126,0.149,0.189,0.23c0.525,0.683,1.47,2.16,1.857,3.326 c0.114,0.344,0.27,0.783,0.236,1.63c0.026-0.118,0.142-0.636,0.145-1.003c0.002-0.536-0.021-1.009-0.077-1.345 c-0.088-0.533-0.222-0.957-0.42-1.45c-0.401-0.988-1.24-2.398-1.779-3.066c-0.567-0.702-1.36-1.175-2.234-0.952 c-0.855,0.218-3.587,0.897-4.273,1.043c-0.259,0.064-0.47,0.113-0.603,0.134c-0.277,0.042-0.558,0.054-0.837,0.043 c-0.119-0.005-0.238-0.014-0.356-0.029c-0.364-0.047-0.691-0.173-0.973-0.345C11.763,23.329,11.552,23.113,11.395,22.893z" opacity=".545"/><path fill="#ebc4a2" d="M11.327,22.996c-0.168,0.309-0.256,0.627-0.242,0.938 c0.007,0.238,0.093,0.478,0.251,0.704c0.562,0.625,1.358,0.84,2.359,0.911c0.396-0.003,0.809-0.043,1.236-0.126 c0.083-0.001,0.338-0.047,0.681-0.118c0.722-0.184,2.446-0.623,3.262-0.831c0.144-0.037,0.279-0.06,0.404-0.073 c0.736-0.076,1.401,0.319,1.904,0.903c0.062,0.071,0.124,0.148,0.186,0.23c0.549,0.719,1.475,2.197,1.843,3.313 c0.1,0.305,0.263,0.719,0.233,1.622c0.029-0.136,0.128-0.613,0.133-0.973c0.005-0.513-0.018-0.981-0.079-1.306 c-0.092-0.49-0.235-0.917-0.438-1.403c-0.415-0.985-1.217-2.336-1.737-2.98c-0.567-0.702-1.36-1.175-2.234-0.952 c-0.837,0.213-3.543,0.883-4.344,1.054c-0.272,0.065-0.488,0.114-0.613,0.131c-0.281,0.039-0.567,0.047-0.85,0.031 c-0.121-0.007-0.241-0.019-0.361-0.037c-0.371-0.057-0.699-0.197-0.976-0.387C11.677,23.463,11.472,23.23,11.327,22.996z" opacity=".636"/><path fill="#e9c19e" d="M11.258,23.098c-0.152,0.314-0.221,0.635-0.185,0.947 c0.026,0.243,0.13,0.477,0.3,0.694c0.62,0.633,1.441,0.789,2.388,0.838c0.399-0.012,0.811-0.062,1.228-0.156 c0.063-0.001,0.319-0.052,0.674-0.13c0.769-0.196,2.466-0.628,3.246-0.827c0.142-0.036,0.277-0.058,0.404-0.068 c0.73-0.06,1.389,0.343,1.886,0.929c0.06,0.071,0.122,0.147,0.184,0.229c0.573,0.756,1.481,2.233,1.83,3.3 c0.087,0.265,0.257,0.656,0.231,1.614c0.031-0.153,0.115-0.59,0.121-0.944c0.008-0.491-0.015-0.954-0.082-1.266 c-0.095-0.448-0.247-0.876-0.455-1.356c-0.43-0.982-1.194-2.273-1.695-2.893c-0.567-0.702-1.36-1.175-2.234-0.952 c-0.819,0.209-3.498,0.868-4.414,1.064c-0.286,0.066-0.507,0.114-0.623,0.129c-0.286,0.036-0.576,0.041-0.864,0.02 c-0.123-0.009-0.245-0.023-0.366-0.044c-0.378-0.065-0.707-0.222-0.978-0.429C11.591,23.596,11.393,23.347,11.258,23.098z" opacity=".727"/><path fill="#e8bd9b" d="M11.19,23.201c-0.135,0.318-0.185,0.643-0.128,0.956 c0.045,0.248,0.168,0.477,0.349,0.684c0.678,0.641,1.524,0.739,2.416,0.766c0.402-0.021,0.812-0.082,1.221-0.186 c0.042,0,0.3-0.057,0.667-0.142c0.816-0.208,2.486-0.633,3.231-0.823c0.14-0.036,0.275-0.056,0.403-0.064 c0.725-0.045,1.377,0.367,1.868,0.955c0.059,0.071,0.12,0.147,0.181,0.228c0.596,0.793,1.487,2.269,1.816,3.287 c0.073,0.225,0.251,0.593,0.228,1.606c0.034-0.17,0.101-0.567,0.109-0.914c0.01-0.468-0.012-0.926-0.084-1.227 c-0.098-0.407-0.26-0.835-0.473-1.309c-0.444-0.979-1.171-2.21-1.653-2.807c-0.567-0.702-1.36-1.175-2.234-0.952 c-0.801,0.204-3.454,0.854-4.484,1.074c-0.299,0.067-0.525,0.115-0.633,0.127c-0.291,0.032-0.586,0.034-0.877,0.008 c-0.124-0.011-0.248-0.028-0.371-0.051c-0.385-0.074-0.714-0.247-0.98-0.47C11.505,23.73,11.313,23.464,11.19,23.201z" opacity=".818"/><path fill="#e6ba97" d="M11.122,23.304c-0.118,0.323-0.15,0.65-0.07,0.965 c0.064,0.253,0.205,0.476,0.398,0.675c0.736,0.65,1.607,0.689,2.445,0.693c0.406-0.03,0.813-0.101,1.213-0.217 c0.021,0,0.28-0.062,0.66-0.154c0.864-0.22,2.507-0.639,3.216-0.819c0.138-0.035,0.273-0.054,0.403-0.06 c0.719-0.03,1.365,0.391,1.85,0.981c0.058,0.07,0.117,0.146,0.179,0.228c0.62,0.829,1.496,2.305,1.803,3.274 c0.06,0.186,0.244,0.53,0.226,1.599c0.036-0.187,0.087-0.544,0.097-0.884c0.013-0.445-0.008-0.899-0.087-1.187 c-0.1-0.365-0.272-0.794-0.491-1.262c-0.458-0.976-1.148-2.148-1.611-2.721c-0.567-0.702-1.36-1.175-2.234-0.952 c-0.783,0.2-3.409,0.84-4.554,1.084c-0.313,0.069-0.544,0.115-0.643,0.124c-0.296,0.028-0.595,0.028-0.89-0.003 c-0.126-0.013-0.252-0.033-0.376-0.059c-0.392-0.083-0.722-0.272-0.983-0.512C11.418,23.863,11.234,23.581,11.122,23.304z" opacity=".909"/><path fill="#e4b794" d="M11.487,25.044c0.794,0.658,1.69,0.638,2.474,0.621c0.409-0.039,0.815-0.121,1.206-0.247 c0,0,2.89-0.736,3.853-0.982c0.874-0.223,1.667,0.25,2.234,0.952c0.653,0.809,1.65,2.482,1.965,3.489 c0.046,0.146,0.238,0.467,0.223,1.591c0.088-0.462,0.151-1.509-0.003-2.002c-0.315-1.007-1.424-3.039-2.078-3.849 c-0.567-0.702-1.36-1.175-2.234-0.952c-0.963,0.245-4.836,1.182-5.277,1.217c-0.429,0.033-0.865,0.015-1.285-0.081 c-0.789-0.18-1.309-0.804-1.512-1.394c-0.102,0.328-0.115,0.658-0.013,0.974C11.124,24.638,11.284,24.856,11.487,25.044z"/></g><linearGradient id="5_F1sZkydtk8fHvDcbAcxe" x1="21.248" x2="31.943" y1="17.657" y2="17.657" gradientUnits="userSpaceOnUse"><stop offset="0" stop-color="#e4b794"/><stop offset="1" stop-color="#d8a07a" stop-opacity="0"/></linearGradient><linearGradient id="5_F1sZkydtk8fHvDcbAcxf" x1="21.435" x2="31.943" y1="17.898" y2="17.898" gradientUnits="userSpaceOnUse"><stop offset="0" stop-color="#e4b794"/><stop offset="1" stop-color="#d8a07a" stop-opacity="0"/></linearGradient><polygon fill="url(#5_F1sZkydtk8fHvDcbAcxf)" points="24.288,19.728 21.435,12.378 31.943,23.418" opacity=".063"/><linearGradient id="5_F1sZkydtk8fHvDcbAcxg" x1="21.622" x2="31.943" y1="18.138" y2="18.138" gradientUnits="userSpaceOnUse"><stop offset="0" stop-color="#e4b794"/><stop offset="1" stop-color="#d8a07a" stop-opacity="0"/></linearGradient><polygon fill="url(#5_F1sZkydtk8fHvDcbAcxg)" points="24.299,19.757 21.621,12.859 31.943,23.418" opacity=".125"/><linearGradient id="5_F1sZkydtk8fHvDcbAcxh" x1="21.808" x2="31.943" y1="18.379" y2="18.379" gradientUnits="userSpaceOnUse"><stop offset="0" stop-color="#e4b794"/><stop offset="1" stop-color="#d8a07a" stop-opacity="0"/></linearGradient><polygon fill="url(#5_F1sZkydtk8fHvDcbAcxh)" points="24.31,19.785 21.808,13.34 31.943,23.418" opacity=".188"/><linearGradient id="5_F1sZkydtk8fHvDcbAcxi" x1="21.995" x2="31.943" y1="18.62" y2="18.62" gradientUnits="userSpaceOnUse"><stop offset="0" stop-color="#e4b794"/><stop offset="1" stop-color="#d8a07a" stop-opacity="0"/></linearGradient><polygon fill="url(#5_F1sZkydtk8fHvDcbAcxi)" points="24.321,19.814 21.995,13.822 31.943,23.418" opacity=".25"/><linearGradient id="5_F1sZkydtk8fHvDcbAcxj" x1="22.182" x2="31.943" y1="18.86" y2="18.86" gradientUnits="userSpaceOnUse"><stop offset="0" stop-color="#e4b794"/><stop offset="1" stop-color="#d8a07a" stop-opacity="0"/></linearGradient><polygon fill="url(#5_F1sZkydtk8fHvDcbAcxj)" points="24.332,19.842 22.182,14.303 31.943,23.418" opacity=".313"/><linearGradient id="5_F1sZkydtk8fHvDcbAcxk" x1="22.369" x2="31.943" y1="19.101" y2="19.101" gradientUnits="userSpaceOnUse"><stop offset="0" stop-color="#e4b794"/><stop offset="1" stop-color="#d8a07a" stop-opacity="0"/></linearGradient><polygon fill="url(#5_F1sZkydtk8fHvDcbAcxk)" points="24.343,19.871 22.369,14.784 31.943,23.418" opacity=".375"/><linearGradient id="5_F1sZkydtk8fHvDcbAcxl" x1="22.555" x2="31.943" y1="19.342" y2="19.342" gradientUnits="userSpaceOnUse"><stop offset="0" stop-color="#e4b794"/><stop offset="1" stop-color="#d8a07a" stop-opacity="0"/></linearGradient><polygon fill="url(#5_F1sZkydtk8fHvDcbAcxl)" points="24.354,19.9 22.556,15.265 31.943,23.418" opacity=".438"/><linearGradient id="5_F1sZkydtk8fHvDcbAcxm" x1="22.742" x2="31.943" y1="19.582" y2="19.582" gradientUnits="userSpaceOnUse"><stop offset="0" stop-color="#e4b794"/><stop offset="1" stop-color="#d8a07a" stop-opacity="0"/></linearGradient><polygon fill="url(#5_F1sZkydtk8fHvDcbAcxm)" points="24.365,19.928 22.742,15.747 31.943,23.418" opacity=".5"/><linearGradient id="5_F1sZkydtk8fHvDcbAcxn" x1="22.929" x2="31.943" y1="19.823" y2="19.823" gradientUnits="userSpaceOnUse"><stop offset="0" stop-color="#e4b794"/><stop offset="1" stop-color="#d8a07a" stop-opacity="0"/></linearGradient><polygon fill="url(#5_F1sZkydtk8fHvDcbAcxn)" points="24.377,19.957 22.929,16.228 31.943,23.418" opacity=".563"/><linearGradient id="5_F1sZkydtk8fHvDcbAcxo" x1="23.116" x2="31.943" y1="20.064" y2="20.064" gradientUnits="userSpaceOnUse"><stop offset="0" stop-color="#e4b794"/><stop offset="1" stop-color="#d8a07a" stop-opacity="0"/></linearGradient><polygon fill="url(#5_F1sZkydtk8fHvDcbAcxo)" points="24.388,19.986 23.116,16.709 31.943,23.418" opacity=".625"/><linearGradient id="5_F1sZkydtk8fHvDcbAcxp" x1="23.303" x2="31.943" y1="20.304" y2="20.304" gradientUnits="userSpaceOnUse"><stop offset="0" stop-color="#e4b794"/><stop offset="1" stop-color="#d8a07a" stop-opacity="0"/></linearGradient><polygon fill="url(#5_F1sZkydtk8fHvDcbAcxp)" points="24.399,20.014 23.303,17.191 31.943,23.418" opacity=".688"/><linearGradient id="5_F1sZkydtk8fHvDcbAcxq" x1="23.49" x2="31.943" y1="20.545" y2="20.545" gradientUnits="userSpaceOnUse"><stop offset="0" stop-color="#e4b794"/><stop offset="1" stop-color="#d8a07a" stop-opacity="0"/></linearGradient><polygon fill="url(#5_F1sZkydtk8fHvDcbAcxq)" points="24.41,20.043 23.49,17.672 31.943,23.418" opacity=".75"/><linearGradient id="5_F1sZkydtk8fHvDcbAcxr" x1="23.676" x2="31.943" y1="20.785" y2="20.785" gradientUnits="userSpaceOnUse"><stop offset="0" stop-color="#e4b794"/><stop offset="1" stop-color="#d8a07a" stop-opacity="0"/></linearGradient><polygon fill="url(#5_F1sZkydtk8fHvDcbAcxr)" points="24.421,20.071 23.676,18.153 31.943,23.418" opacity=".813"/><linearGradient id="5_F1sZkydtk8fHvDcbAcxs" x1="23.863" x2="31.943" y1="21.026" y2="21.026" gradientUnits="userSpaceOnUse"><stop offset="0" stop-color="#e4b794"/><stop offset="1" stop-color="#d8a07a" stop-opacity="0"/></linearGradient><polygon fill="url(#5_F1sZkydtk8fHvDcbAcxs)" points="24.432,20.1 23.863,18.634 31.943,23.418" opacity=".875"/><linearGradient id="5_F1sZkydtk8fHvDcbAcxt" x1="24.05" x2="31.943" y1="21.267" y2="21.267" gradientUnits="userSpaceOnUse"><stop offset="0" stop-color="#e4b794"/><stop offset="1" stop-color="#d8a07a" stop-opacity="0"/></linearGradient><polygon fill="url(#5_F1sZkydtk8fHvDcbAcxt)" points="24.443,20.129 24.05,19.116 31.943,23.418" opacity=".938"/><linearGradient id="5_F1sZkydtk8fHvDcbAcxu" x1="24.237" x2="31.943" y1="21.507" y2="21.507" gradientUnits="userSpaceOnUse"><stop offset="0" stop-color="#e4b794"/><stop offset="1" stop-color="#d8a07a" stop-opacity="0"/></linearGradient><polygon fill="url(#5_F1sZkydtk8fHvDcbAcxu)" points="31.943,23.418 24.454,20.157 24.237,19.597"/><g opacity=".9"><linearGradient id="5_F1sZkydtk8fHvDcbAcxv" x1="28.711" x2="36.214" y1="9.388" y2="21.7" gradientUnits="userSpaceOnUse"><stop offset="0" stop-color="#f8daba"/><stop offset="1" stop-color="#e4b794"/></linearGradient><linearGradient id="5_F1sZkydtk8fHvDcbAcxw" x1="28.371" x2="36.498" y1="9.812" y2="21.409" gradientUnits="userSpaceOnUse"><stop offset="0" stop-color="#f7d8b8"/><stop offset="1" stop-color="#e3b692"/></linearGradient><polygon fill="url(#5_F1sZkydtk8fHvDcbAcxw)" points="28.578,10.882 29.374,8.442 35.062,21.976 35.19,22.344" opacity=".063"/><linearGradient id="5_F1sZkydtk8fHvDcbAcxx" x1="28.071" x2="36.736" y1="10.268" y2="21.087" gradientUnits="userSpaceOnUse"><stop offset="0" stop-color="#f6d6b5"/><stop offset="1" stop-color="#e3b491"/></linearGradient><polygon fill="url(#5_F1sZkydtk8fHvDcbAcxx)" points="28.59,10.997 29.322,8.628 35.071,22 35.182,22.349" opacity=".125"/><linearGradient id="5_F1sZkydtk8fHvDcbAcxy" x1="27.815" x2="36.924" y1="10.75" y2="20.742" gradientUnits="userSpaceOnUse"><stop offset="0" stop-color="#f4d3b3"/><stop offset="1" stop-color="#e2b38f"/></linearGradient><polygon fill="url(#5_F1sZkydtk8fHvDcbAcxy)" points="28.602,11.113 29.27,8.814 35.08,22.025 35.174,22.354" opacity=".188"/><linearGradient id="5_F1sZkydtk8fHvDcbAcxz" x1="27.605" x2="37.062" y1="11.252" y2="20.379" gradientUnits="userSpaceOnUse"><stop offset="0" stop-color="#f3d1b1"/><stop offset="1" stop-color="#e1b18e"/></linearGradient><polygon fill="url(#5_F1sZkydtk8fHvDcbAcxz)" points="28.614,11.229 29.219,9 35.089,22.049 35.166,22.359" opacity=".25"/><linearGradient id="5_F1sZkydtk8fHvDcbAcxA" x1="27.442" x2="37.147" y1="11.77" y2="20.005" gradientUnits="userSpaceOnUse"><stop offset="0" stop-color="#f2cfae"/><stop offset="1" stop-color="#e0b08c"/></linearGradient><polygon fill="url(#5_F1sZkydtk8fHvDcbAcxA)" points="28.625,11.345 29.167,9.187 35.099,22.073 35.158,22.365" opacity=".313"/><linearGradient id="5_F1sZkydtk8fHvDcbAcxB" x1="27.329" x2="37.18" y1="12.297" y2="19.627" gradientUnits="userSpaceOnUse"><stop offset="0" stop-color="#f1cdac"/><stop offset="1" stop-color="#e0ae8a"/></linearGradient><polygon fill="url(#5_F1sZkydtk8fHvDcbAcxB)" points="28.637,11.46 29.115,9.373 35.108,22.097 35.15,22.37" opacity=".375"/><linearGradient id="5_F1sZkydtk8fHvDcbAcxC" x1="27.264" x2="37.161" y1="12.826" y2="19.25" gradientUnits="userSpaceOnUse"><stop offset="0" stop-color="#efcba9"/><stop offset="1" stop-color="#dfad89"/></linearGradient><polygon fill="url(#5_F1sZkydtk8fHvDcbAcxC)" points="28.649,11.576 29.064,9.559 35.117,22.121 35.142,22.375" opacity=".438"/><linearGradient id="5_F1sZkydtk8fHvDcbAcxD" x1="27.248" x2="37.092" y1="13.352" y2="18.881" gradientUnits="userSpaceOnUse"><stop offset="0" stop-color="#eec9a7"/><stop offset="1" stop-color="#deac87"/></linearGradient><polygon fill="url(#5_F1sZkydtk8fHvDcbAcxD)" points="28.661,11.692 29.012,9.745 35.126,22.146 35.134,22.38" opacity=".5"/><linearGradient id="5_F1sZkydtk8fHvDcbAcxE" x1="27.279" x2="36.974" y1="13.87" y2="18.527" gradientUnits="userSpaceOnUse"><stop offset="0" stop-color="#edc6a5"/><stop offset="1" stop-color="#ddaa85"/></linearGradient><polygon fill="url(#5_F1sZkydtk8fHvDcbAcxE)" points="28.672,11.807 28.96,9.932 35.135,22.17 35.127,22.385" opacity=".563"/><linearGradient id="5_F1sZkydtk8fHvDcbAcxF" x1="27.356" x2="36.81" y1="14.373" y2="18.191" gradientUnits="userSpaceOnUse"><stop offset="0" stop-color="#ecc4a2"/><stop offset="1" stop-color="#dda984"/></linearGradient><polygon fill="url(#5_F1sZkydtk8fHvDcbAcxF)" points="28.684,11.923 28.908,10.118 35.144,22.194 35.119,22.39" opacity=".625"/><linearGradient id="5_F1sZkydtk8fHvDcbAcxG" x1="27.476" x2="36.603" y1="14.857" y2="17.88" gradientUnits="userSpaceOnUse"><stop offset="0" stop-color="#eac2a0"/><stop offset="1" stop-color="#dca782"/></linearGradient><polygon fill="url(#5_F1sZkydtk8fHvDcbAcxG)" points="28.696,12.039 28.857,10.304 35.153,22.218 35.111,22.395" opacity=".688"/><linearGradient id="5_F1sZkydtk8fHvDcbAcxH" x1="27.636" x2="36.373" y1="15.316" y2="17.602" gradientUnits="userSpaceOnUse"><stop offset="0" stop-color="#e9c09e"/><stop offset="1" stop-color="#dba681"/></linearGradient><polygon fill="url(#5_F1sZkydtk8fHvDcbAcxH)" points="28.708,12.155 28.805,10.49 35.162,22.242 35.103,22.401" opacity=".75"/><linearGradient id="5_F1sZkydtk8fHvDcbAcxI" x1="27.833" x2="36.123" y1="15.746" y2="17.357" gradientUnits="userSpaceOnUse"><stop offset="0" stop-color="#e8be9b"/><stop offset="1" stop-color="#daa47f"/></linearGradient><polygon fill="url(#5_F1sZkydtk8fHvDcbAcxI)" points="28.719,12.27 28.753,10.677 35.171,22.266 35.095,22.406" opacity=".813"/><linearGradient id="5_F1sZkydtk8fHvDcbAcxJ" x1="28.062" x2="35.841" y1="16.144" y2="17.145" gradientUnits="userSpaceOnUse"><stop offset="0" stop-color="#e7bb99"/><stop offset="1" stop-color="#daa37d"/></linearGradient><polygon fill="url(#5_F1sZkydtk8fHvDcbAcxJ)" points="28.731,12.386 28.702,10.863 35.18,22.291 35.087,22.411" opacity=".875"/><linearGradient id="5_F1sZkydtk8fHvDcbAcxK" x1="28.318" x2="35.531" y1="16.505" y2="16.967" gradientUnits="userSpaceOnUse"><stop offset="0" stop-color="#e5b996"/><stop offset="1" stop-color="#d9a17c"/></linearGradient><polygon fill="url(#5_F1sZkydtk8fHvDcbAcxK)" points="28.743,12.502 28.65,11.049 35.189,22.315 35.079,22.416" opacity=".938"/><linearGradient id="5_F1sZkydtk8fHvDcbAcxL" x1="28.598" x2="35.198" y1="16.828" y2="16.828" gradientUnits="userSpaceOnUse"><stop offset="0" stop-color="#e4b794"/><stop offset="1" stop-color="#d8a07a"/></linearGradient><polygon fill="url(#5_F1sZkydtk8fHvDcbAcxL)" points="35.071,22.421 28.755,12.617 28.598,11.235 35.198,22.339"/></g></svg>