<svg xmlns="http://www.w3.org/2000/svg" viewBox="0 0 48 48"><linearGradient id="6Tc2WYzBaRtmqhxug9n92a" x1="10.129" x2="12.792" y1="36.828" y2="39.49" gradientTransform="matrix(-1 0 0 1 49.775 -.25)" gradientUnits="userSpaceOnUse"><stop offset="0" stop-color="#c13b33"/><stop offset=".402" stop-color="#c97d6b"/><stop offset=".78" stop-color="#961424"/></linearGradient><polygon fill="url(#6Tc2WYzBaRtmqhxug9n92a)" points="42.013,44.317 44.842,41.488 34.735,31.382 31.907,34.21"/><linearGradient id="6Tc2WYzBaRtmqhxug9n92b" x1="4.843" x2="10.338" y1="41.461" y2="46.898" gradientTransform="matrix(-1 0 0 1 49.775 -.25)" gradientUnits="userSpaceOnUse"><stop offset=".218" stop-color="#e4b848"/><stop offset=".285" stop-color="#daac3d"/><stop offset=".475" stop-color="#c18d21"/><stop offset=".582" stop-color="#b88217"/><stop offset=".811" stop-color="#a56f1c"/><stop offset=".989" stop-color="#9b661e"/></linearGradient><polygon fill="url(#6Tc2WYzBaRtmqhxug9n92b)" points="42.013,45.731 46.256,41.488 43.928,40.574 41.099,43.403"/><path fill="#9b661e" d="M46.237,41.508c-0.15,1.027-0.604,2.018-1.395,2.809c-0.791,0.791-1.782,1.244-2.809,1.395	L46.237,41.508z"/><radialGradient id="6Tc2WYzBaRtmqhxug9n92c" cx="14.026" cy="34.812" r="3.749" gradientTransform="matrix(-1 0 0 1 49.172 0)" gradientUnits="userSpaceOnUse"><stop offset="0" stop-color="#590e1b"/><stop offset=".124" stop-color="#650f1d" stop-opacity=".876"/><stop offset=".466" stop-color="#801221" stop-opacity=".534"/><stop offset=".769" stop-color="#901323" stop-opacity=".231"/><stop offset="1" stop-color="#961424" stop-opacity="0"/></radialGradient><polygon fill="url(#6Tc2WYzBaRtmqhxug9n92c)" points="36.577,38.881 31.907,34.21 34.735,31.382 39.406,36.052"/><linearGradient id="6Tc2WYzBaRtmqhxug9n92d" x1="31.068" x2="42.586" y1="17.826" y2="26.628" gradientTransform="matrix(-1 0 0 1 49.775 -.25)" gradientUnits="userSpaceOnUse"><stop offset="0" stop-color="#87909b"/><stop offset=".291" stop-color="#a7adb7"/><stop offset="1" stop-color="#e8eaee"/></linearGradient><path fill="url(#6Tc2WYzBaRtmqhxug9n92d)" d="M31.407,35.124l2.121-2.121L2.915,2.39c0.826,3.654,2.359,6.601,6.092,10.334L31.407,35.124z"/><path fill="#979ea9" d="M3.837,3.312C4.726,6.45,6.301,9.157,9.63,12.485l22.208,22.208l-0.431,0.431l-22.4-22.4	C5.274,8.992,3.741,6.044,2.915,2.39L3.837,3.312z"/><linearGradient id="6Tc2WYzBaRtmqhxug9n92e" x1="17.981" x2="41.413" y1="5.522" y2="26.973" gradientTransform="matrix(-1 0 0 1 49.775 -.25)" gradientUnits="userSpaceOnUse"><stop offset="0" stop-color="#87909b"/><stop offset=".291" stop-color="#a7adb7"/><stop offset="1" stop-color="#e8eaee"/></linearGradient><path fill="url(#6Tc2WYzBaRtmqhxug9n92e)" d="M35.65,30.882l-2.121,2.121L2.915,2.39C6.57,3.216,9.517,4.749,13.25,8.482L35.65,30.882z"/><path fill="#dfe1e6" d="M13.013,8.947c-3.435-3.435-6.221-5.032-9.47-5.93L2.915,2.39C6.57,3.216,9.517,4.749,13.25,8.482	l22.4,22.4l-0.351,0.351L13.013,8.947z"/><linearGradient id="6Tc2WYzBaRtmqhxug9n92f" x1="25.898" x2="16.142" y1="43.197" y2="34.12" gradientTransform="matrix(-1 0 0 1 49.775 -.25)" gradientUnits="userSpaceOnUse"><stop offset="0" stop-color="#e4b848"/><stop offset=".404" stop-color="#c39438"/><stop offset=".771" stop-color="#ab7a2d"/><stop offset=".989" stop-color="#a27029"/></linearGradient><path fill="url(#6Tc2WYzBaRtmqhxug9n92f)" d="M27.664,41.281c2.129-2.916,4.659-5.143,7.778-6.364l-2.828-2.828l-7.071,7.071L27.664,41.281	z"/><linearGradient id="6Tc2WYzBaRtmqhxug9n92g" x1="12.811" x2="18.067" y1="30.217" y2="37.758" gradientTransform="matrix(-1 0 0 1 49.775 -.25)" gradientUnits="userSpaceOnUse"><stop offset="0" stop-color="#e4b848"/><stop offset=".274" stop-color="#d4a537"/><stop offset=".722" stop-color="#bf8b1f"/><stop offset=".989" stop-color="#b78116"/></linearGradient><path fill="url(#6Tc2WYzBaRtmqhxug9n92g)" d="M41.806,27.139c-2.916,2.129-5.143,4.659-6.364,7.778l-2.828-2.828l7.071-7.071L41.806,27.139	z"/><radialGradient id="6Tc2WYzBaRtmqhxug9n92h" cx="26.18" cy="24.793" r="5.929" gradientUnits="userSpaceOnUse"><stop offset=".055" stop-color="#171714" stop-opacity=".5"/><stop offset="1" stop-color="#171714" stop-opacity="0"/></radialGradient><polygon fill="url(#6Tc2WYzBaRtmqhxug9n92h)" points="16.954,20.672 27.716,31.434 31.959,27.191 21.197,16.429"/><linearGradient id="6Tc2WYzBaRtmqhxug9n92i" x1="9.129" x2="11.792" y1="36.828" y2="39.49" gradientTransform="translate(-.604 -.25)" gradientUnits="userSpaceOnUse"><stop offset="0" stop-color="#c13b33"/><stop offset=".293" stop-color="#c97d6b"/><stop offset=".662" stop-color="#961424"/></linearGradient><polygon fill="url(#6Tc2WYzBaRtmqhxug9n92i)" points="6.158,44.317 3.33,41.488 13.436,31.382 16.265,34.21"/><linearGradient id="6Tc2WYzBaRtmqhxug9n92j" x1="3.842" x2="8.905" y1="41.461" y2="46.471" gradientTransform="translate(-.604 -.25)" gradientUnits="userSpaceOnUse"><stop offset=".158" stop-color="#e4b848"/><stop offset=".236" stop-color="#daac3d"/><stop offset=".457" stop-color="#c18d21"/><stop offset=".582" stop-color="#b88217"/><stop offset=".811" stop-color="#a56f1c"/><stop offset=".989" stop-color="#9b661e"/></linearGradient><polygon fill="url(#6Tc2WYzBaRtmqhxug9n92j)" points="6.158,45.731 1.915,41.488 4.244,40.574 7.072,43.403"/><path fill="#9b661e" d="M1.935,41.508c0.15,1.027,0.604,2.018,1.395,2.809s1.782,1.244,2.809,1.395L1.935,41.508z"/><radialGradient id="6Tc2WYzBaRtmqhxug9n92k" cx="13.026" cy="34.812" r="3.749" gradientUnits="userSpaceOnUse"><stop offset="0" stop-color="#590e1b"/><stop offset=".124" stop-color="#650f1d" stop-opacity=".876"/><stop offset=".466" stop-color="#801221" stop-opacity=".534"/><stop offset=".769" stop-color="#901323" stop-opacity=".231"/><stop offset="1" stop-color="#961424" stop-opacity="0"/></radialGradient><polygon fill="url(#6Tc2WYzBaRtmqhxug9n92k)" points="11.594,38.881 16.265,34.21 13.436,31.382 8.766,36.052"/><linearGradient id="6Tc2WYzBaRtmqhxug9n92l" x1="30.864" x2="41.48" y1="18.31" y2="28.182" gradientTransform="translate(-.604 -.25)" gradientUnits="userSpaceOnUse"><stop offset="0" stop-color="#87909b"/><stop offset=".291" stop-color="#a7adb7"/><stop offset="1" stop-color="#e8eaee"/></linearGradient><path fill="url(#6Tc2WYzBaRtmqhxug9n92l)" d="M16.765,35.124l-2.121-2.121L45.256,2.39c-0.826,3.654-2.359,6.601-6.092,10.334 L16.765,35.124z"/><path fill="#87909b" d="M44.334,3.312c-0.888,3.137-2.463,5.844-5.792,9.173L16.334,34.694l0.431,0.431l22.4-22.4 c3.733-3.733,5.266-6.68,6.092-10.334L44.334,3.312z"/><linearGradient id="6Tc2WYzBaRtmqhxug9n92m" x1="16.981" x2="40.413" y1="5.522" y2="26.973" gradientTransform="translate(-.604 -.25)" gradientUnits="userSpaceOnUse"><stop offset="0" stop-color="#87909b"/><stop offset=".51" stop-color="#a7adb7"/><stop offset="1" stop-color="#e8eaee"/></linearGradient><path fill="url(#6Tc2WYzBaRtmqhxug9n92m)" d="M12.522,30.882l2.121,2.121L45.256,2.39c-3.654,0.826-6.601,2.359-10.334,6.092 L12.522,30.882z"/><path fill="#bdc2ca" d="M35.159,8.947c3.435-3.435,6.221-5.032,9.47-5.93l0.627-0.627 c-3.654,0.826-6.601,2.359-10.334,6.092l-22.4,22.4l0.351,0.351L35.159,8.947z"/><linearGradient id="6Tc2WYzBaRtmqhxug9n92n" x1="24.898" x2="15.142" y1="43.197" y2="34.12" gradientTransform="translate(-.604 -.25)" gradientUnits="userSpaceOnUse"><stop offset="0" stop-color="#e4b848"/><stop offset=".404" stop-color="#c39438"/><stop offset=".771" stop-color="#ab7a2d"/><stop offset=".989" stop-color="#a27029"/></linearGradient><path fill="url(#6Tc2WYzBaRtmqhxug9n92n)" d="M20.507,41.281c-2.129-2.916-4.659-5.143-7.778-6.364l2.828-2.828l7.071,7.071 L20.507,41.281z"/><linearGradient id="6Tc2WYzBaRtmqhxug9n92o" x1="11.811" x2="17.067" y1="30.217" y2="37.758" gradientTransform="translate(-.604 -.25)" gradientUnits="userSpaceOnUse"><stop offset="0" stop-color="#e4b848"/><stop offset=".274" stop-color="#d4a537"/><stop offset=".722" stop-color="#bf8b1f"/><stop offset=".989" stop-color="#b78116"/></linearGradient><path fill="url(#6Tc2WYzBaRtmqhxug9n92o)" d="M6.365,27.139c2.916,2.129,5.143,4.659,6.364,7.778l2.828-2.828l-7.071-7.071L6.365,27.139z"/><linearGradient id="6Tc2WYzBaRtmqhxug9n92p" x1="32.915" x2="34.978" y1="32.423" y2="35.383" gradientUnits="userSpaceOnUse"><stop offset="0" stop-color="#e4b848"/><stop offset=".274" stop-color="#d4a537"/><stop offset=".722" stop-color="#bf8b1f"/><stop offset=".989" stop-color="#b78116"/></linearGradient><polygon fill="url(#6Tc2WYzBaRtmqhxug9n92p)" points="40.134,25.466 39.685,25.018 32.614,32.089 25.543,39.16 25.992,39.609"/><linearGradient id="6Tc2WYzBaRtmqhxug9n92q" x1="28.607" x2="30.669" y1="32.423" y2="35.383" gradientTransform="matrix(-1 0 0 1 43.847 0)" gradientUnits="userSpaceOnUse"><stop offset="0" stop-color="#cb9d3c"/><stop offset=".043" stop-color="#ca9b3a"/><stop offset=".636" stop-color="#bc8820"/><stop offset=".989" stop-color="#b78116"/></linearGradient><polygon fill="url(#6Tc2WYzBaRtmqhxug9n92q)" points="8.022,25.466 8.47,25.018 15.541,32.089 22.612,39.16 22.164,39.609"/></svg>