<svg xmlns="http://www.w3.org/2000/svg" viewBox="0 0 48 48"><linearGradient id="O9QhYYLvO35woi41UCf_ka" x1="19.121" x2="28.121" y1="24.379" y2="24.379" gradientTransform="rotate(45.001 21.5 22)" gradientUnits="userSpaceOnUse"><stop offset="0" stop-color="#c6c6c6"/><stop offset="1" stop-color="#a5a4a4"/></linearGradient><path fill="url(#O9QhYYLvO35woi41UCf_ka)" d="M13.54,39.324l21.089-21.089c0.459-0.459,0.459-1.203,0-1.662l-4.702-4.702	c-0.459-0.459-1.203-0.459-1.662,0L7.176,32.96L13.54,39.324z"/><linearGradient id="O9QhYYLvO35woi41UCf_kb" x1="18.887" x2="26.948" y1="24.682" y2="24.682" gradientTransform="rotate(45.001 21.5 22)" gradientUnits="userSpaceOnUse"><stop offset=".036" stop-color="#eaeaea"/><stop offset=".79" stop-color="#adadad"/><stop offset="1" stop-color="#c1c1c1"/></linearGradient><path fill="url(#O9QhYYLvO35woi41UCf_kb)" d="M13.186,38.971l21.018-21.018c0.262-0.262,0.262-0.686,0-0.948l-4.709-4.709	c-0.262-0.262-0.686-0.262-0.948,0L7.529,33.314L13.186,38.971z"/><linearGradient id="O9QhYYLvO35woi41UCf_kc" x1="17.121" x2="30.121" y1="40.379" y2="40.379" gradientTransform="rotate(45.001 21.5 22)" gradientUnits="userSpaceOnUse"><stop offset="0" stop-color="#c6c6c6"/><stop offset="1" stop-color="#a5a4a4"/></linearGradient><polygon fill="url(#O9QhYYLvO35woi41UCf_kc)" points="14.247,41.445 5.055,32.253 5.762,31.546 14.954,40.738"/><linearGradient id="O9QhYYLvO35woi41UCf_kd" x1="19.121" x2="28.121" y1="49.379" y2="49.379" gradientTransform="rotate(45.001 21.5 22)" gradientUnits="userSpaceOnUse"><stop offset="0" stop-color="#dddbdb"/><stop offset=".36" stop-color="#d9dbdd"/><stop offset="1" stop-color="#969595"/></linearGradient><polygon fill="url(#O9QhYYLvO35woi41UCf_kd)" points="6.469,46.395 0.105,40.031 0.812,39.324 7.176,45.688"/><linearGradient id="O9QhYYLvO35woi41UCf_ke" x1="21.121" x2="26.121" y1="44.879" y2="44.879" gradientTransform="rotate(45.001 21.5 22)" gradientUnits="userSpaceOnUse"><stop offset="0" stop-color="#c6c6c6"/><stop offset="1" stop-color="#a5a4a4"/></linearGradient><polygon fill="url(#O9QhYYLvO35woi41UCf_ke)" points="5.055,43.567 2.933,41.445 7.883,35.081 11.419,38.617"/><linearGradient id="O9QhYYLvO35woi41UCf_kf" x1="21.439" x2="25.803" y1="8.379" y2="8.379" gradientTransform="rotate(45.001 21.5 22)" gradientUnits="userSpaceOnUse"><stop offset="0" stop-color="#1fd9f7"/><stop offset=".707" stop-color="#0fa9d6"/><stop offset="1" stop-color="#0a9acb"/></linearGradient><path fill="url(#O9QhYYLvO35woi41UCf_kf)" d="M33.491,15.435l-2.425-2.425c-0.182-0.182-0.182-0.478,0-0.661l0.046-0.046	c0.182-0.182,0.478-0.182,0.661,0l2.425,2.425c0.182,0.182,0.182,0.478,0,0.661l-0.046,0.046	C33.969,15.617,33.673,15.617,33.491,15.435z"/><linearGradient id="O9QhYYLvO35woi41UCf_kg" x1="22.134" x2="25.116" y1="5.76" y2="6.093" gradientTransform="rotate(45.001 21.5 22)" gradientUnits="userSpaceOnUse"><stop offset="0" stop-color="#1fd9f7"/><stop offset=".288" stop-color="#92f2ff"/><stop offset=".707" stop-color="#0fa9d6"/><stop offset="1" stop-color="#0a9acb"/></linearGradient><path fill="url(#O9QhYYLvO35woi41UCf_kg)" d="M34.046,14.575l-2.121-2.121l3.085-2.264c0.109-0.071,0.252-0.056,0.344,0.036l0.909,0.909	c0.091,0.091,0.107,0.234,0.036,0.343L34.046,14.575z"/><linearGradient id="O9QhYYLvO35woi41UCf_kh" x1="23.121" x2="24.121" y1="-3.121" y2="-3.121" gradientTransform="rotate(45.001 21.5 22)" gradientUnits="userSpaceOnUse"><stop offset="0" stop-color="#c6c6c6"/><stop offset=".355" stop-color="#e8e2e2"/><stop offset="1" stop-color="#8e8b8b"/></linearGradient><polygon fill="url(#O9QhYYLvO35woi41UCf_kh)" points="46.067,1.14 43.945,1.847 35.46,10.333 36.167,11.04"/><linearGradient id="O9QhYYLvO35woi41UCf_ki" x1="23.607" x2="23.607" y1="25.879" y2="22.803" gradientTransform="rotate(45.001 21.5 22)" gradientUnits="userSpaceOnUse"><stop offset="0" stop-color="#393938"/><stop offset=".999" stop-color="#171714"/></linearGradient><polygon fill="url(#O9QhYYLvO35woi41UCf_ki)" points="22.392,29.791 16.688,24.087 18.102,22.673 23.806,28.377"/><linearGradient id="O9QhYYLvO35woi41UCf_kj" x1="19.573" x2="27.64" y1="17.19" y2="17.19" gradientTransform="rotate(45.001 21.5 22)" gradientUnits="userSpaceOnUse"><stop offset="0" stop-color="#9ae6f7"/><stop offset=".126" stop-color="#97e5f6"/><stop offset=".236" stop-color="#8ce0f3"/><stop offset=".342" stop-color="#7ad8ef"/><stop offset=".443" stop-color="#60cde9"/><stop offset=".543" stop-color="#3fbfe1"/><stop offset=".639" stop-color="#18aed7"/><stop offset=".671" stop-color="#09a8d3"/><stop offset="1" stop-color="#61adc5"/></linearGradient><path fill="url(#O9QhYYLvO35woi41UCf_kj)" d="M23.806,28.377l-5.704-5.704l10.425-10.425c0.248-0.248,0.649-0.248,0.897,0l4.807,4.807	c0.248,0.248,0.248,0.649,0,0.897L23.806,28.377z"/><line x1="27.43" x2="29.438" y1="13.345" y2="15.354" fill="none" stroke="#383837" stroke-miterlimit="10" stroke-width=".3"/><line x1="26.503" x2="27.645" y1="14.273" y2="15.415" fill="none" stroke="#383837" stroke-miterlimit="10" stroke-width=".3"/><line x1="25.575" x2="26.718" y1="15.2" y2="16.342" fill="none" stroke="#383837" stroke-miterlimit="10" stroke-width=".3"/><line x1="24.648" x2="26.657" y1="16.127" y2="18.136" fill="none" stroke="#383837" stroke-miterlimit="10" stroke-width=".3"/><line x1="23.721" x2="24.863" y1="17.054" y2="18.197" fill="none" stroke="#383837" stroke-miterlimit="10" stroke-width=".3"/><line x1="22.794" x2="23.936" y1="17.982" y2="19.124" fill="none" stroke="#383837" stroke-miterlimit="10" stroke-width=".3"/><line x1="21.867" x2="23.875" y1="18.909" y2="20.917" fill="none" stroke="#383837" stroke-miterlimit="10" stroke-width=".3"/><line x1="20.939" x2="22.082" y1="19.836" y2="20.979" fill="none" stroke="#383837" stroke-miterlimit="10" stroke-width=".3"/><line x1="20.012" x2="21.155" y1="20.763" y2="21.906" fill="none" stroke="#383837" stroke-miterlimit="10" stroke-width=".3"/><line x1="19.085" x2="21.093" y1="21.691" y2="23.699" fill="none" stroke="#383837" stroke-miterlimit="10" stroke-width=".3"/><linearGradient id="O9QhYYLvO35woi41UCf_kk" x1="18.795" x2="22.223" y1="24.698" y2="24.698" gradientTransform="rotate(45.001 21.5 22)" gradientUnits="userSpaceOnUse"><stop offset="0" stop-color="#fff" stop-opacity=".7"/><stop offset="1" stop-color="#fff" stop-opacity="0"/></linearGradient><path fill="url(#O9QhYYLvO35woi41UCf_kk)" d="M9.909,35.716L31.4,14.224l-1.984-1.984c-0.243-0.243-0.637-0.243-0.88,0L7.484,33.291	L9.909,35.716z"/><linearGradient id="O9QhYYLvO35woi41UCf_kl" x1="23.401" x2="26.829" y1="24.703" y2="24.703" gradientTransform="rotate(45.001 21.5 22)" gradientUnits="userSpaceOnUse"><stop offset="0" stop-color="#fff" stop-opacity="0"/><stop offset=".503" stop-color="#fff" stop-opacity=".5"/><stop offset=".999" stop-color="#fff" stop-opacity="0"/></linearGradient><path fill="url(#O9QhYYLvO35woi41UCf_kl)" d="M12.77,38.585l21.492-21.492l-1.984-1.984c-0.243-0.243-0.637-0.243-0.88,0L10.346,36.161	L12.77,38.585z"/><rect width="1" height="8" x="6.322" y="35.678" fill="#d0d0d0" transform="rotate(-134.999 6.822 39.678)"/><linearGradient id="O9QhYYLvO35woi41UCf_km" x1="23.621" x2="23.621" y1="39.209" y2="44.209" gradientTransform="rotate(45.001 21.5 22)" gradientUnits="userSpaceOnUse"><stop offset="0" stop-color="#171714" stop-opacity=".7"/><stop offset="1" stop-color="#171714" stop-opacity="0"/></linearGradient><polygon fill="url(#O9QhYYLvO35woi41UCf_km)" points="8.084,41.21 11.419,38.617 7.883,35.081 5.29,38.416"/><radialGradient id="O9QhYYLvO35woi41UCf_kn" cx="44.733" cy="6.769" r="1.976" gradientTransform="matrix(1 0 0 1.7292 0 -4.936)" gradientUnits="userSpaceOnUse"><stop offset=".036" stop-color="#d9e7f2"/><stop offset=".71" stop-color="#09a8d3"/><stop offset=".936" stop-color="#61adc5"/><stop offset=".973" stop-color="#63b1c9"/></radialGradient><path fill="url(#O9QhYYLvO35woi41UCf_kn)" d="M45.75,4c-0.276,1.192-1.25,2.998-1.25,3.75C44.498,8.301,44.93,9,45.75,9	S47.002,8.301,47,7.75C47,6.998,46.043,5.192,45.75,4z"/><radialGradient id="O9QhYYLvO35woi41UCf_ko" cx="42.826" cy="13.877" r="2.767" gradientTransform="matrix(1 0 0 1.7292 0 -10.118)" gradientUnits="userSpaceOnUse"><stop offset=".036" stop-color="#d9e7f2"/><stop offset=".71" stop-color="#09a8d3"/><stop offset=".936" stop-color="#61adc5"/><stop offset=".973" stop-color="#63b1c9"/></radialGradient><path fill="url(#O9QhYYLvO35woi41UCf_ko)" d="M44.25,10c-0.386,1.669-1.75,4.197-1.75,5.25C42.497,16.022,43.102,17,44.25,17	s1.753-0.978,1.75-1.75C46,14.197,44.66,11.669,44.25,10z"/></svg>