<svg xmlns="http://www.w3.org/2000/svg" viewBox="0 0 48 48"><linearGradient id="_b1yagOPsVVWLCZ5TZO3Ga" x1="23.812" x2="23.812" y1="53.339" y2="-2.241" gradientUnits="userSpaceOnUse"><stop offset="0" stop-color="#66502e"/><stop offset=".287" stop-color="#69512e"/><stop offset=".458" stop-color="#71562e"/><stop offset=".6" stop-color="#7f5e2f"/><stop offset=".725" stop-color="#936930"/><stop offset=".839" stop-color="#ae7830"/><stop offset=".943" stop-color="#cd8932"/><stop offset=".982" stop-color="#db9132"/></linearGradient><path fill="url(#_b1yagOPsVVWLCZ5TZO3Ga)" d="M13.82,16.129C5.286,23.218,2.359,31.743,7.932,36.938 c5.572,5.195,16.789,4.497,26.067-1.996c3.947-2.762,7.242-6.177,8.257-9.346c0.529-1.652,0.492-3.398-1.538-3.761 c-2.146-0.383-3.447,1.203-4.735,1.76c-1.908,0.826-2.844-0.663-0.626-3.121c2.327-2.579,5.247-3.926,5.352-6.695 C40.998,6.108,24.278,7.44,13.82,16.129z M29.167,22.781c-1.714,0.742-3.515,0.392-4.023-0.782 c-0.508-1.174,0.469-2.727,2.183-3.469c1.714-0.742,3.515-0.392,4.023,0.782C31.859,20.486,30.881,22.039,29.167,22.781z"/><linearGradient id="_b1yagOPsVVWLCZ5TZO3Gb" x1="37.689" x2="8.564" y1="9.899" y2="37.356" gradientTransform="rotate(-23.408 22.74 19.084)" gradientUnits="userSpaceOnUse"><stop offset="0" stop-color="#ffc973"/><stop offset=".287" stop-color="#f2b963"/><stop offset=".847" stop-color="#d29139"/><stop offset=".986" stop-color="#c9862e"/></linearGradient><path fill="url(#_b1yagOPsVVWLCZ5TZO3Gb)" d="M13.82,15.152C5.286,22.242,2.359,30.766,7.932,35.961 c5.572,5.195,16.789,4.497,26.067-1.996c3.947-2.762,7.242-6.177,8.257-9.346c0.529-1.652,0.492-3.398-1.538-3.761 c-2.146-0.383-3.447,1.203-4.735,1.76c-1.908,0.826-2.844-0.663-0.626-3.121c2.327-2.579,5.247-3.926,5.352-6.695 C40.998,5.131,24.278,6.464,13.82,15.152z M29.167,21.805c-1.714,0.742-3.515,0.392-4.023-0.782 c-0.508-1.174,0.469-2.727,2.183-3.469c1.714-0.742,3.515-0.392,4.023,0.782C31.859,19.51,30.881,21.063,29.167,21.805z"/><ellipse cx="27.179" cy="32.075" fill="#45311a" opacity=".54" rx="3.95" ry="2.784" transform="rotate(-35.234 27.182 32.078)"/><radialGradient id="_b1yagOPsVVWLCZ5TZO3Gc" cx="28.061" cy="29.84" r="4.665" fx="27.425" fy="29.796" gradientTransform="matrix(-.6076 .7943 -.6414 -.4906 64.248 22.191)" gradientUnits="userSpaceOnUse"><stop offset=".431" stop-color="#de1300"/><stop offset=".546" stop-color="#d71302"/><stop offset=".716" stop-color="#c31408"/><stop offset=".917" stop-color="#a31511"/><stop offset="1" stop-color="#941515"/></radialGradient><path fill="url(#_b1yagOPsVVWLCZ5TZO3Gc)" d="M30.405,29.345c0.887,1.256,0.162,3.294-1.62,4.552c-1.782,1.258-3.945,1.261-4.832,0.005 s-0.162-3.294,1.62-4.552C27.355,28.092,29.518,28.089,30.405,29.345z"/><radialGradient id="_b1yagOPsVVWLCZ5TZO3Gd" cx="26.803" cy="31.631" r="4.052" gradientUnits="userSpaceOnUse"><stop offset=".137" stop-color="#de1300"/><stop offset=".312" stop-color="#d71302"/><stop offset=".569" stop-color="#c31408"/><stop offset=".874" stop-color="#a31511"/><stop offset="1" stop-color="#941515"/></radialGradient><path fill="url(#_b1yagOPsVVWLCZ5TZO3Gd)" d="M24.598,33.331c-0.714-1.011-0.13-2.652,1.304-3.665c1.434-1.013,3.176-1.015,3.89-0.004 c0.714,1.011,0.13,2.652-1.304,3.665C27.054,34.34,25.312,34.342,24.598,33.331z"/><radialGradient id="_b1yagOPsVVWLCZ5TZO3Ge" cx="27.233" cy="35.604" r="3.353" gradientTransform="matrix(-.7517 .6595 -.4675 -.5329 64.243 32.297)" gradientUnits="userSpaceOnUse"><stop offset=".125" stop-color="#ffcf4d" stop-opacity="0"/><stop offset=".316" stop-color="#ffce51" stop-opacity=".205"/><stop offset=".504" stop-color="#ffcc5d" stop-opacity=".407"/><stop offset=".691" stop-color="#ffc771" stop-opacity=".608"/><stop offset=".876" stop-color="#ffc18c" stop-opacity=".806"/><stop offset="1" stop-color="#ffbca3" stop-opacity=".94"/><stop offset="1" stop-color="#ffd680"/></radialGradient><path fill="url(#_b1yagOPsVVWLCZ5TZO3Ge)" d="M25.671,33.41c-1.351-0.489-1.229-1.743-1.07-2.496 c-0.525,1.042-0.479,2.162,0.211,2.761c0.874,0.759,2.656,0.576,3.708-0.636C28.521,33.039,27.201,33.963,25.671,33.41z" opacity=".79"/><ellipse cx="15.919" cy="33.887" fill="#45311a" opacity=".54" rx="3.95" ry="2.784" transform="rotate(-26.047 15.919 33.888)"/><radialGradient id="_b1yagOPsVVWLCZ5TZO3Gf" cx="16.876" cy="31.432" r="4.665" fx="16.24" fy="31.388" gradientTransform="matrix(-.7266 .6871 -.5548 -.5867 46.846 38.669)" gradientUnits="userSpaceOnUse"><stop offset=".148" stop-color="#ffcf14"/><stop offset=".321" stop-color="#fccc14"/><stop offset=".47" stop-color="#f2c115"/><stop offset=".611" stop-color="#e2af16"/><stop offset=".745" stop-color="#cc9617"/><stop offset=".875" stop-color="#af7719"/><stop offset="1" stop-color="#8c501b"/></radialGradient><path fill="url(#_b1yagOPsVVWLCZ5TZO3Gf)" d="M19.539,31.707c0.675,1.381-0.366,3.277-2.326,4.235s-4.096,0.615-4.771-0.767 s0.366-3.277,2.326-4.235C16.728,29.983,18.864,30.326,19.539,31.707z"/><radialGradient id="_b1yagOPsVVWLCZ5TZO3Gg" cx="15.279" cy="33.52" r="4.081" gradientTransform="matrix(-.8474 .5309 -.4167 -.665 42.15 47.808)" gradientUnits="userSpaceOnUse"><stop offset=".148" stop-color="#ffcf14"/><stop offset=".321" stop-color="#fccc14"/><stop offset=".47" stop-color="#f2c115"/><stop offset=".611" stop-color="#e2af16"/><stop offset=".745" stop-color="#cc9617"/><stop offset=".875" stop-color="#af7719"/><stop offset="1" stop-color="#8c501b"/></radialGradient><path fill="url(#_b1yagOPsVVWLCZ5TZO3Gg)" d="M13.17,34.715c-0.544-1.112,0.295-2.639,1.873-3.41c1.578-0.771,3.298-0.495,3.841,0.617 s-0.295,2.639-1.873,3.41C15.433,36.103,13.713,35.827,13.17,34.715z"/><radialGradient id="_b1yagOPsVVWLCZ5TZO3Gh" cx="15.966" cy="34.773" r="3.353" gradientTransform="matrix(-.8474 .5309 -.3764 -.6007 42.61 45.509)" gradientUnits="userSpaceOnUse"><stop offset=".125" stop-color="#ffcf4d" stop-opacity="0"/><stop offset=".276" stop-color="#ffd051" stop-opacity=".172"/><stop offset=".424" stop-color="#ffd45d" stop-opacity=".342"/><stop offset=".572" stop-color="#ffd971" stop-opacity=".51"/><stop offset=".719" stop-color="#ffe28c" stop-opacity=".678"/><stop offset=".864" stop-color="#ffecb0" stop-opacity=".844"/><stop offset="1" stop-color="#fff8d8"/></radialGradient><path fill="url(#_b1yagOPsVVWLCZ5TZO3Gh)" d="M14.217,34.964c-1.256-0.698-0.935-1.917-0.658-2.635 c-0.684,0.945-0.818,2.058-0.232,2.759c0.742,0.889,2.53,0.993,3.762-0.035C17.089,35.053,15.639,35.754,14.217,34.964z" opacity=".8"/><ellipse cx="11.43" cy="26.438" fill="#45311a" opacity=".54" rx="3.95" ry="2.784" transform="rotate(-38.46 11.43 26.44)"/><radialGradient id="_b1yagOPsVVWLCZ5TZO3Gi" cx="10.868" cy="24.799" r="4.665" fx="10.232" fy="24.755" gradientTransform="matrix(-.5619 .8272 -.668 -.4537 34.856 26.418)" gradientUnits="userSpaceOnUse"><stop offset=".165" stop-color="#82e012"/><stop offset=".316" stop-color="#80dd12"/><stop offset=".445" stop-color="#7cd213"/><stop offset=".567" stop-color="#74c014"/><stop offset=".684" stop-color="#68a716"/><stop offset=".796" stop-color="#5a8818"/><stop offset=".905" stop-color="#48611b"/></radialGradient><path fill="url(#_b1yagOPsVVWLCZ5TZO3Gi)" d="M14.497,23.531c0.956,1.204,0.347,3.279-1.361,4.636c-1.708,1.357-3.868,1.481-4.824,0.277 s-0.347-3.279,1.361-4.636C11.381,22.452,13.541,22.328,14.497,23.531z"/><radialGradient id="_b1yagOPsVVWLCZ5TZO3Gj" cx="9.512" cy="26.632" r="4.052" gradientTransform="matrix(-.7554 .6552 -.5702 -.6574 33.306 37.34)" gradientUnits="userSpaceOnUse"><stop offset=".165" stop-color="#82e012"/><stop offset=".316" stop-color="#80dd12"/><stop offset=".445" stop-color="#7cd213"/><stop offset=".567" stop-color="#74c014"/><stop offset=".684" stop-color="#68a716"/><stop offset=".796" stop-color="#5a8818"/><stop offset=".905" stop-color="#48611b"/></radialGradient><path fill="url(#_b1yagOPsVVWLCZ5TZO3Gj)" d="M8.923,27.838c-0.77-0.969-0.279-2.641,1.096-3.733c1.375-1.092,3.114-1.192,3.884-0.223 c0.77,0.969,0.279,2.641-1.096,3.733C11.432,28.707,9.693,28.807,8.923,27.838z"/><radialGradient id="_b1yagOPsVVWLCZ5TZO3Gk" cx="11.512" cy="27.01" r="3.353" gradientTransform="matrix(-.7134 .7007 -.4967 -.5057 32.963 31.244)" gradientUnits="userSpaceOnUse"><stop offset=".125" stop-color="#ffcf4d" stop-opacity="0"/><stop offset=".313" stop-color="#fdd151" stop-opacity=".215"/><stop offset=".498" stop-color="#f6d65d" stop-opacity=".426"/><stop offset=".681" stop-color="#ebde71" stop-opacity=".636"/><stop offset=".863" stop-color="#dcea8c" stop-opacity=".844"/><stop offset="1" stop-color="#cdf5a6"/></radialGradient><path fill="url(#_b1yagOPsVVWLCZ5TZO3Gk)" d="M9.999,27.856c-1.377-0.412-1.325-1.671-1.209-2.432 c-0.465,1.07-0.356,2.185,0.367,2.745c0.916,0.709,2.684,0.425,3.667-0.844C12.824,27.326,11.558,28.322,9.999,27.856z" opacity=".8"/><ellipse cx="17.648" cy="18.222" fill="#45311a" opacity=".54" rx="3.95" ry="2.784" transform="rotate(-28.634 17.648 18.222)"/><radialGradient id="_b1yagOPsVVWLCZ5TZO3Gl" cx="17.196" cy="17.075" r="5.936" fx="16.387" fy="17.019" gradientTransform="matrix(-.6949 .7191 -.5807 -.5611 40.12 13.27)" gradientUnits="userSpaceOnUse"><stop offset=".116" stop-color="#1291e0"/><stop offset=".349" stop-color="#1290de"/><stop offset=".48" stop-color="#138bd5"/><stop offset=".586" stop-color="#1483c8"/><stop offset=".678" stop-color="#1577b4"/><stop offset=".762" stop-color="#17689a"/><stop offset=".838" stop-color="#19567b"/><stop offset=".891" stop-color="#1b4661"/></radialGradient><path fill="url(#_b1yagOPsVVWLCZ5TZO3Gl)" d="M21.167,15.881c0.737,1.349-0.218,3.291-2.133,4.336c-1.915,1.045-4.064,0.799-4.8-0.551 s0.218-3.291,2.133-4.336S20.43,14.532,21.167,15.881z"/><radialGradient id="_b1yagOPsVVWLCZ5TZO3Gm" cx="15.931" cy="19.636" r="5.43" gradientTransform="matrix(-.686 .7276 -.5145 -.485 37.735 16.385)" gradientUnits="userSpaceOnUse"><stop offset=".116" stop-color="#1291e0"/><stop offset=".349" stop-color="#1290de"/><stop offset=".48" stop-color="#138bd5"/><stop offset=".586" stop-color="#1483c8"/><stop offset=".678" stop-color="#1577b4"/><stop offset=".762" stop-color="#17689a"/><stop offset=".838" stop-color="#19567b"/><stop offset=".891" stop-color="#1b4661"/></radialGradient><path fill="url(#_b1yagOPsVVWLCZ5TZO3Gm)" d="M14.939,19.173c-0.593-1.086,0.176-2.649,1.717-3.491c1.541-0.842,3.272-0.643,3.865,0.443 c0.593,1.086-0.176,2.649-1.717,3.491C17.263,20.458,15.532,20.26,14.939,19.173z"/><radialGradient id="_b1yagOPsVVWLCZ5TZO3Gn" cx="19.86" cy="20.914" r="3.353" gradientTransform="matrix(-.8226 .5686 -.4031 -.5831 42.455 18.332)" gradientUnits="userSpaceOnUse"><stop offset=".125" stop-color="#ffcf4d" stop-opacity="0"/><stop offset=".258" stop-color="#fccf51" stop-opacity=".153"/><stop offset=".389" stop-color="#f4d15d" stop-opacity=".303"/><stop offset=".519" stop-color="#e6d371" stop-opacity=".452"/><stop offset=".648" stop-color="#d2d68c" stop-opacity=".601"/><stop offset=".777" stop-color="#b8dab0" stop-opacity=".749"/><stop offset=".904" stop-color="#9adfdb" stop-opacity=".895"/><stop offset=".995" stop-color="#80e3ff"/></radialGradient><path fill="url(#_b1yagOPsVVWLCZ5TZO3Gn)" d="M15.997,19.374c-1.286-0.641-1.021-1.873-0.776-2.602 c-0.641,0.975-0.724,2.093-0.107,2.767c0.781,0.855,2.572,0.877,3.757-0.205C18.87,19.334,17.453,20.1,15.997,19.374z" opacity=".8"/><ellipse cx="27.704" cy="13.044" fill="#45311a" opacity=".54" rx="3.95" ry="2.784" transform="rotate(-10.125 27.709 13.045)"/><radialGradient id="_b1yagOPsVVWLCZ5TZO3Go" cx="27.281" cy="10.779" r="4.665" fx="26.645" fy="10.735" gradientTransform="matrix(-.8872 .4614 -.3726 -.7164 57.67 6.529)" gradientUnits="userSpaceOnUse"><stop offset=".116" stop-color="#8044ff"/><stop offset=".35" stop-color="#7f43fd"/><stop offset=".482" stop-color="#7c41f4"/><stop offset=".589" stop-color="#763ee7"/><stop offset=".682" stop-color="#6e3ad3"/><stop offset=".766" stop-color="#6433b9"/><stop offset=".843" stop-color="#582c9a"/><stop offset=".887" stop-color="#4f2785"/></radialGradient><path fill="url(#_b1yagOPsVVWLCZ5TZO3Go)" d="M31.784,11.941c0.27,1.513-1.251,3.051-3.399,3.435c-2.147,0.384-4.107-0.532-4.377-2.046 c-0.27-1.513,1.251-3.051,3.399-3.435S31.513,10.427,31.784,11.941z"/><radialGradient id="_b1yagOPsVVWLCZ5TZO3Gp" cx="25.635" cy="13.543" r="4.941" gradientTransform="matrix(-.8815 .4723 -.2929 -.5467 53.351 8.495)" gradientUnits="userSpaceOnUse"><stop offset=".116" stop-color="#8044ff"/><stop offset=".35" stop-color="#7f43fd"/><stop offset=".482" stop-color="#7c41f4"/><stop offset=".589" stop-color="#763ee7"/><stop offset=".682" stop-color="#6e3ad3"/><stop offset=".766" stop-color="#6433b9"/><stop offset=".843" stop-color="#582c9a"/><stop offset=".887" stop-color="#4f2785"/></radialGradient><path fill="url(#_b1yagOPsVVWLCZ5TZO3Gp)" d="M24.834,13.086c-0.218-1.219,1.007-2.457,2.736-2.765c1.729-0.309,3.307,0.429,3.525,1.647 c0.218,1.219-1.007,2.457-2.736,2.765S25.051,14.304,24.834,13.086z"/><radialGradient id="_b1yagOPsVVWLCZ5TZO3Gq" cx="30.538" cy="16.816" r="3.353" gradientTransform="matrix(-.9605 .2781 -.1972 -.6809 60.642 15.262)" gradientUnits="userSpaceOnUse"><stop offset=".125" stop-color="#ffcf4d" stop-opacity="0"/><stop offset=".249" stop-color="#fdce51" stop-opacity=".159"/><stop offset=".372" stop-color="#f7c95d" stop-opacity=".316"/><stop offset=".493" stop-color="#ecc271" stop-opacity=".472"/><stop offset=".614" stop-color="#deb88c" stop-opacity=".627"/><stop offset=".735" stop-color="#cbacb0" stop-opacity=".782"/><stop offset=".854" stop-color="#b59cdb" stop-opacity=".935"/><stop offset=".905" stop-color="#aa95f0"/></radialGradient><path fill="url(#_b1yagOPsVVWLCZ5TZO3Gq)" d="M25.773,13.612c-1.016-1.016-0.373-2.1,0.09-2.714 c-0.917,0.721-1.351,1.755-0.98,2.59c0.469,1.058,2.161,1.649,3.628,0.998C28.51,14.486,26.923,14.763,25.773,13.612z" opacity=".8"/></svg>