<svg xmlns="http://www.w3.org/2000/svg" viewBox="0 0 48 48"><linearGradient id="TlngT1~6g0WRqYw8_i1W1a" x1="92" x2="92" y1="43" y2="85" gradientTransform="rotate(180 58 44)" gradientUnits="userSpaceOnUse"><stop offset="0" stop-color="#a16027"/><stop offset=".07" stop-color="#c98633"/><stop offset=".93" stop-color="#c98633"/><stop offset="1" stop-color="#a16027"/></linearGradient><path fill="url(#TlngT1~6g0WRqYw8_i1W1a)" d="M14,4v40c0,0.552,0.448,1,1,1h18c0.552,0,1-0.448,1-1V4c0-0.552-0.448-1-1-1H15	C14.448,3,14,3.448,14,4z"/><radialGradient id="TlngT1~6g0WRqYw8_i1W1b" cx="24.057" cy="24" r="17.859" gradientUnits="userSpaceOnUse"><stop offset=".798" stop-color="#542a13"/><stop offset=".989" stop-color="#c98633"/></radialGradient><path fill="url(#TlngT1~6g0WRqYw8_i1W1b)" d="M34,42V6H14v36H34z"/><linearGradient id="TlngT1~6g0WRqYw8_i1W1c" x1="7.5" x2="7.5" y1="26.866" y2="21.119" gradientUnits="userSpaceOnUse"><stop offset=".001" stop-color="#141414"/><stop offset=".051" stop-color="#333"/><stop offset=".134" stop-color="#141414"/><stop offset=".222" stop-color="#3d3d3d"/><stop offset=".342" stop-color="#242424"/><stop offset=".501" stop-color="#5c5c5c"/><stop offset=".65" stop-color="#242424"/><stop offset=".767" stop-color="#3d3d3d"/><stop offset=".879" stop-color="#141414"/><stop offset=".957" stop-color="#333"/><stop offset="1" stop-color="#141414"/></linearGradient><path fill="url(#TlngT1~6g0WRqYw8_i1W1c)" d="M8,27H7c-0.552,0-1-0.448-1-1v-4c0-0.552,0.448-1,1-1h1c0.552,0,1,0.448,1,1v4	C9,26.552,8.552,27,8,27z"/><g opacity=".72"><line x1="32.5" x2="32.5" y1="11.712" y2="11.212" fill="none" stroke="#9e651b" stroke-linecap="round" stroke-linejoin="round"/><line x1="32.5" x2="32.5" y1="9.881" y2="5.666" fill="none" stroke="#9e651b" stroke-dasharray="1.1093,1.3312" stroke-linecap="round" stroke-linejoin="round"/><line x1="32.5" x2="32.5" y1="5" y2="4.5" fill="none" stroke="#9e651b" stroke-linecap="round" stroke-linejoin="round"/></g><g opacity=".72"><line x1="15.5" x2="15.5" y1="11.712" y2="11.212" fill="none" stroke="#9e651b" stroke-linecap="round" stroke-linejoin="round"/><line x1="15.5" x2="15.5" y1="9.881" y2="5.666" fill="none" stroke="#9e651b" stroke-dasharray="1.1093,1.3312" stroke-linecap="round" stroke-linejoin="round"/><line x1="15.5" x2="15.5" y1="5" y2="4.5" fill="none" stroke="#9e651b" stroke-linecap="round" stroke-linejoin="round"/></g><path fill="#141414" d="M37.296,19L34,16V9.817C34,9.366,34.366,9,34.817,9h0.74c0.42,0,0.771,0.318,0.813,0.735L37.296,19z"/><path fill="#151515" d="M37.267,18.918l-3.248-2.958l-0.001-6.135c0-0.445,0.36-0.805,0.805-0.805h0.727 c0.414,0,0.76,0.313,0.801,0.725L37.267,18.918z"/><path fill="#161616" d="M37.239,18.836l-3.2-2.916l-0.002-6.087c0-0.438,0.355-0.793,0.793-0.793h0.714 c0.407,0,0.749,0.309,0.789,0.714L37.239,18.836z"/><path fill="#171717" d="M37.21,18.754l-3.153-2.874l-0.003-6.039c0-0.432,0.35-0.781,0.781-0.781h0.701 c0.401,0,0.738,0.304,0.777,0.704L37.21,18.754z"/><path fill="#181818" d="M37.182,18.672l-3.105-2.832l-0.004-5.99c0-0.425,0.344-0.77,0.769-0.77h0.688 c0.395,0,0.726,0.3,0.766,0.693L37.182,18.672z"/><path fill="#191919" d="M37.154,18.59l-3.057-2.79l-0.005-5.942c0-0.419,0.339-0.758,0.758-0.758h0.675 c0.389,0,0.715,0.295,0.754,0.682L37.154,18.59z"/><path fill="#1a1a1a" d="M37.125,18.508l-3.009-2.747l-0.006-5.894c0-0.412,0.334-0.746,0.746-0.746h0.662 c0.383,0,0.704,0.29,0.742,0.672L37.125,18.508z"/><path fill="#1b1b1b" d="M37.097,18.427l-2.962-2.705l-0.008-5.846c0-0.406,0.328-0.735,0.734-0.735h0.648 c0.377,0,0.693,0.286,0.73,0.661L37.097,18.427z"/><path fill="#1c1c1c" d="M37.068,18.345l-2.914-2.663l-0.009-5.797c0-0.399,0.323-0.723,0.722-0.723h0.635 c0.371,0,0.682,0.281,0.719,0.651L37.068,18.345z"/><path fill="#1d1d1d" d="M37.04,18.263l-2.866-2.621l-0.01-5.749c0-0.393,0.318-0.711,0.71-0.711h0.622 c0.365,0,0.671,0.277,0.707,0.64L37.04,18.263z"/><path fill="#1e1e1e" d="M37.011,18.181l-2.818-2.579l-0.011-5.701c0-0.386,0.313-0.699,0.699-0.699h0.609 c0.359,0,0.66,0.272,0.695,0.63L37.011,18.181z"/><path fill="#1f1f1f" d="M36.983,18.099l-2.771-2.537L34.2,9.909c0-0.38,0.307-0.688,0.687-0.688h0.596 c0.353,0,0.649,0.268,0.683,0.619L36.983,18.099z"/><path fill="#202020" d="M36.954,18.017l-2.723-2.495l-0.013-5.604c0-0.373,0.302-0.676,0.675-0.676h0.583 c0.347,0,0.637,0.263,0.672,0.608L36.954,18.017z"/><path fill="#212121" d="M36.926,17.935l-2.675-2.453l-0.014-5.556c0-0.367,0.297-0.664,0.663-0.664h0.57 c0.341,0,0.626,0.259,0.66,0.598L36.926,17.935z"/><path fill="#222" d="M36.898,17.853l-2.627-2.411l-0.015-5.508c-0.001-0.36,0.291-0.652,0.651-0.652h0.557 c0.335,0,0.615,0.254,0.648,0.587L36.898,17.853z"/><path fill="#232323" d="M36.869,17.771l-2.58-2.369l-0.016-5.46c-0.001-0.354,0.286-0.641,0.64-0.641h0.544 c0.329,0,0.604,0.249,0.637,0.577L36.869,17.771z"/><path fill="#242424" d="M36.841,17.689l-2.532-2.327l-0.017-5.412c-0.001-0.347,0.281-0.629,0.628-0.629h0.531 c0.323,0,0.593,0.245,0.625,0.566L36.841,17.689z"/><path fill="#252525" d="M36.812,17.607l-2.484-2.285L34.31,9.959c-0.001-0.341,0.275-0.617,0.616-0.617h0.517 c0.317,0,0.582,0.24,0.613,0.555L36.812,17.607z"/><path fill="#262626" d="M36.784,17.525l-2.436-2.242l-0.019-5.315c-0.001-0.334,0.27-0.605,0.604-0.605h0.504 c0.311,0,0.571,0.236,0.601,0.545L36.784,17.525z"/><path fill="#272727" d="M36.755,17.443l-2.389-2.2l-0.02-5.267c-0.001-0.328,0.265-0.594,0.592-0.594h0.491 c0.305,0,0.56,0.231,0.59,0.534L36.755,17.443z"/><path fill="#282828" d="M36.727,17.362l-2.341-2.158l-0.021-5.219c-0.001-0.321,0.259-0.582,0.581-0.582h0.478 c0.299,0,0.549,0.227,0.578,0.524L36.727,17.362z"/><path fill="#292929" d="M36.698,17.28l-2.293-2.116l-0.023-5.17c-0.001-0.315,0.254-0.57,0.569-0.57h0.465 c0.293,0,0.537,0.222,0.566,0.513L36.698,17.28z"/><path fill="#2a2a2a" d="M36.67,17.198l-2.245-2.074l-0.024-5.122C34.4,9.693,34.65,9.443,34.958,9.443h0.452 c0.287,0,0.526,0.217,0.554,0.503L36.67,17.198z"/><path fill="#2b2b2b" d="M36.642,17.116l-2.198-2.032l-0.025-5.074c-0.001-0.302,0.244-0.547,0.545-0.547h0.439 c0.28,0,0.515,0.213,0.543,0.492L36.642,17.116z"/><path fill="#2c2c2c" d="M36.613,17.034l-2.15-1.99l-0.026-5.026c-0.001-0.295,0.238-0.535,0.533-0.535h0.426 c0.274,0,0.504,0.208,0.531,0.481L36.613,17.034z"/><path fill="#2d2d2d" d="M36.585,16.952l-2.102-1.948l-0.027-4.977c-0.001-0.289,0.233-0.523,0.522-0.523h0.413 c0.268,0,0.493,0.204,0.519,0.471L36.585,16.952z"/><path fill="#2d2d2d" d="M36.556,16.87l-2.055-1.906l-0.028-4.929c-0.001-0.282,0.228-0.512,0.51-0.512h0.4 c0.262,0,0.482,0.199,0.507,0.46L36.556,16.87z"/><path fill="#2e2e2e" d="M36.528,16.788l-2.007-1.864l-0.029-4.881c-0.001-0.276,0.222-0.5,0.498-0.5h0.386 c0.256,0,0.471,0.195,0.496,0.45L36.528,16.788z"/><path fill="#2f2f2f" d="M36.499,16.706l-1.959-1.822l-0.03-4.833c-0.001-0.269,0.217-0.488,0.486-0.488h0.373 c0.25,0,0.46,0.19,0.484,0.439L36.499,16.706z"/><path fill="#303030" d="M36.471,16.624l-1.911-1.78l-0.031-4.784c-0.001-0.263,0.212-0.476,0.474-0.476h0.36 c0.244,0,0.449,0.185,0.472,0.428L36.471,16.624z"/><path fill="#313131" d="M36.442,16.542l-1.864-1.737l-0.032-4.736c-0.001-0.256,0.206-0.465,0.463-0.465h0.347 c0.238,0,0.437,0.181,0.46,0.418L36.442,16.542z"/><path fill="#323232" d="M36.414,16.46l-1.816-1.695l-0.033-4.688c-0.001-0.25,0.201-0.453,0.451-0.453h0.334 c0.232,0,0.426,0.176,0.449,0.407L36.414,16.46z"/><path fill="#333" d="M36.386,16.378l-1.768-1.653l-0.034-4.64c-0.001-0.243,0.196-0.441,0.439-0.441h0.321 c0.226,0,0.415,0.172,0.437,0.397L36.386,16.378z"/><path fill="#343434" d="M36.357,16.296l-1.72-1.611l-0.035-4.591c-0.001-0.237,0.19-0.429,0.427-0.429h0.308 c0.22,0,0.404,0.167,0.425,0.386L36.357,16.296z"/><path fill="#353535" d="M36.329,16.215l-1.673-1.569l-0.036-4.543c-0.001-0.23,0.185-0.418,0.415-0.418h0.295 c0.214,0,0.393,0.163,0.413,0.376L36.329,16.215z"/><path fill="#363636" d="M36.3,16.133l-1.625-1.527l-0.038-4.495c-0.001-0.224,0.18-0.406,0.404-0.406h0.282 c0.208,0,0.382,0.158,0.402,0.365L36.3,16.133z"/><path fill="#373737" d="M36.272,16.051l-1.577-1.485l-0.039-4.447c-0.001-0.217,0.175-0.394,0.392-0.394h0.269 c0.202,0,0.371,0.153,0.39,0.354L36.272,16.051z"/><path fill="#383838" d="M36.243,15.969l-1.529-1.443l-0.04-4.399c-0.001-0.211,0.169-0.382,0.38-0.382h0.256 c0.196,0,0.36,0.149,0.378,0.344L36.243,15.969z"/><path fill="#393939" d="M36.215,15.887l-1.482-1.401l-0.041-4.35c-0.001-0.204,0.164-0.371,0.368-0.371h0.242 c0.19,0,0.348,0.144,0.367,0.333L36.215,15.887z"/><path fill="#3a3a3a" d="M36.186,15.805l-1.434-1.359l-0.042-4.302c-0.001-0.198,0.159-0.359,0.356-0.359h0.229 c0.184,0,0.337,0.14,0.355,0.323L36.186,15.805z"/><path fill="#3b3b3b" d="M36.158,15.723l-1.386-1.317l-0.043-4.254c-0.001-0.191,0.153-0.347,0.345-0.347h0.216 c0.178,0,0.326,0.135,0.343,0.312L36.158,15.723z"/><path fill="#3c3c3c" d="M36.13,15.641l-1.338-1.275l-0.044-4.206c-0.001-0.185,0.148-0.335,0.333-0.335h0.203 c0.172,0,0.315,0.131,0.331,0.301L36.13,15.641z"/><path fill="#3d3d3d" d="M36.101,15.559l-1.291-1.232l-0.045-4.157c-0.002-0.178,0.143-0.324,0.321-0.324h0.19 c0.166,0,0.304,0.126,0.32,0.291L36.101,15.559z"/><path fill="#3e3e3e" d="M36.073,15.477l-1.243-1.19l-0.046-4.109c-0.002-0.172,0.137-0.312,0.309-0.312h0.177 c0.16,0,0.293,0.121,0.308,0.28L36.073,15.477z"/><path fill="#3f3f3f" d="M36.044,15.395l-1.195-1.148l-0.047-4.061c-0.002-0.165,0.132-0.3,0.297-0.3h0.164 c0.154,0,0.282,0.117,0.296,0.27L36.044,15.395z"/><path fill="#404040" d="M36.016,15.313l-1.147-1.106l-0.048-4.013c-0.002-0.159,0.127-0.289,0.286-0.289h0.151 c0.147,0,0.271,0.112,0.284,0.259L36.016,15.313z"/><path fill="#414141" d="M35.987,15.231l-1.1-1.064l-0.049-3.964c-0.002-0.152,0.121-0.277,0.274-0.277h0.138 c0.141,0,0.26,0.108,0.273,0.249L35.987,15.231z"/><path fill="#424242" d="M35.959,15.15l-1.052-1.022l-0.05-3.916c-0.002-0.146,0.116-0.265,0.262-0.265h0.125 c0.135,0,0.248,0.103,0.261,0.238L35.959,15.15z"/><path fill="#434343" d="M35.93,15.068l-1.004-0.98l-0.051-3.868c-0.002-0.139,0.111-0.253,0.25-0.253h0.111 c0.129,0,0.237,0.099,0.249,0.227L35.93,15.068z"/><path fill="#444" d="M35.902,14.986l-0.956-0.938l-0.053-3.82c-0.002-0.133,0.105-0.242,0.238-0.242h0.098 c0.123,0,0.226,0.094,0.237,0.217L35.902,14.986z"/><path fill="#454545" d="M35.874,14.904l-0.909-0.896l-0.054-3.771c-0.002-0.126,0.1-0.23,0.227-0.23h0.085 c0.117,0,0.215,0.089,0.226,0.206L35.874,14.904z"/><g><path fill="#141414" d="M10.704,19L14,16V9.817C14,9.366,13.634,9,13.183,9h-0.74c-0.42,0-0.771,0.318-0.813,0.735 L10.704,19z"/><path fill="#151515" d="M10.733,18.918l3.248-2.958l0.001-6.135c0-0.445-0.36-0.805-0.805-0.805H12.45 c-0.414,0-0.76,0.313-0.801,0.725L10.733,18.918z"/><path fill="#161616" d="M10.761,18.836l3.2-2.916l0.002-6.087c0-0.438-0.355-0.793-0.793-0.793h-0.714 c-0.407,0-0.749,0.309-0.789,0.714L10.761,18.836z"/><path fill="#171717" d="M10.79,18.754l3.153-2.874l0.003-6.039c0-0.432-0.35-0.781-0.781-0.781h-0.701 c-0.401,0-0.738,0.304-0.777,0.704L10.79,18.754z"/><path fill="#181818" d="M10.818,18.672l3.105-2.832l0.004-5.99c0-0.425-0.344-0.77-0.769-0.77H12.47 c-0.395,0-0.726,0.3-0.766,0.693L10.818,18.672z"/><path fill="#191919" d="M10.846,18.59l3.057-2.79l0.005-5.942c0-0.419-0.339-0.758-0.758-0.758h-0.675 c-0.389,0-0.715,0.295-0.754,0.682L10.846,18.59z"/><path fill="#1a1a1a" d="M10.875,18.508l3.009-2.747l0.006-5.894c0-0.412-0.334-0.746-0.746-0.746h-0.662 c-0.383,0-0.704,0.29-0.742,0.672L10.875,18.508z"/><path fill="#1b1b1b" d="M10.903,18.427l2.962-2.705l0.008-5.846c0-0.406-0.328-0.735-0.734-0.735H12.49 c-0.377,0-0.693,0.286-0.73,0.661L10.903,18.427z"/><path fill="#1c1c1c" d="M10.932,18.345l2.914-2.663l0.009-5.797c0-0.399-0.323-0.723-0.722-0.723h-0.635 c-0.371,0-0.682,0.281-0.719,0.651L10.932,18.345z"/><path fill="#1d1d1d" d="M10.96,18.263l2.866-2.621l0.01-5.749c0-0.393-0.318-0.711-0.71-0.711h-0.622 c-0.365,0-0.671,0.277-0.707,0.64L10.96,18.263z"/><path fill="#1e1e1e" d="M10.989,18.181l2.818-2.579l0.011-5.701c0-0.386-0.313-0.699-0.699-0.699H12.51 c-0.359,0-0.66,0.272-0.695,0.63L10.989,18.181z"/><path fill="#1f1f1f" d="M11.017,18.099l2.771-2.537L13.8,9.909c0-0.38-0.307-0.688-0.687-0.688h-0.596 c-0.353,0-0.649,0.268-0.683,0.619L11.017,18.099z"/><path fill="#202020" d="M11.046,18.017l2.723-2.495l0.013-5.604c0-0.373-0.302-0.676-0.675-0.676h-0.583 c-0.347,0-0.637,0.263-0.672,0.608L11.046,18.017z"/><path fill="#212121" d="M11.074,17.935l2.675-2.453l0.014-5.556c0-0.367-0.297-0.664-0.663-0.664h-0.57 c-0.341,0-0.626,0.259-0.66,0.598L11.074,17.935z"/><path fill="#222" d="M11.102,17.853l2.627-2.411l0.015-5.508c0.001-0.36-0.291-0.652-0.651-0.652h-0.557 c-0.335,0-0.615,0.254-0.648,0.587L11.102,17.853z"/><path fill="#232323" d="M11.131,17.771l2.58-2.369l0.016-5.46c0.001-0.354-0.286-0.641-0.64-0.641h-0.544 c-0.329,0-0.604,0.249-0.637,0.577L11.131,17.771z"/><path fill="#242424" d="M11.159,17.689l2.532-2.327l0.017-5.412c0.001-0.347-0.281-0.629-0.628-0.629H12.55 c-0.323,0-0.593,0.245-0.625,0.566L11.159,17.689z"/><path fill="#252525" d="M11.188,17.607l2.484-2.285l0.018-5.363c0.001-0.341-0.275-0.617-0.616-0.617h-0.517 c-0.317,0-0.582,0.24-0.613,0.555L11.188,17.607z"/><path fill="#262626" d="M11.216,17.525l2.436-2.242l0.019-5.315c0.001-0.334-0.27-0.605-0.604-0.605h-0.504 c-0.311,0-0.571,0.236-0.601,0.545L11.216,17.525z"/><path fill="#272727" d="M11.245,17.443l2.389-2.2l0.02-5.267c0.001-0.328-0.265-0.594-0.592-0.594H12.57 c-0.305,0-0.56,0.231-0.59,0.534L11.245,17.443z"/><path fill="#282828" d="M11.273,17.362l2.341-2.158l0.021-5.219c0.001-0.321-0.259-0.582-0.581-0.582h-0.478 c-0.299,0-0.549,0.227-0.578,0.524L11.273,17.362z"/><path fill="#292929" d="M11.302,17.28l2.293-2.116l0.023-5.17c0.001-0.315-0.254-0.57-0.569-0.57h-0.465 c-0.293,0-0.537,0.222-0.566,0.513L11.302,17.28z"/><path fill="#2a2a2a" d="M11.33,17.198l2.245-2.074l0.024-5.122c0.001-0.308-0.249-0.558-0.557-0.558H12.59 c-0.287,0-0.526,0.217-0.554,0.503L11.33,17.198z"/><path fill="#2b2b2b" d="M11.358,17.116l2.198-2.032l0.025-5.074c0.001-0.302-0.244-0.547-0.545-0.547h-0.439 c-0.28,0-0.515,0.213-0.543,0.492L11.358,17.116z"/><path fill="#2c2c2c" d="M11.387,17.034l2.15-1.99l0.026-5.026c0.001-0.295-0.238-0.535-0.533-0.535h-0.426 c-0.274,0-0.504,0.208-0.531,0.481L11.387,17.034z"/><path fill="#2d2d2d" d="M11.415,16.952l2.102-1.948l0.027-4.977c0.001-0.289-0.233-0.523-0.522-0.523H12.61 c-0.268,0-0.493,0.204-0.519,0.471L11.415,16.952z"/><path fill="#2d2d2d" d="M11.444,16.87l2.055-1.906l0.028-4.929c0.001-0.282-0.228-0.512-0.51-0.512h-0.4 c-0.262,0-0.482,0.199-0.507,0.46L11.444,16.87z"/><path fill="#2e2e2e" d="M11.472,16.788l2.007-1.864l0.029-4.881c0.001-0.276-0.222-0.5-0.498-0.5h-0.386 c-0.256,0-0.471,0.195-0.496,0.45L11.472,16.788z"/><path fill="#2f2f2f" d="M11.501,16.706l1.959-1.822l0.03-4.833c0.001-0.269-0.217-0.488-0.486-0.488H12.63 c-0.25,0-0.46,0.19-0.484,0.439L11.501,16.706z"/><path fill="#303030" d="M11.529,16.624l1.911-1.78l0.031-4.784c0.001-0.263-0.212-0.476-0.474-0.476h-0.36 c-0.244,0-0.449,0.185-0.472,0.428L11.529,16.624z"/><path fill="#313131" d="M11.558,16.542l1.864-1.737l0.032-4.736c0.001-0.256-0.206-0.465-0.463-0.465h-0.347 c-0.238,0-0.437,0.181-0.46,0.418L11.558,16.542z"/><path fill="#323232" d="M11.586,16.46l1.816-1.695l0.033-4.688c0.001-0.25-0.201-0.453-0.451-0.453H12.65 c-0.232,0-0.426,0.176-0.449,0.407L11.586,16.46z"/><path fill="#333" d="M11.614,16.378l1.768-1.653l0.034-4.64c0.001-0.243-0.196-0.441-0.439-0.441h-0.321 c-0.226,0-0.415,0.172-0.437,0.397L11.614,16.378z"/><path fill="#343434" d="M11.643,16.296l1.72-1.611l0.035-4.591c0.001-0.237-0.19-0.429-0.427-0.429h-0.308 c-0.22,0-0.404,0.167-0.425,0.386L11.643,16.296z"/><path fill="#353535" d="M11.671,16.215l1.673-1.569l0.036-4.543c0.001-0.23-0.185-0.418-0.415-0.418H12.67 c-0.214,0-0.393,0.163-0.413,0.376L11.671,16.215z"/><path fill="#363636" d="M11.7,16.133l1.625-1.527l0.038-4.495c0.001-0.224-0.18-0.406-0.404-0.406h-0.282 c-0.208,0-0.382,0.158-0.402,0.365L11.7,16.133z"/><path fill="#373737" d="M11.728,16.051l1.577-1.485l0.039-4.447c0.001-0.217-0.175-0.394-0.392-0.394h-0.269 c-0.202,0-0.371,0.153-0.39,0.354L11.728,16.051z"/><path fill="#383838" d="M11.757,15.969l1.529-1.443l0.04-4.399c0.001-0.211-0.169-0.382-0.38-0.382H12.69 c-0.196,0-0.36,0.149-0.378,0.344L11.757,15.969z"/><path fill="#393939" d="M11.785,15.887l1.482-1.401l0.041-4.35c0.001-0.204-0.164-0.371-0.368-0.371h-0.242 c-0.19,0-0.348,0.144-0.367,0.333L11.785,15.887z"/><path fill="#3a3a3a" d="M11.814,15.805l1.434-1.359l0.042-4.302c0.001-0.198-0.159-0.359-0.356-0.359h-0.229 c-0.184,0-0.337,0.14-0.355,0.323L11.814,15.805z"/><path fill="#3b3b3b" d="M11.842,15.723l1.386-1.317l0.043-4.254c0.001-0.191-0.153-0.347-0.345-0.347H12.71 c-0.178,0-0.326,0.135-0.343,0.312L11.842,15.723z"/><path fill="#3c3c3c" d="M11.87,15.641l1.338-1.275l0.044-4.206c0.001-0.185-0.148-0.335-0.333-0.335h-0.203 c-0.172,0-0.315,0.131-0.331,0.301L11.87,15.641z"/><path fill="#3d3d3d" d="M11.899,15.559l1.291-1.232l0.045-4.157c0.002-0.178-0.143-0.324-0.321-0.324h-0.19 c-0.166,0-0.304,0.126-0.32,0.291L11.899,15.559z"/><path fill="#3e3e3e" d="M11.927,15.477l1.243-1.19l0.046-4.109c0.002-0.172-0.137-0.312-0.309-0.312H12.73 c-0.16,0-0.293,0.121-0.308,0.28L11.927,15.477z"/><path fill="#3f3f3f" d="M11.956,15.395l1.195-1.148l0.047-4.061c0.002-0.165-0.132-0.3-0.297-0.3h-0.164 c-0.154,0-0.282,0.117-0.296,0.27L11.956,15.395z"/><path fill="#404040" d="M11.984,15.313l1.147-1.106l0.048-4.013c0.002-0.159-0.127-0.289-0.286-0.289h-0.151 c-0.147,0-0.271,0.112-0.284,0.259L11.984,15.313z"/><path fill="#414141" d="M12.013,15.231l1.1-1.064l0.049-3.964c0.002-0.152-0.121-0.277-0.274-0.277H12.75 c-0.141,0-0.26,0.108-0.273,0.249L12.013,15.231z"/><path fill="#424242" d="M12.041,15.15l1.052-1.022l0.05-3.916c0.002-0.146-0.116-0.265-0.262-0.265h-0.125 c-0.135,0-0.248,0.103-0.261,0.238L12.041,15.15z"/><path fill="#434343" d="M12.07,15.068l1.004-0.98l0.051-3.868c0.002-0.139-0.111-0.253-0.25-0.253h-0.111 c-0.129,0-0.237,0.099-0.249,0.227L12.07,15.068z"/><path fill="#444" d="M12.098,14.986l0.956-0.938l0.053-3.82c0.002-0.133-0.105-0.242-0.238-0.242H12.77 c-0.123,0-0.226,0.094-0.237,0.217L12.098,14.986z"/><path fill="#454545" d="M12.126,14.904l0.909-0.896l0.054-3.771c0.002-0.126-0.1-0.23-0.227-0.23h-0.085 c-0.117,0-0.215,0.089-0.226,0.206L12.126,14.904z"/></g><g><path fill="#141414" d="M10.704,29L14,32v6.183C14,38.634,13.634,39,13.183,39h-0.74c-0.42,0-0.771-0.318-0.813-0.735 L10.704,29z"/><path fill="#151515" d="M10.733,29.082l3.248,2.958l0.001,6.135c0,0.445-0.36,0.805-0.805,0.805H12.45 c-0.414,0-0.76-0.313-0.801-0.725L10.733,29.082z"/><path fill="#161616" d="M10.761,29.164l3.2,2.916l0.002,6.087c0,0.438-0.355,0.793-0.793,0.793h-0.714 c-0.407,0-0.749-0.309-0.789-0.714L10.761,29.164z"/><path fill="#171717" d="M10.79,29.246l3.153,2.874l0.003,6.039c0,0.432-0.35,0.781-0.781,0.781h-0.701 c-0.401,0-0.738-0.304-0.777-0.704L10.79,29.246z"/><path fill="#181818" d="M10.818,29.328l3.105,2.832l0.004,5.99c0,0.425-0.344,0.77-0.769,0.77H12.47 c-0.395,0-0.726-0.3-0.766-0.693L10.818,29.328z"/><path fill="#191919" d="M10.846,29.41l3.057,2.79l0.005,5.942c0,0.419-0.339,0.758-0.758,0.758h-0.675 c-0.389,0-0.715-0.295-0.754-0.682L10.846,29.41z"/><path fill="#1a1a1a" d="M10.875,29.492l3.009,2.747l0.006,5.894c0,0.412-0.334,0.746-0.746,0.746h-0.662 c-0.383,0-0.704-0.291-0.742-0.672L10.875,29.492z"/><path fill="#1b1b1b" d="M10.903,29.573l2.962,2.705l0.008,5.846c0,0.406-0.328,0.735-0.734,0.735H12.49 c-0.377,0-0.693-0.286-0.73-0.661L10.903,29.573z"/><path fill="#1c1c1c" d="M10.932,29.655l2.914,2.663l0.009,5.797c0,0.399-0.323,0.723-0.722,0.723h-0.635 c-0.371,0-0.682-0.281-0.719-0.651L10.932,29.655z"/><path fill="#1d1d1d" d="M10.96,29.737l2.866,2.621l0.01,5.749c0,0.393-0.318,0.711-0.71,0.711h-0.622 c-0.365,0-0.671-0.277-0.707-0.64L10.96,29.737z"/><path fill="#1e1e1e" d="M10.989,29.819l2.818,2.579l0.011,5.701c0,0.386-0.313,0.699-0.699,0.699H12.51 c-0.359,0-0.66-0.272-0.695-0.63L10.989,29.819z"/><path fill="#1f1f1f" d="M11.017,29.901l2.771,2.537l0.012,5.653c0,0.38-0.307,0.688-0.687,0.688h-0.596 c-0.353,0-0.649-0.268-0.683-0.619L11.017,29.901z"/><path fill="#202020" d="M11.046,29.983l2.723,2.495l0.013,5.604c0,0.373-0.302,0.676-0.675,0.676h-0.583 c-0.347,0-0.637-0.263-0.672-0.608L11.046,29.983z"/><path fill="#212121" d="M11.074,30.065l2.675,2.453l0.014,5.556c0,0.367-0.297,0.664-0.663,0.664h-0.57 c-0.341,0-0.626-0.259-0.66-0.598L11.074,30.065z"/><path fill="#222" d="M11.102,30.147l2.627,2.411l0.015,5.508c0.001,0.36-0.291,0.652-0.651,0.652h-0.557 c-0.335,0-0.615-0.254-0.648-0.587L11.102,30.147z"/><path fill="#232323" d="M11.131,30.229l2.58,2.369l0.016,5.46c0.001,0.354-0.286,0.641-0.64,0.641h-0.544 c-0.329,0-0.604-0.249-0.637-0.577L11.131,30.229z"/><path fill="#242424" d="M11.159,30.311l2.532,2.327l0.017,5.412c0.001,0.347-0.281,0.629-0.628,0.629H12.55 c-0.323,0-0.593-0.245-0.625-0.566L11.159,30.311z"/><path fill="#252525" d="M11.188,30.393l2.484,2.285l0.018,5.363c0.001,0.341-0.275,0.617-0.616,0.617h-0.517 c-0.317,0-0.582-0.24-0.613-0.555L11.188,30.393z"/><path fill="#262626" d="M11.216,30.475l2.436,2.242l0.019,5.315c0.001,0.334-0.27,0.605-0.604,0.605h-0.504 c-0.311,0-0.571-0.236-0.601-0.545L11.216,30.475z"/><path fill="#272727" d="M11.245,30.557l2.389,2.2l0.02,5.267c0.001,0.328-0.265,0.594-0.592,0.594H12.57 c-0.305,0-0.56-0.231-0.59-0.534L11.245,30.557z"/><path fill="#282828" d="M11.273,30.638l2.341,2.158l0.021,5.219c0.001,0.321-0.259,0.582-0.581,0.582h-0.478 c-0.299,0-0.549-0.227-0.578-0.524L11.273,30.638z"/><path fill="#292929" d="M11.302,30.72l2.293,2.116l0.023,5.17c0.001,0.315-0.254,0.57-0.569,0.57h-0.465 c-0.293,0-0.537-0.222-0.566-0.513L11.302,30.72z"/><path fill="#2a2a2a" d="M11.33,30.802l2.245,2.074l0.024,5.122c0.001,0.308-0.249,0.558-0.557,0.558H12.59 c-0.287,0-0.526-0.217-0.554-0.503L11.33,30.802z"/><path fill="#2b2b2b" d="M11.358,30.884l2.198,2.032l0.025,5.074c0.001,0.302-0.244,0.547-0.545,0.547h-0.439 c-0.28,0-0.515-0.213-0.543-0.492L11.358,30.884z"/><path fill="#2c2c2c" d="M11.387,30.966l2.15,1.99l0.026,5.026c0.001,0.295-0.238,0.535-0.533,0.535h-0.426 c-0.274,0-0.504-0.208-0.531-0.481L11.387,30.966z"/><path fill="#2d2d2d" d="M11.415,31.048l2.102,1.948l0.027,4.977c0.001,0.289-0.233,0.523-0.522,0.523H12.61 c-0.268,0-0.493-0.204-0.519-0.471L11.415,31.048z"/><path fill="#2d2d2d" d="M11.444,31.13l2.055,1.906l0.028,4.929c0.001,0.282-0.228,0.512-0.51,0.512h-0.4 c-0.262,0-0.482-0.199-0.507-0.46L11.444,31.13z"/><path fill="#2e2e2e" d="M11.472,31.212l2.007,1.864l0.029,4.881c0.001,0.276-0.222,0.5-0.498,0.5h-0.386 c-0.256,0-0.471-0.195-0.496-0.45L11.472,31.212z"/><path fill="#2f2f2f" d="M11.501,31.294l1.959,1.822l0.03,4.833c0.001,0.269-0.217,0.488-0.486,0.488H12.63 c-0.25,0-0.46-0.19-0.484-0.439L11.501,31.294z"/><path fill="#303030" d="M11.529,31.376l1.911,1.78l0.031,4.784c0.001,0.263-0.212,0.476-0.474,0.476h-0.36 c-0.244,0-0.449-0.185-0.472-0.428L11.529,31.376z"/><path fill="#313131" d="M11.558,31.458l1.864,1.737l0.032,4.736c0.001,0.256-0.206,0.465-0.463,0.465h-0.347 c-0.238,0-0.437-0.181-0.46-0.418L11.558,31.458z"/><path fill="#323232" d="M11.586,31.54l1.816,1.695l0.033,4.688c0.001,0.25-0.201,0.453-0.451,0.453H12.65 c-0.232,0-0.426-0.176-0.449-0.407L11.586,31.54z"/><path fill="#333" d="M11.614,31.622l1.768,1.653l0.034,4.64c0.001,0.243-0.196,0.441-0.439,0.441h-0.321 c-0.226,0-0.415-0.172-0.437-0.397L11.614,31.622z"/><path fill="#343434" d="M11.643,31.704l1.72,1.611l0.035,4.591c0.001,0.237-0.19,0.429-0.427,0.429h-0.308 c-0.22,0-0.404-0.167-0.425-0.386L11.643,31.704z"/><path fill="#353535" d="M11.671,31.785l1.673,1.569l0.036,4.543c0.001,0.23-0.185,0.418-0.415,0.418H12.67 c-0.214,0-0.393-0.163-0.413-0.376L11.671,31.785z"/><path fill="#363636" d="M11.7,31.867l1.625,1.527l0.038,4.495c0.001,0.224-0.18,0.406-0.404,0.406h-0.282 c-0.208,0-0.382-0.158-0.402-0.365L11.7,31.867z"/><path fill="#373737" d="M11.728,31.949l1.577,1.485l0.039,4.447c0.001,0.217-0.175,0.394-0.392,0.394h-0.269 c-0.202,0-0.371-0.153-0.39-0.354L11.728,31.949z"/><path fill="#383838" d="M11.757,32.031l1.529,1.443l0.04,4.398c0.001,0.211-0.169,0.382-0.38,0.382H12.69 c-0.196,0-0.36-0.149-0.378-0.344L11.757,32.031z"/><path fill="#393939" d="M11.785,32.113l1.482,1.401l0.041,4.35c0.001,0.204-0.164,0.371-0.368,0.371h-0.242 c-0.19,0-0.348-0.144-0.367-0.333L11.785,32.113z"/><path fill="#3a3a3a" d="M11.814,32.195l1.434,1.359l0.042,4.302c0.001,0.198-0.159,0.359-0.356,0.359h-0.229 c-0.184,0-0.337-0.14-0.355-0.323L11.814,32.195z"/><path fill="#3b3b3b" d="M11.842,32.277l1.386,1.317l0.043,4.254c0.001,0.191-0.153,0.347-0.345,0.347H12.71 c-0.178,0-0.326-0.135-0.343-0.312L11.842,32.277z"/><path fill="#3c3c3c" d="M11.87,32.359l1.338,1.275l0.044,4.206c0.001,0.185-0.148,0.335-0.333,0.335h-0.203 c-0.172,0-0.315-0.131-0.331-0.301L11.87,32.359z"/><path fill="#3d3d3d" d="M11.899,32.441l1.291,1.232l0.045,4.157c0.002,0.178-0.143,0.324-0.321,0.324h-0.19 c-0.166,0-0.304-0.126-0.32-0.291L11.899,32.441z"/><path fill="#3e3e3e" d="M11.927,32.523l1.243,1.19l0.046,4.109c0.002,0.172-0.137,0.312-0.309,0.312H12.73 c-0.16,0-0.293-0.121-0.308-0.28L11.927,32.523z"/><path fill="#3f3f3f" d="M11.956,32.605l1.195,1.148l0.047,4.061c0.002,0.165-0.132,0.3-0.297,0.3h-0.164 c-0.154,0-0.282-0.117-0.296-0.27L11.956,32.605z"/><path fill="#404040" d="M11.984,32.687l1.147,1.106l0.048,4.013c0.002,0.159-0.127,0.289-0.286,0.289h-0.151 c-0.147,0-0.271-0.112-0.284-0.259L11.984,32.687z"/><path fill="#414141" d="M12.013,32.769l1.1,1.064l0.049,3.964c0.002,0.152-0.121,0.277-0.274,0.277H12.75 c-0.141,0-0.26-0.108-0.273-0.249L12.013,32.769z"/><path fill="#424242" d="M12.041,32.85l1.052,1.022l0.05,3.916c0.002,0.146-0.116,0.265-0.262,0.265h-0.125 c-0.135,0-0.248-0.103-0.261-0.238L12.041,32.85z"/><path fill="#434343" d="M12.07,32.932l1.004,0.98l0.051,3.868c0.002,0.139-0.111,0.253-0.25,0.253h-0.111 c-0.129,0-0.237-0.099-0.249-0.227L12.07,32.932z"/><path fill="#444" d="M12.098,33.014l0.956,0.938l0.053,3.82c0.002,0.133-0.105,0.242-0.238,0.242H12.77 c-0.123,0-0.226-0.094-0.237-0.217L12.098,33.014z"/><path fill="#454545" d="M12.126,33.096l0.909,0.896l0.054,3.771c0.002,0.126-0.1,0.23-0.227,0.23h-0.085 c-0.117,0-0.215-0.089-0.226-0.206L12.126,33.096z"/></g><g><path fill="#141414" d="M37.296,29L34,32v6.183C34,38.634,34.366,39,34.817,39h0.74c0.42,0,0.771-0.318,0.813-0.735 L37.296,29z"/><path fill="#151515" d="M37.267,29.082l-3.248,2.958l-0.001,6.135c0,0.445,0.36,0.805,0.805,0.805h0.727 c0.414,0,0.76-0.313,0.801-0.725L37.267,29.082z"/><path fill="#161616" d="M37.239,29.164l-3.2,2.916l-0.002,6.087c0,0.438,0.355,0.793,0.793,0.793h0.714 c0.407,0,0.749-0.309,0.789-0.714L37.239,29.164z"/><path fill="#171717" d="M37.21,29.246l-3.153,2.874l-0.003,6.039c0,0.432,0.35,0.781,0.781,0.781h0.701 c0.401,0,0.738-0.304,0.777-0.704L37.21,29.246z"/><path fill="#181818" d="M37.182,29.328l-3.105,2.832l-0.004,5.99c0,0.425,0.344,0.77,0.769,0.77h0.688 c0.395,0,0.726-0.3,0.766-0.693L37.182,29.328z"/><path fill="#191919" d="M37.154,29.41l-3.057,2.79l-0.005,5.942c0,0.419,0.339,0.758,0.758,0.758h0.675 c0.389,0,0.715-0.295,0.754-0.682L37.154,29.41z"/><path fill="#1a1a1a" d="M37.125,29.492l-3.009,2.747l-0.006,5.894c0,0.412,0.334,0.746,0.746,0.746h0.662 c0.383,0,0.704-0.291,0.742-0.672L37.125,29.492z"/><path fill="#1b1b1b" d="M37.097,29.573l-2.962,2.705l-0.008,5.846c0,0.406,0.328,0.735,0.734,0.735h0.648 c0.377,0,0.693-0.286,0.73-0.661L37.097,29.573z"/><path fill="#1c1c1c" d="M37.068,29.655l-2.914,2.663l-0.009,5.797c0,0.399,0.323,0.723,0.722,0.723h0.635 c0.371,0,0.682-0.281,0.719-0.651L37.068,29.655z"/><path fill="#1d1d1d" d="M37.04,29.737l-2.866,2.621l-0.01,5.749c0,0.393,0.318,0.711,0.71,0.711h0.622 c0.365,0,0.671-0.277,0.707-0.64L37.04,29.737z"/><path fill="#1e1e1e" d="M37.011,29.819l-2.818,2.579l-0.011,5.701c0,0.386,0.313,0.699,0.699,0.699h0.609 c0.359,0,0.66-0.272,0.695-0.63L37.011,29.819z"/><path fill="#1f1f1f" d="M36.983,29.901l-2.771,2.537L34.2,38.091c0,0.38,0.307,0.688,0.687,0.688h0.596 c0.353,0,0.649-0.268,0.683-0.619L36.983,29.901z"/><path fill="#202020" d="M36.954,29.983l-2.723,2.495l-0.013,5.604c0,0.373,0.302,0.676,0.675,0.676h0.583 c0.347,0,0.637-0.263,0.672-0.608L36.954,29.983z"/><path fill="#212121" d="M36.926,30.065l-2.675,2.453l-0.014,5.556c0,0.367,0.297,0.664,0.663,0.664h0.57 c0.341,0,0.626-0.259,0.66-0.598L36.926,30.065z"/><path fill="#222" d="M36.898,30.147l-2.627,2.411l-0.015,5.508c-0.001,0.36,0.291,0.652,0.651,0.652h0.557 c0.335,0,0.615-0.254,0.648-0.587L36.898,30.147z"/><path fill="#232323" d="M36.869,30.229l-2.58,2.369l-0.016,5.46c-0.001,0.354,0.286,0.641,0.64,0.641h0.544 c0.329,0,0.604-0.249,0.637-0.577L36.869,30.229z"/><path fill="#242424" d="M36.841,30.311l-2.532,2.327l-0.017,5.412c-0.001,0.347,0.281,0.629,0.628,0.629h0.531 c0.323,0,0.593-0.245,0.625-0.566L36.841,30.311z"/><path fill="#252525" d="M36.812,30.393l-2.484,2.285l-0.018,5.363c-0.001,0.341,0.275,0.617,0.616,0.617h0.517 c0.317,0,0.582-0.24,0.613-0.555L36.812,30.393z"/><path fill="#262626" d="M36.784,30.475l-2.436,2.242l-0.019,5.315c-0.001,0.334,0.27,0.605,0.604,0.605h0.504 c0.311,0,0.571-0.236,0.601-0.545L36.784,30.475z"/><path fill="#272727" d="M36.755,30.557l-2.389,2.2l-0.02,5.267c-0.001,0.328,0.265,0.594,0.592,0.594h0.491 c0.305,0,0.56-0.231,0.59-0.534L36.755,30.557z"/><path fill="#282828" d="M36.727,30.638l-2.341,2.158l-0.021,5.219c-0.001,0.321,0.259,0.582,0.581,0.582h0.478 c0.299,0,0.549-0.227,0.578-0.524L36.727,30.638z"/><path fill="#292929" d="M36.698,30.72l-2.293,2.116l-0.023,5.17c-0.001,0.315,0.254,0.57,0.569,0.57h0.465 c0.293,0,0.537-0.222,0.566-0.513L36.698,30.72z"/><path fill="#2a2a2a" d="M36.67,30.802l-2.245,2.074l-0.024,5.122c-0.001,0.308,0.249,0.558,0.557,0.558h0.452 c0.287,0,0.526-0.217,0.554-0.503L36.67,30.802z"/><path fill="#2b2b2b" d="M36.642,30.884l-2.198,2.032l-0.025,5.074c-0.001,0.302,0.244,0.547,0.545,0.547h0.439 c0.28,0,0.515-0.213,0.543-0.492L36.642,30.884z"/><path fill="#2c2c2c" d="M36.613,30.966l-2.15,1.99l-0.026,5.026c-0.001,0.295,0.238,0.535,0.533,0.535h0.426 c0.274,0,0.504-0.208,0.531-0.481L36.613,30.966z"/><path fill="#2d2d2d" d="M36.585,31.048l-2.102,1.948l-0.027,4.977c-0.001,0.289,0.233,0.523,0.522,0.523h0.413 c0.268,0,0.493-0.204,0.519-0.471L36.585,31.048z"/><path fill="#2d2d2d" d="M36.556,31.13l-2.055,1.906l-0.028,4.929c-0.001,0.282,0.228,0.512,0.51,0.512h0.4 c0.262,0,0.482-0.199,0.507-0.46L36.556,31.13z"/><path fill="#2e2e2e" d="M36.528,31.212l-2.007,1.864l-0.029,4.881c-0.001,0.276,0.222,0.5,0.498,0.5h0.386 c0.256,0,0.471-0.195,0.496-0.45L36.528,31.212z"/><path fill="#2f2f2f" d="M36.499,31.294l-1.959,1.822l-0.03,4.833c-0.001,0.269,0.217,0.488,0.486,0.488h0.373 c0.25,0,0.46-0.19,0.484-0.439L36.499,31.294z"/><path fill="#303030" d="M36.471,31.376l-1.911,1.78l-0.031,4.784c-0.001,0.263,0.212,0.476,0.474,0.476h0.36 c0.244,0,0.449-0.185,0.472-0.428L36.471,31.376z"/><path fill="#313131" d="M36.442,31.458l-1.864,1.737l-0.032,4.736c-0.001,0.256,0.206,0.465,0.463,0.465h0.347 c0.238,0,0.437-0.181,0.46-0.418L36.442,31.458z"/><path fill="#323232" d="M36.414,31.54l-1.816,1.695l-0.033,4.688c-0.001,0.25,0.201,0.453,0.451,0.453h0.334 c0.232,0,0.426-0.176,0.449-0.407L36.414,31.54z"/><path fill="#333" d="M36.386,31.622l-1.768,1.653l-0.034,4.64c-0.001,0.243,0.196,0.441,0.439,0.441h0.321 c0.226,0,0.415-0.172,0.437-0.397L36.386,31.622z"/><path fill="#343434" d="M36.357,31.704l-1.72,1.611l-0.035,4.591c-0.001,0.237,0.19,0.429,0.427,0.429h0.308 c0.22,0,0.404-0.167,0.425-0.386L36.357,31.704z"/><path fill="#353535" d="M36.329,31.785l-1.673,1.569l-0.036,4.543c-0.001,0.23,0.185,0.418,0.415,0.418h0.295 c0.214,0,0.393-0.163,0.413-0.376L36.329,31.785z"/><path fill="#363636" d="M36.3,31.867l-1.625,1.527l-0.038,4.495c-0.001,0.224,0.18,0.406,0.404,0.406h0.282 c0.208,0,0.382-0.158,0.402-0.365L36.3,31.867z"/><path fill="#373737" d="M36.272,31.949l-1.577,1.485l-0.039,4.447c-0.001,0.217,0.175,0.394,0.392,0.394h0.269 c0.202,0,0.371-0.153,0.39-0.354L36.272,31.949z"/><path fill="#383838" d="M36.243,32.031l-1.529,1.443l-0.04,4.398c-0.001,0.211,0.169,0.382,0.38,0.382h0.256 c0.196,0,0.36-0.149,0.378-0.344L36.243,32.031z"/><path fill="#393939" d="M36.215,32.113l-1.482,1.401l-0.041,4.35c-0.001,0.204,0.164,0.371,0.368,0.371h0.242 c0.19,0,0.348-0.144,0.367-0.333L36.215,32.113z"/><path fill="#3a3a3a" d="M36.186,32.195l-1.434,1.359l-0.042,4.302c-0.001,0.198,0.159,0.359,0.356,0.359h0.229 c0.184,0,0.337-0.14,0.355-0.323L36.186,32.195z"/><path fill="#3b3b3b" d="M36.158,32.277l-1.386,1.317l-0.043,4.254c-0.001,0.191,0.153,0.347,0.345,0.347h0.216 c0.178,0,0.326-0.135,0.343-0.312L36.158,32.277z"/><path fill="#3c3c3c" d="M36.13,32.359l-1.338,1.275l-0.044,4.206c-0.001,0.185,0.148,0.335,0.333,0.335h0.203 c0.172,0,0.315-0.131,0.331-0.301L36.13,32.359z"/><path fill="#3d3d3d" d="M36.101,32.441l-1.291,1.232l-0.045,4.157c-0.002,0.178,0.143,0.324,0.321,0.324h0.19 c0.166,0,0.304-0.126,0.32-0.291L36.101,32.441z"/><path fill="#3e3e3e" d="M36.073,32.523l-1.243,1.19l-0.046,4.109c-0.002,0.172,0.137,0.312,0.309,0.312h0.177 c0.16,0,0.293-0.121,0.308-0.28L36.073,32.523z"/><path fill="#3f3f3f" d="M36.044,32.605l-1.195,1.148l-0.047,4.061c-0.002,0.165,0.132,0.3,0.297,0.3h0.164 c0.154,0,0.282-0.117,0.296-0.27L36.044,32.605z"/><path fill="#404040" d="M36.016,32.687l-1.147,1.106l-0.048,4.013c-0.002,0.159,0.127,0.289,0.286,0.289h0.151 c0.147,0,0.271-0.112,0.284-0.259L36.016,32.687z"/><path fill="#414141" d="M35.987,32.769l-1.1,1.064l-0.049,3.964c-0.002,0.152,0.121,0.277,0.274,0.277h0.138 c0.141,0,0.26-0.108,0.273-0.249L35.987,32.769z"/><path fill="#424242" d="M35.959,32.85l-1.052,1.022l-0.05,3.916c-0.002,0.146,0.116,0.265,0.262,0.265h0.125 c0.135,0,0.248-0.103,0.261-0.238L35.959,32.85z"/><path fill="#434343" d="M35.93,32.932l-1.004,0.98l-0.051,3.868c-0.002,0.139,0.111,0.253,0.25,0.253h0.111 c0.129,0,0.237-0.099,0.249-0.227L35.93,32.932z"/><path fill="#444" d="M35.902,33.014l-0.956,0.938l-0.053,3.82c-0.002,0.133,0.105,0.242,0.238,0.242h0.098 c0.123,0,0.226-0.094,0.237-0.217L35.902,33.014z"/><path fill="#454545" d="M35.874,33.096l-0.909,0.896l-0.054,3.771c-0.002,0.126,0.1,0.23,0.227,0.23h0.085 c0.117,0,0.215-0.089,0.226-0.206L35.874,33.096z"/></g><g opacity=".72"><line x1="15.5" x2="15.5" y1="36.288" y2="36.788" fill="none" stroke="#9e651b" stroke-linecap="round" stroke-linejoin="round"/><line x1="15.5" x2="15.5" y1="38.119" y2="42.334" fill="none" stroke="#9e651b" stroke-dasharray="1.1093,1.3312" stroke-linecap="round" stroke-linejoin="round"/><line x1="15.5" x2="15.5" y1="43" y2="43.5" fill="none" stroke="#9e651b" stroke-linecap="round" stroke-linejoin="round"/></g><g opacity=".72"><line x1="32.5" x2="32.5" y1="36.288" y2="36.788" fill="none" stroke="#9e651b" stroke-linecap="round" stroke-linejoin="round"/><line x1="32.5" x2="32.5" y1="38.119" y2="42.334" fill="none" stroke="#9e651b" stroke-dasharray="1.1093,1.3312" stroke-linecap="round" stroke-linejoin="round"/><line x1="32.5" x2="32.5" y1="43" y2="43.5" fill="none" stroke="#9e651b" stroke-linecap="round" stroke-linejoin="round"/></g><radialGradient id="TlngT1~6g0WRqYw8_i1W1d" cx="92" cy="92" r="16" gradientTransform="rotate(180 58 58)" gradientUnits="userSpaceOnUse"><stop offset=".074" stop-color="#424242"/><stop offset=".077" stop-color="#313131"/><stop offset=".083" stop-color="#212121"/><stop offset=".089" stop-color="#171717"/><stop offset=".097" stop-color="#141414"/><stop offset=".103" stop-color="#fff"/><stop offset=".776" stop-color="#fff"/><stop offset=".807" stop-color="#141414"/><stop offset=".873" stop-color="#424242"/><stop offset=".93" stop-color="#424242"/><stop offset=".955" stop-color="#2b2b2b"/><stop offset=".981" stop-color="#1a1a1a"/><stop offset="1" stop-color="#141414"/></radialGradient><circle cx="24" cy="24" r="16" fill="url(#TlngT1~6g0WRqYw8_i1W1d)"/><line x1="29.657" x2="24" y1="29.657" y2="24" fill="none" stroke="#292929" stroke-linecap="round" stroke-linejoin="round" stroke-miterlimit="10" stroke-width="1.5"/><line x1="32.071" x2="24" y1="15.929" y2="24" fill="none" stroke="#292929" stroke-linecap="round" stroke-linejoin="round" stroke-miterlimit="10"/><line x1="14.445" x2="24" y1="21.051" y2="24" fill="none" stroke="#b20000" stroke-linecap="round" stroke-linejoin="round" stroke-miterlimit="10" stroke-width=".75"/><radialGradient id="TlngT1~6g0WRqYw8_i1W1e" cx="24" cy="24" r="1" gradientUnits="userSpaceOnUse"><stop offset=".469" stop-color="#6b0000"/><stop offset=".591" stop-color="#d90000"/></radialGradient><circle cx="24" cy="24" r="1" fill="url(#TlngT1~6g0WRqYw8_i1W1e)"/><circle cx="24" cy="12.5" r=".5" fill="#7a7a7a"/><circle cx="24" cy="35.5" r=".5" fill="#7a7a7a"/><circle cx="35.5" cy="24" r=".5" fill="#7a7a7a"/><circle cx="12.5" cy="24" r=".5" fill="#7a7a7a"/><circle cx="18.25" cy="14.041" r=".5" fill="#7a7a7a"/><circle cx="29.75" cy="33.959" r=".5" fill="#7a7a7a"/><circle cx="33.959" cy="18.25" r=".5" fill="#7a7a7a"/><circle cx="14.041" cy="29.75" r=".5" fill="#7a7a7a"/><circle cx="14.041" cy="18.25" r=".5" fill="#7a7a7a"/><circle cx="33.959" cy="29.75" r=".5" fill="#7a7a7a"/><circle cx="29.75" cy="14.041" r=".5" fill="#7a7a7a"/><circle cx="18.25" cy="33.959" r=".5" fill="#7a7a7a"/></svg>