<svg xmlns="http://www.w3.org/2000/svg" viewBox="0 0 48 48"><linearGradient id="eZW0RNcuTRzRMg2ocBRSia" x1="13.5" x2="13.5" y1="40" y2="7.411" gradientUnits="userSpaceOnUse"><stop offset="0" stop-color="#8b4a00"/><stop offset=".102" stop-color="#985204"/><stop offset=".506" stop-color="#c57014"/><stop offset=".819" stop-color="#e1831d"/><stop offset="1" stop-color="#eb8a21"/></linearGradient><rect width="1" height="31" x="13" y="9" fill="url(#eZW0RNcuTRzRMg2ocBRSia)"/><linearGradient id="eZW0RNcuTRzRMg2ocBRSib" x1="20.5" x2="20.5" y1="40" y2="7.411" gradientUnits="userSpaceOnUse"><stop offset="0" stop-color="#8b4a00"/><stop offset=".102" stop-color="#985204"/><stop offset=".506" stop-color="#c57014"/><stop offset=".819" stop-color="#e1831d"/><stop offset="1" stop-color="#eb8a21"/></linearGradient><rect width="1" height="31" x="20" y="9" fill="url(#eZW0RNcuTRzRMg2ocBRSib)"/><linearGradient id="eZW0RNcuTRzRMg2ocBRSic" x1="27.5" x2="27.5" y1="40" y2="7.411" gradientUnits="userSpaceOnUse"><stop offset="0" stop-color="#8b4a00"/><stop offset=".102" stop-color="#985204"/><stop offset=".506" stop-color="#c57014"/><stop offset=".819" stop-color="#e1831d"/><stop offset="1" stop-color="#eb8a21"/></linearGradient><rect width="1" height="31" x="27" y="9" fill="url(#eZW0RNcuTRzRMg2ocBRSic)"/><linearGradient id="eZW0RNcuTRzRMg2ocBRSid" x1="34.5" x2="34.5" y1="40" y2="7.411" gradientUnits="userSpaceOnUse"><stop offset="0" stop-color="#8b4a00"/><stop offset=".102" stop-color="#985204"/><stop offset=".506" stop-color="#c57014"/><stop offset=".819" stop-color="#e1831d"/><stop offset="1" stop-color="#eb8a21"/></linearGradient><rect width="1" height="31" x="34" y="9" fill="url(#eZW0RNcuTRzRMg2ocBRSid)"/><linearGradient id="eZW0RNcuTRzRMg2ocBRSie" x1="24" x2="24" y1="44" y2="3.001" gradientUnits="userSpaceOnUse"><stop offset="0" stop-color="#8b4a00"/><stop offset=".102" stop-color="#985204"/><stop offset=".506" stop-color="#c57014"/><stop offset=".819" stop-color="#e1831d"/><stop offset="1" stop-color="#eb8a21"/></linearGradient><path fill="url(#eZW0RNcuTRzRMg2ocBRSie)" d="M42.362,5H5.638C5.286,5,5,5.286,5,5.638v37.723C5,43.714,5.286,44,5.638,44h36.723	C42.714,44,43,43.714,43,43.362V5.638C43,5.286,42.714,5,42.362,5z M40,41H8V8h32V41z"/><linearGradient id="eZW0RNcuTRzRMg2ocBRSif" x1="33.647" x2="-24.005" y1="37.886" y2="-42.115" gradientUnits="userSpaceOnUse"><stop offset="0" stop-color="#d97c00"/><stop offset=".178" stop-color="#ac5f00"/><stop offset=".449" stop-color="#6e3800"/><stop offset=".679" stop-color="#401b00"/><stop offset=".855" stop-color="#240900"/><stop offset=".958" stop-color="#1a0200"/></linearGradient><path fill="url(#eZW0RNcuTRzRMg2ocBRSif)" d="M8,8v33h32V8H8z M39,40H9V9h30V40z"/><linearGradient id="eZW0RNcuTRzRMg2ocBRSig" x1="24" x2="24" y1="20" y2="16.846" gradientUnits="userSpaceOnUse"><stop offset="0" stop-color="#8b4a00"/><stop offset=".102" stop-color="#985204"/><stop offset=".506" stop-color="#c57014"/><stop offset=".819" stop-color="#e1831d"/><stop offset="1" stop-color="#eb8a21"/></linearGradient><rect width="31.021" height="3" x="8.489" y="17" fill="url(#eZW0RNcuTRzRMg2ocBRSig)"/><radialGradient id="eZW0RNcuTRzRMg2ocBRSih" cx="12.734" cy="14.17" r="2.69" gradientUnits="userSpaceOnUse"><stop offset="0" stop-color="#53caf6"/><stop offset=".687" stop-color="#0066be"/><stop offset=".986" stop-color="#00349c"/></radialGradient><path fill="url(#eZW0RNcuTRzRMg2ocBRSih)" d="M14.753,13h-2.507c-0.158,0-0.309,0.063-0.421,0.174l-1.376,1.376 c-0.248,0.248-0.248,0.651,0,0.899l1.376,1.376C11.937,16.937,12.089,17,12.247,17h2.507c0.158,0,0.309-0.063,0.421-0.174 l1.376-1.376c0.248-0.248,0.248-0.651,0-0.899l-1.376-1.376C15.063,13.063,14.911,13,14.753,13z"/><radialGradient id="eZW0RNcuTRzRMg2ocBRSii" cx="12.734" cy="14.213" r="2.395" gradientUnits="userSpaceOnUse"><stop offset="0" stop-color="#0870c4"/><stop offset=".986" stop-color="#00349c"/></radialGradient><path fill="url(#eZW0RNcuTRzRMg2ocBRSii)" d="M10.449,15.449l1.376,1.376C11.937,16.937,12.089,17,12.247,17h2.507 c0.158,0,0.309-0.063,0.421-0.174l1.376-1.376c0.124-0.124,0.186-0.287,0.186-0.449h-6.473 C10.263,15.163,10.325,15.325,10.449,15.449z"/><radialGradient id="eZW0RNcuTRzRMg2ocBRSij" cx="19.734" cy="14.17" r="2.69" gradientUnits="userSpaceOnUse"><stop offset="0" stop-color="#53caf6"/><stop offset=".687" stop-color="#0066be"/><stop offset=".986" stop-color="#00349c"/></radialGradient><path fill="url(#eZW0RNcuTRzRMg2ocBRSij)" d="M21.753,13h-2.507c-0.158,0-0.309,0.063-0.421,0.174l-1.376,1.376 c-0.248,0.248-0.248,0.651,0,0.899l1.376,1.376C18.937,16.937,19.089,17,19.247,17h2.507c0.158,0,0.309-0.063,0.421-0.174 l1.376-1.376c0.248-0.248,0.248-0.651,0-0.899l-1.376-1.376C22.063,13.063,21.911,13,21.753,13z"/><radialGradient id="eZW0RNcuTRzRMg2ocBRSik" cx="19.734" cy="14.213" r="2.395" gradientUnits="userSpaceOnUse"><stop offset="0" stop-color="#0870c4"/><stop offset=".986" stop-color="#00349c"/></radialGradient><path fill="url(#eZW0RNcuTRzRMg2ocBRSik)" d="M17.449,15.449l1.376,1.376C18.937,16.937,19.089,17,19.247,17h2.507 c0.158,0,0.309-0.063,0.421-0.174l1.376-1.376c0.124-0.124,0.186-0.287,0.186-0.449h-6.473 C17.263,15.163,17.325,15.325,17.449,15.449z"/><radialGradient id="eZW0RNcuTRzRMg2ocBRSil" cx="12.734" cy="21.17" r="2.69" gradientUnits="userSpaceOnUse"><stop offset="0" stop-color="#8cc63f"/><stop offset=".737" stop-color="#3e9045"/><stop offset=".986" stop-color="#317c42"/></radialGradient><path fill="url(#eZW0RNcuTRzRMg2ocBRSil)" d="M14.753,20h-2.507c-0.158,0-0.309,0.063-0.421,0.174l-1.376,1.376 c-0.248,0.248-0.248,0.651,0,0.899l1.376,1.376C11.937,23.937,12.089,24,12.247,24h2.507c0.158,0,0.309-0.063,0.421-0.174 l1.376-1.376c0.248-0.248,0.248-0.651,0-0.899l-1.376-1.376C15.063,20.063,14.911,20,14.753,20z"/><radialGradient id="eZW0RNcuTRzRMg2ocBRSim" cx="12.734" cy="21.213" r="2.395" gradientUnits="userSpaceOnUse"><stop offset="0" stop-color="#5da63f"/><stop offset=".986" stop-color="#317c42"/></radialGradient><path fill="url(#eZW0RNcuTRzRMg2ocBRSim)" d="M10.449,22.449l1.376,1.376C11.937,23.937,12.089,24,12.247,24h2.507 c0.158,0,0.309-0.063,0.421-0.174l1.376-1.376c0.124-0.124,0.186-0.287,0.186-0.449h-6.473 C10.263,22.163,10.325,22.325,10.449,22.449z"/><radialGradient id="eZW0RNcuTRzRMg2ocBRSin" cx="19.734" cy="21.17" r="2.69" gradientUnits="userSpaceOnUse"><stop offset="0" stop-color="#8cc63f"/><stop offset=".737" stop-color="#3e9045"/><stop offset=".986" stop-color="#317c42"/></radialGradient><path fill="url(#eZW0RNcuTRzRMg2ocBRSin)" d="M21.753,20h-2.507c-0.158,0-0.309,0.063-0.421,0.174l-1.376,1.376 c-0.248,0.248-0.248,0.651,0,0.899l1.376,1.376C18.937,23.937,19.089,24,19.247,24h2.507c0.158,0,0.309-0.063,0.421-0.174 l1.376-1.376c0.248-0.248,0.248-0.651,0-0.899l-1.376-1.376C22.063,20.063,21.911,20,21.753,20z"/><radialGradient id="eZW0RNcuTRzRMg2ocBRSio" cx="19.734" cy="21.213" r="2.395" gradientUnits="userSpaceOnUse"><stop offset="0" stop-color="#5da63f"/><stop offset=".986" stop-color="#317c42"/></radialGradient><path fill="url(#eZW0RNcuTRzRMg2ocBRSio)" d="M17.449,22.449l1.376,1.376C18.937,23.937,19.089,24,19.247,24h2.507 c0.158,0,0.309-0.063,0.421-0.174l1.376-1.376c0.124-0.124,0.186-0.287,0.186-0.449h-6.473 C17.263,22.163,17.325,22.325,17.449,22.449z"/><radialGradient id="eZW0RNcuTRzRMg2ocBRSip" cx="26.734" cy="10.17" r="2.69" gradientUnits="userSpaceOnUse"><stop offset="0" stop-color="#53caf6"/><stop offset=".687" stop-color="#0066be"/><stop offset=".986" stop-color="#00349c"/></radialGradient><path fill="url(#eZW0RNcuTRzRMg2ocBRSip)" d="M28.753,9h-2.507c-0.158,0-0.309,0.063-0.421,0.174l-1.376,1.376 c-0.248,0.248-0.248,0.651,0,0.899l1.376,1.376C25.937,12.937,26.089,13,26.247,13h2.507c0.158,0,0.309-0.063,0.421-0.174 l1.376-1.376c0.248-0.248,0.248-0.651,0-0.899l-1.376-1.376C29.063,9.063,28.911,9,28.753,9z"/><radialGradient id="eZW0RNcuTRzRMg2ocBRSiq" cx="26.734" cy="10.213" r="2.395" gradientUnits="userSpaceOnUse"><stop offset="0" stop-color="#0870c4"/><stop offset=".986" stop-color="#00349c"/></radialGradient><path fill="url(#eZW0RNcuTRzRMg2ocBRSiq)" d="M24.449,11.449l1.376,1.376C25.937,12.937,26.089,13,26.247,13h2.507 c0.158,0,0.309-0.063,0.421-0.174l1.376-1.376c0.124-0.124,0.186-0.287,0.186-0.449h-6.473 C24.263,11.163,24.325,11.325,24.449,11.449z"/><radialGradient id="eZW0RNcuTRzRMg2ocBRSir" cx="33.734" cy="10.17" r="2.69" gradientUnits="userSpaceOnUse"><stop offset="0" stop-color="#53caf6"/><stop offset=".687" stop-color="#0066be"/><stop offset=".986" stop-color="#00349c"/></radialGradient><path fill="url(#eZW0RNcuTRzRMg2ocBRSir)" d="M35.753,9h-2.507c-0.158,0-0.309,0.063-0.421,0.174l-1.376,1.376 c-0.248,0.248-0.248,0.651,0,0.899l1.376,1.376C32.937,12.937,33.089,13,33.247,13h2.507c0.158,0,0.309-0.063,0.421-0.174 l1.376-1.376c0.248-0.248,0.248-0.651,0-0.899l-1.376-1.376C36.063,9.063,35.911,9,35.753,9z"/><radialGradient id="eZW0RNcuTRzRMg2ocBRSis" cx="33.734" cy="10.213" r="2.395" gradientUnits="userSpaceOnUse"><stop offset="0" stop-color="#0870c4"/><stop offset=".986" stop-color="#00349c"/></radialGradient><path fill="url(#eZW0RNcuTRzRMg2ocBRSis)" d="M31.449,11.449l1.376,1.376C32.937,12.937,33.089,13,33.247,13h2.507 c0.158,0,0.309-0.063,0.421-0.174l1.376-1.376c0.124-0.124,0.186-0.287,0.186-0.449h-6.473 C31.263,11.163,31.325,11.325,31.449,11.449z"/><radialGradient id="eZW0RNcuTRzRMg2ocBRSit" cx="26.734" cy="21.17" r="2.69" gradientUnits="userSpaceOnUse"><stop offset="0" stop-color="#8cc63f"/><stop offset=".737" stop-color="#3e9045"/><stop offset=".986" stop-color="#317c42"/></radialGradient><path fill="url(#eZW0RNcuTRzRMg2ocBRSit)" d="M28.753,20h-2.507c-0.158,0-0.309,0.063-0.421,0.174l-1.376,1.376 c-0.248,0.248-0.248,0.651,0,0.899l1.376,1.376C25.937,23.937,26.089,24,26.247,24h2.507c0.158,0,0.309-0.063,0.421-0.174 l1.376-1.376c0.248-0.248,0.248-0.651,0-0.899l-1.376-1.376C29.063,20.063,28.911,20,28.753,20z"/><radialGradient id="eZW0RNcuTRzRMg2ocBRSiu" cx="26.734" cy="21.213" r="2.395" gradientUnits="userSpaceOnUse"><stop offset="0" stop-color="#5da63f"/><stop offset=".986" stop-color="#317c42"/></radialGradient><path fill="url(#eZW0RNcuTRzRMg2ocBRSiu)" d="M24.449,22.449l1.376,1.376C25.937,23.937,26.089,24,26.247,24h2.507 c0.158,0,0.309-0.063,0.421-0.174l1.376-1.376c0.124-0.124,0.186-0.287,0.186-0.449h-6.473 C24.263,22.163,24.325,22.325,24.449,22.449z"/><radialGradient id="eZW0RNcuTRzRMg2ocBRSiv" cx="19.734" cy="25.17" r="2.69" gradientUnits="userSpaceOnUse"><stop offset="0" stop-color="#ffef23"/><stop offset=".536" stop-color="#fed200"/><stop offset=".986" stop-color="orange"/></radialGradient><path fill="url(#eZW0RNcuTRzRMg2ocBRSiv)" d="M21.753,24h-2.507c-0.158,0-0.309,0.063-0.421,0.174l-1.376,1.376 c-0.248,0.248-0.248,0.651,0,0.899l1.376,1.376C18.937,27.937,19.089,28,19.247,28h2.507c0.158,0,0.309-0.063,0.421-0.174 l1.376-1.376c0.248-0.248,0.248-0.651,0-0.899l-1.376-1.376C22.063,24.063,21.911,24,21.753,24z"/><radialGradient id="eZW0RNcuTRzRMg2ocBRSiw" cx="19.734" cy="25.213" r="2.395" gradientUnits="userSpaceOnUse"><stop offset="0" stop-color="#ffc700"/><stop offset=".986" stop-color="#ffac00"/></radialGradient><path fill="url(#eZW0RNcuTRzRMg2ocBRSiw)" d="M17.449,26.449l1.376,1.376C18.937,27.937,19.089,28,19.247,28h2.507 c0.158,0,0.309-0.063,0.421-0.174l1.376-1.376c0.124-0.124,0.186-0.287,0.186-0.449h-6.473 C17.263,26.163,17.325,26.325,17.449,26.449z"/><radialGradient id="eZW0RNcuTRzRMg2ocBRSix" cx="26.734" cy="25.17" r="2.69" gradientUnits="userSpaceOnUse"><stop offset="0" stop-color="#ffef23"/><stop offset=".536" stop-color="#fed200"/><stop offset=".986" stop-color="orange"/></radialGradient><path fill="url(#eZW0RNcuTRzRMg2ocBRSix)" d="M28.753,24h-2.507c-0.158,0-0.309,0.063-0.421,0.174l-1.376,1.376 c-0.248,0.248-0.248,0.651,0,0.899l1.376,1.376C25.937,27.937,26.089,28,26.247,28h2.507c0.158,0,0.309-0.063,0.421-0.174 l1.376-1.376c0.248-0.248,0.248-0.651,0-0.899l-1.376-1.376C29.063,24.063,28.911,24,28.753,24z"/><radialGradient id="eZW0RNcuTRzRMg2ocBRSiy" cx="26.734" cy="25.213" r="2.395" gradientUnits="userSpaceOnUse"><stop offset="0" stop-color="#ffc700"/><stop offset=".986" stop-color="#ffac00"/></radialGradient><path fill="url(#eZW0RNcuTRzRMg2ocBRSiy)" d="M24.449,26.449l1.376,1.376C25.937,27.937,26.089,28,26.247,28h2.507 c0.158,0,0.309-0.063,0.421-0.174l1.376-1.376c0.124-0.124,0.186-0.287,0.186-0.449h-6.473 C24.263,26.163,24.325,26.325,24.449,26.449z"/><radialGradient id="eZW0RNcuTRzRMg2ocBRSiz" cx="26.734" cy="29.17" r="2.69" gradientUnits="userSpaceOnUse"><stop offset="0" stop-color="#ffb74d"/><stop offset=".986" stop-color="#ff7f05"/></radialGradient><path fill="url(#eZW0RNcuTRzRMg2ocBRSiz)" d="M28.753,28h-2.507c-0.158,0-0.309,0.063-0.421,0.174l-1.376,1.376 c-0.248,0.248-0.248,0.651,0,0.899l1.376,1.376C25.937,31.937,26.089,32,26.247,32h2.507c0.158,0,0.309-0.063,0.421-0.174 l1.376-1.376c0.248-0.248,0.248-0.651,0-0.899l-1.376-1.376C29.063,28.063,28.911,28,28.753,28z"/><radialGradient id="eZW0RNcuTRzRMg2ocBRSiA" cx="26.734" cy="29.213" r="2.395" gradientUnits="userSpaceOnUse"><stop offset="0" stop-color="#ff8f00"/><stop offset=".986" stop-color="#f15a24"/></radialGradient><path fill="url(#eZW0RNcuTRzRMg2ocBRSiA)" d="M24.449,30.449l1.376,1.376C25.937,31.937,26.089,32,26.247,32h2.507 c0.158,0,0.309-0.063,0.421-0.174l1.376-1.376c0.124-0.124,0.186-0.287,0.186-0.449h-6.473 C24.263,30.163,24.325,30.325,24.449,30.449z"/><radialGradient id="eZW0RNcuTRzRMg2ocBRSiB" cx="19.734" cy="29.17" r="2.69" gradientUnits="userSpaceOnUse"><stop offset="0" stop-color="#ffb74d"/><stop offset=".986" stop-color="#ff7f05"/></radialGradient><path fill="url(#eZW0RNcuTRzRMg2ocBRSiB)" d="M21.753,28h-2.507c-0.158,0-0.309,0.063-0.421,0.174l-1.376,1.376 c-0.248,0.248-0.248,0.651,0,0.899l1.376,1.376C18.937,31.937,19.089,32,19.247,32h2.507c0.158,0,0.309-0.063,0.421-0.174 l1.376-1.376c0.248-0.248,0.248-0.651,0-0.899l-1.376-1.376C22.063,28.063,21.911,28,21.753,28z"/><radialGradient id="eZW0RNcuTRzRMg2ocBRSiC" cx="19.734" cy="29.213" r="2.395" gradientUnits="userSpaceOnUse"><stop offset="0" stop-color="#ff8f00"/><stop offset=".986" stop-color="#f15a24"/></radialGradient><path fill="url(#eZW0RNcuTRzRMg2ocBRSiC)" d="M17.449,30.449l1.376,1.376C18.937,31.937,19.089,32,19.247,32h2.507 c0.158,0,0.309-0.063,0.421-0.174l1.376-1.376c0.124-0.124,0.186-0.287,0.186-0.449h-6.473 C17.263,30.163,17.325,30.325,17.449,30.449z"/><radialGradient id="eZW0RNcuTRzRMg2ocBRSiD" cx="12.734" cy="25.17" r="2.69" gradientUnits="userSpaceOnUse"><stop offset="0" stop-color="#ffef23"/><stop offset=".536" stop-color="#fed200"/><stop offset=".986" stop-color="orange"/></radialGradient><path fill="url(#eZW0RNcuTRzRMg2ocBRSiD)" d="M14.753,24h-2.507c-0.158,0-0.309,0.063-0.421,0.174l-1.376,1.376 c-0.248,0.248-0.248,0.651,0,0.899l1.376,1.376C11.937,27.937,12.089,28,12.247,28h2.507c0.158,0,0.309-0.063,0.421-0.174 l1.376-1.376c0.248-0.248,0.248-0.651,0-0.899l-1.376-1.376C15.063,24.063,14.911,24,14.753,24z"/><radialGradient id="eZW0RNcuTRzRMg2ocBRSiE" cx="12.734" cy="25.213" r="2.395" gradientUnits="userSpaceOnUse"><stop offset="0" stop-color="#ffc700"/><stop offset=".986" stop-color="#ffac00"/></radialGradient><path fill="url(#eZW0RNcuTRzRMg2ocBRSiE)" d="M10.449,26.449l1.376,1.376C11.937,27.937,12.089,28,12.247,28h2.507 c0.158,0,0.309-0.063,0.421-0.174l1.376-1.376c0.124-0.124,0.186-0.287,0.186-0.449h-6.473 C10.263,26.163,10.325,26.325,10.449,26.449z"/><radialGradient id="eZW0RNcuTRzRMg2ocBRSiF" cx="12.734" cy="29.17" r="2.69" gradientUnits="userSpaceOnUse"><stop offset="0" stop-color="#ffb74d"/><stop offset=".986" stop-color="#ff7f05"/></radialGradient><path fill="url(#eZW0RNcuTRzRMg2ocBRSiF)" d="M14.753,28h-2.507c-0.158,0-0.309,0.063-0.421,0.174l-1.376,1.376 c-0.248,0.248-0.248,0.651,0,0.899l1.376,1.376C11.937,31.937,12.089,32,12.247,32h2.507c0.158,0,0.309-0.063,0.421-0.174 l1.376-1.376c0.248-0.248,0.248-0.651,0-0.899l-1.376-1.376C15.063,28.063,14.911,28,14.753,28z"/><radialGradient id="eZW0RNcuTRzRMg2ocBRSiG" cx="12.734" cy="29.213" r="2.395" gradientUnits="userSpaceOnUse"><stop offset="0" stop-color="#ff8f00"/><stop offset=".986" stop-color="#f15a24"/></radialGradient><path fill="url(#eZW0RNcuTRzRMg2ocBRSiG)" d="M10.449,30.449l1.376,1.376C11.937,31.937,12.089,32,12.247,32h2.507 c0.158,0,0.309-0.063,0.421-0.174l1.376-1.376c0.124-0.124,0.186-0.287,0.186-0.449h-6.473 C10.263,30.163,10.325,30.325,10.449,30.449z"/><g><radialGradient id="eZW0RNcuTRzRMg2ocBRSiH" cx="26.734" cy="37.17" r="2.69" gradientUnits="userSpaceOnUse"><stop offset="0" stop-color="#ff7448"/><stop offset=".737" stop-color="#e51e25"/><stop offset=".986" stop-color="#d31321"/></radialGradient><path fill="url(#eZW0RNcuTRzRMg2ocBRSiH)" d="M28.753,36h-2.507c-0.158,0-0.309,0.063-0.421,0.174l-1.376,1.376 c-0.248,0.248-0.248,0.651,0,0.899l1.376,1.376C25.937,39.937,26.089,40,26.247,40h2.507c0.158,0,0.309-0.063,0.421-0.174 l1.376-1.376c0.248-0.248,0.248-0.651,0-0.899l-1.376-1.376C29.063,36.063,28.911,36,28.753,36z"/><radialGradient id="eZW0RNcuTRzRMg2ocBRSiI" cx="26.734" cy="37.213" r="2.395" gradientUnits="userSpaceOnUse"><stop offset="0" stop-color="#ff7448"/><stop offset=".986" stop-color="#bc1529"/></radialGradient><path fill="url(#eZW0RNcuTRzRMg2ocBRSiI)" d="M24.449,38.449l1.376,1.376C25.937,39.937,26.089,40,26.247,40h2.507 c0.158,0,0.309-0.063,0.421-0.174l1.376-1.376c0.124-0.124,0.186-0.287,0.186-0.449h-6.473 C24.263,38.163,24.325,38.325,24.449,38.449z"/></g><g><radialGradient id="eZW0RNcuTRzRMg2ocBRSiJ" cx="19.734" cy="37.17" r="2.69" gradientUnits="userSpaceOnUse"><stop offset="0" stop-color="#ff7448"/><stop offset=".737" stop-color="#e51e25"/><stop offset=".986" stop-color="#d31321"/></radialGradient><path fill="url(#eZW0RNcuTRzRMg2ocBRSiJ)" d="M21.753,36h-2.507c-0.158,0-0.309,0.063-0.421,0.174l-1.376,1.376 c-0.248,0.248-0.248,0.651,0,0.899l1.376,1.376C18.937,39.937,19.089,40,19.247,40h2.507c0.158,0,0.309-0.063,0.421-0.174 l1.376-1.376c0.248-0.248,0.248-0.651,0-0.899l-1.376-1.376C22.063,36.063,21.911,36,21.753,36z"/><radialGradient id="eZW0RNcuTRzRMg2ocBRSiK" cx="19.734" cy="37.213" r="2.395" gradientUnits="userSpaceOnUse"><stop offset="0" stop-color="#ff7448"/><stop offset=".986" stop-color="#bc1529"/></radialGradient><path fill="url(#eZW0RNcuTRzRMg2ocBRSiK)" d="M17.449,38.449l1.376,1.376C18.937,39.937,19.089,40,19.247,40h2.507 c0.158,0,0.309-0.063,0.421-0.174l1.376-1.376c0.124-0.124,0.186-0.287,0.186-0.449h-6.473 C17.263,38.163,17.325,38.325,17.449,38.449z"/></g><g><radialGradient id="eZW0RNcuTRzRMg2ocBRSiL" cx="12.734" cy="33.17" r="2.69" gradientUnits="userSpaceOnUse"><stop offset="0" stop-color="#ff7448"/><stop offset=".737" stop-color="#e51e25"/><stop offset=".986" stop-color="#d31321"/></radialGradient><path fill="url(#eZW0RNcuTRzRMg2ocBRSiL)" d="M14.753,32h-2.507c-0.158,0-0.309,0.063-0.421,0.174l-1.376,1.376 c-0.248,0.248-0.248,0.651,0,0.899l1.376,1.376C11.937,35.937,12.089,36,12.247,36h2.507c0.158,0,0.309-0.063,0.421-0.174 l1.376-1.376c0.248-0.248,0.248-0.651,0-0.899l-1.376-1.376C15.063,32.063,14.911,32,14.753,32z"/><radialGradient id="eZW0RNcuTRzRMg2ocBRSiM" cx="12.734" cy="33.213" r="2.395" gradientUnits="userSpaceOnUse"><stop offset="0" stop-color="#ff7448"/><stop offset=".986" stop-color="#bc1529"/></radialGradient><path fill="url(#eZW0RNcuTRzRMg2ocBRSiM)" d="M10.449,34.449l1.376,1.376C11.937,35.937,12.089,36,12.247,36h2.507 c0.158,0,0.309-0.063,0.421-0.174l1.376-1.376c0.124-0.124,0.186-0.287,0.186-0.449h-6.473 C10.263,34.163,10.325,34.325,10.449,34.449z"/></g><g><radialGradient id="eZW0RNcuTRzRMg2ocBRSiN" cx="33.734" cy="21.17" r="2.69" gradientUnits="userSpaceOnUse"><stop offset="0" stop-color="#8cc63f"/><stop offset=".737" stop-color="#3e9045"/><stop offset=".986" stop-color="#317c42"/></radialGradient><path fill="url(#eZW0RNcuTRzRMg2ocBRSiN)" d="M35.753,20h-2.507c-0.158,0-0.309,0.063-0.421,0.174l-1.376,1.376 c-0.248,0.248-0.248,0.651,0,0.899l1.376,1.376C32.937,23.937,33.089,24,33.247,24h2.507c0.158,0,0.309-0.063,0.421-0.174 l1.376-1.376c0.248-0.248,0.248-0.651,0-0.899l-1.376-1.376C36.063,20.063,35.911,20,35.753,20z"/><radialGradient id="eZW0RNcuTRzRMg2ocBRSiO" cx="33.734" cy="21.213" r="2.395" gradientUnits="userSpaceOnUse"><stop offset="0" stop-color="#5da63f"/><stop offset=".986" stop-color="#317c42"/></radialGradient><path fill="url(#eZW0RNcuTRzRMg2ocBRSiO)" d="M31.449,22.449l1.376,1.376C32.937,23.937,33.089,24,33.247,24h2.507 c0.158,0,0.309-0.063,0.421-0.174l1.376-1.376c0.124-0.124,0.186-0.287,0.186-0.449h-6.473 C31.263,22.163,31.325,22.325,31.449,22.449z"/></g><g><radialGradient id="eZW0RNcuTRzRMg2ocBRSiP" cx="33.734" cy="29.17" r="2.69" gradientUnits="userSpaceOnUse"><stop offset="0" stop-color="#ffef23"/><stop offset=".536" stop-color="#fed200"/><stop offset=".986" stop-color="orange"/></radialGradient><path fill="url(#eZW0RNcuTRzRMg2ocBRSiP)" d="M35.753,28h-2.507c-0.158,0-0.309,0.063-0.421,0.174l-1.376,1.376 c-0.248,0.248-0.248,0.651,0,0.899l1.376,1.376C32.937,31.937,33.089,32,33.247,32h2.507c0.158,0,0.309-0.063,0.421-0.174 l1.376-1.376c0.248-0.248,0.248-0.651,0-0.899l-1.376-1.376C36.063,28.063,35.911,28,35.753,28z"/><radialGradient id="eZW0RNcuTRzRMg2ocBRSiQ" cx="33.734" cy="29.213" r="2.395" gradientUnits="userSpaceOnUse"><stop offset="0" stop-color="#ffc700"/><stop offset=".986" stop-color="#ffac00"/></radialGradient><path fill="url(#eZW0RNcuTRzRMg2ocBRSiQ)" d="M31.449,30.449l1.376,1.376C32.937,31.937,33.089,32,33.247,32h2.507 c0.158,0,0.309-0.063,0.421-0.174l1.376-1.376c0.124-0.124,0.186-0.287,0.186-0.449h-6.473 C31.263,30.163,31.325,30.325,31.449,30.449z"/></g><g><radialGradient id="eZW0RNcuTRzRMg2ocBRSiR" cx="33.734" cy="33.17" r="2.69" gradientUnits="userSpaceOnUse"><stop offset="0" stop-color="#ffb74d"/><stop offset=".986" stop-color="#ff7f05"/></radialGradient><path fill="url(#eZW0RNcuTRzRMg2ocBRSiR)" d="M35.753,32h-2.507c-0.158,0-0.309,0.063-0.421,0.174l-1.376,1.376 c-0.248,0.248-0.248,0.651,0,0.899l1.376,1.376C32.937,35.937,33.089,36,33.247,36h2.507c0.158,0,0.309-0.063,0.421-0.174 l1.376-1.376c0.248-0.248,0.248-0.651,0-0.899l-1.376-1.376C36.063,32.063,35.911,32,35.753,32z"/><radialGradient id="eZW0RNcuTRzRMg2ocBRSiS" cx="33.734" cy="33.213" r="2.395" gradientUnits="userSpaceOnUse"><stop offset="0" stop-color="#ff8f00"/><stop offset=".986" stop-color="#f15a24"/></radialGradient><path fill="url(#eZW0RNcuTRzRMg2ocBRSiS)" d="M31.449,34.449l1.376,1.376C32.937,35.937,33.089,36,33.247,36h2.507 c0.158,0,0.309-0.063,0.421-0.174l1.376-1.376c0.124-0.124,0.186-0.287,0.186-0.449h-6.473 C31.263,34.163,31.325,34.325,31.449,34.449z"/></g><g><radialGradient id="eZW0RNcuTRzRMg2ocBRSiT" cx="33.734" cy="37.17" r="2.69" gradientUnits="userSpaceOnUse"><stop offset="0" stop-color="#ff7448"/><stop offset=".737" stop-color="#e51e25"/><stop offset=".986" stop-color="#d31321"/></radialGradient><path fill="url(#eZW0RNcuTRzRMg2ocBRSiT)" d="M35.753,36h-2.507c-0.158,0-0.309,0.063-0.421,0.174l-1.376,1.376 c-0.248,0.248-0.248,0.651,0,0.899l1.376,1.376C32.937,39.937,33.089,40,33.247,40h2.507c0.158,0,0.309-0.063,0.421-0.174 l1.376-1.376c0.248-0.248,0.248-0.651,0-0.899l-1.376-1.376C36.063,36.063,35.911,36,35.753,36z"/><radialGradient id="eZW0RNcuTRzRMg2ocBRSiU" cx="33.734" cy="37.213" r="2.395" gradientUnits="userSpaceOnUse"><stop offset="0" stop-color="#ff7448"/><stop offset=".986" stop-color="#bc1529"/></radialGradient><path fill="url(#eZW0RNcuTRzRMg2ocBRSiU)" d="M31.449,38.449l1.376,1.376C32.937,39.937,33.089,40,33.247,40h2.507 c0.158,0,0.309-0.063,0.421-0.174l1.376-1.376c0.124-0.124,0.186-0.287,0.186-0.449h-6.473 C31.263,38.163,31.325,38.325,31.449,38.449z"/></g><radialGradient id="eZW0RNcuTRzRMg2ocBRSiV" cx="13.375" cy="23.261" r="2.953" gradientTransform="matrix(1 .0056 -.005 .9073 .118 2.082)" gradientUnits="userSpaceOnUse"><stop offset="0" stop-color="#171714" stop-opacity=".6"/><stop offset=".785" stop-color="#171714" stop-opacity="0"/></radialGradient><path fill="url(#eZW0RNcuTRzRMg2ocBRSiV)" d="M15.174,24.174C15.063,24.063,14.911,24,14.753,24h-2.507c-0.158,0-0.309,0.063-0.421,0.174	l-1.064,1.064c0.57,0.904,1.571,1.509,2.718,1.509c1.158,0,2.165-0.617,2.732-1.535L15.174,24.174z"/><radialGradient id="eZW0RNcuTRzRMg2ocBRSiW" cx="13.375" cy="19.261" r="2.953" gradientTransform="matrix(1 .0056 -.005 .9073 .098 1.711)" gradientUnits="userSpaceOnUse"><stop offset="0" stop-color="#171714" stop-opacity=".6"/><stop offset=".785" stop-color="#171714" stop-opacity="0"/></radialGradient><path fill="url(#eZW0RNcuTRzRMg2ocBRSiW)" d="M15.174,20.174C15.063,20.063,14.911,20,14.753,20h-2.507c-0.158,0-0.309,0.063-0.421,0.174	l-1.064,1.064c0.57,0.904,1.571,1.509,2.718,1.509c1.158,0,2.165-0.617,2.732-1.535L15.174,20.174z"/><radialGradient id="eZW0RNcuTRzRMg2ocBRSiX" cx="20.388" cy="19.261" r="2.953" gradientTransform="matrix(1 .0056 -.005 .9073 .098 1.672)" gradientUnits="userSpaceOnUse"><stop offset="0" stop-color="#171714" stop-opacity=".6"/><stop offset=".785" stop-color="#171714" stop-opacity="0"/></radialGradient><path fill="url(#eZW0RNcuTRzRMg2ocBRSiX)" d="M22.187,20.174C22.076,20.063,21.924,20,21.766,20H19.26c-0.158,0-0.309,0.063-0.421,0.174	l-1.064,1.064c0.57,0.904,1.571,1.509,2.718,1.509c1.158,0,2.165-0.617,2.732-1.535L22.187,20.174z"/><radialGradient id="eZW0RNcuTRzRMg2ocBRSiY" cx="27.388" cy="19.261" r="2.953" gradientTransform="matrix(1 .0056 -.005 .9073 .098 1.633)" gradientUnits="userSpaceOnUse"><stop offset="0" stop-color="#171714" stop-opacity=".6"/><stop offset=".785" stop-color="#171714" stop-opacity="0"/></radialGradient><path fill="url(#eZW0RNcuTRzRMg2ocBRSiY)" d="M29.187,20.174C29.076,20.063,28.924,20,28.766,20H26.26c-0.158,0-0.309,0.063-0.421,0.174	l-1.064,1.064c0.57,0.904,1.571,1.509,2.718,1.509c1.158,0,2.165-0.617,2.732-1.535L29.187,20.174z"/><radialGradient id="eZW0RNcuTRzRMg2ocBRSiZ" cx="27.388" cy="8.261" r="2.953" gradientTransform="matrix(1 .0056 -.005 .9073 .042 .614)" gradientUnits="userSpaceOnUse"><stop offset="0" stop-color="#171714" stop-opacity=".6"/><stop offset=".785" stop-color="#171714" stop-opacity="0"/></radialGradient><path fill="url(#eZW0RNcuTRzRMg2ocBRSiZ)" d="M29.187,9.174C29.076,9.063,28.924,9,28.766,9H26.26c-0.158,0-0.309,0.063-0.421,0.174	l-1.064,1.064c0.57,0.904,1.571,1.509,2.718,1.509c1.158,0,2.165-0.617,2.732-1.535L29.187,9.174z"/><radialGradient id="eZW0RNcuTRzRMg2ocBRSiaa" cx="34.388" cy="8.261" r="2.953" gradientTransform="matrix(1 .0056 -.005 .9073 .042 .575)" gradientUnits="userSpaceOnUse"><stop offset="0" stop-color="#171714" stop-opacity=".6"/><stop offset=".785" stop-color="#171714" stop-opacity="0"/></radialGradient><path fill="url(#eZW0RNcuTRzRMg2ocBRSiaa)" d="M36.187,9.174C36.076,9.063,35.924,9,35.766,9H33.26c-0.158,0-0.309,0.063-0.421,0.174	l-1.064,1.064c0.57,0.904,1.571,1.509,2.718,1.509c1.158,0,2.165-0.617,2.732-1.535L36.187,9.174z"/><radialGradient id="eZW0RNcuTRzRMg2ocBRSiab" cx="34.388" cy="19.261" r="2.953" gradientTransform="matrix(1 .0056 -.005 .9073 .098 1.594)" gradientUnits="userSpaceOnUse"><stop offset="0" stop-color="#171714" stop-opacity=".6"/><stop offset=".785" stop-color="#171714" stop-opacity="0"/></radialGradient><path fill="url(#eZW0RNcuTRzRMg2ocBRSiab)" d="M36.187,20.174C36.076,20.063,35.924,20,35.766,20H33.26c-0.158,0-0.309,0.063-0.421,0.174	l-1.064,1.064c0.57,0.904,1.571,1.509,2.718,1.509c1.158,0,2.165-0.617,2.732-1.535L36.187,20.174z"/><radialGradient id="eZW0RNcuTRzRMg2ocBRSiac" cx="34.388" cy="31.261" r="2.953" gradientTransform="matrix(1 .0056 -.005 .9073 .158 2.707)" gradientUnits="userSpaceOnUse"><stop offset="0" stop-color="#f15a24"/><stop offset=".785" stop-color="#f15a24" stop-opacity="0"/></radialGradient><path fill="url(#eZW0RNcuTRzRMg2ocBRSiac)" d="M36.187,32.174C36.076,32.063,35.924,32,35.766,32H33.26c-0.158,0-0.309,0.063-0.421,0.174	l-1.064,1.064c0.57,0.904,1.571,1.509,2.718,1.509c1.158,0,2.165-0.617,2.732-1.535L36.187,32.174z"/><radialGradient id="eZW0RNcuTRzRMg2ocBRSiad" cx="34.388" cy="35.261" r="2.953" gradientTransform="matrix(1 .0056 -.005 .9073 .179 3.078)" gradientUnits="userSpaceOnUse"><stop offset="0" stop-color="#171714" stop-opacity=".6"/><stop offset=".785" stop-color="#171714" stop-opacity="0"/></radialGradient><path fill="url(#eZW0RNcuTRzRMg2ocBRSiad)" d="M36.187,36.174C36.076,36.063,35.924,36,35.766,36H33.26c-0.158,0-0.309,0.063-0.421,0.174	l-1.064,1.064c0.57,0.904,1.571,1.509,2.718,1.509c1.158,0,2.165-0.617,2.732-1.535L36.187,36.174z"/><radialGradient id="eZW0RNcuTRzRMg2ocBRSiae" cx="27.388" cy="23.261" r="2.953" gradientTransform="matrix(1 .0056 -.005 .9073 .118 2.004)" gradientUnits="userSpaceOnUse"><stop offset="0" stop-color="#171714" stop-opacity=".6"/><stop offset=".785" stop-color="#171714" stop-opacity="0"/></radialGradient><path fill="url(#eZW0RNcuTRzRMg2ocBRSiae)" d="M29.187,24.174C29.076,24.063,28.924,24,28.766,24H26.26c-0.158,0-0.309,0.063-0.421,0.174	l-1.064,1.064c0.57,0.904,1.571,1.509,2.718,1.509c1.158,0,2.165-0.617,2.732-1.535L29.187,24.174z"/><radialGradient id="eZW0RNcuTRzRMg2ocBRSiaf" cx="27.388" cy="27.261" r="2.953" gradientTransform="matrix(1 .0056 -.005 .9073 .138 2.375)" gradientUnits="userSpaceOnUse"><stop offset="0" stop-color="#f15a24"/><stop offset=".785" stop-color="#f15a24" stop-opacity="0"/></radialGradient><path fill="url(#eZW0RNcuTRzRMg2ocBRSiaf)" d="M29.187,28.174C29.076,28.063,28.924,28,28.766,28H26.26c-0.158,0-0.309,0.063-0.421,0.174	l-1.064,1.064c0.57,0.904,1.571,1.509,2.718,1.509c1.158,0,2.165-0.617,2.732-1.535L29.187,28.174z"/><radialGradient id="eZW0RNcuTRzRMg2ocBRSiag" cx="20.388" cy="23.261" r="2.953" gradientTransform="matrix(1 .0056 -.005 .9073 .118 2.043)" gradientUnits="userSpaceOnUse"><stop offset="0" stop-color="#171714" stop-opacity=".6"/><stop offset=".785" stop-color="#171714" stop-opacity="0"/></radialGradient><path fill="url(#eZW0RNcuTRzRMg2ocBRSiag)" d="M22.187,24.174C22.076,24.063,21.924,24,21.766,24H19.26c-0.158,0-0.309,0.063-0.421,0.174	l-1.064,1.064c0.57,0.904,1.571,1.509,2.718,1.509c1.158,0,2.165-0.617,2.732-1.535L22.187,24.174z"/><radialGradient id="eZW0RNcuTRzRMg2ocBRSiah" cx="20.388" cy="27.261" r="2.953" gradientTransform="matrix(1 .0056 -.005 .9073 .138 2.414)" gradientUnits="userSpaceOnUse"><stop offset="0" stop-color="#f15a24"/><stop offset=".785" stop-color="#f15a24" stop-opacity="0"/></radialGradient><path fill="url(#eZW0RNcuTRzRMg2ocBRSiah)" d="M22.187,28.174C22.076,28.063,21.924,28,21.766,28H19.26c-0.158,0-0.309,0.063-0.421,0.174	l-1.064,1.064c0.57,0.904,1.571,1.509,2.718,1.509c1.158,0,2.165-0.617,2.732-1.535L22.187,28.174z"/><radialGradient id="eZW0RNcuTRzRMg2ocBRSiai" cx="13.375" cy="27.261" r="2.953" gradientTransform="matrix(1 .0056 -.005 .9073 .138 2.453)" gradientUnits="userSpaceOnUse"><stop offset="0" stop-color="#f15a24"/><stop offset=".785" stop-color="#f15a24" stop-opacity="0"/></radialGradient><path fill="url(#eZW0RNcuTRzRMg2ocBRSiai)" d="M15.174,28.174C15.063,28.063,14.911,28,14.753,28h-2.507c-0.158,0-0.309,0.063-0.421,0.174	l-1.064,1.064c0.57,0.904,1.571,1.509,2.718,1.509c1.158,0,2.165-0.617,2.732-1.535L15.174,28.174z"/><radialGradient id="eZW0RNcuTRzRMg2ocBRSiaj" cx="13.375" cy="31.261" r="2.953" gradientTransform="matrix(1 .0056 -.005 .9073 .158 2.824)" gradientUnits="userSpaceOnUse"><stop offset="0" stop-color="#171714" stop-opacity=".6"/><stop offset=".785" stop-color="#171714" stop-opacity="0"/></radialGradient><path fill="url(#eZW0RNcuTRzRMg2ocBRSiaj)" d="M15.174,32.174C15.063,32.063,14.911,32,14.753,32h-2.507c-0.158,0-0.309,0.063-0.421,0.174	l-1.064,1.064c0.57,0.904,1.571,1.509,2.718,1.509c1.158,0,2.165-0.617,2.732-1.535L15.174,32.174z"/></svg>