<svg xmlns="http://www.w3.org/2000/svg" viewBox="0 0 48 48"><circle cx="28" cy="20" r="12" fill="#9fd5ed"/><circle cx="37" cy="28" r="9" fill="#9fd5ed"/><circle cx="30" cy="29" r="9" fill="#9fd5ed"/><circle cx="18" cy="29" r="9" fill="#9fd5ed"/><circle cx="24" cy="28" r="9" fill="#9fd5ed"/><circle cx="11" cy="28" r="9" fill="#9fd5ed"/><circle cx="15" cy="21" r="7" fill="#9fd5ed"/><radialGradient id="UWqm9mhW35Ao~JVa4RzWya" cx="28" cy="20" r="12" gradientUnits="userSpaceOnUse"><stop offset="0" stop-color="#e3f4ff"/><stop offset="1" stop-color="#e3f4ff" stop-opacity="0"/></radialGradient><circle cx="28" cy="20" r="12" fill="url(#UWqm9mhW35Ao~JVa4RzWya)"/><radialGradient id="UWqm9mhW35Ao~JVa4RzWyb" cx="37" cy="28" r="9" gradientUnits="userSpaceOnUse"><stop offset="0" stop-color="#e3f4ff"/><stop offset="1" stop-color="#e3f4ff" stop-opacity="0"/></radialGradient><circle cx="37" cy="28" r="9" fill="url(#UWqm9mhW35Ao~JVa4RzWyb)"/><radialGradient id="UWqm9mhW35Ao~JVa4RzWyc" cx="30" cy="29" r="9" gradientUnits="userSpaceOnUse"><stop offset="0" stop-color="#e3f4ff"/><stop offset="1" stop-color="#e3f4ff" stop-opacity="0"/></radialGradient><circle cx="30" cy="29" r="9" fill="url(#UWqm9mhW35Ao~JVa4RzWyc)"/><radialGradient id="UWqm9mhW35Ao~JVa4RzWyd" cx="18" cy="29" r="9" gradientUnits="userSpaceOnUse"><stop offset="0" stop-color="#e3f4ff"/><stop offset="1" stop-color="#e3f4ff" stop-opacity="0"/></radialGradient><circle cx="18" cy="29" r="9" fill="url(#UWqm9mhW35Ao~JVa4RzWyd)"/><radialGradient id="UWqm9mhW35Ao~JVa4RzWye" cx="24" cy="28" r="9" gradientUnits="userSpaceOnUse"><stop offset="0" stop-color="#e3f4ff"/><stop offset="1" stop-color="#e3f4ff" stop-opacity="0"/></radialGradient><circle cx="24" cy="28" r="9" fill="url(#UWqm9mhW35Ao~JVa4RzWye)"/><radialGradient id="UWqm9mhW35Ao~JVa4RzWyf" cx="11" cy="28" r="9" gradientUnits="userSpaceOnUse"><stop offset="0" stop-color="#e3f4ff"/><stop offset="1" stop-color="#e3f4ff" stop-opacity="0"/></radialGradient><circle cx="11" cy="28" r="9" fill="url(#UWqm9mhW35Ao~JVa4RzWyf)"/><radialGradient id="UWqm9mhW35Ao~JVa4RzWyg" cx="15" cy="21" r="7" gradientUnits="userSpaceOnUse"><stop offset="0" stop-color="#e3f4ff"/><stop offset="1" stop-color="#e3f4ff" stop-opacity="0"/></radialGradient><circle cx="15" cy="21" r="7" fill="url(#UWqm9mhW35Ao~JVa4RzWyg)"/></svg>