<svg xmlns="http://www.w3.org/2000/svg" xmlns:xlink="http://www.w3.org/1999/xlink" viewBox="0 0 48 48"><defs><radialGradient id="BgnUva3AKTDBJbbv6eI8Wb" cx="20.792" cy="21.078" r="21.221" gradientUnits="userSpaceOnUse"><stop offset="0" stop-color="#55a1db"/><stop offset=".575" stop-color="#2d5bc4"/><stop offset=".696" stop-color="#294caf"/><stop offset=".802" stop-color="#253d99"/></radialGradient><radialGradient id="BgnUva3AKTDBJbbv6eI8Wa" cx="23.734" cy="23.877" r="14.729" gradientUnits="userSpaceOnUse"><stop offset="0" stop-color="#89c421"/><stop offset="1" stop-color="#639925"/></radialGradient><radialGradient id="BgnUva3AKTDBJbbv6eI8Wc" cx="25.533" cy="23.918" r="13.086" gradientUnits="userSpaceOnUse"><stop offset="0" stop-color="#8de019"/><stop offset=".105" stop-color="#92e01b"/><stop offset=".228" stop-color="#a0e122"/><stop offset=".359" stop-color="#b7e22d"/><stop offset=".495" stop-color="#d8e43d"/><stop offset=".536" stop-color="#e3e542"/><stop offset=".922" stop-color="#e7982b"/></radialGradient><radialGradient id="BgnUva3AKTDBJbbv6eI8Wd" cx="18.419" cy="15.536" r="18.566" xlink:href="#BgnUva3AKTDBJbbv6eI8Wa"/><radialGradient id="BgnUva3AKTDBJbbv6eI8We" cx="18.725" cy="16.333" r="10.159" gradientUnits="userSpaceOnUse"><stop offset="0" stop-color="#cf0"/><stop offset=".564" stop-color="#a6e520"/><stop offset="1" stop-color="#8de019"/></radialGradient><radialGradient id="BgnUva3AKTDBJbbv6eI8Wf" cx="25.492" cy="10.261" r="18.092" gradientUnits="userSpaceOnUse"><stop offset="0" stop-color="#8de019"/><stop offset=".454" stop-color="#b6d81a"/><stop offset="1" stop-color="#edce1c"/></radialGradient><radialGradient id="BgnUva3AKTDBJbbv6eI8Wg" cx="13.389" cy="18.909" r="9.272" gradientUnits="userSpaceOnUse"><stop offset="0" stop-color="#fde169"/><stop offset="1" stop-color="#fde169" stop-opacity="0"/></radialGradient><radialGradient id="BgnUva3AKTDBJbbv6eI8Wh" cx="28.232" cy="7.072" r="7.956" gradientUnits="userSpaceOnUse"><stop offset=".006" stop-color="#f0b335"/><stop offset="1" stop-color="#efaf30" stop-opacity="0"/></radialGradient><radialGradient id="BgnUva3AKTDBJbbv6eI8Wi" cx="11.917" cy="11.488" r="34.816" gradientUnits="userSpaceOnUse"><stop offset=".513" stop-color="#485463" stop-opacity="0"/><stop offset=".833" stop-color="#293648" stop-opacity=".714"/><stop offset="1" stop-color="#1d2a3d"/></radialGradient><radialGradient id="BgnUva3AKTDBJbbv6eI8Wj" cx="10.568" cy="13.757" r="34.816" gradientUnits="userSpaceOnUse"><stop offset=".806" stop-color="#485463" stop-opacity="0"/><stop offset=".842" stop-color="#384555" stop-opacity=".363"/><stop offset=".887" stop-color="#293648" stop-opacity=".715"/><stop offset=".931" stop-color="#202d40" stop-opacity=".928"/><stop offset=".972" stop-color="#1d2a3d"/></radialGradient><radialGradient id="BgnUva3AKTDBJbbv6eI8Wk" cx="31.544" cy="39.047" r="31.432" gradientUnits="userSpaceOnUse"><stop offset=".752" stop-color="#fff" stop-opacity="0"/><stop offset=".774" stop-color="#fff" stop-opacity=".031"/><stop offset=".806" stop-color="#fff" stop-opacity=".117"/><stop offset=".847" stop-color="#fff" stop-opacity=".257"/><stop offset=".893" stop-color="#fff" stop-opacity=".452"/><stop offset=".945" stop-color="#fff" stop-opacity=".701"/><stop offset="1" stop-color="#fff"/></radialGradient><radialGradient id="BgnUva3AKTDBJbbv6eI8Wl" cx="19.76" cy="19.439" r="17.614" gradientTransform="translate(0 1.098)" gradientUnits="userSpaceOnUse"><stop offset="0" stop-color="#fff" stop-opacity=".8"/><stop offset=".103" stop-color="#fff" stop-opacity=".716"/><stop offset=".317" stop-color="#fff" stop-opacity=".5"/><stop offset=".622" stop-color="#fff" stop-opacity=".157"/><stop offset=".753" stop-color="#fff" stop-opacity="0"/></radialGradient><radialGradient id="BgnUva3AKTDBJbbv6eI8Wm" cx="15.696" cy="29.122" r="34.816" gradientUnits="userSpaceOnUse"><stop offset=".613" stop-color="#485463" stop-opacity="0"/><stop offset=".629" stop-color="#465261" stop-opacity=".05"/><stop offset=".874" stop-color="#283547" stop-opacity=".736"/><stop offset="1" stop-color="#1d2a3d"/></radialGradient></defs><g data-name="Globe showing Americas"><path fill="#253d99" d="M41.546,24A17.546,17.546,0,1,1,20.5,6.81c.116-.019.241-.048.356-.068a16.419,16.419,0,0,1,2.287-.269c.278-.009.567-.019.855-.019s.567.01.846.019c.249.01.509.029.759.049.49.048.98.1,1.451.192s.96.182,1.431.307A17.561,17.561,0,0,1,41.229,20.733c.009.048.019.106.029.154s.019.105.028.153A17.593,17.593,0,0,1,41.546,24Z"/><path fill="url(#BgnUva3AKTDBJbbv6eI8Wb)" d="M41.289,24A17.289,17.289,0,1,1,20.552,7.057,17.037,17.037,0,0,1,24,6.711,17.283,17.283,0,0,1,41.01,20.936,16.861,16.861,0,0,1,41.289,24Z"/><polygon fill="url(#BgnUva3AKTDBJbbv6eI8Wa)" points="25.127 39.274 25.127 38.349 25.498 37.979 25.498 37.276 25.997 36.776 25.997 35.988 26.462 35.524 26.462 34.363 26.962 33.862 26.962 31.986 26.254 31.278 25.423 31.278 24.781 30.635 24.781 29.855 23.576 28.65 23.576 28.076 23.998 27.655 23.998 26.888 24.978 25.908 24.978 25.321 24.495 24.839 24.495 24.36 24.704 24.152 25.269 24.152 25.569 23.852 25.904 23.852 26.442 23.314 26.834 23.314 27.169 23.649 27.716 23.649 28.108 24.041 29.972 24.041 31.246 25.315 32.518 25.315 33.252 26.049 33.252 26.885 34.163 26.885 34.777 27.499 35.942 27.499 36.842 28.398 36.842 29.175 35.431 30.586 35.431 31.72 34.276 32.875 33.386 32.875 32.328 33.933 32.328 34.388 30.859 35.858 30.023 35.858 29.388 36.493 28.459 36.493 27.886 37.066 27.886 37.465 27.365 37.986 26.844 37.986 26.589 38.242 26.226 38.605 26.226 39.193 26.499 39.466 26.499 39.816 25.536 39.816 25.127 39.274"/><polygon fill="url(#BgnUva3AKTDBJbbv6eI8Wc)" points="24.961 39.108 24.961 38.183 25.331 37.813 25.331 37.11 25.831 36.61 25.831 35.822 26.296 35.357 26.296 34.197 26.796 33.696 26.796 31.82 26.088 31.112 25.257 31.112 24.615 30.469 24.615 29.689 23.41 28.484 23.41 27.91 23.832 27.489 23.832 26.722 24.812 25.742 24.812 25.155 24.329 24.673 24.329 24.194 24.538 23.986 25.103 23.986 25.403 23.686 25.738 23.686 26.276 23.148 26.668 23.148 27.003 23.482 27.55 23.482 27.942 23.875 29.806 23.875 31.08 25.149 32.352 25.149 33.086 25.883 33.086 26.719 33.997 26.719 34.611 27.332 35.776 27.332 36.675 28.232 36.675 29.009 35.265 30.42 35.265 31.554 34.11 32.709 33.22 32.709 32.162 33.767 32.162 34.222 30.693 35.692 29.857 35.692 29.222 36.327 28.293 36.327 27.72 36.9 27.72 37.299 27.199 37.82 26.678 37.82 26.422 38.076 26.06 38.439 26.06 39.027 26.333 39.3 26.333 39.65 25.37 39.65 24.961 39.108"/><path fill="url(#BgnUva3AKTDBJbbv6eI8Wd)" d="M30.745,12.844h-.49l-.365-.375v-.538l-.442-.432h-.807l-.519-.519v-.365l-.336-.336h-.509l-.317.317h-.375l-.26-.26h-.586l-.307-.307h-.769l-.24.25v.307l.288.288v.519l-.336.336v.721l-.24.24h-.318l-.336-.336v-.432l-.24-.231h-.384l-.308-.317h-.413l-.375-.384h-.519l-.432-.423v-.2l.49-.49h.8l.385-.384h.3l.259.249h.3l.163.173h.193l.24-.249V9.4l-.24-.24V8.808l.192-.182V8.318l.144-.144h.413l.269.269v.231l.394.394v.2l.279.278h.394l.547.49h.356l.259-.25h.279l.336-.336V9l-.211-.212H26.95L26.6,8.434h-.653L25.4,7.886H24.75l-.25-.26h-.394v-.4l.336-.336.4-.414c-.279-.009-.567-.019-.846-.019s-.577.01-.855.019a12.416,12.416,0,0,1-1.269.3L22.2,7.1v.211l.106.106v.327l.2.23.23.221h.327l.2.2V8.7l-.106.105h-.3l-.211-.221h-.269l-.289-.3V7.982l-.211-.211V7.578l-.163-.163-.027.163h-.358l-.163.164.317.317V8.52l-.461.452H19.5L18.927,8.4h-.942l-.461.471H16.207l-.221-.231a16.918,16.918,0,0,0-2.719,1.768v.663l.384.394v.375l-.336.336V12.7l-.3.288v.4l.269.269v.471l-.509.5v.394l-.365.365v.856l.374.374v.635l.462.461v.826l.394.394v.509l.615.615v.663l.557.558.231-.231v-.3l-.318-.317V19.9l-.413-.413V19.3l-.2-.2v-.374l-.222-.231v-.307l.154-.164h.116l.211.212v.288l.115.115v.308l.279.278v.25l.3.3v.212l.461.461h.336v.3l.289.288v.5l.355.355h.471l.394.394h.48l.212.221h.951l.183-.183h.336l.259.25v.346l.3.308h1.259l.288.288.164.163h.211l.2.2v.3l.221.231h.125l.288.288h.346l.279.288h.4l.212-.221v-.432l-.289-.289h-.413l-.211-.2H22.8l-.231-.221v-.49l.346-.346v-.394l-.278-.279h-1.25l-.221-.231v-.288l.2-.2h.221l.24-.24V20.57l-.163-.164-.086.164h-.26l-.2-.2h-.355l-.24.25v.317l-.25.25v.249l-.269.26h-.961l-.269-.26H18.59v-.4l-.355-.356v-.269l-.269-.269v-.384l.355-.356v-.365l.288-.288h.366l.355-.356h.855l.231-.221h.346l.288.289h.615l.269-.279h.394l.211.221h.385v.327l.269.269v.413l.413.413h.452l.307-.3v-.48l-.317-.317h-.211l-.317-.308v-.576l.278-.269h.5l.624-.625h.3l.241-.24v-.673l.73-.72h.269l.442-.442v-.394l.288-.279h.663l.365.355h.6l.394-.393v-.2l-.365-.365h-.557l-.337-.337h-.4l-.221-.211v-.288l.192-.2H28.2l.308.307h.7l.336.337v.355l.317.308h.769l.442-.442v-.26Zm-6.3,1.588-.279.279h-.375l-.153-.154v-.105l-.145-.154v-.164l-.166-.166-.05.142-.12-.12v-.105l-.166-.166-.042.166h.093L22.927,14l-.318.317v.567l-.355.365h-.327l-.2-.2v-.432l.327-.327v-.2l-.221-.221h-.259l-.3.289h-.356l-.25-.25v-.3L21,13.289h.413l.913.009.192.193h.577l.317.317h.634l.4.4Z"/><polygon fill="url(#BgnUva3AKTDBJbbv6eI8Wd)" points="27.438 21.142 26.64 21.142 26.465 20.967 26.287 20.967 26.282 21.488 26.604 21.81 27.325 21.81 27.325 21.822 27.477 21.822 27.716 21.583 27.716 21.419 27.438 21.142"/><polygon fill="url(#BgnUva3AKTDBJbbv6eI8Wd)" points="25.464 20.747 25.081 20.747 24.861 20.527 24.33 20.527 24.033 20.231 22.674 20.231 22.408 20.496 22.408 20.754 22.242 20.79 22.408 20.957 22.919 20.957 23.113 20.763 23.573 20.763 23.757 20.947 24.064 20.947 24.166 20.845 24.401 20.845 24.594 21.038 24.594 21.241 24.296 21.539 24.296 21.787 24.524 22.014 24.877 22.014 25.117 21.774 25.117 21.471 25.397 21.471 25.697 21.171 25.697 20.979 25.464 20.747"/><polygon fill="url(#BgnUva3AKTDBJbbv6eI8We)" points="22.242 20.33 22.508 20.064 23.867 20.064 24.164 20.361 24.695 20.361 24.915 20.581 25.298 20.581 25.531 20.813 25.531 21.005 25.23 21.305 24.951 21.305 24.951 21.608 24.71 21.848 24.358 21.848 24.13 21.621 24.13 21.373 24.428 21.075 24.428 20.872 24.234 20.678 24 20.678 23.897 20.781 23.591 20.781 23.407 20.596 22.947 20.596 22.753 20.79 22.242 20.79 22.242 20.33"/><path fill="url(#BgnUva3AKTDBJbbv6eI8Wf)" d="M30.582,12.681h-.49l-.365-.375v-.538l-.442-.432h-.807l-.519-.519v-.366l-.336-.336h-.51l-.317.317h-.375l-.259-.259h-.586l-.308-.308H24.5l-.241.25v.308l.289.288v.519l-.337.336v.721l-.24.24h-.317l-.336-.336v-.433l-.24-.23h-.385l-.307-.317h-.413l-.375-.385h-.519l-.432-.423v-.2l.49-.49h.8l.384-.385h.3l.26.25h.3l.163.173h.192l.24-.25V9.241L23.529,9V8.645l.192-.183V8.155l.144-.144h.414l.269.269v.231l.394.393v.2l.278.279h.394l.548.49h.356l.259-.25h.279l.336-.336V8.837l-.211-.211h-.394l-.346-.356h-.654l-.547-.547h-.654l-.25-.26h-.394v-.4l.337-.337.249-.259c-.172-.01-.355-.01-.528-.01a16.188,16.188,0,0,0-2.287.154l.327.327v.211l.106.106v.326l.2.231.231.221h.327l.2.2v.307L23,8.645h-.3l-.212-.221h-.269l-.288-.3V7.819l-.211-.212V7.415h-.548l-.163.163.317.318v.461l-.461.451H19.34l-.577-.567h-.941l-.462.471H16.044l-.221-.23A16.807,16.807,0,0,0,13.1,10.25v.663l.384.394v.374l-.336.337v.519l-.3.288v.4l.269.27v.47l-.509.5v.394l-.366.365v.855l.375.375v.634l.461.461v.827l.394.394v.509l.615.615v.663l.558.557.23-.23v-.3l-.317-.317v-.538l-.413-.414v-.182l-.2-.2v-.375l-.221-.23v-.308l.154-.163H14l.212.211v.289l.115.115v.307l.279.279v.25l.3.3v.211l.462.461H15.7v.3l.288.289v.5l.356.356h.471l.394.394h.48l.211.221h.952l.182-.183h.337l.259.25v.346l.3.307h1.259l.288.289.163.163h.212l.2.2v.3l.221.23H22.4l.289.288h.345l.279.289h.4l.211-.221v-.433l-.288-.288h-.413l-.212-.2h-.374l-.231-.221v-.49l.346-.346v-.394l-.279-.278H21.223L21,21.713v-.288l.2-.2h.221l.24-.24v-.577h-.509l-.2-.2H20.6l-.24.25v.317l-.25.25v.25l-.269.26h-.961l-.269-.26h-.182v-.4l-.356-.356v-.269l-.269-.269V19.59l.356-.356v-.365l.288-.288h.365l.356-.356h.855L20.253,18H20.6l.289.288H21.5l.269-.278h.394l.211.221h.384v.326l.269.269v.414l.414.413h.451l.308-.3v-.481l-.317-.317h-.212l-.317-.307v-.577l.279-.269h.5l.624-.624h.3l.24-.24v-.673l.73-.721h.27l.441-.442v-.394l.289-.278h.663l.365.355h.6L29.045,14v-.2l-.365-.365h-.558l-.336-.336h-.4l-.221-.211v-.289l.192-.2h.683l.307.308h.7l.336.336v.356l.317.307h.769l.442-.442V13Zm-6.3,1.585L24,14.545h-.375l-.153-.154v-.106l-.145-.153v-.164h-.192l-.144-.144v-.105h-.115l-.116.115-.317.317v.567l-.355.365h-.327l-.2-.2v-.432l.327-.327v-.2l-.221-.221h-.259l-.3.289h-.356l-.25-.25v-.3l.327-.317h.413l.913.009.192.193h.577l.317.317h.634l.4.4Z"/><path fill="url(#BgnUva3AKTDBJbbv6eI8Wg)" d="M30.582,12.681h-.49l-.365-.375v-.538l-.442-.432h-.807l-.519-.519v-.366l-.336-.336h-.51l-.317.317h-.375l-.259-.259h-.586l-.308-.308H24.5l-.241.25v.308l.289.288v.519l-.337.336v.721l-.24.24h-.317l-.336-.336v-.433l-.24-.23h-.385l-.307-.317h-.413l-.375-.385h-.519l-.432-.423v-.2l.49-.49h.8l.384-.385h.3l.26.25h.3l.163.173h.192l.24-.25V9.241L23.529,9V8.645l.192-.183V8.155l.144-.144h.414l.269.269v.231l.394.393v.2l.278.279h.394l.548.49h.356l.259-.25h.279l.336-.336V8.837l-.211-.211h-.394l-.346-.356h-.654l-.547-.547h-.654l-.25-.26h-.394v-.4l.337-.337.249-.259c-.172-.01-.355-.01-.528-.01a16.188,16.188,0,0,0-2.287.154l.327.327v.211l.106.106v.326l.2.231.231.221h.327l.2.2v.307L23,8.645h-.3l-.212-.221h-.269l-.288-.3V7.819l-.211-.212V7.415h-.548l-.163.163.317.318v.461l-.461.451H19.34l-.577-.567h-.941l-.462.471H16.044l-.221-.23A16.807,16.807,0,0,0,13.1,10.25v.663l.384.394v.374l-.336.337v.519l-.3.288v.4l.269.27v.47l-.509.5v.394l-.366.365v.855l.375.375v.634l.461.461v.827l.394.394v.509l.615.615v.663l.558.557.23-.23v-.3l-.317-.317v-.538l-.413-.414v-.182l-.2-.2v-.375l-.221-.23v-.308l.154-.163H14l.212.211v.289l.115.115v.307l.279.279v.25l.3.3v.211l.462.461H15.7v.3l.288.289v.5l.356.356h.471l.394.394h.48l.211.221h.952l.182-.183h.337l.259.25v.346l.3.307h1.259l.288.289.163.163h.212l.2.2v.3l.221.23H22.4l.289.288h.345l.279.289h.4l.211-.221v-.433l-.288-.288h-.413l-.212-.2h-.374l-.231-.221v-.49l.346-.346v-.394l-.279-.278H21.223L21,21.713v-.288l.2-.2h.221l.24-.24v-.577h-.509l-.2-.2H20.6l-.24.25v.317l-.25.25v.25l-.269.26h-.961l-.269-.26h-.182v-.4l-.356-.356v-.269l-.269-.269V19.59l.356-.356v-.365l.288-.288h.365l.356-.356h.855L20.253,18H20.6l.289.288H21.5l.269-.278h.394l.211.221h.384v.326l.269.269v.414l.414.413h.451l.308-.3v-.481l-.317-.317h-.212l-.317-.307v-.577l.279-.269h.5l.624-.624h.3l.24-.24v-.673l.73-.721h.27l.441-.442v-.394l.289-.278h.663l.365.355h.6L29.045,14v-.2l-.365-.365h-.558l-.336-.336h-.4l-.221-.211v-.289l.192-.2h.683l.307.308h.7l.336.336v.356l.317.307h.769l.442-.442V13Zm-6.3,1.585L24,14.545h-.375l-.153-.154v-.106l-.145-.153v-.164h-.192l-.144-.144v-.105h-.115l-.116.115-.317.317v.567l-.355.365h-.327l-.2-.2v-.432l.327-.327v-.2l-.221-.221h-.259l-.3.289h-.356l-.25-.25v-.3l.327-.317h.413l.913.009.192.193h.577l.317.317h.634l.4.4Z"/><path fill="url(#BgnUva3AKTDBJbbv6eI8Wh)" d="M30.582,12.681h-.49l-.365-.375v-.538l-.442-.432h-.807l-.519-.519v-.366l-.336-.336h-.51l-.317.317h-.375l-.259-.259h-.586l-.308-.308H24.5l-.241.25v.308l.289.288v.519l-.337.336v.721l-.24.24h-.317l-.336-.336v-.433l-.24-.23h-.385l-.307-.317h-.413l-.375-.385h-.519l-.432-.423v-.2l.49-.49h.8l.384-.385h.3l.26.25h.3l.163.173h.192l.24-.25V9.241L23.529,9V8.645l.192-.183V8.155l.144-.144h.414l.269.269v.231l.394.393v.2l.278.279h.394l.548.49h.356l.259-.25h.279l.336-.336V8.837l-.211-.211h-.394l-.346-.356h-.654l-.547-.547h-.654l-.25-.26h-.394v-.4l.337-.337.249-.259c-.172-.01-.355-.01-.528-.01a16.188,16.188,0,0,0-2.287.154l.327.327v.211l.106.106v.326l.2.231.231.221h.327l.2.2v.307L23,8.645h-.3l-.212-.221h-.269l-.288-.3V7.819l-.211-.212V7.415h-.548l-.163.163.317.318v.461l-.461.451H19.34l-.577-.567h-.941l-.462.471H16.044l-.221-.23A16.807,16.807,0,0,0,13.1,10.25v.663l.384.394v.374l-.336.337v.519l-.3.288v.4l.269.27v.47l-.509.5v.394l-.366.365v.855l.375.375v.634l.461.461v.827l.394.394v.509l.615.615v.663l.558.557.23-.23v-.3l-.317-.317v-.538l-.413-.414v-.182l-.2-.2v-.375l-.221-.23v-.308l.154-.163H14l.212.211v.289l.115.115v.307l.279.279v.25l.3.3v.211l.462.461H15.7v.3l.288.289v.5l.356.356h.471l.394.394h.48l.211.221h.952l.182-.183h.337l.259.25v.346l.3.307h1.259l.288.289.163.163h.212l.2.2v.3l.221.23H22.4l.289.288h.345l.279.289h.4l.211-.221v-.433l-.288-.288h-.413l-.212-.2h-.374l-.231-.221v-.49l.346-.346v-.394l-.279-.278H21.223L21,21.713v-.288l.2-.2h.221l.24-.24v-.577h-.509l-.2-.2H20.6l-.24.25v.317l-.25.25v.25l-.269.26h-.961l-.269-.26h-.182v-.4l-.356-.356v-.269l-.269-.269V19.59l.356-.356v-.365l.288-.288h.365l.356-.356h.855L20.253,18H20.6l.289.288H21.5l.269-.278h.394l.211.221h.384v.326l.269.269v.414l.414.413h.451l.308-.3v-.481l-.317-.317h-.212l-.317-.307v-.577l.279-.269h.5l.624-.624h.3l.24-.24v-.673l.73-.721h.27l.441-.442v-.394l.289-.278h.663l.365.355h.6L29.045,14v-.2l-.365-.365h-.558l-.336-.336h-.4l-.221-.211v-.289l.192-.2h.683l.307.308h.7l.336.336v.356l.317.307h.769l.442-.442V13Zm-6.3,1.585L24,14.545h-.375l-.153-.154v-.106l-.145-.153v-.164h-.192l-.144-.144v-.105h-.115l-.116.115-.317.317v.567l-.355.365h-.327l-.2-.2v-.432l.327-.327v-.2l-.221-.221h-.259l-.3.289h-.356l-.25-.25v-.3l.327-.317h.413l.913.009.192.193h.577l.317.317h.634l.4.4Z"/><polygon fill="url(#BgnUva3AKTDBJbbv6eI8We)" points="27.272 20.975 26.474 20.975 26.299 20.801 26.121 20.801 26.116 21.322 26.438 21.644 27.159 21.644 27.159 21.656 27.31 21.656 27.55 21.417 27.55 21.253 27.272 20.975"/><path fill="url(#BgnUva3AKTDBJbbv6eI8Wi)" d="M41.546,24A17.546,17.546,0,1,1,20.5,6.805,17.239,17.239,0,0,1,24,6.454,17.539,17.539,0,0,1,41.263,20.89,17.18,17.18,0,0,1,41.546,24Z" opacity=".5"/><path fill="url(#BgnUva3AKTDBJbbv6eI8Wj)" d="M41.546,24A17.546,17.546,0,1,1,20.5,6.805,17.239,17.239,0,0,1,24,6.454,17.539,17.539,0,0,1,41.263,20.89,17.18,17.18,0,0,1,41.546,24Z" opacity=".5"/><path fill="url(#BgnUva3AKTDBJbbv6eI8Wk)" d="M41.546,24A17.546,17.546,0,1,1,20.5,6.805,17.239,17.239,0,0,1,24,6.454,17.539,17.539,0,0,1,41.263,20.89,17.18,17.18,0,0,1,41.546,24Z" opacity=".2"/><path fill="url(#BgnUva3AKTDBJbbv6eI8Wl)" d="M41.546,24A17.546,17.546,0,1,1,20.5,6.805,17.239,17.239,0,0,1,24,6.454,17.539,17.539,0,0,1,41.263,20.89,17.18,17.18,0,0,1,41.546,24Z" opacity=".5"/><path fill="url(#BgnUva3AKTDBJbbv6eI8Wm)" d="M41.546,24A17.546,17.546,0,1,1,20.5,6.805,17.239,17.239,0,0,1,24,6.454,17.539,17.539,0,0,1,41.263,20.89,17.18,17.18,0,0,1,41.546,24Z" opacity=".5"/></g></svg>