<svg xmlns="http://www.w3.org/2000/svg" viewBox="0 0 48 48"><radialGradient id="lOimg~DESF1FYVFPvthwua" cx="24.176" cy="23.979" r="22.028" gradientUnits="userSpaceOnUse"><stop offset="0" stop-color="#ff7666"/><stop offset=".126" stop-color="#fb6c59"/><stop offset=".714" stop-color="#ec4023"/><stop offset="1" stop-color="#e62f0e"/></radialGradient><polygon fill="url(#lOimg~DESF1FYVFPvthwua)" points="36.399,24.764 46.788,16.404 34.032,18.633 36.66,9.298 27.208,13.342 23.84,1.74 21.17,14.489 10.404,9 15.168,18.493 1.564,18.631 11.538,24.826 2.989,33.159 15.218,32.617 11.762,42.209 20.15,37.101 24.649,46.217 27.681,35.17 41.638,45.5 34.064,30.957 42.449,29.501"/><radialGradient id="lOimg~DESF1FYVFPvthwub" cx="24.176" cy="23.979" r="19.065" gradientUnits="userSpaceOnUse"><stop offset="0" stop-color="#ff9a69"/><stop offset=".16" stop-color="#fb8d58"/><stop offset=".725" stop-color="#ee6322"/><stop offset="1" stop-color="#e9530d"/><stop offset="1" stop-color="#e9530d"/></radialGradient><polygon fill="url(#lOimg~DESF1FYVFPvthwub)" points="34.929,24.67 44.068,17.315 32.846,19.276 35.158,11.064 26.843,14.622 23.881,4.415 21.532,15.631 12.061,10.802 16.252,19.153 4.283,19.274 13.058,24.724 5.538,32.055 16.296,31.577 13.255,40.016 20.634,35.522 24.592,43.542 27.259,33.824 39.538,42.911 32.874,30.118 40.251,28.837"/><radialGradient id="lOimg~DESF1FYVFPvthwuc" cx="24.176" cy="23.979" r="16.187" gradientUnits="userSpaceOnUse"><stop offset="0" stop-color="#ffbd6b"/><stop offset=".175" stop-color="#fbaf58"/><stop offset=".731" stop-color="#f18822"/><stop offset="1" stop-color="#ed780d"/><stop offset="1" stop-color="#ed780d"/></radialGradient><polygon fill="url(#lOimg~DESF1FYVFPvthwuc)" points="33.458,24.575 41.348,18.226 31.661,19.919 33.656,12.83 26.479,15.901 23.921,7.09 21.893,16.772 13.717,12.603 17.335,19.813 7.003,19.917 14.578,24.622 8.086,30.95 17.373,30.538 14.749,37.823 21.119,33.944 24.535,40.867 26.838,32.477 37.437,40.323 31.685,29.279 38.053,28.172"/><radialGradient id="lOimg~DESF1FYVFPvthwud" cx="24.176" cy="23.979" r="13.395" gradientUnits="userSpaceOnUse"><stop offset="0" stop-color="#ffe16e"/><stop offset=".205" stop-color="#fcd157"/><stop offset=".74" stop-color="#f3ab21"/><stop offset="1" stop-color="#f09c0c"/></radialGradient><polygon fill="url(#lOimg~DESF1FYVFPvthwud)" points="31.988,24.481 38.628,19.138 30.475,20.562 32.155,14.596 26.114,17.181 23.961,9.765 22.255,17.914 15.374,14.405 18.419,20.473 9.723,20.56 16.098,24.52 10.635,29.846 18.451,29.499 16.242,35.63 21.603,32.365 24.478,38.192 26.416,31.131 35.337,37.734 30.496,28.439 35.855,27.508"/><radialGradient id="lOimg~DESF1FYVFPvthwue" cx="24.176" cy="23.979" r="12.432" gradientUnits="userSpaceOnUse"><stop offset="0" stop-color="#ffeb9e"/><stop offset=".33" stop-color="#fbd872"/><stop offset=".781" stop-color="#f7c13c"/><stop offset="1" stop-color="#f5b827"/></radialGradient><polygon fill="url(#lOimg~DESF1FYVFPvthwue)" points="31.166,24.428 37.108,19.647 29.813,20.922 31.315,15.583 25.91,17.896 23.984,11.26 22.457,18.552 16.3,15.412 19.024,20.842 11.244,20.92 16.948,24.463 12.059,29.229 19.053,28.919 17.076,34.405 21.874,31.483 24.447,36.697 26.18,30.379 34.163,36.287 29.831,27.97 34.627,27.137"/><radialGradient id="lOimg~DESF1FYVFPvthwuf" cx="24.176" cy="23.979" r="11.365" gradientUnits="userSpaceOnUse"><stop offset="0" stop-color="#fff5cf"/><stop offset=".423" stop-color="#fde58d"/><stop offset=".812" stop-color="#fbd856"/><stop offset="1" stop-color="#fad341"/></radialGradient><polygon fill="url(#lOimg~DESF1FYVFPvthwuf)" points="30.344,24.375 35.587,20.156 29.15,21.281 30.476,16.57 25.706,18.611 24.006,12.756 22.659,19.19 17.226,16.419 19.63,21.21 12.764,21.28 17.798,24.406 13.484,28.612 19.655,28.338 17.911,33.179 22.144,30.601 24.415,35.202 25.945,29.626 32.989,34.84 29.166,27.501 33.398,26.765"/><radialGradient id="lOimg~DESF1FYVFPvthwug" cx="24.176" cy="23.979" r="10.192" gradientUnits="userSpaceOnUse"><stop offset="0" stop-color="#fff"/><stop offset=".489" stop-color="#fff6a8"/><stop offset=".834" stop-color="#fff171"/><stop offset="1" stop-color="#ffef5c"/></radialGradient><polygon fill="url(#lOimg~DESF1FYVFPvthwug)" points="29.523,24.322 34.067,20.665 28.487,21.64 29.637,17.557 25.502,19.326 24.029,14.251 22.861,19.828 18.152,17.426 20.236,21.579 14.284,21.639 18.647,24.349 14.908,27.994 20.257,27.757 18.746,31.953 22.415,29.719 24.383,33.706 25.709,28.874 31.814,33.393 28.501,27.031 32.169,26.394"/></svg>