<svg xmlns="http://www.w3.org/2000/svg" viewBox="0 0 48 48"><path fill="#ff5100" d="M32.6,21.8L44,3.8L28,14.4l3.8-7c0,0-18.8,10.2-24.2,15.8c-4.8,4.8-4.8,12.4,0,17.2s12.4,4.8,17.2,0 c5.6-5.6,14-20.8,14-20.8L32.6,21.8z"/><path fill="#ff5200" d="M32.517,21.875L43.885,3.921L27.909,14.506l3.799-7.005c0,0-18.702,10.165-24.08,15.742 c-4.78,4.78-4.78,12.348,0,17.128s12.348,4.78,17.128,0c5.577-5.577,13.975-20.709,13.975-20.709L32.517,21.875z"/><path fill="#ff5300" d="M32.434,21.95L43.769,4.043l-15.952,10.57l3.799-7.009c0,0-18.605,10.13-23.959,15.683 c-4.76,4.76-4.76,12.296,0,17.056s12.296,4.76,17.056,0c5.553-5.553,13.949-20.618,13.949-20.618L32.434,21.95z"/><path fill="#ff5400" d="M32.35,22.026L43.654,4.164L27.726,14.719l3.798-7.014c0,0-18.507,10.095-23.839,15.625 c-4.74,4.74-4.74,12.244,0,16.984s12.244,4.74,16.984,0c5.53-5.53,13.924-20.526,13.924-20.526L32.35,22.026z"/><path fill="#f50" d="M32.267,22.101L43.538,4.285l-15.903,10.54l3.797-7.018c0,0-18.409,10.06-23.719,15.566 c-4.72,4.72-4.72,12.192,0,16.912s12.192,4.72,16.912,0c5.506-5.506,13.899-20.435,13.899-20.435L32.267,22.101z"/><path fill="#ff5600" d="M32.184,22.176L43.423,4.407L27.544,14.932l3.796-7.023c0,0-18.312,10.025-23.599,15.508 c-4.7,4.7-4.7,12.14,0,16.84s12.14,4.7,16.84,0c5.483-5.483,13.873-20.344,13.873-20.344L32.184,22.176z"/><path fill="#ff5700" d="M32.101,22.251L43.307,4.528L27.452,15.039l3.796-7.028c0,0-18.214,9.99-23.478,15.45 c-4.679,4.679-4.679,12.089,0,16.768s12.089,4.679,16.768,0c5.459-5.459,13.848-20.253,13.848-20.253L32.101,22.251z"/><path fill="#ff5800" d="M32.018,22.326L43.192,4.649L27.361,15.145l3.795-7.032c0,0-18.116,9.955-23.358,15.391 c-4.659,4.659-4.659,12.037,0,16.696s12.037,4.659,16.696,0c5.436-5.436,13.823-20.162,13.823-20.162L32.018,22.326z"/><path fill="#ff5900" d="M31.934,22.402L43.077,4.771L27.27,15.252l3.794-7.037c0,0-18.019,9.92-23.238,15.333 c-4.639,4.639-4.639,11.985,0,16.624s11.985,4.639,16.624,0c5.412-5.412,13.797-20.071,13.797-20.071L31.934,22.402z"/><path fill="#ff5a00" d="M31.851,22.477l11.11-17.585L27.179,15.358l3.794-7.042c0,0-17.921,9.886-23.118,15.275 c-4.619,4.619-4.619,11.933,0,16.552s11.933,4.619,16.552,0c5.389-5.389,13.772-19.979,13.772-19.979L31.851,22.477z"/><path fill="#ff5b00" d="M31.768,22.552L42.846,5.014L27.087,15.465l3.793-7.046c0,0-17.823,9.851-22.997,15.216 c-4.599,4.599-4.599,11.881,0,16.48s11.881,4.599,16.48,0c5.366-5.366,13.747-19.888,13.747-19.888L31.768,22.552z"/><path fill="#ff5c00" d="M31.685,22.627L42.73,5.135L26.996,15.571l3.792-7.051c0,0-17.726,9.816-22.877,15.158 c-4.579,4.579-4.579,11.829,0,16.408s11.829,4.579,16.408,0c5.342-5.342,13.721-19.797,13.721-19.797L31.685,22.627z"/><path fill="#ff5d00" d="M31.602,22.703L42.615,5.256l-15.71,10.421l3.792-7.055c0,0-17.628,9.781-22.757,15.099 c-4.559,4.559-4.559,11.777,0,16.336s11.777,4.559,16.336,0c5.319-5.319,13.696-19.706,13.696-19.706L31.602,22.703z"/><path fill="#ff5e00" d="M31.518,22.778L42.5,5.378L26.814,15.784l3.791-7.06c0,0-17.53,9.746-22.637,15.041 c-4.539,4.539-4.539,11.725,0,16.264s11.725,4.539,16.264,0c5.295-5.295,13.67-19.615,13.67-19.615L31.518,22.778z"/><path fill="#ff5f00" d="M31.435,22.853L42.384,5.499L26.722,15.891l3.79-7.065c0,0-17.433,9.711-22.516,14.983 c-4.519,4.519-4.519,11.673,0,16.192s11.673,4.519,16.192,0c5.272-5.272,13.645-19.523,13.645-19.523L31.435,22.853z"/><path fill="#ff6000" d="M31.352,22.928L42.269,5.62L26.631,15.997l3.789-7.069c0,0-17.335,9.676-22.396,14.924 c-4.499,4.499-4.499,11.621,0,16.12s11.621,4.499,16.12,0c5.248-5.248,13.62-19.432,13.62-19.432L31.352,22.928z"/><path fill="#ff6100" d="M31.269,23.003L42.153,5.742L26.54,16.103l3.789-7.074c0,0-17.237,9.641-22.276,14.866 c-4.479,4.479-4.479,11.57,0,16.048s11.57,4.479,16.048,0c5.225-5.225,13.594-19.341,13.594-19.341L31.269,23.003z"/><path fill="#ff6200" d="M31.185,23.079L42.038,5.863L26.449,16.21l3.788-7.078c0,0-17.14,9.606-22.155,14.807 c-4.458,4.458-4.458,11.518,0,15.976s11.518,4.458,15.976,0c5.202-5.202,13.569-19.25,13.569-19.25L31.185,23.079z"/><path fill="#ff6300" d="M31.102,23.154l10.82-17.169L26.357,16.316l3.787-7.083c0,0-17.042,9.571-22.035,14.749 c-4.438,4.438-4.438,11.466,0,15.904s11.466,4.438,15.904,0c5.178-5.178,13.544-19.159,13.544-19.159L31.102,23.154z"/><path fill="#ff6400" d="M31.019,23.229L41.807,6.106L26.266,16.423l3.787-7.088c0,0-16.944,9.536-21.915,14.691 c-4.418,4.418-4.418,11.414,0,15.832s11.414,4.418,15.832,0c5.155-5.155,13.518-19.068,13.518-19.068L31.019,23.229z"/><path fill="#ff6500" d="M30.936,23.304L41.692,6.227L26.175,16.529l3.786-7.092c0,0-16.847,9.501-21.795,14.632 c-4.398,4.398-4.398,11.362,0,15.76s11.362,4.398,15.76,0c5.131-5.131,13.493-18.976,13.493-18.976L30.936,23.304z"/><path fill="#f60" d="M30.853,23.379L41.576,6.348L26.084,16.636l3.785-7.097c0,0-16.749,9.466-21.674,14.574 c-4.378,4.378-4.378,11.31,0,15.688s11.31,4.378,15.688,0C28.99,34.693,37.35,20.916,37.35,20.916L30.853,23.379z"/><path fill="#ff6700" d="M30.769,23.455L41.461,6.47L25.992,16.742l3.785-7.102c0,0-16.651,9.431-21.554,14.516 c-4.358,4.358-4.358,11.258,0,15.616s11.258,4.358,15.616,0c5.084-5.084,13.442-18.794,13.442-18.794L30.769,23.455z"/><path fill="#ff6800" d="M30.686,23.53L41.345,6.591L25.901,16.849l3.784-7.106c0,0-16.554,9.396-21.434,14.457 c-4.338,4.338-4.338,11.206,0,15.544s11.206,4.338,15.544,0c5.061-5.061,13.417-18.703,13.417-18.703L30.686,23.53z"/><path fill="#ff6900" d="M30.603,23.605L41.23,6.713L25.81,16.955l3.783-7.111c0,0-16.456,9.361-21.314,14.399 c-4.318,4.318-4.318,11.154,0,15.472s11.154,4.318,15.472,0c5.037-5.037,13.392-18.612,13.392-18.612L30.603,23.605z"/><path fill="#ff6a00" d="M30.52,23.68L41.115,6.834L25.719,17.062l3.782-7.115c0,0-16.358,9.326-21.193,14.34 c-4.298,4.298-4.298,11.102,0,15.4s11.102,4.298,15.4,0c5.014-5.014,13.366-18.52,13.366-18.52L30.52,23.68z"/><path fill="#ff6b00" d="M30.437,23.755l10.563-16.8L25.627,17.168l3.782-7.12c0,0-16.261,9.291-21.073,14.282 c-4.278,4.278-4.278,11.051,0,15.328s11.051,4.278,15.328,0c4.991-4.991,13.341-18.429,13.341-18.429L30.437,23.755z"/><path fill="#ff6c00" d="M30.353,23.831l10.53-16.754L25.536,17.275l3.781-7.125c0,0-16.163,9.257-20.953,14.224 c-4.258,4.258-4.258,10.999,0,15.256s10.999,4.258,15.256,0c4.967-4.967,13.316-18.338,13.316-18.338L30.353,23.831z"/><path fill="#ff6d00" d="M30.27,23.906L40.768,7.198L25.445,17.381l3.78-7.129c0,0-16.065,9.222-20.833,14.165 c-4.237,4.237-4.237,10.947,0,15.184s10.947,4.237,15.184,0c4.944-4.944,13.29-18.247,13.29-18.247L30.27,23.906z"/><path fill="#ff6e00" d="M30.187,23.981L40.653,7.319L25.354,17.488l3.78-7.134c0,0-15.968,9.187-20.712,14.107 c-4.217,4.217-4.217,10.895,0,15.112s10.895,4.217,15.112,0c4.92-4.92,13.265-18.156,13.265-18.156L30.187,23.981z"/><path fill="#ff6f00" d="M30.104,24.056L40.537,7.441L25.262,17.594l3.779-7.139c0,0-15.87,9.152-20.592,14.049 c-4.197,4.197-4.197,10.843,0,15.04s10.843,4.197,15.04,0c4.897-4.897,13.24-18.065,13.24-18.065L30.104,24.056z"/><path fill="#ff7000" d="M30.021,24.132L40.422,7.562L25.171,17.7l3.778-7.143c0,0-15.772,9.117-20.472,13.99 c-4.177,4.177-4.177,10.791,0,14.968s10.791,4.177,14.968,0c4.873-4.873,13.214-17.973,13.214-17.973L30.021,24.132z"/><path fill="#ff7100" d="M29.937,24.207L40.307,7.683L25.08,17.807l3.777-7.148c0,0-15.675,9.082-20.351,13.932 c-4.157,4.157-4.157,10.739,0,14.896s10.739,4.157,14.896,0c4.85-4.85,13.189-17.882,13.189-17.882L29.937,24.207z"/><path fill="#ff7200" d="M29.854,24.282L40.191,7.805L24.989,17.913l3.777-7.152c0,0-15.577,9.047-20.231,13.873 c-4.137,4.137-4.137,10.687,0,14.824s10.687,4.137,14.824,0c4.827-4.827,13.164-17.791,13.164-17.791L29.854,24.282z"/><path fill="#ff7300" d="M29.771,24.357L40.076,7.926L24.897,18.02l3.776-7.157c0,0-15.479,9.012-20.111,13.815 c-4.117,4.117-4.117,10.635,0,14.752s10.635,4.117,14.752,0c4.803-4.803,13.138-17.7,13.138-17.7L29.771,24.357z"/><path fill="#ff7400" d="M29.688,24.432L39.96,8.047L24.806,18.126l3.775-7.162c0,0-15.382,8.977-19.991,13.757 c-4.097,4.097-4.097,10.583,0,14.68s10.583,4.097,14.68,0c4.78-4.78,13.113-17.609,13.113-17.609L29.688,24.432z"/><path fill="#ff7500" d="M29.605,24.508l10.24-16.339l-15.13,10.064l3.775-7.166c0,0-15.284,8.942-19.87,13.698 c-4.077,4.077-4.077,10.532,0,14.608s10.532,4.077,14.608,0c4.756-4.756,13.087-17.517,13.087-17.517L29.605,24.508z"/><path fill="#ff7600" d="M29.521,24.583L39.73,8.29L24.624,18.339l3.774-7.171c0,0-15.186,8.907-19.75,13.64 c-4.057,4.057-4.057,10.48,0,14.536s10.48,4.057,14.536,0c4.733-4.733,13.062-17.426,13.062-17.426L29.521,24.583z"/><path fill="#f70" d="M29.438,24.658L39.614,8.412L24.532,18.446l3.773-7.175c0,0-15.089,8.872-19.63,13.581 c-4.037,4.037-4.037,10.428,0,14.464s10.428,4.037,14.464,0c4.709-4.709,13.037-17.335,13.037-17.335L29.438,24.658z"/><path fill="#ff7800" d="M29.355,24.733l10.144-16.2L24.441,18.552l3.773-7.18c0,0-14.991,8.837-19.51,13.523 c-4.016,4.016-4.016,10.376,0,14.392s10.376,4.016,14.392,0c4.686-4.686,13.011-17.244,13.011-17.244L29.355,24.733z"/><path fill="#ff7900" d="M29.272,24.808L39.383,8.654L24.35,18.659l3.772-7.185c0,0-14.893,8.802-19.389,13.465 c-3.996,3.996-3.996,10.324,0,14.32s10.324,3.996,14.32,0c4.662-4.662,12.986-17.153,12.986-17.153L29.272,24.808z"/><path fill="#ff7a00" d="M29.189,24.884L39.268,8.776l-15.009,9.99l3.771-7.189c0,0-14.796,8.767-19.269,13.406 c-3.976,3.976-3.976,10.272,0,14.248s10.272,3.976,14.248,0c4.639-4.639,12.961-17.062,12.961-17.062L29.189,24.884z"/><path fill="#ff7b00" d="M29.105,24.959L39.152,8.897l-14.985,9.975l3.77-7.194c0,0-14.698,8.732-19.149,13.348 c-3.956,3.956-3.956,10.22,0,14.176s10.22,3.956,14.176,0c4.616-4.616,12.935-16.97,12.935-16.97L29.105,24.959z"/><path fill="#ff7b00" d="M29.022,25.034L39.037,9.018l-14.961,9.96l3.77-7.199c0,0-14.6,8.697-19.029,13.29 c-3.936,3.936-3.936,10.168,0,14.104s10.168,3.936,14.104,0c4.592-4.592,12.91-16.879,12.91-16.879L29.022,25.034z"/><path fill="#ff7c00" d="M28.939,25.109l9.983-15.97l-14.937,9.945l3.769-7.203c0,0-14.503,8.662-18.908,13.231 c-3.916,3.916-3.916,10.116,0,14.032s10.116,3.916,14.032,0c4.569-4.569,12.885-16.788,12.885-16.788L28.939,25.109z"/><path fill="#ff7d00" d="M28.856,25.184l9.951-15.923l-14.913,9.93l3.768-7.208c0,0-14.405,8.628-18.788,13.173 c-3.896,3.896-3.896,10.064,0,13.96s10.064,3.896,13.96,0C27.38,34.571,35.694,22.42,35.694,22.42L28.856,25.184z"/><path fill="#ff7e00" d="M28.772,25.26l9.918-15.877l-14.888,9.915l3.768-7.212c0,0-14.307,8.593-18.668,13.114 c-3.876,3.876-3.876,10.013,0,13.888s10.013,3.876,13.888,0c4.522-4.522,12.834-16.606,12.834-16.606L28.772,25.26z"/><path fill="#ff7f00" d="M28.689,25.335l9.886-15.831l-14.864,9.9l3.767-7.217c0,0-14.21,8.558-18.547,13.056 c-3.856,3.856-3.856,9.961,0,13.816s9.961,3.856,13.816,0c4.498-4.498,12.809-16.514,12.809-16.514L28.689,25.335z"/><path fill="#ff8000" d="M28.606,25.41L38.46,9.625L23.62,19.51l3.766-7.222c0,0-14.112,8.523-18.427,12.998 c-3.836,3.836-3.836,9.909,0,13.744s9.909,3.836,13.744,0c4.475-4.475,12.783-16.423,12.783-16.423L28.606,25.41z"/><path fill="#ff8100" d="M28.523,25.485l9.822-15.739l-14.816,9.87l3.765-7.226c0,0-14.014,8.488-18.307,12.939 c-3.816,3.816-3.816,9.857,0,13.672s9.857,3.816,13.672,0c4.451-4.451,12.758-16.332,12.758-16.332L28.523,25.485z"/><path fill="#ff8200" d="M28.44,25.561l9.789-15.693l-14.792,9.856l3.765-7.231c0,0-13.917,8.453-18.187,12.881 c-3.795,3.795-3.795,9.805,0,13.6c3.795,3.795,9.805,3.795,13.6,0c4.428-4.428,12.733-16.241,12.733-16.241L28.44,25.561z"/><path fill="#ff8300" d="M28.356,25.636l9.757-15.647L23.346,19.83l3.764-7.235c0,0-13.819,8.418-18.066,12.822 c-3.775,3.775-3.775,9.753,0,13.528c3.775,3.775,9.753,3.775,13.528,0c4.405-4.405,12.707-16.15,12.707-16.15L28.356,25.636z"/><path fill="#ff8400" d="M28.273,25.711l9.725-15.6l-14.743,9.826l3.763-7.24c0,0-13.721,8.383-17.946,12.764 c-3.755,3.755-3.755,9.701,0,13.456s9.701,3.755,13.456,0c4.381-4.381,12.682-16.059,12.682-16.059L28.273,25.711z"/><path fill="#ff8500" d="M28.19,25.786l9.693-15.554l-14.719,9.811l3.763-7.245c0,0-13.624,8.348-17.826,12.706 c-3.735,3.735-3.735,9.649,0,13.384s9.649,3.735,13.384,0c4.358-4.358,12.657-15.967,12.657-15.967L28.19,25.786z"/><path fill="#ff8600" d="M28.107,25.861l9.661-15.508l-14.695,9.796l3.762-7.249c0,0-13.526,8.313-17.706,12.647 c-3.715,3.715-3.715,9.597,0,13.312c3.715,3.715,9.597,3.715,13.312,0c4.334-4.334,12.631-15.876,12.631-15.876L28.107,25.861z"/><path fill="#ff8700" d="M28.024,25.937l9.628-15.462l-14.671,9.781l3.761-7.254c0,0-13.428,8.278-17.585,12.589 c-3.695,3.695-3.695,9.545,0,13.24s9.545,3.695,13.24,0c4.311-4.311,12.606-15.785,12.606-15.785L28.024,25.937z"/><path fill="#f80" d="M27.94,26.012l9.596-15.416L22.89,20.362l3.761-7.259c0,0-13.331,8.243-17.465,12.531 c-3.675,3.675-3.675,9.494,0,13.168c3.675,3.675,9.494,3.675,13.168,0c4.287-4.287,12.581-15.694,12.581-15.694L27.94,26.012z"/><path fill="#ff8900" d="M27.857,26.087l9.564-15.37l-14.623,9.751l3.76-7.263c0,0-13.233,8.208-17.345,12.472 c-3.655,3.655-3.655,9.442,0,13.096c3.655,3.655,9.442,3.655,13.096,0c4.264-4.264,12.555-15.603,12.555-15.603L27.857,26.087z"/><path fill="#ff8a00" d="M27.774,26.162l9.532-15.324l-14.598,9.736l3.759-7.268c0,0-13.135,8.173-17.224,12.414 c-3.635,3.635-3.635,9.39,0,13.024s9.39,3.635,13.024,0c4.241-4.241,12.53-15.511,12.53-15.511L27.774,26.162z"/><path fill="#ff8b00" d="M27.691,26.237l9.5-15.277l-14.574,9.722l3.758-7.272c0,0-13.038,8.138-17.104,12.355 c-3.615,3.615-3.615,9.338,0,12.952c3.615,3.615,9.338,3.615,12.952,0c4.217-4.217,12.504-15.42,12.504-15.42L27.691,26.237z"/><path fill="#ff8c00" d="M27.608,26.313l9.467-15.231l-14.55,9.707l3.758-7.277c0,0-12.94,8.103-16.984,12.297 c-3.595,3.595-3.595,9.286,0,12.88c3.595,3.595,9.286,3.595,12.88,0c4.194-4.194,12.479-15.329,12.479-15.329L27.608,26.313z"/><path fill="#ff8d00" d="M27.524,26.388l9.435-15.185l-14.526,9.692l3.757-7.282c0,0-12.842,8.068-16.864,12.239 c-3.574,3.574-3.574,9.234,0,12.808s9.234,3.574,12.808,0c4.17-4.17,12.454-15.238,12.454-15.238L27.524,26.388z"/><path fill="#ff8e00" d="M27.441,26.463l9.403-15.139l-14.502,9.677l3.756-7.286c0,0-12.745,8.033-16.743,12.18 c-3.554,3.554-3.554,9.182,0,12.737s9.182,3.554,12.737,0c4.147-4.147,12.428-15.147,12.428-15.147L27.441,26.463z"/><path fill="#ff8f00" d="M27.358,26.538l9.371-15.093l-14.478,9.662l3.756-7.291c0,0-12.647,7.999-16.623,12.122 c-3.534,3.534-3.534,9.13,0,12.665c3.534,3.534,9.13,3.534,12.665,0c4.123-4.123,12.403-15.056,12.403-15.056L27.358,26.538z"/><path fill="#ff9000" d="M27.275,26.613l9.339-15.047L22.16,21.214l3.755-7.295c0,0-12.549,7.964-16.503,12.064 c-3.514,3.514-3.514,9.078,0,12.593s9.078,3.514,12.593,0c4.1-4.1,12.378-14.964,12.378-14.964L27.275,26.613z"/><path fill="#ff9100" d="M27.192,26.689l9.306-15.001L22.069,21.32l3.754-7.3c0,0-12.452,7.929-16.383,12.005 c-3.494,3.494-3.494,9.026,0,12.521c3.494,3.494,9.026,3.494,12.521,0c4.076-4.076,12.352-14.873,12.352-14.873L27.192,26.689z"/><path fill="#ff9200" d="M27.108,26.764l9.274-14.954l-14.405,9.617l3.754-7.305c0,0-12.354,7.894-16.262,11.947 c-3.474,3.474-3.474,8.975,0,12.449c3.474,3.474,8.975,3.474,12.449,0c4.053-4.053,12.327-14.782,12.327-14.782L27.108,26.764z"/><path fill="#ff9300" d="M27.025,26.839l9.242-14.908l-14.381,9.602l3.753-7.309c0,0-12.256,7.859-16.142,11.888 c-3.454,3.454-3.454,8.923,0,12.377c3.454,3.454,8.923,3.454,12.377,0c4.03-4.03,12.302-14.691,12.302-14.691L27.025,26.839z"/><path fill="#ff9400" d="M26.942,26.914l9.21-14.862L21.795,21.64l3.752-7.314c0,0-12.159,7.824-16.022,11.83 c-3.434,3.434-3.434,8.871,0,12.305s8.871,3.434,12.305,0c4.006-4.006,12.276-14.6,12.276-14.6L26.942,26.914z"/><path fill="#ff9500" d="M26.859,26.99l9.177-14.816l-14.333,9.573l3.751-7.319c0,0-12.061,7.789-15.902,11.772 c-3.414,3.414-3.414,8.819,0,12.233c3.414,3.414,8.819,3.414,12.233,0c3.983-3.983,12.251-14.508,12.251-14.508L26.859,26.99z"/><path fill="#ff9600" d="M26.776,27.065l9.145-14.77l-14.308,9.558l3.751-7.323c0,0-11.963,7.754-15.781,11.713 c-3.394,3.394-3.394,8.767,0,12.161s8.767,3.394,12.161,0c3.959-3.959,12.226-14.417,12.226-14.417L26.776,27.065z"/><path fill="#ff9700" d="M26.692,27.14l9.113-14.724l-14.284,9.543l3.75-7.328c0,0-11.866,7.719-15.661,11.655 c-3.374,3.374-3.374,8.715,0,12.089c3.374,3.374,8.715,3.374,12.089,0c3.936-3.936,12.2-14.326,12.2-14.326L26.692,27.14z"/><path fill="#ff9800" d="M26.609,27.215l9.081-14.678l-14.26,9.528l3.749-7.332c0,0-11.768,7.684-15.541,11.596 c-3.353,3.353-3.353,8.663,0,12.017c3.353,3.353,8.663,3.353,12.017,0c3.912-3.912,12.175-14.235,12.175-14.235L26.609,27.215z"/><path fill="#f90" d="M26.526,27.29l9.049-14.631l-14.236,9.513l3.749-7.337c0,0-11.67,7.649-15.42,11.538 c-3.333,3.333-3.333,8.611,0,11.945c3.333,3.333,8.611,3.333,11.945,0c3.889-3.889,12.15-14.144,12.15-14.144L26.526,27.29z"/><path fill="#ff9a00" d="M26.443,27.366l9.016-14.585l-14.212,9.498l3.748-7.342c0,0-11.573,7.614-15.3,11.48 c-3.313,3.313-3.313,8.559,0,11.873s8.559,3.313,11.873,0c3.865-3.865,12.124-14.053,12.124-14.053L26.443,27.366z"/><path fill="#ff9b00" d="M26.359,27.441l8.984-14.539l-14.188,9.483l3.747-7.346c0,0-11.475,7.579-15.18,11.421 c-3.293,3.293-3.293,8.507,0,11.801c3.293,3.293,8.507,3.293,11.801,0c3.842-3.842,12.099-13.961,12.099-13.961L26.359,27.441z"/><path fill="#ff9c00" d="M26.276,27.516l8.952-14.493l-14.163,9.468l3.746-7.351c0,0-11.377,7.544-15.06,11.363 c-3.273,3.273-3.273,8.456,0,11.729s8.456,3.273,11.729,0c3.819-3.819,12.074-13.87,12.074-13.87L26.276,27.516z"/><path fill="#ff9d00" d="M26.193,27.591l8.92-14.447l-14.139,9.454l3.746-7.356c0,0-11.28,7.509-14.939,11.305 c-3.253,3.253-3.253,8.404,0,11.657c3.253,3.253,8.404,3.253,11.657,0c3.795-3.795,12.048-13.779,12.048-13.779L26.193,27.591z"/><path fill="#ff9e00" d="M26.11,27.666l8.888-14.401l-14.115,9.439l3.745-7.36c0,0-11.182,7.474-14.819,11.246 c-3.233,3.233-3.233,8.352,0,11.585s8.352,3.233,11.585,0c3.772-3.772,12.023-13.688,12.023-13.688L26.11,27.666z"/><path fill="#ff9f00" d="M26.027,27.742l8.855-14.355l-14.091,9.424l3.744-7.365c0,0-11.084,7.439-14.699,11.188 c-3.213,3.213-3.213,8.3,0,11.513c3.213,3.213,8.3,3.213,11.513,0c3.748-3.748,11.998-13.597,11.998-13.597L26.027,27.742z"/><path fill="#ffa000" d="M25.943,27.817l8.823-14.308L20.7,22.917l3.744-7.369c0,0-10.987,7.405-14.579,11.129 c-3.193,3.193-3.193,8.248,0,11.441s8.248,3.193,11.441,0c3.725-3.725,11.972-13.505,11.972-13.505L25.943,27.817z"/><path fill="#ffa100" d="M25.86,27.892l8.791-14.262l-14.043,9.394l3.743-7.374c0,0-10.889,7.37-14.458,11.071 c-3.173,3.173-3.173,8.196,0,11.369c3.173,3.173,8.196,3.173,11.369,0c3.701-3.701,11.947-13.414,11.947-13.414L25.86,27.892z"/><path fill="#ffa200" d="M25.777,27.967l8.759-14.216L20.517,23.13l3.742-7.379c0,0-10.791,7.335-14.338,11.013 c-3.153,3.153-3.153,8.144,0,11.297s8.144,3.153,11.297,0c3.678-3.678,11.922-13.323,11.922-13.323L25.777,27.967z"/><path fill="#ffa300" d="M25.694,28.042l8.727-14.17l-13.994,9.364l3.742-7.383c0,0-10.694,7.3-14.218,10.954 c-3.132,3.132-3.132,8.092,0,11.225c3.132,3.132,8.092,3.132,11.225,0c3.655-3.655,11.896-13.232,11.896-13.232L25.694,28.042z"/><path fill="#ffa400" d="M25.611,28.118l8.694-14.124l-13.97,9.349l3.741-7.388c0,0-10.596,7.265-14.098,10.896 c-3.112,3.112-3.112,8.04,0,11.153s8.04,3.112,11.153,0c3.631-3.631,11.871-13.141,11.871-13.141L25.611,28.118z"/><path fill="orange" d="M25.527,28.193l8.662-14.078L20.244,23.45l3.74-7.392c0,0-10.498,7.23-13.977,10.837 c-3.092,3.092-3.092,7.988,0,11.081c3.092,3.092,7.988,3.092,11.081,0c3.608-3.608,11.845-13.05,11.845-13.05L25.527,28.193z"/><path fill="#ffa600" d="M25.444,28.268l8.63-14.032l-13.922,9.32l3.739-7.397c0,0-10.401,7.195-13.857,10.779 c-3.072,3.072-3.072,7.937,0,11.009s7.937,3.072,11.009,0c3.584-3.584,11.82-12.958,11.82-12.958L25.444,28.268z"/><path fill="#ffa600" d="M25.276,28.341l8.404-13.665l-13.558,9.076l3.642-7.204c0,0-10.129,7.007-13.495,10.497 c-2.992,2.992-2.992,7.729,0,10.721c2.992,2.992,7.729,2.992,10.721,0c3.491-3.491,11.511-12.62,11.511-12.62L25.276,28.341z"/><path fill="#ffa600" d="M25.107,28.414l8.179-13.298l-13.194,8.832l3.544-7.01c0,0-9.857,6.819-13.133,10.216 c-2.912,2.912-2.912,7.522,0,10.433s7.522,2.912,10.433,0c3.397-3.397,11.202-12.281,11.202-12.281L25.107,28.414z"/><radialGradient id="s_Pi6y_jXy~e~IOgwSBp_a" cx="15.64" cy="32.76" r="8.045" gradientUnits="userSpaceOnUse"><stop offset="0" stop-color="#fff5d6"/><stop offset=".065" stop-color="#fff1c4"/><stop offset=".196" stop-color="#ffe596"/><stop offset=".378" stop-color="#ffd24d"/><stop offset=".537" stop-color="#ffc107"/><stop offset="1" stop-color="#ffc107" stop-opacity="0"/></radialGradient><circle cx="15.64" cy="32.76" r="8.045" fill="url(#s_Pi6y_jXy~e~IOgwSBp_a)"/></svg>