<svg xmlns="http://www.w3.org/2000/svg" viewBox="0 0 48 48"><path fill="#424242" d="M22.953,42.297c0,0-0.203,0.625-0.313,0.859s0.096,0.64,0.469,0.344	c0.453-0.359,0.203-0.547,0.375-0.719c0.172-0.172,0.359-0.313,0.203-0.641C23.531,41.813,22.953,42.297,22.953,42.297z"/><path fill="#424242" d="M27.677,42.08c0,0,0.301,0.584,0.446,0.798c0.146,0.214,0.008,0.647-0.407,0.415	c-0.505-0.282-0.288-0.507-0.486-0.649c-0.197-0.142-0.405-0.251-0.303-0.6C27.029,41.695,27.677,42.08,27.677,42.08z"/><path fill="#adafb1" d="M24.563,35.5c-0.089,0-0.175-0.048-0.22-0.131l-2.176-4.025l-0.391,1.864	c-0.029,0.134-0.155,0.218-0.297,0.193c-0.135-0.028-0.222-0.161-0.193-0.297l0.531-2.531c0.022-0.103,0.105-0.181,0.209-0.195	c0.108-0.02,0.206,0.036,0.256,0.128l2.5,4.625c0.065,0.122,0.021,0.273-0.101,0.339C24.644,35.49,24.603,35.5,24.563,35.5z"/><path fill="#adafb1" d="M25.094,35.688c-0.032,0-0.064-0.006-0.096-0.019c-0.127-0.053-0.188-0.199-0.136-0.327l2.063-5	c0.041-0.1,0.143-0.178,0.249-0.153c0.107,0.008,0.198,0.083,0.225,0.188l1.219,4.813c0.034,0.134-0.047,0.27-0.181,0.304	c-0.134,0.036-0.271-0.047-0.304-0.181l-1.033-4.08l-1.774,4.302C25.285,35.629,25.191,35.688,25.094,35.688z"/><path fill="#424242" d="M21.984,33.047l-0.375-0.156c0,0-0.313-0.094-0.406-0.047s0.031,0.25,0.031,0.25	s-0.109,0.281-0.047,0.406c0.063,0.125,0.5,0.344,0.5,0.344l0.453-0.188L21.984,33.047z"/><path fill="#424242" d="M27.955,35.067l0.402-0.057c0,0,0.326-0.012,0.405,0.057c0.079,0.069-0.093,0.234-0.093,0.234	s0.035,0.3-0.057,0.405c-0.092,0.105-0.571,0.206-0.571,0.206l-0.391-0.296L27.955,35.067z"/><linearGradient id="xo_Otl~MW7Ovddhi7ej~ba" x1="13.578" x2="9.34" y1="21.654" y2="17.406" gradientUnits="userSpaceOnUse"><stop offset="0" stop-color="#f68381"/><stop offset="1" stop-color="#e51e25"/></linearGradient><path fill="url(#xo_Otl~MW7Ovddhi7ej~ba)" d="M6.815,12.75c-2.485,1.897-3.898,3.5-3.898,3.5l7.792,5.708c0,0,1.325-1.278,3.481-2.624	L8.25,11.031L6.197,12.75H6.815z"/><linearGradient id="xo_Otl~MW7Ovddhi7ej~bb" x1="15.637" x2="12.349" y1="15.22" y2="10.47" gradientUnits="userSpaceOnUse"><stop offset="0" stop-color="#fdd835"/><stop offset="1" stop-color="#f7931e"/></linearGradient><path fill="url(#xo_Otl~MW7Ovddhi7ej~bb)" d="M17.919,17.451L14.812,7.5l-6.875,3.125l6.138,8.781	C15.158,18.722,16.458,18.022,17.919,17.451z"/><linearGradient id="xo_Otl~MW7Ovddhi7ej~bc" x1="26.64" x2="27.566" y1="15.448" y2="7.03" gradientUnits="userSpaceOnUse"><stop offset="0" stop-color="#fdd835"/><stop offset="1" stop-color="#f7931e"/></linearGradient><path fill="url(#xo_Otl~MW7Ovddhi7ej~bc)" d="M23.708,16.25c2.071-0.024,3.944,0.275,5.611,0.736l2.587-10.549l-8.469-0.75l0.057,10.575	C23.566,16.26,23.636,16.251,23.708,16.25z"/><linearGradient id="xo_Otl~MW7Ovddhi7ej~bd" x1="22.29" x2="20.24" y1="17.02" y2="10.329" gradientUnits="userSpaceOnUse"><stop offset="0" stop-color="#f68381"/><stop offset="1" stop-color="#e51e25"/></linearGradient><path fill="url(#xo_Otl~MW7Ovddhi7ej~bd)" d="M23.495,16.262L23.437,5.688l-8.875,1.188l3.352,10.577	C19.598,16.793,21.487,16.316,23.495,16.262z"/><linearGradient id="xo_Otl~MW7Ovddhi7ej~be" x1="31.651" x2="33.957" y1="19.237" y2="12.534" gradientUnits="userSpaceOnUse"><stop offset="0" stop-color="#f68381"/><stop offset="1" stop-color="#e51e25"/></linearGradient><path fill="url(#xo_Otl~MW7Ovddhi7ej~be)" d="M34.188,19.021l4.905-9.302l-7.281-3.063l-2.584,10.307	C31.186,17.495,32.857,18.254,34.188,19.021z"/><linearGradient id="xo_Otl~MW7Ovddhi7ej~bf" x1="38.422" x2="41.461" y1="18.561" y2="13.976" gradientUnits="userSpaceOnUse"><stop offset="0" stop-color="#fdd835"/><stop offset="1" stop-color="#f7931e"/></linearGradient><path fill="url(#xo_Otl~MW7Ovddhi7ej~bf)" d="M37.917,21.792c0,0,6.292-5.167,7.75-6.333c-0.361-0.374-1.54-1.441-3.366-2.708h0.918	l-4.125-3.031l-4.905,9.302C36.594,20.406,37.917,21.792,37.917,21.792z"/><path fill="#adafb1" d="M22.063,30.875c-0.055,0-0.109-0.019-0.155-0.054L3.095,15.988c-0.108-0.086-0.127-0.242-0.041-0.352	c0.085-0.108,0.243-0.126,0.352-0.041l18.394,14.503L21.208,7.257C21.204,7.118,21.313,7.004,21.451,7c0.003,0,0.005,0,0.007,0	c0.135,0,0.246,0.107,0.25,0.243l0.604,23.375c0.002,0.098-0.052,0.187-0.138,0.23C22.139,30.866,22.101,30.875,22.063,30.875z"/><path fill="#adafb1" d="M22.063,30.875c-0.079,0-0.156-0.037-0.204-0.105l-13.438-19c-0.08-0.113-0.053-0.269,0.06-0.349	c0.113-0.08,0.27-0.052,0.349,0.06l12.515,17.696l-6.54-20.769c-0.042-0.132,0.031-0.272,0.163-0.313	c0.138-0.042,0.273,0.032,0.313,0.163l7.021,22.292c0.037,0.117-0.017,0.244-0.127,0.299C22.138,30.866,22.101,30.875,22.063,30.875	z"/><path fill="#adafb1" d="M27.145,31.012c-0.034,0-0.068-0.007-0.101-0.021c-0.088-0.038-0.146-0.125-0.149-0.221L26.167,7.425	c-0.004-0.138,0.104-0.253,0.242-0.258c0.155-0.014,0.254,0.104,0.258,0.242l0.711,22.822l17.917-15.379	c0.106-0.091,0.265-0.078,0.353,0.026c0.09,0.105,0.078,0.263-0.026,0.353l-18.313,15.72C27.261,30.991,27.203,31.012,27.145,31.012	z"/><path fill="#adafb1" d="M27.145,31.012c-0.035,0-0.071-0.008-0.105-0.023c-0.111-0.052-0.168-0.176-0.136-0.294l6.173-22.079	c0.038-0.133,0.177-0.21,0.309-0.174c0.133,0.038,0.211,0.176,0.174,0.309l-5.765,20.618l12.104-17.719	c0.078-0.115,0.234-0.144,0.347-0.065c0.114,0.077,0.144,0.233,0.065,0.347L27.351,30.902	C27.303,30.973,27.225,31.012,27.145,31.012z"/><path fill="#e6282d" d="M24.954,31.375c-0.977,0-2.149-0.148-3.452-0.604c-0.391-0.137-0.597-0.564-0.46-0.956	c0.137-0.391,0.563-0.595,0.956-0.46c3.085,1.08,5.3,0.135,5.321,0.124c0.378-0.165,0.82,0.004,0.989,0.381	c0.168,0.377,0.001,0.818-0.375,0.988C27.862,30.88,26.734,31.375,24.954,31.375z"/><path fill="#fcd73b" d="M23.375,4.375c0,0-11.875-0.083-20.917,9.5c-1.042,1.208,0.458,2.375,0.458,2.375	c0.792-0.5,4.049-2.042,5.59-4.719c2.517-0.62,4.858-1.38,6.542-3.332c3.639,0.988,8.535-1.575,8.535-1.575	c2.854,1.563,7.798,1.061,7.798,1.061c2.285,1.564,4.556,2.689,7.556,3.11c1.563,2.642,6.692,4.766,6.729,4.663	c0,0,1.25-1.667-0.75-3.25S37.667,4.5,23.375,4.375z"/><linearGradient id="xo_Otl~MW7Ovddhi7ej~bg" x1="5.132" x2="4.846" y1="10.186" y2="4.58" gradientUnits="userSpaceOnUse"><stop offset="0" stop-color="#f68381"/><stop offset="1" stop-color="#e51e25"/></linearGradient><path fill="url(#xo_Otl~MW7Ovddhi7ej~bg)" d="M2.458,13.875c-1.042,1.208,0.458,2.375,0.458,2.375c0.787-0.497,4.011-2.026,5.563-4.674 C8.084,10.511,7.964,9.7,7.931,9.323C6.072,10.525,4.212,12.017,2.458,13.875z"/><linearGradient id="xo_Otl~MW7Ovddhi7ej~bh" x1="19.066" x2="18.906" y1="4.988" y2="1.841" gradientUnits="userSpaceOnUse"><stop offset="0" stop-color="#f68381"/><stop offset="1" stop-color="#e51e25"/></linearGradient><path fill="url(#xo_Otl~MW7Ovddhi7ej~bh)" d="M14.872,8.381c0.058-0.063,0.121-0.116,0.177-0.182c3.487,0.947,8.116-1.361,8.497-1.555 l-0.162-2.269c-0.003,0-0.006,0-0.009,0c0,0-3.564-0.021-8.27,1.53C14.97,6.17,14.673,6.964,14.872,8.381z"/><linearGradient id="xo_Otl~MW7Ovddhi7ej~bi" x1="35.032" x2="34.774" y1="5.593" y2=".529" gradientUnits="userSpaceOnUse"><stop offset="0" stop-color="#f68381"/><stop offset="1" stop-color="#e51e25"/></linearGradient><path fill="url(#xo_Otl~MW7Ovddhi7ej~bi)" d="M31.5,7.764c2.217,1.503,4.436,2.588,7.329,3.013c0.186-0.635,0.416-1.817,0.038-2.967 c-1.977-1.044-4.502-2.024-7.723-2.669C31.335,5.749,31.622,6.882,31.5,7.764z"/><linearGradient id="xo_Otl~MW7Ovddhi7ej~bj" x1="23.486" x2="26.247" y1="36.161" y2="40.261" gradientUnits="userSpaceOnUse"><stop offset="0" stop-color="#ffa000"/><stop offset="1" stop-color="#e65100"/></linearGradient><path fill="url(#xo_Otl~MW7Ovddhi7ej~bj)" d="M22.156,33.469l-0.088,0.046L21.5,33.813c0,0,0.281,1.625,0.437,1.875	c0.156,0.25,1.396,0.167,1.396,0.292s0.292,1.365,0.292,1.365s0,0.594-0.094,0.75c-0.094,0.156-0.906,1.969-0.906,2.281	s-0.094,1.688,0.094,1.844s0.563,0.313,0.844,0.125c0.281-0.188,0.25-1.469,0.25-1.469l0.156-0.5c0,0,0.656-1.406,0.781-1.406	s0.594,0,0.594,0l0.875,1.438c0,0,0.344,1.313,0.531,1.531c0.187,0.219,0.844,0.219,1,0.125s-0.125-1.719-0.188-1.906	c-0.062-0.188-1.25-2.188-1.281-2.313c-0.031-0.125-0.219-0.563-0.219-0.563l0.063-0.688c0,0,0.354,0.74,1.042,0.427	s1.021-1.083,1.021-1.083l-0.437-0.5l-0.875,0.625c0,0-0.531-0.688-0.781-0.969s-1.781-0.375-1.781-0.375s-1.469,0.25-1.562,0.094	S22.5,33.563,22.156,33.469z"/><path fill="#d84315" d="M25.549,34.953c-0.002,0.265-0.371,0.459-0.825,0.459s-0.812-0.212-0.822-0.459	c-0.006-0.143,0.279-0.271,0.733-0.271S25.55,34.81,25.549,34.953z"/><path fill="#424242" d="M24.84,35.014c-0.423,0.018-0.864-0.482-0.826-0.948c0.036-0.438,0.212-0.863,0.83-0.879	c0.619-0.016,0.732,0.57,0.765,0.879C25.642,34.376,25.336,34.984,24.84,35.014z"/><path fill="#ffcc80" d="M24.83,35.022c-0.282,0.013-0.576-0.331-0.55-0.65c0.024-0.301,0.141-0.592,0.553-0.603	s0.488,0.391,0.51,0.603C25.365,34.584,25.161,35.001,24.83,35.022z"/><rect width=".5" height="3.074" x="23.851" y="34.775" fill="#424242" transform="rotate(-12.621 24.107 36.32)"/><rect width="2.968" height=".499" x="24.047" y="36.02" fill="#424242" transform="rotate(-86.411 25.532 36.27)"/><path fill="#424242" d="M24.581,37.957c-0.382,0-0.763-0.039-1.12-0.119l0.109-0.488c0.813,0.184,1.756,0.134,2.52-0.133	l0.164,0.473C25.742,37.867,25.16,37.957,24.581,37.957z"/><rect width=".501" height="1.315" x="24.648" y="37.78" fill="#424242" transform="rotate(-3.405 24.906 38.45)"/><linearGradient id="xo_Otl~MW7Ovddhi7ej~bk" x1="23.05" x2="23.032" y1="39.368" y2="41.994" gradientUnits="userSpaceOnUse"><stop offset="0" stop-color="#d84315"/><stop offset="1" stop-color="#e65100"/></linearGradient><path fill="url(#xo_Otl~MW7Ovddhi7ej~bk)" d="M22.641,40.578c-0.029-0.402,0.548-0.955,0.719,0.156c0.183,1.188-0.018,1.583-0.018,1.583	s-0.622-0.036-0.669-0.333S22.641,40.578,22.641,40.578z"/><linearGradient id="xo_Otl~MW7Ovddhi7ej~bl" x1="27.078" x2="27.06" y1="39.108" y2="41.735" gradientTransform="scale(-1 1) rotate(6.557 -.01 -433.24)" gradientUnits="userSpaceOnUse"><stop offset="0" stop-color="#d84315"/><stop offset="1" stop-color="#e65100"/></linearGradient><path fill="url(#xo_Otl~MW7Ovddhi7ej~bl)" d="M27.584,40.266c-0.017-0.402-0.653-0.886-0.696,0.237c-0.046,1.201,0.199,1.571,0.199,1.571	s0.614-0.107,0.627-0.407C27.726,41.367,27.584,40.266,27.584,40.266z"/></svg>