<svg xmlns="http://www.w3.org/2000/svg" viewBox="0 0 48 48"><polygon fill="#a3a3a3" points="32.523,8.173 30.112,9.225 26.708,17.82 28.632,18.95 33.744,24.184 42.018,23.825"/><polygon fill="#575757" points="35.652,39.062 41.608,33.429 39.315,32.955 30.045,33.83 27.272,35.396 28.326,36.629 33.517,38.787"/><polygon fill="#2e2e2e" points="15.731,33.83 14.202,33.596 10.857,36.326 11.099,38.022 13.587,39.827 34.547,39.58 35.652,39.062 27.272,35.396 26.775,33.83 16.157,32.551"/><polygon fill="#7d7d7d" points="27.272,35.396 41.608,33.429 42.018,23.825 33.744,24.184 31.764,24 25.865,33.663"/><polygon fill="#404040" points="6.222,24.755 5.982,25.359 7.961,35.746 11.099,38.022 15.731,33.83 14.775,30.157 8.539,24.184"/><polygon fill="#7d7d7d" points="28.632,18.95 32.523,8.173 15.155,13.464 14.101,16.508 14.944,24.427 17.297,24.844 19.056,25.539 29.607,21.629"/><polygon fill="#575757" points="17.297,24.844 15.155,13.464 6.222,24.755 15.731,33.83 18.146,32.551 19.056,26.315"/><polygon fill="#696969" points="15.731,33.83 27.272,35.396 33.744,24.184 28.632,18.95 17.297,24.844"/></svg>