<svg xmlns="http://www.w3.org/2000/svg" viewBox="0 0 48 48"><radialGradient id="Z5LIM9i0GQvSc2LEuSMCAa" cx="17.912" cy="9.608" r="31.667" gradientUnits="userSpaceOnUse"><stop offset="0" stop-color="#fc7b12"/><stop offset=".279" stop-color="#f97811"/><stop offset=".478" stop-color="#f06f0f"/><stop offset=".652" stop-color="#e15f0c"/><stop offset=".812" stop-color="#cc4908"/><stop offset=".961" stop-color="#b12d02"/><stop offset="1" stop-color="#a82400"/></radialGradient><path fill="url(#Z5LIM9i0GQvSc2LEuSMCAa)" d="M27,12.633c-3.773,1.327-7.511,4.633-10.713,7.898c-0.294,0.3,0.746,1.109,0.458,1.413	c-0.269,0.284-1.866,0.062-2.129,0.348c-1.671,1.814-3.243,3.663-4.702,5.346c-0.186,0.214,0.797,0.576,0.615,0.784	c-0.193,0.221-1.551,0.288-1.74,0.502C6.543,31.465,4.596,33.443,3,34.028c0.37,2.321,11.422,7.7,19.093,6.592	c22.284-3.218,20.505-20.468,19.65-25.85C41.743,14.77,33.275,10.426,27,12.633z"/><linearGradient id="Z5LIM9i0GQvSc2LEuSMCAb" x1="36.82" x2="41.603" y1="6.532" y2="-1.006" gradientUnits="userSpaceOnUse"><stop offset=".398" stop-color="#f28435"/><stop offset=".597" stop-color="#f08234"/><stop offset=".711" stop-color="#e77a32"/><stop offset=".803" stop-color="#d96d2d"/><stop offset=".884" stop-color="#c65a27"/><stop offset=".957" stop-color="#ac421e"/><stop offset="1" stop-color="#993018"/></linearGradient><path fill="url(#Z5LIM9i0GQvSc2LEuSMCAb)" d="M45,4.263c0,0,0.033,0.115-0.813-0.962c-1.864,0.196-0.2,7.564-5.112,15.106	c-0.097,0.148-14.609,0.885-14.7,1.038c-0.106,0.179,14.217-0.219,14.106-0.04c-1.511,2.429-3.486,4.833-6.096,6.974	c-0.166,0.136-15.769-0.891-15.939-0.757c-0.211,0.165,15.155,1.356,14.936,1.518c-1.82,1.342-3.923,2.562-6.357,3.595	c-0.198,0.084-13.238-0.253-13.44-0.172c-0.256,0.103,12.324,0.624,12.061,0.722c-5.243,1.97-11.915,3.103-20.432,2.839	c8.594,0.643,15.428-0.418,20.86-2.47c0.189-0.072-6.198,7.371-6.012,7.297c0.171-0.068,6.916-7.652,7.084-7.722	c2.527-1.051,4.735-2.321,6.663-3.73c0.147-0.108-2.506,9.514-2.449,9.342c0.328-0.984,3.206-9.912,3.362-10.036	c2.749-2.171,4.888-4.624,6.55-7.092c0.122-0.181-1.122,10.089-1.006,9.908c0.089-0.138,1.541-10.728,1.627-10.866	C44.47,11.425,45,4.263,45,4.263z"/><radialGradient id="Z5LIM9i0GQvSc2LEuSMCAc" cx="11.184" cy="41.434" r="41.301" gradientUnits="userSpaceOnUse"><stop offset=".184" stop-color="#ff9912"/><stop offset="1" stop-color="#db520a"/></radialGradient><path fill="url(#Z5LIM9i0GQvSc2LEuSMCAc)" d="M31.159,33.425c-4.014,1.781-7.599,2.827-10.755,3.372c-0.321,0.055,0.116,1.083-0.197,1.128	c-0.29,0.042-1.33-0.897-1.613-0.863C8.199,38.304,3,34.028,3,34.028c0.37,2.321,11.285,8.08,20.134,6.785	c18.078-2.646,19.27-14.162,18.979-22.018c-0.988,4.696-1.508,9.454-7.915,13.106c-0.458,0.261,0.058,1.794-0.448,2.048	C33.244,34.202,31.716,33.178,31.159,33.425z"/></svg>