<svg xmlns="http://www.w3.org/2000/svg" viewBox="0 0 48 48"><path fill="#6e2c19" d="M12.083,13.643c0.576,0.793,1.276,1.479,2.028,2.087c0.377,0.303,0.767,0.59,1.169,0.859	c0.408,0.271,0.802,0.519,1.264,0.764l0,0l-0.264-0.181l3.038,2.879l0.001,0.001c0.028,0.036,0.062,0.064,0.1,0.084l0.147,0.076	l3.183,1.641c0.548,0.283,1.222,0.067,1.505-0.481c0.283-0.548,0.067-1.222-0.481-1.505c-0.083-0.043-0.174-0.075-0.26-0.095	l-3.489-0.807l0.246,0.159l-0.001-0.001l-2.806-3.105c-0.053-0.058-0.114-0.104-0.18-0.138l-0.085-0.043l0,0	c-0.382-0.133-0.809-0.314-1.205-0.499c-0.402-0.188-0.796-0.395-1.18-0.617c-0.767-0.446-1.49-0.967-2.107-1.591l-0.008-0.008	c-0.157-0.159-0.413-0.16-0.572-0.003C11.982,13.261,11.968,13.485,12.083,13.643z"/><path fill="#6e2c19" d="M5.44,26.992c1.374-0.124,2.61-0.626,3.792-1.173c1.186-0.562,2.297-1.197,3.41-1.929l0,0	l-0.303,0.149l5.308-1.616l0.002,0l0,0l-0.315,0.006l4.477,1.746c0.727,0.283,1.546-0.076,1.83-0.803	c0.284-0.727-0.076-1.546-0.803-1.83c-0.136-0.053-0.282-0.084-0.42-0.093l-4.795-0.316l-0.202-0.013	c-0.04-0.003-0.079,0.005-0.113,0.02l0,0l-0.002,0l-5.41,1.233c-0.089,0.02-0.169,0.057-0.24,0.105l-0.063,0.044l0,0	c-0.919,0.778-1.931,1.534-2.967,2.186c-1.038,0.648-2.139,1.239-3.281,1.482l-0.025,0.005c-0.218,0.046-0.357,0.261-0.311,0.478	C5.052,26.876,5.239,27.01,5.44,26.992z"/><path fill="#6e2c19" d="M9.645,40.92c0.819-0.612,1.455-1.38,2.034-2.168c0.58-0.792,1.075-1.629,1.534-2.482	c0.461-0.852,0.879-1.723,1.266-2.607c0.388-0.888,0.747-1.768,1.077-2.704l0,0l-0.23,0.376l3.859-3.959l0.001-0.001l-0.247,0.149	l4.027-0.581c0.776-0.112,1.314-0.832,1.202-1.608c-0.112-0.776-0.832-1.314-1.608-1.202c-0.173,0.025-0.339,0.083-0.484,0.163	l-3.56,1.969l-0.178,0.098c-0.025,0.014-0.049,0.032-0.069,0.051l-0.001,0.001l-4.132,3.672c-0.096,0.086-0.165,0.191-0.205,0.304	l-0.025,0.071l0,0c-0.48,1.765-1.086,3.558-1.829,5.25c-0.372,0.849-0.779,1.683-1.259,2.462c-0.478,0.777-1.011,1.528-1.672,2.11	l-0.008,0.007c-0.167,0.147-0.184,0.402-0.037,0.57C9.24,41.022,9.478,41.044,9.645,40.92z"/><path fill="#6e2c19" d="M35.917,13.643c-0.576,0.793-1.276,1.479-2.028,2.087c-0.377,0.303-0.767,0.59-1.169,0.859	c-0.408,0.271-0.802,0.519-1.264,0.764l0,0l0.264-0.181l-3.038,2.879l-0.001,0.001c-0.028,0.036-0.062,0.064-0.1,0.084l-0.147,0.076	l-3.183,1.641c-0.548,0.283-1.222,0.067-1.505-0.481c-0.283-0.548-0.067-1.222,0.481-1.505c0.083-0.043,0.174-0.075,0.26-0.095	l3.489-0.807l-0.246,0.159l0.001-0.001l2.806-3.105c0.053-0.058,0.114-0.104,0.18-0.138l0.085-0.043l0,0	c0.382-0.133,0.809-0.314,1.205-0.499c0.402-0.188,0.796-0.395,1.18-0.617c0.767-0.446,1.49-0.967,2.107-1.591l0.008-0.008	c0.157-0.159,0.413-0.16,0.572-0.003C36.018,13.261,36.032,13.485,35.917,13.643z"/><path fill="#6e2c19" d="M42.56,26.992c-1.374-0.124-2.61-0.626-3.792-1.173c-1.186-0.562-2.297-1.197-3.41-1.929l0,0	l0.303,0.149l-5.308-1.616l-0.002,0l0,0l0.315,0.006l-4.477,1.746c-0.727,0.283-1.546-0.076-1.83-0.803	c-0.284-0.727,0.076-1.546,0.803-1.83c0.136-0.053,0.282-0.084,0.42-0.093l4.795-0.316l0.202-0.013	c0.04-0.003,0.079,0.005,0.113,0.02l0,0l0.002,0l5.41,1.233c0.089,0.02,0.169,0.057,0.24,0.105l0.063,0.044l0,0	c0.919,0.778,1.931,1.534,2.967,2.186c1.038,0.648,2.139,1.239,3.281,1.482l0.025,0.005c0.218,0.046,0.357,0.261,0.311,0.478	C42.948,26.876,42.761,27.01,42.56,26.992z"/><path fill="#6e2c19" d="M38.355,40.92c-0.819-0.612-1.455-1.38-2.034-2.168c-0.58-0.792-1.075-1.629-1.534-2.482	c-0.461-0.852-0.879-1.723-1.266-2.607c-0.388-0.888-0.747-1.768-1.077-2.704l0,0l0.23,0.376l-3.859-3.959l-0.001-0.001l0.247,0.149	l-4.027-0.581c-0.776-0.112-1.314-0.832-1.202-1.608c0.112-0.776,0.832-1.314,1.608-1.202c0.173,0.025,0.339,0.083,0.484,0.163	l3.56,1.969l0.178,0.098c0.025,0.014,0.049,0.032,0.069,0.051l0.001,0.001l4.132,3.672c0.096,0.086,0.165,0.191,0.205,0.304	l0.025,0.071l0,0c0.48,1.765,1.086,3.558,1.829,5.25c0.372,0.849,0.779,1.683,1.259,2.462c0.478,0.777,1.011,1.528,1.672,2.11	l0.008,0.007c0.167,0.147,0.184,0.402,0.037,0.57C38.76,41.022,38.522,41.044,38.355,40.92z"/><radialGradient id="9kZfOF8UQ7VynZjUaYyV1a" cx="23.981" cy="21.873" r="3.189" gradientTransform="matrix(1 0 0 2.0349 0 -23.013)" gradientUnits="userSpaceOnUse"><stop offset="0" stop-color="#eb8c50"/><stop offset=".994" stop-color="#8a2d0d"/></radialGradient><path fill="url(#9kZfOF8UQ7VynZjUaYyV1a)" d="M21,19.769C21,21.338,22,29,24,29s3-7.662,3-9.231C27,18.2,25.7,17,24,17S21,18.2,21,19.769z"/><path fill="#4e342e" d="M26.028,10.021l1.966,0.949C27.994,9.642,27.424,7.451,25,7C25,7,25.821,7.865,26.028,10.021z"/><path fill="#4e342e" d="M22.994,7C20.569,7.451,20,9.642,20,10.969l1.966-0.949C22.173,7.865,22.994,7,22.994,7z"/><radialGradient id="9kZfOF8UQ7VynZjUaYyV1b" cx="23.964" cy="11.803" r="5" gradientUnits="userSpaceOnUse"><stop offset="0" stop-color="#eb8c50"/><stop offset=".994" stop-color="#8a2d0d"/></radialGradient><path fill="url(#9kZfOF8UQ7VynZjUaYyV1b)" d="M29,14.061C29,16.944,26,18,24,18s-5-1.077-5-3.939C19,11.636,21,8,24,8S29,11.636,29,14.061z"/><radialGradient id="9kZfOF8UQ7VynZjUaYyV1c" cx="27" cy="14" r="1" gradientUnits="userSpaceOnUse"><stop offset=".007" stop-color="#4d4d4d"/><stop offset=".212" stop-color="#484848"/><stop offset=".457" stop-color="#3a3a3a"/><stop offset=".721" stop-color="#222"/><stop offset=".998"/><stop offset="1"/></radialGradient><path fill="url(#9kZfOF8UQ7VynZjUaYyV1c)" d="M28,14c0,0.6-0.4,1-1,1s-1-0.4-1-1s0.4-1,1-1S28,13.4,28,14z"/><radialGradient id="9kZfOF8UQ7VynZjUaYyV1d" cx="21" cy="14" r="1" gradientUnits="userSpaceOnUse"><stop offset=".007" stop-color="#4d4d4d"/><stop offset=".212" stop-color="#484848"/><stop offset=".457" stop-color="#3a3a3a"/><stop offset=".721" stop-color="#222"/><stop offset=".998"/><stop offset="1"/></radialGradient><path fill="url(#9kZfOF8UQ7VynZjUaYyV1d)" d="M22,14c0,0.6-0.4,1-1,1s-1-0.4-1-1s0.4-1,1-1S22,13.4,22,14z"/><radialGradient id="9kZfOF8UQ7VynZjUaYyV1e" cx="23.983" cy="32.096" r="5.468" gradientTransform="matrix(1 0 0 1.4184 0 -13.43)" gradientUnits="userSpaceOnUse"><stop offset="0" stop-color="#eb8c50"/><stop offset=".994" stop-color="#8a2d0d"/></radialGradient><path fill="url(#9kZfOF8UQ7VynZjUaYyV1e)" d="M19,34c0,3.9,3,7,5,7s5-3.1,5-7s-1-7-5-7S19,30.1,19,34z"/><path fill="#4a2115" d="M13.108,4.359c0.176-0.322,0.579-0.441,0.901-0.266c1.217,0.663,2.062,1.716,2.675,2.808	c0.307,0.551,0.559,1.121,0.777,1.701c0.162,0.442,0.296,0.884,0.413,1.342c0.545-0.08,1.078-0.124,1.624-0.116	c0.704,0.009,1.412,0.101,2.1,0.288c0.201,0.055,0.328,0.259,0.283,0.466c-0.046,0.214-0.257,0.35-0.47,0.304l-0.009-0.002	c-0.618-0.133-1.257-0.185-1.898-0.16c-0.633,0.021-1.297,0.111-1.882,0.261c-0.265,0.068-0.536-0.091-0.605-0.356l-0.006-0.023	c-0.138-0.527-0.337-1.084-0.557-1.605c-0.224-0.524-0.479-1.034-0.774-1.51c-0.588-0.95-1.354-1.77-2.267-2.211L13.4,5.274	c-0.009-0.004-0.018-0.009-0.027-0.014C13.051,5.085,12.932,4.681,13.108,4.359z"/><path fill="#4a2115" d="M34.892,4.359c-0.176-0.322-0.579-0.441-0.901-0.266c-1.217,0.663-2.062,1.716-2.675,2.808	c-0.307,0.551-0.559,1.121-0.777,1.701c-0.162,0.442-0.296,0.884-0.413,1.342c-0.545-0.08-1.078-0.124-1.624-0.116	c-0.704,0.009-1.412,0.101-2.1,0.288c-0.201,0.055-0.328,0.259-0.283,0.466c0.046,0.214,0.257,0.35,0.47,0.304l0.009-0.002	c0.618-0.133,1.257-0.185,1.898-0.16c0.633,0.021,1.297,0.111,1.882,0.261c0.265,0.068,0.536-0.091,0.605-0.356l0.006-0.023	c0.138-0.527,0.337-1.084,0.557-1.605c0.224-0.524,0.479-1.034,0.774-1.51c0.588-0.95,1.354-1.77,2.267-2.211L34.6,5.274	c0.009-0.004,0.018-0.009,0.027-0.014C34.949,5.085,35.068,4.681,34.892,4.359z"/></svg>