<svg xmlns="http://www.w3.org/2000/svg" viewBox="0 0 48 48"><radialGradient id="w_Ndcfl8lfIQdXPuEVshRa" cx="24.014" cy="-24.027" r="17.604" gradientTransform="matrix(1 .0014 -.0008 .4401 -.02 39.578)" gradientUnits="userSpaceOnUse"><stop offset=".913" stop-color="#3b6375"/><stop offset=".999" stop-color="#3b6375"/><stop offset="1" stop-color="#3b6375"/></radialGradient><path fill="url(#w_Ndcfl8lfIQdXPuEVshRa)" d="M38.126,26.339c0,3.706-5.862,12.107-13.656,12.107S9.902,30.044,9.902,26.339 c0-1.262,0.421-2.905,1.696-3.914c2.468-1.952,7.277-2.796,12.416-2.796C31.808,19.629,38.126,22.633,38.126,26.339z"/><radialGradient id="w_Ndcfl8lfIQdXPuEVshRb" cx="24.151" cy="30.426" r="12.788" gradientTransform="matrix(.9999 -.0161 .0162 1.0038 -.49 .273)" gradientUnits="userSpaceOnUse"><stop offset=".237" stop-color="#dceaf0"/><stop offset=".42" stop-color="#d8e8ef"/><stop offset=".607" stop-color="#cce2ec"/><stop offset=".795" stop-color="#b7d9e7"/><stop offset=".983" stop-color="#9bcbe1"/><stop offset="1" stop-color="#98cae0"/></radialGradient><path fill="url(#w_Ndcfl8lfIQdXPuEVshRb)" d="M24,32.451l-1.574-1.81l-1.835,2.213l-1.209-2.572c-0.463-0.084-0.919-0.18-1.365-0.29 l-1.564,1.539l-1.585-2.617l-1.784,0.934l-0.975-2.729l-1.191,0.999c0,0-0.656-3.886-0.656-5.009 c-0.427,0.907-0.537,2.659-0.537,4.062c0,9.362,6.391,16.951,14.275,16.951s14.275-7.589,14.275-16.951 c0-1.403-0.076-3.294-0.508-4.062c0,1.358-0.928,5.462-0.928,5.462l-1.04-1.348c-0.501,0.451-1.083,0.858-1.729,1.22l-0.38,2.294 l-2.448-1.095l-1.457,2.682l-2.637-1.823c-0.728,0.087-1.466,0.143-2.204,0.169L24,32.451z"/><linearGradient id="w_Ndcfl8lfIQdXPuEVshRc" x1="17.513" x2="2.348" y1="24.819" y2="12.223" gradientUnits="userSpaceOnUse"><stop offset="0" stop-color="#c15105"/><stop offset=".121" stop-color="#ce6d0c"/><stop offset=".382" stop-color="#f0b51e"/><stop offset=".487" stop-color="#ffd426"/><stop offset=".599" stop-color="#ffd62f"/><stop offset=".786" stop-color="#ffda49"/><stop offset="1" stop-color="#ffe16e"/></linearGradient><path fill="url(#w_Ndcfl8lfIQdXPuEVshRc)" d="M8.046,15.392c0,0,4.198,5.038,10.076,4.198v7.557C18.122,27.148,7.206,28.827,8.046,15.392z"/><linearGradient id="w_Ndcfl8lfIQdXPuEVshRd" x1="-280.542" x2="-295.707" y1="24.819" y2="12.223" gradientTransform="matrix(-1 0 0 1 -250.055 0)" gradientUnits="userSpaceOnUse"><stop offset="0" stop-color="#c15105"/><stop offset=".121" stop-color="#ce6d0c"/><stop offset=".382" stop-color="#f0b51e"/><stop offset=".487" stop-color="#ffd426"/><stop offset=".599" stop-color="#ffd62f"/><stop offset=".786" stop-color="#ffda49"/><stop offset="1" stop-color="#ffe16e"/></linearGradient><path fill="url(#w_Ndcfl8lfIQdXPuEVshRd)" d="M39.954,15.392c0,0-4.198,5.038-10.076,4.198v7.557 C29.878,27.148,40.794,28.827,39.954,15.392z"/><radialGradient id="w_Ndcfl8lfIQdXPuEVshRe" cx="23.926" cy="25.188" r="8.856" gradientTransform="matrix(1 .0016 -.0017 1.0695 .044 -1.79)" gradientUnits="userSpaceOnUse"><stop offset="0" stop-color="#ffe16e"/><stop offset=".252" stop-color="#ffd941"/><stop offset=".43" stop-color="#ffd426"/><stop offset=".57" stop-color="#fdcd23"/><stop offset=".776" stop-color="#f8b919"/><stop offset="1" stop-color="#f09c0c"/></radialGradient><path fill="url(#w_Ndcfl8lfIQdXPuEVshRe)" d="M16.453,31.531l1.564-1.539c0.446,0.11,0.902,0.206,1.364,0.29l1.209,2.572l1.835-2.213 L24,32.451l0.945-1.78c0.738-0.026,1.476-0.082,2.204-0.169l2.637,1.823l1.457-2.683l2.448,1.096l0.38-2.294 c0.246-0.138,0.472-0.288,0.699-0.439c-0.823-5.615-5.324-9.913-10.769-9.913c-6.029,0-10.916,5.263-10.916,11.756l1.784-0.934 L16.453,31.531z"/><radialGradient id="w_Ndcfl8lfIQdXPuEVshRf" cx="24.056" cy="14.395" r="8.887" fx="24.009" fy="10.588" gradientUnits="userSpaceOnUse"><stop offset="0" stop-color="#ffe16e"/><stop offset=".365" stop-color="#ffd941"/><stop offset=".623" stop-color="#ffd426"/><stop offset=".695" stop-color="#fdcd23"/><stop offset=".801" stop-color="#f8b919"/><stop offset=".916" stop-color="#f09c0c"/></radialGradient><path fill="url(#w_Ndcfl8lfIQdXPuEVshRf)" d="M31.495,12.591c-1.168-3.035-2.501-4.981-4.405-5.914c0.376-0.818-0.242-1.591-0.242-1.591 c-0.211,1.124-0.935,1.159-0.935,1.159c0.569-1.384-0.428-2.368-0.428-2.368c-0.169,1.827-1.096,2.066-1.096,2.066 c0.548-0.787,0.112-1.743,0.112-1.743c-0.476,1.023-1.448,1.799-2.4,2.041c-2.565,0.653-4.199,2.717-5.596,6.349 C14.832,16.937,15.549,22.888,24,22.888S33.168,16.937,31.495,12.591z"/><radialGradient id="w_Ndcfl8lfIQdXPuEVshRg" cx="24" cy="16.547" r="2.422" gradientTransform="matrix(.9999 -.0161 .0133 .8273 -.218 3.246)" gradientUnits="userSpaceOnUse"><stop offset=".529" stop-color="#630f03"/><stop offset=".651" stop-color="#691003"/><stop offset=".811" stop-color="#791204"/><stop offset=".992" stop-color="#951605"/><stop offset="1" stop-color="#961605"/></radialGradient><path fill="url(#w_Ndcfl8lfIQdXPuEVshRg)" d="M24.206,16.391c-0.07,0-0.138-0.004-0.206-0.008c-0.068,0.004-0.137,0.008-0.206,0.008 c-1.458,0-2.37-1.012-2.37,0c0,1.012,0.859,2.518,2.576,2.518s2.576-1.505,2.576-2.518C26.576,15.378,25.664,16.391,24.206,16.391 z"/><radialGradient id="w_Ndcfl8lfIQdXPuEVshRh" cx="-42.862" cy="16.095" r="2.554" fx="-42.876" fy="15.001" gradientTransform="matrix(.8783 0 0 1 61.647 0)" gradientUnits="userSpaceOnUse"><stop offset="0" stop-color="#ff9b52"/><stop offset=".477" stop-color="#e44723"/><stop offset=".776" stop-color="#d41708"/></radialGradient><path fill="url(#w_Ndcfl8lfIQdXPuEVshRh)" d="M24,13.987c-0.937,0-2.576,1.517-2.576,2.375c0,0.904,2.576,1.841,2.576,1.841 s2.576-0.937,2.576-1.841C26.576,15.504,24.937,13.987,24,13.987z"/><radialGradient id="w_Ndcfl8lfIQdXPuEVshRi" cx="19.55" cy="13.279" r="2.511" gradientTransform="matrix(0 -1 .7762 0 9.243 32.828)" gradientUnits="userSpaceOnUse"><stop offset=".834" stop-color="#f5a300"/><stop offset="1" stop-color="#a8591c" stop-opacity="0"/></radialGradient><ellipse cx="19.55" cy="13.284" fill="url(#w_Ndcfl8lfIQdXPuEVshRi)" rx="1.982" ry="2.548"/><radialGradient id="w_Ndcfl8lfIQdXPuEVshRj" cx="28.45" cy="13.279" r="2.511" gradientTransform="matrix(0 -1 .7762 0 18.144 41.73)" gradientUnits="userSpaceOnUse"><stop offset=".834" stop-color="#f5a300"/><stop offset="1" stop-color="#a8591c" stop-opacity="0"/></radialGradient><ellipse cx="28.45" cy="13.284" fill="url(#w_Ndcfl8lfIQdXPuEVshRj)" rx="1.982" ry="2.548"/><radialGradient id="w_Ndcfl8lfIQdXPuEVshRk" cx="19.55" cy="13.28" r="2.077" gradientTransform="matrix(0 -1 .7116 0 10.1 32.83)" gradientUnits="userSpaceOnUse"><stop offset=".413" stop-color="#a8591c"/><stop offset=".75" stop-color="#54230b"/><stop offset=".961" stop-color="#240401"/></radialGradient><ellipse cx="19.55" cy="13.284" fill="url(#w_Ndcfl8lfIQdXPuEVshRk)" rx="1.64" ry="2.108"/><ellipse cx="19.55" cy="13.284" rx=".665" ry=".998"/><circle cx="18.98" cy="12.595" r=".291" fill="#fff"/><radialGradient id="w_Ndcfl8lfIQdXPuEVshRl" cx="28.45" cy="13.28" r="2.077" gradientTransform="matrix(0 -1 .7116 0 19 41.73)" gradientUnits="userSpaceOnUse"><stop offset=".413" stop-color="#a8591c"/><stop offset=".75" stop-color="#54230b"/><stop offset=".961" stop-color="#240401"/></radialGradient><ellipse cx="28.45" cy="13.284" fill="url(#w_Ndcfl8lfIQdXPuEVshRl)" rx="1.64" ry="2.108"/><ellipse cx="28.45" cy="13.284" rx=".665" ry=".998"/><circle cx="27.881" cy="12.595" r=".291" fill="#fff"/></svg>