<svg xmlns="http://www.w3.org/2000/svg" viewBox="0 0 48 48"><path fill="#6e3c15" d="M17.763,43.852l4.591-8.256c0.205-0.368,0.669-0.501,1.037-0.296 c0.368,0.205,0.501,0.669,0.296,1.037c-0.013,0.023-0.027,0.045-0.041,0.066l-5.409,7.744c-0.088,0.126-0.262,0.157-0.389,0.069 C17.729,44.134,17.695,43.976,17.763,43.852z"/><path fill="#6e2c19" d="M22.353,9.838C22.298,9.69,22.087,9.351,21.91,9.11c-0.178-0.267-0.366-0.534-0.559-0.796 l-1.157-1.585l0.048,0.053c-1.776-1.516-4.285-2.479-6.585-1.872c-1.143,0.288-2.194,0.918-3.073,1.742 C9.699,7.476,8.974,8.47,8.331,9.51c-1.265,2.103-2.167,4.426-2.893,6.791c-0.738,2.366-1.297,4.789-1.782,7.227 c-0.016,0.086-0.098,0.142-0.184,0.126c-0.084-0.016-0.14-0.098-0.127-0.182c0.424-2.458,0.924-4.908,1.609-7.317 c0.702-2.4,1.591-4.767,2.869-6.952c0.652-1.081,1.393-2.127,2.325-3.016c0.925-0.888,2.066-1.599,3.338-1.935 c1.268-0.355,2.636-0.271,3.874,0.108c1.251,0.382,2.381,1.005,3.399,1.858c0.016,0.014,0.031,0.029,0.043,0.046l0.005,0.007 c0.39,0.542,0.781,1.076,1.137,1.643c0.176,0.284,0.35,0.57,0.513,0.868c0.146,0.329,0.321,0.552,0.388,1.056 c0.017,0.128-0.073,0.245-0.2,0.262c-0.11,0.015-0.213-0.05-0.25-0.15L22.353,9.838z"/><path fill="#6e3c15" d="M20.445,16.555l-2.853-3.147c-0.214-0.236-0.196-0.602,0.04-0.816c0.222-0.201,0.558-0.196,0.776,0 l3.147,2.853c0.322,0.292,0.346,0.789,0.055,1.111c-0.292,0.322-0.789,0.346-1.111,0.055 C20.48,16.593,20.462,16.574,20.445,16.555z"/><path fill="#6e3c15" d="M18.9,10.868l-0.476,2.145c-0.05,0.224-0.272,0.366-0.496,0.316 c-0.195-0.043-0.328-0.218-0.326-0.41l0.022-2.197c0.004-0.356,0.295-0.643,0.652-0.639c0.356,0.004,0.643,0.295,0.639,0.652 C18.915,10.779,18.909,10.826,18.9,10.868z"/><path fill="#6e3c15" d="M17.827,10.729l-0.842-2.073c-0.112-0.277,0.021-0.592,0.297-0.704 c0.277-0.112,0.592,0.021,0.704,0.297c0.012,0.03,0.022,0.063,0.028,0.094l0.455,2.19c0.038,0.182-0.079,0.361-0.262,0.399 C18.046,10.966,17.887,10.877,17.827,10.729z"/><path fill="#6e3c15" d="M20.321,21.845l-3.891,3.54c-0.237,0.216-0.604,0.198-0.819-0.039 c-0.188-0.207-0.199-0.514-0.04-0.731l3.093-4.255c0.363-0.5,1.063-0.611,1.563-0.247c0.5,0.363,0.611,1.063,0.247,1.563 C20.429,21.736,20.375,21.796,20.321,21.845z"/><path fill="#6e3c15" d="M14.619,23.261l1.624,1.361c0.176,0.148,0.199,0.41,0.052,0.586 c-0.128,0.153-0.342,0.19-0.511,0.102l-1.878-0.981c-0.316-0.165-0.439-0.555-0.273-0.871s0.555-0.439,0.871-0.273 C14.545,23.205,14.585,23.233,14.619,23.261z"/><path fill="#6e3c15" d="M14.305,23.929l-1.554,1.048c-0.248,0.167-0.585,0.102-0.752-0.146 c-0.167-0.248-0.102-0.584,0.146-0.752c0.032-0.022,0.069-0.04,0.103-0.054l1.743-0.69c0.174-0.069,0.37,0.016,0.439,0.19 C14.49,23.674,14.434,23.842,14.305,23.929z"/><path fill="#6e3c15" d="M21.377,29.052l-7.843,4.628c-0.416,0.245-0.952,0.107-1.198-0.309 c-0.211-0.358-0.138-0.806,0.153-1.08l6.62-6.253c0.762-0.72,1.963-0.685,2.683,0.077c0.72,0.762,0.685,1.963-0.077,2.683 C21.613,28.894,21.493,28.982,21.377,29.052z"/><path fill="#6e3c15" d="M14.857,35.293l-2.105-2.007c-0.166-0.158-0.172-0.421-0.014-0.586 c0.143-0.15,0.371-0.169,0.536-0.055l2.393,1.652c0.293,0.202,0.366,0.603,0.164,0.896c-0.202,0.293-0.603,0.366-0.896,0.164 C14.909,35.338,14.881,35.315,14.857,35.293z"/><path fill="#6e3c15" d="M15.395,34.859l-2.5,3.006c-0.19,0.229-0.53,0.26-0.759,0.07s-0.26-0.53-0.07-0.759 c0.012-0.014,0.025-0.028,0.038-0.041l2.797-2.731c0.133-0.13,0.346-0.127,0.476,0.006C15.499,34.533,15.503,34.729,15.395,34.859 z"/><path fill="#6e3c15" d="M23.721,47l-0.483-9c-0.023-0.421,0.3-0.78,0.721-0.802c0.421-0.023,0.78,0.3,0.802,0.721 c0.001,0.027,0.001,0.055,0,0.082l-0.483,9c-0.008,0.154-0.14,0.272-0.294,0.264C23.842,47.256,23.729,47.14,23.721,47z"/><path fill="#6e3c15" d="M29.763,44.148l-5.409-7.744c-0.241-0.345-0.157-0.821,0.188-1.062 c0.345-0.241,0.821-0.157,1.062,0.188c0.015,0.021,0.029,0.044,0.041,0.066l4.591,8.256c0.075,0.135,0.026,0.305-0.108,0.38 C30.002,44.302,29.845,44.263,29.763,44.148z"/><radialGradient id="WaeNw5o5Ce0WMMQ_X7Ae1a" cx="23.97" cy="23.528" r="15.294" gradientUnits="userSpaceOnUse"><stop offset=".39" stop-color="#805636"/><stop offset=".539" stop-color="#cc966c"/><stop offset=".579" stop-color="#805636"/><stop offset=".713" stop-color="#cc966c"/><stop offset=".745" stop-color="#805636"/><stop offset=".847" stop-color="#cc966c"/><stop offset=".879" stop-color="#805636"/><stop offset=".953" stop-color="#cc966c"/><stop offset=".967" stop-color="#9f704c"/><stop offset=".98" stop-color="#764e2f"/><stop offset=".991" stop-color="#5d391e"/><stop offset=".998" stop-color="#543117"/></radialGradient><ellipse cx="23.97" cy="31.044" fill="url(#WaeNw5o5Ce0WMMQ_X7Ae1a)" rx="3.468" ry="7.559"/><radialGradient id="WaeNw5o5Ce0WMMQ_X7Ae1b" cx="23.97" cy="31.044" r="3.951" gradientTransform="matrix(1 0 0 2.0757 0 -33.393)" gradientUnits="userSpaceOnUse"><stop offset=".418" stop-opacity="0"/><stop offset=".915" stop-opacity=".513"/><stop offset="1" stop-opacity=".6"/></radialGradient><ellipse cx="23.97" cy="31.044" fill="url(#WaeNw5o5Ce0WMMQ_X7Ae1b)" rx="3.468" ry="7.559"/><path fill="#6e2c19" d="M25.155,9.838c0.068-0.505,0.242-0.728,0.388-1.056c0.163-0.298,0.336-0.584,0.513-0.868 c0.356-0.566,0.747-1.1,1.137-1.643l0.004-0.006c0.013-0.017,0.028-0.034,0.044-0.047c1.018-0.852,2.148-1.476,3.399-1.858 c1.238-0.379,2.606-0.463,3.874-0.108c1.272,0.336,2.413,1.048,3.338,1.935c0.932,0.889,1.673,1.935,2.325,3.016 c1.278,2.185,2.166,4.552,2.869,6.952c0.685,2.409,1.185,4.858,1.609,7.317c0.015,0.086-0.043,0.167-0.128,0.182 c-0.084,0.015-0.165-0.043-0.182-0.127c-0.485-2.438-1.044-4.861-1.782-7.227c-0.726-2.365-1.629-4.688-2.893-6.791 c-0.643-1.04-1.368-2.034-2.252-2.858c-0.879-0.824-1.93-1.454-3.073-1.742c-2.3-0.606-4.809,0.356-6.585,1.872l0.048-0.053 l-1.157,1.585c-0.194,0.263-0.382,0.529-0.559,0.796c-0.177,0.24-0.387,0.58-0.442,0.728L25.606,9.95 c-0.045,0.121-0.179,0.182-0.3,0.137C25.201,10.049,25.141,9.943,25.155,9.838z"/><path fill="#6e3c15" d="M26.445,15.445l3.147-2.853c0.236-0.214,0.602-0.196,0.816,0.04c0.201,0.222,0.196,0.558,0,0.776 l-2.853,3.147c-0.292,0.322-0.789,0.346-1.111,0.055c-0.322-0.292-0.346-0.789-0.055-1.111 C26.407,15.48,26.426,15.462,26.445,15.445z"/><path fill="#6e3c15" d="M30.375,10.722l0.022,2.197c0.002,0.23-0.182,0.418-0.412,0.42c-0.2,0.002-0.368-0.138-0.41-0.326 L29.1,10.868c-0.077-0.348,0.142-0.693,0.49-0.77c0.348-0.077,0.693,0.142,0.77,0.49C30.37,10.632,30.375,10.679,30.375,10.722z"/><path fill="#6e3c15" d="M29.53,10.534l0.455-2.19c0.061-0.292,0.347-0.48,0.639-0.419c0.292,0.061,0.48,0.347,0.419,0.639 c-0.007,0.032-0.017,0.065-0.028,0.094l-0.842,2.073c-0.07,0.173-0.267,0.256-0.44,0.186C29.58,10.853,29.497,10.69,29.53,10.534z"/><path fill="#6e3c15" d="M29.337,20.36l3.093,4.255c0.188,0.259,0.131,0.622-0.128,0.81 c-0.226,0.165-0.532,0.141-0.731-0.04l-3.891-3.54c-0.457-0.416-0.491-1.124-0.075-1.581s1.124-0.491,1.581-0.075 C29.241,20.241,29.294,20.301,29.337,20.36z"/><path fill="#6e3c15" d="M34.094,24.329l-1.878,0.981c-0.204,0.106-0.455,0.027-0.561-0.176 c-0.092-0.176-0.045-0.389,0.102-0.511l1.624-1.361c0.273-0.229,0.681-0.193,0.91,0.08c0.229,0.273,0.193,0.681-0.08,0.91 C34.175,24.281,34.134,24.308,34.094,24.329z"/><path fill="#6e3c15" d="M34.008,23.334l1.743,0.69c0.278,0.11,0.414,0.425,0.304,0.703 c-0.11,0.278-0.425,0.414-0.703,0.304c-0.036-0.014-0.072-0.034-0.103-0.054l-1.554-1.048c-0.155-0.104-0.196-0.314-0.091-0.469 C33.694,23.325,33.864,23.277,34.008,23.334z"/><path fill="#6e3c15" d="M28.891,26.037l6.62,6.253c0.351,0.332,0.367,0.885,0.035,1.236 c-0.286,0.302-0.736,0.356-1.08,0.153l-7.843-4.628c-0.903-0.533-1.203-1.696-0.67-2.599c0.533-0.903,1.696-1.203,2.599-0.67 C28.674,25.854,28.792,25.945,28.891,26.037z"/><path fill="#6e3c15" d="M32.332,34.297l2.393-1.652c0.189-0.13,0.447-0.083,0.577,0.106c0.118,0.17,0.09,0.398-0.055,0.536 l-2.105,2.007c-0.257,0.245-0.665,0.236-0.91-0.022c-0.245-0.257-0.236-0.665,0.022-0.91 C32.278,34.338,32.306,34.315,32.332,34.297z"/><path fill="#6e3c15" d="M33.098,34.403l2.797,2.731c0.213,0.208,0.217,0.549,0.009,0.762 c-0.208,0.213-0.549,0.217-0.762,0.009c-0.013-0.013-0.026-0.027-0.038-0.041l-2.5-3.006c-0.119-0.143-0.099-0.355,0.044-0.474 C32.782,34.275,32.977,34.285,33.098,34.403z"/><radialGradient id="WaeNw5o5Ce0WMMQ_X7Ae1c" cx="24.021" cy="25.844" r="6.218" gradientTransform="matrix(1 0 0 1.925 0 -26.461)" gradientUnits="userSpaceOnUse"><stop offset=".119" stop-color="#db9056"/><stop offset=".994" stop-color="#663612"/></radialGradient><path fill="url(#WaeNw5o5Ce0WMMQ_X7Ae1c)" d="M19,23.5c0,5.293,2,11.5,5,9.5c3,2,5-4.207,5-9.5S28,14,24,14S19,18.207,19,23.5z"/><radialGradient id="WaeNw5o5Ce0WMMQ_X7Ae1d" cx="24.036" cy="23.871" r="7.212" gradientTransform="matrix(1 0 0 .7945 0 -2.236)" gradientUnits="userSpaceOnUse"><stop offset=".119" stop-color="#db9056"/><stop offset=".994" stop-color="#663612"/></radialGradient><path fill="url(#WaeNw5o5Ce0WMMQ_X7Ae1d)" d="M19,17.921c0,2.184,1,3.079,5,3.921c4-0.842,5-1.736,5-3.921S28,14,24,14S19,15.736,19,17.921	z"/><radialGradient id="WaeNw5o5Ce0WMMQ_X7Ae1e" cx="24.013" cy="11.516" r="2.813" gradientTransform="matrix(1 0 0 1.8912 0 -10.425)" gradientUnits="userSpaceOnUse"><stop offset="0" stop-color="#db9056"/><stop offset=".994" stop-color="#7a3906"/></radialGradient><path fill="url(#WaeNw5o5Ce0WMMQ_X7Ae1e)" d="M27,12c0,2.209-1.343,3-3,3s-3-0.791-3-3s1.343-4,3-4S27,9.791,27,12z"/><radialGradient id="WaeNw5o5Ce0WMMQ_X7Ae1f" cx="25.018" cy="10.894" r="2.081" fx="23.957" fy="10.896" gradientTransform="matrix(0 .8 -.1642 0 28.298 -8.999)" gradientUnits="userSpaceOnUse"><stop offset="0" stop-color="#666"/><stop offset=".318" stop-color="#494949"/><stop offset="1"/></radialGradient><ellipse cx="26.5" cy="11" fill="url(#WaeNw5o5Ce0WMMQ_X7Ae1f)" rx=".5" ry="1"/><radialGradient id="WaeNw5o5Ce0WMMQ_X7Ae1g" cx="15.018" cy="10.894" r="2.081" fx="13.957" fy="10.896" gradientTransform="matrix(0 .8 -.1642 0 23.298 -.999)" gradientUnits="userSpaceOnUse"><stop offset="0" stop-color="#666"/><stop offset=".318" stop-color="#494949"/><stop offset="1"/></radialGradient><ellipse cx="21.5" cy="11" fill="url(#WaeNw5o5Ce0WMMQ_X7Ae1g)" rx=".5" ry="1"/><linearGradient id="WaeNw5o5Ce0WMMQ_X7Ae1h" x1="24" x2="24" y1="15" y2="32.831" gradientUnits="userSpaceOnUse"><stop offset=".351" stop-opacity="0"/><stop offset=".97" stop-opacity=".572"/><stop offset="1" stop-opacity=".6"/></linearGradient><path fill="url(#WaeNw5o5Ce0WMMQ_X7Ae1h)" d="M24,33c0.24,0.16,0.47,0.25,0.697,0.309l-0.371-0.697L24,15l-0.328,17.612l-0.37,0.697	C23.529,33.25,23.76,33.16,24,33z"/></svg>