<svg xmlns="http://www.w3.org/2000/svg" viewBox="0 0 48 48"><radialGradient id="X5WcLIYH7foJaM6w0h2dSa" cx="24.051" cy="13.66" r="18.951" fx="21.028" fy="13.693" gradientTransform="matrix(0 1 -.7232 0 33.93 -10.391)" gradientUnits="userSpaceOnUse"><stop offset="0" stop-color="#397d17"/><stop offset=".232" stop-color="#47961f"/><stop offset=".487" stop-color="#51aa26"/><stop offset=".744" stop-color="#58b62a"/><stop offset="1" stop-color="#5aba2b"/></radialGradient><path fill="url(#X5WcLIYH7foJaM6w0h2dSa)" d="M39.351,19.362C39.767,18.34,40,17.202,40,16c0-4.418-3.134-8-7-8c-3.99,0-4.286,3-9,3	s-5.03-3-9-3c-3.866,0-7,3.582-7,8c0,1.202,0.233,2.34,0.649,3.362C6.364,21.508,4,24.142,4,27c0,4,9.507,7,20,7s20-4,20-7	C44,24.142,41.636,21.508,39.351,19.362z"/><radialGradient id="X5WcLIYH7foJaM6w0h2dSb" cx="23.865" cy="28.122" r="11.24" gradientTransform="matrix(1.1257 0 0 .8642 -3 3.818)" gradientUnits="userSpaceOnUse"><stop offset="0" stop-color="#cbf7d5" stop-opacity=".8"/><stop offset="1" stop-color="#cbf7d5" stop-opacity="0"/></radialGradient><ellipse cx="23.865" cy="28.122" fill="url(#X5WcLIYH7foJaM6w0h2dSb)" rx="12.653" ry="9.714"/><ellipse cx="34" cy="16" fill="#74f792" opacity=".031" rx="5.909" ry="6.909"/><ellipse cx="34" cy="16" fill="#74f792" opacity=".062" rx="5.818" ry="6.818"/><ellipse cx="34" cy="16" fill="#74f792" opacity=".093" rx="5.727" ry="6.727"/><ellipse cx="34" cy="16" fill="#74f792" opacity=".124" rx="5.636" ry="6.636"/><ellipse cx="34" cy="16" fill="#74f792" opacity=".154" rx="5.545" ry="6.545"/><ellipse cx="34" cy="16" fill="#74f792" opacity=".185" rx="5.455" ry="6.455"/><ellipse cx="34" cy="16" fill="#74f792" opacity=".216" rx="5.364" ry="6.364"/><ellipse cx="34" cy="16" fill="#74f792" opacity=".247" rx="5.273" ry="6.273"/><ellipse cx="34" cy="16" fill="#74f792" opacity=".278" rx="5.182" ry="6.182"/><ellipse cx="34" cy="16" fill="#74f792" opacity=".309" rx="5.091" ry="6.091"/><ellipse cx="34" cy="16" fill="#74f792" opacity=".34" rx="5" ry="6"/><radialGradient id="X5WcLIYH7foJaM6w0h2dSc" cx="34" cy="16" r="4.347" gradientTransform="matrix(1.1581 0 0 1.3488 -5.377 -5.58)" gradientUnits="userSpaceOnUse"><stop offset=".85" stop-opacity=".8"/><stop offset="1" stop-opacity="0"/></radialGradient><ellipse cx="34" cy="16" fill="url(#X5WcLIYH7foJaM6w0h2dSc)" opacity=".4" rx="5" ry="6"/><path fill="#a4c274" d="M24,31c-10.493,0-20-4-20-4c0,5.823,10.651,10.471,12.404,11.189C18.237,38.94,21.028,41,24,41 s5.763-2.06,7.596-2.811C33.349,37.471,44,32.823,44,27C44,27,34.493,31,24,31z"/><path fill="#a5c375" d="M24,31.005c-10.455,0-19.927-3.978-19.927-3.978c0,5.791,10.612,10.413,12.358,11.127 c1.826,0.747,4.608,2.795,7.569,2.795s5.742-2.048,7.569-2.795c1.746-0.714,12.358-5.336,12.358-11.127 C43.927,27.027,34.455,31.005,24,31.005z"/><path fill="#a5c376" d="M24,31.01c-10.417,0-19.854-3.955-19.854-3.955c0,5.758,10.573,10.354,12.313,11.064 c1.82,0.743,4.591,2.78,7.541,2.78s5.721-2.037,7.541-2.78c1.739-0.71,12.313-5.306,12.313-11.064 C43.854,27.054,34.417,31.01,24,31.01z"/><path fill="#a6c477" d="M24,31.014c-10.378,0-19.78-3.933-19.78-3.933c0,5.726,10.534,10.296,12.267,11.002 c1.813,0.739,4.574,2.764,7.513,2.764s5.7-2.025,7.513-2.764c1.733-0.706,12.267-5.276,12.267-11.002 C43.78,27.081,34.378,31.014,24,31.014z"/><path fill="#a7c478" d="M24,31.019c-10.34,0-19.707-3.911-19.707-3.911c0,5.693,10.495,10.238,12.222,10.94 c1.806,0.734,4.557,2.748,7.485,2.748s5.679-2.014,7.485-2.748c1.727-0.702,12.222-5.247,12.222-10.94 C43.707,27.108,34.34,31.019,24,31.019z"/><path fill="#a8c579" d="M24,31.024c-10.301,0-19.634-3.889-19.634-3.889c0,5.661,10.456,10.179,12.176,10.877 c1.799,0.73,4.54,2.733,7.457,2.733s5.658-2.002,7.457-2.733c1.72-0.698,12.176-5.217,12.176-10.877 C43.634,27.135,34.301,31.024,24,31.024z"/><path fill="#a8c57a" d="M24,31.029c-10.263,0-19.561-3.866-19.561-3.866c0,5.628,10.417,10.121,12.131,10.815 c1.793,0.726,4.523,2.717,7.43,2.717s5.637-1.991,7.43-2.717c1.714-0.694,12.131-5.187,12.131-10.815 C43.561,27.162,34.263,31.029,24,31.029z"/><path fill="#a9c67b" d="M24,31.033c-10.224,0-19.487-3.844-19.487-3.844c0,5.596,10.378,10.063,12.086,10.753 c1.786,0.722,4.506,2.701,7.402,2.701s5.616-1.979,7.402-2.701c1.707-0.69,12.086-5.157,12.086-10.753 C43.487,27.189,34.224,31.033,24,31.033z"/><path fill="#aac67c" d="M24,31.038c-10.186,0-19.414-3.822-19.414-3.822c0,5.563,10.339,10.004,12.04,10.69 c1.779,0.718,4.489,2.686,7.374,2.686s5.595-1.968,7.374-2.686c1.701-0.686,12.04-5.127,12.04-10.69 C43.414,27.216,34.186,31.038,24,31.038z"/><path fill="#aac77d" d="M24,31.043c-10.148,0-19.341-3.799-19.341-3.799c0,5.531,10.3,9.946,11.995,10.628 c1.773,0.714,4.472,2.67,7.346,2.67s5.573-1.956,7.346-2.67c1.694-0.682,11.995-5.097,11.995-10.628 C43.341,27.243,34.148,31.043,24,31.043z"/><path fill="#abc77e" d="M24,31.048c-10.109,0-19.268-3.777-19.268-3.777c0,5.499,10.261,9.888,11.949,10.566 c1.766,0.709,4.455,2.654,7.318,2.654s5.552-1.945,7.318-2.654c1.688-0.678,11.949-5.067,11.949-10.566 C43.268,27.27,34.109,31.048,24,31.048z"/><path fill="#acc87f" d="M24,31.052c-10.071,0-19.194-3.755-19.194-3.755c0,5.466,10.222,9.829,11.904,10.503 c1.759,0.705,4.438,2.639,7.29,2.639s5.531-1.933,7.29-2.639c1.682-0.674,11.904-5.037,11.904-10.503 C43.194,27.297,34.071,31.052,24,31.052z"/><path fill="#adc980" d="M24,31.057c-10.032,0-19.121-3.733-19.121-3.733c0,5.434,10.183,9.771,11.858,10.441 c1.752,0.701,4.421,2.623,7.263,2.623s5.51-1.922,7.263-2.623c1.675-0.67,11.858-5.007,11.858-10.441 C43.121,27.325,34.032,31.057,24,31.057z"/><path fill="#adc981" d="M24,31.062c-9.994,0-19.048-3.71-19.048-3.71c0,5.401,10.144,9.712,11.813,10.379 c1.746,0.697,4.404,2.607,7.235,2.607s5.489-1.91,7.235-2.607c1.669-0.666,11.813-4.977,11.813-10.379 C43.048,27.352,33.994,31.062,24,31.062z"/><path fill="#aeca82" d="M24,31.067c-9.955,0-18.975-3.688-18.975-3.688c0,5.369,10.105,9.654,11.768,10.316 c1.739,0.693,4.388,2.592,7.207,2.592s5.468-1.899,7.207-2.592c1.662-0.662,11.768-4.948,11.768-10.316 C42.975,27.379,33.955,31.067,24,31.067z"/><path fill="#afca83" d="M24,31.071c-9.917,0-18.901-3.666-18.901-3.666c0,5.336,10.066,9.596,11.722,10.254 c1.732,0.688,4.371,2.576,7.179,2.576s5.447-1.887,7.179-2.576c1.656-0.658,11.722-4.918,11.722-10.254 C42.901,27.406,33.917,31.071,24,31.071z"/><path fill="#afcb84" d="M24,31.076c-9.879,0-18.828-3.643-18.828-3.643c0,5.304,10.027,9.537,11.677,10.192 c1.726,0.684,4.354,2.56,7.151,2.56s5.426-1.876,7.151-2.56c1.65-0.654,11.677-4.888,11.677-10.192 C42.828,27.433,33.879,31.076,24,31.076z"/><path fill="#b0cb85" d="M24,31.081c-9.84,0-18.755-3.621-18.755-3.621c0,5.271,9.988,9.479,11.631,10.129 c1.719,0.68,4.337,2.545,7.124,2.545s5.405-1.865,7.124-2.545c1.643-0.65,11.631-4.858,11.631-10.129 C42.755,27.46,33.84,31.081,24,31.081z"/><path fill="#b1cc86" d="M24,31.086c-9.802,0-18.682-3.599-18.682-3.599c0,5.239,9.949,9.421,11.586,10.067 c1.712,0.676,4.32,2.529,7.096,2.529s5.384-1.853,7.096-2.529c1.637-0.646,11.586-4.828,11.586-10.067 C42.682,27.487,33.802,31.086,24,31.086z"/><path fill="#b2cc87" d="M24,31.09c-9.763,0-18.608-3.577-18.608-3.577c0,5.206,9.91,9.362,11.541,10.005 c1.705,0.672,4.303,2.513,7.068,2.513s5.362-1.842,7.068-2.513c1.63-0.642,11.541-4.798,11.541-10.005 C42.608,27.514,33.763,31.09,24,31.09z"/><path fill="#b2cd88" d="M24,31.095c-9.725,0-18.535-3.554-18.535-3.554c0,5.174,9.871,9.304,11.495,9.942 c1.699,0.668,4.286,2.498,7.04,2.498s5.341-1.83,7.04-2.498c1.624-0.638,11.495-4.768,11.495-9.942 C42.535,27.541,33.725,31.095,24,31.095z"/><path fill="#b3cd89" d="M24,31.1c-9.686,0-18.462-3.532-18.462-3.532c0,5.142,9.832,9.246,11.45,9.88 C18.68,38.111,21.257,39.93,24,39.93s5.32-1.819,7.012-2.482c1.617-0.634,11.45-4.738,11.45-9.88 C42.462,27.568,33.686,31.1,24,31.1z"/><path fill="#b4ce8a" d="M24,31.105c-9.648,0-18.389-3.51-18.389-3.51c0,5.109,9.793,9.187,11.404,9.817 c1.685,0.659,4.252,2.466,6.984,2.466s5.299-1.807,6.984-2.466c1.611-0.63,11.404-4.708,11.404-9.817 C42.389,27.595,33.648,31.105,24,31.105z"/><path fill="#b4cf8b" d="M24,31.109c-9.61,0-18.315-3.487-18.315-3.487c0,5.077,9.754,9.129,11.359,9.755 c1.679,0.655,4.235,2.451,6.957,2.451s5.278-1.796,6.957-2.451c1.605-0.626,11.359-4.678,11.359-9.755 C42.315,27.622,33.61,31.109,24,31.109z"/><path fill="#b5cf8c" d="M24,31.114c-9.571,0-18.242-3.465-18.242-3.465c0,5.044,9.715,9.071,11.313,9.693 c1.672,0.651,4.218,2.435,6.929,2.435s5.257-1.784,6.929-2.435c1.598-0.622,11.313-4.649,11.313-9.693 C42.242,27.649,33.571,31.114,24,31.114z"/><path fill="#b6d08d" d="M24,31.119c-9.533,0-18.169-3.443-18.169-3.443c0,5.012,9.676,9.012,11.268,9.63 c1.665,0.647,4.201,2.419,6.901,2.419s5.236-1.773,6.901-2.419c1.592-0.618,11.268-4.619,11.268-9.63 C42.169,27.676,33.533,31.119,24,31.119z"/><path fill="#b7d08e" d="M24,31.124c-9.494,0-18.096-3.42-18.096-3.42c0,4.979,9.637,8.954,11.223,9.568 c1.658,0.642,4.184,2.404,6.873,2.404s5.215-1.761,6.873-2.404c1.585-0.614,11.223-4.589,11.223-9.568 C42.096,27.703,33.494,31.124,24,31.124z"/><path fill="#b7d18f" d="M24,31.128c-9.456,0-18.022-3.398-18.022-3.398c0,4.947,9.598,8.896,11.177,9.506 c1.652,0.638,4.167,2.388,6.845,2.388s5.194-1.75,6.845-2.388c1.579-0.61,11.177-4.559,11.177-9.506 C42.022,27.73,33.456,31.128,24,31.128z"/><path fill="#b8d190" d="M24,31.133c-9.417,0-17.949-3.376-17.949-3.376c0,4.914,9.559,8.837,11.132,9.443 c1.645,0.634,4.15,2.372,6.818,2.372s5.172-1.738,6.818-2.372c1.573-0.606,11.132-4.529,11.132-9.443 C41.949,27.757,33.417,31.133,24,31.133z"/><path fill="#b9d291" d="M24,31.138c-9.379,0-17.876-3.354-17.876-3.354c0,4.882,9.52,8.779,11.086,9.381 c1.638,0.63,4.133,2.357,6.79,2.357s5.151-1.727,6.79-2.357c1.566-0.602,11.086-4.499,11.086-9.381 C41.876,27.784,33.379,31.138,24,31.138z"/><path fill="#b9d292" d="M24,31.143c-9.341,0-17.803-3.331-17.803-3.331c0,4.85,9.481,8.721,11.041,9.319 c1.632,0.626,4.117,2.341,6.762,2.341s5.13-1.715,6.762-2.341c1.56-0.598,11.041-4.469,11.041-9.319 C41.803,27.811,33.341,31.143,24,31.143z"/><path fill="#bad393" d="M24,31.147c-9.302,0-17.73-3.309-17.73-3.309c0,4.817,9.442,8.662,10.995,9.256 c1.625,0.621,4.1,2.325,6.734,2.325s5.109-1.704,6.734-2.325c1.553-0.594,10.995-4.439,10.995-9.256 C41.73,27.838,33.302,31.147,24,31.147z"/><path fill="#bbd394" d="M24,31.152c-9.264,0-17.656-3.287-17.656-3.287c0,4.785,9.403,8.604,10.95,9.194 c1.618,0.617,4.083,2.31,6.706,2.31s5.088-1.692,6.706-2.31c1.547-0.59,10.95-4.409,10.95-9.194 C41.656,27.865,33.264,31.152,24,31.152z"/><path fill="#bcd495" d="M24,31.157c-9.225,0-17.583-3.264-17.583-3.264c0,4.752,9.364,8.546,10.905,9.132 c1.611,0.613,4.066,2.294,6.678,2.294s5.067-1.681,6.678-2.294c1.54-0.586,10.905-4.379,10.905-9.132 C41.583,27.892,33.225,31.157,24,31.157z"/><path fill="#bcd596" d="M24,31.162c-9.187,0-17.51-3.242-17.51-3.242c0,4.72,9.325,8.487,10.859,9.069 c1.605,0.609,4.049,2.278,6.651,2.278s5.046-1.669,6.651-2.278c1.534-0.582,10.859-4.349,10.859-9.069 C41.51,27.919,33.187,31.162,24,31.162z"/><path fill="#bdd597" d="M24,31.166c-9.148,0-17.437-3.22-17.437-3.22c0,4.687,9.286,8.429,10.814,9.007 c1.598,0.605,4.032,2.263,6.623,2.263s5.025-1.658,6.623-2.263c1.528-0.578,10.814-4.32,10.814-9.007 C41.437,27.947,33.148,31.166,24,31.166z"/><path fill="#bed698" d="M24,31.171c-9.11,0-17.363-3.198-17.363-3.198c0,4.655,9.247,8.371,10.768,8.945 c1.591,0.601,4.015,2.247,6.595,2.247s5.004-1.646,6.595-2.247c1.521-0.574,10.768-4.29,10.768-8.945 C41.363,27.974,33.11,31.171,24,31.171z"/><path fill="#bed699" d="M24,31.176c-9.072,0-17.29-3.175-17.29-3.175c0,4.622,9.208,8.312,10.723,8.882 c1.585,0.596,3.998,2.231,6.567,2.231s4.983-1.635,6.567-2.231c1.515-0.57,10.723-4.26,10.723-8.882 C41.29,28.001,33.072,31.176,24,31.176z"/><path fill="#bfd79a" d="M24,31.181c-9.033,0-17.217-3.153-17.217-3.153c0,4.59,9.169,8.254,10.677,8.82 c1.578,0.592,3.981,2.216,6.539,2.216s4.961-1.624,6.539-2.216c1.508-0.566,10.677-4.23,10.677-8.82 C41.217,28.028,33.033,31.181,24,31.181z"/><path fill="#c0d79b" d="M24,31.185c-8.995,0-17.144-3.131-17.144-3.131c0,4.558,9.13,8.195,10.632,8.758 c1.571,0.588,3.964,2.2,6.512,2.2s4.94-1.612,6.512-2.2c1.502-0.562,10.632-4.2,10.632-8.758 C41.144,28.055,32.995,31.185,24,31.185z"/><path fill="#c1d89c" d="M24,31.19c-8.956,0-17.07-3.108-17.07-3.108c0,4.525,9.091,8.137,10.587,8.695 c1.565,0.584,3.947,2.184,6.484,2.184s4.919-1.601,6.484-2.184c1.496-0.558,10.587-4.17,10.587-8.695 C41.07,28.082,32.956,31.19,24,31.19z"/><path fill="#c1d89d" d="M24,31.195c-8.918,0-16.997-3.086-16.997-3.086c0,4.493,9.052,8.079,10.541,8.633 c1.558,0.58,3.93,2.169,6.456,2.169s4.898-1.589,6.456-2.169c1.489-0.554,10.541-4.14,10.541-8.633 C40.997,28.109,32.918,31.195,24,31.195z"/><path fill="#c2d99e" d="M24,31.2c-8.879,0-16.924-3.064-16.924-3.064c0,4.46,9.013,8.02,10.496,8.57 c1.551,0.575,3.913,2.153,6.428,2.153s4.877-1.578,6.428-2.153c1.483-0.55,10.496-4.11,10.496-8.57 C40.924,28.136,32.879,31.2,24,31.2z"/><path fill="#c3d99f" d="M24,31.204c-8.841,0-16.851-3.042-16.851-3.042c0,4.428,8.974,7.962,10.45,8.508 c1.544,0.571,3.896,2.137,6.4,2.137s4.856-1.566,6.4-2.137c1.476-0.546,10.45-4.08,10.45-8.508 C40.851,28.163,32.841,31.204,24,31.204z"/><path fill="#c4daa0" d="M24,31.209c-8.803,0-16.777-3.019-16.777-3.019c0,4.395,8.935,7.904,10.405,8.446 c1.538,0.567,3.879,2.122,6.372,2.122s4.835-1.555,6.372-2.122c1.47-0.542,10.405-4.05,10.405-8.446 C40.777,28.19,32.803,31.209,24,31.209z"/><path fill="#c4dba0" d="M24,31.214c-8.764,0-16.704-2.997-16.704-2.997c0,4.363,8.896,7.845,10.36,8.383 c1.531,0.563,3.863,2.106,6.345,2.106s4.814-1.543,6.345-2.106c1.463-0.538,10.36-4.021,10.36-8.383 C40.704,28.217,32.764,31.214,24,31.214z"/><path fill="#c5dba1" d="M24,31.219c-8.726,0-16.631-2.975-16.631-2.975c0,4.33,8.857,7.787,10.314,8.321 c1.524,0.559,3.846,2.09,6.317,2.09s4.793-1.532,6.317-2.09c1.457-0.534,10.314-3.991,10.314-8.321 C40.631,28.244,32.726,31.219,24,31.219z"/><path fill="#c6dca2" d="M24,31.223c-8.687,0-16.558-2.952-16.558-2.952c0,4.298,8.818,7.729,10.269,8.259 c1.518,0.554,3.829,2.075,6.289,2.075s4.771-1.52,6.289-2.075c1.451-0.53,10.269-3.961,10.269-8.259 C40.558,28.271,32.687,31.223,24,31.223z"/><path fill="#c6dca3" d="M24,31.228c-8.649,0-16.484-2.93-16.484-2.93c0,4.266,8.779,7.67,10.223,8.196 c1.511,0.55,3.812,2.059,6.261,2.059s4.75-1.509,6.261-2.059c1.444-0.526,10.223-3.931,10.223-8.196 C40.484,28.298,32.649,31.228,24,31.228z"/><path fill="#c7dda4" d="M24,31.233c-8.61,0-16.411-2.908-16.411-2.908c0,4.233,8.74,7.612,10.178,8.134 c1.504,0.546,3.795,2.043,6.233,2.043s4.729-1.497,6.233-2.043c1.438-0.522,10.178-3.901,10.178-8.134 C40.411,28.325,32.61,31.233,24,31.233z"/><path fill="#c8dda5" d="M24,31.238c-8.572,0-16.338-2.886-16.338-2.886c0,4.201,8.701,7.554,10.132,8.072 c1.497,0.542,3.778,2.028,6.205,2.028s4.708-1.486,6.205-2.028c1.431-0.518,10.132-3.871,10.132-8.072 C40.338,28.352,32.572,31.238,24,31.238z"/><path fill="#c9dea6" d="M24,31.242c-8.534,0-16.265-2.863-16.265-2.863c0,4.168,8.662,7.495,10.087,8.009 c1.491,0.538,3.761,2.012,6.178,2.012s4.687-1.474,6.178-2.012c1.425-0.514,10.087-3.841,10.087-8.009 C40.265,28.379,32.534,31.242,24,31.242z"/><path fill="#c9dea7" d="M24,31.247c-8.495,0-16.191-2.841-16.191-2.841c0,4.136,8.623,7.437,10.042,7.947 c1.484,0.534,3.744,1.996,6.15,1.996s4.666-1.463,6.15-1.996c1.419-0.51,10.042-3.811,10.042-7.947 C40.191,28.406,32.495,31.247,24,31.247z"/><path fill="#cadfa8" d="M24,31.252c-8.457,0-16.118-2.819-16.118-2.819c0,4.103,8.584,7.379,9.996,7.885 c1.477,0.529,3.727,1.981,6.122,1.981s4.645-1.451,6.122-1.981c1.412-0.506,9.996-3.781,9.996-7.885 C40.118,28.433,32.457,31.252,24,31.252z"/><path fill="#cbdfa9" d="M24,31.257c-8.418,0-16.045-2.796-16.045-2.796c0,4.071,8.545,7.32,9.951,7.822 c1.471,0.525,3.71,1.965,6.094,1.965s4.624-1.44,6.094-1.965c1.406-0.502,9.951-3.751,9.951-7.822 C40.045,28.46,32.418,31.257,24,31.257z"/><path fill="#cbe0aa" d="M24,31.262c-8.38,0-15.972-2.774-15.972-2.774c0,4.038,8.506,7.262,9.905,7.76 c1.464,0.521,3.693,1.949,6.066,1.949s4.603-1.428,6.066-1.949c1.399-0.498,9.905-3.722,9.905-7.76 C39.972,28.487,32.38,31.262,24,31.262z"/><path fill="#cce1ab" d="M24,31.266c-8.341,0-15.898-2.752-15.898-2.752c0,4.006,8.467,7.204,9.86,7.698 c1.457,0.517,3.676,1.934,6.039,1.934s4.581-1.417,6.039-1.934c1.393-0.494,9.86-3.692,9.86-7.698 C39.898,28.514,32.341,31.266,24,31.266z"/><path fill="#cde1ac" d="M24,31.271c-8.303,0-15.825-2.73-15.825-2.73c0,3.974,8.428,7.145,9.814,7.635 c1.45,0.513,3.659,1.918,6.011,1.918s4.56-1.405,6.011-1.918c1.386-0.49,9.814-3.662,9.814-7.635 C39.825,28.542,32.303,31.271,24,31.271z"/><path fill="#cee2ad" d="M24,31.276c-8.265,0-15.752-2.707-15.752-2.707c0,3.941,8.389,7.087,9.769,7.573 c1.444,0.508,3.642,1.902,5.983,1.902s4.539-1.394,5.983-1.902c1.38-0.486,9.769-3.632,9.769-7.573 C39.752,28.569,32.265,31.276,24,31.276z"/><path fill="#cee2ae" d="M24,31.281c-8.226,0-15.679-2.685-15.679-2.685c0,3.909,8.35,7.029,9.724,7.511 c1.437,0.504,3.625,1.887,5.955,1.887s4.518-1.382,5.955-1.887c1.374-0.482,9.724-3.602,9.724-7.511 C39.679,28.596,32.226,31.281,24,31.281z"/><path fill="#cfe3af" d="M24,31.285c-8.188,0-15.606-2.663-15.606-2.663c0,3.876,8.311,6.97,9.678,7.448 c1.43,0.5,3.608,1.871,5.927,1.871s4.497-1.371,5.927-1.871c1.367-0.478,9.678-3.572,9.678-7.448 C39.606,28.623,32.188,31.285,24,31.285z"/><path fill="#d0e3b0" d="M24,31.29c-8.149,0-15.532-2.64-15.532-2.64c0,3.844,8.272,6.912,9.633,7.386 c1.424,0.496,3.592,1.855,5.899,1.855s4.476-1.36,5.899-1.855c1.361-0.474,9.633-3.542,9.633-7.386 C39.532,28.65,32.149,31.29,24,31.29z"/><path fill="#d0e4b1" d="M24,31.295c-8.111,0-15.459-2.618-15.459-2.618c0,3.811,8.233,6.853,9.587,7.324 c1.417,0.492,3.575,1.84,5.872,1.84s4.455-1.348,5.872-1.84c1.354-0.47,9.587-3.512,9.587-7.324 C39.459,28.677,32.111,31.295,24,31.295z"/><path fill="#d1e4b2" d="M24,31.3c-8.072,0-15.386-2.596-15.386-2.596c0,3.779,8.194,6.795,9.542,7.261 c1.41,0.488,3.558,1.824,5.844,1.824s4.434-1.337,5.844-1.824c1.348-0.466,9.542-3.482,9.542-7.261 C39.386,28.704,32.072,31.3,24,31.3z"/><path fill="#d2e5b3" d="M24,31.304c-8.034,0-15.313-2.573-15.313-2.573c0,3.746,8.155,6.737,9.497,7.199 c1.403,0.483,3.541,1.808,5.816,1.808s4.413-1.325,5.816-1.808c1.342-0.462,9.497-3.452,9.497-7.199 C39.313,28.731,32.034,31.304,24,31.304z"/><path fill="#d3e5b4" d="M24,31.309c-7.996,0-15.239-2.551-15.239-2.551c0,3.714,8.116,6.678,9.451,7.136 c1.397,0.479,3.524,1.793,5.788,1.793s4.392-1.314,5.788-1.793c1.335-0.458,9.451-3.423,9.451-7.136 C39.239,28.758,31.996,31.309,24,31.309z"/><path fill="#d3e6b5" d="M24,31.314c-7.957,0-15.166-2.529-15.166-2.529c0,3.681,8.077,6.62,9.406,7.074 c1.39,0.475,3.507,1.777,5.76,1.777s4.37-1.302,5.76-1.777c1.329-0.454,9.406-3.393,9.406-7.074 C39.166,28.785,31.957,31.314,24,31.314z"/><path fill="#d4e7b6" d="M24,31.319c-7.919,0-15.093-2.507-15.093-2.507c0,3.649,8.038,6.562,9.36,7.012 c1.383,0.471,3.49,1.761,5.733,1.761s4.349-1.291,5.733-1.761c1.322-0.45,9.36-3.363,9.36-7.012 C39.093,28.812,31.919,31.319,24,31.319z"/><path fill="#d5e7b7" d="M24,31.323c-7.88,0-15.02-2.484-15.02-2.484c0,3.617,7.999,6.503,9.315,6.949 c1.377,0.467,3.473,1.746,5.705,1.746s4.328-1.279,5.705-1.746c1.316-0.446,9.315-3.333,9.315-6.949 C39.02,28.839,31.88,31.323,24,31.323z"/><path fill="#d5e8b8" d="M24,31.328c-7.842,0-14.946-2.462-14.946-2.462c0,3.584,7.96,6.445,9.269,6.887 c1.37,0.462,3.456,1.73,5.677,1.73s4.307-1.268,5.677-1.73c1.309-0.442,9.269-3.303,9.269-6.887 C38.946,28.866,31.842,31.328,24,31.328z"/><path fill="#d6e8b9" d="M24,31.333c-7.803,0-14.873-2.44-14.873-2.44c0,3.552,7.921,6.387,9.224,6.825 c1.363,0.458,3.439,1.714,5.649,1.714s4.286-1.256,5.649-1.714c1.303-0.438,9.224-3.273,9.224-6.825 C38.873,28.893,31.803,31.333,24,31.333z"/><path fill="#d7e9ba" d="M24,31.338c-7.765,0-14.8-2.417-14.8-2.417c0,3.519,7.882,6.328,9.179,6.762 c1.356,0.454,3.422,1.699,5.621,1.699s4.265-1.245,5.621-1.699c1.297-0.434,9.179-3.243,9.179-6.762 C38.8,28.92,31.765,31.338,24,31.338z"/><path fill="#d8e9bb" d="M24,31.342c-7.727,0-14.727-2.395-14.727-2.395c0,3.487,7.843,6.27,9.133,6.7 c1.35,0.45,3.405,1.683,5.593,1.683s4.244-1.233,5.593-1.683c1.29-0.43,9.133-3.213,9.133-6.7 C38.727,28.947,31.727,31.342,24,31.342z"/><path fill="#d8eabc" d="M24,31.347c-7.688,0-14.653-2.373-14.653-2.373c0,3.454,7.804,6.212,9.088,6.638 c1.343,0.446,3.388,1.667,5.566,1.667s4.223-1.222,5.566-1.667c1.284-0.426,9.088-3.183,9.088-6.638 C38.653,28.974,31.688,31.347,24,31.347z"/><path fill="#d9eabd" d="M24,31.352c-7.65,0-14.58-2.351-14.58-2.351c0,3.422,7.765,6.153,9.042,6.575 c1.336,0.441,3.371,1.652,5.538,1.652s4.202-1.21,5.538-1.652c1.277-0.422,9.042-3.153,9.042-6.575 C38.58,29.001,31.65,31.352,24,31.352z"/><path fill="#daebbe" d="M24,31.357c-7.611,0-14.507-2.328-14.507-2.328c0,3.389,7.726,6.095,8.997,6.513 c1.33,0.437,3.354,1.636,5.51,1.636s4.18-1.199,5.51-1.636c1.271-0.418,8.997-3.124,8.997-6.513 C38.507,29.028,31.611,31.357,24,31.357z"/><path fill="#daebbf" d="M24,31.361c-7.573,0-14.434-2.306-14.434-2.306c0,3.357,7.687,6.037,8.951,6.451 c1.323,0.433,3.338,1.62,5.482,1.62s4.159-1.187,5.482-1.62c1.265-0.414,8.951-3.094,8.951-6.451 C38.434,29.055,31.573,31.361,24,31.361z"/><path fill="#dbecc0" d="M24,31.366c-7.534,0-14.36-2.284-14.36-2.284c0,3.325,7.648,5.978,8.906,6.388 c1.316,0.429,3.321,1.605,5.454,1.605s4.138-1.176,5.454-1.605c1.258-0.41,8.906-3.064,8.906-6.388 C38.36,29.082,31.534,31.366,24,31.366z"/><path fill="#dcedc1" d="M24,31.371c-7.496,0-14.287-2.261-14.287-2.261c0,3.292,7.609,5.92,8.861,6.326 c1.309,0.425,3.304,1.589,5.427,1.589s4.117-1.164,5.427-1.589c1.252-0.406,8.861-3.034,8.861-6.326 C38.287,29.109,31.496,31.371,24,31.371z"/><path fill="#ddedc2" d="M24,31.376c-7.458,0-14.214-2.239-14.214-2.239c0,3.26,7.57,5.862,8.815,6.264 c1.303,0.421,3.287,1.573,5.399,1.573s4.096-1.153,5.399-1.573c1.245-0.402,8.815-3.004,8.815-6.264 C38.214,29.136,31.458,31.376,24,31.376z"/><path fill="#ddeec3" d="M24,31.38c-7.419,0-14.141-2.217-14.141-2.217c0,3.227,7.531,5.803,8.77,6.201 c1.296,0.416,3.27,1.558,5.371,1.558s4.075-1.141,5.371-1.558c1.239-0.398,8.77-2.974,8.77-6.201 C38.141,29.164,31.419,31.38,24,31.38z"/><path fill="#deeec4" d="M24,31.385c-7.381,0-14.067-2.195-14.067-2.195c0,3.195,7.492,5.745,8.724,6.139 c1.289,0.412,3.253,1.542,5.343,1.542s4.054-1.13,5.343-1.542c1.232-0.394,8.724-2.944,8.724-6.139 C38.067,29.191,31.381,31.385,24,31.385z"/><path fill="#dfefc5" d="M24,31.39c-7.342,0-13.994-2.172-13.994-2.172c0,3.162,7.453,5.687,8.679,6.077 c1.283,0.408,3.236,1.526,5.315,1.526s4.033-1.119,5.315-1.526c1.226-0.39,8.679-2.914,8.679-6.077 C37.994,29.218,31.342,31.39,24,31.39z"/><path fill="#dfefc6" d="M24,31.395c-7.304,0-13.921-2.15-13.921-2.15c0,3.13,7.414,5.628,8.633,6.014 c1.276,0.404,3.219,1.511,5.287,1.511s4.012-1.107,5.287-1.511c1.22-0.386,8.633-2.884,8.633-6.014 C37.921,29.245,31.304,31.395,24,31.395z"/><path fill="#e0f0c7" d="M24,31.399c-7.265,0-13.848-2.128-13.848-2.128c0,3.097,7.375,5.57,8.588,5.952 c1.269,0.4,3.202,1.495,5.26,1.495s3.991-1.096,5.26-1.495c1.213-0.382,8.588-2.854,8.588-5.952 C37.848,29.272,31.265,31.399,24,31.399z"/><path fill="#e1f0c8" d="M24,31.404c-7.227,0-13.774-2.105-13.774-2.105c0,3.065,7.336,5.511,8.543,5.889 c1.262,0.395,3.185,1.48,5.232,1.48s3.969-1.084,5.232-1.48c1.207-0.378,8.543-2.825,8.543-5.889 C37.774,29.299,31.227,31.404,24,31.404z"/><path fill="#e2f1c9" d="M24,31.409c-7.189,0-13.701-2.083-13.701-2.083c0,3.033,7.297,5.453,8.497,5.827 c1.256,0.391,3.168,1.464,5.204,1.464s3.948-1.073,5.204-1.464c1.2-0.374,8.497-2.795,8.497-5.827 C37.701,29.326,31.189,31.409,24,31.409z"/><path fill="#e2f1ca" d="M24,31.414c-7.15,0-13.628-2.061-13.628-2.061c0,3,7.258,5.395,8.452,5.765 c1.249,0.387,3.151,1.448,5.176,1.448s3.927-1.061,5.176-1.448c1.194-0.37,8.452-2.765,8.452-5.765 C37.628,29.353,31.15,31.414,24,31.414z"/><path fill="#e3f2cb" d="M24,31.418c-7.112,0-13.555-2.039-13.555-2.039c0,2.968,7.219,5.336,8.406,5.702 c1.242,0.383,3.134,1.433,5.148,1.433s3.906-1.05,5.148-1.433c1.188-0.366,8.406-2.735,8.406-5.702 C37.555,29.38,31.112,31.418,24,31.418z"/><radialGradient id="X5WcLIYH7foJaM6w0h2dSd" cx="23.932" cy="26.684" r="13.429" gradientTransform="matrix(1 0 0 .5355 0 12.396)" gradientUnits="userSpaceOnUse"><stop offset=".887" stop-color="#fff"/><stop offset="1" stop-color="#fff" stop-opacity="0"/></radialGradient><path fill="url(#X5WcLIYH7foJaM6w0h2dSd)" d="M24,31c-6.019,0-11.006-2-16.169-2.628C13.87,30.731,15.546,34,24,34	s9.928-3.141,16.169-5.628C35.006,29,30.019,31,24,31z"/><radialGradient id="X5WcLIYH7foJaM6w0h2dSe" cx="24.2" cy="28.198" r="11.362" gradientTransform="matrix(1.1006 0 0 1 -2.415 0)" gradientUnits="userSpaceOnUse"><stop offset="0" stop-color="#1c1911"/><stop offset=".999" stop-color="#171714"/></radialGradient><path fill="url(#X5WcLIYH7foJaM6w0h2dSe)" d="M24,31c-6.019,0-11.006-2.022-16.169-2.65c8.464,2.628,12.022,4.03,16.169,4.03	s7.704-1.403,16.169-4.031C35.006,28.976,30.019,31,24,31z"/><radialGradient id="X5WcLIYH7foJaM6w0h2dSf" cx="33.645" cy="16.236" r="4.231" gradientTransform="matrix(.9657 0 0 1.1864 1.507 -3.262)" gradientUnits="userSpaceOnUse"><stop offset=".024" stop-color="#fcff87"/><stop offset=".18" stop-color="#fcfc83"/><stop offset=".351" stop-color="#fcf275"/><stop offset=".528" stop-color="#fde160"/><stop offset=".709" stop-color="#feca41"/><stop offset=".892" stop-color="#fead1a"/><stop offset="1" stop-color="#f90"/></radialGradient><ellipse cx="34" cy="16" fill="url(#X5WcLIYH7foJaM6w0h2dSf)" rx="4" ry="5"/><radialGradient id="X5WcLIYH7foJaM6w0h2dSg" cx="27.5" cy="26" r=".901" gradientTransform="matrix(1.064 0 0 1.686 -1.76 -17.836)" gradientUnits="userSpaceOnUse"><stop offset=".631" stop-color="#cbf7d5" stop-opacity=".7"/><stop offset="1" stop-color="#cbf7d5" stop-opacity="0"/></radialGradient><ellipse cx="27.5" cy="26" fill="url(#X5WcLIYH7foJaM6w0h2dSg)" rx=".986" ry="1.578"/><radialGradient id="X5WcLIYH7foJaM6w0h2dSh" cx="20.921" cy="26" r=".901" gradientTransform="matrix(1.064 0 0 1.686 -1.76 -17.836)" gradientUnits="userSpaceOnUse"><stop offset=".631" stop-color="#cbf7d5" stop-opacity=".7"/><stop offset="1" stop-color="#cbf7d5" stop-opacity="0"/></radialGradient><ellipse cx="20.5" cy="26" fill="url(#X5WcLIYH7foJaM6w0h2dSh)" rx=".986" ry="1.578"/><ellipse cx="27.5" cy="26" fill="#212121" rx=".5" ry="1"/><ellipse cx="20.5" cy="26" fill="#212121" rx=".5" ry="1"/><radialGradient id="X5WcLIYH7foJaM6w0h2dSi" cx="34" cy="16" r="1.224" gradientTransform="matrix(1 0 0 2.907 0 -30.513)" gradientUnits="userSpaceOnUse"><stop offset="0" stop-color="#3d3d3d"/><stop offset="1" stop-color="#212121"/></radialGradient><ellipse cx="34" cy="16" fill="url(#X5WcLIYH7foJaM6w0h2dSi)" rx="1.219" ry="3.583"/><g><ellipse cx="14" cy="16" fill="#74f792" opacity=".031" rx="5.909" ry="6.909"/><ellipse cx="14" cy="16" fill="#74f792" opacity=".062" rx="5.818" ry="6.818"/><ellipse cx="14" cy="16" fill="#74f792" opacity=".093" rx="5.727" ry="6.727"/><ellipse cx="14" cy="16" fill="#74f792" opacity=".124" rx="5.636" ry="6.636"/><ellipse cx="14" cy="16" fill="#74f792" opacity=".154" rx="5.545" ry="6.545"/><ellipse cx="14" cy="16" fill="#74f792" opacity=".185" rx="5.455" ry="6.455"/><ellipse cx="14" cy="16" fill="#74f792" opacity=".216" rx="5.364" ry="6.364"/><ellipse cx="14" cy="16" fill="#74f792" opacity=".247" rx="5.273" ry="6.273"/><ellipse cx="14" cy="16" fill="#74f792" opacity=".278" rx="5.182" ry="6.182"/><ellipse cx="14" cy="16" fill="#74f792" opacity=".309" rx="5.091" ry="6.091"/><ellipse cx="14" cy="16" fill="#74f792" opacity=".34" rx="5" ry="6"/></g><radialGradient id="X5WcLIYH7foJaM6w0h2dSj" cx="16.731" cy="16" r="4.347" gradientTransform="matrix(1.1581 0 0 1.3488 -5.377 -5.58)" gradientUnits="userSpaceOnUse"><stop offset=".85" stop-opacity=".8"/><stop offset="1" stop-opacity="0"/></radialGradient><ellipse cx="14" cy="16" fill="url(#X5WcLIYH7foJaM6w0h2dSj)" opacity=".4" rx="5" ry="6"/><radialGradient id="X5WcLIYH7foJaM6w0h2dSk" cx="12.936" cy="16.236" r="4.231" gradientTransform="matrix(.9657 0 0 1.1864 1.507 -3.262)" gradientUnits="userSpaceOnUse"><stop offset=".024" stop-color="#fcff87"/><stop offset=".18" stop-color="#fcfc83"/><stop offset=".351" stop-color="#fcf275"/><stop offset=".528" stop-color="#fde160"/><stop offset=".709" stop-color="#feca41"/><stop offset=".892" stop-color="#fead1a"/><stop offset="1" stop-color="#f90"/></radialGradient><ellipse cx="14" cy="16" fill="url(#X5WcLIYH7foJaM6w0h2dSk)" rx="4" ry="5"/><radialGradient id="X5WcLIYH7foJaM6w0h2dSl" cx="14" cy="16" r="1.224" gradientTransform="matrix(1 0 0 2.907 0 -30.513)" gradientUnits="userSpaceOnUse"><stop offset="0" stop-color="#3d3d3d"/><stop offset="1" stop-color="#212121"/></radialGradient><ellipse cx="14" cy="16" fill="url(#X5WcLIYH7foJaM6w0h2dSl)" rx="1.219" ry="3.583"/><circle cx="13" cy="14" r="1" fill="#fff"/><circle cx="33" cy="14" r="1" fill="#fff"/><radialGradient id="X5WcLIYH7foJaM6w0h2dSm" cx="24" cy="23.928" r="9.021" gradientTransform="matrix(.877 0 0 .9659 2.952 4.837)" gradientUnits="userSpaceOnUse"><stop offset=".371" stop-color="#719636"/><stop offset="1" stop-color="#889636" stop-opacity="0"/></radialGradient><path fill="url(#X5WcLIYH7foJaM6w0h2dSm)" d="M24,34c-4.561,0-6.993-1.613-6.993-1.613S19.133,37,24,37s6.993-4.613,6.993-4.613	S28.561,34,24,34z"/></svg>