<svg xmlns="http://www.w3.org/2000/svg" viewBox="0 0 48 48"><path fill="#6B402A" d="M45,44c0-2-1-4-2.16-5.05C42.07,33.22,38.57,27.54,30.63,26H17.37C9.43,27.54,5.93,33.22,5.16,38.95	C4,40,3,42,3,44h29h5H45z"/><radialGradient id="F35Sbi4rwCCl4lh45hcqla" cx="23.965" cy="42.064" r="9.397" gradientTransform="matrix(1 0 0 1.3209 0 -13.497)" gradientUnits="userSpaceOnUse"><stop offset="0" stop-color="#c28b65"/><stop offset=".242" stop-color="#bf8863" stop-opacity=".758"/><stop offset=".448" stop-color="#b47f5c" stop-opacity=".552"/><stop offset=".641" stop-color="#a37050" stop-opacity=".359"/><stop offset=".825" stop-color="#8a5b3f" stop-opacity=".175"/><stop offset="1" stop-color="#6b402a" stop-opacity="0"/></radialGradient><path fill="url(#F35Sbi4rwCCl4lh45hcqla)" d="M29,31c-0.01-0.01-9.99-0.01-10,0c-0.11,0.34-1.04,5.91-4.25,8.02C15,39,14,44,14,44h20 c0,0-1-5-0.75-4.98C30.04,36.91,29.11,31.34,29,31z"/><linearGradient id="F35Sbi4rwCCl4lh45hcqlb" x1="22" x2="24" y1="-42.885" y2="-42.885" gradientTransform="matrix(1 0 0 1.4458 0 100.502)" gradientUnits="userSpaceOnUse"><stop offset="0" stop-color="#ad7955" stop-opacity="0"/><stop offset="1" stop-color="#a76b47"/><stop offset="1" stop-color="#865034"/></linearGradient><polygon fill="url(#F35Sbi4rwCCl4lh45hcqlb)" points="22,44 24,44 24,33 22,33"/><linearGradient id="F35Sbi4rwCCl4lh45hcqlc" x1="-456" x2="-454" y1="-371.427" y2="-371.427" gradientTransform="matrix(-1 0 0 -1.4458 -430 -498.502)" gradientUnits="userSpaceOnUse"><stop offset="0" stop-color="#ad7955" stop-opacity="0"/><stop offset="1" stop-color="#a76b47"/><stop offset="1" stop-color="#865034"/></linearGradient><polygon fill="url(#F35Sbi4rwCCl4lh45hcqlc)" points="26,33 24,33 24,44 26,44"/><radialGradient id="F35Sbi4rwCCl4lh45hcqld" cx="-401.339" cy="41.36" r="2.384" gradientTransform="matrix(-1 0 0 .789 -396 8.728)" gradientUnits="userSpaceOnUse"><stop offset="0" stop-color="#814d32"/><stop offset="1" stop-color="#834e33" stop-opacity="0"/></radialGradient><path fill="url(#F35Sbi4rwCCl4lh45hcqld)" d="M3,44h10c0,0-7-5-7.84-5.04C4,40,3,42,3,44z"/><radialGradient id="F35Sbi4rwCCl4lh45hcqle" cx="11.103" cy="31.609" r="4.784" gradientTransform="matrix(.7447 .6674 -1.1674 1.3028 39.736 -16.98)" gradientUnits="userSpaceOnUse"><stop offset="0" stop-color="#865034"/><stop offset="1" stop-color="#663d28" stop-opacity="0"/></radialGradient><path fill="url(#F35Sbi4rwCCl4lh45hcqle)" d="M5.16,38.95C5.93,33.22,9.43,27.54,17.37,26C17.37,26,16,37,5.16,38.95z"/><radialGradient id="F35Sbi4rwCCl4lh45hcqlf" cx="-490.352" cy="31.609" r="4.784" gradientTransform="matrix(-.7447 .6674 1.1674 1.3028 -365.2 317.674)" gradientUnits="userSpaceOnUse"><stop offset="0" stop-color="#865034"/><stop offset="1" stop-color="#663d28" stop-opacity="0"/></radialGradient><path fill="url(#F35Sbi4rwCCl4lh45hcqlf)" d="M42.825,38.95c-0.77-5.73-4.27-11.41-12.21-12.95C30.615,26,31.985,37,42.825,38.95z"/><path fill="#6B402A" d="M16,44l-0.483-3.953c0-0.649-0.922-1.953-2.054-0.072C12.144,42.167,12,44,12,44H16z"/><path fill="#683D28" d="M15.806,44l-0.434-3.614c0-0.594-0.827-1.786-1.843-0.066C12.345,42.324,12.216,44,12.216,44H15.806z"/><path fill="#663B27" d="M15.612,44l-0.384-3.275c0-0.538-0.733-1.618-1.633-0.06C12.546,42.481,12.432,44,12.432,44H15.612z"/><path fill="#633825" d="M15.418,44l-0.335-2.936c0-0.482-0.638-1.451-1.422-0.053C12.748,42.638,12.649,44,12.649,44H15.418z"/><path fill="#613623" d="M15.224,44l-0.285-2.597c0-0.427-0.544-1.283-1.211-0.047C12.949,42.795,12.865,44,12.865,44H15.224z"/><path fill="#5E3321" d="M15.03,44l-0.235-2.259c0-0.371-0.449-1.116-1.001-0.041c-0.643,1.252-0.713,2.3-0.713,2.3H15.03z"/><path fill="#5C3120" d="M14.836,44l-0.186-1.92c0-0.315-0.355-0.949-0.79-0.035C13.352,43.11,13.297,44,13.297,44H14.836z"/><path fill="#592E1E" d="M14.642,44l-0.136-1.581c0-0.26-0.26-0.781-0.58-0.029C13.554,43.267,13.513,44,13.513,44H14.642z"/><radialGradient id="F35Sbi4rwCCl4lh45hcqlg" cx="42.661" cy="41.36" r="2.384" gradientTransform="matrix(1 0 0 .789 0 8.728)" gradientUnits="userSpaceOnUse"><stop offset="0" stop-color="#814d32"/><stop offset="1" stop-color="#834e33" stop-opacity="0"/></radialGradient><path fill="url(#F35Sbi4rwCCl4lh45hcqlg)" d="M45,44H35c0,0,7-5,7.84-5.04C44,40,45,42,45,44z"/><linearGradient id="F35Sbi4rwCCl4lh45hcqlh" x1="39.081" x2="36.339" y1="18.308" y2="10.94" gradientUnits="userSpaceOnUse"><stop offset=".472" stop-color="#ddb993"/><stop offset=".686" stop-color="#dcb791"/><stop offset=".802" stop-color="#d7af89"/><stop offset=".894" stop-color="#cfa17b"/><stop offset=".974" stop-color="#c48e68"/><stop offset=".999" stop-color="#bf8660"/></linearGradient><path fill="url(#F35Sbi4rwCCl4lh45hcqlh)" d="M42,15.5c0,3.038-2.412,5.5-4.4,5.5c-1.988,0-3.6-3.248-3.6-6.286C34,13.143,36.412,10,38.4,10	C39.6,10,42,12.462,42,15.5z"/><radialGradient id="F35Sbi4rwCCl4lh45hcqli" cx="22.955" cy="16.681" r="2.351" gradientTransform="matrix(1.0677 0 0 1.6165 12.99 -11.272)" gradientUnits="userSpaceOnUse"><stop offset=".189" stop-color="#bf8660"/><stop offset=".516" stop-color="#bd845e"/><stop offset=".695" stop-color="#b67c56"/><stop offset=".838" stop-color="#a96e49"/><stop offset=".962" stop-color="#985b37"/><stop offset="1" stop-color="#915330"/></radialGradient><path fill="url(#F35Sbi4rwCCl4lh45hcqli)" d="M35,17.444C35,15.297,36.05,12,37.5,12c0.833,0,2.5,1.519,2.5,3.667C40,16.778,38.241,19,36.792,19	C35.917,19,35,19,35,17.444z"/><radialGradient id="F35Sbi4rwCCl4lh45hcqlj" cx="203.935" cy="190.945" r="2.32" gradientTransform="matrix(.6406 0 0 .8257 -93.139 -141.665)" gradientUnits="userSpaceOnUse"><stop offset=".472" stop-color="#ddb993"/><stop offset=".67" stop-color="#dbb791"/><stop offset=".778" stop-color="#d6af89"/><stop offset=".864" stop-color="#cda17d"/><stop offset=".938" stop-color="#c18e6b"/><stop offset=".999" stop-color="#b27756"/></radialGradient><path fill="url(#F35Sbi4rwCCl4lh45hcqlj)" d="M36,17.111C36,15.884,36.63,14,37.5,14c0.5,0,1.5,0.868,1.5,2.095C39,16.73,37.945,18,37.075,18	C36.55,18,36,18,36,17.111z"/><linearGradient id="F35Sbi4rwCCl4lh45hcqlk" x1="-536.918" x2="-539.661" y1="18.308" y2="10.94" gradientTransform="matrix(-1 0 0 1 -528 0)" gradientUnits="userSpaceOnUse"><stop offset=".472" stop-color="#ddb993"/><stop offset=".686" stop-color="#dcb791"/><stop offset=".802" stop-color="#d7af89"/><stop offset=".894" stop-color="#cfa17b"/><stop offset=".974" stop-color="#c48e68"/><stop offset=".999" stop-color="#bf8660"/></linearGradient><path fill="url(#F35Sbi4rwCCl4lh45hcqlk)" d="M6,15.5c0,3.038,2.412,5.5,4.4,5.5s3.6-3.248,3.6-6.286C14,13.143,11.588,10,9.6,10	C8.4,10,6,12.462,6,15.5z"/><radialGradient id="F35Sbi4rwCCl4lh45hcqll" cx="-522.859" cy="16.681" r="2.351" gradientTransform="matrix(-1.0677 0 0 1.6165 -547.76 -11.272)" gradientUnits="userSpaceOnUse"><stop offset=".189" stop-color="#bf8660"/><stop offset=".516" stop-color="#bd845e"/><stop offset=".695" stop-color="#b67c56"/><stop offset=".838" stop-color="#a96e49"/><stop offset=".962" stop-color="#985b37"/><stop offset="1" stop-color="#915330"/></radialGradient><path fill="url(#F35Sbi4rwCCl4lh45hcqll)" d="M13,17.444C13,15.297,11.95,12,10.5,12C9.667,12,8,13.519,8,15.667C8,16.778,9.759,19,11.208,19	C12.083,19,13,19,13,17.444z"/><radialGradient id="F35Sbi4rwCCl4lh45hcqlm" cx="-689.11" cy="189.542" r="2.32" gradientTransform="matrix(-.6406 0 0 .8257 -430.96 -140.505)" gradientUnits="userSpaceOnUse"><stop offset=".472" stop-color="#ddb993"/><stop offset=".67" stop-color="#dbb791"/><stop offset=".778" stop-color="#d6af89"/><stop offset=".864" stop-color="#cda17d"/><stop offset=".938" stop-color="#c18e6b"/><stop offset=".999" stop-color="#b27756"/></radialGradient><path fill="url(#F35Sbi4rwCCl4lh45hcqlm)" d="M12,17.111C12,15.884,11.37,14,10.5,14C10,14,9,14.868,9,16.095C9,16.73,10.055,18,10.925,18	C11.45,18,12,18,12,17.111z"/><radialGradient id="F35Sbi4rwCCl4lh45hcqln" cx="35.27" cy="15.923" r="14.866" gradientTransform="matrix(.9543 0 0 .9836 -9.658 2.089)" gradientUnits="userSpaceOnUse"><stop offset="0" stop-color="#865034"/><stop offset=".629" stop-color="#865034"/><stop offset=".77" stop-color="#814d32"/><stop offset=".945" stop-color="#71442c"/><stop offset=".999" stop-color="#6b402a"/></radialGradient><path fill="url(#F35Sbi4rwCCl4lh45hcqln)" d="M36.978,16.539c0,2.724-0.669,5.272-1.833,7.451c-2.268,4.245-6.415,9.51-11.155,9.51	c-4.74,0-8.887-5.265-11.155-9.51C11.669,21.811,11,19.262,11,16.539c0-4.038-0.033-6.318,1.344-8.626	C14.673,4.01,19.481,2,23.989,2c4.483,0,9.53,2.045,11.865,5.913C37.254,10.233,36.978,12.5,36.978,16.539z"/><g><path fill="#BF8660" d="M33.919,15.422c-0.378-2.208-2.181-3.988-4.4-4.348c-1.137-0.185-2.219-0.013-3.156,0.419 c-1.5,0.692-3.227,0.692-4.727,0c-0.937-0.432-2.019-0.603-3.156-0.419c-2.218,0.36-4.022,2.14-4.4,4.348 c-0.3,1.756,0.256,3.387,1.32,4.55c1.235,1.35,1.567,3.252,1.124,5.025c-0.142,0.569-0.217,1.122-0.217,1.637 C16.308,30.121,19.752,34,24,34s7.692-3.879,7.692-7.366c0-0.515-0.075-1.068-0.217-1.637c-0.442-1.773-0.11-3.675,1.124-5.025 C33.663,18.809,34.219,17.178,33.919,15.422z"/><path fill="#DDB993" d="M33.038,19.41c0.2-0.767,0.254-1.595,0.115-2.453c-0.346-2.208-2.008-3.987-4.062-4.347 c-1.046-0.184-2.046-0.015-2.908,0.414c-1.385,0.698-2.985,0.698-4.369,0c-0.862-0.429-1.862-0.598-2.908-0.414 c-2.054,0.36-3.715,2.139-4.062,4.347c-0.138,0.859-0.085,1.687,0.115,2.453c-0.777-1.096-1.138-2.499-0.877-3.987 c0.377-2.208,2.177-3.987,4.392-4.347c1.138-0.184,2.223-0.015,3.162,0.414c1.5,0.698,3.223,0.698,4.723,0 c0.938-0.429,2.023-0.598,3.162-0.414c2.215,0.36,4.015,2.139,4.392,4.347C34.177,16.911,33.815,18.314,33.038,19.41z"/><path fill="#DCB892" d="M18.48,11.105c1.137-0.184,2.226-0.017,3.162,0.416c1.45,0.67,3.103,0.697,4.564,0.068 c0.052-0.022,0.103-0.045,0.155-0.069c0.936-0.431,2.024-0.598,3.16-0.414c2.212,0.36,3.999,2.141,4.381,4.348 c0.257,1.488-0.11,2.891-0.886,3.987c0.2-0.767,0.262-1.595,0.126-2.454c-0.325-2.049-1.76-3.73-3.607-4.249 c-0.146-0.041-0.294-0.075-0.444-0.101c-1.045-0.182-2.051-0.014-2.909,0.416c-0.657,0.33-1.362,0.505-2.07,0.522 c-0.708,0.017-1.419-0.124-2.085-0.423c-0.071-0.032-0.141-0.065-0.211-0.1c-0.859-0.43-1.864-0.597-2.908-0.415 c-0.091,0.016-0.181,0.034-0.27,0.056c-1.876,0.448-3.366,2.091-3.749,4.126c-0.011,0.057-0.02,0.114-0.029,0.171 c-0.135,0.858-0.074,1.685,0.126,2.451c-0.776-1.096-1.143-2.499-0.886-3.987C14.48,13.246,16.267,11.465,18.48,11.105z"/><path fill="#DCB791" d="M18.482,11.133c1.135-0.184,2.228-0.015,3.163,0.417c1.448,0.67,3.101,0.697,4.561,0.067 c0.052-0.022,0.103-0.045,0.154-0.069c0.934-0.431,2.025-0.598,3.158-0.415c2.209,0.36,3.988,2.143,4.37,4.35 c0.257,1.488-0.12,2.891-0.895,3.988c0.199-0.767,0.272-1.595,0.136-2.454c-0.325-2.052-1.749-3.737-3.597-4.252 c-0.145-0.041-0.293-0.074-0.443-0.1c-1.043-0.179-2.055-0.01-2.909,0.419c-0.657,0.33-1.361,0.506-2.069,0.522 c-0.708,0.016-1.418-0.125-2.084-0.425c-0.071-0.032-0.141-0.065-0.211-0.1c-0.857-0.428-1.867-0.596-2.908-0.415 c-0.091,0.016-0.181,0.034-0.27,0.055c-1.877,0.446-3.354,2.093-3.736,4.132c-0.011,0.057-0.02,0.113-0.029,0.171 c-0.133,0.857-0.063,1.683,0.136,2.448c-0.775-1.096-1.152-2.5-0.895-3.988C14.494,13.276,16.273,11.493,18.482,11.133z"/><path fill="#DBB690" d="M18.485,11.161c1.134-0.184,2.23-0.014,3.164,0.418c1.447,0.671,3.098,0.697,4.557,0.065 c0.051-0.022,0.103-0.045,0.154-0.069c0.933-0.43,2.025-0.598,3.156-0.415c2.206,0.36,3.978,2.144,4.358,4.351 c0.257,1.488-0.13,2.892-0.904,3.988c0.199-0.767,0.282-1.596,0.146-2.455c-0.325-2.055-1.738-3.743-3.587-4.256 c-0.145-0.04-0.293-0.073-0.443-0.099c-1.041-0.177-2.059-0.007-2.91,0.421c-0.657,0.331-1.361,0.506-2.068,0.522 c-0.707,0.016-1.417-0.126-2.083-0.427c-0.07-0.032-0.14-0.065-0.21-0.1c-0.855-0.426-1.87-0.595-2.908-0.416 c-0.091,0.016-0.181,0.034-0.27,0.055c-1.877,0.445-3.343,2.096-3.724,4.138c-0.011,0.057-0.02,0.113-0.029,0.171 c-0.131,0.856-0.052,1.681,0.147,2.445c-0.774-1.096-1.161-2.5-0.904-3.988C14.507,13.305,16.279,11.521,18.485,11.161z"/><path fill="#DBB58F" d="M18.488,11.189c1.132-0.184,2.232-0.012,3.164,0.42c1.446,0.671,3.096,0.697,4.553,0.064 c0.051-0.022,0.102-0.045,0.153-0.069c0.931-0.429,2.026-0.598,3.154-0.415c2.203,0.36,3.967,2.146,4.347,4.353 c0.256,1.488-0.141,2.892-0.913,3.988c0.199-0.767,0.292-1.596,0.156-2.455c-0.325-2.058-1.727-3.75-3.577-4.259 c-0.144-0.04-0.292-0.073-0.442-0.098c-1.04-0.175-2.063-0.003-2.911,0.424c-0.657,0.331-1.36,0.506-2.067,0.522 c-0.707,0.016-1.416-0.127-2.082-0.429c-0.07-0.032-0.14-0.065-0.209-0.099c-0.853-0.424-1.873-0.593-2.908-0.416 c-0.091,0.015-0.181,0.034-0.27,0.055c-1.878,0.443-3.331,2.098-3.711,4.144c-0.011,0.057-0.02,0.113-0.029,0.171 c-0.129,0.855-0.041,1.679,0.157,2.442c-0.773-1.096-1.169-2.5-0.913-3.988C14.521,13.335,16.285,11.549,18.488,11.189z"/><path fill="#DAB48E" d="M18.49,11.217c1.13-0.184,2.234-0.011,3.165,0.421c1.445,0.671,3.094,0.697,4.55,0.063 c0.051-0.022,0.102-0.045,0.153-0.069c0.93-0.428,2.027-0.598,3.152-0.415c2.2,0.36,3.956,2.147,4.336,4.354 c0.256,1.488-0.151,2.893-0.922,3.989c0.199-0.767,0.302-1.597,0.166-2.456c-0.325-2.061-1.716-3.756-3.567-4.262 c-0.144-0.04-0.291-0.072-0.441-0.097c-1.038-0.173-2.067,0-2.912,0.426c-0.656,0.331-1.36,0.507-2.066,0.522 c-0.707,0.015-1.416-0.128-2.08-0.431c-0.07-0.032-0.139-0.065-0.208-0.099c-0.851-0.423-1.876-0.592-2.909-0.417 c-0.091,0.015-0.181,0.034-0.27,0.054c-1.879,0.441-3.32,2.101-3.698,4.149c-0.01,0.057-0.02,0.113-0.028,0.17 c-0.127,0.853-0.03,1.678,0.168,2.439c-0.771-1.096-1.178-2.501-0.922-3.989C14.534,13.364,16.29,11.577,18.49,11.217z"/><path fill="#DAB38D" d="M18.493,11.245c1.129-0.184,2.236-0.009,3.166,0.423c1.444,0.672,3.092,0.697,4.546,0.061 c0.051-0.022,0.102-0.045,0.152-0.069c0.929-0.427,2.027-0.599,3.15-0.416c2.197,0.36,3.945,2.149,4.325,4.356 c0.256,1.488-0.161,2.893-0.931,3.989c0.198-0.767,0.312-1.597,0.176-2.456c-0.325-2.064-1.705-3.763-3.557-4.266 c-0.144-0.039-0.291-0.071-0.441-0.096c-1.037-0.17-2.072,0.004-2.913,0.429c-0.656,0.331-1.359,0.507-2.065,0.522 c-0.706,0.015-1.415-0.129-2.079-0.433c-0.069-0.031-0.138-0.065-0.207-0.099c-0.849-0.421-1.879-0.591-2.909-0.418 c-0.091,0.015-0.182,0.033-0.27,0.054c-1.879,0.44-3.308,2.103-3.685,4.155c-0.01,0.057-0.02,0.113-0.028,0.17 c-0.125,0.852-0.019,1.676,0.178,2.437c-0.77-1.096-1.187-2.501-0.931-3.989C14.548,13.394,16.296,11.605,18.493,11.245z"/><path fill="#D9B28C" d="M18.496,11.273c1.127-0.184,2.238-0.008,3.166,0.424c1.443,0.672,3.089,0.697,4.542,0.06 c0.051-0.022,0.101-0.045,0.152-0.068c0.927-0.427,2.028-0.599,3.148-0.416c2.194,0.36,3.935,2.15,4.313,4.357 c0.255,1.488-0.171,2.893-0.94,3.99c0.198-0.767,0.321-1.597,0.186-2.456c-0.325-2.067-1.694-3.769-3.547-4.269 c-0.143-0.039-0.29-0.071-0.44-0.095c-1.035-0.168-2.076,0.007-2.914,0.431c-0.656,0.332-1.359,0.507-2.064,0.522 c-0.706,0.015-1.414-0.13-2.078-0.435c-0.069-0.031-0.138-0.064-0.207-0.098c-0.848-0.417-1.882-0.59-2.909-0.418 c-0.091,0.015-0.182,0.033-0.27,0.054c-1.88,0.438-3.297,2.106-3.673,4.161c-0.01,0.057-0.02,0.113-0.028,0.17 c-0.123,0.851-0.008,1.674,0.188,2.434c-0.769-1.096-1.196-2.502-0.94-3.99C14.561,13.423,16.302,11.633,18.496,11.273z"/><path fill="#D8B18B" d="M18.498,11.301c1.126-0.184,2.24-0.007,3.167,0.426c1.442,0.673,3.087,0.697,4.539,0.059 c0.051-0.022,0.101-0.045,0.152-0.068c0.926-0.426,2.029-0.599,3.146-0.416c2.19,0.36,3.924,2.152,4.302,4.359 c0.255,1.488-0.181,2.894-0.949,3.99c0.198-0.767,0.331-1.598,0.196-2.457c-0.325-2.07-1.683-3.776-3.537-4.273 c-0.143-0.039-0.29-0.07-0.439-0.094c-1.033-0.166-2.08,0.011-2.914,0.434c-0.656,0.332-1.358,0.508-2.064,0.522 c-0.706,0.014-1.414-0.131-2.077-0.437c-0.069-0.031-0.137-0.064-0.206-0.098c-0.846-0.416-1.885-0.589-2.909-0.419 c-0.091,0.015-0.182,0.033-0.27,0.053c-1.88,0.436-3.285,2.108-3.66,4.167c-0.01,0.057-0.019,0.113-0.028,0.17 c-0.121,0.85,0.003,1.672,0.199,2.431c-0.768-1.096-1.204-2.502-0.949-3.99C14.574,13.453,16.308,11.661,18.498,11.301z"/><path fill="#D8B08A" d="M18.501,11.329c1.124-0.184,2.242-0.005,3.167,0.427c1.441,0.673,3.085,0.697,4.535,0.057 c0.05-0.022,0.101-0.045,0.151-0.068c0.924-0.425,2.03-0.599,3.144-0.416c2.187,0.36,3.913,2.153,4.291,4.36 c0.255,1.488-0.191,2.894-0.958,3.991c0.197-0.767,0.341-1.598,0.206-2.457c-0.325-2.073-1.672-3.782-3.527-4.276 c-0.143-0.038-0.289-0.069-0.439-0.093c-1.032-0.164-2.084,0.014-2.915,0.436c-0.655,0.332-1.357,0.508-2.063,0.522 c-0.705,0.014-1.413-0.132-2.076-0.439c-0.068-0.031-0.137-0.064-0.205-0.098c-0.844-0.414-1.888-0.588-2.909-0.42 c-0.092,0.015-0.182,0.033-0.27,0.053c-1.881,0.434-3.274,2.11-3.647,4.173c-0.01,0.057-0.019,0.113-0.027,0.17 c-0.119,0.849,0.014,1.67,0.209,2.428c-0.767-1.096-1.213-2.503-0.958-3.991C14.588,13.482,16.314,11.689,18.501,11.329z"/><path fill="#D7AF89" d="M18.504,11.357c1.122-0.184,2.244-0.004,3.168,0.429c1.44,0.674,3.082,0.697,4.531,0.056 c0.05-0.022,0.101-0.045,0.151-0.068c0.923-0.424,2.03-0.599,3.143-0.417c2.184,0.36,3.902,2.155,4.279,4.362 c0.254,1.488-0.201,2.895-0.967,3.991c0.197-0.767,0.351-1.599,0.217-2.458c-0.325-2.077-1.661-3.789-3.517-4.28 c-0.142-0.038-0.288-0.069-0.438-0.092c-1.03-0.161-2.088,0.018-2.916,0.439c-0.655,0.333-1.357,0.509-2.062,0.522 c-0.705,0.014-1.412-0.133-2.075-0.441c-0.068-0.031-0.136-0.064-0.204-0.097c-0.842-0.412-1.891-0.587-2.909-0.42 c-0.092,0.015-0.182,0.032-0.271,0.053c-1.881,0.433-3.262,2.113-3.634,4.179c-0.01,0.057-0.019,0.113-0.027,0.17 c-0.117,0.848,0.025,1.668,0.22,2.425c-0.766-1.096-1.222-2.503-0.967-3.991C14.601,13.511,16.319,11.717,18.504,11.357z"/><path fill="#D7AE88" d="M18.506,11.385c1.121-0.184,2.246-0.002,3.169,0.43c1.438,0.674,3.08,0.697,4.528,0.055 c0.05-0.022,0.1-0.045,0.15-0.068c0.921-0.423,2.031-0.599,3.141-0.417c2.181,0.36,3.892,2.156,4.268,4.363 c0.254,1.488-0.212,2.895-0.976,3.992c0.197-0.767,0.361-1.599,0.227-2.458c-0.325-2.08-1.649-3.795-3.507-4.283 c-0.142-0.038-0.288-0.068-0.437-0.091c-1.029-0.159-2.092,0.021-2.917,0.441c-0.655,0.333-1.356,0.509-2.061,0.522 c-0.705,0.013-1.412-0.134-2.073-0.443c-0.068-0.031-0.135-0.064-0.203-0.097c-0.84-0.411-1.894-0.585-2.91-0.421 c-0.092,0.015-0.182,0.032-0.271,0.052c-1.882,0.431-3.251,2.115-3.622,4.184c-0.01,0.057-0.019,0.113-0.027,0.17 c-0.115,0.847,0.036,1.667,0.23,2.423c-0.765-1.096-1.23-2.504-0.976-3.992C14.615,13.541,16.325,11.745,18.506,11.385z"/><path fill="#D6AD87" d="M18.509,11.413c1.119-0.184,2.248-0.001,3.169,0.432c1.437,0.675,3.078,0.697,4.524,0.053 c0.05-0.022,0.1-0.045,0.15-0.068c0.92-0.423,2.032-0.599,3.139-0.417c2.178,0.36,3.881,2.158,4.257,4.365 c0.253,1.488-0.222,2.896-0.986,3.992c0.197-0.767,0.371-1.6,0.237-2.459c-0.325-2.083-1.638-3.802-3.497-4.286 c-0.141-0.037-0.287-0.067-0.436-0.09c-1.027-0.157-2.096,0.025-2.918,0.443c-0.654,0.333-1.356,0.509-2.06,0.522 c-0.704,0.013-1.41-0.137-2.072-0.445c-0.067-0.031-0.135-0.063-0.203-0.097c-0.838-0.409-1.897-0.584-2.91-0.421 c-0.092,0.015-0.182,0.032-0.271,0.052c-1.882,0.429-3.239,2.118-3.609,4.19c-0.01,0.057-0.019,0.113-0.026,0.17 c-0.113,0.846,0.047,1.665,0.241,2.42c-0.764-1.096-1.239-2.504-0.986-3.992C14.628,13.57,16.331,11.773,18.509,11.413z"/><path fill="#D5AC86" d="M18.512,11.441c1.118-0.184,2.25,0.001,3.17,0.433c1.436,0.675,3.076,0.697,4.52,0.052 c0.05-0.022,0.1-0.045,0.15-0.068c0.919-0.422,2.032-0.599,3.137-0.417c2.175,0.36,3.87,2.159,4.245,4.366 c0.253,1.488-0.232,2.896-0.995,3.992c0.196-0.767,0.381-1.6,0.247-2.459c-0.325-2.086-1.627-3.809-3.487-4.29 c-0.141-0.037-0.287-0.067-0.436-0.089c-1.025-0.155-2.1,0.028-2.919,0.446c-0.654,0.334-1.355,0.51-2.059,0.522 c-0.704,0.013-1.409-0.138-2.071-0.447c-0.067-0.031-0.134-0.063-0.202-0.097c-0.836-0.407-1.9-0.583-2.91-0.422 c-0.092,0.014-0.182,0.032-0.271,0.052c-1.883,0.428-3.227,2.12-3.596,4.196c-0.01,0.057-0.019,0.113-0.026,0.17 c-0.111,0.845,0.058,1.663,0.251,2.417c-0.763-1.096-1.248-2.504-0.995-3.992C14.642,13.6,16.337,11.801,18.512,11.441z"/><path fill="#D5AB85" d="M18.514,11.469c1.116-0.184,2.252,0.002,3.171,0.435c1.435,0.676,3.073,0.697,4.517,0.051 c0.05-0.022,0.099-0.045,0.149-0.068c0.917-0.421,2.033-0.599,3.135-0.418c2.172,0.36,3.859,2.161,4.234,4.368 c0.253,1.488-0.242,2.897-1.004,3.993c0.196-0.767,0.391-1.601,0.257-2.46c-0.325-2.089-1.616-3.815-3.477-4.293 c-0.141-0.037-0.286-0.066-0.435-0.088c-1.024-0.152-2.104,0.032-2.919,0.448c-0.654,0.334-1.355,0.51-2.058,0.522 c-0.704,0.012-1.409-0.139-2.07-0.449c-0.066-0.031-0.134-0.063-0.201-0.096c-0.834-0.406-1.903-0.582-2.91-0.423 c-0.092,0.014-0.182,0.031-0.271,0.051c-1.883,0.426-3.216,2.123-3.583,4.202c-0.01,0.056-0.019,0.113-0.026,0.17 c-0.109,0.843,0.069,1.661,0.261,2.414c-0.762-1.096-1.256-2.505-1.004-3.993C14.655,13.629,16.342,11.829,18.514,11.469z"/><path fill="#D4AA84" d="M18.517,11.497c1.114-0.184,2.254,0.004,3.171,0.436c1.434,0.676,3.071,0.697,4.513,0.049 c0.049-0.022,0.099-0.045,0.149-0.067c0.916-0.42,2.034-0.599,3.133-0.418c2.169,0.36,3.849,2.162,4.223,4.369 c0.252,1.488-0.252,2.897-1.013,3.993c0.196-0.767,0.401-1.601,0.267-2.46c-0.325-2.092-1.605-3.822-3.467-4.297 c-0.14-0.036-0.286-0.065-0.434-0.087c-1.022-0.15-2.108,0.035-2.92,0.451c-0.654,0.334-1.354,0.51-2.057,0.522 c-0.704,0.012-1.408-0.14-2.069-0.451c-0.066-0.031-0.133-0.063-0.2-0.096c-0.832-0.404-1.906-0.581-2.91-0.423 c-0.092,0.014-0.182,0.031-0.271,0.051c-1.884,0.424-3.204,2.125-3.571,4.208c-0.01,0.056-0.018,0.113-0.026,0.17 c-0.107,0.842,0.08,1.659,0.272,2.411c-0.761-1.096-1.265-2.505-1.013-3.993C14.668,13.659,16.348,11.857,18.517,11.497z"/><path fill="#D4A983" d="M18.52,11.525c1.113-0.184,2.256,0.005,3.172,0.438c1.433,0.676,3.069,0.697,4.509,0.048 c0.049-0.022,0.099-0.045,0.148-0.067c0.914-0.419,2.035-0.599,3.131-0.418c2.165,0.36,3.838,2.164,4.212,4.371 c0.252,1.488-0.262,2.897-1.022,3.994c0.196-0.767,0.411-1.601,0.277-2.46c-0.325-2.095-1.594-3.828-3.457-4.3 c-0.14-0.036-0.285-0.065-0.434-0.086c-1.021-0.148-2.112,0.039-2.921,0.453c-0.653,0.335-1.354,0.511-2.056,0.522 c-0.703,0.012-1.407-0.141-2.067-0.453c-0.066-0.031-0.132-0.063-0.199-0.096c-0.83-0.402-1.909-0.58-2.911-0.424 c-0.092,0.014-0.183,0.031-0.271,0.051c-1.884,0.422-3.193,2.128-3.558,4.214c-0.01,0.056-0.018,0.113-0.025,0.17 c-0.106,0.841,0.091,1.657,0.282,2.409c-0.759-1.096-1.274-2.506-1.022-3.994C14.682,13.688,16.354,11.885,18.52,11.525z"/><path fill="#D3A882" d="M18.522,11.553c1.111-0.184,2.258,0.007,3.173,0.439c1.432,0.677,3.067,0.697,4.506,0.047 c0.049-0.022,0.098-0.044,0.148-0.067c0.913-0.418,2.035-0.6,3.129-0.419c2.162,0.36,3.827,2.165,4.2,4.372 c0.252,1.488-0.272,2.898-1.031,3.994c0.195-0.767,0.421-1.602,0.287-2.461c-0.325-2.098-1.583-3.835-3.447-4.304 c-0.14-0.036-0.284-0.064-0.433-0.085c-1.019-0.145-2.116,0.042-2.922,0.456c-0.653,0.335-1.353,0.511-2.056,0.522 c-0.703,0.011-1.407-0.142-2.066-0.455c-0.065-0.031-0.132-0.063-0.199-0.095c-0.828-0.4-1.912-0.579-2.911-0.424 c-0.092,0.014-0.183,0.031-0.271,0.05c-1.885,0.421-3.181,2.13-3.545,4.219c-0.01,0.056-0.018,0.113-0.025,0.17 c-0.104,0.84,0.102,1.656,0.293,2.406c-0.758-1.096-1.282-2.506-1.031-3.994C14.695,13.718,16.36,11.913,18.522,11.553z"/><path fill="#D3A781" d="M18.525,11.581c1.11-0.184,2.26,0.008,3.173,0.441c1.431,0.677,3.064,0.697,4.502,0.045 c0.049-0.022,0.098-0.044,0.147-0.067c0.911-0.418,2.036-0.6,3.127-0.419c2.159,0.36,3.816,2.166,4.189,4.374 c0.251,1.488-0.283,2.898-1.04,3.995c0.195-0.767,0.431-1.602,0.298-2.461c-0.325-2.101-1.572-3.841-3.437-4.307 c-0.139-0.035-0.284-0.063-0.432-0.084c-1.017-0.143-2.12,0.046-2.923,0.458c-0.653,0.335-1.352,0.511-2.055,0.522 c-0.703,0.011-1.406-0.143-2.065-0.456c-0.065-0.031-0.131-0.062-0.198-0.095c-0.826-0.399-1.914-0.577-2.911-0.425 c-0.092,0.014-0.183,0.031-0.271,0.05c-1.885,0.419-3.17,2.132-3.532,4.225c-0.01,0.056-0.018,0.113-0.025,0.17 c-0.102,0.839,0.112,1.654,0.303,2.403c-0.757-1.096-1.291-2.507-1.04-3.995C14.709,13.747,16.366,11.941,18.525,11.581z"/><path fill="#D2A680" d="M18.528,11.609c1.108-0.184,2.262,0.01,3.174,0.442c1.429,0.678,3.062,0.697,4.498,0.044 c0.049-0.022,0.098-0.044,0.147-0.067c0.91-0.417,2.037-0.6,3.126-0.419c2.156,0.36,3.805,2.168,4.178,4.375 c0.251,1.488-0.293,2.899-1.049,3.995c0.195-0.767,0.441-1.603,0.308-2.462c-0.325-2.105-1.561-3.848-3.428-4.31 c-0.139-0.035-0.283-0.063-0.432-0.083c-1.016-0.141-2.124,0.049-2.924,0.461c-0.652,0.336-1.352,0.512-2.054,0.522 c-0.702,0.011-1.405-0.144-2.064-0.458c-0.065-0.031-0.131-0.062-0.197-0.095c-0.824-0.397-1.917-0.576-2.911-0.426 c-0.092,0.014-0.183,0.03-0.271,0.05c-1.886,0.417-3.158,2.135-3.52,4.231c-0.01,0.056-0.018,0.113-0.025,0.17 c-0.1,0.838,0.123,1.652,0.314,2.4c-0.756-1.096-1.3-2.507-1.049-3.995C14.722,13.777,16.371,11.969,18.528,11.609z"/><path fill="#D1A57F" d="M18.53,11.637c1.106-0.184,2.264,0.011,3.175,0.444c1.428,0.678,3.058,0.694,4.495,0.043 c0.049-0.022,0.097-0.044,0.147-0.067c0.909-0.416,2.037-0.6,3.124-0.419c2.153,0.36,3.795,2.169,4.166,4.376 c0.251,1.488-0.303,2.899-1.058,3.996c0.194-0.767,0.45-1.603,0.318-2.462c-0.325-2.108-1.55-3.854-3.418-4.314 c-0.139-0.035-0.283-0.062-0.431-0.082c-1.014-0.139-2.129,0.053-2.924,0.463c-0.652,0.336-1.351,0.512-2.053,0.522 c-0.702,0.01-1.404-0.145-2.063-0.46c-0.064-0.031-0.13-0.062-0.196-0.094c-0.822-0.395-1.92-0.575-2.911-0.426 c-0.092,0.014-0.183,0.03-0.271,0.05c-1.886,0.415-3.147,2.137-3.507,4.237c-0.01,0.056-0.018,0.113-0.024,0.17 c-0.098,0.837,0.134,1.65,0.324,2.397c-0.755-1.096-1.308-2.508-1.058-3.996C14.735,13.806,16.377,11.997,18.53,11.637z"/><path fill="#D1A47E" d="M18.533,11.665c1.105-0.184,2.266,0.013,3.175,0.445c1.427,0.679,3.056,0.694,4.491,0.041 c0.048-0.022,0.097-0.044,0.146-0.067c0.908-0.413,2.038-0.6,3.122-0.42c2.15,0.36,3.784,2.171,4.155,4.378 c0.25,1.488-0.313,2.9-1.067,3.996c0.194-0.767,0.46-1.604,0.328-2.463c-0.325-2.111-1.539-3.861-3.408-4.317 c-0.138-0.034-0.282-0.061-0.43-0.081c-1.013-0.136-2.133,0.056-2.925,0.465c-0.652,0.336-1.351,0.512-2.052,0.522 c-0.702,0.01-1.404-0.146-2.061-0.462c-0.064-0.031-0.129-0.062-0.195-0.094c-0.82-0.394-1.923-0.574-2.911-0.427 c-0.093,0.013-0.183,0.03-0.271,0.049c-1.887,0.414-3.135,2.14-3.494,4.243c-0.01,0.056-0.018,0.113-0.024,0.17 c-0.098,0.836,0.145,1.648,0.335,2.395c-0.754-1.096-1.317-2.508-1.067-3.996C14.749,13.836,16.383,12.025,18.533,11.665z"/><path fill="#D0A37D" d="M18.535,11.693c1.103-0.184,2.268,0.014,3.176,0.446c1.426,0.679,3.054,0.694,4.487,0.04 c0.048-0.022,0.097-0.044,0.146-0.067c0.906-0.413,2.039-0.6,3.12-0.42c2.147,0.36,3.773,2.172,4.144,4.379 c0.25,1.488-0.323,2.9-1.076,3.996c0.194-0.767,0.47-1.604,0.338-2.463c-0.325-2.114-1.528-3.867-3.398-4.321 c-0.138-0.034-0.281-0.061-0.43-0.08c-1.011-0.134-2.137,0.06-2.926,0.468c-0.652,0.337-1.35,0.513-2.051,0.522 c-0.701,0.01-1.403-0.147-2.06-0.464c-0.064-0.031-0.129-0.062-0.195-0.094c-0.818-0.392-1.926-0.573-2.912-0.428 c-0.093,0.013-0.183,0.03-0.271,0.049c-1.888,0.412-3.124,2.142-3.481,4.249c-0.01,0.056-0.018,0.113-0.024,0.17 c-0.096,0.834,0.156,1.646,0.345,2.392c-0.753-1.096-1.326-2.508-1.076-3.996C14.762,13.865,16.389,12.053,18.535,11.693z"/><path fill="#D0A27C" d="M18.538,11.721c1.102-0.184,2.27,0.016,3.177,0.448c1.425,0.68,3.051,0.694,4.484,0.039 c0.048-0.022,0.097-0.044,0.145-0.066c0.905-0.412,2.04-0.6,3.118-0.42c2.144,0.36,3.762,2.174,4.132,4.381 c0.249,1.488-0.333,2.901-1.085,3.997c0.194-0.767,0.48-1.605,0.348-2.464c-0.325-2.117-1.517-3.874-3.388-4.324 c-0.137-0.034-0.281-0.06-0.429-0.079c-1.009-0.132-2.141,0.063-2.927,0.47c-0.651,0.337-1.35,0.513-2.05,0.522 c-0.701,0.009-1.402-0.148-2.059-0.466c-0.063-0.031-0.128-0.062-0.194-0.093c-0.816-0.39-1.929-0.572-2.912-0.428 c-0.093,0.013-0.183,0.029-0.271,0.049c-1.888,0.41-3.112,2.145-3.469,4.254c-0.01,0.056-0.018,0.113-0.024,0.17 c-0.094,0.833,0.167,1.645,0.355,2.389c-0.752-1.096-1.334-2.509-1.085-3.997C14.776,13.895,16.395,12.081,18.538,11.721z"/><path fill="#CFA17B" d="M18.541,11.749c1.1-0.184,2.272,0.017,3.177,0.449c1.424,0.68,3.049,0.694,4.48,0.037 c0.048-0.022,0.096-0.044,0.145-0.066c0.904-0.411,2.04-0.6,3.116-0.42c2.141,0.36,3.752,2.175,4.121,4.382 c0.249,1.488-0.343,2.901-1.094,3.997c0.193-0.767,0.49-1.605,0.358-2.464c-0.325-2.12-1.506-3.88-3.378-4.328 c-0.137-0.033-0.28-0.059-0.428-0.078c-1.008-0.13-2.145,0.067-2.928,0.473c-0.651,0.337-1.349,0.513-2.049,0.523 c-0.701,0.009-1.401-0.149-2.058-0.468c-0.063-0.031-0.128-0.061-0.193-0.093c-0.814-0.388-1.932-0.571-2.912-0.429 c-0.093,0.013-0.183,0.029-0.271,0.048c-1.889,0.409-3.101,2.147-3.456,4.26c-0.01,0.056-0.017,0.113-0.023,0.17 c-0.092,0.832,0.178,1.643,0.366,2.386c-0.751-1.096-1.343-2.509-1.094-3.997C14.789,13.924,16.4,12.109,18.541,11.749z"/><path fill="#CFA07A" d="M18.543,11.777c1.098-0.184,2.274,0.019,3.178,0.451c1.423,0.681,3.047,0.694,4.476,0.036 c0.048-0.022,0.096-0.044,0.144-0.066c0.902-0.41,2.041-0.6,3.114-0.421c2.137,0.36,3.741,2.177,4.11,4.384 c0.249,1.488-0.354,2.901-1.103,3.998c0.193-0.767,0.5-1.605,0.368-2.464c-0.325-2.123-1.494-3.887-3.368-4.331 c-0.137-0.033-0.28-0.059-0.427-0.077c-1.006-0.127-2.149,0.071-2.929,0.475c-0.651,0.338-1.348,0.514-2.049,0.523 c-0.7,0.009-1.401-0.15-2.057-0.47c-0.063-0.031-0.127-0.061-0.192-0.093c-0.812-0.387-1.935-0.569-2.912-0.429 c-0.093,0.013-0.183,0.029-0.271,0.048c-1.889,0.407-3.089,2.15-3.443,4.266c-0.01,0.056-0.017,0.113-0.023,0.17 c-0.09,0.831,0.189,1.641,0.376,2.383c-0.75-1.096-1.352-2.51-1.103-3.998C14.803,13.954,16.406,12.137,18.543,11.777z"/><path fill="#CEA07A" d="M18.546,11.805c1.097-0.184,2.276,0.02,3.179,0.452c1.422,0.681,3.044,0.694,4.473,0.035 c0.048-0.022,0.096-0.044,0.144-0.066c0.901-0.41,2.042-0.6,3.112-0.421c2.134,0.36,3.73,2.178,4.099,4.385 c0.248,1.488-0.364,2.902-1.112,3.998c0.193-0.767,0.51-1.606,0.379-2.465c-0.325-2.126-1.484-3.89-3.358-4.334 c-0.136-0.032-0.279-0.058-0.427-0.076c-1.005-0.125-2.153,0.074-2.93,0.478c-0.65,0.338-1.348,0.514-2.048,0.523 c-0.7,0.008-1.4-0.151-2.056-0.472c-0.062-0.03-0.126-0.061-0.191-0.092c-0.81-0.385-1.938-0.568-2.912-0.43 c-0.093,0.013-0.184,0.029-0.271,0.048c-1.89,0.405-3.078,2.152-3.43,4.272c-0.01,0.056-0.017,0.113-0.023,0.17 c-0.088,0.83,0.2,1.639,0.387,2.381c-0.748-1.096-1.361-2.51-1.112-3.998C14.816,13.983,16.412,12.165,18.546,11.805z"/><path fill="#CD9F79" d="M18.549,11.833c1.095-0.184,2.278,0.021,3.179,0.454c1.421,0.681,3.042,0.694,4.469,0.033 c0.047-0.022,0.095-0.044,0.144-0.066c0.899-0.409,2.043-0.6,3.11-0.421c2.131,0.36,3.719,2.18,4.087,4.387 c0.248,1.488-0.374,2.902-1.121,3.999c0.192-0.767,0.52-1.606,0.389-2.465c-0.325-2.129-1.473-3.896-3.348-4.338 c-0.136-0.032-0.279-0.057-0.426-0.075c-1.003-0.123-2.157,0.078-2.93,0.48c-0.65,0.338-1.347,0.514-2.047,0.523 c-0.7,0.008-1.399-0.152-2.054-0.474c-0.062-0.03-0.126-0.061-0.191-0.092c-0.808-0.383-1.941-0.567-2.912-0.431 c-0.093,0.013-0.184,0.028-0.271,0.047c-1.89,0.403-3.066,2.154-3.418,4.278c-0.01,0.056-0.017,0.113-0.023,0.17 c-0.086,0.829,0.211,1.637,0.397,2.378c-0.747-1.096-1.369-2.511-1.121-3.999C14.829,14.013,16.418,12.193,18.549,11.833z"/><path fill="#CD9E78" d="M18.551,11.861c1.094-0.184,2.28,0.023,3.18,0.455c1.419,0.682,3.04,0.694,4.465,0.032 c0.047-0.022,0.095-0.044,0.143-0.066c0.898-0.408,2.043-0.601,3.108-0.421c2.128,0.36,3.709,2.181,4.076,4.388 c0.248,1.488-0.384,2.903-1.13,3.999c0.192-0.767,0.53-1.607,0.399-2.466c-0.325-2.133-1.462-3.903-3.338-4.341 c-0.136-0.032-0.278-0.057-0.425-0.074c-1.002-0.121-2.161,0.081-2.931,0.483c-0.65,0.339-1.347,0.515-2.046,0.523 c-0.699,0.008-1.399-0.153-2.053-0.476c-0.062-0.03-0.125-0.061-0.19-0.092c-0.806-0.382-1.944-0.566-2.913-0.431 c-0.093,0.013-0.184,0.028-0.271,0.047c-1.891,0.402-3.055,2.157-3.405,4.284c-0.009,0.056-0.017,0.113-0.022,0.17 c-0.084,0.828,0.222,1.635,0.408,2.375c-0.746-1.096-1.378-2.511-1.13-3.999C14.843,14.042,16.423,12.221,18.551,11.861z"/><path fill="#CC9D77" d="M18.554,11.889c1.092-0.184,2.282,0.024,3.181,0.457c1.418,0.682,3.038,0.693,4.462,0.031 c0.047-0.022,0.095-0.044,0.143-0.066c0.896-0.407,2.044-0.601,3.107-0.422c2.125,0.36,3.698,2.183,4.065,4.39 c0.247,1.488-0.394,2.903-1.139,4c0.192-0.767,0.54-1.607,0.409-2.466c-0.325-2.136-1.451-3.909-3.328-4.345 c-0.135-0.031-0.277-0.056-0.425-0.073c-1-0.118-2.165,0.085-2.932,0.485c-0.649,0.339-1.346,0.515-2.045,0.523 c-0.699,0.007-1.398-0.154-2.052-0.478c-0.061-0.03-0.124-0.061-0.189-0.091c-0.804-0.38-1.947-0.565-2.913-0.432 c-0.093,0.012-0.184,0.028-0.271,0.047c-1.891,0.4-3.043,2.159-3.392,4.289c-0.009,0.056-0.017,0.113-0.022,0.169 c-0.082,0.827,0.233,1.634,0.418,2.372c-0.745-1.096-1.387-2.512-1.139-4C14.856,14.072,16.429,12.249,18.554,11.889z"/><path fill="#CC9C76" d="M18.557,11.917c1.09-0.184,2.284,0.026,3.181,0.458c1.417,0.683,3.035,0.693,4.458,0.029 c0.047-0.022,0.094-0.044,0.142-0.066c0.895-0.407,2.045-0.601,3.105-0.422c2.122,0.36,3.687,2.184,4.053,4.391 c0.247,1.488-0.404,2.904-1.148,4c0.192-0.767,0.55-1.608,0.419-2.467c-0.325-2.139-1.44-3.916-3.318-4.348 c-0.135-0.031-0.277-0.055-0.424-0.072c-0.998-0.116-2.169,0.088-2.933,0.487c-0.649,0.339-1.346,0.516-2.044,0.523 c-0.699,0.007-1.397-0.155-2.051-0.48c-0.061-0.03-0.124-0.06-0.188-0.091c-0.802-0.378-1.95-0.564-2.913-0.432 c-0.093,0.012-0.184,0.028-0.271,0.046c-1.892,0.398-3.032,2.162-3.379,4.295c-0.009,0.056-0.017,0.113-0.022,0.169 c-0.08,0.826,0.244,1.632,0.428,2.369c-0.744-1.096-1.395-2.512-1.148-4C14.87,14.101,16.435,12.277,18.557,11.917z"/><path fill="#CB9B75" d="M18.559,11.945c1.089-0.184,2.286,0.027,3.182,0.46c1.416,0.683,3.033,0.693,4.454,0.028 c0.047-0.022,0.094-0.044,0.142-0.065c0.893-0.406,2.045-0.601,3.103-0.422c2.119,0.36,3.676,2.186,4.042,4.393 c0.247,1.488-0.414,2.904-1.157,4c0.191-0.767,0.56-1.608,0.429-2.467c-0.325-2.142-1.428-3.926-3.308-4.352 c-0.134-0.031-0.276-0.055-0.423-0.071c-0.997-0.114-2.173,0.092-2.934,0.49c-0.649,0.34-1.345,0.516-2.043,0.523 c-0.698,0.007-1.396-0.156-2.05-0.482c-0.061-0.03-0.123-0.06-0.187-0.091c-0.8-0.377-1.953-0.563-2.913-0.433 c-0.093,0.012-0.184,0.028-0.271,0.046c-1.892,0.397-3.02,2.164-3.367,4.301c-0.009,0.056-0.016,0.113-0.022,0.169 c-0.078,0.824,0.255,1.63,0.439,2.367c-0.743-1.096-1.404-2.512-1.157-4C14.883,14.131,16.441,12.305,18.559,11.945z"/><path fill="#CB9A74" d="M18.562,11.973c1.087-0.184,2.288,0.029,3.183,0.461c1.415,0.684,3.031,0.693,4.451,0.027 c0.047-0.022,0.094-0.044,0.141-0.065c0.892-0.405,2.046-0.601,3.101-0.423c2.116,0.36,3.666,2.187,4.031,4.394 c0.246,1.488-0.425,2.905-1.166,4.001c0.191-0.767,0.57-1.609,0.439-2.468c-0.325-2.145-1.417-3.933-3.298-4.355 c-0.134-0.031-0.276-0.054-0.423-0.07c-0.995-0.111-2.177,0.095-2.935,0.492c-0.649,0.34-1.344,0.516-2.042,0.523 c-0.698,0.006-1.396-0.157-2.048-0.484c-0.06-0.03-0.123-0.06-0.187-0.09c-0.798-0.375-1.956-0.561-2.913-0.434 c-0.093,0.012-0.184,0.027-0.271,0.046c-1.893,0.395-3.009,2.167-3.354,4.307c-0.009,0.056-0.016,0.113-0.021,0.169 c-0.076,0.823,0.266,1.628,0.449,2.364c-0.742-1.096-1.413-2.513-1.166-4.001C14.897,14.16,16.447,12.333,18.562,11.973z"/><path fill="#CA9973" d="M18.565,12.001c1.086-0.184,2.29,0.03,3.183,0.463c1.414,0.684,3.028,0.693,4.447,0.025 c0.046-0.022,0.094-0.043,0.141-0.065c0.891-0.404,2.047-0.601,3.099-0.423c2.112,0.36,3.655,2.189,4.019,4.396 c0.246,1.488-0.435,2.905-1.175,4.001c0.191-0.767,0.58-1.609,0.449-2.468c-0.325-2.148-1.406-3.939-3.288-4.358 c-0.134-0.03-0.275-0.053-0.422-0.069c-0.994-0.109-2.181,0.099-2.935,0.495c-0.648,0.34-1.344,0.517-2.041,0.523 c-0.698,0.006-1.395-0.158-2.047-0.486c-0.06-0.03-0.122-0.06-0.186-0.09c-0.796-0.373-1.959-0.56-2.914-0.434 c-0.093,0.012-0.184,0.027-0.272,0.045c-1.893,0.393-2.997,2.169-3.341,4.313c-0.009,0.056-0.016,0.113-0.021,0.169 c-0.074,0.822,0.277,1.626,0.46,2.361c-0.741-1.096-1.421-2.513-1.175-4.001C14.91,14.19,16.452,12.361,18.565,12.001z"/><path fill="#C99872" d="M18.567,12.029c1.084-0.184,2.292,0.032,3.184,0.464c1.413,0.685,3.026,0.693,4.443,0.024 c0.046-0.022,0.093-0.043,0.141-0.065c0.889-0.404,2.048-0.601,3.097-0.423c2.109,0.36,3.644,2.19,4.008,4.397 c0.245,1.488-0.445,2.905-1.185,4.002c0.19-0.767,0.589-1.609,0.459-2.468c-0.325-2.151-1.395-3.946-3.278-4.362 c-0.133-0.03-0.274-0.053-0.421-0.068c-0.992-0.107-2.185,0.102-2.936,0.497c-0.648,0.341-1.343,0.517-2.041,0.523 c-0.697,0.006-1.394-0.159-2.046-0.488c-0.06-0.03-0.121-0.06-0.185-0.09c-0.794-0.371-1.962-0.559-2.914-0.435 c-0.094,0.012-0.184,0.027-0.272,0.045c-1.894,0.391-2.986,2.172-3.328,4.319c-0.009,0.056-0.016,0.113-0.021,0.169 c-0.072,0.821,0.288,1.624,0.47,2.358c-0.74-1.096-1.43-2.514-1.185-4.002C14.923,14.219,16.458,12.389,18.567,12.029z"/><path fill="#C99771" d="M18.57,12.057c1.082-0.184,2.294,0.033,3.185,0.466c1.412,0.685,3.024,0.693,4.44,0.023 c0.046-0.022,0.093-0.043,0.14-0.065c0.888-0.403,2.048-0.601,3.095-0.423c2.106,0.36,3.633,2.191,3.997,4.399 c0.245,1.488-0.455,2.906-1.194,4.002c0.19-0.767,0.599-1.61,0.47-2.469c-0.325-2.154-1.384-3.952-3.268-4.365 c-0.133-0.03-0.274-0.052-0.42-0.067c-0.99-0.105-2.189,0.106-2.937,0.5c-0.648,0.341-1.343,0.517-2.04,0.523 c-0.697,0.006-1.394-0.16-2.045-0.49c-0.059-0.03-0.121-0.06-0.184-0.089c-0.792-0.37-1.965-0.558-2.914-0.436 c-0.094,0.012-0.184,0.027-0.272,0.045c-1.894,0.39-2.974,2.174-3.316,4.324c-0.009,0.056-0.016,0.113-0.021,0.169 c-0.07,0.82,0.299,1.623,0.481,2.355c-0.739-1.096-1.439-2.514-1.194-4.002C14.937,14.249,16.464,12.417,18.57,12.057z"/><path fill="#C89670" d="M18.573,12.085c1.081-0.184,2.296,0.035,3.185,0.467c1.41,0.686,3.021,0.693,4.436,0.021 c0.046-0.022,0.093-0.043,0.14-0.065c0.886-0.402,2.049-0.601,3.093-0.424c2.103,0.36,3.623,2.193,3.986,4.4 c0.245,1.488-0.465,2.906-1.203,4.003c0.19-0.767,0.609-1.61,0.48-2.469c-0.325-2.157-1.373-3.959-3.258-4.369 c-0.133-0.029-0.273-0.051-0.42-0.066c-0.989-0.102-2.193,0.109-2.938,0.502c-0.647,0.341-1.342,0.518-2.039,0.523 c-0.697,0.005-1.393-0.161-2.044-0.492c-0.059-0.03-0.12-0.059-0.184-0.089c-0.79-0.368-1.967-0.557-2.914-0.436 c-0.094,0.012-0.185,0.026-0.272,0.044c-1.895,0.388-2.962,2.177-3.303,4.33c-0.009,0.056-0.016,0.113-0.02,0.169 c-0.068,0.819,0.31,1.621,0.491,2.353c-0.738-1.096-1.447-2.515-1.203-4.003C14.95,14.278,16.47,12.446,18.573,12.085z"/><path fill="#C8956F" d="M18.575,12.113c1.079-0.184,2.298,0.036,3.186,0.469c1.409,0.686,3.019,0.693,4.432,0.02 c0.046-0.022,0.092-0.043,0.139-0.065c0.885-0.401,2.05-0.601,3.091-0.424c2.1,0.36,3.612,2.194,3.974,4.402 c0.244,1.488-0.475,2.907-1.212,4.003c0.19-0.767,0.619-1.611,0.49-2.47c-0.325-2.161-1.362-3.965-3.248-4.372 c-0.132-0.029-0.273-0.051-0.419-0.065c-0.987-0.1-2.197,0.113-2.939,0.505c-0.647,0.342-1.342,0.518-2.038,0.523 c-0.696,0.005-1.392-0.162-2.042-0.494c-0.059-0.03-0.12-0.059-0.183-0.089c-0.788-0.366-1.97-0.556-2.914-0.437 c-0.094,0.012-0.185,0.026-0.272,0.044c-1.895,0.386-2.951,2.179-3.29,4.336c-0.009,0.056-0.016,0.113-0.02,0.169 c-0.066,0.818,0.321,1.619,0.501,2.35c-0.736-1.096-1.456-2.515-1.212-4.003C14.964,14.308,16.475,12.474,18.575,12.113z"/><path fill="#C7946E" d="M18.578,12.141c1.078-0.184,2.3,0.038,3.187,0.47c1.408,0.687,3.017,0.693,4.429,0.019 c0.046-0.022,0.092-0.043,0.139-0.065c0.883-0.401,2.05-0.601,3.09-0.424c2.097,0.36,3.601,2.196,3.963,4.403 c0.244,1.488-0.485,2.907-1.221,4.003c0.189-0.767,0.629-1.611,0.5-2.47c-0.325-2.164-1.351-3.972-3.238-4.376 c-0.132-0.029-0.272-0.05-0.418-0.064c-0.986-0.098-2.202,0.117-2.94,0.507c-0.647,0.342-1.341,0.518-2.037,0.523 c-0.696,0.005-1.392-0.163-2.041-0.496c-0.058-0.03-0.119-0.059-0.182-0.088c-0.786-0.365-1.973-0.555-2.914-0.437 c-0.094,0.011-0.185,0.026-0.272,0.044c-1.896,0.384-2.939,2.181-3.277,4.342c-0.009,0.056-0.016,0.113-0.02,0.169 c-0.064,0.817,0.331,1.617,0.512,2.347c-0.735-1.096-1.465-2.516-1.221-4.003C14.977,14.337,16.481,12.502,18.578,12.141z"/><path fill="#C7936D" d="M18.581,12.169c1.076-0.184,2.302,0.039,3.187,0.472c1.407,0.687,3.014,0.693,4.425,0.017 c0.045-0.022,0.092-0.043,0.139-0.064c0.882-0.4,2.051-0.602,3.088-0.424c2.094,0.36,3.59,2.197,3.952,4.404 c0.244,1.488-0.496,2.908-1.23,4.004c0.189-0.767,0.639-1.612,0.51-2.471c-0.325-2.167-1.339-3.978-3.228-4.379 c-0.131-0.028-0.271-0.049-0.418-0.063c-0.984-0.096-2.206,0.12-2.94,0.51c-0.646,0.343-1.341,0.519-2.036,0.523 c-0.696,0.004-1.391-0.164-2.04-0.498c-0.058-0.03-0.118-0.059-0.181-0.088c-0.784-0.363-1.976-0.553-2.915-0.438 c-0.094,0.011-0.185,0.026-0.272,0.043c-1.897,0.383-2.928,2.184-3.265,4.348c-0.009,0.056-0.015,0.113-0.02,0.169 c-0.062,0.816,0.342,1.615,0.522,2.344c-0.734-1.096-1.473-2.516-1.23-4.004C14.991,14.367,16.487,12.53,18.581,12.169z"/><path fill="#C6926C" d="M18.583,12.197c1.074-0.184,2.304,0.041,3.188,0.473c1.406,0.687,3.012,0.693,4.421,0.016 c0.045-0.022,0.091-0.043,0.138-0.064c0.88-0.399,2.052-0.602,3.086-0.425c2.091,0.36,3.579,2.199,3.94,4.406 c0.243,1.488-0.506,2.908-1.239,4.004c0.189-0.767,0.649-1.612,0.52-2.471c-0.325-2.17-1.328-3.985-3.218-4.382 c-0.131-0.028-0.271-0.049-0.417-0.062c-0.982-0.093-2.21,0.124-2.941,0.512c-0.646,0.343-1.34,0.519-2.035,0.523 c-0.695,0.004-1.39-0.165-2.039-0.5c-0.057-0.03-0.118-0.059-0.18-0.088c-0.782-0.361-1.979-0.552-2.915-0.439 c-0.094,0.011-0.185,0.025-0.272,0.043c-1.897,0.381-2.916,2.186-3.252,4.354c-0.009,0.056-0.015,0.113-0.019,0.169 c-0.061,0.815,0.353,1.613,0.533,2.341c-0.733-1.096-1.482-2.516-1.239-4.004C15.004,14.396,16.493,12.558,18.583,12.197z"/><path fill="#C5916B" d="M18.586,12.225c1.073-0.184,2.306,0.042,3.189,0.474c1.405,0.688,3.01,0.693,4.418,0.015 c0.045-0.022,0.091-0.043,0.138-0.064c0.879-0.398,2.053-0.602,3.084-0.425c2.087,0.36,3.569,2.2,3.929,4.407 c0.243,1.488-0.516,2.908-1.248,4.005c0.188-0.767,0.659-1.613,0.53-2.471c-0.325-2.173-1.317-3.991-3.208-4.386 c-0.131-0.028-0.27-0.048-0.416-0.061c-0.981-0.091-2.214,0.127-2.942,0.514c-0.646,0.343-1.339,0.519-2.034,0.523 c-0.695,0.004-1.39-0.166-2.038-0.502c-0.057-0.03-0.117-0.059-0.18-0.087c-0.78-0.359-1.982-0.551-2.915-0.439 c-0.094,0.011-0.185,0.025-0.272,0.043c-1.898,0.379-2.905,2.189-3.239,4.359c-0.009,0.056-0.015,0.113-0.019,0.169 c-0.059,0.813,0.364,1.612,0.543,2.339c-0.732-1.096-1.491-2.517-1.248-4.005C15.017,14.426,16.499,12.586,18.586,12.225z"/><path fill="#C5906A" d="M18.589,12.253c1.071-0.184,2.308,0.044,3.189,0.476c1.404,0.688,3.008,0.693,4.414,0.013 c0.045-0.022,0.091-0.043,0.137-0.064c0.877-0.398,2.053-0.602,3.082-0.425c2.084,0.36,3.558,2.202,3.918,4.409 c0.243,1.488-0.526,2.909-1.257,4.005c0.188-0.767,0.669-1.613,0.54-2.472c-0.325-2.176-1.306-3.998-3.199-4.389 c-0.13-0.027-0.27-0.047-0.416-0.06c-0.979-0.089-2.218,0.131-2.943,0.517c-0.646,0.344-1.339,0.52-2.033,0.523 c-0.695,0.003-1.389-0.167-2.037-0.504c-0.057-0.03-0.117-0.058-0.179-0.087c-0.778-0.358-1.985-0.55-2.915-0.44 c-0.094,0.011-0.185,0.025-0.272,0.042c-1.898,0.378-2.893,2.191-3.226,4.365c-0.009,0.056-0.015,0.113-0.019,0.169 c-0.057,0.812,0.375,1.61,0.554,2.336c-0.731-1.096-1.499-2.517-1.257-4.005C15.031,14.455,16.504,12.614,18.589,12.253z"/><path fill="#C48F69" d="M18.591,12.281c1.07-0.184,2.31,0.045,3.19,0.477c1.403,0.689,3.005,0.693,4.41,0.012 c0.045-0.022,0.09-0.043,0.137-0.064c0.876-0.397,2.054-0.602,3.08-0.425c2.081,0.36,3.547,2.203,3.906,4.41 c0.242,1.488-0.536,2.909-1.266,4.006c0.188-0.767,0.679-1.613,0.551-2.472c-0.325-2.179-1.295-4.004-3.189-4.393 c-0.13-0.027-0.269-0.047-0.415-0.059c-0.978-0.087-2.222,0.134-2.944,0.519c-0.645,0.344-1.338,0.52-2.033,0.523 c-0.694,0.003-1.388-0.168-2.035-0.506c-0.056-0.029-0.116-0.058-0.178-0.087c-0.776-0.356-1.988-0.549-2.915-0.44 c-0.094,0.011-0.185,0.025-0.272,0.042c-1.899,0.376-2.882,2.194-3.214,4.371c-0.009,0.056-0.015,0.113-0.019,0.169 c-0.055,0.811,0.386,1.608,0.564,2.333c-0.73-1.096-1.508-2.518-1.266-4.006C15.044,14.484,16.51,12.642,18.591,12.281z"/><path fill="#C48E68" d="M18.594,12.309c1.068-0.184,2.312,0.047,3.191,0.479c1.401,0.689,3.003,0.693,4.407,0.011 c0.045-0.022,0.09-0.043,0.136-0.064c0.875-0.396,2.055-0.602,3.078-0.426c2.078,0.36,3.536,2.205,3.895,4.412 c0.242,1.488-0.546,2.91-1.275,4.006c0.188-0.767,0.689-1.614,0.561-2.473c-0.325-2.182-1.284-4.011-3.179-4.396 c-0.13-0.027-0.269-0.046-0.414-0.059c-0.976-0.084-2.226,0.138-2.945,0.522c-0.645,0.344-1.338,0.52-2.032,0.523 c-0.694,0.003-1.388-0.169-2.034-0.508c-0.056-0.029-0.115-0.058-0.177-0.086c-0.774-0.354-1.991-0.548-2.915-0.441 c-0.094,0.011-0.185,0.025-0.272,0.042c-1.899,0.374-2.87,2.196-3.201,4.377c-0.009,0.056-0.015,0.113-0.018,0.169 c-0.053,0.81,0.397,1.606,0.575,2.33c-0.729-1.096-1.517-2.518-1.275-4.006C15.058,14.514,16.516,12.67,18.594,12.309z"/><path fill="#C38D67" d="M18.597,12.337c1.066-0.184,2.314,0.048,3.191,0.48c1.4,0.69,3.001,0.693,4.403,0.009 c0.044-0.022,0.09-0.043,0.136-0.064c0.873-0.395,2.055-0.602,3.076-0.426c2.075,0.36,3.526,2.206,3.884,4.413 c0.241,1.488-0.556,2.91-1.284,4.007c0.187-0.767,0.699-1.614,0.571-2.473c-0.325-2.185-1.273-4.018-3.169-4.4 c-0.129-0.026-0.268-0.045-0.413-0.058c-0.974-0.082-2.23,0.141-2.946,0.524c-0.645,0.345-1.337,0.521-2.031,0.523 c-0.694,0.002-1.387-0.17-2.033-0.509c-0.056-0.029-0.115-0.058-0.176-0.086c-0.772-0.353-1.994-0.547-2.916-0.442 c-0.094,0.011-0.185,0.024-0.272,0.041c-1.9,0.372-2.859,2.199-3.188,4.383c-0.009,0.056-0.015,0.113-0.018,0.169 c-0.051,0.809,0.408,1.604,0.585,2.327c-0.728-1.096-1.526-2.519-1.284-4.007C15.071,14.543,16.522,12.698,18.597,12.337z"/><path fill="#C28C66" d="M18.599,12.365c1.065-0.184,2.316,0.05,3.192,0.482c1.399,0.69,2.998,0.693,4.399,0.008 c0.044-0.022,0.09-0.043,0.136-0.064c0.872-0.394,2.056-0.602,3.074-0.426c2.072,0.36,3.515,2.208,3.873,4.415 c0.241,1.488-0.567,2.911-1.293,4.007c0.187-0.767,0.709-1.615,0.581-2.474c-0.325-2.189-1.262-4.024-3.159-4.403 c-0.129-0.026-0.267-0.045-0.413-0.057c-0.973-0.08-2.234,0.145-2.946,0.527c-0.644,0.345-1.337,0.521-2.03,0.523 c-0.693,0.002-1.386-0.171-2.032-0.511c-0.055-0.029-0.114-0.058-0.176-0.086c-0.77-0.351-1.997-0.545-2.916-0.442 c-0.095,0.01-0.186,0.024-0.272,0.041c-1.9,0.371-2.847,2.201-3.175,4.389c-0.009,0.056-0.015,0.113-0.018,0.169 c-0.049,0.808,0.419,1.602,0.595,2.325c-0.727-1.096-1.534-2.519-1.293-4.007C15.085,14.573,16.528,12.726,18.599,12.365z"/><path fill="#C28B65" d="M18.602,12.393c1.063-0.184,2.318,0.051,3.193,0.483c1.398,0.691,2.996,0.693,4.396,0.007 c0.044-0.022,0.089-0.043,0.135-0.063c0.87-0.394,2.057-0.602,3.072-0.427c2.069,0.36,3.504,2.209,3.861,4.416 c0.241,1.488-0.577,2.911-1.302,4.007c0.187-0.767,0.719-1.615,0.591-2.474c-0.325-2.192-1.251-4.031-3.149-4.406 c-0.128-0.026-0.267-0.044-0.412-0.056c-0.971-0.077-2.238,0.149-2.947,0.529c-0.644,0.345-1.336,0.521-2.029,0.523 c-0.693,0.002-1.386-0.171-2.031-0.513c-0.055-0.029-0.114-0.058-0.175-0.085c-0.768-0.349-2-0.544-2.916-0.443 c-0.095,0.01-0.186,0.024-0.272,0.041c-1.901,0.369-2.836,2.203-3.163,4.394c-0.009,0.056-0.014,0.112-0.018,0.169 c-0.047,0.807,0.43,1.601,0.606,2.322c-0.726-1.096-1.543-2.52-1.302-4.007C15.098,14.602,16.533,12.754,18.602,12.393z"/><path fill="#C18A64" d="M18.605,12.421c1.061-0.184,2.32,0.053,3.193,0.485c1.397,0.691,2.994,0.693,4.392,0.005 c0.044-0.022,0.089-0.043,0.135-0.063c0.869-0.393,2.058-0.602,3.071-0.427c2.066,0.36,3.493,2.211,3.85,4.418 c0.24,1.488-0.587,2.912-1.311,4.008c0.186-0.767,0.728-1.616,0.601-2.475c-0.325-2.195-1.24-4.037-3.139-4.41 c-0.128-0.025-0.266-0.043-0.411-0.055c-0.97-0.075-2.242,0.152-2.948,0.532c-0.644,0.346-1.335,0.522-2.028,0.523 c-0.693,0.001-1.385-0.172-2.029-0.515c-0.055-0.029-0.113-0.057-0.174-0.085c-0.766-0.348-2.003-0.543-2.916-0.444 c-0.095,0.01-0.186,0.024-0.272,0.04c-1.901,0.367-2.824,2.206-3.15,4.4c-0.009,0.056-0.014,0.112-0.017,0.169 c-0.045,0.806,0.441,1.599,0.616,2.319c-0.724-1.096-1.552-2.52-1.311-4.008C15.111,14.632,16.539,12.782,18.605,12.421z"/><path fill="#C18963" d="M18.607,12.449c1.06-0.184,2.322,0.054,3.194,0.486c1.396,0.692,2.992,0.693,4.388,0.004 c0.044-0.022,0.089-0.043,0.134-0.063c0.867-0.392,2.058-0.602,3.069-0.427c2.063,0.36,3.483,2.212,3.839,4.419 c0.24,1.488-0.597,2.912-1.32,4.008c0.186-0.767,0.738-1.616,0.611-2.475c-0.325-2.198-1.229-4.044-3.129-4.413 c-0.128-0.025-0.266-0.043-0.411-0.054c-0.968-0.073-2.246,0.156-2.949,0.534c-0.643,0.346-1.335,0.522-2.027,0.523 c-0.692,0.001-1.384-0.173-2.028-0.517c-0.054-0.029-0.112-0.057-0.173-0.085c-0.764-0.346-2.006-0.542-2.916-0.444 c-0.095,0.01-0.186,0.023-0.272,0.04c-1.902,0.366-2.808,2.209-3.137,4.406c-0.008,0.056-0.014,0.112-0.017,0.169 c-0.043,0.805,0.452,1.597,0.627,2.316c-0.723-1.096-1.56-2.52-1.32-4.008C15.125,14.661,16.545,12.81,18.607,12.449z"/><path fill="#C08862" d="M18.61,12.477c1.058-0.184,2.324,0.055,3.195,0.488c1.395,0.692,2.989,0.693,4.385,0.003 c0.044-0.022,0.088-0.042,0.134-0.063c0.866-0.391,2.059-0.602,3.067-0.427c2.059,0.36,3.472,2.214,3.827,4.421 c0.24,1.488-0.607,2.912-1.329,4.009c0.186-0.767,0.748-1.617,0.621-2.475c-0.325-2.201-1.218-4.05-3.119-4.417 c-0.127-0.025-0.265-0.042-0.41-0.053c-0.966-0.071-2.25,0.159-2.95,0.536c-0.643,0.347-1.334,0.523-2.026,0.523 c-0.692,0.001-1.384-0.174-2.027-0.519c-0.054-0.029-0.112-0.057-0.172-0.084c-0.762-0.344-2.009-0.541-2.917-0.445 c-0.095,0.01-0.186,0.023-0.272,0.04c-1.902,0.364-2.797,2.211-3.124,4.412c-0.008,0.056-0.014,0.112-0.017,0.169 c-0.041,0.803,0.463,1.595,0.637,2.313c-0.722-1.096-1.569-2.521-1.329-4.009C15.138,14.691,16.551,12.838,18.61,12.477z"/><path fill="#C08761" d="M18.613,12.505c1.057-0.184,2.326,0.057,3.195,0.489c1.394,0.693,2.987,0.693,4.381,0.001 c0.043-0.022,0.088-0.042,0.133-0.063c0.864-0.391,2.06-0.603,3.065-0.428c2.056,0.36,3.461,2.215,3.816,4.422 c0.239,1.488-0.617,2.913-1.338,4.009c0.186-0.767,0.758-1.617,0.632-2.476c-0.325-2.204-1.207-4.057-3.109-4.42 c-0.127-0.024-0.264-0.041-0.409-0.052c-0.965-0.068-2.254,0.163-2.951,0.539c-0.643,0.347-1.334,0.523-2.026,0.523 c-0.692,0-1.383-0.175-2.026-0.521c-0.054-0.029-0.111-0.057-0.172-0.084c-0.76-0.342-2.012-0.54-2.917-0.445 c-0.095,0.01-0.186,0.023-0.272,0.039c-1.903,0.362-2.785,2.214-3.112,4.418c-0.008,0.056-0.014,0.112-0.017,0.169 c-0.039,0.802,0.474,1.593,0.648,2.311c-0.721-1.096-1.578-2.521-1.338-4.009C15.152,14.72,16.556,12.866,18.613,12.505z"/><path fill="#BF8660" d="M31.842,20.967c0.185-0.767,0.77-1.618,0.642-2.476c-0.321-2.208-1.196-4.063-3.099-4.424 c-0.97-0.184-2.562,0.061-3.36,0.491c-0.642,0.349-1.333,0.523-2.025,0.523c-0.692,0-1.383-0.174-2.025-0.523 c-0.798-0.429-2.39-0.675-3.36-0.491c-1.903,0.36-2.778,2.216-3.099,4.424c-0.128,0.859,0.456,1.71,0.642,2.476 c-0.72-1.096-1.59-2.522-1.347-4.01c0.349-2.208,1.752-4.063,3.805-4.424c1.055-0.184,2.326,0.061,3.196,0.491 c1.39,0.698,2.987,0.698,4.377,0c0.87-0.429,2.141-0.675,3.196-0.491c2.053,0.36,3.455,2.216,3.805,4.424 C33.432,18.444,32.562,19.87,31.842,20.967z"/></g><radialGradient id="F35Sbi4rwCCl4lh45hcqlo" cx="18.195" cy="41.706" r="6.933" gradientTransform="matrix(1.025 0 0 1.1143 5.35 -18.675)" gradientUnits="userSpaceOnUse"><stop offset="0" stop-color="#ddb993"/><stop offset=".509" stop-color="#dcb791"/><stop offset=".692" stop-color="#d7b08a"/><stop offset=".823" stop-color="#d0a57f"/><stop offset=".928" stop-color="#c5946e"/><stop offset="1" stop-color="#ba835e"/></radialGradient><path fill="url(#F35Sbi4rwCCl4lh45hcqlo)" d="M32,27.079C32,24.561,27,20,24,20s-8,4.561-8,7.079C16,30.355,19.582,34,24,34S32,30.355,32,27.079z"/><g><path fill="#3A1A0F" d="M31.961,17.756c0-1.603-1.325-2.903-2.96-2.903c-1.635,0-2.96,1.3-2.96,2.903C26.04,18.171,27.365,19,29,19 C30.635,19,31.961,18.171,31.961,17.756z"/><radialGradient id="F35Sbi4rwCCl4lh45hcqlp" cx="12.031" cy="-2.234" r="1.851" gradientTransform="translate(16 19.414) scale(1.0804)" gradientUnits="userSpaceOnUse"><stop offset="0" stop-color="#824023"/><stop offset=".349" stop-color="#803f22"/><stop offset=".528" stop-color="#783b20"/><stop offset=".669" stop-color="#6b341d"/><stop offset=".79" stop-color="#582a17"/><stop offset=".896" stop-color="#3f1d10"/><stop offset=".916" stop-color="#3a1a0f"/></radialGradient><circle cx="29" cy="17" r="2" fill="url(#F35Sbi4rwCCl4lh45hcqlp)"/><path fill="#DDB993" d="M31.961,17.756c-0.138-0.728-1.494-2.458-2.983-2.458c-1.489,0-2.799,1.73-2.938,2.458 c-0.138-0.73,0.086-1.54,0.632-2.16c0.532-0.628,1.415-1.042,2.328-1.039c0.913-0.002,1.795,0.412,2.327,1.039 C31.873,16.216,32.098,17.026,31.961,17.756z"/><radialGradient id="F35Sbi4rwCCl4lh45hcqlq" cx="-51.368" cy="7.6" r=".657" gradientTransform="translate(107.155 5.437) scale(1.5215)" gradientUnits="userSpaceOnUse"><stop offset="0" stop-color="#1c1911"/><stop offset=".999" stop-color="#171714"/></radialGradient><circle cx="29" cy="17" r="1" fill="url(#F35Sbi4rwCCl4lh45hcqlq)"/><ellipse cx="28.605" cy="16.408" fill="#FFF" rx=".372" ry=".37"/></g><g><path fill="#3A1A0F" d="M16.049,17.756c0-1.603,1.323-2.903,2.956-2.903s2.956,1.3,2.956,2.903c0,0.415-1.323,1.244-2.956,1.244 S16.049,18.171,16.049,17.756z"/><radialGradient id="F35Sbi4rwCCl4lh45hcqlr" cx="-414.661" cy="-2.236" r="1.851" gradientTransform="matrix(-1.0804 0 0 1.0804 -429.02 19.415)" gradientUnits="userSpaceOnUse"><stop offset="0" stop-color="#824023"/><stop offset=".349" stop-color="#803f22"/><stop offset=".528" stop-color="#783b20"/><stop offset=".669" stop-color="#6b341d"/><stop offset=".79" stop-color="#582a17"/><stop offset=".896" stop-color="#3f1d10"/><stop offset=".916" stop-color="#3a1a0f"/></radialGradient><circle cx="19" cy="17" r="2" fill="url(#F35Sbi4rwCCl4lh45hcqlr)"/><path fill="#DDB993" d="M16.049,17.756c-0.137-0.73,0.087-1.54,0.632-2.159c0.531-0.628,1.412-1.042,2.324-1.039 c0.912-0.003,1.793,0.411,2.325,1.039c0.545,0.62,0.769,1.43,0.631,2.16c-0.139-0.728-1.447-2.458-2.933-2.458 C17.54,15.298,16.187,17.028,16.049,17.756z"/><radialGradient id="F35Sbi4rwCCl4lh45hcqls" cx="-353.279" cy="7.599" r=".657" gradientTransform="matrix(-1.5215 0 0 1.5215 -518.508 5.439)" gradientUnits="userSpaceOnUse"><stop offset="0" stop-color="#1c1911"/><stop offset=".999" stop-color="#171714"/></radialGradient><circle cx="19" cy="17" r="1" fill="url(#F35Sbi4rwCCl4lh45hcqls)"/><circle cx="18.655" cy="16.408" r=".371" fill="#FFF"/></g><g><linearGradient id="F35Sbi4rwCCl4lh45hcqlt" x1="24" x2="24" y1="20" y2="24" gradientUnits="userSpaceOnUse"><stop offset="0" stop-color="#ddb993"/><stop offset="1" stop-color="#dcb892" stop-opacity="0"/></linearGradient><path fill="url(#F35Sbi4rwCCl4lh45hcqlt)" d="M26.53,23.984c0.251-0.333,0.47-0.79,0.47-1.372c0-1.046-1.419-2.092-2.075-2.52 c-0.19-0.124-1.66-0.124-1.85,0C22.419,20.52,21,21.567,21,22.613c0,0.591,0.226,1.053,0.482,1.387"/><radialGradient id="F35Sbi4rwCCl4lh45hcqlu" cx="95.549" cy="66.61" r="3.99" gradientTransform="matrix(.7688 0 0 1.0146 -49.487 -43.85)" gradientUnits="userSpaceOnUse"><stop offset="0" stop-color="#ddb993" stop-opacity="0"/><stop offset=".483" stop-color="#ddb993" stop-opacity="0"/><stop offset=".566" stop-color="#ddb993" stop-opacity="0"/><stop offset=".666" stop-color="#d8b28c" stop-opacity=".23"/><stop offset=".815" stop-color="#c99d79" stop-opacity=".573"/><stop offset=".994" stop-color="#b17c59" stop-opacity=".985"/><stop offset="1" stop-color="#b07b58"/></radialGradient><path fill="url(#F35Sbi4rwCCl4lh45hcqlu)" d="M26.53,23.984c0.251-0.333,0.47-0.79,0.47-1.372c0-1.046-1.419-2.092-2.075-2.52 c-0.19-0.124-1.66-0.124-1.85,0C22.419,20.52,21,21.567,21,22.613c0,0.591,0.226,1.053,0.482,1.387"/><path fill="#3A1A0F" d="M26.173,21.649c0.195,0.215-0.016,0.963-0.258,1.183c-0.242,0.22-0.596,0.224-0.791,0.009 s-0.158-0.568,0.084-0.788C25.45,21.833,25.978,21.434,26.173,21.649z"/><path fill="#3A1A0F" d="M22.791,22.053c0.242,0.22,0.279,0.573,0.084,0.788s-0.549,0.211-0.791-0.009 c-0.242-0.22-0.453-0.968-0.258-1.183S22.55,21.833,22.791,22.053z"/></g><g><radialGradient id="F35Sbi4rwCCl4lh45hcqlv" cx="-63.788" cy="44.24" r="3.53" gradientTransform="matrix(1.4236 0 0 1.6155 114.854 -43.622)" gradientUnits="userSpaceOnUse"><stop offset=".696" stop-color="#c4946f"/><stop offset=".804" stop-color="#ca9c77" stop-opacity=".643"/><stop offset=".976" stop-color="#dab38d" stop-opacity=".079"/><stop offset="1" stop-color="#ddb791" stop-opacity="0"/></radialGradient><path fill="url(#F35Sbi4rwCCl4lh45hcqlv)" d="M24,32c-4.03,0-5-3.616-5-3.616S19.932,34,24,34s5-5.616,5-5.616S28.03,32,24,32z"/><radialGradient id="F35Sbi4rwCCl4lh45hcqlw" cx="18.958" cy="4.364" r="4.994" fx="18.958" fy="4.551" gradientTransform="matrix(1.0192 0 0 .6424 4.679 25.017)" gradientUnits="userSpaceOnUse"><stop offset="0" stop-color="#c6916b"/><stop offset=".81" stop-color="#ce9e78"/><stop offset="1" stop-color="#d2a67f" stop-opacity="0"/></radialGradient><path fill="url(#F35Sbi4rwCCl4lh45hcqlw)" d="M29,28.384c0,0-1,3.616-5,3.616s-5-3.616-5-3.616S20,30,24,30S29,28.384,29,28.384z"/><path fill="#35190C" d="M20.25,28.579c-0.216,0-1.25-0.195-1.25-0.195C19.791,29.965,22.678,30,24,30c1.437,0,4.209-0.035,5-1.616 c0,0-1.034,0.195-1.25,0.195c-1.221,0.215-2.52-0.196-3.75-0.195C22.77,28.385,21.49,28.798,20.25,28.579z"/><radialGradient id="F35Sbi4rwCCl4lh45hcqlx" cx="8.846" cy="28.72" r="5.246" gradientTransform="matrix(1.0677 0 0 .1303 14.49 24.976)" gradientUnits="userSpaceOnUse"><stop offset="0" stop-color="#c6916b"/><stop offset=".185" stop-color="#d2a37e"/><stop offset=".418" stop-color="#ddb28f"/><stop offset=".676" stop-color="#e3bb99"/><stop offset="1" stop-color="#e5be9c"/></radialGradient><path fill="url(#F35Sbi4rwCCl4lh45hcqlx)" d="M19,28.384c0.848,0.063,1.665,0.059,2.468-0.119c0.806-0.163,1.68-0.267,2.532-0.269 c0.853-0.002,1.72,0.087,2.537,0.244c0.803,0.176,1.607,0.185,2.463,0.145c-0.773,0.317-1.663,0.464-2.525,0.441 c-0.848-0.013-1.653-0.058-2.475-0.052c-0.825-0.017-1.619,0.035-2.478,0.043C20.657,28.81,19.782,28.682,19,28.384z"/></g><g><path fill="#6B402A" d="M32,44l0.483-3.953c0-0.649,0.922-1.953,2.054-0.072C35.856,42.167,36,44,36,44H32z"/><path fill="#6A3F29" d="M32.071,44l0.465-3.828c0-0.629,0.887-1.891,1.976-0.07C35.782,42.225,35.92,44,35.92,44H32.071z"/><path fill="#693E29" d="M32.143,44l0.447-3.703c0-0.608,0.852-1.83,1.899-0.067c1.219,2.053,1.352,3.77,1.352,3.77H32.143z"/><path fill="#683D28" d="M32.214,44l0.429-3.578c0-0.588,0.817-1.768,1.821-0.065C35.634,42.341,35.761,44,35.761,44H32.214z"/><path fill="#673C27" d="M32.286,44l0.41-3.453c0-0.567,0.782-1.706,1.744-0.063C35.56,42.399,35.681,44,35.681,44H32.286z"/><path fill="#663B27" d="M32.357,44l0.392-3.328c0-0.547,0.748-1.645,1.666-0.061C35.485,42.456,35.602,44,35.602,44H32.357z"/><path fill="#653A26" d="M32.429,44l0.374-3.204c0-0.526,0.713-1.583,1.588-0.058C35.411,42.514,35.522,44,35.522,44H32.429z"/><path fill="#643926" d="M32.5,44l0.355-3.079c0-0.506,0.678-1.521,1.511-0.056C35.337,42.572,35.443,44,35.443,44H32.5z"/><path fill="#633825" d="M32.572,44l0.337-2.954c0-0.485,0.643-1.46,1.433-0.054C35.263,42.63,35.363,44,35.363,44H32.572z"/><path fill="#623724" d="M32.643,44l0.319-2.829c0-0.465,0.608-1.398,1.356-0.051C35.188,42.688,35.283,44,35.283,44H32.643z"/><path fill="#623724" d="M32.715,44l0.301-2.704c0-0.444,0.573-1.336,1.278-0.049c0.821,1.499,0.91,2.754,0.91,2.754H32.715z"/><path fill="#613623" d="M32.786,44l0.282-2.58c0-0.424,0.539-1.275,1.2-0.047C35.04,42.804,35.124,44,35.124,44H32.786z"/><path fill="#603522" d="M32.858,44l0.264-2.455c0-0.403,0.504-1.213,1.123-0.045c0.721,1.361,0.8,2.499,0.8,2.499H32.858z"/><path fill="#5F3422" d="M32.929,44l0.246-2.33c0-0.383,0.469-1.151,1.045-0.042C34.892,42.92,34.965,44,34.965,44H32.929z"/><path fill="#5E3321" d="M33.001,44l0.228-2.205c0-0.362,0.434-1.09,0.968-0.04C34.817,42.977,34.885,44,34.885,44H33.001z"/><path fill="#5D3221" d="M33.072,44l0.209-2.08c0-0.342,0.399-1.028,0.89-0.038C34.743,43.035,34.805,44,34.805,44H33.072z"/><path fill="#5C3120" d="M33.144,44l0.191-1.955c0-0.321,0.365-0.966,0.812-0.036C34.669,43.093,34.726,44,34.726,44H33.144z"/><path fill="#5B301F" d="M33.215,44l0.173-1.831c0-0.301,0.33-0.905,0.735-0.033C34.595,43.151,34.646,44,34.646,44H33.215z"/><path fill="#5A2F1F" d="M33.287,44l0.155-1.706c0-0.28,0.295-0.843,0.657-0.031C34.521,43.209,34.566,44,34.566,44H33.287z"/><path fill="#592E1E" d="M33.358,44l0.136-1.581c0-0.26,0.26-0.781,0.58-0.029c0.372,0.877,0.413,1.61,0.413,1.61H33.358z"/></g></svg>