<svg xmlns="http://www.w3.org/2000/svg" viewBox="0 0 48 48"><radialGradient id="ReM0lVjMpmdqwS~GN85bua" cx="24" cy="30.813" r="24.973" gradientTransform="matrix(1 0 0 1.9953 0 -30.667)" gradientUnits="userSpaceOnUse"><stop offset="0" stop-color="#614e3e"/><stop offset=".245" stop-color="#665242"/><stop offset=".524" stop-color="#735f4f"/><stop offset=".817" stop-color="#8a7463"/><stop offset="1" stop-color="#9c8573"/></radialGradient><path fill="url(#ReM0lVjMpmdqwS~GN85bua)" d="M37.961,14.596H10.039C10.039,14.596,6,24.493,6,37c0,4.62,12.425,5,18,5s18-0.38,18-5	C42,24.493,37.961,14.596,37.961,14.596z"/><radialGradient id="ReM0lVjMpmdqwS~GN85bub" cx="24.4" cy="7.319" r="15.435" gradientTransform="matrix(-1 0 0 1.0092 48 -.068)" gradientUnits="userSpaceOnUse"><stop offset="0" stop-color="#9c8573"/><stop offset=".453" stop-color="#816c5b"/><stop offset=".911" stop-color="#614e3e"/></radialGradient><path fill="url(#ReM0lVjMpmdqwS~GN85bub)" d="M9.843,12.032c3.176-1.099,3.726-3.77,7.268-5.663c2.376-1.27,4.251-1.573,6.889-1.177	c2.532-0.42,4.514-0.092,6.889,1.177c3.542,1.893,4.092,4.564,7.268,5.663c1.695,0.587,0.767,5.19,0.767,6.078	c0,6.046-4.242,7.817-6.08,8.397c-2.321,0.733-5.13,2.687-8.844,2.687s-6.523-1.954-8.844-2.687c-1.838-0.58-6.08-2.351-6.08-8.397	C9.076,17.222,8.148,12.618,9.843,12.032z"/><radialGradient id="ReM0lVjMpmdqwS~GN85buc" cx="23.894" cy="20.109" r="15.108" gradientTransform="matrix(-1 0 0 .6655 48 6.727)" gradientUnits="userSpaceOnUse"><stop offset="0" stop-color="#ecddbe"/><stop offset=".196" stop-color="#e8d8ba"/><stop offset=".419" stop-color="#dbcaae"/><stop offset=".657" stop-color="#c6b49b"/><stop offset=".903" stop-color="#a99480"/><stop offset="1" stop-color="#9c8573"/></radialGradient><path fill="url(#ReM0lVjMpmdqwS~GN85buc)" d="M15.909,14.969c2.74,2.348,3.924-2.577,8.091,0.829c4.167-3.406,5.351,1.519,8.091-0.829	c2.692-2.307,5.833,0.896,5.833,4.141c0,6.046-3.242,6.817-5.08,7.397c-2.321,0.733-5.13,2.687-8.844,2.687	s-6.523-1.954-8.844-2.687c-1.838-0.58-5.08-1.351-5.08-7.397C10.076,15.865,13.217,12.662,15.909,14.969z"/><radialGradient id="ReM0lVjMpmdqwS~GN85bud" cx="38.068" cy="15.655" r="4.659" gradientTransform="matrix(.4789 -.8779 .7305 .3985 8.403 42.837)" gradientUnits="userSpaceOnUse"><stop offset="0" stop-color="#3b3026"/><stop offset=".773" stop-color="#614e3e"/><stop offset="1" stop-color="#9c8573"/></radialGradient><path fill="url(#ReM0lVjMpmdqwS~GN85bud)" d="M36.411,12.049c0,0.134,0.526,0.375,0.605,0.725c0.04,0.175-0.562-0.004-0.501,0.203	c0.047,0.158,0.542,0.397,0.597,0.565c0.056,0.169-0.434,0.074-0.373,0.245c0.057,0.158,0.831,0.625,0.89,0.779	c0.058,0.151-0.641,0.07-0.584,0.212c0.064,0.158,0.675,0.435,0.735,0.574c0.084,0.194-0.373,0.212-0.262,0.524	c0.039,0.111,0.545,0.381,0.584,0.443c0.07,0.111-0.241,0.268-0.161,0.393c0.097,0.152,0.497,0.173,0.594,0.322	c0.11,0.169-0.3,0.331-0.171,0.423c0.322,0.232,0.546,0.663,0.546,0.663s0.238-0.68,0.374-1.156C39.419,16.487,41,14.887,41,14	c0-0.904-0.554-3-2.254-3c-1.148,0-1.521,0.302-1.877,0.577c-0.196,0.151,0.066,0.266,0.004,0.319	C36.759,11.994,36.41,11.655,36.411,12.049z"/><radialGradient id="ReM0lVjMpmdqwS~GN85bue" cx="67.479" cy="15.655" r="4.659" gradientTransform="matrix(-.4789 -.8779 -.7305 .3985 53.68 68.656)" gradientUnits="userSpaceOnUse"><stop offset="0" stop-color="#3b3026"/><stop offset=".773" stop-color="#614e3e"/><stop offset="1" stop-color="#9c8573"/></radialGradient><path fill="url(#ReM0lVjMpmdqwS~GN85bue)" d="M11.589,12.049c0,0.134-0.526,0.375-0.605,0.725c-0.04,0.175,0.562-0.004,0.501,0.203	c-0.047,0.158-0.542,0.397-0.597,0.565c-0.056,0.169,0.434,0.074,0.373,0.245c-0.057,0.158-0.831,0.625-0.89,0.779	c-0.058,0.151,0.641,0.07,0.584,0.212c-0.064,0.158-0.675,0.435-0.735,0.574c-0.084,0.194,0.373,0.212,0.262,0.524	c-0.039,0.111-0.545,0.381-0.584,0.443c-0.07,0.111,0.241,0.268,0.161,0.393c-0.097,0.152-0.497,0.173-0.594,0.322	c-0.11,0.169,0.3,0.331,0.171,0.423c-0.322,0.232-0.546,0.663-0.546,0.663s-0.238-0.68-0.374-1.156C8.581,16.487,7,14.887,7,14	c0-0.904,0.554-3,2.254-3c1.148,0,1.521,0.302,1.877,0.577c0.196,0.151-0.066,0.266-0.004,0.319	C11.241,11.994,11.59,11.655,11.589,12.049z"/><radialGradient id="ReM0lVjMpmdqwS~GN85buf" cx="31" cy="12.282" r="1.768" gradientTransform="matrix(.75 0 0 .9884 7.25 .29)" gradientUnits="userSpaceOnUse"><stop offset=".318"/><stop offset=".331" stop-color="#040302"/><stop offset=".344" stop-color="#100a08"/><stop offset=".357" stop-color="#241713"/><stop offset=".37" stop-color="#402821"/><stop offset=".646" stop-color="#382019"/><stop offset="1" stop-color="#281007"/></radialGradient><path fill="url(#ReM0lVjMpmdqwS~GN85buf)" d="M29.869,11.117c-0.41,0.157-0.676,0.504-0.86,0.912C29.006,12.065,29,12.106,29,12.135	C29,13.25,29.653,14,30.391,14C31.122,14,32,13.291,32,11.898c0-0.154-0.032-0.267-0.063-0.378	C31.407,11.15,30.657,10.815,29.869,11.117z"/><ellipse cx="30.213" cy="11.926" fill="#bababa" rx=".405" ry=".4"/><radialGradient id="ReM0lVjMpmdqwS~GN85bug" cx="31" cy="12.282" r="1.768" gradientTransform="matrix(-.75 0 0 .9884 40.75 .29)" gradientUnits="userSpaceOnUse"><stop offset=".318"/><stop offset=".331" stop-color="#040302"/><stop offset=".344" stop-color="#100a08"/><stop offset=".357" stop-color="#241713"/><stop offset=".37" stop-color="#402821"/><stop offset=".646" stop-color="#382019"/><stop offset="1" stop-color="#281007"/></radialGradient><path fill="url(#ReM0lVjMpmdqwS~GN85bug)" d="M18.131,11.117c0.41,0.157,0.676,0.504,0.86,0.912C18.994,12.065,19,12.106,19,12.135	C19,13.25,18.347,14,17.609,14C16.878,14,16,13.291,16,11.898c0-0.154,0.032-0.267,0.063-0.378	C16.593,11.15,17.343,10.815,18.131,11.117z"/><ellipse cx="17.375" cy="11.926" fill="#bababa" rx=".405" ry=".4"/><radialGradient id="ReM0lVjMpmdqwS~GN85buh" cx="27.992" cy="18.504" r="2.911" gradientTransform="matrix(1.5176 0 0 1.2809 -15.127 -5.416)" gradientUnits="userSpaceOnUse"><stop offset="0" stop-color="#f7f2e6"/><stop offset="1" stop-color="#ecddbe" stop-opacity="0"/></radialGradient><ellipse cx="27.355" cy="18.284" fill="url(#ReM0lVjMpmdqwS~GN85buh)" rx="4.418" ry="3.728"/><radialGradient id="ReM0lVjMpmdqwS~GN85bui" cx="27.992" cy="18.504" r="2.911" gradientTransform="matrix(-1.5176 0 0 1.2809 63.127 -5.416)" gradientUnits="userSpaceOnUse"><stop offset="0" stop-color="#f7f2e6"/><stop offset="1" stop-color="#ecddbe" stop-opacity="0"/></radialGradient><ellipse cx="20.645" cy="18.284" fill="url(#ReM0lVjMpmdqwS~GN85bui)" rx="4.418" ry="3.728"/><radialGradient id="ReM0lVjMpmdqwS~GN85buj" cx="23.867" cy="5.056" r="16.489" gradientUnits="userSpaceOnUse"><stop offset="0" stop-color="#2e2b2a"/><stop offset=".739" stop-color="#2e2b2a"/><stop offset=".843" stop-color="#322f2e"/><stop offset=".95" stop-color="#3e3a39"/><stop offset="1" stop-color="#474241"/></radialGradient><path fill="url(#ReM0lVjMpmdqwS~GN85buj)" d="M18,22c1,0,4.981-1.008,6-3.279C25.011,20.975,29,22,30,22c-1.007,1.887-4.747-1.203-6-1.203	S18.791,23.8,18,22z"/><radialGradient id="ReM0lVjMpmdqwS~GN85buk" cx="23.994" cy="20.9" r="2.491" gradientTransform="matrix(.0153 .9999 -3.2362 .0494 91.266 -4.124)" gradientUnits="userSpaceOnUse"><stop offset="0" stop-color="#ba8a80"/><stop offset="1" stop-color="#ba8a80" stop-opacity="0"/></radialGradient><path fill="url(#ReM0lVjMpmdqwS~GN85buk)" d="M18,22c0.156,3.259,4.981,5.043,6,2.772c1.011,2.254,6.465,0.663,6-2.772	c-1.007,1.887-4.747-1.203-6-1.203S18.791,23.8,18,22z"/><linearGradient id="ReM0lVjMpmdqwS~GN85bul" x1="-1101.816" x2="-1106.153" y1="17.922" y2="19.194" gradientTransform="scale(-1 1) rotate(5.635 -566.27 10900.453)" gradientUnits="userSpaceOnUse"><stop offset="0" stop-color="#d4cdc0" stop-opacity="0"/><stop offset="1" stop-color="#d4cdc0" stop-opacity=".5"/></linearGradient><path fill="url(#ReM0lVjMpmdqwS~GN85bul)" d="M39.306,19.606l-8.978-2.078c-0.165-0.039-0.331,0.064-0.369,0.229	c-0.039,0.165,0.064,0.331,0.229,0.369c0.005,0.001,0.011,0.002,0.016,0.003l9.068,1.64c0.046,0.008,0.089-0.022,0.097-0.068	C39.377,19.658,39.349,19.616,39.306,19.606z"/><linearGradient id="ReM0lVjMpmdqwS~GN85bum" x1="-1101.597" x2="-1105.935" y1="18.948" y2="20.22" gradientTransform="matrix(-1 .0042 .0042 1 -1071.111 4.63)" gradientUnits="userSpaceOnUse"><stop offset="0" stop-color="#d4cdc0" stop-opacity="0"/><stop offset="1" stop-color="#d4cdc0" stop-opacity=".5"/></linearGradient><path fill="url(#ReM0lVjMpmdqwS~GN85bum)" d="M39.103,21.49l-8.743-2.913c-0.161-0.054-0.335,0.033-0.389,0.193	c-0.054,0.161,0.033,0.335,0.193,0.389c0.005,0.002,0.011,0.003,0.016,0.005l8.874,2.486c0.045,0.012,0.091-0.014,0.103-0.058	C39.169,21.548,39.144,21.504,39.103,21.49z"/><linearGradient id="ReM0lVjMpmdqwS~GN85bun" x1="-1101.511" x2="-1105.849" y1="20.272" y2="21.544" gradientTransform="scale(-1 1) rotate(-4.399 -566.007 -13922.222)" gradientUnits="userSpaceOnUse"><stop offset="0" stop-color="#d4cdc0" stop-opacity="0"/><stop offset="1" stop-color="#d4cdc0" stop-opacity=".5"/></linearGradient><path fill="url(#ReM0lVjMpmdqwS~GN85bun)" d="M38.855,23.522l-8.479-3.611c-0.156-0.067-0.337,0.005-0.404,0.161s0.005,0.337,0.161,0.404	c0.005,0.002,0.011,0.004,0.015,0.006l8.644,3.196c0.043,0.016,0.092-0.006,0.108-0.05C38.916,23.586,38.895,23.54,38.855,23.522z"/><linearGradient id="ReM0lVjMpmdqwS~GN85buo" x1="-1101.816" x2="-1106.153" y1="17.922" y2="19.194" gradientTransform="rotate(5.635 -542.27 11388.07)" gradientUnits="userSpaceOnUse"><stop offset="0" stop-color="#d4cdc0" stop-opacity="0"/><stop offset="1" stop-color="#d4cdc0" stop-opacity=".5"/></linearGradient><path fill="url(#ReM0lVjMpmdqwS~GN85buo)" d="M8.694,19.606l8.978-2.078c0.165-0.039,0.331,0.064,0.369,0.229	c0.039,0.165-0.064,0.331-0.229,0.369c-0.005,0.001-0.011,0.002-0.016,0.003l-9.068,1.64c-0.046,0.008-0.089-0.022-0.097-0.068	C8.623,19.658,8.651,19.616,8.694,19.606z"/><linearGradient id="ReM0lVjMpmdqwS~GN85bup" x1="-1101.597" x2="-1105.935" y1="18.948" y2="20.22" gradientTransform="translate(1119.111 4.63)" gradientUnits="userSpaceOnUse"><stop offset="0" stop-color="#d4cdc0" stop-opacity="0"/><stop offset="1" stop-color="#d4cdc0" stop-opacity=".5"/></linearGradient><path fill="url(#ReM0lVjMpmdqwS~GN85bup)" d="M8.897,21.49l8.743-2.913c0.161-0.054,0.335,0.033,0.389,0.193	c0.054,0.161-0.033,0.335-0.193,0.389c-0.005,0.002-0.011,0.003-0.016,0.005L8.947,21.65c-0.045,0.012-0.091-0.014-0.103-0.058	C8.831,21.548,8.856,21.504,8.897,21.49z"/><linearGradient id="ReM0lVjMpmdqwS~GN85buq" x1="-1101.511" x2="-1105.849" y1="20.272" y2="21.544" gradientTransform="rotate(-4.399 -542.008 -14547.116)" gradientUnits="userSpaceOnUse"><stop offset="0" stop-color="#d4cdc0" stop-opacity="0"/><stop offset="1" stop-color="#d4cdc0" stop-opacity=".5"/></linearGradient><path fill="url(#ReM0lVjMpmdqwS~GN85buq)" d="M9.145,23.522l8.479-3.611c0.156-0.067,0.337,0.005,0.404,0.161s-0.005,0.337-0.161,0.404	c-0.005,0.002-0.011,0.004-0.015,0.006l-8.644,3.196c-0.044,0.016-0.092-0.006-0.108-0.05C9.084,23.586,9.105,23.54,9.145,23.522z"/><radialGradient id="ReM0lVjMpmdqwS~GN85bur" cx="24.032" cy="15.915" r="6.257" gradientUnits="userSpaceOnUse"><stop offset="0" stop-color="#3b2d22" stop-opacity=".6"/><stop offset="1" stop-color="#3b2d22" stop-opacity="0"/></radialGradient><path fill="url(#ReM0lVjMpmdqwS~GN85bur)" d="M24,7.131c-1.667,0-3,6.495-3,6.85c0,1.704,1.5,0.755,3,0.755s3,0.95,3-0.755	C27,13.626,25.667,7.131,24,7.131z"/><radialGradient id="ReM0lVjMpmdqwS~GN85bus" cx="25.877" cy="15.97" r="2.992" gradientUnits="userSpaceOnUse"><stop offset=".166" stop-color="#0a0a09"/><stop offset=".35" stop-color="#474241"/><stop offset=".543" stop-color="#3f3a39"/><stop offset="1" stop-color="#2e2b2a"/></radialGradient><path fill="url(#ReM0lVjMpmdqwS~GN85bus)" d="M24,14.096v2.746c1.5,0,1.407-0.55,1.828-0.897C26.212,15.628,27,15.56,27,14.627	C27,14.271,25.352,13.455,24,14.096z"/><radialGradient id="ReM0lVjMpmdqwS~GN85but" cx="28.877" cy="15.97" r="2.992" gradientTransform="matrix(-1 0 0 1 51 0)" gradientUnits="userSpaceOnUse"><stop offset=".166" stop-color="#0a0a09"/><stop offset=".35" stop-color="#474241"/><stop offset=".543" stop-color="#3f3a39"/><stop offset="1" stop-color="#2e2b2a"/></radialGradient><path fill="url(#ReM0lVjMpmdqwS~GN85but)" d="M24,14.096v2.746c-1.5,0-1.407-0.55-1.828-0.897C21.788,15.628,21,15.56,21,14.627	C21,14.271,22.648,13.455,24,14.096z"/></svg>