<svg xmlns="http://www.w3.org/2000/svg" viewBox="0 0 48 48"><radialGradient id="U3PsLZWJJBEiekvXYczODa" cx="24.087" cy="23.209" r="25.259" gradientTransform="matrix(1 .0086 -.0061 .7059 .142 6.619)" gradientUnits="userSpaceOnUse"><stop offset="0" stop-color="#cb7a34"/><stop offset=".155" stop-color="#b86d2c"/><stop offset=".526" stop-color="#90531a"/><stop offset=".821" stop-color="#77420f"/><stop offset="1" stop-color="#6e3c0b"/></radialGradient><path fill="url(#U3PsLZWJJBEiekvXYczODa)" d="M39.782,15.388c2.039-1.551,2.752-4.005,2.752-4.005c-0.926,0.783-2.005,1.284-3.032,1.609 c2.588-3.83,2.593-7.252,2.593-7.252s-5.584,3.539-11.766,5.338c-1.856-0.842-4.022-1.335-6.345-1.335 c-2.316,0-4.475,0.49-6.327,1.327C11.49,9.268,5.905,5.739,5.905,5.739S5.913,9.226,8.576,13.1 c-1.13-0.317-2.355-0.844-3.388-1.718c0,0,0.742,2.569,2.89,4.112c-3.003,2.217-4.957,5.773-4.957,9.793 C3.121,40.946,24,42.261,24,42.261s20.879-1.315,20.879-16.974C44.879,21.204,42.866,17.596,39.782,15.388z"/><radialGradient id="U3PsLZWJJBEiekvXYczODb" cx="24.076" cy="27.167" r="19.685" gradientTransform="matrix(1 .0086 -.0061 .7059 .166 7.783)" gradientUnits="userSpaceOnUse"><stop offset=".15" stop-color="#ffe1c2"/><stop offset=".359" stop-color="#fddebf"/><stop offset=".519" stop-color="#f6d6b5"/><stop offset=".664" stop-color="#eac8a5"/><stop offset=".798" stop-color="#d9b58e"/><stop offset=".926" stop-color="#c49c70"/><stop offset="1" stop-color="#b58a5b"/></radialGradient><path fill="url(#U3PsLZWJJBEiekvXYczODb)" d="M31.54,15.631c-2.955,0-12.124,0-15.079,0c-5.83,0-10.555,4.213-10.555,10.043 C5.905,38.521,24,39.748,24,39.748s18.095-1.226,18.095-14.074C42.095,19.844,37.369,15.631,31.54,15.631z"/><radialGradient id="U3PsLZWJJBEiekvXYczODc" cx="33.821" cy="25.867" r="6.543" gradientUnits="userSpaceOnUse"><stop offset=".598" stop-color="#765130"/><stop offset=".769" stop-color="#785332" stop-opacity=".574"/><stop offset=".831" stop-color="#7e5a39" stop-opacity=".42"/><stop offset=".875" stop-color="#8a6544" stop-opacity=".311"/><stop offset=".91" stop-color="#9a7655" stop-opacity=".223"/><stop offset=".941" stop-color="#af8c6b" stop-opacity=".147"/><stop offset=".968" stop-color="#c9a887" stop-opacity=".08"/><stop offset=".992" stop-color="#e8c7a6" stop-opacity=".021"/><stop offset="1" stop-color="#f4d4b3" stop-opacity="0"/></radialGradient><circle cx="33.821" cy="25.867" r="6.543" fill="url(#U3PsLZWJJBEiekvXYczODc)"/><radialGradient id="U3PsLZWJJBEiekvXYczODd" cx="33.821" cy="25.867" r="5.258" gradientUnits="userSpaceOnUse"><stop offset=".383" stop-color="#f0a918"/><stop offset=".508" stop-color="#eda718"/><stop offset=".593" stop-color="#e4a117"/><stop offset=".665" stop-color="#d59615"/><stop offset=".731" stop-color="#c08713"/><stop offset=".793" stop-color="#a47310"/><stop offset=".851" stop-color="#815b0d"/><stop offset=".906" stop-color="#593e09"/><stop offset=".958" stop-color="#2b1e04"/><stop offset="1"/></radialGradient><circle cx="33.821" cy="25.867" r="5.258" fill="url(#U3PsLZWJJBEiekvXYczODd)"/><circle cx="33.821" cy="25.867" r="2.513"/><radialGradient id="U3PsLZWJJBEiekvXYczODe" cx="14.148" cy="25.867" r="6.543" gradientUnits="userSpaceOnUse"><stop offset=".598" stop-color="#765130"/><stop offset=".769" stop-color="#785332" stop-opacity=".574"/><stop offset=".831" stop-color="#7e5a39" stop-opacity=".42"/><stop offset=".875" stop-color="#8a6544" stop-opacity=".311"/><stop offset=".91" stop-color="#9a7655" stop-opacity=".223"/><stop offset=".941" stop-color="#af8c6b" stop-opacity=".147"/><stop offset=".968" stop-color="#c9a887" stop-opacity=".08"/><stop offset=".992" stop-color="#e8c7a6" stop-opacity=".021"/><stop offset="1" stop-color="#f4d4b3" stop-opacity="0"/></radialGradient><circle cx="14.148" cy="25.867" r="6.543" fill="url(#U3PsLZWJJBEiekvXYczODe)"/><radialGradient id="U3PsLZWJJBEiekvXYczODf" cx="14.148" cy="25.867" r="5.258" gradientUnits="userSpaceOnUse"><stop offset=".383" stop-color="#f0a918"/><stop offset=".508" stop-color="#eda718"/><stop offset=".593" stop-color="#e4a117"/><stop offset=".665" stop-color="#d59615"/><stop offset=".731" stop-color="#c08713"/><stop offset=".793" stop-color="#a47310"/><stop offset=".851" stop-color="#815b0d"/><stop offset=".906" stop-color="#593e09"/><stop offset=".958" stop-color="#2b1e04"/><stop offset="1"/></radialGradient><circle cx="14.148" cy="25.867" r="5.258" fill="url(#U3PsLZWJJBEiekvXYczODf)"/><circle cx="14.148" cy="25.867" r="2.513"/><circle cx="11.867" cy="25.171" r="1.066" fill="#fff"/><circle cx="31.545" cy="25.171" r="1.066" fill="#fff"/><linearGradient id="U3PsLZWJJBEiekvXYczODg" x1="23.829" x2="24.01" y1="39.792" y2="30.654" gradientUnits="userSpaceOnUse"><stop offset="0" stop-color="#f4d4b3" stop-opacity="0"/><stop offset=".132" stop-color="#d4b392" stop-opacity=".132"/><stop offset=".302" stop-color="#b3906f" stop-opacity=".302"/><stop offset=".474" stop-color="#987453" stop-opacity=".474"/><stop offset=".647" stop-color="#856140" stop-opacity=".647"/><stop offset=".822" stop-color="#7a5534" stop-opacity=".822"/><stop offset="1" stop-color="#765130"/></linearGradient><path fill="url(#U3PsLZWJJBEiekvXYczODg)" d="M23.985,28.38c-1.974,0-3.574,1.6-3.574,3.574 c0,2.752,3.576,6.116,3.576,6.116s3.572-3.364,3.572-6.116C27.558,29.98,25.958,28.38,23.985,28.38z" opacity=".42"/><radialGradient id="U3PsLZWJJBEiekvXYczODh" cx="24.082" cy="32.128" r="3.757" gradientTransform="matrix(1 0 0 1.181 0 -5.815)" gradientUnits="userSpaceOnUse"><stop offset="0" stop-color="#de8335"/><stop offset=".16" stop-color="#d87f33"/><stop offset=".365" stop-color="#c9752d"/><stop offset=".594" stop-color="#ae6523"/><stop offset=".839" stop-color="#8a4e15"/><stop offset="1" stop-color="#6e3c0b"/></radialGradient><path fill="url(#U3PsLZWJJBEiekvXYczODh)" d="M24,26.956c-1.974,0-3.574,1.6-3.574,3.574c0,2.752,3.576,6.116,3.576,6.116 s3.572-3.364,3.572-6.116C27.574,28.556,25.974,26.956,24,26.956z"/><radialGradient id="U3PsLZWJJBEiekvXYczODi" cx="23.94" cy="15.289" r="19.945" gradientTransform="matrix(.9999 .0126 -.011 .8696 .17 1.69)" gradientUnits="userSpaceOnUse"><stop offset="0" stop-color="#ffe1c2"/><stop offset=".252" stop-color="#fddebf"/><stop offset=".44" stop-color="#f6d6b6"/><stop offset=".608" stop-color="#eac9a5"/><stop offset=".762" stop-color="#dab68f"/><stop offset=".908" stop-color="#c59d72"/><stop offset="1" stop-color="#b58a5b"/></radialGradient><path fill="url(#U3PsLZWJJBEiekvXYczODi)" d="M42.095,5.739c0,0-7.028,12.088-18.095,16.733C12.933,17.828,5.905,5.739,5.905,5.739 S5.699,8.675,8.576,13.1C15.072,23.095,24,30.494,24,30.494s8.928-7.399,15.424-17.394C42.301,8.675,42.095,5.739,42.095,5.739z"/><radialGradient id="U3PsLZWJJBEiekvXYczODj" cx="24.181" cy="16.096" r="14.791" gradientTransform="matrix(1 .0086 -.0072 .8407 .117 2.356)" gradientUnits="userSpaceOnUse"><stop offset="0" stop-color="#cb7a34"/><stop offset=".155" stop-color="#b86d2c"/><stop offset=".526" stop-color="#90531a"/><stop offset=".821" stop-color="#77420f"/><stop offset="1" stop-color="#6e3c0b"/></radialGradient><path fill="url(#U3PsLZWJJBEiekvXYczODj)" d="M30.561,11.014c-1.887-0.822-4.14-1.299-6.561-1.299s-4.674,0.478-6.561,1.299 c-3.732-1.319-6.638-2.511-11.534-5.275c0,0,7.028,12.088,18.095,16.733C35.067,17.828,42.095,5.739,42.095,5.739 C37.199,8.504,34.293,9.696,30.561,11.014z"/></svg>