<svg xmlns="http://www.w3.org/2000/svg" viewBox="0 0 48 48"><linearGradient id="HlirJXdqKqGcfQkhGZWUha" x1="15.797" x2="21.421" y1="28.212" y2="32.656" gradientUnits="userSpaceOnUse"><stop offset="0" stop-color="#bf7328"/><stop offset=".074" stop-color="#b86e25"/><stop offset=".182" stop-color="#a4601d"/><stop offset=".312" stop-color="#844a10"/><stop offset=".318" stop-color="#82490f"/></linearGradient><path fill="url(#HlirJXdqKqGcfQkhGZWUha)" d="M19.664,33.535l1.842-3.459l-4.873-2.688c-0.202-0.088-0.425-0.139-0.659-0.139 c-0.912,0-1.651,0.739-1.651,1.651c0,0.543,0.266,1.02,0.67,1.321c0,0,0.074,0.054,0.114,0.078L19.664,33.535z"/><radialGradient id="HlirJXdqKqGcfQkhGZWUhb" cx="15.506" cy="27.972" r="2.105" gradientTransform="matrix(1.0363 .0804 -.0773 .997 2.018 -1.075)" gradientUnits="userSpaceOnUse"><stop offset="0" stop-color="#b8b8b8"/><stop offset=".61" stop-color="#606060"/><stop offset=".727" stop-color="#4f4f4f"/></radialGradient><path fill="url(#HlirJXdqKqGcfQkhGZWUhb)" d="M19.402,29.517l-0.834-0.065c0.059-0.758-0.535-1.425-1.323-1.486s-1.118,0.624-1.536,1.264 c-0.111,0.17-0.787,0.292-0.741-0.304c0.063-0.812,1.081-1.732,2.329-1.635C18.546,27.389,19.495,28.317,19.402,29.517z"/><radialGradient id="HlirJXdqKqGcfQkhGZWUhc" cx="16.369" cy="28.334" r="3.35" gradientTransform="matrix(1.0394 0 0 1 -.481 0)" gradientUnits="userSpaceOnUse"><stop offset="0" stop-color="#b8b8b8"/><stop offset=".159" stop-color="#979797"/><stop offset=".379" stop-color="#707070"/><stop offset=".555" stop-color="#585858"/><stop offset=".663" stop-color="#4f4f4f"/></radialGradient><path fill="url(#HlirJXdqKqGcfQkhGZWUhc)" d="M19.96,29.484l-0.809,0.33c0-0.761-0.467-1.44-1.252-1.345 c-0.927,0.112-1.194,0.993-1.524,1.394c-0.182,0.22-0.854,0.303-0.854-0.295c0-0.815,0.944-1.81,2.196-1.81 C19.409,27.758,19.925,28.591,19.96,29.484z"/><radialGradient id="HlirJXdqKqGcfQkhGZWUhd" cx="14.546" cy="29.305" r=".538" gradientTransform="rotate(-140.193 9.242 43.958) scale(1 2)" gradientUnits="userSpaceOnUse"><stop offset="0" stop-color="#a8a8a8"/><stop offset=".188" stop-color="#8c8c8c"/><stop offset=".561" stop-color="#595959"/><stop offset=".843" stop-color="#3a3a3a"/><stop offset="1" stop-color="#2e2e2e"/></radialGradient><path fill="url(#HlirJXdqKqGcfQkhGZWUhd)" d="M15.337,29.362c-0.057,0.087-0.445,0.032-0.548,0.432c-0.13,0.502,0.428,0.813,0.428,0.813 s-0.964-0.108-0.825-0.965c0.05-0.311,0.27-0.589,0.577-0.663C15.106,28.946,15.412,29.246,15.337,29.362z"/><radialGradient id="HlirJXdqKqGcfQkhGZWUhe" cx="15.257" cy="29.813" r=".538" gradientTransform="rotate(-140.193 9.86 44.72) scale(1 2)" gradientUnits="userSpaceOnUse"><stop offset="0" stop-color="#a8a8a8"/><stop offset=".188" stop-color="#8c8c8c"/><stop offset=".561" stop-color="#595959"/><stop offset=".843" stop-color="#3a3a3a"/><stop offset="1" stop-color="#2e2e2e"/></radialGradient><path fill="url(#HlirJXdqKqGcfQkhGZWUhe)" d="M16.047,29.87c-0.057,0.087-0.445,0.032-0.548,0.432c-0.13,0.502,0.428,0.813,0.428,0.813 s-0.964-0.108-0.825-0.965c0.05-0.311,0.27-0.589,0.577-0.663C15.817,29.454,16.122,29.754,16.047,29.87z"/><radialGradient id="HlirJXdqKqGcfQkhGZWUhf" cx="17.015" cy="28.441" r="2.928" gradientTransform="matrix(1.0165 .0791 -.0758 .9808 2.283 -.511)" gradientUnits="userSpaceOnUse"><stop offset="0" stop-color="#b8b8b8"/><stop offset=".61" stop-color="#606060"/><stop offset=".727" stop-color="#4f4f4f"/></radialGradient><path fill="url(#HlirJXdqKqGcfQkhGZWUhf)" d="M19.9,28.775c0.499,0,0.961,0.125,1.357,0.338c-0.439-0.49-1.088-0.815-1.837-0.873 c-1.429-0.111-2.596,0.945-2.668,1.878c-0.04,0.524,0.402,0.564,0.669,0.466C17.601,29.712,18.601,28.775,19.9,28.775z"/><radialGradient id="HlirJXdqKqGcfQkhGZWUhg" cx="17.395" cy="28.329" r="2.124" gradientTransform="matrix(1.0165 .0791 -.0758 .9808 2.283 -.511)" gradientUnits="userSpaceOnUse"><stop offset="0" stop-color="#a8a8a8"/><stop offset=".179" stop-color="#a1a1a1"/><stop offset=".443" stop-color="#8d8d8d"/><stop offset=".758" stop-color="#6d6d6d"/><stop offset="1" stop-color="#4f4f4f"/></radialGradient><path fill="url(#HlirJXdqKqGcfQkhGZWUhg)" d="M21.797,30.218c-0.074-0.421-0.263-0.797-0.54-1.106c-0.396-0.213-0.858-0.338-1.357-0.338 c-1.298,0-2.299,0.937-2.478,1.809c0.082-0.03,0.149-0.071,0.179-0.117c0.478-0.736,0.857-1.523,1.759-1.452 c0.446,0.035,0.835,0.242,1.108,0.545c0.016,0.018,0.199-0.128,0.214-0.11c0.258,0.054,0.31,0.348,0.475,0.541 C21.387,30.029,21.601,30.108,21.797,30.218z"/><radialGradient id="HlirJXdqKqGcfQkhGZWUhh" cx="18.279" cy="29.468" r="4.223" gradientUnits="userSpaceOnUse"><stop offset="0" stop-color="#b8b8b8"/><stop offset=".159" stop-color="#979797"/><stop offset=".379" stop-color="#707070"/><stop offset=".555" stop-color="#585858"/><stop offset=".663" stop-color="#4f4f4f"/></radialGradient><path fill="url(#HlirJXdqKqGcfQkhGZWUhh)" d="M21.257,29.112c-0.396-0.213-0.858-0.338-1.357-0.338c-1.298,0-2.299,0.937-2.478,1.809 c-0.019,0.091-0.037,0.182-0.037,0.27c0,0.686,0.77,0.592,0.978,0.338c0.378-0.46,0.683-1.473,1.745-1.601 c0.147-0.018,0.333-0.016,0.46,0.011c0.087,0.018,0.152,0.059,0.222,0.096l0,0l0.713,0.385l0,0 c0.102,0.037,0.201,0.082,0.295,0.135c0.266,0.149,0.497,0.351,0.669,0.6C22.363,30.066,21.909,29.462,21.257,29.112z"/><linearGradient id="HlirJXdqKqGcfQkhGZWUhi" x1="18.331" x2="21.27" y1="29.204" y2="29.911" gradientUnits="userSpaceOnUse"><stop offset="0" stop-color="#bf7328"/><stop offset=".074" stop-color="#b86e25"/><stop offset=".182" stop-color="#a4601d"/><stop offset=".312" stop-color="#844a10"/><stop offset=".318" stop-color="#82490f"/></linearGradient><path fill="url(#HlirJXdqKqGcfQkhGZWUhi)" d="M20.721,29.662l0.068,0.036c0.137,0.072,0.258,0.165,0.368,0.293 c0.12,0.02,0.234,0.052,0.345,0.092h-0.005L20.721,29.662z"/><linearGradient id="HlirJXdqKqGcfQkhGZWUhj" x1="5.405" x2="28.53" y1="31.94" y2="31.94" gradientUnits="userSpaceOnUse"><stop offset="0" stop-color="#ad6115"/><stop offset=".318" stop-color="#ad6115"/></linearGradient><path fill="url(#HlirJXdqKqGcfQkhGZWUhj)" d="M22.466,30.819c-0.172-0.25-0.403-0.451-0.669-0.6c-0.196-0.11-0.41-0.189-0.64-0.227 c-0.106-0.017-0.212-0.033-0.323-0.033c-0.034,0-0.066,0.008-0.1,0.01c-1.047,0.053-1.882,0.911-1.882,1.971 c0,1.094,0.887,1.981,1.981,1.981c1.094,0,1.981-0.887,1.981-1.981C22.815,31.523,22.686,31.138,22.466,30.819z"/><radialGradient id="HlirJXdqKqGcfQkhGZWUhk" cx="16.274" cy="30.564" r=".609" gradientTransform="rotate(-140.193 10.742 45.845) scale(1 2)" gradientUnits="userSpaceOnUse"><stop offset="0" stop-color="#a8a8a8"/><stop offset=".188" stop-color="#8c8c8c"/><stop offset=".561" stop-color="#595959"/><stop offset=".843" stop-color="#3a3a3a"/><stop offset="1" stop-color="#2e2e2e"/></radialGradient><path fill="url(#HlirJXdqKqGcfQkhGZWUhk)" d="M17.169,30.628c-0.064,0.099-0.503,0.036-0.62,0.489c-0.147,0.568,0.485,0.92,0.485,0.92 s-1.091-0.122-0.934-1.092c0.057-0.352,0.306-0.667,0.654-0.751C16.908,30.157,17.254,30.497,17.169,30.628z"/><radialGradient id="HlirJXdqKqGcfQkhGZWUhl" cx="17.078" cy="31.138" r=".609" gradientTransform="rotate(-140.193 11.442 46.707) scale(1 2)" gradientUnits="userSpaceOnUse"><stop offset="0" stop-color="#a8a8a8"/><stop offset=".188" stop-color="#8c8c8c"/><stop offset=".561" stop-color="#595959"/><stop offset=".843" stop-color="#3a3a3a"/><stop offset="1" stop-color="#2e2e2e"/></radialGradient><path fill="url(#HlirJXdqKqGcfQkhGZWUhl)" d="M17.973,31.203c-0.064,0.099-0.503,0.036-0.62,0.489c-0.147,0.568,0.485,0.92,0.485,0.92 s-1.091-0.122-0.934-1.092c0.057-0.352,0.306-0.667,0.654-0.751C17.712,30.732,18.059,31.071,17.973,31.203z"/><linearGradient id="HlirJXdqKqGcfQkhGZWUhm" x1="10.746" x2="6.445" y1="14.674" y2="7.48" gradientUnits="userSpaceOnUse"><stop offset="0"/><stop offset="1"/></linearGradient><path fill="url(#HlirJXdqKqGcfQkhGZWUhm)" d="M7.863,11.962c0,0,0.931,1.773,2.888,0.968l-1.154-2.291L7.863,11.962z"/><radialGradient id="HlirJXdqKqGcfQkhGZWUhn" cx="24.516" cy="28.544" r="10.818" gradientTransform="matrix(.6836 .7299 -.6348 .5945 25.875 -6.32)" gradientUnits="userSpaceOnUse"><stop offset="0" stop-color="#f80"/><stop offset="1" stop-color="#f80"/></radialGradient><path fill="url(#HlirJXdqKqGcfQkhGZWUhn)" d="M23.292,26.244L36.51,40.257c0,0-2.354,0.336-4.697-1.609 c-1.152-0.956-11.382-11.746-11.382-11.746L23.292,26.244z"/><radialGradient id="HlirJXdqKqGcfQkhGZWUho" cx="13.865" cy="9.554" r="16.25" gradientTransform="matrix(.6836 .7299 -.6348 .5945 10.451 -6.245)" gradientUnits="userSpaceOnUse"><stop offset="0" stop-color="#ffe72b"/><stop offset=".245" stop-color="#ffc31b"/><stop offset=".513" stop-color="#ffa30c"/><stop offset=".738" stop-color="#ff8f03"/><stop offset=".89" stop-color="#f80"/></radialGradient><path fill="url(#HlirJXdqKqGcfQkhGZWUho)" d="M18.445,10.169c-0.388-2.452-3.301-4.495-6.032-4.495c-3.98,0-4.549,2.11-3.217,4.582 c0.791,1.468,1.252,2.746,2.508,3.457c-0.827,1.1-1.168,2.662,0.907,4.456c0.895,0.773,0.966,5.754,3.124,8.075 c5.587,6.008,13.736,1.442,13.736,1.442S18.914,13.14,18.445,10.169z"/><radialGradient id="HlirJXdqKqGcfQkhGZWUhp" cx="28.057" cy="28.879" r="12.278" gradientTransform="matrix(.6836 .7299 -.6348 .5945 27.209 -8.768)" gradientUnits="userSpaceOnUse"><stop offset="0" stop-color="#00193b"/><stop offset=".491" stop-color="#002b4e"/><stop offset="1" stop-color="#003a5e"/></radialGradient><path fill="url(#HlirJXdqKqGcfQkhGZWUhp)" d="M26.325,26.244l15.219,16.059c0,0-2.354,0.336-4.697-1.609 c-1.152-0.956-13.383-13.792-13.383-13.792L26.325,26.244z"/><radialGradient id="HlirJXdqKqGcfQkhGZWUhq" cx="5.849" cy="9.371" r="3.145" gradientTransform="matrix(.7132 .7009 -.6096 .6203 7.39 -.541)" gradientUnits="userSpaceOnUse"><stop offset=".076" stop-color="#787878"/><stop offset=".22" stop-color="#6f6f6f"/><stop offset=".459" stop-color="#555"/><stop offset=".762" stop-color="#2d2d2d"/><stop offset="1" stop-color="#080808"/></radialGradient><path fill="url(#HlirJXdqKqGcfQkhGZWUhq)" d="M8.601,8.356c0,0-4.149,1.733-0.904,5.367c0,0-0.346-2.091,2.174-2.542L8.601,8.356z"/><radialGradient id="HlirJXdqKqGcfQkhGZWUhr" cx="12.807" cy="7.915" r="6.623" gradientTransform="matrix(1 0 0 .9086 0 .724)" gradientUnits="userSpaceOnUse"><stop offset="0" stop-color="#006dbd"/><stop offset=".221" stop-color="#0065ad"/><stop offset=".648" stop-color="#004f84"/><stop offset="1" stop-color="#003a5e"/></radialGradient><path fill="url(#HlirJXdqKqGcfQkhGZWUhr)" d="M17.609,13.073l1.975-0.282c-0.63-1.152-1.054-2.08-1.139-2.621 c-0.388-2.452-3.301-4.495-6.032-4.495c-2.946,0-4.02,1.157-3.84,2.76l1.298,0.94C9.87,9.375,15.543,7.049,17.609,13.073z"/><radialGradient id="HlirJXdqKqGcfQkhGZWUhs" cx="-14.498" cy="-39.645" r="29.182" gradientTransform="matrix(.5005 .7099 -.4623 .2949 7.058 34.346)" gradientUnits="userSpaceOnUse"><stop offset="0" stop-color="#006dbd"/><stop offset=".176" stop-color="#0065ad"/><stop offset=".516" stop-color="#004f84"/><stop offset=".796" stop-color="#003a5e"/></radialGradient><path fill="url(#HlirJXdqKqGcfQkhGZWUhs)" d="M35,32.017c0,0-5.153-6.955-7.016-10.057c-3.296-5.489-2.85-5.016-4.486-7.476 c-0.819-1.231-2.062-2.474-3.79-2.585c-2.432-0.156-4.524,1.596-4.673,3.914C14.829,19.023,19.193,32.522,35,32.017z"/><g><radialGradient id="HlirJXdqKqGcfQkhGZWUht" cx="9.716" cy="8.408" r="8.377" gradientUnits="userSpaceOnUse"><stop offset="0" stop-color="#fff"/><stop offset="1" stop-color="#dbdbdb"/></radialGradient><path fill="url(#HlirJXdqKqGcfQkhGZWUht)" d="M14.538,10.386c0-1.843-1.494-3.338-3.338-3.338c-1.077,0-2.024,0.518-2.634,1.31 c0.051,0.583,0.266,1.226,0.628,1.898c0.779,1.446,1.242,2.705,2.456,3.422C13.279,13.456,14.538,12.075,14.538,10.386z"/></g><radialGradient id="HlirJXdqKqGcfQkhGZWUhu" cx="11.167" cy="8.997" r="1.074" gradientUnits="userSpaceOnUse"><stop offset="0" stop-color="#1f1f1f"/><stop offset=".396" stop-color="#161616"/><stop offset="1"/></radialGradient><circle cx="11.167" cy="8.997" r="1.074" fill="url(#HlirJXdqKqGcfQkhGZWUhu)"/><circle cx="10.881" cy="8.732" r=".375" fill="#fff"/></svg>