<svg xmlns="http://www.w3.org/2000/svg" viewBox="0 0 48 48"><radialGradient id="IyFMG6yiZFaywQ9Wf_J7La" cx="23.236" cy="11.626" r="7.407" gradientTransform="matrix(.9176 .3976 -.9501 2.1928 12.962 -23.105)" gradientUnits="userSpaceOnUse"><stop offset="0" stop-color="#dceaf0"/><stop offset=".024" stop-color="#d8e7ee"/><stop offset=".491" stop-color="#94b5c5"/><stop offset=".828" stop-color="#6996ab"/><stop offset="1" stop-color="#598aa1"/></radialGradient><path fill="url(#IyFMG6yiZFaywQ9Wf_J7La)" d="M21.119,30.849c0,0-1.179-5.653-0.532-9.244c1.307-7.26,2.855-6.146,6.388-15.197 c0,0,2.468,1.016,0.532,4.874l2.662-2.454c0,0,1.893,1.67-1.706,5.13l2.892-1.839c0,0,0.968,2.444-2.855,6.558l3.797-1.083 c0,0,1.528,1.796-3.212,6.133l3.582-1.89c0,0,0.805,2.838-3.706,6.44l2.889-1.617c0,0,0.474,3.078-3.841,5.266 c-2.152,1.091-4.017,0.931-4.017,0.931L21.119,30.849z"/><radialGradient id="IyFMG6yiZFaywQ9Wf_J7Lb" cx="9.367" cy="25.329" r="15.107" gradientTransform="matrix(.2234 .9747 -.6968 .1597 24.922 12.155)" gradientUnits="userSpaceOnUse"><stop offset=".272" stop-color="#dceaf0"/><stop offset=".9" stop-color="#90bbcf"/><stop offset="1" stop-color="#83b3c9"/></radialGradient><path fill="url(#IyFMG6yiZFaywQ9Wf_J7Lb)" d="M33.162,36.676c-2.201-1.267-4.057-2.57-5.655-3.87c0.58,0.087,1.237,0.137,1.972,0.091 c5.135-0.32,5.968-3.524,5.968-3.524l-3.501,0.363c5.921-1.617,6.33-4.727,6.33-4.727l-4.293,0.337 c6.455-2.239,5.719-4.635,5.719-4.635l-4.215,0.698c5.48-2.338,5.782-5.394,5.782-5.394l-4.34,0.621 c5.271-2.673,4.892-5.793,4.892-5.793l-4.136,1.688c4.404-3.669,1.535-7.575,1.535-7.575c-5.614,8.711-10.313,8.935-13.886,14.431 c-1.821,2.802-2.67,6.87-2.937,8.389c-3.583-4.251-5.19-7.863-7.956-9.237c-5.914-2.936-8.615,4.453-8.615,4.453 s2.698-1.173,4.592,0.51c2.157,1.917,1.372,8.432,4.514,12.427c5.181,6.588,13.363,5.707,18.165,4.447 c1.011-0.265,3.224,2.667,6.937,2.667c1.198,0,1.754-0.702,1.754-0.702l-1.512-0.266c1.906-0.145,2.485-1.191,2.485-1.191 l-1.941-0.043c1.996-0.254,2.529-1.706,2.529-1.706l-1.766,0.109c2.105-1.016,2.025-2.398,2.025-2.398 C40.555,38.087,35.554,38.052,33.162,36.676z"/><radialGradient id="IyFMG6yiZFaywQ9Wf_J7Lc" cx="27.236" cy="17.341" r="26.226" gradientTransform="matrix(-.5571 .8305 -.2893 -.1941 47.426 -1.912)" gradientUnits="userSpaceOnUse"><stop offset="0" stop-color="#dceaf0"/><stop offset=".119" stop-color="#d3e5ec" stop-opacity=".817"/><stop offset=".312" stop-color="#bcd6e2" stop-opacity=".523"/><stop offset=".551" stop-color="#96bed1" stop-opacity=".157"/><stop offset=".654" stop-color="#83b3c9" stop-opacity="0"/></radialGradient><path fill="url(#IyFMG6yiZFaywQ9Wf_J7Lc)" d="M33.162,36.676c-2.201-1.267-4.057-2.57-5.655-3.87C28.088,32.894,18.99,24,35.71,13.41 c3.435-2.175,3.51-8.454,3.51-8.454c-5.614,8.711-10.313,8.935-13.886,14.431c-1.821,2.802-2.67,6.87-2.937,8.389 c-3.583-4.251-5.19-7.863-7.956-9.237c-5.914-2.936-8.615,4.453-8.615,4.453s2.698-1.173,4.592,0.51 c2.157,1.917,1.372,8.432,4.514,12.427c5.181,6.588,13.363,5.707,18.165,4.447c1.011-0.265,3.4,2.667,6.937,2.667 c1.198,0,1.754-0.702,1.754-0.702l-1.512-0.266c1.906-0.145,2.485-1.191,2.485-1.191l-1.941-0.043 c1.996-0.254,2.529-1.706,2.529-1.706l-1.766,0.109c2.105-1.016,2.025-2.398,2.025-2.398 C40.555,38.087,35.554,38.052,33.162,36.676z"/><linearGradient id="IyFMG6yiZFaywQ9Wf_J7Ld" x1="24.371" x2="39.233" y1="11.492" y2="26.678" gradientUnits="userSpaceOnUse"><stop offset="0" stop-color="#dceaf0"/><stop offset=".003" stop-color="#dbe9ef"/><stop offset=".141" stop-color="#b0cad7"/><stop offset=".281" stop-color="#8db1c2"/><stop offset=".422" stop-color="#729db2"/><stop offset=".565" stop-color="#5e8fa7"/><stop offset=".709" stop-color="#5387a0"/><stop offset=".859" stop-color="#4f849e"/></linearGradient><path fill="url(#IyFMG6yiZFaywQ9Wf_J7Ld)" d="M39.943,9.268c0,0-1.608,2.096-3.446,3.516c-4.72,3.647-8.303,5.735-10.262,10.431 c-0.75,1.798-1.286,3.715-1.51,6.773c0,0,1.181-5.119,2.967-8.062c3.798-6.259,9.129-7.696,11.217-10.662 C39.661,10.199,39.943,9.268,39.943,9.268z"/><linearGradient id="IyFMG6yiZFaywQ9Wf_J7Le" x1="-43.735" x2="-40.731" y1="24.419" y2="28.059" gradientTransform="rotate(13.55 40.706 354.24)" gradientUnits="userSpaceOnUse"><stop offset="0" stop-color="#dceaf0"/><stop offset=".003" stop-color="#dbe9ef"/><stop offset=".141" stop-color="#b0cad7"/><stop offset=".281" stop-color="#8db1c2"/><stop offset=".422" stop-color="#729db2"/><stop offset=".565" stop-color="#5e8fa7"/><stop offset=".709" stop-color="#5387a0"/><stop offset=".859" stop-color="#4f849e"/></linearGradient><path fill="url(#IyFMG6yiZFaywQ9Wf_J7Le)" d="M40.799,13.621c0,0-3.14,2.274-7.955,4.201c0,0,0.534,0.185,2.791-0.659 c1.477-0.553,2.916-1.433,3.436-1.842C40.26,14.382,40.799,13.621,40.799,13.621z"/><linearGradient id="IyFMG6yiZFaywQ9Wf_J7Lf" x1="-43.212" x2="-40.337" y1="28.994" y2="32.478" gradientTransform="rotate(13.55 40.706 354.24)" gradientUnits="userSpaceOnUse"><stop offset="0" stop-color="#dceaf0"/><stop offset=".003" stop-color="#dbe9ef"/><stop offset=".141" stop-color="#b0cad7"/><stop offset=".281" stop-color="#8db1c2"/><stop offset=".422" stop-color="#729db2"/><stop offset=".565" stop-color="#5e8fa7"/><stop offset=".709" stop-color="#5387a0"/><stop offset=".859" stop-color="#4f849e"/></linearGradient><path fill="url(#IyFMG6yiZFaywQ9Wf_J7Lf)" d="M40.235,18.097c0,0-3.229,2.274-8.044,4.201c0,0,0.534,0.185,2.791-0.659 c1.477-0.553,2.905-1.448,3.436-1.842C39.776,18.786,40.235,18.097,40.235,18.097z"/><linearGradient id="IyFMG6yiZFaywQ9Wf_J7Lg" x1="-87.79" x2="-84.915" y1="47.699" y2="51.183" gradientTransform="rotate(21.314 40.24 358.146)" gradientUnits="userSpaceOnUse"><stop offset="0" stop-color="#dceaf0"/><stop offset=".003" stop-color="#dbe9ef"/><stop offset=".141" stop-color="#b0cad7"/><stop offset=".281" stop-color="#8db1c2"/><stop offset=".422" stop-color="#729db2"/><stop offset=".565" stop-color="#5e8fa7"/><stop offset=".709" stop-color="#5387a0"/><stop offset=".859" stop-color="#4f849e"/></linearGradient><path fill="url(#IyFMG6yiZFaywQ9Wf_J7Lg)" d="M38.715,22.774c0,0-3.507,1.817-8.538,3.076c0,0,0.504,0.255,2.854-0.276 c1.538-0.348,3.074-1.042,3.653-1.361C38.168,23.394,38.715,22.774,38.715,22.774z"/><linearGradient id="IyFMG6yiZFaywQ9Wf_J7Lh" x1="-87.813" x2="-84.938" y1="52.383" y2="55.868" gradientTransform="rotate(21.314 40.24 358.146)" gradientUnits="userSpaceOnUse"><stop offset="0" stop-color="#dceaf0"/><stop offset=".003" stop-color="#dbe9ef"/><stop offset=".141" stop-color="#b0cad7"/><stop offset=".281" stop-color="#8db1c2"/><stop offset=".422" stop-color="#729db2"/><stop offset=".565" stop-color="#5e8fa7"/><stop offset=".709" stop-color="#5387a0"/><stop offset=".859" stop-color="#4f849e"/></linearGradient><path fill="url(#IyFMG6yiZFaywQ9Wf_J7Lh)" d="M36.991,27.129c0,0-3.507,1.817-8.538,3.076c0,0,0.504,0.255,2.854-0.276 c1.538-0.348,3.074-1.042,3.653-1.361C36.443,27.75,36.991,27.129,36.991,27.129z"/><linearGradient id="IyFMG6yiZFaywQ9Wf_J7Li" x1="40.522" x2="41.767" y1="37.354" y2="39.685" gradientUnits="userSpaceOnUse"><stop offset="0" stop-color="#dceaf0"/><stop offset=".003" stop-color="#dbe9ef"/><stop offset=".141" stop-color="#b0cad7"/><stop offset=".281" stop-color="#8db1c2"/><stop offset=".422" stop-color="#729db2"/><stop offset=".565" stop-color="#5e8fa7"/><stop offset=".709" stop-color="#5387a0"/><stop offset=".859" stop-color="#4f849e"/></linearGradient><path fill="url(#IyFMG6yiZFaywQ9Wf_J7Li)" d="M39.64,39.562c0,0,1.869-0.326,3.388-1.375C43.028,38.187,41.745,39.78,39.64,39.562z"/><linearGradient id="IyFMG6yiZFaywQ9Wf_J7Lj" x1="-36.935" x2="-35.69" y1="48.492" y2="50.825" gradientTransform="rotate(12.95 44.72 384.218)" gradientUnits="userSpaceOnUse"><stop offset="0" stop-color="#dceaf0"/><stop offset=".003" stop-color="#dbe9ef"/><stop offset=".141" stop-color="#b0cad7"/><stop offset=".281" stop-color="#8db1c2"/><stop offset=".422" stop-color="#729db2"/><stop offset=".565" stop-color="#5e8fa7"/><stop offset=".709" stop-color="#5387a0"/><stop offset=".859" stop-color="#4f849e"/></linearGradient><path fill="url(#IyFMG6yiZFaywQ9Wf_J7Lj)" d="M39.041,40.68c0,0,1.854,0.101,3.569-0.581C42.611,40.099,41.386,41.283,39.041,40.68z"/><radialGradient id="IyFMG6yiZFaywQ9Wf_J7Lk" cx="4.983" cy="16.342" r="8.603" gradientTransform="matrix(.2012 -.9795 .5178 .1064 -4.482 19.485)" gradientUnits="userSpaceOnUse"><stop offset="0" stop-color="#416e1e"/><stop offset="1" stop-color="#416e1e"/></radialGradient><path fill="url(#IyFMG6yiZFaywQ9Wf_J7Lk)" d="M7.917,25.675c-1.077-2.142-1.404-5.423-0.693-8.916c0.586-2.88,1.767-5.351,3.188-7.001 H9.5c-1.348,1.728-2.442,4.112-3,6.853c-0.707,3.474-0.404,6.76,0.636,9.064H7.917z"/><linearGradient id="IyFMG6yiZFaywQ9Wf_J7Ll" x1="-37.072" x2="-35.761" y1="49.716" y2="52.171" gradientTransform="rotate(12.95 44.72 384.218)" gradientUnits="userSpaceOnUse"><stop offset="0" stop-color="#dceaf0"/><stop offset=".003" stop-color="#dbe9ef"/><stop offset=".141" stop-color="#b0cad7"/><stop offset=".281" stop-color="#8db1c2"/><stop offset=".422" stop-color="#729db2"/><stop offset=".565" stop-color="#5e8fa7"/><stop offset=".709" stop-color="#5387a0"/><stop offset=".859" stop-color="#4f849e"/></linearGradient><path fill="url(#IyFMG6yiZFaywQ9Wf_J7Ll)" d="M38.665,41.917c0,0,1.854,0.188,3.569-0.493C42.235,41.424,41.01,42.52,38.665,41.917z"/><radialGradient id="IyFMG6yiZFaywQ9Wf_J7Lm" cx="6.16" cy="21.275" r="1.492" gradientTransform="matrix(-.4761 .8794 -.6914 -.3743 23.801 23.822)" gradientUnits="userSpaceOnUse"><stop offset=".25" stop-color="#ff9b52"/><stop offset=".352" stop-color="#fc934e"/><stop offset=".509" stop-color="#f67e42"/><stop offset=".7" stop-color="#ea5b2e"/><stop offset=".916" stop-color="#db2c14"/><stop offset="1" stop-color="#d41708"/></radialGradient><path fill="url(#IyFMG6yiZFaywQ9Wf_J7Lm)" d="M7.295,20.392c-1.298,0.889-1.47,2.6-1.47,2.6s1.247-0.594,2.789-0.337 C8.615,22.655,7.102,22.071,7.295,20.392z"/><radialGradient id="IyFMG6yiZFaywQ9Wf_J7Ln" cx="9.719" cy="20.526" r=".893" gradientTransform="matrix(-.4761 .8794 -.9279 -.5024 33.392 22.292)" gradientUnits="userSpaceOnUse"><stop offset="0" stop-color="#363636"/><stop offset=".293" stop-color="#424242"/><stop offset=".421" stop-color="#323232"/><stop offset=".669" stop-color="#090909"/><stop offset=".721"/></radialGradient><circle cx="9.906" cy="20.646" r=".771" fill="url(#IyFMG6yiZFaywQ9Wf_J7Ln)"/><circle cx="9.738" cy="20.533" r=".299" fill="#fff"/><radialGradient id="IyFMG6yiZFaywQ9Wf_J7Lo" cx="-218.984" cy="74.131" r="3.73" gradientTransform="matrix(.7046 -.7017 .2989 .341 142.708 -171.636)" gradientUnits="userSpaceOnUse"><stop offset="0" stop-color="#b1d971"/><stop offset=".419" stop-color="#7ca64a"/><stop offset=".804" stop-color="#517e2a"/><stop offset="1" stop-color="#416e1e"/></radialGradient><path fill="url(#IyFMG6yiZFaywQ9Wf_J7Lo)" d="M11.781,9.232c-0.804,1.14-2.165,0.921-2.165,0.921S9.024,8.844,9.757,7.805 c0.804-1.14,2.707-1.688,2.707-1.688S12.562,8.126,11.781,9.232z"/><radialGradient id="IyFMG6yiZFaywQ9Wf_J7Lp" cx="181.02" cy="49.935" r="3.325" gradientTransform="matrix(-.2667 -.958 .4437 -.0935 32.55 187.219)" gradientUnits="userSpaceOnUse"><stop offset="0" stop-color="#b1d971"/><stop offset=".419" stop-color="#7ca64a"/><stop offset=".804" stop-color="#517e2a"/><stop offset="1" stop-color="#416e1e"/></radialGradient><path fill="url(#IyFMG6yiZFaywQ9Wf_J7Lp)" d="M8.095,10.561c0.535,1.122-0.229,2.085-0.229,2.085S6.59,12.534,6.102,11.51 c-0.535-1.122-0.13-2.84-0.13-2.84S7.576,9.471,8.095,10.561z"/><radialGradient id="IyFMG6yiZFaywQ9Wf_J7Lq" cx="393.19" cy="287.131" r="3.325" gradientTransform="matrix(.9256 -.3634 -.1923 -.4107 -297.42 272.012)" gradientUnits="userSpaceOnUse"><stop offset="0" stop-color="#b1d971"/><stop offset=".419" stop-color="#7ca64a"/><stop offset=".804" stop-color="#517e2a"/><stop offset="1" stop-color="#416e1e"/></radialGradient><path fill="url(#IyFMG6yiZFaywQ9Wf_J7Lq)" d="M9.868,11.414c-1.218,0.248-1.527,1.438-1.527,1.438s0.857,0.952,1.968,0.725 c1.218-0.248,2.347-1.605,2.347-1.605S11.051,11.173,9.868,11.414z"/><radialGradient id="IyFMG6yiZFaywQ9Wf_J7Lr" cx="210.075" cy="67.041" r="3.325" gradientTransform="matrix(-.3527 -.9298 .4333 -.1335 50.133 216.951)" gradientUnits="userSpaceOnUse"><stop offset="0" stop-color="#b1d971"/><stop offset=".419" stop-color="#7ca64a"/><stop offset=".804" stop-color="#517e2a"/><stop offset="1" stop-color="#416e1e"/></radialGradient><path fill="url(#IyFMG6yiZFaywQ9Wf_J7Lr)" d="M6.727,13.856c0.634,1.069-0.039,2.097-0.039,2.097s-1.281,0.005-1.859-0.97 c-0.634-1.069-0.388-2.817-0.388-2.817S6.11,12.818,6.727,13.856z"/><radialGradient id="IyFMG6yiZFaywQ9Wf_J7Ls" cx="390.458" cy="290.904" r="3.325" gradientTransform="matrix(.9276 -.3583 -.19 -.4117 -296.911 273.892)" gradientUnits="userSpaceOnUse"><stop offset="0" stop-color="#b1d971"/><stop offset=".419" stop-color="#7ca64a"/><stop offset=".804" stop-color="#517e2a"/><stop offset="1" stop-color="#416e1e"/></radialGradient><path fill="url(#IyFMG6yiZFaywQ9Wf_J7Ls)" d="M8.664,14.479c-1.219,0.241-1.535,1.429-1.535,1.429s0.852,0.957,1.964,0.736 c1.219-0.241,2.356-1.592,2.356-1.592S9.848,14.245,8.664,14.479z"/></svg>