<svg xmlns="http://www.w3.org/2000/svg" viewBox="0 0 48 48"><linearGradient id="G15NwA_LAySaEncmOR6zMa" x1="30.485" x2="42.987" y1="9.861" y2="13.085" gradientUnits="userSpaceOnUse"><stop offset="0" stop-color="#9b918f"/><stop offset=".421" stop-color="#998f8d"/><stop offset=".612" stop-color="#928887"/><stop offset=".756" stop-color="#857c7c"/><stop offset=".878" stop-color="#736c6d"/><stop offset=".983" stop-color="#5b5659"/><stop offset="1" stop-color="#575255"/></linearGradient><path fill="url(#G15NwA_LAySaEncmOR6zMa)" d="M29,12c0,0,4.698-8,10-8c1.961,0,3,2,3,6c0,9.173-1.388,9.122-2.767,9.852C36.441,21.329,29,12,29,12	z"/><radialGradient id="G15NwA_LAySaEncmOR6zMb" cx="37.235" cy="13.815" r="7.877" gradientTransform="matrix(.7144 .6997 -.9467 .9666 23.713 -25.593)" gradientUnits="userSpaceOnUse"><stop offset=".767" stop-color="#dcd7cc" stop-opacity="0"/><stop offset=".865" stop-color="#dad4ca" stop-opacity=".419"/><stop offset=".937" stop-color="#d2cbc4" stop-opacity=".73"/><stop offset="1" stop-color="#c6bbb9"/></radialGradient><path fill="url(#G15NwA_LAySaEncmOR6zMb)" d="M42,10c0,9.17-1.39,10.12-2.77,10.85c-2.73,1.45-9.91-8.41-10.22-8.84c0.03-0.07,0.07-0.14,0.11-0.21	C29.89,10.57,34.2,4,39,4C40.96,4,42,6,42,10z"/><path fill="#5F5A5E" d="M39,6c-2.613,0-6,6-7,7.927c1.679,1.246,2.737,1.573,5.421,5.073C39.211,17.25,41,17,41,12 C41,10.291,40.789,6,39,6z"/><path fill="#5E595D" d="M38.993,6.078c-2.583,0-5.939,5.926-6.93,7.856c1.659,1.235,2.716,1.566,5.369,5.034 c1.769-1.734,3.537-1.97,3.537-6.955C40.969,10.32,40.762,6.078,38.993,6.078z"/><path fill="#5D585C" d="M38.986,6.156c-2.552,0-5.878,5.852-6.861,7.785c1.64,1.224,2.696,1.558,5.317,4.996 c1.748-1.719,3.495-1.94,3.495-6.91C40.938,10.349,40.734,6.156,38.986,6.156z"/><path fill="#5C575B" d="M38.979,6.234c-2.522,0-5.818,5.778-6.791,7.715c1.62,1.213,2.675,1.551,5.265,4.957 c1.727-1.703,3.453-1.909,3.453-6.865C40.906,10.378,40.706,6.234,38.979,6.234z"/><path fill="#5C565A" d="M38.972,6.312c-2.491,0-5.757,5.704-6.722,7.644c1.6,1.202,2.655,1.544,5.213,4.919 c1.706-1.688,3.412-1.879,3.412-6.82C40.875,10.407,40.678,6.312,38.972,6.312z"/><path fill="#5B5659" d="M38.965,6.391c-2.46,0-5.696,5.63-6.652,7.573c1.581,1.19,2.634,1.536,5.161,4.88 c1.685-1.672,3.37-1.849,3.37-6.775C40.844,10.436,40.65,6.391,38.965,6.391z"/><path fill="#5A5558" d="M38.958,6.469c-2.43,0-5.635,5.557-6.583,7.502c1.561,1.179,2.614,1.529,5.11,4.842 c1.664-1.656,3.328-1.819,3.328-6.73C40.812,10.465,40.622,6.469,38.958,6.469z"/><path fill="#595457" d="M38.951,6.547c-2.399,0-5.575,5.483-6.513,7.431c1.542,1.168,2.593,1.522,5.058,4.803 c1.643-1.641,3.286-1.788,3.286-6.686C40.781,10.494,40.594,6.547,38.951,6.547z"/><path fill="#585356" d="M38.944,6.625c-2.369,0-5.514,5.409-6.444,7.361c1.522,1.157,2.573,1.514,5.006,4.764 c1.622-1.625,3.244-1.758,3.244-6.641C40.75,10.522,40.566,6.625,38.944,6.625z"/><path fill="#575255" d="M38.937,6.703c-2.338,0-5.453,5.335-6.374,7.29c1.502,1.146,2.552,1.507,4.954,4.726 c1.601-1.609,3.202-1.728,3.202-6.596C40.719,10.551,40.538,6.703,38.937,6.703z"/><path fill="#575154" d="M38.93,6.781c-2.308,0-5.392,5.261-6.305,7.219c1.483,1.135,2.532,1.5,4.902,4.687 c1.58-1.594,3.161-1.698,3.161-6.551C40.688,10.58,40.51,6.781,38.93,6.781z"/><path fill="#565053" d="M38.923,6.859c-2.277,0-5.332,5.187-6.235,7.148c1.463,1.124,2.511,1.493,4.85,4.649 c1.559-1.578,3.119-1.668,3.119-6.506C40.656,10.609,40.482,6.859,38.923,6.859z"/><path fill="#554F52" d="M38.916,6.938c-2.247,0-5.271,5.113-6.166,7.077c1.443,1.113,2.491,1.485,4.798,4.61 c1.538-1.562,3.077-1.637,3.077-6.461C40.625,10.638,40.454,6.938,38.916,6.938z"/><path fill="#544E51" d="M38.909,7.016c-2.216,0-5.21,5.039-6.096,7.006c1.424,1.101,2.47,1.478,4.746,4.572 c1.517-1.547,3.035-1.607,3.035-6.416C40.594,10.667,40.426,7.016,38.909,7.016z"/><path fill="#534E50" d="M38.901,7.094c-2.185,0-5.149,4.965-6.026,6.936c1.404,1.09,2.45,1.471,4.694,4.533 c1.497-1.531,2.993-1.577,2.993-6.371C40.562,10.696,40.398,7.094,38.901,7.094z"/><path fill="#524D4F" d="M38.894,7.172c-2.155,0-5.088,4.891-5.957,6.865c1.384,1.079,2.429,1.463,4.642,4.495 c1.476-1.516,2.951-1.547,2.951-6.326C40.531,10.725,40.37,7.172,38.894,7.172z"/><path fill="#524C4E" d="M38.887,7.25c-2.124,0-5.028,4.817-5.887,6.794c1.365,1.068,2.408,1.456,4.591,4.456 c1.455-1.5,2.909-1.517,2.909-6.281C40.5,10.754,40.342,7.25,38.887,7.25z"/><path fill="#514B4D" d="M38.88,7.328c-2.094,0-4.967,4.743-5.818,6.723c1.345,1.057,2.388,1.449,4.539,4.417 c1.434-1.484,2.868-1.486,2.868-6.236C40.469,10.783,40.314,7.328,38.88,7.328z"/><path fill="#504A4C" d="M38.873,7.406c-2.063,0-4.906,4.67-5.748,6.652c1.326,1.046,2.367,1.441,4.487,4.379 c1.413-1.469,2.826-1.456,2.826-6.191C40.438,10.812,40.286,7.406,38.873,7.406z"/><path fill="#4F494B" d="M38.866,7.484c-2.033,0-4.845,4.596-5.679,6.582c1.306,1.035,2.347,1.434,4.435,4.34 c1.392-1.453,2.784-1.426,2.784-6.146C40.406,10.841,40.258,7.484,38.866,7.484z"/><path fill="#4E484A" d="M38.859,7.562c-2.002,0-4.785,4.522-5.609,6.511c1.286,1.024,2.326,1.427,4.383,4.302 c1.371-1.438,2.742-1.396,2.742-6.102C40.375,10.87,40.23,7.562,38.859,7.562z"/><path fill="#4D4749" d="M38.852,7.641c-1.972,0-4.724,4.448-5.54,6.44c1.267,1.012,2.306,1.419,4.331,4.263 c1.35-1.422,2.7-1.365,2.7-6.057C40.344,10.899,40.202,7.641,38.852,7.641z"/><path fill="#4C4648" d="M38.845,7.719c-1.941,0-4.663,4.374-5.47,6.369c1.247,1.001,2.285,1.412,4.279,4.225 c1.329-1.406,2.658-1.335,2.658-6.012C40.312,10.927,40.174,7.719,38.845,7.719z"/><path fill="#4C4647" d="M38.838,7.797c-1.911,0-4.602,4.3-5.401,6.298c1.227,0.99,2.265,1.405,4.227,4.186 c1.308-1.391,2.617-1.305,2.617-5.967C40.281,10.956,40.146,7.797,38.838,7.797z"/><path fill="#4B4546" d="M38.831,7.875c-1.88,0-4.542,4.226-5.331,6.227c1.208,0.979,2.244,1.398,4.175,4.148 c1.287-1.375,2.575-1.275,2.575-5.922C40.25,10.985,40.118,7.875,38.831,7.875z"/><path fill="#4A4445" d="M38.824,7.953c-1.849,0-4.481,4.152-5.262,6.157c1.188,0.968,2.224,1.39,4.123,4.109 c1.266-1.359,2.533-1.245,2.533-5.877C40.219,11.014,40.09,7.953,38.824,7.953z"/><path fill="#494344" d="M38.817,8.031c-1.819,0-4.42,4.078-5.192,6.086c1.169,0.957,2.203,1.383,4.072,4.07 c1.245-1.344,2.491-1.214,2.491-5.832C40.188,11.043,40.063,8.031,38.817,8.031z"/><path fill="#484243" d="M38.81,8.109c-1.788,0-4.359,4.004-5.122,6.015c1.149,0.946,2.183,1.376,4.02,4.032 c1.225-1.328,2.449-1.184,2.449-5.787C40.156,11.072,40.035,8.109,38.81,8.109z"/><path fill="#474142" d="M38.803,8.188c-1.758,0-4.299,3.93-5.053,5.944c1.129,0.935,2.162,1.368,3.968,3.993 c1.204-1.312,2.407-1.154,2.407-5.742C40.125,11.101,40.007,8.188,38.803,8.188z"/><path fill="#474041" d="M38.796,8.266c-1.727,0-4.238,3.856-4.983,5.873c1.11,0.923,2.142,1.361,3.916,3.955 c1.183-1.297,2.365-1.124,2.365-5.697C40.094,11.13,39.979,8.266,38.796,8.266z"/><path fill="#463F40" d="M38.789,8.344c-1.697,0-4.177,3.783-4.914,5.803c1.09,0.912,2.121,1.354,3.864,3.916 c1.162-1.281,2.324-1.094,2.324-5.652C40.062,11.159,39.951,8.344,38.789,8.344z"/><path fill="#453E3F" d="M38.782,8.422c-1.666,0-4.116,3.709-4.844,5.732c1.07,0.901,2.101,1.346,3.812,3.878 c1.141-1.266,2.282-1.063,2.282-5.607C40.031,11.188,39.923,8.422,38.782,8.422z"/><path fill="#443E3F" d="M38.775,8.5c-1.636,0-4.055,3.635-4.775,5.661c1.051,0.89,2.08,1.339,3.76,3.839 c1.12-1.25,2.24-1.033,2.24-5.562C40,11.217,39.895,8.5,38.775,8.5z"/><path fill="#433D3E" d="M38.768,8.578c-1.605,0-3.995,3.561-4.705,5.59c1.031,0.879,2.06,1.332,3.708,3.801 c1.099-1.234,2.198-1.003,2.198-5.518C39.969,11.246,39.867,8.578,38.768,8.578z"/><path fill="#423C3D" d="M38.761,8.656c-1.574,0-3.934,3.487-4.636,5.519c1.012,0.868,2.039,1.324,3.656,3.762 c1.078-1.219,2.156-0.973,2.156-5.473C39.938,11.275,39.839,8.656,38.761,8.656z"/><path fill="#413B3C" d="M38.754,8.734c-1.544,0-3.873,3.413-4.566,5.448c0.992,0.857,2.019,1.317,3.604,3.723 c1.057-1.203,2.114-0.942,2.114-5.428C39.906,11.304,39.811,8.734,38.754,8.734z"/><path fill="#413A3B" d="M38.747,8.812c-1.513,0-3.812,3.339-4.497,5.378c0.972,0.846,1.998,1.31,3.552,3.685 c1.036-1.188,2.073-0.912,2.073-5.383C39.875,11.333,39.783,8.812,38.747,8.812z"/><path fill="#40393A" d="M38.74,8.891c-1.483,0-3.752,3.265-4.427,5.307c0.953,0.834,1.978,1.303,3.501,3.646 c1.015-1.172,2.031-0.882,2.031-5.338C39.844,11.361,39.755,8.891,38.74,8.891z"/><path fill="#3F3839" d="M38.733,8.969c-1.452,0-3.691,3.191-4.358,5.236c0.933,0.823,1.957,1.295,3.449,3.608 c0.994-1.156,1.989-0.852,1.989-5.293C39.812,11.39,39.727,8.969,38.733,8.969z"/><path fill="#3E3738" d="M38.726,9.047c-1.422,0-3.63,3.117-4.288,5.165c0.913,0.812,1.937,1.288,3.397,3.569 c0.973-1.141,1.947-0.822,1.947-5.248C39.781,11.419,39.699,9.047,38.726,9.047z"/><path fill="#3D3637" d="M38.718,9.125c-1.391,0-3.569,3.043-4.218,5.094c0.894,0.801,1.916,1.281,3.345,3.531 c0.953-1.125,1.905-0.791,1.905-5.203C39.75,11.448,39.671,9.125,38.718,9.125z"/><path fill="#3C3536" d="M38.711,9.203c-1.361,0-3.509,2.969-4.149,5.024c0.874,0.79,1.895,1.273,3.293,3.492 c0.932-1.109,1.863-0.761,1.863-5.158C39.719,11.477,39.643,9.203,38.711,9.203z"/><path fill="#3C3535" d="M38.704,9.281c-1.33,0-3.448,2.896-4.079,4.953c0.854,0.779,1.875,1.266,3.241,3.454 c0.911-1.094,1.821-0.731,1.821-5.113C39.688,11.506,39.615,9.281,38.704,9.281z"/><path fill="#3B3434" d="M38.697,9.359c-1.299,0-3.387,2.822-4.01,4.882c0.835,0.768,1.854,1.259,3.189,3.415 c0.89-1.078,1.78-0.701,1.78-5.068C39.656,11.535,39.587,9.359,38.697,9.359z"/><path fill="#3A3333" d="M38.69,9.438c-1.269,0-3.326,2.748-3.94,4.811c0.815,0.757,1.834,1.251,3.137,3.376 c0.869-1.062,1.738-0.671,1.738-5.023C39.625,11.564,39.559,9.438,38.69,9.438z"/><path fill="#393232" d="M38.683,9.516c-1.238,0-3.265,2.674-3.871,4.74c0.796,0.745,1.813,1.244,3.085,3.338 c0.848-1.047,1.696-0.64,1.696-4.979C39.594,11.593,39.531,9.516,38.683,9.516z"/><path fill="#383131" d="M38.676,9.594c-1.208,0-3.205,2.6-3.801,4.669c0.776,0.734,1.793,1.237,3.033,3.299 c0.827-1.031,1.654-0.61,1.654-4.934C39.562,11.622,39.503,9.594,38.676,9.594z"/><path fill="#373030" d="M38.669,9.672c-1.177,0-3.144,2.526-3.732,4.599c0.756,0.723,1.772,1.23,2.982,3.261 c0.806-1.016,1.612-0.58,1.612-4.889C39.531,11.651,39.475,9.672,38.669,9.672z"/><path fill="#372F2F" d="M38.662,9.75c-1.147,0-3.083,2.452-3.662,4.528c0.737,0.712,1.752,1.222,2.93,3.222 c0.785-1,1.57-0.55,1.57-4.844C39.5,11.68,39.447,9.75,38.662,9.75z"/><path fill="#362E2E" d="M38.655,9.828c-1.116,0-3.022,2.378-3.593,4.457c0.717,0.701,1.731,1.215,2.878,3.184 c0.764-0.984,1.529-0.519,1.529-4.799C39.469,11.709,39.419,9.828,38.655,9.828z"/><path fill="#352D2D" d="M38.648,9.906c-1.086,0-2.962,2.304-3.523,4.386c0.697,0.69,1.711,1.208,2.826,3.145 c0.743-0.969,1.487-0.489,1.487-4.754C39.438,11.738,39.391,9.906,38.648,9.906z"/><path fill="#342D2C" d="M38.641,9.984c-1.055,0-2.901,2.23-3.454,4.315c0.678,0.679,1.69,1.2,2.774,3.107 c0.722-0.953,1.445-0.459,1.445-4.709C39.406,11.766,39.363,9.984,38.641,9.984z"/><path fill="#332C2B" d="M38.634,10.062c-1.024,0-2.84,2.156-3.384,4.245c0.658,0.668,1.67,1.193,2.722,3.068 c0.701-0.938,1.403-0.429,1.403-4.664C39.375,11.795,39.336,10.062,38.634,10.062z"/><path fill="#322B2A" d="M38.627,10.141c-0.994,0-2.779,2.082-3.314,4.174c0.639,0.656,1.649,1.186,2.67,3.029 c0.681-0.922,1.361-0.399,1.361-4.619C39.344,11.824,39.308,10.141,38.627,10.141z"/><path fill="#312A29" d="M38.62,10.219c-0.963,0-2.719,2.009-3.245,4.103c0.619,0.645,1.629,1.178,2.618,2.991 c0.66-0.906,1.319-0.368,1.319-4.574C39.312,11.853,39.28,10.219,38.62,10.219z"/><path fill="#312928" d="M38.613,10.297c-0.933,0-2.658,1.935-3.175,4.032c0.599,0.634,1.608,1.171,2.566,2.952 c0.639-0.891,1.277-0.338,1.277-4.529C39.281,11.882,39.252,10.297,38.613,10.297z"/><path fill="#302827" d="M38.606,10.375c-0.902,0-2.597,1.861-3.106,3.961c0.58,0.623,1.588,1.164,2.514,2.914 c0.618-0.875,1.236-0.308,1.236-4.484C39.25,11.911,39.224,10.375,38.606,10.375z"/><path fill="#2F2726" d="M38.599,10.453c-0.872,0-2.536,1.787-3.036,3.89c0.56,0.612,1.567,1.156,2.462,2.875 c0.597-0.859,1.194-0.278,1.194-4.439C39.219,11.94,39.196,10.453,38.599,10.453z"/><path fill="#2E2625" d="M38.592,10.531c-0.841,0-2.476,1.713-2.967,3.82c0.54,0.601,1.547,1.149,2.411,2.837 c0.576-0.844,1.152-0.247,1.152-4.395C39.188,11.969,39.168,10.531,38.592,10.531z"/><path fill="#2D2524" d="M38.585,10.609c-0.811,0-2.415,1.639-2.897,3.749c0.521,0.59,1.526,1.142,2.359,2.798 c0.555-0.828,1.11-0.217,1.11-4.35C39.156,11.998,39.14,10.609,38.585,10.609z"/><path fill="#2C2523" d="M38.578,10.688c-0.78,0-2.354,1.565-2.828,3.678c0.501,0.579,1.506,1.135,2.307,2.76 c0.534-0.812,1.068-0.187,1.068-4.305C39.125,12.027,39.112,10.688,38.578,10.688z"/><path fill="#2C2422" d="M38.571,10.766c-0.749,0-2.293,1.491-2.758,3.607c0.481,0.567,1.485,1.127,2.255,2.721 c0.513-0.797,1.026-0.157,1.026-4.26C39.094,12.056,39.084,10.766,38.571,10.766z"/><path fill="#2B2321" d="M38.564,10.844c-0.719,0-2.232,1.417-2.689,3.536c0.462,0.556,1.465,1.12,2.203,2.682 c0.492-0.781,0.985-0.127,0.985-4.215C39.062,12.085,39.056,10.844,38.564,10.844z"/><path fill="#2A2220" d="M38.557,10.922c-0.688,0-2.172,1.343-2.619,3.466c0.442,0.545,1.444,1.113,2.151,2.644 c0.471-0.766,0.943-0.096,0.943-4.17C39.031,12.114,39.028,10.922,38.557,10.922z"/><path fill="#29211F" d="M38.55,11c-0.658,0-2.111,1.269-2.55,3.395c0.423,0.534,1.424,1.105,2.099,2.605 C38.55,16.25,39,16.934,39,12.875C39,12.143,39,11,38.55,11z"/><linearGradient id="G15NwA_LAySaEncmOR6zMc" x1="-424.515" x2="-412.013" y1="9.861" y2="13.085" gradientTransform="matrix(-1 0 0 1 -407 0)" gradientUnits="userSpaceOnUse"><stop offset="0" stop-color="#9b918f"/><stop offset=".421" stop-color="#998f8d"/><stop offset=".612" stop-color="#928887"/><stop offset=".756" stop-color="#857c7c"/><stop offset=".878" stop-color="#736c6d"/><stop offset=".983" stop-color="#5b5659"/><stop offset="1" stop-color="#575255"/></linearGradient><path fill="url(#G15NwA_LAySaEncmOR6zMc)" d="M19,12c0,0-4.698-8-10-8c-1.961,0-3,2-3,6c0,9.173,1.388,9.122,2.767,9.852	C11.559,21.329,19,12,19,12z"/><radialGradient id="G15NwA_LAySaEncmOR6zMd" cx="-419.557" cy="12.279" r="7.877" gradientTransform="matrix(-.9714 -.2374 -.3212 1.3143 -391.064 -103.456)" gradientUnits="userSpaceOnUse"><stop offset=".767" stop-color="#dcd7cc" stop-opacity="0"/><stop offset=".865" stop-color="#dad4ca" stop-opacity=".419"/><stop offset=".937" stop-color="#d2cbc4" stop-opacity=".73"/><stop offset="1" stop-color="#c6bbb9"/></radialGradient><path fill="url(#G15NwA_LAySaEncmOR6zMd)" d="M6,10c0,9.17,1.39,10.12,2.77,10.85c2.73,1.45,9.91-8.41,10.22-8.84c-0.03-0.07-0.07-0.14-0.11-0.21	C18.11,10.57,13.8,4,9,4C7.04,4,6,6,6,10z"/><g><path fill="#5F5A5E" d="M9,6c2.613,0,6,6,7,7.927C14.321,15.173,13.263,15.5,10.579,19C8.789,17.25,7,17,7,12C7,10.291,7.211,6,9,6 z"/><path fill="#5E595D" d="M9.007,6.078c2.583,0,5.939,5.926,6.93,7.856c-1.659,1.235-2.716,1.566-5.369,5.034 c-1.769-1.734-3.537-1.97-3.537-6.955C7.031,10.32,7.238,6.078,9.007,6.078z"/><path fill="#5D585C" d="M9.014,6.156c2.552,0,5.878,5.852,6.861,7.785c-1.64,1.224-2.696,1.558-5.317,4.996 c-1.748-1.719-3.495-1.94-3.495-6.91C7.062,10.349,7.266,6.156,9.014,6.156z"/><path fill="#5C575B" d="M9.021,6.234c2.522,0,5.818,5.778,6.791,7.715c-1.62,1.213-2.675,1.551-5.265,4.957 c-1.727-1.703-3.453-1.909-3.453-6.865C7.094,10.378,7.294,6.234,9.021,6.234z"/><path fill="#5C565A" d="M9.028,6.312c2.491,0,5.757,5.704,6.722,7.644c-1.6,1.202-2.655,1.544-5.213,4.919 c-1.706-1.688-3.412-1.879-3.412-6.82C7.125,10.407,7.322,6.312,9.028,6.312z"/><path fill="#5B5659" d="M9.035,6.391c2.46,0,5.696,5.63,6.652,7.573c-1.581,1.19-2.634,1.536-5.162,4.88 c-1.685-1.672-3.37-1.849-3.37-6.775C7.156,10.436,7.35,6.391,9.035,6.391z"/><path fill="#5A5558" d="M9.042,6.469c2.43,0,5.635,5.557,6.583,7.502c-1.561,1.179-2.614,1.529-5.11,4.842 c-1.664-1.656-3.328-1.819-3.328-6.73C7.188,10.465,7.378,6.469,9.042,6.469z"/><path fill="#595457" d="M9.049,6.547c2.399,0,5.575,5.483,6.513,7.431c-1.542,1.168-2.593,1.522-5.058,4.803 c-1.643-1.641-3.286-1.788-3.286-6.686C7.219,10.494,7.406,6.547,9.049,6.547z"/><path fill="#585356" d="M9.056,6.625c2.369,0,5.514,5.409,6.444,7.361c-1.522,1.157-2.573,1.514-5.006,4.764 c-1.622-1.625-3.244-1.758-3.244-6.641C7.25,10.522,7.434,6.625,9.056,6.625z"/><path fill="#575255" d="M9.063,6.703c2.338,0,5.453,5.335,6.374,7.29c-1.502,1.146-2.552,1.507-4.954,4.726 c-1.601-1.609-3.202-1.728-3.202-6.596C7.281,10.551,7.462,6.703,9.063,6.703z"/><path fill="#575154" d="M9.07,6.781c2.308,0,5.392,5.261,6.305,7.219c-1.483,1.135-2.532,1.5-4.902,4.687 c-1.58-1.594-3.161-1.698-3.161-6.551C7.312,10.58,7.49,6.781,9.07,6.781z"/><path fill="#565053" d="M9.077,6.859c2.277,0,5.332,5.187,6.235,7.148c-1.463,1.124-2.511,1.493-4.85,4.649 c-1.559-1.578-3.119-1.668-3.119-6.506C7.344,10.609,7.518,6.859,9.077,6.859z"/><path fill="#554F52" d="M9.084,6.938c2.247,0,5.271,5.113,6.166,7.077c-1.443,1.113-2.491,1.485-4.798,4.61 c-1.538-1.562-3.077-1.637-3.077-6.461C7.375,10.638,7.546,6.938,9.084,6.938z"/><path fill="#544E51" d="M9.091,7.016c2.216,0,5.21,5.039,6.096,7.006c-1.424,1.101-2.47,1.478-4.746,4.572 c-1.517-1.547-3.035-1.607-3.035-6.416C7.406,10.667,7.574,7.016,9.091,7.016z"/><path fill="#534E50" d="M9.099,7.094c2.185,0,5.149,4.965,6.026,6.936c-1.404,1.09-2.45,1.471-4.694,4.533 c-1.497-1.531-2.993-1.577-2.993-6.371C7.438,10.696,7.602,7.094,9.099,7.094z"/><path fill="#524D4F" d="M9.106,7.172c2.155,0,5.088,4.891,5.957,6.865c-1.384,1.079-2.429,1.463-4.642,4.495 c-1.476-1.516-2.951-1.547-2.951-6.326C7.469,10.725,7.63,7.172,9.106,7.172z"/><path fill="#524C4E" d="M9.113,7.25c2.124,0,5.028,4.817,5.887,6.794c-1.365,1.068-2.408,1.456-4.591,4.456 C8.955,17,7.5,16.983,7.5,12.219C7.5,10.754,7.658,7.25,9.113,7.25z"/><path fill="#514B4D" d="M9.12,7.328c2.094,0,4.967,4.743,5.818,6.723c-1.345,1.057-2.388,1.449-4.539,4.417 c-1.434-1.484-2.868-1.486-2.868-6.236C7.531,10.783,7.686,7.328,9.12,7.328z"/><path fill="#504A4C" d="M9.127,7.406c2.063,0,4.906,4.67,5.748,6.652c-1.326,1.046-2.367,1.441-4.487,4.379 c-1.413-1.469-2.826-1.456-2.826-6.191C7.562,10.812,7.714,7.406,9.127,7.406z"/><path fill="#4F494B" d="M9.134,7.484c2.033,0,4.845,4.596,5.679,6.582c-1.306,1.035-2.347,1.434-4.435,4.34 c-1.392-1.453-2.784-1.426-2.784-6.146C7.594,10.841,7.742,7.484,9.134,7.484z"/><path fill="#4E484A" d="M9.141,7.562c2.002,0,4.785,4.522,5.609,6.511c-1.286,1.024-2.326,1.427-4.383,4.302 c-1.371-1.438-2.742-1.396-2.742-6.102C7.625,10.87,7.77,7.562,9.141,7.562z"/><path fill="#4D4749" d="M9.148,7.641c1.972,0,4.724,4.448,5.54,6.44c-1.267,1.012-2.306,1.419-4.331,4.263 c-1.35-1.422-2.7-1.365-2.7-6.057C7.656,10.899,7.798,7.641,9.148,7.641z"/><path fill="#4C4648" d="M9.155,7.719c1.941,0,4.663,4.374,5.47,6.369c-1.247,1.001-2.285,1.412-4.279,4.225 c-1.329-1.406-2.658-1.335-2.658-6.012C7.688,10.927,7.826,7.719,9.155,7.719z"/><path fill="#4C4647" d="M9.162,7.797c1.911,0,4.602,4.3,5.401,6.298c-1.227,0.99-2.265,1.405-4.227,4.186 c-1.308-1.391-2.617-1.305-2.617-5.967C7.719,10.956,7.854,7.797,9.162,7.797z"/><path fill="#4B4546" d="M9.169,7.875c1.88,0,4.542,4.226,5.331,6.227c-1.208,0.979-2.244,1.398-4.175,4.148 c-1.287-1.375-2.575-1.275-2.575-5.922C7.75,10.985,7.882,7.875,9.169,7.875z"/><path fill="#4A4445" d="M9.176,7.953c1.849,0,4.481,4.152,5.262,6.157c-1.188,0.968-2.224,1.39-4.123,4.109 c-1.266-1.359-2.533-1.245-2.533-5.877C7.781,11.014,7.91,7.953,9.176,7.953z"/><path fill="#494344" d="M9.183,8.031c1.819,0,4.42,4.078,5.192,6.086c-1.169,0.957-2.203,1.383-4.072,4.07 c-1.245-1.344-2.491-1.214-2.491-5.832C7.812,11.043,7.937,8.031,9.183,8.031z"/><path fill="#484243" d="M9.19,8.109c1.788,0,4.359,4.004,5.122,6.015c-1.149,0.946-2.183,1.376-4.02,4.032 c-1.225-1.328-2.449-1.184-2.449-5.787C7.844,11.072,7.965,8.109,9.19,8.109z"/><path fill="#474142" d="M9.197,8.188c1.758,0,4.299,3.93,5.053,5.944c-1.129,0.935-2.162,1.368-3.968,3.993 c-1.204-1.312-2.407-1.154-2.407-5.742C7.875,11.101,7.993,8.188,9.197,8.188z"/><path fill="#474041" d="M9.204,8.266c1.727,0,4.238,3.856,4.983,5.873c-1.11,0.923-2.142,1.361-3.916,3.955 c-1.183-1.297-2.365-1.124-2.365-5.697C7.906,11.13,8.021,8.266,9.204,8.266z"/><path fill="#463F40" d="M9.211,8.344c1.697,0,4.177,3.783,4.914,5.803c-1.09,0.912-2.121,1.354-3.864,3.916 c-1.162-1.281-2.324-1.094-2.324-5.652C7.938,11.159,8.049,8.344,9.211,8.344z"/><path fill="#453E3F" d="M9.218,8.422c1.666,0,4.116,3.709,4.844,5.732c-1.07,0.901-2.101,1.346-3.812,3.878 c-1.141-1.266-2.282-1.063-2.282-5.607C7.969,11.188,8.077,8.422,9.218,8.422z"/><path fill="#443E3F" d="M9.225,8.5c1.636,0,4.055,3.635,4.775,5.661c-1.051,0.89-2.08,1.339-3.76,3.839 C9.12,16.75,8,16.967,8,12.438C8,11.217,8.105,8.5,9.225,8.5z"/><path fill="#433D3E" d="M9.232,8.578c1.605,0,3.995,3.561,4.705,5.59c-1.031,0.879-2.06,1.332-3.708,3.801 c-1.099-1.234-2.198-1.003-2.198-5.518C8.031,11.246,8.133,8.578,9.232,8.578z"/><path fill="#423C3D" d="M9.239,8.656c1.574,0,3.934,3.487,4.636,5.519c-1.012,0.868-2.039,1.324-3.656,3.762 c-1.078-1.219-2.156-0.973-2.156-5.473C8.062,11.275,8.161,8.656,9.239,8.656z"/><path fill="#413B3C" d="M9.246,8.734c1.544,0,3.873,3.413,4.566,5.448c-0.992,0.857-2.019,1.317-3.604,3.723 c-1.057-1.203-2.114-0.942-2.114-5.428C8.094,11.304,8.189,8.734,9.246,8.734z"/><path fill="#413A3B" d="M9.253,8.812c1.513,0,3.812,3.339,4.497,5.378c-0.972,0.846-1.998,1.31-3.552,3.685 c-1.036-1.188-2.073-0.912-2.073-5.383C8.125,11.333,8.217,8.812,9.253,8.812z"/><path fill="#40393A" d="M9.26,8.891c1.483,0,3.752,3.265,4.427,5.307c-0.953,0.834-1.978,1.303-3.501,3.646 c-1.015-1.172-2.031-0.882-2.031-5.338C8.156,11.361,8.245,8.891,9.26,8.891z"/><path fill="#3F3839" d="M9.267,8.969c1.452,0,3.691,3.191,4.358,5.236c-0.933,0.823-1.957,1.295-3.449,3.608 c-0.994-1.156-1.989-0.852-1.989-5.293C8.188,11.39,8.273,8.969,9.267,8.969z"/><path fill="#3E3738" d="M9.274,9.047c1.422,0,3.63,3.117,4.288,5.165c-0.913,0.812-1.937,1.288-3.397,3.569 c-0.973-1.141-1.947-0.822-1.947-5.248C8.219,11.419,8.301,9.047,9.274,9.047z"/><path fill="#3D3637" d="M9.282,9.125c1.391,0,3.569,3.043,4.218,5.094c-0.894,0.801-1.916,1.281-3.345,3.531 c-0.953-1.125-1.905-0.791-1.905-5.203C8.25,11.448,8.329,9.125,9.282,9.125z"/><path fill="#3C3536" d="M9.289,9.203c1.361,0,3.509,2.969,4.149,5.024c-0.874,0.79-1.895,1.273-3.293,3.492 c-0.932-1.109-1.863-0.761-1.863-5.158C8.281,11.477,8.357,9.203,9.289,9.203z"/><path fill="#3C3535" d="M9.296,9.281c1.33,0,3.448,2.896,4.079,4.953c-0.854,0.779-1.875,1.266-3.241,3.454 c-0.911-1.094-1.821-0.731-1.821-5.113C8.312,11.506,8.385,9.281,9.296,9.281z"/><path fill="#3B3434" d="M9.303,9.359c1.299,0,3.387,2.822,4.01,4.882c-0.835,0.768-1.854,1.259-3.189,3.415 c-0.89-1.078-1.78-0.701-1.78-5.068C8.344,11.535,8.413,9.359,9.303,9.359z"/><path fill="#3A3333" d="M9.31,9.438c1.269,0,3.326,2.748,3.94,4.811c-0.815,0.757-1.834,1.251-3.137,3.376 c-0.869-1.062-1.738-0.671-1.738-5.023C8.375,11.564,8.441,9.438,9.31,9.438z"/><path fill="#393232" d="M9.317,9.516c1.238,0,3.265,2.674,3.871,4.74c-0.796,0.745-1.813,1.244-3.085,3.338 c-0.848-1.047-1.696-0.64-1.696-4.979C8.406,11.593,8.469,9.516,9.317,9.516z"/><path fill="#383131" d="M9.324,9.594c1.208,0,3.205,2.6,3.801,4.669c-0.776,0.734-1.793,1.237-3.033,3.299 c-0.827-1.031-1.654-0.61-1.654-4.934C8.438,11.622,8.497,9.594,9.324,9.594z"/><path fill="#373030" d="M9.331,9.672c1.177,0,3.144,2.526,3.732,4.599c-0.756,0.723-1.772,1.23-2.982,3.261 c-0.806-1.016-1.612-0.58-1.612-4.889C8.469,11.651,8.525,9.672,9.331,9.672z"/><path fill="#372F2F" d="M9.338,9.75c1.147,0,3.083,2.452,3.662,4.528c-0.737,0.712-1.752,1.222-2.93,3.222 c-0.785-1-1.57-0.55-1.57-4.844C8.5,11.68,8.553,9.75,9.338,9.75z"/><path fill="#362E2E" d="M9.345,9.828c1.116,0,3.022,2.378,3.593,4.457c-0.717,0.701-1.731,1.215-2.878,3.184 c-0.764-0.984-1.529-0.519-1.529-4.799C8.531,11.709,8.581,9.828,9.345,9.828z"/><path fill="#352D2D" d="M9.352,9.906c1.086,0,2.962,2.304,3.523,4.386c-0.697,0.69-1.711,1.208-2.826,3.145 c-0.743-0.969-1.487-0.489-1.487-4.754C8.562,11.738,8.609,9.906,9.352,9.906z"/><path fill="#342D2C" d="M9.359,9.984c1.055,0,2.901,2.23,3.454,4.315c-0.678,0.679-1.69,1.2-2.774,3.107 c-0.722-0.953-1.445-0.459-1.445-4.709C8.594,11.766,8.637,9.984,9.359,9.984z"/><path fill="#332C2B" d="M9.366,10.062c1.024,0,2.84,2.156,3.384,4.245c-0.658,0.668-1.67,1.193-2.722,3.068 c-0.702-0.938-1.403-0.429-1.403-4.664C8.625,11.795,8.664,10.062,9.366,10.062z"/><path fill="#322B2A" d="M9.373,10.141c0.994,0,2.779,2.082,3.314,4.174c-0.639,0.656-1.649,1.186-2.67,3.029 c-0.681-0.922-1.361-0.399-1.361-4.619C8.656,11.824,8.692,10.141,9.373,10.141z"/><path fill="#312A29" d="M9.38,10.219c0.963,0,2.719,2.009,3.245,4.103c-0.619,0.645-1.629,1.178-2.618,2.991 c-0.66-0.906-1.319-0.368-1.319-4.574C8.688,11.853,8.72,10.219,9.38,10.219z"/><path fill="#312928" d="M9.387,10.297c0.933,0,2.658,1.935,3.175,4.032c-0.599,0.634-1.608,1.171-2.566,2.952 c-0.639-0.891-1.277-0.338-1.277-4.529C8.719,11.882,8.748,10.297,9.387,10.297z"/><path fill="#302827" d="M9.394,10.375c0.902,0,2.597,1.861,3.106,3.961c-0.58,0.623-1.588,1.164-2.514,2.914 c-0.618-0.875-1.236-0.308-1.236-4.484C8.75,11.911,8.776,10.375,9.394,10.375z"/><path fill="#2F2726" d="M9.401,10.453c0.872,0,2.536,1.787,3.036,3.89c-0.56,0.612-1.567,1.156-2.462,2.875 c-0.597-0.859-1.194-0.278-1.194-4.439C8.781,11.94,8.804,10.453,9.401,10.453z"/><path fill="#2E2625" d="M9.408,10.531c0.841,0,2.476,1.713,2.967,3.82c-0.54,0.601-1.547,1.149-2.411,2.837 c-0.576-0.844-1.152-0.247-1.152-4.395C8.812,11.969,8.832,10.531,9.408,10.531z"/><path fill="#2D2524" d="M9.415,10.609c0.811,0,2.415,1.639,2.897,3.749c-0.521,0.59-1.526,1.142-2.359,2.798 c-0.555-0.828-1.11-0.217-1.11-4.35C8.844,11.998,8.86,10.609,9.415,10.609z"/><path fill="#2C2523" d="M9.422,10.688c0.78,0,2.354,1.565,2.828,3.678c-0.501,0.579-1.506,1.135-2.307,2.76 c-0.534-0.812-1.068-0.187-1.068-4.305C8.875,12.027,8.888,10.688,9.422,10.688z"/><path fill="#2C2422" d="M9.429,10.766c0.749,0,2.293,1.491,2.758,3.607c-0.481,0.567-1.485,1.127-2.255,2.721 c-0.513-0.797-1.026-0.157-1.026-4.26C8.906,12.056,8.916,10.766,9.429,10.766z"/><path fill="#2B2321" d="M9.436,10.844c0.719,0,2.232,1.417,2.689,3.536c-0.462,0.556-1.465,1.12-2.203,2.682 c-0.492-0.781-0.985-0.127-0.985-4.215C8.938,12.085,8.944,10.844,9.436,10.844z"/><path fill="#2A2220" d="M9.443,10.922c0.688,0,2.172,1.343,2.619,3.466c-0.442,0.545-1.444,1.113-2.151,2.644 c-0.471-0.766-0.943-0.096-0.943-4.17C8.969,12.114,8.972,10.922,9.443,10.922z"/><path fill="#29211F" d="M9.45,11c0.658,0,2.111,1.269,2.55,3.395C11.577,14.929,10.576,15.5,9.901,17C9.45,16.25,9,16.934,9,12.875 C9,12.143,9,11,9.45,11z"/></g><radialGradient id="G15NwA_LAySaEncmOR6zMe" cx="23.811" cy="30.58" r="21.808" gradientTransform="matrix(1 0 0 .9309 0 2.114)" gradientUnits="userSpaceOnUse"><stop offset="0" stop-color="#b1a7a4"/><stop offset=".486" stop-color="#afa5a2"/><stop offset=".707" stop-color="#a89e9b"/><stop offset=".874" stop-color="#9b918f"/><stop offset="1" stop-color="#8b8180"/></radialGradient><path fill="url(#G15NwA_LAySaEncmOR6zMe)" d="M41.539,17c-4-2-4.539-3-9.882-5.964C30.4,10.339,26.979,9,24,9c-2.979,0-6.4,1.339-7.658,2.036	C11,14,10.46,15,6.46,17C6.46,17,1,22,1,30c0,11,19,12,23,12s23-1,23-12C47,22,41.539,17,41.539,17z"/><radialGradient id="G15NwA_LAySaEncmOR6zMf" cx="30.227" cy="25.266" r="4.082" gradientUnits="userSpaceOnUse"><stop offset=".001" stop-color="#f2f0ea"/><stop offset=".994" stop-color="#d5d1ca"/><stop offset="1" stop-color="#d5d1ca"/></radialGradient><path fill="url(#G15NwA_LAySaEncmOR6zMf)" d="M29,20c-2,0-3,2.093-3,3c0,2-0.068,5.829,0,7h-2v13c3.818,0,22-3.206,22-10c0-4-4.556-4.553-8-7	C34.978,23.853,32.272,20,29,20z"/><radialGradient id="G15NwA_LAySaEncmOR6zMg" cx="39.347" cy="33.183" r="7.367" gradientUnits="userSpaceOnUse"><stop offset=".419" stop-color="#f2f0ea"/><stop offset=".996" stop-color="#d5d1ca" stop-opacity=".006"/><stop offset="1" stop-color="#d5d1ca" stop-opacity="0"/></radialGradient><path fill="url(#G15NwA_LAySaEncmOR6zMg)" d="M29,20c-2,0-3,2.093-3,3c0,2-0.068,5.829,0,7h-2v13c3.818,0,22-3.206,22-10c0-4-4.556-4.553-8-7	C34.978,23.853,32.272,20,29,20z"/><g><radialGradient id="G15NwA_LAySaEncmOR6zMh" cx="-423.773" cy="25.266" r="4.082" gradientTransform="matrix(-1 0 0 1 -406 0)" gradientUnits="userSpaceOnUse"><stop offset=".001" stop-color="#f2f0ea"/><stop offset=".994" stop-color="#d5d1ca"/><stop offset="1" stop-color="#d5d1ca"/></radialGradient><path fill="url(#G15NwA_LAySaEncmOR6zMh)" d="M19,20c2,0,3,2.093,3,3c0,2,0.068,5.829,0,7h2v13c-3.818,0-22-3.206-22-10c0-4,4.556-4.553,8-7 C13.022,23.853,15.728,20,19,20z"/><radialGradient id="G15NwA_LAySaEncmOR6zMi" cx="-414.653" cy="33.183" r="7.367" gradientTransform="matrix(-1 0 0 1 -406 0)" gradientUnits="userSpaceOnUse"><stop offset=".419" stop-color="#f2f0ea"/><stop offset=".996" stop-color="#d5d1ca" stop-opacity=".006"/><stop offset="1" stop-color="#d5d1ca" stop-opacity="0"/></radialGradient><path fill="url(#G15NwA_LAySaEncmOR6zMi)" d="M19,20c2,0,3,2.093,3,3c0,2,0.068,5.829,0,7h2v13c-3.818,0-22-3.206-22-10c0-4,4.556-4.553,8-7 C13.022,23.853,15.728,20,19,20z"/></g><radialGradient id="G15NwA_LAySaEncmOR6zMj" cx="31.957" cy="31.899" r="5.53" gradientTransform="matrix(1 0 0 .9396 0 1.926)" gradientUnits="userSpaceOnUse"><stop offset="0" stop-color="#52484b"/><stop offset=".739" stop-color="#342c2b"/><stop offset=".997" stop-color="#29211f"/></radialGradient><path fill="url(#G15NwA_LAySaEncmOR6zMj)" d="M27,29c0-1,1-4,3-4c1,0,2,0,4,2c1.759,1.759,7,4,7,7c0,4-5,5-8,5C33,39,27,32.25,27,29z"/><radialGradient id="G15NwA_LAySaEncmOR6zMk" cx="-444.043" cy="31.899" r="5.53" gradientTransform="matrix(-1 0 0 .9396 -428 1.926)" gradientUnits="userSpaceOnUse"><stop offset="0" stop-color="#52484b"/><stop offset=".739" stop-color="#342c2b"/><stop offset=".997" stop-color="#29211f"/></radialGradient><path fill="url(#G15NwA_LAySaEncmOR6zMk)" d="M21,29c0-1-1-4-3-4c-1,0-2,0-4,2c-1.759,1.759-7,4-7,7c0,4,5,5,8,5C15,39,21,32.25,21,29z"/><radialGradient id="G15NwA_LAySaEncmOR6zMl" cx="23.959" cy="27.409" r="6.307" gradientTransform="matrix(1 0 0 1.1403 0 -3.847)" gradientUnits="userSpaceOnUse"><stop offset=".361" stop-color="#938785"/><stop offset=".716" stop-color="#a59a97"/><stop offset=".997" stop-color="#aea4a0"/></radialGradient><path fill="url(#G15NwA_LAySaEncmOR6zMl)" d="M26,24c0,0,0,1.52,0,2.01c0,1.12,0,3.99,0,3.99h-4c0,0,0-2.87,0-3.99C22,25,22,24,22,24	c0-2-1-4-2.73-4h9.46C27,20,26,22,26,24z"/><path fill="#E2DFD7" d="M15,37c0,3,3.6,7,9.012,7C29.4,44,33,40,33,37H15z"/><radialGradient id="G15NwA_LAySaEncmOR6zMm" cx="58.027" cy="39.809" r="11.87" gradientTransform="matrix(.9 0 0 .2969 -28.2 27.99)" gradientUnits="userSpaceOnUse"><stop offset="0" stop-color="#52484b"/><stop offset=".274" stop-color="#817979" stop-opacity=".726"/><stop offset=".611" stop-color="#b5b0ab" stop-opacity=".389"/><stop offset=".863" stop-color="#d6d2cb" stop-opacity=".137"/><stop offset="1" stop-color="#e2dfd7" stop-opacity="0"/></radialGradient><path fill="url(#G15NwA_LAySaEncmOR6zMm)" d="M15,37c0,3,3.6,7,9.012,7C29.4,44,33,40,33,37H15z"/><path fill="#E2DFD7" d="M21.389,29C18.169,29,14,35.289,14,37.192C14,39.146,15.423,40,22,40c0.493,0,3.507,0,4,0	c6.577,0,8-0.854,8-2.808c0-1.904-4.169-8.176-7.355-8.176C25.331,29.017,22.703,29,21.389,29z"/><radialGradient id="G15NwA_LAySaEncmOR6zMn" cx="23.82" cy="40.279" r="9.868" gradientTransform="matrix(1 0 0 .3866 0 24.706)" gradientUnits="userSpaceOnUse"><stop offset="0" stop-color="#52484b"/><stop offset=".274" stop-color="#817979" stop-opacity=".726"/><stop offset=".611" stop-color="#b5b0ab" stop-opacity=".389"/><stop offset=".863" stop-color="#d6d2cb" stop-opacity=".137"/><stop offset="1" stop-color="#e2dfd7" stop-opacity="0"/></radialGradient><path fill="url(#G15NwA_LAySaEncmOR6zMn)" d="M21.389,29C18.169,29,14,35.289,14,37.192C14,39.146,15.423,40,22,40c0.493,0,3.507,0,4,0	c6.577,0,8-0.854,8-2.808c0-1.904-4.169-8.176-7.355-8.176C25.331,29.017,22.703,29,21.389,29z"/><radialGradient id="G15NwA_LAySaEncmOR6zMo" cx="23.978" cy="37.726" r="11.098" gradientUnits="userSpaceOnUse"><stop offset="0" stop-color="#e2dfd7" stop-opacity="0"/><stop offset=".265" stop-color="#e0dcd5" stop-opacity=".265"/><stop offset=".426" stop-color="#d8d4cd" stop-opacity=".426"/><stop offset=".56" stop-color="#cac6bf" stop-opacity=".56"/><stop offset=".678" stop-color="#b6b1ad" stop-opacity=".678"/><stop offset=".787" stop-color="#9d9794" stop-opacity=".787"/><stop offset=".888" stop-color="#7e7676" stop-opacity=".888"/><stop offset=".981" stop-color="#5a5153" stop-opacity=".981"/><stop offset="1" stop-color="#52484b"/></radialGradient><path fill="url(#G15NwA_LAySaEncmOR6zMo)" d="M21.389,29C18.169,29,14,35.289,14,37.192C14,39.146,15.423,40,22,40c0.493,0,3.507,0,4,0	c6.577,0,8-0.854,8-2.808c0-1.904-4.169-8.176-7.355-8.176C25.331,29.017,22.703,29,21.389,29z"/><g><path fill="#2B2225" d="M24.571,33h-1.143c0,0-3.429,0-3.429,2s2.286,4,3.429,4h1.143C25.714,39,28,37,28,35S24.571,33,24.571,33z"/><path fill="#3D3136" d="M24.571,33h-1.143c0,0-3.429,0-3.429,2c0,0,1-1,4-1c3,0,4,1,4,1C28,33,24.571,33,24.571,33z"/><path fill="#191315" d="M25.281,36.902c-0.407-0.491-0.367-1.222,0.09-1.632s1.158-0.344,1.565,0.147 C27.343,35.908,25.689,37.393,25.281,36.902z"/><path fill="#191315" d="M21.064,35.417c0.407-0.491,1.108-0.557,1.565-0.147s0.497,1.141,0.09,1.632 C22.311,37.393,20.657,35.908,21.064,35.417z"/></g><g><radialGradient id="G15NwA_LAySaEncmOR6zMp" cx="-16.691" cy="-2.424" r="1.404" gradientTransform="matrix(1.0941 -.5762 .7611 1.3863 50.287 20.886)" gradientUnits="userSpaceOnUse"><stop offset=".129" stop-color="#160c09"/><stop offset=".291" stop-color="#190e0c"/><stop offset=".41" stop-color="#221614"/><stop offset=".513" stop-color="#322423"/><stop offset=".597" stop-color="#453434"/><stop offset=".716" stop-color="#3a2c2c"/><stop offset=".924" stop-color="#1c1618"/></radialGradient><path fill="url(#G15NwA_LAySaEncmOR6zMp)" d="M28,28.132c0,0,0.294-2.132,2.356-2.132c0.848,0,1.365,0.142,1.365,0.142s0.776,1.543-0.263,2.443 C30.42,29.484,28.549,28.73,28,28.132z"/><ellipse cx="29.592" cy="26.764" fill="#FFF" rx=".408" ry=".399"/></g><g><radialGradient id="G15NwA_LAySaEncmOR6zMq" cx="-390.197" cy="-2.424" r="1.404" gradientTransform="matrix(-1.0941 -.5762 -.7611 1.3863 -410.958 -194.311)" gradientUnits="userSpaceOnUse"><stop offset=".129" stop-color="#160c09"/><stop offset=".291" stop-color="#190e0c"/><stop offset=".41" stop-color="#221614"/><stop offset=".513" stop-color="#322423"/><stop offset=".597" stop-color="#453434"/><stop offset=".716" stop-color="#3a2c2c"/><stop offset=".924" stop-color="#1c1618"/></radialGradient><path fill="url(#G15NwA_LAySaEncmOR6zMq)" d="M20,28.132c0,0-0.294-2.132-2.356-2.132c-0.848,0-1.365,0.142-1.365,0.142 s-0.776,1.543,0.263,2.443C17.58,29.484,19.451,28.73,20,28.132z"/><ellipse cx="17.486" cy="26.764" fill="#FFF" rx=".408" ry=".399"/></g></svg>