<svg xmlns="http://www.w3.org/2000/svg" viewBox="0 0 48 48"><radialGradient id="bUMjZZ1oWVARfi1W1_ssJa" cx="22.122" cy="12.461" r="32.365" gradientTransform="matrix(.1193 .9929 -.658 .079 26.882 -5.377)" gradientUnits="userSpaceOnUse"><stop offset=".148" stop-color="#ffcf14"/><stop offset=".355" stop-color="#fdcc14"/><stop offset=".533" stop-color="#f6c116"/><stop offset=".7" stop-color="#ebaf18"/><stop offset=".859" stop-color="#db971b"/><stop offset="1" stop-color="#c97a1f"/></radialGradient><path fill="url(#bUMjZZ1oWVARfi1W1_ssJa)" d="M15.772,5.056c2.226-0.195,5.567,2.228,6.191,8.018s-1.599,7.84-1.314,13.334 c0.293,5.662,5.185,14.877-1.79,16.353c-6.183,1.308-6.788-4.155-7.76-11.482C9.96,22.697,7.563,20.65,7.153,15.963 C6.591,9.54,12.375,5.353,15.772,5.056z"/><g opacity=".35"><path fill="#591709" d="M21.228,23.326c-0.07-2.168-0.858-8.666-6.282-10.934l-0.093,2.516c0,0,3.156,2.765,5.004,5.895 c0.009,0.025,0.604,1.757,0.312,3.58c-0.542,3.383-2.684,6.841-0.992,6.882C20.214,31.29,21.654,27.49,21.228,23.326z"/><path fill="#591709" d="M16.199,14.8l0.093-2.516c-5.118,2.56-6.441,8.07-6.589,11.344 c-0.065,0.712,0.21,1.379,0.287,2.132c0.022,0.293,0.043,0.459,0.043,0.459c0.002-0.017,0.006-0.032,0.008-0.049 c0.501,3.793,1.458,6.084,2.883,5.49c0.888-0.371-0.724-2.295-1.845-5.532c-0.354-1.022-0.665-1.979-0.643-2.675 C12.109,18.433,16.199,14.8,16.199,14.8z"/></g><linearGradient id="bUMjZZ1oWVARfi1W1_ssJb" x1="16.249" x2="17.429" y1="6.306" y2="6.306" gradientTransform="rotate(-4.997 80.223 24.174)" gradientUnits="userSpaceOnUse"><stop offset=".005" stop-color="#ba2c00"/><stop offset=".202" stop-color="#c83406"/><stop offset="1" stop-color="#ff511c"/></linearGradient><path fill="url(#bUMjZZ1oWVARfi1W1_ssJb)" d="M15.51,13.3c-0.021,0.002-0.043,0.002-0.065,0.001c-0.252-0.014-0.444-0.228-0.43-0.48 l0.103-1.89c0.014-0.252,0.23-0.437,0.48-0.431c0.252,0.014,0.444,0.228,0.43,0.48l-0.103,1.89 C15.913,13.1,15.733,13.28,15.51,13.3z"/><linearGradient id="bUMjZZ1oWVARfi1W1_ssJc" x1="18.034" x2="22" y1="20.331" y2="20.331" gradientTransform="rotate(-4.997 80.223 24.174)" gradientUnits="userSpaceOnUse"><stop offset="0" stop-color="#ff511c"/><stop offset=".798" stop-color="#c83406"/><stop offset=".995" stop-color="#ba2c00"/></linearGradient><path fill="url(#bUMjZZ1oWVARfi1W1_ssJc)" d="M20.361,19.937c0,0,0.608,1.748,0.314,3.585c-0.542,3.383-3.465,7.354-1.819,7.748 c1.935,0.462,3.777-6.755,2.305-11.036L20.361,19.937z"/><linearGradient id="bUMjZZ1oWVARfi1W1_ssJd" x1="9.397" x2="13.184" y1="21.282" y2="21.282" gradientTransform="rotate(-4.997 80.223 24.174)" gradientUnits="userSpaceOnUse"><stop offset="0" stop-color="#ff511c"/><stop offset=".798" stop-color="#c83406"/><stop offset=".995" stop-color="#ba2c00"/></linearGradient><path fill="url(#bUMjZZ1oWVARfi1W1_ssJd)" d="M9.995,21.987c0,0-0.295,1.827,0.314,3.585c1.121,3.238,4.438,6.283,2.885,6.957 c-1.825,0.791-4.641-5.639-3.935-10.111L9.995,21.987z"/><linearGradient id="bUMjZZ1oWVARfi1W1_ssJe" x1="9.385" x2="16.839" y1="12.974" y2="12.974" gradientTransform="rotate(-4.997 80.223 24.174)" gradientUnits="userSpaceOnUse"><stop offset=".005" stop-color="#ba2c00"/><stop offset=".202" stop-color="#c83406"/><stop offset="1" stop-color="#ff511c"/></linearGradient><path fill="url(#bUMjZZ1oWVARfi1W1_ssJe)" d="M15.521,11.901l-0.093,2.516c0,0-5.343,4.945-6.165,11.42 C9.263,25.837,7.928,15.7,15.521,11.901z"/><linearGradient id="bUMjZZ1oWVARfi1W1_ssJf" x1="16.527" x2="22.053" y1="12.372" y2="12.372" gradientTransform="rotate(-4.997 80.223 24.174)" gradientUnits="userSpaceOnUse"><stop offset=".005" stop-color="#ba2c00"/><stop offset=".202" stop-color="#c83406"/><stop offset="1" stop-color="#ff511c"/></linearGradient><path fill="url(#bUMjZZ1oWVARfi1W1_ssJf)" d="M15.521,11.901l-0.093,2.516c0,0,5.673,4.966,6.261,9.124 C21.689,23.541,22.075,14.642,15.521,11.901z"/><radialGradient id="bUMjZZ1oWVARfi1W1_ssJg" cx="24.111" cy="14.52" r="32.365" gradientTransform="matrix(-.1193 .9929 .658 .079 33.15 -5.636)" gradientUnits="userSpaceOnUse"><stop offset=".148" stop-color="#ffcf14"/><stop offset=".355" stop-color="#fdcc14"/><stop offset=".533" stop-color="#f6c116"/><stop offset=".7" stop-color="#ebaf18"/><stop offset=".859" stop-color="#db971b"/><stop offset="1" stop-color="#c97a1f"/></radialGradient><path fill="url(#bUMjZZ1oWVARfi1W1_ssJg)" d="M32.228,5.056c-2.226-0.195-5.567,2.228-6.191,8.018s1.599,7.84,1.314,13.334 c-0.293,5.662-5.185,14.877,1.79,16.353c6.183,1.308,6.788-4.155,7.76-11.482c1.139-8.582,3.536-10.629,3.946-15.316 C41.409,9.54,35.625,5.353,32.228,5.056z"/><g opacity=".35"><path fill="#591709" d="M26.843,23.326c0.07-2.168,0.858-8.666,6.282-10.934l0.093,2.516c0,0-3.156,2.765-5.004,5.895 c-0.009,0.025-0.604,1.757-0.312,3.58c0.542,3.383,2.684,6.841,0.992,6.882C27.858,31.29,26.417,27.49,26.843,23.326z"/><path fill="#591709" d="M31.872,14.8l-0.093-2.516c5.118,2.56,6.441,8.07,6.589,11.344 c0.065,0.712-0.21,1.379-0.287,2.132c-0.022,0.293-0.043,0.459-0.043,0.459c-0.002-0.017-0.006-0.032-0.008-0.049 c-0.501,3.793-1.458,6.084-2.883,5.49c-0.888-0.371,0.724-2.295,1.845-5.532c0.354-1.022,0.665-1.979,0.643-2.675 C35.962,18.433,31.872,14.8,31.872,14.8z"/></g><g><linearGradient id="bUMjZZ1oWVARfi1W1_ssJh" x1="31.501" x2="32.681" y1="7.64" y2="7.64" gradientTransform="scale(-1 1) rotate(-5.002 48.565 748.836)" gradientUnits="userSpaceOnUse"><stop offset=".005" stop-color="#ba2c00"/><stop offset=".202" stop-color="#c83406"/><stop offset="1" stop-color="#ff511c"/></linearGradient><path fill="url(#bUMjZZ1oWVARfi1W1_ssJh)" d="M32.49,13.3c0.021,0.002,0.043,0.002,0.065,0.001c0.252-0.014,0.444-0.228,0.43-0.48 l-0.103-1.89c-0.014-0.252-0.23-0.437-0.48-0.431c-0.252,0.014-0.444,0.228-0.43,0.48l0.103,1.89 C32.087,13.1,32.267,13.28,32.49,13.3z"/></g><linearGradient id="bUMjZZ1oWVARfi1W1_ssJi" x1="33.266" x2="37.232" y1="21.888" y2="21.888" gradientTransform="scale(-1 1) rotate(-5.002 48.565 748.836)" gradientUnits="userSpaceOnUse"><stop offset=".005" stop-color="#ba2c00"/><stop offset=".202" stop-color="#c83406"/><stop offset="1" stop-color="#ff511c"/></linearGradient><path fill="url(#bUMjZZ1oWVARfi1W1_ssJi)" d="M27.639,20.16c0,0-0.608,1.748-0.314,3.585c0.542,3.383,3.465,7.354,1.819,7.748 c-1.935,0.462-3.777-6.755-2.305-11.036L27.639,20.16z"/><linearGradient id="bUMjZZ1oWVARfi1W1_ssJj" x1="24.634" x2="28.421" y1="22.79" y2="22.79" gradientTransform="scale(-1 1) rotate(-5.002 48.565 748.836)" gradientUnits="userSpaceOnUse"><stop offset=".005" stop-color="#ba2c00"/><stop offset=".202" stop-color="#c83406"/><stop offset="1" stop-color="#ff511c"/></linearGradient><path fill="url(#bUMjZZ1oWVARfi1W1_ssJj)" d="M38.005,22.161c0,0,0.295,1.827-0.314,3.585c-1.121,3.238-4.438,6.283-2.885,6.957 c1.825,0.791,4.641-5.639,3.935-10.111L38.005,22.161z"/><linearGradient id="bUMjZZ1oWVARfi1W1_ssJk" x1="24.637" x2="32.091" y1="14.309" y2="14.309" gradientTransform="scale(-1 1) rotate(-5.002 48.565 748.836)" gradientUnits="userSpaceOnUse"><stop offset="0" stop-color="#ff511c"/><stop offset=".798" stop-color="#c83406"/><stop offset=".995" stop-color="#ba2c00"/></linearGradient><path fill="url(#bUMjZZ1oWVARfi1W1_ssJk)" d="M32.479,11.901l0.093,2.516c0,0,5.343,4.945,6.165,11.42 C38.737,25.837,40.072,15.7,32.479,11.901z"/><linearGradient id="bUMjZZ1oWVARfi1W1_ssJl" x1="31.779" x2="37.305" y1="13.707" y2="13.707" gradientTransform="scale(-1 1) rotate(-5.002 48.565 748.836)" gradientUnits="userSpaceOnUse"><stop offset="0" stop-color="#ff511c"/><stop offset=".798" stop-color="#c83406"/><stop offset=".995" stop-color="#ba2c00"/></linearGradient><path fill="url(#bUMjZZ1oWVARfi1W1_ssJl)" d="M32.479,11.901l0.093,2.516c0,0-5.673,4.966-6.261,9.124 C26.311,23.541,25.925,14.642,32.479,11.901z"/></svg>