<svg xmlns="http://www.w3.org/2000/svg" viewBox="0 0 48 48"><path fill="#262c30" d="M2.677,29.479L2.677,29.479c-0.38,0-0.688-0.308-0.688-0.688v-2.604 c0-0.38,0.308-0.688,0.688-0.688h0c0.38,0,0.688,0.308,0.688,0.688v2.604C3.364,29.171,3.057,29.479,2.677,29.479z"/><linearGradient id="pP5BsoBikAnEW1oMucu_Ca" x1="3.278" x2="45.16" y1="18.713" y2="18.713" gradientUnits="userSpaceOnUse"><stop offset="0" stop-color="#262c30"/><stop offset=".052" stop-color="#2e3437"/><stop offset=".134" stop-color="#45494b"/><stop offset=".236" stop-color="#6a6b6c"/><stop offset=".262" stop-color="#757575"/><stop offset=".398" stop-color="#4b4f51"/><stop offset=".535" stop-color="#262c30"/><stop offset=".775" stop-color="#7a7a7a"/><stop offset=".825" stop-color="#6d6e6e"/><stop offset=".917" stop-color="#4a4e50"/><stop offset="1" stop-color="#262c30"/></linearGradient><path fill="url(#pP5BsoBikAnEW1oMucu_Ca)" d="M4.74,27.89c-0.097-0.425-3.628-8.166,0.648-14.228c1.751-2.483,4.314-3.94,7.617-4.33 c4.601-0.544,8.164,0.272,11.937,1.135c3.272,0.748,6.655,1.521,11.232,1.597c3.244,0.054,5.721,1.158,7.362,3.282 c3.429,4.438,0.373,12.619,0.298,12.925l-0.312-2.673c0.015-0.062,0.433-5.186-2.184-8.563c-1.116-1.44-2.82-2.16-5.209-2.199 c-4.867-0.081-8.552-0.923-11.804-1.667c-3.687-0.843-6.87-1.571-10.995-1.084c-2.521,0.298-4.376,1.335-5.674,3.17 C4.091,20.301,4.899,25.701,4.92,25.794L4.74,27.89z"/><linearGradient id="pP5BsoBikAnEW1oMucu_Cb" x1="2.66" x2="5.657" y1="27.587" y2="27.587" gradientUnits="userSpaceOnUse"><stop offset=".011" stop-color="#a6b3ba"/><stop offset=".059" stop-color="#b2bfc6"/><stop offset=".183" stop-color="#ccd9df"/><stop offset=".31" stop-color="#deebf1"/><stop offset=".443" stop-color="#e9f5fc"/><stop offset=".59" stop-color="#edf9ff"/></linearGradient><path fill="url(#pP5BsoBikAnEW1oMucu_Cb)" d="M4.159,31.739L4.159,31.739c-0.828,0-1.499-0.671-1.499-1.499v-5.306 c0-0.828,0.671-1.499,1.499-1.499h0c0.828,0,1.499,0.671,1.499,1.499v5.306C5.657,31.068,4.986,31.739,4.159,31.739z"/><path fill="#262c30" d="M45.323,29.479L45.323,29.479c0.38,0,0.688-0.308,0.688-0.688v-2.604 c0-0.38-0.308-0.688-0.688-0.688h0c-0.38,0-0.688,0.308-0.688,0.688v2.604C44.636,29.171,44.943,29.479,45.323,29.479z"/><linearGradient id="pP5BsoBikAnEW1oMucu_Cc" x1="42.965" x2="45.962" y1="27.587" y2="27.587" gradientTransform="matrix(-1 0 0 1 88.304 0)" gradientUnits="userSpaceOnUse"><stop offset=".011" stop-color="#a6b3ba"/><stop offset=".059" stop-color="#b2bfc6"/><stop offset=".183" stop-color="#ccd9df"/><stop offset=".31" stop-color="#deebf1"/><stop offset=".443" stop-color="#e9f5fc"/><stop offset=".59" stop-color="#edf9ff"/></linearGradient><path fill="url(#pP5BsoBikAnEW1oMucu_Cc)" d="M43.841,31.739L43.841,31.739c0.828,0,1.499-0.671,1.499-1.499v-5.306 c0-0.828-0.671-1.499-1.499-1.499h0c-0.828,0-1.499,0.671-1.499,1.499v5.306C42.343,31.068,43.014,31.739,43.841,31.739z"/><path fill="#a5bcc7" d="M34.332,20.735c4.866,0,7.876,4.471,6.798,9.521c-0.664,3.109-3.259,6.011-6.437,6.011 c-7.265,0-5.567-6.854-10.746-6.854c-5.221,0-3.396,6.854-10.727,6.854c-3.179,0-5.774-2.903-6.437-6.011 c-1.078-5.05,1.8-9.521,6.666-9.521c0.297,0,9.084,0,9.084,0h2.848C25.38,20.735,34.035,20.735,34.332,20.735 M34.332,18.159 H25.38h-2.848h-9.084c-2.903,0-5.471,1.199-7.232,3.376c-1.976,2.443-2.688,5.818-1.953,9.26c0.833,3.902,4.256,8.05,8.957,8.05 c5.39,0,7.326-3.042,8.607-5.054c1.017-1.598,1.255-1.8,2.12-1.8c0.861,0,1.101,0.204,2.145,1.817 c1.298,2.006,3.26,5.037,8.601,5.037c4.702,0,8.124-4.147,8.957-8.05c0.725-3.396,0.005-6.748-1.975-9.196 C39.879,19.38,37.272,18.159,34.332,18.159L34.332,18.159z"/><path fill="#a6bdc8" d="M34.332,20.723c2.274,0,4.144,0.975,5.383,2.532c1.414,1.777,2.001,4.309,1.426,7.004 c-0.664,3.11-3.262,6.02-6.449,6.02c-4.461,0-5.549-2.582-6.916-4.576c-0.862-1.257-1.833-2.278-3.83-2.278 c-2.005,0-2.967,1.013-3.814,2.263c-1.351,1.996-2.4,4.591-6.914,4.591c-3.187,0-5.785-2.91-6.449-6.02 c-1.072-5.021,1.775-9.47,6.596-9.498c0.175-0.024,2.73-0.038,5.093-0.038c2.05,0,4.02,0,4.02,0h2.861 C25.34,20.723,34.039,20.723,34.332,20.723 M6.224,21.542c1.665-2.058,4.052-3.24,6.761-3.361c0.153-0.007,0.313-0.01,0.468-0.01 h9.08h2.847h8.947l0,0c0.143,0,0.291,0.003,0.433,0.009c2.761,0.113,5.201,1.319,6.905,3.426 c1.978,2.445,2.697,5.794,1.973,9.186c-0.832,3.898-4.25,8.04-8.945,8.04c-4.441,0-6.541-2.098-7.869-3.956 c-0.272-0.381-0.512-0.751-0.732-1.091c-0.726-1.119-1.066-1.557-1.502-1.718c-0.187-0.07-0.391-0.088-0.651-0.087 c-0.866,0.003-1.107,0.211-2.121,1.804c-1.28,2.012-3.213,5.049-8.597,5.049c-4.695,0-8.113-4.143-8.945-8.04 C3.539,27.353,4.25,23.981,6.224,21.542z"/><path fill="#a7bec9" d="M34.332,20.712c2.276,0,4.15,0.975,5.392,2.535c1.417,1.781,2.005,4.317,1.429,7.014 c-0.664,3.112-3.265,6.03-6.46,6.03c-4.46,0-5.554-2.579-6.92-4.571c-0.864-1.26-1.831-2.283-3.826-2.283 c-2.004,0-2.962,1.014-3.81,2.268c-1.349,1.994-2.405,4.586-6.917,4.586c-3.196,0-5.796-2.917-6.46-6.03 c-1.066-4.992,1.75-9.419,6.527-9.475c0.193-0.048,2.741-0.075,5.104-0.075c2.021,0,4.038,0,4.038,0H25.3 C25.3,20.712,34.043,20.712,34.332,20.712 M6.233,21.549c1.664-2.057,4.05-3.238,6.758-3.357c0.151-0.007,0.314-0.01,0.467-0.01 h9.075h2.845h8.942l0,0c0.141,0,0.293,0.003,0.432,0.009c2.76,0.111,5.198,1.316,6.902,3.422 c1.976,2.442,2.694,5.787,1.971,9.176c-0.831,3.893-4.245,8.031-8.934,8.031c-4.447,0-6.542-2.106-7.87-3.966 c-0.273-0.382-0.513-0.753-0.734-1.092c-0.724-1.114-1.067-1.548-1.51-1.709c-0.189-0.068-0.393-0.087-0.652-0.085 c-0.867,0.005-1.11,0.22-2.122,1.809c-1.28,2.011-3.209,5.043-8.587,5.043c-4.689,0-8.103-4.138-8.934-8.031 C3.552,27.354,4.262,23.986,6.233,21.549z"/><path fill="#a8bfc9" d="M34.332,20.7c2.277,0,4.156,0.976,5.4,2.539c1.421,1.785,2.008,4.325,1.432,7.025 c-0.665,3.114-3.268,6.039-6.472,6.039c-4.46,0-5.559-2.576-6.923-4.567c-0.865-1.264-1.829-2.287-3.823-2.287 c-2.003,0-2.957,1.015-3.807,2.272c-1.347,1.993-2.409,4.581-6.92,4.581c-3.204,0-5.807-2.925-6.472-6.039 c-1.06-4.963,1.724-9.368,6.458-9.451c0.21-0.073,2.752-0.113,5.115-0.113c1.993,0,4.055,0,4.055,0h2.886 C25.261,20.7,34.047,20.7,34.332,20.7 M6.243,21.556c1.663-2.055,4.049-3.235,6.756-3.352c0.149-0.007,0.315-0.01,0.466-0.01 h9.07h2.843h8.938l0,0c0.139,0,0.294,0.003,0.432,0.009c2.759,0.11,5.196,1.313,6.899,3.418c1.974,2.44,2.691,5.781,1.968,9.167 c-0.83,3.889-4.24,8.022-8.922,8.022c-4.453,0-6.542-2.114-7.87-3.976c-0.273-0.383-0.513-0.754-0.735-1.093 c-0.722-1.108-1.067-1.54-1.518-1.699c-0.19-0.067-0.394-0.085-0.652-0.083c-0.867,0.008-1.114,0.229-2.122,1.813 c-1.28,2.011-3.206,5.038-8.577,5.038c-4.683,0-8.092-4.133-8.922-8.022C3.564,27.355,4.273,23.991,6.243,21.556z"/><path fill="#a9bfca" d="M34.332,20.688c2.279,0,4.161,0.976,5.409,2.543c1.424,1.788,2.012,4.332,1.434,7.035 c-0.665,3.116-3.271,6.048-6.483,6.048c-4.459,0-5.565-2.573-6.926-4.562c-0.867-1.267-1.827-2.292-3.82-2.292 c-2.002,0-2.952,1.016-3.803,2.277c-1.345,1.992-2.413,4.577-6.924,4.577c-3.213,0-5.818-2.932-6.483-6.048 c-1.053-4.934,1.699-9.316,6.388-9.428c0.228-0.097,2.763-0.15,5.126-0.15c1.964,0,4.072,0,4.072,0h2.898 C25.221,20.688,34.051,20.688,34.332,20.688 M6.252,21.564c1.662-2.054,4.047-3.233,6.753-3.348 c0.147-0.007,0.317-0.01,0.465-0.01h9.066h2.842h8.933l0,0c0.137,0,0.296,0.003,0.431,0.008c2.758,0.108,5.194,1.31,6.896,3.413 c1.972,2.437,2.688,5.774,1.966,9.157c-0.829,3.884-4.234,8.012-8.911,8.012c-4.459,0-6.543-2.122-7.87-3.985 c-0.274-0.385-0.514-0.756-0.736-1.094c-0.719-1.103-1.068-1.532-1.525-1.69c-0.191-0.066-0.395-0.084-0.652-0.081 c-0.868,0.011-1.117,0.238-2.123,1.818c-1.279,2.01-3.203,5.032-8.567,5.032c-4.677,0-8.082-4.128-8.911-8.012 C3.576,27.356,4.285,23.995,6.252,21.564z"/><path fill="#aac0cb" d="M34.332,20.676c2.281,0,4.167,0.976,5.418,2.547c1.427,1.792,2.015,4.34,1.437,7.046 c-0.666,3.118-3.274,6.058-6.495,6.058c-4.458,0-5.57-2.57-6.93-4.558c-0.869-1.271-1.825-2.296-3.816-2.296 c-2,0-2.948,1.017-3.8,2.282c-1.343,1.99-2.418,4.572-6.927,4.572c-3.221,0-5.829-2.94-6.495-6.058 c-1.047-4.905,1.674-9.265,6.319-9.405c0.245-0.121,2.774-0.188,5.137-0.188c1.936,0,4.09,0,4.09,0h2.911 C25.181,20.676,34.055,20.676,34.332,20.676 M6.261,21.571c1.661-2.053,4.045-3.23,6.75-3.344c0.144-0.007,0.318-0.01,0.465-0.01 h9.061h2.84h8.928l0,0c0.135,0,0.297,0.003,0.431,0.008c2.756,0.106,5.192,1.308,6.892,3.409 c1.969,2.434,2.685,5.768,1.964,9.147c-0.828,3.88-4.229,8.003-8.9,8.003c-4.465,0-6.544-2.13-7.87-3.995 c-0.274-0.386-0.515-0.757-0.737-1.096c-0.717-1.097-1.068-1.524-1.533-1.68c-0.192-0.064-0.396-0.082-0.653-0.079 c-0.868,0.014-1.121,0.247-2.124,1.822c-1.279,2.009-3.199,5.027-8.557,5.027c-4.671,0-8.071-4.123-8.899-8.003 C3.588,27.357,4.296,24,6.261,21.571z"/><path fill="#abc1cc" d="M34.332,20.665c2.283,0,4.172,0.976,5.426,2.55c1.431,1.796,2.018,4.348,1.44,7.056 c-0.666,3.12-3.277,6.067-6.506,6.067c-4.457,0-5.575-2.566-6.933-4.553c-0.87-1.275-1.822-2.301-3.813-2.301 c-1.999,0-2.943,1.018-3.797,2.286c-1.341,1.989-2.422,4.568-6.93,4.568c-3.23,0-5.84-2.947-6.506-6.067 c-1.041-4.876,1.649-9.214,6.25-9.381c0.262-0.145,2.785-0.225,5.148-0.225c1.907,0,4.107,0,4.107,0h2.923 C25.142,20.665,34.059,20.665,34.332,20.665 M6.27,21.579c1.66-2.052,4.043-3.228,6.748-3.34c0.142-0.006,0.32-0.01,0.464-0.01 h9.057h2.838h8.923l0,0c0.133,0,0.299,0.003,0.43,0.008c2.755,0.105,5.19,1.305,6.889,3.405c1.967,2.431,2.682,5.762,1.961,9.137 c-0.827,3.875-4.224,7.994-8.888,7.994c-4.471,0-6.545-2.139-7.87-4.004c-0.275-0.387-0.515-0.759-0.738-1.097 c-0.715-1.092-1.069-1.516-1.541-1.671c-0.193-0.063-0.397-0.08-0.653-0.077c-0.868,0.016-1.124,0.256-2.124,1.827 c-1.278,2.009-3.196,5.022-8.547,5.022c-4.664,0-8.061-4.119-8.888-7.994C3.601,27.358,4.307,24.005,6.27,21.579z"/><path fill="#acc2cc" d="M34.332,20.653c2.285,0,4.178,0.977,5.435,2.554c1.434,1.799,2.022,4.356,1.443,7.066 c-0.666,3.122-3.28,6.076-6.518,6.076c-4.457,0-5.581-2.563-6.936-4.549c-0.872-1.278-1.82-2.305-3.81-2.305 c-1.998,0-2.938,1.02-3.793,2.291c-1.339,1.987-2.426,4.563-6.934,4.563c-3.238,0-5.851-2.955-6.518-6.076 c-1.035-4.847,1.623-9.163,6.181-9.358c0.28-0.169,2.796-0.263,5.16-0.263c1.879,0,4.125,0,4.125,0h2.936 C25.102,20.653,34.063,20.653,34.332,20.653 M6.279,21.586c1.659-2.05,4.042-3.225,6.745-3.335 c0.14-0.006,0.321-0.009,0.463-0.009h9.052h2.836h8.918l0,0c0.131,0,0.3,0.003,0.43,0.008c2.754,0.103,5.188,1.302,6.886,3.401 c1.965,2.429,2.679,5.755,1.959,9.127c-0.827,3.871-4.218,7.984-8.877,7.984c-4.477,0-6.546-2.147-7.87-4.014 c-0.275-0.389-0.516-0.76-0.739-1.098c-0.713-1.086-1.07-1.508-1.548-1.661c-0.194-0.062-0.399-0.079-0.654-0.075 c-0.869,0.019-1.128,0.264-2.125,1.832c-1.278,2.008-3.192,5.016-8.537,5.016c-4.658,0-8.05-4.114-8.877-7.984 C3.613,27.359,4.319,24.009,6.279,21.586z"/><path fill="#adc3cd" d="M34.332,20.641c2.287,0,4.183,0.977,5.444,2.558c1.437,1.803,2.025,4.364,1.446,7.077 c-0.667,3.123-3.283,6.086-6.529,6.086c-4.456,0-5.586-2.56-6.94-4.544c-0.873-1.282-1.818-2.31-3.806-2.31 c-1.997,0-2.933,1.021-3.79,2.295c-1.337,1.986-2.431,4.558-6.937,4.558c-3.247,0-5.862-2.962-6.529-6.086 c-1.029-4.818,1.598-9.112,6.111-9.335c0.297-0.194,2.807-0.3,5.171-0.3c1.85,0,4.142,0,4.142,0h2.948 C25.062,20.641,34.067,20.641,34.332,20.641 M6.288,21.593c1.658-2.049,4.04-3.222,6.742-3.331 c0.138-0.006,0.322-0.009,0.462-0.009h9.047h2.835h8.914l0,0c0.129,0,0.302,0.003,0.429,0.008 c2.753,0.102,5.186,1.299,6.883,3.396c1.963,2.426,2.676,5.749,1.957,9.117c-0.826,3.866-4.213,7.975-8.865,7.975 c-4.483,0-6.547-2.155-7.87-4.023c-0.276-0.39-0.517-0.762-0.74-1.099c-0.711-1.081-1.07-1.5-1.556-1.652 c-0.195-0.061-0.4-0.077-0.654-0.073c-0.869,0.022-1.131,0.273-2.125,1.836c-1.278,2.007-3.189,5.011-8.527,5.011 c-4.652,0-8.04-4.109-8.865-7.975C3.625,27.36,4.33,24.014,6.288,21.593z"/><path fill="#aec4ce" d="M34.332,20.629c2.289,0,4.189,0.977,5.452,2.562c1.441,1.807,2.029,4.371,1.449,7.087 c-0.667,3.125-3.286,6.095-6.541,6.095c-4.455,0-5.591-2.557-6.943-4.54c-0.875-1.285-1.816-2.314-3.803-2.314 c-1.996,0-2.928,1.022-3.787,2.3c-1.336,1.985-2.435,4.554-6.941,4.554c-3.255,0-5.874-2.97-6.541-6.095 c-1.022-4.789,1.573-9.06,6.042-9.312c0.315-0.218,2.818-0.338,5.182-0.338c1.822,0,4.16,0,4.16,0h2.961 C25.023,20.629,34.071,20.629,34.332,20.629 M6.297,21.601c1.657-2.048,4.038-3.22,6.739-3.327 c0.136-0.006,0.324-0.009,0.462-0.009h9.043h2.833h8.909l0,0c0.127,0,0.303,0.003,0.429,0.008c2.752,0.1,5.183,1.296,6.879,3.392 c1.96,2.423,2.673,5.743,1.954,9.107c-0.825,3.862-4.208,7.966-8.854,7.966c-4.489,0-6.548-2.163-7.871-4.033 c-0.276-0.391-0.518-0.764-0.741-1.1c-0.709-1.075-1.071-1.492-1.564-1.642c-0.196-0.059-0.401-0.076-0.654-0.07 c-0.87,0.024-1.134,0.282-2.126,1.841c-1.277,2.007-3.185,5.005-8.517,5.005c-4.646,0-8.029-4.104-8.854-7.966 C3.637,27.361,4.342,24.018,6.297,21.601z"/><path fill="#afc4cf" d="M34.332,20.618c2.291,0,4.195,0.977,5.461,2.565c1.444,1.81,2.032,4.379,1.451,7.098 c-0.668,3.127-3.289,6.104-6.552,6.104c-4.454,0-5.597-2.554-6.947-4.535c-0.877-1.289-1.814-2.319-3.799-2.319 c-1.994,0-2.923,1.023-3.783,2.305c-1.334,1.983-2.439,4.549-6.944,4.549c-3.264,0-5.885-2.977-6.552-6.104 c-1.016-4.76,1.548-9.009,5.973-9.288c0.332-0.242,2.829-0.375,5.193-0.375c1.793,0,4.177,0,4.177,0h2.973 C24.983,20.618,34.075,20.618,34.332,20.618 M6.307,21.608c1.656-2.047,4.036-3.217,6.737-3.323 c0.134-0.006,0.325-0.009,0.461-0.009h9.038h2.831h8.904l0,0c0.125,0,0.304,0.003,0.428,0.008 c2.751,0.099,5.181,1.293,6.876,3.388c1.958,2.42,2.67,5.736,1.952,9.098c-0.824,3.857-4.202,7.957-8.842,7.957 c-4.495,0-6.549-2.171-7.871-4.042c-0.277-0.393-0.518-0.765-0.742-1.102c-0.707-1.07-1.071-1.484-1.571-1.633 c-0.197-0.058-0.402-0.074-0.655-0.068c-0.87,0.027-1.138,0.291-2.127,1.845c-1.277,2.006-3.182,5-8.507,5 c-4.64,0-8.018-4.099-8.842-7.957C3.65,27.362,4.353,24.023,6.307,21.608z"/><path fill="#b0c5cf" d="M34.332,20.606c2.293,0,4.2,0.978,5.47,2.569c1.447,1.814,2.035,4.387,1.454,7.108 c-0.668,3.129-3.292,6.114-6.564,6.114c-4.454,0-5.602-2.551-6.95-4.531c-0.878-1.292-1.812-2.323-3.796-2.323 c-1.993,0-2.918,1.024-3.78,2.309c-1.332,1.982-2.443,4.545-6.947,4.545c-3.272,0-5.896-2.985-6.564-6.113 c-1.01-4.731,1.523-8.958,5.903-9.265c0.349-0.266,2.84-0.413,5.204-0.413c1.765,0,4.194,0,4.194,0h2.986 C24.943,20.606,34.08,20.606,34.332,20.606 M6.316,21.616c1.655-2.046,4.035-3.215,6.734-3.319 c0.132-0.006,0.327-0.009,0.46-0.009h9.034h2.83h8.899l0,0c0.123,0,0.306,0.003,0.428,0.008c2.749,0.097,5.179,1.29,6.873,3.384 c1.956,2.417,2.666,5.73,1.95,9.088c-0.823,3.853-4.197,7.947-8.831,7.947c-4.501,0-6.55-2.179-7.871-4.052 c-0.277-0.394-0.519-0.767-0.743-1.103c-0.704-1.064-1.071-1.476-1.579-1.623c-0.198-0.057-0.403-0.073-0.655-0.066 c-0.871,0.03-1.141,0.3-2.127,1.85c-1.276,2.005-3.178,4.994-8.498,4.994c-4.633,0-8.008-4.095-8.831-7.947 C3.662,27.363,4.364,24.028,6.316,21.616z"/><path fill="#b1c6d0" d="M34.332,20.594c2.295,0,4.206,0.978,5.478,2.573c1.45,1.818,2.039,4.395,1.457,7.119 c-0.668,3.131-3.295,6.123-6.575,6.123c-4.453,0-5.607-2.548-6.953-4.526c-0.88-1.296-1.81-2.328-3.793-2.328 c-1.992,0-2.913,1.025-3.776,2.314c-1.33,1.981-2.448,4.54-6.951,4.54c-3.281,0-5.907-2.992-6.575-6.123 c-1.004-4.702,1.497-8.907,5.834-9.242c0.367-0.29,2.851-0.45,5.215-0.45c1.737,0,4.212,0,4.212,0h2.998 C24.903,20.594,34.084,20.594,34.332,20.594 M6.325,21.623c1.654-2.044,4.033-3.212,6.731-3.314 c0.13-0.006,0.328-0.009,0.459-0.009h9.029h2.828h8.894l0,0c0.121,0,0.307,0.002,0.427,0.007c2.748,0.095,5.177,1.287,6.87,3.38 c1.954,2.415,2.663,5.723,1.947,9.078c-0.822,3.848-4.192,7.938-8.819,7.938c-4.507,0-6.551-2.187-7.871-4.062 c-0.278-0.395-0.52-0.768-0.745-1.104c-0.702-1.059-1.072-1.468-1.587-1.613c-0.199-0.056-0.405-0.071-0.656-0.064 c-0.871,0.033-1.145,0.309-2.128,1.854c-1.276,2.005-3.175,4.989-8.488,4.989c-4.627,0-7.997-4.09-8.819-7.938 C3.674,27.364,4.376,24.032,6.325,21.623z"/><path fill="#b2c7d1" d="M34.332,20.582c2.297,0,4.211,0.978,5.487,2.577c1.454,1.821,2.042,4.402,1.46,7.129 c-0.669,3.133-3.298,6.132-6.587,6.132c-4.452,0-5.613-2.545-6.957-4.522c-0.881-1.299-1.808-2.332-3.789-2.332 c-1.991,0-2.908,1.026-3.773,2.319c-1.328,1.979-2.452,4.535-6.954,4.535c-3.289,0-5.918-2.999-6.587-6.132 c-0.998-4.673,1.472-8.855,5.765-9.218c0.384-0.314,2.862-0.488,5.227-0.488c1.708,0,4.229,0,4.229,0h3.01 C24.864,20.582,34.088,20.582,34.332,20.582 M6.334,21.63c1.653-2.043,4.031-3.21,6.728-3.31 c0.127-0.006,0.329-0.009,0.459-0.009h9.024h2.826h8.89l0,0c0.119,0,0.309,0.002,0.427,0.007 c2.747,0.094,5.175,1.284,6.867,3.375c1.951,2.412,2.66,5.717,1.945,9.068c-0.821,3.844-4.186,7.929-8.808,7.929 c-4.513,0-6.552-2.196-7.871-4.071c-0.278-0.397-0.521-0.77-0.746-1.105c-0.7-1.053-1.072-1.461-1.594-1.604 c-0.2-0.055-0.406-0.07-0.656-0.062c-0.872,0.035-1.148,0.318-2.128,1.859c-1.275,2.004-3.171,4.983-8.478,4.983 c-4.621,0-7.987-4.085-8.808-7.929C3.686,27.365,4.387,24.037,6.334,21.63z"/><path fill="#b3c8d2" d="M34.332,20.57c2.299,0,4.217,0.979,5.496,2.58c1.457,1.825,2.046,4.41,1.463,7.14 c-0.669,3.134-3.301,6.141-6.598,6.141c-4.451,0-5.618-2.541-6.96-4.517c-0.883-1.303-1.806-2.337-3.786-2.337 c-1.99,0-2.903,1.027-3.77,2.323c-1.326,1.978-2.456,4.531-6.958,4.531c-3.298,0-5.929-3.007-6.598-6.141 c-0.992-4.644,1.447-8.804,5.696-9.195c0.402-0.339,2.873-0.525,5.238-0.525c1.68,0,4.247,0,4.247,0h3.023 C24.824,20.57,34.092,20.57,34.332,20.57 M6.343,21.638c1.652-2.042,4.029-3.207,6.726-3.306 c0.125-0.006,0.331-0.008,0.458-0.008h9.02h2.824h8.885l0,0c0.117,0,0.31,0.002,0.426,0.007c2.746,0.092,5.173,1.281,6.863,3.371 c1.949,2.409,2.657,5.711,1.943,9.058c-0.82,3.839-4.181,7.919-8.796,7.919c-4.519,0-6.553-2.204-7.871-4.081 c-0.279-0.398-0.521-0.771-0.747-1.106c-0.698-1.048-1.073-1.453-1.602-1.594c-0.201-0.054-0.407-0.068-0.656-0.06 c-0.872,0.038-1.151,0.327-2.129,1.863c-1.275,2.003-3.168,4.978-8.468,4.978c-4.615,0-7.976-4.08-8.796-7.919 C3.699,27.366,4.398,24.042,6.343,21.638z"/><path fill="#b4c9d3" d="M34.332,20.559c2.301,0,4.222,0.979,5.505,2.584c1.46,1.829,2.049,4.418,1.466,7.15 c-0.669,3.136-3.304,6.151-6.61,6.151c-4.451,0-5.623-2.538-6.963-4.513c-0.884-1.306-1.804-2.341-3.783-2.341 c-1.988,0-2.898,1.028-3.766,2.328c-1.324,1.977-2.461,4.526-6.961,4.526c-3.306,0-5.94-3.014-6.61-6.151 c-0.985-4.615,1.422-8.753,5.626-9.172c0.419-0.363,2.884-0.563,5.249-0.563c1.651,0,4.264,0,4.264,0h3.035 C24.784,20.559,34.096,20.559,34.332,20.559 M6.352,21.645c1.651-2.041,4.028-3.205,6.723-3.302 c0.123-0.006,0.332-0.008,0.457-0.008h9.015h2.823h8.88l0,0c0.115,0,0.312,0.002,0.426,0.007c2.745,0.091,5.171,1.278,6.86,3.367 c1.947,2.406,2.654,5.704,1.94,9.048c-0.819,3.835-4.176,7.91-8.785,7.91c-4.525,0-6.554-2.212-7.871-4.09 c-0.279-0.399-0.522-0.773-0.748-1.108c-0.696-1.042-1.073-1.445-1.61-1.585c-0.202-0.053-0.408-0.067-0.657-0.058 c-0.872,0.041-1.155,0.336-2.13,1.868c-1.275,2.003-3.164,4.972-8.458,4.972c-4.609,0-7.966-4.075-8.785-7.91 C3.711,27.368,4.41,24.046,6.352,21.645z"/><path fill="#b5c9d3" d="M34.332,20.547c2.302,0,4.228,0.979,5.513,2.588c1.464,1.832,2.053,4.426,1.468,7.161 c-0.67,3.138-3.307,6.16-6.621,6.16c-4.45,0-5.629-2.535-6.967-4.508c-0.886-1.31-1.802-2.346-3.779-2.346 c-1.987,0-2.893,1.029-3.763,2.332c-1.322,1.975-2.465,4.522-6.964,4.522c-3.315,0-5.951-3.022-6.621-6.16 c-0.979-4.586,1.397-8.702,5.557-9.148c0.436-0.387,2.895-0.6,5.26-0.6c1.623,0,4.282,0,4.282,0h3.048 C24.745,20.547,34.1,20.547,34.332,20.547 M6.362,21.653c1.65-2.04,4.026-3.202,6.72-3.297c0.121-0.005,0.334-0.008,0.456-0.008 h9.011h2.821h8.875l0,0c0.113,0,0.313,0.002,0.425,0.007c2.743,0.089,5.168,1.275,6.857,3.363 c1.945,2.404,2.651,5.698,1.938,9.039c-0.818,3.83-4.171,7.901-8.773,7.901c-4.531,0-6.555-2.22-7.872-4.1 c-0.28-0.4-0.523-0.775-0.749-1.109c-0.694-1.036-1.074-1.437-1.617-1.575c-0.202-0.051-0.409-0.065-0.657-0.056 c-0.873,0.043-1.158,0.345-2.13,1.873c-1.274,2.002-3.161,4.967-8.448,4.967c-4.602,0-7.955-4.071-8.773-7.901 C3.723,27.369,4.421,24.051,6.362,21.653z"/><path fill="#b6cad4" d="M34.332,20.535c2.304,0,4.233,0.979,5.522,2.592c1.467,1.836,2.056,4.434,1.471,7.171 c-0.67,3.14-3.31,6.169-6.633,6.169c-4.449,0-5.634-2.532-6.97-4.504c-0.888-1.313-1.8-2.35-3.776-2.35 c-1.986,0-2.888,1.03-3.759,2.337c-1.32,1.974-2.469,4.517-6.968,4.517c-3.323,0-5.962-3.029-6.633-6.169 c-0.973-4.557,1.371-8.651,5.488-9.125c0.454-0.411,2.906-0.638,5.271-0.638c1.594,0,4.299,0,4.299,0h3.06 C24.705,20.535,34.104,20.535,34.332,20.535 M6.371,21.66c1.649-2.038,4.024-3.2,6.717-3.293 c0.119-0.005,0.335-0.008,0.456-0.008h9.006h2.819h8.87l0,0c0.111,0,0.315,0.002,0.425,0.007 c2.742,0.088,5.166,1.272,6.854,3.358c1.942,2.401,2.648,5.692,1.936,9.029c-0.817,3.825-4.165,7.891-8.762,7.891 c-4.537,0-6.556-2.228-7.872-4.109c-0.28-0.402-0.524-0.776-0.75-1.11c-0.692-1.031-1.074-1.43-1.625-1.566 c-0.203-0.05-0.411-0.064-0.658-0.053c-0.873,0.046-1.162,0.354-2.131,1.877c-1.274,2.002-3.157,4.962-8.438,4.962 c-4.596,0-7.945-4.066-8.762-7.891C3.735,27.37,4.433,24.055,6.371,21.66z"/><path fill="#b7cbd5" d="M34.332,20.523c2.306,0,4.239,0.98,5.531,2.596c1.47,1.84,2.059,4.441,1.474,7.181 c-0.671,3.142-3.313,6.179-6.644,6.179c-4.448,0-5.639-2.529-6.974-4.499c-0.889-1.317-1.798-2.355-3.772-2.355 c-1.985,0-2.883,1.031-3.756,2.342c-1.318,1.972-2.474,4.512-6.971,4.512c-3.332,0-5.974-3.037-6.644-6.179 c-0.967-4.528,1.346-8.599,5.418-9.102c0.471-0.435,2.917-0.675,5.282-0.675c1.566,0,4.316,0,4.316,0h3.073 C24.665,20.523,34.108,20.523,34.332,20.523 M6.38,21.667c1.648-2.037,4.022-3.197,6.715-3.289 c0.117-0.005,0.336-0.008,0.455-0.008h9.002h2.818h8.866l0,0c0.109,0,0.316,0.002,0.424,0.007 c2.741,0.086,5.164,1.269,6.851,3.354c1.94,2.398,2.645,5.685,1.933,9.019c-0.816,3.821-4.16,7.882-8.75,7.882 c-4.543,0-6.557-2.236-7.872-4.119c-0.281-0.403-0.524-0.778-0.751-1.111c-0.689-1.025-1.074-1.422-1.633-1.556 c-0.204-0.049-0.412-0.062-0.658-0.051c-0.874,0.049-1.165,0.363-2.132,1.882c-1.273,2.001-3.154,4.956-8.428,4.956 c-4.59,0-7.934-4.061-8.75-7.882C3.748,27.371,4.444,24.06,6.38,21.667z"/><path fill="#b8ccd6" d="M34.332,20.512c2.308,0,4.245,0.98,5.539,2.599c1.474,1.844,2.063,4.449,1.477,7.192 c-0.671,3.144-3.316,6.188-6.656,6.188c-4.448,0-5.645-2.526-6.977-4.495c-0.891-1.32-1.795-2.359-3.769-2.359 c-1.983,0-2.878,1.032-3.753,2.346c-1.316,1.971-2.478,4.508-6.974,4.508c-3.34,0-5.985-3.044-6.656-6.188 c-0.961-4.499,1.321-8.548,5.349-9.079c0.489-0.46,2.928-0.713,5.294-0.713c1.537,0,4.334,0,4.334,0h3.085 C24.625,20.512,34.112,20.512,34.332,20.512 M6.389,21.675c1.647-2.036,4.021-3.194,6.712-3.285 c0.115-0.005,0.338-0.008,0.454-0.008h8.997h2.816h8.861l0,0c0.108,0,0.318,0.002,0.424,0.007c2.74,0.085,5.162,1.267,6.847,3.35 c1.938,2.395,2.642,5.679,1.931,9.009c-0.815,3.816-4.155,7.873-8.739,7.873c-4.549,0-6.558-2.244-7.872-4.128 c-0.281-0.404-0.525-0.779-0.752-1.112c-0.687-1.02-1.075-1.414-1.64-1.547c-0.205-0.048-0.413-0.061-0.658-0.049 c-0.874,0.051-1.169,0.372-2.132,1.886c-1.273,2-3.15,4.951-8.418,4.951c-4.584,0-7.924-4.056-8.739-7.873 C3.76,27.372,4.455,24.065,6.389,21.675z"/><path fill="#b9cdd6" d="M34.332,20.5c2.31,0,4.25,0.98,5.548,2.603c1.477,1.847,2.066,4.457,1.48,7.202 c-0.671,3.146-3.319,6.197-6.667,6.197c-4.447,0-5.65-2.523-6.98-4.49c-0.892-1.324-1.793-2.364-3.766-2.364 c-1.982,0-2.873,1.033-3.749,2.351c-1.314,1.97-2.482,4.503-6.978,4.503c-3.349,0-5.996-3.052-6.667-6.197 c-0.954-4.47,1.296-8.497,5.28-9.055c0.506-0.484,2.939-0.75,5.305-0.75c1.509,0,4.351,0,4.351,0h3.098 C24.586,20.5,34.116,20.5,34.332,20.5 M6.398,21.682c1.646-2.035,4.019-3.192,6.709-3.281c0.113-0.005,0.339-0.008,0.453-0.008 h8.992h2.814h8.856l0,0c0.106,0,0.319,0.002,0.423,0.006c2.739,0.083,5.16,1.264,6.844,3.346 c1.936,2.392,2.639,5.673,1.928,8.999c-0.814,3.812-4.149,7.863-8.727,7.863c-4.555,0-6.559-2.253-7.872-4.138 c-0.281-0.406-0.526-0.781-0.753-1.114c-0.685-1.014-1.075-1.406-1.648-1.537c-0.206-0.047-0.414-0.059-0.659-0.047 c-0.875,0.054-1.172,0.381-2.133,1.891c-1.273,2-3.147,4.945-8.408,4.945c-4.578,0-7.913-4.051-8.727-7.863 C3.772,27.373,4.467,24.069,6.398,21.682z"/><path fill="#baced7" d="M34.332,20.488c2.312,0,4.256,0.981,5.557,2.607c1.48,1.851,2.07,4.465,1.483,7.213 c-0.672,3.147-3.321,6.207-6.679,6.207c-4.446,0-5.655-2.52-6.984-4.486c-0.894-1.327-1.791-2.368-3.762-2.368 c-1.981,0-2.868,1.034-3.746,2.355c-1.312,1.968-2.486,4.499-6.981,4.499c-3.357,0-6.007-3.059-6.679-6.206 c-0.948-4.441,1.271-8.446,5.211-9.032c0.523-0.508,2.95-0.788,5.316-0.788c1.48,0,4.369,0,4.369,0h3.11 C24.546,20.488,34.12,20.488,34.332,20.488 M6.407,21.69c1.645-2.034,4.017-3.189,6.707-3.276 c0.11-0.005,0.341-0.007,0.453-0.007h8.988h2.812h8.851l0,0c0.104,0,0.321,0.002,0.423,0.006 c2.738,0.081,5.158,1.261,6.841,3.341c1.933,2.39,2.635,5.666,1.926,8.989c-0.813,3.807-4.144,7.854-8.716,7.854 c-4.561,0-6.56-2.261-7.872-4.148c-0.282-0.407-0.526-0.782-0.755-1.115c-0.683-1.009-1.075-1.399-1.656-1.528 c-0.207-0.046-0.416-0.058-0.659-0.045c-0.875,0.057-1.175,0.39-2.133,1.895c-1.272,1.999-3.144,4.94-8.398,4.94 c-4.571,0-7.903-4.047-8.716-7.854C3.784,27.374,4.478,24.074,6.407,21.69z"/><path fill="#bbced8" d="M34.332,20.476c2.314,0,4.261,0.981,5.565,2.611c1.484,1.855,2.073,4.473,1.485,7.223 c-0.672,3.149-3.324,6.216-6.69,6.216c-4.445,0-5.661-2.517-6.987-4.481c-0.896-1.331-1.789-2.373-3.759-2.373 c-1.98,0-2.863,1.035-3.742,2.36c-1.31,1.967-2.491,4.494-6.985,4.494c-3.366,0-6.018-3.067-6.69-6.216 c-0.942-4.412,1.245-8.395,5.141-9.009c0.541-0.532,2.961-0.825,5.327-0.825c1.452,0,4.386,0,4.386,0h3.123 C24.506,20.476,34.124,20.476,34.332,20.476 M6.416,21.697c1.644-2.032,4.015-3.187,6.704-3.272 c0.108-0.005,0.342-0.007,0.452-0.007h8.983h2.811h8.846l0,0c0.102,0,0.322,0.002,0.422,0.006 c2.736,0.08,5.156,1.258,6.838,3.337c1.931,2.387,2.632,5.66,1.924,8.979c-0.812,3.803-4.139,7.845-8.704,7.845 c-4.567,0-6.561-2.269-7.872-4.157c-0.282-0.408-0.527-0.784-0.756-1.116c-0.681-1.003-1.076-1.391-1.663-1.518 c-0.208-0.045-0.417-0.056-0.659-0.043c-0.876,0.06-1.179,0.399-2.134,1.9c-1.272,1.998-3.14,4.934-8.388,4.934 c-4.565,0-7.892-4.042-8.704-7.845C3.797,27.375,4.49,24.079,6.416,21.697z"/><path fill="#bccfd9" d="M34.332,20.465c2.316,0,4.267,0.981,5.574,2.614c1.487,1.858,2.076,4.48,1.488,7.234 c-0.673,3.151-3.327,6.225-6.702,6.225c-4.444,0-5.666-2.513-6.99-4.477c-0.897-1.334-1.787-2.377-3.756-2.377 c-1.979,0-2.858,1.036-3.739,2.365c-1.308,1.966-2.495,4.489-6.988,4.489c-3.374,0-6.029-3.074-6.702-6.225 c-0.936-4.383,1.22-8.343,5.072-8.985c0.558-0.556,2.972-0.863,5.338-0.863c1.423,0,4.404,0,4.404,0h3.135 C24.467,20.465,34.128,20.465,34.332,20.465 M6.426,21.704c1.644-2.031,4.014-3.184,6.701-3.268 c0.106-0.005,0.344-0.007,0.451-0.007h8.979h2.809h8.842l0,0c0.1,0,0.323,0.002,0.422,0.006c2.735,0.078,5.153,1.255,6.835,3.333 c1.929,2.384,2.629,5.653,1.921,8.97c-0.811,3.798-4.133,7.835-8.693,7.835c-4.573,0-6.562-2.277-7.872-4.167 c-0.283-0.41-0.528-0.786-0.757-1.117c-0.679-0.998-1.076-1.384-1.671-1.509c-0.209-0.044-0.418-0.055-0.66-0.041 c-0.876,0.062-1.182,0.408-2.135,1.904c-1.271,1.998-3.137,4.929-8.378,4.929c-4.559,0-7.881-4.037-8.693-7.836 C3.809,27.376,4.501,24.083,6.426,21.704z"/><path fill="#bdd0d9" d="M34.332,20.453c2.318,0,4.272,0.981,5.583,2.618c1.49,1.862,2.08,4.488,1.491,7.244 c-0.673,3.153-3.33,6.235-6.713,6.235c-4.444,0-5.671-2.51-6.994-4.472c-0.899-1.338-1.785-2.382-3.752-2.382 c-1.977,0-2.853,1.037-3.736,2.369c-1.306,1.964-2.499,4.485-6.991,4.485c-3.383,0-6.04-3.082-6.713-6.234 c-0.93-4.354,1.195-8.292,5.003-8.962c0.576-0.581,2.983-0.9,5.35-0.9c1.395,0,4.421,0,4.421,0h3.148 C24.427,20.453,34.132,20.453,34.332,20.453 M6.435,21.712c1.643-2.03,4.012-3.182,6.698-3.264 c0.104-0.005,0.345-0.007,0.45-0.007h8.974h2.807h8.837l0,0c0.098,0,0.325,0.002,0.421,0.006 c2.734,0.077,5.151,1.252,6.831,3.329c1.927,2.381,2.626,5.647,1.919,8.96c-0.81,3.794-4.128,7.826-8.681,7.826 c-4.579,0-6.563-2.285-7.873-4.176c-0.283-0.411-0.529-0.787-0.758-1.118c-0.677-0.992-1.076-1.376-1.679-1.499 c-0.21-0.043-0.419-0.053-0.66-0.039c-0.876,0.065-1.186,0.417-2.135,1.909c-1.271,1.997-3.133,4.923-8.368,4.923 c-4.553,0-7.871-4.032-8.681-7.826C3.821,27.377,4.512,24.088,6.435,21.712z"/><path fill="#bed1da" d="M34.332,20.441c2.32,0,4.278,0.982,5.591,2.622c1.493,1.866,2.083,4.496,1.494,7.255 c-0.673,3.155-3.333,6.244-6.725,6.244c-4.443,0-5.677-2.507-6.997-4.468c-0.9-1.341-1.783-2.386-3.749-2.386 c-1.976,0-2.849,1.038-3.732,2.374c-1.304,1.963-2.504,4.48-6.995,4.48c-3.391,0-6.051-3.089-6.725-6.244 c-0.923-4.325,1.17-8.241,4.933-8.939c0.593-0.605,2.994-0.938,5.361-0.938c1.366,0,4.438,0,4.438,0h3.16 C24.387,20.441,34.137,20.441,34.332,20.441 M6.444,21.719c1.642-2.029,4.01-3.179,6.696-3.259 c0.102-0.005,0.346-0.007,0.45-0.007h8.969h2.806h8.832l0,0c0.096,0,0.326,0.002,0.421,0.006 c2.733,0.075,5.149,1.249,6.828,3.324c1.924,2.379,2.623,5.641,1.917,8.95c-0.809,3.789-4.123,7.817-8.67,7.817 c-4.585,0-6.564-2.293-7.873-4.186c-0.284-0.412-0.529-0.789-0.759-1.12c-0.674-0.987-1.077-1.369-1.686-1.49 c-0.211-0.042-0.42-0.052-0.661-0.036c-0.877,0.068-1.189,0.426-2.136,1.914c-1.27,1.996-3.13,4.918-8.359,4.918 c-4.547,0-7.86-4.027-8.67-7.817C3.833,27.378,4.524,24.092,6.444,21.719z"/><path fill="#bfd2db" d="M34.332,20.429c2.322,0,4.283,0.982,5.6,2.626c1.497,1.869,2.087,4.504,1.497,7.265 c-0.674,3.157-3.336,6.253-6.736,6.253c-4.442,0-5.682-2.504-7.001-4.463c-0.902-1.345-1.781-2.391-3.746-2.391 c-1.975,0-2.844,1.039-3.729,2.378c-1.302,1.962-2.508,4.475-6.998,4.475c-3.4,0-6.062-3.096-6.736-6.253 c-0.917-4.296,1.145-8.19,4.864-8.916c0.61-0.629,3.005-0.975,5.372-0.975c1.338,0,4.456,0,4.456,0h3.173 C24.347,20.429,34.141,20.429,34.332,20.429 M6.453,21.727c1.641-2.028,4.008-3.177,6.693-3.255 c0.1-0.004,0.348-0.007,0.449-0.007h8.965h2.804h8.827l0,0c0.094,0,0.328,0.002,0.42,0.006c2.732,0.074,5.147,1.246,6.825,3.32 c1.922,2.376,2.62,5.634,1.914,8.94c-0.809,3.785-4.117,7.807-8.658,7.807c-4.591,0-6.565-2.301-7.873-4.195 c-0.284-0.414-0.53-0.79-0.76-1.121c-0.672-0.981-1.077-1.361-1.694-1.48c-0.212-0.041-0.422-0.05-0.661-0.034 c-0.877,0.07-1.192,0.434-2.137,1.918c-1.27,1.996-3.126,4.912-8.349,4.912c-4.541,0-7.85-4.023-8.658-7.808 C3.846,27.379,4.535,24.097,6.453,21.727z"/><path fill="#c0d3dc" d="M34.332,20.418c2.324,0,4.289,0.982,5.609,2.629c1.5,1.873,2.09,4.512,1.5,7.276 c-0.674,3.159-3.339,6.262-6.748,6.262c-4.441,0-5.687-2.501-7.004-4.459c-0.904-1.348-1.779-2.395-3.742-2.395 c-1.974,0-2.839,1.04-3.725,2.383c-1.3,1.96-2.512,4.471-7.002,4.471c-3.408,0-6.074-3.104-6.748-6.262 c-0.911-4.267,1.119-8.139,4.795-8.892c0.628-0.653,3.016-1.013,5.383-1.013c1.31,0,4.473,0,4.473,0h3.185 C24.308,20.418,34.145,20.418,34.332,20.418 M6.462,21.734c1.64-2.026,4.007-3.174,6.69-3.251 c0.098-0.004,0.349-0.007,0.448-0.007h8.96h2.802h8.822l0,0c0.092,0,0.329,0.002,0.42,0.006c2.731,0.072,5.145,1.243,6.822,3.316 c1.92,2.373,2.617,5.628,1.912,8.93c-0.808,3.78-4.112,7.798-8.647,7.798c-4.597,0-6.566-2.31-7.873-4.205 c-0.285-0.415-0.531-0.792-0.761-1.122c-0.67-0.976-1.077-1.354-1.702-1.471c-0.213-0.04-0.423-0.049-0.661-0.032 c-0.878,0.073-1.196,0.443-2.137,1.923c-1.27,1.995-3.123,4.907-8.339,4.907c-4.534,0-7.839-4.018-8.647-7.798 C3.858,27.38,4.547,24.102,6.462,21.734z"/><path fill="#c1d3dc" d="M34.332,20.406c2.326,0,4.295,0.983,5.617,2.633c1.503,1.877,2.093,4.519,1.502,7.286 c-0.675,3.16-3.342,6.272-6.759,6.272c-4.441,0-5.693-2.498-7.007-4.454c-0.905-1.352-1.777-2.4-3.739-2.4 c-1.973,0-2.834,1.042-3.722,2.388c-1.298,1.959-2.516,4.466-7.005,4.466c-3.417,0-6.085-3.111-6.759-6.272 c-0.905-4.238,1.094-8.087,4.726-8.869c0.645-0.677,3.027-1.05,5.394-1.05c1.281,0,4.491,0,4.491,0h3.197 C24.268,20.406,34.149,20.406,34.332,20.406 M6.471,21.741c1.639-2.025,4.005-3.171,6.687-3.247 c0.096-0.004,0.351-0.006,0.447-0.006h8.956h2.8h8.818l0,0c0.09,0,0.331,0.002,0.419,0.006c2.729,0.07,5.143,1.24,6.819,3.312 c1.918,2.37,2.614,5.622,1.91,8.92c-0.807,3.776-4.107,7.789-8.635,7.789c-4.603,0-6.567-2.318-7.873-4.214 c-0.285-0.416-0.532-0.794-0.762-1.123c-0.668-0.97-1.078-1.346-1.709-1.461c-0.214-0.039-0.424-0.047-0.662-0.03 c-0.878,0.076-1.199,0.452-2.138,1.927c-1.269,1.994-3.119,4.902-8.329,4.902c-4.528,0-7.829-4.013-8.635-7.789 C3.87,27.381,4.558,24.106,6.471,21.741z"/><path fill="#c2d4dd" d="M34.332,20.394c2.327,0,4.3,0.983,5.626,2.637c1.507,1.88,2.097,4.527,1.505,7.296 c-0.675,3.162-3.345,6.281-6.771,6.281c-4.44,0-5.698-2.495-7.011-4.45c-0.907-1.356-1.775-2.404-3.735-2.404 c-1.971,0-2.829,1.043-3.719,2.392c-1.296,1.957-2.521,4.462-7.008,4.462c-3.425,0-6.096-3.119-6.771-6.281 c-0.899-4.209,1.069-8.036,4.656-8.846c0.663-0.702,3.038-1.088,5.405-1.088c1.253,0,4.508,0,4.508,0h3.21 C24.228,20.394,34.153,20.394,34.332,20.394 M6.48,21.749c1.638-2.024,4.003-3.169,6.685-3.243 c0.093-0.004,0.352-0.006,0.447-0.006h8.951h2.799h8.813l0,0c0.088,0,0.332,0.002,0.419,0.005 c2.728,0.069,5.141,1.237,6.815,3.307c1.915,2.367,2.611,5.615,1.907,8.911c-0.806,3.771-4.102,7.78-8.624,7.78 c-4.609,0-6.568-2.326-7.873-4.224c-0.286-0.417-0.532-0.795-0.763-1.124c-0.666-0.965-1.078-1.339-1.717-1.452 c-0.214-0.038-0.425-0.046-0.662-0.028c-0.879,0.079-1.203,0.461-2.138,1.932c-1.269,1.994-3.116,4.896-8.319,4.896 c-4.522,0-7.818-4.008-8.624-7.78C3.882,27.382,4.569,24.111,6.48,21.749z"/><path fill="#c3d5de" d="M34.332,20.382c2.329,0,4.306,0.983,5.635,2.641c1.51,1.884,2.1,4.535,1.508,7.307 c-0.675,3.164-3.348,6.29-6.782,6.29c-4.439,0-5.703-2.492-7.014-4.445c-0.908-1.359-1.773-2.409-3.732-2.409 c-1.97,0-2.824,1.044-3.715,2.397c-1.294,1.956-2.525,4.457-7.012,4.457c-3.434,0-6.107-3.126-6.782-6.29 c-0.893-4.18,1.044-7.985,4.587-8.822c0.68-0.726,3.049-1.125,5.417-1.125c1.224,0,4.526,0,4.526,0h3.222 C24.189,20.382,34.157,20.382,34.332,20.382 M6.49,21.756c1.637-2.023,4.001-3.166,6.682-3.238 c0.091-0.004,0.353-0.006,0.446-0.006h8.947h2.797h8.808l0,0c0.086,0,0.334,0.002,0.418,0.005 c2.727,0.067,5.138,1.234,6.812,3.303c1.913,2.365,2.608,5.609,1.905,8.901c-0.805,3.767-4.096,7.77-8.612,7.77 c-4.615,0-6.569-2.334-7.873-4.233c-0.286-0.419-0.533-0.797-0.765-1.126c-0.664-0.959-1.078-1.331-1.725-1.442 c-0.215-0.037-0.426-0.044-0.663-0.026c-0.879,0.081-1.206,0.47-2.139,1.936c-1.268,1.993-3.112,4.891-8.309,4.891 c-4.516,0-7.808-4.003-8.612-7.77C3.895,27.383,4.581,24.116,6.49,21.756z"/><path fill="#c4d6df" d="M34.332,20.371c2.331,0,4.311,0.983,5.643,2.644c1.513,1.888,2.104,4.543,1.511,7.317 c-0.676,3.166-3.351,6.3-6.794,6.3c-4.438,0-5.709-2.488-7.017-4.441c-0.91-1.363-1.771-2.413-3.729-2.413 c-1.969,0-2.819,1.045-3.712,2.401c-1.292,1.955-2.529,4.452-7.015,4.452c-3.442,0-6.118-3.134-6.794-6.3 c-0.886-4.151,1.018-7.934,4.518-8.799c0.697-0.75,3.06-1.163,5.428-1.163c1.196,0,4.543,0,4.543,0h3.235 C24.149,20.371,34.161,20.371,34.332,20.371 M6.499,21.764c1.636-2.022,4-3.164,6.679-3.234c0.089-0.004,0.355-0.006,0.445-0.006 h8.942h2.795h8.803l0,0c0.084,0,0.335,0.002,0.418,0.005c2.726,0.066,5.136,1.231,6.809,3.299 c1.911,2.362,2.604,5.602,1.903,8.891c-0.804,3.762-4.091,7.761-8.601,7.761c-4.621,0-6.57-2.342-7.874-4.243 c-0.287-0.42-0.534-0.798-0.766-1.127c-0.662-0.954-1.078-1.324-1.732-1.432c-0.216-0.036-0.428-0.043-0.663-0.024 c-0.88,0.084-1.21,0.479-2.14,1.941c-1.268,1.992-3.109,4.885-8.299,4.885c-4.51,0-7.797-3.999-8.601-7.761 C3.907,27.384,4.592,24.12,6.499,21.764z"/><path fill="#c5d7e0" d="M34.332,20.359c2.333,0,4.317,0.984,5.652,2.648c1.517,1.891,2.107,4.55,1.514,7.328 c-0.676,3.168-3.354,6.309-6.805,6.309c-4.438,0-5.714-2.485-7.021-4.436c-0.912-1.366-1.768-2.418-3.725-2.418 c-1.968,0-2.814,1.046-3.709,2.406c-1.29,1.953-2.534,4.448-7.019,4.448c-3.451,0-6.129-3.141-6.805-6.309 c-0.88-4.122,0.993-7.883,4.448-8.776c0.715-0.774,3.071-1.2,5.439-1.2c1.167,0,4.56,0,4.56,0h3.247 C24.109,20.359,34.165,20.359,34.332,20.359 M6.508,21.771c1.635-2.02,3.998-3.161,6.676-3.23 c0.087-0.004,0.356-0.006,0.444-0.006h8.937h2.794h8.798l0,0c0.082,0,0.337,0.002,0.417,0.005 c2.725,0.064,5.134,1.228,6.806,3.295c1.909,2.359,2.601,5.596,1.9,8.881c-0.803,3.758-4.086,7.752-8.589,7.752 c-4.627,0-6.571-2.35-7.874-4.253c-0.287-0.421-0.535-0.8-0.767-1.128c-0.659-0.948-1.079-1.316-1.74-1.423 c-0.217-0.035-0.429-0.041-0.663-0.022c-0.88,0.087-1.213,0.488-2.14,1.945c-1.268,1.992-3.105,4.88-8.289,4.88 c-4.503,0-7.787-3.994-8.589-7.752C3.919,27.385,4.603,24.125,6.508,21.771z"/><path fill="#c6d8e0" d="M34.332,20.347c2.335,0,4.322,0.984,5.661,2.652c1.52,1.895,2.11,4.558,1.516,7.338 c-0.676,3.17-3.357,6.318-6.817,6.318c-4.437,0-5.719-2.482-7.024-4.432c-0.913-1.37-1.766-2.422-3.722-2.422 c-1.967,0-2.809,1.047-3.705,2.411c-1.288,1.952-2.538,4.443-7.022,4.443c-3.459,0-6.14-3.149-6.817-6.318 c-0.874-4.093,0.968-7.831,4.379-8.753c0.732-0.798,3.082-1.238,5.45-1.238c1.139,0,4.578,0,4.578,0h3.26 C24.069,20.347,34.169,20.347,34.332,20.347 M6.517,21.778c1.634-2.019,3.996-3.159,6.674-3.226 c0.085-0.004,0.358-0.006,0.444-0.006h8.933h2.792h8.794l0,0c0.08,0,0.338,0.002,0.417,0.005c2.723,0.063,5.132,1.226,6.803,3.29 c1.906,2.356,2.598,5.59,1.898,8.871c-0.802,3.753-4.08,7.742-8.578,7.742c-4.633,0-6.572-2.358-7.874-4.262 c-0.288-0.423-0.535-0.801-0.768-1.129c-0.657-0.943-1.079-1.309-1.748-1.413c-0.218-0.034-0.43-0.039-0.664-0.019 c-0.88,0.089-1.216,0.497-2.141,1.95c-1.267,1.991-3.102,4.874-8.279,4.874c-4.497,0-7.776-3.989-8.578-7.742 C3.931,27.386,4.615,24.129,6.517,21.778z"/><path fill="#c7d8e1" d="M34.332,20.335c2.337,0,4.328,0.984,5.669,2.656c1.523,1.899,2.114,4.566,1.519,7.349 c-0.677,3.172-3.36,6.328-6.828,6.328c-4.436,0-5.725-2.479-7.028-4.427c-0.915-1.373-1.764-2.427-3.719-2.427 c-1.965,0-2.804,1.048-3.702,2.415c-1.286,1.951-2.542,4.439-7.025,4.439c-3.468,0-6.151-3.156-6.828-6.327 c-0.868-4.064,0.943-7.78,4.31-8.729c0.75-0.822,3.093-1.275,5.461-1.275c1.11,0,4.595,0,4.595,0h3.272 C24.03,20.335,34.173,20.335,34.332,20.335 M6.526,21.786c1.633-2.018,3.994-3.156,6.671-3.221 c0.083-0.004,0.359-0.006,0.443-0.006h8.928h2.79h8.789l0,0c0.078,0,0.34,0.002,0.416,0.005c2.722,0.061,5.13,1.223,6.799,3.286 c1.904,2.354,2.595,5.583,1.896,8.861c-0.801,3.749-4.075,7.733-8.566,7.733c-4.639,0-6.573-2.367-7.874-4.272 c-0.288-0.424-0.536-0.803-0.769-1.13c-0.655-0.937-1.079-1.302-1.755-1.404c-0.219-0.033-0.431-0.038-0.664-0.017 c-0.881,0.092-1.22,0.506-2.141,1.955c-1.267,1.99-3.098,4.869-8.269,4.869c-4.491,0-7.766-3.984-8.566-7.733 C3.944,27.387,4.626,24.134,6.526,21.786z"/><path fill="#c8d9e2" d="M34.332,20.323c2.339,0,4.334,0.984,5.678,2.66c1.527,1.903,2.117,4.574,1.522,7.359 c-0.677,3.173-3.363,6.337-6.84,6.337c-4.435,0-5.73-2.476-7.031-4.423c-0.916-1.377-1.762-2.431-3.715-2.431 c-1.964,0-2.799,1.049-3.698,2.42c-1.284,1.949-2.547,4.434-7.029,4.434c-3.476,0-6.162-3.164-6.84-6.337 c-0.862-4.035,0.918-7.729,4.241-8.706c0.767-0.847,3.104-1.313,5.472-1.313c1.082,0,4.613,0,4.613,0h3.285 C23.99,20.323,34.177,20.323,34.332,20.323 M6.535,21.793c1.632-2.017,3.993-3.154,6.668-3.217 c0.081-0.004,0.36-0.005,0.442-0.005h8.924h2.788h8.784l0,0c0.076,0,0.341,0.002,0.416,0.005c2.721,0.059,5.128,1.22,6.796,3.282 c1.902,2.351,2.592,5.577,1.893,8.851c-0.8,3.744-4.07,7.724-8.555,7.724c-4.645,0-6.574-2.375-7.874-4.281 c-0.289-0.425-0.537-0.805-0.77-1.132c-0.653-0.932-1.08-1.295-1.763-1.394c-0.22-0.032-0.432-0.036-0.664-0.015 c-0.881,0.095-1.223,0.515-2.142,1.959c-1.266,1.99-3.095,4.863-8.259,4.863c-4.485,0-7.755-3.979-8.555-7.724 C3.956,27.388,4.638,24.139,6.535,21.793z"/><path fill="#c9dae3" d="M34.332,20.312c2.341,0,4.339,0.985,5.687,2.663c1.53,1.906,2.121,4.582,1.525,7.37 c-0.678,3.175-3.366,6.346-6.851,6.346c-4.435,0-5.735-2.473-7.034-4.418c-0.918-1.38-1.76-2.435-3.712-2.435 c-1.963,0-2.794,1.05-3.695,2.424c-1.282,1.948-2.551,4.429-7.032,4.429c-3.485,0-6.174-3.171-6.851-6.346 c-0.855-4.006,0.892-7.678,4.171-8.683c0.784-0.871,3.115-1.35,5.484-1.35c1.053,0,4.63,0,4.63,0h3.297 C23.95,20.312,34.181,20.312,34.332,20.312 M6.544,21.801c1.631-2.016,3.991-3.151,6.666-3.213 c0.079-0.004,0.362-0.005,0.441-0.005h8.919h2.787h8.779l0,0c0.074,0,0.342,0.002,0.415,0.005 c2.72,0.058,5.126,1.217,6.793,3.278c1.9,2.348,2.589,5.571,1.891,8.842c-0.799,3.74-4.064,7.714-8.543,7.714 c-4.651,0-6.575-2.383-7.874-4.291c-0.289-0.427-0.538-0.806-0.771-1.133c-0.651-0.926-1.08-1.287-1.771-1.385 c-0.221-0.031-0.434-0.035-0.665-0.013c-0.882,0.098-1.227,0.524-2.143,1.964c-1.266,1.989-3.091,4.858-8.249,4.858 c-4.479,0-7.744-3.975-8.543-7.714C3.968,27.389,4.649,24.143,6.544,21.801z"/><path fill="#c9dbe3" d="M34.332,20.3c2.343,0,4.345,0.985,5.695,2.667c1.533,1.91,2.124,4.589,1.528,7.38 c-0.678,3.177-3.369,6.356-6.863,6.356c-4.434,0-5.741-2.47-7.038-4.414c-0.92-1.384-1.758-2.44-3.708-2.44 c-1.962,0-2.789,1.051-3.692,2.429c-1.28,1.947-2.555,4.425-7.035,4.425c-3.493,0-6.185-3.179-6.863-6.355 c-0.849-3.977,0.867-7.627,4.102-8.659c0.802-0.895,3.126-1.388,5.495-1.388c1.025,0,4.648,0,4.648,0h3.31 C23.911,20.3,34.185,20.3,34.332,20.3 M6.554,21.808c1.63-2.014,3.989-3.148,6.663-3.209c0.076-0.003,0.363-0.005,0.441-0.005 h8.914h2.785h8.774l0,0c0.072,0,0.344,0.001,0.415,0.004c2.719,0.056,5.123,1.214,6.79,3.273 c1.897,2.345,2.586,5.564,1.889,8.832c-0.798,3.735-4.059,7.705-8.532,7.705c-4.657,0-6.576-2.391-7.874-4.3 c-0.29-0.428-0.538-0.808-0.772-1.134c-0.649-0.921-1.08-1.28-1.778-1.375c-0.222-0.03-0.435-0.033-0.665-0.011 c-0.882,0.1-1.23,0.533-2.143,1.968c-1.265,1.988-3.088,4.852-8.239,4.852c-4.472,0-7.734-3.97-8.532-7.705 C3.98,27.39,4.66,24.148,6.554,21.808z"/><path fill="#cadce4" d="M34.332,20.288c2.345,0,4.35,0.985,5.704,2.671c1.536,1.914,2.128,4.597,1.531,7.39 c-0.678,3.179-3.372,6.365-6.874,6.365c-4.433,0-5.746-2.467-7.041-4.409c-0.921-1.387-1.756-2.444-3.705-2.444 c-1.96,0-2.784,1.052-3.688,2.434c-1.278,1.945-2.559,4.42-7.039,4.42c-3.502,0-6.196-3.186-6.874-6.365 c-0.843-3.948,0.842-7.575,4.033-8.636c0.819-0.919,3.137-1.425,5.506-1.425c0.996,0,4.665,0,4.665,0h3.322 C23.871,20.288,34.189,20.288,34.332,20.288 M6.563,21.815c1.629-2.013,3.987-3.146,6.66-3.204 c0.074-0.003,0.365-0.005,0.44-0.005h8.91h2.783h8.77l0,0c0.07,0,0.345,0.001,0.414,0.004c2.718,0.055,5.121,1.211,6.787,3.269 c1.895,2.342,2.583,5.558,1.886,8.822c-0.797,3.731-4.054,7.696-8.52,7.696c-4.663,0-6.577-2.399-7.875-4.31 c-0.29-0.429-0.539-0.809-0.773-1.135c-0.647-0.915-1.08-1.273-1.786-1.366c-0.223-0.029-0.436-0.032-0.666-0.009 c-0.883,0.103-1.233,0.542-2.144,1.973c-1.265,1.988-3.085,4.847-8.23,4.847c-4.466,0-7.723-3.965-8.52-7.696 C3.993,27.391,4.672,24.153,6.563,21.815z"/><path fill="#cbdde5" d="M34.332,20.276c2.347,0,4.356,0.986,5.713,2.675c1.54,1.917,2.131,4.605,1.533,7.401 c-0.679,3.181-3.375,6.374-6.886,6.374c-4.432,0-5.751-2.464-7.044-4.405c-0.923-1.391-1.754-2.449-3.702-2.449 c-1.959,0-2.779,1.053-3.685,2.438c-1.276,1.944-2.564,4.416-7.042,4.416c-3.51,0-6.207-3.193-6.886-6.374 c-0.837-3.919,0.817-7.524,3.963-8.613c0.837-0.943,3.148-1.463,5.517-1.463c0.968,0,4.683,0,4.683,0h3.335 C23.831,20.276,34.193,20.276,34.332,20.276 M6.572,21.823c1.628-2.012,3.986-3.143,6.657-3.2 c0.072-0.003,0.366-0.005,0.439-0.005h8.905h2.782h8.765l0,0c0.068,0,0.347,0.001,0.414,0.004 c2.716,0.053,5.119,1.208,6.783,3.265c1.893,2.34,2.58,5.552,1.884,8.812c-0.796,3.726-4.048,7.686-8.509,7.686 c-4.669,0-6.578-2.407-7.875-4.319c-0.291-0.43-0.54-0.811-0.774-1.136c-0.644-0.91-1.081-1.266-1.794-1.356 c-0.224-0.028-0.437-0.03-0.666-0.007c-0.883,0.106-1.237,0.551-2.145,1.977c-1.265,1.987-3.081,4.842-8.22,4.842 c-4.46,0-7.713-3.96-8.509-7.687C4.005,27.392,4.683,24.157,6.572,21.823z"/><path fill="#ccdde6" d="M34.332,20.265c2.349,0,4.361,0.986,5.721,2.678c1.543,1.921,2.134,4.613,1.536,7.411 c-0.679,3.183-3.378,6.383-6.897,6.383c-4.432,0-5.757-2.46-7.048-4.4c-0.924-1.394-1.752-2.453-3.698-2.453 c-1.958,0-2.774,1.054-3.681,2.443c-1.274,1.943-2.568,4.411-7.046,4.411c-3.519,0-6.218-3.201-6.897-6.383 c-0.831-3.89,0.792-7.473,3.894-8.589c0.854-0.968,3.159-1.5,5.528-1.5c0.939,0,4.7,0,4.7,0h3.347 C23.791,20.265,34.198,20.265,34.332,20.265 M6.581,21.83c1.627-2.011,3.984-3.141,6.655-3.196 c0.07-0.003,0.367-0.005,0.438-0.005h8.901h2.78h8.76l0,0c0.066,0,0.348,0.001,0.413,0.004c2.715,0.052,5.117,1.205,6.78,3.261 c1.891,2.337,2.577,5.545,1.882,8.802c-0.795,3.722-4.043,7.677-8.497,7.677c-4.675,0-6.579-2.415-7.875-4.329 c-0.291-0.432-0.54-0.812-0.776-1.138c-0.642-0.904-1.081-1.258-1.801-1.347c-0.224-0.028-0.438-0.029-0.666-0.005 c-0.883,0.108-1.24,0.56-2.145,1.982c-1.264,1.986-3.078,4.836-8.21,4.836c-4.454,0-7.702-3.955-8.497-7.677 C4.017,27.393,4.695,24.162,6.581,21.83z"/><path fill="#cddee6" d="M34.332,20.253c2.351,0,4.367,0.986,5.73,2.682c1.546,1.925,2.138,4.621,1.539,7.422 c-0.68,3.184-3.381,6.393-6.909,6.393c-4.431,0-5.762-2.457-7.051-4.396c-0.926-1.398-1.75-2.458-3.695-2.458 c-1.957,0-2.769,1.055-3.678,2.448c-1.272,1.941-2.572,4.406-7.049,4.406c-3.527,0-6.229-3.208-6.909-6.393 c-0.824-3.861,0.766-7.422,3.825-8.566c0.871-0.992,3.17-1.538,5.539-1.538c0.911,0,4.717,0,4.717,0h3.36 C23.752,20.253,34.202,20.253,34.332,20.253 M6.59,21.838c1.626-2.01,3.982-3.138,6.652-3.192 c0.068-0.003,0.369-0.005,0.438-0.005h8.896h2.778h8.755l0,0c0.064,0,0.35,0.001,0.413,0.004c2.714,0.05,5.115,1.202,6.777,3.256 c1.888,2.334,2.573,5.539,1.879,8.792c-0.794,3.717-4.038,7.668-8.486,7.668c-4.681,0-6.58-2.424-7.875-4.339 c-0.292-0.433-0.541-0.814-0.777-1.139c-0.64-0.898-1.081-1.251-1.809-1.337c-0.225-0.027-0.44-0.027-0.667-0.002 c-0.884,0.111-1.244,0.569-2.146,1.986c-1.264,1.986-3.074,4.831-8.2,4.831c-4.448,0-7.692-3.951-8.486-7.668 C4.029,27.395,4.706,24.166,6.59,21.838z"/><path fill="#cedfe7" d="M34.332,20.241c2.352,0,4.372,0.986,5.739,2.686c1.55,1.928,2.141,4.628,1.542,7.432 c-0.68,3.186-3.384,6.402-6.92,6.402c-4.43,0-5.767-2.454-7.055-4.391c-0.928-1.401-1.748-2.462-3.692-2.462 c-1.956,0-2.764,1.056-3.675,2.452c-1.27,1.94-2.577,4.402-7.052,4.402c-3.536,0-6.24-3.216-6.92-6.402 c-0.818-3.832,0.741-7.371,3.756-8.543c0.889-1.016,3.181-1.575,5.551-1.575c0.883,0,4.735,0,4.735,0h3.372 C23.712,20.241,34.206,20.241,34.332,20.241 M6.599,21.845c1.625-2.008,3.98-3.136,6.649-3.188 c0.066-0.003,0.37-0.004,0.437-0.004h8.891h2.776h8.75l0,0c0.062,0,0.351,0.001,0.412,0.004c2.713,0.049,5.113,1.199,6.774,3.252 c1.886,2.331,2.57,5.532,1.877,8.782c-0.793,3.713-4.033,7.658-8.474,7.658c-4.687,0-6.581-2.432-7.875-4.348 c-0.292-0.434-0.542-0.816-0.778-1.14c-0.638-0.893-1.081-1.244-1.817-1.328c-0.226-0.026-0.441-0.026-0.667,0 c-0.884,0.114-1.247,0.578-2.146,1.991c-1.263,1.985-3.071,4.825-8.19,4.825c-4.442,0-7.681-3.946-8.474-7.659 C4.042,27.396,4.717,24.171,6.599,21.845z"/><path fill="#cfe0e8" d="M34.332,20.229c2.354,0,4.378,0.987,5.747,2.69c1.553,1.932,2.145,4.636,1.545,7.443 c-0.68,3.188-3.387,6.411-6.932,6.411c-4.429,0-5.773-2.451-7.058-4.387c-0.929-1.405-1.746-2.467-3.688-2.467 c-1.954,0-2.759,1.057-3.671,2.457c-1.268,1.938-2.581,4.397-7.056,4.397c-3.544,0-6.251-3.223-6.932-6.411 c-0.812-3.803,0.716-7.319,3.686-8.52c0.906-1.04,3.192-1.613,5.562-1.613c0.854,0,4.752,0,4.752,0h3.384 C23.672,20.229,34.21,20.229,34.332,20.229 M6.608,21.852c1.624-2.007,3.978-3.133,6.646-3.183 c0.064-0.003,0.372-0.004,0.436-0.004h8.887h2.775h8.746l0,0c0.06,0,0.353,0.001,0.412,0.004 c2.712,0.047,5.111,1.196,6.771,3.248c1.884,2.329,2.567,5.526,1.874,8.773c-0.792,3.708-4.027,7.649-8.463,7.649 c-4.693,0-6.582-2.44-7.875-4.358c-0.293-0.436-0.543-0.817-0.779-1.141c-0.636-0.887-1.082-1.237-1.824-1.318 c-0.227-0.025-0.442-0.024-0.668,0.002c-0.885,0.117-1.25,0.587-2.147,1.996c-1.263,1.984-3.067,4.82-8.18,4.82 c-4.435,0-7.671-3.941-8.463-7.649C4.054,27.397,4.729,24.176,6.608,21.852z"/><path fill="#d0e1e9" d="M34.332,20.218c2.356,0,4.384,0.987,5.756,2.693c1.556,1.936,2.148,4.644,1.548,7.453 c-0.681,3.19-3.39,6.421-6.943,6.421c-4.429,0-5.778-2.448-7.061-4.382c-0.931-1.408-1.744-2.471-3.685-2.471 c-1.953,0-2.754,1.058-3.668,2.461c-1.266,1.937-2.585,4.393-7.059,4.393c-3.553,0-6.262-3.231-6.943-6.42 c-0.806-3.774,0.691-7.268,3.617-8.496c0.924-1.064,3.203-1.651,5.573-1.651c0.826,0,4.77,0,4.77,0h3.397 C23.633,20.218,34.214,20.218,34.332,20.218 M6.618,21.86c1.623-2.006,3.977-3.131,6.644-3.179 c0.062-0.003,0.373-0.004,0.435-0.004h8.882h2.773h8.741l0,0c0.058,0,0.354,0.001,0.411,0.004 c2.71,0.045,5.109,1.193,6.767,3.244c1.882,2.326,2.564,5.52,1.872,8.763c-0.792,3.703-4.022,7.64-8.451,7.64 c-4.699,0-6.583-2.448-7.875-4.367c-0.293-0.437-0.543-0.819-0.78-1.142c-0.634-0.882-1.082-1.23-1.832-1.309 c-0.228-0.024-0.443-0.023-0.668,0.004c-0.885,0.119-1.254,0.596-2.148,2c-1.263,1.984-3.064,4.814-8.17,4.814 c-4.429,0-7.66-3.936-8.451-7.64C4.066,27.398,4.74,24.18,6.618,21.86z"/><path fill="#d1e2ea" d="M34.332,20.206c2.358,0,4.389,0.987,5.765,2.697c1.56,1.939,2.151,4.652,1.55,7.464 c-0.681,3.192-3.393,6.43-6.955,6.43c-4.428,0-5.783-2.445-7.065-4.378c-0.932-1.412-1.741-2.476-3.681-2.476 c-1.952,0-2.749,1.059-3.664,2.466c-1.264,1.936-2.59,4.388-7.063,4.388c-3.561,0-6.274-3.238-6.955-6.43 c-0.8-3.745,0.666-7.217,3.548-8.473c0.941-1.089,3.214-1.688,5.584-1.688c0.797,0,4.787,0,4.787,0h3.409 C23.593,20.206,34.218,20.206,34.332,20.206 M6.627,21.867c1.622-2.005,3.975-3.128,6.641-3.175 c0.059-0.003,0.374-0.004,0.435-0.004h8.878h2.771h8.736l0,0c0.056,0,0.356,0.001,0.411,0.003 c2.709,0.044,5.106,1.19,6.764,3.239c1.879,2.323,2.561,5.513,1.87,8.753c-0.791,3.699-4.017,7.63-8.44,7.63 c-4.705,0-6.584-2.456-7.876-4.377c-0.294-0.438-0.544-0.82-0.781-1.144c-0.632-0.876-1.082-1.223-1.84-1.299 c-0.229-0.023-0.444-0.021-0.668,0.006c-0.886,0.122-1.257,0.604-2.148,2.005c-1.262,1.983-3.06,4.809-8.16,4.809 c-4.423,0-7.65-3.932-8.44-7.631C4.078,27.399,4.752,24.185,6.627,21.867z"/><path fill="#d2e2ea" d="M34.332,20.194c2.36,0,4.395,0.988,5.773,2.701c1.563,1.943,2.155,4.66,1.553,7.474 c-0.681,3.194-3.396,6.439-6.966,6.439c-4.427,0-5.789-2.442-7.068-4.373c-0.934-1.415-1.739-2.48-3.678-2.48 c-1.951,0-2.745,1.06-3.661,2.471c-1.262,1.934-2.594,4.383-7.066,4.383c-3.57,0-6.285-3.246-6.966-6.439 c-0.794-3.716,0.64-7.166,3.478-8.45c0.958-1.113,3.225-1.726,5.595-1.726c0.769,0,4.805,0,4.805,0h3.422 C23.553,20.194,34.222,20.194,34.332,20.194 M6.636,21.875c1.621-2.003,3.973-3.126,6.638-3.171 c0.057-0.003,0.376-0.004,0.434-0.004h8.873h2.77h8.731l0,0c0.054,0,0.357,0.001,0.41,0.003c2.708,0.042,5.104,1.187,6.761,3.235 c1.877,2.32,2.558,5.507,1.867,8.743c-0.79,3.694-4.011,7.621-8.428,7.621c-4.711,0-6.585-2.464-7.876-4.386 c-0.294-0.44-0.545-0.822-0.782-1.145c-0.629-0.871-1.082-1.216-1.847-1.29c-0.23-0.022-0.446-0.02-0.669,0.008 c-0.886,0.125-1.261,0.613-2.149,2.009c-1.262,1.982-3.057,4.803-8.15,4.803c-4.417,0-7.639-3.927-8.428-7.621 C4.091,27.4,4.763,24.19,6.636,21.875z"/><path fill="#d3e3eb" d="M34.332,20.182c2.362,0,4.4,0.988,5.782,2.705c1.566,1.947,2.158,4.667,1.556,7.485 c-0.682,3.196-3.399,6.449-6.978,6.449c-4.426,0-5.794-2.439-7.071-4.369c-0.936-1.419-1.737-2.485-3.675-2.485 c-1.95,0-2.74,1.061-3.658,2.475c-1.26,1.933-2.598,4.379-7.069,4.379c-3.578,0-6.296-3.253-6.978-6.448 c-0.787-3.687,0.615-7.115,3.409-8.426c0.976-1.137,3.236-1.763,5.606-1.763c0.74,0,4.822,0,4.822,0h3.434 C23.513,20.182,34.226,20.182,34.332,20.182 M6.645,21.882c1.62-2.002,3.971-3.123,6.636-3.166 c0.055-0.002,0.377-0.004,0.433-0.004h8.869h2.768h8.726l0,0c0.052,0,0.359,0.001,0.41,0.003 c2.707,0.041,5.102,1.185,6.758,3.231c1.875,2.317,2.555,5.501,1.865,8.733c-0.789,3.69-4.006,7.612-8.417,7.612 c-4.717,0-6.586-2.472-7.876-4.396c-0.295-0.441-0.546-0.824-0.783-1.146c-0.627-0.865-1.083-1.209-1.855-1.28 c-0.231-0.021-0.447-0.018-0.669,0.01c-0.887,0.127-1.264,0.622-2.15,2.014c-1.261,1.982-3.053,4.798-8.14,4.798 c-4.411,0-7.629-3.922-8.417-7.612C4.103,27.401,4.774,24.194,6.645,21.882z"/><path fill="#d4e4ec" d="M34.332,20.171c2.364,0,4.406,0.988,5.791,2.708c1.57,1.95,2.162,4.675,1.559,7.495 c-0.682,3.197-3.402,6.458-6.989,6.458c-4.425,0-5.799-2.436-7.075-4.364c-0.937-1.422-1.735-2.489-3.671-2.489 c-1.948,0-2.735,1.062-3.654,2.48c-1.258,1.932-2.602,4.374-7.073,4.374c-3.587,0-6.307-3.261-6.989-6.458 c-0.781-3.658,0.59-7.063,3.34-8.403c0.993-1.161,3.247-1.801,5.618-1.801c0.712,0,4.839,0,4.839,0h3.447 C23.474,20.171,34.23,20.171,34.332,20.171 M6.654,21.889c1.619-2.001,3.97-3.12,6.633-3.162 c0.053-0.002,0.379-0.004,0.432-0.004h8.864h2.766h8.722l0,0c0.05,0,0.36,0.001,0.409,0.003c2.706,0.039,5.1,1.182,6.754,3.227 c1.873,2.315,2.552,5.494,1.863,8.723c-0.788,3.685-4.001,7.603-8.405,7.603c-4.723,0-6.587-2.481-7.876-4.405 c-0.295-0.442-0.546-0.825-0.784-1.147c-0.625-0.86-1.083-1.202-1.863-1.271c-0.232-0.02-0.448-0.017-0.67,0.012 c-0.887,0.13-1.268,0.631-2.15,2.018c-1.261,1.981-3.05,4.792-8.13,4.792c-4.404,0-7.618-3.917-8.405-7.603 C4.115,27.402,4.786,24.199,6.654,21.889z"/><path fill="#d5e5ed" d="M34.332,20.159c2.366,0,4.411,0.988,5.799,2.712c1.573,1.954,2.165,4.683,1.562,7.505 c-0.683,3.199-3.405,6.467-7.001,6.467c-4.425,0-5.805-2.432-7.078-4.36c-0.939-1.426-1.733-2.494-3.668-2.494 c-1.947,0-2.73,1.063-3.651,2.484c-1.256,1.93-2.607,4.37-7.076,4.37c-3.595,0-6.318-3.268-7.001-6.467 c-0.775-3.629,0.565-7.012,3.271-8.38c1.011-1.185,3.258-1.838,5.629-1.838c0.683,0,4.857,0,4.857,0h3.459 C23.434,20.159,34.234,20.159,34.332,20.159 M6.663,21.897c1.618-2,3.968-3.118,6.63-3.158c0.051-0.002,0.38-0.003,0.432-0.003 h8.859h2.765h8.717l0,0c0.048,0,0.361,0.001,0.409,0.003c2.705,0.038,5.098,1.179,6.751,3.222 c1.871,2.312,2.549,5.488,1.86,8.714c-0.787,3.681-3.995,7.593-8.394,7.593c-4.729,0-6.588-2.489-7.876-4.415 c-0.296-0.444-0.547-0.827-0.786-1.148c-0.623-0.854-1.083-1.195-1.87-1.261c-0.233-0.02-0.449-0.015-0.67,0.015 c-0.887,0.133-1.271,0.64-2.151,2.023c-1.26,1.98-3.046,4.787-8.12,4.787c-4.398,0-7.607-3.912-8.394-7.593 C4.127,27.403,4.797,24.203,6.663,21.897z"/><path fill="#d6e6ed" d="M34.332,20.147c2.368,0,4.417,0.989,5.808,2.716c1.576,1.958,2.168,4.691,1.565,7.516 c-0.683,3.201-3.408,6.477-7.012,6.477c-4.424,0-5.81-2.429-7.082-4.356c-0.94-1.429-1.731-2.498-3.665-2.498 c-1.946,0-2.725,1.065-3.647,2.489c-1.254,1.929-2.611,4.365-7.08,4.365c-3.604,0-6.329-3.275-7.012-6.476 c-0.769-3.6,0.54-6.961,3.201-8.357c1.028-1.21,3.269-1.876,5.64-1.876c0.655,0,4.874,0,4.874,0h3.472 C23.394,20.147,34.238,20.147,34.332,20.147 M6.672,21.904c1.617-1.999,3.966-3.115,6.627-3.154 c0.049-0.002,0.381-0.003,0.431-0.003h8.855h2.763h8.712l0,0c0.046,0,0.363,0.001,0.408,0.003 c2.703,0.036,5.096,1.176,6.748,3.218c1.868,2.309,2.545,5.481,1.858,8.704c-0.786,3.676-3.99,7.584-8.382,7.584 c-4.735,0-6.589-2.497-7.876-4.425c-0.296-0.445-0.548-0.828-0.787-1.15c-0.621-0.849-1.084-1.188-1.878-1.251 c-0.233-0.019-0.45-0.014-0.67,0.017c-0.888,0.135-1.274,0.649-2.151,2.027c-1.26,1.98-3.043,4.782-8.11,4.782 c-4.392,0-7.597-3.908-8.382-7.584C4.14,27.404,4.808,24.208,6.672,21.904z"/><path fill="#d7e7ee" d="M34.332,20.135c2.37,0,4.423,0.989,5.817,2.72c1.579,1.962,2.172,4.699,1.567,7.526 c-0.683,3.203-3.411,6.486-7.024,6.486c-4.423,0-5.815-2.426-7.085-4.351c-0.942-1.433-1.729-2.503-3.661-2.503 c-1.945,0-2.72,1.066-3.644,2.494c-1.252,1.928-2.615,4.36-7.083,4.36c-3.612,0-6.34-3.283-7.024-6.486 c-0.763-3.571,0.514-6.91,3.132-8.333c1.045-1.234,3.28-1.913,5.651-1.913c0.626,0,4.892,0,4.892,0h3.484 C23.355,20.135,34.242,20.135,34.332,20.135 M6.682,21.912c1.616-1.997,3.964-3.113,6.625-3.15 c0.047-0.002,0.383-0.003,0.43-0.003h8.85h2.761h8.707l0,0c0.044,0,0.364,0.001,0.408,0.003c2.702,0.034,5.094,1.173,6.745,3.214 c1.866,2.306,2.542,5.475,1.856,8.694c-0.785,3.672-3.985,7.575-8.371,7.575c-4.741,0-6.59-2.505-7.876-4.434 c-0.297-0.446-0.549-0.83-0.788-1.151c-0.619-0.843-1.084-1.181-1.886-1.242c-0.234-0.018-0.452-0.012-0.671,0.019 c-0.888,0.138-1.278,0.658-2.152,2.032c-1.26,1.979-3.039,4.776-8.1,4.776c-4.386,0-7.586-3.903-8.371-7.575 C4.152,27.405,4.82,24.213,6.682,21.912z"/><path fill="#d8e7ef" d="M34.332,20.124c2.372,0,4.428,0.989,5.825,2.723c1.583,1.965,2.175,4.706,1.57,7.537 c-0.684,3.205-3.414,6.495-7.035,6.495c-4.422,0-5.821-2.423-7.088-4.347c-0.944-1.437-1.727-2.507-3.658-2.507 c-1.944,0-2.715,1.067-3.641,2.498c-1.25,1.926-2.62,4.356-7.086,4.356c-3.621,0-6.351-3.29-7.035-6.495 c-0.756-3.542,0.489-6.859,3.063-8.31c1.063-1.258,3.291-1.951,5.662-1.951c0.598,0,4.909,0,4.909,0h3.497 C23.315,20.124,34.246,20.124,34.332,20.124 M6.691,21.919c1.615-1.996,3.963-3.11,6.622-3.145 c0.045-0.002,0.384-0.003,0.429-0.003h8.846h2.759h8.702l0,0c0.042,0,0.366,0.001,0.407,0.003c2.701,0.033,5.091,1.17,6.742,3.21 c1.864,2.304,2.539,5.469,1.853,8.684c-0.784,3.667-3.98,7.565-8.359,7.565c-4.747,0-6.591-2.513-7.877-4.444 c-0.297-0.447-0.549-0.831-0.789-1.152c-0.616-0.838-1.084-1.174-1.893-1.232c-0.235-0.017-0.453-0.011-0.671,0.021 c-0.889,0.141-1.281,0.667-2.153,2.037c-1.259,1.978-3.036,4.771-8.091,4.771c-4.38,0-7.576-3.898-8.359-7.566 C4.164,27.406,4.831,24.217,6.691,21.919z"/><path fill="#d9e8f0" d="M34.332,20.112c2.374,0,4.434,0.99,5.834,2.727c1.586,1.969,2.179,4.714,1.573,7.547 c-0.684,3.207-3.417,6.505-7.047,6.505c-4.422,0-5.826-2.42-7.092-4.342c-0.945-1.44-1.725-2.512-3.655-2.512 c-1.942,0-2.71,1.068-3.637,2.503c-1.248,1.925-2.624,4.351-7.09,4.351c-3.629,0-6.362-3.298-7.047-6.504 c-0.75-3.513,0.464-6.807,2.993-8.287c1.08-1.282,3.302-1.988,5.673-1.988c0.569,0,4.927,0,4.927,0h3.509 C23.275,20.112,34.25,20.112,34.332,20.112 M6.7,21.926c1.615-1.995,3.961-3.108,6.619-3.141 c0.042-0.002,0.386-0.003,0.429-0.003h8.841h2.758h8.698l0,0c0.04,0,0.367,0.001,0.407,0.002c2.7,0.031,5.089,1.167,6.738,3.205 c1.862,2.301,2.536,5.462,1.851,8.674c-0.783,3.663-3.974,7.556-8.348,7.556c-4.753,0-6.592-2.521-7.877-4.453 c-0.298-0.449-0.55-0.833-0.79-1.153c-0.614-0.832-1.084-1.167-1.901-1.223c-0.236-0.016-0.454-0.009-0.671,0.023 c-0.889,0.144-1.285,0.676-2.153,2.041c-1.259,1.978-3.033,4.765-8.081,4.765c-4.373,0-7.565-3.893-8.348-7.556 C4.176,27.407,4.843,24.222,6.7,21.926z"/><path fill="#dae9f0" d="M34.332,20.1c2.376,0,4.439,0.99,5.843,2.731c1.589,1.973,2.182,4.722,1.576,7.558 c-0.685,3.209-3.42,6.514-7.058,6.514c-4.421,0-5.831-2.417-7.095-4.338c-0.947-1.444-1.723-2.516-3.651-2.516 c-1.941,0-2.705,1.069-3.634,2.507c-1.246,1.923-2.628,4.346-7.093,4.346c-3.638,0-6.374-3.305-7.058-6.514 c-0.744-3.484,0.439-6.756,2.924-8.263c1.098-1.306,3.313-2.026,5.685-2.026c0.541,0,4.944,0,4.944,0h3.522 C23.236,20.1,34.254,20.1,34.332,20.1 M6.709,21.934c1.614-1.994,3.959-3.105,6.616-3.137c0.04-0.002,0.387-0.003,0.428-0.003 h8.836h2.756h8.693l0,0c0.038,0,0.369,0.001,0.406,0.002c2.699,0.03,5.087,1.164,6.735,3.201 c1.859,2.298,2.533,5.456,1.849,8.664c-0.782,3.658-3.969,7.547-8.336,7.547c-4.759,0-6.593-2.529-7.877-4.463 c-0.298-0.45-0.551-0.835-0.791-1.154c-0.612-0.827-1.085-1.16-1.909-1.213c-0.237-0.015-0.455-0.008-0.672,0.025 c-0.89,0.146-1.288,0.685-2.154,2.046c-1.258,1.977-3.029,4.76-8.071,4.76c-4.367,0-7.555-3.888-8.336-7.547 C4.189,27.408,4.854,24.227,6.709,21.934z"/><path fill="#dbeaf1" d="M34.332,20.088c2.377,0,4.445,0.99,5.851,2.735c1.593,1.976,2.185,4.73,1.579,7.568 c-0.685,3.21-3.423,6.523-7.07,6.523c-4.42,0-5.837-2.414-7.098-4.333c-0.948-1.447-1.721-2.521-3.648-2.521 c-1.94,0-2.7,1.07-3.631,2.512c-1.244,1.922-2.632,4.342-7.096,4.342c-3.646,0-6.385-3.313-7.07-6.523 c-0.738-3.455,0.413-6.705,2.855-8.24c1.115-1.33,3.324-2.063,5.696-2.063c0.512,0,4.961,0,4.961,0h3.534 C23.196,20.088,34.259,20.088,34.332,20.088 M6.718,21.941c1.613-1.993,3.957-3.103,6.614-3.133 c0.038-0.002,0.388-0.003,0.427-0.003h8.832h2.754h8.688l0,0c0.036,0,0.37,0.001,0.406,0.002 c2.698,0.028,5.085,1.161,6.732,3.197c1.857,2.295,2.53,5.45,1.846,8.654c-0.781,3.654-3.964,7.537-8.325,7.537 c-4.765,0-6.594-2.538-7.877-4.472c-0.299-0.451-0.551-0.836-0.792-1.156c-0.61-0.821-1.085-1.153-1.916-1.204 c-0.238-0.015-0.456-0.006-0.672,0.027c-0.89,0.149-1.291,0.694-2.154,2.05c-1.258,1.977-3.026,4.754-8.061,4.754 c-4.361,0-7.544-3.884-8.325-7.538C4.201,27.409,4.865,24.231,6.718,21.941z"/><path fill="#dcebf2" d="M34.332,20.076c2.379,0,4.45,0.99,5.86,2.739c1.596,1.98,2.189,4.737,1.582,7.579 c-0.685,3.212-3.426,6.532-7.081,6.532c-4.419,0-5.842-2.411-7.102-4.329c-0.95-1.451-1.719-2.525-3.644-2.525 c-1.939,0-2.695,1.071-3.627,2.517c-1.242,1.921-2.637,4.337-7.1,4.337c-3.655,0-6.396-3.32-7.081-6.532 c-0.732-3.426,0.388-6.654,2.786-8.217c1.132-1.355,3.335-2.101,5.707-2.101c0.484,0,4.979,0,4.979,0h3.547 C23.156,20.076,34.263,20.076,34.332,20.076 M6.727,21.949c1.612-1.991,3.956-3.1,6.611-3.128 c0.036-0.002,0.39-0.002,0.426-0.002h8.827h2.753h8.683l0,0c0.034,0,0.372,0.001,0.405,0.002 c2.696,0.027,5.083,1.158,6.729,3.193c1.855,2.292,2.527,5.443,1.844,8.645c-0.78,3.649-3.958,7.528-8.313,7.528 c-4.771,0-6.595-2.546-7.877-4.482c-0.299-0.453-0.552-0.838-0.793-1.157c-0.608-0.816-1.085-1.146-1.924-1.194 c-0.239-0.014-0.458-0.005-0.673,0.029c-0.891,0.152-1.295,0.703-2.155,2.055c-1.258,1.976-3.022,4.749-8.051,4.749 c-4.355,0-7.534-3.879-8.313-7.528C4.213,27.41,4.877,24.236,6.727,21.949z"/><path fill="#ddecf3" d="M34.332,20.065c2.381,0,4.456,0.991,5.869,2.742c1.599,1.984,2.192,4.745,1.584,7.589 c-0.686,3.214-3.429,6.542-7.093,6.542c-4.419,0-5.848-2.407-7.105-4.324c-0.952-1.454-1.717-2.53-3.641-2.53 c-1.937,0-2.69,1.072-3.624,2.521c-1.24,1.919-2.641,4.333-7.103,4.333c-3.663,0-6.407-3.328-7.093-6.541 C5.401,27,6.49,23.794,8.843,22.203c1.15-1.379,3.346-2.138,5.718-2.138c0.455,0,4.996,0,4.996,0h3.559 C23.116,20.065,34.267,20.065,34.332,20.065 M6.737,21.956c1.611-1.99,3.954-3.097,6.608-3.124 c0.034-0.002,0.391-0.002,0.426-0.002h8.823h2.751h8.678l0,0c0.032,0,0.373,0.001,0.405,0.002 c2.695,0.025,5.081,1.155,6.726,3.188c1.853,2.29,2.524,5.437,1.842,8.635c-0.779,3.645-3.953,7.519-8.302,7.519 c-4.777,0-6.596-2.554-7.877-4.491c-0.3-0.454-0.553-0.839-0.794-1.158c-0.606-0.81-1.086-1.14-1.932-1.185 c-0.24-0.013-0.459-0.003-0.673,0.032c-0.891,0.154-1.298,0.712-2.156,2.059c-1.257,1.975-3.019,4.743-8.041,4.743 c-4.349,0-7.523-3.874-8.302-7.519C4.225,27.411,4.888,24.24,6.737,21.956z"/><path fill="#deecf3" d="M34.332,20.053c2.383,0,4.461,0.991,5.877,2.746c1.603,1.987,2.196,4.753,1.587,7.6 c-0.686,3.216-3.432,6.551-7.104,6.551c-4.418,0-5.853-2.404-7.109-4.32c-0.953-1.458-1.714-2.534-3.638-2.534 c-1.936,0-2.685,1.073-3.62,2.526c-1.238,1.918-2.645,4.328-7.107,4.328c-3.672,0-6.418-3.335-7.104-6.551 c-0.719-3.368,0.338-6.551,2.647-8.17c1.167-1.403,3.357-2.176,5.729-2.176c0.427,0,5.014,0,5.014,0h3.571 C23.077,20.053,34.271,20.053,34.332,20.053 M6.746,21.963c1.61-1.989,3.952-3.095,6.605-3.12 c0.032-0.001,0.393-0.002,0.425-0.002h8.818h2.749h8.674l0,0c0.03,0,0.375,0.001,0.404,0.002 c2.694,0.023,5.079,1.152,6.722,3.184c1.85,2.287,2.521,5.43,1.839,8.625c-0.778,3.64-3.948,7.509-8.29,7.509 c-4.783,0-6.597-2.562-7.877-4.501c-0.3-0.455-0.554-0.841-0.796-1.159c-0.604-0.805-1.086-1.133-1.939-1.175 c-0.241-0.012-0.46-0.002-0.673,0.034c-0.891,0.157-1.302,0.721-2.156,2.064c-1.257,1.975-3.015,4.738-8.031,4.738 c-4.343,0-7.513-3.869-8.29-7.51C4.238,27.412,4.9,24.245,6.746,21.963z"/><path fill="#dfedf4" d="M34.332,20.041c2.385,0,4.467,0.991,5.886,2.75c1.606,1.991,2.199,4.761,1.59,7.61 c-0.687,3.218-3.435,6.56-7.116,6.56c-4.417,0-5.858-2.401-7.112-4.315c-0.955-1.461-1.712-2.539-3.634-2.539 c-1.935,0-2.68,1.074-3.617,2.53c-1.236,1.917-2.65,4.323-7.11,4.323c-3.68,0-6.429-3.343-7.116-6.56 c-0.713-3.339,0.313-6.5,2.578-8.147c1.185-1.427,3.368-2.213,5.74-2.213c0.399,0,5.031,0,5.031,0h3.584 C23.037,20.041,34.275,20.041,34.332,20.041 M6.755,21.971c1.609-1.988,3.95-3.092,6.603-3.116 c0.03-0.001,0.394-0.002,0.424-0.002h8.813h2.747h8.669l0,0c0.028,0,0.376,0.001,0.404,0.002c2.693,0.022,5.076,1.149,6.719,3.18 c1.848,2.284,2.518,5.424,1.837,8.615c-0.777,3.636-3.942,7.5-8.279,7.5c-4.789,0-6.598-2.57-7.878-4.511 c-0.301-0.457-0.554-0.842-0.797-1.16c-0.601-0.799-1.086-1.126-1.947-1.166c-0.242-0.011-0.461,0-0.674,0.036 c-0.892,0.16-1.305,0.73-2.157,2.068c-1.256,1.974-3.012,4.732-8.021,4.732c-4.336,0-7.502-3.864-8.279-7.5 C4.25,27.413,4.911,24.25,6.755,21.971z"/><path fill="#e0eef5" d="M34.332,20.029c2.387,0,4.473,0.991,5.895,2.754c1.609,1.995,2.203,4.769,1.593,7.62 c-0.687,3.22-3.438,6.57-7.127,6.57c-4.416,0-5.864-2.398-7.115-4.311c-0.956-1.465-1.71-2.543-3.631-2.543 c-1.934,0-2.675,1.075-3.614,2.535c-1.234,1.915-2.654,4.319-7.113,4.319c-3.689,0-6.44-3.35-7.127-6.569 c-0.707-3.31,0.287-6.449,2.508-8.124c1.202-1.451,3.379-2.251,5.752-2.251c0.37,0,5.049,0,5.049,0h3.596 C22.997,20.029,34.279,20.029,34.332,20.029 M6.764,21.978c1.608-1.987,3.949-3.09,6.6-3.112 c0.028-0.001,0.395-0.002,0.423-0.002h8.809h2.746h8.664l0,0c0.026,0,0.378,0.001,0.403,0.002 c2.692,0.02,5.074,1.146,6.716,3.176c1.846,2.281,2.514,5.418,1.835,8.605c-0.776,3.631-3.937,7.491-8.267,7.491 c-4.795,0-6.599-2.578-7.878-4.52c-0.301-0.458-0.555-0.844-0.798-1.162c-0.599-0.794-1.086-1.119-1.955-1.156 c-0.243-0.01-0.462,0.002-0.674,0.038c-0.892,0.163-1.309,0.739-2.158,2.073c-1.256,1.973-3.008,4.727-8.011,4.727 c-4.33,0-7.492-3.86-8.267-7.491C4.262,27.414,4.922,24.254,6.764,21.978z"/><path fill="#e1eff6" d="M34.332,20.018c2.389,0,4.478,0.992,5.904,2.757c1.613,1.998,2.206,4.776,1.596,7.631 c-0.687,3.221-3.441,6.579-7.139,6.579c-4.416,0-5.869-2.395-7.119-4.306c-0.958-1.468-1.708-2.548-3.628-2.548 c-1.933,0-2.67,1.076-3.61,2.54c-1.232,1.914-2.658,4.314-7.117,4.314c-3.697,0-6.451-3.358-7.139-6.579 c-0.701-3.281,0.262-6.398,2.439-8.1c1.219-1.476,3.39-2.288,5.763-2.288c0.342,0,5.066,0,5.066,0h3.609 C22.958,20.018,34.283,20.018,34.332,20.018 M6.773,21.986C8.38,20,10.72,18.898,13.37,18.878 c0.025-0.001,0.397-0.002,0.423-0.002h8.804h2.744H34l0,0c0.024,0,0.379,0,0.403,0.001c2.69,0.019,5.072,1.143,6.713,3.171 c1.844,2.279,2.511,5.411,1.832,8.595c-0.775,3.627-3.932,7.481-8.256,7.481c-4.802,0-6.6-2.587-7.878-4.53 c-0.302-0.459-0.556-0.846-0.799-1.163c-0.597-0.788-1.087-1.112-1.963-1.147c-0.244-0.01-0.464,0.003-0.675,0.04 c-0.893,0.165-1.312,0.748-2.158,2.078c-1.255,1.973-3.005,4.722-8.001,4.722c-4.324,0-7.481-3.855-8.256-7.482 C4.274,27.415,4.934,24.259,6.773,21.986z"/><path fill="#e2f0f7" d="M34.332,20.006c2.391,0,4.484,0.992,5.912,2.761c1.616,2.002,2.209,4.784,1.598,7.641 c-0.688,3.223-3.444,6.588-7.15,6.588c-4.415,0-5.874-2.392-7.122-4.302c-0.96-1.472-1.706-2.552-3.624-2.552 c-1.931,0-2.665,1.077-3.607,2.544c-1.23,1.913-2.663,4.31-7.12,4.31c-3.706,0-6.462-3.365-7.15-6.588 c-0.695-3.252,0.237-6.346,2.37-8.077c1.237-1.5,3.401-2.326,5.774-2.326c0.313,0,5.083,0,5.083,0h3.621 C22.918,20.006,34.287,20.006,34.332,20.006 M6.782,21.993c1.606-1.984,3.945-3.085,6.595-3.103 c0.023-0.001,0.398-0.002,0.422-0.002h8.8h2.742h8.654l0,0c0.022,0,0.38,0,0.402,0.001c2.689,0.017,5.07,1.141,6.71,3.167 c1.841,2.276,2.508,5.405,1.83,8.585c-0.774,3.622-3.926,7.472-8.244,7.472c-4.808,0-6.601-2.595-7.878-4.539 c-0.302-0.461-0.557-0.847-0.8-1.164c-0.595-0.783-1.087-1.106-1.97-1.137c-0.244-0.009-0.465,0.005-0.675,0.042 c-0.893,0.168-1.315,0.757-2.159,2.082c-1.255,1.972-3.001,4.716-7.991,4.716c-4.318,0-7.47-3.85-8.244-7.472 C4.287,27.416,4.945,24.264,6.782,21.993z"/><path fill="#e3f1f7" d="M34.332,19.994c2.393,0,4.489,0.992,5.921,2.765c1.619,2.006,2.213,4.792,1.601,7.652 c-0.688,3.225-3.447,6.598-7.162,6.598c-4.414,0-5.88-2.389-7.125-4.297c-0.961-1.475-1.704-2.557-3.621-2.557 c-1.93,0-2.66,1.078-3.603,2.549c-1.228,1.911-2.667,4.305-7.124,4.305c-3.714,0-6.474-3.372-7.162-6.597 c-0.688-3.223,0.212-6.295,2.301-8.054c1.254-1.524,3.412-2.363,5.785-2.363c0.285,0,5.101,0,5.101,0h3.634 C22.878,19.994,34.291,19.994,34.332,19.994 M6.791,22c1.605-1.983,3.943-3.082,6.592-3.099c0.021-0.001,0.4-0.001,0.421-0.001 H22.6h2.741h8.65l0,0c0.02,0,0.382,0,0.402,0.001c2.688,0.016,5.068,1.138,6.706,3.163c1.839,2.273,2.505,5.399,1.828,8.576 c-0.774,3.618-3.921,7.463-8.233,7.463c-4.814,0-6.602-2.603-7.878-4.549c-0.303-0.462-0.557-0.849-0.801-1.165 c-0.593-0.777-1.087-1.099-1.978-1.128c-0.245-0.008-0.466,0.006-0.675,0.044c-0.894,0.171-1.319,0.766-2.159,2.087 c-1.255,1.971-2.998,4.711-7.981,4.711c-4.312,0-7.46-3.845-8.233-7.463C4.299,27.417,4.957,24.268,6.791,22z"/><path fill="#e4f1f8" d="M34.332,19.982c2.395,0,4.495,0.993,5.93,2.769c1.622,2.009,2.216,4.8,1.604,7.662 c-0.688,3.227-3.45,6.607-7.173,6.607c-4.413,0-5.885-2.386-7.129-4.293c-0.963-1.479-1.702-2.561-3.617-2.561 c-1.929,0-2.655,1.079-3.6,2.553c-1.226,1.91-2.671,4.3-7.127,4.3c-3.723,0-6.485-3.38-7.173-6.607 c-0.682-3.194,0.187-6.244,2.231-8.03c1.272-1.548,3.423-2.401,5.796-2.401c0.256,0,5.118,0,5.118,0h3.646 C22.838,19.982,34.295,19.982,34.332,19.982 M6.801,22.008c1.604-1.982,3.942-3.08,6.589-3.095 c0.019-0.001,0.401-0.001,0.42-0.001h8.791h2.739h8.645l0,0c0.018,0,0.383,0,0.401,0.001c2.687,0.014,5.066,1.135,6.703,3.159 c1.837,2.27,2.502,5.392,1.825,8.566c-0.773,3.613-3.916,7.453-8.221,7.453c-4.82,0-6.603-2.611-7.878-4.558 c-0.303-0.463-0.558-0.85-0.802-1.166c-0.591-0.771-1.088-1.092-1.986-1.118c-0.246-0.007-0.467,0.008-0.676,0.046 c-0.894,0.173-1.322,0.775-2.16,2.091c-1.254,1.971-2.994,4.705-7.971,4.705c-4.305,0-7.449-3.84-8.221-7.454 C4.311,27.418,4.968,24.273,6.801,22.008z"/><path fill="#e5f2f9" d="M34.332,19.971c2.397,0,4.5,0.993,5.938,2.772c1.626,2.013,2.22,4.808,1.607,7.673 c-0.689,3.229-3.453,6.616-7.185,6.616c-4.413,0-5.89-2.383-7.132-4.288c-0.964-1.482-1.7-2.566-3.614-2.566 c-1.928,0-2.65,1.08-3.597,2.558c-1.224,1.908-2.675,4.296-7.13,4.296c-3.731,0-6.496-3.387-7.185-6.616 c-0.676-3.165,0.161-6.193,2.162-8.007c1.289-1.572,3.434-2.438,5.808-2.438c0.228,0,5.136,0,5.136,0h3.659 C22.799,19.971,34.299,19.971,34.332,19.971 M6.81,22.015c1.603-1.981,3.94-3.077,6.586-3.09c0.017-0.001,0.402-0.001,0.42-0.001 h8.786h2.737h8.64l0,0c0.016,0,0.385,0,0.401,0.001c2.686,0.013,5.064,1.132,6.7,3.154c1.835,2.267,2.499,5.386,1.823,8.556 c-0.772,3.609-3.911,7.444-8.21,7.444c-4.826,0-6.604-2.619-7.878-4.568c-0.304-0.464-0.559-0.852-0.803-1.168 c-0.589-0.766-1.088-1.085-1.993-1.109c-0.247-0.006-0.468,0.009-0.676,0.049c-0.894,0.176-1.326,0.783-2.161,2.096 c-1.254,1.97-2.991,4.7-7.961,4.7c-4.299,0-7.439-3.836-8.21-7.445C4.323,27.419,4.979,24.277,6.81,22.015z"/><path fill="#e6f3fa" d="M34.332,19.959c2.399,0,4.506,0.993,5.947,2.776c1.629,2.017,2.223,4.815,1.61,7.683 c-0.689,3.231-3.456,6.626-7.196,6.626c-4.412,0-5.896-2.379-7.136-4.284c-0.966-1.486-1.698-2.57-3.611-2.57 c-1.927,0-2.646,1.081-3.593,2.563c-1.222,1.907-2.68,4.291-7.134,4.291c-3.74,0-6.507-3.395-7.196-6.625 c-0.67-3.136,0.136-6.142,2.093-7.984c1.307-1.597,3.445-2.476,5.819-2.476c0.199,0,5.153,0,5.153,0h3.671 C22.759,19.959,34.303,19.959,34.332,19.959 M6.819,22.023c1.602-1.979,3.938-3.074,6.584-3.086 c0.015-0.001,0.404-0.001,0.419-0.001h8.781h2.735h8.635l0,0c0.014,0,0.386,0,0.4,0.001c2.685,0.011,5.061,1.129,6.697,3.15 c1.832,2.265,2.496,5.38,1.82,8.546c-0.771,3.604-3.905,7.435-8.198,7.435c-4.832,0-6.605-2.627-7.879-4.577 c-0.304-0.466-0.56-0.854-0.804-1.169c-0.586-0.76-1.088-1.079-2.001-1.099c-0.248-0.006-0.47,0.011-0.677,0.051 c-0.895,0.179-1.329,0.792-2.161,2.1c-1.253,1.969-2.987,4.694-7.952,4.694c-4.293,0-7.428-3.831-8.198-7.435 C4.336,27.42,4.991,24.282,6.819,22.023z"/><path fill="#e7f4fa" d="M34.332,19.947c2.401,0,4.512,0.993,5.956,2.78c1.632,2.021,2.226,4.823,1.613,7.694 c-0.69,3.233-3.459,6.635-7.208,6.635c-4.411,0-5.901-2.376-7.139-4.279c-0.968-1.489-1.696-2.575-3.607-2.575 c-1.925,0-2.641,1.082-3.59,2.567c-1.22,1.906-2.684,4.287-7.137,4.287c-3.748,0-6.518-3.402-7.208-6.634 c-0.664-3.107,0.111-6.09,2.023-7.961c1.324-1.621,3.456-2.513,5.83-2.513c0.171,0,5.171,0,5.171,0h3.684 C22.719,19.947,34.307,19.947,34.332,19.947 M6.828,22.03c1.601-1.978,3.936-3.072,6.581-3.082 c0.013-0.001,0.405-0.001,0.418-0.001h8.777h2.734h8.63l0,0c0.012,0,0.388,0,0.4,0.001c2.683,0.009,5.059,1.126,6.694,3.146 c1.83,2.262,2.493,5.373,1.818,8.536c-0.77,3.6-3.9,7.426-8.187,7.426c-4.838,0-6.606-2.635-7.879-4.587 c-0.304-0.467-0.56-0.855-0.805-1.17c-0.584-0.755-1.089-1.072-2.009-1.09c-0.249-0.005-0.471,0.012-0.677,0.053 c-0.895,0.182-1.332,0.801-2.162,2.105c-1.253,1.969-2.984,4.689-7.942,4.689c-4.287,0-7.418-3.826-8.187-7.426 C4.348,27.422,5.002,24.287,6.828,22.03z"/><path fill="#e8f5fb" d="M34.332,19.935c2.402,0,4.517,0.994,5.964,2.784c1.636,2.024,2.23,4.831,1.615,7.704 c-0.69,3.234-3.462,6.644-7.219,6.644c-4.41,0-5.906-2.373-7.142-4.275c-0.969-1.493-1.694-2.579-3.604-2.579 c-1.924,0-2.636,1.083-3.586,2.572c-1.218,1.904-2.688,4.282-7.141,4.282c-3.757,0-6.529-3.41-7.219-6.644 c-0.657-3.078,0.086-6.039,1.954-7.937c1.341-1.645,3.467-2.551,5.841-2.551c0.142,0,5.188,0,5.188,0h3.696 C22.68,19.935,34.311,19.935,34.332,19.935 M6.837,22.037c1.6-1.977,3.935-3.069,6.578-3.078c0.011,0,0.407-0.001,0.417-0.001 h8.772h2.732h8.626l0,0c0.01,0,0.389,0,0.399,0.001c2.682,0.008,5.057,1.123,6.69,3.142c1.828,2.259,2.49,5.367,1.816,8.526 c-0.769,3.595-3.895,7.416-8.175,7.416c-4.844,0-6.607-2.644-7.879-4.597c-0.305-0.468-0.561-0.857-0.807-1.171 c-0.582-0.749-1.089-1.065-2.016-1.08c-0.25-0.004-0.472,0.014-0.677,0.055c-0.896,0.184-1.336,0.81-2.163,2.109 c-1.253,1.968-2.98,4.683-7.932,4.683c-4.281,0-7.407-3.821-8.175-7.417C4.36,27.423,5.013,24.291,6.837,22.037z"/><path fill="#e9f6fc" d="M34.332,19.924c2.404,0,4.523,0.994,5.973,2.787c1.639,2.028,2.233,4.839,1.618,7.714 c-0.69,3.236-3.465,6.653-7.231,6.653c-4.41,0-5.912-2.37-7.146-4.27c-0.971-1.496-1.692-2.584-3.601-2.584 c-1.923,0-2.631,1.084-3.583,2.577c-1.216,1.903-2.693,4.277-7.144,4.277c-3.765,0-6.54-3.417-7.231-6.653 c-0.651-3.049,0.061-5.988,1.885-7.914c1.359-1.669,3.479-2.588,5.852-2.588c0.114,0,5.205,0,5.205,0h3.709 C22.64,19.924,34.315,19.924,34.332,19.924 M6.846,22.045c1.599-1.976,3.933-3.067,6.575-3.074c0.008,0,0.408-0.001,0.417-0.001 h8.768h2.73h8.621l0,0c0.008,0,0.391,0,0.399,0c2.681,0.006,5.055,1.12,6.687,3.137c1.826,2.256,2.487,5.36,1.813,8.517 c-0.768,3.591-3.889,7.407-8.164,7.407c-4.85,0-6.608-2.652-7.879-4.606c-0.305-0.47-0.562-0.858-0.808-1.172 c-0.58-0.744-1.089-1.059-2.024-1.071c-0.251-0.003-0.473,0.015-0.678,0.057c-0.896,0.187-1.339,0.819-2.163,2.114 c-1.252,1.967-2.977,4.678-7.922,4.678c-4.274,0-7.397-3.816-8.164-7.407C4.372,27.424,5.025,24.296,6.846,22.045z"/><path fill="#eaf6fd" d="M34.332,19.912c2.406,0,4.528,0.994,5.982,2.791c1.642,2.032,2.237,4.847,1.621,7.725 c-0.691,3.238-3.468,6.663-7.242,6.663c-4.409,0-5.917-2.367-7.149-4.266c-0.972-1.5-1.69-2.588-3.597-2.588 c-1.922,0-2.626,1.085-3.58,2.581c-1.214,1.902-2.697,4.273-7.147,4.273c-3.774,0-6.551-3.425-7.242-6.662 c-0.645-3.02,0.035-5.937,1.816-7.891c1.376-1.693,3.49-2.626,5.863-2.626c0.085,0,5.223,0,5.223,0H22.6 C22.6,19.912,34.32,19.912,34.332,19.912 M6.855,22.052c1.598-1.975,3.931-3.064,6.573-3.069c0.006,0,0.41,0,0.416,0h8.763h2.729 h8.616l0,0c0.006,0,0.392,0,0.398,0c2.68,0.005,5.053,1.117,6.684,3.133c1.823,2.254,2.483,5.354,1.811,8.507 c-0.767,3.586-3.884,7.398-8.152,7.398c-4.856,0-6.608-2.66-7.879-4.616c-0.306-0.471-0.562-0.86-0.809-1.174 c-0.578-0.738-1.09-1.052-2.032-1.061c-0.252-0.002-0.474,0.017-0.678,0.059c-0.897,0.19-1.343,0.828-2.164,2.119 c-1.252,1.967-2.974,4.672-7.912,4.672c-4.268,0-7.386-3.812-8.152-7.398C4.385,27.425,5.036,24.301,6.855,22.052z"/><path fill="#ebf7fd" d="M34.332,19.9c2.408,0,4.534,0.995,5.99,2.795c1.646,2.035,2.24,4.854,1.624,7.735 c-0.691,3.24-3.471,6.672-7.254,6.672c-4.408,0-5.922-2.364-7.152-4.261c-0.974-1.503-1.687-2.593-3.594-2.593 c-1.921,0-2.621,1.087-3.576,2.586c-1.212,1.9-2.701,4.268-7.151,4.268c-3.782,0-6.562-3.432-7.254-6.672 c-0.639-2.991,0.01-5.886,1.746-7.867c1.394-1.717,3.501-2.663,5.875-2.663c0.057,0,5.24,0,5.24,0h3.734 C22.56,19.9,34.324,19.9,34.332,19.9 M6.865,22.06c1.597-1.973,3.929-3.062,6.57-3.065c0.004,0,0.411,0,0.415,0h8.758h2.727 h8.611l0,0c0.004,0,0.394,0,0.398,0c2.679,0.003,5.051,1.114,6.681,3.129c1.821,2.251,2.48,5.348,1.809,8.497 c-0.766,3.581-3.879,7.388-8.141,7.388c-4.862,0-6.609-2.668-7.879-4.625c-0.306-0.472-0.563-0.861-0.81-1.175 c-0.576-0.733-1.09-1.047-2.039-1.051c-0.253-0.002-0.476,0.018-0.678,0.061c-0.897,0.192-1.346,0.837-2.164,2.123 c-1.251,1.966-2.97,4.667-7.902,4.667c-4.262,0-7.376-3.807-8.141-7.389C4.397,27.426,5.048,24.305,6.865,22.06z"/><path fill="#ecf8fe" d="M34.332,19.888c2.41,0,4.539,0.995,5.999,2.799c1.649,2.039,2.243,4.862,1.627,7.746 c-0.692,3.242-3.474,6.681-7.265,6.681c-4.407,0-5.928-2.361-7.156-4.257c-0.975-1.507-1.685-2.597-3.59-2.597 c-1.919,0-2.616,1.088-3.573,2.59c-1.21,1.899-2.706,4.264-7.154,4.264c-3.791,0-6.574-3.44-7.265-6.681 c-0.633-2.962-0.015-5.834,1.677-7.844c1.411-1.742,3.512-2.701,5.886-2.701c0.028,0,5.258,0,5.258,0h3.746 C22.521,19.888,34.328,19.888,34.332,19.888 M6.874,22.067c1.596-1.972,3.928-3.059,6.567-3.061c0.002,0,0.412,0,0.414,0h8.754 h2.725h8.606l0,0c0.002,0,0.395,0,0.397,0c2.677,0.002,5.049,1.111,6.678,3.125c1.819,2.248,2.477,5.341,1.806,8.487 c-0.765,3.577-3.873,7.379-8.129,7.379c-4.868,0-6.61-2.676-7.879-4.635c-0.307-0.474-0.564-0.863-0.811-1.176 c-0.574-0.727-1.09-1.04-2.047-1.042c-0.254-0.001-0.477,0.02-0.679,0.063c-0.898,0.195-1.35,0.846-2.165,2.128 c-1.251,1.965-2.967,4.661-7.892,4.661c-4.256,0-7.365-3.802-8.129-7.379C4.409,27.427,5.059,24.31,6.874,22.067z"/><path fill="#edf9ff" d="M23.946,30.272c1.904,0,2.61,1.091,3.587,2.602c1.226,1.895,2.753,4.252,7.159,4.252 c3.799,0,6.585-3.447,7.277-6.691c0.617-2.886,0.023-5.714-1.63-7.756c-1.463-1.807-3.596-2.803-6.008-2.803H13.447 c-2.374,0-4.469,0.972-5.897,2.738c-1.648,2.038-2.234,4.888-1.608,7.821c0.692,3.243,3.477,6.69,7.277,6.69 c4.448,0,5.95-2.361,7.157-4.259C21.335,31.361,22.028,30.272,23.946,30.272z M34.692,37.985c-4.874,0-6.611-2.684-7.88-4.644 c-1.017-1.572-1.485-2.21-2.867-2.21c-1.391,0-1.85,0.634-2.845,2.198c-1.25,1.965-2.963,4.656-7.882,4.656 c-4.25,0-7.355-3.797-8.118-7.37c-0.68-3.187-0.031-6.3,1.781-8.54c1.595-1.971,3.926-3.057,6.564-3.057h20.884 c2.676,0,5.046,1.108,6.674,3.12c1.817,2.245,2.474,5.335,1.804,8.477C42.046,34.188,38.942,37.985,34.692,37.985z"/><linearGradient id="pP5BsoBikAnEW1oMucu_Cd" x1="23.952" x2="23.952" y1="16.776" y2="39.58" gradientUnits="userSpaceOnUse"><stop offset=".215" stop-color="#e8f6ff"/><stop offset=".608" stop-color="#bce6ff"/><stop offset="1" stop-color="#8cd4ff"/></linearGradient><path fill="url(#pP5BsoBikAnEW1oMucu_Cd)" d="M34.332,20.735c-0.297,0-8.952,0-8.952,0h-2.848c0,0-8.787,0-9.084,0 c-4.866,0-7.744,4.471-6.666,9.521c0.664,3.109,3.259,6.011,6.437,6.011c7.331,0,5.506-6.854,10.727-6.854 c5.179,0,3.481,6.854,10.746,6.854c3.179,0,5.774-2.903,6.437-6.011C42.208,25.207,39.198,20.735,34.332,20.735z" opacity=".51"/><path fill="#b1cde0" d="M34.332,20.735c4.866,0,7.876,4.471,6.798,9.521c-0.664,3.109-3.259,6.011-6.437,6.011 c-7.265,0-5.567-6.854-10.746-6.854c-5.221,0-3.396,6.854-10.727,6.854c-3.179,0-5.774-2.903-6.437-6.011 c-1.078-5.05,1.8-9.521,6.666-9.521c0.297,0,9.084,0,9.084,0h2.848C25.38,20.735,34.035,20.735,34.332,20.735 M34.332,19.876 H25.38h-2.848h-9.084c-2.374,0-4.468,0.972-5.897,2.738c-1.648,2.038-2.235,4.888-1.609,7.821 c0.693,3.243,3.478,6.691,7.277,6.691c4.447,0,5.95-2.361,7.158-4.259c0.959-1.507,1.651-2.595,3.57-2.595 c1.904,0,2.61,1.091,3.587,2.602c1.226,1.894,2.752,4.252,7.159,4.252c3.799,0,6.585-3.447,7.277-6.691 c0.616-2.887,0.022-5.714-1.631-7.757C38.877,20.871,36.743,19.876,34.332,19.876L34.332,19.876z"/><linearGradient id="pP5BsoBikAnEW1oMucu_Ce" x1="23.954" x2="23.954" y1="19.794" y2="30.159" gradientUnits="userSpaceOnUse"><stop offset="0" stop-color="#fff"/><stop offset=".182" stop-color="#fbfeff" stop-opacity=".717"/><stop offset=".347" stop-color="#f0faff" stop-opacity=".461"/><stop offset=".504" stop-color="#def3ff" stop-opacity=".217"/><stop offset=".644" stop-color="#c7eaff" stop-opacity="0"/></linearGradient><path fill="url(#pP5BsoBikAnEW1oMucu_Ce)" d="M24.204,26.354c6.089,0,11.713,0.799,16.273,2.15c0.06-1.798-0.445-3.473-1.474-4.745 c-1.13-1.396-2.789-2.165-4.672-2.165H13.447c-1.845,0-3.465,0.746-4.562,2.101c-1.058,1.309-1.554,3.066-1.446,4.959 C12.084,27.213,17.895,26.354,24.204,26.354z"/></svg>