<svg xmlns="http://www.w3.org/2000/svg" viewBox="0 0 48 48"><linearGradient id="euSinEZHqqSUBd5EnfpGta" x1="22.113" x2="23.533" y1="25.307" y2="23.887" gradientUnits="userSpaceOnUse"><stop offset="0" stop-color="#cb9c23"/><stop offset=".216" stop-color="#ffda7a"/><stop offset=".367" stop-color="#ffda7a"/><stop offset=".694" stop-color="#ba8806"/><stop offset="1" stop-color="#d2a329"/></linearGradient><polygon fill="url(#euSinEZHqqSUBd5EnfpGta)" points="25.849,29.039 18.381,21.57 19.795,20.156 27.263,27.625"/><linearGradient id="euSinEZHqqSUBd5EnfpGtb" x1="18.579" x2="20" y1="21.774" y2="20.353" gradientUnits="userSpaceOnUse"><stop offset="0" stop-color="#a1780e"/><stop offset=".216" stop-color="#ebbb3d"/><stop offset=".367" stop-color="#ebbb3d"/><stop offset=".693" stop-color="#9c7105"/><stop offset="1" stop-color="#b88f24"/></linearGradient><polygon fill="url(#euSinEZHqqSUBd5EnfpGtb)" points="18.584,21.774 18.381,21.57 19.795,20.156 20.196,20.558"/><linearGradient id="euSinEZHqqSUBd5EnfpGtc" x1="18.88" x2="20.3" y1="28.54" y2="27.119" gradientUnits="userSpaceOnUse"><stop offset="0" stop-color="#cb9c23"/><stop offset=".216" stop-color="#ffda7a"/><stop offset=".367" stop-color="#ffda7a"/><stop offset=".694" stop-color="#ba8806"/><stop offset="1" stop-color="#d2a329"/></linearGradient><polygon fill="url(#euSinEZHqqSUBd5EnfpGtc)" points="22.616,32.272 15.148,24.803 16.562,23.389 24.03,30.858"/><linearGradient id="euSinEZHqqSUBd5EnfpGtd" x1="15.361" x2="16.782" y1="25.021" y2="23.601" gradientUnits="userSpaceOnUse"><stop offset="0" stop-color="#a1780e"/><stop offset=".216" stop-color="#ebbb3d"/><stop offset=".367" stop-color="#ebbb3d"/><stop offset=".693" stop-color="#9c7105"/><stop offset="1" stop-color="#b88f24"/></linearGradient><polygon fill="url(#euSinEZHqqSUBd5EnfpGtd)" points="15.333,24.988 15.148,24.803 16.562,23.389 16.993,23.82"/><linearGradient id="euSinEZHqqSUBd5EnfpGte" x1="15.723" x2="17.144" y1="31.696" y2="30.276" gradientUnits="userSpaceOnUse"><stop offset="0" stop-color="#cb9c23"/><stop offset=".216" stop-color="#ffda7a"/><stop offset=".367" stop-color="#ffda7a"/><stop offset=".694" stop-color="#ba8806"/><stop offset="1" stop-color="#d2a329"/></linearGradient><polygon fill="url(#euSinEZHqqSUBd5EnfpGte)" points="19.46,35.428 11.992,27.96 13.406,26.545 20.874,34.014"/><linearGradient id="euSinEZHqqSUBd5EnfpGtf" x1="12.168" x2="13.589" y1="28.141" y2="26.721" gradientUnits="userSpaceOnUse"><stop offset="0" stop-color="#a1780e"/><stop offset=".216" stop-color="#ebbb3d"/><stop offset=".367" stop-color="#ebbb3d"/><stop offset=".693" stop-color="#9c7105"/><stop offset="1" stop-color="#b88f24"/></linearGradient><polygon fill="url(#euSinEZHqqSUBd5EnfpGtf)" points="12.195,28.163 11.992,27.96 13.406,26.545 13.764,26.904"/><linearGradient id="euSinEZHqqSUBd5EnfpGtg" x1="23.635" x2="25.055" y1="26.829" y2="25.409" gradientUnits="userSpaceOnUse"><stop offset="0" stop-color="#a1780e"/><stop offset=".216" stop-color="#ebbb3d"/><stop offset=".367" stop-color="#ebbb3d"/><stop offset=".693" stop-color="#9c7105"/><stop offset="1" stop-color="#b88f24"/></linearGradient><polygon fill="url(#euSinEZHqqSUBd5EnfpGtg)" points="23.954,27.144 23.122,26.311 24.536,24.897 25.566,25.928"/><linearGradient id="euSinEZHqqSUBd5EnfpGth" x1="20.417" x2="21.837" y1="30.077" y2="28.656" gradientUnits="userSpaceOnUse"><stop offset="0" stop-color="#a1780e"/><stop offset=".216" stop-color="#ebbb3d"/><stop offset=".367" stop-color="#ebbb3d"/><stop offset=".693" stop-color="#9c7105"/><stop offset="1" stop-color="#b88f24"/></linearGradient><polygon fill="url(#euSinEZHqqSUBd5EnfpGth)" points="20.703,30.358 19.889,29.544 21.303,28.13 22.363,29.19"/><linearGradient id="euSinEZHqqSUBd5EnfpGti" x1="17.224" x2="18.644" y1="33.197" y2="31.776" gradientUnits="userSpaceOnUse"><stop offset="0" stop-color="#a1780e"/><stop offset=".216" stop-color="#ebbb3d"/><stop offset=".367" stop-color="#ebbb3d"/><stop offset=".693" stop-color="#9c7105"/><stop offset="1" stop-color="#b88f24"/></linearGradient><polygon fill="url(#euSinEZHqqSUBd5EnfpGti)" points="17.565,33.533 16.733,32.701 18.147,31.287 19.134,32.274"/><path fill="#ba8806" d="M29.524,20.112l-2.828-2.828C23.008,20.972,4.421,39.558,4.421,39.558l2.828,2.828 C7.25,42.386,25.846,23.79,29.524,20.112z"/><path fill="#bb8907" d="M29.512,20.1l-2.808-2.808C23.016,20.98,4.43,39.566,4.43,39.566l2.808,2.808 C7.238,42.374,25.833,23.778,29.512,20.1z"/><path fill="#bb8908" d="M29.499,20.088l-2.787-2.787C23.025,20.989,4.439,39.575,4.439,39.575l2.787,2.787 C7.225,42.362,25.821,23.766,29.499,20.088z"/><path fill="#bc8a09" d="M29.487,20.076l-2.766-2.766C23.034,20.997,4.447,39.584,4.447,39.584l2.766,2.766 C7.213,42.35,25.809,23.754,29.487,20.076z"/><path fill="#bc8b0a" d="M29.475,20.063l-2.745-2.745C23.042,21.006,4.456,39.592,4.456,39.592l2.745,2.745 C7.201,42.337,25.797,23.742,29.475,20.063z"/><path fill="#bd8c0b" d="M29.463,20.051l-2.724-2.724C23.051,21.015,4.465,39.601,4.465,39.601l2.724,2.724 C7.189,42.325,25.785,23.729,29.463,20.051z"/><path fill="#be8c0c" d="M29.45,20.039l-2.703-2.703C23.059,21.023,4.473,39.61,4.473,39.61l2.703,2.703 C7.176,42.313,25.772,23.717,29.45,20.039z"/><path fill="#be8d0d" d="M29.438,20.027l-2.682-2.682C23.068,21.032,4.482,39.618,4.482,39.618l2.682,2.682 C7.164,42.301,25.76,23.705,29.438,20.027z"/><path fill="#bf8e0e" d="M29.426,20.015l-2.662-2.662C23.077,21.041,4.49,39.627,4.49,39.627l2.662,2.662 C7.152,42.289,25.748,23.693,29.426,20.015z"/><path fill="#bf8e0f" d="M29.414,20.002l-2.641-2.641C23.085,21.049,4.499,39.636,4.499,39.636l2.641,2.641 C7.14,42.276,25.736,23.68,29.414,20.002z"/><path fill="#c08f10" d="M29.402,19.99l-2.62-2.62C23.094,21.058,4.508,39.644,4.508,39.644l2.62,2.62 C7.128,42.264,25.724,23.668,29.402,19.99z"/><path fill="#c09011" d="M29.389,19.978l-2.599-2.599C23.103,21.067,4.516,39.653,4.516,39.653l2.599,2.599 C7.115,42.252,25.711,23.656,29.389,19.978z"/><path fill="#c19012" d="M29.377,19.966l-2.578-2.578C23.111,21.075,4.525,39.662,4.525,39.662l2.578,2.578 C7.103,42.24,25.699,23.644,29.377,19.966z"/><path fill="#c29113" d="M29.365,19.954l-2.557-2.557C23.12,21.084,4.534,39.67,4.534,39.67l2.557,2.557 C7.091,42.228,25.687,23.632,29.365,19.954z"/><path fill="#c29214" d="M29.353,19.941l-2.536-2.536C23.129,21.093,4.542,39.679,4.542,39.679l2.536,2.536 C7.079,42.215,25.675,23.619,29.353,19.941z"/><path fill="#c39315" d="M29.341,19.929l-2.516-2.516C23.137,21.101,4.551,39.687,4.551,39.687l2.516,2.516 C7.067,42.203,25.662,23.607,29.341,19.929z"/><path fill="#c39316" d="M29.328,19.917l-2.495-2.495C23.146,21.11,4.56,39.696,4.56,39.696l2.495,2.495 C7.054,42.191,25.65,23.595,29.328,19.917z"/><path fill="#c49417" d="M29.316,19.905l-2.474-2.474C23.155,21.118,4.568,39.705,4.568,39.705l2.474,2.474 C7.042,42.179,25.638,23.583,29.316,19.905z"/><path fill="#c59518" d="M29.304,19.892l-2.453-2.453C23.163,21.127,4.577,39.713,4.577,39.713l2.453,2.453 C7.03,42.166,25.626,23.571,29.304,19.892z"/><path fill="#c59519" d="M29.292,19.88l-2.432-2.432C23.172,21.136,4.586,39.722,4.586,39.722l2.432,2.432 C7.018,42.154,25.614,23.558,29.292,19.88z"/><path fill="#c6961a" d="M29.28,19.868l-2.411-2.411C23.181,21.144,4.594,39.731,4.594,39.731l2.411,2.411 C7.006,42.142,25.601,23.546,29.28,19.868z"/><path fill="#c6971b" d="M29.267,19.856l-2.391-2.391C23.189,21.153,4.603,39.739,4.603,39.739l2.391,2.391 C6.993,42.13,25.589,23.534,29.267,19.856z"/><path fill="#c7971c" d="M29.255,19.844l-2.37-2.37C23.198,21.162,4.611,39.748,4.611,39.748l2.37,2.37 C6.981,42.118,25.577,23.522,29.255,19.844z"/><path fill="#c8981d" d="M29.243,19.831l-2.349-2.349C23.206,21.17,4.62,39.757,4.62,39.757l2.349,2.349 C6.969,42.105,25.565,23.51,29.243,19.831z"/><path fill="#c8991e" d="M29.231,19.819l-2.328-2.328C23.215,21.179,4.629,39.765,4.629,39.765l2.328,2.328 C6.957,42.093,25.553,23.497,29.231,19.819z"/><path fill="#c99a1f" d="M29.219,19.807L26.911,17.5C23.224,21.188,4.637,39.774,4.637,39.774l2.307,2.307 C6.944,42.081,25.54,23.485,29.219,19.807z"/><path fill="#c99a20" d="M29.206,19.795l-2.286-2.286C23.232,21.196,4.646,39.783,4.646,39.783l2.286,2.286 C6.932,42.069,25.528,23.473,29.206,19.795z"/><path fill="#ca9b21" d="M29.194,19.783l-2.265-2.265C23.241,21.205,4.655,39.791,4.655,39.791l2.265,2.265 C6.92,42.057,25.516,23.461,29.194,19.783z"/><path fill="#cb9c22" d="M29.182,19.77l-2.245-2.245C23.25,21.214,4.663,39.8,4.663,39.8l2.245,2.245 C6.908,42.044,25.504,23.448,29.182,19.77z"/><path fill="#cb9c23" d="M29.17,19.758l-2.224-2.224C23.258,21.222,4.672,39.809,4.672,39.809l2.224,2.224 C6.896,42.032,25.492,23.436,29.17,19.758z"/><path fill="#cc9d24" d="M29.157,19.746l-2.203-2.203C23.267,21.231,4.681,39.817,4.681,39.817l2.203,2.203 C6.883,42.02,25.479,23.424,29.157,19.746z"/><path fill="#cc9e25" d="M29.145,19.734l-2.182-2.182C23.276,21.239,4.689,39.826,4.689,39.826l2.182,2.182 C6.871,42.008,25.467,23.412,29.145,19.734z"/><path fill="#cd9e26" d="M29.133,19.722l-2.161-2.161C23.284,21.248,4.698,39.834,4.698,39.834l2.161,2.161 C6.859,41.996,25.455,23.4,29.133,19.722z"/><path fill="#cd9f27" d="M29.121,19.709l-2.14-2.14C23.293,21.257,4.707,39.843,4.707,39.843l2.14,2.14 C6.847,41.983,25.443,23.387,29.121,19.709z"/><path fill="#cea028" d="M29.109,19.697l-2.119-2.119C23.302,21.265,4.715,39.852,4.715,39.852l2.119,2.119 C6.835,41.971,25.431,23.375,29.109,19.697z"/><path fill="#cfa129" d="M29.096,19.685l-2.099-2.099C23.31,21.274,4.724,39.86,4.724,39.86l2.099,2.099 C6.822,41.959,25.418,23.363,29.096,19.685z"/><path fill="#cfa12a" d="M29.084,19.673l-2.078-2.078C23.319,21.283,4.732,39.869,4.732,39.869l2.078,2.078 C6.81,41.947,25.406,23.351,29.084,19.673z"/><path fill="#d0a22b" d="M29.072,19.661l-2.057-2.057C23.327,21.291,4.741,39.878,4.741,39.878l2.057,2.057 C6.798,41.935,25.394,23.339,29.072,19.661z"/><path fill="#d0a32c" d="M29.06,19.648l-2.036-2.036C23.336,21.3,4.75,39.886,4.75,39.886l2.036,2.036 C6.786,41.922,25.382,23.326,29.06,19.648z"/><path fill="#d1a32d" d="M29.048,19.636l-2.015-2.015C23.345,21.309,4.758,39.895,4.758,39.895l2.015,2.015 C6.774,41.91,25.369,23.314,29.048,19.636z"/><path fill="#d2a42e" d="M29.035,19.624l-1.994-1.994C23.353,21.317,4.767,39.904,4.767,39.904l1.994,1.994 C6.761,41.898,25.357,23.302,29.035,19.624z"/><path fill="#d2a52f" d="M29.023,19.612l-1.973-1.973C23.362,21.326,4.776,39.912,4.776,39.912l1.973,1.973 C6.749,41.886,25.345,23.29,29.023,19.612z"/><path fill="#d3a530" d="M29.011,19.599l-1.953-1.953C23.371,21.335,4.784,39.921,4.784,39.921l1.953,1.953 C6.737,41.873,25.333,23.278,29.011,19.599z"/><path fill="#d3a631" d="M28.999,19.587l-1.932-1.932C23.379,21.343,4.793,39.93,4.793,39.93l1.932,1.932 C6.725,41.861,25.321,23.265,28.999,19.587z"/><path fill="#d4a732" d="M28.987,19.575l-1.911-1.911C23.388,21.352,4.802,39.938,4.802,39.938l1.911,1.911 C6.713,41.849,25.308,23.253,28.987,19.575z"/><path fill="#d5a833" d="M28.974,19.563l-1.89-1.89C23.397,21.361,4.81,39.947,4.81,39.947l1.89,1.89 C6.7,41.837,25.296,23.241,28.974,19.563z"/><path fill="#d5a834" d="M28.962,19.551l-1.869-1.869C23.405,21.369,4.819,39.955,4.819,39.955l1.869,1.869 C6.688,41.825,25.284,23.229,28.962,19.551z"/><path fill="#d6a935" d="M28.95,19.538l-1.848-1.848C23.414,21.378,4.828,39.964,4.828,39.964l1.848,1.848 C6.676,41.812,25.272,23.217,28.95,19.538z"/><path fill="#d6aa36" d="M28.938,19.526l-1.827-1.827C23.423,21.386,4.836,39.973,4.836,39.973L6.664,41.8 C6.664,41.8,25.26,23.204,28.938,19.526z"/><path fill="#d7aa37" d="M28.925,19.514l-1.807-1.807C23.431,21.395,4.845,39.981,4.845,39.981l1.807,1.807 C6.651,41.788,25.247,23.192,28.925,19.514z"/><path fill="#d7ab38" d="M28.913,19.502l-1.786-1.786C23.44,21.404,4.854,39.99,4.854,39.99l1.786,1.786 C6.639,41.776,25.235,23.18,28.913,19.502z"/><path fill="#d8ac39" d="M28.901,19.49l-1.765-1.765C23.448,21.412,4.862,39.999,4.862,39.999l1.765,1.765 C6.627,41.764,25.223,23.168,28.901,19.49z"/><path fill="#d9ac3a" d="M28.889,19.477l-1.744-1.744C23.457,21.421,4.871,40.007,4.871,40.007l1.744,1.744 C6.615,41.751,25.211,23.155,28.889,19.477z"/><path fill="#d9ad3b" d="M28.877,19.465l-1.723-1.723C23.466,21.43,4.879,40.016,4.879,40.016l1.723,1.723 C6.603,41.739,25.199,23.143,28.877,19.465z"/><path fill="#daae3c" d="M28.864,19.453l-1.702-1.702C23.474,21.438,4.888,40.025,4.888,40.025l1.702,1.702 C6.59,41.727,25.186,23.131,28.864,19.453z"/><path fill="#daaf3d" d="M28.852,19.441l-1.681-1.681C23.483,21.447,4.897,40.033,4.897,40.033l1.681,1.681 C6.578,41.715,25.174,23.119,28.852,19.441z"/><path fill="#dbaf3e" d="M28.84,19.429l-1.661-1.661C23.492,21.456,4.905,40.042,4.905,40.042l1.661,1.661 C6.566,41.703,25.162,23.107,28.84,19.429z"/><path fill="#dcb03f" d="M28.828,19.416l-1.64-1.64C23.5,21.464,4.914,40.051,4.914,40.051l1.64,1.64 C6.554,41.69,25.15,23.094,28.828,19.416z"/><path fill="#dcb140" d="M28.816,19.404l-1.619-1.619C23.509,21.473,4.923,40.059,4.923,40.059l1.619,1.619 C6.542,41.678,25.137,23.082,28.816,19.404z"/><path fill="#ddb140" d="M28.803,19.392l-1.598-1.598C23.518,21.482,4.931,40.068,4.931,40.068l1.598,1.598 C6.529,41.666,25.125,23.07,28.803,19.392z"/><path fill="#ddb241" d="M28.791,19.38l-1.577-1.577C23.526,21.49,4.94,40.076,4.94,40.076l1.577,1.577 C6.517,41.654,25.113,23.058,28.791,19.38z"/><path fill="#deb342" d="M28.779,19.367l-1.556-1.556C23.535,21.499,4.949,40.085,4.949,40.085l1.556,1.556 C6.505,41.641,25.101,23.046,28.779,19.367z"/><path fill="#dfb343" d="M28.767,19.355l-1.536-1.536C23.544,21.507,4.957,40.094,4.957,40.094l1.536,1.536 C6.493,41.629,25.089,23.033,28.767,19.355z"/><path fill="#dfb444" d="M28.755,19.343l-1.515-1.515C23.552,21.516,4.966,40.102,4.966,40.102l1.515,1.515 C6.481,41.617,25.076,23.021,28.755,19.343z"/><path fill="#e0b545" d="M28.742,19.331l-1.494-1.494C23.561,21.525,4.975,40.111,4.975,40.111l1.494,1.494 C6.468,41.605,25.064,23.009,28.742,19.331z"/><path fill="#e0b646" d="M28.73,19.319l-1.473-1.473C23.569,21.533,4.983,40.12,4.983,40.12l1.473,1.473 C6.456,41.593,25.052,22.997,28.73,19.319z"/><path fill="#e1b647" d="M28.718,19.306l-1.452-1.452C23.578,21.542,4.992,40.128,4.992,40.128l1.452,1.452 C6.444,41.58,25.04,22.985,28.718,19.306z"/><path fill="#e2b748" d="M28.706,19.294l-1.431-1.431C23.587,21.551,5,40.137,5,40.137l1.431,1.431 C6.432,41.568,25.028,22.972,28.706,19.294z"/><path fill="#e2b849" d="M28.694,19.282l-1.41-1.41C23.595,21.559,5.009,40.146,5.009,40.146l1.41,1.41 C6.42,41.556,25.015,22.96,28.694,19.282z"/><path fill="#e3b84a" d="M28.681,19.27l-1.39-1.39C23.604,21.568,5.018,40.154,5.018,40.154l1.39,1.39 C6.407,41.544,25.003,22.948,28.681,19.27z"/><path fill="#e3b94b" d="M28.669,19.258L27.3,17.889C23.613,21.577,5.026,40.163,5.026,40.163l1.369,1.369 C6.395,41.532,24.991,22.936,28.669,19.258z"/><path fill="#e4ba4c" d="M28.657,19.245l-1.348-1.348C23.621,21.585,5.035,40.172,5.035,40.172l1.348,1.348 C6.383,41.519,24.979,22.924,28.657,19.245z"/><path fill="#e4ba4d" d="M28.645,19.233l-1.327-1.327C23.63,21.594,5.044,40.18,5.044,40.18l1.327,1.327 C6.371,41.507,24.967,22.911,28.645,19.233z"/><path fill="#e5bb4e" d="M28.632,19.221l-1.306-1.306C23.639,21.603,5.052,40.189,5.052,40.189l1.306,1.306 C6.358,41.495,24.954,22.899,28.632,19.221z"/><path fill="#e6bc4f" d="M28.62,19.209l-1.285-1.285C23.647,21.611,5.061,40.198,5.061,40.198l1.285,1.285 C6.346,41.483,24.942,22.887,28.62,19.209z"/><path fill="#e6bd50" d="M28.608,19.197l-1.264-1.264C23.656,21.62,5.07,40.206,5.07,40.206l1.264,1.264 C6.334,41.471,24.93,22.875,28.608,19.197z"/><path fill="#e7bd51" d="M28.596,19.184l-1.244-1.244C23.665,21.628,5.078,40.215,5.078,40.215l1.244,1.244 C6.322,41.458,24.918,22.862,28.596,19.184z"/><path fill="#e7be52" d="M28.584,19.172l-1.223-1.223C23.673,21.637,5.087,40.223,5.087,40.223l1.223,1.223 C6.31,41.446,24.906,22.85,28.584,19.172z"/><path fill="#e8bf53" d="M28.571,19.16l-1.202-1.202C23.682,21.646,5.096,40.232,5.096,40.232l1.202,1.202 C6.297,41.434,24.893,22.838,28.571,19.16z"/><path fill="#e9bf54" d="M28.559,19.148l-1.181-1.181C23.691,21.654,5.104,40.241,5.104,40.241l1.181,1.181 C6.285,41.422,24.881,22.826,28.559,19.148z"/><path fill="#e9c055" d="M28.547,19.136l-1.16-1.16C23.699,21.663,5.113,40.249,5.113,40.249l1.16,1.16 C6.273,41.41,24.869,22.814,28.547,19.136z"/><path fill="#eac156" d="M28.535,19.123l-1.139-1.139C23.708,21.672,5.121,40.258,5.121,40.258l1.139,1.139 C6.261,41.397,24.857,22.801,28.535,19.123z"/><path fill="#eac157" d="M28.523,19.111l-1.118-1.118C23.716,21.68,5.13,40.267,5.13,40.267l1.118,1.118 C6.249,41.385,24.844,22.789,28.523,19.111z"/><path fill="#ebc258" d="M28.51,19.099l-1.098-1.098C23.725,21.689,5.139,40.275,5.139,40.275l1.098,1.098 C6.236,41.373,24.832,22.777,28.51,19.099z"/><path fill="#ecc359" d="M28.498,19.087l-1.077-1.077C23.734,21.698,5.147,40.284,5.147,40.284l1.077,1.077 C6.224,41.361,24.82,22.765,28.498,19.087z"/><path fill="#ecc45a" d="M28.486,19.074l-1.056-1.056C23.742,21.706,5.156,40.293,5.156,40.293l1.056,1.056 C6.212,41.348,24.808,22.753,28.486,19.074z"/><path fill="#edc45b" d="M28.474,19.062l-1.035-1.035C23.751,21.715,5.165,40.301,5.165,40.301L6.2,41.336 C6.2,41.336,24.796,22.74,28.474,19.062z"/><path fill="#edc55c" d="M28.462,19.05l-1.014-1.014C23.76,21.724,5.173,40.31,5.173,40.31l1.014,1.014 C6.188,41.324,24.783,22.728,28.462,19.05z"/><path fill="#eec65d" d="M28.449,19.038l-0.993-0.993C23.768,21.732,5.182,40.319,5.182,40.319l0.993,0.993 C6.175,41.312,24.771,22.716,28.449,19.038z"/><path fill="#eec65e" d="M28.437,19.026l-0.972-0.972C23.777,21.741,5.191,40.327,5.191,40.327L6.163,41.3 C6.163,41.3,24.759,22.704,28.437,19.026z"/><path fill="#efc75f" d="M28.425,19.013l-0.952-0.952C23.786,21.749,5.199,40.336,5.199,40.336l0.952,0.952 C6.151,41.287,24.747,22.692,28.425,19.013z"/><path fill="#f0c860" d="M28.413,19.001l-0.931-0.931C23.794,21.758,5.208,40.344,5.208,40.344l0.931,0.931 C6.139,41.275,24.735,22.679,28.413,19.001z"/><path fill="#f0c861" d="M28.4,18.989l-0.91-0.91C23.803,21.767,5.217,40.353,5.217,40.353l0.91,0.91 C6.126,41.263,24.722,22.667,28.4,18.989z"/><path fill="#f1c962" d="M28.388,18.977l-0.889-0.889C23.812,21.775,5.225,40.362,5.225,40.362l0.889,0.889 C6.114,41.251,24.71,22.655,28.388,18.977z"/><path fill="#f1ca63" d="M28.376,18.965l-0.868-0.868C23.82,21.784,5.234,40.37,5.234,40.37l0.868,0.868 C6.102,41.239,24.698,22.643,28.376,18.965z"/><path fill="#f2cb64" d="M28.364,18.952l-0.847-0.847C23.829,21.793,5.243,40.379,5.243,40.379l0.847,0.847 C6.09,41.226,24.686,22.63,28.364,18.952z"/><path fill="#f3cb65" d="M28.352,18.94l-0.826-0.826C23.837,21.801,5.251,40.388,5.251,40.388l0.826,0.826 C6.078,41.214,24.674,22.618,28.352,18.94z"/><path fill="#f3cc66" d="M28.339,18.928l-0.806-0.806C23.846,21.81,5.26,40.396,5.26,40.396l0.806,0.806 C6.065,41.202,24.661,22.606,28.339,18.928z"/><path fill="#f4cd67" d="M28.327,18.916l-0.785-0.785C23.855,21.819,5.268,40.405,5.268,40.405l0.785,0.785 C6.053,41.19,24.649,22.594,28.327,18.916z"/><path fill="#f4cd68" d="M28.315,18.904l-0.764-0.764C23.863,21.827,5.277,40.414,5.277,40.414l0.764,0.764 C6.041,41.178,24.637,22.582,28.315,18.904z"/><path fill="#f5ce69" d="M28.303,18.891l-0.743-0.743C23.872,21.836,5.286,40.422,5.286,40.422l0.743,0.743 C6.029,41.165,24.625,22.569,28.303,18.891z"/><path fill="#f6cf6a" d="M28.291,18.879l-0.722-0.722C23.881,21.845,5.294,40.431,5.294,40.431l0.722,0.722 C6.017,41.153,24.613,22.557,28.291,18.879z"/><path fill="#f6cf6b" d="M28.278,18.867l-0.701-0.701C23.889,21.853,5.303,40.44,5.303,40.44l0.701,0.701 C6.004,41.141,24.6,22.545,28.278,18.867z"/><path fill="#f7d06c" d="M28.266,18.855l-0.681-0.681C23.898,21.862,5.312,40.448,5.312,40.448l0.681,0.681 C5.992,41.129,24.588,22.533,28.266,18.855z"/><path fill="#f7d16d" d="M28.254,18.842l-0.66-0.66C23.907,21.871,5.32,40.457,5.32,40.457l0.66,0.66 C5.98,41.117,24.576,22.521,28.254,18.842z"/><path fill="#f8d26e" d="M28.242,18.83l-0.639-0.639C23.915,21.879,5.329,40.465,5.329,40.465l0.639,0.639 C5.968,41.104,24.564,22.508,28.242,18.83z"/><path fill="#f9d26f" d="M28.23,18.818L27.612,18.2C23.924,21.888,5.338,40.474,5.338,40.474l0.618,0.618 C5.956,41.092,24.551,22.496,28.23,18.818z"/><path fill="#f9d370" d="M28.217,18.806l-0.597-0.597C23.933,21.896,5.346,40.483,5.346,40.483l0.597,0.597 C5.943,41.08,24.539,22.484,28.217,18.806z"/><path fill="#fad471" d="M28.205,18.794l-0.576-0.576C23.941,21.905,5.355,40.491,5.355,40.491l0.576,0.576 C5.931,41.068,24.527,22.472,28.205,18.794z"/><path fill="#fad472" d="M28.193,18.781l-0.555-0.555C23.95,21.914,5.364,40.5,5.364,40.5l0.555,0.555 C5.919,41.055,24.515,22.46,28.193,18.781z"/><path fill="#fbd573" d="M28.181,18.769l-0.535-0.535C23.958,21.922,5.372,40.509,5.372,40.509l0.535,0.535 C5.907,41.043,24.503,22.447,28.181,18.769z"/><path fill="#fbd674" d="M28.169,18.757l-0.514-0.514C23.967,21.931,5.381,40.517,5.381,40.517l0.514,0.514 C5.895,41.031,24.49,22.435,28.169,18.757z"/><path fill="#fcd675" d="M28.156,18.745l-0.493-0.493C23.976,21.94,5.389,40.526,5.389,40.526l0.493,0.493 C5.882,41.019,24.478,22.423,28.156,18.745z"/><path fill="#fdd776" d="M28.144,18.733l-0.472-0.472C23.984,21.948,5.398,40.535,5.398,40.535l0.472,0.472 C5.87,41.007,24.466,22.411,28.144,18.733z"/><path fill="#fdd877" d="M28.132,18.72l-0.451-0.451C23.993,21.957,5.407,40.543,5.407,40.543l0.451,0.451 C5.858,40.994,24.454,22.399,28.132,18.72z"/><path fill="#fed978" d="M28.12,18.708l-0.43-0.43C24.002,21.966,5.415,40.552,5.415,40.552l0.43,0.43 C5.846,40.982,24.442,22.386,28.12,18.708z"/><path fill="#fed979" d="M28.107,18.696l-0.409-0.409C24.01,21.974,5.424,40.561,5.424,40.561l0.409,0.409 C5.833,40.97,24.429,22.374,28.107,18.696z"/><path fill="#ffda7a" d="M28.095,18.684l-0.389-0.389C24.019,21.983,5.433,40.569,5.433,40.569l0.389,0.389 C5.821,40.958,24.417,22.362,28.095,18.684z"/><g><path fill="#ba8806" d="M32.51,23.49c-3.319-3.319-8.701-3.319-12.021,0l2.828,2.828c1.757-1.757,4.607-1.757,6.364,0 c1.757,1.757,1.757,4.607,0,6.364l-2.5,2.5l2.828,2.828l2.5-2.5C35.83,32.191,35.83,26.809,32.51,23.49z"/><path fill="#bb8907" d="M32.502,23.498c-3.318-3.318-8.69-3.314-12.004,0l2.807,2.807c1.772-1.772,4.631-1.757,6.389,0.001 c1.757,1.757,1.762,4.619-0.003,6.384l-2.5,2.5l2.808,2.808l2.5-2.5C35.804,32.192,35.82,26.816,32.502,23.498z"/><path fill="#bb8908" d="M32.493,23.507c-3.317-3.317-8.678-3.309-11.987,0l2.786,2.786c1.787-1.787,4.656-1.756,6.413,0.001 c1.757,1.757,1.767,4.632-0.007,6.405l-2.5,2.5l2.787,2.787l2.5-2.5C35.778,32.193,35.81,26.823,32.493,23.507z"/><path fill="#bc8a09" d="M32.485,23.515c-3.315-3.315-8.666-3.304-11.97,0l2.765,2.765c1.802-1.802,4.68-1.756,6.438,0.002 c1.757,1.757,1.771,4.644-0.01,6.425l-2.5,2.5l2.766,2.766l2.5-2.5C35.752,32.194,35.8,26.83,32.485,23.515z"/><path fill="#bc8b0a" d="M32.476,23.524c-3.314-3.314-8.654-3.299-11.952,0l2.744,2.744c1.817-1.817,4.705-1.755,6.462,0.002 c1.757,1.757,1.776,4.656-0.014,6.446l-2.5,2.5l2.745,2.745l2.5-2.5C35.727,32.195,35.79,26.837,32.476,23.524z"/><path fill="#bd8c0b" d="M32.468,23.532c-3.313-3.313-8.642-3.294-11.935,0l2.723,2.723c1.832-1.832,4.729-1.754,6.487,0.003 c1.757,1.757,1.78,4.669-0.017,6.467l-2.5,2.5l2.724,2.724l2.5-2.5C35.701,32.196,35.78,26.844,32.468,23.532z"/><path fill="#be8c0c" d="M32.459,23.541c-3.311-3.311-8.63-3.288-11.918,0l2.702,2.702c1.847-1.847,4.754-1.754,6.511,0.003 c1.757,1.757,1.785,4.681-0.021,6.487l-2.5,2.5l2.703,2.703l2.5-2.5C35.675,32.198,35.77,26.852,32.459,23.541z"/><path fill="#be8d0d" d="M32.451,23.549c-3.31-3.31-8.618-3.283-11.901,0l2.681,2.681c1.862-1.862,4.778-1.753,6.536,0.004 c1.757,1.757,1.79,4.694-0.024,6.508l-2.5,2.5l2.682,2.682l2.5-2.5C35.649,32.199,35.76,26.859,32.451,23.549z"/><path fill="#bf8e0e" d="M32.442,23.558c-3.309-3.309-8.606-3.278-11.884,0l2.66,2.66c1.877-1.877,4.803-1.753,6.56,0.005 c1.757,1.757,1.794,4.706-0.027,6.528l-2.5,2.5l2.661,2.661l2.5-2.5C35.623,32.2,35.75,26.866,32.442,23.558z"/><path fill="#bf8e0f" d="M32.434,23.566c-3.307-3.307-8.594-3.273-11.867,0l2.639,2.639c1.892-1.891,4.827-1.752,6.585,0.005 c1.757,1.757,1.799,4.719-0.031,6.549l-2.5,2.5l2.64,2.64l2.5-2.5C35.598,32.201,35.74,26.873,32.434,23.566z"/><path fill="#c08f10" d="M32.425,23.575c-3.306-3.306-8.582-3.268-11.85,0l2.618,2.618c1.906-1.906,4.852-1.752,6.609,0.006 c1.757,1.757,1.804,4.731-0.034,6.569l-2.5,2.5l2.619,2.619l2.5-2.5C35.572,32.202,35.73,26.88,32.425,23.575z"/><path fill="#c09011" d="M32.416,23.584c-3.305-3.305-8.57-3.262-11.833,0l2.596,2.596c1.921-1.921,4.876-1.751,6.634,0.006 c1.757,1.757,1.808,4.744-0.038,6.59l-2.5,2.5l2.599,2.599l2.5-2.5C35.546,32.203,35.72,26.887,32.416,23.584z"/><path fill="#c19012" d="M32.408,23.592c-3.303-3.303-8.559-3.257-11.816,0l2.575,2.575c1.936-1.936,4.901-1.75,6.658,0.007 c1.757,1.757,1.813,4.756-0.041,6.61l-2.5,2.5l2.578,2.578l2.5-2.5C35.52,32.204,35.71,26.894,32.408,23.592z"/><path fill="#c29113" d="M32.399,23.601c-3.302-3.302-8.547-3.252-11.799,0l2.554,2.554c1.951-1.951,4.925-1.75,6.683,0.007 c1.757,1.757,1.818,4.769-0.044,6.631l-2.5,2.5l2.557,2.557l2.5-2.5C35.494,32.205,35.7,26.901,32.399,23.601z"/><path fill="#c29214" d="M32.391,23.609c-3.3-3.3-8.535-3.247-11.782,0l2.533,2.533c1.966-1.966,4.95-1.749,6.707,0.008 c1.757,1.757,1.822,4.781-0.048,6.651l-2.5,2.5l2.536,2.536l2.5-2.5C35.469,32.206,35.69,26.908,32.391,23.609z"/><path fill="#c39315" d="M32.382,23.618c-3.299-3.299-8.523-3.242-11.764,0l2.512,2.512c1.981-1.981,4.974-1.749,6.732,0.009 c1.757,1.757,1.827,4.794-0.051,6.672l-2.5,2.5l2.515,2.515l2.5-2.5C35.443,32.207,35.68,26.915,32.382,23.618z"/><path fill="#c39316" d="M32.374,23.626c-3.298-3.298-8.511-3.236-11.747,0l2.491,2.491c1.996-1.996,4.999-1.748,6.756,0.009 c1.757,1.757,1.831,4.806-0.055,6.692l-2.5,2.5l2.494,2.494l2.5-2.5C35.417,32.209,35.67,26.923,32.374,23.626z"/><path fill="#c49417" d="M32.365,23.635c-3.296-3.296-8.499-3.231-11.73,0l2.47,2.47c2.011-2.011,5.023-1.748,6.781,0.01 c1.757,1.757,1.836,4.819-0.058,6.713l-2.5,2.5L29.8,37.8l2.5-2.5C35.391,32.21,35.66,26.93,32.365,23.635z"/><path fill="#c59518" d="M32.357,23.643c-3.295-3.295-8.487-3.226-11.713,0l2.449,2.449c2.026-2.026,5.048-1.747,6.805,0.01 c1.757,1.757,1.841,4.831-0.062,6.733l-2.5,2.5l2.452,2.452l2.5-2.5C35.365,32.211,35.65,26.937,32.357,23.643z"/><path fill="#c59519" d="M32.348,23.652c-3.294-3.294-8.475-3.221-11.696,0l2.428,2.428c2.041-2.04,5.072-1.746,6.83,0.011 c1.757,1.757,1.845,4.843-0.065,6.754l-2.5,2.5l2.431,2.431l2.5-2.5C35.34,32.212,35.64,26.944,32.348,23.652z"/><path fill="#c6961a" d="M32.339,23.661c-3.292-3.292-8.463-3.216-11.679,0l2.407,2.407c2.055-2.055,5.097-1.746,6.854,0.011 c1.757,1.757,1.85,4.856-0.068,6.774l-2.5,2.5l2.41,2.41l2.5-2.5C35.314,32.213,35.63,26.951,32.339,23.661z"/><path fill="#c6971b" d="M32.331,23.669c-3.291-3.291-8.451-3.21-11.662,0l2.386,2.386c2.07-2.07,5.121-1.745,6.879,0.012 c1.757,1.757,1.855,4.868-0.072,6.795l-2.5,2.5l2.39,2.39l2.5-2.5C35.288,32.214,35.62,26.958,32.331,23.669z"/><path fill="#c7971c" d="M32.322,23.678c-3.29-3.29-8.44-3.205-11.645,0l2.365,2.365c2.085-2.085,5.146-1.745,6.903,0.013 c1.757,1.757,1.859,4.881-0.075,6.815l-2.5,2.5l2.369,2.369l2.5-2.5C35.262,32.215,35.61,26.965,32.322,23.678z"/><path fill="#c8981d" d="M32.314,23.686c-3.288-3.288-8.428-3.2-11.628,0l2.343,2.343c2.1-2.1,5.17-1.744,6.928,0.013 c1.757,1.757,1.864,4.893-0.079,6.836l-2.5,2.5l2.348,2.348l2.5-2.5C35.236,32.216,35.6,26.972,32.314,23.686z"/><path fill="#c8991e" d="M32.305,23.695c-3.287-3.287-8.416-3.195-11.611,0l2.322,2.322c2.115-2.115,5.195-1.744,6.952,0.014 c1.757,1.757,1.868,4.906-0.082,6.856l-2.5,2.5l2.327,2.327l2.5-2.5C35.21,32.217,35.59,26.979,32.305,23.695z"/><path fill="#c99a1f" d="M32.297,23.703c-3.286-3.286-8.404-3.19-11.594,0l2.301,2.301c2.13-2.13,5.219-1.743,6.977,0.014 c1.757,1.757,1.873,4.918-0.086,6.877l-2.5,2.5l2.306,2.306l2.5-2.5C35.185,32.218,35.58,26.986,32.297,23.703z"/><path fill="#c99a20" d="M32.288,23.712c-3.284-3.284-8.392-3.185-11.576,0l2.28,2.28c2.145-2.145,5.244-1.742,7.001,0.015 c1.757,1.757,1.878,4.931-0.089,6.897l-2.5,2.5l2.285,2.285l2.5-2.5C35.159,32.22,35.57,26.993,32.288,23.712z"/><path fill="#ca9b21" d="M32.28,23.72c-3.283-3.283-8.38-3.179-11.559,0l2.259,2.259c2.16-2.16,5.268-1.742,7.026,0.015 c1.757,1.757,1.882,4.943-0.092,6.918l-2.5,2.5l2.264,2.264l2.5-2.5C35.133,32.221,35.56,27.001,32.28,23.72z"/><path fill="#cb9c22" d="M32.271,23.729c-3.281-3.281-8.368-3.174-11.542,0l2.238,2.238c2.175-2.175,5.293-1.741,7.05,0.016 c1.757,1.757,1.887,4.956-0.096,6.938l-2.5,2.5l2.243,2.243l2.5-2.5C35.107,32.222,35.55,27.008,32.271,23.729z"/><path fill="#cb9c23" d="M32.263,23.737c-3.28-3.28-8.356-3.169-11.525,0l2.217,2.217c2.19-2.189,5.317-1.741,7.075,0.017 c1.757,1.757,1.892,4.968-0.099,6.959l-2.5,2.5l2.222,2.222l2.5-2.5C35.081,32.223,35.54,27.015,32.263,23.737z"/><path fill="#cc9d24" d="M32.254,23.746c-3.279-3.279-8.344-3.164-11.508,0l2.196,2.196c2.204-2.204,5.342-1.74,7.099,0.017 c1.757,1.757,1.896,4.981-0.103,6.979l-2.5,2.5l2.201,2.201l2.5-2.5C35.056,32.224,35.53,27.022,32.254,23.746z"/><path fill="#cc9e25" d="M32.245,23.755c-3.277-3.277-8.332-3.159-11.491,0l2.175,2.175c2.219-2.219,5.366-1.74,7.124,0.018 c1.757,1.757,1.901,4.993-0.106,7l-2.5,2.5l2.181,2.181l2.5-2.5C35.03,32.225,35.52,27.029,32.245,23.755z"/><path fill="#cd9e26" d="M32.237,23.763c-3.276-3.276-8.321-3.153-11.474,0l2.154,2.154c2.234-2.234,5.391-1.739,7.148,0.018 c1.757,1.757,1.906,5.005-0.109,7.02l-2.5,2.5l2.16,2.16l2.5-2.5C35.004,32.226,35.51,27.036,32.237,23.763z"/><path fill="#cd9f27" d="M32.228,23.772c-3.275-3.275-8.309-3.148-11.457,0l2.133,2.133c2.249-2.249,5.415-1.738,7.173,0.019 c1.757,1.757,1.91,5.018-0.113,7.041l-2.5,2.5l2.139,2.139l2.5-2.5C34.978,32.227,35.5,27.043,32.228,23.772z"/><path fill="#cea028" d="M32.22,23.78c-3.273-3.273-8.297-3.143-11.44,0l2.111,2.111c2.264-2.264,5.44-1.738,7.197,0.019 c1.757,1.757,1.915,5.03-0.116,7.061l-2.5,2.5l2.118,2.118l2.5-2.5C34.952,32.228,35.49,27.05,32.22,23.78z"/><path fill="#cfa129" d="M32.211,23.789c-3.272-3.272-8.285-3.138-11.423,0l2.09,2.09c2.279-2.279,5.464-1.737,7.222,0.02 c1.757,1.757,1.919,5.043-0.12,7.082l-2.5,2.5l2.097,2.097l2.5-2.5C34.927,32.229,35.48,27.057,32.211,23.789z"/><path fill="#cfa12a" d="M32.203,23.797c-3.271-3.271-8.273-3.133-11.405,0l2.069,2.069c2.294-2.294,5.489-1.737,7.246,0.021 c1.757,1.757,1.924,5.055-0.123,7.102l-2.5,2.5l2.076,2.076l2.5-2.5C34.901,32.231,35.47,27.064,32.203,23.797z"/><path fill="#d0a22b" d="M32.194,23.806c-3.269-3.269-8.261-3.127-11.388,0l2.048,2.048c2.309-2.309,5.513-1.736,7.271,0.021 c1.757,1.757,1.929,5.068-0.127,7.123l-2.5,2.5l2.055,2.055l2.5-2.5C34.875,32.232,35.46,27.071,32.194,23.806z"/><path fill="#d0a32c" d="M32.186,23.814c-3.268-3.268-8.249-3.122-11.371,0l2.027,2.027c2.324-2.324,5.538-1.736,7.295,0.022 c1.757,1.757,1.933,5.08-0.13,7.144l-2.5,2.5l2.034,2.034l2.5-2.5C34.849,32.233,35.45,27.079,32.186,23.814z"/><path fill="#d1a32d" d="M32.177,23.823c-3.267-3.267-8.237-3.117-11.354,0l2.006,2.006c2.339-2.339,5.562-1.735,7.32,0.022 c1.757,1.757,1.938,5.093-0.133,7.164l-2.5,2.5l2.013,2.013l2.5-2.5C34.823,32.234,35.44,27.086,32.177,23.823z"/><path fill="#d2a42e" d="M32.169,23.831c-3.265-3.265-8.225-3.112-11.337,0l1.985,1.985c2.353-2.353,5.587-1.734,7.344,0.023 c1.757,1.757,1.943,5.105-0.137,7.185l-2.5,2.5l1.992,1.992l2.5-2.5C34.798,32.235,35.43,27.093,32.169,23.831z"/><path fill="#d2a52f" d="M32.16,23.84c-3.264-3.264-8.213-3.107-11.32,0l1.964,1.964c2.368-2.368,5.611-1.734,7.369,0.023 c1.757,1.757,1.947,5.118-0.14,7.205l-2.5,2.5l1.972,1.972l2.5-2.5C34.772,32.236,35.42,27.1,32.16,23.84z"/><path fill="#d3a530" d="M32.151,23.849c-3.262-3.262-8.201-3.101-11.303,0l1.943,1.943c2.383-2.383,5.636-1.733,7.393,0.024 c1.757,1.757,1.952,5.13-0.144,7.226l-2.5,2.5l1.951,1.951l2.5-2.5C34.746,32.237,35.41,27.107,32.151,23.849z"/><path fill="#d3a631" d="M32.143,23.857c-3.261-3.261-8.19-3.096-11.286,0l1.922,1.922c2.398-2.398,5.66-1.733,7.418,0.025 c1.757,1.757,1.956,5.143-0.147,7.246l-2.5,2.5l1.93,1.93l2.5-2.5C34.72,32.238,35.4,27.114,32.143,23.857z"/><path fill="#d4a732" d="M32.134,23.866c-3.26-3.26-8.178-3.091-11.269,0l1.901,1.901c2.413-2.413,5.685-1.732,7.442,0.025 c1.757,1.757,1.961,5.155-0.151,7.267l-2.5,2.5l1.909,1.909l2.5-2.5C34.694,32.239,35.39,27.121,32.134,23.866z"/><path fill="#d5a833" d="M32.126,23.874c-3.258-3.258-8.166-3.086-11.252,0l1.88,1.88c2.428-2.428,5.709-1.732,7.467,0.026 c1.757,1.757,1.966,5.167-0.154,7.287l-2.5,2.5l1.888,1.888l2.5-2.5C34.669,32.241,35.38,27.128,32.126,23.874z"/><path fill="#d5a834" d="M32.117,23.883c-3.257-3.257-8.154-3.081-11.235,0l1.858,1.858c2.443-2.443,5.734-1.731,7.491,0.026 c1.757,1.757,1.97,5.18-0.157,7.308l-2.5,2.5l1.867,1.867l2.5-2.5C34.643,32.242,35.37,27.135,32.117,23.883z"/><path fill="#d6a935" d="M32.109,23.891c-3.256-3.256-8.142-3.076-11.217,0l1.837,1.837c2.458-2.458,5.758-1.73,7.516,0.027 c1.757,1.757,1.975,5.192-0.161,7.328l-2.5,2.5l1.846,1.846l2.5-2.5C34.617,32.243,35.36,27.142,32.109,23.891z"/><path fill="#d6aa36" d="M32.1,23.9c-3.254-3.254-8.13-3.07-11.2,0l1.816,1.816c2.473-2.473,5.783-1.73,7.54,0.027 c1.757,1.757,1.98,5.205-0.164,7.349l-2.5,2.5l1.825,1.825l2.5-2.5C34.591,32.244,35.35,27.149,32.1,23.9z"/><path fill="#d7aa37" d="M32.092,23.908c-3.253-3.253-8.118-3.065-11.183,0l1.795,1.795c2.488-2.488,5.807-1.729,7.565,0.028 c1.757,1.757,1.984,5.217-0.168,7.369l-2.5,2.5l1.804,1.804l2.5-2.5C34.565,32.245,35.34,27.157,32.092,23.908z"/><path fill="#d7ab38" d="M32.083,23.917c-3.252-3.252-8.106-3.06-11.166,0l1.774,1.774c2.502-2.502,5.832-1.729,7.589,0.029 c1.757,1.757,1.989,5.23-0.171,7.39l-2.5,2.5l1.783,1.783l2.5-2.5C34.539,32.246,35.33,27.164,32.083,23.917z"/><path fill="#d8ac39" d="M32.075,23.925c-3.25-3.25-8.094-3.055-11.149,0l1.753,1.753c2.517-2.517,5.857-1.728,7.614,0.029 c1.757,1.757,1.994,5.242-0.174,7.41l-2.5,2.5l1.763,1.763l2.5-2.5C34.514,32.247,35.32,27.171,32.075,23.925z"/><path fill="#d9ac3a" d="M32.066,23.934c-3.249-3.249-8.082-3.05-11.132,0l1.732,1.732c2.532-2.532,5.881-1.728,7.638,0.03 c1.757,1.757,1.998,5.255-0.178,7.431l-2.5,2.5l1.742,1.742l2.5-2.5C34.488,32.248,35.31,27.178,32.066,23.934z"/><path fill="#d9ad3b" d="M32.057,23.943c-3.248-3.248-8.071-3.044-11.115,0l1.711,1.711c2.547-2.547,5.906-1.727,7.663,0.03 c1.757,1.757,2.003,5.267-0.181,7.451l-2.5,2.5l1.721,1.721l2.5-2.5C34.462,32.249,35.3,27.185,32.057,23.943z"/><path fill="#daae3c" d="M32.049,23.951c-3.246-3.246-8.059-3.039-11.098,0l1.69,1.69c2.562-2.562,5.93-1.726,7.687,0.031 c1.757,1.757,2.007,5.28-0.185,7.472l-2.5,2.5l1.7,1.7l2.5-2.5C34.436,32.25,35.29,27.192,32.049,23.951z"/><path fill="#daaf3d" d="M32.04,23.96c-3.245-3.245-8.047-3.034-11.081,0l1.669,1.669c2.577-2.577,5.955-1.726,7.712,0.031 c1.757,1.757,2.012,5.292-0.188,7.492l-2.5,2.5l1.679,1.679l2.5-2.5C34.41,32.252,35.28,27.199,32.04,23.96z"/><path fill="#dbaf3e" d="M32.032,23.968c-3.243-3.243-8.035-3.029-11.064,0l1.648,1.648c2.592-2.592,5.979-1.725,7.736,0.032 c1.757,1.757,2.017,5.305-0.192,7.513l-2.5,2.5l1.658,1.658l2.5-2.5C34.385,32.253,35.27,27.206,32.032,23.968z"/><path fill="#dcb03f" d="M32.023,23.977c-3.242-3.242-8.023-3.024-11.047,0l1.627,1.627c2.607-2.607,6.004-1.725,7.761,0.033 c1.757,1.757,2.021,5.317-0.195,7.533l-2.5,2.5l1.637,1.637l2.5-2.5C34.359,32.254,35.26,27.213,32.023,23.977z"/><path fill="#dcb140" d="M32.015,23.985c-3.241-3.241-8.011-3.018-11.029,0l1.605,1.605c2.622-2.622,6.028-1.724,7.785,0.033 c1.757,1.757,2.026,5.329-0.198,7.554l-2.5,2.5l1.616,1.616l2.5-2.5C34.333,32.255,35.25,27.22,32.015,23.985z"/><path fill="#ddb140" d="M32.006,23.994c-3.239-3.239-7.999-3.013-11.012,0l1.584,1.584c2.637-2.637,6.053-1.724,7.81,0.034 c1.757,1.757,2.031,5.342-0.202,7.574l-2.5,2.5l1.595,1.595l2.5-2.5C34.307,32.256,35.24,27.228,32.006,23.994z"/><path fill="#ddb241" d="M31.998,24.002c-3.238-3.238-7.987-3.008-10.995,0l1.563,1.563c2.652-2.651,6.077-1.723,7.834,0.034 c1.757,1.757,2.035,5.354-0.205,7.595l-2.5,2.5l1.574,1.574l2.5-2.5C34.281,32.257,35.23,27.235,31.998,24.002z"/><path fill="#deb342" d="M31.989,24.011c-3.237-3.237-7.975-3.003-10.978,0l1.542,1.542c2.666-2.666,6.102-1.722,7.859,0.035 c1.757,1.757,2.04,5.367-0.209,7.615l-2.5,2.5l1.554,1.554l2.5-2.5C34.256,32.258,35.22,27.242,31.989,24.011z"/><path fill="#dfb343" d="M31.981,24.019c-3.235-3.235-7.963-2.998-10.961,0l1.521,1.521c2.681-2.681,6.126-1.722,7.883,0.035 c1.757,1.757,2.044,5.379-0.212,7.636l-2.5,2.5l1.533,1.533l2.5-2.5C34.23,32.259,35.21,27.249,31.981,24.019z"/><path fill="#dfb444" d="M31.972,24.028c-3.234-3.234-7.951-2.992-10.944,0l1.5,1.5c2.696-2.696,6.151-1.721,7.908,0.036 c1.757,1.757,2.049,5.392-0.216,7.656l-2.5,2.5l1.512,1.512l2.5-2.5C34.204,32.26,35.2,27.256,31.972,24.028z"/><path fill="#e0b545" d="M31.963,24.037c-3.233-3.233-7.94-2.987-10.927,0l1.479,1.479c2.711-2.711,6.175-1.721,7.932,0.037 c1.757,1.757,2.054,5.404-0.219,7.677l-2.5,2.5l1.491,1.491l2.5-2.5C34.178,32.261,35.19,27.263,31.963,24.037z"/><path fill="#e0b646" d="M31.955,24.045c-3.231-3.231-7.928-2.982-10.91,0l1.458,1.458c2.726-2.726,6.2-1.72,7.957,0.037 c1.757,1.757,2.058,5.417-0.222,7.697l-2.5,2.5l1.47,1.47l2.5-2.5C34.152,32.263,35.18,27.27,31.955,24.045z"/><path fill="#e1b647" d="M31.946,24.054c-3.23-3.23-7.916-2.977-10.893,0l1.437,1.437c2.741-2.741,6.224-1.72,7.982,0.038 c1.757,1.757,2.063,5.429-0.226,7.718l-2.5,2.5l1.449,1.449l2.5-2.5C34.127,32.264,35.17,27.277,31.946,24.054z"/><path fill="#e2b748" d="M31.938,24.062c-3.229-3.229-7.904-2.972-10.876,0l1.416,1.416c2.756-2.756,6.249-1.719,8.006,0.038 c1.757,1.757,2.068,5.442-0.229,7.738l-2.5,2.5l1.428,1.428l2.5-2.5C34.101,32.265,35.16,27.284,31.938,24.062z"/><path fill="#e2b849" d="M31.929,24.071c-3.227-3.227-7.892-2.967-10.858,0l1.395,1.395c2.771-2.771,6.273-1.718,8.031,0.039 c1.757,1.757,2.072,5.454-0.233,7.759l-2.5,2.5l1.407,1.407l2.5-2.5C34.075,32.266,35.15,27.291,31.929,24.071z"/><path fill="#e3b84a" d="M31.921,24.079c-3.226-3.226-7.88-2.961-10.841,0l1.373,1.373c2.786-2.786,6.298-1.718,8.055,0.039 c1.757,1.757,2.077,5.467-0.236,7.779l-2.5,2.5l1.386,1.386l2.5-2.5C34.049,32.267,35.14,27.298,31.921,24.079z"/><path fill="#e3b94b" d="M31.912,24.088c-3.224-3.224-7.868-2.956-10.824,0l1.352,1.352c2.801-2.801,6.322-1.717,8.08,0.04 c1.757,1.757,2.081,5.479-0.239,7.8l-2.5,2.5l1.365,1.365l2.5-2.5C34.023,32.268,35.13,27.306,31.912,24.088z"/><path fill="#e4ba4c" d="M31.904,24.096c-3.223-3.223-7.856-2.951-10.807,0l1.331,1.331c2.815-2.815,6.347-1.717,8.104,0.041 c1.757,1.757,2.086,5.492-0.243,7.821l-2.5,2.5l1.345,1.345l2.5-2.5C33.998,32.269,35.12,27.313,31.904,24.096z"/><path fill="#e4ba4d" d="M31.895,24.105c-3.222-3.222-7.844-2.946-10.79,0l1.31,1.31c2.83-2.83,6.371-1.716,8.129,0.041 c1.757,1.757,2.091,5.504-0.246,7.841l-2.5,2.5l1.324,1.324l2.5-2.5C33.972,32.27,35.11,27.32,31.895,24.105z"/><path fill="#e5bb4e" d="M31.887,24.113c-3.22-3.22-7.832-2.941-10.773,0l1.289,1.289c2.845-2.845,6.396-1.716,8.153,0.042 c1.757,1.757,2.095,5.516-0.25,7.862l-2.5,2.5l1.303,1.303l2.5-2.5C33.946,32.271,35.1,27.327,31.887,24.113z"/><path fill="#e6bc4f" d="M31.878,24.122c-3.219-3.219-7.821-2.935-10.756,0l1.268,1.268c2.86-2.86,6.42-1.715,8.178,0.042 c1.757,1.757,2.1,5.529-0.253,7.882l-2.5,2.5l1.282,1.282l2.5-2.5C33.92,32.272,35.09,27.334,31.878,24.122z"/><path fill="#e6bd50" d="M31.869,24.131c-3.218-3.218-7.809-2.93-10.739,0l1.247,1.247c2.875-2.875,6.445-1.714,8.202,0.043 c1.757,1.757,2.105,5.541-0.257,7.903l-2.5,2.5l1.261,1.261l2.5-2.5C33.894,32.274,35.08,27.341,31.869,24.131z"/><path fill="#e7bd51" d="M31.861,24.139c-3.216-3.216-7.797-2.925-10.722,0l1.226,1.226c2.89-2.89,6.469-1.714,8.227,0.043 c1.757,1.757,2.109,5.554-0.26,7.923l-2.5,2.5l1.24,1.24l2.5-2.5C33.869,32.275,35.07,27.348,31.861,24.139z"/><path fill="#e7be52" d="M31.852,24.148c-3.215-3.215-7.785-2.92-10.705,0l1.205,1.205c2.905-2.905,6.494-1.713,8.251,0.044 c1.757,1.757,2.114,5.566-0.263,7.944l-2.5,2.5l1.219,1.219l2.5-2.5C33.843,32.276,35.06,27.355,31.852,24.148z"/><path fill="#e8bf53" d="M31.844,24.156c-3.214-3.214-7.773-2.915-10.688,0l1.184,1.184c2.92-2.92,6.518-1.713,8.276,0.045 c1.757,1.757,2.119,5.579-0.267,7.964l-2.5,2.5l1.198,1.198l2.5-2.5C33.817,32.277,35.05,27.362,31.844,24.156z"/><path fill="#e9bf54" d="M31.835,24.165c-3.212-3.212-7.761-2.909-10.67,0l1.163,1.163c2.935-2.935,6.543-1.712,8.3,0.045 c1.757,1.757,2.123,5.591-0.27,7.985l-2.5,2.5l1.177,1.177l2.5-2.5C33.791,32.278,35.04,27.369,31.835,24.165z"/><path fill="#e9c055" d="M31.827,24.173c-3.211-3.211-7.749-2.904-10.653,0l1.142,1.142c2.95-2.95,6.567-1.712,8.325,0.046 c1.757,1.757,2.128,5.604-0.274,8.005l-2.5,2.5l1.156,1.156l2.5-2.5C33.765,32.279,35.03,27.376,31.827,24.173z"/><path fill="#eac156" d="M31.818,24.182c-3.21-3.21-7.737-2.899-10.636,0l1.12,1.12c2.964-2.964,6.592-1.711,8.349,0.046 c1.757,1.757,2.132,5.616-0.277,8.026l-2.5,2.5l1.136,1.136l2.5-2.5C33.739,32.28,35.02,27.384,31.818,24.182z"/><path fill="#eac157" d="M31.81,24.19c-3.208-3.208-7.725-2.894-10.619,0l1.099,1.099c2.979-2.979,6.616-1.71,8.374,0.047 c1.757,1.757,2.137,5.629-0.281,8.046l-2.5,2.5l1.115,1.115l2.5-2.5C33.714,32.281,35.01,27.391,31.81,24.19z"/><path fill="#ebc258" d="M31.801,24.199c-3.207-3.207-7.713-2.889-10.602,0l1.078,1.078c2.994-2.994,6.641-1.71,8.398,0.047 c1.757,1.757,2.142,5.641-0.284,8.067l-2.5,2.5l1.094,1.094l2.5-2.5C33.688,32.282,35,27.398,31.801,24.199z"/><path fill="#ecc359" d="M31.792,24.208c-3.205-3.205-7.702-2.883-10.585,0l1.057,1.057c3.009-3.009,6.665-1.709,8.423,0.048 c1.757,1.757,2.146,5.654-0.287,8.087l-2.5,2.5l1.073,1.073l2.5-2.5C33.662,32.283,34.99,27.405,31.792,24.208z"/><path fill="#ecc45a" d="M31.784,24.216c-3.204-3.204-7.69-2.878-10.568,0l1.036,1.036c3.024-3.024,6.69-1.709,8.447,0.049 c1.757,1.757,2.151,5.666-0.291,8.108l-2.5,2.5l1.052,1.052l2.5-2.5C33.636,32.285,34.98,27.412,31.784,24.216z"/><path fill="#edc45b" d="M31.775,24.225c-3.203-3.203-7.678-2.873-10.551,0l1.015,1.015c3.039-3.039,6.714-1.708,8.472,0.049 c1.757,1.757,2.156,5.678-0.294,8.128l-2.5,2.5l1.031,1.031l2.5-2.5C33.61,32.286,34.97,27.419,31.775,24.225z"/><path fill="#edc55c" d="M31.767,24.233c-3.201-3.201-7.666-2.868-10.534,0l0.994,0.994c3.054-3.054,6.739-1.708,8.496,0.05 c1.757,1.757,2.16,5.691-0.298,8.149l-2.5,2.5l1.01,1.01l2.5-2.5C33.585,32.287,34.96,27.426,31.767,24.233z"/><path fill="#eec65d" d="M31.758,24.242c-3.2-3.2-7.654-2.863-10.517,0l0.973,0.973c3.069-3.069,6.763-1.707,8.521,0.05 c1.757,1.757,2.165,5.703-0.301,8.169l-2.5,2.5l0.989,0.989l2.5-2.5C33.559,32.288,34.95,27.433,31.758,24.242z"/><path fill="#eec65e" d="M31.75,24.25c-3.199-3.199-7.642-2.858-10.5,0l0.952,0.952c3.084-3.084,6.788-1.706,8.545,0.051 c1.757,1.757,2.169,5.716-0.304,8.19l-2.5,2.5l0.968,0.968l2.5-2.5C33.533,32.289,34.94,27.44,31.75,24.25z"/><path fill="#efc75f" d="M31.741,24.259c-3.197-3.197-7.63-2.852-10.482,0l0.931,0.931c3.099-3.099,6.812-1.706,8.57,0.051 c1.757,1.757,2.174,5.728-0.308,8.21l-2.5,2.5l0.947,0.947l2.5-2.5C33.507,32.29,34.93,27.447,31.741,24.259z"/><path fill="#f0c860" d="M31.733,24.267c-3.196-3.196-7.618-2.847-10.465,0l0.91,0.91c3.113-3.113,6.837-1.705,8.594,0.052 c1.757,1.757,2.179,5.741-0.311,8.231l-2.5,2.5l0.927,0.927l2.5-2.5C33.481,32.291,34.92,27.455,31.733,24.267z"/><path fill="#f0c861" d="M31.724,24.276c-3.195-3.195-7.606-2.842-10.448,0l0.888,0.888c3.128-3.128,6.861-1.705,8.619,0.053 c1.757,1.757,2.183,5.753-0.315,8.251l-2.5,2.5l0.906,0.906l2.5-2.5C33.456,32.292,34.91,27.462,31.724,24.276z"/><path fill="#f1c962" d="M31.716,24.284c-3.193-3.193-7.594-2.837-10.431,0l0.867,0.867c3.143-3.143,6.886-1.704,8.643,0.053 c1.757,1.757,2.188,5.766-0.318,8.272l-2.5,2.5l0.885,0.885l2.5-2.5C33.43,32.293,34.9,27.469,31.716,24.284z"/><path fill="#f1ca63" d="M31.707,24.293c-3.192-3.192-7.582-2.832-10.414,0l0.846,0.846c3.158-3.158,6.91-1.704,8.668,0.054 c1.757,1.757,2.193,5.778-0.322,8.292l-2.5,2.5l0.864,0.864l2.5-2.5C33.404,32.294,34.89,27.476,31.707,24.293z"/><path fill="#f2cb64" d="M31.698,24.302c-3.191-3.191-7.571-2.826-10.397,0l0.825,0.825c3.173-3.173,6.935-1.703,8.692,0.054 c1.757,1.757,2.197,5.791-0.325,8.313l-2.5,2.5l0.843,0.843l2.5-2.5C33.378,32.296,34.88,27.483,31.698,24.302z"/><path fill="#f3cb65" d="M31.69,24.31c-3.189-3.189-7.559-2.821-10.38,0l0.804,0.804c3.188-3.188,6.959-1.702,8.717,0.055 c1.757,1.757,2.202,5.803-0.328,8.333l-2.5,2.5l0.822,0.822l2.5-2.5C33.352,32.297,34.87,27.49,31.69,24.31z"/><path fill="#f3cc66" d="M31.681,24.319c-3.188-3.188-7.547-2.816-10.363,0l0.783,0.783c3.203-3.203,6.984-1.702,8.741,0.055 c1.757,1.757,2.207,5.816-0.332,8.354l-2.5,2.5l0.801,0.801l2.5-2.5C33.327,32.298,34.86,27.497,31.681,24.319z"/><path fill="#f4cd67" d="M31.673,24.327c-3.186-3.186-7.535-2.811-10.346,0l0.762,0.762c3.218-3.218,7.008-1.701,8.766,0.056 c1.757,1.757,2.211,5.828-0.335,8.374l-2.5,2.5l0.78,0.78l2.5-2.5C33.301,32.299,34.85,27.504,31.673,24.327z"/><path fill="#f4cd68" d="M31.664,24.336c-3.185-3.185-7.523-2.806-10.329,0l0.741,0.741c3.233-3.233,7.033-1.701,8.79,0.057 c1.757,1.757,2.216,5.84-0.339,8.395l-2.5,2.5l0.759,0.759l2.5-2.5C33.275,32.3,34.84,27.511,31.664,24.336z"/><path fill="#f5ce69" d="M31.656,24.344c-3.184-3.184-7.511-2.8-10.311,0l0.72,0.72c3.248-3.248,7.057-1.7,8.815,0.057 c1.757,1.757,2.22,5.853-0.342,8.415l-2.5,2.5l0.738,0.738l2.5-2.5C33.249,32.301,34.83,27.518,31.656,24.344z"/><path fill="#f6cf6a" d="M31.647,24.353c-3.182-3.182-7.499-2.795-10.294,0l0.699,0.699c3.262-3.262,7.082-1.7,8.839,0.058 c1.757,1.757,2.225,5.865-0.346,8.436l-2.5,2.5l0.718,0.718l2.5-2.5C33.223,32.302,34.82,27.525,31.647,24.353z"/><path fill="#f6cf6b" d="M31.639,24.361c-3.181-3.181-7.487-2.79-10.277,0l0.678,0.678c3.277-3.277,7.106-1.699,8.864,0.058 c1.757,1.757,2.23,5.878-0.349,8.456l-2.5,2.5l0.697,0.697l2.5-2.5C33.198,32.303,34.81,27.533,31.639,24.361z"/><path fill="#f7d06c" d="M31.63,24.37c-3.18-3.18-7.475-2.785-10.26,0l0.657,0.657c3.292-3.292,7.131-1.698,8.888,0.059 c1.757,1.757,2.234,5.89-0.352,8.477l-2.5,2.5l0.676,0.676l2.5-2.5C33.172,32.304,34.8,27.54,31.63,24.37z"/><path fill="#f7d16d" d="M31.622,24.378c-3.178-3.178-7.463-2.78-10.243,0l0.635,0.635c3.307-3.307,7.155-1.698,8.913,0.059 c1.757,1.757,2.239,5.903-0.356,8.498l-2.5,2.5l0.655,0.655l2.5-2.5C33.146,32.306,34.79,27.547,31.622,24.378z"/><path fill="#f8d26e" d="M31.613,24.387c-3.177-3.177-7.452-2.774-10.226,0l0.614,0.614c3.322-3.322,7.18-1.697,8.937,0.06 c1.757,1.757,2.244,5.915-0.359,8.518l-2.5,2.5l0.634,0.634l2.5-2.5C33.12,32.307,34.78,27.554,31.613,24.387z"/><path fill="#f9d26f" d="M31.604,24.396c-3.176-3.176-7.44-2.769-10.209,0l0.593,0.593c3.337-3.337,7.204-1.697,8.962,0.061 c1.757,1.757,2.248,5.928-0.363,8.539l-2.5,2.5l0.613,0.613l2.5-2.5C33.094,32.308,34.77,27.561,31.604,24.396z"/><path fill="#f9d370" d="M31.596,24.404c-3.174-3.174-7.428-2.764-10.192,0l0.572,0.572c3.352-3.352,7.229-1.696,8.986,0.061 c1.757,1.757,2.253,5.94-0.366,8.559l-2.5,2.5l0.592,0.592l2.5-2.5C33.069,32.309,34.76,27.568,31.596,24.404z"/><path fill="#fad471" d="M31.587,24.413c-3.173-3.173-7.416-2.759-10.175,0l0.551,0.551c3.367-3.367,7.253-1.696,9.011,0.062 c1.757,1.757,2.257,5.953-0.369,8.58l-2.5,2.5l0.571,0.571l2.5-2.5C33.043,32.31,34.75,27.575,31.587,24.413z"/><path fill="#fad472" d="M31.579,24.421c-3.172-3.172-7.404-2.754-10.158,0l0.53,0.53c3.382-3.382,7.278-1.695,9.035,0.062 c1.757,1.757,2.262,5.965-0.373,8.6l-2.5,2.5l0.55,0.55l2.5-2.5C33.017,32.311,34.74,27.582,31.579,24.421z"/><path fill="#fbd573" d="M31.57,24.43c-3.17-3.17-7.392-2.748-10.141,0l0.509,0.509c3.397-3.397,7.302-1.694,9.06,0.063 c1.757,1.757,2.267,5.978-0.376,8.621l-2.5,2.5l0.529,0.529l2.5-2.5C32.991,32.312,34.73,27.589,31.57,24.43z"/><path fill="#fbd674" d="M31.562,24.438c-3.169-3.169-7.38-2.743-10.123,0l0.488,0.488c3.412-3.412,7.327-1.694,9.084,0.063 c1.757,1.757,2.271,5.99-0.38,8.641l-2.5,2.5l0.509,0.509l2.5-2.5C32.965,32.313,34.72,27.596,31.562,24.438z"/><path fill="#fcd675" d="M31.553,24.447c-3.167-3.167-7.368-2.738-10.106,0l0.467,0.467c3.426-3.426,7.351-1.693,9.109,0.064 c1.757,1.757,2.276,6.002-0.383,8.662l-2.5,2.5l0.488,0.488l2.5-2.5C32.939,32.314,34.71,27.603,31.553,24.447z"/><path fill="#fdd776" d="M31.545,24.455c-3.166-3.166-7.356-2.733-10.089,0l0.446,0.446c3.441-3.441,7.376-1.693,9.133,0.065 c1.757,1.757,2.281,6.015-0.387,8.682l-2.5,2.5l0.467,0.467l2.5-2.5C32.914,32.315,34.7,27.611,31.545,24.455z"/><path fill="#fdd877" d="M31.536,24.464c-3.165-3.165-7.344-2.728-10.072,0l0.425,0.425c3.456-3.456,7.4-1.692,9.158,0.065 c1.757,1.757,2.285,6.027-0.39,8.703l-2.5,2.5l0.446,0.446l2.5-2.5C32.888,32.317,34.69,27.618,31.536,24.464z"/><path fill="#fed978" d="M31.528,24.472c-3.163-3.163-7.333-2.723-10.055,0l0.404,0.404c3.471-3.471,7.425-1.692,9.182,0.066 c1.757,1.757,2.29,6.04-0.393,8.723l-2.5,2.5l0.425,0.425l2.5-2.5C32.862,32.318,34.68,27.625,31.528,24.472z"/><path fill="#fed979" d="M31.519,24.481c-3.162-3.162-7.321-2.717-10.038,0l0.382,0.382c3.486-3.486,7.449-1.691,9.207,0.066 c1.757,1.757,2.295,6.052-0.397,8.744l-2.5,2.5l0.404,0.404l2.5-2.5C32.836,32.319,34.67,27.632,31.519,24.481z"/><path fill="#ffda7a" d="M31.51,24.49c-3.161-3.161-7.309-2.712-10.021,0l0.361,0.361c3.501-3.501,7.474-1.69,9.231,0.067 c1.757,1.757,2.299,6.065-0.4,8.764l-2.5,2.5l0.383,0.383l2.5-2.5C32.81,32.32,34.66,27.639,31.51,24.49z"/></g><g><linearGradient id="euSinEZHqqSUBd5EnfpGtj" x1="25.225" x2="26.725" y1="22.926" y2="24.318" gradientUnits="userSpaceOnUse"><stop offset=".55" stop-color="#9c7105"/><stop offset="1" stop-color="#9c7105" stop-opacity="0"/></linearGradient><path fill="url(#euSinEZHqqSUBd5EnfpGtj)" d="M23.386,21.593c-0.797,0.797-1.608,1.608-2.397,2.397l2.328,2.328 c0.626-0.626,1.394-1.019,2.199-1.199c1.301-1.301,2.582-2.582,3.674-3.674C27.304,20.816,25.245,20.862,23.386,21.593z"/></g><linearGradient id="euSinEZHqqSUBd5EnfpGtk" x1="-.15" x2="-.15" y1="-11.251" y2="-9.253" gradientTransform="matrix(.7709 -.7709 2.0337 2.0337 26.322 62.11)" gradientUnits="userSpaceOnUse"><stop offset="0" stop-color="#cb9c23"/><stop offset=".216" stop-color="#ffda7a"/><stop offset=".367" stop-color="#ffda7a"/><stop offset=".694" stop-color="#ba8806"/><stop offset="1" stop-color="#d2a329"/></linearGradient><path fill="url(#euSinEZHqqSUBd5EnfpGtk)" d="M7.389,43.41L7.389,43.41c-0.32,0.32-0.839,0.32-1.16,0l-2.829-2.829	c-0.32-0.32-0.32-0.839,0-1.16h0c0.32-0.32,0.839-0.32,1.16,0l2.829,2.829C7.709,42.571,7.709,43.09,7.389,43.41z"/><g><path fill="#ba8806" d="M29.524,20.112C33.202,16.434,42,18.767,42,18.767l-14-14c0,0,2.383,8.83-1.305,12.517 S14.49,29.49,14.49,29.49c-3.319,3.319-3.319,8.701,0,12.021c3.319,3.319,8.701,3.319,12.021,0l4-4l-2.828-2.828l-4,4 c-1.757,1.757-4.607,1.757-6.364,0c-1.757-1.757-1.757-4.607,0-6.364C17.318,32.318,25.846,23.79,29.524,20.112z"/><path fill="#bb8907" d="M29.511,20.1c3.678-3.678,12.414-1.408,12.414-1.408L28.028,4.795c0,0,2.363,8.81-1.325,12.497 S14.498,29.498,14.498,29.498c-3.319,3.319-3.319,8.684,0,12.004c3.319,3.319,8.681,3.316,12-0.004l4-4l-2.808-2.808l-4,4 c-1.757,1.757-4.608,1.782-6.386,0.004c-1.777-1.777-1.757-4.632,0.001-6.389C17.306,32.306,25.833,23.778,29.511,20.1z"/><path fill="#bb8908" d="M29.499,20.088c3.678-3.678,12.352-1.47,12.352-1.47L28.057,4.824c0,0,2.343,8.79-1.345,12.477 S14.507,29.507,14.507,29.507c-3.319,3.319-3.319,8.667,0,11.987c3.319,3.319,8.66,3.312,11.979-0.008l4-4l-2.787-2.787l-4,4 c-1.757,1.757-4.61,1.806-6.407,0.009c-1.797-1.797-1.756-4.657,0.001-6.415C17.293,32.293,25.821,23.766,29.499,20.088z"/><path fill="#bc8a09" d="M29.487,20.075c3.678-3.678,12.29-1.532,12.29-1.532L28.085,4.852c0,0,2.323,8.77-1.364,12.457 S14.515,29.515,14.515,29.515c-3.319,3.319-3.319,8.65,0,11.97c3.319,3.319,8.639,3.308,11.958-0.011l4-4l-2.766-2.766l-4,4 c-1.757,1.757-4.611,1.831-6.429,0.013c-1.818-1.818-1.755-4.683,0.002-6.44C17.281,32.281,25.809,23.753,29.487,20.075z"/><path fill="#bc8b0a" d="M29.474,20.063c3.678-3.678,12.227-1.594,12.227-1.594L28.114,4.88c0,0,2.303,8.75-1.384,12.438 S14.524,29.524,14.524,29.524c-3.319,3.319-3.319,8.633,0,11.952c3.319,3.319,8.618,3.304,11.937-0.015l4-4l-2.745-2.745l-4,4 c-1.757,1.757-4.613,1.856-6.45,0.018c-1.838-1.838-1.755-4.708,0.003-6.465C17.269,32.269,25.796,23.741,29.474,20.063z"/><path fill="#bd8c0b" d="M29.462,20.051c3.678-3.678,12.165-1.657,12.165-1.657L28.142,4.909c0,0,2.283,8.73-1.404,12.418 S14.532,29.532,14.532,29.532c-3.319,3.319-3.319,8.616,0,11.935c3.319,3.319,8.597,3.3,11.916-0.019l4-4l-2.724-2.724l-4,4 c-1.757,1.757-4.614,1.88-6.472,0.022c-1.858-1.858-1.754-4.733,0.003-6.491C17.256,32.256,25.784,23.729,29.462,20.051z"/><path fill="#be8c0c" d="M29.45,20.038c3.678-3.678,12.103-1.719,12.103-1.719L28.171,4.937c0,0,2.264,8.71-1.424,12.398 S14.541,29.541,14.541,29.541c-3.319,3.319-3.319,8.599,0,11.918c3.319,3.319,8.576,3.297,11.896-0.023l4-4l-2.703-2.703l-4,4 c-1.757,1.757-4.616,1.905-6.493,0.027c-1.878-1.878-1.753-4.759,0.004-6.516C17.244,32.244,25.772,23.716,29.45,20.038z"/><path fill="#be8d0d" d="M29.437,20.026c3.678-3.678,12.041-1.781,12.041-1.781L28.199,4.966c0,0,2.244,8.69-1.444,12.378 S14.549,29.549,14.549,29.549c-3.319,3.319-3.319,8.582,0,11.901c3.319,3.319,8.555,3.293,11.875-0.027l4-4l-2.682-2.682l-4,4 c-1.757,1.757-4.617,1.929-6.515,0.031c-1.898-1.898-1.753-4.784,0.005-6.541C17.232,32.232,25.759,23.704,29.437,20.026z"/><path fill="#bf8e0e" d="M29.425,20.014c3.678-3.678,11.979-1.843,11.979-1.843L28.228,4.994c0,0,2.224,8.67-1.464,12.358 S14.558,29.558,14.558,29.558c-3.319,3.319-3.319,8.565,0,11.884c3.319,3.319,8.534,3.289,11.854-0.03l4-4L27.75,34.75l-4,4 c-1.757,1.757-4.619,1.954-6.536,0.036c-1.918-1.918-1.752-4.809,0.005-6.567C17.219,32.219,25.747,23.692,29.425,20.014z"/><path fill="#bf8e0f" d="M29.413,20.001c3.678-3.678,11.916-1.906,11.916-1.906L28.256,5.023c0,0,2.204,8.65-1.484,12.338 S14.566,29.566,14.566,29.566c-3.319,3.319-3.319,8.548,0,11.867c3.319,3.319,8.513,3.285,11.833-0.034l4-4l-2.64-2.64l-4,4 c-1.757,1.757-4.62,1.978-6.558,0.04c-1.938-1.938-1.751-4.835,0.006-6.592C17.207,32.207,25.735,23.679,29.413,20.001z"/><path fill="#c08f10" d="M29.4,19.989c3.678-3.678,11.854-1.968,11.854-1.968l-12.97-12.97c0,0,2.184,8.63-1.504,12.318 S14.575,29.575,14.575,29.575c-3.319,3.319-3.319,8.53,0,11.85c3.319,3.319,8.493,3.282,11.812-0.038l4-4l-2.62-2.62l-4,4 c-1.757,1.757-4.621,2.003-6.58,0.045c-1.958-1.958-1.751-4.86,0.007-6.617C17.195,32.195,25.722,23.667,29.4,19.989z"/><path fill="#c09011" d="M29.388,19.977c3.678-3.678,11.792-2.03,11.792-2.03L28.313,5.08c0,0,2.164,8.61-1.524,12.298 S14.584,29.584,14.584,29.584c-3.319,3.319-3.319,8.513,0,11.833c3.319,3.319,8.472,3.278,11.791-0.042l4-4l-2.599-2.599l-4,4 c-1.757,1.757-4.623,2.027-6.601,0.049c-1.978-1.978-1.75-4.885,0.007-6.643C17.182,32.182,25.71,23.655,29.388,19.977z"/><path fill="#c19012" d="M29.376,19.964c3.678-3.678,11.73-2.092,11.73-2.092L28.342,5.108c0,0,2.144,8.591-1.544,12.278 S14.592,29.592,14.592,29.592c-3.319,3.319-3.319,8.496,0,11.816c3.319,3.319,8.451,3.274,11.77-0.046l4-4l-2.578-2.578l-4,4 c-1.757,1.757-4.624,2.052-6.623,0.054c-1.998-1.998-1.749-4.911,0.008-6.668C17.17,32.17,25.698,23.642,29.376,19.964z"/><path fill="#c29113" d="M29.363,19.952c3.678-3.678,11.668-2.154,11.668-2.154L28.37,5.137c0,0,2.124,8.571-1.564,12.258 S14.601,29.601,14.601,29.601c-3.319,3.319-3.319,8.479,0,11.799c3.319,3.319,8.43,3.27,11.749-0.049l4-4l-2.557-2.557l-4,4 c-1.757,1.757-4.626,2.076-6.644,0.058c-2.018-2.018-1.749-4.936,0.009-6.693C17.158,32.158,25.685,23.63,29.363,19.952z"/><path fill="#c29214" d="M29.351,19.94c3.678-3.678,11.605-2.217,11.605-2.217L28.398,5.165c0,0,2.104,8.551-1.583,12.238 S14.609,29.609,14.609,29.609c-3.319,3.319-3.319,8.462,0,11.781c3.319,3.319,8.409,3.266,11.728-0.053l4-4l-2.536-2.536l-4,4 c-1.757,1.757-4.627,2.101-6.666,0.062c-2.038-2.038-1.748-4.961,0.009-6.719C17.145,32.145,25.673,23.618,29.351,19.94z"/><path fill="#c39315" d="M29.339,19.927c3.678-3.678,11.543-2.279,11.543-2.279L28.427,5.194c0,0,2.084,8.531-1.603,12.218 S14.618,29.618,14.618,29.618c-3.319,3.319-3.319,8.445,0,11.764c3.319,3.319,8.388,3.263,11.708-0.057l4-4L27.81,34.81l-4,4 c-1.757,1.757-4.629,2.125-6.687,0.067c-2.058-2.058-1.747-4.987,0.01-6.744C17.133,32.133,25.661,23.605,29.339,19.927z"/><path fill="#c39316" d="M29.326,19.915c3.678-3.678,11.481-2.341,11.481-2.341L28.455,5.222c0,0,2.064,8.511-1.623,12.199 S14.626,29.626,14.626,29.626c-3.319,3.319-3.319,8.428,0,11.747c3.319,3.319,8.367,3.259,11.687-0.061l4-4l-2.494-2.494l-4,4 c-1.757,1.757-4.63,2.15-6.709,0.071c-2.078-2.078-1.746-5.012,0.011-6.769C17.121,32.121,25.648,23.593,29.326,19.915z"/><path fill="#c49417" d="M29.314,19.903c3.678-3.678,11.419-2.403,11.419-2.403L28.484,5.25c0,0,2.044,8.491-1.643,12.179 S14.635,29.635,14.635,29.635c-3.319,3.319-3.319,8.411,0,11.73c3.319,3.319,8.346,3.255,11.666-0.064l4-4l-2.473-2.473l-4,4 c-1.757,1.757-4.632,2.174-6.73,0.076c-2.099-2.099-1.746-5.037,0.012-6.795C17.108,32.108,25.636,23.581,29.314,19.903z"/><path fill="#c59518" d="M29.302,19.89c3.678-3.678,11.357-2.465,11.357-2.465L28.512,5.279c0,0,2.025,8.471-1.663,12.159 S14.643,29.643,14.643,29.643c-3.319,3.319-3.319,8.394,0,11.713c3.319,3.319,8.325,3.251,11.645-0.068l4-4l-2.452-2.452l-4,4 c-1.757,1.757-4.633,2.199-6.752,0.08c-2.119-2.119-1.745-5.063,0.012-6.82C17.096,32.096,25.624,23.568,29.302,19.89z"/><path fill="#c59519" d="M29.289,19.878c3.678-3.678,11.294-2.528,11.294-2.528L28.541,5.307c0,0,2.005,8.451-1.683,12.139 S14.652,29.652,14.652,29.652c-3.319,3.319-3.319,8.377,0,11.696c3.319,3.319,8.305,3.247,11.624-0.072l4-4l-2.432-2.432l-4,4 c-1.757,1.757-4.635,2.224-6.774,0.085c-2.139-2.139-1.744-5.088,0.013-6.845C17.084,32.084,25.611,23.556,29.289,19.878z"/><path fill="#c6961a" d="M29.277,19.866c3.678-3.678,11.232-2.59,11.232-2.59l-11.94-11.94c0,0,1.985,8.431-1.703,12.119 S14.661,29.661,14.661,29.661c-3.319,3.319-3.319,8.359,0,11.679c3.319,3.319,8.284,3.244,11.603-0.076l4-4l-2.411-2.411l-4,4 c-1.757,1.757-4.636,2.248-6.795,0.089c-2.159-2.159-1.744-5.113,0.014-6.871C17.071,32.071,25.599,23.544,29.277,19.866z"/><path fill="#c6971b" d="M29.265,19.853c3.678-3.678,11.17-2.652,11.17-2.652L28.598,5.364c0,0,1.965,8.411-1.723,12.099 S14.669,29.669,14.669,29.669c-3.319,3.319-3.319,8.342,0,11.662c3.319,3.319,8.263,3.24,11.582-0.08l4-4l-2.39-2.39l-4,4 c-1.757,1.757-4.638,2.273-6.817,0.094c-2.179-2.179-1.743-5.139,0.014-6.896C17.059,32.059,25.587,23.531,29.265,19.853z"/><path fill="#c7971c" d="M29.252,19.841c3.678-3.678,11.108-2.714,11.108-2.714L28.626,5.393c0,0,1.945,8.391-1.743,12.079 S14.678,29.678,14.678,29.678c-3.319,3.319-3.319,8.325,0,11.645c3.319,3.319,8.242,3.236,11.561-0.083l4-4L27.87,34.87l-4,4 c-1.757,1.757-4.639,2.297-6.838,0.098c-2.199-2.199-1.742-5.164,0.015-6.922C17.047,32.047,25.574,23.519,29.252,19.841z"/><path fill="#c8981d" d="M29.24,19.829c3.678-3.678,11.046-2.776,11.046-2.776L28.655,5.421c0,0,1.925,8.371-1.763,12.059 S14.686,29.686,14.686,29.686c-3.319,3.319-3.319,8.308,0,11.628c3.319,3.319,8.221,3.232,11.541-0.087l4-4l-2.348-2.348l-4,4 c-1.757,1.757-4.641,2.322-6.86,0.103c-2.219-2.219-1.742-5.189,0.016-6.947C17.034,32.034,25.562,23.507,29.24,19.829z"/><path fill="#c8991e" d="M29.228,19.816c3.678-3.678,10.983-2.839,10.983-2.839L28.683,5.45c0,0,1.905,8.352-1.783,12.039 S14.695,29.695,14.695,29.695c-3.319,3.319-3.319,8.291,0,11.611c3.319,3.319,8.2,3.228,11.52-0.091l4-4l-2.327-2.327l-4,4 c-1.757,1.757-4.642,2.346-6.881,0.107c-2.239-2.239-1.741-5.215,0.016-6.972C17.022,32.022,25.55,23.494,29.228,19.816z"/><path fill="#c99a1f" d="M29.215,19.804c3.678-3.678,10.921-2.901,10.921-2.901L28.712,5.478c0,0,1.885,8.332-1.803,12.019 S14.703,29.703,14.703,29.703c-3.319,3.319-3.319,8.274,0,11.593c3.319,3.319,8.179,3.225,11.499-0.095l4-4l-2.306-2.306l-4,4 c-1.757,1.757-4.644,2.371-6.903,0.112c-2.259-2.259-1.74-5.24,0.017-6.998C17.01,32.01,25.537,23.482,29.215,19.804z"/><path fill="#c99a20" d="M29.203,19.792c3.678-3.678,10.859-2.963,10.859-2.963L28.74,5.507c0,0,1.865,8.312-1.822,11.999 S14.712,29.712,14.712,29.712c-3.319,3.319-3.319,8.257,0,11.576c3.319,3.319,8.158,3.221,11.478-0.099l4-4l-2.285-2.285l-4,4 c-1.757,1.757-4.645,2.395-6.925,0.116c-2.279-2.279-1.74-5.266,0.018-7.023C16.997,31.997,25.525,23.47,29.203,19.792z"/><path fill="#ca9b21" d="M29.191,19.779c3.678-3.678,10.797-3.025,10.797-3.025L28.768,5.535c0,0,1.845,8.292-1.842,11.98 S14.72,29.72,14.72,29.72c-3.319,3.319-3.319,8.24,0,11.559c3.319,3.319,8.137,3.217,11.457-0.102l4-4l-2.265-2.265l-4,4 c-1.757,1.757-4.647,2.42-6.946,0.121c-2.299-2.299-1.739-5.291,0.018-7.048C16.985,31.985,25.513,23.457,29.191,19.779z"/><path fill="#cb9c22" d="M29.178,19.767c3.678-3.678,10.734-3.087,10.734-3.087L28.797,5.564c0,0,1.825,8.272-1.862,11.96 S14.729,29.729,14.729,29.729c-3.319,3.319-3.319,8.223,0,11.542c3.319,3.319,8.117,3.213,11.436-0.106l4-4l-2.244-2.244l-4,4 c-1.757,1.757-4.648,2.444-6.968,0.125c-2.319-2.319-1.738-5.316,0.019-7.074C16.973,31.973,25.5,23.445,29.178,19.767z"/><path fill="#cb9c23" d="M29.166,19.755c3.678-3.678,10.672-3.15,10.672-3.15L28.825,5.592c0,0,1.805,8.252-1.882,11.94 S14.737,29.737,14.737,29.737c-3.319,3.319-3.319,8.206,0,11.525c3.319,3.319,8.096,3.209,11.415-0.11l4-4L27.93,34.93l-4,4 c-1.757,1.757-4.65,2.469-6.989,0.129c-2.339-2.339-1.738-5.342,0.02-7.099C16.96,31.96,25.488,23.433,29.166,19.755z"/><path fill="#cc9d24" d="M29.154,19.742c3.678-3.678,10.61-3.212,10.61-3.212L28.854,5.62c0,0,1.786,8.232-1.902,11.92 S14.746,29.746,14.746,29.746c-3.319,3.319-3.319,8.189,0,11.508c3.319,3.319,8.075,3.206,11.394-0.114l4-4l-2.202-2.202l-4,4 c-1.757,1.757-4.651,2.493-7.011,0.134c-2.36-2.36-1.737-5.367,0.02-7.124C16.948,31.948,25.476,23.42,29.154,19.742z"/><path fill="#cc9e25" d="M29.141,19.73c3.678-3.678,10.548-3.274,10.548-3.274L28.882,5.649c0,0,1.766,8.212-1.922,11.9 S14.755,29.755,14.755,29.755c-3.319,3.319-3.319,8.171,0,11.491c3.319,3.319,8.054,3.202,11.373-0.118l4-4l-2.181-2.181l-4,4 c-1.757,1.757-4.653,2.518-7.032,0.138c-2.38-2.38-1.736-5.392,0.021-7.15C16.936,31.936,25.463,23.408,29.141,19.73z"/><path fill="#cd9e26" d="M29.129,19.718c3.678-3.678,10.486-3.336,10.486-3.336L28.911,5.677c0,0,1.746,8.192-1.942,11.88 S14.763,29.763,14.763,29.763c-3.319,3.319-3.319,8.154,0,11.474c3.319,3.319,8.033,3.198,11.353-0.121l4-4l-2.16-2.16l-4,4 c-1.757,1.757-4.654,2.543-7.054,0.143c-2.4-2.4-1.736-5.418,0.022-7.175C16.923,31.923,25.451,23.396,29.129,19.718z"/><path fill="#cd9f27" d="M29.117,19.705c3.678-3.678,10.423-3.398,10.423-3.398L28.939,5.706c0,0,1.726,8.172-1.962,11.86 S14.772,29.772,14.772,29.772c-3.319,3.319-3.319,8.137,0,11.457c3.319,3.319,8.012,3.194,11.332-0.125l4-4l-2.139-2.139l-4,4 c-1.757,1.757-4.656,2.567-7.075,0.147c-2.42-2.42-1.735-5.443,0.022-7.2C16.911,31.911,25.439,23.383,29.117,19.705z"/><path fill="#cea028" d="M29.104,19.693c3.678-3.678,10.361-3.461,10.361-3.461L28.968,5.734c0,0,1.706,8.152-1.982,11.84 S14.78,29.78,14.78,29.78c-3.319,3.319-3.319,8.12,0,11.44c3.319,3.319,7.991,3.191,11.311-0.129l4-4l-2.118-2.118l-4,4 c-1.757,1.757-4.657,2.592-7.097,0.152c-2.44-2.44-1.734-5.468,0.023-7.226C16.899,31.899,25.426,23.371,29.104,19.693z"/><path fill="#cfa129" d="M29.092,19.681c3.678-3.678,10.299-3.523,10.299-3.523L28.996,5.763c0,0,1.686,8.132-2.002,11.82 S14.789,29.789,14.789,29.789c-3.319,3.319-3.319,8.103,0,11.423c3.319,3.319,7.97,3.187,11.29-0.133l4-4l-2.097-2.097l-4,4 c-1.757,1.757-4.659,2.616-7.119,0.156c-2.46-2.46-1.734-5.494,0.024-7.251C16.886,31.886,25.414,23.359,29.092,19.681z"/><path fill="#cfa12a" d="M29.08,19.668c3.678-3.678,10.237-3.585,10.237-3.585L29.025,5.791c0,0,1.666,8.113-2.022,11.8 S14.797,29.797,14.797,29.797c-3.319,3.319-3.319,8.086,0,11.405c3.319,3.319,7.95,3.183,11.269-0.137l4-4L27.99,34.99l-4,4 c-1.757,1.757-4.66,2.641-7.14,0.161c-2.48-2.48-1.733-5.519,0.024-7.276C16.874,31.874,25.402,23.346,29.08,19.668z"/><path fill="#d0a22b" d="M29.067,19.656c3.678-3.678,10.175-3.647,10.175-3.647L29.053,5.82c0,0,1.646,8.093-2.042,11.78 S14.806,29.806,14.806,29.806c-3.319,3.319-3.319,8.069,0,11.388c3.319,3.319,7.929,3.179,11.248-0.14l4-4l-2.056-2.056l-4,4 c-1.757,1.757-4.662,2.665-7.162,0.165c-2.5-2.5-1.732-5.544,0.025-7.302C16.862,31.862,25.389,23.334,29.067,19.656z"/><path fill="#d0a32c" d="M29.055,19.644c3.678-3.678,10.112-3.709,10.112-3.709L29.082,5.848c0,0,1.626,8.073-2.061,11.76 S14.814,29.814,14.814,29.814c-3.319,3.319-3.319,8.052,0,11.371c3.319,3.319,7.908,3.175,11.227-0.144l4-4l-2.035-2.035l-4,4 c-1.757,1.757-4.663,2.69-7.183,0.17c-2.52-2.52-1.732-5.57,0.026-7.327C16.849,31.849,25.377,23.322,29.055,19.644z"/><path fill="#d1a32d" d="M29.043,19.631c3.678-3.678,10.05-3.772,10.05-3.772L29.11,5.877c0,0,1.606,8.053-2.081,11.741 S14.823,29.823,14.823,29.823c-3.319,3.319-3.319,8.035,0,11.354c3.319,3.319,7.887,3.172,11.206-0.148l4-4l-2.014-2.014l-4,4 c-1.757,1.757-4.665,2.714-7.205,0.174c-2.54-2.54-1.731-5.595,0.026-7.352C16.837,31.837,25.365,23.309,29.043,19.631z"/><path fill="#d2a42e" d="M29.03,19.619c3.678-3.678,9.988-3.834,9.988-3.834l-9.88-9.88c0,0,1.586,8.033-2.101,11.721 S14.831,29.831,14.831,29.831c-3.319,3.319-3.319,8.018,0,11.337c3.319,3.319,7.866,3.168,11.185-0.152l4-4l-1.993-1.993l-4,4 c-1.757,1.757-4.666,2.739-7.226,0.179c-2.56-2.56-1.73-5.62,0.027-7.378C16.825,31.825,25.352,23.297,29.03,19.619z"/><path fill="#d2a52f" d="M29.018,19.607c3.678-3.678,9.926-3.896,9.926-3.896l-9.777-9.777c0,0,1.566,8.013-2.121,11.701 S14.84,29.84,14.84,29.84c-3.319,3.319-3.319,8.001,0,11.32c3.319,3.319,7.845,3.164,11.165-0.155l4-4l-1.972-1.972l-4,4 c-1.757,1.757-4.668,2.763-7.248,0.183c-2.58-2.58-1.73-5.646,0.028-7.403C16.812,31.812,25.34,23.285,29.018,19.607z"/><path fill="#d3a530" d="M29.006,19.594c3.678-3.678,9.864-3.958,9.864-3.958l-9.674-9.674c0,0,1.547,7.993-2.141,11.681 S14.849,29.849,14.849,29.849c-3.319,3.319-3.319,7.983,0,11.303c3.319,3.319,7.824,3.16,11.144-0.159l4-4l-1.951-1.951l-4,4 c-1.757,1.757-4.669,2.788-7.269,0.187c-2.6-2.6-1.729-5.671,0.028-7.428C16.8,31.8,25.328,23.272,29.006,19.594z"/><path fill="#d3a631" d="M28.993,19.582c3.678-3.678,9.801-4.021,9.801-4.021L29.224,5.99c0,0,1.527,7.973-2.161,11.661 S14.857,29.857,14.857,29.857c-3.319,3.319-3.319,7.966,0,11.286c3.319,3.319,7.803,3.156,11.123-0.163l4-4l-1.93-1.93l-4,4 c-1.757,1.757-4.67,2.812-7.291,0.192c-2.62-2.62-1.728-5.696,0.029-7.454C16.788,31.788,25.315,23.26,28.993,19.582z"/><path fill="#d4a732" d="M28.981,19.57c3.678-3.678,9.739-4.083,9.739-4.083l-9.468-9.468c0,0,1.507,7.953-2.181,11.641 S14.866,29.866,14.866,29.866c-3.319,3.319-3.319,7.949,0,11.269c3.319,3.319,7.782,3.153,11.102-0.167l4-4l-1.909-1.909l-4,4 c-1.757,1.757-4.672,2.837-7.313,0.196c-2.641-2.641-1.728-5.722,0.03-7.479C16.775,31.775,25.303,23.248,28.981,19.57z"/><path fill="#d5a833" d="M28.969,19.557c3.678-3.678,9.677-4.145,9.677-4.145l-9.365-9.365c0,0,1.487,7.933-2.201,11.621 S14.874,29.874,14.874,29.874c-3.319,3.319-3.319,7.932,0,11.252c3.319,3.319,7.762,3.149,11.081-0.171l4-4l-1.889-1.889l-4,4 c-1.757,1.757-4.673,2.862-7.334,0.201c-2.661-2.661-1.727-5.747,0.03-7.504C16.763,31.763,25.291,23.235,28.969,19.557z"/><path fill="#d5a834" d="M28.956,19.545c3.678-3.678,9.615-4.207,9.615-4.207l-9.262-9.262c0,0,1.467,7.913-2.221,11.601 S14.883,29.883,14.883,29.883c-3.319,3.319-3.319,7.915,0,11.234c3.319,3.319,7.741,3.145,11.06-0.174l4-4l-1.868-1.868l-4,4 c-1.757,1.757-4.675,2.886-7.356,0.205c-2.681-2.681-1.726-5.772,0.031-7.53C16.751,31.751,25.278,23.223,28.956,19.545z"/><path fill="#d6a935" d="M28.944,19.533c3.678-3.678,9.553-4.269,9.553-4.269l-9.159-9.159c0,0,1.447,7.894-2.241,11.581 S14.891,29.891,14.891,29.891c-3.319,3.319-3.319,7.898,0,11.217c3.319,3.319,7.72,3.141,11.039-0.178l4-4l-1.847-1.847l-4,4 c-1.757,1.757-4.676,2.911-7.377,0.21c-2.701-2.701-1.726-5.798,0.032-7.555C16.738,31.738,25.266,23.211,28.944,19.533z"/><path fill="#d6aa36" d="M28.932,19.52c3.678-3.678,9.49-4.332,9.49-4.332l-9.056-9.056c0,0,1.427,7.874-2.261,11.561 S14.9,29.9,14.9,29.9c-3.319,3.319-3.319,7.881,0,11.2c3.319,3.319,7.699,3.137,11.018-0.182l4-4l-1.826-1.826l-4,4 c-1.757,1.757-4.678,2.935-7.399,0.214c-2.721-2.721-1.725-5.823,0.032-7.58C16.726,31.726,25.254,23.198,28.932,19.52z"/><path fill="#d7aa37" d="M28.919,19.508c3.678-3.678,9.428-4.394,9.428-4.394l-8.953-8.953c0,0,1.407,7.854-2.281,11.541 S14.908,29.908,14.908,29.908c-3.319,3.319-3.319,7.864,0,11.183c3.319,3.319,7.678,3.134,10.997-0.186l4-4l-1.805-1.805l-4,4 c-1.757,1.757-4.679,2.96-7.42,0.219c-2.741-2.741-1.724-5.848,0.033-7.606C16.714,31.714,25.241,23.186,28.919,19.508z"/><path fill="#d7ab38" d="M28.907,19.496c3.678-3.678,9.366-4.456,9.366-4.456l-8.85-8.85c0,0,1.387,7.834-2.3,11.521 S14.917,29.917,14.917,29.917c-3.319,3.319-3.319,7.847,0,11.166c3.319,3.319,7.657,3.13,10.977-0.19l4-4l-1.784-1.784l-4,4 c-1.757,1.757-4.681,2.984-7.442,0.223c-2.761-2.761-1.723-5.874,0.034-7.631C16.701,31.701,25.229,23.174,28.907,19.496z"/><path fill="#d8ac39" d="M28.895,19.483c3.678-3.678,9.304-4.518,9.304-4.518l-8.747-8.747c0,0,1.367,7.814-2.32,11.502 S14.925,29.925,14.925,29.925c-3.319,3.319-3.319,7.83,0,11.149c3.319,3.319,7.636,3.126,10.956-0.193l4-4l-1.763-1.763l-4,4 c-1.757,1.757-4.682,3.009-7.463,0.228c-2.781-2.781-1.723-5.899,0.035-7.657C16.689,31.689,25.217,23.161,28.895,19.483z"/><path fill="#d9ac3a" d="M28.882,19.471c3.678-3.678,9.242-4.58,9.242-4.58L29.48,6.247c0,0,1.347,7.794-2.34,11.482 S14.934,29.934,14.934,29.934c-3.319,3.319-3.319,7.812,0,11.132c3.319,3.319,7.615,3.122,10.935-0.197l4-4l-1.742-1.742l-4,4 c-1.757,1.757-4.684,3.033-7.485,0.232c-2.801-2.801-1.722-5.924,0.035-7.682C16.677,31.677,25.204,23.149,28.882,19.471z"/><path fill="#d9ad3b" d="M28.87,19.459c3.678-3.678,9.179-4.643,9.179-4.643l-8.541-8.541c0,0,1.328,7.774-2.36,11.462 S14.943,29.943,14.943,29.943c-3.319,3.319-3.319,7.795,0,11.115c3.319,3.319,7.594,3.118,10.914-0.201l4-4l-1.721-1.721l-4,4 c-1.757,1.757-4.685,3.058-7.507,0.237c-2.821-2.821-1.721-5.95,0.036-7.707C16.664,31.664,25.192,23.137,28.87,19.459z"/><path fill="#daae3c" d="M28.858,19.446c3.678-3.678,9.117-4.705,9.117-4.705l-8.438-8.438c0,0,1.308,7.754-2.38,11.442 S14.951,29.951,14.951,29.951c-3.319,3.319-3.319,7.778,0,11.098c3.319,3.319,7.574,3.115,10.893-0.205l4-4l-1.701-1.701l-4,4 c-1.757,1.757-4.687,3.082-7.528,0.241c-2.841-2.841-1.721-5.975,0.037-7.733C16.652,31.652,25.18,23.124,28.858,19.446z"/><path fill="#daaf3d" d="M28.845,19.434c3.678-3.678,9.055-4.767,9.055-4.767l-8.335-8.335c0,0,1.288,7.734-2.4,11.422 S14.96,29.96,14.96,29.96c-3.319,3.319-3.319,7.761,0,11.081c3.319,3.319,7.553,3.111,10.872-0.209l4-4l-1.68-1.68l-4,4 c-1.757,1.757-4.688,3.107-7.55,0.245c-2.861-2.861-1.72-6,0.037-7.758C16.64,31.64,25.167,23.112,28.845,19.434z"/><path fill="#dbaf3e" d="M28.833,19.422c3.678-3.678,8.993-4.829,8.993-4.829L29.594,6.36c0,0,1.268,7.714-2.42,11.402 S14.968,29.968,14.968,29.968c-3.319,3.319-3.319,7.744,0,11.064c3.319,3.319,7.532,3.107,10.851-0.212l4-4l-1.659-1.659l-4,4 c-1.757,1.757-4.69,3.131-7.571,0.25c-2.881-2.881-1.719-6.026,0.038-7.783C16.627,31.627,25.155,23.1,28.833,19.422z"/><path fill="#dcb03f" d="M28.821,19.409c3.678-3.678,8.93-4.891,8.93-4.891l-8.129-8.129c0,0,1.248,7.694-2.44,11.382 S14.977,29.977,14.977,29.977c-3.319,3.319-3.319,7.727,0,11.046c3.319,3.319,7.511,3.103,10.83-0.216l4-4l-1.638-1.638l-4,4 c-1.757,1.757-4.691,3.156-7.593,0.254c-2.901-2.901-1.719-6.051,0.039-7.809C16.615,31.615,25.143,23.087,28.821,19.409z"/><path fill="#dcb140" d="M28.808,19.397c3.678-3.678,8.868-4.954,8.868-4.954l-8.026-8.026c0,0,1.228,7.674-2.46,11.362 S14.985,29.985,14.985,29.985c-3.319,3.319-3.319,7.71,0,11.029c3.319,3.319,7.49,3.1,10.809-0.22l4-4l-1.617-1.617l-4,4 c-1.757,1.757-4.693,3.18-7.614,0.259c-2.922-2.922-1.718-6.077,0.039-7.834C16.603,31.603,25.13,23.075,28.808,19.397z"/><path fill="#ddb140" d="M28.796,19.385c3.678-3.678,8.806-5.016,8.806-5.016l-7.923-7.923c0,0,1.208,7.655-2.48,11.342 S14.994,29.994,14.994,29.994c-3.319,3.319-3.319,7.693,0,11.012c3.319,3.319,7.469,3.096,10.789-0.224l4-4l-1.596-1.596l-4,4 c-1.757,1.757-4.694,3.205-7.636,0.263c-2.942-2.942-1.717-6.102,0.04-7.859C16.59,31.59,25.118,23.063,28.796,19.385z"/><path fill="#ddb241" d="M28.784,19.372c3.678-3.678,8.744-5.078,8.744-5.078l-7.82-7.82c0,0,1.188,7.635-2.5,11.322 S15.002,30.002,15.002,30.002c-3.319,3.319-3.319,7.676,0,10.995c3.319,3.319,7.448,3.092,10.768-0.228l4-4l-1.575-1.575l-4,4 c-1.757,1.757-4.696,3.23-7.657,0.268c-2.962-2.962-1.717-6.127,0.041-7.885C16.578,31.578,25.106,23.05,28.784,19.372z"/><path fill="#deb342" d="M28.771,19.36c3.678-3.678,8.682-5.14,8.682-5.14l-7.717-7.717c0,0,1.168,7.615-2.52,11.302 S15.011,30.011,15.011,30.011c-3.319,3.319-3.319,7.659,0,10.978c3.319,3.319,7.427,3.088,10.747-0.231l4-4l-1.554-1.554l-4,4 c-1.757,1.757-4.697,3.254-7.679,0.272c-2.982-2.982-1.716-6.153,0.041-7.91C16.566,31.566,25.093,23.038,28.771,19.36z"/><path fill="#dfb343" d="M28.759,19.348c3.678-3.678,8.619-5.202,8.619-5.202l-7.614-7.614c0,0,1.148,7.595-2.539,11.282 S15.019,30.019,15.019,30.019c-3.319,3.319-3.319,7.642,0,10.961c3.319,3.319,7.406,3.084,10.726-0.235l4-4l-1.534-1.534l-4,4 c-1.757,1.757-4.699,3.279-7.701,0.277c-3.002-3.002-1.715-6.178,0.042-7.935C16.553,31.553,25.081,23.026,28.759,19.348z"/><path fill="#dfb444" d="M28.747,19.335c3.678-3.678,8.557-5.265,8.557-5.265L29.793,6.56c0,0,1.128,7.575-2.559,11.263 S15.028,30.028,15.028,30.028c-3.319,3.319-3.319,7.624,0,10.944c3.319,3.319,7.386,3.081,10.705-0.239l4-4L28.22,35.22l-4,4 c-1.757,1.757-4.7,3.303-7.722,0.281c-3.022-3.022-1.715-6.203,0.043-7.961C16.541,31.541,25.069,23.013,28.747,19.335z"/><path fill="#e0b545" d="M28.734,19.323c3.678-3.678,8.495-5.327,8.495-5.327l-7.408-7.408c0,0,1.108,7.555-2.579,11.243 S15.037,30.037,15.037,30.037c-3.319,3.319-3.319,7.607,0,10.927c3.319,3.319,7.365,3.077,10.684-0.243l4-4l-1.492-1.492l-4,4 c-1.757,1.757-4.702,3.328-7.744,0.286c-3.042-3.042-1.714-6.229,0.043-7.986C16.529,31.529,25.056,23.001,28.734,19.323z"/><path fill="#e0b646" d="M28.722,19.311c3.678-3.678,8.433-5.389,8.433-5.389L29.85,6.617c0,0,1.089,7.535-2.599,11.223 S15.045,30.045,15.045,30.045c-3.319,3.319-3.319,7.59,0,10.91c3.319,3.319,7.344,3.073,10.663-0.246l4-4l-1.471-1.471l-4,4 c-1.757,1.757-4.703,3.352-7.765,0.29c-3.062-3.062-1.713-6.254,0.044-8.011C16.516,31.516,25.044,22.989,28.722,19.311z"/><path fill="#e1b647" d="M28.71,19.298c3.678-3.678,8.371-5.451,8.371-5.451l-7.202-7.202c0,0,1.069,7.515-2.619,11.203 S15.054,30.054,15.054,30.054c-3.319,3.319-3.319,7.573,0,10.893c3.319,3.319,7.323,3.069,10.642-0.25l4-4l-1.45-1.45l-4,4 c-1.757,1.757-4.705,3.377-7.787,0.295c-3.082-3.082-1.713-6.279,0.045-8.037C16.504,31.504,25.032,22.976,28.71,19.298z"/><path fill="#e2b748" d="M28.697,19.286c3.678-3.678,8.308-5.513,8.308-5.513l-7.099-7.099c0,0,1.049,7.495-2.639,11.183 S15.062,30.062,15.062,30.062c-3.319,3.319-3.319,7.556,0,10.876c3.319,3.319,7.302,3.065,10.622-0.254l4-4l-1.429-1.429l-4,4 c-1.757,1.757-4.706,3.401-7.808,0.299c-3.102-3.102-1.712-6.305,0.045-8.062C16.492,31.492,25.019,22.964,28.697,19.286z"/><path fill="#e2b849" d="M28.685,19.274c3.678-3.678,8.246-5.576,8.246-5.576l-6.996-6.996c0,0,1.029,7.475-2.659,11.163 S15.071,30.071,15.071,30.071c-3.319,3.319-3.319,7.539,0,10.858c3.319,3.319,7.281,3.062,10.601-0.258l4-4l-1.408-1.408l-4,4 c-1.757,1.757-4.708,3.426-7.83,0.304c-3.122-3.122-1.711-6.33,0.046-8.087C16.479,31.479,25.007,22.952,28.685,19.274z"/><path fill="#e3b84a" d="M28.673,19.261c3.678-3.678,8.184-5.638,8.184-5.638L29.964,6.73c0,0,1.009,7.455-2.679,11.143 S15.079,30.079,15.079,30.079c-3.319,3.319-3.319,7.522,0,10.841c3.319,3.319,7.26,3.058,10.58-0.262l4-4l-1.387-1.387l-4,4 c-1.757,1.757-4.709,3.45-7.851,0.308c-3.142-3.142-1.711-6.355,0.047-8.113C16.467,31.467,24.995,22.939,28.673,19.261z"/><path fill="#e3b94b" d="M28.66,19.249c3.678-3.678,8.122-5.7,8.122-5.7l-6.79-6.79c0,0,0.989,7.435-2.699,11.123 S15.088,30.088,15.088,30.088c-3.319,3.319-3.319,7.505,0,10.824c3.319,3.319,7.239,3.054,10.559-0.265l4-4L28.28,35.28l-4,4 c-1.757,1.757-4.711,3.475-7.873,0.312c-3.162-3.162-1.71-6.381,0.047-8.138C16.455,31.455,24.982,22.927,28.66,19.249z"/><path fill="#e4ba4c" d="M28.648,19.237c3.678-3.678,8.06-5.762,8.06-5.762l-6.687-6.687c0,0,0.969,7.416-2.719,11.103 S15.096,30.096,15.096,30.096c-3.319,3.319-3.319,7.488,0,10.807c3.319,3.319,7.219,3.05,10.538-0.269l4-4l-1.346-1.346l-4,4 c-1.757,1.757-4.712,3.499-7.895,0.317c-3.183-3.183-1.709-6.406,0.048-8.163C16.442,31.442,24.97,22.915,28.648,19.237z"/><path fill="#e4ba4d" d="M28.636,19.224c3.678-3.678,7.997-5.825,7.997-5.825l-6.584-6.584c0,0,0.949,7.396-2.739,11.083 S15.105,30.105,15.105,30.105c-3.319,3.319-3.319,7.471,0,10.79c3.319,3.319,7.198,3.046,10.517-0.273l4-4l-1.325-1.325l-4,4 c-1.757,1.757-4.714,3.524-7.916,0.321c-3.203-3.203-1.709-6.431,0.049-8.189C16.43,31.43,24.958,22.902,28.636,19.224z"/><path fill="#e5bb4e" d="M28.623,19.212c3.678-3.678,7.935-5.887,7.935-5.887l-6.481-6.481c0,0,0.929,7.376-2.758,11.063 S15.113,30.113,15.113,30.113c-3.319,3.319-3.319,7.453,0,10.773c3.319,3.319,7.177,3.043,10.496-0.277l4-4l-1.304-1.304l-4,4 c-1.757,1.757-4.715,3.549-7.938,0.326c-3.223-3.223-1.708-6.457,0.049-8.214C16.418,31.418,24.945,22.89,28.623,19.212z"/><path fill="#e6bc4f" d="M28.611,19.2c3.678-3.678,7.873-5.949,7.873-5.949l-6.378-6.378c0,0,0.909,7.356-2.778,11.043 S15.122,30.122,15.122,30.122c-3.319,3.319-3.319,7.436,0,10.756c3.319,3.319,7.156,3.039,10.475-0.281l4-4l-1.283-1.283l-4,4 c-1.757,1.757-4.717,3.573-7.959,0.33c-3.243-3.243-1.707-6.482,0.05-8.239C16.405,31.405,24.933,22.878,28.611,19.2z"/><path fill="#e6bd50" d="M28.599,19.187c3.678-3.678,7.811-6.011,7.811-6.011l-6.275-6.275c0,0,0.889,7.336-2.798,11.024 S15.131,30.131,15.131,30.131c-3.319,3.319-3.319,7.419,0,10.739c3.319,3.319,7.135,3.035,10.454-0.284l4-4l-1.262-1.262l-4,4 c-1.757,1.757-4.718,3.598-7.981,0.335c-3.263-3.263-1.707-6.507,0.051-8.265C16.393,31.393,24.921,22.865,28.599,19.187z"/><path fill="#e7bd51" d="M28.586,19.175c3.678-3.678,7.749-6.073,7.749-6.073L30.163,6.93c0,0,0.869,7.316-2.818,11.004 S15.139,30.139,15.139,30.139c-3.319,3.319-3.319,7.402,0,10.722c3.319,3.319,7.114,3.031,10.434-0.288l4-4l-1.241-1.241l-4,4 c-1.757,1.757-4.719,3.622-8.002,0.339c-3.283-3.283-1.706-6.533,0.051-8.29C16.381,31.381,24.908,22.853,28.586,19.175z"/><path fill="#e7be52" d="M28.574,19.163c3.678-3.678,7.686-6.136,7.686-6.136l-6.069-6.069c0,0,0.85,7.296-2.838,10.984 S15.148,30.148,15.148,30.148c-3.319,3.319-3.319,7.385,0,10.705c3.319,3.319,7.093,3.027,10.413-0.292l4-4l-1.22-1.22l-4,4 c-1.757,1.757-4.721,3.647-8.024,0.344c-3.303-3.303-1.705-6.558,0.052-8.315C16.368,31.368,24.896,22.841,28.574,19.163z"/><path fill="#e8bf53" d="M28.562,19.15c3.678-3.678,7.624-6.198,7.624-6.198L30.22,6.987c0,0,0.83,7.276-2.858,10.964 S15.156,30.156,15.156,30.156c-3.319,3.319-3.319,7.368,0,10.687c3.319,3.319,7.072,3.024,10.392-0.296l4-4l-1.199-1.199l-4,4 c-1.757,1.757-4.722,3.671-8.045,0.348c-3.323-3.323-1.705-6.583,0.053-8.341C16.356,31.356,24.884,22.828,28.562,19.15z"/><path fill="#e9bf54" d="M28.549,19.138c3.678-3.678,7.562-6.26,7.562-6.26l-5.863-5.863c0,0,0.81,7.256-2.878,10.944 S15.165,30.165,15.165,30.165c-3.319,3.319-3.319,7.351,0,10.67c3.319,3.319,7.051,3.02,10.371-0.3l4-4l-1.178-1.178l-4,4 c-1.757,1.757-4.724,3.696-8.067,0.353c-3.343-3.343-1.704-6.609,0.053-8.366C16.344,31.344,24.871,22.816,28.549,19.138z"/><path fill="#e9c055" d="M28.537,19.126c3.678-3.678,7.5-6.322,7.5-6.322l-5.76-5.76c0,0,0.79,7.236-2.898,10.924 S15.173,30.173,15.173,30.173c-3.319,3.319-3.319,7.334,0,10.653c3.319,3.319,7.031,3.016,10.35-0.303l4-4l-1.158-1.158l-4,4 c-1.757,1.757-4.725,3.72-8.089,0.357c-3.363-3.363-1.703-6.634,0.054-8.391C16.331,31.331,24.859,22.804,28.537,19.126z"/><path fill="#eac156" d="M28.525,19.113c3.678-3.678,7.438-6.384,7.438-6.384l-5.657-5.657c0,0,0.77,7.216-2.918,10.904 S15.182,30.182,15.182,30.182c-3.319,3.319-3.319,7.317,0,10.636c3.319,3.319,7.01,3.012,10.329-0.307l4-4l-1.137-1.137l-4,4 c-1.757,1.757-4.727,3.745-8.11,0.362c-3.383-3.383-1.703-6.659,0.055-8.417C16.319,31.319,24.847,22.791,28.525,19.113z"/><path fill="#eac157" d="M28.512,19.101c3.678-3.678,7.375-6.447,7.375-6.447L30.334,7.1c0,0,0.75,7.196-2.938,10.884 S15.19,30.19,15.19,30.19c-3.319,3.319-3.319,7.3,0,10.619c3.319,3.319,6.989,3.009,10.308-0.311l4-4l-1.116-1.116l-4,4 c-1.757,1.757-4.728,3.769-8.132,0.366c-3.403-3.403-1.702-6.685,0.055-8.442C16.307,31.307,24.834,22.779,28.512,19.101z"/><path fill="#ebc258" d="M28.5,19.089c3.678-3.678,7.313-6.509,7.313-6.509l-5.451-5.451c0,0,0.73,7.177-2.958,10.864 S15.199,30.199,15.199,30.199c-3.319,3.319-3.319,7.283,0,10.602c3.319,3.319,6.968,3.005,10.287-0.315l4-4l-1.095-1.095l-4,4 c-1.757,1.757-4.73,3.794-8.153,0.37c-3.423-3.423-1.701-6.71,0.056-8.468C16.294,31.294,24.822,22.767,28.5,19.089z"/><path fill="#ecc359" d="M28.488,19.076c3.678-3.678,7.251-6.571,7.251-6.571l-5.348-5.348c0,0,0.71,7.157-2.978,10.844 S15.208,30.208,15.208,30.208c-3.319,3.319-3.319,7.265,0,10.585c3.319,3.319,6.947,3.001,10.266-0.319l4-4L28.4,35.4l-4,4 c-1.757,1.757-4.731,3.818-8.175,0.375c-3.443-3.443-1.7-6.735,0.057-8.493C16.282,31.282,24.81,22.754,28.488,19.076z"/><path fill="#ecc45a" d="M28.475,19.064c3.678-3.678,7.189-6.633,7.189-6.633l-5.245-5.245c0,0,0.69,7.137-2.997,10.824 S15.216,30.216,15.216,30.216c-3.319,3.319-3.319,7.248,0,10.568c3.319,3.319,6.926,2.997,10.246-0.322l4-4l-1.053-1.053l-4,4 c-1.757,1.757-4.733,3.843-8.196,0.379c-3.464-3.464-1.7-6.761,0.058-8.518C16.27,31.27,24.797,22.742,28.475,19.064z"/><path fill="#edc45b" d="M28.463,19.052c3.678-3.678,7.127-6.695,7.127-6.695l-5.142-5.142c0,0,0.67,7.117-3.017,10.805 S15.225,30.225,15.225,30.225c-3.319,3.319-3.319,7.231,0,10.551c3.319,3.319,6.905,2.993,10.225-0.326l4-4l-1.032-1.032l-4,4 c-1.757,1.757-4.734,3.867-8.218,0.384c-3.484-3.484-1.699-6.786,0.058-8.544C16.257,31.257,24.785,22.73,28.463,19.052z"/><path fill="#edc55c" d="M28.451,19.039c3.678-3.678,7.064-6.758,7.064-6.758l-5.039-5.039c0,0,0.65,7.097-3.037,10.785 S15.233,30.233,15.233,30.233c-3.319,3.319-3.319,7.214,0,10.534c3.319,3.319,6.884,2.99,10.204-0.33l4-4l-1.011-1.011l-4,4 c-1.757,1.757-4.736,3.892-8.24,0.388c-3.504-3.504-1.698-6.812,0.059-8.569C16.245,31.245,24.773,22.717,28.451,19.039z"/><path fill="#eec65d" d="M28.438,19.027c3.678-3.678,7.002-6.82,7.002-6.82l-4.936-4.936c0,0,0.63,7.077-3.057,10.765 S15.242,30.242,15.242,30.242c-3.319,3.319-3.319,7.197,0,10.517c3.319,3.319,6.863,2.986,10.183-0.334l4-4l-0.99-0.99l-4,4 c-1.757,1.757-4.737,3.917-8.261,0.393c-3.524-3.524-1.698-6.837,0.06-8.594C16.233,31.233,24.76,22.705,28.438,19.027z"/><path fill="#eec65e" d="M28.426,19.015c3.678-3.678,6.94-6.882,6.94-6.882L30.533,7.3c0,0,0.611,7.057-3.077,10.745 S15.25,30.25,15.25,30.25c-3.319,3.319-3.319,7.18,0,10.499c3.319,3.319,6.843,2.982,10.162-0.337l4-4l-0.97-0.97l-4,4 c-1.757,1.757-4.739,3.941-8.283,0.397c-3.544-3.544-1.697-6.862,0.06-8.62C16.22,31.22,24.748,22.693,28.426,19.015z"/><path fill="#efc75f" d="M28.414,19.002c3.678-3.678,6.878-6.944,6.878-6.944l-4.73-4.73c0,0,0.591,7.037-3.097,10.725 S15.259,30.259,15.259,30.259c-3.319,3.319-3.319,7.163,0,10.482c3.319,3.319,6.822,2.978,10.141-0.341l4-4l-0.949-0.949l-4,4 c-1.757,1.757-4.74,3.966-8.304,0.402c-3.564-3.564-1.696-6.888,0.061-8.645C16.208,31.208,24.736,22.68,28.414,19.002z"/><path fill="#f0c860" d="M28.401,18.99c3.678-3.678,6.815-7.006,6.815-7.006L30.59,7.357c0,0,0.571,7.017-3.117,10.705 S15.267,30.267,15.267,30.267c-3.319,3.319-3.319,7.146,0,10.465c3.319,3.319,6.801,2.974,10.12-0.345l4-4L28.46,35.46l-4,4 c-1.757,1.757-4.742,3.99-8.326,0.406c-3.584-3.584-1.696-6.913,0.062-8.67C16.196,31.196,24.723,22.668,28.401,18.99z"/><path fill="#f0c861" d="M28.389,18.978c3.678-3.678,6.753-7.069,6.753-7.069l-4.524-4.524c0,0,0.551,6.997-3.137,10.685 S15.276,30.276,15.276,30.276c-3.319,3.319-3.319,7.129,0,10.448c3.319,3.319,6.78,2.971,10.099-0.349l4-4l-0.907-0.907l-4,4 c-1.757,1.757-4.743,4.015-8.347,0.411c-3.604-3.604-1.695-6.938,0.062-8.696C16.183,31.183,24.711,22.656,28.389,18.978z"/><path fill="#f1c962" d="M28.377,18.965c3.678-3.678,6.691-7.131,6.691-7.131l-4.421-4.421c0,0,0.531,6.977-3.157,10.665 S15.284,30.284,15.284,30.284c-3.319,3.319-3.319,7.112,0,10.431c3.319,3.319,6.759,2.967,10.078-0.353l4-4l-0.886-0.886l-4,4 c-1.757,1.757-4.745,4.039-8.369,0.415c-3.624-3.624-1.694-6.964,0.063-8.721C16.171,31.171,24.699,22.643,28.377,18.965z"/><path fill="#f1ca63" d="M28.364,18.953c3.678-3.678,6.629-7.193,6.629-7.193l-4.318-4.318c0,0,0.511,6.957-3.177,10.645 S15.293,30.293,15.293,30.293c-3.319,3.319-3.319,7.095,0,10.414c3.319,3.319,6.738,2.963,10.058-0.356l4-4l-0.865-0.865l-4,4 c-1.757,1.757-4.746,4.064-8.39,0.42c-3.644-3.644-1.694-6.989,0.064-8.746C16.159,31.159,24.686,22.631,28.364,18.953z"/><path fill="#f2cb64" d="M28.352,18.941c3.678-3.678,6.567-7.255,6.567-7.255l-4.215-4.215c0,0,0.491,6.938-3.197,10.625 S15.302,30.302,15.302,30.302c-3.319,3.319-3.319,7.077,0,10.397c3.319,3.319,6.717,2.959,10.037-0.36l4-4l-0.844-0.844l-4,4 c-1.757,1.757-4.748,4.088-8.412,0.424c-3.664-3.664-1.693-7.014,0.064-8.772C16.146,31.146,24.674,22.619,28.352,18.941z"/><path fill="#f3cb65" d="M28.34,18.928c3.678-3.678,6.504-7.317,6.504-7.317l-4.112-4.112c0,0,0.471,6.918-3.217,10.605 S15.31,30.31,15.31,30.31c-3.319,3.319-3.319,7.06,0,10.38c3.319,3.319,6.696,2.955,10.016-0.364l4-4l-0.823-0.823l-4,4 c-1.757,1.757-4.749,4.113-8.434,0.428c-3.684-3.684-1.692-7.04,0.065-8.797C16.134,31.134,24.662,22.606,28.34,18.928z"/><path fill="#f3cc66" d="M28.327,18.916c3.678-3.678,6.442-7.38,6.442-7.38l-4.009-4.009c0,0,0.451,6.898-3.236,10.585 S15.319,30.319,15.319,30.319c-3.319,3.319-3.319,7.043,0,10.363c3.319,3.319,6.675,2.952,9.995-0.368l4-4l-0.803-0.803l-4,4 c-1.757,1.757-4.751,4.137-8.455,0.433c-3.704-3.704-1.692-7.065,0.066-8.822C16.122,31.122,24.649,22.594,28.327,18.916z"/><path fill="#f4cd67" d="M28.315,18.904c3.678-3.678,6.38-7.442,6.38-7.442l-3.906-3.906c0,0,0.431,6.878-3.256,10.566 S15.327,30.327,15.327,30.327c-3.319,3.319-3.319,7.026,0,10.346c3.319,3.319,6.655,2.948,9.974-0.372l4-4L28.52,35.52l-4,4 c-1.757,1.757-4.752,4.162-8.477,0.437c-3.724-3.724-1.691-7.09,0.066-8.848C16.109,31.109,24.637,22.582,28.315,18.904z"/><path fill="#f4cd68" d="M28.303,18.891c3.678-3.678,6.318-7.504,6.318-7.504l-3.803-3.803c0,0,0.411,6.858-3.276,10.546 S15.336,30.336,15.336,30.336c-3.319,3.319-3.319,7.009,0,10.329c3.319,3.319,6.634,2.944,9.953-0.375l4-4l-0.761-0.761l-4,4 c-1.757,1.757-4.754,4.186-8.498,0.442c-3.745-3.745-1.69-7.116,0.067-8.873C16.097,31.097,24.625,22.569,28.303,18.891z"/><path fill="#f5ce69" d="M28.29,18.879c3.678-3.678,6.256-7.566,6.256-7.566l-3.7-3.7c0,0,0.391,6.838-3.296,10.526 S15.344,30.344,15.344,30.344c-3.319,3.319-3.319,6.992,0,10.311c3.319,3.319,6.613,2.94,9.932-0.379l4-4l-0.74-0.74l-4,4 c-1.757,1.757-4.755,4.211-8.52,0.446c-3.765-3.765-1.69-7.141,0.068-8.898C16.085,31.085,24.612,22.557,28.29,18.879z"/><path fill="#f6cf6a" d="M28.278,18.867c3.678-3.678,6.193-7.628,6.193-7.628l-3.597-3.597c0,0,0.372,6.818-3.316,10.506 S15.353,30.353,15.353,30.353c-3.319,3.319-3.319,6.975,0,10.294c3.319,3.319,6.592,2.936,9.911-0.383l4-4l-0.719-0.719l-4,4 c-1.757,1.757-4.757,4.236-8.541,0.451c-3.785-3.785-1.689-7.166,0.068-8.924C16.072,31.072,24.6,22.545,28.278,18.867z"/><path fill="#f6cf6b" d="M28.266,18.854c3.678-3.678,6.131-7.691,6.131-7.691L30.903,7.67c0,0,0.352,6.798-3.336,10.486 S15.361,30.361,15.361,30.361c-3.319,3.319-3.319,6.958,0,10.277c3.319,3.319,6.571,2.933,9.891-0.387l4-4l-0.698-0.698l-4,4 c-1.757,1.757-4.758,4.26-8.563,0.455c-3.805-3.805-1.688-7.192,0.069-8.949C16.06,31.06,24.588,22.532,28.266,18.854z"/><path fill="#f7d06c" d="M28.253,18.842c3.678-3.678,6.069-7.753,6.069-7.753l-3.391-3.391c0,0,0.332,6.778-3.356,10.466 S15.37,30.37,15.37,30.37c-3.319,3.319-3.319,6.941,0,10.26c3.319,3.319,6.55,2.929,9.87-0.391l4-4l-0.677-0.677l-4,4 c-1.757,1.757-4.76,4.285-8.584,0.46c-3.825-3.825-1.688-7.217,0.07-8.974C16.048,31.048,24.575,22.52,28.253,18.842z"/><path fill="#f7d16d" d="M28.241,18.83c3.678-3.678,6.007-7.815,6.007-7.815L30.96,7.727c0,0,0.312,6.758-3.376,10.446 S15.378,30.378,15.378,30.378c-3.319,3.319-3.319,6.924,0,10.243c3.319,3.319,6.529,2.925,9.849-0.394l4-4l-0.656-0.656l-4,4 c-1.757,1.757-4.761,4.309-8.606,0.464c-3.845-3.845-1.687-7.242,0.07-9C16.035,31.035,24.563,22.508,28.241,18.83z"/><path fill="#f8d26e" d="M28.229,18.817c3.678-3.678,5.945-7.877,5.945-7.877l-3.185-3.185c0,0,0.292,6.738-3.396,10.426 S15.387,30.387,15.387,30.387c-3.319,3.319-3.319,6.906,0,10.226c3.319,3.319,6.508,2.921,9.828-0.398l4-4l-0.635-0.635l-4,4 c-1.757,1.757-4.763,4.334-8.628,0.469c-3.865-3.865-1.686-7.268,0.071-9.025C16.023,31.023,24.551,22.495,28.229,18.817z"/><path fill="#f9d26f" d="M28.216,18.805c3.678-3.678,5.882-7.94,5.882-7.94l-3.082-3.082c0,0,0.272,6.719-3.416,10.406 S15.396,30.396,15.396,30.396c-3.319,3.319-3.319,6.889,0,10.209c3.319,3.319,6.488,2.918,9.807-0.402l4-4l-0.615-0.615l-4,4 c-1.757,1.757-4.764,4.358-8.649,0.473c-3.885-3.885-1.686-7.293,0.072-9.05C16.011,31.011,24.538,22.483,28.216,18.805z"/><path fill="#f9d370" d="M28.204,18.793c3.678-3.678,5.82-8.002,5.82-8.002l-2.979-2.979c0,0,0.252,6.699-3.436,10.386 S15.404,30.404,15.404,30.404c-3.319,3.319-3.319,6.872,0,10.192c3.319,3.319,6.467,2.914,9.786-0.406l4-4l-0.594-0.594l-4,4 c-1.757,1.757-4.766,4.383-8.671,0.478c-3.905-3.905-1.685-7.318,0.072-9.076C15.998,30.998,24.526,22.471,28.204,18.793z"/><path fill="#fad471" d="M28.192,18.78c3.678-3.678,5.758-8.064,5.758-8.064l-2.876-2.876c0,0,0.232,6.679-3.456,10.366 S15.413,30.413,15.413,30.413c-3.319,3.319-3.319,6.855,0,10.175c3.319,3.319,6.446,2.91,9.765-0.41l4-4l-0.573-0.573l-4,4 c-1.757,1.757-4.767,4.407-8.692,0.482c-3.925-3.925-1.684-7.344,0.073-9.101C15.986,30.986,24.514,22.458,28.192,18.78z"/><path fill="#fad472" d="M28.179,18.768c3.678-3.678,5.696-8.126,5.696-8.126l-2.773-2.773c0,0,0.212,6.659-3.475,10.346 S15.421,30.421,15.421,30.421c-3.319,3.319-3.319,6.838,0,10.158c3.319,3.319,6.425,2.906,9.744-0.413l4-4l-0.552-0.552l-4,4 c-1.757,1.757-4.768,4.432-8.714,0.487c-3.945-3.945-1.684-7.369,0.074-9.126C15.974,30.974,24.501,22.446,28.179,18.768z"/><path fill="#fbd573" d="M28.167,18.756c3.678-3.678,5.634-8.188,5.634-8.188l-2.67-2.67c0,0,0.192,6.639-3.495,10.327 S15.43,30.43,15.43,30.43c-3.319,3.319-3.319,6.821,0,10.14c3.319,3.319,6.404,2.902,9.723-0.417l4-4l-0.531-0.531l-4,4 c-1.757,1.757-4.77,4.456-8.735,0.491s-1.683-7.394,0.074-9.152C15.961,30.961,24.489,22.434,28.167,18.756z"/><path fill="#fbd674" d="M28.155,18.743c3.678-3.678,5.571-8.251,5.571-8.251l-2.567-2.567c0,0,0.172,6.619-3.515,10.307 S15.438,30.438,15.438,30.438c-3.319,3.319-3.319,6.804,0,10.123c3.319,3.319,6.383,2.899,9.703-0.421l4-4l-0.51-0.51l-4,4 c-1.757,1.757-4.771,4.481-8.757,0.495s-1.682-7.42,0.075-9.177C15.949,30.949,24.477,22.421,28.155,18.743z"/><path fill="#fcd675" d="M28.142,18.731c3.678-3.678,5.509-8.313,5.509-8.313l-2.464-2.464c0,0,0.153,6.599-3.535,10.287 S15.447,30.447,15.447,30.447c-3.319,3.319-3.319,6.787,0,10.106c3.319,3.319,6.362,2.895,9.682-0.425l4-4l-0.489-0.489l-4,4 c-1.757,1.757-4.773,4.505-8.778,0.5s-1.682-7.445,0.076-9.202C15.937,30.937,24.464,22.409,28.142,18.731z"/><path fill="#fdd776" d="M28.13,18.719c3.678-3.678,5.447-8.375,5.447-8.375l-2.361-2.361c0,0,0.133,6.579-3.555,10.267 S15.455,30.455,15.455,30.455c-3.319,3.319-3.319,6.77,0,10.089c3.319,3.319,6.341,2.891,9.661-0.428l4-4l-0.468-0.468l-4,4 c-1.757,1.757-4.774,4.53-8.8,0.504s-1.681-7.47,0.076-9.228C15.924,30.924,24.452,22.397,28.13,18.719z"/><path fill="#fdd877" d="M28.118,18.706c3.678-3.678,5.385-8.437,5.385-8.437l-2.258-2.258c0,0,0.113,6.559-3.575,10.247 S15.464,30.464,15.464,30.464c-3.319,3.319-3.319,6.753,0,10.072c3.319,3.319,6.32,2.887,9.64-0.432l4-4l-0.447-0.447l-4,4 c-1.757,1.757-4.776,4.554-8.822,0.509s-1.68-7.496,0.077-9.253C15.912,30.912,24.44,22.384,28.118,18.706z"/><path fill="#fed978" d="M28.105,18.694c3.678-3.678,5.323-8.499,5.323-8.499L31.273,8.04c0,0,0.093,6.539-3.595,10.227 S15.472,30.472,15.472,30.472c-3.319,3.319-3.319,6.736,0,10.055c3.319,3.319,6.3,2.883,9.619-0.436l4-4l-0.427-0.427l-4,4 c-1.757,1.757-4.777,4.579-8.843,0.513s-1.68-7.521,0.078-9.279C15.9,30.9,24.427,22.372,28.105,18.694z"/><path fill="#fed979" d="M28.093,18.682c3.678-3.678,5.26-8.562,5.26-8.562l-2.052-2.052c0,0,0.073,6.519-3.615,10.207 S15.481,30.481,15.481,30.481c-3.319,3.319-3.319,6.718,0,10.038c3.319,3.319,6.279,2.88,9.598-0.44l4-4l-0.406-0.406l-4,4 c-1.757,1.757-4.779,4.604-8.865,0.518s-1.679-7.546,0.078-9.304C15.887,30.887,24.415,22.36,28.093,18.682z"/><path fill="#ffda7a" d="M28.081,18.669c3.678-3.678,5.198-8.624,5.198-8.624L31.33,8.097c0,0,0.053,6.499-3.635,10.187 S15.49,30.49,15.49,30.49c-3.319,3.319-3.319,6.701,0,10.021c3.319,3.319,6.258,2.876,9.577-0.444l4-4l-0.385-0.385l-4,4 c-1.757,1.757-4.78,4.628-8.886,0.522s-1.678-7.572,0.079-9.329C15.875,30.875,24.403,22.347,28.081,18.669z"/></g><linearGradient id="euSinEZHqqSUBd5EnfpGtl" x1="17.006" x2="17.006" y1="-18.119" y2="-17.051" gradientTransform="matrix(-.7709 -.7709 2.0337 -2.0337 67.639 -2.043)" gradientUnits="userSpaceOnUse"><stop offset="0" stop-color="#cb9c23"/><stop offset=".216" stop-color="#ffda7a"/><stop offset=".367" stop-color="#ffda7a"/><stop offset=".694" stop-color="#ba8806"/><stop offset="1" stop-color="#d2a329"/></linearGradient><path fill="url(#euSinEZHqqSUBd5EnfpGtl)" d="M19.853,19.523L19.853,19.523c0.171,0.171,0.171,0.449,0,0.62l-1.512,1.512	c-0.171,0.171-0.449,0.171-0.62,0l0,0c-0.171-0.171-0.171-0.449,0-0.62l1.512-1.512C19.404,19.352,19.682,19.352,19.853,19.523z"/><linearGradient id="euSinEZHqqSUBd5EnfpGtm" x1="17.006" x2="17.006" y1="-19.681" y2="-18.613" gradientTransform="matrix(-.7709 -.7709 2.0337 -2.0337 67.639 -2.043)" gradientUnits="userSpaceOnUse"><stop offset="0" stop-color="#cb9c23"/><stop offset=".216" stop-color="#ffda7a"/><stop offset=".367" stop-color="#ffda7a"/><stop offset=".694" stop-color="#ba8806"/><stop offset="1" stop-color="#d2a329"/></linearGradient><path fill="url(#euSinEZHqqSUBd5EnfpGtm)" d="M16.676,22.7L16.676,22.7c0.171,0.171,0.171,0.449,0,0.62l-1.512,1.512	c-0.171,0.171-0.449,0.171-0.62,0h0c-0.171-0.171-0.171-0.449,0-0.62l1.512-1.512C16.227,22.529,16.505,22.529,16.676,22.7z"/><linearGradient id="euSinEZHqqSUBd5EnfpGtn" x1="17.006" x2="17.006" y1="-21.237" y2="-20.169" gradientTransform="matrix(-.7709 -.7709 2.0337 -2.0337 67.639 -2.043)" gradientUnits="userSpaceOnUse"><stop offset="0" stop-color="#cb9c23"/><stop offset=".216" stop-color="#ffda7a"/><stop offset=".367" stop-color="#ffda7a"/><stop offset=".694" stop-color="#ba8806"/><stop offset="1" stop-color="#d2a329"/></linearGradient><path fill="url(#euSinEZHqqSUBd5EnfpGtn)" d="M13.512,25.865L13.512,25.865c0.171,0.171,0.171,0.449,0,0.62l-1.512,1.512	c-0.171,0.171-0.449,0.171-0.62,0l0,0c-0.171-0.171-0.171-0.449,0-0.62l1.512-1.512C13.063,25.693,13.341,25.693,13.512,25.865z"/><linearGradient id="euSinEZHqqSUBd5EnfpGto" x1="29.321" x2="30.742" y1="32.516" y2="31.095" gradientUnits="userSpaceOnUse"><stop offset="0" stop-color="#cb9c23"/><stop offset=".216" stop-color="#ffda7a"/><stop offset=".367" stop-color="#ffda7a"/><stop offset=".694" stop-color="#ba8806"/><stop offset="1" stop-color="#d2a329"/></linearGradient><path fill="url(#euSinEZHqqSUBd5EnfpGto)" d="M32.895,36.084l-7.463-7.463l1.414-1.414l7.463,7.463c0.177,0.177,0.177,0.464,0,0.641	l-0.773,0.773C33.359,36.262,33.072,36.261,32.895,36.084z"/><linearGradient id="euSinEZHqqSUBd5EnfpGtp" x1="26.088" x2="27.509" y1="35.748" y2="34.328" gradientUnits="userSpaceOnUse"><stop offset="0" stop-color="#cb9c23"/><stop offset=".216" stop-color="#ffda7a"/><stop offset=".367" stop-color="#ffda7a"/><stop offset=".694" stop-color="#ba8806"/><stop offset="1" stop-color="#d2a329"/></linearGradient><path fill="url(#euSinEZHqqSUBd5EnfpGtp)" d="M29.662,39.317l-7.463-7.463l1.414-1.414l7.463,7.463c0.177,0.177,0.177,0.464,0,0.641	l-0.773,0.773C30.126,39.494,29.839,39.494,29.662,39.317z"/><linearGradient id="euSinEZHqqSUBd5EnfpGtq" x1="22.932" x2="24.352" y1="38.905" y2="37.484" gradientUnits="userSpaceOnUse"><stop offset="0" stop-color="#cb9c23"/><stop offset=".216" stop-color="#ffda7a"/><stop offset=".367" stop-color="#ffda7a"/><stop offset=".694" stop-color="#ba8806"/><stop offset="1" stop-color="#d2a329"/></linearGradient><path fill="url(#euSinEZHqqSUBd5EnfpGtq)" d="M26.505,42.474l-7.463-7.463l1.414-1.414l7.463,7.463c0.177,0.177,0.177,0.464,0,0.641	l-0.773,0.773C26.969,42.651,26.682,42.651,26.505,42.474z"/><linearGradient id="euSinEZHqqSUBd5EnfpGtr" x1="28.01" x2="41.745" y1="5.066" y2="18.801" gradientUnits="userSpaceOnUse"><stop offset="0" stop-color="#8c6500"/><stop offset=".238" stop-color="#f0c452"/><stop offset=".412" stop-color="#f0c452"/><stop offset=".726" stop-color="#9c7306"/><stop offset="1" stop-color="#b98c19"/></linearGradient><path fill="url(#euSinEZHqqSUBd5EnfpGtr)" d="M28.177,5.522L41.25,18.594c0.467,0.099,0.75,0.172,0.75,0.172l-14-14	C28,4.767,28.076,5.051,28.177,5.522z"/><linearGradient id="euSinEZHqqSUBd5EnfpGts" x1="38.736" x2="38.736" y1="-13.987" y2="-6.683" gradientTransform="matrix(.7709 -.7709 2.0337 2.0337 26.322 62.11)" gradientUnits="userSpaceOnUse"><stop offset="0" stop-color="#cb9c23"/><stop offset=".216" stop-color="#ffda7a"/><stop offset=".367" stop-color="#ffda7a"/><stop offset=".694" stop-color="#ba8806"/><stop offset="1" stop-color="#d2a329"/></linearGradient><path fill="url(#euSinEZHqqSUBd5EnfpGts)" d="M42.599,18.664L42.599,18.664c-0.218,0.218-0.572,0.218-0.79,0L28.018,4.873	c-0.218-0.218-0.218-0.572,0-0.79l0,0c0.218-0.218,0.572-0.218,0.79,0l13.792,13.792C42.817,18.093,42.817,18.446,42.599,18.664z"/></svg>