<svg xmlns="http://www.w3.org/2000/svg" viewBox="0 0 48 48"><linearGradient id="NSpzAz0h5zok34_pTDA9na" x1="42" x2="6" y1="32.5" y2="32.5" gradientUnits="userSpaceOnUse"><stop offset="0" stop-color="#575757"/><stop offset=".345" stop-color="#bfbfbf"/><stop offset=".423" stop-color="#a9a9a9"/><stop offset=".554" stop-color="#8a8a8a"/><stop offset=".665" stop-color="#777"/><stop offset=".743" stop-color="#707070"/><stop offset="1" stop-color="#6e6e6e"/></linearGradient><path fill="url(#NSpzAz0h5zok34_pTDA9na)" d="M42,32.5c0,4.647-8.047,8.5-18,8.5S6,37.147,6,32.5S14.047,24,24,24S42,27.74,42,32.5z"/><linearGradient id="NSpzAz0h5zok34_pTDA9nb" x1="7" x2="41" y1="29.45" y2="29.45" gradientUnits="userSpaceOnUse"><stop offset="0" stop-color="#d57305"/><stop offset=".315" stop-color="#ee8d06"/><stop offset=".508" stop-color="#ffa006"/><stop offset=".87" stop-color="#cc6905"/><stop offset=".94" stop-color="#d77b05"/><stop offset=".999" stop-color="#e38e06"/></linearGradient><path fill="url(#NSpzAz0h5zok34_pTDA9nb)" d="M24,24.4c-6.5,0-14-1.5-17-5.5V32l0.2,1c1.1,3.9,7.6,7,16.8,7s15.7-3.1,16.8-7l0.2-1V18.9	C38.3,21.9,32.4,24.4,24,24.4z"/><linearGradient id="NSpzAz0h5zok34_pTDA9nc" x1="42" x2="6" y1="16" y2="16" gradientUnits="userSpaceOnUse"><stop offset="0" stop-color="gray"/><stop offset=".501" stop-color="#c4c4c4"/><stop offset=".557" stop-color="#b9b9b9"/><stop offset=".739" stop-color="#9a9a9a"/><stop offset=".893" stop-color="#878787"/><stop offset="1" stop-color="gray"/></linearGradient><path fill="url(#NSpzAz0h5zok34_pTDA9nc)" d="M42,16c0,4.373-8.047,8-18,8S6,20.373,6,16s8.047-8,18-8S42,11.52,42,16z"/><radialGradient id="NSpzAz0h5zok34_pTDA9nd" cx="24" cy="16.5" r="17.007" gradientTransform="matrix(1 0 0 .4423 0 9.201)" gradientUnits="userSpaceOnUse"><stop offset="0" stop-color="#fcf9f4"/><stop offset="1" stop-color="#e0dbd3"/></radialGradient><path fill="url(#NSpzAz0h5zok34_pTDA9nd)" d="M41,16.5c0,4.1-7.6,7.5-17,7.5S7,20.6,7,16.5S14.6,9,24,9S41,12.3,41,16.5z"/><linearGradient id="NSpzAz0h5zok34_pTDA9ne" x1="6" x2="42" y1="20.247" y2="20.247" gradientUnits="userSpaceOnUse"><stop offset="0" stop-color="gray"/><stop offset=".501" stop-color="#dedede"/><stop offset=".643" stop-color="#b9b9b9"/><stop offset=".79" stop-color="#9a9a9a"/><stop offset=".914" stop-color="#878787"/><stop offset="1" stop-color="gray"/></linearGradient><path fill="url(#NSpzAz0h5zok34_pTDA9ne)" d="M42,16c0-0.171-0.034-0.337-0.057-0.505C41.362,19.642,33.573,23,24,23	c-9.569,0-17.355-3.355-17.943-7.5C6.034,15.666,6,15.831,6,16c0,0.089,0,0.92,0,1c0,4.373,8.047,8,18,8s18-3.627,18-8	C42,16.919,42,16.088,42,16z"/><linearGradient id="NSpzAz0h5zok34_pTDA9nf" x1="6" x2="42" y1="36.997" y2="36.997" gradientUnits="userSpaceOnUse"><stop offset="0" stop-color="gray"/><stop offset=".501" stop-color="#dedede"/><stop offset=".643" stop-color="#b9b9b9"/><stop offset=".79" stop-color="#9a9a9a"/><stop offset=".914" stop-color="#878787"/><stop offset="1" stop-color="gray"/></linearGradient><path fill="url(#NSpzAz0h5zok34_pTDA9nf)" d="M42,32.5c0-0.171-0.033-0.337-0.053-0.505C41.397,36.416,33.596,40,24,40	c-9.592,0-17.391-3.581-17.946-8C6.033,32.166,6,32.331,6,32.5c0,0.087,0,0.918,0,1c0,4.647,8.047,8.5,18,8.5s18-3.853,18-8.5	C42,33.417,42,32.586,42,32.5z"/><path fill="#dba839" d="M16.981,16.405c0.539-0.091,0.956-0.374,1.374-0.654l1.261-0.831l2.521-1.663l5.038-3.332 c3.352-2.232,6.692-4.482,10.017-6.757c0.348-0.238,0.823-0.149,1.061,0.199c0.238,0.348,0.149,0.823-0.199,1.061 c-0.012,0.009-0.027,0.018-0.04,0.025c-3.459,2.064-6.903,4.152-10.335,6.259l-5.138,3.176l-2.567,1.591l-1.284,0.795 c-0.43,0.262-0.861,0.522-1.17,0.973c-0.17,0.247-0.508,0.311-0.755,0.141c-0.247-0.17-0.311-0.508-0.141-0.755 C16.71,16.508,16.841,16.429,16.981,16.405z"/><path fill="#dba839" d="M19.918,19.023c0.544,0.05,1.02-0.116,1.496-0.28l1.431-0.481l2.863-0.961l5.724-1.929 c3.812-1.298,7.617-2.618,11.414-3.964c0.397-0.141,0.833,0.067,0.974,0.464c0.141,0.397-0.067,0.833-0.464,0.974 c-0.014,0.005-0.031,0.01-0.045,0.014c-3.873,1.109-7.737,2.244-11.594,3.401l-5.78,1.753l-2.889,0.88l-1.444,0.44 c-0.483,0.143-0.966,0.284-1.38,0.64c-0.227,0.196-0.57,0.17-0.766-0.057c-0.196-0.227-0.17-0.57,0.057-0.766 C19.63,19.053,19.777,19.011,19.918,19.023z"/><polygon points="32,22.191 31,22.406 31,41.315 32,41.089" opacity=".2"/><polygon points="19,23 18,23 18,41.501 19,41.655" opacity=".2"/><polygon points="40,18.698 39,19.423 39,38.169 40,37.37" opacity=".2"/><polygon points="11,20.531 10,20.021 10,38.816 11,39.356" opacity=".2"/><line x1="30.5" x2="30.5" y1="41.435" y2="22.457" fill="none" stroke="#a8a8a8" stroke-linecap="round" stroke-miterlimit="10"/><line x1="38.5" x2="38.5" y1="38.516" y2="19.72" fill="none" stroke="#a1a1a1" stroke-linecap="round" stroke-miterlimit="10"/><line x1="17.5" x2="17.5" y1="41.439" y2="22.451" fill="none" stroke="#c9c9c9" stroke-linecap="round" stroke-miterlimit="10"/><line x1="9.5" x2="9.5" y1="38.477" y2="19.728" fill="none" stroke="#bfbfbf" stroke-linecap="round" stroke-miterlimit="10"/></svg>