<svg xmlns="http://www.w3.org/2000/svg" xmlns:xlink="http://www.w3.org/1999/xlink" viewBox="0 0 48 48"><defs><linearGradient id="3mLDmxjuatQwyLVgAbFZId" x1="27.26" x2="38.08" y1="21.88" y2="24.24" gradientUnits="userSpaceOnUse"><stop offset=".52" stop-color="#ecf1f5"/><stop offset=".65" stop-color="#e5ebef"/><stop offset=".83" stop-color="#d1d9de"/><stop offset=".98" stop-color="#bcc5cc"/></linearGradient><radialGradient id="3mLDmxjuatQwyLVgAbFZIa" cx="30.8" cy="11.6" r="31.94" gradientTransform="rotate(81.66 25.798 7.281) scale(1 .25)" gradientUnits="userSpaceOnUse"><stop offset="0" stop-color="#bcc5cc" stop-opacity="0"/><stop offset=".23" stop-color="#bbc4cc" stop-opacity=".02"/><stop offset=".38" stop-color="#b9c3ca" stop-opacity=".07"/><stop offset=".51" stop-color="#b5bfc7" stop-opacity=".15"/><stop offset=".63" stop-color="#b0bbc3" stop-opacity=".28"/><stop offset=".74" stop-color="#a9b5be" stop-opacity=".44"/><stop offset=".84" stop-color="#a1aeb8" stop-opacity=".63"/><stop offset=".93" stop-color="#97a6b1" stop-opacity=".86"/><stop offset=".98" stop-color="#91a1ad"/></radialGradient><radialGradient id="3mLDmxjuatQwyLVgAbFZIh" cx="34.7" cy="20.62" r="20.15" gradientTransform="matrix(-.03 1 -.48 -.02 45.71 -13.74)" xlink:href="#3mLDmxjuatQwyLVgAbFZIa"/><linearGradient id="3mLDmxjuatQwyLVgAbFZIe" x1="34.62" x2="38.4" y1="13.44" y2="13.33" gradientUnits="userSpaceOnUse"><stop offset="0" stop-color="#bcc5cc" stop-opacity="0"/><stop offset=".1" stop-color="#bcc5cc" stop-opacity=".03"/><stop offset=".25" stop-color="#bcc5cc" stop-opacity=".12"/><stop offset=".41" stop-color="#bcc5cc" stop-opacity=".26"/><stop offset=".59" stop-color="#bcc5cc" stop-opacity=".45"/><stop offset=".79" stop-color="#bcc5cc" stop-opacity=".71"/><stop offset=".98" stop-color="#bcc5cc"/></linearGradient><linearGradient id="3mLDmxjuatQwyLVgAbFZIc" x1="33.69" x2="37.27" y1="15.39" y2="15.43" gradientUnits="userSpaceOnUse"><stop offset="0" stop-color="#f12d2d"/><stop offset=".19" stop-color="#ea2c2c"/><stop offset=".47" stop-color="#d62828"/><stop offset=".8" stop-color="#b62122"/><stop offset=".98" stop-color="#a11d1e"/></linearGradient><radialGradient id="3mLDmxjuatQwyLVgAbFZIb" cx="34.58" cy="8.4" r="9.61" gradientTransform="matrix(.92 0 0 .98 2.5 -.05)" gradientUnits="userSpaceOnUse"><stop offset="0" stop-color="#fff"/><stop offset=".13" stop-color="#fcfdfe" stop-opacity=".81"/><stop offset=".31" stop-color="#f8fbfc" stop-opacity=".57"/><stop offset=".48" stop-color="#f5f9fb" stop-opacity=".36"/><stop offset=".64" stop-color="#f2f7fa" stop-opacity=".21"/><stop offset=".78" stop-color="#f0f6fa" stop-opacity=".09"/><stop offset=".91" stop-color="#eff5f9" stop-opacity=".02"/><stop offset="1" stop-color="#eff5f9" stop-opacity="0"/></radialGradient><radialGradient id="3mLDmxjuatQwyLVgAbFZIi" cx="34.52" cy="8.7" r="3.25" xlink:href="#3mLDmxjuatQwyLVgAbFZIb"/><radialGradient id="3mLDmxjuatQwyLVgAbFZIj" cx="33.16" cy="24.37" r="5.05" gradientTransform="rotate(93.06 55.116 47.54) scale(1 2.9)" xlink:href="#3mLDmxjuatQwyLVgAbFZIb"/><radialGradient id="3mLDmxjuatQwyLVgAbFZIf" cx="32.73" cy="26.19" r="6.94" gradientTransform="rotate(93.06 40.034 33.897) scale(1 1.59)" gradientUnits="userSpaceOnUse"><stop offset="0" stop-color="#fff" stop-opacity=".3"/><stop offset=".42" stop-color="#fff" stop-opacity=".29"/><stop offset=".57" stop-color="#fdfefe" stop-opacity=".27"/><stop offset=".67" stop-color="#fbfcfd" stop-opacity=".22"/><stop offset=".76" stop-color="#f7fafc" stop-opacity=".15"/><stop offset=".83" stop-color="#f3f7fa" stop-opacity=".07"/><stop offset=".88" stop-color="#eff5f9" stop-opacity="0"/></radialGradient><linearGradient id="3mLDmxjuatQwyLVgAbFZIk" x1="32.55" x2="37.78" y1="20.72" y2="20.78" xlink:href="#3mLDmxjuatQwyLVgAbFZIc"/><linearGradient id="3mLDmxjuatQwyLVgAbFZIl" x1="15.15" x2="26.89" y1="20.25" y2="22.81" gradientTransform="matrix(.98 -.22 .23 1.01 -4.59 3.9)" xlink:href="#3mLDmxjuatQwyLVgAbFZId"/><radialGradient id="3mLDmxjuatQwyLVgAbFZIm" cx="20.22" cy="14.46" r="20.08" gradientTransform="matrix(.18 1.02 -.35 .06 19.96 -7.48)" xlink:href="#3mLDmxjuatQwyLVgAbFZIa"/><linearGradient id="3mLDmxjuatQwyLVgAbFZIn" x1="23.15" x2="27.29" y1="11.52" y2="11.4" gradientTransform="matrix(.98 -.22 .23 1.01 -4.59 3.9)" xlink:href="#3mLDmxjuatQwyLVgAbFZIe"/><linearGradient id="3mLDmxjuatQwyLVgAbFZIo" x1="22.08" x2="26.05" y1="13.54" y2="13.59" gradientTransform="matrix(.98 -.22 .23 1.01 -4.59 3.9)" xlink:href="#3mLDmxjuatQwyLVgAbFZIc"/><radialGradient id="3mLDmxjuatQwyLVgAbFZIp" cx="22.6" cy="6.02" r="9.79" gradientTransform="matrix(.98 -.22 .23 1.01 -4.59 3.9)" xlink:href="#3mLDmxjuatQwyLVgAbFZIb"/><radialGradient id="3mLDmxjuatQwyLVgAbFZIq" cx="22.99" cy="6.58" r="3.4" gradientTransform="matrix(.98 -.22 .23 1.01 -4.59 3.9)" xlink:href="#3mLDmxjuatQwyLVgAbFZIb"/><radialGradient id="3mLDmxjuatQwyLVgAbFZIr" cx="21.49" cy="22.91" r="5.33" gradientTransform="matrix(.17 1.02 -2.89 .49 84.19 -10.81)" xlink:href="#3mLDmxjuatQwyLVgAbFZIb"/><radialGradient id="3mLDmxjuatQwyLVgAbFZIs" cx="20.02" cy="23.3" r="6.58" gradientTransform="matrix(.17 1.02 -2.89 .49 84.22 -8.78)" gradientUnits="userSpaceOnUse"><stop offset="0" stop-color="#fff" stop-opacity=".6"/><stop offset=".12" stop-color="#feffff" stop-opacity=".57"/><stop offset=".31" stop-color="#fcfdfe" stop-opacity=".5"/><stop offset=".52" stop-color="#f9fbfd" stop-opacity=".37"/><stop offset=".76" stop-color="#f4f8fb" stop-opacity=".2"/><stop offset="1" stop-color="#eff5f9" stop-opacity="0"/></radialGradient><linearGradient id="3mLDmxjuatQwyLVgAbFZIt" x1="20.84" x2="26.52" y1="19.1" y2="19.17" gradientTransform="matrix(.98 -.22 .23 1.01 -4.59 3.9)" xlink:href="#3mLDmxjuatQwyLVgAbFZIc"/><linearGradient id="3mLDmxjuatQwyLVgAbFZIu" x1="3.21" x2="14.03" y1="21.86" y2="24.22" xlink:href="#3mLDmxjuatQwyLVgAbFZId"/><radialGradient id="3mLDmxjuatQwyLVgAbFZIv" cx="6.79" cy="11.6" r="31.87" gradientTransform="rotate(81.66 1.785 7.27) scale(1 .25)" xlink:href="#3mLDmxjuatQwyLVgAbFZIa"/><radialGradient id="3mLDmxjuatQwyLVgAbFZIw" cx="10.7" cy="20.65" r="20.12" gradientTransform="matrix(-.03 1 -.48 -.02 20.91 10.28)" xlink:href="#3mLDmxjuatQwyLVgAbFZIa"/><linearGradient id="3mLDmxjuatQwyLVgAbFZIx" x1="10.67" x2="14.41" y1="13.44" y2="13.33" xlink:href="#3mLDmxjuatQwyLVgAbFZIe"/><linearGradient id="3mLDmxjuatQwyLVgAbFZIy" x1="9.69" x2="13.27" y1="15.39" y2="15.43" xlink:href="#3mLDmxjuatQwyLVgAbFZIc"/><radialGradient id="3mLDmxjuatQwyLVgAbFZIz" cx="10.53" cy="8.75" r="9.97" gradientUnits="userSpaceOnUse"><stop offset="0" stop-color="#fff"/><stop offset=".19" stop-color="#fbfcfd" stop-opacity=".75"/><stop offset=".41" stop-color="#f7fafc" stop-opacity=".49"/><stop offset=".61" stop-color="#f3f8fb" stop-opacity=".28"/><stop offset=".78" stop-color="#f1f6fa" stop-opacity=".13"/><stop offset=".91" stop-color="#f0f5f9" stop-opacity=".03"/><stop offset="1" stop-color="#eff5f9" stop-opacity="0"/></radialGradient><radialGradient id="3mLDmxjuatQwyLVgAbFZIA" cx="9.24" cy="24.8" r="6.69" gradientTransform="rotate(93.06 31.58 48.373) scale(1 2.9)" gradientUnits="userSpaceOnUse"><stop offset="0" stop-color="#fff"/><stop offset=".08" stop-color="#fdfefe" stop-opacity=".9"/><stop offset=".43" stop-color="#f7fafc" stop-opacity=".52"/><stop offset=".7" stop-color="#f3f7fa" stop-opacity=".24"/><stop offset=".9" stop-color="#f0f6f9" stop-opacity=".07"/><stop offset="1" stop-color="#eff5f9" stop-opacity="0"/></radialGradient><radialGradient id="3mLDmxjuatQwyLVgAbFZIB" cx="8.26" cy="26.96" r="11.22" gradientTransform="matrix(-.05338 .99857 -1.2582 -.06726 42.71 20.52)" xlink:href="#3mLDmxjuatQwyLVgAbFZIf"/><linearGradient id="3mLDmxjuatQwyLVgAbFZIC" x1="8.59" x2="13.75" y1="20.71" y2="20.77" xlink:href="#3mLDmxjuatQwyLVgAbFZIc"/><radialGradient id="3mLDmxjuatQwyLVgAbFZID" cx="10.89" cy="8.44" r="5.95" gradientUnits="userSpaceOnUse"><stop offset="0" stop-color="#fff" stop-opacity=".3"/><stop offset=".36" stop-color="#fff" stop-opacity=".29"/><stop offset=".56" stop-color="#fdfefe" stop-opacity=".26"/><stop offset=".71" stop-color="#fafcfd" stop-opacity=".21"/><stop offset=".85" stop-color="#f6f9fc" stop-opacity=".13"/><stop offset=".97" stop-color="#f1f6fa" stop-opacity=".03"/><stop offset="1" stop-color="#eff5f9" stop-opacity="0"/></radialGradient><radialGradient id="3mLDmxjuatQwyLVgAbFZIE" cx="22.32" cy="28.71" r="19.91" gradientTransform="translate(-.5 -1)" gradientUnits="userSpaceOnUse"><stop offset="0" stop-color="#4c5a69"/><stop offset=".5" stop-color="#363942"/><stop offset="1" stop-color="#1d2327"/></radialGradient><radialGradient id="3mLDmxjuatQwyLVgAbFZIF" cx="22.25" cy="29.06" r="22.74" gradientTransform="translate(-.5 -1)" gradientUnits="userSpaceOnUse"><stop offset="0" stop-color="#8a9ec7"/><stop offset=".06" stop-color="#8a9ec7" stop-opacity=".77"/><stop offset=".12" stop-color="#8a9ec7" stop-opacity=".54"/><stop offset=".19" stop-color="#8a9ec7" stop-opacity=".34"/><stop offset=".25" stop-color="#8a9ec7" stop-opacity=".19"/><stop offset=".31" stop-color="#8a9ec7" stop-opacity=".09"/><stop offset=".37" stop-color="#8a9ec7" stop-opacity=".02"/><stop offset=".43" stop-color="#8a9ec7" stop-opacity="0"/></radialGradient><radialGradient id="3mLDmxjuatQwyLVgAbFZIG" cx="22.25" cy="29.06" r="22.74" gradientTransform="translate(-.5 -1)" gradientUnits="userSpaceOnUse"><stop offset="0" stop-color="#8a9ec7"/><stop offset=".24" stop-color="#8a9ec7" stop-opacity=".71"/><stop offset=".56" stop-color="#8a9ec7" stop-opacity=".33"/><stop offset=".8" stop-color="#8a9ec7" stop-opacity=".09"/><stop offset=".91" stop-color="#8a9ec7" stop-opacity="0"/></radialGradient><radialGradient id="3mLDmxjuatQwyLVgAbFZIH" cx="22.07" cy="29.61" r="22.74" gradientTransform="translate(-.5 -1)" gradientUnits="userSpaceOnUse"><stop offset="0" stop-color="#ecd8ff"/><stop offset=".02" stop-color="#ecd8ff" stop-opacity=".88"/><stop offset=".08" stop-color="#ecd8ff" stop-opacity=".61"/><stop offset=".14" stop-color="#ecd8ff" stop-opacity=".39"/><stop offset=".18" stop-color="#ecd8ff" stop-opacity=".22"/><stop offset=".23" stop-color="#ecd8ff" stop-opacity=".1"/><stop offset=".27" stop-color="#ecd8ff" stop-opacity=".03"/><stop offset=".29" stop-color="#ecd8ff" stop-opacity="0"/></radialGradient><linearGradient id="3mLDmxjuatQwyLVgAbFZIg" x1="18.33" x2="17.45" y1="29.16" y2="32.47" gradientUnits="userSpaceOnUse"><stop offset=".05" stop-color="#444a57" stop-opacity="0"/><stop offset=".14" stop-color="#444a56" stop-opacity=".23"/><stop offset=".38" stop-color="#424855" stop-opacity=".78"/><stop offset=".49" stop-color="#424854"/><stop offset=".57" stop-color="#424854" stop-opacity=".9"/><stop offset=".69" stop-color="#434955" stop-opacity=".62"/><stop offset=".84" stop-color="#444a57" stop-opacity=".16"/><stop offset=".89" stop-color="#444a57" stop-opacity="0"/></linearGradient><linearGradient id="3mLDmxjuatQwyLVgAbFZII" x1="23.8" x2="22.93" y1="29.96" y2="33.22" xlink:href="#3mLDmxjuatQwyLVgAbFZIg"/><linearGradient id="3mLDmxjuatQwyLVgAbFZIJ" x1="20.04" x2="19.37" y1="38.98" y2="36.35" gradientUnits="userSpaceOnUse"><stop offset="0" stop-color="#444a57" stop-opacity="0"/><stop offset=".07" stop-color="#444a56" stop-opacity=".23"/><stop offset=".25" stop-color="#424855" stop-opacity=".78"/><stop offset=".34" stop-color="#424854"/><stop offset=".45" stop-color="#424854" stop-opacity=".9"/><stop offset=".63" stop-color="#434955" stop-opacity=".62"/><stop offset=".85" stop-color="#444a57" stop-opacity=".16"/><stop offset=".92" stop-color="#444a57" stop-opacity="0"/></linearGradient><radialGradient id="3mLDmxjuatQwyLVgAbFZIK" cx="18.54" cy="30.71" r="3.01" gradientTransform="matrix(-.37 .93 -.47 -.18 39.13 18.07)" gradientUnits="userSpaceOnUse"><stop offset=".53" stop-color="#444a57" stop-opacity="0"/><stop offset=".61" stop-color="#474d5a" stop-opacity=".03"/><stop offset=".7" stop-color="#4e5564" stop-opacity=".12"/><stop offset=".79" stop-color="#5b6274" stop-opacity=".27"/><stop offset=".89" stop-color="#6c748a" stop-opacity=".48"/><stop offset=".98" stop-color="#7e88a1" stop-opacity=".7"/></radialGradient><radialGradient id="3mLDmxjuatQwyLVgAbFZIL" cx="23.35" cy="32.18" r="2.13" gradientTransform="rotate(111.42 24.118 32.51) scale(1 1.06)" gradientUnits="userSpaceOnUse"><stop offset=".54" stop-color="#444a57" stop-opacity="0"/><stop offset=".6" stop-color="#474d5a" stop-opacity=".03"/><stop offset=".68" stop-color="#4e5564" stop-opacity=".12"/><stop offset=".77" stop-color="#5b6274" stop-opacity=".27"/><stop offset=".86" stop-color="#6c748a" stop-opacity=".48"/><stop offset=".94" stop-color="#7e88a1" stop-opacity=".7"/></radialGradient><radialGradient id="3mLDmxjuatQwyLVgAbFZIM" cx="20.1" cy="39.26" r="1.81" gradientTransform="rotate(111.42 21.017 39.807) scale(1 1.06)" gradientUnits="userSpaceOnUse"><stop offset=".54" stop-color="#a7b6d6" stop-opacity="0"/><stop offset=".61" stop-color="#a7b6d6" stop-opacity=".02"/><stop offset=".69" stop-color="#a7b6d6" stop-opacity=".09"/><stop offset=".78" stop-color="#a7b5d6" stop-opacity=".2"/><stop offset=".87" stop-color="#a8b5d6" stop-opacity=".36"/><stop offset=".94" stop-color="#a8b4d6" stop-opacity=".5"/></radialGradient></defs><g data-name="ПРавить Bowling"><path fill="url(#3mLDmxjuatQwyLVgAbFZId)" d="M37.42,17.82c0-2.49,1-4.6,1-6.86s-.62-5-2.94-5-2.94,2.7-2.94,5,1,4.37,1,6.86S30,22.64,30,30s1.68,9.82,2.24,10.44,2.39.55,3.25.55,2.64.15,3.25-.55S41,37.38,41,30,37.42,20.31,37.42,17.82Z"/><path fill="url(#3mLDmxjuatQwyLVgAbFZIa)" d="M41,30c0,7.37-1.68,9.82-2.24,10.44s-2.39.55-3.25.55-2.64.15-3.25-.55S30,37.38,30,30s3.54-9.7,3.54-12.19-1-4.6-1-6.86.62-5,2.94-5,2.94,2.7,2.94,5-1,4.37-1,6.86S41,22.64,41,30Z"/><path fill="url(#3mLDmxjuatQwyLVgAbFZIh)" d="M41,30c0,7.37-1.68,9.82-2.24,10.44s-2.39.55-3.25.55-2.64.15-3.25-.55S30,37.38,30,30c0-5.56,2-8.25,3-10.31l4.93-.06C38.9,21.7,41,24.39,41,30Z"/><path fill="url(#3mLDmxjuatQwyLVgAbFZIe)" d="M32.45,20.74a6.6,6.6,0,0,0,1.07-2.92c0-2.49-1-4.6-1-6.86s.62-5,2.94-5,2.94,2.7,2.94,5-1,4.37-1,6.86a6.6,6.6,0,0,0,1.07,2.92Z" opacity=".9"/><path fill="url(#3mLDmxjuatQwyLVgAbFZIc)" d="M37.91,14.35c-.15.69-.31,1.39-.4,2.12H33.43c-.09-.73-.25-1.43-.4-2.12h4.88Z"/><path fill="url(#3mLDmxjuatQwyLVgAbFZIb)" d="M38.32,20.59a.71.71,0,0,1,.08.15H32.53c0-.07.07-.12.1-.19.14-.24.28-.49.41-.74a.54.54,0,0,0,.05-.11c.06-.12.1-.24.15-.37a3.08,3.08,0,0,0,.19-.63s0,0,0,0a4.4,4.4,0,0,0,.1-1c0-.41,0-.77,0-1.09,0,0,0-.07,0-.1a11.56,11.56,0,0,0-.39-2c0-.05,0-.09,0-.15a14,14,0,0,1-.49-4.1c0-2.13,1-4.24,2.92-4.24s2.92,2.11,2.92,4.24a14.49,14.49,0,0,1-.48,4.1,1.13,1.13,0,0,0,0,.15,11.5,11.5,0,0,0-.4,2s0,.07,0,.1c0,.32,0,.68,0,1.09a4.4,4.4,0,0,0,.1,1s0,0,0,0a3.36,3.36,0,0,0,.18.66,3.45,3.45,0,0,0,.14.34.61.61,0,0,0,.05.12A8.13,8.13,0,0,0,38.32,20.59Z"/><path fill="url(#3mLDmxjuatQwyLVgAbFZIi)" d="M32.45,20.74a6.6,6.6,0,0,0,1.07-2.92c0-2.49-1-4.6-1-6.86s.62-5,2.94-5,2.94,2.7,2.94,5-1,4.37-1,6.86a6.6,6.6,0,0,0,1.07,2.92Z"/><path fill="url(#3mLDmxjuatQwyLVgAbFZIj)" d="M41,30c0,7.37-1.68,9.82-2.24,10.44s-2.39.55-3.25.55-2.64.15-3.25-.55S30,37.38,30,30s3.54-9.7,3.54-12.19a12,12,0,0,0-.27-2.42h4.44a12,12,0,0,0-.27,2.42C37.42,20.31,41,22.64,41,30Z"/><path fill="url(#3mLDmxjuatQwyLVgAbFZIf)" d="M41,30c0,7.37-1.68,9.82-2.24,10.44s-2.39.55-3.25.55-2.64.15-3.25-.55S30,37.38,30,30s3.54-9.7,3.54-12.19a12,12,0,0,0-.27-2.42h4.44a12,12,0,0,0-.27,2.42C37.42,20.31,41,22.64,41,30Z"/><path fill="url(#3mLDmxjuatQwyLVgAbFZIk)" d="M39,21.77c-1.05,0-2.22,0-3.52,0s-2.55,0-3.6,0c.39-.78.78-1.45,1.07-2.06h5C38.25,20.32,38.64,21,39,21.77Z"/><path fill="url(#3mLDmxjuatQwyLVgAbFZIl)" d="M32.12,36.8a2.18,2.18,0,0,1-.73,1.33,9.12,9.12,0,0,1-3.15,1,9,9,0,0,1-3.23.4,2.17,2.17,0,0,1-1.23-.89,24,24,0,0,1-4.41-11.54,17.73,17.73,0,0,1,.46-7.37h0c.13-.51.3-1,.43-1.38s.19-.59.28-.89c0,0,0-.09,0-.12s.05-.29.07-.43a3.35,3.35,0,0,0,.06-.71s0,0,0-.05a4.16,4.16,0,0,0-.13-1.07c-.09-.44-.2-.8-.3-1.13,0,0,0-.08,0-.11a11.59,11.59,0,0,0-.9-2,.71.71,0,0,0-.08-.15,14.74,14.74,0,0,1-1.51-4.2c-.5-2.23.06-4.69,2.19-5.17s3.69,1.5,4.2,3.73a14.83,14.83,0,0,1,.44,4.44,1,1,0,0,0,0,.17,11.41,11.41,0,0,0,0,2.17.49.49,0,0,0,0,.12c.05.34.12.71.22,1.15a4.21,4.21,0,0,0,.34,1s0,0,0,0a3.63,3.63,0,0,0,.35.65q.12.18.24.33a.76.76,0,0,0,.08.11,8.07,8.07,0,0,0,.62.71c.3.32.62.65,1,1v0a19.69,19.69,0,0,1,3.61,6.38A23,23,0,0,1,32.12,36.8Z"/><path fill="url(#3mLDmxjuatQwyLVgAbFZIm)" d="M32.12,36.8a2.18,2.18,0,0,1-.73,1.33,9.12,9.12,0,0,1-3.15,1,9,9,0,0,1-3.23.4,2.17,2.17,0,0,1-1.23-.89,24,24,0,0,1-4.41-11.54,17.73,17.73,0,0,1,.46-7.37h0c.13-.51.3-1,.43-1.38s.19-.59.28-.89c0,0,0-.09,0-.12s.05-.29.07-.43a3.35,3.35,0,0,0,.06-.71s0,0,0-.05a4.16,4.16,0,0,0-.13-1.07c-.09-.44-.2-.8-.3-1.13,0,0,0-.08,0-.11a11.59,11.59,0,0,0-.9-2,.71.71,0,0,0-.08-.15,14.74,14.74,0,0,1-1.51-4.2c-.5-2.23.06-4.69,2.19-5.17s3.69,1.5,4.2,3.73a14.83,14.83,0,0,1,.44,4.44,1,1,0,0,0,0,.17,11.41,11.41,0,0,0,0,2.17.49.49,0,0,0,0,.12c.05.34.12.71.22,1.15a4.21,4.21,0,0,0,.34,1s0,0,0,0a3.63,3.63,0,0,0,.35.65q.12.18.24.33a.76.76,0,0,0,.08.11,8.07,8.07,0,0,0,.62.71c.3.32.62.65,1,1v0a19.69,19.69,0,0,1,3.61,6.38A23,23,0,0,1,32.12,36.8Z"/><path fill="url(#3mLDmxjuatQwyLVgAbFZIn)" d="M26.49,17a.86.86,0,0,1,.13.14L20.2,18.59c0-.07.05-.14.06-.21.1-.3.19-.59.28-.89,0,0,0-.09,0-.12s.05-.29.07-.43a3.35,3.35,0,0,0,.06-.71s0,0,0-.05a4.16,4.16,0,0,0-.13-1.07c-.09-.44-.2-.8-.3-1.13,0,0,0-.08,0-.11a11.59,11.59,0,0,0-.9-2,.71.71,0,0,0-.08-.15,14.74,14.74,0,0,1-1.51-4.2c-.5-2.23.06-4.69,2.19-5.17s3.69,1.5,4.2,3.73a14.83,14.83,0,0,1,.44,4.44,1,1,0,0,0,0,.17,11.41,11.41,0,0,0,0,2.17.49.49,0,0,0,0,.12c.05.34.12.71.22,1.15a4.21,4.21,0,0,0,.34,1s0,0,0,0a3.63,3.63,0,0,0,.35.65q.12.18.24.33a.76.76,0,0,0,.08.11A8.07,8.07,0,0,0,26.49,17Z" opacity=".9"/><path fill="url(#3mLDmxjuatQwyLVgAbFZIo)" d="M24.58,10.54a1,1,0,0,0,0,.17,11.41,11.41,0,0,0,0,2.17l-4.37,1a11.59,11.59,0,0,0-.9-2,.71.71,0,0,0-.08-.15l2.67-.59C22.36,11.05,23.46,10.81,24.58,10.54Z"/><path fill="url(#3mLDmxjuatQwyLVgAbFZIp)" d="M26.49,17a.86.86,0,0,1,.13.14L20.2,18.59c0-.07.05-.14.06-.21.1-.3.19-.59.28-.89,0,0,0-.09,0-.12s.05-.29.07-.43a3.35,3.35,0,0,0,.06-.71s0,0,0-.05a4.16,4.16,0,0,0-.13-1.07c-.09-.44-.2-.8-.3-1.13,0,0,0-.08,0-.11a11.59,11.59,0,0,0-.9-2,.71.71,0,0,0-.08-.15,14.74,14.74,0,0,1-1.51-4.2c-.5-2.23.06-4.69,2.19-5.17s3.69,1.5,4.2,3.73a14.83,14.83,0,0,1,.44,4.44,1,1,0,0,0,0,.17,11.41,11.41,0,0,0,0,2.17.49.49,0,0,0,0,.12c.05.34.12.71.22,1.15a4.21,4.21,0,0,0,.34,1s0,0,0,0a3.63,3.63,0,0,0,.35.65q.12.18.24.33a.76.76,0,0,0,.08.11A8.07,8.07,0,0,0,26.49,17Z"/><path fill="url(#3mLDmxjuatQwyLVgAbFZIq)" d="M26.49,17a.86.86,0,0,1,.13.14L20.2,18.59c0-.07.05-.14.06-.21.1-.3.19-.59.28-.89,0,0,0-.09,0-.12s.05-.29.07-.43a3.35,3.35,0,0,0,.06-.71s0,0,0-.05a4.16,4.16,0,0,0-.13-1.07c-.09-.44-.2-.8-.3-1.13,0,0,0-.08,0-.11a11.59,11.59,0,0,0-.9-2,.71.71,0,0,0-.08-.15,14.74,14.74,0,0,1-1.51-4.2c-.5-2.23.06-4.69,2.19-5.17s3.69,1.5,4.2,3.73a14.83,14.83,0,0,1,.44,4.44,1,1,0,0,0,0,.17,11.41,11.41,0,0,0,0,2.17.49.49,0,0,0,0,.12c.05.34.12.71.22,1.15a4.21,4.21,0,0,0,.34,1s0,0,0,0a3.63,3.63,0,0,0,.35.65q.12.18.24.33a.76.76,0,0,0,.08.11A8.07,8.07,0,0,0,26.49,17Z"/><path fill="url(#3mLDmxjuatQwyLVgAbFZIr)" d="M32.12,36.8a2.18,2.18,0,0,1-.73,1.33,9.12,9.12,0,0,1-3.15,1,9,9,0,0,1-3.23.4,2.17,2.17,0,0,1-1.23-.89,24,24,0,0,1-4.41-11.54,17.73,17.73,0,0,1,.46-7.37h0c.13-.51.3-1,.43-1.38s.19-.59.28-.89c0,0,0-.09,0-.12s.05-.29.07-.43a3.35,3.35,0,0,0,.06-.71s0,0,0-.05a4.16,4.16,0,0,0-.13-1.07c-.09-.44-.2-.8-.3-1.13,0,0,0-.08,0-.11a6.53,6.53,0,0,0-.44-1.08l4.74-1.07a8.16,8.16,0,0,0,.07,1.16.49.49,0,0,0,0,.12c.05.34.12.71.22,1.15a4.21,4.21,0,0,0,.34,1s0,0,0,0a3.63,3.63,0,0,0,.35.65q.12.18.24.33a.76.76,0,0,0,.08.11,8.07,8.07,0,0,0,.62.71c.3.32.62.65,1,1v0a19.69,19.69,0,0,1,3.61,6.38A23,23,0,0,1,32.12,36.8Z"/><path fill="url(#3mLDmxjuatQwyLVgAbFZIs)" d="M32.12,36.8a2.18,2.18,0,0,1-.73,1.33,9.12,9.12,0,0,1-3.15,1,9,9,0,0,1-3.23.4,2.17,2.17,0,0,1-1.23-.89,24,24,0,0,1-4.41-11.54,17.73,17.73,0,0,1,.46-7.37h0c.13-.51.3-1,.43-1.38s.19-.59.28-.89c0,0,0-.09,0-.12s.05-.29.07-.43a3.35,3.35,0,0,0,.06-.71s0,0,0-.05a4.16,4.16,0,0,0-.13-1.07c-.09-.44-.2-.8-.3-1.13,0,0,0-.08,0-.11a6.53,6.53,0,0,0-.44-1.08l4.74-1.07a8.16,8.16,0,0,0,.07,1.16.49.49,0,0,0,0,.12c.05.34.12.71.22,1.15a4.21,4.21,0,0,0,.34,1s0,0,0,0a3.63,3.63,0,0,0,.35.65q.12.18.24.33a.76.76,0,0,0,.08.11,8.07,8.07,0,0,0,.62.71c.3.32.62.65,1,1v0a19.69,19.69,0,0,1,3.61,6.38A23,23,0,0,1,32.12,36.8Z"/><path fill="url(#3mLDmxjuatQwyLVgAbFZIt)" d="M27.46,18.06c-1.07.33-2.33.6-3.77.92-1.19.27-2.22.52-3.14.68l-.65.1h-.07c.13-.51.3-1,.43-1.38s.19-.59.28-.89c0,0,0-.09,0-.12l.46-.1,2.16-.47,2.22-.51c.13,0,.26-.08.38-.1a.76.76,0,0,0,.08.11,8.07,8.07,0,0,0,.62.71C26.79,17.33,27.11,17.66,27.46,18.06Z"/><path fill="url(#3mLDmxjuatQwyLVgAbFZIu)" d="M16.83,28.3A16.94,16.94,0,0,0,15,21.73c-1.58-2.17-1.51-6-1.08-7.39a11.21,11.21,0,0,0,.49-4.1c0-2.13-1-4.24-2.93-4.24S8.54,8.11,8.54,10.24A11.21,11.21,0,0,0,9,14.34c.43,1.39.5,5.22-1.08,7.39A16.94,16.94,0,0,0,6.11,28.3,23,23,0,0,0,7.68,39.64a2,2,0,0,0,.89,1.06,7.62,7.62,0,0,0,2.9.3,7.62,7.62,0,0,0,2.9-.3,2,2,0,0,0,.89-1.06A23,23,0,0,0,16.83,28.3Z"/><path fill="url(#3mLDmxjuatQwyLVgAbFZIv)" d="M15.1,39.64a2,2,0,0,1-.87,1.06,4,4,0,0,1-1.4.28c-.4,0-.85,0-1.36,0-.69,0-1.28,0-1.79,0a3.66,3.66,0,0,1-1.15-.26,2,2,0,0,1-.88-1.06,15.77,15.77,0,0,1-1-2.93,22.6,22.6,0,0,1-.46-2.39c-.06-.43-.11-.88-.15-1.34A25.39,25.39,0,0,1,6,29.58c0-.42,0-.85.1-1.28s.1-.83.16-1.21l.09-.55A15,15,0,0,1,8,21.73c1.58-2.17,1.51-6,1.08-7.39a11.21,11.21,0,0,1-.49-4.1c0-2,.85-4,2.57-4.22l.36,0c1.86.07,2.78,2.14,2.78,4.24a11.24,11.24,0,0,1-.48,4.1c-.42,1.39-.49,5.22,1.06,7.39a17.05,17.05,0,0,1,1.81,6.57A23.44,23.44,0,0,1,15.1,39.64Z"/><path fill="url(#3mLDmxjuatQwyLVgAbFZIw)" d="M15.26,39.64a2,2,0,0,1-.89,1.06,7.62,7.62,0,0,1-2.9.3,7.62,7.62,0,0,1-2.9-.3,2,2,0,0,1-.89-1.06A23,23,0,0,1,6.11,28.3,16.94,16.94,0,0,1,8,21.73a6.38,6.38,0,0,0,1-2.06H14a6.38,6.38,0,0,0,1,2.06,16.94,16.94,0,0,1,1.84,6.57A23,23,0,0,1,15.26,39.64Z"/><path fill="url(#3mLDmxjuatQwyLVgAbFZIx)" d="M8.51,20.74A10.85,10.85,0,0,0,9,14.34a11.21,11.21,0,0,1-.49-4.1c0-2.13,1-4.24,2.93-4.24s2.93,2.11,2.93,4.24a11.21,11.21,0,0,1-.49,4.1,10.85,10.85,0,0,0,.52,6.4Z" opacity=".9"/><path fill="url(#3mLDmxjuatQwyLVgAbFZIy)" d="M13.91,14.35a7.94,7.94,0,0,0-.26,2.12H9.29A8,8,0,0,0,9,14.34c1.05,0,2.44,0,2.44,0Z"/><path fill="url(#3mLDmxjuatQwyLVgAbFZIz)" d="M8.51,20.74A10.85,10.85,0,0,0,9,14.34a11.21,11.21,0,0,1-.49-4.1c0-2.13,1-4.24,2.93-4.24s2.93,2.11,2.93,4.24a11.21,11.21,0,0,1-.49,4.1,10.85,10.85,0,0,0,.52,6.4Z"/><path fill="url(#3mLDmxjuatQwyLVgAbFZIA)" d="M15.26,39.64a2,2,0,0,1-.89,1.06,4.84,4.84,0,0,1-1.76.29H10.33a4.84,4.84,0,0,1-1.76-.29,2,2,0,0,1-.89-1.06A23,23,0,0,1,6.11,28.3,16.94,16.94,0,0,1,8,21.73C9.22,20,9.42,17.16,9.23,15.4h4.48c-.19,1.76,0,4.58,1.28,6.33a16.94,16.94,0,0,1,1.84,6.57A23,23,0,0,1,15.26,39.64Z" opacity=".8"/><path fill="url(#3mLDmxjuatQwyLVgAbFZIB)" d="M15.26,39.64a2,2,0,0,1-.89,1.06,5.84,5.84,0,0,1-2.23.3H10.77a5.91,5.91,0,0,1-2.2-.3,2,2,0,0,1-.89-1.06A23,23,0,0,1,6.11,28.3,16.94,16.94,0,0,1,8,21.73C9.22,20,9.42,17.16,9.23,15.4h4.48c-.19,1.76,0,4.58,1.28,6.33a16.94,16.94,0,0,1,1.84,6.57A23,23,0,0,1,15.26,39.64Z"/><path fill="url(#3mLDmxjuatQwyLVgAbFZIC)" d="M11.52,21.8c-1.33,0-3.58-.05-3.57-.07a6.23,6.23,0,0,0,.93-2h5.18a6.23,6.23,0,0,0,.93,2S12.79,21.8,11.52,21.8Z"/><path fill="url(#3mLDmxjuatQwyLVgAbFZID)" d="M8.51,20.74A10.85,10.85,0,0,0,9,14.34a11.21,11.21,0,0,1-.49-4.1c0-2.13,1-4.24,2.93-4.24s2.93,2.11,2.93,4.24a11.21,11.21,0,0,1-.49,4.1,10.85,10.85,0,0,0,.52,6.4Z"/><circle cx="25.5" cy="34.5" r="12.5" fill="url(#3mLDmxjuatQwyLVgAbFZIE)"/><circle cx="25.5" cy="34.5" r="12.5" fill="url(#3mLDmxjuatQwyLVgAbFZIF)" opacity=".7"/><circle cx="25.5" cy="34.5" r="12.5" fill="url(#3mLDmxjuatQwyLVgAbFZIG)" opacity=".2"/><circle cx="25.5" cy="34.5" r="12.5" fill="url(#3mLDmxjuatQwyLVgAbFZIH)" opacity=".3"/><path fill="#1e222d" d="M19,31.16c-.46,1.29-1.74,1.73-2.24.78-.61-1.14.56-3.05,1.73-2.83.76.26.76,1.36.51,2.05"/><path fill="#1e222d" d="M24.88,31.69a1.55,1.55,0,0,1-2.64,1.08,1.84,1.84,0,0,1,1.26-3,1.65,1.65,0,0,1,1.38,1.89"/><path fill="#1e222d" d="M21.43,38.69c-.08,1.36-1.6,1.74-2.59.65s-.54-2.83.78-2.8h.16a2.12,2.12,0,0,1,1.65,2.14"/><path fill="url(#3mLDmxjuatQwyLVgAbFZIg)" d="M19,31.16c-.46,1.29-1.74,1.73-2.24.78-.61-1.14.56-3.05,1.73-2.83.76.26.76,1.36.51,2.05" opacity=".5"/><path fill="url(#3mLDmxjuatQwyLVgAbFZII)" d="M24.88,31.69a1.55,1.55,0,0,1-2.64,1.08,1.84,1.84,0,0,1,1.26-3,1.65,1.65,0,0,1,1.38,1.89" opacity=".5"/><path fill="url(#3mLDmxjuatQwyLVgAbFZIJ)" d="M21.43,38.69c-.08,1.36-1.6,1.74-2.59.65s-.54-2.83.78-2.8h.16a2.12,2.12,0,0,1,1.65,2.14" opacity=".3"/><path fill="url(#3mLDmxjuatQwyLVgAbFZIK)" d="M19,31.16c-.46,1.29-1.74,1.73-2.24.78-.61-1.14.56-3.05,1.73-2.83.76.26.76,1.36.51,2.05" opacity=".5"/><path fill="url(#3mLDmxjuatQwyLVgAbFZIL)" d="M24.88,31.69a1.55,1.55,0,0,1-2.64,1.08,1.84,1.84,0,0,1,1.26-3,1.65,1.65,0,0,1,1.38,1.89" opacity=".5"/><path fill="url(#3mLDmxjuatQwyLVgAbFZIM)" d="M21.43,38.69c-.08,1.36-1.6,1.74-2.59.65s-.54-2.83.78-2.8h.16a2.12,2.12,0,0,1,1.65,2.14" opacity=".4"/></g></svg>