<svg xmlns="http://www.w3.org/2000/svg" viewBox="0 0 48 48"><defs><radialGradient id="1dwjxBxpvX~15KU2kOAAEa" cx="16.21" cy="18.11" r="30.96" gradientUnits="userSpaceOnUse"><stop offset="0" stop-color="#f8f6f3"/><stop offset=".54" stop-color="#ece5e2"/><stop offset=".64" stop-color="#e4dbd8"/><stop offset=".81" stop-color="#cfc1bd"/><stop offset=".93" stop-color="#bba8a3"/></radialGradient><radialGradient id="1dwjxBxpvX~15KU2kOAAEb" cx="36.73" cy="12.24" r="20.92" gradientTransform="rotate(53.77 31.91 9.806) scale(1 .6)" gradientUnits="userSpaceOnUse"><stop offset="0" stop-color="#bba8a3" stop-opacity=".5"/><stop offset=".08" stop-color="#bba8a3" stop-opacity=".42"/><stop offset=".42" stop-color="#bba8a3" stop-opacity=".12"/><stop offset=".58" stop-color="#bba8a3" stop-opacity="0"/><stop offset=".6" stop-color="#bba8a3" stop-opacity=".02"/><stop offset=".62" stop-color="#bba8a3" stop-opacity=".09"/><stop offset=".65" stop-color="#bba8a3" stop-opacity=".21"/><stop offset=".67" stop-color="#bba8a3" stop-opacity=".37"/><stop offset=".7" stop-color="#bba8a3" stop-opacity=".58"/><stop offset=".72" stop-color="#bba8a3" stop-opacity=".83"/><stop offset=".74" stop-color="#bba8a3"/><stop offset=".78" stop-color="#bba8a3"/><stop offset=".79" stop-color="#bba8a3" stop-opacity=".83"/><stop offset=".8" stop-color="#bba8a3" stop-opacity=".64"/><stop offset=".81" stop-color="#bba8a3" stop-opacity=".46"/><stop offset=".82" stop-color="#bba8a3" stop-opacity=".32"/><stop offset=".84" stop-color="#bba8a3" stop-opacity=".2"/><stop offset=".86" stop-color="#bba8a3" stop-opacity=".11"/><stop offset=".88" stop-color="#bba8a3" stop-opacity=".05"/><stop offset=".91" stop-color="#bba8a3" stop-opacity=".01"/><stop offset="1" stop-color="#bba8a3" stop-opacity="0"/></radialGradient><radialGradient id="1dwjxBxpvX~15KU2kOAAEc" cx="9.15" cy="31.51" r="20.02" gradientTransform="rotate(-109.42 16.225 21.514) scale(1 .37)" gradientUnits="userSpaceOnUse"><stop offset="0" stop-color="#bba8a3" stop-opacity=".5"/><stop offset=".08" stop-color="#bba8a3" stop-opacity=".42"/><stop offset=".42" stop-color="#bba8a3" stop-opacity=".12"/><stop offset=".58" stop-color="#bba8a3" stop-opacity="0"/><stop offset=".62" stop-color="#bba8a3" stop-opacity=".01"/><stop offset=".64" stop-color="#bba8a3" stop-opacity=".06"/><stop offset=".66" stop-color="#bba8a3" stop-opacity=".14"/><stop offset=".68" stop-color="#bba8a3" stop-opacity=".24"/><stop offset=".7" stop-color="#bba8a3" stop-opacity=".39"/><stop offset=".71" stop-color="#bba8a3" stop-opacity=".56"/><stop offset=".72" stop-color="#bba8a3" stop-opacity=".76"/><stop offset=".74" stop-color="#bba8a3" stop-opacity=".99"/><stop offset=".74" stop-color="#bba8a3"/><stop offset=".78" stop-color="#bba8a3"/><stop offset=".78" stop-color="#bba8a3" stop-opacity=".95"/><stop offset=".8" stop-color="#bba8a3" stop-opacity=".73"/><stop offset=".82" stop-color="#bba8a3" stop-opacity=".53"/><stop offset=".83" stop-color="#bba8a3" stop-opacity=".37"/><stop offset=".86" stop-color="#bba8a3" stop-opacity=".23"/><stop offset=".88" stop-color="#bba8a3" stop-opacity=".13"/><stop offset=".91" stop-color="#bba8a3" stop-opacity=".06"/><stop offset=".94" stop-color="#bba8a3" stop-opacity=".01"/><stop offset="1" stop-color="#bba8a3" stop-opacity="0"/></radialGradient><radialGradient id="1dwjxBxpvX~15KU2kOAAEd" cx="22.96" cy="21.53" r="27.87" fx="7.061" gradientUnits="userSpaceOnUse"><stop offset="0" stop-color="#6b3d2b" stop-opacity="0"/><stop offset=".56" stop-color="#6b4c40" stop-opacity="0"/><stop offset=".61" stop-color="#6b4c40" stop-opacity=".11"/><stop offset=".68" stop-color="#6b4c40" stop-opacity=".39"/><stop offset=".78" stop-color="#6b4c40" stop-opacity=".84"/><stop offset=".81" stop-color="#6b4c40"/></radialGradient><radialGradient id="1dwjxBxpvX~15KU2kOAAEe" cx="16.77" cy="14.91" r="13.95" gradientUnits="userSpaceOnUse"><stop offset="0" stop-color="#fff"/><stop offset="1" stop-color="#fff9f7" stop-opacity="0"/></radialGradient></defs><g data-name="Baseball"><path fill="url(#1dwjxBxpvX~15KU2kOAAEa)" d="M42.66,25.94c0,.12,0,.23,0,.35a1.84,1.84,0,0,1,0,.25,3.68,3.68,0,0,1-.6,1.34s0,0,0,0l-.14.18a3.3,3.3,0,0,1-.37.38c0,.09.08.18.11.27a2.37,2.37,0,0,1,.09.36l0,.19v0h0c0,.1,0,.2,0,.29A4.3,4.3,0,0,1,41,31.72c-.16.27-.34.54-.53.81s-.61.77-.93,1.13-.42.46-.63.67l-.58.61c-.18.18-.34.36-.48.51l0,0a18,18,0,0,1-12.37,6.44l-.1,0c-.93.17-4.81.68-6-.16a.75.75,0,0,1-.32-.47,1.69,1.69,0,0,1-.54.12l-.17,0a3.36,3.36,0,0,1-1.19-.21,11.88,11.88,0,0,1-3.85-2.74h0a17.94,17.94,0,0,1-7-18.13h0a6.84,6.84,0,0,1,.29-2.71,3.1,3.1,0,0,1,.74-1.26,1.8,1.8,0,0,1,.2-.19L7.85,16a3.32,3.32,0,0,1,0-.56,4.58,4.58,0,0,1,2.24-2.94,18.1,18.1,0,0,1,6.94-5.15c1.06-.66,3.67-2,5.13-1.66l.09,0a1.09,1.09,0,0,1,.51.24,1.54,1.54,0,0,1,.48-.29c1.38-.52,3.95.21,5,.8v0a18,18,0,0,1,13.39,14A12.48,12.48,0,0,1,42.66,25.94Z"/><path fill="url(#1dwjxBxpvX~15KU2kOAAEb)" d="M41.82,28.07a3.3,3.3,0,0,1-.37.38c0,.09.08.18.11.27-5.09-.85-10.33-4.61-14.26-9.91-3.57-4.83-5-9.24-5-13a1.09,1.09,0,0,1,.51.24,1.54,1.54,0,0,1,.48-.29c1.38-.52,3.95.21,5,.8v0a18,18,0,0,1,13.39,14C42.18,22,43.63,25.9,41.82,28.07Z" opacity=".5"/><path fill="url(#1dwjxBxpvX~15KU2kOAAEc)" d="M18.55,41.44l-.17,0a3.36,3.36,0,0,1-1.19-.21,11.88,11.88,0,0,1-3.85-2.74h0a17.94,17.94,0,0,1-7-18.13h0a6.84,6.84,0,0,1,.29-2.71,3.1,3.1,0,0,1,.74-1.26,1.8,1.8,0,0,1,.2-.19c5,3.55,9.24,11.44,10.58,21C18.37,38.67,18.49,40.07,18.55,41.44Z" opacity=".6"/><path fill="#c1b8ad" d="M19.41,41.79a2.5,2.5,0,0,0-1-.33c-.06-.84-.15-1.65-.26-2.45-1.07-8.38-4-15.21-8.93-20.73C8.62,17.63,8,17,7.39,16.41a3.33,3.33,0,0,0,.49-.93c.6.57,1.18,1.16,1.72,1.77,5.38,5.88,8.54,13.2,9.59,22.27C19.29,40.26,19.36,41,19.41,41.79Z"/><path fill="#c1b8ad" d="M41.65,29.08h-.38a9.14,9.14,0,0,1-3.06-.78c-4.2-1.75-9.07-6.24-12.33-10.8-2.41-3.36-3.76-6.5-4-9.07a7,7,0,0,1,.17-2.32c0-.13.06-.25.1-.37a3.52,3.52,0,0,0,1.08,0,1.66,1.66,0,0,0-.12.31,5.87,5.87,0,0,0-.22,2.59c.25,2.31,1.53,5.18,3.76,8.3,3.45,4.83,8.08,8.79,11.79,10.4a8.09,8.09,0,0,0,3.05.77h.29A2.34,2.34,0,0,0,41.65,29.08Z"/><path fill="#cc2b2b" d="M20,41.93a4.22,4.22,0,0,1-1.24-.15,9.93,9.93,0,0,1-2-1.09.37.37,0,1,1,.43-.61,9.69,9.69,0,0,0,1.8,1,6,6,0,0,0,1.95.06.37.37,0,0,1,.42.32.38.38,0,0,1-.32.42S20.59,41.93,20,41.93Z"/><path fill="#cc2b2b" d="M8.72,20.17H8.65a.37.37,0,0,1-.3-.44l.33-1.61a1.36,1.36,0,0,1,.75-1l1.35-.66a.37.37,0,1,1,.33.67l-1.36.66a.62.62,0,0,0-.33.44l-.33,1.61A.37.37,0,0,1,8.72,20.17Z"/><path fill="#cc2b2b" d="M7.23,17.88H7.16a.38.38,0,0,1-.31-.43l.21-1.18a1.34,1.34,0,0,1,.71-1l1.13-.53a.38.38,0,0,1,.31.69L8.1,16a.66.66,0,0,0-.31.44l-.2,1.18A.37.37,0,0,1,7.23,17.88Z"/><path fill="#cc2b2b" d="M10.43,22.35l-.13,0a.38.38,0,0,1-.22-.49l.59-1.53a1.36,1.36,0,0,1,.89-.83L13,19.05a.38.38,0,0,1,.47.25.39.39,0,0,1-.26.47l-1.44.43a.59.59,0,0,0-.4.37l-.59,1.54A.38.38,0,0,1,10.43,22.35Z"/><path fill="#cc2b2b" d="M12,24.92a.41.41,0,0,1-.19-.05.38.38,0,0,1-.13-.52l.69-1.17a1.92,1.92,0,0,1,1.44-.94L15,22.09a.38.38,0,0,1,.42.33.37.37,0,0,1-.33.41L13.9,23a1.22,1.22,0,0,0-.89.58l-.69,1.17A.37.37,0,0,1,12,24.92Z"/><path fill="#cc2b2b" d="M13.53,27.82a.43.43,0,0,1-.27-.11.38.38,0,0,1,0-.53,8.57,8.57,0,0,1,1.6-1.29,9.71,9.71,0,0,1,1.81-.41.37.37,0,0,1,.42.32.37.37,0,0,1-.31.42,8.3,8.3,0,0,0-1.61.36,8.24,8.24,0,0,0-1.39,1.14A.35.35,0,0,1,13.53,27.82Z"/><path fill="#cc2b2b" d="M14.44,30.44a.38.38,0,0,1-.1-.74,17.76,17.76,0,0,0,1.79-.57,14.1,14.1,0,0,0,1.51-1,.37.37,0,0,1,.52.07.38.38,0,0,1-.07.53,15.88,15.88,0,0,1-1.65,1.08,17.28,17.28,0,0,1-1.9.61Z"/><path fill="#cc2b2b" d="M15.58,33.35a.37.37,0,0,1-.37-.37.38.38,0,0,1,.37-.38,15.23,15.23,0,0,0,2-.13,6,6,0,0,0,1.58-.73.38.38,0,0,1,.4.64,7.51,7.51,0,0,1-1.84.83,15.75,15.75,0,0,1-2.09.14Z"/><path fill="#cc2b2b" d="M18.12,36.27a9.38,9.38,0,0,1-2-.37.37.37,0,0,1-.26-.46.38.38,0,0,1,.47-.26,7.46,7.46,0,0,0,1.92.34c.65-.05,2-.34,2-.34a.36.36,0,0,1,.44.28.37.37,0,0,1-.28.45c-.06,0-1.39.3-2.09.36Z"/><path fill="#cc2b2b" d="M19.09,39.19l-.53,0a5.24,5.24,0,0,1-1.89-.83.38.38,0,0,1-.1-.52.37.37,0,0,1,.52-.1,4.52,4.52,0,0,0,1.56.7,15.6,15.6,0,0,0,2.19-.09.38.38,0,1,1,.08.75C20.87,39.08,19.88,39.19,19.09,39.19Z"/><path fill="#cc2b2b" d="M20.75,10a.35.35,0,0,1-.28-.13.37.37,0,0,1,0-.52l1.13-1a1.37,1.37,0,0,1,1.18-.31l1.61.32a.37.37,0,1,1-.15.73l-1.61-.32a.6.6,0,0,0-.53.15L21,9.93A.38.38,0,0,1,20.75,10Z"/><path fill="#cc2b2b" d="M21.26,6.77a.37.37,0,0,1-.33-.19.37.37,0,0,1,.15-.51l1.07-.59a1.4,1.4,0,0,1,1.23,0L24.45,6a.38.38,0,0,1,.16.51.36.36,0,0,1-.5.16L23,6.15a.59.59,0,0,0-.55,0l-1,.57A.31.31,0,0,1,21.26,6.77Z"/><path fill="#cc2b2b" d="M21.72,13.41a.35.35,0,0,1-.25-.1.37.37,0,0,1,0-.53l1.15-1.26a1.37,1.37,0,0,1,1.12-.46l1.82.16a.37.37,0,0,1,.34.41.36.36,0,0,1-.4.34l-1.81-.16a.66.66,0,0,0-.51.21L22,13.29A.39.39,0,0,1,21.72,13.41Z"/><path fill="#cc2b2b" d="M23.5,16.36a.4.4,0,0,1-.23-.08.38.38,0,0,1-.06-.53l.91-1.16a2,2,0,0,1,1.54-.76H27.3a.38.38,0,1,1,0,.75H25.66a1.17,1.17,0,0,0-.94.47l-.92,1.17A.37.37,0,0,1,23.5,16.36Z"/><path fill="#cc2b2b" d="M25.21,19.68a.36.36,0,0,1-.2-.06.38.38,0,0,1-.11-.52l.94-1.46a1.38,1.38,0,0,1,1-.68l1.78-.36a.38.38,0,0,1,.15.74L27,17.7a.66.66,0,0,0-.46.33l-1,1.48A.37.37,0,0,1,25.21,19.68Z"/><path fill="#cc2b2b" d="M27.67,22.07a.39.39,0,0,1-.33-.19.38.38,0,0,1,.15-.51,17.87,17.87,0,0,0,1.52-1,12.61,12.61,0,0,0,1.26-1.31.38.38,0,1,1,.58.48A15,15,0,0,1,29.48,21a17.19,17.19,0,0,1-1.63,1A.39.39,0,0,1,27.67,22.07Z"/><path fill="#cc2b2b" d="M29.39,24.33a.38.38,0,0,1-.34-.23.37.37,0,0,1,.2-.49,7.68,7.68,0,0,0,1.75-1A6.34,6.34,0,0,0,32.07,21a.38.38,0,1,1,.68.34,7.67,7.67,0,0,1-1.26,1.84,8.28,8.28,0,0,1-2,1.12A.32.32,0,0,1,29.39,24.33Z"/><path fill="#cc2b2b" d="M31.88,26.33a.38.38,0,0,1-.22-.68l1.27-.91a2.29,2.29,0,0,0,.43-.59l.48-1.24a.38.38,0,1,1,.7.28L34,24.48a3.06,3.06,0,0,1-.65.85l-1.29.92A.35.35,0,0,1,31.88,26.33Z"/><path fill="#cc2b2b" d="M34.43,28.29a.38.38,0,0,1-.31-.16.37.37,0,0,1,.09-.52l1.3-.92a.84.84,0,0,0,.34-.5l.33-1.4a.36.36,0,0,1,.45-.28.38.38,0,0,1,.28.45l-.33,1.38a1.59,1.59,0,0,1-.63,1l-1.31.92A.33.33,0,0,1,34.43,28.29Z"/><path fill="#cc2b2b" d="M37.73,30.07a.38.38,0,0,1-.24-.09.37.37,0,0,1,0-.53,8.17,8.17,0,0,0,1-1.48,7.54,7.54,0,0,0,.18-1.88.38.38,0,0,1,.38-.37h0a.37.37,0,0,1,.37.37,8.34,8.34,0,0,1-.23,2.15A8.76,8.76,0,0,1,38,29.94.41.41,0,0,1,37.73,30.07Z"/><path fill="#cc2b2b" d="M40.28,30.79a.38.38,0,0,1-.26-.11.37.37,0,0,1,0-.53,5,5,0,0,0,1.13-1.52,12.47,12.47,0,0,0,.08-1.81.38.38,0,0,1,.37-.38.35.35,0,0,1,.38.36,13.33,13.33,0,0,1-.09,1.95,5.57,5.57,0,0,1-1.34,1.93A.39.39,0,0,1,40.28,30.79Z"/><path fill="url(#1dwjxBxpvX~15KU2kOAAEd)" d="M42.66,25.94c0,.12,0,.23,0,.35a1.84,1.84,0,0,1,0,.25,3.68,3.68,0,0,1-.6,1.34h0a5.65,5.65,0,0,1-.07.86,1.46,1.46,0,0,1-.21.52v0c0,.1,0,.2,0,.29A4.3,4.3,0,0,1,41,31.72c-.16.27-.34.54-.53.81s-.61.77-.93,1.13l-.63.67-.58.61c-.18.18-.34.36-.48.51l0,0a18,18,0,0,1-12.37,6.44l-.1,0c-.88.16-4.39.62-5.75,0,0,0,0,0,0,0a3.06,3.06,0,0,1-.82-.13,4.3,4.3,0,0,1-.75-.33h0a3.87,3.87,0,0,1-.85-.2,11.88,11.88,0,0,1-3.85-2.74h0a17.94,17.94,0,0,1-7-18.13h0a6.84,6.84,0,0,1,.29-2.71,3.1,3.1,0,0,1,.74-1.26,1.8,1.8,0,0,1,.2-.19L7.85,16a3.32,3.32,0,0,1,0-.56,4.58,4.58,0,0,1,2.24-2.94,18.1,18.1,0,0,1,6.94-5.15c1.06-.66,3.67-2,5.13-1.66l.09,0a1.09,1.09,0,0,1,.51.24,1.54,1.54,0,0,1,.48-.29c1.38-.52,3.95.21,5,.8v0a18,18,0,0,1,13.39,14A12.48,12.48,0,0,1,42.66,25.94Z" opacity=".9"/><path fill="url(#1dwjxBxpvX~15KU2kOAAEe)" d="M42.66,25.94c0,.12,0,.23,0,.35a1.84,1.84,0,0,1,0,.25,3.68,3.68,0,0,1-.6,1.34h0a5.65,5.65,0,0,1-.07.86,1.46,1.46,0,0,1-.21.52v0c0,.1,0,.2,0,.29A4.3,4.3,0,0,1,41,31.72c-.16.27-.34.54-.53.81s-.61.77-.93,1.13l-.63.67-.58.61c-.18.18-.34.36-.48.51l0,0a18,18,0,0,1-12.37,6.44l-.1,0c-.93.17-4.81.68-6-.16a.75.75,0,0,1-.32-.47,1.69,1.69,0,0,1-.54.12l-.17,0a3.36,3.36,0,0,1-1.19-.21,11.88,11.88,0,0,1-3.85-2.74h0a17.94,17.94,0,0,1-7-18.13h0a6.84,6.84,0,0,1,.29-2.71A3.52,3.52,0,0,1,6.92,17l.14-.78a1.34,1.34,0,0,1,.71-1l.16-.08a4.86,4.86,0,0,1,2.19-2.66,18.1,18.1,0,0,1,6.94-5.15c1-.6,3.23-1.75,4.72-1.71l.37-.2a1.4,1.4,0,0,1,1.23,0l.26.13a8.32,8.32,0,0,1,4.64.9v0a18,18,0,0,1,13.39,14A12.48,12.48,0,0,1,42.66,25.94Z" opacity=".8"/></g></svg>