<svg xmlns="http://www.w3.org/2000/svg" viewBox="0 0 48 48"><radialGradient id="XdTozpxZNKtVL4LPbngDza" cx="17.192" cy="14.277" r="28.321" gradientUnits="userSpaceOnUse"><stop offset="0" stop-color="#fffffe"/><stop offset=".525" stop-color="#e9e4da"/><stop offset="1" stop-color="#aba8a2"/></radialGradient><path fill="url(#XdTozpxZNKtVL4LPbngDza)" d="M42,24v0.31c-0.03,1.72-0.3,3.38-0.78,4.95c-0.44,1.43-1.05,2.78-1.8,4.03c0,0,0,0-0.01,0.01 c-0.95,1.58-2.14,2.99-3.51,4.2c-0.05,0.05-0.09,0.09-0.14,0.13c0,0,0,0.01-0.01,0.01c-0.27,0.23-0.54,0.46-0.82,0.67 c-0.73,0.56-1.49,1.06-2.3,1.5h-0.01c-1.17,0.64-2.42,1.15-3.73,1.52c-0.29,0.08-0.58,0.15-0.87,0.22 c-1.05,0.24-2.14,0.38-3.25,0.43c-0.01,0-0.01,0-0.01,0C24.5,41.99,24.26,42,24,42c-0.44,0-0.87-0.02-1.3-0.05 c-4.01-0.28-7.65-1.88-10.5-4.37c-0.58-0.49-1.12-1.03-1.62-1.59c-0.37-0.41-0.71-0.83-1.04-1.27v-0.01 c-0.97-1.3-1.77-2.75-2.36-4.3V30.4c-0.73-1.92-1.15-3.99-1.17-6.17C6,24.15,6,24.08,6,24v-0.1c0-0.4,0.02-0.79,0.05-1.18v-0.01 c0.03-0.34,0.06-0.67,0.1-1.01c0.04-0.28,0.08-0.56,0.13-0.83c0.13-0.73,0.3-1.43,0.52-2.12c0.05-0.2,0.11-0.4,0.18-0.59 c0.87-2.55,2.29-4.83,4.12-6.71c0.78-0.8,1.63-1.53,2.54-2.17c0.12-0.08,0.23-0.16,0.35-0.23c2.24-1.52,4.86-2.53,7.68-2.88 c0.15-0.03,0.31-0.04,0.47-0.06c0.09-0.01,0.18-0.02,0.27-0.03C22.93,6.02,23.46,6,24,6h0.04c3.02,0.01,5.86,0.75,8.35,2.08 c0.1,0.05,0.21,0.11,0.31,0.17c1.63,0.89,3.11,2.04,4.37,3.38c0.39,0.4,0.75,0.82,1.08,1.25c0.25,0.31,0.47,0.63,0.69,0.95 c1.06,1.53,1.89,3.24,2.42,5.07c0.37,1.23,0.6,2.51,0.69,3.83C41.99,23.15,42,23.57,42,24z"/><linearGradient id="XdTozpxZNKtVL4LPbngDzb" x1="14.649" x2="16.99" y1="24.175" y2="25.963" gradientTransform="rotate(2.883 15.725 24.857)" gradientUnits="userSpaceOnUse"><stop offset=".165" stop-color="#ccc8c1" stop-opacity="0"/><stop offset=".311" stop-color="#ccc8c1" stop-opacity=".5"/><stop offset=".476" stop-color="#a19f99" stop-opacity=".8"/><stop offset=".525" stop-color="#a19f99"/><stop offset=".62" stop-color="#f0eae1"/><stop offset=".75" stop-color="#f0e9e0"/><stop offset=".901" stop-color="#f0e9e0" stop-opacity="0"/></linearGradient><path fill="url(#XdTozpxZNKtVL4LPbngDzb)" d="M13.07,30.803c0.002-0.002,0.036-0.067,0.067-0.177l-2.884-0.824 c0.385-1.347,6.49-8.143,9.525-10.805l1.978,2.255C18.537,24.077,13.566,29.885,13.07,30.803z"/><linearGradient id="XdTozpxZNKtVL4LPbngDzc" x1="26.845" x2="24.483" y1="10.131" y2="9.684" gradientTransform="rotate(2.292 25.71 9.728)" gradientUnits="userSpaceOnUse"><stop offset=".077" stop-color="#f0f0f0" stop-opacity="0"/><stop offset=".235" stop-color="#f0f0f0" stop-opacity=".8"/><stop offset=".38" stop-color="#f0f0f0"/><stop offset=".454" stop-color="#cccac3"/><stop offset=".518" stop-color="#a8a6a2"/><stop offset=".573" stop-color="#cccac3"/><stop offset=".673" stop-color="#ccc8c1" stop-opacity=".5"/><stop offset=".903" stop-color="#e8e3db" stop-opacity="0"/></linearGradient><path fill="url(#XdTozpxZNKtVL4LPbngDzc)" d="M26.527,12.946l-2.988-0.263c0.159-1.813,1.133-5.191,1.765-6.125l2.505,1.417l-1.263-0.576 l1.301,0.646C27.566,8.519,26.667,11.357,26.527,12.946z"/><linearGradient id="XdTozpxZNKtVL4LPbngDzd" x1="16.854" x2="15.683" y1="13.257" y2="15.534" gradientUnits="userSpaceOnUse"><stop offset=".119" stop-color="#e6e1d9" stop-opacity="0"/><stop offset=".317" stop-color="#ccc8c1" stop-opacity="0"/><stop offset=".525" stop-color="#c4c2bb"/><stop offset=".62" stop-color="#fff"/><stop offset=".734" stop-color="#fff"/><stop offset=".923" stop-color="#fff" stop-opacity="0"/></linearGradient><path fill="url(#XdTozpxZNKtVL4LPbngDzd)" d="M19.897,18.248c-3.428-2.337-7.127-3.806-8.373-3.928l0.292-2.986 c2.139,0.21,6.431,2.158,9.771,4.436L19.897,18.248z"/><linearGradient id="XdTozpxZNKtVL4LPbngDze" x1="19.897" x2="19.621" y1="36.194" y2="38.258" gradientTransform="rotate(5.02 19.56 36.78)" gradientUnits="userSpaceOnUse"><stop offset="0" stop-color="#b3b0aa" stop-opacity="0"/><stop offset=".264" stop-color="#b3b0aa" stop-opacity=".8"/><stop offset=".33" stop-color="#adaaa4" stop-opacity=".867"/><stop offset=".419" stop-color="#9c9995" stop-opacity=".957"/><stop offset=".462" stop-color="#918f8b"/><stop offset=".499" stop-color="#8b8985"/><stop offset=".533" stop-color="#807e7b"/><stop offset=".551" stop-color="#868481"/><stop offset=".577" stop-color="#979491"/><stop offset=".605" stop-color="#b4aeab"/><stop offset=".629" stop-color="#d1cac6"/><stop offset=".728" stop-color="#d1cac6"/><stop offset="1" stop-color="#d1cac6" stop-opacity="0"/></linearGradient><path fill="url(#XdTozpxZNKtVL4LPbngDze)" d="M26.899,40.073c-5.634-0.626-12.296-3.2-14.487-5.084l1.434-1.668 c1.644,1.412,7.785,3.953,13.297,4.565L26.899,40.073z"/><linearGradient id="XdTozpxZNKtVL4LPbngDzf" x1="27.66" x2="29.808" y1="29.447" y2="28.617" gradientUnits="userSpaceOnUse"><stop offset="0" stop-color="#d9d4cf" stop-opacity="0"/><stop offset=".265" stop-color="#d9d4cf" stop-opacity=".826"/><stop offset=".289" stop-color="#d9d4cf" stop-opacity=".9"/><stop offset=".321" stop-color="#d6d1cc" stop-opacity=".9"/><stop offset=".347" stop-color="#ccc7c2" stop-opacity=".9"/><stop offset=".371" stop-color="#bab6b0" stop-opacity=".9"/><stop offset=".374" stop-color="#b8b4ae" stop-opacity=".9"/><stop offset=".429" stop-color="#a29e99" stop-opacity=".9"/><stop offset=".494" stop-color="#8c8984" stop-opacity=".9"/><stop offset=".555" stop-color="#a4a19c" stop-opacity=".9"/><stop offset=".621" stop-color="#bab7b1" stop-opacity=".9"/><stop offset=".645" stop-color="#c3bfba" stop-opacity=".9"/><stop offset=".712" stop-color="#d9d4cf" stop-opacity=".9"/><stop offset=".976" stop-color="#d9d4cf" stop-opacity=".074"/><stop offset="1" stop-color="#d9d4cf" stop-opacity="0"/></linearGradient><path fill="url(#XdTozpxZNKtVL4LPbngDzf)" d="M29.398,34.318c-0.797-3.34-3.643-9.81-3.671-9.874l2.013-0.889 c0.12,0.273,2.955,6.718,3.798,10.253L29.398,34.318z"/><linearGradient id="XdTozpxZNKtVL4LPbngDzg" x1="35.018" x2="35.018" y1="15.957" y2="18.834" gradientTransform="rotate(2.688 35.028 17.815)" gradientUnits="userSpaceOnUse"><stop offset=".219" stop-color="#b3afa9" stop-opacity="0"/><stop offset=".349" stop-color="#b3afa9" stop-opacity=".5"/><stop offset=".449" stop-color="#b3b0ab"/><stop offset=".53" stop-color="#8a8884"/><stop offset=".62" stop-color="#e0dbd2"/><stop offset=".734" stop-color="#e0dbd2"/><stop offset=".934" stop-color="#e0dcd3" stop-opacity="0"/></linearGradient><path fill="url(#XdTozpxZNKtVL4LPbngDzg)" d="M39.144,19.909c-2.793-1.14-7.457-1.238-8.236-1.087c0.003-0.001,0.076-0.015,0.183-0.063 l-1.217-2.742c1.157-0.512,7.052-0.253,10.403,1.113L39.144,19.909z"/><linearGradient id="XdTozpxZNKtVL4LPbngDzh" x1="37.892" x2="39.53" y1="28.783" y2="29.527" gradientUnits="userSpaceOnUse"><stop offset="0" stop-color="#a5a39d" stop-opacity="0"/><stop offset=".168" stop-color="#a5a39d" stop-opacity=".8"/><stop offset=".253" stop-color="#9f9e98" stop-opacity=".863"/><stop offset=".368" stop-color="#8e8e89" stop-opacity=".949"/><stop offset=".437" stop-color="#80827d"/><stop offset=".53" stop-color="#6e706b"/><stop offset=".64" stop-color="#c4bdb9"/><stop offset=".761" stop-color="#c4bdb9"/><stop offset="1" stop-color="#c4c1b9" stop-opacity="0"/></linearGradient><path fill="url(#XdTozpxZNKtVL4LPbngDzh)" d="M35.46,34.448l-0.558-2.129l0.279,1.064l-0.317-1.053c0.029-0.01,3.285-1.559,5.015-9.416 l1.739,0.96C39.582,33.116,35.876,34.338,35.46,34.448z"/><linearGradient id="XdTozpxZNKtVL4LPbngDzi" x1="32.592" x2="29.613" y1="39.866" y2="33.143" gradientUnits="userSpaceOnUse"><stop offset="0" stop-color="#292a2a"/><stop offset=".706" stop-color="#323130"/><stop offset="1" stop-color="#43423f"/></linearGradient><path fill="url(#XdTozpxZNKtVL4LPbngDzi)" d="M37.42,32.71c-0.15,1.22-0.86,3.29-1.52,4.79c-0.05,0.05-0.09,0.09-0.14,0.13 c0,0,0,0.01-0.01,0.01c-0.27,0.23-0.54,0.46-0.82,0.67c-0.73,0.56-1.49,1.06-2.3,1.5h-0.01c-1.17,0.64-2.42,1.15-3.73,1.52 c-0.29,0.08-0.58,0.15-0.87,0.22c-1.2-0.57-2.82-1.56-4.04-2.94c-0.22-0.24-0.17-0.62,0.09-0.81c1.54-1.11,4.73-4.15,5.61-5.48 c0.13-0.2,0.35-0.29,0.58-0.24c1.58,0.39,5.08,0.24,6.53,0.03C37.15,32.06,37.47,32.35,37.42,32.71z"/><linearGradient id="XdTozpxZNKtVL4LPbngDzj" x1="26.915" x2="21.209" y1="25.386" y2="12.506" gradientUnits="userSpaceOnUse"><stop offset="0" stop-color="#373633"/><stop offset=".208" stop-color="#403e3b"/><stop offset=".54" stop-color="#575552"/><stop offset=".581" stop-color="#5a5855"/><stop offset=".995" stop-color="#605f5c"/></linearGradient><path fill="url(#XdTozpxZNKtVL4LPbngDzj)" d="M16.958,14.59c0.248-0.495,7.634-3.541,8.305-3.466c1.013,0.113,6.527,6.009,6.527,6.302 s-4.321,7.72-4.636,7.855c-0.315,0.135-9.351-1.787-9.582-2.019S16.71,15.085,16.958,14.59z"/><linearGradient id="XdTozpxZNKtVL4LPbngDzk" x1="26.97" x2="27.794" y1="8.101" y2="4.681" gradientUnits="userSpaceOnUse"><stop offset="0" stop-color="#585754"/><stop offset="1" stop-color="#3a3a39"/></linearGradient><path fill="url(#XdTozpxZNKtVL4LPbngDzk)" d="M32.7,8.25c-2.46-0.37-4.88-0.21-6.41-0.2c-0.08,0-0.15-0.02-0.23-0.05 c-1.1-0.55-2.86-1.39-4.39-1.83c0.15-0.03,0.31-0.04,0.47-0.06c0.09-0.01,0.18-0.02,0.27-0.03C22.93,6.02,23.46,6,24,6h0.04 c3.02,0.01,5.86,0.75,8.35,2.08C32.49,8.13,32.6,8.19,32.7,8.25z"/><linearGradient id="XdTozpxZNKtVL4LPbngDzl" x1="9.717" x2="11.504" y1="13.303" y2="14.877" gradientUnits="userSpaceOnUse"><stop offset="0" stop-color="#4d4c4a"/><stop offset="1" stop-color="#5e5c59"/></linearGradient><path fill="url(#XdTozpxZNKtVL4LPbngDzl)" d="M13.99,9.05c-0.35,1-0.36,2.32-0.44,3.53c-0.04,0.46-0.02,0.51-0.42,0.75 c-2.27,1.37-4.86,3.89-6.33,5.42c0.05-0.2,0.11-0.4,0.18-0.59c0.87-2.55,2.29-4.83,4.12-6.71c0.78-0.8,1.63-1.53,2.54-2.17 C13.76,9.2,13.87,9.12,13.99,9.05z"/><linearGradient id="XdTozpxZNKtVL4LPbngDzm" x1="42.179" x2="38.54" y1="19.102" y2="19.208" gradientUnits="userSpaceOnUse"><stop offset="0" stop-color="#292a2a"/><stop offset=".774" stop-color="#343332"/><stop offset="1" stop-color="#3f3e3a"/></linearGradient><path fill="url(#XdTozpxZNKtVL4LPbngDzm)" d="M42,24v0.31c-0.53,0.66-1.084,1.098-1.638,1.185c0.057-1.445-1.35-6.166-2.363-7.438 c-0.097-0.122-0.126-0.276-0.065-0.42c0.559-1.323,0.452-3.55,0.217-4.757c0.25,0.31,0.47,0.63,0.69,0.95 c1.06,1.53,1.89,3.24,2.42,5.07c0.37,1.23,0.6,2.51,0.69,3.83C41.99,23.15,42,23.57,42,24z"/><linearGradient id="XdTozpxZNKtVL4LPbngDzn" x1="7.097" x2="6.355" y1="24.748" y2="25.012" gradientUnits="userSpaceOnUse"><stop offset="0" stop-color="#ccc8c1" stop-opacity="0"/><stop offset=".143" stop-color="#ccc8c1" stop-opacity=".5"/><stop offset=".295" stop-color="#c6c2bb"/><stop offset=".424" stop-color="#a8a6a0" stop-opacity=".88"/><stop offset=".552" stop-color="#a6a49e"/><stop offset=".678" stop-color="#e4dfd6"/><stop offset=".835" stop-color="#f0e9e0"/><stop offset="1" stop-color="#f0e9e0" stop-opacity="0"/></linearGradient><path fill="url(#XdTozpxZNKtVL4LPbngDzn)" d="M8.37,27.5L7.5,27.99c-0.12-0.21-1-2.1-1.5-4.09c0-0.4,0.02-0.79,0.05-1.18v-0.01 c0.03-0.34,0.06-0.67,0.1-1.01C6.85,24.9,8.2,27.21,8.37,27.5z"/><linearGradient id="XdTozpxZNKtVL4LPbngDzo" x1="10.349" x2="12.136" y1="37.153" y2="28.77" gradientUnits="userSpaceOnUse"><stop offset="0" stop-color="#343432"/><stop offset=".519" stop-color="#383734"/><stop offset="1" stop-color="#504e4a"/></linearGradient><path fill="url(#XdTozpxZNKtVL4LPbngDzo)" d="M15.632,36.454c-0.661,0.399-2.084,0.801-3.302,1.095c-0.082,0.02-0.168-0.001-0.233-0.057 c-0.541-0.466-1.047-0.975-1.517-1.502c-0.37-0.41-0.71-0.83-1.04-1.27v-0.01c-0.97-1.3-1.77-2.75-2.36-4.3V30.4 c0.008-1.094,0.037-2.675,0.158-3.597c0.027-0.204,0.26-0.296,0.418-0.163c1.111,0.936,3.773,1.951,4.674,2.174 c0.094,0.023,0.171,0.091,0.189,0.186c0.211,1.119,2.25,5.967,3.084,7.077C15.796,36.202,15.766,36.373,15.632,36.454z"/><radialGradient id="XdTozpxZNKtVL4LPbngDzp" cx="18.489" cy="16.149" r="27.626" fx="12.965" fy="15.105" gradientTransform="matrix(.7809 .6247 -.8192 1.024 17.28 -11.938)" gradientUnits="userSpaceOnUse"><stop offset=".662" stop-color="#2c2837" stop-opacity="0"/><stop offset="1" stop-color="#2c2837"/></radialGradient><path fill="url(#XdTozpxZNKtVL4LPbngDzp)" d="M42,24v0.31c-0.03,1.72-0.3,3.38-0.78,4.95c-0.44,1.43-1.05,2.78-1.8,4.03 c0,0,0,0-0.01,0.01c-0.95,1.58-2.14,2.99-3.51,4.2c-0.05,0.05-0.09,0.09-0.14,0.13c0,0,0,0.01-0.01,0.01 c-0.27,0.23-0.54,0.46-0.82,0.67c-0.73,0.56-1.49,1.06-2.3,1.5h-0.01c-1.17,0.64-2.42,1.15-3.73,1.52 c-0.29,0.08-0.58,0.15-0.87,0.22c-1.05,0.24-2.14,0.38-3.25,0.43c-0.01,0-0.01,0-0.01,0C24.5,41.99,24.26,42,24,42 c-0.44,0-0.87-0.02-1.3-0.05c-4.01-0.28-7.65-1.88-10.5-4.37c-0.58-0.49-1.12-1.03-1.62-1.59c-0.37-0.41-0.71-0.83-1.04-1.27v-0.01 c-0.97-1.3-1.77-2.75-2.36-4.3V30.4c-0.73-1.92-1.15-3.99-1.17-6.17C6,24.15,6,24.08,6,24v-0.1c0-0.4,0.02-0.79,0.05-1.18v-0.01 c0.03-0.34,0.06-0.67,0.1-1.01c0.04-0.28,0.08-0.56,0.13-0.83c0.13-0.73,0.3-1.43,0.52-2.12c0.05-0.2,0.11-0.4,0.18-0.59 c0.87-2.55,2.29-4.83,4.12-6.71c0.78-0.8,1.63-1.53,2.54-2.17c0.12-0.08,0.23-0.16,0.35-0.23c2.24-1.52,4.86-2.53,7.68-2.88 c0.15-0.03,0.31-0.04,0.47-0.06c0.09-0.01,0.18-0.02,0.27-0.03C22.93,6.02,23.46,6,24,6h0.04c3.02,0.01,5.86,0.75,8.35,2.08 c0.1,0.05,0.21,0.11,0.31,0.17c1.63,0.89,3.11,2.04,4.37,3.38c0.39,0.4,0.75,0.82,1.08,1.25c0.25,0.31,0.47,0.63,0.69,0.95 c1.06,1.53,1.89,3.24,2.42,5.07c0.37,1.23,0.6,2.51,0.69,3.83C41.99,23.15,42,23.57,42,24z" opacity=".8"/><radialGradient id="XdTozpxZNKtVL4LPbngDzq" cx="17.192" cy="14.277" r="28.321" gradientUnits="userSpaceOnUse"><stop offset="0" stop-color="#fffffe" stop-opacity=".3"/><stop offset=".807" stop-color="#fdfdfc" stop-opacity="0"/></radialGradient><path fill="url(#XdTozpxZNKtVL4LPbngDzq)" d="M42,24v0.31c-0.03,1.72-0.3,3.38-0.78,4.95c-0.44,1.43-1.05,2.78-1.8,4.03 c0,0,0,0-0.01,0.01c-0.95,1.58-2.14,2.99-3.51,4.2c-0.05,0.05-0.09,0.09-0.14,0.13c0,0,0,0.01-0.01,0.01 c-0.27,0.23-0.54,0.46-0.82,0.67c-0.73,0.56-1.49,1.06-2.3,1.5h-0.01c-1.17,0.64-2.42,1.15-3.73,1.52 c-0.29,0.08-0.58,0.15-0.87,0.22c-1.05,0.24-2.14,0.38-3.25,0.43c-0.01,0-0.01,0-0.01,0C24.5,41.99,24.26,42,24,42 c-0.44,0-0.87-0.02-1.3-0.05c-4.01-0.28-7.65-1.88-10.5-4.37c-0.58-0.49-1.12-1.03-1.62-1.59c-0.37-0.41-0.71-0.83-1.04-1.27v-0.01 c-0.97-1.3-1.77-2.75-2.36-4.3V30.4c-0.73-1.92-1.15-3.99-1.17-6.17C6,24.15,6,24.08,6,24v-0.1c0-0.4,0.02-0.79,0.05-1.18v-0.01 c0.03-0.34,0.06-0.67,0.1-1.01c0.04-0.28,0.08-0.56,0.13-0.83c0.13-0.73,0.3-1.43,0.52-2.12c0.05-0.2,0.11-0.4,0.18-0.59 c0.87-2.55,2.29-4.83,4.12-6.71c0.78-0.8,1.63-1.53,2.54-2.17c0.12-0.08,0.23-0.16,0.35-0.23c2.24-1.52,4.86-2.53,7.68-2.88 c0.15-0.03,0.31-0.04,0.47-0.06c0.09-0.01,0.18-0.02,0.27-0.03C22.93,6.02,23.46,6,24,6h0.04c3.02,0.01,5.86,0.75,8.35,2.08 c0.1,0.05,0.21,0.11,0.31,0.17c1.63,0.89,3.11,2.04,4.37,3.38c0.39,0.4,0.75,0.82,1.08,1.25c0.25,0.31,0.47,0.63,0.69,0.95 c1.06,1.53,1.89,3.24,2.42,5.07c0.37,1.23,0.6,2.51,0.69,3.83C41.99,23.15,42,23.57,42,24z"/></svg>