<svg xmlns="http://www.w3.org/2000/svg" viewBox="0 0 48 48"><polygon fill="#a8a8a8" points="44.312,36.25 40.104,36.25 43.08,33.274 42.726,32.92 39.75,35.896 39.75,31.688 39.25,31.688 39.25,35.896 36.274,32.92 35.92,33.274 38.896,36.25 34.687,36.25 34.687,36.75 38.896,36.75 35.92,39.726 36.274,40.08 39.25,37.104 39.25,41.313 39.75,41.313 39.75,37.104 42.726,40.08 43.08,39.726 40.104,36.75 44.312,36.75"/><linearGradient id="o6ezuErY830ABJeX_G2zsa" x1="37" x2="42" y1="36.5" y2="36.5" gradientUnits="userSpaceOnUse"><stop offset="0" stop-color="#e0e0e0"/><stop offset="1" stop-color="#999"/></linearGradient><circle cx="39.5" cy="36.5" r="2.5" fill="url(#o6ezuErY830ABJeX_G2zsa)"/><linearGradient id="o6ezuErY830ABJeX_G2zsb" x1="34" x2="45" y1="36.5" y2="36.5" gradientUnits="userSpaceOnUse"><stop offset="0" stop-color="#999"/><stop offset="1" stop-color="#e0e0e0"/></linearGradient><path fill="url(#o6ezuErY830ABJeX_G2zsb)" d="M39.5,31c-3.038,0-5.5,2.462-5.5,5.5c0,3.038,2.462,5.5,5.5,5.5s5.5-2.462,5.5-5.5	C45,33.462,42.538,31,39.5,31z M39.5,41c-2.485,0-4.5-2.015-4.5-4.5s2.015-4.5,4.5-4.5s4.5,2.015,4.5,4.5S41.985,41,39.5,41z"/><radialGradient id="o6ezuErY830ABJeX_G2zsc" cx="39.5" cy="36.5" r="7.5" gradientUnits="userSpaceOnUse"><stop offset="0" stop-color="#666"/><stop offset=".513" stop-color="#646464"/><stop offset=".698" stop-color="#5e5e5d"/><stop offset=".829" stop-color="#525252"/><stop offset=".935" stop-color="#424241"/><stop offset="1" stop-color="#333332"/></radialGradient><path fill="url(#o6ezuErY830ABJeX_G2zsc)" d="M39.5,29c-4.142,0-7.5,3.358-7.5,7.5s3.358,7.5,7.5,7.5s7.5-3.358,7.5-7.5S43.642,29,39.5,29z M39.5,42c-3.038,0-5.5-2.462-5.5-5.5c0-3.038,2.462-5.5,5.5-5.5s5.5,2.462,5.5,5.5C45,39.538,42.538,42,39.5,42z"/><linearGradient id="o6ezuErY830ABJeX_G2zsd" x1="40.104" x2="36.726" y1="37.19" y2="33.33" gradientUnits="userSpaceOnUse"><stop offset="0" stop-color="#585857"/><stop offset="1" stop-color="#b3b3b3"/></linearGradient><circle cx="39.5" cy="36.5" r="1.5" fill="url(#o6ezuErY830ABJeX_G2zsd)"/><linearGradient id="o6ezuErY830ABJeX_G2zse" x1="41.29" x2="31.113" y1="33.734" y2="34.719" gradientTransform="rotate(20.166 33.69 33.36)" gradientUnits="userSpaceOnUse"><stop offset="0" stop-color="#343838"/><stop offset=".999" stop-color="#171714"/></linearGradient><path fill="url(#o6ezuErY830ABJeX_G2zse)" d="M39.118,37.469L28.04,33.401L29,31.719l10.796,3.904c0.51,0.187,0.771,0.752,0.584,1.262v0	C40.193,37.395,39.628,37.657,39.118,37.469z"/><linearGradient id="o6ezuErY830ABJeX_G2zsf" x1="23.939" x2="24.533" y1="32.928" y2="28.414" gradientUnits="userSpaceOnUse"><stop offset="0" stop-color="#343838"/><stop offset=".999" stop-color="#171714"/></linearGradient><path fill="url(#o6ezuErY830ABJeX_G2zsf)" d="M14.2,23.459l5.761,12.486l0.824-0.602L15.8,24.541l18.175,0.908l-8.742,10.49	c-0.154,0.186,0.636,0.799,0.769,0.64l10.024-12.028L14.2,23.459z"/><rect width="1" height="5.47" x="26.172" y="27.812" fill="#464646" transform="rotate(-10.865 26.678 30.553)"/><polygon fill="#a8a8a8" points="13.312,36.25 9.104,36.25 12.08,33.274 11.726,32.92 8.75,35.896 8.75,31.688 8.25,31.688 8.25,35.896 5.274,32.92 4.92,33.274 7.896,36.25 3.687,36.25 3.687,36.75 7.896,36.75 4.92,39.726 5.274,40.08 8.25,37.104 8.25,41.313 8.75,41.313 8.75,37.104 11.726,40.08 12.08,39.726 9.104,36.75 13.312,36.75"/><polygon fill="#272a28" points="25.583,37.25 20.937,38.219 18.625,33.031 21.688,32.141 29.708,32.25"/><linearGradient id="o6ezuErY830ABJeX_G2zsg" x1="7.565" x2="8.986" y1="19.199" y2="22.771" gradientTransform="rotate(-11.263 9.001 21.08)" gradientUnits="userSpaceOnUse"><stop offset="0" stop-color="#fdd835"/><stop offset="1" stop-color="#f9a825"/></linearGradient><path fill="url(#o6ezuErY830ABJeX_G2zsg)" d="M9.268,23.262L8.524,23.41c-0.324,0.064-0.638-0.146-0.702-0.469l-0.681-3.42	c-0.064-0.324,0.146-0.638,0.469-0.702l0.744-0.148L9.268,23.262z"/><linearGradient id="o6ezuErY830ABJeX_G2zsh" x1="31.688" x2="45.844" y1="25.069" y2="25.069" gradientUnits="userSpaceOnUse"><stop offset="0" stop-color="#4d4d4d"/><stop offset=".999" stop-color="#171714"/></linearGradient><path fill="url(#o6ezuErY830ABJeX_G2zsh)" d="M32.984,25.55c1.256-0.745,2.767-1.05,4.328-1.05c2.854,0,5.413,1.259,7.148,3.257	c0.482,0.555,1.384-0.007,1.384-0.007c-1.559-2.139-3.99-4.583-5.712-4.9c-4.992-0.919-3.353-1.598-8.444,2.244	C31.687,25.094,32.236,25.994,32.984,25.55z"/><linearGradient id="o6ezuErY830ABJeX_G2zsi" x1="2.875" x2="17.031" y1="27.881" y2="27.881" gradientTransform="rotate(5.902 9.957 27.874)" gradientUnits="userSpaceOnUse"><stop offset="0" stop-color="#29b6f6"/><stop offset="1" stop-color="#315b8e"/></linearGradient><path fill="url(#o6ezuErY830ABJeX_G2zsi)" d="M4.185,27.456c1.325-0.612,2.86-0.761,4.413-0.6c2.839,0.293,5.255,1.808,6.776,3.973	c0.422,0.601,1.377,0.135,1.377,0.135c-1.331-2.288-3.498-4.968-5.179-5.46c-2.099-0.615-6.217-0.092-8.63,1.366	C2.942,26.869,3.395,27.821,4.185,27.456z"/><linearGradient id="o6ezuErY830ABJeX_G2zsj" x1="6" x2="11" y1="36.5" y2="36.5" gradientUnits="userSpaceOnUse"><stop offset="0" stop-color="#e0e0e0"/><stop offset="1" stop-color="#999"/></linearGradient><circle cx="8.5" cy="36.5" r="2.5" fill="url(#o6ezuErY830ABJeX_G2zsj)"/><linearGradient id="o6ezuErY830ABJeX_G2zsk" x1="9.104" x2="5.726" y1="37.19" y2="33.33" gradientUnits="userSpaceOnUse"><stop offset="0" stop-color="#585857"/><stop offset="1" stop-color="#b3b3b3"/></linearGradient><circle cx="8.5" cy="36.5" r="1.5" fill="url(#o6ezuErY830ABJeX_G2zsk)"/><linearGradient id="o6ezuErY830ABJeX_G2zsl" x1="3" x2="14" y1="36.5" y2="36.5" gradientUnits="userSpaceOnUse"><stop offset="0" stop-color="#999"/><stop offset="1" stop-color="#e0e0e0"/></linearGradient><path fill="url(#o6ezuErY830ABJeX_G2zsl)" d="M8.5,31C5.462,31,3,33.462,3,36.5C3,39.538,5.462,42,8.5,42s5.5-2.462,5.5-5.5	C14,33.462,11.538,31,8.5,31z M8.5,41C6.015,41,4,38.985,4,36.5S6.015,32,8.5,32s4.5,2.015,4.5,4.5S10.985,41,8.5,41z"/><radialGradient id="o6ezuErY830ABJeX_G2zsm" cx="8.5" cy="36.5" r="7.5" gradientUnits="userSpaceOnUse"><stop offset="0" stop-color="#666"/><stop offset=".513" stop-color="#646464"/><stop offset=".698" stop-color="#5e5e5d"/><stop offset=".829" stop-color="#525252"/><stop offset=".935" stop-color="#424241"/><stop offset="1" stop-color="#333332"/></radialGradient><path fill="url(#o6ezuErY830ABJeX_G2zsm)" d="M8.5,29C4.358,29,1,32.358,1,36.5S4.358,44,8.5,44s7.5-3.358,7.5-7.5S12.642,29,8.5,29z M8.5,42C5.462,42,3,39.538,3,36.5C3,33.462,5.462,31,8.5,31s5.5,2.462,5.5,5.5C14,39.538,11.538,42,8.5,42z"/><linearGradient id="o6ezuErY830ABJeX_G2zsn" x1="8" x2="23.125" y1="26.375" y2="26.375" gradientUnits="userSpaceOnUse"><stop offset="0" stop-color="#343838"/><stop offset=".999" stop-color="#171714"/></linearGradient><path fill="url(#o6ezuErY830ABJeX_G2zsn)" d="M8.5,37.041c-0.062,0-0.123-0.011-0.184-0.035c-0.257-0.101-0.383-0.392-0.281-0.648	l7.417-18.833c0.05-0.127,0.15-0.229,0.277-0.28l3.708-1.5c0.06-0.023,0.123-0.036,0.188-0.036h3c0.276,0,0.5,0.224,0.5,0.5	c0,0.276-0.224,0.5-0.5,0.5h-2.902l-3.419,1.383L8.965,36.725C8.888,36.921,8.699,37.041,8.5,37.041z"/><linearGradient id="o6ezuErY830ABJeX_G2zso" x1="20.036" x2="21.219" y1="18.192" y2="26.042" gradientUnits="userSpaceOnUse"><stop offset="0" stop-color="#ccc"/><stop offset=".364" stop-color="#4b4b4b"/><stop offset=".999" stop-color="#171714"/></linearGradient><path fill="url(#o6ezuErY830ABJeX_G2zso)" d="M13.349,21.573l4.12-1.605c3.49-1.385,7-1.906,10.406,3.25c0,0,0.711,2.248,0.125,2.313	l-8.125,0.427c-3.216,0.216-5.136-0.94-5.917-2.875L13.349,21.573z"/><linearGradient id="o6ezuErY830ABJeX_G2zsp" x1="13.521" x2="15.128" y1="17.359" y2="21.4" gradientUnits="userSpaceOnUse"><stop offset="0" stop-color="#29b6f6"/><stop offset="1" stop-color="#315b8e"/></linearGradient><path fill="url(#o6ezuErY830ABJeX_G2zsp)" d="M8.156,18.5l1,5H12.3c1.124,0,2.138-0.676,2.57-1.714l3.099-7.443	c0.313-0.875,0.441-2.169,0-2.844L8.156,18.5z"/><linearGradient id="o6ezuErY830ABJeX_G2zsq" x1="10.252" x2="9.421" y1="33.644" y2="33.283" gradientUnits="userSpaceOnUse"><stop offset="0" stop-color="#999"/><stop offset="1" stop-color="#e0e0e0"/></linearGradient><path fill="url(#o6ezuErY830ABJeX_G2zsq)" d="M10.661,29.689l-2.626,6.669c-0.102,0.257,0.024,0.548,0.281,0.648	c0.061,0.024,0.122,0.035,0.184,0.035c0.199,0,0.388-0.12,0.465-0.316l2.638-6.698L10.661,29.689z"/><linearGradient id="o6ezuErY830ABJeX_G2zsr" x1="15.001" x2="17.003" y1="14.521" y2="17.226" gradientUnits="userSpaceOnUse"><stop offset="0" stop-color="#b6d9e3"/><stop offset="1" stop-color="#4796b0"/></linearGradient><path fill="url(#o6ezuErY830ABJeX_G2zsr)" d="M17.969,11.5l-6.75,4.813c0.115,1.082,3.188,0.969,5.531,0.969l1.219-2.938	C18.281,13.469,18.41,12.174,17.969,11.5z"/><linearGradient id="o6ezuErY830ABJeX_G2zss" x1="22.244" x2="17.104" y1="35.185" y2="20.725" gradientUnits="userSpaceOnUse"><stop offset="0" stop-color="#8b8b8a"/><stop offset="1" stop-color="#e0e0e0"/></linearGradient><path fill="url(#o6ezuErY830ABJeX_G2zss)" d="M20.988,39.077c-1.059,0-2.058-0.618-2.509-1.61l-1.481-3.259	c-0.61-1.343-0.06-2.918,1.255-3.587l2.044-1.027l0.453,0.891l-2.044,1.027c-0.836,0.426-1.186,1.428-0.798,2.282l1.481,3.259	c0.34,0.747,1.163,1.159,1.968,0.984l6.316-1.39l0.215,0.977l-6.316,1.39C21.378,39.056,21.182,39.077,20.988,39.077z"/><linearGradient id="o6ezuErY830ABJeX_G2zst" x1="35.29" x2="35.657" y1="34.483" y2="36.128" gradientUnits="userSpaceOnUse"><stop offset=".019" stop-color="#c8ccd3"/><stop offset=".346" stop-color="#e0e0e0"/><stop offset="1" stop-color="#8a929d"/></linearGradient><path fill="url(#o6ezuErY830ABJeX_G2zst)" d="M45.083,34.208c-5.631,1.524-13.357,3.212-18.811,4.002l-0.317-1.402	c5.422-1.587,13.1-3.438,18.687-4.551L45.083,34.208z"/><linearGradient id="o6ezuErY830ABJeX_G2zsu" x1="25.614" x2="20.603" y1="32.232" y2="32.232" gradientTransform="rotate(-12.813 12.866 41.648)" gradientUnits="userSpaceOnUse"><stop offset="0" stop-color="#585857"/><stop offset="1" stop-color="#b3b3b3"/></linearGradient><polygon fill="url(#o6ezuErY830ABJeX_G2zsu)" points="25.101,32.012 20.806,33.082 19.244,27.753 24.107,26.542"/><polygon fill="#2d2d2d" points="24.474,28.564 24.385,28.071 19.668,29.201 19.809,29.681"/><polygon fill="#2d2d2d" points="24.299,27.599 24.21,27.106 19.393,28.26 19.533,28.74"/><polygon fill="#2d2d2d" points="24.65,29.529 24.56,29.036 19.944,30.141 20.085,30.622"/><polygon fill="#2d2d2d" points="25,31.459 24.911,30.966 20.496,32.023 20.636,32.503"/><polygon fill="#2d2d2d" points="24.825,30.494 24.735,30.001 20.22,31.082 20.361,31.563"/><radialGradient id="o6ezuErY830ABJeX_G2zsv" cx="24.661" cy="30.182" r="1.168" gradientTransform="rotate(-12.813 12.866 41.648)" gradientUnits="userSpaceOnUse"><stop offset="0" stop-color="#9d9d9d"/><stop offset=".433" stop-color="#9f9f9f"/><stop offset=".63" stop-color="#a7a7a7"/><stop offset=".78" stop-color="#b3b3b3"/><stop offset=".905" stop-color="#c5c5c5"/><stop offset="1" stop-color="#d9d9d9"/></radialGradient><circle cx="21.826" cy="27.853" r="1.168" fill="url(#o6ezuErY830ABJeX_G2zsv)"/><radialGradient id="o6ezuErY830ABJeX_G2zsw" cx="23.983" cy="34.375" r="3.789" gradientTransform="matrix(1 0 0 .6351 0 12.545)" gradientUnits="userSpaceOnUse"><stop offset="0" stop-color="#565656"/><stop offset=".482" stop-color="#585858"/><stop offset=".702" stop-color="#60605f"/><stop offset=".868" stop-color="#6c6c6c"/><stop offset="1" stop-color="#7d7d7c"/></radialGradient><ellipse cx="23.982" cy="34.375" fill="url(#o6ezuErY830ABJeX_G2zsw)" rx="3.92" ry="2.625"/><linearGradient id="o6ezuErY830ABJeX_G2zsx" x1="23.167" x2="27.167" y1="34.936" y2="34.936" gradientTransform="matrix(1 0 0 .9792 0 .23)" gradientUnits="userSpaceOnUse"><stop offset="0" stop-color="#9e9e9e"/><stop offset=".434" stop-color="#a0a0a0"/><stop offset=".633" stop-color="#a8a8a8"/><stop offset=".783" stop-color="#b4b4b4"/><stop offset=".909" stop-color="#c6c6c6"/><stop offset="1" stop-color="#d9d9d9"/></linearGradient><path fill="url(#o6ezuErY830ABJeX_G2zsx)" d="M26.656,35.417h-3.49v-1.958h3.49c0.282,0,0.51,0.229,0.51,0.51v0.938	C27.167,35.188,26.938,35.417,26.656,35.417z"/><radialGradient id="o6ezuErY830ABJeX_G2zsy" cx="22.359" cy="34.309" r="2.296" gradientUnits="userSpaceOnUse"><stop offset="0" stop-color="#757574"/><stop offset=".41" stop-color="#777776"/><stop offset=".598" stop-color="#7e7e7e"/><stop offset=".74" stop-color="#8b8b8a"/><stop offset=".859" stop-color="#9d9d9c"/><stop offset=".963" stop-color="#b4b4b4"/><stop offset="1" stop-color="#bebebe"/></radialGradient><circle cx="22.359" cy="34.309" r="2.296" fill="url(#o6ezuErY830ABJeX_G2zsy)"/><linearGradient id="o6ezuErY830ABJeX_G2zsz" x1="29.206" x2="30.148" y1="22.958" y2="31.413" gradientUnits="userSpaceOnUse"><stop offset="0" stop-color="#29b6f6"/><stop offset="1" stop-color="#315b8e"/></linearGradient><path fill="url(#o6ezuErY830ABJeX_G2zsz)" d="M43.8,19.822c-0.026-0.276-0.298-0.458-0.563-0.377l-4.431,1.375l-9.868,4.742L21,22.906	c-0.627-0.16-1.282-0.173-1.915-0.038l-4.71,1.09l1.501,3.414c0.342,0.777,1.196,1.191,2.017,0.979l3.187-0.822l2.035-0.525	l1.855-0.478l0.813,3.358c0.127,0.544,0.611,0.928,1.169,0.928h4.076c0.375,0,0.729-0.175,0.956-0.474l2.047-2.693l2.907-0.38	l6.185-2.837c0.769-0.353,0.93-1.088,0.834-1.928L43.8,19.822z"/><path fill="#45c7f4" d="M18.929,23.493c0.633-0.135,1.288-0.122,1.915,0.038l9.153,2.863 c1.642,0.514,3.409,0.461,5.018-0.149l5.497-2.085c1.164-0.442,1.996-2.482,2.171-3.715l0.12-0.849l-3.997,1.224l-9.837,4.664 L21,22.906c-0.627-0.16-1.282-0.173-1.915-0.038l-4.71,1.09l0.235,0.534L18.929,23.493z"/><linearGradient id="o6ezuErY830ABJeX_G2zsA" x1="26.241" x2="42.441" y1="22.757" y2="22.757" gradientTransform="rotate(-6.486 35.454 25.27)" gradientUnits="userSpaceOnUse"><stop offset="0" stop-color="#4d4d4d"/><stop offset=".999" stop-color="#171714"/></linearGradient><path fill="url(#o6ezuErY830ABJeX_G2zsA)" d="M30.458,25.896c1.363,0.392,2.82,0.49,4.141-0.027l5.313-2.082	c1.015-0.271,1.769-2.124,1.912-3.166l0.051-0.715l-6.781,1.813c-2.563,2.969-7.25,0.844-9.438-1.063l1.583,3.741	c0.328,0.567,0.616,0.765,1.245,0.946L30.458,25.896z"/><path fill="#666" d="M35.203,22.328l6.626-1.771l0.046-0.65l-6.781,1.813c-2.563,2.969-7.25,0.844-9.438-1.063	l0.704,1.219C28.802,23.601,32.864,25.037,35.203,22.328z"/><linearGradient id="o6ezuErY830ABJeX_G2zsB" x1="29.117" x2="29.436" y1="22.117" y2="27.472" gradientUnits="userSpaceOnUse"><stop offset="0" stop-color="#2f6da2" stop-opacity="0"/><stop offset="1" stop-color="#2f6da3"/></linearGradient><path fill="url(#o6ezuErY830ABJeX_G2zsB)" d="M43.8,19.822c-0.026-0.276-0.298-0.458-0.563-0.377l-0.013,0.004l0.044,0.485l0.039-0.012	l0.154,2.635c0.071,0.627,0.028,1.153-0.546,1.417L36.8,26.779l-2.832,0.37c-0.133,0.018-0.253,0.087-0.334,0.193l-2.047,2.693	c-0.131,0.173-0.34,0.276-0.558,0.276h-4.076c-0.327,0-0.608-0.223-0.684-0.545l-0.813-3.358c-0.032-0.131-0.114-0.242-0.229-0.312	c-0.078-0.047-0.167-0.071-0.257-0.071c-0.042,0-0.084,0.005-0.125,0.016l-7.077,1.825c-0.587,0.156-1.19-0.142-1.435-0.696	l-1.258-2.858l-0.669-0.281l1.469,3.341c0.342,0.777,1.196,1.191,2.017,0.979l3.187-0.822l2.035-0.525l1.855-0.478l0.813,3.358	c0.127,0.544,0.611,0.928,1.169,0.928h4.076c0.375,0,0.729-0.175,0.956-0.474l2.047-2.693l2.907-0.38l6.185-2.837	c0.769-0.353,0.93-1.088,0.834-1.928L43.8,19.822z"/></svg>