<svg xmlns="http://www.w3.org/2000/svg" viewBox="0 0 48 48"><radialGradient id="lyTgHxzDdohFb8LHWcuv_a" cx="24.104" cy="-3.688" r="16.688" gradientTransform="matrix(1 0 0 -1 0 48)" gradientUnits="userSpaceOnUse"><stop offset=".002" stop-color="#90bcfc"/><stop offset=".378" stop-color="#709cdc"/><stop offset=".981" stop-color="#416dac"/></radialGradient><path fill="url(#lyTgHxzDdohFb8LHWcuv_a)" d="M43,46c0,0,0.054-9.133-6.089-10.749C33.774,34.426,24.018,32,24.001,32	s-9.774,2.426-12.91,3.251C4.947,36.867,5,46,5,46H43z"/><linearGradient id="lyTgHxzDdohFb8LHWcuv_b" x1="23.954" x2="23.954" y1="-.865" y2="5.825" gradientTransform="matrix(1 0 0 -1 0 48)" gradientUnits="userSpaceOnUse"><stop offset=".002" stop-color="#90bcfc"/><stop offset=".378" stop-color="#709cdc"/><stop offset=".981" stop-color="#416dac"/></linearGradient><path fill="url(#lyTgHxzDdohFb8LHWcuv_b)" d="M23.529,40.994c-1.734-2.157-3.748-4.93-5.931-7.346c-0.38-0.748,0.058-1.992,1.477-2.126	c3.237-0.335,6.628-0.46,9.749,0.023c1.472,0.298,1.862,1.581,1.477,2.121c-1.833,2.022-4.048,4.912-5.819,7.322	C24.259,41.34,23.757,41.342,23.529,40.994z"/><linearGradient id="lyTgHxzDdohFb8LHWcuv_c" x1="23.937" x2="23.937" y1="7.894" y2="12.346" gradientTransform="matrix(1 0 0 -1 0 48)" gradientUnits="userSpaceOnUse"><stop offset="0" stop-color="#fdd02d"/><stop offset=".999" stop-color="#cf941d"/></linearGradient><path fill="url(#lyTgHxzDdohFb8LHWcuv_c)" d="M24,41L24,41l-5.156-7.75c-1.141-1.531,11.266-1.484,10.195,0.024L24,41z"/><radialGradient id="lyTgHxzDdohFb8LHWcuv_d" cx="-2.205" cy="-16.18" r="1.867" gradientTransform="matrix(-.8764 .1748 -.3931 -2.1652 3.79 -12.338)" gradientUnits="userSpaceOnUse"><stop offset="0" stop-color="#ffe16e"/><stop offset=".461" stop-color="#ffd226"/><stop offset=".741" stop-color="#f8c21d"/><stop offset=".999" stop-color="#f0af13"/></radialGradient><path fill="url(#lyTgHxzDdohFb8LHWcuv_d)" d="M12.66,19.601c-0.759-0.243-2.592-0.088-2.656,2.142c-0.06,2.109,0.464,3.07,1.159,3.976	c0.78,1.016,2.183,1.008,2.067,0.201C13.115,25.113,12.66,19.601,12.66,19.601z"/><radialGradient id="lyTgHxzDdohFb8LHWcuv_e" cx="-199.274" cy="-16.18" r="1.867" gradientTransform="matrix(.829 .1748 .3719 -2.1652 207.248 22.102)" gradientUnits="userSpaceOnUse"><stop offset="0" stop-color="#ffe16e"/><stop offset=".461" stop-color="#ffd226"/><stop offset=".741" stop-color="#f8c21d"/><stop offset=".999" stop-color="#f0af13"/></radialGradient><path fill="url(#lyTgHxzDdohFb8LHWcuv_e)" d="M35.484,19.601c0.718-0.243,2.452-0.088,2.512,2.142c0.057,2.109-0.439,3.07-1.097,3.976	c-0.738,1.016-2.065,1.008-1.955,0.201C35.053,25.113,35.484,19.601,35.484,19.601z"/><radialGradient id="lyTgHxzDdohFb8LHWcuv_f" cx="-2.137" cy="66.626" r="14.627" fx="-2.214" fy="60.359" gradientTransform="matrix(.8889 0 0 -1.0694 25.915 91.394)" gradientUnits="userSpaceOnUse"><stop offset="0" stop-color="#ffe16e"/><stop offset=".629" stop-color="#ffd226"/><stop offset=".75" stop-color="#fdcd23"/><stop offset=".899" stop-color="#f6bd1b"/><stop offset=".999" stop-color="#f0af13"/></radialGradient><path fill="url(#lyTgHxzDdohFb8LHWcuv_f)" d="M36.838,19.716c0,2.89-0.193,6.659-1.343,8.971C33.256,33.191,27.296,36,24.015,36	c-3.41,0-9.305-2.809-11.544-7.313c-1.149-2.312-1.279-6.081-1.279-8.971c0-0.635,0.017-1.234,0.051-1.803	c0.196-3.271,0.943-5.526,2.101-7.612c2.299-4.141,6.22-6.012,10.671-6.012c4.426,0,8.329,1.841,10.633,5.945	C36.031,12.695,36.838,15.43,36.838,19.716z"/><radialGradient id="lyTgHxzDdohFb8LHWcuv_g" cx="22.492" cy="37.459" r="11.216" gradientTransform="matrix(.9947 0 0 -1 1.904 48)" gradientUnits="userSpaceOnUse"><stop offset="0" stop-color="#aa8765"/><stop offset=".059" stop-color="#a17c58"/><stop offset=".165" stop-color="#956d47"/><stop offset=".28" stop-color="#8e653c"/><stop offset=".418" stop-color="#8c6239"/><stop offset=".583" stop-color="#875d34"/><stop offset=".789" stop-color="#774e27"/><stop offset=".999" stop-color="#603813"/></radialGradient><path fill="url(#lyTgHxzDdohFb8LHWcuv_g)" d="M11.774,20.328c0,0,0.321-3.984,0.12-5.147c0.905-0.657,3.722-2.63,3.32-5.714	c1.157,0.961,7.092,5.006,16.598,1.82c2.113,2.579,2.515,2.68,4.124,3.641c0.402,1.112,0.553,4.76,0.503,5.367	s0.704,1.062,1.056-0.202C37.606,19.695,38,16.346,38,14c0-5-1.547-12.643-13.884-12.747C12.14,1.152,10.062,8.979,10.062,13.979	c0,3,0.725,6.215,0.725,6.215C10.925,20.951,11.611,20.984,11.774,20.328z"/><radialGradient id="lyTgHxzDdohFb8LHWcuv_h" cx="22.209" cy="35.216" r="11.687" gradientTransform="matrix(.9537 -.2806 -.2791 -.9608 12.772 52.853)" gradientUnits="userSpaceOnUse"><stop offset="0" stop-color="#aa8765"/><stop offset=".145" stop-color="#a17c57"/><stop offset=".441" stop-color="#926941"/><stop offset=".629" stop-color="#8c6239"/><stop offset=".711" stop-color="#875d34"/><stop offset=".814" stop-color="#774e27"/><stop offset=".919" stop-color="#603813"/></radialGradient><path fill="url(#lyTgHxzDdohFb8LHWcuv_h)" d="M37.036,13.333c-0.03-0.099-0.101-0.179-0.19-0.231c-1.459-0.859-2.662-2.693-4.568-4.989 c-0.106-0.128-0.284-0.181-0.442-0.131c-8.114,2.613-14.926,0.077-17.213-1.39C14.334,6.406,14.001,6.637,14,6.983 c-0.012,4.21-1.761,6.11-3.068,6.792c-0.155,0.081-0.228,0.237-0.235,0.412c-0.058,1.359-0.205,4.163,0.022,5.526 c0.04,0.299,0.067,0.479,0.067,0.479c0.138,0.757,0.822,0.79,0.985,0.134c0,0,0.286-3.548,0.149-4.925 c-0.014-0.142,0.051-0.28,0.165-0.364c0.95-0.695,3.026-2.316,3.154-4.741c0.017-0.324,0.362-0.521,0.63-0.341 c2.024,1.362,7.501,4.056,15.652,1.417c0.158-0.051,0.338,0.002,0.444,0.131c1.894,2.294,2.352,2.48,3.798,3.338 c0.088,0.052,0.161,0.133,0.19,0.232c0.366,1.255,0.503,4.638,0.455,5.22c-0.05,0.607,0.703,1.062,1.055-0.202 c0.014-0.051,0.035-0.153,0.06-0.295C37.696,18.917,37.413,14.59,37.036,13.333z"/><radialGradient id="lyTgHxzDdohFb8LHWcuv_i" cx="22.511" cy="35.063" r="11.572" gradientTransform="matrix(.9545 -.2806 -.2794 -.9608 12.46 52.943)" gradientUnits="userSpaceOnUse"><stop offset="0" stop-color="#9f7c59"/><stop offset=".081" stop-color="#9b7652"/><stop offset=".416" stop-color="#8c633c"/><stop offset=".629" stop-color="#865c34"/><stop offset=".719" stop-color="#81572f"/><stop offset=".831" stop-color="#714822"/><stop offset=".919" stop-color="#603813"/></radialGradient><path fill="url(#lyTgHxzDdohFb8LHWcuv_i)" d="M14.071,7.255c0.021,3.627-1.444,5.555-2.683,6.386c-0.151,0.101-0.29,0.203-0.411,0.289 c-0.129,0.092-0.192,0.244-0.196,0.418c-0.028,1.131-0.12,3.172-0.059,4.418c0.002,0.364-0.011,0.671-0.01,0.902 c0.003,0.02,0.006,0.041,0.009,0.06c0.039,0.291,0.065,0.467,0.065,0.467c0.138,0.757,0.822,0.79,0.985,0.134 c0,0,0.286-3.548,0.149-4.925c-0.014-0.142,0.051-0.28,0.165-0.364c0.95-0.695,3.026-2.316,3.154-4.741 c0.017-0.324,0.362-0.521,0.63-0.341c2.024,1.362,7.501,4.056,15.652,1.417c0.158-0.051,0.338,0.002,0.444,0.131 c1.894,2.294,2.352,2.48,3.798,3.338c0.088,0.052,0.161,0.133,0.19,0.232c0.366,1.255,0.503,4.638,0.455,5.22 c-0.05,0.607,0.703,1.062,1.055-0.202c0.014-0.051,0.035-0.153,0.06-0.295c-0.006-0.118-0.024-0.494-0.023-0.961 c0.003-1.478-0.243-4.386-0.547-5.401c-0.029-0.096-0.097-0.173-0.182-0.225c-0.018-0.011-0.036-0.022-0.055-0.033 c-1.438-0.87-2.555-2.454-4.441-4.725c-0.106-0.128-0.284-0.181-0.442-0.131c-8.114,2.613-14.855,0.01-17.142-1.457 C14.404,6.678,14.068,6.909,14.071,7.255z"/><radialGradient id="lyTgHxzDdohFb8LHWcuv_j" cx="22.791" cy="34.91" r="11.503" gradientTransform="matrix(.9554 -.2806 -.2796 -.9608 12.141 53.028)" gradientUnits="userSpaceOnUse"><stop offset="0" stop-color="#95704e"/><stop offset=".021" stop-color="#946f4c"/><stop offset=".392" stop-color="#855d36"/><stop offset=".629" stop-color="#7f562e"/><stop offset=".731" stop-color="#7a5129"/><stop offset=".857" stop-color="#6a421c"/><stop offset=".919" stop-color="#603813"/></radialGradient><path fill="url(#lyTgHxzDdohFb8LHWcuv_j)" d="M14.141,7.525c0.052,3.504-1.489,5.441-2.739,6.248c-0.152,0.098-0.281,0.21-0.382,0.309 c-0.102,0.101-0.155,0.252-0.157,0.424c-0.01,1.19-0.092,3.299-0.042,4.337c-0.013,0.364-0.069,0.647-0.109,0.831 c0.003,0.022,0.007,0.044,0.01,0.065c0.038,0.283,0.063,0.454,0.063,0.454c0.138,0.757,0.822,0.79,0.985,0.134 c0,0,0.286-3.548,0.149-4.925c-0.014-0.142,0.051-0.28,0.165-0.364c0.95-0.695,3.026-2.316,3.154-4.741 c0.017-0.324,0.362-0.521,0.63-0.341c2.024,1.362,7.501,4.056,15.652,1.417c0.158-0.051,0.338,0.002,0.444,0.131 c1.894,2.294,2.352,2.48,3.798,3.338c0.088,0.052,0.161,0.133,0.19,0.232c0.366,1.255,0.503,4.638,0.455,5.22 c-0.05,0.607,0.703,1.062,1.055-0.202c0.014-0.051,0.035-0.153,0.06-0.295c-0.049-0.038-0.102-0.42-0.097-0.886 c0.015-1.329-0.237-4.319-0.553-5.375c-0.028-0.093-0.093-0.168-0.174-0.22c-0.018-0.012-0.036-0.023-0.055-0.034 c-1.442-0.868-2.479-2.219-4.369-4.494c-0.106-0.128-0.284-0.181-0.442-0.131C23.718,11.27,17.047,8.601,14.76,7.134 C14.475,6.949,14.135,7.18,14.141,7.525z"/><radialGradient id="lyTgHxzDdohFb8LHWcuv_k" cx="23.066" cy="34.757" r="11.438" gradientTransform="matrix(.9563 -.2806 -.2799 -.9608 11.828 53.111)" gradientUnits="userSpaceOnUse"><stop offset="0" stop-color="#8a6542"/><stop offset=".346" stop-color="#7f5731"/><stop offset=".629" stop-color="#795029"/><stop offset=".745" stop-color="#744b24"/><stop offset=".888" stop-color="#643c17"/><stop offset=".919" stop-color="#603813"/></radialGradient><path fill="url(#lyTgHxzDdohFb8LHWcuv_k)" d="M14.212,7.796c0.092,3.381-1.533,5.328-2.794,6.109c-0.152,0.095-0.273,0.217-0.353,0.33 c-0.076,0.109-0.119,0.259-0.118,0.43c0.01,1.249-0.065,3.426-0.024,4.257c-0.028,0.363-0.127,0.622-0.208,0.76 c0.003,0.024,0.007,0.047,0.01,0.07c0.037,0.276,0.062,0.441,0.062,0.441c0.138,0.757,0.822,0.79,0.985,0.134 c0,0,0.286-3.548,0.149-4.925c-0.014-0.142,0.051-0.28,0.165-0.364c0.95-0.695,3.026-2.316,3.154-4.741 c0.017-0.324,0.362-0.521,0.63-0.341c2.024,1.362,7.501,4.056,15.652,1.417c0.158-0.051,0.338,0.002,0.444,0.131 c1.894,2.294,2.352,2.48,3.798,3.338c0.088,0.052,0.161,0.133,0.19,0.232c0.366,1.255,0.503,4.638,0.455,5.22 c-0.05,0.607,0.703,1.062,1.055-0.202c0.014-0.051,0.035-0.153,0.06-0.295c-0.093,0.041-0.181-0.347-0.171-0.811 c0.025-1.179-0.232-4.252-0.56-5.348c-0.027-0.09-0.089-0.163-0.166-0.215c-0.018-0.012-0.036-0.024-0.055-0.035 c-1.445-0.866-2.403-1.984-4.296-4.263c-0.106-0.128-0.284-0.181-0.442-0.131c-8.114,2.613-14.714-0.123-17.001-1.59 C14.545,7.22,14.202,7.451,14.212,7.796z"/><radialGradient id="lyTgHxzDdohFb8LHWcuv_l" cx="23.34" cy="34.604" r="11.374" gradientTransform="matrix(.9572 -.2806 -.2802 -.9608 11.514 53.194)" gradientUnits="userSpaceOnUse"><stop offset="0" stop-color="#805a36"/><stop offset=".285" stop-color="#79512b"/><stop offset=".629" stop-color="#734a23"/><stop offset=".765" stop-color="#6e451e"/><stop offset=".919" stop-color="#603813"/></radialGradient><path fill="url(#lyTgHxzDdohFb8LHWcuv_l)" d="M14.282,8.067c0.123,3.257-1.577,5.214-2.85,5.971c-0.153,0.091-0.266,0.222-0.323,0.351 c-0.051,0.115-0.082,0.267-0.079,0.436c0.03,1.308-0.038,3.554-0.007,4.177c-0.044,0.363-0.185,0.598-0.307,0.689 c0.004,0.026,0.007,0.051,0.011,0.075c0.036,0.268,0.06,0.429,0.06,0.429c0.138,0.757,0.822,0.79,0.985,0.134 c0,0,0.286-3.548,0.149-4.925c-0.014-0.142,0.051-0.28,0.165-0.364c0.95-0.695,3.026-2.316,3.154-4.741 c0.017-0.324,0.362-0.521,0.63-0.341c2.024,1.362,7.501,4.056,15.652,1.417c0.158-0.051,0.338,0.002,0.444,0.131 c1.894,2.294,2.352,2.48,3.798,3.338c0.088,0.052,0.161,0.133,0.19,0.232c0.366,1.255,0.503,4.638,0.455,5.22 c-0.05,0.607,0.703,1.062,1.055-0.202c0.014-0.051,0.035-0.153,0.06-0.295c-0.137,0.121-0.26-0.274-0.244-0.736 c0.034-1.03-0.227-4.185-0.567-5.321c-0.026-0.086-0.085-0.158-0.159-0.209c-0.018-0.012-0.036-0.024-0.055-0.035 c-1.449-0.864-2.327-1.749-4.223-4.032c-0.106-0.128-0.284-0.181-0.442-0.131C23.72,11.948,17.19,9.146,14.903,7.678 C14.616,7.491,14.269,7.722,14.282,8.067z"/><radialGradient id="lyTgHxzDdohFb8LHWcuv_m" cx="23.613" cy="34.451" r="11.311" gradientTransform="matrix(.9581 -.2806 -.2804 -.9608 11.195 53.277)" gradientUnits="userSpaceOnUse"><stop offset="0" stop-color="#754f2a"/><stop offset=".151" stop-color="#724b26"/><stop offset=".629" stop-color="#6d441e"/><stop offset=".8" stop-color="#683f19"/><stop offset=".919" stop-color="#603813"/></radialGradient><path fill="url(#lyTgHxzDdohFb8LHWcuv_m)" d="M14.352,8.338c0.154,3.134-1.622,5.101-2.906,5.833c-0.154,0.088-0.26,0.227-0.294,0.371 c-0.028,0.122-0.046,0.274-0.039,0.442c0.052,1.367-0.01,3.681,0.01,4.097c-0.059,0.363-0.242,0.573-0.406,0.619 c0.004,0.027,0.008,0.054,0.011,0.079c0.035,0.26,0.058,0.416,0.058,0.416c0.138,0.757,0.822,0.79,0.985,0.134 c0,0,0.286-3.548,0.149-4.925c-0.014-0.142,0.051-0.28,0.165-0.364c0.95-0.695,3.026-2.316,3.154-4.741 c0.017-0.324,0.362-0.521,0.63-0.341c2.024,1.362,7.501,4.056,15.652,1.417c0.158-0.051,0.338,0.002,0.444,0.131 c1.894,2.294,2.352,2.48,3.798,3.338c0.088,0.052,0.161,0.133,0.19,0.232c0.366,1.255,0.503,4.638,0.455,5.22 c-0.05,0.607,0.703,1.062,1.055-0.202c0.014-0.051,0.035-0.153,0.06-0.295c-0.181,0.2-0.339-0.201-0.318-0.661 c0.04-0.881-0.222-4.118-0.574-5.294c-0.025-0.083-0.081-0.153-0.151-0.204c-0.018-0.013-0.036-0.025-0.055-0.036 c-1.452-0.862-2.251-1.514-4.151-3.801c-0.106-0.128-0.284-0.181-0.442-0.131c-8.114,2.613-14.574-0.256-16.861-1.723 C14.686,7.761,14.336,7.993,14.352,8.338z"/><radialGradient id="lyTgHxzDdohFb8LHWcuv_n" cx="23.886" cy="34.298" r="11.248" gradientTransform="matrix(.9589 -.2806 -.2807 -.9608 10.88 53.36)" gradientUnits="userSpaceOnUse"><stop offset="0" stop-color="#6b431f"/><stop offset=".629" stop-color="#663e18"/><stop offset=".9" stop-color="#613914"/><stop offset=".919" stop-color="#603813"/></radialGradient><path fill="url(#lyTgHxzDdohFb8LHWcuv_n)" d="M14.423,8.609c0.179,3.011-1.666,4.987-2.962,5.694c-0.154,0.084-0.257,0.232-0.265,0.392 c-0.006,0.128-0.009,0.281,0,0.447c0.075,1.426,0.017,3.809,0.027,4.017c-0.075,0.363-0.3,0.549-0.505,0.548 c0.004,0.029,0.008,0.057,0.012,0.084c0.034,0.253,0.056,0.403,0.056,0.403c0.138,0.757,0.822,0.79,0.985,0.134 c0,0,0.286-3.548,0.149-4.925c-0.014-0.142,0.051-0.28,0.165-0.364c0.95-0.695,3.026-2.316,3.154-4.741 c0.017-0.324,0.362-0.521,0.63-0.341c2.024,1.362,7.501,4.056,15.652,1.417c0.158-0.051,0.338,0.002,0.444,0.131 c1.894,2.294,2.352,2.48,3.798,3.338c0.088,0.052,0.161,0.133,0.19,0.232c0.366,1.255,0.503,4.638,0.455,5.22 c-0.05,0.607,0.703,1.062,1.055-0.202c0.014-0.051,0.035-0.153,0.06-0.295c-0.225,0.28-0.42-0.128-0.392-0.586 c0.045-0.731-0.216-4.051-0.581-5.268c-0.024-0.08-0.077-0.148-0.143-0.198c-0.017-0.013-0.036-0.026-0.055-0.037 c-1.456-0.861-2.175-1.279-4.078-3.57c-0.106-0.128-0.284-0.181-0.442-0.131c-8.114,2.613-14.503-0.322-16.79-1.79 C14.756,8.032,14.401,8.264,14.423,8.609z"/><path fill="#603813" d="M37.061,19.286c0.048-0.582-0.211-3.984-0.587-5.241c-0.03-0.099-0.101-0.179-0.19-0.231 c-1.459-0.859-2.099-1.044-4.005-3.34c-0.106-0.128-0.284-0.181-0.442-0.131c-8.114,2.613-14.433-0.389-16.72-1.856 c-0.289-0.186-0.648,0.046-0.623,0.391c0.211,2.888-1.71,4.874-3.017,5.556c-0.155,0.081-0.255,0.238-0.235,0.412 c0.151,1.364,0.083,4.389,0.083,4.389c-0.09,0.362-0.358,0.525-0.604,0.477c0.04,0.299,0.067,0.479,0.067,0.479 c0.138,0.757,0.822,0.79,0.985,0.134c0,0,0.286-3.548,0.149-4.925c-0.014-0.142,0.051-0.28,0.165-0.364 c0.95-0.695,3.026-2.316,3.154-4.741c0.017-0.324,0.362-0.521,0.63-0.341c2.024,1.362,7.501,4.056,15.652,1.417 c0.158-0.051,0.338,0.002,0.444,0.131c1.894,2.294,2.352,2.48,3.798,3.338c0.088,0.052,0.161,0.133,0.19,0.232 c0.366,1.255,0.503,4.638,0.455,5.22c-0.05,0.607,0.703,1.062,1.055-0.202c0.014-0.051,0.035-0.153,0.06-0.295 C37.258,20.157,37.023,19.743,37.061,19.286z"/><radialGradient id="lyTgHxzDdohFb8LHWcuv_o" cx="22.227" cy="32.509" r="9.514" gradientTransform="matrix(.9936 0 0 -1 2.057 48)" gradientUnits="userSpaceOnUse"><stop offset="0" stop-color="#603813" stop-opacity="0"/><stop offset=".999" stop-color="#603813" stop-opacity=".2"/></radialGradient><path fill="url(#lyTgHxzDdohFb8LHWcuv_o)" d="M35.476,14.77c-1.437-0.855-1.739-0.982-3.607-3.249c-0.12-0.145-0.288-0.094-0.466-0.036 c-8,2.584-13.177,0.134-15.193-1.18c-0.289-0.188-0.686-0.004-0.71,0.342c-0.158,2.297-2.163,3.586-3.122,4.24 c-0.144,0.098-0.212,0.265-0.196,0.439c0.11,1.216-0.226,4.763-0.345,4.823c0.213-0.051,1.03-3.226,1.171-4.358 c0.017-0.139,0.082-0.261,0.198-0.337c0.886-0.583,2.399-1.465,2.965-3.016c0.094-0.258,0.391-0.373,0.633-0.245 c1.827,0.963,6.988,3.008,14.117,0.864c0.175-0.053,0.368,0.007,0.486,0.147c1.502,1.773,2.383,1.94,3.553,2.462 c0.103,0.046,0.193,0.13,0.24,0.232c0.61,1.315,0.305,4.539,1.245,4.854c-0.409-0.65-0.185-4.419-0.771-5.761 C35.635,14.897,35.56,14.82,35.476,14.77z"/><radialGradient id="lyTgHxzDdohFb8LHWcuv_p" cx="22.508" cy="32.526" r="9.553" gradientTransform="matrix(.9945 0 0 -1 1.763 48)" gradientUnits="userSpaceOnUse"><stop offset="0" stop-color="#5c3512" stop-opacity=".143"/><stop offset=".999" stop-color="#5c3512" stop-opacity=".314"/></radialGradient><path fill="url(#lyTgHxzDdohFb8LHWcuv_p)" d="M15.463,10.59c-0.15,2.313-2.158,3.649-3.119,4.312c-0.023,0.016-0.044,0.033-0.063,0.051 c-0.102,0.097-0.15,0.237-0.136,0.383c0.094,1.003-0.113,3.625-0.236,4.473c-0.039,0.249-0.084,0.403-0.123,0.423 c0.082-0.02,0.203-0.258,0.324-0.616c0.302-0.953,0.707-3.006,0.804-3.867c0.016-0.135,0.078-0.254,0.191-0.329 c0.877-0.586,2.393-1.514,2.964-3.12c0.092-0.258,0.352-0.384,0.569-0.324c0.063,0.017,0.147,0.037,0.232,0.081 c1.939,0.997,7.085,2.983,14.114,0.828c0.14-0.043,0.294-0.011,0.407,0.077c0.03,0.023,0.058,0.05,0.083,0.079 c1.497,1.773,2.291,1.968,3.439,2.496c0.046,0.021,0.092,0.044,0.137,0.069c0.032,0.017,0.062,0.039,0.089,0.063 c0.057,0.051,0.105,0.114,0.135,0.187c0.41,0.97,0.388,2.957,0.634,4.02c0.109,0.47,0.308,0.848,0.6,0.893 c-0.112-0.112-0.192-0.388-0.227-0.747c-0.124-1.246-0.116-3.951-0.565-5.022c-0.038-0.091-0.112-0.168-0.197-0.218 c-1.439-0.856-1.763-0.991-3.635-3.263c-0.117-0.142-0.286-0.106-0.461-0.049c-8.028,2.595-13.25,0.103-15.264-1.216 C15.873,10.066,15.485,10.249,15.463,10.59z"/><radialGradient id="lyTgHxzDdohFb8LHWcuv_q" cx="22.787" cy="32.543" r="9.592" gradientTransform="matrix(.9954 0 0 -1 1.47 48)" gradientUnits="userSpaceOnUse"><stop offset="0" stop-color="#573111" stop-opacity=".286"/><stop offset=".999" stop-color="#573111" stop-opacity=".429"/></radialGradient><path fill="url(#lyTgHxzDdohFb8LHWcuv_q)" d="M15.426,10.534c-0.142,2.328-2.152,3.712-3.116,4.385c-0.022,0.016-0.043,0.032-0.063,0.05 c-0.104,0.095-0.153,0.234-0.139,0.379c0.1,1.04-0.12,3.842-0.222,4.548c-0.042,0.243-0.098,0.395-0.152,0.422 c0.106-0.025,0.246-0.258,0.366-0.605c0.279-0.911,0.624-3.107,0.717-4.005c0.014-0.131,0.075-0.248,0.184-0.321 c0.867-0.588,2.387-1.562,2.964-3.224c0.09-0.257,0.326-0.353,0.505-0.403c0.055-0.015,0.147-0.002,0.236,0.045 c1.876,0.992,7.132,3.157,14.339,0.908c0.143-0.044,0.299-0.009,0.412,0.086c0.029,0.024,0.056,0.051,0.081,0.081 c1.551,1.845,2.27,2.015,3.465,2.592c0.047,0.023,0.092,0.048,0.136,0.076c0.031,0.02,0.059,0.044,0.084,0.071 c0.051,0.054,0.095,0.121,0.124,0.196c0.39,1.014,0.37,3.117,0.586,4.105c0.101,0.463,0.33,0.87,0.636,0.867 c-0.138-0.088-0.239-0.365-0.267-0.72c-0.088-1.136-0.111-3.974-0.546-5.056c-0.037-0.092-0.11-0.169-0.195-0.219 c-1.441-0.856-1.787-1-3.664-3.277c-0.115-0.139-0.284-0.117-0.455-0.062c-8.055,2.605-13.323,0.073-15.335-1.253 C15.826,10.016,15.447,10.198,15.426,10.534z"/><radialGradient id="lyTgHxzDdohFb8LHWcuv_r" cx="23.067" cy="32.556" r="9.632" gradientTransform="matrix(.9963 0 0 -1 1.175 48)" gradientUnits="userSpaceOnUse"><stop offset="0" stop-color="#532e10" stop-opacity=".429"/><stop offset=".999" stop-color="#532e10" stop-opacity=".543"/></radialGradient><path fill="url(#lyTgHxzDdohFb8LHWcuv_r)" d="M15.39,10.478c-0.134,2.344-2.147,3.775-3.114,4.457c-0.022,0.016-0.043,0.032-0.063,0.049 c-0.106,0.093-0.156,0.231-0.142,0.375c0.107,1.076-0.126,4.058-0.208,4.623c-0.044,0.238-0.111,0.386-0.18,0.421 c0.13-0.031,0.289-0.259,0.409-0.593c0.255-0.868,0.543-3.207,0.631-4.142c0.012-0.128,0.072-0.241,0.177-0.313 c0.858-0.59,2.38-1.611,2.963-3.327c0.088-0.256,0.293-0.412,0.441-0.482c0.053-0.025,0.148-0.041,0.24,0.01 c1.814,0.986,7.18,3.331,14.564,0.989c0.145-0.046,0.306-0.007,0.416,0.094c0.028,0.026,0.055,0.053,0.08,0.083 c1.606,1.916,2.249,2.059,3.49,2.687c0.047,0.024,0.093,0.052,0.134,0.084c0.029,0.023,0.056,0.049,0.078,0.078 c0.045,0.058,0.085,0.128,0.113,0.206c0.37,1.059,0.351,3.276,0.539,4.189c0.093,0.455,0.353,0.893,0.672,0.841 c-0.163-0.064-0.288-0.342-0.307-0.694c-0.055-1.025-0.107-3.996-0.528-5.09c-0.036-0.093-0.109-0.17-0.194-0.22 c-1.443-0.857-1.811-1.009-3.693-3.291c-0.112-0.136-0.283-0.129-0.45-0.075c-8.083,2.615-13.396,0.043-15.406-1.289 C15.778,9.966,15.409,10.147,15.39,10.478z"/><radialGradient id="lyTgHxzDdohFb8LHWcuv_s" cx="23.342" cy="32.567" r="9.672" gradientTransform="matrix(.9973 0 0 -1 .881 48)" gradientUnits="userSpaceOnUse"><stop offset="0" stop-color="#4f2b0e" stop-opacity=".571"/><stop offset=".999" stop-color="#4f2b0e" stop-opacity=".657"/></radialGradient><path fill="url(#lyTgHxzDdohFb8LHWcuv_s)" d="M15.353,10.421c-0.126,2.359-2.141,3.838-3.111,4.53c-0.022,0.016-0.043,0.032-0.063,0.048 c-0.108,0.09-0.16,0.227-0.145,0.371c0.113,1.113-0.132,4.274-0.194,4.698c-0.046,0.232-0.125,0.377-0.209,0.419 c0.154-0.037,0.332-0.259,0.452-0.581c0.232-0.826,0.462-3.308,0.544-4.279c0.011-0.124,0.068-0.234,0.17-0.305 c0.849-0.593,2.374-1.66,2.962-3.431c0.085-0.255,0.262-0.441,0.377-0.56c0.048-0.05,0.148-0.08,0.245-0.026 c1.753,0.978,7.228,3.506,14.789,1.07c0.147-0.047,0.312-0.005,0.421,0.102c0.027,0.027,0.054,0.055,0.078,0.085 c1.66,1.987,2.228,2.103,3.515,2.783c0.048,0.025,0.093,0.056,0.132,0.092c0.028,0.025,0.053,0.055,0.073,0.086 c0.04,0.062,0.076,0.135,0.102,0.216c0.35,1.103,0.331,3.435,0.491,4.274c0.085,0.448,0.375,0.915,0.708,0.815 c-0.189-0.039-0.337-0.318-0.346-0.668c-0.024-0.914-0.102-4.019-0.509-5.124c-0.034-0.093-0.107-0.171-0.192-0.221 c-1.445-0.858-1.835-1.018-3.722-3.305c-0.11-0.133-0.281-0.141-0.445-0.088c-8.11,2.623-13.468,0.011-15.476-1.327 C15.73,9.916,15.371,10.096,15.353,10.421z"/><radialGradient id="lyTgHxzDdohFb8LHWcuv_t" cx="23.621" cy="32.577" r="9.713" gradientTransform="matrix(.9982 0 0 -1 .588 48)" gradientUnits="userSpaceOnUse"><stop offset="0" stop-color="#4b280d" stop-opacity=".714"/><stop offset=".999" stop-color="#4b280d" stop-opacity=".771"/></radialGradient><path fill="url(#lyTgHxzDdohFb8LHWcuv_t)" d="M15.316,10.365c-0.118,2.375-2.136,3.902-3.109,4.603c-0.022,0.016-0.043,0.032-0.063,0.048 c-0.11,0.088-0.163,0.224-0.148,0.367c0.12,1.149-0.138,4.49-0.179,4.773c-0.049,0.227-0.139,0.368-0.237,0.418 c0.178-0.043,0.375-0.26,0.494-0.57c0.209-0.784,0.382-3.409,0.458-4.416c0.009-0.121,0.065-0.228,0.164-0.297 c0.84-0.595,2.368-1.708,2.961-3.535c0.083-0.254,0.225-0.47,0.313-0.639c0.04-0.076,0.148-0.119,0.249-0.062 c1.693,0.969,7.276,3.68,15.014,1.151c0.15-0.049,0.318-0.003,0.425,0.11c0.027,0.028,0.052,0.057,0.077,0.086 c1.714,2.058,2.208,2.145,3.541,2.878c0.048,0.026,0.093,0.06,0.131,0.099c0.027,0.028,0.05,0.06,0.068,0.094 c0.035,0.066,0.066,0.141,0.09,0.225c0.33,1.147,0.31,3.595,0.443,4.359c0.077,0.441,0.398,0.937,0.745,0.789 c-0.215-0.015-0.387-0.294-0.386-0.641c0.003-0.803-0.098-4.041-0.491-5.157c-0.033-0.094-0.105-0.172-0.19-0.222 c-1.447-0.859-1.859-1.027-3.751-3.32c-0.107-0.13-0.279-0.152-0.44-0.101c-8.139,2.635-13.542-0.017-15.548-1.361 C15.683,9.865,15.333,10.045,15.316,10.365z"/><radialGradient id="lyTgHxzDdohFb8LHWcuv_u" cx="23.899" cy="32.585" r="9.754" gradientTransform="matrix(.9991 0 0 -1 .294 48)" gradientUnits="userSpaceOnUse"><stop offset="0" stop-color="#46240c" stop-opacity=".857"/><stop offset=".999" stop-color="#46240c" stop-opacity=".886"/></radialGradient><path fill="url(#lyTgHxzDdohFb8LHWcuv_u)" d="M15.28,10.309c-0.11,2.391-2.13,3.965-3.106,4.675c-0.022,0.016-0.042,0.031-0.063,0.047 c-0.112,0.086-0.166,0.221-0.151,0.363c0.126,1.185-0.145,4.706-0.165,4.848c-0.051,0.222-0.152,0.359-0.266,0.416 c0.202-0.049,0.418-0.26,0.537-0.558c0.185-0.742,0.305-3.509,0.372-4.553c0.008-0.117,0.062-0.221,0.157-0.289 c0.831-0.598,2.362-1.757,2.96-3.639c0.081-0.254,0.184-0.496,0.249-0.718c0.03-0.101,0.149-0.159,0.253-0.097 c1.634,0.959,7.324,3.854,15.238,1.231c0.152-0.05,0.324-0.002,0.43,0.118c0.026,0.029,0.051,0.059,0.076,0.088 c1.769,2.129,2.19,2.186,3.566,2.974c0.049,0.028,0.093,0.064,0.129,0.107c0.026,0.031,0.047,0.065,0.063,0.102 c0.03,0.069,0.057,0.148,0.079,0.235c0.31,1.191,0.288,3.755,0.395,4.443c0.067,0.433,0.42,0.96,0.781,0.763 c-0.24,0.009-0.439-0.271-0.426-0.615c0.027-0.692-0.093-4.064-0.473-5.191c-0.032-0.095-0.103-0.173-0.188-0.223 c-1.449-0.86-1.883-1.036-3.78-3.334c-0.105-0.127-0.278-0.164-0.434-0.114c-8.167,2.645-13.615-0.048-15.619-1.397 C15.635,9.815,15.294,9.994,15.28,10.309z"/><path fill="#42210b" d="M36.411,20.295c0.048-0.582-0.088-4.086-0.454-5.225c-0.031-0.095-0.101-0.174-0.187-0.224 c-1.451-0.861-1.907-1.045-3.808-3.348c-0.103-0.124-0.276-0.176-0.429-0.126c-8.195,2.655-13.688-0.078-15.69-1.433 c-0.256-0.173-0.587,0.005-0.6,0.315c-0.104,2.459-2.214,4.098-3.166,4.794c-0.114,0.083-0.17,0.218-0.154,0.359 c0.132,1.222-0.151,4.922-0.151,4.922c-0.054,0.216-0.166,0.35-0.294,0.415c0.227-0.054,0.461-0.261,0.58-0.546 c0.162-0.699,0.225-3.61,0.285-4.69c0.006-0.114,0.058-0.214,0.15-0.281c0.929-0.678,2.769-2.131,3.145-4.539 c0.02-0.125,0.149-0.198,0.258-0.133c1.575,0.947,7.371,4.029,15.463,1.312c0.154-0.052,0.331,0,0.434,0.126 c1.888,2.29,2.224,2.308,3.666,3.159c0.084,0.05,0.154,0.131,0.186,0.224c0.362,1.081,0.328,4.115,0.416,4.772 c0.057,0.426,0.443,0.982,0.817,0.736C36.61,20.918,36.382,20.637,36.411,20.295z"/><path fill="#805b2a" d="M14.322,21.29c-0.023,0.367,0.055,0.336,0.196,0.519c0,0,1.594,2.204,6.402,0.695	c0.348-0.124,0.598-0.36,0.562-0.644C20.866,16.978,14.699,17.695,14.322,21.29z"/><path fill="#fff" d="M14.393,21.07c-0.12,0.258-0.082,0.464,0,0.672c0.343,0.906,3.095,4.131,6.809,0.745	c0.277-0.239,0.321-0.45,0.252-0.748C21.385,21.44,20.423,19,17.902,19C15.405,19,14.601,20.719,14.393,21.07z"/><linearGradient id="lyTgHxzDdohFb8LHWcuv_v" x1="15.901" x2="20.085" y1="26.931" y2="26.931" gradientTransform="matrix(1 0 0 -1 0 48)" gradientUnits="userSpaceOnUse"><stop offset="0" stop-color="#c69c6d"/><stop offset="1" stop-color="#754c24"/></linearGradient><circle cx="17.993" cy="21.069" r="2.092" fill="url(#lyTgHxzDdohFb8LHWcuv_v)"/><radialGradient id="lyTgHxzDdohFb8LHWcuv_w" cx="17.993" cy="26.931" r="1.053" gradientTransform="matrix(1 0 0 -1 0 48)" gradientUnits="userSpaceOnUse"><stop offset="0" stop-color="#1c1911"/><stop offset=".999" stop-color="#171714"/></radialGradient><circle cx="17.993" cy="21.069" r="1.053" fill="url(#lyTgHxzDdohFb8LHWcuv_w)"/><circle cx="17.484" cy="20.526" r=".494" fill="#fff"/><path fill="#805b2a" d="M33.574,21.29c0.023,0.367-0.055,0.336-0.196,0.519c0,0-1.594,2.204-6.402,0.695	c-0.348-0.124-0.598-0.36-0.562-0.644C27.03,16.978,33.197,17.695,33.574,21.29z"/><path fill="#fff" d="M33.503,21.07c0.12,0.258,0.082,0.464,0,0.672c-0.343,0.906-3.095,4.131-6.809,0.745	c-0.277-0.239-0.321-0.45-0.252-0.748C26.511,21.44,27.473,19,29.994,19C32.49,19,33.295,20.719,33.503,21.07z"/><linearGradient id="lyTgHxzDdohFb8LHWcuv_x" x1="209.432" x2="213.616" y1="688.932" y2="688.932" gradientTransform="translate(-181.622 -667.863)" gradientUnits="userSpaceOnUse"><stop offset="0" stop-color="#c69c6d"/><stop offset="1" stop-color="#754c24"/></linearGradient><circle cx="29.902" cy="21.069" r="2.092" fill="url(#lyTgHxzDdohFb8LHWcuv_x)"/><radialGradient id="lyTgHxzDdohFb8LHWcuv_y" cx="-116.475" cy="26.931" r="1.053" gradientTransform="rotate(180 -43.287 24)" gradientUnits="userSpaceOnUse"><stop offset="0" stop-color="#1c1911"/><stop offset=".999" stop-color="#171714"/></radialGradient><circle cx="29.902" cy="21.069" r="1.053" fill="url(#lyTgHxzDdohFb8LHWcuv_y)"/><circle cx="29.422" cy="20.526" r=".494" fill="#fff"/><g><path fill="#805b2a" d="M32.167,17.222c-1.366-0.349-2.812-0.246-4.06,0.234c-0.388,0.149-0.824-0.044-0.974-0.433 c-0.149-0.388,0.044-0.824,0.433-0.974c0.04-0.015,0.081-0.027,0.122-0.036l0.017-0.003c1.614-0.316,3.275-0.127,4.712,0.517 c0.187,0.083,0.27,0.302,0.187,0.489c-0.075,0.167-0.258,0.251-0.429,0.207L32.167,17.222z"/></g><g><path fill="#805b2a" d="M15.833,16.528c1.437-0.643,3.098-0.833,4.712-0.517l0.013,0.003 c0.408,0.08,0.675,0.476,0.595,0.884s-0.476,0.675-0.884,0.595c-0.042-0.008-0.087-0.021-0.126-0.036 c-1.248-0.48-2.693-0.583-4.06-0.234l-0.007,0.002c-0.198,0.051-0.4-0.069-0.45-0.267C15.581,16.78,15.672,16.6,15.833,16.528z"/></g><g><radialGradient id="lyTgHxzDdohFb8LHWcuv_z" cx="-17.845" cy="-111.42" r="2.561" gradientTransform="matrix(1.1109 0 0 -1.3094 43.85 -115.801)" gradientUnits="userSpaceOnUse"><stop offset=".696" stop-color="#cc9000"/><stop offset="1" stop-color="#cc9000" stop-opacity="0"/></radialGradient><path fill="url(#lyTgHxzDdohFb8LHWcuv_z)" d="M24,32.044c-2.85,0-2.946-1.638-2.946-1.638s0.07,3.276,2.946,3.276 s2.946-3.276,2.946-3.276S26.85,32.044,24,32.044z"/><radialGradient id="lyTgHxzDdohFb8LHWcuv_A" cx="-38.289" cy="-385.407" r="3.95" fx="-38.292" fy="-385.259" gradientTransform="matrix(.7953 0 0 -.5951 54.451 -199.291)" gradientUnits="userSpaceOnUse"><stop offset=".371" stop-color="#ffd226"/><stop offset=".948" stop-color="#ffe16e"/><stop offset="1" stop-color="#ffe16e" stop-opacity="0"/></radialGradient><path fill="url(#lyTgHxzDdohFb8LHWcuv_A)" d="M27.094,29.914c0,0,0.039,2.526-3.094,2.526s-3.094-2.526-3.094-2.526 s0.687,0.769,3.094,0.769S27.094,29.914,27.094,29.914z"/><radialGradient id="lyTgHxzDdohFb8LHWcuv_B" cx="-44.316" cy="-80.695" r="3.162" gradientTransform="matrix(.8379 0 0 -.855 61.174 -39.144)" gradientUnits="userSpaceOnUse"><stop offset="0" stop-color="#1c1911"/><stop offset=".999" stop-color="#171714"/></radialGradient><path fill="url(#lyTgHxzDdohFb8LHWcuv_B)" d="M21.12,29.914c-0.169,0-0.267,0.179-0.184,0.324c0.617,1.072,2.032,1.396,3.064,1.396 c1.121,0,2.446-0.324,3.064-1.396c0.083-0.144-0.015-0.324-0.184-0.324C24.975,30.039,23.055,30.048,21.12,29.914z"/></g><path fill="#ecbe49" d="M37.973,22.541c0.004-0.001,0.007-0.002,0.011-0.003c-0.001-0.039-0.002-0.078-0.004-0.119	C37.977,22.462,37.975,22.508,37.973,22.541z"/><path fill="#ecbe49" d="M9.995,22.494c0.004,0.001,0.007,0.002,0.011,0.003c-0.001-0.014-0.003-0.031-0.005-0.046	C10,22.465,9.996,22.479,9.995,22.494z"/><linearGradient id="lyTgHxzDdohFb8LHWcuv_C" x1="33.25" x2="34.725" y1=".933" y2="13.598" gradientTransform="matrix(1 0 0 -1 0 48)" gradientUnits="userSpaceOnUse"><stop offset="0" stop-color="#ff9737"/><stop offset=".999" stop-color="#ff681b"/></linearGradient><path fill="url(#lyTgHxzDdohFb8LHWcuv_C)" d="M36.813,35.125c-2-0.813-3.25-1.063-6.063-1.458C30.277,37.095,28.313,42.375,27,46h12.749	C39.561,39.531,38.499,35.812,36.813,35.125z"/><radialGradient id="lyTgHxzDdohFb8LHWcuv_D" cx="34.147" cy="3.877" r="7.885" gradientTransform="matrix(1 0 0 -.9987 0 47.981)" gradientUnits="userSpaceOnUse"><stop offset="0" stop-color="#dcf60a"/><stop offset=".999" stop-color="#a0cf03"/></radialGradient><path fill="url(#lyTgHxzDdohFb8LHWcuv_D)" d="M31.5,45.984c0.719-4.807,1.156-9.425,1.241-12.011c0.989,0.156,2.197,0.452,3.02,0.744	c0.342,2.418,0.216,7.008-0.198,11.283L31.5,45.984z"/><linearGradient id="lyTgHxzDdohFb8LHWcuv_E" x1="19.594" x2="21.069" y1=".933" y2="13.598" gradientTransform="rotate(180 17.125 24)" gradientUnits="userSpaceOnUse"><stop offset="0" stop-color="#ff9737"/><stop offset=".999" stop-color="#ff681b"/></linearGradient><path fill="url(#lyTgHxzDdohFb8LHWcuv_E)" d="M11.093,35.125c2-0.813,3.25-1.063,6.063-1.458c0.473,3.428,2.438,8.708,3.75,12.333H8.156	C8.345,39.531,9.407,35.812,11.093,35.125z"/><radialGradient id="lyTgHxzDdohFb8LHWcuv_F" cx="20.491" cy="3.877" r="7.885" gradientTransform="matrix(-1 0 0 -.9987 34.25 47.981)" gradientUnits="userSpaceOnUse"><stop offset="0" stop-color="#dcf60a"/><stop offset=".999" stop-color="#a0cf03"/></radialGradient><path fill="url(#lyTgHxzDdohFb8LHWcuv_F)" d="M16.406,45.984c-0.719-4.807-1.156-9.425-1.241-12.011c-0.989,0.156-2.197,0.452-3.02,0.744	c-0.342,2.418-0.216,7.008,0.198,11.283L16.406,45.984z"/><g><radialGradient id="lyTgHxzDdohFb8LHWcuv_G" cx="24.078" cy="31.054" r="9.819" gradientTransform="matrix(1 0 0 -1 0 48)" gradientUnits="userSpaceOnUse"><stop offset="0" stop-color="#573111" stop-opacity=".286"/><stop offset=".999" stop-color="#573111" stop-opacity=".429"/></radialGradient><path fill="url(#lyTgHxzDdohFb8LHWcuv_G)" d="M24,15.267c-5.592,0-9.881-0.116-13.706,1.484l0.227,1.843 c3.65-1.262,8.514-1.473,13.478-1.473s10.024,0.242,13.675,1.505l0.188-1.835C34.038,15.191,29.592,15.267,24,15.267z"/><radialGradient id="lyTgHxzDdohFb8LHWcuv_H" cx="24.073" cy="31.207" r="9.835" gradientTransform="matrix(1 0 0 -1 0 48)" gradientUnits="userSpaceOnUse"><stop offset="0" stop-color="#542f10" stop-opacity=".388"/><stop offset=".999" stop-color="#542f10" stop-opacity=".51"/></radialGradient><path fill="url(#lyTgHxzDdohFb8LHWcuv_H)" d="M24,15.124c-5.592,0-9.91-0.113-13.735,1.487l0.233,1.822 c3.65-1.262,8.537-1.434,13.502-1.434s10.042,0.203,13.692,1.465l0.19-1.812C34.057,15.053,29.592,15.124,24,15.124z"/><radialGradient id="lyTgHxzDdohFb8LHWcuv_I" cx="24.069" cy="31.359" r="9.852" gradientTransform="matrix(1 0 0 -1 0 48)" gradientUnits="userSpaceOnUse"><stop offset="0" stop-color="#512c0f" stop-opacity=".49"/><stop offset=".999" stop-color="#512c0f" stop-opacity=".592"/></radialGradient><path fill="url(#lyTgHxzDdohFb8LHWcuv_I)" d="M24,14.981c-5.592,0-9.939-0.11-13.764,1.49l0.239,1.801 c3.65-1.262,8.561-1.395,13.525-1.395s10.06,0.164,13.71,1.426l0.192-1.788C34.077,14.915,29.592,14.981,24,14.981z"/><radialGradient id="lyTgHxzDdohFb8LHWcuv_J" cx="24.064" cy="31.511" r="9.868" gradientTransform="matrix(1 0 0 -1 0 48)" gradientUnits="userSpaceOnUse"><stop offset="0" stop-color="#4e2a0e" stop-opacity=".592"/><stop offset=".999" stop-color="#4e2a0e" stop-opacity=".673"/></radialGradient><path fill="url(#lyTgHxzDdohFb8LHWcuv_J)" d="M24,14.838c-5.592,0-9.968-0.107-13.793,1.493l0.244,1.779 c3.65-1.262,8.585-1.355,13.549-1.355s10.078,0.124,13.728,1.387l0.193-1.764C34.096,14.778,29.592,14.838,24,14.838z"/><radialGradient id="lyTgHxzDdohFb8LHWcuv_K" cx="24.06" cy="31.662" r="9.885" gradientTransform="matrix(1 0 0 -1 0 48)" gradientUnits="userSpaceOnUse"><stop offset="0" stop-color="#4b280e" stop-opacity=".694"/><stop offset=".999" stop-color="#4b280e" stop-opacity=".755"/></radialGradient><path fill="url(#lyTgHxzDdohFb8LHWcuv_K)" d="M24,14.696c-5.592,0-9.997-0.104-13.822,1.496l0.25,1.758 c3.65-1.262,8.608-1.316,13.573-1.316s10.096,0.085,13.746,1.347l0.195-1.74C34.116,14.64,29.592,14.696,24,14.696z"/><radialGradient id="lyTgHxzDdohFb8LHWcuv_L" cx="24.054" cy="31.814" r="9.901" gradientTransform="matrix(1 0 0 -1 0 48)" gradientUnits="userSpaceOnUse"><stop offset="0" stop-color="#48260d" stop-opacity=".796"/><stop offset=".999" stop-color="#48260d" stop-opacity=".837"/></radialGradient><path fill="url(#lyTgHxzDdohFb8LHWcuv_L)" d="M24,14.553c-5.592,0-10.026-0.102-13.852,1.498l0.255,1.737 c3.65-1.262,8.632-1.277,13.596-1.277s10.114,0.046,13.764,1.308l0.197-1.717C34.136,14.503,29.592,14.553,24,14.553z"/><radialGradient id="lyTgHxzDdohFb8LHWcuv_M" cx="24.049" cy="31.966" r="9.917" gradientTransform="matrix(1 0 0 -1 0 48)" gradientUnits="userSpaceOnUse"><stop offset="0" stop-color="#45230c" stop-opacity=".898"/><stop offset=".999" stop-color="#45230c" stop-opacity=".918"/></radialGradient><path fill="url(#lyTgHxzDdohFb8LHWcuv_M)" d="M24,14.41c-5.592,0-10.056-0.099-13.881,1.501l0.261,1.715 c3.65-1.262,8.655-1.237,13.62-1.237s10.132,0.006,13.782,1.269l0.198-1.693C34.155,14.365,29.592,14.41,24,14.41z"/><path fill="#42210b" d="M24,14.267c-5.592,0-10.085-0.096-13.91,1.504l0.267,1.694c3.65-1.262,8.679-1.198,13.643-1.198 s10.15-0.033,13.8,1.229l0.2-1.669C34.175,14.227,29.592,14.267,24,14.267z"/></g><path fill="#ebbe1f" d="M13,12H9.891C9.399,12,9,12.399,9,12.891V16h4V12z"/><path fill="#d8ad23" d="M35,12h3.109C38.601,12,39,12.399,39,12.891V16h-4V12z"/><radialGradient id="lyTgHxzDdohFb8LHWcuv_N" cx="8.3" cy="40.435" r="11.897" fx="5.511" fy="40.497" gradientTransform="matrix(.9375 0 0 -1 10 48)" gradientUnits="userSpaceOnUse"><stop offset="0" stop-color="#fefd1e"/><stop offset=".999" stop-color="#ecbf14"/></radialGradient><path fill="url(#lyTgHxzDdohFb8LHWcuv_N)" d="M24,15c6.54,0,11.199,0.663,14,1.63l0.083-3.046C38.083,6.317,33.478,1,26.666,1h-5.332	c-6.812,0-11.251,5.317-11.251,12.583L10,16.63C12.801,15.663,17.46,15,24,15z"/><path fill="#f8ea29" d="M24.215,0H23.66C22.177,0,19,0.712,19,1.59v12.598h9.875V1.59C28.875,0.712,25.698,0,24.215,0z"/><g><path fill="#f8ea29" d="M23.281,0h-0.563c-0.68,0-1.252,0.044-1.728,0.125s-0.856,0.197-1.151,0.341 C19.25,0.753,19,1.151,19,1.59v6.299v6.299l1.5,0.406L22,15c0,0,0-1.75,0-4s0-5,0-7C22,1.495,22.421,0.247,23.281,0z"/><path fill="#f9ec3d" d="M19.809,0.482c-0.491,0.252-0.744,0.584-0.796,0.954C19.004,1.486,19,1.556,19,1.608v6.281v6.299 l0.656,0.154l0.716,0.094l1.286,0.158c0,0,0.002-1.976,0.002-3.904c0-0.324,0-0.801,0-1.144c0-1.699,0.002-4.264,0.002-5.69 c0-0.591,0.028-1.314,0.083-1.747c0.051-0.447,0.152-0.822,0.286-1.131c0.098-0.226,0.21-0.414,0.34-0.566 c0.174-0.203,0.376-0.338,0.609-0.406c-0.011,0.001-0.504,0.004-0.514,0.005c-0.613,0.055-1.136,0.052-1.573,0.131 C20.449,0.222,20.09,0.339,19.809,0.482z"/><path fill="#faed51" d="M19.778,0.497c-0.475,0.254-0.724,0.591-0.768,0.964C19.003,1.503,19,1.583,19,1.626v6.262v6.299 l0.647,0.129l0.597-0.039l1.073-0.091c0,0,0.003-2.202,0.003-3.809c0-0.27,0.001-0.832,0.001-1.117 c0-1.416,0.004-4.362,0.004-5.551c0-0.492,0.024-1.346,0.07-1.706c0.043-0.425,0.156-0.785,0.31-1.086 c0.106-0.208,0.226-0.384,0.365-0.528c0.177-0.184,0.379-0.313,0.612-0.38c-0.022,0.003-0.445,0.007-0.466,0.009 c-0.548,0.052-1.021,0.057-1.417,0.136C20.383,0.237,20.044,0.355,19.778,0.497z"/><path fill="#fbef65" d="M19.748,0.513c-0.458,0.258-0.704,0.599-0.739,0.974C19.003,1.521,19,1.61,19,1.645v6.244v6.299 l0.638,0.103l0.478-0.172l0.859-0.34c0,0,0.005-2.428,0.005-3.713c0-0.216,0.001-0.862,0.001-1.091c0-1.133,0.007-4.46,0.007-5.411 c0-0.394,0.02-1.377,0.057-1.665c0.034-0.403,0.159-0.748,0.333-1.041c0.114-0.19,0.242-0.353,0.389-0.49 c0.18-0.166,0.383-0.287,0.614-0.355c-0.033,0.004-0.386,0.011-0.418,0.014c-0.484,0.049-0.905,0.064-1.262,0.142 C20.317,0.253,19.999,0.371,19.748,0.513z"/><path fill="#fcf17a" d="M19.717,0.529c-0.441,0.262-0.684,0.606-0.711,0.984C19.002,1.538,19,1.636,19,1.663v6.226v6.299 l0.629,0.077l0.359-0.304l0.645-0.589c0,0,0.006-2.654,0.006-3.618c0-0.162,0.002-0.893,0.002-1.065 c0-0.85,0.009-4.558,0.009-5.271c0-0.295,0.016-1.408,0.044-1.624c0.026-0.382,0.16-0.712,0.357-0.995 c0.12-0.173,0.256-0.323,0.413-0.451c0.182-0.149,0.386-0.261,0.617-0.329c-0.044,0.005-0.327,0.014-0.37,0.018 c-0.419,0.047-0.79,0.071-1.107,0.147C20.251,0.269,19.954,0.388,19.717,0.529z"/><path fill="#fdf38e" d="M19.686,0.545c-0.424,0.266-0.664,0.613-0.682,0.994C19.001,1.555,19,1.663,19,1.681v6.208v6.299 l0.62,0.051l0.24-0.437l0.432-0.837c0,0,0.008-2.88,0.008-3.522c0-0.108,0.002-0.924,0.002-1.038c0-0.566,0.011-4.656,0.011-5.132 c0-0.197,0.013-1.439,0.031-1.583c0.017-0.36,0.16-0.676,0.381-0.95c0.126-0.156,0.271-0.294,0.438-0.413 c0.184-0.131,0.39-0.235,0.619-0.303c-0.054,0.006-0.268,0.016-0.321,0.023c-0.355,0.044-0.674,0.078-0.952,0.153 C20.185,0.286,19.909,0.405,19.686,0.545z"/><path fill="#fef4a2" d="M19.655,0.561c-0.407,0.271-0.644,0.621-0.653,1.004C19.001,1.573,19,1.69,19,1.699v6.19v6.299 l0.612,0.026l0.121-0.57l0.218-1.086c0,0,0.009-3.105,0.009-3.427c0-0.054,0.003-0.955,0.003-1.012 c0-0.283,0.013-4.754,0.013-4.992c0-0.098,0.009-1.47,0.018-1.543c0.009-0.338,0.159-0.643,0.404-0.905 c0.131-0.14,0.285-0.265,0.462-0.375c0.186-0.115,0.393-0.21,0.622-0.278c-0.065,0.008-0.21,0.019-0.273,0.028 c-0.291,0.041-0.559,0.086-0.796,0.159C20.119,0.303,19.865,0.422,19.655,0.561z"/><path fill="#fff6b6" d="M19.644,1.479c0-0.317,0.157-0.61,0.428-0.859c0.135-0.124,0.299-0.238,0.486-0.337 s0.397-0.184,0.624-0.252c-0.311,0.036-0.603,0.104-0.866,0.197s-0.497,0.211-0.692,0.348C19.235,0.851,19,1.205,19,1.59v6.299 v6.299h0.603l0.021-6.354L19.644,1.479z"/></g><g><path fill="#f8ea29" d="M24.688,0h0.563c0.688,0,1.264,0.044,1.741,0.125s0.856,0.197,1.149,0.341 c0.586,0.288,0.828,0.685,0.828,1.124v6.299v6.299l-1.484,0.406L26,15c0,0,0-1.75,0-4s0-5,0-7C26,1.495,25.547,0.247,24.688,0z"/><path fill="#f3e128" d="M28.17,0.482c0.49,0.252,0.737,0.586,0.787,0.957c0.008,0.05,0.012,0.118,0.012,0.169v6.281v6.299 l-0.724,0.175l-0.635,0.094l-1.273,0.176c0,0-0.001-1.948-0.001-3.877c0-0.509-0.001-1.256-0.001-1.805 c0-1.531-0.002-3.716-0.002-4.978c0-1.126-0.108-2.288-0.316-2.853c-0.161-0.482-0.403-0.804-0.721-0.973 c-0.053-0.028-0.113-0.042-0.166-0.071c-0.018-0.01,0.448-0.024,0.428-0.035c0.236-0.014,0.45-0.019,0.644-0.014 c0.316,0.022,0.602,0.058,0.86,0.105c0.082,0.015,0.161,0.031,0.237,0.048C27.648,0.259,27.936,0.361,28.17,0.482z"/><path fill="#efd927" d="M28.199,0.497c0.473,0.256,0.718,0.593,0.76,0.967c0.007,0.041,0.01,0.119,0.01,0.161v6.264v6.299 l-0.704,0.145l-0.529-0.015l-1.061-0.055c0,0-0.003-2.146-0.003-3.754c0-0.424-0.001-1.288-0.001-1.745 c0-1.276-0.004-3.769-0.004-4.82c0-0.938-0.091-2.294-0.264-2.765c-0.134-0.454-0.361-0.773-0.673-0.954 c-0.05-0.029-0.106-0.045-0.156-0.074c-0.035-0.02,0.334-0.049,0.294-0.07c0.166-0.028,0.309-0.046,0.432-0.054 c0.305,0.023,0.582,0.062,0.834,0.112c0.078,0.015,0.152,0.031,0.225,0.049C27.692,0.269,27.972,0.374,28.199,0.497z"/><path fill="#ead026" d="M28.228,0.513c0.457,0.26,0.7,0.6,0.733,0.976c0.005,0.033,0.008,0.119,0.008,0.153v6.246v6.299 l-0.684,0.116l-0.424-0.124l-0.85-0.285c0,0-0.004-2.345-0.004-3.63c0-0.34-0.002-1.32-0.002-1.686C27.005,7.557,27,4.756,27,3.915 c0-0.751-0.074-2.3-0.213-2.676c-0.107-0.427-0.32-0.742-0.624-0.935c-0.046-0.03-0.099-0.049-0.146-0.078 c-0.052-0.032,0.219-0.073,0.159-0.105c0.095-0.042,0.168-0.074,0.221-0.093c0.293,0.024,0.563,0.065,0.808,0.118 c0.073,0.016,0.144,0.032,0.212,0.05C27.737,0.279,28.007,0.387,28.228,0.513z"/><path fill="#e6c726" d="M28.257,0.529c0.44,0.264,0.681,0.607,0.706,0.985c0.004,0.025,0.006,0.12,0.006,0.146v6.229v6.299 l-0.663,0.087l-0.318-0.233l-0.638-0.516c0,0-0.006-2.543-0.006-3.507c0-0.255-0.003-1.352-0.003-1.627 c0-0.765-0.007-3.874-0.007-4.504c0-0.563-0.058-2.306-0.162-2.588c-0.08-0.399-0.278-0.71-0.575-0.916 c-0.043-0.03-0.092-0.052-0.136-0.081c-0.069-0.044,0.105-0.098,0.025-0.14c0.025-0.057,0.027-0.101,0.01-0.133 c0.282,0.026,0.543,0.069,0.782,0.124c0.069,0.016,0.135,0.033,0.2,0.051C27.781,0.29,28.043,0.4,28.257,0.529z"/><path fill="#e1be25" d="M28.286,0.545c0.423,0.268,0.662,0.614,0.679,0.995c0.003,0.017,0.004,0.121,0.004,0.138v6.211 v6.299l-0.643,0.058l-0.213-0.342l-0.427-0.747c0,0-0.007-2.741-0.007-3.384c0-0.17-0.003-1.384-0.003-1.567 c0-0.51-0.009-3.926-0.009-4.346c0-0.375-0.041-2.312-0.11-2.5c-0.054-0.372-0.237-0.677-0.526-0.897 c-0.04-0.031-0.085-0.055-0.127-0.085c-0.084-0.058-0.01-0.122-0.11-0.175c-0.046-0.071-0.115-0.129-0.202-0.173 c0.271,0.027,0.523,0.072,0.755,0.131c0.064,0.016,0.127,0.033,0.188,0.051C27.826,0.3,28.078,0.413,28.286,0.545z"/><path fill="#ddb624" d="M28.315,0.561c0.407,0.271,0.643,0.621,0.652,1.004c0.001,0.008,0.002,0.122,0.002,0.13v6.194v6.299 l-0.623,0.029l-0.107-0.451l-0.215-0.977c0,0-0.009-2.939-0.009-3.261c0-0.085-0.004-1.416-0.004-1.508 C28.011,7.765,28,4.042,28,3.831c0-0.188-0.024-2.317-0.059-2.412c-0.027-0.344-0.197-0.644-0.477-0.878 c-0.037-0.031-0.077-0.059-0.117-0.088c-0.098-0.073-0.129-0.138-0.244-0.21c-0.122-0.076-0.256-0.156-0.413-0.212 c0.259,0.028,0.504,0.075,0.729,0.137c0.06,0.016,0.118,0.034,0.175,0.052C27.871,0.311,28.114,0.426,28.315,0.561z"/><path fill="#d8ad23" d="M28.325,1.479c0-0.317-0.157-0.61-0.428-0.859c-0.135-0.124-0.299-0.238-0.486-0.337 S27.014,0.1,26.786,0.032c0.311,0.036,0.603,0.104,0.866,0.197s0.497,0.211,0.692,0.348c0.39,0.275,0.625,0.628,0.625,1.014V7.89 v6.299h-0.603l-0.021-6.354L28.325,1.479z"/></g><radialGradient id="lyTgHxzDdohFb8LHWcuv_O" cx="24.01" cy="32.201" r="11.026" gradientTransform="matrix(1.0337 0 0 -1 -.81 48)" gradientUnits="userSpaceOnUse"><stop offset="0" stop-color="#f8ea29"/><stop offset=".999" stop-color="#d8ad23"/></radialGradient><path fill="url(#lyTgHxzDdohFb8LHWcuv_O)" d="M39.505,16c-3.747-1.75-9.217-2-15.506-2s-13.503,1.031-15.506,2	c-0.808,0.469-0.647,1.834,0.646,1.563C13.307,16.688,18.377,16,24,16c5.536,0,11.1,0.295,14.989,1.531	C40.15,17.9,40.345,16.438,39.505,16z"/><g><radialGradient id="lyTgHxzDdohFb8LHWcuv_P" cx="-15.931" cy="19.305" r="1.709" gradientTransform="matrix(1.37 0 0 -1.3195 45.883 51.12)" gradientUnits="userSpaceOnUse"><stop offset=".245" stop-color="#cc9000"/><stop offset=".415" stop-color="#d09504" stop-opacity=".822"/><stop offset=".627" stop-color="#dca50f" stop-opacity=".599"/><stop offset=".851" stop-color="#eebd20" stop-opacity=".363"/><stop offset="1" stop-color="#fed12e" stop-opacity="0"/></radialGradient><path fill="url(#lyTgHxzDdohFb8LHWcuv_P)" d="M24.04,26.328c-0.788,0-1.429-0.2-1.825-0.417c-0.291-0.16-0.586-0.086-0.393,0.415 c0.261,0.679,0.858,1.48,2.218,1.48c1.337,0,1.936-0.773,2.204-1.445c0.206-0.516-0.091-0.568-0.344-0.449 C25.412,26.14,24.808,26.328,24.04,26.328z"/><radialGradient id="lyTgHxzDdohFb8LHWcuv_Q" cx="-61.076" cy="71.175" r="1.76" gradientTransform="matrix(1.4827 .036 .0172 -.7101 113.435 78.208)" gradientUnits="userSpaceOnUse"><stop offset=".479" stop-color="#fed53f"/><stop offset=".926" stop-color="#fed53f" stop-opacity=".141"/><stop offset="1" stop-color="#fed53f" stop-opacity="0"/></radialGradient><path fill="url(#lyTgHxzDdohFb8LHWcuv_Q)" d="M26.874,25.535c-0.018,0.757-1.286,1.339-2.831,1.302c-1.545-0.038-2.782-0.681-2.764-1.438 s1.286-1.339,2.831-1.302C25.655,24.135,26.892,24.779,26.874,25.535z"/><radialGradient id="lyTgHxzDdohFb8LHWcuv_R" cx="24.117" cy="-151.221" r="1.411" gradientTransform="matrix(1 0 0 -.6596 0 -74.326)" gradientUnits="userSpaceOnUse"><stop offset=".004" stop-color="#fff4c9"/><stop offset="1" stop-color="#fff4c9" stop-opacity="0"/></radialGradient><ellipse cx="24.117" cy="25.419" fill="url(#lyTgHxzDdohFb8LHWcuv_R)" rx="1.411" ry=".931"/></g><radialGradient id="lyTgHxzDdohFb8LHWcuv_S" cx="24.125" cy="22.26" r="6.57" gradientTransform="matrix(1 0 0 -1 0 48)" gradientUnits="userSpaceOnUse"><stop offset="0" stop-color="#c69c6d"/><stop offset=".53" stop-color="#956b41"/><stop offset=".626" stop-color="#8c6239"/><stop offset=".849" stop-color="#734a23"/><stop offset=".992" stop-color="#603813"/></radialGradient><path fill="url(#lyTgHxzDdohFb8LHWcuv_S)" d="M24.015,27.7L24.015,27.7c-0.005,0-0.01,0-0.015,0s-0.01,0-0.015,0l0,0	c-5.306-0.08-6.11,2.031-6.11,2.974c0,0.37,0.437,0.426,0.637,0.113c0.152-0.229,0.768-0.579,1.592-0.59	c2.228-0.029,1.829-0.029,3.767-0.029c1.784,0,2.309,0,3.849,0c0.824,0,1.615,0.39,1.767,0.619c0.2,0.313,0.637,0.257,0.637-0.113	C30.125,29.731,29.321,27.62,24.015,27.7z"/></svg>