<svg xmlns="http://www.w3.org/2000/svg" viewBox="0 0 48 48"><path fill="#ccc" d="M5.433,44.625l17.817-0.542v-41.5C10.814,0.917,6.842,7.927,6.333,20.313	C5.561,28.396,0.201,34.375,5.433,44.625z"/><path fill="#ccc" d="M42.654,44.625l-17.793-0.542v-41.5c12.419-1.666,16.385,5.344,16.894,17.73	C42.525,28.396,47.878,34.375,42.654,44.625z"/><radialGradient id="Cw8wxro3Ijj2_XyizwRR4a" cx="52.722" cy="32.192" r="23.004" gradientTransform="rotate(180 42.488 24)" gradientUnits="userSpaceOnUse"><stop offset=".002" stop-color="#fff"/><stop offset="1" stop-color="#d2d5d6"/></radialGradient><path fill="url(#Cw8wxro3Ijj2_XyizwRR4a)" d="M41.1,44.083H24.85v-41.5c12.083-1.667,15.172,5.115,15.667,17.5	C41.267,28.167,46.184,33.833,41.1,44.083z"/><radialGradient id="Cw8wxro3Ijj2_XyizwRR4b" cx="15.847" cy="32.192" r="23.004" gradientTransform="matrix(1 0 0 -1 0 48)" gradientUnits="userSpaceOnUse"><stop offset=".002" stop-color="#fff"/><stop offset="1" stop-color="#d2d5d6"/></radialGradient><path fill="url(#Cw8wxro3Ijj2_XyizwRR4b)" d="M7,44.083h16.25v-41.5C11.167,0.917,8.078,7.698,7.583,20.083	C6.833,28.167,1.917,33.833,7,44.083z"/><radialGradient id="Cw8wxro3Ijj2_XyizwRR4c" cx="23.969" cy="16.281" r="12.531" gradientTransform="matrix(1.4289 0 0 -1 -10.28 48)" gradientUnits="userSpaceOnUse"><stop offset=".004" stop-color="#999"/><stop offset=".395" stop-color="#9d9d9d" stop-opacity=".608"/><stop offset=".785" stop-color="#a9a9a9" stop-opacity=".216"/><stop offset="1" stop-color="#b3b3b3" stop-opacity="0"/></radialGradient><ellipse cx="23.969" cy="31.719" fill="url(#Cw8wxro3Ijj2_XyizwRR4c)" rx="17.906" ry="12.531"/><radialGradient id="Cw8wxro3Ijj2_XyizwRR4d" cx="24.104" cy="-3.281" r="20.551" gradientTransform="matrix(1 0 0 -1 0 48)" gradientUnits="userSpaceOnUse"><stop offset="0" stop-color="#ffe16e"/><stop offset=".629" stop-color="#ffd226"/><stop offset=".75" stop-color="#fdcd23"/><stop offset=".899" stop-color="#f6bd1b"/><stop offset=".999" stop-color="#f0af13"/></radialGradient><path fill="url(#Cw8wxro3Ijj2_XyizwRR4d)" d="M42.941,46c-0.209-2.216-1.21-7.481-6.03-8.749c-1.813-0.477-5.834-1.154-8.911-1.641V33h-8	v2.61c-3.077,0.487-7.098,1.164-8.91,1.641C6.27,38.519,5.268,43.784,5.059,46H42.941z"/><linearGradient id="Cw8wxro3Ijj2_XyizwRR4e" x1="23.985" x2="23.985" y1="9.952" y2="12.777" gradientTransform="matrix(1 0 0 -1 0 48)" gradientUnits="userSpaceOnUse"><stop offset="0" stop-color="#fdd02d"/><stop offset=".999" stop-color="#cf941d"/></linearGradient><path fill="url(#Cw8wxro3Ijj2_XyizwRR4e)" d="M27.969,30.781H20v5.352c0.25,2.396,7.656,2.077,7.969,0V30.781z"/><linearGradient id="Cw8wxro3Ijj2_XyizwRR4f" x1="-46.621" x2="-61.078" y1="8.546" y2="16.796" gradientTransform="matrix(1 0 0 -.9876 92.647 40.986)" gradientUnits="userSpaceOnUse"><stop offset="0" stop-color="#c69c6d"/><stop offset=".165" stop-color="#aa8054"/><stop offset=".337" stop-color="#946a40"/><stop offset=".447" stop-color="#8c6239"/><stop offset=".999" stop-color="#331604"/></linearGradient><path fill="url(#Cw8wxro3Ijj2_XyizwRR4f)" d="M37.838,18.092c0,0-0.164,4.838,2.305,10.528c0.853,1.587-0.23,2.235-0.23,2.235	s-7.855,3.077-16.088,2.786c0-3.336,0-21.897,0-21.897l13.832,2.478L37.838,18.092z"/><linearGradient id="Cw8wxro3Ijj2_XyizwRR4g" x1="-755.617" x2="-741.894" y1="16.892" y2="23.624" gradientTransform="rotate(180 -355.125 24)" gradientUnits="userSpaceOnUse"><stop offset="0" stop-color="#c69c6d"/><stop offset=".165" stop-color="#aa8054"/><stop offset=".337" stop-color="#946a40"/><stop offset=".447" stop-color="#8c6239"/><stop offset=".999" stop-color="#331604"/></linearGradient><path fill="url(#Cw8wxro3Ijj2_XyizwRR4g)" d="M37.133,29.72c0.623-0.328,0.705-0.836-0.033-2.312c-2.18-5.445-1.886-9.118-1.902-10.43 l0.03-3.19l2.43,0.435l0.18,3.87c0,0-0.164,4.838,2.305,10.528c0.853,1.587-0.23,2.235-0.23,2.235s-7.855,3.077-16.088,2.786 c0-0.398,0.401-0.376,0.401-1.15C31.144,32.059,37.133,29.72,37.133,29.72z"/><linearGradient id="Cw8wxro3Ijj2_XyizwRR4h" x1="-755.648" x2="-741.891" y1="16.866" y2="23.615" gradientTransform="rotate(180 -355.125 24)" gradientUnits="userSpaceOnUse"><stop offset="0" stop-color="#b78e60"/><stop offset=".133" stop-color="#a47a4f"/><stop offset=".325" stop-color="#8e643b"/><stop offset=".447" stop-color="#865c34"/><stop offset=".999" stop-color="#391b06"/></linearGradient><path fill="url(#Cw8wxro3Ijj2_XyizwRR4h)" d="M37.424,29.806c0.534-0.281,0.75-0.757-0.005-2.249c-2.221-5.48-1.93-9.362-1.945-10.486 l0.002-3.24l2.181,0.391l0.185,3.713c0,0-0.158,4.933,2.311,10.623c0.856,1.59-0.148,2.304-0.269,2.35c0,0-7.822,3.05-16.055,2.758 c0-0.359,0.339-0.387,0.339-1.074C31.229,32.229,37.424,29.806,37.424,29.806z"/><linearGradient id="Cw8wxro3Ijj2_XyizwRR4i" x1="-755.68" x2="-741.888" y1="16.84" y2="23.607" gradientTransform="rotate(180 -355.125 24)" gradientUnits="userSpaceOnUse"><stop offset="0" stop-color="#a97f53"/><stop offset=".091" stop-color="#9d7449"/><stop offset=".308" stop-color="#875e35"/><stop offset=".447" stop-color="#7f562e"/><stop offset=".999" stop-color="#402008"/></linearGradient><path fill="url(#Cw8wxro3Ijj2_XyizwRR4i)" d="M37.714,29.893c0.445-0.234,0.794-0.678,0.023-2.186c-2.262-5.515-1.975-9.605-1.987-10.543 l-0.026-3.289l1.933,0.346l0.19,3.556c0,0-0.153,5.028,2.317,10.718c0.859,1.594-0.066,2.373-0.308,2.464 c0,0-7.789,3.023-16.021,2.731c0-0.32,0.277-0.398,0.277-0.999C31.313,32.399,37.714,29.893,37.714,29.893z"/><linearGradient id="Cw8wxro3Ijj2_XyizwRR4j" x1="-755.713" x2="-741.885" y1="16.812" y2="23.596" gradientTransform="rotate(180 -355.125 24)" gradientUnits="userSpaceOnUse"><stop offset="0" stop-color="#9a7146"/><stop offset=".025" stop-color="#976f44"/><stop offset=".282" stop-color="#815830"/><stop offset=".447" stop-color="#795029"/><stop offset=".999" stop-color="#46250a"/></linearGradient><path fill="url(#Cw8wxro3Ijj2_XyizwRR4j)" d="M38.005,29.98c0.356-0.187,0.839-0.599,0.052-2.123c-2.304-5.55-2.02-9.849-2.029-10.599 l-0.053-3.338l1.684,0.302l0.194,3.399c0,0-0.147,5.123,2.322,10.813c0.863,1.597,0.016,2.442-0.347,2.579 c0,0-7.755,2.996-15.988,2.704c0-0.281,0.215-0.41,0.215-0.923C31.398,32.57,38.005,29.98,38.005,29.98z"/><linearGradient id="Cw8wxro3Ijj2_XyizwRR4k" x1="-755.747" x2="-741.881" y1="16.783" y2="23.586" gradientTransform="rotate(180 -355.125 24)" gradientUnits="userSpaceOnUse"><stop offset="0" stop-color="#8c633a"/><stop offset=".246" stop-color="#7b522b"/><stop offset=".447" stop-color="#734a23"/><stop offset=".999" stop-color="#4d290d"/></linearGradient><path fill="url(#Cw8wxro3Ijj2_XyizwRR4k)" d="M38.295,30.066c0.267-0.141,0.883-0.52,0.08-2.059c-2.345-5.585-2.064-10.093-2.071-10.655 l-0.081-3.387l1.435,0.257l0.199,3.242c0,0-0.141,5.218,2.328,10.908c0.866,1.6,0.098,2.511-0.387,2.694 c0,0-7.722,2.968-15.954,2.677c0-0.242,0.154-0.421,0.154-0.847C31.483,32.74,38.295,30.066,38.295,30.066z"/><linearGradient id="Cw8wxro3Ijj2_XyizwRR4l" x1="-755.782" x2="-741.878" y1="16.753" y2="23.575" gradientTransform="rotate(180 -355.125 24)" gradientUnits="userSpaceOnUse"><stop offset="0" stop-color="#7d552d"/><stop offset=".182" stop-color="#754c25"/><stop offset=".447" stop-color="#6d441e"/><stop offset=".999" stop-color="#532e0f"/></linearGradient><path fill="url(#Cw8wxro3Ijj2_XyizwRR4l)" d="M38.586,30.153c0.178-0.094,0.928-0.441,0.108-1.996c-2.387-5.62-2.109-10.336-2.113-10.711 l-0.109-3.436l1.187,0.213l0.204,3.085c0,0-0.136,5.313,2.334,11.003c0.869,1.603,0.18,2.58-0.426,2.809 c0,0-7.688,2.941-15.921,2.65c0-0.203,0.092-0.433,0.092-0.772C31.568,32.91,38.586,30.153,38.586,30.153z"/><linearGradient id="Cw8wxro3Ijj2_XyizwRR4m" x1="-755.818" x2="-741.875" y1="16.724" y2="23.564" gradientTransform="rotate(180 -355.125 24)" gradientUnits="userSpaceOnUse"><stop offset="0" stop-color="#6f4620"/><stop offset=".03" stop-color="#6e451f"/><stop offset=".447" stop-color="#663e18"/><stop offset=".999" stop-color="#5a3311"/></linearGradient><path fill="url(#Cw8wxro3Ijj2_XyizwRR4m)" d="M38.876,30.24c0.089-0.047,0.972-0.362,0.136-1.933c-2.428-5.655-2.153-10.58-2.155-10.767 l-0.137-3.485l0.938,0.168l0.209,2.929c0,0-0.13,5.408,2.339,11.098c0.872,1.606,0.262,2.649-0.465,2.923 c0,0-7.655,2.914-15.888,2.622c0-0.164,0.03-0.444,0.03-0.696C31.652,33.08,38.876,30.24,38.876,30.24z"/><path fill="#603813" d="M39.167,30.327c0,0,1.017-0.282,0.164-1.87c-2.469-5.69-2.198-10.824-2.198-10.824l-0.165-3.535 l0.69,0.124l0.213,2.772c0,0-0.124,5.503,2.345,11.193c0.876,1.609,0.344,2.718-0.504,3.038c0,0-7.622,2.887-15.854,2.595 c0-0.125-0.032-0.455-0.032-0.621C31.737,33.25,39.167,30.327,39.167,30.327z"/><linearGradient id="Cw8wxro3Ijj2_XyizwRR4n" x1="-805.033" x2="-819.489" y1="8.451" y2="16.701" gradientTransform="matrix(-1 0 0 -.9876 -802.896 40.986)" gradientUnits="userSpaceOnUse"><stop offset="0" stop-color="#c69c6d"/><stop offset=".165" stop-color="#aa8054"/><stop offset=".337" stop-color="#946a40"/><stop offset=".447" stop-color="#8c6239"/><stop offset=".999" stop-color="#331604"/></linearGradient><path fill="url(#Cw8wxro3Ijj2_XyizwRR4n)" d="M10.323,18.186c0,0,0.164,4.838-2.305,10.528c-0.853,1.587,0.23,2.235,0.23,2.235	s7.855,3.077,16.088,2.786c0-3.336,0-21.897,0-21.897l-13.832,2.478L10.323,18.186z"/><linearGradient id="Cw8wxro3Ijj2_XyizwRR4o" x1="2.794" x2="16.516" y1="16.799" y2="23.531" gradientTransform="matrix(1 0 0 -1 0 48)" gradientUnits="userSpaceOnUse"><stop offset="0" stop-color="#c69c6d"/><stop offset=".165" stop-color="#aa8054"/><stop offset=".337" stop-color="#946a40"/><stop offset=".447" stop-color="#8c6239"/><stop offset=".999" stop-color="#331604"/></linearGradient><path fill="url(#Cw8wxro3Ijj2_XyizwRR4o)" d="M11.028,29.813c-0.623-0.328-0.705-0.836,0.033-2.312c2.18-5.445,1.886-9.118,1.902-10.43 l-0.03-3.19l-2.43,0.435l-0.18,3.87c0,0,0.164,4.838-2.305,10.528c-0.853,1.587,0.23,2.235,0.23,2.235s7.855,3.077,16.088,2.786 c0-0.398-0.401-0.376-0.401-1.15C17.017,32.153,11.028,29.813,11.028,29.813z"/><linearGradient id="Cw8wxro3Ijj2_XyizwRR4p" x1="2.764" x2="16.52" y1="16.772" y2="23.521" gradientTransform="matrix(1 0 0 -1 0 48)" gradientUnits="userSpaceOnUse"><stop offset="0" stop-color="#b78e60"/><stop offset=".133" stop-color="#a47a4f"/><stop offset=".325" stop-color="#8e643b"/><stop offset=".447" stop-color="#865c34"/><stop offset=".999" stop-color="#391b06"/></linearGradient><path fill="url(#Cw8wxro3Ijj2_XyizwRR4p)" d="M10.738,29.9c-0.534-0.281-0.75-0.757,0.005-2.249c2.221-5.48,1.93-9.362,1.945-10.486 l-0.002-3.24l-2.181,0.391l-0.185,3.713c0,0,0.158,4.933-2.311,10.623c-0.856,1.59,0.148,2.304,0.269,2.35 c0,0,7.822,3.05,16.055,2.758c0-0.359-0.339-0.387-0.339-1.074C16.933,32.323,10.738,29.9,10.738,29.9z"/><linearGradient id="Cw8wxro3Ijj2_XyizwRR4q" x1="2.731" x2="16.523" y1="16.746" y2="23.513" gradientTransform="matrix(1 0 0 -1 0 48)" gradientUnits="userSpaceOnUse"><stop offset="0" stop-color="#a97f53"/><stop offset=".091" stop-color="#9d7449"/><stop offset=".308" stop-color="#875e35"/><stop offset=".447" stop-color="#7f562e"/><stop offset=".999" stop-color="#402008"/></linearGradient><path fill="url(#Cw8wxro3Ijj2_XyizwRR4q)" d="M10.447,29.987c-0.445-0.234-0.794-0.678-0.023-2.186c2.262-5.515,1.975-9.605,1.987-10.543 l0.026-3.289l-1.933,0.346l-0.19,3.556c0,0,0.153,5.028-2.317,10.718c-0.859,1.594,0.066,2.373,0.308,2.464 c0,0,7.789,3.023,16.021,2.731c0-0.32-0.277-0.398-0.277-0.999C16.848,32.493,10.447,29.987,10.447,29.987z"/><linearGradient id="Cw8wxro3Ijj2_XyizwRR4r" x1="2.698" x2="16.527" y1="16.718" y2="23.502" gradientTransform="matrix(1 0 0 -1 0 48)" gradientUnits="userSpaceOnUse"><stop offset="0" stop-color="#9a7146"/><stop offset=".025" stop-color="#976f44"/><stop offset=".282" stop-color="#815830"/><stop offset=".447" stop-color="#795029"/><stop offset=".999" stop-color="#46250a"/></linearGradient><path fill="url(#Cw8wxro3Ijj2_XyizwRR4r)" d="M10.157,30.074c-0.356-0.187-0.839-0.599-0.052-2.123c2.304-5.55,2.02-9.849,2.029-10.599 l0.053-3.338l-1.684,0.302l-0.194,3.399c0,0,0.147,5.123-2.322,10.813c-0.863,1.597-0.016,2.442,0.347,2.579 c0,0,7.755,2.996,15.988,2.704c0-0.281-0.215-0.41-0.215-0.923C16.763,32.663,10.157,30.074,10.157,30.074z"/><linearGradient id="Cw8wxro3Ijj2_XyizwRR4s" x1="2.664" x2="16.53" y1="16.689" y2="23.492" gradientTransform="matrix(1 0 0 -1 0 48)" gradientUnits="userSpaceOnUse"><stop offset="0" stop-color="#8c633a"/><stop offset=".246" stop-color="#7b522b"/><stop offset=".447" stop-color="#734a23"/><stop offset=".999" stop-color="#4d290d"/></linearGradient><path fill="url(#Cw8wxro3Ijj2_XyizwRR4s)" d="M9.866,30.16c-0.267-0.141-0.883-0.52-0.08-2.059c2.345-5.585,2.064-10.093,2.071-10.655 l0.081-3.387l-1.435,0.257l-0.199,3.242c0,0,0.141,5.218-2.328,10.908c-0.866,1.6-0.098,2.511,0.387,2.694 c0,0,7.722,2.968,15.954,2.677c0-0.242-0.154-0.421-0.154-0.847C16.679,32.833,9.866,30.16,9.866,30.16z"/><linearGradient id="Cw8wxro3Ijj2_XyizwRR4t" x1="2.63" x2="16.534" y1="16.66" y2="23.481" gradientTransform="matrix(1 0 0 -1 0 48)" gradientUnits="userSpaceOnUse"><stop offset="0" stop-color="#7d552d"/><stop offset=".182" stop-color="#754c25"/><stop offset=".447" stop-color="#6d441e"/><stop offset=".999" stop-color="#532e0f"/></linearGradient><path fill="url(#Cw8wxro3Ijj2_XyizwRR4t)" d="M9.576,30.247c-0.178-0.094-0.928-0.441-0.108-1.996c2.387-5.62,2.109-10.336,2.113-10.711 l0.109-3.436l-1.187,0.213L10.3,17.401c0,0,0.136,5.313-2.334,11.003c-0.869,1.603-0.18,2.58,0.426,2.809 c0,0,7.688,2.941,15.921,2.65c0-0.203-0.092-0.433-0.092-0.772C16.594,33.004,9.576,30.247,9.576,30.247z"/><linearGradient id="Cw8wxro3Ijj2_XyizwRR4u" x1="2.594" x2="16.537" y1="16.63" y2="23.471" gradientTransform="matrix(1 0 0 -1 0 48)" gradientUnits="userSpaceOnUse"><stop offset="0" stop-color="#6f4620"/><stop offset=".03" stop-color="#6e451f"/><stop offset=".447" stop-color="#663e18"/><stop offset=".999" stop-color="#5a3311"/></linearGradient><path fill="url(#Cw8wxro3Ijj2_XyizwRR4u)" d="M9.285,30.334c-0.089-0.047-0.972-0.362-0.136-1.933c2.428-5.655,2.153-10.58,2.155-10.767 l0.137-3.485l-0.938,0.168l-0.209,2.929c0,0,0.13,5.408-2.339,11.098c-0.872,1.606-0.262,2.649,0.465,2.923 c0,0,7.655,2.914,15.888,2.622c0-0.164-0.03-0.444-0.03-0.696C16.509,33.174,9.285,30.334,9.285,30.334z"/><path fill="#603813" d="M8.995,30.42c0,0-1.017-0.282-0.164-1.87c2.469-5.69,2.198-10.824,2.198-10.824l0.165-3.535 l-0.69,0.124l-0.213,2.772c0,0,0.124,5.503-2.345,11.193c-0.876,1.609-0.344,2.718,0.504,3.038c0,0,7.622,2.887,15.854,2.595 c0-0.125,0.032-0.455,0.032-0.621C16.425,33.344,8.995,30.42,8.995,30.42z"/><path fill="#ecbe49" d="M37.973,22.541c0.004-0.001,0.007-0.002,0.011-0.003c-0.001-0.039-0.002-0.078-0.004-0.119	C37.977,22.462,37.975,22.508,37.973,22.541z"/><radialGradient id="Cw8wxro3Ijj2_XyizwRR4v" cx="-1156.329" cy="-15.368" r="2.274" gradientTransform="matrix(-1.0734 .1748 -.4815 -2.1652 -1236.046 190.361)" gradientUnits="userSpaceOnUse"><stop offset="0" stop-color="#ffe16e"/><stop offset=".461" stop-color="#ffd226"/><stop offset=".658" stop-color="#fbc921"/><stop offset=".978" stop-color="#f1b114"/><stop offset=".999" stop-color="#f0af13"/></radialGradient><path fill="url(#Cw8wxro3Ijj2_XyizwRR4v)" d="M13.187,18.9c-0.909-0.238-3.105-0.086-3.181,2.096c-0.072,2.063,0.555,3.003,1.389,3.889	c0.935,0.993,2.614,0.986,2.476,0.197C13.732,24.292,13.187,18.9,13.187,18.9z"/><radialGradient id="Cw8wxro3Ijj2_XyizwRR4w" cx="-18.898" cy="-15.368" r="2.308" gradientTransform="matrix(1.0633 .1748 .477 -2.1652 62.947 -8.421)" gradientUnits="userSpaceOnUse"><stop offset="0" stop-color="#ffe16e"/><stop offset=".461" stop-color="#ffd226"/><stop offset=".741" stop-color="#f8c21d"/><stop offset=".999" stop-color="#f0af13"/></radialGradient><path fill="url(#Cw8wxro3Ijj2_XyizwRR4w)" d="M34.843,18.9c0.9-0.238,3.076-0.086,3.151,2.096c0.071,2.063-0.55,3.003-1.376,3.889	c-0.926,0.993-2.59,0.986-2.453,0.197C34.303,24.292,34.843,18.9,34.843,18.9z"/><radialGradient id="Cw8wxro3Ijj2_XyizwRR4x" cx="74.366" cy="73.451" r="14.826" fx="74.288" fy="67.099" gradientTransform="matrix(.8889 0 0 -1.0839 -42.086 98.12)" gradientUnits="userSpaceOnUse"><stop offset="0" stop-color="#ffe16e"/><stop offset=".629" stop-color="#ffd226"/><stop offset=".75" stop-color="#fdcd23"/><stop offset=".899" stop-color="#f6bd1b"/><stop offset=".999" stop-color="#f0af13"/></radialGradient><path fill="url(#Cw8wxro3Ijj2_XyizwRR4x)" d="M36.841,19.231c0,2.929-1.508,6.897-2.917,9.093C31.054,32.797,26.626,35,24.003,35	c-2.558,0-7.216-2.236-9.954-6.676c-1.37-2.221-2.853-6.164-2.853-9.093c0-0.643,0.017-5.197,0.051-5.774	c0.196-3.316,2.54-11.442,12.772-11.442c10.234,0,12.511,7.927,12.745,11.048C36.815,13.758,36.841,18.442,36.841,19.231z"/><radialGradient id="Cw8wxro3Ijj2_XyizwRR4y" cx="32.277" cy="37.57" r="8.788" gradientTransform="matrix(-.0112 .979 1.4286 .0163 -29.33 -22.19)" gradientUnits="userSpaceOnUse"><stop offset="0" stop-color="#c69c6d"/><stop offset=".232" stop-color="#aa8054"/><stop offset=".474" stop-color="#946a40"/><stop offset=".629" stop-color="#8c6239"/><stop offset=".734" stop-color="#875d34"/><stop offset=".865" stop-color="#774e27"/><stop offset=".999" stop-color="#603813"/></radialGradient><path fill="url(#Cw8wxro3Ijj2_XyizwRR4y)" d="M12.019,15.122c1.304-0.363,4.642-2.392,7.255-5.656c0.299-0.373,0.833-0.442,1.238-0.187	c1.75,1.105,5.621,1.901,10.421,1.171c0.328-0.05,0.661,0.064,0.874,0.317c1.793,2.131,2.3,3.239,3.797,4.126	c1.138,0.679,2.013,2.131,2.129,2.894C38.077,14.403,38.958,1,23.962,1c-1.554,0-3.158,0.289-4.25,1.204	C19,2.059,17.889,2.151,17.148,2.493c-8.263,3.813-6.668,14.14-6.763,15.698C10.54,15.912,11.5,15.35,12.019,15.122z"/><radialGradient id="Cw8wxro3Ijj2_XyizwRR4z" cx="24.023" cy="33.753" r="13.176" gradientTransform="matrix(1 0 0 -1 0 48)" gradientUnits="userSpaceOnUse"><stop offset="0" stop-color="#603813" stop-opacity="0"/><stop offset=".999" stop-color="#603813" stop-opacity=".2"/></radialGradient><path fill="url(#Cw8wxro3Ijj2_XyizwRR4z)" d="M36.801,17.967c-0.119-0.78-2.873-3.809-4.717-5.986c-0.219-0.259-0.562-0.374-0.899-0.324 c-4.937,0.745-8.989-1.058-10.789-2.186c-0.416-0.261-0.966-0.19-1.273,0.191c-2.06,2.556-6.197,7.295-7.891,8.175 c-0.027,0.156-0.021,0.959-0.021,1.329c1.906-0.664,6.226-4.886,8.339-7.508c0.307-0.381,0.592-0.428,1.008-0.167 c1.8,1.128,5.285,2.004,10.223,1.259c0.337-0.051,0.706,0.045,0.899,0.324c1.602,2.324,4.216,5.564,5.151,6.105 C36.831,18.697,36.85,18.263,36.801,17.967z"/><radialGradient id="Cw8wxro3Ijj2_XyizwRR4A" cx="24.023" cy="33.779" r="13.17" gradientTransform="matrix(1 0 0 -1 0 48)" gradientUnits="userSpaceOnUse"><stop offset="0" stop-color="#5c3512" stop-opacity=".143"/><stop offset=".999" stop-color="#5c3512" stop-opacity=".314"/></radialGradient><path fill="url(#Cw8wxro3Ijj2_XyizwRR4A)" d="M36.807,17.984c-0.119-0.78-2.936-3.973-4.78-6.15c-0.219-0.259-0.562-0.374-0.899-0.324 c-4.937,0.745-8.932-0.911-10.733-2.039c-0.416-0.261-0.966-0.19-1.273,0.191c-2.06,2.556-6.201,7.307-7.895,8.187 c-0.027,0.156-0.019,0.909-0.02,1.247c2.008-0.789,6.108-4.766,8.32-7.589c0.303-0.384,0.592-0.428,1.008-0.167 c1.8,1.128,5.31,1.989,10.247,1.245c0.337-0.051,0.697,0.052,0.89,0.33c1.661,2.402,4.249,5.67,5.159,6.211 C36.834,18.617,36.857,18.28,36.807,17.984z"/><radialGradient id="Cw8wxro3Ijj2_XyizwRR4B" cx="24.023" cy="33.806" r="13.165" gradientTransform="matrix(1 0 0 -1 0 48)" gradientUnits="userSpaceOnUse"><stop offset="0" stop-color="#573111" stop-opacity=".286"/><stop offset=".999" stop-color="#573111" stop-opacity=".429"/></radialGradient><path fill="url(#Cw8wxro3Ijj2_XyizwRR4B)" d="M36.813,18.001c-0.119-0.78-2.999-4.137-4.843-6.314c-0.219-0.259-0.562-0.374-0.899-0.324 c-4.937,0.745-8.876-0.764-10.676-1.893c-0.416-0.261-0.966-0.19-1.273,0.191c-2.06,2.556-6.205,7.319-7.899,8.199 c-0.027,0.156-0.017,0.86-0.02,1.165c2.11-0.914,5.981-4.653,8.3-7.67c0.298-0.388,0.592-0.428,1.008-0.167 c1.8,1.128,5.334,1.975,10.271,1.23c0.337-0.051,0.688,0.058,0.881,0.337c1.721,2.48,4.281,5.776,5.167,6.318 C36.836,18.537,36.863,18.298,36.813,18.001z"/><radialGradient id="Cw8wxro3Ijj2_XyizwRR4C" cx="24.024" cy="33.832" r="13.159" gradientTransform="matrix(1 0 0 -1 0 48)" gradientUnits="userSpaceOnUse"><stop offset="0" stop-color="#532e10" stop-opacity=".429"/><stop offset=".999" stop-color="#532e10" stop-opacity=".543"/></radialGradient><path fill="url(#Cw8wxro3Ijj2_XyizwRR4C)" d="M36.819,18.019c-0.119-0.78-3.061-4.301-4.905-6.478c-0.219-0.259-0.562-0.374-0.899-0.324 c-4.937,0.745-8.819-0.617-10.619-1.746c-0.416-0.261-0.966-0.19-1.273,0.191c-2.06,2.556-6.209,7.331-7.903,8.21 c-0.027,0.156-0.015,0.81-0.019,1.083c2.212-1.038,5.861-4.534,8.28-7.751c0.294-0.391,0.592-0.428,1.008-0.167 c1.8,1.128,5.358,1.961,10.296,1.216c0.337-0.051,0.679,0.065,0.872,0.344c1.78,2.558,4.313,5.883,5.174,6.424 C36.839,18.457,36.869,18.315,36.819,18.019z"/><radialGradient id="Cw8wxro3Ijj2_XyizwRR4D" cx="24.024" cy="33.859" r="13.154" gradientTransform="matrix(1 0 0 -1 0 48)" gradientUnits="userSpaceOnUse"><stop offset="0" stop-color="#4f2b0e" stop-opacity=".571"/><stop offset=".999" stop-color="#4f2b0e" stop-opacity=".657"/></radialGradient><path fill="url(#Cw8wxro3Ijj2_XyizwRR4D)" d="M36.825,18.036c-0.119-0.78-3.124-4.465-4.968-6.642c-0.219-0.259-0.562-0.374-0.899-0.324 c-4.937,0.745-8.763-0.47-10.563-1.599c-0.416-0.261-0.966-0.19-1.273,0.191c-2.06,2.556-6.213,7.342-7.907,8.222 c-0.027,0.156-0.013,0.761-0.019,1c2.314-1.163,5.743-4.414,8.26-7.832c0.29-0.394,0.592-0.428,1.008-0.167 c1.8,1.128,5.383,1.946,10.32,1.201c0.337-0.051,0.67,0.072,0.863,0.351c1.839,2.636,4.346,5.989,5.182,6.53 C36.842,18.377,36.875,18.332,36.825,18.036z"/><radialGradient id="Cw8wxro3Ijj2_XyizwRR4E" cx="24.024" cy="33.885" r="13.149" gradientTransform="matrix(1 0 0 -1 0 48)" gradientUnits="userSpaceOnUse"><stop offset="0" stop-color="#4b280d" stop-opacity=".714"/><stop offset=".999" stop-color="#4b280d" stop-opacity=".771"/></radialGradient><path fill="url(#Cw8wxro3Ijj2_XyizwRR4E)" d="M36.831,18.053c-0.119-0.78-3.187-4.63-5.031-6.806c-0.219-0.259-0.562-0.374-0.899-0.324 c-4.937,0.745-8.706-0.324-10.506-1.452c-0.416-0.261-0.966-0.19-1.273,0.191c-2.06,2.556-6.217,7.354-7.911,8.234 c-0.027,0.156-0.01,0.711-0.019,0.918c2.416-1.288,5.627-4.293,8.241-7.914c0.286-0.397,0.592-0.428,1.008-0.167 c1.8,1.128,5.407,1.932,10.344,1.187c0.337-0.051,0.66,0.079,0.855,0.357c1.899,2.714,4.378,6.096,5.19,6.637 C36.844,18.297,36.881,18.35,36.831,18.053z"/><radialGradient id="Cw8wxro3Ijj2_XyizwRR4F" cx="24.026" cy="33.912" r="13.143" gradientTransform="matrix(1 0 0 -1 0 48)" gradientUnits="userSpaceOnUse"><stop offset="0" stop-color="#46240c" stop-opacity=".857"/><stop offset=".999" stop-color="#46240c" stop-opacity=".886"/></radialGradient><path fill="url(#Cw8wxro3Ijj2_XyizwRR4F)" d="M36.837,18.07c-0.119-0.78-3.249-4.794-5.093-6.971c-0.219-0.259-0.562-0.374-0.899-0.324 c-4.937,0.745-8.649-0.177-10.449-1.305c-0.416-0.261-0.966-0.19-1.273,0.191c-2.06,2.556-6.221,7.366-7.915,8.246 c-0.027,0.156-0.008,0.662-0.018,0.836c2.518-1.413,5.518-4.167,8.221-7.995c0.284-0.399,0.592-0.428,1.008-0.167 c1.8,1.128,5.431,1.917,10.369,1.173c0.337-0.051,0.651,0.086,0.846,0.364c1.958,2.792,4.41,6.202,5.198,6.743 C36.847,18.216,36.887,18.367,36.837,18.07z"/><path fill="#42210b" d="M36.843,18.088c-0.119-0.78-3.312-4.958-5.156-7.135c-0.219-0.259-0.562-0.374-0.899-0.324 c-4.937,0.745-8.593-0.03-10.393-1.158c-0.416-0.261-0.966-0.19-1.273,0.191c-2.06,2.556-6.225,7.378-7.919,8.258 c-0.027,0.156-0.006,0.612-0.018,0.754c2.62-1.537,5.4-4.047,8.201-8.076c0.28-0.402,0.592-0.428,1.008-0.167 c1.8,1.128,5.456,1.903,10.393,1.158c0.337-0.051,0.642,0.093,0.837,0.371c2.017,2.87,4.443,6.309,5.205,6.85 C36.85,18.136,36.893,18.384,36.843,18.088z"/><radialGradient id="Cw8wxro3Ijj2_XyizwRR4G" cx="38.389" cy="26.165" r="11.669" gradientTransform="matrix(.9652 0 0 -.959 -13.451 38.072)" gradientUnits="userSpaceOnUse"><stop offset="0" stop-color="#c69c6d"/><stop offset=".232" stop-color="#aa8054"/><stop offset=".474" stop-color="#946a40"/><stop offset=".629" stop-color="#8c6239"/><stop offset=".734" stop-color="#875d34"/><stop offset=".865" stop-color="#774e27"/><stop offset=".999" stop-color="#603813"/></radialGradient><path fill="url(#Cw8wxro3Ijj2_XyizwRR4G)" d="M36.316,14.603c-0.859-1.349-1.745-3.291-3.538-5.379c-0.213-0.248-0.546-0.359-0.874-0.31 c-4.685,0.697-8.087-0.399-9.905-1.483c-0.498-0.416-1.425-0.92-1.235-3.137c0.112-1.303-2.089-1.392-2.683,0.094 c0,0-0.855,1.463-0.641,3.326c0.107,0.342-0.642,1.076-0.689,1.132c-2.613,3.197-3.675,4.62-5.295,6.063 c-1.124,1.022-1.15,4.723-1.15,4.723c0.104-2.058,0.719-2.309,1.57-2.857c1.188-0.738,4.763-3.961,7.376-7.158 c0.299-0.366,0.909-0.423,1.314-0.173c1.75,1.082,5.441,1.932,10.241,1.218c0.327-0.049,0.832,0.114,1.045,0.362 c1.793,2.087,2.508,4.296,3.735,5.509c0.967,0.956,2.029,1.906,2.145,2.654C37.768,18.621,37.092,15.822,36.316,14.603z"/><radialGradient id="Cw8wxro3Ijj2_XyizwRR4H" cx="36.21" cy="27.415" r="11.59" gradientTransform="matrix(.9702 0 0 -.9648 -11.53 39.487)" gradientUnits="userSpaceOnUse"><stop offset="0" stop-color="#b78e60"/><stop offset=".188" stop-color="#a47a4f"/><stop offset=".457" stop-color="#8e643b"/><stop offset=".629" stop-color="#865c34"/><stop offset=".744" stop-color="#81572f"/><stop offset=".886" stop-color="#714822"/><stop offset=".999" stop-color="#603813"/></radialGradient><path fill="url(#Cw8wxro3Ijj2_XyizwRR4H)" d="M36.231,14.864c-0.884-1.377-1.827-3.308-3.575-5.448c-0.207-0.253-0.546-0.359-0.874-0.31 c-4.685,0.697-8.16-0.387-9.978-1.471c-0.498-0.416-1.408-0.956-1.209-3.276c0.105-1.219-1.847-1.246-2.371,0.074 c0,0-0.799,1.516-0.539,3.368c0.107,0.342-0.55,0.989-0.596,1.046c-2.701,3.401-4.018,4.959-5.572,6.331 c-1.122,1.007-1.207,4.324-1.214,4.456c0.128-1.903,0.77-2.203,1.577-2.735c1.686-1.15,4.76-4.07,7.373-7.267 c0.299-0.366,0.898-0.425,1.303-0.174c1.75,1.082,5.462,1.972,10.262,1.258c0.327-0.049,0.813,0.102,1.02,0.354 c1.735,2.101,2.449,4.189,3.768,5.558c0.938,0.973,2.01,1.893,2.128,2.651C37.75,18.576,36.992,16.051,36.231,14.864z"/><radialGradient id="Cw8wxro3Ijj2_XyizwRR4I" cx="34.053" cy="28.649" r="11.512" gradientTransform="matrix(.9751 0 0 -.9707 -9.608 40.908)" gradientUnits="userSpaceOnUse"><stop offset="0" stop-color="#a97f53"/><stop offset=".129" stop-color="#9d7449"/><stop offset=".434" stop-color="#875e35"/><stop offset=".629" stop-color="#7f562e"/><stop offset=".759" stop-color="#7a5129"/><stop offset=".92" stop-color="#6a421c"/><stop offset=".999" stop-color="#603813"/></radialGradient><path fill="url(#Cw8wxro3Ijj2_XyizwRR4I)" d="M36.146,15.124c-0.91-1.405-1.91-3.326-3.612-5.518c-0.2-0.257-0.546-0.359-0.874-0.31 c-4.685,0.697-8.233-0.375-10.051-1.459c-0.498-0.416-1.39-0.992-1.184-3.416c0.098-1.136-1.605-1.1-2.058,0.053 c0,0-0.743,1.569-0.438,3.409c0.107,0.342-0.458,0.902-0.503,0.959c-2.799,3.598-4.362,5.298-5.849,6.6 c-1.121,0.991-1.264,3.925-1.278,4.19c0.151-1.749,0.822-2.097,1.584-2.612c2.184-1.562,4.758-4.18,7.371-7.377 c0.299-0.366,0.888-0.426,1.292-0.176c1.75,1.082,5.482,2.013,10.283,1.298c0.327-0.049,0.794,0.091,0.996,0.347 c1.677,2.115,2.392,4.081,3.8,5.606c0.911,0.987,1.991,1.88,2.111,2.647C37.732,18.53,36.891,16.28,36.146,15.124z"/><radialGradient id="Cw8wxro3Ijj2_XyizwRR4J" cx="31.919" cy="29.868" r="11.435" gradientTransform="matrix(.9801 0 0 -.9766 -7.686 42.328)" gradientUnits="userSpaceOnUse"><stop offset="0" stop-color="#9a7146"/><stop offset=".035" stop-color="#976f44"/><stop offset=".397" stop-color="#815830"/><stop offset=".629" stop-color="#795029"/><stop offset=".776" stop-color="#744b24"/><stop offset=".96" stop-color="#643c17"/><stop offset=".999" stop-color="#603813"/></radialGradient><path fill="url(#Cw8wxro3Ijj2_XyizwRR4J)" d="M36.06,15.385c-0.935-1.433-1.992-3.343-3.649-5.587c-0.194-0.262-0.546-0.359-0.874-0.31 c-4.685,0.697-8.306-0.364-10.124-1.448c-0.498-0.416-1.373-1.028-1.159-3.555c0.092-1.052-1.363-0.955-1.746,0.032 c0,0-0.687,1.622-0.336,3.45c0.107,0.342-0.366,0.815-0.41,0.873c-2.889,3.8-4.706,5.637-6.126,6.869 c-1.12,0.976-1.322,3.526-1.342,3.923c0.175-1.594,0.873-1.991,1.591-2.49c2.682-1.974,4.755-4.289,7.368-7.486 c0.299-0.366,0.877-0.427,1.281-0.177c1.75,1.082,5.503,2.053,10.304,1.339c0.327-0.049,0.775,0.08,0.971,0.34 c1.619,2.129,2.338,3.969,3.833,5.654c0.887,1,1.973,1.868,2.095,2.644C37.714,18.485,36.791,16.509,36.06,15.385z"/><radialGradient id="Cw8wxro3Ijj2_XyizwRR4K" cx="29.806" cy="31.073" r="11.359" gradientTransform="matrix(.9851 0 0 -.9824 -5.765 43.744)" gradientUnits="userSpaceOnUse"><stop offset="0" stop-color="#8c633a"/><stop offset=".346" stop-color="#7b522b"/><stop offset=".629" stop-color="#734a23"/><stop offset=".803" stop-color="#6e451e"/><stop offset=".999" stop-color="#603813"/></radialGradient><path fill="url(#Cw8wxro3Ijj2_XyizwRR4K)" d="M35.975,15.646c-0.961-1.461-2.075-3.36-3.686-5.657c-0.187-0.266-0.546-0.359-0.874-0.31 c-4.685,0.697-8.379-0.352-10.197-1.436c-0.498-0.416-1.356-1.064-1.133-3.694c0.085-0.968-1.121-0.809-1.433,0.011 c0,0-0.631,1.675-0.235,3.492c0.107,0.342-0.274,0.728-0.318,0.786c-2.977,4.004-5.05,5.977-6.403,7.138 c-1.118,0.96-1.379,3.127-1.406,3.657c0.198-1.44,0.925-1.884,1.599-2.368c3.18-2.386,4.753-4.398,7.366-7.596 c0.299-0.366,0.866-0.429,1.271-0.179c1.75,1.082,5.524,2.093,10.324,1.379c0.327-0.049,0.756,0.069,0.947,0.332 c1.561,2.143,2.287,3.855,3.866,5.703c0.864,1.011,1.954,1.855,2.078,2.64C37.695,18.439,36.691,16.738,35.975,15.646z"/><radialGradient id="Cw8wxro3Ijj2_XyizwRR4L" cx="27.715" cy="32.264" r="11.285" gradientTransform="matrix(.9901 0 0 -.9883 -3.843 45.164)" gradientUnits="userSpaceOnUse"><stop offset="0" stop-color="#7d552d"/><stop offset=".257" stop-color="#754c25"/><stop offset=".629" stop-color="#6d441e"/><stop offset=".847" stop-color="#683f19"/><stop offset=".999" stop-color="#603813"/></radialGradient><path fill="url(#Cw8wxro3Ijj2_XyizwRR4L)" d="M35.89,15.906c-0.987-1.489-2.157-3.378-3.723-5.726c-0.181-0.271-0.546-0.359-0.874-0.31 c-4.685,0.697-8.452-0.341-10.27-1.424c-0.498-0.416-1.345-1.1-1.108-3.833c0.077-0.885-0.879-0.663-1.121-0.01 c0,0-0.576,1.729-0.133,3.533c0.107,0.342-0.182,0.641-0.225,0.7c-3.063,4.209-5.393,6.316-6.679,7.407 c-1.117,0.945-1.436,2.727-1.469,3.39c0.221-1.285,0.976-1.778,1.606-2.246c3.677-2.798,4.75-4.508,7.363-7.705 c0.299-0.366,0.855-0.43,1.26-0.18c1.75,1.082,5.545,2.133,10.345,1.419c0.327-0.049,0.737,0.057,0.923,0.325 c1.502,2.156,2.238,3.739,3.898,5.751c0.842,1.021,1.935,1.842,2.061,2.637C37.677,18.394,36.59,16.967,35.89,15.906z"/><radialGradient id="Cw8wxro3Ijj2_XyizwRR4M" cx="25.644" cy="33.387" r="11.222" gradientTransform="matrix(.995 0 0 -.9941 -1.922 46.58)" gradientUnits="userSpaceOnUse"><stop offset="0" stop-color="#6f4620"/><stop offset=".042" stop-color="#6e451f"/><stop offset=".629" stop-color="#663e18"/><stop offset=".975" stop-color="#613914"/><stop offset=".999" stop-color="#603813"/></radialGradient><path fill="url(#Cw8wxro3Ijj2_XyizwRR4M)" d="M35.805,16.167c-1.012-1.517-2.24-3.395-3.76-5.796c-0.175-0.275-0.546-0.359-0.874-0.31 c-4.685,0.697-8.525-0.329-10.343-1.413c-0.498-0.416-1.33-1.136-1.083-3.972c0.07-0.801-0.637-0.517-0.808-0.031 c0,0-0.52,1.782-0.031,3.575c0.107,0.342-0.09,0.554-0.132,0.613c-3.142,4.42-5.737,6.655-6.956,7.676 c-1.115,0.929-1.493,2.328-1.533,3.124c0.245-1.131,1.028-1.672,1.613-2.123c4.175-3.21,4.748-4.617,7.361-7.814 c0.299-0.366,0.844-0.432,1.249-0.182c1.75,1.082,5.565,2.174,10.366,1.459c0.327-0.049,0.718,0.046,0.898,0.318 c1.444,2.17,2.192,3.621,3.931,5.799c0.822,1.03,1.916,1.829,2.045,2.634C37.659,18.348,36.49,17.196,35.805,16.167z"/><path fill="#603813" d="M35.72,16.427c-1.038-1.545-2.322-3.412-3.797-5.865c-0.168-0.28-0.546-0.359-0.874-0.31 c-4.685,0.697-8.598-0.317-10.416-1.401c-0.498-0.416-1.305-1.171-1.057-4.111c0.065-0.717-0.395-0.372-0.496-0.052 c0,0-0.464,1.835,0.07,3.616c0.107,0.342,0.002,0.467-0.04,0.527c-3.23,4.624-6.081,6.994-7.233,7.944 c-1.114,0.914-1.55,1.929-1.597,2.857c0.268-0.976,1.08-1.566,1.62-2.001c4.673-3.622,4.745-4.727,7.358-7.924 c0.299-0.366,0.834-0.433,1.238-0.183c1.75,1.082,5.586,2.214,10.387,1.5c0.327-0.049,0.699,0.035,0.874,0.31 c1.386,2.184,2.15,3.5,3.963,5.848c0.802,1.038,1.897,1.816,2.028,2.63C37.641,18.303,36.39,17.425,35.72,16.427z"/><path fill="#805b2a" d="M14.322,20.29c-0.023,0.367,0.055,0.336,0.196,0.519c0,0,1.594,2.204,6.402,0.695	c0.348-0.124,0.598-0.36,0.562-0.644C20.866,15.978,14.699,16.695,14.322,20.29z"/><path fill="#fff" d="M14.393,20.07c-0.12,0.258-0.082,0.464,0,0.672c0.343,0.906,3.095,4.131,6.809,0.745	c0.277-0.239,0.321-0.45,0.252-0.748C21.385,20.44,20.423,18,17.902,18C15.405,18,14.601,19.719,14.393,20.07z"/><linearGradient id="Cw8wxro3Ijj2_XyizwRR4N" x1="15.901" x2="20.085" y1="27.931" y2="27.931" gradientTransform="matrix(1 0 0 -1 0 48)" gradientUnits="userSpaceOnUse"><stop offset="0" stop-color="#c69c6d"/><stop offset="1" stop-color="#754c24"/></linearGradient><circle cx="17.993" cy="20.069" r="2.092" fill="url(#Cw8wxro3Ijj2_XyizwRR4N)"/><radialGradient id="Cw8wxro3Ijj2_XyizwRR4O" cx="17.993" cy="27.931" r="1.053" gradientTransform="matrix(1 0 0 -1 0 48)" gradientUnits="userSpaceOnUse"><stop offset="0" stop-color="#1c1911"/><stop offset=".999" stop-color="#171714"/></radialGradient><circle cx="17.993" cy="20.069" r="1.053" fill="url(#Cw8wxro3Ijj2_XyizwRR4O)"/><circle cx="17.484" cy="19.526" r=".494" fill="#fff"/><path fill="#805b2a" d="M33.574,20.29c0.023,0.367-0.055,0.336-0.196,0.519c0,0-1.594,2.204-6.402,0.695	c-0.348-0.124-0.598-0.36-0.562-0.644C27.03,15.978,33.197,16.695,33.574,20.29z"/><path fill="#fff" d="M33.503,20.07c0.12,0.258,0.082,0.464,0,0.672c-0.343,0.906-3.095,4.131-6.809,0.745	c-0.277-0.239-0.321-0.45-0.252-0.748C26.511,20.44,27.473,18,29.994,18C32.49,18,33.295,19.719,33.503,20.07z"/><linearGradient id="Cw8wxro3Ijj2_XyizwRR4P" x1="73.432" x2="77.616" y1="687.932" y2="687.932" gradientTransform="translate(-45.622 -667.863)" gradientUnits="userSpaceOnUse"><stop offset="0" stop-color="#c69c6d"/><stop offset="1" stop-color="#754c24"/></linearGradient><circle cx="29.902" cy="20.069" r="2.092" fill="url(#Cw8wxro3Ijj2_XyizwRR4P)"/><radialGradient id="Cw8wxro3Ijj2_XyizwRR4Q" cx="-1340.475" cy="27.931" r="1.053" gradientTransform="rotate(180 -655.287 24)" gradientUnits="userSpaceOnUse"><stop offset="0" stop-color="#1c1911"/><stop offset=".999" stop-color="#171714"/></radialGradient><circle cx="29.902" cy="20.069" r="1.053" fill="url(#Cw8wxro3Ijj2_XyizwRR4Q)"/><circle cx="29.422" cy="19.526" r=".494" fill="#fff"/><g><path fill="#805b2a" d="M32.167,16.441c-1.366-0.349-2.812-0.246-4.06,0.234c-0.388,0.149-0.824-0.044-0.974-0.433 c-0.149-0.388,0.044-0.824,0.433-0.974c0.04-0.015,0.081-0.027,0.122-0.036l0.017-0.003c1.614-0.316,3.275-0.127,4.712,0.517 c0.187,0.083,0.27,0.302,0.187,0.489c-0.075,0.167-0.258,0.251-0.429,0.207L32.167,16.441z"/></g><g><path fill="#805b2a" d="M15.833,15.746c1.437-0.643,3.098-0.833,4.712-0.517l0.013,0.003 c0.408,0.08,0.675,0.476,0.595,0.884s-0.476,0.675-0.884,0.595c-0.042-0.008-0.087-0.021-0.126-0.036 c-1.248-0.48-2.693-0.583-4.06-0.234l-0.007,0.002c-0.198,0.051-0.4-0.069-0.45-0.267C15.581,15.998,15.672,15.818,15.833,15.746z"/></g><path fill="#8e2809" d="M20.184,28.94c-0.219-0.023-0.233,0.162-0.091,0.347C21.117,30.629,22.631,31,23.997,31	c1.255,0,3.188-0.524,3.93-1.687c0.125-0.196,0.089-0.415-0.117-0.373c-1.936,0.547-2.832-0.981-3.852,0.037	C22.968,27.988,21.983,29.3,20.184,28.94z"/><path fill="#601808" d="M23.915,30.365c0.052-0.022,1.444-0.601,2.635-0.74c-1.524-0.118-2.566,0.138-2.64,0.157	c-0.074-0.019-1.116-0.275-2.64-0.157c1.192,0.139,2.584,0.718,2.635,0.74v0.004c0,0,0.004-0.002,0.005-0.002l0.005,0.002V30.365z"/><path fill="#ecbe49" d="M37.973,22.541c0.004-0.001,0.007-0.002,0.011-0.003c-0.001-0.039-0.002-0.078-0.004-0.119	C37.977,22.462,37.975,22.508,37.973,22.541z"/><path fill="#ecbe49" d="M37.973,22.541c0.004-0.001,0.007-0.002,0.011-0.003c-0.001-0.039-0.002-0.078-0.004-0.119	C37.977,22.462,37.975,22.508,37.973,22.541z"/><path fill="#ecbe49" d="M9.995,22.494c0.004,0.001,0.007,0.002,0.011,0.003c-0.001-0.014-0.003-0.031-0.005-0.046	C10,22.465,9.996,22.479,9.995,22.494z"/><path fill="#ecbe49" d="M37.973,22.541c0.004-0.001,0.007-0.002,0.011-0.003c-0.001-0.039-0.002-0.078-0.004-0.119	C37.977,22.462,37.975,22.508,37.973,22.541z"/><path fill="#ecbe49" d="M9.995,22.494c0.004,0.001,0.007,0.002,0.011,0.003c-0.001-0.014-0.003-0.031-0.005-0.046	C10,22.465,9.996,22.479,9.995,22.494z"/><g><radialGradient id="Cw8wxro3Ijj2_XyizwRR4R" cx="24.094" cy="36.767" r="10.652" gradientTransform="matrix(.997 0 0 -1 .072 48)" gradientUnits="userSpaceOnUse"><stop offset="0" stop-color="#573111" stop-opacity=".286"/><stop offset=".999" stop-color="#573111" stop-opacity=".429"/></radialGradient><path fill="url(#Cw8wxro3Ijj2_XyizwRR4R)" d="M24.094,7.792c6.941,0,12.685,4.061,13.781,9.38c0.004-0.117,0.021-0.231,0.021-0.348 c0-6.369-6.179-11.531-13.802-11.531s-13.802,5.163-13.802,11.531c0,0.118,0.017,0.232,0.021,0.348 C11.409,11.852,17.153,7.792,24.094,7.792z"/><radialGradient id="Cw8wxro3Ijj2_XyizwRR4S" cx="24.094" cy="36.883" r="10.648" gradientTransform="matrix(.9974 0 0 -1 .062 48)" gradientUnits="userSpaceOnUse"><stop offset="0" stop-color="#542f10" stop-opacity=".388"/><stop offset=".999" stop-color="#542f10" stop-opacity=".51"/></radialGradient><path fill="url(#Cw8wxro3Ijj2_XyizwRR4S)" d="M24.094,7.676c6.941,0,12.685,4.061,13.781,9.38c0.004-0.117,0.021-0.231,0.021-0.348 c0-6.369-6.179-11.531-13.802-11.531S10.292,10.34,10.292,16.708c0,0.118,0.017,0.232,0.021,0.348 C11.409,11.736,17.153,7.676,24.094,7.676z"/><radialGradient id="Cw8wxro3Ijj2_XyizwRR4T" cx="24.093" cy="36.999" r="10.644" gradientTransform="matrix(.9979 0 0 -1 .052 48)" gradientUnits="userSpaceOnUse"><stop offset="0" stop-color="#512c0f" stop-opacity=".49"/><stop offset=".999" stop-color="#512c0f" stop-opacity=".592"/></radialGradient><path fill="url(#Cw8wxro3Ijj2_XyizwRR4T)" d="M24.094,7.56c6.941,0,12.685,4.061,13.781,9.38c0.004-0.117,0.021-0.231,0.021-0.348 c0-6.369-6.179-11.531-13.802-11.531s-13.802,5.163-13.802,11.531c0,0.118,0.017,0.232,0.021,0.348 C11.409,11.62,17.153,7.56,24.094,7.56z"/><radialGradient id="Cw8wxro3Ijj2_XyizwRR4U" cx="24.094" cy="37.117" r="10.64" gradientTransform="matrix(.9983 0 0 -1 .041 48)" gradientUnits="userSpaceOnUse"><stop offset="0" stop-color="#4e2a0e" stop-opacity=".592"/><stop offset=".999" stop-color="#4e2a0e" stop-opacity=".673"/></radialGradient><path fill="url(#Cw8wxro3Ijj2_XyizwRR4U)" d="M24.094,7.443c6.941,0,12.685,4.061,13.781,9.38c0.004-0.117,0.021-0.231,0.021-0.348 c0-6.369-6.179-11.531-13.802-11.531s-13.802,5.163-13.802,11.531c0,0.118,0.017,0.232,0.021,0.348 C11.409,11.504,17.153,7.443,24.094,7.443z"/><radialGradient id="Cw8wxro3Ijj2_XyizwRR4V" cx="24.094" cy="37.233" r="10.636" gradientTransform="matrix(.9987 0 0 -1 .031 48)" gradientUnits="userSpaceOnUse"><stop offset="0" stop-color="#4b280e" stop-opacity=".694"/><stop offset=".999" stop-color="#4b280e" stop-opacity=".755"/></radialGradient><path fill="url(#Cw8wxro3Ijj2_XyizwRR4V)" d="M24.094,7.327c6.941,0,12.685,4.061,13.781,9.38c0.004-0.117,0.021-0.231,0.021-0.348 c0-6.369-6.179-11.531-13.802-11.531S10.292,9.99,10.292,16.359c0,0.118,0.017,0.232,0.021,0.348 C11.409,11.388,17.153,7.327,24.094,7.327z"/><radialGradient id="Cw8wxro3Ijj2_XyizwRR4W" cx="24.095" cy="37.349" r="10.633" gradientTransform="matrix(.9991 0 0 -1 .02 48)" gradientUnits="userSpaceOnUse"><stop offset="0" stop-color="#48260d" stop-opacity=".796"/><stop offset=".999" stop-color="#48260d" stop-opacity=".837"/></radialGradient><path fill="url(#Cw8wxro3Ijj2_XyizwRR4W)" d="M24.094,7.211c6.941,0,12.685,4.061,13.781,9.38c0.004-0.117,0.021-0.231,0.021-0.348 c0-6.369-6.179-11.531-13.802-11.531S10.292,9.874,10.292,16.243c0,0.118,0.017,0.232,0.021,0.348 C11.409,11.272,17.153,7.211,24.094,7.211z"/><radialGradient id="Cw8wxro3Ijj2_XyizwRR4X" cx="24.093" cy="37.465" r="10.628" gradientTransform="matrix(.9996 0 0 -1 .01 48)" gradientUnits="userSpaceOnUse"><stop offset="0" stop-color="#45230c" stop-opacity=".898"/><stop offset=".999" stop-color="#45230c" stop-opacity=".918"/></radialGradient><path fill="url(#Cw8wxro3Ijj2_XyizwRR4X)" d="M24.094,7.095c6.941,0,12.685,4.061,13.781,9.38c0.004-0.117,0.021-0.231,0.021-0.348 c0-6.369-6.179-11.531-13.802-11.531s-13.802,5.162-13.802,11.53c0,0.118,0.017,0.232,0.021,0.348 C11.409,11.156,17.153,7.095,24.094,7.095z"/><path fill="#42210b" d="M24.094,6.979c6.941,0,12.685,4.061,13.781,9.38c0.004-0.117,0.021-0.231,0.021-0.348 c0-6.369-6.179-11.531-13.802-11.531S10.292,9.642,10.292,16.01c0,0.118,0.017,0.232,0.021,0.348 C11.409,11.04,17.153,6.979,24.094,6.979z"/></g><radialGradient id="Cw8wxro3Ijj2_XyizwRR4Y" cx="23.497" cy="42.441" r="10.779" gradientTransform="matrix(.9779 0 0 -1 .532 48)" gradientUnits="userSpaceOnUse"><stop offset=".002" stop-color="#fff"/><stop offset="1" stop-color="#d2d5d6"/></radialGradient><path fill="url(#Cw8wxro3Ijj2_XyizwRR4Y)" d="M24.094,6.563c6.962,0,12.723,4.061,13.823,9.38c0.004-0.117,0.029-0.231,0.021-0.348	C37.5,9.406,31.739,4.313,24.094,4.313S10.687,9.531,10.25,15.594c-0.008,0.117,0.017,0.232,0.021,0.348	C11.37,10.623,17.132,6.563,24.094,6.563z"/><g><path fill="#e6e6e6" d="M10.25,15.594c0,0.118,0.017,0.232,0.021,0.348c-0.004-0.121-0.019-0.24-0.02-0.362 C10.251,15.585,10.25,15.589,10.25,15.594z"/><path fill="#e6e6e6" d="M24.094,5.789c-6.962,0-12.723,4.395-13.823,10.153c1.099-5.319,6.861-9.38,13.823-9.38 s12.723,4.061,13.823,9.38C36.817,10.185,31.056,5.789,24.094,5.789z"/><path fill="#e6e6e6" d="M37.916,15.942c0.004-0.117,0.021-0.231,0.021-0.348c0-0.005-0.001-0.009-0.001-0.014 C37.935,15.702,37.92,15.821,37.916,15.942z"/></g><radialGradient id="Cw8wxro3Ijj2_XyizwRR4Z" cx="9.995" cy="30.761" r="17.41" gradientTransform="matrix(1 0 0 -1 0 48)" gradientUnits="userSpaceOnUse"><stop offset=".002" stop-color="#fff" stop-opacity=".5"/><stop offset="1" stop-color="#fff" stop-opacity=".5"/></radialGradient><path fill="url(#Cw8wxro3Ijj2_XyizwRR4Z)" d="M7.75,39.25c0,0-1.771-2.375-0.708-9.375c0.418-2.753,1.965-5.361,2.583-8.958	C10.594,15.284,8.958,10,12.167,6.75c-1.333,4.208,0.531,8.972-0.125,13.833c-0.359,2.659-0.722,4.348-0.854,5.542	c-0.375,3.375-0.687,7.438,0.375,10.313C9.75,37.75,7.75,39.25,7.75,39.25z"/><radialGradient id="Cw8wxro3Ijj2_XyizwRR4aa" cx="46.87" cy="30.761" r="17.41" gradientTransform="rotate(180 42.488 24)" gradientUnits="userSpaceOnUse"><stop offset=".002" stop-color="#fff" stop-opacity=".5"/><stop offset="1" stop-color="#fff" stop-opacity=".5"/></radialGradient><path fill="url(#Cw8wxro3Ijj2_XyizwRR4aa)" d="M40.35,39.25c0,0,1.771-2.375,0.708-9.375c-0.418-2.753-1.965-5.361-2.583-8.958	C37.506,15.284,39.142,10,35.934,6.75c1.333,4.208-0.531,8.972,0.125,13.833c0.359,2.659,0.722,4.348,0.854,5.542	c0.375,3.375,0.688,7.438-0.375,10.313C38.35,37.75,40.35,39.25,40.35,39.25z"/><radialGradient id="Cw8wxro3Ijj2_XyizwRR4ab" cx="39.431" cy="112.893" r="10.564" gradientTransform="scale(1 -1) rotate(-13.209 -627.177 169.952)" gradientUnits="userSpaceOnUse"><stop offset=".002" stop-color="#fff"/><stop offset="1" stop-color="#d2d5d6"/></radialGradient><path fill="url(#Cw8wxro3Ijj2_XyizwRR4ab)" d="M15.289,43.401l-2.971-7.233c-0.209-0.51-0.728-0.816-1.276-0.76	c-0.622,0.064-1.444,0.308-2.171,1.046c-0.154,0.156-0.345,0.274-0.553,0.343c-1.427,0.468-2.012,1.575-2.215,2.094	c-0.069,0.177-0.176,0.329-0.32,0.453c-0.212,0.183-0.541,0.516-0.845,1.033c-0.415,0.704-0.013,1.617,0.782,1.808	c2.89,0.696,6.668,1.71,8.14,2.935L15.289,43.401z"/><g><radialGradient id="Cw8wxro3Ijj2_XyizwRR4ac" cx="51.506" cy="10.05" r="11.176" gradientTransform="matrix(1 0 0 -1 -42.958 48)" gradientUnits="userSpaceOnUse"><stop offset=".002" stop-color="#fff"/><stop offset="1" stop-color="#d2d5d6"/></radialGradient><path fill="url(#Cw8wxro3Ijj2_XyizwRR4ac)" d="M14.697,43.177c-1.344-2.875-4.394-6.81-4.988-7.341c-0.553,0.224-1,0.768-1,0.768 s-0.835,0.349-1.247,0.585c2.328,1.568,6.659,6.553,6.659,6.553L14.697,43.177z"/><radialGradient id="Cw8wxro3Ijj2_XyizwRR4ad" cx="45.474" cy="10.01" r="10.933" gradientTransform="matrix(1 0 0 -1 -36.821 48)" gradientUnits="userSpaceOnUse"><stop offset=".002" stop-color="#fbfbfb"/><stop offset="1" stop-color="#d5d7d8"/></radialGradient><path fill="url(#Cw8wxro3Ijj2_XyizwRR4ad)" d="M14.641,43.18c-1.344-2.875-4.448-6.738-5.042-7.269c-0.492,0.21-0.891,0.693-0.891,0.693 s-0.741,0.311-1.114,0.521c2.328,1.568,6.543,6.558,6.543,6.558L14.641,43.18z"/><radialGradient id="Cw8wxro3Ijj2_XyizwRR4ae" cx="39.442" cy="9.97" r="10.69" gradientTransform="matrix(1 0 0 -1 -30.684 48)" gradientUnits="userSpaceOnUse"><stop offset=".002" stop-color="#f8f8f8"/><stop offset="1" stop-color="#d8dadb"/></radialGradient><path fill="url(#Cw8wxro3Ijj2_XyizwRR4ae)" d="M14.586,43.184c-1.344-2.875-4.502-6.665-5.096-7.197c-0.432,0.197-0.782,0.617-0.782,0.617 s-0.647,0.272-0.981,0.457c2.328,1.568,6.427,6.563,6.427,6.563L14.586,43.184z"/><radialGradient id="Cw8wxro3Ijj2_XyizwRR4af" cx="33.409" cy="9.931" r="10.447" gradientTransform="matrix(1 0 0 -1 -24.548 48)" gradientUnits="userSpaceOnUse"><stop offset=".002" stop-color="#f4f4f4"/><stop offset="1" stop-color="#dbdcdd"/></radialGradient><path fill="url(#Cw8wxro3Ijj2_XyizwRR4af)" d="M14.531,43.187c-1.344-2.875-4.556-6.593-5.15-7.124c-0.371,0.183-0.673,0.541-0.673,0.541 s-0.553,0.233-0.848,0.393c2.328,1.568,6.311,6.568,6.311,6.568L14.531,43.187z"/><radialGradient id="Cw8wxro3Ijj2_XyizwRR4ag" cx="27.377" cy="9.891" r="10.204" gradientTransform="matrix(1 0 0 -1 -18.41 48)" gradientUnits="userSpaceOnUse"><stop offset=".002" stop-color="#f1f1f1"/><stop offset="1" stop-color="#dddfdf"/></radialGradient><path fill="url(#Cw8wxro3Ijj2_XyizwRR4ag)" d="M14.475,43.19c-1.344-2.875-4.61-6.521-5.203-7.052c-0.311,0.17-0.563,0.466-0.563,0.466 s-0.458,0.195-0.716,0.329c2.328,1.568,6.195,6.573,6.195,6.573L14.475,43.19z"/><radialGradient id="Cw8wxro3Ijj2_XyizwRR4ah" cx="21.344" cy="9.851" r="9.962" gradientTransform="matrix(1 0 0 -1 -12.274 48)" gradientUnits="userSpaceOnUse"><stop offset=".002" stop-color="#ededed"/><stop offset="1" stop-color="#e0e1e1"/></radialGradient><path fill="url(#Cw8wxro3Ijj2_XyizwRR4ah)" d="M14.42,43.194c-1.344-2.875-4.663-6.449-5.257-6.98c-0.25,0.156-0.454,0.39-0.454,0.39 s-0.364,0.156-0.583,0.265c2.328,1.568,6.079,6.578,6.079,6.578L14.42,43.194z"/><radialGradient id="Cw8wxro3Ijj2_XyizwRR4ai" cx="15.312" cy="9.812" r="9.72" gradientTransform="matrix(1 0 0 -1 -6.137 48)" gradientUnits="userSpaceOnUse"><stop offset=".002" stop-color="#eaeaea"/><stop offset="1" stop-color="#e3e4e4"/></radialGradient><path fill="url(#Cw8wxro3Ijj2_XyizwRR4ai)" d="M14.364,43.197c-1.344-2.875-4.717-6.376-5.311-6.908c-0.19,0.143-0.345,0.315-0.345,0.315 s-0.27,0.117-0.45,0.201c2.328,1.568,5.963,6.583,5.963,6.583L14.364,43.197z"/><path fill="#e6e6e6" d="M14.309,43.2c-1.344-2.875-4.771-6.304-5.365-6.835c-0.129,0.129-0.236,0.239-0.236,0.239 s-0.176,0.079-0.317,0.137c2.328,1.568,5.847,6.588,5.847,6.588L14.309,43.2z"/></g><g><radialGradient id="Cw8wxro3Ijj2_XyizwRR4aj" cx="22.263" cy="-149.64" r="11.392" gradientTransform="scale(1 -1) rotate(20.769 -289.845 -132.904)" gradientUnits="userSpaceOnUse"><stop offset=".002" stop-color="#fff"/><stop offset="1" stop-color="#d2d5d6"/></radialGradient><path fill="url(#Cw8wxro3Ijj2_XyizwRR4aj)" d="M13.951,43.401c-2.3-2.235-6.696-4.976-7.448-5.266c-0.282,0.406-0.488,0.947-0.488,0.947 s-0.706,0.706-1.047,1.253c2.761,0.648,8.641,3.806,8.641,3.806L13.951,43.401z"/><radialGradient id="Cw8wxro3Ijj2_XyizwRR4ak" cx="27.599" cy="-127.256" r="11.068" gradientTransform="scale(.992 -.992) rotate(17.84 -265.618 -144.364)" gradientUnits="userSpaceOnUse"><stop offset=".002" stop-color="#fbfbfb"/><stop offset="1" stop-color="#d5d7d8"/></radialGradient><path fill="url(#Cw8wxro3Ijj2_XyizwRR4ak)" d="M13.896,43.426c-2.3-2.235-6.703-4.889-7.455-5.178c-0.253,0.372-0.437,0.845-0.437,0.845 s-0.635,0.636-0.944,1.12c2.761,0.648,8.539,3.869,8.539,3.869L13.896,43.426z"/><radialGradient id="Cw8wxro3Ijj2_XyizwRR4al" cx="30.632" cy="-104.171" r="10.678" gradientTransform="matrix(.9536 -.2533 -.2533 -.9536 -47.115 -53.529)" gradientUnits="userSpaceOnUse"><stop offset=".002" stop-color="#f8f8f8"/><stop offset="1" stop-color="#d8dadb"/></radialGradient><path fill="url(#Cw8wxro3Ijj2_XyizwRR4al)" d="M13.842,43.451c-2.3-2.235-6.71-4.801-7.461-5.09c-0.223,0.338-0.386,0.742-0.386,0.742 s-0.565,0.566-0.84,0.987c2.761,0.648,8.437,3.932,8.437,3.932L13.842,43.451z"/><radialGradient id="Cw8wxro3Ijj2_XyizwRR4am" cx="31.237" cy="-80.74" r="10.227" gradientTransform="scale(.984 -.984) rotate(11.882 -181.377 -167.179)" gradientUnits="userSpaceOnUse"><stop offset=".002" stop-color="#f4f4f4"/><stop offset="1" stop-color="#dbdcdd"/></radialGradient><path fill="url(#Cw8wxro3Ijj2_XyizwRR4am)" d="M13.787,43.476c-2.3-2.235-6.717-4.713-7.468-5.002c-0.194,0.304-0.334,0.639-0.334,0.639 S5.49,39.61,5.247,39.968c2.761,0.648,8.335,3.994,8.335,3.994L13.787,43.476z"/><radialGradient id="Cw8wxro3Ijj2_XyizwRR4an" cx="29.363" cy="-57.344" r="9.724" gradientTransform="matrix(.9721 -.152 -.152 -.9721 -28.268 -12.92)" gradientUnits="userSpaceOnUse"><stop offset=".002" stop-color="#f1f1f1"/><stop offset="1" stop-color="#dddfdf"/></radialGradient><path fill="url(#Cw8wxro3Ijj2_XyizwRR4an)" d="M13.733,43.501c-2.3-2.235-6.724-4.625-7.475-4.914c-0.164,0.27-0.283,0.537-0.283,0.537 s-0.423,0.427-0.634,0.722c2.761,0.648,8.234,4.057,8.234,4.057L13.733,43.501z"/><radialGradient id="Cw8wxro3Ijj2_XyizwRR4ao" cx="25.042" cy="-34.364" r="9.182" gradientTransform="matrix(.9814 -.1013 -.1013 -.9814 -18.847 7.386)" gradientUnits="userSpaceOnUse"><stop offset=".002" stop-color="#ededed"/><stop offset="1" stop-color="#e0e1e1"/></radialGradient><path fill="url(#Cw8wxro3Ijj2_XyizwRR4ao)" d="M13.678,43.525c-2.3-2.235-6.731-4.537-7.482-4.827c-0.135,0.236-0.232,0.434-0.232,0.434 s-0.353,0.357-0.53,0.589c2.761,0.648,8.132,4.12,8.132,4.12L13.678,43.525z"/><radialGradient id="Cw8wxro3Ijj2_XyizwRR4ap" cx="18.382" cy="-12.166" r="8.614" gradientTransform="scale(.992 -.992) rotate(2.93 541.111 -199.66)" gradientUnits="userSpaceOnUse"><stop offset=".002" stop-color="#eaeaea"/><stop offset="1" stop-color="#e3e4e4"/></radialGradient><path fill="url(#Cw8wxro3Ijj2_XyizwRR4ap)" d="M13.624,43.55c-2.3-2.235-6.737-4.45-7.489-4.739c-0.105,0.203-0.181,0.332-0.181,0.332 S5.672,39.43,5.527,39.6c2.761,0.648,8.03,4.183,8.03,4.183L13.624,43.55z"/><path fill="#e6e6e6" d="M13.569,43.575c-2.3-2.235-6.744-4.362-7.496-4.651c-0.076,0.169-0.129,0.229-0.129,0.229 S5.733,39.37,5.62,39.477c2.761,0.648,7.928,4.246,7.928,4.246L13.569,43.575z"/></g><radialGradient id="Cw8wxro3Ijj2_XyizwRR4aq" cx="70.767" cy="120.248" r="10.564" gradientTransform="scale(-1) rotate(-13.209 -667.334 516.769)" gradientUnits="userSpaceOnUse"><stop offset=".002" stop-color="#fff"/><stop offset="1" stop-color="#d2d5d6"/></radialGradient><path fill="url(#Cw8wxro3Ijj2_XyizwRR4aq)" d="M32.834,43.401l2.971-7.233c0.209-0.51,0.728-0.816,1.276-0.76	c0.622,0.064,1.444,0.308,2.171,1.046c0.154,0.156,0.345,0.274,0.553,0.343c1.427,0.468,2.012,1.575,2.215,2.094	c0.069,0.177,0.176,0.329,0.32,0.453c0.212,0.183,0.541,0.516,0.845,1.033c0.415,0.704,0.013,1.617-0.782,1.808	c-2.89,0.696-6.668,1.71-8.14,2.935L32.834,43.401z"/><g><radialGradient id="Cw8wxro3Ijj2_XyizwRR4ar" cx="83.694" cy="10.05" r="11.176" gradientTransform="rotate(180 61.634 24)" gradientUnits="userSpaceOnUse"><stop offset=".002" stop-color="#fff"/><stop offset="1" stop-color="#d2d5d6"/></radialGradient><path fill="url(#Cw8wxro3Ijj2_XyizwRR4ar)" d="M33.425,43.177c1.344-2.875,4.394-6.81,4.988-7.341c0.553,0.224,1,0.768,1,0.768 s0.835,0.349,1.247,0.585c-2.328,1.568-6.659,6.553-6.659,6.553L33.425,43.177z"/><radialGradient id="Cw8wxro3Ijj2_XyizwRR4as" cx="77.662" cy="10.01" r="10.933" gradientTransform="rotate(180 58.566 24)" gradientUnits="userSpaceOnUse"><stop offset=".002" stop-color="#fbfbfb"/><stop offset="1" stop-color="#d5d7d8"/></radialGradient><path fill="url(#Cw8wxro3Ijj2_XyizwRR4as)" d="M33.481,43.18c1.344-2.875,4.448-6.738,5.042-7.269c0.492,0.21,0.891,0.693,0.891,0.693 s0.741,0.311,1.114,0.521c-2.328,1.568-6.543,6.558-6.543,6.558L33.481,43.18z"/><radialGradient id="Cw8wxro3Ijj2_XyizwRR4at" cx="71.629" cy="9.97" r="10.69" gradientTransform="rotate(180 55.497 24)" gradientUnits="userSpaceOnUse"><stop offset=".002" stop-color="#f8f8f8"/><stop offset="1" stop-color="#d8dadb"/></radialGradient><path fill="url(#Cw8wxro3Ijj2_XyizwRR4at)" d="M33.536,43.184c1.344-2.875,4.502-6.665,5.096-7.197c0.432,0.197,0.782,0.617,0.782,0.617 s0.647,0.272,0.981,0.457c-2.328,1.568-6.427,6.563-6.427,6.563L33.536,43.184z"/><radialGradient id="Cw8wxro3Ijj2_XyizwRR4au" cx="65.597" cy="9.931" r="10.447" gradientTransform="rotate(180 52.429 24)" gradientUnits="userSpaceOnUse"><stop offset=".002" stop-color="#f4f4f4"/><stop offset="1" stop-color="#dbdcdd"/></radialGradient><path fill="url(#Cw8wxro3Ijj2_XyizwRR4au)" d="M33.592,43.187c1.344-2.875,4.556-6.593,5.15-7.124c0.371,0.183,0.673,0.541,0.673,0.541 s0.553,0.233,0.848,0.393c-2.328,1.568-6.311,6.568-6.311,6.568L33.592,43.187z"/><radialGradient id="Cw8wxro3Ijj2_XyizwRR4av" cx="59.564" cy="9.891" r="10.204" gradientTransform="rotate(180 49.36 24)" gradientUnits="userSpaceOnUse"><stop offset=".002" stop-color="#f1f1f1"/><stop offset="1" stop-color="#dddfdf"/></radialGradient><path fill="url(#Cw8wxro3Ijj2_XyizwRR4av)" d="M33.647,43.19c1.344-2.875,4.61-6.521,5.203-7.052c0.311,0.17,0.563,0.466,0.563,0.466 s0.458,0.195,0.716,0.329c-2.328,1.568-6.195,6.573-6.195,6.573L33.647,43.19z"/><radialGradient id="Cw8wxro3Ijj2_XyizwRR4aw" cx="53.532" cy="9.851" r="9.962" gradientTransform="rotate(180 46.292 24)" gradientUnits="userSpaceOnUse"><stop offset=".002" stop-color="#ededed"/><stop offset="1" stop-color="#e0e1e1"/></radialGradient><path fill="url(#Cw8wxro3Ijj2_XyizwRR4aw)" d="M33.703,43.194c1.344-2.875,4.663-6.449,5.257-6.98c0.25,0.156,0.454,0.39,0.454,0.39 s0.364,0.156,0.583,0.265c-2.328,1.568-6.079,6.578-6.079,6.578L33.703,43.194z"/><radialGradient id="Cw8wxro3Ijj2_XyizwRR4ax" cx="47.499" cy="9.812" r="9.72" gradientTransform="rotate(180 43.223 24)" gradientUnits="userSpaceOnUse"><stop offset=".002" stop-color="#eaeaea"/><stop offset="1" stop-color="#e3e4e4"/></radialGradient><path fill="url(#Cw8wxro3Ijj2_XyizwRR4ax)" d="M33.758,43.197c1.344-2.875,4.717-6.376,5.311-6.908c0.19,0.143,0.345,0.315,0.345,0.315 s0.27,0.117,0.45,0.201c-2.328,1.568-5.963,6.583-5.963,6.583L33.758,43.197z"/><path fill="#e6e6e6" d="M33.814,43.2c1.344-2.875,4.771-6.304,5.365-6.835c0.129,0.129,0.236,0.239,0.236,0.239 s0.176,0.079,0.317,0.137c-2.328,1.568-5.847,6.588-5.847,6.588L33.814,43.2z"/></g><g><radialGradient id="Cw8wxro3Ijj2_XyizwRR4ay" cx="52.359" cy="-161.054" r="11.392" gradientTransform="rotate(-159.228 64.51 -60.474)" gradientUnits="userSpaceOnUse"><stop offset=".002" stop-color="#fff"/><stop offset="1" stop-color="#d2d5d6"/></radialGradient><path fill="url(#Cw8wxro3Ijj2_XyizwRR4ay)" d="M34.172,43.401c2.3-2.235,6.696-4.976,7.448-5.266c0.282,0.406,0.488,0.947,0.488,0.947 s0.706,0.706,1.047,1.253c-2.761,0.648-8.641,3.806-8.641,3.806L34.172,43.401z"/><radialGradient id="Cw8wxro3Ijj2_XyizwRR4az" cx="58.485" cy="-137.197" r="11.068" gradientTransform="rotate(-162.16 62.632 -47.657) scale(.992)" gradientUnits="userSpaceOnUse"><stop offset=".002" stop-color="#fbfbfb"/><stop offset="1" stop-color="#d5d7d8"/></radialGradient><path fill="url(#Cw8wxro3Ijj2_XyizwRR4az)" d="M34.226,43.426c2.3-2.235,6.703-4.889,7.455-5.178c0.253,0.372,0.437,0.845,0.437,0.845 s0.635,0.636,0.944,1.12c-2.761,0.648-8.539,3.869-8.539,3.869L34.226,43.426z"/><radialGradient id="Cw8wxro3Ijj2_XyizwRR4aA" cx="62.162" cy="-112.546" r="10.678" gradientTransform="matrix(-.9536 -.2533 .2533 -.9536 127.425 -53.529)" gradientUnits="userSpaceOnUse"><stop offset=".002" stop-color="#f8f8f8"/><stop offset="1" stop-color="#d8dadb"/></radialGradient><path fill="url(#Cw8wxro3Ijj2_XyizwRR4aA)" d="M34.281,43.451c2.3-2.235,6.71-4.801,7.461-5.09c0.223,0.338,0.386,0.742,0.386,0.742 s0.565,0.566,0.84,0.987c-2.761,0.648-8.437,3.932-8.437,3.932L34.281,43.451z"/><radialGradient id="Cw8wxro3Ijj2_XyizwRR4aB" cx="63.248" cy="-87.477" r="10.227" gradientTransform="rotate(-168.113 57.274 -22.751) scale(.984)" gradientUnits="userSpaceOnUse"><stop offset=".002" stop-color="#f4f4f4"/><stop offset="1" stop-color="#dbdcdd"/></radialGradient><path fill="url(#Cw8wxro3Ijj2_XyizwRR4aB)" d="M34.335,43.476c2.3-2.235,6.717-4.713,7.468-5.002c0.194,0.304,0.334,0.639,0.334,0.639 s0.494,0.497,0.737,0.855c-2.761,0.648-8.335,3.994-8.335,3.994L34.335,43.476z"/><radialGradient id="Cw8wxro3Ijj2_XyizwRR4aC" cx="61.683" cy="-62.396" r="9.724" gradientTransform="rotate(-171.117 53.787 -10.679) scale(.9839)" gradientUnits="userSpaceOnUse"><stop offset=".002" stop-color="#f1f1f1"/><stop offset="1" stop-color="#dddfdf"/></radialGradient><path fill="url(#Cw8wxro3Ijj2_XyizwRR4aC)" d="M34.39,43.501c2.3-2.235,6.724-4.625,7.475-4.914c0.164,0.27,0.283,0.537,0.283,0.537 s0.423,0.427,0.634,0.722c-2.761,0.648-8.234,4.057-8.234,4.057L34.39,43.501z"/><radialGradient id="Cw8wxro3Ijj2_XyizwRR4aD" cx="57.492" cy="-37.714" r="9.182" gradientTransform="rotate(-174.115 49.768 1.141) scale(.9866)" gradientUnits="userSpaceOnUse"><stop offset=".002" stop-color="#ededed"/><stop offset="1" stop-color="#e0e1e1"/></radialGradient><path fill="url(#Cw8wxro3Ijj2_XyizwRR4aD)" d="M34.444,43.525c2.3-2.235,6.731-4.537,7.482-4.827c0.135,0.236,0.232,0.434,0.232,0.434 s0.353,0.357,0.53,0.589c-2.761,0.648-8.132,4.12-8.132,4.12L34.444,43.525z"/><radialGradient id="Cw8wxro3Ijj2_XyizwRR4aE" cx="50.787" cy="-13.823" r="8.614" gradientTransform="rotate(-177.066 45.22 12.7) scale(.992)" gradientUnits="userSpaceOnUse"><stop offset=".002" stop-color="#eaeaea"/><stop offset="1" stop-color="#e3e4e4"/></radialGradient><path fill="url(#Cw8wxro3Ijj2_XyizwRR4aE)" d="M34.499,43.55c2.3-2.235,6.737-4.45,7.489-4.739c0.105,0.203,0.181,0.332,0.181,0.332 s0.282,0.287,0.427,0.456c-2.761,0.648-8.03,4.183-8.03,4.183L34.499,43.55z"/><path fill="#e6e6e6" d="M34.553,43.575c2.3-2.235,6.744-4.362,7.496-4.651c0.076,0.169,0.129,0.229,0.129,0.229 s0.211,0.217,0.324,0.324c-2.761,0.648-7.928,4.246-7.928,4.246L34.553,43.575z"/></g><radialGradient id="Cw8wxro3Ijj2_XyizwRR4aF" cx="23.75" cy="2.719" r="13.236" gradientTransform="matrix(1 0 0 -1 0 48)" gradientUnits="userSpaceOnUse"><stop offset=".002" stop-color="#fff"/><stop offset="1" stop-color="#d2d5d6"/></radialGradient><path fill="url(#Cw8wxro3Ijj2_XyizwRR4aF)" d="M32.781,41.406c-5.696,1.315-12.437,0.959-18.313-0.188c-1.281-0.25-1.75,0.969-2.25,2.875	L12,46h24l-0.188-1.75C35.281,42.119,34.715,40.96,32.781,41.406z"/><g><radialGradient id="Cw8wxro3Ijj2_XyizwRR4aG" cx="-15.931" cy="20.096" r="1.709" gradientTransform="matrix(1.37 0 0 -1.3195 45.883 51.12)" gradientUnits="userSpaceOnUse"><stop offset=".245" stop-color="#cc9000"/><stop offset=".415" stop-color="#d09504" stop-opacity=".822"/><stop offset=".627" stop-color="#dca50f" stop-opacity=".599"/><stop offset=".851" stop-color="#eebd20" stop-opacity=".363"/><stop offset="1" stop-color="#fed12e" stop-opacity="0"/></radialGradient><path fill="url(#Cw8wxro3Ijj2_XyizwRR4aG)" d="M24.04,25.283c-0.788,0-1.429-0.2-1.825-0.417c-0.291-0.16-0.586-0.086-0.393,0.415 c0.261,0.679,0.858,1.48,2.218,1.48c1.337,0,1.936-0.773,2.204-1.445c0.206-0.516-0.091-0.568-0.344-0.449 C25.412,25.095,24.808,25.283,24.04,25.283z"/><radialGradient id="Cw8wxro3Ijj2_XyizwRR4aH" cx="-61.093" cy="72.646" r="1.76" gradientTransform="matrix(1.4827 .036 .0172 -.7101 113.435 78.208)" gradientUnits="userSpaceOnUse"><stop offset=".479" stop-color="#fed53f"/><stop offset=".926" stop-color="#fed53f" stop-opacity=".141"/><stop offset="1" stop-color="#fed53f" stop-opacity="0"/></radialGradient><path fill="url(#Cw8wxro3Ijj2_XyizwRR4aH)" d="M26.874,24.49c-0.018,0.757-1.286,1.339-2.831,1.302c-1.545-0.038-2.782-0.681-2.764-1.438 s1.286-1.339,2.831-1.302C25.655,23.09,26.892,23.734,26.874,24.49z"/><radialGradient id="Cw8wxro3Ijj2_XyizwRR4aI" cx="24.117" cy="-149.637" r="1.411" gradientTransform="matrix(1 0 0 -.6596 0 -74.326)" gradientUnits="userSpaceOnUse"><stop offset=".004" stop-color="#fff4c9"/><stop offset="1" stop-color="#fff4c9" stop-opacity="0"/></radialGradient><ellipse cx="24.117" cy="24.374" fill="url(#Cw8wxro3Ijj2_XyizwRR4aI)" rx="1.411" ry=".931"/></g></svg>