<svg xmlns="http://www.w3.org/2000/svg" viewBox="0 0 48 48"><radialGradient id="Ue3z4~wz_qn53LAaRDyVza" cx="-93.585" cy="2.867" r="3.022" gradientTransform="matrix(.9938 .1701 -.3529 1.6684 134.878 37.424)" gradientUnits="userSpaceOnUse"><stop offset="0" stop-color="#f9e5c8"/><stop offset=".354" stop-color="#f8daba"/><stop offset=".5" stop-color="#f5d5b5"/><stop offset=".682" stop-color="#eec7a5"/><stop offset=".884" stop-color="#e1b08c"/><stop offset=".999" stop-color="#d8a07a"/></radialGradient><path fill="url(#Ue3z4~wz_qn53LAaRDyVza)" d="M40,31c-0.6,0-0.932-0.234-0.846-0.753C39.327,29.207,40.01,22,40.01,22 c1.716,0,3.99,0,3.99,3C44,28.34,42.495,31,40,31z"/><radialGradient id="Ue3z4~wz_qn53LAaRDyVzb" cx="40.858" cy="2.867" r="3.022" gradientTransform="matrix(-.9938 .1701 .3529 1.6684 46.725 14.55)" gradientUnits="userSpaceOnUse"><stop offset="0" stop-color="#f9e5c8"/><stop offset=".354" stop-color="#f8daba"/><stop offset=".5" stop-color="#f5d5b5"/><stop offset=".682" stop-color="#eec7a5"/><stop offset=".884" stop-color="#e1b08c"/><stop offset=".999" stop-color="#d8a07a"/></radialGradient><path fill="url(#Ue3z4~wz_qn53LAaRDyVzb)" d="M8,31c0.6,0,0.932-0.234,0.846-0.753C8.673,29.207,7.99,22,7.99,22C6.274,22,4,22,4,25 C4,28.34,5.505,31,8,31z"/><radialGradient id="Ue3z4~wz_qn53LAaRDyVzc" cx="24" cy="25" r="18" fx="23.905" fy="17.289" gradientTransform="matrix(-1 0 0 1 48 0)" gradientUnits="userSpaceOnUse"><stop offset="0" stop-color="#f9e5c8"/><stop offset=".629" stop-color="#f8daba"/><stop offset=".713" stop-color="#f5d5b5"/><stop offset=".818" stop-color="#eec7a5"/><stop offset=".933" stop-color="#e1b08c"/><stop offset=".999" stop-color="#d8a07a"/></radialGradient><path fill="url(#Ue3z4~wz_qn53LAaRDyVzc)" d="M6,25c0,3.372,0.927,6.528,2.541,9.226C11.684,39.481,17.431,43,24,43 c6.569,0,12.316-3.519,15.459-8.774C41.073,31.528,42,28.372,42,25c0-5-1.113-8.128-3.021-10.986C35.751,9.182,30.247,7,24,7 c-6.213,0-11.691,2.148-14.926,6.936C7.133,16.809,6,20,6,25z"/><linearGradient id="Ue3z4~wz_qn53LAaRDyVzd" x1="27.517" x2="34.383" y1="-50.6" y2="-50.6" gradientTransform="matrix(.999 .0106 .0106 .8863 -5.072 54.486)" gradientUnits="userSpaceOnUse"><stop offset="0" stop-opacity=".2"/><stop offset="1" stop-opacity="0"/></linearGradient><path fill="url(#Ue3z4~wz_qn53LAaRDyVzd)" d="M21.456,6.868c1.426-0.871,4.65-2.115,6.357,0.288c0.924,1.391,0.565,2.766-0.61,3.517 c-1.619,1.035-1.756,1.945-1.454,3.085c0.075,0.285-0.337,0.502-0.561,0.367c-1.388-0.838-2.355-2.611-1.249-4.126 C24.774,8.856,24.982,6.545,21.456,6.868z"/><radialGradient id="Ue3z4~wz_qn53LAaRDyVze" cx="21.283" cy="24.83" r="6.973" fx="14.454" fy="26.239" gradientTransform="matrix(.7312 -.7201 .4733 .5258 -4.63 12.034)" gradientUnits="userSpaceOnUse"><stop offset="0" stop-color="#5c5050"/><stop offset=".998" stop-color="#211e1e"/></radialGradient><path fill="url(#Ue3z4~wz_qn53LAaRDyVze)" d="M19.771,7.354c0.247-2.451,6.186-4.692,7.856-1.884c0.902,1.626,0.086,3.829-1.372,4.739 c-1.507,0.942-1.878,1.689-1.168,3.298c0.134,0.305-0.346,0.598-0.568,0.442c-1.376-0.966-3.194-2.519-2.061-4.325 C23.314,8.262,23.308,6.914,19.771,7.354z"/><linearGradient id="Ue3z4~wz_qn53LAaRDyVzf" x1="24.393" x2="21.916" y1="7.271" y2="8.423" gradientUnits="userSpaceOnUse"><stop offset="0" stop-color="#615858"/><stop offset="1" stop-color="#615858" stop-opacity="0"/></linearGradient><path fill="url(#Ue3z4~wz_qn53LAaRDyVzf)" d="M21.5,6.875c1.759-0.122,3.041,0.078,1.947,2.219c-0.333,0.497-0.06,0.503,0.235,0.129 C25.518,6.906,24.07,5.886,21.5,6.875z"/><path fill="#171515" d="M27.627,5.47C27.4,5.089,27.09,4.808,26.731,4.601c1.268,1.407,0.405,4.352-1.231,5.337 c-1.416,0.852-1.068,2.139-0.42,3.58c-0.273-0.591-0.382-1.059-0.332-1.463c0.05-0.719,0.544-1.243,1.507-1.845 C27.712,9.298,28.529,7.096,27.627,5.47z"/><path fill="#171515" d="M15.419,18.708c0.256-0.437,0.597-0.701,0.962-0.883c0.366-0.193,0.76-0.265,1.15-0.294	c0.391,0.002,0.778,0.044,1.148,0.197c0.37,0.143,0.727,0.357,1.05,0.743l0.025,0.03c0.015,0.018,0.013,0.045-0.005,0.059	c-0.009,0.007-0.02,0.01-0.03,0.01c-0.717-0.056-1.436-0.085-2.15-0.042c-0.714,0.009-1.427,0.1-2.123,0.275	c-0.023,0.006-0.045-0.008-0.051-0.031c-0.003-0.011-0.001-0.022,0.004-0.031L15.419,18.708z"/><path fill="#171515" d="M32.581,18.708c-0.256-0.437-0.597-0.701-0.962-0.883c-0.366-0.193-0.76-0.265-1.15-0.294	c-0.391,0.002-0.778,0.044-1.148,0.197c-0.37,0.143-0.727,0.357-1.05,0.743l-0.025,0.03c-0.015,0.018-0.013,0.045,0.005,0.059	c0.009,0.007,0.02,0.01,0.03,0.01c0.717-0.056,1.436-0.085,2.15-0.042c0.714,0.009,1.427,0.1,2.123,0.275	c0.023,0.006,0.045-0.008,0.051-0.031c0.003-0.011,0.001-0.022-0.004-0.031L32.581,18.708z"/><radialGradient id="Ue3z4~wz_qn53LAaRDyVzg" cx="-21.275" cy="-5.582" r="3.789" gradientTransform="matrix(1.0927 0 0 1.0817 47.307 43.004)" gradientUnits="userSpaceOnUse"><stop offset=".57" stop-opacity=".2"/><stop offset="1" stop-opacity="0"/></radialGradient><path fill="url(#Ue3z4~wz_qn53LAaRDyVzg)" d="M24,39c-3.673,0-4.299-1.947-4.299-1.947S20.314,41,24,41s4.299-3.947,4.299-3.947 S27.673,39,24,39z"/><radialGradient id="Ue3z4~wz_qn53LAaRDyVzh" cx="-38.763" cy="-339.256" r="5.86" fx="-38.768" fy="-339.037" gradientTransform="matrix(.7909 0 0 .4766 54.657 197.876)" gradientUnits="userSpaceOnUse"><stop offset=".78" stop-color="#fff" stop-opacity=".4"/><stop offset="1" stop-color="#fff" stop-opacity="0"/></radialGradient><path fill="url(#Ue3z4~wz_qn53LAaRDyVzh)" d="M28.562,36c0,0,0.058,3-4.564,3s-4.564-3-4.564-3s1.014,0.914,4.564,0.914 S28.562,36,28.562,36z"/><radialGradient id="Ue3z4~wz_qn53LAaRDyVzi" cx="-44.742" cy="-134.232" r="4.691" gradientTransform="matrix(.8333 0 0 .6703 61.342 125.907)" gradientUnits="userSpaceOnUse"><stop offset="0" stop-color="#1c1911"/><stop offset=".999" stop-color="#171714"/></radialGradient><path fill="url(#Ue3z4~wz_qn53LAaRDyVzi)" d="M19.75,36c-0.249,0-0.394,0.209-0.271,0.377C20.39,37.623,22.477,38,23.999,38 c1.654,0,3.609-0.377,4.519-1.623C28.641,36.209,28.496,36,28.247,36C25.031,36,23.031,36,19.75,36z"/><path fill="#805b2a" d="M12.005,25.158c-0.029,0.519,0.069,0.475,0.246,0.734c0,0,2.001,3.116,8.038,0.983	c0.436-0.176,0.751-0.509,0.706-0.911C20.221,19.06,13,19.899,12.005,25.158z"/><path fill="#fff" d="M12.096,25.484c-0.151,0.309-0.103,0.557,0,0.806c0.43,1.087,3.887,4.957,8.551,0.894	c0.348-0.287,0.403-0.54,0.317-0.898C20.878,25.928,19.669,22,16.503,22C13.368,22,12.358,25.063,12.096,25.484z"/><linearGradient id="Ue3z4~wz_qn53LAaRDyVzj" x1="14" x2="19" y1="25.5" y2="25.5" gradientUnits="userSpaceOnUse"><stop offset="0" stop-color="#c69c6d"/><stop offset="1" stop-color="#754c24"/></linearGradient><circle cx="16.5" cy="25.5" r="2.5" fill="url(#Ue3z4~wz_qn53LAaRDyVzj)"/><radialGradient id="Ue3z4~wz_qn53LAaRDyVzk" cx="16.5" cy="25.5" r="1.266" gradientUnits="userSpaceOnUse"><stop offset="0" stop-color="#1c1911"/><stop offset=".999" stop-color="#171714"/></radialGradient><circle cx="16.5" cy="25.5" r="1.266" fill="url(#Ue3z4~wz_qn53LAaRDyVzk)"/><path fill="#805b2a" d="M35.995,25.158c0.029,0.519-0.069,0.475-0.246,0.734c0,0-2.001,3.116-8.038,0.983	c-0.436-0.176-0.751-0.509-0.706-0.911C27.779,19.06,35,19.899,35.995,25.158z"/><path fill="#fff" d="M35.904,25.484c0.151,0.309,0.103,0.557,0,0.806c-0.43,1.087-3.887,4.957-8.551,0.894	c-0.348-0.287-0.403-0.54-0.317-0.898C27.122,25.928,28.331,22,31.497,22C34.632,22,35.642,25.063,35.904,25.484z"/><linearGradient id="Ue3z4~wz_qn53LAaRDyVzl" x1="15" x2="20" y1="25.5" y2="25.5" gradientTransform="translate(14)" gradientUnits="userSpaceOnUse"><stop offset="0" stop-color="#c69c6d"/><stop offset="1" stop-color="#754c24"/></linearGradient><circle cx="31.5" cy="25.5" r="2.5" fill="url(#Ue3z4~wz_qn53LAaRDyVzl)"/><radialGradient id="Ue3z4~wz_qn53LAaRDyVzm" cx="-120.5" cy="25.5" r="1.266" gradientTransform="matrix(-1 0 0 1 -89 0)" gradientUnits="userSpaceOnUse"><stop offset="0" stop-color="#1c1911"/><stop offset=".999" stop-color="#171714"/></radialGradient><circle cx="31.5" cy="25.5" r="1.266" fill="url(#Ue3z4~wz_qn53LAaRDyVzm)"/><circle cx="15.5" cy="24.5" r=".5" fill="#fff"/><circle cx="30.5" cy="24.5" r=".5" fill="#fff"/><g><radialGradient id="Ue3z4~wz_qn53LAaRDyVzn" cx="24" cy="28.951" r="3.384" gradientTransform="matrix(.9999 -.011 .0059 .5371 -.17 13.667)" gradientUnits="userSpaceOnUse"><stop offset="0" stop-color="#fff"/><stop offset="1" stop-color="#fff" stop-opacity="0"/></radialGradient><ellipse cx="24" cy="29" fill="url(#Ue3z4~wz_qn53LAaRDyVzn)" rx="3.5" ry="2"/><radialGradient id="Ue3z4~wz_qn53LAaRDyVzo" cx="24.029" cy="29.953" r="2.701" gradientTransform="matrix(.0022 1 -1.2107 .0026 60.243 5.845)" gradientUnits="userSpaceOnUse"><stop offset=".415" stop-opacity=".3"/><stop offset="1" stop-opacity="0"/></radialGradient><path fill="url(#Ue3z4~wz_qn53LAaRDyVzo)" d="M26.754,30.238C26.465,30.386,25.66,31,24,31s-2.465-0.614-2.754-0.762 c-0.289-0.148-0.48-0.078-0.48,0.198C20.766,31.155,21.931,33,24,33s3.234-1.845,3.234-2.564 C27.234,30.16,27.043,30.09,26.754,30.238z"/></g></svg>