<svg xmlns="http://www.w3.org/2000/svg" viewBox="0 0 48 48"><linearGradient id="7RTK2WFGQ5Y6_Hqd4MW7Ia" x1="43.311" x2="38.034" y1="4.553" y2="10.085" gradientUnits="userSpaceOnUse"><stop offset="0" stop-color="#f1f7fe" stop-opacity="0"/><stop offset=".006" stop-color="#edf5fe" stop-opacity=".012"/><stop offset=".104" stop-color="#b8d5fa" stop-opacity=".2"/><stop offset=".2" stop-color="#8bbaf6" stop-opacity=".384"/><stop offset=".291" stop-color="#69a5f3" stop-opacity=".559"/><stop offset=".377" stop-color="#5096f2" stop-opacity=".725"/><stop offset=".456" stop-color="#418df0" stop-opacity=".876"/><stop offset=".52" stop-color="#3c8af0"/><stop offset=".585" stop-color="#408df0" stop-opacity=".864"/><stop offset=".657" stop-color="#4e95f1" stop-opacity=".715"/><stop offset=".732" stop-color="#64a2f3" stop-opacity=".559"/><stop offset=".808" stop-color="#82b4f5" stop-opacity=".399"/><stop offset=".887" stop-color="#aaccf8" stop-opacity=".236"/><stop offset=".965" stop-color="#dae9fc" stop-opacity=".072"/><stop offset="1" stop-color="#f1f7fe" stop-opacity="0"/></linearGradient><path fill="url(#7RTK2WFGQ5Y6_Hqd4MW7Ia)" d="M38.5,10c-0.128,0-0.256-0.049-0.354-0.146c-0.195-0.195-0.195-0.512,0-0.707l4-4 c0.195-0.195,0.512-0.195,0.707,0s0.195,0.512,0,0.707l-4,4C38.756,9.951,38.628,10,38.5,10z"/><linearGradient id="7RTK2WFGQ5Y6_Hqd4MW7Ib" x1="36.5" x2="36.5" y1="2.803" y2="8.888" gradientUnits="userSpaceOnUse"><stop offset="0" stop-color="#f1f7fe" stop-opacity="0"/><stop offset=".006" stop-color="#edf5fe" stop-opacity=".012"/><stop offset=".104" stop-color="#b8d5fa" stop-opacity=".2"/><stop offset=".2" stop-color="#8bbaf6" stop-opacity=".384"/><stop offset=".291" stop-color="#69a5f3" stop-opacity=".559"/><stop offset=".377" stop-color="#5096f2" stop-opacity=".725"/><stop offset=".456" stop-color="#418df0" stop-opacity=".876"/><stop offset=".52" stop-color="#3c8af0"/><stop offset=".585" stop-color="#408df0" stop-opacity=".864"/><stop offset=".657" stop-color="#4e95f1" stop-opacity=".715"/><stop offset=".732" stop-color="#64a2f3" stop-opacity=".559"/><stop offset=".808" stop-color="#82b4f5" stop-opacity=".399"/><stop offset=".887" stop-color="#aaccf8" stop-opacity=".236"/><stop offset=".965" stop-color="#dae9fc" stop-opacity=".072"/><stop offset="1" stop-color="#f1f7fe" stop-opacity="0"/></linearGradient><path fill="url(#7RTK2WFGQ5Y6_Hqd4MW7Ib)" d="M36.5,9C36.224,9,36,8.776,36,8.5v-5C36,3.224,36.224,3,36.5,3S37,3.224,37,3.5v5 C37,8.776,36.776,9,36.5,9z"/><linearGradient id="7RTK2WFGQ5Y6_Hqd4MW7Ic" x1="39" x2="45" y1="11.5" y2="11.5" gradientUnits="userSpaceOnUse"><stop offset="0" stop-color="#f1f7fe" stop-opacity="0"/><stop offset=".006" stop-color="#edf5fe" stop-opacity=".012"/><stop offset=".104" stop-color="#b8d5fa" stop-opacity=".2"/><stop offset=".2" stop-color="#8bbaf6" stop-opacity=".384"/><stop offset=".291" stop-color="#69a5f3" stop-opacity=".559"/><stop offset=".377" stop-color="#5096f2" stop-opacity=".725"/><stop offset=".456" stop-color="#418df0" stop-opacity=".876"/><stop offset=".52" stop-color="#3c8af0"/><stop offset=".585" stop-color="#408df0" stop-opacity=".864"/><stop offset=".657" stop-color="#4e95f1" stop-opacity=".715"/><stop offset=".732" stop-color="#64a2f3" stop-opacity=".559"/><stop offset=".808" stop-color="#82b4f5" stop-opacity=".399"/><stop offset=".887" stop-color="#aaccf8" stop-opacity=".236"/><stop offset=".965" stop-color="#dae9fc" stop-opacity=".072"/><stop offset="1" stop-color="#f1f7fe" stop-opacity="0"/></linearGradient><path fill="url(#7RTK2WFGQ5Y6_Hqd4MW7Ic)" d="M44.5,12h-5c-0.276,0-0.5-0.224-0.5-0.5s0.224-0.5,0.5-0.5h5c0.276,0,0.5,0.224,0.5,0.5 S44.776,12,44.5,12z"/><linearGradient id="7RTK2WFGQ5Y6_Hqd4MW7Id" x1="5.022" x2="9.809" y1="43.166" y2="38.017" gradientUnits="userSpaceOnUse"><stop offset="0" stop-color="#f1f7fe" stop-opacity="0"/><stop offset=".006" stop-color="#edf5fe" stop-opacity=".012"/><stop offset=".104" stop-color="#b8d5fa" stop-opacity=".2"/><stop offset=".2" stop-color="#8bbaf6" stop-opacity=".384"/><stop offset=".291" stop-color="#69a5f3" stop-opacity=".559"/><stop offset=".377" stop-color="#5096f2" stop-opacity=".725"/><stop offset=".456" stop-color="#418df0" stop-opacity=".876"/><stop offset=".52" stop-color="#3c8af0"/><stop offset=".585" stop-color="#408df0" stop-opacity=".864"/><stop offset=".657" stop-color="#4e95f1" stop-opacity=".715"/><stop offset=".732" stop-color="#64a2f3" stop-opacity=".559"/><stop offset=".808" stop-color="#82b4f5" stop-opacity=".399"/><stop offset=".887" stop-color="#aaccf8" stop-opacity=".236"/><stop offset=".965" stop-color="#dae9fc" stop-opacity=".072"/><stop offset="1" stop-color="#f1f7fe" stop-opacity="0"/></linearGradient><path fill="url(#7RTK2WFGQ5Y6_Hqd4MW7Id)" d="M5.5,43c-0.128,0-0.256-0.049-0.354-0.146c-0.195-0.195-0.195-0.512,0-0.707l4-4 c0.195-0.195,0.512-0.195,0.707,0s0.195,0.512,0,0.707l-4,4C5.756,42.951,5.628,43,5.5,43z"/><linearGradient id="7RTK2WFGQ5Y6_Hqd4MW7Ie" x1="11.5" x2="11.5" y1="38.803" y2="45.122" gradientUnits="userSpaceOnUse"><stop offset="0" stop-color="#f1f7fe" stop-opacity="0"/><stop offset=".006" stop-color="#edf5fe" stop-opacity=".012"/><stop offset=".104" stop-color="#b8d5fa" stop-opacity=".2"/><stop offset=".2" stop-color="#8bbaf6" stop-opacity=".384"/><stop offset=".291" stop-color="#69a5f3" stop-opacity=".559"/><stop offset=".377" stop-color="#5096f2" stop-opacity=".725"/><stop offset=".456" stop-color="#418df0" stop-opacity=".876"/><stop offset=".52" stop-color="#3c8af0"/><stop offset=".585" stop-color="#408df0" stop-opacity=".864"/><stop offset=".657" stop-color="#4e95f1" stop-opacity=".715"/><stop offset=".732" stop-color="#64a2f3" stop-opacity=".559"/><stop offset=".808" stop-color="#82b4f5" stop-opacity=".399"/><stop offset=".887" stop-color="#aaccf8" stop-opacity=".236"/><stop offset=".965" stop-color="#dae9fc" stop-opacity=".072"/><stop offset="1" stop-color="#f1f7fe" stop-opacity="0"/></linearGradient><path fill="url(#7RTK2WFGQ5Y6_Hqd4MW7Ie)" d="M11.5,45c-0.276,0-0.5-0.224-0.5-0.5v-5c0-0.276,0.224-0.5,0.5-0.5s0.5,0.224,0.5,0.5v5 C12,44.776,11.776,45,11.5,45z"/><linearGradient id="7RTK2WFGQ5Y6_Hqd4MW7If" x1="3" x2="9" y1="36.5" y2="36.5" gradientUnits="userSpaceOnUse"><stop offset="0" stop-color="#f1f7fe" stop-opacity="0"/><stop offset=".006" stop-color="#edf5fe" stop-opacity=".012"/><stop offset=".104" stop-color="#b8d5fa" stop-opacity=".2"/><stop offset=".2" stop-color="#8bbaf6" stop-opacity=".384"/><stop offset=".291" stop-color="#69a5f3" stop-opacity=".559"/><stop offset=".377" stop-color="#5096f2" stop-opacity=".725"/><stop offset=".456" stop-color="#418df0" stop-opacity=".876"/><stop offset=".52" stop-color="#3c8af0"/><stop offset=".585" stop-color="#408df0" stop-opacity=".864"/><stop offset=".657" stop-color="#4e95f1" stop-opacity=".715"/><stop offset=".732" stop-color="#64a2f3" stop-opacity=".559"/><stop offset=".808" stop-color="#82b4f5" stop-opacity=".399"/><stop offset=".887" stop-color="#aaccf8" stop-opacity=".236"/><stop offset=".965" stop-color="#dae9fc" stop-opacity=".072"/><stop offset="1" stop-color="#f1f7fe" stop-opacity="0"/></linearGradient><path fill="url(#7RTK2WFGQ5Y6_Hqd4MW7If)" d="M8.5,37h-5C3.224,37,3,36.776,3,36.5S3.224,36,3.5,36h5C8.776,36,9,36.224,9,36.5 S8.776,37,8.5,37z"/><radialGradient id="7RTK2WFGQ5Y6_Hqd4MW7Ig" cx="160.117" cy="19.768" r="19.698" gradientTransform="rotate(-45.001 92.632 193.212) scale(1 1.0557)" gradientUnits="userSpaceOnUse"><stop offset="0" stop-color="#ffe16e"/><stop offset=".629" stop-color="#ffd226"/><stop offset=".75" stop-color="#fdcd23"/><stop offset=".9" stop-color="#f6bd1b"/><stop offset="1" stop-color="#f0af13"/></radialGradient><path fill="url(#7RTK2WFGQ5Y6_Hqd4MW7Ig)" d="M29.78,12.791c-1.669,0.585-2.63,2.352-2.2,4.043l0.869,3.415l-2.527-2.527	c-2.667-2.498-7.916-7.416-7.978-7.475c-0.675-0.711-1.541-1.142-2.316-1.154c-0.484-0.007-0.905,0.147-1.216,0.446	c-0.822,0.846-0.6,2.375,0.531,3.565l8.2,9.254c-4.327-4.139-11.497-10.97-11.551-11.022c-1.177-1.16-2.736-1.426-3.555-0.607	c-0.002,0.002-0.004,0.004-0.006,0.006c-0.303,0.307-0.464,0.726-0.464,1.211c-0.001,0.777,0.415,1.651,1.094,2.318l10.58,11.966	c-3.602-3.351-10.404-9.634-10.489-9.714c-1.19-1.131-2.745-1.375-3.555-0.564c-0.007,0.007-0.014,0.014-0.021,0.021	c-0.299,0.311-0.453,0.732-0.446,1.216c0.011,0.775,0.443,1.642,1.143,2.307l10.077,10.2c0,0-7.467-6.057-7.529-6.11	c-1.256-1.077-2.822-1.244-3.612-0.378c-0.287,0.323-0.424,0.748-0.395,1.23c0.046,0.771,0.519,1.613,1.237,2.226l12.249,12.386	c4.296,4.296,11.266,4.291,15.567-0.011l2.702-2.702c3.649-3.649,4.279-9.337,1.517-13.688L31.892,13.5	C31.445,12.804,30.575,12.513,29.78,12.791z"/><path fill="#d8a07a" d="M29.78,12.791c-1.669,0.585-2.63,2.352-2.2,4.043l0.869,3.415l-2.527-2.527	c-2.667-2.498-7.916-7.416-7.978-7.475c-0.675-0.711-1.541-1.142-2.316-1.154c-0.484-0.007-0.905,0.147-1.216,0.446	c-0.822,0.846-0.6,2.375,0.531,3.565l8.2,9.254c-4.327-4.139-11.497-10.97-11.551-11.022c-1.177-1.16-2.736-1.426-3.555-0.607	c-0.002,0.002-0.004,0.004-0.006,0.006c-0.303,0.307-0.464,0.726-0.464,1.211c-0.001,0.777,0.415,1.651,1.094,2.318l10.58,11.966	c-3.602-3.351-10.404-9.634-10.489-9.714c-1.19-1.131-2.745-1.375-3.555-0.564c-0.007,0.007-0.014,0.014-0.021,0.021	c-0.299,0.311-0.453,0.732-0.446,1.216c0.011,0.775,0.443,1.642,1.143,2.307l10.077,10.2c0,0-7.467-6.057-7.529-6.11	c-1.256-1.077-2.822-1.244-3.612-0.378c-0.287,0.323-0.424,0.748-0.395,1.23c0.046,0.771,0.519,1.613,1.237,2.226l12.249,12.386	c4.296,4.296,11.266,4.291,15.567-0.011l2.702-2.702c3.649-3.649,4.279-9.337,1.517-13.688L31.892,13.5	C31.445,12.804,30.575,12.513,29.78,12.791z"/><path fill="#303030" d="M31.062,16.181l0.869,3.415l-2.527-2.527c-0.532-0.498-1.168-1.094-1.844-1.727	c-0.1,0.483-0.108,0.99,0.02,1.492l0.869,3.415l-2.527-2.527c-2.667-2.498-7.916-7.416-7.978-7.475	c-0.157-0.165-0.326-0.312-0.5-0.445c-0.148,0.816,0.187,1.813,0.98,2.648l8.2,9.254c-4.327-4.139-11.497-10.97-11.551-11.022	c-0.301-0.296-0.626-0.532-0.958-0.708c-0.429,0.873-0.131,2.121,0.827,3.129l8.2,9.254c-4.327-4.139-11.497-10.97-11.551-11.022	c-0.162-0.16-0.332-0.298-0.505-0.423c-0.024,0.121-0.038,0.248-0.038,0.38c-0.001,0.777,0.415,1.651,1.094,2.318l10.58,11.966	c-3.602-3.351-10.404-9.634-10.489-9.714c-0.948-0.9-2.121-1.228-2.971-0.918l9.979,11.286c-3.602-3.351-10.404-9.634-10.489-9.714	c-0.16-0.152-0.327-0.285-0.497-0.404c-0.028,0.135-0.046,0.275-0.044,0.424c0.011,0.775,0.443,1.642,1.143,2.307l10.077,10.2	c0,0-7.467-6.057-7.529-6.11c-1.099-0.942-2.436-1.188-3.281-0.655l7.329,7.418c0,0-7.467-6.057-7.529-6.11	c-0.153-0.132-0.312-0.249-0.472-0.353c-0.042,0.174-0.064,0.356-0.053,0.551c0.046,0.771,0.519,1.613,1.237,2.226l12.249,12.386	c2.212,2.212,5.132,3.274,8.033,3.206c1.478-0.533,2.868-1.38,4.053-2.564l2.702-2.702c3.649-3.649,4.279-9.337,1.517-13.688	L31.892,13.5c-0.056-0.088-0.136-0.149-0.205-0.223C31.062,14.081,30.798,15.144,31.062,16.181z" opacity=".23"/><radialGradient id="7RTK2WFGQ5Y6_Hqd4MW7Ih" cx="164.041" cy="21.768" r="19.698" gradientTransform="rotate(-45.001 92.498 193.267) scale(1 1.0557)" gradientUnits="userSpaceOnUse"><stop offset="0" stop-color="#f8daba"/><stop offset=".629" stop-color="#e4b794"/><stop offset=".773" stop-color="#e2b28f"/><stop offset=".953" stop-color="#daa57f"/><stop offset="1" stop-color="#d8a07a"/></radialGradient><path fill="url(#7RTK2WFGQ5Y6_Hqd4MW7Ih)" d="M33.969,11.431c-1.669,0.585-2.63,2.352-2.2,4.043l0.869,3.415l-2.527-2.527	c-2.667-2.498-7.916-7.416-7.978-7.475c-0.675-0.711-1.541-1.142-2.316-1.154c-0.484-0.007-0.905,0.147-1.216,0.446	c-0.822,0.846-0.6,2.375,0.531,3.565l8.2,9.254c-4.327-4.139-11.497-10.97-11.551-11.022c-1.177-1.16-2.736-1.426-3.555-0.607	c-0.002,0.002-0.004,0.004-0.006,0.006c-0.303,0.307-0.464,0.726-0.464,1.211c-0.001,0.777,0.415,1.651,1.094,2.318l10.58,11.966	c-3.602-3.351-10.404-9.634-10.489-9.714c-1.19-1.131-2.745-1.375-3.555-0.564c-0.007,0.007-0.014,0.014-0.021,0.021	c-0.299,0.311-0.453,0.732-0.446,1.216c0.011,0.775,0.443,1.642,1.143,2.307l10.077,10.2c0,0-7.467-6.057-7.529-6.11	c-1.256-1.077-2.822-1.244-3.612-0.378c-0.287,0.323-0.424,0.748-0.395,1.23c0.046,0.771,0.519,1.613,1.237,2.226l12.249,12.386	c4.296,4.296,11.265,4.291,15.567-0.011l2.702-2.702c3.649-3.649,4.279-9.337,1.517-13.688l-5.796-9.148	C35.634,11.444,34.764,11.152,33.969,11.431z"/><radialGradient id="7RTK2WFGQ5Y6_Hqd4MW7Ii" cx="-1942.846" cy="153.641" r="4.385" gradientTransform="matrix(.2328 -.2435 1.1594 1.1086 289.516 -623.006)" gradientUnits="userSpaceOnUse"><stop offset=".425" stop-color="#fff"/><stop offset="1" stop-color="#fff" stop-opacity="0"/></radialGradient><path fill="url(#7RTK2WFGQ5Y6_Hqd4MW7Ii)" d="M16.448,19.181c3.192,3.052,5.271,6.059,4.644,6.716	c-0.628,0.656-3.724-1.286-6.917-4.338s-5.271-6.059-4.644-6.716S13.256,16.129,16.448,19.181z" opacity=".1"/><radialGradient id="7RTK2WFGQ5Y6_Hqd4MW7Ij" cx="-1983.243" cy="176.145" r="4.385" gradientTransform="matrix(.268 -.2577 1.1858 1.2336 340.926 -712.572)" gradientUnits="userSpaceOnUse"><stop offset=".425" stop-color="#fff"/><stop offset="1" stop-color="#fff" stop-opacity="0"/></radialGradient><path fill="url(#7RTK2WFGQ5Y6_Hqd4MW7Ij)" d="M19.562,14.437c3.265,3.396,5.326,6.713,4.604,7.408	c-0.723,0.695-3.955-1.496-7.22-4.892s-5.326-6.713-4.604-7.408C13.064,8.851,16.297,11.041,19.562,14.437z" opacity=".1"/><radialGradient id="7RTK2WFGQ5Y6_Hqd4MW7Ik" cx="-2040.991" cy="257.495" r="4.385" gradientTransform="matrix(.2629 -.2528 1.1033 1.1477 276.854 -797.44)" gradientUnits="userSpaceOnUse"><stop offset=".425" stop-color="#fff"/><stop offset="1" stop-color="#fff" stop-opacity="0"/></radialGradient><path fill="url(#7RTK2WFGQ5Y6_Hqd4MW7Ik)" d="M25.568,12.756c3.038,3.16,4.926,6.274,4.217,6.956	c-0.709,0.681-3.746-1.328-6.784-4.488s-4.926-6.274-4.217-6.956C19.493,7.587,22.53,9.596,25.568,12.756z" opacity=".1"/><radialGradient id="7RTK2WFGQ5Y6_Hqd4MW7Il" cx="-2273.169" cy="157.187" r="4.385" gradientTransform="matrix(.2592 -.288 1.0103 .9092 444.586 -771.158)" gradientUnits="userSpaceOnUse"><stop offset=".425" stop-color="#fff"/><stop offset="1" stop-color="#fff" stop-opacity="0"/></radialGradient><path fill="url(#7RTK2WFGQ5Y6_Hqd4MW7Il)" d="M15.45,25.069c2.782,2.503,4.47,5.162,3.772,5.939s-3.52-0.623-6.302-3.127	s-4.47-5.162-3.772-5.939C9.847,21.166,12.668,22.566,15.45,25.069z" opacity=".1"/></svg>