<svg xmlns="http://www.w3.org/2000/svg" viewBox="0 0 48 48"><radialGradient id="364SjgJy2Awt5uCLzbNZXa" cx="7.289" cy="6.356" r="12.648" gradientTransform="matrix(1.0734 0 0 1 10.718 .022)" gradientUnits="userSpaceOnUse"><stop offset="0" stop-color="#4f4f4f"/><stop offset=".275" stop-color="#4a4a4a"/><stop offset=".619" stop-color="#3a3a3a"/><stop offset=".998" stop-color="#212121"/><stop offset="1" stop-color="#212121"/></radialGradient><path fill="url(#364SjgJy2Awt5uCLzbNZXa)" d="M24.401,2c2.27,0,4.4,0.555,6.237,1.526c3.763,1.989,6.308,5.849,7.437,9.998	c2.279,8.381,2.054,10.438,2.5,13.95c0.416,3.278,1.671,7.737-3.729,12.737C35.159,41.772,30.471,46,24.401,46h-0.801	c-6.07,0-10.759-4.228-12.444-5.789c-5.399-5-4.145-9.459-3.729-12.737c0.446-3.511,0.221-5.569,2.5-13.95	c1.128-4.149,3.673-8.009,7.437-9.998C19.2,2.555,21.329,2,23.599,2H24.401z"/><radialGradient id="364SjgJy2Awt5uCLzbNZXb" cx="12.422" cy="24.256" r="14.794" gradientTransform="matrix(1.0734 0 0 1.6169 10.718 -14.94)" gradientUnits="userSpaceOnUse"><stop offset=".017" stop-color="#424242" stop-opacity="0"/><stop offset=".305" stop-color="#3d3d3d" stop-opacity=".293"/><stop offset=".63" stop-color="#303030" stop-opacity=".623"/><stop offset=".972" stop-color="#191919" stop-opacity=".971"/><stop offset="1" stop-color="#171717"/></radialGradient><path fill="url(#364SjgJy2Awt5uCLzbNZXb)" d="M24.401,2c2.27,0,4.4,0.555,6.237,1.526c3.763,1.989,6.308,5.849,7.437,9.998	c2.279,8.381,2.054,10.438,2.5,13.95c0.416,3.278,1.671,7.737-3.729,12.737C35.159,41.772,30.471,46,24.401,46h-0.801	c-6.07,0-10.759-4.228-12.444-5.789c-5.399-5-4.145-9.459-3.729-12.737c0.446-3.511,0.221-5.569,2.5-13.95	c1.128-4.149,3.673-8.009,7.437-9.998C19.2,2.555,21.329,2,23.599,2H24.401z"/><path fill="#BDBDBD" d="M28.667,16C26,16,25.193,17,24,17s-2-1-4.667-1C16.388,16,14,18.455,14,21.483 c0,3.517,3.721,9.595,6.667,9.595c1.666,0,5.001,0,6.667,0C30.279,31.078,34,25,34,21.483C34,18.455,31.612,16,28.667,16z"/><path fill="#BCBCBC" d="M28.667,16.027c-2.667,0-3.474,1-4.667,1s-2-1-4.667-1c-2.946,0-5.333,2.448-5.333,5.455 c0,3.517,3.721,9.595,6.667,9.595c1.666,0,5.001,0,6.667,0C30.279,31.078,34,25,34,21.483C34,18.476,31.612,16.027,28.667,16.027z"/><path fill="#BBB" d="M28.667,16.055c-2.667,0-3.474,1-4.667,1s-2-1-4.667-1c-2.946,0-5.333,2.442-5.333,5.428 c0,3.517,3.721,9.595,6.667,9.595c1.666,0,5.001,0,6.667,0C30.279,31.078,34,25,34,21.483C34,18.497,31.612,16.055,28.667,16.055z"/><path fill="#BABABA" d="M28.667,16.082c-2.667,0-3.474,1-4.667,1s-2-1-4.667-1c-2.946,0-5.333,2.436-5.333,5.401 c0,3.517,3.721,9.595,6.667,9.595c1.666,0,5.001,0,6.667,0C30.279,31.078,34,25,34,21.483C34,18.518,31.612,16.082,28.667,16.082z"/><path fill="#B9B9B9" d="M28.667,16.11c-2.667,0-3.474,1-4.667,1s-2-1-4.667-1c-2.946,0-5.333,2.43-5.333,5.373 c0,3.517,3.721,9.595,6.667,9.595c1.666,0,5.001,0,6.667,0C30.279,31.078,34,25,34,21.483C34,18.539,31.612,16.11,28.667,16.11z"/><path fill="#B8B8B8" d="M28.667,16.137c-2.667,0-3.474,1-4.667,1s-2-1-4.667-1c-2.946,0-5.333,2.424-5.333,5.346 c0,3.517,3.721,9.595,6.667,9.595c1.666,0,5.001,0,6.667,0C30.279,31.078,34,25,34,21.483C34,18.561,31.612,16.137,28.667,16.137z"/><path fill="#B7B7B7" d="M28.667,16.164c-2.667,0-3.474,1-4.667,1s-2-1-4.667-1c-2.946,0-5.333,2.417-5.333,5.318 c0,3.517,3.721,9.595,6.667,9.595c1.666,0,5.001,0,6.667,0C30.279,31.078,34,25,34,21.483C34,18.582,31.612,16.164,28.667,16.164z"/><path fill="#B6B6B6" d="M28.667,16.192c-2.667,0-3.474,1-4.667,1s-2-1-4.667-1c-2.946,0-5.333,2.411-5.333,5.291 c0,3.517,3.721,9.595,6.667,9.595c1.666,0,5.001,0,6.667,0C30.279,31.078,34,25,34,21.483C34,18.603,31.612,16.192,28.667,16.192z"/><path fill="#B5B5B5" d="M28.667,16.219c-2.667,0-3.474,1-4.667,1s-2-1-4.667-1c-2.946,0-5.333,2.405-5.333,5.264 c0,3.517,3.721,9.595,6.667,9.595c1.666,0,5.001,0,6.667,0C30.279,31.078,34,25,34,21.483C34,18.624,31.612,16.219,28.667,16.219z"/><path fill="#B4B4B4" d="M28.667,16.247c-2.667,0-3.474,1-4.667,1s-2-1-4.667-1c-2.946,0-5.333,2.399-5.333,5.236 c0,3.517,3.721,9.595,6.667,9.595c1.666,0,5.001,0,6.667,0C30.279,31.078,34,25,34,21.483C34,18.645,31.612,16.247,28.667,16.247z"/><path fill="#B3B3B3" d="M28.667,16.274c-2.667,0-3.474,1-4.667,1s-2-1-4.667-1c-2.946,0-5.333,2.392-5.333,5.209 c0,3.517,3.721,9.595,6.667,9.595c1.666,0,5.001,0,6.667,0C30.279,31.078,34,25,34,21.483C34,18.666,31.612,16.274,28.667,16.274z"/><path fill="#B2B2B2" d="M28.667,16.301c-2.667,0-3.474,1-4.667,1s-2-1-4.667-1c-2.946,0-5.333,2.386-5.333,5.181 c0,3.517,3.721,9.595,6.667,9.595c1.666,0,5.001,0,6.667,0C30.279,31.078,34,25,34,21.483C34,18.688,31.612,16.301,28.667,16.301z"/><path fill="#B1B1B1" d="M28.667,16.329c-2.667,0-3.474,1-4.667,1s-2-1-4.667-1c-2.946,0-5.333,2.38-5.333,5.154 c0,3.517,3.721,9.595,6.667,9.595c1.666,0,5.001,0,6.667,0C30.279,31.078,34,25,34,21.483C34,18.709,31.612,16.329,28.667,16.329z"/><path fill="#B0B0B0" d="M28.667,16.356c-2.667,0-3.474,1-4.667,1s-2-1-4.667-1c-2.946,0-5.333,2.374-5.333,5.127 c0,3.517,3.721,9.595,6.667,9.595c1.666,0,5.001,0,6.667,0C30.279,31.078,34,25,34,21.483C34,18.73,31.612,16.356,28.667,16.356z"/><path fill="#AFAFAF" d="M28.667,16.384c-2.667,0-3.474,1-4.667,1s-2-1-4.667-1c-2.946,0-5.333,2.368-5.333,5.099 c0,3.517,3.721,9.595,6.667,9.595c1.666,0,5.001,0,6.667,0C30.279,31.078,34,25,34,21.483C34,18.751,31.612,16.384,28.667,16.384z"/><path fill="#AEAEAE" d="M28.667,16.411c-2.667,0-3.474,1-4.667,1s-2-1-4.667-1c-2.946,0-5.333,2.361-5.333,5.072 c0,3.517,3.721,9.595,6.667,9.595c1.666,0,5.001,0,6.667,0C30.279,31.078,34,25,34,21.483C34,18.772,31.612,16.411,28.667,16.411z"/><path fill="#ADADAD" d="M28.667,16.438c-2.667,0-3.474,1-4.667,1s-2-1-4.667-1c-2.946,0-5.333,2.355-5.333,5.044 c0,3.517,3.721,9.595,6.667,9.595c1.666,0,5.001,0,6.667,0C30.279,31.078,34,25,34,21.483C34,18.793,31.612,16.438,28.667,16.438z"/><path fill="#ACACAC" d="M28.667,16.466c-2.667,0-3.474,1-4.667,1s-2-1-4.667-1c-2.946,0-5.333,2.349-5.333,5.017 c0,3.517,3.721,9.595,6.667,9.595c1.666,0,5.001,0,6.667,0C30.279,31.078,34,25,34,21.483C34,18.815,31.612,16.466,28.667,16.466z"/><path fill="#ABABAB" d="M28.667,16.493c-2.667,0-3.474,1-4.667,1s-2-1-4.667-1c-2.946,0-5.333,2.343-5.333,4.99 c0,3.517,3.721,9.595,6.667,9.595c1.666,0,5.001,0,6.667,0C30.279,31.078,34,25,34,21.483C34,18.836,31.612,16.493,28.667,16.493z"/><path fill="#AAA" d="M28.667,16.521c-2.667,0-3.474,1-4.667,1s-2-1-4.667-1c-2.946,0-5.333,2.336-5.333,4.962 c0,3.517,3.721,9.595,6.667,9.595c1.666,0,5.001,0,6.667,0C30.279,31.078,34,25,34,21.483C34,18.857,31.612,16.521,28.667,16.521z"/><path fill="#A9A9A9" d="M28.667,16.548c-2.667,0-3.474,1-4.667,1s-2-1-4.667-1c-2.946,0-5.333,2.33-5.333,4.935 c0,3.517,3.721,9.595,6.667,9.595c1.666,0,5.001,0,6.667,0C30.279,31.078,34,25,34,21.483C34,18.878,31.612,16.548,28.667,16.548z"/><path fill="#A8A8A8" d="M28.667,16.575c-2.667,0-3.474,1-4.667,1s-2-1-4.667-1c-2.946,0-5.333,2.324-5.333,4.907 c0,3.517,3.721,9.595,6.667,9.595c1.666,0,5.001,0,6.667,0C30.279,31.078,34,25,34,21.483C34,18.899,31.612,16.575,28.667,16.575z"/><path fill="#A7A7A7" d="M28.667,16.603c-2.667,0-3.474,1-4.667,1s-2-1-4.667-1c-2.946,0-5.333,2.318-5.333,4.88 c0,3.517,3.721,9.595,6.667,9.595c1.666,0,5.001,0,6.667,0C30.279,31.078,34,25,34,21.483C34,18.92,31.612,16.603,28.667,16.603z"/><path fill="#A6A6A6" d="M28.667,16.63c-2.667,0-3.474,1-4.667,1s-2-1-4.667-1c-2.946,0-5.333,2.311-5.333,4.853 c0,3.517,3.721,9.595,6.667,9.595c1.666,0,5.001,0,6.667,0C30.279,31.078,34,25,34,21.483C34,18.942,31.612,16.63,28.667,16.63z"/><path fill="#A5A5A5" d="M28.667,16.658c-2.667,0-3.474,1-4.667,1s-2-1-4.667-1c-2.946,0-5.333,2.305-5.333,4.825 c0,3.517,3.721,9.595,6.667,9.595c1.666,0,5.001,0,6.667,0C30.279,31.078,34,25,34,21.483C34,18.963,31.612,16.658,28.667,16.658z"/><path fill="#A4A4A4" d="M28.667,16.685c-2.667,0-3.474,1-4.667,1s-2-1-4.667-1c-2.946,0-5.333,2.299-5.333,4.798 c0,3.517,3.721,9.595,6.667,9.595c1.666,0,5.001,0,6.667,0C30.279,31.078,34,25,34,21.483C34,18.984,31.612,16.685,28.667,16.685z"/><path fill="#A3A3A3" d="M28.667,16.712c-2.667,0-3.474,1-4.667,1s-2-1-4.667-1c-2.946,0-5.333,2.293-5.333,4.771 c0,3.517,3.721,9.595,6.667,9.595c1.666,0,5.001,0,6.667,0C30.279,31.078,34,25,34,21.483C34,19.005,31.612,16.712,28.667,16.712z"/><path fill="#A2A2A2" d="M28.667,16.74c-2.667,0-3.474,1-4.667,1s-2-1-4.667-1c-2.946,0-5.333,2.287-5.333,4.743 c0,3.517,3.721,9.595,6.667,9.595c1.666,0,5.001,0,6.667,0C30.279,31.078,34,25,34,21.483C34,19.026,31.612,16.74,28.667,16.74z"/><path fill="#A1A1A1" d="M28.667,16.767c-2.667,0-3.474,1-4.667,1s-2-1-4.667-1c-2.946,0-5.333,2.28-5.333,4.716 c0,3.517,3.721,9.595,6.667,9.595c1.666,0,5.001,0,6.667,0C30.279,31.078,34,25,34,21.483C34,19.047,31.612,16.767,28.667,16.767z"/><path fill="#A0A0A0" d="M28.667,16.795c-2.667,0-3.474,1-4.667,1s-2-1-4.667-1c-2.946,0-5.333,2.274-5.333,4.688 c0,3.517,3.721,9.595,6.667,9.595c1.666,0,5.001,0,6.667,0C30.279,31.078,34,25,34,21.483C34,19.069,31.612,16.795,28.667,16.795z"/><path fill="#9F9F9F" d="M28.667,16.822c-2.667,0-3.474,1-4.667,1s-2-1-4.667-1c-2.946,0-5.333,2.268-5.333,4.661 c0,3.517,3.721,9.595,6.667,9.595c1.666,0,5.001,0,6.667,0C30.279,31.078,34,25,34,21.483C34,19.09,31.612,16.822,28.667,16.822z"/><path fill="#9E9E9E" d="M28.667,16.849c-2.667,0-3.474,1-4.667,1s-2-1-4.667-1c-2.946,0-5.333,2.262-5.333,4.634 c0,3.517,3.721,9.595,6.667,9.595c1.666,0,5.001,0,6.667,0C30.279,31.078,34,25,34,21.483C34,19.111,31.612,16.849,28.667,16.849z"/><path fill="#9D9D9D" d="M28.667,16.877c-2.667,0-3.474,1-4.667,1s-2-1-4.667-1c-2.946,0-5.333,2.255-5.333,4.606 c0,3.517,3.721,9.595,6.667,9.595c1.666,0,5.001,0,6.667,0C30.279,31.078,34,25,34,21.483C34,19.132,31.612,16.877,28.667,16.877z"/><path fill="#9C9C9C" d="M28.667,16.904c-2.667,0-3.474,1-4.667,1s-2-1-4.667-1c-2.946,0-5.333,2.249-5.333,4.579 c0,3.517,3.721,9.595,6.667,9.595c1.666,0,5.001,0,6.667,0C30.279,31.078,34,25,34,21.483C34,19.153,31.612,16.904,28.667,16.904z"/><path fill="#9B9B9B" d="M28.667,16.932c-2.667,0-3.474,1-4.667,1s-2-1-4.667-1c-2.946,0-5.333,2.243-5.333,4.551 c0,3.517,3.721,9.595,6.667,9.595c1.666,0,5.001,0,6.667,0C30.279,31.078,34,25,34,21.483C34,19.174,31.612,16.932,28.667,16.932z"/><path fill="#9A9A9A" d="M28.667,16.959c-2.667,0-3.474,1-4.667,1s-2-1-4.667-1c-2.946,0-5.333,2.237-5.333,4.524 c0,3.517,3.721,9.595,6.667,9.595c1.666,0,5.001,0,6.667,0C30.279,31.078,34,25,34,21.483C34,19.196,31.612,16.959,28.667,16.959z"/><path fill="#999" d="M28.667,16.986c-2.667,0-3.474,1-4.667,1s-2-1-4.667-1c-2.946,0-5.333,2.23-5.333,4.497 c0,3.517,3.721,9.595,6.667,9.595c1.666,0,5.001,0,6.667,0C30.279,31.078,34,25,34,21.483C34,19.217,31.612,16.986,28.667,16.986z"/><path fill="#999" d="M28.667,17.014c-2.667,0-3.474,1-4.667,1s-2-1-4.667-1c-2.946,0-5.333,2.224-5.333,4.469 c0,3.517,3.721,9.595,6.667,9.595c1.666,0,5.001,0,6.667,0C30.279,31.078,34,25,34,21.483C34,19.238,31.612,17.014,28.667,17.014z"/><path fill="#989898" d="M28.667,17.041c-2.667,0-3.474,1-4.667,1s-2-1-4.667-1c-2.946,0-5.333,2.218-5.333,4.442 c0,3.517,3.721,9.595,6.667,9.595c1.666,0,5.001,0,6.667,0C30.279,31.078,34,25,34,21.483C34,19.259,31.612,17.041,28.667,17.041z"/><path fill="#979797" d="M28.667,17.068c-2.667,0-3.474,1-4.667,1s-2-1-4.667-1c-2.946,0-5.333,2.212-5.333,4.414 c0,3.517,3.721,9.595,6.667,9.595c1.666,0,5.001,0,6.667,0C30.279,31.078,34,25,34,21.483C34,19.28,31.612,17.068,28.667,17.068z"/><path fill="#969696" d="M28.667,17.096c-2.667,0-3.474,1-4.667,1s-2-1-4.667-1c-2.946,0-5.333,2.206-5.333,4.387 c0,3.517,3.721,9.595,6.667,9.595c1.666,0,5.001,0,6.667,0C30.279,31.078,34,25,34,21.483C34,19.301,31.612,17.096,28.667,17.096z"/><path fill="#959595" d="M28.667,17.123c-2.667,0-3.474,1-4.667,1s-2-1-4.667-1c-2.946,0-5.333,2.199-5.333,4.36 c0,3.517,3.721,9.595,6.667,9.595c1.666,0,5.001,0,6.667,0C30.279,31.078,34,25,34,21.483C34,19.323,31.612,17.123,28.667,17.123z"/><path fill="#949494" d="M28.667,17.151c-2.667,0-3.474,1-4.667,1s-2-1-4.667-1c-2.946,0-5.333,2.193-5.333,4.332 c0,3.517,3.721,9.595,6.667,9.595c1.666,0,5.001,0,6.667,0C30.279,31.078,34,25,34,21.483C34,19.344,31.612,17.151,28.667,17.151z"/><path fill="#939393" d="M28.667,17.178c-2.667,0-3.474,1-4.667,1s-2-1-4.667-1c-2.946,0-5.333,2.187-5.333,4.305 c0,3.517,3.721,9.595,6.667,9.595c1.666,0,5.001,0,6.667,0C30.279,31.078,34,25,34,21.483C34,19.365,31.612,17.178,28.667,17.178z"/><path fill="#929292" d="M28.667,17.205c-2.667,0-3.474,1-4.667,1s-2-1-4.667-1c-2.946,0-5.333,2.181-5.333,4.277 c0,3.517,3.721,9.595,6.667,9.595c1.666,0,5.001,0,6.667,0C30.279,31.078,34,25,34,21.483C34,19.386,31.612,17.205,28.667,17.205z"/><path fill="#919191" d="M28.667,17.233c-2.667,0-3.474,1-4.667,1s-2-1-4.667-1c-2.946,0-5.333,2.174-5.333,4.25 c0,3.517,3.721,9.595,6.667,9.595c1.666,0,5.001,0,6.667,0C30.279,31.078,34,25,34,21.483C34,19.407,31.612,17.233,28.667,17.233z"/><path fill="#909090" d="M28.667,17.26c-2.667,0-3.474,1-4.667,1s-2-1-4.667-1c-2.946,0-5.333,2.168-5.333,4.223 c0,3.517,3.721,9.595,6.667,9.595c1.666,0,5.001,0,6.667,0C30.279,31.078,34,25,34,21.483C34,19.428,31.612,17.26,28.667,17.26z"/><path fill="#8F8F8F" d="M28.667,17.288c-2.667,0-3.474,1-4.667,1s-2-1-4.667-1c-2.946,0-5.333,2.162-5.333,4.195 c0,3.517,3.721,9.595,6.667,9.595c1.666,0,5.001,0,6.667,0C30.279,31.078,34,25,34,21.483C34,19.45,31.612,17.288,28.667,17.288z"/><path fill="#8E8E8E" d="M28.667,17.315c-2.667,0-3.474,1-4.667,1s-2-1-4.667-1c-2.946,0-5.333,2.156-5.333,4.168 c0,3.517,3.721,9.595,6.667,9.595c1.666,0,5.001,0,6.667,0C30.279,31.078,34,25,34,21.483C34,19.471,31.612,17.315,28.667,17.315z"/><path fill="#8D8D8D" d="M28.667,17.342c-2.667,0-3.474,1-4.667,1s-2-1-4.667-1c-2.946,0-5.333,2.149-5.333,4.14 c0,3.517,3.721,9.595,6.667,9.595c1.666,0,5.001,0,6.667,0C30.279,31.078,34,25,34,21.483C34,19.492,31.612,17.342,28.667,17.342z"/><path fill="#8C8C8C" d="M28.667,17.37c-2.667,0-3.474,1-4.667,1s-2-1-4.667-1c-2.946,0-5.333,2.143-5.333,4.113 c0,3.517,3.721,9.595,6.667,9.595c1.666,0,5.001,0,6.667,0C30.279,31.078,34,25,34,21.483C34,19.513,31.612,17.37,28.667,17.37z"/><path fill="#8B8B8B" d="M28.667,17.397c-2.667,0-3.474,1-4.667,1s-2-1-4.667-1c-2.946,0-5.333,2.137-5.333,4.086 c0,3.517,3.721,9.595,6.667,9.595c1.666,0,5.001,0,6.667,0C30.279,31.078,34,25,34,21.483C34,19.534,31.612,17.397,28.667,17.397z"/><path fill="#8A8A8A" d="M28.667,17.425c-2.667,0-3.474,1-4.667,1s-2-1-4.667-1c-2.946,0-5.333,2.131-5.333,4.058 c0,3.517,3.721,9.595,6.667,9.595c1.666,0,5.001,0,6.667,0C30.279,31.078,34,25,34,21.483C34,19.555,31.612,17.425,28.667,17.425z"/><path fill="#898989" d="M28.667,17.452c-2.667,0-3.474,1-4.667,1s-2-1-4.667-1c-2.946,0-5.333,2.125-5.333,4.031 c0,3.517,3.721,9.595,6.667,9.595c1.666,0,5.001,0,6.667,0C30.279,31.078,34,25,34,21.483C34,19.577,31.612,17.452,28.667,17.452z"/><path fill="#888" d="M28.667,17.479c-2.667,0-3.474,1-4.667,1s-2-1-4.667-1c-2.946,0-5.333,2.118-5.333,4.003 c0,3.517,3.721,9.595,6.667,9.595c1.666,0,5.001,0,6.667,0C30.279,31.078,34,25,34,21.483C34,19.598,31.612,17.479,28.667,17.479z"/><path fill="#878787" d="M28.667,17.507c-2.667,0-3.474,1-4.667,1s-2-1-4.667-1c-2.946,0-5.333,2.112-5.333,3.976 c0,3.517,3.721,9.595,6.667,9.595c1.666,0,5.001,0,6.667,0C30.279,31.078,34,25,34,21.483C34,19.619,31.612,17.507,28.667,17.507z"/><path fill="#868686" d="M28.667,17.534c-2.667,0-3.474,1-4.667,1s-2-1-4.667-1c-2.946,0-5.333,2.106-5.333,3.949 c0,3.517,3.721,9.595,6.667,9.595c1.666,0,5.001,0,6.667,0C30.279,31.078,34,25,34,21.483C34,19.64,31.612,17.534,28.667,17.534z"/><path fill="#858585" d="M28.667,17.562c-2.667,0-3.474,1-4.667,1s-2-1-4.667-1c-2.946,0-5.333,2.1-5.333,3.921 c0,3.517,3.721,9.595,6.667,9.595c1.666,0,5.001,0,6.667,0C30.279,31.078,34,25,34,21.483C34,19.661,31.612,17.562,28.667,17.562z"/><path fill="#848484" d="M28.667,17.589c-2.667,0-3.474,1-4.667,1s-2-1-4.667-1c-2.946,0-5.333,2.093-5.333,3.894 c0,3.517,3.721,9.595,6.667,9.595c1.666,0,5.001,0,6.667,0C30.279,31.078,34,25,34,21.483C34,19.682,31.612,17.589,28.667,17.589z"/><path fill="#838383" d="M28.667,17.616c-2.667,0-3.474,1-4.667,1s-2-1-4.667-1c-2.946,0-5.333,2.087-5.333,3.866 c0,3.517,3.721,9.595,6.667,9.595c1.666,0,5.001,0,6.667,0C30.279,31.078,34,25,34,21.483C34,19.704,31.612,17.616,28.667,17.616z"/><path fill="#828282" d="M28.667,17.644c-2.667,0-3.474,1-4.667,1s-2-1-4.667-1c-2.946,0-5.333,2.081-5.333,3.839 c0,3.517,3.721,9.595,6.667,9.595c1.666,0,5.001,0,6.667,0C30.279,31.078,34,25,34,21.483C34,19.725,31.612,17.644,28.667,17.644z"/><path fill="#818181" d="M28.667,17.671c-2.667,0-3.474,1-4.667,1s-2-1-4.667-1c-2.946,0-5.333,2.075-5.333,3.812 c0,3.517,3.721,9.595,6.667,9.595c1.666,0,5.001,0,6.667,0C30.279,31.078,34,25,34,21.483C34,19.746,31.612,17.671,28.667,17.671z"/><path fill="gray" d="M28.667,17.699c-2.667,0-3.474,1-4.667,1s-2-1-4.667-1c-2.946,0-5.333,2.069-5.333,3.784 c0,3.517,3.721,9.595,6.667,9.595c1.666,0,5.001,0,6.667,0C30.279,31.078,34,25,34,21.483C34,19.767,31.612,17.699,28.667,17.699z"/><path fill="#7F7F7F" d="M28.667,17.726c-2.667,0-3.474,1-4.667,1s-2-1-4.667-1c-2.946,0-5.333,2.062-5.333,3.757 c0,3.517,3.721,9.595,6.667,9.595c1.666,0,5.001,0,6.667,0C30.279,31.078,34,25,34,21.483C34,19.788,31.612,17.726,28.667,17.726z"/><path fill="#7E7E7E" d="M28.667,17.753c-2.667,0-3.474,1-4.667,1s-2-1-4.667-1c-2.946,0-5.333,2.056-5.333,3.729 c0,3.517,3.721,9.595,6.667,9.595c1.666,0,5.001,0,6.667,0C30.279,31.078,34,25,34,21.483C34,19.809,31.612,17.753,28.667,17.753z"/><path fill="#7D7D7D" d="M28.667,17.781c-2.667,0-3.474,1-4.667,1s-2-1-4.667-1c-2.946,0-5.333,2.05-5.333,3.702 c0,3.517,3.721,9.595,6.667,9.595c1.666,0,5.001,0,6.667,0C30.279,31.078,34,25,34,21.483C34,19.831,31.612,17.781,28.667,17.781z"/><path fill="#7C7C7C" d="M28.667,17.808c-2.667,0-3.474,1-4.667,1s-2-1-4.667-1c-2.946,0-5.333,2.044-5.333,3.675 c0,3.517,3.721,9.595,6.667,9.595c1.666,0,5.001,0,6.667,0C30.279,31.078,34,25,34,21.483C34,19.852,31.612,17.808,28.667,17.808z"/><path fill="#7B7B7B" d="M28.667,17.836c-2.667,0-3.474,1-4.667,1s-2-1-4.667-1c-2.946,0-5.333,2.037-5.333,3.647 c0,3.517,3.721,9.595,6.667,9.595c1.666,0,5.001,0,6.667,0C30.279,31.078,34,25,34,21.483C34,19.873,31.612,17.836,28.667,17.836z"/><path fill="#7A7A7A" d="M28.667,17.863c-2.667,0-3.474,1-4.667,1s-2-1-4.667-1c-2.946,0-5.333,2.031-5.333,3.62 c0,3.517,3.721,9.595,6.667,9.595c1.666,0,5.001,0,6.667,0C30.279,31.078,34,25,34,21.483C34,19.894,31.612,17.863,28.667,17.863z"/><path fill="#797979" d="M28.667,17.89c-2.667,0-3.474,1-4.667,1s-2-1-4.667-1c-2.946,0-5.333,2.025-5.333,3.592 c0,3.517,3.721,9.595,6.667,9.595c1.666,0,5.001,0,6.667,0C30.279,31.078,34,25,34,21.483C34,19.915,31.612,17.89,28.667,17.89z"/><path fill="#787878" d="M28.667,17.918c-2.667,0-3.474,1-4.667,1s-2-1-4.667-1c-2.946,0-5.333,2.019-5.333,3.565 c0,3.517,3.721,9.595,6.667,9.595c1.666,0,5.001,0,6.667,0C30.279,31.078,34,25,34,21.483C34,19.936,31.612,17.918,28.667,17.918z"/><path fill="#777" d="M28.667,17.945c-2.667,0-3.474,1-4.667,1s-2-1-4.667-1c-2.946,0-5.333,2.012-5.333,3.538 c0,3.517,3.721,9.595,6.667,9.595c1.666,0,5.001,0,6.667,0C30.279,31.078,34,25,34,21.483C34,19.958,31.612,17.945,28.667,17.945z"/><path fill="#767676" d="M28.667,17.973c-2.667,0-3.474,1-4.667,1s-2-1-4.667-1c-2.946,0-5.333,2.006-5.333,3.51 c0,3.517,3.721,9.595,6.667,9.595c1.666,0,5.001,0,6.667,0C30.279,31.078,34,25,34,21.483C34,19.979,31.612,17.973,28.667,17.973z"/><path fill="#757575" d="M28.667,18C26,18,25.193,19,24,19s-2-1-4.667-1C16.388,18,14,20,14,21.483c0,3.517,3.721,9.595,6.667,9.595 c1.666,0,5.001,0,6.667,0C30.279,31.078,34,25,34,21.483C34,20,31.612,18,28.667,18z"/><radialGradient id="364SjgJy2Awt5uCLzbNZXc" cx="23.952" cy="35.427" r="7.875" gradientTransform="matrix(1 0 0 .9446 0 1.962)" gradientUnits="userSpaceOnUse"><stop offset="0" stop-color="#b4b4b4"/><stop offset=".513" stop-color="#b2b2b2"/><stop offset=".698" stop-color="#ababab"/><stop offset=".829" stop-color="#a0a0a0"/><stop offset=".935" stop-color="#8f8f8f"/><stop offset="1" stop-color="gray"/></radialGradient><path fill="url(#364SjgJy2Awt5uCLzbNZXc)" d="M32,36.404c0-0.684,0.108-2.504-0.374-3.404c-1.298-2.424-2.435-5.88-6.069-7	c-0.914-0.282-2.2-0.282-3.114,0c-3.633,1.12-4.771,4.576-6.069,7C15.892,33.9,16,35.72,16,36.404C16,40.389,19.7,43,24,43	S32,40.389,32,36.404z"/><radialGradient id="364SjgJy2Awt5uCLzbNZXd" cx="23.946" cy="32.801" r="8.907" gradientTransform="matrix(1 0 0 .9185 0 2.674)" gradientUnits="userSpaceOnUse"><stop offset=".776" stop-color="#999"/><stop offset=".872" stop-color="#a1a1a1" stop-opacity=".575"/><stop offset="1" stop-color="#b3b3b3" stop-opacity="0"/></radialGradient><path fill="url(#364SjgJy2Awt5uCLzbNZXd)" d="M32,36.404C32,36.957,30,41,24,41s-8-4.043-8-4.596c0,0,1.09,2,8,1.491	C30.422,38.404,32,36.404,32,36.404z"/><path fill="#424242" d="M16,36.404c1.16,0.835,2.541,1.152,3.813,1.074c0.632-0.067,1.319-0.23,2.036-0.335	c0.716-0.1,1.437-0.131,2.152-0.144c0.715,0.011,1.436,0.046,2.15,0.14c0.714,0.102,1.406,0.254,2.046,0.331	c1.269,0.105,2.645-0.226,3.803-1.066c-0.843,1.211-2.312,1.934-3.831,1.989c-1.509-0.027-2.779-0.251-4.168-0.203	c-0.685-0.011-1.363,0.016-2.039,0.07c-0.674,0.033-1.365,0.174-2.134,0.139C18.318,38.313,16.852,37.613,16,36.404z"/><path fill="#B4B4B4" d="M27.6,33c0,0,2.4-1.283,2.4-3.476c0-1.691-2.236-3.646-3.6-4.224C25.751,25.025,24.83,25,24,25	c-0.83,0-1.781-0.003-2.4,0.3c-1.338,0.654-3.6,2.533-3.6,4.224C18,31.717,20.4,33,20.4,33"/><radialGradient id="364SjgJy2Awt5uCLzbNZXe" cx="24" cy="32.029" r="6.14" gradientTransform="matrix(1 0 0 1.1641 0 -5.257)" gradientUnits="userSpaceOnUse"><stop offset="0" stop-color="#b4b4b4" stop-opacity="0"/><stop offset=".309" stop-color="#b2b2b2" stop-opacity="0"/><stop offset=".44" stop-color="#ababab" stop-opacity="0"/><stop offset=".537" stop-color="#9e9e9e" stop-opacity="0"/><stop offset=".566" stop-color="#999" stop-opacity="0"/><stop offset=".68" stop-color="#929292" stop-opacity=".263"/><stop offset=".85" stop-color="#7d7d7d" stop-opacity=".654"/><stop offset="1" stop-color="#666"/></radialGradient><path fill="url(#364SjgJy2Awt5uCLzbNZXe)" d="M30,29.52c0,2.2-2.4,3.48-2.4,3.48h-7.2c0,0-2.4-1.28-2.4-3.48c0-1.69,2.268-3.56,3.6-4.22	C22.205,25,23.17,25,24,25s1.664,0,2.4,0.3C27.775,25.86,30,27.83,30,29.52z"/><path fill="#424242" d="M22.746,30.746c0.537-0.537,0.135-1.808-0.402-2.344c-0.537-0.537-1.406-0.537-1.941,0	c-0.537,0.537-0.537,1.406,0,1.941C20.938,30.881,22.21,31.283,22.746,30.746z"/><g><path fill="#212121" d="M31.961,23.737c0-1.628-1.325-2.948-2.96-2.948c-1.635,0-2.96,1.32-2.96,2.948 C26.04,24.158,27.365,25,29,25C30.635,25,31.961,24.158,31.961,23.737z"/><radialGradient id="364SjgJy2Awt5uCLzbNZXf" cx="14.012" cy="15.09" r="1.951" gradientTransform="translate(14.638 7.533) scale(1.025)" gradientUnits="userSpaceOnUse"><stop offset="0" stop-color="#5d4037"/><stop offset=".356" stop-color="#5b3f36"/><stop offset=".539" stop-color="#533a33"/><stop offset=".683" stop-color="#46332d"/><stop offset=".805" stop-color="#332825"/><stop offset=".914" stop-color="#1b1a1a"/><stop offset=".916" stop-color="#1a1a1a"/></radialGradient><circle cx="29" cy="23" r="2" fill="url(#364SjgJy2Awt5uCLzbNZXf)"/><path fill="#B1B1B1" d="M31.961,23.737c-0.138-0.739-1.494-2.497-2.983-2.497c-1.489,0-2.799,1.758-2.938,2.497 c-0.138-0.741,0.086-1.564,0.632-2.194c0.532-0.638,1.415-1.058,2.328-1.055c0.913-0.002,1.795,0.418,2.327,1.056 C31.873,22.173,32.098,22.995,31.961,23.737z"/><radialGradient id="364SjgJy2Awt5uCLzbNZXg" cx="-49.961" cy="19.653" r=".693" gradientTransform="translate(101.114 -5.367) scale(1.4434)" gradientUnits="userSpaceOnUse"><stop offset="0" stop-color="#1c1911"/><stop offset=".999" stop-color="#171714"/></radialGradient><circle cx="29" cy="23" r="1" fill="url(#364SjgJy2Awt5uCLzbNZXg)"/><ellipse cx="28.605" cy="22.368" fill="#FFF" rx=".372" ry=".376"/></g><g><path fill="#212121" d="M16.039,23.737c0-1.628,1.325-2.948,2.96-2.948c1.635,0,2.96,1.32,2.96,2.948C21.96,24.158,20.635,25,19,25 C17.365,25,16.039,24.158,16.039,23.737z"/><radialGradient id="364SjgJy2Awt5uCLzbNZXh" cx="-417.154" cy="15.09" r="1.951" gradientTransform="matrix(-1.025 0 0 1.025 -408.582 7.533)" gradientUnits="userSpaceOnUse"><stop offset="0" stop-color="#5d4037"/><stop offset=".356" stop-color="#5b3f36"/><stop offset=".539" stop-color="#533a33"/><stop offset=".683" stop-color="#46332d"/><stop offset=".805" stop-color="#332825"/><stop offset=".914" stop-color="#1b1a1a"/><stop offset=".916" stop-color="#1a1a1a"/></radialGradient><circle cx="19" cy="23" r="2" fill="url(#364SjgJy2Awt5uCLzbNZXh)"/><path fill="#B1B1B1" d="M16.039,23.737c-0.137-0.741,0.087-1.564,0.633-2.193c0.532-0.637,1.414-1.058,2.327-1.056 c0.913-0.003,1.796,0.418,2.328,1.055c0.546,0.629,0.771,1.452,0.632,2.194c-0.139-0.739-1.449-2.497-2.938-2.497 S16.178,22.997,16.039,23.737z"/><radialGradient id="364SjgJy2Awt5uCLzbNZXi" cx="-355.049" cy="19.653" r=".693" gradientTransform="matrix(-1.4434 0 0 1.4434 -493.479 -5.367)" gradientUnits="userSpaceOnUse"><stop offset="0" stop-color="#1c1911"/><stop offset=".999" stop-color="#171714"/></radialGradient><circle cx="19" cy="23" r="1" fill="url(#364SjgJy2Awt5uCLzbNZXi)"/><ellipse cx="18.65" cy="22.368" fill="#FFF" rx=".372" ry=".376"/></g><path fill="#424242" d="M27.597,28.403c-0.537-0.537-1.406-0.537-1.941,0c-0.537,0.535-0.939,1.807-0.402,2.344	c0.537,0.537,1.808,0.135,2.344-0.402C28.134,29.809,28.134,28.938,27.597,28.403z"/></svg>