<svg xmlns="http://www.w3.org/2000/svg" viewBox="0 0 48 48"><linearGradient id="dUXRpH6Gr8bBfLw8t4m5Ba" x1="18.805" x2="12.146" y1="8.167" y2="13.904" gradientUnits="userSpaceOnUse"><stop offset="0" stop-color="#6a871f"/><stop offset=".5" stop-color="#84a321"/><stop offset="1" stop-color="#a2c324"/></linearGradient><path fill="url(#dUXRpH6Gr8bBfLw8t4m5Ba)" d="M15.756,13.864l-3.114-2.625c0,0,1.866,0.01,4.802-4.97l1.59,1.081	C15.845,11.773,15.756,13.864,15.756,13.864z"/><linearGradient id="dUXRpH6Gr8bBfLw8t4m5Bb" x1="6.433" x2="11.308" y1="5.995" y2="13.426" gradientUnits="userSpaceOnUse"><stop offset="0" stop-color="#6a871f"/><stop offset=".5" stop-color="#84a321"/><stop offset="1" stop-color="#a2c324"/></linearGradient><path fill="url(#dUXRpH6Gr8bBfLw8t4m5Bb)" d="M12.405,11.304l-3.31,2.541c0,0,0.492-1.613-3.386-6.503l1.522-1.176	C10.407,11.194,12.405,11.304,12.405,11.304z"/><radialGradient id="dUXRpH6Gr8bBfLw8t4m5Bc" cx="6.476" cy="5.779" r="2.195" gradientUnits="userSpaceOnUse"><stop offset="0" stop-color="#a2c324"/><stop offset=".5" stop-color="#84a321"/><stop offset="1" stop-color="#6a871f"/></radialGradient><path fill="url(#dUXRpH6Gr8bBfLw8t4m5Bc)" d="M6.5,5C7.325,5,8,5.675,8,6.5S7.325,8,6.5,8S5,7.325,5,6.5S5.675,5,6.5,5z"/><radialGradient id="dUXRpH6Gr8bBfLw8t4m5Bd" cx="18.476" cy="5.779" r="2.195" gradientUnits="userSpaceOnUse"><stop offset="0" stop-color="#a2c324"/><stop offset=".5" stop-color="#84a321"/><stop offset="1" stop-color="#6a871f"/></radialGradient><path fill="url(#dUXRpH6Gr8bBfLw8t4m5Bd)" d="M18.5,5C19.325,5,20,5.675,20,6.5S19.325,8,18.5,8S17,7.325,17,6.5S17.675,5,18.5,5z"/><radialGradient id="dUXRpH6Gr8bBfLw8t4m5Be" cx="32.606" cy="19.904" r="27.961" gradientUnits="userSpaceOnUse"><stop offset=".585" stop-color="#6a871f"/><stop offset=".672" stop-color="#81a021"/><stop offset=".79" stop-color="#9bbd24"/><stop offset=".894" stop-color="#abce25"/><stop offset=".971" stop-color="#b1d426"/></radialGradient><path fill="url(#dUXRpH6Gr8bBfLw8t4m5Be)" d="M22.289,27.867C17.673,25.748,15.923,23.688,16,15c0.02-2.209-1.791-4-4-4s-4,1.791-4,4	c0,8-1,7-1,14c0,12,12,11,12,11s14,0,16,0s6-0.449,6-1C41,35.171,32.458,32.533,22.289,27.867z"/><radialGradient id="dUXRpH6Gr8bBfLw8t4m5Bf" cx="41.748" cy="32.255" r="30.966" gradientUnits="userSpaceOnUse"><stop offset=".161" stop-color="#242b09"/><stop offset=".227" stop-color="#2e370a"/><stop offset=".345" stop-color="#47580e"/><stop offset=".503" stop-color="#718d14"/><stop offset=".611" stop-color="#90b518"/><stop offset=".666" stop-color="#98bb27"/><stop offset=".771" stop-color="#adca4d"/><stop offset=".914" stop-color="#cee38a"/><stop offset=".998" stop-color="#e3f2b1"/></radialGradient><path fill="url(#dUXRpH6Gr8bBfLw8t4m5Bf)" d="M36,36c-10,0-16-6-19-13c0-7,3.657-13,12-13c6.628,0,10,5.783,10,8C39,19.891,38,32,36,36z"/><radialGradient id="dUXRpH6Gr8bBfLw8t4m5Bg" cx="21.711" cy="32.26" r="25.407" gradientUnits="userSpaceOnUse"><stop offset="0" stop-color="#a1c724" stop-opacity=".4"/><stop offset=".092" stop-color="#a1c724" stop-opacity="0"/><stop offset=".193" stop-color="#a1c724" stop-opacity=".4"/><stop offset=".212" stop-color="#a1c724" stop-opacity="0"/><stop offset=".329" stop-color="#a1c724" stop-opacity=".4"/><stop offset=".354" stop-color="#a1c724" stop-opacity="0"/><stop offset=".483" stop-color="#a1c724" stop-opacity=".4"/><stop offset=".51" stop-color="#a1c724" stop-opacity="0"/><stop offset=".627" stop-color="#a1c724" stop-opacity=".4"/><stop offset=".658" stop-color="#a1c724" stop-opacity="0"/><stop offset=".768" stop-color="#a1c724" stop-opacity=".4"/><stop offset=".787" stop-color="#a1c724" stop-opacity="0"/><stop offset=".885" stop-color="#a1c724" stop-opacity=".4"/><stop offset=".91" stop-color="#a1c724" stop-opacity="0"/></radialGradient><path fill="url(#dUXRpH6Gr8bBfLw8t4m5Bg)" d="M36,36c-10,0-16-6-19-13c0-7,3.657-13,12-13c6.628,0,10,5.783,10,8C39,19.891,38,32,36,36z"/><radialGradient id="dUXRpH6Gr8bBfLw8t4m5Bh" cx="44.514" cy="28.535" r="17.674" gradientUnits="userSpaceOnUse"><stop offset=".161" stop-color="#242b09"/><stop offset=".227" stop-color="#2e370a"/><stop offset=".345" stop-color="#47580e"/><stop offset=".503" stop-color="#718d14"/><stop offset=".611" stop-color="#90b518"/><stop offset=".666" stop-color="#98bb27"/><stop offset=".771" stop-color="#adca4d"/><stop offset=".914" stop-color="#cee38a"/><stop offset=".998" stop-color="#e3f2b1"/></radialGradient><path fill="url(#dUXRpH6Gr8bBfLw8t4m5Bh)" d="M36,36c-3,0-5-4.652-5-10s2-10,6-10c1.803,0,5,3,5,8c0,3.581-1.395,4.908-1.432,5.838 C40.53,30.768,39.644,36,36,36z"/><radialGradient id="dUXRpH6Gr8bBfLw8t4m5Bi" cx="29.555" cy="30.226" r="17.055" gradientUnits="userSpaceOnUse"><stop offset="0" stop-color="#a1c724" stop-opacity=".4"/><stop offset=".092" stop-color="#a1c724" stop-opacity="0"/><stop offset=".193" stop-color="#a1c724" stop-opacity=".4"/><stop offset=".212" stop-color="#a1c724" stop-opacity="0"/><stop offset=".329" stop-color="#a1c724" stop-opacity=".4"/><stop offset=".354" stop-color="#a1c724" stop-opacity="0"/><stop offset=".483" stop-color="#a1c724" stop-opacity=".4"/><stop offset=".51" stop-color="#a1c724" stop-opacity="0"/><stop offset=".627" stop-color="#a1c724" stop-opacity=".4"/><stop offset=".658" stop-color="#a1c724" stop-opacity="0"/><stop offset=".768" stop-color="#a1c724" stop-opacity=".4"/><stop offset=".787" stop-color="#a1c724" stop-opacity="0"/><stop offset=".885" stop-color="#a1c724" stop-opacity=".4"/><stop offset=".91" stop-color="#a1c724" stop-opacity="0"/></radialGradient><path fill="url(#dUXRpH6Gr8bBfLw8t4m5Bi)" d="M36,36c-3,0-5-4.652-5-10s2-10,6-10c1.803,0,5,3,5,8c0,3.581-1.395,4.908-1.432,5.838 C40.53,30.768,39.644,36,36,36z"/><radialGradient id="dUXRpH6Gr8bBfLw8t4m5Bj" cx="46.165" cy="28.482" r="11.202" gradientUnits="userSpaceOnUse"><stop offset=".161" stop-color="#242b09"/><stop offset=".227" stop-color="#2e370a"/><stop offset=".345" stop-color="#47580e"/><stop offset=".503" stop-color="#718d14"/><stop offset=".611" stop-color="#90b518"/><stop offset=".666" stop-color="#98bb27"/><stop offset=".771" stop-color="#adca4d"/><stop offset=".914" stop-color="#cee38a"/><stop offset=".998" stop-color="#e3f2b1"/></radialGradient><path fill="url(#dUXRpH6Gr8bBfLw8t4m5Bj)" d="M40,31c-1.016,0-2-2.184-2-5c0-3,1-6,3-6c1,0,2,2.115,2,4s-0.984,2.51-1,3S41.589,31,40,31z"/><radialGradient id="dUXRpH6Gr8bBfLw8t4m5Bk" cx="36.548" cy="29.163" r="11.164" gradientUnits="userSpaceOnUse"><stop offset="0" stop-color="#a1c724" stop-opacity=".4"/><stop offset=".092" stop-color="#a1c724" stop-opacity="0"/><stop offset=".193" stop-color="#a1c724" stop-opacity=".4"/><stop offset=".212" stop-color="#a1c724" stop-opacity="0"/><stop offset=".329" stop-color="#a1c724" stop-opacity=".4"/><stop offset=".354" stop-color="#a1c724" stop-opacity="0"/><stop offset=".483" stop-color="#a1c724" stop-opacity=".4"/><stop offset=".51" stop-color="#a1c724" stop-opacity="0"/><stop offset=".627" stop-color="#a1c724" stop-opacity=".4"/><stop offset=".658" stop-color="#a1c724" stop-opacity="0"/><stop offset=".768" stop-color="#a1c724" stop-opacity=".4"/><stop offset=".787" stop-color="#a1c724" stop-opacity="0"/><stop offset=".885" stop-color="#a1c724" stop-opacity=".4"/><stop offset=".91" stop-color="#a1c724" stop-opacity="0"/></radialGradient><path fill="url(#dUXRpH6Gr8bBfLw8t4m5Bk)" d="M40,31c-1.016,0-2-2.184-2-5c0-3,1-6,3-6c1,0,2,2.115,2,4s-0.984,2.51-1,3S41.589,31,40,31z"/><radialGradient id="dUXRpH6Gr8bBfLw8t4m5Bl" cx="46.002" cy="27.25" r="6.545" gradientUnits="userSpaceOnUse"><stop offset=".161" stop-color="#242b09"/><stop offset=".227" stop-color="#2e370a"/><stop offset=".345" stop-color="#47580e"/><stop offset=".503" stop-color="#718d14"/><stop offset=".611" stop-color="#90b518"/><stop offset=".666" stop-color="#98bb27"/><stop offset=".771" stop-color="#adca4d"/><stop offset=".914" stop-color="#cee38a"/><stop offset=".998" stop-color="#e3f2b1"/></radialGradient><path fill="url(#dUXRpH6Gr8bBfLw8t4m5Bl)" d="M42,28c-1,0-1-1.238-1-3s0.666-3,1.5-3c0.234,0,1.5,1.411,1.5,2S43,28,42,28z"/><radialGradient id="dUXRpH6Gr8bBfLw8t4m5Bm" cx="38.745" cy="26.64" r="6.384" gradientUnits="userSpaceOnUse"><stop offset="0" stop-color="#a1c724" stop-opacity=".4"/><stop offset=".092" stop-color="#a1c724" stop-opacity="0"/><stop offset=".193" stop-color="#a1c724" stop-opacity=".4"/><stop offset=".212" stop-color="#a1c724" stop-opacity="0"/><stop offset=".329" stop-color="#a1c724" stop-opacity=".4"/><stop offset=".354" stop-color="#a1c724" stop-opacity="0"/><stop offset=".483" stop-color="#a1c724" stop-opacity=".4"/><stop offset=".51" stop-color="#a1c724" stop-opacity="0"/><stop offset=".627" stop-color="#a1c724" stop-opacity=".4"/><stop offset=".658" stop-color="#a1c724" stop-opacity="0"/><stop offset=".768" stop-color="#a1c724" stop-opacity=".4"/><stop offset=".787" stop-color="#a1c724" stop-opacity="0"/><stop offset=".885" stop-color="#a1c724" stop-opacity=".4"/><stop offset=".91" stop-color="#a1c724" stop-opacity="0"/></radialGradient><path fill="url(#dUXRpH6Gr8bBfLw8t4m5Bm)" d="M42,28c-1,0-1-1.238-1-3s0.666-3,1.5-3c0.234,0,1.5,1.411,1.5,2S43,28,42,28z"/><path fill="#c0cc3e" d="M23,39c-12,0-10-10-10-22c0-1.105-0.895-2-2-2s-2,0.895-2,2c0,6-3,9.04-3,13c0,12,13,11,13,11	s18,0,20,0s2-2,2-2C35.3,39,24.5,39,23,39z"/><linearGradient id="dUXRpH6Gr8bBfLw8t4m5Bn" x1="27.078" x2="21.063" y1="9.916" y2="28.687" gradientUnits="userSpaceOnUse"><stop offset="0" stop-color="#fff" stop-opacity=".2"/><stop offset=".978" stop-color="#fff" stop-opacity=".004"/><stop offset="1" stop-color="#fff" stop-opacity="0"/></linearGradient><path fill="url(#dUXRpH6Gr8bBfLw8t4m5Bn)" d="M17.866,24.237L23,28c0,0-3.054-4.655,3.261-3.243c-6.538-2.86-3.64-4.755,0.706-4.012	c-6.909-2.229-4.681-4.606,1.523-3.269c-7.504-3.232-1.189-3.826,2.86-2.415c-3.9-2.08-5.045-3.416-1.895-4.383	c-1.395,0-4.909,1.592-6.909,1.857c1.226,0.78-0.223,3.12-3.046,3.455c1.3,0.78,0.929,2.935-1.634,4.198	C19.352,20.485,19.094,22.753,17.866,24.237z"/><linearGradient id="dUXRpH6Gr8bBfLw8t4m5Bo" x1="37.449" x2="33.544" y1="17.319" y2="29.505" gradientUnits="userSpaceOnUse"><stop offset="0" stop-color="#fff" stop-opacity=".2"/><stop offset=".978" stop-color="#fff" stop-opacity=".004"/><stop offset="1" stop-color="#fff" stop-opacity="0"/></linearGradient><path fill="url(#dUXRpH6Gr8bBfLw8t4m5Bo)" d="M31.469,26.616l3.333,2.443c0,0-1.983-3.022,2.117-2.106	c-4.244-1.857-2.363-3.087,0.458-2.605c-4.486-1.447-3.039-2.99,0.989-2.122c-4.872-2.098-0.772-2.484,1.857-1.568	c-2.532-1.351-3.275-2.217-1.23-2.846c-0.906,0-3.187,1.034-4.486,1.206c0.796,0.506-0.145,2.026-1.978,2.243	c0.844,0.506,0.603,1.905-1.061,2.725C32.433,24.18,32.266,25.653,31.469,26.616z"/></svg>