<svg xmlns="http://www.w3.org/2000/svg" viewBox="0 0 48 48"><path fill="#2ba300" d="M8.582,11.765C6.514,13.63,5.03,18.15,6.81,22.67c-1.721,3.391-0.592,8.328,2.376,10.17 c0.413,3.391,2.846,5.652,6.536,5.631c0.764,2.128,5,3.343,7.859,1.85c4.556,1.509,7.858,0.481,9.384-2.884 c2.243,0.398,5.712-1.685,5.698-5.652c1.558-0.672,2.803-3.111,2.182-5.615c1.63-1.778,1.393-4.931,0.178-6.233 c-0.757-5.703-3.847-6.897-4.894-6.897c-0.455,0-0.36,3.381,0.118,6.711c-1.002,0.822-1.306,2.855-0.712,4.342 c-1.41,0.064-2.658,1.984-2.374,3.628c-1.372-0.556-3.452,0.564-3.62,2.32c-1.4-1.181-3.576-0.925-4.391,0.655 c-0.177-1.515-2.449-2.379-3.665-1.323c-0.12-1.369-1.557-2.542-2.922-2.364c0.77-1.725-0.357-4.045-2.256-4.402 c2.136-1.903,1.719-5.77,0.415-7.019c2.678-6.628-1.145-10.572-4.346-10.572C10.777,5.019,12.63,7.712,8.582,11.765z"/><path fill="#2ca401" d="M8.606,11.801c-2.068,1.865-3.54,6.386-1.736,10.876c-1.72,3.376-0.589,8.309,2.383,10.131 c0.406,3.368,2.832,5.637,6.511,5.603c0.754,2.127,4.986,3.346,7.828,1.846c4.536,1.514,7.824,0.497,9.35-2.867 c2.235,0.404,5.705-1.678,5.686-5.629c1.567-0.668,2.81-3.107,2.185-5.6c1.632-1.766,1.394-4.928,0.179-6.222 c-0.741-5.67-3.81-6.874-4.854-6.873c-0.455,0.001-0.358,3.375,0.119,6.688c-1,0.823-1.304,2.861-0.71,4.348 c-1.408,0.067-2.658,1.984-2.373,3.632c-1.376-0.555-3.461,0.568-3.627,2.327c-1.4-1.177-3.577-0.924-4.401,0.655 c-0.186-1.514-2.457-2.378-3.673-1.322c-0.12-1.369-1.563-2.545-2.928-2.367c0.769-1.728-0.362-4.054-2.261-4.41 c2.136-1.903,1.709-5.779,0.401-7.022c2.666-6.581-1.12-10.532-4.298-10.533C10.791,5.062,12.634,7.769,8.606,11.801z"/><path fill="#2da402" d="M8.631,11.837c-2.068,1.865-3.528,6.388-1.701,10.847c-1.72,3.361-0.586,8.29,2.391,10.091 c0.398,3.346,2.817,5.622,6.485,5.574c0.744,2.126,4.972,3.348,7.798,1.842c4.516,1.519,7.789,0.514,9.316-2.85 c2.227,0.411,5.698-1.671,5.674-5.606c1.576-0.663,2.817-3.103,2.189-5.585c1.634-1.754,1.396-4.926,0.181-6.211 c-0.724-5.637-3.774-6.851-4.813-6.849c-0.454,0.002-0.356,3.368,0.121,6.665c-0.999,0.824-1.302,2.867-0.708,4.354 c-1.405,0.07-2.658,1.985-2.371,3.635c-1.381-0.555-3.47,0.573-3.635,2.333c-1.4-1.174-3.578-0.923-4.411,0.656 c-0.196-1.513-2.466-2.377-3.681-1.321c-0.12-1.369-1.568-2.549-2.934-2.37c0.767-1.731-0.368-4.063-2.266-4.419 c2.136-1.903,1.699-5.788,0.387-7.025c2.653-6.534-1.095-10.492-4.249-10.495C10.805,5.104,12.637,7.825,8.631,11.837z"/><path fill="#2da503" d="M8.655,11.874c-2.068,1.865-3.516,6.389-1.665,10.817c-1.719,3.345-0.583,8.271,2.398,10.051 c0.391,3.324,2.803,5.608,6.459,5.546c0.734,2.124,4.957,3.35,7.768,1.838c4.496,1.524,7.755,0.531,9.282-2.834 c2.22,0.418,5.692-1.664,5.662-5.583c1.586-0.658,2.825-3.098,2.192-5.57c1.636-1.742,1.397-4.923,0.183-6.2 c-0.707-5.604-3.737-6.829-4.773-6.825c-0.454,0.003-0.354,3.362,0.122,6.642c-0.997,0.826-1.3,2.873-0.706,4.36 c-1.403,0.074-2.659,1.986-2.37,3.639c-1.386-0.554-3.479,0.577-3.642,2.34c-1.4-1.171-3.579-0.922-4.421,0.657 c-0.205-1.512-2.474-2.376-3.689-1.32c-0.12-1.369-1.574-2.552-2.94-2.374c0.766-1.734-0.373-4.072-2.27-4.428 c2.136-1.903,1.689-5.797,0.373-7.027c2.641-6.487-1.07-10.453-4.2-10.457C10.819,5.147,12.641,7.882,8.655,11.874z"/><path fill="#2ea604" d="M8.68,11.91c-2.068,1.865-3.503,6.391-1.629,10.788c-1.719,3.33-0.58,8.251,2.405,10.011 c0.384,3.302,2.788,5.593,6.433,5.518c0.724,2.123,4.943,3.353,7.738,1.834c4.477,1.529,7.721,0.547,9.248-2.817 c2.212,0.424,5.685-1.657,5.65-5.56c1.595-0.654,2.832-3.094,2.196-5.555c1.638-1.73,1.399-4.921,0.185-6.19 c-0.69-5.571-3.701-6.806-4.733-6.801c-0.454,0.004-0.352,3.355,0.123,6.619c-0.996,0.827-1.298,2.879-0.704,4.366 c-1.401,0.077-2.659,1.986-2.369,3.643c-1.39-0.553-3.488,0.582-3.65,2.346c-1.401-1.168-3.58-0.921-4.431,0.657 c-0.215-1.511-2.483-2.375-3.697-1.319c-0.12-1.369-1.58-2.555-2.946-2.377c0.764-1.737-0.379-4.081-2.275-4.437 c2.136-1.903,1.678-5.805,0.359-7.03c2.628-6.44-1.045-10.413-4.152-10.419C10.833,5.19,12.644,7.938,8.68,11.91z"/><path fill="#2fa605" d="M8.704,11.946c-2.068,1.865-3.491,6.392-1.593,10.759c-1.718,3.315-0.577,8.232,2.413,9.972 c0.376,3.28,2.774,5.578,6.407,5.49c0.714,2.121,4.929,3.355,7.707,1.83c4.457,1.534,7.687,0.564,9.214-2.8 c2.204,0.431,5.678-1.65,5.639-5.537c1.605-0.649,2.839-3.09,2.199-5.54c1.64-1.719,1.401-4.918,0.186-6.179 c-0.674-5.538-3.664-6.783-4.692-6.777c-0.454,0.004-0.35,3.349,0.124,6.596c-0.994,0.828-1.296,2.884-0.702,4.372 c-1.399,0.08-2.659,1.987-2.368,3.646c-1.395-0.552-3.498,0.587-3.658,2.353C28.18,28.967,26,29.212,25.14,30.789 c-0.224-1.51-2.491-2.374-3.706-1.317c-0.12-1.369-1.586-2.558-2.951-2.38c0.763-1.74-0.384-4.09-2.28-4.445 c2.136-1.903,1.668-5.814,0.346-7.033c2.616-6.393-1.02-10.373-4.103-10.381C10.847,5.233,12.647,7.995,8.704,11.946z"/><path fill="#30a706" d="M8.728,11.982c-2.068,1.865-3.479,6.394-1.557,10.729c-1.718,3.3-0.574,8.213,2.42,9.932 c0.369,3.258,2.759,5.564,6.382,5.462c0.704,2.12,4.914,3.357,7.677,1.826c4.437,1.54,7.653,0.581,9.179-2.784 c2.197,0.437,5.671-1.643,5.627-5.514c1.614-0.645,2.846-3.085,2.203-5.525c1.642-1.707,1.402-4.915,0.188-6.168 c-0.657-5.505-3.628-6.763-4.652-6.753c-0.454,0.004-0.348,3.342,0.125,6.574c-0.993,0.83-1.294,2.89-0.7,4.378 c-1.397,0.084-2.66,1.988-2.366,3.65c-1.4-0.551-3.507,0.591-3.665,2.359c-1.401-1.161-3.582-0.918-4.45,0.658 c-0.233-1.509-2.499-2.373-3.714-1.316c-0.12-1.369-1.592-2.561-2.957-2.383c0.762-1.744-0.39-4.099-2.285-4.454 c2.136-1.903,1.658-5.823,0.332-7.036c2.604-6.346-0.996-10.334-4.054-10.343C10.861,5.275,12.651,8.051,8.728,11.982z"/><path fill="#31a707" d="M8.753,12.018c-2.068,1.865-3.467,6.395-1.521,10.7c-1.717,3.285-0.571,8.194,2.428,9.892 c0.362,3.235,2.745,5.549,6.356,5.434c0.694,2.118,4.9,3.359,7.647,1.822c4.418,1.545,7.619,0.597,9.145-2.767 c2.189,0.444,5.664-1.635,5.615-5.491c1.624-0.64,2.853-3.081,2.206-5.51c1.644-1.695,1.404-4.913,0.19-6.157 c-0.64-5.472-3.592-6.741-4.612-6.729c-0.454,0.005-0.345,3.336,0.126,6.551c-0.991,0.831-1.292,2.896-0.698,4.384 c-1.395,0.087-2.66,1.988-2.365,3.654c-1.405-0.55-3.516,0.596-3.673,2.366c-1.401-1.158-3.583-0.917-4.46,0.659 c-0.243-1.508-2.508-2.372-3.722-1.315c-0.12-1.369-1.597-2.565-2.963-2.386c0.76-1.747-0.395-4.108-2.29-4.463 c2.136-1.903,1.648-5.832,0.318-7.039c2.591-6.299-0.971-10.294-4.006-10.305C10.876,5.318,12.654,8.108,8.753,12.018z"/><path fill="#31a808" d="M8.777,12.055c-2.068,1.865-3.455,6.397-1.486,10.671c-1.717,3.27-0.568,8.175,2.435,9.852 c0.354,3.213,2.73,5.535,6.33,5.405c0.685,2.117,4.886,3.362,7.617,1.818c4.398,1.55,7.585,0.614,9.111-2.75 c2.181,0.45,5.658-1.628,5.603-5.468c1.633-0.635,2.86-3.077,2.21-5.495c1.646-1.683,1.405-4.91,0.192-6.147 c-0.624-5.439-3.555-6.718-4.571-6.705c-0.454,0.006-0.343,3.329,0.127,6.528c-0.99,0.832-1.29,2.902-0.697,4.39 c-1.393,0.09-2.66,1.989-2.364,3.657c-1.409-0.549-3.525,0.6-3.68,2.373c-1.401-1.155-3.583-0.916-4.47,0.66 c-0.252-1.507-2.516-2.371-3.73-1.314c-0.12-1.369-1.603-2.568-2.969-2.39c0.759-1.75-0.401-4.117-2.295-4.471 c2.136-1.903,1.637-5.841,0.304-7.042c2.579-6.252-0.946-10.255-3.957-10.266C10.89,5.361,12.658,8.164,8.777,12.055z"/><path fill="#32a909" d="M8.802,12.091c-2.068,1.865-3.442,6.398-1.45,10.641c-1.716,3.255-0.565,8.156,2.443,9.813 c0.347,3.191,2.716,5.52,6.304,5.377c0.675,2.115,4.871,3.364,7.586,1.814c4.378,1.555,7.551,0.631,9.077-2.734 c2.174,0.457,5.651-1.621,5.591-5.445c1.642-0.631,2.867-3.072,2.213-5.48c1.648-1.671,1.407-4.907,0.194-6.136 c-0.607-5.406-3.519-6.696-4.531-6.681c-0.454,0.007-0.341,3.323,0.128,6.505c-0.988,0.833-1.288,2.908-0.695,4.396 c-1.391,0.094-2.661,1.99-2.362,3.661c-1.414-0.548-3.534,0.605-3.688,2.379c-1.401-1.152-3.584-0.915-4.48,0.66 c-0.261-1.506-2.524-2.37-3.738-1.313c-0.12-1.369-1.609-2.571-2.974-2.393c0.758-1.753-0.406-4.126-2.3-4.48 c2.136-1.903,1.627-5.849,0.29-7.045c2.566-6.205-0.921-10.215-3.908-10.228C10.904,5.403,12.661,8.221,8.802,12.091z"/><path fill="#33a90a" d="M8.826,12.127c-2.068,1.865-3.43,6.399-1.414,10.612c-1.715,3.24-0.561,8.136,2.45,9.773 c0.34,3.169,2.701,5.505,6.278,5.349c0.665,2.114,4.857,3.366,7.556,1.81c4.358,1.56,7.517,0.647,9.043-2.717 c2.166,0.463,5.644-1.614,5.579-5.422c1.652-0.626,2.875-3.068,2.216-5.465c1.65-1.659,1.408-4.905,0.195-6.125 c-0.59-5.373-3.482-6.673-4.491-6.657c-0.454,0.007-0.339,3.316,0.129,6.482c-0.986,0.835-1.286,2.914-0.693,4.402 c-1.389,0.097-2.661,1.99-2.361,3.665c-1.419-0.547-3.544,0.609-3.696,2.386c-1.401-1.149-3.585-0.914-4.49,0.661 c-0.271-1.505-2.533-2.369-3.746-1.311c-0.12-1.369-1.615-2.574-2.98-2.396c0.756-1.756-0.412-4.134-2.305-4.489 c2.136-1.903,1.617-5.858,0.277-7.047c2.554-6.158-0.896-10.175-3.86-10.19C10.918,5.446,12.664,8.277,8.826,12.127z"/><path fill="#34aa0b" d="M8.851,12.163c-2.068,1.865-3.418,6.401-1.378,10.583c-1.715,3.225-0.558,8.117,2.458,9.733 c0.332,3.147,2.687,5.491,6.253,5.321c0.655,2.113,4.843,3.369,7.526,1.806c4.339,1.565,7.483,0.664,9.009-2.7 c2.158,0.47,5.637-1.607,5.568-5.4c1.661-0.622,2.882-3.064,2.22-5.45c1.652-1.647,1.41-4.902,0.197-6.114 c-0.573-5.34-3.446-6.651-4.45-6.633c-0.454,0.008-0.337,3.31,0.13,6.459c-0.985,0.836-1.284,2.92-0.691,4.408 c-1.387,0.1-2.661,1.991-2.36,3.668c-1.423-0.546-3.553,0.614-3.703,2.392c-1.401-1.145-3.586-0.913-4.5,0.661 c-0.28-1.504-2.541-2.368-3.754-1.31c-0.12-1.369-1.62-2.577-2.986-2.399c0.755-1.759-0.417-4.143-2.31-4.498 c2.136-1.903,1.607-5.867,0.263-7.05C18.882,9.53,15.47,5.505,12.53,5.489C10.932,5.489,12.668,8.334,8.851,12.163z"/><path fill="#35ab0c" d="M8.875,12.199c-2.068,1.865-3.406,6.402-1.342,10.553c-1.714,3.21-0.555,8.098,2.465,9.693 c0.325,3.124,2.672,5.476,6.227,5.293c0.645,2.111,4.829,3.371,7.496,1.803c4.319,1.57,7.448,0.681,8.975-2.684 c2.151,0.476,5.63-1.6,5.556-5.377c1.671-0.617,2.889-3.059,2.223-5.435c1.654-1.636,1.412-4.899,0.199-6.104 c-0.557-5.307-3.409-6.629-4.41-6.609c-0.454,0.009-0.335,3.303,0.131,6.437c-0.983,0.837-1.282,2.926-0.689,4.414 c-1.385,0.104-2.662,1.992-2.358,3.672c-1.428-0.545-3.562,0.619-3.711,2.399c-1.401-1.142-3.587-0.912-4.51,0.662 c-0.289-1.503-2.549-2.367-3.762-1.309c-0.12-1.369-1.626-2.581-2.992-2.402c0.753-1.762-0.422-4.152-2.315-4.506 c2.136-1.903,1.596-5.876,0.249-7.053c2.529-6.064-0.846-10.096-3.762-10.114C10.946,5.532,12.671,8.391,8.875,12.199z"/><path fill="#35ab0d" d="M8.899,12.236C6.831,14.1,5.506,18.639,7.593,22.759c-1.714,3.195-0.552,8.079,2.472,9.654 c0.318,3.102,2.658,5.461,6.201,5.265c0.635,2.11,4.814,3.373,7.465,1.799c4.299,1.576,7.414,0.697,8.941-2.667 c2.143,0.483,5.623-1.593,5.544-5.354c1.68-0.612,2.896-3.055,2.227-5.42c1.656-1.624,1.413-4.897,0.201-6.093 c-0.54-5.274-3.373-6.606-4.37-6.585c-0.453,0.01-0.333,3.297,0.132,6.414c-0.982,0.838-1.281,2.932-0.687,4.42 c-1.382,0.107-2.662,1.992-2.357,3.676c-1.433-0.544-3.571,0.623-3.719,2.405c-1.401-1.139-3.588-0.911-4.52,0.663 c-0.299-1.502-2.558-2.365-3.77-1.308c-0.12-1.369-1.632-2.584-2.997-2.406c0.752-1.765-0.428-4.161-2.32-4.515 c2.136-1.903,1.586-5.884,0.235-7.056c2.516-6.017-0.822-10.057-3.714-10.076C10.96,5.574,12.674,8.447,8.899,12.236z"/><path fill="#36ac0e" d="M8.924,12.272c-2.068,1.865-3.381,6.405-1.271,10.495c-1.713,3.18-0.549,8.06,2.48,9.614 c0.31,3.08,2.643,5.447,6.175,5.236c0.625,2.108,4.8,3.375,7.435,1.795c4.279,1.581,7.38,0.714,8.907-2.65 c2.135,0.49,5.617-1.586,5.532-5.331c1.689-0.608,2.903-3.051,2.23-5.405c1.658-1.612,1.415-4.894,0.202-6.082 c-0.523-5.241-3.336-6.584-4.329-6.561c-0.453,0.01-0.331,3.29,0.133,6.391c-0.98,0.84-1.279,2.938-0.685,4.426 c-1.38,0.11-2.662,1.993-2.356,3.679c-1.438-0.543-3.58,0.628-3.726,2.412c-1.402-1.136-3.589-0.91-4.53,0.663 c-0.308-1.501-2.566-2.364-3.778-1.306c-0.12-1.369-1.638-2.587-3.003-2.409c0.751-1.768-0.433-4.17-2.325-4.524 c2.136-1.903,1.576-5.893,0.222-7.059c2.504-5.97-0.797-10.017-3.665-10.037C10.975,5.617,12.678,8.504,8.924,12.272z"/><path fill="#37ac0f" d="M8.948,12.308c-2.068,1.865-3.369,6.407-1.235,10.465c-1.713,3.165-0.546,8.04,2.487,9.574 c0.303,3.058,2.629,5.432,6.15,5.208c0.615,2.107,4.786,3.378,7.405,1.791c4.26,1.586,7.346,0.731,8.873-2.634 c2.128,0.496,5.61-1.579,5.52-5.308c1.699-0.603,2.91-3.046,2.234-5.39c1.66-1.6,1.416-4.892,0.204-6.071 c-0.507-5.209-3.3-6.562-4.289-6.537c-0.453,0.011-0.329,3.284,0.134,6.368c-0.979,0.841-1.277,2.944-0.683,4.432 c-1.378,0.113-2.663,1.994-2.355,3.683c-1.442-0.542-3.59,0.632-3.734,2.418c-1.402-1.132-3.59-0.909-4.539,0.664 c-0.317-1.5-2.575-2.363-3.786-1.305c-0.12-1.369-1.643-2.59-3.009-2.412c0.749-1.771-0.439-4.179-2.33-4.533 c2.136-1.903,1.566-5.902,0.208-7.062c2.492-5.923-0.772-9.977-3.616-9.999C10.989,5.66,12.681,8.56,8.948,12.308z"/><path fill="#38ad10" d="M8.973,12.344c-2.068,1.865-3.357,6.408-1.199,10.436c-1.712,3.15-0.543,8.021,2.495,9.534 c0.296,3.036,2.614,5.418,6.124,5.18c0.605,2.105,4.771,3.38,7.375,1.787c4.24,1.591,7.312,0.747,8.838-2.617 c2.12,0.503,5.603-1.572,5.508-5.285c1.708-0.598,2.917-3.042,2.237-5.375c1.662-1.588,1.418-4.889,0.206-6.061 c-0.49-5.176-3.263-6.539-4.249-6.513c-0.453,0.012-0.326,3.277,0.135,6.345c-0.977,0.842-1.275,2.95-0.681,4.438 c-1.376,0.117-2.663,1.994-2.353,3.687c-1.447-0.541-3.599,0.637-3.741,2.425c-1.402-1.129-3.591-0.908-4.549,0.665 c-0.327-1.498-2.583-2.362-3.794-1.304c-0.12-1.369-1.649-2.593-3.015-2.415c0.748-1.775-0.444-4.188-2.335-4.541 c2.136-1.903,1.555-5.911,0.194-7.065c2.479-5.876-0.747-9.938-3.567-9.961C11.003,5.702,12.685,8.617,8.973,12.344z"/><path fill="#39ae11" d="M8.997,12.38c-2.068,1.865-3.345,6.41-1.163,10.406c-1.712,3.134-0.54,8.002,2.502,9.495 c0.288,3.014,2.6,5.403,6.098,5.152c0.595,2.104,4.757,3.382,7.344,1.783c4.22,1.596,7.278,0.764,8.804-2.6 c2.112,0.509,5.596-1.565,5.497-5.262c1.718-0.594,2.925-3.038,2.24-5.36c1.664-1.576,1.419-4.886,0.208-6.05 c-0.473-5.143-3.227-6.517-4.208-6.489c-0.453,0.013-0.324,3.271,0.136,6.322c-0.976,0.844-1.273,2.956-0.679,4.444 c-1.374,0.12-2.663,1.995-2.352,3.69c-1.452-0.54-3.608,0.642-3.749,2.431c-1.402-1.126-3.591-0.907-4.559,0.665 c-0.336-1.497-2.591-2.361-3.803-1.303c-0.12-1.369-1.655-2.597-3.021-2.418c0.747-1.778-0.45-4.197-2.34-4.55 c2.136-1.903,1.545-5.92,0.18-7.068C18.6,9.84,15.411,5.77,12.615,5.745C11.017,5.745,12.688,8.673,8.997,12.38z"/><path fill="#39ae12" d="M9.022,12.416c-2.068,1.865-3.333,6.411-1.128,10.377c-1.711,3.119-0.537,7.983,2.51,9.455 c0.281,2.991,2.585,5.388,6.072,5.124c0.586,2.102,4.743,3.385,7.314,1.779c4.201,1.601,7.244,0.781,8.77-2.584 c2.105,0.516,5.589-1.558,5.485-5.239c1.727-0.589,2.932-3.033,2.244-5.345c1.666-1.564,1.421-4.884,0.209-6.039 c-0.457-5.11-3.19-6.494-4.168-6.465c-0.453,0.013-0.322,3.264,0.137,6.3c-0.974,0.845-1.271,2.962-0.677,4.449 c-1.372,0.123-2.664,1.996-2.351,3.694c-1.456-0.539-3.617,0.646-3.757,2.438c-1.402-1.123-3.592-0.906-4.569,0.666 c-0.346-1.496-2.6-2.36-3.811-1.302c-0.12-1.369-1.661-2.6-3.026-2.422c0.745-1.781-0.455-4.206-2.345-4.559 c2.136-1.903,1.535-5.928,0.166-7.07c2.454-5.782-0.697-9.858-3.47-9.885C11.031,5.788,12.691,8.73,9.022,12.416z"/><path fill="#3aaf13" d="M9.046,12.453c-2.068,1.865-3.32,6.412-1.092,10.348c-1.711,3.104-0.534,7.964,2.517,9.415 c0.274,2.969,2.571,5.374,6.046,5.096c0.576,2.101,4.728,3.387,7.284,1.775c4.181,1.606,7.21,0.797,8.736-2.567 c2.097,0.522,5.583-1.551,5.473-5.216c1.736-0.585,2.939-3.029,2.247-5.33c1.668-1.552,1.423-4.881,0.211-6.028 c-0.44-5.077-3.154-6.472-4.128-6.441c-0.453,0.014-0.32,3.258,0.138,6.277c-0.972,0.846-1.269,2.968-0.675,4.455 c-1.37,0.127-2.664,1.996-2.349,3.698c-1.461-0.538-3.626,0.651-3.764,2.444c-1.402-1.12-3.593-0.905-4.579,0.666 c-0.355-1.495-2.608-2.359-3.819-1.3c-0.12-1.369-1.667-2.603-3.032-2.425c0.744-1.784-0.461-4.215-2.35-4.568 c2.136-1.903,1.525-5.937,0.153-7.073c2.442-5.734-0.672-9.819-3.421-9.847C11.045,5.831,12.695,8.786,9.046,12.453z"/><path fill="#3bb014" d="M9.07,12.489c-2.068,1.865-3.308,6.414-1.056,10.318c-1.71,3.089-0.531,7.945,2.525,9.375 c0.266,2.947,2.556,5.359,6.021,5.068c0.566,2.1,4.714,3.389,7.254,1.771c4.161,1.612,7.176,0.814,8.702-2.55 c2.089,0.529,5.576-1.544,5.461-5.193c1.746-0.58,2.946-3.025,2.251-5.315c1.67-1.541,1.424-4.878,0.213-6.018 c-0.423-5.044-3.117-6.449-4.087-6.417c-0.453,0.015-0.318,3.251,0.139,6.254c-0.971,0.847-1.267,2.974-0.673,4.461 c-1.368,0.13-2.664,1.997-2.348,3.701c-1.466-0.538-3.636,0.655-3.772,2.451c-1.402-1.116-3.594-0.904-4.589,0.667 c-0.364-1.494-2.616-2.358-3.827-1.299c-0.12-1.369-1.672-2.606-3.038-2.428c0.742-1.787-0.466-4.223-2.355-4.576 c2.136-1.903,1.514-5.946,0.139-7.076c2.429-5.687-0.648-9.779-3.373-9.809C11.059,5.873,12.698,8.843,9.07,12.489z"/><path fill="#3cb015" d="M9.095,12.525c-2.068,1.865-3.296,6.415-1.02,10.289c-1.709,3.074-0.528,7.925,2.532,9.336 c0.259,2.925,2.542,5.344,5.995,5.039c0.556,2.098,4.7,3.391,7.223,1.767c4.141,1.617,7.142,0.831,8.668-2.534 c2.082,0.535,5.569-1.536,5.449-5.17c1.755-0.575,2.953-3.02,2.254-5.3c1.672-1.529,1.426-4.876,0.215-6.007 c-0.406-5.011-3.081-6.427-4.047-6.393c-0.453,0.016-0.316,3.245,0.14,6.231c-0.969,0.849-1.265,2.98-0.671,4.467 c-1.366,0.133-2.665,1.998-2.347,3.705c-1.471-0.537-3.645,0.66-3.779,2.457c-1.402-1.113-3.595-0.903-4.599,0.668 c-0.374-1.493-2.625-2.357-3.835-1.298c-0.12-1.369-1.678-2.609-3.044-2.431c0.741-1.79-0.472-4.232-2.36-4.585 c2.136-1.903,1.504-5.955,0.125-7.079c2.417-5.64-0.623-9.74-3.324-9.77C11.074,5.916,12.702,8.899,9.095,12.525z"/><path fill="#3db116" d="M9.119,12.561c-2.068,1.865-3.284,6.417-0.984,10.26c-1.709,3.059-0.525,7.906,2.539,9.296 c0.252,2.903,2.527,5.33,5.969,5.011c0.546,2.097,4.685,3.394,7.193,1.763c4.122,1.622,7.107,0.847,8.634-2.517 c2.074,0.542,5.562-1.529,5.437-5.147c1.765-0.571,2.96-3.016,2.258-5.285c1.674-1.517,1.427-4.873,0.216-5.996 c-0.39-4.978-3.045-6.405-4.007-6.369c-0.453,0.017-0.314,3.238,0.141,6.208c-0.968,0.85-1.263,2.986-0.669,4.473 c-1.364,0.137-2.665,1.998-2.345,3.709c-1.475-0.536-3.654,0.664-3.787,2.464c-1.402-1.11-3.596-0.902-4.609,0.668 c-0.383-1.492-2.633-2.356-3.843-1.297c-0.12-1.369-1.684-2.612-3.049-2.434c0.74-1.793-0.477-4.241-2.365-4.594 c2.136-1.903,1.494-5.963,0.111-7.082c2.404-5.593-0.598-9.7-3.275-9.732C11.088,5.959,12.705,8.956,9.119,12.561z"/><path fill="#3db217" d="M9.144,12.597c-2.068,1.865-3.271,6.418-0.949,10.23c-1.708,3.044-0.521,7.887,2.547,9.256 c0.244,2.88,2.513,5.315,5.943,4.983c0.536,2.095,4.671,3.396,7.163,1.759c4.102,1.627,7.073,0.864,8.6-2.5 c2.066,0.548,5.555-1.522,5.426-5.125c1.774-0.566,2.967-3.011,2.261-5.27c1.676-1.505,1.429-4.87,0.218-5.985 C39.98,15,37.345,13.563,36.386,13.6c-0.453,0.017-0.312,3.232,0.142,6.185c-0.966,0.851-1.261,2.992-0.667,4.479 c-1.362,0.14-2.665,1.999-2.344,3.712c-1.48-0.535-3.663,0.669-3.795,2.47c-1.402-1.107-3.597-0.901-4.618,0.669 c-0.392-1.491-2.641-2.355-3.851-1.296c-0.12-1.369-1.69-2.616-3.055-2.438c0.738-1.796-0.483-4.25-2.37-4.602 c2.136-1.903,1.484-5.972,0.097-7.085c2.392-5.546-0.573-9.66-3.227-9.694C11.102,6.001,12.708,9.012,9.144,12.597z"/><path fill="#3eb218" d="M9.168,12.634c-2.068,1.865-3.259,6.42-0.913,10.201c-1.708,3.029-0.518,7.868,2.554,9.216 c0.237,2.858,2.498,5.3,5.917,4.955c0.526,2.094,4.657,3.398,7.133,1.755c4.082,1.632,7.039,0.881,8.566-2.484 c2.059,0.555,5.548-1.515,5.414-5.102c1.784-0.561,2.975-3.007,2.265-5.255c1.678-1.493,1.43-4.868,0.22-5.975 c-0.356-4.912-2.972-6.36-3.926-6.321c-0.453,0.018-0.31,3.225,0.143,6.163c-0.965,0.853-1.259,2.998-0.665,4.485 c-1.359,0.143-2.666,1.999-2.343,3.716c-1.485-0.534-3.672,0.674-3.802,2.477c-1.403-1.103-3.598-0.9-4.628,0.669 c-0.402-1.49-2.65-2.354-3.859-1.294c-0.12-1.369-1.695-2.619-3.061-2.441c0.737-1.799-0.488-4.259-2.374-4.611 c2.136-1.903,1.473-5.981,0.084-7.088c2.38-5.499-0.548-9.621-3.178-9.656C11.116,6.044,12.712,9.069,9.168,12.634z"/><path fill="#3fb319" d="M9.192,12.67c-2.068,1.865-3.247,6.421-0.877,10.172c-1.707,3.014-0.515,7.849,2.562,9.177 c0.23,2.836,2.484,5.286,5.892,4.927c0.516,2.092,4.642,3.401,7.102,1.751c4.062,1.637,7.005,0.897,8.532-2.467 c2.051,0.562,5.542-1.508,5.402-5.079c1.793-0.557,2.982-3.003,2.268-5.24c1.68-1.481,1.432-4.865,0.222-5.964 c-0.34-4.879-2.935-6.337-3.886-6.297c-0.452,0.019-0.308,3.219,0.144,6.14c-0.963,0.854-1.257,3.004-0.663,4.491 c-1.357,0.147-2.666,2-2.342,3.72c-1.489-0.533-3.682,0.678-3.81,2.483c-1.403-1.1-3.599-0.898-4.638,0.67 c-0.411-1.489-2.658-2.353-3.867-1.293c-0.12-1.369-1.701-2.622-3.067-2.444c0.736-1.802-0.493-4.268-2.379-4.62 c2.136-1.903,1.463-5.99,0.07-7.091c2.367-5.452-0.523-9.581-3.129-9.618C11.13,6.087,12.715,9.125,9.192,12.67z"/><path fill="#40b31a" d="M9.217,12.706c-2.068,1.865-3.235,6.423-0.841,10.142c-1.707,2.999-0.512,7.829,2.569,9.137 c0.222,2.814,2.469,5.271,5.866,4.899c0.506,2.091,4.628,3.403,7.072,1.747c4.043,1.642,6.971,0.914,8.497-2.45 c2.043,0.568,5.535-1.501,5.39-5.056c1.802-0.552,2.989-2.998,2.271-5.226c1.683-1.469,1.434-4.863,0.223-5.953 c-0.323-4.846-2.899-6.315-3.845-6.273c-0.452,0.02-0.305,3.212,0.145,6.117c-0.962,0.855-1.255,3.01-0.661,4.497 c-1.355,0.15-2.666,2.001-2.34,3.723c-1.494-0.532-3.691,0.683-3.817,2.49c-1.403-1.097-3.6-0.897-4.648,0.671 c-0.42-1.488-2.667-2.352-3.875-1.292c-0.12-1.369-1.707-2.625-3.072-2.447c0.734-1.805-0.499-4.277-2.384-4.629 c2.136-1.903,1.453-5.999,0.056-7.093c2.355-5.405-0.499-9.542-3.081-9.58C11.144,6.13,12.719,9.182,9.217,12.706z"/><path fill="#41b41b" d="M9.241,12.742c-2.068,1.865-3.223,6.424-0.805,10.113c-1.706,2.984-0.509,7.81,2.577,9.097 c0.215,2.792,2.455,5.257,5.84,4.87c0.496,2.089,4.614,3.405,7.042,1.743c4.023,1.648,6.937,0.931,8.463-2.434 c2.036,0.575,5.528-1.494,5.378-5.033c1.812-0.548,2.996-2.994,2.275-5.211c1.685-1.457,1.435-4.86,0.225-5.942 c-0.306-4.813-2.862-6.292-3.805-6.249c-0.452,0.02-0.303,3.206,0.146,6.094c-0.96,0.856-1.253,3.016-0.659,4.503 c-1.353,0.153-2.667,2.001-2.339,3.727c-1.499-0.531-3.7,0.687-3.825,2.496c-1.403-1.094-3.6-0.896-4.658,0.671 c-0.43-1.487-2.675-2.35-3.883-1.291c-0.12-1.369-1.713-2.628-3.078-2.45c0.733-1.809-0.504-4.286-2.389-4.637 c2.136-1.903,1.443-6.007,0.042-7.096c2.342-5.358-0.474-9.502-3.032-9.542C11.158,6.172,12.722,9.238,9.241,12.742z"/><path fill="#41b51c" d="M9.266,12.778c-2.068,1.865-3.21,6.426-0.769,10.084c-1.706,2.969-0.506,7.791,2.584,9.057 c0.208,2.77,2.44,5.242,5.814,4.842c0.487,2.088,4.599,3.408,7.012,1.739c4.003,1.653,6.903,0.947,8.429-2.417 c2.028,0.581,5.521-1.487,5.366-5.01c1.821-0.543,3.003-2.99,2.278-5.196c1.687-1.446,1.437-4.857,0.227-5.932 c-0.289-4.78-2.826-6.27-3.765-6.225c-0.452,0.021-0.301,3.199,0.147,6.071c-0.959,0.858-1.251,3.022-0.657,4.509 c-1.351,0.157-2.667,2.002-2.338,3.731c-1.504-0.53-3.709,0.692-3.833,2.503c-1.403-1.091-3.601-0.895-4.668,0.672 c-0.439-1.486-2.683-2.349-3.891-1.29c-0.12-1.369-1.718-2.632-3.084-2.454c0.731-1.812-0.51-4.295-2.394-4.646 c2.136-1.903,1.432-6.016,0.028-7.099c2.33-5.311-0.449-9.462-2.983-9.503C11.172,6.215,12.725,9.295,9.266,12.778z"/><path fill="#42b51d" d="M9.29,12.815c-2.068,1.865-3.198,6.427-0.734,10.054c-1.705,2.954-0.503,7.772,2.592,9.018 c0.2,2.747,2.426,5.227,5.789,4.814c0.477,2.086,4.585,3.41,6.981,1.735c3.983,1.658,6.869,0.964,8.395-2.4 c2.02,0.588,5.514-1.48,5.355-4.987c1.831-0.538,3.01-2.985,2.282-5.181c1.689-1.434,1.438-4.855,0.229-5.921 c-0.273-4.747-2.789-6.247-3.724-6.201c-0.452,0.022-0.299,3.193,0.148,6.048c-0.957,0.859-1.249,3.028-0.655,4.515 c-1.349,0.16-2.667,2.003-2.336,3.734c-1.508-0.529-3.718,0.697-3.84,2.51c-1.403-1.087-3.602-0.894-4.678,0.673 c-0.449-1.485-2.692-2.348-3.899-1.288c-0.12-1.369-1.724-2.635-3.09-2.457c0.73-1.815-0.515-4.304-2.399-4.655 c2.136-1.903,1.422-6.025,0.015-7.102c2.317-5.264-0.424-9.423-2.935-9.465C11.187,6.258,12.729,9.352,9.29,12.815z"/><path fill="#43b61e" d="M9.315,12.851c-2.068,1.865-3.186,6.428-0.698,10.025c-1.705,2.939-0.5,7.753,2.599,8.978 c0.193,2.725,2.411,5.213,5.763,4.786c0.467,2.085,4.571,3.412,6.951,1.731c3.964,1.663,6.835,0.981,8.361-2.384 c2.013,0.594,5.508-1.473,5.343-4.964c1.84-0.534,3.017-2.981,2.285-5.166c1.691-1.422,1.44-4.852,0.23-5.91 c-0.256-4.714-2.753-6.225-3.684-6.177c-0.452,0.023-0.297,3.186,0.15,6.025c-0.955,0.86-1.247,3.033-0.653,4.521 c-1.347,0.163-2.668,2.003-2.335,3.738c-1.513-0.528-3.728,0.701-3.848,2.516c-1.403-1.084-3.603-0.893-4.688,0.673 c-0.458-1.484-2.7-2.347-3.908-1.287c-0.12-1.369-1.73-2.638-3.096-2.46c0.729-1.818-0.521-4.313-2.404-4.664 c2.136-1.903,1.412-6.034,0.001-7.105c2.305-5.217-0.399-9.383-2.886-9.427C11.201,6.3,12.732,9.408,9.315,12.851z"/><path fill="#44b71f" d="M9.339,12.887c-2.068,1.865-3.174,6.43-0.662,9.996c-1.704,2.923-0.497,7.734,2.606,8.938 c0.186,2.703,2.397,5.198,5.737,4.758c0.457,2.084,4.556,3.414,6.921,1.727c3.944,1.668,6.8,0.997,8.327-2.367 c2.005,0.601,5.501-1.466,5.331-4.941c1.849-0.529,3.025-2.977,2.289-5.151c1.693-1.41,1.441-4.849,0.232-5.899 c-0.239-4.681-2.716-6.202-3.644-6.153c-0.452,0.024-0.295,3.18,0.151,6.003c-0.954,0.862-1.245,3.039-0.651,4.527 c-1.345,0.167-2.668,2.004-2.334,3.741c-1.518-0.527-3.737,0.706-3.856,2.523c-1.403-1.081-3.604-0.892-4.697,0.674 c-0.467-1.483-2.708-2.346-3.916-1.286c-0.12-1.369-1.736-2.641-3.101-2.463c0.727-1.821-0.526-4.321-2.409-4.672 c2.136-1.903,1.402-6.042-0.013-7.108c2.293-5.17-0.374-9.343-2.837-9.389C11.215,6.343,12.735,9.465,9.339,12.887z"/><path fill="#45b720" d="M9.363,12.923c-2.068,1.865-3.162,6.431-0.626,9.966c-1.703,2.908-0.494,7.714,2.614,8.898 c0.179,2.681,2.382,5.183,5.711,4.73c0.447,2.082,4.542,3.417,6.891,1.723c3.924,1.673,6.766,1.014,8.293-2.35 c1.997,0.607,5.494-1.459,5.319-4.918c1.859-0.524,3.032-2.972,2.292-5.136c1.695-1.398,1.443-4.847,0.234-5.889 c-0.223-4.648-2.68-6.18-3.603-6.13c-0.452,0.024-0.293,3.173,0.152,5.98c-0.952,0.863-1.243,3.045-0.649,4.533 c-1.343,0.17-2.668,2.005-2.332,3.745c-1.522-0.526-3.746,0.71-3.863,2.529c-1.403-1.078-3.605-0.891-4.707,0.674 c-0.477-1.482-2.717-2.345-3.924-1.285c-0.12-1.369-1.742-2.644-3.107-2.466c0.726-1.824-0.532-4.33-2.414-4.681 c2.136-1.903,1.391-6.051-0.027-7.111c2.28-5.123-0.349-9.304-2.789-9.351C11.229,6.386,12.739,9.521,9.363,12.923z"/><path fill="#45b821" d="M9.388,12.959c-2.068,1.865-3.149,6.433-0.59,9.937c-1.703,2.893-0.491,7.695,2.621,8.859 c0.171,2.659,2.367,5.169,5.685,4.701c0.437,2.081,4.528,3.419,6.86,1.719c3.905,1.678,6.732,1.031,8.259-2.334 c1.99,0.614,5.487-1.452,5.307-4.895c1.868-0.52,3.039-2.968,2.296-5.121c1.697-1.386,1.445-4.844,0.236-5.878 c-0.206-4.615-2.643-6.157-3.563-6.106c-0.452,0.025-0.291,3.167,0.153,5.957c-0.951,0.864-1.241,3.051-0.647,4.539 c-1.341,0.173-2.668,2.005-2.331,3.749c-1.527-0.525-3.755,0.715-3.871,2.536c-1.403-1.074-3.606-0.89-4.717,0.675 c-0.486-1.481-2.725-2.344-3.932-1.284c-0.12-1.369-1.747-2.648-3.113-2.47c0.724-1.827-0.537-4.339-2.419-4.69 c2.136-1.903,1.381-6.06-0.041-7.113c2.268-5.076-0.325-9.264-2.74-9.313C11.243,6.428,12.742,9.578,9.388,12.959z"/><path fill="#46b822" d="M9.412,12.996c-2.068,1.865-3.137,6.434-0.555,9.908c-1.702,2.878-0.488,7.676,2.629,8.819 c0.164,2.637,2.353,5.154,5.66,4.673c0.427,2.079,4.513,3.421,6.83,1.715c3.885,1.683,6.698,1.047,8.225-2.317 c1.982,0.62,5.48-1.445,5.295-4.872c1.878-0.515,3.046-2.964,2.299-5.106c1.699-1.374,1.446-4.841,0.237-5.867 c-0.189-4.582-2.607-6.134-3.523-6.082c-0.452,0.026-0.289,3.16,0.154,5.934c-0.949,0.865-1.239,3.057-0.645,4.545 c-1.339,0.177-2.669,2.006-2.33,3.752c-1.532-0.524-3.764,0.719-3.878,2.542c-1.403-1.071-3.607-0.889-4.727,0.676 c-0.495-1.479-2.733-2.343-3.94-1.282c-0.12-1.369-1.753-2.651-3.119-2.473c0.723-1.83-0.543-4.348-2.424-4.699 c2.136-1.903,1.371-6.069-0.054-7.116c2.255-5.029-0.3-9.225-2.691-9.275C11.257,6.471,12.746,9.634,9.412,12.996z"/><path fill="#47b923" d="M9.437,13.032c-2.068,1.865-3.125,6.436-0.519,9.878c-1.702,2.863-0.484,7.657,2.636,8.779 c0.157,2.614,2.338,5.14,5.634,4.645c0.417,2.078,4.499,3.424,6.8,1.711c3.865,1.689,6.664,1.064,8.19-2.3 c1.974,0.627,5.473-1.437,5.284-4.85c1.887-0.511,3.053-2.959,2.302-5.091c1.701-1.363,1.448-4.839,0.239-5.856 c-0.173-4.549-2.571-6.112-3.482-6.058c-0.452,0.027-0.286,3.154,0.155,5.911c-0.948,0.867-1.237,3.063-0.643,4.551 c-1.336,0.18-2.669,2.007-2.328,3.756c-1.537-0.523-3.774,0.724-3.886,2.549c-1.404-1.068-3.608-0.888-4.737,0.676 c-0.505-1.478-2.742-2.342-3.948-1.281c-0.12-1.369-1.759-2.654-3.124-2.476c0.722-1.833-0.548-4.357-2.429-4.707 c2.136-1.903,1.361-6.077-0.068-7.119c2.243-4.982-0.275-9.185-2.643-9.236C11.271,6.514,12.749,9.691,9.437,13.032z"/><path fill="#48ba24" d="M9.461,13.068c-2.068,1.865-3.113,6.437-0.483,9.849c-1.701,2.848-0.481,7.638,2.644,8.739 c0.149,2.592,2.324,5.125,5.608,4.617c0.407,2.076,4.485,3.426,6.769,1.707c3.845,1.694,6.63,1.081,8.156-2.284 c1.967,0.633,5.467-1.43,5.272-4.827c1.897-0.506,3.06-2.955,2.306-5.076c1.703-1.351,1.449-4.836,0.241-5.846 c-0.156-4.516-2.534-6.089-3.442-6.034c-0.452,0.028-0.284,3.147,0.156,5.888c-0.946,0.868-1.235,3.069-0.641,4.557 c-1.334,0.183-2.669,2.007-2.327,3.76c-1.541-0.522-3.783,0.729-3.894,2.555c-1.404-1.065-3.609-0.887-4.747,0.677 c-0.514-1.477-2.75-2.341-3.956-1.28c-0.12-1.369-1.765-2.657-3.13-2.479c0.72-1.836-0.553-4.366-2.434-4.716 c2.136-1.903,1.35-6.086-0.082-7.122c2.23-4.935-0.25-9.145-2.594-9.198C11.286,6.557,12.752,9.747,9.461,13.068z"/><path fill="#49ba25" d="M9.486,13.104c-2.068,1.865-3.1,6.439-0.447,9.82c-1.701,2.833-0.478,7.618,2.651,8.7 c0.142,2.57,2.309,5.11,5.582,4.589c0.397,2.075,4.47,3.428,6.739,1.703c3.826,1.699,6.596,1.097,8.122-2.267 c1.959,0.64,5.46-1.423,5.26-4.804c1.906-0.501,3.067-2.951,2.309-5.061c1.705-1.339,1.451-4.834,0.243-5.835 c-0.139-4.483-2.498-6.067-3.402-6.01c-0.451,0.029-0.282,3.141,0.157,5.866c-0.945,0.869-1.233,3.075-0.639,4.563 c-1.332,0.187-2.67,2.008-2.326,3.763c-1.546-0.521-3.792,0.733-3.901,2.562c-1.404-1.062-3.609-0.886-4.757,0.677 c-0.523-1.476-2.759-2.34-3.964-1.279c-0.12-1.369-1.77-2.66-3.136-2.482c0.719-1.839-0.559-4.375-2.439-4.725 c2.136-1.903,1.34-6.095-0.096-7.125c2.218-4.888-0.225-9.106-2.545-9.16C11.3,6.599,12.756,9.804,9.486,13.104z"/><path fill="#49bb26" d="M9.51,13.14c-2.068,1.865-3.088,6.44-0.411,9.79c-1.7,2.818-0.475,7.599,2.659,8.66 c0.135,2.548,2.295,5.096,5.556,4.561c0.388,2.073,4.456,3.43,6.709,1.699c3.806,1.704,6.562,1.114,8.088-2.25 c1.951,0.647,5.453-1.416,5.248-4.781c1.915-0.497,3.075-2.946,2.313-5.046c1.707-1.327,1.452-4.831,0.244-5.824 c-0.122-4.45-2.461-6.044-3.361-5.986c-0.451,0.029-0.28,3.134,0.158,5.843c-0.943,0.871-1.231,3.081-0.637,4.569 c-1.33,0.19-2.67,2.009-2.325,3.767c-1.551-0.521-3.801,0.738-3.909,2.568c-1.404-1.058-3.61-0.885-4.767,0.678 c-0.533-1.475-2.767-2.339-3.972-1.278c-0.12-1.369-1.776-2.664-3.142-2.485c0.718-1.843-0.564-4.384-2.444-4.733 c2.136-1.903,1.33-6.104-0.11-7.128c2.205-4.841-0.2-9.066-2.497-9.122C11.314,6.642,12.759,9.86,9.51,13.14z"/><path fill="#4abc27" d="M9.534,13.176c-2.068,1.865-3.076,6.441-0.376,9.761c-1.7,2.803-0.472,7.58,2.666,8.62 c0.127,2.526,2.28,5.081,5.531,4.532c0.378,2.072,4.442,3.433,6.679,1.695c3.786,1.709,6.528,1.131,8.054-2.234 c1.943,0.653,5.446-1.409,5.236-4.758c1.925-0.492,3.082-2.942,2.316-5.031c1.709-1.315,1.454-4.828,0.246-5.813 c-0.106-4.417-2.425-6.022-3.321-5.962c-0.451,0.03-0.278,3.128,0.159,5.82c-0.941,0.872-1.229,3.087-0.635,4.575 c-1.328,0.193-2.67,2.009-2.323,3.771c-1.555-0.52-3.81,0.742-3.916,2.575c-1.404-1.055-3.611-0.884-4.777,0.679 c-0.542-1.474-2.775-2.338-3.98-1.276c-0.12-1.369-1.782-2.667-3.148-2.489c0.716-1.846-0.57-4.393-2.449-4.742 c2.136-1.903,1.32-6.113-0.123-7.131c2.193-4.794-0.176-9.027-2.448-9.084C11.328,6.685,12.763,9.917,9.534,13.176z"/><path fill="#4bbc28" d="M9.559,13.213c-2.068,1.865-3.064,6.443-0.34,9.732c-1.699,2.788-0.469,7.561,2.673,8.58 c0.12,2.503,2.266,5.066,5.505,4.504c0.368,2.071,4.427,3.435,6.648,1.691c3.766,1.714,6.494,1.147,8.02-2.217 c1.936,0.66,5.439-1.402,5.225-4.735c1.934-0.488,3.089-2.938,2.32-5.016c1.711-1.303,1.456-4.826,0.248-5.803 c-0.089-4.384-2.388-5.999-3.281-5.938c-0.451,0.031-0.276,3.121,0.16,5.797c-0.94,0.873-1.227,3.093-0.633,4.581 c-1.326,0.196-2.671,2.01-2.322,3.774c-1.56-0.519-3.819,0.747-3.924,2.581c-1.404-1.052-3.612-0.883-4.786,0.679 c-0.552-1.473-2.784-2.337-3.988-1.275c-0.12-1.369-1.788-2.67-3.153-2.492c0.715-1.849-0.575-4.402-2.454-4.751 c2.136-1.903,1.309-6.121-0.137-7.134c2.181-4.747-0.151-8.987-2.399-9.046C11.342,6.727,12.766,9.973,9.559,13.213z"/><path fill="#4cbd29" d="M9.583,13.249c-2.068,1.865-3.052,6.444-0.304,9.702c-1.699,2.773-0.466,7.542,2.681,8.541 c0.113,2.481,2.251,5.052,5.479,4.476c0.358,2.069,4.413,3.437,6.618,1.687c3.747,1.719,6.459,1.164,7.986-2.2 c1.928,0.666,5.433-1.395,5.213-4.712c1.944-0.483,3.096-2.933,2.323-5.001c1.713-1.291,1.457-4.823,0.25-5.792 c-0.072-4.351-2.352-5.976-3.24-5.914c-0.451,0.032-0.274,3.115,0.161,5.774c-0.938,0.874-1.225,3.099-0.631,4.587 c-1.324,0.2-2.671,2.011-2.321,3.778c-1.565-0.518-3.829,0.752-3.932,2.588c-1.404-1.049-3.613-0.882-4.796,0.68 c-0.561-1.472-2.792-2.335-3.996-1.274c-0.12-1.369-1.794-2.673-3.159-2.495c0.713-1.852-0.581-4.411-2.459-4.76 c2.136-1.903,1.299-6.13-0.151-7.136c2.168-4.7-0.126-8.947-2.35-9.008C11.356,6.77,12.769,10.03,9.583,13.249z"/><path fill="#4dbe2a" d="M9.608,13.285c-2.068,1.865-3.039,6.446-0.268,9.673c-1.698,2.758-0.463,7.523,2.688,8.501 c0.105,2.459,2.237,5.037,5.453,4.448c0.348,2.068,4.399,3.44,6.588,1.683c3.727,1.725,6.425,1.181,7.952-2.184 c1.92,0.673,5.426-1.388,5.201-4.689c1.953-0.478,3.103-2.929,2.327-4.986c1.715-1.279,1.459-4.82,0.251-5.781 c-0.056-4.319-2.315-5.954-3.2-5.89c-0.451,0.033-0.272,3.108,0.162,5.751c-0.937,0.876-1.223,3.105-0.629,4.593 c-1.322,0.203-2.671,2.011-2.319,3.782c-1.569-0.517-3.838,0.756-3.939,2.594c-1.404-1.045-3.614-0.881-4.806,0.681 c-0.57-1.471-2.8-2.334-4.005-1.273c-0.12-1.369-1.799-2.676-3.165-2.498c0.712-1.855-0.586-4.419-2.464-4.768 c2.136-1.903,1.289-6.139-0.165-7.139c2.156-4.653-0.101-8.908-2.302-8.969C11.37,6.813,12.773,10.086,9.608,13.285z"/><path fill="#4dbe2b" d="M9.632,13.321c-2.068,1.865-3.027,6.447-0.232,9.644c-1.698,2.743-0.46,7.503,2.696,8.461 c0.098,2.437,2.222,5.023,5.428,4.42c0.338,2.066,4.385,3.442,6.558,1.679c3.707,1.73,6.391,1.197,7.918-2.167 c1.913,0.679,5.419-1.381,5.189-4.666c1.962-0.474,3.11-2.925,2.33-4.971c1.717-1.268,1.46-4.818,0.253-5.77 c-0.039-4.286-2.279-5.931-3.16-5.866c-0.451,0.034-0.27,3.102,0.163,5.729c-0.935,0.877-1.221,3.111-0.627,4.598 c-1.32,0.206-2.672,2.012-2.318,3.785c-1.574-0.516-3.847,0.761-3.947,2.601c-1.404-1.042-3.615-0.88-4.816,0.681 c-0.58-1.47-2.809-2.333-4.013-1.271c-0.12-1.369-1.805-2.68-3.171-2.501c0.711-1.858-0.592-4.428-2.469-4.777 c2.136-1.903,1.279-6.148-0.179-7.142c2.143-4.606-0.076-8.868-2.253-8.931C11.385,6.856,12.776,10.143,9.632,13.321z"/><path fill="#4ebf2c" d="M9.656,13.357c-2.068,1.865-3.015,6.449-0.196,9.614c-1.697,2.728-0.457,7.484,2.703,8.421 c0.091,2.415,2.208,5.008,5.402,4.392c0.328,2.065,4.37,3.444,6.527,1.675c3.688,1.735,6.357,1.214,7.884-2.15 c1.905,0.686,5.412-1.374,5.177-4.643c1.972-0.469,3.117-2.92,2.333-4.956c1.719-1.256,1.462-4.815,0.255-5.76 c-0.022-4.253-2.242-5.909-3.119-5.842c-0.451,0.034-0.268,3.095,0.164,5.706c-0.934,0.878-1.219,3.117-0.625,4.604 c-1.318,0.21-2.672,2.013-2.317,3.789c-1.579-0.515-3.856,0.765-3.954,2.607c-1.404-1.039-3.616-0.878-4.826,0.682 c-0.589-1.469-2.817-2.332-4.021-1.27c-0.12-1.369-1.811-2.683-3.176-2.505c0.709-1.861-0.597-4.437-2.474-4.786 c2.136-1.903,1.268-6.156-0.192-7.145c2.131-4.559-0.051-8.828-2.204-8.893C11.399,6.898,12.78,10.199,9.656,13.357z"/><path fill="#4fbf2d" d="M9.681,13.394c-2.068,1.865-3.003,6.45-0.161,9.585c-1.696,2.712-0.454,7.465,2.711,8.382 c0.083,2.393,2.193,4.993,5.376,4.363c0.318,2.063,4.356,3.446,6.497,1.671c3.668,1.74,6.323,1.231,7.849-2.134 c1.897,0.692,5.405-1.367,5.165-4.62c1.981-0.464,3.125-2.916,2.337-4.941c1.721-1.244,1.463-4.812,0.257-5.749 c-0.005-4.22-2.206-5.886-3.079-5.818c-0.451,0.035-0.265,3.089,0.165,5.683c-0.932,0.88-1.217,3.123-0.623,4.61 c-1.315,0.213-2.672,2.013-2.315,3.793c-1.584-0.514-3.865,0.77-3.962,2.614c-1.405-1.036-3.617-0.877-4.836,0.682 c-0.598-1.468-2.825-2.331-4.029-1.269c-0.12-1.369-1.817-2.686-3.182-2.508c0.708-1.864-0.603-4.446-2.478-4.795 c2.136-1.903,1.258-6.165-0.206-7.148c2.118-4.512-0.026-8.789-2.156-8.855C11.413,6.941,12.783,10.256,9.681,13.394z"/><path fill="#50c02e" d="M9.705,13.43c-2.068,1.865-2.991,6.452-0.125,9.556c-1.696,2.697-0.451,7.446,2.718,8.342 c0.076,2.37,2.179,4.979,5.35,4.335c0.308,2.062,4.342,3.449,6.467,1.668c3.648,1.745,6.289,1.247,7.815-2.117 c1.89,0.699,5.399-1.36,5.154-4.597c1.991-0.46,3.132-2.911,2.34-4.926c1.723-1.232,1.465-4.81,0.258-5.738 c0.011-4.187-2.17-5.863-3.039-5.794c-0.451,0.036-0.263,3.082,0.166,5.66c-0.931,0.881-1.215,3.129-0.621,4.616 c-1.313,0.216-2.673,2.014-2.314,3.796c-1.588-0.513-3.875,0.774-3.97,2.62c-1.405-1.033-3.618-0.876-4.846,0.683 c-0.608-1.467-2.834-2.33-4.037-1.268c-0.12-1.369-1.822-2.689-3.188-2.511c0.707-1.867-0.608-4.455-2.483-4.803 c2.136-1.903,1.248-6.174-0.22-7.151c2.106-4.465-0.002-8.749-2.107-8.817C11.427,6.984,12.786,10.313,9.705,13.43z"/><path fill="#51c12f" d="M9.73,13.466c-2.068,1.865-2.978,6.453-0.089,9.526c-1.695,2.682-0.447,7.427,2.726,8.302 c0.069,2.348,2.164,4.964,5.324,4.307c0.298,2.06,4.327,3.451,6.437,1.664c3.628,1.75,6.255,1.264,7.781-2.1 c1.882,0.705,5.392-1.353,5.142-4.575c2-0.455,3.139-2.907,2.344-4.911c1.725-1.22,1.467-4.807,0.26-5.727 c0.028-4.154-2.133-5.841-2.998-5.77c-0.451,0.037-0.261,3.076,0.167,5.637c-0.929,0.882-1.213,3.135-0.619,4.622 c-1.311,0.22-2.673,2.015-2.313,3.8c-1.593-0.512-3.884,0.779-3.977,2.627c-1.405-1.029-3.618-0.875-4.856,0.684 c-0.617-1.466-2.842-2.329-4.045-1.267c-0.12-1.369-1.828-2.692-3.194-2.514c0.705-1.87-0.614-4.464-2.488-4.812 c2.136-1.903,1.238-6.183-0.234-7.154c2.093-4.418,0.023-8.71-2.058-8.779C11.441,7.026,12.79,10.369,9.73,13.466z"/><path fill="#51c130" d="M9.754,13.502c-2.068,1.865-2.966,6.455-0.053,9.497c-1.695,2.667-0.444,7.407,2.733,8.262 c0.061,2.326,2.15,4.949,5.299,4.279c0.288,2.059,4.313,3.453,6.406,1.66c3.609,1.755,6.221,1.281,7.747-2.084 c1.874,0.712,5.385-1.346,5.13-4.552c2.009-0.451,3.146-2.903,2.347-4.896c1.727-1.208,1.468-4.805,0.262-5.717 c0.045-4.121-2.097-5.818-2.958-5.746c-0.451,0.038-0.259,3.069,0.168,5.614c-0.927,0.883-1.211,3.141-0.617,4.628 c-1.309,0.223-2.673,2.015-2.312,3.804c-1.598-0.511-3.893,0.784-3.985,2.633c-1.405-1.026-3.619-0.874-4.865,0.684 c-0.626-1.465-2.85-2.328-4.053-1.265c-0.12-1.369-1.834-2.696-3.199-2.517c0.704-1.874-0.619-4.473-2.493-4.821 c2.136-1.903,1.227-6.192-0.248-7.157c2.081-4.371,0.048-8.67-2.01-8.741C11.455,7.069,12.793,10.426,9.754,13.502z"/><path fill="#52c231" d="M9.779,13.538c-2.068,1.865-2.954,6.456-0.017,9.468c-1.694,2.652-0.441,7.388,2.74,8.223 c0.054,2.304,2.135,4.935,5.273,4.251c0.279,2.058,4.299,3.456,6.376,1.656c3.589,1.761,6.187,1.297,7.713-2.067 c1.867,0.719,5.378-1.339,5.118-4.529c2.019-0.446,3.153-2.898,2.351-4.881c1.729-1.196,1.47-4.802,0.264-5.706 c0.061-4.088-2.06-5.795-2.918-5.722c-0.45,0.039-0.257,3.063,0.169,5.591c-0.926,0.885-1.209,3.147-0.615,4.634 c-1.307,0.226-2.674,2.016-2.31,3.807c-1.602-0.51-3.902,0.788-3.993,2.64c-1.405-1.023-3.62-0.873-4.875,0.685 c-0.636-1.464-2.859-2.327-4.061-1.264c-0.12-1.369-1.84-2.699-3.205-2.521c0.702-1.877-0.624-4.482-2.498-4.83 c2.136-1.903,1.217-6.2-0.261-7.159c2.069-4.323,0.073-8.63-1.961-8.702C11.469,7.112,12.796,10.482,9.779,13.538z"/><path fill="#53c332" d="M9.803,13.575c-2.068,1.865-2.942,6.457,0.018,9.438c-1.694,2.637-0.438,7.369,2.748,8.183 c0.047,2.282,2.121,4.92,5.247,4.223c0.269,2.056,4.284,3.458,6.346,1.652c3.569,1.766,6.153,1.314,7.679-2.05 c1.859,0.725,5.371-1.331,5.106-4.506c2.028-0.441,3.16-2.894,2.354-4.866c1.731-1.184,1.471-4.799,0.265-5.695 c0.078-4.055-2.024-5.773-2.877-5.698c-0.45,0.04-0.255,3.056,0.17,5.569c-0.924,0.886-1.207,3.153-0.613,4.64 c-1.305,0.23-2.674,2.017-2.309,3.811c-1.607-0.509-3.911,0.793-4,2.646c-1.405-1.02-3.621-0.872-4.885,0.685 c-0.645-1.463-2.867-2.326-4.069-1.263c-0.12-1.369-1.845-2.702-3.211-2.524c0.701-1.88-0.63-4.491-2.503-4.838 c2.136-1.903,1.207-6.209-0.275-7.162c2.056-4.276,0.098-8.591-1.912-8.664C11.484,7.155,12.8,10.539,9.803,13.575z"/><path fill="#54c333" d="M9.827,13.611c-2.068,1.865-2.93,6.459,0.054,9.409c-1.693,2.622-0.435,7.35,2.755,8.143 c0.039,2.259,2.106,4.905,5.221,4.194c0.259,2.055,4.27,3.46,6.316,1.648c3.549,1.771,6.118,1.331,7.645-2.034 c1.851,0.732,5.364-1.324,5.094-4.483c2.038-0.437,3.167-2.89,2.357-4.851c1.733-1.173,1.473-4.797,0.267-5.684 c0.095-4.022-1.987-5.75-2.837-5.674c-0.45,0.04-0.253,3.05,0.171,5.546c-0.923,0.887-1.205,3.159-0.611,4.646 c-1.303,0.233-2.674,2.017-2.308,3.815c-1.612-0.508-3.921,0.797-4.008,2.653c-1.405-1.016-3.622-0.871-4.895,0.686 c-0.655-1.461-2.876-2.325-4.077-1.262c-0.12-1.369-1.851-2.705-3.217-2.527c0.7-1.883-0.635-4.5-2.508-4.847 c2.136-1.903,1.197-6.218-0.289-7.165c2.044-4.229,0.123-8.551-1.864-8.626C11.498,7.197,12.803,10.595,9.827,13.611z"/><path fill="#55c434" d="M9.852,13.647c-2.068,1.865-2.917,6.46,0.09,9.38c-1.693,2.607-0.432,7.331,2.763,8.104 c0.032,2.237,2.092,4.891,5.195,4.166c0.249,2.053,4.256,3.463,6.285,1.644c3.53,1.776,6.084,1.347,7.611-2.017 c1.844,0.738,5.358-1.317,5.083-4.46c2.047-0.432,3.175-2.885,2.361-4.836c1.735-1.161,1.474-4.794,0.269-5.674 c0.111-3.989-1.951-5.727-2.797-5.65c-0.45,0.041-0.251,3.043,0.172,5.523c-0.921,0.889-1.203,3.165-0.609,4.652 c-1.301,0.236-2.675,2.018-2.306,3.818c-1.617-0.507-3.93,0.802-4.015,2.66c-1.405-1.013-3.623-0.87-4.905,0.687 c-0.664-1.46-2.884-2.324-4.085-1.261c-0.12-1.369-1.857-2.708-3.223-2.53c0.698-1.886-0.641-4.509-2.513-4.856 c2.136-1.903,1.186-6.227-0.303-7.168c2.031-4.182,0.148-8.512-1.815-8.588C11.512,7.24,12.807,10.652,9.852,13.647z"/><path fill="#55c434" d="M9.876,13.683c-2.068,1.865-2.905,6.462,0.126,9.35c-1.692,2.592-0.429,7.312,2.77,8.064 c0.025,2.215,2.077,4.876,5.17,4.138c0.239,2.052,4.241,3.465,6.255,1.64c3.51,1.781,6.05,1.364,7.577-2 c1.836,0.745,5.351-1.31,5.071-4.437c2.057-0.427,3.182-2.881,2.364-4.821c1.737-1.149,1.476-4.791,0.271-5.663 c0.128-3.956-1.914-5.705-2.756-5.626c-0.45,0.042-0.249,3.037,0.173,5.5c-0.92,0.89-1.201,3.171-0.607,4.658 c-1.299,0.24-2.675,2.019-2.305,3.822c-1.621-0.506-3.939,0.807-4.023,2.666c-1.405-1.01-3.624-0.869-4.915,0.687 c-0.673-1.459-2.892-2.323-4.093-1.259c-0.12-1.369-1.863-2.712-3.228-2.533c0.697-1.889-0.646-4.517-2.518-4.864 c2.136-1.903,1.176-6.235-0.316-7.171c2.019-4.135,0.172-8.472-1.766-8.55C11.526,7.283,12.81,10.708,9.876,13.683z"/><path fill="#56c535" d="M9.901,13.719c-2.068,1.865-2.893,6.463,0.162,9.321c-1.692,2.577-0.426,7.292,2.778,8.024 c0.017,2.193,2.063,4.862,5.144,4.11c0.229,2.05,4.227,3.467,6.225,1.636c3.49,1.786,6.016,1.38,7.543-1.984 c1.828,0.751,5.344-1.303,5.059-4.414c2.066-0.423,3.189-2.877,2.368-4.806c1.739-1.137,1.478-4.789,0.273-5.652 c0.145-3.923-1.878-5.682-2.716-5.602c-0.45,0.043-0.246,3.03,0.174,5.477c-0.918,0.891-1.199,3.177-0.605,4.664 c-1.297,0.243-2.675,2.019-2.304,3.826c-1.626-0.505-3.948,0.811-4.031,2.673c-1.405-1.007-3.625-0.868-4.925,0.688 c-0.683-1.458-2.901-2.321-4.102-1.258c-0.12-1.369-1.869-2.715-3.234-2.537c0.695-1.892-0.652-4.526-2.523-4.873 c2.136-1.903,1.166-6.244-0.33-7.174c2.006-4.088,0.197-8.432-1.718-8.512C11.54,7.325,12.813,10.765,9.901,13.719z"/><path fill="#57c636" d="M9.925,13.756c-2.068,1.865-2.881,6.465,0.197,9.292c-1.691,2.562-0.423,7.273,2.785,7.984 c0.01,2.171,2.048,4.847,5.118,4.082c0.219,2.049,4.213,3.469,6.195,1.632c3.47,1.791,5.982,1.397,7.508-1.967 c1.821,0.758,5.337-1.296,5.047-4.391c2.075-0.418,3.196-2.872,2.371-4.791c1.741-1.125,1.479-4.786,0.274-5.641 c0.162-3.89-1.841-5.659-2.676-5.578c-0.45,0.044-0.244,3.024,0.175,5.454c-0.917,0.892-1.197,3.182-0.603,4.67 c-1.295,0.246-2.676,2.02-2.302,3.829c-1.631-0.504-3.957,0.816-4.038,2.679c-1.406-1.004-3.626-0.867-4.935,0.689 c-0.692-1.457-2.909-2.32-4.11-1.257c-0.12-1.369-1.874-2.718-3.24-2.54c0.694-1.895-0.657-4.535-2.528-4.882 c2.136-1.903,1.156-6.253-0.344-7.177c1.994-4.041,0.222-8.393-1.669-8.474C11.554,7.368,12.817,10.821,9.925,13.756z"/><path fill="#58c637" d="M9.95,13.792c-2.068,1.865-2.868,6.466,0.233,9.262c-1.69,2.547-0.42,7.254,2.793,7.945 c0.003,2.149,2.034,4.832,5.092,4.054c0.209,2.047,4.198,3.472,6.164,1.628c3.451,1.797,5.948,1.414,7.474-1.951 c1.813,0.764,5.33-1.289,5.035-4.368c2.085-0.414,3.203-2.868,2.375-4.776c1.743-1.113,1.481-4.783,0.276-5.631 c0.178-3.857-1.805-5.637-2.635-5.554c-0.45,0.045-0.242,3.017,0.176,5.432c-0.915,0.894-1.195,3.188-0.601,4.676 c-1.292,0.25-2.676,2.021-2.301,3.833c-1.635-0.504-3.967,0.82-4.046,2.686c-1.406-1-3.626-0.866-4.944,0.689 c-0.701-1.456-2.917-2.319-4.118-1.256c-0.12-1.369-1.88-2.721-3.246-2.543c0.693-1.898-0.663-4.544-2.533-4.891 c2.136-1.903,1.145-6.262-0.358-7.179c1.981-3.994,0.247-8.353-1.62-8.435C11.568,7.411,12.82,10.878,9.95,13.792z"/><path fill="#59c738" d="M9.974,13.828c-2.068,1.865-2.856,6.468,0.269,9.233c-1.69,2.532-0.417,7.235,2.8,7.905 c-0.005,2.126,2.019,4.818,5.067,4.025c0.199,2.046,4.184,3.474,6.134,1.624c3.431,1.802,5.914,1.43,7.44-1.934 c1.805,0.771,5.324-1.282,5.023-4.345c2.094-0.409,3.21-2.864,2.378-4.761c1.746-1.101,1.482-4.781,0.278-5.62 c0.195-3.824-1.768-5.614-2.595-5.53c-0.45,0.046-0.24,3.011,0.177,5.409c-0.913,0.895-1.193,3.194-0.599,4.682 c-1.29,0.253-2.676,2.021-2.3,3.837c-1.64-0.503-3.976,0.825-4.053,2.692c-1.406-0.997-3.627-0.865-4.954,0.69 c-0.711-1.455-2.926-2.318-4.126-1.255c-0.12-1.369-1.886-2.724-3.251-2.546c0.691-1.901-0.668-4.553-2.538-4.899 c2.136-1.903,1.135-6.271-0.372-7.182c1.969-3.947,0.272-8.313-1.572-8.397C11.583,7.454,12.824,10.934,9.974,13.828z"/><path fill="#5ac839" d="M9.998,13.864c-2.068,1.865-2.844,6.469,0.305,9.204c-1.689,2.517-0.414,7.216,2.807,7.865 c-0.012,2.104,2.005,4.803,5.041,3.997c0.189,2.045,4.17,3.476,6.104,1.62c3.411,1.807,5.88,1.447,7.406-1.917 c1.798,0.777,5.317-1.275,5.012-4.322c2.104-0.404,3.217-2.859,2.382-4.747c1.748-1.09,1.484-4.778,0.28-5.609 c0.212-3.791-1.732-5.591-2.555-5.506c-0.45,0.047-0.238,3.004,0.178,5.386c-0.912,0.896-1.191,3.2-0.597,4.688 c-1.288,0.256-2.677,2.022-2.299,3.84c-1.645-0.502-3.985,0.83-4.061,2.699c-1.406-0.994-3.628-0.864-4.964,0.69 c-0.72-1.454-2.934-2.317-4.134-1.253c-0.12-1.369-1.892-2.727-3.257-2.549c0.69-1.904-0.674-4.562-2.543-4.908 c2.136-1.903,1.125-6.279-0.385-7.185c1.957-3.9,0.297-8.274-1.523-8.359C11.597,7.496,12.827,10.991,9.998,13.864z"/><path fill="#5ac83a" d="M10.023,13.9c-2.068,1.865-2.832,6.47,0.341,9.174c-1.689,2.501-0.41,7.197,2.815,7.825 c-0.019,2.082,1.99,4.788,5.015,3.969c0.18,2.043,4.155,3.479,6.074,1.616c3.392,1.812,5.846,1.464,7.372-1.901 c1.79,0.784,5.31-1.268,5-4.3c2.113-0.4,3.225-2.855,2.385-4.732c1.75-1.078,1.485-4.776,0.281-5.599 c0.228-3.758-1.696-5.568-2.514-5.482c-0.45,0.047-0.236,2.998,0.18,5.363c-0.91,0.898-1.189,3.206-0.595,4.694 c-1.286,0.26-2.677,2.023-2.297,3.844c-1.65-0.501-3.994,0.834-4.069,2.705c-1.406-0.991-3.629-0.863-4.974,0.691 c-0.729-1.453-2.942-2.316-4.142-1.252c-0.12-1.369-1.897-2.731-3.263-2.553c0.689-1.908-0.679-4.571-2.548-4.917 c2.136-1.903,1.115-6.288-0.399-7.188c1.944-3.853,0.321-8.234-1.474-8.321C11.611,7.539,12.83,11.047,10.023,13.9z"/><path fill="#5bc93b" d="M10.047,13.937c-2.068,1.865-2.82,6.472,0.377,9.145c-1.688,2.486-0.407,7.177,2.822,7.786 c-0.027,2.06,1.976,4.774,4.989,3.941c0.17,2.042,4.141,3.481,6.043,1.612c3.372,1.817,5.811,1.48,7.338-1.884 c1.782,0.791,5.303-1.261,4.988-4.277c2.122-0.395,3.232-2.851,2.388-4.717c1.752-1.066,1.487-4.773,0.283-5.588 c0.245-3.725-1.659-5.546-2.474-5.458c-0.45,0.048-0.234,2.991,0.181,5.34c-0.909,0.899-1.187,3.212-0.593,4.7 c-1.284,0.263-2.677,2.023-2.296,3.847c-1.654-0.5-4.003,0.839-4.076,2.712c-1.406-0.987-3.63-0.862-4.984,0.692 c-0.739-1.452-2.951-2.315-4.15-1.251c-0.12-1.369-1.903-2.734-3.269-2.556c0.687-1.911-0.684-4.58-2.553-4.926 c2.136-1.903,1.104-6.297-0.413-7.191c1.932-3.806,0.346-8.195-1.426-8.283C11.625,7.582,12.834,11.104,10.047,13.937z"/><path fill="#5cca3c" d="M10.072,13.973c-2.068,1.865-2.807,6.473,0.412,9.116c-1.688,2.471-0.404,7.158,2.83,7.746 c-0.034,2.038,1.961,4.759,4.963,3.913c0.16,2.04,4.127,3.483,6.013,1.608c3.352,1.822,5.777,1.497,7.304-1.867 c1.775,0.797,5.296-1.254,4.976-4.254c2.132-0.39,3.239-2.846,2.392-4.702c1.754-1.054,1.489-4.77,0.285-5.577 c0.262-3.692-1.623-5.523-2.434-5.434c-0.449,0.049-0.232,2.985,0.182,5.317c-0.907,0.9-1.185,3.218-0.591,4.706 c-1.282,0.266-2.678,2.024-2.295,3.851c-1.659-0.499-4.013,0.843-4.084,2.718c-1.406-0.984-3.631-0.861-4.994,0.692 c-0.748-1.451-2.959-2.314-4.158-1.25c-0.12-1.369-1.909-2.737-3.275-2.559c0.686-1.914-0.69-4.589-2.558-4.934 c2.136-1.903,1.094-6.306-0.427-7.194c1.919-3.759,0.371-8.155-1.377-8.245C11.639,7.624,12.837,11.16,10.072,13.973z"/><path fill="#5dca3d" d="M10.096,14.009c-2.068,1.865-2.795,6.475,0.448,9.086c-1.687,2.456-0.401,7.139,2.837,7.706 c-0.041,2.015,1.947,4.745,4.938,3.885c0.15,2.039,4.112,3.485,5.983,1.604c3.332,1.827,5.743,1.514,7.27-1.851 c1.767,0.804,5.289-1.247,4.964-4.231c2.141-0.386,3.246-2.842,2.395-4.687c1.756-1.042,1.49-4.768,0.287-5.566 c0.278-3.659-1.586-5.5-2.393-5.41c-0.449,0.05-0.23,2.978,0.183,5.295c-0.906,0.901-1.183,3.224-0.589,4.712 c-1.28,0.27-2.678,2.025-2.293,3.855c-1.664-0.498-4.022,0.848-4.091,2.725c-1.406-0.981-3.632-0.86-5.004,0.693 c-0.757-1.45-2.968-2.313-4.166-1.249c-0.12-1.369-1.915-2.74-3.28-2.562c0.684-1.917-0.695-4.598-2.563-4.943 c2.136-1.903,1.084-6.314-0.441-7.197c1.907-3.712,0.396-8.115-1.328-8.207C11.653,7.667,12.841,11.217,10.096,14.009z"/><path fill="#5ecb3e" d="M10.12,14.045c-2.068,1.865-2.783,6.476,0.484,9.057c-1.687,2.441-0.398,7.12,2.845,7.666 c-0.049,1.993,1.932,4.73,4.912,3.857c0.14,2.037,4.098,3.488,5.953,1.6c3.313,1.833,5.709,1.53,7.236-1.834 c1.759,0.81,5.283-1.24,4.952-4.208c2.151-0.381,3.253-2.838,2.399-4.672c1.758-1.03,1.492-4.765,0.288-5.556 c0.295-3.626-1.55-5.477-2.353-5.386c-0.449,0.051-0.227,2.972,0.184,5.272c-0.904,0.903-1.181,3.23-0.587,4.718 c-1.278,0.273-2.678,2.025-2.292,3.858c-1.668-0.497-4.031,0.852-4.099,2.731c-1.406-0.978-3.633-0.859-5.014,0.693 c-0.767-1.449-2.976-2.312-4.174-1.247c-0.12-1.369-1.921-2.743-3.286-2.565c0.683-1.92-0.701-4.607-2.568-4.952 c2.136-1.903,1.074-6.323-0.454-7.2c1.894-3.665,0.421-8.076-1.28-8.168C11.667,7.71,12.844,11.274,10.12,14.045z"/><path fill="#5ecb3f" d="M10.145,14.081c-2.068,1.865-2.771,6.478,0.52,9.027c-1.686,2.426-0.395,7.101,2.852,7.627 c-0.056,1.971,1.918,4.715,4.886,3.828c0.13,2.036,4.084,3.49,5.922,1.596c3.293,1.838,5.675,1.547,7.201-1.817 c1.752,0.817,5.276-1.232,4.941-4.185c2.16-0.377,3.26-2.833,2.402-4.657c1.76-1.018,1.493-4.762,0.29-5.545 c0.312-3.593-1.513-5.455-2.313-5.362c-0.449,0.052-0.225,2.965,0.185,5.249c-0.903,0.904-1.179,3.236-0.585,4.724 c-1.276,0.276-2.679,2.026-2.291,3.862c-1.673-0.496-4.04,0.857-4.107,2.738c-1.406-0.975-3.634-0.857-5.024,0.694 c-0.776-1.448-2.984-2.311-4.182-1.246c-0.12-1.369-1.926-2.747-3.292-2.569c0.682-1.923-0.706-4.615-2.573-4.961 c2.136-1.903,1.063-6.332-0.468-7.202c1.882-3.618,0.446-8.036-1.231-8.13C11.682,7.753,12.847,11.33,10.145,14.081z"/><path fill="#5fcc40" d="M10.169,14.117c-2.068,1.865-2.759,6.479,0.556,8.998c-1.686,2.411-0.392,7.081,2.86,7.587 c-0.063,1.949,1.903,4.701,4.86,3.8c0.12,2.034,4.069,3.492,5.892,1.592c3.273,1.843,5.641,1.564,7.167-1.801 c1.744,0.823,5.269-1.225,4.929-4.162c2.169-0.372,3.267-2.829,2.406-4.642c1.762-1.006,1.495-4.76,0.292-5.534 c0.329-3.56-1.477-5.432-2.272-5.338c-0.449,0.053-0.223,2.959,0.186,5.226c-0.901,0.905-1.177,3.242-0.583,4.73 c-1.274,0.279-2.679,2.026-2.289,3.866c-1.678-0.495-4.049,0.862-4.114,2.744c-1.407-0.971-3.635-0.856-5.033,0.695 c-0.786-1.447-2.993-2.31-4.19-1.245c-0.12-1.369-1.932-2.75-3.298-2.572c0.68-1.926-0.712-4.624-2.578-4.969 c2.136-1.903,1.053-6.341-0.482-7.205c1.87-3.571,0.471-7.997-1.182-8.092C11.696,7.795,12.851,11.387,10.169,14.117z"/><path fill="#60cd41" d="M10.194,14.154c-2.068,1.865-2.746,6.481,0.591,8.969c-1.685,2.396-0.389,7.062,2.867,7.547 c-0.071,1.927,1.889,4.686,4.834,3.772c0.11,2.033,4.055,3.495,5.862,1.588c3.253,1.848,5.607,1.58,7.133-1.784 c1.736,0.83,5.262-1.218,4.917-4.139c2.179-0.367,3.275-2.825,2.409-4.627c1.764-0.995,1.496-4.757,0.294-5.523 c0.345-3.527-1.44-5.409-2.232-5.314c-0.449,0.054-0.221,2.952,0.187,5.203c-0.899,0.907-1.175,3.248-0.581,4.736 c-1.272,0.283-2.679,2.027-2.288,3.869c-1.683-0.494-4.059,0.866-4.122,2.751c-1.407-0.968-3.635-0.855-5.043,0.695 c-0.795-1.446-3.001-2.309-4.198-1.244c-0.12-1.369-1.938-2.753-3.303-2.575c0.679-1.929-0.717-4.633-2.583-4.978 c2.136-1.903,1.043-6.35-0.496-7.208c1.857-3.524,0.495-7.957-1.133-8.054C11.71,7.838,12.854,11.443,10.194,14.154z"/><path fill="#61cd42" d="M10.218,14.19c-2.068,1.865-2.734,6.482,0.627,8.939c-1.684,2.381-0.386,7.043,2.874,7.507 c-0.078,1.905,1.874,4.671,4.809,3.744c0.1,2.031,4.041,3.497,5.832,1.584c3.234,1.853,5.573,1.597,7.099-1.767 c1.729,0.836,5.255-1.211,4.905-4.116c2.188-0.363,3.282-2.82,2.413-4.612c1.766-0.983,1.498-4.754,0.295-5.513 c0.362-3.494-1.404-5.386-2.192-5.29c-0.449,0.055-0.219,2.946,0.188,5.18c-0.898,0.908-1.173,3.254-0.579,4.742 c-1.269,0.286-2.68,2.028-2.287,3.873c-1.687-0.493-4.068,0.871-4.13,2.757c-1.407-0.965-3.636-0.854-5.053,0.696 c-0.804-1.445-3.009-2.308-4.207-1.242c-0.12-1.369-1.944-2.756-3.309-2.578c0.678-1.932-0.723-4.642-2.587-4.987 c2.136-1.903,1.033-6.358-0.51-7.211c1.845-3.477,0.52-7.917-1.085-8.016C11.724,7.881,12.857,11.5,10.218,14.19z"/><path fill="#62ce43" d="M10.243,14.226c-2.068,1.865-2.722,6.484,0.663,8.91c-1.684,2.366-0.383,7.024,2.882,7.468 c-0.085,1.882,1.86,4.657,4.783,3.716c0.09,2.03,4.026,3.499,5.801,1.58c3.214,1.858,5.539,1.614,7.065-1.751 c1.721,0.843,5.249-1.204,4.893-4.093c2.198-0.358,3.289-2.816,2.416-4.597c1.768-0.971,1.5-4.752,0.297-5.502 c0.379-3.461-1.367-5.364-2.151-5.266c-0.449,0.056-0.217,2.939,0.189,5.157c-0.896,0.909-1.171,3.26-0.577,4.747 c-1.267,0.289-2.68,2.028-2.286,3.877c-1.692-0.492-4.077,0.875-4.137,2.764c-1.407-0.962-3.637-0.853-5.063,0.697 c-0.814-1.443-3.018-2.306-4.215-1.241c-0.12-1.369-1.949-2.759-3.315-2.581c0.676-1.935-0.728-4.651-2.592-4.995 c2.136-1.903,1.022-6.367-0.523-7.214c1.832-3.43,0.545-7.878-1.036-7.978C11.738,7.923,12.861,11.556,10.243,14.226z"/><path fill="#62cf44" d="M10.267,14.262c-2.068,1.865-2.71,6.485,0.699,8.881c-1.683,2.351-0.38,7.005,2.889,7.428 c-0.093,1.86,1.845,4.642,4.757,3.688c0.081,2.029,4.012,3.501,5.771,1.576c3.194,1.863,5.505,1.63,7.031-1.734 c1.713,0.849,5.242-1.197,4.881-4.07c2.207-0.354,3.296-2.812,2.419-4.582c1.77-0.959,1.501-4.749,0.299-5.491 c0.395-3.429-1.331-5.341-2.111-5.242c-0.449,0.057-0.215,2.933,0.19,5.135c-0.895,0.91-1.169,3.266-0.575,4.753 c-1.265,0.293-2.68,2.029-2.284,3.88c-1.697-0.491-4.086,0.88-4.145,2.77c-1.407-0.959-3.638-0.852-5.073,0.697 c-0.823-1.442-3.026-2.305-4.223-1.24c-0.12-1.369-1.955-2.763-3.321-2.584c0.675-1.938-0.734-4.66-2.597-5.004 c2.136-1.903,1.012-6.376-0.537-7.217c1.82-3.383,0.57-7.838-0.987-7.94C11.752,7.966,12.864,11.613,10.267,14.262z"/><path fill="#63cf45" d="M10.291,14.298c-2.068,1.865-2.698,6.486,0.735,8.851c-1.683,2.336-0.377,6.986,2.897,7.388 c-0.1,1.838,1.831,4.627,4.731,3.659c0.071,2.027,3.998,3.504,5.741,1.572c3.174,1.868,5.47,1.647,6.997-1.717 c1.706,0.856,5.235-1.19,4.87-4.047c2.217-0.349,3.303-2.807,2.423-4.567c1.772-0.947,1.503-4.747,0.301-5.48 c0.412-3.396-1.294-5.318-2.071-5.218c-0.449,0.058-0.213,2.926,0.191,5.112c-0.893,0.912-1.167,3.272-0.573,4.759 c-1.263,0.296-2.681,2.03-2.283,3.884c-1.701-0.49-4.095,0.885-4.152,2.777c-1.407-0.955-3.639-0.851-5.083,0.698 c-0.832-1.441-3.034-2.304-4.231-1.239c-0.12-1.369-1.961-2.766-3.326-2.588c0.673-1.942-0.739-4.669-2.602-5.013 c2.136-1.903,1.002-6.385-0.551-7.22c1.807-3.336,0.595-7.798-0.939-7.901C11.766,8.009,12.868,11.669,10.291,14.298z"/><path fill="#64d046" d="M10.316,14.335c-2.068,1.865-2.685,6.488,0.77,8.822c-1.682,2.321-0.373,6.966,2.904,7.348 c-0.107,1.816,1.816,4.613,4.705,3.631c0.061,2.026,3.984,3.506,5.711,1.568c3.155,1.874,5.436,1.664,6.963-1.701 c1.698,0.862,5.228-1.183,4.858-4.025c2.226-0.344,3.31-2.803,2.426-4.552c1.774-0.935,1.504-4.744,0.302-5.47 c0.429-3.363-1.258-5.295-2.03-5.194c-0.449,0.059-0.211,2.92,0.192,5.089c-0.892,0.913-1.165,3.278-0.571,4.765 c-1.261,0.299-2.681,2.03-2.282,3.888c-1.706-0.489-4.105,0.889-4.16,2.783c-1.407-0.952-3.64-0.85-5.093,0.698 c-0.842-1.44-3.043-2.303-4.239-1.238c-0.12-1.369-1.967-2.769-3.332-2.591c0.672-1.945-0.745-4.678-2.607-5.022 c2.136-1.903,0.992-6.393-0.565-7.222c1.795-3.289,0.62-7.759-0.89-7.863C11.78,8.051,12.871,11.726,10.316,14.335z"/><path fill="#65d147" d="M10.34,14.371c-2.068,1.865-2.673,6.489,0.806,8.793c-1.682,2.306-0.37,6.947,2.912,7.309 c-0.115,1.794,1.802,4.598,4.68,3.603c0.051,2.024,3.969,3.508,5.68,1.564c3.135,1.879,5.402,1.68,6.929-1.684 c1.69,0.869,5.221-1.176,4.846-4.002c2.235-0.34,3.317-2.798,2.43-4.537c1.776-0.923,1.506-4.741,0.304-5.459 c0.446-3.33-1.221-5.272-1.99-5.17c-0.449,0.059-0.209,2.913,0.193,5.066c-0.89,0.914-1.163,3.284-0.569,4.771 c-1.259,0.303-2.681,2.031-2.28,3.891c-1.711-0.488-4.114,0.894-4.168,2.79c-1.407-0.949-3.641-0.849-5.103,0.699 c-0.851-1.439-3.051-2.302-4.247-1.236c-0.12-1.369-1.972-2.772-3.338-2.594c0.671-1.948-0.75-4.687-2.612-5.03 c2.136-1.903,0.981-6.402-0.579-7.225c1.782-3.242,0.645-7.719-0.841-7.825C11.795,8.094,12.874,11.782,10.34,14.371z"/><path fill="#66d148" d="M10.365,14.407c-2.068,1.865-2.661,6.491,0.842,8.763c-1.681,2.29-0.367,6.928,2.919,7.269 c-0.122,1.771,1.787,4.584,4.654,3.575c0.041,2.023,3.955,3.511,5.65,1.56c3.115,1.884,5.368,1.697,6.895-1.667 c1.683,0.876,5.214-1.169,4.834-3.979c2.245-0.335,3.325-2.794,2.433-4.522c1.778-0.911,1.507-4.739,0.306-5.448 c0.462-3.297-1.185-5.249-1.95-5.146c-0.448,0.06-0.206,2.907,0.194,5.043c-0.889,0.916-1.161,3.29-0.567,4.777 c-1.257,0.306-2.682,2.032-2.279,3.895c-1.715-0.487-4.123,0.898-4.175,2.797c-1.407-0.946-3.642-0.848-5.112,0.7 c-0.86-1.438-3.06-2.301-4.255-1.235c-0.12-1.369-1.978-2.775-3.344-2.597c0.669-1.951-0.755-4.696-2.617-5.039 c2.136-1.903,0.971-6.411-0.592-7.228c1.77-3.195,0.669-7.68-0.793-7.787C11.809,8.137,12.878,11.839,10.365,14.407z"/><path fill="#66d249" d="M10.389,14.443c-2.068,1.865-2.649,6.492,0.878,8.734c-1.681,2.275-0.364,6.909,2.927,7.229 c-0.129,1.749,1.773,4.569,4.628,3.547c0.031,2.021,3.941,3.513,5.62,1.556c3.096,1.889,5.334,1.714,6.86-1.651 c1.675,0.882,5.208-1.162,4.822-3.956c2.254-0.33,3.332-2.79,2.437-4.507c1.78-0.9,1.509-4.736,0.308-5.437 c0.479-3.264-1.148-5.227-1.909-5.122c-0.448,0.061-0.204,2.9,0.195,5.02c-0.887,0.917-1.159,3.296-0.565,4.783 c-1.255,0.309-2.682,2.032-2.278,3.899c-1.72-0.487-4.132,0.903-4.183,2.803c-1.407-0.942-3.643-0.847-5.122,0.7 c-0.87-1.437-3.068-2.3-4.263-1.234c-0.12-1.369-1.984-2.779-3.35-2.6c0.668-1.954-0.761-4.704-2.622-5.048 c2.136-1.903,0.961-6.42-0.606-7.231c1.758-3.148,0.694-7.64-0.744-7.749C11.823,8.18,12.881,11.895,10.389,14.443z"/><path fill="#67d24a" d="M10.414,14.479c-2.068,1.865-2.636,6.494,0.914,8.705c-1.68,2.26-0.361,6.89,2.934,7.189 c-0.137,1.727,1.758,4.554,4.602,3.519c0.021,2.02,3.926,3.515,5.59,1.552c3.076,1.894,5.3,1.73,6.826-1.634 c1.667,0.889,5.201-1.155,4.81-3.933c2.264-0.326,3.339-2.785,2.44-4.492c1.782-0.888,1.511-4.733,0.309-5.427 c0.496-3.231-1.112-5.204-1.869-5.098c-0.448,0.062-0.202,2.894,0.196,4.998c-0.885,0.918-1.157,3.302-0.563,4.789 c-1.253,0.313-2.682,2.033-2.276,3.902c-1.725-0.486-4.141,0.907-4.19,2.81c-1.407-0.939-3.644-0.846-5.132,0.701 c-0.879-1.436-3.076-2.299-4.271-1.233c-0.12-1.369-1.99-2.782-3.355-2.604c0.666-1.957-0.766-4.713-2.627-5.057 c2.136-1.903,0.951-6.429-0.62-7.234c1.745-3.101,0.719-7.6-0.695-7.711C11.837,8.222,12.885,11.952,10.414,14.479z"/><path fill="#68d34b" d="M10.438,14.516c-2.068,1.865-2.624,6.495,0.949,8.675c-1.68,2.245-0.358,6.87,2.941,7.15 c-0.144,1.705,1.744,4.54,4.577,3.49c0.011,2.018,3.912,3.517,5.559,1.548c3.056,1.899,5.266,1.747,6.792-1.617 c1.66,0.895,5.194-1.148,4.799-3.91c2.273-0.321,3.346-2.781,2.444-4.477c1.784-0.876,1.512-4.731,0.311-5.416 c0.512-3.198-1.076-5.181-1.829-5.074c-0.448,0.063-0.2,2.887,0.197,4.975c-0.884,0.919-1.155,3.308-0.562,4.795 c-1.251,0.316-2.683,2.034-2.275,3.906c-1.73-0.485-4.151,0.912-4.198,2.816c-1.408-0.936-3.644-0.845-5.142,0.701 c-0.889-1.435-3.085-2.298-4.279-1.232c-0.12-1.369-1.996-2.785-3.361-2.607c0.665-1.96-0.772-4.722-2.632-5.065 c2.136-1.903,0.94-6.437-0.634-7.237c1.733-3.054,0.744-7.561-0.647-7.673C11.851,8.265,12.888,12.008,10.438,14.516z"/><path fill="#69d44c" d="M10.462,14.552c-2.068,1.865-2.612,6.497,0.985,8.646c-1.679,2.23-0.355,6.851,2.949,7.11 c-0.151,1.683,1.729,4.525,4.551,3.462c0.001,2.017,3.898,3.52,5.529,1.544c3.036,1.904,5.232,1.764,6.758-1.601 c1.652,0.902,5.187-1.141,4.787-3.887c2.282-0.317,3.353-2.777,2.447-4.462c1.786-0.864,1.514-4.728,0.313-5.405 c0.529-3.165-1.039-5.158-1.788-5.05c-0.448,0.064-0.198,2.881,0.198,4.952c-0.882,0.921-1.153,3.314-0.56,4.801 c-1.249,0.319-2.683,2.034-2.274,3.91c-1.734-0.484-4.16,0.917-4.206,2.823c-1.408-0.933-3.645-0.844-5.152,0.702 c-0.898-1.434-3.093-2.297-4.287-1.23c-0.12-1.369-2.001-2.788-3.367-2.61c0.664-1.963-0.777-4.731-2.637-5.074 c2.136-1.903,0.93-6.446-0.648-7.24c1.72-3.007,0.769-7.521-0.598-7.634C11.865,8.308,12.891,12.065,10.462,14.552z"/><path fill="#6ad44d" d="M10.487,14.588c-2.068,1.865-2.6,6.498,1.021,8.617c-1.678,2.215-0.352,6.832,2.956,7.07 c-0.159,1.661,1.715,4.51,4.525,3.434c-0.009,2.016,3.883,3.522,5.499,1.54c3.017,1.91,5.198,1.78,6.724-1.584 c1.644,0.908,5.18-1.133,4.775-3.864c2.292-0.312,3.36-2.772,2.45-4.447c1.788-0.852,1.515-4.725,0.315-5.394 c0.546-3.132-1.003-5.135-1.748-5.026c-0.448,0.065-0.196,2.874,0.199,4.929c-0.881,0.922-1.151,3.32-0.558,4.807 c-1.246,0.323-2.683,2.035-2.272,3.913c-1.739-0.483-4.169,0.921-4.213,2.829c-1.408-0.93-3.646-0.843-5.162,0.703 c-0.907-1.433-3.101-2.296-4.295-1.229c-0.12-1.369-2.007-2.791-3.373-2.613c0.662-1.966-0.783-4.74-2.642-5.083 c2.136-1.903,0.92-6.455-0.661-7.243c1.708-2.96,0.794-7.481-0.549-7.596C11.879,8.35,12.895,12.121,10.487,14.588z"/><path fill="#6ad54e" d="M10.511,14.624c-2.068,1.865-2.588,6.499,1.057,8.587c-1.678,2.2-0.349,6.813,2.964,7.03 c-0.166,1.638,1.7,4.496,4.499,3.406c-0.018,2.014,3.869,3.524,5.469,1.536c2.997,1.915,5.164,1.797,6.69-1.567 c1.637,0.915,5.174-1.126,4.763-3.841c2.301-0.307,3.367-2.768,2.454-4.432c1.79-0.84,1.517-4.723,0.316-5.384 c0.562-3.099-0.966-5.112-1.708-5.002c-0.448,0.066-0.194,2.868,0.2,4.906c-0.879,0.923-1.149,3.326-0.556,4.813 c-1.244,0.326-2.684,2.036-2.271,3.917c-1.744-0.482-4.178,0.926-4.221,2.836c-1.408-0.926-3.647-0.842-5.172,0.703 c-0.917-1.432-3.11-2.295-4.304-1.228c-0.12-1.369-2.013-2.795-3.378-2.616c0.661-1.969-0.788-4.749-2.647-5.092 c2.136-1.903,0.91-6.464-0.675-7.245c1.695-2.913,0.818-7.442-0.501-7.558C11.894,8.393,12.898,12.178,10.511,14.624z"/><path fill="#6bd64f" d="M10.536,14.66c-2.068,1.865-2.575,6.501,1.093,8.558c-1.677,2.185-0.346,6.794,2.971,6.991 c-0.173,1.616,1.685,4.481,4.473,3.378c-0.028,2.013,3.855,3.527,5.438,1.533c2.977,1.92,5.129,1.814,6.656-1.551 c1.629,0.921,5.167-1.119,4.751-3.818c2.311-0.303,3.375-2.764,2.457-4.417c1.792-0.828,1.518-4.72,0.318-5.373 c0.579-3.066-0.93-5.089-1.667-4.978c-0.448,0.067-0.192,2.861,0.201,4.883c-0.878,0.925-1.147,3.331-0.554,4.819 c-1.242,0.329-2.684,2.036-2.27,3.921c-1.748-0.481-4.187,0.93-4.228,2.842c-1.408-0.923-3.648-0.841-5.182,0.704 c-0.926-1.431-3.118-2.294-4.312-1.227c-0.12-1.369-2.019-2.798-3.384-2.62c0.66-1.973-0.794-4.758-2.652-5.1 c2.136-1.903,0.899-6.472-0.689-7.248c1.683-2.865,0.843-7.402-0.452-7.52C11.908,8.436,12.902,12.235,10.536,14.66z"/><path fill="#6cd650" d="M10.56,14.697c-2.068,1.865-2.563,6.502,1.129,8.529c-1.677,2.17-0.343,6.775,2.979,6.951 c-0.181,1.594,1.671,4.467,4.448,3.35c-0.038,2.011,3.84,3.529,5.408,1.529c2.957,1.925,5.095,1.83,6.622-1.534 c1.621,0.928,5.16-1.112,4.74-3.795c2.32-0.298,3.382-2.759,2.461-4.402c1.794-0.816,1.52-4.718,0.32-5.362 c0.596-3.033-0.893-5.067-1.627-4.955c-0.448,0.068-0.19,2.855,0.202,4.861c-0.876,0.926-1.146,3.337-0.552,4.825 c-1.24,0.333-2.684,2.037-2.269,3.924c-1.753-0.48-4.196,0.935-4.236,2.849c-1.408-0.92-3.649-0.84-5.191,0.704 c-0.935-1.43-3.126-2.293-4.32-1.226c-0.12-1.369-2.024-2.801-3.39-2.623c0.658-1.976-0.799-4.767-2.657-5.109 c2.136-1.903,0.889-6.481-0.703-7.251c1.67-2.818,0.868-7.363-0.403-7.482C11.922,8.479,12.905,12.291,10.56,14.697z"/><path fill="#6dd751" d="M10.584,14.733c-2.068,1.865-2.551,6.504,1.164,8.499c-1.676,2.155-0.34,6.755,2.986,6.911 c-0.188,1.572,1.656,4.452,4.422,3.321c-0.048,2.01,3.826,3.531,5.378,1.525c2.938,1.93,5.061,1.847,6.588-1.517 c1.613,0.934,5.153-1.105,4.728-3.772c2.33-0.293,3.389-2.755,2.464-4.387c1.796-0.805,1.522-4.715,0.322-5.351 c0.613-3-0.857-5.044-1.587-4.931c-0.448,0.069-0.187,2.848,0.203,4.838c-0.875,0.927-1.144,3.343-0.55,4.831 c-1.238,0.336-2.684,2.038-2.267,3.928c-1.758-0.479-4.206,0.94-4.244,2.855c-1.408-0.917-3.65-0.839-5.201,0.705 c-0.945-1.429-3.135-2.291-4.328-1.224c-0.12-1.369-2.03-2.804-3.396-2.626c0.657-1.979-0.805-4.776-2.662-5.118 c2.136-1.903,0.879-6.49-0.717-7.254c1.658-2.771,0.893-7.323-0.355-7.444C11.936,8.521,12.908,12.348,10.584,14.733z"/><path fill="#6ed752" d="M10.609,14.769c-2.068,1.865-2.539,6.505,1.2,8.47c-1.676,2.14-0.336,6.736,2.994,6.871 c-0.195,1.55,1.642,4.437,4.396,3.293c-0.058,2.008,3.812,3.534,5.348,1.521c2.918,1.935,5.027,1.864,6.554-1.501 c1.606,0.941,5.146-1.098,4.716-3.749c2.339-0.289,3.396-2.751,2.468-4.372c1.798-0.793,1.523-4.712,0.323-5.341 c0.629-2.967-0.82-5.021-1.546-4.907c-0.447,0.07-0.185,2.842,0.204,4.815c-0.873,0.928-1.142,3.349-0.548,4.837 c-1.236,0.339-2.685,2.038-2.266,3.932c-1.763-0.478-4.215,0.944-4.251,2.862c-1.408-0.913-3.651-0.838-5.211,0.706 c-0.954-1.428-3.143-2.29-4.336-1.223c-0.12-1.369-2.036-2.807-3.401-2.629c0.655-1.982-0.81-4.785-2.667-5.126 c2.136-1.903,0.869-6.499-0.73-7.257c1.646-2.724,0.918-7.283-0.306-7.406C11.95,8.564,12.912,12.404,10.609,14.769z"/><path fill="#6ed853" d="M10.633,14.805c-2.068,1.865-2.527,6.507,1.236,8.441c-1.675,2.125-0.333,6.717,3.001,6.832 c-0.203,1.527,1.627,4.423,4.37,3.265c-0.068,2.007,3.797,3.536,5.317,1.517c2.898,1.94,4.993,1.88,6.519-1.484 c1.598,0.948,5.139-1.091,4.704-3.727c2.348-0.284,3.403-2.746,2.471-4.357c1.8-0.781,1.525-4.71,0.325-5.33 c0.646-2.934-0.784-4.998-1.506-4.883c-0.447,0.071-0.183,2.835,0.205,4.792c-0.871,0.93-1.14,3.355-0.546,4.843 c-1.234,0.343-2.685,2.039-2.265,3.935c-1.767-0.477-4.224,0.949-4.259,2.868c-1.408-0.91-3.652-0.836-5.221,0.706 c-0.963-1.427-3.152-2.289-4.344-1.222c-0.12-1.369-2.042-2.811-3.407-2.632c0.654-1.985-0.815-4.794-2.672-5.135 c2.136-1.903,0.858-6.507-0.744-7.26c1.633-2.677,0.943-7.244-0.257-7.367C11.964,8.607,12.915,12.461,10.633,14.805z"/><path fill="#6fd954" d="M10.658,14.841c-2.068,1.865-2.514,6.508,1.272,8.411c-1.675,2.11-0.33,6.698,3.008,6.792 c-0.21,1.505,1.613,4.408,4.344,3.237c-0.078,2.005,3.783,3.538,5.287,1.513c2.879,1.946,4.959,1.897,6.485-1.467 c1.59,0.954,5.133-1.084,4.692-3.704c2.358-0.28,3.41-2.742,2.474-4.342c1.802-0.769,1.526-4.707,0.327-5.319 c0.663-2.901-0.747-4.975-1.466-4.859c-0.447,0.072-0.181,2.829,0.206,4.769c-0.87,0.931-1.138,3.361-0.544,4.849 c-1.232,0.346-2.685,2.04-2.263,3.939c-1.772-0.476-4.233,0.953-4.267,2.875c-1.408-0.907-3.653-0.835-5.231,0.707 c-0.973-1.426-3.16-2.288-4.352-1.221c-0.12-1.369-2.047-2.814-3.413-2.636c0.653-1.988-0.821-4.802-2.677-5.144 c2.136-1.903,0.848-6.516-0.758-7.263c1.621-2.63,0.968-7.204-0.209-7.329C11.978,8.649,12.918,12.517,10.658,14.841z"/><path fill="#70d955" d="M10.682,14.877c-2.068,1.865-2.502,6.51,1.308,8.382c-1.674,2.095-0.327,6.679,3.016,6.752 c-0.217,1.483,1.598,4.393,4.319,3.209c-0.088,2.004,3.769,3.54,5.257,1.509c2.859,1.951,4.925,1.914,6.451-1.451 c1.583,0.961,5.126-1.077,4.68-3.681c2.367-0.275,3.417-2.738,2.478-4.327c1.804-0.757,1.528-4.704,0.329-5.308 c0.679-2.868-0.711-4.952-1.425-4.835c-0.447,0.073-0.179,2.822,0.207,4.746c-0.868,0.932-1.136,3.367-0.542,4.855 c-1.23,0.349-2.686,2.04-2.262,3.943c-1.777-0.475-4.242,0.958-4.274,2.881c-1.409-0.904-3.653-0.834-5.241,0.708 c-0.982-1.424-3.168-2.287-4.36-1.22c-0.12-1.369-2.053-2.817-3.419-2.639c0.651-1.991-0.826-4.811-2.682-5.153 c2.136-1.903,0.838-6.525-0.772-7.266c1.608-2.583,0.992-7.165-0.16-7.291C11.993,8.692,12.922,12.574,10.682,14.877z"/><path fill="#71da56" d="M10.707,14.914c-2.068,1.865-2.49,6.511,1.343,8.353c-1.674,2.079-0.324,6.659,3.023,6.712 c-0.225,1.461,1.584,4.379,4.293,3.181c-0.098,2.003,3.754,3.543,5.227,1.505c2.839,1.956,4.891,1.93,6.417-1.434 c1.575,0.967,5.119-1.07,4.669-3.658c2.377-0.27,3.425-2.733,2.481-4.312c1.806-0.745,1.529-4.702,0.33-5.298 c0.696-2.835-0.674-4.929-1.385-4.811c-0.447,0.074-0.177,2.816,0.208,4.723c-0.867,0.934-1.134,3.373-0.54,4.861 c-1.228,0.353-2.686,2.041-2.261,3.946c-1.781-0.474-4.252,0.962-4.282,2.888c-1.409-0.901-3.654-0.833-5.251,0.708 c-0.992-1.423-3.177-2.286-4.368-1.218c-0.12-1.369-2.059-2.82-3.425-2.642c0.65-1.994-0.832-4.82-2.687-5.161 c2.136-1.903,0.828-6.534-0.785-7.268c1.596-2.536,1.017-7.125-0.111-7.253C12.007,8.735,12.925,12.63,10.707,14.914z"/><path fill="#72db57" d="M10.731,14.95c-2.068,1.865-2.478,6.512,1.379,8.323c-1.673,2.064-0.321,6.64,3.031,6.673 c-0.232,1.439,1.569,4.364,4.267,3.152c-0.108,2.001,3.74,3.545,5.196,1.501c2.819,1.961,4.857,1.947,6.383-1.417 c1.567,0.974,5.112-1.063,4.657-3.635c2.386-0.266,3.432-2.729,2.485-4.297c1.809-0.733,1.531-4.699,0.332-5.287 c0.713-2.802-0.638-4.906-1.345-4.787c-0.447,0.075-0.175,2.809,0.21,4.701c-0.865,0.935-1.132,3.379-0.538,4.867 c-1.226,0.356-2.686,2.042-2.259,3.95c-1.786-0.473-4.261,0.967-4.289,2.894c-1.409-0.897-3.655-0.832-5.261,0.709 c-1.001-1.422-3.185-2.285-4.376-1.217c-0.12-1.369-2.065-2.823-3.43-2.645c0.649-1.997-0.837-4.829-2.691-5.17 c2.136-1.903,0.817-6.543-0.799-7.271c1.583-2.489,1.042-7.085-0.063-7.215C12.021,8.778,12.929,12.687,10.731,14.95z"/><path fill="#72db58" d="M10.755,14.986C8.687,16.851,8.29,21.5,12.17,23.28c-1.672,2.049-0.318,6.621,3.038,6.633 c-0.239,1.417,1.555,4.349,4.241,3.124c-0.118,2,3.726,3.547,5.166,1.497c2.8,1.966,4.822,1.964,6.349-1.401 c1.56,0.98,5.105-1.056,4.645-3.612c2.395-0.261,3.439-2.725,2.488-4.282c1.811-0.722,1.533-4.696,0.334-5.276 c0.73-2.769-0.601-4.883-1.304-4.763c-0.447,0.076-0.173,2.803,0.211,4.678c-0.864,0.936-1.13,3.385-0.536,4.873 c-1.223,0.359-2.687,2.042-2.258,3.954c-1.791-0.472-4.27,0.972-4.297,2.901c-1.409-0.894-3.656-0.831-5.271,0.709 c-1.01-1.421-3.193-2.284-4.384-1.216c-0.12-1.369-2.071-2.826-3.436-2.648c0.647-2-0.843-4.838-2.696-5.179 c2.136-1.903,0.807-6.551-0.813-7.274c1.571-2.442,1.067-7.046-0.014-7.177C12.035,8.82,12.932,12.743,10.755,14.986z"/><path fill="#73dc59" d="M10.78,15.022c-2.068,1.865-2.453,6.515,1.451,8.265c-1.672,2.034-0.315,6.602,3.046,6.593 c-0.247,1.394,1.54,4.335,4.216,3.096c-0.127,1.998,3.711,3.55,5.136,1.493c2.78,1.971,4.788,1.98,6.315-1.384 c1.552,0.987,5.099-1.049,4.633-3.589c2.405-0.256,3.446-2.72,2.492-4.267c1.813-0.71,1.534-4.694,0.336-5.265 c0.746-2.736-0.565-4.86-1.264-4.739c-0.447,0.078-0.171,2.796,0.212,4.655c-0.862,0.937-1.128,3.391-0.534,4.879 c-1.221,0.362-2.687,2.043-2.257,3.957c-1.796-0.471-4.279,0.976-4.305,2.907c-1.409-0.891-3.657-0.83-5.28,0.71 c-1.02-1.42-3.202-2.283-4.392-1.215c-0.12-1.369-2.076-2.83-3.442-2.652c0.646-2.003-0.848-4.847-2.701-5.188 c2.136-1.903,0.797-6.56-0.827-7.277c1.558-2.395,1.092-7.006,0.035-7.138C12.049,8.863,12.935,12.8,10.78,15.022z"/><path fill="#74dd5a" d="M10.804,15.058c-2.068,1.865-2.441,6.517,1.487,8.235c-1.671,2.019-0.312,6.583,3.053,6.553 c-0.254,1.372,1.526,4.32,4.19,3.068c-0.137,1.997,3.697,3.552,5.105,1.489c2.76,1.976,4.754,1.997,6.281-1.367 c1.544,0.993,5.092-1.042,4.621-3.566c2.414-0.252,3.453-2.716,2.495-4.253c1.815-0.698,1.536-4.691,0.337-5.255 c0.763-2.703-0.528-4.837-1.224-4.715c-0.447,0.079-0.168,2.79,0.213,4.632c-0.861,0.939-1.126,3.397-0.532,4.885 c-1.219,0.366-2.687,2.044-2.256,3.961c-1.8-0.47-4.288,0.981-4.312,2.914c-1.409-0.888-3.658-0.829-5.29,0.711 c-1.029-1.419-3.21-2.282-4.401-1.214c-0.12-1.369-2.082-2.833-3.448-2.655c0.644-2.007-0.854-4.856-2.706-5.196 c2.136-1.903,0.787-6.569-0.841-7.28c1.546-2.348,1.117-6.966,0.084-7.1C12.063,8.906,12.939,12.856,10.804,15.058z"/><path fill="#75dd5b" d="M10.829,15.095c-2.068,1.865-2.429,6.518,1.522,8.206c-1.671,2.004-0.309,6.564,3.061,6.514 c-0.261,1.35,1.511,4.306,4.164,3.04c-0.147,1.995,3.683,3.554,5.075,1.485c2.74,1.982,4.72,2.014,6.247-1.351 c1.537,1,5.085-1.035,4.609-3.543c2.424-0.247,3.46-2.712,2.499-4.238c1.817-0.686,1.537-4.689,0.339-5.244 c0.78-2.67-0.492-4.814-1.183-4.691c-0.446,0.08-0.166,2.783,0.214,4.609c-0.859,0.94-1.124,3.403-0.53,4.891 c-1.217,0.369-2.688,2.044-2.254,3.964c-1.805-0.47-4.298,0.985-4.32,2.92c-1.409-0.884-3.659-0.828-5.3,0.711 c-1.038-1.418-3.218-2.281-4.409-1.212c-0.12-1.369-2.088-2.836-3.453-2.658c0.643-2.01-0.859-4.865-2.711-5.205 c2.136-1.903,0.776-6.578-0.854-7.283c1.534-2.301,1.141-6.927,0.132-7.062C12.077,8.948,12.942,12.913,10.829,15.095z"/><path fill="#76de5c" d="M10.853,15.131c-2.068,1.865-2.417,6.52,1.558,8.177c-1.67,1.989-0.306,6.544,3.068,6.474 c-0.269,1.328,1.497,4.291,4.138,3.012c-0.157,1.994,3.668,3.556,5.045,1.481c2.721,1.987,4.686,2.03,6.212-1.334 c1.529,1.006,5.078-1.027,4.598-3.52c2.433-0.243,3.467-2.707,2.502-4.223c1.819-0.674,1.539-4.686,0.341-5.233 c0.796-2.637-0.455-4.791-1.143-4.667c-0.446,0.081-0.164,2.777,0.215,4.586c-0.857,0.941-1.122,3.409-0.528,4.896 c-1.215,0.372-2.688,2.045-2.253,3.968c-1.81-0.469-4.307,0.99-4.327,2.927c-1.409-0.881-3.66-0.827-5.31,0.712 c-1.048-1.417-3.227-2.28-4.417-1.211c-0.12-1.369-2.094-2.839-3.459-2.661c0.642-2.013-0.865-4.874-2.716-5.214 c2.136-1.903,0.766-6.586-0.868-7.286c1.521-2.254,1.166-6.887,0.181-7.024C12.092,8.991,12.946,12.969,10.853,15.131z"/><path fill="#76de5d" d="M10.877,15.167c-2.068,1.865-2.404,6.521,1.594,8.147c-1.67,1.974-0.303,6.525,3.075,6.434 c-0.276,1.306,1.482,4.276,4.112,2.983c-0.167,1.992,3.654,3.559,5.015,1.477c2.701,1.992,4.652,2.047,6.178-1.317 c1.521,1.013,5.071-1.02,4.586-3.497c2.442-0.238,3.475-2.703,2.505-4.208c1.821-0.662,1.54-4.683,0.343-5.222 c0.813-2.604-0.418-4.768-1.103-4.643c-0.446,0.082-0.162,2.77,0.216,4.564c-0.856,0.943-1.12,3.415-0.526,4.902 c-1.213,0.376-2.688,2.046-2.252,3.972c-1.814-0.468-4.316,0.995-4.335,2.933c-1.409-0.878-3.661-0.826-5.32,0.712 c-1.057-1.416-3.235-2.279-4.425-1.21c-0.12-1.369-2.099-2.842-3.465-2.664c0.64-2.016-0.87-4.883-2.721-5.223 c2.136-1.903,0.756-6.595-0.882-7.288c1.509-2.207,1.191-6.848,0.23-6.986C12.106,9.034,12.949,13.026,10.877,15.167z"/><path fill="#77df5e" d="M10.902,15.203c-2.068,1.865-2.392,6.523,1.63,8.118c-1.669,1.959-0.299,6.506,3.083,6.394 c-0.283,1.283,1.468,4.262,4.087,2.955c-0.177,1.991,3.64,3.561,4.984,1.473c2.681,1.997,4.618,2.064,6.144-1.301 c1.514,1.019,5.064-1.013,4.574-3.474c2.452-0.233,3.482-2.698,2.509-4.193c1.823-0.65,1.542-4.681,0.345-5.212 c0.83-2.571-0.382-4.745-1.062-4.619c-0.446,0.083-0.16,2.764,0.217,4.541c-0.854,0.944-1.118,3.421-0.524,4.908 c-1.211,0.379-2.689,2.046-2.25,3.975c-1.819-0.467-4.325,0.999-4.343,2.94c-1.409-0.875-3.662-0.825-5.33,0.713 c-1.066-1.415-3.244-2.278-4.433-1.209c-0.12-1.369-2.105-2.846-3.471-2.668c0.639-2.019-0.875-4.892-2.726-5.231 c2.136-1.903,0.746-6.604-0.896-7.291c1.496-2.16,1.216-6.808,0.278-6.948C12.12,9.077,12.952,13.082,10.902,15.203z"/><path fill="#78e05f" d="M10.926,15.239c-2.068,1.865-2.38,6.524,1.666,8.089c-1.669,1.944-0.296,6.487,3.09,6.355 c-0.291,1.261,1.453,4.247,4.061,2.927c-0.187,1.989,3.625,3.563,4.954,1.469c2.661,2.002,4.584,2.08,6.11-1.284 c1.506,1.026,5.058-1.006,4.562-3.452c2.461-0.229,3.489-2.694,2.512-4.178c1.825-0.638,1.544-4.678,0.346-5.201 c0.846-2.539-0.345-4.722-1.022-4.595c-0.446,0.084-0.158,2.757,0.218,4.518c-0.853,0.945-1.116,3.427-0.522,4.914 c-1.209,0.382-2.689,2.047-2.249,3.979c-1.824-0.466-4.334,1.004-4.35,2.947c-1.41-0.872-3.662-0.824-5.34,0.714 c-1.076-1.414-3.252-2.276-4.441-1.207c-0.12-1.369-2.111-2.849-3.477-2.671c0.637-2.022-0.881-4.9-2.731-5.24 c2.136-1.903,0.735-6.613-0.91-7.294c1.484-2.113,1.241-6.768,0.327-6.91C12.134,9.119,12.956,13.139,10.926,15.239z"/><path fill="#79e060" d="M10.951,15.276c-2.068,1.865-2.368,6.526,1.702,8.059c-1.668,1.929-0.293,6.468,3.098,6.315 c-0.298,1.239,1.439,4.232,4.035,2.899c-0.197,1.988,3.611,3.566,4.924,1.465c2.642,2.007,4.55,2.097,6.076-1.267 c1.498,1.033,5.051-0.999,4.55-3.429c2.471-0.224,3.496-2.69,2.516-4.163c1.827-0.627,1.545-4.675,0.348-5.19 c0.863-2.506-0.309-4.699-0.982-4.571c-0.446,0.085-0.156,2.751,0.219,4.495c-0.851,0.946-1.114,3.433-0.52,4.92 c-1.207,0.386-2.689,2.048-2.248,3.983c-1.829-0.465-4.344,1.008-4.358,2.953c-1.41-0.868-3.663-0.823-5.35,0.714 c-1.085-1.413-3.26-2.275-4.449-1.206c-0.12-1.369-2.117-2.852-3.482-2.674c0.636-2.025-0.886-4.909-2.736-5.249 c2.136-1.903,0.725-6.622-0.923-7.297c1.471-2.066,1.266-6.729,0.376-6.871C12.148,9.162,12.959,13.196,10.951,15.276z"/><path fill="#7ae161" d="M10.975,15.312c-2.068,1.865-2.356,6.527,1.737,8.03c-1.668,1.914-0.29,6.448,3.105,6.275 c-0.305,1.217,1.424,4.218,4.009,2.871c-0.207,1.987,3.597,3.568,4.894,1.461c2.622,2.012,4.516,2.114,6.042-1.251 c1.491,1.039,5.044-0.992,4.538-3.406c2.48-0.219,3.503-2.685,2.519-4.148c1.829-0.615,1.547-4.673,0.35-5.179 c0.88-2.473-0.272-4.676-0.941-4.547c-0.446,0.086-0.154,2.744,0.22,4.472c-0.85,0.948-1.112,3.439-0.518,4.926 c-1.205,0.389-2.69,2.048-2.246,3.986c-1.833-0.464-4.353,1.013-4.365,2.96c-1.41-0.865-3.664-0.822-5.359,0.715 c-1.095-1.412-3.269-2.274-4.457-1.205c-0.12-1.369-2.123-2.855-3.488-2.677c0.635-2.028-0.892-4.918-2.741-5.257 c2.136-1.903,0.715-6.63-0.937-7.3c1.459-2.019,1.291-6.689,0.424-6.833C12.162,9.205,12.963,13.252,10.975,15.312z"/><path fill="#7ae262" d="M11,15.348c-2.068,1.865-2.343,6.528,1.773,8.001c-1.667,1.899-0.287,6.429,3.113,6.235 c-0.313,1.195,1.41,4.203,3.983,2.843c-0.217,1.985,3.583,3.57,4.863,1.457c2.602,2.017,4.481,2.13,6.008-1.234 c1.483,1.046,5.037-0.985,4.527-3.383c2.49-0.215,3.51-2.681,2.523-4.133c1.831-0.603,1.548-4.67,0.352-5.169 c0.897-2.44-0.236-4.653-0.901-4.523c-0.446,0.087-0.152,2.738,0.221,4.449c-0.848,0.949-1.11,3.445-0.516,4.932 c-1.202,0.392-2.69,2.049-2.245,3.99c-1.838-0.463-4.362,1.017-4.373,2.966c-1.41-0.862-3.665-0.821-5.369,0.716 c-1.104-1.411-3.277-2.273-4.465-1.204c-0.12-1.369-2.128-2.858-3.494-2.68c0.633-2.031-0.897-4.927-2.746-5.266 c2.136-1.903,0.705-6.639-0.951-7.303c1.447-1.972,1.315-6.65,0.473-6.795C12.176,9.247,12.966,13.309,11,15.348z"/><path fill="#7be263" d="M11.024,15.384c-2.068,1.865-2.331,6.53,1.809,7.971c-1.666,1.884-0.284,6.41,3.12,6.196 c-0.32,1.173,1.395,4.189,3.958,2.814c-0.226,1.984,3.568,3.572,4.833,1.453c2.583,2.023,4.447,2.147,5.974-1.217 c1.475,1.052,5.03-0.978,4.515-3.36c2.499-0.21,3.517-2.677,2.526-4.118c1.833-0.591,1.55-4.667,0.353-5.158 c0.913-2.407-0.199-4.63-0.861-4.499c-0.445,0.088-0.15,2.731,0.222,4.427c-0.847,0.95-1.108,3.451-0.514,4.938 c-1.2,0.396-2.69,2.05-2.244,3.994c-1.843-0.462-4.371,1.022-4.381,2.973c-1.41-0.859-3.666-0.82-5.379,0.716 c-1.113-1.41-3.285-2.272-4.473-1.203c-0.12-1.369-2.134-2.862-3.5-2.683c0.632-2.034-0.903-4.936-2.751-5.275 c2.136-1.903,0.694-6.648-0.965-7.306c1.434-1.925,1.34-6.61,0.522-6.757C12.191,9.29,12.969,13.365,11.024,15.384z"/><path fill="#7ce364" d="M11.048,15.42c-2.068,1.865-2.319,6.531,1.845,7.942c-1.666,1.868-0.281,6.391,3.128,6.156 c-0.327,1.15,1.381,4.174,3.932,2.786c-0.236,1.982,3.554,3.575,4.803,1.449c2.563,2.028,4.413,2.164,5.94-1.201 c1.468,1.059,5.024-0.971,4.503-3.337c2.508-0.206,3.525-2.672,2.53-4.103c1.835-0.579,1.551-4.665,0.355-5.147 c0.93-2.374-0.163-4.607-0.82-4.475c-0.445,0.09-0.147,2.725,0.223,4.404c-0.845,0.952-1.106,3.457-0.512,4.944 c-1.198,0.399-2.691,2.05-2.243,3.997c-1.847-0.461-4.38,1.027-4.388,2.979c-1.41-0.855-3.667-0.819-5.389,0.717 c-1.123-1.409-3.294-2.271-4.481-1.201c-0.12-1.369-2.14-2.865-3.505-2.687c0.631-2.038-0.908-4.945-2.756-5.284 c2.136-1.903,0.684-6.657-0.979-7.309c1.422-1.878,1.365-6.57,0.57-6.719C12.205,9.333,12.973,13.422,11.048,15.42z"/><path fill="#7de365" d="M11.073,15.457c-2.068,1.865-2.307,6.533,1.881,7.913c-1.665,1.853-0.278,6.372,3.135,6.116 c-0.335,1.128,1.366,4.159,3.906,2.758c-0.246,1.981,3.54,3.577,4.773,1.445c2.543,2.033,4.379,2.18,5.906-1.184 c1.46,1.065,5.017-0.964,4.491-3.314c2.518-0.201,3.532-2.668,2.533-4.088c1.837-0.567,1.553-4.662,0.357-5.136 c0.947-2.341-0.126-4.584-0.78-4.451c-0.445,0.091-0.145,2.718,0.224,4.381c-0.843,0.953-1.104,3.463-0.51,4.95 c-1.196,0.402-2.691,2.051-2.241,4.001c-1.852-0.46-4.39,1.031-4.396,2.986c-1.41-0.852-3.668-0.818-5.399,0.717 c-1.132-1.408-3.302-2.27-4.489-1.2c-0.12-1.369-2.146-2.868-3.511-2.69c0.629-2.041-0.914-4.954-2.761-5.292 c2.136-1.903,0.674-6.665-0.992-7.311c1.409-1.831,1.39-6.531,0.619-6.681C12.219,9.376,12.976,13.478,11.073,15.457z"/><path fill="#7ee466" d="M11.097,15.493c-2.068,1.865-2.295,6.534,1.916,7.883c-1.665,1.838-0.275,6.353,3.142,6.076 c-0.342,1.106,1.352,4.145,3.88,2.73c-0.256,1.979,3.525,3.579,4.742,1.441c2.523,2.038,4.345,2.197,5.871-1.167 c1.452,1.072,5.01-0.957,4.479-3.291c2.527-0.196,3.539-2.664,2.536-4.073c1.839-0.555,1.555-4.66,0.359-5.126 c0.963-2.308-0.089-4.56-0.74-4.427c-0.445,0.093-0.143,2.712,0.225,4.358c-0.842,0.954-1.102,3.469-0.508,4.956 c-1.194,0.406-2.691,2.051-2.24,4.005c-1.857-0.459-4.399,1.036-4.404,2.992c-1.41-0.849-3.669-0.817-5.409,0.718 c-1.141-1.406-3.31-2.269-4.498-1.199c-0.12-1.369-2.151-2.871-3.517-2.693c0.628-2.044-0.919-4.963-2.766-5.301 c2.136-1.903,0.664-6.674-1.006-7.314c1.397-1.784,1.415-6.491,0.668-6.643C12.233,9.418,12.979,13.535,11.097,15.493z"/><path fill="#7ee567" d="M11.122,15.529c-2.068,1.865-2.282,6.536,1.952,7.854c-1.664,1.823-0.272,6.333,3.15,6.037 c-0.349,1.084,1.337,4.13,3.855,2.702c-0.266,1.978,3.511,3.582,4.712,1.437c2.504,2.043,4.311,2.214,5.837-1.151 c1.445,1.078,5.003-0.95,4.467-3.268c2.537-0.192,3.546-2.659,2.54-4.058c1.841-0.543,1.556-4.657,0.36-5.115 c0.98-2.275-0.053-4.537-0.7-4.403c-0.445,0.093-0.141,2.705,0.226,4.335c-0.84,0.955-1.1,3.475-0.506,4.962 c-1.192,0.409-2.692,2.052-2.239,4.008c-1.862-0.458-4.408,1.04-4.411,2.999c-1.41-0.846-3.67-0.815-5.419,0.719 c-1.151-1.405-3.319-2.268-4.506-1.198c-0.12-1.369-2.157-2.874-3.523-2.696c0.626-2.047-0.925-4.972-2.771-5.31 c2.136-1.903,0.653-6.683-1.02-7.317c1.384-1.737,1.44-6.451,0.716-6.604C12.247,9.461,12.983,13.591,11.122,15.529z"/><path fill="#7fe568" d="M11.146,15.565c-2.068,1.865-2.27,6.537,1.988,7.825c-1.664,1.808-0.269,6.314,3.157,5.997 c-0.356,1.062,1.323,4.115,3.829,2.674c-0.276,1.976,3.497,3.584,4.682,1.433c2.484,2.048,4.277,2.23,5.803-1.134 c1.437,1.085,4.996-0.943,4.456-3.245c2.546-0.187,3.553-2.655,2.543-4.043c1.843-0.532,1.558-4.654,0.362-5.104 c0.997-2.242-0.016-4.515-0.659-4.379c-0.445,0.094-0.139,2.699,0.227,4.312c-0.839,0.957-1.098,3.48-0.504,4.968 c-1.19,0.412-2.692,2.053-2.237,4.012c-1.866-0.457-4.417,1.045-4.419,3.005c-1.41-0.843-3.67-0.814-5.429,0.719 c-1.16-1.404-3.327-2.267-4.514-1.197c-0.12-1.369-2.163-2.878-3.528-2.699c0.625-2.05-0.93-4.981-2.776-5.319 c2.136-1.903,0.643-6.692-1.034-7.32c1.372-1.69,1.465-6.412,0.765-6.566C12.261,9.504,12.986,13.648,11.146,15.565z"/><path fill="#80e669" d="M11.171,15.601c-2.068,1.865-2.258,6.539,2.024,7.795c-1.663,1.793-0.266,6.295,3.165,5.957 c-0.364,1.039,1.308,4.101,3.803,2.645c-0.286,1.975,3.482,3.586,4.652,1.429c2.464,2.053,4.243,2.247,5.769-1.117 c1.429,1.091,4.99-0.936,4.444-3.222c2.555-0.183,3.56-2.651,2.547-4.028c1.845-0.52,1.559-4.652,0.364-5.093 c1.013-2.209,0.02-4.492-0.619-4.355c-0.445,0.095-0.137,2.692,0.228,4.289c-0.837,0.958-1.096,3.486-0.502,4.974 c-1.188,0.416-2.692,2.053-2.236,4.016c-1.871-0.456-4.426,1.05-4.426,3.012c-1.411-0.839-3.671-0.813-5.439,0.72 c-1.169-1.403-3.336-2.266-4.522-1.195c-0.12-1.369-2.169-2.881-3.534-2.703c0.624-2.053-0.936-4.99-2.781-5.327 c2.136-1.903,0.633-6.701-1.048-7.323c1.359-1.643,1.489-6.372,0.814-6.528C12.275,9.546,12.99,13.704,11.171,15.601z"/><linearGradient id="BSRl_pO00~YmT6Wo7GoF2a" x1="6.636" x2="11.688" y1="20.622" y2="21.857" gradientUnits="userSpaceOnUse"><stop offset="0" stop-color="#299900"/><stop offset="1" stop-color="#299900" stop-opacity="0"/></linearGradient><path fill="url(#BSRl_pO00~YmT6Wo7GoF2a)" d="M12.131,23.39c-3.861-1.025-5.483-3.572-6.11-5.028c-0.018,1.376,0.211,2.842,0.789,4.309	C9.247,23.608,11.151,23.499,12.131,23.39z"/><linearGradient id="BSRl_pO00~YmT6Wo7GoF2b" x1="39.333" x2="35.729" y1="33.37" y2="29.95" gradientUnits="userSpaceOnUse"><stop offset="0" stop-color="#299900"/><stop offset="1" stop-color="#299900" stop-opacity="0"/></linearGradient><path fill="url(#BSRl_pO00~YmT6Wo7GoF2b)" d="M35.619,29.587c1.518,1.518,2.406,2.686,2.783,3.99c0.164-0.547,0.263-1.141,0.261-1.791	C38.662,31.786,37.944,30.493,35.619,29.587z"/><linearGradient id="BSRl_pO00~YmT6Wo7GoF2c" x1="41.886" x2="38.965" y1="20.736" y2="19.703" gradientUnits="userSpaceOnUse"><stop offset="0" stop-color="#299900"/><stop offset="1" stop-color="#299900" stop-opacity="0"/></linearGradient><path fill="url(#BSRl_pO00~YmT6Wo7GoF2c)" d="M38.508,19.965c1.273,0.073,2.35,0.465,3.216,1.218c-0.167-0.493-0.404-0.925-0.702-1.244	C41.022,19.939,40.075,19.402,38.508,19.965z"/><linearGradient id="BSRl_pO00~YmT6Wo7GoF2d" x1="41.713" x2="38.406" y1="27.624" y2="24.863" gradientUnits="userSpaceOnUse"><stop offset="0" stop-color="#299900"/><stop offset="1" stop-color="#299900" stop-opacity="0"/></linearGradient><path fill="url(#BSRl_pO00~YmT6Wo7GoF2d)" d="M38.091,25.327c1.249,0.49,2.344,1.276,2.897,2.243c0.006-0.458-0.027-0.925-0.144-1.398	C40.844,26.172,40.001,25.45,38.091,25.327z"/><linearGradient id="BSRl_pO00~YmT6Wo7GoF2e" x1="13.947" x2="18.763" y1="37.642" y2="34.508" gradientUnits="userSpaceOnUse"><stop offset="0" stop-color="#299900"/><stop offset="1" stop-color="#299900" stop-opacity="0"/></linearGradient><path fill="url(#BSRl_pO00~YmT6Wo7GoF2e)" d="M19.092,33.75c-2.541,2.468-5.92,3.467-7.507,3.445c1.083,0.813,2.473,1.287,4.136,1.277	C15.722,38.471,18.057,35.905,19.092,33.75z"/><linearGradient id="BSRl_pO00~YmT6Wo7GoF2f" x1="7.412" x2="13.862" y1="31.329" y2="29.958" gradientUnits="userSpaceOnUse"><stop offset="0" stop-color="#299900"/><stop offset="1" stop-color="#299900" stop-opacity="0"/></linearGradient><path fill="url(#BSRl_pO00~YmT6Wo7GoF2f)" d="M6.629,29.577c0.539,1.371,1.408,2.55,2.557,3.263c1.117-0.124,3.848-0.874,5.573-2.641	C11.154,31.383,8.242,30.654,6.629,29.577z"/><linearGradient id="BSRl_pO00~YmT6Wo7GoF2g" x1="32.686" x2="30.945" y1="38.874" y2="33.535" gradientUnits="userSpaceOnUse"><stop offset="0" stop-color="#299900"/><stop offset="1" stop-color="#299900" stop-opacity="0"/></linearGradient><path fill="url(#BSRl_pO00~YmT6Wo7GoF2g)" d="M31.858,39.105c0.427-0.476,0.81-1.014,1.106-1.667c0,0-0.072-2.264-2.184-4.376	C31.624,35.388,31.83,37.646,31.858,39.105z"/><linearGradient id="BSRl_pO00~YmT6Wo7GoF2h" x1="22.069" x2="24.012" y1="40.512" y2="36.059" gradientUnits="userSpaceOnUse"><stop offset="0" stop-color="#299900"/><stop offset="1" stop-color="#299900" stop-opacity="0"/></linearGradient><path fill="url(#BSRl_pO00~YmT6Wo7GoF2h)" d="M20.439,40.973c1.081,0.038,2.188-0.153,3.142-0.651c0,0,0.819-2.834,0.775-4.515	C23.093,38.617,21.7,40.301,20.439,40.973z"/><radialGradient id="BSRl_pO00~YmT6Wo7GoF2i" cx="41.994" cy="23.401" r="1.76" gradientUnits="userSpaceOnUse"><stop offset=".007" stop-color="#4d4d4d"/><stop offset="1"/></radialGradient><circle cx="42" cy="24" r="1" fill="url(#BSRl_pO00~YmT6Wo7GoF2i)"/><radialGradient id="BSRl_pO00~YmT6Wo7GoF2j" cx="39.994" cy="29.401" r="1.76" gradientUnits="userSpaceOnUse"><stop offset=".007" stop-color="#4d4d4d"/><stop offset="1"/></radialGradient><circle cx="40" cy="30" r="1" fill="url(#BSRl_pO00~YmT6Wo7GoF2j)"/><radialGradient id="BSRl_pO00~YmT6Wo7GoF2k" cx="35.994" cy="36.401" r="1.76" gradientUnits="userSpaceOnUse"><stop offset=".007" stop-color="#4d4d4d"/><stop offset="1"/></radialGradient><circle cx="36" cy="37" r="1" fill="url(#BSRl_pO00~YmT6Wo7GoF2k)"/><radialGradient id="BSRl_pO00~YmT6Wo7GoF2l" cx="27.994" cy="40.401" r="1.76" gradientUnits="userSpaceOnUse"><stop offset=".007" stop-color="#4d4d4d"/><stop offset="1"/></radialGradient><circle cx="28" cy="41" r="1" fill="url(#BSRl_pO00~YmT6Wo7GoF2l)"/><radialGradient id="BSRl_pO00~YmT6Wo7GoF2m" cx="19.994" cy="40.401" r="1.76" gradientUnits="userSpaceOnUse"><stop offset=".007" stop-color="#4d4d4d"/><stop offset="1"/></radialGradient><circle cx="20" cy="41" r="1" fill="url(#BSRl_pO00~YmT6Wo7GoF2m)"/><radialGradient id="BSRl_pO00~YmT6Wo7GoF2n" cx="10.994" cy="36.401" r="1.76" gradientUnits="userSpaceOnUse"><stop offset=".007" stop-color="#4d4d4d"/><stop offset="1"/></radialGradient><circle cx="11" cy="37" r="1" fill="url(#BSRl_pO00~YmT6Wo7GoF2n)"/><radialGradient id="BSRl_pO00~YmT6Wo7GoF2o" cx="5.994" cy="26.401" r="1.76" gradientUnits="userSpaceOnUse"><stop offset=".007" stop-color="#4d4d4d"/><stop offset="1"/></radialGradient><circle cx="6" cy="27" r="1" fill="url(#BSRl_pO00~YmT6Wo7GoF2o)"/><radialGradient id="BSRl_pO00~YmT6Wo7GoF2p" cx="5.994" cy="17.401" r="1.76" gradientUnits="userSpaceOnUse"><stop offset=".007" stop-color="#4d4d4d"/><stop offset="1"/></radialGradient><circle cx="6" cy="18" r="1" fill="url(#BSRl_pO00~YmT6Wo7GoF2p)"/><radialGradient id="BSRl_pO00~YmT6Wo7GoF2q" cx="12.882" cy="17.195" r="2.948" gradientUnits="userSpaceOnUse"><stop offset="0" stop-color="#edfadf" stop-opacity=".6"/><stop offset="1" stop-color="#edfadf" stop-opacity="0"/></radialGradient><circle cx="12.882" cy="17.195" r="2.948" fill="url(#BSRl_pO00~YmT6Wo7GoF2q)"/><radialGradient id="BSRl_pO00~YmT6Wo7GoF2r" cx="13.941" cy="25.666" r="2.948" gradientUnits="userSpaceOnUse"><stop offset="0" stop-color="#edfadf" stop-opacity=".6"/><stop offset="1" stop-color="#edfadf" stop-opacity="0"/></radialGradient><circle cx="13.941" cy="25.666" r="2.948" fill="url(#BSRl_pO00~YmT6Wo7GoF2r)"/><radialGradient id="BSRl_pO00~YmT6Wo7GoF2s" cx="18.177" cy="29.901" r="2.948" gradientUnits="userSpaceOnUse"><stop offset="0" stop-color="#edfadf" stop-opacity=".6"/><stop offset="1" stop-color="#edfadf" stop-opacity="0"/></radialGradient><circle cx="18.176" cy="29.901" r="2.948" fill="url(#BSRl_pO00~YmT6Wo7GoF2s)"/><radialGradient id="BSRl_pO00~YmT6Wo7GoF2t" cx="22.412" cy="32.019" r="2.429" gradientUnits="userSpaceOnUse"><stop offset="0" stop-color="#edfadf" stop-opacity=".6"/><stop offset="1" stop-color="#edfadf" stop-opacity="0"/></radialGradient><circle cx="22.412" cy="32.019" r="2.429" fill="url(#BSRl_pO00~YmT6Wo7GoF2t)"/><radialGradient id="BSRl_pO00~YmT6Wo7GoF2u" cx="27.706" cy="32.019" r="2.389" gradientUnits="userSpaceOnUse"><stop offset="0" stop-color="#edfadf" stop-opacity=".6"/><stop offset="1" stop-color="#edfadf" stop-opacity="0"/></radialGradient><circle cx="27.706" cy="32.019" r="2.389" fill="url(#BSRl_pO00~YmT6Wo7GoF2u)"/><radialGradient id="BSRl_pO00~YmT6Wo7GoF2v" cx="33" cy="30.96" r="2.492" gradientUnits="userSpaceOnUse"><stop offset="0" stop-color="#edfadf" stop-opacity=".6"/><stop offset="1" stop-color="#edfadf" stop-opacity="0"/></radialGradient><circle cx="33" cy="30.96" r="2.492" fill="url(#BSRl_pO00~YmT6Wo7GoF2v)"/><radialGradient id="BSRl_pO00~YmT6Wo7GoF2w" cx="36.176" cy="26.725" r="2.366" gradientUnits="userSpaceOnUse"><stop offset="0" stop-color="#edfadf" stop-opacity=".6"/><stop offset="1" stop-color="#edfadf" stop-opacity="0"/></radialGradient><circle cx="36.176" cy="26.725" r="2.366" fill="url(#BSRl_pO00~YmT6Wo7GoF2w)"/><radialGradient id="BSRl_pO00~YmT6Wo7GoF2x" cx="37.871" cy="21.854" r="1.817" gradientUnits="userSpaceOnUse"><stop offset="0" stop-color="#edfadf" stop-opacity=".6"/><stop offset="1" stop-color="#edfadf" stop-opacity="0"/></radialGradient><circle cx="37.871" cy="21.854" r="1.817" fill="url(#BSRl_pO00~YmT6Wo7GoF2x)"/><radialGradient id="BSRl_pO00~YmT6Wo7GoF2y" cx="37.714" cy="16.717" r="1.66" gradientUnits="userSpaceOnUse"><stop offset="0" stop-color="#edfadf" stop-opacity=".6"/><stop offset="1" stop-color="#edfadf" stop-opacity="0"/></radialGradient><circle cx="37.714" cy="16.717" r="1.66" fill="url(#BSRl_pO00~YmT6Wo7GoF2y)"/><radialGradient id="BSRl_pO00~YmT6Wo7GoF2z" cx="13.567" cy="6.944" r="10.796" gradientUnits="userSpaceOnUse"><stop offset=".007" stop-color="#4d4d4d"/><stop offset=".212" stop-color="#484848"/><stop offset=".457" stop-color="#3a3a3a"/><stop offset=".721" stop-color="#222"/><stop offset=".998"/><stop offset="1"/></radialGradient><path fill="url(#BSRl_pO00~YmT6Wo7GoF2z)" d="M16.721,15.591c2.678-6.628-1.145-10.572-4.346-10.572c-1.598,0,0.256,2.693-3.792,6.746	c0,0,0.735,2.261,2.762,3.284C14.173,16.477,16.721,15.591,16.721,15.591z"/><radialGradient id="BSRl_pO00~YmT6Wo7GoF2A" cx="13.994" cy="9.401" r="1.76" gradientUnits="userSpaceOnUse"><stop offset="0" stop-color="#70856b"/><stop offset=".031" stop-color="#6fab62"/><stop offset="1" stop-color="#104a01"/></radialGradient><circle cx="14" cy="10" r="1" fill="url(#BSRl_pO00~YmT6Wo7GoF2A)"/></svg>