<svg xmlns="http://www.w3.org/2000/svg" viewBox="0 0 48 48"><path fill="#48a11b" d="M39.22,43c1,0,4.78-2.161,4.78-5.588C44,32.271,37,32,37,32v4c0,0,4.467-0.44,4.467,1.765 C41.467,41.204,38.22,43,39.22,43z"/><path fill="#49a21c" d="M39.247,42.976c0.981,0,4.726-2.147,4.726-5.577c0-5.096-6.921-5.364-6.921-5.364l-0.025,3.934 c0,0,4.459-0.431,4.459,1.789C41.486,41.19,38.266,42.976,39.247,42.976z"/><path fill="#4aa31d" d="M39.273,42.952c0.962,0,4.673-2.133,4.673-5.566c0-5.051-6.841-5.316-6.841-5.316l-0.049,3.867 c0,0,4.451-0.422,4.451,1.813C41.506,41.177,38.312,42.952,39.273,42.952z"/><path fill="#4ba31e" d="M39.3,42.928c0.943,0,4.619-2.118,4.619-5.555c0-5.005-6.762-5.267-6.762-5.267l-0.074,3.801 c0,0,4.443-0.414,4.443,1.836C41.526,41.163,38.357,42.928,39.3,42.928z"/><path fill="#4ca41f" d="M39.326,42.904c0.923,0,4.566-2.104,4.566-5.545c0-4.96-6.682-5.219-6.682-5.219l-0.099,3.734 c0,0,4.435-0.405,4.435,1.86C41.546,41.149,38.403,42.904,39.326,42.904z"/><path fill="#4da520" d="M39.353,42.881c0.904,0,4.512-2.09,4.512-5.534c0-4.915-6.603-5.171-6.603-5.171l-0.124,3.668 c0,0,4.427-0.396,4.427,1.884C41.565,41.135,38.448,42.881,39.353,42.881z"/><path fill="#4da621" d="M39.379,42.857c0.885,0,4.459-2.075,4.459-5.523c0-4.869-6.523-5.122-6.523-5.122l-0.148,3.602 c0,0,4.419-0.387,4.419,1.908C41.585,41.122,38.494,42.857,39.379,42.857z"/><path fill="#4ea722" d="M39.405,42.833c0.866,0,4.405-2.061,4.405-5.513c0-4.824-6.444-5.074-6.444-5.074l-0.173,3.535 c0,0,4.411-0.379,4.411,1.932C41.605,41.108,38.54,42.833,39.405,42.833z"/><path fill="#4fa823" d="M39.432,42.809c0.847,0,4.352-2.047,4.352-5.502c0-4.778-6.364-5.026-6.364-5.026l-0.198,3.469 c0,0,4.403-0.37,4.403,1.956C41.624,41.094,38.585,42.809,39.432,42.809z"/><path fill="#50a824" d="M39.458,42.785c0.828,0,4.298-2.033,4.298-5.491c0-4.733-6.285-4.977-6.285-4.977l-0.222,3.403 c0,0,4.395-0.361,4.395,1.98C41.644,41.08,38.631,42.785,39.458,42.785z"/><path fill="#51a925" d="M39.485,42.761c0.808,0,4.245-2.018,4.245-5.481c0-4.688-6.205-4.929-6.205-4.929l-0.247,3.336 c0,0,4.387-0.352,4.387,2.004C41.664,41.067,38.676,42.761,39.485,42.761z"/><path fill="#52aa26" d="M39.511,42.737c0.789,0,4.191-2.004,4.191-5.47c0-4.642-6.126-4.881-6.126-4.881l-0.272,3.27 c0,0,4.379-0.343,4.379,2.027C41.684,41.053,38.722,42.737,39.511,42.737z"/><path fill="#53ab27" d="M39.538,42.713c0.77,0,4.138-1.99,4.138-5.459c0-4.597-6.046-4.832-6.046-4.832l-0.296,3.203 c0,0,4.371-0.335,4.371,2.051C41.703,41.039,38.767,42.713,39.538,42.713z"/><path fill="#54ac28" d="M39.564,42.689c0.751,0,4.084-1.975,4.084-5.449c0-4.551-5.967-4.784-5.967-4.784l-0.321,3.137 c0,0,4.363-0.326,4.363,2.075C41.723,41.026,38.813,42.689,39.564,42.689z"/><path fill="#55ac29" d="M39.59,42.665c0.732,0,4.031-1.961,4.031-5.438c0-4.506-5.888-4.735-5.888-4.735l-0.346,3.071 c0,0,4.355-0.317,4.355,2.099C41.743,41.012,38.859,42.665,39.59,42.665z"/><path fill="#56ad2a" d="M39.617,42.641c0.713,0,3.977-1.947,3.977-5.427c0-4.461-5.808-4.687-5.808-4.687l-0.371,3.004 c0,0,4.347-0.308,4.347,2.123C41.763,40.998,38.904,42.641,39.617,42.641z"/><path fill="#57ae2b" d="M39.643,42.618c0.693,0,3.924-1.933,3.924-5.416c0-4.415-5.729-4.639-5.729-4.639L37.443,35.5 c0,0,4.339-0.3,4.339,2.147C41.782,40.984,38.95,42.618,39.643,42.618z"/><path fill="#57af2c" d="M39.67,42.594c0.674,0,3.87-1.918,3.87-5.406c0-4.37-5.649-4.59-5.649-4.59l-0.42,2.872 c0,0,4.331-0.291,4.331,2.171C41.802,40.971,38.995,42.594,39.67,42.594z"/><path fill="#58b02d" d="M39.696,42.57c0.655,0,3.817-1.904,3.817-5.395c0-4.324-5.57-4.542-5.57-4.542l-0.445,2.805 c0,0,4.323-0.282,4.323,2.195C41.822,40.957,39.041,42.57,39.696,42.57z"/><path fill="#59b02e" d="M39.722,42.546c0.636,0,3.763-1.89,3.763-5.384c0-4.279-5.49-4.494-5.49-4.494l-0.469,2.739 c0,0,4.316-0.273,4.316,2.218C41.841,40.943,39.086,42.546,39.722,42.546z"/><path fill="#5ab12f" d="M39.749,42.522c0.617,0,3.71-1.875,3.71-5.374c0-4.233-5.411-4.445-5.411-4.445l-0.494,2.672 c0,0,4.308-0.264,4.308,2.242C41.861,40.929,39.132,42.522,39.749,42.522z"/><path fill="#5bb230" d="M39.775,42.498c0.598,0,3.656-1.861,3.656-5.363c0-4.188-5.331-4.397-5.331-4.397l-0.519,2.606 c0,0,4.3-0.256,4.3,2.266C41.881,40.916,39.178,42.498,39.775,42.498z"/><path fill="#5cb330" d="M39.802,42.474c0.578,0,3.603-1.847,3.603-5.352c0-4.143-5.252-4.349-5.252-4.349l-0.544,2.54 c0,0,4.292-0.247,4.292,2.29C41.901,40.902,39.223,42.474,39.802,42.474z"/><path fill="#5db431" d="M39.828,42.45c0.559,0,3.549-1.832,3.549-5.342c0-4.097-5.172-4.3-5.172-4.3l-0.568,2.473 c0,0,4.284-0.238,4.284,2.314C41.92,40.888,39.269,42.45,39.828,42.45z"/><path fill="#5eb532" d="M39.855,42.426c0.54,0,3.496-1.818,3.496-5.331c0-4.052-5.093-4.252-5.093-4.252l-0.593,2.407 c0,0,4.276-0.229,4.276,2.338C41.94,40.874,39.314,42.426,39.855,42.426z"/><path fill="#5fb533" d="M39.881,42.403c0.521,0,3.442-1.804,3.442-5.32c0-4.006-5.013-4.204-5.013-4.204l-0.618,2.341 c0,0,4.268-0.221,4.268,2.362C41.96,40.861,39.36,42.403,39.881,42.403z"/><path fill="#60b634" d="M39.907,42.379c0.502,0,3.389-1.79,3.389-5.31c0-3.961-4.934-4.155-4.934-4.155l-0.642,2.274 c0,0,4.26-0.212,4.26,2.386C41.98,40.847,39.406,42.379,39.907,42.379z"/><path fill="#60b735" d="M39.934,42.355c0.483,0,3.335-1.775,3.335-5.299c0-3.916-4.854-4.107-4.854-4.107l-0.667,2.208 c0,0,4.252-0.203,4.252,2.409C41.999,40.833,39.451,42.355,39.934,42.355z"/><path fill="#61b836" d="M39.96,42.331c0.464,0,3.282-1.761,3.282-5.288c0-3.87-4.775-4.058-4.775-4.058l-0.692,2.141 c0,0,4.244-0.194,4.244,2.433C42.019,40.819,39.497,42.331,39.96,42.331z"/><path fill="#62b937" d="M39.987,42.307c0.444,0,3.228-1.747,3.228-5.277c0-3.825-4.696-4.01-4.696-4.01l-0.717,2.075 c0,0,4.236-0.185,4.236,2.457C42.039,40.806,39.542,42.307,39.987,42.307z"/><path fill="#63b938" d="M40.013,42.283c0.425,0,3.175-1.732,3.175-5.267c0-3.779-4.616-3.962-4.616-3.962l-0.741,2.009 c0,0,4.228-0.177,4.228,2.481C42.058,40.792,39.588,42.283,40.013,42.283z"/><path fill="#64ba39" d="M40.039,42.259c0.406,0,3.121-1.718,3.121-5.256c0-3.734-4.537-3.913-4.537-3.913l-0.766,1.942 c0,0,4.22-0.168,4.22,2.505C42.078,40.778,39.633,42.259,40.039,42.259z"/><path fill="#65bb3a" d="M40.066,42.235c0.387,0,3.068-1.704,3.068-5.245c0-3.689-4.457-3.865-4.457-3.865l-0.791,1.876 c0,0,4.212-0.159,4.212,2.529C42.098,40.764,39.679,42.235,40.066,42.235z"/><path fill="#66bc3b" d="M40.092,42.211c0.368,0,3.014-1.69,3.014-5.235c0-3.643-4.378-3.817-4.378-3.817l-0.815,1.81 c0,0,4.204-0.15,4.204,2.553C42.118,40.751,39.725,42.211,40.092,42.211z"/><path fill="#67bd3c" d="M40.119,42.187c0.349,0,2.961-1.675,2.961-5.224c0-3.598-4.298-3.768-4.298-3.768l-0.84,1.743 c0,0,4.196-0.141,4.196,2.577C42.137,40.737,39.77,42.187,40.119,42.187z"/><path fill="#68bd3d" d="M40.145,42.164c0.329,0,2.907-1.661,2.907-5.213c0-3.552-4.219-3.72-4.219-3.72l-0.865,1.677 c0,0,4.188-0.133,4.188,2.6C42.157,40.723,39.816,42.164,40.145,42.164z"/><path fill="#69be3e" d="M40.172,42.14c0.31,0,2.854-1.647,2.854-5.203c0-3.507-4.139-3.672-4.139-3.672l-0.889,1.61 c0,0,4.18-0.124,4.18,2.624C42.177,40.709,39.861,42.14,40.172,42.14z"/><path fill="#6abf3f" d="M40.198,42.116c0.291,0,2.8-1.632,2.8-5.192c0-3.462-4.06-3.623-4.06-3.623l-0.914,1.544 c0,0,4.172-0.115,4.172,2.648C42.197,40.696,39.907,42.116,40.198,42.116z"/><path fill="#6ac040" d="M40.224,42.092c0.272,0,2.747-1.618,2.747-5.181c0-3.416-3.98-3.575-3.98-3.575l-0.939,1.478 c0,0,4.164-0.106,4.164,2.672C42.216,40.682,39.952,42.092,40.224,42.092z"/><path fill="#6bc141" d="M40.251,42.068c0.253,0,2.693-1.604,2.693-5.171c0-3.371-3.901-3.526-3.901-3.526l-0.964,1.411 c0,0,4.156-0.098,4.156,2.696C42.236,40.668,39.998,42.068,40.251,42.068z"/><path fill="#6cc242" d="M40.277,42.044c0.234,0,2.64-1.589,2.64-5.16c0-3.325-3.821-3.478-3.821-3.478l-0.988,1.345 c0,0,4.149-0.089,4.149,2.72C42.256,40.654,40.044,42.044,40.277,42.044z"/><path fill="#6dc243" d="M40.304,42.02c0.214,0,2.586-1.575,2.586-5.149c0-3.28-3.742-3.43-3.742-3.43l-1.013,1.278 c0,0,4.141-0.08,4.141,2.744C42.275,40.641,40.089,42.02,40.304,42.02z"/><path fill="#6ec344" d="M40.33,41.996c0.195,0,2.533-1.561,2.533-5.138c0-3.234-3.663-3.381-3.663-3.381l-1.038,1.212 c0,0,4.133-0.071,4.133,2.768C42.295,40.627,40.135,41.996,40.33,41.996z"/><path fill="#6fc445" d="M40.357,41.972c0.176,0,2.479-1.547,2.479-5.128c0-3.189-3.583-3.333-3.583-3.333l-1.062,1.146 c0,0,4.125-0.062,4.125,2.791C42.315,40.613,40.18,41.972,40.357,41.972z"/><radialGradient id="dLTcP~LBMI17OVLSVXeMJa" cx="29.253" cy="32.831" r="11.722" gradientUnits="userSpaceOnUse"><stop offset=".718" stop-opacity=".4"/><stop offset="1" stop-opacity="0"/></radialGradient><path fill="url(#dLTcP~LBMI17OVLSVXeMJa)" d="M39.22,43c1,0,4.78-2.161,4.78-5.588C44,32.271,37,32,37,32v4c0,0,4.467-0.44,4.467,1.765	C41.467,41.204,38.22,43,39.22,43z"/><g><path fill="#409615" d="M23,41c-9.665,0-14.293-2.174-14.789-2.422c-1.976-0.988-2.776-3.391-1.789-5.367 s2.924-2.738,5.367-1.789C14.29,32.395,15.323,33,23,33c7.216,0,10.571-2.178,10.6-2.2c1.766-1.325,4.273-0.968,5.6,0.8 c1.325,1.767,0.967,4.274-0.8,5.6C37.881,37.589,33.043,41,23,41z"/><path fill="#419716" d="M22.999,40.956c-9.653,0-14.255-2.169-14.751-2.418c-1.956-0.979-2.752-3.356-1.776-5.31 c0.976-1.953,2.897-2.702,5.318-1.761c2.501,0.972,3.586,1.575,11.21,1.575c7.223,0,10.56-2.169,10.596-2.195 c1.776-1.277,4.241-0.981,5.554,0.767c1.31,1.746,0.945,4.244-0.809,5.559C37.819,37.563,33.018,40.956,22.999,40.956z"/><path fill="#429817" d="M22.998,40.911c-9.64,0-14.217-2.164-14.713-2.413c-1.936-0.969-2.728-3.322-1.764-5.252 s2.87-2.665,5.268-1.733c2.5,0.972,3.637,1.572,11.209,1.572c7.23,0,10.548-2.159,10.591-2.189 c1.777-1.241,4.209-0.993,5.507,0.734c1.296,1.725,0.924,4.214-0.818,5.518C37.756,37.537,32.993,40.911,22.998,40.911z"/><path fill="#439918" d="M22.998,40.867c-9.628,0-14.18-2.159-14.676-2.408c-1.917-0.96-2.705-3.288-1.752-5.195 c0.953-1.907,2.842-2.629,5.219-1.705c2.5,0.972,3.689,1.569,11.208,1.569c7.236,0,10.537-2.15,10.587-2.184 c1.774-1.21,4.177-1.006,5.461,0.701c1.281,1.705,0.902,4.184-0.828,5.477C37.694,37.512,32.968,40.867,22.998,40.867z"/><path fill="#449a19" d="M22.997,40.823c-9.615,0-14.142-2.154-14.638-2.404c-1.897-0.951-2.681-3.254-1.74-5.138 c0.941-1.884,2.815-2.592,5.17-1.677c2.5,0.972,3.741,1.566,11.207,1.566c7.243,0,10.526-2.141,10.582-2.179 c1.767-1.184,4.145-1.018,5.415,0.668c1.266,1.684,0.88,4.154-0.837,5.436C37.631,37.486,32.942,40.823,22.997,40.823z"/><path fill="#459a1a" d="M22.996,40.779c-9.603,0-14.104-2.148-14.6-2.399c-1.878-0.942-2.657-3.22-1.728-5.081 c0.929-1.861,2.788-2.555,5.121-1.649c2.499,0.971,3.793,1.563,11.206,1.563c7.25,0,10.514-2.131,10.577-2.173 c1.758-1.161,4.113-1.031,5.368,0.635c1.252,1.663,0.861,4.128-0.846,5.395C37.57,37.461,32.917,40.779,22.996,40.779z"/><path fill="#469b1b" d="M22.995,40.734c-9.59,0-14.066-2.144-14.562-2.394c-1.856-0.937-2.633-3.186-1.715-5.024 c0.917-1.838,2.761-2.519,5.072-1.621c2.499,0.971,3.845,1.56,11.206,1.56c7.257,0,10.503-2.122,10.573-2.168 c1.747-1.141,4.081-1.043,5.322,0.602c1.237,1.642,0.839,4.098-0.855,5.354C37.507,37.436,32.892,40.734,22.995,40.734z"/><path fill="#479c1c" d="M22.995,40.69c-9.578,0-14.028-2.139-14.524-2.39c-1.837-0.928-2.609-3.151-1.703-4.966 c0.906-1.815,2.734-2.482,5.023-1.593c2.498,0.971,3.897,1.557,11.205,1.557c7.263,0,10.491-2.113,10.568-2.162 c1.736-1.122,4.049-1.056,5.275,0.569c1.222,1.621,0.818,4.068-0.864,5.313C37.445,37.41,32.867,40.69,22.995,40.69z"/><path fill="#489d1d" d="M22.994,40.646c-9.566,0-13.99-2.134-14.486-2.385c-1.817-0.919-2.585-3.117-1.691-4.909 s2.707-2.445,4.974-1.565c2.498,0.971,3.949,1.554,11.204,1.554c7.27,0,10.48-2.103,10.564-2.157 c1.723-1.104,4.017-1.068,5.229,0.536c1.207,1.6,0.797,4.039-0.873,5.272C37.383,37.384,32.841,40.646,22.994,40.646z"/><path fill="#499e1e" d="M22.993,40.602c-9.553,0-13.952-2.129-14.448-2.38c-1.797-0.911-2.561-3.083-1.679-4.852 c0.882-1.769,2.68-2.409,4.924-1.537c2.498,0.971,4.001,1.551,11.203,1.551c7.277,0,10.469-2.094,10.559-2.151 c1.71-1.087,3.985-1.081,5.183,0.503c1.193,1.58,0.775,4.009-0.882,5.231C37.321,37.359,32.816,40.602,22.993,40.602z"/><path fill="#499f1f" d="M22.992,40.557c-9.541,0-13.915-2.124-14.411-2.376c-1.777-0.902-2.537-3.049-1.667-4.795 c0.87-1.746,2.653-2.372,4.875-1.508c2.497,0.97,4.053,1.548,11.202,1.548c7.283,0,10.457-2.084,10.555-2.146 c1.697-1.071,3.953-1.093,5.136,0.47c1.178,1.559,0.754,3.98-0.891,5.19C37.258,37.333,32.791,40.557,22.992,40.557z"/><path fill="#4aa020" d="M22.992,40.513c-9.528,0-13.877-2.119-14.373-2.371c-1.757-0.893-2.513-3.015-1.654-4.738 s2.626-2.336,4.826-1.48c2.497,0.97,4.104,1.545,11.201,1.545c7.29,0,10.446-2.075,10.55-2.141c1.682-1.056,3.921-1.106,5.09,0.437 c1.163,1.538,0.732,3.95-0.9,5.149C37.196,37.308,32.766,40.513,22.992,40.513z"/><path fill="#4ba121" d="M22.991,40.469c-9.516,0-13.839-2.114-14.335-2.366c-1.737-0.885-2.489-2.98-1.642-4.68 c0.847-1.7,2.599-2.299,4.777-1.452c2.496,0.97,4.156,1.542,11.2,1.542c7.297,0,10.434-2.066,10.546-2.135 c1.668-1.041,3.889-1.118,5.043,0.404c1.149,1.517,0.711,3.921-0.91,5.108C37.133,37.282,32.74,40.469,22.991,40.469z"/><path fill="#4ca122" d="M22.99,40.425c-9.504,0-13.801-2.109-14.297-2.362c-1.718-0.876-2.465-2.946-1.63-4.623 s2.572-2.262,4.728-1.424c2.496,0.97,4.208,1.539,11.199,1.539c7.303,0,10.423-2.056,10.541-2.13 c1.653-1.026,3.857-1.131,4.997,0.371c1.134,1.496,0.689,3.891-0.919,5.067C37.071,37.257,32.715,40.425,22.99,40.425z"/><path fill="#4da223" d="M22.989,40.38c-9.491,0-13.763-2.104-14.259-2.357c-1.698-0.867-2.441-2.912-1.618-4.566 c0.824-1.654,2.545-2.226,4.679-1.396c2.496,0.97,4.26,1.536,11.198,1.536c7.31,0,10.412-2.047,10.537-2.124 c1.638-1.012,3.825-1.143,4.951,0.338c1.119,1.475,0.668,3.861-0.928,5.026C37.009,37.231,32.69,40.38,22.989,40.38z"/><path fill="#4ea324" d="M22.988,40.336c-9.479,0-13.725-2.099-14.221-2.353c-1.678-0.858-2.417-2.878-1.606-4.509 c0.812-1.631,2.518-2.189,4.63-1.368c2.495,0.969,4.312,1.533,11.197,1.533c7.317,0,10.4-2.038,10.532-2.119 c1.623-0.998,3.793-1.156,4.904,0.305c1.104,1.454,0.646,3.832-0.937,4.985C36.946,37.205,32.665,40.336,22.988,40.336z"/><path fill="#4fa425" d="M22.988,40.292c-9.466,0-13.687-2.094-14.184-2.348c-1.658-0.85-2.393-2.844-1.593-4.452 c0.8-1.608,2.491-2.152,4.58-1.34c2.495,0.969,4.364,1.53,11.196,1.53c7.324,0,10.389-2.028,10.528-2.114 c1.608-0.985,3.761-1.168,4.858,0.272c1.09,1.434,0.625,3.802-0.946,4.944C36.884,37.18,32.639,40.292,22.988,40.292z"/><path fill="#50a526" d="M22.987,40.248c-9.454,0-13.65-2.089-14.146-2.343c-1.639-0.841-2.369-2.81-1.581-4.394 s2.464-2.116,4.531-1.312c2.494,0.969,4.416,1.527,11.196,1.527c7.33,0,10.377-2.019,10.523-2.108 c1.592-0.972,3.729-1.181,4.811,0.239c1.075,1.413,0.603,3.772-0.955,4.903C36.822,37.154,32.614,40.248,22.987,40.248z"/><path fill="#51a627" d="M22.986,40.203c-9.441,0-13.612-2.084-14.108-2.339c-1.619-0.832-2.346-2.775-1.569-4.337 c0.777-1.562,2.437-2.079,4.482-1.284c2.494,0.969,4.468,1.524,11.195,1.524c7.337,0,10.366-2.01,10.519-2.103 c1.577-0.958,3.697-1.193,4.765,0.206c1.06,1.392,0.582,3.742-0.964,4.862C36.759,37.129,32.589,40.203,22.986,40.203z"/><path fill="#52a728" d="M22.985,40.159c-9.429,0-13.574-2.079-14.07-2.334c-1.599-0.823-2.322-2.741-1.557-4.28 s2.41-2.043,4.433-1.256c2.494,0.969,4.519,1.521,11.194,1.521c7.344,0,10.354-2.001,10.514-2.097 c1.561-0.946,3.665-1.206,4.719,0.173c1.046,1.371,0.56,3.713-0.973,4.821C36.697,37.103,32.564,40.159,22.985,40.159z"/><path fill="#53a829" d="M22.985,40.115c-9.417,0-13.536-2.074-14.032-2.329c-1.579-0.814-2.298-2.707-1.545-4.223 s2.383-2.006,4.384-1.228c2.493,0.968,4.571,1.518,11.193,1.518c7.35,0,10.343-1.991,10.51-2.092 c1.545-0.933,3.633-1.218,4.672,0.14c1.031,1.35,0.538,3.683-0.982,4.78C36.635,37.077,32.538,40.115,22.985,40.115z"/><path fill="#54a92a" d="M22.984,40.071c-9.404,0-13.498-2.068-13.994-2.325c-1.56-0.805-2.274-2.673-1.532-4.166 s2.356-1.969,4.335-1.2c2.493,0.968,4.623,1.515,11.192,1.515c7.357,0,10.332-1.982,10.505-2.086 c1.53-0.92,3.601-1.231,4.626,0.107c1.016,1.329,0.517,3.653-0.991,4.739C36.572,37.052,32.513,40.071,22.984,40.071z"/><path fill="#55a92b" d="M22.983,40.026c-9.392,0-13.46-2.063-13.957-2.32c-1.54-0.796-2.25-2.639-1.52-4.108 c0.73-1.47,2.329-1.933,4.286-1.172c2.492,0.968,4.675,1.512,11.191,1.512c7.364,0,10.32-1.973,10.5-2.081 c1.514-0.908,3.569-1.243,4.579,0.074c1.001,1.309,0.495,3.623-1.001,4.698C36.51,37.026,32.488,40.026,22.983,40.026z"/><path fill="#56aa2c" d="M22.982,39.982c-9.379,0-13.423-2.058-13.919-2.315c-1.52-0.788-2.226-2.604-1.508-4.051 c0.718-1.447,2.302-1.896,4.237-1.144c2.492,0.968,4.727,1.509,11.19,1.509c7.37,0,10.309-1.964,10.496-2.076 c1.498-0.895,3.537-1.255,4.533,0.041c0.987,1.288,0.474,3.593-1.01,4.657C36.448,37.001,32.463,39.982,22.982,39.982z"/><path fill="#57ab2d" d="M22.982,39.938c-9.367,0-13.385-2.053-13.881-2.311c-1.501-0.779-2.202-2.57-1.496-3.994 c0.706-1.424,2.275-1.859,4.187-1.116c2.492,0.968,4.779,1.506,11.189,1.506c7.377,0,10.297-1.954,10.491-2.07 c1.482-0.883,3.505-1.268,4.487,0.008c0.972,1.267,0.452,3.563-1.019,4.616C36.385,36.975,32.437,39.938,22.982,39.938z"/><path fill="#58ac2e" d="M22.981,39.894c-9.354,0-13.347-2.048-13.843-2.306c-1.481-0.77-2.178-2.536-1.484-3.937 c0.694-1.401,2.248-1.823,4.138-1.088c2.491,0.967,4.831,1.503,11.188,1.503c7.384,0,10.286-1.945,10.487-2.065 c1.465-0.871,3.473-1.28,4.44-0.025c0.957,1.246,0.43,3.534-1.028,4.575C36.323,36.949,32.412,39.894,22.981,39.894z"/><path fill="#59ad2f" d="M22.98,39.849c-9.342,0-13.309-2.043-13.805-2.301c-1.461-0.761-2.154-2.502-1.471-3.88 c0.683-1.378,2.221-1.786,4.089-1.06c2.491,0.967,4.883,1.501,11.187,1.501c7.391,0,10.274-1.936,10.482-2.059 c1.449-0.859,3.441-1.293,4.394-0.058c0.942,1.225,0.409,3.504-1.037,4.535C36.26,36.924,32.387,39.849,22.98,39.849z"/><path fill="#5aae30" d="M22.979,39.805c-9.33,0-13.271-2.038-13.767-2.297c-1.442-0.752-2.13-2.468-1.459-3.823 c0.671-1.355,2.194-1.749,4.04-1.032c2.49,0.967,4.934,1.498,11.187,1.498c7.397,0,10.263-1.927,10.478-2.054 c1.433-0.847,3.409-1.305,4.347-0.091c0.928,1.204,0.387,3.474-1.046,4.494C36.198,36.898,32.362,39.805,22.979,39.805z"/><path fill="#5baf31" d="M22.978,39.761c-9.317,0-13.233-2.033-13.729-2.292c-1.422-0.743-2.106-2.434-1.447-3.765 s2.167-1.713,3.991-1.004c2.49,0.967,4.986,1.495,11.186,1.495c7.404,0,10.251-1.918,10.473-2.049 c1.417-0.835,3.377-1.318,4.301-0.124c0.913,1.183,0.365,3.444-1.055,4.453C36.136,36.873,32.336,39.761,22.978,39.761z"/><path fill="#5bb032" d="M22.978,39.717c-9.305,0-13.196-2.028-13.692-2.287c-1.402-0.734-2.082-2.399-1.435-3.708 s2.14-1.676,3.942-0.976c2.49,0.967,5.038,1.492,11.185,1.492c7.411,0,10.24-1.908,10.469-2.043 c1.401-0.823,3.345-1.33,4.255-0.157c0.898,1.163,0.343,3.414-1.064,4.412C36.073,36.847,32.311,39.717,22.978,39.717z"/><path fill="#5cb033" d="M22.977,39.672c-9.292,0-13.158-2.023-13.654-2.283c-1.383-0.725-2.058-2.365-1.423-3.651 s2.113-1.64,3.893-0.948c2.489,0.966,5.09,1.489,11.184,1.489c7.417,0,10.228-1.899,10.464-2.038 c1.384-0.811,3.313-1.343,4.208-0.191c0.884,1.142,0.322,3.384-1.073,4.371C36.011,36.821,32.286,39.672,22.977,39.672z"/><path fill="#5db134" d="M22.976,39.628c-9.28,0-13.12-2.018-13.616-2.278c-1.363-0.716-2.034-2.331-1.41-3.594 c0.624-1.263,2.086-1.603,3.843-0.92c2.489,0.966,5.142,1.486,11.183,1.486c7.424,0,10.216-1.89,10.46-2.032 c1.368-0.799,3.281-1.355,4.162-0.224c0.869,1.121,0.3,3.354-1.082,4.33C35.948,36.796,32.26,39.628,22.976,39.628z"/><path fill="#5eb235" d="M22.975,39.584c-9.267,0-13.082-2.013-13.578-2.273c-1.343-0.706-2.01-2.297-1.398-3.537 s2.059-1.566,3.794-0.892c2.488,0.966,5.194,1.483,11.182,1.483c7.431,0,10.205-1.881,10.455-2.027 c1.352-0.787,3.249-1.368,4.115-0.257c0.854,1.1,0.278,3.324-1.092,4.289C35.886,36.77,32.235,39.584,22.975,39.584z"/><path fill="#5fb336" d="M22.975,39.54c-9.255,0-13.044-2.007-13.54-2.269c-1.324-0.697-1.987-2.263-1.386-3.479 c0.601-1.217,2.032-1.53,3.745-0.864c2.488,0.966,5.246,1.48,11.181,1.48c7.438,0,10.193-1.872,10.451-2.021 c1.335-0.775,3.217-1.38,4.069-0.29c0.839,1.079,0.256,3.294-1.101,4.248C35.824,36.744,32.21,39.54,22.975,39.54z"/><path fill="#60b437" d="M22.974,39.495c-9.243,0-13.007-2.002-13.502-2.264c-1.304-0.688-1.963-2.228-1.374-3.422 c0.589-1.194,2.005-1.493,3.696-0.836c2.488,0.966,5.298,1.477,11.18,1.477c7.444,0,10.182-1.863,10.446-2.016 c1.319-0.764,3.185-1.393,4.023-0.323c0.825,1.058,0.235,3.264-1.11,4.207C35.761,36.719,32.185,39.495,22.974,39.495z"/><path fill="#61b538" d="M22.973,39.451c-9.23,0-12.969-1.997-13.465-2.259c-1.285-0.679-1.939-2.194-1.362-3.365 c0.577-1.171,1.978-1.457,3.647-0.808c2.487,0.965,5.35,1.474,11.179,1.474c7.451,0,10.17-1.854,10.442-2.011 c1.302-0.752,3.153-1.405,3.976-0.356c0.81,1.038,0.213,3.234-1.119,4.166C35.699,36.693,32.159,39.451,22.973,39.451z"/><path fill="#62b639" d="M22.972,39.407c-9.218,0-12.931-1.992-13.427-2.255c-1.265-0.67-1.915-2.16-1.349-3.308 c0.565-1.148,1.951-1.42,3.598-0.78c2.487,0.965,5.401,1.471,11.178,1.471c7.458,0,10.159-1.845,10.437-2.005 c1.286-0.74,3.121-1.418,3.93-0.389c0.795,1.017,0.191,3.204-1.128,4.125C35.636,36.667,32.134,39.407,22.972,39.407z"/><path fill="#63b73a" d="M22.972,39.363c-9.205,0-12.893-1.987-13.389-2.25c-1.245-0.661-1.891-2.126-1.337-3.251 c0.554-1.125,1.924-1.383,3.549-0.752c2.486,0.965,5.453,1.468,11.177,1.468c7.464,0,10.147-1.836,10.433-2 c1.27-0.729,3.089-1.43,3.883-0.422c0.781,0.996,0.169,3.173-1.137,4.084C35.574,36.642,32.109,39.363,22.972,39.363z"/><path fill="#64b83b" d="M22.971,39.318c-9.193,0-12.855-1.982-13.351-2.245c-1.226-0.652-1.867-2.092-1.325-3.193 c0.542-1.102,1.897-1.347,3.499-0.724c2.486,0.965,5.505,1.465,11.177,1.465c7.471,0,10.135-1.827,10.428-1.994 c1.253-0.717,3.057-1.443,3.837-0.455c0.766,0.975,0.147,3.143-1.146,4.043C35.512,36.616,32.084,39.318,22.971,39.318z"/><path fill="#65b83b" d="M22.97,39.274c-9.18,0-12.817-1.977-13.313-2.241c-1.206-0.642-1.843-2.058-1.313-3.136 s1.87-1.31,3.45-0.696c2.486,0.965,5.557,1.462,11.176,1.462c7.478,0,10.124-1.818,10.423-1.989 c1.237-0.706,3.025-1.455,3.791-0.488c0.751,0.954,0.125,3.113-1.155,4.002C35.449,36.59,32.058,39.274,22.97,39.274z"/><path fill="#66b93c" d="M22.969,39.23c-9.168,0-12.78-1.972-13.275-2.236c-1.187-0.633-1.819-2.023-1.301-3.079 s1.843-1.273,3.401-0.668c2.485,0.964,5.609,1.459,11.175,1.459c7.484,0,10.112-1.809,10.419-1.984 c1.22-0.694,2.993-1.468,3.744-0.521c0.736,0.933,0.103,3.083-1.164,3.961C35.387,36.564,32.033,39.23,22.969,39.23z"/><path fill="#67ba3d" d="M22.968,39.186c-9.156,0-12.742-1.967-13.237-2.231c-1.167-0.624-1.795-1.989-1.288-3.022 c0.507-1.033,1.816-1.237,3.352-0.64c2.485,0.964,5.661,1.456,11.174,1.456c7.491,0,10.1-1.8,10.414-1.978 c1.204-0.683,2.961-1.48,3.698-0.554c0.722,0.913,0.081,3.053-1.173,3.92C35.324,36.539,32.008,39.186,22.968,39.186z"/><path fill="#68bb3e" d="M22.968,39.141c-9.143,0-12.704-1.961-13.2-2.227C8.62,36.3,7.997,34.96,8.492,33.95 c0.495-1.01,1.789-1.2,3.303-0.612c2.484,0.964,5.713,1.453,11.173,1.453c7.498,0,10.089-1.791,10.41-1.973 c1.187-0.671,2.929-1.493,3.652-0.587c0.707,0.892,0.06,3.023-1.183,3.879C35.262,36.513,31.983,39.141,22.968,39.141z"/><path fill="#69bc3f" d="M22.967,39.097c-9.131,0-12.666-1.956-13.162-2.222c-1.128-0.605-1.747-1.921-1.264-2.907 c0.483-0.987,1.762-1.163,3.254-0.584c2.484,0.964,5.765,1.45,11.172,1.45c7.505,0,10.077-1.782,10.405-1.967 c1.171-0.66,2.896-1.505,3.605-0.62c0.692,0.871,0.038,2.992-1.192,3.838C35.199,36.487,31.957,39.097,22.967,39.097z"/><path fill="#6abd40" d="M22.966,39.053c-9.118,0-12.628-1.951-13.124-2.217c-1.109-0.596-1.723-1.887-1.252-2.85 c0.471-0.964,1.735-1.127,3.205-0.556c2.484,0.964,5.816,1.447,11.171,1.447c7.511,0,10.065-1.773,10.401-1.962 c1.154-0.648,2.864-1.518,3.559-0.653c0.678,0.85,0.016,2.962-1.201,3.797C35.137,36.462,31.932,39.053,22.966,39.053z"/><path fill="#6bbe41" d="M22.965,39.009c-9.106,0-12.591-1.946-13.086-2.213c-1.089-0.587-1.699-1.852-1.24-2.793 c0.46-0.941,1.708-1.09,3.155-0.528c2.483,0.963,5.868,1.444,11.17,1.444c7.518,0,10.054-1.765,10.396-1.956 c1.138-0.637,2.832-1.53,3.512-0.686c0.663,0.829-0.006,2.932-1.21,3.756C35.074,36.436,31.907,39.009,22.965,39.009z"/><path fill="#6cbf42" d="M22.965,38.964c-9.093,0-12.553-1.941-13.048-2.208c-1.07-0.577-1.675-1.818-1.227-2.736 c0.448-0.918,1.681-1.054,3.106-0.5c2.483,0.963,5.92,1.441,11.169,1.441c7.525,0,10.042-1.756,10.392-1.951 c1.121-0.626,2.8-1.543,3.466-0.719c0.648,0.808-0.028,2.902-1.219,3.715C35.012,36.41,31.882,38.964,22.965,38.964z"/><path fill="#6dbf43" d="M22.964,38.92c-9.081,0-12.515-1.936-13.01-2.204c-1.05-0.568-1.651-1.784-1.215-2.679 c0.436-0.895,1.654-1.017,3.057-0.472c2.482,0.963,5.972,1.438,11.168,1.438c7.531,0,10.03-1.747,10.387-1.946 c1.105-0.614,2.768-1.555,3.42-0.752c0.633,0.787-0.05,2.871-1.228,3.674C34.949,36.384,31.856,38.92,22.964,38.92z"/><path fill="#6dc044" d="M22.963,38.876c-9.069,0-12.477-1.93-12.973-2.199c-1.031-0.559-1.628-1.75-1.203-2.621 c0.425-0.872,1.627-0.98,3.008-0.444c2.482,0.963,6.024,1.435,11.168,1.435c7.538,0,10.018-1.738,10.383-1.94 c1.088-0.603,2.736-1.568,3.373-0.785c0.619,0.767-0.072,2.841-1.237,3.633C34.887,36.359,31.831,38.876,22.963,38.876z"/><path fill="#6ec145" d="M22.962,38.832c-9.056,0-12.44-1.925-12.935-2.194c-1.011-0.549-1.604-1.716-1.191-2.564 s1.6-0.944,2.959-0.416c2.482,0.963,6.076,1.432,11.167,1.432c7.545,0,10.007-1.73,10.378-1.935 c1.071-0.592,2.706-1.581,3.327-0.818c0.605,0.745-0.094,2.811-1.246,3.592C34.824,36.333,31.806,38.832,22.962,38.832z"/><path fill="#6fc246" d="M22.962,38.787c-9.044,0-12.402-1.92-12.897-2.19c-0.992-0.54-1.58-1.682-1.179-2.507 c0.401-0.826,1.573-0.907,2.91-0.388c2.481,0.962,6.128,1.429,11.166,1.429c7.551,0,9.995-1.721,10.374-1.929 c1.055-0.58,2.674-1.594,3.28-0.851c0.591,0.724-0.116,2.78-1.255,3.551C34.762,36.307,31.781,38.787,22.962,38.787z"/><path fill="#70c347" d="M22.961,38.743c-9.031,0-12.364-1.915-12.859-2.185c-0.972-0.53-1.556-1.647-1.166-2.45 s1.546-0.87,2.861-0.36c2.481,0.962,6.18,1.426,11.165,1.426c7.558,0,9.983-1.712,10.369-1.924 c1.038-0.569,2.642-1.606,3.234-0.884c0.576,0.703-0.138,2.75-1.264,3.51C34.699,36.281,31.755,38.743,22.961,38.743z"/><path fill="#71c448" d="M22.96,38.699c-9.019,0-12.326-1.91-12.821-2.18c-0.953-0.521-1.532-1.613-1.154-2.393 c0.378-0.78,1.519-0.834,2.811-0.332c2.48,0.962,6.232,1.423,11.164,1.423c7.565,0,9.971-1.704,10.365-1.919 c1.022-0.558,2.61-1.619,3.188-0.917c0.561,0.682-0.16,2.72-1.274,3.469C34.637,36.255,31.73,38.699,22.96,38.699z"/><path fill="#72c549" d="M22.959,38.655c-9.006,0-12.289-1.904-12.783-2.176c-0.934-0.512-1.508-1.579-1.142-2.336 c0.366-0.757,1.492-0.797,2.762-0.304c2.48,0.962,6.283,1.42,11.163,1.42c7.572,0,9.959-1.695,10.36-1.913 c1.005-0.546,2.578-1.631,3.141-0.95c0.547,0.661-0.182,2.689-1.283,3.428C34.574,36.229,31.705,38.655,22.959,38.655z"/><path fill="#73c64a" d="M22.958,38.61c-8.994,0-12.251-1.899-12.746-2.171c-0.914-0.502-1.484-1.545-1.13-2.278 c0.354-0.734,1.465-0.761,2.713-0.276c2.48,0.962,6.335,1.417,11.162,1.417c7.578,0,9.947-1.687,10.355-1.908 c0.989-0.535,2.546-1.644,3.095-0.983c0.532,0.64-0.204,2.659-1.292,3.387C34.512,36.204,31.68,38.61,22.958,38.61z"/><path fill="#74c64b" d="M22.958,38.566c-8.982,0-12.213-1.894-12.708-2.166c-0.895-0.493-1.46-1.511-1.118-2.221 c0.342-0.71,1.438-0.724,2.664-0.248c2.479,0.961,6.387,1.415,11.161,1.415c7.585,0,9.935-1.678,10.351-1.902 c0.972-0.524,2.514-1.656,3.048-1.016c0.517,0.619-0.226,2.628-1.301,3.346C34.449,36.178,31.654,38.566,22.958,38.566z"/><path fill="#75c74c" d="M22.957,38.522c-8.969,0-12.175-1.889-12.67-2.162c-0.875-0.483-1.436-1.476-1.105-2.164 c0.331-0.687,1.411-0.687,2.615-0.22c2.479,0.961,6.439,1.412,11.16,1.412c7.592,0,9.924-1.67,10.346-1.897 c0.956-0.513,2.482-1.669,3.002-1.049c0.502,0.599-0.248,2.598-1.31,3.305C34.387,36.152,31.629,38.522,22.957,38.522z"/><path fill="#76c84d" d="M22.956,38.478c-8.957,0-12.138-1.883-12.632-2.157c-0.856-0.474-1.412-1.442-1.093-2.107 s1.384-0.651,2.566-0.192c2.478,0.961,6.491,1.409,11.159,1.409c7.598,0,9.912-1.662,10.342-1.891 c0.939-0.501,2.45-1.681,2.956-1.082c0.488,0.578-0.27,2.568-1.319,3.264C34.324,36.126,31.604,38.478,22.956,38.478z"/><path fill="#77c94e" d="M22.955,38.433c-8.944,0-12.1-1.878-12.594-2.152c-0.837-0.464-1.388-1.408-1.081-2.05 s1.357-0.614,2.517-0.164c2.478,0.961,6.543,1.406,11.158,1.406c7.605,0,9.9-1.653,10.337-1.886 c0.923-0.49,2.418-1.694,2.909-1.115c0.473,0.557-0.293,2.537-1.328,3.223C34.262,36.1,31.579,38.433,22.955,38.433z"/><path fill="#78ca4f" d="M22.955,38.389c-8.932,0-12.062-1.873-12.556-2.148c-0.817-0.454-1.364-1.374-1.069-1.992 c0.295-0.618,1.33-0.577,2.468-0.136c2.478,0.961,6.595,1.403,11.158,1.403c7.612,0,9.888-1.645,10.333-1.881 c0.906-0.479,2.386-1.706,2.863-1.148c0.458,0.536-0.315,2.507-1.337,3.182C34.199,36.074,31.553,38.389,22.955,38.389z"/><path fill="#79cb50" d="M22.954,38.345c-8.919,0-12.024-1.868-12.518-2.143c-0.798-0.445-1.34-1.34-1.057-1.935 s1.303-0.541,2.418-0.108c2.477,0.96,6.647,1.4,11.157,1.4c7.618,0,9.875-1.637,10.328-1.875c0.89-0.468,2.354-1.719,2.816-1.181 c0.443,0.515-0.337,2.476-1.346,3.141C34.136,36.048,31.528,38.345,22.954,38.345z"/><path fill="#7acc51" d="M22.953,38.301c-8.907,0-11.987-1.862-12.481-2.138c-0.779-0.435-1.316-1.306-1.044-1.878 c0.272-0.572,1.276-0.504,2.369-0.08c2.477,0.96,6.698,1.397,11.156,1.397c7.625,0,9.863-1.629,10.324-1.87 c0.873-0.457,2.322-1.731,2.77-1.214c0.429,0.494-0.359,2.445-1.356,3.1C34.074,36.022,31.503,38.301,22.953,38.301z"/><path fill="#7bcd52" d="M22.952,38.256c-8.895,0-11.949-1.857-12.443-2.134c-0.759-0.426-1.292-1.271-1.032-1.821 s1.249-0.468,2.32-0.052c2.476,0.96,6.75,1.394,11.155,1.394c7.632,0,9.851-1.621,10.319-1.864c0.857-0.446,2.29-1.744,2.724-1.247 c0.414,0.474-0.381,2.415-1.365,3.059C34.011,35.996,31.478,38.256,22.952,38.256z"/><path fill="#7cce53" d="M22.952,38.212c-8.882,0-11.911-1.851-12.405-2.129c-0.74-0.416-1.269-1.237-1.02-1.764 c0.249-0.526,1.222-0.431,2.271-0.024c2.476,0.96,6.802,1.391,11.154,1.391c7.639,0,9.839-1.613,10.315-1.859 c0.84-0.434,2.258-1.756,2.677-1.28c0.399,0.453-0.403,2.384-1.374,3.018C33.949,35.97,31.452,38.212,22.952,38.212z"/><path fill="#7dce54" d="M22.951,38.168c-8.87,0-11.874-1.846-12.367-2.124c-0.721-0.406-1.245-1.203-1.008-1.706 s1.195-0.394,2.222,0.004c2.476,0.96,6.854,1.388,11.153,1.388c7.645,0,9.827-1.605,10.31-1.854 c0.824-0.423,2.225-1.769,2.631-1.313c0.384,0.432-0.425,2.354-1.383,2.977C33.886,35.944,31.427,38.168,22.951,38.168z"/><path fill="#7ecf55" d="M22.95,38.124c-8.857,0-11.836-1.841-12.329-2.12C9.92,35.607,9.4,34.835,9.625,34.355 c0.225-0.48,1.168-0.358,2.173,0.032c2.475,0.959,6.906,1.385,11.152,1.385c7.652,0,9.815-1.597,10.306-1.848 c0.807-0.412,2.193-1.781,2.584-1.346c0.37,0.411-0.447,2.323-1.392,2.936C33.823,35.918,31.402,38.124,22.95,38.124z"/><path fill="#7fd056" d="M22.949,38.079c-8.845,0-11.798-1.835-12.291-2.115c-0.682-0.387-1.197-1.135-0.983-1.592 s1.141-0.321,2.124,0.06c2.475,0.959,6.958,1.382,11.151,1.382c7.659,0,9.802-1.59,10.301-1.843 c0.791-0.401,2.161-1.794,2.538-1.379c0.355,0.39-0.47,2.293-1.401,2.895C33.761,35.892,31.376,38.079,22.949,38.079z"/><path fill="#7fd157" d="M22.948,38.035c-8.833,0-11.761-1.83-12.254-2.11c-0.663-0.377-1.173-1.1-0.971-1.535 s1.114-0.284,2.074,0.088c2.474,0.959,7.01,1.379,11.15,1.379c7.665,0,9.79-1.582,10.297-1.837c0.774-0.39,2.129-1.806,2.492-1.412 c0.34,0.369-0.492,2.262-1.41,2.854C33.698,35.866,31.351,38.035,22.948,38.035z"/><path fill="#80d258" d="M22.948,37.991c-8.82,0-11.723-1.824-12.216-2.106c-0.643-0.368-1.149-1.066-0.959-1.478 c0.19-0.411,1.087-0.248,2.025,0.116c2.474,0.959,7.062,1.376,11.149,1.376c7.672,0,9.778-1.575,10.292-1.832 c0.758-0.379,2.097-1.819,2.445-1.446c0.325,0.349-0.514,2.231-1.419,2.813C33.635,35.84,31.326,37.991,22.948,37.991z"/><path fill="#81d359" d="M22.947,37.947c-8.808,0-11.686-1.819-12.178-2.101c-0.624-0.358-1.125-1.032-0.947-1.42 s1.06-0.211,1.976,0.144c2.474,0.959,7.114,1.373,11.149,1.373c7.679,0,9.765-1.567,10.288-1.826 c0.742-0.368,2.065-1.831,2.399-1.479c0.311,0.328-0.536,2.201-1.428,2.772C33.573,35.814,31.301,37.947,22.947,37.947z"/><path fill="#82d45a" d="M22.946,37.902c-8.795,0-11.648-1.813-12.14-2.096c-0.605-0.348-1.101-0.998-0.935-1.363 s1.033-0.175,1.927,0.172c2.473,0.958,7.165,1.37,11.148,1.37c7.686,0,9.753-1.56,10.283-1.821 c0.725-0.357,2.033-1.843,2.352-1.512c0.296,0.307-0.558,2.17-1.437,2.731C33.51,35.788,31.275,37.902,22.946,37.902z"/><path fill="#83d55b" d="M22.945,37.858c-8.783,0-11.611-1.808-12.102-2.092c-0.586-0.338-1.077-0.964-0.922-1.306 c0.155-0.342,1.006-0.138,1.878,0.2c2.473,0.958,7.217,1.367,11.147,1.367c7.692,0,9.74-1.553,10.278-1.816 c0.709-0.346,2.001-1.856,2.306-1.545c0.281,0.286-0.581,2.139-1.447,2.69C33.447,35.762,31.25,37.858,22.945,37.858z"/><path fill="#84d55c" d="M22.945,37.814c-8.77,0-11.573-1.802-12.064-2.087c-0.566-0.329-1.053-0.93-0.91-1.249 c0.143-0.319,0.979-0.101,1.829,0.228c2.472,0.958,7.269,1.364,11.146,1.364c7.699,0,9.728-1.546,10.274-1.81 c0.692-0.335,1.969-1.868,2.26-1.578c0.266,0.266-0.603,2.109-1.456,2.649C33.384,35.736,31.225,37.814,22.945,37.814z"/><path fill="#85d65d" d="M22.944,37.77c-8.758,0-11.536-1.796-12.026-2.082c-0.547-0.319-1.029-0.895-0.898-1.192 c0.131-0.296,0.952-0.065,1.78,0.256c2.472,0.958,7.321,1.361,11.145,1.361c7.706,0,9.715-1.539,10.269-1.805 c0.676-0.324,1.936-1.881,2.213-1.611c0.251,0.245-0.625,2.078-1.465,2.608C33.322,35.71,31.2,37.77,22.944,37.77z"/><path fill="#86d75e" d="M22.943,37.725c-8.746,0-11.498-1.791-11.989-2.078c-0.528-0.309-1.005-0.861-0.886-1.134 c0.119-0.273,0.925-0.028,1.73,0.284c2.472,0.958,7.373,1.358,11.144,1.358c7.712,0,9.702-1.533,10.265-1.799 c0.66-0.313,1.904-1.892,2.167-1.644c0.236,0.225-0.648,2.046-1.474,2.567C33.258,35.682,31.174,37.725,22.943,37.725z"/><path fill="#87d85f" d="M22.942,37.681c-8.733,0-11.461-1.784-11.951-2.073c-0.509-0.299-0.981-0.827-0.874-1.077 s0.898,0.009,1.681,0.312c2.471,0.957,7.425,1.355,11.143,1.355c7.719,0,9.69-1.526,10.26-1.794 c0.644-0.302,1.872-1.905,2.12-1.677c0.221,0.204-0.67,2.016-1.483,2.526C33.196,35.657,31.149,37.681,22.942,37.681z"/><path fill="#88d960" d="M22.942,37.637c-8.721,0-11.423-1.779-11.913-2.068s-0.957-0.793-0.861-1.02 c0.096-0.227,0.871,0.045,1.632,0.34c2.471,0.957,7.477,1.352,11.142,1.352c7.726,0,9.677-1.52,10.256-1.789 c0.627-0.291,1.84-1.917,2.074-1.71c0.206,0.183-0.692,1.986-1.492,2.485C33.133,35.631,31.124,37.637,22.942,37.637z"/></g><radialGradient id="dLTcP~LBMI17OVLSVXeMJb" cx="21.982" cy="5.844" r="37.122" gradientTransform="matrix(1 0 0 .9872 0 .075)" gradientUnits="userSpaceOnUse"><stop offset=".906" stop-opacity="0"/><stop offset="1" stop-opacity=".4"/></radialGradient><path fill="url(#dLTcP~LBMI17OVLSVXeMJb)" d="M23,41c-9.665,0-14.293-2.174-14.789-2.422c-1.976-0.988-2.776-3.391-1.789-5.367	s2.924-2.738,5.367-1.789C14.29,32.395,15.323,33,23,33c7.216,0,10.571-2.178,10.6-2.2c1.766-1.325,4.273-0.968,5.6,0.8	c1.325,1.767,0.967,4.274-0.8,5.6C37.881,37.589,33.043,41,23,41z"/><radialGradient id="dLTcP~LBMI17OVLSVXeMJc" cx="19.515" cy="29.138" r="17.122" gradientTransform="matrix(.9918 .128 -.0251 .1947 .893 20.968)" gradientUnits="userSpaceOnUse"><stop offset=".182" stop-color="#316e12"/><stop offset=".318" stop-color="#317414"/><stop offset=".5" stop-color="#318519"/><stop offset=".708" stop-color="#31a122"/><stop offset=".933" stop-color="#30c72e"/><stop offset="1" stop-color="#30d432"/></radialGradient><path fill="url(#dLTcP~LBMI17OVLSVXeMJc)" d="M31.72,29.95c-0.122,1.851-4.229,4.256-12.284,2.837c-6.676-1.177-7.23-5.849-7.23-6.786	C19.922,26,31.842,28.098,31.72,29.95z"/><radialGradient id="dLTcP~LBMI17OVLSVXeMJd" cx="22.139" cy="19.569" r="18.888" gradientTransform="matrix(1 0 0 .8927 0 2.1)" gradientUnits="userSpaceOnUse"><stop offset=".881" stop-opacity=".5"/><stop offset="1" stop-opacity="0"/></radialGradient><path fill="url(#dLTcP~LBMI17OVLSVXeMJd)" d="M33.6,30.8C33.571,30.822,30.216,33,23,33c-7.677,0-8.71-0.605-11.211-1.578	c-0.9-0.35-1.729-0.464-2.469-0.374c0.366,1.095,2.499,5.928,14.072,5.928c9.693,0,13.592-6.835,13.592-6.835	C35.852,29.853,34.607,30.044,33.6,30.8z"/><path fill="#ad3e3e" d="M19.35,11.982c0,0-0.852,1.646-2.846,2.155c-1.637,0.418-3.7-1.041-5.001,0.434	c0,0,2.443-0.318,2.56,0.357C14.091,15.096,11.502,15.105,11,16c2.904,0,7.084-0.376,8.818-3.608L19.35,11.982z"/><g><path fill="#47a11b" d="M27,4c-0.319,0-1.421,0.239-2.651,0.618c-1.081,0.332-1.955,0.126-2.625,1.837 C21.009,8.283,18,9.201,18,10.5c0,1,1.897,2.5,2.919,2.5c2.916,0,6.678,0.037,8.065-1.824C30.341,12.596,32,14.763,32,20 c0,2.341-2.433,8-8,8c-5.1,0-10.206-1.651-10.239-1.664c-2.051-0.821-4.058-0.002-4.529,1.469 c-0.674,2.104,0.232,4.088,2.283,4.909C11.748,32.807,16.324,35,23.018,35C33.364,35,38,27.225,38,20C38,10.087,31.593,4,27,4z"/><path fill="#48a21c" d="M27.005,4.025c-0.319,0-1.418,0.234-2.644,0.61c-1.077,0.33-1.948,0.136-2.611,1.837 c-0.713,1.84-3.705,2.732-3.705,4.015c0,0.989,1.871,2.469,2.882,2.469c2.884,0,6.678,0.051,8.074-1.828 c1.342,1.404,3.023,3.573,3.023,8.87c0,2.403-2.503,8.028-8.063,8.028c-5.072,0-10.129-1.63-10.181-1.649 c-2.057-0.767-4.033-0.014-4.498,1.439c-0.665,2.075,0.256,4.044,2.285,4.855c0.251,0.1,4.798,2.268,11.428,2.268 c10.301,0,14.943-7.736,14.943-14.944C37.94,10.06,31.548,4.025,27.005,4.025z"/><path fill="#49a31d" d="M27.01,4.051c-0.32,0-1.414,0.228-2.637,0.602C23.3,4.981,22.431,4.799,21.775,6.49 c-0.71,1.852-3.685,2.717-3.685,3.985c0,0.978,1.846,2.438,2.845,2.438c2.852,0,6.679,0.066,8.084-1.832 c1.328,1.388,3.031,3.559,3.031,8.917c0,2.466-2.574,8.057-8.125,8.057c-5.044,0-10.051-1.609-10.122-1.635 c-2.051-0.742-4.008-0.026-4.467,1.409c-0.656,2.047,0.28,4,2.286,4.802c0.269,0.107,4.785,2.25,11.354,2.25 c10.255,0,14.904-7.697,14.904-14.888C37.88,10.034,31.503,4.051,27.01,4.051z"/><path fill="#4aa41e" d="M27.015,4.076c-0.321,0-1.411,0.222-2.631,0.595c-1.069,0.326-1.94,0.154-2.583,1.837 c-0.712,1.862-3.666,2.702-3.666,3.955c0,0.967,1.82,2.406,2.808,2.406c2.82,0,6.68,0.081,8.093-1.836 c1.313,1.373,3.038,3.546,3.038,8.963c0,2.528-2.644,8.085-8.188,8.085c-5.015,0-9.974-1.589-10.063-1.62 c-2.042-0.725-3.982-0.038-4.436,1.378c-0.647,2.019,0.304,3.956,2.288,4.749c0.287,0.113,4.773,2.232,11.279,2.232 c10.209,0,14.866-7.657,14.866-14.832C37.82,10.007,31.458,4.076,27.015,4.076z"/><path fill="#4ba51e" d="M27.02,4.101c-0.321,0-1.408,0.217-2.624,0.587c-1.066,0.324-1.934,0.164-2.57,1.837 c-0.711,1.873-3.646,2.687-3.646,3.925c0,0.956,1.794,2.375,2.772,2.375c2.788,0,6.68,0.096,8.102-1.84 c1.298,1.357,3.046,3.532,3.046,9.009c0,2.59-2.715,8.113-8.251,8.113c-4.987,0-9.897-1.568-10.005-1.606 c-2.032-0.712-3.957-0.05-4.405,1.348c-0.638,1.99,0.326,3.917,2.29,4.696c0.305,0.121,4.761,2.215,11.205,2.215 c10.164,0,14.827-7.618,14.827-14.777C37.76,9.98,31.413,4.101,27.02,4.101z"/><path fill="#4ba61f" d="M27.025,4.127c-0.322,0-1.404,0.211-2.617,0.579c-1.062,0.322-1.929,0.173-2.556,1.837 c-0.71,1.885-3.626,2.672-3.626,3.894c0,0.945,1.769,2.344,2.735,2.344c2.757,0,6.681,0.111,8.111-1.844 c1.283,1.342,3.053,3.518,3.053,9.056c0,2.652-2.785,8.141-8.313,8.141c-4.959,0-9.82-1.547-9.946-1.591 c-2.021-0.701-3.932-0.062-4.374,1.317c-0.629,1.962,0.35,3.874,2.291,4.643c0.323,0.128,4.749,2.197,11.13,2.197 c10.118,0,14.788-7.579,14.788-14.721C37.701,9.954,31.367,4.127,27.025,4.127z"/><path fill="#4ca720" d="M27.03,4.152c-0.323,0-1.401,0.205-2.61,0.571c-1.058,0.32-1.924,0.183-2.542,1.837 c-0.709,1.896-3.607,2.657-3.607,3.864c0,0.934,1.743,2.313,2.698,2.313c2.725,0,6.682,0.126,8.121-1.848 c1.268,1.326,3.061,3.504,3.061,9.102c0,2.715-2.856,8.17-8.376,8.17c-4.931,0-9.743-1.527-9.887-1.577 c-2.01-0.691-3.906-0.074-4.343,1.287c-0.62,1.934,0.373,3.83,2.293,4.589c0.341,0.135,4.737,2.179,11.056,2.179 c10.072,0,14.749-7.539,14.749-14.665C37.641,9.927,31.322,4.152,27.03,4.152z"/><path fill="#4da821" d="M27.035,4.177c-0.323,0-1.397,0.2-2.604,0.564c-1.054,0.318-1.918,0.192-2.529,1.837 c-0.708,1.907-3.587,2.642-3.587,3.834c0,0.924,1.718,2.281,2.661,2.281c2.693,0,6.682,0.141,8.13-1.852 c1.253,1.311,3.068,3.491,3.068,9.148c0,2.777-2.926,8.198-8.439,8.198c-4.902,0-9.666-1.506-9.829-1.562 c-1.998-0.683-3.881-0.085-4.312,1.257c-0.612,1.905,0.397,3.787,2.295,4.536c0.359,0.142,4.725,2.161,10.981,2.161 c10.027,0,14.71-7.5,14.71-14.609C37.581,9.9,31.277,4.177,27.035,4.177z"/><path fill="#4ea922" d="M27.04,4.202c-0.324,0-1.394,0.194-2.597,0.556c-1.051,0.316-1.913,0.202-2.515,1.837 c-0.706,1.918-3.568,2.626-3.568,3.804c0,0.913,1.692,2.25,2.624,2.25c2.661,0,6.683,0.156,8.139-1.856 c1.239,1.295,3.076,3.477,3.076,9.195c0,2.839-2.997,8.226-8.501,8.226c-4.874,0-9.588-1.486-9.77-1.548 c-1.986-0.674-3.856-0.097-4.281,1.226c-0.603,1.877,0.421,3.744,2.296,4.483c0.377,0.148,4.712,2.143,10.906,2.143 c9.981,0,14.671-7.461,14.671-14.553C37.521,9.874,31.232,4.202,27.04,4.202z"/><path fill="#4faa23" d="M27.045,4.228c-0.325,0-1.391,0.188-2.59,0.548c-1.047,0.314-1.907,0.211-2.501,1.837 c-0.705,1.93-3.548,2.611-3.548,3.773c0,0.902,1.667,2.219,2.587,2.219c2.629,0,6.684,0.171,8.149-1.86 c1.224,1.28,3.083,3.463,3.083,9.241c0,2.901-3.067,8.254-8.564,8.254c-4.846,0-9.511-1.465-9.712-1.533 c-1.974-0.667-3.83-0.109-4.25,1.196c-0.594,1.849,0.444,3.7,2.298,4.43c0.395,0.155,4.7,2.125,10.832,2.125 c9.935,0,14.632-7.421,14.632-14.497C37.461,9.847,31.187,4.228,27.045,4.228z"/><path fill="#50ab24" d="M27.05,4.253c-0.325,0-1.387,0.183-2.583,0.54c-1.043,0.312-1.902,0.221-2.488,1.837 c-0.704,1.941-3.528,2.596-3.528,3.743c0,0.891,1.641,2.188,2.551,2.188c2.597,0,6.684,0.185,8.158-1.864 c1.209,1.264,3.09,3.449,3.09,9.288c0,2.964-3.138,8.283-8.627,8.283c-4.818,0-9.434-1.445-9.653-1.518 c-1.961-0.66-3.805-0.121-4.219,1.166c-0.585,1.82,0.468,3.656,2.3,4.377c0.413,0.162,4.688,2.107,10.757,2.107 c9.89,0,14.593-7.382,14.593-14.442C37.401,9.82,31.142,4.253,27.05,4.253z"/><path fill="#51ac25" d="M27.055,4.278c-0.326,0-1.384,0.177-2.577,0.533c-1.039,0.31-1.896,0.23-2.474,1.837 c-0.702,1.953-3.509,2.581-3.509,3.713c0,0.88,1.616,2.157,2.514,2.157c2.565,0,6.685,0.2,8.167-1.868 c1.194,1.249,3.098,3.436,3.098,9.334c0,3.026-3.208,8.311-8.689,8.311c-4.789,0-9.357-1.424-9.594-1.504 c-1.949-0.653-3.78-0.133-4.188,1.135c-0.576,1.792,0.492,3.612,2.301,4.323c0.431,0.169,4.676,2.089,10.683,2.089 c9.844,0,14.554-7.342,14.554-14.386C37.341,9.794,31.097,4.278,27.055,4.278z"/><path fill="#52ad26" d="M27.06,4.304c-0.326,0-1.38,0.171-2.57,0.525c-1.036,0.308-1.89,0.24-2.46,1.837 c-0.701,1.964-3.489,2.566-3.489,3.683c0,0.869,1.59,2.125,2.477,2.125c2.534,0,6.686,0.215,8.176-1.873 c1.179,1.233,3.105,3.422,3.105,9.38c0,3.088-3.279,8.339-8.752,8.339c-4.761,0-9.28-1.404-9.536-1.489 c-1.937-0.646-3.754-0.145-4.157,1.105c-0.567,1.764,0.516,3.569,2.303,4.27c0.449,0.176,4.664,2.071,10.608,2.071 c9.798,0,14.515-7.303,14.515-14.33C37.281,9.767,31.051,4.304,27.06,4.304z"/><path fill="#52ae26" d="M27.065,4.329c-0.327,0-1.377,0.165-2.563,0.517c-1.032,0.306-1.884,0.25-2.446,1.838 c-0.699,1.976-3.47,2.551-3.47,3.652c0,0.858,1.564,2.094,2.44,2.094c2.502,0,6.686,0.23,8.186-1.877 c1.164,1.218,3.113,3.408,3.113,9.427c0,3.15-3.349,8.368-8.815,8.368c-4.733,0-9.202-1.383-9.477-1.475 c-1.924-0.639-3.729-0.157-4.126,1.075c-0.558,1.735,0.54,3.525,2.305,4.217c0.467,0.183,4.652,2.053,10.533,2.053 c9.753,0,14.476-7.264,14.476-14.274C37.221,9.741,31.006,4.329,27.065,4.329z"/><path fill="#53af27" d="M27.07,4.354c-0.328,0-1.373,0.16-2.556,0.509c-1.028,0.304-1.879,0.259-2.433,1.838 c-0.698,1.987-3.45,2.536-3.45,3.622c0,0.847,1.539,2.063,2.403,2.063c2.47,0,6.687,0.245,8.195-1.881 c1.15,1.202,3.12,3.395,3.12,9.473c0,3.212-3.42,8.396-8.877,8.396c-4.705,0-9.125-1.363-9.418-1.46 c-1.912-0.633-3.704-0.169-4.095,1.044c-0.55,1.707,0.564,3.481,2.306,4.164c0.484,0.19,4.64,2.035,10.459,2.035 c9.707,0,14.437-7.224,14.437-14.218C37.162,9.714,30.961,4.354,27.07,4.354z"/><path fill="#54b028" d="M27.075,4.38c-0.328,0-1.37,0.154-2.55,0.502c-1.024,0.302-1.873,0.269-2.419,1.838 c-0.696,1.999-3.431,2.521-3.431,3.592c0,0.836,1.513,2.032,2.367,2.032c2.438,0,6.688,0.26,8.204-1.885 c1.135,1.187,3.128,3.381,3.128,9.519c0,3.275-3.49,8.424-8.94,8.424c-4.676,0-9.048-1.343-9.36-1.446 c-1.899-0.627-3.678-0.181-4.064,1.014c-0.541,1.679,0.588,3.437,2.308,4.11c0.502,0.197,4.627,2.018,10.384,2.018 c9.661,0,14.399-7.185,14.399-14.162C37.102,9.687,30.916,4.38,27.075,4.38z"/><path fill="#55b129" d="M27.08,4.405c-0.329,0-1.367,0.148-2.543,0.494c-1.021,0.3-1.867,0.279-2.405,1.838 c-0.695,2.01-3.411,2.506-3.411,3.562c0,0.825,1.488,2.001,2.33,2.001c2.406,0,6.688,0.275,8.214-1.889 c1.12,1.171,3.135,3.367,3.135,9.566c0,3.337-3.561,8.452-9.003,8.452c-4.648,0-8.971-1.322-9.301-1.431 c-1.886-0.62-3.653-0.193-4.033,0.983c-0.532,1.65,0.612,3.393,2.31,4.057c0.52,0.204,4.615,2,10.31,2 c9.616,0,14.36-7.146,14.36-14.106C37.042,9.661,30.871,4.405,27.08,4.405z"/><path fill="#56b22a" d="M27.085,4.43c-0.33,0-1.363,0.143-2.536,0.486c-1.017,0.298-1.861,0.289-2.392,1.838 c-0.693,2.022-3.391,2.491-3.391,3.532c0,0.814,1.462,1.969,2.293,1.969c2.374,0,6.689,0.29,8.223-1.893 c1.105,1.156,3.143,3.353,3.143,9.612c0,3.399-3.631,8.481-9.065,8.481c-4.62,0-8.893-1.302-9.243-1.416 c-1.874-0.614-3.628-0.205-4.002,0.953c-0.523,1.622,0.636,3.349,2.311,4.004c0.538,0.21,4.603,1.982,10.235,1.982 c9.57,0,14.321-7.106,14.321-14.051C36.982,9.634,30.826,4.43,27.085,4.43z"/><path fill="#57b32b" d="M27.09,4.455c-0.33,0-1.36,0.137-2.529,0.478c-1.013,0.296-1.855,0.299-2.378,1.838 c-0.691,2.033-3.372,2.476-3.372,3.501c0,0.803,1.437,1.938,2.256,1.938c2.343,0,6.69,0.305,8.232-1.897 c1.09,1.14,3.15,3.34,3.15,9.659c0,3.461-3.702,8.509-9.128,8.509c-4.591,0-8.816-1.282-9.184-1.402 c-1.861-0.608-3.602-0.217-3.971,0.923c-0.514,1.594,0.66,3.305,2.313,3.951c0.556,0.217,4.591,1.964,10.161,1.964 c9.524,0,14.282-7.067,14.282-13.995C36.922,9.607,30.78,4.455,27.09,4.455z"/><path fill="#58b42c" d="M27.095,4.481c-0.331,0-1.356,0.131-2.523,0.471c-1.009,0.294-1.848,0.308-2.364,1.838 c-0.689,2.045-3.352,2.461-3.352,3.471c0,0.792,1.411,1.907,2.219,1.907c2.311,0,6.69,0.319,8.241-1.901 c1.076,1.125,3.158,3.326,3.158,9.705c0,3.524-3.772,8.537-9.19,8.537c-4.563,0-8.739-1.261-9.125-1.387 c-1.849-0.602-3.577-0.228-3.94,0.892c-0.505,1.565,0.684,3.261,2.314,3.898c0.574,0.224,4.579,1.946,10.086,1.946 c9.479,0,14.243-7.028,14.243-13.939C36.862,9.581,30.735,4.481,27.095,4.481z"/><path fill="#59b52d" d="M27.1,4.506c-0.332,0-1.353,0.126-2.516,0.463c-1.006,0.292-1.842,0.318-2.35,1.838 c-0.688,2.056-3.333,2.446-3.333,3.441c0,0.782,1.386,1.876,2.182,1.876c2.279,0,6.691,0.334,8.251-1.905 c1.061,1.109,3.165,3.312,3.165,9.751c0,3.586-3.843,8.566-9.253,8.566c-4.535,0-8.662-1.241-9.067-1.373 c-1.836-0.596-3.552-0.24-3.909,0.862c-0.496,1.537,0.708,3.217,2.316,3.844c0.592,0.231,4.567,1.928,10.011,1.928 c9.433,0,14.204-6.988,14.204-13.883C36.802,9.554,30.69,4.506,27.1,4.506z"/><path fill="#59b62d" d="M27.105,4.531c-0.332,0-1.35,0.12-2.509,0.455c-1.002,0.29-1.836,0.328-2.337,1.838 c-0.686,2.068-3.313,2.431-3.313,3.411c0,0.771,1.36,1.844,2.146,1.844c2.247,0,6.692,0.349,8.26-1.909 c1.046,1.094,3.172,3.298,3.172,9.798c0,3.648-3.913,8.594-9.316,8.594c-4.507,0-8.584-1.221-9.008-1.358 c-1.823-0.59-3.526-0.252-3.878,0.832c-0.488,1.509,0.732,3.173,2.318,3.791c0.61,0.238,4.554,1.91,9.937,1.91 c9.387,0,14.165-6.949,14.165-13.827C36.742,9.527,30.645,4.531,27.105,4.531z"/><path fill="#5ab72e" d="M27.11,4.557c-0.333,0-1.346,0.114-2.502,0.447c-0.998,0.288-1.83,0.338-2.323,1.838 c-0.684,2.08-3.293,2.416-3.293,3.38c0,0.76,1.334,1.813,2.109,1.813c2.215,0,6.692,0.364,8.269-1.913 c1.031,1.078,3.18,3.285,3.18,9.844c0,3.71-3.984,8.622-9.378,8.622c-4.478,0-8.507-1.201-8.949-1.344 c-1.81-0.584-3.501-0.264-3.847,0.801c-0.479,1.48,0.756,3.129,2.319,3.738c0.628,0.245,4.542,1.892,9.862,1.892 c9.342,0,14.126-6.909,14.126-13.771C36.683,9.501,30.6,4.557,27.11,4.557z"/><path fill="#5bb82f" d="M27.115,4.582c-0.334,0-1.343,0.109-2.496,0.44c-0.994,0.286-1.823,0.348-2.309,1.838 c-0.682,2.091-3.274,2.401-3.274,3.35c0,0.749,1.309,1.782,2.072,1.782c2.183,0,6.693,0.379,8.279-1.917 c1.016,1.063,3.187,3.271,3.187,9.89c0,3.773-4.054,8.65-9.441,8.65c-4.45,0-8.43-1.181-8.891-1.329 c-1.798-0.578-3.475-0.276-3.816,0.771c-0.47,1.452,0.78,3.085,2.321,3.685c0.646,0.252,4.53,1.874,9.788,1.874 c9.296,0,14.087-6.87,14.087-13.715C36.623,9.474,30.555,4.582,27.115,4.582z"/><path fill="#5cb930" d="M27.12,4.607c-0.334,0-1.339,0.103-2.489,0.432c-0.991,0.284-1.817,0.358-2.296,1.838 c-0.68,2.103-3.254,2.386-3.254,3.32c0,0.738,1.283,1.751,2.035,1.751c2.151,0,6.694,0.394,8.288-1.921 c1.001,1.047,3.195,3.257,3.195,9.937c0,3.835-4.125,8.679-9.504,8.679c-4.422,0-8.352-1.161-8.832-1.314 c-1.785-0.572-3.45-0.288-3.785,0.741c-0.461,1.424,0.804,3.04,2.323,3.632c0.664,0.258,4.518,1.856,9.713,1.856 c9.25,0,14.048-6.831,14.048-13.66C36.563,9.447,30.51,4.607,27.12,4.607z"/><path fill="#5dba31" d="M27.125,4.633c-0.335,0-1.336,0.097-2.482,0.424c-0.987,0.282-1.811,0.368-2.282,1.838 c-0.678,2.115-3.235,2.371-3.235,3.29c0,0.727,1.258,1.72,1.998,1.72c2.12,0,6.694,0.409,8.297-1.925 c0.987,1.032,3.202,3.243,3.202,9.983c0,3.897-4.195,8.707-9.566,8.707c-4.394,0-8.275-1.14-8.774-1.3 c-1.772-0.567-3.425-0.3-3.754,0.71c-0.452,1.395,0.828,2.996,2.324,3.578c0.682,0.265,4.506,1.839,9.638,1.839 c9.205,0,14.009-6.791,14.009-13.604C36.503,9.421,30.464,4.633,27.125,4.633z"/><path fill="#5ebb32" d="M27.13,4.658c-0.336,0-1.332,0.092-2.475,0.416c-0.983,0.28-1.804,0.378-2.268,1.838 c-0.676,2.127-3.215,2.356-3.215,3.26c0,0.716,1.232,1.688,1.961,1.688c2.088,0,6.695,0.424,8.306-1.929 c0.972,1.016,3.21,3.23,3.21,10.03c0,3.959-4.266,8.735-9.629,8.735c-4.365,0-8.198-1.12-8.715-1.285 c-1.76-0.561-3.399-0.312-3.723,0.68c-0.443,1.367,0.852,2.952,2.326,3.525c0.7,0.272,4.494,1.821,9.564,1.821 c9.159,0,13.97-6.752,13.97-13.548C36.443,9.394,30.419,4.658,27.13,4.658z"/><path fill="#5fbc33" d="M27.135,4.683c-0.336,0-1.329,0.086-2.469,0.409c-0.979,0.278-1.798,0.388-2.255,1.838 c-0.674,2.138-3.195,2.341-3.195,3.229c0,0.705,1.207,1.657,1.925,1.657c2.056,0,6.696,0.439,8.316-1.933 c0.957,1.001,3.217,3.216,3.217,10.076c0,4.022-4.336,8.763-9.692,8.763c-4.337,0-8.12-1.1-8.656-1.271 c-1.747-0.555-3.374-0.324-3.692,0.649c-0.434,1.339,0.876,2.908,2.328,3.472c0.718,0.279,4.482,1.803,9.489,1.803 c9.113,0,13.932-6.713,13.932-13.492C36.383,9.368,30.374,4.683,27.135,4.683z"/><path fill="#60bd34" d="M27.14,4.708c-0.337,0-1.326,0.08-2.462,0.401c-0.976,0.276-1.791,0.398-2.241,1.838 c-0.671,2.15-3.176,2.326-3.176,3.199c0,0.694,1.181,1.626,1.888,1.626c2.024,0,6.696,0.454,8.325-1.938 c0.942,0.985,3.225,3.202,3.225,10.122c0,4.084-4.407,8.792-9.754,8.792c-4.309,0-8.043-1.08-8.598-1.256 c-1.734-0.549-3.349-0.336-3.661,0.619c-0.426,1.31,0.9,2.864,2.329,3.419c0.736,0.286,4.469,1.785,9.415,1.785 c9.068,0,13.893-6.673,13.893-13.436C36.323,9.341,30.329,4.708,27.14,4.708z"/><path fill="#60be34" d="M27.146,4.734c-0.337,0-1.322,0.074-2.455,0.393c-0.972,0.274-1.784,0.408-2.227,1.839 c-0.669,2.162-3.156,2.311-3.156,3.169c0,0.683,1.156,1.595,1.851,1.595c1.992,0,6.697,0.468,8.334-1.942 c0.927,0.97,3.232,3.189,3.232,10.169c0,4.146-4.477,8.82-9.817,8.82c-4.281,0-7.966-1.061-8.539-1.242 c-1.721-0.543-3.323-0.348-3.629,0.589c-0.417,1.282,0.924,2.82,2.331,3.365c0.754,0.293,4.457,1.767,9.34,1.767 c9.022,0,13.854-6.634,13.854-13.38C36.263,9.314,30.284,4.734,27.146,4.734z"/><path fill="#61bf35" d="M27.151,4.759c-0.338,0-1.319,0.069-2.448,0.385c-0.968,0.272-1.778,0.418-2.213,1.839 c-0.667,2.174-3.137,2.295-3.137,3.139c0,0.672,1.13,1.563,1.814,1.563c1.96,0,6.698,0.483,8.344-1.946 c0.912,0.954,3.239,3.175,3.239,10.215c0,4.208-4.548,8.848-9.88,8.848c-4.252,0-7.888-1.041-8.48-1.227 c-1.709-0.538-3.298-0.36-3.598,0.558c-0.408,1.254,0.948,2.775,2.333,3.312c0.772,0.299,4.445,1.749,9.265,1.749 c8.976,0,13.815-6.595,13.815-13.325C36.203,9.288,30.239,4.759,27.151,4.759z"/><path fill="#62c036" d="M27.156,4.784c-0.339,0-1.315,0.063-2.442,0.378c-0.964,0.27-1.771,0.428-2.2,1.839 c-0.664,2.186-3.117,2.28-3.117,3.108c0,0.661,1.104,1.532,1.777,1.532c1.929,0,6.698,0.498,8.353-1.95 c0.898,0.939,3.247,3.161,3.247,10.261c0,4.271-4.618,8.877-9.942,8.877c-4.224,0-7.811-1.021-8.422-1.212 c-1.696-0.532-3.273-0.371-3.567,0.528c-0.399,1.225,0.972,2.731,2.334,3.259c0.79,0.306,4.433,1.731,9.191,1.731 c8.931,0,13.776-6.555,13.776-13.269C36.144,9.261,30.193,4.784,27.156,4.784z"/><path fill="#63c137" d="M27.161,4.81c-0.339,0-1.312,0.057-2.435,0.37c-0.961,0.268-1.764,0.438-2.186,1.839 c-0.662,2.197-3.097,2.265-3.097,3.078c0,0.65,1.079,1.501,1.74,1.501c1.897,0,6.699,0.513,8.362-1.954 c0.883,0.923,3.254,3.147,3.254,10.308c0,4.333-4.689,8.905-10.005,8.905c-4.196,0-7.733-1.001-8.363-1.198 c-1.683-0.526-3.247-0.383-3.536,0.498c-0.39,1.197,0.996,2.687,2.336,3.206c0.808,0.313,4.421,1.713,9.116,1.713 c8.885,0,13.737-6.516,13.737-13.213C36.084,9.234,30.148,4.81,27.161,4.81z"/><path fill="#64c138" d="M27.166,4.835c-0.34,0-1.309,0.052-2.428,0.362c-0.957,0.266-1.757,0.448-2.172,1.839 c-0.659,2.209-3.078,2.25-3.078,3.048c0,0.64,1.053,1.47,1.704,1.47c1.865,0,6.7,0.528,8.371-1.958 c0.868,0.908,3.262,3.134,3.262,10.354c0,4.395-4.759,8.933-10.068,8.933c-4.168,0-7.656-0.981-8.305-1.183 c-1.671-0.521-3.222-0.395-3.505,0.467c-0.381,1.169,1.02,2.643,2.337,3.153c0.826,0.32,4.409,1.695,9.042,1.695 c8.839,0,13.698-6.476,13.698-13.157C36.024,9.208,30.103,4.835,27.166,4.835z"/><path fill="#65c239" d="M27.171,4.86c-0.341,0-1.305,0.046-2.421,0.354c-0.953,0.264-1.751,0.458-2.159,1.839 c-0.657,2.221-3.058,2.235-3.058,3.018c0,0.629,1.028,1.439,1.667,1.439c1.833,0,6.7,0.543,8.381-1.962 c0.853,0.892,3.269,3.12,3.269,10.401c0,4.457-4.83,8.961-10.13,8.961c-4.139,0-7.579-0.961-8.246-1.169 c-1.658-0.515-3.197-0.407-3.474,0.437c-0.372,1.14,1.044,2.598,2.339,3.099c0.844,0.327,4.396,1.677,8.967,1.677 c8.794,0,13.659-6.437,13.659-13.101C35.964,9.181,30.058,4.86,27.171,4.86z"/><path fill="#66c33a" d="M27.176,4.886c-0.341,0-1.302,0.04-2.415,0.347c-0.949,0.262-1.744,0.468-2.145,1.839 c-0.654,2.233-3.039,2.22-3.039,2.987c0,0.618,1.002,1.407,1.63,1.407c1.801,0,6.701,0.558,8.39-1.966 c0.838,0.877,3.277,3.106,3.277,10.447c0,4.519-4.9,8.99-10.193,8.99c-4.111,0-7.501-0.942-8.187-1.154 c-1.645-0.509-3.171-0.419-3.443,0.407c-0.364,1.112,1.068,2.554,2.341,3.046c0.862,0.333,4.384,1.659,8.893,1.659 c8.748,0,13.62-6.398,13.62-13.045C35.904,9.154,30.013,4.886,27.176,4.886z"/><path fill="#67c43b" d="M27.181,4.911c-0.342,0-1.298,0.035-2.408,0.339c-0.946,0.26-1.737,0.478-2.131,1.839 c-0.651,2.245-3.019,2.205-3.019,2.957c0,0.607,0.977,1.376,1.593,1.376c1.769,0,6.702,0.573,8.399-1.97 c0.824,0.861,3.284,3.092,3.284,10.493c0,4.582-4.971,9.018-10.256,9.018c-4.083,0-7.424-0.922-8.129-1.14 c-1.632-0.504-3.146-0.431-3.412,0.376c-0.355,1.084,1.092,2.51,2.342,2.993c0.88,0.34,4.372,1.642,8.818,1.642 c8.702,0,13.581-6.358,13.581-12.989C35.844,9.128,29.968,4.911,27.181,4.911z"/><path fill="#67c53b" d="M27.186,4.936c-0.343,0-1.295,0.029-2.401,0.331c-0.942,0.258-1.73,0.488-2.118,1.839 c-0.648,2.257-2.999,2.19-2.999,2.927c0,0.596,0.951,1.345,1.556,1.345c1.737,0,6.702,0.588,8.409-1.974 c0.809,0.846,3.292,3.079,3.292,10.54c0,4.644-5.041,9.046-10.318,9.046c-4.055,0-7.346-0.903-8.07-1.125 c-1.62-0.498-3.121-0.443-3.381,0.346c-0.346,1.055,1.116,2.466,2.344,2.94c0.898,0.347,4.36,1.624,8.743,1.624 c8.657,0,13.542-6.319,13.542-12.934C35.784,9.101,29.923,4.936,27.186,4.936z"/><path fill="#68c63c" d="M27.191,4.961c-0.343,0-1.291,0.023-2.394,0.323c-0.938,0.256-1.723,0.498-2.104,1.839 c-0.645,2.269-2.98,2.175-2.98,2.897c0,0.585,0.925,1.314,1.519,1.314c1.706,0,6.703,0.602,8.418-1.978 c0.794,0.83,3.299,3.065,3.299,10.586c0,4.706-5.112,9.074-10.381,9.074c-4.026,0-7.269-0.883-8.011-1.11 c-1.607-0.492-3.095-0.455-3.35,0.316c-0.337,1.027,1.14,2.421,2.346,2.887c0.916,0.354,4.348,1.606,8.669,1.606 c8.611,0,13.503-6.28,13.503-12.878C35.724,9.074,29.877,4.961,27.191,4.961z"/><path fill="#69c73d" d="M27.196,4.987c-0.344,0-1.288,0.018-2.388,0.316c-0.934,0.254-1.716,0.509-2.09,1.839 c-0.642,2.281-2.96,2.16-2.96,2.867c0,0.574,0.9,1.282,1.483,1.282c1.674,0,6.704,0.617,8.427-1.982 c0.779,0.815,3.307,3.051,3.307,10.632c0,4.768-5.182,9.103-10.444,9.103c-3.998,0-7.191-0.863-7.953-1.096 c-1.594-0.487-3.07-0.467-3.319,0.285c-0.328,0.999,1.164,2.377,2.347,2.833c0.934,0.36,4.336,1.588,8.594,1.588 c8.565,0,13.465-6.24,13.465-12.822C35.664,9.048,29.832,4.987,27.196,4.987z"/><path fill="#6ac83e" d="M27.201,5.012c-0.345,0-1.285,0.012-2.381,0.308c-0.931,0.252-1.708,0.519-2.076,1.839 c-0.639,2.293-2.941,2.145-2.941,2.836c0,0.563,0.874,1.251,1.446,1.251c1.642,0,6.704,0.632,8.436-1.986 c0.764,0.799,3.314,3.037,3.314,10.679c0,4.831-5.253,9.131-10.506,9.131c-3.97,0-7.114-0.844-7.894-1.081 c-1.581-0.481-3.045-0.479-3.288,0.255c-0.319,0.971,1.188,2.333,2.349,2.78c0.953,0.367,4.323,1.57,8.52,1.57 c8.52,0,13.426-6.201,13.426-12.766C35.605,9.021,29.787,5.012,27.201,5.012z"/><path fill="#6bc93f" d="M27.206,5.037c-0.345,0-1.281,0.006-2.374,0.3c-0.927,0.25-1.701,0.529-2.063,1.839 c-0.636,2.305-2.921,2.13-2.921,2.806c0,0.552,0.849,1.22,1.409,1.22c1.61,0,6.705,0.647,8.446-1.99 c0.749,0.784,3.321,3.024,3.321,10.725c0,4.893-5.323,9.159-10.569,9.159c-3.942,0-7.036-0.825-7.836-1.067 c-1.569-0.475-3.019-0.491-3.257,0.224c-0.31,0.942,1.212,2.288,2.351,2.727c0.971,0.374,4.311,1.552,8.445,1.552 c8.474,0,13.387-6.162,13.387-12.71C35.545,8.995,29.742,5.037,27.206,5.037z"/><path fill="#6cca40" d="M27.211,5.063c-0.346,0-1.278,0.001-2.367,0.292c-0.923,0.248-1.694,0.539-2.049,1.839 c-0.633,2.317-2.901,2.115-2.901,2.776c0,0.541,0.823,1.189,1.372,1.189c1.578,0,6.706,0.662,8.455-1.994 c0.735,0.768,3.329,3.01,3.329,10.772c0,4.955-5.394,9.188-10.632,9.188c-3.913,0-6.959-0.805-7.777-1.052 c-1.556-0.47-2.994-0.502-3.226,0.194c-0.302,0.914,1.236,2.244,2.352,2.674c0.989,0.381,4.299,1.534,8.37,1.534 c8.428,0,13.348-6.122,13.348-12.654C35.485,8.968,29.697,5.063,27.211,5.063z"/><path fill="#6dcb41" d="M27.216,5.088c-0.346,0-1.274-0.005-2.361,0.285c-0.919,0.246-1.687,0.549-2.035,1.839 c-0.629,2.329-2.882,2.1-2.882,2.746c0,0.53,0.798,1.158,1.335,1.158c1.546,0,6.706,0.677,8.464-1.998 c0.72,0.753,3.336,2.996,3.336,10.818c0,5.017-5.464,9.216-10.694,9.216c-3.885,0-6.881-0.786-7.718-1.038 c-1.543-0.464-2.969-0.514-3.195,0.164c-0.293,0.886,1.261,2.2,2.354,2.62c1.007,0.387,4.287,1.516,8.296,1.516 c8.382,0,13.309-6.083,13.309-12.599C35.425,8.941,29.652,5.088,27.216,5.088z"/><path fill="#6ecc42" d="M27.221,5.113c-0.347,0-1.271-0.011-2.354,0.277c-0.916,0.244-1.68,0.559-2.022,1.839 c-0.626,2.342-2.862,2.085-2.862,2.715c0,0.519,0.772,1.126,1.298,1.126c1.514,0,6.707,0.692,8.474-2.003 c0.705,0.737,3.344,2.982,3.344,10.864c0,5.08-5.535,9.244-10.757,9.244c-3.857,0-6.803-0.767-7.66-1.023 c-1.531-0.458-2.943-0.526-3.164,0.133c-0.284,0.857,1.285,2.155,2.356,2.567c1.025,0.394,4.275,1.498,8.221,1.498 c8.337,0,13.27-6.044,13.27-12.543C35.365,8.915,29.606,5.113,27.221,5.113z"/><path fill="#6ecd42" d="M27.226,5.139c-0.348,0-1.267-0.017-2.347,0.269c-0.912,0.242-1.672,0.57-2.008,1.84 c-0.622,2.354-2.843,2.07-2.843,2.685c0,0.508,0.747,1.095,1.262,1.095c1.483,0,6.708,0.707,8.483-2.007 c0.69,0.722,3.351,2.969,3.351,10.911c0,5.142-5.605,9.272-10.82,9.272c-3.829,0-6.726-0.747-7.601-1.008 c-1.518-0.453-2.918-0.538-3.133,0.103c-0.275,0.829,1.309,2.111,2.357,2.514c1.043,0.401,4.263,1.48,8.147,1.48 c8.291,0,13.231-6.004,13.231-12.487C35.305,8.888,29.561,5.139,27.226,5.139z"/><path fill="#6fce43" d="M27.231,5.164c-0.348,0-1.264-0.022-2.34,0.261c-0.908,0.24-1.665,0.58-1.994,1.84 c-0.619,2.366-2.823,2.055-2.823,2.655c0,0.498,0.721,1.064,1.225,1.064c1.451,0,6.708,0.722,8.492-2.011 c0.675,0.706,3.359,2.955,3.359,10.957c0,5.204-5.676,9.301-10.882,9.301c-3.8,0-6.648-0.728-7.542-0.994 c-1.505-0.447-2.893-0.55-3.102,0.073c-0.266,0.801,1.333,2.067,2.359,2.461c1.061,0.407,4.251,1.463,8.072,1.463 c8.245,0,13.192-5.965,13.192-12.431C35.245,8.861,29.516,5.164,27.231,5.164z"/><path fill="#70cf44" d="M27.236,5.189c-0.349,0-1.261-0.028-2.334,0.254c-0.904,0.238-1.657,0.59-1.981,1.84 c-0.615,2.378-2.803,2.04-2.803,2.625c0,0.487,0.695,1.033,1.188,1.033c1.419,0,6.709,0.736,8.501-2.015 c0.66,0.691,3.366,2.941,3.366,11.004c0,5.266-5.746,9.329-10.945,9.329c-3.772,0-6.571-0.709-7.484-0.979 c-1.493-0.442-2.867-0.562-3.071,0.042c-0.257,0.772,1.357,2.023,2.36,2.408c1.079,0.414,4.238,1.445,7.998,1.445 c8.2,0,13.153-5.925,13.153-12.375C35.185,8.835,29.471,5.189,27.236,5.189z"/><path fill="#71d045" d="M27.241,5.214c-0.35,0-1.257-0.034-2.327,0.246c-0.901,0.236-1.65,0.6-1.967,1.84 c-0.611,2.39-2.784,2.025-2.784,2.595c0,0.476,0.67,1.002,1.151,1.002c1.387,0,6.71,0.751,8.511-2.019 c0.646,0.675,3.374,2.928,3.374,11.05c0,5.329-5.817,9.357-11.008,9.357c-3.744,0-6.493-0.69-7.425-0.965 c-1.48-0.436-2.842-0.574-3.04,0.012c-0.248,0.744,1.381,1.978,2.362,2.354c1.097,0.421,4.226,1.427,7.923,1.427 c8.154,0,13.114-5.886,13.114-12.319C35.125,8.808,29.426,5.214,27.241,5.214z"/><path fill="#72d146" d="M27.246,5.24c-0.35,0-1.254-0.039-2.32,0.238c-0.897,0.234-1.643,0.611-1.953,1.84 c-0.607,2.403-2.764,2.01-2.764,2.564c0,0.465,0.644,0.97,1.114,0.97c1.355,0,6.71,0.766,8.52-2.023 c0.631,0.66,3.381,2.914,3.381,11.096c0,5.391-5.887,9.386-11.07,9.386c-3.716,0-6.415-0.671-7.367-0.95 c-1.467-0.431-2.817-0.586-3.009-0.018c-0.24,0.716,1.405,1.934,2.364,2.301c1.115,0.427,4.214,1.409,7.848,1.409 c8.108,0,13.075-5.847,13.075-12.263C35.066,8.781,29.381,5.24,27.246,5.24z"/><path fill="#73d247" d="M27.251,5.265c-0.351,0-1.25-0.045-2.313,0.23c-0.893,0.232-1.635,0.621-1.939,1.84 c-0.603,2.415-2.745,1.995-2.745,2.534c0,0.454,0.619,0.939,1.078,0.939c1.323,0,6.711,0.781,8.529-2.027 c0.616,0.644,3.388,2.9,3.388,11.143c0,5.453-5.958,9.414-11.133,9.414c-3.687,0-6.338-0.652-7.308-0.936 c-1.454-0.425-2.791-0.598-2.978-0.049c-0.231,0.687,1.429,1.89,2.365,2.248c1.133,0.434,4.202,1.391,7.774,1.391 c8.063,0,13.036-5.807,13.036-12.208C35.006,8.755,29.336,5.265,27.251,5.265z"/><path fill="#74d348" d="M27.256,5.29c-0.352,0-1.247-0.051-2.307,0.223c-0.889,0.23-1.627,0.631-1.926,1.84 c-0.599,2.427-2.725,1.98-2.725,2.504c0,0.443,0.593,0.908,1.041,0.908c1.292,0,6.712,0.796,8.539-2.031 c0.601,0.629,3.396,2.886,3.396,11.189c0,5.515-6.028,9.442-11.196,9.442c-3.659,0-6.26-0.633-7.249-0.921 c-1.442-0.419-2.766-0.61-2.947-0.079c-0.222,0.659,1.453,1.845,2.367,2.195c1.151,0.44,4.19,1.373,7.699,1.373 c8.017,0,12.998-5.768,12.998-12.152C34.946,8.728,29.29,5.29,27.256,5.29z"/><path fill="#75d449" d="M27.261,5.316c-0.352,0-1.244-0.056-2.3,0.215c-0.886,0.228-1.62,0.641-1.912,1.84 c-0.595,2.439-2.705,1.964-2.705,2.474c0,0.432,0.568,0.877,1.004,0.877c1.26,0,6.712,0.811,8.548-2.035 c0.586,0.613,3.403,2.873,3.403,11.235c0,5.578-6.099,9.47-11.258,9.47c-3.631,0-6.182-0.615-7.191-0.906 c-1.429-0.414-2.741-0.622-2.916-0.11c-0.213,0.631,1.477,1.801,2.369,2.142c1.169,0.447,4.178,1.355,7.625,1.355 c7.971,0,12.959-5.729,12.959-12.096C34.886,8.701,29.245,5.316,27.261,5.316z"/><path fill="#75d549" d="M27.266,5.341c-0.353,0-1.24-0.062-2.293,0.207c-0.882,0.226-1.612,0.652-1.898,1.84 c-0.59,2.452-2.686,1.949-2.686,2.443c0,0.421,0.542,0.845,0.967,0.845c1.228,0,6.713,0.826,8.557-2.039 c0.571,0.598,3.411,2.859,3.411,11.282c0,5.64-6.169,9.499-11.321,9.499c-3.602,0-6.105-0.596-7.132-0.892 c-1.416-0.408-2.715-0.634-2.885-0.14c-0.204,0.602,1.501,1.757,2.37,2.088c1.187,0.453,4.165,1.337,7.55,1.337 c7.926,0,12.92-5.689,12.92-12.04C34.826,8.675,29.2,5.341,27.266,5.341z"/><path fill="#76d64a" d="M27.271,5.366c-0.354,0-1.237-0.068-2.286,0.199c-0.878,0.224-1.605,0.662-1.885,1.84 c-0.586,2.464-2.666,1.934-2.666,2.413c0,0.41,0.517,0.814,0.93,0.814c1.196,0,6.714,0.841,8.566-2.043 c0.557,0.582,3.418,2.845,3.418,11.328c0,5.702-6.24,9.527-11.383,9.527c-3.574,0-6.027-0.577-7.073-0.877 c-1.404-0.403-2.69-0.645-2.854-0.17c-0.195,0.574,1.525,1.712,2.372,2.035c1.206,0.46,4.153,1.319,7.475,1.319 c7.88,0,12.881-5.65,12.881-11.984C34.766,8.648,29.155,5.366,27.271,5.366z"/><path fill="#77d74b" d="M27.276,5.392c-0.354,0-1.233-0.073-2.28,0.192c-0.874,0.222-1.597,0.672-1.871,1.84 c-0.581,2.476-2.647,1.919-2.647,2.383c0,0.399,0.491,0.783,0.893,0.783c1.164,0,6.714,0.856,8.576-2.047 c0.542,0.567,3.426,2.831,3.426,11.375c0,5.764-6.31,9.555-11.446,9.555c-3.546,0-5.949-0.559-7.015-0.863 c-1.391-0.397-2.665-0.657-2.823-0.201c-0.186,0.546,1.549,1.668,2.374,1.982c1.224,0.466,4.141,1.301,7.401,1.301 c7.834,0,12.842-5.611,12.842-11.928C34.706,8.622,29.11,5.392,27.276,5.392z"/><path fill="#78d84c" d="M27.281,5.417c-0.355,0-1.23-0.079-2.273,0.184c-0.871,0.22-1.589,0.682-1.857,1.84 c-0.576,2.489-2.627,1.904-2.627,2.353c0,0.388,0.465,0.752,0.857,0.752c1.132,0,6.715,0.87,8.585-2.051 c0.527,0.551,3.433,2.818,3.433,11.421c0,5.826-6.381,9.583-11.509,9.583c-3.518,0-5.871-0.54-6.956-0.848 c-1.378-0.392-2.639-0.669-2.792-0.231c-0.178,0.517,1.574,1.624,2.375,1.929c1.242,0.473,4.129,1.283,7.326,1.283 c7.789,0,12.803-5.571,12.803-11.873C34.646,8.595,29.065,5.417,27.281,5.417z"/><path fill="#79d94d" d="M27.286,5.442c-0.356,0-1.226-0.085-2.266,0.176c-0.867,0.218-1.581,0.693-1.844,1.84 c-0.571,2.501-2.607,1.889-2.607,2.322c0,0.377,0.44,0.721,0.82,0.721c1.1,0,6.716,0.885,8.594-2.055 c0.512,0.536,3.441,2.804,3.441,11.467c0,5.889-6.451,9.612-11.571,9.612c-3.489,0-5.794-0.522-6.898-0.834 c-1.366-0.386-2.614-0.681-2.761-0.261c-0.169,0.489,1.598,1.579,2.377,1.876c1.26,0.479,4.117,1.266,7.252,1.266 c7.743,0,12.764-5.532,12.764-11.817C34.587,8.568,29.019,5.442,27.286,5.442z"/><path fill="#7ada4e" d="M27.291,5.467c-0.356,0-1.223-0.09-2.259,0.168c-0.863,0.216-1.574,0.703-1.83,1.84 c-0.566,2.514-2.588,1.874-2.588,2.292c0,0.366,0.414,0.689,0.783,0.689c1.069,0,6.716,0.9,8.604-2.059 c0.497,0.52,3.448,2.79,3.448,11.514c0,5.951-6.522,9.64-11.634,9.64c-3.461,0-5.716-0.503-6.839-0.819 c-1.353-0.381-2.589-0.693-2.73-0.292c-0.16,0.461,1.622,1.535,2.379,1.822c1.278,0.486,4.105,1.248,7.177,1.248 c7.697,0,12.725-5.492,12.725-11.761C34.527,8.542,28.974,5.467,27.291,5.467z"/><path fill="#7bdb4f" d="M27.296,5.493c-0.357,0-1.22-0.096-2.253,0.161c-0.859,0.214-1.566,0.713-1.816,1.84 c-0.561,2.526-2.568,1.859-2.568,2.262c0,0.356,0.389,0.658,0.746,0.658c1.037,0,6.717,0.915,8.613-2.063 c0.483,0.505,3.456,2.776,3.456,11.56c0,6.013-6.592,9.668-11.697,9.668c-3.433,0-5.638-0.485-6.78-0.805 c-1.34-0.375-2.563-0.705-2.699-0.322c-0.151,0.432,1.646,1.49,2.38,1.769c1.296,0.492,4.093,1.23,7.102,1.23 c7.652,0,12.686-5.453,12.686-11.705C34.467,8.515,28.929,5.493,27.296,5.493z"/><path fill="#7cdc50" d="M27.301,5.518c-0.357,0-1.216-0.102-2.246,0.153c-0.856,0.212-1.558,0.723-1.802,1.84 c-0.556,2.538-2.549,1.844-2.549,2.232c0,0.345,0.363,0.627,0.709,0.627c1.005,0,6.718,0.93,8.622-2.067 c0.468,0.489,3.463,2.763,3.463,11.606c0,6.075-6.663,9.697-11.759,9.697c-3.405,0-5.56-0.467-6.722-0.79 c-1.328-0.369-2.538-0.717-2.668-0.352c-0.142,0.404,1.67,1.445,2.382,1.716c1.315,0.496,4.08,1.212,7.028,1.212 c7.606,0,12.647-5.414,12.647-11.649C34.407,8.488,28.884,5.518,27.301,5.518z"/><path fill="#7cdd50" d="M27.306,5.543c-0.358,0-1.213-0.108-2.239,0.145c-0.852,0.21-1.55,0.734-1.789,1.841 c-0.55,2.551-2.529,1.829-2.529,2.202c0,0.334,0.338,0.596,0.672,0.596c0.973,0,6.718,0.945,8.631-2.072 c0.453,0.474,3.47,2.749,3.47,11.653c0,6.138-6.733,9.725-11.822,9.725c-3.376,0-5.482-0.449-6.663-0.775 c-1.315-0.364-2.513-0.729-2.637-0.383c-0.133,0.376,1.694,1.401,2.383,1.663c1.334,0.503,4.068,1.194,6.953,1.194 c7.56,0,12.608-5.374,12.608-11.593C34.347,8.462,28.839,5.543,27.306,5.543z"/><path fill="#7dde51" d="M27.311,5.569c-0.359,0-1.209-0.113-2.232,0.137c-0.848,0.208-1.542,0.744-1.775,1.841 c-0.545,2.563-2.509,1.814-2.509,2.171c0,0.323,0.312,0.564,0.636,0.564c0.941,0,6.719,0.96,8.641-2.076 c0.438,0.458,3.478,2.735,3.478,11.699c0,6.2-6.804,9.753-11.885,9.753c-3.348,0-5.404-0.431-6.604-0.761 c-1.303-0.358-2.487-0.741-2.606-0.413c-0.124,0.347,1.718,1.357,2.385,1.609c1.352,0.509,4.056,1.176,6.879,1.176 c7.515,0,12.57-5.335,12.57-11.537C34.287,8.435,28.794,5.569,27.311,5.569z"/><path fill="#7edf52" d="M27.316,5.594c-0.359,0-1.206-0.119-2.226,0.13c-0.844,0.206-1.533,0.754-1.761,1.841 c-0.536,2.577-2.49,1.799-2.49,2.141c0,0.312,0.287,0.533,0.599,0.533c0.909,0,6.719,0.975,8.65-2.08 c0.423,0.443,3.485,2.722,3.485,11.746c0,6.262-6.874,9.781-11.947,9.781c-3.32,0-5.326-0.414-6.546-0.746 c-1.29-0.355-2.462-0.753-2.575-0.444c-0.116,0.319,1.742,1.313,2.387,1.556c1.37,0.516,4.044,1.158,6.804,1.158 c7.469,0,12.531-5.296,12.531-11.482C34.227,8.408,28.749,5.594,27.316,5.594z"/><path fill="#7fe053" d="M27.321,5.619c-0.36,0-1.203-0.125-2.219,0.122c-0.841,0.204-1.526,0.764-1.748,1.841 c-0.533,2.588-2.47,1.784-2.47,2.111c0,0.301,0.261,0.502,0.562,0.502c0.877,0,6.72,0.99,8.659-2.084 c0.408,0.427,3.493,2.708,3.493,11.792c0,6.324-6.945,9.81-12.01,9.81c-3.292,0-5.248-0.395-6.487-0.732 c-1.277-0.347-2.437-0.765-2.543-0.474c-0.107,0.291,1.766,1.269,2.388,1.503c1.388,0.523,4.032,1.14,6.73,1.14 c7.423,0,12.492-5.256,12.492-11.426C34.167,8.382,28.703,5.619,27.321,5.619z"/></g><radialGradient id="dLTcP~LBMI17OVLSVXeMJe" cx="-192.746" cy="-196.289" r="2.081" gradientTransform="matrix(0 .7256 -.9389 0 -158.303 147.358)" gradientUnits="userSpaceOnUse"><stop offset=".74" stop-opacity=".8"/><stop offset="1" stop-opacity="0"/></radialGradient><ellipse cx="26" cy="7.5" fill="url(#dLTcP~LBMI17OVLSVXeMJe)" opacity=".4" rx="2" ry="1.5"/><radialGradient id="dLTcP~LBMI17OVLSVXeMJf" cx=".273" cy="8.898" r="1.385" gradientTransform="matrix(.9523 0 0 .8249 25.714 .176)" gradientUnits="userSpaceOnUse"><stop offset=".024" stop-color="#ffd1b5"/><stop offset=".157" stop-color="#ffceb1"/><stop offset=".303" stop-color="#fec6a3"/><stop offset=".454" stop-color="#fdb88e"/><stop offset=".61" stop-color="#fba56f"/><stop offset=".768" stop-color="#f98c48"/><stop offset=".927" stop-color="#f66e19"/><stop offset="1" stop-color="#f55f00"/></radialGradient><ellipse cx="25.974" cy="7.515" fill="url(#dLTcP~LBMI17OVLSVXeMJf)" rx="1.408" ry="1.058"/><radialGradient id="dLTcP~LBMI17OVLSVXeMJg" cx="23.508" cy="8.904" r=".353" gradientTransform="matrix(.8397 0 0 2.3979 6.245 -13.83)" gradientUnits="userSpaceOnUse"><stop offset="0" stop-color="#3d3d3d"/><stop offset="1" stop-color="#212121"/></radialGradient><ellipse cx="25.985" cy="7.52" fill="url(#dLTcP~LBMI17OVLSVXeMJg)" rx=".296" ry=".853"/><ellipse cx="25.664" cy="7.25" fill="#fff" rx=".31" ry=".265"/><ellipse cx="20.5" cy="10.859" fill="#2d6313" rx=".381" ry=".477"/><path fill="#ffff54" d="M29.912,9.443c-0.134,0.752-0.484,1.236-0.928,1.734C30.341,12.596,32,14.763,32,20	c0,2.341-2.433,8-8,8c-5.1,0-10.206-1.651-10.239-1.664c0,0,0.759,0.603,2.191,1.287c0,0,0.494-0.336,0.605-0.286	c-0.173,0.267-0.094,0.521,0.003,0.563c0.644,0.279,1.394,0.56,2.245,0.809c0,0,0.649-0.894,0.795-0.854	c-0.063,0.282-0.09,1.048,0.051,1.083c0.876,0.217,1.843,0.394,2.895,0.504c0,0,0.214-0.987,0.572-1.182	c-0.016,0.488,0.167,1.247,0.309,1.256c0.472,0.03,0.959,0.047,1.461,0.047c0.499,0,0.993-0.037,1.478-0.108	c0,0-0.216-1.113,0.046-1.514c0.17,0.571,0.594,1.4,0.742,1.366c0.971-0.222,1.894-0.585,2.738-1.072c0,0-0.673-1.358-0.58-1.898	c0.201,0.262,1.304,1.438,1.442,1.337c0.88-0.643,1.644-1.436,2.245-2.355c0,0-1.021-0.565-1.604-1.568	c0.466,0.373,2.027,0.934,2.098,0.8c0.534-1.017,0.866-2.155,0.936-3.382c0,0-1.383-0.226-1.961-0.804	c0.728,0.1,1.983,0.204,1.983,0.053c0-0.795-0.054-1.959-0.149-2.658c0,0-1.282-0.172-1.96-0.499c0.753,0,1.83-0.3,1.793-0.479	c-0.177-0.867-0.417-1.653-0.695-2.36c0,0-1.191,0.04-1.842-0.119c0.563-0.176,1.564-0.541,1.498-0.682	c-0.455-0.972-0.97-1.767-1.451-2.392c-0.446,0.254-1.585,0.72-1.682,0.604c0.537-0.322,1.205-1.186,1.12-1.282	C30.414,9.802,29.912,9.443,29.912,9.443z" opacity=".45"/><radialGradient id="dLTcP~LBMI17OVLSVXeMJh" cx="20.775" cy="19.515" r="18.943" gradientTransform="matrix(1 0 0 .8732 0 2.474)" gradientUnits="userSpaceOnUse"><stop offset=".721" stop-color="#67cf36"/><stop offset=".878" stop-color="#449020"/><stop offset="1" stop-color="#2b6310"/></radialGradient><path fill="url(#dLTcP~LBMI17OVLSVXeMJh)" d="M38,20c0,0.025-0.003,0.051-0.003,0.077l-0.104,0.125l-1.416-1.454	c-0.513-0.527-0.585-1.341-0.173-1.95l1.106-1.631l0.046,0.046c0.113,0.487,0.212,0.986,0.291,1.501l-0.145-0.154l-0.067,0.112	c-0.356,0.6-0.267,1.364,0.217,1.866l0.127,0.132l0.064-0.074C37.973,19.057,38,19.52,38,20z M35.184,25.77	c-0.655,0.335-0.984,1.083-0.788,1.792l0.538,1.945c0.344-0.457,0.665-0.928,0.95-1.419l-0.221,0.082l-0.048-0.177	c-0.183-0.673,0.107-1.385,0.708-1.74l0.112-0.066l0.143,0.555c0.193-0.428,0.366-0.864,0.519-1.306l-0.159-0.562L35.184,25.77z M36.63,12.554c-0.188-0.479-0.391-0.939-0.61-1.382l-0.073,0.223l-0.169-0.072c-0.641-0.275-1.019-0.944-0.924-1.635l0.018-0.129	l0.336,0.149c-0.283-0.453-0.578-0.887-0.888-1.29l-0.164-0.068l-0.386,1.932c-0.144,0.721,0.238,1.444,0.916,1.73l1.869,0.79	L36.63,12.554z M9.623,30.695l0.079,0.641c0.288,0.398,0.661,0.746,1.114,1.026l-0.066-0.63l0.184-0.003	c0.697-0.01,1.316,0.447,1.51,1.117l0.036,0.125l-0.359,0.001c0.345,0.141,0.832,0.326,1.442,0.529l-0.37-1.639	c-0.162-0.717-0.806-1.222-1.541-1.207L9.623,30.695z M17.158,34.27l0.167,0.197c0.475,0.089,0.978,0.169,1.499,0.241l-0.155-0.19	l0.152-0.103c0.577-0.391,1.345-0.348,1.875,0.105l0.099,0.085l-0.42,0.277c0.444,0.038,0.898,0.07,1.367,0.09l0.458-0.317	l-1.418-1.368c-0.529-0.511-1.344-0.579-1.951-0.164L17.158,34.27z M26.856,34.363l0.334,0.144c0.511-0.124,1.005-0.267,1.478-0.434	l-0.347-0.158l0.091-0.16c0.344-0.607,1.051-0.909,1.728-0.737l0.126,0.032l-0.286,0.49c0.491-0.231,0.956-0.488,1.4-0.765	l0.168-0.303l-1.877-0.598c-0.701-0.223-1.462,0.077-1.821,0.718L26.856,34.363z"/><radialGradient id="dLTcP~LBMI17OVLSVXeMJi" cx="21.982" cy="29.435" r="22.017" gradientTransform="matrix(1 0 0 .5388 0 13.576)" gradientUnits="userSpaceOnUse"><stop offset=".721" stop-color="#67cf36"/><stop offset=".878" stop-color="#449020"/><stop offset="1" stop-color="#2b6310"/></radialGradient><path fill="url(#dLTcP~LBMI17OVLSVXeMJi)" d="M38.4,37.2c-0.042,0.031-0.123,0.089-0.222,0.156l-0.86-0.143	c-0.367-0.061-0.729,0.131-0.885,0.468l-0.392,0.848c-0.331,0.152-0.702,0.307-1.105,0.465c-0.137-0.293-0.157-0.639-0.011-0.96	l0.658-1.443c0.226-0.496,0.769-0.764,1.3-0.642l1.356,0.311c0.292,0.067,0.523,0.24,0.679,0.463	C38.761,36.892,38.592,37.056,38.4,37.2z M30.632,39.589l-1.663-1.134c-0.425-0.29-0.996-0.241-1.365,0.117l-1.587,1.538	c-0.225,0.218-0.33,0.508-0.325,0.795c0.587-0.038,1.153-0.086,1.697-0.146c0.022-0.054,0.055-0.105,0.1-0.148l0.555-0.533	c0.232-0.223,0.584-0.263,0.86-0.098l0.516,0.308c0.072,0.043,0.119,0.104,0.154,0.172c0.511-0.089,0.994-0.187,1.458-0.291	C30.963,39.945,30.844,39.734,30.632,39.589z M11.654,39.753c0.039-0.227,0.018-0.468-0.089-0.697l-0.769-1.644	c-0.238-0.508-0.8-0.779-1.345-0.649l-1.968,0.471c-0.222,0.053-0.409,0.169-0.558,0.319c0.344,0.415,0.773,0.769,1.285,1.025	c0.005,0.003,0.017,0.008,0.023,0.011c0.071-0.081,0.159-0.149,0.273-0.176l0.764-0.179c0.235-0.055,0.478,0.054,0.594,0.266	l0.281,0.518c0.056,0.104,0.063,0.213,0.049,0.32C10.614,39.471,11.1,39.611,11.654,39.753z M21.103,39.997l-1.064-1.065	c-0.448-0.448-1.148-0.519-1.677-0.171l-1.445,0.952c-0.326,0.214-0.523,0.545-0.581,0.898c0.508,0.063,1.036,0.12,1.594,0.17	c0.037-0.07,0.085-0.134,0.156-0.18l0.749-0.488c0.18-0.117,0.417-0.1,0.577,0.043l0.534,0.473c0.091,0.081,0.131,0.188,0.145,0.297	c0.453,0.022,0.914,0.041,1.395,0.052C21.497,40.628,21.376,40.271,21.103,39.997z"/></svg>