<svg xmlns="http://www.w3.org/2000/svg" viewBox="0 0 48 48"><radialGradient id="ZPRWCdraJH7meBnMZYPoea" cx="7.969" cy="13.14" r="5.253" gradientUnits="userSpaceOnUse"><stop offset=".593" stop-color="#704920"/><stop offset=".796" stop-color="#8c5c2b"/><stop offset="1" stop-color="#a46d35"/></radialGradient><path fill="url(#ZPRWCdraJH7meBnMZYPoea)" d="M3.77,17.324c0.142-0.474-0.508-1.392-0.556-2.056c-0.047-0.663,0.095-1.658,0.426-1.753	c0.332-0.095,1.658,2.51,1.8,2.889L3.77,17.324z"/><radialGradient id="ZPRWCdraJH7meBnMZYPoeb" cx="20.047" cy="22.368" r="7.359" gradientUnits="userSpaceOnUse"><stop offset=".593" stop-color="#704920"/><stop offset=".698" stop-color="#754d22"/><stop offset=".826" stop-color="#845728"/><stop offset=".967" stop-color="#9d6832"/><stop offset="1" stop-color="#a46d35"/></radialGradient><path fill="url(#ZPRWCdraJH7meBnMZYPoeb)" d="M12.67,18.755c1.13,0.161,1.993,1.433,2.007,2.034c0.014,0.601-0.258,2.86-0.195,3.468	c0.063,0.608,0.154,1.37,0.469,1.615c0.315,0.245,1.657,0.636,1.664,0.937c0.007,0.301-0.741,0.993-1.454,0.741	c-0.713-0.252-1.818-1.258-1.86-2.712c-0.042-1.454-0.127-3.314-1.497-3.51c-1.37-0.195-1.783-0.454-2-1.034	S9.978,18.371,12.67,18.755z"/><path fill="#965d21" d="M42.859,28.886C35.47,26.044,32.358,7.425,21.782,7.425c-7.085,0-9.331,9.715-13.025,9.715 c-0.893,0-1.715-0.196-2.322-0.436c0.309-0.675,0.525-1.605,0.569-1.836c0.069-0.367-0.183-1.445-0.413-1.445 s-0.508,0.568-0.669,0.935c-0.725,1.655-1.358,1.832-1.775,2.151c-0.546,0.417-1.737,1.53-2.021,1.956 c-0.284,0.426-0.142,1.089-0.237,1.563c-0.095,0.474-1.184,1.184-1.184,1.753c0,0.426,0.474,0.805,1.421,0.805 s1.327-0.389,1.943-0.863c0.616-0.474,1.557-0.917,2.362-0.917c0.805,0,3.226,1.07,7.158,1.07c2.842,0,5.494-2.7,6.536-2.889 s5.272,0.155,6.821-0.426c1.516-0.568,1.516-1.942,2.274-1.942c1.705,0,4.547,12.41,15.109,14.068 c1.277,0.201,2.747,0.095,2.747-0.237S44.567,29.543,42.859,28.886z"/><path fill="#975e22" d="M0.726,21.771c0.001-0.562,1.083-1.267,1.18-1.742c0.096-0.472-0.047-1.138,0.236-1.563 c0.284-0.427,1.471-1.536,2.012-1.95c0.431-0.332,1.045-0.5,1.766-2.141c0.161-0.365,0.443-0.941,0.669-0.942 c0.228-0.001,0.472,1.073,0.398,1.44c-0.05,0.249-0.267,1.17-0.568,1.837c0.603,0.247,1.432,0.452,2.34,0.452 c3.78,0,5.965-9.677,13.039-9.677c10.572,0,13.631,18.566,21.06,21.411c1.686,0.648,4.174,1.219,4.174,1.546 c0,0.327-1.45,0.432-2.715,0.232c-10.54-1.669-13.373-14.091-15.106-14.091c-0.754,0-0.774,1.413-2.283,1.976 c-1.572,0.582-5.745,0.189-6.787,0.376c-1.037,0.187-3.761,2.891-6.588,2.901c-3.917,0.016-6.335-1.071-7.137-1.071 c-0.801,0-1.726,0.459-2.339,0.931c-0.613,0.471-1.006,0.863-1.941,0.865C1.2,22.564,0.726,22.196,0.726,21.771z"/><path fill="#975e23" d="M0.749,21.761c0.001-0.556,1.077-1.256,1.175-1.731c0.097-0.471-0.047-1.14,0.235-1.562 c0.284-0.427,1.467-1.531,2.002-1.943c0.445-0.343,1.039-0.505,1.756-2.13c0.161-0.363,0.446-0.947,0.669-0.948 c0.226-0.001,0.462,1.067,0.384,1.435c-0.057,0.268-0.275,1.179-0.566,1.837c0.6,0.254,1.435,0.468,2.358,0.468 c3.865,0,5.99-9.64,13.052-9.64c10.567,0,13.573,18.511,21.042,21.361c1.665,0.639,4.132,1.206,4.132,1.529 c-0.001,0.323-1.43,0.427-2.683,0.228c-10.518-1.681-13.342-14.114-15.102-14.114c-0.751,0-0.788,1.456-2.293,2.01 c-1.593,0.587-5.712,0.14-6.753,0.327c-1.033,0.185-3.827,2.893-6.64,2.913c-3.902,0.031-6.318-1.073-7.115-1.073 c-0.798,0-1.706,0.475-2.316,0.945c-0.61,0.469-1.016,0.864-1.94,0.867C1.223,22.542,0.747,22.183,0.749,21.761z"/><path fill="#985f24" d="M0.771,21.751c0.002-0.551,1.071-1.244,1.171-1.72c0.097-0.469-0.046-1.141,0.234-1.562 c0.285-0.428,1.463-1.527,1.992-1.937c0.459-0.355,1.033-0.509,1.747-2.12c0.161-0.361,0.449-0.952,0.669-0.954 c0.225-0.002,0.452,1.062,0.369,1.43c-0.065,0.286-0.282,1.188-0.565,1.838c0.596,0.262,1.438,0.484,2.376,0.484 c3.95,0,6.015-9.602,13.065-9.602c10.562,0,13.515,18.457,21.025,21.31c1.644,0.63,4.091,1.193,4.09,1.512 c-0.001,0.319-1.41,0.422-2.651,0.224c-10.496-1.692-13.31-14.137-15.098-14.137c-0.747,0-0.803,1.497-2.302,2.044 c-1.615,0.59-5.679,0.092-6.72,0.277c-1.028,0.183-3.893,2.895-6.692,2.925c-3.888,0.047-6.3-1.074-7.094-1.074 c-0.794,0-1.686,0.491-2.293,0.958c-0.607,0.467-1.026,0.864-1.938,0.868C1.245,22.52,0.769,22.171,0.771,21.751z"/><path fill="#986025" d="M0.794,21.741c0.003-0.545,1.065-1.232,1.167-1.709c0.098-0.468-0.046-1.143,0.233-1.561 c0.285-0.428,1.458-1.523,1.983-1.93c0.473-0.367,1.028-0.514,1.737-2.11c0.16-0.359,0.452-0.958,0.669-0.96 c0.223-0.002,0.441,1.057,0.355,1.425c-0.072,0.305-0.289,1.197-0.564,1.839c0.592,0.269,1.441,0.5,2.395,0.5 c4.035,0,6.04-9.564,13.079-9.564c10.558,0,13.463,18.387,21.007,21.259c1.624,0.618,4.049,1.181,4.048,1.496 c-0.001,0.315-1.39,0.416-2.619,0.219c-10.474-1.704-13.279-14.161-15.094-14.161c-0.744,0-0.818,1.538-2.312,2.078 c-1.636,0.592-5.645,0.044-6.686,0.227c-1.023,0.181-3.96,2.896-6.743,2.937c-3.874,0.063-6.283-1.076-7.073-1.076 c-0.79,0-1.666,0.507-2.27,0.972c-0.604,0.465-1.035,0.865-1.936,0.87C1.268,22.497,0.79,22.159,0.794,21.741z"/><path fill="#996126" d="M0.816,21.73c0.005-0.539,1.059-1.221,1.162-1.698c0.099-0.467-0.045-1.144,0.232-1.561 c0.285-0.429,1.454-1.519,1.973-1.924c0.487-0.38,1.022-0.518,1.727-2.099c0.16-0.357,0.456-0.964,0.669-0.966 c0.221-0.003,0.43,1.052,0.34,1.42c-0.079,0.323-0.297,1.206-0.563,1.839c0.589,0.276,1.445,0.516,2.413,0.516 c4.121,0,6.065-9.526,13.092-9.526c10.553,0,13.406,18.328,20.989,21.209c1.603,0.609,4.007,1.168,4.006,1.479 c-0.002,0.311-1.37,0.411-2.587,0.215C33.817,28.919,31.022,16.45,29.179,16.45c-0.74,0-0.834,1.578-2.321,2.112 c-1.658,0.595-5.612-0.004-6.653,0.177c-1.019,0.179-4.026,2.898-6.795,2.949c-3.859,0.079-6.266-1.077-7.052-1.077 c-0.787,0-1.646,0.523-2.247,0.986c-0.602,0.463-1.045,0.865-1.934,0.872C1.29,22.475,0.813,22.146,0.816,21.73z"/><path fill="#996127" d="M0.839,21.72c0.006-0.533,1.053-1.209,1.158-1.687c0.1-0.465-0.045-1.145,0.231-1.56 c0.285-0.429,1.45-1.515,1.964-1.917c0.501-0.392,1.017-0.523,1.718-2.089c0.16-0.355,0.459-0.969,0.669-0.973 c0.22-0.003,0.419,1.046,0.325,1.415c-0.087,0.342-0.304,1.215-0.562,1.84c0.585,0.283,1.448,0.532,2.431,0.532 c4.206,0,6.09-9.488,13.105-9.488c10.548,0,13.349,18.27,20.972,21.158c1.582,0.599,3.966,1.155,3.964,1.462 c-0.002,0.306-1.35,0.406-2.555,0.211c-10.43-1.727-13.216-14.207-15.087-14.207c-0.737,0-0.849,1.619-2.331,2.146 c-1.68,0.598-5.578-0.053-6.619,0.127c-1.014,0.177-4.092,2.9-6.847,2.961c-3.845,0.094-6.248-1.079-7.031-1.079 c-0.783,0-1.626,0.539-2.224,0.999c-0.599,0.461-1.055,0.866-1.933,0.874C1.313,22.453,0.834,22.134,0.839,21.72z"/><path fill="#9a6228" d="M0.861,21.71c0.006-0.527,1.048-1.197,1.154-1.676c0.102-0.463-0.045-1.147,0.23-1.56 c0.285-0.429,1.445-1.511,1.954-1.911c0.515-0.404,1.011-0.527,1.708-2.078c0.16-0.353,0.462-0.975,0.668-0.979 c0.218-0.004,0.408,1.041,0.311,1.41c-0.094,0.36-0.311,1.224-0.561,1.841c0.582,0.29,1.451,0.548,2.449,0.548 c4.291,0,6.115-9.451,13.119-9.451c10.543,0,13.293,18.212,20.954,21.108c1.561,0.59,3.924,1.143,3.922,1.445 c-0.002,0.302-1.33,0.403-2.523,0.206c-10.412-1.716-13.185-14.231-15.083-14.231c-0.733,0-0.864,1.659-2.34,2.18 c-1.702,0.601-5.545-0.101-6.586,0.077c-1.01,0.175-4.158,2.902-6.898,2.973c-3.83,0.11-6.231-1.08-7.01-1.08 c-0.779,0-1.606,0.555-2.201,1.013c-0.596,0.458-1.065,0.866-1.931,0.876C1.335,22.43,0.856,22.122,0.861,21.71z"/><path fill="#9a6329" d="M0.883,21.7c0.007-0.521,1.042-1.186,1.149-1.665c0.103-0.462-0.044-1.148,0.229-1.559 c0.285-0.43,1.441-1.507,1.945-1.904c0.529-0.416,1.005-0.532,1.699-2.068c0.16-0.351,0.465-0.981,0.668-0.985 c0.217-0.005,0.396,1.036,0.296,1.405c-0.102,0.379-0.319,1.233-0.56,1.841c0.578,0.297,1.454,0.564,2.468,0.564 c4.377,0,6.14-9.413,13.132-9.413c10.538,0,13.236,18.154,20.937,21.057c1.54,0.581,3.883,1.13,3.88,1.428 c-0.003,0.298-1.31,0.398-2.492,0.202c-10.39-1.725-13.154-14.254-15.079-14.254c-0.73,0-0.879,1.7-2.35,2.214 c-1.724,0.603-5.512-0.149-6.552,0.028c-1.005,0.173-4.225,2.903-6.95,2.985c-3.816,0.126-6.214-1.081-6.989-1.081 c-0.775,0-1.586,0.571-2.179,1.027c-0.593,0.456-1.075,0.867-1.929,0.877C1.358,22.408,0.878,22.11,0.883,21.7z"/><path fill="#9b642a" d="M0.906,21.689c0.008-0.515,1.036-1.174,1.145-1.654c0.104-0.461-0.044-1.15,0.228-1.559 c0.285-0.43,1.436-1.504,1.935-1.898c0.543-0.428,0.996-0.538,1.689-2.058c0.159-0.349,0.468-0.986,0.668-0.991 c0.215-0.005,0.384,1.03,0.282,1.4c-0.11,0.397-0.326,1.242-0.559,1.842c0.575,0.304,1.457,0.58,2.486,0.58 c4.462,0,6.165-9.375,13.145-9.375c10.534,0,13.18,18.096,20.919,21.006c1.519,0.571,3.841,1.117,3.838,1.411 c-0.003,0.294-1.29,0.393-2.46,0.198C33.855,28.86,31.101,16.316,29.148,16.316c-0.726,0-0.895,1.74-2.359,2.248 c-1.746,0.606-5.478-0.197-6.518-0.022c-1,0.171-4.291,2.905-7.002,2.997C9.467,21.68,7.072,20.456,6.3,20.456 c-0.772,0-1.566,0.586-2.156,1.04c-0.59,0.454-1.085,0.867-1.928,0.879C1.38,22.385,0.899,22.097,0.906,21.689z"/><path fill="#9b642b" d="M0.928,21.679c0.009-0.509,1.031-1.162,1.141-1.643c0.105-0.459-0.043-1.151,0.227-1.558 c0.286-0.431,1.431-1.5,1.926-1.891c0.556-0.44,0.991-0.543,1.68-2.047c0.159-0.347,0.471-0.992,0.668-0.997 c0.214-0.006,0.372,1.025,0.267,1.396c-0.118,0.416-0.333,1.251-0.558,1.842c0.571,0.312,1.461,0.596,2.504,0.596 c4.547,0,6.19-9.337,13.159-9.337c10.529,0,13.123,18.038,20.901,20.956c1.498,0.562,3.799,1.105,3.796,1.394 c-0.003,0.29-1.27,0.388-2.428,0.193C33.865,28.841,31.121,16.282,29.14,16.282c-0.723,0-0.91,1.781-2.369,2.282 c-1.768,0.608-5.445-0.245-6.485-0.072c-0.996,0.169-4.357,2.907-7.053,3.009c-3.787,0.157-6.179-1.084-6.947-1.084 c-0.768,0-1.546,0.602-2.133,1.054c-0.587,0.452-1.095,0.868-1.926,0.881C1.403,22.363,0.921,22.085,0.928,21.679z"/><path fill="#9c652c" d="M0.951,21.669c0.01-0.503,1.025-1.151,1.136-1.632c0.106-0.458-0.043-1.153,0.226-1.558 c0.286-0.431,1.427-1.496,1.916-1.885c0.57-0.452,0.985-0.547,1.67-2.037c0.159-0.345,0.475-0.998,0.668-1.004 c0.212-0.006,0.36,1.019,0.253,1.391c-0.125,0.434-0.341,1.26-0.557,1.843C6.831,17.107,7.727,17.4,8.785,17.4 c4.632,0,6.215-9.299,13.172-9.299c10.524,0,13.066,17.98,20.884,20.905c1.477,0.553,3.758,1.092,3.754,1.378 c-0.004,0.285-1.25,0.383-2.396,0.189c-10.325-1.751-13.06-14.324-15.068-14.324c-0.719,0-0.926,1.821-2.378,2.316 c-1.791,0.611-5.412-0.294-6.451-0.122c-0.991,0.167-4.424,2.903-7.105,3.021c-3.773,0.165-6.162-1.086-6.926-1.086 c-0.764,0-1.525,0.618-2.11,1.068c-0.585,0.45-1.105,0.868-1.924,0.883C1.425,22.341,0.943,22.073,0.951,21.669z"/><path fill="#9d662d" d="M0.973,21.659c0.011-0.497,1.019-1.139,1.132-1.621c0.107-0.456-0.043-1.154,0.225-1.557 c0.286-0.432,1.422-1.493,1.907-1.878c0.584-0.465,0.979-0.552,1.661-2.027c0.158-0.343,0.478-1.003,0.668-1.01 c0.21-0.007,0.348,1.014,0.238,1.386c-0.133,0.452-0.348,1.269-0.556,1.844c0.564,0.326,1.467,0.628,2.541,0.628 c4.718,0,6.24-9.261,13.185-9.261c10.519,0,13.009,17.922,20.866,20.854c1.456,0.543,3.716,1.079,3.712,1.361 c-0.004,0.281-1.23,0.378-2.364,0.185c-10.304-1.76-13.028-14.347-15.064-14.347c-0.716,0-0.941,1.861-2.388,2.35 c-1.813,0.613-5.378-0.342-6.418-0.172c-0.986,0.165-4.49,2.905-7.157,3.033c-3.758,0.181-6.145-1.087-6.905-1.087 c-0.761,0-1.505,0.634-2.087,1.082c-0.582,0.447-1.115,0.869-1.922,0.884C1.448,22.318,0.964,22.06,0.973,21.659z"/><path fill="#9d672e" d="M0.996,21.648c0.012-0.491,1.013-1.127,1.128-1.61c0.108-0.455-0.042-1.155,0.224-1.557 c0.286-0.432,1.418-1.489,1.897-1.871c0.598-0.477,0.973-0.556,1.651-2.016c0.158-0.341,0.481-1.009,0.668-1.016 c0.209-0.008,0.336,1.008,0.224,1.381c-0.142,0.471-0.355,1.278-0.555,1.844c0.56,0.333,1.47,0.644,2.559,0.644 c4.803,0,6.264-9.224,13.199-9.224c10.515,0,12.953,17.865,20.849,20.804c1.435,0.534,3.675,1.067,3.67,1.344 c-0.004,0.277-1.21,0.373-2.332,0.18c-10.282-1.769-12.997-14.371-15.06-14.371c-0.712,0-0.957,1.901-2.397,2.384 c-1.835,0.616-5.345-0.39-6.384-0.222c-0.982,0.163-4.556,2.906-7.209,3.045C9.383,21.584,6.999,20.3,6.242,20.3 c-0.757,0-1.485,0.65-2.064,1.095c-0.579,0.445-1.125,0.869-1.921,0.886C1.471,22.296,0.986,22.048,0.996,21.648z"/><path fill="#9e672f" d="M1.018,21.638c0.012-0.485,1.007-1.116,1.123-1.599c0.109-0.453-0.042-1.157,0.223-1.556 c0.286-0.433,1.413-1.486,1.888-1.865c0.612-0.489,0.967-0.561,1.642-2.006c0.158-0.339,0.484-1.015,0.668-1.022 c0.207-0.008,0.324,1.002,0.209,1.376c-0.15,0.489-0.363,1.287-0.554,1.845c0.557,0.34,1.473,0.66,2.577,0.66 c4.888,0,6.289-9.186,13.212-9.186c10.51,0,12.896,17.807,20.831,20.753c1.414,0.525,3.633,1.054,3.628,1.327 c-0.004,0.273-1.19,0.368-2.3,0.176C33.904,28.763,31.2,16.147,29.109,16.147c-0.709,0-0.972,1.941-2.407,2.419 c-1.857,0.618-5.312-0.441-6.351-0.271c-0.977,0.159-4.622,2.907-7.26,3.057c-3.73,0.211-6.11-1.09-6.863-1.09 c-0.753,0-1.465,0.666-2.041,1.109c-0.576,0.443-1.134,0.869-1.919,0.888C1.493,22.274,1.008,22.036,1.018,21.638z"/><path fill="#9e6830" d="M1.04,21.628c0.013-0.479,1.001-1.104,1.119-1.588c0.11-0.452-0.042-1.158,0.222-1.556 c0.286-0.433,1.408-1.482,1.878-1.858c0.626-0.501,0.961-0.566,1.632-1.996c0.158-0.336,0.487-1.021,0.668-1.028 c0.206-0.009,0.311,0.997,0.195,1.371c-0.158,0.508-0.37,1.296-0.553,1.846c0.553,0.347,1.477,0.676,2.595,0.676 c4.973,0,6.314-9.148,13.225-9.148c10.505,0,12.839,17.749,20.813,20.703c1.392,0.516,3.591,1.041,3.586,1.31 c-0.005,0.269-1.17,0.363-2.268,0.172c-10.239-1.787-12.934-14.417-15.052-14.417c-0.705,0-0.988,1.981-2.416,2.453 c-1.879,0.62-5.279-0.489-6.317-0.321c-0.973,0.157-4.689,2.909-7.312,3.069c-3.715,0.226-6.093-1.092-6.842-1.092 c-0.749,0-1.445,0.682-2.018,1.123c-0.573,0.441-1.144,0.87-1.917,0.89C1.516,22.251,1.029,22.024,1.04,21.628z"/><path fill="#9f6931" d="M1.063,21.618c0.014-0.473,0.995-1.092,1.115-1.577c0.111-0.45-0.041-1.16,0.221-1.555 c0.286-0.433,1.404-1.479,1.868-1.852c0.639-0.514,0.955-0.57,1.623-1.985c0.158-0.334,0.49-1.026,0.668-1.035 c0.204-0.01,0.299,0.991,0.18,1.366c-0.166,0.526-0.377,1.305-0.552,1.846c0.55,0.355,1.48,0.692,2.614,0.692 c5.059,0,6.339-9.11,13.239-9.11c10.5,0,12.782,17.692,20.796,20.652c1.371,0.507,3.55,1.029,3.545,1.293 c-0.005,0.264-1.15,0.358-2.236,0.167C33.924,28.724,31.239,16.08,29.093,16.08c-0.702,0-1.003,2.021-2.426,2.487 c-1.901,0.622-5.245-0.537-6.283-0.371c-0.968,0.155-4.755,2.91-7.364,3.081c-3.701,0.242-6.075-1.093-6.821-1.093 c-0.746,0-1.425,0.698-1.996,1.136c-0.57,0.439-1.154,0.87-1.915,0.892C1.538,22.229,1.051,22.011,1.063,21.618z"/><path fill="#9f6a32" d="M1.085,21.607c0.015-0.467,0.989-1.081,1.11-1.566c0.112-0.449-0.041-1.161,0.22-1.555 c0.286-0.434,1.399-1.475,1.859-1.845c0.653-0.526,0.949-0.575,1.613-1.975c0.158-0.332,0.494-1.032,0.667-1.041 c0.203-0.01,0.286,0.986,0.166,1.361c-0.175,0.544-0.385,1.314-0.551,1.847c0.546,0.362,1.483,0.708,2.632,0.708 c5.144,0,6.364-9.072,13.252-9.072c10.495,0,12.725,17.634,20.778,20.601c1.35,0.497,3.508,1.016,3.503,1.276 c-0.005,0.26-1.13,0.353-2.204,0.163c-10.196-1.805-12.871-14.464-15.045-14.464c-0.698,0-1.019,2.061-2.436,2.521 c-1.924,0.624-5.212-0.586-6.25-0.421c-0.963,0.153-4.821,2.912-7.415,3.092c-3.686,0.257-6.058-1.095-6.8-1.095 c-0.742,0-1.405,0.714-1.973,1.15c-0.567,0.436-1.164,0.871-1.914,0.893C1.561,22.207,1.073,21.999,1.085,21.607z"/><path fill="#a06a33" d="M1.108,21.597c0.016-0.461,0.983-1.069,1.106-1.555c0.113-0.447-0.04-1.163,0.219-1.554 c0.287-0.434,1.394-1.472,1.849-1.839c0.667-0.538,0.944-0.58,1.604-1.964c0.157-0.33,0.497-1.038,0.667-1.047 c0.201-0.011,0.274,0.98,0.151,1.356c-0.183,0.562-0.392,1.323-0.55,1.848c0.542,0.369,1.486,0.724,2.65,0.724 c5.229,0,6.389-9.035,13.265-9.035c10.491,0,12.668,17.577,20.76,20.551c1.329,0.488,3.466,1.003,3.461,1.26 c-0.006,0.256-1.11,0.348-2.172,0.159c-10.174-1.815-12.84-14.487-15.041-14.487c-0.695,0-1.035,2.101-2.445,2.555 c-1.946,0.627-5.179-0.634-6.216-0.471c-0.959,0.151-4.888,2.913-7.467,3.104c-3.672,0.272-6.041-1.096-6.779-1.096 c-0.738,0-1.385,0.729-1.95,1.164c-0.565,0.434-1.174,0.871-1.912,0.895C1.583,22.184,1.094,21.987,1.108,21.597z"/><path fill="#a06b34" d="M1.13,21.587c0.017-0.455,0.977-1.057,1.102-1.544c0.114-0.446-0.04-1.164,0.218-1.554 c0.287-0.435,1.389-1.468,1.84-1.832c0.681-0.55,0.938-0.584,1.594-1.954c0.157-0.328,0.5-1.044,0.667-1.053 c0.199-0.011,0.261,0.974,0.137,1.351c-0.192,0.581-0.399,1.332-0.549,1.848c0.539,0.376,1.489,0.74,2.668,0.74 c5.314,0,6.414-8.997,13.279-8.997c10.486,0,12.611,17.519,20.743,20.5c1.308,0.479,3.425,0.991,3.419,1.243 c-0.006,0.252-1.09,0.343-2.14,0.154C33.955,28.665,31.298,15.979,29.07,15.979c-0.691,0-1.05,2.14-2.455,2.589 c-1.968,0.629-5.145-0.682-6.183-0.521c-0.954,0.149-4.954,2.915-7.519,3.116c-3.658,0.288-6.023-1.098-6.758-1.098 c-0.735,0-1.365,0.745-1.927,1.177c-0.562,0.432-1.184,0.873-1.91,0.897C1.606,22.163,1.116,21.974,1.13,21.587z"/><path fill="#a16c35" d="M1.153,21.577c0.017-0.449,0.971-1.046,1.097-1.533c0.115-0.444-0.04-1.165,0.217-1.553 c0.287-0.435,1.385-1.465,1.83-1.826c0.695-0.563,0.932-0.589,1.584-1.944c0.157-0.326,0.503-1.05,0.667-1.059 c0.198-0.012,0.248,0.969,0.122,1.347c-0.2,0.599-0.407,1.341-0.548,1.849c0.535,0.383,1.493,0.756,2.687,0.756 c5.4,0,6.439-8.959,13.292-8.959c10.481,0,12.554,17.462,20.725,20.449c1.287,0.47,3.383,0.978,3.377,1.226 c-0.006,0.248-1.07,0.338-2.108,0.15c-10.131-1.834-12.777-14.534-15.033-14.534c-0.688,0-1.066,2.18-2.464,2.623 c-1.99,0.63-5.112-0.73-6.149-0.57c-0.949,0.147-5.02,2.916-7.57,3.128c-3.643,0.303-6.006-1.099-6.737-1.099 c-0.731,0-1.345,0.761-1.904,1.191c-0.559,0.43-1.194,0.874-1.908,0.899C1.628,22.141,1.138,21.962,1.153,21.577z"/><path fill="#a16c36" d="M1.175,21.566c0.018-0.443,0.965-1.034,1.093-1.522c0.116-0.443-0.039-1.167,0.216-1.553 c0.287-0.436,1.38-1.461,1.821-1.819c0.708-0.575,0.926-0.593,1.575-1.933c0.157-0.324,0.506-1.055,0.667-1.066 c0.196-0.013,0.236,0.963,0.107,1.342c-0.209,0.617-0.414,1.35-0.547,1.85c0.532,0.39,1.496,0.772,2.705,0.772 c5.485,0,6.464-8.921,13.305-8.921c10.476,0,12.497,17.405,20.708,20.399c1.265,0.461,3.342,0.965,3.335,1.209 c-0.007,0.244-1.05,0.333-2.076,0.146c-10.109-1.844-12.746-14.557-15.029-14.557c-0.684,0-1.082,2.219-2.474,2.657 c-2.013,0.632-5.079-0.779-6.116-0.62c-0.945,0.144-5.087,2.918-7.622,3.14c-3.629,0.318-5.989-1.101-6.716-1.101 c-0.727,0-1.325,0.777-1.881,1.205c-0.556,0.428-1.204,0.874-1.907,0.901C1.651,22.119,1.159,21.95,1.175,21.566z"/><path fill="#a26d37" d="M1.197,21.556c0.019-0.437,0.959-1.023,1.089-1.511c0.117-0.442-0.039-1.168,0.215-1.552 c0.287-0.436,1.375-1.458,1.811-1.813c0.722-0.587,0.921-0.598,1.565-1.923c0.157-0.322,0.509-1.061,0.667-1.072 c0.195-0.013,0.223,0.957,0.093,1.337c-0.218,0.635-0.421,1.359-0.546,1.85c0.528,0.398,1.499,0.788,2.723,0.788 c5.57,0,6.489-8.883,13.319-8.883c10.471,0,12.44,17.348,20.69,20.348c1.244,0.453,3.3,0.952,3.293,1.192 c-0.007,0.239-1.029,0.328-2.044,0.141c-10.088-1.853-12.715-14.581-15.026-14.581c-0.681,0-1.097,2.259-2.483,2.691 c-2.035,0.634-5.045-0.827-6.082-0.67c-0.94,0.142-5.153,2.919-7.674,3.152c-3.615,0.334-5.971-1.102-6.695-1.102 c-0.723,0-1.305,0.793-1.858,1.219c-0.553,0.426-1.214,0.875-1.905,0.902C1.673,22.096,1.181,21.938,1.197,21.556z"/><path fill="#a36e38" d="M1.22,21.546c0.02-0.431,0.953-1.011,1.084-1.5c0.118-0.44-0.038-1.17,0.214-1.552 c0.287-0.436,1.37-1.455,1.802-1.806c0.736-0.6,0.915-0.603,1.556-1.913c0.157-0.32,0.513-1.067,0.667-1.078 c0.193-0.014,0.21,0.951,0.078,1.332c-0.227,0.653-0.429,1.368-0.545,1.851c0.525,0.405,1.502,0.804,2.741,0.804 c5.655,0,6.514-8.846,13.332-8.846c10.467,0,12.383,17.291,20.672,20.298c1.223,0.444,3.258,0.94,3.251,1.175 c-0.007,0.235-1.009,0.323-2.012,0.137c-10.066-1.863-12.683-14.604-15.022-14.604c-0.677,0-1.113,2.298-2.493,2.725 c-2.058,0.636-5.012-0.875-6.048-0.72c-0.936,0.14-5.219,2.921-7.725,3.164c-3.6,0.349-5.954-1.103-6.674-1.103 c-0.72,0-1.285,0.809-1.835,1.232c-0.55,0.423-1.223,0.875-1.903,0.904C1.696,22.074,1.203,21.925,1.22,21.546z"/><path fill="#a36f39" d="M1.242,21.536c0.02-0.425,0.947-0.999,1.08-1.489c0.119-0.439-0.038-1.171,0.213-1.551 c0.287-0.437,1.366-1.451,1.792-1.8c0.749-0.612,0.909-0.607,1.546-1.902c0.156-0.318,0.516-1.073,0.667-1.084 c0.192-0.015,0.198,0.946,0.064,1.327c-0.236,0.671-0.436,1.377-0.544,1.851c0.521,0.412,1.505,0.82,2.76,0.82 c5.741,0,6.539-8.808,13.345-8.808c10.462,0,12.326,17.234,20.655,20.247c1.202,0.435,3.217,0.927,3.209,1.158 c-0.008,0.231-0.989,0.317-1.98,0.133C34.005,28.564,31.397,15.81,29.031,15.81c-0.674,0-1.129,2.338-2.502,2.759 c-2.08,0.638-4.979-0.924-6.015-0.77c-0.931,0.138-5.285,2.923-7.777,3.176C9.151,21.34,6.8,19.871,6.084,19.871 c-0.716,0-1.265,0.825-1.812,1.246c-0.548,0.421-1.233,0.876-1.902,0.906C1.718,22.052,1.224,21.913,1.242,21.536z"/><path fill="#a46f3a" d="M1.265,21.525c0.021-0.419,0.941-0.988,1.076-1.478c0.12-0.437-0.038-1.173,0.212-1.551 c0.288-0.437,1.361-1.448,1.783-1.793c0.763-0.625,0.903-0.612,1.537-1.892c0.156-0.316,0.519-1.079,0.667-1.091 c0.19-0.015,0.185,0.94,0.049,1.322c-0.245,0.69-0.443,1.386-0.543,1.852c0.518,0.419,1.509,0.836,2.778,0.836 c5.826,0,6.564-8.77,13.359-8.77c10.457,0,12.268,17.177,20.637,20.196c1.181,0.426,3.175,0.914,3.167,1.141 c-0.008,0.227-0.969,0.312-1.948,0.128c-10.022-1.884-12.621-14.65-15.014-14.65c-0.67,0-1.144,2.377-2.512,2.793 c-2.102,0.639-4.945-0.972-5.981-0.82c-0.926,0.136-5.352,2.924-7.829,3.188c-3.571,0.38-5.92-1.106-6.632-1.106 c-0.712,0-1.245,0.841-1.79,1.26c-0.545,0.419-1.243,0.876-1.9,0.908C1.741,22.029,1.246,21.901,1.265,21.525z"/><path fill="#a4703b" d="M1.287,21.515c0.022-0.413,0.935-0.976,1.071-1.467c0.121-0.436-0.037-1.174,0.211-1.55 c0.288-0.438,1.356-1.444,1.773-1.787c0.777-0.637,0.898-0.616,1.527-1.881c0.156-0.314,0.522-1.084,0.667-1.097 c0.189-0.016,0.172,0.934,0.035,1.317c-0.254,0.708-0.451,1.395-0.542,1.853c0.514,0.426,1.512,0.852,2.796,0.852 c5.911,0,6.589-8.732,13.372-8.732c10.452,0,12.211,17.121,20.62,20.146c1.159,0.417,3.134,0.902,3.125,1.125 c-0.008,0.223-0.949,0.307-1.916,0.124c-10.001-1.894-12.589-14.674-15.01-14.674c-0.667,0-1.16,2.417-2.521,2.827 c-2.125,0.641-4.912-1.02-5.948-0.869c-0.922,0.134-5.418,2.926-7.881,3.2c-3.557,0.396-5.902-1.108-6.611-1.108 c-0.709,0-1.225,0.857-1.767,1.273c-0.542,0.417-1.253,0.877-1.898,0.909C1.763,22.007,1.267,21.888,1.287,21.515z"/><path fill="#a5713c" d="M1.31,21.505c0.023-0.407,0.929-0.964,1.067-1.456c0.122-0.434-0.037-1.175,0.21-1.55 c0.288-0.438,1.351-1.441,1.764-1.78c0.79-0.65,0.892-0.621,1.518-1.871c0.156-0.312,0.525-1.09,0.667-1.103 c0.187-0.017,0.159,0.928,0.02,1.312c-0.263,0.726-0.458,1.404-0.541,1.853c0.51,0.433,1.515,0.868,2.814,0.868 c5.996,0,6.614-8.694,13.385-8.694c10.448,0,12.154,17.064,20.602,20.095c1.138,0.408,3.092,0.889,3.083,1.108 c-0.009,0.218-0.929,0.302-1.884,0.12c-9.979-1.904-12.558-14.697-15.007-14.697c-0.663,0-1.176,2.456-2.531,2.861 c-2.147,0.642-4.879-1.068-5.914-0.919c-0.917,0.132-5.484,2.928-7.932,3.212c-3.543,0.412-5.885-1.109-6.59-1.109 c-0.705,0-1.205,0.872-1.744,1.287c-0.539,0.415-1.263,0.877-1.896,0.911C1.786,21.985,1.289,21.876,1.31,21.505z"/><path fill="#a5723d" d="M1.332,21.495c0.023-0.401,0.923-0.953,1.063-1.445c0.123-0.433-0.037-1.177,0.209-1.549 c0.288-0.439,1.346-1.438,1.754-1.774c0.804-0.662,0.886-0.625,1.508-1.861c0.156-0.309,0.528-1.096,0.666-1.109 c0.186-0.017,0.146,0.923,0.006,1.307c-0.272,0.744-0.466,1.413-0.54,1.854c0.507,0.44,1.518,0.884,2.833,0.884 c6.082,0,6.639-8.656,13.399-8.656c10.443,0,12.096,17.008,20.584,20.045c1.117,0.4,3.05,0.876,3.041,1.091 c-0.009,0.214-0.909,0.297-1.852,0.115C34.046,28.481,31.476,15.676,29,15.676c-0.66,0-1.192,2.495-2.54,2.895 c-2.17,0.644-4.845-1.117-5.881-0.969c-0.912,0.13-5.551,2.929-7.984,3.224c-3.528,0.427-5.868-1.111-6.569-1.111 c-0.701,0-1.185,0.888-1.721,1.301c-0.536,0.412-1.273,0.878-1.895,0.913C1.809,21.962,1.311,21.864,1.332,21.495z"/><path fill="#a6723d" d="M1.354,21.484c0.024-0.395,0.917-0.941,1.058-1.434c0.124-0.431-0.036-1.178,0.208-1.549 c0.288-0.439,1.341-1.434,1.744-1.767c0.818-0.675,0.881-0.63,1.499-1.85c0.156-0.307,0.532-1.102,0.666-1.115 c0.184-0.018,0.134,0.917-0.009,1.302c-0.281,0.762-0.473,1.422-0.538,1.855c0.503,0.448,1.521,0.9,2.851,0.9 c6.167,0,6.663-8.619,13.412-8.619c10.438,0,12.039,16.952,20.567,19.994c1.096,0.391,3.009,0.864,2.999,1.074 c-0.009,0.21-0.889,0.291-1.82,0.111c-9.935-1.926-12.495-14.744-14.999-14.744c-0.656,0-1.208,2.534-2.55,2.929 c-2.192,0.645-4.812-1.165-5.847-1.019c-0.908,0.128-5.617,2.931-8.036,3.236c-3.514,0.443-5.85-1.112-6.548-1.112 c-0.697,0-1.165,0.904-1.698,1.314c-0.533,0.41-1.283,0.878-1.893,0.915C1.831,21.94,1.332,21.852,1.354,21.484z"/><path fill="#a6733e" d="M1.377,21.474c0.025-0.389,0.911-0.929,1.054-1.423c0.125-0.43-0.036-1.18,0.207-1.549 c0.288-0.44,1.337-1.431,1.735-1.761c0.831-0.687,0.875-0.634,1.489-1.84c0.156-0.305,0.535-1.108,0.666-1.122 c0.182-0.019,0.121,0.911-0.023,1.298c-0.291,0.779-0.48,1.431-0.537,1.855c0.5,0.455,1.525,0.916,2.869,0.916 c6.252,0,6.688-8.581,13.425-8.581c10.433,0,11.981,16.896,20.549,19.943c1.074,0.382,2.967,0.851,2.957,1.057 c-0.01,0.206-0.869,0.286-1.788,0.107c-9.913-1.936-12.464-14.767-14.995-14.767c-0.653,0-1.223,2.573-2.559,2.963 c-2.215,0.646-4.779-1.213-5.813-1.069c-0.903,0.126-5.683,2.933-8.087,3.248c-3.5,0.459-5.833-1.114-6.527-1.114 c-0.694,0-1.145,0.92-1.675,1.328c-0.531,0.408-1.293,0.879-1.891,0.917C1.854,21.918,1.354,21.839,1.377,21.474z"/><path fill="#a7743f" d="M1.399,21.464c0.025-0.383,0.905-0.918,1.05-1.412c0.125-0.429-0.035-1.181,0.206-1.548 c0.288-0.44,1.332-1.428,1.725-1.754c0.845-0.7,0.869-0.639,1.48-1.83c0.155-0.303,0.538-1.114,0.666-1.128 c0.181-0.02,0.108,0.905-0.038,1.293c-0.3,0.797-0.488,1.44-0.536,1.856c0.496,0.462,1.528,0.932,2.887,0.932 c6.337,0,6.713-8.543,13.439-8.543c10.428,0,11.924,16.84,20.531,19.893c1.053,0.373,2.926,0.838,2.916,1.04 c-0.01,0.202-0.849,0.281-1.757,0.102c-9.892-1.947-12.433-14.79-14.991-14.79c-0.649,0-1.239,2.613-2.569,2.997 c-2.237,0.647-4.745-1.261-5.78-1.119c-0.898,0.124-5.75,2.935-8.139,3.26c-3.485,0.474-5.816-1.115-6.506-1.115 c-0.69,0-1.125,0.936-1.652,1.342c-0.528,0.406-1.303,0.879-1.889,0.918C1.876,21.895,1.375,21.827,1.399,21.464z"/><path fill="#a77540" d="M1.422,21.454c0.026-0.377,0.899-0.906,1.045-1.401c0.126-0.427-0.035-1.183,0.205-1.548 c0.288-0.44,1.327-1.425,1.716-1.748c0.858-0.712,0.864-0.644,1.47-1.819c0.155-0.301,0.541-1.12,0.666-1.134 c0.179-0.02,0.095,0.9-0.052,1.288c-0.31,0.815-0.495,1.449-0.535,1.857c0.493,0.469,1.531,0.948,2.906,0.948 c6.423,0,6.738-8.505,13.452-8.505c10.424,0,11.866,16.784,20.514,19.842c1.032,0.365,2.884,0.826,2.874,1.023 c-0.01,0.197-0.829,0.276-1.725,0.098c-9.87-1.959-12.401-14.814-14.988-14.814c-0.646,0-1.255,2.652-2.578,3.031 c-2.26,0.648-4.712-1.31-5.746-1.168c-0.894,0.122-5.816,2.936-8.191,3.272c-3.471,0.49-5.798-1.117-6.485-1.117 c-0.686,0-1.105,0.952-1.629,1.356c-0.525,0.404-1.312,0.88-1.888,0.92C1.899,21.873,1.397,21.815,1.422,21.454z"/><path fill="#a87541" d="M1.444,21.443c0.027-0.371,0.893-0.895,1.041-1.39c0.127-0.426-0.035-1.184,0.204-1.547 c0.289-0.441,1.322-1.421,1.706-1.741c0.872-0.725,0.858-0.648,1.46-1.809c0.155-0.299,0.544-1.126,0.666-1.14 c0.178-0.021,0.082,0.894-0.067,1.283c-0.319,0.833-0.502,1.458-0.534,1.857c0.489,0.476,1.534,0.964,2.924,0.964 c6.508,0,6.763-8.467,13.465-8.467c10.419,0,11.808,16.729,20.496,19.791c1.01,0.356,2.842,0.813,2.832,1.007 c-0.011,0.193-0.809,0.27-1.693,0.094c-9.848-1.97-12.37-14.837-14.984-14.837c-0.642,0-1.271,2.691-2.588,3.065 c-2.283,0.649-4.679-1.358-5.713-1.218c-0.889,0.12-5.882,2.938-8.242,3.284c-3.456,0.506-5.781-1.118-6.464-1.118 c-0.683,0-1.085,0.968-1.606,1.369c-0.522,0.402-1.322,0.88-1.886,0.922C1.921,21.851,1.418,21.803,1.444,21.443z"/><path fill="#a87642" d="M1.467,21.433c0.027-0.365,0.887-0.883,1.037-1.379c0.128-0.424-0.034-1.185,0.203-1.547 c0.289-0.441,1.317-1.418,1.697-1.734c0.885-0.738,0.853-0.653,1.451-1.798c0.155-0.297,0.548-1.132,0.666-1.146 c0.176-0.022,0.069,0.888-0.082,1.278c-0.329,0.851-0.51,1.467-0.533,1.858c0.485,0.483,1.537,0.98,2.942,0.98 c6.593,0,6.788-8.43,13.479-8.43c10.414,0,11.751,16.673,20.479,19.741c0.989,0.348,2.801,0.8,2.79,0.99 c-0.011,0.189-0.789,0.265-1.661,0.089c-9.826-1.981-12.338-14.86-14.98-14.86c-0.639,0-1.287,2.73-2.597,3.099 c-2.305,0.65-4.645-1.406-5.679-1.268c-0.884,0.118-5.948,2.94-8.294,3.296c-3.442,0.522-5.764-1.12-6.443-1.12 c-0.679,0-1.064,0.984-1.584,1.383c-0.519,0.399-1.332,0.881-1.884,0.924C1.944,21.828,1.44,21.79,1.467,21.433z"/><path fill="#a97743" d="M1.489,21.423c0.028-0.359,0.881-0.871,1.032-1.368c0.129-0.423-0.034-1.187,0.202-1.546 c0.289-0.442,1.312-1.415,1.687-1.728c0.899-0.75,0.847-0.657,1.441-1.788c0.155-0.295,0.551-1.138,0.666-1.153 c0.175-0.023,0.056,0.882-0.096,1.273c-0.338,0.869-0.517,1.476-0.532,1.858c0.482,0.491,1.541,0.996,2.96,0.996 c6.678,0,6.813-8.392,13.492-8.392c10.409,0,11.693,16.618,20.461,19.69c0.968,0.339,2.759,0.788,2.748,0.973 c-0.011,0.185-0.769,0.26-1.629,0.085C34.118,28.33,31.614,15.44,28.945,15.44c-0.635,0-1.303,2.769-2.607,3.133 c-2.328,0.651-4.612-1.454-5.645-1.318c-0.88,0.116-6.015,2.942-8.346,3.308c-3.428,0.538-5.746-1.121-6.422-1.121 c-0.675,0-1.044,0.999-1.561,1.397c-0.516,0.397-1.342,0.881-1.882,0.926C1.966,21.806,1.461,21.778,1.489,21.423z"/><path fill="#aa7844" d="M1.511,21.413c0.029-0.353,0.875-0.86,1.028-1.357c0.13-0.421-0.033-1.188,0.201-1.546 c0.289-0.442,1.307-1.412,1.678-1.721c0.912-0.763,0.842-0.661,1.432-1.778c0.155-0.293,0.554-1.144,0.666-1.159 c0.173-0.023,0.043,0.876-0.111,1.268c-0.348,0.886-0.524,1.485-0.531,1.859c0.478,0.498,1.544,1.012,2.979,1.012 c6.764,0,6.838-8.354,13.505-8.354c10.404,0,11.635,16.563,20.443,19.64c0.946,0.33,2.717,0.775,2.706,0.956 c-0.012,0.181-0.749,0.254-1.597,0.08c-9.782-2.005-12.276-14.907-14.972-14.907c-0.632,0-1.319,2.807-2.617,3.167 c-2.35,0.652-4.578-1.502-5.612-1.368c-0.875,0.114-6.081,2.944-8.398,3.32c-3.413,0.554-5.729-1.123-6.401-1.123 c-0.671,0-1.024,1.015-1.538,1.41c-0.513,0.395-1.352,0.882-1.881,0.927C1.989,21.784,1.483,21.766,1.511,21.413z"/><path fill="#aa7845" d="M1.534,21.402c0.029-0.347,0.868-0.848,1.024-1.346c0.131-0.42-0.033-1.19,0.2-1.545 c0.289-0.443,1.302-1.408,1.668-1.715c0.925-0.776,0.836-0.666,1.422-1.767c0.155-0.291,0.557-1.15,0.666-1.165 c0.172-0.024,0.03,0.87-0.125,1.263c-0.358,0.904-0.532,1.494-0.53,1.86c0.475,0.505,1.547,1.028,2.997,1.028 c6.849,0,6.863-8.316,13.519-8.316c10.4,0,11.577,16.509,20.426,19.589c0.925,0.322,2.676,0.762,2.664,0.939 c-0.012,0.176-0.729,0.249-1.565,0.076c-9.76-2.017-12.244-14.93-14.968-14.93c-0.628,0-1.335,2.846-2.626,3.201 c-2.373,0.652-4.545-1.551-5.578-1.418c-0.87,0.112-6.147,2.946-8.449,3.331c-3.399,0.57-5.712-1.124-6.38-1.124 c-0.668,0-1.004,1.031-1.515,1.424C3.871,21.18,3.02,21.67,2.503,21.717C2.011,21.761,1.504,21.753,1.534,21.402z"/><path fill="#ab7946" d="M1.556,21.392c0.03-0.342,0.862-0.837,1.019-1.335c0.132-0.419-0.033-1.191,0.199-1.545 c0.289-0.443,1.297-1.405,1.659-1.708c0.939-0.789,0.831-0.67,1.413-1.757c0.155-0.289,0.56-1.156,0.666-1.171 c0.17-0.025,0.017,0.865-0.14,1.258c-0.368,0.922-0.539,1.502-0.529,1.86c0.471,0.512,1.55,1.044,3.015,1.044 c6.934,0,6.888-8.278,13.532-8.278c10.395,0,11.519,16.454,20.408,19.538c0.904,0.313,2.634,0.75,2.622,0.922 c-0.012,0.172-0.708,0.244-1.533,0.072c-9.738-2.029-12.213-14.954-14.965-14.954c-0.625,0-1.35,2.885-2.636,3.235 c-2.396,0.653-4.512-1.599-5.545-1.467c-0.866,0.11-6.214,2.948-8.501,3.343c-3.384,0.586-5.695-1.125-6.359-1.125 c-0.664,0-0.984,1.047-1.492,1.438c-0.508,0.391-1.372,0.883-1.877,0.931C2.034,21.739,1.526,21.741,1.556,21.392z"/><path fill="#ab7a47" d="M1.579,21.382c0.03-0.336,0.856-0.825,1.015-1.325c0.132-0.417-0.032-1.193,0.198-1.544 c0.289-0.444,1.293-1.402,1.649-1.702c0.952-0.801,0.825-0.675,1.403-1.747c0.154-0.286,0.563-1.162,0.665-1.177 c0.169-0.026,0.004,0.859-0.154,1.253c-0.377,0.94-0.546,1.511-0.528,1.861c0.468,0.519,1.553,1.06,3.033,1.06 c7.02,0,6.913-8.241,13.545-8.241c10.39,0,11.46,16.4,20.391,19.488c0.882,0.305,2.593,0.737,2.58,0.905 c-0.012,0.168-0.688,0.238-1.501,0.067C34.16,28.24,31.693,15.305,28.914,15.305c-0.621,0-1.366,2.924-2.645,3.269 c-2.419,0.653-4.478-1.647-5.511-1.517c-0.861,0.108-6.28,2.95-8.553,3.355c-3.37,0.602-5.677-1.127-6.338-1.127 c-0.66,0-0.964,1.063-1.469,1.451c-0.505,0.388-1.382,0.883-1.875,0.933C2.056,21.717,1.547,21.729,1.579,21.382z"/><path fill="#ac7a48" d="M1.601,21.372c0.031-0.33,0.85-0.813,1.011-1.314c0.133-0.416-0.032-1.194,0.197-1.544 c0.29-0.444,1.288-1.399,1.64-1.695c0.966-0.814,0.82-0.679,1.394-1.736c0.154-0.284,0.567-1.168,0.665-1.184 c0.167-0.027-0.009,0.853-0.169,1.249c-0.387,0.957-0.554,1.52-0.527,1.862c0.464,0.526,1.557,1.076,3.052,1.076 c7.105,0,6.938-8.203,13.558-8.203c10.385,0,11.402,16.346,20.373,19.437c0.861,0.297,2.551,0.724,2.538,0.889 c-0.013,0.164-0.668,0.233-1.469,0.063c-9.693-2.054-12.15-15-14.957-15c-0.618,0-1.382,2.963-2.655,3.303 c-2.441,0.654-4.445-1.695-5.478-1.567c-0.856,0.106-6.346,2.952-8.604,3.367c-3.356,0.618-5.66-1.128-6.317-1.128 c-0.657,0-0.944,1.079-1.446,1.465c-0.502,0.386-1.392,0.884-1.874,0.935C2.079,21.694,1.569,21.717,1.601,21.372z"/><path fill="#ac7b49" d="M1.623,21.361c0.031-0.324,0.844-0.802,1.006-1.303c0.134-0.414-0.031-1.195,0.196-1.543 c0.29-0.444,1.283-1.395,1.63-1.689C5.434,16,5.27,16.143,5.84,15.101c0.154-0.282,0.57-1.174,0.665-1.19 c0.166-0.028-0.022,0.847-0.183,1.244c-0.397,0.975-0.561,1.529-0.526,1.862c0.461,0.534,1.56,1.092,3.07,1.092 c7.19,0,6.963-8.165,13.572-8.165c10.381,0,11.344,16.293,20.355,19.386c0.839,0.288,2.509,0.711,2.496,0.872 c-0.013,0.16-0.648,0.227-1.437,0.059c-9.671-2.067-12.119-15.024-14.953-15.024c-0.614,0-1.398,3.001-2.664,3.338 c-2.464,0.654-4.412-1.743-5.444-1.617c-0.852,0.104-6.412,2.954-8.656,3.379c-3.341,0.634-5.643-1.13-6.295-1.13 c-0.653,0-0.924,1.095-1.423,1.479c-0.499,0.384-1.401,0.884-1.872,0.936C2.101,21.672,1.59,21.704,1.623,21.361z"/><path fill="#ad7c4a" d="M1.646,21.351c0.032-0.318,0.838-0.79,1.002-1.292c0.135-0.413-0.031-1.197,0.195-1.543 c0.29-0.445,1.278-1.392,1.62-1.682c0.992-0.84,0.809-0.688,1.375-1.715c0.154-0.28,0.573-1.18,0.665-1.196 c0.164-0.029-0.035,0.841-0.198,1.239C5.897,16.154,5.737,16.7,5.78,17.025c0.457,0.541,1.563,1.108,3.088,1.108 c7.275,0,6.988-8.127,13.585-8.127c10.376,0,11.285,16.24,20.338,19.336c0.818,0.28,2.468,0.699,2.454,0.855 c-0.013,0.155-0.628,0.222-1.405,0.054c-9.649-2.08-12.088-15.047-14.949-15.047c-0.611,0-1.414,3.04-2.674,3.372 c-2.487,0.654-4.378-1.791-5.41-1.667c-0.847,0.102-6.479,2.956-8.708,3.391c-3.327,0.65-5.625-1.131-6.274-1.131 c-0.649,0-0.904,1.111-1.401,1.493c-0.496,0.382-1.411,0.884-1.87,0.938C2.124,21.649,1.612,21.692,1.646,21.351z"/><path fill="#ad7d4b" d="M1.668,21.341c0.033-0.312,0.832-0.779,0.998-1.281c0.136-0.412-0.031-1.198,0.194-1.542 c0.29-0.445,1.273-1.389,1.611-1.676c1.005-0.853,0.804-0.693,1.365-1.705c0.154-0.278,0.576-1.186,0.665-1.202 c0.163-0.03-0.048,0.835-0.212,1.234c-0.418,1.01-0.576,1.547-0.524,1.864c0.453,0.548,1.566,1.124,3.106,1.124 c7.361,0,7.013-8.089,13.598-8.089c10.371,0,11.226,16.187,20.32,19.285c0.797,0.271,2.426,0.686,2.412,0.838 c-0.014,0.151-0.608,0.216-1.373,0.05c-9.626-2.093-12.056-15.07-14.946-15.07c-0.608,0-1.43,3.079-2.683,3.406 c-2.51,0.654-4.345-1.84-5.377-1.717c-0.842,0.1-6.545,2.958-8.759,3.403C8.751,20.928,6.455,19.13,5.81,19.13 c-0.645,0-0.884,1.127-1.378,1.506c-0.494,0.38-1.421,0.885-1.869,0.94C2.147,21.627,1.633,21.68,1.668,21.341z"/><path fill="#ae7d4c" d="M1.691,21.331c0.033-0.306,0.826-0.767,0.993-1.27c0.137-0.41-0.03-1.2,0.193-1.542 c0.29-0.446,1.268-1.386,1.601-1.669c1.019-0.866,0.798-0.697,1.356-1.695c0.154-0.276,0.579-1.192,0.665-1.209 c0.161-0.031-0.061,0.829-0.227,1.229c-0.428,1.028-0.583,1.556-0.523,1.864c0.45,0.555,1.569,1.14,3.125,1.14 c7.446,0,7.038-8.051,13.612-8.051c10.366,0,11.168,16.135,20.302,19.235c0.775,0.263,2.385,0.673,2.37,0.821 c-0.014,0.147-0.588,0.211-1.341,0.046c-9.604-2.107-12.025-15.094-14.942-15.094c-0.604,0-1.446,3.117-2.693,3.44 c-2.533,0.654-4.312-1.888-5.343-1.766c-0.838,0.098-6.611,2.96-8.811,3.415c-3.298,0.682-5.591-1.134-6.232-1.134 c-0.642,0-0.864,1.142-1.355,1.52c-0.491,0.377-1.431,0.885-1.867,0.942C2.169,21.605,1.654,21.667,1.691,21.331z"/><path fill="#ae7e4d" d="M1.713,21.32c0.034-0.3,0.82-0.755,0.989-1.259c0.137-0.409-0.03-1.201,0.192-1.541 c0.29-0.446,1.263-1.382,1.592-1.663c1.032-0.879,0.793-0.701,1.346-1.684c0.154-0.274,0.582-1.198,0.665-1.215 c0.159-0.032-0.074,0.823-0.241,1.224c-0.438,1.045-0.59,1.565-0.522,1.865c0.446,0.562,1.573,1.156,3.143,1.156 c7.531,0,7.063-8.014,13.625-8.014c10.361,0,11.109,16.083,20.285,19.184c0.754,0.255,2.343,0.661,2.328,0.804 c-0.014,0.143-0.568,0.206-1.309,0.041c-9.581-2.121-11.994-15.117-14.938-15.117c-0.601,0-1.462,3.156-2.702,3.474 c-2.555,0.654-4.278-1.936-5.31-1.816c-0.833,0.097-6.677,2.962-8.863,3.427c-3.283,0.699-5.573-1.136-6.211-1.136 c-0.638,0-0.844,1.158-1.332,1.534c-0.488,0.375-1.441,0.886-1.865,0.943C2.192,21.582,1.676,21.655,1.713,21.32z"/><path fill="#af7f4e" d="M1.736,21.31c0.034-0.294,0.813-0.744,0.985-1.248c0.138-0.407-0.03-1.203,0.191-1.541 c0.29-0.447,1.258-1.379,1.582-1.656c1.045-0.892,0.787-0.706,1.336-1.674c0.154-0.272,0.585-1.205,0.665-1.221 c0.158-0.033-0.087,0.817-0.256,1.219c-0.448,1.063-0.598,1.574-0.521,1.866c0.443,0.569,1.576,1.172,3.161,1.172 c7.616,0,7.087-7.976,13.638-7.976c10.357,0,11.05,16.032,20.267,19.133c0.732,0.246,2.301,0.648,2.287,0.787 c-0.015,0.139-0.548,0.2-1.277,0.037c-9.559-2.135-11.962-15.14-14.934-15.14c-0.597,0-1.478,3.195-2.712,3.508 c-2.578,0.654-4.245-1.984-5.276-1.866c-0.828,0.095-6.743,2.964-8.915,3.439c-3.269,0.715-5.556-1.137-6.19-1.137 c-0.634,0-0.824,1.174-1.309,1.547c-0.485,0.373-1.451,0.886-1.863,0.945C2.214,21.56,1.697,21.643,1.736,21.31z"/><path fill="#b0804f" d="M1.758,21.3c0.034-0.288,0.807-0.732,0.98-1.237c0.139-0.406-0.029-1.204,0.19-1.54 c0.29-0.447,1.253-1.376,1.573-1.65c1.058-0.905,0.782-0.71,1.327-1.664c0.154-0.269,0.589-1.211,0.665-1.227 c0.156-0.034-0.1,0.812-0.271,1.214c-0.459,1.08-0.605,1.583-0.52,1.866c0.439,0.576,1.579,1.188,3.18,1.188 c7.702,0,7.112-7.938,13.652-7.938c10.352,0,10.99,15.981,20.25,19.083c0.711,0.238,2.26,0.635,2.245,0.771 c-0.015,0.135-0.528,0.194-1.245,0.033c-9.536-2.149-11.931-15.164-14.93-15.164c-0.594,0-1.494,3.233-2.721,3.542 c-2.601,0.654-4.211-2.03-5.243-1.916c-0.824,0.094-6.81,2.966-8.966,3.451c-3.254,0.731-5.539-1.139-6.169-1.139 c-0.631,0-0.804,1.19-1.286,1.561c-0.482,0.371-1.461,0.886-1.862,0.947C2.237,21.537,1.718,21.631,1.758,21.3z"/><path fill="#b08050" d="M1.78,21.29c0.035-0.282,0.801-0.721,0.976-1.226c0.14-0.405-0.029-1.205,0.189-1.54 c0.291-0.448,1.248-1.373,1.563-1.643c1.071-0.918,0.777-0.714,1.317-1.653c0.154-0.267,0.592-1.217,0.665-1.233 c0.155-0.035-0.113,0.806-0.285,1.209c-0.469,1.097-0.612,1.592-0.519,1.867c0.436,0.584,1.582,1.204,3.198,1.204 c7.787,0,7.137-7.9,13.665-7.9c10.347,0,10.931,15.931,20.232,19.032c0.689,0.23,2.218,0.623,2.203,0.754 c-0.015,0.13-0.507,0.189-1.213,0.028c-9.513-2.164-11.9-15.187-14.927-15.187c-0.59,0-1.51,3.272-2.731,3.576 c-2.624,0.653-4.178-2.078-5.209-1.966c-0.819,0.092-6.876,2.969-9.018,3.463c-3.24,0.748-5.521-1.14-6.148-1.14 c-0.627,0-0.784,1.206-1.263,1.575c-0.479,0.369-1.471,0.887-1.86,0.949C2.259,21.515,1.74,21.618,1.78,21.29z"/><path fill="#b18151" d="M1.803,21.279c0.035-0.276,0.795-0.709,0.971-1.215c0.141-0.403-0.028-1.207,0.188-1.539 c0.291-0.448,1.243-1.37,1.554-1.637c1.084-0.932,0.772-0.719,1.308-1.643c0.154-0.265,0.595-1.223,0.664-1.24 c0.153-0.036-0.126,0.8-0.3,1.205c-0.479,1.115-0.62,1.601-0.518,1.867c0.432,0.591,1.585,1.22,3.216,1.22 c7.872,0,7.162-7.862,13.678-7.862c10.342,0,10.871,15.881,20.214,18.982c0.668,0.222,2.176,0.61,2.161,0.737 c-0.016,0.126-0.487,0.183-1.181,0.024c-9.491-2.179-11.868-15.21-14.923-15.21c-0.587,0-1.526,3.31-2.74,3.61 c-2.647,0.653-4.145-2.127-5.175-2.016c-0.814,0.09-6.942,2.971-9.07,3.475c-3.225,0.764-5.504-1.142-6.127-1.142 c-0.623,0-0.764,1.222-1.24,1.588c-0.477,0.367-1.481,0.887-1.858,0.951C2.282,21.492,1.761,21.606,1.803,21.279z"/><path fill="#b18252" d="M1.825,21.269c0.036-0.27,0.789-0.697,0.967-1.204c0.142-0.402-0.028-1.208,0.187-1.539 c0.291-0.448,1.238-1.366,1.544-1.63c1.097-0.945,0.766-0.723,1.298-1.632c0.154-0.263,0.598-1.229,0.664-1.246 c0.151-0.038-0.139,0.794-0.314,1.2c-0.49,1.132-0.627,1.61-0.517,1.868c0.428,0.598,1.589,1.236,3.234,1.236 c7.957,0,7.187-7.825,13.692-7.825c10.337,0,10.811,15.832,20.197,18.931c0.647,0.213,2.135,0.597,2.119,0.72 c-0.016,0.122-0.467,0.178-1.149,0.02C34.28,27.973,31.91,14.934,28.828,14.934c-0.583,0-1.542,3.349-2.75,3.644 c-2.67,0.652-4.111-2.175-5.142-2.066c-0.81,0.088-7.007,2.977-9.121,3.487c-3.209,0.787-5.487-1.143-6.106-1.143 c-0.619,0-0.744,1.238-1.217,1.602c-0.474,0.364-1.491,0.887-1.856,0.952C2.304,21.47,1.782,21.594,1.825,21.269z"/><path fill="#b28353" d="M1.848,21.259c0.036-0.264,0.783-0.686,0.963-1.193c0.142-0.4-0.028-1.21,0.186-1.538 c0.291-0.449,1.233-1.363,1.535-1.624c1.11-0.958,0.761-0.727,1.289-1.622c0.154-0.261,0.601-1.236,0.664-1.252 c0.15-0.039-0.152,0.788-0.329,1.195c-0.5,1.149-0.634,1.619-0.516,1.869c0.425,0.605,1.592,1.252,3.253,1.252 c8.043,0,7.212-7.787,13.705-7.787c10.333,0,10.751,15.784,20.179,18.88c0.625,0.205,2.093,0.585,2.077,0.703 c-0.016,0.118-0.447,0.172-1.117,0.015c-9.445-2.21-11.806-15.257-14.915-15.257c-0.58,0-1.558,3.387-2.759,3.678 c-2.693,0.651-4.078-2.223-5.108-2.115c-0.805,0.086-7.073,2.979-9.173,3.499c-3.194,0.803-5.469-1.145-6.085-1.145 c-0.616,0-0.724,1.254-1.195,1.616c-0.471,0.362-1.5,0.888-1.855,0.954C2.327,21.447,1.804,21.581,1.848,21.259z"/><path fill="#b28354" d="M1.87,21.249c0.037-0.258,0.776-0.675,0.958-1.182c0.142-0.399-0.027-1.211,0.185-1.538 c0.291-0.449,1.228-1.36,1.525-1.617C5.661,15.94,5.294,16.18,5.818,15.3c0.154-0.259,0.604-1.242,0.664-1.258 c0.148-0.04-0.165,0.782-0.343,1.19c-0.511,1.167-0.642,1.628-0.515,1.869c0.421,0.612,1.595,1.268,3.271,1.268 c8.128,0,7.237-7.749,13.718-7.749c10.328,0,10.691,15.737,20.162,18.83c0.604,0.197,2.052,0.572,2.035,0.686 c-0.017,0.114-0.427,0.167-1.085,0.011c-9.422-2.226-11.774-15.28-14.911-15.28c-0.576,0-1.574,3.426-2.769,3.712 c-2.716,0.651-4.045-2.271-5.075-2.165c-0.8,0.084-7.14,2.981-9.225,3.511c-3.18,0.818-5.452-1.146-6.064-1.146 c-0.612,0-0.704,1.27-1.172,1.63c-0.468,0.36-1.51,0.888-1.853,0.956C2.349,21.425,1.825,21.569,1.87,21.249z"/><path fill="#b38455" d="M1.893,21.238c0.037-0.252,0.769-0.663,0.954-1.171C2.99,19.67,2.82,18.855,3.03,18.53 c0.291-0.45,1.223-1.357,1.516-1.611c1.135-0.985,0.751-0.736,1.27-1.601c0.154-0.257,0.607-1.248,0.664-1.264 c0.146-0.042-0.178,0.776-0.358,1.185c-0.522,1.184-0.649,1.637-0.514,1.87c0.418,0.619,1.598,1.284,3.289,1.284 c8.213,0,7.262-7.711,13.732-7.711c10.323,0,10.63,15.691,20.144,18.779c0.582,0.189,2.01,0.559,1.993,0.669 c-0.017,0.109-0.407,0.161-1.053,0.007c-9.398-2.243-11.743-15.303-14.907-15.303c-0.573,0-1.589,3.464-2.778,3.746 c-2.739,0.65-4.011-2.319-5.041-2.215c-0.796,0.082-7.206,2.983-9.276,3.523c-3.165,0.834-5.435-1.148-6.043-1.148 c-0.608,0-0.684,1.285-1.149,1.643c-0.465,0.358-1.52,0.888-1.851,0.958C2.372,21.402,1.846,21.557,1.893,21.238z"/><path fill="#b38556" d="M1.915,21.228c0.037-0.246,0.763-0.651,0.95-1.16c0.144-0.396-0.026-1.214,0.183-1.537 c0.291-0.45,1.218-1.354,1.506-1.604c1.148-0.999,0.747-0.739,1.26-1.591c0.154-0.254,0.61-1.254,0.664-1.271 c0.144-0.044-0.191,0.77-0.372,1.18c-0.532,1.201-0.656,1.646-0.513,1.871c0.414,0.627,1.601,1.3,3.307,1.3 c8.298,0,7.287-7.673,13.745-7.673c10.318,0,10.569,15.645,20.126,18.728c0.561,0.181,1.968,0.547,1.951,0.652 c-0.017,0.105-0.387,0.155-1.022,0.002C34.326,27.867,31.989,14.8,28.797,14.8c-0.569,0-1.605,3.502-2.788,3.78 c-2.762,0.649-3.978-2.368-5.008-2.265c-0.791,0.08-7.272,2.984-9.328,3.535c-3.151,0.85-5.418-1.149-6.022-1.149 c-0.605,0-0.664,1.301-1.126,1.657c-0.462,0.356-1.53,0.889-1.849,0.96C2.394,21.38,1.867,21.544,1.915,21.228z"/><path fill="#b48657" d="M1.937,21.218c0.038-0.24,0.757-0.64,0.945-1.149c0.145-0.395-0.026-1.215,0.182-1.536 c0.292-0.451,1.213-1.351,1.496-1.597c1.159-1.014,0.741-0.744,1.251-1.581c0.154-0.252,0.613-1.261,0.664-1.277 c0.143-0.045-0.204,0.764-0.387,1.175c-0.543,1.219-0.664,1.655-0.512,1.871c0.411,0.634,1.605,1.316,3.326,1.316 c8.384,0,7.312-7.635,13.758-7.635c10.313,0,10.508,15.602,20.109,18.678c0.539,0.173,1.927,0.534,1.909,0.636 c-0.018,0.101-0.366,0.149-0.99-0.002c-9.348-2.29-11.68-15.35-14.9-15.35c-0.566,0-1.622,3.539-2.798,3.814 c-2.786,0.642-3.944-2.416-4.974-2.315c-0.786,0.078-7.338,2.986-9.38,3.547c-3.137,0.866-5.4-1.15-6.001-1.15 c-0.601,0-0.644,1.317-1.103,1.671c-0.459,0.353-1.54,0.888-1.848,0.961C2.417,21.357,1.888,21.532,1.937,21.218z"/><path fill="#b48658" d="M1.96,21.208c0.038-0.235,0.751-0.628,0.941-1.138c0.146-0.393-0.026-1.217,0.181-1.536 c0.292-0.451,1.208-1.348,1.487-1.591c1.173-1.027,0.736-0.748,1.241-1.57c0.154-0.25,0.616-1.267,0.664-1.283 c0.141-0.047-0.217,0.758-0.401,1.17c-0.555,1.235-0.671,1.664-0.51,1.872c0.407,0.641,1.608,1.332,3.344,1.332 c8.469,0,7.337-7.598,13.772-7.598c10.309,0,10.442,15.572,20.091,18.627c0.518,0.165,1.885,0.521,1.867,0.619 c-0.018,0.097-0.346,0.144-0.958-0.006c-9.326-2.302-11.649-15.373-14.896-15.373c-0.562,0-1.638,3.578-2.807,3.848 c-2.809,0.643-3.911-2.464-4.94-2.365c-0.782,0.076-7.405,2.988-9.432,3.559c-3.122,0.881-5.383-1.152-5.98-1.152 c-0.597,0-0.623,1.333-1.08,1.684c-0.457,0.351-1.55,0.889-1.846,0.963C2.439,21.334,1.909,21.519,1.96,21.208z"/><path fill="#b58759" d="M1.982,21.197c0.038-0.229,0.745-0.616,0.937-1.127c0.147-0.392-0.025-1.218,0.18-1.535 c0.292-0.452,1.203-1.344,1.477-1.584c1.186-1.039,0.73-0.753,1.232-1.56c0.154-0.248,0.619-1.273,0.664-1.289 c0.139-0.05-0.23,0.752-0.416,1.165c-0.565,1.253-0.679,1.673-0.509,1.873c0.404,0.648,1.611,1.348,3.362,1.348 c8.554,0,7.362-7.56,13.785-7.56c10.304,0,10.384,15.518,20.073,18.577c0.496,0.157,1.844,0.509,1.825,0.602 c-0.018,0.093-0.326,0.138-0.926-0.011c-9.304-2.313-11.617-15.397-14.892-15.397c-0.559,0-1.653,3.617-2.817,3.882 c-2.831,0.645-3.878-2.512-4.907-2.414c-0.777,0.074-7.471,2.99-9.483,3.571c-3.108,0.897-5.366-1.153-5.959-1.153 s-0.603,1.349-1.057,1.698c-0.454,0.349-1.56,0.889-1.844,0.965C2.462,21.312,1.93,21.507,1.982,21.197z"/><radialGradient id="ZPRWCdraJH7meBnMZYPoec" cx="921.01" cy="-14.16" r=".322" gradientTransform="matrix(-.2348 -.9707 .9578 -.222 232.744 910.723)" gradientUnits="userSpaceOnUse"><stop offset="0" stop-color="#dbd2c6"/><stop offset=".061" stop-color="#d3cbbf"/><stop offset=".156" stop-color="#beb6ab"/><stop offset=".272" stop-color="#9a948c"/><stop offset=".403" stop-color="#6a6660"/><stop offset=".406" stop-color="#64615b"/><stop offset=".433" stop-color="#393734"/><stop offset=".457" stop-color="#1a1917"/><stop offset=".477" stop-color="#070706"/><stop offset=".492"/></radialGradient><path fill="url(#ZPRWCdraJH7meBnMZYPoec)" d="M2.867,19.605c0.176-0.098,0.415-0.006,0.484,0.118c0.069,0.124-0.058,0.232-0.234,0.33	c-0.176,0.098-0.335,0.149-0.404,0.026S2.691,19.704,2.867,19.605z"/><path fill="#52361a" d="M1.305,22.028c0-0.07,0.139-0.377,0.077-0.495c-0.042-0.079-0.306-0.142-0.505-0.2	c-0.104,0.154-0.173,0.306-0.173,0.448c0,0.224,0.14,0.431,0.402,0.581C1.213,22.225,1.305,22.067,1.305,22.028z"/><linearGradient id="ZPRWCdraJH7meBnMZYPoed" x1="5.544" x2="6.444" y1="14.321" y2="15.795" gradientUnits="userSpaceOnUse"><stop offset="0" stop-color="#704920"/><stop offset="1" stop-color="#704920" stop-opacity="0"/></linearGradient><path fill="url(#ZPRWCdraJH7meBnMZYPoed)" d="M5.431,16.254c0,0,0.906-2.327,1.062-2.367c0.156-0.041,0.463,0.675,0.325,1.19	s-0.629,1.59-0.629,1.59L5.431,16.254z"/><radialGradient id="ZPRWCdraJH7meBnMZYPoee" cx="23.969" cy="17.747" r="25.698" gradientUnits="userSpaceOnUse"><stop offset=".784" stop-color="#5e3a15" stop-opacity="0"/><stop offset="1" stop-color="#5e3a15"/></radialGradient><path fill="url(#ZPRWCdraJH7meBnMZYPoee)" d="M42.859,28.886C35.47,26.044,32.358,7.425,21.782,7.425c-7.085,0-9.331,9.715-13.025,9.715	c-0.893,0-1.715-0.196-2.322-0.436c0.309-0.675,0.525-1.605,0.569-1.836c0.069-0.367-0.183-1.445-0.413-1.445	s-0.508,0.568-0.669,0.935c-0.725,1.655-1.358,1.832-1.775,2.151c-0.546,0.417-1.737,1.53-2.021,1.956	c-0.284,0.426-0.142,1.089-0.237,1.563c-0.095,0.474-1.184,1.184-1.184,1.753c0,0.426,0.474,0.805,1.421,0.805	s1.327-0.389,1.943-0.863c0.616-0.474,1.557-0.917,2.362-0.917c0.805,0,3.226,1.07,7.158,1.07c2.842,0,5.494-2.7,6.536-2.889	s5.272,0.155,6.821-0.426c1.516-0.568,1.516-1.942,2.274-1.942c1.705,0,4.547,12.41,15.109,14.068	c1.277,0.201,2.747,0.095,2.747-0.237S44.567,29.543,42.859,28.886z"/><g><path fill="#a46d35" d="M18.799,17.068c0,7.723,9.641,10.94,9.641,11.81C28.44,30.042,27,32.593,27,35 c0,3.355,1.153,4,1.894,4C30.524,39,30,35.859,30,34.471c0-5.162,1.06-5.751,1.06-6.717c0-1.312-5.092-1.43-5.092-6.829 c0-0.557,2.521-1.015,2.521-4.944c0-2.719-2.234-4.171-4.963-4.171C21.647,11.81,18.799,13.509,18.799,17.068z"/><path fill="#a46e36" d="M18.833,16.973c0,7.786,9.634,11.025,9.634,11.89c0,1.157-1.431,3.741-1.431,6.134 c0,3.337,1.135,3.982,1.864,3.982c1.598,0,1.078-3.128,1.078-4.507c0-5.133,1.05-5.747,1.05-6.706c0-1.293-5.114-1.486-5.114-6.867 c0-0.554,2.566-1.059,2.566-4.966c0-2.704-2.232-4.132-4.946-4.132C21.664,11.801,18.833,13.467,18.833,16.973z"/><path fill="#a56e37" d="M18.867,16.878c0,7.849,9.627,11.11,9.627,11.97c0,1.151-1.423,3.766-1.423,6.147 c0,3.319,1.117,3.965,1.833,3.965c1.567,0,1.049-3.114,1.049-4.486c0-5.105,1.04-5.742,1.04-6.694c0-1.274-5.136-1.542-5.136-6.904 c0-0.551,2.61-1.103,2.61-4.988c0-2.689-2.23-4.093-4.929-4.093C21.681,11.793,18.867,13.425,18.867,16.878z"/><path fill="#a56f38" d="M18.902,16.783c0,7.912,9.621,11.194,9.621,12.05c0,1.145-1.415,3.792-1.415,6.159 c0,3.3,1.099,3.947,1.803,3.947c1.537,0,1.021-3.101,1.021-4.465c0-5.077,1.029-5.738,1.029-6.683c0-1.256-5.157-1.598-5.157-6.942 c0-0.548,2.654-1.146,2.654-5.011c0-2.675-2.228-4.054-4.912-4.054C21.698,11.785,18.902,13.384,18.902,16.783z"/><path fill="#a67039" d="M18.936,16.688c0,7.975,9.614,11.279,9.614,12.13c0,1.138-1.407,3.817-1.407,6.171 c0,3.282,1.081,3.929,1.772,3.929c1.506,0,0.993-3.087,0.993-4.444c0-5.049,1.019-5.733,1.019-6.671 c0-1.237-5.179-1.654-5.179-6.979c0-0.545,2.698-1.19,2.698-5.033c0-2.66-2.226-4.015-4.895-4.015 C21.714,11.776,18.936,13.342,18.936,16.688z"/><path fill="#a6713a" d="M18.971,16.593c0,8.038,9.607,11.364,9.607,12.21c0,1.132-1.398,3.843-1.398,6.184 c0,3.263,1.063,3.912,1.742,3.912c1.475,0,0.965-3.073,0.965-4.423c0-5.02,1.009-5.729,1.009-6.659 c0-1.218-5.201-1.709-5.201-7.017c0-0.542,2.742-1.234,2.742-5.055c0-2.645-2.224-3.976-4.878-3.976 C21.731,11.768,18.971,13.301,18.971,16.593z"/><path fill="#a7713b" d="M19.005,16.498c0,8.101,9.6,11.449,9.6,12.29c0,1.126-1.39,3.868-1.39,6.196 c0,3.245,1.045,3.894,1.712,3.894c1.444,0,0.937-3.06,0.937-4.402c0-4.992,0.999-5.724,0.999-6.648 c0-1.199-5.222-1.765-5.222-7.054c0-0.539,2.786-1.278,2.786-5.077c0-2.63-2.222-3.937-4.861-3.937 C21.748,11.76,19.005,13.259,19.005,16.498z"/><path fill="#a7723c" d="M19.039,16.403c0,8.164,9.593,11.533,9.593,12.37c0,1.119-1.382,3.894-1.382,6.208 c0,3.227,1.027,3.876,1.681,3.876c1.413,0,0.909-3.046,0.909-4.38c0-4.964,0.988-5.72,0.988-6.636c0-1.18-5.244-1.821-5.244-7.092 c0-0.536,2.83-1.321,2.83-5.099c0-2.615-2.22-3.898-4.844-3.898C21.765,11.751,19.039,13.218,19.039,16.403z"/><path fill="#a8733d" d="M19.074,16.308c0,8.227,9.587,11.618,9.587,12.45c0,1.113-1.374,3.92-1.374,6.221 c0,3.208,1.009,3.859,1.651,3.859c1.382,0,0.881-3.033,0.881-4.359c0-4.936,0.978-5.715,0.978-6.624 c0-1.161-5.266-1.877-5.266-7.129c0-0.533,2.874-1.365,2.874-5.122c0-2.6-2.218-3.859-4.827-3.859 C21.781,11.743,19.074,13.176,19.074,16.308z"/><path fill="#a8733e" d="M19.108,16.213c0,8.29,9.58,11.703,9.58,12.53c0,1.106-1.366,3.945-1.366,6.233 c0,3.19,0.991,3.841,1.62,3.841c1.351,0,0.853-3.019,0.853-4.338c0-4.907,0.968-5.711,0.968-6.613c0-1.143-5.287-1.933-5.287-7.167 c0-0.529,2.919-1.409,2.919-5.144c0-2.585-2.216-3.82-4.81-3.82C21.798,11.735,19.108,13.135,19.108,16.213z"/><path fill="#a9743f" d="M19.143,16.117c0,8.352,9.573,11.788,9.573,12.61c0,1.1-1.357,3.971-1.357,6.246 c0,3.172,0.973,3.823,1.59,3.823c1.32,0,0.825-3.005,0.825-4.317c0-4.879,0.958-5.706,0.958-6.601c0-1.124-5.309-1.989-5.309-7.204 c0-0.526,2.963-1.452,2.963-5.166c0-2.57-2.214-3.781-4.793-3.781C21.815,11.726,19.143,13.093,19.143,16.117z"/><path fill="#a97540" d="M19.177,16.022c0,8.415,9.566,11.872,9.566,12.69c0,1.094-1.349,3.996-1.349,6.258 c0,3.153,0.955,3.806,1.559,3.806c1.289,0,0.797-2.992,0.797-4.296c0-4.851,0.948-5.702,0.948-6.59 c0-1.105-5.331-2.044-5.331-7.242c0-0.523,3.007-1.496,3.007-5.188c0-2.556-2.212-3.742-4.776-3.742 C21.832,11.718,19.177,13.052,19.177,16.022z"/><path fill="#aa7541" d="M19.211,15.927c0,8.478,9.559,11.957,9.559,12.77c0,1.087-1.341,4.022-1.341,6.27 c0,3.135,0.937,3.788,1.529,3.788c1.258,0,0.768-2.978,0.768-4.274c0-4.823,0.937-5.697,0.937-6.578c0-1.086-5.352-2.1-5.352-7.279 c0-0.52,3.051-1.54,3.051-5.21c0-2.541-2.21-3.704-4.759-3.704C21.849,11.71,19.211,13.01,19.211,15.927z"/><path fill="#aa7642" d="M19.246,15.832c0,8.541,9.553,12.042,9.553,12.85c0,1.081-1.333,4.047-1.333,6.283 c0,3.117,0.92,3.77,1.498,3.77c1.227,0,0.74-2.965,0.74-4.253c0-4.794,0.927-5.693,0.927-6.566c0-1.067-5.374-2.156-5.374-7.317 c0-0.517,3.095-1.584,3.095-5.233c0-2.526-2.208-3.665-4.742-3.665C21.865,11.701,19.246,12.969,19.246,15.832z"/><path fill="#aa7743" d="M19.28,15.737c0,8.604,9.546,12.127,9.546,12.93c0,1.075-1.324,4.073-1.324,6.295 c0,3.098,0.902,3.753,1.468,3.753c1.196,0,0.712-2.951,0.712-4.232c0-4.766,0.917-5.688,0.917-6.555 c0-1.049-5.396-2.212-5.396-7.354c0-0.514,3.139-1.627,3.139-5.255c0-2.511-2.205-3.626-4.725-3.626 C21.882,11.693,19.28,12.927,19.28,15.737z"/><path fill="#ab7844" d="M19.315,15.642c0,8.667,9.539,12.211,9.539,13.01c0,1.068-1.316,4.098-1.316,6.307 c0,3.08,0.884,3.735,1.437,3.735c1.165,0,0.684-2.937,0.684-4.211c0-4.738,0.907-5.683,0.907-6.543c0-1.03-5.417-2.268-5.417-7.391 c0-0.511,3.183-1.671,3.183-5.277c0-2.496-2.203-3.587-4.708-3.587C21.899,11.685,19.315,12.886,19.315,15.642z"/><path fill="#ab7845" d="M19.349,15.547c0,8.73,9.532,12.296,9.532,13.09c0,1.062-1.308,4.124-1.308,6.32 c0,3.061,0.866,3.717,1.407,3.717c1.134,0,0.656-2.924,0.656-4.19c0-4.71,0.897-5.679,0.897-6.532c0-1.011-5.439-2.324-5.439-7.429 c0-0.508,3.227-1.715,3.227-5.299c0-2.481-2.201-3.548-4.691-3.548C21.916,11.677,19.349,12.844,19.349,15.547z"/><path fill="#ac7946" d="M19.383,15.452c0,8.793,9.526,12.381,9.526,13.17c0,1.056-1.3,4.149-1.3,6.332 c0,3.043,0.848,3.7,1.376,3.7c1.103,0,0.628-2.91,0.628-4.168c0-4.681,0.886-5.674,0.886-6.52c0-0.992-5.461-2.379-5.461-7.466 c0-0.505,3.272-1.758,3.272-5.321c0-2.466-2.199-3.509-4.674-3.509C21.932,11.668,19.383,12.803,19.383,15.452z"/><path fill="#ac7a47" d="M19.418,15.357c0,8.856,9.519,12.466,9.519,13.25c0,1.049-1.291,4.175-1.291,6.344 c0,3.025,0.83,3.682,1.346,3.682c1.072,0,0.6-2.897,0.6-4.147c0-4.653,0.876-5.67,0.876-6.508c0-0.973-5.483-2.435-5.483-7.504 c0-0.502,3.316-1.802,3.316-5.344c0-2.451-2.197-3.47-4.657-3.47C21.949,11.66,19.418,12.761,19.418,15.357z"/><path fill="#ad7a47" d="M19.452,15.262c0,8.918,9.512,12.55,9.512,13.33c0,1.043-1.283,4.2-1.283,6.357 c0,3.006,0.812,3.664,1.315,3.664c1.041,0,0.572-2.883,0.572-4.126c0-4.625,0.866-5.665,0.866-6.497 c0-0.955-5.504-2.491-5.504-7.541c0-0.499,3.36-1.846,3.36-5.366c0-2.436-2.195-3.431-4.64-3.431 C21.966,11.652,19.452,12.72,19.452,15.262z"/><path fill="#ad7b48" d="M19.486,15.167c0,8.981,9.505,12.635,9.505,13.41c0,1.036-1.275,4.226-1.275,6.369 c0,2.988,0.794,3.647,1.285,3.647c1.01,0,0.544-2.869,0.544-4.105c0-4.597,0.856-5.661,0.856-6.485 c0-0.936-5.526-2.547-5.526-7.579c0-0.496,3.404-1.889,3.404-5.388c0-2.422-2.193-3.392-4.623-3.392 C21.983,11.643,19.486,12.678,19.486,15.167z"/><path fill="#ae7c49" d="M19.521,15.072c0,9.044,9.498,12.72,9.498,13.49c0,1.03-1.267,4.251-1.267,6.381 c0,2.97,0.776,3.629,1.255,3.629c0.979,0,0.516-2.856,0.516-4.084c0-4.568,0.845-5.656,0.845-6.474 c0-0.917-5.548-2.603-5.548-7.616c0-0.493,3.448-1.933,3.448-5.41c0-2.407-2.191-3.353-4.606-3.353 C22,11.635,19.521,12.637,19.521,15.072z"/><path fill="#ae7c4a" d="M19.555,14.977c0,9.107,9.492,12.805,9.492,13.57c0,1.024-1.259,4.277-1.259,6.394 c0,2.951,0.758,3.611,1.224,3.611c0.948,0,0.487-2.842,0.487-4.062c0-4.54,0.835-5.652,0.835-6.462 c0-0.898-5.569-2.659-5.569-7.654c0-0.49,3.492-1.977,3.492-5.432c0-2.392-2.189-3.314-4.589-3.314 C22.016,11.627,19.555,12.595,19.555,14.977z"/><path fill="#af7d4b" d="M19.59,14.881c0,9.17,9.485,12.889,9.485,13.65c0,1.017-1.25,4.302-1.25,6.406 c0,2.933,0.74,3.594,1.194,3.594c0.917,0,0.459-2.829,0.459-4.041c0-4.512,0.825-5.647,0.825-6.45c0-0.879-5.591-2.714-5.591-7.691 c0-0.487,3.536-2.021,3.536-5.455c0-2.377-2.187-3.275-4.572-3.275C22.033,11.618,19.59,12.554,19.59,14.881z"/><path fill="#af7e4c" d="M19.624,14.786c0,9.233,9.478,12.974,9.478,13.73c0,1.011-1.242,4.328-1.242,6.418 c0,2.914,0.722,3.576,1.163,3.576c0.886,0,0.431-2.815,0.431-4.02c0-4.484,0.815-5.643,0.815-6.439c0-0.861-5.613-2.77-5.613-7.729 c0-0.484,3.58-2.064,3.58-5.477c0-2.362-2.185-3.236-4.555-3.236C22.05,11.61,19.624,12.512,19.624,14.786z"/><path fill="#af7f4d" d="M19.658,14.691c0,9.296,9.471,13.059,9.471,13.81c0,1.005-1.234,4.353-1.234,6.431 c0,2.896,0.704,3.558,1.133,3.558c0.855,0,0.403-2.801,0.403-3.999c0-4.455,0.805-5.638,0.805-6.427 c0-0.842-5.634-2.826-5.634-7.766c0-0.481,3.624-2.108,3.624-5.499c0-2.347-2.183-3.197-4.538-3.197 C22.067,11.602,19.658,12.471,19.658,14.691z"/><path fill="#b07f4e" d="M19.693,14.596c0,9.359,9.464,13.144,9.464,13.89c0,0.998-1.226,4.379-1.226,6.443 c0,2.878,0.686,3.541,1.102,3.541c0.825,0,0.375-2.788,0.375-3.978c0-4.427,0.794-5.634,0.794-6.416 c0-0.823-5.656-2.882-5.656-7.804c0-0.478,3.669-2.152,3.669-5.521c0-2.332-2.181-3.158-4.521-3.158 C22.083,11.593,19.693,12.429,19.693,14.596z"/><path fill="#b0804f" d="M19.727,14.501c0,9.422,9.458,13.228,9.458,13.97c0,0.992-1.217,4.405-1.217,6.456 c0,2.859,0.668,3.523,1.072,3.523c0.794,0,0.347-2.774,0.347-3.956c0-4.399,0.784-5.629,0.784-6.404 c0-0.804-5.678-2.938-5.678-7.841c0-0.475,3.713-2.195,3.713-5.543c0-2.317-2.179-3.119-4.504-3.119 C22.1,11.585,19.727,12.388,19.727,14.501z"/><path fill="#b18150" d="M19.762,14.406c0,9.485,9.451,13.313,9.451,14.05c0,0.985-1.209,4.43-1.209,6.468 c0,2.841,0.65,3.505,1.041,3.505c0.763,0,0.319-2.761,0.319-3.935c0-4.371,0.774-5.625,0.774-6.392 c0-0.785-5.699-2.994-5.699-7.879c0-0.472,3.757-2.239,3.757-5.566c0-2.302-2.177-3.08-4.487-3.08 C22.117,11.577,19.762,12.346,19.762,14.406z"/><path fill="#b18151" d="M19.796,14.311c0,9.547,9.444,13.398,9.444,14.13c0,0.979-1.201,4.456-1.201,6.48 c0,2.823,0.632,3.488,1.011,3.488c0.732,0,0.291-2.747,0.291-3.914c0-4.342,0.764-5.62,0.764-6.381c0-0.766-5.721-3.05-5.721-7.916 c0-0.469,3.801-2.283,3.801-5.588c0-2.288-2.175-3.042-4.47-3.042C22.134,11.568,19.796,12.305,19.796,14.311z"/><path fill="#b28252" d="M19.83,14.216c0,9.61,9.437,13.483,9.437,14.21c0,0.973-1.193,4.481-1.193,6.493 c0,2.804,0.615,3.47,0.98,3.47c0.701,0,0.263-2.733,0.263-3.893c0-4.314,0.754-5.616,0.754-6.369c0-0.748-5.743-3.105-5.743-7.954 c0-0.465,3.845-2.326,3.845-5.61c0-2.273-2.173-3.003-4.453-3.003C22.151,11.56,19.83,12.263,19.83,14.216z"/><path fill="#b28353" d="M19.865,14.121c0,9.673,9.431,13.567,9.431,14.29c0,0.966-1.185,4.507-1.185,6.505 c0,2.786,0.597,3.452,0.95,3.452c0.67,0,0.235-2.72,0.235-3.872c0-4.286,0.743-5.611,0.743-6.357c0-0.729-5.764-3.161-5.764-7.991 c0-0.462,3.889-2.37,3.889-5.632c0-2.258-2.171-2.964-4.436-2.964C22.167,11.552,19.865,12.222,19.865,14.121z"/><path fill="#b38354" d="M19.899,14.026c0,9.736,9.424,13.652,9.424,14.37c0,0.96-1.176,4.532-1.176,6.517 c0,2.768,0.579,3.434,0.919,3.434c0.639,0,0.206-2.706,0.206-3.85c0-4.258,0.733-5.606,0.733-6.346c0-0.71-5.786-3.217-5.786-8.028 c0-0.459,3.933-2.414,3.933-5.654c0-2.243-2.168-2.925-4.419-2.925C22.184,11.543,19.899,12.18,19.899,14.026z"/><path fill="#b38455" d="M19.934,13.931c0,9.799,9.417,13.737,9.417,14.45c0,0.954-1.168,4.558-1.168,6.53 c0,2.749,0.561,3.417,0.889,3.417c0.608,0,0.178-2.693,0.178-3.829c0-4.229,0.723-5.602,0.723-6.334 c0-0.691-5.808-3.273-5.808-8.066c0-0.456,3.977-2.458,3.977-5.677c0-2.228-2.166-2.886-4.402-2.886 C22.201,11.535,19.934,12.139,19.934,13.931z"/><path fill="#b48556" d="M19.968,13.836c0,9.862,9.41,13.822,9.41,14.53c0,0.947-1.16,4.583-1.16,6.542 c0,2.731,0.543,3.399,0.858,3.399c0.577,0,0.15-2.679,0.15-3.808c0-4.201,0.713-5.597,0.713-6.323c0-0.672-5.829-3.329-5.829-8.103 c0-0.453,4.022-2.501,4.022-5.699c0-2.213-2.164-2.847-4.385-2.847C22.218,11.527,19.968,12.097,19.968,13.836z"/><path fill="#b48657" d="M20.002,13.741c0,9.925,9.403,13.906,9.403,14.61c0,0.941-1.152,4.609-1.152,6.554 c0,2.712,0.525,3.381,0.828,3.381c0.546,0,0.122-2.665,0.122-3.787c0-4.173,0.702-5.593,0.702-6.311 c0-0.654-5.851-3.385-5.851-8.141c0-0.45,4.066-2.545,4.066-5.721c0-2.198-2.162-2.808-4.368-2.808 C22.234,11.518,20.002,12.056,20.002,13.741z"/><path fill="#b58658" d="M20.037,13.645c0,9.988,9.397,13.991,9.397,14.69c0,0.934-1.143,4.634-1.143,6.567 c0,2.694,0.507,3.364,0.797,3.364c0.515,0,0.094-2.652,0.094-3.766c0-4.145,0.692-5.588,0.692-6.299 c0-0.635-5.873-3.44-5.873-8.178c0-0.447,4.11-2.589,4.11-5.743c0-2.183-2.16-2.769-4.351-2.769 C22.251,11.51,20.037,12.014,20.037,13.645z"/><path fill="#b58759" d="M20.071,13.55c0,10.051,9.39,14.076,9.39,14.77c0,0.928-1.135,4.66-1.135,6.579 c0,2.676,0.489,3.346,0.767,3.346c0.484,0,0.066-2.638,0.066-3.745c0-4.116,0.682-5.584,0.682-6.288 c0-0.616-5.894-3.496-5.894-8.216c0-0.444,4.154-2.632,4.154-5.765c0-2.168-2.158-2.73-4.334-2.73 C22.268,11.502,20.071,11.972,20.071,13.55z"/></g><g><path fill="#a46d35" d="M12.965,18.848c1.141,0,2.175,1.137,2.274,1.73c0.099,0.593,0.148,2.868,0.297,3.461 c0.148,0.593,0.346,1.335,0.692,1.533c0.346,0.198,1.73,0.396,1.78,0.692s-0.593,1.088-1.335,0.939 c-0.742-0.148-1.978-0.989-2.225-2.423s-0.593-3.263-1.978-3.263s-1.829-0.198-2.126-0.742 C10.048,20.232,10.245,18.848,12.965,18.848z"/><path fill="#a46e36" d="M12.962,18.842c1.15,0,2.166,1.139,2.264,1.728s0.147,2.844,0.292,3.433 c0.145,0.594,0.341,1.388,0.717,1.595c0.347,0.191,1.706,0.382,1.754,0.674c0.048,0.291-0.583,1.057-1.314,0.917 c-0.769-0.147-1.976-1.037-2.224-2.485c-0.245-1.423-0.606-3.217-1.98-3.217s-1.844-0.186-2.137-0.734 C10.043,20.212,10.263,18.842,12.962,18.842z"/><path fill="#a56e37" d="M12.959,18.836c1.158,0,2.157,1.141,2.254,1.725s0.146,2.82,0.287,3.405 c0.141,0.594,0.336,1.442,0.742,1.658c0.348,0.185,1.681,0.369,1.728,0.655c0.047,0.286-0.573,1.026-1.292,0.894 c-0.796-0.146-1.974-1.085-2.224-2.548c-0.242-1.413-0.618-3.171-1.982-3.171s-1.857-0.175-2.148-0.726 C10.039,20.191,10.28,18.836,12.959,18.836z"/><path fill="#a56f38" d="M12.956,18.83c1.166,0,2.148,1.143,2.245,1.723c0.097,0.58,0.146,2.796,0.282,3.377 c0.139,0.595,0.33,1.496,0.767,1.721c0.349,0.18,1.657,0.356,1.702,0.636c0.045,0.28-0.563,0.996-1.271,0.871 c-0.824-0.145-1.973-1.134-2.223-2.61c-0.239-1.402-0.63-3.125-1.984-3.125s-1.87-0.163-2.159-0.718 C10.035,20.17,10.298,18.83,12.956,18.83z"/><path fill="#a67039" d="M12.953,18.824c1.174,0,2.139,1.145,2.235,1.721c0.096,0.576,0.145,2.772,0.277,3.35 c0.136,0.595,0.325,1.549,0.792,1.783c0.349,0.175,1.632,0.343,1.677,0.618c0.044,0.275-0.553,0.966-1.25,0.849 c-0.852-0.143-1.971-1.182-2.222-2.673c-0.237-1.392-0.643-3.079-1.986-3.079s-1.884-0.152-2.17-0.71 C10.031,20.149,10.315,18.824,12.953,18.824z"/><path fill="#a6713a" d="M12.951,18.818c1.182,0,2.13,1.147,2.225,1.718c0.095,0.571,0.144,2.748,0.272,3.322 c0.133,0.596,0.319,1.603,0.817,1.846c0.349,0.17,1.608,0.33,1.651,0.599c0.043,0.269-0.544,0.937-1.229,0.826 c-0.879-0.142-1.97-1.23-2.222-2.736c-0.234-1.381-0.655-3.033-1.988-3.033s-1.898-0.14-2.181-0.702 C10.026,20.128,10.332,18.818,12.951,18.818z"/><path fill="#a7713b" d="M12.948,18.812c1.191,0,2.12,1.149,2.215,1.716s0.142,2.725,0.267,3.294 c0.13,0.596,0.313,1.657,0.841,1.909c0.349,0.166,1.583,0.317,1.625,0.58c0.041,0.264-0.534,0.908-1.207,0.804 c-0.907-0.14-1.968-1.279-2.221-2.798c-0.232-1.371-0.667-2.986-1.99-2.986s-1.912-0.128-2.193-0.694 C10.022,20.107,10.35,18.812,12.948,18.812z"/><path fill="#a7723c" d="M12.945,18.806c1.199,0,2.111,1.151,2.205,1.713c0.094,0.562,0.141,2.701,0.262,3.266 c0.127,0.597,0.307,1.712,0.866,1.971c0.348,0.162,1.559,0.303,1.599,0.562c0.04,0.258-0.525,0.879-1.186,0.781 c-0.935-0.139-1.966-1.327-2.221-2.861c-0.229-1.36-0.68-2.94-1.992-2.94s-1.925-0.117-2.204-0.686 C10.018,20.087,10.367,18.806,12.945,18.806z"/><path fill="#a8733d" d="M12.942,18.8c1.207,0,2.102,1.153,2.195,1.711c0.093,0.558,0.14,2.677,0.257,3.239 c0.124,0.597,0.301,1.766,0.891,2.034c0.348,0.158,1.534,0.29,1.573,0.543c0.039,0.253-0.515,0.851-1.165,0.758 c-0.963-0.137-1.965-1.375-2.22-2.923c-0.226-1.35-0.692-2.894-1.994-2.894s-1.939-0.105-2.215-0.678 C10.013,20.066,10.385,18.8,12.942,18.8z"/><path fill="#a8733e" d="M12.939,18.794c1.215,0,2.093,1.155,2.185,1.708c0.092,0.554,0.139,2.653,0.252,3.211 c0.121,0.598,0.294,1.821,0.916,2.097c0.347,0.154,1.51,0.277,1.547,0.524c0.037,0.247-0.506,0.822-1.144,0.736 c-0.991-0.135-1.963-1.424-2.22-2.986c-0.224-1.339-0.705-2.848-1.996-2.848s-1.953-0.093-2.226-0.67 C10.009,20.045,10.402,18.794,12.939,18.794z"/><path fill="#a9743f" d="M12.937,18.788c1.223,0,2.084,1.156,2.175,1.706c0.092,0.549,0.138,2.63,0.247,3.183 c0.118,0.598,0.288,1.876,0.941,2.159c0.347,0.151,1.486,0.264,1.522,0.506c0.036,0.242-0.496,0.794-1.122,0.713 c-1.019-0.132-1.962-1.472-2.219-3.049c-0.221-1.328-0.717-2.802-1.998-2.802s-1.967-0.081-2.237-0.662 C10.004,20.025,10.419,18.788,12.937,18.788z"/><path fill="#a97540" d="M12.934,18.782c1.231,0,2.074,1.158,2.165,1.703c0.091,0.545,0.137,2.606,0.242,3.155 c0.114,0.599,0.281,1.931,0.966,2.222c0.346,0.147,1.461,0.251,1.496,0.487c0.035,0.236-0.487,0.767-1.101,0.69 c-1.047-0.13-1.96-1.52-2.218-3.111c-0.219-1.318-0.729-2.756-2-2.756s-1.981-0.07-2.248-0.655 C9.999,20.004,10.437,18.782,12.934,18.782z"/><path fill="#aa7541" d="M12.931,18.776c1.24,0,2.065,1.16,2.155,1.701c0.09,0.54,0.136,2.582,0.237,3.127 c0.111,0.6,0.275,1.986,0.991,2.285c0.345,0.144,1.437,0.238,1.47,0.468c0.033,0.231-0.478,0.739-1.08,0.668 c-1.076-0.128-1.959-1.569-2.218-3.174c-0.216-1.307-0.742-2.71-2.003-2.71s-1.995-0.058-2.259-0.647 C9.995,19.983,10.454,18.776,12.931,18.776z"/><path fill="#aa7642" d="M12.928,18.77c1.248,0,2.056,1.162,2.145,1.698c0.089,0.536,0.134,2.558,0.232,3.1 c0.108,0.6,0.268,2.042,1.015,2.347c0.344,0.141,1.412,0.224,1.444,0.45c0.032,0.225-0.468,0.712-1.059,0.645 c-1.104-0.125-1.957-1.617-2.217-3.236c-0.214-1.297-0.754-2.664-2.005-2.664s-2.009-0.046-2.27-0.639 C9.99,19.963,10.472,18.77,12.928,18.77z"/><path fill="#aa7743" d="M12.925,18.764c1.256,0,2.047,1.164,2.136,1.696c0.089,0.532,0.133,2.535,0.227,3.072 c0.105,0.601,0.261,2.097,1.04,2.41c0.344,0.138,1.388,0.211,1.418,0.431c0.031,0.22-0.459,0.685-1.037,0.623 c-1.132-0.122-1.955-1.665-2.217-3.299c-0.211-1.286-0.766-2.618-2.007-2.618s-2.023-0.034-2.281-0.631 C9.985,19.942,10.489,18.764,12.925,18.764z"/><path fill="#ab7844" d="M12.923,18.758c1.264,0,2.038,1.166,2.126,1.693c0.088,0.527,0.132,2.511,0.222,3.044 c0.101,0.601,0.254,2.153,1.065,2.473c0.343,0.135,1.363,0.198,1.392,0.413c0.029,0.214-0.45,0.658-1.016,0.6 c-1.16-0.119-1.95-1.714-2.216-3.362c-0.206-1.276-0.779-2.572-2.009-2.572s-2.037-0.022-2.292-0.623 C9.981,19.922,10.506,18.758,12.923,18.758z"/><path fill="#ab7845" d="M12.92,18.752c1.272,0,2.029,1.168,2.116,1.691c0.087,0.523,0.131,2.487,0.217,3.016 c0.098,0.602,0.247,2.21,1.09,2.535c0.342,0.132,1.339,0.185,1.367,0.394c0.028,0.209-0.441,0.631-0.995,0.577 c-1.189-0.116-1.949-1.763-2.215-3.424c-0.203-1.266-0.791-2.525-2.011-2.525s-2.052-0.01-2.303-0.615 C9.976,19.901,10.524,18.752,12.92,18.752z"/><path fill="#ac7946" d="M12.917,18.746c1.281,0,2.019,1.17,2.106,1.688c0.086,0.518,0.129,2.463,0.212,2.989 c0.095,0.603,0.24,2.266,1.115,2.598c0.341,0.129,1.314,0.172,1.341,0.375c0.027,0.203-0.431,0.605-0.974,0.555 c-1.217-0.112-1.947-1.811-2.215-3.487c-0.201-1.255-0.804-2.479-2.013-2.479s-2.066,0.001-2.315-0.607 C9.971,19.881,10.541,18.746,12.917,18.746z"/><path fill="#ac7a47" d="M12.914,18.74c1.289,0,2.01,1.172,2.096,1.686s0.128,2.44,0.207,2.961 c0.091,0.603,0.233,2.323,1.14,2.661c0.34,0.127,1.29,0.159,1.315,0.357c0.025,0.198-0.422,0.578-0.952,0.532 c-1.246-0.108-1.945-1.859-2.214-3.549c-0.198-1.245-0.816-2.433-2.015-2.433s-2.08,0.013-2.326-0.599 C9.966,19.86,10.559,18.74,12.914,18.74z"/><path fill="#ad7a47" d="M12.911,18.734c1.297,0,2.001,1.174,2.086,1.683c0.085,0.51,0.127,2.416,0.202,2.933 c0.088,0.604,0.226,2.38,1.165,2.723c0.339,0.124,1.265,0.145,1.289,0.338c0.024,0.192-0.413,0.552-0.931,0.509 c-1.274-0.104-1.944-1.908-2.214-3.612c-0.195-1.234-0.828-2.387-2.017-2.387s-2.094,0.025-2.337-0.591 C9.961,19.84,10.576,18.734,12.911,18.734z"/><path fill="#ad7b48" d="M12.909,18.728c1.305,0,1.992,1.176,2.076,1.681c0.084,0.505,0.125,2.392,0.197,2.905 c0.084,0.604,0.218,2.437,1.19,2.786c0.338,0.121,1.241,0.132,1.263,0.319c0.023,0.186-0.404,0.526-0.91,0.487 c-1.302-0.1-1.942-1.956-2.213-3.674c-0.193-1.224-0.841-2.341-2.019-2.341s-2.109,0.037-2.348-0.583 C9.956,19.819,10.593,18.728,12.909,18.728z"/><path fill="#ae7c49" d="M12.906,18.722c1.313,0,1.983,1.178,2.066,1.678c0.083,0.501,0.124,2.369,0.192,2.877 c0.081,0.605,0.211,2.494,1.214,2.849c0.337,0.119,1.216,0.119,1.237,0.301c0.021,0.181-0.395,0.499-0.889,0.464 c-1.331-0.095-1.941-2.004-2.213-3.737c-0.19-1.213-0.853-2.295-2.021-2.295s-2.123,0.049-2.359-0.575 C9.951,19.799,10.611,18.722,12.906,18.722z"/><path fill="#ae7c4a" d="M12.903,18.716c1.321,0,1.974,1.18,2.056,1.676c0.083,0.496,0.122,2.345,0.187,2.85 c0.077,0.606,0.204,2.552,1.239,2.911c0.336,0.116,1.192,0.106,1.212,0.282c0.02,0.175-0.386,0.473-0.868,0.441 c-1.359-0.09-1.939-2.052-2.212-3.8c-0.188-1.202-0.865-2.249-2.023-2.249s-2.138,0.061-2.37-0.567 C9.946,19.778,10.628,18.716,12.903,18.716z"/><path fill="#af7d4b" d="M12.9,18.71c1.33,0,1.964,1.182,2.046,1.673c0.082,0.492,0.121,2.321,0.182,2.822 c0.074,0.606,0.196,2.61,1.264,2.974c0.335,0.114,1.167,0.093,1.186,0.263c0.019,0.17-0.377,0.447-0.846,0.419 c-1.388-0.085-1.941-2.1-2.211-3.862c-0.188-1.192-0.878-2.203-2.025-2.203s-2.152,0.073-2.381-0.56 C9.941,19.758,10.646,18.71,12.9,18.71z"/><path fill="#af7e4c" d="M12.897,18.704c1.338,0,1.955,1.184,2.036,1.671c0.081,0.487,0.119,2.298,0.177,2.794 c0.07,0.607,0.188,2.668,1.289,3.037c0.334,0.112,1.143,0.08,1.16,0.245c0.017,0.164-0.367,0.422-0.825,0.396 c-1.416-0.079-1.939-2.149-2.211-3.925c-0.185-1.181-0.89-2.157-2.028-2.157s-2.167,0.085-2.392-0.552 C9.936,19.738,10.663,18.704,12.897,18.704z"/><path fill="#af7f4d" d="M12.895,18.698c1.346,0,1.946,1.185,2.027,1.669s0.118,2.274,0.172,2.766 c0.067,0.608,0.181,2.727,1.314,3.099c0.333,0.109,1.118,0.067,1.134,0.226c0.016,0.159-0.358,0.396-0.804,0.374 c-1.445-0.072-1.938-2.197-2.21-3.987c-0.182-1.17-0.902-2.111-2.03-2.111s-2.182,0.097-2.403-0.544 C9.931,19.717,10.68,18.698,12.895,18.698z"/><path fill="#b07f4e" d="M12.892,18.692c1.354,0,1.937,1.187,2.017,1.666s0.116,2.25,0.167,2.738 c0.063,0.608,0.173,2.786,1.339,3.162c0.332,0.107,1.094,0.053,1.108,0.207c0.015,0.153-0.349,0.37-0.783,0.351 c-1.474-0.066-1.936-2.245-2.21-4.05c-0.18-1.16-0.915-2.064-2.032-2.064s-2.196,0.11-2.414-0.536 C9.925,19.697,10.698,18.692,12.892,18.692z"/><path fill="#b0804f" d="M12.889,18.686c1.362,0,1.928,1.189,2.007,1.664c0.079,0.474,0.115,2.227,0.162,2.711 c0.059,0.609,0.165,2.845,1.364,3.225c0.331,0.105,1.069,0.04,1.083,0.189c0.013,0.148-0.34,0.345-0.761,0.328 c-1.502-0.058-1.935-2.294-2.209-4.113c-0.177-1.149-0.927-2.018-2.034-2.018s-2.211,0.122-2.425-0.528 C9.92,19.677,10.715,18.686,12.889,18.686z"/><path fill="#b18150" d="M12.886,18.68c1.371,0,1.919,1.191,1.997,1.661c0.078,0.47,0.113,2.203,0.157,2.683 c0.056,0.61,0.157,2.904,1.388,3.287c0.329,0.103,1.045,0.027,1.057,0.17c0.012,0.142-0.331,0.319-0.74,0.306 c-1.531-0.05-1.933-2.342-2.208-4.175c-0.175-1.139-0.94-1.972-2.036-1.972s-2.226,0.134-2.437-0.52 C9.915,19.656,10.733,18.68,12.886,18.68z"/><path fill="#b18151" d="M12.883,18.674c1.379,0,1.909,1.193,1.987,1.659c0.078,0.465,0.111,2.179,0.152,2.655 c0.052,0.61,0.149,2.964,1.413,3.35c0.328,0.1,1.02,0.014,1.031,0.152c0.011,0.137-0.322,0.294-0.719,0.283 c-1.559-0.042-1.932-2.39-2.208-4.238c-0.172-1.128-0.952-1.926-2.038-1.926s-2.241,0.146-2.448-0.512 C9.909,19.636,10.75,18.674,12.883,18.674z"/><path fill="#b28252" d="M12.881,18.668c1.387,0,1.9,1.195,1.977,1.656s0.11,2.156,0.147,2.627 c0.048,0.611,0.141,3.024,1.438,3.413c0.327,0.098,0.996,0.001,1.005,0.133c0.009,0.131-0.312,0.268-0.698,0.26 c-1.588-0.033-1.93-2.439-2.207-4.3c-0.169-1.118-0.964-1.88-2.04-1.88s-2.256,0.158-2.459-0.504 C9.904,19.616,10.767,18.668,12.881,18.668z"/><path fill="#b28353" d="M12.878,18.662c1.395,0,1.891,1.197,1.967,1.654c0.076,0.457,0.108,2.132,0.142,2.6 c0.044,0.611,0.133,3.084,1.463,3.475c0.326,0.096,0.971-0.012,0.979,0.114c0.008,0.126-0.303,0.243-0.676,0.238 c-1.616-0.023-1.928-2.487-2.207-4.363c-0.167-1.107-0.977-1.834-2.042-1.834s-2.271,0.17-2.47-0.496 C9.899,19.595,10.785,18.662,12.878,18.662z"/><path fill="#b38354" d="M12.875,18.656c1.403,0,1.882,1.199,1.957,1.651c0.075,0.452,0.106,2.108,0.137,2.572 c0.04,0.612,0.125,3.145,1.488,3.538c0.325,0.094,0.947-0.026,0.953,0.096c0.007,0.12-0.294,0.218-0.655,0.215 c-1.644-0.012-1.927-2.535-2.206-4.426c-0.164-1.097-0.989-1.788-2.044-1.788s-2.286,0.182-2.481-0.488 C9.893,19.575,10.802,18.656,12.875,18.656z"/><path fill="#b38455" d="M12.872,18.65c1.411,0,1.873,1.201,1.947,1.649c0.075,0.448,0.105,2.084,0.132,2.544 c0.036,0.613,0.117,3.205,1.513,3.6c0.324,0.092,0.922-0.039,0.928,0.077c0.005,0.115-0.285,0.193-0.634,0.193 c-1.673,0-1.925-2.583-2.205-4.488c-0.162-1.086-1.001-1.742-2.046-1.742s-2.302,0.195-2.492-0.48 C9.888,19.555,10.82,18.65,12.872,18.65z"/><path fill="#b48556" d="M12.869,18.644c1.42,0,1.863,1.203,1.937,1.646c0.074,0.443,0.103,2.061,0.127,2.516 c0.032,0.613,0.109,3.267,1.538,3.663c0.323,0.09,0.898-0.052,0.902,0.058c0.004,0.109-0.276,0.168-0.613,0.17 c-1.701,0.012-1.924-2.632-2.205-4.551c-0.159-1.076-1.014-1.696-2.048-1.696s-2.317,0.207-2.503-0.472 C9.882,19.534,10.837,18.644,12.869,18.644z"/><path fill="#b48657" d="M12.867,18.639c1.428,0,1.854,1.205,1.927,1.644c0.073,0.439,0.101,2.037,0.122,2.488 c0.028,0.614,0.1,3.328,1.563,3.726c0.322,0.088,0.873-0.065,0.876,0.04c0.003,0.104-0.266,0.142-0.591,0.147 c-1.729,0.026-1.922-2.68-2.204-4.613c-0.156-1.065-1.026-1.65-2.05-1.65s-2.332,0.219-2.514-0.465 C9.877,19.514,10.854,18.639,12.867,18.639z"/><path fill="#b58658" d="M12.864,18.633c1.436,0,1.845,1.207,1.918,1.641c0.072,0.435,0.099,2.013,0.117,2.461 c0.024,0.615,0.092,3.39,1.587,3.788c0.321,0.086,0.849-0.078,0.85,0.021c0.001,0.098-0.257,0.117-0.57,0.125 c-1.757,0.041-1.92-2.728-2.204-4.676c-0.154-1.055-1.038-1.603-2.052-1.603s-2.349,0.232-2.525-0.457 C9.87,19.494,10.872,18.633,12.864,18.633z"/><path fill="#b58759" d="M12.861,18.627c1.444,0,1.836,1.209,1.908,1.639s0.097,1.99,0.112,2.433 c0.02,0.615,0.083,3.452,1.612,3.851c0.32,0.084,0.824-0.091,0.824,0.002c0,0.093-0.247,0.092-0.549,0.102 c-1.785,0.057-1.919-2.777-2.203-4.739c-0.151-1.044-1.051-1.557-2.055-1.557s-2.363,0.243-2.536-0.449 C9.865,19.473,10.889,18.627,12.861,18.627z"/></g></svg>