<svg xmlns="http://www.w3.org/2000/svg" viewBox="0 0 48 48"><linearGradient id="TpBYtqXFIq6x_YJ8PV8aAa" x1="17.573" x2="17.39" y1="14.371" y2="22.593" gradientUnits="userSpaceOnUse"><stop offset=".51" stop-color="#ffe78f"/><stop offset=".771" stop-color="#d68814"/></linearGradient><path fill="url(#TpBYtqXFIq6x_YJ8PV8aAa)" d="M13.279,21.073c0,0,6.42-0.069,8.223,2.937l-0.621-5.541l-6.012,1.202L13.279,21.073z"/><radialGradient id="TpBYtqXFIq6x_YJ8PV8aAb" cx="24.489" cy="9.05" r="15.459" gradientUnits="userSpaceOnUse"><stop offset="0" stop-color="#ff4b3b"/><stop offset=".369" stop-color="#d83325"/><stop offset=".782" stop-color="#b21c10"/><stop offset="1" stop-color="#a31308"/></radialGradient><path fill="url(#TpBYtqXFIq6x_YJ8PV8aAb)" d="M21.094,15.04c-2.683-0.846-3.41-2.736-3.533-4.223c-0.063-0.756,0.813-1.204,1.415-0.742 c1.372,1.053,3.088,1.615,3.067,1.526c-0.678-2.894,0.637-4.782,1.82-5.841c0.562-0.503,1.444-0.1,1.455,0.654 c0.019,1.244,0.258,2.906,1.242,4.078c1.184-3.147,3.265-4.525,4.833-5.127c0.725-0.279,1.444,0.471,1.116,1.174 c-1.374,2.94-0.486,4.901-0.319,4.914c1.043,0.077,2.385-0.87,3.391-1.748c0.615-0.538,1.578,0.002,1.434,0.806 c-0.294,1.64-1.334,3.773-4.559,4.898C29.895,16.303,24.26,16.038,21.094,15.04z"/><path fill="#ffda96" d="M14.476,21.139c0,0,3.215-1.523,6.592-1.041l0.346,0.772c0,0-1.455-0.313-3.242-0.182 c-1.993,0.147-2.828,0.494-2.828,0.494L14.476,21.139z"/><path fill="#422d06" d="M13.482,21.105c0,0,3.03-1.555,6.407-1.072l0.116,0.507c0,0-1.368-0.243-3.17,0.064 c-1.97,0.336-2.36,0.535-2.36,0.535L13.482,21.105z"/><radialGradient id="TpBYtqXFIq6x_YJ8PV8aAc" cx="16.128" cy="19.036" r="4.071" gradientTransform="matrix(.8212 -.5706 .3381 .4866 -3.553 18.976)" gradientUnits="userSpaceOnUse"><stop offset="0" stop-color="#ffeaab"/><stop offset=".35" stop-color="#fadf77"/><stop offset=".545" stop-color="#f6d549"/><stop offset=".745" stop-color="#f3cc22"/><stop offset=".903" stop-color="#f1c609"/><stop offset="1" stop-color="#f0c400"/></radialGradient><path fill="url(#TpBYtqXFIq6x_YJ8PV8aAc)" d="M12.465,21.475c0,0,2.501-5.501,8.417-5.411c1.525,0.023,1.513,2.144,3.607,3.006 c0,0-1.975,2.422-3.006,1.804C18.477,19.07,12.465,21.475,12.465,21.475z"/><radialGradient id="TpBYtqXFIq6x_YJ8PV8aAd" cx="22.708" cy="13.212" r="20.451" gradientTransform="matrix(.0121 -.9999 .9308 .0113 10.135 35.77)" gradientUnits="userSpaceOnUse"><stop offset="0" stop-color="#ebedff"/><stop offset="0" stop-color="#dfe8f5"/><stop offset=".503" stop-color="#d3e3eb"/><stop offset=".626" stop-color="#cce0eb"/><stop offset=".808" stop-color="#b8d7ec"/><stop offset="1" stop-color="#9ccbed"/></radialGradient><path fill="url(#TpBYtqXFIq6x_YJ8PV8aAd)" d="M37.543,43.293c-2.655-7.09-1.606-12.482-2.084-16.79 c-1.158-10.44-6.191-13.294-10.387-13.294c-3.258,0-6.923,1.138-6.923,7.243c0,12.324-1.764,12.555-5.685,22.841H37.543z"/><radialGradient id="TpBYtqXFIq6x_YJ8PV8aAe" cx="18.52" cy="26.862" r="21.849" fx="32.825" fy="12.617" gradientTransform="matrix(.3295 -.9442 .5368 .1873 -2.001 39.316)" gradientUnits="userSpaceOnUse"><stop offset=".503" stop-color="#dceaf0"/><stop offset=".594" stop-color="#d3e5ec"/><stop offset=".738" stop-color="#bcd6e2"/><stop offset=".918" stop-color="#97bfd2"/><stop offset="1" stop-color="#83b3c9"/></radialGradient><path fill="url(#TpBYtqXFIq6x_YJ8PV8aAe)" d="M37.543,43.293c-2.655-7.09-1.606-12.482-2.084-16.79 c-1.158-10.44-6.191-13.294-10.387-13.294c-3.258,0-6.923,1.138-6.923,7.243c0,12.324-1.764,12.555-5.685,22.841H37.543z"/><radialGradient id="TpBYtqXFIq6x_YJ8PV8aAf" cx="17.018" cy="27.357" r="5.13" fx="11.981" fy="26.391" gradientTransform="matrix(.7593 .6507 -.9873 1.1522 31.106 -15.237)" gradientUnits="userSpaceOnUse"><stop offset=".327" stop-color="#ff4b3b"/><stop offset=".506" stop-color="#d43123"/><stop offset=".726" stop-color="#a31308"/></radialGradient><path fill="url(#TpBYtqXFIq6x_YJ8PV8aAf)" d="M14.971,28.257c0-1.642,2.237-6.481,3.177-6.481c0.871,0,2.771,4.839,2.771,6.481 s-1.331,2.974-2.974,2.974C16.302,31.231,14.971,29.899,14.971,28.257z"/><path fill="#b2c7d1" d="M26.099,18.751c0,0-0.723,2.455-2.882,2.455c-1.891,0-2.771-2.455-2.771-2.455 s0.889-2.455,2.8-2.455C25.328,16.296,26.099,18.751,26.099,18.751z"/><path fill="#cae2ed" d="M25.757,18.751c0,0-0.635,2.158-2.533,2.158c-1.662,0-2.435-2.158-2.435-2.158 s0.782-2.158,2.461-2.158C25.08,16.593,25.757,18.751,25.757,18.751z"/><radialGradient id="TpBYtqXFIq6x_YJ8PV8aAg" cx="23.249" cy="18.751" r="2.085" gradientUnits="userSpaceOnUse"><stop offset=".514" stop-color="#f08b11"/><stop offset=".832"/></radialGradient><path fill="url(#TpBYtqXFIq6x_YJ8PV8aAg)" d="M25.561,18.769c0,0-0.725,1.811-2.333,1.811c-1.41,0-2.29-1.877-2.29-1.877 s0.888-1.782,2.312-1.782C24.8,16.921,25.561,18.769,25.561,18.769z"/><circle cx="23.232" cy="18.715" r=".751"/><circle cx="22.753" cy="18.237" r=".395" fill="#fff"/></svg>