<svg xmlns="http://www.w3.org/2000/svg" viewBox="0 0 48 48"><linearGradient id="GG4N1ozG5Daq5Chx7ggr5a" x1="47.223" x2="56.441" y1="22.387" y2="22.387" gradientTransform="matrix(-1 0 0 1 86.897 0)" gradientUnits="userSpaceOnUse"><stop offset="0" stop-color="#ce8f62"/><stop offset=".183" stop-color="#ca8c5f"/><stop offset=".353" stop-color="#bf8455"/><stop offset=".517" stop-color="#ac7544"/><stop offset=".676" stop-color="#92612d"/><stop offset=".743" stop-color="#855721"/></linearGradient><path fill="url(#GG4N1ozG5Daq5Chx7ggr5a)" d="M34.838,35.075c0,0-2.349-12.066-3.086-13.955l0.983-11.244l0.444-0.177 c0,0,0.64,0.083,0.944,0.691c1.128,2.257,4.721,14.507,5.55,23.258C39.674,33.648,38.569,34.799,34.838,35.075z"/><linearGradient id="GG4N1ozG5Daq5Chx7ggr5b" x1="67.134" x2="45.026" y1="25.236" y2="25.236" gradientTransform="matrix(-1 0 0 1 86.897 0)" gradientUnits="userSpaceOnUse"><stop offset="0" stop-color="#cf8f62"/><stop offset=".152" stop-color="#c98a5c"/><stop offset=".363" stop-color="#b67c4c"/><stop offset=".61" stop-color="#996632"/><stop offset=".747" stop-color="#855721"/></linearGradient><path fill="url(#GG4N1ozG5Daq5Chx7ggr5b)" d="M33.18,9.699c0,0-1.059,10.362-1.059,14.738s1.888,13.709,1.612,16.426 c0,0-5.066,2.717-13.724,1.197l0.046-21.953l6.862-10.155l2.364-2.003C29.281,7.949,32.351,8.318,33.18,9.699z"/><linearGradient id="GG4N1ozG5Daq5Chx7ggr5c" x1="8.326" x2="17.544" y1="22.387" y2="22.387" gradientUnits="userSpaceOnUse"><stop offset="0" stop-color="#ce8f62"/><stop offset=".183" stop-color="#ca8c5f"/><stop offset=".353" stop-color="#bf8455"/><stop offset=".517" stop-color="#ac7544"/><stop offset=".676" stop-color="#92612d"/><stop offset=".743" stop-color="#855721"/></linearGradient><path fill="url(#GG4N1ozG5Daq5Chx7ggr5c)" d="M13.162,35.075c0,0,2.349-12.066,3.086-13.955l-0.639-10.884L14.82,9.699 c0,0-0.64,0.083-0.944,0.691c-1.128,2.257-4.721,14.507-5.55,23.258C8.326,33.648,9.431,34.799,13.162,35.075z"/><linearGradient id="GG4N1ozG5Daq5Chx7ggr5d" x1="23.939" x2="23.939" y1="5.969" y2="16.335" gradientUnits="userSpaceOnUse"><stop offset="0" stop-color="#6e4931"/><stop offset=".747" stop-color="#452e1a"/></linearGradient><path fill="url(#GG4N1ozG5Daq5Chx7ggr5d)" d="M20.623,6.107c0,0,1.009,0.426,3.235,0.426c2.326,0,3.335-0.426,3.335-0.426l0.998,1.428 l-4.298,6.831l-4.206-7.108L20.623,6.107z"/><path fill="#855b3c" d="M27.193,6.107l2.111,1.865l0.622,2.878l-2.802-0.207l2.157,1.957l-9.318,7.553 c0,0,6.881-10.742,7.323-12.32C27.623,6.629,27.193,6.107,27.193,6.107z"/><linearGradient id="GG4N1ozG5Daq5Chx7ggr5e" x1="33.617" x2="34.644" y1="14.454" y2="14.454" gradientTransform="matrix(-.866 .5 .7723 1.3376 44.54 -19.442)" gradientUnits="userSpaceOnUse"><stop offset="0" stop-color="#855b3c" stop-opacity="0"/><stop offset="1" stop-color="#36230d"/></linearGradient><polygon fill="url(#GG4N1ozG5Daq5Chx7ggr5e)" points="27.845,20.652 28.636,20.246 24.218,13.341 23.819,13.957"/><linearGradient id="GG4N1ozG5Daq5Chx7ggr5f" x1="31.538" x2="32.485" y1="31.327" y2="31.327" gradientTransform="matrix(-1 0 0 1 60.174 0)" gradientUnits="userSpaceOnUse"><stop offset="0" stop-color="#855b3c" stop-opacity="0"/><stop offset="1" stop-color="#36230d"/></linearGradient><polygon fill="url(#GG4N1ozG5Daq5Chx7ggr5f)" points="27.807,20.669 28.636,20.246 28.622,42.288 27.689,42.409"/><linearGradient id="GG4N1ozG5Daq5Chx7ggr5g" x1="28.237" x2="6.129" y1="25.564" y2="25.564" gradientUnits="userSpaceOnUse"><stop offset="0" stop-color="#cf8f62"/><stop offset=".152" stop-color="#c98a5c"/><stop offset=".363" stop-color="#b67c4c"/><stop offset=".61" stop-color="#996632"/><stop offset=".747" stop-color="#855721"/></linearGradient><path fill="url(#GG4N1ozG5Daq5Chx7ggr5g)" d="M14.82,9.699c0,0,1.059,10.362,1.059,14.738s-1.888,14.277-1.612,16.994 c0,0,4.997,2.464,13.724,1.543l-0.046-22.866L21.083,9.952l-2.364-2.003C18.719,7.949,15.649,8.318,14.82,9.699z"/><path fill="#855b3c" d="M20.623,6.107l-1.904,1.842l-0.768,2.809l2.74-0.115l-2.188,1.957l9.441,7.507 c0,0-6.973-10.696-7.415-12.274C20.193,6.629,20.623,6.107,20.623,6.107z"/><radialGradient id="GG4N1ozG5Daq5Chx7ggr5h" cx="20.853" cy="20.211" r="1.216" gradientUnits="userSpaceOnUse"><stop offset="0" stop-color="#70543e"/><stop offset="1" stop-color="#3b2616"/></radialGradient><circle cx="21.221" cy="20.676" r=".844" fill="url(#GG4N1ozG5Daq5Chx7ggr5h)"/><radialGradient id="GG4N1ozG5Daq5Chx7ggr5i" cx="25.942" cy="20.211" r="1.216" gradientUnits="userSpaceOnUse"><stop offset="0" stop-color="#70543e"/><stop offset="1" stop-color="#3b2616"/></radialGradient><circle cx="26.311" cy="20.676" r=".844" fill="url(#GG4N1ozG5Daq5Chx7ggr5i)"/><radialGradient id="GG4N1ozG5Daq5Chx7ggr5j" cx="20.853" cy="25.231" r="1.216" gradientUnits="userSpaceOnUse"><stop offset="0" stop-color="#70543e"/><stop offset="1" stop-color="#3b2616"/></radialGradient><circle cx="21.221" cy="25.696" r=".844" fill="url(#GG4N1ozG5Daq5Chx7ggr5j)"/><radialGradient id="GG4N1ozG5Daq5Chx7ggr5k" cx="25.942" cy="25.231" r="1.216" gradientUnits="userSpaceOnUse"><stop offset="0" stop-color="#70543e"/><stop offset="1" stop-color="#3b2616"/></radialGradient><circle cx="26.311" cy="25.696" r=".844" fill="url(#GG4N1ozG5Daq5Chx7ggr5k)"/><radialGradient id="GG4N1ozG5Daq5Chx7ggr5l" cx="20.853" cy="30.251" r="1.216" gradientUnits="userSpaceOnUse"><stop offset="0" stop-color="#70543e"/><stop offset="1" stop-color="#3b2616"/></radialGradient><circle cx="21.221" cy="30.716" r=".844" fill="url(#GG4N1ozG5Daq5Chx7ggr5l)"/><radialGradient id="GG4N1ozG5Daq5Chx7ggr5m" cx="25.942" cy="30.251" r="1.216" gradientUnits="userSpaceOnUse"><stop offset="0" stop-color="#70543e"/><stop offset="1" stop-color="#3b2616"/></radialGradient><circle cx="26.311" cy="30.716" r=".844" fill="url(#GG4N1ozG5Daq5Chx7ggr5m)"/></svg>