<svg xmlns="http://www.w3.org/2000/svg" viewBox="0 0 48 48"><linearGradient id="MuELhf3wvjyjMOfDRyzrma" x1="24" x2="24" y1="33.94" y2="22.364" gradientUnits="userSpaceOnUse"><stop offset="0" stop-color="#4d4d4d"/><stop offset=".219" stop-color="#424242"/><stop offset=".603" stop-color="#252525"/><stop offset="1"/></linearGradient><path fill="url(#MuELhf3wvjyjMOfDRyzrma)" d="M35.79,20.708l-11.643-0.812l0-0.021L24,19.887l-0.147-0.01l0,0.021L12.21,20.708 l-0.78,8.423c0,0,4.543-2.129,12.57-2.129c8.027,0,12.57,2.129,12.57,2.129L35.79,20.708z"/><radialGradient id="MuELhf3wvjyjMOfDRyzrmb" cx="24.352" cy="32.827" r="13.174" gradientTransform="matrix(1 0 0 .6013 0 13.088)" gradientUnits="userSpaceOnUse"><stop offset="0" stop-color="#262626"/><stop offset=".322" stop-color="#222"/><stop offset=".651" stop-color="#161616"/><stop offset=".982" stop-color="#010101"/><stop offset="1"/></radialGradient><path fill="url(#MuELhf3wvjyjMOfDRyzrmb)" d="M36.015,26.772c-1.097,1.067-2.156,3.237-2.65,5.154c-1.173,4.547-2.28,9.654-9.364,9.654 c-7.084,0-8.191-5.107-9.364-9.654c-0.494-1.918-1.553-4.087-2.65-5.154l-0.332,1.026c0.768,1.167,1.197,2.832,1.652,4.594 C14.482,36.957,15.47,42.636,24,42.636s9.518-5.679,10.695-10.243c0.455-1.762,0.884-3.427,1.652-4.594L36.015,26.772z"/><radialGradient id="MuELhf3wvjyjMOfDRyzrmc" cx="12.812" cy="27.158" r="6.191" gradientUnits="userSpaceOnUse"><stop offset="0" stop-color="#4d4d4d"/><stop offset=".219" stop-color="#424242"/><stop offset=".603" stop-color="#252525"/><stop offset="1"/></radialGradient><path fill="url(#MuELhf3wvjyjMOfDRyzrmc)" d="M13.381,19.98c0,0-0.615,1.57-1.041,5.12c-0.343,2.86-0.259,4.031-0.987,4.672 c-0.91,0.802-3.567-0.352-3.489-1.054c0.078-0.702,0.342-5.175,0.342-5.175l1.56-2.835L13.381,19.98z"/><radialGradient id="MuELhf3wvjyjMOfDRyzrmd" cx="36.506" cy="27.158" r="6.191" gradientTransform="matrix(-1 0 0 1 71.674 0)" gradientUnits="userSpaceOnUse"><stop offset="0" stop-color="#4d4d4d"/><stop offset=".219" stop-color="#424242"/><stop offset=".603" stop-color="#252525"/><stop offset="1"/></radialGradient><path fill="url(#MuELhf3wvjyjMOfDRyzrmd)" d="M34.599,19.98c0,0,0.615,1.57,1.041,5.12c0.343,2.86,0.259,4.031,0.987,4.672 c0.91,0.802,3.567-0.352,3.489-1.054c-0.078-0.702-0.342-5.175-0.342-5.175l-1.56-2.835L34.599,19.98z"/><radialGradient id="MuELhf3wvjyjMOfDRyzrme" cx="24" cy="16.455" r="14.65" gradientUnits="userSpaceOnUse"><stop offset=".008" stop-color="#a6b098"/><stop offset=".206" stop-color="#8e997e"/><stop offset=".556" stop-color="#6a7555"/><stop offset=".832" stop-color="#535f3c"/><stop offset="1" stop-color="#4b5733"/></radialGradient><path fill="url(#MuELhf3wvjyjMOfDRyzrme)" d="M39.691,19.183c-0.687-2.14-1.561-2.142-1.561-2.142S38.766,3.778,24,3.778 c-15.067,0-14.13,13.263-14.13,13.263s-0.874,0.002-1.561,2.142c-0.598,1.863-1.794,7.975-1.196,9.561 c0.197,0.522,0.936,0.364,0.936,0.364s0.17-6.161,2.133-7.178C12.34,20.812,24,20.943,24,20.943s11.66-0.13,13.818,0.988 c1.962,1.016,2.133,7.178,2.133,7.178s0.739,0.158,0.936-0.364C41.485,27.158,40.289,21.047,39.691,19.183z"/><radialGradient id="MuELhf3wvjyjMOfDRyzrmf" cx="23.688" cy="17.215" r="8.469" gradientUnits="userSpaceOnUse"><stop offset="0" stop-color="#4b5733"/><stop offset="1" stop-color="#4b5733"/></radialGradient><path fill="url(#MuELhf3wvjyjMOfDRyzrmf)" d="M35.647,17.863c-0.995-0.127-1.989-0.218-2.988-0.268 c-0.995-0.073-1.992-0.12-2.989-0.146c-1.994-0.053-3.987-0.095-5.982-0.085c-1.995-0.009-3.988,0.032-5.982,0.086 c-0.997,0.026-1.994,0.072-2.989,0.146c-0.998,0.049-1.992,0.14-2.988,0.267c1.931-0.572,3.939-0.827,5.937-1.025 c2.002-0.199,4.013-0.263,6.021-0.271c2.008,0.01,4.019,0.073,6.021,0.273C31.707,17.037,33.715,17.292,35.647,17.863z" opacity=".75"/><radialGradient id="MuELhf3wvjyjMOfDRyzrmg" cx="23.983" cy="43.508" r="7.363" gradientTransform="matrix(1 0 0 .4687 0 23.116)" gradientUnits="userSpaceOnUse"><stop offset="0" stop-color="#383838"/><stop offset=".244" stop-color="#313131"/><stop offset=".589" stop-color="#1f1f1f"/><stop offset=".994"/><stop offset="1"/></radialGradient><path fill="url(#MuELhf3wvjyjMOfDRyzrmg)" d="M29.277,41.379c0,1.57-2.351,2.843-5.251,2.843s-5.251-1.273-5.251-2.843 c0-1.57,2.351,0,5.251,0S29.277,39.809,29.277,41.379z"/></svg>