<svg xmlns="http://www.w3.org/2000/svg" viewBox="0 0 48 48"><linearGradient id="ek37NAUpCNggvCXEF17mNa" x1="24" x2="24" y1="42.444" y2="35.309" gradientUnits="userSpaceOnUse"><stop offset="0" stop-color="#262c30"/><stop offset=".193" stop-color="#2f3538"/><stop offset=".511" stop-color="#484c4e"/><stop offset=".913" stop-color="#707171"/><stop offset="1" stop-color="#7a7a7a"/></linearGradient><path fill="url(#ek37NAUpCNggvCXEF17mNa)" d="M11.412,38.687c0,1.986,1.61,3.596,3.596,3.596h17.982c1.986,0,3.596-1.61,3.596-3.596V37 H11.412V38.687z"/><linearGradient id="ek37NAUpCNggvCXEF17mNb" x1="32.306" x2="36.411" y1="20.577" y2="11.488" gradientUnits="userSpaceOnUse"><stop offset="0" stop-color="#ff511c"/><stop offset=".133" stop-color="#ea4715"/><stop offset=".354" stop-color="#cd3a0c"/><stop offset=".573" stop-color="#b93005"/><stop offset=".79" stop-color="#ac2a01"/><stop offset="1" stop-color="#a82800"/></linearGradient><path fill="url(#ek37NAUpCNggvCXEF17mNb)" d="M32.969,16.533c0,0,2.589-4.779,1.707-7.091l1.765-1.675h1.417 c1.317,4.134-2.292,11.464-2.292,11.464L32.969,16.533z"/><linearGradient id="ek37NAUpCNggvCXEF17mNc" x1="32.939" x2="32.874" y1="4.291" y2="23.269" gradientUnits="userSpaceOnUse"><stop offset="0" stop-color="#ff511c"/><stop offset=".133" stop-color="#ea4715"/><stop offset=".354" stop-color="#cd3a0c"/><stop offset=".573" stop-color="#b93005"/><stop offset=".79" stop-color="#ac2a01"/><stop offset="1" stop-color="#a82800"/></linearGradient><path fill="url(#ek37NAUpCNggvCXEF17mNc)" d="M31.564,16.122h-3.596c0-5.546,4.173-9.89,6.743-9.89c1.872,0,3.147,1.534,3.147,1.534 C36.373,7.766,31.564,12.519,31.564,16.122z"/><linearGradient id="ek37NAUpCNggvCXEF17mNd" x1="7.276" x2="11.38" y1="20.577" y2="11.488" gradientTransform="matrix(-1 0 0 1 23 0)" gradientUnits="userSpaceOnUse"><stop offset="0" stop-color="#ff511c"/><stop offset=".133" stop-color="#ea4715"/><stop offset=".354" stop-color="#cd3a0c"/><stop offset=".573" stop-color="#b93005"/><stop offset=".79" stop-color="#ac2a01"/><stop offset="1" stop-color="#a82800"/></linearGradient><path fill="url(#ek37NAUpCNggvCXEF17mNd)" d="M15.061,16.533c0,0-2.589-4.779-1.707-7.091l-1.765-1.675h-1.417 C8.855,11.9,12.464,19.23,12.464,19.23L15.061,16.533z"/><linearGradient id="ek37NAUpCNggvCXEF17mNe" x1="7.909" x2="7.844" y1="4.205" y2="23.183" gradientTransform="matrix(-1 0 0 1 23 0)" gradientUnits="userSpaceOnUse"><stop offset="0" stop-color="#ff511c"/><stop offset=".133" stop-color="#ea4715"/><stop offset=".354" stop-color="#cd3a0c"/><stop offset=".573" stop-color="#b93005"/><stop offset=".79" stop-color="#ac2a01"/><stop offset="1" stop-color="#a82800"/></linearGradient><path fill="url(#ek37NAUpCNggvCXEF17mNe)" d="M16.466,16.122h3.596c0-5.546-4.173-9.89-6.743-9.89c-1.872,0-3.147,1.534-3.147,1.534 C11.658,7.766,16.466,12.519,16.466,16.122z"/><linearGradient id="ek37NAUpCNggvCXEF17mNf" x1="23.738" x2="24.456" y1="14.158" y2="3.332" gradientUnits="userSpaceOnUse"><stop offset="0" stop-color="#262c30"/><stop offset=".19" stop-color="#2e3437"/><stop offset=".49" stop-color="#45494c"/><stop offset=".862" stop-color="#6a6c6c"/><stop offset="1" stop-color="#7a7a7a"/></linearGradient><path fill="url(#ek37NAUpCNggvCXEF17mNf)" d="M24,14.708c-2.975,0-5.395-2.017-5.395-4.496S21.025,5.717,24,5.717 s5.395,2.017,5.395,4.496S26.975,14.708,24,14.708z M24,7.515c-1.984,0-3.596,1.21-3.596,2.697S22.016,12.91,24,12.91 s3.596-1.21,3.596-2.697S25.984,7.515,24,7.515z"/><linearGradient id="ek37NAUpCNggvCXEF17mNg" x1="10.513" x2="10.513" y1="22.391" y2="47.999" gradientUnits="userSpaceOnUse"><stop offset="0" stop-color="#ff511c"/><stop offset=".133" stop-color="#ea4715"/><stop offset=".354" stop-color="#cd3a0c"/><stop offset=".573" stop-color="#b93005"/><stop offset=".79" stop-color="#ac2a01"/><stop offset="1" stop-color="#a82800"/></linearGradient><path fill="url(#ek37NAUpCNggvCXEF17mNg)" d="M12.761,37.436h-2.496c-1.105,0-2-0.895-2-2v-7.689c0-1.105,0.895-2,2-2h2.496V37.436z"/><linearGradient id="ek37NAUpCNggvCXEF17mNh" x1="37.487" x2="37.487" y1="22.391" y2="47.999" gradientUnits="userSpaceOnUse"><stop offset="0" stop-color="#ff511c"/><stop offset=".133" stop-color="#ea4715"/><stop offset=".354" stop-color="#cd3a0c"/><stop offset=".573" stop-color="#b93005"/><stop offset=".79" stop-color="#ac2a01"/><stop offset="1" stop-color="#a82800"/></linearGradient><path fill="url(#ek37NAUpCNggvCXEF17mNh)" d="M35.239,37.436h2.496c1.105,0,2-0.895,2-2v-7.689c0-1.105-0.895-2-2-2h-2.496V37.436z"/><linearGradient id="ek37NAUpCNggvCXEF17mNi" x1="24" x2="24" y1="9.086" y2="43.408" gradientUnits="userSpaceOnUse"><stop offset="0" stop-color="#ff511c"/><stop offset=".025" stop-color="#fc501b"/><stop offset=".692" stop-color="#b13008"/><stop offset="1" stop-color="#942300"/></linearGradient><path fill="url(#ek37NAUpCNggvCXEF17mNi)" d="M36.588,38.687H11.412V19.601c0-5.807,4.708-10.515,10.515-10.515h4.146 c5.807,0,10.515,4.708,10.515,10.515V38.687z"/><path fill="#404040" d="M35.239,24.428H34.34v-4.552c0-4.71-3.832-8.542-8.542-8.542h-3.596 c-4.71,0-8.542,3.832-8.542,8.542v4.552h-0.899v-4.552c0-5.206,4.235-9.441,9.441-9.441h3.596c5.206,0,9.441,4.235,9.441,9.441 V24.428z"/><linearGradient id="ek37NAUpCNggvCXEF17mNj" x1="24" x2="24" y1="9.162" y2="15.793" gradientUnits="userSpaceOnUse"><stop offset="0" stop-color="#d4eeff"/><stop offset=".236" stop-color="#b5cfe1"/><stop offset=".752" stop-color="#658194"/><stop offset=".953" stop-color="#446175"/></linearGradient><path fill="url(#ek37NAUpCNggvCXEF17mNj)" d="M25.351,10.789c-0.029-0.203-0.203-0.354-0.408-0.354h-0.061 c-0.206,0-0.38,0.151-0.408,0.355l-0.263,1.873c-0.035,0.248,0.158,0.47,0.408,0.47h0.592c0.251,0,0.444-0.222,0.408-0.471 L25.351,10.789z M25.144,12.786h-0.456c-0.083,0-0.147-0.084-0.138-0.18l0.045-0.483c0.008-0.082,0.067-0.145,0.138-0.145h0.363 c0.07,0,0.13,0.062,0.138,0.144l0.048,0.483C25.291,12.701,25.227,12.786,25.144,12.786z M23.522,10.789 c-0.029-0.203-0.203-0.354-0.408-0.354h-0.061c-0.206,0-0.38,0.151-0.408,0.355l-0.263,1.873c-0.035,0.248,0.158,0.47,0.408,0.47 h0.592c0.251,0,0.444-0.222,0.408-0.471L23.522,10.789z M23.316,12.786H22.86c-0.083,0-0.147-0.084-0.138-0.18l0.045-0.483 c0.008-0.082,0.067-0.145,0.138-0.145h0.363c0.07,0,0.13,0.062,0.138,0.144l0.048,0.483 C23.463,12.701,23.399,12.786,23.316,12.786z"/><linearGradient id="ek37NAUpCNggvCXEF17mNk" x1="24" x2="24" y1="23.904" y2="41.448" gradientUnits="userSpaceOnUse"><stop offset="0" stop-color="#ff511c"/><stop offset=".251" stop-color="#e34211"/><stop offset=".518" stop-color="#cc3607"/><stop offset=".771" stop-color="#bf2e02"/><stop offset=".995" stop-color="#ba2c00"/></linearGradient><path fill="url(#ek37NAUpCNggvCXEF17mNk)" d="M30.89,37H17.11c-1.657,0-3-1.343-3-3v-5.689c0-1.657,1.343-3,3-3H30.89 c1.657,0,3,1.343,3,3V34C33.89,35.657,32.547,37,30.89,37z"/><rect width="16.184" height=".899" x="15.908" y="28.009" fill="#404040"/><linearGradient id="ek37NAUpCNggvCXEF17mNl" x1="31.972" x2="31.972" y1="25.913" y2="33.979" gradientUnits="userSpaceOnUse"><stop offset="0" stop-color="#d4eeff"/><stop offset=".236" stop-color="#b5cfe1"/><stop offset=".752" stop-color="#658194"/><stop offset=".953" stop-color="#446175"/></linearGradient><path fill="url(#ek37NAUpCNggvCXEF17mNl)" d="M32.408,28.363c-0.029-0.203-0.203-0.354-0.408-0.354h-0.061 c-0.206,0-0.38,0.151-0.408,0.355l-0.263,1.873c-0.035,0.248,0.158,0.47,0.408,0.47h0.592c0.251,0,0.444-0.222,0.408-0.471 L32.408,28.363z M32.202,30.359h-0.456c-0.083,0-0.147-0.084-0.138-0.18l0.045-0.483c0.008-0.082,0.067-0.145,0.138-0.145h0.363 c0.07,0,0.13,0.062,0.138,0.144l0.048,0.483C32.349,30.274,32.285,30.359,32.202,30.359z"/><linearGradient id="ek37NAUpCNggvCXEF17mNm" x1="24" x2="24" y1="12.161" y2="19.015" gradientUnits="userSpaceOnUse"><stop offset="0" stop-color="#f5f5f5"/><stop offset=".227" stop-color="#e9e8e7"/><stop offset=".654" stop-color="#c9c6c2"/><stop offset="1" stop-color="#aba6a0"/></linearGradient><path fill="url(#ek37NAUpCNggvCXEF17mNm)" d="M25.986,16.848l-1.49-1.49c-0.274-0.274-0.719-0.274-0.993,0l-1.49,1.49 c-0.274,0.274-0.274,0.719,0,0.993l1.49,1.49c0.274,0.274,0.719,0.274,0.993,0l1.49-1.49 C26.261,17.567,26.261,17.122,25.986,16.848z M23.606,18.046c0,0.183-0.148,0.331-0.331,0.331c-0.183,0-0.331-0.148-0.331-0.331 v-1.403c0-0.183,0.148-0.331,0.331-0.331c0.183,0,0.331,0.148,0.331,0.331V18.046z M25.025,18.046 c0,0.183-0.148,0.331-0.331,0.331c-0.183,0-0.331-0.148-0.331-0.331v-1.403c0-0.183,0.148-0.331,0.331-0.331 c0.183,0,0.331,0.148,0.331,0.331V18.046z"/></svg>