<svg xmlns="http://www.w3.org/2000/svg" viewBox="0 0 48 48"><path d="M46.928,18.556c0,0-5.223-0.958-10.23-0.958c-5.007,0-10.015,1.749-12.698,1.749s-7.691-1.749-12.698-1.749 s-10.23,0.958-10.23,0.958L1,21.575c0,0,0.503,0.096,1.414,0.599c2.022,1.117-0.91,10.374,9.823,10.374 c9.535,0,8.505-7.738,10.47-9.511C23.104,22.678,24,22.581,24,22.581s0.896,0.096,1.294,0.455 c1.965,1.773,0.934,9.511,10.47,9.511c10.733,0,7.801-9.256,9.823-10.374C46.497,21.671,47,21.575,47,21.575L46.928,18.556z"/><linearGradient id="S_GEJdY0BUwgdGJwttRhPa" x1="12.612" x2="12.612" y1="31.018" y2="19.422" gradientUnits="userSpaceOnUse"><stop offset="0" stop-color="#d1f4ff"/><stop offset=".069" stop-color="#afd0db"/><stop offset=".174" stop-color="#839faa"/><stop offset=".277" stop-color="#5e7782"/><stop offset=".379" stop-color="#415863"/><stop offset=".477" stop-color="#2d424d"/><stop offset=".571" stop-color="#203540"/><stop offset=".655" stop-color="#1c303b"/></linearGradient><path fill="url(#S_GEJdY0BUwgdGJwttRhPa)" d="M19.905,22.017c0.299,2.436-0.406,9.209-8.376,8.995c-6.75-0.181-6.923-8.248-5.641-10.042 C7.585,18.595,19.567,19.266,19.905,22.017z"/><linearGradient id="S_GEJdY0BUwgdGJwttRhPb" x1="12.549" x2="12.549" y1="25.648" y2="20.598" gradientUnits="userSpaceOnUse"><stop offset=".294" stop-color="#b3e6ff" stop-opacity=".3"/><stop offset="1" stop-color="#e8f9ff"/></linearGradient><path fill="url(#S_GEJdY0BUwgdGJwttRhPb)" d="M18.628,25.104c0.321-1.213,0.347-2.383,0.258-3.111c-0.077-0.476-2.673-1.639-7.137-1.639 c-3.181,0-4.824,0.64-5.111,1.042c-0.353,0.495-0.626,1.732-0.366,3.342C10.2,23.396,15.327,23.684,18.628,25.104z"/><linearGradient id="S_GEJdY0BUwgdGJwttRhPc" x1="-84.312" x2="-84.312" y1="31.018" y2="19.422" gradientTransform="matrix(-1 0 0 1 -48.924 0)" gradientUnits="userSpaceOnUse"><stop offset="0" stop-color="#d1f4ff"/><stop offset=".069" stop-color="#afd0db"/><stop offset=".174" stop-color="#839faa"/><stop offset=".277" stop-color="#5e7782"/><stop offset=".379" stop-color="#415863"/><stop offset=".477" stop-color="#2d424d"/><stop offset=".571" stop-color="#203540"/><stop offset=".655" stop-color="#1c303b"/></linearGradient><path fill="url(#S_GEJdY0BUwgdGJwttRhPc)" d="M28.095,22.017c-0.299,2.436,0.406,9.209,8.376,8.995c6.75-0.181,6.923-8.248,5.641-10.042 C40.415,18.595,28.433,19.266,28.095,22.017z"/><linearGradient id="S_GEJdY0BUwgdGJwttRhPd" x1="-84.375" x2="-84.375" y1="25.648" y2="20.598" gradientTransform="matrix(-1 0 0 1 -48.924 0)" gradientUnits="userSpaceOnUse"><stop offset=".294" stop-color="#b3e6ff" stop-opacity=".3"/><stop offset="1" stop-color="#e8f9ff"/></linearGradient><path fill="url(#S_GEJdY0BUwgdGJwttRhPd)" d="M29.372,25.104c-0.321-1.213-0.347-2.383-0.258-3.111c0.077-0.476,2.673-1.639,7.137-1.639 c3.181,0,4.824,0.64,5.111,1.042c0.353,0.495,0.626,1.732,0.366,3.342C37.8,23.396,32.673,23.684,29.372,25.104z"/><linearGradient id="S_GEJdY0BUwgdGJwttRhPe" x1="24.048" x2="24.048" y1="17.298" y2="22.681" gradientUnits="userSpaceOnUse"><stop offset="0" stop-color="#fff"/><stop offset=".076" stop-color="#d0d0d0"/><stop offset=".166" stop-color="#a0a0a0"/><stop offset=".262" stop-color="#757575"/><stop offset=".36" stop-color="#515151"/><stop offset=".464" stop-color="#333"/><stop offset=".573" stop-color="#1d1d1d"/><stop offset=".691" stop-color="#0d0d0d"/><stop offset=".823" stop-color="#030303"/><stop offset="1"/></linearGradient><path fill="url(#S_GEJdY0BUwgdGJwttRhPe)" d="M43.694,20.154c-1.422-0.91-3.124-1.207-4.768-1.391c-1.66-0.159-3.338-0.144-4.997,0.008 c-1.659,0.165-3.298,0.463-4.907,0.911c-1.607,0.421-3.222,0.791-4.975,0.801c-1.75-0.024-3.364-0.389-4.973-0.806 c-1.61-0.445-3.25-0.74-4.908-0.906c-1.659-0.152-3.337-0.167-4.997-0.008c-1.644,0.183-3.345,0.48-4.768,1.39 c1.381-0.979,3.086-1.364,4.739-1.627c1.676-0.211,3.37-0.237,5.056-0.13c1.687,0.107,3.361,0.422,4.992,0.85 c1.629,0.412,3.23,0.742,4.86,0.748c1.631,0.009,3.23-0.327,4.858-0.741c1.63-0.431,3.304-0.747,4.991-0.855 c1.686-0.108,3.379-0.082,5.056,0.13C40.608,18.79,42.313,19.175,43.694,20.154z"/></svg>