<svg xmlns="http://www.w3.org/2000/svg" viewBox="0 0 48 48"><linearGradient id="fzWegN4YgoZ0~V0zXPaEDa" x1="34.767" x2="45" y1="31.538" y2="31.538" gradientUnits="userSpaceOnUse"><stop offset="0" stop-color="#cc5929"/><stop offset="1" stop-color="#a63f1b"/></linearGradient><polygon fill="url(#fzWegN4YgoZ0~V0zXPaEDa)" points="34.882,28.468 34.767,37.894 44.596,33.859 45,25.182"/><linearGradient id="fzWegN4YgoZ0~V0zXPaEDb" x1="21.906" x2="48.271" y1="23.042" y2="28.178" gradientUnits="userSpaceOnUse"><stop offset=".016" stop-color="#e05f29"/><stop offset="1" stop-color="#ff7d4a"/></linearGradient><polygon fill="url(#fzWegN4YgoZ0~V0zXPaEDb)" points="34.882,28.468 25.196,25.845 32.23,22.155 45,25.182"/><linearGradient id="fzWegN4YgoZ0~V0zXPaEDc" x1="20.805" x2="38.609" y1="29.002" y2="34.309" gradientUnits="userSpaceOnUse"><stop offset="0" stop-color="#782304"/><stop offset=".979" stop-color="#b85025"/></linearGradient><polygon fill="url(#fzWegN4YgoZ0~V0zXPaEDc)" points="34.767,37.894 19.662,32.706 25.196,25.845 34.882,28.468"/><linearGradient id="fzWegN4YgoZ0~V0zXPaEDd" x1="26.257" x2="26.257" y1="27.74" y2="37.509" gradientUnits="userSpaceOnUse"><stop offset=".011" stop-color="#571600"/><stop offset=".265" stop-color="#5b1801" stop-opacity=".743"/><stop offset=".495" stop-color="#661f06" stop-opacity=".51"/><stop offset=".716" stop-color="#782b0d" stop-opacity=".287"/><stop offset=".929" stop-color="#923b17" stop-opacity=".072"/><stop offset="1" stop-color="#9c411b" stop-opacity="0"/></linearGradient><polygon fill="url(#fzWegN4YgoZ0~V0zXPaEDd)" points="29.005,35.915 23.371,33.98 29.142,26.914" opacity=".75"/><linearGradient id="fzWegN4YgoZ0~V0zXPaEDe" x1="14.773" x2="38.312" y1="38.272" y2="10.281" gradientUnits="userSpaceOnUse"><stop offset="0" stop-color="#a63f1b"/><stop offset="1" stop-color="#cc5929"/></linearGradient><polygon fill="url(#fzWegN4YgoZ0~V0zXPaEDe)" points="13.81,33.311 18.48,39.97 37.159,17.096 34.046,9.918"/><linearGradient id="fzWegN4YgoZ0~V0zXPaEDf" x1="7.285" x2="29.626" y1="33.396" y2="6.946" gradientUnits="userSpaceOnUse"><stop offset=".016" stop-color="#e05f29"/><stop offset="1" stop-color="#ff7d4a"/></linearGradient><polygon fill="url(#fzWegN4YgoZ0~V0zXPaEDf)" points="13.81,33.311 3,29.131 22.544,8.03 34.046,9.918 18.523,27.863 18.774,29.131 17.426,29.131"/><linearGradient id="fzWegN4YgoZ0~V0zXPaEDg" x1="11.014" x2="10.5" y1="29.442" y2="39.029" gradientUnits="userSpaceOnUse"><stop offset=".021" stop-color="#b85025"/><stop offset="1" stop-color="#782304"/></linearGradient><polyline fill="url(#fzWegN4YgoZ0~V0zXPaEDg)" points="13.81,33.311 18.48,39.97 7.843,35.43 3,29.131"/><linearGradient id="fzWegN4YgoZ0~V0zXPaEDh" x1="27.792" x2="38.449" y1="25.607" y2="22.525" gradientUnits="userSpaceOnUse"><stop offset=".011" stop-color="#571600"/><stop offset=".222" stop-color="#5d1a02" stop-opacity=".786"/><stop offset=".5" stop-color="#6d2409" stop-opacity=".506"/><stop offset=".813" stop-color="#883513" stop-opacity=".19"/><stop offset="1" stop-color="#9c411b" stop-opacity="0"/></linearGradient><polygon fill="url(#fzWegN4YgoZ0~V0zXPaEDh)" points="29.142,26.914 34.882,25.312 39.803,23.95 32.898,22.314" opacity=".75"/><linearGradient id="fzWegN4YgoZ0~V0zXPaEDi" x1="16.976" x2="18.055" y1="28.782" y2="27.504" gradientUnits="userSpaceOnUse"><stop offset="0" stop-color="#a63f1b"/><stop offset="1" stop-color="#cc5929"/></linearGradient><polygon fill="url(#fzWegN4YgoZ0~V0zXPaEDi)" points="17.426,29.131 18.523,27.863 17.062,27.769"/><linearGradient id="fzWegN4YgoZ0~V0zXPaEDj" x1="34.874" x2="34.874" y1="31.03" y2="26.907" gradientUnits="userSpaceOnUse"><stop offset=".016" stop-color="#e05f29"/><stop offset="1" stop-color="#ff7d4a"/></linearGradient><polygon fill="url(#fzWegN4YgoZ0~V0zXPaEDj)" points="34.29,28.308 34.882,30.971 35.458,28.281"/><linearGradient id="fzWegN4YgoZ0~V0zXPaEDk" x1="18.595" x2="18.613" y1="20.637" y2="20.615" gradientUnits="userSpaceOnUse"><stop offset="0" stop-color="#a63f1b"/><stop offset="1" stop-color="#cc5929"/></linearGradient><path fill="url(#fzWegN4YgoZ0~V0zXPaEDk)" d="M18.553,20.564c0.042,0.037,0.077,0.079,0.102,0.124 C18.632,20.642,18.595,20.602,18.553,20.564z"/><linearGradient id="fzWegN4YgoZ0~V0zXPaEDl" x1="17.56" x2="18.247" y1="21.141" y2="20.329" gradientUnits="userSpaceOnUse"><stop offset="0" stop-color="#a63f1b"/><stop offset="1" stop-color="#cc5929"/></linearGradient><path fill="url(#fzWegN4YgoZ0~V0zXPaEDl)" d="M17.802,21.001c0-0.25,0.287-0.453,0.642-0.453c0.039,0,0.072,0.011,0.109,0.016 c-0.118-0.105-0.292-0.177-0.496-0.177c-0.355,0-0.642,0.203-0.642,0.453c0,0.223,0.232,0.4,0.533,0.437 C17.861,21.201,17.802,21.107,17.802,21.001z"/><linearGradient id="fzWegN4YgoZ0~V0zXPaEDm" x1="17.673" x2="18.601" y1="20.726" y2="21.04" gradientUnits="userSpaceOnUse"><stop offset=".016" stop-color="#e05f29"/><stop offset="1" stop-color="#ff7d4a"/></linearGradient><path fill="url(#fzWegN4YgoZ0~V0zXPaEDm)" d="M17.802,21.001c0,0.106,0.06,0.199,0.146,0.276c0.037,0.005,0.071,0.016,0.109,0.016 c0.355,0,0.642-0.203,0.642-0.453c0-0.106-0.06-0.199-0.146-0.276c-0.037-0.005-0.071-0.016-0.109-0.016 C18.089,20.548,17.802,20.751,17.802,21.001z"/><linearGradient id="fzWegN4YgoZ0~V0zXPaEDn" x1="26.022" x2="26.041" y1="12.237" y2="12.215" gradientUnits="userSpaceOnUse"><stop offset="0" stop-color="#a63f1b"/><stop offset="1" stop-color="#cc5929"/></linearGradient><path fill="url(#fzWegN4YgoZ0~V0zXPaEDn)" d="M25.981,12.164c0.042,0.037,0.077,0.079,0.102,0.124 C26.059,12.241,26.023,12.202,25.981,12.164z"/><linearGradient id="fzWegN4YgoZ0~V0zXPaEDo" x1="24.988" x2="25.674" y1="12.741" y2="11.928" gradientUnits="userSpaceOnUse"><stop offset="0" stop-color="#a63f1b"/><stop offset="1" stop-color="#cc5929"/></linearGradient><path fill="url(#fzWegN4YgoZ0~V0zXPaEDo)" d="M25.229,12.601c0-0.25,0.287-0.453,0.642-0.453c0.039,0,0.072,0.011,0.109,0.016 c-0.118-0.105-0.292-0.177-0.496-0.177c-0.355,0-0.642,0.203-0.642,0.453c0,0.223,0.232,0.4,0.533,0.437 C25.289,12.8,25.229,12.707,25.229,12.601z"/><linearGradient id="fzWegN4YgoZ0~V0zXPaEDp" x1="25.101" x2="26.028" y1="12.325" y2="12.639" gradientUnits="userSpaceOnUse"><stop offset=".016" stop-color="#e05f29"/><stop offset="1" stop-color="#ff7d4a"/></linearGradient><path fill="url(#fzWegN4YgoZ0~V0zXPaEDp)" d="M25.229,12.601c0,0.106,0.06,0.199,0.146,0.276c0.037,0.005,0.071,0.016,0.109,0.016 c0.355,0,0.642-0.203,0.642-0.453c0-0.106-0.06-0.199-0.146-0.276c-0.037-0.005-0.071-0.016-0.109-0.016 C25.517,12.148,25.229,12.351,25.229,12.601z"/><g><linearGradient id="fzWegN4YgoZ0~V0zXPaEDq" x1="28.743" x2="28.755" y1="11.635" y2="11.621" gradientUnits="userSpaceOnUse"><stop offset="0" stop-color="#a63f1b"/><stop offset="1" stop-color="#cc5929"/></linearGradient><path fill="url(#fzWegN4YgoZ0~V0zXPaEDq)" d="M28.716,11.587c0.027,0.024,0.05,0.051,0.067,0.08 C28.767,11.638,28.743,11.612,28.716,11.587z"/><linearGradient id="fzWegN4YgoZ0~V0zXPaEDr" x1="28.07" x2="28.517" y1="11.963" y2="11.434" gradientUnits="userSpaceOnUse"><stop offset="0" stop-color="#a63f1b"/><stop offset="1" stop-color="#cc5929"/></linearGradient><path fill="url(#fzWegN4YgoZ0~V0zXPaEDr)" d="M28.227,11.872c0-0.163,0.187-0.295,0.418-0.295c0.025,0,0.047,0.007,0.071,0.01 c-0.077-0.068-0.19-0.115-0.323-0.115c-0.231,0-0.418,0.132-0.418,0.295c0,0.145,0.151,0.26,0.347,0.285 C28.266,12.002,28.227,11.941,28.227,11.872z"/><linearGradient id="fzWegN4YgoZ0~V0zXPaEDs" x1="28.144" x2="28.747" y1="11.693" y2="11.897" gradientUnits="userSpaceOnUse"><stop offset=".016" stop-color="#e05f29"/><stop offset="1" stop-color="#ff7d4a"/></linearGradient><path fill="url(#fzWegN4YgoZ0~V0zXPaEDs)" d="M28.227,11.872c0,0.069,0.039,0.13,0.095,0.18c0.024,0.003,0.046,0.01,0.071,0.01 c0.231,0,0.418-0.132,0.418-0.295c0-0.069-0.039-0.13-0.095-0.18c-0.024-0.003-0.046-0.01-0.071-0.01 C28.414,11.577,28.227,11.709,28.227,11.872z"/></g><g><linearGradient id="fzWegN4YgoZ0~V0zXPaEDt" x1="24.35" x2="24.362" y1="9.786" y2="9.772" gradientUnits="userSpaceOnUse"><stop offset="0" stop-color="#a63f1b"/><stop offset="1" stop-color="#cc5929"/></linearGradient><path fill="url(#fzWegN4YgoZ0~V0zXPaEDt)" d="M24.323,9.739c0.027,0.024,0.05,0.051,0.067,0.08C24.374,9.789,24.35,9.763,24.323,9.739z"/><linearGradient id="fzWegN4YgoZ0~V0zXPaEDu" x1="23.677" x2="24.123" y1="10.114" y2="9.585" gradientUnits="userSpaceOnUse"><stop offset="0" stop-color="#a63f1b"/><stop offset="1" stop-color="#cc5929"/></linearGradient><path fill="url(#fzWegN4YgoZ0~V0zXPaEDu)" d="M23.834,10.023c0-0.163,0.187-0.295,0.418-0.295c0.025,0,0.047,0.007,0.071,0.01 C24.246,9.67,24.133,9.624,24,9.624c-0.231,0-0.418,0.132-0.418,0.295c0,0.145,0.151,0.26,0.347,0.285 C23.873,10.153,23.834,10.092,23.834,10.023z"/><linearGradient id="fzWegN4YgoZ0~V0zXPaEDv" x1="23.75" x2="24.354" y1="9.844" y2="10.048" gradientUnits="userSpaceOnUse"><stop offset=".016" stop-color="#e05f29"/><stop offset="1" stop-color="#ff7d4a"/></linearGradient><path fill="url(#fzWegN4YgoZ0~V0zXPaEDv)" d="M23.834,10.023c0,0.069,0.039,0.13,0.095,0.18c0.024,0.003,0.046,0.01,0.071,0.01 c0.231,0,0.418-0.132,0.418-0.295c0-0.069-0.039-0.13-0.095-0.18c-0.024-0.003-0.046-0.01-0.071-0.01 C24.021,9.728,23.834,9.86,23.834,10.023z"/></g><g><linearGradient id="fzWegN4YgoZ0~V0zXPaEDw" x1="16.119" x2="16.13" y1="21.262" y2="21.249" gradientUnits="userSpaceOnUse"><stop offset="0" stop-color="#a63f1b"/><stop offset="1" stop-color="#cc5929"/></linearGradient><path fill="url(#fzWegN4YgoZ0~V0zXPaEDw)" d="M16.095,21.219c0.025,0.022,0.045,0.046,0.06,0.073 C16.141,21.265,16.12,21.241,16.095,21.219z"/><linearGradient id="fzWegN4YgoZ0~V0zXPaEDx" x1="15.51" x2="15.915" y1="21.559" y2="21.08" gradientUnits="userSpaceOnUse"><stop offset="0" stop-color="#a63f1b"/><stop offset="1" stop-color="#cc5929"/></linearGradient><path fill="url(#fzWegN4YgoZ0~V0zXPaEDx)" d="M15.653,21.477c0-0.147,0.169-0.267,0.378-0.267c0.023,0,0.043,0.006,0.064,0.009 c-0.069-0.062-0.172-0.104-0.292-0.104c-0.209,0-0.378,0.119-0.378,0.267c0,0.131,0.137,0.235,0.314,0.258 C15.688,21.594,15.653,21.539,15.653,21.477z"/><linearGradient id="fzWegN4YgoZ0~V0zXPaEDy" x1="15.577" x2="16.123" y1="21.314" y2="21.499" gradientUnits="userSpaceOnUse"><stop offset=".016" stop-color="#e05f29"/><stop offset="1" stop-color="#ff7d4a"/></linearGradient><path fill="url(#fzWegN4YgoZ0~V0zXPaEDy)" d="M15.653,21.477c0,0.062,0.035,0.117,0.086,0.163c0.022,0.003,0.042,0.009,0.064,0.009 c0.209,0,0.378-0.119,0.378-0.267c0-0.062-0.035-0.117-0.086-0.163c-0.022-0.003-0.042-0.009-0.064-0.009 C15.822,21.21,15.653,21.329,15.653,21.477z"/></g><linearGradient id="fzWegN4YgoZ0~V0zXPaEDz" x1="31.067" x2="31.217" y1="31.718" y2="31.54" gradientUnits="userSpaceOnUse"><stop offset=".011" stop-color="#571600"/><stop offset=".265" stop-color="#5b1801" stop-opacity=".743"/><stop offset=".495" stop-color="#661f06" stop-opacity=".51"/><stop offset=".716" stop-color="#782b0d" stop-opacity=".287"/><stop offset=".929" stop-color="#923b17" stop-opacity=".072"/><stop offset="1" stop-color="#9c411b" stop-opacity="0"/></linearGradient><path fill="url(#fzWegN4YgoZ0~V0zXPaEDz)" d="M31.178,31.503c0,0.091-0.027,0.174-0.069,0.247 C31.15,31.675,31.178,31.594,31.178,31.503z" opacity=".75"/><linearGradient id="fzWegN4YgoZ0~V0zXPaEDA" x1="31.096" x2="31.189" y1="31.436" y2="31.326" gradientUnits="userSpaceOnUse"><stop offset=".011" stop-color="#571600"/><stop offset=".265" stop-color="#5b1801" stop-opacity=".743"/><stop offset=".495" stop-color="#661f06" stop-opacity=".51"/><stop offset=".716" stop-color="#782b0d" stop-opacity=".287"/><stop offset=".929" stop-color="#923b17" stop-opacity=".072"/><stop offset="1" stop-color="#9c411b" stop-opacity="0"/></linearGradient><path fill="url(#fzWegN4YgoZ0~V0zXPaEDA)" d="M31.11,31.256c0.042,0.073,0.069,0.156,0.069,0.247 C31.178,31.412,31.15,31.331,31.11,31.256z" opacity=".75"/><g><linearGradient id="fzWegN4YgoZ0~V0zXPaEDB" x1="30.782" x2="32.092" y1="34.102" y2="34.279" gradientUnits="userSpaceOnUse"><stop offset="0" stop-color="#541600"/><stop offset="1" stop-color="#cc5929"/></linearGradient><path fill="url(#fzWegN4YgoZ0~V0zXPaEDB)" d="M31.61,34.534c-0.175-0.023-0.313-0.167-0.313-0.349s0.137-0.326,0.313-0.349 c0.055,0.034,0.099,0.081,0.134,0.134c-0.074-0.119-0.199-0.203-0.349-0.203c-0.23,0-0.417,0.187-0.417,0.417 c0,0.23,0.187,0.417,0.417,0.417c0.15,0,0.276-0.084,0.349-0.203C31.709,34.453,31.665,34.5,31.61,34.534z"/><linearGradient id="fzWegN4YgoZ0~V0zXPaEDC" x1="30.605" x2="32.135" y1="34.052" y2="34.254" gradientUnits="userSpaceOnUse"><stop offset="0" stop-color="#a63f1b"/><stop offset="1" stop-color="#b85025"/></linearGradient><path fill="url(#fzWegN4YgoZ0~V0zXPaEDC)" d="M31.61,33.836c-0.175,0.023-0.313,0.167-0.313,0.349s0.137,0.326,0.313,0.349 c0.119-0.074,0.203-0.199,0.203-0.349S31.729,33.909,31.61,33.836z"/></g><g><linearGradient id="fzWegN4YgoZ0~V0zXPaEDD" x1="32.445" x2="33.403" y1="33.402" y2="33.531" gradientUnits="userSpaceOnUse"><stop offset="0" stop-color="#541600"/><stop offset="1" stop-color="#cc5929"/></linearGradient><path fill="url(#fzWegN4YgoZ0~V0zXPaEDD)" d="M33.05,33.718c-0.128-0.017-0.229-0.122-0.229-0.255s0.1-0.238,0.229-0.255 c0.04,0.025,0.073,0.059,0.098,0.098c-0.054-0.087-0.146-0.148-0.255-0.148c-0.168,0-0.305,0.137-0.305,0.305 c0,0.168,0.137,0.305,0.305,0.305c0.11,0,0.202-0.061,0.255-0.148C33.123,33.658,33.09,33.693,33.05,33.718z"/><linearGradient id="fzWegN4YgoZ0~V0zXPaEDE" x1="32.316" x2="33.434" y1="33.366" y2="33.513" gradientUnits="userSpaceOnUse"><stop offset="0" stop-color="#a63f1b"/><stop offset="1" stop-color="#b85025"/></linearGradient><path fill="url(#fzWegN4YgoZ0~V0zXPaEDE)" d="M33.05,33.207c-0.128,0.017-0.229,0.122-0.229,0.255s0.1,0.238,0.229,0.255 c0.087-0.054,0.148-0.146,0.148-0.255S33.137,33.261,33.05,33.207z"/></g></svg>