<svg xmlns="http://www.w3.org/2000/svg" xmlns:xlink="http://www.w3.org/1999/xlink" viewBox="0 0 48 48"><defs><linearGradient id="kA9A5AIrKE9pneLQ6UHFUh" x1="24" x2="24" y1="3" y2="35" gradientUnits="userSpaceOnUse"><stop offset="0" stop-color="#f5f5f5" stop-opacity="0"/><stop offset=".378" stop-color="#f5f4f3" stop-opacity=".008"/><stop offset=".514" stop-color="#f5f2ee" stop-opacity=".037"/><stop offset=".611" stop-color="#f4efe5" stop-opacity=".086"/><stop offset=".69" stop-color="#f4ead7" stop-opacity=".158"/><stop offset=".757" stop-color="#f3e4c5" stop-opacity=".251"/><stop offset=".817" stop-color="#f2dcb0" stop-opacity=".366"/><stop offset=".871" stop-color="#f1d296" stop-opacity=".502"/><stop offset=".92" stop-color="#f0c777" stop-opacity=".662"/><stop offset=".964" stop-color="#eebb56" stop-opacity=".835"/><stop offset="1" stop-color="#edb037"/></linearGradient><linearGradient id="kA9A5AIrKE9pneLQ6UHFUc" x1="21" x2="27" y1="45" y2="45" gradientUnits="userSpaceOnUse"><stop offset="0" stop-color="#47474a"/><stop offset=".079" stop-color="#525255"/><stop offset=".218" stop-color="#717173"/><stop offset=".402" stop-color="#a2a2a3"/><stop offset=".5" stop-color="#bfbfbf"/><stop offset=".566" stop-color="#bababa"/><stop offset=".646" stop-color="#ababab"/><stop offset=".733" stop-color="#929292"/><stop offset=".827" stop-color="#6f6f70"/><stop offset=".923" stop-color="#434344"/><stop offset="1" stop-color="#1b1b1c"/></linearGradient><linearGradient id="kA9A5AIrKE9pneLQ6UHFUa" x1="24" x2="24" y1="40" y2="38" gradientUnits="userSpaceOnUse"><stop offset="0" stop-color="#6a6a6e"/><stop offset=".078" stop-color="#757579"/><stop offset=".217" stop-color="#949497"/><stop offset=".399" stop-color="#c5c5c6"/><stop offset=".5" stop-color="#e3e3e3"/><stop offset=".622" stop-color="#dedede"/><stop offset=".771" stop-color="#cfcfd0"/><stop offset=".934" stop-color="#b6b7b9"/><stop offset="1" stop-color="#aaabad"/></linearGradient><linearGradient id="kA9A5AIrKE9pneLQ6UHFUe" x1="24" x2="24" y1="42" y2="40" xlink:href="#kA9A5AIrKE9pneLQ6UHFUa"/><linearGradient id="kA9A5AIrKE9pneLQ6UHFUf" x1="24" x2="24" y1="44" y2="42" xlink:href="#kA9A5AIrKE9pneLQ6UHFUa"/><linearGradient id="kA9A5AIrKE9pneLQ6UHFUl" x1="19.05" x2="28.95" y1="37.5" y2="37.5" xlink:href="#kA9A5AIrKE9pneLQ6UHFUb"/><linearGradient id="kA9A5AIrKE9pneLQ6UHFUd" x1="19" x2="29" y1="38" y2="38" gradientUnits="userSpaceOnUse"><stop offset="0" stop-color="#3e3e40"/><stop offset=".054" stop-color="#49494b"/><stop offset=".15" stop-color="#68686a"/><stop offset=".278" stop-color="#99999b"/><stop offset=".43" stop-color="#ddddde"/><stop offset=".5" stop-color="#fff"/><stop offset=".559" stop-color="#fafafa"/><stop offset=".632" stop-color="#ebebeb"/><stop offset=".712" stop-color="#d2d2d3"/><stop offset=".796" stop-color="#afafb0"/><stop offset=".885" stop-color="#838385"/><stop offset=".975" stop-color="#4d4d50"/><stop offset="1" stop-color="#3d3d40"/></linearGradient><linearGradient id="kA9A5AIrKE9pneLQ6UHFUi" x1="24" x2="24" y1="37" y2="38" gradientUnits="userSpaceOnUse"><stop offset="0" stop-color="#6a6a6e"/><stop offset=".008" stop-color="#6b6b6f"/><stop offset=".212" stop-color="#87878a"/><stop offset=".418" stop-color="#9b9b9e"/><stop offset=".623" stop-color="#a7a7a9"/><stop offset=".83" stop-color="#ababad"/></linearGradient><linearGradient id="kA9A5AIrKE9pneLQ6UHFUb" x1="19.207" x2="28.793" y1="39" y2="39" gradientUnits="userSpaceOnUse"><stop offset="0" stop-color="#3e3e40"/><stop offset=".129" stop-color="#333335" stop-opacity=".822"/><stop offset=".357" stop-color="#161616" stop-opacity=".348"/><stop offset=".5" stop-opacity="0"/><stop offset=".614" stop-color="#050505" stop-opacity=".081"/><stop offset=".753" stop-color="#131314" stop-opacity=".315"/><stop offset=".905" stop-color="#2b2b2d" stop-opacity=".701"/><stop offset="1" stop-color="#3d3d40"/></linearGradient><linearGradient id="kA9A5AIrKE9pneLQ6UHFUj" x1="19.207" x2="28.793" y1="41" y2="41" xlink:href="#kA9A5AIrKE9pneLQ6UHFUb"/><linearGradient id="kA9A5AIrKE9pneLQ6UHFUk" x1="19.207" x2="28.793" y1="43" y2="43" xlink:href="#kA9A5AIrKE9pneLQ6UHFUb"/><radialGradient id="kA9A5AIrKE9pneLQ6UHFUg" cx="24.333" cy="16.247" r="14.617" gradientUnits="userSpaceOnUse"><stop offset="0" stop-color="#f3f556"/><stop offset=".356" stop-color="#f3f258"/><stop offset=".604" stop-color="#f3e95c"/><stop offset=".82" stop-color="#f2da65"/><stop offset="1" stop-color="#f2c66f"/></radialGradient><radialGradient id="kA9A5AIrKE9pneLQ6UHFUm" cx="23.75" cy="4.667" r="11.861" gradientUnits="userSpaceOnUse"><stop offset="0" stop-color="#fff"/><stop offset="1" stop-color="#fff" stop-opacity="0"/></radialGradient></defs><g data-name="light bulb"><path fill="url(#kA9A5AIrKE9pneLQ6UHFUc)" d="M27,44a.712.712,0,0,0-.147.12L25.691,45.7a.643.643,0,0,1-.529.3H22.838a.643.643,0,0,1-.529-.3l-1.162-1.58A.712.712,0,0,0,21,44Z"/><path fill="url(#kA9A5AIrKE9pneLQ6UHFUd)" d="M29,35v1.79a.491.491,0,0,1-.15.36l-.5.5a.5.5,0,0,0,0,.7l.3.3a.5.5,0,0,1,0,.7l-.3.3a.5.5,0,0,0,0,.7l.3.3a.5.5,0,0,1,.14.35H19.21a.5.5,0,0,1,.14-.35l.3-.3a.5.5,0,0,0,0-.7l-.3-.3a.5.5,0,0,1,0-.7l.3-.3a.5.5,0,0,0,0-.7l-.5-.5a.491.491,0,0,1-.15-.36V35Z" opacity=".8"/><path fill="url(#kA9A5AIrKE9pneLQ6UHFUa)" d="M28.65,39.35l-.3.3a.5.5,0,0,0-.14.35H19.79a.5.5,0,0,0-.14-.35l-.3-.3a.5.5,0,0,1,0-.7l.3-.3a.5.5,0,0,0,.14-.35h8.42a.5.5,0,0,0,.14.35l.3.3A.5.5,0,0,1,28.65,39.35Z"/><path fill="url(#kA9A5AIrKE9pneLQ6UHFUe)" d="M28.65,41.35l-.3.3a.5.5,0,0,0-.14.35H19.79a.5.5,0,0,0-.14-.35l-.3-.3a.5.5,0,0,1,0-.7l.3-.3a.5.5,0,0,0,.14-.35h8.42a.5.5,0,0,0,.14.35l.3.3A.5.5,0,0,1,28.65,41.35Z"/><path fill="url(#kA9A5AIrKE9pneLQ6UHFUf)" d="M28.65,43.35l-.3.3A10.024,10.024,0,0,1,27,44H21a10.024,10.024,0,0,1-1.35-.35l-.3-.3a.5.5,0,0,1,0-.7l.3-.3a.5.5,0,0,0,.14-.35h8.42a.5.5,0,0,0,.14.35l.3.3A.5.5,0,0,1,28.65,43.35Z"/><path fill="url(#kA9A5AIrKE9pneLQ6UHFUg)" d="M37,16c0,6.55-5.65,12.13-6.82,17.44A2,2,0,0,1,28.23,35H19.77a2,2,0,0,1-1.95-1.56C16.65,28.13,11,22.55,11,16a13,13,0,0,1,26,0Z"/><path fill="url(#kA9A5AIrKE9pneLQ6UHFUh)" d="M37,16c0,6.55-5.65,12.13-6.82,17.44A2,2,0,0,1,28.23,35H19.77a2,2,0,0,1-1.95-1.56C16.65,28.13,11,22.55,11,16a13,13,0,0,1,26,0Z"/><path fill="url(#kA9A5AIrKE9pneLQ6UHFUi)" d="M28.95,37a.437.437,0,0,1-.1.15l-.5.5a.5.5,0,0,0-.14.35H19.79a.5.5,0,0,0-.14-.35l-.5-.5a.437.437,0,0,1-.1-.15Z"/><path fill="url(#kA9A5AIrKE9pneLQ6UHFUb)" d="M28.65,39.35l-.3.3a.5.5,0,0,0-.14.35H19.79a.5.5,0,0,0-.14-.35l-.3-.3a.5.5,0,0,1,0-.7l.3-.3a.5.5,0,0,0,.14-.35h8.42a.5.5,0,0,0,.14.35l.3.3A.5.5,0,0,1,28.65,39.35Z" opacity=".8"/><path fill="url(#kA9A5AIrKE9pneLQ6UHFUj)" d="M28.65,41.35l-.3.3a.5.5,0,0,0-.14.35H19.79a.5.5,0,0,0-.14-.35l-.3-.3a.5.5,0,0,1,0-.7l.3-.3a.5.5,0,0,0,.14-.35h8.42a.5.5,0,0,0,.14.35l.3.3A.5.5,0,0,1,28.65,41.35Z" opacity=".8"/><path fill="url(#kA9A5AIrKE9pneLQ6UHFUk)" d="M28.65,43.35l-.3.3A10.024,10.024,0,0,1,27,44H21a10.024,10.024,0,0,1-1.35-.35l-.3-.3a.5.5,0,0,1,0-.7l.3-.3a.5.5,0,0,0,.14-.35h8.42a.5.5,0,0,0,.14.35l.3.3A.5.5,0,0,1,28.65,43.35Z" opacity=".8"/><path fill="url(#kA9A5AIrKE9pneLQ6UHFUl)" d="M28.95,37a.437.437,0,0,1-.1.15l-.5.5a.5.5,0,0,0-.14.35H19.79a.5.5,0,0,0-.14-.35l-.5-.5a.437.437,0,0,1-.1-.15Z" opacity=".8"/><path fill="url(#kA9A5AIrKE9pneLQ6UHFUm)" d="M34,15a10.048,10.048,0,0,1-.2,2,11,11,0,0,0-19.6,0A10,10,0,1,1,34,15Z"/></g></svg>