<svg xmlns="http://www.w3.org/2000/svg" viewBox="0 0 48 48"><linearGradient id="91iSgdJAUl7GTnqZPEafba" x1="27.669" x2="27.669" y1="46.894" y2="24.427" gradientUnits="userSpaceOnUse"><stop offset="0" stop-color="#5fbbff" stop-opacity="0"/><stop offset=".419" stop-color="#83d0ff" stop-opacity=".6"/><stop offset=".769" stop-color="#9cceff" stop-opacity=".5"/><stop offset="1" stop-color="#78bcef"/></linearGradient><path fill="url(#91iSgdJAUl7GTnqZPEafba)" d="M28.858,47.703l-1.926-24.625l-0.451,0.016l0.363,24.813 C27.527,47.859,28.197,47.788,28.858,47.703z"/><linearGradient id="91iSgdJAUl7GTnqZPEafbb" x1="33.187" x2="33.187" y1="45.968" y2="24.246" gradientUnits="userSpaceOnUse"><stop offset="0" stop-color="#5fbbff" stop-opacity="0"/><stop offset=".419" stop-color="#83d0ff" stop-opacity=".6"/><stop offset=".769" stop-color="#9cceff" stop-opacity=".5"/><stop offset="1" stop-color="#78bcef"/></linearGradient><path fill="url(#91iSgdJAUl7GTnqZPEafbb)" d="M34.855,46.339l-2.886-23.397l-0.45,0.036l1.289,23.97 C33.512,46.767,34.194,46.563,34.855,46.339z"/><linearGradient id="91iSgdJAUl7GTnqZPEafbc" x1="30.455" x2="30.455" y1="46.565" y2="24.373" gradientUnits="userSpaceOnUse"><stop offset="0" stop-color="#5fbbff" stop-opacity="0"/><stop offset=".419" stop-color="#83d0ff" stop-opacity=".6"/><stop offset=".769" stop-color="#9cceff" stop-opacity=".5"/><stop offset="1" stop-color="#78bcef"/></linearGradient><path fill="url(#91iSgdJAUl7GTnqZPEafbc)" d="M31.864,47.179l-2.366-24.138l-0.451,0.025l0.775,24.5 C30.517,47.456,31.2,47.328,31.864,47.179z"/><linearGradient id="91iSgdJAUl7GTnqZPEafbd" x1="35.988" x2="35.988" y1="45.014" y2="24.021" gradientUnits="userSpaceOnUse"><stop offset="0" stop-color="#5fbbff" stop-opacity="0"/><stop offset=".419" stop-color="#83d0ff" stop-opacity=".6"/><stop offset=".769" stop-color="#9cceff" stop-opacity=".5"/><stop offset="1" stop-color="#78bcef"/></linearGradient><path fill="url(#91iSgdJAUl7GTnqZPEafbd)" d="M37.911,45.078l-3.396-22.317l-0.45,0.047l1.831,23.154 C36.6,45.69,37.272,45.395,37.911,45.078z"/><linearGradient id="91iSgdJAUl7GTnqZPEafbe" x1="15.675" x2="15.675" y1="46.041" y2="24.25" gradientUnits="userSpaceOnUse"><stop offset="0" stop-color="#5fbbff" stop-opacity="0"/><stop offset=".419" stop-color="#83d0ff" stop-opacity=".6"/><stop offset=".769" stop-color="#9cceff" stop-opacity=".5"/><stop offset="1" stop-color="#78bcef"/></linearGradient><path fill="url(#91iSgdJAUl7GTnqZPEafbe)" d="M16.055,47.025l1.294-24.047l-0.45-0.036l-2.897,23.491 C14.665,46.65,15.348,46.85,16.055,47.025z"/><linearGradient id="91iSgdJAUl7GTnqZPEafbf" x1="24.491" x2="24.491" y1="46.977" y2="24.305" gradientUnits="userSpaceOnUse"><stop offset="0" stop-color="#5fbbff" stop-opacity="0"/><stop offset=".419" stop-color="#83d0ff" stop-opacity=".6"/><stop offset=".769" stop-color="#9cceff" stop-opacity=".5"/><stop offset="1" stop-color="#78bcef"/></linearGradient><path fill="url(#91iSgdJAUl7GTnqZPEafbf)" d="M24.266,48c0.408,0,0.812-0.009,1.214-0.022l-0.84-25.034h-0.451l-0.687,25.034 C23.757,47.984,24.008,48,24.266,48z"/><linearGradient id="91iSgdJAUl7GTnqZPEafbg" x1="18.409" x2="18.409" y1="46.603" y2="24.375" gradientUnits="userSpaceOnUse"><stop offset="0" stop-color="#5fbbff" stop-opacity="0"/><stop offset=".419" stop-color="#83d0ff" stop-opacity=".6"/><stop offset=".769" stop-color="#9cceff" stop-opacity=".5"/><stop offset="1" stop-color="#78bcef"/></linearGradient><path fill="url(#91iSgdJAUl7GTnqZPEafbg)" d="M19.044,47.606l0.776-24.539l-0.451-0.025l-2.372,24.195 C17.664,47.38,18.347,47.502,19.044,47.606z"/><linearGradient id="91iSgdJAUl7GTnqZPEafbh" x1="12.869" x2="12.869" y1="45.129" y2="24.027" gradientUnits="userSpaceOnUse"><stop offset="0" stop-color="#5fbbff" stop-opacity="0"/><stop offset=".419" stop-color="#83d0ff" stop-opacity=".6"/><stop offset=".769" stop-color="#9cceff" stop-opacity=".5"/><stop offset="1" stop-color="#78bcef"/></linearGradient><path fill="url(#91iSgdJAUl7GTnqZPEafbh)" d="M12.961,46.081l1.841-23.273l-0.45-0.047l-3.417,22.456 C11.582,45.526,12.253,45.818,12.961,46.081z"/><linearGradient id="91iSgdJAUl7GTnqZPEafbi" x1="21.196" x2="21.196" y1="46.912" y2="24.428" gradientUnits="userSpaceOnUse"><stop offset="0" stop-color="#5fbbff" stop-opacity="0"/><stop offset=".419" stop-color="#83d0ff" stop-opacity=".6"/><stop offset=".769" stop-color="#9cceff" stop-opacity=".5"/><stop offset="1" stop-color="#78bcef"/></linearGradient><path fill="url(#91iSgdJAUl7GTnqZPEafbi)" d="M22.023,47.927l0.363-24.833l-0.451-0.016l-1.929,24.666 C20.667,47.824,21.34,47.885,22.023,47.927z"/><path fill="#89929d" d="M26.5,11.014l-4-0.027l0.032-4.615c0.014-2.224,1.423-4.242,3.507-5.023l3.26-1.221l1.402,3.746 l-3.259,1.221c-0.541,0.202-0.906,0.727-0.91,1.304L26.5,11.014z"/><path fill="#929aa4" d="M26.324,11.013l-3.688-0.026l0.032-4.615c0.013-2.167,1.387-4.135,3.418-4.897l3.26-1.221 l1.291,3.448l-3.254,1.225c-0.619,0.239-1.023,0.836-1.028,1.469L26.324,11.013z"/><path fill="#9aa2ac" d="M26.148,11.012l-3.375-0.024l0.032-4.615c0.013-2.111,1.351-4.028,3.33-4.77l3.26-1.221l1.179,3.15 l-3.248,1.229c-0.698,0.276-1.14,0.945-1.145,1.634L26.148,11.012z"/><path fill="#a3abb3" d="M25.972,11.011l-3.063-0.022l0.032-4.615c0.013-2.055,1.315-3.921,3.241-4.643l3.259-1.221 l1.068,2.852l-3.243,1.233c-0.776,0.312-1.258,1.054-1.263,1.8L25.972,11.011z"/><path fill="#acb3bb" d="M25.796,11.01l-2.75-0.02l0.032-4.615c0.012-1.999,1.279-3.814,3.153-4.516l3.259-1.221l0.956,2.554 l-3.238,1.237c-0.855,0.349-1.375,1.163-1.38,1.965L25.796,11.01z"/><path fill="#b4bbc2" d="M25.62,11.009l-2.438-0.018l0.032-4.615c0.012-1.943,1.244-3.707,3.064-4.389l3.259-1.221 l0.845,2.256l-3.233,1.241c-0.933,0.386-1.492,1.272-1.497,2.13L25.62,11.009z"/><path fill="#bdc3ca" d="M25.444,11.008l-2.126-0.017l0.032-4.615c0.012-1.886,1.208-3.6,2.976-4.262l3.259-1.221 l0.733,1.958l-3.228,1.245c-1.012,0.423-1.609,1.382-1.615,2.295L25.444,11.008z"/><path fill="#c5cbd1" d="M25.268,11.007l-1.813-0.015l0.032-4.615c0.011-1.83,1.172-3.493,2.887-4.135l3.259-1.221 l0.622,1.66l-3.223,1.25c-1.09,0.459-1.726,1.491-1.732,2.461L25.268,11.007z"/><path fill="#ced3d9" d="M25.092,11.007l-1.501-0.013l0.032-4.615c0.011-1.774,1.136-3.386,2.799-4.009l3.259-1.221 l0.51,1.362l-3.218,1.254c-1.169,0.496-1.843,1.6-1.85,2.626L25.092,11.007z"/><path fill="#d7dce0" d="M24.916,11.006l-1.188-0.011l0.032-4.615c0.01-1.718,1.1-3.279,2.71-3.882l3.259-1.221l0.399,1.064 l-3.212,1.258c-1.247,0.533-1.96,1.709-1.967,2.791L24.916,11.006z"/><path fill="#dfe4e8" d="M24.74,11.005l-0.876-0.01l0.032-4.615c0.01-1.662,1.064-3.172,2.622-3.755l3.259-1.221l0.287,0.766 l-3.207,1.262c-1.326,0.57-2.077,1.818-2.085,2.956L24.74,11.005z"/><path fill="#e8ecef" d="M24.564,11.004L24,10.996l0.032-4.615c0.01-1.605,1.028-3.064,2.533-3.628l3.259-1.221L30,2 l-3.202,1.266c-1.404,0.606-2.194,1.927-2.202,3.122L24.564,11.004z"/><radialGradient id="91iSgdJAUl7GTnqZPEafbj" cx="21.117" cy="21.71" r="8.231" gradientTransform="matrix(1 0 0 .2711 0 15.824)" gradientUnits="userSpaceOnUse"><stop offset="0" stop-color="#abb1ba"/><stop offset=".305" stop-color="#aab1b9"/><stop offset=".888" stop-color="#707982"/></radialGradient><path fill="url(#91iSgdJAUl7GTnqZPEafbj)" d="M35.485,23c-7.365,0.824-14.689,0.808-21.969,0C13.231,23,13,22.769,13,22.485v-1.969	C13,20.231,13.231,20,13.515,20h21.969C35.769,20,36,20.231,36,20.515v1.969C36,22.769,35.769,23,35.485,23z"/><linearGradient id="91iSgdJAUl7GTnqZPEafbk" x1="30.734" x2="4.063" y1="26.5" y2="26.5" gradientTransform="rotate(180 20.5 23.5)" gradientUnits="userSpaceOnUse"><stop offset="0" stop-color="#2d2d2b"/><stop offset=".09" stop-color="#4b4b49"/><stop offset=".184" stop-color="#646463"/><stop offset=".241" stop-color="#6d6d6c"/><stop offset=".749" stop-color="#2d2d2b"/><stop offset="1" stop-color="#1b1b1a"/></linearGradient><path fill="url(#91iSgdJAUl7GTnqZPEafbk)" d="M12.537,19h23.926C36.759,19,37,19.241,37,19.537v1.926C37,21.759,36.759,22,36.463,22	H12.537C12.241,22,12,21.759,12,21.463v-1.926C12,19.241,12.241,19,12.537,19z"/><radialGradient id="91iSgdJAUl7GTnqZPEafbl" cx="28.043" cy="20.137" r="14.896" gradientTransform="matrix(-1 0 0 -.8033 56.085 36.313)" gradientUnits="userSpaceOnUse"><stop offset=".035" stop-color="#8b939e"/><stop offset=".462" stop-color="#aab1b9"/><stop offset=".681" stop-color="#d9dde1"/><stop offset="1" stop-color="#7f8894"/></radialGradient><path fill="url(#91iSgdJAUl7GTnqZPEafbl)" d="M36.113,19c-1.418-2.715-4.382-5.185-8.113-6c-1.096-0.239-2.302,0-3.5,0	c-1.213,0-2.392-0.245-3.5,0c-3.712,0.821-6.7,3.295-8.113,6H36.113z"/><linearGradient id="91iSgdJAUl7GTnqZPEafbm" x1="24.695" x2="34.078" y1="15.945" y2="15.945" gradientUnits="userSpaceOnUse"><stop offset="0" stop-color="#171714" stop-opacity="0"/><stop offset="1" stop-color="#171714" stop-opacity=".6"/></linearGradient><path fill="url(#91iSgdJAUl7GTnqZPEafbm)" d="M36.113,19c-1.418-2.715-4.382-5.185-8.113-6c-1.096-0.239-2.302,0-3.5,0	c-1.213,0-2.392-0.245-3.5,0c-3.712,0.821-6.7,3.295-8.113,6H36.113z"/><linearGradient id="91iSgdJAUl7GTnqZPEafbn" x1="21.116" x2="27.58" y1="11.5" y2="11.5" gradientUnits="userSpaceOnUse"><stop offset="0" stop-color="#abb1ba"/><stop offset=".314" stop-color="#d9dde1"/><stop offset=".644" stop-color="#aab1b9"/><stop offset="1" stop-color="#646f78"/></linearGradient><rect width="7" height="3" x="21" y="10" fill="url(#91iSgdJAUl7GTnqZPEafbn)"/><linearGradient id="91iSgdJAUl7GTnqZPEafbo" x1="21.116" x2="27.91" y1="9.5" y2="9.5" gradientUnits="userSpaceOnUse"><stop offset="0" stop-color="#abb1ba"/><stop offset="1" stop-color="#7f8894"/></linearGradient><polygon fill="url(#91iSgdJAUl7GTnqZPEafbo)" points="28,10 21,10 22,9 27,9"/><linearGradient id="91iSgdJAUl7GTnqZPEafbp" x1="24.5" x2="24.5" y1="19.543" y2="21.194" gradientUnits="userSpaceOnUse"><stop offset="0" stop-color="#d9dbdd" stop-opacity=".3"/><stop offset="1" stop-opacity=".7"/></linearGradient><path fill="url(#91iSgdJAUl7GTnqZPEafbp)" d="M12.028,19.399C12.09,19.171,12.29,19,12.537,19h23.926c0.248,0,0.447,0.171,0.509,0.399	h-0.923H12.951H12.028z M36.049,21.601H12.951h-0.923C12.09,21.829,12.29,22,12.537,22h23.926c0.248,0,0.447-0.171,0.509-0.399	H36.049z"/><linearGradient id="91iSgdJAUl7GTnqZPEafbq" x1="24.505" x2="24.505" y1="13.801" y2="12.051" gradientUnits="userSpaceOnUse"><stop offset="0" stop-color="#a9b0b8" stop-opacity="0"/><stop offset=".112" stop-color="#9099a1" stop-opacity=".222"/><stop offset=".266" stop-color="#757f87" stop-opacity=".528"/><stop offset=".401" stop-color="#646f78" stop-opacity=".798"/><stop offset=".503" stop-color="#5e6972"/><stop offset="1" stop-color="#b4bbc2" stop-opacity="0"/></linearGradient><path fill="url(#91iSgdJAUl7GTnqZPEafbq)" d="M28,11h-7v2c-2.248,0.497-4.224,1.606-5.751,3h18.513c-1.525-1.398-3.499-2.506-5.762-3V11z"/><radialGradient id="91iSgdJAUl7GTnqZPEafbr" cx="19.946" cy="13.853" r="5.328" gradientTransform="matrix(-1 0 0 1 38 0)" gradientUnits="userSpaceOnUse"><stop offset="0" stop-color="#fff" stop-opacity=".7"/><stop offset=".519" stop-color="#fff" stop-opacity=".336"/><stop offset="1" stop-color="#fff" stop-opacity="0"/></radialGradient><path fill="url(#91iSgdJAUl7GTnqZPEafbr)" d="M22.534,13.016c0,0-5.264,1.081-8.018,5.822c1.882,0,5.027,0.035,5.027,0.035	S19.782,15.457,22.534,13.016z"/><radialGradient id="91iSgdJAUl7GTnqZPEafbs" cx="-362.366" cy="-280.039" r="3.523" gradientTransform="matrix(-.2363 .5451 -.1993 -.0864 -116.73 177.92)" gradientUnits="userSpaceOnUse"><stop offset="0" stop-color="#fff" stop-opacity=".6"/><stop offset=".999" stop-color="#fff" stop-opacity="0"/></radialGradient><path fill="url(#91iSgdJAUl7GTnqZPEafbs)" d="M23.759,6.796c-0.463-0.201-0.425-1.319,0.086-2.497s1.3-1.97,1.764-1.769	c0.463,0.201,0.425,1.319-0.086,2.497C25.012,6.205,24.222,6.997,23.759,6.796z"/><radialGradient id="91iSgdJAUl7GTnqZPEafbt" cx="-351.016" cy="-281.479" r="3.523" gradientTransform="matrix(-.5941 0 0 -.1284 -185.196 -26.01)" gradientUnits="userSpaceOnUse"><stop offset="0" stop-color="#fff" stop-opacity=".6"/><stop offset=".999" stop-color="#fff" stop-opacity="0"/></radialGradient><ellipse cx="23.271" cy="10.13" fill="url(#91iSgdJAUl7GTnqZPEafbt)" rx="2.325" ry=".54"/></svg>