<svg xmlns="http://www.w3.org/2000/svg" viewBox="0 0 48 48"><linearGradient id="bhMkQlxDm1g~hlF0ciSwna" x1="-5.5" x2="60.461" y1="2.739" y2="50.278" gradientUnits="userSpaceOnUse"><stop offset=".278" stop-color="#9c9c9c"/><stop offset="1" stop-color="#555"/></linearGradient><path fill="url(#bhMkQlxDm1g~hlF0ciSwna)" d="M35.328,47H12.672C11.749,47,11,46.251,11,45.328V2.672C11,1.749,11.749,1,12.672,1h22.656	C36.251,1,37,1.749,37,2.672v42.656C37,46.251,36.251,47,35.328,47z"/><linearGradient id="bhMkQlxDm1g~hlF0ciSwnb" x1="-21.878" x2="57.421" y1="24" y2="24" gradientUnits="userSpaceOnUse"><stop offset="0" stop-color="#eee"/><stop offset="1" stop-color="#999"/></linearGradient><path fill="url(#bhMkQlxDm1g~hlF0ciSwnb)" d="M35.138,46.521H12.862c-0.734,0-1.33-0.595-1.33-1.33V2.809c0-0.734,0.595-1.33,1.33-1.33	h22.277c0.734,0,1.33,0.595,1.33,1.33v42.383C36.468,45.926,35.873,46.521,35.138,46.521z"/><linearGradient id="bhMkQlxDm1g~hlF0ciSwnc" x1="30.078" x2="14.462" y1="40.301" y2="-2.863" gradientUnits="userSpaceOnUse"><stop offset="0" stop-color="#00349c"/><stop offset="1" stop-color="#00b1f2"/></linearGradient><path fill="url(#bhMkQlxDm1g~hlF0ciSwnc)" d="M35.149,42H12.851C12.381,42,12,41.619,12,41.149V5.851C12,5.381,12.381,5,12.851,5h22.298	C35.619,5,36,5.381,36,5.851v35.298C36,41.619,35.619,42,35.149,42z"/><linearGradient id="bhMkQlxDm1g~hlF0ciSwnd" x1="23.986" x2="23.169" y1="23.091" y2="-.895" gradientUnits="userSpaceOnUse"><stop offset="0" stop-color="#039"/><stop offset="1" stop-color="#00349c" stop-opacity="0"/></linearGradient><path fill="url(#bhMkQlxDm1g~hlF0ciSwnd)" d="M35.149,5.5c0.194,0,0.351,0.158,0.351,0.351v35.298c0,0.194-0.157,0.351-0.351,0.351H12.851	c-0.194,0-0.351-0.158-0.351-0.351V5.851c0-0.194,0.157-0.351,0.351-0.351H35.149 M35.149,5H12.851C12.381,5,12,5.381,12,5.851	v35.298C12,41.619,12.381,42,12.851,42h22.298C35.619,42,36,41.619,36,41.149V5.851C36,5.381,35.619,5,35.149,5L35.149,5z"/><linearGradient id="bhMkQlxDm1g~hlF0ciSwne" x1="5.996" x2="14.521" y1="24" y2="24" gradientUnits="userSpaceOnUse"><stop offset="0" stop-color="#fff" stop-opacity=".8"/><stop offset="1" stop-color="#fff" stop-opacity="0"/></linearGradient><path fill="url(#bhMkQlxDm1g~hlF0ciSwne)" d="M14.948,46.523h-2.077c-0.751,0-1.361-0.609-1.361-1.361V2.859	c0-0.764,0.619-1.382,1.382-1.382h2.055C15.529,1.476,16,1.947,16,2.528v42.944C16,46.053,15.529,46.523,14.948,46.523z"/><linearGradient id="bhMkQlxDm1g~hlF0ciSwnf" x1="6.201" x2="14.726" y1="24" y2="24" gradientTransform="matrix(-1 0 0 1 48.191 0)" gradientUnits="userSpaceOnUse"><stop offset="0" stop-color="#171714" stop-opacity=".4"/><stop offset="1" stop-color="#171714" stop-opacity="0"/></linearGradient><path fill="url(#bhMkQlxDm1g~hlF0ciSwnf)" d="M33.038,46.523h2.116c0.73,0,1.322-0.592,1.322-1.322V2.807c0-0.735-0.596-1.331-1.331-1.331	h-2.107c-0.581,0-1.052,0.471-1.052,1.052v42.944C31.986,46.053,32.457,46.523,33.038,46.523z"/><linearGradient id="bhMkQlxDm1g~hlF0ciSwng" x1="12.402" x2="25.694" y1="3.247" y2="3.247" gradientUnits="userSpaceOnUse"><stop offset="0" stop-color="#666"/><stop offset=".999" stop-color="#171714"/></linearGradient><path fill="url(#bhMkQlxDm1g~hlF0ciSwng)" d="M27.753,3.493h-6.507C21.11,3.493,21,3.383,21,3.247v0C21,3.11,21.11,3,21.247,3h6.507	C27.89,3,28,3.11,28,3.247v0C28,3.383,27.89,3.493,27.753,3.493z"/><linearGradient id="bhMkQlxDm1g~hlF0ciSwnh" x1="24.5" x2="24.499" y1="44.795" y2="44.009" gradientUnits="userSpaceOnUse"><stop offset="0" stop-color="#666"/><stop offset=".999" stop-color="#171714"/></linearGradient><path fill="url(#bhMkQlxDm1g~hlF0ciSwnh)" d="M27.5,45h-6c-0.276,0-0.5-0.224-0.5-0.5l0,0c0-0.276,0.224-0.5,0.5-0.5h6	c0.276,0,0.5,0.224,0.5,0.5l0,0C28,44.776,27.776,45,27.5,45z"/><linearGradient id="bhMkQlxDm1g~hlF0ciSwni" x1="16.501" x2="16.498" y1="38.379" y2="36.039" gradientUnits="userSpaceOnUse"><stop offset="0" stop-color="#f9a825"/><stop offset="1" stop-color="#fdd835"/></linearGradient><rect width="3" height="3" x="15" y="36" fill="url(#bhMkQlxDm1g~hlF0ciSwni)"/><linearGradient id="bhMkQlxDm1g~hlF0ciSwnj" x1="21.504" x2="21.497" y1="39.815" y2="35.843" gradientUnits="userSpaceOnUse"><stop offset="0" stop-color="#e51e25"/><stop offset=".767" stop-color="#f68381"/></linearGradient><rect width="3" height="3" x="20" y="36" fill="url(#bhMkQlxDm1g~hlF0ciSwnj)"/><linearGradient id="bhMkQlxDm1g~hlF0ciSwnk" x1="26.501" x2="26.498" y1="38.379" y2="36.039" gradientUnits="userSpaceOnUse"><stop offset="0" stop-color="#328748"/><stop offset="1" stop-color="#89c535"/></linearGradient><rect width="3" height="3" x="25" y="36" fill="url(#bhMkQlxDm1g~hlF0ciSwnk)"/><linearGradient id="bhMkQlxDm1g~hlF0ciSwnl" x1="31.501" x2="31.498" y1="38.379" y2="36.039" gradientUnits="userSpaceOnUse"><stop offset="0" stop-color="#0091d8"/><stop offset="1" stop-color="#00b3eb"/></linearGradient><rect width="3" height="3" x="30" y="36" fill="url(#bhMkQlxDm1g~hlF0ciSwnl)"/><linearGradient id="bhMkQlxDm1g~hlF0ciSwnm" x1="17.002" x2="16.997" y1="24.17" y2="21.056" gradientUnits="userSpaceOnUse"><stop offset="0" stop-color="#0091d8"/><stop offset="1" stop-color="#00b3eb"/></linearGradient><circle cx="17" cy="23" r="2" fill="url(#bhMkQlxDm1g~hlF0ciSwnm)"/><linearGradient id="bhMkQlxDm1g~hlF0ciSwnn" x1="17.002" x2="16.997" y1="18.17" y2="15.056" gradientUnits="userSpaceOnUse"><stop offset="0" stop-color="#0091d8"/><stop offset="1" stop-color="#00b3eb"/></linearGradient><circle cx="17" cy="17" r="2" fill="url(#bhMkQlxDm1g~hlF0ciSwnn)"/><linearGradient id="bhMkQlxDm1g~hlF0ciSwno" x1="17.002" x2="16.997" y1="12.17" y2="9.056" gradientUnits="userSpaceOnUse"><stop offset="0" stop-color="#0091d8"/><stop offset="1" stop-color="#00b3eb"/></linearGradient><circle cx="17" cy="11" r="2" fill="url(#bhMkQlxDm1g~hlF0ciSwno)"/><linearGradient id="bhMkQlxDm1g~hlF0ciSwnp" x1="24.002" x2="23.997" y1="24.17" y2="21.056" gradientUnits="userSpaceOnUse"><stop offset="0" stop-color="#0091d8"/><stop offset="1" stop-color="#00b3eb"/></linearGradient><circle cx="24" cy="23" r="2" fill="url(#bhMkQlxDm1g~hlF0ciSwnp)"/><linearGradient id="bhMkQlxDm1g~hlF0ciSwnq" x1="17.002" x2="16.997" y1="30.17" y2="27.056" gradientUnits="userSpaceOnUse"><stop offset="0" stop-color="#0091d8"/><stop offset="1" stop-color="#00b3eb"/></linearGradient><circle cx="17" cy="29" r="2" fill="url(#bhMkQlxDm1g~hlF0ciSwnq)"/><linearGradient id="bhMkQlxDm1g~hlF0ciSwnr" x1="24.002" x2="23.997" y1="30.17" y2="27.056" gradientUnits="userSpaceOnUse"><stop offset="0" stop-color="#0091d8"/><stop offset="1" stop-color="#00b3eb"/></linearGradient><circle cx="24" cy="29" r="2" fill="url(#bhMkQlxDm1g~hlF0ciSwnr)"/><linearGradient id="bhMkQlxDm1g~hlF0ciSwns" x1="24.002" x2="23.997" y1="18.17" y2="15.056" gradientUnits="userSpaceOnUse"><stop offset="0" stop-color="#0091d8"/><stop offset="1" stop-color="#00b3eb"/></linearGradient><circle cx="24" cy="17" r="2" fill="url(#bhMkQlxDm1g~hlF0ciSwns)"/><linearGradient id="bhMkQlxDm1g~hlF0ciSwnt" x1="24.002" x2="23.997" y1="12.17" y2="9.056" gradientUnits="userSpaceOnUse"><stop offset="0" stop-color="#0091d8"/><stop offset="1" stop-color="#00b3eb"/></linearGradient><circle cx="24" cy="11" r="2" fill="url(#bhMkQlxDm1g~hlF0ciSwnt)"/><linearGradient id="bhMkQlxDm1g~hlF0ciSwnu" x1="31.002" x2="30.997" y1="24.17" y2="21.056" gradientUnits="userSpaceOnUse"><stop offset="0" stop-color="#0091d8"/><stop offset="1" stop-color="#00b3eb"/></linearGradient><circle cx="31" cy="23" r="2" fill="url(#bhMkQlxDm1g~hlF0ciSwnu)"/><linearGradient id="bhMkQlxDm1g~hlF0ciSwnv" x1="31.002" x2="30.997" y1="18.17" y2="15.056" gradientUnits="userSpaceOnUse"><stop offset="0" stop-color="#0091d8"/><stop offset="1" stop-color="#00b3eb"/></linearGradient><circle cx="31" cy="17" r="2" fill="url(#bhMkQlxDm1g~hlF0ciSwnv)"/><linearGradient id="bhMkQlxDm1g~hlF0ciSwnw" x1="31.002" x2="30.997" y1="12.17" y2="9.056" gradientUnits="userSpaceOnUse"><stop offset="0" stop-color="#0091d8"/><stop offset="1" stop-color="#00b3eb"/></linearGradient><circle cx="31" cy="11" r="2" fill="url(#bhMkQlxDm1g~hlF0ciSwnw)"/><linearGradient id="bhMkQlxDm1g~hlF0ciSwnx" x1="47.645" x2="-.354" y1="-25.901" y2="29.652" gradientUnits="userSpaceOnUse"><stop offset=".006" stop-color="#fff" stop-opacity=".5"/><stop offset=".952" stop-color="#fff" stop-opacity="0"/></linearGradient><path fill="url(#bhMkQlxDm1g~hlF0ciSwnx)" d="M12.862,1.479c-0.734,0-1.33,0.595-1.33,1.33v26.669L31.656,1.479H12.862z"/></svg>