<svg xmlns="http://www.w3.org/2000/svg" viewBox="0 0 48 48"><linearGradient id="Q8FZR0iJbZDleFL9kUO7sa" x1="10.005" x2="34.581" y1="35.369" y2="36.423" gradientUnits="userSpaceOnUse"><stop offset="0" stop-color="#a9b1c1"/><stop offset=".026" stop-color="#bbc3d2"/><stop offset=".061" stop-color="#ced6e2"/><stop offset=".099" stop-color="#d8e0ec"/><stop offset=".14" stop-color="#dce4ef"/><stop offset=".363" stop-color="#d9e1ec"/><stop offset=".558" stop-color="#ced6e3"/><stop offset=".743" stop-color="#bcc4d3"/><stop offset=".92" stop-color="#a3acbe"/><stop offset=".999" stop-color="#959eb2"/></linearGradient><path fill="url(#Q8FZR0iJbZDleFL9kUO7sa)" d="M39,27H12l-1.95,17.553C10.023,44.792,10.21,45,10.45,45h23.119	c0.233,0,0.418-0.198,0.401-0.431l-0.581-8.293c-0.243-2.678,0.844-5.304,2.91-7.025L39,27z"/><linearGradient id="Q8FZR0iJbZDleFL9kUO7sb" x1="36.645" x2="26.598" y1="40.923" y2="33.684" gradientUnits="userSpaceOnUse"><stop offset="0" stop-color="#fff" stop-opacity=".7"/><stop offset=".519" stop-color="#fff" stop-opacity=".336"/><stop offset="1" stop-color="#fff" stop-opacity="0"/></linearGradient><path fill="url(#Q8FZR0iJbZDleFL9kUO7sb)" d="M20.384,26.724l0.079,0.489l2.472,13.964c0.166,0.936,0.959,1.616,1.885,1.616h2.4	c0.889,0,1.662-0.628,1.865-1.517c0.079-8.775,1.466-12.256,2.877-14.552H20.384z"/><linearGradient id="Q8FZR0iJbZDleFL9kUO7sc" x1="23.604" x2="43.987" y1="19.32" y2="12.225" gradientTransform="matrix(-1 0 0 1 71 0)" gradientUnits="userSpaceOnUse"><stop offset=".001" stop-color="#959eb2"/><stop offset=".093" stop-color="#a3acbe"/><stop offset=".299" stop-color="#bcc4d3"/><stop offset=".514" stop-color="#ced6e3"/><stop offset=".741" stop-color="#d9e1ec"/><stop offset="1" stop-color="#dce4ef"/></linearGradient><path fill="url(#Q8FZR0iJbZDleFL9kUO7sc)" d="M31,8h13.001c0.055,5.361-1.172,10.472-1.813,15.216C42.127,23.669,41.764,24,41.342,24	h-9.493C31.38,24,31,23.588,31,23.08V8z"/><linearGradient id="Q8FZR0iJbZDleFL9kUO7sd" x1="43.712" x2="22.924" y1="13.114" y2="18.783" gradientTransform="matrix(-1 0 0 1 71 0)" gradientUnits="userSpaceOnUse"><stop offset="0" stop-color="#9ea7ba" stop-opacity="0"/><stop offset=".777" stop-color="#99a1b5" stop-opacity=".777"/><stop offset="1" stop-color="#969eb3"/></linearGradient><path fill="url(#Q8FZR0iJbZDleFL9kUO7sd)" d="M31.766,8v14.501c0,0.448,0.335,0.811,0.749,0.811h8.375c0.372,0,0.692-0.292,0.746-0.691	c0.565-4.176,1.71-9.62,1.599-14.621h0.766c0.055,5.361-1.172,10.472-1.813,15.216C42.127,23.669,41.764,24,41.342,24h-9.493	C31.38,24,31,23.588,31,23.08V8H31.766z"/><radialGradient id="Q8FZR0iJbZDleFL9kUO7se" cx="17.942" cy="26.799" r="13.472" gradientTransform="matrix(1 0 0 .7874 0 5.697)" gradientUnits="userSpaceOnUse"><stop offset=".413" stop-color="#969eb3"/><stop offset=".798" stop-color="#98a1b5" stop-opacity=".345"/><stop offset="1" stop-color="#9ea7ba" stop-opacity="0"/></radialGradient><path fill="url(#Q8FZR0iJbZDleFL9kUO7se)" d="M10.998,36.016c2.294,0.927,5.005,1.541,8.178,1.541c6.598,0,11.876-5.278,11.876-10.557H12	L10.998,36.016z"/><linearGradient id="Q8FZR0iJbZDleFL9kUO7sf" x1="33.5" x2="33.5" y1="4.646" y2="8.21" gradientTransform="matrix(-1 0 0 1 71 0)" gradientUnits="userSpaceOnUse"><stop offset="0" stop-color="#dce4ef"/><stop offset=".297" stop-color="#d8e0ec"/><stop offset=".563" stop-color="#ced6e2"/><stop offset=".816" stop-color="#bbc3d2"/><stop offset="1" stop-color="#a9b1c1"/></linearGradient><path fill="url(#Q8FZR0iJbZDleFL9kUO7sf)" d="M31.175,8h12.65c0.355,0,0.642-0.287,0.642-0.642v-0.47C44.467,5.845,43.622,5,42.579,5	H32.421c-1.043,0-1.888,0.845-1.888,1.888v0.47C30.533,7.713,30.82,8,31.175,8z"/><linearGradient id="Q8FZR0iJbZDleFL9kUO7sg" x1="32.649" x2="25.871" y1="36.348" y2="31.837" gradientUnits="userSpaceOnUse"><stop offset="0" stop-color="#dbe3ee"/><stop offset=".999" stop-color="#959eb2"/></linearGradient><path fill="url(#Q8FZR0iJbZDleFL9kUO7sg)" d="M22,31l1.793,9.859C23.913,41.52,24.488,42,25.16,42h1.74c0.645,0,1.205-0.444,1.352-1.071	C28.314,34.263,29,28,32,25H21L22,31L22,31z"/><radialGradient id="Q8FZR0iJbZDleFL9kUO7sh" cx="12.415" cy="27.936" r="16.436" gradientTransform="matrix(1 0 0 .6005 0 11.16)" gradientUnits="userSpaceOnUse"><stop offset="0" stop-color="#dbe3ee"/><stop offset=".215" stop-color="#d6dee9"/><stop offset=".481" stop-color="#c7cfdc"/><stop offset=".772" stop-color="#aeb6c7"/><stop offset=".999" stop-color="#959eb2"/></radialGradient><path fill="url(#Q8FZR0iJbZDleFL9kUO7sh)" d="M28,27H5c0,0,4,8,14,8C24,35,28,31,28,27z"/><linearGradient id="Q8FZR0iJbZDleFL9kUO7si" x1="23.179" x2="23.179" y1="23.838" y2="27.386" gradientUnits="userSpaceOnUse"><stop offset="0" stop-color="#a9b1c1"/><stop offset=".05" stop-color="#bbc3d2"/><stop offset=".118" stop-color="#ced6e2"/><stop offset=".189" stop-color="#d8e0ec"/><stop offset=".269" stop-color="#dce4ef"/><stop offset=".421" stop-color="#d6deea"/><stop offset=".632" stop-color="#c4ccda"/><stop offset=".875" stop-color="#a7afc1"/><stop offset=".999" stop-color="#959eb2"/></linearGradient><path fill="url(#Q8FZR0iJbZDleFL9kUO7si)" d="M41.337,27H5.021c-0.366,0-0.663-0.297-0.663-0.663v-1.674C4.358,24.297,4.655,24,5.021,24	h36.316C41.703,24,42,24.297,42,24.663v1.674C42,26.703,41.703,27,41.337,27z"/><linearGradient id="Q8FZR0iJbZDleFL9kUO7sj" x1="-9.31" x2="25.756" y1="23.457" y2="23.517" gradientUnits="userSpaceOnUse"><stop offset="0" stop-color="#eefaff"/><stop offset="1" stop-color="#68bae2"/></linearGradient><path fill="url(#Q8FZR0iJbZDleFL9kUO7sj)" d="M6,23h21c0.552,0,1,0.448,1,1v0H5v0C5,23.448,5.448,23,6,23z"/><linearGradient id="Q8FZR0iJbZDleFL9kUO7sk" x1="4.197" x2="21.93" y1="22.482" y2="22.509" gradientUnits="userSpaceOnUse"><stop offset="0" stop-color="#eefaff"/><stop offset="1" stop-color="#68bae2"/></linearGradient><path fill="url(#Q8FZR0iJbZDleFL9kUO7sk)" d="M7,22h19c0.552,0,1,0.448,1,1v0H6v0C6,22.448,6.448,22,7,22z"/><linearGradient id="Q8FZR0iJbZDleFL9kUO7sl" x1="22" x2="22" y1="27" y2="28.838" gradientUnits="userSpaceOnUse"><stop offset="0" stop-color="#969eb3"/><stop offset=".223" stop-color="#99a1b5" stop-opacity=".777"/><stop offset="1" stop-color="#9ea7ba" stop-opacity="0"/></linearGradient><path fill="url(#Q8FZR0iJbZDleFL9kUO7sl)" d="M7.973,30.745h26.936c0.396-0.547,0.859-1.051,1.39-1.494L39,27H28H12H5	C5,27,5.92,28.833,7.973,30.745z"/><linearGradient id="Q8FZR0iJbZDleFL9kUO7sm" x1="22.035" x2="22.035" y1="44.872" y2="43.999" gradientUnits="userSpaceOnUse"><stop offset="0" stop-color="#969eb3"/><stop offset=".223" stop-color="#99a1b5" stop-opacity=".777"/><stop offset="1" stop-color="#9ea7ba" stop-opacity="0"/></linearGradient><path fill="url(#Q8FZR0iJbZDleFL9kUO7sm)" d="M33.501,45H10.45c-0.276,0-0.38-0.224-0.38-0.499v-0.001c0-0.276,0.224-0.499,0.499-0.499	h22.932C33.776,44,34,44.224,34,44.499v0.001C34,44.776,33.776,45,33.501,45z"/><radialGradient id="Q8FZR0iJbZDleFL9kUO7sn" cx="-185.205" cy="-276.767" r="3.523" gradientTransform="matrix(-1.2457 0 0 -.2237 -194.984 -56.083)" gradientUnits="userSpaceOnUse"><stop offset="0" stop-color="#fff" stop-opacity=".6"/><stop offset=".999" stop-color="#fff" stop-opacity="0"/></radialGradient><ellipse cx="35.8" cy="5.899" fill="url(#Q8FZR0iJbZDleFL9kUO7sn)" rx="4.875" ry=".941"/><radialGradient id="Q8FZR0iJbZDleFL9kUO7so" cx="-168.922" cy="-295.859" r="3.523" gradientTransform="matrix(-1.6229 0 0 -.1441 -263.382 -17.814)" gradientUnits="userSpaceOnUse"><stop offset="0" stop-color="#fff" stop-opacity=".6"/><stop offset=".999" stop-color="#fff" stop-opacity="0"/></radialGradient><ellipse cx="10.851" cy="24.856" fill="url(#Q8FZR0iJbZDleFL9kUO7so)" rx="6.351" ry=".606"/></svg>