<svg xmlns="http://www.w3.org/2000/svg" viewBox="0 0 48 48"><linearGradient id="9FwZcU4cPh7dtiFTElJ31a" x1="23.658" x2="23.658" y1="47.048" y2="34.124" gradientUnits="userSpaceOnUse"><stop offset="0" stop-color="#f05f26"/><stop offset=".317" stop-color="#ed5e26"/><stop offset=".509" stop-color="#e55924"/><stop offset=".669" stop-color="#d75122"/><stop offset=".811" stop-color="#c2461f"/><stop offset=".94" stop-color="#a8381a"/><stop offset="1" stop-color="#993018"/></linearGradient><path fill="url(#9FwZcU4cPh7dtiFTElJ31a)" d="M23.534,30.176c0.001-0.143,0.129-0.23,0.272-0.229c0.14,0.001,0.337,0.076,0.348,0.215	C25.093,41.392,25.564,47,23.649,47c-0.663,0-1.305-0.367-1.305-1.448C22.344,45.04,25.25,47.829,23.534,30.176z"/><radialGradient id="9FwZcU4cPh7dtiFTElJ31b" cx="19.767" cy="39.43" r="30.649" gradientUnits="userSpaceOnUse"><stop offset="0" stop-color="#b52710"/><stop offset=".291" stop-color="#ce3711"/><stop offset=".75" stop-color="#ef4c12"/><stop offset="1" stop-color="#fc5412"/></radialGradient><path fill="url(#9FwZcU4cPh7dtiFTElJ31b)" d="M40.15,32.818c0.377-1.375,4.717-1.177,5.832-2.262c-1.194-1.199-4.729-1.169-5.034-2.129	c-0.305-0.96,0.505-1.372,0.643-2.24c-1.111,0.153-4.086,1.205-4.657-0.133c-0.571-1.338,4.08-5.278,4.768-6.608	c-0.776-0.554-1.667,0.043-2.351-1.109c-0.683-1.152,2.395-4.435,2.55-6.009c-1.641-0.022-4.391,2.528-5.344,1.951	c-0.954-0.577-0.665-1.419-0.887-1.929c-1.663,0.599-4.795,4.476-5.654,3.748c-0.86-0.728,0.887-7.872,0.554-9.247	c-1.109-0.067-2.352,1.309-3.305,1.309C26.069,8.16,25.005,2,24,2s-2.069,6.16-3.266,6.16c-0.953,0-2.196-1.376-3.305-1.309	c-0.333,1.375,1.414,8.519,0.554,9.247c-0.86,0.728-3.991-3.149-5.654-3.748c-0.222,0.51,0.067,1.353-0.887,1.929	c-0.953,0.577-3.703-1.974-5.344-1.951c0.155,1.574,3.233,4.857,2.55,6.009c-0.683,1.152-1.574,0.554-2.351,1.109	c0.687,1.331,5.339,5.27,4.768,6.608c-0.571,1.338-3.545,0.286-4.657,0.133c0.138,0.867,0.948,1.28,0.643,2.24	c-0.305,0.96-3.839,0.93-5.034,2.129c1.115,1.084,5.455,0.887,5.832,2.262c0.318,1.158-0.668,1.284-0.698,2.137	c1.242,0.398,4.75-0.742,5.938,0.816c1.062,1.393-0.519,2.827-0.349,4.187c9.452,0,10.496-6.488,11.259-6.488	s1.406,6.488,11.259,6.488c0.17-1.36-1.41-2.793-0.349-4.187c1.188-1.559,4.696-0.419,5.938-0.816	C40.818,34.102,39.832,33.976,40.15,32.818z"/><linearGradient id="9FwZcU4cPh7dtiFTElJ31c" x1="37.731" x2="16.411" y1="38.788" y2="-13.67" gradientUnits="userSpaceOnUse"><stop offset="0" stop-color="#b52710"/><stop offset="1" stop-color="#fc5412"/></linearGradient><path fill="url(#9FwZcU4cPh7dtiFTElJ31c)" d="M40.15,32.818c0.377-1.375,4.717-1.177,5.832-2.262c-3.377-0.44-7.393-0.147-11.065,0.392	c-0.476,0.07,3.467,2.19,3.004,2.267c-0.433,0.072-5.273-1.898-5.69-1.821c-4.927,0.908-8.638,2.076-8.23,2.076	c0.763,0,9.651-0.075,10.911,2.301c1.188-1.559,4.696-0.419,5.938-0.816C40.818,34.102,39.832,33.976,40.15,32.818z"/><linearGradient id="9FwZcU4cPh7dtiFTElJ31d" x1="26.701" x2="46.272" y1="33.074" y2="11.151" gradientUnits="userSpaceOnUse"><stop offset="0" stop-color="#b52710"/><stop offset="1" stop-color="#fc5412"/></linearGradient><path fill="url(#9FwZcU4cPh7dtiFTElJ31d)" d="M36.935,26.054c-0.571-1.338,4.08-5.278,4.768-6.608c-0.776-0.554-1.667,0.043-2.351-1.109	c-0.683-1.152,2.395-4.435,2.55-6.009c-0.653-0.009-4.184,3.86-7.621,7.895c-0.286,0.335,4.743-0.168,4.453,0.175	c-0.231,0.274-5.779,1.394-6.01,1.671c-1.017,1.217-1.642,1.881-2.581,3.044c-0.193,0.239,4.703-0.873,4.516-0.639	c-0.204,0.254-5.867,2.408-6.063,2.654C25.737,30.717,23.712,33.47,24,33.47C24.763,33.47,31.693,27.068,36.935,26.054z"/><linearGradient id="9FwZcU4cPh7dtiFTElJ31e" x1="21.264" x2="29.717" y1="35.643" y2="-3.493" gradientUnits="userSpaceOnUse"><stop offset="0" stop-color="#b52710"/><stop offset="1" stop-color="#fc5412"/></linearGradient><path fill="url(#9FwZcU4cPh7dtiFTElJ31e)" d="M30.016,16.098c-0.86-0.728,0.887-7.872,0.554-9.247c-1.109-0.067-2.352,1.309-3.305,1.309	C26.069,8.16,25.005,2,24,2c0.282,4.762,0.423,8.907,0.462,13.18c0.002,0.228,4.095-4.773,4.096-4.547	c0.002,0.251-4.088,6.188-4.087,6.437c0.008,1.964-0.015,3.19-0.045,4.983c-0.004,0.231,2.936-3.41,2.932-3.182	c-0.004,0.22-2.963,5.289-2.968,5.506c-0.08,3.614-0.21,6.485-0.391,9.094C24.763,33.47,27.164,21.759,30.016,16.098z"/><linearGradient id="9FwZcU4cPh7dtiFTElJ31f" x1="18.471" x2="-2.436" y1="37.048" y2="17.552" gradientUnits="userSpaceOnUse"><stop offset="0" stop-color="#b52710"/><stop offset="1" stop-color="#fc5412"/></linearGradient><path fill="url(#9FwZcU4cPh7dtiFTElJ31f)" d="M11.065,26.054c-0.571,1.338-3.545,0.286-4.657,0.133c0.138,0.867,0.948,1.28,0.643,2.24	c-0.305,0.96-3.839,0.93-5.034,2.129c3.066,0.001,5.875,0.167,8.386,0.419c0.205,0.021-2.216-3.236-2.015-3.214	c0.188,0.02,3.671,3.425,3.856,3.447c1.468,0.168,2.796,0.36,3.986,0.558c0.326,0.054-1.166-2.162-0.861-2.106	c0.237,0.043,2.275,2.356,2.5,2.399c3.72,0.71,5.742,1.412,6.13,1.412C24.763,33.47,16.573,28.565,11.065,26.054z"/><linearGradient id="9FwZcU4cPh7dtiFTElJ31g" x1="12.318" x2="19.999" y1="33.652" y2="3.893" gradientUnits="userSpaceOnUse"><stop offset="0" stop-color="#b52710"/><stop offset="1" stop-color="#fc5412"/></linearGradient><path fill="url(#9FwZcU4cPh7dtiFTElJ31g)" d="M17.984,16.098c-0.86,0.728-3.991-3.149-5.654-3.748c-0.222,0.51,0.067,1.353-0.887,1.929	c-0.953,0.577-3.703-1.974-5.344-1.951c2.768,2.39,5.211,4.884,7.333,7.286c0.123,0.14-0.22-5.06-0.099-4.921	c0.166,0.19,1.264,6.462,1.425,6.651c1.339,1.562,2.244,2.706,3.27,4.05c0.139,0.182-0.308-6.691-0.175-6.514	c0.155,0.206,1.225,7.891,1.373,8.091C22.184,30.965,23.61,33.47,24,33.47C24.763,33.47,22.648,25.323,17.984,16.098z"/></svg>