<svg xmlns="http://www.w3.org/2000/svg" viewBox="0 0 48 48"><radialGradient id="sRUT1z6H4kzN3N9rH_yrba" cx="11.476" cy="18.953" r="11.242" gradientUnits="userSpaceOnUse"><stop offset="0" stop-color="#f5f5f5"/><stop offset=".136" stop-color="#ececeb"/><stop offset=".364" stop-color="#d3d2d1"/><stop offset=".657" stop-color="#aaa9a6"/><stop offset="1" stop-color="#73706c"/></radialGradient><polygon fill="url(#sRUT1z6H4kzN3N9rH_yrba)" points="14.16,11.348 8.792,11.348 7.897,26.557 15.054,26.557"/><polygon fill="#ba2b00" points="8.529,15.821 8.424,17.611 14.528,17.611 14.423,15.821"/><polygon fill="#ba2b00" points="8.792,11.348 8.687,13.138 14.265,13.138 14.16,11.348"/><polygon fill="#ba2b00" points="14.791,22.084 14.686,20.294 8.266,20.294 8.16,22.084"/><radialGradient id="sRUT1z6H4kzN3N9rH_yrbb" cx="24.001" cy="30.203" r="23.177" gradientTransform="matrix(1 0 0 .7984 0 6.089)" gradientUnits="userSpaceOnUse"><stop offset="0" stop-color="#eb4b1a"/><stop offset=".295" stop-color="#e14515"/><stop offset=".789" stop-color="#c73407"/><stop offset="1" stop-color="#ba2b00"/></radialGradient><polygon fill="url(#sRUT1z6H4kzN3N9rH_yrbb)" points="41,18.641 29.638,25.876 29.638,25.876 29.638,25.876 29.638,25.876 29.638,18.641 18.317,25.876 18.317,25.876 18.317,25.876 18.317,25.876 18.317,18.641 7.003,25.876 7.003,41.765 40.998,41.765"/><linearGradient id="sRUT1z6H4kzN3N9rH_yrbc" x1="18.492" x2="18.492" y1="38.956" y2="30.433" gradientUnits="userSpaceOnUse"><stop offset=".005" stop-color="#2688c7"/><stop offset=".155" stop-color="#2585c3"/><stop offset=".303" stop-color="#237db7"/><stop offset=".452" stop-color="#1f6fa3"/><stop offset=".6" stop-color="#1a5b87"/><stop offset=".748" stop-color="#134263"/><stop offset=".862" stop-color="#0d2a42"/></linearGradient><rect width="16.205" height="9.048" x="10.389" y="29.957" fill="url(#sRUT1z6H4kzN3N9rH_yrbc)"/><g opacity=".28"><path d="M10.389,29.957v9.048h16.205v-9.048H10.389z"/><path fill="#000101" d="M10.393,39.001v-9.04h16.198v9.04H10.393z"/><path fill="#010101" d="M10.396,38.996v-9.031h16.191v9.031H10.396z"/><path fill="#010202" d="M10.4,38.992v-9.023h16.184v9.023H10.4z"/><path fill="#020203" d="M10.403,38.987v-9.014h16.178v9.014H10.403z"/><path fill="#020303" d="M10.406,38.983v-9.006h16.171v9.006H10.406z"/><path fill="#030404" d="M10.41,38.978v-8.997h16.164v8.997H10.41z"/><path fill="#030405" d="M10.413,38.974v-8.989h16.157v8.989H10.413z"/><path fill="#040505" d="M10.417,38.969v-8.981h16.15v8.981H10.417z"/><path fill="#040506" d="M10.42,38.965v-8.972h16.144v8.972H10.42z"/><path fill="#040607" d="M10.423,38.961v-8.964H26.56v8.964H10.423z"/><path fill="#050708" d="M10.427,38.956v-8.955h16.13v8.955H10.427z"/><path fill="#050708" d="M10.43,38.952v-8.947h16.123v8.947H10.43z"/><path fill="#060809" d="M10.434,38.947v-8.938H26.55v8.938H10.434z"/><path fill="#06080a" d="M10.437,38.943v-8.93h16.11v8.93H10.437z"/><path fill="#07090a" d="M10.44,38.938v-8.921h16.103v8.921H10.44z"/><path fill="#07090b" d="M10.444,38.934v-8.913H26.54v8.913H10.444z"/><path fill="#080a0c" d="M10.447,38.929v-8.905h16.089v8.905H10.447z"/><path fill="#080b0c" d="M10.451,38.925v-8.896h16.082v8.896H10.451z"/><path fill="#090b0d" d="M10.454,38.921v-8.888H26.53v8.888H10.454z"/><path fill="#090c0e" d="M10.458,38.916v-8.879h16.069v8.879H10.458z"/><path fill="#090c0e" d="M10.461,38.912v-8.871h16.062v8.871H10.461z"/><path fill="#0a0d0f" d="M10.464,38.907v-8.862H26.52v8.862H10.464z"/><path fill="#0a0e10" d="M10.468,38.903v-8.854h16.048v8.854H10.468z"/><path fill="#0b0e10" d="M10.471,38.898v-8.846h16.042v8.846H10.471z"/><path fill="#0b0f11" d="M10.475,38.894v-8.837h16.035v8.837H10.475z"/><path fill="#0c0f12" d="M10.478,38.889v-8.829h16.028v8.829H10.478z"/><path fill="#0c1013" d="M10.481,38.885v-8.82h16.021v8.82H10.481z"/><path fill="#0d1113" d="M10.485,38.88v-8.812h16.014v8.812H10.485z"/><path fill="#0d1114" d="M10.488,38.876v-8.803h16.008v8.803H10.488z"/><path fill="#0d1215" d="M10.492,38.872v-8.795h16.001v8.795H10.492z"/><path fill="#0e1215" d="M10.495,38.867v-8.786h15.994v8.786H10.495z"/><path fill="#0e1316" d="M10.498,38.863v-8.778h15.987v8.778H10.498z"/><path fill="#0f1417" d="M10.502,38.858v-8.77h15.98v8.77H10.502z"/><path fill="#0f1417" d="M10.505,38.854v-8.761h15.974v8.761H10.505z"/><path fill="#101518" d="M10.509,38.849v-8.753h15.967v8.753H10.509z"/><path fill="#101519" d="M10.512,38.845v-8.744h15.96v8.744H10.512z"/><path fill="#111619" d="M10.515,38.84v-8.736h15.953v8.736H10.515z"/><path fill="#11161a" d="M10.519,38.836v-8.727h15.946v8.727H10.519z"/><path fill="#11171b" d="M10.522,38.831v-8.719h15.94v8.719H10.522z"/><path fill="#12181b" d="M10.526,38.827v-8.71h15.933v8.71H10.526z"/><path fill="#12181c" d="M10.529,38.823v-8.702h15.926v8.702H10.529z"/><path fill="#13191d" d="M10.532,38.818v-8.694h15.919v8.694H10.532z"/><path fill="#13191e" d="M10.536,38.814v-8.685h15.912v8.685H10.536z"/><path fill="#141a1e" d="M10.539,38.809v-8.677h15.906v8.677H10.539z"/><path fill="#141b1f" d="M10.543,38.805v-8.668h15.899v8.668H10.543z"/><path fill="#151b20" d="M10.546,38.8v-8.66h15.892v8.66H10.546z"/><path fill="#151c20" d="M10.549,38.796v-8.651h15.885v8.651H10.549z"/><path fill="#151c21" d="M10.553,38.791v-8.643h15.878v8.643H10.553z"/><path fill="#161d22" d="M10.556,38.787v-8.634h15.872v8.634H10.556z"/><path fill="#161e22" d="M10.56,38.783v-8.626h15.865v8.626H10.56z"/><path fill="#171e23" d="M10.563,38.778V30.16h15.858v8.618H10.563z"/><path fill="#171f24" d="M10.566,38.774v-8.609h15.851v8.609H10.566z"/><path fill="#181f24" d="M10.57,38.769v-8.601h15.844v8.601H10.57z"/><path fill="#182025" d="M10.573,38.765v-8.592h15.838v8.592H10.573z"/><path fill="#192126" d="M10.577,38.76v-8.584h15.831v8.584H10.577z"/><path fill="#192126" d="M10.58,38.756V30.18h15.824v8.575H10.58z"/><path fill="#1a2227" d="M10.583,38.751v-8.567H26.4v8.567H10.583z"/><path fill="#1a2228" d="M10.587,38.747v-8.559h15.81v8.559H10.587z"/><path fill="#1a2329" d="M10.59,38.742v-8.55h15.804v8.55H10.59z"/><path fill="#1b2429" d="M10.594,38.738v-8.542H26.39v8.542H10.594z"/><path fill="#1b242a" d="M10.597,38.734V30.2h15.79v8.533H10.597z"/><path fill="#1c252b" d="M10.6,38.729v-8.525h15.783v8.525H10.6z"/><path fill="#1c252b" d="M10.604,38.725v-8.516H26.38v8.516H10.604z"/><path fill="#1d262c" d="M10.607,38.72v-8.508h15.77v8.508H10.607z"/><path fill="#1d262d" d="M10.611,38.716v-8.499h15.763v8.499H10.611z"/><path fill="#1e272d" d="M10.614,38.711V30.22H26.37v8.491H10.614z"/><path fill="#1e282e" d="M10.617,38.707v-8.483h15.749v8.483H10.617z"/><path fill="#1e282f" d="M10.621,38.702v-8.474h15.742v8.474H10.621z"/><path fill="#1f292f" d="M10.624,38.698v-8.466H26.36v8.466H10.624z"/><path fill="#1f2930" d="M10.628,38.694v-8.457h15.729v8.457H10.628z"/><path fill="#202a31" d="M10.631,38.689V30.24h15.722v8.449H10.631z"/><path fill="#202b31" d="M10.634,38.685v-8.44h15.715v8.44H10.634z"/><path fill="#212b32" d="M10.638,38.68v-8.432h15.708v8.432H10.638z"/><path fill="#212c33" d="M10.641,38.676v-8.423h15.701v8.423H10.641z"/><path fill="#222c33" d="M10.645,38.671v-8.415h15.695v8.415H10.645z"/><path fill="#222d34" d="M10.648,38.667V30.26h15.688v8.407H10.648z"/><path fill="#222e35" d="M10.651,38.662v-8.398h15.681v8.398H10.651z"/><path fill="#232e36" d="M10.655,38.658v-8.39h15.674v8.39H10.655z"/><path fill="#232f36" d="M10.658,38.653v-8.381h15.667v8.381H10.658z"/><path fill="#242f37" d="M10.662,38.649v-8.373h15.661v8.373H10.662z"/><path fill="#243038" d="M10.665,38.645V30.28h15.654v8.364H10.665z"/><path fill="#253138" d="M10.668,38.64v-8.356h15.647v8.356H10.668z"/><path fill="#253139" d="M10.672,38.636v-8.347h15.64v8.347H10.672z"/><path fill="#26323a" d="M10.675,38.631v-8.339h15.633v8.339H10.675z"/><path fill="#26323a" d="M10.679,38.627v-8.331h15.627v8.331H10.679z"/><path fill="#27333b" d="M10.682,38.622V30.3h15.62v8.322H10.682z"/><path fill="#27343c" d="M10.685,38.618v-8.314h15.613v8.314H10.685z"/><path fill="#27343c" d="M10.689,38.613v-8.305h15.606v8.305H10.689z"/><path fill="#28353d" d="M10.692,38.609v-8.297h15.599v8.297H10.692z"/><path fill="#28353e" d="M10.696,38.605v-8.288h15.593v8.288H10.696z"/><path fill="#29363e" d="M10.699,38.6v-8.28h15.586v8.28H10.699z"/><path fill="#29363f" d="M10.702,38.596v-8.272h15.579v8.272H10.702z"/><path fill="#2a3740" d="M10.706,38.591v-8.263h15.572v8.263H10.706z"/><path fill="#2a3841" d="M10.709,38.587v-8.255h15.565v8.255H10.709z"/><path fill="#2b3841" d="M10.713,38.582v-8.246h15.559v8.246H10.713z"/><path fill="#2b3942" d="M10.716,38.578V30.34h15.552v8.238H10.716z"/><path fill="#2b3943" d="M10.719,38.573v-8.229h15.545v8.229H10.719z"/><path fill="#2c3a43" d="M10.723,38.569v-8.221h15.538v8.221H10.723z"/><path fill="#2c3b44" d="M10.726,38.564v-8.212h15.531v8.212H10.726z"/><path fill="#2d3b45" d="M10.73,38.56v-8.204h15.525v8.204H10.73z"/><path fill="#2d3c45" d="M10.733,38.556V30.36h15.518v8.196H10.733z"/><path fill="#2e3c46" d="M10.736,38.551v-8.187h15.511v8.187H10.736z"/><path fill="#2e3d47" d="M10.74,38.547v-8.179h15.504v8.179H10.74z"/><path fill="#2f3e47" d="M10.743,38.542v-8.17h15.497v8.17H10.743z"/><path fill="#2f3e48" d="M10.747,38.538v-8.162h15.491v8.162H10.747z"/><path fill="#2f3f49" d="M10.75,38.533V30.38h15.484v8.153H10.75z"/><path fill="#303f49" d="M10.753,38.529v-8.145H26.23v8.145H10.753z"/><path fill="#30404a" d="M10.757,38.524v-8.136h15.47v8.136H10.757z"/><path fill="#31414b" d="M10.76,38.52v-8.128h15.463v8.128H10.76z"/><path fill="#31414c" d="M10.764,38.515v-8.12H26.22v8.12H10.764z"/><path fill="#32424c" d="M10.767,38.511V30.4h15.45v8.111H10.767z"/><path fill="#32424d" d="M10.77,38.507v-8.103h15.443v8.103H10.77z"/><path fill="#33434e" d="M10.774,38.502v-8.094H26.21v8.094H10.774z"/><path fill="#33434e" d="M10.777,38.498v-8.086h15.429v8.086H10.777z"/><path fill="#33444f" d="M10.781,38.493v-8.077h15.423v8.077H10.781z"/><path fill="#344550" d="M10.784,38.489V30.42H26.2v8.069H10.784z"/><path fill="#344550" d="M10.787,38.484v-8.061h15.409v8.061H10.787z"/><path fill="#354651" d="M10.791,38.48v-8.052h15.402v8.052H10.791z"/><path fill="#354652" d="M10.794,38.475v-8.044H26.19v8.044H10.794z"/><path fill="#364752" d="M10.798,38.471v-8.035h15.389v8.035H10.798z"/><path fill="#364853" d="M10.801,38.467V30.44h15.382v8.027H10.801z"/><path fill="#374854" d="M10.804,38.462v-8.018h15.375v8.018H10.804z"/><path fill="#374954" d="M10.808,38.458v-8.01h15.368v8.01H10.808z"/><path fill="#384955" d="M10.811,38.453v-8.001h15.361v8.001H10.811z"/><path fill="#384a56" d="M10.815,38.449v-7.993h15.355v7.993H10.815z"/><path fill="#384b57" d="M10.818,38.444V30.46h15.348v7.985H10.818z"/><path fill="#394b57" d="M10.821,38.44v-7.976h15.341v7.976H10.821z"/><path fill="#394c58" d="M10.825,38.435v-7.968h15.334v7.968H10.825z"/><path fill="#3a4c59" d="M10.828,38.431v-7.959h15.327v7.959H10.828z"/><path fill="#3a4d59" d="M10.832,38.426v-7.951h15.32v7.951H10.832z"/><path fill="#3b4e5a" d="M10.835,38.422V30.48h15.314v7.942H10.835z"/><path fill="#3b4e5b" d="M10.838,38.418v-7.934h15.307v7.934H10.838z"/><path fill="#3c4f5b" d="M10.842,38.413v-7.925h15.3v7.925H10.842z"/><path fill="#3c4f5c" d="M10.845,38.409v-7.917h15.293v7.917H10.845z"/><path fill="#3c505d" d="M10.849,38.404v-7.909h15.286v7.909H10.849z"/><path fill="#3d515d" d="M10.852,38.4v-7.9h15.28v7.9H10.852z"/><path fill="#3d515e" d="M10.855,38.395v-7.892h15.273v7.892H10.855z"/><path fill="#3e525f" d="M10.859,38.391v-7.883h15.266v7.883H10.859z"/><path fill="#3e525f" d="M10.862,38.386v-7.875h15.259v7.875H10.862z"/><path fill="#3f5360" d="M10.866,38.382v-7.866h15.252v7.866H10.866z"/><path fill="#3f5361" d="M10.869,38.378V30.52h15.246v7.858H10.869z"/><path fill="#405461" d="M10.872,38.373v-7.849h15.239v7.849H10.872z"/><path fill="#405562" d="M10.876,38.369v-7.841h15.232v7.841H10.876z"/><path fill="#405563" d="M10.879,38.364v-7.833h15.225v7.833H10.879z"/><path fill="#415664" d="M10.883,38.36v-7.824h15.218v7.824H10.883z"/><path fill="#415664" d="M10.886,38.355V30.54h15.212v7.816H10.886z"/><path fill="#425765" d="M10.89,38.351v-7.807h15.205v7.807H10.89z"/><path fill="#425866" d="M10.893,38.346v-7.799h15.198v7.799H10.893z"/><path fill="#435866" d="M10.896,38.342v-7.79h15.191v7.79H10.896z"/><path fill="#435967" d="M10.9,38.337v-7.782h15.184v7.782H10.9z"/><path fill="#445968" d="M10.903,38.333V30.56h15.178v7.774H10.903z"/><path fill="#445a68" d="M10.907,38.329v-7.765h15.171v7.765H10.907z"/><path fill="#455b69" d="M10.91,38.324v-7.757h15.164v7.757H10.91z"/><path fill="#455b6a" d="M10.913,38.32v-7.748h15.157v7.748H10.913z"/><path fill="#455c6a" d="M10.917,38.315v-7.74h15.15v7.74H10.917z"/><path fill="#465c6b" d="M10.92,38.311v-7.731h15.144v7.731H10.92z"/><path fill="#465d6c" d="M10.924,38.306v-7.723H26.06v7.723H10.924z"/><path fill="#475e6c" d="M10.927,38.302v-7.714h15.13v7.714H10.927z"/><path fill="#475e6d" d="M10.93,38.297v-7.706h15.123v7.706H10.93z"/><path fill="#485f6e" d="M10.934,38.293v-7.698H26.05v7.698H10.934z"/><path fill="#485f6f" d="M10.937,38.289v-7.689h15.11v7.689H10.937z"/><path fill="#49606f" d="M10.941,38.284v-7.681h15.103v7.681H10.941z"/><path fill="#496170" d="M10.944,38.28v-7.672H26.04v7.672H10.944z"/><path fill="#496171" d="M10.947,38.275v-7.664h15.089v7.664H10.947z"/><path fill="#4a6271" d="M10.951,38.271v-7.655h15.082v7.655H10.951z"/><path fill="#4a6272" d="M10.954,38.266v-7.647H26.03v7.647H10.954z"/><path fill="#4b6373" d="M10.958,38.262v-7.638h15.069v7.638H10.958z"/><path fill="#4b6373" d="M10.961,38.257v-7.63h15.062v7.63H10.961z"/><path fill="#4c6474" d="M10.964,38.253v-7.622H26.02v7.622H10.964z"/><path fill="#4c6575" d="M10.968,38.248v-7.613h15.048v7.613H10.968z"/><path fill="#4d6575" d="M10.971,38.244v-7.605h15.042v7.605H10.971z"/><path fill="#4d6676" d="M10.975,38.24v-7.596h15.035v7.596H10.975z"/><path fill="#4d6677" d="M10.978,38.235v-7.588h15.028v7.588H10.978z"/><path fill="#4e6777" d="M10.981,38.231v-7.579h15.021v7.579H10.981z"/><path fill="#4e6878" d="M10.985,38.226v-7.571h15.014v7.571H10.985z"/><path fill="#4f6879" d="M10.988,38.222v-7.562h15.008v7.562H10.988z"/><path fill="#4f697a" d="M10.992,38.217v-7.554h15.001v7.554H10.992z"/><path fill="#50697a" d="M10.995,38.213v-7.546h14.994v7.546H10.995z"/><path fill="#506a7b" d="M10.998,38.208v-7.537h14.987v7.537H10.998z"/><path fill="#516b7c" d="M11.002,38.204v-7.529h14.98v7.529H11.002z"/><path fill="#516b7c" d="M11.005,38.199v-7.52h14.974v7.52H11.005z"/><path fill="#516c7d" d="M11.009,38.195v-7.512h14.967v7.512H11.009z"/><path fill="#526c7e" d="M11.012,38.191v-7.503h14.96v7.503H11.012z"/><path fill="#526d7e" d="M11.015,38.186v-7.495h14.953v7.495H11.015z"/><path fill="#536e7f" d="M11.019,38.182v-7.487h14.946v7.487H11.019z"/><path fill="#536e80" d="M11.022,38.177v-7.478h14.94v7.478H11.022z"/><path fill="#546f80" d="M11.026,38.173v-7.47h14.933v7.47H11.026z"/><path fill="#546f81" d="M11.029,38.168v-7.461h14.926v7.461H11.029z"/><path fill="#557082" d="M11.032,38.164v-7.453h14.919v7.453H11.032z"/><path fill="#557082" d="M11.036,38.159v-7.444h14.912v7.444H11.036z"/><path fill="#567183" d="M11.039,38.155v-7.436h14.906v7.436H11.039z"/><path fill="#567284" d="M11.043,38.151v-7.427h14.899v7.427H11.043z"/><path fill="#567285" d="M11.046,38.146v-7.419h14.892v7.419H11.046z"/><path fill="#577385" d="M11.049,38.142v-7.411h14.885v7.411H11.049z"/><path fill="#577386" d="M11.053,38.137v-7.402h14.878v7.402H11.053z"/><path fill="#587487" d="M11.056,38.133v-7.394h14.871v7.394H11.056z"/><path fill="#587587" d="M11.06,38.128v-7.385h14.865v7.385H11.06z"/><path fill="#597588" d="M11.063,38.124v-7.377h14.858v7.377H11.063z"/><path fill="#597689" d="M11.066,38.119v-7.368h14.851v7.368H11.066z"/><path fill="#5a7689" d="M11.07,38.115v-7.36h14.844v7.36H11.07z"/><rect width="14.837" height="7.351" x="11.073" y="30.759" fill="#5a778a"/></g><path fill="#162433" d="M16.323,39.008h-1.084v-9.053h1.084V39.008z M21.745,29.954h-1.084v9.053h1.084V29.954z"/><rect width="1.084" height="9.053" x="25.503" y="29.954" fill="#162433"/><rect width="1.084" height="9.053" x="10.363" y="29.954" fill="#162433"/><rect width="1.084" height="16.202" x="17.943" y="26.38" fill="#162433" transform="rotate(90 18.485 34.481)"/><rect width="1.084" height="16.202" x="17.943" y="22.442" fill="#162433" transform="rotate(90 18.485 30.543)"/><rect width="1.084" height="16.202" x="17.943" y="30.362" fill="#162433" transform="rotate(90 18.485 38.463)"/><radialGradient id="sRUT1z6H4kzN3N9rH_yrbd" cx="73.106" cy="35.88" r="6.826" gradientTransform="matrix(.878 0 0 1.1705 -30.552 -6.116)" gradientUnits="userSpaceOnUse"><stop offset="0" stop-color="#b36a34"/><stop offset=".436" stop-color="#834923"/><stop offset=".801" stop-color="#613217"/><stop offset="1" stop-color="#542913"/></radialGradient><rect width="6.47" height="11.145" x="30.397" y="30.308" fill="url(#sRUT1z6H4kzN3N9rH_yrbd)"/><path fill="#611600" d="M37.14,41.764h-7.015V29.997h7.015V41.764z M30.67,41.143h5.925V30.618H30.67V41.143z"/><radialGradient id="sRUT1z6H4kzN3N9rH_yrbe" cx="35.502" cy="35.827" r=".663" gradientUnits="userSpaceOnUse"><stop offset="0" stop-color="#ff9e00"/><stop offset="1" stop-color="#9e4f00"/></radialGradient><circle cx="35.502" cy="35.827" r=".664" fill="url(#sRUT1z6H4kzN3N9rH_yrbe)"/><radialGradient id="sRUT1z6H4kzN3N9rH_yrbf" cx="24.779" cy="9.744" r="13.557" gradientTransform="matrix(1 0 0 .6316 0 3.59)" gradientUnits="userSpaceOnUse"><stop offset="0" stop-color="#f7f7f7"/><stop offset=".144" stop-color="#f2f3f4"/><stop offset=".314" stop-color="#e4e8ea"/><stop offset=".497" stop-color="#ccd5d9"/><stop offset=".687" stop-color="#abbbc3"/><stop offset=".82" stop-color="#90a5b0"/></radialGradient><path fill="url(#sRUT1z6H4kzN3N9rH_yrbf)" d="M32.054,5.832C30.597,5.559,29.26,6.027,28.298,6.9c-0.154-1.722-1.585-3.078-3.347-3.078 c-1.529,0-2.806,1.023-3.222,2.416c-0.48-0.562-1.185-0.925-1.981-0.925c-1.193,0-2.188,0.803-2.503,1.894 c-3.219,0.397-4.65,1.754-5.26,2.665c-0.133,0.199,0.08,0.377,0.305,0.294c2.511-0.932,4.111,0.459,4.111,0.625 c0,1.748,1.417,3.164,3.164,3.164c0.658,0,1.269-0.201,1.775-0.545c0.606,1.429,2.021,2.432,3.671,2.432 c1.576,0,2.925-0.922,3.572-2.249c0.736,0.563,1.645,0.91,2.643,0.91c2.714,0,4.851-2.472,4.281-5.288 C35.164,7.51,33.763,6.152,32.054,5.832z M17.224,8.585c0.006,0.023,0.014,0.045,0.021,0.068c-0.008,0.009-0.015,0.019-0.023,0.028 L17.224,8.585z"/></svg>