<svg xmlns="http://www.w3.org/2000/svg" viewBox="0 0 48 48"><polygon fill="#d9d9d9" points="38.953,42 9.048,42 9.048,20.956 24,9.986 38.953,20.956"/><rect width="5.342" height="9.794" x="11.167" y="9.307" fill="#d9d9d9"/><radialGradient id="VxYXfMpjN4dLgpTpFrg7Pa" cx="31.611" cy="30.451" r="9.785" gradientTransform="matrix(.878 0 0 1.1705 2.642 -5.19)" gradientUnits="userSpaceOnUse"><stop offset=".021" stop-color="#d9813f"/><stop offset=".283" stop-color="#c57036"/><stop offset=".74" stop-color="#a75729"/><stop offset="1" stop-color="#9c4d24"/></radialGradient><rect width="9.274" height="15.976" x="25.759" y="22.462" fill="url(#VxYXfMpjN4dLgpTpFrg7Pa)"/><path fill="#754d33" d="M35.424,38.884H25.368V22.017h10.056V38.884z M26.15,37.993h8.493V22.908H26.15V37.993z"/><rect width="7.123" height="2.671" x="10.277" y="6.636" fill="#eb4b1a"/><radialGradient id="VxYXfMpjN4dLgpTpFrg7Pb" cx="16.659" cy="26.611" r="5.781" gradientUnits="userSpaceOnUse"><stop offset=".117" stop-color="#adf5ff"/><stop offset=".247" stop-color="#a7f2ff"/><stop offset=".427" stop-color="#95eaff"/><stop offset=".636" stop-color="#7df"/><stop offset=".867" stop-color="#4ecbff"/><stop offset="1" stop-color="#33bfff"/></radialGradient><rect width="8.296" height="8.296" x="12.51" y="22.462" fill="url(#VxYXfMpjN4dLgpTpFrg7Pb)"/><path fill="#754d33" d="M21.252,31.204h-9.187v-9.187h9.187V31.204z M12.956,30.314h7.406v-7.406h-7.406V30.314z"/><rect width=".89" height="8.318" x="16.213" y="22.441" fill="#754d33"/><rect width="8.318" height=".89" x="12.499" y="26.155" fill="#754d33"/><rect width="10.51" height="1.224" x="11.4" y="30.27" fill="#754d33"/><linearGradient id="VxYXfMpjN4dLgpTpFrg7Pc" x1="30.381" x2="30.381" y1="37.604" y2="39.261" gradientUnits="userSpaceOnUse"><stop offset="0" stop-color="#d1cbc2"/><stop offset=".165" stop-color="#c8c2b9"/><stop offset=".432" stop-color="#b0aba2"/><stop offset=".767" stop-color="#89857c"/><stop offset="1" stop-color="#6a665e"/></linearGradient><rect width="12.031" height="1.224" x="24.365" y="37.993" fill="url(#VxYXfMpjN4dLgpTpFrg7Pc)"/><linearGradient id="VxYXfMpjN4dLgpTpFrg7Pd" x1="30.364" x2="30.364" y1="38.828" y2="40.485" gradientUnits="userSpaceOnUse"><stop offset="0" stop-color="#d1cbc2"/><stop offset=".165" stop-color="#c8c2b9"/><stop offset=".432" stop-color="#b0aba2"/><stop offset=".767" stop-color="#89857c"/><stop offset="1" stop-color="#6a665e"/></linearGradient><rect width="14.343" height="1.224" x="23.193" y="39.218" fill="url(#VxYXfMpjN4dLgpTpFrg7Pd)"/><linearGradient id="VxYXfMpjN4dLgpTpFrg7Pe" x1="23.971" x2="23.971" y1="39.946" y2="42.055" gradientUnits="userSpaceOnUse"><stop offset="0" stop-color="#d1cbc2"/><stop offset=".165" stop-color="#c8c2b9"/><stop offset=".432" stop-color="#b0aba2"/><stop offset=".767" stop-color="#89857c"/><stop offset="1" stop-color="#6a665e"/></linearGradient><rect width="32.227" height="1.558" x="7.858" y="40.442" fill="url(#VxYXfMpjN4dLgpTpFrg7Pe)"/><g opacity=".5"><path fill="#7a3d1c" d="M27.1,28.828h2.787v-4.921H27.1V28.828z M27.545,24.353h1.897v4.03h-1.897V24.353z"/><path fill="#7a3d1c" d="M30.91,36.842h2.787V31.92H30.91V36.842z M31.356,32.366h1.897v4.03h-1.897V32.366z"/><path fill="#7a3d1c" d="M27.1,36.842h2.787V31.92H27.1V36.842z M27.545,32.366h1.897v4.03h-1.897V32.366z"/><path fill="#7a3d1c" d="M30.91,23.907v4.921h2.787v-4.921H30.91z M33.252,28.383h-1.897v-4.03h1.897V28.383z"/></g><radialGradient id="VxYXfMpjN4dLgpTpFrg7Pf" cx="33.077" cy="30.375" r=".675" gradientUnits="userSpaceOnUse"><stop offset="0" stop-color="#ff9e00"/><stop offset="1" stop-color="#9e4f00"/></radialGradient><circle cx="33.077" cy="30.374" r=".675" fill="url(#VxYXfMpjN4dLgpTpFrg7Pf)"/><linearGradient id="VxYXfMpjN4dLgpTpFrg7Pg" x1="24" x2="24" y1="6.757" y2="25.404" gradientUnits="userSpaceOnUse"><stop offset="0" stop-color="#aba59e"/><stop offset=".944" stop-color="#ada7a0"/></linearGradient><polygon fill="url(#VxYXfMpjN4dLgpTpFrg7Pg)" points="9.048,20.956 9.048,23.07 24,11.984 24,11.988 24.003,11.986 24.006,11.988 24.006,11.984 38.953,23.066 38.953,20.956 24,9.986"/><polygon fill="#eb4b1a" points="24.006,6.407 24.003,6.409 24,6.407 4.911,20.351 6.812,23.363 24,10.619 24,10.623 24.003,10.621 24.006,10.623 24.006,10.619 41.194,23.363 43.095,20.351"/><linearGradient id="VxYXfMpjN4dLgpTpFrg7Ph" x1="13.839" x2="13.839" y1="9.016" y2="10.252" gradientUnits="userSpaceOnUse"><stop offset="0" stop-color="#aba59e"/><stop offset=".944" stop-color="#ada7a0"/></linearGradient><rect width="5.342" height=".913" x="11.167" y="9.307" fill="url(#VxYXfMpjN4dLgpTpFrg7Ph)"/></svg>