<svg xmlns="http://www.w3.org/2000/svg" viewBox="0 0 48 48"><linearGradient id="XWaHB0xK_7ajg4hihJ5s2a" x1="24.425" x2="24.425" y1="43.816" y2="32.374" gradientUnits="userSpaceOnUse"><stop offset="0" stop-color="#8c8c8c"/><stop offset=".05" stop-color="#7e7e7f"/><stop offset=".177" stop-color="#5e6163"/><stop offset=".31" stop-color="#45494c"/><stop offset=".449" stop-color="#34393c"/><stop offset=".598" stop-color="#292f33"/><stop offset=".773" stop-color="#262c30"/></linearGradient><path fill="url(#XWaHB0xK_7ajg4hihJ5s2a)" d="M19.906,42.01c1.429,0.149,2.946,0.229,4.52,0.229c1.573,0,3.09-0.081,4.519-0.229V30.684 h-9.038V42.01z"/><linearGradient id="XWaHB0xK_7ajg4hihJ5s2b" x1="24.426" x2="24.426" y1="20.529" y2="42.448" gradientUnits="userSpaceOnUse"><stop offset="0" stop-color="#4f2d11"/><stop offset=".299" stop-color="#633b19"/><stop offset=".908" stop-color="#965f2e"/><stop offset=".995" stop-color="#9e6431"/></linearGradient><path fill="url(#XWaHB0xK_7ajg4hihJ5s2b)" d="M39.777,37.041V23.12H9.074v13.927h0c0.001,2.336,4.561,4.31,10.833,4.963V30.684h9.038 V42.01c6.273-0.653,10.833-2.628,10.833-4.964C39.778,37.045,39.777,37.043,39.777,37.041z"/><path fill="#9c6632" d="M19.475,30.224v11.734c0.284,0.033,0.571,0.062,0.861,0.089V31.143h8.177v10.904 c0.291-0.027,0.578-0.056,0.861-0.089V30.224H19.475z"/><linearGradient id="XWaHB0xK_7ajg4hihJ5s2c" x1="24" x2="24" y1="30.293" y2="13.619" gradientUnits="userSpaceOnUse"><stop offset=".049" stop-color="#d1a15e"/><stop offset=".195" stop-color="#ca9a59"/><stop offset=".408" stop-color="#b8874c"/><stop offset=".661" stop-color="#9b6736"/><stop offset=".782" stop-color="#8a552a"/></linearGradient><path fill="url(#XWaHB0xK_7ajg4hihJ5s2c)" d="M41.188,21.598l1.058-0.434c0.491-0.201,0.507-0.956,0.023-1.177 c-3.736-1.705-14.064-6.813-17.844-12.784C20.56,13.307,9.394,18.757,5.73,20.425c-0.457,0.208-0.476,0.909-0.034,1.151 l0.712,0.391c0.208,0.114,0.334,0.355,0.318,0.61l-0.065,1.05c-0.021,0.347,0.216,0.648,0.531,0.675l2.294,0.196 c0.166,0.014,0.318,0.106,0.418,0.253l0.227,0.333c0.391,0.576,1.042,0.865,1.688,0.751l2.089-0.368 c0.147-0.026,0.297,0.011,0.419,0.104l0.833,0.631c0.549,0.415,1.221,0.584,1.88,0.471l3.81-0.652 c0.1-0.017,0.202-0.005,0.297,0.035l2.031,0.86c0.802,0.339,1.691,0.332,2.488-0.019l1.892-0.835 c0.098-0.043,0.204-0.056,0.308-0.038l3.129,0.56c0.693,0.124,1.403-0.065,1.968-0.523l0.859-0.697 c0.119-0.096,0.267-0.139,0.413-0.12l2.223,0.298c0.441,0.059,0.874-0.159,1.12-0.565l0.364-0.599 c0.055-0.322,0.325-0.546,0.622-0.515l1.882,0.196c0.402,0.042,0.718-0.37,0.612-0.798l-0.225-0.904 C40.755,22.042,40.909,21.712,41.188,21.598z"/><linearGradient id="XWaHB0xK_7ajg4hihJ5s2d" x1="24.374" x2="24.374" y1="26.709" y2="9.832" gradientUnits="userSpaceOnUse"><stop offset=".223" stop-color="#d1a15e"/><stop offset=".327" stop-color="#c39254"/><stop offset=".594" stop-color="#a4713d"/><stop offset=".816" stop-color="#915c2f"/><stop offset=".965" stop-color="#8a552a"/></linearGradient><path fill="url(#XWaHB0xK_7ajg4hihJ5s2d)" d="M37.876,18.609l0.96-0.462c0.503-0.242,0.521-1.088,0.026-1.352 c-3.259-1.737-11.519-5.065-14.437-10.5C21.48,11.782,13.083,15.15,9.887,16.844c-0.482,0.255-0.482,1.072-0.004,1.337 l0.931,0.517c0.21,0.117,0.348,0.366,0.355,0.644l0.018,0.682c0.02,0.732,0.501,1.324,1.109,1.363l2.048,0.133 c0.157,0.01,0.306,0.093,0.413,0.231l0.378,0.485c0.471,0.604,1.153,0.902,1.837,0.804l4.327-0.625 c0.102-0.015,0.206,0.002,0.301,0.048l1.843,0.892c0.63,0.305,1.333,0.313,1.968,0.023l2.18-0.996 c0.096-0.044,0.2-0.058,0.303-0.041l3.769,0.637c0.759,0.128,1.49-0.397,1.755-1.262l0,0c0.09-0.294,0.325-0.487,0.586-0.481 l2.388,0.055c0.661,0.015,1.189-0.66,1.134-1.453l-0.033-0.484C37.471,19.03,37.626,18.729,37.876,18.609z"/><linearGradient id="XWaHB0xK_7ajg4hihJ5s2e" x1="24.349" x2="24.349" y1="-1.49" y2="25.471" gradientUnits="userSpaceOnUse"><stop offset=".139" stop-color="#8a552a"/><stop offset=".264" stop-color="#925d30"/><stop offset=".46" stop-color="#a7743f"/><stop offset=".703" stop-color="#c99958"/><stop offset=".752" stop-color="#d1a15e"/></linearGradient><path fill="url(#XWaHB0xK_7ajg4hihJ5s2e)" d="M33.294,15.037l1.174-0.785c0.258-0.172,0.24-0.566-0.034-0.708 c-1.813-0.933-7.089-3.863-9.484-7.493c-0.255-0.387-0.793-0.388-1.049-0.002c-2.41,3.622-7.785,6.485-9.629,7.392 c-0.278,0.137-0.301,0.532-0.044,0.709l1.297,0.89c0.104,0.072,0.168,0.201,0.168,0.342l0,1.027c0,0.214,0.147,0.389,0.332,0.397 l2.162,0.091c0.103,0.004,0.198,0.061,0.261,0.156l0.527,0.552c0.365,0.55,0.981,0.792,1.561,0.613l1.53-0.256 c0.068-0.021,0.142-0.018,0.208,0.01l1.474,0.62c0.437,0.184,0.926,0.188,1.365,0.011l1.453-0.583 c0.05-0.02,0.103-0.026,0.156-0.018l1.474,0.219c0.558,0.083,1.121-0.104,1.555-0.518l0.566-0.539 c0.053-0.051,0.119-0.082,0.188-0.089l2.336-0.247c0.181-0.019,0.318-0.198,0.313-0.408l-0.027-1.025 C33.118,15.247,33.184,15.11,33.294,15.037z"/></svg>