<svg xmlns="http://www.w3.org/2000/svg" viewBox="0 0 48 48"><radialGradient id="RRORJgWmIVN62AxvcGnqga" cx="23.222" cy="34.084" r="21.797" gradientTransform="matrix(1 0 0 .3549 0 21.989)" gradientUnits="userSpaceOnUse"><stop offset=".117" stop-color="#adf5ff"/><stop offset=".247" stop-color="#a7f2ff"/><stop offset=".427" stop-color="#95eaff"/><stop offset=".636" stop-color="#7df"/><stop offset=".867" stop-color="#4ecbff"/><stop offset="1" stop-color="#33bfff"/></radialGradient><ellipse cx="23.649" cy="36.696" fill="url(#RRORJgWmIVN62AxvcGnqga)" rx="19.135" ry="6.3"/><path fill="#e3fcff" d="M9.172,32.568c0,0-2.13,0.631-2.13,1.695c0,1.645,2.236,1.829,5.646,1.829 c0.785,0,1.319,0.273,1.996,0.62c0.871,0.445,1.956,1,3.767,1c2.504,0,3.763-0.42,4.874-0.791c1.027-0.343,1.916-0.64,3.752-0.64 c1.502,0,2.406,0.105,3.362,0.216c1.108,0.128,2.365,0.274,4.699,0.274c4.423,0,4.766-2.053,4.766-2.683 c0-0.894-1.318-1.33-1.318-1.33s-8.157-2.361-14.937-2.361C16.59,30.396,9.172,32.568,9.172,32.568z"/><radialGradient id="RRORJgWmIVN62AxvcGnqgb" cx="16.317" cy="32.507" r="18.446" gradientTransform="matrix(1 0 0 .2884 0 23.132)" gradientUnits="userSpaceOnUse"><stop offset="0" stop-color="#dee06e"/><stop offset=".542" stop-color="#f2c202"/><stop offset="1" stop-color="#d18801"/></radialGradient><path fill="url(#RRORJgWmIVN62AxvcGnqgb)" d="M18.451,36.874c4.595,0,4.558-1.431,8.626-1.431c3.315,0,3.767,0.49,8.061,0.49 c2.486,0,3.93-0.716,3.93-1.846c0-2.857-6.981-6.102-15.594-6.102c-7.207,0-15.594,3.013-15.594,6.102 c0,0.753,0.628,1.168,4.809,1.168C14.835,35.255,15.475,36.874,18.451,36.874z"/><linearGradient id="RRORJgWmIVN62AxvcGnqgc" x1="23.904" x2="38.946" y1="34.186" y2="24.193" gradientUnits="userSpaceOnUse"><stop offset=".289" stop-color="#401b01"/><stop offset=".335" stop-color="#4a2501" stop-opacity=".887"/><stop offset=".413" stop-color="#663f01" stop-opacity=".694"/><stop offset=".515" stop-color="#936901" stop-opacity=".442"/><stop offset=".636" stop-color="#d1a302" stop-opacity=".144"/><stop offset=".695" stop-color="#f2c202" stop-opacity="0"/></linearGradient><path fill="url(#RRORJgWmIVN62AxvcGnqgc)" d="M35.453,30.394c-1.899-0.925-4.433-1.684-7.332-2.089 c-3.186,1.008-5.249,2.484-5.067,3.296c0.237,1.059,3.839,0.894,9.086-0.31C33.324,31.018,34.443,30.719,35.453,30.394z" opacity=".57"/><path fill="#865f12" d="M26.931,15.24h-0.008h-0.008h-0.008H26.9h-0.008h-0.008h-0.008H26.87h-0.008h-0.008h-0.008 h-0.008h-0.008h-0.008h-0.008h-0.008h-0.008h-0.008h-0.008h-0.008h-0.008h-0.008h-0.008h-0.008H26.74h-0.008h-0.008h-0.008 H26.71h-0.008h-0.008h-0.008h-0.008h-0.008h-0.008h-0.008h-0.008h-0.008h-0.008h-0.008h-0.008h-0.008h-0.008h-0.255h-0.011 h-0.011h-0.011h-0.011h-0.011H26.28h-0.011h-0.011h-0.011h-0.011h-0.011h-0.011h-0.011H26.19h-0.011h-0.011h-0.011h-0.011 h-0.011h-0.011H26.11h-0.011h-0.011h-0.011h-0.011h-0.011h-0.011h-0.011h-0.011h-0.011h-0.011h-0.011h-0.011h-0.011h-0.011 H25.94h-0.011h-0.011h-0.011h-0.011h-0.011h-0.011h-0.011c0.481,1.814,0.624,3.589,0.546,5.267 c-0.079,1.678-0.38,3.258-0.789,4.682c-0.409,1.424-0.926,2.693-1.436,3.746c-0.51,1.054-1.014,1.892-1.397,2.458 c-0.063,0.094-0.062,0.212,0.009,0.3c0.184,0.224,0.715,0.584,2.228,0.584c2.147,0,2.279-0.758,2.279-0.758 c0.848-2.794,1.25-5.208,1.374-7.258c0.124-2.05-0.028-3.736-0.287-5.072C27.872,16.516,26.931,15.24,26.931,15.24z"/><path fill="#876013" d="M26.701,15.257h0.007h0.007h0.007h0.007h0.007h0.007h0.007h0.007h0.007h0.008h0.007h0.007h0.008 h0.007h0.008h0.008h0.008h0.008h0.008h0.008h0.008h0.008h0.008h0.008h0.008h0.009h0.009h0.01h0.01 c0.001,0.002,0.582,0.806,1.076,2.462c0.131,0.439,0.256,0.938,0.362,1.498c0.254,1.34,0.403,3.029,0.274,5.078 c-0.128,2.043-0.529,4.428-1.362,7.166c-0.011,0.032-0.148,0.784-2.228,0.784c-1.466,0-2.022-0.353-2.201-0.57 c-0.069-0.085-0.069-0.202-0.005-0.297c0.27-0.399,0.603-0.939,0.957-1.599c0.142-0.265,0.287-0.549,0.432-0.85 c0.507-1.05,1.019-2.316,1.42-3.737c0.402-1.428,0.696-3.003,0.771-4.667c0.043-0.964,0.014-1.955-0.108-2.963 c-0.091-0.757-0.234-1.52-0.435-2.283c0,0,0.011,0,0.011-0.001c0,0,0.011,0,0.011-0.001c0,0,0.011,0,0.011-0.001 c0,0,0.011,0,0.011-0.001c0,0,0.011,0,0.011-0.001s0.011,0,0.011-0.001c0,0,0.011,0,0.011-0.001c0,0,0.011,0,0.011-0.001 s0.011,0,0.011,0c0,0,0.011,0,0.011,0s0.011,0,0.011,0c0,0,0.011,0,0.011,0c0,0,0.011,0,0.011,0s0.011,0,0.011,0 c0,0,0.011,0,0.011,0c0,0,0.011,0,0.011,0s0.011,0,0.011,0c0,0,0.011,0,0.011,0s0.011,0,0.011,0c0,0,0.011,0,0.011,0 c0,0,0.011,0,0.011,0c0,0,0.011,0,0.011,0c0,0,0.011,0,0.011,0c0,0,0.011,0,0.011,0c0,0,0.011,0,0.011,0c0,0,0.011,0,0.011,0 c0,0,0.011,0,0.011,0s0.011,0,0.011,0c0,0,0.011,0,0.011,0c0,0,0.011,0,0.011,0c0,0,0.011,0,0.011,0s0.011,0,0.011,0 c0,0,0.011,0,0.011,0c0,0,0.011,0,0.011,0c0,0,0.011,0,0.011,0s0.011,0,0.011,0c0,0,0.011,0,0.011,0s0.011,0,0.011,0 s0.011,0,0.011,0c0,0,0.011,0,0.011,0s0.011,0,0.011,0c0,0,0.011,0,0.011,0s0.011,0,0.011,0c0-0.002,0.246-0.003,0.246-0.004 c0,0,0.007,0,0.007,0c0,0,0.007,0,0.007,0c0,0,0.007,0,0.007,0s0.007,0,0.007,0c0,0,0.007,0,0.007,0c0,0,0.007,0,0.007,0 c0,0,0.007,0,0.007,0c0,0,0.007,0,0.007,0c0,0,0.007,0,0.007,0s0.007,0,0.007,0c0,0,0.007,0,0.007,0c0,0,0.007,0,0.007,0 c0,0,0.007,0,0.007,0C26.694,15.257,26.701,15.257,26.701,15.257z"/><path fill="#886113" d="M26.692,15.275H26.7h0.007h0.007h0.007h0.007h0.007h0.007h0.007h0.007h0.007h0.007h0.007h0.007 h0.007h0.007h0.008h0.008h0.008h0.008h0.008h0.008h0.008h0.008h0.008h0.009h0.009h0.01h0.012h0.012 c0.001,0.005,0.575,0.814,1.063,2.471c0.129,0.44,0.252,0.94,0.357,1.501c0.25,1.345,0.394,3.037,0.262,5.085 c-0.131,2.036-0.532,4.391-1.35,7.073c-0.022,0.063-0.164,0.809-2.177,0.809c-1.419,0-2-0.346-2.173-0.556 c-0.067-0.082-0.065-0.198,0-0.294c0.266-0.394,0.599-0.933,0.952-1.594c0.141-0.264,0.285-0.546,0.429-0.847 c0.503-1.047,1.011-2.31,1.405-3.729c0.395-1.431,0.681-3.001,0.753-4.652c0.041-0.964,0.011-1.952-0.109-2.951 c-0.091-0.761-0.233-1.521-0.431-2.274c0,0,0.01-0.001,0.01-0.001s0.01-0.001,0.01-0.001c0,0,0.01-0.001,0.01-0.001 c0,0,0.01-0.001,0.01-0.001c0,0,0.01-0.001,0.01-0.001c0,0,0.01-0.001,0.01-0.001c0,0,0.01-0.001,0.01-0.001 c0,0,0.01-0.001,0.01-0.001c0,0,0.01-0.001,0.01-0.001s0.011-0.001,0.01-0.001c0,0,0.011-0.001,0.01-0.001 c0,0,0.01-0.001,0.01-0.001c0,0,0.011-0.001,0.01-0.001c0,0,0.011-0.001,0.01-0.001c0,0,0.011-0.001,0.01-0.001 c0,0,0.011-0.001,0.01-0.001c0,0,0.011-0.001,0.01-0.001s0.011-0.001,0.01-0.001s0.011-0.001,0.01-0.001 c0,0,0.011-0.001,0.01-0.001c0,0,0.01-0.001,0.01-0.001c0,0,0.011-0.001,0.01-0.001c0,0,0.011-0.001,0.01-0.001 s0.011-0.001,0.01-0.001c0,0,0.011-0.001,0.01-0.001c0,0,0.011-0.001,0.01-0.001c0,0,0.011,0,0.01-0.001 c0,0,0.011,0,0.01-0.001s0.011,0,0.01-0.001c0,0,0.01,0,0.01-0.001c0,0,0.011,0,0.01-0.001c0,0,0.011,0,0.01-0.001 s0.011,0,0.01-0.001c0,0,0.011,0,0.01-0.001s0.011,0,0.01-0.001c0,0,0.011,0,0.01-0.001s0.011,0,0.01-0.001 c0,0,0.011,0,0.01-0.001c0,0,0.01,0,0.01-0.001c0,0,0.011,0,0.011-0.001c0,0,0.011,0,0.011-0.001c0,0,0.011,0,0.011-0.001 c0,0,0.011,0,0.011-0.001c-0.001-0.004,0.237-0.006,0.237-0.008c0,0,0.007,0,0.007,0c0,0,0.007,0,0.007,0c0,0,0.007,0,0.007,0 c0,0,0.007,0,0.007,0s0.007,0,0.007,0c0,0,0.007,0,0.007,0s0.007,0,0.007,0c0,0,0.007,0,0.007,0s0.007,0,0.007,0 c0,0,0.007,0,0.007,0c0,0,0.007,0,0.007,0c0,0,0.007,0,0.007,0c0,0,0.007,0,0.007,0C26.685,15.275,26.692,15.275,26.692,15.275 z"/><path fill="#896214" d="M26.684,15.292h0.007h0.007h0.007h0.007h0.007h0.007h0.007h0.007h0.007h0.007h0.007h0.007h0.007 h0.007h0.007h0.007h0.007h0.008h0.008h0.008h0.008h0.008h0.008h0.009h0.01h0.01h0.012h0.014h0.014 c0.002,0.007,0.569,0.823,1.049,2.48c0.127,0.441,0.249,0.942,0.351,1.504c0.246,1.349,0.386,3.044,0.25,5.092 c-0.134,2.028-0.536,4.354-1.338,6.981c-0.033,0.095-0.181,0.834-2.126,0.834c-1.371,0-1.978-0.339-2.145-0.542 c-0.065-0.079-0.061-0.194,0.005-0.291c0.263-0.39,0.595-0.927,0.947-1.589c0.14-0.262,0.283-0.544,0.426-0.844 c0.499-1.043,1.003-2.303,1.389-3.72c0.389-1.434,0.666-2.999,0.736-4.636c0.039-0.964,0.008-1.948-0.111-2.938 c-0.091-0.764-0.232-1.522-0.426-2.266c0-0.001,0.01-0.001,0.01-0.002s0.01-0.001,0.01-0.002c0-0.001,0.01-0.001,0.01-0.002 c0-0.001,0.01-0.001,0.01-0.002c0-0.001,0.01-0.001,0.01-0.002c0-0.001,0.01-0.001,0.01-0.002c0-0.001,0.01-0.001,0.01-0.002 c0-0.001,0.01-0.001,0.01-0.002s0.01-0.001,0.01-0.001c0,0,0.01-0.001,0.01-0.001c0,0,0.01-0.001,0.01-0.001 c0,0,0.01-0.001,0.01-0.001c0,0,0.01-0.001,0.01-0.001c0,0,0.01-0.001,0.01-0.001s0.01-0.001,0.01-0.001 c0,0,0.01-0.001,0.01-0.001c0,0,0.01-0.001,0.01-0.001c0,0,0.01-0.001,0.01-0.001c0,0,0.01-0.001,0.01-0.001 s0.01-0.001,0.01-0.001c0,0,0.01-0.001,0.01-0.001c0,0,0.01-0.001,0.01-0.001c0,0,0.01-0.001,0.01-0.001s0.01-0.001,0.01-0.001 c0,0,0.01-0.001,0.01-0.001c0,0,0.01-0.001,0.01-0.001c0,0,0.01-0.001,0.01-0.001c0,0,0.01-0.001,0.01-0.001 c0,0,0.01-0.001,0.01-0.001c0,0,0.01-0.001,0.01-0.001c0,0,0.01-0.001,0.01-0.001c0,0,0.01-0.001,0.01-0.001 c0,0,0.01-0.001,0.01-0.001c0,0,0.01-0.001,0.01-0.001c0,0,0.01-0.001,0.01-0.001c0,0,0.01-0.001,0.01-0.001 c0,0,0.01-0.001,0.01-0.001c0,0,0.01-0.001,0.01-0.001c0,0,0.01-0.001,0.01-0.001c0,0,0.01-0.001,0.01-0.001 c0,0,0.01-0.001,0.01-0.001c0,0,0.01-0.001,0.01-0.001c0,0,0.01-0.001,0.01-0.001c-0.001-0.006,0.229-0.01,0.228-0.011 c0,0,0.007,0,0.007,0c0,0,0.007,0,0.007,0c0,0,0.007,0,0.007,0c0,0,0.007,0,0.007,0c0,0,0.007,0,0.007,0c0,0,0.007,0,0.007,0 c0,0,0.007,0,0.007,0c0,0,0.007,0,0.007,0s0.007,0,0.007,0c0,0,0.007,0,0.007,0c0,0,0.007,0,0.007,0c0,0,0.007,0,0.007,0 s0.007,0,0.007,0C26.677,15.292,26.684,15.292,26.684,15.292z"/><path fill="#8a6315" d="M26.675,15.309h0.007h0.007h0.007h0.007h0.007h0.007h0.007h0.007h0.007h0.007h0.007h0.007h0.007 h0.007h0.007h0.007h0.007h0.008h0.008h0.008h0.008h0.008h0.009h0.009h0.01h0.011h0.013h0.016h0.016 c0.003,0.01,0.563,0.831,1.035,2.489c0.126,0.443,0.245,0.944,0.346,1.506c0.242,1.353,0.378,3.051,0.237,5.098 c-0.137,2.021-0.539,4.317-1.326,6.888c-0.044,0.127-0.197,0.86-2.075,0.86c-1.324,0-1.956-0.332-2.117-0.527 c-0.062-0.077-0.057-0.19,0.01-0.288c0.26-0.385,0.591-0.921,0.942-1.583c0.139-0.261,0.281-0.542,0.423-0.84 c0.496-1.04,0.994-2.297,1.373-3.711c0.382-1.437,0.652-2.997,0.718-4.621c0.038-0.964,0.005-1.944-0.112-2.926 c-0.091-0.768-0.231-1.523-0.422-2.257c0-0.001,0.01-0.001,0.009-0.002s0.01-0.001,0.01-0.002c0-0.001,0.01-0.001,0.009-0.002 c0-0.001,0.01-0.001,0.01-0.002s0.01-0.001,0.01-0.002c0-0.001,0.01-0.001,0.01-0.002s0.01-0.001,0.01-0.002 c0-0.001,0.01-0.001,0.01-0.002c0-0.001,0.01-0.001,0.01-0.002c0-0.001,0.01-0.001,0.01-0.002c0-0.001,0.01-0.001,0.01-0.002 c0-0.001,0.01-0.001,0.009-0.002c0-0.001,0.01-0.001,0.01-0.002c0-0.001,0.01-0.001,0.01-0.002c0-0.001,0.01-0.001,0.01-0.002 s0.01-0.001,0.01-0.002c0-0.001,0.01-0.001,0.01-0.002c0-0.001,0.01-0.001,0.01-0.002c0-0.001,0.01-0.001,0.01-0.002 c0-0.001,0.01-0.001,0.01-0.002c0-0.001,0.01-0.001,0.01-0.002c0-0.001,0.01-0.001,0.01-0.002s0.01-0.001,0.01-0.002 c0-0.001,0.01-0.001,0.01-0.002c0-0.001,0.01-0.001,0.01-0.002c0-0.001,0.01-0.001,0.01-0.002c0-0.001,0.01-0.001,0.01-0.001 c0,0,0.01-0.001,0.01-0.001s0.01-0.001,0.01-0.001c0,0,0.01-0.001,0.01-0.001c0,0,0.01-0.001,0.01-0.001 c0,0,0.01-0.001,0.01-0.001c0,0,0.01-0.001,0.01-0.001c0,0,0.01-0.001,0.01-0.001c0,0,0.01-0.001,0.01-0.001 s0.01-0.001,0.01-0.001c0,0,0.01-0.001,0.01-0.001c0,0,0.01-0.001,0.01-0.001c0,0,0.01-0.001,0.01-0.001 c0,0,0.01-0.001,0.01-0.001c0,0,0.01-0.001,0.01-0.001c0,0,0.01-0.001,0.01-0.001c0,0,0.01-0.001,0.01-0.001 c-0.002-0.008,0.22-0.013,0.219-0.015c0,0,0.007,0,0.007,0c0,0,0.007,0,0.007,0c0,0,0.007,0,0.007,0c0,0,0.007,0,0.007,0 s0.007,0,0.007,0s0.007,0,0.007,0s0.007,0,0.007,0c0,0,0.007,0,0.007,0c0,0,0.007,0,0.007,0c0,0,0.007,0,0.007,0 s0.007,0,0.007,0c0,0,0.007,0,0.007,0c0,0,0.007,0,0.007,0C26.668,15.309,26.675,15.309,26.675,15.309z"/><path fill="#8b6415" d="M26.667,15.327h0.007h0.007h0.007h0.007H26.7h0.007h0.007h0.007h0.007h0.007h0.007h0.007h0.007 h0.007h0.007h0.007h0.007h0.008h0.008h0.008h0.008h0.009h0.009h0.01h0.011h0.012h0.015h0.018h0.018 c0.003,0.012,0.556,0.84,1.021,2.498c0.124,0.444,0.241,0.946,0.34,1.509c0.238,1.357,0.369,3.059,0.225,5.105 c-0.14,2.014-0.543,4.28-1.314,6.796c-0.055,0.158-0.213,0.885-2.024,0.885c-1.277,0-1.934-0.324-2.09-0.513 c-0.06-0.074-0.053-0.186,0.014-0.285c0.257-0.381,0.587-0.915,0.938-1.578c0.138-0.26,0.279-0.539,0.42-0.837 c0.492-1.036,0.986-2.291,1.357-3.702c0.375-1.44,0.637-2.995,0.7-4.605c0.036-0.965,0.002-1.94-0.114-2.914 c-0.091-0.771-0.23-1.524-0.417-2.249c0-0.001,0.009-0.002,0.009-0.003s0.009-0.002,0.009-0.003 c0-0.001,0.009-0.002,0.009-0.003c0-0.001,0.009-0.002,0.009-0.003c0-0.001,0.009-0.002,0.009-0.003 c0-0.001,0.009-0.002,0.009-0.003c0-0.001,0.009-0.002,0.009-0.003c0-0.001,0.009-0.002,0.009-0.003 c0-0.001,0.009-0.002,0.009-0.002c0-0.001,0.009-0.002,0.009-0.002c0-0.001,0.009-0.002,0.009-0.002 c0-0.001,0.009-0.002,0.009-0.002c0-0.001,0.009-0.002,0.009-0.002c0-0.001,0.009-0.002,0.009-0.002 c0-0.001,0.009-0.002,0.009-0.002s0.009-0.002,0.009-0.002c0-0.001,0.009-0.001,0.009-0.002c0-0.001,0.009-0.001,0.009-0.002 c0-0.001,0.009-0.001,0.009-0.002c0-0.001,0.009-0.001,0.009-0.002c0-0.001,0.009-0.001,0.009-0.002 c0-0.001,0.009-0.001,0.009-0.002s0.009-0.001,0.009-0.002c0-0.001,0.009-0.001,0.009-0.002c0-0.001,0.009-0.001,0.009-0.002 c0-0.001,0.009-0.001,0.009-0.002c0-0.001,0.009-0.001,0.009-0.002c0-0.001,0.009-0.001,0.009-0.002 c0-0.001,0.009-0.001,0.009-0.002c0-0.001,0.009-0.001,0.009-0.002c0-0.001,0.009-0.001,0.009-0.002 c0-0.001,0.009-0.001,0.009-0.002c0-0.001,0.009-0.001,0.009-0.002c0-0.001,0.009-0.001,0.009-0.002s0.009-0.001,0.009-0.002 c0-0.001,0.009-0.001,0.009-0.002c0-0.001,0.009-0.001,0.009-0.002c0,0,0.009-0.001,0.009-0.001c0,0,0.009-0.001,0.009-0.001 c0,0,0.009-0.001,0.009-0.001s0.009-0.001,0.009-0.001s0.009-0.001,0.009-0.001c0,0,0.009-0.001,0.009-0.001 c-0.002-0.01,0.211-0.016,0.21-0.019c0,0,0.006,0,0.006,0c0,0,0.006,0,0.006,0s0.006,0,0.006,0c0,0,0.006,0,0.006,0 c0,0,0.006,0,0.006,0c0,0,0.006,0,0.006,0c0,0,0.006,0,0.006,0c0,0,0.006,0,0.006,0c0,0,0.006,0,0.006,0c0,0,0.006,0,0.006,0 s0.006,0,0.006,0c0,0,0.006,0,0.006,0c0,0,0.006,0,0.006,0S26.667,15.327,26.667,15.327z"/><path fill="#8b6516" d="M26.658,15.344h0.006h0.006h0.006h0.007h0.007h0.007h0.007h0.007h0.007h0.007h0.007h0.007h0.007 h0.007h0.007h0.007h0.007h0.007h0.008h0.008h0.008h0.009h0.009h0.01h0.011h0.013h0.016h0.02h0.02 c0.004,0.015,0.55,0.848,1.007,2.507c0.122,0.445,0.238,0.949,0.335,1.511c0.234,1.361,0.361,3.066,0.213,5.112 c-0.143,2.007-0.546,4.243-1.302,6.703c-0.066,0.19-0.229,0.91-1.973,0.91c-1.229,0-1.912-0.317-2.062-0.499 c-0.058-0.072-0.049-0.182,0.019-0.283c0.254-0.376,0.583-0.909,0.933-1.573c0.137-0.259,0.277-0.537,0.417-0.834 c0.488-1.033,0.978-2.285,1.342-3.694c0.368-1.444,0.623-2.993,0.683-4.59c0.034-0.965-0.001-1.937-0.116-2.901 c-0.091-0.775-0.23-1.525-0.413-2.241c0-0.001,0.009-0.002,0.009-0.003c0-0.001,0.009-0.002,0.009-0.003 c0-0.001,0.009-0.002,0.009-0.003c0-0.001,0.009-0.002,0.009-0.003c0-0.001,0.009-0.002,0.009-0.003 c0-0.001,0.009-0.002,0.009-0.003c0-0.001,0.009-0.002,0.009-0.003c0-0.001,0.009-0.002,0.009-0.003 c0-0.001,0.009-0.002,0.009-0.003c0-0.001,0.009-0.002,0.009-0.003c0-0.001,0.009-0.002,0.009-0.003 c0-0.001,0.009-0.002,0.009-0.003c0-0.001,0.009-0.002,0.009-0.003s0.009-0.002,0.009-0.003c0-0.001,0.009-0.002,0.009-0.003 s0.009-0.002,0.009-0.003c0-0.001,0.009-0.002,0.009-0.003c0-0.001,0.009-0.002,0.009-0.003c0-0.001,0.009-0.002,0.009-0.003 c0-0.001,0.009-0.002,0.009-0.003c0-0.001,0.009-0.002,0.009-0.002c0-0.001,0.009-0.002,0.009-0.002s0.009-0.002,0.009-0.002 s0.009-0.002,0.009-0.002c0-0.001,0.009-0.002,0.009-0.002c0-0.001,0.009-0.002,0.009-0.002c0-0.001,0.009-0.001,0.009-0.002 s0.009-0.001,0.009-0.002c0-0.001,0.009-0.001,0.009-0.002c0-0.001,0.009-0.001,0.009-0.002c0-0.001,0.009-0.001,0.009-0.002 c0-0.001,0.009-0.001,0.009-0.002c0-0.001,0.009-0.001,0.009-0.002s0.009-0.001,0.009-0.002c0-0.001,0.009-0.001,0.009-0.002 c0-0.001,0.009-0.001,0.009-0.002s0.009-0.001,0.009-0.002c0-0.001,0.009-0.001,0.009-0.002c0-0.001,0.009-0.001,0.009-0.002 c0-0.001,0.009-0.001,0.009-0.002s0.009-0.001,0.009-0.002c0-0.001,0.009-0.001,0.009-0.002c0-0.001,0.009-0.001,0.009-0.002 c-0.003-0.011,0.202-0.019,0.202-0.023c0,0,0.006,0,0.006,0c0,0,0.006,0,0.006,0c0,0,0.006,0,0.006,0s0.006,0,0.006,0 s0.006,0,0.006,0c0,0,0.006,0,0.006,0c0,0,0.006,0,0.006,0s0.006,0,0.006,0c0,0,0.006,0,0.006,0s0.006,0,0.006,0 c0,0,0.006,0,0.006,0c0,0,0.006,0,0.006,0c0,0,0.006,0,0.006,0C26.652,15.344,26.658,15.344,26.658,15.344z"/><path fill="#8c6617" d="M26.649,15.362h0.006h0.006h0.006h0.006h0.006h0.006h0.006H26.7h0.006h0.007h0.007h0.007h0.007 h0.007h0.007h0.007h0.007h0.007h0.008h0.008h0.008h0.009h0.01h0.011h0.012h0.014h0.017h0.023h0.022 c0.005,0.017,0.543,0.857,0.993,2.516c0.12,0.446,0.234,0.951,0.329,1.514c0.23,1.365,0.353,3.073,0.2,5.118 c-0.147,1.999-0.55,4.207-1.29,6.611c-0.077,0.221-0.245,0.936-1.922,0.936c-1.182,0-1.89-0.31-2.034-0.485 c-0.056-0.069-0.045-0.177,0.024-0.28c0.251-0.372,0.579-0.903,0.928-1.568c0.136-0.258,0.275-0.535,0.414-0.83 c0.485-1.03,0.97-2.279,1.326-3.685c0.361-1.447,0.608-2.991,0.665-4.574c0.032-0.965-0.004-1.933-0.117-2.889 c-0.091-0.778-0.229-1.527-0.408-2.232c0-0.001,0.008-0.003,0.008-0.004c0-0.001,0.008-0.003,0.008-0.004 c0-0.001,0.008-0.003,0.008-0.004c0-0.001,0.008-0.002,0.008-0.004c0-0.001,0.008-0.002,0.008-0.004 c0-0.001,0.008-0.002,0.008-0.004c0-0.001,0.008-0.002,0.008-0.004c0-0.001,0.008-0.002,0.008-0.004 c0-0.001,0.008-0.002,0.008-0.003s0.008-0.002,0.008-0.003c0-0.001,0.008-0.002,0.008-0.003c0-0.001,0.008-0.002,0.008-0.003 c0-0.001,0.008-0.002,0.008-0.003s0.008-0.002,0.008-0.003s0.008-0.002,0.008-0.003c0-0.001,0.008-0.002,0.008-0.003 c0-0.001,0.008-0.002,0.008-0.003c0-0.001,0.008-0.002,0.008-0.003c0-0.001,0.008-0.002,0.008-0.003 c0-0.001,0.008-0.002,0.008-0.003c0-0.001,0.008-0.002,0.008-0.003c0-0.001,0.008-0.002,0.008-0.003 c0-0.001,0.008-0.002,0.008-0.003s0.008-0.002,0.008-0.003s0.008-0.002,0.008-0.003s0.008-0.002,0.008-0.003 c0-0.001,0.008-0.002,0.008-0.003s0.008-0.002,0.008-0.003c0-0.001,0.008-0.002,0.008-0.003c0-0.001,0.008-0.002,0.008-0.002 c0-0.001,0.009-0.002,0.008-0.002c0-0.001,0.009-0.002,0.008-0.002c0-0.001,0.009-0.002,0.008-0.002 c0-0.001,0.009-0.002,0.008-0.002c0-0.001,0.009-0.001,0.008-0.002s0.009-0.001,0.008-0.002c0-0.001,0.009-0.001,0.008-0.002 c0-0.001,0.009-0.001,0.008-0.002c0-0.001,0.009-0.001,0.008-0.002c0-0.001,0.009-0.001,0.008-0.002 c0-0.001,0.009-0.001,0.008-0.002c0-0.001,0.009-0.001,0.008-0.002c0-0.001,0.009-0.001,0.008-0.002 c-0.003-0.013,0.194-0.022,0.193-0.027c0,0,0.006,0,0.006,0s0.006,0,0.006,0s0.006,0,0.006,0s0.006,0,0.006,0 c0,0,0.006,0,0.006,0c0,0,0.006,0,0.006,0c0,0,0.006,0,0.006,0c0,0,0.006,0,0.006,0c0,0,0.006,0,0.006,0c0,0,0.006,0,0.006,0 c0,0,0.006,0,0.006,0s0.006,0,0.006,0s0.006,0,0.006,0C26.643,15.362,26.649,15.362,26.649,15.362z"/><path fill="#8d6718" d="M26.641,15.379h0.006h0.006h0.006h0.006h0.006h0.006h0.006h0.006h0.006h0.006h0.006h0.007h0.007 h0.007h0.007h0.007h0.007h0.007h0.008h0.008h0.009h0.009h0.01h0.011h0.013h0.015h0.019h0.025h0.024 c0.006,0.02,0.537,0.865,0.979,2.525c0.118,0.447,0.23,0.953,0.324,1.517c0.226,1.369,0.344,3.081,0.188,5.125 c-0.15,1.992-0.553,4.17-1.278,6.518c-0.088,0.253-0.261,0.961-1.871,0.961c-1.135,0-1.869-0.303-2.007-0.471 c-0.053-0.066-0.041-0.173,0.029-0.277c0.248-0.367,0.575-0.897,0.924-1.563c0.135-0.257,0.273-0.533,0.411-0.827 c0.481-1.026,0.962-2.273,1.31-3.676c0.354-1.45,0.594-2.989,0.648-4.559c0.03-0.965-0.007-1.929-0.119-2.876 c-0.091-0.782-0.228-1.528-0.404-2.224c0-0.001,0.008-0.003,0.008-0.004c0-0.001,0.008-0.003,0.008-0.004 c0-0.001,0.008-0.003,0.008-0.004c0-0.001,0.008-0.003,0.008-0.004c0-0.001,0.008-0.003,0.008-0.004 c0-0.001,0.008-0.003,0.008-0.004c0-0.001,0.008-0.003,0.008-0.004s0.008-0.003,0.008-0.004s0.008-0.003,0.008-0.004 c0-0.001,0.008-0.003,0.008-0.004c0-0.001,0.008-0.003,0.008-0.004c0-0.001,0.008-0.003,0.008-0.004 c0-0.001,0.008-0.003,0.008-0.004s0.008-0.002,0.008-0.004s0.008-0.002,0.008-0.004c0-0.001,0.008-0.002,0.008-0.004 c0-0.001,0.008-0.002,0.008-0.004s0.008-0.002,0.008-0.003s0.008-0.002,0.008-0.003s0.008-0.002,0.008-0.003 c0-0.001,0.008-0.002,0.008-0.003c0-0.001,0.008-0.002,0.008-0.003c0-0.001,0.008-0.002,0.008-0.003 c0-0.001,0.008-0.002,0.008-0.003c0-0.001,0.008-0.002,0.008-0.003s0.008-0.002,0.008-0.003s0.008-0.002,0.008-0.003 c0-0.001,0.008-0.002,0.008-0.003c0-0.001,0.008-0.002,0.008-0.003c0-0.001,0.008-0.002,0.008-0.003 c0-0.001,0.008-0.002,0.008-0.003c0-0.001,0.008-0.002,0.008-0.003c0-0.001,0.008-0.002,0.008-0.003 c0-0.001,0.008-0.002,0.008-0.003c0-0.001,0.008-0.002,0.008-0.003c0-0.001,0.008-0.002,0.008-0.002 c0-0.001,0.008-0.002,0.008-0.002c0-0.001,0.008-0.002,0.008-0.002c0-0.001,0.008-0.002,0.008-0.002 c0-0.001,0.008-0.002,0.008-0.002c0-0.001,0.008-0.001,0.008-0.002c0-0.001,0.008-0.001,0.008-0.002 c0-0.001,0.008-0.001,0.008-0.002c-0.004-0.015,0.185-0.025,0.184-0.031c0,0,0.006,0,0.006,0c0,0,0.006,0,0.006,0 c0,0,0.006,0,0.006,0c0,0,0.006,0,0.006,0c0,0,0.006,0,0.006,0c0,0,0.006,0,0.006,0c0,0,0.006,0,0.006,0c0,0,0.006,0,0.006,0 s0.006,0,0.006,0c0,0,0.006,0,0.006,0c0,0,0.006,0,0.006,0c0,0,0.006,0,0.006,0c0,0,0.006,0,0.006,0 S26.641,15.379,26.641,15.379z"/><path fill="#8e6818" d="M26.632,15.396h0.006h0.006h0.006h0.006h0.006h0.006h0.006h0.006h0.006h0.006h0.006h0.006h0.007 h0.007h0.007h0.007h0.007h0.007h0.008h0.008h0.009h0.009h0.01h0.011h0.013h0.016h0.02h0.027h0.027 c0.006,0.022,0.53,0.874,0.965,2.534c0.117,0.448,0.227,0.955,0.319,1.519c0.222,1.373,0.336,3.088,0.176,5.132 c-0.153,1.985-0.556,4.133-1.265,6.426c-0.099,0.285-0.277,0.987-1.821,0.987c-1.088,0-1.847-0.296-1.979-0.457 c-0.051-0.064-0.037-0.169,0.033-0.274c0.244-0.363,0.571-0.892,0.919-1.557c0.134-0.255,0.271-0.53,0.408-0.824 c0.477-1.023,0.956-2.266,1.294-3.667c0.35-1.453,0.579-2.987,0.63-4.544c0.028-0.966-0.01-1.925-0.12-2.864 c-0.091-0.785-0.227-1.529-0.399-2.215c0-0.002,0.008-0.003,0.007-0.005c0-0.002,0.008-0.003,0.007-0.005 c0-0.002,0.007-0.003,0.007-0.005c0-0.002,0.008-0.003,0.007-0.005s0.008-0.003,0.007-0.005c0-0.002,0.008-0.003,0.007-0.005 c0-0.002,0.008-0.003,0.007-0.005c0-0.002,0.008-0.003,0.007-0.005s0.008-0.003,0.007-0.004c0-0.001,0.008-0.003,0.007-0.004 c0-0.001,0.008-0.003,0.007-0.004c0-0.001,0.008-0.003,0.007-0.004c0-0.001,0.008-0.003,0.007-0.004 c0-0.001,0.008-0.003,0.007-0.004c0-0.001,0.008-0.003,0.007-0.004c0-0.001,0.008-0.003,0.007-0.004s0.008-0.003,0.007-0.004 c0-0.001,0.008-0.003,0.007-0.004c0-0.001,0.008-0.003,0.007-0.004s0.008-0.003,0.007-0.004c0-0.001,0.008-0.002,0.007-0.004 c0-0.001,0.008-0.002,0.007-0.004s0.008-0.002,0.007-0.004s0.008-0.002,0.007-0.004c0-0.001,0.008-0.002,0.007-0.003 c0-0.001,0.008-0.002,0.007-0.003c0-0.001,0.008-0.002,0.007-0.003c0-0.001,0.008-0.002,0.007-0.003 c0-0.001,0.008-0.002,0.007-0.003c0-0.001,0.008-0.002,0.007-0.003c0-0.001,0.008-0.002,0.007-0.003 c0-0.001,0.008-0.002,0.007-0.003s0.008-0.002,0.007-0.003c0-0.001,0.008-0.002,0.007-0.003s0.008-0.002,0.008-0.003 s0.008-0.002,0.008-0.003c0-0.001,0.008-0.002,0.008-0.003c0-0.001,0.008-0.002,0.008-0.003c0-0.001,0.008-0.002,0.008-0.003 c0-0.001,0.008-0.002,0.008-0.003c0-0.001,0.008-0.002,0.008-0.002c0-0.001,0.008-0.002,0.008-0.002 c0-0.001,0.008-0.002,0.008-0.002c-0.004-0.017,0.176-0.029,0.175-0.034c0,0,0.005,0,0.005,0c0,0,0.005,0,0.005,0 c0,0,0.005,0,0.005,0s0.005,0,0.005,0c0,0,0.005,0,0.005,0c0,0,0.005,0,0.005,0c0,0,0.005,0,0.005,0c0,0,0.005,0,0.005,0 c0,0,0.005,0,0.005,0c0,0,0.005,0,0.005,0c0,0,0.005,0,0.005,0c0,0,0.005,0,0.005,0c0,0,0.005,0,0.005,0 S26.632,15.396,26.632,15.396z"/><path fill="#8f6919" d="M26.623,15.414h0.006h0.006h0.006h0.006h0.006h0.006h0.006h0.006h0.006h0.006h0.006h0.006h0.006 h0.007h0.007h0.007h0.007h0.007h0.008h0.008h0.009h0.01h0.011h0.012h0.014h0.017h0.022h0.029h0.029 c0.007,0.025,0.524,0.882,0.951,2.544c0.115,0.449,0.223,0.957,0.313,1.522c0.218,1.377,0.328,3.095,0.163,5.138 c-0.156,1.978-0.56,4.096-1.253,6.333c-0.11,0.316-0.294,1.012-1.77,1.012c-1.04,0-1.825-0.289-1.951-0.443 c-0.049-0.061-0.033-0.165,0.038-0.271c0.241-0.358,0.567-0.886,0.914-1.552c0.133-0.254,0.269-0.528,0.404-0.82 c0.474-1.019,0.948-2.26,1.278-3.659c0.344-1.456,0.565-2.985,0.612-4.528c0.026-0.966-0.013-1.922-0.122-2.852 c-0.091-0.789-0.226-1.53-0.395-2.207c0-0.002,0.007-0.004,0.007-0.006c0-0.002,0.007-0.004,0.007-0.005 c0-0.002,0.007-0.004,0.007-0.005c0-0.002,0.007-0.004,0.007-0.005s0.007-0.004,0.007-0.005c0-0.002,0.007-0.003,0.007-0.005 c0-0.002,0.007-0.003,0.007-0.005c0-0.002,0.007-0.003,0.007-0.005c0-0.002,0.007-0.003,0.007-0.005 c0-0.002,0.007-0.003,0.007-0.005s0.007-0.003,0.007-0.005c0-0.002,0.007-0.003,0.007-0.005c0-0.002,0.007-0.003,0.007-0.005 c0-0.002,0.007-0.003,0.007-0.005s0.007-0.003,0.007-0.005s0.007-0.003,0.007-0.004c0-0.001,0.007-0.003,0.007-0.004 c0-0.001,0.007-0.003,0.007-0.004c0-0.001,0.007-0.003,0.007-0.004c0-0.001,0.007-0.003,0.007-0.004 c0-0.001,0.007-0.003,0.007-0.004c0-0.001,0.007-0.003,0.007-0.004c0-0.001,0.007-0.003,0.007-0.004s0.007-0.003,0.007-0.004 s0.007-0.003,0.007-0.004s0.007-0.003,0.007-0.004s0.007-0.002,0.007-0.004c0-0.001,0.007-0.002,0.007-0.004 c0-0.001,0.007-0.002,0.007-0.004c0-0.001,0.007-0.002,0.007-0.003c0-0.001,0.007-0.002,0.007-0.003 c0-0.001,0.007-0.002,0.007-0.003c0-0.001,0.007-0.002,0.007-0.003c0-0.001,0.007-0.002,0.007-0.003 c0-0.001,0.007-0.002,0.007-0.003c0-0.001,0.007-0.002,0.007-0.003c0-0.001,0.007-0.002,0.007-0.003 c0-0.001,0.007-0.002,0.007-0.003c0-0.001,0.007-0.002,0.007-0.003c0-0.001,0.007-0.002,0.007-0.003 c0-0.001,0.007-0.002,0.007-0.003c0-0.001,0.007-0.002,0.007-0.003c0-0.001,0.007-0.002,0.007-0.003 c-0.004-0.019,0.168-0.032,0.166-0.038c0,0,0.005,0,0.005-0.001c0,0,0.005,0,0.005-0.001c0,0,0.005,0,0.005,0s0.005,0,0.005,0 c0,0,0.005,0,0.005,0c0,0,0.005,0,0.005,0c0,0,0.005,0,0.005,0s0.005,0,0.005,0c0,0,0.005,0,0.005,0c0,0,0.005,0,0.005,0 s0.005,0,0.005,0c0,0,0.005,0,0.005,0s0.005,0,0.005,0C26.618,15.414,26.623,15.414,26.623,15.414z"/><path fill="#906a1a" d="M26.615,15.431h0.005h0.006h0.006h0.006h0.006h0.006h0.006h0.006h0.006h0.006h0.006h0.006h0.006 h0.006h0.007h0.007h0.007h0.007h0.008h0.008h0.009h0.01h0.011h0.012h0.015h0.018h0.023h0.031H26.9 c0.008,0.027,0.517,0.891,0.938,2.553c0.113,0.45,0.219,0.959,0.308,1.524c0.213,1.382,0.319,3.103,0.151,5.145 c-0.159,1.971-0.563,4.059-1.241,6.241c-0.121,0.348-0.31,1.037-1.719,1.037c-0.993,0-1.803-0.282-1.923-0.428 c-0.046-0.058-0.029-0.161,0.043-0.268c0.238-0.354,0.563-0.88,0.91-1.547c0.132-0.253,0.267-0.526,0.401-0.817 c0.47-1.016,0.94-2.254,1.263-3.65c0.337-1.459,0.553-2.983,0.595-4.513c0.026-0.966-0.016-1.918-0.123-2.839 c-0.091-0.792-0.225-1.531-0.39-2.198c0-0.002,0.007-0.004,0.006-0.006c0-0.002,0.007-0.004,0.006-0.006 c0-0.002,0.007-0.004,0.006-0.006c0-0.002,0.007-0.004,0.006-0.006c0-0.002,0.007-0.004,0.006-0.006 c0-0.002,0.007-0.004,0.006-0.006c0-0.002,0.007-0.004,0.006-0.006c0-0.002,0.007-0.004,0.006-0.006 c0-0.002,0.007-0.004,0.006-0.005c0-0.002,0.007-0.004,0.006-0.005c0-0.002,0.007-0.004,0.006-0.005 c0-0.002,0.007-0.003,0.006-0.005c0-0.002,0.007-0.003,0.006-0.005c0-0.002,0.007-0.003,0.006-0.005s0.007-0.003,0.006-0.005 c0-0.002,0.007-0.003,0.006-0.005c0-0.002,0.007-0.003,0.006-0.005c0-0.002,0.007-0.003,0.006-0.005 c0-0.002,0.007-0.003,0.006-0.005c0-0.002,0.007-0.003,0.006-0.005c0-0.002,0.007-0.003,0.006-0.005 c0-0.002,0.007-0.003,0.006-0.004c0-0.001,0.007-0.003,0.006-0.004c0-0.001,0.007-0.003,0.007-0.004s0.007-0.003,0.007-0.004 c0-0.001,0.007-0.003,0.007-0.004c0-0.001,0.007-0.003,0.007-0.004c0-0.001,0.007-0.003,0.007-0.004s0.007-0.003,0.007-0.004 c0-0.001,0.007-0.003,0.007-0.004c0-0.001,0.007-0.003,0.007-0.004c0-0.001,0.007-0.002,0.007-0.004 c0-0.001,0.007-0.002,0.007-0.004c0-0.001,0.007-0.002,0.007-0.004c0-0.001,0.007-0.002,0.007-0.003 c0-0.001,0.007-0.002,0.007-0.003s0.007-0.002,0.007-0.003s0.007-0.002,0.007-0.003c0-0.001,0.007-0.002,0.007-0.003 c0-0.001,0.007-0.002,0.007-0.003s0.007-0.002,0.007-0.003c0-0.001,0.007-0.002,0.007-0.003c0-0.001,0.007-0.002,0.007-0.003 c-0.005-0.021,0.159-0.035,0.157-0.042c0,0,0.005,0,0.005-0.001c0,0,0.005,0,0.005-0.001c0,0,0.005,0,0.005-0.001 c0,0,0.005,0,0.005,0c0,0,0.005,0,0.005,0c0,0,0.005,0,0.005,0s0.005,0,0.005,0c0,0,0.005,0,0.005,0c0,0,0.005,0,0.005,0 s0.005,0,0.005,0c0,0,0.005,0,0.005,0c0,0,0.005,0,0.005,0s0.005,0,0.005,0C26.61,15.431,26.615,15.431,26.615,15.431z"/><path fill="#916b1a" d="M26.606,15.448h0.005h0.005h0.005h0.005h0.005h0.006h0.006h0.006h0.006h0.006h0.006h0.006h0.006 h0.006h0.007h0.007h0.007h0.007h0.008h0.008h0.009h0.01h0.011h0.013h0.015h0.019h0.024h0.033h0.033 c0.008,0.03,0.511,0.899,0.924,2.562c0.111,0.451,0.216,0.961,0.302,1.527c0.209,1.386,0.311,3.11,0.138,5.152 c-0.163,1.963-0.567,4.023-1.229,6.148c-0.132,0.38-0.326,1.063-1.668,1.063c-0.946,0-1.781-0.274-1.896-0.414 c-0.044-0.056-0.025-0.157,0.048-0.265c0.235-0.349,0.559-0.874,0.905-1.542c0.131-0.252,0.265-0.524,0.398-0.814 c0.466-1.013,0.932-2.248,1.247-3.641c0.33-1.462,0.539-2.982,0.577-4.497c0.024-0.966-0.019-1.914-0.125-2.827 c-0.091-0.796-0.224-1.532-0.386-2.19c0-0.002,0.006-0.004,0.006-0.007c0-0.002,0.006-0.004,0.006-0.007 c0-0.002,0.006-0.004,0.006-0.006c0-0.002,0.006-0.004,0.006-0.006c0-0.002,0.006-0.004,0.006-0.006 c0-0.002,0.006-0.004,0.006-0.006s0.006-0.004,0.006-0.006c0-0.002,0.006-0.004,0.006-0.006c0-0.002,0.006-0.004,0.006-0.006 c0-0.002,0.006-0.004,0.006-0.006c0-0.002,0.006-0.004,0.006-0.006c0-0.002,0.006-0.004,0.006-0.006 c0-0.002,0.006-0.004,0.006-0.006c0-0.002,0.006-0.004,0.006-0.006c0-0.002,0.006-0.004,0.006-0.005s0.006-0.004,0.006-0.005 c0-0.002,0.006-0.004,0.006-0.005c0-0.002,0.006-0.003,0.006-0.005c0-0.002,0.006-0.003,0.006-0.005 c0-0.002,0.006-0.003,0.006-0.005c0-0.002,0.006-0.003,0.006-0.005c0-0.002,0.006-0.003,0.006-0.005 c0-0.002,0.006-0.003,0.006-0.005c0-0.002,0.006-0.003,0.006-0.005c0-0.002,0.006-0.003,0.006-0.005 c0-0.002,0.006-0.003,0.006-0.005s0.006-0.003,0.006-0.004c0-0.001,0.006-0.003,0.006-0.004c0-0.001,0.006-0.003,0.006-0.004 c0-0.001,0.006-0.003,0.006-0.004c0-0.001,0.006-0.003,0.006-0.004s0.006-0.003,0.006-0.004s0.006-0.003,0.006-0.004 c0-0.001,0.007-0.003,0.006-0.004c0-0.001,0.007-0.003,0.006-0.004c0-0.001,0.007-0.002,0.006-0.004s0.007-0.002,0.006-0.004 s0.007-0.002,0.006-0.004c0-0.001,0.007-0.002,0.006-0.003c0-0.001,0.007-0.002,0.006-0.003c0-0.001,0.007-0.002,0.006-0.003 c0-0.001,0.007-0.002,0.006-0.003s0.007-0.002,0.006-0.003c-0.005-0.023,0.15-0.038,0.148-0.046c0,0,0.005,0,0.005-0.001 c0,0,0.005,0,0.005-0.001c0,0,0.005,0,0.005-0.001c0,0,0.005,0,0.005-0.001c0,0,0.005,0,0.005,0c0,0,0.005,0,0.005,0 c0,0,0.005,0,0.005,0c0,0,0.005,0,0.005,0c0,0,0.005,0,0.005,0c0,0,0.005,0,0.005,0c0,0,0.005,0,0.005,0c0,0,0.005,0,0.005,0 c0,0,0.005,0,0.005,0C26.601,15.448,26.606,15.448,26.606,15.448z"/><path fill="#926c1b" d="M26.597,15.466h0.005h0.005h0.005h0.005h0.005h0.005h0.005h0.005h0.006h0.006h0.006h0.006h0.006 h0.006h0.006h0.007h0.007h0.007h0.008h0.008h0.009h0.01h0.011h0.013h0.016h0.02h0.026h0.035h0.035 c0.009,0.032,0.504,0.908,0.91,2.571c0.109,0.452,0.212,0.963,0.297,1.53c0.205,1.39,0.303,3.117,0.126,5.158 c-0.166,1.956-0.57,3.986-1.217,6.056c-0.143,0.411-0.342,1.088-1.617,1.088c-0.898,0-1.759-0.267-1.868-0.4 c-0.042-0.053-0.021-0.153,0.053-0.263c0.232-0.345,0.556-0.868,0.9-1.537c0.13-0.251,0.263-0.521,0.395-0.81 c0.462-1.009,0.924-2.241,1.231-3.633c0.324-1.466,0.524-2.98,0.559-4.482c0.022-0.967-0.022-1.911-0.127-2.814 c-0.091-0.799-0.223-1.533-0.381-2.181c0-0.002,0.006-0.005,0.005-0.007c0-0.002,0.006-0.005,0.005-0.007 c0-0.002,0.006-0.005,0.005-0.007c0-0.002,0.006-0.005,0.005-0.007c0-0.002,0.006-0.005,0.005-0.007 c0-0.002,0.006-0.005,0.005-0.007s0.006-0.004,0.005-0.007s0.006-0.004,0.005-0.007c0-0.002,0.006-0.004,0.005-0.006 c0-0.002,0.006-0.004,0.005-0.006c0-0.002,0.006-0.004,0.005-0.006c0-0.002,0.006-0.004,0.005-0.006 c0-0.002,0.006-0.004,0.005-0.006c0-0.002,0.006-0.004,0.005-0.006c0-0.002,0.006-0.004,0.006-0.006 c0-0.002,0.006-0.004,0.006-0.006s0.006-0.004,0.006-0.006c0-0.002,0.006-0.004,0.006-0.006c0-0.002,0.006-0.004,0.006-0.006 s0.006-0.004,0.006-0.005c0-0.002,0.006-0.004,0.006-0.005c0-0.002,0.006-0.004,0.006-0.005c0-0.002,0.006-0.003,0.006-0.005 c0-0.002,0.006-0.003,0.006-0.005c0-0.002,0.006-0.003,0.006-0.005c0-0.002,0.006-0.003,0.006-0.005s0.006-0.003,0.006-0.005 c0-0.002,0.006-0.003,0.006-0.005c0-0.002,0.006-0.003,0.006-0.005c0-0.002,0.006-0.003,0.006-0.005 c0-0.002,0.006-0.003,0.006-0.004c0-0.001,0.006-0.003,0.006-0.004c0-0.001,0.006-0.003,0.006-0.004 c0-0.001,0.006-0.003,0.006-0.004c0-0.001,0.006-0.003,0.006-0.004c0-0.001,0.006-0.003,0.006-0.004s0.006-0.003,0.006-0.004 c0-0.001,0.006-0.003,0.006-0.004c0-0.001,0.006-0.002,0.006-0.004c0-0.001,0.006-0.002,0.006-0.004 c0-0.001,0.006-0.002,0.006-0.004c0-0.001,0.006-0.002,0.006-0.003c0-0.001,0.006-0.002,0.006-0.003 c-0.006-0.025,0.141-0.041,0.139-0.05c0,0,0.004,0,0.004-0.001c0,0,0.004,0,0.004-0.001c0,0,0.004,0,0.004-0.001 c0,0,0.004,0,0.004-0.001c0,0,0.004,0,0.004-0.001c0,0,0.004,0,0.004,0s0.004,0,0.004,0c0,0,0.004,0,0.004,0 c0,0,0.004,0,0.004,0s0.004,0,0.004,0c0,0,0.004,0,0.004,0c0,0,0.004,0,0.004,0c0,0,0.004,0,0.004,0 C26.593,15.466,26.597,15.466,26.597,15.466z"/><path fill="#936d1c" d="M26.589,15.483h0.005h0.005h0.005h0.005h0.005h0.005h0.005h0.005h0.005h0.006h0.006h0.006h0.006 h0.006h0.006h0.007h0.007h0.007h0.008h0.008h0.009h0.01h0.012h0.014h0.017h0.021h0.027h0.037h0.037 c0.01,0.035,0.498,0.916,0.896,2.58c0.107,0.453,0.208,0.965,0.291,1.532c0.201,1.394,0.294,3.125,0.114,5.165 c-0.169,1.949-0.574,3.949-1.205,5.963c-0.154,0.443-0.358,1.113-1.566,1.113c-0.851,0-1.737-0.26-1.84-0.386 c-0.039-0.051-0.017-0.149,0.057-0.26c0.229-0.341,0.552-0.862,0.896-1.531c0.129-0.25,0.261-0.519,0.392-0.807 c0.459-1.006,0.916-2.235,1.215-3.624c0.317-1.469,0.51-2.978,0.542-4.467c0.021-0.967-0.025-1.907-0.128-2.802 c-0.092-0.803-0.222-1.534-0.377-2.173c-0.001-0.003,0.005-0.005,0.005-0.008c0-0.003,0.005-0.005,0.005-0.008 c0-0.003,0.005-0.005,0.005-0.007c0-0.002,0.005-0.005,0.005-0.007c0-0.002,0.005-0.005,0.005-0.007 c0-0.002,0.005-0.005,0.005-0.007c0-0.002,0.005-0.005,0.005-0.007c0-0.002,0.005-0.005,0.005-0.007 c0-0.002,0.005-0.005,0.005-0.007c0-0.002,0.005-0.005,0.005-0.007c0-0.002,0.005-0.005,0.005-0.007 c0-0.002,0.005-0.004,0.005-0.007c0-0.002,0.005-0.004,0.005-0.007c0-0.002,0.005-0.004,0.005-0.006 c0-0.002,0.005-0.004,0.005-0.006c0-0.002,0.006-0.004,0.005-0.006c0-0.002,0.006-0.004,0.005-0.006s0.006-0.004,0.005-0.006 c0-0.002,0.006-0.004,0.005-0.006c0-0.002,0.006-0.004,0.005-0.006c0-0.002,0.006-0.004,0.005-0.006 c0-0.002,0.006-0.004,0.005-0.006c0-0.002,0.006-0.004,0.005-0.006c0-0.002,0.006-0.004,0.005-0.006 c0-0.002,0.006-0.004,0.005-0.005c0-0.002,0.006-0.004,0.005-0.005c0-0.002,0.006-0.003,0.005-0.005s0.006-0.003,0.005-0.005 c0-0.002,0.006-0.003,0.005-0.005c0-0.002,0.006-0.003,0.005-0.005c0-0.002,0.006-0.003,0.005-0.005 c0-0.002,0.006-0.003,0.005-0.005c0-0.002,0.006-0.003,0.005-0.005c0-0.002,0.006-0.003,0.005-0.005s0.006-0.003,0.005-0.004 c0-0.001,0.006-0.003,0.005-0.004c0-0.001,0.006-0.003,0.005-0.004c0-0.001,0.006-0.003,0.005-0.004 c0-0.001,0.006-0.003,0.005-0.004c0-0.001,0.006-0.003,0.005-0.004s0.006-0.003,0.005-0.004c0-0.001,0.006-0.002,0.006-0.004 c0-0.001,0.006-0.002,0.006-0.004c-0.006-0.027,0.133-0.045,0.13-0.053c0,0,0.004-0.001,0.004-0.001c0,0,0.004,0,0.004-0.001 c0,0,0.004,0,0.004-0.001c0,0,0.004,0,0.004-0.001c0,0,0.004,0,0.004-0.001c0,0,0.004,0,0.004-0.001c0,0,0.004,0,0.004,0 c0,0,0.004,0,0.004,0c0,0,0.004,0,0.004,0c0,0,0.004,0,0.004,0c0,0,0.004,0,0.004,0s0.004,0,0.004,0c0,0,0.004,0,0.004,0 C26.584,15.483,26.589,15.483,26.589,15.483z"/><path fill="#946e1c" d="M26.58,15.501h0.005h0.005h0.005h0.005h0.005h0.005h0.005h0.005h0.005h0.005h0.005h0.006h0.006 h0.006h0.006h0.007h0.007h0.007h0.008h0.009h0.009h0.011h0.012h0.014h0.017h0.022h0.029h0.04h0.039 c0.01,0.037,0.491,0.924,0.882,2.589c0.106,0.455,0.205,0.967,0.286,1.535c0.197,1.398,0.286,3.132,0.101,5.172 c-0.172,1.942-0.577,3.912-1.193,5.871c-0.165,0.475-0.374,1.139-1.515,1.139c-0.804,0-1.715-0.253-1.812-0.372 c-0.037-0.048-0.013-0.145,0.062-0.257c0.226-0.336,0.548-0.856,0.891-1.526c0.128-0.248,0.259-0.517,0.389-0.804 c0.455-1.002,0.908-2.229,1.2-3.615c0.31-1.472,0.495-2.976,0.524-4.451c0.019-0.967-0.028-1.903-0.13-2.79 c-0.092-0.806-0.221-1.535-0.372-2.164c-0.001-0.003,0.005-0.006,0.004-0.008c-0.001-0.003,0.005-0.005,0.004-0.008 c-0.001-0.003,0.005-0.005,0.004-0.008c-0.001-0.003,0.005-0.005,0.004-0.008c-0.001-0.003,0.005-0.005,0.004-0.008 s0.005-0.005,0.004-0.008s0.005-0.005,0.004-0.008s0.005-0.005,0.005-0.008c-0.001-0.003,0.005-0.005,0.005-0.007 s0.005-0.005,0.005-0.007c0-0.002,0.005-0.005,0.005-0.007c0-0.002,0.005-0.005,0.005-0.007c0-0.002,0.005-0.005,0.005-0.007 c0-0.002,0.005-0.005,0.005-0.007s0.005-0.005,0.005-0.007s0.005-0.005,0.005-0.007s0.005-0.004,0.005-0.007 c0-0.002,0.005-0.004,0.005-0.007c0-0.002,0.005-0.004,0.005-0.006s0.005-0.004,0.005-0.006c0-0.002,0.005-0.004,0.005-0.006 c0-0.002,0.005-0.004,0.005-0.006s0.005-0.004,0.005-0.006c0-0.002,0.005-0.004,0.005-0.006c0-0.002,0.005-0.004,0.005-0.006 c0-0.002,0.005-0.004,0.005-0.006c0-0.002,0.005-0.004,0.005-0.006s0.005-0.004,0.005-0.005s0.005-0.004,0.005-0.005 c0-0.002,0.005-0.004,0.005-0.005c0-0.002,0.005-0.003,0.005-0.005c0-0.002,0.005-0.003,0.005-0.005 c0-0.002,0.005-0.003,0.005-0.005c0-0.002,0.005-0.003,0.005-0.005c0-0.002,0.005-0.003,0.005-0.005s0.005-0.003,0.005-0.005 c0-0.002,0.005-0.003,0.005-0.005s0.005-0.003,0.005-0.004c0-0.001,0.005-0.003,0.005-0.004c0-0.001,0.005-0.003,0.005-0.004 c0-0.001,0.005-0.003,0.005-0.004c0-0.001,0.005-0.003,0.005-0.004s0.005-0.003,0.005-0.004 c-0.007-0.029,0.124-0.048,0.121-0.057c0,0,0.004-0.001,0.004-0.001c0,0,0.004-0.001,0.004-0.001c0,0,0.004,0,0.004-0.001 c0,0,0.004,0,0.004-0.001c0,0,0.004,0,0.004-0.001c0,0,0.004,0,0.004-0.001c0,0,0.004,0,0.004-0.001c0,0,0.004,0,0.004,0 c0,0,0.004,0,0.004,0c0,0,0.004,0,0.004,0c0,0,0.004,0,0.004,0s0.004,0,0.004,0c0,0,0.004,0,0.004,0 C26.576,15.501,26.58,15.501,26.58,15.501z"/><path fill="#946f1d" d="M26.571,15.518h0.005h0.005h0.005h0.005h0.005h0.005h0.005h0.005h0.005h0.005h0.005h0.006h0.006 h0.006h0.006h0.007h0.007h0.007h0.008h0.009h0.009h0.011h0.012h0.014h0.018h0.023h0.03h0.042h0.041 c0.011,0.04,0.485,0.933,0.868,2.598c0.104,0.456,0.201,0.969,0.28,1.537c0.193,1.402,0.278,3.139,0.089,5.178 c-0.175,1.935-0.581,3.875-1.181,5.778c-0.176,0.506-0.39,1.164-1.464,1.164c-0.757,0-1.693-0.246-1.785-0.358 c-0.035-0.045-0.009-0.141,0.067-0.254c0.223-0.332,0.544-0.85,0.886-1.521c0.127-0.247,0.257-0.515,0.386-0.8 c0.451-0.999,0.899-2.223,1.184-3.606c0.303-1.475,0.481-2.974,0.506-4.436c0.017-0.967-0.03-1.899-0.131-2.777 c-0.092-0.81-0.221-1.536-0.368-2.156c-0.001-0.003,0.005-0.006,0.004-0.009c-0.001-0.003,0.005-0.006,0.004-0.009 c-0.001-0.003,0.005-0.006,0.004-0.009c-0.001-0.003,0.005-0.006,0.004-0.008c-0.001-0.003,0.005-0.006,0.004-0.008 c-0.001-0.003,0.005-0.006,0.004-0.008s0.005-0.005,0.004-0.008c-0.001-0.003,0.005-0.005,0.004-0.008s0.005-0.005,0.004-0.008 c-0.001-0.003,0.005-0.005,0.004-0.008c-0.001-0.003,0.005-0.005,0.004-0.008c-0.001-0.003,0.005-0.005,0.004-0.008 c-0.001-0.003,0.005-0.005,0.004-0.008c-0.001-0.002,0.005-0.005,0.004-0.007c-0.001-0.002,0.005-0.005,0.004-0.007 s0.005-0.005,0.004-0.007c0-0.002,0.005-0.005,0.004-0.007c0-0.002,0.005-0.005,0.004-0.007c0-0.002,0.005-0.005,0.004-0.007 c0-0.002,0.005-0.005,0.004-0.007c0-0.002,0.005-0.004,0.004-0.007c0-0.002,0.005-0.004,0.004-0.007 c0-0.002,0.005-0.004,0.004-0.006s0.005-0.004,0.004-0.006c0-0.002,0.005-0.004,0.004-0.006c0-0.002,0.005-0.004,0.004-0.006 c0-0.002,0.005-0.004,0.004-0.006c0-0.002,0.005-0.004,0.004-0.006c0-0.002,0.005-0.004,0.004-0.006 c0-0.002,0.005-0.004,0.004-0.006c0-0.002,0.005-0.004,0.004-0.006c0-0.002,0.005-0.004,0.004-0.005 c0-0.002,0.005-0.004,0.004-0.005s0.005-0.003,0.005-0.005c0-0.002,0.005-0.003,0.005-0.005c0-0.002,0.005-0.003,0.005-0.005 s0.005-0.003,0.005-0.005s0.005-0.003,0.005-0.005c0-0.002,0.005-0.003,0.005-0.005c0-0.002,0.005-0.003,0.005-0.004 s0.005-0.003,0.005-0.004s0.005-0.003,0.005-0.004s0.005-0.003,0.005-0.004c-0.007-0.03,0.115-0.051,0.113-0.061 c0,0,0.004-0.001,0.004-0.001c0,0,0.004-0.001,0.004-0.001c0,0,0.004-0.001,0.004-0.001c0,0,0.004,0,0.004-0.001 c0,0,0.004,0,0.004-0.001c0,0,0.004,0,0.004-0.001c0,0,0.004,0,0.004-0.001c0,0,0.004,0,0.004,0c0,0,0.004,0,0.004,0 s0.004,0,0.004,0c0,0,0.004,0,0.004,0s0.004,0,0.004,0c0,0,0.004,0,0.004,0C26.568,15.518,26.571,15.518,26.571,15.518z"/><path fill="#956f1e" d="M26.563,15.535h0.004h0.004h0.004h0.005h0.005h0.005h0.005h0.005h0.005h0.005h0.005h0.005h0.006 h0.006h0.006h0.006h0.007h0.007h0.008h0.009h0.01h0.011h0.013h0.015h0.019h0.023h0.031h0.044h0.043 c0.012,0.042,0.478,0.941,0.854,2.607c0.102,0.457,0.197,0.971,0.275,1.54c0.189,1.406,0.269,3.147,0.077,5.185 c-0.179,1.927-0.584,3.838-1.169,5.686c-0.187,0.538-0.407,1.189-1.413,1.189c-0.709,0-1.671-0.239-1.757-0.344 c-0.033-0.043-0.005-0.137,0.072-0.251c0.219-0.327,0.54-0.844,0.881-1.516c0.126-0.246,0.255-0.512,0.383-0.797 c0.448-0.996,0.891-2.217,1.168-3.598c0.297-1.479,0.466-2.972,0.489-4.42c0.015-0.968-0.033-1.896-0.133-2.765 c-0.092-0.813-0.22-1.537-0.364-2.148c-0.001-0.003,0.004-0.006,0.003-0.009c-0.001-0.003,0.004-0.006,0.004-0.009 c-0.001-0.003,0.004-0.006,0.004-0.009c-0.001-0.003,0.004-0.006,0.004-0.009c-0.001-0.003,0.004-0.006,0.004-0.009 c-0.001-0.003,0.004-0.006,0.004-0.009s0.004-0.006,0.004-0.009s0.004-0.006,0.004-0.009c-0.001-0.003,0.004-0.006,0.004-0.008 s0.004-0.006,0.004-0.008c-0.001-0.003,0.004-0.006,0.004-0.008c-0.001-0.003,0.004-0.005,0.004-0.008 c-0.001-0.003,0.004-0.005,0.004-0.008s0.004-0.005,0.004-0.008c-0.001-0.003,0.004-0.005,0.004-0.008 c-0.001-0.003,0.004-0.005,0.004-0.008c-0.001-0.003,0.004-0.005,0.004-0.008c-0.001-0.002,0.004-0.005,0.004-0.007 c-0.001-0.002,0.004-0.005,0.004-0.007s0.004-0.005,0.004-0.007c-0.001-0.002,0.004-0.005,0.004-0.007 c0-0.002,0.004-0.005,0.004-0.007c0-0.002,0.004-0.005,0.004-0.007s0.004-0.004,0.004-0.007c0-0.002,0.004-0.004,0.004-0.007 c0-0.002,0.004-0.004,0.004-0.006c0-0.002,0.004-0.004,0.004-0.006c0-0.002,0.004-0.004,0.004-0.006 c0-0.002,0.004-0.004,0.004-0.006c0-0.002,0.004-0.004,0.004-0.006c0-0.002,0.004-0.004,0.004-0.006 c0-0.002,0.004-0.004,0.004-0.006c0-0.002,0.004-0.004,0.004-0.006c0-0.002,0.004-0.004,0.004-0.005 c0-0.002,0.004-0.004,0.004-0.005c0-0.002,0.005-0.004,0.004-0.005s0.005-0.003,0.004-0.005c0-0.002,0.005-0.003,0.004-0.005 c0-0.002,0.005-0.003,0.004-0.005c0-0.002,0.005-0.003,0.004-0.005c0-0.002,0.005-0.003,0.004-0.005 c0-0.002,0.005-0.003,0.004-0.005c0-0.001,0.005-0.003,0.004-0.004c-0.008-0.032,0.106-0.054,0.104-0.065 c0,0,0.003-0.001,0.003-0.001c0,0,0.003-0.001,0.003-0.001c0,0,0.003-0.001,0.003-0.001c0,0,0.003-0.001,0.003-0.001 c0,0,0.003,0,0.003-0.001c0,0,0.003,0,0.003-0.001s0.003,0,0.003-0.001c0,0,0.003,0,0.003-0.001c0,0,0.003,0,0.003,0 c0,0,0.003,0,0.003,0c0,0,0.004,0,0.003,0c0,0,0.004,0,0.003,0c0,0,0.004,0,0.003,0S26.563,15.535,26.563,15.535z"/><path fill="#96701e" d="M26.554,15.553h0.004h0.004h0.004h0.004h0.004h0.004h0.005h0.005h0.005h0.005h0.005h0.005h0.006 h0.006h0.006h0.006h0.007h0.007h0.008h0.009h0.01h0.011h0.013h0.015h0.019h0.024h0.033h0.046h0.045 c0.013,0.045,0.472,0.95,0.84,2.616c0.1,0.458,0.194,0.973,0.269,1.543c0.185,1.41,0.261,3.154,0.064,5.192 c-0.182,1.92-0.588,3.802-1.157,5.593c-0.198,0.569-0.423,1.215-1.362,1.215c-0.662,0-1.649-0.232-1.729-0.329 c-0.03-0.04-0.001-0.132,0.076-0.248c0.216-0.323,0.536-0.838,0.877-1.51c0.125-0.245,0.253-0.51,0.38-0.794 c0.444-0.992,0.883-2.211,1.152-3.589c0.29-1.482,0.452-2.97,0.471-4.405c0.013-0.968-0.036-1.892-0.134-2.752 c-0.092-0.817-0.219-1.539-0.359-2.139c-0.001-0.003,0.004-0.007,0.003-0.01s0.004-0.007,0.003-0.01 c-0.001-0.003,0.004-0.006,0.003-0.01c-0.001-0.003,0.004-0.006,0.003-0.01c-0.001-0.003,0.004-0.006,0.003-0.009 s0.004-0.006,0.003-0.009c-0.001-0.003,0.004-0.006,0.003-0.009s0.004-0.006,0.003-0.009c-0.001-0.003,0.004-0.006,0.003-0.009 c-0.001-0.003,0.004-0.006,0.003-0.009c-0.001-0.003,0.004-0.006,0.003-0.009c-0.001-0.003,0.004-0.006,0.003-0.009 c-0.001-0.003,0.004-0.006,0.003-0.008s0.004-0.006,0.003-0.008s0.004-0.005,0.003-0.008s0.004-0.005,0.003-0.008 c-0.001-0.003,0.004-0.005,0.003-0.008c-0.001-0.003,0.004-0.005,0.003-0.008s0.004-0.005,0.003-0.008 c-0.001-0.003,0.004-0.005,0.003-0.008c-0.001-0.002,0.004-0.005,0.003-0.007c-0.001-0.002,0.004-0.005,0.003-0.007 c-0.001-0.002,0.004-0.005,0.003-0.007c-0.001-0.002,0.004-0.005,0.003-0.007c-0.001-0.002,0.004-0.005,0.003-0.007 c-0.001-0.002,0.004-0.005,0.003-0.007c0-0.002,0.004-0.004,0.003-0.007c0-0.002,0.004-0.004,0.004-0.007 c0-0.002,0.004-0.004,0.004-0.006c0-0.002,0.004-0.004,0.004-0.006c0-0.002,0.004-0.004,0.004-0.006 c0-0.002,0.004-0.004,0.004-0.006c0-0.002,0.004-0.004,0.004-0.006c0-0.002,0.004-0.004,0.004-0.006 c0-0.002,0.004-0.004,0.004-0.006s0.004-0.004,0.004-0.006s0.004-0.004,0.004-0.005c0-0.002,0.004-0.004,0.004-0.005 c0-0.002,0.004-0.003,0.004-0.005c0-0.002,0.004-0.003,0.004-0.005c0-0.002,0.004-0.003,0.004-0.005 c0-0.002,0.004-0.003,0.004-0.005c0-0.002,0.004-0.003,0.004-0.005c-0.008-0.034,0.098-0.057,0.095-0.069 c0,0,0.003-0.001,0.003-0.001c0,0,0.003-0.001,0.003-0.001c0,0,0.003-0.001,0.003-0.001c0,0,0.003-0.001,0.003-0.001 c0,0,0.003-0.001,0.003-0.001c0,0,0.003,0,0.003-0.001c0,0,0.003,0,0.003-0.001c0,0,0.003,0,0.003-0.001s0.003,0,0.003,0 s0.003,0,0.003,0c0,0,0.003,0,0.003,0c0,0,0.003,0,0.003,0c0,0,0.003,0,0.003,0C26.551,15.553,26.554,15.553,26.554,15.553z"/><path fill="#97711f" d="M26.545,15.57h0.004h0.004h0.004h0.004h0.004h0.004h0.004h0.004h0.005h0.005h0.005h0.005h0.005 h0.006h0.006h0.006h0.007h0.007h0.008h0.009h0.01h0.011h0.013h0.016h0.02h0.025h0.034h0.048h0.048 c0.013,0.047,0.465,0.958,0.827,2.625c0.098,0.459,0.19,0.975,0.264,1.545c0.181,1.414,0.253,3.161,0.052,5.198 c-0.185,1.913-0.591,3.765-1.145,5.501c-0.209,0.601-0.439,1.24-1.311,1.24c-0.615,0-1.627-0.224-1.702-0.315 c-0.028-0.038,0.003-0.128,0.081-0.246c0.213-0.318,0.532-0.832,0.872-1.505c0.124-0.244,0.251-0.508,0.377-0.791 c0.44-0.989,0.875-2.205,1.136-3.58c0.283-1.485,0.437-2.968,0.453-4.389c0.011-0.968-0.039-1.888-0.136-2.74 c-0.092-0.82-0.218-1.54-0.355-2.131c-0.001-0.004,0.003-0.007,0.003-0.01c-0.001-0.003,0.003-0.007,0.003-0.01 c-0.001-0.003,0.003-0.007,0.003-0.01c-0.001-0.003,0.003-0.007,0.003-0.01s0.003-0.007,0.003-0.01 c-0.001-0.003,0.003-0.007,0.003-0.01c-0.001-0.003,0.003-0.006,0.003-0.01c-0.001-0.003,0.003-0.006,0.003-0.01 c-0.001-0.003,0.003-0.006,0.003-0.009c-0.001-0.003,0.003-0.006,0.003-0.009c-0.001-0.003,0.003-0.006,0.003-0.009 c-0.001-0.003,0.003-0.006,0.003-0.009c-0.001-0.003,0.003-0.006,0.003-0.009c-0.001-0.003,0.003-0.006,0.003-0.009 c-0.001-0.003,0.003-0.006,0.003-0.009c-0.001-0.003,0.003-0.006,0.003-0.009s0.003-0.006,0.003-0.008 c-0.001-0.003,0.003-0.006,0.003-0.008c-0.001-0.003,0.003-0.005,0.003-0.008c-0.001-0.003,0.003-0.005,0.003-0.008 c-0.001-0.003,0.003-0.005,0.003-0.008c-0.001-0.003,0.003-0.005,0.003-0.008c-0.001-0.003,0.004-0.005,0.003-0.008 c-0.001-0.003,0.004-0.005,0.003-0.007c-0.001-0.002,0.004-0.005,0.003-0.007c-0.001-0.002,0.004-0.005,0.003-0.007 c-0.001-0.002,0.004-0.005,0.003-0.007c-0.001-0.002,0.004-0.005,0.003-0.007c-0.001-0.002,0.004-0.005,0.003-0.007 c0-0.002,0.004-0.004,0.003-0.007c0-0.002,0.004-0.004,0.003-0.007s0.004-0.004,0.003-0.006s0.004-0.004,0.003-0.006 c0-0.002,0.004-0.004,0.003-0.006c0-0.002,0.004-0.004,0.003-0.006c0-0.002,0.004-0.004,0.003-0.006s0.004-0.004,0.003-0.006 c0-0.002,0.004-0.004,0.003-0.006c0-0.002,0.004-0.004,0.003-0.005c0-0.002,0.004-0.004,0.003-0.005s0.004-0.003,0.003-0.005 c0-0.002,0.004-0.003,0.003-0.005s0.004-0.003,0.003-0.005c-0.008-0.036,0.089-0.06,0.086-0.072c0,0,0.003-0.001,0.003-0.001 c0,0,0.003-0.001,0.003-0.001c0,0,0.003-0.001,0.003-0.001c0,0,0.003-0.001,0.003-0.001c0,0,0.003-0.001,0.003-0.001 c0,0,0.003,0,0.003-0.001s0.003,0,0.003-0.001c0,0,0.003,0,0.003-0.001c0,0,0.003,0,0.003-0.001s0.003,0,0.003,0 c0,0,0.003,0,0.003,0c0,0,0.003,0,0.003,0c0,0,0.003,0,0.003,0C26.542,15.57,26.545,15.57,26.545,15.57z"/><path fill="#987220" d="M26.537,15.587h0.004h0.004h0.004h0.004h0.004h0.004h0.004h0.004h0.004h0.005h0.005h0.005h0.005 h0.005h0.006h0.006h0.007h0.007h0.008h0.009h0.01h0.012h0.013h0.016h0.02h0.026h0.036h0.05h0.05 c0.014,0.05,0.459,0.967,0.813,2.635c0.097,0.46,0.186,0.977,0.258,1.548c0.177,1.418,0.244,3.169,0.04,5.205 c-0.188,1.906-0.594,3.728-1.133,5.408c-0.22,0.633-0.455,1.266-1.26,1.266c-0.567,0-1.605-0.217-1.674-0.301 c-0.026-0.035,0.007-0.124,0.086-0.243c0.21-0.314,0.528-0.826,0.867-1.5c0.123-0.243,0.249-0.506,0.373-0.787 c0.437-0.985,0.866-2.199,1.121-3.571c0.276-1.488,0.422-2.966,0.436-4.374c0.009-0.968-0.042-1.884-0.137-2.727 c-0.092-0.824-0.217-1.541-0.35-2.122c-0.001-0.004,0.003-0.007,0.002-0.011c-0.001-0.004,0.003-0.007,0.002-0.011 c-0.001-0.004,0.003-0.007,0.002-0.011c-0.001-0.004,0.003-0.007,0.002-0.011c-0.001-0.004,0.003-0.007,0.002-0.01 c-0.001-0.003,0.003-0.007,0.002-0.01c-0.001-0.003,0.003-0.007,0.002-0.01c-0.001-0.003,0.003-0.007,0.002-0.01 c-0.001-0.003,0.003-0.007,0.002-0.01c-0.001-0.003,0.003-0.007,0.002-0.01c-0.001-0.003,0.003-0.006,0.002-0.01 c-0.001-0.003,0.003-0.006,0.002-0.009c-0.001-0.003,0.003-0.006,0.002-0.009c-0.001-0.003,0.003-0.006,0.002-0.009 c-0.001-0.003,0.003-0.006,0.002-0.009c-0.001-0.003,0.003-0.006,0.002-0.009c-0.001-0.003,0.003-0.006,0.002-0.009 s0.003-0.006,0.002-0.009c-0.001-0.003,0.003-0.006,0.002-0.009c-0.001-0.003,0.003-0.006,0.002-0.008 c-0.001-0.003,0.003-0.006,0.002-0.008c-0.001-0.003,0.003-0.005,0.003-0.008c-0.001-0.003,0.003-0.005,0.003-0.008 s0.003-0.005,0.003-0.008c-0.001-0.003,0.003-0.005,0.003-0.008c-0.001-0.003,0.003-0.005,0.003-0.008s0.003-0.005,0.003-0.007 c-0.001-0.002,0.003-0.005,0.003-0.007s0.003-0.005,0.003-0.007c-0.001-0.002,0.003-0.005,0.003-0.007 c-0.001-0.002,0.003-0.005,0.003-0.007c-0.001-0.002,0.003-0.005,0.003-0.007c0-0.002,0.003-0.004,0.003-0.007 c0-0.002,0.003-0.004,0.003-0.006c0-0.002,0.003-0.004,0.003-0.006c0-0.002,0.003-0.004,0.003-0.006 c0-0.002,0.003-0.004,0.003-0.006c0-0.002,0.003-0.004,0.003-0.006c0-0.002,0.003-0.004,0.003-0.006 c0-0.002,0.003-0.004,0.003-0.006c0-0.002,0.003-0.004,0.003-0.005c0-0.002,0.003-0.004,0.003-0.005 c0-0.002,0.003-0.003,0.003-0.005c-0.009-0.038,0.08-0.064,0.077-0.076c0,0,0.003-0.001,0.003-0.001 c0,0,0.003-0.001,0.003-0.001c0,0,0.003-0.001,0.003-0.001c0,0,0.003-0.001,0.003-0.001c0,0,0.003-0.001,0.003-0.001 c0,0,0.003-0.001,0.003-0.001c0,0,0.003,0,0.003-0.001c0,0,0.003,0,0.003-0.001c0,0,0.003,0,0.003-0.001s0.003,0,0.003,0 c0,0,0.003,0,0.003,0c0,0,0.003,0,0.003,0s0.003,0,0.003,0S26.537,15.587,26.537,15.587z"/><path fill="#997320" d="M26.528,15.605h0.004h0.004h0.004h0.004h0.004h0.004h0.004h0.004h0.004h0.005h0.005h0.005h0.005 h0.005h0.006h0.006h0.007h0.007h0.008h0.009h0.01h0.012h0.014h0.017h0.021h0.027h0.037h0.052h0.052 c0.015,0.052,0.452,0.975,0.799,2.644c0.095,0.461,0.183,0.979,0.253,1.55c0.173,1.423,0.236,3.176,0.027,5.211 c-0.191,1.898-0.598,3.691-1.121,5.316c-0.231,0.664-0.471,1.291-1.209,1.291c-0.52,0-1.583-0.21-1.646-0.287 c-0.023-0.032,0.011-0.12,0.091-0.24c0.207-0.309,0.524-0.82,0.863-1.495c0.122-0.241,0.247-0.503,0.37-0.784 c0.433-0.982,0.858-2.193,1.105-3.563c0.269-1.492,0.408-2.964,0.418-4.359c0.007-0.969-0.045-1.881-0.139-2.715 c-0.092-0.827-0.216-1.542-0.346-2.114c-0.001-0.004,0.002-0.008,0.002-0.012s0.002-0.008,0.002-0.011 c-0.001-0.004,0.002-0.008,0.002-0.011c-0.001-0.004,0.002-0.007,0.002-0.011c-0.001-0.004,0.002-0.007,0.002-0.011 c-0.001-0.004,0.002-0.007,0.002-0.011c-0.001-0.004,0.002-0.007,0.002-0.011c-0.001-0.004,0.002-0.007,0.002-0.011 c-0.001-0.004,0.002-0.007,0.002-0.01c-0.001-0.003,0.003-0.007,0.002-0.01s0.003-0.007,0.002-0.01 c-0.001-0.003,0.003-0.007,0.002-0.01c-0.001-0.003,0.003-0.007,0.002-0.01c-0.001-0.003,0.003-0.007,0.002-0.01 c-0.001-0.003,0.003-0.006,0.002-0.01c-0.001-0.003,0.003-0.006,0.002-0.009s0.003-0.006,0.002-0.009 c-0.001-0.003,0.003-0.006,0.002-0.009c-0.001-0.003,0.003-0.006,0.002-0.009c-0.001-0.003,0.003-0.006,0.002-0.009 c-0.001-0.003,0.003-0.006,0.002-0.009c-0.001-0.003,0.003-0.006,0.002-0.009s0.003-0.006,0.002-0.008 c-0.001-0.003,0.003-0.006,0.002-0.008s0.003-0.005,0.002-0.008c-0.001-0.003,0.003-0.005,0.002-0.008 c-0.001-0.003,0.003-0.005,0.002-0.008s0.003-0.005,0.002-0.008c-0.001-0.003,0.003-0.005,0.002-0.008 c-0.001-0.002,0.003-0.005,0.002-0.007c-0.001-0.002,0.003-0.005,0.002-0.007c-0.001-0.002,0.003-0.005,0.002-0.007 c-0.001-0.002,0.003-0.005,0.002-0.007c-0.001-0.002,0.003-0.005,0.002-0.007c-0.001-0.002,0.003-0.004,0.002-0.007 s0.003-0.004,0.002-0.006c0-0.002,0.003-0.004,0.002-0.006c0-0.002,0.003-0.004,0.002-0.006c0-0.002,0.003-0.004,0.002-0.006 c0-0.002,0.003-0.004,0.003-0.006c0-0.002,0.003-0.004,0.003-0.006s0.003-0.004,0.003-0.006c0-0.002,0.003-0.004,0.003-0.005 c-0.009-0.04,0.071-0.067,0.068-0.08c0,0,0.002-0.001,0.002-0.001c0,0,0.002-0.001,0.002-0.001c0,0,0.002-0.001,0.002-0.001 s0.002-0.001,0.002-0.001c0,0,0.002-0.001,0.002-0.001c0,0,0.002-0.001,0.002-0.001c0,0,0.002,0,0.002-0.001 c0,0,0.003,0,0.002-0.001s0.003,0,0.002-0.001c0,0,0.003,0,0.002,0c0,0,0.003,0,0.003,0c0,0,0.003,0,0.003,0 c0,0,0.003,0,0.003,0C26.526,15.605,26.528,15.605,26.528,15.605z"/><path fill="#9a7421" d="M26.519,15.622h0.003h0.003h0.003h0.004h0.004h0.004h0.004h0.004h0.004h0.004h0.005h0.005h0.005 h0.005h0.006h0.006h0.007h0.007h0.008h0.009h0.01h0.012h0.014h0.017h0.022h0.028h0.038h0.054h0.054 c0.015,0.055,0.446,0.984,0.785,2.653c0.093,0.462,0.179,0.981,0.247,1.553c0.168,1.427,0.228,3.183,0.015,5.218 c-0.195,1.891-0.601,3.654-1.109,5.223c-0.242,0.696-0.487,1.316-1.158,1.316c-0.473,0-1.561-0.203-1.618-0.273 c-0.021-0.03,0.015-0.116,0.095-0.237c0.204-0.305,0.52-0.815,0.858-1.49c0.121-0.24,0.245-0.501,0.367-0.781 c0.429-0.979,0.85-2.187,1.089-3.554c0.262-1.495,0.393-2.962,0.4-4.343c0.005-0.969-0.048-1.877-0.141-2.703 c-0.092-0.831-0.215-1.543-0.341-2.105c-0.001-0.004,0.002-0.008,0.001-0.012c-0.001-0.004,0.002-0.008,0.001-0.012 c-0.001-0.004,0.002-0.008,0.001-0.012c-0.001-0.004,0.002-0.008,0.001-0.012c-0.001-0.004,0.002-0.008,0.001-0.012 c-0.001-0.004,0.002-0.008,0.001-0.011c-0.001-0.004,0.002-0.008,0.001-0.011s0.002-0.007,0.001-0.011S26.371,16,26.37,15.997 c-0.001-0.004,0.002-0.007,0.001-0.011s0.002-0.007,0.001-0.011c-0.001-0.004,0.002-0.007,0.001-0.01 c-0.001-0.003,0.002-0.007,0.001-0.01c-0.001-0.003,0.002-0.007,0.001-0.01c-0.001-0.003,0.002-0.007,0.001-0.01 c-0.001-0.003,0.002-0.007,0.001-0.01s0.002-0.007,0.002-0.01c-0.001-0.003,0.002-0.006,0.002-0.01 c-0.001-0.003,0.002-0.006,0.002-0.009c-0.001-0.003,0.002-0.006,0.002-0.009c-0.001-0.003,0.002-0.006,0.002-0.009 c-0.001-0.003,0.002-0.006,0.002-0.009c-0.001-0.003,0.002-0.006,0.002-0.009c-0.001-0.003,0.002-0.006,0.002-0.009 c-0.001-0.003,0.002-0.006,0.002-0.009c-0.001-0.003,0.002-0.006,0.002-0.008s0.002-0.005,0.002-0.008 c-0.001-0.003,0.002-0.005,0.002-0.008c-0.001-0.003,0.002-0.005,0.002-0.008c-0.001-0.003,0.002-0.005,0.002-0.008 c-0.001-0.003,0.002-0.005,0.002-0.008c-0.001-0.002,0.002-0.005,0.002-0.007c-0.001-0.002,0.002-0.005,0.002-0.007 c-0.001-0.002,0.002-0.005,0.002-0.007s0.002-0.005,0.002-0.007c-0.001-0.002,0.003-0.005,0.002-0.007 c-0.001-0.002,0.003-0.004,0.002-0.007c-0.001-0.002,0.003-0.004,0.002-0.006c0-0.002,0.003-0.004,0.002-0.006 c0-0.002,0.003-0.004,0.002-0.006c0-0.002,0.003-0.004,0.002-0.006c0-0.002,0.003-0.004,0.002-0.006 c0-0.002,0.003-0.004,0.002-0.006c-0.01-0.042,0.063-0.07,0.059-0.084c0,0,0.002-0.001,0.002-0.001 c0,0,0.002-0.001,0.002-0.001c0,0,0.002-0.001,0.002-0.001s0.002-0.001,0.002-0.001c0,0,0.002-0.001,0.002-0.001 c0,0,0.002-0.001,0.002-0.001c0,0,0.002-0.001,0.002-0.001c0,0,0.002,0,0.002-0.001c0,0,0.002,0,0.002-0.001 c0,0,0.002,0,0.002-0.001c0,0,0.002,0,0.002,0c0,0,0.002,0,0.002,0c0,0,0.002,0,0.002,0 C26.517,15.622,26.52,15.622,26.519,15.622z"/><path fill="#9b7522" d="M26.511,15.639h0.003h0.003h0.003h0.003h0.003h0.004h0.004h0.004h0.004h0.004h0.004h0.005h0.005 h0.005h0.006h0.006h0.007h0.007h0.008h0.009h0.01h0.012h0.014h0.017h0.022h0.029h0.04h0.057h0.056 c0.016,0.057,0.439,0.992,0.771,2.662c0.091,0.463,0.175,0.983,0.242,1.556c0.164,1.431,0.219,3.191,0.003,5.225 c-0.198,1.884-0.605,3.618-1.097,5.131c-0.254,0.728-0.504,1.342-1.107,1.342c-0.426,0-1.539-0.196-1.591-0.259 c-0.019-0.027,0.019-0.112,0.1-0.234c0.201-0.3,0.516-0.809,0.853-1.484c0.12-0.239,0.243-0.499,0.364-0.777 c0.426-0.975,0.841-2.181,1.073-3.545c0.255-1.498,0.378-2.96,0.383-4.328c0.003-0.969-0.051-1.873-0.142-2.69 c-0.092-0.834-0.214-1.544-0.337-2.097c-0.001-0.004,0.002-0.008,0.001-0.013c-0.001-0.004,0.002-0.008,0.001-0.013 c-0.001-0.004,0.002-0.008,0.001-0.012c-0.001-0.004,0.002-0.008,0.001-0.012c-0.001-0.004,0.002-0.008,0.001-0.012 c-0.001-0.004,0.002-0.008,0.001-0.012c-0.001-0.004,0.002-0.008,0.001-0.012s0.002-0.008,0.001-0.012 c-0.001-0.004,0.002-0.008,0.001-0.011c-0.001-0.004,0.002-0.008,0.001-0.011c-0.001-0.004,0.002-0.007,0.001-0.011 c-0.001-0.004,0.002-0.007,0.001-0.011c-0.001-0.004,0.002-0.007,0.001-0.011c-0.001-0.004,0.002-0.007,0.001-0.011 c-0.001-0.004,0.002-0.007,0.001-0.01c-0.001-0.003,0.002-0.007,0.001-0.01c-0.001-0.003,0.002-0.007,0.001-0.01 c-0.001-0.003,0.002-0.007,0.001-0.01c-0.001-0.003,0.002-0.007,0.001-0.01c-0.001-0.003,0.002-0.006,0.001-0.01 c-0.001-0.003,0.002-0.006,0.001-0.009c-0.001-0.003,0.002-0.006,0.001-0.009c-0.001-0.003,0.002-0.006,0.001-0.009 s0.002-0.006,0.001-0.009c-0.001-0.003,0.002-0.006,0.001-0.009s0.002-0.006,0.001-0.009c-0.001-0.003,0.002-0.006,0.001-0.009 c-0.001-0.003,0.002-0.006,0.001-0.008c-0.001-0.003,0.002-0.006,0.001-0.008c-0.001-0.003,0.002-0.005,0.001-0.008 c-0.001-0.003,0.002-0.005,0.001-0.008c-0.001-0.003,0.002-0.005,0.001-0.008c-0.001-0.003,0.002-0.005,0.001-0.008 c-0.001-0.003,0.002-0.005,0.002-0.007c-0.001-0.002,0.002-0.005,0.002-0.007c-0.001-0.002,0.002-0.005,0.002-0.007 s0.002-0.005,0.002-0.007c-0.001-0.002,0.002-0.005,0.002-0.007c-0.001-0.002,0.002-0.004,0.002-0.007 c-0.001-0.002,0.002-0.004,0.002-0.006c0-0.002,0.002-0.004,0.002-0.006c0-0.002,0.002-0.004,0.002-0.006 c0-0.002,0.002-0.004,0.002-0.006c-0.01-0.044,0.054-0.073,0.05-0.088c0,0,0.002-0.001,0.002-0.001 c0,0,0.002-0.001,0.002-0.001c0,0,0.002-0.001,0.002-0.001c0,0,0.002-0.001,0.002-0.001c0,0,0.002-0.001,0.002-0.001 c0,0,0.002-0.001,0.002-0.001c0,0,0.002-0.001,0.002-0.001c0,0,0.002,0,0.002-0.001c0,0,0.002,0,0.002-0.001 s0.002,0,0.002-0.001c0,0,0.002,0,0.002,0c0,0,0.002,0,0.002,0c0,0,0.002,0,0.002,0C26.509,15.64,26.511,15.64,26.511,15.639z"/><path fill="#9c7623" d="M26.502,15.657h0.003h0.003h0.003h0.003h0.003h0.003h0.004h0.004h0.004h0.004h0.004h0.004h0.005 h0.005h0.005h0.006h0.006h0.007h0.008h0.009h0.01h0.012h0.015h0.018h0.023h0.03h0.041h0.059h0.058 c0.017,0.06,0.433,1.001,0.757,2.671c0.089,0.464,0.172,0.985,0.236,1.558c0.16,1.435,0.211,3.198-0.01,5.231 c-0.201,1.877-0.608,3.581-1.085,5.038c-0.265,0.759-0.52,1.367-1.056,1.367c-0.378,0-1.517-0.189-1.563-0.245 c-0.017-0.024,0.023-0.108,0.105-0.231c0.197-0.296,0.512-0.803,0.849-1.479c0.119-0.238,0.241-0.497,0.361-0.774 c0.422-0.972,0.83-2.175,1.058-3.536c0.245-1.502,0.361-2.959,0.365-4.312c-0.001-0.969-0.054-1.87-0.144-2.678 c-0.092-0.838-0.213-1.545-0.332-2.088c-0.001-0.004,0.001-0.009,0-0.013c-0.001-0.004,0.001-0.009,0-0.013 c-0.001-0.004,0.001-0.009,0-0.013c-0.001-0.004,0.001-0.009,0-0.013c-0.001-0.004,0.001-0.008,0-0.013 c-0.001-0.004,0.001-0.008,0-0.012c-0.001-0.004,0.001-0.008,0-0.012c-0.001-0.004,0.001-0.008,0-0.012s0.001-0.008,0-0.012 s0.001-0.008,0-0.012c-0.001-0.004,0.001-0.008,0-0.012c-0.001-0.004,0.001-0.008,0-0.011 c-0.001-0.004,0.001-0.008,0.001-0.011c-0.001-0.004,0.001-0.007,0.001-0.011c-0.001-0.004,0.001-0.007,0.001-0.011 c-0.001-0.004,0.001-0.007,0.001-0.011s0.001-0.007,0.001-0.011c-0.001-0.004,0.001-0.007,0.001-0.01s0.001-0.007,0.001-0.01 c-0.001-0.003,0.001-0.007,0.001-0.01c-0.001-0.003,0.001-0.007,0.001-0.01c-0.001-0.003,0.001-0.007,0.001-0.01 s0.001-0.006,0.001-0.01c-0.001-0.003,0.001-0.006,0.001-0.009c-0.001-0.003,0.001-0.006,0.001-0.009 c-0.001-0.003,0.002-0.006,0.001-0.009s0.002-0.006,0.001-0.009c-0.001-0.003,0.002-0.006,0.001-0.009 c-0.001-0.003,0.002-0.006,0.001-0.009c-0.001-0.003,0.002-0.006,0.001-0.008c-0.001-0.003,0.002-0.006,0.001-0.008 s0.002-0.005,0.001-0.008c-0.001-0.003,0.002-0.005,0.001-0.008c-0.001-0.003,0.002-0.005,0.001-0.008 c-0.001-0.003,0.002-0.005,0.001-0.008s0.002-0.005,0.001-0.007c-0.001-0.002,0.002-0.005,0.001-0.007 c-0.001-0.002,0.002-0.005,0.001-0.007c-0.001-0.002,0.002-0.005,0.001-0.007c-0.001-0.002,0.002-0.004,0.001-0.007 s0.002-0.004,0.001-0.007c-0.001-0.002,0.002-0.004,0.001-0.006c0-0.002,0.002-0.004,0.001-0.006 c-0.011-0.046,0.045-0.076,0.041-0.092c0,0,0.002-0.001,0.002-0.001c0,0,0.002-0.001,0.002-0.001c0,0,0.002-0.001,0.002-0.001 c0,0,0.002-0.001,0.002-0.001c0,0,0.002-0.001,0.002-0.001c0,0,0.002-0.001,0.002-0.001c0,0,0.002-0.001,0.002-0.001 c0,0,0.002-0.001,0.002-0.001c0,0,0.002,0,0.002-0.001s0.002,0,0.002-0.001c0,0,0.002,0,0.002,0c0,0,0.002,0,0.002,0 c0,0,0.002,0,0.002,0S26.502,15.657,26.502,15.657z"/><path fill="#9d7723" d="M26.494,15.674h0.003h0.003h0.003h0.003h0.003h0.003h0.003h0.004h0.004h0.004h0.004h0.004h0.005 h0.005h0.005h0.006h0.006h0.007h0.008h0.009h0.011h0.013h0.015h0.018h0.024h0.031h0.043H26.8h0.06 c0.017,0.062,0.426,1.009,0.743,2.68c0.088,0.466,0.168,0.987,0.231,1.561c0.156,1.439,0.203,3.205-0.022,5.238 c-0.204,1.87-0.612,3.544-1.073,4.946c-0.276,0.791-0.536,1.392-1.005,1.392c-0.331,0-1.495-0.182-1.535-0.23 c-0.014-0.022,0.027-0.104,0.11-0.228c0.194-0.291,0.508-0.797,0.844-1.474c0.118-0.237,0.239-0.494,0.358-0.771 c0.418-0.968,0.822-2.169,1.042-3.528c0.238-1.505,0.346-2.957,0.347-4.297c-0.003-0.97-0.057-1.866-0.145-2.665 c-0.092-0.841-0.212-1.546-0.328-2.08c-0.001-0.005,0.001-0.009,0-0.014c-0.001-0.005,0.001-0.009,0-0.014 c-0.001-0.004,0.001-0.009,0-0.013c-0.001-0.004,0.001-0.009,0-0.013c-0.001-0.004,0.001-0.009,0-0.013 c-0.001-0.004,0.001-0.009,0-0.013c-0.001-0.004,0.001-0.009,0-0.013c-0.001-0.004,0.001-0.008,0-0.013 c-0.001-0.004,0.001-0.008,0-0.012s0.001-0.008,0-0.012c-0.001-0.004,0.001-0.008,0-0.012c-0.001-0.004,0.001-0.008,0-0.012 c-0.001-0.004,0.001-0.008,0-0.012c-0.001-0.004,0.001-0.008,0-0.012c-0.001-0.004,0.001-0.008,0-0.011 c-0.001-0.004,0.001-0.008,0-0.011s0.001-0.007,0-0.011c-0.001-0.004,0.001-0.007,0-0.011c-0.001-0.004,0.001-0.007,0-0.011 s0.001-0.007,0-0.011c-0.001-0.003,0.001-0.007,0-0.01c-0.001-0.003,0.001-0.007,0-0.01c-0.001-0.003,0.001-0.007,0-0.01 c-0.001-0.003,0.001-0.007,0-0.01s0.001-0.006,0-0.01c-0.001-0.003,0.001-0.006,0-0.009c-0.001-0.003,0.001-0.006,0-0.009 c-0.001-0.003,0.001-0.006,0-0.009c-0.001-0.003,0.001-0.006,0-0.009c-0.001-0.003,0.001-0.006,0.001-0.009 c-0.001-0.003,0.001-0.006,0.001-0.009c-0.001-0.003,0.001-0.006,0.001-0.008c-0.001-0.003,0.001-0.006,0.001-0.008 s0.001-0.005,0.001-0.008s0.001-0.005,0.001-0.008c-0.001-0.003,0.001-0.005,0.001-0.008c-0.001-0.003,0.001-0.005,0.001-0.008 c-0.001-0.002,0.001-0.005,0.001-0.007c-0.001-0.002,0.001-0.005,0.001-0.007c-0.001-0.002,0.001-0.005,0.001-0.007 c-0.001-0.002,0.001-0.005,0.001-0.007c-0.001-0.002,0.001-0.004,0.001-0.007s0.001-0.004,0.001-0.006 c-0.011-0.048,0.037-0.08,0.032-0.095c0,0,0.001-0.001,0.001-0.001c0,0,0.001-0.001,0.001-0.001c0,0,0.001-0.001,0.001-0.001 c0,0,0.001-0.001,0.001-0.001c0,0,0.001-0.001,0.001-0.001c0,0,0.001-0.001,0.001-0.001c0,0,0.002-0.001,0.001-0.001 c0,0,0.002-0.001,0.001-0.001c0,0,0.002,0,0.001-0.001c0,0,0.002,0,0.002-0.001c0,0,0.002,0,0.002-0.001c0,0,0.002,0,0.002,0 c0,0,0.002,0,0.002,0C26.492,15.674,26.494,15.674,26.494,15.674z"/><path fill="#9e7824" d="M26.485,15.692h0.003h0.003h0.003h0.003h0.003h0.003h0.003h0.003h0.004h0.004h0.004h0.004h0.005 h0.005h0.005h0.006h0.006h0.007h0.008h0.009h0.011h0.013h0.015h0.019h0.024h0.032h0.044h0.063h0.062 c0.018,0.065,0.42,1.018,0.729,2.689c0.086,0.467,0.164,0.989,0.225,1.563c0.152,1.443,0.194,3.213-0.034,5.245 c-0.207,1.862-0.615,3.507-1.061,4.853c-0.287,0.823-0.552,1.418-0.954,1.418c-0.284,0-1.473-0.174-1.507-0.216 c-0.012-0.019,0.031-0.1,0.114-0.226c0.191-0.287,0.504-0.791,0.839-1.469c0.117-0.236,0.237-0.492,0.355-0.767 c0.415-0.965,0.814-2.163,1.026-3.519c0.231-1.509,0.332-2.955,0.33-4.282c-0.005-0.97-0.06-1.862-0.147-2.653 c-0.092-0.845-0.211-1.547-0.323-2.072c-0.001-0.005,0-0.01-0.001-0.014c-0.001-0.005,0-0.009-0.001-0.014 c-0.001-0.005,0-0.009-0.001-0.014c-0.001-0.005,0-0.009-0.001-0.014c-0.001-0.005,0-0.009-0.001-0.014s0-0.009-0.001-0.013 s0-0.009-0.001-0.013s0-0.009-0.001-0.013c-0.001-0.004,0-0.009,0-0.013c-0.001-0.004,0-0.009,0-0.013 c-0.001-0.004,0-0.008,0-0.013c-0.001-0.004,0-0.008,0-0.012c-0.001-0.004,0-0.008,0-0.012c-0.001-0.004,0-0.008,0-0.012 c-0.001-0.004,0-0.008,0-0.012s0-0.008,0-0.012c-0.001-0.004,0.001-0.008,0-0.012c-0.001-0.004,0.001-0.008,0-0.011 s0.001-0.007,0-0.011c-0.001-0.004,0.001-0.007,0-0.011c-0.001-0.004,0.001-0.007,0-0.011c-0.001-0.004,0.001-0.007,0-0.011 c-0.001-0.004,0.001-0.007,0-0.01c-0.001-0.003,0.001-0.007,0-0.01s0.001-0.007,0-0.01c-0.001-0.003,0.001-0.007,0-0.01 c-0.001-0.003,0.001-0.006,0-0.01c-0.001-0.003,0.001-0.006,0-0.01c-0.001-0.003,0.001-0.006,0-0.009 c-0.001-0.003,0.001-0.006,0-0.009c-0.001-0.003,0.001-0.006,0-0.009c-0.001-0.003,0.001-0.006,0-0.009 c-0.001-0.003,0.001-0.006,0-0.009c-0.001-0.003,0.001-0.006,0-0.008c-0.001-0.003,0.001-0.006,0-0.008 c-0.001-0.003,0.001-0.005,0-0.008c-0.001-0.003,0.001-0.005,0-0.008c-0.001-0.003,0.001-0.005,0-0.008 c-0.001-0.003,0.001-0.005,0-0.007c-0.001-0.002,0.001-0.005,0-0.007c-0.001-0.002,0.001-0.005,0-0.007 c-0.001-0.002,0.001-0.005,0.001-0.007c-0.001-0.002,0.001-0.004,0.001-0.007c-0.012-0.049,0.028-0.083,0.024-0.099 c0,0,0.001-0.001,0.001-0.001c0,0,0.001-0.001,0.001-0.001c0,0,0.001-0.001,0.001-0.001c0,0,0.001-0.001,0.001-0.001 c0,0,0.001-0.001,0.001-0.001c0,0,0.001-0.001,0.001-0.001s0.001-0.001,0.001-0.001c0,0,0.001-0.001,0.001-0.001 c0,0,0.001,0,0.001-0.001c0,0,0.001,0,0.001-0.001c0,0,0.001,0,0.001-0.001c0,0,0.001,0,0.001,0c0,0,0.001,0,0.001,0 C26.483,15.692,26.485,15.692,26.485,15.692z"/><path fill="#9e7925" d="M26.476,15.709h0.002h0.002h0.003h0.003h0.003h0.003h0.003h0.003h0.003h0.004h0.004h0.004h0.004 h0.005h0.005h0.006h0.006h0.007h0.008h0.009h0.011h0.013h0.015h0.019h0.025h0.033h0.045h0.065h0.064 c0.019,0.067,0.413,1.026,0.715,2.698c0.084,0.468,0.161,0.991,0.22,1.566c0.148,1.447,0.186,3.22-0.047,5.251 c-0.211,1.855-0.619,3.47-1.049,4.761c-0.298,0.854-0.568,1.443-0.904,1.443c-0.236,0-1.451-0.167-1.48-0.202 c-0.01-0.017,0.035-0.096,0.119-0.223c0.188-0.283,0.5-0.785,0.835-1.464c0.116-0.235,0.234-0.49,0.352-0.764 c0.411-0.962,0.805-2.157,1.01-3.51c0.225-1.512,0.317-2.953,0.312-4.266c-0.007-0.97-0.063-1.858-0.148-2.641 c-0.092-0.848-0.211-1.548-0.319-2.063c-0.001-0.005,0-0.01-0.001-0.015c-0.001-0.005,0-0.01-0.001-0.015 c-0.001-0.005,0-0.01-0.001-0.014c-0.001-0.005,0-0.01-0.001-0.014c-0.001-0.005,0-0.009-0.001-0.014 c-0.001-0.005,0-0.009-0.001-0.014s0-0.009-0.001-0.014c-0.001-0.005,0-0.009-0.001-0.014s0-0.009-0.001-0.013 c-0.001-0.004,0-0.009-0.001-0.013c-0.001-0.004,0-0.009-0.001-0.013c-0.001-0.004,0-0.009-0.001-0.013 c-0.001-0.004,0-0.008-0.001-0.013c-0.001-0.004,0-0.008-0.001-0.013s0-0.008-0.001-0.012c-0.001-0.004,0-0.008-0.001-0.012 c-0.001-0.004,0-0.008-0.001-0.012c-0.001-0.004,0-0.008-0.001-0.012c-0.001-0.004,0-0.008-0.001-0.012 c-0.001-0.004,0-0.008-0.001-0.011c-0.001-0.004,0-0.007-0.001-0.011c-0.001-0.004,0-0.007-0.001-0.011 c-0.001-0.004,0-0.007-0.001-0.011s0-0.007-0.001-0.011c-0.001-0.004,0-0.007-0.001-0.01c-0.001-0.003,0-0.007,0-0.01 c-0.001-0.003,0-0.007,0-0.01s0-0.007,0-0.01c-0.001-0.003,0-0.006,0-0.01c-0.001-0.003,0-0.006,0-0.009 c-0.001-0.003,0-0.006,0-0.009c-0.001-0.003,0-0.006,0-0.009c-0.001-0.003,0-0.006,0-0.009c-0.001-0.003,0-0.006,0-0.009 c-0.001-0.003,0-0.006,0-0.009s0-0.006,0-0.008c-0.001-0.003,0.001-0.005,0-0.008c-0.001-0.003,0.001-0.005,0-0.008 c-0.001-0.003,0.001-0.005,0-0.008c-0.001-0.003,0.001-0.005,0-0.008c-0.001-0.002,0.001-0.005,0-0.007 c-0.001-0.002,0.001-0.005,0-0.007c-0.001-0.002,0.001-0.005,0-0.007c-0.012-0.051,0.019-0.086,0.015-0.103 c0-0.001,0.001-0.001,0.001-0.001c0,0,0.001-0.001,0.001-0.001c0,0,0.001-0.001,0.001-0.001c0,0,0.001-0.001,0.001-0.001 c0,0,0.001-0.001,0.001-0.001c0,0,0.001-0.001,0.001-0.001c0,0,0.001-0.001,0.001-0.001c0,0,0.001-0.001,0.001-0.001 c0,0,0.001,0,0.001-0.001c0,0,0.001,0,0.001-0.001c0,0,0.001,0,0.001-0.001c0,0,0.001,0,0.001,0c0,0,0.001,0,0.001,0 C26.475,15.709,26.476,15.709,26.476,15.709z"/><path fill="#9f7a25" d="M26.468,15.726h0.002h0.002h0.002h0.002h0.003h0.003h0.003h0.003h0.003h0.003h0.004h0.004h0.004 h0.005h0.005h0.006h0.006h0.007h0.008h0.009h0.011h0.013h0.016h0.02h0.026h0.034h0.047h0.067h0.066 c0.02,0.07,0.407,1.035,0.702,2.707c0.082,0.469,0.157,0.993,0.214,1.569c0.144,1.451,0.178,3.227-0.059,5.258 c-0.214,1.848-0.622,3.433-1.037,4.668c-0.309,0.886-0.584,1.468-0.853,1.468c-0.189,0-1.429-0.16-1.452-0.188 c-0.007-0.014,0.039-0.092,0.124-0.22c0.185-0.278,0.496-0.779,0.83-1.458c0.115-0.233,0.232-0.488,0.349-0.761 c0.407-0.958,0.797-2.151,0.994-3.502c0.218-1.515,0.303-2.951,0.294-4.251c-0.009-0.97-0.066-1.855-0.15-2.628 c-0.092-0.852-0.21-1.549-0.314-2.055c-0.001-0.005-0.001-0.01-0.002-0.015c-0.001-0.005-0.001-0.01-0.002-0.015 c-0.001-0.005-0.001-0.01-0.002-0.015c-0.001-0.005-0.001-0.01-0.002-0.015c-0.001-0.005-0.001-0.01-0.001-0.015 c-0.001-0.005-0.001-0.01-0.001-0.014c-0.001-0.005,0-0.01-0.001-0.014c-0.001-0.005,0-0.009-0.001-0.014 c-0.001-0.005,0-0.009-0.001-0.014c-0.001-0.005,0-0.009-0.001-0.014s0-0.009-0.001-0.014c-0.001-0.004,0-0.009-0.001-0.013 c-0.001-0.004,0-0.009-0.001-0.013c-0.001-0.004,0-0.009-0.001-0.013c-0.001-0.004,0-0.009-0.001-0.013s0-0.008-0.001-0.013 s0-0.008-0.001-0.012c-0.001-0.004,0-0.008-0.001-0.012c-0.001-0.004,0-0.008-0.001-0.012c-0.001-0.004,0-0.008-0.001-0.012 c-0.001-0.004,0-0.008-0.001-0.012c-0.001-0.004,0-0.008-0.001-0.011s0-0.008-0.001-0.011c-0.001-0.004,0-0.007-0.001-0.011 c-0.001-0.004,0-0.007-0.001-0.011c-0.001-0.004,0-0.007-0.001-0.011c-0.001-0.004,0-0.007-0.001-0.01s0-0.007-0.001-0.01 s0-0.007-0.001-0.01c-0.001-0.003,0-0.007-0.001-0.01c-0.001-0.003,0-0.006-0.001-0.01c-0.001-0.003,0-0.006-0.001-0.009 c-0.001-0.003,0-0.006-0.001-0.009c-0.001-0.003,0-0.006-0.001-0.009c-0.001-0.003,0-0.006-0.001-0.009 c-0.001-0.003,0-0.006-0.001-0.009c-0.001-0.003,0-0.006-0.001-0.008c-0.001-0.003,0-0.006,0-0.008 c-0.001-0.003,0-0.005,0-0.008c-0.001-0.003,0-0.005,0-0.008c-0.001-0.003,0-0.005,0-0.008c-0.001-0.003,0-0.005,0-0.007 s0-0.005,0-0.007c-0.013-0.053,0.01-0.089,0.006-0.107c0-0.001,0.001-0.001,0.001-0.002c0,0,0.001-0.001,0.001-0.001 c0,0,0.001-0.001,0.001-0.001c0,0,0.001-0.001,0.001-0.001c0,0,0.001-0.001,0.001-0.001c0,0,0.001-0.001,0.001-0.001 c0,0,0.001-0.001,0.001-0.001c0,0,0.001-0.001,0.001-0.001c0,0,0.001-0.001,0.001-0.001c0,0,0.001,0,0.001-0.001 c0,0,0.001,0,0.001-0.001c0,0,0.001,0,0.001,0C26.466,15.727,26.467,15.727,26.468,15.726 C26.467,15.726,26.468,15.726,26.468,15.726z"/><path fill="#a07b26" d="M26.459,15.744h0.002h0.002h0.002h0.002h0.002h0.003h0.003h0.003h0.003h0.003h0.004h0.004h0.004 H26.5h0.005h0.006h0.006h0.007h0.008h0.009h0.011h0.013h0.016h0.02h0.026h0.035h0.048h0.069h0.069 c0.02,0.072,0.4,1.043,0.688,2.717c0.08,0.47,0.153,0.995,0.209,1.571c0.14,1.455,0.169,3.235-0.071,5.265 c-0.217,1.841-0.625,3.397-1.025,4.576c-0.32,0.917-0.6,1.494-0.802,1.494c-0.142,0-1.407-0.153-1.424-0.174 c-0.005-0.011,0.043-0.087,0.129-0.217c0.182-0.274,0.492-0.773,0.825-1.453c0.114-0.232,0.23-0.485,0.346-0.757 c0.404-0.955,0.789-2.144,0.979-3.493c0.211-1.518,0.288-2.949,0.277-4.235c-0.01-0.971-0.069-1.851-0.152-2.616 c-0.092-0.855-0.209-1.551-0.31-2.046c-0.001-0.005-0.001-0.011-0.002-0.016c-0.001-0.005-0.001-0.011-0.002-0.016 c-0.001-0.005-0.001-0.01-0.002-0.016c-0.001-0.005-0.001-0.01-0.002-0.015c-0.001-0.005-0.001-0.01-0.002-0.015 c-0.001-0.005-0.001-0.01-0.002-0.015c-0.001-0.005-0.001-0.01-0.002-0.015c-0.001-0.005-0.001-0.01-0.002-0.015 s-0.001-0.01-0.002-0.014c-0.001-0.005-0.001-0.01-0.002-0.014s-0.001-0.009-0.002-0.014c-0.001-0.005-0.001-0.009-0.002-0.014 c-0.001-0.005-0.001-0.009-0.002-0.014c-0.001-0.005-0.001-0.009-0.002-0.013c-0.001-0.004-0.001-0.009-0.002-0.013 c-0.001-0.004-0.001-0.009-0.002-0.013c-0.001-0.004-0.001-0.009-0.002-0.013c-0.001-0.004-0.001-0.008-0.002-0.013 c-0.001-0.004-0.001-0.008-0.002-0.012c-0.001-0.004-0.001-0.008-0.002-0.012c-0.001-0.004-0.001-0.008-0.002-0.012 c-0.001-0.004-0.001-0.008-0.001-0.012c-0.001-0.004-0.001-0.008-0.001-0.012c-0.001-0.004-0.001-0.008-0.001-0.011 c-0.001-0.004-0.001-0.008-0.001-0.011c-0.001-0.004-0.001-0.007-0.001-0.011c-0.001-0.004-0.001-0.007-0.001-0.011 c-0.001-0.004-0.001-0.007-0.001-0.011c-0.001-0.003,0-0.007-0.001-0.01c-0.001-0.003,0-0.007-0.001-0.01 c-0.001-0.003,0-0.007-0.001-0.01c-0.001-0.003,0-0.007-0.001-0.01s0-0.006-0.001-0.01s0-0.006-0.001-0.009 c-0.001-0.003,0-0.006-0.001-0.009s0-0.006-0.001-0.009s0-0.006-0.001-0.009c-0.001-0.003,0-0.006-0.001-0.009 c-0.001-0.003,0-0.006-0.001-0.008c-0.001-0.003,0-0.005-0.001-0.008s0-0.005-0.001-0.008c-0.001-0.003,0-0.005-0.001-0.008 s0-0.005-0.001-0.007c-0.013-0.055,0.002-0.092-0.003-0.111c0-0.001,0-0.001,0-0.002c0-0.001,0-0.001,0-0.002 c0,0,0-0.001,0-0.001c0,0,0-0.001,0-0.001c0,0,0.001-0.001,0-0.001c0,0,0.001-0.001,0-0.001c0,0,0.001-0.001,0-0.001 c0,0,0.001-0.001,0-0.001c0,0,0.001-0.001,0.001-0.001c0,0,0.001,0,0.001-0.001c0,0,0.001,0,0.001-0.001c0,0,0.001,0,0.001,0 C26.458,15.744,26.458,15.744,26.459,15.744C26.458,15.744,26.459,15.744,26.459,15.744z"/><path fill="#a17c27" d="M26.45,15.761h0.002h0.002h0.002h0.002h0.002h0.002h0.003h0.003h0.003h0.003h0.003h0.004h0.004 h0.004h0.005H26.5h0.006h0.007h0.008h0.009h0.011h0.014h0.016h0.021h0.027h0.036h0.05h0.071h0.071 c0.021,0.075,0.394,1.051,0.674,2.726c0.078,0.471,0.15,0.997,0.203,1.574c0.136,1.46,0.161,3.242-0.084,5.271 c-0.22,1.833-0.629,3.36-1.013,4.483c-0.331,0.949-0.617,1.519-0.751,1.519c-0.095,0-1.385-0.146-1.397-0.16 c-0.003-0.009,0.047-0.083,0.134-0.214c0.179-0.269,0.488-0.767,0.821-1.448c0.113-0.231,0.228-0.483,0.342-0.754 c0.4-0.951,0.781-2.138,0.963-3.484c0.204-1.522,0.274-2.947,0.259-4.22c-0.012-0.971-0.072-1.847-0.153-2.603 c-0.092-0.859-0.208-1.552-0.305-2.038c-0.001-0.006-0.001-0.011-0.002-0.017c-0.001-0.005-0.001-0.011-0.002-0.016 c-0.001-0.005-0.001-0.011-0.002-0.016c-0.001-0.005-0.001-0.011-0.002-0.016c-0.001-0.005-0.001-0.011-0.002-0.016 c-0.001-0.005-0.001-0.01-0.002-0.016c-0.001-0.005-0.001-0.01-0.002-0.015s-0.001-0.01-0.002-0.015 c-0.001-0.005-0.001-0.01-0.002-0.015c-0.001-0.005-0.001-0.01-0.002-0.015c-0.001-0.005-0.001-0.01-0.002-0.015 c-0.001-0.005-0.001-0.01-0.002-0.014c-0.001-0.005-0.001-0.009-0.002-0.014s-0.001-0.009-0.002-0.014 c-0.001-0.005-0.001-0.009-0.002-0.014c-0.001-0.005-0.001-0.009-0.002-0.013c-0.001-0.004-0.001-0.009-0.002-0.013 c-0.001-0.004-0.001-0.009-0.002-0.013c-0.001-0.004-0.001-0.009-0.002-0.013c-0.001-0.004-0.001-0.008-0.002-0.013 c-0.001-0.004-0.001-0.008-0.002-0.012c-0.001-0.004-0.001-0.008-0.002-0.012s-0.001-0.008-0.002-0.012 s-0.001-0.008-0.002-0.012c-0.001-0.004-0.001-0.008-0.002-0.012c-0.001-0.004-0.001-0.008-0.002-0.011 c-0.001-0.004-0.001-0.007-0.002-0.011c-0.001-0.004-0.001-0.007-0.002-0.011c-0.001-0.004-0.001-0.007-0.002-0.011 c-0.001-0.004-0.001-0.007-0.002-0.01c-0.001-0.003-0.001-0.007-0.002-0.01c-0.001-0.003-0.001-0.007-0.002-0.01 s-0.001-0.007-0.002-0.01c-0.001-0.003-0.001-0.006-0.001-0.01c-0.001-0.003-0.001-0.006-0.001-0.009 c-0.001-0.003-0.001-0.006-0.001-0.009c-0.001-0.003-0.001-0.006-0.001-0.009c-0.001-0.003-0.001-0.006-0.001-0.009 c-0.001-0.003-0.001-0.006-0.001-0.009c-0.001-0.003-0.001-0.006-0.001-0.008c-0.001-0.003-0.001-0.005-0.001-0.008 s-0.001-0.005-0.001-0.008c-0.001-0.003-0.001-0.005-0.001-0.008c-0.013-0.057-0.007-0.095-0.012-0.114 c0-0.001,0-0.001,0-0.002c0-0.001,0-0.001,0-0.002c0,0,0-0.001,0-0.001s0-0.001,0-0.001c0,0,0-0.001,0-0.001 c0,0,0-0.001,0-0.001s0-0.001,0-0.001c0,0,0-0.001,0-0.001c0,0,0-0.001,0-0.001c0,0,0,0,0-0.001c0,0,0,0,0-0.001 C26.449,15.762,26.45,15.762,26.45,15.761C26.449,15.762,26.45,15.761,26.45,15.761C26.45,15.761,26.45,15.761,26.45,15.761z"/><path fill="#a27d27" d="M26.442,15.778h0.002h0.002h0.002h0.002h0.002h0.002h0.002h0.003h0.003h0.003h0.003h0.004h0.004 h0.004h0.005h0.005h0.006h0.007h0.008h0.009h0.011h0.014h0.017h0.021h0.027h0.036h0.051h0.074h0.073 c0.022,0.077,0.388,1.06,0.66,2.735c0.077,0.472,0.146,0.999,0.198,1.576c0.132,1.464,0.153,3.249-0.096,5.278 c-0.223,1.826-0.632,3.323-1.001,4.391c-0.342,0.981-0.633,1.545-0.7,1.545c-0.047,0-1.363-0.139-1.369-0.146 c0-0.006,0.051-0.079,0.138-0.211c0.176-0.265,0.484-0.761,0.816-1.443c0.112-0.23,0.226-0.481,0.339-0.751 c0.396-0.948,0.773-2.132,0.947-3.475c0.197-1.525,0.259-2.945,0.241-4.204c-0.014-0.971-0.075-1.843-0.155-2.591 c-0.092-0.862-0.207-1.553-0.301-2.029c-0.001-0.006-0.002-0.011-0.003-0.017c-0.001-0.006-0.002-0.011-0.003-0.017 c-0.001-0.006-0.002-0.011-0.003-0.017c-0.001-0.006-0.002-0.011-0.003-0.016c-0.001-0.005-0.002-0.011-0.003-0.016 c-0.001-0.005-0.002-0.011-0.003-0.016s-0.002-0.011-0.003-0.016c-0.001-0.005-0.002-0.01-0.003-0.016 c-0.001-0.005-0.002-0.01-0.003-0.015s-0.002-0.01-0.003-0.015c-0.001-0.005-0.002-0.01-0.003-0.015 c-0.001-0.005-0.002-0.01-0.003-0.015c-0.001-0.005-0.002-0.01-0.003-0.015c-0.001-0.005-0.002-0.01-0.003-0.014 c-0.001-0.005-0.002-0.009-0.003-0.014s-0.002-0.009-0.003-0.014c-0.001-0.005-0.002-0.009-0.003-0.014 s-0.002-0.009-0.002-0.014s-0.002-0.009-0.002-0.013s-0.002-0.009-0.002-0.013c-0.001-0.004-0.001-0.009-0.002-0.013 c-0.001-0.004-0.001-0.008-0.002-0.013c-0.001-0.004-0.001-0.008-0.002-0.012c-0.001-0.004-0.001-0.008-0.002-0.012 c-0.001-0.004-0.001-0.008-0.002-0.012c-0.001-0.004-0.001-0.008-0.002-0.012c-0.001-0.004-0.001-0.008-0.002-0.012 s-0.001-0.008-0.002-0.011c-0.001-0.004-0.001-0.007-0.002-0.011c-0.001-0.004-0.001-0.007-0.002-0.011 c-0.001-0.004-0.001-0.007-0.002-0.011s-0.001-0.007-0.002-0.01s-0.001-0.007-0.002-0.01s-0.001-0.007-0.002-0.01 c-0.001-0.003-0.001-0.007-0.002-0.01c-0.001-0.003-0.001-0.006-0.002-0.01s-0.001-0.006-0.002-0.009 c-0.001-0.003-0.001-0.006-0.002-0.009c-0.001-0.003-0.001-0.006-0.002-0.009c-0.001-0.003-0.001-0.006-0.002-0.009 c-0.001-0.003-0.001-0.006-0.002-0.008s-0.001-0.006-0.002-0.008c-0.001-0.003-0.001-0.005-0.002-0.008 c-0.014-0.059-0.016-0.099-0.021-0.118c0-0.001,0-0.001,0-0.002c0-0.001,0-0.001,0-0.002c0-0.001,0-0.001,0-0.001 s0-0.001,0-0.001c0,0,0-0.001,0-0.001c0,0,0-0.001,0-0.001c0,0,0-0.001,0-0.001c0,0,0-0.001,0-0.001c0,0,0-0.001,0-0.001 c0,0,0-0.001,0-0.001c0,0,0,0,0-0.001C26.441,15.779,26.441,15.779,26.442,15.778C26.441,15.779,26.442,15.779,26.442,15.778 C26.441,15.779,26.442,15.778,26.442,15.778z"/><path fill="#a37e28" d="M25.933,31.272l-1.341-0.131c0.006-0.01,0.454-0.614,0.954-1.646 c0.5-1.032,1.053-2.492,1.268-4.214c0.339-2.719,0.246-5.081,0.068-6.768s-0.443-2.698-0.449-2.717h0.408 c0.022,0.08,0.381,1.068,0.646,2.744c0.265,1.675,0.436,4.037,0.084,6.864c-0.226,1.819-0.636,3.286-0.989,4.299 S25.933,31.272,25.933,31.272z"/><radialGradient id="RRORJgWmIVN62AxvcGnqgd" cx="23.326" cy="13.029" r="18.376" gradientUnits="userSpaceOnUse"><stop offset=".305" stop-color="#5e410c"/><stop offset=".331" stop-color="#5e410c" stop-opacity="0"/><stop offset=".489" stop-color="#5e410c"/><stop offset=".529" stop-color="#5e410c" stop-opacity="0"/><stop offset=".67" stop-color="#5e410c"/><stop offset=".704" stop-color="#5e410c" stop-opacity="0"/><stop offset=".855" stop-color="#5e410c"/><stop offset=".894" stop-color="#5e410c" stop-opacity="0"/><stop offset="1" stop-color="#5e410c"/></radialGradient><path fill="url(#RRORJgWmIVN62AxvcGnqgd)" d="M26.946,15.24h-0.008h-0.008h-0.008h-0.008h-0.008h-0.008h-0.008h-0.008h-0.008H26.87 h-0.008h-0.008h-0.008H26.84h-0.008h-0.008h-0.008h-0.008h-0.008h-0.008h-0.008h-0.008h-0.008h-0.008h-0.008h-0.008h-0.008 h-0.008h-0.008h-0.008H26.71h-0.008h-0.008h-0.008H26.68h-0.008h-0.008h-0.008h-0.008h-0.008h-0.008h-0.008h-0.008h-0.255h-0.011 h-0.011H26.33h-0.011h-0.011h-0.011h-0.011h-0.011h-0.011h-0.011h-0.011h-0.011h-0.011h-0.011h-0.011h-0.011h-0.011H26.16h-0.011 h-0.011h-0.011h-0.011h-0.011h-0.011h-0.011h-0.011h-0.011h-0.011h-0.011h-0.011h-0.011h-0.011H25.99h-0.011h-0.011h-0.011 h-0.011h-0.011h-0.011h-0.011h-0.011h-0.011h-0.011c1.923,7.256-1.545,13.891-3.076,16.153c-0.063,0.094-0.062,0.212,0.009,0.3 c0.184,0.224,0.715,0.584,2.228,0.584c2.147,0,2.279-0.758,2.279-0.758C30.711,20.343,26.946,15.24,26.946,15.24z"/><radialGradient id="RRORJgWmIVN62AxvcGnqge" cx="88.899" cy="8.704" r="13.25" gradientTransform="matrix(-1.1967 0 0 1.0724 132.837 6.08)" gradientUnits="userSpaceOnUse"><stop offset="0" stop-color="#253808"/><stop offset=".155" stop-color="#57801a"/><stop offset=".402" stop-color="#70a622"/><stop offset=".536" stop-color="#7ab525"/><stop offset=".658" stop-color="#77b024"/><stop offset=".793" stop-color="#6ea321"/><stop offset=".933" stop-color="#608d1d"/><stop offset="1" stop-color="#57801a"/></radialGradient><path fill="url(#RRORJgWmIVN62AxvcGnqge)" d="M26.642,15.588c-0.451,0-1.171-0.851-3.24-2.673c-0.158-0.139,0.6-0.763,0.425-0.913 c-0.171-0.148-1.275,0.177-1.463,0.018c-0.121-0.103-0.246-0.207-0.374-0.315c-0.447-0.374-0.73-0.591-1.287-0.945 c-0.228-0.145,1.14-1.113,0.718-1.373c-0.421-0.26-2.018,0.584-2.568,0.279c-0.481-0.267-0.51-0.305-1.076-0.561 c-0.178-0.08,0.57-0.672,0.397-0.747c-0.186-0.081-1.261,0.265-1.448,0.257c-1.074-0.047-1.991-0.787-1.991-0.787 s5.267-2.481,9.203,1.15C26.701,11.523,26.677,13.522,26.642,15.588z"/><radialGradient id="RRORJgWmIVN62AxvcGnqgf" cx="-25.229" cy="-346.196" r="13.25" gradientTransform="matrix(-.3358 1.1486 1.0293 .3009 374.924 148.696)" gradientUnits="userSpaceOnUse"><stop offset="0" stop-color="#253808"/><stop offset=".285" stop-color="#57801a"/><stop offset=".448" stop-color="#70a622"/><stop offset=".536" stop-color="#7ab525"/><stop offset=".658" stop-color="#77b024"/><stop offset=".793" stop-color="#6ea321"/><stop offset=".933" stop-color="#608d1d"/><stop offset="1" stop-color="#57801a"/></radialGradient><path fill="url(#RRORJgWmIVN62AxvcGnqgf)" d="M27.259,15.413c-0.13,0.444-1.19,0.928-3.669,2.483c-0.223,0.14-0.355-0.711-0.504-0.614 c-0.132,0.086-0.342,1.153-0.481,1.244c-0.169,0.111-0.199,0.141-0.379,0.262c-0.484,0.324-0.773,0.535-1.268,0.97 c-0.203,0.178-0.749-1.407-1.116-1.075c-0.367,0.331-0.005,2.101-0.452,2.543c-0.318,0.314-0.529,0.487-0.862,0.869 c-0.132,0.151-0.501-0.512-0.622-0.356c-0.202,0.259-0.128,1.282-0.237,1.414c-0.68,0.824-1.198,1.509-1.198,1.509 s-0.904-5.751,3.686-8.511C23.374,14.216,25.286,14.8,27.259,15.413z"/><radialGradient id="RRORJgWmIVN62AxvcGnqgg" cx="150.138" cy="-16.981" r="14.78" gradientTransform="scale(-1 1) rotate(5.774 -262.985 -1751.293)" gradientUnits="userSpaceOnUse"><stop offset="0" stop-color="#253808"/><stop offset=".155" stop-color="#57801a"/><stop offset=".402" stop-color="#70a622"/><stop offset=".536" stop-color="#7ab525"/><stop offset=".658" stop-color="#77b024"/><stop offset=".793" stop-color="#6ea321"/><stop offset=".933" stop-color="#608d1d"/><stop offset="1" stop-color="#57801a"/></radialGradient><path fill="url(#RRORJgWmIVN62AxvcGnqgg)" d="M29.565,9.097c4.189-3.084,8.553,0.229,8.553,0.229s-1.732,0.342-3.3,0.983 c-0.551,0.226-1.891-0.743-2.318-0.544c-0.426,0.199,0.421,1.39,0.189,1.502c-0.565,0.274-1.347,0.58-1.816,0.89 c-0.305,0.202-1.142-0.667-1.405-0.475c-0.204,0.15,0.32,1.181-0.024,1.503c-1.985,1.861-2.747,2.825-3.41,2.715 C26.355,13.801,26.627,11.26,29.565,9.097z"/><radialGradient id="RRORJgWmIVN62AxvcGnqgh" cx="108.323" cy="89.601" r="15.742" gradientTransform="scale(-1 1) rotate(-14.022 -263.74 599.421)" gradientUnits="userSpaceOnUse"><stop offset="0" stop-color="#253808"/><stop offset=".155" stop-color="#57801a"/><stop offset=".402" stop-color="#70a622"/><stop offset=".536" stop-color="#7ab525"/><stop offset=".658" stop-color="#77b024"/><stop offset=".793" stop-color="#6ea321"/><stop offset=".933" stop-color="#608d1d"/><stop offset="1" stop-color="#57801a"/></radialGradient><path fill="url(#RRORJgWmIVN62AxvcGnqgh)" d="M33.122,18.687c2.819,4.696-0.801,7.874-0.801,7.874s-0.103-0.548-0.301-1.365 c-0.032-0.132,0.283-0.898,0.246-1.043c-0.03-0.118-0.488,0.093-0.521-0.032c-0.087-0.325-0.109-0.378-0.217-0.736 c-0.182-0.6,0.798-1.8,0.631-2.267c-0.167-0.467-1.121,0.757-1.216,0.503c-0.231-0.619-0.488-1.218-0.768-1.74 c-0.085-0.159-0.17-0.31-0.254-0.455c-0.109-0.186,0.32-1.351,0.212-1.516c-0.117-0.179-0.77,0.644-0.885,0.488 c-1.623-2.207-2.979-2.216-2.739-3.18C28.714,15.77,31.607,16.163,33.122,18.687z"/><radialGradient id="RRORJgWmIVN62AxvcGnqgi" cx="113.216" cy="-145.883" r="15.742" gradientTransform="matrix(-.991 .5389 .5173 .9512 213.53 92.686)" gradientUnits="userSpaceOnUse"><stop offset="0" stop-color="#253808"/><stop offset=".155" stop-color="#57801a"/><stop offset=".402" stop-color="#70a622"/><stop offset=".536" stop-color="#7ab525"/><stop offset=".658" stop-color="#77b024"/><stop offset=".793" stop-color="#6ea321"/><stop offset=".933" stop-color="#608d1d"/><stop offset="1" stop-color="#57801a"/></radialGradient><path fill="url(#RRORJgWmIVN62AxvcGnqgi)" d="M34.59,12.993c5.842,1.597,5.173,6.842,5.173,6.842s-0.463-0.336-1.195-0.81 c-0.127-0.082-0.375-1.12-0.517-1.21c-0.132-0.083-0.157,0.782-0.3,0.695c-0.314-0.192-0.652-0.393-1.008-0.594 c-0.597-0.339-0.669-2.027-1.154-2.272c-0.486-0.244-0.375,1.444-0.644,1.314c-0.553-0.268-1.111-0.51-1.646-0.702 c-0.097-0.035-0.192-0.068-0.287-0.099c-0.099-0.033-0.493-1.209-0.59-1.238c-0.299-0.092-0.289,0.977-0.561,0.912 c-3.541-0.844-4.821,0.411-5.374-0.606C28.74,14.002,31.45,12.135,34.59,12.993z"/><radialGradient id="RRORJgWmIVN62AxvcGnqgj" cx="92.061" cy="60.24" r="13.64" gradientTransform="matrix(-1.1033 -.161 -.1444 .9895 137.466 -29.848)" gradientUnits="userSpaceOnUse"><stop offset="0" stop-color="#253808"/><stop offset=".155" stop-color="#57801a"/><stop offset=".402" stop-color="#70a622"/><stop offset=".536" stop-color="#7ab525"/><stop offset=".658" stop-color="#77b024"/><stop offset=".793" stop-color="#6ea321"/><stop offset=".933" stop-color="#608d1d"/><stop offset="1" stop-color="#57801a"/></radialGradient><path fill="url(#RRORJgWmIVN62AxvcGnqgj)" d="M26.686,15.256c-0.83,0.844-1.473,0.081-5.767,0.376c-0.131,0.009,0.111-0.889-0.027-0.878 c-0.215,0.018-0.784,0.815-1.009,0.846c-0.459,0.062-1.087,0.149-1.564,0.248c-0.293,0.061,0.113-1.395-0.246-1.347 c-0.531,0.118-0.934,1.512-1.597,1.691c-1.885,0.51-3.395,1.091-3.395,1.091s-0.451-4.837,5.625-5.071 c0.738-0.029,2.07,0.22,2.961,0.535C23.579,13.423,25.401,14.224,26.686,15.256z"/></svg>