<svg xmlns="http://www.w3.org/2000/svg" viewBox="0 0 48 48"><linearGradient id="W2VKB4r07gft4dRdGMLkEa" x1="28.989" x2="13.495" y1="52.416" y2="10.12" gradientUnits="userSpaceOnUse"><stop offset=".303" stop-color="#232c36"/><stop offset=".45" stop-color="#2a323e"/><stop offset=".675" stop-color="#3c4353"/><stop offset=".948" stop-color="#5a5f76"/><stop offset="1" stop-color="#60657d"/></linearGradient><path fill="url(#W2VKB4r07gft4dRdGMLkEa)" d="M19.788,17.585l4.293,5.403l-3.691-1.23l-2.434,3.115l-0.942-0.639l-2.408-1.57 l-4.063,2.391l-0.229,2.843l-3.141,5.549l-1.466,8.249h36.748l-1.806-10.291c-0.01-0.029-4.319-6.596-4.319-6.596l-1.972-4.781 l-3.42-4.694l-0.022-0.062l-0.318,1.644L27.09,14.01l-2.068,3.193l-0.682-1.182l-1.176-2.038l-2.389,1.747"/><linearGradient id="W2VKB4r07gft4dRdGMLkEb" x1="40.065" x2="17.242" y1="48.03" y2="8.665" gradientUnits="userSpaceOnUse"><stop offset="0" stop-color="#b0b4bf"/><stop offset=".263" stop-color="#abafba"/><stop offset=".588" stop-color="#9ca0ab"/><stop offset=".944" stop-color="#838793"/><stop offset="1" stop-color="#7e828e"/></linearGradient><path fill="url(#W2VKB4r07gft4dRdGMLkEb)" d="M27.692,27.204l1.78,2.945l-4.135-4.45l-0.838-2.042L27.692,27.204z M20.782,26.301l-1.989-1.021l4.764,4.292l-2.185-3.272H20.782z M26.671,16.132l1.139,3.376l3.455,3.455l-1.688-3.141l-0.982-0.903 L26.671,16.132z M31.762,20.503l1.597,3.638l1.557,1.531l-1.688-3.376L31.762,20.503z" opacity=".3"/><polygon fill="#92c932" points="41.946,38.799 34.366,36.273 27.142,39.257 17.17,34.86 6.224,38.778 5.706,41.696 42.454,41.696"/><polygon fill="#457239" points="41.946,38.799 34.366,36.273 34.332,36.287 33.856,37.353 35.053,37.902 33.542,39.355 35.793,39.78 28.87,41.024 27.172,39.245 27.142,39.257 17.17,34.86 19.526,37.739 16.961,37.686 19.447,39.414 5.884,40.695 5.706,41.696 42.454,41.696"/><linearGradient id="W2VKB4r07gft4dRdGMLkEc" x1="10.638" x2="10.638" y1="3.934" y2="33.614" gradientUnits="userSpaceOnUse"><stop offset="0" stop-color="#aeb4c4"/><stop offset=".187" stop-color="#a9afbf"/><stop offset=".418" stop-color="#9aa0b1"/><stop offset=".672" stop-color="#808899"/><stop offset=".941" stop-color="#5e6678"/><stop offset="1" stop-color="#555e70"/></linearGradient><polygon fill="url(#W2VKB4r07gft4dRdGMLkEc)" points="10.542,25.054 10.313,27.897 7.172,33.446 6.672,36.262 9.58,32.19 12.407,30.201 12.302,26.641 14.605,22.663"/><linearGradient id="W2VKB4r07gft4dRdGMLkEd" x1="22.064" x2="22.064" y1="3.934" y2="33.614" gradientUnits="userSpaceOnUse"><stop offset="0" stop-color="#aeb4c4"/><stop offset=".187" stop-color="#a9afbf"/><stop offset=".418" stop-color="#9aa0b1"/><stop offset=".672" stop-color="#808899"/><stop offset=".941" stop-color="#5e6678"/><stop offset="1" stop-color="#555e70"/></linearGradient><path fill="url(#W2VKB4r07gft4dRdGMLkEd)" d="M19.788,17.585l1.099,1.885l2.408,2.46c0.191-0.318,0.686-3.477,1.045-5.908l-1.176-2.038 l-2.389,1.747"/><linearGradient id="W2VKB4r07gft4dRdGMLkEe" x1="24.378" x2="24.378" y1="3.934" y2="33.614" gradientUnits="userSpaceOnUse"><stop offset="0" stop-color="#aeb4c4"/><stop offset=".187" stop-color="#a9afbf"/><stop offset=".418" stop-color="#9aa0b1"/><stop offset=".672" stop-color="#808899"/><stop offset=".941" stop-color="#5e6678"/><stop offset="1" stop-color="#555e70"/></linearGradient><path fill="url(#W2VKB4r07gft4dRdGMLkEe)" d="M24.414,15.52c-0.023,0.157-0.046,0.317-0.071,0.482 C24.368,15.836,24.391,15.677,24.414,15.52z"/><linearGradient id="W2VKB4r07gft4dRdGMLkEf" x1="24.695" x2="24.695" y1="3.934" y2="33.614" gradientUnits="userSpaceOnUse"><stop offset="0" stop-color="#aeb4c4"/><stop offset=".187" stop-color="#a9afbf"/><stop offset=".418" stop-color="#9aa0b1"/><stop offset=".672" stop-color="#808899"/><stop offset=".941" stop-color="#5e6678"/><stop offset="1" stop-color="#555e70"/></linearGradient><path fill="url(#W2VKB4r07gft4dRdGMLkEf)" d="M24.71,13.458c-0.009,0.061-0.018,0.126-0.029,0.204 C24.692,13.584,24.701,13.517,24.71,13.458z"/><linearGradient id="W2VKB4r07gft4dRdGMLkEg" x1="24.556" x2="24.556" y1="3.934" y2="33.614" gradientUnits="userSpaceOnUse"><stop offset="0" stop-color="#aeb4c4"/><stop offset=".187" stop-color="#a9afbf"/><stop offset=".418" stop-color="#9aa0b1"/><stop offset=".672" stop-color="#808899"/><stop offset=".941" stop-color="#5e6678"/><stop offset="1" stop-color="#555e70"/></linearGradient><path fill="url(#W2VKB4r07gft4dRdGMLkEg)" d="M24.677,13.687c-0.056,0.394-0.141,0.993-0.243,1.691 C24.537,14.673,24.622,14.079,24.677,13.687z"/><g><linearGradient id="W2VKB4r07gft4dRdGMLkEh" x1="45.282" x2="22.459" y1="45.006" y2="5.641" gradientUnits="userSpaceOnUse"><stop offset="0" stop-color="#b8c0d1"/><stop offset=".78" stop-color="#b6bfcc"/><stop offset="1" stop-color="#b5bfc9"/></linearGradient><path fill="url(#W2VKB4r07gft4dRdGMLkEh)" d="M25.022,17.204l2.068-3.193l3.507,2.905l0.318-1.644l-2.019-5.67l-3.167-3.298l-0.014,0.028 l0.643,4.068l-1.61,2.787c0,0-0.176,1.267-0.407,2.834"/><linearGradient id="W2VKB4r07gft4dRdGMLkEi" x1="36.053" x2="13.23" y1="50.356" y2="10.991" gradientUnits="userSpaceOnUse"><stop offset="0" stop-color="#b8c0d1"/><stop offset=".78" stop-color="#b6bfcc"/><stop offset="1" stop-color="#b5bfc9"/></linearGradient><polyline fill="url(#W2VKB4r07gft4dRdGMLkEi)" points="17.955,24.872 20.39,21.758 24.08,22.988 19.788,17.585 16.594,14.706 16.632,14.74 17.38,18.58 17.013,24.233"/></g><g><path fill="#e4e7ed" d="M25.714,6.332l-3.362,6.437l-1.577,2.962l2.389-1.747l1.176,2.038 c0.232-1.567,0.407-2.834,0.407-2.834l1.61-2.787L25.714,6.332z"/><polygon fill="#e4e7ed" points="17.38,18.58 16.632,14.74 16.594,14.706 10.574,24.652 10.542,25.054 14.605,22.663 17.013,24.233"/></g></svg>