<svg xmlns="http://www.w3.org/2000/svg" viewBox="0 0 48 48"><radialGradient id="Ko85QUGE7q0hQtD2HvrZAa" cx="14.765" cy="9.155" r="2.163" gradientTransform="matrix(1 0 0 1.4973 0 -4.553)" gradientUnits="userSpaceOnUse"><stop offset=".005" stop-color="#fff8ba"/><stop offset=".214" stop-color="#fed35f"/><stop offset=".424" stop-color="#fcad00"/><stop offset=".607" stop-color="#f37c00"/><stop offset=".778" stop-color="#ec5600"/><stop offset=".915" stop-color="#e83f00"/><stop offset="1" stop-color="#e63600"/></radialGradient><path fill="url(#Ko85QUGE7q0hQtD2HvrZAa)" d="M14.547,4.13c0,0,1.119,2.342,0.011,3.13c0,0,0.126-0.891-0.448-1.45 c0,1.473-0.877,1.621-0.877,2.924c0,0.857,0.645,1.321,0.687,1.321l0.934,0.195c0,0,1.687-0.435,1.687-2.286 C16.54,5.216,14.547,4.13,14.547,4.13z"/><linearGradient id="Ko85QUGE7q0hQtD2HvrZAb" x1="23.026" x2="23.026" y1="-16.137" y2="62.341" gradientUnits="userSpaceOnUse"><stop offset="0" stop-color="#99fff3"/><stop offset=".67" stop-color="#52b8b5"/><stop offset=".827" stop-color="#50b6b3"/><stop offset=".883" stop-color="#49afad"/><stop offset=".924" stop-color="#3ea4a3"/><stop offset=".956" stop-color="#2d9395"/><stop offset=".984" stop-color="#187d82"/><stop offset="1" stop-color="#076c73"/></linearGradient><path fill="url(#Ko85QUGE7q0hQtD2HvrZAb)" d="M29.17,39.363l-1.004-3.168l0.303-1.087l-0.544-1.526l0.084-0.418l-0.063-0.533l0.512-0.899 l-0.199-1.056l5.573-0.44l-5.51-0.407c0,0-0.061-0.438-0.135-0.657l4.223-1.936l-4.676,1.037 c-0.116-0.167-0.253-0.336-0.396-0.481l2.862-3.658l-3.798,2.98c-0.261-0.132-0.541-0.233-0.835-0.298l-0.789-4.244l-0.626,4.215 c-0.338,0.061-0.66,0.169-0.958,0.317l-3.796-2.971l2.852,3.651c-0.134,0.135-0.258,0.28-0.37,0.435l-3.856-0.879 c0,0,0.021-0.586-0.063-1.547c-0.084-0.962-0.711-3.366-0.711-3.366l-0.293-3.52c0.112-0.279,0.265-1.046,0.265-1.046v-1.645 c0,0-0.251-0.46-0.418-0.697c-0.167-0.237-0.335-0.878-0.335-0.878l-0.376-0.307l0.112-1.046h0.223v-0.976h1.087V9.915h-5.297 l0.035,2.379h1.161v0.66l-0.261-0.22l-0.408,0.397l0.617,1.171l-0.282,0.523l0.314,0.355l-0.188,0.45l0.366,0.408l-0.345,0.544 c0,0,0.303,1.014,0.408,1.317c0.105,0.303,0.596,0.68,0.596,0.68v2.06h0.261c0,0-0.23,4.14-0.209,5.416 c0.021,1.275,0.606,2.342,0.606,2.342l0.157,1.955c0,0-1.882,2.917-1.976,4.851c-0.094,1.934,0.972,2.603,0.972,2.603l0.586,0.125 l0.073,0.523l-0.45,0.972l1.349,1.746l-0.042,2.697h16.561l-0.91-3.419L29.17,39.363z M17.99,29.027l0.028-1.296l3.341,1.308 c-0.102,0.26-0.191,0.686-0.191,0.686l-2.147,0.223L17.99,29.027z M21.099,34.673c0,0-1.394-1.464-1.436-1.603 c-0.042-0.139,0.014-1.631,0.014-1.631l-0.293-0.39L19.3,30.574l1.938,0.112l-0.084,0.781l0.46,0.948l-0.153,0.558l0.209,0.627 L21.099,34.673z"/><polygon fill="#006064" points="24.744,33.935 24.083,33.935 24.083,34.068 24.288,34.265 24.797,34.171 25.3,34.265 25.505,34.068 25.505,33.935 24.836,33.935"/><polygon fill="#006064" points="13.414,12.295 16.429,12.313 16.426,12.777 13.414,12.767"/><path fill="#006064" d="M27.971,41.615c-0.888,0.664-1.551,1.772-1.812,2.255h1.183 C27.516,43.068,27.971,41.615,27.971,41.615z"/><path fill="#006064" d="M22.941,43.87h1.523c0.502-1.382,2.113-3.858,2.113-3.858 C24.771,40.87,23.413,43.035,22.941,43.87z"/><path fill="#006064" d="M29.17,39.363l-1.004-3.168l0.303-1.087l-0.544-1.526l0.084-0.418l-0.063-0.533l0.512-0.899 l-0.199-1.056l5.513-0.435l-5.431-0.061l-0.234,0.007c-0.202-0.987-0.902-2.857-3.213-2.857c-2.725,0-3.518,2.753-3.518,2.753 l-2.174,0.115l0.116,0.377l1.919,0.11l-0.084,0.781l0.46,0.948l-0.153,0.558l0.209,0.627l-0.572,1.073c0,0-0.009-0.01-0.01-0.011 l-0.004,0.011l2.398,3.137l1.45,0.99c0,0-3.141,1.637-5.431,5.071h1.985c0.451-0.767,2.142-3.477,4.213-4.75l4.015,1.715 l0.242,3.035h2.163l-0.91-3.419L29.17,39.363z M24.792,34.974c0,0-1.48,0.024-1.724-0.354c-0.244-0.378-0.724-1.488-0.724-1.661 c0-0.331,0.583-0.984,0.583-0.984l0.866,0.016l0.189-0.102l0.22,0.457l0.024,0.433l-0.165,0.173l0.047,0.165l0.472,0.157v0.087 l-0.37,0.008l-0.323,0.331l0.071,0.11l0.244-0.126h0.543h0.092h0.551l0.244,0.126l0.071-0.11l-0.323-0.331l-0.37-0.008v-0.087 l0.444-0.157l0.047-0.165l-0.165-0.173l0.024-0.433l0.22-0.457l0.189,0.102l0.895-0.016c0,0,0.583,0.653,0.583,0.984 c0,0.173-0.48,1.283-0.724,1.661C26.277,34.997,24.792,34.974,24.792,34.974z M22.894,31.164c0,0,0.075-0.456,0.856-0.791 c0.702-0.301,1.089-0.752,1.089-0.752s0.386,0.451,1.089,0.752c0.781,0.335,0.766,0.791,0.766,0.791s-0.348-0.224-0.401-0.244 c-0.126-0.047-1.007-0.101-1.063,0.095c-0.056,0.195-0.197,1.874-0.197,1.874h-0.477c0,0-0.141-1.679-0.197-1.874 c-0.056-0.195-0.937-0.142-1.063-0.095C23.242,30.94,22.894,31.164,22.894,31.164z M25.085,37.698c0,0,1.436-1.659,1.687-2.244 c0,0,0.014,2.077-0.07,2.453c0,0,0.432,0.39,0.572,0.822C27.274,38.729,25.699,38.367,25.085,37.698z M27.748,31.752 c-0.021-0.491-1.161-1.474-1.966-1.84c-0.805-0.366-0.972-0.774-0.972-0.774s-0.167,0.408-0.972,0.774 c-0.805,0.366-1.945,1.349-1.966,1.84c0,0-0.021-3.325,2.938-3.325C27.804,28.428,27.748,31.752,27.748,31.752z"/><path fill="#006064" d="M16.986,41.671c2.272-1.868,2.523-4.879,2.523-4.879c-0.585,1.004-1.952,1.84-1.952,1.84 s0.697-1.352,0.976-2.37c0.279-1.018-0.07-1.715-0.07-1.715c-1.603,1.826-3.61,1.589-3.61,1.589 c2.077-0.781,3.22-3.82,3.429-4.726c0.167-0.722,0.016-1.77-0.053-2.17l-0.24-0.214l0.001-0.069l-0.001-0.001 c0.153,2.3-1.199,3.359-1.199,3.359c-0.279-0.53-0.293-1.952-0.293-1.952l0.544-0.948l-0.836-0.237l-0.711-6.786l0.92-3.177 c0,0,0.064-0.64-0.109-0.963c-0.173-0.323-0.291-0.441-0.315-1.063c-0.024-0.622,0.079-1.118,0.079-1.118l-0.197-0.63 c0,0-0.134-0.244-0.386-0.535c-0.252-0.291-0.173-1.023-0.173-1.023l0.244-0.134l0.37,0.543l0.166,0.04l0.112-1.046l-2.611-0.032 l0.286,0.832h-0.417c0,0-0.291-0.614-0.394-0.913c-0.044-0.129-0.07-0.214-0.088-0.276l-0.206,0.201l-0.126,0.125l0.473,1.076 l-0.253,0.468l-0.012,0.037l0.279,0.349l-0.001,0.003l0.019,0.021l-0.126,0.3l-0.045,0.136l0.201,0.258l0.147,0.164l-0.009,0.013 l0.009,0.011l-0.341,0.532c0.007,0.023,0.04,0.134,0.088,0.292c0.092,0.275,0.225,0.68,0.283,0.913 c0.012,0.036,0.024,0.073,0.033,0.1c0.105,0.303,0.834,0.68,0.834,0.68v0.04c0.003,0.002,0.01,0.008,0.01,0.008 s0.014-0.265,0.014-0.767c0-0.502,1.324-1.059,1.324-1.059l-0.167,3.847h-0.921c-0.002,0.045-0.04,0.721-0.082,1.6 c-0.044,1.041-0.096,2.359-0.124,3.263c-0.003,0.21-0.005,0.396-0.002,0.542c0.007,0.456,0.088,0.882,0.187,1.245 c0.136,0.472,0.309,0.889,0.309,0.889l0.077,0.144c0.02,0.039,0.033,0.064,0.033,0.064l0.098,1.217l0.059,0.738 c0,0-1.892,2.654-2.006,5.047c0.001,1.749,1.003,2.407,1.003,2.407l0.586,0.125l0.047,0.334l0.026,0.189l-0.45,0.972l1.349,1.746 l-0.042,2.697h2.405c0.039-0.438,0.37-1.036,0.886-1.858c0.683-1.087,0.548-1.919,0.548-1.919 C18.672,41.319,16.986,41.671,16.986,41.671z M13.314,14.688l0.165-0.338c0,0,0.299,0.016,0.488-0.039 c0.189-0.055,0.567-0.236,0.567-0.236l0.354,0.039l-0.031,0.441c0,0-0.606,0.244-0.779,0.244c-0.173,0-0.646,0.063-0.646,0.063 L13.314,14.688z M14.818,16.64H13.85l-0.15,0.181l0.118,0.126h0.307l-0.213,0.583l-0.024,0.433l-0.228-0.449l-0.283-0.937 l0.409-0.582l0.968,0.024l0.291,0.244L14.818,16.64z M15.101,15.884c0,0-0.779-0.252-0.803-0.244 c-0.024,0.008-0.771-0.047-0.771-0.047l0.205-0.417l0.866-0.071l0.701,0.378L15.101,15.884z"/><path fill="#006064" d="M25.568,26.816l-0.789-4.244l-0.626,4.215c0,0,0.351-0.064,0.697-0.064 C25.245,26.723,25.568,26.816,25.568,26.816z"/><g><path fill="#006064" d="M28.188,29.172l4.223-1.936l-4.422,1.474C28.062,28.835,28.188,29.172,28.188,29.172z"/><path fill="#006064" d="M18.018,27.731l3.341,1.308c0,0,0.058-0.196,0.201-0.429l-3.546-1.106L18.018,27.731z"/><path fill="#006064" d="M27.339,27.792l2.862-3.658l-3.363,3.196C26.838,27.33,27.161,27.574,27.339,27.792z"/><path fill="#006064" d="M22.736,27.33c-1.693-1.598-3.338-3.196-3.338-3.196l2.852,3.651 C22.249,27.786,22.447,27.548,22.736,27.33z"/></g></svg>