<svg xmlns="http://www.w3.org/2000/svg" viewBox="0 0 48 48"><linearGradient id="Trh1gOXxOEXExV5q8JbzSa" x1="24" x2="24" y1="11.517" y2="3.341" gradientUnits="userSpaceOnUse"><stop offset=".159" stop-color="#189eec"/><stop offset=".902" stop-color="#c4f0f8"/></linearGradient><polygon fill="url(#Trh1gOXxOEXExV5q8JbzSa)" points="17.124,7.814 19.703,3.946 28.297,3.946 30.876,7.814 24,9.906"/><linearGradient id="Trh1gOXxOEXExV5q8JbzSb" x1="24" x2="24" y1="7.168" y2="16.359" gradientUnits="userSpaceOnUse"><stop offset="0" stop-color="#068bd9"/><stop offset=".174" stop-color="#049ce5"/><stop offset=".445" stop-color="#02aff4"/><stop offset=".719" stop-color="#00bbfc"/><stop offset="1" stop-color="#00bfff"/></linearGradient><polygon fill="url(#Trh1gOXxOEXExV5q8JbzSb)" points="17.124,7.814 30.876,7.814 24,17.268"/><linearGradient id="Trh1gOXxOEXExV5q8JbzSc" x1="24" x2="24" y1="5.537" y2="19.087" gradientUnits="userSpaceOnUse"><stop offset=".023" stop-color="#139cec"/><stop offset=".212" stop-color="#3fb1ef"/><stop offset=".48" stop-color="#78ccf3"/><stop offset=".71" stop-color="#a1e0f6"/><stop offset=".891" stop-color="#bbecf7"/><stop offset="1" stop-color="#c4f0f8"/></linearGradient><polygon fill="url(#Trh1gOXxOEXExV5q8JbzSc)" points="20.992,7.814 24,17.268 27.008,7.814"/><linearGradient id="Trh1gOXxOEXExV5q8JbzSd" x1="24" x2="24" y1="9.839" y2="1.621" gradientUnits="userSpaceOnUse"><stop offset=".295" stop-color="#189eec"/><stop offset=".389" stop-color="#3bb0ef"/><stop offset=".494" stop-color="#59c1f3"/><stop offset=".604" stop-color="#71cef5"/><stop offset=".72" stop-color="#83d7f7"/><stop offset=".846" stop-color="#8ddcf8"/><stop offset="1" stop-color="#90def8"/></linearGradient><polygon fill="url(#Trh1gOXxOEXExV5q8JbzSd)" points="19.703,3.946 20.992,7.814 27.008,7.814 28.297,3.946"/><linearGradient id="Trh1gOXxOEXExV5q8JbzSe" x1="24" x2="24" y1="10.193" y2="5.239" gradientUnits="userSpaceOnUse"><stop offset="0" stop-color="#189eec"/><stop offset=".053" stop-color="#2fa8ed"/><stop offset=".168" stop-color="#5cbcf0"/><stop offset=".288" stop-color="#82ccf3"/><stop offset=".411" stop-color="#a1daf5"/><stop offset=".539" stop-color="#b9e5f6"/><stop offset=".674" stop-color="#cbecf7"/><stop offset=".821" stop-color="#d5f1f8"/><stop offset="1" stop-color="#d8f2f8"/></linearGradient><polygon fill="url(#Trh1gOXxOEXExV5q8JbzSe)" points="20.992,7.814 24,3.946 27.008,7.814"/><linearGradient id="Trh1gOXxOEXExV5q8JbzSf" x1="24" x2="24" y1="-.908" y2="62.85" gradientUnits="userSpaceOnUse"><stop offset="0" stop-color="#d9d9d9"/><stop offset="0" stop-color="#717173"/><stop offset="0" stop-color="#1b1b1f"/><stop offset=".041" stop-color="#4a4c4f"/><stop offset=".095" stop-color="#828688"/><stop offset=".144" stop-color="#afb4b6"/><stop offset=".188" stop-color="#cfd5d6"/><stop offset=".225" stop-color="#e2e9ea"/><stop offset=".249" stop-color="#e9f0f1"/><stop offset=".504" stop-color="#ccc"/><stop offset=".548" stop-color="#d2d3d3"/><stop offset=".71" stop-color="#e3e8e9"/><stop offset=".814" stop-color="#e9f0f1"/></linearGradient><path fill="url(#Trh1gOXxOEXExV5q8JbzSf)" d="M26.07,14.63c0.007-0.01,0.014-0.018,0.021-0.028c0.402-0.6,4.713-6.051,4.785-6.788 c-0.477,0.564-5.969,5.281-5.969,5.281S25.015,10.48,24,7.814c-0.993,2.676-0.91,5.295-0.91,5.295s-5.492-4.727-5.966-5.295 c0.064,0.739,4.373,6.198,4.777,6.798c0.005,0.007,0.01,0.013,0.015,0.02C14.745,15.65,9.207,21.813,9.207,29.261 c0,8.157,6.636,14.793,14.793,14.793s14.793-6.636,14.793-14.793C38.793,21.808,33.248,15.642,26.07,14.63z M24,40.468 c-6.18,0-11.207-5.027-11.207-11.207S17.82,18.054,24,18.054s11.207,5.027,11.207,11.207S30.18,40.468,24,40.468z"/><linearGradient id="Trh1gOXxOEXExV5q8JbzSg" x1="24.003" x2="24.003" y1="29.261" y2="48.285" gradientUnits="userSpaceOnUse"><stop offset="0" stop-color="#e9f0f1"/><stop offset=".302" stop-color="#aeb3b5"/><stop offset="1" stop-color="#1b1b1f"/></linearGradient><path fill="url(#Trh1gOXxOEXExV5q8JbzSg)" d="M35.207,29.261c0,6.18-5.027,11.207-11.207,11.207s-11.207-5.027-11.207-11.207 C12.427,34.989,17.118,40.718,24,40.718S35.635,34.989,35.207,29.261z"/><linearGradient id="Trh1gOXxOEXExV5q8JbzSh" x1="24" x2="24" y1="11.533" y2="37.202" gradientUnits="userSpaceOnUse"><stop offset="0" stop-color="#1b1b1f"/><stop offset=".007" stop-color="#212225"/><stop offset=".059" stop-color="#4b4c50"/><stop offset=".117" stop-color="#717476"/><stop offset=".18" stop-color="#919598"/><stop offset=".248" stop-color="#adb2b4"/><stop offset=".324" stop-color="#c3c9ca"/><stop offset=".411" stop-color="#d4dadc"/><stop offset=".517" stop-color="#e0e7e8"/><stop offset=".66" stop-color="#e7eeef"/><stop offset="1" stop-color="#e9f0f1"/></linearGradient><path fill="url(#Trh1gOXxOEXExV5q8JbzSh)" d="M9.207,29.261c0-7.187,5.66-13.079,12.709-14.629C14.745,15.65,9.207,21.813,9.207,29.261 L9.207,29.261z M38.793,29.261c0-7.448-5.538-13.611-12.709-14.629C33.133,16.182,38.793,22.073,38.793,29.261L38.793,29.261z"/><linearGradient id="Trh1gOXxOEXExV5q8JbzSi" x1="23.999" x2="23.999" y1="15.929" y2="5.835" gradientUnits="userSpaceOnUse"><stop offset="0" stop-color="#e9f0f1"/><stop offset=".228" stop-color="#b3b8ba"/><stop offset=".748" stop-color="#2d2e31"/><stop offset=".817" stop-color="#1b1b1f"/></linearGradient><path fill="url(#Trh1gOXxOEXExV5q8JbzSi)" d="M20.137,10.426l2.953,2.683l-0.172-0.15L20.02,10.56L18.53,9.233 c-0.402-0.367-1.015-1.035-1.405-1.419c0,0,1.021,0.857,1.513,1.298L20.137,10.426z M19.37,11.323l2.546,3.31l-2.471-3.366 l-1.208-1.701c-0.306-0.47-0.877-1.26-1.113-1.752c0.025,0.299,0.392,0.939,1.006,1.827C18.531,10.211,18.95,10.767,19.37,11.323z M23.999,7.814c0,0.001,0,0.001,0.001,0.002l-0.001,0.002v0.001c0-0.001,0-0.002,0.001-0.003C24,7.817,24,7.818,24,7.819V7.818 l-0.001-0.002C24,7.815,24,7.814,24,7.814l-0.001,0.002L23.999,7.814z M23.09,13.108c0.206-1.701,0.381-3.727,0.908-5.295 l-0.116,0.323C23.295,9.78,23.107,11.366,23.09,13.108z M27.861,10.426l-2.953,2.683l0.172-0.15l2.899-2.399l1.491-1.326 c0.402-0.367,1.015-1.035,1.405-1.419c0,0-1.021,0.857-1.513,1.298L27.861,10.426z M29.761,9.566l-1.208,1.701l-2.471,3.366 l2.546-3.31c0.42-0.555,0.839-1.112,1.239-1.682c0.614-0.888,0.982-1.528,1.006-1.827C30.638,8.306,30.067,9.096,29.761,9.566z M24,7.814c0.527,1.567,0.702,3.594,0.908,5.295c-0.016-1.742-0.205-3.329-0.793-4.972L24,7.814z"/></svg>