<svg xmlns="http://www.w3.org/2000/svg" viewBox="0 0 24 24"><path d="M20,19H4c-0.552,0-1-0.448-1-1V6c0-0.552,0.448-1,1-1h16c0.552,0,1,0.448,1,1v12C21,18.552,20.552,19,20,19z" opacity=".3"/><path d="M20,20H4c-1.103,0-2-0.897-2-2V6c0-1.103,0.897-2,2-2h16c1.103,0,2,0.897,2,2v12C22,19.103,21.103,20,20,20z M4,6v12h16.001L20,6H4z"/><path d="M5 8H6.5V16H5zM18 8h-3c-.552 0-1 .448-1 1v6c0 .552.448 1 1 1h3c.552 0 1-.448 1-1V9C19 8.448 18.552 8 18 8zM17.5 14.5h-2v-5h2V14.5zM12 8H9C8.448 8 8 8.448 8 9v6c0 .552.448 1 1 1h3c.552 0 1-.448 1-1V9C13 8.448 12.552 8 12 8zM11.5 14.5h-2v-5h2V14.5z"/></svg>