<svg xmlns="http://www.w3.org/2000/svg" viewBox="0 0 100 100"><path fill="#78a2d2" d="M69,82H31c-7.18,0-13-5.82-13-13V31c0-7.18,5.82-13,13-13h38c7.18,0,13,5.82,13,13v38	C82,76.18,76.18,82,69,82z"/><path fill="#fefdef" d="M66,77H34c-6.075,0-11-4.925-11-11V34c0-6.075,4.925-11,11-11h32c6.075,0,11,4.925,11,11v32	C77,72.075,72.075,77,66,77z"/><path fill="#1f212b" d="M65.9,77H34.1C27.979,77,23,72.021,23,65.9V34.1C23,27.98,27.979,23,34.1,23h26.4	c0.276,0,0.5,0.224,0.5,0.5S60.776,24,60.5,24H34.1C28.53,24,24,28.53,24,34.1v31.8C24,71.47,28.53,76,34.1,76h31.8	C71.47,76,76,71.47,76,65.9V51.5c0-0.276,0.224-0.5,0.5-0.5s0.5,0.224,0.5,0.5v14.4C77,72.021,72.021,77,65.9,77z"/><path fill="#1f212b" d="M76.5,42c-0.276,0-0.5-0.224-0.5-0.5v-2c0-0.276,0.224-0.5,0.5-0.5s0.5,0.224,0.5,0.5v2	C77,41.776,76.776,42,76.5,42z"/><path fill="#1f212b" d="M76.5,49c-0.276,0-0.5-0.224-0.5-0.5v-4c0-0.276,0.224-0.5,0.5-0.5s0.5,0.224,0.5,0.5v4	C77,48.776,76.776,49,76.5,49z"/><path fill="#1f212b" d="M69,83H31c-7.72,0-14-6.28-14-14V31c0-7.72,6.28-14,14-14h38c7.72,0,14,6.28,14,14v38	C83,76.72,76.72,83,69,83z M31,19c-6.617,0-12,5.383-12,12v38c0,6.617,5.383,12,12,12h38c6.617,0,12-5.383,12-12V31	c0-6.617-5.383-12-12-12H31z"/><path fill="#1f212b" d="M46.705,56.334c0-0.255,0.051-0.471,0.153-0.65l9.602-18.92C56.714,36.255,57.11,36,57.645,36	c0.28,0,0.555,0.102,0.823,0.306c0.268,0.205,0.402,0.447,0.402,0.728c0,0.153-0.039,0.32-0.116,0.498L49.919,55h7.556v-7.462	c0-0.644,0.421-0.966,1.262-0.966c0.331,0,0.626,0.083,0.881,0.251C59.873,46.991,60,47.229,60,47.538V55h2.044	c0.307,0,0.542,0.117,0.708,0.352S63,55.852,63,56.149c0,0.322-0.089,0.6-0.267,0.835c-0.179,0.235-0.409,0.352-0.689,0.352H60	v5.657c0,0.31-0.127,0.556-0.382,0.736C59.363,63.91,59.068,64,58.737,64c-0.357,0-0.657-0.09-0.898-0.271	c-0.243-0.181-0.364-0.426-0.364-0.736v-5.657H47.7C47.036,57.335,46.705,57.002,46.705,56.334z"/><path fill="#1f212b" d="M38.248,42.159c0-0.217,0.048-0.422,0.144-0.614c0.095-0.191,3.551-4.971,3.551-4.971	C42.222,36.191,42.54,36,42.896,36c0.279,0,0.533,0.09,0.762,0.268C43.886,36.447,44,36.676,44,36.957v26.049	c0,0.306-0.127,0.549-0.381,0.727C43.365,63.911,43.073,64,42.743,64c-0.356,0-0.654-0.089-0.895-0.268	c-0.242-0.178-0.362-0.421-0.362-0.727V40.323l-1.524,2.486c-0.204,0.306-0.444,0.459-0.724,0.459s-0.514-0.108-0.705-0.325	C38.343,42.727,38.248,42.465,38.248,42.159z"/></svg>