<svg xmlns="http://www.w3.org/2000/svg" viewBox="0 0 100 100"><path fill="#78a2d2" d="M69,82H31c-7.18,0-13-5.82-13-13V31c0-7.18,5.82-13,13-13h38c7.18,0,13,5.82,13,13v38	C82,76.18,76.18,82,69,82z"/><path fill="#fefdef" d="M66,77H34c-6.075,0-11-4.925-11-11V34c0-6.075,4.925-11,11-11h32c6.075,0,11,4.925,11,11v32	C77,72.075,72.075,77,66,77z"/><path fill="#1f212b" d="M65.9,77H34.1C27.979,77,23,72.021,23,65.9V34.1c0-6.12,4.979-11.1,11.1-11.1h26.4	c0.276,0,0.5,0.224,0.5,0.5S60.776,24,60.5,24H34.1C28.53,24,24,28.53,24,34.1V65.9C24,71.47,28.53,76,34.1,76H65.9	C71.47,76,76,71.47,76,65.9V51.5c0-0.276,0.224-0.5,0.5-0.5s0.5,0.224,0.5,0.5v14.4C77,72.021,72.021,77,65.9,77z"/><path fill="#1f212b" d="M76.5,42c-0.276,0-0.5-0.224-0.5-0.5v-2c0-0.276,0.224-0.5,0.5-0.5s0.5,0.224,0.5,0.5v2	C77,41.776,76.776,42,76.5,42z"/><path fill="#1f212b" d="M76.5,49c-0.276,0-0.5-0.224-0.5-0.5v-4c0-0.276,0.224-0.5,0.5-0.5s0.5,0.224,0.5,0.5v4	C77,48.776,76.776,49,76.5,49z"/><path fill="#1f212b" d="M69,83H31c-7.72,0-14-6.28-14-14V31c0-7.72,6.28-14,14-14h38c7.72,0,14,6.28,14,14v38	C83,76.72,76.72,83,69,83z M31,19c-6.617,0-12,5.383-12,12v38c0,6.617,5.383,12,12,12h38c6.617,0,12-5.383,12-12V31	c0-6.617-5.383-12-12-12H31z"/><path fill="#1f212b" d="M47,56.154v-0.457c0-3.631,1.397-6.006,4.192-7.123c-2.283-0.939-3.423-2.933-3.423-5.981	C47.769,38.197,50.179,36,55,36c4.82,0,7.231,2.197,7.231,6.593c0,3.048-1.128,5.042-3.385,5.981C61.616,49.666,63,52.04,63,55.696	v0.457c0,2.691-0.731,4.672-2.192,5.942C59.346,63.365,57.41,64,55,64c-2.411,0-4.346-0.635-5.808-1.905	C47.731,60.826,47,58.845,47,56.154z M49.538,56.003c0,1.931,0.481,3.386,1.442,4.364c0.961,0.978,2.314,1.467,4.058,1.467	c1.743,0,3.083-0.489,4.019-1.467c0.936-0.978,1.404-2.433,1.404-4.364V55.47c0-3.786-1.821-5.679-5.461-5.679	c-3.642,0-5.462,1.893-5.462,5.679V56.003z M50.269,42.781c0,3.128,1.577,4.692,4.731,4.692c3.179,0,4.769-1.564,4.769-4.692	c0-3.078-1.59-4.616-4.769-4.616C51.846,38.166,50.269,39.704,50.269,42.781z"/><path fill="#1f212b" d="M37,42.109c0-0.216,0.048-0.419,0.143-0.609c0.094-0.189,3.523-4.931,3.523-4.931	C40.942,36.19,41.257,36,41.61,36c0.277,0,0.529,0.089,0.756,0.266c0.227,0.177,0.34,0.405,0.34,0.683v25.837	c0,0.304-0.126,0.545-0.378,0.721c-0.252,0.177-0.542,0.266-0.869,0.266c-0.353,0-0.649-0.089-0.888-0.266	c-0.24-0.177-0.359-0.417-0.359-0.721V40.288L38.7,42.754c-0.202,0.303-0.441,0.455-0.718,0.455c-0.278,0-0.51-0.107-0.699-0.322	C37.094,42.672,37,42.412,37,42.109z"/></svg>