<svg xmlns="http://www.w3.org/2000/svg" viewBox="0 0 100 100"><path fill="#78a2d2" d="M69,82H31c-7.18,0-13-5.82-13-13V31c0-7.18,5.82-13,13-13h38c7.18,0,13,5.82,13,13v38	C82,76.18,76.18,82,69,82z"/><path fill="#fefdef" d="M66,77H34c-6.075,0-11-4.925-11-11V34c0-6.075,4.925-11,11-11h32c6.075,0,11,4.925,11,11v32	C77,72.075,72.075,77,66,77z"/><path fill="#1f212b" d="M65.9,77H34.1C27.979,77,23,72.021,23,65.9V34.1c0-6.12,4.979-11.1,11.1-11.1h26.4	c0.276,0,0.5,0.224,0.5,0.5S60.776,24,60.5,24H34.1C28.53,24,24,28.53,24,34.1V65.9C24,71.47,28.53,76,34.1,76H65.9	C71.47,76,76,71.47,76,65.9V51.5c0-0.276,0.224-0.5,0.5-0.5s0.5,0.224,0.5,0.5v14.4C77,72.021,72.021,77,65.9,77z"/><path fill="#1f212b" d="M76.5,42c-0.276,0-0.5-0.224-0.5-0.5v-2c0-0.276,0.224-0.5,0.5-0.5s0.5,0.224,0.5,0.5v2	C77,41.776,76.776,42,76.5,42z"/><path fill="#1f212b" d="M76.5,49c-0.276,0-0.5-0.224-0.5-0.5v-4c0-0.276,0.224-0.5,0.5-0.5s0.5,0.224,0.5,0.5v4	C77,48.776,76.776,49,76.5,49z"/><path fill="#1f212b" d="M69,83H31c-7.72,0-14-6.28-14-14V31c0-7.72,6.28-14,14-14h38c7.72,0,14,6.28,14,14v38	C83,76.72,76.72,83,69,83z M31,19c-6.617,0-12,5.383-12,12v38c0,6.617,5.383,12,12,12h38c6.617,0,12-5.383,12-12V31	c0-6.617-5.383-12-12-12H31z"/><path fill="#1f212b" d="M47,57.503c0-0.785,0.397-1.178,1.192-1.178c0.872,0,1.308,0.355,1.308,1.064	c0,1.292,0.525,2.331,1.577,3.115c1.051,0.785,2.346,1.178,3.885,1.178c3.667,0,5.5-1.938,5.5-5.813v-5.813	c-1.23,1.698-3.167,2.547-5.808,2.547c-5.101,0-7.653-2.533-7.653-7.599v-0.912c0-2.786,0.724-4.831,2.173-6.136	C50.621,36.652,52.551,36,54.962,36c2.435,0,4.385,0.652,5.846,1.957C62.268,39.261,63,41.306,63,44.092V55.87	c0,2.812-0.737,4.87-2.212,6.174C59.314,63.348,57.358,64,54.923,64c-2.462,0-4.397-0.639-5.807-1.919	C47.705,60.803,47,59.276,47,57.503z M49.538,44.911c0,1.931,0.461,3.335,1.385,4.211c0.923,0.877,2.281,1.315,4.077,1.315	c3.64,0,5.461-1.728,5.461-5.183v-1.258c0-1.956-0.48-3.417-1.442-4.382c-0.961-0.965-2.314-1.448-4.057-1.448	c-3.615,0-5.424,1.943-5.424,5.83V44.911z"/><path fill="#1f212b" d="M37,42.109c0-0.216,0.048-0.419,0.143-0.609c0.094-0.189,3.523-4.931,3.523-4.931	C40.942,36.19,41.257,36,41.61,36c0.277,0,0.529,0.089,0.756,0.266c0.227,0.177,0.34,0.405,0.34,0.683v25.837	c0,0.304-0.126,0.545-0.378,0.721c-0.252,0.177-0.542,0.266-0.869,0.266c-0.353,0-0.649-0.089-0.888-0.266	c-0.24-0.177-0.359-0.417-0.359-0.721V40.288L38.7,42.754c-0.202,0.303-0.441,0.455-0.718,0.455c-0.278,0-0.51-0.107-0.699-0.322	C37.094,42.672,37,42.412,37,42.109z"/></svg>