<svg xmlns="http://www.w3.org/2000/svg" viewBox="0 0 64 64"><linearGradient id="yd7hLHWv6dYSnED~QQY4~a" x1="32" x2="32" y1="-1205" y2="-1247" gradientTransform="matrix(1 0 0 -1 0 -1194)" gradientUnits="userSpaceOnUse"><stop offset="0" stop-color="#1a6dff"/><stop offset="1" stop-color="#c822ff"/></linearGradient><path fill="url(#yd7hLHWv6dYSnED~QQY4~a)" d="M53,13c2.757,0,5,2.243,5,5v28c0,2.757-2.243,5-5,5H11c-2.757,0-5-2.243-5-5V18	c0-2.757,2.243-5,5-5H53 M53,11H11c-3.866,0-7,3.134-7,7v28c0,3.866,3.134,7,7,7h42c3.866,0,7-3.134,7-7V18	C60,14.134,56.866,11,53,11L53,11z"/><linearGradient id="yd7hLHWv6dYSnED~QQY4~b" x1="32" x2="32" y1="22.5" y2="41.191" gradientUnits="userSpaceOnUse"><stop offset="0" stop-color="#6dc7ff"/><stop offset="1" stop-color="#e6abff"/></linearGradient><path fill="url(#yd7hLHWv6dYSnED~QQY4~b)" d="M26,23v2c0,0.552,0.448,1,1,1h7v4h-7c-0.552,0-1,0.448-1,1v2c0,0.552,0.448,1,1,1h7v4h-7	c-0.552,0-1,0.448-1,1v2c0,0.552,0.448,1,1,1h7c2.209,0,4-1.791,4-4V26c0-2.209-1.791-4-4-4h-7C26.448,22,26,22.448,26,23z"/></svg>