<svg xmlns="http://www.w3.org/2000/svg" viewBox="0 0 26 26"><path d="M10,15.2c0-0.2,0-0.5,0.1-0.7s0.2-0.4,0.3-0.6s0.3-0.4,0.5-0.5s0.4-0.3,0.7-0.4c-0.4-0.2-0.8-0.5-1-0.8s-0.4-0.7-0.4-1.1c0-0.3,0.1-0.6,0.2-0.9s0.3-0.5,0.6-0.7s0.5-0.4,0.9-0.5s0.7-0.2,1.1-0.2c0.4,0,0.8,0.1,1.1,0.2s0.6,0.3,0.9,0.5s0.4,0.4,0.6,0.7s0.2,0.6,0.2,0.9c0,0.4-0.1,0.8-0.4,1.1s-0.6,0.6-1,0.8c0.3,0.1,0.5,0.2,0.7,0.4s0.4,0.3,0.5,0.5s0.2,0.4,0.3,0.6s0.1,0.5,0.1,0.7c0,0.4-0.1,0.7-0.2,1s-0.3,0.5-0.6,0.8s-0.6,0.4-0.9,0.5s-0.8,0.2-1.2,0.2c-0.4,0-0.8-0.1-1.2-0.2s-0.7-0.3-0.9-0.5s-0.5-0.5-0.6-0.8S10,15.5,10,15.2z M11.8,15c0,0.2,0,0.4,0.1,0.5s0.1,0.3,0.3,0.4s0.2,0.2,0.4,0.2s0.3,0.1,0.5,0.1c0.2,0,0.3,0,0.5-0.1s0.3-0.1,0.4-0.2s0.2-0.2,0.3-0.4s0.1-0.3,0.1-0.5c0-0.2,0-0.3-0.1-0.5s-0.1-0.3-0.3-0.4s-0.2-0.2-0.4-0.3s-0.3-0.1-0.5-0.1c-0.2,0-0.3,0-0.5,0.1s-0.3,0.1-0.4,0.3s-0.2,0.2-0.3,0.4S11.8,14.9,11.8,15z M12,11.3c0,0.1,0,0.3,0.1,0.4s0.1,0.2,0.2,0.3s0.2,0.2,0.3,0.2s0.3,0.1,0.4,0.1c0.1,0,0.3,0,0.4-0.1s0.2-0.1,0.3-0.2s0.2-0.2,0.2-0.3s0.1-0.3,0.1-0.4c0-0.2,0-0.3-0.1-0.4s-0.1-0.2-0.2-0.3s-0.2-0.2-0.3-0.2s-0.3-0.1-0.4-0.1c-0.1,0-0.3,0-0.4,0.1s-0.2,0.1-0.3,0.2s-0.2,0.2-0.2,0.3S12,11.2,12,11.3z"/><path fill="none" stroke="#000" stroke-miterlimit="10" stroke-width="2" d="M19,22H7c-1.7,0-3-1.3-3-3V7c0-1.7,1.3-3,3-3h12c1.7,0,3,1.3,3,3v12C22,20.7,20.7,22,19,22z"/></svg>