<svg xmlns="http://www.w3.org/2000/svg" viewBox="0 0 48 48"><linearGradient id="RSUuwxYQQYyzD5pQ5v2z9a" x1="15.758" x2="26.967" y1="1.274" y2="3.115" gradientUnits="userSpaceOnUse"><stop offset="0" stop-color="#e3282c"/><stop offset=".341" stop-color="#da2528"/><stop offset=".9" stop-color="#c11d1e"/><stop offset=".999" stop-color="#bc1b1c"/></linearGradient><path fill="url(#RSUuwxYQQYyzD5pQ5v2z9a)" d="M14.766,3.335c0.052,0.145,0.215,0.218,0.366,0.172c0.791-0.24,1.508-0.317,2.432-0.213	c2.274,0.278,3.138,0.77,6.463,0.77L24,3.224c1.443,0.057,2.915-0.017,4.412-0.208C28.747,2.974,29,2.691,29,2.364V1.327	c0-0.176-0.155-0.309-0.335-0.29C25.146,1.402,21.451,1,17.229,1c-0.862,0.023-1.885,0.2-2.808,0.511	c-0.152,0.051-0.229,0.216-0.177,0.363L14.766,3.335z"/><linearGradient id="RSUuwxYQQYyzD5pQ5v2z9b" x1="21.606" x2="21.62" y1=".952" y2="2.076" gradientUnits="userSpaceOnUse"><stop offset="0" stop-color="#fff" stop-opacity=".7"/><stop offset="1" stop-color="#fff" stop-opacity="0"/></linearGradient><path fill="url(#RSUuwxYQQYyzD5pQ5v2z9b)" d="M14.424,2.046c0.937-0.316,1.977-0.495,2.852-0.519c4.288,0,8.041,0.408,11.615,0.038	C28.929,1.56,28.965,1.567,29,1.575V1.327c0-0.175-0.155-0.309-0.335-0.29C25.146,1.402,21.451,1,17.229,1	c-0.862,0.023-1.885,0.2-2.808,0.511c-0.152,0.051-0.229,0.216-0.177,0.363l0.09,0.251C14.363,2.097,14.382,2.06,14.424,2.046z"/><path fill="#a51321" d="M17.238,2.738c-0.977-0.11-1.739-0.03-2.572,0.219l0.154,0.432c0.052,0.145,0.214,0.218,0.364,0.172 c0.789-0.24,1.503-0.317,2.424-0.213c2.266,0.278,3.128,0.77,6.441,0.77l-0.017-0.549C20.591,3.552,19.646,3.034,17.238,2.738z"/><path fill="#a51321" d="M28.912,2.439c-1.611,0.206-3.195,0.286-4.748,0.224l0.019,0.614 c1.387,0.045,2.799-0.023,4.236-0.207c0.334-0.043,0.586-0.326,0.586-0.653V2.41C28.974,2.418,28.946,2.435,28.912,2.439z"/><rect width="8" height="2" x="20" y="12" fill="#c39560"/><radialGradient id="RSUuwxYQQYyzD5pQ5v2z9c" cx="24" cy="28.723" r="15.142" gradientTransform="matrix(.9375 0 0 1.2041 1.5 -6.324)" gradientUnits="userSpaceOnUse"><stop offset=".252" stop-color="#fde6ce"/><stop offset=".367" stop-color="#fae1c5"/><stop offset=".556" stop-color="#f1d3ac"/><stop offset=".795" stop-color="#e4bd84"/><stop offset=".999" stop-color="#d6a75c"/></radialGradient><path fill="url(#RSUuwxYQQYyzD5pQ5v2z9c)" d="M26.765,13H24h-2.765C13.886,13,9,18,9,24.892C9,31,10.71,38.021,12.084,43.304	C12.693,45.106,13.69,46,15.41,46H24h8.59c1.72,0,2.717-0.894,3.326-2.696C37.29,38.021,39,31,39,24.892C39,18,34.114,13,26.765,13z"/><radialGradient id="RSUuwxYQQYyzD5pQ5v2z9d" cx="8.107" cy="17.973" r="8.01" gradientTransform="matrix(.9375 0 0 .9706 1.5 .382)" gradientUnits="userSpaceOnUse"><stop offset="0" stop-color="#fff" stop-opacity=".7"/><stop offset=".519" stop-color="#fff" stop-opacity=".336"/><stop offset="1" stop-color="#fff" stop-opacity="0"/></radialGradient><path fill="url(#RSUuwxYQQYyzD5pQ5v2z9d)" d="M10.152,28.491c0-7.502,4.566-13.225,11.745-14.712h-0.531	c-7.002,0-11.657,4.764-11.657,11.331c0,2.149,0.224,4.417,0.57,6.677C10.202,30.672,10.152,29.569,10.152,28.491z"/><linearGradient id="RSUuwxYQQYyzD5pQ5v2z9e" x1="24" x2="24" y1="23.787" y2="13.347" gradientUnits="userSpaceOnUse"><stop offset=".252" stop-color="#fde6ce"/><stop offset=".366" stop-color="#fae1c5"/><stop offset=".553" stop-color="#f2d3ac"/><stop offset=".623" stop-color="#eecda1"/><stop offset=".88" stop-color="#deb473"/><stop offset=".999" stop-color="#d6a75c"/></linearGradient><rect width="2" height="6" x="23" y="13" fill="url(#RSUuwxYQQYyzD5pQ5v2z9e)"/><linearGradient id="RSUuwxYQQYyzD5pQ5v2z9f" x1="21.364" x2="26.455" y1="5.5" y2="5.5" gradientUnits="userSpaceOnUse"><stop offset=".024" stop-color="#e02529"/><stop offset=".242" stop-color="#f06461"/><stop offset=".47" stop-color="#e72c30"/><stop offset=".648" stop-color="#d81d22"/><stop offset=".911" stop-color="#bc1b1c"/></linearGradient><rect width="6" height="1" x="21" y="5" fill="url(#RSUuwxYQQYyzD5pQ5v2z9f)"/><linearGradient id="RSUuwxYQQYyzD5pQ5v2z9g" x1="20.404" x2="25.149" y1="-.191" y2="4.679" gradientUnits="userSpaceOnUse"><stop offset=".055" stop-color="#e02529"/><stop offset=".294" stop-color="#f06461"/><stop offset=".47" stop-color="#e72c30"/><stop offset=".666" stop-color="#d81d22"/><stop offset=".911" stop-color="#bc1b1c"/></linearGradient><path fill="url(#RSUuwxYQQYyzD5pQ5v2z9g)" d="M26,2h-2.394c-0.117,0-0.226,0.057-0.294,0.152C22.998,2.922,22.566,3.546,22,4v1h4V2z"/><linearGradient id="RSUuwxYQQYyzD5pQ5v2z9h" x1="4.584" x2="17.868" y1="10.45" y2="24.238" gradientUnits="userSpaceOnUse"><stop offset=".252" stop-color="#fde6ce"/><stop offset=".367" stop-color="#fae1c5"/><stop offset=".556" stop-color="#f1d3ac"/><stop offset=".795" stop-color="#e4bd84"/><stop offset=".999" stop-color="#d6a75c"/></linearGradient><path fill="url(#RSUuwxYQQYyzD5pQ5v2z9h)" d="M25.728,18.546H24h-1.728c-4.593,0-7.647,3.466-7.647,8.245c0,4.234,1.069,9.102,1.928,12.764	c0.38,1.25,1.004,1.869,2.079,1.869H24h5.369c1.075,0,1.698-0.62,2.079-1.869c0.859-3.662,1.928-8.53,1.928-12.764	C33.375,22.013,30.321,18.546,25.728,18.546z"/><linearGradient id="RSUuwxYQQYyzD5pQ5v2z9i" x1="18.94" x2="32.105" y1="25.351" y2="38.865" gradientUnits="userSpaceOnUse"><stop offset="0" stop-color="#fff"/><stop offset="1" stop-color="#f0d1a8"/></linearGradient><path fill="url(#RSUuwxYQQYyzD5pQ5v2z9i)" d="M25.471,19.794H24h-1.471c-3.909,0-6.508,3.088-6.508,7.345c0,3.772,0.909,8.109,1.641,11.372	c0.324,1.113,0.854,1.665,1.769,1.665H24h4.569c0.915,0,1.445-0.552,1.769-1.665c0.731-3.263,1.641-7.599,1.641-11.372	C31.979,22.882,29.38,19.794,25.471,19.794z"/><linearGradient id="RSUuwxYQQYyzD5pQ5v2z9j" x1="19.776" x2="28.032" y1="9" y2="9" gradientUnits="userSpaceOnUse"><stop offset=".024" stop-color="#e02529"/><stop offset=".242" stop-color="#f06461"/><stop offset=".47" stop-color="#e72c30"/><stop offset=".648" stop-color="#d81d22"/><stop offset=".911" stop-color="#bc1b1c"/></linearGradient><path fill="url(#RSUuwxYQQYyzD5pQ5v2z9j)" d="M28.622,6h-9.245C19.169,6,19,6.169,19,6.378V12h10V6.378C29,6.169,28.831,6,28.622,6z"/><linearGradient id="RSUuwxYQQYyzD5pQ5v2z9k" x1="24" x2="24" y1="5.474" y2="6.645" gradientUnits="userSpaceOnUse"><stop offset="0" stop-color="#fff" stop-opacity=".7"/><stop offset="1" stop-color="#fff" stop-opacity="0"/></linearGradient><path fill="url(#RSUuwxYQQYyzD5pQ5v2z9k)" d="M29,8.787v-2.41C29,6.169,28.831,6,28.622,6h-9.245C19.169,6,19,6.169,19,6.378v2.41H29z"/><radialGradient id="RSUuwxYQQYyzD5pQ5v2z9l" cx="25.819" cy="30.87" r="5.106" gradientTransform="matrix(.9285 0 0 1.0384 -1.12 -1.29)" gradientUnits="userSpaceOnUse"><stop offset=".252" stop-color="#fde6ce"/><stop offset=".362" stop-color="#fae1c5"/><stop offset=".543" stop-color="#f1d3ac"/><stop offset=".772" stop-color="#e4bd84"/><stop offset=".967" stop-color="#d6a75c"/></radialGradient><path fill="url(#RSUuwxYQQYyzD5pQ5v2z9l)" d="M24,22.706c-1.035,4.374-4.687,6.926-4.687,9.686C19.305,34.415,20.926,36.98,24,36.98	s4.695-2.564,4.687-4.588C28.687,29.632,25.097,27.08,24,22.706z"/><radialGradient id="RSUuwxYQQYyzD5pQ5v2z9m" cx="18.862" cy="28.602" r="5.213" gradientTransform="matrix(.9375 0 0 .9088 1.5 2.712)" gradientUnits="userSpaceOnUse"><stop offset="0" stop-color="#fff" stop-opacity=".7"/><stop offset="1" stop-color="#fff" stop-opacity="0"/></radialGradient><path fill="url(#RSUuwxYQQYyzD5pQ5v2z9m)" d="M23.786,24.623c-0.825,2.718-3.534,4.929-3.754,6.909c-0.312,2.808,3.19,2.789,3.117,0.402	C23.097,30.261,23.786,26.853,23.786,24.623z"/><radialGradient id="RSUuwxYQQYyzD5pQ5v2z9n" cx="28.378" cy="38.657" r="6.274" gradientTransform="matrix(.9375 0 0 .9088 1.5 2.712)" gradientUnits="userSpaceOnUse"><stop offset="0" stop-color="#fff" stop-opacity=".7"/><stop offset=".519" stop-color="#fff" stop-opacity=".336"/><stop offset="1" stop-color="#fff" stop-opacity="0"/></radialGradient><path fill="url(#RSUuwxYQQYyzD5pQ5v2z9n)" d="M27.786,30.934c0.031,0.197,0.052,0.397,0.052,0.603c0,2.208-1.847,3.999-4.125,3.999	c-1.709,0-3.176-1.008-3.802-2.444c0.301,1.922,2.007,3.396,4.073,3.396c2.278,0,4.125-1.79,4.125-3.999	C28.11,31.937,27.994,31.412,27.786,30.934z"/><path fill="#ce9f66" d="M36.065,16.903c0,0,3.055,2.924,2.824,9.058s-2.824,16.631-3.102,17.542	c-0.278,0.911-0.556,2.061-3.055,2.301c0.88-0.815,1.481-1.054,1.991-2.684c0.509-1.63,2.677-9.242,3.055-17.254	C37.929,22.658,37.778,20.306,36.065,16.903z"/><linearGradient id="RSUuwxYQQYyzD5pQ5v2z9o" x1="24" x2="24" y1="45.515" y2="42.288" gradientUnits="userSpaceOnUse"><stop offset="0" stop-color="#bc8e5c"/><stop offset=".021" stop-color="#be905e" stop-opacity=".979"/><stop offset=".406" stop-color="#daab77" stop-opacity=".591"/><stop offset=".743" stop-color="#ebbc87" stop-opacity=".252"/><stop offset=".993" stop-color="#f1c28c" stop-opacity="0"/></linearGradient><path fill="url(#RSUuwxYQQYyzD5pQ5v2z9o)" d="M11.622,41.498c0.156,0.618,0.312,1.226,0.463,1.806C12.693,45.106,13.69,46,15.41,46H24	h8.59c1.72,0,2.717-0.894,3.326-2.696c0.151-0.58,0.307-1.188,0.463-1.806H11.622z"/><radialGradient id="RSUuwxYQQYyzD5pQ5v2z9p" cx="-665.129" cy="-276.921" r="2.761" gradientTransform="matrix(-.9613 0 0 -.1995 -617.44 -49.072)" gradientUnits="userSpaceOnUse"><stop offset="0" stop-color="#fff" stop-opacity=".6"/><stop offset=".999" stop-color="#fff" stop-opacity="0"/></radialGradient><ellipse cx="21.988" cy="6.222" fill="url(#RSUuwxYQQYyzD5pQ5v2z9p)" rx="2.948" ry=".658"/></svg>