<svg xmlns="http://www.w3.org/2000/svg" xmlns:xlink="http://www.w3.org/1999/xlink" viewBox="0 0 48 48"><defs><linearGradient id="Og9QXhxKyXZXzNlFnGoXoi" x1="30" x2="35" y1="24" y2="24" xlink:href="#Og9QXhxKyXZXzNlFnGoXob"/><linearGradient id="Og9QXhxKyXZXzNlFnGoXod" x1="24" x2="24" y1="40" y2="37" gradientUnits="userSpaceOnUse"><stop offset="0" stop-color="#3b3831"/><stop offset="1"/></linearGradient><linearGradient id="Og9QXhxKyXZXzNlFnGoXof" x1="5" x2="35" y1="24" y2="24" gradientUnits="userSpaceOnUse"><stop offset="0" stop-color="#1a1816"/><stop offset=".13" stop-color="#786e61"/><stop offset=".87" stop-color="#786e61"/><stop offset="1" stop-color="#1a1816"/></linearGradient><linearGradient id="Og9QXhxKyXZXzNlFnGoXog" x1="35" x2="43" y1="24" y2="24" gradientTransform="rotate(-90 39 24)" gradientUnits="userSpaceOnUse"><stop offset="0" stop-color="#5e574d"/><stop offset="1" stop-color="#5e574d"/></linearGradient><linearGradient id="Og9QXhxKyXZXzNlFnGoXoa" x1="20.145" x2="20.145" y1="16" y2="11" gradientUnits="userSpaceOnUse"><stop offset="0" stop-color="#1a1816"/><stop offset=".238" stop-color="#39352f"/><stop offset=".546" stop-color="#5b544a"/><stop offset=".801" stop-color="#70675b"/><stop offset=".969" stop-color="#786e61"/></linearGradient><linearGradient id="Og9QXhxKyXZXzNlFnGoXoh" x1="20.145" x2="20.145" y1="32" y2="37" xlink:href="#Og9QXhxKyXZXzNlFnGoXoa"/><linearGradient id="Og9QXhxKyXZXzNlFnGoXob" x1="10" x2="5" y1="24" y2="24" gradientUnits="userSpaceOnUse"><stop offset="0" stop-color="#1a1816"/><stop offset=".969" stop-color="#786e61"/></linearGradient><linearGradient id="Og9QXhxKyXZXzNlFnGoXoe" x1="24" x2="24" y1="38" y2="10" gradientUnits="userSpaceOnUse"><stop offset="0" stop-color="#4d3324"/><stop offset=".05" stop-color="#82624e"/><stop offset=".955" stop-color="#9b755e"/><stop offset="1" stop-color="#e3ab89"/></linearGradient><linearGradient id="Og9QXhxKyXZXzNlFnGoXoc" x1="36.177" x2="41.823" y1="16.014" y2="13.986" gradientTransform="rotate(-25.247 39 14.999)" gradientUnits="userSpaceOnUse"><stop offset="0" stop-color="#7f8282"/><stop offset=".187" stop-color="#818484"/><stop offset=".278" stop-color="#878b8c"/><stop offset=".349" stop-color="#929799"/><stop offset=".409" stop-color="#a2a9ab"/><stop offset=".462" stop-color="#b7bfc3"/><stop offset=".498" stop-color="#c9d3d9"/><stop offset=".5" stop-color="#c8d2d8"/><stop offset=".536" stop-color="#b1b9bd"/><stop offset=".577" stop-color="#9fa5a7"/><stop offset=".625" stop-color="#909597"/><stop offset=".685" stop-color="#868a8b"/><stop offset=".769" stop-color="#818484"/><stop offset="1" stop-color="#7f8282"/></linearGradient><linearGradient id="Og9QXhxKyXZXzNlFnGoXoj" x1="36.881" x2="41.119" y1="24.119" y2="19.881" xlink:href="#Og9QXhxKyXZXzNlFnGoXoc"/><radialGradient id="Og9QXhxKyXZXzNlFnGoXok" cx="20" cy="24" r="20.001" fy="4" gradientTransform="matrix(1 0 0 .6 0 9.6)" gradientUnits="userSpaceOnUse"><stop offset=".089" stop-color="#97a894"/><stop offset=".469" stop-color="#95a692"/><stop offset=".622" stop-color="#8e9f8c"/><stop offset=".735" stop-color="#829382"/><stop offset=".827" stop-color="#708272"/><stop offset=".908" stop-color="#5a6c5f"/><stop offset=".978" stop-color="#3e5147"/><stop offset="1" stop-color="#34473e"/></radialGradient><radialGradient id="Og9QXhxKyXZXzNlFnGoXol" cx="20" cy="24" r="22.394" fy="1.606" gradientTransform="matrix(0 1 -.6 0 34.4 4)" gradientUnits="userSpaceOnUse"><stop offset=".066" stop-color="#97a894" stop-opacity="0"/><stop offset=".485" stop-color="#94a592" stop-opacity=".028"/><stop offset=".655" stop-color="#8a9c89" stop-opacity=".127"/><stop offset=".779" stop-color="#798b7a" stop-opacity=".3"/><stop offset=".881" stop-color="#617365" stop-opacity=".545"/><stop offset=".969" stop-color="#42554a" stop-opacity=".861"/><stop offset="1" stop-color="#34473e"/></radialGradient><radialGradient id="Og9QXhxKyXZXzNlFnGoXom" cx="20" cy="24" r="22.394" fy="1.606" gradientTransform="matrix(0 -1 .6 0 5.6 44)" gradientUnits="userSpaceOnUse"><stop offset=".066" stop-color="#454d43" stop-opacity="0"/><stop offset=".485" stop-color="#454d43" stop-opacity=".028"/><stop offset=".655" stop-color="#434c42" stop-opacity=".127"/><stop offset=".779" stop-color="#404b42" stop-opacity=".3"/><stop offset=".881" stop-color="#3c4a40" stop-opacity=".545"/><stop offset=".969" stop-color="#36483f" stop-opacity=".861"/><stop offset="1" stop-color="#34473e"/></radialGradient><radialGradient id="Og9QXhxKyXZXzNlFnGoXon" cx="348" cy="358" r="20.001" fy="338" gradientTransform="matrix(-1 0 0 -.6 368 238.794)" gradientUnits="userSpaceOnUse"><stop offset=".089" stop-color="#454d44" stop-opacity="0"/><stop offset=".498" stop-color="#454d44" stop-opacity=".028"/><stop offset=".663" stop-color="#434c43" stop-opacity=".127"/><stop offset=".785" stop-color="#404b42" stop-opacity=".3"/><stop offset=".884" stop-color="#3c4a41" stop-opacity=".545"/><stop offset=".97" stop-color="#36483f" stop-opacity=".861"/><stop offset="1" stop-color="#34473e"/></radialGradient><radialGradient id="Og9QXhxKyXZXzNlFnGoXoo" cx="19.87" cy="21.435" r="38.567" gradientTransform="matrix(1 0 0 .6 0 8.574)" gradientUnits="userSpaceOnUse"><stop offset="0" stop-color="#fff"/><stop offset=".093" stop-color="#ecefec" stop-opacity=".819"/><stop offset=".218" stop-color="#d6ddd5" stop-opacity=".605"/><stop offset=".343" stop-color="#c3cdc1" stop-opacity=".42"/><stop offset=".467" stop-color="#b3bfb1" stop-opacity=".269"/><stop offset=".589" stop-color="#a7b5a4" stop-opacity=".151"/><stop offset=".709" stop-color="#9eae9b" stop-opacity=".067"/><stop offset=".825" stop-color="#99a996" stop-opacity=".017"/><stop offset=".934" stop-color="#97a894" stop-opacity="0"/></radialGradient></defs><g data-name="television"><path fill="url(#Og9QXhxKyXZXzNlFnGoXod)" d="M8,37H40a0,0,0,0,1,0,0v2a1,1,0,0,1-1,1H9a1,1,0,0,1-1-1V37A0,0,0,0,1,8,37Z"/><rect width="40" height="28" x="4" y="10" fill="url(#Og9QXhxKyXZXzNlFnGoXoe)" rx="2"/><path fill="url(#Og9QXhxKyXZXzNlFnGoXof)" d="M35,37H6a1,1,0,0,1-1-1V12a1,1,0,0,1,1-1H35Z"/><path fill="#403c36" d="M35,11h7a1,1,0,0,1,1,1V36a1,1,0,0,1-1,1H35a0,0,0,0,1,0,0V11A0,0,0,0,1,35,11Z"/><path fill="url(#Og9QXhxKyXZXzNlFnGoXog)" d="M27,20H51a1,1,0,0,1,1,1v7a0,0,0,0,1,0,0H26a0,0,0,0,1,0,0V21A1,1,0,0,1,27,20Z" transform="rotate(90 39 24)"/><path fill="url(#Og9QXhxKyXZXzNlFnGoXoa)" d="M35,11l-5,5H10L5.29,11.29A1.014,1.014,0,0,1,6,11Z"/><path fill="url(#Og9QXhxKyXZXzNlFnGoXoh)" d="M35,37H6a1.014,1.014,0,0,1-.71-.29L10,32H30Z"/><path fill="url(#Og9QXhxKyXZXzNlFnGoXob)" d="M10,16V32L5.29,36.71A1.014,1.014,0,0,1,5,36V12a1.014,1.014,0,0,1,.29-.71Z"/><polygon fill="url(#Og9QXhxKyXZXzNlFnGoXoi)" points="35 11 35 37 30 32 30 16 35 11"/><path fill="#3b3831" d="M8,9H32a1,1,0,0,1,1,1V39a0,0,0,0,1,0,0H7a0,0,0,0,1,0,0V10A1,1,0,0,1,8,9Z" transform="rotate(-90 20 24)"/><path fill="#474747" d="M40.647,16.125a1.935,1.935,0,0,1-.794.684,2.006,2.006,0,0,1-2.662-.956,1.938,1.938,0,0,1-.177-1.033Z"/><path fill="#474747" d="M40.809,14.147a1.938,1.938,0,0,1,.177,1.033l-3.633-1.3a1.935,1.935,0,0,1,.794-.684A2.006,2.006,0,0,1,40.809,14.147Z"/><path fill="url(#Og9QXhxKyXZXzNlFnGoXoc)" d="M37.72,12.287a3,3,0,1,0,3.993,1.433A3.008,3.008,0,0,0,37.72,12.287Zm2.133,4.522a2.006,2.006,0,0,1-2.662-.956,1.938,1.938,0,0,1-.177-1.033l3.633,1.3A1.935,1.935,0,0,1,39.853,16.809Zm1.133-1.629-3.633-1.3a1.935,1.935,0,0,1,.794-.684,2.006,2.006,0,0,1,2.662.956A1.938,1.938,0,0,1,40.986,15.18Z"/><path fill="#474747" d="M39.31,20.03l-1.54,3.54A1.971,1.971,0,0,1,37,22a2.006,2.006,0,0,1,2-2A1.553,1.553,0,0,1,39.31,20.03Z"/><path fill="#474747" d="M41,22a2.006,2.006,0,0,1-2,2,1.553,1.553,0,0,1-.31-.03l1.54-3.54A1.971,1.971,0,0,1,41,22Z"/><path fill="url(#Og9QXhxKyXZXzNlFnGoXoj)" d="M39,19a3,3,0,1,0,3,3A3.009,3.009,0,0,0,39,19Zm-2,3a2.006,2.006,0,0,1,2-2,1.553,1.553,0,0,1,.31.03l-1.54,3.54A1.971,1.971,0,0,1,37,22Zm2,2a1.553,1.553,0,0,1-.31-.03l1.54-3.54A1.971,1.971,0,0,1,41,22,2.006,2.006,0,0,1,39,24Z"/><path fill="#2c3027" d="M20,36c-3.341,0-7.128,0-9.972-.742a4.454,4.454,0,0,1-3.34-3.294A32.49,32.49,0,0,1,6,24a32.5,32.5,0,0,1,.688-7.965,4.452,4.452,0,0,1,3.338-3.292C12.872,12,16.659,12,20,12s7.128,0,9.972.742a4.454,4.454,0,0,1,3.34,3.294A32.49,32.49,0,0,1,34,24a32.5,32.5,0,0,1-.688,7.965,4.452,4.452,0,0,1-3.338,3.292C27.128,36,23.341,36,20,36Z"/><path fill="url(#Og9QXhxKyXZXzNlFnGoXok)" d="M32.34,16.27a3.443,3.443,0,0,0-2.62-2.56C27,13,23.21,13,20,13s-7,0-9.72.71a3.443,3.443,0,0,0-2.62,2.56A31.782,31.782,0,0,0,7,24a31.782,31.782,0,0,0,.66,7.73,3.443,3.443,0,0,0,2.62,2.56C13,35,16.79,35,20,35s7,0,9.72-.71a3.443,3.443,0,0,0,2.62-2.56A31.782,31.782,0,0,0,33,24,31.782,31.782,0,0,0,32.34,16.27Z"/><path fill="url(#Og9QXhxKyXZXzNlFnGoXol)" d="M32.34,16.27a3.443,3.443,0,0,0-2.62-2.56C27,13,23.21,13,20,13s-7,0-9.72.71a3.443,3.443,0,0,0-2.62,2.56A31.782,31.782,0,0,0,7,24a31.782,31.782,0,0,0,.66,7.73,3.443,3.443,0,0,0,2.62,2.56C13,35,16.79,35,20,35s7,0,9.72-.71a3.443,3.443,0,0,0,2.62-2.56A31.782,31.782,0,0,0,33,24,31.782,31.782,0,0,0,32.34,16.27Z"/><path fill="url(#Og9QXhxKyXZXzNlFnGoXom)" d="M32.34,16.27a3.443,3.443,0,0,0-2.62-2.56C27,13,23.21,13,20,13s-7,0-9.72.71a3.443,3.443,0,0,0-2.62,2.56A31.782,31.782,0,0,0,7,24a31.782,31.782,0,0,0,.66,7.73,3.443,3.443,0,0,0,2.62,2.56C13,35,16.79,35,20,35s7,0,9.72-.71a3.443,3.443,0,0,0,2.62-2.56A31.782,31.782,0,0,0,33,24,31.782,31.782,0,0,0,32.34,16.27Z"/><path fill="url(#Og9QXhxKyXZXzNlFnGoXon)" d="M7.66,31.73a3.443,3.443,0,0,0,2.62,2.56C13,35,16.79,35,20,35s7,0,9.72-.71a3.443,3.443,0,0,0,2.62-2.56A31.782,31.782,0,0,0,33,24a31.782,31.782,0,0,0-.66-7.73,3.443,3.443,0,0,0-2.62-2.56C27,13,23.21,13,20,13s-7,0-9.72.71a3.443,3.443,0,0,0-2.62,2.56A31.782,31.782,0,0,0,7,24,31.782,31.782,0,0,0,7.66,31.73Z"/><path fill="url(#Og9QXhxKyXZXzNlFnGoXoo)" d="M32.74,18.43A25.4,25.4,0,0,0,28,18c-9.52,0-17.63,4.95-20.69,11.87A38.285,38.285,0,0,1,7,24a31.782,31.782,0,0,1,.66-7.73,3.443,3.443,0,0,1,2.62-2.56C13,13,16.79,13,20,13s7,0,9.72.71a3.443,3.443,0,0,1,2.62,2.56A18.97,18.97,0,0,1,32.74,18.43Z"/><rect width="1" height="6" x="38.5" y="24.5" fill="#2b2924" transform="rotate(90 39 27.5)"/><rect width="1" height="6" x="38.5" y="26.5" fill="#2b2924" transform="rotate(90 39 29.5)"/><rect width="1" height="6" x="38.5" y="28.5" fill="#2b2924" transform="rotate(90 39 31.5)"/><rect width="1" height="6" x="38.5" y="30.5" fill="#2b2924" transform="rotate(90 39 33.5)"/><rect width="1" height="6" x="38.5" y="32.5" fill="#2b2924" transform="rotate(90 39 35.5)"/></g></svg>