<svg xmlns="http://www.w3.org/2000/svg" viewBox="0 0 48 48"><linearGradient id="21SOJ4TS8q2yLWeNxnA61a" x1="24" x2="24" y1="7.32" y2="21.141" gradientUnits="userSpaceOnUse"><stop offset="0" stop-color="#ab3900"/><stop offset=".024" stop-color="#b74100"/><stop offset=".088" stop-color="#d15200"/><stop offset=".127" stop-color="#db5800"/><stop offset=".216" stop-color="#cf4f00"/><stop offset=".561" stop-color="#a72e00"/><stop offset=".834" stop-color="#8e1900"/><stop offset="1" stop-color="#851200"/></linearGradient><path fill="url(#21SOJ4TS8q2yLWeNxnA61a)" d="M30.331,20.202H17.669V6.636c0,0,1.809,1.809,6.331,1.809c3.618,0,6.331-1.809,6.331-1.809 V20.202z"/><path fill="#111" d="M24,8.897c-4.655,0-6.571-1.862-6.651-1.941c-0.177-0.177-0.177-0.463,0-0.639 c0.176-0.175,0.46-0.176,0.638-0.002l0,0C18.004,6.332,19.754,7.993,24,7.993c3.429,0,6.054-1.716,6.08-1.733 c0.209-0.139,0.49-0.081,0.627,0.126c0.139,0.208,0.082,0.488-0.125,0.627C30.466,7.089,27.712,8.897,24,8.897z"/><linearGradient id="21SOJ4TS8q2yLWeNxnA61b" x1="8.615" x2="28.572" y1="24.04" y2="24.04" gradientUnits="userSpaceOnUse"><stop offset="0" stop-color="#ab3900"/><stop offset=".313" stop-color="#d55700"/><stop offset=".591" stop-color="#f36e00"/><stop offset=".746" stop-color="#ff7600"/></linearGradient><path fill="url(#21SOJ4TS8q2yLWeNxnA61b)" d="M11.12,8.768l6.44-2.504c0,0,0.76,8.274,6.082,13.596v18.534 c0,1.886-1.522,3.413-3.408,3.422c-3.051,0.013-7.323-0.252-9.204-1.697c0,0,0.85-6.44,0.671-9.302s-1.118-7.111-1.118-7.111 s1.118-0.626,1.386-2.147S11.12,8.768,11.12,8.768z"/><linearGradient id="21SOJ4TS8q2yLWeNxnA61c" x1="18.249" x2="12.703" y1="29.102" y2=".569" gradientUnits="userSpaceOnUse"><stop offset="0" stop-color="#cf8712"/><stop offset=".07" stop-color="#da960e"/><stop offset=".229" stop-color="#eeb406"/><stop offset=".366" stop-color="#fbc602"/><stop offset=".465" stop-color="#fc0"/><stop offset=".579" stop-color="#fbc602"/><stop offset=".732" stop-color="#efb506"/><stop offset=".906" stop-color="#dc990d"/><stop offset="1" stop-color="#cf8712"/></linearGradient><path fill="url(#21SOJ4TS8q2yLWeNxnA61c)" d="M12.724,8.144c0.542,4.902,1.909,16.28,3.363,20.543l3.423-1.168 c-1.426-4.181-2.857-16.683-3.294-20.733L12.724,8.144z"/><linearGradient id="21SOJ4TS8q2yLWeNxnA61d" x1="17.686" x2="14.198" y1="28.261" y2="7.152" gradientUnits="userSpaceOnUse"><stop offset="0" stop-color="#878787"/><stop offset=".036" stop-color="#929292"/><stop offset=".179" stop-color="#b8b8b8"/><stop offset=".311" stop-color="#d4d4d4"/><stop offset=".427" stop-color="#e5e5e5"/><stop offset=".514" stop-color="#ebebeb"/><stop offset=".639" stop-color="#e7e7e7"/><stop offset=".774" stop-color="#dadada"/><stop offset=".914" stop-color="#c4c4c4"/><stop offset="1" stop-color="#b3b3b3"/></linearGradient><path fill="url(#21SOJ4TS8q2yLWeNxnA61d)" d="M13.814,7.72c0.513,4.688,1.892,16.35,3.342,20.602l1.284-0.438 c-1.427-4.183-2.839-16.305-3.316-20.674L13.814,7.72z"/><linearGradient id="21SOJ4TS8q2yLWeNxnA61e" x1="10.898" x2="23.642" y1="27.631" y2="27.631" gradientUnits="userSpaceOnUse"><stop offset="0" stop-color="#cf8712"/><stop offset=".098" stop-color="#da960e"/><stop offset=".321" stop-color="#eeb406"/><stop offset=".513" stop-color="#fbc602"/><stop offset=".652" stop-color="#fc0"/><stop offset=".736" stop-color="#fcc602"/><stop offset=".85" stop-color="#f3b508"/><stop offset=".98" stop-color="#e69912"/><stop offset="1" stop-color="#e39414"/></linearGradient><path fill="url(#21SOJ4TS8q2yLWeNxnA61e)" d="M23.642,25.414c-6.261,0.192-10.54-0.008-12.744-0.17c0.239,1.232,0.552,3.005,0.718,4.583 c1.66,0.1,3.987,0.191,6.997,0.191c1.506,0,3.187-0.024,5.03-0.079V25.414z"/><linearGradient id="21SOJ4TS8q2yLWeNxnA61f" x1="11.152" x2="23.642" y1="27.643" y2="27.643" gradientUnits="userSpaceOnUse"><stop offset="0" stop-color="#878787"/><stop offset=".023" stop-color="#8c8c8c"/><stop offset=".357" stop-color="#d0d0d0"/><stop offset=".514" stop-color="#ebebeb"/><stop offset=".639" stop-color="#e7e7e7"/><stop offset=".774" stop-color="#dadada"/><stop offset=".914" stop-color="#c4c4c4"/><stop offset="1" stop-color="#b3b3b3"/></linearGradient><path fill="url(#21SOJ4TS8q2yLWeNxnA61f)" d="M23.642,26.771c-5.971,0.182-10.16,0.011-12.49-0.149c0.102,0.583,0.204,1.208,0.293,1.837 c1.639,0.104,4.017,0.203,7.148,0.203c1.507,0,3.195-0.024,5.049-0.081V26.771z"/><linearGradient id="21SOJ4TS8q2yLWeNxnA61g" x1="31.736" x2="51.692" y1="24.04" y2="24.04" gradientTransform="matrix(-1 0 0 1 71.12 0)" gradientUnits="userSpaceOnUse"><stop offset="0" stop-color="#ab3900"/><stop offset=".313" stop-color="#d55700"/><stop offset=".591" stop-color="#f36e00"/><stop offset=".746" stop-color="#ff7600"/></linearGradient><path fill="url(#21SOJ4TS8q2yLWeNxnA61g)" d="M36.88,8.768l-6.44-2.504c0,0-0.76,8.274-6.082,13.596v18.534 c0,1.886,1.522,3.413,3.408,3.422c3.051,0.013,7.323-0.252,9.204-1.697c0,0-0.85-6.44-0.671-9.302 c0.179-2.862,1.118-7.111,1.118-7.111s-1.118-0.626-1.386-2.147C35.762,20.038,36.88,8.768,36.88,8.768z"/><linearGradient id="21SOJ4TS8q2yLWeNxnA61h" x1="24" x2="24" y1="25.122" y2="8.404" gradientUnits="userSpaceOnUse"><stop offset="0"/><stop offset=".01" stop-color="#030303"/><stop offset=".162" stop-color="#292929"/><stop offset=".302" stop-color="#454545"/><stop offset=".424" stop-color="#565656"/><stop offset=".516" stop-color="#5c5c5c"/><stop offset=".63" stop-color="#585858"/><stop offset=".754" stop-color="#4b4b4b"/><stop offset=".881" stop-color="#353535"/><stop offset="1" stop-color="#1a1a1a"/></linearGradient><path fill="url(#21SOJ4TS8q2yLWeNxnA61h)" d="M10.583,24.158c-0.158,0-0.312-0.083-0.395-0.231c-0.121-0.217-0.045-0.491,0.171-0.614 c0.041-0.024,0.94-0.558,1.165-1.832c0.211-1.197-0.534-9.259-0.839-12.264c-0.026-0.248,0.155-0.47,0.404-0.495 c0.24-0.019,0.471,0.155,0.495,0.405c0.114,1.119,1.102,10.975,0.83,12.512c-0.302,1.712-1.557,2.433-1.611,2.462 C10.734,24.139,10.658,24.158,10.583,24.158z M37.417,24.158c0.158,0,0.312-0.083,0.395-0.231 c0.121-0.217,0.045-0.491-0.171-0.614c-0.041-0.024-0.94-0.558-1.165-1.832c-0.211-1.197,0.534-9.259,0.839-12.264 c0.026-0.248-0.155-0.47-0.404-0.495c-0.24-0.019-0.471,0.155-0.495,0.405c-0.114,1.119-1.102,10.975-0.83,12.512 c0.302,1.712,1.557,2.433,1.611,2.462C37.266,24.139,37.342,24.158,37.417,24.158z"/><linearGradient id="21SOJ4TS8q2yLWeNxnA61i" x1="41.37" x2="35.824" y1="29.102" y2=".569" gradientTransform="matrix(-1 0 0 1 71.12 0)" gradientUnits="userSpaceOnUse"><stop offset="0" stop-color="#cf8712"/><stop offset=".07" stop-color="#da960e"/><stop offset=".229" stop-color="#eeb406"/><stop offset=".366" stop-color="#fbc602"/><stop offset=".465" stop-color="#fc0"/><stop offset=".579" stop-color="#fbc602"/><stop offset=".732" stop-color="#efb506"/><stop offset=".906" stop-color="#dc990d"/><stop offset="1" stop-color="#cf8712"/></linearGradient><path fill="url(#21SOJ4TS8q2yLWeNxnA61i)" d="M35.276,8.144c-0.542,4.902-1.909,16.28-3.363,20.543L28.49,27.52 c1.426-4.181,2.857-16.683,3.294-20.733L35.276,8.144z"/><linearGradient id="21SOJ4TS8q2yLWeNxnA61j" x1="40.807" x2="37.319" y1="28.261" y2="7.152" gradientTransform="matrix(-1 0 0 1 71.12 0)" gradientUnits="userSpaceOnUse"><stop offset="0" stop-color="#878787"/><stop offset=".036" stop-color="#929292"/><stop offset=".179" stop-color="#b8b8b8"/><stop offset=".311" stop-color="#d4d4d4"/><stop offset=".427" stop-color="#e5e5e5"/><stop offset=".514" stop-color="#ebebeb"/><stop offset=".639" stop-color="#e7e7e7"/><stop offset=".774" stop-color="#dadada"/><stop offset=".914" stop-color="#c4c4c4"/><stop offset="1" stop-color="#b3b3b3"/></linearGradient><path fill="url(#21SOJ4TS8q2yLWeNxnA61j)" d="M34.186,7.72c-0.513,4.688-1.892,16.35-3.342,20.602l-1.284-0.438 c1.427-4.183,2.839-16.305,3.316-20.674L34.186,7.72z"/><linearGradient id="21SOJ4TS8q2yLWeNxnA61k" x1="34.019" x2="46.763" y1="27.631" y2="27.631" gradientTransform="matrix(-1 0 0 1 71.12 0)" gradientUnits="userSpaceOnUse"><stop offset="0" stop-color="#cf8712"/><stop offset=".098" stop-color="#da960e"/><stop offset=".321" stop-color="#eeb406"/><stop offset=".513" stop-color="#fbc602"/><stop offset=".652" stop-color="#fc0"/><stop offset=".736" stop-color="#fcc602"/><stop offset=".85" stop-color="#f3b508"/><stop offset=".98" stop-color="#e69912"/><stop offset="1" stop-color="#e39414"/></linearGradient><path fill="url(#21SOJ4TS8q2yLWeNxnA61k)" d="M24.358,25.414c6.261,0.192,10.54-0.008,12.744-0.17c-0.239,1.232-0.552,3.005-0.718,4.583 c-1.66,0.1-3.987,0.191-6.997,0.191c-1.506,0-3.187-0.024-5.03-0.079V25.414z"/><linearGradient id="21SOJ4TS8q2yLWeNxnA61l" x1="34.273" x2="46.763" y1="27.643" y2="27.643" gradientTransform="matrix(-1 0 0 1 71.12 0)" gradientUnits="userSpaceOnUse"><stop offset="0" stop-color="#878787"/><stop offset=".023" stop-color="#8c8c8c"/><stop offset=".357" stop-color="#d0d0d0"/><stop offset=".514" stop-color="#ebebeb"/><stop offset=".639" stop-color="#e7e7e7"/><stop offset=".774" stop-color="#dadada"/><stop offset=".914" stop-color="#c4c4c4"/><stop offset="1" stop-color="#b3b3b3"/></linearGradient><path fill="url(#21SOJ4TS8q2yLWeNxnA61l)" d="M24.358,26.771c5.971,0.182,10.16,0.011,12.49-0.149c-0.102,0.583-0.204,1.208-0.293,1.837 c-1.639,0.104-4.017,0.203-7.148,0.203c-1.507,0-3.195-0.024-5.049-0.081V26.771z"/><linearGradient id="21SOJ4TS8q2yLWeNxnA61m" x1="24" x2="24" y1="38.554" y2="8.126" gradientUnits="userSpaceOnUse"><stop offset="0"/><stop offset=".046" stop-color="#030303"/><stop offset=".348" stop-color="#141414"/><stop offset=".574" stop-color="#1a1a1a"/><stop offset=".622" stop-color="#292929"/><stop offset=".722" stop-color="#454545"/><stop offset=".811" stop-color="#565656"/><stop offset=".877" stop-color="#5c5c5c"/><stop offset=".906" stop-color="#585858"/><stop offset=".938" stop-color="#4b4b4b"/><stop offset=".97" stop-color="#353535"/><stop offset="1" stop-color="#1a1a1a"/></linearGradient><path fill="url(#21SOJ4TS8q2yLWeNxnA61m)" d="M30.845,6.692c0.022-0.249-0.161-0.469-0.41-0.492c-0.231-0.015-0.469,0.16-0.491,0.409 c-0.007,0.077-0.768,7.79-5.907,12.93c-0.017,0.017-0.024,0.038-0.038,0.057c-0.014-0.018-0.021-0.04-0.038-0.057 c-5.139-5.139-5.9-12.852-5.907-12.93c-0.022-0.249-0.261-0.425-0.491-0.409c-0.249,0.023-0.432,0.242-0.41,0.492 c0.03,0.329,0.792,8.111,6.168,13.487c0.064,0.064,0.143,0.096,0.225,0.114V38.29c0,0.25,0.202,0.452,0.452,0.452 s0.452-0.202,0.452-0.452V20.293c0.082-0.018,0.161-0.05,0.225-0.114C30.053,14.803,30.815,7.021,30.845,6.692z"/></svg>