<svg xmlns="http://www.w3.org/2000/svg" viewBox="0 0 48 48"><path fill="#4685c8" d="M28,24.947V6c0-0.552-0.448-1-1-1h-6c-0.552,0-1,0.448-1,1v18.947c-2.961,1.474-5,4.522-5,8.053 c0,4.971,4.029,9,9,9s9-4.029,9-9C33,29.468,30.961,26.42,28,24.947z"/><path fill="#4786c8" d="M27.98,24.963V6.004c0-0.551-0.446-0.997-0.997-0.997h-5.965c-0.551,0-0.997,0.446-0.997,0.997 v18.959c-2.941,1.464-4.99,4.498-4.993,8.031c-0.002,4.955,4.011,8.974,8.966,8.977c4.958,0.004,8.979-4.015,8.979-8.972 C32.973,29.46,30.92,26.427,27.98,24.963z"/><path fill="#4886c9" d="M27.959,24.98V6.008c0-0.549-0.445-0.994-0.994-0.994h-5.93c-0.549,0-0.994,0.445-0.994,0.994V24.98 c-2.92,1.454-4.98,4.474-4.986,8.009c-0.004,4.94,3.994,8.949,8.933,8.955c4.946,0.007,8.958-4,8.958-8.945 C32.946,29.451,30.88,26.434,27.959,24.98z"/><path fill="#4987c9" d="M27.939,24.997V6.012c0-0.548-0.444-0.992-0.992-0.992h-5.895c-0.548,0-0.992,0.444-0.992,0.992 v18.985c-2.9,1.444-4.97,4.451-4.979,7.987c-0.006,4.924,3.976,8.923,8.899,8.932c4.934,0.011,8.937-3.985,8.937-8.917 C32.918,29.443,30.839,26.441,27.939,24.997z"/><path fill="#4a88c9" d="M27.918,25.014V6.016c0-0.546-0.443-0.989-0.989-0.989H21.07c-0.546,0-0.989,0.443-0.989,0.989 v18.998c-2.88,1.434-4.96,4.427-4.972,7.965c-0.008,4.909,3.958,8.897,8.866,8.91c4.921,0.015,8.915-3.971,8.915-8.889 C32.891,29.435,30.799,26.447,27.918,25.014z"/><path fill="#4b89ca" d="M27.898,25.031V6.02c0-0.545-0.441-0.986-0.986-0.986h-5.824c-0.545,0-0.986,0.441-0.986,0.986 v19.011c-2.86,1.424-4.95,4.404-4.965,7.943c-0.01,4.893,3.94,8.872,8.832,8.887c4.909,0.019,8.894-3.956,8.894-8.861 C32.864,29.426,30.758,26.454,27.898,25.031z"/><path fill="#4c89ca" d="M27.878,25.048V6.024c0-0.543-0.44-0.983-0.983-0.983h-5.789c-0.543,0-0.983,0.44-0.983,0.983 v19.024c-2.84,1.413-4.94,4.38-4.957,7.921c-0.013,4.878,3.922,8.846,8.799,8.865c4.896,0.022,8.873-3.941,8.873-8.834 C32.837,29.418,30.717,26.461,27.878,25.048z"/><path fill="#4d8acb" d="M27.857,25.064V6.028c0-0.541-0.439-0.98-0.98-0.98h-5.754c-0.541,0-0.98,0.439-0.98,0.98v19.037 c-2.82,1.403-4.93,4.357-4.95,7.899c-0.015,4.862,3.904,8.82,8.765,8.842c4.884,0.026,8.852-3.927,8.852-8.806 C32.81,29.409,30.677,26.468,27.857,25.064z"/><path fill="#4e8bcb" d="M27.837,25.081V6.032c0-0.54-0.438-0.977-0.977-0.977h-5.719c-0.54,0-0.977,0.438-0.977,0.977 v19.049c-2.8,1.393-4.92,4.333-4.943,7.877c-0.017,4.847,3.886,8.794,8.732,8.82c4.872,0.03,8.831-3.912,8.831-8.778 C32.782,29.401,30.636,26.475,27.837,25.081z"/><path fill="#4f8ccb" d="M27.816,25.098V6.036c0-0.538-0.436-0.975-0.975-0.975h-5.684c-0.538,0-0.975,0.436-0.975,0.975 v19.062c-2.779,1.383-4.91,4.309-4.936,7.855c-0.019,4.831,3.868,8.769,8.698,8.797c4.859,0.033,8.81-3.897,8.81-8.75 C32.755,29.393,30.596,26.482,27.816,25.098z"/><path fill="#508ccc" d="M27.796,25.115V6.04c0-0.537-0.435-0.972-0.972-0.972h-5.648c-0.537,0-0.972,0.435-0.972,0.972 v19.075c-2.759,1.373-4.9,4.286-4.929,7.833c-0.021,4.816,3.85,8.743,8.664,8.775c4.847,0.037,8.788-3.883,8.788-8.723 C32.728,29.384,30.555,26.488,27.796,25.115z"/><path fill="#518dcc" d="M27.776,25.132V6.044c0-0.535-0.434-0.969-0.969-0.969h-5.613c-0.535,0-0.969,0.434-0.969,0.969 v19.088c-2.739,1.363-4.897,4.262-4.922,7.811c-0.033,4.8,3.832,8.717,8.631,8.752c4.835,0.041,8.767-3.868,8.767-8.695 C32.701,29.376,30.515,26.495,27.776,25.132z"/><path fill="#528ecc" d="M27.755,25.149V6.048c0-0.534-0.433-0.966-0.966-0.966h-5.578c-0.534,0-0.966,0.433-0.966,0.966 v19.101c-2.719,1.353-4.888,4.239-4.915,7.789c-0.036,4.785,3.814,8.692,8.597,8.729c4.822,0.044,8.746-3.853,8.746-8.667 C32.673,29.367,30.474,26.502,27.755,25.149z"/><path fill="#538fcd" d="M27.735,25.166V6.052c0-0.532-0.431-0.963-0.963-0.963h-5.543c-0.532,0-0.963,0.431-0.963,0.963 v19.114c-2.699,1.343-4.879,4.215-4.908,7.767c-0.039,4.77,3.796,8.666,8.564,8.707c4.81,0.048,8.725-3.838,8.725-8.639 C32.646,29.359,30.434,26.509,27.735,25.166z"/><path fill="#548fcd" d="M27.714,25.182V6.056c0-0.53-0.43-0.96-0.96-0.96h-5.508c-0.53,0-0.96,0.43-0.96,0.96v19.127 c-2.679,1.333-4.869,4.191-4.901,7.745c-0.042,4.754,3.778,8.64,8.53,8.684c4.798,0.052,8.704-3.824,8.704-8.612 C32.619,29.351,30.393,26.516,27.714,25.182z"/><path fill="#5590ce" d="M27.694,25.199V6.06c0-0.529-0.429-0.958-0.958-0.958h-5.473c-0.529,0-0.958,0.429-0.958,0.958 v19.14c-2.659,1.323-4.86,4.168-4.894,7.723c-0.045,4.739,3.76,8.615,8.497,8.662c4.785,0.056,8.683-3.809,8.683-8.584 C32.592,29.342,30.353,26.522,27.694,25.199z"/><path fill="#5691ce" d="M27.673,25.216V6.064c0-0.527-0.427-0.955-0.955-0.955h-5.437c-0.527,0-0.955,0.427-0.955,0.955 v19.152c-2.638,1.313-4.851,4.144-4.887,7.701c-0.048,4.723,3.742,8.589,8.463,8.639c4.773,0.059,8.662-3.794,8.662-8.556 C32.565,29.334,30.312,26.529,27.673,25.216z"/><path fill="#5792ce" d="M27.653,25.233V6.068c0-0.526-0.426-0.952-0.952-0.952h-5.402c-0.526,0-0.952,0.426-0.952,0.952 v19.165c-2.618,1.303-4.841,4.121-4.879,7.679c-0.05,4.708,3.724,8.563,8.43,8.617c4.761,0.063,8.64-3.78,8.64-8.529 C32.537,29.325,30.271,26.536,27.653,25.233z"/><path fill="#5892cf" d="M27.633,25.25V6.072c0-0.524-0.425-0.949-0.949-0.949h-5.367c-0.524,0-0.949,0.425-0.949,0.949 V25.25c-2.598,1.293-4.832,4.097-4.872,7.657c-0.053,4.692,3.706,8.538,8.396,8.594c4.748,0.067,8.619-3.765,8.619-8.501 C32.51,29.317,30.231,26.543,27.633,25.25z"/><path fill="#5993cf" d="M27.612,25.267V6.076c0-0.523-0.424-0.946-0.946-0.946h-5.332c-0.523,0-0.946,0.424-0.946,0.946 v19.191c-2.578,1.283-4.823,4.073-4.865,7.635c-0.056,4.677,3.688,8.512,8.362,8.572c4.736,0.07,8.598-3.75,8.598-8.473 C32.483,29.309,30.19,26.55,27.612,25.267z"/><path fill="#5a94cf" d="M27.592,25.283V6.08c0-0.521-0.422-0.943-0.943-0.943h-5.297c-0.521,0-0.943,0.422-0.943,0.943 v19.204c-2.558,1.273-4.813,4.05-4.858,7.613c-0.059,4.661,3.67,8.486,8.329,8.549c4.723,0.074,8.577-3.736,8.577-8.445 C32.456,29.3,30.15,26.557,27.592,25.283z"/><path fill="#5b95d0" d="M27.571,25.3V6.084c0-0.52-0.421-0.941-0.941-0.941h-5.262c-0.52,0-0.941,0.421-0.941,0.941V25.3 c-2.538,1.263-4.804,4.026-4.851,7.591c-0.062,4.646,3.652,8.461,8.295,8.526c4.711,0.078,8.556-3.721,8.556-8.418 C32.429,29.292,30.109,26.563,27.571,25.3z"/><path fill="#5c95d0" d="M27.551,25.317V6.087c0-0.518-0.42-0.938-0.938-0.938h-5.226c-0.518,0-0.938,0.42-0.938,0.938v19.23 c-2.518,1.253-4.794,4.003-4.844,7.569c-0.065,4.63,3.634,8.435,8.262,8.504c4.699,0.081,8.535-3.706,8.535-8.39 C32.401,29.283,30.069,26.57,27.551,25.317z"/><path fill="#5d96d1" d="M27.531,25.334V6.091c0-0.516-0.419-0.935-0.935-0.935h-5.191c-0.516,0-0.935,0.419-0.935,0.935 v19.242c-2.498,1.243-4.785,3.979-4.837,7.547c-0.067,4.615,3.617,8.409,8.228,8.481c4.686,0.085,8.514-3.692,8.514-8.362 C32.374,29.275,30.028,26.577,27.531,25.334z"/><path fill="#5e97d1" d="M27.51,25.351V6.095c0-0.515-0.417-0.932-0.932-0.932h-5.156c-0.515,0-0.932,0.417-0.932,0.932 v19.255c-2.477,1.233-4.775,3.955-4.83,7.525c-0.07,4.599,3.599,8.383,8.195,8.459c4.674,0.089,8.492-3.677,8.492-8.334 C32.347,29.267,29.988,26.584,27.51,25.351z"/><path fill="#5f98d1" d="M27.49,25.368V6.099c0-0.513-0.416-0.929-0.929-0.929H21.44c-0.513,0-0.929,0.416-0.929,0.929 v19.268c-2.457,1.223-4.766,3.932-4.823,7.503c-0.073,4.584,3.581,8.358,8.161,8.436C28.51,41.399,32.32,37.644,32.32,33 C32.32,29.258,29.947,26.591,27.49,25.368z"/><path fill="#6098d2" d="M27.469,25.384V6.103c0-0.512-0.415-0.927-0.927-0.927h-5.086c-0.512,0-0.927,0.415-0.927,0.927 v19.281c-2.437,1.213-4.757,3.908-4.816,7.481c-0.076,4.568,3.563,8.332,8.127,8.414c4.649,0.096,8.45-3.648,8.45-8.279 C32.293,29.25,29.906,26.597,27.469,25.384z"/><path fill="#6199d2" d="M27.449,25.401V6.107c0-0.51-0.414-0.924-0.924-0.924h-5.051c-0.51,0-0.924,0.414-0.924,0.924 v19.294c-2.417,1.203-4.747,3.885-4.809,7.459c-0.078,4.553,3.545,8.306,8.094,8.391c4.637,0.1,8.429-3.633,8.429-8.251 C32.265,29.241,29.866,26.604,27.449,25.401z"/><path fill="#629ad2" d="M27.429,25.418V6.111c0-0.509-0.412-0.921-0.921-0.921h-5.015c-0.509,0-0.921,0.412-0.921,0.921 v19.307c-2.397,1.193-4.738,3.861-4.801,7.437c-0.081,4.537,3.527,8.281,8.06,8.369c4.625,0.104,8.408-3.618,8.408-8.223 C32.238,29.233,29.825,26.611,27.429,25.418z"/><path fill="#639bd3" d="M27.408,25.435V6.115c0-0.507-0.411-0.918-0.918-0.918h-4.98c-0.507,0-0.918,0.411-0.918,0.918 v19.32c-2.377,1.183-4.728,3.837-4.794,7.415c-0.084,4.522,3.509,8.255,8.027,8.346c4.612,0.107,8.387-3.603,8.387-8.196 C32.211,29.225,29.785,26.618,27.408,25.435z"/><path fill="#649bd3" d="M27.388,25.452V6.119c0-0.505-0.41-0.915-0.915-0.915h-4.945c-0.505,0-0.915,0.41-0.915,0.915 v19.332c-2.357,1.173-4.719,3.814-4.787,7.393c-0.086,4.506,3.491,8.229,7.993,8.324c4.6,0.111,8.365-3.589,8.365-8.168 C32.184,29.216,29.744,26.625,27.388,25.452z"/><path fill="#659cd4" d="M27.367,25.469V6.123c0-0.504-0.408-0.912-0.912-0.912h-4.91c-0.504,0-0.912,0.408-0.912,0.912 v19.345c-2.336,1.163-4.709,3.79-4.78,7.371c-0.089,4.491,3.473,8.204,7.96,8.301c4.588,0.115,8.344-3.574,8.344-8.14 C32.156,29.208,29.704,26.632,27.367,25.469z"/><path fill="#669dd4" d="M27.347,25.485V6.127c0-0.502-0.407-0.91-0.91-0.91h-4.875c-0.502,0-0.91,0.407-0.91,0.91v19.358 c-2.316,1.153-4.7,3.766-4.773,7.349c-0.092,4.476,3.455,8.178,7.926,8.278c4.575,0.118,8.323-3.559,8.323-8.112 C32.129,29.199,29.663,26.638,27.347,25.485z"/><path fill="#679dd4" d="M27.327,25.502V6.131c0-0.501-0.406-0.907-0.907-0.907h-4.84c-0.501,0-0.907,0.406-0.907,0.907 v19.371c-2.296,1.143-4.69,3.743-4.766,7.327c-0.094,4.46,3.437,8.152,7.893,8.256c4.563,0.122,8.302-3.545,8.302-8.085 C32.102,29.191,29.623,26.645,27.327,25.502z"/><path fill="#689ed5" d="M27.306,25.519V6.135c0-0.499-0.405-0.904-0.904-0.904h-4.804c-0.499,0-0.904,0.405-0.904,0.904 v19.384c-2.276,1.133-4.681,3.719-4.759,7.305c-0.097,4.445,3.419,8.127,7.859,8.233c4.55,0.126,8.281-3.53,8.281-8.057 C32.075,29.183,29.582,26.652,27.306,25.519z"/><path fill="#699fd5" d="M27.286,25.536V6.139c0-0.498-0.403-0.901-0.901-0.901h-4.769c-0.498,0-0.901,0.403-0.901,0.901 v19.397c-2.256,1.123-4.671,3.696-4.752,7.282c-0.099,4.429,3.401,8.101,7.825,8.211c4.538,0.13,8.26-3.515,8.26-8.029 C32.048,29.174,29.542,26.659,27.286,25.536z"/><path fill="#6aa0d5" d="M27.265,25.553V6.143c0-0.496-0.402-0.898-0.898-0.898h-4.734c-0.496,0-0.898,0.402-0.898,0.898 v19.41c-2.236,1.113-4.662,3.672-4.745,7.26c-0.102,4.414,3.383,8.075,7.792,8.188c4.526,0.133,8.239-3.501,8.239-8.002 C32.02,29.166,29.501,26.666,27.265,25.553z"/><path fill="#6ba0d6" d="M27.245,25.57V6.147c0-0.495-0.401-0.895-0.895-0.895h-4.699c-0.495,0-0.895,0.401-0.895,0.895 V25.57c-2.216,1.103-4.652,3.648-4.738,7.238c-0.105,4.398,3.365,8.049,7.758,8.166c4.513,0.137,8.217-3.486,8.217-7.974 C31.993,29.157,29.46,26.672,27.245,25.57z"/><path fill="#6ca1d6" d="M27.224,25.587V6.151c0-0.493-0.4-0.893-0.893-0.893h-4.664c-0.493,0-0.893,0.4-0.893,0.893v19.435 c-2.195,1.093-4.643,3.625-4.731,7.216c-0.107,4.383,3.347,8.024,7.725,8.143c4.501,0.141,8.196-3.471,8.196-7.946 C31.966,29.149,29.42,26.679,27.224,25.587z"/><path fill="#6da2d7" d="M27.204,25.603V6.155c0-0.491-0.398-0.89-0.89-0.89h-4.629c-0.491,0-0.89,0.398-0.89,0.89v19.448 c-2.175,1.083-4.633,3.601-4.723,7.194c-0.11,4.367,3.33,7.989,7.691,8.121c4.489,0.135,8.175-3.457,8.175-7.918 C31.939,29.141,29.379,26.686,27.204,25.603z"/><path fill="#6ea3d7" d="M27.184,25.62V6.159c0-0.49-0.397-0.887-0.887-0.887h-4.593c-0.49,0-0.887,0.397-0.887,0.887V25.62 c-2.155,1.073-4.624,3.578-4.716,7.172c-0.112,4.352,3.312,7.963,7.658,8.098c4.477,0.139,8.154-3.442,8.154-7.891 C31.912,29.132,29.339,26.693,27.184,25.62z"/><path fill="#6fa3d7" d="M27.163,25.637V6.163c0-0.488-0.396-0.884-0.884-0.884h-4.558c-0.488,0-0.884,0.396-0.884,0.884 v19.474c-2.135,1.063-4.614,3.554-4.709,7.15c-0.115,4.336,3.294,7.937,7.624,8.076c4.464,0.142,8.133-3.427,8.133-7.863 C31.884,29.124,29.298,26.7,27.163,25.637z"/><path fill="#70a4d8" d="M27.143,25.654V6.167c0-0.487-0.395-0.881-0.881-0.881h-4.523c-0.487,0-0.881,0.395-0.881,0.881 v19.487c-2.115,1.053-4.605,3.53-4.702,7.128c-0.117,4.321,3.276,7.912,7.591,8.053c4.452,0.146,8.112-3.412,8.112-7.835 C31.857,29.115,29.258,26.706,27.143,25.654z"/><path fill="#71a5d8" d="M27.122,25.671v-19.5c0-0.485-0.393-0.878-0.879-0.878h-4.488c-0.485,0-0.879,0.393-0.879,0.878 v19.5c-2.095,1.043-4.595,3.507-4.695,7.106c-0.12,4.305,3.258,7.886,7.557,8.03c4.44,0.149,8.09-3.398,8.09-7.807 C31.83,29.107,29.217,26.713,27.122,25.671z"/><path fill="#72a6d8" d="M27.102,25.688V6.175c0-0.484-0.392-0.876-0.876-0.876h-4.453c-0.484,0-0.876,0.392-0.876,0.876 v19.513c-2.075,1.033-4.585,3.483-4.688,7.084c-0.122,4.29,3.24,7.86,7.523,8.008c4.427,0.153,8.069-3.383,8.069-7.78 C31.803,29.099,29.177,26.72,27.102,25.688z"/><path fill="#73a6d9" d="M27.082,25.704V6.179c0-0.482-0.391-0.873-0.873-0.873h-4.418c-0.482,0-0.873,0.391-0.873,0.873 v19.525c-2.054,1.023-4.576,3.459-4.681,7.062c-0.125,4.274,3.222,7.834,7.49,7.985c4.415,0.156,8.048-3.368,8.048-7.752 C31.776,29.09,29.136,26.727,27.082,25.704z"/><path fill="#74a7d9" d="M27.061,25.721V6.183c0-0.481-0.39-0.87-0.87-0.87h-4.382c-0.481,0-0.87,0.39-0.87,0.87v19.538 c-2.034,1.012-4.566,3.436-4.674,7.04c-0.127,4.259,3.204,7.808,7.456,7.963c4.403,0.16,8.027-3.354,8.027-7.724 C31.748,29.082,29.095,26.734,27.061,25.721z"/><path fill="#75a8da" d="M27.041,25.738V6.187c0-0.479-0.388-0.867-0.867-0.867h-4.347c-0.479,0-0.867,0.388-0.867,0.867 v19.551c-2.014,1.002-4.557,3.412-4.667,7.018c-0.13,4.243,3.186,7.782,7.423,7.94c4.39,0.163,8.006-3.339,8.006-7.696 C31.721,29.073,29.055,26.741,27.041,25.738z"/><path fill="#76a9da" d="M27.02,25.755V6.191c0-0.477-0.387-0.864-0.864-0.864h-4.312c-0.477,0-0.864,0.387-0.864,0.864 v19.564c-1.994,0.992-4.547,3.389-4.66,6.996c-0.132,4.228,3.168,7.757,7.389,7.918c4.378,0.167,7.985-3.324,7.985-7.669 C31.694,29.065,29.014,26.747,27.02,25.755z"/><path fill="#77a9da" d="M27,25.772V6.195c0-0.476-0.386-0.862-0.862-0.862h-4.277C21.386,5.333,21,5.719,21,6.195v19.577 c-1.974,0.982-4.537,3.365-4.653,6.974c-0.134,4.212,3.15,7.731,7.356,7.895c4.366,0.171,7.964-3.31,7.964-7.641 C31.667,29.057,28.974,26.754,27,25.772z"/><path fill="#78aadb" d="M26.98,25.789V6.199c0-0.474-0.384-0.859-0.859-0.859h-4.242c-0.474,0-0.859,0.384-0.859,0.859 v19.59c-1.954,0.972-4.528,3.341-4.645,6.952c-0.137,4.197,3.132,7.705,7.322,7.873c4.353,0.174,7.942-3.295,7.942-7.613 C31.639,29.048,28.933,26.761,26.98,25.789z"/><path fill="#79abdb" d="M26.959,25.805V6.203c0-0.473-0.383-0.856-0.856-0.856h-4.207c-0.473,0-0.856,0.383-0.856,0.856 v19.603c-1.934,0.962-4.518,3.318-4.638,6.93c-0.139,4.181,3.114,7.679,7.289,7.85c4.341,0.178,7.921-3.28,7.921-7.586 C31.612,29.04,28.893,26.768,26.959,25.805z"/><path fill="#7aacdb" d="M26.939,25.822V6.207c0-0.471-0.382-0.853-0.853-0.853h-4.171c-0.471,0-0.853,0.382-0.853,0.853 v19.615c-1.913,0.952-4.508,3.294-4.631,6.908c-0.142,4.166,3.096,7.653,7.255,7.827c4.329,0.181,7.9-3.266,7.9-7.558 C31.585,29.031,28.852,26.775,26.939,25.822z"/><path fill="#7bacdc" d="M26.918,25.839V6.211c0-0.47-0.381-0.85-0.85-0.85h-4.136c-0.47,0-0.85,0.381-0.85,0.85v19.628 c-1.893,0.942-4.499,3.271-4.624,6.886c-0.144,4.15,3.078,7.628,7.221,7.805c4.316,0.185,7.879-3.251,7.879-7.53 C31.558,29.023,28.812,26.781,26.918,25.839z"/><path fill="#7caddc" d="M26.898,25.856V6.215c0-0.468-0.379-0.847-0.847-0.847h-4.101c-0.468,0-0.847,0.379-0.847,0.847 v19.641c-1.873,0.932-4.489,3.247-4.617,6.864c-0.146,4.135,3.06,7.602,7.188,7.782c4.304,0.188,7.858-3.236,7.858-7.502 C31.531,29.015,28.771,26.788,26.898,25.856z"/><path fill="#7daedd" d="M26.878,25.873V6.219c0-0.466-0.378-0.845-0.845-0.845h-4.066c-0.466,0-0.845,0.378-0.845,0.845 v19.654c-1.853,0.922-4.479,3.223-4.61,6.842c-0.149,4.119,3.043,7.576,7.154,7.76c4.291,0.192,7.837-3.221,7.837-7.475 C31.503,29.006,28.731,26.795,26.878,25.873z"/><path fill="#7eafdd" d="M26.857,25.89V6.223c0-0.465-0.377-0.842-0.842-0.842h-4.031c-0.465,0-0.842,0.377-0.842,0.842 V25.89c-1.833,0.912-4.47,3.2-4.603,6.82c-0.151,4.104,3.025,7.55,7.121,7.737c4.279,0.196,7.816-3.207,7.816-7.447 C31.476,28.998,28.69,26.802,26.857,25.89z"/><path fill="#7fafdd" d="M26.837,25.906V6.227c0-0.463-0.376-0.839-0.839-0.839h-3.996c-0.463,0-0.839,0.376-0.839,0.839 v19.68c-1.813,0.902-4.46,3.176-4.596,6.798c-0.153,4.088,3.007,7.524,7.087,7.715c4.267,0.199,7.794-3.192,7.794-7.419 C31.449,28.989,28.649,26.809,26.837,25.906z"/><path fill="#80b0de" d="M26.816,25.923V6.231c0-0.462-0.374-0.836-0.836-0.836h-3.96c-0.462,0-0.836,0.374-0.836,0.836 v19.693c-1.793,0.892-4.45,3.152-4.589,6.776c-0.155,4.073,2.989,7.499,7.054,7.692c4.254,0.203,7.773-3.177,7.773-7.391 C31.422,28.981,28.609,26.816,26.816,25.923z"/><path fill="#81b1de" d="M26.796,25.94V6.235c0-0.46-0.373-0.833-0.833-0.833h-3.925c-0.46,0-0.833,0.373-0.833,0.833V25.94 c-1.772,0.882-4.441,3.129-4.582,6.754c-0.158,4.057,2.971,7.473,7.02,7.67c4.242,0.206,7.752-3.163,7.752-7.364 C31.395,28.973,28.568,26.822,26.796,25.94z"/><path fill="#82b1de" d="M26.776,25.957V6.239c0-0.459-0.372-0.83-0.83-0.83h-3.89c-0.459,0-0.83,0.372-0.83,0.83v19.718 c-1.752,0.872-4.431,3.105-4.575,6.732c-0.16,4.042,2.953,7.447,6.987,7.647c4.23,0.21,7.731-3.148,7.731-7.336 C31.367,28.964,28.528,26.829,26.776,25.957z"/><path fill="#83b2df" d="M26.755,25.974V6.243c0-0.457-0.371-0.828-0.828-0.828h-3.855c-0.457,0-0.828,0.371-0.828,0.828 v19.731c-1.732,0.862-4.421,3.082-4.567,6.71c-0.162,4.026,2.935,7.421,6.953,7.625c4.217,0.213,7.71-3.133,7.71-7.308 C31.34,28.956,28.487,26.836,26.755,25.974z"/><path fill="#84b3df" d="M26.735,25.991V6.247c0-0.456-0.369-0.825-0.825-0.825h-3.82c-0.456,0-0.825,0.369-0.825,0.825 v19.744c-1.712,0.852-4.412,3.058-4.56,6.688c-0.164,4.011,2.917,7.395,6.919,7.602c4.205,0.217,7.689-3.119,7.689-7.28 C31.313,28.947,28.447,26.843,26.735,25.991z"/><path fill="#85b4e0" d="M26.714,26.008V6.251c0-0.454-0.368-0.822-0.822-0.822h-3.785c-0.454,0-0.822,0.368-0.822,0.822 v19.757c-1.692,0.842-4.402,3.034-4.553,6.666c-0.167,3.996,2.899,7.37,6.886,7.579c4.193,0.221,7.667-3.104,7.667-7.253 C31.286,28.939,28.406,26.85,26.714,26.008z"/><path fill="#86b4e0" d="M26.694,26.024V6.255c0-0.452-0.367-0.819-0.819-0.819h-3.749c-0.452,0-0.819,0.367-0.819,0.819 v19.77c-1.672,0.832-4.392,3.011-4.546,6.644c-0.169,3.98,2.881,7.344,6.852,7.557c4.18,0.224,7.646-3.089,7.646-7.225 C31.259,28.931,28.366,26.856,26.694,26.024z"/><path fill="#87b5e0" d="M26.673,26.041V6.259c0-0.451-0.365-0.816-0.816-0.816h-3.714c-0.451,0-0.816,0.365-0.816,0.816 v19.783c-1.652,0.822-4.382,2.987-4.539,6.622c-0.171,3.965,2.863,7.318,6.819,7.534c4.168,0.228,7.625-3.075,7.625-7.197 C31.231,28.922,28.325,26.863,26.673,26.041z"/><path fill="#88b6e1" d="M26.653,26.058V6.262c0-0.449-0.364-0.814-0.814-0.814H22.16c-0.449,0-0.814,0.364-0.814,0.814 v19.796c-1.631,0.812-4.372,2.963-4.532,6.6c-0.173,3.949,2.845,7.292,6.785,7.512c4.156,0.232,7.604-3.06,7.604-7.17 C31.204,28.914,28.284,26.87,26.653,26.058z"/><path fill="#89b7e1" d="M26.633,26.075V6.266c0-0.448-0.363-0.811-0.811-0.811h-3.644c-0.448,0-0.811,0.363-0.811,0.811 v19.808c-1.611,0.802-4.363,2.94-4.525,6.578c-0.175,3.934,2.827,7.267,6.752,7.489c4.143,0.235,7.583-3.045,7.583-7.142 C31.177,28.905,28.244,26.877,26.633,26.075z"/><path fill="#8ab7e1" d="M26.612,26.092V6.27c0-0.446-0.362-0.808-0.808-0.808h-3.609c-0.446,0-0.808,0.362-0.808,0.808 v19.821c-1.591,0.792-4.353,2.916-4.518,6.556c-0.178,3.918,2.809,7.241,6.718,7.467c4.131,0.239,7.562-3.03,7.562-7.114 C31.15,28.897,28.203,26.884,26.612,26.092z"/><path fill="#8bb8e2" d="M26.592,26.109V6.274c0-0.445-0.36-0.805-0.805-0.805h-3.574c-0.445,0-0.805,0.36-0.805,0.805 v19.834c-1.571,0.782-4.343,2.893-4.511,6.534c-0.18,3.903,2.791,7.215,6.684,7.444c4.119,0.242,7.541-3.016,7.541-7.086 C31.122,28.889,28.163,26.891,26.592,26.109z"/><path fill="#8cb9e2" d="M26.571,26.125V6.278c0-0.443-0.359-0.802-0.802-0.802h-3.538c-0.443,0-0.802,0.359-0.802,0.802 v19.847c-1.551,0.772-4.333,2.869-4.504,6.512c-0.182,3.887,2.774,7.189,6.651,7.422c4.106,0.246,7.519-3.001,7.519-7.059 C31.095,28.88,28.122,26.897,26.571,26.125z"/><path fill="#8dbae3" d="M26.551,26.142V6.282c0-0.441-0.358-0.799-0.799-0.799h-3.503c-0.441,0-0.799,0.358-0.799,0.799 v19.86c-1.531,0.762-4.323,2.845-4.497,6.49c-0.184,3.872,2.756,7.164,6.617,7.399c4.094,0.25,7.498-2.986,7.498-7.031 C31.068,28.872,28.082,26.904,26.551,26.142z"/><path fill="#8ebae3" d="M26.531,26.159V6.286c0-0.44-0.357-0.797-0.797-0.797h-3.468c-0.44,0-0.797,0.357-0.797,0.797 v19.873c-1.511,0.752-4.314,2.822-4.489,6.468c-0.186,3.856,2.738,7.138,6.584,7.376c4.082,0.253,7.477-2.972,7.477-7.003 C31.041,28.863,28.041,26.911,26.531,26.159z"/><path fill="#8fbbe3" d="M26.51,26.176V6.29c0-0.438-0.355-0.794-0.794-0.794h-3.433c-0.438,0-0.794,0.355-0.794,0.794 v19.886c-1.49,0.742-4.304,2.798-4.482,6.445c-0.188,3.841,2.72,7.112,6.55,7.354c4.069,0.257,7.456-2.957,7.456-6.975 C31.014,28.855,28.001,26.918,26.51,26.176z"/><path fill="#90bce4" d="M26.49,26.193V6.294c0-0.437-0.354-0.791-0.791-0.791h-3.398c-0.437,0-0.791,0.354-0.791,0.791 v19.898c-1.47,0.732-4.294,2.775-4.475,6.423c-0.19,3.825,2.702,7.086,6.517,7.331c4.057,0.261,7.435-2.942,7.435-6.948 C30.986,28.847,27.96,26.925,26.49,26.193z"/><path fill="#91bde4" d="M26.469,26.21V6.298c0-0.435-0.353-0.788-0.788-0.788h-3.363c-0.435,0-0.788,0.353-0.788,0.788 V26.21c-1.45,0.722-4.284,2.751-4.468,6.401c-0.192,3.81,2.684,7.061,6.483,7.309c4.045,0.264,7.414-2.928,7.414-6.92 C30.959,28.838,27.92,26.931,26.469,26.21z"/><path fill="#92bde4" d="M26.449,26.226V6.302c0-0.434-0.352-0.785-0.785-0.785h-3.327c-0.434,0-0.785,0.352-0.785,0.785 v19.924c-1.43,0.712-4.274,2.727-4.461,6.379c-0.194,3.794,2.666,7.035,6.45,7.286c4.032,0.268,7.392-2.913,7.392-6.892 C30.932,28.83,27.879,26.938,26.449,26.226z"/><path fill="#93bee5" d="M26.429,26.243V6.306c0-0.432-0.35-0.782-0.782-0.782h-3.292c-0.432,0-0.782,0.35-0.782,0.782 v19.937c-1.41,0.702-4.264,2.704-4.454,6.357c-0.196,3.779,2.648,7.009,6.416,7.264c4.02,0.272,7.371-2.898,7.371-6.864 C30.905,28.821,27.838,26.945,26.429,26.243z"/><path fill="#94bfe5" d="M26.408,26.26V6.31c0-0.431-0.349-0.78-0.78-0.78h-3.257c-0.431,0-0.78,0.349-0.78,0.78v19.95 c-1.39,0.692-4.254,2.68-4.447,6.335c-0.198,3.763,2.63,6.984,6.382,7.241c4.008,0.275,7.35-2.884,7.35-6.837 C30.878,28.813,27.798,26.952,26.408,26.26z"/><path fill="#95c0e6" d="M26.388,26.277V6.314c0-0.429-0.348-0.777-0.777-0.777h-3.222c-0.429,0-0.777,0.348-0.777,0.777 v19.963c-1.37,0.682-4.244,2.656-4.44,6.313c-0.2,3.748,2.612,6.958,6.349,7.219C27.517,40.088,30.85,36.94,30.85,33 C30.85,28.805,27.757,26.959,26.388,26.277z"/><path fill="#96c0e6" d="M26.367,26.294V6.318c0-0.427-0.347-0.774-0.774-0.774h-3.187c-0.427,0-0.774,0.347-0.774,0.774 v19.976c-1.349,0.672-4.234,2.633-4.433,6.291c-0.202,3.732,2.594,6.932,6.315,7.196c3.983,0.283,7.308-2.854,7.308-6.781 C30.823,28.796,27.717,26.965,26.367,26.294z"/><path fill="#97c1e6" d="M26.347,26.311V6.322c0-0.426-0.345-0.771-0.771-0.771h-3.152c-0.426,0-0.771,0.345-0.771,0.771 v19.989c-1.329,0.662-4.224,2.609-4.426,6.269c-0.204,3.717,2.576,6.906,6.282,7.174c3.971,0.286,7.287-2.839,7.287-6.753 C30.796,28.788,27.676,26.972,26.347,26.311z"/><path fill="#98c2e7" d="M26.327,26.327V6.326c0-0.424-0.344-0.768-0.768-0.768h-3.116c-0.424,0-0.768,0.344-0.768,0.768 v20.001c-1.309,0.652-4.214,2.586-4.419,6.247c-0.206,3.701,2.558,6.881,6.248,7.151c3.958,0.29,7.266-2.825,7.266-6.726 C30.769,28.779,27.636,26.979,26.327,26.327z"/><path fill="#99c3e7" d="M26.306,26.344V6.33c0-0.423-0.343-0.765-0.765-0.765h-3.081c-0.423,0-0.765,0.343-0.765,0.765 v20.014c-1.289,0.642-4.205,2.562-4.411,6.225c-0.208,3.686,2.54,6.855,6.215,7.128c3.946,0.294,7.244-2.81,7.244-6.698 C30.741,28.771,27.595,26.986,26.306,26.344z"/><path fill="#9ac3e7" d="M26.286,26.361V6.334c0-0.421-0.341-0.763-0.763-0.763h-3.046c-0.421,0-0.763,0.341-0.763,0.763 v20.027c-1.269,0.632-4.195,2.538-4.404,6.203c-0.21,3.67,2.522,6.829,6.181,7.106c3.934,0.297,7.223-2.795,7.223-6.67 C30.714,28.763,27.555,26.993,26.286,26.361z"/><path fill="#9bc4e8" d="M26.265,26.378V6.338c0-0.42-0.34-0.76-0.76-0.76h-3.011c-0.42,0-0.76,0.34-0.76,0.76v20.04 c-1.249,0.622-4.185,2.515-4.397,6.181c-0.212,3.655,2.504,6.804,6.148,7.083c3.921,0.301,7.202-2.781,7.202-6.643 C30.687,28.754,27.514,27,26.265,26.378z"/><path fill="#9cc5e8" d="M26.245,26.395V6.342c0-0.418-0.339-0.757-0.757-0.757h-2.976c-0.418,0-0.757,0.339-0.757,0.757 v20.053c-1.229,0.612-4.174,2.491-4.39,6.159c-0.214,3.64,2.487,6.778,6.114,7.061C27.388,39.92,30.66,36.849,30.66,33 C30.66,28.746,27.474,27.006,26.245,26.395z"/><path fill="#9dc6e9" d="M26.224,26.412V6.346c0-0.417-0.338-0.754-0.754-0.754H22.53c-0.417,0-0.754,0.338-0.754,0.754 v20.066c-1.208,0.601-4.164,2.468-4.383,6.137c-0.216,3.624,2.469,6.752,6.08,7.038c3.897,0.308,7.16-2.751,7.16-6.587 C30.633,28.737,27.433,27.013,26.224,26.412z"/><path fill="#9ec6e9" d="M26.204,26.429V6.35c0-0.415-0.336-0.751-0.751-0.751h-2.905c-0.415,0-0.751,0.336-0.751,0.751 v20.079c-1.188,0.591-4.154,2.444-4.376,6.115c-0.218,3.609,2.451,6.727,6.047,7.016c3.884,0.312,7.139-2.737,7.139-6.559 C30.605,28.729,27.392,27.02,26.204,26.429z"/><path fill="#9fc7e9" d="M26.184,26.445V6.354c0-0.413-0.335-0.749-0.749-0.749h-2.87c-0.413,0-0.749,0.335-0.749,0.749 v20.091c-1.168,0.581-4.144,2.42-4.369,6.093c-0.22,3.593,2.433,6.701,6.013,6.993c3.872,0.316,7.118-2.722,7.118-6.532 C30.578,28.721,27.352,27.027,26.184,26.445z"/><path fill="#a0c8ea" d="M26.163,26.462V6.358c0-0.412-0.334-0.746-0.746-0.746h-2.835c-0.412,0-0.746,0.334-0.746,0.746 v20.104c-1.148,0.571-4.134,2.397-4.362,6.071c-0.222,3.578,2.415,6.675,5.98,6.971c3.86,0.32,7.096-2.707,7.096-6.504 C30.551,28.712,27.311,27.034,26.163,26.462z"/><path fill="#a1c8ea" d="M26.143,26.479V6.362c0-0.41-0.333-0.743-0.743-0.743h-2.8c-0.41,0-0.743,0.333-0.743,0.743v20.117 c-1.128,0.561-4.124,2.373-4.355,6.049c-0.223,3.562,2.397,6.65,5.946,6.948c3.847,0.323,7.075-2.693,7.075-6.476 C30.524,28.704,27.271,27.04,26.143,26.479z"/><path fill="#a2c9ea" d="M26.122,26.496V6.366c0-0.409-0.331-0.74-0.74-0.74h-2.765c-0.409,0-0.74,0.331-0.74,0.74v20.13 c-1.108,0.551-4.114,2.349-4.348,6.027c-0.225,3.547,2.379,6.624,5.913,6.926c3.835,0.327,7.054-2.678,7.054-6.448 C30.497,28.695,27.23,27.047,26.122,26.496z"/><path fill="#a3caeb" d="M26.102,26.513V6.37c0-0.407-0.33-0.737-0.737-0.737h-2.73c-0.407,0-0.737,0.33-0.737,0.737v20.143 c-1.088,0.541-4.104,2.326-4.341,6.005c-0.227,3.531,2.361,6.598,5.879,6.903c3.823,0.331,7.033-2.663,7.033-6.421 C30.469,28.687,27.19,27.054,26.102,26.513z"/><path fill="#a4cbeb" d="M26.082,26.53V6.374c0-0.406-0.329-0.734-0.734-0.734h-2.694c-0.406,0-0.734,0.329-0.734,0.734 V26.53c-1.067,0.531-4.094,2.302-4.333,5.983c-0.229,3.516,2.343,6.573,5.846,6.88c3.81,0.335,7.012-2.648,7.012-6.393 C30.442,28.679,27.149,27.061,26.082,26.53z"/><path fill="#a5cbec" d="M26.061,26.546V6.378c0-0.404-0.328-0.732-0.732-0.732H22.67c-0.404,0-0.732,0.328-0.732,0.732 v20.169c-1.047,0.521-4.084,2.279-4.326,5.961c-0.231,3.5,2.325,6.547,5.812,6.858c3.798,0.338,6.991-2.634,6.991-6.365 C30.415,28.67,27.109,27.068,26.061,26.546z"/><path fill="#a6ccec" d="M26.041,26.563V6.382c0-0.402-0.326-0.729-0.729-0.729h-2.624c-0.402,0-0.729,0.326-0.729,0.729 v20.181c-1.027,0.511-4.074,2.255-4.319,5.939c-0.232,3.485,2.307,6.522,5.778,6.835c3.786,0.342,6.969-2.619,6.969-6.337 C30.388,28.662,27.068,27.075,26.041,26.563z"/><path fill="#a7cdec" d="M26.02,26.58V6.386c0-0.401-0.325-0.726-0.726-0.726h-2.589c-0.401,0-0.726,0.325-0.726,0.726V26.58 c-1.007,0.501-4.063,2.231-4.312,5.917c-0.234,3.469,2.289,6.496,5.745,6.813c3.773,0.346,6.948-2.604,6.948-6.31 C30.361,28.653,27.027,27.081,26.02,26.58z"/><path fill="#a8ceed" d="M26,26.597V6.39c0-0.399-0.324-0.723-0.723-0.723h-2.554C22.324,5.667,22,5.99,22,6.39v20.207 c-0.987,0.491-4.053,2.208-4.305,5.895c-0.236,3.454,2.271,6.47,5.711,6.79c3.761,0.35,6.927-2.59,6.927-6.282 C30.333,28.645,26.987,27.088,26,26.597z"/><path fill="#a9ceed" d="M25.98,26.614V6.394c0-0.398-0.322-0.72-0.72-0.72h-2.519c-0.398,0-0.72,0.322-0.72,0.72v20.22 c-0.967,0.481-4.043,2.184-4.298,5.873c-0.238,3.438,2.253,6.445,5.678,6.768c3.749,0.353,6.906-2.575,6.906-6.254 C30.306,28.637,26.946,27.095,25.98,26.614z"/><path fill="#aacfed" d="M25.959,26.631V6.398c0-0.396-0.321-0.717-0.717-0.717h-2.483c-0.396,0-0.717,0.321-0.717,0.717 v20.233c-0.947,0.471-4.033,2.161-4.291,5.851c-0.239,3.423,2.235,6.419,5.644,6.745c3.736,0.357,6.885-2.56,6.885-6.227 C30.279,28.628,26.906,27.102,25.959,26.631z"/><path fill="#abd0ee" d="M25.939,26.647V6.402c0-0.395-0.32-0.715-0.715-0.715h-2.448c-0.395,0-0.715,0.32-0.715,0.715 v20.246c-0.926,0.461-4.023,2.137-4.284,5.829c-0.241,3.408,2.217,6.394,5.611,6.723c3.724,0.361,6.864-2.546,6.864-6.199 C30.252,28.62,26.865,27.109,25.939,26.647z"/><path fill="#acd1ee" d="M25.918,26.664V6.406c0-0.393-0.319-0.712-0.712-0.712h-2.413c-0.393,0-0.712,0.319-0.712,0.712 v20.259c-0.906,0.451-4.012,2.114-4.277,5.807c-0.243,3.392,2.199,6.368,5.577,6.7c3.711,0.365,6.843-2.531,6.843-6.171 C30.224,28.611,26.825,27.115,25.918,26.664z"/><path fill="#add1ef" d="M25.898,26.681V6.41c0-0.392-0.317-0.709-0.709-0.709h-2.378c-0.392,0-0.709,0.317-0.709,0.709 v20.271c-0.886,0.441-4.002,2.09-4.27,5.785c-0.245,3.377,2.181,6.342,5.544,6.677c3.699,0.369,6.821-2.516,6.821-6.143 C30.197,28.603,26.784,27.122,25.898,26.681z"/><path fill="#aed2ef" d="M25.878,26.698V6.414c0-0.39-0.316-0.706-0.706-0.706h-2.343c-0.39,0-0.706,0.316-0.706,0.706 v20.284c-0.866,0.431-3.992,2.066-4.263,5.763c-0.246,3.361,2.164,6.317,5.51,6.655c3.687,0.372,6.8-2.502,6.8-6.116 C30.17,28.595,26.744,27.129,25.878,26.698z"/><path fill="#afd3ef" d="M25.857,26.715V6.418c0-0.388-0.315-0.703-0.703-0.703h-2.308c-0.388,0-0.703,0.315-0.703,0.703 v20.297c-0.846,0.421-3.981,2.043-4.255,5.741c-0.248,3.346,2.146,6.291,5.476,6.632c3.674,0.376,6.779-2.487,6.779-6.088 C30.143,28.586,26.703,27.136,25.857,26.715z"/><path fill="#b0d4f0" d="M25.837,26.732V6.422c0-0.387-0.314-0.7-0.7-0.7h-2.272c-0.387,0-0.7,0.314-0.7,0.7v20.31 c-0.826,0.411-3.971,2.019-4.248,5.719c-0.25,3.33,2.128,6.266,5.443,6.61c3.662,0.38,6.758-2.472,6.758-6.06 C30.116,28.578,26.663,27.143,25.837,26.732z"/><path fill="#b1d4f0" d="M25.816,26.749V6.426c0-0.385-0.312-0.698-0.698-0.698h-2.237c-0.385,0-0.698,0.312-0.698,0.698 v20.323c-0.806,0.401-3.961,1.996-4.241,5.697c-0.251,3.315,2.11,6.24,5.409,6.587c3.65,0.384,6.737-2.458,6.737-6.032 C30.088,28.569,26.622,27.149,25.816,26.749z"/><path fill="#b2d5f0" d="M25.796,26.765V6.43c0-0.384-0.311-0.695-0.695-0.695h-2.202c-0.384,0-0.695,0.311-0.695,0.695 v20.336c-0.786,0.391-3.95,1.972-4.234,5.675c-0.253,3.299,2.092,6.215,5.376,6.565c3.637,0.388,6.716-2.443,6.716-6.005 C30.061,28.561,26.581,27.156,25.796,26.765z"/><path fill="#b3d6f1" d="M25.776,26.782V6.434c0-0.382-0.31-0.692-0.692-0.692h-2.167c-0.382,0-0.692,0.31-0.692,0.692 v20.349c-0.765,0.381-3.94,1.948-4.227,5.653c-0.255,3.284,2.074,6.189,5.342,6.542c3.625,0.392,6.694-2.428,6.694-5.977 C30.034,28.553,26.541,27.163,25.776,26.782z"/><path fill="#b4d7f1" d="M25.755,26.799V6.437c0-0.381-0.309-0.689-0.689-0.689h-2.132c-0.381,0-0.689,0.309-0.689,0.689 v20.362c-0.745,0.371-3.93,1.925-4.22,5.631c-0.256,3.268,2.056,6.164,5.309,6.52c3.613,0.395,6.673-2.413,6.673-5.949 C30.007,28.544,26.5,27.17,25.755,26.799z"/><path fill="#b5d7f2" d="M25.735,26.816V6.441c0-0.379-0.307-0.686-0.686-0.686h-2.097c-0.379,0-0.686,0.307-0.686,0.686 v20.374c-0.725,0.361-3.919,1.901-4.213,5.608c-0.258,3.253,2.038,6.138,5.275,6.497c3.6,0.399,6.652-2.399,6.652-5.921 C29.98,28.536,26.46,27.177,25.735,26.816z"/><path fill="#b6d8f2" d="M25.714,26.833V6.445c0-0.378-0.306-0.684-0.684-0.684h-2.062c-0.378,0-0.684,0.306-0.684,0.684 v20.387c-0.705,0.351-3.909,1.878-4.206,5.586c-0.259,3.238,2.02,6.112,5.241,6.475c3.588,0.403,6.631-2.384,6.631-5.894 C29.952,28.527,26.419,27.184,25.714,26.833z"/><path fill="#b7d9f2" d="M25.694,26.85v-20.4c0-0.376-0.305-0.681-0.681-0.681h-2.026c-0.376,0-0.681,0.305-0.681,0.681v20.4 c-0.685,0.341-3.898,1.854-4.199,5.564c-0.261,3.222,2.002,6.087,5.208,6.452c3.576,0.407,6.61-2.369,6.61-5.866 C29.925,28.519,26.379,27.19,25.694,26.85z"/><path fill="#b8daf3" d="M25.673,26.866V6.453c0-0.374-0.303-0.678-0.678-0.678h-1.991c-0.374,0-0.678,0.303-0.678,0.678 v20.413c-0.665,0.331-3.888,1.831-4.192,5.542c-0.262,3.207,1.984,6.061,5.174,6.429c3.563,0.411,6.589-2.355,6.589-5.838 C29.898,28.511,26.338,27.197,25.673,26.866z"/><path fill="#b9daf3" d="M25.653,26.883V6.457c0-0.373-0.302-0.675-0.675-0.675h-1.956c-0.373,0-0.675,0.302-0.675,0.675 v20.426c-0.645,0.321-3.877,1.807-4.185,5.52c-0.264,3.191,1.966,6.036,5.141,6.407c3.551,0.415,6.568-2.34,6.568-5.811 C29.871,28.502,26.298,27.204,25.653,26.883z"/><path fill="#badbf3" d="M25.633,26.9V6.461c0-0.371-0.301-0.672-0.672-0.672H23.04c-0.371,0-0.672,0.301-0.672,0.672V26.9 c-0.624,0.311-3.867,1.783-4.177,5.498c-0.266,3.176,1.948,6.01,5.107,6.384c3.538,0.419,6.546-2.325,6.546-5.783 C29.844,28.494,26.257,27.211,25.633,26.9z"/><path fill="#bbdcf4" d="M25.612,26.917V6.465c0-0.37-0.3-0.669-0.669-0.669h-1.886c-0.37,0-0.669,0.3-0.669,0.669v20.452 c-0.604,0.301-3.856,1.76-4.17,5.476c-0.267,3.16,1.93,5.985,5.074,6.362c3.526,0.423,6.525-2.311,6.525-5.755 C29.816,28.485,26.216,27.218,25.612,26.917z"/><path fill="#bcdcf4" d="M25.592,26.934V6.469c0-0.368-0.298-0.667-0.667-0.667h-1.851c-0.368,0-0.667,0.298-0.667,0.667 v20.464c-0.584,0.291-3.846,1.736-4.163,5.454c-0.269,3.145,1.912,5.959,5.04,6.339c3.514,0.427,6.504-2.296,6.504-5.727 C29.789,28.477,26.176,27.224,25.592,26.934z"/><path fill="#bdddf5" d="M25.571,26.951V6.473c0-0.367-0.297-0.664-0.664-0.664h-1.815c-0.367,0-0.664,0.297-0.664,0.664 v20.477c-0.564,0.281-3.835,1.713-4.156,5.432c-0.27,3.13,1.894,5.934,5.007,6.317c3.501,0.431,6.483-2.281,6.483-5.7 C29.762,28.469,26.135,27.231,25.571,26.951z"/><path fill="#bedef5" d="M25.551,26.967V6.477c0-0.365-0.296-0.661-0.661-0.661h-1.78c-0.365,0-0.661,0.296-0.661,0.661 v20.49c-0.544,0.271-3.825,1.689-4.149,5.41c-0.272,3.114,1.876,5.909,4.973,6.294c3.489,0.434,6.462-2.267,6.462-5.672 C29.735,28.46,26.095,27.238,25.551,26.967z"/><path fill="#bfdff5" d="M25.531,26.984V6.481c0-0.363-0.295-0.658-0.658-0.658h-1.745c-0.363,0-0.658,0.295-0.658,0.658 v20.503c-0.524,0.261-3.814,1.666-4.142,5.388c-0.273,3.099,1.858,5.883,4.939,6.272c3.477,0.438,6.441-2.252,6.441-5.644 C29.707,28.452,26.054,27.245,25.531,26.984z"/><path fill="#c0dff6" d="M25.51,27.001V6.485c0-0.362-0.293-0.655-0.655-0.655h-1.71c-0.362,0-0.655,0.293-0.655,0.655 v20.516c-0.504,0.251-3.803,1.642-4.135,5.366c-0.274,3.083,1.84,5.858,4.906,6.249c3.464,0.442,6.42-2.237,6.42-5.616 C29.68,28.443,26.014,27.252,25.51,27.001z"/><path fill="#c1e0f6" d="M25.49,27.018V6.489c0-0.36-0.292-0.652-0.652-0.652h-1.675c-0.36,0-0.652,0.292-0.652,0.652v20.529 c-0.483,0.241-3.793,1.619-4.128,5.344c-0.276,3.068,1.822,5.832,4.872,6.227c3.452,0.446,6.398-2.222,6.398-5.589 C29.653,28.435,25.973,27.259,25.49,27.018z"/><path fill="#c2e1f6" d="M25.469,27.035V6.493c0-0.359-0.291-0.65-0.65-0.65h-1.64c-0.359,0-0.65,0.291-0.65,0.65v20.542 c-0.463,0.231-3.782,1.595-4.121,5.322c-0.277,3.052,1.804,5.807,4.839,6.204c3.44,0.45,6.377-2.208,6.377-5.561 C29.626,28.427,25.933,27.265,25.469,27.035z"/><path fill="#c3e2f7" d="M25.449,27.052V6.497c0-0.357-0.29-0.647-0.647-0.647h-1.604c-0.357,0-0.647,0.29-0.647,0.647 v20.554c-0.443,0.221-3.771,1.571-4.114,5.3c-0.279,3.037,1.786,5.781,4.805,6.181c3.427,0.454,6.356-2.193,6.356-5.533 C29.599,28.418,25.892,27.272,25.449,27.052z"/><path fill="#c4e2f7" d="M25.429,27.068V6.501c0-0.356-0.288-0.644-0.644-0.644h-1.569c-0.356,0-0.644,0.288-0.644,0.644 v20.567c-0.423,0.211-3.761,1.548-4.107,5.278c-0.28,3.022,1.768,5.756,4.772,6.159c3.415,0.458,6.335-2.178,6.335-5.505 C29.571,28.41,25.852,27.279,25.429,27.068z"/><path fill="#c5e3f8" d="M25.408,27.085V6.505c0-0.354-0.287-0.641-0.641-0.641h-1.534c-0.354,0-0.641,0.287-0.641,0.641 v20.58c-0.403,0.2-3.75,1.524-4.099,5.256c-0.282,3.006,1.75,5.73,4.738,6.136c3.402,0.462,6.314-2.164,6.314-5.478 C29.544,28.401,25.811,27.286,25.408,27.085z"/><path fill="#c6e4f8" d="M25.388,27.102V6.509c0-0.353-0.286-0.638-0.638-0.638h-1.499c-0.353,0-0.638,0.286-0.638,0.638 v20.593c-0.383,0.19-3.739,1.501-4.092,5.234c-0.283,2.991,1.732,5.705,4.705,6.114c3.39,0.466,6.293-2.149,6.293-5.45 C29.517,28.393,25.77,27.293,25.388,27.102z"/><path fill="#c7e5f8" d="M25.367,27.119V6.513c0-0.351-0.285-0.636-0.636-0.636h-1.464c-0.351,0-0.636,0.285-0.636,0.636 v20.606c-0.363,0.18-3.728,1.477-4.085,5.212c-0.284,2.975,1.714,5.68,4.671,6.091c3.378,0.47,6.271-2.134,6.271-5.422 C29.49,28.385,25.73,27.299,25.367,27.119z"/><path fill="#c8e5f9" d="M25.347,27.136V6.517c0-0.349-0.283-0.633-0.633-0.633h-1.429c-0.349,0-0.633,0.283-0.633,0.633 v20.619c-0.342,0.17-3.718,1.454-4.078,5.19c-0.286,2.96,1.697,5.654,4.637,6.069c3.365,0.474,6.25-2.12,6.25-5.394 C29.463,28.376,25.689,27.306,25.347,27.136z"/><path fill="#c9e6f9" d="M25.327,27.153V6.521c0-0.348-0.282-0.63-0.63-0.63h-1.393c-0.348,0-0.63,0.282-0.63,0.63v20.632 c-0.322,0.16-3.707,1.43-4.071,5.168c-0.287,2.945,1.678,5.635,4.604,6.046c3.352,0.485,6.229-2.105,6.229-5.367 C29.435,28.368,25.649,27.313,25.327,27.153z"/><path fill="#cae7f9" d="M25.306,27.17V6.525c0-0.346-0.281-0.627-0.627-0.627h-1.358c-0.346,0-0.627,0.281-0.627,0.627 V27.17c-0.302,0.15-3.696,1.407-4.064,5.146c-0.288,2.929,1.66,5.609,4.57,6.024c3.339,0.489,6.208-2.09,6.208-5.339 C29.408,28.359,25.608,27.32,25.306,27.17z"/><path fill="#cbe8fa" d="M25.286,27.186V6.529c0-0.345-0.279-0.624-0.624-0.624h-1.323c-0.345,0-0.624,0.279-0.624,0.624 v20.657c-0.282,0.14-3.685,1.383-4.057,5.124c-0.29,2.914,1.642,5.583,4.537,6.001c3.327,0.492,6.187-2.076,6.187-5.311 C29.381,28.351,25.568,27.327,25.286,27.186z"/><path fill="#cce8fa" d="M25.265,27.203V6.533c0-0.343-0.278-0.621-0.621-0.621h-1.288c-0.343,0-0.621,0.278-0.621,0.621 v20.67c-0.262,0.13-3.674,1.36-4.05,5.102c-0.291,2.898,1.624,5.558,4.503,5.978c3.315,0.496,6.166-2.061,6.166-5.284 C29.354,28.343,25.527,27.334,25.265,27.203z"/><path fill="#cde9fb" d="M25.245,27.22V6.537c0-0.342-0.277-0.619-0.619-0.619h-1.253c-0.342,0-0.619,0.277-0.619,0.619 V27.22c-0.242,0.12-3.663,1.336-4.043,5.08c-0.292,2.883,1.606,5.532,4.47,5.956c3.302,0.5,6.145-2.046,6.145-5.256 C29.327,28.334,25.487,27.34,25.245,27.22z"/><path fill="#ceeafb" d="M25.224,27.237V6.541c0-0.34-0.276-0.616-0.616-0.616h-1.218c-0.34,0-0.616,0.276-0.616,0.616 v20.696c-0.222,0.11-3.652,1.313-4.036,5.058c-0.294,2.868,1.588,5.506,4.436,5.933c3.29,0.503,6.123-2.031,6.123-5.228 C29.299,28.326,25.446,27.347,25.224,27.237z"/><path fill="#cfebfb" d="M25.204,27.254V6.545c0-0.338-0.274-0.613-0.613-0.613h-1.182c-0.338,0-0.613,0.274-0.613,0.613 v20.709c-0.201,0.1-3.641,1.289-4.029,5.036c-0.295,2.852,1.57,5.48,4.403,5.911c3.278,0.507,6.102-2.017,6.102-5.2 C29.272,28.317,25.405,27.354,25.204,27.254z"/><path fill="#d0ebfc" d="M25.184,27.271V6.549c0-0.337-0.273-0.61-0.61-0.61h-1.147c-0.337,0-0.61,0.273-0.61,0.61v20.722 c-0.181,0.09-3.63,1.266-4.021,5.014c-0.296,2.837,1.552,5.455,4.369,5.888c3.265,0.511,6.081-2.002,6.081-5.173 C29.245,28.309,25.365,27.361,25.184,27.271z"/><path fill="#d1ecfc" d="M25.163,27.287V6.553c0-0.335-0.272-0.607-0.607-0.607h-1.112c-0.335,0-0.607,0.272-0.607,0.607 v20.735c-0.161,0.08-3.619,1.242-4.014,4.992c-0.297,2.821,1.534,5.429,4.335,5.866c3.253,0.515,6.06-1.987,6.06-5.145 C29.218,28.301,25.324,27.368,25.163,27.287z"/><path fill="#d2edfc" d="M25.143,27.304V6.557c0-0.334-0.271-0.604-0.604-0.604h-1.077c-0.334,0-0.604,0.271-0.604,0.604 v20.747c-0.141,0.07-3.608,1.219-4.007,4.97c-0.299,2.806,1.516,5.403,4.302,5.843c3.241,0.518,6.039-1.973,6.039-5.117 C29.19,28.292,25.284,27.374,25.143,27.304z"/><path fill="#d3eefd" d="M25.122,27.321V6.561c0-0.332-0.269-0.602-0.602-0.602h-1.042c-0.332,0-0.602,0.269-0.602,0.602 v20.76c-0.121,0.06-3.59,1.196-4,4.948c-0.295,2.791,1.498,5.378,4.268,5.821c3.228,0.522,6.018-1.958,6.018-5.089 C29.163,28.284,25.243,27.381,25.122,27.321z"/><path fill="#d4eefd" d="M25.102,27.338V6.565c0-0.331-0.268-0.599-0.599-0.599h-1.007c-0.331,0-0.599,0.268-0.599,0.599 v20.773c-0.101,0.05-3.58,1.173-3.993,4.926c-0.297,2.776,1.48,5.352,4.235,5.798c3.216,0.526,5.997-1.943,5.997-5.062 C29.136,28.275,25.203,27.388,25.102,27.338z"/><path fill="#d5effe" d="M25.082,27.355V6.569c0-0.329-0.267-0.596-0.596-0.596h-0.971c-0.329,0-0.596,0.267-0.596,0.596 v20.786c-0.081,0.04-3.57,1.149-3.986,4.904c-0.299,2.76,1.462,5.326,4.201,5.776c3.204,0.529,5.975-1.929,5.975-5.034 C29.109,28.267,25.162,27.395,25.082,27.355z"/><path fill="#d6f0fe" d="M25.061,27.372V6.573c0-0.328-0.266-0.593-0.593-0.593h-0.936c-0.328,0-0.593,0.266-0.593,0.593 v20.799c-0.06,0.03-3.56,1.125-3.979,4.882c-0.301,2.745,1.444,5.301,4.168,5.753c3.191,0.533,5.954-1.914,5.954-5.006 C29.082,28.259,25.122,27.402,25.061,27.372z"/><path fill="#d7f1fe" d="M25.041,27.388V6.577c0-0.326-0.264-0.59-0.59-0.59h-0.901c-0.326,0-0.59,0.264-0.59,0.59v20.812 c-0.04,0.02-3.55,1.102-3.972,4.86c-0.303,2.729,1.426,5.275,4.134,5.73c3.179,0.537,5.933-1.899,5.933-4.978 C29.054,28.25,25.081,27.408,25.041,27.388z"/><path fill="#d8f1ff" d="M25.02,27.405V6.581c0-0.324-0.263-0.587-0.587-0.587h-0.866c-0.324,0-0.587,0.263-0.587,0.587 v20.825c-0.02,0.01-3.54,1.078-3.965,4.838c-0.305,2.714,1.408,5.249,4.1,5.708c3.166,0.54,5.912-1.885,5.912-4.951 C29.027,28.242,25.041,27.415,25.02,27.405z"/><path fill="#d9f2ff" d="M25,27.422V6.585C25,6.262,24.738,6,24.415,6h-0.831C23.262,6,23,6.262,23,6.585v20.837 c0,0-3.53,1.055-3.958,4.816c-0.307,2.699,1.39,5.224,4.067,5.685C26.263,38.467,29,36.053,29,33C29,28.233,25,27.422,25,27.422z"/><linearGradient id="9Z5js9KH4HzlvzQklmvMsa" x1="23" x2="28" y1="10.5" y2="10.5" gradientUnits="userSpaceOnUse"><stop offset="0" stop-color="#bdd6f2" stop-opacity="0"/><stop offset="1" stop-color="#4685c8"/></linearGradient><rect width="5" height="1" x="23" y="10" fill="url(#9Z5js9KH4HzlvzQklmvMsa)"/><linearGradient id="9Z5js9KH4HzlvzQklmvMsb" x1="23" x2="28" y1="13.5" y2="13.5" gradientUnits="userSpaceOnUse"><stop offset="0" stop-color="#bdd6f2" stop-opacity="0"/><stop offset="1" stop-color="#4685c8"/></linearGradient><rect width="5" height="1" x="23" y="13" fill="url(#9Z5js9KH4HzlvzQklmvMsb)"/><linearGradient id="9Z5js9KH4HzlvzQklmvMsc" x1="23" x2="28" y1="16.5" y2="16.5" gradientUnits="userSpaceOnUse"><stop offset="0" stop-color="#bdd6f2" stop-opacity="0"/><stop offset="1" stop-color="#4685c8"/></linearGradient><rect width="5" height="1" x="23" y="16" fill="url(#9Z5js9KH4HzlvzQklmvMsc)"/><linearGradient id="9Z5js9KH4HzlvzQklmvMsd" x1="23" x2="28" y1="19.5" y2="19.5" gradientUnits="userSpaceOnUse"><stop offset="0" stop-color="#bdd6f2" stop-opacity="0"/><stop offset="1" stop-color="#4685c8"/></linearGradient><rect width="5" height="1" x="23" y="19" fill="url(#9Z5js9KH4HzlvzQklmvMsd)"/><linearGradient id="9Z5js9KH4HzlvzQklmvMse" x1="23" x2="28" y1="22.5" y2="22.5" gradientUnits="userSpaceOnUse"><stop offset="0" stop-color="#bdd6f2" stop-opacity="0"/><stop offset="1" stop-color="#4685c8"/></linearGradient><rect width="5" height="1" x="23" y="22" fill="url(#9Z5js9KH4HzlvzQklmvMse)"/><radialGradient id="9Z5js9KH4HzlvzQklmvMsf" cx="24" cy="38.293" r="10.715" gradientUnits="userSpaceOnUse"><stop offset="0" stop-color="#ff7a7a"/><stop offset=".028" stop-color="#ff6e6e"/><stop offset=".079" stop-color="#ff4f4f"/><stop offset=".147" stop-color="#ff1c1c"/><stop offset=".16" stop-color="#ff1212"/><stop offset=".634" stop-color="#d00b0b"/><stop offset=".64" stop-color="#d10b0b"/><stop offset=".873" stop-color="#f21010"/><stop offset="1" stop-color="#ff1212"/></radialGradient><circle cx="24" cy="33" r="6" fill="url(#9Z5js9KH4HzlvzQklmvMsf)"/><rect width="2" height="16" x="23" y="13" fill="#ff1212"/><radialGradient id="9Z5js9KH4HzlvzQklmvMsg" cx="23.951" cy="28.582" r="5.359" gradientUnits="userSpaceOnUse"><stop offset="0" stop-color="#fff" stop-opacity=".8"/><stop offset="1" stop-color="#fff" stop-opacity="0"/></radialGradient><circle cx="24" cy="32.749" r="4.2" fill="url(#9Z5js9KH4HzlvzQklmvMsg)"/></svg>