<svg xmlns="http://www.w3.org/2000/svg" viewBox="0 0 48 48"><linearGradient id="7~KhOWxomjLTelctEo3a6a" x1="14.092" x2="99.035" y1="29.546" y2="29.546" gradientUnits="userSpaceOnUse"><stop offset="0" stop-color="#c8c8c8"/><stop offset="1" stop-color="#6a6a6a"/></linearGradient><path fill="url(#7~KhOWxomjLTelctEo3a6a)" d="M43.745,37.684L21.891,17.279c-0.714-0.606-1.93-1.988-1.672-3.186l-3.746,2.381l-2.381,3.745	c1.198-0.258,2.58,0.958,3.186,1.672l20.406,21.854c1.673,1.674,4.387,1.674,6.06,0C45.418,42.071,45.418,39.358,43.745,37.684z M40,41c-0.552,0-1-0.448-1-1c0-0.552,0.448-1,1-1s1,0.448,1,1C41,40.552,40.552,41,40,41z"/><linearGradient id="7~KhOWxomjLTelctEo3a6b" x1="20.799" x2="73.285" y1="21.216" y2="72.601" gradientUnits="userSpaceOnUse"><stop offset="0" stop-color="#5b5b5a"/><stop offset="1" stop-color="#c8c8c8"/></linearGradient><path fill="url(#7~KhOWxomjLTelctEo3a6b)" d="M42.667,38.712L17.821,15.29l-2.611,2.611l23.503,24.765c1.092,1.092,2.862,1.092,3.954,0	C43.759,41.575,43.759,39.804,42.667,38.712z M40,41c-0.552,0-1-0.448-1-1c0-0.552,0.448-1,1-1s1,0.448,1,1	C41,40.552,40.552,41,40,41z"/><linearGradient id="7~KhOWxomjLTelctEo3a6c" x1="34.164" x2="28.362" y1="18.257" y2="21.101" gradientTransform="matrix(-1 0 0 1 51.157 0)" gradientUnits="userSpaceOnUse"><stop offset="0" stop-color="#171714" stop-opacity=".4"/><stop offset="1" stop-color="#171714" stop-opacity="0"/></linearGradient><path fill="url(#7~KhOWxomjLTelctEo3a6c)" d="M21.156,26.043l-3.877-4.152c-0.606-0.714-1.988-1.93-3.186-1.672l2.381-3.746l3.746-2.381	c-0.258,1.198,0.958,2.58,1.672,3.186l4.152,3.877L21.156,26.043z"/><linearGradient id="7~KhOWxomjLTelctEo3a6d" x1="-74.987" x2="-62.924" y1="-231.971" y2="-219.794" gradientTransform="scale(-1 1) rotate(45 -328.582 -36.752)" gradientUnits="userSpaceOnUse"><stop offset="0" stop-color="#c8c8c8"/><stop offset="1" stop-color="#6a6a6a"/></linearGradient><path fill="url(#7~KhOWxomjLTelctEo3a6d)" d="M3.9,14.912l-1.785-4.067c-0.225-0.514-0.113-1.113,0.284-1.509l0.898-0.898l4.669,4.669	c1.125,0.529,2.826,0.525,4.246-0.895s1.424-3.121,0.895-4.246L8.438,3.296l0.891-0.891c0.396-0.396,0.994-0.509,1.507-0.285	l4.054,1.772c1.676,0.617,3.203,1.755,4.296,3.472c1.814,2.851,1.756,6.619-0.171,9.394c-3.151,4.536-9.431,4.946-13.147,1.23	C4.966,17.087,4.316,16.033,3.9,14.912z"/><linearGradient id="7~KhOWxomjLTelctEo3a6e" x1="39.194" x2="40.713" y1="17.5" y2="3.445" gradientTransform="matrix(-1 0 0 1 51.157 0)" gradientUnits="userSpaceOnUse"><stop offset="0" stop-color="#6a6a6a"/><stop offset="1" stop-color="#ebebeb"/></linearGradient><path fill="url(#7~KhOWxomjLTelctEo3a6e)" d="M2.399,9.336l0.898-0.898l0.088,0.088c-0.723,0.962-0.49,2.168-0.38,2.417l1.624,3.698	c0.378,1.02,0.969,1.978,1.789,2.797c3.379,3.379,9.09,3.007,11.955-1.118c1.753-2.524,1.805-5.95,0.156-8.543	c-0.993-1.561-2.382-2.596-3.906-3.157L10.935,3.01c-0.77-0.313-1.753-0.054-2.488,0.277l0.881-0.881	c0.396-0.396,0.994-0.509,1.507-0.285l4.054,1.772c1.676,0.616,3.203,1.755,4.296,3.472c1.814,2.851,1.756,6.619-0.171,9.394	c-3.151,4.536-9.431,4.946-13.147,1.23c-0.901-0.901-1.551-1.955-1.967-3.076l-1.785-4.067C1.889,10.332,2.002,9.732,2.399,9.336z"/><linearGradient id="7~KhOWxomjLTelctEo3a6f" x1="42.344" x2="43.736" y1="11.611" y2=".643" gradientTransform="matrix(-1 0 0 1 51.157 0)" gradientUnits="userSpaceOnUse"><stop offset="0" stop-color="#c8c8c8"/><stop offset=".282" stop-color="#adadad"/><stop offset="1" stop-color="#6a6a6a"/></linearGradient><path fill="url(#7~KhOWxomjLTelctEo3a6f)" d="M12.212,12.212c1.42-1.42,1.424-3.121,0.895-4.246L8.438,3.296l0.518-0.518l4.85,4.85	c0.635,1.352,0.63,3.396-1.076,5.101s-3.749,1.711-5.101,1.076l-4.85-4.851l0.518-0.517l4.669,4.669	C9.091,13.636,10.792,13.632,12.212,12.212z"/><linearGradient id="7~KhOWxomjLTelctEo3a6g" x1="-384.047" x2="-452.26" y1="-395.364" y2="-345.296" gradientTransform="rotate(-85.291 25.578 -412.574)" gradientUnits="userSpaceOnUse"><stop offset=".078" stop-color="#fff" stop-opacity=".6"/><stop offset=".952" stop-color="#fff" stop-opacity="0"/></linearGradient><path fill="url(#7~KhOWxomjLTelctEo3a6g)" d="M38.4,43.08c1.338,1.217,3.867,1.404,4.636-0.821c-1.086,1.271-2.922,1.776-4.424,0.238	c-1.242-1.272-22.066-23.231-22.066-23.231C17.137,20.272,26.03,30.286,38.4,43.08z"/><linearGradient id="7~KhOWxomjLTelctEo3a6h" x1="69.749" x2="5.686" y1="-6.25" y2="40.773" gradientTransform="scale(-1 1) rotate(4.709 -163.139 -859.161)" gradientUnits="userSpaceOnUse"><stop offset=".078" stop-color="#fff"/><stop offset=".952" stop-color="#fff" stop-opacity="0"/></linearGradient><path fill="url(#7~KhOWxomjLTelctEo3a6h)" d="M43.327,37.703c1.217,1.338,1.616,2.622,0.927,4c0.106-1.404,0.028-2.287-1.51-3.788	c-1.272-1.242-21.141-20.473-21.141-20.473C22.609,18.032,30.533,25.332,43.327,37.703z"/><linearGradient id="7~KhOWxomjLTelctEo3a6i" x1="-68.583" x2="-67.787" y1="-397.413" y2="-392.664" gradientTransform="scale(1 -1) rotate(-32.168 645.157 -347.763)" gradientUnits="userSpaceOnUse"><stop offset=".048" stop-color="#fff" stop-opacity="0"/><stop offset=".657" stop-color="#fff" stop-opacity=".329"/><stop offset=".994" stop-color="#fff" stop-opacity=".5"/></linearGradient><path fill="url(#7~KhOWxomjLTelctEo3a6i)" d="M13.968,4.347c0,0,4.415,1.392,5.616,5.948C19.761,7.328,16.864,4.503,13.968,4.347z"/><linearGradient id="7~KhOWxomjLTelctEo3a6j" x1="39.619" x2="40.621" y1="38.528" y2="42.401" gradientUnits="userSpaceOnUse"><stop offset="0" stop-color="#5b5b5a"/><stop offset="1" stop-color="#c8c8c8"/></linearGradient><path fill="url(#7~KhOWxomjLTelctEo3a6j)" d="M40,38c-1.105,0-2,0.895-2,2c0,1.105,0.895,2,2,2s2-0.895,2-2C42,38.895,41.105,38,40,38z M40,41c-0.552,0-1-0.448-1-1c0-0.552,0.448-1,1-1s1,0.448,1,1C41,40.552,40.552,41,40,41z"/></svg>