<svg xmlns="http://www.w3.org/2000/svg" viewBox="0 0 48 48"><linearGradient id="dYjv~llYkRk4qooaKHgCva" x1="29" x2="30.498" y1="26.726" y2="26.726" gradientTransform="rotate(45.001 25.962 25.5)" gradientUnits="userSpaceOnUse"><stop offset="0" stop-color="#aab1b9"/><stop offset="1" stop-color="#6a727c"/></linearGradient><path fill="url(#dYjv~llYkRk4qooaKHgCva)" d="M12.982,42.733l-1.193-1.605c10.017-7.443,19.468-16.895,28.089-28.092l1.584,1.219	C32.729,25.599,23.147,35.181,12.982,42.733z"/><linearGradient id="dYjv~llYkRk4qooaKHgCvb" x1="28.969" x2="30.407" y1="26.726" y2="26.726" gradientTransform="rotate(45.001 25.962 25.5)" gradientUnits="userSpaceOnUse"><stop offset="0" stop-color="#afb6be"/><stop offset="1" stop-color="#757d86"/></linearGradient><path fill="url(#dYjv~llYkRk4qooaKHgCvb)" d="M12.929,42.666l-1.112-1.495c10.022-7.446,19.477-16.903,28.102-28.105l1.476,1.136	C32.666,25.541,23.089,35.118,12.929,42.666z"/><linearGradient id="dYjv~llYkRk4qooaKHgCvc" x1="28.938" x2="30.315" y1="26.725" y2="26.725" gradientTransform="rotate(45.001 25.962 25.5)" gradientUnits="userSpaceOnUse"><stop offset="0" stop-color="#b4bbc3"/><stop offset="1" stop-color="#7f8791"/></linearGradient><path fill="url(#dYjv~llYkRk4qooaKHgCvc)" d="M12.876,42.599l-1.031-1.386c10.027-7.45,19.487-16.911,28.115-28.118l1.368,1.053	C32.604,25.482,23.031,35.055,12.876,42.599z"/><linearGradient id="dYjv~llYkRk4qooaKHgCvd" x1="28.907" x2="30.224" y1="26.725" y2="26.725" gradientTransform="rotate(45.001 25.962 25.5)" gradientUnits="userSpaceOnUse"><stop offset="0" stop-color="#b8c0c8"/><stop offset="1" stop-color="#8a929b"/></linearGradient><path fill="url(#dYjv~llYkRk4qooaKHgCvd)" d="M12.823,42.532l-0.949-1.276c10.032-7.454,19.496-16.919,28.129-28.131l1.26,0.97	C32.541,25.423,22.973,34.991,12.823,42.532z"/><linearGradient id="dYjv~llYkRk4qooaKHgCve" x1="28.876" x2="30.133" y1="26.724" y2="26.724" gradientTransform="rotate(45.001 25.962 25.5)" gradientUnits="userSpaceOnUse"><stop offset="0" stop-color="#bdc5cd"/><stop offset="1" stop-color="#959da6"/></linearGradient><path fill="url(#dYjv~llYkRk4qooaKHgCve)" d="M12.77,42.465l-0.868-1.167c10.037-7.458,19.506-16.927,28.142-28.144l1.152,0.887	C32.479,25.364,22.915,34.928,12.77,42.465z"/><linearGradient id="dYjv~llYkRk4qooaKHgCvf" x1="28.845" x2="30.041" y1="26.724" y2="26.724" gradientTransform="rotate(45.001 25.962 25.5)" gradientUnits="userSpaceOnUse"><stop offset="0" stop-color="#c2cad2"/><stop offset="1" stop-color="#9fa8b0"/></linearGradient><path fill="url(#dYjv~llYkRk4qooaKHgCvf)" d="M12.717,42.398l-0.786-1.057c10.042-7.461,19.515-16.935,28.155-28.158l1.044,0.804	C32.416,25.305,22.857,34.865,12.717,42.398z"/><linearGradient id="dYjv~llYkRk4qooaKHgCvg" x1="28.814" x2="29.95" y1="26.723" y2="26.723" gradientTransform="rotate(45.001 25.962 25.5)" gradientUnits="userSpaceOnUse"><stop offset="0" stop-color="#c7cfd6"/><stop offset="1" stop-color="#aab2bb"/></linearGradient><path fill="url(#dYjv~llYkRk4qooaKHgCvg)" d="M12.664,42.331l-0.705-0.948c10.047-7.465,19.525-16.944,28.169-28.171l0.936,0.721	C32.354,25.246,22.799,34.802,12.664,42.331z"/><linearGradient id="dYjv~llYkRk4qooaKHgCvh" x1="28.783" x2="29.859" y1="26.722" y2="26.722" gradientTransform="rotate(45.001 25.962 25.5)" gradientUnits="userSpaceOnUse"><stop offset="0" stop-color="#ccd4db"/><stop offset="1" stop-color="#b4bdc5"/></linearGradient><path fill="url(#dYjv~llYkRk4qooaKHgCvh)" d="M12.611,42.264l-0.624-0.838c10.052-7.469,19.534-16.952,28.182-28.184l0.828,0.638	C32.291,25.188,22.741,34.738,12.611,42.264z"/><linearGradient id="dYjv~llYkRk4qooaKHgCvi" x1="28.752" x2="29.768" y1="26.722" y2="26.722" gradientTransform="rotate(45.001 25.962 25.5)" gradientUnits="userSpaceOnUse"><stop offset="0" stop-color="#d1d9e0"/><stop offset="1" stop-color="#bfc8d0"/></linearGradient><path fill="url(#dYjv~llYkRk4qooaKHgCvi)" d="M12.558,42.197l-0.542-0.729c10.057-7.473,19.544-16.96,28.195-28.197l0.72,0.555	C32.229,25.129,22.683,34.675,12.558,42.197z"/><linearGradient id="dYjv~llYkRk4qooaKHgCvj" x1="28.721" x2="29.676" y1="26.721" y2="26.721" gradientTransform="rotate(45.001 25.962 25.5)" gradientUnits="userSpaceOnUse"><stop offset="0" stop-color="#d5dee5"/><stop offset="1" stop-color="#cad3da"/></linearGradient><path fill="url(#dYjv~llYkRk4qooaKHgCvj)" d="M12.505,42.13l-0.461-0.619c10.062-7.476,19.553-16.968,28.209-28.21l0.612,0.471	C32.166,25.07,22.625,34.612,12.505,42.13z"/><linearGradient id="dYjv~llYkRk4qooaKHgCvk" x1="28.691" x2="29.585" y1="26.721" y2="26.721" gradientTransform="rotate(45.001 25.962 25.5)" gradientUnits="userSpaceOnUse"><stop offset="0" stop-color="#dae3ea"/><stop offset="1" stop-color="#d4dde5"/></linearGradient><path fill="url(#dYjv~llYkRk4qooaKHgCvk)" d="M12.452,42.062l-0.38-0.51c10.067-7.48,19.563-16.976,28.222-28.223l0.504,0.388	C32.104,25.011,22.567,34.548,12.452,42.062z"/><path fill="#dfe8ef" d="M12.399,41.995l-0.298-0.401c10.072-7.484,19.572-16.984,28.235-28.237l0.396,0.305	C32.041,24.952,22.509,34.485,12.399,41.995z"/><linearGradient id="dYjv~llYkRk4qooaKHgCvl" x1="27.584" x2="29.132" y1="46.334" y2="40.334" gradientTransform="rotate(45.001 25.962 25.5)" gradientUnits="userSpaceOnUse"><stop offset=".196" stop-color="#363b3d" stop-opacity=".8"/><stop offset=".66" stop-color="#363a3c" stop-opacity=".276"/><stop offset="1" stop-color="#363a3c" stop-opacity="0"/></linearGradient><path fill="url(#dYjv~llYkRk4qooaKHgCvl)" d="M17.261,36.787c-1.806,1.507-3.626,2.97-5.472,4.342l1.193,1.605	c1.924-1.429,3.819-2.954,5.699-4.527L17.261,36.787z"/><linearGradient id="dYjv~llYkRk4qooaKHgCvm" x1="28.618" x2="28.826" y1="12.736" y2="14.794" gradientTransform="rotate(45.001 25.962 25.5)" gradientUnits="userSpaceOnUse"><stop offset=".196" stop-color="#363b3d" stop-opacity=".8"/><stop offset="1" stop-color="#363a3c" stop-opacity="0"/></linearGradient><path fill="url(#dYjv~llYkRk4qooaKHgCvm)" d="M35.984,20.981c1.857-2.173,3.69-4.402,5.478-6.725l-1.584-1.219	c-1.735,2.253-3.512,4.416-5.312,6.526L35.984,20.981z"/><linearGradient id="dYjv~llYkRk4qooaKHgCvn" x1="13.58" x2="21.044" y1="46" y2="46" gradientTransform="rotate(45.001 25.962 25.5)" gradientUnits="userSpaceOnUse"><stop offset="0" stop-color="#aab1b9"/><stop offset="1" stop-color="#6a727c"/></linearGradient><path fill="url(#dYjv~llYkRk4qooaKHgCvn)" d="M12.225,35.098c-1.56-1.56-4.097-1.56-5.657,0c-1.56,1.56-1.56,4.097,0,5.657	c1.56,1.56,4.097,1.56,5.657,0C13.785,39.195,13.785,36.658,12.225,35.098z M5.154,42.169c-2.34-2.34-2.34-6.146,0-8.485	c2.34-2.34,6.146-2.34,8.485,0c2.34,2.34,2.34,6.146,0,8.485C11.3,44.508,7.494,44.508,5.154,42.169z"/><linearGradient id="dYjv~llYkRk4qooaKHgCvo" x1="7.094" x2="18.957" y1="46" y2="46" gradientTransform="rotate(45.001 25.962 25.5)" gradientUnits="userSpaceOnUse"><stop offset="0" stop-color="#afb6be"/><stop offset="1" stop-color="#757d86"/></linearGradient><path fill="url(#dYjv~llYkRk4qooaKHgCvo)" d="M12.257,35.033c-1.586-1.586-4.167-1.586-5.753,0c-1.586,1.586-1.586,4.167,0,5.753	c1.586,1.586,4.167,1.586,5.753,0C13.843,39.2,13.843,36.62,12.257,35.033z M5.186,42.104c-2.313-2.313-2.313-6.076,0-8.389	s6.076-2.313,8.389,0s2.313,6.076,0,8.389S7.499,44.417,5.186,42.104z"/><linearGradient id="dYjv~llYkRk4qooaKHgCvp" x1="7.254" x2="18.981" y1="46" y2="46" gradientTransform="rotate(45.001 25.962 25.5)" gradientUnits="userSpaceOnUse"><stop offset="0" stop-color="#b4bbc3"/><stop offset="1" stop-color="#7f8791"/></linearGradient><path fill="url(#dYjv~llYkRk4qooaKHgCvp)" d="M12.289,34.969c-1.613-1.613-4.237-1.613-5.85,0c-1.613,1.613-1.613,4.237,0,5.85	c1.613,1.613,4.237,1.613,5.85,0C13.902,39.205,13.902,36.582,12.289,34.969z M5.218,42.04c-2.286-2.286-2.286-6.006,0-8.292	c2.286-2.286,6.006-2.286,8.292,0c2.286,2.286,2.286,6.006,0,8.292C11.224,44.326,7.504,44.326,5.218,42.04z"/><linearGradient id="dYjv~llYkRk4qooaKHgCvq" x1="7.413" x2="19.004" y1="46" y2="46" gradientTransform="rotate(45.001 25.962 25.5)" gradientUnits="userSpaceOnUse"><stop offset="0" stop-color="#b8c0c8"/><stop offset="1" stop-color="#8a929b"/></linearGradient><path fill="url(#dYjv~llYkRk4qooaKHgCvq)" d="M12.32,34.904c-1.64-1.64-4.307-1.64-5.946,0c-1.64,1.64-1.64,4.307,0,5.946	c1.64,1.64,4.307,1.64,5.946,0C13.96,39.21,13.96,36.543,12.32,34.904z M5.249,41.975c-2.26-2.26-2.26-5.936,0-8.196	s5.936-2.26,8.196,0s2.26,5.936,0,8.196S7.509,44.235,5.249,41.975z"/><linearGradient id="dYjv~llYkRk4qooaKHgCvr" x1="7.573" x2="19.028" y1="46" y2="46" gradientTransform="rotate(45.001 25.962 25.5)" gradientUnits="userSpaceOnUse"><stop offset="0" stop-color="#bdc5cd"/><stop offset="1" stop-color="#959da6"/></linearGradient><path fill="url(#dYjv~llYkRk4qooaKHgCvr)" d="M12.352,34.839c-1.666-1.666-4.376-1.666-6.043,0c-1.666,1.666-1.666,4.376,0,6.043	c1.666,1.666,4.376,1.666,6.043,0C14.018,39.216,14.018,36.505,12.352,34.839z M5.281,41.91c-2.233-2.233-2.233-5.867,0-8.1	c2.233-2.233,5.867-2.233,8.1,0c2.233,2.233,2.233,5.867,0,8.1C11.148,44.143,7.514,44.143,5.281,41.91z"/><linearGradient id="dYjv~llYkRk4qooaKHgCvs" x1="7.733" x2="19.051" y1="46" y2="46" gradientTransform="rotate(45.001 25.962 25.5)" gradientUnits="userSpaceOnUse"><stop offset="0" stop-color="#c2cad2"/><stop offset="1" stop-color="#9fa8b0"/></linearGradient><path fill="url(#dYjv~llYkRk4qooaKHgCvs)" d="M12.384,34.775c-1.693-1.693-4.446-1.693-6.139,0s-1.693,4.446,0,6.139	c1.693,1.693,4.446,1.693,6.139,0C14.077,39.221,14.077,36.467,12.384,34.775z M5.313,41.846c-2.206-2.206-2.206-5.797,0-8.003	s5.797-2.206,8.003,0s2.206,5.797,0,8.003S7.519,44.052,5.313,41.846z"/><linearGradient id="dYjv~llYkRk4qooaKHgCvt" x1="7.893" x2="19.074" y1="46" y2="46" gradientTransform="rotate(45.001 25.962 25.5)" gradientUnits="userSpaceOnUse"><stop offset="0" stop-color="#c7cfd6"/><stop offset="1" stop-color="#aab2bb"/></linearGradient><path fill="url(#dYjv~llYkRk4qooaKHgCvt)" d="M12.416,34.71c-1.719-1.719-4.516-1.719-6.235,0s-1.719,4.516,0,6.235	c1.719,1.719,4.516,1.719,6.235,0C14.135,39.226,14.135,36.429,12.416,34.71z M5.345,41.781c-2.18-2.18-2.18-5.727,0-7.907	c2.18-2.18,5.727-2.18,7.907,0c2.18,2.18,2.18,5.727,0,7.907S7.525,43.961,5.345,41.781z"/><linearGradient id="dYjv~llYkRk4qooaKHgCvu" x1="8.052" x2="19.098" y1="46" y2="46" gradientTransform="rotate(45.001 25.962 25.5)" gradientUnits="userSpaceOnUse"><stop offset="0" stop-color="#ccd4db"/><stop offset="1" stop-color="#b4bdc5"/></linearGradient><path fill="url(#dYjv~llYkRk4qooaKHgCvu)" d="M12.448,34.645c-1.746-1.746-4.586-1.746-6.332,0s-1.746,4.586,0,6.332	c1.746,1.746,4.586,1.746,6.332,0C14.193,39.231,14.193,36.391,12.448,34.645z M5.377,41.716c-2.153-2.153-2.153-5.657,0-7.81	s5.657-2.153,7.81,0s2.153,5.657,0,7.81S7.53,43.87,5.377,41.716z"/><linearGradient id="dYjv~llYkRk4qooaKHgCvv" x1="8.212" x2="19.121" y1="46" y2="46" gradientTransform="rotate(45.001 25.962 25.5)" gradientUnits="userSpaceOnUse"><stop offset="0" stop-color="#d1d9e0"/><stop offset="1" stop-color="#bfc8d0"/></linearGradient><path fill="url(#dYjv~llYkRk4qooaKHgCvv)" d="M12.479,34.581c-1.772-1.772-4.656-1.772-6.428,0s-1.772,4.656,0,6.428	c1.772,1.772,4.656,1.772,6.428,0C14.252,39.237,14.252,36.353,12.479,34.581z M5.408,41.652c-2.127-2.127-2.127-5.587,0-7.714	c2.127-2.127,5.587-2.127,7.714,0c2.127,2.127,2.127,5.587,0,7.714S7.535,43.778,5.408,41.652z"/><linearGradient id="dYjv~llYkRk4qooaKHgCvw" x1="8.372" x2="19.145" y1="46" y2="46" gradientTransform="rotate(45.001 25.962 25.5)" gradientUnits="userSpaceOnUse"><stop offset="0" stop-color="#d5dee5"/><stop offset="1" stop-color="#cad3da"/></linearGradient><path fill="url(#dYjv~llYkRk4qooaKHgCvw)" d="M12.511,34.516c-1.799-1.799-4.726-1.799-6.525,0s-1.799,4.726,0,6.525	c1.799,1.799,4.726,1.799,6.525,0C14.31,39.242,14.31,36.315,12.511,34.516z M5.44,41.587c-2.1-2.1-2.1-5.517,0-7.617	s5.517-2.1,7.617,0s2.1,5.517,0,7.617C10.958,43.687,7.54,43.687,5.44,41.587z"/><linearGradient id="dYjv~llYkRk4qooaKHgCvx" x1="8.532" x2="19.168" y1="46" y2="46" gradientTransform="rotate(45.001 25.962 25.5)" gradientUnits="userSpaceOnUse"><stop offset="0" stop-color="#dae3ea"/><stop offset="1" stop-color="#d4dde5"/></linearGradient><path fill="url(#dYjv~llYkRk4qooaKHgCvx)" d="M12.543,34.452c-1.825-1.825-4.796-1.825-6.621,0c-1.825,1.825-1.825,4.796,0,6.621	c1.825,1.825,4.796,1.825,6.621,0C14.369,39.247,14.369,36.277,12.543,34.452z M5.472,41.523c-2.073-2.073-2.073-5.448,0-7.521	c2.073-2.073,5.448-2.073,7.521,0c2.073,2.073,2.073,5.448,0,7.521C10.92,43.596,7.545,43.596,5.472,41.523z"/><path fill="#dfe8ef" d="M12.575,34.387c-1.852-1.852-4.866-1.852-6.718,0c-1.852,1.852-1.852,4.866,0,6.718	c1.852,1.852,4.866,1.852,6.718,0C14.427,39.252,14.427,36.239,12.575,34.387z M5.504,41.458c-2.047-2.047-2.047-5.378,0-7.425	s5.378-2.047,7.425,0s2.047,5.378,0,7.425C10.882,43.505,7.551,43.505,5.504,41.458z"/><linearGradient id="dYjv~llYkRk4qooaKHgCvy" x1="17.547" x2="20.066" y1="43.762" y2="43.141" gradientTransform="rotate(45.001 25.962 25.5)" gradientUnits="userSpaceOnUse"><stop offset=".318" stop-color="#363b3d" stop-opacity=".8"/><stop offset="1" stop-color="#363a3c" stop-opacity="0"/></linearGradient><path fill="url(#dYjv~llYkRk4qooaKHgCvy)" d="M6.592,35.077c1.091-1.074,2.645-1.378,4.015-0.944l1.538-1.538	c-2.248-1.157-5.078-0.801-6.967,1.068L6.592,35.077z"/><linearGradient id="dYjv~llYkRk4qooaKHgCvz" x1="16.486" x2="18.231" y1="26.282" y2="26.282" gradientTransform="rotate(45.001 25.962 25.5)" gradientUnits="userSpaceOnUse"><stop offset="0" stop-color="#aab1b9"/><stop offset="1" stop-color="#6a727c"/></linearGradient><path fill="url(#dYjv~llYkRk4qooaKHgCvz)" d="M4.705,34.186C12.64,24.062,22.341,14.36,33.541,5.347L34.79,6.91	C23.712,15.824,14.122,25.414,6.283,35.414L4.705,34.186z"/><linearGradient id="dYjv~llYkRk4qooaKHgCvA" x1="16.508" x2="18.177" y1="26.281" y2="26.281" gradientTransform="rotate(45.001 25.962 25.5)" gradientUnits="userSpaceOnUse"><stop offset="0" stop-color="#afb6be"/><stop offset="1" stop-color="#757d86"/></linearGradient><path fill="url(#dYjv~llYkRk4qooaKHgCvA)" d="M4.743,34.213c7.931-10.119,17.629-19.818,28.825-28.827l1.164,1.456	C23.65,15.759,14.048,25.358,6.206,35.362L4.743,34.213z"/><linearGradient id="dYjv~llYkRk4qooaKHgCvB" x1="16.53" x2="18.125" y1="26.281" y2="26.281" gradientTransform="rotate(45.001 25.962 25.5)" gradientUnits="userSpaceOnUse"><stop offset="0" stop-color="#b4bbc3"/><stop offset="1" stop-color="#7f8791"/></linearGradient><path fill="url(#dYjv~llYkRk4qooaKHgCvB)" d="M4.782,34.239c7.928-10.115,17.622-19.81,28.814-28.816l1.079,1.35	c-11.086,8.921-20.701,18.541-28.546,28.55L4.782,34.239z"/><linearGradient id="dYjv~llYkRk4qooaKHgCvC" x1="16.55" x2="18.069" y1="26.286" y2="26.286" gradientTransform="rotate(45.001 25.962 25.5)" gradientUnits="userSpaceOnUse"><stop offset="0" stop-color="#b8c0c8"/><stop offset="1" stop-color="#8a929b"/></linearGradient><path fill="url(#dYjv~llYkRk4qooaKHgCvC)" d="M4.81,34.272c7.925-10.111,17.625-19.809,28.812-28.811l0.993,1.243	c-11.09,8.924-20.721,18.554-28.57,28.567L4.81,34.272z"/><linearGradient id="dYjv~llYkRk4qooaKHgCvD" x1="16.572" x2="18.017" y1="26.289" y2="26.289" gradientTransform="rotate(45.001 25.962 25.5)" gradientUnits="userSpaceOnUse"><stop offset="0" stop-color="#bdc5cd"/><stop offset="1" stop-color="#959da6"/></linearGradient><path fill="url(#dYjv~llYkRk4qooaKHgCvD)" d="M4.844,34.304C12.765,24.198,22.466,14.498,33.65,5.499l0.908,1.136	c-11.094,8.927-20.736,18.573-28.587,28.59L4.844,34.304z"/><linearGradient id="dYjv~llYkRk4qooaKHgCvE" x1="16.593" x2="17.962" y1="26.29" y2="26.29" gradientTransform="rotate(45.001 25.962 25.5)" gradientUnits="userSpaceOnUse"><stop offset="0" stop-color="#c2cad2"/><stop offset="1" stop-color="#9fa8b0"/></linearGradient><path fill="url(#dYjv~llYkRk4qooaKHgCvE)" d="M4.88,34.332c7.918-10.102,17.617-19.799,28.797-28.795l0.823,1.03	C23.402,15.497,13.75,25.149,5.896,35.171L4.88,34.332z"/><linearGradient id="dYjv~llYkRk4qooaKHgCvF" x1="16.614" x2="17.908" y1="26.295" y2="26.295" gradientTransform="rotate(45.001 25.962 25.5)" gradientUnits="userSpaceOnUse"><stop offset="0" stop-color="#c7cfd6"/><stop offset="1" stop-color="#aab2bb"/></linearGradient><path fill="url(#dYjv~llYkRk4qooaKHgCvF)" d="M4.911,34.365c7.914-10.098,17.618-19.797,28.793-28.79l0.738,0.923	C23.339,15.432,13.677,25.096,5.819,35.122L4.911,34.365z"/><linearGradient id="dYjv~llYkRk4qooaKHgCvG" x1="16.635" x2="17.854" y1="26.302" y2="26.302" gradientTransform="rotate(45.001 25.962 25.5)" gradientUnits="userSpaceOnUse"><stop offset="0" stop-color="#ccd4db"/><stop offset="1" stop-color="#b4bdc5"/></linearGradient><path fill="url(#dYjv~llYkRk4qooaKHgCvG)" d="M4.938,34.402c7.911-10.094,17.623-19.8,28.794-28.789l0.653,0.816	C23.277,15.367,13.6,25.043,5.738,35.073L4.938,34.402z"/><linearGradient id="dYjv~llYkRk4qooaKHgCvH" x1="16.656" x2="17.8" y1="26.302" y2="26.302" gradientTransform="rotate(45.001 25.962 25.5)" gradientUnits="userSpaceOnUse"><stop offset="0" stop-color="#d1d9e0"/><stop offset="1" stop-color="#bfc8d0"/></linearGradient><path fill="url(#dYjv~llYkRk4qooaKHgCvH)" d="M4.974,34.427c7.908-10.09,17.618-19.791,28.785-28.777l0.567,0.71	C23.215,15.301,13.524,24.99,5.66,35.024L4.974,34.427z"/><linearGradient id="dYjv~llYkRk4qooaKHgCvI" x1="16.677" x2="17.746" y1="26.305" y2="26.305" gradientTransform="rotate(45.001 25.962 25.5)" gradientUnits="userSpaceOnUse"><stop offset="0" stop-color="#d5dee5"/><stop offset="1" stop-color="#cad3da"/></linearGradient><path fill="url(#dYjv~llYkRk4qooaKHgCvI)" d="M5.008,34.457c7.904-10.085,17.615-19.786,28.778-28.768l0.482,0.603	C23.153,15.236,13.451,24.935,5.583,34.973L5.008,34.457z"/><linearGradient id="dYjv~llYkRk4qooaKHgCvJ" x1="16.699" x2="17.692" y1="26.307" y2="26.307" gradientTransform="rotate(45.001 25.962 25.5)" gradientUnits="userSpaceOnUse"><stop offset="0" stop-color="#dae3ea"/><stop offset="1" stop-color="#d4dde5"/></linearGradient><path fill="url(#dYjv~llYkRk4qooaKHgCvJ)" d="M5.043,34.488c7.901-10.081,17.612-19.782,28.77-28.761l0.397,0.497	C23.091,15.171,13.374,24.882,5.503,34.924L5.043,34.488z"/><path fill="#dfe8ef" d="M5.058,34.539C12.955,24.462,22.686,14.74,33.841,5.764l0.312,0.39	C23.029,15.105,13.303,24.829,5.428,34.875L5.058,34.539z"/><linearGradient id="dYjv~llYkRk4qooaKHgCvK" x1="31.778" x2="32.121" y1="10.825" y2="14.221" gradientTransform="scale(-1 1) rotate(-45 -1.223 85.225)" gradientUnits="userSpaceOnUse"><stop offset=".196" stop-color="#363b3d" stop-opacity=".8"/><stop offset="1" stop-color="#363a3c" stop-opacity="0"/></linearGradient><path fill="url(#dYjv~llYkRk4qooaKHgCvK)" d="M26.387,11.385c2.152-1.84,4.36-3.655,6.661-5.426l1.208,1.569	c-2.232,1.719-4.374,3.479-6.464,5.262L26.387,11.385z"/><linearGradient id="dYjv~llYkRk4qooaKHgCvL" x1="16.188" x2="30.157" y1="5.998" y2="5.998" gradientTransform="rotate(45.001 25.962 25.5)" gradientUnits="userSpaceOnUse"><stop offset="0" stop-color="#aab1b9"/><stop offset="1" stop-color="#6a727c"/></linearGradient><path fill="url(#dYjv~llYkRk4qooaKHgCvL)" d="M35.812,11.704c0.646-1.08-1.267-2.908,0.197-4.44c0.976-0.976,2.718-0.818,3.889,0.354 s1.33,2.913,0.354,3.889C38.701,13.001,36.898,11.013,35.812,11.704z M43.304,12.578l0.076-0.088 c1.658-2.342,1.444-5.603-0.653-7.701c-2.089-2.089-5.331-2.31-7.671-0.676l-0.002-0.001c0,0-2.788,1.969-7.032,5.506 c-0.076,0.063-0.087,0.177-0.015,0.245c0.731,0.691,4.405,3.972,6.942,2.704c-1.262,2.525,1.983,6.176,2.694,6.931 c0.073,0.078,0.195,0.069,0.265-0.012C39.86,17.213,41.664,14.911,43.304,12.578z"/><linearGradient id="dYjv~llYkRk4qooaKHgCvM" x1="28.037" x2="44.404" y1="11.295" y2="11.295" gradientUnits="userSpaceOnUse"><stop offset="0" stop-color="#afb6be"/><stop offset="1" stop-color="#6e7680"/></linearGradient><path fill="url(#dYjv~llYkRk4qooaKHgCvM)" d="M35.812,11.704c0.646-1.08-1.267-2.908,0.197-4.44c0.976-0.976,2.718-0.818,3.889,0.354 s1.33,2.913,0.354,3.889C38.701,13.001,36.898,11.013,35.812,11.704z M35.115,4.178l-0.002-0.001c0,0-2.766,1.968-7.007,5.503 c-0.075,0.062-0.094,0.174-0.031,0.238c0.638,0.656,4.311,3.931,6.874,2.649c-1.234,2.535,1.994,6.185,2.641,6.872 c0.073,0.063,0.19,0.048,0.259-0.033c1.957-2.284,3.737-4.545,5.374-6.871c0.002-0.003,0.073-0.086,0.075-0.089 c0.014-0.02,0.024-0.036,0.038-0.057c1.611-2.337,1.407-5.468-0.672-7.547C40.576,2.753,37.392,2.589,35.115,4.178z"/><linearGradient id="dYjv~llYkRk4qooaKHgCvN" x1="28.114" x2="44.327" y1="11.298" y2="11.298" gradientUnits="userSpaceOnUse"><stop offset="0" stop-color="#b4bbc3"/><stop offset="1" stop-color="#727a84"/></linearGradient><path fill="url(#dYjv~llYkRk4qooaKHgCvN)" d="M35.812,11.704c0.646-1.08-1.267-2.908,0.197-4.44c0.976-0.976,2.718-0.818,3.889,0.354 s1.33,2.913,0.354,3.889C38.701,13.001,36.898,11.013,35.812,11.704z M35.174,4.243l-0.002-0.001c0,0-2.745,1.968-6.983,5.5 c-0.074,0.062-0.101,0.17-0.048,0.23c0.542,0.621,4.218,3.889,6.807,2.595c-1.206,2.545,2.006,6.194,2.588,6.812 c0.072,0.048,0.185,0.027,0.254-0.054c1.961-2.294,3.718-4.514,5.351-6.834c0.004-0.005,0.07-0.083,0.074-0.089 c0.013-0.018,0.017-0.028,0.029-0.046c1.616-2.338,1.437-5.38-0.644-7.461C40.513,2.805,37.387,2.699,35.174,4.243z"/><linearGradient id="dYjv~llYkRk4qooaKHgCvO" x1="28.19" x2="44.25" y1="11.301" y2="11.301" gradientUnits="userSpaceOnUse"><stop offset="0" stop-color="#b8c0c8"/><stop offset="1" stop-color="#767e87"/></linearGradient><path fill="url(#dYjv~llYkRk4qooaKHgCvO)" d="M35.812,11.704c0.646-1.08-1.267-2.908,0.197-4.44c0.976-0.976,2.718-0.818,3.889,0.354 s1.33,2.913,0.354,3.889C38.701,13.001,36.898,11.013,35.812,11.704z M35.233,4.308l-0.001-0.001c0,0-2.724,1.967-6.958,5.497 c-0.073,0.061-0.108,0.165-0.064,0.223c0.446,0.582,4.124,3.848,6.74,2.54c-1.178,2.555,2.017,6.203,2.535,6.752 c0.072,0.034,0.18,0.005,0.249-0.076c1.966-2.304,3.699-4.483,5.328-6.797c0.006-0.008,0.067-0.081,0.073-0.089 c0.012-0.016,0.009-0.019,0.02-0.035c1.621-2.338,1.467-5.292-0.616-7.375C40.45,2.858,37.383,2.81,35.233,4.308z"/><linearGradient id="dYjv~llYkRk4qooaKHgCvP" x1="28.27" x2="44.173" y1="11.306" y2="11.306" gradientUnits="userSpaceOnUse"><stop offset="0" stop-color="#bdc5cd"/><stop offset="1" stop-color="#7a828b"/></linearGradient><path fill="url(#dYjv~llYkRk4qooaKHgCvP)" d="M35.812,11.704c0.646-1.08-1.267-2.908,0.197-4.44c0.976-0.976,2.718-0.818,3.889,0.354 s1.33,2.913,0.354,3.889C38.701,13.001,36.898,11.013,35.812,11.704z M35.292,4.372l-0.001-0.001c0,0-2.702,1.967-6.934,5.494 c-0.072,0.06-0.102,0.152-0.08,0.215c0.467,0.441,4.03,3.807,6.672,2.486c-1.15,2.565,2.029,6.212,2.482,6.692 c0.072,0.019,0.175-0.016,0.244-0.097c1.971-2.315,3.68-4.452,5.305-6.76c0.008-0.011,0.064-0.078,0.072-0.089 c0.01-0.014,0.002-0.01,0.012-0.025c1.625-2.339,1.497-5.204-0.587-7.289C40.387,2.911,37.378,2.92,35.292,4.372z"/><linearGradient id="dYjv~llYkRk4qooaKHgCvQ" x1="28.343" x2="44.097" y1="11.313" y2="11.313" gradientUnits="userSpaceOnUse"><stop offset="0" stop-color="#c2cad2"/><stop offset="1" stop-color="#7e868f"/></linearGradient><path fill="url(#dYjv~llYkRk4qooaKHgCvQ)" d="M35.812,11.704c0.646-1.08-1.267-2.908,0.197-4.44c0.976-0.976,2.718-0.818,3.889,0.354 s1.33,2.913,0.354,3.889C38.701,13.001,36.898,11.013,35.812,11.704z M35.351,4.437L35.35,4.436c0,0-2.681,1.966-6.909,5.491 c-0.071,0.059-0.106,0.146-0.097,0.208c0.401,0.379,3.936,3.766,6.605,2.431c-1.122,2.575,2.041,6.221,2.429,6.632 c0.071,0.005,0.169-0.037,0.238-0.118c1.976-2.325,3.661-4.421,5.283-6.723c0.01-0.014,0.061-0.076,0.071-0.089 c0.009-0.012-0.006-0.001,0.003-0.014c1.63-2.339,1.528-5.116-0.559-7.203C40.324,2.963,37.374,3.03,35.351,4.437z"/><linearGradient id="dYjv~llYkRk4qooaKHgCvR" x1="28.412" x2="44.02" y1="11.321" y2="11.321" gradientUnits="userSpaceOnUse"><stop offset="0" stop-color="#c7cfd6"/><stop offset="1" stop-color="#818993"/></linearGradient><path fill="url(#dYjv~llYkRk4qooaKHgCvR)" d="M35.812,11.704c0.646-1.08-1.267-2.908,0.197-4.44c0.976-0.976,2.718-0.818,3.889,0.354 s1.33,2.913,0.354,3.889C38.701,13.001,36.898,11.013,35.812,11.704z M35.41,4.502L35.41,4.502 c-0.001-0.001-2.66,1.965-6.885,5.488c-0.07,0.058-0.11,0.139-0.113,0.2c0.335,0.317,3.842,3.724,6.537,2.377 c-1.094,2.585,2.052,6.229,2.375,6.573c0.071-0.01,0.164-0.058,0.233-0.14c1.98-2.335,3.642-4.39,5.26-6.686 c0.012-0.016,0.058-0.073,0.069-0.09c0.007-0.01-0.013,0.007-0.006-0.003c1.635-2.34,1.558-5.028-0.531-7.116 C40.261,3.016,37.369,3.141,35.41,4.502z"/><linearGradient id="dYjv~llYkRk4qooaKHgCvS" x1="28.479" x2="43.944" y1="11.33" y2="11.33" gradientUnits="userSpaceOnUse"><stop offset="0" stop-color="#ccd4db"/><stop offset="1" stop-color="#858d97"/></linearGradient><path fill="url(#dYjv~llYkRk4qooaKHgCvS)" d="M35.812,11.704c0.646-1.08-1.267-2.908,0.197-4.44c0.976-0.976,2.718-0.818,3.889,0.354 s1.33,2.913,0.354,3.889C38.701,13.001,36.898,11.013,35.812,11.704z M35.469,4.567L35.469,4.567 c-0.001-0.001-2.639,1.964-6.861,5.485c-0.069,0.057-0.114,0.133-0.129,0.193c0.269,0.254,3.749,3.683,6.47,2.322 c-1.066,2.595,2.064,6.238,2.322,6.513c0.071-0.024,0.159-0.08,0.228-0.161c1.985-2.345,3.623-4.359,5.237-6.649 c0.014-0.019,0.055-0.071,0.068-0.09c0.006-0.008-0.021,0.016-0.015,0.008c1.639-2.34,1.588-4.94-0.502-7.03 C40.198,3.069,37.365,3.251,35.469,4.567z"/><linearGradient id="dYjv~llYkRk4qooaKHgCvT" x1="28.546" x2="43.868" y1="11.339" y2="11.339" gradientUnits="userSpaceOnUse"><stop offset="0" stop-color="#d1d9e0"/><stop offset="1" stop-color="#89919b"/></linearGradient><path fill="url(#dYjv~llYkRk4qooaKHgCvT)" d="M35.812,11.704c0.646-1.08-1.267-2.908,0.197-4.44c0.976-0.976,2.718-0.818,3.889,0.354 s1.33,2.913,0.354,3.889C38.701,13.001,36.898,11.013,35.812,11.704z M35.528,4.632L35.528,4.632c-0.001,0-2.617,1.964-6.836,5.482 c-0.068,0.056-0.118,0.127-0.146,0.185c0.203,0.192,3.655,3.642,6.403,2.268c-1.038,2.605,2.075,6.247,2.269,6.453 c0.07-0.039,0.154-0.101,0.223-0.182c1.99-2.355,3.604-4.328,5.214-6.612c0.015-0.022,0.052-0.068,0.067-0.09 c0.004-0.006-0.028,0.025-0.024,0.018c1.644-2.341,1.618-4.852-0.474-6.944C40.135,3.121,37.36,3.361,35.528,4.632z"/><linearGradient id="dYjv~llYkRk4qooaKHgCvU" x1="28.614" x2="43.792" y1="11.348" y2="11.348" gradientUnits="userSpaceOnUse"><stop offset="0" stop-color="#d5dee5"/><stop offset="1" stop-color="#8d959e"/></linearGradient><path fill="url(#dYjv~llYkRk4qooaKHgCvU)" d="M35.812,11.704c0.646-1.08-1.267-2.908,0.197-4.44c0.976-0.976,2.718-0.818,3.889,0.354 s1.33,2.913,0.354,3.889C38.701,13.001,36.898,11.013,35.812,11.704z M35.587,4.697L35.587,4.697c0,0-2.595,1.963-6.811,5.479 c-0.067,0.056-0.122,0.121-0.162,0.178c0.137,0.129,3.561,3.6,6.335,2.213c-1.01,2.615,2.087,6.256,2.216,6.393 c0.07-0.054,0.149-0.122,0.217-0.204c1.994-2.366,3.585-4.297,5.191-6.575c0.017-0.025,0.049-0.065,0.066-0.09 c0.003-0.004-0.036,0.033-0.033,0.029c1.649-2.341,1.648-4.764-0.446-6.858C40.072,3.174,37.356,3.472,35.587,4.697z"/><linearGradient id="dYjv~llYkRk4qooaKHgCvV" x1="28.681" x2="43.717" y1="11.356" y2="11.356" gradientUnits="userSpaceOnUse"><stop offset="0" stop-color="#dae3ea"/><stop offset="1" stop-color="#9199a2"/></linearGradient><path fill="url(#dYjv~llYkRk4qooaKHgCvV)" d="M35.812,11.704c0.646-1.08-1.267-2.908,0.197-4.44c0.976-0.976,2.718-0.818,3.889,0.354 s1.33,2.913,0.354,3.889C38.701,13.001,36.898,11.013,35.812,11.704z M35.646,4.761L35.646,4.761c0,0-2.574,1.963-6.786,5.477 c-0.066,0.055-0.126,0.114-0.178,0.17c0.071,0.067,3.467,3.559,6.268,2.159c-0.982,2.625,2.098,6.265,2.163,6.333 c0.07-0.068,0.144-0.143,0.212-0.225c1.999-2.376,3.565-4.267,5.168-6.538c0.019-0.027,0.046-0.063,0.065-0.09 c0.001-0.002-0.043,0.042-0.042,0.04c1.653-2.342,1.678-4.676-0.418-6.772C40.009,3.227,37.351,3.582,35.646,4.761z"/><linearGradient id="dYjv~llYkRk4qooaKHgCvW" x1="17.299" x2="29.1" y1="6.421" y2="6.421" gradientTransform="rotate(45.001 25.962 25.5)" gradientUnits="userSpaceOnUse"><stop offset="0" stop-color="#dfe8ef"/><stop offset="1" stop-color="#959da6"/></linearGradient><path fill="url(#dYjv~llYkRk4qooaKHgCvW)" d="M35.812,11.704c0.646-1.08-1.267-2.908,0.197-4.44c0.976-0.976,2.718-0.818,3.889,0.354 s1.33,2.913,0.354,3.889C38.701,13.001,36.898,11.013,35.812,11.704z M42.475,12.003l-0.051,0.051 c1.658-2.342,1.708-4.588-0.389-6.686c-2.089-2.089-4.688-1.676-6.33-0.542l0,0c0,0-2.631,2.023-6.956,5.636 c0.005,0.005,3.373,3.518,6.2,2.104c-0.953,2.635,2.11,6.274,2.11,6.274C39.192,16.302,40.798,14.387,42.475,12.003z"/><g><linearGradient id="dYjv~llYkRk4qooaKHgCvX" x1="14.019" x2="25.891" y1="3.88" y2="3.912" gradientTransform="rotate(45.001 25.962 25.5)" gradientUnits="userSpaceOnUse"><stop offset=".196" stop-color="#363b3d" stop-opacity=".8"/><stop offset="1" stop-color="#363a3c" stop-opacity="0"/></linearGradient><path fill="url(#dYjv~llYkRk4qooaKHgCvX)" d="M40.237,7.279c-1.172-1.172-2.913-1.33-3.889-0.354c-0.064,0.067-0.113,0.134-0.164,0.202 c0.998-0.807,2.607-0.618,3.715,0.49c1.109,1.109,1.297,2.721,0.487,3.719c0.069-0.053,0.137-0.103,0.205-0.168 C41.567,10.191,41.409,8.45,40.237,7.279z"/><linearGradient id="dYjv~llYkRk4qooaKHgCvY" x1="13.999" x2="25.871" y1="11.243" y2="11.275" gradientTransform="rotate(45.001 25.962 25.5)" gradientUnits="userSpaceOnUse"><stop offset=".196" stop-color="#363b3d" stop-opacity=".8"/><stop offset="1" stop-color="#363a3c" stop-opacity="0"/></linearGradient><path fill="url(#dYjv~llYkRk4qooaKHgCvY)" d="M37.981,19.16c-0.711-0.755-3.956-4.407-2.694-6.931c-2.537,1.268-6.21-2.013-6.942-2.704 c-0.042-0.039-0.048-0.092-0.038-0.143c-0.096,0.079-0.188,0.155-0.285,0.236c-0.076,0.063-0.087,0.177-0.015,0.245 c0.731,0.691,4.405,3.972,6.942,2.704c-1.262,2.525,1.983,6.176,2.694,6.931c0.073,0.078,0.195,0.069,0.265-0.012 c0.082-0.095,0.154-0.192,0.236-0.287C38.085,19.213,38.026,19.207,37.981,19.16z"/></g><radialGradient id="dYjv~llYkRk4qooaKHgCvZ" cx="-810.802" cy="-250.895" r="1.619" gradientTransform="matrix(-1.2519 .9445 -.118 -.1564 -1012.76 734.643)" gradientUnits="userSpaceOnUse"><stop offset="0" stop-color="#fff" stop-opacity=".6"/><stop offset=".999" stop-color="#fff" stop-opacity="0"/></radialGradient><path fill="url(#dYjv~llYkRk4qooaKHgCvZ)" d="M29.657,9.78c-0.126-0.167,0.78-1.063,2.023-2.001c1.244-0.938,2.354-1.563,2.48-1.396	c0.126,0.167-0.78,1.063-2.023,2.001C30.893,9.322,29.783,9.947,29.657,9.78z"/><radialGradient id="dYjv~llYkRk4qooaKHgCvaa" cx="-816.155" cy="-255.711" r="1.474" gradientTransform="matrix(-.619 .7355 -.2072 -.1743 -517.563 567.009)" gradientUnits="userSpaceOnUse"><stop offset="0" stop-color="#fff" stop-opacity=".6"/><stop offset=".999" stop-color="#fff" stop-opacity="0"/></radialGradient><path fill="url(#dYjv~llYkRk4qooaKHgCvaa)" d="M39.612,12.507c-0.201-0.17,0.089-0.846,0.649-1.511c0.56-0.665,1.177-1.067,1.378-0.897	c0.201,0.17-0.089,0.846-0.649,1.511C40.43,12.275,39.813,12.677,39.612,12.507z"/><radialGradient id="dYjv~llYkRk4qooaKHgCvab" cx="-772.299" cy="-254.237" r="1.232" gradientTransform="matrix(-.5933 .7563 -.213 -.1671 -499.568 582.517)" gradientUnits="userSpaceOnUse"><stop offset="0" stop-color="#fff" stop-opacity=".9"/><stop offset=".999" stop-color="#fff" stop-opacity="0"/></radialGradient><path fill="url(#dYjv~llYkRk4qooaKHgCvab)" d="M12.05,41.926c-0.173-0.136,0.05-0.709,0.498-1.281s0.952-0.925,1.125-0.789	c0.173,0.136-0.05,0.709-0.498,1.281C12.727,41.708,12.223,42.061,12.05,41.926z"/><radialGradient id="dYjv~llYkRk4qooaKHgCvac" cx="-1112.657" cy="31.383" r="1.626" gradientTransform="matrix(.3697 -.4651 .0875 .0696 413.39 -485.265)" gradientUnits="userSpaceOnUse"><stop offset="0" stop-color="#bac2ca"/><stop offset=".607" stop-color="#b6bec6" stop-opacity=".575"/><stop offset=".999" stop-color="#afb7bf" stop-opacity=".3"/></radialGradient><path fill="url(#dYjv~llYkRk4qooaKHgCvac)" d="M5.516,33.497c0.094,0.075-0.129,0.511-0.498,0.975c-0.369,0.464-0.744,0.78-0.838,0.705	c-0.094-0.075,0.129-0.511,0.498-0.975C5.047,33.738,5.422,33.422,5.516,33.497z"/></svg>