<svg xmlns="http://www.w3.org/2000/svg" viewBox="0 0 100 100"><path fill="none" stroke="#000" stroke-linecap="round" stroke-miterlimit="10" d="M60.5,23.5H34.1	c-5.854,0-10.6,4.746-10.6,10.6v31.8c0,5.854,4.746,10.6,10.6,10.6h31.8c5.854,0,10.6-4.746,10.6-10.6V51.5"/><line x1="76.5" x2="76.5" y1="41.5" y2="39.5" fill="none" stroke="#000" stroke-linecap="round" stroke-miterlimit="10"/><line x1="76.5" x2="76.5" y1="48.5" y2="44.5" fill="none" stroke="#000" stroke-linecap="round" stroke-miterlimit="10"/><path fill="none" stroke="#000" stroke-miterlimit="10" stroke-width="2" d="M69,82H31c-7.18,0-13-5.82-13-13V31	c0-7.18,5.82-13,13-13h38c7.18,0,13,5.82,13,13v38C82,76.18,76.18,82,69,82z"/><path d="M38.24,42.142c0-0.432,0.191-0.814,0.573-1.145l3.128-4.425C42.22,36.191,42.537,36,42.893,36	c0.28,0,0.534,0.089,0.763,0.267C43.886,36.445,44,36.674,44,36.953v25.979c0,0.305-0.128,0.547-0.381,0.725	c-0.255,0.178-0.547,0.267-0.878,0.267c-0.356,0-0.655-0.089-0.896-0.267c-0.242-0.177-0.362-0.42-0.362-0.725V40.311l-1.526,2.479	c-0.204,0.305-0.445,0.458-0.725,0.458c-0.28,0-0.515-0.108-0.706-0.324C38.335,42.708,38.24,42.447,38.24,42.142z"/><path d="M48,42.752v-5.76c0-0.229,0.122-0.444,0.366-0.648c0.243-0.203,0.506-0.305,0.788-0.305h13.654	c0.281,0,0.551,0.102,0.807,0.305C63.871,36.547,64,36.763,64,36.992v3.281c0,0.356-0.129,0.725-0.385,1.106L52.192,63.504	C52.038,63.835,51.756,64,51.346,64c-0.411,0-0.731-0.114-1.038-0.343c-0.308-0.229-0.462-0.521-0.462-0.878	c0-0.101,0.051-0.279,0.154-0.534l11.5-21.82v-2.06h-11v4.387c0,0.254-0.09,0.477-0.346,0.667c-0.257,0.191-0.552,0.286-0.885,0.286	c-0.359,0-0.661-0.095-0.904-0.286C48.122,43.229,48,43.006,48,42.752z"/></svg>