<svg xmlns="http://www.w3.org/2000/svg" viewBox="0 0 48 48"><radialGradient id="vzZTs4Jypd8KhQwefirKta" cx="17.119" cy="35.586" r="8.23" gradientTransform="matrix(.7296 .6839 -1.5057 1.6062 54.108 -40.714)" gradientUnits="userSpaceOnUse"><stop offset="0" stop-color="#afe041"/><stop offset=".108" stop-color="#abdb3e"/><stop offset=".24" stop-color="#9ecc37"/><stop offset=".385" stop-color="#89b32b"/><stop offset=".425" stop-color="#82ab27"/><stop offset=".534" stop-color="#6a9621"/><stop offset=".737" stop-color="#447417"/><stop offset=".899" stop-color="#2c5f11"/><stop offset="1" stop-color="#23570f"/></radialGradient><path fill="url(#vzZTs4Jypd8KhQwefirKta)" d="M26.922,32.104l0.446-1.453c-0.199-0.061-3.526-1.015-8.496,1.487l4.864-5.188l-2.218-2.079 l-4.937,5.267c2.237-5.181,1.057-8.482,0.983-8.678l-2.842,1.078c0.02,0.052,1.334,5.021-6.247,13.108l1.566,1.469l1.073,1.006 l0.044,0.041l1.101,1.032l1.539,1.442c7.573-8.078,12.645-7.088,12.701-7.073L26.922,32.104z"/><radialGradient id="vzZTs4Jypd8KhQwefirKtb" cx="16.849" cy="10.786" r="11.47" gradientTransform="matrix(.6983 -.7158 .5809 .5667 11.748 15.821)" gradientUnits="userSpaceOnUse"><stop offset="0" stop-color="#afe041"/><stop offset=".108" stop-color="#abdb3e"/><stop offset=".24" stop-color="#9ecc37"/><stop offset=".385" stop-color="#89b32b"/><stop offset=".425" stop-color="#82ab27"/><stop offset=".534" stop-color="#6a9621"/><stop offset=".737" stop-color="#447417"/><stop offset=".899" stop-color="#2c5f11"/><stop offset="1" stop-color="#23570f"/></radialGradient><path fill="url(#vzZTs4Jypd8KhQwefirKtb)" d="M36.373,19.476c-0.136,0.145-0.272,0.288-0.419,0.415c-0.15,0.13-0.281,0.287-0.441,0.398 c-0.162,0.113-0.262,0.352-0.433,0.446c-0.173,0.095-0.483-0.079-0.663-0.003c-0.182,0.076-0.297,0.343-0.484,0.4 c-0.188,0.057-0.412,0.004-0.604,0.04c-0.193,0.037-0.396-0.006-0.591,0.01c-0.196,0.016-0.389,0.128-0.585,0.124 c-0.196-0.004-0.387-0.103-0.582-0.127c-0.194-0.024-0.365-0.143-0.557-0.187c-0.19-0.044-0.445,0.127-0.631,0.062 c-0.185-0.064-0.323-0.26-0.502-0.344c-0.176-0.083-0.46,0.01-0.629-0.093c-0.167-0.101-0.34-0.233-0.498-0.353 c-0.155-0.118-0.138-0.452-0.283-0.587c-0.145-0.136-0.264-0.283-0.391-0.429c-0.13-0.15-0.416-0.178-0.527-0.338 c-0.113-0.162-0.135-0.389-0.229-0.56c-0.095-0.173,0.013-0.433-0.063-0.613c-0.076-0.182-0.329-0.289-0.386-0.477 c-0.057-0.188,0.036-0.407,0-0.599c-0.037-0.193-0.106-0.37-0.122-0.566c-0.016-0.196-0.23-0.387-0.226-0.583 c0.004-0.196,0.277-0.372,0.302-0.567c0.024-0.194,0.105-0.362,0.149-0.553c0.044-0.19-0.113-0.431-0.048-0.617 c0.064-0.185,0.338-0.276,0.422-0.454c0.083-0.176-0.047-0.46,0.056-0.629c0.101-0.167,0.244-0.312,0.364-0.47 c0.118-0.155,0.107-0.436,0.243-0.581c0.136-0.145,0.438-0.129,0.585-0.256c0.15-0.13,0.301-0.253,0.461-0.364 c0.162-0.113,0.287-0.292,0.458-0.386c0.173-0.095,0.348-0.205,0.529-0.281c0.182-0.076,0.377-0.145,0.564-0.202 c0.188-0.057,0.443,0.177,0.636,0.141c0.193-0.037,0.356-0.209,0.551-0.225c0.196-0.016,0.384,0.145,0.58,0.149 c0.196,0.004,0.411-0.314,0.606-0.289c0.194,0.024,0.369,0.194,0.561,0.239c0.19,0.044,0.344,0.197,0.53,0.262 c0.185,0.064,0.383,0.074,0.561,0.158c0.176,0.083,0.437,0.02,0.606,0.122c0.167,0.101,0.163,0.451,0.321,0.571 c0.155,0.118,0.361,0.16,0.505,0.296c0.145,0.136,0.439,0.132,0.566,0.278c0.13,0.15-0.008,0.504,0.104,0.664 c0.113,0.162,0.426,0.193,0.52,0.364c0.095,0.173,0.152,0.37,0.228,0.55c0.076,0.182-0.106,0.446-0.049,0.633 c0.057,0.188,0.529,0.274,0.566,0.467c0.037,0.193-0.179,0.431-0.162,0.626c0.016,0.196,0.215,0.393,0.212,0.589 c-0.004,0.196-0.022,0.409-0.046,0.603c-0.024,0.194-0.11,0.393-0.154,0.584c-0.044,0.19-0.181,0.363-0.246,0.549 c-0.064,0.185-0.149,0.364-0.233,0.543c-0.083,0.176-0.013,0.45-0.115,0.619c-0.101,0.167-0.462,0.166-0.582,0.324 C36.556,19.12,36.508,19.331,36.373,19.476z"/><radialGradient id="vzZTs4Jypd8KhQwefirKtc" cx=".397" cy="24.983" r="13.282" gradientTransform="matrix(.6956 -.7185 .5127 .4964 -5.02 -3.138)" gradientUnits="userSpaceOnUse"><stop offset="0" stop-color="#afe041"/><stop offset=".108" stop-color="#abdb3e"/><stop offset=".24" stop-color="#9ecc37"/><stop offset=".385" stop-color="#89b32b"/><stop offset=".425" stop-color="#82ab27"/><stop offset=".534" stop-color="#6a9621"/><stop offset=".737" stop-color="#447417"/><stop offset=".899" stop-color="#2c5f11"/><stop offset="1" stop-color="#23570f"/></radialGradient><path fill="url(#vzZTs4Jypd8KhQwefirKtc)" d="M18.022,20.159c-0.13,0.139,0.059,0.601-0.08,0.726c-0.141,0.127-0.371,0.169-0.52,0.281 c-0.151,0.114-0.325,0.211-0.484,0.31c-0.161,0.1-0.37,0.124-0.537,0.209c-0.169,0.085-0.367,0.103-0.541,0.172 c-0.175,0.07-0.344,0.151-0.523,0.205c-0.181,0.054-0.374,0.04-0.558,0.079c-0.184,0.039-0.356,0.129-0.543,0.151 c-0.187,0.022-0.374-0.011-0.562-0.005c-0.188,0.006-0.371,0.023-0.559,0.012c-0.188-0.01-0.378,0.019-0.564-0.008 c-0.186-0.026-0.325-0.26-0.508-0.303c-0.183-0.043-0.437,0.187-0.616,0.128c-0.178-0.058-0.418,0.007-0.592-0.068 c-0.172-0.074-0.148-0.559-0.315-0.649c-0.165-0.088-0.426,0.003-0.584-0.101c-0.156-0.102-0.442-0.042-0.591-0.16 c-0.147-0.115,0-0.573-0.139-0.703c-0.139-0.13-0.503-0.029-0.628-0.168c-0.127-0.141-0.078-0.423-0.191-0.573 c-0.114-0.151-0.339-0.22-0.438-0.379c-0.1-0.161-0.161-0.343-0.245-0.511c-0.085-0.169-0.296-0.286-0.365-0.46 c-0.07-0.175-0.252-0.329-0.306-0.509c-0.054-0.181,0.364-0.483,0.325-0.667c-0.039-0.184-0.508-0.298-0.53-0.485 c-0.022-0.187,0.177-0.401,0.171-0.589c-0.006-0.188,0.009-0.376,0.019-0.564c0.01-0.188-0.137-0.398-0.111-0.584 c0.026-0.186,0.403-0.306,0.446-0.489c0.043-0.183-0.228-0.452-0.17-0.631c0.058-0.178,0.096-0.38,0.17-0.554 c0.074-0.172,0.513-0.168,0.602-0.335c0.088-0.165-0.165-0.532-0.061-0.691c0.102-0.156,0.458-0.137,0.575-0.286 c0.115-0.147-0.021-0.519,0.109-0.658c0.13-0.139,0.273-0.291,0.412-0.416c0.141-0.127,0.403-0.126,0.553-0.238 c0.151-0.114,0.409-0.068,0.568-0.167c0.161-0.1,0.193-0.431,0.36-0.516c0.169-0.085,0.438,0.042,0.612-0.028 c0.175-0.07,0.383-0.015,0.563-0.069c0.181-0.054,0.331-0.176,0.515-0.215c0.184-0.039,0.33-0.336,0.516-0.358 c0.187-0.022,0.387-0.11,0.575-0.116c0.188-0.006,0.375,0.401,0.563,0.411c0.188,0.01,0.398-0.235,0.585-0.208 c0.186,0.026,0.31,0.36,0.494,0.403c0.183,0.043,0.372,0.012,0.551,0.071c0.178,0.058,0.313,0.194,0.486,0.268 c0.172,0.074,0.522-0.218,0.688-0.129c0.165,0.088,0.104,0.558,0.262,0.662c0.156,0.102,0.533-0.103,0.682,0.014 c0.147,0.115,0.26,0.29,0.399,0.42c0.139,0.13,0.091,0.438,0.215,0.577c0.127,0.141,0.339,0.201,0.451,0.351 c0.114,0.151,0.276,0.27,0.375,0.429c0.1,0.161,0.037,0.408,0.122,0.575c0.085,0.169,0.321,0.265,0.39,0.439 c0.07,0.175,0.27,0.316,0.324,0.495c0.054,0.181-0.122,0.426-0.084,0.61c0.039,0.184,0.328,0.335,0.35,0.522 c0.022,0.187-0.103,0.398-0.097,0.586c0.006,0.188,0.18,0.393,0.169,0.581c-0.01,0.188-0.16,0.379-0.187,0.565 c-0.026,0.186-0.379,0.308-0.422,0.492c-0.043,0.183,0.018,0.382-0.041,0.561c-0.058,0.178,0.084,0.435,0.009,0.608 c-0.074,0.172-0.267,0.295-0.357,0.462c-0.088,0.165,0.004,0.451-0.1,0.609c-0.102,0.156-0.54,0.078-0.657,0.227 C18.312,19.932,18.153,20.021,18.022,20.159z"/><radialGradient id="vzZTs4Jypd8KhQwefirKtd" cx="31.394" cy="23.503" r="13.184" gradientTransform="matrix(.6852 -.7284 .5783 .544 -3.41 39.178)" gradientUnits="userSpaceOnUse"><stop offset="0" stop-color="#afe041"/><stop offset=".108" stop-color="#abdb3e"/><stop offset=".24" stop-color="#9ecc37"/><stop offset=".385" stop-color="#89b32b"/><stop offset=".425" stop-color="#82ab27"/><stop offset=".534" stop-color="#6a9621"/><stop offset=".737" stop-color="#447417"/><stop offset=".899" stop-color="#2c5f11"/><stop offset="1" stop-color="#23570f"/></radialGradient><path fill="url(#vzZTs4Jypd8KhQwefirKtd)" d="M38.02,38.906c-0.13,0.139-0.209,0.34-0.348,0.464c-0.141,0.127-0.347,0.187-0.496,0.299 c-0.151,0.114-0.319,0.21-0.478,0.309c-0.161,0.1-0.238,0.372-0.405,0.457c-0.169,0.085-0.534-0.264-0.708-0.195 c-0.175,0.07-0.327,0.15-0.507,0.204c-0.181,0.054-0.351,0.074-0.535,0.113c-0.184,0.039-0.308,0.428-0.494,0.451 c-0.187,0.022-0.398-0.292-0.586-0.286c-0.188,0.006-0.379,0.36-0.567,0.35c-0.188-0.01-0.378-0.112-0.564-0.138 c-0.186-0.026-0.398,0.022-0.582-0.02c-0.183-0.043-0.306-0.319-0.485-0.377c-0.178-0.058-0.469,0.158-0.643,0.083 c-0.172-0.074-0.266-0.341-0.433-0.431c-0.165-0.088-0.182-0.412-0.34-0.516c-0.156-0.102-0.529,0.099-0.678-0.019 c-0.147-0.115-0.35-0.193-0.489-0.323c-0.139-0.13,0.033-0.563-0.092-0.702c-0.127-0.141-0.363-0.177-0.475-0.327 c-0.114-0.151-0.192-0.321-0.291-0.479c-0.1-0.161-0.341-0.242-0.426-0.41c-0.085-0.169-0.254-0.313-0.324-0.487 c-0.07-0.175,0.114-0.445,0.06-0.625c-0.054-0.181-0.375-0.3-0.413-0.484c-0.039-0.184-0.024-0.394-0.046-0.581 c-0.022-0.187-0.041-0.389-0.047-0.577c-0.006-0.188,0.111-0.385,0.121-0.573c0.01-0.188,0.245-0.349,0.272-0.536 c0.026-0.186,0.007-0.369,0.05-0.552c0.043-0.183,0.183-0.324,0.241-0.504c0.058-0.178-0.16-0.456-0.086-0.63 c0.074-0.172,0.27-0.29,0.359-0.456c0.088-0.165,0.085-0.388,0.189-0.547c0.102-0.156,0.41-0.163,0.527-0.312 c0.115-0.147,0.21-0.297,0.34-0.435c0.13-0.139,0.216-0.307,0.355-0.432c0.141-0.127,0.112-0.468,0.261-0.58 c0.151-0.114,0.427-0.062,0.586-0.161c0.161-0.1,0.368-0.108,0.535-0.193c0.169-0.085,0.301-0.242,0.475-0.311 c0.175-0.07,0.382-0.039,0.561-0.093c0.181-0.054,0.294-0.39,0.478-0.428c0.184-0.039,0.394-0.021,0.58-0.043 c0.187-0.022,0.398,0.272,0.586,0.266c0.188-0.006,0.385-0.415,0.573-0.405c0.188,0.01,0.391,0.073,0.577,0.1 c0.186,0.026,0.39,0.06,0.574,0.103c0.183,0.043,0.385,0.088,0.565,0.146c0.178,0.058,0.221,0.487,0.395,0.561 c0.172,0.074,0.486-0.143,0.652-0.054c0.165,0.088,0.256,0.319,0.415,0.422c0.156,0.102,0.257,0.281,0.406,0.398 c0.147,0.115,0.156,0.372,0.294,0.502c0.139,0.13,0.631-0.089,0.756,0.05c0.127,0.141,0.173,0.369,0.286,0.518 c0.114,0.151,0.267,0.292,0.366,0.451c0.1,0.161,0.179,0.35,0.263,0.517c0.085,0.169-0.156,0.483-0.087,0.657 c0.07,0.175,0.247,0.301,0.301,0.481c0.054,0.181,0.214,0.334,0.252,0.518c0.039,0.184,0.163,0.364,0.185,0.551 c0.022,0.187-0.358,0.4-0.352,0.588c0.006,0.188,0.082,0.359,0.072,0.547c-0.01,0.188,0.134,0.383,0.107,0.57 c-0.026,0.186-0.294,0.316-0.337,0.5c-0.043,0.183,0.077,0.397,0.018,0.576c-0.058,0.178-0.137,0.342-0.211,0.516 c-0.074,0.172-0.076,0.375-0.165,0.542c-0.088,0.165-0.161,0.341-0.265,0.499c-0.102,0.156-0.198,0.323-0.315,0.473 C38.267,38.614,38.15,38.767,38.02,38.906z"/><radialGradient id="vzZTs4Jypd8KhQwefirKte" cx="22.633" cy="14.047" r="13.115" gradientTransform="matrix(.6856 -.728 .578 .5444 8.131 25.037)" gradientUnits="userSpaceOnUse"><stop offset="0" stop-color="#afe041"/><stop offset=".108" stop-color="#abdb3e"/><stop offset=".24" stop-color="#9ecc37"/><stop offset=".385" stop-color="#89b32b"/><stop offset=".425" stop-color="#82ab27"/><stop offset=".534" stop-color="#6a9621"/><stop offset=".737" stop-color="#447417"/><stop offset=".899" stop-color="#2c5f11"/><stop offset="1" stop-color="#23570f"/></radialGradient><path fill="url(#vzZTs4Jypd8KhQwefirKte)" d="M39.322,26.776c-0.13,0.139-0.12,0.41-0.259,0.534c-0.141,0.127-0.431,0.059-0.58,0.171 c-0.151,0.114-0.085,0.543-0.244,0.642c-0.161,0.1-0.423,0.034-0.591,0.119c-0.169,0.085-0.278,0.319-0.452,0.389 c-0.175,0.07-0.356,0.175-0.535,0.23c-0.181,0.054-0.421-0.085-0.605-0.047c-0.184,0.039-0.401-0.175-0.588-0.153 c-0.187,0.022-0.348,0.24-0.536,0.246c-0.188,0.006-0.384,0.187-0.572,0.177c-0.188-0.01-0.335-0.41-0.521-0.437 c-0.186-0.026-0.396,0.133-0.58,0.091c-0.183-0.043-0.386-0.017-0.565-0.076c-0.178-0.058-0.34-0.169-0.514-0.243 c-0.172-0.074-0.247-0.332-0.414-0.422c-0.165-0.088-0.453,0.04-0.611-0.064c-0.156-0.102-0.344-0.177-0.493-0.294 c-0.147-0.115-0.343-0.194-0.482-0.325c-0.139-0.13-0.319-0.241-0.444-0.38c-0.127-0.141-0.056-0.455-0.168-0.604 c-0.114-0.151-0.16-0.341-0.259-0.5c-0.1-0.161-0.071-0.377-0.156-0.544c-0.085-0.169-0.539-0.168-0.608-0.343 c-0.07-0.175-0.207-0.348-0.261-0.527c-0.054-0.181,0.049-0.417,0.01-0.601c-0.039-0.184,0.083-0.397,0.061-0.584 c-0.022-0.187-0.087-0.368-0.093-0.556c-0.006-0.188,0.093-0.371,0.103-0.559c0.01-0.188,0.06-0.362,0.087-0.548 c0.026-0.186,0.147-0.339,0.189-0.523c0.043-0.183-0.22-0.446-0.162-0.625c0.058-0.178,0.387-0.252,0.461-0.426 c0.074-0.172-0.142-0.483-0.053-0.65c0.088-0.165,0.35-0.234,0.453-0.392c0.102-0.156,0.056-0.428,0.173-0.577 c0.115-0.147,0.284-0.265,0.414-0.404c0.13-0.139,0.295-0.25,0.434-0.375c0.141-0.127,0.399-0.107,0.549-0.219 c0.151-0.114,0.327-0.169,0.486-0.268c0.161-0.1,0.256-0.298,0.423-0.382c0.169-0.085,0.297-0.262,0.471-0.332 c0.175-0.07,0.41,0.034,0.589-0.021c0.181-0.054,0.316-0.281,0.5-0.32c0.184-0.039,0.407,0.175,0.593,0.153 c0.187-0.022,0.362,0.025,0.551,0.019c0.188-0.006,0.362-0.094,0.55-0.084c0.188,0.01,0.401-0.235,0.587-0.208 c0.186,0.026,0.399-0.008,0.582,0.034c0.183,0.043,0.325,0.269,0.504,0.328c0.178,0.058,0.276,0.313,0.45,0.387 c0.172,0.074,0.385,0.041,0.552,0.131c0.165,0.088,0.42,0.032,0.579,0.135c0.156,0.102,0.363,0.162,0.512,0.279 c0.147,0.115,0.104,0.46,0.243,0.59c0.139,0.13,0.15,0.361,0.275,0.5c0.127,0.141,0.306,0.214,0.419,0.364 c0.114,0.151,0.548,0.086,0.647,0.245c0.1,0.161,0.11,0.39,0.195,0.557c0.085,0.169,0.146,0.36,0.216,0.534 c0.07,0.175,0.268,0.322,0.322,0.502c0.054,0.181-0.03,0.412,0.009,0.596c0.039,0.184-0.036,0.392-0.014,0.579 c0.022,0.187-0.083,0.379-0.077,0.567c0.006,0.188-0.09,0.361-0.101,0.549c-0.01,0.188-0.017,0.358-0.043,0.545 c-0.026,0.186-0.055,0.354-0.098,0.538c-0.043,0.183,0.268,0.464,0.209,0.643c-0.058,0.178-0.51,0.206-0.584,0.38 c-0.074,0.172-0.042,0.379-0.132,0.546c-0.088,0.165,0.047,0.466-0.056,0.624c-0.102,0.156-0.501,0.099-0.618,0.248 C39.534,26.481,39.452,26.637,39.322,26.776z"/><radialGradient id="vzZTs4Jypd8KhQwefirKtf" cx="6.946" cy="14.9" r="13.103" gradientTransform="matrix(.69 -.7238 .6368 .607 5.46 2.085)" gradientUnits="userSpaceOnUse"><stop offset="0" stop-color="#afe041"/><stop offset=".108" stop-color="#abdb3e"/><stop offset=".24" stop-color="#9ecc37"/><stop offset=".385" stop-color="#89b32b"/><stop offset=".425" stop-color="#82ab27"/><stop offset=".534" stop-color="#6a9621"/><stop offset=".737" stop-color="#447417"/><stop offset=".899" stop-color="#2c5f11"/><stop offset="1" stop-color="#23570f"/></radialGradient><path fill="url(#vzZTs4Jypd8KhQwefirKtf)" d="M30.011,18.048c-0.13,0.139-0.306,0.226-0.445,0.35c-0.141,0.127-0.212,0.338-0.362,0.45 c-0.151,0.114-0.282,0.271-0.441,0.37c-0.161,0.1-0.355,0.158-0.522,0.242c-0.169,0.085-0.457-0.11-0.631-0.04 c-0.175,0.07-0.337,0.12-0.517,0.174c-0.181,0.054-0.253,0.535-0.437,0.573c-0.184,0.039-0.407-0.076-0.594-0.054 c-0.187,0.022-0.387-0.149-0.575-0.143c-0.188,0.006-0.37,0.058-0.558,0.047c-0.188-0.01-0.384,0.067-0.57,0.04 c-0.186-0.026-0.393,0.019-0.577-0.024c-0.183-0.043-0.388-0.053-0.568-0.112c-0.178-0.058-0.37-0.126-0.543-0.2 c-0.172-0.074-0.37-0.134-0.537-0.223c-0.165-0.088-0.184-0.434-0.343-0.537c-0.156-0.102-0.202-0.337-0.351-0.454 c-0.147-0.115-0.582,0.105-0.721-0.025c-0.139-0.13,0.025-0.553-0.1-0.692c-0.127-0.141-0.565-0.025-0.677-0.174 c-0.114-0.151,0.137-0.55,0.038-0.709c-0.1-0.161-0.205-0.296-0.289-0.463c-0.085-0.169-0.223-0.297-0.292-0.471 c-0.07-0.175-0.292-0.293-0.346-0.473c-0.054-0.181-0.121-0.362-0.159-0.546c-0.039-0.184-0.148-0.366-0.17-0.553 c-0.022-0.187-0.036-0.387-0.042-0.575c-0.006-0.188,0.013-0.387,0.024-0.575c0.01-0.188,0.084-0.378,0.111-0.564 c0.026-0.186-0.027-0.397,0.015-0.581c0.043-0.183,0.182-0.349,0.241-0.528c0.058-0.178,0.207-0.325,0.282-0.499 c0.074-0.172,0.164-0.335,0.253-0.502c0.088-0.165,0.181-0.325,0.284-0.484c0.102-0.156,0.063-0.423,0.181-0.572 c0.115-0.147,0.448-0.111,0.578-0.25c0.13-0.139,0.303-0.213,0.442-0.337c0.141-0.127,0.061-0.519,0.211-0.631 c0.151-0.114,0.293-0.27,0.452-0.369c0.161-0.1,0.509,0.131,0.677,0.046c0.169-0.085,0.301-0.225,0.475-0.295 c0.175-0.07,0.366-0.063,0.546-0.117c0.181-0.054,0.295-0.359,0.479-0.398c0.184-0.039,0.407,0.158,0.594,0.136 c0.187-0.022,0.366,0.008,0.554,0.002c0.188-0.006,0.384-0.392,0.572-0.382c0.188,0.01,0.352,0.332,0.538,0.358 c0.186,0.026,0.416-0.16,0.599-0.117c0.183,0.043,0.397,0.033,0.577,0.092c0.178,0.058,0.363,0.153,0.536,0.227 c0.172,0.074,0.382,0.117,0.549,0.206c0.165,0.088,0.132,0.521,0.29,0.625c0.156,0.102,0.44,0.025,0.59,0.143 c0.147,0.115,0.161,0.386,0.3,0.516c0.139,0.13,0.441,0.098,0.566,0.237c0.127,0.141,0.054,0.445,0.167,0.594 c0.114,0.151,0.487,0.128,0.586,0.287c0.1,0.161-0.165,0.525-0.08,0.692c0.085,0.169,0.47,0.197,0.54,0.372 c0.07,0.175,0.189,0.348,0.244,0.527c0.054,0.181-0.248,0.452-0.21,0.636c0.039,0.184,0.209,0.338,0.231,0.525 c0.022,0.187,0.236,0.365,0.243,0.553c0.006,0.188-0.118,0.384-0.128,0.572c-0.01,0.188-0.036,0.378-0.063,0.564 c-0.026,0.186-0.215,0.338-0.258,0.522c-0.043,0.183,0.209,0.452,0.15,0.631c-0.058,0.178-0.344,0.279-0.418,0.453 c-0.074,0.172-0.082,0.377-0.172,0.544c-0.088,0.165-0.357,0.218-0.461,0.377c-0.102,0.156,0.008,0.465-0.11,0.614 C30.342,17.827,30.142,17.909,30.011,18.048z"/><radialGradient id="vzZTs4Jypd8KhQwefirKtg" cx="4.191" cy="20.496" r="16.877" gradientTransform="matrix(.6651 -.7468 .5687 .5064 -.54 1.05)" gradientUnits="userSpaceOnUse"><stop offset="0" stop-color="#afe041"/><stop offset=".108" stop-color="#abdb3e"/><stop offset=".24" stop-color="#9ecc37"/><stop offset=".385" stop-color="#89b32b"/><stop offset=".425" stop-color="#82ab27"/><stop offset=".534" stop-color="#6a9621"/><stop offset=".737" stop-color="#447417"/><stop offset=".899" stop-color="#2c5f11"/><stop offset="1" stop-color="#23570f"/></radialGradient><path fill="url(#vzZTs4Jypd8KhQwefirKtg)" d="M25.451,22.447c-0.136,0.145-0.186,0.351-0.33,0.484c-0.146,0.135-0.287,0.253-0.44,0.376 c-0.155,0.124-0.26,0.295-0.422,0.407c-0.163,0.113-0.371,0.132-0.54,0.232c-0.171,0.101-0.315,0.218-0.492,0.306 c-0.178,0.088-0.286,0.308-0.469,0.383c-0.183,0.075-0.311,0.312-0.498,0.373c-0.188,0.062-0.496-0.31-0.687-0.262 c-0.192,0.048-0.348,0.179-0.542,0.213c-0.195,0.034-0.358,0.24-0.554,0.26c-0.197,0.02-0.385,0.247-0.583,0.253 c-0.197,0.006-0.405-0.091-0.602-0.099c-0.197-0.008-0.417,0.122-0.614,0.1c-0.196-0.022-0.365-0.291-0.56-0.326 c-0.194-0.036-0.397-0.04-0.589-0.089c-0.191-0.049-0.455,0.108-0.643,0.045c-0.187-0.063-0.339-0.259-0.522-0.335 c-0.182-0.076-0.366-0.17-0.543-0.259c-0.176-0.089-0.294-0.294-0.464-0.396c-0.168-0.101-0.329-0.216-0.492-0.33 c-0.161-0.113-0.395-0.137-0.55-0.263c-0.152-0.124-0.389-0.173-0.534-0.309c-0.145-0.136-0.287-0.297-0.421-0.441 c-0.135-0.146-0.32-0.272-0.443-0.425c-0.124-0.155-0.062-0.463-0.174-0.624c-0.113-0.163-0.043-0.438-0.143-0.607 c-0.101-0.171-0.168-0.345-0.256-0.522c-0.088-0.178-0.597-0.169-0.671-0.351c-0.075-0.183-0.063-0.416-0.125-0.604 c-0.062-0.188-0.026-0.415-0.074-0.606c-0.048-0.192,0.278-0.457,0.244-0.651c-0.034-0.195-0.41-0.335-0.43-0.531 c-0.02-0.197-0.182-0.394-0.188-0.592c-0.006-0.197,0.507-0.391,0.515-0.588c0.008-0.197-0.483-0.429-0.462-0.626 c0.022-0.196,0.471-0.33,0.507-0.525c0.036-0.194,0.021-0.386,0.07-0.578c0.049-0.191-0.2-0.471-0.136-0.659 c0.063-0.187,0.441-0.255,0.517-0.438c0.076-0.182-0.137-0.497-0.047-0.674c0.089-0.176,0.344-0.266,0.446-0.436 c0.101-0.168,0.108-0.403,0.222-0.565c0.113-0.161,0.333-0.245,0.459-0.4c0.124-0.152,0.013-0.525,0.149-0.67 c0.136-0.145,0.314-0.276,0.458-0.41c0.146-0.135,0.361-0.214,0.514-0.337c0.155-0.124,0.448-0.072,0.61-0.183 c0.163-0.113,0.436-0.036,0.606-0.136c0.171-0.101,0.29-0.267,0.466-0.355c0.178-0.088,0.402-0.034,0.584-0.109 c0.183-0.075,0.185-0.638,0.372-0.699c0.188-0.062,0.452,0.109,0.643,0.061c0.192-0.048,0.42,0.107,0.614,0.073 c0.195-0.034,0.339-0.42,0.536-0.44c0.197-0.02,0.404-0.084,0.601-0.091c0.197-0.006,0.392,0.475,0.589,0.483 c0.197,0.008,0.433-0.497,0.629-0.476c0.196,0.022,0.331,0.484,0.525,0.519c0.194,0.036,0.453-0.231,0.645-0.182 c0.191,0.049,0.31,0.345,0.498,0.408c0.187,0.063,0.378,0.095,0.561,0.171c0.182,0.076,0.302,0.264,0.479,0.353 c0.176,0.089,0.413,0.05,0.583,0.152c0.168,0.101,0.309,0.238,0.472,0.352c0.161,0.113,0.524-0.031,0.679,0.095 c0.152,0.124-0.076,0.682,0.069,0.818c0.145,0.136,0.354,0.182,0.487,0.326c0.135,0.146,0.431,0.143,0.553,0.297 c0.124,0.155,0.297,0.278,0.409,0.439c0.113,0.163-0.031,0.484,0.068,0.654c0.101,0.171,0.331,0.26,0.419,0.436 c0.088,0.178,0.408,0.256,0.483,0.438c0.075,0.183-0.351,0.546-0.29,0.734c0.062,0.188,0.687,0.212,0.735,0.403 c0.048,0.192-0.069,0.433-0.035,0.627c0.034,0.195,0.111,0.393,0.132,0.59c0.02,0.197-0.222,0.413-0.216,0.611 c0.006,0.197,0.207,0.396,0.2,0.593c-0.008,0.197-0.287,0.373-0.308,0.569c-0.022,0.196,0.23,0.431,0.195,0.626 c-0.036,0.194-0.065,0.399-0.114,0.591c-0.049,0.191-0.325,0.317-0.388,0.505c-0.063,0.187-0.071,0.39-0.147,0.573 c-0.076,0.182,0.012,0.445-0.077,0.622c-0.089,0.176-0.212,0.345-0.314,0.516c-0.101,0.168-0.231,0.33-0.345,0.493 c-0.113,0.161-0.571,0.054-0.696,0.208C25.699,22.166,25.587,22.301,25.451,22.447z"/><radialGradient id="vzZTs4Jypd8KhQwefirKth" cx="24.505" cy="20.426" r="16.848" gradientTransform="matrix(.7028 -.7114 .5601 .5533 .11 28.275)" gradientUnits="userSpaceOnUse"><stop offset="0" stop-color="#afe041"/><stop offset=".108" stop-color="#abdb3e"/><stop offset=".24" stop-color="#9ecc37"/><stop offset=".385" stop-color="#89b32b"/><stop offset=".425" stop-color="#82ab27"/><stop offset=".534" stop-color="#6a9621"/><stop offset=".737" stop-color="#447417"/><stop offset=".899" stop-color="#2c5f11"/><stop offset="1" stop-color="#23570f"/></radialGradient><path fill="url(#vzZTs4Jypd8KhQwefirKth)" d="M37.86,34.079c-0.136,0.145-0.337,0.23-0.481,0.363c-0.146,0.135-0.157,0.44-0.31,0.563 c-0.155,0.124-0.306,0.285-0.468,0.396c-0.163,0.113-0.64-0.268-0.81-0.168c-0.171,0.101-0.289,0.259-0.465,0.347 c-0.178,0.088-0.275,0.33-0.458,0.405c-0.183,0.075-0.308,0.32-0.495,0.382c-0.188,0.062-0.414,0.018-0.605,0.066 c-0.192,0.048-0.437-0.184-0.631-0.15c-0.195,0.034-0.37,0.099-0.567,0.119c-0.197,0.02-0.378,0.111-0.575,0.117 c-0.197,0.006-0.389,0.044-0.586,0.036c-0.197-0.008-0.385-0.064-0.581-0.086c-0.196-0.022-0.354-0.213-0.548-0.249 c-0.194-0.036-0.495,0.423-0.687,0.373c-0.191-0.049-0.256-0.526-0.444-0.589c-0.187-0.063-0.548,0.33-0.731,0.253 c-0.182-0.076-0.16-0.603-0.337-0.692c-0.176-0.089-0.435-0.013-0.605-0.115c-0.168-0.101-0.277-0.288-0.44-0.402 c-0.161-0.113-0.514,0.021-0.668-0.105c-0.152-0.124-0.118-0.471-0.263-0.607c-0.145-0.136-0.275-0.278-0.409-0.422 c-0.135-0.146-0.094-0.425-0.217-0.578c-0.124-0.155-0.546-0.079-0.657-0.241c-0.113-0.163-0.208-0.344-0.308-0.514 c-0.101-0.171-0.249-0.324-0.336-0.5c-0.088-0.178,0.007-0.44-0.067-0.623c-0.075-0.183-0.36-0.293-0.422-0.48 c-0.062-0.188-0.088-0.397-0.135-0.589c-0.048-0.192,0.318-0.466,0.284-0.661c-0.034-0.195-0.382-0.337-0.402-0.534 c-0.02-0.197,0.211-0.405,0.205-0.602c-0.006-0.197,0.077-0.377,0.084-0.575c0.008-0.197-0.519-0.434-0.498-0.63 c0.022-0.196,0.418-0.343,0.454-0.538c0.036-0.194,0.026-0.392,0.075-0.584c0.049-0.191,0.085-0.383,0.148-0.57 c0.063-0.187,0.148-0.362,0.224-0.545c0.076-0.182,0.313-0.278,0.402-0.455c0.089-0.176,0.228-0.303,0.33-0.473 c0.101-0.168,0.064-0.41,0.178-0.572c0.113-0.161,0.191-0.34,0.316-0.494c0.124-0.152,0.102-0.435,0.238-0.581 c0.136-0.145,0.263-0.312,0.407-0.445c0.146-0.135,0.481-0.05,0.635-0.172c0.155-0.124,0.058-0.595,0.22-0.707 c0.163-0.113,0.592,0.182,0.761,0.083c0.171-0.101,0.192-0.473,0.368-0.561c0.178-0.088,0.526,0.217,0.709,0.142 c0.183-0.075,0.208-0.567,0.396-0.628c0.188-0.062,0.507,0.348,0.698,0.3c0.192-0.048,0.273-0.597,0.467-0.632 c0.195-0.034,0.397-0.14,0.593-0.16c0.197-0.02,0.417,0.055,0.614,0.049c0.197-0.006,0.406,0.059,0.604,0.066 c0.197,0.008,0.373,0.301,0.569,0.322c0.196,0.022,0.435-0.247,0.63-0.211c0.194,0.036,0.439-0.081,0.631-0.031 c0.191,0.049,0.369,0.211,0.556,0.274c0.187,0.063,0.357,0.207,0.539,0.283c0.182,0.076,0.267,0.367,0.444,0.456 c0.176,0.089,0.286,0.275,0.457,0.377c0.168,0.101,0.278,0.263,0.441,0.377c0.161,0.113,0.398,0.102,0.553,0.228 c0.152,0.124,0.328,0.212,0.474,0.348c0.145,0.136,0.327,0.23,0.46,0.374c0.135,0.146,0.43,0.161,0.553,0.315 c0.124,0.155-0.114,0.577-0.003,0.739c0.113,0.163,0.676,0.04,0.776,0.21c0.101,0.171-0.186,0.558-0.099,0.734 c0.088,0.178,0.182,0.342,0.256,0.524c0.075,0.183,0.352,0.291,0.413,0.478c0.062,0.188,0.168,0.372,0.216,0.564 c0.048,0.192-0.072,0.425-0.038,0.619c0.034,0.195-0.177,0.414-0.156,0.61c0.02,0.197,0.27,0.368,0.276,0.565 c0.006,0.197,0.347,0.407,0.339,0.604c-0.008,0.197-0.07,0.412-0.092,0.609c-0.022,0.196-0.574,0.316-0.609,0.51 c-0.036,0.194,0.124,0.421,0.075,0.612c-0.049,0.191-0.106,0.376-0.169,0.564c-0.063,0.187-0.162,0.355-0.238,0.538 c-0.076,0.182-0.372,0.246-0.462,0.423c-0.089,0.176,0.295,0.608,0.193,0.779c-0.101,0.168-0.139,0.402-0.253,0.565 c-0.113,0.161-0.429,0.187-0.555,0.342C38.113,33.766,37.996,33.934,37.86,34.079z"/><radialGradient id="vzZTs4Jypd8KhQwefirKti" cx="10.975" cy="19.068" r="18.616" gradientTransform="matrix(.6865 -.7271 .6357 .6002 .173 8.432)" gradientUnits="userSpaceOnUse"><stop offset="0" stop-color="#afe041"/><stop offset=".108" stop-color="#abdb3e"/><stop offset=".24" stop-color="#9ecc37"/><stop offset=".385" stop-color="#89b32b"/><stop offset=".425" stop-color="#82ab27"/><stop offset=".534" stop-color="#6a9621"/><stop offset=".737" stop-color="#447417"/><stop offset=".899" stop-color="#2c5f11"/><stop offset="1" stop-color="#23570f"/></radialGradient><path fill="url(#vzZTs4Jypd8KhQwefirKti)" d="M34.055,26.673c-0.133,0.142-0.133,0.392-0.272,0.523c-0.141,0.133-0.209,0.337-0.356,0.46 c-0.149,0.124-0.143,0.453-0.298,0.567c-0.157,0.114-0.584-0.174-0.746-0.071c-0.164,0.104-0.3,0.219-0.469,0.312 c-0.17,0.093-0.354,0.117-0.528,0.2c-0.175,0.083-0.164,0.58-0.343,0.651c-0.18,0.071-0.498-0.256-0.682-0.197 c-0.184,0.06-0.199,0.709-0.385,0.757c-0.187,0.048-0.443-0.147-0.632-0.111c-0.19,0.036-0.415-0.158-0.606-0.133 c-0.192,0.024-0.381-0.044-0.574-0.032c-0.193,0.012-0.372-0.078-0.565-0.078c-0.193,0-0.398,0.5-0.59,0.488 c-0.193-0.012-0.416,0.126-0.608,0.102c-0.191-0.024-0.296-0.627-0.486-0.663c-0.189-0.036-0.355-0.111-0.542-0.158 c-0.187-0.048-0.484,0.3-0.668,0.241c-0.183-0.059-0.287-0.348-0.467-0.419c-0.179-0.071-0.461,0.089-0.636,0.007 c-0.174-0.082-0.397-0.099-0.567-0.192c-0.168-0.093-0.159-0.498-0.323-0.602c-0.162-0.103-0.203-0.365-0.36-0.479 c-0.155-0.113-0.37-0.128-0.52-0.252c-0.148-0.122-0.471-0.045-0.613-0.178c-0.142-0.133-0.008-0.533-0.14-0.673 c-0.133-0.141-0.718,0.116-0.841-0.032c-0.124-0.149,0.217-0.664,0.104-0.819c-0.114-0.157-0.462-0.145-0.565-0.308 c-0.104-0.164-0.439-0.203-0.531-0.371c-0.093-0.17-0.177-0.365-0.259-0.54c-0.083-0.175-0.21-0.352-0.281-0.531 c-0.071-0.18,0.424-0.566,0.364-0.75c-0.06-0.184-0.665-0.211-0.713-0.398c-0.048-0.187,0.128-0.438,0.092-0.627 c-0.036-0.19,0.199-0.42,0.175-0.611c-0.024-0.192-0.313-0.356-0.325-0.548c-0.012-0.193,0.16-0.392,0.16-0.585 c0-0.193,0.219-0.368,0.231-0.56c0.012-0.193-0.536-0.437-0.512-0.628c0.024-0.191,0.669-0.283,0.705-0.473 c0.036-0.189-0.401-0.477-0.353-0.664c0.048-0.187,0.367-0.296,0.426-0.48c0.059-0.183-0.295-0.521-0.224-0.701 c0.071-0.179,0.276-0.317,0.358-0.493c0.082-0.174,0.32-0.276,0.413-0.446c0.093-0.168,0.093-0.398,0.197-0.561 c0.103-0.162,0.216-0.328,0.33-0.485c0.113-0.155,0.517-0.082,0.641-0.231c0.122-0.148,0.288-0.237,0.421-0.379 c0.133-0.142,0.264-0.258,0.403-0.389c0.141-0.133,0.078-0.481,0.226-0.603c0.149-0.124,0.175-0.415,0.331-0.528 c0.157-0.114,0.552,0.123,0.714,0.02c0.164-0.104,0.317-0.197,0.485-0.29c0.17-0.093,0.132-0.594,0.306-0.676 c0.175-0.083,0.541,0.275,0.72,0.204c0.18-0.071,0.344-0.145,0.527-0.204c0.184-0.06,0.377-0.031,0.563-0.079 c0.187-0.048,0.26-0.599,0.449-0.635c0.19-0.036,0.378-0.202,0.569-0.226c0.192-0.024,0.424,0.241,0.617,0.228 c0.193-0.012,0.391,0.087,0.584,0.087c0.193,0,0.406-0.356,0.599-0.344c0.193,0.012,0.365,0.359,0.556,0.383 c0.191,0.024,0.364,0.151,0.554,0.187c0.189,0.036,0.453-0.241,0.64-0.193c0.187,0.048,0.406,0.045,0.59,0.104 c0.183,0.059,0.21,0.567,0.39,0.638c0.179,0.071,0.501-0.187,0.676-0.105c0.174,0.082,0.091,0.659,0.261,0.752 c0.168,0.093,0.585-0.246,0.749-0.142c0.162,0.103,0.334,0.209,0.491,0.323c0.155,0.113,0.27,0.292,0.419,0.416 c0.148,0.122,0.031,0.537,0.173,0.67c0.142,0.133,0.315,0.209,0.446,0.349c0.133,0.141,0.412,0.142,0.534,0.29 c0.124,0.149,0.518,0.099,0.631,0.254c0.114,0.157-0.316,0.683-0.213,0.845c0.104,0.164,0.416,0.187,0.509,0.356 c0.093,0.17,0.584,0.146,0.666,0.32c0.083,0.175,0.04,0.424,0.111,0.603c0.071,0.18-0.026,0.429,0.034,0.613 c0.06,0.184-0.036,0.411,0.012,0.597c0.048,0.187,0.501,0.29,0.538,0.48c0.036,0.19-0.263,0.442-0.239,0.633 c0.024,0.192-0.127,0.393-0.114,0.586c0.012,0.193,0.001,0.374,0.001,0.567c0,0.193,0.373,0.396,0.361,0.589 c-0.012,0.193-0.259,0.367-0.282,0.559c-0.024,0.191-0.21,0.349-0.246,0.539c-0.036,0.189-0.216,0.328-0.264,0.516 c-0.048,0.187,0.015,0.386-0.045,0.57c-0.059,0.183,0.099,0.436,0.028,0.616c-0.071,0.179,0.122,0.482,0.04,0.657 c-0.082,0.174-0.688,0.081-0.781,0.251c-0.093,0.168-0.14,0.344-0.244,0.508c-0.103,0.162,0.215,0.612,0.101,0.769 c-0.113,0.155-0.277,0.291-0.401,0.441C34.745,26.77,34.188,26.531,34.055,26.673z"/></svg>