<svg xmlns="http://www.w3.org/2000/svg" viewBox="0 0 48 48"><radialGradient id="G1_ADRjtpdlys8Te_XxCfa" cx="34.32" cy="8.498" r="14.034" gradientTransform="matrix(.6773 -.7358 .2855 .2628 8.65 31.516)" gradientUnits="userSpaceOnUse"><stop offset="0" stop-color="#9bcc00"/><stop offset=".235" stop-color="#98c901"/><stop offset=".441" stop-color="#8fbe02"/><stop offset=".634" stop-color="#80ac05"/><stop offset=".82" stop-color="#6a930a"/><stop offset="1" stop-color="#4f730f"/></radialGradient><path fill="url(#G1_ADRjtpdlys8Te_XxCfa)" d="M40.987,17.339c0.469-1.457-0.965-2.202-2.046-2.549c1.695,0.352,4.835,0.738,5.377-1.097 c0.615-2.082-2.828-2.562-2.828-2.562s3.052-3.682,1.446-5.343c-1.579-1.633-5.388,1.267-5.388,1.267s-0.365-3.457-2.466-2.912 c-1.853,0.48-1.572,3.632-1.277,5.337c-0.311-1.092-1.007-2.55-2.479-2.13c-1.98,0.565-0.552,5.155-0.423,6.783 c0.159,2.01-2.151,3.754-2.151,3.754l0.809,0.837l0.809,0.837c0,0,1.82-2.251,3.823-2.025 C35.816,17.718,40.356,19.299,40.987,17.339z"/><radialGradient id="G1_ADRjtpdlys8Te_XxCfb" cx="17.724" cy="25.765" r="30.959" gradientTransform="matrix(.6909 -.723 .2118 .2024 .022 33.364)" gradientUnits="userSpaceOnUse"><stop offset="0" stop-color="#ffc859"/><stop offset=".104" stop-color="#fcbc50"/><stop offset=".292" stop-color="#f49c37"/><stop offset=".474" stop-color="#eb771a"/><stop offset=".695" stop-color="#e66319"/><stop offset="1" stop-color="#e04c18"/></radialGradient><path fill="url(#G1_ADRjtpdlys8Te_XxCfb)" d="M32.553,15.823c-4.08-4.218-8.058-2.872-9.324-1.642 c-1.843,1.79-17.196,16.565-18.182,26.066C4.97,40.988,5.186,41.6,5.531,41.99c0.378,0.358,0.983,0.594,1.726,0.542 c9.528-0.667,24.808-15.518,26.659-17.3C35.187,24.007,36.632,20.042,32.553,15.823z"/><radialGradient id="G1_ADRjtpdlys8Te_XxCfc" cx="18.233" cy="26.458" r="14.797" gradientTransform="matrix(.7712 -.8946 .2079 .1803 -1.456 37.157)" gradientUnits="userSpaceOnUse"><stop offset="0" stop-color="#ebba6c"/><stop offset=".356" stop-color="#eaa454" stop-opacity=".816"/><stop offset=".505" stop-color="#ea9949" stop-opacity=".739"/><stop offset=".669" stop-color="#ea8b3a" stop-opacity=".385"/><stop offset=".769" stop-color="#e97c29" stop-opacity=".269"/><stop offset=".881" stop-color="#e9711e" stop-opacity=".139"/><stop offset="1" stop-color="#e96e1a" stop-opacity="0"/></radialGradient><path fill="url(#G1_ADRjtpdlys8Te_XxCfc)" d="M20.749,28.087C14.97,34.269,9.102,38.174,7.642,36.808 s2.041-7.483,7.819-13.664s11.647-10.086,13.107-8.721S26.528,21.906,20.749,28.087z" opacity=".74"/><path fill="#d65d1e" d="M28.678,19.845c-0.423-0.864-0.914-1.492-1.504-2.082c-0.591-0.596-1.234-1.1-2.027-1.651 c0.49-0.087,0.986,0.019,1.439,0.202c0.455,0.186,0.869,0.471,1.22,0.82c0.343,0.357,0.636,0.777,0.8,1.252 C28.77,18.852,28.837,19.373,28.678,19.845z"/><path fill="#c94e0c" d="M28.466,27.126c-0.423-0.864-0.914-1.492-1.504-2.082c-0.591-0.596-1.234-1.1-2.027-1.651 c0.49-0.087,0.986,0.019,1.439,0.202c0.455,0.186,0.869,0.471,1.22,0.82c0.343,0.357,0.636,0.777,0.8,1.252 C28.558,26.132,28.625,26.653,28.466,27.126z"/><path fill="#d65d1e" d="M20.734,27.139c-0.423-0.864-0.914-1.492-1.504-2.082c-0.591-0.596-1.234-1.1-2.027-1.651 c0.49-0.087,0.986,0.019,1.439,0.202c0.455,0.186,0.869,0.471,1.22,0.82c0.343,0.357,0.636,0.777,0.8,1.252 C20.826,26.146,20.893,26.667,20.734,27.139z"/><path fill="#c94e0c" d="M19.509,34.398c-0.423-0.864-0.914-1.492-1.504-2.082c-0.591-0.596-1.234-1.1-2.027-1.651 c0.49-0.087,0.986,0.019,1.439,0.202c0.455,0.186,0.869,0.471,1.22,0.82c0.343,0.357,0.636,0.777,0.8,1.252 C19.601,33.405,19.668,33.926,19.509,34.398z"/><path fill="#c94e0c" d="M13.247,37.529c-0.423-0.864-0.914-1.492-1.504-2.082c-0.591-0.596-1.234-1.1-2.027-1.651 c0.49-0.087,0.986,0.019,1.439,0.202c0.455,0.186,0.869,0.471,1.22,0.82c0.343,0.357,0.636,0.777,0.8,1.252 C13.339,36.535,13.406,37.056,13.247,37.529z"/></svg>