<svg xmlns="http://www.w3.org/2000/svg" viewBox="0 0 48 48"><radialGradient id="U0OW1ftFjpkj7YtBiLK4Ta" cx="24.231" cy="14.167" r="25.845" gradientTransform="matrix(.037 -.9993 .6083 .0225 14.716 38.062)" gradientUnits="userSpaceOnUse"><stop offset="0" stop-color="#e8e8d9"/><stop offset=".154" stop-color="#e2e3d5"/><stop offset=".356" stop-color="#d2d4c9"/><stop offset=".584" stop-color="#b7bbb6"/><stop offset=".83" stop-color="#91989c"/><stop offset="1" stop-color="#737c87"/></radialGradient><path fill="url(#U0OW1ftFjpkj7YtBiLK4Ta)" d="M24.001,12.909c-7.438,0-13.468-1.965-13.468-4.389l4.931,32.099 c0,0.998,2.369,3.184,8.342,3.184c5.387,0,8.342-2.186,8.342-3.184l5.244-31.634C36.68,11.19,30.958,12.909,24.001,12.909z"/><radialGradient id="U0OW1ftFjpkj7YtBiLK4Tb" cx="22.94" cy="11.901" r="17.426" gradientTransform="matrix(.9981 -.0623 .041 .6562 -.443 5.52)" gradientUnits="userSpaceOnUse"><stop offset="0" stop-color="#eff2f7"/><stop offset=".432" stop-color="#cdd1d7"/><stop offset="1" stop-color="#9a9fa8"/></radialGradient><ellipse cx="24.001" cy="8.52" fill="url(#U0OW1ftFjpkj7YtBiLK4Tb)" rx="13.468" ry="4.389"/><linearGradient id="U0OW1ftFjpkj7YtBiLK4Tc" x1="18.938" x2="35.029" y1="26.572" y2="26.572" gradientUnits="userSpaceOnUse"><stop offset="0" stop-color="#f0f0de"/><stop offset=".737" stop-color="#aeb0ad"/></linearGradient><path fill="url(#U0OW1ftFjpkj7YtBiLK4Tc)" d="M34.504,11.289c0.691,0.485,1.088,1.024,1.088,1.594c0,2.097-5.215,3.796-11.648,3.796 c-5.94,0-10.831-1.45-11.548-3.323l4.02,26.151v0.074c0.09,0.353,1.834,2.273,7.39,2.273c4.798,0,7.124-1.764,7.386-2.295 l4.399-26.676"/><radialGradient id="U0OW1ftFjpkj7YtBiLK4Td" cx="23.715" cy="39.808" r="8.26" gradientTransform="matrix(1 0 0 .4222 0 23)" gradientUnits="userSpaceOnUse"><stop offset="0" stop-color="#fff"/><stop offset=".251" stop-color="#edeee9"/><stop offset=".545" stop-color="#d4d5ca"/><stop offset=".619" stop-color="#d0d1c7"/><stop offset=".692" stop-color="#c4c7bf"/><stop offset=".764" stop-color="#b1b5b2"/><stop offset=".836" stop-color="#959b9f"/><stop offset=".905" stop-color="#737c87"/></radialGradient><path fill="url(#U0OW1ftFjpkj7YtBiLK4Td)" d="M32.92,35.641c0,1.489-4.12,3.471-9.166,3.471c-5.046,0-8.815-1.982-8.815-3.471l0.471,4.978 c0,0.998,2.369,3.184,8.342,3.184c5.387,0,8.342-2.186,8.342-3.184L32.92,35.641z"/><path fill="#fdfdff" d="M34.504,11.315c-1.85-1.299-5.877-2.202-10.56-2.202c-4.652,0-8.654,0.891-10.521,2.176 c2.857,1.089,6.875,1.611,10.579,1.611C27.668,12.9,31.65,12.386,34.504,11.315z"/><radialGradient id="U0OW1ftFjpkj7YtBiLK4Te" cx="14.269" cy="17.645" r="22.979" gradientUnits="userSpaceOnUse"><stop offset="0" stop-color="#e4e7e0"/><stop offset=".188" stop-color="#dfe2da"/><stop offset=".434" stop-color="#d1d4ca"/><stop offset=".712" stop-color="#b9bdaf"/><stop offset="1" stop-color="#9a9f8b"/></radialGradient><path fill="url(#U0OW1ftFjpkj7YtBiLK4Te)" d="M23.944,16.776c6.433,0,11.648-1.7,11.648-3.796c0-0.57-0.397-1.109-1.088-1.594 c-2.854,1.071-6.836,1.584-10.503,1.584c-3.704,0-7.721-0.521-10.579-1.611c-0.678,0.467-1.074,0.984-1.113,1.532l0.086,0.562 C13.113,15.326,18.004,16.776,23.944,16.776z"/><radialGradient id="U0OW1ftFjpkj7YtBiLK4Tf" cx="24.697" cy="9.177" r="16.134" gradientTransform="matrix(.9981 -.0623 .0236 .3789 -.17 7.239)" gradientUnits="userSpaceOnUse"><stop offset="0" stop-color="#eaece7"/><stop offset=".615" stop-color="#eceee9"/><stop offset=".837" stop-color="#f3f3ef"/><stop offset=".994" stop-color="#fefdfa"/><stop offset="1" stop-color="#fffdfb"/></radialGradient><path fill="url(#U0OW1ftFjpkj7YtBiLK4Tf)" d="M23.944,16.705c6.433,0,11.648-1.7,11.648-3.796c0-0.57-0.397-1.109-1.088-1.594 C31.65,12.386,27.668,12.9,24.001,12.9c-3.704,0-7.721-0.521-10.579-1.611c-0.678,0.467-1.074,0.984-1.113,1.532l0.086,0.562 C13.113,15.255,18.004,16.705,23.944,16.705z"/><radialGradient id="U0OW1ftFjpkj7YtBiLK4Tg" cx="16.358" cy="16.37" r="10.225" gradientTransform="matrix(-.0992 -1.2824 .2484 -.0319 13.915 39.003)" gradientUnits="userSpaceOnUse"><stop offset="0" stop-color="#fdfdff"/><stop offset=".366" stop-color="#fbfbfc" stop-opacity=".634"/><stop offset=".684" stop-color="#f7f7f1" stop-opacity=".316"/><stop offset=".985" stop-color="#efefdf" stop-opacity=".015"/><stop offset="1" stop-color="#eeeede" stop-opacity="0"/></radialGradient><path fill="url(#U0OW1ftFjpkj7YtBiLK4Tg)" d="M14.475,18.576c0.594,7.228,2.015,12.959,3.173,12.801 c1.158-0.158,1.615-6.146,1.021-13.374c-0.156-1.892-0.369-3.677-0.618-5.285c-1.439-0.299-2.732-0.7-3.824-1.185 C14.188,13.587,14.264,16,14.475,18.576z" opacity=".83"/><radialGradient id="U0OW1ftFjpkj7YtBiLK4Th" cx="23.46" cy="12.099" r="17.774" gradientTransform="matrix(1 0 0 .4098 0 7.14)" gradientUnits="userSpaceOnUse"><stop offset="0" stop-color="#ebebeb"/><stop offset=".156" stop-color="#dfe0e0"/><stop offset=".441" stop-color="#bec1c4"/><stop offset=".765" stop-color="#92989e"/></radialGradient><path fill="url(#U0OW1ftFjpkj7YtBiLK4Th)" d="M37.419,8.52c0.041,0.645-0.372,1.231-0.84,1.641c-0.467,0.435-1.014,0.768-1.577,1.055 c-1.139,0.555-2.349,0.929-3.57,1.233c-1.222,0.31-2.472,0.47-3.72,0.61c-1.25,0.135-2.505,0.183-3.761,0.208v-0.716l0.05,0v0.717 c-1.256-0.025-2.511-0.073-3.761-0.208c-1.247-0.141-2.498-0.299-3.72-0.609c-1.221-0.304-2.431-0.679-3.57-1.234 c-0.563-0.287-1.11-0.621-1.577-1.056c-0.468-0.409-0.881-0.996-0.84-1.641c0.042,0.64,0.487,1.136,0.964,1.497 c0.48,0.375,1.033,0.651,1.601,0.881c1.132,0.473,2.331,0.781,3.54,1.014c2.423,0.455,4.895,0.655,7.364,0.639v0.717l-0.05,0 v-0.716c2.47,0.017,4.941-0.185,7.365-0.638c1.209-0.233,2.408-0.542,3.54-1.014c0.567-0.23,1.121-0.506,1.6-0.881 C36.933,9.656,37.378,9.16,37.419,8.52z"/><path fill="#737c87" d="M23.808,39.56c-4.501,0-8.918-1.473-8.918-2.974h0.895c0.108,0.494,3.218,2.078,8.023,2.078 c4.796,0,7.89-1.583,7.995-2.087l0.895,0.009C32.697,38.087,28.294,39.56,23.808,39.56z"/><path fill="#737c87" d="M23.808,43.87c-4.716,0-8.272-1.541-8.272-3.583h0.895c0,1.271,3.03,2.688,7.377,2.688 c4.348,0,7.377-1.416,7.377-2.688h0.895C32.08,42.329,28.524,43.87,23.808,43.87z"/></svg>