<svg xmlns="http://www.w3.org/2000/svg" xmlns:xlink="http://www.w3.org/1999/xlink" viewBox="0 0 48 48"><defs><linearGradient id="t~6hT02c~Uyt~R3A7pbw_a" x1="22.233" x2="23.304" y1="44.585" y2="39.567" gradientUnits="userSpaceOnUse"><stop offset=".024" stop-color="#fff"/><stop offset="1" stop-color="#fff" stop-opacity="0"/></linearGradient><linearGradient id="t~6hT02c~Uyt~R3A7pbw_b" x1="17.062" x2="21.657" y1="30.735" y2="30.735" gradientTransform="rotate(84.679 19.36 30.735)" gradientUnits="userSpaceOnUse"><stop offset="0" stop-color="#fff" stop-opacity=".6"/><stop offset="1" stop-color="#fff" stop-opacity="0"/></linearGradient><linearGradient id="t~6hT02c~Uyt~R3A7pbw_c" x1="18.016" x2="20.703" y1="30.735" y2="30.735" gradientUnits="userSpaceOnUse"><stop offset="0" stop-color="#fff"/><stop offset="1" stop-color="#fff" stop-opacity="0"/></linearGradient><radialGradient id="t~6hT02c~Uyt~R3A7pbw_d" cx="15.351" cy="14.644" r="23.41" xlink:href="#t~6hT02c~Uyt~R3A7pbw_a"/><linearGradient id="t~6hT02c~Uyt~R3A7pbw_e" x1="19.124" x2="28.332" y1="13.429" y2="18.106" gradientUnits="userSpaceOnUse"><stop offset="0" stop-color="#a3b2b9"/><stop offset=".28" stop-color="#d3dbde"/><stop offset=".397" stop-color="#e8e8e8"/><stop offset=".519" stop-color="#d3dbde"/><stop offset="1" stop-color="#92a6b0"/></linearGradient><linearGradient id="t~6hT02c~Uyt~R3A7pbw_f" x1="15.067" x2="29.999" y1="12.158" y2="12.304" gradientUnits="userSpaceOnUse"><stop offset="0" stop-color="#8ea0a8"/><stop offset=".28" stop-color="#d3dbde"/><stop offset=".407" stop-color="#e9edf0"/><stop offset=".545" stop-color="#d3dbde"/><stop offset="1" stop-color="#7d95a1"/></linearGradient><radialGradient id="t~6hT02c~Uyt~R3A7pbw_g" cx="21.197" cy="7.174" r="10.257" gradientTransform="matrix(.968 .25 -.15 .58 1.749 -2.29)" gradientUnits="userSpaceOnUse"><stop offset="0" stop-color="#d3dbde"/><stop offset="1" stop-color="#a3b2b9"/></radialGradient><linearGradient id="t~6hT02c~Uyt~R3A7pbw_h" x1="24.032" x2="24.097" y1="14.158" y2="11.706" gradientUnits="userSpaceOnUse"><stop offset="0" stop-color="#d3dbde"/><stop offset="1" stop-color="#d3dbde" stop-opacity="0"/></linearGradient><linearGradient id="t~6hT02c~Uyt~R3A7pbw_i" x1="14.592" x2="36.678" y1="8.407" y2="10.42" gradientUnits="userSpaceOnUse"><stop offset="0" stop-color="#8ea0a8"/><stop offset=".28" stop-color="#d3dbde"/><stop offset="1" stop-color="#7d95a1"/></linearGradient></defs><g data-name="Salt"><path fill="#d7e6f9" d="M34.1,35.593c.183,3.755-3.191,6.045-6.121,6.854A15.109,15.109,0,0,1,24,42.966a12.138,12.138,0,0,1-8.014-2.687,6.061,6.061,0,0,1-2.076-4.213c-.015-.183-.015-.5-.015-.58.183-2.519.629-9.094.965-13.7a26.118,26.118,0,0,1,.394-3.515c.167-.824.366-1.633.564-2.458.061-.259.122-.5.184-.763a.253.253,0,0,0,.045.2.054.054,0,0,0,.016.046v.031c.625,1.175,5.693,3.77,6.793,3.892.045,0,.106.016.167.016.123,0,.26-.016.413-.031,2.289-.32,7.693-2.87,8.487-3.892a.381.381,0,0,0,.107-.229c.015.045.03.076.046.137.03.092.061.214.107.351.152.473.335,1.13.534,1.939,0,.03.015.046.015.076a4.735,4.735,0,0,1,.122.55,17.3,17.3,0,0,1,.351,2.091.088.088,0,0,1,.016.061C33.323,22.16,34.1,35.593,34.1,35.593Z"/><path fill="#eaf3f6" d="M30.27,39.424a13.775,13.775,0,0,1-12.5,0c-1.74-1.007-2.61-2.3-2.61-3.633l.046-.5.763-8.518a2.856,2.856,0,0,0,.072.406c.171.724.633,1.271,2.172,1.685,1.145.321,1.679,1.939,2.565,2.152,2.045.535,2.243-.7,5.632-.87a16.3,16.3,0,0,1,2.3.4,1.845,1.845,0,0,0,.886-.061c2.427-1.023,2.427-2.5,2.427-3.694l.763,8.457C33.079,36.738,32.24,38.28,30.27,39.424Z"/><path fill="#f7f8f9" d="M32.026,26.785c0,1.191,0,2.671-2.427,3.694a1.845,1.845,0,0,1-.886.061,6.4,6.4,0,0,0,.977-.473A3.985,3.985,0,0,0,32.026,26.785Z"/><path fill="#fafcfc" d="M32.026,26.77v.015c0,1.191,0,2.671-2.427,3.694a1.845,1.845,0,0,1-.886.061,16.3,16.3,0,0,0-2.3-.4c-3.389.168-3.587,1.4-5.632.87-.886-.213-1.42-1.831-2.565-2.152-1.817-.488-2.137-1.16-2.244-2.091a2.787,2.787,0,0,1,2.4-2.916c3.892-1.007,9.662-2.931,12.3.076A4.259,4.259,0,0,1,32.026,26.77Z"/><path fill="#bcd0ed" d="M34.1,35.593c.183,3.755-3.191,6.045-6.121,6.854A15.109,15.109,0,0,1,24,42.966a12.138,12.138,0,0,1-8.014-2.687,6.12,6.12,0,0,1-1.877-3.022,4.224,4.224,0,0,1-.2-1.191c-.015-.183-.015-.5-.015-.58.183-2.519.931-12.487,1.1-14.944.031-.336.076-.687.122-1.039.015-.122.046-.244.061-.366.046-.259.092-.5.153-.748a.341.341,0,0,1,.015-.122c.076-.336.137-.672.229-1.008.015-.076.031-.152.046-.213.091-.412.2-.825.29-1.237.046-.2.092-.381.137-.565.016-.061.031-.137.046-.2v.092a1.115,1.115,0,0,0,.061.152v.031c.626,1.175,5.694,3.77,6.793,3.892a.158.158,0,0,1,.076.016c.123,0,.26-.016.413-.031,2.167-.244,7.525-2.748,8.518-3.816.015-.031.045-.046.061-.076a.366.366,0,0,0,.061-.092.3.3,0,0,0,.045-.137c.046.122.092.29.153.488.153.473.336,1.13.534,1.939,0,.03.016.046.016.076a5.188,5.188,0,0,1,.122.55,17.5,17.5,0,0,1,.351,2.091c.015,0,.168,2.9.336,6.182C33.842,30.678,34.1,35.593,34.1,35.593Z" opacity=".1"/><path fill="url(#t~6hT02c~Uyt~R3A7pbw_a)" d="M34.1,35.593c.183,3.755-3.191,6.045-6.121,6.854A15.109,15.109,0,0,1,24,42.966a12.138,12.138,0,0,1-8.014-2.687,6.12,6.12,0,0,1-1.877-3.022,4.224,4.224,0,0,1-.2-1.191C14,38.757,34.251,39.487,34.1,35.593Z"/><rect width="22.207" height="2.554" x="8.256" y="29.458" fill="url(#t~6hT02c~Uyt~R3A7pbw_b)" transform="rotate(-84.679 19.36 30.735)"/><polygon fill="url(#t~6hT02c~Uyt~R3A7pbw_c)" points="18.651 41.821 18.016 41.761 20.067 19.649 20.703 19.709 18.651 41.821" opacity=".7"/><path fill="url(#t~6hT02c~Uyt~R3A7pbw_d)" d="M33.629,26.4A16.344,16.344,0,0,1,14.105,37.257a4.224,4.224,0,0,1-.2-1.191c-.015-.183-.015-.5-.015-.58.183-2.519.931-12.487,1.1-14.944.031-.336.076-.687.122-1.039.015-.122.046-.244.061-.366.046-.259.092-.5.153-.748a.341.341,0,0,1,.015-.122c.076-.336.137-.672.229-1.008.015-.076.031-.152.046-.213.091-.412.2-.825.29-1.237.046-.2.092-.381.137-.565.016-.061.031-.137.046-.2v.092a1.115,1.115,0,0,0,.061.152v.031c.626,1.175,5.694,3.77,6.793,3.892a.158.158,0,0,1,.076.016c.123,0,.26-.016.413-.031,2.167-.244,7.525-2.748,8.518-3.816.015-.031.045-.046.061-.076a.366.366,0,0,0,.061-.092.3.3,0,0,0,.045-.137c.046.122.092.29.153.488.153.473.336,1.13.534,1.939,0,.03.016.046.016.076a5.188,5.188,0,0,1,.122.55,17.5,17.5,0,0,1,.351,2.091C33.308,20.221,33.461,23.121,33.629,26.4Z"/><path fill="none" stroke="#c7d5e5" stroke-miterlimit="10" stroke-width=".5" d="M34.1,35.593c.183,3.755-3.191,6.045-6.121,6.854A15.109,15.109,0,0,1,24,42.966a12.138,12.138,0,0,1-8.014-2.687,6.061,6.061,0,0,1-2.076-4.213c-.015-.183-.015-.5-.015-.58.183-2.519.931-12.487,1.1-14.944.031-.336.076-.687.122-1.039.015-.122.046-.244.061-.366.046-.244.092-.488.153-.733v-.015c.076-.382.152-.763.244-1.13.015-.076.031-.152.046-.213.076-.3.768-2,.8-2.127,1.877,1.511,5.139,3.47,6.3,3.592a1.264,1.264,0,0,0,.26.016c1.816,0,8.209-2.449,8.557-3.564,0,0,1.014,2.006,1.182,2.541,0,.03.122.381.152.549v.016a8.723,8.723,0,0,1,.336,2v.153a.088.088,0,0,1,.016.061C33.323,22.16,34.1,35.593,34.1,35.593Z"/><path fill="url(#t~6hT02c~Uyt~R3A7pbw_e)" d="M32.2,15.9a3.171,3.171,0,0,1-.5,1.638,6.22,6.22,0,0,1-3.524,2.471,13.877,13.877,0,0,1-7.325.187,8.882,8.882,0,0,1-2.9-1.143,4.583,4.583,0,0,1-1.915-2.4c-.3-.958-.168-2.6.771-3.218.122.3-.228,1.063-.2,1.486a3.352,3.352,0,0,0,.6,1.683,5.854,5.854,0,0,0,2.821,1.969,11.666,11.666,0,0,0,8.193-.03,5.778,5.778,0,0,0,2.7-1.882,3.269,3.269,0,0,0,.61-1.7c.033-.573-.326-1.081-.3-1.648A4.653,4.653,0,0,1,32.2,15.9Z"/><path fill="#c9d3d5" d="M30.476,8.517a3.017,3.017,0,0,0-.829-1.5,5.422,5.422,0,0,0-2.016-1.194,10.393,10.393,0,0,0-7-.062,5.769,5.769,0,0,0-2.16,1.3,2.737,2.737,0,0,0-.812,1.555,2.752,2.752,0,0,0,.817,2.182,5.393,5.393,0,0,0,2.044,1.234,10.243,10.243,0,0,0,7.459-.125,5.292,5.292,0,0,0,1.668-1.039,2.767,2.767,0,0,0,.868-1.727A2.321,2.321,0,0,0,30.476,8.517Z"/><path fill="url(#t~6hT02c~Uyt~R3A7pbw_f)" d="M31.261,13.188c-.079-.333-.184-.658-.266-.99a2.319,2.319,0,0,1-.15-.929c.06-.4.25-.767.283-1.185a3.833,3.833,0,0,0-.781-2.57,5.917,5.917,0,0,0-3.255-2.009,12.329,12.329,0,0,0-4.775-.29,9.134,9.134,0,0,0-3.026,1,7.7,7.7,0,0,0-1.617,1.412,3.84,3.84,0,0,0-.526,3.035c.408,1.843-1.126,3.54-.387,5.368a5.366,5.366,0,0,0,2.961,2.518,11.8,11.8,0,0,0,8,.268,7.091,7.091,0,0,0,2.53-1.417,3.411,3.411,0,0,0,1.31-2.049c.014-.133.049-.293.049-.427A8.388,8.388,0,0,0,31.261,13.188Z"/><path fill="url(#t~6hT02c~Uyt~R3A7pbw_g)" d="M31.044,8.865a3.311,3.311,0,0,0-.859-1.638,5.814,5.814,0,0,0-1.969-1.3,10.884,10.884,0,0,0-6.83-.532A6.628,6.628,0,0,0,17.857,7.36a3.073,3.073,0,0,0-.782,2.093,3.316,3.316,0,0,0,1.4,2.377,9.766,9.766,0,0,0,6.444,1.6,8.9,8.9,0,0,0,4.725-1.531,3.36,3.36,0,0,0,1.44-2.531A2.59,2.59,0,0,0,31.044,8.865Z"/><path fill="url(#t~6hT02c~Uyt~R3A7pbw_h)" d="M25.508,11.917a25.157,25.157,0,0,1-7.679-.7,4.114,4.114,0,0,0,.641.61,9.827,9.827,0,0,0,6.458,1.6A8.925,8.925,0,0,0,29.645,11.9a4.283,4.283,0,0,0,.748-.732A24.315,24.315,0,0,1,25.508,11.917Z"/><path fill="url(#t~6hT02c~Uyt~R3A7pbw_i)" d="M31.044,8.865a3.311,3.311,0,0,0-.859-1.638,5.814,5.814,0,0,0-1.969-1.3,10.884,10.884,0,0,0-6.83-.532A6.628,6.628,0,0,0,17.857,7.36a3.073,3.073,0,0,0-.782,2.093,3.316,3.316,0,0,0,1.4,2.377,9.766,9.766,0,0,0,6.444,1.6,8.9,8.9,0,0,0,4.725-1.531,3.36,3.36,0,0,0,1.44-2.531A2.59,2.59,0,0,0,31.044,8.865Zm-.656.832c-.025.087-.054.171-.085.25a2.812,2.812,0,0,1-.837,1.13,3.394,3.394,0,0,1-.6.373c-.219.112-.41.258-.639.36a10.224,10.224,0,0,1-7.055.454,7.685,7.685,0,0,1-.883-.307,4.6,4.6,0,0,1-2.5-2.223c-.016-.031-.016-.061-.031-.092a2.056,2.056,0,0,1-.076-1.175c.351-1.524,1.905-2.367,3.279-2.81a10.309,10.309,0,0,1,6.723.173,6.936,6.936,0,0,1,1.034.5,1.175,1.175,0,0,0,.107.061,4.408,4.408,0,0,1,1.437,1.4A2.575,2.575,0,0,1,30.388,9.7Z"/><path fill="#79797a" d="M26.871,6.807A1.175,1.175,0,0,0,25.793,6.8a.333.333,0,0,0,0,.63,1.193,1.193,0,0,0,1.079-.006c.3-.174.289-.45,0-.619"/><path fill="#79797a" d="M23.633,6.3a1.2,1.2,0,0,0-.738-.121c-.408.067-.65.309-.532.546a.442.442,0,0,0,.192.2,1.226,1.226,0,0,0,.743.118c.407-.068.649-.31.531-.546a.464.464,0,0,0-.2-.194"/><path fill="#79797a" d="M21.266,7.674a1,1,0,0,0-.336-.113.918.918,0,0,0-.94.31c-.065.159.02.322.206.43a.925.925,0,0,0,.341.11.915.915,0,0,0,.94-.309c.065-.159-.024-.32-.211-.428"/><path fill="#79797a" d="M22.146,9.553a1.175,1.175,0,0,0-1.078-.005.333.333,0,0,0,0,.63,1.193,1.193,0,0,0,1.079-.006c.3-.174.288-.45,0-.619"/><path fill="#79797a" d="M25.387,10.053a1.162,1.162,0,0,0-.732-.117c-.408.068-.65.31-.541.54a.453.453,0,0,0,.2.2,1.177,1.177,0,0,0,.737.114c.417-.061.649-.309.541-.54a.5.5,0,0,0-.2-.2"/><path fill="#79797a" d="M27.748,8.679a1.019,1.019,0,0,0-.342-.116.92.92,0,0,0-.931.315c-.071.155.012.318.2.426a.964.964,0,0,0,.347.114.9.9,0,0,0,.931-.315c.071-.155-.016-.315-.2-.424"/><path fill="#79797a" d="M24.509,8.18a1.177,1.177,0,0,0-1.079,0,.333.333,0,0,0,0,.63A1.191,1.191,0,0,0,24.512,8.8c.3-.174.289-.45,0-.619"/><path fill="#646468" d="M26.893,7.432a1.175,1.175,0,0,1-.962.045,1.09,1.09,0,0,0,.672-.106c.3-.184.29-.458,0-.626a.467.467,0,0,0-.138-.046.923.923,0,0,1,.413.107A.334.334,0,0,1,26.893,7.432Z"/><path fill="#646468" d="M23.305,7.05a1.185,1.185,0,0,1-.58-.061,1.045,1.045,0,0,0,.306,0c.412-.076.641-.3.534-.55a.622.622,0,0,0-.2-.2A.317.317,0,0,0,23.2,6.18a.834.834,0,0,1,.442.122.5.5,0,0,1,.2.2C23.962,6.745,23.718,6.974,23.305,7.05Z"/><path fill="#646468" d="M21.489,8.1a.9.9,0,0,1-.946.306,1.237,1.237,0,0,1-.245-.061.859.859,0,0,0,.916-.306c.061-.153-.03-.32-.214-.427a.856.856,0,0,0-.122-.046h.061a.949.949,0,0,1,.336.107C21.458,7.783,21.55,7.951,21.489,8.1Z"/><path fill="#646468" d="M22.161,10.179a1.137,1.137,0,0,1-.947.046,1.1,1.1,0,0,0,.672-.107c.29-.183.29-.458-.015-.626a.49.49,0,0,0-.153-.061.838.838,0,0,1,.443.122C22.451,9.721,22.466,10,22.161,10.179Z"/><path fill="#646468" d="M25.061,10.79a1.161,1.161,0,0,1-.611-.061,1.259,1.259,0,0,0,.336,0c.412-.061.641-.3.534-.534a.486.486,0,0,0-.2-.2.467.467,0,0,0-.153-.061.938.938,0,0,1,.428.122.414.414,0,0,1,.2.2C25.7,10.485,25.473,10.729,25.061,10.79Z"/><path fill="#646468" d="M27.961,9.111c-.106.244-.534.366-.931.3a.768.768,0,0,1-.183-.046c.366.031.748-.091.84-.32.061-.153-.016-.321-.214-.428a.566.566,0,0,0-.137-.061c.03-.015.045,0,.076,0a1.071,1.071,0,0,1,.351.122C27.946,8.79,28.038,8.958,27.961,9.111Z"/><path fill="#646468" d="M24.527,8.805a1.171,1.171,0,0,1-.962.046,1.085,1.085,0,0,0,.672-.107c.305-.183.29-.458,0-.626a.49.49,0,0,0-.153-.061.83.83,0,0,1,.443.123C24.817,8.348,24.817,8.622,24.527,8.805Z"/></g></svg>