<svg xmlns="http://www.w3.org/2000/svg" xmlns:xlink="http://www.w3.org/1999/xlink" viewBox="0 0 48 48"><defs><linearGradient id="lUQQ_8lARyhu46qncSrXSj" x1="26.136" x2="32.966" y1="36.737" y2="27.322" gradientUnits="userSpaceOnUse"><stop offset=".16" stop-color="#76808b"/><stop offset=".294" stop-color="#808993"/><stop offset=".519" stop-color="#9aa2aa"/><stop offset=".805" stop-color="#c4c9cf"/><stop offset="1" stop-color="#e5e8eb"/></linearGradient><linearGradient id="lUQQ_8lARyhu46qncSrXSc" x1="24.852" x2="30.643" y1="5.781" y2="5.853" gradientTransform="rotate(-45 62.024 19.364)" gradientUnits="userSpaceOnUse"><stop offset="0" stop-color="#c9ced4"/><stop offset=".016" stop-color="#d1d6db"/><stop offset=".044" stop-color="#d8dce0"/><stop offset=".123" stop-color="#dadee2"/><stop offset=".195" stop-color="#dfe2e6"/><stop offset=".279" stop-color="#edeff2"/><stop offset=".282" stop-color="#eef0f3"/><stop offset=".392" stop-color="#ebedf0"/><stop offset=".473" stop-color="#e2e5e8"/><stop offset=".511" stop-color="#dadee2"/><stop offset=".615" stop-color="#d2d6db"/><stop offset=".759" stop-color="#bec3cb"/><stop offset="1" stop-color="#7f8894"/></linearGradient><linearGradient id="lUQQ_8lARyhu46qncSrXSk" x1="25.868" x2="28.874" y1="-7.871" y2="-7.819" gradientTransform="rotate(-45 62.024 19.364)" gradientUnits="userSpaceOnUse"><stop offset="0" stop-color="#d9dde1"/><stop offset="1" stop-color="#a9b0b9"/></linearGradient><linearGradient id="lUQQ_8lARyhu46qncSrXSd" x1="25.154" x2="29.533" y1="4.198" y2="4.198" gradientTransform="rotate(-45 62.024 19.364)" gradientUnits="userSpaceOnUse"><stop offset="0" stop-color="#dadee2"/><stop offset=".135" stop-color="#e8ebef"/><stop offset=".271" stop-color="#f2f4f7"/><stop offset=".511" stop-color="#dadee2"/><stop offset=".615" stop-color="#d2d6db"/><stop offset=".759" stop-color="#bec3cb"/><stop offset="1" stop-color="#7f8894"/></linearGradient><radialGradient id="lUQQ_8lARyhu46qncSrXSf" cx="25.667" cy="18.967" r="12.509" gradientTransform="rotate(-45 76.747 13.266) scale(1 .357)" gradientUnits="userSpaceOnUse"><stop offset="0" stop-color="#b6bbc3" stop-opacity="0"/><stop offset=".268" stop-color="#b6bbc3" stop-opacity=".01"/><stop offset=".365" stop-color="#b6bbc3" stop-opacity=".044"/><stop offset=".434" stop-color="#b6bbc3" stop-opacity=".105"/><stop offset=".49" stop-color="#b6bbc3" stop-opacity=".192"/><stop offset=".538" stop-color="#b6bbc3" stop-opacity=".305"/><stop offset=".58" stop-color="#b6bbc3" stop-opacity=".444"/><stop offset=".618" stop-color="#b6bbc3" stop-opacity=".61"/><stop offset=".652" stop-color="#b6bbc3" stop-opacity=".797"/><stop offset=".683" stop-color="#b6bbc3"/><stop offset="1" stop-color="#616a78"/></radialGradient><linearGradient id="lUQQ_8lARyhu46qncSrXSl" x1="17.636" x2="25.611" y1="43.792" y2="43.792" gradientTransform="rotate(-45 13.625 31.83)" gradientUnits="userSpaceOnUse"><stop offset=".074" stop-color="#7f8894"/><stop offset=".083" stop-color="#7f8894" stop-opacity=".959"/><stop offset=".156" stop-color="#7f8894" stop-opacity=".668"/><stop offset=".23" stop-color="#7f8894" stop-opacity=".427"/><stop offset=".305" stop-color="#7f8894" stop-opacity=".24"/><stop offset=".38" stop-color="#7f8894" stop-opacity=".106"/><stop offset=".455" stop-color="#7f8894" stop-opacity=".026"/><stop offset=".531" stop-color="#7f8894" stop-opacity="0"/><stop offset=".636" stop-color="#7f8894" stop-opacity=".02"/><stop offset=".713" stop-color="#7f8894" stop-opacity=".083"/><stop offset=".78" stop-color="#7f8894" stop-opacity=".191"/><stop offset=".843" stop-color="#7f8894" stop-opacity=".342"/><stop offset=".901" stop-color="#7f8894" stop-opacity=".538"/><stop offset=".957" stop-color="#7f8894" stop-opacity=".775"/><stop offset="1" stop-color="#7f8894"/></linearGradient><linearGradient id="lUQQ_8lARyhu46qncSrXSm" x1="27.364" x2="27.331" y1="-10.637" y2="-7.714" gradientTransform="rotate(-45 62.024 19.364)" gradientUnits="userSpaceOnUse"><stop offset=".509" stop-color="#a6adba"/><stop offset=".526" stop-color="#a6adba" stop-opacity=".942"/><stop offset=".615" stop-color="#a6adba" stop-opacity=".658"/><stop offset=".703" stop-color="#a6adba" stop-opacity=".422"/><stop offset=".787" stop-color="#a6adba" stop-opacity=".238"/><stop offset=".867" stop-color="#a6adba" stop-opacity=".107"/><stop offset=".94" stop-color="#a6adba" stop-opacity=".027"/><stop offset="1" stop-color="#a6adba" stop-opacity="0"/></linearGradient><linearGradient id="lUQQ_8lARyhu46qncSrXSn" x1="21.971" x2="22.181" y1="54.535" y2="69.337" gradientTransform="rotate(-45 13.625 31.83)" gradientUnits="userSpaceOnUse"><stop offset="0" stop-color="#7f8894" stop-opacity="0"/><stop offset=".014" stop-color="#7f8894" stop-opacity=".022"/><stop offset=".257" stop-color="#7f8894" stop-opacity=".369"/><stop offset=".485" stop-color="#7f8894" stop-opacity=".642"/><stop offset=".691" stop-color="#7f8894" stop-opacity=".838"/><stop offset=".87" stop-color="#7f8894" stop-opacity=".958"/><stop offset="1" stop-color="#7f8894"/></linearGradient><linearGradient id="lUQQ_8lARyhu46qncSrXSe" x1="21.974" x2="21.921" y1="32.779" y2="20.347" gradientTransform="rotate(-45 13.625 31.83)" gradientUnits="userSpaceOnUse"><stop offset="0" stop-color="#7f8894" stop-opacity="0"/><stop offset=".843" stop-color="#7f8894"/></linearGradient><linearGradient id="lUQQ_8lARyhu46qncSrXSo" x1="14.413" x2="6.466" y1="9.888" y2="18.76" gradientUnits="userSpaceOnUse"><stop offset=".006" stop-color="#e5e8eb"/><stop offset=".237" stop-color="#c4c9cf"/><stop offset=".576" stop-color="#9aa2aa"/><stop offset=".842" stop-color="#808993"/><stop offset="1" stop-color="#76808b"/></linearGradient><linearGradient id="lUQQ_8lARyhu46qncSrXSp" x1="10.124" x2="7.145" y1="10.749" y2="26.876" gradientUnits="userSpaceOnUse"><stop offset=".595" stop-color="#76808b" stop-opacity="0"/><stop offset=".644" stop-color="#76808b" stop-opacity=".167"/><stop offset=".761" stop-color="#76808b" stop-opacity=".524"/><stop offset=".864" stop-color="#76808b" stop-opacity=".783"/><stop offset=".947" stop-color="#76808b" stop-opacity=".942"/><stop offset="1" stop-color="#76808b"/></linearGradient><linearGradient id="lUQQ_8lARyhu46qncSrXSa" x1="27.322" x2="27.322" y1="-11.123" y2="-30.681" gradientTransform="rotate(-45 62.024 19.364)" gradientUnits="userSpaceOnUse"><stop offset="0" stop-color="#f2f3f4"/><stop offset="1" stop-color="#d2d5df"/></linearGradient><linearGradient id="lUQQ_8lARyhu46qncSrXSq" x1="6.614" x2="10.38" y1="7.918" y2="18.29" xlink:href="#lUQQ_8lARyhu46qncSrXSa"/><linearGradient id="lUQQ_8lARyhu46qncSrXSb" x1="24.017" x2="24.481" y1="-23.276" y2="-23.224" gradientTransform="rotate(-45 62.024 19.364)" gradientUnits="userSpaceOnUse"><stop offset="0" stop-color="#f2f3f4"/><stop offset="1" stop-color="#dfe1e5" stop-opacity="0"/></linearGradient><linearGradient id="lUQQ_8lARyhu46qncSrXSr" x1="25.534" x2="27.262" y1="-23.286" y2="-23.227" gradientTransform="rotate(-45 62.024 19.364)" gradientUnits="userSpaceOnUse"><stop offset="0" stop-color="#dfe1e5" stop-opacity="0"/><stop offset=".005" stop-color="#dfe1e5" stop-opacity=".017"/><stop offset=".091" stop-color="#e4e6e9" stop-opacity=".274"/><stop offset=".175" stop-color="#e8eaec" stop-opacity=".495"/><stop offset=".256" stop-color="#ecedef" stop-opacity=".676"/><stop offset=".334" stop-color="#eff0f1" stop-opacity=".817"/><stop offset=".408" stop-color="#f0f2f3" stop-opacity=".918"/><stop offset=".475" stop-color="#f2f3f4" stop-opacity=".979"/><stop offset=".531" stop-color="#f2f3f4"/><stop offset=".622" stop-color="#f2f3f4" stop-opacity=".989"/><stop offset=".682" stop-color="#f1f2f3" stop-opacity=".953"/><stop offset=".732" stop-color="#f0f1f2" stop-opacity=".892"/><stop offset=".777" stop-color="#eff0f1" stop-opacity=".806"/><stop offset=".819" stop-color="#edeef0" stop-opacity=".694"/><stop offset=".858" stop-color="#eaebee" stop-opacity=".557"/><stop offset=".895" stop-color="#e7e9ec" stop-opacity=".394"/><stop offset=".93" stop-color="#e4e6e9" stop-opacity=".21"/><stop offset=".964" stop-color="#e0e2e6" stop-opacity="0"/><stop offset="1" stop-color="#dfe1e5" stop-opacity="0"/></linearGradient><linearGradient id="lUQQ_8lARyhu46qncSrXSs" x1="27.934" x2="28.351" y1="-23.269" y2="-23.24" xlink:href="#lUQQ_8lARyhu46qncSrXSb"/><linearGradient id="lUQQ_8lARyhu46qncSrXSt" x1="29.789" x2="31.855" y1="-23.264" y2="-23.264" xlink:href="#lUQQ_8lARyhu46qncSrXSb"/><linearGradient id="lUQQ_8lARyhu46qncSrXSu" x1="27.338" x2="27.338" y1="-10.421" y2="-35.41" gradientTransform="rotate(-45 62.024 19.364)" gradientUnits="userSpaceOnUse"><stop offset="0" stop-color="#b7bdc8"/><stop offset=".193" stop-color="#cbd0d6"/><stop offset=".201" stop-color="#cfd4d9"/><stop offset=".261" stop-color="#e6e9eb"/><stop offset=".299" stop-color="#eef1f1"/><stop offset=".311" stop-color="#eff2f2" stop-opacity=".775"/><stop offset=".327" stop-color="#f0f3f2" stop-opacity=".502"/><stop offset=".342" stop-color="#f1f4f3" stop-opacity=".286"/><stop offset=".355" stop-color="#f1f4f4" stop-opacity=".13"/><stop offset=".365" stop-color="#f2f5f4" stop-opacity=".035"/><stop offset=".371" stop-color="#f2f5f4" stop-opacity="0"/><stop offset="1" stop-color="#dadee2" stop-opacity="0"/></linearGradient><linearGradient id="lUQQ_8lARyhu46qncSrXSv" x1="22.916" x2="31.645" y1="-15.527" y2="-15.527" gradientTransform="rotate(-45 62.024 19.364)" gradientUnits="userSpaceOnUse"><stop offset="0" stop-color="#dadee2" stop-opacity="0"/><stop offset=".372" stop-color="#e5e9e9" stop-opacity="0"/><stop offset=".412" stop-color="#e5e9e9" stop-opacity=".036"/><stop offset=".475" stop-color="#e5e9e9" stop-opacity=".134"/><stop offset=".554" stop-color="#e4e8ea" stop-opacity=".294"/><stop offset=".64" stop-color="#e4e8ea" stop-opacity=".5"/><stop offset=".67" stop-color="#e4e8ea" stop-opacity=".464"/><stop offset=".717" stop-color="#e4e8e9" stop-opacity=".366"/><stop offset=".777" stop-color="#e4e8e9" stop-opacity=".206"/><stop offset=".841" stop-color="#e4e8e8" stop-opacity="0"/><stop offset="1" stop-color="#aab1bd" stop-opacity="0"/></linearGradient><radialGradient id="lUQQ_8lARyhu46qncSrXSw" cx="2.787" cy="20.553" r="12.192" gradientUnits="userSpaceOnUse"><stop offset="0" stop-color="#c3c5cf"/><stop offset=".264" stop-color="#c3c5cf" stop-opacity=".666"/><stop offset=".518" stop-color="#c3c5cf" stop-opacity=".38"/><stop offset=".733" stop-color="#c3c5cf" stop-opacity=".174"/><stop offset=".901" stop-color="#c3c5cf" stop-opacity=".047"/><stop offset="1" stop-color="#c3c5cf" stop-opacity="0"/></radialGradient><radialGradient id="lUQQ_8lARyhu46qncSrXSx" cx="16.397" cy="23.808" r="27.092" gradientTransform="rotate(138.49 14.168 17.925) scale(1 .506)" gradientUnits="userSpaceOnUse"><stop offset="0" stop-color="#858d99"/><stop offset=".169" stop-color="#858d99" stop-opacity=".364"/><stop offset=".274" stop-color="#858d99" stop-opacity="0"/></radialGradient><radialGradient id="lUQQ_8lARyhu46qncSrXSi" cx="6.503" cy="17.255" r="21.971" gradientUnits="userSpaceOnUse"><stop offset="0" stop-color="#fff"/><stop offset=".041" stop-color="#fff" stop-opacity=".948"/><stop offset=".316" stop-color="#fff" stop-opacity=".616"/><stop offset=".559" stop-color="#fff" stop-opacity=".352"/><stop offset=".76" stop-color="#fff" stop-opacity=".161"/><stop offset=".914" stop-color="#fff" stop-opacity=".044"/><stop offset="1" stop-color="#fff" stop-opacity="0"/></radialGradient><linearGradient id="lUQQ_8lARyhu46qncSrXSg" x1="38.315" x2="34.262" y1="21.34" y2="27.468" gradientUnits="userSpaceOnUse"><stop offset="0" stop-color="#e5e8eb"/><stop offset=".233" stop-color="#c4c9cf"/><stop offset=".574" stop-color="#9aa2aa"/><stop offset=".841" stop-color="#808993"/><stop offset="1" stop-color="#76808b"/></linearGradient><linearGradient id="lUQQ_8lARyhu46qncSrXSy" x1="34.973" x2="40.687" y1="5.317" y2="5.203" xlink:href="#lUQQ_8lARyhu46qncSrXSc"/><linearGradient id="lUQQ_8lARyhu46qncSrXSz" x1="35.599" x2="39.798" y1="3.672" y2="3.672" xlink:href="#lUQQ_8lARyhu46qncSrXSd"/><linearGradient id="lUQQ_8lARyhu46qncSrXSA" x1="37.72" x2="37.72" y1="-4.346" y2="-.975" gradientTransform="rotate(-45 62.024 19.364)" gradientUnits="userSpaceOnUse"><stop offset="0" stop-color="#ced3d9"/><stop offset=".037" stop-color="#c6cbd3"/><stop offset=".142" stop-color="#b4bac5"/><stop offset=".254" stop-color="#a9b0bd"/><stop offset=".383" stop-color="#a6adba"/><stop offset=".428" stop-color="#a6adba" stop-opacity=".87"/><stop offset=".531" stop-color="#a6adba" stop-opacity=".607"/><stop offset=".633" stop-color="#a6adba" stop-opacity=".389"/><stop offset=".732" stop-color="#a6adba" stop-opacity=".219"/><stop offset=".828" stop-color="#a6adba" stop-opacity=".098"/><stop offset=".919" stop-color="#a6adba" stop-opacity=".025"/><stop offset="1" stop-color="#a6adba" stop-opacity="0"/></linearGradient><linearGradient id="lUQQ_8lARyhu46qncSrXSB" x1="40.843" x2="40.809" y1="18.429" y2="10.399" gradientTransform="rotate(-45 39.65 33.08)" xlink:href="#lUQQ_8lARyhu46qncSrXSe"/><radialGradient id="lUQQ_8lARyhu46qncSrXSC" cx="36.084" cy="17.862" r="11.994" gradientTransform="rotate(-45 75.89 13.621) scale(1 .357)" xlink:href="#lUQQ_8lARyhu46qncSrXSf"/><linearGradient id="lUQQ_8lARyhu46qncSrXSD" x1="40.848" x2="41.055" y1="35.282" y2="49.844" gradientTransform="rotate(-45 39.65 33.08)" gradientUnits="userSpaceOnUse"><stop offset="0" stop-color="#7f8894" stop-opacity="0"/><stop offset="1" stop-color="#7f8894"/></linearGradient><linearGradient id="lUQQ_8lARyhu46qncSrXSE" x1="36.583" x2="44.172" y1="24.714" y2="24.714" gradientTransform="rotate(-45 39.65 33.08)" gradientUnits="userSpaceOnUse"><stop offset=".074" stop-color="#7f8894"/><stop offset=".091" stop-color="#7f8894" stop-opacity=".864"/><stop offset=".124" stop-color="#7f8894" stop-opacity=".634"/><stop offset=".161" stop-color="#7f8894" stop-opacity=".436"/><stop offset=".202" stop-color="#7f8894" stop-opacity=".275"/><stop offset=".249" stop-color="#7f8894" stop-opacity=".152"/><stop offset=".304" stop-color="#7f8894" stop-opacity=".065"/><stop offset=".376" stop-color="#7f8894" stop-opacity=".015"/><stop offset=".531" stop-color="#7f8894" stop-opacity="0"/><stop offset=".623" stop-color="#7f8894" stop-opacity=".022"/><stop offset=".7" stop-color="#7f8894" stop-opacity=".092"/><stop offset=".771" stop-color="#7f8894" stop-opacity=".209"/><stop offset=".839" stop-color="#7f8894" stop-opacity=".374"/><stop offset=".904" stop-color="#7f8894" stop-opacity=".587"/><stop offset=".967" stop-color="#7f8894" stop-opacity=".844"/><stop offset="1" stop-color="#7f8894"/></linearGradient><linearGradient id="lUQQ_8lARyhu46qncSrXSF" x1="24.773" x2="15.198" y1="3.35" y2="14.754" xlink:href="#lUQQ_8lARyhu46qncSrXSg"/><linearGradient id="lUQQ_8lARyhu46qncSrXSG" x1="33.084" x2="41.024" y1="-17.562" y2="-17.562" gradientTransform="rotate(-45 62.024 19.364)" gradientUnits="userSpaceOnUse"><stop offset=".03" stop-color="#7f8894"/><stop offset=".064" stop-color="#eef0f3"/><stop offset=".163" stop-color="#ebedf0"/><stop offset=".237" stop-color="#e2e5e8"/><stop offset=".272" stop-color="#dadee2"/><stop offset=".442" stop-color="#d2d6db"/><stop offset=".678" stop-color="#bec3cb"/><stop offset=".902" stop-color="#7f8894"/></linearGradient><radialGradient id="lUQQ_8lARyhu46qncSrXSh" cx="31.251" cy="-21.314" r="22.847" gradientTransform="rotate(44.661 -3.959 -22.09) scale(1 .397)" gradientUnits="userSpaceOnUse"><stop offset="0" stop-color="#e8e7e3"/><stop offset="1" stop-color="#f5f3f1" stop-opacity="0"/></radialGradient><radialGradient id="lUQQ_8lARyhu46qncSrXSH" cx="20.695" cy="30.574" r="40.923" gradientUnits="userSpaceOnUse"><stop offset="0" stop-color="#8e96a1"/><stop offset=".056" stop-color="#8e96a1" stop-opacity=".952"/><stop offset=".141" stop-color="#8e96a1" stop-opacity=".819"/><stop offset=".245" stop-color="#8e96a1" stop-opacity=".602"/><stop offset=".363" stop-color="#8f97a2" stop-opacity=".304"/><stop offset=".468" stop-color="#8f97a2" stop-opacity="0"/></radialGradient><radialGradient id="lUQQ_8lARyhu46qncSrXSI" cx="4.068" cy="8.019" r="34.781" gradientTransform="rotate(89.661 1.634 5.6) scale(1 .397)" xlink:href="#lUQQ_8lARyhu46qncSrXSh"/><linearGradient id="lUQQ_8lARyhu46qncSrXSJ" x1="36.676" x2="34.594" y1="-35.522" y2="-2.101" gradientTransform="rotate(-45 62.024 19.364)" gradientUnits="userSpaceOnUse"><stop offset="0" stop-color="#bec8ce"/><stop offset=".11" stop-color="#cad3d8"/><stop offset=".385" stop-color="#e6edef"/><stop offset=".545" stop-color="#fff"/><stop offset=".567" stop-color="#f1f5f6"/><stop offset=".592" stop-color="#e6edef"/><stop offset="1" stop-color="#bec8ce"/></linearGradient><linearGradient id="lUQQ_8lARyhu46qncSrXSK" x1="35.736" x2="36.006" y1="-30.629" y2="-5.79" gradientTransform="rotate(-45 62.024 19.364)" gradientUnits="userSpaceOnUse"><stop offset="0" stop-color="#f9faf9"/><stop offset=".45" stop-color="#fff"/><stop offset=".464" stop-color="#fff"/><stop offset="1" stop-color="#f9faf9" stop-opacity="0"/></linearGradient><linearGradient id="lUQQ_8lARyhu46qncSrXSL" x1="35.379" x2="36.291" y1="-5.088" y2="-10.714" gradientTransform="rotate(-45 62.024 19.364)" gradientUnits="userSpaceOnUse"><stop offset="0" stop-color="#e7ebf0"/><stop offset=".088" stop-color="#e7ebf0" stop-opacity=".965"/><stop offset=".229" stop-color="#e7ebf0" stop-opacity=".869"/><stop offset=".404" stop-color="#e7ebf0" stop-opacity=".713"/><stop offset=".607" stop-color="#e7ebf0" stop-opacity=".496"/><stop offset=".83" stop-color="#e7ebf0" stop-opacity=".222"/><stop offset=".994" stop-color="#e7ebf0" stop-opacity="0"/></linearGradient><radialGradient id="lUQQ_8lARyhu46qncSrXSM" cx="33.44" cy="-19.538" r="24.966" gradientTransform="rotate(51.593 3.244 -17.698) scale(1 .403)" xlink:href="#lUQQ_8lARyhu46qncSrXSi"/><radialGradient id="lUQQ_8lARyhu46qncSrXSN" cx="4.349" cy="18.495" r="28.361" gradientUnits="userSpaceOnUse"><stop offset="0" stop-color="#8d95a0"/><stop offset=".073" stop-color="#8d95a0" stop-opacity=".947"/><stop offset=".188" stop-color="#8d95a0" stop-opacity=".804"/><stop offset=".331" stop-color="#8d95a0" stop-opacity=".57"/><stop offset=".496" stop-color="#8d95a0" stop-opacity=".248"/><stop offset=".609" stop-color="#8d95a0" stop-opacity="0"/></radialGradient></defs><g data-name="Fork and knife"><path fill="url(#lUQQ_8lARyhu46qncSrXSj)" d="M37.112,38.845c-.861-.742-1.913-1.651-3.1-2.571-4.831-3.827-8.717-7.139-12.244-10.427l-4.6-4.317a1,1,0,0,0-1.375-.035l-.694.693a.977.977,0,0,0,.048,1.363l5.5,5.931c3.049,3.264,6.17,6.911,9.542,11.168,1.674,2.105,3.372,4.066,4.053,4.747.191.192.359.359.538.514,0,.024,0,.024.024.024,1.865,1.65,3.288,1.925,4.317,1.615.036-.012.083-.036.119-.048a2.013,2.013,0,0,0,.335-.144,3.129,3.129,0,0,0,.849-.61,2.949,2.949,0,0,0,.706-1.064,2.157,2.157,0,0,0,.119-.359c.275-1.159-.275-2.523-1.626-4.065-.215-.239-.431-.478-.682-.729C38.607,40.2,37.961,39.6,37.112,38.845Zm3.324,4.472a2.446,2.446,0,0,1-.383,3.061,2.522,2.522,0,0,1-3.168.394A8.818,8.818,0,0,1,34.6,45.039c-.67-.67-2.356-2.619-4.018-4.712-3.384-4.245-6.5-7.915-9.566-11.192l-5.5-5.931a.458.458,0,0,1-.048-.645l.694-.694a.483.483,0,0,1,.657.036l4.6,4.317c3.527,3.288,7.425,6.612,12.268,10.45,2.212,1.734,4.185,3.516,4.891,4.221a9.181,9.181,0,0,1,1.841,2.416Z"/><path fill="url(#lUQQ_8lARyhu46qncSrXSc)" d="M38.767,40.712a6.443,6.443,0,0,1,.466.5c.1.1.2.2.291.308a4.753,4.753,0,0,1,.361.467,6.826,6.826,0,0,1,.889,1.452c.026.044.035.088.053.123.026.079.052.141.07.211a2.576,2.576,0,0,1-.669,2.782,2.654,2.654,0,0,1-2.9.678l-.158-.053c-.053-.018-.1-.044-.15-.062l-.009-.008a6.869,6.869,0,0,1-1.47-.889c-.158-.124-.308-.238-.457-.37-.1-.1-.2-.185-.3-.282-.132-.114-.255-.238-.378-.361-.2-.2-.537-.572-.951-1.021-.783-.906-1.919-2.236-3.063-3.7-3.072-3.846-6.223-7.6-9.568-11.187l-5.51-5.933a.708.708,0,0,1-.027-1l.7-.7a.724.724,0,0,1,.994.026l4.63,4.331c3.917,3.653,8.037,7.086,12.253,10.439,1.514,1.18,2.905,2.377,3.847,3.248C38.159,40.14,38.538,40.483,38.767,40.712Z"/><path fill="url(#lUQQ_8lARyhu46qncSrXSk)" d="M21.321,26.822l-.9.9c-.238.238-.691.418-.826.283l-4.279-4.631a.708.708,0,0,1-.027-1l.7-.7a.724.724,0,0,1,.994.026l4.63,4.331C21.708,26.136,21.558,26.585,21.321,26.822Z" opacity=".6"/><path fill="url(#lUQQ_8lARyhu46qncSrXSd)" d="M37.99,41.7a2.884,2.884,0,0,1-.638,1.983,2.937,2.937,0,0,1-1.977.661c-.431-.479-2.607-2.7-3.045-3.2-3.986-4.5-8.035-8.945-12.217-13.283L15.6,23.245a8.11,8.11,0,0,0,.681-.632c.2-.2.357-.367.595-.595L19.912,25c4.743,4.57,9.612,8.984,14.536,13.343C35.075,38.892,37.408,41.162,37.99,41.7Z"/><path fill="url(#lUQQ_8lARyhu46qncSrXSf)" d="M39.885,41.989a6.826,6.826,0,0,1,.889,1.452c.026.044.035.088.053.123.026.079.052.141.07.211a2.576,2.576,0,0,1-.669,2.782,2.654,2.654,0,0,1-2.9.678l-.158-.053c-.053-.018-.1-.044-.15-.062l-.009-.008a6.869,6.869,0,0,1-1.47-.889A9.449,9.449,0,0,0,39.885,41.989Z"/><path fill="url(#lUQQ_8lARyhu46qncSrXSl)" d="M38.779,40.749a6.557,6.557,0,0,1,.464.5c.1.1.2.2.289.307a4.7,4.7,0,0,1,.359.464,6.816,6.816,0,0,1,.884,1.444,1.238,1.238,0,0,1,.052.123c.027.078.053.14.07.21a2.56,2.56,0,0,1-.665,2.766,2.638,2.638,0,0,1-2.88.674l-.157-.053c-.053-.017-.1-.044-.149-.061l-.009-.009a6.778,6.778,0,0,1-1.462-.884c-.157-.122-.306-.236-.455-.368-.1-.1-.2-.183-.3-.28-.132-.113-.254-.236-.377-.359-.2-.2-.534-.569-.945-1.015-.779-.9-1.908-2.223-3.046-3.676-3.055-3.826-6.189-7.554-9.515-11.126l-5.48-5.9a.7.7,0,0,1-.026-.989l.692-.691a.72.72,0,0,1,.989.026l4.6,4.307C25.614,29.79,29.711,33.2,33.9,36.539c1.506,1.173,2.889,2.364,3.826,3.23C38.175,40.181,38.552,40.522,38.779,40.749Z"/><path fill="url(#lUQQ_8lARyhu46qncSrXSm)" d="M19.254,23.834,17.43,25.658l-2.051-2.224a8.155,8.155,0,0,0,.74-.652l.589-.59c.132-.132.247-.264.361-.4Z"/><path fill="url(#lUQQ_8lARyhu46qncSrXSn)" d="M38.78,40.749a6.364,6.364,0,0,1,.463.5c.1.1.2.2.289.306a4.661,4.661,0,0,1,.359.464,6.8,6.8,0,0,1,.884,1.445,1.16,1.16,0,0,1,.053.122c.026.079.052.14.07.21a2.564,2.564,0,0,1-.665,2.766,2.638,2.638,0,0,1-2.88.674l-.158-.052c-.052-.018-.1-.044-.149-.062l-.008-.008a6.834,6.834,0,0,1-1.462-.884c-.158-.123-.307-.237-.455-.368-.1-.1-.2-.184-.3-.28-.131-.114-.254-.236-.376-.359-.2-.2-.534-.569-.946-1.015-.779-.9-1.908-2.224-3.046-3.677-1.742-2.179-3.5-4.324-5.322-6.425L27.742,31.5c2.022,1.707,4.079,3.379,6.162,5.042,1.506,1.173,2.889,2.363,3.825,3.23C38.176,40.18,38.552,40.521,38.78,40.749Z"/><path fill="url(#lUQQ_8lARyhu46qncSrXSe)" d="M21.212,25.683l-1.926,1.926-3.765-4.042a8.078,8.078,0,0,0,.736-.648l.586-.587c.132-.131.245-.262.359-.393Z"/><path fill="url(#lUQQ_8lARyhu46qncSrXSo)" d="M16.926,22.414,16.341,23c-1.91,1.91-3.448,2.3-5.268.639l-.6-.6c-.214-.214-.435-.459-.658-.73L.427,10.864a.553.553,0,0,1,.036-.753.409.409,0,0,1,.562-.013l.3.329L10.788,20.8a.512.512,0,0,0,.106.089.4.4,0,0,0,.435-.067.392.392,0,0,0,.02-.538L1.592,9.519A.391.391,0,0,1,1.6,8.976a.414.414,0,0,1,.586-.013l.3.3,9.865,10.152a.389.389,0,0,0,.466-.059.382.382,0,0,0,.011-.539L2.756,8.388a.4.4,0,0,1-.01-.56.392.392,0,0,1,.55,0l10.591,9.921a.388.388,0,0,0,.275.1.371.371,0,0,0,.261-.124.39.39,0,0,0,.058-.457l-.027-.034-.022-.011-.024-.027L3.9,7.282a.416.416,0,0,1-.016-.59.574.574,0,0,1,.778-.034l11.276,9.53a15.534,15.534,0,0,1,1.114,1.089C18.833,19.185,18.609,20.731,16.926,22.414ZM.7,10.349a.218.218,0,0,0-.014.3l9.388,11.445c.215.262.429.5.635.706l.215.215c1.677,1.534,3.291,1.422,5.071-.358l.585-.586c1.573-1.573,1.523-3.143-.158-4.942l0,0a6.288,6.288,0,0,0-.7-.676L4.444,6.917a.235.235,0,0,0-.311,0,.081.081,0,0,0,0,.12l.295.271,10.2,9.624a.34.34,0,0,1,.1.093l.045.058a.747.747,0,0,1-.126.9.7.7,0,0,1-.465.2A.733.733,0,0,1,13.658,18L3.061,8.069c-.042-.042-.121.023-.063.082l10.07,10.428a.719.719,0,0,1-.015,1.014.729.729,0,0,1-.918.082l-.1-.094-4.581-4.7L1.946,9.2a.076.076,0,0,0-.085-.013c-.041.041-.041.078-.024.1L11.6,20.053a.719.719,0,0,1-.019.987l-.031.032a.744.744,0,0,1-.825.106.889.889,0,0,1-.183-.149L.805,10.358A.078.078,0,0,0,.7,10.349Z"/><path fill="url(#lUQQ_8lARyhu46qncSrXSp)" d="M16.926,22.414,16.341,23c-1.91,1.91-3.448,2.3-5.268.639l-.6-.6c-.214-.214-.435-.459-.658-.73L.427,10.864a.553.553,0,0,1,.036-.753.409.409,0,0,1,.562-.013l.3.329L10.788,20.8a.512.512,0,0,0,.106.089.4.4,0,0,0,.435-.067.392.392,0,0,0,.02-.538L1.592,9.519A.391.391,0,0,1,1.6,8.976a.414.414,0,0,1,.586-.013l.3.3,9.865,10.152a.389.389,0,0,0,.466-.059.382.382,0,0,0,.011-.539L2.756,8.388a.4.4,0,0,1-.01-.56.392.392,0,0,1,.55,0l10.591,9.921a.388.388,0,0,0,.275.1.371.371,0,0,0,.261-.124.39.39,0,0,0,.058-.457l-.027-.034-.022-.011-.024-.027L3.9,7.282a.416.416,0,0,1-.016-.59.574.574,0,0,1,.778-.034l11.276,9.53a15.534,15.534,0,0,1,1.114,1.089C18.833,19.185,18.609,20.731,16.926,22.414ZM.7,10.349a.218.218,0,0,0-.014.3l9.388,11.445c.215.262.429.5.635.706l.215.215c1.677,1.534,3.291,1.422,5.071-.358l.585-.586c1.573-1.573,1.523-3.143-.158-4.942l0,0a6.288,6.288,0,0,0-.7-.676L4.444,6.917a.235.235,0,0,0-.311,0,.081.081,0,0,0,0,.12l.295.271,10.2,9.624a.34.34,0,0,1,.1.093l.045.058a.747.747,0,0,1-.126.9.7.7,0,0,1-.465.2A.733.733,0,0,1,13.658,18L3.061,8.069c-.042-.042-.121.023-.063.082l10.07,10.428a.719.719,0,0,1-.015,1.014.729.729,0,0,1-.918.082l-.1-.094-4.581-4.7L1.946,9.2a.076.076,0,0,0-.085-.013c-.041.041-.041.078-.024.1L11.6,20.053a.719.719,0,0,1-.019.987l-.031.032a.744.744,0,0,1-.825.106.889.889,0,0,1-.183-.149L.805,10.358A.078.078,0,0,0,.7,10.349Z"/><path fill="url(#lUQQ_8lARyhu46qncSrXSa)" d="M16.531,17.025c1.7,1.817,1.817,3.515.155,5.177l-.586.586c-1.626,1.626-3.348,2.152-5.309.359l-.215-.215q-.322-.324-.646-.718L.544,10.771a.386.386,0,0,1,.024-.526.239.239,0,0,1,.323-.012l.024.024.275.3,6,6.576,3.456,3.791a.656.656,0,0,0,.143.119.566.566,0,0,0,.634-.083l.024-.024a.554.554,0,0,0,.012-.753l-3.48-3.839L1.7,9.42a.223.223,0,0,1,0-.311l.024-.024A.238.238,0,0,1,2.05,9.1l.3.3,6.194,6.385,3.6,3.695.072.072a.563.563,0,0,0,.706-.06.549.549,0,0,0,.012-.777l-3.6-3.719L2.863,8.284a.228.228,0,0,1-.011-.323.222.222,0,0,1,.31,0l6.816,6.385,3.779,3.54a.549.549,0,0,0,.777-.036.561.561,0,0,0,.072-.67c-.036-.036-.048-.072-.1-.095l-3.719-3.5L4.3,7.447,4,7.172a.247.247,0,0,1-.012-.347L4,6.813A.4.4,0,0,1,4.537,6.8l11.276,9.53A6.7,6.7,0,0,1,16.531,17.025Z"/><path fill="url(#lUQQ_8lARyhu46qncSrXSq)" d="M16.524,17.025c1.707,1.814,1.822,3.513.158,5.176l-.581.581c-1.628,1.629-3.354,2.157-5.308.361l-.211-.211a8.718,8.718,0,0,1-.651-.722L9.6,21.805.548,10.767a.392.392,0,0,1,.017-.528.254.254,0,0,1,.326-.009l.026.027.264.3,6.012,6.575,3.371,3.706.088.088a1.044,1.044,0,0,0,.141.123.6.6,0,0,0,.634-.088l.027-.026a.546.546,0,0,0,.008-.749l-.114-.132L7.985,16.339,1.7,9.42a.231.231,0,0,1,0-.317l.026-.026a.246.246,0,0,1,.326.026l.29.291,6.2,6.39,3.5,3.583.176.176a.557.557,0,0,0,.7-.053.544.544,0,0,0,.017-.774l-.123-.124-3.477-3.6L2.871,8.285a.237.237,0,0,1-.026-.326.232.232,0,0,1,.317,0L9.975,14.35l3.661,3.415.124.123a.552.552,0,0,0,.774-.035.546.546,0,0,0,.071-.669c-.036-.035-.044-.079-.1-.1l-.1-.1-3.618-3.406L4.3,7.44,4,7.176a.251.251,0,0,1-.018-.352L4,6.806A.4.4,0,0,1,4.535,6.8L15.406,16l.4.334A5.5,5.5,0,0,1,16.524,17.025Z"/><path fill="url(#lUQQ_8lARyhu46qncSrXSb)" d="M.891,10.23l.026.027.264.3,6.012,6.575,3.371,3.706-.968.968L.548,10.767a.392.392,0,0,1,.017-.528A.254.254,0,0,1,.891,10.23Z"/><path fill="url(#lUQQ_8lARyhu46qncSrXSr)" d="M2.053,9.1l.29.291,6.2,6.39,3.5,3.583-.687.686L7.985,16.339,1.7,9.42a.231.231,0,0,1,0-.317l.026-.026A.246.246,0,0,1,2.053,9.1Z"/><path fill="url(#lUQQ_8lARyhu46qncSrXSs)" d="M9.975,14.35l3.661,3.415-.827.827-3.477-3.6L2.871,8.285a.237.237,0,0,1-.026-.326.232.232,0,0,1,.317,0Z"/><path fill="url(#lUQQ_8lARyhu46qncSrXSt)" d="M15.406,16l-1,.994-3.618-3.406L4.3,7.44,4,7.176a.251.251,0,0,1-.018-.352L4,6.806A.4.4,0,0,1,4.535,6.8Z"/><path fill="url(#lUQQ_8lARyhu46qncSrXSu)" d="M16.55,17.017c1.7,1.822,1.822,3.512.159,5.175l-.59.59c-1.629,1.628-3.345,2.148-5.308.361l-.22-.22c-.211-.211-.423-.458-.643-.713L6.806,18.381l.81-.81,3.045,3.345a.444.444,0,0,0,.15.114.548.548,0,0,0,.634-.088l.017-.017a.565.565,0,0,0,.018-.757L8.408,16.779l.572-.572,3.187,3.257.07.07a.551.551,0,0,0,.713-.836L9.772,15.415l.669-.669,3.336,3.124a.53.53,0,0,0,.775-.035.568.568,0,0,0,.07-.669c-.035-.035-.044-.061-.088-.088l-3.309-3.116.836-.836,3.776,3.2A8.906,8.906,0,0,1,16.55,17.017Z"/><path fill="url(#lUQQ_8lARyhu46qncSrXSv)" d="M16.55,17.017c1.7,1.822,1.822,3.512.159,5.175l-.59.59c-1.629,1.628-3.345,2.148-5.308.361l-.22-.22c-.211-.211-.423-.458-.643-.713L6.806,18.381l.81-.81,3.045,3.345a.444.444,0,0,0,.15.114.548.548,0,0,0,.634-.088l.017-.017a.565.565,0,0,0,.018-.757L8.408,16.779l.572-.572,3.187,3.257.07.07a.551.551,0,0,0,.713-.836L9.772,15.415l.669-.669,3.336,3.124a.53.53,0,0,0,.775-.035.568.568,0,0,0,.07-.669c-.035-.035-.044-.061-.088-.088l-3.309-3.116.836-.836,3.776,3.2A8.906,8.906,0,0,1,16.55,17.017Z"/><path fill="url(#lUQQ_8lARyhu46qncSrXSw)" d="M16.524,17.025c1.707,1.814,1.822,3.513.158,5.176l-.581.581c-1.628,1.629-3.354,2.157-5.308.361l-.211-.211a8.718,8.718,0,0,1-.651-.722L9.6,21.805.548,10.767a.392.392,0,0,1,.017-.528.254.254,0,0,1,.326-.009l.026.027.264.3,6.012,6.575,3.371,3.706.088.088a1.044,1.044,0,0,0,.141.123.6.6,0,0,0,.634-.088l.027-.026a.546.546,0,0,0,.008-.749l-.114-.132L7.985,16.339,1.7,9.42a.231.231,0,0,1,0-.317l.026-.026a.246.246,0,0,1,.326.026l.29.291,6.2,6.39,3.5,3.583.176.176a.557.557,0,0,0,.7-.053.544.544,0,0,0,.017-.774l-.123-.124-3.477-3.6L2.871,8.285a.237.237,0,0,1-.026-.326.232.232,0,0,1,.317,0L9.975,14.35l3.661,3.415.124.123a.552.552,0,0,0,.774-.035.546.546,0,0,0,.071-.669c-.036-.035-.044-.079-.1-.1l-.1-.1-3.618-3.406L4.3,7.44,4,7.176a.251.251,0,0,1-.018-.352L4,6.806A.4.4,0,0,1,4.535,6.8L15.406,16l.4.334A5.5,5.5,0,0,1,16.524,17.025Z"/><path fill="url(#lUQQ_8lARyhu46qncSrXSx)" d="M16.55,17.017c1.7,1.822,1.822,3.512.159,5.175l-.59.59c-1.629,1.628-3.345,2.148-5.308.361l-.22-.22c-.211-.211-.423-.458-.643-.713L6.806,18.381l.81-.81,3.045,3.345a.444.444,0,0,0,.15.114.548.548,0,0,0,.634-.088l.017-.017a.565.565,0,0,0,.018-.757L8.408,16.779l.572-.572,3.187,3.257.07.07a.551.551,0,0,0,.713-.836L9.772,15.415l.669-.669,3.336,3.124a.53.53,0,0,0,.775-.035.568.568,0,0,0,.07-.669c-.035-.035-.044-.061-.088-.088l-3.309-3.116.836-.836,3.776,3.2A8.906,8.906,0,0,1,16.55,17.017Z"/><path fill="url(#lUQQ_8lARyhu46qncSrXSi)" d="M16.776,25.311l-1.38-1.49a2.939,2.939,0,0,1-4.32-.18l-.61-.6c-.21-.22-.43-.46-.65-.73L.426,10.861a.535.535,0,0,1-.12-.44.572.572,0,0,1,.15-.3v-.01h.01a.4.4,0,0,1,.56-.01l.07.08.23.24,9.59,10.47a.413.413,0,0,0,.41-.07.381.381,0,0,0,.02-.54L1.6,9.521a.392.392,0,0,1,0-.55.423.423,0,0,1,.59-.01l.3.3,9.86,10.15a.383.383,0,0,0,.47-.06.377.377,0,0,0,.01-.53L2.756,8.391a.4.4,0,0,1-.01-.56.412.412,0,0,1,.21-.1.362.362,0,0,1,.34.1l.53.5,7.18,6.72A35.026,35.026,0,0,1,16.776,25.311Z" opacity=".3"/><path fill="url(#lUQQ_8lARyhu46qncSrXSg)" d="M43.675,30.925c-.825-.71-1.833-1.581-2.967-2.463-4.628-3.665-8.35-6.838-11.729-9.988l-4.41-4.135a.959.959,0,0,0-1.317-.034l-.665.664a.937.937,0,0,0,.046,1.306L27.9,21.956c2.921,3.127,5.911,6.621,9.141,10.7,1.6,2.015,3.23,3.894,3.883,4.547.183.183.343.344.515.492a.057.057,0,0,1,.023.023c1.787,1.581,3.15,1.844,4.135,1.547.034-.012.08-.035.114-.046a1.894,1.894,0,0,0,.321-.138,3.012,3.012,0,0,0,.813-.584,2.818,2.818,0,0,0,.676-1.019,2.014,2.014,0,0,0,.115-.344c.263-1.111-.264-2.417-1.558-3.894-.206-.229-.412-.458-.653-.7C45.106,32.219,44.488,31.647,43.675,30.925Zm3.184,4.284a2.342,2.342,0,0,1-.367,2.932,2.417,2.417,0,0,1-3.035.378,8.467,8.467,0,0,1-2.188-1.661c-.641-.641-2.256-2.508-3.848-4.513-3.242-4.066-6.231-7.582-9.164-10.721l-5.269-5.681a.44.44,0,0,1-.046-.619l.665-.664a.464.464,0,0,1,.63.034l4.41,4.135c3.379,3.15,7.113,6.335,11.752,10.011a61.625,61.625,0,0,1,4.684,4.044A8.768,8.768,0,0,1,46.847,35.2Z"/><path fill="url(#lUQQ_8lARyhu46qncSrXSy)" d="M45.255,32.712a8.657,8.657,0,0,1,1.982,2.737,2.517,2.517,0,0,1-.573,2.864,2.561,2.561,0,0,1-2.932.6,8.255,8.255,0,0,1-2.646-1.89c-.2-.2-.516-.539-.905-.974-.756-.871-1.844-2.142-2.944-3.539-2.932-3.689-5.956-7.285-9.163-10.721L22.805,16.1a.671.671,0,0,1-.034-.95l.664-.665a.7.7,0,0,1,.962.023l4.421,4.147c3.757,3.5,7.709,6.792,11.741,10,1.455,1.134,2.783,2.279,3.688,3.116C44.683,32.162,45.038,32.494,45.255,32.712Z"/><path fill="url(#lUQQ_8lARyhu46qncSrXSz)" d="M44.478,33.652a2.765,2.765,0,0,1-.612,1.9,2.813,2.813,0,0,1-1.9.633c-.414-.459-2.5-2.59-2.92-3.071-3.822-4.318-7.7-8.577-11.713-12.737l-4.324-4.42a7.6,7.6,0,0,0,.653-.605c.2-.2.343-.352.57-.57l2.908,2.859c4.547,4.382,9.216,8.614,13.938,12.794C41.684,30.963,43.921,33.139,44.478,33.652Z"/><polygon fill="url(#lUQQ_8lARyhu46qncSrXSA)" points="31.557 21.178 29.466 23.269 27.034 20.696 29 18.801 31.557 21.178"/><path fill="url(#lUQQ_8lARyhu46qncSrXSB)" d="M31.239,20.83l-2.152,2.151-2.428-2.606c.241-.189,1.858-1.841,1.97-1.97Z"/><path fill="url(#lUQQ_8lARyhu46qncSrXSC)" d="M46.31,33.957a6.609,6.609,0,0,1,.853,1.393c.025.042.034.084.051.118.025.076.05.135.067.2a2.471,2.471,0,0,1-.641,2.668,2.544,2.544,0,0,1-2.777.649l-.152-.05c-.051-.017-.093-.042-.144-.059l-.008-.009a6.528,6.528,0,0,1-1.409-.852A9.056,9.056,0,0,0,46.31,33.957Z"/><path fill="url(#lUQQ_8lARyhu46qncSrXSD)" d="M45.2,32.575a6.166,6.166,0,0,1,.456.491c.1.095.2.2.284.3a4.666,4.666,0,0,1,.353.457,6.723,6.723,0,0,1,.87,1.421c.026.043.034.086.052.12.025.078.051.138.068.207a2.519,2.519,0,0,1-.654,2.721,2.6,2.6,0,0,1-2.833.663l-.155-.051c-.052-.018-.1-.043-.147-.061l-.008-.008a6.655,6.655,0,0,1-1.438-.87c-.155-.121-.3-.233-.448-.362-.095-.094-.2-.181-.293-.275-.129-.112-.25-.233-.37-.353-.2-.2-.525-.56-.93-1-.767-.887-1.877-2.188-3-3.617-1.713-2.144-3.444-4.254-5.236-6.321l2.567-2.566c1.989,1.679,4.013,3.324,6.062,4.96,1.481,1.154,2.842,2.325,3.763,3.178C44.606,32.016,44.977,32.351,45.2,32.575Z"/><path fill="url(#lUQQ_8lARyhu46qncSrXSE)" d="M45.2,32.576a6.166,6.166,0,0,1,.456.491c.095.094.2.2.285.3a4.652,4.652,0,0,1,.353.456,6.7,6.7,0,0,1,.869,1.421,1.128,1.128,0,0,1,.052.121c.026.077.052.138.069.206a2.521,2.521,0,0,1-.655,2.722,2.6,2.6,0,0,1-2.833.663l-.155-.052c-.051-.017-.094-.043-.146-.06l-.009-.009a6.679,6.679,0,0,1-1.438-.87c-.155-.12-.3-.232-.448-.361-.094-.095-.2-.181-.292-.276-.129-.112-.25-.232-.371-.353-.2-.2-.525-.56-.93-1-.766-.887-1.877-2.187-3-3.617-3.006-3.763-6.089-7.431-9.361-10.945l-5.39-5.8a.691.691,0,0,1-.026-.973l.68-.68a.708.708,0,0,1,.973.026l4.53,4.237c3.832,3.573,7.862,6.932,11.987,10.213,1.481,1.154,2.841,2.325,3.763,3.177C44.606,32.016,44.976,32.352,45.2,32.576Z"/><path fill="url(#lUQQ_8lARyhu46qncSrXSF)" d="M10.1.266c-.266.072-.447.311-.542.71a3.923,3.923,0,0,0,.082,1.9c.025.115.05.234.075.356.934,4.711,7.568,13.735,12.906,17.556,2.815,2.015,3.975.6,4.087.486l2.545-2.543L11.6,1.066C11.155.623,10.587.13,10.1.266Z"/><path fill="url(#lUQQ_8lARyhu46qncSrXSG)" d="M11.462,1.209l8.58,8.6L29,18.8l-2.473,2.384c-.225.225-1.385,1.169-3.787-.549a37.3,37.3,0,0,1-6.8-6.727C12.928,10.158,10.454,5.976,9.906,3.2A4.686,4.686,0,0,1,9.744,1.02,1.087,1.087,0,0,1,9.87.7C10.239.058,10.985.715,11.462,1.209Z"/><path fill="url(#lUQQ_8lARyhu46qncSrXSh)" d="M11.462,1.209l8.58,8.6L29,18.8l-2.473,2.384c-.225.225-1.385,1.169-3.787-.549a37.3,37.3,0,0,1-6.8-6.727C12.928,10.158,10.454,5.976,9.906,3.2A4.686,4.686,0,0,1,9.744,1.02,1.087,1.087,0,0,1,9.87.7C10.239.058,10.985.715,11.462,1.209Z"/><path fill="url(#lUQQ_8lARyhu46qncSrXSH)" d="M11.462,1.209l8.58,8.6L29,18.8l-2.473,2.384c-.225.225-1.385,1.169-3.787-.549a37.3,37.3,0,0,1-6.8-6.727C12.928,10.158,10.454,5.976,9.906,3.2A4.686,4.686,0,0,1,9.744,1.02,1.087,1.087,0,0,1,9.87.7C10.239.058,10.985.715,11.462,1.209Z"/><path fill="url(#lUQQ_8lARyhu46qncSrXSI)" d="M11.462,1.209l8.58,8.6L29,18.8l-2.473,2.384c-.225.225-1.385,1.169-3.787-.549a37.3,37.3,0,0,1-6.8-6.727C12.928,10.158,10.454,5.976,9.906,3.2A4.686,4.686,0,0,1,9.744,1.02,1.087,1.087,0,0,1,9.87.7C10.239.058,10.985.715,11.462,1.209Z"/><path fill="url(#lUQQ_8lARyhu46qncSrXSJ)" d="M10.091.475a5.8,5.8,0,0,0,.237,2.353c.549,2.779,3.022,6.962,6.035,10.712a37.266,37.266,0,0,0,6.8,6.727c1.97,1.413,3.094,1.026,3.561.72a.047.047,0,0,0,.036-.018l-.233.216c-.225.225-1.385,1.169-3.787-.549a37.3,37.3,0,0,1-6.8-6.727C12.928,10.158,10.454,5.976,9.906,3.2A4.686,4.686,0,0,1,9.744,1.02,1.087,1.087,0,0,1,9.87.7.485.485,0,0,1,10.091.475Z"/><path fill="url(#lUQQ_8lARyhu46qncSrXSK)" d="M10.091.475a5.8,5.8,0,0,0,.237,2.353c.549,2.779,3.022,6.962,6.035,10.712a37.266,37.266,0,0,0,6.8,6.727c1.97,1.413,3.094,1.026,3.561.72a.047.047,0,0,0,.036-.018l-.233.216c-.225.225-1.385,1.169-3.787-.549a37.3,37.3,0,0,1-6.8-6.727C12.928,10.158,10.454,5.976,9.906,3.2A4.686,4.686,0,0,1,9.744,1.02,1.087,1.087,0,0,1,9.87.7.485.485,0,0,1,10.091.475Z"/><path fill="url(#lUQQ_8lARyhu46qncSrXSL)" d="M20.126,9.871l8.948,9-2.3,2.213s-1.133,1.421-3.831-.5a37.3,37.3,0,0,1-6.8-6.727Z"/><path fill="url(#lUQQ_8lARyhu46qncSrXSM)" d="M27.2,21.192l-.186-.2-.3.287c-.11.109-1.274,1.527-4.085-.49C17.291,16.972,10.657,7.942,9.721,3.241c-.026-.127-.051-.254-.076-.363A6.13,6.13,0,0,1,9.5,2.11a60.567,60.567,0,0,1,8.305,6.937A60.467,60.467,0,0,1,27.2,21.192Z" opacity=".3"/><g opacity=".3"><path fill="url(#lUQQ_8lARyhu46qncSrXSN)" d="M11.462,1.209l8.58,8.6L29,18.8l-2.473,2.384c-.225.225-1.385,1.169-3.787-.549a37.3,37.3,0,0,1-6.8-6.727C12.928,10.158,10.454,5.976,9.906,3.2A4.686,4.686,0,0,1,9.744,1.02,1.087,1.087,0,0,1,9.87.7C10.239.058,10.985.715,11.462,1.209Z"/><path fill="url(#lUQQ_8lARyhu46qncSrXSI)" d="M11.462,1.209l8.58,8.6L29,18.8l-2.473,2.384c-.225.225-1.385,1.169-3.787-.549a37.3,37.3,0,0,1-6.8-6.727C12.928,10.158,10.454,5.976,9.906,3.2A4.686,4.686,0,0,1,9.744,1.02,1.087,1.087,0,0,1,9.87.7C10.239.058,10.985.715,11.462,1.209Z"/></g></g></svg>