<svg xmlns="http://www.w3.org/2000/svg" xmlns:xlink="http://www.w3.org/1999/xlink" data-name="Layer 1" viewBox="0 0 48 48"><defs><radialGradient id="tZyaKTDS7o8_pNaI64xDgu" cx="23.71" cy="10.52" r="10.43" gradientTransform="matrix(1 0 0 .32 0 7.12)" gradientUnits="userSpaceOnUse"><stop offset="0" stop-color="#a84708"/><stop offset="1" stop-color="#962d0a"/></radialGradient><radialGradient id="tZyaKTDS7o8_pNaI64xDgr" cx="23.69" cy="10.58" r="10.49" gradientTransform="matrix(1 0 0 .32 0 7.16)" gradientUnits="userSpaceOnUse"><stop offset="0" stop-color="#a34305"/><stop offset="1" stop-color="#922906"/></radialGradient><radialGradient id="tZyaKTDS7o8_pNaI64xDgm" cx="23.77" cy="10.69" r="10.69" gradientTransform="matrix(1 0 0 .32 0 7.23)" gradientUnits="userSpaceOnUse"><stop offset="0" stop-color="#9a3c00"/><stop offset="1" stop-color="#8c2300"/></radialGradient><radialGradient id="tZyaKTDS7o8_pNaI64xDgn" cx="23.75" cy="10.67" r="10.63" gradientTransform="matrix(1 0 0 .32 0 7.22)" gradientUnits="userSpaceOnUse"><stop offset="0" stop-color="#9c3d01"/><stop offset="1" stop-color="#8d2401"/></radialGradient><radialGradient id="tZyaKTDS7o8_pNaI64xDgo" cx="23.71" cy="10.65" r="10.58" gradientTransform="matrix(1 0 0 .32 0 7.2)" gradientUnits="userSpaceOnUse"><stop offset="0" stop-color="#9e3f02"/><stop offset="1" stop-color="#8e2503"/></radialGradient><radialGradient id="tZyaKTDS7o8_pNaI64xDgp" cx="23.69" cy="10.63" r="10.54" gradientTransform="matrix(1 0 0 .32 0 7.19)" gradientUnits="userSpaceOnUse"><stop offset="0" stop-color="#9f4003"/><stop offset="1" stop-color="#902704"/></radialGradient><radialGradient id="tZyaKTDS7o8_pNaI64xDgq" cx="23.69" cy="10.6" r="10.52" gradientTransform="matrix(1 0 0 .32 0 7.18)" gradientUnits="userSpaceOnUse"><stop offset="0" stop-color="#a14104"/><stop offset="1" stop-color="#912805"/></radialGradient><radialGradient id="tZyaKTDS7o8_pNaI64xDgc" cx="24" cy="29.99" r="35.61" gradientTransform="matrix(1 0 0 .49 .04 15.51)" gradientUnits="userSpaceOnUse"><stop offset="0" stop-color="#f6f4f0"/><stop offset=".43" stop-color="#e8ecfb"/><stop offset=".53" stop-color="#e2e6f3"/><stop offset=".68" stop-color="#d3d6de"/><stop offset=".86" stop-color="#babcbc"/><stop offset=".88" stop-color="#b7b9b8"/><stop offset="1" stop-color="#c2c8e0"/></radialGradient><radialGradient id="tZyaKTDS7o8_pNaI64xDgs" cx="23.7" cy="10.56" r="10.47" gradientTransform="matrix(1 0 0 .32 0 7.15)" gradientUnits="userSpaceOnUse"><stop offset="0" stop-color="#a54406"/><stop offset="1" stop-color="#932a08"/></radialGradient><radialGradient id="tZyaKTDS7o8_pNaI64xDgt" cx="23.7" cy="10.54" r="10.45" gradientTransform="matrix(1 0 0 .32 0 7.13)" gradientUnits="userSpaceOnUse"><stop offset="0" stop-color="#a64507"/><stop offset="1" stop-color="#952c09"/></radialGradient><radialGradient id="tZyaKTDS7o8_pNaI64xDgk" cx="31.83" cy="33.27" r="15.33" gradientTransform="rotate(-95.05 41.455 22.753) scale(1 .37)" gradientUnits="userSpaceOnUse"><stop offset="0" stop-color="#d78207" stop-opacity=".5"/><stop offset="1" stop-color="#d78207" stop-opacity="0"/></radialGradient><radialGradient id="tZyaKTDS7o8_pNaI64xDgv" cx="23.72" cy="10.5" r="10.41" gradientTransform="matrix(1 0 0 .32 0 7.1)" gradientUnits="userSpaceOnUse"><stop offset="0" stop-color="#aa480a"/><stop offset="1" stop-color="#972e0c"/></radialGradient><radialGradient id="tZyaKTDS7o8_pNaI64xDgw" cx="23.72" cy="10.48" r="10.39" gradientTransform="matrix(1 0 0 .32 0 7.09)" gradientUnits="userSpaceOnUse"><stop offset="0" stop-color="#ac4a0b"/><stop offset="1" stop-color="#982f0d"/></radialGradient><radialGradient id="tZyaKTDS7o8_pNaI64xDgx" cx="23.73" cy="10.46" r="10.36" gradientTransform="matrix(1 0 0 .32 0 7.07)" gradientUnits="userSpaceOnUse"><stop offset="0" stop-color="#ad4b0c"/><stop offset="1" stop-color="#9a310e"/></radialGradient><radialGradient id="tZyaKTDS7o8_pNaI64xDgy" cx="23.73" cy="10.44" r="10.34" gradientTransform="matrix(1 0 0 .32 0 7.06)" gradientUnits="userSpaceOnUse"><stop offset="0" stop-color="#af4c0d"/><stop offset="1" stop-color="#9b3210"/></radialGradient><radialGradient id="tZyaKTDS7o8_pNaI64xDgz" cx="23.74" cy="10.41" r="10.32" gradientTransform="matrix(1 0 0 .32 0 7.05)" gradientUnits="userSpaceOnUse"><stop offset="0" stop-color="#b14e0e"/><stop offset="1" stop-color="#9c3311"/></radialGradient><radialGradient id="tZyaKTDS7o8_pNaI64xDgA" cx="23.74" cy="10.39" r="10.3" gradientTransform="matrix(1 0 0 .32 0 7.03)" gradientUnits="userSpaceOnUse"><stop offset="0" stop-color="#b34f0f"/><stop offset="1" stop-color="#9d3412"/></radialGradient><radialGradient id="tZyaKTDS7o8_pNaI64xDgB" cx="23.75" cy="10.37" r="10.28" gradientTransform="matrix(1 0 0 .32 0 7.02)" gradientUnits="userSpaceOnUse"><stop offset="0" stop-color="#b45010"/><stop offset="1" stop-color="#9f3613"/></radialGradient><radialGradient id="tZyaKTDS7o8_pNaI64xDgC" cx="23.75" cy="10.35" r="10.26" gradientTransform="matrix(1 0 0 .32 0 7)" gradientUnits="userSpaceOnUse"><stop offset="0" stop-color="#b65211"/><stop offset="1" stop-color="#a03715"/></radialGradient><radialGradient id="tZyaKTDS7o8_pNaI64xDgD" cx="23.76" cy="10.33" r="10.24" gradientTransform="matrix(1 0 0 .32 0 6.99)" gradientUnits="userSpaceOnUse"><stop offset="0" stop-color="#b85312"/><stop offset="1" stop-color="#a13816"/></radialGradient><linearGradient id="tZyaKTDS7o8_pNaI64xDgd" x1="20.29" x2="26.38" y1="39.12" y2="24.76" gradientUnits="userSpaceOnUse"><stop offset=".01" stop-color="#fff" stop-opacity="0"/><stop offset=".32" stop-color="#fff" stop-opacity=".56"/><stop offset=".52" stop-color="#fff" stop-opacity=".9"/><stop offset=".6" stop-color="#fff" stop-opacity=".79"/><stop offset=".75" stop-color="#fff" stop-opacity=".5"/><stop offset=".98" stop-color="#fff" stop-opacity=".04"/><stop offset="1" stop-color="#fff" stop-opacity="0"/></linearGradient><linearGradient id="tZyaKTDS7o8_pNaI64xDge" x1="21.88" x2="28.35" y1="25.79" y2="39.78" gradientUnits="userSpaceOnUse"><stop offset="0" stop-color="#a6a6b3" stop-opacity="0"/><stop offset=".06" stop-color="#a6a6b3" stop-opacity=".15"/><stop offset=".15" stop-color="#a6a6b3" stop-opacity=".35"/><stop offset=".23" stop-color="#a6a6b3" stop-opacity=".5"/><stop offset=".32" stop-color="#a6a6b3" stop-opacity=".61"/><stop offset=".41" stop-color="#a6a6b3" stop-opacity=".68"/><stop offset=".51" stop-color="#a6a6b3" stop-opacity=".7"/><stop offset=".58" stop-color="#a6a6b3" stop-opacity=".64"/><stop offset=".7" stop-color="#a6a6b3" stop-opacity=".49"/><stop offset=".86" stop-color="#a6a6b3" stop-opacity=".24"/><stop offset="1" stop-color="#a6a6b3" stop-opacity="0"/></linearGradient><linearGradient id="tZyaKTDS7o8_pNaI64xDgf" x1="-.55" x2="48.62" y1="29.85" y2="29.85" gradientUnits="userSpaceOnUse"><stop offset="0" stop-color="#c2c8e0"/><stop offset="1" stop-color="#9fa5bd"/></linearGradient><linearGradient id="tZyaKTDS7o8_pNaI64xDgg" x1="11.42" x2="41.58" y1="26.52" y2="35.52" gradientUnits="userSpaceOnUse"><stop offset="0" stop-color="#d06724"/><stop offset="1" stop-color="#ab3f1c"/></linearGradient><linearGradient id="tZyaKTDS7o8_pNaI64xDgh" x1="10.74" x2="37.23" y1="32.41" y2="32.41" gradientUnits="userSpaceOnUse"><stop offset="0" stop-color="#ab3f1c"/><stop offset="1" stop-color="#d06724"/></linearGradient><linearGradient id="tZyaKTDS7o8_pNaI64xDgi" x1="28.11" x2="31.03" y1="30.74" y2="22.17" gradientTransform="rotate(12.31 29.011 28.063)" gradientUnits="userSpaceOnUse"><stop offset=".01" stop-color="#1d1d1b" stop-opacity=".4"/><stop offset=".65" stop-color="#1d1d1b" stop-opacity=".2"/><stop offset="1" stop-color="#1d1d1b" stop-opacity="0"/></linearGradient><linearGradient id="tZyaKTDS7o8_pNaI64xDgj" x1="10.77" x2="37.23" y1="20.81" y2="20.81" gradientUnits="userSpaceOnUse"><stop offset="0" stop-color="#f3dcb5"/><stop offset=".29" stop-color="#fbeac6"/><stop offset=".54" stop-color="#fff2d0"/><stop offset=".71" stop-color="#fae5b2"/><stop offset=".89" stop-color="#f6da98"/><stop offset="1" stop-color="#f4d68e"/></linearGradient><linearGradient id="tZyaKTDS7o8_pNaI64xDgb" x1=".02" x2="47.98" y1="30.6" y2="30.6" gradientTransform="matrix(1 0 0 1.05 0 -1.01)" gradientUnits="userSpaceOnUse"><stop offset="0" stop-color="#868f99"/><stop offset="1" stop-color="#c2c8e0"/></linearGradient><linearGradient id="tZyaKTDS7o8_pNaI64xDgl" x1="36.19" x2="11.85" y1="14.08" y2="14.08" gradientUnits="userSpaceOnUse"><stop offset="0" stop-color="#d78207" stop-opacity=".6"/><stop offset=".87" stop-color="#d78207" stop-opacity=".08"/><stop offset="1" stop-color="#d78207" stop-opacity="0"/></linearGradient><linearGradient id="tZyaKTDS7o8_pNaI64xDgE" x1="12.89" x2="35.06" y1="13.56" y2="13.56" gradientUnits="userSpaceOnUse"><stop offset="0" stop-color="#aa3c17"/><stop offset=".96" stop-color="#c45813"/><stop offset="1" stop-color="#b85312"/></linearGradient><linearGradient id="tZyaKTDS7o8_pNaI64xDga" x1="15.88" x2="25.32" y1="10.39" y2="7.32" gradientUnits="userSpaceOnUse"><stop offset="0" stop-color="#aa3c17"/><stop offset="1" stop-color="#c45813"/></linearGradient><linearGradient id="tZyaKTDS7o8_pNaI64xDgF" x1="33.2" x2="21.37" y1="11.03" y2="13.04" xlink:href="#tZyaKTDS7o8_pNaI64xDga"/><linearGradient id="tZyaKTDS7o8_pNaI64xDgG" x1="11.07" x2="10" y1="27.62" y2="31.21" gradientUnits="userSpaceOnUse"><stop offset="0" stop-color="#ed872d"/><stop offset="1" stop-color="#ed872d" stop-opacity="0"/></linearGradient></defs><ellipse cx="24" cy="31.06" fill="url(#tZyaKTDS7o8_pNaI64xDgb)" rx="23.98" ry="11.96"/><ellipse cx="24" cy="30.38" fill="url(#tZyaKTDS7o8_pNaI64xDgc)" rx="23.98" ry="11.96"/><ellipse cx="24" cy="30.38" fill="url(#tZyaKTDS7o8_pNaI64xDgd)" rx="23.98" ry="11.96"/><ellipse cx="24" cy="30.37" fill="url(#tZyaKTDS7o8_pNaI64xDge)" rx="23.98" ry="11.96"/><ellipse cx="24" cy="29.85" fill="url(#tZyaKTDS7o8_pNaI64xDgf)" rx="17.06" ry="7.04"/><ellipse cx="24" cy="30.27" fill="url(#tZyaKTDS7o8_pNaI64xDgg)" rx="16.04" ry="6.61"/><path fill="url(#tZyaKTDS7o8_pNaI64xDgh)" d="M24,34.4c-6.95,0-12.64-2.19-13.19-5l-.06.56c0,3,5.93,5.42,13.25,5.42S37.23,33,37.23,30l-.06-.56C36.62,32.21,30.93,34.4,24,34.4Z"/><ellipse cx="29.02" cy="28.05" fill="url(#tZyaKTDS7o8_pNaI64xDgi)" rx="10.1" ry="6.22" transform="rotate(-12.31 29.059 28.04)"/><path fill="url(#tZyaKTDS7o8_pNaI64xDgj)" d="M37.23,29.22c0,3-5.93,5.42-13.23,5.42s-13.23-2.42-13.23-5.42L12.08,15.9l.06-.56,0-.26v-.13l.25-2.56C12.42,9.4,17.6,7,24,7S35.58,9.4,35.58,12.38l.25,2.55V15l0,.29.08.86Z"/><path fill="url(#tZyaKTDS7o8_pNaI64xDgk)" d="M37.23,29.21c0,3-5.93,5.42-13.23,5.42s-13.23-2.42-13.23-5.42l1.3-13.15V15.9l.06-.56,0-.26v-.13l.25-2.56a2.7,2.7,0,0,1,.2-1C13.6,8.88,18.32,7,24,7s10.17,1.82,11.32,4.24l0,.08a2.78,2.78,0,0,1,.23,1.09l.25,2.55V15l0,.29,0,.43,0,.44Z"/><path fill="url(#tZyaKTDS7o8_pNaI64xDgl)" d="M35.9,15.72c-.6.52-1.28,1-1.84,1.5a7,7,0,0,1-1.55,1.38c-.9.44-2,.17-3,.52a16.78,16.78,0,0,0-1.9,1.13,6.92,6.92,0,0,1-2.52.51c-1.7.1-3.53.18-4.94-.78a10.36,10.36,0,0,0-1.32-.91,5.6,5.6,0,0,0-2.4-.15,2.34,2.34,0,0,1-2.17-.82c-.33-.55-.32-1.4-.92-1.64a3.55,3.55,0,0,0-.69-.09,1.2,1.2,0,0,1-.64-.3V15.9l.06-.56,0-.26v-.13l.25-2.56a2.7,2.7,0,0,1,.2-1c1.38-2.33,6-4,11.4-4S33.8,9,35.32,11.21l0,.08a2.78,2.78,0,0,1,.23,1.09l.25,2.55V15l0,.29Z"/><path fill="url(#tZyaKTDS7o8_pNaI64xDgm)" d="M35.83,14.94l-.25-2.53v0C35.58,9.39,30.4,7,24,7S12.42,9.39,12.42,12.38v0l-.25,2.54v.13l0,.26a1.15,1.15,0,0,0,.79.46,3.43,3.43,0,0,1,.68.09c.59.24.57,1.07.9,1.61a2.3,2.3,0,0,0,2.13.8,5.57,5.57,0,0,1,2.36.14,10,10,0,0,1,1.3.9c1.38.94,3.17.86,4.84.76a6.61,6.61,0,0,0,2.46-.49,18,18,0,0,1,1.86-1.1c.93-.33,2-.08,2.9-.51a6.71,6.71,0,0,0,1.52-1.34c.62-.6,1.38-1.07,2-1.64Z"/><path fill="url(#tZyaKTDS7o8_pNaI64xDgn)" d="M24,7c5.33,0,9.79,1.68,11.14,3.94a3.06,3.06,0,0,1,.45,1.55v0s.15,2,.13,2,0,.45,0,.45V15c-.4.36-.85.69-1.29,1-.23.18-.46.37-.67.58s-.59.63-.9.9a2.36,2.36,0,0,1-1.24.61c-.55.1-1.15.08-1.72.18a3.08,3.08,0,0,0-.55.14,4,4,0,0,0-.85.46c-.24.16-.48.34-.73.49l-.27.15a5.66,5.66,0,0,1-2,.45l-.42,0-1.18.05h0a6.7,6.7,0,0,1-3.15-.54,4.33,4.33,0,0,1-.49-.29c-.37-.25-.71-.57-1.11-.8L19,18.36a3.32,3.32,0,0,0-1.5-.19l-.84,0a4.6,4.6,0,0,1-.58,0l-.21,0a1.79,1.79,0,0,1-1.33-.74,2.44,2.44,0,0,1-.21-.5c-.15-.45-.26-.93-.68-1.11a3.23,3.23,0,0,0-.67-.11,1.27,1.27,0,0,1-.67-.31l-.12-.13s0-.25,0-.25v-.18l.24-2.47v0a2.75,2.75,0,0,1,0-.4C12.86,9.25,17.81,7,24,7Z"/><path fill="url(#tZyaKTDS7o8_pNaI64xDgo)" d="M24,7c5.41,0,9.87,1.73,11.16,4a3.3,3.3,0,0,1,.44,1.57v0c0,.08.09,1.91.06,1.9s0,.42,0,.43V15c-.39.35-.84.68-1.26,1-.23.18-.45.37-.66.57s-.59.63-.9.9a2.54,2.54,0,0,1-.62.4,2.68,2.68,0,0,1-.62.18c-.55.1-1.14.08-1.71.18a3.12,3.12,0,0,0-.55.15,4.14,4.14,0,0,0-.85.47c-.24.16-.48.34-.73.48l-.27.15a5.73,5.73,0,0,1-2,.44l-.42,0c-.39,0-.78,0-1.17.05h0a6.6,6.6,0,0,1-3.14-.55,4.44,4.44,0,0,1-.49-.29c-.37-.25-.71-.57-1.11-.79L19,18.28a3.34,3.34,0,0,0-1.49-.19l-.84,0a4.74,4.74,0,0,1-.58,0l-.21,0a1.79,1.79,0,0,1-1.32-.73,2.44,2.44,0,0,1-.21-.49c-.15-.45-.26-.92-.67-1.12a3.09,3.09,0,0,0-.66-.12,1.38,1.38,0,0,1-.68-.3l-.13-.12a1.43,1.43,0,0,0,0-.23s0-.11,0-.11,0-.06,0-.06l.24-2.46v0a2.93,2.93,0,0,1,0-.4C12.84,9.31,17.73,7,24,7Z"/><path fill="url(#tZyaKTDS7o8_pNaI64xDgp)" d="M24,7C29.48,7,34,8.74,35.19,11a3.58,3.58,0,0,1,.42,1.59v0c0,.13,0,1.83,0,1.83s0,.4,0,.4V15c-.39.34-.82.67-1.23,1-.22.18-.44.36-.64.56s-.59.63-.9.89a2.49,2.49,0,0,1-.62.39,2.8,2.8,0,0,1-.62.17c-.55.09-1.14.08-1.71.19a3.16,3.16,0,0,0-.55.15,4.28,4.28,0,0,0-.84.47c-.24.16-.48.34-.73.48l-.27.14a5.81,5.81,0,0,1-2,.44l-.42,0c-.38,0-.78,0-1.17.05h0a6.49,6.49,0,0,1-3.13-.56,4.55,4.55,0,0,1-.48-.29,12.7,12.7,0,0,0-1.1-.78L19,18.21A3.37,3.37,0,0,0,17.51,18l-.84,0a4.89,4.89,0,0,1-.57,0l-.2,0a1.78,1.78,0,0,1-1.32-.71,2.45,2.45,0,0,1-.21-.49c-.14-.44-.26-.91-.67-1.12a2.94,2.94,0,0,0-.65-.14,1.53,1.53,0,0,1-.68-.29l-.13-.12s0-.22,0-.22,0-.1,0-.1,0-.05,0-.05l.24-2.46v0a3.15,3.15,0,0,1,0-.4C12.82,9.38,17.65,7,24,7Z"/><path fill="url(#tZyaKTDS7o8_pNaI64xDgq)" d="M24,7c5.56,0,10,1.81,11.22,4.14a3.91,3.91,0,0,1,.4,1.61v0c0,.17,0,1.76-.07,1.76s0,.37,0,.38v.06l-1.21,1c-.22.18-.43.36-.63.56s-.59.63-.9.88a2.45,2.45,0,0,1-.63.37,3,3,0,0,1-.62.16c-.54.09-1.13.08-1.7.19a3.2,3.2,0,0,0-.55.16,4.43,4.43,0,0,0-.84.47c-.24.16-.48.33-.73.48l-.27.14a5.89,5.89,0,0,1-2,.43l-.42,0c-.38,0-.77,0-1.16.05h0a6.39,6.39,0,0,1-3.11-.57,4.67,4.67,0,0,1-.48-.3,11.57,11.57,0,0,0-1.09-.77L19,18.13a3.39,3.39,0,0,0-1.47-.19l-.83,0a5.07,5.07,0,0,1-.57,0l-.2,0a1.77,1.77,0,0,1-1.32-.69,2.45,2.45,0,0,1-.2-.49c-.14-.43-.26-.91-.66-1.12a2.8,2.8,0,0,0-.64-.15,1.72,1.72,0,0,1-.68-.28l-.13-.11s0-.2,0-.2,0-.1,0-.1,0,0,0-.05l.24-2.45v0a3.39,3.39,0,0,1,0-.4C12.8,9.44,17.57,7,24,7Z"/><path fill="url(#tZyaKTDS7o8_pNaI64xDgr)" d="M24,7c5.63,0,10.14,1.86,11.24,4.21a4.29,4.29,0,0,1,.38,1.62v0a13.47,13.47,0,0,1-.14,1.69s0,.34-.05.35,0,.05,0,.05l-1.18,1c-.21.17-.42.36-.61.55a11.44,11.44,0,0,1-.9.87,2.4,2.4,0,0,1-.63.36,3.09,3.09,0,0,1-.62.15c-.54.09-1.13.08-1.69.2a3.24,3.24,0,0,0-.54.16,4.59,4.59,0,0,0-.84.47c-.24.16-.48.33-.72.48l-.27.14a6,6,0,0,1-2,.42l-.42,0c-.38,0-.77,0-1.16.05h0a6.28,6.28,0,0,1-3.1-.58,4.78,4.78,0,0,1-.48-.3,10.61,10.61,0,0,0-1.09-.76L19,18.05a3.42,3.42,0,0,0-1.46-.19l-.83,0a5.27,5.27,0,0,1-.56,0l-.2,0a1.76,1.76,0,0,1-1.31-.67,2.45,2.45,0,0,1-.2-.49,1.8,1.8,0,0,0-.66-1.12,2.66,2.66,0,0,0-.64-.17,2,2,0,0,1-.68-.26l-.14-.1s0-.19-.06-.19,0-.09,0-.09,0,0,0,0l.24-2.45v0a3.68,3.68,0,0,1,0-.4C12.78,9.51,17.5,7,24,7Z"/><path fill="url(#tZyaKTDS7o8_pNaI64xDgs)" d="M24,7c5.71,0,10.23,1.9,11.27,4.28a4.74,4.74,0,0,1,.37,1.64v0a9.1,9.1,0,0,1-.21,1.61s0,.31-.07.33,0,0,0,.05c-.38.3-.77.64-1.16,1-.21.17-.41.35-.6.54a9.84,9.84,0,0,1-.9.86,2.35,2.35,0,0,1-.63.34,3.26,3.26,0,0,1-.62.15c-.54.08-1.12.08-1.69.2a3.28,3.28,0,0,0-.54.17,4.77,4.77,0,0,0-.83.47c-.24.16-.47.33-.72.47l-.27.14a6.05,6.05,0,0,1-2,.41l-.42,0c-.38,0-.77,0-1.15,0h0a6.18,6.18,0,0,1-3.09-.59,4.9,4.9,0,0,1-.47-.3,9.78,9.78,0,0,0-1.08-.76L19,18a3.44,3.44,0,0,0-1.45-.19l-.82,0a5.49,5.49,0,0,1-.56,0l-.2,0a1.75,1.75,0,0,1-1.31-.65,2.45,2.45,0,0,1-.2-.49,1.85,1.85,0,0,0-.65-1.13,2.53,2.53,0,0,0-.63-.19,2.32,2.32,0,0,1-.69-.25l-.14-.1s0-.17-.08-.17,0-.08-.05-.08,0,0,0,0l.24-2.44v0c0-.09,0-.31.05-.4C12.76,9.58,17.42,7,24,7Z"/><path fill="url(#tZyaKTDS7o8_pNaI64xDgt)" d="M24,7c5.78,0,10.31,1.95,11.29,4.34A5.29,5.29,0,0,1,35.64,13h0a6.38,6.38,0,0,1-.28,1.54s-.06.29-.09.3,0,0,0,0c-.37.28-.75.63-1.13.95-.2.17-.4.35-.59.53a8.6,8.6,0,0,1-.9.86,2.31,2.31,0,0,1-.63.32,3.48,3.48,0,0,1-.62.14c-.53.08-1.12.08-1.68.21a3.32,3.32,0,0,0-.54.18,5,5,0,0,0-.83.48c-.24.16-.47.33-.72.47l-.27.13a6.14,6.14,0,0,1-2,.4l-.41,0c-.38,0-.76,0-1.15,0h0a6.07,6.07,0,0,1-3.07-.6,5,5,0,0,1-.47-.3A9.06,9.06,0,0,0,19.17,18L19,17.89a3.47,3.47,0,0,0-1.44-.19l-.82,0c-.18,0-.37,0-.55,0H16a1.74,1.74,0,0,1-1.31-.63,2.46,2.46,0,0,1-.2-.49,1.91,1.91,0,0,0-.65-1.13,2.4,2.4,0,0,0-.62-.2,2.84,2.84,0,0,1-.69-.24L12.39,15s0-.16-.1-.16,0-.08-.06-.08,0,0,0,0l.24-2.44v0c0-.08,0-.32.06-.4C12.74,9.64,17.34,7,24,7Z"/><path fill="url(#tZyaKTDS7o8_pNaI64xDgu)" d="M24,7c5.86,0,10.4,2,11.32,4.41a6,6,0,0,1,.33,1.68h0c0,.34-.23,1.47-.35,1.47s-.07.26-.11.28,0,0,0,0c-.37.27-.74.62-1.1.93-.2.17-.39.34-.57.52a7.62,7.62,0,0,1-.9.85,2.27,2.27,0,0,1-.63.31,3.71,3.71,0,0,1-.62.13,14.65,14.65,0,0,0-1.67.22,3.36,3.36,0,0,0-.54.18,5.16,5.16,0,0,0-.82.48c-.24.16-.47.33-.72.47l-.27.13a6.24,6.24,0,0,1-2,.39l-.41,0c-.38,0-.76,0-1.14,0h0a6,6,0,0,1-3.06-.61,5.16,5.16,0,0,1-.47-.3,8.31,8.31,0,0,0-1.07-.74L19,17.82a3.5,3.5,0,0,0-1.43-.2l-.82,0H16a1.72,1.72,0,0,1-1.3-.61,2.46,2.46,0,0,1-.2-.49,2,2,0,0,0-.64-1.13,2.28,2.28,0,0,0-.61-.22,3.66,3.66,0,0,1-.69-.23l-.14-.08s-.05-.14-.11-.14-.05-.07-.07-.07,0,0,0,0l.24-2.43h0c0-.07,0-.33.06-.4C12.72,9.71,17.26,7,24,7Z"/><path fill="url(#tZyaKTDS7o8_pNaI64xDgv)" d="M24,7c5.93,0,10.49,2,11.34,4.47a6.81,6.81,0,0,1,.31,1.7h0c0,.38-.28,1.4-.42,1.39s-.09.23-.14.25,0,0,0,0c-.36.26-.72.61-1.08.92-.19.16-.38.34-.56.52a6.83,6.83,0,0,1-.9.84,2.23,2.23,0,0,1-.63.29,4,4,0,0,1-.62.12,12.55,12.55,0,0,0-1.67.22,3.4,3.4,0,0,0-.53.19,5.39,5.39,0,0,0-.82.48c-.24.16-.47.33-.72.46l-.27.13a6.3,6.3,0,0,1-2,.38l-.41,0c-.38,0-.76,0-1.14,0h0a5.86,5.86,0,0,1-3-.62,5.29,5.29,0,0,1-.46-.31,7.73,7.73,0,0,0-1.07-.73L19,17.74a3.53,3.53,0,0,0-1.42-.2l-.81,0H16a1.71,1.71,0,0,1-1.3-.59,2.47,2.47,0,0,1-.19-.49,2,2,0,0,0-.64-1.13,2.17,2.17,0,0,0-.6-.23,5.18,5.18,0,0,1-.69-.22l-.15-.07s-.06-.13-.13-.13-.06-.06-.08-.06,0,0,0,0l.23-2.42h0c0-.06.05-.34.06-.4C12.71,9.77,17.18,7,24,7Z"/><path fill="url(#tZyaKTDS7o8_pNaI64xDgw)" d="M24,7c6,0,10.58,2.08,11.37,4.54a7.91,7.91,0,0,1,.3,1.71h0c0,.42-.34,1.33-.49,1.32s-.1.21-.16.23,0,0,0,0a13.07,13.07,0,0,0-1.05.9c-.19.16-.37.33-.54.51a6.17,6.17,0,0,1-.9.83,2.2,2.2,0,0,1-.64.28,4.27,4.27,0,0,1-.62.11,11,11,0,0,0-1.66.23,3.44,3.44,0,0,0-.53.19,5.63,5.63,0,0,0-.81.48,8.15,8.15,0,0,1-.72.46l-.26.13a6.39,6.39,0,0,1-2,.37l-.41,0c-.37,0-.75,0-1.13,0h0a5.76,5.76,0,0,1-3-.63,5.42,5.42,0,0,1-.46-.31,7.23,7.23,0,0,0-1.06-.72L19,17.66a3.56,3.56,0,0,0-1.41-.2l-.81,0h-.73a1.7,1.7,0,0,1-1.3-.57,2.48,2.48,0,0,1-.19-.48,2.11,2.11,0,0,0-.63-1.14,2.06,2.06,0,0,0-.59-.25c-.29-.08-.52-.14-.69-.21l-.15-.07s-.07-.11-.15-.11-.07-.05-.09-.05a.09.09,0,0,1-.05,0l.23-2.42h0c0-.06.06-.34.07-.4C12.69,9.84,17.1,7,24,7Z"/><path fill="url(#tZyaKTDS7o8_pNaI64xDgx)" d="M24,7c6.08,0,10.67,2.13,11.39,4.61a9.37,9.37,0,0,1,.28,1.73h0c-.05.46-.39,1.26-.56,1.25s-.11.18-.18.2,0,0,0,0a10.52,10.52,0,0,0-1,.89c-.18.16-.36.33-.53.5a5.62,5.62,0,0,1-.9.83,2.18,2.18,0,0,1-.64.26,4.63,4.63,0,0,1-.62.1,9.74,9.74,0,0,0-1.66.23,3.48,3.48,0,0,0-.53.2,5.91,5.91,0,0,0-.81.49,7.68,7.68,0,0,1-.71.46l-.26.12a6.49,6.49,0,0,1-2,.37l-.41,0c-.37,0-.75,0-1.13,0h0a5.65,5.65,0,0,1-3-.64c-.16-.1-.31-.2-.46-.31a6.77,6.77,0,0,0-1.06-.72L19,17.58a3.59,3.59,0,0,0-1.4-.2l-.8,0h-.72a1.69,1.69,0,0,1-1.29-.55,2.49,2.49,0,0,1-.19-.48A2.19,2.19,0,0,0,14,15.25a2,2,0,0,0-.59-.26c-.29-.09-.52-.14-.7-.2l-.15-.06s-.08-.1-.16-.1-.07,0-.1,0a.11.11,0,0,1-.06,0l.23-2.41h0s.06-.35.07-.4C12.67,9.9,17,7,24,7Z"/><path fill="url(#tZyaKTDS7o8_pNaI64xDgy)" d="M24,7c6.15,0,10.75,2.17,11.42,4.67a11.43,11.43,0,0,1,.26,1.75h0c-.06.51-.45,1.19-.63,1.17s-.13.15-.2.18l0,0a8.69,8.69,0,0,0-1,.87c-.18.16-.35.32-.51.49a5.15,5.15,0,0,1-.9.82,2.16,2.16,0,0,1-.64.25,5.07,5.07,0,0,1-.62.09,8.75,8.75,0,0,0-1.65.24,3.53,3.53,0,0,0-.53.2,6.21,6.21,0,0,0-.81.49,7.27,7.27,0,0,1-.71.46l-.26.12a6.64,6.64,0,0,1-2,.36l-.41,0c-.37,0-.75,0-1.13,0h0a5.57,5.57,0,0,1-3-.65c-.16-.1-.31-.2-.45-.31a6.36,6.36,0,0,0-1-.71L19,17.51a3.63,3.63,0,0,0-1.39-.2l-.8,0H16.1c-.37,0-1-.12-1.29-.53a2.5,2.5,0,0,1-.19-.48A2.27,2.27,0,0,0,14,15.19a1.87,1.87,0,0,0-.58-.28c-.29-.09-.53-.13-.7-.19l-.16-.05a.39.39,0,0,0-.18-.08s-.08,0-.11,0a.14.14,0,0,1-.07,0l.23-2.41h0s.07-.36.07-.4C12.65,10,16.95,7,24,7Z"/><path fill="url(#tZyaKTDS7o8_pNaI64xDgz)" d="M24,7c6.23,0,10.84,2.21,11.44,4.74a14.53,14.53,0,0,1,.25,1.77h0c-.06.55-.5,1.11-.7,1.1s-.14.12-.22.15l0,0a7.3,7.3,0,0,0-1,.85c-.17.15-.34.32-.5.48a4.71,4.71,0,0,1-.9.81,2.13,2.13,0,0,1-.64.23,5.52,5.52,0,0,1-.62.09,8,8,0,0,0-1.64.24,3.57,3.57,0,0,0-.53.21,6.54,6.54,0,0,0-.8.49,6.88,6.88,0,0,1-.71.45l-.26.12a6.74,6.74,0,0,1-2,.35l-.4,0c-.37,0-.75,0-1.12,0h0a5.47,5.47,0,0,1-3-.66c-.16-.1-.31-.21-.45-.32a6,6,0,0,0-1-.7L19,17.43a3.67,3.67,0,0,0-1.38-.2l-.8,0-.52,0h-.19c-.36,0-1-.1-1.29-.51a2.51,2.51,0,0,1-.19-.48A2.36,2.36,0,0,0,14,15.14a1.79,1.79,0,0,0-.57-.3c-.29-.1-.53-.13-.7-.18l-.16,0a.5.5,0,0,0-.2-.07s-.09,0-.13,0l-.07,0,.23-2.4h0s.07-.37.08-.4C12.63,10,16.87,7,24,7Z"/><path fill="url(#tZyaKTDS7o8_pNaI64xDgA)" d="M24,7c6.3,0,10.93,2.26,11.47,4.81.05.09.23,1.69.23,1.79h0c-.07.59-.55,1-.77,1s-.16.1-.24.13l0,0a6.23,6.23,0,0,0-.95.84c-.17.15-.33.31-.49.48a4.35,4.35,0,0,1-.91.8,2.11,2.11,0,0,1-.64.21,6.18,6.18,0,0,1-.62.08,7.31,7.31,0,0,0-1.64.25,3.61,3.61,0,0,0-.52.22,6.91,6.91,0,0,0-.8.49,6.54,6.54,0,0,1-.71.45l-.26.12a6.85,6.85,0,0,1-2,.34l-.4,0c-.37,0-.74,0-1.12,0h0a5.37,5.37,0,0,1-3-.67c-.16-.1-.3-.21-.45-.32a5.65,5.65,0,0,0-1-.69L19,17.35a3.7,3.7,0,0,0-1.38-.21l-.79,0-.52,0h-.18c-.35,0-1-.09-1.28-.49a2.53,2.53,0,0,1-.19-.48,2.45,2.45,0,0,0-.61-1.15,1.71,1.71,0,0,0-.56-.31,4.65,4.65,0,0,0-.7-.16l-.16,0a.7.7,0,0,0-.21-.05l-.14,0-.08,0,.23-2.4h0s.08-.37.08-.4C12.61,10.1,16.79,7,24,7Z"/><path fill="url(#tZyaKTDS7o8_pNaI64xDgB)" d="M24,7c6.38,0,11,2.3,11.5,4.87,0,.06.21,1.74.21,1.8h0a1,1,0,0,1-.83,1c-.09,0-.17.07-.26.1l0,0a5.37,5.37,0,0,0-.92.82c-.16.15-.32.31-.47.47a4,4,0,0,1-.91.8,2.1,2.1,0,0,1-.64.2c-.2,0-.41.05-.62.07a6.72,6.72,0,0,0-1.63.25,3.65,3.65,0,0,0-.52.22,7.33,7.33,0,0,0-.79.49,6.22,6.22,0,0,1-.71.45l-.26.11a7,7,0,0,1-2,.33l-.4,0c-.37,0-.74,0-1.11,0h0a5.27,5.27,0,0,1-3-.68c-.16-.1-.3-.21-.44-.32a5.34,5.34,0,0,0-1-.68L19,17.27a3.75,3.75,0,0,0-1.37-.21l-.79,0-.51,0h-.18c-.33,0-1-.07-1.28-.47a2.55,2.55,0,0,1-.18-.48A2.55,2.55,0,0,0,14.1,15a1.64,1.64,0,0,0-.55-.33,3.38,3.38,0,0,0-.71-.15l-.16,0a1.09,1.09,0,0,0-.23,0l-.15,0h-.08l.23-2.39h0s.08-.38.08-.4C12.59,10.17,16.71,7,24,7Z"/><path fill="url(#tZyaKTDS7o8_pNaI64xDgC)" d="M24,7c6.45,0,11.11,2.35,11.52,4.94,0,0,.19,1.79.19,1.82h0a1,1,0,0,1-.9.88.64.64,0,0,0-.28.08l0,0a4.66,4.66,0,0,0-.89.81c-.16.15-.31.3-.46.46a3.77,3.77,0,0,1-.91.79,2.1,2.1,0,0,1-.65.18c-.2,0-.41,0-.62.06a6.22,6.22,0,0,0-1.63.26,3.7,3.7,0,0,0-.52.23A7.8,7.8,0,0,0,28,18a5.92,5.92,0,0,1-.7.44l-.26.11a7.09,7.09,0,0,1-2,.32l-.4,0c-.37,0-.74,0-1.11,0h0a5.18,5.18,0,0,1-3-.69c-.16-.1-.3-.21-.44-.32a5.08,5.08,0,0,0-1-.67L19,17.19A3.79,3.79,0,0,0,17.67,17l-.78,0-.51,0H16.2c-.32,0-1-.06-1.28-.45a2.56,2.56,0,0,1-.18-.48,2.66,2.66,0,0,0-.6-1.15,1.57,1.57,0,0,0-.54-.34,2.66,2.66,0,0,0-.71-.14l-.17,0-.25,0h-.25L12.45,12h0l.09-.4C12.57,10.23,16.63,7,24,7Z"/><path fill="url(#tZyaKTDS7o8_pNaI64xDgD)" d="M23.59,18.87a5,5,0,0,1-2.95-.7c-.16-.1-.3-.21-.44-.32a5,5,0,0,0-1-.67,3.69,3.69,0,0,0-1.5-.27c-.26,0-.52,0-.78,0l-.5,0h-.18c-.3,0-1,0-1.27-.43a2.62,2.62,0,0,1-.18-.48,2.12,2.12,0,0,0-1.13-1.51,2.35,2.35,0,0,0-.71-.13h-.17l-.53,0L12.45,12l.09-.4C12.55,10.3,16.56,7,24,7c6.53,0,11.2,2.39,11.55,5l.18,1.84a.9.9,0,0,1-1,.81c-.48,0-.84.51-1.21.86-.15.14-.3.3-.44.45a3.56,3.56,0,0,1-.91.78,3.59,3.59,0,0,1-1.27.22,5.78,5.78,0,0,0-1.62.26,5.65,5.65,0,0,0-1.3.73,5.9,5.9,0,0,1-.7.44,6.2,6.2,0,0,1-2.21.42c-.49,0-1,.06-1.5.06Z"/><path fill="url(#tZyaKTDS7o8_pNaI64xDgE)" d="M24,14.89c-5.86,0-10.65-1.38-11-3.13a1.07,1.07,0,0,0,0,.23c0,1.86,5,3.37,11.08,3.37S35.06,13.86,35.06,12a1.07,1.07,0,0,0,0-.23C34.62,13.51,29.83,14.89,24,14.89Z"/><path fill="url(#tZyaKTDS7o8_pNaI64xDga)" d="M18.46,8.3a23.31,23.31,0,0,1,3-.63,15,15,0,0,1,4-.18c.37,0,1.7.18,1.24.59-.63.56-1.94,0-2.7.11a8.87,8.87,0,0,0-3.3,1.19,15.29,15.29,0,0,1-5,1.59c-.44.06-1,.08-1.22-.24a.69.69,0,0,1,.13-.86,2.48,2.48,0,0,1,.88-.53A24.74,24.74,0,0,1,18.46,8.3Z"/><path fill="url(#tZyaKTDS7o8_pNaI64xDgF)" d="M28.34,12.21a1,1,0,0,0,.51-.47c.15-.33,0-.73.16-1.07a1.2,1.2,0,0,1,.86-.73,3.31,3.31,0,0,1,1.17,0,3.82,3.82,0,0,1,1.42.35,1.41,1.41,0,0,1,.8,1.16,1.41,1.41,0,0,1-.71,1.14,3.92,3.92,0,0,1-1.33.45,44.9,44.9,0,0,1-8.86.88c-.25,0-.56,0-.66-.27a.45.45,0,0,1,.23-.53c.67-.38,1.85-.19,2.6-.25,1-.09,2.07-.24,3.09-.42A2.94,2.94,0,0,0,28.34,12.21Z"/><path fill="url(#tZyaKTDS7o8_pNaI64xDgG)" d="M8.82,31.22l0,.1A3.06,3.06,0,0,0,10.59,33a.65.65,0,0,0,.63,0,.49.49,0,0,0,.09-.59,1.64,1.64,0,0,0-.42-.48,3.56,3.56,0,0,1-1-1.33,2,2,0,0,1,.18-1.68c.23-.51,0-1-.61-.66a1.38,1.38,0,0,0-.57.69A3.07,3.07,0,0,0,8.82,31.22Z"/></svg>