<svg xmlns="http://www.w3.org/2000/svg" xmlns:xlink="http://www.w3.org/1999/xlink" viewBox="0 0 48 48"><defs><radialGradient id="LegwTOmknU_rungHMQD3He" cx="30.178" cy="12.583" r="41.179" gradientTransform="matrix(.98564 .16889 -.12801 .74711 2.044 -1.912)" gradientUnits="userSpaceOnUse"><stop offset="0" stop-color="#4eb5ce"/><stop offset="1" stop-color="#0e425c"/></radialGradient><linearGradient id="LegwTOmknU_rungHMQD3Hc" x1="7.514" x2="34.672" y1="28.494" y2="19.561" gradientUnits="userSpaceOnUse"><stop offset="0" stop-color="#ff9e4d"/><stop offset=".621" stop-color="#febd5c"/><stop offset="1" stop-color="#fecb62"/></linearGradient><linearGradient id="LegwTOmknU_rungHMQD3Hf" x1="4.676" x2="39.254" y1="18.7" y2="18.7" gradientUnits="userSpaceOnUse"><stop offset="0" stop-color="#fec58e"/><stop offset=".332" stop-color="#ffcda2"/><stop offset=".694" stop-color="#ffd2b0"/><stop offset="1" stop-color="#ffd4b5"/></linearGradient><radialGradient id="LegwTOmknU_rungHMQD3Ha" cx="28.188" cy="18.172" r="3.542" gradientTransform="matrix(.92 .392 -.217 .51 9.419 -2.244)" gradientUnits="userSpaceOnUse"><stop offset="0" stop-color="#fa8039" stop-opacity=".8"/><stop offset=".042" stop-color="#fa8039" stop-opacity=".759"/><stop offset=".391" stop-color="#fa8039" stop-opacity=".437"/><stop offset=".678" stop-color="#fa8039" stop-opacity=".201"/><stop offset=".888" stop-color="#fa8039" stop-opacity=".055"/><stop offset="1" stop-color="#fa8039" stop-opacity="0"/></radialGradient><radialGradient id="LegwTOmknU_rungHMQD3Hg" cx="28.188" cy="18.173" r="2.939" gradientTransform="matrix(0 1 -.554 0 41.483 -10.119)" xlink:href="#LegwTOmknU_rungHMQD3Ha"/><linearGradient id="LegwTOmknU_rungHMQD3Hb" x1="33.35" x2="38.696" y1="11.001" y2="14.867" gradientUnits="userSpaceOnUse"><stop offset="0" stop-color="#dfe5f0"/><stop offset=".047" stop-color="#dce2ed"/><stop offset=".669" stop-color="#b8beca"/><stop offset="1" stop-color="#aab0bc"/></linearGradient><linearGradient id="LegwTOmknU_rungHMQD3Hh" x1="34.064" x2="35.449" y1="11.007" y2="11.962" gradientUnits="userSpaceOnUse"><stop offset="0" stop-color="#dfe5f0"/><stop offset=".175" stop-color="#dfe5f0" stop-opacity=".791"/><stop offset=".475" stop-color="#dfe5f0" stop-opacity=".456"/><stop offset=".722" stop-color="#dfe5f0" stop-opacity=".21"/><stop offset=".904" stop-color="#dfe5f0" stop-opacity=".058"/><stop offset="1" stop-color="#dfe5f0" stop-opacity="0"/></linearGradient><linearGradient id="LegwTOmknU_rungHMQD3Hi" x1="26.506" x2="30.04" y1="23.611" y2="18.788" gradientUnits="userSpaceOnUse"><stop offset="0" stop-color="#aab0bc"/><stop offset=".359" stop-color="#aab0bc" stop-opacity=".581"/><stop offset=".661" stop-color="#aab0bc" stop-opacity=".267"/><stop offset=".883" stop-color="#aab0bc" stop-opacity=".074"/><stop offset="1" stop-color="#aab0bc" stop-opacity="0"/></linearGradient><linearGradient id="LegwTOmknU_rungHMQD3Hj" x1="18.239" x2="28.014" y1="23.505" y2="33.705" xlink:href="#LegwTOmknU_rungHMQD3Hb"/><linearGradient id="LegwTOmknU_rungHMQD3Hk" x1="19.38" x2="27.791" y1="34.767" y2="22.924" xlink:href="#LegwTOmknU_rungHMQD3Hb"/><linearGradient id="LegwTOmknU_rungHMQD3Hl" x1="9.013" x2="37.23" y1="33.995" y2="22.636" xlink:href="#LegwTOmknU_rungHMQD3Hc"/><radialGradient id="LegwTOmknU_rungHMQD3Hm" cx="31.368" cy="18.152" r="3.461" gradientTransform="matrix(.90292 .4298 -.23811 .50022 7.371 -4.418)" xlink:href="#LegwTOmknU_rungHMQD3Ha"/><radialGradient id="LegwTOmknU_rungHMQD3Hn" cx="31.364" cy="18.211" r="2.803" gradientTransform="matrix(.90292 .4298 -.23811 .50022 7.385 -4.387)" xlink:href="#LegwTOmknU_rungHMQD3Ha"/><radialGradient id="LegwTOmknU_rungHMQD3Ho" cx="16.807" cy="20.259" r="38.802" gradientTransform="matrix(1 0 0 1.856 0 -17.348)" gradientUnits="userSpaceOnUse"><stop offset="0" stop-color="#de5326" stop-opacity="0"/><stop offset=".103" stop-color="#de5326" stop-opacity=".062"/><stop offset=".296" stop-color="#de5326" stop-opacity=".227"/><stop offset=".559" stop-color="#de5326" stop-opacity=".493"/><stop offset=".88" stop-color="#de5326" stop-opacity=".855"/><stop offset="1" stop-color="#de5326"/></radialGradient><radialGradient id="LegwTOmknU_rungHMQD3Hp" cx="8.196" cy="27.291" r="38.785" gradientTransform="matrix(1 -.014 .007 .538 -.203 12.733)" gradientUnits="userSpaceOnUse"><stop offset="0" stop-color="#52bed6"/><stop offset="1" stop-color="#2984a3"/></radialGradient><linearGradient id="LegwTOmknU_rungHMQD3Hq" x1="3.169" x2="41.393" y1="26.233" y2="26.233" gradientUnits="userSpaceOnUse"><stop offset="0" stop-color="#399ab6"/><stop offset="1" stop-color="#1e7396"/></linearGradient><linearGradient id="LegwTOmknU_rungHMQD3Hr" x1="8.338" x2="31.428" y1="13.917" y2="33.292" gradientUnits="userSpaceOnUse"><stop offset="0" stop-color="#2882a0"/><stop offset=".947" stop-color="#3d9fba"/><stop offset="1" stop-color="#3ea1bc"/></linearGradient><linearGradient id="LegwTOmknU_rungHMQD3Hd" x1="6.813" x2="33.703" y1="13.11" y2="13.11" gradientUnits="userSpaceOnUse"><stop offset="0" stop-color="#6ccce0"/><stop offset="1" stop-color="#6fd9ef"/></linearGradient><linearGradient id="LegwTOmknU_rungHMQD3Hs" x1="35.067" x2="39.808" y1="18.977" y2="18.977" xlink:href="#LegwTOmknU_rungHMQD3Hd"/><linearGradient id="LegwTOmknU_rungHMQD3Ht" x1="22.044" x2="22.793" y1="31.537" y2="-2.388" gradientUnits="userSpaceOnUse"><stop offset="0" stop-color="#97ebfa"/><stop offset="1" stop-color="#42a6c1"/></linearGradient><linearGradient id="LegwTOmknU_rungHMQD3Hu" x1="34.976" x2="36.027" y1="14.793" y2="15.931" gradientUnits="userSpaceOnUse"><stop offset="0" stop-color="#2984a3"/><stop offset=".995" stop-color="#2984a3" stop-opacity="0"/></linearGradient></defs><g data-name="Bowl with spoon"><path fill="url(#LegwTOmknU_rungHMQD3He)" d="M34.089,27.822c-6.8,3.791-17.593,3.682-24.115-.244s-6.291-10.18.5-13.959,17.593-3.682,24.115.243S40.879,24.03,34.089,27.822Z"/><path fill="url(#LegwTOmknU_rungHMQD3Hc)" d="M33.979,30.736a21.767,21.767,0,0,1-8,2.584,24.327,24.327,0,0,1-3.523.281,24.9,24.9,0,0,1-12.119-2.646,3.586,3.586,0,0,1-.426-.219c-6.669-3.853-6.706-10.1-.086-13.948a23.342,23.342,0,0,1,10.156-2.816,25.285,25.285,0,0,1,13.923,2.816C40.575,20.641,40.611,26.883,33.979,30.736Z"/><path fill="url(#LegwTOmknU_rungHMQD3Hf)" d="M4.93,22.605a8,8,0,0,1,2.7-4.445,15.267,15.267,0,0,1,4.509-2.716,26.831,26.831,0,0,1,10.329-1.805,24.66,24.66,0,0,1,10.273,2.2,13.722,13.722,0,0,1,4.318,3.079,7.044,7.044,0,0,1,2,4.847l-.259,0a6.946,6.946,0,0,0-2.116-4.5,14.491,14.491,0,0,0-4.207-2.87,25.832,25.832,0,0,0-10.02-2.2,26.331,26.331,0,0,0-10.165,1.634A16.184,16.184,0,0,0,7.831,18.39a7.783,7.783,0,0,0-2.773,4.24Z"/><path fill="url(#LegwTOmknU_rungHMQD3Ha)" d="M32.321,19.765a3.87,3.87,0,0,1-1.495-.33,3.73,3.73,0,0,1-1.41-1,1.309,1.309,0,0,1-.324-1.349,1.408,1.408,0,0,1,1.4-.711,3.866,3.866,0,0,1,1.493.329c1.32.563,2.065,1.574,1.734,2.351A1.405,1.405,0,0,1,32.321,19.765Z" opacity=".5"/><ellipse cx="31.407" cy="18.069" fill="url(#LegwTOmknU_rungHMQD3Hg)" opacity=".5" rx="1.119" ry="2.15" transform="rotate(-66.938 31.407 18.07)"/><path fill="url(#LegwTOmknU_rungHMQD3Hb)" d="M42.915,5.255l-1.658,2.39a32.443,32.443,0,0,1-2.3,2.865c-.549.585-1.28,1.45-2.109,2.487-.219.268-.439.548-.658.829-.732.926-1.512,1.95-2.292,3.023a78.33,78.33,0,0,0-4.621,6.913,2.387,2.387,0,0,0-.159.28c-.061.1-.109.183-.158.269a3.3,3.3,0,0,0-.914-.768,3.757,3.757,0,0,0-1.025-.4c.147-.183.3-.378.476-.6.037-.061.1-.134.146-.207a.012.012,0,0,0,.012-.013c2.792-3.767,7.328-11.594,9.034-14.41,1.281-2.121,3.341-4.877,3.341-4.877.695-1,1.987-2.341,2.865-1.841l-.037.939c.074,0,.183-.792.256-.792a2.377,2.377,0,0,1,.256.256.041.041,0,0,1,.013.024C43.891,2.353,44.061,3.719,42.915,5.255Z"/><path fill="#d0d6e3" d="M42.856,1.11a2.253,2.253,0,0,0-2.835.906S37.967,4.764,36.68,6.887C34.841,9.921,29.707,18.8,27.023,22.118a3.651,3.651,0,0,1,1.015.4,3.4,3.4,0,0,1,.92.769,94.8,94.8,0,0,1,10-13.8,31.6,31.6,0,0,0,2.3-2.855L43.084,3.98a2.06,2.06,0,0,0-.013-2.72,1.482,1.482,0,0,0-.215-.15Z"/><path fill="url(#LegwTOmknU_rungHMQD3Hh)" d="M42.856,1.11a2.253,2.253,0,0,0-2.835.906S37.967,4.764,36.68,6.887C34.841,9.921,29.707,18.8,27.023,22.118a3.651,3.651,0,0,1,1.015.4,3.4,3.4,0,0,1,.92.769,94.8,94.8,0,0,1,10-13.8,31.6,31.6,0,0,0,2.3-2.855L43.084,3.98a2.06,2.06,0,0,0-.013-2.72,1.482,1.482,0,0,0-.215-.15Z"/><path fill="url(#LegwTOmknU_rungHMQD3Hi)" d="M42.856,1.11a2.253,2.253,0,0,0-2.835.906S37.967,4.764,36.68,6.887C34.841,9.921,29.707,18.8,27.023,22.118a3.651,3.651,0,0,1,1.015.4,3.4,3.4,0,0,1,.92.769,94.8,94.8,0,0,1,10-13.8,31.6,31.6,0,0,0,2.3-2.855L43.084,3.98a2.06,2.06,0,0,0-.013-2.72,1.482,1.482,0,0,0-.215-.15Z"/><path fill="url(#LegwTOmknU_rungHMQD3Hj)" d="M28.184,32.481c-1.8,2.3-5.245,3.967-7.624,3.776a3.155,3.155,0,0,1-1.59-.634,2.994,2.994,0,0,1-1.122-2.053v-.045a11.874,11.874,0,0,1,2.188-7.878c2.121-3.064,5.006-3.984,6.992-3.524a3.7,3.7,0,0,1,1.01.393,3.253,3.253,0,0,1,.92.774C30.877,25.748,29.833,30.371,28.184,32.481Z"/><path fill="url(#LegwTOmknU_rungHMQD3Hk)" d="M29.114,24.042a2.615,2.615,0,0,0-.4-.646,2.9,2.9,0,0,0-.78-.646,2.416,2.416,0,0,0-.439-.207,1.99,1.99,0,0,0-.439-.134,3.59,3.59,0,0,0-.9-.11A7.331,7.331,0,0,0,20.3,25.664a15.088,15.088,0,0,0-2.085,4.645,5.486,5.486,0,0,0-.171.707,8.351,8.351,0,0,0-.2,2.512v.036a2.987,2.987,0,0,0,1.122,2.06,2.552,2.552,0,0,0,1.585.476,8.069,8.069,0,0,0,3.56-1.67,17.4,17.4,0,0,0,3.6-3.609,5.187,5.187,0,0,0,.317-.427,4.6,4.6,0,0,0,.293-.451A6.379,6.379,0,0,0,29.114,24.042Z"/><path fill="url(#LegwTOmknU_rungHMQD3Hl)" d="M30.187,34.686H16.533l-1.049-8.839,9.449-7.425,4.645-1.914.134-.061a.625.625,0,0,0-.134.573c.122.488.865,1.244,3.767,1.963.122.024.244.061.378.085.183.049.378.086.585.134C40.367,20.47,30.187,34.686,30.187,34.686Z"/><path fill="url(#LegwTOmknU_rungHMQD3Hm)" d="M33.723,19.068l-.061.1a1.457,1.457,0,0,1-1.329.6,3.721,3.721,0,0,1-1.512-.341c-1.316-.549-2.06-1.561-1.731-2.341a1.307,1.307,0,0,1,.232-.317l.322-.224s-.152.126-.066.48c.122.488.865,1.244,3.767,1.963C33.467,19.007,33.589,19.044,33.723,19.068Z" opacity=".5"/><path fill="url(#LegwTOmknU_rungHMQD3Hn)" d="M33.345,18.983c-.3.512-1.329.561-2.377.11-1.086-.464-1.78-1.293-1.537-1.866a.815.815,0,0,1,.147-.207C29.7,17.508,30.443,18.264,33.345,18.983Z" opacity=".5"/><path fill="url(#LegwTOmknU_rungHMQD3Ho)" d="M21.357,32.341c-1.158.183,2.283,1.247,1.1,1.26-4.353-.537-9.693-1.488-12.119-2.646a3.586,3.586,0,0,1-.426-.219c-6.669-3.853-6.706-10.1-.086-13.948a23.342,23.342,0,0,1,10.156-2.816c-8.637,4.422-6.965,14.017-.93,17.028C19.833,31.39,20.589,31.89,21.357,32.341Z" opacity=".4"/><path fill="url(#LegwTOmknU_rungHMQD3Hp)" d="M34.393,35.429A19.564,19.564,0,0,1,21.775,39.44c-5.474-.121-11.082-2.413-14.337-6.827A18.493,18.493,0,0,1,3.951,22.031,11.881,11.881,0,0,1,4.024,20.4c-.171,2.755,1.524,5.535,5.072,7.669,6.986,4.206,18.555,4.328,25.834.268A10.506,10.506,0,0,0,40.545,20.4C41.368,25.19,38.49,32.174,34.393,35.429Z"/><path fill="url(#LegwTOmknU_rungHMQD3Hq)" d="M4.019,20.436a7.322,7.322,0,0,0,2.34,5.073,15.618,15.618,0,0,0,4.766,3.042,28.018,28.018,0,0,0,11.153,1.974,28.25,28.25,0,0,0,11.016-2.291,16.962,16.962,0,0,0,4.658-2.982A7.989,7.989,0,0,0,40.545,20.4a6.958,6.958,0,0,1-1.685,5.688,13.769,13.769,0,0,1-4.872,3.647,24,24,0,0,1-5.747,1.806,28.234,28.234,0,0,1-5.961.522A26.967,26.967,0,0,1,10.7,29.466a19.135,19.135,0,0,1-2.578-1.52,12.727,12.727,0,0,1-2.2-2.038A7.247,7.247,0,0,1,4.019,20.436Z"/><path fill="url(#LegwTOmknU_rungHMQD3Hr)" d="M37.483,25.169a12.679,12.679,0,0,1-4.121,3.274,21.29,21.29,0,0,1-4.975,1.873,27.641,27.641,0,0,1-10.61.47A19.363,19.363,0,0,1,7.9,26.75a8.226,8.226,0,0,1-2.861-4.629,6.172,6.172,0,0,1,1.425-5.064,6.4,6.4,0,0,0-.725,4.905,8.053,8.053,0,0,0,2.845,3.973,20.615,20.615,0,0,0,9.359,3.79,27.2,27.2,0,0,0,5.141.353,29.829,29.829,0,0,0,5.143-.5,24.517,24.517,0,0,0,4.936-1.545A13.6,13.6,0,0,0,37.483,25.169Z"/><path fill="url(#LegwTOmknU_rungHMQD3Hd)" d="M31.894,11.717c.512.2,1.012.4,1.512.646-.122.219-.256.439-.4.67s-.269.451-.415.683A22.54,22.54,0,0,0,26.518,11.9a29.936,29.936,0,0,0-10.059.073,18.766,18.766,0,0,0-9.18,4.072,13.007,13.007,0,0,1,4.072-3.2,21.867,21.867,0,0,1,4.9-1.865,27.851,27.851,0,0,1,9.534-.658c.622.073,1.256.158,1.865.256a19.51,19.51,0,0,1,2.475.561c.037.012.061.012.1.024.207.061.4.11.6.171C31.187,11.461,31.541,11.583,31.894,11.717Z"/><path fill="url(#LegwTOmknU_rungHMQD3Hs)" d="M38.392,23.9a6.344,6.344,0,0,0,.171-4.694,8.489,8.489,0,0,0-2.914-3.682,4.643,4.643,0,0,0-.5-.341c.147-.207.3-.414.476-.622a7.564,7.564,0,0,1,.475-.609c.171.122.342.244.5.378a11.881,11.881,0,0,1,1.878,2.023A7.737,7.737,0,0,1,39.611,18.9a5.927,5.927,0,0,1-1.255,5.108Z"/><path fill="url(#LegwTOmknU_rungHMQD3Ht)" d="M37.588,14.9h-.013a12.891,12.891,0,0,0-1.389-1.073c-.025.036-.061.085-.086.122a7.564,7.564,0,0,0-.475.609,11.266,11.266,0,0,1,1,.8h.012c2.853,2.572,3.438,5.73,1.755,8.534a11.179,11.179,0,0,1-4.3,3.926,19.816,19.816,0,0,1-4.524,1.8c-.414.11-.829.22-1.243.317a28.725,28.725,0,0,1-10.107.366,1,1,0,0,1-.2-.025,21.63,21.63,0,0,1-8.046-2.706c-5.255-3.17-6.121-7.851-2.707-11.521a.012.012,0,0,0,.012-.012,13.064,13.064,0,0,1,3.194-2.426c6.279-3.5,15.959-3.67,22.531-.586.146-.231.28-.451.4-.67.012-.012.024-.037.036-.049a23.588,23.588,0,0,0-2.621-.975c-.2-.061-.39-.11-.6-.171-.037-.012-.061-.012-.1-.024-.8-.22-1.633-.4-2.475-.561-.609-.1-1.243-.183-1.865-.256-5.632-.622-11.7.292-16.154,2.78C2.354,17.166,2.11,23.872,9.1,28.066a23.337,23.337,0,0,0,8.79,2.926c.049.012.11.012.158.024a31.332,31.332,0,0,0,9.668-.195c.525-.1,1.037-.207,1.549-.329h.012a22.424,22.424,0,0,0,5.657-2.158C41.379,24.737,42.306,19.08,37.588,14.9Z"/><path fill="url(#LegwTOmknU_rungHMQD3Hu)" d="M37.575,14.9l-.938.463h-.012l-.6.463L35.149,17.2l-1.043-.644c.78-1.073,1.348-1.807,2.08-2.733A12.891,12.891,0,0,1,37.575,14.9Z"/></g></svg>