<svg xmlns="http://www.w3.org/2000/svg" viewBox="0 0 48 48"><radialGradient id="z9bOGJl5ue9jAGx0SmWzda" cx="22.749" cy="18.342" r="38.017" gradientTransform="matrix(.8627 -.5781 .3001 .4366 -2.69 22.968)" gradientUnits="userSpaceOnUse"><stop offset=".005" stop-color="#f5f199"/><stop offset=".079" stop-color="#f4ee94"/><stop offset=".163" stop-color="#f1e787"/><stop offset=".252" stop-color="#eddb70"/><stop offset=".344" stop-color="#e7c950"/><stop offset=".36" stop-color="#e6c64a"/><stop offset=".503" stop-color="#d5a938"/><stop offset=".719" stop-color="#bf821f"/><stop offset=".892" stop-color="#b26b10"/><stop offset="1" stop-color="#ad620b"/></radialGradient><path fill="url(#z9bOGJl5ue9jAGx0SmWzda)" d="M32.942,35.368c-8.584,8.07-20.11,7.252-24.888,0.692C4.769,31.55,4.513,23.358,12,18.529 c4.051-2.613,8.47-4.35,11.396-6.552c4.941-3.717,10.708-7.735,16.013-3.059C44.868,13.729,42.188,26.676,32.942,35.368z"/><path fill="#cc9225" d="M20.229,19.432c0-0.418-0.339-0.757-0.757-0.757c-0.418,0-0.757,0.339-0.757,0.757 c0,0.418,0.339,0.757,0.757,0.757C19.89,20.189,20.229,19.85,20.229,19.432z" opacity=".68"/><path fill="#cc9225" d="M10.561,25.299c0-0.418-0.339-0.757-0.757-0.757s-0.757,0.339-0.757,0.757 c0,0.418,0.339,0.757,0.757,0.757S10.561,25.717,10.561,25.299z" opacity=".68"/><path fill="#a3530c" d="M34.099,23.785c-0.418,0-0.757,0.339-0.757,0.757c0,0.418,0.339,0.757,0.757,0.757 c0.418,0,0.757-0.339,0.757-0.757C34.856,24.124,34.517,23.785,34.099,23.785z" opacity=".68"/><path fill="#a3530c" d="M30.01,30.361c-0.418,0-0.757,0.339-0.757,0.757c0,0.418,0.339,0.757,0.757,0.757 c0.418,0,0.757-0.339,0.757-0.757C30.767,30.7,30.428,30.361,30.01,30.361z" opacity=".68"/><path fill="#a3530c" d="M20.986,35.561c-0.418,0-0.757,0.339-0.757,0.757c0,0.418,0.339,0.757,0.757,0.757 c0.418,0,0.757-0.339,0.757-0.757C21.743,35.9,21.404,35.561,20.986,35.561z" opacity=".68"/><path fill="#cc9225" d="M19.852,26.056c-0.418,0-0.757,0.339-0.757,0.757c0,0.418,0.339,0.757,0.757,0.757 c0.418,0,0.757-0.339,0.757-0.757C20.609,26.396,20.27,26.056,19.852,26.056z" opacity=".68"/><path fill="#a3530c" d="M11.369,31.878c-0.418,0-0.757,0.339-0.757,0.757s0.339,0.757,0.757,0.757 c0.418,0,0.757-0.339,0.757-0.757S11.787,31.878,11.369,31.878z" opacity=".68"/><path fill="#cc9225" d="M37.62,16.251c-0.418,0-0.757,0.339-0.757,0.757c0,0.418,0.339,0.757,0.757,0.757 c0.418,0,0.757-0.339,0.757-0.757C38.377,16.59,38.038,16.251,37.62,16.251z" opacity=".68"/><path fill="#cc9225" d="M33.342,10.335c-0.418,0-0.757,0.339-0.757,0.757s0.339,0.757,0.757,0.757 c0.418,0,0.757-0.339,0.757-0.757S33.76,10.335,33.342,10.335z" opacity=".68"/><path fill="#cc9225" d="M28.181,16.251c-0.418,0-0.757,0.339-0.757,0.757c0,0.418,0.339,0.757,0.757,0.757 c0.418,0,0.757-0.339,0.757-0.757C28.938,16.59,28.599,16.251,28.181,16.251z" opacity=".68"/></svg>