<svg xmlns="http://www.w3.org/2000/svg" viewBox="0 0 100 100"><path fill="#78a2d2" d="M69,82H31c-7.18,0-13-5.82-13-13V31c0-7.18,5.82-13,13-13h38c7.18,0,13,5.82,13,13v38	C82,76.18,76.18,82,69,82z"/><path fill="#fefdef" d="M66,77H34c-6.075,0-11-4.925-11-11V34c0-6.075,4.925-11,11-11h32c6.075,0,11,4.925,11,11v32	C77,72.075,72.075,77,66,77z"/><path fill="#1f212b" d="M65.9,77H34.1C27.979,77,23,72.021,23,65.9V34.1C23,27.98,27.979,23,34.1,23h26.4	c0.276,0,0.5,0.224,0.5,0.5S60.776,24,60.5,24H34.1C28.53,24,24,28.53,24,34.1v31.8C24,71.47,28.53,76,34.1,76h31.8	C71.47,76,76,71.47,76,65.9V51.5c0-0.276,0.224-0.5,0.5-0.5s0.5,0.224,0.5,0.5v14.4C77,72.021,72.021,77,65.9,77z"/><path fill="#1f212b" d="M76.5,42c-0.276,0-0.5-0.224-0.5-0.5v-2c0-0.276,0.224-0.5,0.5-0.5s0.5,0.224,0.5,0.5v2	C77,41.776,76.776,42,76.5,42z"/><path fill="#1f212b" d="M76.5,49c-0.276,0-0.5-0.224-0.5-0.5v-4c0-0.276,0.224-0.5,0.5-0.5s0.5,0.224,0.5,0.5v4	C77,48.776,76.776,49,76.5,49z"/><path fill="#1f212b" d="M69,83H31c-7.72,0-14-6.28-14-14V31c0-7.72,6.28-14,14-14h38c7.72,0,14,6.28,14,14v38	C83,76.72,76.72,83,69,83z M31,19c-6.617,0-12,5.383-12,12v38c0,6.617,5.383,12,12,12h38c6.617,0,12-5.383,12-12V31	c0-6.617-5.383-12-12-12H31z"/><path fill="#1f212b" d="M47,57.706c0-0.505,0.087-0.852,0.263-1.042c0.175-0.19,0.476-0.285,0.903-0.285	c0.853,0,1.28,0.354,1.28,1.061c0,1.036,0.42,1.995,1.261,2.879c0.841,0.885,2.19,1.326,4.048,1.326	c3.615,0,5.422-1.894,5.422-5.682v-0.72c0-1.692-0.471-2.955-1.412-3.788s-2.253-1.25-3.935-1.25c-0.653,0-0.979-0.353-0.979-1.06	c0-0.732,0.314-1.099,0.941-1.099c1.581,0,2.761-0.358,3.539-1.075s1.167-1.968,1.167-3.754c0-1.66-0.364-2.887-1.092-3.679	s-1.883-1.189-3.464-1.189c-1.757,0-2.999,0.409-3.727,1.227c-0.729,0.818-1.092,1.755-1.092,2.811c0,0.805-0.402,1.208-1.205,1.208	c-0.477,0-0.809-0.101-0.998-0.302c-0.188-0.202-0.282-0.578-0.282-1.132c0-0.608,0.113-1.229,0.339-1.863s0.589-1.286,1.092-1.958	c0.501-0.672,1.267-1.224,2.297-1.654c1.029-0.431,2.246-0.646,3.652-0.646c4.594,0,6.891,2.23,6.891,6.688	c0,1.636-0.282,2.996-0.847,4.078s-1.312,1.85-2.24,2.303c2.561,1.036,3.841,3.081,3.841,6.137v0.72	c0,2.753-0.722,4.773-2.165,6.061c-1.443,1.288-3.345,1.932-5.704,1.932c-2.485,0-4.405-0.644-5.76-1.932	C47.678,60.737,47,59.297,47,57.706z"/><path fill="#1f212b" d="M37.294,42.109c0-0.216,0.048-0.419,0.143-0.609c0.094-0.189,3.523-4.931,3.523-4.931	C41.237,36.19,41.551,36,41.904,36c0.277,0,0.529,0.089,0.756,0.266S43,36.671,43,36.949v25.837c0,0.304-0.126,0.545-0.378,0.721	c-0.252,0.177-0.542,0.266-0.869,0.266c-0.353,0-0.649-0.089-0.888-0.266c-0.24-0.177-0.359-0.417-0.359-0.721V40.288l-1.512,2.466	c-0.202,0.303-0.441,0.455-0.718,0.455c-0.278,0-0.51-0.107-0.699-0.322C37.389,42.672,37.294,42.412,37.294,42.109z"/></svg>