<svg xmlns="http://www.w3.org/2000/svg" viewBox="0 0 48 48"><radialGradient id="Xu6pT80~ZIiE~ZR~eYkVYa" cx="24" cy="24" r="18" fx="23.905" fy="16.289" gradientUnits="userSpaceOnUse"><stop offset="0" stop-color="#ffe16e"/><stop offset=".629" stop-color="#ffd426"/><stop offset=".72" stop-color="#fdcd23"/><stop offset=".854" stop-color="#f8b919"/><stop offset="1" stop-color="#f09c0c"/></radialGradient><circle cx="24" cy="24" r="18" fill="url(#Xu6pT80~ZIiE~ZR~eYkVYa)"/><radialGradient id="Xu6pT80~ZIiE~ZR~eYkVYb" cx="15" cy="29" r="6" gradientUnits="userSpaceOnUse"><stop offset="0" stop-color="#ff8400" stop-opacity=".5"/><stop offset=".999" stop-color="#ff8400" stop-opacity="0"/></radialGradient><circle cx="15" cy="29" r="6" fill="url(#Xu6pT80~ZIiE~ZR~eYkVYb)"/><circle cx="34.5" cy="21.5" r=".5" fill="#212121"/><path fill="#212121" d="M27.742,21.939c0,0,1.726-0.944,3.258-0.944s3.258,0.944,3.258,0.944l0.631-0.754 c0,0-1.765-2.185-3.889-2.185s-3.889,2.185-3.889,2.185L27.742,21.939z"/><circle cx="27.5" cy="21.5" r=".5" fill="#212121"/><radialGradient id="Xu6pT80~ZIiE~ZR~eYkVYc" cx="36.335" cy="30.39" r="8.698" gradientUnits="userSpaceOnUse"><stop offset="0" stop-color="#ff7666"/><stop offset=".126" stop-color="#fb6c59"/><stop offset=".714" stop-color="#ec4023"/><stop offset="1" stop-color="#e62f0e"/></radialGradient><path fill="url(#Xu6pT80~ZIiE~ZR~eYkVYc)" d="M42.182,27.364c-1.894,0-3.182,1.273-3.182,1.273s-1.281-1.273-3.182-1.273	c-2.109,0-3.818,1.709-3.818,3.818c0,3.818,7,7.636,7,7.636s7-3.818,7-7.636C46,29.073,44.291,27.364,42.182,27.364z"/><linearGradient id="Xu6pT80~ZIiE~ZR~eYkVYd" x1="23.434" x2="29.764" y1="31.5" y2="31.5" gradientUnits="userSpaceOnUse"><stop offset="0" stop-color="#965100" stop-opacity="0"/><stop offset="1" stop-color="#965100"/></linearGradient><path fill="url(#Xu6pT80~ZIiE~ZR~eYkVYd)" d="M28.986,31.5c0.612-0.456,1.014-1.178,1.014-2c0-1.381-1.119-2.5-2.5-2.5c-0.086,0-4,0-4,0	c-0.276,0-0.5,0.224-0.5,0.5c0,0.276,0.224,0.5,0.5,0.5h3c0.828,0,1.5,0.672,1.5,1.5S27.328,31,26.5,31h-1	c-0.276,0-0.5,0.224-0.5,0.5c0,0.276,0.224,0.5,0.5,0.5h1c0.828,0,1.5,0.672,1.5,1.5S27.328,35,26.5,35h-3	c-0.276,0-0.5,0.224-0.5,0.5c0,0.276,0.224,0.5,0.5,0.5c0,0,3.914,0,4,0c1.381,0,2.5-1.119,2.5-2.5	C30,32.678,29.598,31.956,28.986,31.5z"/><linearGradient id="Xu6pT80~ZIiE~ZR~eYkVYe" x1="25" x2="28" y1="29.5" y2="29.5" gradientUnits="userSpaceOnUse"><stop offset=".333" stop-color="#ffe16e" stop-opacity="0"/><stop offset="1" stop-color="#ffe16e"/></linearGradient><circle cx="26.5" cy="29.5" r="1.5" fill="url(#Xu6pT80~ZIiE~ZR~eYkVYe)"/><linearGradient id="Xu6pT80~ZIiE~ZR~eYkVYf" x1="25" x2="28" y1="33.5" y2="33.5" gradientUnits="userSpaceOnUse"><stop offset=".333" stop-color="#ffe16e" stop-opacity="0"/><stop offset="1" stop-color="#ffe16e"/></linearGradient><circle cx="26.5" cy="33.5" r="1.5" fill="url(#Xu6pT80~ZIiE~ZR~eYkVYf)"/><circle cx="18" cy="21" r="4" fill="#fff"/><circle cx="18" cy="21" r="2" fill="#212121"/></svg>