<svg xmlns="http://www.w3.org/2000/svg" viewBox="0 0 64 64"><path d="M55,58H9c-1.654,0-3-1.346-3-3V9c0-1.654,1.346-3,3-3h46c1.654,0,3,1.346,3,3v46C58,56.654,56.654,58,55,58z M9,8	C8.449,8,8,8.449,8,9v46c0,0.551,0.449,1,1,1h46c0.551,0,1-0.449,1-1V9c0-0.551-0.449-1-1-1C55,8,9,8,9,8z"/><path d="M49,52H15c-1.654,0-3-1.346-3-3v-4c0-0.552,0.448-1,1-1s1,0.448,1,1v4c0,0.551,0.449,1,1,1h34c0.551,0,1-0.449,1-1v-2	c0-0.552,0.448-1,1-1s1,0.448,1,1v2C52,50.654,50.654,52,49,52z M51,44c-0.552,0-1-0.448-1-1v-4c0-0.552,0.448-1,1-1s1,0.448,1,1v4	C52,43.552,51.552,44,51,44z M14,25h-2c-0.552,0-1-0.448-1-1s0.448-1,1-1h2c0.552,0,1,0.448,1,1S14.552,25,14,25z M14,30h-2	c-0.552,0-1-0.448-1-1s0.448-1,1-1h2c0.552,0,1,0.448,1,1S14.552,30,14,30z M14,35h-2c-0.552,0-1-0.448-1-1s0.448-1,1-1h2	c0.552,0,1,0.448,1,1S14.552,35,14,35z M14,40h-2c-0.552,0-1-0.448-1-1s0.448-1,1-1h2c0.552,0,1,0.448,1,1S14.552,40,14,40z M51,36	c-0.552,0-1-0.448-1-1V15c0-0.551-0.449-1-1-1H15c-0.551,0-1,0.449-1,1v4.5c0,0.552-0.448,1-1,1s-1-0.448-1-1V15	c0-1.654,1.346-3,3-3h34c1.654,0,3,1.346,3,3v20C52,35.552,51.552,36,51,36z"/><path fill="none" stroke="#000" stroke-miterlimit="10" stroke-width="2" d="M35,42h-6c-1.657,0-3-1.343-3-3v-9h9	c1.657,0,3,1.343,3,3v6C38,40.657,36.657,42,35,42z"/><path fill="none" stroke="#000" stroke-linecap="round" stroke-miterlimit="10" stroke-width="2" d="M26,33v-8	c0-1.657,1.343-3,3-3h5c1.657,0,3,1.343,3,3"/></svg>