<svg xmlns="http://www.w3.org/2000/svg" viewBox="0 0 48 48"><path fill="#bbdefb" d="M6,10c0-2.209,1.791-4,4-4h28c2.209,0,4,1.791,4,4v28c0,2.209-1.791,4-4,4H10c-2.209,0-4-1.791-4-4 V10z"/><path fill="#1976d2" d="M29.995 19c.828 0 1.1.266 1.306.538C31.758 20.14 32 21.195 32 22.59v2.832c0 1.402-.239 2.456-.688 3.045C31.105 28.737 30.836 29 30.014 29c-.837 0-1.11-.266-1.317-.539C28.241 27.861 28 26.811 28 25.422v-2.844c0-1.402.238-2.456.689-3.046C28.895 19.263 29.165 19 29.995 19M29.995 16c-1.59 0-2.819.57-3.69 1.711C25.434 18.852 25 20.475 25 22.578v2.844c0 2.09.436 3.707 1.309 4.855C27.183 31.426 28.418 32 30.014 32c1.583 0 2.809-.57 3.681-1.711C34.565 29.148 35 27.525 35 25.422V22.59c0-2.098-.438-3.719-1.31-4.867C32.816 16.574 31.584 16 29.995 16L29.995 16zM22.996 26.802c-.104-2.666-2.308-4.802-5-4.802-.705 0-1.366.132-1.963.373.247-1.9 1.876-3.373 3.843-3.373H21v-3h-1.125C16.084 16 13 19.084 13 22.875V27c0 1.365.568 2.687 1.558 3.627C15.497 31.518 16.709 32 17.996 32c.09 0 .18-.002.271-.007 2.591-.136 4.634-2.312 4.73-4.993L23 26.802H22.996zM18.11 28.997c-.546.037-1.083-.165-1.486-.546C16.222 28.069 16 27.554 16 27c0-1.178.821-2 1.996-2 1.073 0 1.952.846 2.002 1.905C19.949 28.016 19.121 28.944 18.11 28.997z"/></svg>