<svg xmlns="http://www.w3.org/2000/svg" viewBox="0 0 48 48"><linearGradient id="Yd6c~KM6J4fpoCJkR0Xn1a" x1="3" x2="45" y1="16.5" y2="16.5" gradientUnits="userSpaceOnUse"><stop offset="0" stop-color="#39393b"/><stop offset=".981" stop-color="#030302"/></linearGradient><path fill="url(#Yd6c~KM6J4fpoCJkR0Xn1a)" d="M45,30H3V4.372C3,3.614,3.614,3,4.372,3h39.255C44.386,3,45,3.614,45,4.372V30z"/><linearGradient id="Yd6c~KM6J4fpoCJkR0Xn1b" x1="27.636" x2="19.916" y1="26.704" y2="5.039" gradientUnits="userSpaceOnUse"><stop offset="0" stop-color="#00349c"/><stop offset="1" stop-color="#00b1f2"/></linearGradient><rect width="38" height="23" x="5" y="5" fill="url(#Yd6c~KM6J4fpoCJkR0Xn1b)"/><linearGradient id="Yd6c~KM6J4fpoCJkR0Xn1c" x1=".916" x2="47.084" y1="45.457" y2="45.457" gradientUnits="userSpaceOnUse"><stop offset="0" stop-color="#4b4d4d"/><stop offset="1" stop-color="#757877"/></linearGradient><path fill="url(#Yd6c~KM6J4fpoCJkR0Xn1c)" d="M42.942,46H5.058c-0.859,0-1.713-0.118-2.54-0.351l-1.602-0.734h46.168l-1.602,0.734	C44.656,45.882,43.801,46,42.942,46z"/><linearGradient id="Yd6c~KM6J4fpoCJkR0Xn1d" x1=".242" x2="47.758" y1="37.5" y2="37.5" gradientUnits="userSpaceOnUse"><stop offset="0" stop-color="#999"/><stop offset=".403" stop-color="#eee"/><stop offset="1" stop-color="#9b9b9b"/></linearGradient><path fill="url(#Yd6c~KM6J4fpoCJkR0Xn1d)" d="M46.654,45H1.346c-0.696,0-1.219-0.637-1.082-1.32L3,30h42l2.736,13.68	C47.873,44.363,47.35,45,46.654,45z"/><linearGradient id="Yd6c~KM6J4fpoCJkR0Xn1e" x1="23.989" x2="23.989" y1="44.383" y2="33.234" gradientUnits="userSpaceOnUse"><stop offset="0" stop-color="#45606a"/><stop offset="1" stop-color="#78949b"/></linearGradient><path fill="url(#Yd6c~KM6J4fpoCJkR0Xn1e)" d="M21,33h1v1h-2v-1H21z M14,33v1h2v-1h-1H14z M11,33v1h2v-1h-1H11z M23,33v1h2v-1h-1H23z M26,33	v1h2v-1h-1H26z M16,37h-1h-1v1h2V37z M13,37h-1h-1v1h2V37z M29,33v1h2v-1h-1H29z M8,33v1h2v-1H9H8z M12,36v-1h-1h-1v1H12z M8,37v1h2	v-1H9H8z M35,33v1h2v-1h-1H35z M18,35h-1h-1v1h2V35z M24,35h-1h-1v1h2V35z M21,35h-1h-1v1h2V35z M13,35v1h2v-1h-1H13z M41,38h3.58	l-0.175-1H41V38z M37,35v1h2v-1h-1H37z M32,33v1h2v-1h-1H32z M36,35h-1h-1v1h2V35z M31,37h-7h-7v1h14V37z M33,35h-1h-1v1h2V35z M27,35h-1h-1v1h2V35z M30,35h-1h-1v1h2V35z M17,33v1h2v-1h-1H17z M15,32v-1h-2v1H15z M21,32v-1h-2v1H21z M18,32v-1h-2v1H18z M24,32	v-1h-2v1H24z M30,32v-1h-2v1H30z M27,32v-1h-2v1H27z M9,31H4.628l-0.176,1H9V31z M9,35H8H7H3.926L3.75,36H9V35z M12,32v-1h-2v1H12z M33,32v-1h-2v1H33z M7,33H4.277l-0.175,1H7V33z M7,37H3.574l-0.176,1H7V37z M34,37h-1h-1v1h2V37z M37,37h-1h-1v1h2V37z M43.527,32	l-0.176-1H40v1H43.527z M39,32v-1h-2v1H39z M40,37h-1h-1v1h2V37z M36,32v-1h-2v1H36z M39,33h-1v1h5.878l-0.176-1H40H39z M40,36	h4.229l-0.176-1H40V36z"/><linearGradient id="Yd6c~KM6J4fpoCJkR0Xn1f" x1="24" x2="24" y1="27.25" y2="51.114" gradientUnits="userSpaceOnUse"><stop offset=".056" stop-color="#4c5251"/><stop offset="1" stop-color="#ccc"/></linearGradient><polygon fill="url(#Yd6c~KM6J4fpoCJkR0Xn1f)" points="30,44 18,44 18.489,39 29.564,39"/><linearGradient id="Yd6c~KM6J4fpoCJkR0Xn1g" x1=".65" x2="22.185" y1="4.511" y2="20.8" gradientUnits="userSpaceOnUse"><stop offset=".006" stop-color="#fff" stop-opacity=".5"/><stop offset=".952" stop-color="#fff" stop-opacity="0"/></linearGradient><path fill="url(#Yd6c~KM6J4fpoCJkR0Xn1g)" d="M30.001,3H4.372C3.614,3,3,3.614,3,4.372V30h7.595L30.001,3z"/><circle cx="24" cy="3.955" r=".394" fill="#757575"/></svg>