<svg xmlns="http://www.w3.org/2000/svg" viewBox="0 0 48 48"><radialGradient id="QsMRsfMicSOPPOXCULzxva" cx="25.402" cy="-651.631" r="7.709" gradientTransform="matrix(1 0 0 -1 0 -638)" gradientUnits="userSpaceOnUse"><stop offset="0" stop-color="#c9f5ff" stop-opacity=".1"/><stop offset=".363" stop-color="#a9e2fd" stop-opacity=".341"/><stop offset=".785" stop-color="#58b2f7" stop-opacity=".866"/><stop offset="1" stop-color="#168ad8"/></radialGradient><circle cx="26.479" cy="15.585" r="4.691" fill="url(#QsMRsfMicSOPPOXCULzxva)"/><radialGradient id="QsMRsfMicSOPPOXCULzxvb" cx="33.228" cy="-649.407" r="8.724" gradientTransform="matrix(1 0 0 -1 0 -638)" gradientUnits="userSpaceOnUse"><stop offset="0" stop-color="#c9f5ff" stop-opacity=".1"/><stop offset=".363" stop-color="#a9e2fd" stop-opacity=".341"/><stop offset=".785" stop-color="#58b2f7" stop-opacity=".866"/><stop offset="1" stop-color="#168ad8"/></radialGradient><circle cx="34.446" cy="13.618" r="5.309" fill="url(#QsMRsfMicSOPPOXCULzxvb)"/><radialGradient id="QsMRsfMicSOPPOXCULzxvc" cx="39.872" cy="-676.777" r="2.816" gradientTransform="matrix(1 0 0 -1 0 -638)" gradientUnits="userSpaceOnUse"><stop offset="0" stop-color="#c9f5ff" stop-opacity=".1"/><stop offset=".363" stop-color="#a9e2fd" stop-opacity=".341"/><stop offset=".785" stop-color="#58b2f7" stop-opacity=".866"/><stop offset="1" stop-color="#168ad8"/></radialGradient><circle cx="40.265" cy="39.49" r="1.714" fill="url(#QsMRsfMicSOPPOXCULzxvc)"/><radialGradient id="QsMRsfMicSOPPOXCULzxvd" cx="38.575" cy="-656.059" r="6.696" gradientTransform="matrix(1 0 0 -1 0 -638)" gradientUnits="userSpaceOnUse"><stop offset="0" stop-color="#c9f5ff" stop-opacity=".1"/><stop offset=".363" stop-color="#a9e2fd" stop-opacity=".341"/><stop offset=".785" stop-color="#58b2f7" stop-opacity=".866"/><stop offset="1" stop-color="#168ad8"/></radialGradient><circle cx="39.51" cy="19.756" r="4.075" fill="url(#QsMRsfMicSOPPOXCULzxvd)"/><radialGradient id="QsMRsfMicSOPPOXCULzxve" cx="23.274" cy="22.418" r="31.545" gradientTransform="matrix(.9859 -.1676 .081 .4763 -2.411 15.843)" gradientUnits="userSpaceOnUse"><stop offset="0" stop-color="#92f2ff"/><stop offset=".108" stop-color="#8beefd"/><stop offset=".263" stop-color="#78e4f7"/><stop offset=".447" stop-color="#59d2ed"/><stop offset=".651" stop-color="#2ebae0"/><stop offset=".778" stop-color="#0fa9d6"/><stop offset="1" stop-color="#0a9acb"/></radialGradient><path fill="url(#QsMRsfMicSOPPOXCULzxve)" d="M43.469,24.683c-2.079-8.754-12.067-10.099-21.313-8.527S3.928,22.298,4.859,31.247	c0.935,8.982,8.169,8.776,10.14,8.441c3.943-0.67,6.733-2.159,10.677-2.83s7.069-0.187,11.012-0.858	C38.66,35.665,45.556,33.469,43.469,24.683z"/><radialGradient id="QsMRsfMicSOPPOXCULzxvf" cx="305.461" cy="-636.693" r="2.564" gradientTransform="matrix(.7071 .7071 .7513 -.7512 290.06 -687.808)" gradientUnits="userSpaceOnUse"><stop offset=".337" stop-color="#c9f5ff" stop-opacity=".3"/><stop offset="1" stop-color="#42a5f5" stop-opacity=".7"/></radialGradient><circle cx="28.084" cy="6.841" r="2.084" fill="url(#QsMRsfMicSOPPOXCULzxvf)"/><radialGradient id="QsMRsfMicSOPPOXCULzxvg" cx="24.63" cy="24.068" r="16.816" gradientTransform="matrix(.9859 -.1676 .0775 .4556 -2.184 17.181)" gradientUnits="userSpaceOnUse"><stop offset="0" stop-color="#92f2ff"/><stop offset=".423" stop-color="#90f1fe"/><stop offset=".575" stop-color="#89ecfc"/><stop offset=".684" stop-color="#7ee5f7"/><stop offset=".771" stop-color="#6ddaf1"/><stop offset=".847" stop-color="#57cce8"/><stop offset=".913" stop-color="#3bbade"/><stop offset=".972" stop-color="#1ca6d2"/><stop offset="1" stop-color="#0a9acb"/></radialGradient><path fill="url(#QsMRsfMicSOPPOXCULzxvg)" d="M33.276,17.422c-3.203-1.052-6.968-0.958-10.952-0.28c-3.985,0.677-7.569,1.833-10.244,3.884	c-3.978,3.05-3.453,6.598,1.609,5.714c3.075-0.537,5.068-0.751,9.997-1.589c4.929-0.838,6.88-1.295,9.96-1.805	C38.716,22.508,38.038,18.986,33.276,17.422z"/><radialGradient id="QsMRsfMicSOPPOXCULzxvh" cx="27.846" cy="-670.869" r="12.15" gradientTransform="matrix(1 0 0 -1 0 -638)" gradientUnits="userSpaceOnUse"><stop offset="0" stop-color="#c9f5ff" stop-opacity=".1"/><stop offset=".363" stop-color="#a9e2fd" stop-opacity=".341"/><stop offset=".785" stop-color="#58b2f7" stop-opacity=".866"/><stop offset="1" stop-color="#168ad8"/></radialGradient><circle cx="29.542" cy="35.948" r="7.394" fill="url(#QsMRsfMicSOPPOXCULzxvh)"/><radialGradient id="QsMRsfMicSOPPOXCULzxvi" cx="32.92" cy="-675.847" r="12.15" gradientTransform="matrix(1 0 0 -1 0 -638)" gradientUnits="userSpaceOnUse"><stop offset="0" stop-color="#c9f5ff" stop-opacity="0"/><stop offset=".321" stop-color="#cbf5ff" stop-opacity=".079"/><stop offset=".5" stop-color="#d3f7ff" stop-opacity=".122"/><stop offset=".643" stop-color="#e1f9ff" stop-opacity=".157"/><stop offset=".767" stop-color="#f5fdff" stop-opacity=".188"/><stop offset=".817" stop-color="#fff" stop-opacity=".2"/><stop offset="1" stop-color="#fff" stop-opacity=".5"/></radialGradient><circle cx="29.542" cy="35.948" r="7.394" fill="url(#QsMRsfMicSOPPOXCULzxvi)"/><radialGradient id="QsMRsfMicSOPPOXCULzxvj" cx="-85.866" cy="-261.204" r="5.428" gradientTransform="matrix(.0944 .5865 -.6226 .1003 -127.922 109.816)" gradientUnits="userSpaceOnUse"><stop offset="0" stop-color="#fff" stop-opacity=".6"/><stop offset=".999" stop-color="#fff" stop-opacity="0"/></radialGradient><path fill="url(#QsMRsfMicSOPPOXCULzxvj)" d="M27.311,37.437c-2.288,0.369-4.437-1.155-4.799-3.402s1.2-4.368,3.488-4.736	c2.288-0.369,4.437,1.155,4.799,3.402S29.599,37.068,27.311,37.437z"/><radialGradient id="QsMRsfMicSOPPOXCULzxvk" cx="35.385" cy="-664.62" r="7.675" gradientTransform="matrix(1 0 0 -1 0 -638)" gradientUnits="userSpaceOnUse"><stop offset="0" stop-color="#c9f5ff" stop-opacity=".1"/><stop offset=".363" stop-color="#a9e2fd" stop-opacity=".341"/><stop offset=".785" stop-color="#58b2f7" stop-opacity=".866"/><stop offset="1" stop-color="#168ad8"/></radialGradient><circle cx="36.457" cy="28.565" r="4.671" fill="url(#QsMRsfMicSOPPOXCULzxvk)"/><radialGradient id="QsMRsfMicSOPPOXCULzxvl" cx="31.925" cy="-657.766" r="4.601" gradientTransform="scale(1 -1) rotate(22.911 -1543.51 -340.922)" gradientUnits="userSpaceOnUse"><stop offset="0" stop-color="#c9f5ff" stop-opacity=".1"/><stop offset=".363" stop-color="#a9e2fd" stop-opacity=".341"/><stop offset=".851" stop-color="#fff" stop-opacity=".7"/><stop offset="1" stop-color="#fff" stop-opacity=".8"/></radialGradient><path fill="url(#QsMRsfMicSOPPOXCULzxvl)" d="M31.06,17.932c1.489-0.629,3.206,0.067,3.835,1.556c0.243,0.574,0.314,1.188,0.167,1.749 c-0.181,0.69-5.624,0.829-5.75-0.125C29.14,19.798,29.786,18.471,31.06,17.932z"/><radialGradient id="QsMRsfMicSOPPOXCULzxvm" cx="31.925" cy="-657.766" r="4.601" gradientTransform="scale(1 -1) rotate(22.911 -1543.51 -340.922)" gradientUnits="userSpaceOnUse"><stop offset="0" stop-color="#c9f5ff" stop-opacity=".1"/><stop offset=".363" stop-color="#a9e2fd" stop-opacity=".341"/><stop offset=".785" stop-color="#58b2f7" stop-opacity=".866"/><stop offset="1" stop-color="#168ad8"/></radialGradient><path fill="url(#QsMRsfMicSOPPOXCULzxvm)" d="M31.06,17.932c1.489-0.629,3.206,0.067,3.835,1.556c0.243,0.574,0.314,1.188,0.167,1.749 c-0.181,0.69-5.624,0.829-5.75-0.125C29.14,19.798,29.786,18.471,31.06,17.932z"/><radialGradient id="QsMRsfMicSOPPOXCULzxvn" cx="32.439" cy="-660.842" r="4.454" gradientTransform="scale(1 -1) rotate(22.911 -1543.51 -340.922)" gradientUnits="userSpaceOnUse"><stop offset="0" stop-color="#c9f5ff" stop-opacity="0"/><stop offset=".231" stop-color="#ccf6ff" stop-opacity=".058"/><stop offset=".434" stop-color="#d7f8ff" stop-opacity=".11"/><stop offset=".628" stop-color="#e9fbff" stop-opacity=".159"/><stop offset=".791" stop-color="#fff" stop-opacity=".2"/><stop offset="1" stop-color="#fff" stop-opacity=".8"/></radialGradient><path fill="url(#QsMRsfMicSOPPOXCULzxvn)" d="M31.06,17.932c1.489-0.629,3.206,0.067,3.835,1.556c0.243,0.574,0.314,1.188,0.167,1.749 c-0.181,0.69-5.624,0.829-5.75-0.125C29.14,19.798,29.786,18.471,31.06,17.932z"/><radialGradient id="QsMRsfMicSOPPOXCULzxvo" cx="28.377" cy="-657.982" r="2.907" gradientTransform="scale(1 -1) rotate(22.911 -1543.51 -340.922)" gradientUnits="userSpaceOnUse"><stop offset="0" stop-color="#c9f5ff" stop-opacity=".1"/><stop offset=".363" stop-color="#a9e2fd" stop-opacity=".341"/><stop offset=".851" stop-color="#fff" stop-opacity=".7"/><stop offset="1" stop-color="#fff" stop-opacity=".8"/></radialGradient><path fill="url(#QsMRsfMicSOPPOXCULzxvo)" d="M27.859,20.068c0.941-0.398,2.025,0.043,2.423,0.983c0.153,0.363,0.198,0.751,0.106,1.105 c-0.114,0.436-3.553,0.524-3.632-0.079C26.646,21.247,27.055,20.408,27.859,20.068z"/><radialGradient id="QsMRsfMicSOPPOXCULzxvp" cx="28.377" cy="-657.982" r="2.907" gradientTransform="scale(1 -1) rotate(22.911 -1543.51 -340.922)" gradientUnits="userSpaceOnUse"><stop offset="0" stop-color="#c9f5ff" stop-opacity=".1"/><stop offset=".363" stop-color="#a9e2fd" stop-opacity=".341"/><stop offset=".785" stop-color="#58b2f7" stop-opacity=".866"/><stop offset="1" stop-color="#168ad8"/></radialGradient><path fill="url(#QsMRsfMicSOPPOXCULzxvp)" d="M27.859,20.068c0.941-0.398,2.025,0.043,2.423,0.983c0.153,0.363,0.198,0.751,0.106,1.105 c-0.114,0.436-3.553,0.524-3.632-0.079C26.646,21.247,27.055,20.408,27.859,20.068z"/><radialGradient id="QsMRsfMicSOPPOXCULzxvq" cx="28.701" cy="-659.925" r="2.907" gradientTransform="scale(1 -1) rotate(22.911 -1543.51 -340.922)" gradientUnits="userSpaceOnUse"><stop offset="0" stop-color="#c9f5ff" stop-opacity="0"/><stop offset=".321" stop-color="#cbf5ff" stop-opacity=".157"/><stop offset=".5" stop-color="#d3f7ff" stop-opacity=".244"/><stop offset=".643" stop-color="#e1f9ff" stop-opacity=".315"/><stop offset=".767" stop-color="#f5fdff" stop-opacity=".375"/><stop offset=".817" stop-color="#fff" stop-opacity=".4"/><stop offset=".963" stop-color="#fff" stop-opacity=".8"/></radialGradient><path fill="url(#QsMRsfMicSOPPOXCULzxvq)" d="M27.859,20.068c0.941-0.398,2.025,0.043,2.423,0.983c0.153,0.363,0.198,0.751,0.106,1.105 c-0.114,0.436-3.553,0.524-3.632-0.079C26.646,21.247,27.055,20.408,27.859,20.068z"/><linearGradient id="QsMRsfMicSOPPOXCULzxvr" x1="33.326" x2="34.01" y1="19.91" y2="22.923" gradientUnits="userSpaceOnUse"><stop offset="0" stop-color="#40bde0"/><stop offset="1" stop-color="#3ebcdf" stop-opacity="0"/></linearGradient><path fill="url(#QsMRsfMicSOPPOXCULzxvr)" d="M35.128,20.531c0.009,0.24-0.005,0.478-0.065,0.706c-0.131,0.499-3.006,0.707-4.639,0.425 c0.011,0.167,0.006,0.334-0.036,0.493c-0.001,0.004-0.007,0.008-0.009,0.012c0.711,0.138,1.601,0.224,2.583,0.224 c2.294,0,4.153-0.45,4.153-1.006C37.114,21.023,36.315,20.708,35.128,20.531z"/><linearGradient id="QsMRsfMicSOPPOXCULzxvs" x1="29.079" x2="29.164" y1="21.751" y2="23.456" gradientUnits="userSpaceOnUse"><stop offset="0" stop-color="#40bde0"/><stop offset="1" stop-color="#3ebcdf" stop-opacity="0"/></linearGradient><path fill="url(#QsMRsfMicSOPPOXCULzxvs)" d="M30.419,21.719c0.005,0.148,0.005,0.296-0.031,0.437c-0.114,0.436-3.553,0.524-3.632-0.079 c0-0.003,0-0.005,0-0.007c-0.069,0.058-0.117,0.119-0.117,0.183c0,0.349,1.104,0.633,2.466,0.633c1.362,0,2.466-0.283,2.466-0.633 C31.57,22.027,31.109,21.831,30.419,21.719z"/><radialGradient id="QsMRsfMicSOPPOXCULzxvt" cx="-92.966" cy="-263.572" r="3.792" gradientTransform="matrix(.0944 .5865 -.6226 .1003 -120.17 108.567)" gradientUnits="userSpaceOnUse"><stop offset="0" stop-color="#fff" stop-opacity=".6"/><stop offset=".999" stop-color="#fff" stop-opacity="0"/></radialGradient><path fill="url(#QsMRsfMicSOPPOXCULzxvt)" d="M35.654,30.529c-1.599,0.257-3.1-0.807-3.353-2.377c-0.253-1.57,0.838-3.052,2.437-3.309	c1.599-0.257,3.1,0.807,3.353,2.377S37.253,30.272,35.654,30.529z"/></svg>