<svg xmlns="http://www.w3.org/2000/svg" viewBox="0 0 48 48"><path fill="#101030" d="M5.5,32.939L4.492,32.46c-0.348-0.17-0.64-0.206-0.81-0.102C3.567,32.431,3.5,32.579,3.5,32.766 v4.154c0,0.576,0.337,1.108,0.858,1.355l1.142,0.55V32.939z"/><linearGradient id="uR0K3Uf~8Ip6m1~PgLEVta" x1="7.125" x2="46.516" y1="37.97" y2="37.97" gradientUnits="userSpaceOnUse"><stop offset="0" stop-color="#1e88e5"/><stop offset=".357" stop-color="#1e88e5"/><stop offset=".37" stop-color="#1e88e5"/><stop offset=".377" stop-color="#1b77c7"/><stop offset=".384" stop-color="#1a6ab2"/><stop offset=".389" stop-color="#1966aa"/><stop offset="1" stop-color="#1863a6"/></linearGradient><path fill="url(#uR0K3Uf~8Ip6m1~PgLEVta)" d="M46.319,34.266l-13.534-5.333L6.996,38.995v1.106l14.194,6.714 c0.529,0.25,1.141,0.257,1.675,0.017c0,0,23.538-10.541,23.592-10.571c0.315-0.175,0.512-0.435,0.512-1.019 C46.969,34.537,46.319,34.266,46.319,34.266z"/><linearGradient id="uR0K3Uf~8Ip6m1~PgLEVtb" x1="15.907" x2="5.279" y1="34.663" y2="57.262" gradientUnits="userSpaceOnUse"><stop offset=".136" stop-color="#bfbeb0"/><stop offset=".169" stop-color="#e0decf"/><stop offset=".271" stop-color="#e0decf"/><stop offset=".277" stop-color="#d9d7c9"/><stop offset=".3" stop-color="#c7c5b8"/><stop offset=".323" stop-color="#bcbbad"/><stop offset=".349" stop-color="#b8b7aa"/></linearGradient><path fill="url(#uR0K3Uf~8Ip6m1~PgLEVtb)" d="M21.358,40.499L6.37,33.403C5.23,32.864,5,33.098,5,33.832v3.155 c0,0.789-0.089,1.001,0.658,1.366c0.084,0.041,16.329,7.752,16.329,7.752l0.002-0.009l0.002-0.001v-5.476 C21.749,40.618,21.525,40.578,21.358,40.499z"/><radialGradient id="uR0K3Uf~8Ip6m1~PgLEVtc" cx="19.274" cy="40.669" r="16.775" gradientTransform="matrix(.8726 .4884 -.3055 .5458 14.878 9.058)" gradientUnits="userSpaceOnUse"><stop offset=".875" stop-color="#b8b8ab" stop-opacity="0"/><stop offset=".984" stop-color="#afafa3" stop-opacity=".858"/><stop offset="1" stop-color="#adada1" stop-opacity=".98"/></radialGradient><path fill="url(#uR0K3Uf~8Ip6m1~PgLEVtc)" d="M21.358,40.499l-14.57-6.901L6.37,33.403C5.23,32.864,5,33.098,5,33.832v3.155 c0,0.789-0.089,1.001,0.658,1.366c0.084,0.041,16.329,7.752,16.329,7.752l0.002-0.009l0.002-0.001v-5.476 C21.749,40.618,21.525,40.578,21.358,40.499z"/><linearGradient id="uR0K3Uf~8Ip6m1~PgLEVtd" x1="31.483" x2="42.412" y1="32.036" y2="56.335" gradientUnits="userSpaceOnUse"><stop offset=".111" stop-color="#808076"/><stop offset=".128" stop-color="#86867c"/><stop offset=".151" stop-color="#97978c"/><stop offset=".177" stop-color="#b2b2a6"/><stop offset=".188" stop-color="#bfbfb2"/><stop offset=".285" stop-color="#bfbfb1"/><stop offset=".406" stop-color="#808077"/><stop offset=".498" stop-color="#86867d"/><stop offset=".621" stop-color="#96958e"/><stop offset=".762" stop-color="#b1b0aa"/><stop offset=".914" stop-color="#d7d4d0"/><stop offset="1" stop-color="#efebe9"/></linearGradient><path fill="url(#uR0K3Uf~8Ip6m1~PgLEVtd)" d="M45.469,32.891c0-1.445,0.615-2.519,1.016-3.071c-0.018,0.011-0.033,0.026-0.051,0.036 c-0.054,0.03-23.568,10.581-23.568,10.581c-0.337,0.151-0.698,0.195-1.015,0.171C21.579,40.85,21,41.546,21,43.122 c0,2.088,1,2.982,1,2.982l24.13-10.793c-0.006-0.013-0.011-0.02-0.017-0.033C46.114,35.278,45.469,34.606,45.469,32.891z"/><radialGradient id="uR0K3Uf~8Ip6m1~PgLEVte" cx="51.342" cy="37.339" r="31.272" gradientTransform="matrix(.9721 -.2345 .1092 .4528 -2.647 32.471)" gradientUnits="userSpaceOnUse"><stop offset=".907" stop-color="#b8b8ab" stop-opacity="0"/><stop offset=".944" stop-color="#b1b1a4" stop-opacity=".393"/><stop offset="1" stop-color="#adada1" stop-opacity=".98"/></radialGradient><path fill="url(#uR0K3Uf~8Ip6m1~PgLEVte)" d="M45.469,32.891c0-1.445,0.615-2.519,1.016-3.071c-0.018,0.011-0.033,0.026-0.051,0.036 c-0.054,0.03-23.568,10.581-23.568,10.581c-0.337,0.151-0.699,0.195-1.015,0.171C21.578,40.849,21,41.545,21,43.122 c0,2.088,1,2.982,1,2.982l24.13-10.793c-0.006-0.013-0.011-0.02-0.017-0.033C46.114,35.278,45.469,34.606,45.469,32.891z"/><path fill="#1e88e5" d="M46.319,28.372l-14.675-5.404L6.5,32.865l0,0.598l14.858,7.036 c0.362,0.172,0.974,0.178,1.508-0.061L46.647,29.76c0-0.45,0-0.847-0.001-0.921C46.645,28.645,46.535,28.452,46.319,28.372z"/><path fill="#1e88e5" d="M43.457,29.261c-0.048,0.027-19.019,8.523-22.892,10.257l0,0c0,0,0.83,0.373,0.935,0.403 l1.909-0.855c20.344-9.112,20.365-9.124,20.412-9.15c0.604-0.336,0.898-0.884,0.898-1.675c0-0.178-0.031-0.337-0.073-0.486 l-1.324-0.488c0.019,0.008,0.647,0.28,0.647,0.974C43.969,28.826,43.772,29.086,43.457,29.261z"/><path fill="#1d83dd" d="M43.457,29.261c-0.048,0.027-19.019,8.523-22.892,10.257l0,0c0,0,0.754,0.34,0.847,0.366 l1.968-0.881c19.964-8.942,20.362-9.122,20.407-9.147c0.581-0.325,0.863-0.848,0.863-1.614c0-0.2-0.045-0.37-0.103-0.523 l-1.225-0.451c0.019,0.008,0.647,0.28,0.647,0.974C43.969,28.826,43.772,29.086,43.457,29.261z"/><path fill="#1c7ed3" d="M43.457,29.261c-0.048,0.027-19.019,8.523-22.892,10.257l0,0c0,0,0.679,0.306,0.76,0.329 l2.027-0.908c19.583-8.771,20.359-9.121,20.401-9.144c0.559-0.313,0.827-0.812,0.827-1.553c0-0.222-0.06-0.404-0.132-0.559 l-1.127-0.415c0.019,0.008,0.647,0.28,0.647,0.974C43.969,28.826,43.772,29.086,43.457,29.261z"/><path fill="#1a77c9" d="M43.457,29.261c-0.048,0.027-19.019,8.523-22.892,10.257l0,0c0,0,0.603,0.272,0.673,0.292 l2.086-0.934c19.203-8.601,20.356-9.119,20.396-9.142c0.537-0.3,0.791-0.777,0.791-1.493c0-0.244-0.075-0.438-0.161-0.595 l-1.028-0.379c0.019,0.008,0.647,0.28,0.647,0.974C43.969,28.826,43.772,29.086,43.457,29.261z"/><path fill="#1971bd" d="M43.457,29.261c-0.048,0.027-19.019,8.523-22.892,10.257l0,0c0,0,0.527,0.239,0.586,0.255 l2.144-0.961c18.822-8.43,20.352-9.118,20.391-9.139c0.515-0.288,0.756-0.741,0.756-1.432c0-0.266-0.09-0.471-0.19-0.632 l-0.929-0.342c0.019,0.008,0.647,0.28,0.647,0.974C43.969,28.826,43.772,29.086,43.457,29.261z"/><path fill="#1769b1" d="M43.457,29.261c-0.048,0.027-19.019,8.523-22.892,10.257l0,0c0,0,0.452,0.205,0.498,0.218 l2.203-0.987c18.442-8.26,20.349-9.116,20.386-9.136c0.493-0.276,0.72-0.705,0.72-1.371c0-0.288-0.105-0.505-0.22-0.668 l-0.83-0.306c0.019,0.008,0.647,0.28,0.647,0.974C43.969,28.826,43.772,29.086,43.457,29.261z"/><path fill="#1560a2" d="M43.457,29.261c-0.048,0.027-19.019,8.523-22.892,10.257l0,0c0,0,0.376,0.171,0.411,0.181 l2.262-1.014c18.061-8.089,20.346-9.114,20.38-9.134c0.471-0.263,0.684-0.67,0.684-1.311c0-0.31-0.12-0.538-0.249-0.705 l-0.732-0.27c0.019,0.008,0.647,0.28,0.647,0.974C43.969,28.826,43.772,29.086,43.457,29.261z"/><path fill="#145894" d="M43.457,29.261c-0.048,0.027-19.019,8.523-22.892,10.257l0,0c0,0,0.3,0.138,0.324,0.144 l2.321-1.04c17.681-7.919,20.343-9.113,20.375-9.131c0.449-0.251,0.649-0.634,0.649-1.25c0-0.332-0.135-0.572-0.278-0.741 l-0.633-0.233c0.019,0.008,0.647,0.28,0.647,0.974C43.969,28.826,43.772,29.086,43.457,29.261z"/><path fill="#114e83" d="M43.457,29.261c-0.048,0.027-19.019,8.523-22.892,10.257l0,0c0,0,0.225,0.104,0.236,0.107 l2.38-1.067c17.3-7.748,20.34-9.111,20.37-9.128c0.426-0.238,0.613-0.598,0.613-1.189c0-0.354-0.15-0.606-0.307-0.777 l-0.534-0.197c0.019,0.008,0.647,0.28,0.647,0.974C43.969,28.826,43.772,29.086,43.457,29.261z"/><path fill="#0f4472" d="M43.322,27.268c0.019,0.008,0.647,0.28,0.647,0.974c0,0.584-0.197,0.844-0.512,1.019 c-0.048,0.027-19.019,8.523-22.892,10.257l0,0l0.149,0.07l2.439-1.093c16.92-7.578,20.336-9.11,20.364-9.125 c0.405-0.225,0.577-0.563,0.577-1.128c0-0.376-0.165-0.639-0.337-0.814L43.322,27.268z"/><path fill="#1976d2" d="M31.818,23.034c-0.025-0.009-0.087-0.034-0.174-0.065c0,0-0.751,0.221-0.919,0.116 c-0.357-0.224-0.119-0.497-0.119-0.497h0c-0.689-0.253-1.412-0.519-1.412-0.519c-0.45-0.17-0.95-0.17-1.4,0.01L4.14,31.191 C3.752,31.338,3,31.709,3,32.789l0.5,0.215v-0.239c0-0.187,0.066-0.335,0.182-0.407c0.168-0.104,0.462-0.068,0.81,0.102 l0.791,0.376c0.028,0.014,0.061,0.057,0.112,0.126c0.082,0.112,0.206,0.282,0.424,0.367c0.164,0.066,0.314,0.039,0.423,0.017 L7.5,33.935V33.34l25.284-9.951C32.785,23.388,32.232,23.189,31.818,23.034z"/><g><path fill="#1976d2" d="M5.865,33.113l25.779-10.144c-0.228-0.072-0.378,0.068-0.52,0.041 c-0.139-0.064-0.2-0.314-0.517-0.422L4.857,32.634L5.865,33.113z"/><path fill="#1976d1" d="M5.86,33.111l25.777-10.142c-0.224-0.07-0.373,0.068-0.513,0.041 c-0.136-0.062-0.197-0.307-0.506-0.413L4.873,32.641L5.86,33.111z"/><path fill="#1975d0" d="M5.856,33.108l25.775-10.14c-0.221-0.068-0.367,0.067-0.506,0.041 c-0.133-0.061-0.193-0.3-0.495-0.404L4.889,32.649L5.856,33.108z"/><path fill="#1975cf" d="M5.851,33.106l25.772-10.137c-0.217-0.065-0.362,0.067-0.499,0.041 c-0.131-0.06-0.189-0.293-0.485-0.395L4.905,32.656L5.851,33.106z"/><path fill="#1974ce" d="M5.846,33.104l25.77-10.135c-0.214-0.063-0.357,0.066-0.492,0.041 c-0.128-0.059-0.185-0.287-0.474-0.386L4.921,32.664L5.846,33.104z"/><path fill="#1974cd" d="M5.841,33.102l25.768-10.133c-0.21-0.061-0.351,0.066-0.485,0.041 c-0.125-0.057-0.182-0.28-0.463-0.377L4.937,32.672L5.841,33.102z"/><path fill="#1974cc" d="M5.837,33.099l25.765-10.13c-0.207-0.058-0.346,0.066-0.478,0.041 c-0.122-0.056-0.178-0.273-0.452-0.368L4.953,32.679L5.837,33.099z"/><path fill="#1973cb" d="M5.832,33.097l25.763-10.128c-0.204-0.056-0.341,0.065-0.471,0.041 c-0.119-0.055-0.174-0.266-0.441-0.359L4.968,32.687L5.832,33.097z"/><path fill="#1973ca" d="M5.827,33.095l25.761-10.126c-0.2-0.054-0.335,0.065-0.464,0.04 c-0.117-0.053-0.171-0.259-0.43-0.35L4.984,32.694L5.827,33.095z"/><path fill="#1972c9" d="M5.822,33.092l25.759-10.123c-0.197-0.051-0.33,0.064-0.457,0.04 c-0.114-0.052-0.167-0.252-0.419-0.341L5,32.702L5.822,33.092z"/><path fill="#1972c8" d="M5.818,33.09l25.756-10.121c-0.193-0.049-0.325,0.064-0.45,0.04 c-0.111-0.051-0.163-0.245-0.408-0.332L5.016,32.709L5.818,33.09z"/><path fill="#1972c7" d="M5.813,33.088l25.754-10.119c-0.19-0.047-0.319,0.064-0.443,0.04 c-0.108-0.05-0.16-0.238-0.398-0.323L5.032,32.717L5.813,33.088z"/><path fill="#1971c6" d="M5.808,33.086L31.56,22.969c-0.186-0.044-0.314,0.063-0.436,0.04 c-0.106-0.048-0.156-0.231-0.387-0.314L5.048,32.724L5.808,33.086z"/><path fill="#1971c5" d="M5.803,33.083l25.749-10.114c-0.183-0.042-0.309,0.063-0.429,0.04 c-0.103-0.047-0.152-0.224-0.376-0.305L5.064,32.732L5.803,33.083z"/><path fill="#1971c4" d="M5.799,33.081L31.546,22.97c-0.179-0.04-0.303,0.062-0.422,0.04 c-0.1-0.046-0.149-0.218-0.365-0.296L5.08,32.739L5.799,33.081z"/><path fill="#1970c3" d="M5.794,33.079L31.539,22.97c-0.176-0.037-0.298,0.062-0.415,0.04 c-0.097-0.045-0.145-0.211-0.354-0.287L5.095,32.747L5.794,33.079z"/><path fill="#1970c2" d="M5.789,33.077L31.532,22.97c-0.172-0.035-0.293,0.062-0.408,0.04 c-0.094-0.043-0.141-0.204-0.343-0.278L5.111,32.754L5.789,33.077z"/><path fill="#196fc1" d="M5.784,33.074l25.74-10.105c-0.169-0.033-0.287,0.061-0.401,0.04 c-0.092-0.042-0.138-0.197-0.332-0.269L5.127,32.762L5.784,33.074z"/><path fill="#196fc0" d="M5.78,33.072L31.518,22.97c-0.165-0.03-0.282,0.061-0.394,0.04 c-0.089-0.041-0.134-0.19-0.322-0.26L5.143,32.77L5.78,33.072z"/><path fill="#196fbf" d="M5.775,33.07l25.736-10.1c-0.162-0.028-0.277,0.06-0.387,0.04 c-0.086-0.039-0.13-0.183-0.311-0.251L5.159,32.777L5.775,33.07z"/><path fill="#196ebe" d="M5.77,33.068L31.504,22.97c-0.158-0.026-0.272,0.06-0.38,0.04c-0.083-0.038-0.127-0.176-0.3-0.242 L5.175,32.785L5.77,33.068z"/><path fill="#196ebe" d="M5.765,33.065L31.497,22.97c-0.155-0.024-0.266,0.06-0.373,0.04 c-0.081-0.037-0.123-0.169-0.289-0.233L5.191,32.792L5.765,33.065z"/><path fill="#196dbd" d="M5.761,33.063L31.49,22.97c-0.151-0.021-0.261,0.059-0.366,0.039 c-0.078-0.036-0.119-0.162-0.278-0.224L5.206,32.8L5.761,33.063z"/><path fill="#196dbc" d="M5.756,33.061L31.482,22.97c-0.148-0.019-0.256,0.059-0.359,0.039 c-0.075-0.034-0.116-0.156-0.267-0.215L5.222,32.807L5.756,33.061z"/><path fill="#196dbb" d="M5.751,33.059L31.475,22.97c-0.144-0.017-0.25,0.059-0.352,0.039 c-0.072-0.033-0.112-0.149-0.256-0.206L5.238,32.815L5.751,33.059z"/><path fill="#196cba" d="M5.746,33.056L31.468,22.97c-0.141-0.014-0.245,0.058-0.345,0.039 c-0.069-0.032-0.108-0.142-0.245-0.197L5.254,32.822L5.746,33.056z"/><path fill="#196cb9" d="M5.742,33.054l25.72-10.084c-0.137-0.012-0.24,0.058-0.337,0.039 c-0.067-0.031-0.105-0.135-0.235-0.188L5.27,32.83L5.742,33.054z"/><path fill="#196bb8" d="M5.737,33.052L31.454,22.97c-0.134-0.01-0.234,0.057-0.33,0.039 c-0.064-0.029-0.101-0.128-0.224-0.179L5.286,32.837L5.737,33.052z"/><path fill="#196bb7" d="M5.732,33.05l25.715-10.079c-0.131-0.007-0.229,0.057-0.323,0.039 c-0.061-0.028-0.097-0.121-0.213-0.17L5.302,32.845L5.732,33.05z"/><path fill="#196bb6" d="M5.727,33.047L31.44,22.971c-0.127-0.005-0.224,0.057-0.316,0.039 c-0.058-0.027-0.094-0.114-0.202-0.161L5.317,32.853L5.727,33.047z"/><path fill="#196ab5" d="M5.723,33.045l25.711-10.074c-0.124-0.003-0.218,0.056-0.309,0.039 c-0.056-0.025-0.09-0.107-0.191-0.152L5.333,32.86L5.723,33.045z"/><path fill="#196ab4" d="M5.718,33.043l25.708-10.072c-0.12,0-0.213,0.056-0.302,0.039c-0.053-0.024-0.086-0.1-0.18-0.143 L5.349,32.868L5.718,33.043z"/><path fill="#196ab3" d="M5.713,33.041l25.706-10.07c-0.117,0.002-0.208,0.055-0.295,0.039 c-0.05-0.023-0.083-0.093-0.169-0.134l-25.589,10L5.713,33.041z"/><path fill="#1969b2" d="M5.708,33.038l25.704-10.067c-0.113,0.004-0.202,0.055-0.288,0.039 c-0.047-0.022-0.079-0.087-0.158-0.125L5.381,32.883L5.708,33.038z"/><path fill="#1969b1" d="M5.704,33.036l25.701-10.065c-0.11,0.007-0.197,0.055-0.281,0.039 c-0.045-0.02-0.075-0.08-0.148-0.116L5.397,32.89L5.704,33.036z"/><path fill="#1968b0" d="M5.699,33.034l25.699-10.063c-0.106,0.009-0.192,0.054-0.274,0.039 c-0.042-0.019-0.072-0.073-0.137-0.107L5.413,32.898L5.699,33.034z"/><path fill="#1968af" d="M5.694,33.032l25.697-10.06c-0.103,0.011-0.186,0.054-0.267,0.038 c-0.039-0.018-0.068-0.066-0.126-0.098l-25.57,9.994L5.694,33.032z"/><path fill="#1968ae" d="M5.689,33.029l25.695-10.058c-0.099,0.014-0.181,0.053-0.26,0.038 c-0.036-0.017-0.064-0.059-0.115-0.089L5.444,32.913L5.689,33.029z"/><path fill="#1967ad" d="M5.685,33.027l25.692-10.056c-0.096,0.016-0.176,0.053-0.253,0.038 c-0.033-0.015-0.061-0.052-0.104-0.08L5.46,32.92L5.685,33.027z"/><path fill="#1967ac" d="M5.68,33.025l25.69-10.053c-0.092,0.018-0.17,0.053-0.246,0.038 c-0.031-0.014-0.057-0.045-0.093-0.071L5.476,32.928L5.68,33.025z"/><path fill="#1966ab" d="M5.675,33.023l25.688-10.051c-0.089,0.02-0.165,0.052-0.239,0.038 c-0.028-0.013-0.053-0.038-0.082-0.062l-25.55,9.988L5.675,33.023z"/><path fill="#1966aa" d="M5.67,33.02l25.685-10.049c-0.085,0.023-0.16,0.052-0.232,0.038 c-0.025-0.011-0.049-0.031-0.071-0.053L5.508,32.943L5.67,33.02z"/></g><linearGradient id="uR0K3Uf~8Ip6m1~PgLEVtf" x1="6.662" x2="47.126" y1="34.748" y2="34.748" gradientUnits="userSpaceOnUse"><stop offset="0" stop-color="#0c66b3"/><stop offset=".357" stop-color="#0c66b3"/><stop offset=".357" stop-color="#0c66b4"/><stop offset=".365" stop-color="#066ec9"/><stop offset=".37" stop-color="#0471d1"/><stop offset=".373" stop-color="#096ec7"/><stop offset=".383" stop-color="#1568b2"/><stop offset=".389" stop-color="#1966aa"/><stop offset="1" stop-color="#1863a6"/></linearGradient><path fill="url(#uR0K3Uf~8Ip6m1~PgLEVtf)" d="M46.319,28.372c0.42,0.155,0.44,0.742,0.032,0.925v0L22.865,39.832 c-0.534,0.239-1.146,0.233-1.674-0.018L6.5,32.865l0.001,1.096l14.857,7.037c0.362,0.172,0.974,0.178,1.508-0.061 c0,0,23.514-10.551,23.568-10.581c0.315-0.175,0.53-0.435,0.53-1.019C46.964,28.557,46.32,28.372,46.319,28.372z"/><linearGradient id="uR0K3Uf~8Ip6m1~PgLEVtg" x1="26.718" x2="35.204" y1="31.416" y2="43.473" gradientUnits="userSpaceOnUse"><stop offset="0"/><stop offset=".371" stop-opacity="0"/></linearGradient><path fill="url(#uR0K3Uf~8Ip6m1~PgLEVtg)" d="M46.434,30.356c0.315-0.175,0.53-0.435,0.53-1.019c0-0.77-0.625-0.959-0.642-0.964l0,0.001 c0.417,0.157,0.436,0.74,0.029,0.923v0L23.103,39.725l-0.192,0.107c-0.273,0.123-0.567,0.179-0.86,0.172 c-0.294,0.001-0.588-0.061-0.86-0.19L6.546,32.887l0.001,1.075l14.857,7.037c0.362,0.172,0.974,0.178,1.507-0.061 c0,0,23.156-10.39,23.551-10.574C46.445,30.359,46.433,30.356,46.434,30.356z"/><path fill="#1966aa" d="M4.521,33.035l1.017,0.478c0.231,0.137,0.294,0.383,0.467,0.451 c0.073,0.029,0.298-0.077,0.478-0.007L7.5,34.436V33.34l-0.999-0.478l0,0.001c-0.183-0.086-0.422,0.032-0.497,0.002 c-0.184-0.072-0.236-0.352-0.506-0.481l0.003-0.001l-0.796-0.376C3.636,31.483,3,32.032,3,32.766v4.154 c0,0.773,0.445,1.477,1.144,1.807l1.367,0.658c0.266,0.12,0.51-0.007,0.679,0.089c0.07,0.04,0.128,0.296,0.308,0.386L7.5,40.343 v-1.112l-0.999-0.48l0,0c-0.182-0.088-0.24-0.348-0.311-0.388c-0.172-0.097-0.42,0.036-0.689-0.092l-0.929-0.446 C4.223,37.659,4,37.307,4,36.921v-3.639C4,33.098,4.116,32.844,4.521,33.035z"/><g><path fill="#301010" d="M2.5,25.939L1.492,25.46c-0.348-0.17-0.64-0.206-0.81-0.102C0.567,25.431,0.5,25.579,0.5,25.766 v4.154c0,0.576,0.337,1.108,0.858,1.355l1.142,0.55V25.939z"/><linearGradient id="uR0K3Uf~8Ip6m1~PgLEVth" x1="4.125" x2="43.516" y1="30.97" y2="30.97" gradientUnits="userSpaceOnUse"><stop offset="0" stop-color="#fb8c00"/><stop offset=".357" stop-color="#fb8c00"/><stop offset=".37" stop-color="#fb8c00"/><stop offset=".373" stop-color="#f68408"/><stop offset=".382" stop-color="#ea701d"/><stop offset=".389" stop-color="#e66825"/><stop offset="1" stop-color="#e65100"/></linearGradient><path fill="url(#uR0K3Uf~8Ip6m1~PgLEVth)" d="M43.319,27.266l-13.534-5.333L3.996,31.995v1.106l14.194,6.714 c0.529,0.25,1.141,0.257,1.675,0.017c0,0,23.538-10.541,23.592-10.571c0.315-0.175,0.512-0.435,0.512-1.019 C43.969,27.537,43.319,27.266,43.319,27.266z"/><linearGradient id="uR0K3Uf~8Ip6m1~PgLEVti" x1="12.907" x2="2.28" y1="27.663" y2="50.262" gradientUnits="userSpaceOnUse"><stop offset=".136" stop-color="#bfbeb0"/><stop offset=".169" stop-color="#e0decf"/><stop offset=".271" stop-color="#e0decf"/><stop offset=".277" stop-color="#d9d7c9"/><stop offset=".3" stop-color="#c7c5b8"/><stop offset=".323" stop-color="#bcbbad"/><stop offset=".349" stop-color="#b8b7aa"/></linearGradient><path fill="url(#uR0K3Uf~8Ip6m1~PgLEVti)" d="M18.358,33.499L3.37,26.403C2.23,25.864,2,26.098,2,26.832v3.155 c0,0.789-0.089,1.001,0.658,1.366c0.084,0.041,16.329,7.752,16.329,7.752l0.002-0.009l0.002-0.001v-5.476 C18.749,33.618,18.525,33.578,18.358,33.499z"/><radialGradient id="uR0K3Uf~8Ip6m1~PgLEVtj" cx="16.274" cy="33.669" r="16.775" gradientTransform="matrix(.8726 .4884 -.3055 .5458 12.358 7.344)" gradientUnits="userSpaceOnUse"><stop offset=".875" stop-color="#b8b8ab" stop-opacity="0"/><stop offset=".984" stop-color="#afafa3" stop-opacity=".858"/><stop offset="1" stop-color="#adada1" stop-opacity=".98"/></radialGradient><path fill="url(#uR0K3Uf~8Ip6m1~PgLEVtj)" d="M18.358,33.499l-14.57-6.901L3.37,26.403C2.23,25.864,2,26.098,2,26.832v3.155 c0,0.789-0.089,1.001,0.658,1.366c0.084,0.041,16.329,7.752,16.329,7.752l0.002-0.009l0.002-0.001v-5.476 C18.749,33.618,18.525,33.578,18.358,33.499z"/><linearGradient id="uR0K3Uf~8Ip6m1~PgLEVtk" x1="28.483" x2="39.412" y1="25.036" y2="49.335" gradientUnits="userSpaceOnUse"><stop offset=".111" stop-color="#808076"/><stop offset=".128" stop-color="#86867c"/><stop offset=".151" stop-color="#97978c"/><stop offset=".177" stop-color="#b2b2a6"/><stop offset=".188" stop-color="#bfbfb2"/><stop offset=".285" stop-color="#bfbfb1"/><stop offset=".406" stop-color="#808077"/><stop offset=".498" stop-color="#86867d"/><stop offset=".621" stop-color="#96958e"/><stop offset=".762" stop-color="#b1b0aa"/><stop offset=".914" stop-color="#d7d4d0"/><stop offset="1" stop-color="#efebe9"/></linearGradient><path fill="url(#uR0K3Uf~8Ip6m1~PgLEVtk)" d="M42.469,25.891c0-1.445,0.615-2.519,1.016-3.071c-0.018,0.011-0.033,0.026-0.051,0.036 c-0.054,0.03-23.568,10.581-23.568,10.581c-0.337,0.151-0.698,0.195-1.015,0.171C18.579,33.85,18,34.546,18,36.122 c0,2.088,1,2.982,1,2.982l24.13-10.793c-0.006-0.013-0.011-0.02-0.017-0.033C43.114,28.278,42.469,27.606,42.469,25.891z"/><radialGradient id="uR0K3Uf~8Ip6m1~PgLEVtl" cx="48.342" cy="30.339" r="31.272" gradientTransform="matrix(.9721 -.2345 .1092 .4528 -1.966 27.938)" gradientUnits="userSpaceOnUse"><stop offset=".907" stop-color="#b8b8ab" stop-opacity="0"/><stop offset=".944" stop-color="#b1b1a4" stop-opacity=".393"/><stop offset="1" stop-color="#adada1" stop-opacity=".98"/></radialGradient><path fill="url(#uR0K3Uf~8Ip6m1~PgLEVtl)" d="M42.469,25.891c0-1.445,0.615-2.519,1.016-3.071c-0.018,0.011-0.033,0.026-0.051,0.036 c-0.054,0.03-23.568,10.581-23.568,10.581c-0.337,0.151-0.699,0.195-1.015,0.171C18.578,33.849,18,34.545,18,36.122 c0,2.088,1,2.982,1,2.982l24.13-10.793c-0.006-0.013-0.011-0.02-0.017-0.033C43.114,28.278,42.469,27.606,42.469,25.891z"/><path fill="#ffab31" d="M43.319,21.372l-14.675-5.404L3.5,25.865l0,0.598l14.858,7.036 c0.362,0.172,0.974,0.178,1.508-0.061L43.647,22.76c0-0.45,0-0.847-0.001-0.921C43.645,21.645,43.535,21.452,43.319,21.372z"/><path fill="#fb8c00" d="M28.818,16.034c-0.025-0.009-0.087-0.034-0.174-0.065c0,0-0.751,0.221-0.919,0.116 c-0.357-0.224-0.119-0.497-0.119-0.497h0c-0.689-0.253-1.412-0.519-1.412-0.519c-0.45-0.17-0.95-0.17-1.4,0.01L1.14,24.191 C0.752,24.338,0,24.709,0,25.789l0.5,0.215v-0.239c0-0.187,0.066-0.335,0.182-0.407c0.168-0.104,0.462-0.068,0.81,0.102 l0.791,0.376c0.028,0.014,0.061,0.057,0.112,0.126c0.082,0.112,0.206,0.282,0.424,0.367c0.164,0.066,0.314,0.039,0.423,0.017 L4.5,26.935V26.34l25.284-9.951C29.785,16.388,29.232,16.189,28.818,16.034z"/><g><path fill="#fb8c00" d="M2.865,26.113l25.779-10.144c-0.228-0.072-0.378,0.068-0.52,0.041 c-0.139-0.064-0.2-0.314-0.517-0.422L1.857,25.634L2.865,26.113z"/><path fill="#fb8b01" d="M2.861,26.111l25.777-10.142c-0.225-0.07-0.373,0.068-0.514,0.041 c-0.136-0.062-0.197-0.308-0.507-0.413L1.873,25.641L2.861,26.111z"/><path fill="#fa8a01" d="M2.856,26.108l25.775-10.14c-0.221-0.068-0.368,0.067-0.507,0.041 c-0.134-0.061-0.193-0.301-0.496-0.405L1.888,25.648L2.856,26.108z"/><path fill="#fa8902" d="M2.851,26.106l25.773-10.138c-0.218-0.066-0.363,0.067-0.5,0.041 c-0.131-0.06-0.19-0.294-0.486-0.396L1.903,25.655L2.851,26.106z"/><path fill="#f98802" d="M2.847,26.104l25.77-10.135c-0.215-0.063-0.358,0.066-0.494,0.041 c-0.128-0.059-0.186-0.288-0.476-0.388L1.918,25.663L2.847,26.104z"/><path fill="#f98703" d="M2.842,26.102l25.768-10.133c-0.211-0.061-0.353,0.066-0.487,0.041 c-0.126-0.058-0.183-0.281-0.465-0.379L1.933,25.67L2.842,26.102z"/><path fill="#f88604" d="M2.838,26.1l25.766-10.131c-0.208-0.059-0.347,0.066-0.48,0.041 c-0.123-0.056-0.179-0.275-0.455-0.37L1.948,25.677L2.838,26.1z"/><path fill="#f88504" d="M2.833,26.098l25.764-10.129c-0.205-0.057-0.342,0.065-0.473,0.041 c-0.12-0.055-0.176-0.268-0.445-0.362L1.963,25.684L2.833,26.098z"/><path fill="#f88405" d="M2.829,26.096l25.762-10.126c-0.201-0.054-0.337,0.065-0.467,0.04 c-0.118-0.054-0.172-0.262-0.434-0.353L1.978,25.691L2.829,26.096z"/><path fill="#f78305" d="M2.824,26.093l25.76-10.124c-0.198-0.052-0.332,0.065-0.46,0.04 c-0.115-0.053-0.169-0.255-0.424-0.345L1.994,25.699L2.824,26.093z"/><path fill="#f78206" d="M2.82,26.091l25.757-10.122c-0.195-0.05-0.327,0.064-0.453,0.04 c-0.112-0.052-0.165-0.248-0.414-0.336L2.009,25.706L2.82,26.091z"/><path fill="#f68107" d="M2.815,26.089l25.755-10.12c-0.191-0.048-0.322,0.064-0.447,0.04 c-0.11-0.05-0.162-0.242-0.403-0.327L2.024,25.713L2.815,26.089z"/><path fill="#f68007" d="M2.811,26.087l25.753-10.118c-0.188-0.046-0.317,0.063-0.44,0.04 c-0.107-0.049-0.158-0.235-0.393-0.319L2.039,25.72L2.811,26.087z"/><path fill="#f57f08" d="M2.806,26.085l25.751-10.115c-0.185-0.043-0.312,0.063-0.433,0.04 c-0.104-0.048-0.155-0.229-0.382-0.31L2.054,25.727L2.806,26.085z"/><path fill="#f57e08" d="M2.802,26.083L28.55,15.97c-0.181-0.041-0.307,0.063-0.426,0.04 c-0.102-0.047-0.151-0.222-0.372-0.302L2.069,25.735L2.802,26.083z"/><path fill="#f57d09" d="M2.797,26.081L28.544,15.97c-0.178-0.039-0.302,0.062-0.42,0.04 c-0.099-0.045-0.148-0.216-0.362-0.293L2.084,25.742L2.797,26.081z"/><path fill="#f47d09" d="M2.793,26.078L28.537,15.97c-0.175-0.037-0.297,0.062-0.413,0.04 c-0.097-0.044-0.144-0.209-0.351-0.285L2.099,25.749L2.793,26.078z"/><path fill="#f47c0a" d="M2.788,26.076L28.53,15.97c-0.172-0.035-0.292,0.062-0.406,0.04 c-0.094-0.043-0.141-0.202-0.341-0.276L2.115,25.756L2.788,26.076z"/><path fill="#f37b0b" d="M2.784,26.074l25.74-10.104c-0.168-0.032-0.287,0.061-0.4,0.04 c-0.091-0.042-0.137-0.196-0.331-0.267L2.13,25.763L2.784,26.074z"/><path fill="#f37a0b" d="M2.779,26.072L28.517,15.97c-0.165-0.03-0.282,0.061-0.393,0.04 c-0.089-0.041-0.134-0.189-0.32-0.259L2.145,25.77L2.779,26.072z"/><path fill="#f2790c" d="M2.775,26.07l25.736-10.1c-0.162-0.028-0.276,0.06-0.386,0.04c-0.086-0.039-0.13-0.183-0.31-0.25 L2.16,25.778L2.775,26.07z"/><path fill="#f2780c" d="M2.77,26.068L28.503,15.97c-0.158-0.026-0.271,0.06-0.38,0.04c-0.083-0.038-0.127-0.176-0.3-0.242 L2.175,25.785L2.77,26.068z"/><path fill="#f2770d" d="M2.765,26.065L28.497,15.97c-0.155-0.024-0.266,0.06-0.373,0.04 c-0.081-0.037-0.123-0.169-0.289-0.233L2.19,25.792L2.765,26.065z"/><path fill="#f1760e" d="M2.761,26.063L28.49,15.97c-0.152-0.021-0.261,0.059-0.366,0.039 c-0.078-0.036-0.12-0.163-0.279-0.225L2.205,25.799L2.761,26.063z"/><path fill="#f1750e" d="M2.756,26.061L28.483,15.97c-0.148-0.019-0.256,0.059-0.359,0.039 c-0.075-0.035-0.116-0.156-0.268-0.216L2.22,25.806L2.756,26.061z"/><path fill="#f0740f" d="M2.752,26.059L28.477,15.97c-0.145-0.017-0.251,0.059-0.353,0.039 c-0.073-0.033-0.113-0.15-0.258-0.207L2.236,25.814L2.752,26.059z"/><path fill="#f0730f" d="M2.747,26.057L28.47,15.97c-0.142-0.015-0.246,0.058-0.346,0.039 c-0.07-0.032-0.109-0.143-0.248-0.199L2.251,25.821L2.747,26.057z"/><path fill="#ef7210" d="M2.743,26.055l25.72-10.084c-0.138-0.013-0.241,0.058-0.339,0.039 c-0.067-0.031-0.106-0.137-0.237-0.19L2.266,25.828L2.743,26.055z"/><path fill="#ef7111" d="M2.738,26.053L28.456,15.97c-0.135-0.01-0.236,0.057-0.333,0.039 c-0.065-0.03-0.102-0.13-0.227-0.182L2.281,25.835L2.738,26.053z"/><path fill="#ef7011" d="M2.734,26.05l25.716-10.08c-0.132-0.008-0.231,0.057-0.326,0.039 c-0.062-0.028-0.099-0.123-0.217-0.173L2.296,25.842L2.734,26.05z"/><path fill="#ee6f12" d="M2.729,26.048l25.714-10.078c-0.128-0.006-0.226,0.057-0.319,0.039 c-0.059-0.027-0.095-0.117-0.206-0.165L2.311,25.85L2.729,26.048z"/><path fill="#ee6e12" d="M2.725,26.046l25.712-10.075c-0.125-0.004-0.221,0.056-0.312,0.039 c-0.057-0.026-0.092-0.11-0.196-0.156L2.326,25.857L2.725,26.046z"/><path fill="#ed6d13" d="M2.72,26.044L28.43,15.971c-0.122-0.002-0.216,0.056-0.306,0.039 c-0.054-0.025-0.088-0.104-0.185-0.147L2.341,25.864L2.72,26.044z"/><path fill="#ed6c14" d="M2.716,26.042l25.707-10.071c-0.118,0.001-0.211,0.056-0.299,0.039 c-0.052-0.024-0.085-0.097-0.175-0.139l-25.592,10L2.716,26.042z"/><path fill="#ec6b14" d="M2.711,26.04l25.705-10.069c-0.115,0.003-0.205,0.055-0.292,0.039 c-0.049-0.022-0.081-0.091-0.165-0.13L2.372,25.878L2.711,26.04z"/><path fill="#ec6a15" d="M2.707,26.037L28.41,15.971c-0.112,0.005-0.2,0.055-0.286,0.039 c-0.046-0.021-0.078-0.084-0.154-0.122L2.387,25.885L2.707,26.037z"/><path fill="#ec6915" d="M2.702,26.035l25.701-10.064c-0.109,0.007-0.195,0.054-0.279,0.039 c-0.044-0.02-0.074-0.077-0.144-0.113L2.402,25.893L2.702,26.035z"/><path fill="#eb6816" d="M2.698,26.033l25.699-10.062c-0.105,0.01-0.19,0.054-0.272,0.039 c-0.041-0.019-0.071-0.071-0.134-0.105L2.417,25.9L2.698,26.033z"/><path fill="#eb6717" d="M2.693,26.031l25.696-10.06c-0.102,0.012-0.185,0.054-0.266,0.038 c-0.038-0.018-0.067-0.064-0.123-0.096L2.432,25.907L2.693,26.031z"/><path fill="#ea6617" d="M2.689,26.029l25.694-10.058c-0.099,0.014-0.18,0.053-0.259,0.038 c-0.036-0.016-0.064-0.058-0.113-0.087L2.447,25.914L2.689,26.029z"/><path fill="#ea6518" d="M2.684,26.027l25.692-10.055c-0.095,0.016-0.175,0.053-0.252,0.038 c-0.033-0.015-0.06-0.051-0.103-0.079L2.462,25.921L2.684,26.027z"/><path fill="#e96418" d="M2.679,26.025l25.69-10.053c-0.092,0.018-0.17,0.053-0.245,0.038 c-0.03-0.014-0.057-0.045-0.092-0.07L2.478,25.929L2.679,26.025z"/><path fill="#e96319" d="M2.675,26.022l25.688-10.051c-0.089,0.021-0.165,0.052-0.239,0.038 c-0.028-0.013-0.053-0.038-0.082-0.062L2.493,25.936L2.675,26.022z"/><path fill="#e86219" d="M2.67,26.02l25.685-10.049c-0.085,0.023-0.16,0.052-0.232,0.038 c-0.025-0.011-0.049-0.031-0.071-0.053L2.508,25.943L2.67,26.02z"/></g><linearGradient id="uR0K3Uf~8Ip6m1~PgLEVtm" x1="3.662" x2="44.126" y1="27.748" y2="27.748" gradientUnits="userSpaceOnUse"><stop offset="0" stop-color="#fb8c00"/><stop offset=".357" stop-color="#fb8c00"/><stop offset=".37" stop-color="#fb8c00"/><stop offset=".373" stop-color="#f68408"/><stop offset=".382" stop-color="#ea701d"/><stop offset=".389" stop-color="#e66825"/><stop offset="1" stop-color="#e65100"/></linearGradient><path fill="url(#uR0K3Uf~8Ip6m1~PgLEVtm)" d="M43.319,21.372c0.42,0.155,0.44,0.742,0.032,0.925v0L19.865,32.832 c-0.534,0.239-1.146,0.233-1.674-0.018L3.5,25.865l0.001,1.096l14.857,7.037c0.362,0.172,0.974,0.178,1.508-0.061 c0,0,23.514-10.551,23.568-10.581c0.315-0.175,0.53-0.435,0.53-1.019C43.964,21.557,43.32,21.372,43.319,21.372z"/><path fill="#e65100" d="M1.521,26.035l1.017,0.478c0.231,0.137,0.294,0.383,0.467,0.451 c0.073,0.029,0.298-0.077,0.478-0.007L4.5,27.436V26.34l-0.999-0.478l0,0.001c-0.183-0.086-0.422,0.032-0.497,0.002 c-0.184-0.072-0.236-0.352-0.506-0.481l0.003-0.001l-0.796-0.376C0.636,24.483,0,25.032,0,25.766v4.154 c0,0.773,0.445,1.477,1.144,1.807l1.367,0.658c0.266,0.12,0.51-0.007,0.679,0.089c0.07,0.04,0.128,0.296,0.308,0.386L4.5,33.343 v-1.112l-0.999-0.48l0,0c-0.182-0.088-0.24-0.348-0.311-0.388c-0.172-0.097-0.42,0.036-0.689-0.092l-0.929-0.446 C1.223,30.659,1,30.307,1,29.921v-3.639C1,26.098,1.116,25.844,1.521,26.035z"/><linearGradient id="uR0K3Uf~8Ip6m1~PgLEVtn" x1="20.477" x2="10.838" y1="27.318" y2="35.879" gradientUnits="userSpaceOnUse"><stop offset="0"/><stop offset=".217" stop-opacity=".092"/><stop offset=".239" stop-opacity="0"/></linearGradient><path fill="url(#uR0K3Uf~8Ip6m1~PgLEVtn)" d="M18.191,32.815L3.546,25.887l0.001,1.075l14.857,7.037c0.168,0.08,0.392,0.119,0.635,0.12 c0.268-0.006,0.557-0.06,0.827-0.181c0,0,23.514-10.551,23.568-10.581c0.315-0.175,0.53-0.435,0.53-1.019 c0-0.78-0.644-0.965-0.645-0.965c0.42,0.155,0.44,0.742,0.032,0.925v0L20.027,32.759l-0.116,0.073 c-0.271,0.121-0.561,0.178-0.851,0.174c-0.005,0-0.009,0.001-0.013,0.001C18.754,33.007,18.462,32.943,18.191,32.815z"/><g><path d="M24.841,15.078L4.052,23.074c-0.042,0.793,0.283,1.624,0.969,1.957 c0.005,0.003,0.142,0.069,0.148,0.072l1.217,0.586c0.103,0.046,0.254,0.088,0.398,0.092c0.006,0.003,0.173,0.009,0.179,0.01 c0.006,0.001,0.109,0.13,0.115,0.13c0.032,0.036,0.065,0.067,0.099,0.096c0.04,0.034,0.085,0.063,0.13,0.088 c0.015,0.009,0.038,0.019,0.054,0.027l0.002,0l0.049,0.029c0.007,0.014,0.49,0.255,0.506,0.263l1.457,0.692l0.086,0.041 l11.23,5.312l22.707-10.17c0.409-0.183,0.389-0.771-0.032-0.925l-13.56-4.996l-0.02-0.004c-0.109-0.039-0.558-0.202-0.922-0.338 c-0.025-0.009-0.087-0.034-0.174-0.065c0,0-0.216,0.063-0.442,0.106l-0.356-0.069l-0.304-0.185 c-0.01-0.129,0.064-0.232,0.064-0.232h0c-0.689-0.253-1.412-0.519-1.412-0.519c-0.222-0.084-0.456-0.126-0.69-0.126 C25.31,14.942,25.069,14.987,24.841,15.078z" opacity=".01"/><path d="M24.841,15.078L4.052,23.074c-0.028,0.779,0.293,1.588,0.965,1.923 c0.01,0.006,0.136,0.067,0.147,0.073l1.195,0.575c0.09,0.041,0.264,0.097,0.39,0.1c0.013,0.006,0.166,0.013,0.178,0.015 c0.013,0.002,0.11,0.116,0.121,0.116c0.033,0.031,0.067,0.059,0.101,0.083c0.041,0.029,0.087,0.055,0.131,0.077 c0.013,0.008,0.04,0.017,0.054,0.024l0.004,0l0.047,0.033c0.015,0.028,0.446,0.256,0.48,0.273l1.427,0.679l0.092,0.043 l11.339,5.364l22.673-10.155c0.409-0.183,0.389-0.771-0.032-0.925l-13.56-4.996l-0.02-0.004 c-0.109-0.039-0.558-0.202-0.922-0.338c-0.025-0.009-0.087-0.034-0.174-0.065c0,0-0.216,0.063-0.442,0.106l-0.356-0.069 l-0.304-0.185c-0.01-0.129,0.064-0.232,0.064-0.232h0c-0.689-0.253-1.412-0.519-1.412-0.519c-0.222-0.084-0.456-0.126-0.69-0.126 C25.31,14.942,25.069,14.987,24.841,15.078z" opacity=".03"/><path d="M24.841,15.078L4.052,23.074c-0.015,0.764,0.303,1.552,0.961,1.889 c0.016,0.009,0.13,0.066,0.147,0.074l1.173,0.565c0.077,0.035,0.273,0.106,0.382,0.109c0.019,0.008,0.158,0.017,0.176,0.02 c0.019,0.004,0.11,0.101,0.127,0.101c0.035,0.027,0.069,0.05,0.103,0.071c0.041,0.025,0.089,0.047,0.131,0.066 c0.012,0.007,0.042,0.015,0.055,0.021l0.005,0l0.045,0.038c0.022,0.042,0.403,0.258,0.453,0.283l1.398,0.666l0.098,0.046 l11.449,5.416l22.64-10.14c0.409-0.183,0.389-0.771-0.032-0.925l-13.56-4.996l-0.02-0.004c-0.109-0.039-0.558-0.202-0.922-0.338 c-0.025-0.009-0.087-0.034-0.174-0.065c0,0-0.216,0.063-0.442,0.106l-0.356-0.069l-0.304-0.185 c-0.01-0.129,0.064-0.232,0.064-0.232h0c-0.689-0.253-1.412-0.519-1.412-0.519c-0.222-0.084-0.456-0.126-0.69-0.126 C25.31,14.942,25.069,14.987,24.841,15.078z" opacity=".04"/><path d="M24.841,15.078L4.052,23.074c-0.001,0.75,0.312,1.517,0.957,1.856 c0.021,0.013,0.125,0.064,0.147,0.075l1.151,0.554c0.065,0.029,0.283,0.115,0.374,0.117c0.025,0.011,0.151,0.021,0.175,0.026 c0.026,0.005,0.111,0.087,0.133,0.087c0.036,0.022,0.071,0.041,0.106,0.058c0.041,0.021,0.09,0.039,0.132,0.055 c0.01,0.006,0.045,0.013,0.055,0.018l0.007,0.001l0.043,0.042c0.03,0.056,0.36,0.26,0.427,0.293l1.369,0.652l0.104,0.048 l11.559,5.467l22.606-10.125c0.409-0.183,0.389-0.771-0.032-0.925l-13.56-4.996l-0.02-0.004 c-0.109-0.039-0.558-0.202-0.922-0.338c-0.025-0.009-0.087-0.034-0.174-0.065c0,0-0.216,0.063-0.442,0.106l-0.356-0.069 l-0.304-0.185c-0.01-0.129,0.064-0.232,0.064-0.232h0c-0.689-0.253-1.412-0.519-1.412-0.519c-0.222-0.084-0.456-0.126-0.69-0.126 C25.31,14.942,25.069,14.987,24.841,15.078z" opacity=".05"/><path d="M24.841,15.078L4.052,23.074c0.013,0.736,0.322,1.481,0.953,1.822 c0.026,0.016,0.119,0.062,0.147,0.075l1.129,0.544c0.052,0.023,0.293,0.124,0.365,0.126c0.031,0.014,0.143,0.025,0.173,0.031 c0.032,0.006,0.112,0.072,0.139,0.072c0.038,0.018,0.074,0.033,0.108,0.046c0.041,0.016,0.092,0.031,0.133,0.043 c0.008,0.005,0.047,0.011,0.055,0.015l0.009,0.001l0.041,0.047c0.037,0.069,0.317,0.261,0.4,0.303l1.34,0.639l0.11,0.051 l11.668,5.519l22.573-10.11c0.409-0.183,0.389-0.771-0.032-0.925l-13.56-4.996l-0.02-0.004c-0.109-0.039-0.558-0.202-0.922-0.338 c-0.025-0.009-0.087-0.034-0.174-0.065c0,0-0.216,0.063-0.442,0.106l-0.356-0.069l-0.304-0.185 c-0.01-0.129,0.064-0.232,0.064-0.232h0c-0.689-0.253-1.412-0.519-1.412-0.519c-0.222-0.084-0.456-0.126-0.69-0.126 C25.31,14.942,25.069,14.987,24.841,15.078z" opacity=".06"/><path d="M24.841,15.078L4.052,23.074c0.027,0.722,0.331,1.446,0.948,1.788 c0.031,0.019,0.113,0.06,0.147,0.076l1.107,0.533c0.039,0.017,0.303,0.133,0.357,0.134c0.038,0.017,0.136,0.029,0.172,0.036 c0.039,0.007,0.112,0.058,0.146,0.058c0.039,0.014,0.076,0.024,0.11,0.033c0.041,0.011,0.094,0.023,0.133,0.032 c0.006,0.004,0.05,0.009,0.056,0.012l0.01,0.001l0.039,0.051c0.045,0.083,0.274,0.263,0.374,0.313l1.311,0.626l0.116,0.054 l11.778,5.571l22.54-10.095c0.409-0.183,0.389-0.771-0.032-0.925l-13.56-4.996l-0.02-0.004c-0.109-0.039-0.558-0.202-0.922-0.338 c-0.025-0.009-0.087-0.034-0.174-0.065c0,0-0.216,0.063-0.442,0.106l-0.356-0.069l-0.304-0.185 c-0.01-0.129,0.064-0.232,0.064-0.232h0c-0.689-0.253-1.412-0.519-1.412-0.519c-0.222-0.084-0.456-0.126-0.69-0.126 C25.31,14.942,25.069,14.987,24.841,15.078z" opacity=".07"/><path d="M24.841,15.078L4.052,23.074c0.04,0.707,0.341,1.41,0.944,1.755 c0.037,0.022,0.107,0.058,0.147,0.077l1.085,0.522c0.026,0.012,0.313,0.142,0.349,0.143c0.044,0.02,0.128,0.033,0.17,0.041 c0.045,0.008,0.113,0.043,0.152,0.044c0.04,0.009,0.078,0.015,0.112,0.021c0.042,0.007,0.096,0.015,0.134,0.021 c0.004,0.002,0.052,0.007,0.056,0.009l0.012,0.001l0.036,0.056c0.052,0.097,0.23,0.264,0.347,0.323l1.282,0.612l0.122,0.056 l11.888,5.623l22.506-10.08c0.409-0.183,0.389-0.771-0.032-0.925l-13.56-4.996l-0.02-0.004c-0.109-0.039-0.558-0.202-0.922-0.338 c-0.025-0.009-0.087-0.034-0.174-0.065c0,0-0.216,0.063-0.442,0.106l-0.356-0.069l-0.304-0.185 c-0.01-0.129,0.064-0.232,0.064-0.232h0c-0.689-0.253-1.412-0.519-1.412-0.519c-0.222-0.084-0.456-0.126-0.69-0.126 C25.31,14.942,25.069,14.987,24.841,15.078z" opacity=".08"/><path d="M24.841,15.078L4.052,23.074c0.054,0.693,0.35,1.374,0.94,1.721 c0.042,0.025,0.102,0.057,0.147,0.078l1.063,0.512c0.013,0.006,0.322,0.151,0.34,0.151c0.05,0.023,0.121,0.037,0.169,0.046 c0.052,0.01,0.113,0.029,0.158,0.029c0.042,0.005,0.081,0.006,0.115,0.008c0.042,0.002,0.098,0.007,0.135,0.01 c0.002,0.001,0.055,0.005,0.057,0.006l0.014,0.001l0.034,0.06c0.059,0.111,0.187,0.266,0.321,0.333l1.253,0.599l0.128,0.059 l11.998,5.675l22.473-10.065c0.409-0.183,0.389-0.771-0.032-0.925l-13.56-4.996l-0.02-0.004 c-0.109-0.039-0.558-0.202-0.922-0.338c-0.025-0.009-0.087-0.034-0.174-0.065c0,0-0.216,0.063-0.442,0.106l-0.356-0.069 l-0.304-0.185c-0.01-0.129,0.064-0.232,0.064-0.232h0c-0.689-0.253-1.412-0.519-1.412-0.519c-0.222-0.084-0.456-0.126-0.69-0.126 C25.31,14.942,25.069,14.987,24.841,15.078z" opacity=".09"/><path d="M43.365,21.372l-13.56-4.996l-0.02-0.004c-0.109-0.039-0.558-0.202-0.922-0.338 c-0.025-0.009-0.087-0.034-0.174-0.065c0,0-0.216,0.063-0.442,0.106l-0.356-0.069l-0.304-0.185 c-0.01-0.129,0.064-0.232,0.064-0.232h0c-0.689-0.253-1.412-0.519-1.412-0.519c-0.222-0.084-0.456-0.126-0.69-0.126 c-0.241,0-0.482,0.045-0.71,0.136L4.052,23.074c0.073,0.734,0.409,1.446,1.083,1.766l1.374,0.661 c0.17,0.076,0.337,0.069,0.448,0.062c0.042-0.001,0.1-0.001,0.136-0.001l0.072,0.004l0.032,0.065 c0.067,0.125,0.144,0.268,0.294,0.343l1.224,0.585l0.134,0.062l12.107,5.727l22.44-10.05 C43.805,22.114,43.785,21.527,43.365,21.372z" opacity=".1"/></g></g><g><path fill="#101030" d="M6.5,18.939L5.492,18.46c-0.348-0.17-0.64-0.206-0.81-0.102C4.567,18.431,4.5,18.579,4.5,18.766 v4.154c0,0.576,0.337,1.108,0.858,1.355l1.142,0.55V18.939z"/><linearGradient id="uR0K3Uf~8Ip6m1~PgLEVto" x1="8.125" x2="47.516" y1="23.97" y2="23.97" gradientUnits="userSpaceOnUse"><stop offset="0" stop-color="#1e88e5"/><stop offset=".357" stop-color="#1e88e5"/><stop offset=".37" stop-color="#1e88e5"/><stop offset=".377" stop-color="#1b77c7"/><stop offset=".384" stop-color="#1a6ab2"/><stop offset=".389" stop-color="#1966aa"/><stop offset="1" stop-color="#1863a6"/></linearGradient><path fill="url(#uR0K3Uf~8Ip6m1~PgLEVto)" d="M47.319,20.266l-13.534-5.333L7.996,24.995v1.106l14.194,6.714 c0.529,0.25,1.141,0.257,1.675,0.017c0,0,23.538-10.541,23.592-10.571c0.315-0.175,0.512-0.435,0.512-1.019 C47.969,20.537,47.319,20.266,47.319,20.266z"/><linearGradient id="uR0K3Uf~8Ip6m1~PgLEVtp" x1="16.907" x2="6.279" y1="20.663" y2="43.262" gradientUnits="userSpaceOnUse"><stop offset=".136" stop-color="#bfbeb0"/><stop offset=".169" stop-color="#e0decf"/><stop offset=".271" stop-color="#e0decf"/><stop offset=".277" stop-color="#d9d7c9"/><stop offset=".3" stop-color="#c7c5b8"/><stop offset=".323" stop-color="#bcbbad"/><stop offset=".349" stop-color="#b8b7aa"/></linearGradient><path fill="url(#uR0K3Uf~8Ip6m1~PgLEVtp)" d="M22.358,26.499L7.37,19.403C6.23,18.864,6,19.098,6,19.832v3.155 c0,0.789-0.089,1.001,0.658,1.366c0.084,0.041,16.329,7.752,16.329,7.752l0.002-0.009l0.002-0.001v-5.476 C22.749,26.618,22.525,26.578,22.358,26.499z"/><radialGradient id="uR0K3Uf~8Ip6m1~PgLEVtq" cx="20.274" cy="26.669" r="16.775" gradientTransform="matrix(.8726 .4884 -.3055 .5458 10.729 2.211)" gradientUnits="userSpaceOnUse"><stop offset=".875" stop-color="#b8b8ab" stop-opacity="0"/><stop offset=".984" stop-color="#afafa3" stop-opacity=".858"/><stop offset="1" stop-color="#adada1" stop-opacity=".98"/></radialGradient><path fill="url(#uR0K3Uf~8Ip6m1~PgLEVtq)" d="M22.358,26.499l-14.57-6.901L7.37,19.403C6.23,18.864,6,19.098,6,19.832v3.155 c0,0.789-0.089,1.001,0.658,1.366c0.084,0.041,16.329,7.752,16.329,7.752l0.002-0.009l0.002-0.001v-5.476 C22.749,26.618,22.525,26.578,22.358,26.499z"/><linearGradient id="uR0K3Uf~8Ip6m1~PgLEVtr" x1="32.483" x2="43.412" y1="18.036" y2="42.335" gradientUnits="userSpaceOnUse"><stop offset=".111" stop-color="#808076"/><stop offset=".128" stop-color="#86867c"/><stop offset=".151" stop-color="#97978c"/><stop offset=".177" stop-color="#b2b2a6"/><stop offset=".188" stop-color="#bfbfb2"/><stop offset=".285" stop-color="#bfbfb1"/><stop offset=".406" stop-color="#808077"/><stop offset=".498" stop-color="#86867d"/><stop offset=".621" stop-color="#96958e"/><stop offset=".762" stop-color="#b1b0aa"/><stop offset=".914" stop-color="#d7d4d0"/><stop offset="1" stop-color="#efebe9"/></linearGradient><path fill="url(#uR0K3Uf~8Ip6m1~PgLEVtr)" d="M46.469,18.891c0-1.445,0.615-2.519,1.016-3.071c-0.018,0.011-0.033,0.026-0.051,0.036 c-0.054,0.03-23.568,10.581-23.568,10.581c-0.337,0.151-0.698,0.195-1.015,0.171C22.579,26.85,22,27.546,22,29.122 c0,2.088,1,2.982,1,2.982l24.13-10.793c-0.006-0.013-0.011-0.02-0.017-0.033C47.114,21.278,46.469,20.606,46.469,18.891z"/><radialGradient id="uR0K3Uf~8Ip6m1~PgLEVts" cx="52.342" cy="23.339" r="31.272" gradientTransform="matrix(.9721 -.2345 .1092 .4528 -1.09 25.046)" gradientUnits="userSpaceOnUse"><stop offset=".907" stop-color="#b8b8ab" stop-opacity="0"/><stop offset=".944" stop-color="#b1b1a4" stop-opacity=".393"/><stop offset="1" stop-color="#adada1" stop-opacity=".98"/></radialGradient><path fill="url(#uR0K3Uf~8Ip6m1~PgLEVts)" d="M46.469,18.891c0-1.445,0.615-2.519,1.016-3.071c-0.018,0.011-0.033,0.026-0.051,0.036 c-0.054,0.03-23.568,10.581-23.568,10.581c-0.337,0.151-0.699,0.195-1.015,0.171C22.578,26.849,22,27.545,22,29.122 c0,2.088,1,2.982,1,2.982l24.13-10.793c-0.006-0.013-0.011-0.02-0.017-0.033C47.114,21.278,46.469,20.606,46.469,18.891z"/><path fill="#1e88e5" d="M47.319,14.372L32.644,8.969L7.5,18.865l0,0.598l14.858,7.036c0.362,0.172,0.974,0.178,1.508-0.061 L47.647,15.76c0-0.45,0-0.847-0.001-0.921C47.645,14.645,47.535,14.452,47.319,14.372z"/><path fill="#1e88e5" d="M44.457,15.261c-0.048,0.027-19.019,8.523-22.892,10.257l0,0c0,0,0.83,0.373,0.935,0.403 l1.909-0.855c20.344-9.112,20.365-9.124,20.412-9.15c0.604-0.336,0.898-0.884,0.898-1.675c0-0.178-0.031-0.337-0.073-0.486 l-1.324-0.488c0.019,0.008,0.647,0.28,0.647,0.974C44.969,14.826,44.772,15.086,44.457,15.261z"/><path fill="#1d83dd" d="M44.457,15.261c-0.048,0.027-19.019,8.523-22.892,10.257l0,0c0,0,0.754,0.34,0.847,0.366 l1.968-0.881c19.964-8.942,20.362-9.122,20.407-9.147c0.581-0.325,0.863-0.848,0.863-1.614c0-0.2-0.045-0.37-0.103-0.523 l-1.225-0.451c0.019,0.008,0.647,0.28,0.647,0.974C44.969,14.826,44.772,15.086,44.457,15.261z"/><path fill="#1c7ed3" d="M44.457,15.261c-0.048,0.027-19.019,8.523-22.892,10.257l0,0c0,0,0.679,0.306,0.76,0.329 l2.027-0.908c19.583-8.771,20.359-9.121,20.401-9.144c0.559-0.313,0.827-0.812,0.827-1.553c0-0.222-0.06-0.404-0.132-0.559 l-1.127-0.415c0.019,0.008,0.647,0.28,0.647,0.974C44.969,14.826,44.772,15.086,44.457,15.261z"/><path fill="#1a77c9" d="M44.457,15.261c-0.048,0.027-19.019,8.523-22.892,10.257l0,0c0,0,0.603,0.272,0.673,0.292 l2.086-0.934c19.203-8.601,20.356-9.119,20.396-9.142c0.537-0.3,0.791-0.777,0.791-1.493c0-0.244-0.075-0.438-0.161-0.595 l-1.028-0.379c0.019,0.008,0.647,0.28,0.647,0.974C44.969,14.826,44.772,15.086,44.457,15.261z"/><path fill="#1971bd" d="M44.457,15.261c-0.048,0.027-19.019,8.523-22.892,10.257l0,0c0,0,0.527,0.239,0.586,0.255 l2.144-0.961c18.822-8.43,20.352-9.118,20.391-9.139c0.515-0.288,0.756-0.741,0.756-1.432c0-0.266-0.09-0.471-0.19-0.632 l-0.929-0.342c0.019,0.008,0.647,0.28,0.647,0.974C44.969,14.826,44.772,15.086,44.457,15.261z"/><path fill="#1769b1" d="M44.457,15.261c-0.048,0.027-19.019,8.523-22.892,10.257l0,0c0,0,0.452,0.205,0.498,0.218 l2.203-0.987c18.442-8.26,20.349-9.116,20.386-9.136c0.493-0.276,0.72-0.705,0.72-1.371c0-0.288-0.105-0.505-0.22-0.668 l-0.83-0.306c0.019,0.008,0.647,0.28,0.647,0.974C44.969,14.826,44.772,15.086,44.457,15.261z"/><path fill="#1560a2" d="M44.457,15.261c-0.048,0.027-19.019,8.523-22.892,10.257l0,0c0,0,0.376,0.171,0.411,0.181 l2.262-1.014c18.061-8.089,20.346-9.114,20.38-9.134c0.471-0.263,0.684-0.67,0.684-1.311c0-0.31-0.12-0.538-0.249-0.705 l-0.732-0.27c0.019,0.008,0.647,0.28,0.647,0.974C44.969,14.826,44.772,15.086,44.457,15.261z"/><path fill="#145894" d="M44.457,15.261c-0.048,0.027-19.019,8.523-22.892,10.257l0,0c0,0,0.3,0.138,0.324,0.144 l2.321-1.04c17.681-7.919,20.343-9.113,20.375-9.131c0.449-0.251,0.649-0.634,0.649-1.25c0-0.332-0.135-0.572-0.278-0.741 l-0.633-0.233c0.019,0.008,0.647,0.28,0.647,0.974C44.969,14.826,44.772,15.086,44.457,15.261z"/><path fill="#114e83" d="M44.457,15.261c-0.048,0.027-19.019,8.523-22.892,10.257l0,0c0,0,0.225,0.104,0.236,0.107 l2.38-1.066c17.3-7.748,20.34-9.111,20.37-9.128c0.426-0.238,0.613-0.598,0.613-1.189c0-0.354-0.15-0.606-0.307-0.777 l-0.534-0.197c0.019,0.008,0.647,0.28,0.647,0.974C44.969,14.826,44.772,15.086,44.457,15.261z"/><path fill="#0f4472" d="M44.322,13.268c0.019,0.008,0.647,0.28,0.647,0.974c0,0.584-0.197,0.844-0.512,1.019 c-0.048,0.027-19.019,8.523-22.892,10.257l0,0l0.149,0.07l2.439-1.093c16.92-7.578,20.336-9.11,20.364-9.125 c0.405-0.225,0.577-0.563,0.577-1.128c0-0.376-0.165-0.639-0.337-0.814L44.322,13.268z"/><path fill="#1976d2" d="M32.818,9.034C32.793,9.025,32.731,9,32.644,8.969c0,0-0.751,0.221-0.919,0.116 c-0.357-0.224-0.119-0.497-0.119-0.497h0c-0.689-0.253-1.412-0.519-1.412-0.519c-0.45-0.17-0.95-0.17-1.4,0.01L5.14,17.191 C4.752,17.338,4,17.709,4,18.789l0.5,0.215v-0.239c0-0.187,0.066-0.335,0.182-0.407c0.168-0.104,0.462-0.068,0.81,0.102 l0.791,0.376c0.028,0.014,0.061,0.057,0.112,0.126c0.082,0.112,0.206,0.282,0.424,0.367c0.164,0.066,0.314,0.039,0.423,0.017 L8.5,19.935V19.34l25.284-9.951C33.785,9.388,33.232,9.189,32.818,9.034z"/><g><path fill="#1976d2" d="M6.865,19.113L32.644,8.969c-0.228-0.072-0.378,0.068-0.52,0.041 c-0.139-0.064-0.2-0.314-0.517-0.422L5.857,18.634L6.865,19.113z"/><path fill="#1976d1" d="M6.86,19.111L32.637,8.969c-0.224-0.07-0.373,0.068-0.513,0.041 c-0.136-0.062-0.197-0.307-0.506-0.413L5.873,18.641L6.86,19.111z"/><path fill="#1975d0" d="M6.856,19.108L32.63,8.969c-0.221-0.068-0.367,0.067-0.506,0.041 c-0.133-0.061-0.193-0.3-0.495-0.404L5.889,18.649L6.856,19.108z"/><path fill="#1975cf" d="M6.851,19.106L32.623,8.969c-0.217-0.065-0.362,0.067-0.499,0.041 c-0.131-0.06-0.189-0.293-0.485-0.395L5.905,18.656L6.851,19.106z"/><path fill="#1974ce" d="M6.846,19.104l25.77-10.135c-0.214-0.063-0.357,0.066-0.492,0.041 c-0.128-0.059-0.185-0.287-0.474-0.386L5.921,18.664L6.846,19.104z"/><path fill="#1974cd" d="M6.841,19.102L32.609,8.969c-0.21-0.061-0.351,0.066-0.485,0.041 c-0.125-0.057-0.182-0.28-0.463-0.377L5.937,18.672L6.841,19.102z"/><path fill="#1974cc" d="M6.837,19.099l25.765-10.13c-0.207-0.058-0.346,0.066-0.478,0.041 c-0.122-0.056-0.178-0.273-0.452-0.368L5.953,18.679L6.837,19.099z"/><path fill="#1973cb" d="M6.832,19.097L32.595,8.969c-0.204-0.056-0.341,0.065-0.471,0.041 c-0.119-0.055-0.174-0.266-0.441-0.359L5.968,18.687L6.832,19.097z"/><path fill="#1973ca" d="M6.827,19.095L32.588,8.969c-0.2-0.054-0.335,0.065-0.464,0.04 c-0.117-0.053-0.171-0.259-0.43-0.35L5.984,18.694L6.827,19.095z"/><path fill="#1972c9" d="M6.822,19.092L32.581,8.969c-0.197-0.051-0.33,0.064-0.457,0.04 c-0.114-0.052-0.167-0.252-0.419-0.341L6,18.702L6.822,19.092z"/><path fill="#1972c8" d="M6.818,19.09L32.574,8.969c-0.193-0.049-0.325,0.064-0.45,0.04 c-0.111-0.051-0.163-0.245-0.408-0.332L6.016,18.709L6.818,19.09z"/><path fill="#1972c7" d="M6.813,19.088L32.567,8.969c-0.19-0.047-0.319,0.064-0.443,0.04 c-0.108-0.05-0.16-0.238-0.398-0.323L6.032,18.717L6.813,19.088z"/><path fill="#1971c6" d="M6.808,19.086L32.56,8.969c-0.186-0.044-0.314,0.063-0.436,0.04 c-0.106-0.048-0.156-0.231-0.387-0.314L6.048,18.724L6.808,19.086z"/><path fill="#1971c5" d="M6.803,19.083L32.553,8.969c-0.183-0.042-0.309,0.063-0.429,0.04 c-0.103-0.047-0.152-0.224-0.376-0.305L6.064,18.732L6.803,19.083z"/><path fill="#1971c4" d="M6.799,19.081L32.546,8.97c-0.179-0.04-0.303,0.062-0.422,0.04 c-0.1-0.046-0.149-0.218-0.365-0.296L6.08,18.739L6.799,19.081z"/><path fill="#1970c3" d="M6.794,19.079L32.539,8.97c-0.176-0.037-0.298,0.062-0.415,0.04 c-0.097-0.045-0.145-0.211-0.354-0.287L6.095,18.747L6.794,19.079z"/><path fill="#1970c2" d="M6.789,19.077L32.532,8.97c-0.172-0.035-0.293,0.062-0.408,0.04 c-0.094-0.043-0.141-0.204-0.343-0.278L6.111,18.754L6.789,19.077z"/><path fill="#196fc1" d="M6.784,19.074L32.525,8.97c-0.169-0.033-0.287,0.061-0.401,0.04 c-0.092-0.042-0.138-0.197-0.332-0.269L6.127,18.762L6.784,19.074z"/><path fill="#196fc0" d="M6.78,19.072L32.518,8.97c-0.165-0.03-0.282,0.061-0.394,0.04c-0.089-0.041-0.134-0.19-0.322-0.26 L6.143,18.77L6.78,19.072z"/><path fill="#196fbf" d="M6.775,19.07l25.736-10.1c-0.162-0.028-0.277,0.06-0.387,0.04 c-0.086-0.039-0.13-0.183-0.311-0.251L6.159,18.777L6.775,19.07z"/><path fill="#196ebe" d="M6.77,19.068L32.504,8.97c-0.158-0.026-0.272,0.06-0.38,0.04c-0.083-0.038-0.127-0.176-0.3-0.242 L6.175,18.785L6.77,19.068z"/><path fill="#196ebe" d="M6.765,19.065L32.497,8.97c-0.155-0.024-0.266,0.06-0.373,0.04 c-0.081-0.037-0.123-0.169-0.289-0.233L6.191,18.792L6.765,19.065z"/><path fill="#196dbd" d="M6.761,19.063L32.49,8.97c-0.151-0.021-0.261,0.059-0.366,0.039 c-0.078-0.036-0.119-0.162-0.278-0.224L6.206,18.8L6.761,19.063z"/><path fill="#196dbc" d="M6.756,19.061L32.482,8.97c-0.148-0.019-0.256,0.059-0.359,0.039 c-0.075-0.034-0.116-0.156-0.267-0.215L6.222,18.807L6.756,19.061z"/><path fill="#196dbb" d="M6.751,19.059L32.475,8.97c-0.144-0.017-0.25,0.059-0.352,0.039 c-0.072-0.033-0.112-0.149-0.256-0.206L6.238,18.815L6.751,19.059z"/><path fill="#196cba" d="M6.746,19.056L32.468,8.97c-0.141-0.014-0.245,0.058-0.345,0.039 c-0.069-0.032-0.108-0.142-0.245-0.197L6.254,18.822L6.746,19.056z"/><path fill="#196cb9" d="M6.742,19.054L32.461,8.97c-0.137-0.012-0.24,0.058-0.337,0.039 c-0.067-0.031-0.105-0.135-0.235-0.188L6.27,18.83L6.742,19.054z"/><path fill="#196bb8" d="M6.737,19.052L32.454,8.97c-0.134-0.01-0.234,0.057-0.33,0.039 C32.06,8.98,32.023,8.882,31.9,8.831L6.286,18.837L6.737,19.052z"/><path fill="#196bb7" d="M6.732,19.05L32.447,8.971c-0.131-0.007-0.229,0.057-0.323,0.039 c-0.061-0.028-0.097-0.121-0.213-0.17L6.302,18.845L6.732,19.05z"/><path fill="#196bb6" d="M6.727,19.047L32.44,8.971c-0.127-0.005-0.224,0.057-0.316,0.039 c-0.058-0.027-0.094-0.114-0.202-0.161L6.317,18.853L6.727,19.047z"/><path fill="#196ab5" d="M6.723,19.045L32.433,8.971c-0.124-0.003-0.218,0.056-0.309,0.039 c-0.056-0.025-0.09-0.107-0.191-0.152L6.333,18.86L6.723,19.045z"/><path fill="#196ab4" d="M6.718,19.043L32.426,8.971c-0.12,0-0.213,0.056-0.302,0.039c-0.053-0.024-0.086-0.1-0.18-0.143 L6.349,18.868L6.718,19.043z"/><path fill="#196ab3" d="M6.713,19.041l25.706-10.07c-0.117,0.002-0.208,0.055-0.295,0.039 c-0.05-0.023-0.083-0.093-0.169-0.134l-25.589,10L6.713,19.041z"/><path fill="#1969b2" d="M6.708,19.038L32.412,8.971c-0.113,0.004-0.202,0.055-0.288,0.039 c-0.047-0.022-0.079-0.087-0.158-0.125L6.381,18.883L6.708,19.038z"/><path fill="#1969b1" d="M6.704,19.036L32.405,8.971c-0.11,0.007-0.197,0.055-0.281,0.039 c-0.045-0.02-0.075-0.08-0.148-0.116L6.397,18.89L6.704,19.036z"/><path fill="#1968b0" d="M6.699,19.034L32.398,8.971c-0.106,0.009-0.192,0.054-0.274,0.039 c-0.042-0.019-0.072-0.073-0.137-0.107L6.413,18.898L6.699,19.034z"/><path fill="#1968af" d="M6.694,19.032l25.697-10.06c-0.103,0.011-0.186,0.054-0.267,0.038 c-0.039-0.018-0.068-0.066-0.126-0.098l-25.57,9.994L6.694,19.032z"/><path fill="#1968ae" d="M6.689,19.029L32.384,8.971c-0.099,0.014-0.181,0.053-0.26,0.038 c-0.036-0.017-0.064-0.059-0.115-0.089L6.444,18.913L6.689,19.029z"/><path fill="#1967ad" d="M6.685,19.027L32.377,8.971c-0.096,0.016-0.176,0.053-0.253,0.038 c-0.033-0.015-0.061-0.052-0.104-0.08L6.46,18.92L6.685,19.027z"/><path fill="#1967ac" d="M6.68,19.025L32.37,8.971c-0.092,0.018-0.17,0.053-0.246,0.038 c-0.031-0.014-0.057-0.045-0.093-0.071L6.476,18.928L6.68,19.025z"/><path fill="#1966ab" d="M6.675,19.023L32.363,8.971c-0.089,0.02-0.165,0.052-0.239,0.038 c-0.028-0.013-0.053-0.038-0.082-0.062l-25.55,9.988L6.675,19.023z"/><path fill="#1966aa" d="M6.67,19.02L32.356,8.971c-0.085,0.023-0.16,0.052-0.232,0.038 c-0.025-0.011-0.049-0.031-0.071-0.053L6.508,18.943L6.67,19.02z"/></g><linearGradient id="uR0K3Uf~8Ip6m1~PgLEVtt" x1="7.662" x2="48.126" y1="20.748" y2="20.748" gradientUnits="userSpaceOnUse"><stop offset="0" stop-color="#0c66b3"/><stop offset=".357" stop-color="#0c66b3"/><stop offset=".357" stop-color="#0c66b4"/><stop offset=".365" stop-color="#066ec9"/><stop offset=".37" stop-color="#0471d1"/><stop offset=".373" stop-color="#096ec7"/><stop offset=".383" stop-color="#1568b2"/><stop offset=".389" stop-color="#1966aa"/><stop offset="1" stop-color="#1863a6"/></linearGradient><path fill="url(#uR0K3Uf~8Ip6m1~PgLEVtt)" d="M47.319,14.372c0.42,0.155,0.44,0.742,0.032,0.925v0L23.865,25.832 c-0.534,0.239-1.146,0.233-1.674-0.018L7.5,18.865l0.001,1.096l14.857,7.037c0.362,0.172,0.974,0.178,1.508-0.061 c0,0,23.514-10.551,23.568-10.581c0.315-0.175,0.53-0.435,0.53-1.019C47.964,14.557,47.32,14.372,47.319,14.372z"/><linearGradient id="uR0K3Uf~8Ip6m1~PgLEVtu" x1="27.718" x2="36.204" y1="17.416" y2="29.473" gradientUnits="userSpaceOnUse"><stop offset="0"/><stop offset=".371" stop-opacity="0"/></linearGradient><path fill="url(#uR0K3Uf~8Ip6m1~PgLEVtu)" d="M47.434,16.356c0.315-0.175,0.53-0.435,0.53-1.019c0-0.77-0.625-0.959-0.642-0.964l0,0.001 c0.417,0.157,0.436,0.74,0.029,0.923v0L24.103,25.725l-0.192,0.107c-0.273,0.123-0.567,0.179-0.86,0.172 c-0.294,0.001-0.588-0.061-0.86-0.19L7.546,18.887l0.001,1.075l14.857,7.037c0.362,0.172,0.974,0.178,1.507-0.061 c0,0,23.156-10.39,23.551-10.574C47.445,16.359,47.433,16.356,47.434,16.356z"/><path fill="#1966aa" d="M5.521,19.035l1.017,0.478c0.231,0.137,0.294,0.383,0.467,0.451 c0.073,0.029,0.298-0.077,0.478-0.007L8.5,20.436V19.34l-0.999-0.478l0,0.001c-0.183-0.086-0.422,0.032-0.497,0.002 c-0.184-0.072-0.236-0.352-0.506-0.481l0.003-0.001l-0.796-0.376C4.636,17.483,4,18.032,4,18.766v4.154 c0,0.773,0.445,1.477,1.144,1.807l1.367,0.658c0.266,0.12,0.51-0.007,0.679,0.089c0.07,0.04,0.128,0.296,0.308,0.386L8.5,26.343 v-1.112l-0.999-0.48l0,0c-0.182-0.088-0.24-0.348-0.311-0.388c-0.172-0.097-0.42,0.036-0.689-0.092l-0.929-0.446 C5.223,23.659,5,23.307,5,22.921v-3.639C5,19.098,5.116,18.844,5.521,19.035z"/></g><g><path fill="#103014" d="M3.5,11.939L2.492,11.46c-0.348-0.17-0.64-0.206-0.81-0.102C1.567,11.431,1.5,11.579,1.5,11.766 v4.154c0,0.576,0.337,1.108,0.858,1.355l1.142,0.55V11.939z"/><linearGradient id="uR0K3Uf~8Ip6m1~PgLEVtv" x1="5.125" x2="44.516" y1="16.97" y2="16.97" gradientUnits="userSpaceOnUse"><stop offset="0" stop-color="#43a047"/><stop offset=".357" stop-color="#43a047"/><stop offset=".37" stop-color="#43a047"/><stop offset=".372" stop-color="#3f9a43"/><stop offset=".382" stop-color="#338537"/><stop offset=".389" stop-color="#2e7d32"/><stop offset="1" stop-color="#2e7d32"/></linearGradient><path fill="url(#uR0K3Uf~8Ip6m1~PgLEVtv)" d="M44.319,13.266L30.785,7.933L4.996,17.995v1.106l14.194,6.714 c0.529,0.25,1.141,0.257,1.675,0.017c0,0,23.538-10.541,23.592-10.571c0.315-0.175,0.512-0.435,0.512-1.019 C44.969,13.537,44.319,13.266,44.319,13.266z"/><linearGradient id="uR0K3Uf~8Ip6m1~PgLEVtw" x1="13.907" x2="3.28" y1="13.663" y2="36.262" gradientUnits="userSpaceOnUse"><stop offset=".136" stop-color="#bfbeb0"/><stop offset=".169" stop-color="#e0decf"/><stop offset=".271" stop-color="#e0decf"/><stop offset=".277" stop-color="#d9d7c9"/><stop offset=".3" stop-color="#c7c5b8"/><stop offset=".323" stop-color="#bcbbad"/><stop offset=".349" stop-color="#b8b7aa"/></linearGradient><path fill="url(#uR0K3Uf~8Ip6m1~PgLEVtw)" d="M19.358,19.499L4.37,12.403C3.23,11.864,3,12.098,3,12.832v3.155 c0,0.789-0.089,1.001,0.658,1.366c0.084,0.041,16.329,7.752,16.329,7.752l0.002-0.009l0.002-0.001v-5.476 C19.749,19.618,19.525,19.578,19.358,19.499z"/><radialGradient id="uR0K3Uf~8Ip6m1~PgLEVtx" cx="17.274" cy="19.669" r="16.775" gradientTransform="matrix(.8726 .4884 -.3055 .5458 8.208 .497)" gradientUnits="userSpaceOnUse"><stop offset=".875" stop-color="#b8b8ab" stop-opacity="0"/><stop offset=".984" stop-color="#afafa3" stop-opacity=".858"/><stop offset="1" stop-color="#adada1" stop-opacity=".98"/></radialGradient><path fill="url(#uR0K3Uf~8Ip6m1~PgLEVtx)" d="M19.358,19.499l-14.57-6.901L4.37,12.403C3.23,11.864,3,12.098,3,12.832v3.155 c0,0.789-0.089,1.001,0.658,1.366c0.084,0.041,16.329,7.752,16.329,7.752l0.002-0.009l0.002-0.001v-5.476 C19.749,19.618,19.525,19.578,19.358,19.499z"/><linearGradient id="uR0K3Uf~8Ip6m1~PgLEVty" x1="29.483" x2="40.412" y1="11.036" y2="35.335" gradientUnits="userSpaceOnUse"><stop offset=".111" stop-color="#808076"/><stop offset=".128" stop-color="#86867c"/><stop offset=".151" stop-color="#97978c"/><stop offset=".177" stop-color="#b2b2a6"/><stop offset=".188" stop-color="#bfbfb2"/><stop offset=".285" stop-color="#bfbfb1"/><stop offset=".406" stop-color="#808077"/><stop offset=".498" stop-color="#86867d"/><stop offset=".621" stop-color="#96958e"/><stop offset=".762" stop-color="#b1b0aa"/><stop offset=".914" stop-color="#d7d4d0"/><stop offset="1" stop-color="#efebe9"/></linearGradient><path fill="url(#uR0K3Uf~8Ip6m1~PgLEVty)" d="M43.469,11.891c0-1.445,0.615-2.519,1.016-3.071c-0.018,0.011-0.033,0.026-0.051,0.036 c-0.054,0.03-23.568,10.581-23.568,10.581c-0.337,0.151-0.698,0.195-1.015,0.171C19.579,19.85,19,20.546,19,22.122 c0,2.088,1,2.982,1,2.982l24.13-10.793c-0.006-0.013-0.011-0.02-0.017-0.033C44.114,14.278,43.469,13.606,43.469,11.891z"/><radialGradient id="uR0K3Uf~8Ip6m1~PgLEVtz" cx="49.342" cy="16.339" r="31.272" gradientTransform="matrix(.9721 -.2345 .1092 .4528 -.409 20.512)" gradientUnits="userSpaceOnUse"><stop offset=".907" stop-color="#b8b8ab" stop-opacity="0"/><stop offset=".944" stop-color="#b1b1a4" stop-opacity=".393"/><stop offset="1" stop-color="#adada1" stop-opacity=".98"/></radialGradient><path fill="url(#uR0K3Uf~8Ip6m1~PgLEVtz)" d="M43.469,11.891c0-1.445,0.615-2.519,1.016-3.071c-0.018,0.011-0.033,0.026-0.051,0.036 c-0.054,0.03-23.568,10.581-23.568,10.581c-0.337,0.151-0.699,0.195-1.015,0.171C19.578,19.849,19,20.545,19,22.122 c0,2.088,1,2.982,1,2.982l24.13-10.793c-0.006-0.013-0.011-0.02-0.017-0.033C44.114,14.278,43.469,13.606,43.469,11.891z"/><path fill="#66c26a" d="M44.319,7.372L29.644,1.969L4.5,11.865l0,0.598l14.858,7.036c0.362,0.172,0.974,0.178,1.508-0.061 L44.647,8.76c0-0.45,0-0.847-0.001-0.921C44.645,7.645,44.535,7.452,44.319,7.372z"/><path fill="#43a047" d="M29.818,2.034C29.793,2.025,29.731,2,29.644,1.969c0,0-0.751,0.221-0.919,0.116 c-0.357-0.224-0.119-0.497-0.119-0.497h0c-0.689-0.253-1.412-0.519-1.412-0.519c-0.45-0.17-0.95-0.17-1.4,0.01L2.14,10.191 C1.752,10.338,1,10.709,1,11.789l0.5,0.215v-0.239c0-0.187,0.066-0.335,0.182-0.407c0.168-0.104,0.462-0.068,0.81,0.102 l0.791,0.376c0.028,0.014,0.061,0.057,0.112,0.126c0.082,0.112,0.206,0.282,0.424,0.367c0.164,0.066,0.314,0.039,0.423,0.017 L5.5,12.935V12.34l25.284-9.951C30.785,2.388,30.232,2.189,29.818,2.034z"/><g><path fill="#43a047" d="M3.865,12.113L29.644,1.969c-0.228-0.072-0.378,0.068-0.52,0.041 c-0.139-0.064-0.2-0.314-0.517-0.422L2.857,11.634L3.865,12.113z"/><path fill="#439f47" d="M3.861,12.111L29.639,1.969c-0.225-0.07-0.374,0.068-0.515,0.041 c-0.137-0.063-0.197-0.309-0.508-0.415L2.87,11.64L3.861,12.111z"/><path fill="#429e46" d="M3.857,12.109l25.776-10.14C29.411,1.9,29.264,2.036,29.124,2.01 c-0.134-0.062-0.194-0.303-0.5-0.407L2.883,11.646L3.857,12.109z"/><path fill="#429d46" d="M3.854,12.107L29.627,1.969c-0.219-0.067-0.365,0.067-0.503,0.041 c-0.132-0.061-0.191-0.298-0.491-0.4L2.896,11.652L3.854,12.107z"/><path fill="#429c46" d="M3.85,12.106L29.622,1.969c-0.217-0.065-0.361,0.067-0.498,0.041 c-0.13-0.06-0.188-0.292-0.482-0.393L2.908,11.658L3.85,12.106z"/><path fill="#419b45" d="M3.846,12.104l25.77-10.135c-0.214-0.063-0.357,0.066-0.492,0.041 c-0.128-0.059-0.185-0.286-0.474-0.386L2.921,11.664L3.846,12.104z"/><path fill="#419a45" d="M3.842,12.102L29.61,1.969c-0.211-0.061-0.352,0.066-0.486,0.041 c-0.125-0.058-0.182-0.281-0.465-0.378L2.934,11.67L3.842,12.102z"/><path fill="#419945" d="M3.838,12.1L29.605,1.969c-0.208-0.059-0.348,0.066-0.481,0.041 c-0.123-0.056-0.18-0.275-0.456-0.371L2.947,11.676L3.838,12.1z"/><path fill="#409844" d="M3.835,12.098L29.599,1.969c-0.205-0.057-0.344,0.065-0.475,0.041 c-0.121-0.055-0.177-0.27-0.447-0.364L2.959,11.682L3.835,12.098z"/><path fill="#409744" d="M3.831,12.096L29.593,1.969c-0.203-0.055-0.339,0.065-0.469,0.041 c-0.119-0.054-0.174-0.264-0.439-0.357L2.972,11.688L3.831,12.096z"/><path fill="#409644" d="M3.827,12.095L29.588,1.969c-0.2-0.054-0.335,0.065-0.464,0.04 c-0.117-0.053-0.171-0.259-0.43-0.35L2.985,11.694L3.827,12.095z"/><path fill="#3f9543" d="M3.823,12.093L29.582,1.969c-0.197-0.052-0.331,0.065-0.458,0.04 c-0.114-0.052-0.168-0.253-0.421-0.342L2.998,11.701L3.823,12.093z"/><path fill="#3f9443" d="M3.819,12.091L29.576,1.969c-0.194-0.05-0.327,0.064-0.452,0.04 c-0.112-0.051-0.165-0.248-0.412-0.335L3.01,11.707L3.819,12.091z"/><path fill="#3f9343" d="M3.815,12.089l25.755-10.12c-0.192-0.048-0.322,0.064-0.447,0.04 c-0.11-0.05-0.162-0.242-0.404-0.328L3.023,11.713L3.815,12.089z"/><path fill="#3e9242" d="M3.812,12.087L29.565,1.969c-0.189-0.046-0.318,0.064-0.441,0.04 c-0.108-0.049-0.159-0.237-0.395-0.321L3.036,11.719L3.812,12.087z"/><path fill="#3e9142" d="M3.808,12.086L29.559,1.969c-0.186-0.044-0.314,0.063-0.436,0.04 c-0.105-0.048-0.156-0.231-0.386-0.313L3.049,11.725L3.808,12.086z"/><path fill="#3e9042" d="M3.804,12.084l25.75-10.114c-0.183-0.042-0.309,0.063-0.43,0.04 c-0.103-0.047-0.153-0.225-0.377-0.306L3.061,11.731L3.804,12.084z"/><path fill="#3d8f41" d="M3.8,12.082L29.548,1.97c-0.18-0.041-0.305,0.063-0.424,0.04c-0.101-0.046-0.15-0.22-0.369-0.299 L3.074,11.737L3.8,12.082z"/><path fill="#3d8e41" d="M3.796,12.08L29.542,1.97c-0.178-0.039-0.301,0.062-0.419,0.04 c-0.099-0.045-0.147-0.214-0.36-0.292L3.087,11.743L3.796,12.08z"/><path fill="#3d8d41" d="M3.793,12.078L29.537,1.97c-0.175-0.037-0.297,0.062-0.413,0.04 c-0.096-0.044-0.144-0.209-0.351-0.284L3.1,11.749L3.793,12.078z"/><path fill="#3c8c40" d="M3.789,12.077L29.531,1.97c-0.172-0.035-0.292,0.062-0.407,0.04 c-0.094-0.043-0.141-0.203-0.342-0.277L3.113,11.755L3.789,12.077z"/><path fill="#3c8b40" d="M3.785,12.075L29.526,1.97c-0.169-0.033-0.288,0.061-0.402,0.04 c-0.092-0.042-0.138-0.198-0.334-0.27L3.125,11.761L3.785,12.075z"/><path fill="#3c8a40" d="M3.781,12.073L29.52,1.97c-0.166-0.031-0.284,0.061-0.396,0.04 c-0.09-0.041-0.135-0.192-0.325-0.263L3.138,11.767L3.781,12.073z"/><path fill="#3b893f" d="M3.777,12.071L29.514,1.97c-0.164-0.029-0.28,0.061-0.39,0.04 c-0.088-0.04-0.132-0.187-0.316-0.256L3.151,11.773L3.777,12.071z"/><path fill="#3b893f" d="M3.773,12.069L29.509,1.97c-0.161-0.027-0.275,0.06-0.385,0.04 c-0.085-0.039-0.129-0.181-0.307-0.248L3.164,11.779L3.773,12.069z"/><path fill="#3b883f" d="M3.77,12.067L29.503,1.97c-0.158-0.026-0.271,0.06-0.379,0.04 c-0.083-0.038-0.126-0.176-0.299-0.241L3.176,11.785L3.77,12.067z"/><path fill="#3a873e" d="M3.766,12.066L29.497,1.97c-0.155-0.024-0.267,0.06-0.373,0.04 c-0.081-0.037-0.123-0.17-0.29-0.234L3.189,11.791L3.766,12.066z"/><path fill="#3a863e" d="M3.762,12.064L29.492,1.97c-0.152-0.022-0.262,0.059-0.368,0.039 c-0.079-0.036-0.12-0.164-0.281-0.227L3.202,11.798L3.762,12.064z"/><path fill="#3a853e" d="M3.758,12.062L29.486,1.97c-0.15-0.02-0.258,0.059-0.362,0.039 c-0.076-0.035-0.117-0.159-0.272-0.219L3.215,11.804L3.758,12.062z"/><path fill="#39843e" d="M3.754,12.06L29.48,1.97c-0.147-0.018-0.254,0.059-0.356,0.039 c-0.074-0.034-0.115-0.153-0.264-0.212L3.227,11.81L3.754,12.06z"/><path fill="#39833d" d="M3.751,12.058L29.475,1.97c-0.144-0.016-0.25,0.058-0.351,0.039 c-0.072-0.033-0.112-0.148-0.255-0.205L3.24,11.816L3.751,12.058z"/><path fill="#39823d" d="M3.747,12.057L29.469,1.97c-0.141-0.014-0.245,0.058-0.345,0.039 c-0.07-0.032-0.109-0.142-0.246-0.198L3.253,11.822L3.747,12.057z"/><path fill="#38813d" d="M3.743,12.055L29.463,1.97c-0.138-0.013-0.241,0.058-0.339,0.039 c-0.067-0.031-0.106-0.137-0.238-0.19L3.266,11.828L3.743,12.055z"/><path fill="#38803c" d="M3.739,12.053L29.458,1.97c-0.136-0.011-0.237,0.058-0.334,0.039 c-0.065-0.03-0.103-0.131-0.229-0.183L3.278,11.834L3.739,12.053z"/><path fill="#387f3c" d="M3.735,12.051L29.452,1.97c-0.133-0.009-0.233,0.057-0.328,0.039 c-0.063-0.029-0.1-0.126-0.22-0.176L3.291,11.84L3.735,12.051z"/><path fill="#377e3c" d="M3.731,12.049L29.446,1.971c-0.13-0.007-0.228,0.057-0.322,0.039 c-0.061-0.028-0.097-0.12-0.211-0.169L3.304,11.846L3.731,12.049z"/><path fill="#377d3b" d="M3.728,12.047L29.441,1.971c-0.127-0.005-0.224,0.057-0.317,0.039 c-0.059-0.027-0.094-0.115-0.203-0.162L3.317,11.852L3.728,12.047z"/><path fill="#377c3b" d="M3.724,12.046L29.435,1.971c-0.124-0.003-0.22,0.056-0.311,0.039 c-0.056-0.026-0.091-0.109-0.194-0.154L3.329,11.858L3.724,12.046z"/><path fill="#367b3b" d="M3.72,12.044L29.429,1.971c-0.122-0.001-0.215,0.056-0.305,0.039 c-0.054-0.025-0.088-0.103-0.185-0.147L3.342,11.864L3.72,12.044z"/><path fill="#367a3a" d="M3.716,12.042L29.424,1.971c-0.119,0-0.211,0.056-0.3,0.039c-0.052-0.024-0.085-0.098-0.176-0.14 L3.355,11.87L3.716,12.042z"/><path fill="#36793a" d="M3.712,12.04L29.418,1.971c-0.116,0.002-0.207,0.055-0.294,0.039 c-0.05-0.023-0.082-0.092-0.168-0.133L3.368,11.876L3.712,12.04z"/><path fill="#35783a" d="M3.709,12.038L29.412,1.971c-0.113,0.004-0.203,0.055-0.289,0.039 c-0.047-0.022-0.079-0.087-0.159-0.125L3.38,11.882L3.709,12.038z"/><path fill="#357739" d="M3.705,12.037L29.407,1.971c-0.11,0.006-0.198,0.055-0.283,0.039 c-0.045-0.021-0.076-0.081-0.15-0.118L3.393,11.888L3.705,12.037z"/><path fill="#347639" d="M3.701,12.035l25.7-10.064c-0.108,0.008-0.194,0.054-0.277,0.039 c-0.043-0.02-0.073-0.076-0.141-0.111L3.406,11.894L3.701,12.035z"/><path fill="#347539" d="M3.697,12.033L29.395,1.971c-0.105,0.01-0.19,0.054-0.272,0.039 c-0.041-0.019-0.07-0.07-0.133-0.104L3.419,11.901L3.697,12.033z"/><path fill="#347438" d="M3.693,12.031L29.39,1.971c-0.102,0.012-0.185,0.054-0.266,0.038 C29.085,1.992,29.057,1.945,29,1.913L3.431,11.907L3.693,12.031z"/><path fill="#337338" d="M3.689,12.029L29.384,1.971c-0.099,0.013-0.181,0.053-0.26,0.038 C29.088,1.993,29.06,1.95,29.009,1.92L3.444,11.913L3.689,12.029z"/><path fill="#337238" d="M3.686,12.028L29.379,1.971c-0.097,0.015-0.177,0.053-0.255,0.038 c-0.034-0.016-0.061-0.054-0.106-0.082L3.457,11.919L3.686,12.028z"/><path fill="#337137" d="M3.682,12.026L29.373,1.971C29.279,1.988,29.2,2.024,29.124,2.01 c-0.032-0.015-0.058-0.048-0.098-0.075L3.47,11.925L3.682,12.026z"/><path fill="#327037" d="M3.678,12.024L29.367,1.971c-0.091,0.019-0.168,0.052-0.243,0.038 c-0.03-0.014-0.055-0.042-0.089-0.068L3.482,11.931L3.678,12.024z"/><path fill="#326f37" d="M3.674,12.022L29.362,1.971c-0.088,0.021-0.164,0.052-0.238,0.038 c-0.027-0.012-0.052-0.037-0.08-0.06L3.495,11.937L3.674,12.022z"/><path fill="#326e36" d="M3.67,12.02L29.356,1.971c-0.085,0.023-0.16,0.052-0.232,0.038 c-0.025-0.011-0.049-0.031-0.071-0.053L3.508,11.943L3.67,12.02z"/></g><linearGradient id="uR0K3Uf~8Ip6m1~PgLEVtA" x1="4.662" x2="45.126" y1="13.748" y2="13.748" gradientUnits="userSpaceOnUse"><stop offset="0" stop-color="#43a047"/><stop offset=".357" stop-color="#43a047"/><stop offset=".37" stop-color="#43a047"/><stop offset=".372" stop-color="#3f9a43"/><stop offset=".382" stop-color="#338537"/><stop offset=".389" stop-color="#2e7d32"/><stop offset="1" stop-color="#2e7d32"/></linearGradient><path fill="url(#uR0K3Uf~8Ip6m1~PgLEVtA)" d="M44.319,7.372c0.42,0.155,0.44,0.742,0.032,0.925v0L20.865,18.832 c-0.534,0.239-1.146,0.233-1.674-0.018L4.5,11.865l0.001,1.096l14.857,7.037c0.362,0.172,0.974,0.178,1.508-0.061 c0,0,23.514-10.551,23.568-10.581c0.315-0.175,0.53-0.435,0.53-1.019C44.964,7.557,44.32,7.372,44.319,7.372z"/><path fill="#326e36" d="M2.521,12.035l1.017,0.478c0.231,0.137,0.294,0.383,0.467,0.451 c0.073,0.029,0.298-0.077,0.478-0.007L5.5,13.436V12.34l-0.999-0.478l0,0.001c-0.183-0.086-0.422,0.032-0.497,0.002 c-0.184-0.072-0.236-0.352-0.506-0.481l0.003-0.001l-0.796-0.376C1.636,10.483,1,11.032,1,11.766v4.154 c0,0.773,0.445,1.477,1.144,1.807l1.367,0.658c0.266,0.12,0.51-0.007,0.679,0.089c0.07,0.04,0.128,0.296,0.308,0.386L5.5,19.343 v-1.112l-0.999-0.48l0,0c-0.182-0.088-0.24-0.348-0.311-0.388c-0.172-0.097-0.42,0.036-0.689-0.092l-0.929-0.446 C2.223,16.659,2,16.307,2,15.921v-3.639C2,12.098,2.116,11.844,2.521,12.035z"/></g></svg>