<svg xmlns="http://www.w3.org/2000/svg" viewBox="0 0 48 48"><path fill="#707070" d="M37.315,8.833L4.446,3.894C4.229,3.861,4.079,3.659,4.112,3.442C4.144,3.228,4.341,3.08,4.554,3.106 L37.54,7.189c0.455,0.056,0.778,0.471,0.722,0.926c-0.056,0.455-0.471,0.778-0.926,0.722C37.33,8.835,37.32,8.834,37.315,8.833z"/><path fill="#717171" d="M37.336,8.802L4.453,3.876C4.246,3.845,4.103,3.652,4.134,3.445c0.031-0.203,0.218-0.345,0.421-0.32 l32.996,4.11c0.433,0.054,0.741,0.448,0.687,0.882c-0.054,0.433-0.448,0.741-0.882,0.687C37.351,8.804,37.342,8.803,37.336,8.802z"/><path fill="#737373" d="M37.358,8.771L4.459,3.859c-0.197-0.03-0.332-0.213-0.302-0.409c0.029-0.193,0.207-0.327,0.4-0.304 l33.005,4.138c0.412,0.051,0.704,0.426,0.653,0.837c-0.051,0.412-0.426,0.704-0.837,0.653C37.372,8.773,37.364,8.772,37.358,8.771z"/><path fill="#747474" d="M37.38,8.74L4.466,3.841C4.28,3.813,4.151,3.639,4.179,3.453c0.028-0.183,0.196-0.31,0.379-0.288 L37.573,7.33c0.39,0.048,0.667,0.403,0.619,0.793c-0.048,0.39-0.403,0.667-0.793,0.619C37.394,8.741,37.385,8.74,37.38,8.74z"/><path fill="#767676" d="M37.402,8.708L4.472,3.823c-0.176-0.026-0.297-0.19-0.271-0.366C4.228,3.284,4.387,3.164,4.56,3.185 l33.025,4.192c0.368,0.046,0.63,0.381,0.584,0.749c-0.046,0.368-0.381,0.63-0.749,0.584C37.415,8.71,37.407,8.709,37.402,8.708z"/><path fill="#777" d="M37.424,8.677L4.479,3.805C4.313,3.78,4.199,3.626,4.224,3.46c0.024-0.163,0.175-0.276,0.337-0.256 l33.035,4.219c0.347,0.043,0.593,0.359,0.55,0.705c-0.043,0.347-0.359,0.593-0.705,0.55C37.436,8.679,37.429,8.678,37.424,8.677z"/><path fill="#797979" d="M37.446,8.646L4.486,3.788C4.33,3.764,4.223,3.619,4.247,3.464C4.27,3.312,4.41,3.206,4.563,3.224 l33.044,4.247c0.325,0.04,0.556,0.336,0.516,0.661c-0.04,0.325-0.336,0.556-0.661,0.516C37.457,8.647,37.45,8.646,37.446,8.646z"/><path fill="#7a7a7a" d="M37.468,8.615L4.492,3.77C4.347,3.748,4.247,3.613,4.269,3.468c0.021-0.142,0.153-0.241,0.295-0.224 l33.054,4.274c0.303,0.038,0.519,0.314,0.481,0.617c-0.038,0.303-0.314,0.519-0.617,0.481C37.478,8.616,37.472,8.615,37.468,8.615z"/><path fill="#7c7c7c" d="M37.49,8.583L4.499,3.752c-0.135-0.02-0.227-0.146-0.207-0.28c0.02-0.132,0.142-0.224,0.274-0.208 l33.064,4.301c0.282,0.035,0.482,0.291,0.447,0.573c-0.035,0.282-0.291,0.482-0.573,0.447C37.499,8.585,37.493,8.584,37.49,8.583z"/><path fill="#7d7d7d" d="M37.512,8.552L4.505,3.734C4.381,3.716,4.296,3.6,4.314,3.476c0.018-0.122,0.131-0.207,0.253-0.192 l33.074,4.329c0.26,0.032,0.445,0.269,0.413,0.529c-0.032,0.26-0.269,0.445-0.529,0.413C37.521,8.553,37.515,8.553,37.512,8.552z"/><path fill="#7e7e7e" d="M37.534,8.521L4.512,3.716C4.398,3.699,4.32,3.593,4.337,3.479c0.017-0.112,0.12-0.19,0.232-0.176 l33.083,4.356c0.238,0.03,0.408,0.247,0.378,0.485C38,8.383,37.783,8.552,37.545,8.523C37.542,8.522,37.537,8.521,37.534,8.521z"/><path fill="gray" d="M37.556,8.49L4.518,3.699C4.415,3.683,4.344,3.587,4.359,3.483c0.015-0.102,0.109-0.172,0.211-0.16 l33.093,4.383c0.217,0.027,0.371,0.224,0.344,0.441c-0.027,0.217-0.224,0.371-0.441,0.344C37.563,8.491,37.558,8.49,37.556,8.49z"/><path fill="#818181" d="M37.577,8.459L4.525,3.681C4.432,3.667,4.368,3.58,4.382,3.487c0.014-0.092,0.098-0.155,0.19-0.144 l33.103,4.41c0.195,0.024,0.334,0.202,0.309,0.397s-0.202,0.334-0.397,0.309C37.584,8.46,37.58,8.459,37.577,8.459z"/><path fill="#838383" d="M37.599,8.427L4.532,3.663c-0.083-0.012-0.14-0.09-0.127-0.173c0.012-0.081,0.087-0.138,0.169-0.128 L37.685,7.8c0.173,0.021,0.297,0.179,0.275,0.353c-0.021,0.173-0.179,0.297-0.353,0.275C37.605,8.428,37.602,8.428,37.599,8.427z"/><path fill="#848484" d="M37.621,8.396L4.538,3.645C4.466,3.635,4.416,3.567,4.427,3.494 c0.011-0.071,0.076-0.121,0.148-0.112l33.122,4.465c0.152,0.019,0.26,0.157,0.241,0.309c-0.019,0.152-0.157,0.26-0.309,0.241 C37.626,8.397,37.623,8.396,37.621,8.396z"/><path fill="#868686" d="M37.643,8.365L4.545,3.628C4.483,3.618,4.44,3.56,4.449,3.498c0.009-0.061,0.066-0.104,0.126-0.096 l33.132,4.492c0.13,0.016,0.223,0.135,0.206,0.265c-0.016,0.13-0.135,0.223-0.265,0.206C37.648,8.366,37.645,8.365,37.643,8.365z"/><path fill="#878787" d="M37.665,8.334L4.551,3.61C4.5,3.602,4.464,3.554,4.472,3.502c0.008-0.051,0.055-0.086,0.105-0.08 l33.142,4.52c0.108,0.013,0.186,0.112,0.172,0.221c-0.013,0.108-0.112,0.186-0.221,0.172C37.669,8.334,37.667,8.334,37.665,8.334z"/><radialGradient id="0ztrYGAnxtdD2O9EfWCzOa" cx="37.506" cy="7.157" r="3.265" gradientUnits="userSpaceOnUse"><stop offset="0" stop-color="#c7c7c7"/><stop offset=".607" stop-color="#4d4d4d"/></radialGradient><circle cx="37.5" cy="8.5" r="1.5" fill="url(#0ztrYGAnxtdD2O9EfWCzOa)"/><linearGradient id="0ztrYGAnxtdD2O9EfWCzOb" x1="24" x2="24" y1="13.955" y2="21.052" gradientUnits="userSpaceOnUse"><stop offset="0" stop-color="#575757"/><stop offset=".244" stop-color="#c9c9c9"/><stop offset=".345" stop-color="#fafafa"/><stop offset=".402" stop-color="#d2d2d2"/><stop offset=".488" stop-color="#9b9b9b"/><stop offset=".569" stop-color="#6f6f6f"/><stop offset=".64" stop-color="#505050"/><stop offset=".701" stop-color="#3d3d3d"/><stop offset=".743" stop-color="#363636"/><stop offset=".841" stop-color="#484848"/><stop offset="1" stop-color="#6e6e6e"/></linearGradient><path fill="url(#0ztrYGAnxtdD2O9EfWCzOb)" d="M45,21H3c-0.552,0-1-0.448-1-1v-5c0-0.552,0.448-1,1-1h42c0.552,0,1,0.448,1,1v5	C46,20.552,45.552,21,45,21z"/><path fill="#bd5b00" d="M41,39H7c-1.657,0-3-1.343-3-3V12c0-1.657,1.343-3,3-3h34c1.657,0,3,1.343,3,3v24	C44,37.657,42.657,39,41,39z"/><linearGradient id="0ztrYGAnxtdD2O9EfWCzOc" x1="24" x2="24" y1="29.198" y2="37.031" gradientUnits="userSpaceOnUse"><stop offset="0" stop-color="#545454"/><stop offset=".484" stop-color="#333"/><stop offset=".485" stop-color="#2b2b2b"/><stop offset=".488" stop-color="#1c1c1c"/><stop offset=".49" stop-color="#171717"/><stop offset=".774" stop-color="#292521"/><stop offset="1" stop-color="#3b322b"/></linearGradient><path fill="url(#0ztrYGAnxtdD2O9EfWCzOc)" d="M42,29H6v7c0,0.552,0.448,1,1,1h34c0.552,0,1-0.448,1-1V29z"/><path fill="#facb94" d="M41,11H7c-0.552,0-1,0.448-1,1v16h36V12C42,11.448,41.552,11,41,11z"/><rect width="36" height="1" x="6" y="24" fill="#c9a378"/><rect width="36" height="1" x="6" y="26" fill="#c9a378"/><rect width="36" height="1" x="6" y="22" fill="#c9a378"/><rect width="36" height="1" x="6" y="20" fill="#c9a378"/><rect width="36" height="1" x="6" y="18" fill="#c9a378"/><rect width="36" height="1" x="6" y="16" fill="#c9a378"/><rect width="36" height="1" x="6" y="14" fill="#c9a378"/><rect width="36" height="1" x="6" y="12" fill="#c9a378"/><g><radialGradient id="0ztrYGAnxtdD2O9EfWCzOd" cx="38" cy="33" r="3" gradientUnits="userSpaceOnUse"><stop offset=".541" stop-color="#1c1c1c"/><stop offset="1"/></radialGradient><circle cx="38" cy="33" r="3" fill="url(#0ztrYGAnxtdD2O9EfWCzOd)"/><circle cx="38" cy="34.875" r="2" opacity=".056"/><circle cx="38" cy="34.75" r="2" opacity=".113"/><circle cx="38" cy="34.625" r="2" opacity=".169"/><circle cx="38" cy="34.5" r="2" opacity=".225"/><circle cx="38" cy="34.375" r="2" opacity=".281"/><circle cx="38" cy="34.25" r="2" opacity=".338"/><circle cx="38" cy="34.125" r="2" opacity=".394"/><circle cx="38" cy="34" r="2" opacity=".45"/><circle cx="38" cy="33.875" r="2" opacity=".506"/><circle cx="38" cy="33.75" r="2" opacity=".563"/><circle cx="38" cy="33.625" r="2" opacity=".619"/><circle cx="38" cy="33.5" r="2" opacity=".675"/><circle cx="38" cy="33.375" r="2" opacity=".731"/><circle cx="38" cy="33.25" r="2" opacity=".787"/><circle cx="38" cy="33.125" r="2" opacity=".844"/><circle cx="38" cy="33" r="2" opacity=".9"/><radialGradient id="0ztrYGAnxtdD2O9EfWCzOe" cx="38" cy="33" r="2" gradientUnits="userSpaceOnUse"><stop offset=".79" stop-color="#c78548"/><stop offset="1" stop-color="#f5b57b"/></radialGradient><circle cx="38" cy="33" r="2" fill="url(#0ztrYGAnxtdD2O9EfWCzOe)"/></g><g><radialGradient id="0ztrYGAnxtdD2O9EfWCzOf" cx="10" cy="33" r="3" gradientUnits="userSpaceOnUse"><stop offset=".541" stop-color="#1c1c1c"/><stop offset="1"/></radialGradient><circle cx="10" cy="33" r="3" fill="url(#0ztrYGAnxtdD2O9EfWCzOf)"/><circle cx="10" cy="34.875" r="2" opacity=".056"/><circle cx="10" cy="34.75" r="2" opacity=".113"/><circle cx="10" cy="34.625" r="2" opacity=".169"/><circle cx="10" cy="34.5" r="2" opacity=".225"/><circle cx="10" cy="34.375" r="2" opacity=".281"/><circle cx="10" cy="34.25" r="2" opacity=".338"/><circle cx="10" cy="34.125" r="2" opacity=".394"/><circle cx="10" cy="34" r="2" opacity=".45"/><circle cx="10" cy="33.875" r="2" opacity=".506"/><circle cx="10" cy="33.75" r="2" opacity=".563"/><circle cx="10" cy="33.625" r="2" opacity=".619"/><circle cx="10" cy="33.5" r="2" opacity=".675"/><circle cx="10" cy="33.375" r="2" opacity=".731"/><circle cx="10" cy="33.25" r="2" opacity=".787"/><circle cx="10" cy="33.125" r="2" opacity=".844"/><circle cx="10" cy="33" r="2" opacity=".9"/><radialGradient id="0ztrYGAnxtdD2O9EfWCzOg" cx="10" cy="33" r="2" gradientUnits="userSpaceOnUse"><stop offset=".79" stop-color="#c78548"/><stop offset="1" stop-color="#f5b57b"/></radialGradient><circle cx="10" cy="33" r="2" fill="url(#0ztrYGAnxtdD2O9EfWCzOg)"/></g><path fill="#967a5a" d="M10.025,20h14.95c-0.022,0.339-0.059,0.674-0.125,1H10.151C10.085,20.674,10.048,20.339,10.025,20z M22.587,14H12.413c-0.33,0.306-0.632,0.64-0.903,1H23.49C23.219,14.64,22.917,14.306,22.587,14z M12.413,25h10.174	c0.33-0.306,0.632-0.64,0.903-1H11.51C11.781,24.36,12.083,24.694,12.413,25z M10.869,23h13.262c0.169-0.32,0.311-0.655,0.433-1	H10.436C10.558,22.345,10.7,22.68,10.869,23z M24.849,18H10.151c-0.066,0.326-0.103,0.661-0.125,1h14.95	C24.952,18.661,24.915,18.326,24.849,18z M17.5,12c-1.36,0-2.631,0.367-3.731,1h7.462C20.131,12.367,18.86,12,17.5,12z M17.5,27	c1.36,0,2.631-0.367,3.731-1h-7.462C14.869,26.633,16.14,27,17.5,27z M24.131,16H10.869c-0.169,0.32-0.311,0.655-0.433,1h14.128	C24.442,16.655,24.3,16.32,24.131,16z"/><path d="M31,36H17c-0.552,0-1-0.448-1-1v-4c0-0.552,0.448-1,1-1h14c0.552,0,1,0.448,1,1v4	C32,35.552,31.552,36,31,36z" opacity=".35"/><path fill="#7a7a7a" d="M18.5,31c-0.096,0-0.91,0-1,0c-0.276,0-0.5,0.224-0.5,0.5c0,0.276,0.224,0.5,0.5,0.5	c0.09,0,0.904,0,1,0c0.276,0,0.5-0.224,0.5-0.5C19,31.224,18.776,31,18.5,31z"/><path fill="#7a7a7a" d="M22.5,31c-0.096,0-0.91,0-1,0c-0.276,0-0.5,0.224-0.5,0.5c0,0.276,0.224,0.5,0.5,0.5	c0.09,0,0.904,0,1,0c0.276,0,0.5-0.224,0.5-0.5C23,31.224,22.776,31,22.5,31z"/><path fill="#7a7a7a" d="M26.5,31c-0.096,0-0.91,0-1,0c-0.276,0-0.5,0.224-0.5,0.5c0,0.276,0.224,0.5,0.5,0.5	c0.09,0,0.904,0,1,0c0.276,0,0.5-0.224,0.5-0.5C27,31.224,26.776,31,26.5,31z"/><path fill="#7a7a7a" d="M30.5,31c-0.096,0-0.91,0-1,0c-0.276,0-0.5,0.224-0.5,0.5c0,0.276,0.224,0.5,0.5,0.5	c0.09,0,0.904,0,1,0c0.276,0,0.5-0.224,0.5-0.5C31,31.224,30.776,31,30.5,31z"/><path fill="#7a7a7a" d="M18.5,34c-0.096,0-0.91,0-1,0c-0.276,0-0.5,0.224-0.5,0.5c0,0.276,0.224,0.5,0.5,0.5	c0.09,0,0.904,0,1,0c0.276,0,0.5-0.224,0.5-0.5C19,34.224,18.776,34,18.5,34z"/><path fill="#7a7a7a" d="M22.5,34c-0.096,0-0.91,0-1,0c-0.276,0-0.5,0.224-0.5,0.5c0,0.276,0.224,0.5,0.5,0.5	c0.09,0,0.904,0,1,0c0.276,0,0.5-0.224,0.5-0.5C23,34.224,22.776,34,22.5,34z"/><path fill="#7a7a7a" d="M26.5,34c-0.096,0-0.91,0-1,0c-0.276,0-0.5,0.224-0.5,0.5c0,0.276,0.224,0.5,0.5,0.5	c0.09,0,0.904,0,1,0c0.276,0,0.5-0.224,0.5-0.5C27,34.224,26.776,34,26.5,34z"/><path fill="#7a7a7a" d="M30.5,34c-0.096,0-0.91,0-1,0c-0.276,0-0.5,0.224-0.5,0.5c0,0.276,0.224,0.5,0.5,0.5	c0.09,0,0.904,0,1,0c0.276,0,0.5-0.224,0.5-0.5C31,34.224,30.776,34,30.5,34z"/><radialGradient id="0ztrYGAnxtdD2O9EfWCzOh" cx="26.5" cy="33" r="3.094" gradientUnits="userSpaceOnUse"><stop offset="0" stop-color="#d61212"/><stop offset="1" stop-color="#9e0d0d"/></radialGradient><rect width="1" height="6" x="26" y="30" fill="url(#0ztrYGAnxtdD2O9EfWCzOh)"/></svg>