<svg xmlns="http://www.w3.org/2000/svg" viewBox="0 0 48 48"><linearGradient id="imo7phhAYfrg5ERJzKoVna" x1="-1.637" x2="32.281" y1="32.595" y2="-1.158" gradientUnits="userSpaceOnUse"><stop offset="0" stop-color="#ffc973"/><stop offset=".435" stop-color="#fec771"/><stop offset=".62" stop-color="#fac16a"/><stop offset=".758" stop-color="#f3b65d"/><stop offset=".872" stop-color="#e9a74c"/><stop offset=".971" stop-color="#dd9435"/><stop offset=".982" stop-color="#db9132"/></linearGradient><polygon fill="url(#imo7phhAYfrg5ERJzKoVna)" points="7,41 7,7 41,7"/><linearGradient id="imo7phhAYfrg5ERJzKoVnb" x1="49.414" x2="15.784" y1="15.493" y2="49.246" gradientUnits="userSpaceOnUse"><stop offset="0" stop-color="#ffc973"/><stop offset=".435" stop-color="#fec771"/><stop offset=".62" stop-color="#fac16a"/><stop offset=".758" stop-color="#f3b65d"/><stop offset=".872" stop-color="#e9a74c"/><stop offset=".971" stop-color="#dd9435"/><stop offset=".982" stop-color="#db9132"/></linearGradient><polygon fill="url(#imo7phhAYfrg5ERJzKoVnb)" points="41,7 41,41 7,41"/><linearGradient id="imo7phhAYfrg5ERJzKoVnc" x1="10.148" x2="37.852" y1="24" y2="24" gradientUnits="userSpaceOnUse"><stop offset=".018" stop-color="#db9132"/><stop offset=".029" stop-color="#dd9435"/><stop offset=".128" stop-color="#e9a74c"/><stop offset=".242" stop-color="#f3b65d"/><stop offset=".38" stop-color="#fac16a"/><stop offset=".565" stop-color="#fec771"/><stop offset="1" stop-color="#ffc973"/></linearGradient><polygon fill="url(#imo7phhAYfrg5ERJzKoVnc)" points="10.148,37.852 10.148,10.148 37.852,10.148"/><linearGradient id="imo7phhAYfrg5ERJzKoVnd" x1="10.148" x2="37.852" y1="24" y2="24" gradientUnits="userSpaceOnUse"><stop offset="0" stop-color="#ffc973"/><stop offset=".435" stop-color="#fec771"/><stop offset=".62" stop-color="#fac16a"/><stop offset=".758" stop-color="#f3b65d"/><stop offset=".872" stop-color="#e9a74c"/><stop offset=".971" stop-color="#dd9435"/><stop offset=".982" stop-color="#db9132"/></linearGradient><polygon fill="url(#imo7phhAYfrg5ERJzKoVnd)" points="37.852,10.148 37.852,37.852 10.148,37.852"/><rect width="25.185" height="25.185" x="11.407" y="11.407" fill="#f7f7f7"/><linearGradient id="imo7phhAYfrg5ERJzKoVne" x1="24" x2="24" y1="36.766" y2="14.133" gradientUnits="userSpaceOnUse"><stop offset=".395" stop-color="#cff3ff"/><stop offset=".544" stop-color="#b6e0f7"/><stop offset=".859" stop-color="#77b1e3"/><stop offset="1" stop-color="#599ad9"/></linearGradient><rect width="21.407" height="21.407" x="13.296" y="13.296" fill="url(#imo7phhAYfrg5ERJzKoVne)"/><linearGradient id="imo7phhAYfrg5ERJzKoVnf" x1="24" x2="24" y1="37.274" y2="30.315" gradientUnits="userSpaceOnUse"><stop offset=".005" stop-color="#7a9437"/><stop offset=".214" stop-color="#7e9737"/><stop offset=".423" stop-color="#8aa135"/><stop offset=".631" stop-color="#9eb233"/><stop offset=".838" stop-color="#baca30"/><stop offset=".983" stop-color="#d2de2e"/></linearGradient><rect width="21.407" height="5.499" x="13.296" y="29.205" fill="url(#imo7phhAYfrg5ERJzKoVnf)"/><path fill="#1194e0" d="M18.889,34.704c-0.011,0.007,5.069-1.039,5.069-2.419c0-0.652-0.526-0.911-0.454-1.605 c0.141-1.369,3.227-1.474,3.227-1.474l0,0c0,0-1.083,0.525,0.75,1.794c0.888,0.615,1.583,1.041,1.583,1.925 c0,1.139-1.026,1.779-1.026,1.779H18.889z"/><path fill="#1194e0" d="M18.903,34.704c-0.01,0.007,5.057-1.037,5.059-2.415c0.003-0.654-0.525-0.914-0.454-1.61 c0.141-1.367,3.222-1.474,3.222-1.474l0,0c0,0-1.083,0.524,0.743,1.792c0.885,0.615,1.584,1.042,1.584,1.927 c0,1.138-1.029,1.779-1.029,1.779H18.903z"/><path fill="#1294e0" d="M18.916,34.704c-0.01,0.007,5.04-1.036,5.049-2.41c0.004-0.656-0.524-0.916-0.453-1.614 c0.14-1.365,3.218-1.474,3.218-1.474l0,0c0,0-1.083,0.522,0.736,1.791c0.882,0.615,1.586,1.044,1.586,1.928 c0,1.138-1.032,1.78-1.032,1.78H18.916z"/><path fill="#1295e0" d="M18.93,34.704c-0.01,0.007,5.026-1.034,5.039-2.406c0.006-0.659-0.524-0.918-0.452-1.619 c0.14-1.363,3.214-1.474,3.214-1.474l0,0c0,0-1.083,0.521,0.73,1.789c0.879,0.616,1.588,1.045,1.588,1.93 c0,1.138-1.034,1.78-1.034,1.78H18.93z"/><path fill="#1395e1" d="M18.944,34.704c-0.01,0.007,5.012-1.033,5.029-2.401c0.008-0.661-0.523-0.921-0.452-1.623 c0.139-1.36,3.21-1.475,3.21-1.475l0,0c0,0-1.083,0.519,0.723,1.787c0.876,0.616,1.59,1.046,1.59,1.931 c0,1.138-1.037,1.781-1.037,1.781L18.944,34.704z"/><path fill="#1395e1" d="M18.957,34.704c-0.01,0.007,4.998-1.032,5.019-2.397c0.011-0.663-0.522-0.923-0.451-1.628 c0.139-1.358,3.206-1.475,3.206-1.475l0,0c0,0-1.083,0.518,0.716,1.785c0.873,0.617,1.591,1.047,1.591,1.933 c0,1.138-1.04,1.781-1.04,1.781L18.957,34.704z"/><path fill="#1395e1" d="M18.971,34.704c-0.01,0.007,4.983-1.03,5.009-2.392c0.013-0.666-0.522-0.926-0.451-1.632 c0.138-1.356,3.202-1.475,3.202-1.475l0,0c0,0-1.083,0.516,0.709,1.783c0.87,0.617,1.593,1.048,1.593,1.934 c0,1.137-1.043,1.781-1.043,1.781L18.971,34.704z"/><path fill="#1496e1" d="M18.984,34.704c-0.01,0.007,4.969-1.029,4.999-2.387c0.015-0.668-0.521-0.928-0.45-1.636 c0.138-1.353,3.197-1.475,3.197-1.475l0,0c0,0-1.083,0.515,0.703,1.782c0.867,0.617,1.595,1.049,1.595,1.935 c0,1.137-1.046,1.782-1.046,1.782L18.984,34.704z"/><path fill="#1496e1" d="M18.998,34.704c-0.01,0.007,4.955-1.028,4.989-2.383c0.017-0.67-0.52-0.93-0.45-1.641 c0.138-1.351,3.193-1.475,3.193-1.475l0,0c0,0-1.083,0.514,0.696,1.78c0.863,0.618,1.597,1.051,1.597,1.937 c0,1.137-1.048,1.782-1.048,1.782L18.998,34.704z"/><path fill="#1596e1" d="M19.011,34.704c-0.01,0.007,4.941-1.027,4.98-2.378c0.019-0.673-0.52-0.933-0.449-1.645 c0.137-1.349,3.189-1.475,3.189-1.475l0,0c0,0-1.083,0.512,0.689,1.778c0.86,0.618,1.599,1.052,1.599,1.938 c0,1.137-1.051,1.783-1.051,1.783L19.011,34.704z"/><path fill="#1596e2" d="M19.025,34.704c-0.01,0.007,4.927-1.025,4.97-2.374c0.021-0.675-0.519-0.935-0.448-1.65 c0.137-1.347,3.185-1.475,3.185-1.475l0,0c0,0-1.083,0.511,0.683,1.776c0.857,0.618,1.6,1.053,1.6,1.94 c0,1.136-1.054,1.783-1.054,1.783L19.025,34.704z"/><path fill="#1597e2" d="M19.038,34.704c-0.01,0.007,4.913-1.024,4.96-2.369c0.023-0.678-0.518-0.938-0.448-1.654 c0.136-1.344,3.181-1.476,3.181-1.476l0,0c0,0-1.083,0.509,0.676,1.774c0.854,0.619,1.602,1.054,1.602,1.941 c0,1.136-1.057,1.783-1.057,1.783L19.038,34.704z"/><path fill="#1697e2" d="M19.052,34.704c-0.01,0.007,4.899-1.023,4.95-2.365c0.026-0.68-0.518-0.94-0.447-1.659 c0.136-1.342,3.177-1.476,3.177-1.476l0,0c0,0-1.083,0.508,0.669,1.772c0.851,0.619,1.604,1.055,1.604,1.943 c0,1.136-1.06,1.784-1.06,1.784L19.052,34.704z"/><path fill="#1697e2" d="M19.065,34.704c-0.01,0.007,4.885-1.021,4.94-2.36c0.028-0.683-0.517-0.942-0.447-1.663 c0.135-1.34,3.173-1.476,3.173-1.476l0,0c0,0-1.083,0.506,0.663,1.771c0.848,0.62,1.606,1.056,1.606,1.944 c0,1.136-1.063,1.784-1.063,1.784L19.065,34.704z"/><path fill="#1797e2" d="M19.079,34.704c-0.01,0.007,4.872-1.02,4.93-2.355c0.03-0.685-0.516-0.945-0.446-1.668 c0.135-1.337,3.168-1.476,3.168-1.476l0,0c0,0-1.08,0.501,0.656,1.769c0.847,0.618,1.607,1.057,1.607,1.945 c0,1.135-1.065,1.784-1.065,1.784L19.079,34.704z"/><path fill="#1798e2" d="M19.092,34.704c-0.01,0.007,4.858-1.019,4.92-2.351c0.032-0.687-0.516-0.947-0.446-1.672 c0.134-1.335,3.164-1.476,3.164-1.476l0,0c0,0-1.08,0.5,0.649,1.767c0.844,0.618,1.609,1.059,1.609,1.947 c0,1.135-1.068,1.785-1.068,1.785L19.092,34.704z"/><path fill="#1798e2" d="M19.106,34.704c-0.01,0.007,4.844-1.018,4.91-2.346c0.034-0.69-0.515-0.95-0.445-1.676 c0.134-1.333,3.16-1.476,3.16-1.476l0,0c0,0-1.08,0.498,0.643,1.765c0.841,0.619,1.611,1.06,1.611,1.948 c0,1.135-1.071,1.785-1.071,1.785L19.106,34.704z"/><path fill="#1898e3" d="M19.119,34.704c-0.01,0.007,4.83-1.016,4.9-2.342c0.036-0.692-0.515-0.952-0.444-1.681 c0.133-1.331,3.156-1.476,3.156-1.476l0,0c0,0-1.079,0.496,0.636,1.763c0.838,0.619,1.613,1.061,1.613,1.95 c0,1.135-1.074,1.786-1.074,1.786L19.119,34.704z"/><path fill="#1898e3" d="M19.133,34.704c-0.01,0.007,4.817-1.015,4.89-2.337c0.039-0.695-0.515-0.955-0.444-1.685 c0.13-1.329,3.152-1.476,3.152-1.476l0,0c0,0-1.079,0.494,0.629,1.762c0.835,0.619,1.615,1.062,1.615,1.951 c0,1.134-1.077,1.786-1.077,1.786L19.133,34.704z"/><path fill="#1999e3" d="M19.146,34.704c-0.01,0.007,4.803-1.014,4.88-2.332c0.041-0.697-0.515-0.957-0.443-1.69 c0.129-1.326,3.148-1.477,3.148-1.477l0,0c0,0-1.079,0.493,0.622,1.76c0.832,0.619,1.616,1.063,1.616,1.953 c0,1.134-1.08,1.786-1.08,1.786L19.146,34.704z"/><path fill="#1999e3" d="M19.16,34.704c-0.01,0.007,4.789-1.013,4.87-2.328c0.043-0.7-0.514-0.959-0.443-1.694 c0.129-1.324,3.143-1.477,3.143-1.477l0,0c0,0-1.079,0.491,0.616,1.758c0.829,0.62,1.618,1.064,1.618,1.954 c0,1.134-1.082,1.787-1.082,1.787L19.16,34.704z"/><path fill="#1999e3" d="M19.173,34.704c-0.01,0.007,4.776-1.012,4.86-2.323c0.045-0.702-0.514-0.962-0.442-1.699 c0.128-1.322,3.139-1.477,3.139-1.477l0,0c0,0-1.078,0.489,0.609,1.756c0.826,0.62,1.62,1.066,1.62,1.955 c0,1.134-1.085,1.787-1.085,1.787L19.173,34.704z"/><path fill="#1a99e3" d="M19.187,34.704c-0.01,0.007,4.762-1.01,4.85-2.319c0.048-0.705-0.513-0.964-0.442-1.703 c0.127-1.319,3.135-1.477,3.135-1.477l0,0c0,0-1.078,0.488,0.602,1.754c0.823,0.62,1.622,1.067,1.622,1.957 c0,1.134-1.088,1.788-1.088,1.788L19.187,34.704z"/><path fill="#1a9ae4" d="M19.2,34.704c-0.01,0.007,4.749-1.009,4.841-2.314c0.05-0.707-0.512-0.967-0.441-1.708 c0.127-1.317,3.131-1.477,3.131-1.477l0,0c0,0-1.078,0.486,0.596,1.753c0.82,0.621,1.624,1.068,1.624,1.958 c0,1.133-1.091,1.788-1.091,1.788L19.2,34.704z"/><path fill="#1b9ae4" d="M19.214,34.704c-0.01,0.007,4.735-1.008,4.831-2.31c0.052-0.71-0.512-0.969-0.441-1.712 c0.126-1.315,3.127-1.477,3.127-1.477l0,0c0,0-1.078,0.484,0.589,1.751c0.817,0.621,1.625,1.069,1.625,1.96 c0,1.133-1.094,1.788-1.094,1.788L19.214,34.704z"/><path fill="#1b9ae4" d="M19.227,34.704c-0.01,0.007,4.722-1.007,4.821-2.305c0.054-0.712-0.511-0.971-0.44-1.716 c0.126-1.313,3.123-1.477,3.123-1.477l0,0c0,0-1.078,0.483,0.582,1.749c0.814,0.621,1.627,1.07,1.627,1.961 c0,1.133-1.097,1.789-1.097,1.789L19.227,34.704z"/><path fill="#1b9ae4" d="M19.241,34.704c-0.01,0.007,4.708-1.006,4.811-2.3c0.057-0.715-0.511-0.974-0.439-1.721 c0.125-1.31,3.119-1.478,3.119-1.478l0,0c0,0-1.077,0.481,0.576,1.747c0.811,0.621,1.629,1.071,1.629,1.963 c0,1.133-1.099,1.789-1.099,1.789L19.241,34.704z"/><path fill="#1c9be4" d="M19.254,34.704c-0.01,0.007,4.695-1.004,4.801-2.296c0.059-0.717-0.51-0.976-0.439-1.725 c0.124-1.308,3.114-1.478,3.114-1.478l0,0c0,0-1.077,0.479,0.569,1.745c0.808,0.622,1.631,1.072,1.631,1.964 c0,1.132-1.102,1.789-1.102,1.789L19.254,34.704z"/><path fill="#1c9be4" d="M19.268,34.704c-0.01,0.007,4.681-1.003,4.791-2.291c0.061-0.72-0.509-0.979-0.438-1.73 c0.124-1.306,3.11-1.478,3.11-1.478l0,0c0,0-1.077,0.478,0.562,1.743c0.805,0.622,1.632,1.074,1.632,1.965 c0,1.132-1.105,1.79-1.105,1.79L19.268,34.704z"/><path fill="#1d9be4" d="M19.281,34.704c-0.01,0.007,4.668-1.002,4.781-2.287c0.063-0.722-0.509-0.981-0.438-1.734 c0.123-1.304,3.106-1.478,3.106-1.478l0,0c0,0-1.077,0.476,0.556,1.742c0.802,0.622,1.634,1.075,1.634,1.967 c0,1.132-1.108,1.79-1.108,1.79L19.281,34.704z"/><path fill="#1d9be5" d="M19.295,34.704c-0.01,0.007,4.655-1.001,4.771-2.282c0.066-0.725-0.508-0.983-0.437-1.739 c0.123-1.301,3.102-1.478,3.102-1.478l0,0c0,0-1.076,0.475,0.549,1.74c0.799,0.622,1.636,1.076,1.636,1.968 c0,1.132-1.111,1.791-1.111,1.791L19.295,34.704z"/><path fill="#1d9ce5" d="M19.308,34.704c-0.01,0.007,4.641-1,4.761-2.278c0.068-0.727-0.508-0.986-0.437-1.743 c0.122-1.299,3.098-1.478,3.098-1.478l0,0c0,0-1.076,0.473,0.542,1.738c0.797,0.623,1.638,1.077,1.638,1.97 c0,1.131-1.113,1.791-1.113,1.791L19.308,34.704z"/><path fill="#1e9ce5" d="M19.322,34.704c-0.01,0.007,4.628-0.999,4.751-2.273c0.07-0.73-0.507-0.988-0.436-1.748 c0.121-1.297,3.094-1.478,3.094-1.478l0,0c0,0-1.076,0.471,0.535,1.736c0.794,0.623,1.64,1.078,1.64,1.971 c0,1.131-1.116,1.791-1.116,1.791L19.322,34.704z"/><path fill="#1e9ce5" d="M19.336,34.704c-0.01,0.007,4.615-0.997,4.741-2.268c0.073-0.732-0.506-0.991-0.435-1.752 c0.121-1.294,3.089-1.478,3.089-1.478l0,0c0,0-1.076,0.47,0.529,1.734c0.791,0.623,1.641,1.079,1.641,1.973 c0,1.131-1.119,1.792-1.119,1.792L19.336,34.704z"/><path fill="#1f9ce5" d="M19.349,34.704c-0.01,0.007,4.602-0.996,4.731-2.264c0.075-0.735-0.506-0.993-0.435-1.756 c0.12-1.292,3.085-1.479,3.085-1.479l0,0c0,0-1.076,0.468,0.522,1.733c0.788,0.623,1.643,1.081,1.643,1.974 c0,1.131-1.122,1.792-1.122,1.792L19.349,34.704z"/><path fill="#1f9de5" d="M19.363,34.704c-0.01,0.007,4.589-0.995,4.721-2.259c0.077-0.737-0.505-0.995-0.434-1.761 c0.12-1.29,3.081-1.479,3.081-1.479l0,0c0,0-1.075,0.466,0.515,1.731c0.785,0.624,1.645,1.082,1.645,1.976 c0,1.13-1.125,1.793-1.125,1.793L19.363,34.704z"/><path fill="#1f9de6" d="M19.376,34.704c-0.01,0.007,4.576-0.994,4.711-2.255c0.08-0.74-0.505-0.998-0.434-1.765 c0.119-1.288,3.077-1.479,3.077-1.479l0,0c0,0-1.075,0.465,0.509,1.729c0.782,0.624,1.647,1.083,1.647,1.977 c0,1.13-1.128,1.793-1.128,1.793L19.376,34.704z"/><path fill="#209de6" d="M19.39,34.704c-0.01,0.007,4.562-0.993,4.702-2.25c0.082-0.742-0.504-1-0.433-1.77 c0.118-1.285,3.073-1.479,3.073-1.479l0,0c0,0-1.075,0.463,0.502,1.727c0.779,0.624,1.648,1.084,1.648,1.978 c0,1.13-1.13,1.793-1.13,1.793L19.39,34.704z"/><path fill="#209de6" d="M19.403,34.704c-0.01,0.007,4.549-0.992,4.692-2.245c0.084-0.745-0.504-1.003-0.433-1.774 c0.118-1.283,3.069-1.479,3.069-1.479l0,0c0,0-1.075,0.461,0.495,1.725c0.776,0.625,1.65,1.085,1.65,1.98 c0,1.13-1.133,1.794-1.133,1.794L19.403,34.704z"/><path fill="#219ee6" d="M19.417,34.704c-0.01,0.007,4.536-0.99,4.682-2.241c0.087-0.748-0.503-1.005-0.432-1.779 c0.117-1.281,3.065-1.479,3.065-1.479l0,0c0,0-1.074,0.46,0.489,1.723c0.773,0.625,1.652,1.086,1.652,1.981 c0,1.13-1.136,1.794-1.136,1.794L19.417,34.704z"/><path fill="#219ee6" d="M19.43,34.704c-0.01,0.007,4.523-0.989,4.672-2.236c0.089-0.75-0.502-1.007-0.431-1.783 c0.117-1.279,3.06-1.479,3.06-1.479l0,0c0,0-1.074,0.458,0.482,1.722c0.77,0.625,1.654,1.087,1.654,1.983 c0,1.129-1.139,1.794-1.139,1.794L19.43,34.704z"/><path fill="#219ee6" d="M19.444,34.704c-0.01,0.007,4.51-0.988,4.662-2.232c0.092-0.753-0.502-1.01-0.431-1.788 c0.116-1.276,3.056-1.48,3.056-1.48l0,0c0,0-1.074,0.457,0.475,1.72c0.767,0.625,1.656,1.089,1.656,1.984 c0,1.129-1.142,1.795-1.142,1.795L19.444,34.704z"/><path fill="#229ee6" d="M19.457,34.704c-0.01,0.007,4.497-0.987,4.652-2.227c0.094-0.755-0.501-1.012-0.43-1.792 c0.116-1.274,3.052-1.48,3.052-1.48l0,0c0,0-1.074,0.455,0.468,1.718c0.764,0.626,1.657,1.09,1.657,1.986 c0,1.129-1.145,1.795-1.145,1.795L19.457,34.704z"/><path fill="#229ee7" d="M19.471,34.704c-0.01,0.007,4.485-0.986,4.642-2.223c0.096-0.758-0.501-1.015-0.43-1.796 c0.115-1.272,3.048-1.48,3.048-1.48l0,0c0,0-1.074,0.453,0.462,1.716c0.761,0.626,1.659,1.091,1.659,1.987 c0,1.129-1.147,1.796-1.147,1.796L19.471,34.704z"/><path fill="#239fe7" d="M19.484,34.704c-0.01,0.007,4.472-0.985,4.632-2.218c0.099-0.76-0.5-1.017-0.429-1.801 c0.114-1.269,3.044-1.48,3.044-1.48l0,0c0,0-1.073,0.452,0.455,1.714c0.758,0.626,1.661,1.092,1.661,1.988 c0,1.128-1.15,1.796-1.15,1.796L19.484,34.704z"/><path fill="#239fe7" d="M19.498,34.704c-0.01,0.007,4.459-0.984,4.622-2.213c0.101-0.763-0.499-1.019-0.429-1.805 c0.114-1.267,3.04-1.48,3.04-1.48l0,0c0,0-1.073,0.45,0.448,1.713c0.755,0.627,1.663,1.093,1.663,1.99 c0,1.128-1.153,1.796-1.153,1.796L19.498,34.704z"/><path fill="#239fe7" d="M19.511,34.704c-0.01,0.007,4.446-0.982,4.612-2.209c0.104-0.766-0.499-1.022-0.428-1.81 c0.113-1.265,3.035-1.48,3.035-1.48l0,0c0,0-1.073,0.449,0.442,1.711c0.752,0.627,1.665,1.094,1.664,1.991 c0,1.128-1.156,1.797-1.156,1.797L19.511,34.704z"/><path fill="#249fe7" d="M19.525,34.704c-0.01,0.007,4.433-0.981,4.602-2.204c0.106-0.768-0.498-1.024-0.428-1.814 c0.113-1.263,3.031-1.48,3.031-1.48l0,0c0,0-1.073,0.447,0.435,1.709c0.749,0.627,1.666,1.096,1.666,1.993 c0,1.128-1.159,1.797-1.159,1.797L19.525,34.704z"/><path fill="#24a0e7" d="M19.538,34.704c-0.01,0.007,4.42-0.98,4.592-2.2c0.109-0.771-0.497-1.027-0.427-1.819 c0.112-1.26,3.027-1.48,3.027-1.48l0,0c0,0-1.073,0.445,0.428,1.707c0.746,0.627,1.668,1.097,1.668,1.994 c0,1.127-1.162,1.798-1.162,1.798L19.538,34.704z"/><path fill="#25a0e8" d="M19.552,34.704c-0.01,0.007,4.408-0.979,4.582-2.195c0.111-0.773-0.497-1.029-0.426-1.823 c0.112-1.258,3.023-1.481,3.023-1.481l0,0c0,0-1.072,0.444,0.422,1.705c0.743,0.628,1.67,1.098,1.67,1.996 c0,1.127-1.164,1.798-1.164,1.798L19.552,34.704z"/><path fill="#25a0e8" d="M19.565,34.704c-0.01,0.007,4.395-0.978,4.572-2.191c0.114-0.776-0.496-1.031-0.426-1.828 c0.111-1.256,3.019-1.481,3.019-1.481l0,0c0,0-1.072,0.442,0.415,1.703c0.741,0.628,1.672,1.099,1.672,1.997 c0,1.127-1.167,1.798-1.167,1.798L19.565,34.704z"/><path fill="#25a0e8" d="M19.579,34.704c-0.01,0.007,4.382-0.977,4.562-2.186c0.116-0.778-0.496-1.034-0.425-1.832 c0.111-1.253,3.015-1.481,3.015-1.481l0,0c0,0-1.072,0.441,0.408,1.702c0.738,0.628,1.673,1.1,1.673,1.998 c0,1.127-1.17,1.799-1.17,1.799L19.579,34.704z"/><path fill="#26a1e8" d="M19.592,34.704c-0.01,0.007,4.369-0.976,4.553-2.181c0.119-0.781-0.495-1.036-0.425-1.836 c0.11-1.251,3.011-1.481,3.011-1.481l0,0c0,0-1.072,0.439,0.402,1.7c0.735,0.629,1.675,1.101,1.675,2 c0,1.126-1.173,1.799-1.173,1.799L19.592,34.704z"/><path fill="#26a1e8" d="M19.606,34.704c-0.01,0.007,4.357-0.975,4.543-2.177c0.121-0.784-0.494-1.039-0.424-1.841 c0.109-1.249,3.006-1.481,3.006-1.481l0,0c0,0-1.072,0.437,0.395,1.698c0.732,0.629,1.677,1.102,1.677,2.001 c0,1.126-1.176,1.799-1.176,1.799L19.606,34.704z"/><path fill="#26a1e8" d="M19.619,34.704c-0.01,0.007,4.344-0.973,4.533-2.172c0.124-0.786-0.494-1.041-0.424-1.845 c0.109-1.247,3.002-1.481,3.002-1.481l0,0c0,0-1.071,0.436,0.388,1.696c0.729,0.629,1.679,1.104,1.679,2.003 c0,1.126-1.179,1.8-1.179,1.8L19.619,34.704z"/><path fill="#27a1e8" d="M19.633,34.704c-0.01,0.007,4.332-0.972,4.523-2.168c0.126-0.789-0.493-1.043-0.423-1.85 c0.108-1.244,2.998-1.481,2.998-1.481l0,0c0,0-1.071,0.434,0.381,1.694c0.726,0.63,1.681,1.105,1.681,2.004 c0,1.126-1.181,1.8-1.181,1.8L19.633,34.704z"/><path fill="#27a2e9" d="M19.646,34.704c-0.01,0.007,4.319-0.971,4.513-2.163c0.129-0.791-0.493-1.046-0.422-1.854 c0.108-1.242,2.994-1.482,2.994-1.482l0,0c0,0-1.071,0.433,0.375,1.693c0.723,0.63,1.682,1.106,1.682,2.006 c0,1.125-1.184,1.801-1.184,1.801L19.646,34.704z"/><path fill="#28a2e9" d="M19.66,34.704c-0.01,0.007,4.306-0.97,4.503-2.158c0.131-0.794-0.492-1.048-0.422-1.859 c0.107-1.24,2.99-1.482,2.99-1.482l0,0c0,0-1.071,0.431,0.368,1.691c0.72,0.63,1.684,1.107,1.684,2.007 c0,1.125-1.187,1.801-1.187,1.801L19.66,34.704z"/><path fill="#28a2e9" d="M19.673,34.704c-0.01,0.007,4.294-0.969,4.493-2.154c0.134-0.797-0.491-1.051-0.421-1.863 c0.107-1.237,2.986-1.482,2.986-1.482l0,0c0,0-1.071,0.43,0.361,1.689c0.717,0.631,1.686,1.108,1.686,2.008 c0,1.125-1.19,1.801-1.19,1.801L19.673,34.704z"/><path fill="#28a2e9" d="M19.687,34.704c-0.01,0.007,4.281-0.968,4.483-2.149c0.136-0.799-0.491-1.053-0.421-1.868 c0.106-1.235,2.981-1.482,2.981-1.482l0,0c0,0-1.07,0.428,0.355,1.687c0.714,0.631,1.688,1.109,1.688,2.01 c0,1.125-1.193,1.802-1.193,1.802L19.687,34.704z"/><path fill="#29a3e9" d="M19.701,34.704c-0.01,0.007,4.269-0.967,4.473-2.145c0.139-0.802-0.49-1.055-0.42-1.872 c0.106-1.233,2.977-1.482,2.977-1.482l0,0c0,0-1.07,0.426,0.348,1.685c0.711,0.631,1.689,1.111,1.689,2.011 c0,1.125-1.195,1.802-1.195,1.802L19.701,34.704z"/><path fill="#29a3e9" d="M19.714,34.704c-0.01,0.007,4.256-0.965,4.463-2.14c0.142-0.804-0.49-1.058-0.42-1.876 c0.105-1.231,2.973-1.482,2.973-1.482l0,0c0,0-1.07,0.425,0.341,1.684c0.708,0.631,1.691,1.112,1.691,2.013 c0,1.124-1.198,1.803-1.198,1.803L19.714,34.704z"/><path fill="#2aa3ea" d="M19.728,34.704c-0.01,0.007,4.244-0.964,4.453-2.136c0.144-0.807-0.489-1.06-0.419-1.881 c0.105-1.228,2.969-1.482,2.969-1.482l0,0c0,0-1.07,0.423,0.335,1.682c0.705,0.632,1.693,1.113,1.693,2.014 c0,1.124-1.201,1.803-1.201,1.803L19.728,34.704z"/><path fill="#2aa3ea" d="M19.741,34.704c-0.009,0.007,4.232-0.963,4.443-2.131c0.147-0.81-0.488-1.063-0.418-1.885 c0.104-1.226,2.965-1.482,2.965-1.482l0,0c0,0-1.07,0.422,0.328,1.68c0.702,0.632,1.695,1.114,1.695,2.016 c0,1.124-1.204,1.803-1.204,1.803L19.741,34.704z"/><path fill="#2aa4ea" d="M19.755,34.704c-0.009,0.007,4.219-0.962,4.433-2.126c0.149-0.812-0.488-1.065-0.418-1.89 c0.104-1.224,2.961-1.483,2.961-1.483l0,0c0,0-1.069,0.42,0.321,1.678c0.699,0.632,1.697,1.115,1.697,2.017 c0,1.124-1.207,1.804-1.207,1.804L19.755,34.704z"/><path fill="#2ba4ea" d="M19.768,34.704c-0.009,0.007,4.207-0.961,4.423-2.122c0.152-0.815-0.487-1.067-0.417-1.894 c0.103-1.221,2.957-1.483,2.957-1.483l0,0c0,0-1.069,0.419,0.315,1.676c0.696,0.633,1.698,1.116,1.698,2.018 c0,1.123-1.21,1.804-1.21,1.804L19.768,34.704z"/><path fill="#2ba4ea" d="M19.782,34.704c-0.009,0.007,4.195-0.96,4.414-2.117c0.155-0.817-0.486-1.07-0.417-1.899 c0.102-1.219,2.952-1.483,2.952-1.483l0,0c0,0-1.069,0.417,0.308,1.674c0.693,0.633,1.7,1.117,1.7,2.02 c0,1.123-1.212,1.804-1.212,1.804L19.782,34.704z"/><path fill="#2ca4ea" d="M19.795,34.704c-0.009,0.007,4.182-0.959,4.404-2.113c0.157-0.82-0.486-1.072-0.416-1.903 c0.102-1.217,2.948-1.483,2.948-1.483l0,0c0,0-1.069,0.416,0.301,1.673c0.69,0.633,1.702,1.119,1.702,2.021 c0,1.123-1.215,1.805-1.215,1.805L19.795,34.704z"/><path fill="#2ca5ea" d="M19.809,34.704c-0.009,0.007,4.17-0.957,4.394-2.108c0.16-0.823-0.485-1.075-0.416-1.908 c0.101-1.215,2.944-1.483,2.944-1.483l0,0c0,0-1.069,0.414,0.294,1.671c0.687,0.634,1.704,1.12,1.704,2.023 c0,1.123-1.218,1.805-1.218,1.805L19.809,34.704z"/><path fill="#2ca5eb" d="M19.822,34.704c-0.009,0.007,4.158-0.956,4.384-2.104c0.163-0.825-0.485-1.077-0.415-1.912 c0.101-1.212,2.94-1.483,2.94-1.483l0,0c0,0-1.068,0.412,0.288,1.669c0.684,0.634,1.705,1.121,1.705,2.024 c0,1.122-1.221,1.806-1.221,1.806L19.822,34.704z"/><path fill="#2da5eb" d="M19.836,34.704c-0.009,0.007,4.145-0.955,4.374-2.099c0.165-0.828-0.484-1.079-0.415-1.916 c0.1-1.21,2.936-1.483,2.936-1.483l0,0c0,0-1.068,0.411,0.281,1.667c0.681,0.634,1.707,1.122,1.707,2.026 c0,1.122-1.224,1.806-1.224,1.806L19.836,34.704z"/><path fill="#2da5eb" d="M19.849,34.704c-0.009,0.007,4.133-0.954,4.364-2.094c0.168-0.831-0.483-1.082-0.414-1.921 c0.1-1.208,2.932-1.484,2.932-1.484l0,0c0,0-1.068,0.409,0.274,1.665c0.678,0.635,1.709,1.123,1.709,2.027 c0,1.122-1.227,1.806-1.227,1.806L19.849,34.704z"/><path fill="#2ea6eb" d="M19.863,34.704c-0.009,0.007,4.121-0.953,4.354-2.09c0.171-0.833-0.483-1.084-0.413-1.925 c0.099-1.205,2.927-1.484,2.927-1.484l0,0c0,0-1.068,0.408,0.268,1.664c0.675,0.635,1.711,1.124,1.711,2.028 c0,1.122-1.229,1.807-1.229,1.807L19.863,34.704z"/><path fill="#2ea6eb" d="M19.876,34.704c-0.009,0.007,4.109-0.952,4.344-2.085c0.174-0.836-0.482-1.087-0.413-1.93 c0.099-1.203,2.923-1.484,2.923-1.484l0,0c0,0-1.068,0.406,0.261,1.662c0.673,0.635,1.713,1.126,1.713,2.03 c0,1.121-1.232,1.807-1.232,1.807L19.876,34.704z"/><path fill="#2ea6eb" d="M19.89,34.704c-0.009,0.007,4.096-0.951,4.334-2.081c0.176-0.838-0.481-1.089-0.412-1.934 c0.098-1.201,2.919-1.484,2.919-1.484l0,0c0,0-1.068,0.405,0.254,1.66c0.67,0.636,1.714,1.127,1.714,2.031 c0,1.121-1.235,1.808-1.235,1.808L19.89,34.704z"/><path fill="#2fa6ec" d="M19.903,34.704c-0.009,0.007,4.084-0.949,4.324-2.076c0.179-0.841-0.481-1.091-0.412-1.939 c0.098-1.199,2.915-1.484,2.915-1.484l0,0c0,0-1.067,0.403,0.248,1.658c0.667,0.636,1.716,1.128,1.716,2.033 c0,1.121-1.238,1.808-1.238,1.808L19.903,34.704z"/><path fill="#2fa7ec" d="M19.917,34.704c-0.009,0.007,4.072-0.948,4.314-2.071c0.182-0.844-0.48-1.094-0.411-1.943 c0.097-1.196,2.911-1.484,2.911-1.484l0,0c0,0-1.067,0.402,0.241,1.656c0.664,0.636,1.718,1.129,1.718,2.034 c0,1.121-1.241,1.808-1.241,1.808L19.917,34.704z"/><path fill="#30a7ec" d="M19.93,34.704c-0.009,0.007,4.06-0.947,4.304-2.067c0.185-0.846-0.48-1.096-0.411-1.948 c0.097-1.194,2.907-1.484,2.907-1.484l0,0c0,0-1.067,0.4,0.234,1.654c0.661,0.637,1.72,1.13,1.72,2.036 c0,1.121-1.244,1.809-1.244,1.809L19.93,34.704z"/><path fill="#30a7ec" d="M19.944,34.704c-0.009,0.007,4.048-0.946,4.294-2.062c0.187-0.849-0.479-1.099-0.41-1.952 c0.096-1.192,2.903-1.484,2.903-1.484l0,0c0,0-1.067,0.399,0.228,1.653c0.658,0.637,1.722,1.131,1.722,2.037 c0,1.12-1.246,1.809-1.246,1.809L19.944,34.704z"/><path fill="#30a7ec" d="M19.957,34.704c-0.009,0.007,4.036-0.945,4.284-2.058c0.19-0.851-0.478-1.101-0.409-1.956 c0.096-1.189,2.898-1.485,2.898-1.485l0,0c0,0-1.067,0.397,0.221,1.651c0.655,0.637,1.723,1.132,1.723,2.039 c0,1.12-1.249,1.809-1.249,1.809L19.957,34.704z"/><path fill="#31a8ec" d="M19.971,34.704c-0.009,0.007,4.024-0.943,4.275-2.053c0.193-0.854-0.478-1.103-0.409-1.961 c0.095-1.187,2.894-1.485,2.894-1.485l0,0c0,0-1.067,0.396,0.214,1.649c0.652,0.638,1.725,1.134,1.725,2.04 c0,1.12-1.252,1.81-1.252,1.81L19.971,34.704z"/><path fill="#31a8ec" d="M19.984,34.704c-0.009,0.007,4.012-0.942,4.265-2.049c0.196-0.857-0.477-1.106-0.408-1.965 c0.095-1.185,2.89-1.485,2.89-1.485l0,0c0,0-1.066,0.394,0.207,1.647c0.649,0.638,1.727,1.135,1.727,2.041 c0,1.12-1.255,1.81-1.255,1.81L19.984,34.704z"/><path fill="#32a8ed" d="M19.998,34.704c-0.009,0.007,4-0.941,4.255-2.044c0.199-0.859-0.476-1.108-0.408-1.97 c0.094-1.183,2.886-1.485,2.886-1.485l0,0c0,0-1.066,0.393,0.201,1.645c0.646,0.638,1.729,1.136,1.729,2.043 c0,1.119-1.258,1.811-1.258,1.811L19.998,34.704z"/><path fill="#32a8ed" d="M20.011,34.704c-0.009,0.007,3.988-0.94,4.245-2.039c0.201-0.862-0.476-1.111-0.407-1.974 c0.094-1.18,2.882-1.485,2.882-1.485l0,0c0,0-1.066,0.391,0.194,1.644c0.643,0.639,1.73,1.137,1.73,2.044 c0,1.119-1.26,1.811-1.26,1.811L20.011,34.704z"/><path fill="#32a8ed" d="M20.025,34.704c-0.009,0.006,3.976-0.939,4.235-2.035c0.204-0.864-0.475-1.113-0.407-1.979 c0.093-1.178,2.878-1.485,2.878-1.485l0,0c0,0-1.066,0.39,0.187,1.642c0.64,0.639,1.732,1.138,1.732,2.046 c0,1.119-1.263,1.811-1.263,1.811L20.025,34.704z"/><path fill="#33a9ed" d="M20.038,34.704c-0.009,0.006,3.964-0.938,4.225-2.03c0.207-0.867-0.475-1.115-0.406-1.983 c0.093-1.176,2.873-1.485,2.873-1.485l0,0c0,0-1.066,0.388,0.181,1.64c0.637,0.639,1.734,1.139,1.734,2.047 c0,1.119-1.266,1.812-1.266,1.812L20.038,34.704z"/><path fill="#33a9ed" d="M20.052,34.704c-0.009,0.006,3.952-0.936,4.215-2.026c0.21-0.869-0.474-1.118-0.405-1.988 c0.092-1.173,2.869-1.485,2.869-1.485l0,0c0,0-1.066,0.387,0.174,1.638c0.634,0.64,1.736,1.141,1.736,2.049 c0,1.118-1.269,1.812-1.269,1.812L20.052,34.704z"/><path fill="#34a9ed" d="M20.066,34.704c-0.009,0.006,3.94-0.935,4.205-2.021c0.213-0.872-0.473-1.12-0.405-1.992 c0.092-1.171,2.865-1.486,2.865-1.486l0,0c0,0-1.066,0.385,0.167,1.636c0.631,0.64,1.738,1.142,1.738,2.05 c0,1.118-1.272,1.813-1.272,1.813L20.066,34.704z"/><path fill="#34a9ee" d="M20.079,34.704c-0.009,0.006,3.928-0.934,4.195-2.017c0.216-0.875-0.473-1.123-0.404-1.996 c0.091-1.169,2.861-1.486,2.861-1.486l0,0c0,0-1.065,0.384,0.161,1.635c0.628,0.64,1.739,1.143,1.739,2.051 c0,1.118-1.275,1.813-1.275,1.813L20.079,34.704z"/><path fill="#34aaee" d="M20.093,34.704c-0.009,0.006,3.916-0.933,4.185-2.012c0.219-0.877-0.472-1.125-0.404-2.001 c0.091-1.167,2.857-1.486,2.857-1.486l0,0c0,0-1.065,0.383,0.154,1.633c0.625,0.641,1.741,1.144,1.741,2.053 c0,1.118-1.277,1.813-1.277,1.813L20.093,34.704z"/><path fill="#35aaee" d="M20.106,34.704c-0.009,0.006,3.904-0.932,4.175-2.007c0.222-0.88-0.471-1.127-0.403-2.005 c0.09-1.164,2.853-1.486,2.853-1.486l0,0c0,0-1.065,0.381,0.147,1.631c0.622,0.641,1.743,1.145,1.743,2.054 c0,1.117-1.28,1.814-1.28,1.814L20.106,34.704z"/><path fill="#35aaee" d="M20.12,34.704c-0.009,0.006,3.892-0.93,4.165-2.003c0.225-0.882-0.471-1.13-0.403-2.01 c0.09-1.162,2.849-1.486,2.849-1.486l0,0c0,0-1.065,0.38,0.141,1.629c0.619,0.642,1.745,1.146,1.745,2.056 c0,1.117-1.283,1.814-1.283,1.814L20.12,34.704z"/><path fill="#36aaee" d="M20.133,34.704c-0.009,0.006,3.88-0.929,4.155-1.998c0.228-0.885-0.47-1.132-0.402-2.014 c0.089-1.16,2.844-1.486,2.844-1.486l0,0c0,0-1.065,0.378,0.134,1.627c0.616,0.642,1.746,1.147,1.746,2.057 c0,1.117-1.286,1.814-1.286,1.814L20.133,34.704z"/><path fill="#36abee" d="M20.147,34.704c-0.009,0.006,3.869-0.928,4.145-1.994c0.23-0.887-0.469-1.135-0.402-2.019 c0.089-1.157,2.84-1.486,2.84-1.486l0,0c0,0-1.065,0.377,0.127,1.625c0.613,0.642,1.748,1.149,1.748,2.059 c0,1.117-1.289,1.815-1.289,1.815L20.147,34.704z"/><path fill="#36abee" d="M20.16,34.704c-0.009,0.006,3.857-0.927,4.136-1.989c0.233-0.89-0.469-1.137-0.401-2.023 c0.088-1.155,2.836-1.487,2.836-1.487l0,0c0,0-1.065,0.375,0.12,1.624c0.61,0.643,1.75,1.15,1.75,2.06 c0,1.116-1.292,1.815-1.292,1.815L20.16,34.704z"/><path fill="#37abef" d="M20.174,34.704c-0.009,0.006,3.845-0.925,4.126-1.985c0.236-0.893-0.468-1.139-0.4-2.028 c0.088-1.153,2.832-1.487,2.832-1.487l0,0c0,0-1.064,0.374,0.114,1.622c0.607,0.643,1.752,1.151,1.752,2.061 c0,1.116-1.294,1.816-1.294,1.816L20.174,34.704z"/><path fill="#37abef" d="M20.187,34.704c-0.009,0.006,3.833-0.924,4.116-1.98c0.239-0.895-0.467-1.142-0.4-2.032 c0.087-1.151,2.828-1.487,2.828-1.487l0,0c0,0-1.064,0.372,0.107,1.62c0.604,0.643,1.754,1.152,1.754,2.063 c0,1.116-1.297,1.816-1.297,1.816L20.187,34.704z"/><path fill="#38acef" d="M20.201,34.704c-0.009,0.006,3.821-0.923,4.106-1.975c0.242-0.898-0.467-1.144-0.399-2.036 c0.087-1.148,2.824-1.487,2.824-1.487l0,0c0,0-1.064,0.371,0.1,1.618c0.601,0.644,1.755,1.153,1.755,2.064 c0,1.116-1.3,1.816-1.3,1.816L20.201,34.704z"/><path fill="#38acef" d="M20.214,34.704c-0.009,0.006,3.81-0.922,4.096-1.971c0.246-0.9-0.466-1.146-0.399-2.041 c0.086-1.146,2.819-1.487,2.819-1.487l0,0c0,0-1.064,0.369,0.094,1.616c0.598,0.644,1.757,1.154,1.757,2.066 c0,1.116-1.303,1.817-1.303,1.817L20.214,34.704z"/><path fill="#38acef" d="M20.228,34.704c-0.009,0.006,3.798-0.921,4.086-1.966c0.249-0.903-0.465-1.149-0.398-2.045 c0.086-1.144,2.815-1.487,2.815-1.487l0,0c0,0-1.064,0.368,0.087,1.615c0.595,0.645,1.759,1.156,1.759,2.067 c0,1.115-1.306,1.817-1.306,1.817L20.228,34.704z"/><path fill="#39acef" d="M20.241,34.704c-0.009,0.006,3.786-0.919,4.076-1.962c0.252-0.905-0.465-1.151-0.398-2.05 c0.085-1.141,2.811-1.487,2.811-1.487l0,0c0,0-1.064,0.367,0.08,1.613c0.592,0.645,1.761,1.157,1.761,2.069 c0,1.115-1.309,1.818-1.309,1.818L20.241,34.704z"/><path fill="#39adf0" d="M20.255,34.704c-0.009,0.006,3.775-0.918,4.066-1.957c0.255-0.908-0.464-1.154-0.397-2.054 c0.085-1.139,2.807-1.487,2.807-1.487l0,0c0,0-1.064,0.365,0.074,1.611c0.589,0.645,1.762,1.158,1.762,2.07 c0,1.115-1.311,1.818-1.311,1.818L20.255,34.704z"/><path fill="#3aadf0" d="M20.268,34.704c-0.009,0.006,3.763-0.917,4.056-1.952c0.258-0.91-0.464-1.156-0.396-2.059 c0.085-1.137,2.803-1.488,2.803-1.488l0,0c0,0-1.064,0.364,0.067,1.609c0.586,0.646,1.764,1.159,1.764,2.071 c0,1.115-1.314,1.818-1.314,1.818L20.268,34.704z"/><path fill="#3aadf0" d="M20.282,34.704c-0.009,0.006,3.751-0.915,4.046-1.948c0.261-0.913-0.463-1.158-0.396-2.063 c0.084-1.135,2.799-1.488,2.799-1.488l0,0c0,0-1.064,0.362,0.06,1.607c0.583,0.646,1.766,1.16,1.766,2.073 c0,1.114-1.317,1.819-1.317,1.819L20.282,34.704z"/><path fill="#3aadf0" d="M20.295,34.704c-0.009,0.006,3.739-0.914,4.036-1.943c0.264-0.915-0.462-1.161-0.395-2.068 c0.084-1.132,2.795-1.488,2.795-1.488l0,0c0,0-1.063,0.361,0.053,1.605c0.58,0.646,1.768,1.161,1.768,2.074 c0,1.114-1.32,1.819-1.32,1.819L20.295,34.704z"/><path fill="#3baef0" d="M20.309,34.704c-0.009,0.006,3.728-0.913,4.026-1.939c0.267-0.918-0.462-1.163-0.395-2.072 c0.083-1.13,2.79-1.488,2.79-1.488l0,0c0,0-1.063,0.36,0.047,1.604c0.577,0.647,1.77,1.162,1.77,2.076 c0,1.114-1.323,1.819-1.323,1.819L20.309,34.704z"/><path fill="#3baef0" d="M20.322,34.704c-0.009,0.006,3.716-0.912,4.016-1.934c0.27-0.921-0.461-1.166-0.394-2.076 c0.083-1.128,2.786-1.488,2.786-1.488l0,0c0,0-1.063,0.358,0.04,1.602c0.574,0.647,1.771,1.164,1.771,2.077 c0,1.114-1.326,1.82-1.326,1.82L20.322,34.704z"/><path fill="#3caef1" d="M20.336,34.704c-0.009,0.006,3.705-0.91,4.006-1.93c0.273-0.923-0.46-1.168-0.394-2.081 c0.082-1.125,2.782-1.488,2.782-1.488l0,0c0,0-1.063,0.357,0.033,1.6c0.571,0.648,1.773,1.165,1.773,2.079 c0,1.113-1.328,1.82-1.328,1.82L20.336,34.704z"/><path fill="#3caef1" d="M20.349,34.704c-0.009,0.006,3.693-0.909,3.996-1.925c0.277-0.926-0.46-1.17-0.393-2.085 c0.082-1.123,2.778-1.488,2.778-1.488l0,0c0,0-1.063,0.355,0.027,1.598c0.568,0.648,1.775,1.166,1.775,2.08 c0,1.113-1.331,1.821-1.331,1.821L20.349,34.704z"/><path fill="#3caff1" d="M20.363,34.704c-0.009,0.006,3.681-0.908,3.987-1.92c0.28-0.928-0.459-1.173-0.392-2.09 c0.081-1.121,2.774-1.489,2.774-1.489l0,0c0,0-1.063,0.354,0.02,1.596c0.565,0.648,1.777,1.167,1.777,2.081 c0,1.113-1.334,1.821-1.334,1.821L20.363,34.704z"/><path fill="#3daff1" d="M20.376,34.704c-0.009,0.006,3.67-0.907,3.977-1.916c0.283-0.931-0.458-1.175-0.392-2.094 c0.081-1.119,2.77-1.489,2.77-1.489l0,0c0,0-1.063,0.353,0.013,1.595c0.562,0.649,1.779,1.168,1.779,2.083 c0,1.113-1.337,1.821-1.337,1.821L20.376,34.704z"/><path fill="#3daff1" d="M20.39,34.704c-0.009,0.006,3.658-0.905,3.967-1.911c0.286-0.933-0.458-1.178-0.391-2.099 c0.08-1.116,2.765-1.489,2.765-1.489l0,0c0,0-1.063,0.351,0.007,1.593c0.559,0.649,1.78,1.169,1.78,2.084 c0,1.112-1.34,1.822-1.34,1.822L20.39,34.704z"/><path fill="#3eaff1" d="M20.403,34.704c-0.009,0.006,3.647-0.904,3.957-1.907c0.289-0.936-0.457-1.18-0.391-2.103 c0.08-1.114,2.761-1.489,2.761-1.489l0,0c0,0-1.063,0.35,0,1.591c0.556,0.65,1.782,1.171,1.782,2.086 c0,1.112-1.342,1.822-1.342,1.822L20.403,34.704z"/><path fill="#3eb0f1" d="M20.417,34.704c-0.009,0.006,3.635-0.903,3.947-1.902c0.293-0.938-0.456-1.182-0.39-2.108 c0.079-1.112,2.757-1.489,2.757-1.489l0,0c0,0-1.063,0.348-0.007,1.589c0.553,0.65,1.784,1.172,1.784,2.087 c0,1.112-1.345,1.823-1.345,1.823L20.417,34.704z"/><path fill="#3eb0f2" d="M20.43,34.704c-0.009,0.006,3.623-0.901,3.937-1.898c0.296-0.94-0.456-1.185-0.39-2.112 c0.079-1.109,2.753-1.489,2.753-1.489l0,0c0,0-1.063,0.347-0.013,1.587c0.55,0.65,1.786,1.173,1.786,2.089 c0,1.112-1.348,1.823-1.348,1.823L20.43,34.704z"/><path fill="#3fb0f2" d="M20.444,34.704c-0.009,0.006,3.612-0.9,3.927-1.893c0.299-0.943-0.455-1.187-0.389-2.116 c0.078-1.107,2.749-1.489,2.749-1.489l0,0c0,0-1.063,0.346-0.02,1.585c0.547,0.651,1.787,1.174,1.787,2.09 c0,1.112-1.351,1.823-1.351,1.823L20.444,34.704z"/><path fill="#3fb0f2" d="M20.458,34.704c-0.009,0.006,3.6-0.899,3.917-1.888c0.302-0.945-0.454-1.19-0.388-2.121 c0.078-1.105,2.745-1.489,2.745-1.489l0,0c0,0-1.062,0.344-0.027,1.584c0.544,0.651,1.789,1.175,1.789,2.091 c0,1.111-1.354,1.824-1.354,1.824L20.458,34.704z"/><path fill="#40b1f2" d="M20.471,34.704c-0.009,0.006,3.589-0.897,3.907-1.884c0.306-0.948-0.454-1.192-0.388-2.125 c0.078-1.103,2.741-1.49,2.741-1.49l0,0c0,0-1.062,0.343-0.034,1.582c0.541,0.652,1.791,1.176,1.791,2.093 c0,1.111-1.357,1.824-1.357,1.824L20.471,34.704z"/><path fill="#40b1f2" d="M20.485,34.704c-0.009,0.006,3.577-0.896,3.897-1.879c0.309-0.95-0.453-1.194-0.387-2.13 c0.077-1.1,2.736-1.49,2.736-1.49l0,0c0,0-1.062,0.341-0.04,1.58c0.538,0.652,1.793,1.177,1.793,2.094 c0,1.111-1.359,1.824-1.359,1.824L20.485,34.704z"/><path fill="#40b1f2" d="M20.498,34.704c-0.009,0.006,3.566-0.895,3.887-1.875c0.312-0.953-0.452-1.197-0.387-2.134 c0.077-1.098,2.732-1.49,2.732-1.49l0,0c0,0-1.062,0.34-0.047,1.578c0.535,0.652,1.795,1.179,1.795,2.096 c0,1.111-1.362,1.825-1.362,1.825L20.498,34.704z"/><path fill="#41b1f3" d="M20.512,34.704c-0.009,0.006,3.554-0.893,3.877-1.87c0.316-0.955-0.452-1.199-0.386-2.139 c0.076-1.096,2.728-1.49,2.728-1.49l0,0c0,0-1.062,0.339-0.054,1.576c0.532,0.653,1.796,1.18,1.796,2.097 c0,1.11-1.365,1.825-1.365,1.825L20.512,34.704z"/><path fill="#41b1f3" d="M20.525,34.704c-0.009,0.006,3.543-0.892,3.867-1.865c0.319-0.958-0.451-1.202-0.386-2.143 c0.076-1.093,2.724-1.49,2.724-1.49l0,0c0,0-1.062,0.337-0.06,1.575c0.529,0.653,1.798,1.181,1.798,2.099 c0,1.11-1.368,1.826-1.368,1.826L20.525,34.704z"/><path fill="#42b2f3" d="M20.539,34.704c-0.009,0.006,3.532-0.891,3.857-1.861c0.322-0.96-0.45-1.204-0.385-2.148 c0.075-1.091,2.72-1.49,2.72-1.49l0,0c0,0-1.062,0.336-0.067,1.573c0.526,0.654,1.8,1.182,1.8,2.1 c0,1.11-1.371,1.826-1.371,1.826L20.539,34.704z"/><path fill="#42b2f3" d="M20.552,34.704c-0.009,0.006,3.52-0.889,3.848-1.856c0.326-0.962-0.45-1.206-0.385-2.152 c0.075-1.089,2.716-1.49,2.716-1.49l0,0c0,0-1.062,0.335-0.074,1.571c0.523,0.654,1.802,1.183,1.802,2.102 c0,1.11-1.374,1.826-1.374,1.826L20.552,34.704z"/><path fill="#42b2f3" d="M20.566,34.704c-0.009,0.006,3.509-0.888,3.838-1.852c0.329-0.965-0.449-1.209-0.384-2.156 c0.074-1.086,2.712-1.491,2.712-1.491l0,0c0,0-1.062,0.333-0.08,1.569c0.52,0.654,1.803,1.184,1.803,2.103 c0,1.109-1.376,1.827-1.376,1.827L20.566,34.704z"/><path fill="#43b2f3" d="M20.579,34.704c-0.009,0.006,3.497-0.886,3.828-1.847c0.333-0.967-0.448-1.211-0.383-2.161 c0.074-1.084,2.707-1.491,2.707-1.491l0,0c0,0-1.062,0.332-0.087,1.567c0.517,0.655,1.805,1.186,1.805,2.104 c0,1.109-1.379,1.827-1.379,1.827L20.579,34.704z"/><path fill="#43b3f3" d="M20.593,34.704c-0.008,0.006,3.486-0.885,3.818-1.843c0.336-0.97-0.448-1.214-0.383-2.165 c0.074-1.082,2.703-1.491,2.703-1.491l0,0c0,0-1.062,0.331-0.094,1.566c0.514,0.655,1.807,1.187,1.807,2.106 c0,1.109-1.382,1.828-1.382,1.828L20.593,34.704z"/><path fill="#44b3f4" d="M20.606,34.704c-0.008,0.006,3.474-0.884,3.808-1.838c0.34-0.972-0.447-1.216-0.382-2.17 c0.073-1.08,2.699-1.491,2.699-1.491l0,0c0,0-1.062,0.329-0.1,1.564c0.511,0.656,1.809,1.188,1.809,2.107 c0,1.109-1.385,1.828-1.385,1.828L20.606,34.704z"/><path fill="#44b3f4" d="M20.62,34.704c-0.008,0.006,3.463-0.882,3.798-1.833c0.343-0.974-0.446-1.218-0.382-2.174 c0.073-1.077,2.695-1.491,2.695-1.491l0,0c0,0-1.062,0.328-0.107,1.562c0.508,0.656,1.811,1.189,1.811,2.109 c0,1.108-1.388,1.828-1.388,1.828L20.62,34.704z"/><path fill="#44b3f4" d="M20.633,34.704c-0.008,0.006,3.452-0.881,3.788-1.829c0.346-0.977-0.445-1.221-0.381-2.179 c0.072-1.075,2.691-1.491,2.691-1.491l0,0c0,0-1.062,0.327-0.114,1.56c0.505,0.657,1.812,1.19,1.812,2.11 c0,1.108-1.391,1.829-1.391,1.829L20.633,34.704z"/><path fill="#45b4f4" d="M20.647,34.704c-0.008,0.006,3.44-0.879,3.778-1.824c0.35-0.979-0.445-1.223-0.381-2.183 c0.072-1.073,2.687-1.491,2.687-1.491l0,0c0,0-1.062,0.325-0.121,1.558c0.502,0.657,1.814,1.191,1.814,2.112 c0,1.108-1.393,1.829-1.393,1.829L20.647,34.704z"/><path fill="#45b4f4" d="M20.66,34.704c-0.008,0.006,3.429-0.878,3.768-1.82c0.353-0.982-0.444-1.226-0.38-2.188 c0.071-1.07,2.682-1.491,2.682-1.491l0,0c0,0-1.062,0.324-0.127,1.556c0.499,0.657,1.816,1.192,1.816,2.113 c0,1.108-1.396,1.829-1.396,1.829L20.66,34.704z"/><path fill="#46b4f4" d="M20.674,34.704c-0.008,0.006,3.418-0.877,3.758-1.815c0.357-0.984-0.443-1.228-0.379-2.192 c0.071-1.068,2.678-1.492,2.678-1.492l0,0c0,0-1.062,0.323-0.134,1.555c0.496,0.658,1.818,1.194,1.818,2.114 c0,1.107-1.399,1.83-1.399,1.83L20.674,34.704z"/><path fill="#46b4f5" d="M20.687,34.704c-0.008,0.006,3.406-0.875,3.748-1.811c0.361-0.986-0.443-1.23-0.379-2.196 c0.07-1.066,2.674-1.492,2.674-1.492l0,0c0,0-1.062,0.321-0.141,1.553c0.492,0.658,1.819,1.195,1.819,2.116 c0,1.107-1.402,1.83-1.402,1.83L20.687,34.704z"/><path fill="#46b5f5" d="M20.701,34.704c-0.008,0.006,3.395-0.874,3.738-1.806c0.364-0.989-0.442-1.233-0.378-2.201 c0.07-1.064,2.67-1.492,2.67-1.492l0,0c0,0-1.062,0.32-0.147,1.551c0.489,0.659,1.821,1.196,1.821,2.117 c0,1.107-1.405,1.831-1.405,1.831L20.701,34.704z"/><path fill="#47b5f5" d="M20.714,34.704c-0.008,0.006,3.384-0.872,3.728-1.801c0.368-0.991-0.441-1.235-0.378-2.205 c0.07-1.061,2.666-1.492,2.666-1.492l0,0c0,0-1.062,0.319-0.154,1.549c0.486,0.659,1.823,1.197,1.823,2.119 c0,1.107-1.407,1.831-1.407,1.831L20.714,34.704z"/><path fill="#47b5f5" d="M20.728,34.704c-0.008,0.006,3.372-0.871,3.718-1.797c0.371-0.993-0.441-1.237-0.377-2.21 c0.069-1.059,2.662-1.492,2.662-1.492l0,0c0,0-1.062,0.317-0.161,1.547c0.483,0.66,1.825,1.198,1.825,2.12 c0,1.107-1.41,1.831-1.41,1.831L20.728,34.704z"/><path fill="#48b5f5" d="M20.741,34.704c-0.008,0.006,3.361-0.869,3.709-1.792c0.375-0.996-0.44-1.24-0.377-2.214 c0.069-1.057,2.658-1.492,2.658-1.492l0,0c0,0-1.062,0.316-0.167,1.546c0.48,0.66,1.827,1.199,1.827,2.122 c0,1.106-1.413,1.832-1.413,1.832L20.741,34.704z"/><path fill="#48b6f5" d="M20.755,34.704c-0.008,0.006,3.35-0.868,3.699-1.788c0.378-0.998-0.439-1.242-0.376-2.219 c0.068-1.054,2.653-1.492,2.653-1.492l0,0c0,0-1.062,0.315-0.174,1.544c0.477,0.66,1.828,1.201,1.828,2.123 c0,1.106-1.416,1.832-1.416,1.832L20.755,34.704z"/><path fill="#48b6f5" d="M20.768,34.704c-0.008,0.006,3.338-0.867,3.689-1.783c0.382-1-0.439-1.245-0.375-2.223 c0.068-1.052,2.649-1.493,2.649-1.493l0,0c0,0-1.062,0.313-0.181,1.542c0.474,0.661,1.83,1.202,1.83,2.124 c0,1.106-1.419,1.832-1.419,1.832L20.768,34.704z"/><path fill="#49b6f6" d="M20.782,34.704c-0.008,0.006,3.327-0.865,3.679-1.778c0.386-1.002-0.438-1.247-0.375-2.228 c0.067-1.05,2.645-1.493,2.645-1.493l0,0c0,0-1.062,0.312-0.187,1.54c0.471,0.661,1.832,1.203,1.832,2.126 c0,1.106-1.422,1.833-1.422,1.833L20.782,34.704z"/><path fill="#49b6f6" d="M20.795,34.704c-0.008,0.006,3.316-0.864,3.669-1.774c0.389-1.005-0.437-1.249-0.374-2.232 c0.067-1.048,2.641-1.493,2.641-1.493l0,0c0,0-1.062,0.311-0.194,1.538c0.468,0.662,1.834,1.204,1.834,2.127 c0,1.105-1.424,1.833-1.424,1.833L20.795,34.704z"/><path fill="#4ab7f6" d="M20.809,34.704c-0.008,0.006,3.305-0.862,3.659-1.769c0.393-1.007-0.436-1.252-0.374-2.236 c0.067-1.045,2.637-1.493,2.637-1.493l0,0c0,0-1.062,0.31-0.201,1.536c0.465,0.662,1.836,1.205,1.836,2.129 c0,1.105-1.427,1.834-1.427,1.834L20.809,34.704z"/><path fill="#4ab7f6" d="M20.823,34.704c-0.008,0.006,3.293-0.861,3.649-1.765c0.397-1.009-0.436-1.254-0.373-2.241 c0.066-1.043,2.633-1.493,2.633-1.493l0,0c0,0-1.062,0.308-0.208,1.535c0.462,0.663,1.837,1.206,1.837,2.13 c0,1.105-1.43,1.834-1.43,1.834L20.823,34.704z"/><path fill="#4ab7f6" d="M20.836,34.704c-0.008,0.006,3.282-0.859,3.639-1.76c0.4-1.011-0.435-1.257-0.373-2.245 c0.066-1.041,2.628-1.493,2.628-1.493l0,0c0,0-1.062,0.307-0.214,1.533c0.459,0.663,1.839,1.207,1.839,2.132 c0,1.105-1.433,1.834-1.433,1.834L20.836,34.704z"/><path fill="#4bb7f6" d="M20.85,34.704c-0.008,0.006,3.271-0.858,3.629-1.756c0.404-1.014-0.434-1.259-0.372-2.25 c0.065-1.038,2.624-1.493,2.624-1.493l0,0c0,0-1.062,0.306-0.221,1.531c0.456,0.664,1.841,1.209,1.841,2.133 c0,1.104-1.436,1.835-1.436,1.835L20.85,34.704z"/><path fill="#4bb8f7" d="M20.863,34.704c-0.008,0.006,3.26-0.856,3.619-1.751c0.408-1.016-0.434-1.261-0.372-2.254 c0.065-1.036,2.62-1.493,2.62-1.493l0,0c0,0-1.062,0.304-0.228,1.529c0.453,0.664,1.843,1.21,1.843,2.134 c0,1.104-1.439,1.835-1.439,1.835L20.863,34.704z"/><path fill="#4cb8f7" d="M20.877,34.704c-0.008,0.006,3.249-0.855,3.609-1.746c0.412-1.018-0.433-1.264-0.371-2.259 c0.064-1.034,2.616-1.494,2.616-1.494l0,0c0,0-1.063,0.303-0.234,1.527c0.449,0.664,1.844,1.211,1.844,2.136 c0,1.104-1.441,1.836-1.441,1.836L20.877,34.704z"/><path fill="#4cb8f7" d="M20.89,34.704c-0.008,0.006,3.237-0.853,3.599-1.742c0.416-1.02-0.432-1.266-0.37-2.263 c0.064-1.032,2.612-1.494,2.612-1.494l0,0c0,0-1.063,0.302-0.241,1.526c0.446,0.665,1.846,1.212,1.846,2.137 c0,1.104-1.444,1.836-1.444,1.836L20.89,34.704z"/><path fill="#4cb8f7" d="M20.904,34.704c-0.008,0.006,3.226-0.851,3.589-1.737c0.419-1.022-0.432-1.269-0.37-2.268 c0.064-1.029,2.608-1.494,2.608-1.494l0,0c0,0-1.063,0.301-0.248,1.524c0.443,0.665,1.848,1.213,1.848,2.139 c0,1.103-1.447,1.836-1.447,1.836L20.904,34.704z"/><path fill="#4db9f7" d="M20.917,34.704c-0.008,0.006,3.215-0.85,3.579-1.733c0.423-1.025-0.431-1.271-0.369-2.272 c0.063-1.027,2.604-1.494,2.604-1.494l0,0c0,0-1.063,0.299-0.254,1.522c0.44,0.666,1.85,1.214,1.85,2.14 c0,1.103-1.45,1.837-1.45,1.837L20.917,34.704z"/><path fill="#4db9f7" d="M20.931,34.704c-0.008,0.006,3.204-0.848,3.569-1.728c0.427-1.027-0.43-1.273-0.369-2.277 c0.063-1.025,2.599-1.494,2.599-1.494l0,0c0,0-1.063,0.298-0.261,1.52c0.437,0.666,1.852,1.216,1.852,2.142 c0,1.103-1.453,1.837-1.453,1.837L20.931,34.704z"/><path fill="#4db9f7" d="M20.944,34.704c-0.008,0.006,3.192-0.847,3.56-1.724c0.431-1.029-0.429-1.276-0.368-2.281 c0.062-1.022,2.595-1.494,2.595-1.494l0,0c0,0-1.063,0.297-0.268,1.518c0.434,0.667,1.853,1.217,1.853,2.143 c0,1.103-1.456,1.837-1.456,1.837L20.944,34.704z"/><path fill="#4eb9f8" d="M20.958,34.704c-0.008,0.006,3.181-0.845,3.55-1.719c0.435-1.031-0.429-1.278-0.368-2.285 c0.062-1.02,2.591-1.494,2.591-1.494l0,0c0,0-1.063,0.295-0.274,1.517c0.431,0.667,1.855,1.218,1.855,2.144 c0,1.103-1.458,1.838-1.458,1.838L20.958,34.704z"/><path fill="#4ebaf8" d="M20.971,34.704c-0.008,0.006,3.17-0.844,3.54-1.714c0.439-1.033-0.428-1.281-0.367-2.29 c0.061-1.018,2.587-1.495,2.587-1.495l0,0c0,0-1.063,0.294-0.281,1.515c0.428,0.668,1.857,1.219,1.857,2.146 c0,1.102-1.461,1.838-1.461,1.838L20.971,34.704z"/><path fill="#4fbaf8" d="M20.985,34.704c-0.008,0.006,3.159-0.842,3.53-1.71c0.442-1.035-0.427-1.283-0.366-2.294 c0.061-1.015,2.583-1.495,2.583-1.495l0,0c0,0-1.063,0.293-0.288,1.513c0.425,0.668,1.859,1.22,1.859,2.147 c0,1.102-1.464,1.839-1.464,1.839L20.985,34.704z"/><path fill="#4fbaf8" d="M20.998,34.704c-0.008,0.006,3.148-0.841,3.52-1.705c0.446-1.038-0.427-1.285-0.366-2.299 c0.061-1.013,2.579-1.495,2.579-1.495l0,0c0,0-1.063,0.292-0.295,1.511c0.421,0.669,1.86,1.221,1.86,2.149 c0,1.102-1.467,1.839-1.467,1.839L20.998,34.704z"/><path fill="#4fbaf8" d="M21.012,34.704c-0.008,0.006,3.137-0.839,3.51-1.701c0.45-1.04-0.426-1.288-0.365-2.303 c0.06-1.011,2.574-1.495,2.574-1.495l0,0c0,0-1.064,0.29-0.301,1.509c0.418,0.669,1.862,1.222,1.862,2.15 c0,1.102-1.47,1.839-1.47,1.839L21.012,34.704z"/><path fill="#50bbf8" d="M21.025,34.704c-0.008,0.006,3.126-0.837,3.5-1.696c0.454-1.042-0.425-1.29-0.365-2.308 c0.06-1.009,2.57-1.495,2.57-1.495l0,0c0,0-1.064,0.289-0.308,1.507c0.415,0.669,1.864,1.224,1.864,2.152 c0,1.101-1.473,1.84-1.473,1.84L21.025,34.704z"/><path fill="#50bbf9" d="M21.039,34.704c-0.008,0.006,3.114-0.836,3.49-1.692c0.458-1.044-0.424-1.293-0.364-2.312 c0.059-1.006,2.566-1.495,2.566-1.495l0,0c0,0-1.064,0.288-0.315,1.506c0.412,0.67,1.866,1.225,1.866,2.153 c0,1.101-1.475,1.84-1.475,1.84L21.039,34.704z"/><path fill="#51bbf9" d="M21.052,34.704c-0.008,0.006,3.103-0.834,3.48-1.687c0.462-1.046-0.424-1.295-0.364-2.317 c0.059-1.004,2.562-1.495,2.562-1.495l0,0c0,0-1.064,0.287-0.321,1.504c0.409,0.67,1.868,1.226,1.868,2.154 c0,1.101-1.478,1.841-1.478,1.841L21.052,34.704z"/><path fill="#51bbf9" d="M21.066,34.704c-0.008,0.006,3.092-0.833,3.47-1.682c0.466-1.048-0.423-1.297-0.363-2.321 c0.059-1.002,2.558-1.495,2.558-1.495l0,0c0,0-1.064,0.285-0.328,1.502c0.406,0.671,1.869,1.227,1.869,2.156 c0,1.101-1.481,1.841-1.481,1.841L21.066,34.704z"/><path fill="#51bbf9" d="M21.079,34.704c-0.008,0.006,3.081-0.831,3.46-1.678c0.47-1.05-0.422-1.3-0.362-2.325 c0.058-0.999,2.554-1.496,2.554-1.496l0,0c0,0-1.064,0.284-0.335,1.5c0.403,0.671,1.871,1.228,1.871,2.157 c0,1.1-1.484,1.841-1.484,1.841L21.079,34.704z"/><path fill="#52bcf9" d="M21.093,34.704c-0.008,0.006,3.07-0.829,3.45-1.673c0.474-1.052-0.421-1.302-0.362-2.33 c0.058-0.997,2.55-1.496,2.55-1.496l0,0c0,0-1.064,0.283-0.341,1.498c0.4,0.672,1.873,1.229,1.873,2.159 c0,1.1-1.487,1.842-1.487,1.842L21.093,34.704z"/><path fill="#52bcf9" d="M21.106,34.704c-0.008,0.006,3.059-0.828,3.44-1.669c0.478-1.054-0.421-1.304-0.361-2.334 c0.057-0.995,2.545-1.496,2.545-1.496l0,0c0,0-1.065,0.282-0.348,1.497c0.396,0.672,1.875,1.23,1.875,2.16 c0,1.1-1.489,1.842-1.489,1.842L21.106,34.704z"/><path fill="#53bcf9" d="M21.12,34.704c-0.008,0.006,3.048-0.826,3.43-1.664c0.482-1.056-0.42-1.307-0.361-2.339 c0.057-0.993,2.541-1.496,2.541-1.496l0,0c0,0-1.065,0.28-0.355,1.495c0.393,0.673,1.877,1.232,1.876,2.162 c0,1.1-1.492,1.842-1.492,1.842L21.12,34.704z"/><path fill="#53bcfa" d="M21.133,34.704c-0.008,0.006,3.036-0.824,3.421-1.659c0.487-1.058-0.419-1.309-0.36-2.343 c0.057-0.99,2.537-1.496,2.537-1.496l0,0c0,0-1.065,0.279-0.362,1.493c0.39,0.673,1.878,1.233,1.878,2.163 c0,1.099-1.495,1.843-1.495,1.843L21.133,34.704z"/><path fill="#53bdfa" d="M21.147,34.704c-0.008,0.006,3.025-0.823,3.411-1.655c0.491-1.06-0.418-1.312-0.36-2.348 c0.056-0.988,2.533-1.496,2.533-1.496l0,0c0,0-1.065,0.278-0.368,1.491c0.387,0.674,1.88,1.234,1.88,2.165 c0,1.099-1.498,1.843-1.498,1.843L21.147,34.704z"/><path fill="#54bdfa" d="M21.16,34.704c-0.008,0.006,3.014-0.821,3.401-1.65c0.495-1.062-0.418-1.314-0.359-2.352 c0.056-0.986,2.529-1.496,2.529-1.496l0,0c0,0-1.065,0.277-0.375,1.489c0.384,0.674,1.882,1.235,1.882,2.166 c0,1.099-1.501,1.844-1.501,1.844L21.16,34.704z"/><path fill="#54bdfa" d="M21.174,34.704c-0.008,0.006,3.003-0.819,3.391-1.646c0.499-1.064-0.417-1.316-0.359-2.357 c0.055-0.983,2.525-1.497,2.525-1.497l0,0c0,0-1.066,0.275-0.382,1.487c0.381,0.675,1.884,1.236,1.884,2.167 c0,1.099-1.504,1.844-1.504,1.844L21.174,34.704z"/><path fill="#55bdfa" d="M21.187,34.704c-0.008,0.006,2.992-0.818,3.381-1.641c0.503-1.066-0.416-1.319-0.358-2.361 c0.055-0.981,2.52-1.497,2.52-1.497l0,0c0,0-1.066,0.274-0.388,1.486c0.377,0.675,1.885,1.237,1.885,2.169 c0,1.099-1.506,1.844-1.506,1.844L21.187,34.704z"/><path fill="#55befa" d="M21.201,34.704c-0.008,0.006,2.981-0.816,3.371-1.637c0.507-1.068-0.416-1.321-0.357-2.365 c0.054-0.979,2.516-1.497,2.516-1.497l0,0c0,0-1.066,0.273-0.395,1.484c0.374,0.676,1.887,1.239,1.887,2.17 c0,1.098-1.509,1.845-1.509,1.845L21.201,34.704z"/><path fill="#55befb" d="M21.215,34.704c-0.008,0.005,2.97-0.814,3.361-1.632c0.511-1.07-0.415-1.324-0.357-2.37 c0.054-0.977,2.512-1.497,2.512-1.497l0,0c0,0-1.066,0.272-0.402,1.482c0.371,0.676,1.889,1.24,1.889,2.172 c0,1.098-1.512,1.845-1.512,1.845L21.215,34.704z"/><path fill="#56befb" d="M21.228,34.704c-0.008,0.005,2.959-0.812,3.351-1.627c0.516-1.072-0.414-1.326-0.356-2.374 c0.054-0.974,2.508-1.497,2.508-1.497l0,0c0,0-1.066,0.27-0.408,1.48c0.368,0.677,1.891,1.241,1.891,2.173 c0,1.098-1.515,1.846-1.515,1.846L21.228,34.704z"/><path fill="#56befb" d="M21.242,34.704c-0.008,0.005,2.948-0.811,3.341-1.623c0.52-1.073-0.413-1.328-0.356-2.379 c0.053-0.972,2.504-1.497,2.504-1.497l0,0c0,0-1.067,0.269-0.415,1.478c0.365,0.677,1.893,1.242,1.893,2.175 c0,1.098-1.518,1.846-1.518,1.846L21.242,34.704z"/><path fill="#57bffb" d="M21.255,34.704c-0.008,0.005,2.937-0.809,3.331-1.618c0.524-1.075-0.413-1.331-0.355-2.383 c0.053-0.97,2.5-1.497,2.5-1.497l0,0c0,0-1.067,0.268-0.422,1.477c0.362,0.678,1.894,1.243,1.894,2.176 c0,1.097-1.521,1.846-1.521,1.846L21.255,34.704z"/><path fill="#57bffb" d="M21.269,34.704c-0.008,0.005,2.926-0.807,3.321-1.614c0.528-1.077-0.412-1.333-0.355-2.388 c0.052-0.967,2.496-1.497,2.496-1.497l0,0c0,0-1.067,0.267-0.428,1.475c0.358,0.678,1.896,1.244,1.896,2.177 c0,1.097-1.523,1.847-1.523,1.847L21.269,34.704z"/><path fill="#57bffb" d="M21.282,34.704c-0.008,0.005,2.915-0.806,3.311-1.609c0.533-1.079-0.411-1.336-0.354-2.392 c0.052-0.965,2.491-1.498,2.491-1.498l0,0c0,0-1.067,0.265-0.435,1.473c0.355,0.679,1.898,1.245,1.898,2.179 c0,1.097-1.526,1.847-1.526,1.847L21.282,34.704z"/><path fill="#58bffb" d="M21.296,34.704c-0.008,0.005,2.904-0.804,3.301-1.605c0.537-1.081-0.41-1.338-0.353-2.397 c0.052-0.963,2.487-1.498,2.487-1.498l0,0c0,0-1.068,0.264-0.442,1.471c0.352,0.679,1.9,1.247,1.9,2.18 c0,1.097-1.529,1.847-1.529,1.847L21.296,34.704z"/><path fill="#58c0fc" d="M21.309,34.704c-0.008,0.005,2.892-0.802,3.291-1.6c0.541-1.083-0.41-1.34-0.353-2.401 c0.051-0.96,2.483-1.498,2.483-1.498l0,0c0,0-1.068,0.263-0.449,1.469c0.349,0.679,1.901,1.248,1.901,2.182 c0,1.096-1.532,1.848-1.532,1.848L21.309,34.704z"/><path fill="#59c0fc" d="M21.323,34.704c-0.008,0.005,2.881-0.8,3.282-1.595c0.546-1.084-0.409-1.343-0.352-2.405 c0.051-0.958,2.479-1.498,2.479-1.498l0,0c0,0-1.068,0.262-0.455,1.467c0.346,0.68,1.903,1.249,1.903,2.183 c0,1.096-1.535,1.848-1.535,1.848L21.323,34.704z"/><path fill="#59c0fc" d="M21.336,34.704c-0.008,0.005,2.87-0.798,3.272-1.591c0.55-1.086-0.408-1.345-0.352-2.41 c0.051-0.956,2.475-1.498,2.475-1.498l0,0c0,0-1.068,0.26-0.462,1.466c0.342,0.68,1.905,1.25,1.905,2.185 c0,1.096-1.538,1.849-1.538,1.849L21.336,34.704z"/><path fill="#59c0fc" d="M21.35,34.704c-0.008,0.005,2.859-0.797,3.262-1.586c0.554-1.088-0.407-1.348-0.351-2.414 c0.05-0.954,2.471-1.498,2.471-1.498l0,0c0,0-1.069,0.259-0.469,1.464c0.339,0.681,1.907,1.251,1.907,2.186 c0,1.096-1.54,1.849-1.54,1.849L21.35,34.704z"/><path fill="#5ac1fc" d="M21.363,34.704c-0.008,0.005,2.848-0.795,3.252-1.582c0.559-1.09-0.404-1.35-0.351-2.419 c0.052-0.951,2.466-1.498,2.466-1.498l0,0c0,0-1.069,0.258-0.475,1.462c0.336,0.681,1.909,1.252,1.909,2.187 c0,1.095-1.543,1.849-1.543,1.849L21.363,34.704z"/><path fill="#5ac1fc" d="M21.377,34.704c-0.008,0.005,2.837-0.793,3.242-1.577c0.563-1.092-0.404-1.352-0.35-2.423 c0.051-0.949,2.462-1.499,2.462-1.499l0,0c0,0-1.069,0.257-0.482,1.46c0.333,0.682,1.91,1.254,1.91,2.189 c0,1.095-1.546,1.85-1.546,1.85L21.377,34.704z"/><path fill="#5bc1fd" d="M21.39,34.704c-0.008,0.005,2.826-0.791,3.232-1.572c0.568-1.093-0.403-1.355-0.349-2.428 c0.051-0.947,2.458-1.499,2.458-1.499l0,0c0,0-1.07,0.255-0.489,1.458c0.329,0.682,1.912,1.255,1.912,2.19 c0,1.095-1.549,1.85-1.549,1.85L21.39,34.704z"/><path fill="#5bc1fd" d="M21.404,34.704c-0.008,0.005,2.815-0.789,3.222-1.568c0.572-1.095-0.402-1.357-0.349-2.432 c0.05-0.944,2.454-1.499,2.454-1.499l0,0c0,0-1.07,0.254-0.495,1.457c0.326,0.683,1.914,1.256,1.914,2.192 c0,1.095-1.552,1.851-1.552,1.851L21.404,34.704z"/><path fill="#5bc2fd" d="M21.417,34.704c-0.008,0.005,2.804-0.788,3.212-1.563c0.577-1.097-0.402-1.359-0.348-2.437 c0.05-0.942,2.45-1.499,2.45-1.499l0,0c0,0-1.07,0.253-0.502,1.455c0.323,0.683,1.916,1.257,1.916,2.193 c0,1.094-1.554,1.851-1.554,1.851L21.417,34.704z"/><path fill="#5cc2fd" d="M21.431,34.704c-0.007,0.005,2.793-0.786,3.202-1.559c0.581-1.098-0.401-1.362-0.348-2.441 c0.049-0.94,2.446-1.499,2.446-1.499l0,0c0,0-1.07,0.252-0.509,1.453c0.32,0.684,1.917,1.258,1.917,2.195 c0,1.094-1.557,1.851-1.557,1.851L21.431,34.704z"/><path fill="#5cc2fd" d="M21.444,34.704c-0.007,0.005,2.782-0.784,3.192-1.554c0.586-1.1-0.4-1.364-0.347-2.445 c0.049-0.937,2.442-1.499,2.442-1.499l0,0c0,0-1.071,0.251-0.515,1.451c0.317,0.684,1.919,1.259,1.919,2.196 c0,1.094-1.56,1.852-1.56,1.852L21.444,34.704z"/><path fill="#5dc2fd" d="M21.458,34.704c-0.007,0.005,2.771-0.782,3.182-1.55c0.59-1.102-0.4-1.367-0.347-2.45 c0.048-0.935,2.437-1.499,2.437-1.499l0,0c0,0-1.071,0.249-0.522,1.449c0.313,0.685,1.921,1.26,1.921,2.197 c0,1.094-1.563,1.852-1.563,1.852L21.458,34.704z"/><path fill="#5dc3fd" d="M21.471,34.704c-0.007,0.005,2.76-0.78,3.172-1.545c0.595-1.103-0.399-1.369-0.346-2.454 c0.048-0.933,2.433-1.499,2.433-1.499l0,0c0,0-1.072,0.248-0.529,1.448c0.31,0.685,1.923,1.262,1.923,2.199 c0,1.094-1.566,1.852-1.566,1.852L21.471,34.704z"/><path fill="#5dc3fe" d="M21.485,34.704c-0.007,0.005,2.749-0.778,3.162-1.54c0.599-1.105-0.398-1.371-0.346-2.459 c0.047-0.931,2.429-1.5,2.429-1.5l0,0c0,0-1.072,0.247-0.536,1.446c0.307,0.686,1.925,1.263,1.925,2.2 c0,1.093-1.569,1.853-1.569,1.853L21.485,34.704z"/><path fill="#5ec3fe" d="M21.498,34.704c-0.007,0.005,2.738-0.776,3.152-1.536c0.604-1.106-0.398-1.374-0.345-2.463 c0.047-0.928,2.425-1.5,2.425-1.5l0,0c0,0-1.072,0.246-0.542,1.444c0.304,0.686,1.926,1.264,1.926,2.202 c0,1.093-1.571,1.853-1.571,1.853L21.498,34.704z"/><path fill="#5ec3fe" d="M21.512,34.704c-0.007,0.005,2.727-0.774,3.143-1.531c0.608-1.108-0.397-1.376-0.344-2.468 c0.046-0.926,2.421-1.5,2.421-1.5l0,0c0,0-1.073,0.244-0.549,1.442c0.3,0.687,1.928,1.265,1.928,2.203 c0,1.093-1.574,1.854-1.574,1.854L21.512,34.704z"/><path fill="#5fc4fe" d="M21.525,34.704c-0.007,0.005,2.716-0.773,3.133-1.527c0.613-1.11-0.396-1.379-0.344-2.472 c0.046-0.924,2.417-1.5,2.417-1.5l0,0c0,0-1.073,0.243-0.556,1.44c0.297,0.687,1.93,1.266,1.93,2.205 c0,1.093-1.577,1.854-1.577,1.854L21.525,34.704z"/><path fill="#5fc4fe" d="M21.539,34.704c-0.007,0.005,2.705-0.771,3.123-1.522c0.618-1.111-0.396-1.381-0.343-2.477 c0.045-0.921,2.412-1.5,2.412-1.5l0,0c0,0-1.076,0.243-0.562,1.438c0.292,0.688,1.932,1.267,1.932,2.206 c0,1.092-1.58,1.854-1.58,1.854L21.539,34.704z"/><path fill="#5fc4fe" d="M21.552,34.704c-0.007,0.005,2.694-0.769,3.113-1.518c0.622-1.113-0.395-1.383-0.343-2.481 c0.045-0.919,2.408-1.5,2.408-1.5l0,0c0,0-1.076,0.241-0.569,1.437c0.289,0.689,1.934,1.269,1.933,2.207 c0,1.092-1.583,1.855-1.583,1.855L21.552,34.704z"/><path fill="#60c4ff" d="M21.566,34.704c-0.007,0.005,2.683-0.767,3.103-1.513c0.627-1.114-0.394-1.386-0.342-2.485 c0.044-0.917,2.404-1.5,2.404-1.5l0,0c0,0-1.075,0.24-0.576,1.435c0.286,0.689,1.935,1.27,1.935,2.209 c0,1.092-1.586,1.855-1.586,1.855L21.566,34.704z"/><path fill="#60c5ff" d="M21.58,34.704c-0.007,0.005,2.672-0.765,3.093-1.508c0.632-1.116-0.394-1.388-0.342-2.49 c0.044-0.915,2.4-1.501,2.4-1.501l0,0c0,0-1.075,0.238-0.582,1.433c0.283,0.689,1.937,1.271,1.937,2.21 c0,1.092-1.588,1.856-1.588,1.856L21.58,34.704z"/><path fill="#61c5ff" d="M21.593,34.704c-0.007,0.005,2.662-0.762,3.083-1.504c0.638-1.116-0.393-1.391-0.341-2.494 c0.043-0.912,2.396-1.501,2.396-1.501l0,0c0,0-1.075,0.237-0.589,1.431c0.28,0.69,1.939,1.272,1.939,2.212 c0,1.091-1.591,1.856-1.591,1.856L21.593,34.704z"/><path fill="#61c5ff" d="M21.607,34.704c-0.007,0.005,2.65-0.761,3.073-1.499c0.641-1.118-0.392-1.393-0.34-2.499 c0.043-0.91,2.392-1.501,2.392-1.501l0,0c0,0-1.075,0.236-0.596,1.429c0.277,0.69,1.941,1.273,1.941,2.213 c0,1.091-1.594,1.856-1.594,1.856L21.607,34.704z"/><linearGradient id="imo7phhAYfrg5ERJzKoVng" x1="23.019" x2="30.634" y1="25.521" y2="28.884" gradientUnits="userSpaceOnUse"><stop offset="0" stop-color="#80889c"/><stop offset=".16" stop-color="#70788c"/><stop offset=".484" stop-color="#555e72"/><stop offset=".772" stop-color="#454e62"/><stop offset=".993" stop-color="#3f485c"/></linearGradient><polygon fill="url(#imo7phhAYfrg5ERJzKoVng)" points="21.254,29.205 23.802,26.537 26.06,25.327 27.838,23.186 30.581,26.152 30.993,29.205 27.384,29.205"/><polygon fill="#2e414f" points="27.838,23.186 28.076,24.661 25.8,27.944 25.343,29.205 27.755,29.205 29.297,24.764"/><g><linearGradient id="imo7phhAYfrg5ERJzKoVnh" x1="17.742" x2="19.086" y1="28.407" y2="28.407" gradientUnits="userSpaceOnUse"><stop offset="0" stop-color="#634614"/><stop offset=".202" stop-color="#845d1b"/><stop offset=".381" stop-color="#9b6d1f"/><stop offset=".494" stop-color="#a37321"/><stop offset=".645" stop-color="#94691e"/><stop offset=".932" stop-color="#6d4d16"/><stop offset="1" stop-color="#634614"/></linearGradient><path fill="url(#imo7phhAYfrg5ERJzKoVnh)" d="M18.76,23.934h-0.688c0,8.923-0.344,8.142-0.344,8.945h1.376 C19.104,32.102,18.76,32.815,18.76,23.934z"/><linearGradient id="imo7phhAYfrg5ERJzKoVni" x1="18.416" x2="18.416" y1="30.203" y2="31.688" gradientUnits="userSpaceOnUse"><stop offset="0" stop-color="#38280b"/><stop offset="1" stop-color="#38280b" stop-opacity="0"/></linearGradient><path fill="url(#imo7phhAYfrg5ERJzKoVni)" d="M18.76,23.934h-0.688c0,8.923-0.344,8.142-0.344,8.945h1.376 C19.104,32.102,18.76,32.815,18.76,23.934z"/><radialGradient id="imo7phhAYfrg5ERJzKoVnj" cx="19.25" cy="42.479" r="4.363" gradientTransform="matrix(.0141 1.0779 -1.3976 .0148 77.363 4.458)" gradientUnits="userSpaceOnUse"><stop offset=".279" stop-color="#253808"/><stop offset=".581" stop-color="#57801a"/><stop offset=".852" stop-color="#70a622"/><stop offset="1" stop-color="#7ab525"/></radialGradient><path fill="url(#imo7phhAYfrg5ERJzKoVnj)" d="M23.006,28.732c0.006-0.128-0.593-0.127-1.161-0.462c-0.367-0.216,0.877-0.46-0.413-0.798 c-1.023-0.268-2.414-1.796-2.476-2.263h-1.117c-0.062,0.467-1.412,2.016-3.273,2.777c-0.435,0.178,0.774,0.395,0.407,0.611 c-0.568,0.335-0.97,0.337-0.963,0.465c0.008,0.171,0.312,0.183,0.448,0.33s-0.349,0.517-0.195,0.662 c0.154,0.145,0.656-0.284,0.805-0.148c0.123,0.112,0.084,0.455,0.272,0.546c0.148,0.072,0.705-0.461,0.939-0.448 c0.234,0.013,0.166,0.64,0.6,0.641c0.434,0.001,0.442-0.573,0.669-0.561c0.234,0.013,0.282,0.687,0.784,0.687 s0.507-0.39,0.741-0.403c0.227-0.012,0.277,0.277,0.711,0.276c0.434-0.001,0.163-0.644,0.397-0.657 c0.234-0.013,0.912,0.54,1.06,0.468c0.188-0.091-0.092-0.677,0.032-0.789c0.149-0.135,0.973,0.532,1.127,0.387 c0.154-0.145-0.15-0.659,0.035-0.735C22.777,29.18,22.997,28.904,23.006,28.732z"/><radialGradient id="imo7phhAYfrg5ERJzKoVnk" cx="29.054" cy="41.523" r="3.536" gradientTransform="matrix(-.0141 1.0779 1.3976 .0148 -39.083 -7.126)" gradientUnits="userSpaceOnUse"><stop offset=".206" stop-color="#283b0c"/><stop offset=".502" stop-color="#57801a"/><stop offset=".825" stop-color="#70a622"/><stop offset="1" stop-color="#7ab525"/></radialGradient><path fill="url(#imo7phhAYfrg5ERJzKoVnk)" d="M14.854,26.823c-0.005-0.105,0.399-0.068,0.866-0.343c0.302-0.178-0.9-0.377,0.088-0.743 c0.887-0.328,1.855-1.488,1.907-1.872h1.16c0.051,0.384,1.161,1.657,2.691,2.283c0.357,0.146-0.636,0.325-0.335,0.503 c0.467,0.275,0.797,0.277,0.792,0.382c-0.007,0.141-0.257,0.151-0.368,0.271c-0.112,0.121,0.287,0.425,0.16,0.544 c-0.127,0.119-0.852-0.369-0.974-0.258c-0.101,0.092,0.244,0.51,0.089,0.585c-0.121,0.059-0.495-0.189-0.688-0.178 c-0.192,0.01-0.221,0.336-0.578,0.337c-0.357,0.001-0.468-0.626-0.654-0.616c-0.192,0.01-0.127,0.72-0.54,0.72 s-0.456-0.485-0.648-0.495c-0.186-0.01-0.189,0.392-0.546,0.391c-0.357-0.001-0.273-0.493-0.466-0.503 c-0.192-0.01-0.611,0.407-0.733,0.348c-0.155-0.075,0.079-0.577-0.022-0.669c-0.122-0.111-0.886,0.617-1.012,0.498 c-0.127-0.119,0.205-0.701,0.053-0.764C14.814,27.129,14.861,26.964,14.854,26.823z"/><radialGradient id="imo7phhAYfrg5ERJzKoVnl" cx="18.856" cy="39.839" r="2.92" gradientTransform="matrix(1.0811 0 0 1.078 -1.968 -19.955)" gradientUnits="userSpaceOnUse"><stop offset=".171" stop-color="#30470f"/><stop offset=".47" stop-color="#57801a"/><stop offset=".814" stop-color="#70a622"/><stop offset="1" stop-color="#7ab525"/></radialGradient><path fill="url(#imo7phhAYfrg5ERJzKoVnl)" d="M21.254,24.657c0.004-0.086-0.465-0.005-0.812-0.231c-0.224-0.146,0.514-0.587-0.149-0.62 c-0.645-0.032-1.474-1.213-1.512-1.529h-0.682c-0.038,0.316-0.862,1.362-1.998,1.876c-0.265,0.12,0.473,0.267,0.249,0.413 c-0.347,0.226-0.592,0.228-0.588,0.314c0.005,0.116,0.191,0.124,0.273,0.223c0.083,0.099-0.153,0.408-0.059,0.506 c0.094,0.098,0.344-0.101,0.435-0.01c0.075,0.076,0.048,0.159,0.163,0.22c0.09,0.048,0.368-0.155,0.511-0.147 c0.143,0.009,0.164,0.276,0.429,0.277c0.265,0.001,0.266-0.465,0.404-0.457c0.143,0.009,0.176,0.543,0.483,0.543 s0.31-0.264,0.453-0.272c0.138-0.008,0.169,0.187,0.434,0.187c0.265-0.001,0.077-0.481,0.22-0.489 c0.143-0.009,0.58,0.41,0.67,0.361c0.115-0.062,0.072-0.31,0.148-0.386c0.091-0.091,0.466,0.212,0.56,0.114 c0.094-0.098-0.092-0.445,0.022-0.497C21.115,24.959,21.249,24.772,21.254,24.657z"/><radialGradient id="imo7phhAYfrg5ERJzKoVnm" cx="30.177" cy="21.722" r="2.446" gradientTransform="matrix(-1 0 0 1 48.532 0)" gradientUnits="userSpaceOnUse"><stop offset=".171" stop-color="#30470f"/><stop offset=".47" stop-color="#57801a"/><stop offset=".814" stop-color="#70a622"/><stop offset="1" stop-color="#7ab525"/></radialGradient><path fill="url(#imo7phhAYfrg5ERJzKoVnm)" d="M16.158,23.016c-0.003-0.067,0.36-0.004,0.629-0.18c0.173-0.113-0.398-0.456,0.116-0.481 c0.5-0.025,1.142-0.943,1.171-1.188h0.528c0.029,0.245,0.668,1.058,1.548,1.457c0.206,0.093-0.366,0.207-0.193,0.321 c0.269,0.176,0.459,0.177,0.456,0.244c-0.004,0.09-0.148,0.096-0.212,0.173c-0.064,0.077,0.165,0.271,0.092,0.347 c-0.073,0.076-0.234-0.087-0.304-0.016c-0.058,0.059-0.116,0.177-0.205,0.225c-0.07,0.038-0.31-0.151-0.421-0.145 c-0.111,0.007-0.102,0.246-0.307,0.246s-0.26-0.365-0.367-0.358c-0.111,0.007-0.082,0.425-0.32,0.425s-0.26-0.386-0.371-0.393 c-0.107-0.006-0.111,0.327-0.316,0.326s-0.135-0.464-0.246-0.471c-0.111-0.007-0.374,0.409-0.444,0.372 c-0.089-0.048-0.056-0.241-0.114-0.3c-0.07-0.071-0.361,0.165-0.434,0.089c-0.073-0.076,0.071-0.346-0.017-0.386 C16.266,23.25,16.161,23.105,16.158,23.016z"/><linearGradient id="imo7phhAYfrg5ERJzKoVnn" x1="18.416" x2="18.416" y1="19.682" y2="22.598" gradientUnits="userSpaceOnUse"><stop offset="0" stop-color="#59841b"/><stop offset="1" stop-color="#7ab525"/></linearGradient><path fill="url(#imo7phhAYfrg5ERJzKoVnn)" d="M20.008,21.749c0.037-0.096-0.734-0.641-0.951-0.872c-0.38-0.494-0.459-1.224-0.642-1.224 s-0.231,0.765-0.63,1.227c-0.217,0.231-0.997,0.773-0.96,0.869c0.037,0.096,0.292,0.046,0.335,0.147 c0.043,0.101-0.225,0.296-0.145,0.377c0.197,0.2,0.584-0.317,0.654-0.234c0.058,0.069-0.121,0.411-0.032,0.467 c0.07,0.044,0.28-0.179,0.39-0.171c0.11,0.008,0.158,0.337,0.39,0.337c0.231,0,0.147-0.642,0.258-0.649 c0.11-0.008,0.452,0.528,0.522,0.483c0.089-0.056,0.075-0.237,0.133-0.306c0.07-0.083,0.416,0.162,0.489,0.072 c0.073-0.089-0.204-0.276-0.162-0.377C19.698,21.795,19.97,21.845,20.008,21.749z"/></g><path fill="#fff9ef" d="M33.099,21.586c0.012-0.071,0.022-0.143,0.022-0.217c0-0.742-0.601-1.343-1.343-1.343 c-0.231,0-0.446,0.064-0.636,0.167c-0.289-0.43-0.78-0.714-1.338-0.714c-0.654,0-1.213,0.391-1.466,0.95 c-0.197-0.162-0.445-0.263-0.72-0.263c-0.491,0-0.906,0.313-1.065,0.749c-0.089-0.034-0.185-0.055-0.286-0.055 c-0.417,0-0.756,0.319-0.796,0.726H33.099z"/><linearGradient id="imo7phhAYfrg5ERJzKoVno" x1="27.584" x2="36.593" y1="21.918" y2="27.206" gradientUnits="userSpaceOnUse"><stop offset="0" stop-color="#80889c"/><stop offset=".16" stop-color="#70788c"/><stop offset=".484" stop-color="#555e72"/><stop offset=".772" stop-color="#454e62"/><stop offset=".993" stop-color="#3f485c"/></linearGradient><polygon fill="url(#imo7phhAYfrg5ERJzKoVno)" points="26.731,29.205 29.468,23.317 31.61,20.532 32.189,18.513 33.204,17.43 34.704,19.211 34.68,29.205"/><polygon fill="#2e414f" points="33.204,17.43 33.63,21.363 32.467,24.518 32.837,29.205 34.704,29.205 34.704,19.211"/><path fill="#6b4005" d="M13.296,13.296v21.407h21.407V13.296H13.296z M34.074,34.074H13.926V13.926h20.148 V34.074z" opacity=".35"/></svg>