<svg xmlns="http://www.w3.org/2000/svg" viewBox="0 0 48 48"><path fill="#a82323" d="M45,15.5c0,4.694-4.806,8.5-9.5,8.5S27,20.194,27,15.5S30.806,7,35.5,7c2.297,0,5.22,1.576,8.5,0 C44,7,45,11.519,45,15.5z"/><path fill="#a92424" d="M44.939,15.519c-0.005,4.663-4.783,8.438-9.446,8.433s-8.439-3.79-8.434-8.453 s3.79-8.439,8.453-8.434c2.281,0.003,5.184,1.571,8.444,0.01C43.955,7.075,44.944,11.565,44.939,15.519z"/><path fill="#aa2424" d="M44.878,15.539c-0.011,4.632-4.761,8.376-9.393,8.366s-8.378-3.774-8.368-8.406 c0.011-4.632,3.774-8.378,8.406-8.368c2.266,0.005,5.147,1.566,8.387,0.019C43.911,7.149,44.887,11.611,44.878,15.539z"/><path fill="#ab2525" d="M44.818,15.558c-0.016,4.601-4.738,8.314-9.339,8.299s-8.318-3.758-8.302-8.359 c0.016-4.601,3.758-8.318,8.359-8.302c2.251,0.008,5.111,1.562,8.331,0.029C43.866,7.224,44.831,11.657,44.818,15.558z"/><path fill="#ac2525" d="M44.757,15.577c-0.021,4.57-4.716,8.252-9.286,8.231c-4.57-0.021-8.257-3.743-8.236-8.312 c0.021-4.57,3.743-8.257,8.312-8.236c2.236,0.01,5.074,1.557,8.274,0.038C43.822,7.299,44.775,11.702,44.757,15.577z"/><path fill="#ad2626" d="M44.696,15.597c-0.026,4.538-4.694,8.191-9.232,8.164s-8.196-3.727-8.17-8.265 c0.026-4.538,3.727-8.196,8.265-8.17c2.22,0.013,5.038,1.552,8.218,0.048C43.777,7.373,44.718,11.748,44.696,15.597z"/><path fill="#ae2626" d="M44.635,15.616c-0.032,4.507-4.671,8.129-9.178,8.097s-8.135-3.711-8.104-8.218 s3.711-8.135,8.218-8.104c2.205,0.015,5.001,1.548,8.161,0.057C43.732,7.448,44.662,11.794,44.635,15.616z"/><path fill="#af2727" d="M44.575,15.635c-0.037,4.476-4.649,8.067-9.125,8.03s-8.075-3.695-8.038-8.171 s3.695-8.075,8.171-8.038c2.19,0.018,4.965,1.543,8.105,0.067C43.688,7.523,44.606,11.84,44.575,15.635z"/><path fill="#b02727" d="M44.514,15.654c-0.042,4.445-4.626,8.005-9.071,7.963s-8.014-3.679-7.972-8.124 s3.679-8.014,8.124-7.972c2.175,0.021,4.928,1.539,8.048,0.076C43.643,7.597,44.55,11.885,44.514,15.654z"/><path fill="#b12828" d="M44.453,15.674c-0.047,4.414-4.604,7.943-9.018,7.896s-7.953-3.664-7.906-8.077 s3.664-7.953,8.077-7.906c2.159,0.023,4.892,1.534,7.992,0.086C43.599,7.672,44.493,11.931,44.453,15.674z"/><path fill="#b22828" d="M44.392,15.693c-0.053,4.382-4.581,7.881-8.964,7.829s-7.892-3.648-7.84-8.03s3.648-7.892,8.03-7.84 c2.144,0.026,4.855,1.529,7.935,0.095C43.554,7.747,44.437,11.977,44.392,15.693z"/><path fill="#b32929" d="M44.332,15.712c-0.058,4.351-4.559,7.819-8.91,7.761s-7.832-3.632-7.774-7.983 c0.058-4.351,3.632-7.832,7.983-7.774c2.129,0.028,4.819,1.525,7.879,0.105C43.509,7.821,44.381,12.023,44.332,15.712z"/><path fill="#b42929" d="M44.271,15.732c-0.063,4.32-4.537,7.757-8.857,7.694s-7.771-3.616-7.708-7.936 c0.063-4.32,3.616-7.771,7.936-7.708c2.113,0.031,4.783,1.52,7.822,0.114C43.465,7.896,44.324,12.068,44.271,15.732z"/><path fill="#b52a2a" d="M44.21,15.751c-0.068,4.289-4.514,7.696-8.803,7.627s-7.71-3.601-7.642-7.89 c0.068-4.289,3.601-7.71,7.89-7.642c2.098,0.033,4.746,1.515,7.766,0.124C43.42,7.971,44.268,12.114,44.21,15.751z"/><path fill="#b62a2a" d="M44.149,15.77c-0.074,4.258-4.492,7.634-8.75,7.56s-7.649-3.585-7.576-7.843 c0.074-4.258,3.585-7.649,7.843-7.576c2.083,0.036,4.71,1.511,7.709,0.133C43.376,8.046,44.212,12.16,44.149,15.77z"/><path fill="#b72b2b" d="M44.089,15.79c-0.079,4.226-4.469,7.572-8.696,7.493s-7.589-3.569-7.51-7.796 s3.569-7.589,7.796-7.51c2.068,0.039,4.673,1.506,7.653,0.143C43.331,8.12,44.155,12.206,44.089,15.79z"/><path fill="#b82b2b" d="M44.028,15.809c-0.084,4.195-4.447,7.51-8.642,7.426s-7.528-3.553-7.444-7.749 c0.084-4.195,3.553-7.528,7.749-7.444c2.052,0.041,4.637,1.502,7.596,0.152C43.287,8.195,44.099,12.251,44.028,15.809z"/><path fill="#b92c2c" d="M43.967,15.828c-0.089,4.164-4.425,7.448-8.589,7.359s-7.467-3.538-7.378-7.702 c0.089-4.164,3.538-7.467,7.702-7.378c2.037,0.044,4.6,1.497,7.54,0.162C43.242,8.27,44.043,12.297,43.967,15.828z"/><path fill="#ba2c2c" d="M43.906,15.848c-0.095,4.133-4.402,7.386-8.535,7.291s-7.406-3.522-7.312-7.655 c0.095-4.133,3.522-7.406,7.655-7.312c2.022,0.046,4.564,1.492,7.483,0.172C43.197,8.344,43.987,12.343,43.906,15.848z"/><path fill="#bb2d2d" d="M43.845,15.867c-0.1,4.102-4.38,7.324-8.481,7.224s-7.346-3.506-7.246-7.608 c0.1-4.102,3.506-7.346,7.608-7.246c2.007,0.049,4.527,1.488,7.427,0.181C43.153,8.419,43.93,12.389,43.845,15.867z"/><path fill="#bc2d2d" d="M43.785,15.886c-0.105,4.07-4.357,7.262-8.428,7.157s-7.285-3.49-7.18-7.561 c0.105-4.07,3.49-7.285,7.561-7.18c1.991,0.051,4.491,1.483,7.37,0.191C43.108,8.494,43.874,12.435,43.785,15.886z"/><path fill="#bd2e2e" d="M43.724,15.906c-0.111,4.039-4.335,7.201-8.374,7.09s-7.224-3.475-7.114-7.514 s3.475-7.224,7.514-7.114c1.976,0.054,4.454,1.479,7.314,0.2C43.064,8.568,43.818,12.48,43.724,15.906z"/><path fill="#be2e2e" d="M43.663,15.925c-0.116,4.008-4.313,7.139-8.321,7.023s-7.163-3.459-7.048-7.467 s3.459-7.163,7.467-7.048c1.961,0.057,4.418,1.474,7.257,0.21C43.019,8.643,43.761,12.526,43.663,15.925z"/><path fill="#bf2f2f" d="M43.602,15.944c-0.121,3.977-4.29,7.077-8.267,6.956s-7.103-3.443-6.982-7.42 s3.443-7.103,7.42-6.982c1.946,0.059,4.382,1.469,7.201,0.219C42.974,8.718,43.705,12.572,43.602,15.944z"/><path fill="#c02f2f" d="M43.542,15.963c-0.126,3.946-4.268,7.015-8.213,6.889s-7.042-3.427-6.916-7.373 s3.427-7.042,7.373-6.916c1.93,0.062,4.345,1.465,7.144,0.229C42.93,8.792,43.649,12.618,43.542,15.963z"/><path fill="#c13030" d="M43.481,15.983c-0.132,3.914-4.245,6.953-8.16,6.822s-6.981-3.412-6.85-7.326 s3.412-6.981,7.326-6.85c1.915,0.064,4.309,1.46,7.088,0.238C42.885,8.867,43.592,12.663,43.481,15.983z"/><path fill="#c23030" d="M43.42,16.002c-0.137,3.883-4.223,6.891-8.106,6.754s-6.92-3.396-6.784-7.279 c0.137-3.883,3.396-6.92,7.279-6.784c1.9,0.067,4.272,1.455,7.031,0.248C42.841,8.942,43.536,12.709,43.42,16.002z"/><path fill="#c33131" d="M43.359,16.021c-0.142,3.852-4.201,6.829-8.053,6.687c-3.852-0.142-6.86-3.38-6.717-7.232 c0.142-3.852,3.38-6.86,7.232-6.717c1.885,0.07,4.236,1.451,6.975,0.257C42.796,9.016,43.48,12.755,43.359,16.021z"/><path fill="#c43131" d="M43.299,16.041c-0.147,3.821-4.178,6.767-7.999,6.62s-6.799-3.364-6.651-7.185 c0.147-3.821,3.364-6.799,7.185-6.651c1.869,0.072,4.199,1.446,6.918,0.267C42.751,9.091,43.423,12.801,43.299,16.041z"/><path fill="#c53232" d="M43.238,16.06c-0.153,3.79-4.156,6.706-7.945,6.553s-6.738-3.348-6.585-7.138 c0.153-3.79,3.348-6.738,7.138-6.585c1.854,0.075,4.163,1.442,6.862,0.276C42.707,9.166,43.367,12.846,43.238,16.06z"/><path fill="#c63232" d="M43.177,16.079c-0.158,3.758-4.133,6.644-7.892,6.486s-6.677-3.333-6.519-7.091 c0.158-3.758,3.333-6.677,7.091-6.519c1.839,0.077,4.126,1.437,6.805,0.286C42.662,9.24,43.311,12.892,43.177,16.079z"/><path fill="#c73333" d="M43.116,16.099c-0.163,3.727-4.111,6.582-7.838,6.419s-6.617-3.317-6.453-7.044 s3.317-6.617,7.044-6.453c1.823,0.08,4.09,1.432,6.749,0.295C42.618,9.315,43.255,12.938,43.116,16.099z"/><path fill="#c83333" d="M43.055,16.118c-0.168,3.696-4.089,6.52-7.785,6.352s-6.556-3.301-6.387-6.997 s3.301-6.556,6.997-6.387c1.808,0.082,4.053,1.428,6.692,0.305C42.573,9.39,43.198,12.984,43.055,16.118z"/><path fill="#c93434" d="M42.995,16.137c-0.174,3.665-4.066,6.458-7.731,6.284s-6.495-3.285-6.321-6.95 s3.285-6.495,6.95-6.321c1.793,0.085,4.017,1.423,6.636,0.314C42.528,9.464,43.142,13.03,42.995,16.137z"/><path fill="#ca3434" d="M42.934,16.157c-0.179,3.634-4.044,6.396-7.677,6.217s-6.434-3.27-6.255-6.903 c0.179-3.634,3.27-6.434,6.903-6.255c1.778,0.088,3.98,1.418,6.579,0.324C42.484,9.539,43.086,13.075,42.934,16.157z"/><path fill="#cb3535" d="M42.873,16.176c-0.184,3.602-4.021,6.334-7.624,6.15c-3.602-0.184-6.374-3.254-6.189-6.856 c0.184-3.602,3.254-6.374,6.856-6.189c1.762,0.09,3.944,1.414,6.523,0.334C42.439,9.614,43.029,13.121,42.873,16.176z"/><path fill="#cc3535" d="M42.812,16.195c-0.189,3.571-3.999,6.272-7.57,6.083c-3.571-0.189-6.313-3.238-6.123-6.809 s3.238-6.313,6.809-6.123c1.747,0.093,3.908,1.409,6.466,0.343C42.395,9.688,42.973,13.167,42.812,16.195z"/><path fill="#cd3636" d="M42.752,16.215c-0.195,3.54-3.976,6.211-7.517,6.016c-3.54-0.195-6.252-3.222-6.057-6.762 S32.4,9.216,35.94,9.411c1.732,0.095,3.871,1.405,6.41,0.353C42.35,9.763,42.917,13.213,42.752,16.215z"/><path fill="#ce3636" d="M42.691,16.234c-0.2,3.509-3.954,6.149-7.463,5.949s-6.191-3.207-5.991-6.715 s3.207-6.191,6.715-5.991c1.717,0.098,3.835,1.4,6.353,0.362C42.306,9.838,42.86,13.258,42.691,16.234z"/><path fill="#cf3737" d="M42.63,16.253c-0.205,3.478-3.932,6.087-7.409,5.882c-3.478-0.205-6.131-3.191-5.925-6.669 s3.191-6.131,6.669-5.925c1.701,0.1,3.798,1.395,6.297,0.372C42.261,9.913,42.804,13.304,42.63,16.253z"/><path fill="#d03737" d="M42.569,16.272c-0.211,3.446-3.909,6.025-7.356,5.814s-6.07-3.175-5.859-6.622 s3.175-6.07,6.622-5.859c1.686,0.103,3.762,1.391,6.24,0.381C42.216,9.987,42.748,13.35,42.569,16.272z"/><path fill="#d13838" d="M42.509,16.292c-0.216,3.415-3.887,5.963-7.302,5.747s-6.009-3.159-5.793-6.575 c0.216-3.415,3.159-6.009,6.575-5.793c1.671,0.106,3.725,1.386,6.184,0.391C42.172,10.062,42.692,13.396,42.509,16.292z"/><path fill="#d23838" d="M42.448,16.311c-0.221,3.384-3.864,5.901-7.249,5.68c-3.384-0.221-5.948-3.144-5.727-6.528 c0.221-3.384,3.144-5.948,6.528-5.727c1.656,0.108,3.689,1.382,6.127,0.4C42.127,10.137,42.635,13.441,42.448,16.311z"/><path fill="#d33939" d="M42.387,16.33c-0.226,3.353-3.842,5.839-7.195,5.613c-3.353-0.226-5.887-3.128-5.661-6.481 c0.226-3.353,3.128-5.887,6.481-5.661c1.64,0.111,3.652,1.377,6.071,0.41C42.083,10.211,42.579,13.487,42.387,16.33z"/><path fill="#d43939" d="M42.326,16.35c-0.232,3.322-3.82,5.777-7.141,5.546c-3.322-0.232-5.827-3.112-5.595-6.434 c0.232-3.322,3.112-5.827,6.434-5.595c1.625,0.113,3.616,1.372,6.014,0.419C42.038,10.286,42.523,13.533,42.326,16.35z"/><path fill="#d43939" d="M42.265,16.369c-0.237,3.29-3.797,5.716-7.088,5.479s-5.766-3.096-5.529-6.387 c0.237-3.29,3.096-5.766,6.387-5.529c1.61,0.116,3.579,1.368,5.958,0.429C41.993,10.361,42.466,13.579,42.265,16.369z"/><path fill="#d53a3a" d="M42.205,16.388c-0.242,3.259-3.775,5.654-7.034,5.412c-3.259-0.242-5.705-3.081-5.463-6.34 s3.081-5.705,6.34-5.463c1.595,0.118,3.543,1.363,5.901,0.438C41.949,10.435,42.41,13.624,42.205,16.388z"/><path fill="#d63a3a" d="M42.144,16.408c-0.247,3.228-3.752,5.592-6.98,5.344s-5.644-3.065-5.397-6.293 s3.065-5.644,6.293-5.397c1.579,0.121,3.507,1.358,5.845,0.448C41.904,10.51,42.354,13.67,42.144,16.408z"/><path fill="#d73b3b" d="M42.083,16.427c-0.253,3.197-3.73,5.53-6.927,5.277c-3.197-0.253-5.584-3.049-5.331-6.246 s3.049-5.584,6.246-5.331c1.564,0.124,3.47,1.354,5.788,0.457C41.86,10.585,42.297,13.716,42.083,16.427z"/><path fill="#d83b3b" d="M42.022,16.446c-0.258,3.166-3.708,5.468-6.873,5.21c-3.166-0.258-5.523-3.033-5.265-6.199 s3.033-5.523,6.199-5.265c1.549,0.126,3.434,1.349,5.732,0.467C41.815,10.659,42.241,13.762,42.022,16.446z"/><path fill="#d93c3c" d="M41.962,16.466c-0.263,3.134-3.685,5.406-6.82,5.143c-3.134-0.263-5.462-3.017-5.199-6.152 s3.017-5.462,6.152-5.199c1.533,0.129,3.397,1.345,5.676,0.476C41.77,10.734,42.185,13.808,41.962,16.466z"/><path fill="#da3c3c" d="M41.901,16.485c-0.268,3.103-3.663,5.344-6.766,5.076c-3.103-0.268-5.401-3.002-5.133-6.105 c0.268-3.103,3.002-5.401,6.105-5.133c1.518,0.131,3.361,1.34,5.619,0.486C41.726,10.809,42.128,13.853,41.901,16.485z"/><path fill="#db3d3d" d="M41.84,16.504c-0.274,3.072-3.64,5.282-6.712,5.009c-3.072-0.274-5.341-2.986-5.067-6.058 c0.274-3.072,2.986-5.341,6.058-5.067c1.503,0.134,3.324,1.335,5.563,0.495C41.681,10.883,42.072,13.899,41.84,16.504z"/><path fill="#dc3d3d" d="M41.779,16.523c-0.279,3.041-3.618,5.221-6.659,4.942s-5.28-2.97-5.001-6.011 c0.279-3.041,2.97-5.28,6.011-5.001c1.488,0.136,3.288,1.331,5.506,0.505C41.637,10.958,42.016,13.945,41.779,16.523z"/><path fill="#dd3e3e" d="M41.719,16.543c-0.284,3.01-3.596,5.159-6.605,4.874s-5.219-2.954-4.935-5.964 s2.954-5.219,5.964-4.935c1.472,0.139,3.251,1.326,5.45,0.515C41.592,11.033,41.96,13.991,41.719,16.543z"/><path fill="#de3e3e" d="M41.658,16.562c-0.289,2.979-3.573,5.097-6.552,4.807s-5.158-2.939-4.869-5.917 s2.939-5.158,5.917-4.869c1.457,0.142,3.215,1.321,5.393,0.524C41.547,11.107,41.903,14.036,41.658,16.562z"/><path fill="#df3f3f" d="M41.597,16.581c-0.295,2.947-3.551,5.035-6.498,4.74c-2.947-0.295-5.098-2.923-4.803-5.87 c0.295-2.947,2.923-5.098,5.87-4.803c1.442,0.144,3.178,1.317,5.337,0.534C41.503,11.182,41.847,14.082,41.597,16.581z"/><path fill="#e03f3f" d="M41.536,16.601c-0.3,2.916-3.528,4.973-6.444,4.673c-2.916-0.3-5.037-2.907-4.737-5.823 c0.3-2.916,2.907-5.037,5.823-4.737c1.427,0.147,3.142,1.312,5.28,0.543C41.458,11.257,41.791,14.128,41.536,16.601z"/><path fill="#e14040" d="M41.476,16.62c-0.305,2.885-3.506,4.911-6.391,4.606c-2.885-0.305-4.976-2.891-4.671-5.776 c0.305-2.885,2.891-4.976,5.776-4.671c1.411,0.149,3.105,1.308,5.224,0.553C41.414,11.331,41.734,14.174,41.476,16.62z"/><path fill="#e24040" d="M41.415,16.639c-0.31,2.854-3.483,4.849-6.337,4.539c-2.854-0.31-4.915-2.876-4.605-5.729 c0.31-2.854,2.876-4.915,5.729-4.605c1.396,0.152,3.069,1.303,5.167,0.562C41.369,11.406,41.678,14.219,41.415,16.639z"/><path fill="#e34141" d="M41.354,16.659c-0.316,2.823-3.461,4.787-6.284,4.472c-2.823-0.316-4.855-2.86-4.539-5.682 s2.86-4.855,5.682-4.539c1.381,0.154,3.033,1.298,5.111,0.572C41.324,11.481,41.622,14.265,41.354,16.659z"/><path fill="#e44141" d="M41.293,16.678c-0.321,2.791-3.439,4.725-6.23,4.404s-4.794-2.844-4.473-5.635 s2.844-4.794,5.635-4.473c1.366,0.157,2.996,1.294,5.054,0.581C41.28,11.555,41.565,14.311,41.293,16.678z"/><path fill="#e54242" d="M41.232,16.697c-0.326,2.76-3.416,4.664-6.176,4.337c-2.76-0.326-4.733-2.828-4.407-5.588 s2.828-4.733,5.588-4.407c1.35,0.16,2.96,1.289,4.998,0.591C41.235,11.63,41.509,14.357,41.232,16.697z"/><path fill="#e64242" d="M41.172,16.717c-0.332,2.729-3.394,4.602-6.123,4.27s-4.672-2.813-4.341-5.541 s2.813-4.672,5.541-4.341c1.335,0.162,2.923,1.285,4.941,0.6C41.191,11.705,41.453,14.403,41.172,16.717z"/><path fill="#e74343" d="M41.111,16.736c-0.337,2.698-3.371,4.54-6.069,4.203s-4.612-2.797-4.275-5.494 s2.797-4.612,5.494-4.275c1.32,0.165,2.887,1.28,4.885,0.61C41.146,11.78,41.397,14.448,41.111,16.736z"/><path fill="#e84343" d="M41.05,16.755c-0.342,2.667-3.349,4.478-6.016,4.136c-2.667-0.342-4.551-2.781-4.209-5.448 c0.342-2.667,2.781-4.551,5.448-4.209c1.305,0.167,2.85,1.275,4.828,0.619C41.102,11.854,41.34,14.494,41.05,16.755z"/><path fill="#e94444" d="M40.989,16.775c-0.347,2.635-3.327,4.416-5.962,4.069c-2.635-0.347-4.49-2.765-4.143-5.401 c0.347-2.635,2.765-4.49,5.401-4.143c1.289,0.17,2.814,1.271,4.772,0.629C41.057,11.929,41.284,14.54,40.989,16.775z"/><path fill="#ea4444" d="M40.929,16.794c-0.353,2.604-3.304,4.354-5.908,4.002c-2.604-0.353-4.429-2.749-4.077-5.354 c0.353-2.604,2.749-4.429,5.354-4.077c1.274,0.172,2.777,1.266,4.715,0.638C41.012,12.004,41.228,14.586,40.929,16.794z"/><path fill="#eb4545" d="M40.868,16.813c-0.358,2.573-3.282,4.292-5.855,3.935c-2.573-0.358-4.369-2.734-4.011-5.307 c0.358-2.573,2.734-4.369,5.307-4.011c1.259,0.175,2.741,1.261,4.659,0.648C40.968,12.078,41.171,14.631,40.868,16.813z"/><path fill="#ec4545" d="M40.807,16.832c-0.363,2.542-3.259,4.23-5.801,3.867c-2.542-0.363-4.308-2.718-3.945-5.26 c0.363-2.542,2.718-4.308,5.26-3.945c1.243,0.178,2.704,1.257,4.602,0.657C40.923,12.153,41.115,14.677,40.807,16.832z"/><path fill="#ed4646" d="M40.746,16.852c-0.368,2.511-3.237,4.169-5.748,3.8c-2.511-0.368-4.247-2.702-3.879-5.213 s2.702-4.247,5.213-3.879c1.228,0.18,2.668,1.252,4.546,0.667C40.879,12.228,41.059,14.723,40.746,16.852z"/><path fill="#ee4646" d="M40.686,16.871c-0.374,2.479-3.215,4.107-5.694,3.733c-2.479-0.374-4.186-2.686-3.813-5.166 s2.686-4.186,5.166-3.813c1.213,0.183,2.632,1.248,4.489,0.677C40.834,12.302,41.002,14.769,40.686,16.871z"/><path fill="#ef4747" d="M40.625,16.89c-0.379,2.448-3.192,4.045-5.64,3.666c-2.448-0.379-4.126-2.671-3.747-5.119 s2.671-4.126,5.119-3.747c1.198,0.185,2.595,1.243,4.433,0.686C40.789,12.377,40.946,14.814,40.625,16.89z"/><path fill="#f04747" d="M40.564,16.91c-0.384,2.417-3.17,3.983-5.587,3.599c-2.417-0.384-4.065-2.655-3.681-5.072 c0.384-2.417,2.655-4.065,5.072-3.681c1.182,0.188,2.559,1.238,4.376,0.696C40.745,12.452,40.89,14.86,40.564,16.91z"/><path fill="#f14848" d="M40.503,16.929c-0.389,2.386-3.147,3.921-5.533,3.532c-2.386-0.389-4.004-2.639-3.615-5.025 c0.389-2.386,2.639-4.004,5.025-3.615c1.167,0.191,2.522,1.234,4.32,0.705C40.7,12.526,40.833,14.906,40.503,16.929z"/><path fill="#f24848" d="M40.443,16.948c-0.395,2.355-3.125,3.859-5.479,3.465c-2.355-0.395-3.943-2.623-3.549-4.978 s2.623-3.943,4.978-3.549c1.152,0.193,2.486,1.229,4.263,0.715C40.656,12.601,40.777,14.952,40.443,16.948z"/><path fill="#f34949" d="M40.382,16.968c-0.4,2.323-3.103,3.797-5.426,3.397c-2.323-0.4-3.883-2.608-3.483-4.931 s2.608-3.883,4.931-3.483c1.137,0.196,2.449,1.224,4.207,0.724C40.611,12.676,40.721,14.997,40.382,16.968z"/><path fill="#f44949" d="M40.321,16.987c-0.405,2.292-3.08,3.735-5.372,3.33c-2.292-0.405-3.822-2.592-3.417-4.884 s2.592-3.822,4.884-3.417c1.121,0.198,2.413,1.22,4.15,0.734C40.566,12.75,40.665,15.043,40.321,16.987z"/><path fill="#f54a4a" d="M40.26,17.006c-0.41,2.261-3.058,3.674-5.319,3.263s-3.761-2.576-3.351-4.837 c0.41-2.261,2.576-3.761,4.837-3.351c1.106,0.201,2.376,1.215,4.094,0.743C40.522,12.825,40.608,15.089,40.26,17.006z"/><path fill="#f64a4a" d="M40.199,17.026c-0.416,2.23-3.035,3.612-5.265,3.196c-2.23-0.416-3.7-2.56-3.285-4.79 c0.416-2.23,2.56-3.7,4.79-3.285c1.091,0.203,2.34,1.211,4.037,0.753C40.477,12.9,40.552,15.135,40.199,17.026z"/><path fill="#f74b4b" d="M40.139,17.045c-0.421,2.199-3.013,3.55-5.211,3.129c-2.199-0.421-3.64-2.545-3.219-4.743 c0.421-2.199,2.545-3.64,4.743-3.219c1.076,0.206,2.303,1.206,3.981,0.762C40.433,12.974,40.496,15.181,40.139,17.045z"/><path fill="#f84b4b" d="M40.078,17.064c-0.426,2.167-2.99,3.488-5.158,3.062c-2.167-0.426-3.579-2.529-3.152-4.696 c0.426-2.167,2.529-3.579,4.696-3.152c1.06,0.209,2.267,1.201,3.924,0.772C40.388,13.049,40.439,15.226,40.078,17.064z"/><path fill="#f94c4c" d="M40.017,17.083c-0.432,2.136-2.968,3.426-5.104,2.995c-2.136-0.432-3.518-2.513-3.086-4.649 s2.513-3.518,4.649-3.086c1.045,0.211,2.231,1.197,3.868,0.781C40.343,13.124,40.383,15.272,40.017,17.083z"/><path fill="#fa4c4c" d="M39.956,17.103c-0.437,2.105-2.946,3.364-5.051,2.927c-2.105-0.437-3.457-2.497-3.02-4.602 c0.437-2.105,2.497-3.457,4.602-3.02c1.03,0.214,2.194,1.192,3.811,0.791C40.299,13.198,40.327,15.318,39.956,17.103z"/><path fill="#fb4d4d" d="M39.896,17.122c-0.442,2.074-2.923,3.302-4.997,2.86c-2.074-0.442-3.396-2.482-2.954-4.555 c0.442-2.074,2.482-3.396,4.555-2.954c1.015,0.216,2.158,1.188,3.755,0.8C40.254,13.273,40.27,15.364,39.896,17.122z"/><path fill="#fc4d4d" d="M39.835,17.141c-0.447,2.043-2.901,3.24-4.943,2.793c-2.043-0.447-3.336-2.466-2.888-4.508 c0.447-2.043,2.466-3.336,4.508-2.888c0.999,0.219,2.121,1.183,3.698,0.81C40.21,13.348,40.214,15.409,39.835,17.141z"/><path fill="#fd4e4e" d="M39.774,17.161c-0.453,2.011-2.878,3.179-4.89,2.726s-3.275-2.45-2.822-4.461 c0.453-2.011,2.45-3.275,4.461-2.822c0.984,0.221,2.085,1.178,3.642,0.819C40.165,13.422,40.158,15.455,39.774,17.161z"/><path fill="#fe4e4e" d="M39.713,17.18c-0.458,1.98-2.856,3.117-4.836,2.659c-1.98-0.458-3.214-2.434-2.756-4.414 c0.458-1.98,2.434-3.214,4.414-2.756c0.969,0.224,2.048,1.174,3.585,0.829C40.12,13.497,40.102,15.501,39.713,17.18z"/><path fill="#ff4f4f" d="M39.653,17.199c-0.463,1.949-2.834,3.055-4.783,2.592c-1.949-0.463-3.153-2.418-2.69-4.367 c0.463-1.949,2.418-3.153,4.367-2.69c0.953,0.227,2.012,1.169,3.529,0.839C40.076,13.572,40.045,15.547,39.653,17.199z"/><g><path fill="#a82323" d="M3,15.5c0,4.694,4.806,8.5,9.5,8.5s8.5-3.806,8.5-8.5S17.194,7,12.5,7C10.203,7,7.28,8.576,4,7 C4,7,3,11.519,3,15.5z"/><path fill="#a92424" d="M3.063,15.519c0.005,4.662,4.782,8.437,9.444,8.432s8.438-3.789,8.433-8.451 s-3.789-8.438-8.451-8.433c-2.281,0.002-5.183,1.57-8.442,0.009C4.047,7.076,3.058,11.565,3.063,15.519z"/><path fill="#aa2424" d="M3.125,15.538c0.01,4.63,4.758,8.373,9.388,8.363s8.375-3.772,8.365-8.402s-3.772-8.375-8.402-8.365 c-2.265,0.005-5.145,1.565-8.384,0.018C4.093,7.152,3.117,11.611,3.125,15.538z"/><path fill="#ab2525" d="M3.188,15.557c0.015,4.598,4.734,8.31,9.332,8.295c4.598-0.015,8.313-3.755,8.298-8.353 s-3.755-8.313-8.353-8.298c-2.249,0.007-5.108,1.56-8.325,0.027C4.14,7.228,3.175,11.658,3.188,15.557z"/><path fill="#ac2525" d="M3.25,15.576c0.02,4.566,4.711,8.247,9.276,8.226c4.566-0.02,8.251-3.738,8.231-8.304 c-0.02-4.566-3.738-8.251-8.304-8.231c-2.234,0.01-5.07,1.555-8.267,0.037C4.186,7.304,3.233,11.704,3.25,15.576z"/><path fill="#ad2626" d="M3.313,15.594c0.025,4.534,4.687,8.183,9.221,8.158c4.534-0.025,8.189-3.721,8.163-8.255 s-3.721-8.189-8.255-8.163c-2.218,0.012-5.033,1.55-8.209,0.046C4.233,7.38,3.291,11.75,3.313,15.594z"/><path fill="#ae2626" d="M3.375,15.613c0.03,4.502,4.663,8.12,9.165,8.09c4.502-0.03,8.126-3.704,8.096-8.206 c-0.03-4.502-3.704-8.126-8.206-8.096c-2.202,0.015-4.996,1.544-8.151,0.055C4.279,7.456,3.35,11.796,3.375,15.613z"/><path fill="#af2727" d="M3.438,15.632c0.035,4.47,4.639,8.057,9.109,8.021c4.47-0.035,8.064-3.687,8.029-8.157 c-0.035-4.47-3.687-8.064-8.157-8.029c-2.187,0.017-4.958,1.539-8.093,0.064C4.326,7.532,3.408,11.842,3.438,15.632z"/><path fill="#b02727" d="M3.5,15.651c0.04,4.437,4.615,7.993,9.053,7.953c4.437-0.04,8.002-3.67,7.962-8.108 c-0.04-4.437-3.67-8.002-8.108-7.962c-2.171,0.02-4.921,1.534-8.035,0.073C4.373,7.608,3.466,11.888,3.5,15.651z"/><path fill="#b12828" d="M3.563,15.67c0.045,4.405,4.592,7.93,8.997,7.885c4.405-0.045,7.94-3.653,7.894-8.059 c-0.045-4.405-3.653-7.94-8.059-7.894C10.24,7.624,7.512,9.131,4.419,7.684C4.419,7.684,3.525,11.934,3.563,15.67z"/><path fill="#b22828" d="M3.626,15.689c0.05,4.373,4.568,7.867,8.941,7.816s7.877-3.636,7.827-8.01 c-0.05-4.373-3.636-7.877-8.01-7.827C10.245,7.693,7.538,9.192,4.466,7.76C4.466,7.76,3.583,11.981,3.626,15.689z"/><path fill="#b32929" d="M3.688,15.708c0.055,4.341,4.544,7.803,8.885,7.748s7.815-3.619,7.76-7.96 c-0.055-4.341-3.619-7.815-7.96-7.76c-2.124,0.027-4.808,1.519-7.86,0.1C4.512,7.836,3.641,12.027,3.688,15.708z"/><path fill="#b42929" d="M3.751,15.727c0.06,4.309,4.52,7.74,8.829,7.679s7.753-3.603,7.692-7.911s-3.603-7.753-7.911-7.692 c-2.108,0.03-4.771,1.513-7.802,0.11C4.559,7.912,3.699,12.073,3.751,15.727z"/><path fill="#b52a2a" d="M3.813,15.746c0.066,4.277,4.497,7.677,8.773,7.611c4.277-0.066,7.691-3.586,7.625-7.862 c-0.066-4.277-3.586-7.691-7.862-7.625c-2.092,0.032-4.734,1.508-7.744,0.119C4.606,7.988,3.758,12.119,3.813,15.746z"/><path fill="#b62a2a" d="M3.876,15.764c0.071,4.245,4.473,7.613,8.717,7.543c4.245-0.071,7.628-3.569,7.558-7.813 s-3.569-7.628-7.813-7.558c-2.077,0.035-4.696,1.503-7.686,0.128C4.652,8.064,3.816,12.165,3.876,15.764z"/><path fill="#b72b2b" d="M3.938,15.783c0.076,4.212,4.449,7.55,8.662,7.474c4.212-0.076,7.566-3.552,7.49-7.764 s-3.552-7.566-7.764-7.49C10.265,8.04,7.667,9.501,4.699,8.14C4.699,8.14,3.874,12.211,3.938,15.783z"/><path fill="#b82b2b" d="M4.001,15.802c0.081,4.18,4.425,7.487,8.606,7.406c4.18-0.081,7.504-3.535,7.423-7.715 c-0.081-4.18-3.535-7.504-7.715-7.423c-2.045,0.039-4.621,1.493-7.569,0.146C4.745,8.216,3.932,12.257,4.001,15.802z"/><path fill="#b92c2c" d="M4.063,15.821c0.086,4.148,4.402,7.423,8.55,7.338s7.442-3.518,7.356-7.666 s-3.518-7.442-7.666-7.356c-2.029,0.042-4.584,1.487-7.511,0.155C4.792,8.292,3.991,12.303,4.063,15.821z"/><path fill="#ba2c2c" d="M4.126,15.84c0.091,4.116,4.378,7.36,8.494,7.269s7.379-3.501,7.289-7.617s-3.501-7.379-7.617-7.289 c-2.014,0.044-4.547,1.482-7.453,0.164C4.838,8.368,4.049,12.35,4.126,15.84z"/><path fill="#bb2d2d" d="M4.189,15.859c0.096,4.084,4.354,7.297,8.438,7.201s7.317-3.484,7.221-7.568 S16.364,8.175,12.28,8.27c-1.998,0.047-4.509,1.477-7.395,0.173C4.885,8.444,4.107,12.396,4.189,15.859z"/><path fill="#bc2d2d" d="M4.251,15.878c0.101,4.052,4.33,7.233,8.382,7.132s7.255-3.467,7.154-7.519 s-3.467-7.255-7.519-7.154C10.286,8.387,7.796,9.809,4.932,8.52C4.932,8.52,4.166,12.442,4.251,15.878z"/><path fill="#bd2e2e" d="M4.314,15.897c0.106,4.02,4.307,7.17,8.326,7.064s7.192-3.45,7.087-7.47 c-0.106-4.02-3.45-7.192-7.47-7.087C10.29,8.456,7.822,9.871,4.978,8.596C4.978,8.596,4.224,12.488,4.314,15.897z"/><path fill="#be2e2e" d="M4.376,15.916c0.111,3.988,4.283,7.107,8.27,6.996s7.13-3.433,7.019-7.421s-3.433-7.13-7.421-7.019 c-1.951,0.054-4.397,1.462-7.22,0.201C5.025,8.672,4.282,12.534,4.376,15.916z"/><path fill="#bf2f2f" d="M4.439,15.934c0.116,3.955,4.259,7.043,8.214,6.927s7.068-3.416,6.952-7.372 c-0.116-3.955-3.416-7.068-7.372-6.952c-1.935,0.057-4.359,1.456-7.162,0.21C5.071,8.748,4.34,12.58,4.439,15.934z"/><path fill="#c02f2f" d="M4.501,15.953c0.121,3.923,4.235,6.98,8.159,6.859c3.923-0.121,7.006-3.4,6.885-7.323 c-0.121-3.923-3.4-7.006-7.323-6.885C10.302,8.664,7.9,10.056,5.118,8.824C5.118,8.824,4.399,12.626,4.501,15.953z"/><path fill="#c13030" d="M4.564,15.972c0.126,3.891,4.212,6.917,8.103,6.791c3.891-0.126,6.943-3.383,6.817-7.274 c-0.126-3.891-3.383-6.943-7.274-6.817C10.306,8.733,7.926,10.118,5.165,8.9C5.165,8.9,4.457,12.673,4.564,15.972z"/><path fill="#c23030" d="M4.626,15.991c0.131,3.859,4.188,6.853,8.047,6.722c3.859-0.131,6.881-3.366,6.75-7.225 c-0.131-3.859-3.366-6.881-7.225-6.75c-1.888,0.064-4.247,1.441-6.987,0.237C5.211,8.976,4.515,12.719,4.626,15.991z"/><path fill="#c33131" d="M4.689,16.01c0.136,3.827,4.164,6.79,7.991,6.654c3.827-0.136,6.819-3.349,6.683-7.176 c-0.136-3.827-3.349-6.819-7.176-6.683c-1.872,0.067-4.21,1.436-6.929,0.246C5.258,9.052,4.574,12.765,4.689,16.01z"/><path fill="#c43131" d="M4.751,16.029c0.141,3.795,4.14,6.727,7.935,6.585c3.795-0.141,6.757-3.332,6.615-7.127 c-0.141-3.795-3.332-6.757-7.127-6.615c-1.857,0.069-4.172,1.431-6.871,0.256C5.304,9.128,4.632,12.811,4.751,16.029z"/><path fill="#c53232" d="M4.814,16.048c0.146,3.763,4.116,6.663,7.879,6.517c3.763-0.146,6.694-3.315,6.548-7.078 s-3.315-6.694-7.078-6.548c-1.841,0.072-4.135,1.425-6.813,0.265C5.351,9.204,4.69,12.857,4.814,16.048z"/><path fill="#c63232" d="M4.877,16.067c0.151,3.731,4.093,6.6,7.823,6.449s6.632-3.298,6.481-7.029 c-0.151-3.731-3.298-6.632-7.029-6.481c-1.825,0.074-4.097,1.42-6.755,0.274C5.397,9.28,4.748,12.903,4.877,16.067z"/><path fill="#c73333" d="M4.939,16.085c0.156,3.698,4.069,6.537,7.767,6.38s6.57-3.281,6.414-6.979 c-0.156-3.698-3.281-6.57-6.979-6.414c-1.809,0.076-4.06,1.415-6.697,0.283C5.444,9.356,4.807,12.949,4.939,16.085z"/><path fill="#c83333" d="M5.002,16.104c0.161,3.666,4.045,6.473,7.711,6.312s6.508-3.264,6.346-6.93s-3.264-6.508-6.93-6.346 c-1.794,0.079-4.023,1.41-6.638,0.292C5.491,9.432,4.865,12.995,5.002,16.104z"/><path fill="#c93434" d="M5.064,16.123c0.166,3.634,4.021,6.41,7.656,6.244s6.445-3.247,6.279-6.881 c-0.166-3.634-3.247-6.445-6.881-6.279c-1.778,0.081-3.985,1.405-6.58,0.301C5.537,9.508,4.923,13.042,5.064,16.123z"/><path fill="#ca3434" d="M5.127,16.142c0.171,3.602,3.998,6.347,7.6,6.175s6.383-3.23,6.212-6.832s-3.23-6.383-6.832-6.212 c-1.762,0.084-3.948,1.399-6.522,0.31C5.584,9.584,4.981,13.088,5.127,16.142z"/><path fill="#cb3535" d="M5.189,16.161c0.176,3.57,3.974,6.283,7.544,6.107s6.321-3.213,6.144-6.783 s-3.213-6.321-6.783-6.144c-1.746,0.086-3.91,1.394-6.464,0.319C5.63,9.66,5.04,13.134,5.189,16.161z"/><path fill="#cc3535" d="M5.252,16.18c0.181,3.538,3.95,6.22,7.488,6.038s6.259-3.197,6.077-6.734s-3.197-6.259-6.734-6.077 c-1.731,0.089-3.873,1.389-6.406,0.329C5.677,9.736,5.098,13.18,5.252,16.18z"/><path fill="#cd3636" d="M5.314,16.199c0.187,3.506,3.926,6.157,7.432,5.97c3.506-0.187,6.196-3.18,6.01-6.685 s-3.18-6.196-6.685-6.01c-1.715,0.091-3.836,1.384-6.347,0.338C5.723,9.812,5.156,13.226,5.314,16.199z"/><path fill="#ce3636" d="M5.377,16.218c0.192,3.473,3.903,6.093,7.376,5.902c3.473-0.192,6.134-3.163,5.942-6.636 c-0.192-3.473-3.163-6.134-6.636-5.942C10.36,9.634,8.261,10.919,5.77,9.888C5.77,9.888,5.215,13.272,5.377,16.218z"/><path fill="#cf3737" d="M5.44,16.237c0.197,3.441,3.879,6.03,7.32,5.833c3.441-0.197,6.072-3.146,5.875-6.587 s-3.146-6.072-6.587-5.875c-1.684,0.096-3.761,1.374-6.231,0.356C5.817,9.964,5.273,13.318,5.44,16.237z"/><path fill="#d03737" d="M5.502,16.255c0.202,3.409,3.855,5.967,7.264,5.765c3.409-0.202,6.009-3.129,5.808-6.538 c-0.202-3.409-3.129-6.009-6.538-5.808c-1.668,0.099-3.723,1.368-6.173,0.365C5.863,10.04,5.331,13.365,5.502,16.255z"/><path fill="#d13838" d="M5.565,16.274c0.207,3.377,3.831,5.903,7.208,5.696c3.377-0.207,5.947-3.112,5.741-6.489 c-0.207-3.377-3.112-5.947-6.489-5.741c-1.652,0.101-3.686,1.363-6.115,0.374C5.91,10.116,5.389,13.411,5.565,16.274z"/><path fill="#d23838" d="M5.627,16.293c0.212,3.345,3.808,5.84,7.152,5.628c3.345-0.212,5.885-3.095,5.673-6.44 c-0.212-3.345-3.095-5.885-6.44-5.673c-1.636,0.104-3.648,1.358-6.057,0.383C5.956,10.192,5.448,13.457,5.627,16.293z"/><path fill="#d33939" d="M5.69,16.312c0.217,3.313,3.784,5.776,7.097,5.56c3.313-0.217,5.823-3.078,5.606-6.391 c-0.217-3.313-3.078-5.823-6.391-5.606c-1.621,0.106-3.611,1.353-5.998,0.393C6.003,10.268,5.506,13.503,5.69,16.312z"/><path fill="#d43939" d="M5.752,16.331c0.222,3.281,3.76,5.713,7.041,5.491c3.281-0.222,5.76-3.061,5.539-6.342 C18.11,12.2,15.27,9.72,11.99,9.942c-1.605,0.109-3.574,1.348-5.94,0.402C6.05,10.344,5.564,13.549,5.752,16.331z"/><path fill="#d43939" d="M5.815,16.35C6.042,19.598,9.551,22,12.8,21.773c3.249-0.227,5.698-3.044,5.471-6.293 c-0.227-3.249-3.044-5.698-6.293-5.471c-1.589,0.111-3.536,1.343-5.882,0.411C6.096,10.42,5.623,13.595,5.815,16.35z"/><path fill="#d53a3a" d="M5.877,16.369c0.232,3.216,3.712,5.586,6.929,5.355c3.216-0.232,5.636-3.027,5.404-6.244 c-0.232-3.216-3.027-5.636-6.244-5.404c-1.574,0.113-3.499,1.337-5.824,0.42C6.143,10.496,5.681,13.641,5.877,16.369z"/><path fill="#d63a3a" d="M5.94,16.388c0.237,3.184,3.689,5.523,6.873,5.286c3.184-0.237,5.574-3.01,5.337-6.195 c-0.237-3.184-3.01-5.574-6.195-5.337c-1.558,0.116-3.461,1.332-5.766,0.429C6.189,10.572,5.739,13.687,5.94,16.388z"/><path fill="#d73b3b" d="M6.003,16.407c0.242,3.152,3.665,5.46,6.817,5.218c3.152-0.242,5.511-2.993,5.269-6.146 c-0.242-3.152-2.993-5.511-6.146-5.269c-1.542,0.118-3.424,1.327-5.708,0.438C6.236,10.647,5.797,13.734,6.003,16.407z"/><path fill="#d83b3b" d="M6.065,16.425c0.247,3.12,3.641,5.396,6.761,5.149c3.12-0.247,5.449-2.977,5.202-6.097 s-2.977-5.449-6.097-5.202c-1.526,0.121-3.386,1.322-5.649,0.447C6.282,10.723,5.856,13.78,6.065,16.425z"/><path fill="#d93c3c" d="M6.128,16.444c0.252,3.088,3.617,5.333,6.705,5.081c3.088-0.252,5.387-2.96,5.135-6.048 c-0.252-3.088-2.96-5.387-6.048-5.135c-1.511,0.123-3.349,1.317-5.591,0.456C6.329,10.799,5.914,13.826,6.128,16.444z"/><path fill="#da3c3c" d="M6.19,16.463c0.257,3.056,3.594,5.27,6.649,5.013s5.325-2.943,5.067-5.999s-2.943-5.325-5.999-5.067 c-1.495,0.126-3.312,1.311-5.533,0.466C6.376,10.875,5.972,13.872,6.19,16.463z"/><path fill="#db3d3d" d="M6.253,16.482c0.262,3.024,3.57,5.206,6.594,4.944s5.262-2.926,5-5.949s-2.926-5.262-5.949-5 c-1.479,0.128-3.274,1.306-5.475,0.475C6.422,10.951,6.03,13.918,6.253,16.482z"/><path fill="#dc3d3d" d="M6.315,16.501c0.267,2.992,3.546,5.143,6.538,4.876s5.2-2.909,4.933-5.9s-2.909-5.2-5.9-4.933 c-1.464,0.131-3.237,1.301-5.417,0.484C6.469,11.027,6.089,13.964,6.315,16.501z"/><path fill="#dd3e3e" d="M6.378,16.52C6.65,19.479,9.9,21.6,12.86,21.327s5.138-2.892,4.866-5.851s-2.892-5.138-5.851-4.866 c-1.448,0.133-3.199,1.296-5.358,0.493C6.515,11.103,6.147,14.01,6.378,16.52z"/><path fill="#de3e3e" d="M6.44,16.539c0.277,2.927,3.499,5.016,6.426,4.739s5.076-2.875,4.798-5.802 c-0.277-2.927-2.875-5.076-5.802-4.798c-1.432,0.136-3.162,1.291-5.3,0.502C6.562,11.179,6.205,14.057,6.44,16.539z"/><path fill="#df3f3f" d="M6.503,16.558c0.282,2.895,3.475,4.953,6.37,4.671s5.013-2.858,4.731-5.753 s-2.858-5.013-5.753-4.731c-1.416,0.138-3.125,1.286-5.242,0.511C6.609,11.255,6.264,14.103,6.503,16.558z"/><path fill="#e03f3f" d="M6.566,16.577c0.287,2.863,3.451,4.89,6.314,4.602s4.951-2.841,4.664-5.704 c-0.287-2.863-2.841-4.951-5.704-4.664c-1.401,0.141-3.087,1.28-5.184,0.52C6.655,11.331,6.322,14.149,6.566,16.577z"/><path fill="#e14040" d="M6.628,16.595c0.292,2.831,3.427,4.826,6.258,4.534c2.831-0.292,4.889-2.824,4.596-5.655 c-0.292-2.831-2.824-4.889-5.655-4.596c-1.385,0.143-3.05,1.275-5.126,0.529C6.702,11.407,6.38,14.195,6.628,16.595z"/><path fill="#e24040" d="M6.691,16.614c0.297,2.799,3.404,4.763,6.202,4.466c2.799-0.297,4.826-2.807,4.529-5.606 c-0.297-2.799-2.807-4.826-5.606-4.529c-1.369,0.146-3.012,1.27-5.068,0.539C6.748,11.483,6.438,14.241,6.691,16.614z"/><path fill="#e34141" d="M6.753,16.633c0.302,2.767,3.38,4.7,6.146,4.397c2.767-0.302,4.764-2.79,4.462-5.557 c-0.302-2.767-2.79-4.764-5.557-4.462c-1.354,0.148-2.975,1.265-5.009,0.548C6.795,11.559,6.497,14.287,6.753,16.633z"/><path fill="#e44141" d="M6.816,16.652c0.308,2.734,3.356,4.636,6.091,4.329c2.734-0.308,4.702-2.774,4.394-5.508 c-0.308-2.734-2.774-4.702-5.508-4.394c-1.338,0.15-2.937,1.26-4.951,0.557C6.841,11.635,6.555,14.333,6.816,16.652z"/><path fill="#e54242" d="M6.878,16.671c0.313,2.702,3.332,4.573,6.035,4.261c2.702-0.313,4.64-2.757,4.327-5.459 c-0.313-2.702-2.757-4.64-5.459-4.327c-1.322,0.153-2.9,1.254-4.893,0.566C6.888,11.711,6.613,14.379,6.878,16.671z"/><path fill="#e64242" d="M6.941,16.69c0.318,2.67,3.309,4.51,5.979,4.192c2.67-0.318,4.577-2.74,4.26-5.41 c-0.318-2.67-2.74-4.577-5.41-4.26c-1.306,0.155-2.863,1.249-4.835,0.575C6.935,11.787,6.672,14.426,6.941,16.69z"/><path fill="#e74343" d="M7.003,16.709c0.323,2.638,3.285,4.446,5.923,4.124s4.515-2.723,4.192-5.361 c-0.323-2.638-2.723-4.515-5.361-4.192c-1.291,0.158-2.825,1.244-4.777,0.584C6.981,11.863,6.73,14.472,7.003,16.709z"/><path fill="#e84343" d="M7.066,16.728c0.328,2.606,3.261,4.383,5.867,4.055s4.453-2.706,4.125-5.312 c-0.328-2.606-2.706-4.453-5.312-4.125c-1.275,0.16-2.788,1.239-4.719,0.593C7.028,11.939,6.788,14.518,7.066,16.728z"/><path fill="#e94444" d="M7.128,16.747c0.333,2.574,3.237,4.32,5.811,3.987s4.391-2.689,4.058-5.263 s-2.689-4.391-5.263-4.058c-1.259,0.163-2.75,1.234-4.66,0.602C7.074,12.015,6.846,14.564,7.128,16.747z"/><path fill="#ea4444" d="M7.191,16.765c0.338,2.542,3.213,4.256,5.755,3.919s4.328-2.672,3.991-5.214 c-0.338-2.542-2.672-4.328-5.214-3.991c-1.243,0.165-2.713,1.229-4.602,0.612C7.121,12.091,6.905,14.61,7.191,16.765z"/><path fill="#eb4545" d="M7.254,16.784c0.343,2.51,3.19,4.193,5.699,3.85s4.266-2.655,3.923-5.165s-2.655-4.266-5.165-3.923 c-1.228,0.168-2.676,1.223-4.544,0.621C7.167,12.167,6.963,14.656,7.254,16.784z"/><path fill="#ec4545" d="M7.316,16.803c0.348,2.477,3.166,4.13,5.643,3.782s4.204-2.638,3.856-5.116 s-2.638-4.204-5.116-3.856c-1.212,0.17-2.638,1.218-4.486,0.63C7.214,12.243,7.021,14.702,7.316,16.803z"/><path fill="#ed4646" d="M7.379,16.822c0.353,2.445,3.142,4.066,5.587,3.713s4.142-2.621,3.789-5.067 s-2.621-4.142-5.067-3.789c-1.196,0.173-2.601,1.213-4.428,0.639C7.261,12.319,7.079,14.748,7.379,16.822z"/><path fill="#ee4646" d="M7.441,16.841c0.358,2.413,3.118,4.003,5.532,3.645c2.413-0.358,4.079-2.604,3.721-5.018 s-2.604-4.079-5.018-3.721c-1.181,0.175-2.563,1.208-4.369,0.648C7.307,12.395,7.138,14.795,7.441,16.841z"/><path fill="#ef4747" d="M7.504,16.86c0.363,2.381,3.095,3.94,5.476,3.577c2.381-0.363,4.017-2.587,3.654-4.968 c-0.363-2.381-2.587-4.017-4.968-3.654c-1.165,0.178-2.526,1.203-4.311,0.657C7.354,12.471,7.196,14.841,7.504,16.86z"/><path fill="#f04747" d="M7.566,16.879c0.368,2.349,3.071,3.876,5.42,3.508c2.349-0.368,3.955-2.571,3.587-4.919 s-2.571-3.955-4.919-3.587c-1.149,0.18-2.488,1.198-4.253,0.666C7.4,12.547,7.254,14.887,7.566,16.879z"/><path fill="#f14848" d="M7.629,16.898c0.373,2.317,3.047,3.813,5.364,3.44s3.892-2.554,3.519-4.87 c-0.373-2.317-2.554-3.892-4.87-3.519c-1.133,0.183-2.451,1.192-4.195,0.675C7.447,12.623,7.313,14.933,7.629,16.898z"/><path fill="#f24848" d="M7.691,16.916c0.378,2.285,3.023,3.75,5.308,3.372s3.83-2.537,3.452-4.821 c-0.378-2.285-2.537-3.83-4.821-3.452c-1.118,0.185-2.414,1.187-4.137,0.685C7.494,12.699,7.371,14.979,7.691,16.916z"/><path fill="#f34949" d="M7.754,16.935c0.383,2.253,3,3.686,5.252,3.303s3.768-2.52,3.385-4.772 c-0.383-2.253-2.52-3.768-4.772-3.385c-1.102,0.187-2.376,1.182-4.079,0.694C7.54,12.775,7.429,15.025,7.754,16.935z"/><path fill="#f44949" d="M7.817,16.954c0.388,2.22,2.976,3.623,5.196,3.235s3.706-2.503,3.318-4.723 c-0.388-2.22-2.503-3.706-4.723-3.318c-1.086,0.19-2.339,1.177-4.02,0.703C7.587,12.851,7.487,15.071,7.817,16.954z"/><path fill="#f54a4a" d="M7.879,16.973c0.393,2.188,2.952,3.56,5.14,3.166c2.188-0.393,3.643-2.486,3.25-4.674 c-0.393-2.188-2.486-3.643-4.674-3.25c-1.071,0.192-2.301,1.172-3.962,0.712C7.633,12.927,7.546,15.118,7.879,16.973z"/><path fill="#f64a4a" d="M7.942,16.992c0.398,2.156,2.928,3.496,5.084,3.098c2.156-0.398,3.581-2.469,3.183-4.625 c-0.398-2.156-2.469-3.581-4.625-3.183c-1.055,0.195-2.264,1.166-3.904,0.721C7.68,13.003,7.604,15.164,7.942,16.992z"/><path fill="#f74b4b" d="M8.004,17.011c0.403,2.124,2.905,3.433,5.029,3.03c2.124-0.403,3.519-2.452,3.116-4.576 c-0.403-2.124-2.452-3.519-4.576-3.116c-1.039,0.197-2.226,1.161-3.846,0.73C7.726,13.079,7.662,15.21,8.004,17.011z"/><path fill="#f84b4b" d="M8.067,17.03c0.408,2.092,2.881,3.37,4.973,2.961c2.092-0.408,3.457-2.435,3.048-4.527 c-0.408-2.092-2.435-3.457-4.527-3.048c-1.023,0.2-2.189,1.156-3.788,0.739C7.773,13.155,7.721,15.256,8.067,17.03z"/><path fill="#f94c4c" d="M8.129,17.049c0.413,2.06,2.857,3.306,4.917,2.893c2.06-0.413,3.394-2.418,2.981-4.478 c-0.413-2.06-2.418-3.394-4.478-2.981c-1.008,0.202-2.152,1.151-3.73,0.748C7.82,13.231,7.779,15.302,8.129,17.049z"/><path fill="#fa4c4c" d="M8.192,17.068c0.418,2.028,2.833,3.243,4.861,2.825c2.028-0.418,3.332-2.401,2.914-4.429 s-2.401-3.332-4.429-2.914c-0.992,0.205-2.114,1.146-3.671,0.758C7.866,13.307,7.837,15.348,8.192,17.068z"/><path fill="#fb4d4d" d="M8.254,17.086c0.423,1.995,2.809,3.18,4.805,2.756c1.995-0.423,3.27-2.384,2.846-4.38 s-2.384-3.27-4.38-2.846c-0.976,0.207-2.077,1.141-3.613,0.767C7.913,13.383,7.895,15.394,8.254,17.086z"/><path fill="#fc4d4d" d="M8.317,17.105c0.429,1.963,2.786,3.116,4.749,2.688s3.208-2.367,2.779-4.331 c-0.429-1.963-2.367-3.208-4.331-2.779c-0.961,0.21-2.039,1.135-3.555,0.776C7.959,13.459,7.954,15.44,8.317,17.105z"/><path fill="#fd4e4e" d="M8.38,17.124c0.434,1.931,2.762,3.053,4.693,2.619s3.145-2.351,2.712-4.282 c-0.434-1.931-2.351-3.145-4.282-2.712c-0.945,0.212-2.002,1.13-3.497,0.785C8.006,13.535,8.012,15.487,8.38,17.124z"/><path fill="#fe4e4e" d="M8.442,17.143c0.439,1.899,2.738,2.99,4.637,2.551s3.083-2.334,2.644-4.233 c-0.439-1.899-2.334-3.083-4.233-2.644c-0.929,0.215-1.965,1.125-3.439,0.794C8.053,13.611,8.07,15.533,8.442,17.143z"/><path fill="#ff4f4f" d="M8.505,17.162c0.444,1.867,2.714,2.926,4.581,2.483s3.021-2.317,2.577-4.184 s-2.317-3.021-4.184-2.577c-0.913,0.217-1.927,1.12-3.38,0.803C8.099,13.687,8.128,15.579,8.505,17.162z"/></g><radialGradient id="_JvPvKI2EMM0irCVuepUga" cx="-112" cy="24" r="18" fx="-112.095" fy="16.289" gradientTransform="translate(136)" gradientUnits="userSpaceOnUse"><stop offset="0" stop-color="#ffe16e"/><stop offset=".629" stop-color="#ffd426"/><stop offset=".72" stop-color="#fdcd23"/><stop offset=".854" stop-color="#f8b919"/><stop offset="1" stop-color="#f09c0c"/></radialGradient><circle cx="24" cy="24" r="18" fill="url(#_JvPvKI2EMM0irCVuepUga)"/><path fill="#336bdb" d="M13,20c0-3,4-6,4-6s4,3,4,6s-4,6-4,6S13,23,13,20z"/><circle cx="17" cy="20" r="4" fill="#fff"/><circle cx="17" cy="20" r="2" fill="#212121"/><path fill="#336bdb" d="M27,20c0-3,4-6,4-6s4,3,4,6s-4,6-4,6S27,23,27,20z"/><circle cx="31" cy="20" r="4" fill="#fff"/><circle cx="31" cy="20" r="2" fill="#212121"/><g><path d="M24,38c-6.772,0-10.904-5.207-11.641-6.602C12.121,30.949,12,30.478,12,30c0-1.654,1.346-3,3-3 c0.51,0,0.99,0.132,1.471,0.402C16.5,27.419,19.389,29,24,29c4.617,0,7.506-1.585,7.535-1.601C32.005,27.134,32.498,27,33,27 c1.654,0,3,1.346,3,3c0,0.479-0.121,0.949-0.359,1.396C35.608,31.458,31.691,38,24,38z"/><path fill="#fff" d="M33,28c1.103,0,2,0.897,2,2c0,0.313-0.082,0.626-0.242,0.926C34.606,31.215,30.965,37,24,37 c-6.965,0-10.606-5.785-10.755-6.069C13.082,30.626,13,30.313,13,30c0-1.103,0.897-2,2-2c0.332,0,0.651,0.088,0.98,0.274 C16.01,28.291,19.062,30,24,30c4.938,0,7.99-1.709,8.028-1.731C32.35,28.088,32.668,28,33,28 M33,26 c-0.676,0-1.333,0.177-1.954,0.527C31.025,26.539,28.317,28,24,28c-4.312,0-7.019-1.458-7.046-1.473C16.336,26.179,15.676,26,15,26 c-2.206,0-4,1.794-4,4c0,0.644,0.161,1.273,0.479,1.87C11.511,31.932,15.599,39,24,39c8.402,0,12.491-7.073,12.529-7.144 C36.84,31.272,37,30.644,37,30C37,27.794,35.206,26,33,26L33,26z"/></g><g><path fill="#1c1911" d="M24,36.5c-6.643,0-10.152-5.539-10.298-5.774C13.561,30.46,13.5,30.232,13.5,30 c0-0.827,0.673-1.5,1.5-1.5c0.246,0,0.484,0.067,0.729,0.206C15.763,28.726,18.909,30.5,24,30.5c5.111,0,8.237-1.774,8.269-1.792 C32.516,28.567,32.754,28.5,33,28.5c0.827,0,1.5,0.673,1.5,1.5c0,0.232-0.061,0.46-0.185,0.695C34.152,30.961,30.643,36.5,24,36.5z"/><path fill="#c21515" d="M33,29c0.552,0,1,0.448,1,1c0,0.169-0.053,0.322-0.127,0.462c0,0-3.432,5.538-9.873,5.538 s-9.873-5.538-9.873-5.538C14.053,30.322,14,30.169,14,30c0-0.552,0.448-1,1-1c0.178,0,0.337,0.059,0.481,0.141 c0,0,3.214,1.859,8.519,1.859s8.519-1.859,8.519-1.859C32.663,29.059,32.822,29,33,29 M33,28c-0.332,0-0.65,0.088-0.972,0.269 C31.99,28.291,28.938,30,24,30s-7.99-1.709-8.02-1.726C15.65,28.088,15.332,28,15,28c-1.103,0-2,0.897-2,2 c0,0.313,0.082,0.626,0.244,0.931c0.01,0.019,0.021,0.039,0.033,0.057C13.429,31.234,17.082,37,24,37s10.571-5.766,10.723-6.012 c0.012-0.019,0.023-0.038,0.033-0.057C34.918,30.626,35,30.313,35,30C35,28.897,34.103,28,33,28L33,28z"/></g><radialGradient id="_JvPvKI2EMM0irCVuepUgb" cx="24" cy="37.16" r="4.674" gradientTransform="matrix(0 1 -.9954 0 60.989 13.16)" gradientUnits="userSpaceOnUse"><stop offset=".456" stop-color="#db4a59"/><stop offset=".602" stop-color="#d84756"/><stop offset=".729" stop-color="#cd3e4d"/><stop offset=".85" stop-color="#bb303e"/><stop offset=".965" stop-color="#a21b29"/><stop offset=".999" stop-color="#991421"/></radialGradient><path fill="url(#_JvPvKI2EMM0irCVuepUgb)" d="M24.791,32.628c-0.408,0-0.791,0.395-0.791,0.395s-0.383-0.395-0.791-0.395	c-1.645,0-2.709,1.549-2.709,1.549C21.556,34.701,22.743,35,24,35s2.444-0.299,3.5-0.823C27.5,34.177,26.436,32.628,24.791,32.628z"/><radialGradient id="_JvPvKI2EMM0irCVuepUgc" cx="-112" cy="28" r="4" fx="-112.021" fy="26.286" gradientTransform="translate(136)" gradientUnits="userSpaceOnUse"><stop offset=".416" stop-opacity=".7"/><stop offset="1" stop-opacity="0"/></radialGradient><circle cx="24" cy="28" r="4" fill="url(#_JvPvKI2EMM0irCVuepUgc)"/><radialGradient id="_JvPvKI2EMM0irCVuepUgd" cx="-112" cy="26" r="4" fx="-112.021" fy="24.286" gradientTransform="translate(136)" gradientUnits="userSpaceOnUse"><stop offset="0" stop-color="#ffc7d4"/><stop offset=".628" stop-color="#fc494d"/><stop offset=".699" stop-color="#f7474a"/><stop offset=".789" stop-color="#e74043"/><stop offset=".888" stop-color="#ce3436"/><stop offset=".993" stop-color="#ab2424"/><stop offset="1" stop-color="#a82323"/></radialGradient><circle cx="24" cy="26" r="4" fill="url(#_JvPvKI2EMM0irCVuepUgd)"/><g><path fill="#2679ad" d="M36.093,14.791c-0.449-0.501-1.075-0.982-1.701-1.354c-0.637-0.379-1.317-0.679-2.017-0.911 c-0.709-0.209-1.427-0.38-2.163-0.451c-0.732-0.089-1.474-0.086-2.211-0.06l-0.035,0.001c-0.562,0.02-1.034-0.419-1.054-0.981 c-0.02-0.562,0.419-1.034,0.981-1.054C27.928,9.981,27.965,9.981,28,9.984c0.844,0.06,1.685,0.151,2.511,0.343 c0.828,0.173,1.633,0.457,2.41,0.785c0.771,0.351,1.505,0.776,2.178,1.284c0.677,0.52,1.277,1.069,1.807,1.813 c0.16,0.224,0.108,0.535-0.116,0.695c-0.209,0.149-0.493,0.114-0.661-0.073L36.093,14.791z"/></g><g><path fill="#2679ad" d="M11.093,14.209c0.531-0.744,1.131-1.293,1.807-1.813c0.673-0.508,1.408-0.934,2.178-1.284 c0.777-0.328,1.582-0.612,2.41-0.785c0.826-0.192,1.667-0.284,2.511-0.343c0.561-0.04,1.048,0.383,1.088,0.944 c0.04,0.561-0.383,1.048-0.944,1.088c-0.036,0.003-0.072,0.003-0.107,0.002L20,12.016c-0.737-0.026-1.479-0.029-2.211,0.06 c-0.736,0.07-1.454,0.241-2.163,0.451c-0.7,0.232-1.381,0.531-2.017,0.911c-0.627,0.371-1.252,0.853-1.701,1.354l-0.037,0.041 c-0.184,0.205-0.499,0.222-0.704,0.038C10.975,14.699,10.947,14.413,11.093,14.209z"/></g></svg>