<svg xmlns="http://www.w3.org/2000/svg" viewBox="0 0 48 48"><radialGradient id="6cmxrc6v~34fpYR9tP1FZa" cx="39.945" cy="21.875" r="3.86" gradientTransform="matrix(1 0 0 -1 0 48)" gradientUnits="userSpaceOnUse"><stop offset=".002" stop-color="#fff"/><stop offset=".194" stop-color="#f3f6f7"/><stop offset="1" stop-color="#c3d0d6"/></radialGradient><path fill="url(#6cmxrc6v~34fpYR9tP1FZa)" d="M43.752,26.075c0,0.372,0.079,0.676-0.02,1.016c-0.086,0.294-0.468,0.596-0.618,0.857	c-0.145,0.252-0.189,0.519-0.385,0.731c-0.25,0.269-0.612,0.416-0.93,0.604c-0.299,0.177-0.549,0.4-0.893,0.491	C40.593,29.856,40.185,30,39.847,30s-0.587-0.144-0.9-0.226c-0.324-0.085-0.769-0.13-1.053-0.292	c-0.38-0.217-0.581-0.58-0.865-0.909c-0.253-0.294-0.593-0.562-0.749-0.924c-0.199-0.463-0.179-1.038-0.179-1.574	c0-1.036,0.412-1.976,1.081-2.664c0.253-0.26,0.654-0.403,0.971-0.583c0.556-0.316,0.697-0.598,1.773-0.578	c0.59,0.011,1.148,0.133,1.647,0.372c0.236,0.113,0.298,0.289,0.504,0.445c0.172,0.131,0.609,0.161,0.757,0.319	c0.208,0.223,0.228,0.569,0.379,0.837c0.154,0.274,0.454,0.507,0.538,0.817C43.838,25.357,43.752,25.73,43.752,26.075z"/><path fill="#c52a2f" d="M31.167,1.625c1.427,0.563,7.269,3.352,8.771,9.469c1.563,6.365,0.813,11.719,0.813,11.719	c-0.302,0.792-1.997,0.778-2.344-0.313c-0.266-0.835-1.51-4.583-3.094-6.75c-1.583-2.167-5.021-8.833-5.021-8.833L31.167,1.625z"/><linearGradient id="6cmxrc6v~34fpYR9tP1FZb" x1="38.577" x2="35.947" y1="34.355" y2="33.684" gradientTransform="matrix(1 0 0 -1 0 48)" gradientUnits="userSpaceOnUse"><stop offset="0" stop-color="#af252f" stop-opacity="0"/><stop offset=".999" stop-color="#822c36"/></linearGradient><path fill="url(#6cmxrc6v~34fpYR9tP1FZb)" d="M32.281,5.594c1.427,0.563,3.906,1.844,6.25,7.938c2.382,6.194,1.313,8.844,1.313,8.844	c-0.25,0.813-1.091,1.215-1.438,0.125c-0.266-0.835-1.51-4.583-3.094-6.75c-1.583-2.167-5.021-8.833-5.021-8.833L32.281,5.594z"/><radialGradient id="6cmxrc6v~34fpYR9tP1FZc" cx="24.188" cy="6.188" r="14.318" gradientTransform="matrix(1 0 0 -1 0 48)" gradientUnits="userSpaceOnUse"><stop offset="0" stop-color="#ff4553"/><stop offset=".999" stop-color="#c1272d"/></radialGradient><path fill="url(#6cmxrc6v~34fpYR9tP1FZc)" d="M43,46c0,0,0.054-9.133-6.089-10.749C33.774,34.426,24.018,32,24.001,32	s-9.774,2.426-12.91,3.251C4.947,36.867,5,46,5,46H43z"/><radialGradient id="6cmxrc6v~34fpYR9tP1FZd" cx="-290.647" cy="-20.705" r="1.867" gradientTransform="matrix(-.8764 .1748 -.3931 -2.1652 -250.783 28.275)" gradientUnits="userSpaceOnUse"><stop offset="0" stop-color="#ffe16e"/><stop offset=".461" stop-color="#ffd226"/><stop offset=".741" stop-color="#f8c21d"/><stop offset=".999" stop-color="#f0af13"/></radialGradient><path fill="url(#6cmxrc6v~34fpYR9tP1FZd)" d="M12.66,19.601c-0.759-0.243-2.592-0.088-2.656,2.142c-0.06,2.109,0.464,3.07,1.159,3.976	c0.78,1.016,2.183,1.008,2.067,0.201C13.115,25.113,12.66,19.601,12.66,19.601z"/><radialGradient id="6cmxrc6v~34fpYR9tP1FZe" cx="-174.119" cy="-20.705" r="1.867" gradientTransform="matrix(.829 .1748 .3719 -2.1652 188.076 7.91)" gradientUnits="userSpaceOnUse"><stop offset="0" stop-color="#ffe16e"/><stop offset=".461" stop-color="#ffd226"/><stop offset=".741" stop-color="#f8c21d"/><stop offset=".999" stop-color="#f0af13"/></radialGradient><path fill="url(#6cmxrc6v~34fpYR9tP1FZe)" d="M35.484,19.601c0.718-0.243,2.452-0.088,2.512,2.142c0.057,2.109-0.439,3.07-1.097,3.976	c-0.738,1.016-2.065,1.008-1.955,0.201C35.053,25.113,35.484,19.601,35.484,19.601z"/><radialGradient id="6cmxrc6v~34fpYR9tP1FZf" cx="14.863" cy="70.843" r="14.627" fx="14.786" fy="64.576" gradientTransform="matrix(.8889 0 0 -1.0694 10.803 95.904)" gradientUnits="userSpaceOnUse"><stop offset="0" stop-color="#ffe16e"/><stop offset=".629" stop-color="#ffd226"/><stop offset=".75" stop-color="#fdcd23"/><stop offset=".899" stop-color="#f6bd1b"/><stop offset=".999" stop-color="#f0af13"/></radialGradient><path fill="url(#6cmxrc6v~34fpYR9tP1FZf)" d="M36.838,19.716c0,2.89-0.193,6.659-1.343,8.971C33.256,33.191,27.296,36,24.015,36	c-3.41,0-9.305-2.809-11.544-7.313c-1.149-2.312-1.279-6.081-1.279-8.971c0-0.635,0.017-1.234,0.051-1.803	c0.196-3.271,0.943-5.526,2.101-7.612c2.299-4.141,6.22-6.012,10.671-6.012c4.426,0,8.329,1.841,10.633,5.945	C36.031,12.695,36.838,15.43,36.838,19.716z"/><radialGradient id="6cmxrc6v~34fpYR9tP1FZg" cx="23.179" cy="37.459" r="11.194" gradientTransform="matrix(.9947 0 0 -1 1.178 48)" gradientUnits="userSpaceOnUse"><stop offset=".666" stop-color="#eceff1"/><stop offset=".737" stop-color="#dee3e7"/><stop offset=".871" stop-color="#b9c5cc"/><stop offset=".999" stop-color="#90a4ae"/></radialGradient><path fill="url(#6cmxrc6v~34fpYR9tP1FZg)" d="M11.774,20.328c0,0,0.321-3.984,0.12-5.147c0.905-0.657,3.722-2.63,3.32-5.714	c1.157,0.961,7.092,5.006,16.598,1.82c2.113,2.579,2.515,2.68,4.124,3.641c0.402,1.112,0.553,4.76,0.503,5.367	s0.704,1.062,1.056-0.202c0.111-0.398,0.421-3.789,0.421-6.135c0-5-1.463-12.601-13.801-12.705	C12.14,1.152,10.062,8.979,10.062,13.979c0,3,0.725,6.215,0.725,6.215C10.925,20.951,11.611,20.984,11.774,20.328z"/><radialGradient id="6cmxrc6v~34fpYR9tP1FZh" cx="23.104" cy="32.509" r="9.514" gradientTransform="matrix(.9936 0 0 -1 1.185 48)" gradientUnits="userSpaceOnUse"><stop offset="0" stop-color="#603813" stop-opacity="0"/><stop offset=".999" stop-color="#603813" stop-opacity=".2"/></radialGradient><path fill="url(#6cmxrc6v~34fpYR9tP1FZh)" d="M35.476,14.77c-1.437-0.855-1.739-0.982-3.607-3.249c-0.12-0.145-0.288-0.094-0.466-0.036 c-8,2.584-13.177,0.134-15.193-1.18c-0.289-0.188-0.686-0.004-0.71,0.342c-0.158,2.297-2.163,3.586-3.122,4.24 c-0.144,0.098-0.212,0.265-0.196,0.439c0.11,1.216-0.226,4.763-0.345,4.823c0.213-0.051,1.03-3.226,1.171-4.358 c0.017-0.139,0.082-0.261,0.198-0.337c0.886-0.583,2.399-1.465,2.965-3.016c0.094-0.258,0.391-0.373,0.633-0.245 c1.827,0.963,6.988,3.008,14.117,0.864c0.175-0.053,0.368,0.007,0.486,0.147c1.502,1.773,2.383,1.94,3.553,2.462 c0.103,0.046,0.193,0.13,0.24,0.232c0.61,1.315,0.305,4.539,1.245,4.854c-0.409-0.65-0.185-4.419-0.771-5.761 C35.635,14.897,35.56,14.82,35.476,14.77z"/><radialGradient id="6cmxrc6v~34fpYR9tP1FZi" cx="23.26" cy="32.526" r="9.553" gradientTransform="matrix(.9945 0 0 -1 1.015 48)" gradientUnits="userSpaceOnUse"><stop offset="0" stop-color="#654526" stop-opacity=".143"/><stop offset=".999" stop-color="#654526" stop-opacity=".314"/></radialGradient><path fill="url(#6cmxrc6v~34fpYR9tP1FZi)" d="M15.463,10.59c-0.15,2.313-2.158,3.649-3.119,4.312c-0.023,0.016-0.044,0.033-0.063,0.051 c-0.102,0.097-0.15,0.237-0.136,0.383c0.094,1.003-0.113,3.625-0.236,4.473c-0.039,0.249-0.084,0.403-0.123,0.423 c0.082-0.02,0.203-0.258,0.324-0.616c0.302-0.953,0.707-3.006,0.804-3.867c0.016-0.135,0.078-0.254,0.191-0.329 c0.877-0.586,2.393-1.514,2.964-3.12c0.092-0.258,0.352-0.384,0.569-0.324c0.063,0.017,0.147,0.037,0.232,0.081 c1.939,0.997,7.085,2.983,14.114,0.828c0.14-0.043,0.294-0.011,0.407,0.077c0.03,0.023,0.058,0.05,0.083,0.079 c1.497,1.773,2.291,1.968,3.439,2.496c0.046,0.021,0.092,0.044,0.137,0.069c0.032,0.017,0.062,0.039,0.089,0.063 c0.057,0.051,0.105,0.114,0.135,0.187c0.41,0.97,0.388,2.957,0.634,4.02c0.109,0.47,0.308,0.848,0.6,0.893 c-0.112-0.112-0.192-0.388-0.227-0.747c-0.124-1.246-0.116-3.951-0.565-5.022c-0.038-0.091-0.112-0.168-0.197-0.218 c-1.439-0.856-1.763-0.991-3.635-3.263c-0.117-0.142-0.286-0.106-0.461-0.049c-8.028,2.595-13.25,0.103-15.264-1.216 C15.873,10.066,15.485,10.249,15.463,10.59z"/><radialGradient id="6cmxrc6v~34fpYR9tP1FZj" cx="23.413" cy="32.543" r="9.592" gradientTransform="matrix(.9954 0 0 -1 .846 48)" gradientUnits="userSpaceOnUse"><stop offset="0" stop-color="#69523a" stop-opacity=".286"/><stop offset=".999" stop-color="#69523a" stop-opacity=".429"/></radialGradient><path fill="url(#6cmxrc6v~34fpYR9tP1FZj)" d="M15.426,10.534c-0.142,2.328-2.152,3.712-3.116,4.385c-0.022,0.016-0.043,0.032-0.063,0.05 c-0.104,0.095-0.153,0.234-0.139,0.379c0.1,1.04-0.12,3.842-0.222,4.548c-0.042,0.243-0.098,0.395-0.152,0.422 c0.106-0.025,0.246-0.258,0.366-0.605c0.279-0.911,0.624-3.107,0.717-4.005c0.014-0.131,0.075-0.248,0.184-0.321 c0.867-0.588,2.387-1.562,2.964-3.224c0.09-0.257,0.326-0.353,0.505-0.403c0.055-0.015,0.147-0.002,0.236,0.045 c1.876,0.992,7.132,3.157,14.339,0.908c0.143-0.044,0.299-0.009,0.412,0.086c0.029,0.024,0.056,0.051,0.081,0.081 c1.551,1.845,2.27,2.015,3.465,2.592c0.047,0.023,0.092,0.048,0.136,0.076c0.031,0.02,0.059,0.044,0.084,0.071 c0.051,0.054,0.095,0.121,0.124,0.196c0.39,1.014,0.37,3.117,0.586,4.105c0.101,0.463,0.33,0.87,0.636,0.867 c-0.138-0.088-0.239-0.365-0.267-0.72c-0.088-1.136-0.111-3.974-0.546-5.056c-0.037-0.092-0.11-0.169-0.195-0.219 c-1.441-0.856-1.787-1-3.664-3.277c-0.115-0.139-0.284-0.117-0.455-0.062c-8.055,2.605-13.323,0.073-15.335-1.253 C15.826,10.016,15.447,10.198,15.426,10.534z"/><radialGradient id="6cmxrc6v~34fpYR9tP1FZk" cx="23.567" cy="32.556" r="9.632" gradientTransform="matrix(.9963 0 0 -1 .677 48)" gradientUnits="userSpaceOnUse"><stop offset="0" stop-color="#6e5f4d" stop-opacity=".429"/><stop offset=".999" stop-color="#6e5f4d" stop-opacity=".543"/></radialGradient><path fill="url(#6cmxrc6v~34fpYR9tP1FZk)" d="M15.39,10.478c-0.134,2.344-2.147,3.775-3.114,4.457c-0.022,0.016-0.043,0.032-0.063,0.049 c-0.106,0.093-0.156,0.231-0.142,0.375c0.107,1.076-0.126,4.058-0.208,4.623c-0.044,0.238-0.111,0.386-0.18,0.421 c0.13-0.031,0.289-0.259,0.409-0.593c0.255-0.868,0.543-3.207,0.631-4.142c0.012-0.128,0.072-0.241,0.177-0.313 c0.858-0.59,2.38-1.611,2.963-3.327c0.088-0.256,0.293-0.412,0.441-0.482c0.053-0.025,0.148-0.041,0.24,0.01 c1.814,0.986,7.18,3.331,14.564,0.989c0.145-0.046,0.306-0.007,0.416,0.094c0.028,0.026,0.055,0.053,0.08,0.083 c1.606,1.916,2.249,2.059,3.49,2.687c0.047,0.024,0.093,0.052,0.134,0.084c0.029,0.023,0.056,0.049,0.078,0.078 c0.045,0.058,0.085,0.128,0.113,0.206c0.37,1.059,0.351,3.276,0.539,4.189c0.093,0.455,0.353,0.893,0.672,0.841 c-0.163-0.064-0.288-0.342-0.307-0.694c-0.055-1.025-0.107-3.996-0.528-5.09c-0.036-0.093-0.109-0.17-0.194-0.22 c-1.443-0.857-1.811-1.009-3.693-3.291c-0.112-0.136-0.283-0.129-0.45-0.075c-8.083,2.615-13.396,0.043-15.406-1.289 C15.778,9.966,15.409,10.147,15.39,10.478z"/><radialGradient id="6cmxrc6v~34fpYR9tP1FZl" cx="23.717" cy="32.567" r="9.672" gradientTransform="matrix(.9973 0 0 -1 .508 48)" gradientUnits="userSpaceOnUse"><stop offset="0" stop-color="#726d61" stop-opacity=".571"/><stop offset=".999" stop-color="#726d61" stop-opacity=".657"/></radialGradient><path fill="url(#6cmxrc6v~34fpYR9tP1FZl)" d="M15.353,10.421c-0.126,2.359-2.141,3.838-3.111,4.53c-0.022,0.016-0.043,0.032-0.063,0.048 c-0.108,0.09-0.16,0.227-0.145,0.371c0.113,1.113-0.132,4.274-0.194,4.698c-0.046,0.232-0.125,0.377-0.209,0.419 c0.154-0.037,0.332-0.259,0.452-0.581c0.232-0.826,0.462-3.308,0.544-4.279c0.011-0.124,0.068-0.234,0.17-0.305 c0.849-0.593,2.374-1.66,2.962-3.431c0.085-0.255,0.262-0.441,0.377-0.56c0.048-0.05,0.148-0.08,0.245-0.026 c1.753,0.978,7.228,3.506,14.789,1.07c0.147-0.047,0.312-0.005,0.421,0.102c0.027,0.027,0.054,0.055,0.078,0.085 c1.66,1.987,2.228,2.103,3.515,2.783c0.048,0.025,0.093,0.056,0.132,0.092c0.028,0.025,0.053,0.055,0.073,0.086 c0.04,0.062,0.076,0.135,0.102,0.216c0.35,1.103,0.331,3.435,0.491,4.274c0.085,0.448,0.375,0.915,0.708,0.815 c-0.189-0.039-0.337-0.318-0.346-0.668c-0.024-0.914-0.102-4.019-0.509-5.124c-0.034-0.093-0.107-0.171-0.192-0.221 c-1.445-0.858-1.835-1.018-3.722-3.305c-0.11-0.133-0.281-0.141-0.445-0.088c-8.11,2.623-13.468,0.011-15.476-1.327 C15.73,9.916,15.371,10.096,15.353,10.421z"/><radialGradient id="6cmxrc6v~34fpYR9tP1FZm" cx="23.871" cy="32.577" r="9.713" gradientTransform="matrix(.9982 0 0 -1 .338 48)" gradientUnits="userSpaceOnUse"><stop offset="0" stop-color="#777a74" stop-opacity=".714"/><stop offset=".999" stop-color="#777a74" stop-opacity=".771"/></radialGradient><path fill="url(#6cmxrc6v~34fpYR9tP1FZm)" d="M15.316,10.365c-0.118,2.375-2.136,3.902-3.109,4.603c-0.022,0.016-0.043,0.032-0.063,0.048 c-0.11,0.088-0.163,0.224-0.148,0.367c0.12,1.149-0.138,4.49-0.179,4.773c-0.049,0.227-0.139,0.368-0.237,0.418 c0.178-0.043,0.375-0.26,0.494-0.57c0.209-0.784,0.382-3.409,0.458-4.416c0.009-0.121,0.065-0.228,0.164-0.297 c0.84-0.595,2.368-1.708,2.961-3.535c0.083-0.254,0.225-0.47,0.313-0.639c0.04-0.076,0.148-0.119,0.249-0.062 c1.693,0.969,7.276,3.68,15.014,1.151c0.15-0.049,0.318-0.003,0.425,0.11c0.027,0.028,0.052,0.057,0.077,0.086 c1.714,2.058,2.208,2.145,3.541,2.878c0.048,0.026,0.093,0.06,0.131,0.099c0.027,0.028,0.05,0.06,0.068,0.094 c0.035,0.066,0.066,0.141,0.09,0.225c0.33,1.147,0.31,3.595,0.443,4.359c0.077,0.441,0.398,0.937,0.745,0.789 c-0.215-0.015-0.387-0.294-0.386-0.641c0.003-0.803-0.098-4.041-0.491-5.157c-0.033-0.094-0.105-0.172-0.19-0.222 c-1.447-0.859-1.859-1.027-3.751-3.32c-0.107-0.13-0.279-0.152-0.44-0.101c-8.139,2.635-13.542-0.017-15.548-1.361 C15.683,9.865,15.333,10.045,15.316,10.365z"/><radialGradient id="6cmxrc6v~34fpYR9tP1FZn" cx="24.024" cy="32.585" r="9.754" gradientTransform="matrix(.9991 0 0 -1 .17 48)" gradientUnits="userSpaceOnUse"><stop offset="0" stop-color="#7b8788" stop-opacity=".857"/><stop offset=".999" stop-color="#7b8788" stop-opacity=".886"/></radialGradient><path fill="url(#6cmxrc6v~34fpYR9tP1FZn)" d="M15.28,10.309c-0.11,2.391-2.13,3.965-3.106,4.675c-0.022,0.016-0.042,0.031-0.063,0.047 c-0.112,0.086-0.166,0.221-0.151,0.363c0.126,1.185-0.145,4.706-0.165,4.848c-0.051,0.222-0.152,0.359-0.266,0.416 c0.202-0.049,0.418-0.26,0.537-0.558c0.185-0.742,0.305-3.509,0.372-4.553c0.008-0.117,0.062-0.221,0.157-0.289 c0.831-0.598,2.362-1.757,2.96-3.639c0.081-0.254,0.184-0.496,0.249-0.718c0.03-0.101,0.149-0.159,0.253-0.097 c1.634,0.959,7.324,3.854,15.238,1.231c0.152-0.05,0.324-0.002,0.43,0.118c0.026,0.029,0.051,0.059,0.076,0.088 c1.769,2.129,2.19,2.186,3.566,2.974c0.049,0.028,0.093,0.064,0.129,0.107c0.026,0.031,0.047,0.065,0.063,0.102 c0.03,0.069,0.057,0.148,0.079,0.235c0.31,1.191,0.288,3.755,0.395,4.443c0.067,0.433,0.42,0.96,0.781,0.763 c-0.24,0.009-0.439-0.271-0.426-0.615c0.027-0.692-0.093-4.064-0.473-5.191c-0.032-0.095-0.103-0.173-0.188-0.223 c-1.449-0.86-1.883-1.036-3.78-3.334c-0.105-0.127-0.278-0.164-0.434-0.114c-8.167,2.645-13.615-0.048-15.619-1.397 C15.635,9.815,15.294,9.994,15.28,10.309z"/><path fill="#80949b" d="M36.411,20.295c0.048-0.582-0.088-4.086-0.454-5.225c-0.031-0.095-0.101-0.174-0.187-0.224 c-1.451-0.861-1.907-1.045-3.808-3.348c-0.103-0.124-0.276-0.176-0.429-0.126c-8.195,2.655-13.688-0.078-15.69-1.433 c-0.256-0.173-0.587,0.005-0.6,0.315c-0.104,2.459-2.214,4.098-3.166,4.794c-0.114,0.083-0.17,0.218-0.154,0.359 c0.132,1.222-0.151,4.922-0.151,4.922c-0.054,0.216-0.166,0.35-0.294,0.415c0.227-0.054,0.461-0.261,0.58-0.546 c0.162-0.699,0.225-3.61,0.285-4.69c0.006-0.114,0.058-0.214,0.15-0.281c0.929-0.678,2.769-2.131,3.145-4.539 c0.02-0.125,0.149-0.198,0.258-0.133c1.575,0.947,7.371,4.029,15.463,1.312c0.154-0.052,0.331,0,0.434,0.126 c1.888,2.29,2.224,2.308,3.666,3.159c0.084,0.05,0.154,0.131,0.186,0.224c0.362,1.081,0.328,4.115,0.416,4.772 c0.057,0.426,0.443,0.982,0.817,0.736C36.61,20.918,36.382,20.637,36.411,20.295z"/><path fill="#fff" d="M32.167,17.222c-1.366-0.349-2.812-0.246-4.06,0.234c-0.388,0.149-0.824-0.044-0.974-0.433 c-0.149-0.388,0.044-0.824,0.433-0.974c0.04-0.015,0.081-0.027,0.122-0.036l0.017-0.003c1.614-0.316,3.275-0.127,4.712,0.517 c0.187,0.083,0.27,0.302,0.187,0.489c-0.075,0.167-0.258,0.251-0.429,0.207L32.167,17.222z"/><path fill="#fff" d="M15.833,16.528c1.437-0.643,3.098-0.833,4.712-0.517l0.013,0.003 c0.408,0.08,0.675,0.476,0.595,0.884c-0.08,0.408-0.476,0.675-0.884,0.595c-0.042-0.008-0.087-0.021-0.126-0.036 c-1.248-0.48-2.693-0.583-4.06-0.234l-0.007,0.002c-0.198,0.051-0.4-0.069-0.45-0.267C15.581,16.78,15.672,16.6,15.833,16.528z"/><path fill="#ecbe49" d="M37.973,22.541c0.004-0.001,0.007-0.002,0.011-0.003c-0.001-0.039-0.002-0.078-0.004-0.119	C37.977,22.462,37.975,22.508,37.973,22.541z"/><path fill="#ecbe49" d="M9.995,22.494c0.004,0.001,0.007,0.002,0.011,0.003c-0.001-0.014-0.003-0.031-0.005-0.046	C10,22.465,9.996,22.479,9.995,22.494z"/><radialGradient id="6cmxrc6v~34fpYR9tP1FZo" cx="24.264" cy="6.26" r="14.292" gradientTransform="matrix(1 0 0 -.9999 0 47.999)" gradientUnits="userSpaceOnUse"><stop offset="0" stop-color="#ff4553"/><stop offset=".999" stop-color="#c1272d"/></radialGradient><path fill="url(#6cmxrc6v~34fpYR9tP1FZo)" d="M10.082,38.517c-0.008,1.181-0.029,2.408,0.018,3.662c0.046,1.254,0.159,2.534,0.416,3.821 h1.055h1.055c-0.386-1.258-0.709-2.431-0.972-3.642c-0.262-1.212-0.464-2.463-0.607-3.878 C10.981,37.563,10.094,37.606,10.082,38.517z"/><radialGradient id="6cmxrc6v~34fpYR9tP1FZp" cx="23.347" cy="6.144" r="13.373" gradientTransform="matrix(1 0 0 -.9999 0 47.999)" gradientUnits="userSpaceOnUse"><stop offset="0" stop-color="#f4404e"/><stop offset=".999" stop-color="#be272d"/></radialGradient><path fill="url(#6cmxrc6v~34fpYR9tP1FZp)" d="M10.14,38.612c-0.003,1.177-0.014,2.389,0.039,3.624c0.05,1.201,0.161,2.424,0.404,3.657 c0.006,0.036,0.917,0.071,0.924,0.107h0.504h0.504c-0.216-0.705-0.41-1.384-0.583-2.057c-0.126-0.491-0.24-0.979-0.344-1.474 c-0.034-0.161-0.067-0.324-0.098-0.487c-0.132-0.679-0.245-1.376-0.341-2.112c-0.049-0.376-0.094-0.763-0.134-1.162 c-0.042-0.571-0.402-0.772-0.639-0.627C10.263,38.135,10.141,38.318,10.14,38.612z"/><radialGradient id="6cmxrc6v~34fpYR9tP1FZq" cx="22.456" cy="6.035" r="12.488" gradientTransform="matrix(1 0 0 -.9999 0 47.999)" gradientUnits="userSpaceOnUse"><stop offset="0" stop-color="#e83c49"/><stop offset=".999" stop-color="#bc262e"/></radialGradient><path fill="url(#6cmxrc6v~34fpYR9tP1FZq)" d="M10.199,38.707c0.003,1.174,0,2.37,0.059,3.586c0.054,1.147,0.164,2.314,0.392,3.493 c0.012,0.071,0.779,0.143,0.793,0.215h0.481h0.481c-0.209-0.682-0.394-1.339-0.557-1.99c-0.119-0.476-0.227-0.95-0.324-1.43 c-0.032-0.158-0.063-0.316-0.093-0.475c-0.124-0.659-0.229-1.334-0.319-2.046c-0.046-0.363-0.089-0.736-0.127-1.122 c-0.04-0.527-0.345-0.746-0.548-0.679C10.341,38.257,10.197,38.418,10.199,38.707z"/><radialGradient id="6cmxrc6v~34fpYR9tP1FZr" cx="21.579" cy="5.943" r="11.63" gradientTransform="matrix(1 0 0 -.9999 0 47.999)" gradientUnits="userSpaceOnUse"><stop offset="0" stop-color="#dd3744"/><stop offset=".999" stop-color="#b9262e"/></radialGradient><path fill="url(#6cmxrc6v~34fpYR9tP1FZr)" d="M10.257,38.801c0.008,1.17,0.014,2.351,0.08,3.548c0.057,1.094,0.166,2.205,0.38,3.328 c0.018,0.107,0.641,0.214,0.662,0.322h0.458h0.458c-0.202-0.659-0.378-1.294-0.532-1.924c-0.113-0.462-0.214-0.921-0.305-1.385 c-0.03-0.154-0.059-0.308-0.087-0.463c-0.115-0.639-0.213-1.292-0.298-1.98c-0.043-0.351-0.083-0.71-0.121-1.081 c-0.038-0.482-0.288-0.721-0.457-0.731C10.42,38.379,10.252,38.519,10.257,38.801z"/><radialGradient id="6cmxrc6v~34fpYR9tP1FZs" cx="20.702" cy="5.866" r="10.785" gradientTransform="matrix(1 0 0 -.9999 0 47.999)" gradientUnits="userSpaceOnUse"><stop offset="0" stop-color="#d1333e"/><stop offset=".999" stop-color="#b7262e"/></radialGradient><path fill="url(#6cmxrc6v~34fpYR9tP1FZs)" d="M10.316,38.896c0.014,1.166,0.029,2.332,0.101,3.511c0.061,1.041,0.169,2.095,0.368,3.164 c0.024,0.142,0.503,0.285,0.532,0.429h0.435h0.435c-0.195-0.636-0.362-1.249-0.507-1.857c-0.106-0.447-0.201-0.892-0.285-1.341 c-0.028-0.15-0.055-0.3-0.081-0.452c-0.107-0.619-0.197-1.251-0.276-1.914c-0.041-0.338-0.078-0.684-0.114-1.041 c-0.036-0.438-0.232-0.695-0.366-0.783C10.499,38.501,10.308,38.619,10.316,38.896z"/><radialGradient id="6cmxrc6v~34fpYR9tP1FZt" cx="19.826" cy="5.795" r="9.95" gradientTransform="matrix(1 0 0 -.9999 0 47.999)" gradientUnits="userSpaceOnUse"><stop offset="0" stop-color="#c62e39"/><stop offset=".999" stop-color="#b4262e"/></radialGradient><path fill="url(#6cmxrc6v~34fpYR9tP1FZt)" d="M10.374,38.991c0.019,1.163,0.043,2.312,0.122,3.473c0.065,0.988,0.171,1.985,0.355,3 c0.03,0.178,0.365,0.356,0.401,0.536h0.411h0.411c-0.188-0.613-0.346-1.204-0.482-1.79c-0.1-0.433-0.187-0.863-0.265-1.297 c-0.026-0.146-0.051-0.293-0.075-0.44c-0.098-0.599-0.181-1.209-0.255-1.848c-0.038-0.325-0.073-0.658-0.108-1 c-0.034-0.394-0.175-0.669-0.276-0.835C10.577,38.623,10.363,38.719,10.374,38.991z"/><radialGradient id="6cmxrc6v~34fpYR9tP1FZu" cx="18.949" cy="5.728" r="9.128" gradientTransform="matrix(1 0 0 -.9999 0 47.999)" gradientUnits="userSpaceOnUse"><stop offset="0" stop-color="#ba2a34"/><stop offset=".999" stop-color="#b2252f"/></radialGradient><path fill="url(#6cmxrc6v~34fpYR9tP1FZu)" d="M10.433,39.085c0.025,1.159,0.057,2.293,0.143,3.435c0.069,0.935,0.174,1.875,0.343,2.836 c0.036,0.213,0.227,0.428,0.27,0.644h0.388h0.388c-0.181-0.59-0.33-1.159-0.456-1.723c-0.093-0.418-0.174-0.834-0.246-1.252 c-0.024-0.142-0.047-0.285-0.07-0.428c-0.09-0.579-0.165-1.167-0.233-1.782c-0.035-0.312-0.068-0.632-0.101-0.96 c-0.032-0.349-0.118-0.643-0.185-0.887C10.656,38.745,10.418,38.819,10.433,39.085z"/><path fill="#af252f" d="M10.491,39.18c0.03,1.156,0.072,2.274,0.164,3.397c0.092,1.123,0.236,2.25,0.47,3.423h0.365h0.365 c-0.174-0.567-0.314-1.114-0.431-1.656s-0.21-1.079-0.29-1.624c-0.081-0.558-0.148-1.126-0.212-1.716 c-0.063-0.591-0.122-1.205-0.188-1.858C10.735,38.867,10.474,38.919,10.491,39.18z"/><radialGradient id="6cmxrc6v~34fpYR9tP1FZv" cx="591.264" cy="6.26" r="14.292" gradientTransform="matrix(-1 0 0 -.9999 614.695 47.999)" gradientUnits="userSpaceOnUse"><stop offset="0" stop-color="#ff4553"/><stop offset=".999" stop-color="#c1272d"/></radialGradient><path fill="url(#6cmxrc6v~34fpYR9tP1FZv)" d="M37.613,38.517c0.008,1.181,0.029,2.408-0.018,3.662c-0.046,1.254-0.159,2.534-0.416,3.821 h-1.055H35.07c0.386-1.258,0.709-2.431,0.972-3.642c0.262-1.212,0.464-2.463,0.607-3.878 C36.714,37.563,37.601,37.606,37.613,38.517z"/><radialGradient id="6cmxrc6v~34fpYR9tP1FZw" cx="590.347" cy="6.144" r="13.373" gradientTransform="matrix(-1 0 0 -.9999 614.695 47.999)" gradientUnits="userSpaceOnUse"><stop offset="0" stop-color="#f4404e"/><stop offset=".999" stop-color="#be272d"/></radialGradient><path fill="url(#6cmxrc6v~34fpYR9tP1FZw)" d="M37.555,38.612c0.003,1.177,0.014,2.389-0.039,3.624c-0.05,1.201-0.161,2.424-0.404,3.657 c-0.006,0.036-0.917,0.071-0.924,0.107h-0.504H35.18c0.216-0.705,0.41-1.384,0.583-2.057c0.126-0.491,0.24-0.979,0.344-1.474 c0.034-0.161,0.067-0.324,0.098-0.487c0.132-0.679,0.245-1.376,0.341-2.112c0.049-0.376,0.094-0.763,0.134-1.162 c0.042-0.571,0.402-0.772,0.639-0.627C37.432,38.135,37.554,38.318,37.555,38.612z"/><radialGradient id="6cmxrc6v~34fpYR9tP1FZx" cx="589.456" cy="6.035" r="12.488" gradientTransform="matrix(-1 0 0 -.9999 614.695 47.999)" gradientUnits="userSpaceOnUse"><stop offset="0" stop-color="#e83c49"/><stop offset=".999" stop-color="#bc262e"/></radialGradient><path fill="url(#6cmxrc6v~34fpYR9tP1FZx)" d="M37.496,38.707c-0.003,1.174,0,2.37-0.059,3.586c-0.054,1.147-0.164,2.314-0.392,3.493 c-0.012,0.071-0.779,0.143-0.793,0.215h-0.481H35.29c0.209-0.682,0.394-1.339,0.557-1.99c0.119-0.476,0.227-0.95,0.324-1.43 c0.032-0.158,0.063-0.316,0.093-0.475c0.124-0.659,0.229-1.334,0.319-2.046c0.046-0.363,0.089-0.736,0.127-1.122 c0.04-0.527,0.345-0.746,0.548-0.679C37.354,38.257,37.498,38.418,37.496,38.707z"/><radialGradient id="6cmxrc6v~34fpYR9tP1FZy" cx="588.579" cy="5.943" r="11.63" gradientTransform="matrix(-1 0 0 -.9999 614.695 47.999)" gradientUnits="userSpaceOnUse"><stop offset="0" stop-color="#dd3744"/><stop offset=".999" stop-color="#b9262e"/></radialGradient><path fill="url(#6cmxrc6v~34fpYR9tP1FZy)" d="M37.438,38.801c-0.008,1.17-0.014,2.351-0.08,3.548c-0.057,1.094-0.166,2.205-0.38,3.328 c-0.018,0.107-0.641,0.214-0.662,0.322h-0.458H35.4c0.202-0.659,0.378-1.294,0.532-1.924c0.113-0.462,0.214-0.921,0.305-1.385 c0.03-0.154,0.059-0.308,0.087-0.463c0.115-0.639,0.213-1.292,0.298-1.98c0.043-0.351,0.083-0.71,0.121-1.081 c0.038-0.482,0.288-0.721,0.457-0.731C37.275,38.379,37.443,38.519,37.438,38.801z"/><radialGradient id="6cmxrc6v~34fpYR9tP1FZz" cx="587.702" cy="5.866" r="10.785" gradientTransform="matrix(-1 0 0 -.9999 614.695 47.999)" gradientUnits="userSpaceOnUse"><stop offset="0" stop-color="#d1333e"/><stop offset=".999" stop-color="#b7262e"/></radialGradient><path fill="url(#6cmxrc6v~34fpYR9tP1FZz)" d="M37.379,38.896c-0.014,1.166-0.029,2.332-0.101,3.511c-0.061,1.041-0.169,2.095-0.368,3.164 c-0.024,0.142-0.503,0.285-0.532,0.429h-0.435H35.51c0.195-0.636,0.362-1.249,0.507-1.857c0.106-0.447,0.201-0.892,0.285-1.341 c0.028-0.15,0.055-0.3,0.081-0.452c0.107-0.619,0.197-1.251,0.276-1.914c0.041-0.338,0.078-0.684,0.114-1.041 c0.036-0.438,0.232-0.695,0.366-0.783C37.196,38.501,37.387,38.619,37.379,38.896z"/><radialGradient id="6cmxrc6v~34fpYR9tP1FZA" cx="586.826" cy="5.795" r="9.95" gradientTransform="matrix(-1 0 0 -.9999 614.695 47.999)" gradientUnits="userSpaceOnUse"><stop offset="0" stop-color="#c62e39"/><stop offset=".999" stop-color="#b4262e"/></radialGradient><path fill="url(#6cmxrc6v~34fpYR9tP1FZA)" d="M37.321,38.991c-0.019,1.163-0.043,2.312-0.122,3.473c-0.065,0.988-0.171,1.985-0.355,3 c-0.03,0.178-0.365,0.356-0.401,0.536h-0.411H35.62c0.188-0.613,0.346-1.204,0.482-1.79c0.1-0.433,0.187-0.863,0.265-1.297 c0.026-0.146,0.051-0.293,0.075-0.44c0.098-0.599,0.181-1.209,0.255-1.848c0.038-0.325,0.073-0.658,0.108-1 c0.034-0.394,0.175-0.669,0.276-0.835C37.118,38.623,37.332,38.719,37.321,38.991z"/><radialGradient id="6cmxrc6v~34fpYR9tP1FZB" cx="585.949" cy="5.728" r="9.128" gradientTransform="matrix(-1 0 0 -.9999 614.695 47.999)" gradientUnits="userSpaceOnUse"><stop offset="0" stop-color="#ba2a34"/><stop offset=".999" stop-color="#b2252f"/></radialGradient><path fill="url(#6cmxrc6v~34fpYR9tP1FZB)" d="M37.262,39.085c-0.025,1.159-0.057,2.293-0.143,3.435c-0.069,0.935-0.174,1.875-0.343,2.836 c-0.036,0.213-0.227,0.428-0.27,0.644h-0.388H35.73c0.181-0.59,0.33-1.159,0.456-1.723c0.093-0.418,0.174-0.834,0.246-1.252 c0.024-0.142,0.047-0.285,0.07-0.428c0.09-0.579,0.165-1.167,0.233-1.782c0.035-0.312,0.068-0.632,0.101-0.96 c0.032-0.349,0.118-0.643,0.185-0.887C37.039,38.745,37.276,38.819,37.262,39.085z"/><path fill="#af252f" d="M37.204,39.18c-0.03,1.156-0.072,2.274-0.164,3.397c-0.092,1.123-0.236,2.25-0.47,3.423h-0.365 H35.84c0.174-0.567,0.314-1.114,0.431-1.656s0.21-1.079,0.29-1.624c0.081-0.558,0.148-1.126,0.212-1.716 c0.063-0.591,0.122-1.205,0.188-1.858C36.96,38.867,37.221,38.919,37.204,39.18z"/><radialGradient id="6cmxrc6v~34fpYR9tP1FZC" cx="24.068" cy="31.625" r="9.844" gradientTransform="matrix(1 0 0 -1 0 48)" gradientUnits="userSpaceOnUse"><stop offset="0" stop-color="#5c3512" stop-opacity=".143"/><stop offset=".999" stop-color="#5c3512" stop-opacity=".314"/></radialGradient><path fill="url(#6cmxrc6v~34fpYR9tP1FZC)" d="M37.667,18.479l0.125-1.281c-0.291-1.766-6.307-3.156-13.771-3.156 c-7.651,0-13.677,1.395-13.677,3.224c0,0.118,0.115,1.306,0.156,1.443c0.278-1.792,4.667-3.271,13.521-3.271 C28.458,15.438,36.792,16.074,37.667,18.479z"/><radialGradient id="6cmxrc6v~34fpYR9tP1FZD" cx="24.068" cy="31.694" r="9.836" gradientTransform="matrix(1 0 0 -1 0 48)" gradientUnits="userSpaceOnUse"><stop offset="0" stop-color="#5f4023" stop-opacity=".265"/><stop offset=".999" stop-color="#5f4023" stop-opacity=".412"/></radialGradient><path fill="url(#6cmxrc6v~34fpYR9tP1FZD)" d="M37.685,18.352l0.107-1.155c-0.291-1.766-6.307-3.156-13.771-3.156 c-7.651,0-13.677,1.395-13.677,3.224c0,0.118,0.096,1.169,0.137,1.306c0.278-1.792,4.685-3.277,13.54-3.277 C28.458,15.295,36.81,15.948,37.685,18.352z"/><radialGradient id="6cmxrc6v~34fpYR9tP1FZE" cx="24.067" cy="31.762" r="9.828" gradientTransform="matrix(1 0 0 -1 0 48)" gradientUnits="userSpaceOnUse"><stop offset="0" stop-color="#614b34" stop-opacity=".388"/><stop offset=".999" stop-color="#614b34" stop-opacity=".51"/></radialGradient><path fill="url(#6cmxrc6v~34fpYR9tP1FZE)" d="M37.702,18.226l0.089-1.028c-0.291-1.766-6.307-3.156-13.771-3.156 c-7.651,0-13.677,1.395-13.677,3.224c0,0.118,0.077,1.032,0.119,1.169c0.278-1.792,4.704-3.283,13.558-3.283 C28.458,15.152,36.827,15.821,37.702,18.226z"/><radialGradient id="6cmxrc6v~34fpYR9tP1FZF" cx="24.067" cy="31.83" r="9.82" gradientTransform="matrix(1 0 0 -1 0 48)" gradientUnits="userSpaceOnUse"><stop offset="0" stop-color="#645645" stop-opacity=".51"/><stop offset=".999" stop-color="#645645" stop-opacity=".608"/></radialGradient><path fill="url(#6cmxrc6v~34fpYR9tP1FZF)" d="M37.72,18.099l0.071-0.901c-0.291-1.766-6.307-3.156-13.771-3.156 c-7.651,0-13.677,1.395-13.677,3.224c0,0.118,0.058,0.895,0.1,1.032c0.278-1.792,4.723-3.289,13.577-3.289 C28.458,15.009,36.845,15.694,37.72,18.099z"/><radialGradient id="6cmxrc6v~34fpYR9tP1FZG" cx="24.068" cy="31.899" r="9.813" gradientTransform="matrix(1 0 0 -1 0 48)" gradientUnits="userSpaceOnUse"><stop offset="0" stop-color="#676056" stop-opacity=".633"/><stop offset=".999" stop-color="#676056" stop-opacity=".706"/></radialGradient><path fill="url(#6cmxrc6v~34fpYR9tP1FZG)" d="M37.738,17.972l0.054-0.775c-0.291-1.766-6.307-3.156-13.771-3.156 c-7.651,0-13.677,1.395-13.677,3.224c0,0.118,0.039,0.758,0.081,0.895c0.278-1.792,4.742-3.295,13.596-3.295 C28.458,14.866,36.863,15.568,37.738,17.972z"/><radialGradient id="6cmxrc6v~34fpYR9tP1FZH" cx="24.068" cy="31.967" r="9.806" gradientTransform="matrix(1 0 0 -1 0 48)" gradientUnits="userSpaceOnUse"><stop offset="0" stop-color="#6a6b67" stop-opacity=".755"/><stop offset=".999" stop-color="#6a6b67" stop-opacity=".804"/></radialGradient><path fill="url(#6cmxrc6v~34fpYR9tP1FZH)" d="M37.756,17.846l0.036-0.648c-0.291-1.766-6.307-3.156-13.771-3.156 c-7.651,0-13.677,1.395-13.677,3.224c0,0.118,0.021,0.621,0.062,0.758c0.278-1.792,4.761-3.301,13.615-3.301 C28.458,14.723,36.881,15.441,37.756,17.846z"/><radialGradient id="6cmxrc6v~34fpYR9tP1FZI" cx="24.068" cy="32.035" r="9.799" gradientTransform="matrix(1 0 0 -1 0 48)" gradientUnits="userSpaceOnUse"><stop offset="0" stop-color="#6c7678" stop-opacity=".878"/><stop offset=".999" stop-color="#6c7678" stop-opacity=".902"/></radialGradient><path fill="url(#6cmxrc6v~34fpYR9tP1FZI)" d="M37.774,17.719l0.018-0.521c-0.291-1.766-6.307-3.156-13.771-3.156 c-7.651,0-13.677,1.395-13.677,3.224c0,0.118,0.002,0.485,0.043,0.621c0.278-1.792,4.78-3.307,13.634-3.307 C28.458,14.58,36.899,15.314,37.774,17.719z"/><path fill="#6f8189" d="M37.792,17.592v-0.395c-0.291-1.766-6.307-3.156-13.771-3.156c-7.651,0-13.677,1.395-13.677,3.224 c0,0.118-0.017,0.348,0.024,0.484c0.278-1.792,4.798-3.313,13.653-3.313C28.458,14.438,36.917,15.188,37.792,17.592z"/><radialGradient id="6cmxrc6v~34fpYR9tP1FZJ" cx="23.848" cy="43.359" r="13.046" gradientTransform="matrix(1 0 0 -.9125 0 44.206)" gradientUnits="userSpaceOnUse"><stop offset="0" stop-color="#ff4553"/><stop offset=".999" stop-color="#c1272d"/></radialGradient><path fill="url(#6cmxrc6v~34fpYR9tP1FZJ)" d="M24,0.019V0c-0.132,0-0.263,0.008-0.395,0.01C23.457,0.008,23.311,0,23.163,0v0.021	C16.096,0.238,10,3.292,10.083,11.333l13.079-0.003v0.003l0.433-0.001L24,11.333v-0.002l13.917-0.039	C38.4,3.201,31.935,0.213,24,0.019z"/><g><radialGradient id="6cmxrc6v~34fpYR9tP1FZK" cx="24.06" cy="6.172" r="14.959" gradientTransform="matrix(1 0 0 -1 0 48)" gradientUnits="userSpaceOnUse"><stop offset="0" stop-color="#ff4553"/><stop offset=".999" stop-color="#c1272d"/></radialGradient><path fill="url(#6cmxrc6v~34fpYR9tP1FZK)" d="M28.639,33.094c-0.218,0.414-0.516,0.744-0.912,0.914c-1.259,0.539-1.868-0.6-3.859-0.616 v-0.003c-0.008,0-0.014,0.002-0.022,0.002c-0.007,0-0.012-0.001-0.018-0.001v0.003c-1.99,0.016-2.555,1.155-3.814,0.616 c-0.38-0.163-0.649-0.474-0.834-0.863c-2.452,0.638-5.349,1.395-7.466,1.959c2.226,4.846,6.04,7.647,12.19,7.647h0.064 c6.249,0.002,10.024-2.814,12.188-7.685C33.996,34.491,31.076,33.728,28.639,33.094z"/><radialGradient id="6cmxrc6v~34fpYR9tP1FZL" cx="24.059" cy="6.335" r="14.766" gradientTransform="matrix(1 0 0 -1 0 48)" gradientUnits="userSpaceOnUse"><stop offset="0" stop-color="#f4404e"/><stop offset=".999" stop-color="#be272d"/></radialGradient><path fill="url(#6cmxrc6v~34fpYR9tP1FZL)" d="M28.579,33.087c-0.216,0.406-0.51,0.731-0.9,0.897c-1.243,0.529-1.844-0.589-3.81-0.605 v-0.003c-0.008,0-0.014,0.002-0.021,0.002s-0.012-0.001-0.018-0.001v0.003c-1.965,0.016-2.522,1.135-3.765,0.605 c-0.375-0.16-0.64-0.465-0.823-0.848c-2.421,0.627-5.28,1.37-7.37,1.923c2.197,4.759,5.962,7.51,12.033,7.51h0.063 c6.169,0.002,9.894-2.763,12.031-7.547C33.866,34.459,30.984,33.71,28.579,33.087z"/><radialGradient id="6cmxrc6v~34fpYR9tP1FZM" cx="24.057" cy="6.498" r="14.573" gradientTransform="matrix(1 0 0 -1 0 48)" gradientUnits="userSpaceOnUse"><stop offset="0" stop-color="#e83c49"/><stop offset=".999" stop-color="#bc262e"/></radialGradient><path fill="url(#6cmxrc6v~34fpYR9tP1FZM)" d="M28.518,33.081c-0.213,0.399-0.503,0.717-0.888,0.881c-1.227,0.52-1.82-0.578-3.76-0.594 v-0.003c-0.008,0-0.013,0.002-0.021,0.002c-0.006,0-0.011-0.001-0.018-0.001v0.003c-1.939,0.016-2.489,1.114-3.716,0.594 c-0.37-0.157-0.632-0.457-0.812-0.832c-2.389,0.615-5.211,1.345-7.274,1.888c2.168,4.673,5.884,7.373,11.875,7.373h0.062 c6.088,0.002,9.765-2.713,11.874-7.41C33.737,34.427,30.892,33.692,28.518,33.081z"/><radialGradient id="6cmxrc6v~34fpYR9tP1FZN" cx="24.056" cy="6.661" r="14.38" gradientTransform="matrix(1 0 0 -1 0 48)" gradientUnits="userSpaceOnUse"><stop offset="0" stop-color="#dd3744"/><stop offset=".999" stop-color="#b9262e"/></radialGradient><path fill="url(#6cmxrc6v~34fpYR9tP1FZN)" d="M28.458,33.074c-0.21,0.392-0.496,0.704-0.876,0.864c-1.211,0.51-1.796-0.567-3.71-0.583 v-0.003c-0.008,0-0.013,0.002-0.021,0.002c-0.006,0-0.011-0.001-0.018-0.001v0.003c-1.913,0.016-2.456,1.093-3.666,0.583 c-0.365-0.154-0.624-0.448-0.802-0.817c-2.358,0.604-5.142,1.32-7.178,1.853c2.139,4.586,5.806,7.236,11.718,7.236h0.062 c6.008,0.002,9.636-2.662,11.717-7.272C33.607,34.396,30.8,33.674,28.458,33.074z"/><radialGradient id="6cmxrc6v~34fpYR9tP1FZO" cx="24.054" cy="6.825" r="14.186" gradientTransform="matrix(1 0 0 -1 0 48)" gradientUnits="userSpaceOnUse"><stop offset="0" stop-color="#d1333e"/><stop offset=".999" stop-color="#b7262e"/></radialGradient><path fill="url(#6cmxrc6v~34fpYR9tP1FZO)" d="M28.397,33.068c-0.207,0.384-0.49,0.691-0.865,0.848c-1.194,0.5-1.772-0.557-3.66-0.572 v-0.003c-0.008,0-0.013,0.001-0.021,0.002c-0.006,0-0.011-0.001-0.017-0.001v0.002c-1.888,0.015-2.423,1.073-3.617,0.572 c-0.36-0.151-0.615-0.44-0.791-0.801c-2.326,0.592-5.073,1.295-7.081,1.818c2.111,4.499,5.729,7.099,11.561,7.099h0.061 c5.927,0.002,9.507-2.612,11.56-7.134C33.477,34.364,30.708,33.656,28.397,33.068z"/><radialGradient id="6cmxrc6v~34fpYR9tP1FZP" cx="24.052" cy="6.988" r="13.993" gradientTransform="matrix(1 0 0 -1 0 48)" gradientUnits="userSpaceOnUse"><stop offset="0" stop-color="#c62e39"/><stop offset=".999" stop-color="#b4262e"/></radialGradient><path fill="url(#6cmxrc6v~34fpYR9tP1FZP)" d="M28.336,33.061c-0.204,0.377-0.483,0.677-0.853,0.832c-1.178,0.491-1.748-0.546-3.611-0.561 v-0.003c-0.007,0-0.013,0.001-0.02,0.002c-0.006,0-0.011-0.001-0.017-0.001v0.002c-1.862,0.015-2.39,1.052-3.568,0.561 c-0.355-0.148-0.607-0.431-0.78-0.786c-2.294,0.581-5.004,1.27-6.985,1.783c2.082,4.412,5.651,6.961,11.404,6.961h0.06 c5.847,0.002,9.378-2.561,11.402-6.996C33.348,34.333,30.616,33.638,28.336,33.061z"/><radialGradient id="6cmxrc6v~34fpYR9tP1FZQ" cx="24.051" cy="7.151" r="13.8" gradientTransform="matrix(1 0 0 -1 0 48)" gradientUnits="userSpaceOnUse"><stop offset="0" stop-color="#ba2a34"/><stop offset=".999" stop-color="#b2252f"/></radialGradient><path fill="url(#6cmxrc6v~34fpYR9tP1FZQ)" d="M28.276,33.055c-0.201,0.369-0.476,0.664-0.841,0.815c-1.162,0.481-1.724-0.535-3.561-0.55 v-0.003c-0.007,0-0.013,0.001-0.02,0.001c-0.006,0-0.011-0.001-0.017-0.001v0.002c-1.836,0.015-2.357,1.031-3.519,0.55 c-0.35-0.145-0.599-0.423-0.769-0.77c-2.263,0.569-4.935,1.245-6.889,1.748c2.053,4.325,5.573,6.824,11.247,6.824h0.059 c5.766,0.002,9.248-2.511,11.245-6.858C33.218,34.301,30.524,33.62,28.276,33.055z"/><path fill="#af252f" d="M28.215,33.048c-0.199,0.362-0.47,0.651-0.829,0.799c-1.146,0.471-1.7-0.524-3.511-0.539v-0.003 c-0.007,0-0.013,0.001-0.02,0.001c-0.006,0-0.011-0.001-0.017-0.001v0.002c-1.811,0.014-2.324,1.01-3.47,0.539 c-0.346-0.142-0.59-0.414-0.759-0.755c-2.231,0.558-4.866,1.22-6.793,1.713c2.025,4.238,5.495,6.687,11.09,6.687h0.058 c5.685,0.002,9.119-2.46,11.088-6.72C33.088,34.27,30.432,33.602,28.215,33.048z"/></g><linearGradient id="6cmxrc6v~34fpYR9tP1FZR" x1="27.669" x2="24.352" y1="5" y2="5" gradientTransform="matrix(.5903 0 0 -1 12.167 48)" gradientUnits="userSpaceOnUse"><stop offset="0" stop-color="#af252f" stop-opacity="0"/><stop offset=".999" stop-color="#822c36"/></linearGradient><rect width="1.958" height="6" x="26.542" y="40" fill="url(#6cmxrc6v~34fpYR9tP1FZR)"/><radialGradient id="6cmxrc6v~34fpYR9tP1FZS" cx="24.074" cy="4.727" r="2.497" gradientTransform="matrix(1 0 0 -2.1106 0 53.251)" gradientUnits="userSpaceOnUse"><stop offset=".002" stop-color="#fff"/><stop offset="1" stop-color="#d2d5d6"/></radialGradient><rect width="6" height="6" x="21" y="40" fill="url(#6cmxrc6v~34fpYR9tP1FZS)"/><g><radialGradient id="6cmxrc6v~34fpYR9tP1FZT" cx="24.063" cy="4.832" r="2.471" gradientTransform="matrix(1 0 0 -2.3221 0 54.387)" gradientUnits="userSpaceOnUse"><stop offset=".002" stop-color="#fff"/><stop offset="1" stop-color="#d2d5d6"/></radialGradient><path fill="url(#6cmxrc6v~34fpYR9tP1FZT)" d="M27,40.875h-6v1.478c0.958,0.192,1.992,0.296,3.115,0.296h0.058 c1.013,0,1.952-0.081,2.826-0.234L27,40.875L27,40.875z"/><radialGradient id="6cmxrc6v~34fpYR9tP1FZU" cx="24.063" cy="5.006" r="2.471" gradientTransform="matrix(1 0 0 -2.3221 0 54.617)" gradientUnits="userSpaceOnUse"><stop offset=".002" stop-color="#eef0f1"/><stop offset="1" stop-color="#c7ccce"/></radialGradient><path fill="url(#6cmxrc6v~34fpYR9tP1FZU)" d="M27,40.701h-6v1.478c0.958,0.192,1.992,0.296,3.115,0.296h0.058 c1.013,0,1.952-0.081,2.826-0.234L27,40.701L27,40.701z"/><radialGradient id="6cmxrc6v~34fpYR9tP1FZV" cx="24.063" cy="5.18" r="2.471" gradientTransform="matrix(1 0 0 -2.3221 0 54.848)" gradientUnits="userSpaceOnUse"><stop offset=".002" stop-color="#dce1e3"/><stop offset="1" stop-color="#bcc3c6"/></radialGradient><path fill="url(#6cmxrc6v~34fpYR9tP1FZV)" d="M27,40.527h-6v1.478c0.958,0.192,1.992,0.296,3.115,0.296h0.058 c1.013,0,1.952-0.081,2.826-0.234L27,40.527L27,40.527z"/><radialGradient id="6cmxrc6v~34fpYR9tP1FZW" cx="24.063" cy="5.354" r="2.471" gradientTransform="matrix(1 0 0 -2.3221 0 55.078)" gradientUnits="userSpaceOnUse"><stop offset=".002" stop-color="#cbd2d5"/><stop offset="1" stop-color="#b1babe"/></radialGradient><path fill="url(#6cmxrc6v~34fpYR9tP1FZW)" d="M27,40.353h-6v1.478c0.958,0.192,1.992,0.296,3.115,0.296h0.058 c1.013,0,1.952-0.081,2.826-0.234L27,40.353L27,40.353z"/><radialGradient id="6cmxrc6v~34fpYR9tP1FZX" cx="24.063" cy="5.529" r="2.471" gradientTransform="matrix(1 0 0 -2.3221 0 55.308)" gradientUnits="userSpaceOnUse"><stop offset=".002" stop-color="#bac4c8"/><stop offset="1" stop-color="#a7b2b6"/></radialGradient><path fill="url(#6cmxrc6v~34fpYR9tP1FZX)" d="M27,40.179h-6v1.478c0.958,0.192,1.992,0.296,3.115,0.296h0.058 c1.013,0,1.952-0.081,2.826-0.234L27,40.179L27,40.179z"/><radialGradient id="6cmxrc6v~34fpYR9tP1FZY" cx="24.063" cy="5.703" r="2.471" gradientTransform="matrix(1 0 0 -2.3221 0 55.538)" gradientUnits="userSpaceOnUse"><stop offset=".002" stop-color="#a9b5ba"/><stop offset="1" stop-color="#9ca9ae"/></radialGradient><path fill="url(#6cmxrc6v~34fpYR9tP1FZY)" d="M27,40.004h-6v1.478c0.958,0.192,1.992,0.296,3.115,0.296h0.058 c1.013,0,1.952-0.081,2.826-0.234L27,40.004L27,40.004z"/><radialGradient id="6cmxrc6v~34fpYR9tP1FZZ" cx="24.063" cy="5.877" r="2.471" gradientTransform="matrix(1 0 0 -2.3221 0 55.768)" gradientUnits="userSpaceOnUse"><stop offset=".002" stop-color="#97a6ac"/><stop offset="1" stop-color="#91a0a6"/></radialGradient><path fill="url(#6cmxrc6v~34fpYR9tP1FZZ)" d="M27,39.83h-6v1.478c0.958,0.192,1.992,0.296,3.115,0.296h0.058 c1.013,0,1.952-0.081,2.826-0.234L27,39.83L27,39.83z"/><path fill="#86979e" d="M27,39.656h-6v1.478c0.958,0.192,1.992,0.296,3.115,0.296h0.058c1.013,0,1.952-0.081,2.826-0.234 L27,39.656L27,39.656z"/></g><radialGradient id="6cmxrc6v~34fpYR9tP1FZae" cx="-11.423" cy="104.199" r="1.983" gradientTransform="matrix(2.0435 .0461 .0192 -.71 45.086 106.737)" gradientUnits="userSpaceOnUse"><stop offset=".479" stop-color="#ebeef0"/><stop offset=".952" stop-color="#ebeef0" stop-opacity=".092"/><stop offset="1" stop-color="#ebeef0" stop-opacity="0"/></radialGradient><path fill="url(#6cmxrc6v~34fpYR9tP1FZae)" d="M28.048,32.326c-0.023,0.853-1.987,1.5-4.387,1.446s-4.326-0.789-4.303-1.642	s1.987-1.5,4.387-1.446S28.071,31.473,28.048,32.326z"/><linearGradient id="6cmxrc6v~34fpYR9tP1FZaf" x1="32.694" x2="37.925" y1="41.129" y2="41.129" gradientTransform="matrix(1 0 0 -1 0 48)" gradientUnits="userSpaceOnUse"><stop offset="0" stop-color="#af252f" stop-opacity="0"/><stop offset=".999" stop-color="#822c36"/></linearGradient><path fill="url(#6cmxrc6v~34fpYR9tP1FZaf)" d="M36.445,9.451c-0.349-1.522-1.321-3.801-3.173-5.198c-1.242-0.937-0.196-0.901,0.487-0.428	c1.519,1.051,3.621,2.258,4.166,6.347C37.516,10.522,36.445,9.451,36.445,9.451z"/><radialGradient id="6cmxrc6v~34fpYR9tP1FZag" cx="24.638" cy="36.502" r="13.964" gradientTransform="matrix(1.003 0 0 -.9125 -.928 44.806)" gradientUnits="userSpaceOnUse"><stop offset=".002" stop-color="#fff"/><stop offset=".194" stop-color="#f3f6f7"/><stop offset="1" stop-color="#c3d0d6"/></radialGradient><path fill="url(#6cmxrc6v~34fpYR9tP1FZag)" d="M23.913,7.623c-0.626,0-1.194-0.203-1.788-0.185c-0.763,0.023-1.542,0.273-2.249,0.324	c-0.885,0.064-1.617-0.022-2.407,0.082c-0.552,0.073-1.188,0.326-1.69,0.417c-0.651,0.118-1.26,0.251-1.822,0.397	c-0.799,0.208-1.538,0.272-2.144,0.529c-0.966,0.411-1.644,1.051-2.062,1.563C9.54,10.999,9.122,11.224,8.97,11.5	c-0.217,0.392-0.139,0.846-0.248,1.263c-0.2,0.765-0.325,1.603-0.22,2.299c0.082,0.55,0.344,0.989,0.575,1.383	c0.293,0.499,0.69,0.836,1.154,0.908c0-0.279,0.126-0.547,0.365-0.8c0.135-0.143,0.388-0.233,0.593-0.367	c0.268-0.175,0.514-0.39,0.892-0.546c0.502-0.208,0.965-0.251,1.639-0.422c0.433-0.11,1.031-0.361,1.526-0.455	c0.384-0.073,0.786-0.141,1.204-0.203c0.879-0.131,1.856-0.105,2.864-0.186c1.055-0.085,2.148-0.275,3.312-0.299	c0.431-0.009,0.869-0.013,1.312-0.013c0.614,0,1.438,0.108,2.031,0.125c0.981,0.028,1.712-0.021,2.619,0.05	c0.484,0.038,0.892,0.245,1.35,0.294c0.418,0.045,0.887-0.068,1.28-0.013c0.58,0.08,1.482,0.352,2.001,0.451	c0.852,0.163,1.268,0.168,1.929,0.377c0.58,0.183,1.134,0.659,1.54,0.873c0.737,0.389,1.114,0.552,1.167,1.028	c0.452-0.274,0.798-0.78,1.036-1.407c0.104-0.275,0.187-0.574,0.249-0.886c0.077-0.387,0.318-0.886,0.329-1.297	c0.016-0.625-0.243-1.165-0.384-1.74c-0.142-0.579-0.364-1.1-0.668-1.5c-0.198-0.253-0.399-0.637-0.729-0.854	c-0.449-0.295-1.083-0.408-1.76-0.638C35.469,8.769,34.96,8.627,34.404,8.5c-0.631-0.145-1.282-0.453-2.029-0.561	c-1.046-0.151-2.242-0.085-3.493-0.167c-0.848-0.055-1.543-0.215-2.476-0.239C25.665,7.512,24.703,7.623,23.913,7.623z"/><g><radialGradient id="6cmxrc6v~34fpYR9tP1FZah" cx="23.719" cy="37.307" r="14.115" gradientTransform="matrix(1 0 0 -.9125 0 44.736)" gradientUnits="userSpaceOnUse"><stop offset=".002" stop-color="#fff"/><stop offset=".194" stop-color="#f3f6f7"/><stop offset="1" stop-color="#c3d0d6"/></radialGradient><path fill="url(#6cmxrc6v~34fpYR9tP1FZah)" d="M37.848,14.401c-0.448-0.239-1.059-0.768-1.699-0.972c-0.729-0.233-1.188-0.238-2.128-0.419 c-0.573-0.11-1.569-0.413-2.208-0.502c-0.434-0.061-0.951,0.065-1.412,0.015c-0.505-0.055-0.956-0.285-1.489-0.327 c-1-0.079-1.807-0.024-2.889-0.055c-0.655-0.019-1.564-0.139-2.241-0.139c-0.489,0-0.972,0.005-1.448,0.015 c-1.284,0.027-2.49,0.238-3.654,0.333c-1.112,0.09-2.189,0.061-3.159,0.207c-0.461,0.069-0.905,0.145-1.328,0.226 c-0.547,0.105-1.206,0.384-1.683,0.506c-0.744,0.191-1.254,0.239-1.808,0.47c-0.418,0.174-0.688,0.414-0.985,0.608 c-0.227,0.149-0.505,0.249-0.654,0.409c-0.256,0.273-0.389,0.563-0.397,0.864c0.117,0.295,0.267,0.562,0.411,0.807 c0.293,0.499,0.69,0.836,1.154,0.908c0-0.279,0.126-0.547,0.365-0.8c0.135-0.143,0.388-0.233,0.593-0.367 c0.268-0.175,0.514-0.39,0.892-0.546c0.502-0.208,0.965-0.251,1.639-0.422c0.433-0.11,1.031-0.361,1.526-0.455 c0.384-0.073,0.786-0.141,1.204-0.203c0.879-0.131,1.856-0.105,2.864-0.186c1.055-0.085,2.148-0.275,3.312-0.299 c0.431-0.009,0.869-0.013,1.312-0.013c0.614,0,1.438,0.108,2.031,0.125c0.981,0.028,1.712-0.021,2.619,0.05 c0.484,0.038,0.892,0.245,1.35,0.294c0.418,0.045,0.887-0.068,1.28-0.013c0.58,0.08,1.482,0.352,2.001,0.451 c0.852,0.162,1.268,0.168,1.929,0.377c0.58,0.183,1.134,0.659,1.54,0.873c0.737,0.389,1.114,0.552,1.167,1.028 c0.452-0.274,0.798-0.78,1.036-1.407c0.066-0.174,0.109-0.37,0.158-0.56C38.888,14.944,38.502,14.75,37.848,14.401z"/><radialGradient id="6cmxrc6v~34fpYR9tP1FZai" cx="23.692" cy="37.003" r="13.78" gradientTransform="matrix(1 0 0 -.9125 0 44.763)" gradientUnits="userSpaceOnUse"><stop offset=".002" stop-color="#f2f4f5"/><stop offset=".077" stop-color="#eef1f2"/><stop offset="1" stop-color="#beccd2"/></radialGradient><path fill="url(#6cmxrc6v~34fpYR9tP1FZai)" d="M11.331,13.853c-0.289,0.11-0.547,0.264-0.77,0.391c-0.157,0.09-0.301,0.169-0.443,0.246 c-0.105,0.057-0.216,0.11-0.325,0.166c-0.183,0.094-0.342,0.194-0.459,0.31c-0.224,0.223-0.367,0.455-0.418,0.701 c-0.008,0.038-0.014,0.076-0.018,0.115c0.076,0.287,0.193,0.551,0.312,0.798c0.085,0.126,0.178,0.239,0.278,0.336 c0.216,0.209,0.493,0.334,0.817,0.342c0.019-0.261,0.162-0.489,0.397-0.725c0.14-0.141,0.38-0.235,0.584-0.367 c0.1-0.065,0.199-0.134,0.305-0.203c0.174-0.114,0.359-0.229,0.589-0.324c0.355-0.145,0.696-0.216,1.11-0.308 c0.159-0.035,0.33-0.074,0.517-0.121c0.293-0.075,0.651-0.203,1.001-0.306c0.175-0.052,0.352-0.1,0.52-0.132 c0.289-0.056,0.59-0.111,0.89-0.158c0.102-0.016,0.205-0.032,0.308-0.047c0.765-0.112,1.591-0.111,2.462-0.164 c0.129-0.008,0.26-0.017,0.39-0.027c0.952-0.076,1.934-0.223,2.972-0.267c0.109-0.005,0.219-0.009,0.329-0.012 c0.325-0.009,0.654-0.017,0.987-0.018c0.105,0,0.211-0.001,0.318,0c0.545,0.001,1.245,0.076,1.801,0.105 c0.077,0.004,0.152,0.007,0.224,0.009c0.88,0.026,1.553,0,2.349,0.048c0.085,0.005,0.172,0.011,0.26,0.019 c0.414,0.035,0.778,0.183,1.162,0.253c0.061,0.011,0.122,0.02,0.184,0.027c0.413,0.044,0.879-0.048,1.264,0.006 c0.552,0.077,1.381,0.322,1.908,0.431c0.031,0.006,0.06,0.012,0.089,0.018c0.842,0.161,1.262,0.173,1.918,0.382 c0.567,0.18,1.109,0.623,1.512,0.845c0.011,0.006,0.022,0.012,0.033,0.018c0.732,0.389,1.107,0.554,1.16,1.031 c0.13-0.079,0.251-0.178,0.364-0.294c0.222-0.285,0.374-0.642,0.47-1.056c0.037-0.161,0.056-0.34,0.076-0.517 c-0.191-0.32-0.592-0.554-1.228-0.89c-0.043-0.023-0.087-0.047-0.133-0.072c-0.468-0.259-1.009-0.647-1.631-0.837 c-0.682-0.208-1.16-0.245-2.042-0.42c-0.197-0.04-0.437-0.098-0.69-0.16c-0.48-0.117-1.022-0.232-1.432-0.282 c-0.091-0.011-0.185-0.016-0.281-0.016c-0.349-0.003-0.724,0.043-1.07-0.002c-0.276-0.036-0.538-0.121-0.808-0.191 c-0.202-0.052-0.407-0.098-0.624-0.115c-0.96-0.073-1.744-0.021-2.79-0.051c-0.627-0.018-1.493-0.133-2.15-0.138 c-0.215-0.002-0.429-0.002-0.639,0c-0.251,0.002-0.501,0.006-0.749,0.011c-0.369,0.007-0.731,0.029-1.088,0.059 c-0.833,0.068-1.635,0.184-2.417,0.252c-0.743,0.064-1.469,0.079-2.158,0.126c-0.297,0.02-0.587,0.046-0.868,0.086 c-0.443,0.062-0.869,0.128-1.278,0.2c-0.529,0.093-1.152,0.336-1.618,0.451c-0.028,0.007-0.055,0.014-0.082,0.02 C12.323,13.593,11.845,13.656,11.331,13.853z"/><radialGradient id="6cmxrc6v~34fpYR9tP1FZaj" cx="23.67" cy="36.726" r="13.495" gradientTransform="matrix(1 0 0 -.9125 0 44.787)" gradientUnits="userSpaceOnUse"><stop offset=".002" stop-color="#e4e9eb"/><stop offset="1" stop-color="#b9c7ce"/></radialGradient><path fill="url(#6cmxrc6v~34fpYR9tP1FZaj)" d="M11.962,13.947c-0.324,0.114-0.641,0.289-0.901,0.416c-0.197,0.096-0.371,0.171-0.54,0.249 c-0.125,0.058-0.251,0.113-0.378,0.177c-0.217,0.11-0.393,0.234-0.534,0.367c-0.223,0.21-0.382,0.424-0.449,0.657 c-0.011,0.037-0.02,0.074-0.027,0.111c0.035,0.279,0.118,0.541,0.214,0.79c0.091,0.115,0.189,0.218,0.293,0.302 c0.18,0.126,0.432,0.183,0.741,0.146c0.038-0.242,0.198-0.431,0.429-0.65c0.146-0.138,0.373-0.238,0.575-0.367 c0.1-0.064,0.201-0.132,0.31-0.199c0.176-0.109,0.361-0.217,0.586-0.308c0.349-0.141,0.69-0.219,1.104-0.314 c0.157-0.036,0.327-0.075,0.51-0.122c0.298-0.076,0.656-0.197,1.001-0.294c0.169-0.048,0.345-0.094,0.516-0.128 c0.29-0.058,0.594-0.115,0.887-0.161c0.101-0.016,0.203-0.031,0.305-0.046c0.766-0.11,1.58-0.113,2.454-0.17 c0.128-0.008,0.257-0.017,0.386-0.028c0.949-0.076,1.928-0.206,2.964-0.247c0.109-0.004,0.218-0.009,0.328-0.012 c0.324-0.01,0.65-0.022,0.983-0.024c0.103,0,0.208,0,0.314,0c0.548,0.002,1.244,0.068,1.791,0.094 c0.078,0.004,0.154,0.007,0.227,0.009c0.874,0.026,1.539,0.013,2.339,0.064c0.085,0.005,0.172,0.012,0.259,0.02 c0.41,0.038,0.778,0.175,1.16,0.241c0.06,0.01,0.121,0.019,0.183,0.026c0.408,0.043,0.871-0.027,1.248,0.025 c0.556,0.078,1.375,0.32,1.9,0.428c0.032,0.006,0.062,0.013,0.092,0.018c0.831,0.16,1.256,0.178,1.908,0.387 c0.568,0.182,1.112,0.61,1.515,0.833c0.012,0.006,0.023,0.013,0.035,0.019c0.727,0.389,1.099,0.555,1.152,1.034 c0.128-0.079,0.247-0.177,0.358-0.291c0.168-0.286,0.25-0.615,0.272-1.001c0.008-0.147,0.004-0.31-0.005-0.473 c-0.221-0.305-0.636-0.581-1.254-0.901c-0.046-0.024-0.093-0.048-0.141-0.073c-0.503-0.257-1.024-0.578-1.687-0.772 c-0.635-0.185-1.134-0.25-1.956-0.42c-0.196-0.041-0.425-0.097-0.661-0.152c-0.455-0.106-0.972-0.189-1.374-0.23 c-0.088-0.009-0.179-0.014-0.271-0.016c-0.335-0.008-0.688,0.015-1.019-0.037c-0.263-0.041-0.515-0.121-0.776-0.183 c-0.196-0.046-0.393-0.086-0.6-0.101c-0.92-0.066-1.682-0.017-2.691-0.047c-0.6-0.018-1.421-0.126-2.059-0.137 c-0.207-0.003-0.411-0.004-0.611-0.003c-0.241,0.002-0.479,0.005-0.717,0.009c-0.351,0.007-0.696,0.025-1.037,0.051 c-0.799,0.06-1.568,0.168-2.319,0.237c-0.707,0.065-1.398,0.09-2.057,0.137c-0.285,0.02-0.564,0.045-0.835,0.08 c-0.424,0.055-0.834,0.112-1.228,0.175c-0.511,0.081-1.099,0.288-1.552,0.395c-0.026,0.006-0.051,0.012-0.077,0.018 C12.922,13.703,12.457,13.773,11.962,13.947z"/><radialGradient id="6cmxrc6v~34fpYR9tP1FZak" cx="23.695" cy="36.45" r="13.25" gradientTransform="matrix(1 0 0 -.9125 0 44.81)" gradientUnits="userSpaceOnUse"><stop offset=".002" stop-color="#d7dee1"/><stop offset="1" stop-color="#b4c3ca"/></radialGradient><path fill="url(#6cmxrc6v~34fpYR9tP1FZak)" d="M12.593,14.042c-0.36,0.116-0.736,0.314-1.032,0.441c-0.237,0.101-0.441,0.174-0.637,0.253 c-0.144,0.058-0.287,0.116-0.432,0.189c-0.251,0.125-0.443,0.274-0.609,0.424c-0.222,0.199-0.398,0.393-0.48,0.613 c-0.013,0.036-0.026,0.072-0.036,0.108c-0.006,0.271,0.043,0.53,0.115,0.781c0.096,0.105,0.199,0.196,0.309,0.268 c0.144,0.042,0.37,0.033,0.665-0.05c0.058-0.224,0.235-0.373,0.461-0.575c0.151-0.135,0.365-0.24,0.566-0.367 c0.1-0.064,0.203-0.129,0.316-0.194c0.179-0.103,0.364-0.206,0.583-0.293c0.343-0.137,0.683-0.221,1.097-0.32 c0.155-0.037,0.323-0.077,0.504-0.123c0.303-0.078,0.66-0.191,1.001-0.282c0.164-0.044,0.339-0.089,0.511-0.124 c0.291-0.059,0.597-0.119,0.884-0.164c0.101-0.016,0.201-0.031,0.303-0.045c0.766-0.108,1.57-0.115,2.446-0.175 c0.127-0.009,0.254-0.018,0.383-0.028c0.945-0.075,1.922-0.189,2.955-0.226c0.109-0.004,0.217-0.008,0.326-0.012 c0.323-0.012,0.647-0.028,0.979-0.029c0.101,0,0.205,0,0.31,0c0.552,0.003,1.244,0.06,1.781,0.084 c0.079,0.003,0.156,0.006,0.229,0.009c0.869,0.027,1.524,0.026,2.329,0.08c0.085,0.006,0.172,0.013,0.258,0.022 c0.406,0.041,0.778,0.168,1.158,0.229c0.059,0.01,0.119,0.018,0.181,0.024c0.403,0.042,0.863-0.007,1.232,0.045 c0.56,0.079,1.369,0.318,1.892,0.425c0.032,0.007,0.064,0.013,0.095,0.019c0.821,0.158,1.251,0.184,1.898,0.393 c0.57,0.184,1.115,0.598,1.518,0.821c0.012,0.007,0.025,0.014,0.037,0.02c0.722,0.389,1.091,0.556,1.144,1.036 c0.126-0.078,0.243-0.175,0.352-0.287c0.113-0.287,0.128-0.586,0.075-0.947c-0.019-0.132-0.049-0.281-0.086-0.43 c-0.251-0.29-0.682-0.607-1.281-0.913c-0.049-0.025-0.099-0.05-0.15-0.074c-0.537-0.255-1.04-0.51-1.743-0.707 c-0.587-0.164-1.107-0.256-1.87-0.421c-0.194-0.042-0.413-0.095-0.632-0.144c-0.431-0.096-0.921-0.145-1.317-0.179 c-0.085-0.008-0.173-0.012-0.261-0.015c-0.32-0.013-0.652-0.013-0.967-0.071c-0.25-0.046-0.491-0.121-0.744-0.175 c-0.189-0.04-0.379-0.074-0.576-0.087c-0.88-0.06-1.62-0.014-2.591-0.043c-0.573-0.017-1.35-0.12-1.968-0.135 c-0.198-0.005-0.393-0.007-0.582-0.006c-0.23,0.001-0.458,0.004-0.685,0.008c-0.333,0.006-0.662,0.022-0.986,0.043 c-0.765,0.051-1.502,0.151-2.221,0.222c-0.671,0.066-1.328,0.101-1.956,0.148c-0.273,0.021-0.541,0.043-0.803,0.073 c-0.406,0.047-0.799,0.096-1.178,0.149c-0.493,0.069-1.046,0.24-1.486,0.34c-0.024,0.005-0.048,0.011-0.071,0.016 C13.522,13.813,13.068,13.888,12.593,14.042z"/><radialGradient id="6cmxrc6v~34fpYR9tP1FZal" cx="23.752" cy="36.175" r="13.053" gradientTransform="matrix(1 0 0 -.9125 0 44.835)" gradientUnits="userSpaceOnUse"><stop offset=".002" stop-color="#c9d3d8"/><stop offset="1" stop-color="#b0bfc6"/></radialGradient><path fill="url(#6cmxrc6v~34fpYR9tP1FZal)" d="M13.224,14.136c-0.396,0.118-0.831,0.339-1.164,0.466c-0.277,0.106-0.511,0.177-0.734,0.257 c-0.163,0.059-0.323,0.12-0.486,0.2c-0.284,0.14-0.492,0.315-0.685,0.48c-0.219,0.188-0.415,0.362-0.512,0.569 c-0.016,0.035-0.031,0.069-0.045,0.104c-0.047,0.263-0.032,0.52,0.016,0.772c0.102,0.094,0.21,0.175,0.325,0.234 c0.108-0.041,0.309-0.118,0.589-0.247c0.077-0.205,0.272-0.314,0.492-0.5c0.157-0.132,0.357-0.242,0.557-0.368 c0.1-0.063,0.205-0.127,0.321-0.19c0.182-0.098,0.367-0.194,0.58-0.278c0.336-0.133,0.677-0.224,1.091-0.325 c0.153-0.037,0.319-0.078,0.497-0.124c0.309-0.079,0.664-0.186,1.001-0.27c0.159-0.04,0.333-0.083,0.507-0.119 c0.292-0.061,0.601-0.123,0.881-0.167c0.1-0.016,0.2-0.031,0.3-0.044c0.767-0.106,1.559-0.117,2.438-0.181 c0.126-0.009,0.252-0.019,0.379-0.029c0.942-0.074,1.916-0.172,2.946-0.206c0.108-0.004,0.216-0.008,0.324-0.013 c0.321-0.014,0.643-0.034,0.975-0.035c0.099,0,0.201,0,0.306,0.001c0.555,0.003,1.244,0.051,1.771,0.073 c0.08,0.003,0.157,0.006,0.232,0.009c0.863,0.028,1.51,0.038,2.32,0.096c0.085,0.006,0.171,0.014,0.258,0.023 c0.403,0.043,0.777,0.16,1.156,0.216c0.058,0.009,0.118,0.016,0.179,0.023c0.398,0.042,0.855,0.013,1.217,0.064 c0.564,0.08,1.363,0.316,1.884,0.422c0.033,0.007,0.066,0.013,0.098,0.019c0.81,0.157,1.245,0.189,1.888,0.398 c0.571,0.186,1.117,0.585,1.521,0.809c0.013,0.007,0.026,0.014,0.039,0.022c0.716,0.389,1.084,0.558,1.136,1.039 c0.124-0.077,0.239-0.173,0.347-0.284c0.059-0.288,0.009-0.557-0.122-0.892c-0.046-0.118-0.101-0.251-0.167-0.386 c-0.281-0.274-0.727-0.632-1.308-0.925c-0.052-0.026-0.105-0.051-0.158-0.075c-0.572-0.254-1.055-0.444-1.8-0.642 c-0.538-0.143-1.08-0.263-1.784-0.421c-0.192-0.043-0.4-0.093-0.603-0.137c-0.406-0.085-0.871-0.101-1.259-0.127 c-0.083-0.006-0.167-0.01-0.251-0.015C30.41,13.417,30.1,13.394,29.8,13.33c-0.237-0.05-0.468-0.122-0.712-0.166 c-0.183-0.034-0.365-0.062-0.551-0.074c-0.84-0.053-1.557-0.01-2.492-0.039c-0.546-0.017-1.279-0.114-1.877-0.134 c-0.19-0.006-0.376-0.01-0.554-0.009c-0.219,0.001-0.437,0.003-0.653,0.007c-0.316,0.005-0.627,0.018-0.935,0.036 c-0.73,0.042-1.435,0.135-2.122,0.208c-0.636,0.067-1.257,0.112-1.856,0.159c-0.261,0.021-0.518,0.041-0.77,0.067 c-0.387,0.04-0.764,0.079-1.128,0.124c-0.475,0.057-0.992,0.193-1.42,0.284c-0.022,0.005-0.044,0.01-0.066,0.014 C14.121,13.923,13.679,14.001,13.224,14.136z"/><radialGradient id="6cmxrc6v~34fpYR9tP1FZam" cx="23.809" cy="35.899" r="12.904" gradientTransform="matrix(1 0 0 -.9125 0 44.859)" gradientUnits="userSpaceOnUse"><stop offset=".002" stop-color="#bcc8ce"/><stop offset="1" stop-color="#abbbc2"/></radialGradient><path fill="url(#6cmxrc6v~34fpYR9tP1FZam)" d="M13.855,14.231c-0.432,0.117-0.926,0.363-1.295,0.491c-0.317,0.11-0.582,0.179-0.831,0.26 c-0.183,0.06-0.359,0.123-0.54,0.212c-0.318,0.156-0.541,0.356-0.76,0.537c-0.216,0.178-0.432,0.33-0.543,0.525 c-0.019,0.034-0.037,0.067-0.053,0.101c-0.088,0.255-0.129,0.53-0.104,0.784c0.107,0.084,0.209,0.171,0.329,0.218 c0.072-0.125,0.28-0.306,0.545-0.48c0.096-0.187,0.309-0.255,0.524-0.425c0.163-0.129,0.35-0.244,0.548-0.368 c0.1-0.062,0.207-0.125,0.327-0.185c0.184-0.093,0.37-0.183,0.576-0.263c0.33-0.129,0.671-0.227,1.085-0.331 c0.151-0.038,0.316-0.08,0.491-0.124c0.314-0.081,0.668-0.18,1-0.257c0.154-0.036,0.327-0.078,0.502-0.115 c0.293-0.062,0.605-0.127,0.877-0.17c0.099-0.016,0.198-0.03,0.298-0.044c0.768-0.104,1.548-0.118,2.431-0.186 c0.124-0.01,0.249-0.019,0.375-0.029c0.939-0.074,1.91-0.156,2.937-0.185c0.108-0.003,0.215-0.008,0.322-0.013 c0.32-0.016,0.64-0.04,0.97-0.04c0.097,0,0.198,0,0.302,0.001c0.559,0.004,1.243,0.043,1.761,0.063 c0.081,0.003,0.159,0.006,0.235,0.008c0.857,0.028,1.496,0.051,2.31,0.112c0.085,0.006,0.171,0.015,0.257,0.025 c0.399,0.046,0.777,0.152,1.154,0.204c0.058,0.008,0.117,0.015,0.178,0.021c0.393,0.041,0.848,0.033,1.201,0.084 c0.567,0.081,1.357,0.314,1.876,0.419c0.034,0.007,0.068,0.014,0.101,0.02c0.8,0.156,1.24,0.194,1.877,0.403 c0.572,0.188,1.12,0.573,1.524,0.796c0.014,0.008,0.028,0.015,0.041,0.023c0.711,0.389,1.076,0.559,1.128,1.042 c0.122-0.076,0.235-0.172,0.341-0.281c0.005-0.29-0.106-0.529-0.319-0.838c-0.071-0.103-0.153-0.221-0.249-0.343 c-0.311-0.259-0.773-0.657-1.335-0.937c-0.055-0.027-0.11-0.053-0.166-0.076c-0.606-0.252-1.07-0.379-1.856-0.577 c-0.49-0.124-1.052-0.27-1.698-0.422c-0.19-0.045-0.388-0.092-0.575-0.129c-0.382-0.075-0.821-0.057-1.201-0.075 c-0.08-0.004-0.16-0.008-0.24-0.014c-0.291-0.023-0.581-0.069-0.865-0.139c-0.224-0.055-0.445-0.122-0.679-0.158 c-0.177-0.027-0.351-0.05-0.527-0.06c-0.8-0.047-1.495-0.006-2.393-0.035c-0.518-0.016-1.208-0.107-1.786-0.133 c-0.181-0.008-0.358-0.013-0.526-0.012c-0.208,0.001-0.415,0.002-0.621,0.005c-0.298,0.004-0.593,0.014-0.884,0.028 c-0.696,0.033-1.368,0.118-2.024,0.193c-0.6,0.068-1.187,0.123-1.755,0.17c-0.249,0.021-0.496,0.04-0.737,0.061 c-0.369,0.033-0.729,0.063-1.078,0.098c-0.458,0.046-0.939,0.146-1.354,0.228c-0.021,0.004-0.041,0.008-0.061,0.012 C14.721,14.033,14.289,14.113,13.855,14.231z"/><radialGradient id="6cmxrc6v~34fpYR9tP1FZan" cx="23.885" cy="35.632" r="12.772" gradientTransform="matrix(1 0 0 -.9125 0 44.882)" gradientUnits="userSpaceOnUse"><stop offset=".002" stop-color="#aebdc4"/><stop offset="1" stop-color="#a6b6be"/></radialGradient><path fill="url(#6cmxrc6v~34fpYR9tP1FZan)" d="M14.486,14.325c-0.469,0.116-1.021,0.386-1.426,0.516c-0.357,0.114-0.652,0.182-0.928,0.264 c-0.202,0.06-0.395,0.127-0.594,0.223c-0.352,0.171-0.589,0.399-0.835,0.593c-0.213,0.168-0.449,0.298-0.574,0.481 c-0.022,0.032-0.043,0.064-0.062,0.097c-0.128,0.247-0.182,0.499-0.181,0.755c0.113,0.073,0.231,0.132,0.356,0.167 c0.036-0.208,0.186-0.42,0.438-0.639c0.115-0.168,0.347-0.195,0.556-0.349c0.17-0.125,0.342-0.246,0.54-0.368 c0.1-0.062,0.208-0.123,0.332-0.18c0.187-0.088,0.372-0.171,0.573-0.248c0.324-0.125,0.665-0.229,1.079-0.337 c0.149-0.039,0.312-0.081,0.484-0.125c0.32-0.082,0.672-0.174,1-0.245c0.149-0.033,0.32-0.072,0.498-0.111 c0.294-0.064,0.609-0.132,0.874-0.173c0.098-0.016,0.197-0.03,0.295-0.043c0.769-0.102,1.538-0.12,2.423-0.192 c0.123-0.01,0.247-0.02,0.371-0.029c0.936-0.073,1.904-0.139,2.928-0.165c0.107-0.003,0.214-0.008,0.321-0.014 c0.319-0.018,0.636-0.045,0.966-0.046c0.095,0,0.195,0,0.298,0.001c0.562,0.005,1.243,0.035,1.751,0.052 c0.082,0.003,0.161,0.005,0.238,0.008c0.851,0.029,1.482,0.064,2.3,0.128c0.085,0.007,0.171,0.016,0.256,0.026 c0.395,0.048,0.777,0.144,1.152,0.191c0.057,0.007,0.116,0.014,0.176,0.02c0.388,0.04,0.84,0.053,1.185,0.103 c0.571,0.083,1.351,0.312,1.868,0.416c0.035,0.007,0.07,0.014,0.104,0.021c0.789,0.154,1.234,0.2,1.867,0.409 c0.574,0.189,1.123,0.56,1.526,0.784c0.015,0.008,0.029,0.016,0.043,0.024c0.706,0.389,1.069,0.56,1.12,1.045 c0.12-0.076,0.231-0.17,0.336-0.278c-0.049-0.291-0.22-0.505-0.516-0.783c-0.096-0.09-0.206-0.192-0.33-0.299 c-0.342-0.244-0.819-0.681-1.362-0.948c-0.058-0.028-0.116-0.054-0.175-0.077c-0.64-0.25-1.085-0.315-1.912-0.513 c-0.441-0.105-1.025-0.278-1.612-0.422c-0.188-0.046-0.375-0.09-0.546-0.121c-0.358-0.064-0.771-0.014-1.144-0.023 c-0.077-0.002-0.154-0.006-0.23-0.014c-0.277-0.028-0.545-0.097-0.814-0.173c-0.21-0.059-0.422-0.122-0.647-0.15 c-0.171-0.021-0.337-0.038-0.503-0.046c-0.76-0.04-1.433-0.003-2.294-0.03c-0.491-0.016-1.137-0.101-1.695-0.132 c-0.173-0.009-0.34-0.015-0.497-0.015c-0.197,0-0.394,0.002-0.589,0.004c-0.28,0.003-0.558,0.011-0.833,0.021 c-0.662,0.024-1.302,0.102-1.925,0.178c-0.564,0.069-1.116,0.134-1.654,0.181c-0.238,0.021-0.473,0.038-0.705,0.055 c-0.35,0.025-0.694,0.046-1.028,0.072c-0.44,0.034-0.885,0.099-1.288,0.173c-0.019,0.003-0.037,0.007-0.056,0.011 C15.32,14.142,14.899,14.223,14.486,14.325z"/><path fill="#a1b2ba" d="M37.001,16.149c-0.415-0.255-0.98-0.821-1.572-1.038c-0.675-0.248-1.098-0.255-1.968-0.448 c-0.53-0.118-1.451-0.441-2.042-0.536c-0.401-0.065-0.88,0.07-1.306,0.016c-0.467-0.059-0.884-0.305-1.378-0.35 c-0.925-0.085-1.671-0.026-2.673-0.059c-0.606-0.02-1.446-0.149-2.073-0.149c-0.452,0-0.899,0.005-1.339,0.016 c-1.188,0.029-2.303,0.255-3.38,0.356c-1.029,0.096-2.025,0.065-2.923,0.221c-0.427,0.074-0.837,0.155-1.229,0.241 c-0.506,0.112-1.115,0.41-1.557,0.541c-0.688,0.204-1.16,0.255-1.673,0.502c-0.386,0.186-0.637,0.442-0.911,0.65 c-0.21,0.159-0.467,0.266-0.605,0.436c-0.216,0.267-0.364,0.478-0.39,0.77c0.118,0.063,0.218,0.16,0.347,0.182 c0-0.292,0.188-0.55,0.425-0.814c0.134-0.15,0.385-0.135,0.588-0.274c0.266-0.183,0.492-0.38,0.868-0.544 c0.498-0.217,0.974-0.397,1.643-0.577c0.429-0.115,0.986-0.261,1.478-0.359c0.381-0.076,0.949-0.218,1.364-0.283 c0.872-0.137,1.707-0.155,2.707-0.239c1.047-0.089,2.131-0.149,3.286-0.174c0.428-0.009,0.842-0.065,1.281-0.065 c0.609,0,1.447,0.026,2.036,0.044c0.973,0.029,1.632,0.078,2.532,0.152c0.48,0.04,0.951,0.155,1.405,0.207 c0.414,0.047,0.953,0.085,1.343,0.141c0.575,0.084,1.345,0.31,1.86,0.413c0.845,0.17,1.307,0.217,1.963,0.435 c0.575,0.191,1.126,0.548,1.529,0.772c0.731,0.407,1.105,0.577,1.158,1.073c0.118-0.075,0.227-0.168,0.33-0.275 C37.989,16.748,37.631,16.537,37.001,16.149z"/></g><linearGradient id="6cmxrc6v~34fpYR9tP1FZao" x1="-108.263" x2="-106.671" y1="9.504" y2="11.38" gradientTransform="scale(1 -1) rotate(15.112 82.153 525.535)" gradientUnits="userSpaceOnUse"><stop offset="0" stop-color="#ffe16e" stop-opacity="0"/><stop offset="1" stop-color="#efae1c"/></linearGradient><path fill="url(#6cmxrc6v~34fpYR9tP1FZao)" d="M32.636,20.327c0,0,1.364,0.254,2.228-0.515c0.239-0.203,0.42-0.044,0.207,0.255	c-0.213,0.299-1.029,0.986-2.127,1.145C31.846,21.37,32.636,20.327,32.636,20.327z"/><linearGradient id="6cmxrc6v~34fpYR9tP1FZap" x1="163.112" x2="165.072" y1="1014.788" y2="1017.097" gradientTransform="rotate(15.116 3849.812 25.487)" gradientUnits="userSpaceOnUse"><stop offset="0" stop-color="#ffe16e" stop-opacity="0"/><stop offset="1" stop-color="#efae1c"/></linearGradient><path fill="url(#6cmxrc6v~34fpYR9tP1FZap)" d="M32.493,21.854c0,0,1.68-0.312,2.743,0.634c0.294,0.25,0.517,0.055,0.255-0.314	s-1.267-1.214-2.619-1.409C31.521,20.571,32.493,21.854,32.493,21.854z"/><linearGradient id="6cmxrc6v~34fpYR9tP1FZaq" x1="-407.902" x2="-406.31" y1="90.434" y2="92.31" gradientTransform="rotate(-164.884 -201.006 28.313)" gradientUnits="userSpaceOnUse"><stop offset="0" stop-color="#ffe16e" stop-opacity="0"/><stop offset="1" stop-color="#efae1c"/></linearGradient><path fill="url(#6cmxrc6v~34fpYR9tP1FZaq)" d="M15.151,20.327c0,0-1.364,0.254-2.228-0.515c-0.239-0.203-0.42-0.044-0.207,0.255	s1.029,0.986,2.127,1.145S15.151,20.327,15.151,20.327z"/><linearGradient id="6cmxrc6v~34fpYR9tP1FZar" x1="-136.527" x2="-134.567" y1="1095.718" y2="1098.027" gradientTransform="scale(-1 1) rotate(15.112 3981.145 1015.597)" gradientUnits="userSpaceOnUse"><stop offset="0" stop-color="#ffe16e" stop-opacity="0"/><stop offset="1" stop-color="#efae1c"/></linearGradient><path fill="url(#6cmxrc6v~34fpYR9tP1FZar)" d="M15.294,21.854c0,0-1.68-0.312-2.743,0.634c-0.294,0.25-0.517,0.055-0.255-0.314	s1.267-1.214,2.619-1.409C16.266,20.571,15.294,21.854,15.294,21.854z"/><linearGradient id="6cmxrc6v~34fpYR9tP1FZas" x1="447.382" x2="442.818" y1="514.934" y2="521.729" gradientTransform="scale(1 -1) rotate(-88.241 -50.104 467.993)" gradientUnits="userSpaceOnUse"><stop offset="0" stop-color="#ffe16e" stop-opacity="0"/><stop offset="1" stop-color="#efae1c"/></linearGradient><path fill="url(#6cmxrc6v~34fpYR9tP1FZas)" d="M14.509,24.569c2.227,2.352,6.455,1.201,6.897-2.752c0.072-0.644-0.33-0.559-0.68-0.063	c-1.364,1.939-2.523,2.281-5.592,1.414C14.467,23.172,14.109,24.044,14.509,24.569z"/><linearGradient id="6cmxrc6v~34fpYR9tP1FZat" x1="438.88" x2="434.317" y1="238.283" y2="245.078" gradientTransform="scale(-1) rotate(-88.241 64.39 349.93)" gradientUnits="userSpaceOnUse"><stop offset="0" stop-color="#ffe16e" stop-opacity="0"/><stop offset="1" stop-color="#efae1c"/></linearGradient><path fill="url(#6cmxrc6v~34fpYR9tP1FZat)" d="M33.29,24.569c-2.227,2.352-6.455,1.201-6.897-2.752c-0.072-0.644,0.33-0.559,0.68-0.063	c1.364,1.939,2.523,2.281,5.592,1.414C33.332,23.172,33.69,24.044,33.29,24.569z"/><path fill="#805b2a" d="M14.322,21.29c-0.023,0.367,0.055,0.336,0.196,0.519c0,0,1.594,2.204,6.402,0.695	c0.348-0.124,0.598-0.36,0.562-0.644C20.866,16.978,14.699,17.695,14.322,21.29z"/><path fill="#fff" d="M14.393,21.07c-0.12,0.258-0.082,0.464,0,0.672c0.343,0.906,3.095,4.131,6.809,0.745	c0.277-0.239,0.321-0.45,0.252-0.748C21.385,21.44,20.423,19,17.902,19C15.405,19,14.601,20.719,14.393,21.07z"/><linearGradient id="6cmxrc6v~34fpYR9tP1FZau" x1="15.901" x2="20.085" y1="26.931" y2="26.931" gradientTransform="matrix(1 0 0 -1 0 48)" gradientUnits="userSpaceOnUse"><stop offset="0" stop-color="#c69c6d"/><stop offset="1" stop-color="#754c24"/></linearGradient><circle cx="17.993" cy="21.069" r="2.092" fill="url(#6cmxrc6v~34fpYR9tP1FZau)"/><radialGradient id="6cmxrc6v~34fpYR9tP1FZav" cx="17.993" cy="26.931" r="1.053" gradientTransform="matrix(1 0 0 -1 0 48)" gradientUnits="userSpaceOnUse"><stop offset="0" stop-color="#1c1911"/><stop offset=".999" stop-color="#171714"/></radialGradient><circle cx="17.993" cy="21.069" r="1.053" fill="url(#6cmxrc6v~34fpYR9tP1FZav)"/><circle cx="17.484" cy="20.526" r=".494" fill="#fff"/><path fill="#805b2a" d="M33.574,21.29c0.023,0.367-0.055,0.336-0.196,0.519c0,0-1.594,2.204-6.402,0.695	c-0.348-0.124-0.598-0.36-0.562-0.644C27.03,16.978,33.197,17.695,33.574,21.29z"/><path fill="#fff" d="M33.503,21.07c0.12,0.258,0.082,0.464,0,0.672c-0.343,0.906-3.095,4.131-6.809,0.745	c-0.277-0.239-0.321-0.45-0.252-0.748C26.511,21.44,27.473,19,29.994,19C32.49,19,33.295,20.719,33.503,21.07z"/><linearGradient id="6cmxrc6v~34fpYR9tP1FZaw" x1="209.432" x2="213.616" y1="818.932" y2="818.932" gradientTransform="translate(-181.622 -797.863)" gradientUnits="userSpaceOnUse"><stop offset="0" stop-color="#c69c6d"/><stop offset="1" stop-color="#754c24"/></linearGradient><circle cx="29.902" cy="21.069" r="2.092" fill="url(#6cmxrc6v~34fpYR9tP1FZaw)"/><radialGradient id="6cmxrc6v~34fpYR9tP1FZax" cx="-388.475" cy="26.931" r="1.053" gradientTransform="rotate(180 -179.287 24)" gradientUnits="userSpaceOnUse"><stop offset="0" stop-color="#1c1911"/><stop offset=".999" stop-color="#171714"/></radialGradient><circle cx="29.902" cy="21.069" r="1.053" fill="url(#6cmxrc6v~34fpYR9tP1FZax)"/><g><radialGradient id="6cmxrc6v~34fpYR9tP1FZay" cx="-15.931" cy="28.695" r="1.709" gradientTransform="matrix(1.37 0 0 1.3195 45.883 -12.216)" gradientUnits="userSpaceOnUse"><stop offset=".245" stop-color="#cc9000"/><stop offset=".415" stop-color="#d09504" stop-opacity=".822"/><stop offset=".627" stop-color="#dca50f" stop-opacity=".599"/><stop offset=".851" stop-color="#eebd20" stop-opacity=".363"/><stop offset="1" stop-color="#fed12e" stop-opacity="0"/></radialGradient><path fill="url(#6cmxrc6v~34fpYR9tP1FZay)" d="M24.04,26.328c-0.788,0-1.429-0.2-1.825-0.417c-0.291-0.16-0.586-0.086-0.393,0.415 c0.261,0.679,0.858,1.48,2.218,1.48c1.337,0,1.936-0.773,2.204-1.445c0.206-0.516-0.091-0.568-0.344-0.449 C25.412,26.14,24.808,26.328,24.04,26.328z"/><radialGradient id="6cmxrc6v~34fpYR9tP1FZaz" cx="-61.076" cy="-23.175" r="1.76" gradientTransform="matrix(1.4827 .036 -.0172 .7101 114.26 44.123)" gradientUnits="userSpaceOnUse"><stop offset=".479" stop-color="#fed53f"/><stop offset=".926" stop-color="#fed53f" stop-opacity=".141"/><stop offset="1" stop-color="#fed53f" stop-opacity="0"/></radialGradient><path fill="url(#6cmxrc6v~34fpYR9tP1FZaz)" d="M26.874,25.535c-0.018,0.757-1.286,1.339-2.831,1.302c-1.545-0.038-2.782-0.681-2.764-1.438 s1.286-1.339,2.831-1.302C25.655,24.135,26.892,24.779,26.874,25.535z"/><radialGradient id="6cmxrc6v~34fpYR9tP1FZaA" cx="24.117" cy="199.221" r="1.411" gradientTransform="matrix(1 0 0 .6596 0 -105.987)" gradientUnits="userSpaceOnUse"><stop offset=".004" stop-color="#fff4c9"/><stop offset="1" stop-color="#fff4c9" stop-opacity="0"/></radialGradient><ellipse cx="24.117" cy="25.419" fill="url(#6cmxrc6v~34fpYR9tP1FZaA)" rx="1.411" ry=".931"/></g><circle cx="29.422" cy="20.526" r=".494" fill="#fff"/><radialGradient id="6cmxrc6v~34fpYR9tP1FZaB" cx="24.063" cy="20.161" r="13.589" gradientTransform="matrix(1 0 0 -1.0231 0 48.465)" gradientUnits="userSpaceOnUse"><stop offset=".666" stop-color="#eceff1"/><stop offset=".737" stop-color="#dee3e7"/><stop offset=".871" stop-color="#b9c5cc"/><stop offset=".999" stop-color="#90a4ae"/></radialGradient><path fill="url(#6cmxrc6v~34fpYR9tP1FZaB)" d="M36.75,20.828c0,0-0.354,6.672-3.612,8.857c-1.158,0.777-1.887,0.019-2.269-0.335	c-0.535-0.496-2.753-2.279-6.867-2.296c0-0.001,0-0.002,0-0.003c-0.084-0.002-0.159,0.002-0.24,0.001	c-0.045,0.001-0.086-0.002-0.132-0.001v0.001c-4.094,0.017-5.921,1.759-6.539,2.296c-0.394,0.342-1.106,1.104-2.269,0.335	c-2.587-1.708-3.328-5.936-3.535-7.867c-0.065-0.61-0.077-0.991-0.077-0.991C10,32.75,14.157,40.997,24.008,40.997h0.055	C34.046,41,38.167,33.167,36.75,20.828z"/><radialGradient id="6cmxrc6v~34fpYR9tP1FZaC" cx="3.264" cy="-68.897" r="2.964" gradientTransform="matrix(-.0153 .9115 .9692 .0056 90.56 29.611)" gradientUnits="userSpaceOnUse"><stop offset=".696" stop-color="#ced6db"/><stop offset="1" stop-color="#cdd5da" stop-opacity="0"/></radialGradient><path fill="url(#6cmxrc6v~34fpYR9tP1FZaC)" d="M23.795,33.009c-1.034,0-1.877-0.225-2.397-0.47c-0.382-0.18-0.77-0.098-0.517,0.468	c0.343,0.766,1.127,2.119,2.914,2.119c1.757,0,2.544-1.322,2.896-2.08c0.27-0.581-0.12-0.64-0.452-0.507	C25.596,32.796,24.805,33.009,23.795,33.009z"/><g><path fill="#ebeef0" d="M27.737,30.714c-1.376,0.113-2.64-1.236-3.208-1.69c-0.471-0.376-0.965-0.353-1.353,0 c-0.538,0.489-1.909,2.074-3.259,1.784c-1.498-0.322-1.427,0.682-0.29,1.129c2.262,0.889,2.801-0.266,4.169-0.265 c1.446,0.001,2.246,0.95,4.113,0.203C29.478,31.247,29.314,30.584,27.737,30.714z"/><path fill="#eaedef" d="M27.734,30.722c-1.376,0.113-2.644-1.23-3.212-1.685c-0.466-0.372-0.955-0.349-1.34,0 c-0.539,0.488-1.912,2.064-3.262,1.777c-1.481-0.317-1.408,0.673-0.286,1.113c2.241,0.878,2.797-0.265,4.163-0.279 c1.442,0.016,2.255,0.956,4.107,0.218C29.454,31.248,29.294,30.594,27.734,30.722z"/><path fill="#e9ecef" d="M27.732,30.731c-1.376,0.113-2.648-1.225-3.216-1.679c-0.46-0.368-0.945-0.345-1.326,0 c-0.54,0.488-1.915,2.053-3.266,1.77c-1.465-0.312-1.388,0.663-0.282,1.097c2.221,0.867,2.792-0.264,4.156-0.294 c1.439,0.032,2.265,0.963,4.102,0.233C29.43,31.248,29.274,30.604,27.732,30.731z"/><path fill="#e8ecee" d="M27.729,30.739c-1.376,0.113-2.652-1.22-3.221-1.673c-0.455-0.364-0.936-0.342-1.313,0 c-0.54,0.487-1.919,2.046-3.269,1.763c-1.449-0.304-1.368,0.654-0.278,1.081c2.2,0.855,2.787-0.263,4.149-0.308 c1.436,0.047,2.275,0.969,4.097,0.248C29.405,31.249,29.254,30.614,27.729,30.739z"/><path fill="#e7ebed" d="M27.726,30.748c-1.376,0.112-2.656-1.215-3.225-1.668c-0.45-0.36-0.926-0.338-1.299,0 c-0.541,0.486-1.922,2.037-3.273,1.756c-1.432-0.298-1.349,0.644-0.274,1.065c2.18,0.844,2.783-0.262,4.142-0.322 c1.432,0.062,2.285,0.976,4.091,0.264C29.381,31.25,29.234,30.624,27.726,30.748z"/><path fill="#e6eaec" d="M27.723,30.756c-1.376,0.112-2.66-1.209-3.229-1.662c-0.445-0.356-0.916-0.333-1.286,0 c-0.541,0.486-1.925,2.028-3.276,1.749c-1.416-0.292-1.33,0.637-0.27,1.049c2.157,0.838,2.778-0.261,4.135-0.336 c1.429,0.077,2.295,0.982,4.086,0.279C29.357,31.25,29.214,30.634,27.723,30.756z"/><path fill="#e5e9ec" d="M27.72,30.764c-1.376,0.112-2.664-1.204-3.234-1.656c-0.44-0.351-0.906-0.329-1.272,0 c-0.541,0.486-1.929,2.018-3.28,1.742c-1.399-0.287-1.31,0.628-0.266,1.032c2.136,0.827,2.773-0.259,4.129-0.35 c1.426,0.093,2.304,0.989,4.08,0.294C29.332,31.251,29.194,30.644,27.72,30.764z"/><path fill="#e4e8eb" d="M27.717,30.773c-1.376,0.112-2.668-1.199-3.238-1.651c-0.435-0.347-0.896-0.325-1.259,0 c-0.542,0.485-1.932,2.009-3.283,1.734c-1.383-0.281-1.291,0.619-0.262,1.016c2.115,0.817,2.769-0.258,4.122-0.364 c1.422,0.108,2.316,1,4.075,0.31C29.309,31.255,29.174,30.654,27.717,30.773z"/><path fill="#e3e8ea" d="M27.715,30.781c-1.376,0.112-2.672-1.193-3.242-1.645c-0.43-0.343-0.886-0.321-1.245,0 c-0.542,0.484-1.935,2-3.287,1.727c-1.366-0.275-1.271,0.61-0.258,1c2.094,0.807,2.764-0.257,4.115-0.378 c1.419,0.123,2.326,1.007,4.069,0.325C29.285,31.256,29.154,30.664,27.715,30.781z"/><path fill="#e2e7ea" d="M27.712,30.79c-1.376,0.112-2.676-1.188-3.246-1.639c-0.425-0.339-0.876-0.317-1.232,0 c-0.543,0.484-1.938,1.99-3.29,1.72c-1.35-0.27-1.252,0.601-0.254,0.984c2.073,0.796,2.759-0.256,4.108-0.392 c1.415,0.138,2.336,1.014,4.064,0.34C29.261,31.257,29.134,30.674,27.712,30.79z"/><path fill="#e1e6e9" d="M27.709,30.798c-1.376,0.112-2.68-1.183-3.251-1.634c-0.42-0.335-0.867-0.313-1.219,0 c-0.543,0.483-1.942,1.981-3.294,1.713c-1.333-0.264-1.232,0.591-0.25,0.968c2.052,0.786,2.755-0.255,4.101-0.406 c1.412,0.154,2.346,1.021,4.059,0.356C29.237,31.258,29.114,30.683,27.709,30.798z"/><path fill="#e0e5e8" d="M27.706,30.807c-1.376,0.111-2.685-1.176-3.255-1.628c-0.416-0.33-0.857-0.309-1.205,0 c-0.544,0.482-1.945,1.972-3.297,1.706c-1.317-0.259-1.213,0.582-0.246,0.951c2.031,0.776,2.75-0.254,4.094-0.42 c1.409,0.169,2.356,1.028,4.053,0.371C29.213,31.259,29.094,30.693,27.706,30.807z"/><path fill="#dfe4e7" d="M27.703,30.815c-1.376,0.111-2.689-1.171-3.259-1.622c-0.411-0.325-0.847-0.305-1.192,0 c-0.544,0.482-1.948,1.962-3.301,1.699c-1.3-0.253-1.193,0.573-0.242,0.935c2.01,0.765,2.745-0.252,4.088-0.434 c1.405,0.184,2.366,1.035,4.048,0.386C29.189,31.261,29.074,30.703,27.703,30.815z"/><path fill="#dee3e7" d="M27.701,30.824c-1.376,0.111-2.693-1.165-3.264-1.617c-0.406-0.321-0.837-0.301-1.178,0 c-0.545,0.481-1.951,1.953-3.304,1.692c-1.284-0.248-1.174,0.564-0.238,0.919c1.989,0.755,2.741-0.251,4.081-0.448 c1.402,0.199,2.375,1.042,4.042,0.401C29.164,31.262,29.054,30.713,27.701,30.824z"/><path fill="#dde3e6" d="M27.698,30.832c-1.376,0.111-2.697-1.16-3.268-1.611c-0.401-0.317-0.827-0.297-1.165,0 c-0.545,0.481-1.954,1.943-3.308,1.685c-1.267-0.242-1.154,0.555-0.234,0.903c1.968,0.745,2.736-0.25,4.074-0.462 c1.399,0.215,2.385,1.049,4.037,0.417C29.14,31.263,29.034,30.723,27.698,30.832z"/><path fill="#dce2e5" d="M27.695,30.841c-1.376,0.111-2.702-1.154-3.272-1.605c-0.396-0.313-0.818-0.294-1.151,0 c-0.546,0.48-1.958,1.934-3.311,1.677c-1.25-0.237-1.134,0.546-0.23,0.887c1.947,0.734,2.731-0.249,4.067-0.476 c1.395,0.23,2.395,1.056,4.031,0.432C29.116,31.264,29.014,30.733,27.695,30.841z"/><path fill="#dbe1e4" d="M27.692,30.849c-1.376,0.111-2.706-1.149-3.276-1.6c-0.391-0.309-0.808-0.29-1.138,0 c-0.546,0.479-1.961,1.924-3.315,1.67c-1.234-0.232-1.115,0.536-0.226,0.871c1.926,0.724,2.727-0.248,4.06-0.49 c1.392,0.245,2.405,1.064,4.026,0.447C29.092,31.265,28.994,30.743,27.692,30.849z"/><path fill="#dae0e4" d="M27.689,30.858c-1.376,0.111-2.71-1.144-3.281-1.594c-0.386-0.304-0.798-0.286-1.125,0 c-0.547,0.479-1.964,1.915-3.318,1.663c-1.217-0.226-1.095,0.527-0.222,0.854c1.905,0.713,2.722-0.247,4.054-0.504 c1.388,0.26,2.415,1.071,4.02,0.463C29.068,31.266,28.974,30.753,27.689,30.858z"/><path fill="#d9dfe3" d="M27.686,30.866c-1.376,0.11-2.714-1.138-3.285-1.588c-0.381-0.3-0.788-0.282-1.111,0 c-0.547,0.478-1.967,1.906-3.322,1.656c-1.201-0.221-1.076,0.518-0.218,0.838c1.884,0.703,2.717-0.245,4.047-0.519 c1.385,0.276,2.425,1.078,4.015,0.478C29.043,31.267,28.954,30.763,27.686,30.866z"/><path fill="#d8dfe2" d="M27.684,30.874c-1.376,0.11-2.718-1.133-3.289-1.583c-0.376-0.296-0.779-0.278-1.098,0 c-0.548,0.477-1.97,1.896-3.325,1.649c-1.184-0.216-1.056,0.509-0.214,0.822c1.863,0.693,2.713-0.244,4.04-0.533 c1.382,0.291,2.435,1.085,4.01,0.493C29.019,31.268,28.934,30.773,27.684,30.874z"/><path fill="#d7dee2" d="M27.681,30.883c-1.376,0.11-2.722-1.127-3.293-1.577c-0.371-0.292-0.769-0.274-1.084,0 c-0.548,0.477-1.973,1.886-3.329,1.642c-1.167-0.211-1.037,0.5-0.21,0.806c1.842,0.682,2.708-0.243,4.033-0.547 c1.378,0.306,2.445,1.092,4.004,0.508C28.995,31.269,28.914,30.783,27.681,30.883z"/><path fill="#d6dde1" d="M27.678,30.891c-1.376,0.11-2.726-1.122-3.298-1.571c-0.366-0.288-0.759-0.27-1.071,0 c-0.549,0.476-1.977,1.877-3.332,1.635c-1.151-0.206-1.017,0.49-0.206,0.79c1.821,0.672,2.703-0.242,4.026-0.561 c1.375,0.321,2.455,1.099,3.999,0.524C28.971,31.27,28.894,30.793,27.678,30.891z"/><path fill="#d5dce0" d="M27.675,30.9c-1.376,0.11-2.73-1.116-3.302-1.566c-0.361-0.283-0.749-0.266-1.057,0 c-0.549,0.475-1.98,1.867-3.336,1.628c-1.134-0.201-0.997,0.481-0.202,0.773c1.8,0.661,2.699-0.241,4.02-0.575 c1.371,0.337,2.465,1.106,3.993,0.539C28.946,31.271,28.874,30.802,27.675,30.9z"/><path fill="#d4dbdf" d="M27.672,30.908c-1.376,0.11-2.734-1.111-3.306-1.56c-0.355-0.279-0.74-0.262-1.044,0 c-0.55,0.475-1.983,1.858-3.339,1.62c-1.117-0.196-0.978,0.472-0.198,0.757c1.78,0.651,2.694-0.24,4.013-0.589 c1.368,0.352,2.475,1.113,3.988,0.554C28.922,31.272,28.854,30.812,27.672,30.908z"/><path fill="#d3dbdf" d="M27.669,30.917c-1.376,0.11-2.738-1.106-3.311-1.555c-0.35-0.275-0.73-0.259-1.03,0 c-0.551,0.474-1.986,1.848-3.342,1.613c-1.101-0.191-0.958,0.463-0.194,0.741c1.759,0.641,2.689-0.238,4.006-0.603 c1.365,0.367,2.485,1.12,3.982,0.57C28.898,31.273,28.834,30.822,27.669,30.917z"/><path fill="#d2dade" d="M27.667,30.925c-1.376,0.109-2.743-1.1-3.315-1.549c-0.345-0.271-0.72-0.255-1.017,0 c-0.551,0.473-1.989,1.838-3.346,1.606c-1.084-0.186-0.938,0.453-0.19,0.725c1.738,0.63,2.685-0.237,3.999-0.617 c1.361,0.382,2.495,1.127,3.977,0.585C28.874,31.274,28.814,30.832,27.667,30.925z"/><path fill="#d1d9dd" d="M27.664,30.934c-1.376,0.109-2.747-1.095-3.319-1.543c-0.34-0.267-0.711-0.251-1.004,0 c-0.552,0.472-1.992,1.829-3.349,1.599c-1.067-0.181-0.919,0.444-0.186,0.709c1.717,0.62,2.68-0.236,3.992-0.631 c1.358,0.398,2.505,1.134,3.971,0.6C28.849,31.275,28.794,30.842,27.664,30.934z"/><path fill="#d0d8dd" d="M27.661,30.942c-1.376,0.109-2.751-1.089-3.323-1.538c-0.335-0.262-0.701-0.247-0.99,0 c-0.552,0.472-1.995,1.819-3.353,1.592c-1.051-0.176-0.899,0.435-0.182,0.693c1.696,0.609,2.675-0.235,3.985-0.645 c1.355,0.413,2.514,1.141,3.966,0.615C28.825,31.275,28.774,30.852,27.661,30.942z"/><path fill="#cfd7dc" d="M27.658,30.951c-1.376,0.109-2.755-1.084-3.328-1.532c-0.33-0.258-0.691-0.243-0.977,0 c-0.553,0.471-1.998,1.809-3.356,1.585c-1.034-0.171-0.88,0.425-0.178,0.676c1.675,0.599,2.671-0.234,3.979-0.659 c1.351,0.428,2.524,1.148,3.961,0.631C28.801,31.276,28.754,30.862,27.658,30.951z"/><path fill="#ced6db" d="M27.655,30.959c-1.376,0.109-2.759-1.079-3.332-1.526c-0.325-0.254-0.682-0.239-0.963,0 c-0.554,0.47-2.001,1.8-3.36,1.578c-1.017-0.166-0.86,0.416-0.174,0.66c1.654,0.588,2.666-0.233,3.972-0.673 c1.348,0.443,2.534,1.155,3.955,0.646C28.777,31.277,28.734,30.872,27.655,30.959z"/><path fill="#cdd6da" d="M27.652,30.968c-1.376,0.109-2.763-1.073-3.336-1.521c-0.32-0.25-0.672-0.236-0.95,0 c-0.554,0.47-2.005,1.79-3.363,1.571c-1-0.161-0.84,0.407-0.17,0.644c1.633,0.578,2.661-0.231,3.965-0.687 c1.344,0.459,2.544,1.162,3.95,0.661C28.752,31.278,28.714,30.882,27.652,30.968z"/><path fill="#ccd5da" d="M27.65,30.976c-1.376,0.109-2.767-1.068-3.341-1.515c-0.315-0.246-0.662-0.232-0.936,0 c-0.555,0.469-2.008,1.78-3.367,1.563c-0.984-0.157-0.821,0.397-0.166,0.628c1.612,0.567,2.657-0.23,3.958-0.701 c1.341,0.474,2.554,1.169,3.944,0.677C28.728,31.279,28.694,30.892,27.65,30.976z"/><path fill="#ccd4d9" d="M27.647,30.984c-1.376,0.108-2.771-1.063-3.345-1.509c-0.31-0.241-0.652-0.228-0.923,0 c-0.556,0.468-2.011,1.77-3.37,1.556c-0.967-0.152-0.801,0.388-0.162,0.612c1.592,0.557,2.652-0.229,3.951-0.715 c1.338,0.489,2.564,1.176,3.939,0.692C28.704,31.28,28.675,30.902,27.647,30.984z"/><path fill="#cbd3d8" d="M27.644,30.993c-1.376,0.108-2.775-1.057-3.349-1.504c-0.305-0.237-0.643-0.224-0.91,0 c-0.556,0.467-2.014,1.76-3.374,1.549c-0.95-0.147-0.781,0.379-0.157,0.595c1.571,0.546,2.647-0.228,3.945-0.729 c1.334,0.504,2.574,1.182,3.933,0.707C28.679,31.28,28.655,30.912,27.644,30.993z"/><path fill="#cad2d8" d="M27.641,31.001c-1.376,0.108-2.779-1.052-3.353-1.498c-0.3-0.233-0.633-0.22-0.896,0 c-0.557,0.467-2.017,1.75-3.377,1.542c-0.934-0.143-0.762,0.369-0.153,0.579c1.55,0.536,2.643-0.227,3.938-0.744 c1.331,0.52,2.583,1.189,3.928,0.722C28.655,31.281,28.635,30.921,27.641,31.001z"/><path fill="#c9d2d7" d="M27.638,31.01c-1.376,0.108-2.783-1.046-3.358-1.492c-0.295-0.229-0.623-0.217-0.883,0 c-0.557,0.466-2.02,1.74-3.381,1.535c-0.917-0.138-0.742,0.36-0.149,0.563c1.529,0.525,2.638-0.226,3.931-0.758 c1.328,0.535,2.593,1.196,3.922,0.738C28.631,31.282,28.615,30.931,27.638,31.01z"/><path fill="#c8d1d6" d="M27.636,31.018c-1.376,0.108-2.787-1.041-3.362-1.487c-0.29-0.225-0.614-0.213-0.869,0 c-0.558,0.465-2.023,1.73-3.384,1.528c-0.9-0.134-0.722,0.35-0.145,0.547c1.508,0.514,2.633-0.224,3.924-0.772 c1.324,0.55,2.603,1.203,3.917,0.753C28.606,31.283,28.595,30.941,27.636,31.018z"/><path fill="#c7d0d5" d="M27.633,31.027c-1.376,0.108-2.791-1.036-3.366-1.481c-0.285-0.221-0.604-0.209-0.856,0 c-0.559,0.464-2.026,1.72-3.388,1.521c-0.883-0.129-0.703,0.341-0.141,0.531c1.488,0.504,2.629-0.223,3.917-0.786 c1.321,0.565,2.613,1.21,3.912,0.768C28.582,31.283,28.575,30.951,27.633,31.027z"/><path fill="#c6cfd5" d="M27.63,31.035c-1.376,0.108-2.795-1.03-3.371-1.475c-0.28-0.216-0.595-0.205-0.842,0 c-0.56,0.463-2.029,1.71-3.391,1.514c-0.866-0.125-0.683,0.331-0.137,0.515c1.467,0.493,2.624-0.222,3.91-0.8 c1.317,0.581,2.623,1.217,3.906,0.784C28.558,31.284,28.555,30.961,27.63,31.035z"/><path fill="#c5ced4" d="M27.627,31.044c-1.376,0.108-2.799-1.025-3.375-1.47c-0.275-0.212-0.585-0.201-0.829,0 c-0.56,0.462-2.032,1.7-3.395,1.506c-0.85-0.12-0.663,0.322-0.133,0.498c1.446,0.482,2.619-0.221,3.904-0.814 c1.314,0.596,2.632,1.223,3.901,0.799C28.533,31.285,28.535,30.971,27.627,31.044z"/><path fill="#c4ced3" d="M27.624,31.052c-1.376,0.107-2.803-1.02-3.379-1.464c-0.27-0.208-0.575-0.198-0.815,0 c-0.561,0.462-2.035,1.689-3.398,1.499c-0.833-0.116-0.643,0.312-0.129,0.482c1.425,0.472,2.615-0.22,3.897-0.828 c1.311,0.611,2.642,1.23,3.895,0.814C28.509,31.285,28.515,30.981,27.624,31.052z"/><path fill="#c3cdd3" d="M27.621,31.061c-1.376,0.107-2.807-1.014-3.383-1.458c-0.265-0.204-0.566-0.194-0.802,0 c-0.562,0.461-2.038,1.679-3.402,1.492c-0.816-0.112-0.624,0.303-0.125,0.466c1.405,0.461,2.61-0.219,3.89-0.842 c1.307,0.626,2.652,1.237,3.89,0.829C28.484,31.286,28.495,30.991,27.621,31.061z"/><path fill="#c2ccd2" d="M27.619,31.069c-1.376,0.107-2.812-1.009-3.388-1.453c-0.259-0.2-0.556-0.19-0.789,0 c-0.562,0.46-2.041,1.669-3.405,1.485c-0.799-0.108-0.604,0.293-0.121,0.45c1.384,0.45,2.605-0.217,3.883-0.856 c1.304,0.642,2.662,1.243,3.884,0.845C28.46,31.287,28.475,31.001,27.619,31.069z"/><path fill="#c1cbd1" d="M27.616,31.077c-1.376,0.107-2.816-1.004-3.392-1.447c-0.254-0.196-0.546-0.186-0.775,0 c-0.563,0.459-2.044,1.658-3.409,1.478c-0.782-0.103-0.584,0.283-0.117,0.434c1.363,0.439,2.601-0.216,3.876-0.87 c1.301,0.657,2.671,1.25,3.879,0.86C28.436,31.287,28.455,31.011,27.616,31.077z"/><path fill="#c0cad0" d="M27.613,31.086c-1.376,0.107-2.82-0.998-3.396-1.441c-0.249-0.192-0.537-0.183-0.762,0 c-0.564,0.458-2.047,1.648-3.412,1.471c-0.766-0.099-0.564,0.274-0.113,0.417c1.343,0.428,2.596-0.215,3.87-0.884 c1.297,0.672,2.681,1.257,3.874,0.875C28.411,31.288,28.435,31.021,27.613,31.086z"/><path fill="#bfc9d0" d="M27.61,31.094c-1.376,0.107-2.824-0.993-3.401-1.436c-0.244-0.187-0.527-0.179-0.748,0 c-0.565,0.457-2.05,1.637-3.416,1.464c-0.749-0.095-0.545,0.264-0.109,0.401c1.322,0.417,2.591-0.214,3.863-0.898 c1.294,0.687,2.691,1.263,3.868,0.891C28.387,31.288,28.415,31.031,27.61,31.094z"/><path fill="#bec9cf" d="M27.607,31.103c-1.376,0.107-2.828-0.988-3.405-1.43c-0.239-0.183-0.518-0.175-0.735,0 c-0.566,0.456-2.052,1.626-3.419,1.457c-0.732-0.091-0.525,0.254-0.105,0.385c1.302,0.406,2.587-0.213,3.856-0.912 c1.29,0.703,2.7,1.27,3.863,0.906C28.362,31.289,28.395,31.04,27.607,31.103z"/><path fill="#bdc8ce" d="M27.604,31.111c-1.376,0.106-2.832-0.983-3.409-1.425c-0.234-0.179-0.508-0.171-0.721,0 c-0.566,0.455-2.055,1.616-3.423,1.449c-0.715-0.087-0.505,0.244-0.101,0.369c1.281,0.395,2.582-0.211,3.849-0.926 c1.287,0.718,2.71,1.276,3.857,0.921C28.338,31.289,28.375,31.05,27.604,31.111z"/><path fill="#bcc7ce" d="M27.602,31.12c-1.376,0.106-2.836-0.977-3.413-1.419c-0.229-0.175-0.498-0.168-0.708,0 c-0.567,0.454-2.058,1.605-3.426,1.442c-0.698-0.083-0.485,0.235-0.097,0.353c1.261,0.384,2.577-0.21,3.842-0.94 c1.284,0.733,2.72,1.282,3.852,0.936C28.314,31.29,28.355,31.06,27.602,31.12z"/><path fill="#bbc6cd" d="M27.599,31.128c-1.376,0.106-2.84-0.972-3.418-1.413c-0.224-0.171-0.489-0.164-0.695,0 c-0.568,0.453-2.061,1.594-3.43,1.435c-0.681-0.079-0.465,0.225-0.093,0.337c1.24,0.373,2.573-0.209,3.836-0.954 c1.28,0.749,2.729,1.289,3.846,0.952C28.289,31.29,28.335,31.07,27.599,31.128z"/><path fill="#bac5cc" d="M27.596,31.137c-1.376,0.106-2.844-0.967-3.422-1.408c-0.219-0.167-0.479-0.16-0.681,0 c-0.569,0.452-2.064,1.583-3.433,1.428c-0.665-0.075-0.445,0.215-0.089,0.32c1.22,0.361,2.568-0.208,3.829-0.969 c1.277,0.764,2.739,1.295,3.841,0.967C28.265,31.29,28.315,31.08,27.596,31.137z"/><path fill="#b9c5cb" d="M27.593,31.145c-1.376,0.106-2.848-0.961-3.426-1.402c-0.214-0.163-0.47-0.157-0.668,0 c-0.57,0.451-2.067,1.571-3.437,1.421c-0.648-0.071-0.426,0.205-0.085,0.304c1.199,0.35,2.563-0.207,3.822-0.983 c1.273,0.779,2.749,1.301,3.835,0.982C28.24,31.291,28.295,31.09,27.593,31.145z"/><path fill="#b8c4cb" d="M27.59,31.154c-1.376,0.106-2.851-0.956-3.431-1.396c-0.209-0.159-0.46-0.153-0.654,0 c-0.571,0.45-2.07,1.56-3.44,1.414c-0.631-0.067-0.406,0.195-0.081,0.288c1.179,0.338,2.559-0.206,3.815-0.997 c1.27,0.794,2.758,1.307,3.83,0.998C28.216,31.291,28.275,31.1,27.59,31.154z"/><path fill="#b7c3ca" d="M27.587,31.162c-1.376,0.106-2.855-0.951-3.435-1.391c-0.204-0.154-0.451-0.149-0.641,0 c-0.572,0.449-2.073,1.548-3.444,1.407c-0.614-0.063-0.386,0.185-0.077,0.272c1.159,0.326,2.554-0.204,3.808-1.011 c1.267,0.81,2.768,1.313,3.825,1.013C28.191,31.291,28.255,31.11,27.587,31.162z"/><path fill="#b6c2c9" d="M27.585,31.171c-1.376,0.105-2.859-0.946-3.439-1.385c-0.198-0.15-0.441-0.146-0.627,0 c-0.573,0.448-2.076,1.537-3.447,1.4c-0.597-0.06-0.366,0.175-0.073,0.256c1.138,0.314,2.549-0.203,3.801-1.025 c1.263,0.825,2.777,1.319,3.819,1.028C28.167,31.291,28.235,31.12,27.585,31.171z"/><path fill="#b5c1c8" d="M27.582,31.179c-1.376,0.105-2.863-0.941-3.443-1.379c-0.193-0.146-0.432-0.142-0.614,0 c-0.574,0.446-2.078,1.525-3.451,1.393c-0.58-0.056-0.346,0.165-0.069,0.24c1.118,0.302,2.545-0.202,3.795-1.039 c1.26,0.84,2.787,1.325,3.814,1.043C28.142,31.291,28.215,31.13,27.582,31.179z"/><path fill="#b4c1c8" d="M27.579,31.187c-1.376,0.105-2.867-0.935-3.448-1.374c-0.188-0.142-0.422-0.138-0.601,0 c-0.575,0.445-2.081,1.513-3.454,1.385c-0.563-0.052-0.326,0.155-0.065,0.223c1.098,0.289,2.54-0.201,3.788-1.053 c1.257,0.855,2.796,1.331,3.808,1.059C28.117,31.291,28.195,31.14,27.579,31.187z"/><path fill="#b3c0c7" d="M27.576,31.196c-1.376,0.105-2.871-0.93-3.452-1.368c-0.183-0.138-0.412-0.135-0.587,0 c-0.576,0.444-2.084,1.501-3.458,1.378c-0.547-0.049-0.306,0.144-0.061,0.207c1.078,0.276,2.535-0.2,3.781-1.067 c1.253,0.871,2.806,1.336,3.803,1.074C28.093,31.291,28.175,31.15,27.576,31.196z"/><path fill="#b2bfc6" d="M27.573,31.204c-1.376,0.105-2.875-0.925-3.456-1.362c-0.178-0.134-0.403-0.131-0.574,0 c-0.577,0.443-2.087,1.488-3.461,1.371c-0.53-0.045-0.286,0.134-0.057,0.191c1.058,0.263,2.531-0.199,3.774-1.081 c1.25,0.886,2.815,1.342,3.797,1.089C28.068,31.291,28.155,31.159,27.573,31.204z"/><path fill="#b1bec6" d="M27.571,31.213c-1.376,0.105-2.879-0.92-3.461-1.357c-0.173-0.13-0.393-0.127-0.56,0 c-0.578,0.441-2.09,1.475-3.465,1.364c-0.513-0.042-0.266,0.124-0.053,0.175c1.038,0.249,2.526-0.197,3.767-1.095 c1.246,0.901,2.824,1.347,3.792,1.105C28.044,31.291,28.135,31.169,27.571,31.213z"/><path fill="#b0bdc5" d="M27.568,31.221c-1.376,0.105-2.883-0.915-3.465-1.351c-0.168-0.126-0.384-0.124-0.547,0 c-0.579,0.44-2.092,1.462-3.468,1.357c-0.496-0.038-0.246,0.113-0.049,0.159c1.018,0.235,2.521-0.196,3.761-1.109 c1.243,0.916,2.834,1.352,3.786,1.12C28.019,31.291,28.115,31.179,27.568,31.221z"/><path fill="#afbcc4" d="M27.565,31.23c-1.376,0.104-2.886-0.911-3.469-1.345c-0.162-0.122-0.374-0.12-0.533,0 c-0.58,0.438-2.095,1.449-3.471,1.35c-0.479-0.035-0.226,0.103-0.045,0.142c0.999,0.22,2.517-0.195,3.754-1.123 c1.24,0.932,2.843,1.357,3.781,1.135C27.995,31.291,28.095,31.189,27.565,31.23z"/><path fill="#aebcc3" d="M27.562,31.238c-1.376,0.104-2.89-0.906-3.473-1.34c-0.157-0.118-0.365-0.117-0.52,0 c-0.581,0.437-2.098,1.435-3.475,1.343c-0.462-0.031-0.206,0.092-0.041,0.126c0.979,0.203,2.512-0.194,3.747-1.137 c1.236,0.947,2.852,1.361,3.776,1.15C27.97,31.291,28.075,31.199,27.562,31.238z"/><path fill="#adbbc3" d="M27.559,31.247c-1.376,0.104-2.894-0.9-3.478-1.334c-0.152-0.114-0.355-0.113-0.506,0 c-0.583,0.434-2.101,1.421-3.478,1.336c-0.446-0.028-0.186,0.081-0.037,0.11c0.96,0.186,2.507-0.193,3.74-1.151 c1.233,0.962,2.861,1.365,3.77,1.166C27.945,31.29,28.055,31.209,27.559,31.247z"/><path fill="#acbac2" d="M27.556,31.255c-1.376,0.104-2.898-0.895-3.482-1.328c-0.147-0.109-0.346-0.109-0.493,0 c-0.584,0.434-2.104,1.407-3.482,1.328c-0.429-0.024-0.166,0.07-0.033,0.094c0.941,0.166,2.503-0.192,3.733-1.165 c1.23,0.977,2.871,1.369,3.765,1.181C27.921,31.29,28.035,31.219,27.556,31.255z"/></g></svg>