<svg xmlns="http://www.w3.org/2000/svg" viewBox="0 0 48 48"><linearGradient id="5l6ciYARZuDHFb2RC9VZfa" x1="12.417" x2="35.912" y1="25.531" y2="25.531" gradientUnits="userSpaceOnUse"><stop offset=".024" stop-color="#cc1d1f"/><stop offset=".321" stop-color="#f06666"/><stop offset=".631" stop-color="#e51e25"/><stop offset=".803" stop-color="#d63838"/><stop offset=".981" stop-color="#9a1f18"/></linearGradient><path fill="url(#5l6ciYARZuDHFb2RC9VZfa)" d="M37,40c-8.75,4.083-17.417,4.083-26,0V8h26V40z"/><path fill="#d1d1d1" d="M24,42.277c-6.394,0-11.734-1.437-13.093-3.359c-0.219,0.309-0.344,0.629-0.344,0.96 c0,2.385,6.016,4.319,13.438,4.319s13.438-1.934,13.438-4.319c0-0.33-0.126-0.651-0.344-0.96C35.734,40.84,30.394,42.277,24,42.277 z"/><path fill="#d0d0d0" d="M24,42.29c-6.401,0-11.745-1.44-13.097-3.366c-0.216,0.307-0.341,0.625-0.341,0.953 c0,2.385,6.016,4.319,13.438,4.319s13.438-1.934,13.438-4.319c0-0.328-0.125-0.646-0.341-0.953C35.745,40.85,30.401,42.29,24,42.29 z"/><path fill="#cfcfcf" d="M24,42.303c-6.408,0-11.757-1.443-13.1-3.372c-0.214,0.305-0.337,0.621-0.337,0.947 c0,2.385,6.016,4.319,13.438,4.319s13.438-1.934,13.438-4.319c0-0.326-0.123-0.642-0.337-0.947 C35.757,40.86,30.408,42.303,24,42.303z"/><path fill="#cecfce" d="M24,42.316c-6.415,0-11.769-1.446-13.103-3.379c-0.212,0.303-0.334,0.617-0.334,0.94 c0,2.385,6.016,4.319,13.438,4.319s13.438-1.934,13.438-4.319c0-0.324-0.122-0.637-0.334-0.94 C35.769,40.869,30.415,42.316,24,42.316z"/><path fill="#cdcece" d="M24,42.329c-6.422,0-11.781-1.45-13.107-3.385c-0.21,0.301-0.331,0.613-0.331,0.934 c0,2.385,6.016,4.319,13.438,4.319s13.438-1.934,13.438-4.319c0-0.321-0.121-0.633-0.331-0.934 C35.781,40.879,30.422,42.329,24,42.329z"/><path fill="#cccdcd" d="M24,42.342c-6.429,0-11.792-1.453-13.11-3.392c-0.207,0.299-0.327,0.608-0.327,0.927 c0,2.385,6.016,4.319,13.438,4.319s13.438-1.934,13.438-4.319c0-0.319-0.12-0.629-0.327-0.927 C35.792,40.889,30.429,42.342,24,42.342z"/><path fill="#cbcccc" d="M24,42.354c-6.436,0-11.804-1.456-13.114-3.398c-0.205,0.297-0.324,0.604-0.324,0.921 c0,2.385,6.016,4.319,13.438,4.319s13.438-1.934,13.438-4.319c0-0.317-0.118-0.624-0.324-0.921 C35.804,40.898,30.436,42.354,24,42.354z"/><path fill="#cacccb" d="M24,42.367c-6.443,0-11.816-1.46-13.117-3.405c-0.203,0.295-0.32,0.6-0.32,0.915 c0,2.385,6.016,4.319,13.438,4.319s13.438-1.934,13.438-4.319c0-0.314-0.117-0.62-0.32-0.915 C35.816,40.908,30.443,42.367,24,42.367z"/><path fill="#c9cbca" d="M24,42.38c-6.45,0-11.828-1.463-13.121-3.411c-0.201,0.293-0.317,0.596-0.317,0.908 c0,2.385,6.016,4.319,13.438,4.319s13.438-1.934,13.438-4.319c0-0.312-0.116-0.615-0.317-0.908C35.828,40.918,30.45,42.38,24,42.38 z"/><path fill="#c8cac9" d="M24,42.393c-6.457,0-11.84-1.466-13.124-3.418c-0.199,0.291-0.313,0.592-0.313,0.902 c0,2.385,6.016,4.319,13.438,4.319s13.438-1.934,13.438-4.319c0-0.31-0.114-0.611-0.313-0.902 C35.84,40.927,30.457,42.393,24,42.393z"/><path fill="#c7c9c9" d="M24,42.406c-6.464,0-11.851-1.469-13.128-3.424c-0.196,0.289-0.31,0.587-0.31,0.895 c0,2.385,6.016,4.319,13.438,4.319s13.438-1.934,13.438-4.319c0-0.308-0.113-0.606-0.31-0.895 C35.851,40.937,30.464,42.406,24,42.406z"/><path fill="#c6c8c8" d="M24,42.419c-6.471,0-11.863-1.473-13.131-3.431c-0.194,0.287-0.306,0.583-0.306,0.889 c0,2.385,6.016,4.319,13.438,4.319s13.438-1.934,13.438-4.319c0-0.305-0.112-0.602-0.306-0.889 C35.863,40.947,30.471,42.419,24,42.419z"/><path fill="#c5c8c7" d="M24,42.432c-6.478,0-11.875-1.476-13.135-3.437c-0.192,0.285-0.303,0.579-0.303,0.882 c0,2.385,6.016,4.319,13.438,4.319s13.438-1.934,13.438-4.319c0-0.303-0.111-0.598-0.303-0.882 C35.875,40.956,30.478,42.432,24,42.432z"/><path fill="#c4c7c6" d="M24,42.445c-6.485,0-11.887-1.479-13.138-3.444c-0.19,0.283-0.299,0.575-0.299,0.876 c0,2.385,6.016,4.319,13.438,4.319s13.438-1.934,13.438-4.319c0-0.301-0.109-0.593-0.299-0.876 C35.887,40.966,30.485,42.445,24,42.445z"/><path fill="#c3c6c5" d="M24,42.458c-6.492,0-11.898-1.483-13.142-3.45c-0.188,0.28-0.296,0.571-0.296,0.869 c0,2.385,6.016,4.319,13.438,4.319s13.438-1.934,13.438-4.319c0-0.299-0.108-0.589-0.296-0.869 C35.898,40.976,30.492,42.458,24,42.458z"/><path fill="#c2c5c4" d="M24,42.471c-6.499,0-11.91-1.486-13.145-3.457c-0.185,0.278-0.292,0.566-0.292,0.863 c0,2.385,6.016,4.319,13.438,4.319s13.438-1.934,13.438-4.319c0-0.296-0.107-0.584-0.292-0.863 C35.91,40.985,30.499,42.471,24,42.471z"/><path fill="#c1c5c3" d="M24,42.484c-6.506,0-11.922-1.489-13.149-3.463c-0.183,0.276-0.289,0.562-0.289,0.856 c0,2.385,6.016,4.319,13.438,4.319s13.438-1.934,13.438-4.319c0-0.294-0.105-0.58-0.289-0.856 C35.922,40.995,30.506,42.484,24,42.484z"/><path fill="#c0c4c3" d="M24,42.497c-6.514,0-11.934-1.492-13.152-3.47c-0.181,0.274-0.285,0.558-0.285,0.85 c0,2.385,6.016,4.319,13.438,4.319s13.438-1.934,13.438-4.319c0-0.292-0.104-0.575-0.285-0.85 C35.934,41.005,30.514,42.497,24,42.497z"/><path fill="#bfc3c2" d="M24,42.51c-6.521,0-11.945-1.496-13.156-3.476c-0.179,0.272-0.282,0.554-0.282,0.843 c0,2.385,6.016,4.319,13.438,4.319s13.438-1.934,13.438-4.319c0-0.29-0.103-0.571-0.282-0.843C35.945,41.014,30.521,42.51,24,42.51 z"/><path fill="#bec2c1" d="M24,42.523c-6.528,0-11.957-1.499-13.159-3.482c-0.177,0.27-0.278,0.55-0.278,0.837 c0,2.385,6.016,4.319,13.438,4.319s13.438-1.934,13.438-4.319c0-0.287-0.102-0.567-0.278-0.837 C35.957,41.024,30.528,42.523,24,42.523z"/><path fill="#bdc2c0" d="M24,42.536c-6.535,0-11.969-1.502-13.163-3.489c-0.174,0.268-0.275,0.545-0.275,0.83 c0,2.385,6.016,4.319,13.438,4.319s13.438-1.934,13.438-4.319c0-0.285-0.1-0.562-0.275-0.83C35.969,41.034,30.535,42.536,24,42.536 z"/><path fill="#bcc1bf" d="M24,42.549c-6.542,0-11.981-1.506-13.166-3.495c-0.172,0.266-0.271,0.541-0.271,0.824 c0,2.385,6.016,4.319,13.438,4.319s13.438-1.934,13.438-4.319c0-0.283-0.099-0.558-0.271-0.824 C35.981,41.043,30.542,42.549,24,42.549z"/><path fill="#bbc0be" d="M24,42.562c-6.549,0-11.992-1.509-13.17-3.502c-0.17,0.264-0.268,0.537-0.268,0.817 c0,2.385,6.016,4.319,13.438,4.319s13.438-1.934,13.438-4.319c0-0.281-0.098-0.553-0.268-0.817 C35.992,41.053,30.549,42.562,24,42.562z"/><path fill="#babfbe" d="M24,42.575c-6.556,0-12.004-1.512-13.173-3.508c-0.168,0.262-0.264,0.533-0.264,0.811 c0,2.385,6.016,4.319,13.438,4.319s13.438-1.934,13.438-4.319c0-0.278-0.097-0.549-0.264-0.811 C36.004,41.063,30.556,42.575,24,42.575z"/><path fill="#b9bebd" d="M24,42.588c-6.563,0-12.016-1.515-13.177-3.515c-0.166,0.26-0.261,0.528-0.261,0.804 c0,2.385,6.016,4.319,13.438,4.319s13.438-1.934,13.438-4.319c0-0.276-0.095-0.544-0.261-0.804 C36.016,41.072,30.563,42.588,24,42.588z"/><path fill="#b8bebc" d="M24,42.601c-6.57,0-12.028-1.519-13.18-3.521c-0.163,0.258-0.257,0.524-0.257,0.798 c0,2.385,6.016,4.319,13.438,4.319s13.438-1.934,13.438-4.319c0-0.274-0.094-0.54-0.257-0.798 C36.028,41.082,30.57,42.601,24,42.601z"/><path fill="#b7bdbb" d="M24,42.614c-6.577,0-12.039-1.522-13.184-3.528c-0.161,0.256-0.254,0.52-0.254,0.792 c0,2.385,6.016,4.319,13.438,4.319s13.438-1.934,13.438-4.319c0-0.271-0.093-0.536-0.254-0.792 C36.039,41.092,30.577,42.614,24,42.614z"/><path fill="#b6bcba" d="M24,42.627c-6.584,0-12.051-1.525-13.187-3.534c-0.159,0.254-0.25,0.516-0.25,0.785 c0,2.385,6.016,4.319,13.438,4.319s13.438-1.934,13.438-4.319c0-0.269-0.091-0.531-0.25-0.785 C36.051,41.101,30.584,42.627,24,42.627z"/><path fill="#b5bbb9" d="M24,42.639c-6.591,0-12.063-1.529-13.191-3.541c-0.157,0.252-0.247,0.512-0.247,0.779 c0,2.385,6.016,4.319,13.438,4.319s13.438-1.934,13.438-4.319c0-0.267-0.09-0.527-0.247-0.779 C36.063,41.111,30.591,42.639,24,42.639z"/><path fill="#b4bbb8" d="M24,42.652c-6.598,0-12.075-1.532-13.194-3.547c-0.155,0.25-0.243,0.507-0.243,0.772 c0,2.385,6.016,4.319,13.438,4.319s13.438-1.934,13.438-4.319c0-0.265-0.089-0.522-0.243-0.772 C36.075,41.121,30.598,42.652,24,42.652z"/><path fill="#b3bab8" d="M24,42.665c-6.605,0-12.087-1.535-13.198-3.554c-0.152,0.248-0.24,0.503-0.24,0.766 c0,2.385,6.016,4.319,13.438,4.319s13.438-1.934,13.438-4.319c0-0.262-0.088-0.518-0.24-0.766 C36.087,41.13,30.605,42.665,24,42.665z"/><path fill="#b2b9b7" d="M24,42.678c-6.612,0-12.098-1.538-13.201-3.56c-0.15,0.246-0.236,0.499-0.236,0.759 c0,2.385,6.016,4.319,13.438,4.319s13.438-1.934,13.438-4.319c0-0.26-0.086-0.513-0.236-0.759 C36.098,41.14,30.612,42.678,24,42.678z"/><path fill="#b1b8b6" d="M24,42.691c-6.619,0-12.11-1.542-13.205-3.567c-0.148,0.244-0.233,0.495-0.233,0.753 c0,2.385,6.016,4.319,13.438,4.319s13.438-1.934,13.438-4.319c0-0.258-0.085-0.509-0.233-0.753 C36.11,41.15,30.619,42.691,24,42.691z"/><path fill="#b0b7b5" d="M24,42.704c-6.626,0-12.122-1.545-13.208-3.573c-0.146,0.242-0.229,0.491-0.229,0.746 c0,2.385,6.016,4.319,13.438,4.319s13.438-1.934,13.438-4.319c0-0.256-0.084-0.505-0.229-0.746 C36.122,41.159,30.626,42.704,24,42.704z"/><path fill="#afb7b4" d="M24,42.717c-6.633,0-12.134-1.548-13.212-3.58c-0.143,0.24-0.226,0.486-0.226,0.74 c0,2.385,6.016,4.319,13.438,4.319s13.438-1.934,13.438-4.319c0-0.253-0.082-0.5-0.226-0.74C36.134,41.169,30.634,42.717,24,42.717 z"/><path fill="#aeb6b3" d="M24,42.73c-6.641,0-12.145-1.552-13.215-3.586c-0.141,0.238-0.222,0.482-0.222,0.733 c0,2.385,6.016,4.319,13.438,4.319s13.438-1.934,13.438-4.319c0-0.251-0.081-0.496-0.222-0.733 C36.145,41.179,30.641,42.73,24,42.73z"/><path fill="#aeb5b3" d="M24,42.743c-6.648,0-12.157-1.555-13.219-3.593c-0.139,0.236-0.219,0.478-0.219,0.727 c0,2.385,6.016,4.319,13.438,4.319s13.438-1.934,13.438-4.319c0-0.249-0.08-0.491-0.219-0.727 C36.157,41.188,30.648,42.743,24,42.743z"/><path fill="#adb4b2" d="M24,42.756c-6.655,0-12.169-1.558-13.222-3.599c-0.137,0.234-0.215,0.474-0.215,0.72 c0,2.385,6.016,4.319,13.438,4.319s13.438-1.934,13.438-4.319c0-0.247-0.079-0.487-0.215-0.72 C36.169,41.198,30.655,42.756,24,42.756z"/><path fill="#acb4b1" d="M24,42.769c-6.662,0-12.181-1.561-13.225-3.606c-0.135,0.231-0.212,0.47-0.212,0.714 c0,2.385,6.016,4.319,13.438,4.319s13.438-1.934,13.438-4.319c0-0.244-0.077-0.482-0.212-0.714 C36.181,41.208,30.662,42.769,24,42.769z"/><path fill="#abb3b0" d="M24,42.782c-6.669,0-12.192-1.565-13.229-3.612c-0.132,0.229-0.209,0.465-0.209,0.707 c0,2.385,6.016,4.319,13.438,4.319s13.438-1.934,13.438-4.319c0-0.242-0.076-0.478-0.209-0.707 C36.192,41.217,30.669,42.782,24,42.782z"/><path fill="#aab2af" d="M24,42.795c-6.676,0-12.204-1.568-13.232-3.619c-0.13,0.227-0.205,0.461-0.205,0.701 c0,2.385,6.016,4.319,13.438,4.319s13.438-1.934,13.438-4.319c0-0.24-0.075-0.474-0.205-0.701 C36.204,41.227,30.676,42.795,24,42.795z"/><path fill="#a9b1ae" d="M24,42.808c-6.683,0-12.216-1.571-13.236-3.625c-0.128,0.225-0.202,0.457-0.202,0.694 c0,2.385,6.016,4.319,13.438,4.319s13.438-1.934,13.438-4.319c0-0.237-0.073-0.469-0.202-0.694 C36.216,41.237,30.683,42.808,24,42.808z"/><path fill="#a8b0ae" d="M24,42.821c-6.69,0-12.228-1.575-13.239-3.632c-0.126,0.223-0.198,0.453-0.198,0.688 c0,2.385,6.016,4.319,13.438,4.319s13.438-1.934,13.438-4.319c0-0.235-0.072-0.465-0.198-0.688 C36.228,41.246,30.69,42.821,24,42.821z"/><path fill="#a7b0ad" d="M24,42.834c-6.697,0-12.239-1.578-13.243-3.638c-0.124,0.221-0.195,0.449-0.195,0.681 c0,2.385,6.016,4.319,13.438,4.319s13.438-1.934,13.438-4.319c0-0.233-0.071-0.46-0.195-0.682 C36.239,41.256,30.697,42.834,24,42.834z"/><path fill="#a6afac" d="M24,42.847c-6.704,0-12.251-1.581-13.246-3.644c-0.121,0.219-0.191,0.444-0.191,0.675 c0,2.385,6.016,4.319,13.438,4.319s13.438-1.934,13.438-4.319c0-0.231-0.07-0.456-0.191-0.675 C36.251,41.266,30.704,42.847,24,42.847z"/><path fill="#a5aeab" d="M24,42.86c-6.711,0-12.263-1.584-13.25-3.651c-0.119,0.217-0.188,0.44-0.188,0.669 c0,2.385,6.016,4.319,13.438,4.319s13.438-1.934,13.438-4.319c0-0.228-0.068-0.451-0.188-0.669 C36.263,41.275,30.711,42.86,24,42.86z"/><path fill="#a4adaa" d="M24,42.873c-6.718,0-12.275-1.588-13.253-3.657c-0.117,0.215-0.184,0.436-0.184,0.662 c0,2.385,6.016,4.319,13.438,4.319s13.438-1.934,13.438-4.319c0-0.226-0.067-0.447-0.184-0.662 C36.275,41.285,30.718,42.873,24,42.873z"/><path fill="#a3ada9" d="M24,42.886c-6.725,0-12.286-1.591-13.257-3.664c-0.115,0.213-0.181,0.432-0.181,0.656 c0,2.385,6.016,4.319,13.438,4.319s13.438-1.934,13.438-4.319c0-0.224-0.066-0.443-0.181-0.656 C36.286,41.295,30.725,42.886,24,42.886z"/><path fill="#a2aca8" d="M24,42.899c-6.732,0-12.298-1.594-13.26-3.67c-0.113,0.211-0.177,0.428-0.177,0.649 c0,2.385,6.016,4.319,13.438,4.319s13.438-1.934,13.438-4.319c0-0.222-0.065-0.438-0.177-0.649 C36.298,41.304,30.732,42.899,24,42.899z"/><path fill="#a1aba8" d="M24,42.911c-6.739,0-12.31-1.598-13.264-3.677c-0.11,0.209-0.174,0.423-0.174,0.643 c0,2.385,6.016,4.319,13.438,4.319s13.438-1.934,13.438-4.319c0-0.219-0.063-0.434-0.174-0.643 C36.31,41.314,30.739,42.911,24,42.911z"/><path fill="#a0aaa7" d="M24,42.924c-6.746,0-12.322-1.601-13.267-3.683c-0.108,0.207-0.17,0.419-0.17,0.636 c0,2.385,6.016,4.319,13.438,4.319s13.438-1.934,13.438-4.319c0-0.217-0.062-0.429-0.17-0.636 C36.322,41.324,30.746,42.924,24,42.924z"/><path fill="#9fa9a6" d="M24,42.937c-6.753,0-12.334-1.604-13.271-3.69c-0.106,0.205-0.167,0.415-0.167,0.63 c0,2.385,6.016,4.319,13.438,4.319s13.438-1.934,13.438-4.319c0-0.215-0.061-0.425-0.167-0.63 C36.334,41.333,30.753,42.937,24,42.937z"/><path fill="#9ea9a5" d="M24,42.95c-6.761,0-12.345-1.607-13.274-3.696c-0.104,0.203-0.163,0.411-0.163,0.623 c0,2.385,6.016,4.319,13.438,4.319s13.438-1.934,13.438-4.319c0-0.213-0.059-0.42-0.163-0.623C36.345,41.343,30.761,42.95,24,42.95 z"/><path fill="#9da8a4" d="M24,42.963c-6.768,0-12.357-1.611-13.278-3.703c-0.102,0.201-0.16,0.406-0.16,0.617 c0,2.385,6.016,4.319,13.438,4.319s13.438-1.934,13.438-4.319c0-0.21-0.058-0.416-0.16-0.617 C36.357,41.353,30.768,42.963,24,42.963z"/><path fill="#9ca7a3" d="M24,42.976c-6.775,0-12.369-1.614-13.281-3.709c-0.099,0.199-0.156,0.402-0.156,0.61 c0,2.385,6.016,4.319,13.438,4.319s13.438-1.934,13.438-4.319c0-0.208-0.057-0.411-0.156-0.61 C36.369,41.362,30.775,42.976,24,42.976z"/><path fill="#9ba6a3" d="M24,42.989c-6.782,0-12.381-1.617-13.285-3.716c-0.097,0.197-0.153,0.398-0.153,0.604 c0,2.385,6.016,4.319,13.438,4.319s13.438-1.934,13.438-4.319c0-0.206-0.056-0.407-0.153-0.604 C36.381,41.372,30.782,42.989,24,42.989z"/><path fill="#9aa6a2" d="M24,43.002c-6.789,0-12.392-1.621-13.288-3.722c-0.095,0.195-0.149,0.394-0.149,0.597 c0,2.385,6.016,4.319,13.438,4.319s13.438-1.934,13.438-4.319c0-0.203-0.054-0.403-0.149-0.597 C36.392,41.382,30.789,43.002,24,43.002z"/><path fill="#99a5a1" d="M24,43.015c-6.796,0-12.404-1.624-13.292-3.729c-0.093,0.193-0.146,0.39-0.146,0.591 c0,2.385,6.016,4.319,13.438,4.319s13.438-1.934,13.438-4.319c0-0.201-0.053-0.398-0.146-0.591 C36.404,41.391,30.796,43.015,24,43.015z"/><path fill="#98a4a0" d="M24,43.028c-6.803,0-12.416-1.627-13.295-3.735c-0.091,0.191-0.142,0.385-0.142,0.584 c0,2.385,6.016,4.319,13.438,4.319s13.438-1.934,13.438-4.319c0-0.199-0.052-0.394-0.142-0.584 C36.416,41.401,30.803,43.028,24,43.028z"/><path fill="#97a39f" d="M24,43.041c-6.81,0-12.428-1.63-13.299-3.742c-0.088,0.189-0.139,0.381-0.139,0.578 c0,2.385,6.016,4.319,13.438,4.319s13.438-1.934,13.438-4.319c0-0.197-0.05-0.389-0.139-0.578 C36.428,41.411,30.81,43.041,24,43.041z"/><path fill="#96a39e" d="M24,43.054c-6.817,0-12.439-1.634-13.302-3.748c-0.086,0.187-0.135,0.377-0.135,0.571 c0,2.385,6.016,4.319,13.438,4.319s13.438-1.934,13.438-4.319c0-0.194-0.049-0.385-0.135-0.571 C36.439,41.42,30.817,43.054,24,43.054z"/><path fill="#95a29d" d="M24,43.067c-6.824,0-12.451-1.637-13.306-3.755c-0.084,0.184-0.132,0.373-0.132,0.565 c0,2.385,6.016,4.319,13.438,4.319s13.438-1.934,13.438-4.319c0-0.192-0.048-0.38-0.132-0.565 C36.451,41.43,30.824,43.067,24,43.067z"/><path fill="#94a19d" d="M24,43.08c-6.831,0-12.463-1.64-13.309-3.761c-0.082,0.182-0.128,0.369-0.128,0.558 c0,2.385,6.016,4.319,13.438,4.319s13.438-1.934,13.438-4.319c0-0.19-0.047-0.376-0.128-0.559C36.463,41.44,30.831,43.08,24,43.08z"/><path fill="#93a09c" d="M24,43.093c-6.838,0-12.475-1.644-13.313-3.768c-0.079,0.18-0.125,0.364-0.125,0.552 c0,2.385,6.016,4.319,13.438,4.319s13.438-1.934,13.438-4.319c0-0.188-0.045-0.372-0.125-0.552 C36.475,41.449,30.838,43.093,24,43.093z"/><path fill="#929f9b" d="M24,43.106c-6.845,0-12.486-1.647-13.316-3.774c-0.077,0.178-0.121,0.36-0.121,0.546 c0,2.385,6.016,4.319,13.438,4.319s13.438-1.934,13.438-4.319c0-0.185-0.044-0.367-0.121-0.546 C36.486,41.459,30.845,43.106,24,43.106z"/><path fill="#919f9a" d="M24,43.119c-6.852,0-12.498-1.65-13.32-3.781c-0.075,0.176-0.118,0.356-0.118,0.539 c0,2.385,6.016,4.319,13.438,4.319s13.438-1.934,13.438-4.319c0-0.183-0.043-0.363-0.118-0.539 C36.498,41.469,30.852,43.119,24,43.119z"/><path fill="#909e99" d="M24,43.132c-6.859,0-12.51-1.653-13.323-3.787c-0.073,0.174-0.114,0.352-0.114,0.533 c0,2.385,6.016,4.319,13.438,4.319s13.438-1.934,13.438-4.319c0-0.181-0.041-0.358-0.114-0.533 C36.51,41.478,30.859,43.132,24,43.132z"/><path fill="#8f9d98" d="M24,43.145c-6.866,0-12.522-1.657-13.327-3.794c-0.071,0.172-0.111,0.348-0.111,0.526 c0,2.385,6.016,4.319,13.438,4.319s13.438-1.934,13.438-4.319c0-0.179-0.04-0.354-0.111-0.526 C36.522,41.488,30.866,43.145,24,43.145z"/><path fill="#8e9c98" d="M24,43.158c-6.873,0-12.533-1.66-13.33-3.8c-0.068,0.17-0.107,0.343-0.107,0.52 c0,2.385,6.016,4.319,13.438,4.319s13.438-1.934,13.438-4.319c0-0.176-0.039-0.349-0.107-0.52 C36.534,41.498,30.873,43.158,24,43.158z"/><path fill="#8d9c97" d="M24,43.171c-6.88,0-12.545-1.663-13.334-3.806c-0.066,0.168-0.104,0.339-0.104,0.513 c0,2.385,6.016,4.319,13.438,4.319s13.438-1.934,13.438-4.319c0-0.174-0.038-0.345-0.104-0.513 C36.545,41.507,30.881,43.171,24,43.171z"/><path fill="#8c9b96" d="M24,43.183c-6.888,0-12.557-1.667-13.337-3.813c-0.064,0.166-0.1,0.335-0.1,0.507 c0,2.385,6.016,4.319,13.438,4.319s13.438-1.934,13.438-4.319c0-0.172-0.036-0.341-0.1-0.507 C36.557,41.517,30.888,43.183,24,43.183z"/><path fill="#8b9a95" d="M24,43.196c-6.895,0-12.569-1.67-13.341-3.819c-0.062,0.164-0.097,0.331-0.097,0.5 c0,2.385,6.016,4.319,13.438,4.319s13.438-1.934,13.438-4.319c0-0.169-0.035-0.336-0.097-0.5 C36.569,41.527,30.895,43.196,24,43.196z"/><linearGradient id="5l6ciYARZuDHFb2RC9VZfb" x1="24" x2="24" y1="4.694" y2="12.424" gradientUnits="userSpaceOnUse"><stop offset="0" stop-color="#999"/><stop offset="1" stop-color="#fff"/></linearGradient><ellipse cx="24" cy="8.163" fill="url(#5l6ciYARZuDHFb2RC9VZfb)" rx="13.438" ry="3.359"/><linearGradient id="5l6ciYARZuDHFb2RC9VZfc" x1="24" x2="24" y1="4.69" y2="12.753" gradientUnits="userSpaceOnUse"><stop offset="0" stop-color="#999"/><stop offset="1" stop-color="#fff"/></linearGradient><path fill="url(#5l6ciYARZuDHFb2RC9VZfc)" d="M37.438,8.163c0,2.337-6.016,3.65-13.438,3.65s-13.438-1.219-13.438-3.65	c0-1.855,6.016-3.359,13.438-3.359S37.438,6.308,37.438,8.163z"/><g><path fill="#c3c3c3" d="M37.004,7.33C35.519,9.029,30.269,9.969,24,9.969c-6.289,0-11.553-0.879-13.018-2.625 c-0.264,0.263-0.419,0.536-0.419,0.819c0,2.431,6.016,3.65,13.438,3.65s13.438-1.313,13.438-3.65 C37.438,7.875,37.277,7.597,37.004,7.33z"/><path fill="#bebfbf" d="M24,10.074c-6.35,0-11.656-0.896-13.05-2.678c-0.244,0.248-0.387,0.506-0.387,0.773 c0,2.431,6.016,3.65,13.438,3.65s13.438-1.313,13.438-3.65c0-0.272-0.149-0.534-0.401-0.786C35.624,9.115,30.331,10.074,24,10.074z"/><path fill="#b9bcbb" d="M24,10.179c-6.411,0-11.759-0.914-13.082-2.732c-0.223,0.234-0.355,0.476-0.355,0.727 c0,2.431,6.016,3.65,13.438,3.65s13.438-1.313,13.438-3.65c0-0.255-0.137-0.502-0.368-0.74C35.729,9.201,30.393,10.179,24,10.179z"/><path fill="#b4b8b6" d="M24,10.284c-6.472,0-11.862-0.932-13.114-2.785c-0.203,0.219-0.324,0.446-0.324,0.681 c0,2.431,6.016,3.65,13.438,3.65s13.438-1.313,13.438-3.65c0-0.239-0.125-0.47-0.335-0.693C35.833,9.287,30.455,10.284,24,10.284z"/><path fill="#afb4b2" d="M24,10.389c-6.533,0-11.965-0.949-13.146-2.838c-0.183,0.205-0.292,0.416-0.292,0.635 c0,2.431,6.016,3.65,13.438,3.65s13.438-1.313,13.438-3.65c0-0.223-0.113-0.438-0.302-0.646C35.938,9.372,30.517,10.389,24,10.389z"/><path fill="#aab0ae" d="M24,10.494c-6.595,0-12.068-0.967-13.178-2.892c-0.162,0.19-0.26,0.386-0.26,0.589 c0,2.431,6.016,3.65,13.438,3.65s13.438-1.313,13.438-3.65c0-0.206-0.101-0.406-0.269-0.6C36.042,9.458,30.579,10.494,24,10.494z"/><path fill="#a4adaa" d="M24,10.599c-6.656,0-12.171-0.984-13.209-2.945c-0.142,0.175-0.228,0.356-0.228,0.543 c0,2.431,6.016,3.65,13.438,3.65s13.438-1.313,13.438-3.65c0-0.19-0.089-0.374-0.236-0.553C36.147,9.544,30.641,10.599,24,10.599z"/><path fill="#9fa9a6" d="M24,10.705c-6.717,0-12.274-1.002-13.241-2.998c-0.122,0.161-0.196,0.326-0.196,0.497 c0,2.431,6.016,3.65,13.438,3.65s13.438-1.313,13.438-3.65c0-0.173-0.077-0.342-0.203-0.506C36.252,9.63,30.704,10.705,24,10.705z"/><path fill="#9aa5a2" d="M24,10.81c-6.778,0-12.377-1.02-13.273-3.052c-0.102,0.146-0.164,0.296-0.164,0.45 c0,2.431,6.016,3.65,13.438,3.65s13.438-1.313,13.438-3.65c0-0.157-0.065-0.31-0.17-0.459C36.356,9.716,30.766,10.81,24,10.81z"/><path fill="#95a19d" d="M24,10.915c-6.839,0-12.48-1.037-13.305-3.105c-0.081,0.132-0.132,0.267-0.132,0.404 c0,2.431,6.016,3.65,13.438,3.65s13.438-1.313,13.438-3.65c0-0.141-0.053-0.278-0.138-0.413C36.461,9.802,30.828,10.915,24,10.915z"/><path fill="#909e99" d="M24,11.02c-6.9,0-12.583-1.055-13.337-3.158c-0.061,0.117-0.101,0.237-0.101,0.358 c0,2.431,6.016,3.65,13.438,3.65s13.438-1.313,13.438-3.65c0-0.124-0.041-0.246-0.105-0.366C36.566,9.887,30.89,11.02,24,11.02z"/><path fill="#8b9a95" d="M24,11.125c-6.961,0-12.686-1.072-13.369-3.212c-0.041,0.103-0.069,0.207-0.069,0.312 c0,2.431,6.016,3.65,13.438,3.65s13.438-1.313,13.438-3.65c0-0.108-0.029-0.214-0.072-0.319C36.67,9.973,30.952,11.125,24,11.125z"/></g><linearGradient id="5l6ciYARZuDHFb2RC9VZfd" x1="24" x2="24" y1="5.206" y2="12.417" gradientUnits="userSpaceOnUse"><stop offset="0" stop-color="#999"/><stop offset="1" stop-color="#fff"/></linearGradient><path fill="url(#5l6ciYARZuDHFb2RC9VZfd)" d="M35.813,7.688c0,1.243-5.289,2.25-11.813,2.25S12.188,8.93,12.188,7.688	S17.476,5.281,24,5.281S35.813,6.445,35.813,7.688z"/><path fill="#878787" d="M24,5.969c5.912,0,10.796,0.956,11.662,2.06c0.09-0.112,0.15-0.225,0.15-0.342	c0-1.243-5.289-2.406-11.813-2.406S12.188,6.445,12.188,7.688c0,0.116,0.061,0.23,0.15,0.342C13.204,6.925,18.088,5.969,24,5.969z"/><g><linearGradient id="5l6ciYARZuDHFb2RC9VZfe" x1="10.563" x2="37.438" y1="20.644" y2="20.644" gradientUnits="userSpaceOnUse"><stop offset=".024" stop-color="#cc1d1f"/><stop offset=".321" stop-color="#f06666"/><stop offset=".631" stop-color="#e51e25"/><stop offset=".803" stop-color="#d63838"/><stop offset=".981" stop-color="#9a1f18"/></linearGradient><path fill="url(#5l6ciYARZuDHFb2RC9VZfe)" d="M24,21.121c-6.394,0-11.734-0.949-13.093-2.872c-0.219,0.309-0.344,0.629-0.344,0.96 c0,2.385,6.016,3.832,13.438,3.832s13.438-1.446,13.438-3.832c0-0.33-0.126-0.651-0.344-0.96 C35.734,20.171,30.394,21.121,24,21.121z"/><linearGradient id="5l6ciYARZuDHFb2RC9VZff" x1="10.563" x2="37.438" y1="20.67" y2="20.67" gradientUnits="userSpaceOnUse"><stop offset="0" stop-color="#cc1d1f"/><stop offset=".024" stop-color="#cc1d1f"/><stop offset=".321" stop-color="#eb5f5f"/><stop offset=".631" stop-color="#e01e24"/><stop offset=".803" stop-color="#d13635"/><stop offset=".981" stop-color="#9a1f18"/><stop offset=".999" stop-color="#9a1f18"/></linearGradient><path fill="url(#5l6ciYARZuDHFb2RC9VZff)" d="M24,21.219c-6.444,0-11.819-0.978-13.118-2.919c-0.202,0.293-0.32,0.596-0.32,0.908 c0,2.385,6.016,3.832,13.438,3.832s13.438-1.446,13.438-3.832c0-0.312-0.118-0.615-0.32-0.908 C35.819,20.241,30.444,21.219,24,21.219z"/><linearGradient id="5l6ciYARZuDHFb2RC9VZfg" x1="10.563" x2="37.438" y1="20.696" y2="20.696" gradientUnits="userSpaceOnUse"><stop offset="0" stop-color="#cc1d1f"/><stop offset=".024" stop-color="#cc1d1f"/><stop offset=".321" stop-color="#e65959"/><stop offset=".631" stop-color="#da1e23"/><stop offset=".803" stop-color="#cd3332"/><stop offset=".981" stop-color="#9a1f18"/><stop offset=".999" stop-color="#9a1f18"/></linearGradient><path fill="url(#5l6ciYARZuDHFb2RC9VZfg)" d="M24,21.318c-6.495,0-11.904-1.007-13.143-2.966c-0.186,0.276-0.295,0.562-0.295,0.856 c0,2.385,6.016,3.832,13.438,3.832s13.438-1.446,13.438-3.832c0-0.294-0.109-0.58-0.295-0.856 C35.904,20.311,30.495,21.318,24,21.318z"/><linearGradient id="5l6ciYARZuDHFb2RC9VZfh" x1="10.563" x2="37.438" y1="20.722" y2="20.722" gradientUnits="userSpaceOnUse"><stop offset="0" stop-color="#cc1d1f"/><stop offset=".024" stop-color="#cb1d1f"/><stop offset=".321" stop-color="#e25252"/><stop offset=".631" stop-color="#d51e22"/><stop offset=".803" stop-color="#c83130"/><stop offset=".981" stop-color="#9a1f18"/><stop offset=".999" stop-color="#9a1f18"/></linearGradient><path fill="url(#5l6ciYARZuDHFb2RC9VZfh)" d="M24,21.417c-6.545,0-11.988-1.036-13.167-3.013c-0.169,0.26-0.27,0.528-0.27,0.805 c0,2.385,6.016,3.832,13.438,3.832s13.438-1.446,13.438-3.832c0-0.276-0.101-0.545-0.27-0.805 C35.988,20.38,30.546,21.417,24,21.417z"/><linearGradient id="5l6ciYARZuDHFb2RC9VZfi" x1="10.563" x2="37.438" y1="20.748" y2="20.748" gradientUnits="userSpaceOnUse"><stop offset="0" stop-color="#cc1d1f"/><stop offset=".024" stop-color="#cb1d1f"/><stop offset=".321" stop-color="#dd4c4b"/><stop offset=".631" stop-color="#d01e21"/><stop offset=".803" stop-color="#c32f2d"/><stop offset=".981" stop-color="#9a1f18"/><stop offset=".999" stop-color="#9a1f18"/></linearGradient><path fill="url(#5l6ciYARZuDHFb2RC9VZfi)" d="M24,21.516c-6.596,0-12.073-1.065-13.192-3.06c-0.153,0.244-0.246,0.495-0.246,0.753 c0,2.385,6.016,3.832,13.438,3.832s13.438-1.446,13.438-3.832c0-0.258-0.093-0.509-0.246-0.753 C36.073,20.45,30.596,21.516,24,21.516z"/><linearGradient id="5l6ciYARZuDHFb2RC9VZfj" x1="10.563" x2="37.438" y1="20.774" y2="20.774" gradientUnits="userSpaceOnUse"><stop offset="0" stop-color="#cc1d1f"/><stop offset=".024" stop-color="#cb1d1f"/><stop offset=".321" stop-color="#d84544"/><stop offset=".631" stop-color="#cb1e20"/><stop offset=".803" stop-color="#bf2d2a"/><stop offset=".981" stop-color="#9a1f18"/><stop offset=".999" stop-color="#9a1f18"/></linearGradient><path fill="url(#5l6ciYARZuDHFb2RC9VZfj)" d="M24,21.614c-6.647,0-12.158-1.095-13.217-3.107c-0.137,0.227-0.221,0.461-0.221,0.701 c0,2.385,6.016,3.832,13.438,3.832s13.438-1.446,13.438-3.832c0-0.24-0.084-0.474-0.221-0.701 C36.158,20.52,30.647,21.614,24,21.614z"/><linearGradient id="5l6ciYARZuDHFb2RC9VZfk" x1="10.563" x2="37.438" y1="20.799" y2="20.799" gradientUnits="userSpaceOnUse"><stop offset="0" stop-color="#cb1d1f"/><stop offset=".024" stop-color="#cb1d1f"/><stop offset=".321" stop-color="#d33f3e"/><stop offset=".631" stop-color="#c51e1f"/><stop offset=".803" stop-color="#ba2a27"/><stop offset=".981" stop-color="#9a1f17"/><stop offset=".999" stop-color="#991f17"/></linearGradient><path fill="url(#5l6ciYARZuDHFb2RC9VZfk)" d="M24,21.713c-6.697,0-12.243-1.124-13.241-3.154c-0.12,0.211-0.196,0.427-0.196,0.65 c0,2.385,6.016,3.832,13.438,3.832s13.438-1.446,13.438-3.832c0-0.222-0.076-0.439-0.196-0.65 C36.243,20.59,30.697,21.713,24,21.713z"/><linearGradient id="5l6ciYARZuDHFb2RC9VZfl" x1="10.563" x2="37.438" y1="20.825" y2="20.825" gradientUnits="userSpaceOnUse"><stop offset="0" stop-color="#cb1d1f"/><stop offset=".024" stop-color="#cb1d1f"/><stop offset=".321" stop-color="#ce3837"/><stop offset=".631" stop-color="#c01e1e"/><stop offset=".803" stop-color="#b62824"/><stop offset=".981" stop-color="#9a1f17"/><stop offset=".999" stop-color="#991f17"/></linearGradient><path fill="url(#5l6ciYARZuDHFb2RC9VZfl)" d="M24,21.812c-6.748,0-12.328-1.153-13.266-3.201c-0.104,0.195-0.171,0.394-0.171,0.598 c0,2.385,6.016,3.832,13.438,3.832s13.438-1.446,13.438-3.832c0-0.204-0.067-0.403-0.171-0.598 C36.328,20.659,30.748,21.812,24,21.812z"/><linearGradient id="5l6ciYARZuDHFb2RC9VZfm" x1="10.563" x2="37.438" y1="20.851" y2="20.851" gradientUnits="userSpaceOnUse"><stop offset="0" stop-color="#cb1d1f"/><stop offset=".024" stop-color="#cb1d1f"/><stop offset=".321" stop-color="#c93230"/><stop offset=".631" stop-color="#bb1e1d"/><stop offset=".803" stop-color="#b12621"/><stop offset=".981" stop-color="#9a1f17"/><stop offset=".999" stop-color="#991f17"/></linearGradient><path fill="url(#5l6ciYARZuDHFb2RC9VZfm)" d="M24,21.911c-6.799,0-12.413-1.182-13.291-3.248c-0.087,0.178-0.147,0.36-0.147,0.546 c0,2.385,6.016,3.832,13.438,3.832s13.438-1.446,13.438-3.832c0-0.186-0.059-0.368-0.147-0.546 C36.413,20.729,30.799,21.911,24,21.911z"/><linearGradient id="5l6ciYARZuDHFb2RC9VZfn" x1="10.563" x2="37.438" y1="20.877" y2="20.877" gradientUnits="userSpaceOnUse"><stop offset="0" stop-color="#cb1d1f"/><stop offset=".024" stop-color="#ca1d1f"/><stop offset=".321" stop-color="#c52b29"/><stop offset=".631" stop-color="#b61e1c"/><stop offset=".803" stop-color="#ac241f"/><stop offset=".981" stop-color="#9a1f17"/><stop offset=".999" stop-color="#991f17"/></linearGradient><path fill="url(#5l6ciYARZuDHFb2RC9VZfn)" d="M24,22.009c-6.849,0-12.498-1.211-13.316-3.295c-0.071,0.162-0.122,0.326-0.122,0.494 c0,2.385,6.016,3.832,13.438,3.832s13.438-1.446,13.438-3.832c0-0.168-0.051-0.333-0.122-0.495 C36.498,20.799,30.849,22.009,24,22.009z"/><linearGradient id="5l6ciYARZuDHFb2RC9VZfo" x1="10.563" x2="37.438" y1="20.903" y2="20.903" gradientUnits="userSpaceOnUse"><stop offset="0" stop-color="#cb1d1f"/><stop offset=".024" stop-color="#ca1d1f"/><stop offset=".321" stop-color="#c02523"/><stop offset=".631" stop-color="#b01e1b"/><stop offset=".803" stop-color="#a8211c"/><stop offset=".981" stop-color="#9a1f17"/><stop offset=".999" stop-color="#991f17"/></linearGradient><path fill="url(#5l6ciYARZuDHFb2RC9VZfo)" d="M24,22.108c-6.9,0-12.583-1.24-13.34-3.343c-0.055,0.145-0.097,0.292-0.097,0.443 c0,2.385,6.016,3.832,13.438,3.832s13.438-1.446,13.438-3.832c0-0.15-0.042-0.297-0.097-0.443C36.583,20.868,30.9,22.108,24,22.108 z"/><linearGradient id="5l6ciYARZuDHFb2RC9VZfp" x1="10.563" x2="37.438" y1="20.929" y2="20.929" gradientUnits="userSpaceOnUse"><stop offset="0" stop-color="#cb1d1f"/><stop offset=".999" stop-color="#991f17"/></linearGradient><path fill="url(#5l6ciYARZuDHFb2RC9VZfp)" d="M24,22.207c-6.951,0-12.668-1.269-13.365-3.39c-0.038,0.129-0.072,0.259-0.072,0.391 c0,2.385,6.016,3.832,13.438,3.832s13.438-1.446,13.438-3.832c0-0.132-0.034-0.262-0.072-0.391 C36.668,20.938,30.951,22.207,24,22.207z"/></g><g><linearGradient id="5l6ciYARZuDHFb2RC9VZfq" x1="10.563" x2="37.438" y1="30.644" y2="30.644" gradientUnits="userSpaceOnUse"><stop offset=".024" stop-color="#cc1d1f"/><stop offset=".321" stop-color="#f06666"/><stop offset=".631" stop-color="#e51e25"/><stop offset=".803" stop-color="#d63838"/><stop offset=".981" stop-color="#9a1f18"/></linearGradient><path fill="url(#5l6ciYARZuDHFb2RC9VZfq)" d="M24,31.121c-6.394,0-11.734-0.949-13.093-2.872c-0.219,0.309-0.344,0.629-0.344,0.96 c0,2.385,6.016,3.832,13.438,3.832s13.438-1.446,13.438-3.832c0-0.33-0.126-0.651-0.344-0.96 C35.734,30.171,30.394,31.121,24,31.121z"/><linearGradient id="5l6ciYARZuDHFb2RC9VZfr" x1="10.563" x2="37.438" y1="30.67" y2="30.67" gradientUnits="userSpaceOnUse"><stop offset="0" stop-color="#cc1d1f"/><stop offset=".024" stop-color="#cc1d1f"/><stop offset=".321" stop-color="#eb5f5f"/><stop offset=".631" stop-color="#e01e24"/><stop offset=".803" stop-color="#d13635"/><stop offset=".981" stop-color="#9a1f18"/><stop offset=".999" stop-color="#9a1f18"/></linearGradient><path fill="url(#5l6ciYARZuDHFb2RC9VZfr)" d="M24,31.219c-6.444,0-11.819-0.978-13.118-2.919c-0.202,0.293-0.32,0.596-0.32,0.908 c0,2.385,6.016,3.832,13.438,3.832s13.438-1.446,13.438-3.832c0-0.312-0.118-0.615-0.32-0.908 C35.819,30.241,30.444,31.219,24,31.219z"/><linearGradient id="5l6ciYARZuDHFb2RC9VZfs" x1="10.563" x2="37.438" y1="30.696" y2="30.696" gradientUnits="userSpaceOnUse"><stop offset="0" stop-color="#cc1d1f"/><stop offset=".024" stop-color="#cc1d1f"/><stop offset=".321" stop-color="#e65959"/><stop offset=".631" stop-color="#da1e23"/><stop offset=".803" stop-color="#cd3332"/><stop offset=".981" stop-color="#9a1f18"/><stop offset=".999" stop-color="#9a1f18"/></linearGradient><path fill="url(#5l6ciYARZuDHFb2RC9VZfs)" d="M24,31.318c-6.495,0-11.904-1.007-13.143-2.966c-0.186,0.276-0.295,0.562-0.295,0.856 c0,2.385,6.016,3.832,13.438,3.832s13.438-1.446,13.438-3.832c0-0.294-0.109-0.58-0.295-0.856 C35.904,30.311,30.495,31.318,24,31.318z"/><linearGradient id="5l6ciYARZuDHFb2RC9VZft" x1="10.563" x2="37.438" y1="30.722" y2="30.722" gradientUnits="userSpaceOnUse"><stop offset="0" stop-color="#cc1d1f"/><stop offset=".024" stop-color="#cb1d1f"/><stop offset=".321" stop-color="#e25252"/><stop offset=".631" stop-color="#d51e22"/><stop offset=".803" stop-color="#c83130"/><stop offset=".981" stop-color="#9a1f18"/><stop offset=".999" stop-color="#9a1f18"/></linearGradient><path fill="url(#5l6ciYARZuDHFb2RC9VZft)" d="M24,31.417c-6.545,0-11.988-1.036-13.167-3.013c-0.169,0.26-0.27,0.528-0.27,0.805 c0,2.385,6.016,3.832,13.438,3.832s13.438-1.446,13.438-3.832c0-0.276-0.101-0.545-0.27-0.805 C35.988,30.38,30.546,31.417,24,31.417z"/><linearGradient id="5l6ciYARZuDHFb2RC9VZfu" x1="10.563" x2="37.438" y1="30.748" y2="30.748" gradientUnits="userSpaceOnUse"><stop offset="0" stop-color="#cc1d1f"/><stop offset=".024" stop-color="#cb1d1f"/><stop offset=".321" stop-color="#dd4c4b"/><stop offset=".631" stop-color="#d01e21"/><stop offset=".803" stop-color="#c32f2d"/><stop offset=".981" stop-color="#9a1f18"/><stop offset=".999" stop-color="#9a1f18"/></linearGradient><path fill="url(#5l6ciYARZuDHFb2RC9VZfu)" d="M24,31.516c-6.596,0-12.073-1.065-13.192-3.06c-0.153,0.244-0.246,0.495-0.246,0.753 c0,2.385,6.016,3.832,13.438,3.832s13.438-1.446,13.438-3.832c0-0.258-0.093-0.509-0.246-0.753 C36.073,30.45,30.596,31.516,24,31.516z"/><linearGradient id="5l6ciYARZuDHFb2RC9VZfv" x1="10.563" x2="37.438" y1="30.774" y2="30.774" gradientUnits="userSpaceOnUse"><stop offset="0" stop-color="#cc1d1f"/><stop offset=".024" stop-color="#cb1d1f"/><stop offset=".321" stop-color="#d84544"/><stop offset=".631" stop-color="#cb1e20"/><stop offset=".803" stop-color="#bf2d2a"/><stop offset=".981" stop-color="#9a1f18"/><stop offset=".999" stop-color="#9a1f18"/></linearGradient><path fill="url(#5l6ciYARZuDHFb2RC9VZfv)" d="M24,31.614c-6.647,0-12.158-1.095-13.217-3.107c-0.137,0.227-0.221,0.461-0.221,0.701 c0,2.385,6.016,3.832,13.438,3.832s13.438-1.446,13.438-3.832c0-0.24-0.084-0.474-0.221-0.701 C36.158,30.52,30.647,31.614,24,31.614z"/><linearGradient id="5l6ciYARZuDHFb2RC9VZfw" x1="10.563" x2="37.438" y1="30.799" y2="30.799" gradientUnits="userSpaceOnUse"><stop offset="0" stop-color="#cb1d1f"/><stop offset=".024" stop-color="#cb1d1f"/><stop offset=".321" stop-color="#d33f3e"/><stop offset=".631" stop-color="#c51e1f"/><stop offset=".803" stop-color="#ba2a27"/><stop offset=".981" stop-color="#9a1f17"/><stop offset=".999" stop-color="#991f17"/></linearGradient><path fill="url(#5l6ciYARZuDHFb2RC9VZfw)" d="M24,31.713c-6.697,0-12.243-1.124-13.241-3.154c-0.12,0.211-0.196,0.427-0.196,0.65 c0,2.385,6.016,3.832,13.438,3.832s13.438-1.446,13.438-3.832c0-0.222-0.076-0.439-0.196-0.65 C36.243,30.59,30.697,31.713,24,31.713z"/><linearGradient id="5l6ciYARZuDHFb2RC9VZfx" x1="10.563" x2="37.438" y1="30.825" y2="30.825" gradientUnits="userSpaceOnUse"><stop offset="0" stop-color="#cb1d1f"/><stop offset=".024" stop-color="#cb1d1f"/><stop offset=".321" stop-color="#ce3837"/><stop offset=".631" stop-color="#c01e1e"/><stop offset=".803" stop-color="#b62824"/><stop offset=".981" stop-color="#9a1f17"/><stop offset=".999" stop-color="#991f17"/></linearGradient><path fill="url(#5l6ciYARZuDHFb2RC9VZfx)" d="M24,31.812c-6.748,0-12.328-1.153-13.266-3.201c-0.104,0.195-0.171,0.394-0.171,0.598 c0,2.385,6.016,3.832,13.438,3.832s13.438-1.446,13.438-3.832c0-0.204-0.067-0.403-0.171-0.598 C36.328,30.659,30.748,31.812,24,31.812z"/><linearGradient id="5l6ciYARZuDHFb2RC9VZfy" x1="10.563" x2="37.438" y1="30.851" y2="30.851" gradientUnits="userSpaceOnUse"><stop offset="0" stop-color="#cb1d1f"/><stop offset=".024" stop-color="#cb1d1f"/><stop offset=".321" stop-color="#c93230"/><stop offset=".631" stop-color="#bb1e1d"/><stop offset=".803" stop-color="#b12621"/><stop offset=".981" stop-color="#9a1f17"/><stop offset=".999" stop-color="#991f17"/></linearGradient><path fill="url(#5l6ciYARZuDHFb2RC9VZfy)" d="M24,31.911c-6.799,0-12.413-1.182-13.291-3.248c-0.087,0.178-0.147,0.36-0.147,0.546 c0,2.385,6.016,3.832,13.438,3.832s13.438-1.446,13.438-3.832c0-0.186-0.059-0.368-0.147-0.546 C36.413,30.729,30.799,31.911,24,31.911z"/><linearGradient id="5l6ciYARZuDHFb2RC9VZfz" x1="10.563" x2="37.438" y1="30.877" y2="30.877" gradientUnits="userSpaceOnUse"><stop offset="0" stop-color="#cb1d1f"/><stop offset=".024" stop-color="#ca1d1f"/><stop offset=".321" stop-color="#c52b29"/><stop offset=".631" stop-color="#b61e1c"/><stop offset=".803" stop-color="#ac241f"/><stop offset=".981" stop-color="#9a1f17"/><stop offset=".999" stop-color="#991f17"/></linearGradient><path fill="url(#5l6ciYARZuDHFb2RC9VZfz)" d="M24,32.009c-6.849,0-12.498-1.211-13.316-3.295c-0.071,0.162-0.122,0.326-0.122,0.494 c0,2.385,6.016,3.832,13.438,3.832s13.438-1.446,13.438-3.832c0-0.168-0.051-0.333-0.122-0.495 C36.498,30.799,30.849,32.009,24,32.009z"/><linearGradient id="5l6ciYARZuDHFb2RC9VZfA" x1="10.563" x2="37.438" y1="30.903" y2="30.903" gradientUnits="userSpaceOnUse"><stop offset="0" stop-color="#cb1d1f"/><stop offset=".024" stop-color="#ca1d1f"/><stop offset=".321" stop-color="#c02523"/><stop offset=".631" stop-color="#b01e1b"/><stop offset=".803" stop-color="#a8211c"/><stop offset=".981" stop-color="#9a1f17"/><stop offset=".999" stop-color="#991f17"/></linearGradient><path fill="url(#5l6ciYARZuDHFb2RC9VZfA)" d="M24,32.108c-6.9,0-12.583-1.24-13.34-3.343c-0.055,0.145-0.097,0.292-0.097,0.443 c0,2.385,6.016,3.832,13.438,3.832s13.438-1.446,13.438-3.832c0-0.15-0.042-0.297-0.097-0.443C36.583,30.868,30.9,32.108,24,32.108 z"/><linearGradient id="5l6ciYARZuDHFb2RC9VZfB" x1="10.563" x2="37.438" y1="30.929" y2="30.929" gradientUnits="userSpaceOnUse"><stop offset="0" stop-color="#cb1d1f"/><stop offset=".999" stop-color="#991f17"/></linearGradient><path fill="url(#5l6ciYARZuDHFb2RC9VZfB)" d="M24,32.207c-6.951,0-12.668-1.269-13.365-3.39c-0.038,0.129-0.072,0.259-0.072,0.391 c0,2.385,6.016,3.832,13.438,3.832s13.438-1.446,13.438-3.832c0-0.132-0.034-0.262-0.072-0.391 C36.668,30.938,30.951,32.207,24,32.207z"/></g><ellipse cx="19" cy="7.729" fill="#595959" rx="3" ry=".729"/><radialGradient id="5l6ciYARZuDHFb2RC9VZfC" cx="19.975" cy="20.705" r="3.479" gradientTransform="matrix(.9988 .0488 -.007 .1424 .174 16.764)" gradientUnits="userSpaceOnUse"><stop offset="0" stop-color="#fff"/><stop offset=".999" stop-color="#fff" stop-opacity="0"/></radialGradient><path fill="url(#5l6ciYARZuDHFb2RC9VZfC)" d="M23.943,20.876c-0.016,0.327-1.757,0.507-3.889,0.403s-3.847-0.454-3.831-0.781	c0.016-0.327,1.757-0.507,3.889-0.403S23.959,20.549,23.943,20.876z"/><radialGradient id="5l6ciYARZuDHFb2RC9VZfD" cx="19.477" cy="10.53" r="3.479" gradientTransform="matrix(.9988 .0488 -.007 .1424 .6 8.05)" gradientUnits="userSpaceOnUse"><stop offset="0" stop-color="#fff"/><stop offset=".999" stop-color="#fff" stop-opacity="0"/></radialGradient><path fill="url(#5l6ciYARZuDHFb2RC9VZfD)" d="M23.943,10.689c-0.016,0.327-1.757,0.507-3.889,0.403s-3.847-0.454-3.831-0.781	c0.016-0.327,1.757-0.507,3.889-0.403S23.959,10.362,23.943,10.689z"/><radialGradient id="5l6ciYARZuDHFb2RC9VZfE" cx="20.485" cy="31.151" r="3.479" gradientTransform="matrix(.9988 .0488 -.007 .1424 -.264 25.71)" gradientUnits="userSpaceOnUse"><stop offset="0" stop-color="#fff"/><stop offset=".999" stop-color="#fff" stop-opacity="0"/></radialGradient><path fill="url(#5l6ciYARZuDHFb2RC9VZfE)" d="M23.943,31.335c-0.016,0.327-1.757,0.507-3.889,0.403s-3.847-0.454-3.831-0.781	c0.016-0.327,1.757-0.507,3.889-0.403C22.244,30.658,23.959,31.008,23.943,31.335z"/><radialGradient id="5l6ciYARZuDHFb2RC9VZfF" cx="21.047" cy="42.637" r="3.479" gradientTransform="matrix(.997 .0779 -.0111 .1421 -.529 34.943)" gradientUnits="userSpaceOnUse"><stop offset="0" stop-color="#fff"/><stop offset=".999" stop-color="#fff" stop-opacity="0"/></radialGradient><path fill="url(#5l6ciYARZuDHFb2RC9VZfF)" d="M23.936,42.947c-0.026,0.326-1.771,0.456-3.899,0.29c-2.128-0.166-3.832-0.566-3.807-0.892	c0.026-0.326,1.771-0.456,3.899-0.29C22.257,42.221,23.962,42.621,23.936,42.947z"/><linearGradient id="5l6ciYARZuDHFb2RC9VZfG" x1="21.625" x2="41.063" y1="34.205" y2="34.205" gradientUnits="userSpaceOnUse"><stop offset="0" stop-color="#cb1d1f"/><stop offset=".999" stop-color="#991f17"/></linearGradient><path fill="url(#5l6ciYARZuDHFb2RC9VZfG)" d="M37,32c-1.483,2.213-6.73,3.308-13,3.308S12.483,34.213,11,32v1.071	c1.49,2.101,6.737,3.338,13,3.338s11.51-1.237,13-3.338V32z"/><linearGradient id="5l6ciYARZuDHFb2RC9VZfH" x1="11" x2="37" y1="37.254" y2="37.254" gradientUnits="userSpaceOnUse"><stop offset="0" stop-color="#cb1d1f"/><stop offset=".999" stop-color="#991f17"/></linearGradient><path fill="url(#5l6ciYARZuDHFb2RC9VZfH)" d="M37,35.049c-1.483,2.213-6.73,3.308-13,3.308s-11.517-1.096-13-3.308v1.071	c1.49,2.101,6.737,3.338,13,3.338s11.51-1.237,13-3.338V35.049z"/><linearGradient id="5l6ciYARZuDHFb2RC9VZfI" x1="21.625" x2="41.063" y1="14.198" y2="14.198" gradientUnits="userSpaceOnUse"><stop offset="0" stop-color="#cb1d1f"/><stop offset=".999" stop-color="#991f17"/></linearGradient><path fill="url(#5l6ciYARZuDHFb2RC9VZfI)" d="M37,12.356c-1.483,1.849-6.73,2.764-13,2.764s-11.517-0.915-13-2.764v0.895	c1.49,1.755,6.737,2.789,13,2.789s11.51-1.033,13-2.789V12.356z"/><linearGradient id="5l6ciYARZuDHFb2RC9VZfJ" x1="11" x2="37" y1="17.198" y2="17.198" gradientUnits="userSpaceOnUse"><stop offset="0" stop-color="#cb1d1f"/><stop offset=".999" stop-color="#991f17"/></linearGradient><path fill="url(#5l6ciYARZuDHFb2RC9VZfJ)" d="M37,15.356c-1.483,1.849-6.73,2.764-13,2.764s-11.517-0.915-13-2.764v0.895	c1.49,1.755,6.737,2.789,13,2.789s11.51-1.033,13-2.789V15.356z"/><radialGradient id="5l6ciYARZuDHFb2RC9VZfK" cx="19.91" cy="19.019" r="2.89" gradientTransform="matrix(.9988 .0488 -.007 .1424 .244 15.32)" gradientUnits="userSpaceOnUse"><stop offset="0" stop-color="#ffbcaa"/><stop offset=".999" stop-color="#ef6262" stop-opacity="0"/></radialGradient><path fill="url(#5l6ciYARZuDHFb2RC9VZfK)" d="M23.29,19.157c-0.013,0.272-1.46,0.422-3.231,0.335c-1.771-0.087-3.196-0.377-3.183-0.649	c0.013-0.272,1.46-0.422,3.231-0.335S23.304,18.885,23.29,19.157z"/><radialGradient id="5l6ciYARZuDHFb2RC9VZfL" cx="19.765" cy="16.053" r="2.89" gradientTransform="matrix(.9988 .0488 -.007 .1424 .368 12.78)" gradientUnits="userSpaceOnUse"><stop offset="0" stop-color="#ffbcaa"/><stop offset=".999" stop-color="#ef6262" stop-opacity="0"/></radialGradient><path fill="url(#5l6ciYARZuDHFb2RC9VZfL)" d="M23.29,16.188c-0.013,0.272-1.46,0.422-3.231,0.335c-1.771-0.087-3.196-0.377-3.183-0.649	c0.013-0.272,1.46-0.422,3.231-0.335S23.304,15.916,23.29,16.188z"/><radialGradient id="5l6ciYARZuDHFb2RC9VZfM" cx="20.903" cy="39.328" r="2.89" gradientTransform="matrix(.9988 .0488 -.007 .1424 -.606 32.713)" gradientUnits="userSpaceOnUse"><stop offset="0" stop-color="#ffbcaa"/><stop offset=".999" stop-color="#ef6262" stop-opacity="0"/></radialGradient><path fill="url(#5l6ciYARZuDHFb2RC9VZfM)" d="M23.29,39.49c-0.013,0.272-1.46,0.422-3.231,0.335c-1.771-0.087-3.196-0.377-3.183-0.649	c0.013-0.272,1.46-0.422,3.231-0.335C21.879,38.928,23.304,39.219,23.29,39.49z"/><radialGradient id="5l6ciYARZuDHFb2RC9VZfN" cx="20.754" cy="36.279" r="2.89" gradientTransform="matrix(.9988 .0488 -.007 .1424 -.478 30.102)" gradientUnits="userSpaceOnUse"><stop offset="0" stop-color="#ffbcaa"/><stop offset=".999" stop-color="#ef6262" stop-opacity="0"/></radialGradient><path fill="url(#5l6ciYARZuDHFb2RC9VZfN)" d="M23.29,36.438c-0.013,0.272-1.46,0.422-3.231,0.335c-1.771-0.087-3.196-0.377-3.183-0.649	c0.013-0.272,1.46-0.422,3.231-0.335S23.304,36.166,23.29,36.438z"/></svg>