<svg xmlns="http://www.w3.org/2000/svg" viewBox="0 0 48 48"><linearGradient id="JhHNJV3nKJUAuZxp1RgrUa" x1="9.5" x2="9.5" y1="29.383" y2="16.009" gradientTransform="rotate(-45.001 24 23)" gradientUnits="userSpaceOnUse"><stop offset="0" stop-color="#6a6a6a"/><stop offset="1" stop-color="#b7b3b0"/></linearGradient><path fill="url(#JhHNJV3nKJUAuZxp1RgrUa)" d="M8.444,32.899c-1.56,1.56-1.56,4.097,0,5.657c1.56,1.56,4.097,1.56,5.657,0l4.95-4.95 c1.56-1.56,1.56-4.097,0-5.657c-1.56-1.56-4.097-1.56-5.657,0L8.444,32.899z M21.879,36.435l-4.95,4.95 c-3.119,3.119-8.195,3.119-11.314,0c-3.119-3.119-3.119-8.195,0-11.314l4.95-4.95c3.119-3.119,8.195-3.119,11.314,0 S24.998,33.316,21.879,36.435z"/><linearGradient id="JhHNJV3nKJUAuZxp1RgrUb" x1="13.715" x2="13.715" y1="41.467" y2="24.19" gradientUnits="userSpaceOnUse"><stop offset="0" stop-color="#727272"/><stop offset="1" stop-color="#b8b5b2"/></linearGradient><path fill="url(#JhHNJV3nKJUAuZxp1RgrUb)" d="M8.315,32.771c-1.613,1.613-1.613,4.237,0,5.85s4.237,1.613,5.85,0l4.95-4.95 c1.613-1.613,1.613-4.237,0-5.85c-1.613-1.613-4.237-1.613-5.85,0L8.315,32.771z M21.75,36.306l-4.95,4.95 c-3.066,3.066-8.055,3.066-11.121,0s-3.066-8.055,0-11.121l4.95-4.95c3.066-3.066,8.055-3.066,11.121,0S24.816,33.24,21.75,36.306z"/><linearGradient id="JhHNJV3nKJUAuZxp1RgrUc" x1="13.683" x2="13.683" y1="41.326" y2="24.277" gradientUnits="userSpaceOnUse"><stop offset="0" stop-color="#7a7a7a"/><stop offset="1" stop-color="#b9b6b4"/></linearGradient><path fill="url(#JhHNJV3nKJUAuZxp1RgrUc)" d="M8.187,32.642c-1.666,1.666-1.666,4.376,0,6.043s4.377,1.666,6.043,0l4.95-4.95 c1.666-1.666,1.666-4.376,0-6.043c-1.666-1.666-4.377-1.666-6.043,0L8.187,32.642z M21.622,36.178l-4.95,4.95 c-3.013,3.013-7.915,3.013-10.928,0c-3.013-3.013-3.013-7.915,0-10.928l4.95-4.95c3.013-3.013,7.915-3.013,10.928,0 S24.634,33.165,21.622,36.178z"/><linearGradient id="JhHNJV3nKJUAuZxp1RgrUd" x1="13.65" x2="13.65" y1="41.185" y2="24.364" gradientUnits="userSpaceOnUse"><stop offset="0" stop-color="#838383"/><stop offset="1" stop-color="#bbb8b5"/></linearGradient><path fill="url(#JhHNJV3nKJUAuZxp1RgrUd)" d="M8.058,32.514c-1.719,1.719-1.719,4.516,0,6.235c1.719,1.719,4.516,1.719,6.235,0l4.95-4.95 c1.719-1.719,1.719-4.516,0-6.235c-1.719-1.719-4.516-1.719-6.235,0L8.058,32.514z M21.493,36.049l-4.95,4.95 c-2.96,2.96-7.776,2.96-10.735,0s-2.96-7.776,0-10.735l4.95-4.95c2.96-2.96,7.776-2.96,10.735,0S24.453,33.09,21.493,36.049z"/><linearGradient id="JhHNJV3nKJUAuZxp1RgrUe" x1="13.618" x2="13.618" y1="41.044" y2="24.451" gradientUnits="userSpaceOnUse"><stop offset="0" stop-color="#8b8b8b"/><stop offset="1" stop-color="#bcb9b7"/></linearGradient><path fill="url(#JhHNJV3nKJUAuZxp1RgrUe)" d="M7.929,32.385c-1.772,1.772-1.772,4.656,0,6.428c1.772,1.772,4.656,1.772,6.428,0l4.95-4.95 c1.772-1.772,1.772-4.656,0-6.428c-1.772-1.772-4.656-1.772-6.428,0L7.929,32.385z M21.364,35.921l-4.95,4.95 c-2.906,2.906-7.636,2.906-10.542,0c-2.906-2.906-2.906-7.636,0-10.542l4.95-4.95c2.906-2.906,7.636-2.906,10.542,0 S24.271,33.014,21.364,35.921z"/><linearGradient id="JhHNJV3nKJUAuZxp1RgrUf" x1="13.586" x2="13.586" y1="40.903" y2="24.538" gradientUnits="userSpaceOnUse"><stop offset="0" stop-color="#939393"/><stop offset="1" stop-color="#bdbbb9"/></linearGradient><path fill="url(#JhHNJV3nKJUAuZxp1RgrUf)" d="M7.801,32.257c-1.825,1.825-1.825,4.796,0,6.621s4.796,1.825,6.621,0l4.95-4.95 c1.825-1.825,1.825-4.796,0-6.621c-1.825-1.825-4.796-1.825-6.621,0L7.801,32.257z M21.236,35.792l-4.95,4.95 c-2.853,2.853-7.496,2.853-10.349,0s-2.853-7.496,0-10.349l4.95-4.95c2.853-2.853,7.496-2.853,10.349,0 S24.089,32.939,21.236,35.792z"/><linearGradient id="JhHNJV3nKJUAuZxp1RgrUg" x1="13.554" x2="13.554" y1="40.762" y2="24.625" gradientUnits="userSpaceOnUse"><stop offset="0" stop-color="#9b9b9b"/><stop offset="1" stop-color="#bebcbb"/></linearGradient><path fill="url(#JhHNJV3nKJUAuZxp1RgrUg)" d="M7.672,32.128c-1.879,1.879-1.879,4.935,0,6.814s4.935,1.879,6.814,0l4.95-4.95 c1.879-1.879,1.879-4.935,0-6.814s-4.935-1.879-6.814,0L7.672,32.128z M21.107,35.664l-4.95,4.95c-2.8,2.8-7.357,2.8-10.157,0 c-2.8-2.8-2.8-7.357,0-10.157l4.95-4.95c2.8-2.8,7.357-2.8,10.157,0S23.907,32.864,21.107,35.664z"/><linearGradient id="JhHNJV3nKJUAuZxp1RgrUh" x1="13.522" x2="13.522" y1="40.621" y2="24.712" gradientUnits="userSpaceOnUse"><stop offset="0" stop-color="#a3a3a3"/><stop offset="1" stop-color="#bfbebd"/></linearGradient><path fill="url(#JhHNJV3nKJUAuZxp1RgrUh)" d="M7.544,32c-1.932,1.932-1.932,5.075,0,7.007s5.075,1.932,7.007,0l4.95-4.95 c1.932-1.932,1.932-5.075,0-7.007s-5.075-1.932-7.007,0L7.544,32z M20.979,35.535l-4.95,4.95c-2.747,2.747-7.217,2.747-9.964,0 s-2.747-7.217,0-9.964l4.95-4.95c2.747-2.747,7.217-2.747,9.964,0S23.726,32.788,20.979,35.535z"/><linearGradient id="JhHNJV3nKJUAuZxp1RgrUi" x1="13.49" x2="13.49" y1="40.48" y2="24.799" gradientUnits="userSpaceOnUse"><stop offset="0" stop-color="#ababab"/><stop offset="1" stop-color="#c0bfbf"/></linearGradient><path fill="url(#JhHNJV3nKJUAuZxp1RgrUi)" d="M7.415,31.871c-1.985,1.985-1.985,5.215,0,7.2s5.215,1.985,7.2,0l4.95-4.95 c1.985-1.985,1.985-5.215,0-7.2s-5.215-1.985-7.2,0L7.415,31.871z M20.85,35.407l-4.95,4.95c-2.694,2.694-7.077,2.694-9.771,0 c-2.694-2.694-2.694-7.077,0-9.771l4.95-4.95c2.694-2.694,7.077-2.694,9.771,0S23.544,32.713,20.85,35.407z"/><linearGradient id="JhHNJV3nKJUAuZxp1RgrUj" x1="13.458" x2="13.458" y1="40.34" y2="24.886" gradientUnits="userSpaceOnUse"><stop offset="0" stop-color="#b4b4b4"/><stop offset="1" stop-color="#c2c1c0"/></linearGradient><path fill="url(#JhHNJV3nKJUAuZxp1RgrUj)" d="M7.287,31.742c-2.038,2.038-2.038,5.355,0,7.392s5.354,2.038,7.392,0l4.95-4.95 c2.038-2.038,2.038-5.355,0-7.392s-5.354-2.038-7.392,0L7.287,31.742z M20.722,35.278l-4.95,4.95c-2.641,2.641-6.937,2.641-9.578,0 s-2.641-6.937,0-9.578l4.95-4.95c2.641-2.641,6.937-2.641,9.578,0S23.362,32.637,20.722,35.278z"/><linearGradient id="JhHNJV3nKJUAuZxp1RgrUk" x1="13.425" x2="13.425" y1="40.199" y2="24.973" gradientUnits="userSpaceOnUse"><stop offset="0" stop-color="#bcbcbc"/><stop offset="1" stop-color="#c3c2c2"/></linearGradient><path fill="url(#JhHNJV3nKJUAuZxp1RgrUk)" d="M7.158,31.614c-2.091,2.091-2.091,5.494,0,7.585s5.494,2.091,7.585,0l4.95-4.95 c2.091-2.091,2.091-5.494,0-7.585s-5.494-2.091-7.585,0L7.158,31.614z M20.593,35.149l-4.95,4.95c-2.587,2.587-6.798,2.587-9.385,0 c-2.587-2.587-2.587-6.798,0-9.385l4.95-4.95c2.587-2.587,6.798-2.587,9.385,0S23.18,32.562,20.593,35.149z"/><path fill="#c4c4c4" d="M7.029,31.485c-2.144,2.144-2.144,5.634,0,7.778s5.634,2.144,7.778,0l4.95-4.95 c2.144-2.144,2.144-5.634,0-7.778s-5.634-2.144-7.778,0L7.029,31.485z M20.464,35.021l-4.95,4.95c-2.534,2.534-6.658,2.534-9.192,0 s-2.534-6.658,0-9.192l4.95-4.95c2.534-2.534,6.658-2.534,9.192,0S22.999,32.487,20.464,35.021z"/><linearGradient id="JhHNJV3nKJUAuZxp1RgrUl" x1="9.5" x2="9.5" y1="22.763" y2="11.649" gradientTransform="rotate(-45.001 24 23)" gradientUnits="userSpaceOnUse"><stop offset="0" stop-color="#6a6a6a"/><stop offset="1" stop-color="#fff" stop-opacity="0"/></linearGradient><path fill="url(#JhHNJV3nKJUAuZxp1RgrUl)" d="M12.686,27.243l-4.95,4.95c-1.56,1.56-1.56,4.097,0,5.657	c0.121,0.121,0.257,0.216,0.389,0.318c-1.215-1.568-1.121-3.829,0.318-5.268l4.95-4.95c1.439-1.439,3.7-1.533,5.268-0.318	c-0.102-0.132-0.197-0.268-0.318-0.389C16.783,25.683,14.246,25.683,12.686,27.243z"/><linearGradient id="JhHNJV3nKJUAuZxp1RgrUm" x1="9.5" x2="9.5" y1="33.396" y2="26.291" gradientTransform="rotate(-45.001 24 23)" gradientUnits="userSpaceOnUse"><stop offset="0" stop-color="#6a6a6a"/><stop offset="1" stop-color="#939393" stop-opacity="0"/></linearGradient><path fill="url(#JhHNJV3nKJUAuZxp1RgrUm)" d="M21.172,35.728l-4.95,4.95c-3,3-7.804,3.106-10.942,0.336	c0.11,0.125,0.216,0.252,0.336,0.371c3.119,3.119,8.195,3.119,11.314,0l4.95-4.95c3.119-3.119,3.119-8.195,0-11.314	c-0.119-0.119-0.247-0.225-0.371-0.336C24.278,27.924,24.171,32.728,21.172,35.728z"/><linearGradient id="JhHNJV3nKJUAuZxp1RgrUn" x1="38.5" x2="38.5" y1="29.383" y2="16.009" gradientTransform="rotate(-45.001 24 23)" gradientUnits="userSpaceOnUse"><stop offset="0" stop-color="#6a6a6a"/><stop offset="1" stop-color="#b7b3b0"/></linearGradient><path fill="url(#JhHNJV3nKJUAuZxp1RgrUn)" d="M28.95,12.393c-1.56,1.56-1.56,4.097,0,5.657c1.56,1.56,4.097,1.56,5.657,0l4.95-4.95 c1.56-1.56,1.56-4.097,0-5.657c-1.56-1.56-4.097-1.56-5.657,0L28.95,12.393z M42.385,15.929l-4.95,4.95 c-3.119,3.119-8.195,3.119-11.314,0s-3.119-8.195,0-11.314l4.95-4.95c3.119-3.119,8.195-3.119,11.314,0 C45.504,7.734,45.504,12.81,42.385,15.929z"/><linearGradient id="JhHNJV3nKJUAuZxp1RgrUo" x1="34.221" x2="34.221" y1="20.961" y2="3.684" gradientUnits="userSpaceOnUse"><stop offset="0" stop-color="#727272"/><stop offset="1" stop-color="#b8b5b2"/></linearGradient><path fill="url(#JhHNJV3nKJUAuZxp1RgrUo)" d="M28.821,12.265c-1.613,1.613-1.613,4.237,0,5.85c1.613,1.613,4.237,1.613,5.85,0l4.95-4.95 c1.613-1.613,1.613-4.237,0-5.85s-4.237-1.613-5.85,0L28.821,12.265z M42.256,15.8l-4.95,4.95c-3.066,3.066-8.055,3.066-11.121,0 s-3.066-8.055,0-11.121l4.95-4.95c3.066-3.066,8.055-3.066,11.121,0S45.322,12.734,42.256,15.8z"/><linearGradient id="JhHNJV3nKJUAuZxp1RgrUp" x1="34.189" x2="34.189" y1="20.82" y2="3.771" gradientUnits="userSpaceOnUse"><stop offset="0" stop-color="#7a7a7a"/><stop offset="1" stop-color="#b9b6b4"/></linearGradient><path fill="url(#JhHNJV3nKJUAuZxp1RgrUp)" d="M28.693,12.136c-1.666,1.666-1.666,4.376,0,6.043c1.666,1.666,4.377,1.666,6.043,0 l4.95-4.95c1.666-1.666,1.666-4.376,0-6.043s-4.377-1.666-6.043,0L28.693,12.136z M42.128,15.672l-4.95,4.95 c-3.013,3.013-7.915,3.013-10.928,0s-3.013-7.915,0-10.928l4.95-4.95c3.013-3.013,7.915-3.013,10.928,0 C45.14,7.757,45.14,12.659,42.128,15.672z"/><linearGradient id="JhHNJV3nKJUAuZxp1RgrUq" x1="34.157" x2="34.157" y1="20.679" y2="3.858" gradientUnits="userSpaceOnUse"><stop offset="0" stop-color="#838383"/><stop offset="1" stop-color="#bbb8b5"/></linearGradient><path fill="url(#JhHNJV3nKJUAuZxp1RgrUq)" d="M28.564,12.008c-1.719,1.719-1.719,4.516,0,6.235c1.719,1.719,4.516,1.719,6.235,0 l4.95-4.95c1.719-1.719,1.719-4.516,0-6.235c-1.719-1.719-4.516-1.719-6.235,0L28.564,12.008z M41.999,15.543l-4.95,4.95 c-2.96,2.96-7.776,2.96-10.735,0s-2.96-7.776,0-10.735l4.95-4.95c2.96-2.96,7.776-2.96,10.735,0S44.959,12.584,41.999,15.543z"/><linearGradient id="JhHNJV3nKJUAuZxp1RgrUr" x1="34.124" x2="34.124" y1="20.538" y2="3.945" gradientUnits="userSpaceOnUse"><stop offset="0" stop-color="#8b8b8b"/><stop offset="1" stop-color="#bcb9b7"/></linearGradient><path fill="url(#JhHNJV3nKJUAuZxp1RgrUr)" d="M28.435,11.879c-1.772,1.772-1.772,4.656,0,6.428c1.772,1.772,4.656,1.772,6.428,0 l4.95-4.95c1.772-1.772,1.772-4.656,0-6.428c-1.772-1.772-4.656-1.772-6.428,0L28.435,11.879z M41.871,15.415l-4.95,4.95 c-2.906,2.906-7.636,2.906-10.542,0s-2.906-7.636,0-10.542l4.95-4.95c2.906-2.906,7.636-2.906,10.542,0 C44.777,7.779,44.777,12.508,41.871,15.415z"/><linearGradient id="JhHNJV3nKJUAuZxp1RgrUs" x1="34.092" x2="34.092" y1="20.397" y2="4.032" gradientUnits="userSpaceOnUse"><stop offset="0" stop-color="#939393"/><stop offset="1" stop-color="#bdbbb9"/></linearGradient><path fill="url(#JhHNJV3nKJUAuZxp1RgrUs)" d="M28.307,11.751c-1.825,1.825-1.825,4.796,0,6.621c1.825,1.825,4.796,1.825,6.621,0 l4.95-4.95c1.825-1.825,1.825-4.796,0-6.621s-4.796-1.825-6.621,0L28.307,11.751z M41.742,15.286l-4.95,4.95 c-2.853,2.853-7.496,2.853-10.349,0s-2.853-7.496,0-10.349l4.95-4.95c2.853-2.853,7.496-2.853,10.349,0 S44.595,12.433,41.742,15.286z"/><linearGradient id="JhHNJV3nKJUAuZxp1RgrUt" x1="34.06" x2="34.06" y1="20.256" y2="4.119" gradientUnits="userSpaceOnUse"><stop offset="0" stop-color="#9b9b9b"/><stop offset="1" stop-color="#bebcbb"/></linearGradient><path fill="url(#JhHNJV3nKJUAuZxp1RgrUt)" d="M28.178,11.622c-1.879,1.879-1.879,4.935,0,6.814s4.935,1.879,6.814,0l4.95-4.95 c1.879-1.879,1.879-4.935,0-6.814s-4.935-1.879-6.814,0L28.178,11.622z M41.613,15.158l-4.95,4.95c-2.8,2.8-7.357,2.8-10.157,0 s-2.8-7.357,0-10.157l4.95-4.95c2.8-2.8,7.357-2.8,10.157,0C44.414,7.801,44.414,12.357,41.613,15.158z"/><linearGradient id="JhHNJV3nKJUAuZxp1RgrUu" x1="34.028" x2="34.028" y1="20.115" y2="4.205" gradientUnits="userSpaceOnUse"><stop offset="0" stop-color="#a3a3a3"/><stop offset="1" stop-color="#bfbebd"/></linearGradient><path fill="url(#JhHNJV3nKJUAuZxp1RgrUu)" d="M28.05,11.493c-1.932,1.932-1.932,5.075,0,7.007s5.075,1.932,7.007,0l4.95-4.95 c1.932-1.932,1.932-5.075,0-7.007s-5.075-1.932-7.007,0L28.05,11.493z M41.485,15.029l-4.95,4.95c-2.747,2.747-7.217,2.747-9.964,0 s-2.747-7.217,0-9.964l4.95-4.95c2.747-2.747,7.217-2.747,9.964,0S44.232,12.282,41.485,15.029z"/><linearGradient id="JhHNJV3nKJUAuZxp1RgrUv" x1="33.996" x2="33.996" y1="19.974" y2="4.292" gradientUnits="userSpaceOnUse"><stop offset="0" stop-color="#ababab"/><stop offset="1" stop-color="#c0bfbf"/></linearGradient><path fill="url(#JhHNJV3nKJUAuZxp1RgrUv)" d="M27.921,11.365c-1.985,1.985-1.985,5.215,0,7.2s5.215,1.985,7.2,0l4.95-4.95 c1.985-1.985,1.985-5.215,0-7.2s-5.215-1.985-7.2,0L27.921,11.365z M41.356,14.9l-4.95,4.95c-2.694,2.694-7.077,2.694-9.771,0 s-2.694-7.077,0-9.771l4.95-4.95c2.694-2.694,7.077-2.694,9.771,0C44.05,7.823,44.05,12.207,41.356,14.9z"/><linearGradient id="JhHNJV3nKJUAuZxp1RgrUw" x1="33.964" x2="33.964" y1="19.834" y2="4.379" gradientUnits="userSpaceOnUse"><stop offset="0" stop-color="#b4b4b4"/><stop offset="1" stop-color="#c2c1c0"/></linearGradient><path fill="url(#JhHNJV3nKJUAuZxp1RgrUw)" d="M27.793,11.236c-2.038,2.038-2.038,5.355,0,7.392s5.354,2.038,7.392,0l4.95-4.95 c2.038-2.038,2.038-5.355,0-7.392s-5.354-2.038-7.392,0L27.793,11.236z M41.228,14.772l-4.95,4.95 c-2.641,2.641-6.937,2.641-9.578,0s-2.641-6.937,0-9.578l4.95-4.95c2.641-2.641,6.937-2.641,9.578,0S43.868,12.131,41.228,14.772z"/><linearGradient id="JhHNJV3nKJUAuZxp1RgrUx" x1="33.932" x2="33.932" y1="19.693" y2="4.466" gradientUnits="userSpaceOnUse"><stop offset="0" stop-color="#bcbcbc"/><stop offset="1" stop-color="#c3c2c2"/></linearGradient><path fill="url(#JhHNJV3nKJUAuZxp1RgrUx)" d="M27.664,11.108c-2.091,2.091-2.091,5.494,0,7.585s5.494,2.091,7.585,0l4.95-4.95 c2.091-2.091,2.091-5.494,0-7.585s-5.494-2.091-7.585,0L27.664,11.108z M41.099,14.643l-4.95,4.95 c-2.587,2.587-6.798,2.587-9.385,0s-2.587-6.798,0-9.385l4.95-4.95c2.587-2.587,6.798-2.587,9.385,0 C43.687,7.845,43.687,12.056,41.099,14.643z"/><path fill="#c4c4c4" d="M27.536,10.979c-2.144,2.144-2.144,5.634,0,7.778s5.634,2.144,7.778,0l4.95-4.95 c2.144-2.144,2.144-5.634,0-7.778s-5.634-2.144-7.778,0L27.536,10.979z M40.971,14.515l-4.95,4.95 c-2.534,2.534-6.658,2.534-9.192,0s-2.534-6.658,0-9.192l4.95-4.95c2.534-2.534,6.658-2.534,9.192,0S43.505,11.98,40.971,14.515z"/><linearGradient id="JhHNJV3nKJUAuZxp1RgrUy" x1="38.5" x2="38.5" y1="22.763" y2="11.649" gradientTransform="rotate(-45.001 24 23)" gradientUnits="userSpaceOnUse"><stop offset="0" stop-color="#6a6a6a"/><stop offset="1" stop-color="#fff" stop-opacity="0"/></linearGradient><path fill="url(#JhHNJV3nKJUAuZxp1RgrUy)" d="M33.192,6.737l-4.95,4.95c-1.56,1.56-1.56,4.097,0,5.657	c0.121,0.121,0.257,0.216,0.389,0.318c-1.215-1.568-1.121-3.829,0.318-5.268l4.95-4.95c1.439-1.439,3.7-1.533,5.268-0.318	c-0.102-0.132-0.197-0.268-0.318-0.389C37.289,5.177,34.752,5.177,33.192,6.737z"/><linearGradient id="JhHNJV3nKJUAuZxp1RgrUz" x1="38.5" x2="38.5" y1="33.396" y2="26.291" gradientTransform="rotate(-45.001 24 23)" gradientUnits="userSpaceOnUse"><stop offset="0" stop-color="#6a6a6a"/><stop offset="1" stop-color="#939393" stop-opacity="0"/></linearGradient><path fill="url(#JhHNJV3nKJUAuZxp1RgrUz)" d="M41.678,15.222l-4.95,4.95c-3,3-7.804,3.106-10.942,0.336	c0.11,0.125,0.216,0.252,0.336,0.371c3.119,3.119,8.195,3.119,11.314,0l4.95-4.95c3.119-3.119,3.119-8.195,0-11.314	c-0.119-0.119-0.247-0.225-0.371-0.336C44.784,7.418,44.677,12.222,41.678,15.222z"/><linearGradient id="JhHNJV3nKJUAuZxp1RgrUA" x1="38.5" x2="38.5" y1="8.5" y2="21.5" gradientTransform="rotate(-45.001 24 23)" gradientUnits="userSpaceOnUse"><stop offset="0" stop-color="#fff"/><stop offset="1" stop-color="#fff" stop-opacity="0"/></linearGradient><path fill="url(#JhHNJV3nKJUAuZxp1RgrUA)" d="M27.536,10.979c-2.144,2.144-2.144,5.634,0,7.778s5.634,2.144,7.778,0l4.95-4.95	c2.144-2.144,2.144-5.634,0-7.778s-5.634-2.144-7.778,0L27.536,10.979z M40.971,14.515l-4.95,4.95c-2.534,2.534-6.658,2.534-9.192,0	s-2.534-6.658,0-9.192l4.95-4.95c2.534-2.534,6.658-2.534,9.192,0S43.505,11.98,40.971,14.515z"/><linearGradient id="JhHNJV3nKJUAuZxp1RgrUB" x1="9.5" x2="9.5" y1="8.5" y2="21.5" gradientTransform="rotate(-45.001 24 23)" gradientUnits="userSpaceOnUse"><stop offset="0" stop-color="#fff"/><stop offset="1" stop-color="#fff" stop-opacity="0"/></linearGradient><path fill="url(#JhHNJV3nKJUAuZxp1RgrUB)" d="M7.029,31.485c-2.144,2.144-2.144,5.634,0,7.778s5.634,2.144,7.778,0l4.95-4.95	c2.144-2.144,2.144-5.634,0-7.778s-5.634-2.144-7.778,0L7.029,31.485z M20.464,35.021l-4.95,4.95c-2.534,2.534-6.658,2.534-9.192,0	s-2.534-6.658,0-9.192l4.95-4.95c2.534-2.534,6.658-2.534,9.192,0S22.999,32.487,20.464,35.021z"/><linearGradient id="JhHNJV3nKJUAuZxp1RgrUC" x1="29.373" x2="30.864" y1="24.726" y2="27.197" gradientTransform="rotate(-45.001 24 23)" gradientUnits="userSpaceOnUse"><stop offset="0" stop-color="#171714" stop-opacity=".7"/><stop offset="1" stop-color="#171714" stop-opacity="0"/></linearGradient><path fill="url(#JhHNJV3nKJUAuZxp1RgrUC)" d="M32.799,19.071c-1.332,0.351-2.807,0.022-3.849-1.021l-2.828,2.828	c2.63,2.63,6.647,3.033,9.713,1.228L32.799,19.071z"/><linearGradient id="JhHNJV3nKJUAuZxp1RgrUD" x1="27.373" x2="28.864" y1="24.726" y2="27.197" gradientTransform="scale(-1 1) rotate(45 -1 -32.527)" gradientUnits="userSpaceOnUse"><stop offset="0" stop-color="#171714" stop-opacity=".7"/><stop offset="1" stop-color="#171714" stop-opacity="0"/></linearGradient><path fill="url(#JhHNJV3nKJUAuZxp1RgrUD)" d="M20.071,31.799c0.351-1.332,0.022-2.807-1.021-3.849l2.828-2.828	c2.63,2.63,3.033,6.647,1.228,9.713L20.071,31.799z"/><g><linearGradient id="JhHNJV3nKJUAuZxp1RgrUE" x1="24" x2="24" y1="25" y2="21" gradientTransform="rotate(-45.001 24 23)" gradientUnits="userSpaceOnUse"><stop offset="0" stop-color="#6a6a6a"/><stop offset="1" stop-color="#b7b3b0"/></linearGradient><path fill="url(#JhHNJV3nKJUAuZxp1RgrUE)" d="M31.778,18.05L19.05,30.778c-0.781,0.781-2.047,0.781-2.828,0l0,0 c-0.781-0.781-0.781-2.047,0-2.828L28.95,15.222c0.781-0.781,2.047-0.781,2.828,0l0,0C32.559,16.003,32.559,17.269,31.778,18.05z"/><linearGradient id="JhHNJV3nKJUAuZxp1RgrUF" x1="23.997" x2="23.997" y1="25.469" y2="20.438" gradientTransform="matrix(.7337 -.6428 .6428 .7337 -8.395 21.552)" gradientUnits="userSpaceOnUse"><stop offset="0" stop-color="#767676"/><stop offset="1" stop-color="#bcb9b6"/></linearGradient><path fill="url(#JhHNJV3nKJUAuZxp1RgrUF)" d="M31.621,17.951l-12.67,12.67c-0.726,0.726-1.903,0.726-2.629,0l-0.006-0.006 c-0.726-0.726-0.726-1.903,0-2.629l12.67-12.67c0.726-0.726,1.903-0.726,2.629,0l0.006,0.006 C32.347,16.047,32.347,17.225,31.621,17.951z"/><linearGradient id="JhHNJV3nKJUAuZxp1RgrUG" x1="23.987" x2="23.987" y1="25.97" y2="19.842" gradientTransform="matrix(.7604 -.5785 .5785 .7604 -7.555 19.397)" gradientUnits="userSpaceOnUse"><stop offset="0" stop-color="#838383"/><stop offset="1" stop-color="#c2bebc"/></linearGradient><path fill="url(#JhHNJV3nKJUAuZxp1RgrUG)" d="M31.463,17.851L18.851,30.463c-0.671,0.671-1.759,0.671-2.43,0l-0.012-0.012 c-0.671-0.671-0.671-1.759,0-2.43L29.02,15.409c0.671-0.671,1.759-0.671,2.43,0l0.012,0.012 C32.134,16.092,32.134,17.18,31.463,17.851z"/><linearGradient id="JhHNJV3nKJUAuZxp1RgrUH" x1="23.97" x2="23.97" y1="26.487" y2="19.229" gradientTransform="matrix(.787 -.5143 .5143 .787 -6.716 17.241)" gradientUnits="userSpaceOnUse"><stop offset="0" stop-color="#8f8f8f"/><stop offset="1" stop-color="#c7c4c2"/></linearGradient><path fill="url(#JhHNJV3nKJUAuZxp1RgrUH)" d="M31.305,17.752L18.752,30.305c-0.616,0.616-1.615,0.616-2.231,0l-0.018-0.018 c-0.616-0.616-0.616-1.615,0-2.231l12.553-12.553c0.616-0.616,1.615-0.616,2.231,0l0.018,0.018 C31.921,16.137,31.921,17.136,31.305,17.752z"/><linearGradient id="JhHNJV3nKJUAuZxp1RgrUI" x1="23.946" x2="23.946" y1="27.004" y2="18.62" gradientTransform="matrix(.8136 -.45 .45 .8136 -5.876 15.086)" gradientUnits="userSpaceOnUse"><stop offset="0" stop-color="#9b9b9b"/><stop offset="1" stop-color="#cccac8"/></linearGradient><path fill="url(#JhHNJV3nKJUAuZxp1RgrUI)" d="M31.148,17.652L18.652,30.148c-0.561,0.561-1.471,0.561-2.032,0l-0.025-0.025 c-0.561-0.561-0.561-1.471,0-2.032l12.495-12.495c0.561-0.561,1.471-0.561,2.032,0l0.025,0.025 C31.709,16.181,31.709,17.091,31.148,17.652z"/><linearGradient id="JhHNJV3nKJUAuZxp1RgrUJ" x1="23.915" x2="23.915" y1="27.501" y2="18.038" gradientTransform="rotate(-24.658 27.064 17.988) scale(.9245)" gradientUnits="userSpaceOnUse"><stop offset="0" stop-color="#a7a7a7"/><stop offset="1" stop-color="#d1cfce"/></linearGradient><path fill="url(#JhHNJV3nKJUAuZxp1RgrUJ)" d="M30.99,17.553L18.553,29.99c-0.506,0.506-1.327,0.506-1.834,0l-0.031-0.031 c-0.506-0.506-0.506-1.327,0-1.834l12.437-12.437c0.506-0.506,1.327-0.506,1.834,0l0.031,0.031 C31.496,16.226,31.496,17.046,30.99,17.553z"/><linearGradient id="JhHNJV3nKJUAuZxp1RgrUK" x1="23.877" x2="23.877" y1="27.958" y2="17.506" gradientTransform="matrix(.8669 -.3214 .3214 .8669 -4.197 10.776)" gradientUnits="userSpaceOnUse"><stop offset="0" stop-color="#b4b4b4"/><stop offset="1" stop-color="#d7d5d3"/></linearGradient><path fill="url(#JhHNJV3nKJUAuZxp1RgrUK)" d="M30.832,17.453L18.453,29.832c-0.451,0.451-1.183,0.451-1.635,0l-0.037-0.037 c-0.451-0.451-0.451-1.183,0-1.635l12.379-12.379c0.451-0.451,1.183-0.451,1.635,0l0.037,0.037 C31.284,16.27,31.284,17.002,30.832,17.453z"/><linearGradient id="JhHNJV3nKJUAuZxp1RgrUL" x1="23.834" x2="23.834" y1="28.356" y2="17.045" gradientTransform="matrix(.8935 -.2571 .2571 .8935 -3.358 8.62)" gradientUnits="userSpaceOnUse"><stop offset="0" stop-color="silver"/><stop offset="1" stop-color="#dcdad9"/></linearGradient><path fill="url(#JhHNJV3nKJUAuZxp1RgrUL)" d="M30.675,17.354L18.354,29.675c-0.396,0.396-1.039,0.396-1.436,0l-0.043-0.043 c-0.396-0.396-0.396-1.039,0-1.436l12.321-12.321c0.396-0.396,1.039-0.396,1.436,0l0.043,0.043 C31.071,16.315,31.071,16.957,30.675,17.354z"/><linearGradient id="JhHNJV3nKJUAuZxp1RgrUM" x1="23.788" x2="23.788" y1="28.683" y2="16.67" gradientTransform="rotate(-11.84 29.93 15.385) scale(.9401)" gradientUnits="userSpaceOnUse"><stop offset="0" stop-color="#ccc"/><stop offset="1" stop-color="#e1e0df"/></linearGradient><path fill="url(#JhHNJV3nKJUAuZxp1RgrUM)" d="M30.517,17.254L18.254,29.517c-0.341,0.341-0.895,0.341-1.237,0l-0.049-0.049 c-0.341-0.341-0.341-0.895,0-1.237l12.263-12.263c0.341-0.341,0.895-0.341,1.237,0l0.049,0.049 C30.859,16.359,30.859,16.913,30.517,17.254z"/><linearGradient id="JhHNJV3nKJUAuZxp1RgrUN" x1="23.741" x2="23.741" y1="28.929" y2="16.389" gradientTransform="rotate(-7.738 31.037 14.573) scale(.9554)" gradientUnits="userSpaceOnUse"><stop offset="0" stop-color="#d8d8d8"/><stop offset="1" stop-color="#e6e6e5"/></linearGradient><path fill="url(#JhHNJV3nKJUAuZxp1RgrUN)" d="M30.359,17.155L18.155,29.359c-0.287,0.287-0.751,0.287-1.038,0l-0.055-0.055 c-0.287-0.287-0.287-0.751,0-1.038l12.205-12.205c0.287-0.287,0.751-0.287,1.038,0l0.055,0.055 C30.646,16.404,30.646,16.868,30.359,17.155z"/><linearGradient id="JhHNJV3nKJUAuZxp1RgrUO" x1="23.693" x2="23.693" y1="29.093" y2="16.206" gradientTransform="rotate(-3.76 32.246 13.79) scale(.9755)" gradientUnits="userSpaceOnUse"><stop offset="0" stop-color="#e5e5e5"/><stop offset="1" stop-color="#ecebeb"/></linearGradient><path fill="url(#JhHNJV3nKJUAuZxp1RgrUO)" d="M30.202,17.055L18.055,29.202c-0.232,0.232-0.607,0.232-0.839,0l-0.061-0.061 c-0.232-0.232-0.232-0.607,0-0.839l12.146-12.146c0.232-0.232,0.607-0.232,0.839,0l0.061,0.061 C30.433,16.448,30.433,16.824,30.202,17.055z"/><path fill="#f1f1f1" d="M30.044,16.956L17.956,29.044c-0.177,0.177-0.463,0.177-0.64,0l-0.068-0.068 c-0.177-0.177-0.177-0.463,0-0.64l12.088-12.088c0.177-0.177,0.463-0.177,0.64,0l0.068,0.068 C30.221,16.493,30.221,16.779,30.044,16.956z"/></g><radialGradient id="JhHNJV3nKJUAuZxp1RgrUP" cx="-164.376" cy="-46.023" r="5.049" gradientTransform="matrix(-.4049 .4347 -.1589 -.1481 -65.011 93.537)" gradientUnits="userSpaceOnUse"><stop offset="0" stop-color="#fff" stop-opacity=".6"/><stop offset=".999" stop-color="#fff" stop-opacity="0"/></radialGradient><path fill="url(#JhHNJV3nKJUAuZxp1RgrUP)" d="M6.541,31.41c-0.53-0.493,0.058-1.985,1.312-3.331c1.254-1.347,2.701-2.038,3.23-1.545	c0.53,0.493-0.058,1.985-1.312,3.331S7.071,31.903,6.541,31.41z"/><radialGradient id="JhHNJV3nKJUAuZxp1RgrUQ" cx="-213.161" cy="-46.697" r="5.049" gradientTransform="matrix(-.4049 .4347 -.1589 -.1481 -64.367 94.137)" gradientUnits="userSpaceOnUse"><stop offset="0" stop-color="#fff" stop-opacity=".6"/><stop offset=".999" stop-color="#fff" stop-opacity="0"/></radialGradient><path fill="url(#JhHNJV3nKJUAuZxp1RgrUQ)" d="M27.047,10.904c-0.53-0.493,0.058-1.985,1.312-3.331c1.254-1.347,2.701-2.038,3.23-1.545	c0.53,0.493-0.058,1.985-1.312,3.331C29.023,10.706,27.577,11.397,27.047,10.904z"/><radialGradient id="JhHNJV3nKJUAuZxp1RgrUR" cx="-198.042" cy="-50.43" r="4.036" gradientTransform="matrix(-.4049 .4347 -.1589 -.1481 -60.798 97.462)" gradientUnits="userSpaceOnUse"><stop offset="0" stop-color="#fff"/><stop offset=".999" stop-color="#fff" stop-opacity="0"/></radialGradient><path fill="url(#JhHNJV3nKJUAuZxp1RgrUR)" d="M25.553,20.85c-0.423-0.394,0.046-1.587,1.049-2.663c1.003-1.077,2.159-1.63,2.583-1.235	s-0.046,1.587-1.049,2.663C27.132,20.692,25.976,21.245,25.553,20.85z"/><linearGradient id="JhHNJV3nKJUAuZxp1RgrUS" x1="18.282" x2="18.282" y1="38.114" y2="35.631" gradientUnits="userSpaceOnUse"><stop offset="0" stop-color="#6a6a6a"/><stop offset="1" stop-color="#939393" stop-opacity="0"/></linearGradient><polygon fill="url(#JhHNJV3nKJUAuZxp1RgrUS)" points="19.494,38.847 16.717,36.07 17.07,35.717 19.847,38.493"/><linearGradient id="JhHNJV3nKJUAuZxp1RgrUT" x1="39.09" x2="39.09" y1="17.209" y2="14.727" gradientUnits="userSpaceOnUse"><stop offset="0" stop-color="#6a6a6a"/><stop offset="1" stop-color="#939393" stop-opacity="0"/></linearGradient><polygon fill="url(#JhHNJV3nKJUAuZxp1RgrUT)" points="40.302,17.942 37.525,15.166 37.879,14.813 40.656,17.589"/></svg>