<svg xmlns="http://www.w3.org/2000/svg" viewBox="0 0 48 48"><line x1="22.757" x2="16.544" y1="21" y2="6" fill="none" stroke="#9c9c9c" stroke-linecap="round" stroke-linejoin="round" stroke-miterlimit="10"/><line x1="31.456" x2="25.243" y1="42" y2="27" fill="none" stroke="#9c9c9c" stroke-linecap="round" stroke-linejoin="round" stroke-miterlimit="10"/><line x1="21" x2="6" y1="25.243" y2="31.456" fill="none" stroke="#9c9c9c" stroke-linecap="round" stroke-linejoin="round" stroke-miterlimit="10"/><line x1="42" x2="27" y1="16.544" y2="22.757" fill="none" stroke="#9c9c9c" stroke-linecap="round" stroke-linejoin="round" stroke-miterlimit="10"/><line x1="25.243" x2="31.456" y1="21" y2="6" fill="none" stroke="#9c9c9c" stroke-linecap="round" stroke-linejoin="round" stroke-miterlimit="10"/><line x1="16.544" x2="22.757" y1="42" y2="27" fill="none" stroke="#9c9c9c" stroke-linecap="round" stroke-linejoin="round" stroke-miterlimit="10"/><line x1="21" x2="6" y1="22.757" y2="16.544" fill="none" stroke="#9c9c9c" stroke-linecap="round" stroke-linejoin="round" stroke-miterlimit="10"/><line x1="42" x2="27" y1="31.456" y2="25.243" fill="none" stroke="#9c9c9c" stroke-linecap="round" stroke-linejoin="round" stroke-miterlimit="10"/><path fill="none" stroke="#9c9c9c" stroke-linecap="round" stroke-linejoin="round" stroke-miterlimit="10" d="M17.75,8.5	c0,0,2.75,1,6.25,1s6.25-1,6.25-1"/><path fill="none" stroke="#9c9c9c" stroke-linecap="round" stroke-linejoin="round" stroke-miterlimit="10" d="M19.363,12.758	c0,0,2.04,0.742,4.637,0.742s4.637-0.742,4.637-0.742"/><path fill="none" stroke="#9c9c9c" stroke-linecap="round" stroke-linejoin="round" stroke-miterlimit="10" d="M21.25,17.06	c0,0,1.21,0.44,2.75,0.44s2.75-0.44,2.75-0.44"/><path fill="none" stroke="#9c9c9c" stroke-linecap="round" stroke-linejoin="round" stroke-miterlimit="10" d="M22.768,21.26	c0,0,0.542,0.24,1.232,0.24s1.232-0.24,1.232-0.24"/><path fill="none" stroke="#9c9c9c" stroke-linecap="round" stroke-linejoin="round" stroke-miterlimit="10" d="M25.232,26.74	c0,0-0.542-0.24-1.232-0.24s-1.232,0.24-1.232,0.24"/><path fill="none" stroke="#9c9c9c" stroke-linecap="round" stroke-linejoin="round" stroke-miterlimit="10" d="M26.74,22.768	c0,0-0.24,0.542-0.24,1.232s0.24,1.232,0.24,1.232"/><path fill="none" stroke="#9c9c9c" stroke-linecap="round" stroke-linejoin="round" stroke-miterlimit="10" d="M21.26,25.232	c0,0,0.24-0.542,0.24-1.232s-0.24-1.232-0.24-1.232"/><path fill="none" stroke="#9c9c9c" stroke-linecap="round" stroke-linejoin="round" stroke-miterlimit="10" d="M25.066,21.191	c0,0,0.214,0.553,0.702,1.041s1.041,0.702,1.041,0.702"/><path fill="none" stroke="#9c9c9c" stroke-linecap="round" stroke-linejoin="round" stroke-miterlimit="10" d="M22.934,26.809	c0,0-0.214-0.553-0.702-1.041s-1.041-0.702-1.041-0.702"/><path fill="none" stroke="#9c9c9c" stroke-linecap="round" stroke-linejoin="round" stroke-miterlimit="10" d="M26.809,25.066	c0,0-0.553,0.214-1.041,0.702s-0.702,1.041-0.702,1.041"/><path fill="none" stroke="#9c9c9c" stroke-linecap="round" stroke-linejoin="round" stroke-miterlimit="10" d="M21.191,22.934	c0,0,0.553-0.214,1.041-0.702s0.702-1.041,0.702-1.041"/><path fill="none" stroke="#9c9c9c" stroke-linecap="round" stroke-linejoin="round" stroke-miterlimit="10" d="M30.25,39.5	c0,0-2.75-1-6.25-1s-6.25,1-6.25,1"/><path fill="none" stroke="#9c9c9c" stroke-linecap="round" stroke-linejoin="round" stroke-miterlimit="10" d="M28.637,35.242	c0,0-2.04-0.742-4.637-0.742s-4.637,0.742-4.637,0.742"/><path fill="none" stroke="#9c9c9c" stroke-linecap="round" stroke-linejoin="round" stroke-miterlimit="10" d="M26.75,30.94	c0,0-1.21-0.44-2.75-0.44s-2.75,0.44-2.75,0.44"/><path fill="none" stroke="#9c9c9c" stroke-linecap="round" stroke-linejoin="round" stroke-miterlimit="10" d="M39.5,17.75	c0,0-1,2.75-1,6.25s1,6.25,1,6.25"/><path fill="none" stroke="#9c9c9c" stroke-linecap="round" stroke-linejoin="round" stroke-miterlimit="10" d="M35.242,19.363	c0,0-0.742,2.04-0.742,4.637s0.742,4.637,0.742,4.637"/><path fill="none" stroke="#9c9c9c" stroke-linecap="round" stroke-linejoin="round" stroke-miterlimit="10" d="M30.94,21.25	c0,0-0.44,1.21-0.44,2.75s0.44,2.75,0.44,2.75"/><path fill="none" stroke="#9c9c9c" stroke-linecap="round" stroke-linejoin="round" stroke-miterlimit="10" d="M8.5,30.25	c0,0,1-2.75,1-6.25s-1-6.25-1-6.25"/><path fill="none" stroke="#9c9c9c" stroke-linecap="round" stroke-linejoin="round" stroke-miterlimit="10" d="M12.758,28.637	c0,0,0.742-2.04,0.742-4.637s-0.742-4.637-0.742-4.637"/><path fill="none" stroke="#9c9c9c" stroke-linecap="round" stroke-linejoin="round" stroke-miterlimit="10" d="M17.06,26.75	c0,0,0.44-1.21,0.44-2.75s-0.44-2.75-0.44-2.75"/><path fill="none" stroke="#9c9c9c" stroke-linecap="round" stroke-linejoin="round" stroke-miterlimit="10" d="M30.541,8.62	c0,0,1.237,2.652,3.712,5.127s5.127,3.712,5.127,3.712"/><path fill="none" stroke="#9c9c9c" stroke-linecap="round" stroke-linejoin="round" stroke-miterlimit="10" d="M28.67,12.772	c0,0,0.918,1.967,2.754,3.804s3.804,2.754,3.804,2.754"/><path fill="none" stroke="#9c9c9c" stroke-linecap="round" stroke-linejoin="round" stroke-miterlimit="10" d="M26.963,17.148	c0,0,0.544,1.167,1.633,2.256c1.089,1.089,2.256,1.633,2.256,1.633"/><path fill="none" stroke="#9c9c9c" stroke-linecap="round" stroke-linejoin="round" stroke-miterlimit="10" d="M17.459,39.38	c0,0-1.237-2.652-3.712-5.127S8.62,30.541,8.62,30.541"/><path fill="none" stroke="#9c9c9c" stroke-linecap="round" stroke-linejoin="round" stroke-miterlimit="10" d="M19.33,35.228	c0,0-0.918-1.967-2.754-3.804s-3.804-2.754-3.804-2.754"/><path fill="none" stroke="#9c9c9c" stroke-linecap="round" stroke-linejoin="round" stroke-miterlimit="10" d="M21.037,30.852	c0,0-0.544-1.167-1.633-2.256c-1.089-1.089-2.256-1.633-2.256-1.633"/><path fill="none" stroke="#9c9c9c" stroke-linecap="round" stroke-linejoin="round" stroke-miterlimit="10" d="M39.38,30.541	c0,0-2.652,1.237-5.127,3.712s-3.712,5.127-3.712,5.127"/><path fill="none" stroke="#9c9c9c" stroke-linecap="round" stroke-linejoin="round" stroke-miterlimit="10" d="M35.228,28.67	c0,0-1.967,0.918-3.804,2.754s-2.754,3.804-2.754,3.804"/><path fill="none" stroke="#9c9c9c" stroke-linecap="round" stroke-linejoin="round" stroke-miterlimit="10" d="M30.852,26.963	c0,0-1.167,0.544-2.256,1.633c-1.089,1.089-1.633,2.256-1.633,2.256"/><path fill="none" stroke="#9c9c9c" stroke-linecap="round" stroke-linejoin="round" stroke-miterlimit="10" d="M8.62,17.459	c0,0,2.652-1.237,5.127-3.712s3.712-5.127,3.712-5.127"/><path fill="none" stroke="#9c9c9c" stroke-linecap="round" stroke-linejoin="round" stroke-miterlimit="10" d="M12.772,19.33	c0,0,1.967-0.918,3.804-2.754s2.754-3.804,2.754-3.804"/><path fill="none" stroke="#9c9c9c" stroke-linecap="round" stroke-linejoin="round" stroke-miterlimit="10" d="M17.148,21.037	c0,0,1.167-0.544,2.256-1.633c1.089-1.089,1.633-2.256,1.633-2.256"/></svg>