<svg xmlns="http://www.w3.org/2000/svg" xmlns:xlink="http://www.w3.org/1999/xlink" data-name="Слой 1" viewBox="0 0 48 48"><defs><clipPath id="0A8odBY5sIVrytkEGmiQJd"><path fill="none" d="M45.386-1.795l.07.292a.849.849,0,0,1-.625,1.026A.85.85,0,0,1,43.8-1.1l-.083-.344Z"/></clipPath><linearGradient id="0A8odBY5sIVrytkEGmiQJa" x1="-7.957" x2="1.556" y1="27.64" y2="27.64" data-name="Безымянный градиент 41" gradientTransform="matrix(1.754 0 0 1.475 24.247 -16.576)" gradientUnits="userSpaceOnUse"><stop offset="0" stop-color="#8d0000"/><stop offset=".293" stop-color="red"/><stop offset=".404" stop-color="#ea0000"/><stop offset=".634" stop-color="#b40000"/><stop offset=".867" stop-color="#780000"/><stop offset="1" stop-color="#700000"/></linearGradient><linearGradient id="0A8odBY5sIVrytkEGmiQJe" x1="21.45" x2="38.159" y1="88.896" y2="88.896" gradientTransform="matrix(0 1.001 -1.146 0 112.556 6.758)" xlink:href="#0A8odBY5sIVrytkEGmiQJa"/><linearGradient id="0A8odBY5sIVrytkEGmiQJf" x1="22.945" x2="37.357" y1="66.441" y2="66.441" data-name="Безымянный градиент 78" gradientTransform="rotate(32.8 122.058 33.27)" gradientUnits="userSpaceOnUse"><stop offset="0" stop-color="#700000"/><stop offset=".157" stop-color="#8c0000"/><stop offset=".339" stop-color="#a50000"/><stop offset=".504" stop-color="#b50000"/><stop offset=".636" stop-color="#ba0000"/></linearGradient><linearGradient id="0A8odBY5sIVrytkEGmiQJg" x1="26.854" x2="33.547" y1="64.007" y2="70.865" data-name="Безымянный градиент 71" gradientTransform="rotate(32.8 122.058 33.27)" gradientUnits="userSpaceOnUse"><stop offset=".044" stop-color="#b60000"/><stop offset=".142" stop-color="#bd0000"/><stop offset=".416" stop-color="#cd0000"/><stop offset=".636" stop-color="#d20000"/></linearGradient><radialGradient id="0A8odBY5sIVrytkEGmiQJh" cx="28.132" cy="30.7" r="14.397" data-name="Безымянный градиент 292" gradientUnits="userSpaceOnUse"><stop offset="0" stop-color="#dc0000"/><stop offset=".33" stop-color="#c30000" stop-opacity=".627"/><stop offset=".654" stop-color="#ad0000" stop-opacity=".29"/><stop offset=".885" stop-color="#9f0000" stop-opacity=".08"/><stop offset="1" stop-color="#9a0000" stop-opacity="0"/></radialGradient><linearGradient id="0A8odBY5sIVrytkEGmiQJi" x1="13.135" x2="16.987" y1="23.603" y2="26.139" data-name="Безымянный градиент 83" gradientUnits="userSpaceOnUse"><stop offset="0" stop-color="#e32b2b" stop-opacity=".14"/><stop offset=".008" stop-color="#e42c2c" stop-opacity=".176"/><stop offset=".058" stop-color="#ea3232" stop-opacity=".367"/><stop offset=".11" stop-color="#ef3838" stop-opacity=".537"/><stop offset=".164" stop-color="#f33d3d" stop-opacity=".68"/><stop offset=".22" stop-color="#f64040" stop-opacity=".796"/><stop offset=".28" stop-color="#f94343" stop-opacity=".886"/><stop offset=".343" stop-color="#fb4545" stop-opacity=".95"/><stop offset=".414" stop-color="#fc4747" stop-opacity=".988"/><stop offset=".506" stop-color="#fc4747"/><stop offset=".581" stop-color="#fc4646" stop-opacity=".987"/><stop offset=".645" stop-color="#fa4343" stop-opacity=".945"/><stop offset=".705" stop-color="#f83e3e" stop-opacity=".875"/><stop offset=".763" stop-color="#f43737" stop-opacity=".776"/><stop offset=".819" stop-color="#f02e2e" stop-opacity=".649"/><stop offset=".873" stop-color="#ea2323" stop-opacity=".492"/><stop offset=".927" stop-color="#e41616" stop-opacity=".307"/><stop offset=".978" stop-color="#dc0707" stop-opacity=".098"/><stop offset="1" stop-color="#d90000" stop-opacity="0"/></linearGradient><radialGradient id="0A8odBY5sIVrytkEGmiQJj" cx="23.909" cy="10.653" r="9.572" data-name="Безымянный градиент 303" gradientUnits="userSpaceOnUse"><stop offset=".052" stop-color="#ff5a5a"/><stop offset=".925" stop-color="#dc0707" stop-opacity=".964"/><stop offset="1" stop-color="#d90000" stop-opacity=".961"/></radialGradient><linearGradient id="0A8odBY5sIVrytkEGmiQJb" x1="16.525" x2="31.215" y1="16.045" y2="16.045" data-name="Безымянный градиент 145" gradientUnits="userSpaceOnUse"><stop offset="0" stop-color="#965e22"/><stop offset=".106" stop-color="#f7931e"/><stop offset=".186" stop-color="#fcee21"/><stop offset=".232" stop-color="#fdf15f"/><stop offset=".284" stop-color="#fff4a1"/><stop offset=".299" stop-color="#fff498"/><stop offset=".323" stop-color="#fef27f"/><stop offset=".354" stop-color="#fdf056"/><stop offset=".388" stop-color="#fcee21"/><stop offset=".545" stop-color="#f7931e"/><stop offset=".93" stop-color="#754c24"/></linearGradient><linearGradient id="0A8odBY5sIVrytkEGmiQJk" x1="5.147" x2="19.837" y1="33.715" y2="33.715" xlink:href="#0A8odBY5sIVrytkEGmiQJb"/><radialGradient id="0A8odBY5sIVrytkEGmiQJl" cx="30.044" cy="-.758" r="27.248" data-name="Безымянный градиент 118" gradientUnits="userSpaceOnUse"><stop offset=".337" stop-color="#c7b299"/><stop offset=".408" stop-color="#b8a48d"/><stop offset=".778" stop-color="#998675"/><stop offset="1" stop-color="#c7b299"/></radialGradient><radialGradient id="0A8odBY5sIVrytkEGmiQJm" cx="48.717" cy="85.833" r="9.263" gradientTransform="rotate(29.62 142.017 34.346)" gradientUnits="userSpaceOnUse"><stop offset="0" stop-color="#e17567"/><stop offset=".039" stop-color="#e07263"/><stop offset=".686" stop-color="#cc452d"/><stop offset="1" stop-color="#c53318"/></radialGradient><radialGradient id="0A8odBY5sIVrytkEGmiQJn" cx="48.717" cy="85.833" r="8.017" data-name="Безымянный градиент 55" gradientTransform="rotate(29.62 142.017 34.346)" gradientUnits="userSpaceOnUse"><stop offset="0" stop-color="#e8986c"/><stop offset=".039" stop-color="#e79568"/><stop offset=".686" stop-color="#d36732"/><stop offset="1" stop-color="#cc551d"/></radialGradient><radialGradient id="0A8odBY5sIVrytkEGmiQJo" cx="48.717" cy="85.833" r="6.807" data-name="Безымянный градиент 53" gradientTransform="rotate(29.62 142.017 34.346)" gradientUnits="userSpaceOnUse"><stop offset="0" stop-color="#efbc70"/><stop offset=".017" stop-color="#eebb6e"/><stop offset=".679" stop-color="#db8b38"/><stop offset="1" stop-color="#d37823"/></radialGradient><radialGradient id="0A8odBY5sIVrytkEGmiQJp" cx="48.717" cy="85.833" r="5.633" gradientTransform="rotate(29.62 142.017 34.346)" gradientUnits="userSpaceOnUse"><stop offset="0" stop-color="#f6df75"/><stop offset=".017" stop-color="#f5de73"/><stop offset=".679" stop-color="#e2ad3d"/><stop offset="1" stop-color="#da9a28"/></radialGradient><radialGradient id="0A8odBY5sIVrytkEGmiQJq" cx="48.717" cy="85.833" r="5.228" data-name="Безымянный градиент 52" gradientTransform="rotate(29.62 142.017 34.346)" gradientUnits="userSpaceOnUse"><stop offset="0" stop-color="#f9eaa3"/><stop offset=".233" stop-color="#f4dc88"/><stop offset=".749" stop-color="#e8c152"/><stop offset="1" stop-color="#e4b63d"/></radialGradient><radialGradient id="0A8odBY5sIVrytkEGmiQJr" cx="48.717" cy="85.833" r="4.779" data-name="Безымянный градиент 51" gradientTransform="rotate(29.62 142.017 34.346)" gradientUnits="userSpaceOnUse"><stop offset="0" stop-color="#fcf4d1"/><stop offset=".363" stop-color="#f7e69e"/><stop offset=".792" stop-color="#f1d768"/><stop offset="1" stop-color="#efd153"/></radialGradient><radialGradient id="0A8odBY5sIVrytkEGmiQJs" cx="48.717" cy="85.833" r="4.286" gradientTransform="rotate(29.62 142.017 34.346)" gradientUnits="userSpaceOnUse"><stop offset="0" stop-color="#fff"/><stop offset=".454" stop-color="#fcf6b4"/><stop offset=".822" stop-color="#faf07d"/><stop offset="1" stop-color="#f9ed68"/></radialGradient><linearGradient id="0A8odBY5sIVrytkEGmiQJc" x1="29.037" x2="29.136" y1="6.235" y2="9.206" data-name="Безымянный градиент 204" gradientUnits="userSpaceOnUse"><stop offset=".385" stop-color="#c7b299"/><stop offset="1" stop-color="#937861"/></linearGradient><linearGradient id="0A8odBY5sIVrytkEGmiQJt" x1="31.495" x2="32.064" y1="3.603" y2="8.82" xlink:href="#0A8odBY5sIVrytkEGmiQJc"/><linearGradient id="0A8odBY5sIVrytkEGmiQJu" x1="35.535" x2="34.794" y1="3.518" y2="8.487" xlink:href="#0A8odBY5sIVrytkEGmiQJc"/><linearGradient id="0A8odBY5sIVrytkEGmiQJv" x1="37.827" x2="37.231" y1="4.975" y2="9.886" xlink:href="#0A8odBY5sIVrytkEGmiQJc"/><linearGradient id="0A8odBY5sIVrytkEGmiQJw" x1="40.384" x2="39.179" y1="7.606" y2="10.34" xlink:href="#0A8odBY5sIVrytkEGmiQJc"/><linearGradient id="0A8odBY5sIVrytkEGmiQJx" x1="43.015" x2="39.953" y1="11.273" y2="11.409" xlink:href="#0A8odBY5sIVrytkEGmiQJc"/><linearGradient id="0A8odBY5sIVrytkEGmiQJy" x1="44.984" x2="40.729" y1="13.419" y2="13.258" xlink:href="#0A8odBY5sIVrytkEGmiQJc"/><linearGradient id="0A8odBY5sIVrytkEGmiQJz" x1="44.795" x2="41.598" y1="15.563" y2="15.925" xlink:href="#0A8odBY5sIVrytkEGmiQJc"/><linearGradient id="0A8odBY5sIVrytkEGmiQJA" x1="43.546" x2="40.645" y1="18.606" y2="18.408" xlink:href="#0A8odBY5sIVrytkEGmiQJc"/><linearGradient id="0A8odBY5sIVrytkEGmiQJB" x1="38.234" x2="40.08" y1="16.549" y2="21.098" xlink:href="#0A8odBY5sIVrytkEGmiQJc"/><linearGradient id="0A8odBY5sIVrytkEGmiQJC" x1="37.145" x2="38.002" y1="20.256" y2="23.717" xlink:href="#0A8odBY5sIVrytkEGmiQJc"/><linearGradient id="0A8odBY5sIVrytkEGmiQJD" x1="34.825" x2="36.177" y1="23.736" y2="26.439" xlink:href="#0A8odBY5sIVrytkEGmiQJc"/></defs><rect width="16.686" height="29.027" x="10.29" y="9.673" fill="url(#0A8odBY5sIVrytkEGmiQJa)" transform="rotate(32.801 18.634 24.188)"/><ellipse cx="10.649" cy="36.583" fill="url(#0A8odBY5sIVrytkEGmiQJe)" rx="2.914" ry="8.361" transform="rotate(-57.199 10.649 36.583)"/><ellipse cx="26.557" cy="11.903" fill="red" rx="2.542" ry="8.347" transform="rotate(-57.199 26.557 11.904)"/><path fill="url(#0A8odBY5sIVrytkEGmiQJf)" d="M32.616,15.692a.564.564,0,0,1-.44.21c-.447-1.038-2.479-2.89-5.169-4.624-2.788-1.8-5.409-2.9-6.47-2.788a.659.659,0,0,1-.035-.605c.472-.732,3.565.423,6.911,2.58S33.088,14.961,32.616,15.692Z"/><path fill="url(#0A8odBY5sIVrytkEGmiQJg)" d="M32.176,15.9c-1.064.1-3.678-1-6.466-2.8-2.69-1.734-4.722-3.586-5.173-4.616,1.061-.116,3.682.991,6.47,2.788C29.7,13.012,31.729,14.864,32.176,15.9Z"/><path fill="url(#0A8odBY5sIVrytkEGmiQJh)" d="M31.008,19.839c-2.509-1.617-7.073,1-10.195,5.843s-3.619,10.081-1.11,11.7c.075.048.157.08.235.121L31.215,20C31.146,19.948,31.083,19.887,31.008,19.839Z"/><path fill="url(#0A8odBY5sIVrytkEGmiQJi)" d="M24.8,13.23,11.611,33.7l-3.15,4.88a20.024,20.024,0,0,1-3-2.49L8.1,32l13.45-20.87Z"/><path fill="url(#0A8odBY5sIVrytkEGmiQJj)" d="M27.933,9.764c-3.875-2.5-7.627-3.564-8.391-2.379s1.762,4.154,5.638,6.652,7.634,3.568,8.393,2.39S31.809,12.262,27.933,9.764ZM20.5,7.885c.472-.732,3.565.423,6.911,2.58s5.675,4.5,5.2,5.227a.564.564,0,0,1-.44.21c-1.064.1-3.678-1-6.466-2.8-2.69-1.734-4.722-3.586-5.173-4.616A.659.659,0,0,1,20.5,7.885Z"/><path fill="none" d="M42.06,6.53c0,.127.08.21.191.328a2.13,2.13,0,0,0,.664.422.966.966,0,0,0,.171.071c.187.053.437.048.5-.064l0,0,.127-.254L42.225,6.2A.452.452,0,0,0,42.06,6.53Z"/><path fill="url(#0A8odBY5sIVrytkEGmiQJb)" d="M31.215,20.06l-.58.9a22.39,22.39,0,0,1-8.24-3.3,22.414,22.414,0,0,1-5.87-5.62l.58-.91a21.547,21.547,0,0,0,5.84,5.7A21.606,21.606,0,0,0,31.215,20.06Z"/><path fill="url(#0A8odBY5sIVrytkEGmiQJk)" d="M19.837,37.73l-.58.9a22.35,22.35,0,0,1-14.11-8.92l.58-.91a21.394,21.394,0,0,0,14.11,8.93Z"/><path fill="url(#0A8odBY5sIVrytkEGmiQJl)" d="M42.74,16.76c-.36,1.97-1.57,3.71-2.84,5.56a32.27,32.27,0,0,0-2.04,3.21,8.153,8.153,0,0,0-.73,1.88,8.5,8.5,0,0,0-.23,1.66,9,9,0,0,0,.25,2.63.853.853,0,0,1-.62,1.03.714.714,0,0,1-.2.02.845.845,0,0,1-.83-.65,10.884,10.884,0,0,1-.3-3.11A10.489,10.489,0,0,1,35.48,27a9.73,9.73,0,0,1,.88-2.27,34.659,34.659,0,0,1,2.14-3.38,14,14,0,0,0,2.57-4.9A7.333,7.333,0,0,0,38.4,9.78a7.816,7.816,0,0,0-6.58-1.32,7.118,7.118,0,0,0-2.57,1.37.234.234,0,0,0-.07.07,7.485,7.485,0,0,0-.831.831l-.056.064a8.566,8.566,0,0,0-.583.775s-.02.04-.06.11a3.31,3.31,0,0,0-.26.45.922.922,0,0,0-.05.08.169.169,0,0,1-.02.05.328.328,0,0,0-.06.08,1.064,1.064,0,0,1-.31,0c-.07-.01-.12-.02-.14-.02a1.573,1.573,0,0,1-.29-.13,3.022,3.022,0,0,0-.32-.16,1.257,1.257,0,0,1-.36-.37.591.591,0,0,0-.06-.14c.01-.01.01-.03.02-.04s.01-.01.01-.02a9.229,9.229,0,0,1,5.53-4.63,9.469,9.469,0,0,1,8.13,1.63A8.942,8.942,0,0,1,42.74,16.76Z"/><polygon fill="url(#0A8odBY5sIVrytkEGmiQJm)" points="39.743 35.852 45.278 34.956 40.152 33.119 43.053 30.253 38.757 29.766 39.938 24.825 36.311 28.931 33.517 24.686 33.285 29.147 28.283 26.369 30.641 30.707 25.784 31.976 30.368 34.32 27.11 37.108 31.238 36.984 30.988 41.252 34.393 37.844 37.348 44.522 37.602 37.631 40.97 38.841 39.743 35.852"/><polygon fill="url(#0A8odBY5sIVrytkEGmiQJn)" points="39.225 35.512 44.094 34.723 39.585 33.108 42.137 30.586 38.358 30.158 39.396 25.811 36.206 29.423 33.748 25.689 33.544 29.613 29.144 27.17 31.218 30.986 26.945 32.102 30.977 34.164 28.112 36.617 31.744 36.508 31.523 40.263 34.518 37.264 37.118 43.139 37.341 37.077 40.304 38.142 39.225 35.512"/><polygon fill="url(#0A8odBY5sIVrytkEGmiQJo)" points="38.707 35.172 42.911 34.491 39.018 33.096 41.221 30.919 37.958 30.55 38.855 26.798 36.101 29.916 33.979 26.692 33.803 30.08 30.004 27.97 31.795 31.265 28.107 32.229 31.587 34.008 29.114 36.126 32.249 36.032 32.059 39.273 34.644 36.684 36.888 41.756 37.081 36.523 39.639 37.442 38.707 35.172"/><polygon fill="url(#0A8odBY5sIVrytkEGmiQJp)" points="38.189 34.832 41.727 34.259 38.451 33.085 40.305 31.253 37.559 30.942 38.314 27.784 35.996 30.408 34.21 27.695 34.062 30.546 30.865 28.771 32.372 31.543 29.268 32.355 32.197 33.852 30.115 35.635 32.754 35.555 32.594 38.283 34.77 36.105 36.658 40.373 36.821 35.969 38.974 36.742 38.189 34.832"/><polygon fill="url(#0A8odBY5sIVrytkEGmiQJq)" points="37.9 34.642 41.065 34.129 38.134 33.078 39.793 31.439 37.336 31.161 38.011 28.335 35.937 30.683 34.339 28.256 34.206 30.807 31.346 29.218 32.695 31.699 29.917 32.425 32.538 33.765 30.675 35.36 33.036 35.289 32.893 37.73 34.84 35.781 36.53 39.6 36.675 35.659 38.602 36.351 37.9 34.642"/><polygon fill="url(#0A8odBY5sIVrytkEGmiQJr)" points="37.61 34.451 40.404 33.999 37.817 33.072 39.281 31.626 37.113 31.38 37.709 28.886 35.879 30.958 34.468 28.816 34.351 31.067 31.827 29.666 33.017 31.855 30.566 32.495 32.879 33.678 31.235 35.085 33.318 35.023 33.192 37.177 34.91 35.457 36.402 38.827 36.53 35.349 38.23 35.96 37.61 34.451"/><polygon fill="url(#0A8odBY5sIVrytkEGmiQJs)" points="37.321 34.261 39.742 33.869 37.5 33.066 38.769 31.812 36.89 31.599 37.406 29.438 35.82 31.234 34.597 29.377 34.496 31.328 32.308 30.113 33.34 32.011 31.215 32.566 33.22 33.591 31.795 34.811 33.601 34.757 33.491 36.623 34.981 35.133 36.273 38.054 36.384 35.039 37.858 35.569 37.321 34.261"/><path fill="url(#0A8odBY5sIVrytkEGmiQJc)" d="M29.248,9.816l-.285.254a6.127,6.127,0,0,0,.1-.77,6.378,6.378,0,0,0-.065-1.4l.211-.136a5.629,5.629,0,0,1,.1,1.557C29.3,9.493,29.275,9.66,29.248,9.816Z"/><path fill="url(#0A8odBY5sIVrytkEGmiQJt)" d="M31.966,8.42l-.285.093a3.863,3.863,0,0,0,.151-.459,3.8,3.8,0,0,0,.088-.435,3.682,3.682,0,0,0,.009-.918l.248-.044a4.932,4.932,0,0,1-.011,1.006,2.8,2.8,0,0,1-.092.455A2.736,2.736,0,0,1,31.966,8.42Z"/><path fill="url(#0A8odBY5sIVrytkEGmiQJu)" d="M34.325,8.234l.12-.092s.174-.139.3-.271a3.517,3.517,0,0,0,.574-1.238l.248.037c-.023.092-.061.234-.118.4-.233.692-.565,1.2-.77,1.185-.014,0-.055,0-.145-.012S34.376,8.236,34.325,8.234Z"/><path fill="url(#0A8odBY5sIVrytkEGmiQJv)" d="M37.055,8.912c-.221-.072-.329-.116-.324-.133l.009-.006a1.8,1.8,0,0,0,.628-.35,1.669,1.669,0,0,0,.543-.941l.235.1a1.932,1.932,0,0,1-.6,1.012,1.307,1.307,0,0,1-.131.1c-.042.03-.095.067-.166.111C37.2,8.836,37.134,8.873,37.055,8.912Z"/><path fill="url(#0A8odBY5sIVrytkEGmiQJw)" d="M39.343,9.717a2.8,2.8,0,0,0,.4-.241,2.736,2.736,0,0,0,.425-.386l.176.18a2.946,2.946,0,0,1-.432.393,2.968,2.968,0,0,1-1.086.507l-.182-.18A3.662,3.662,0,0,0,39.343,9.717Z"/><path fill="url(#0A8odBY5sIVrytkEGmiQJx)" d="M40.045,11.665l-.137-.192c.131-.016.321-.039.549-.071.269-.037.406-.054.513-.079a3.282,3.282,0,0,0,.718-.26l.1.23a3.616,3.616,0,0,1-.778.278,4.181,4.181,0,0,1-.534.08A3.774,3.774,0,0,1,40.045,11.665Z"/><path fill="url(#0A8odBY5sIVrytkEGmiQJy)" d="M41.624,13.505a3.121,3.121,0,0,1-.779-.1l-.112-.3a3.42,3.42,0,0,0,1.8.006l.056.242A3.108,3.108,0,0,1,41.624,13.505Z"/><path fill="url(#0A8odBY5sIVrytkEGmiQJz)" d="M42.488,16.181a2.107,2.107,0,0,1-1.239-.254,1.12,1.12,0,0,1-.1-.073l.025-.261a1.822,1.822,0,0,0,.174.105,2.4,2.4,0,0,0,1.513.212l-.024.254C42.691,16.177,42.569,16.18,42.488,16.181Z"/><path fill="url(#0A8odBY5sIVrytkEGmiQJA)" d="M41.883,19.155a5.7,5.7,0,0,1-1.088-.9c-.083-.089-.161-.177-.234-.265l.106-.242c.095.111.2.224.312.337A6.071,6.071,0,0,0,42,18.907Z"/><path fill="url(#0A8odBY5sIVrytkEGmiQJB)" d="M40.313,21.706c-.061-.073-.142-.176-.229-.3a3.523,3.523,0,0,1-.4-.744,3.357,3.357,0,0,1-.2-.777l.155-.242c.005.036.012.089.024.153a3.518,3.518,0,0,0,.247.768,4.434,4.434,0,0,0,.265.523,4.331,4.331,0,0,0,.283.418Z"/><path fill="url(#0A8odBY5sIVrytkEGmiQJC)" d="M38.313,24.691a3.358,3.358,0,0,1-.749-1.936l.215-.323a3.267,3.267,0,0,0,.093.833,3.207,3.207,0,0,0,.574,1.2Z"/><path fill="url(#0A8odBY5sIVrytkEGmiQJD)" d="M36.371,27.279a2.1,2.1,0,0,1-.479-.5,2.282,2.282,0,0,1-.227-.413l.12-.353a2.037,2.037,0,0,0,.725,1.058,1.838,1.838,0,0,0,.614.3l-.047.223A1.891,1.891,0,0,1,36.371,27.279Z"/></svg>