<svg xmlns="http://www.w3.org/2000/svg" xmlns:xlink="http://www.w3.org/1999/xlink" viewBox="0 0 48 48"><defs><radialGradient id="0fWAkZb~Z1VOmioLoH8S3f" cx="1.655" cy="8.856" r="53.234" gradientUnits="userSpaceOnUse"><stop offset="0" stop-color="#f0f0dd"/><stop offset="1" stop-color="#e6e6ca"/></radialGradient><radialGradient id="0fWAkZb~Z1VOmioLoH8S3g" cx="1.469" cy="9.089" r="54.441" gradientUnits="userSpaceOnUse"><stop offset="0" stop-color="#ccb088"/><stop offset="1" stop-color="#a68f6e"/></radialGradient><radialGradient id="0fWAkZb~Z1VOmioLoH8S3h" cx="22.066" cy="22.836" r="16.476" gradientUnits="userSpaceOnUse"><stop offset="0" stop-color="#92dcec"/><stop offset="1" stop-color="#3b85d9"/></radialGradient><radialGradient id="0fWAkZb~Z1VOmioLoH8S3a" cx="8.412" cy="20.727" r="5.908" gradientUnits="userSpaceOnUse"><stop offset="0" stop-color="#53b344"/><stop offset=".564" stop-color="#339644"/><stop offset="1" stop-color="#217732"/></radialGradient><linearGradient id="0fWAkZb~Z1VOmioLoH8S3b" x1="9.889" x2="16.652" y1="18.961" y2="13.211" gradientUnits="userSpaceOnUse"><stop offset="0" stop-color="#ade903" stop-opacity="0"/><stop offset=".091" stop-color="#ade903" stop-opacity=".035"/><stop offset=".235" stop-color="#ade903" stop-opacity=".133"/><stop offset=".412" stop-color="#ade903" stop-opacity=".291"/><stop offset=".618" stop-color="#ade903" stop-opacity=".511"/><stop offset=".844" stop-color="#ade903" stop-opacity=".789"/><stop offset="1" stop-color="#ade903"/></linearGradient><radialGradient id="0fWAkZb~Z1VOmioLoH8S3i" cx="7.049" cy="14.611" r="9.431" gradientUnits="userSpaceOnUse"><stop offset="0" stop-color="#339644"/><stop offset=".564" stop-color="#339644"/><stop offset="1" stop-color="#217732"/></radialGradient><linearGradient id="0fWAkZb~Z1VOmioLoH8S3c" x1="17.832" x2="18.344" y1="11.688" y2="16.604" gradientUnits="userSpaceOnUse"><stop offset="0" stop-color="#fdfefe"/><stop offset="1" stop-color="#d7d8da"/></linearGradient><radialGradient id="0fWAkZb~Z1VOmioLoH8S3j" cx="20.645" cy="12.421" r="5.317" xlink:href="#0fWAkZb~Z1VOmioLoH8S3a"/><radialGradient id="0fWAkZb~Z1VOmioLoH8S3k" cx="12.641" cy="30.688" r="6.865" xlink:href="#0fWAkZb~Z1VOmioLoH8S3a"/><linearGradient id="0fWAkZb~Z1VOmioLoH8S3l" x1="16.615" x2="12.398" y1="27.363" y2="28.691" xlink:href="#0fWAkZb~Z1VOmioLoH8S3b"/><linearGradient id="0fWAkZb~Z1VOmioLoH8S3m" x1="13.797" x2="14.123" y1="11.933" y2="13.89" xlink:href="#0fWAkZb~Z1VOmioLoH8S3c"/><linearGradient id="0fWAkZb~Z1VOmioLoH8S3n" x1="14.741" x2="15.137" y1="14.296" y2="15.973" xlink:href="#0fWAkZb~Z1VOmioLoH8S3c"/><radialGradient id="0fWAkZb~Z1VOmioLoH8S3o" cx="35.167" cy="25.778" r="5.596" xlink:href="#0fWAkZb~Z1VOmioLoH8S3a"/><linearGradient id="0fWAkZb~Z1VOmioLoH8S3p" x1="39.511" x2="35.958" y1="28.18" y2="27.854" xlink:href="#0fWAkZb~Z1VOmioLoH8S3b"/><radialGradient id="0fWAkZb~Z1VOmioLoH8S3q" cx="29.802" cy="23.663" r="8.57" gradientUnits="userSpaceOnUse"><stop offset="0" stop-color="#53b344"/><stop offset=".385" stop-color="#339644"/><stop offset="1" stop-color="#217732"/></radialGradient><radialGradient id="0fWAkZb~Z1VOmioLoH8S3r" cx="24.419" cy="14.261" r="14.435" xlink:href="#0fWAkZb~Z1VOmioLoH8S3a"/><radialGradient id="0fWAkZb~Z1VOmioLoH8S3s" cx="27.8" cy="27.262" r=".711" gradientUnits="userSpaceOnUse"><stop offset="0" stop-color="#cf0"/><stop offset=".564" stop-color="#a5e520"/><stop offset="1" stop-color="#8de019"/></radialGradient><linearGradient id="0fWAkZb~Z1VOmioLoH8S3t" x1="30.249" x2="30.412" y1="34.274" y2="36.743" xlink:href="#0fWAkZb~Z1VOmioLoH8S3c"/><linearGradient id="0fWAkZb~Z1VOmioLoH8S3u" x1="8.395" x2="8.395" y1="35.791" y2="36.787" xlink:href="#0fWAkZb~Z1VOmioLoH8S3c"/><linearGradient id="0fWAkZb~Z1VOmioLoH8S3v" x1="14.408" x2="14.286" y1="32.786" y2="37.295" xlink:href="#0fWAkZb~Z1VOmioLoH8S3c"/><radialGradient id="0fWAkZb~Z1VOmioLoH8S3d" cx="7.888" cy="21.217" r="7.969" gradientUnits="userSpaceOnUse"><stop offset="0" stop-color="#fee36b"/><stop offset=".536" stop-color="#eead2e"/><stop offset="1" stop-color="#da7225"/></radialGradient><radialGradient id="0fWAkZb~Z1VOmioLoH8S3w" cx="16.684" cy="26.308" r="8.128" gradientTransform="rotate(86.038 10.114 20.176) scale(1 .534)" xlink:href="#0fWAkZb~Z1VOmioLoH8S3d"/><linearGradient id="0fWAkZb~Z1VOmioLoH8S3x" x1="24.162" x2="25.082" y1="22.299" y2="25.643" xlink:href="#0fWAkZb~Z1VOmioLoH8S3b"/><radialGradient id="0fWAkZb~Z1VOmioLoH8S3y" cx="14.54" cy="25.469" r="4.289" xlink:href="#0fWAkZb~Z1VOmioLoH8S3d"/><radialGradient id="0fWAkZb~Z1VOmioLoH8S3z" cx="23.598" cy="25.428" r="6.182" gradientUnits="userSpaceOnUse"><stop offset="0" stop-color="#fee36b"/><stop offset=".509" stop-color="#eead2e"/><stop offset="1" stop-color="#da7225"/></radialGradient><radialGradient id="0fWAkZb~Z1VOmioLoH8S3A" cx="23.598" cy="25.428" r="6.182" xlink:href="#0fWAkZb~Z1VOmioLoH8S3d"/><radialGradient id="0fWAkZb~Z1VOmioLoH8S3B" cx="27.705" cy="22.824" r="19.137" gradientTransform="matrix(.978 -.211 .067 .309 -.899 21.606)" xlink:href="#0fWAkZb~Z1VOmioLoH8S3d"/><radialGradient id="0fWAkZb~Z1VOmioLoH8S3C" cx="37.998" cy="26.389" r="3.614" xlink:href="#0fWAkZb~Z1VOmioLoH8S3d"/><linearGradient id="0fWAkZb~Z1VOmioLoH8S3D" x1="32.244" x2="33.003" y1="14.6" y2="22.153" xlink:href="#0fWAkZb~Z1VOmioLoH8S3b"/><linearGradient id="0fWAkZb~Z1VOmioLoH8S3E" x1="33.144" x2="36.922" y1="14.17" y2="14.17" xlink:href="#0fWAkZb~Z1VOmioLoH8S3c"/><linearGradient id="0fWAkZb~Z1VOmioLoH8S3F" x1="36.977" x2="43.581" y1="15.33" y2="15.33" xlink:href="#0fWAkZb~Z1VOmioLoH8S3c"/><linearGradient id="0fWAkZb~Z1VOmioLoH8S3G" x1="33.001" x2="32.791" y1="22.2" y2="19.147" xlink:href="#0fWAkZb~Z1VOmioLoH8S3b"/><linearGradient id="0fWAkZb~Z1VOmioLoH8S3H" x1="29.63" x2="29.745" y1="22.527" y2="29.851" gradientUnits="userSpaceOnUse"><stop offset=".201" stop-color="#12365c"/><stop offset="1" stop-color="#123559" stop-opacity="0"/></linearGradient><linearGradient id="0fWAkZb~Z1VOmioLoH8S3I" x1="6.227" x2="6.673" y1="21.896" y2="30.024" gradientUnits="userSpaceOnUse"><stop offset=".145" stop-color="#12365c"/><stop offset=".749" stop-color="#123559" stop-opacity="0"/></linearGradient><linearGradient id="0fWAkZb~Z1VOmioLoH8S3e" x1="18.234" x2="18.234" y1="23.021" y2="4.553" gradientUnits="userSpaceOnUse"><stop offset="0" stop-color="#12365c"/><stop offset=".197" stop-color="#12365c" stop-opacity=".87"/><stop offset=".554" stop-color="#12365b" stop-opacity=".524"/><stop offset="1" stop-color="#123559" stop-opacity="0"/></linearGradient><linearGradient id="0fWAkZb~Z1VOmioLoH8S3J" x1="18.234" x2="18.234" y1="23.234" y2="44.937" xlink:href="#0fWAkZb~Z1VOmioLoH8S3e"/><linearGradient id="0fWAkZb~Z1VOmioLoH8S3K" x1="18.291" x2="18.249" y1="22.052" y2="28.818" gradientUnits="userSpaceOnUse"><stop offset="0" stop-color="#12365c"/><stop offset=".749" stop-color="#123559" stop-opacity="0"/></linearGradient><linearGradient id="0fWAkZb~Z1VOmioLoH8S3L" x1="41.265" x2="41.265" y1="23.395" y2="2.451" xlink:href="#0fWAkZb~Z1VOmioLoH8S3e"/><linearGradient id="0fWAkZb~Z1VOmioLoH8S3M" x1="41.265" x2="41.265" y1="23.043" y2="45.559" xlink:href="#0fWAkZb~Z1VOmioLoH8S3e"/><linearGradient id="0fWAkZb~Z1VOmioLoH8S3N" x1="41.32" x2="41.288" y1="22.509" y2="27.456" gradientUnits="userSpaceOnUse"><stop offset="0" stop-color="#12365c"/><stop offset="1" stop-color="#123559" stop-opacity="0"/></linearGradient></defs><g data-name="World map"><polygon fill="url(#0fWAkZb~Z1VOmioLoH8S3f)" points="1.003 39.379 12.536 38.284 24 39.379 35.464 38.284 46.997 39.379 46.997 8.716 35.534 7.621 24 8.716 12.466 7.621 1.003 8.716 1.003 39.379"/><path fill="url(#0fWAkZb~Z1VOmioLoH8S3g)" d="M35.534,8.171,46.45,9.214V38.777L35.516,37.739l-.052,0-.052,0L24,38.829l-11.412-1.09-.052,0-.052,0L1.55,38.777V9.214L12.466,8.171l11.482,1.09L24,9.266l.052-.005,11.482-1.09m0-.55L24,8.716,12.466,7.621,1,8.716V39.379l11.533-1.095L24,39.379l11.464-1.095L47,39.379V8.716L35.534,7.621Z"/><polygon fill="#968795" points="15.735 36.946 12.481 36.629 11.7 36.716 2.645 37.572 2.645 10.212 12.416 9.276 24.051 10.371 35.481 9.276 45.355 10.212 45.355 37.572 35.413 36.629 24 37.728 15.735 36.946"/><polygon fill="url(#0fWAkZb~Z1VOmioLoH8S3h)" points="44.807 10.709 44.807 36.97 40.054 36.521 35.466 36.083 25.029 37.079 24 37.178 23.31 37.112 19.85 36.784 15.787 36.4 12.534 36.083 11.647 36.171 10.957 36.236 5.832 36.718 3.193 36.97 3.193 10.709 12.468 9.822 24 10.917 35.532 9.822 44.807 10.709"/><polygon fill="url(#0fWAkZb~Z1VOmioLoH8S3a)" points="16.422 18.101 16.422 18.298 16.203 18.298 15.962 18.539 15.25 18.539 15.086 18.703 15.14 18.747 15.359 18.747 15.447 18.67 15.546 18.758 15.546 18.911 15.458 18.999 15.458 19.152 15.546 19.251 15.809 19.251 15.809 19.339 15.6 19.547 15.349 19.547 15.349 19.404 15.425 19.328 15.425 19.229 15.338 19.229 15.184 19.371 14.911 19.371 14.691 19.601 14.691 19.831 14.396 20.127 14.166 20.127 14.078 20.215 14.078 20.401 14.21 20.543 14.21 20.773 14.056 20.926 13.837 20.926 13.596 21.167 13.596 21.386 13.772 21.573 13.772 21.934 13.695 22 13.553 22 13.454 21.912 13.454 21.638 13.191 21.375 12.687 21.375 12.589 21.485 12.457 21.485 12.392 21.419 12.151 21.419 11.855 21.715 11.855 22.492 12.063 22.701 12.534 22.701 12.534 22.547 12.709 22.372 13.016 22.372 13.016 22.558 12.906 22.668 12.906 23.029 13.301 23.029 13.498 23.237 13.498 23.478 13.345 23.642 13.498 23.785 13.991 23.785 14.045 23.85 14.045 23.96 13.98 24.026 13.914 23.96 13.783 23.96 13.662 24.08 13.52 24.08 13.257 23.807 13.071 23.807 12.655 23.39 12.381 23.39 12.151 23.15 11.669 23.15 11.362 22.854 11.067 22.854 10.815 22.591 10.815 22.46 10.913 22.35 10.913 22.197 10.158 21.441 10.158 21.277 9.993 21.124 9.862 21.124 9.862 21.222 9.982 21.343 9.982 21.441 10.377 21.835 10.377 22.054 10.508 22.186 10.508 22.284 10.377 22.284 10.18 22.076 10.18 21.912 9.95 21.682 9.95 21.573 9.555 21.178 9.555 20.937 8.811 20.193 8.811 18.868 8.373 18.43 8.373 18.057 7.606 17.291 7.321 17.006 6.631 17.006 6.358 16.732 5.92 16.732 5.635 17.017 5.635 17.225 5.263 17.597 5.087 17.597 4.989 17.696 4.792 17.696 4.584 17.904 4.375 17.904 4.277 17.816 4.277 17.718 4.496 17.718 4.671 17.543 4.868 17.543 5.065 17.334 5.065 17.192 4.737 17.192 4.584 17.05 4.397 17.05 4.178 16.82 4.178 16.535 4.419 16.294 4.682 16.294 4.77 16.206 4.77 16.119 4.233 16.119 4.091 15.977 4.091 15.823 4.2 15.714 4.507 15.714 4.562 15.768 4.682 15.768 4.737 15.714 4.737 15.626 4.573 15.626 4.529 15.582 4.343 15.407 4.266 15.407 4.211 15.352 4.211 15.265 4.266 15.199 4.529 15.199 4.715 15.013 4.824 15.013 4.967 14.87 5.175 14.87 5.328 14.717 5.438 14.717 5.525 14.805 5.799 14.805 5.931 14.947 6.369 14.947 6.5 15.079 7.124 15.079 7.343 15.308 7.716 15.308 7.989 15.024 8.34 15.024 8.427 14.936 8.548 14.936 8.745 15.133 8.92 15.133 9.019 15.035 9.336 15.035 9.577 15.276 9.829 15.276 10.048 15.495 10.475 15.495 10.64 15.659 10.738 15.659 10.815 15.582 10.716 15.484 10.716 15.407 10.837 15.407 10.902 15.341 11.056 15.341 11.165 15.451 11.319 15.451 11.384 15.528 11.965 15.528 12.227 15.254 12.227 15.155 11.987 14.914 11.987 14.717 12.063 14.64 12.249 14.64 12.37 14.761 12.37 14.881 12.468 14.98 12.468 15.144 12.611 15.298 12.687 15.298 12.775 15.21 12.874 15.21 12.972 15.308 12.972 15.396 12.906 15.462 12.906 15.528 12.961 15.582 13.038 15.582 13.235 15.385 13.235 15.265 13.147 15.177 13.147 15.068 13.421 15.068 13.563 15.21 13.563 15.33 13.509 15.385 13.64 15.517 13.64 15.615 13.443 15.812 13.125 15.812 13.005 15.933 13.005 16.031 12.808 16.228 12.687 16.228 12.556 16.36 12.447 16.36 12.118 16.688 12.118 16.984 12.282 17.148 12.282 17.334 12.425 17.477 12.775 17.477 12.994 17.696 13.421 17.696 13.531 17.805 13.531 18.112 13.761 18.342 13.837 18.342 13.958 18.211 13.958 18.046 13.783 17.871 13.783 17.762 13.925 17.762 14.111 17.564 14.111 17.324 13.947 17.17 13.947 17.05 14.056 16.94 14.056 16.645 13.969 16.546 13.969 16.458 14.045 16.371 14.188 16.371 14.308 16.502 14.538 16.502 14.757 16.721 14.889 16.721 15.075 16.896 15.075 17.083 15.195 17.203 15.305 17.203 15.425 17.083 15.425 16.951 15.524 16.951 15.907 17.324 15.907 17.608 16.082 17.783 16.225 17.783 16.323 17.882 16.323 18.002 16.422 18.101"/><polygon fill="url(#0fWAkZb~Z1VOmioLoH8S3b)" points="16.422 18.101 16.422 18.298 16.203 18.298 15.962 18.539 15.25 18.539 15.086 18.703 15.14 18.747 15.359 18.747 15.447 18.67 15.546 18.758 15.546 18.911 15.458 18.999 15.458 19.152 15.546 19.251 15.809 19.251 15.809 19.339 15.6 19.547 15.349 19.547 15.349 19.404 15.425 19.328 15.425 19.229 15.338 19.229 15.184 19.371 14.911 19.371 14.691 19.601 14.691 19.831 14.396 20.127 14.166 20.127 14.078 20.215 14.078 20.401 14.21 20.543 14.21 20.773 14.056 20.926 13.837 20.926 13.596 21.167 13.596 21.386 13.772 21.573 13.772 21.934 13.695 22 13.553 22 13.454 21.912 13.454 21.638 13.191 21.375 12.687 21.375 12.589 21.485 12.457 21.485 12.392 21.419 12.151 21.419 11.855 21.715 11.855 22.492 12.063 22.701 12.534 22.701 12.534 22.547 12.709 22.372 13.016 22.372 13.016 22.558 12.906 22.668 12.906 23.029 13.301 23.029 13.498 23.237 13.498 23.478 13.345 23.642 13.498 23.785 13.991 23.785 14.045 23.85 14.045 23.96 13.98 24.026 13.914 23.96 13.783 23.96 13.662 24.08 13.52 24.08 13.257 23.807 13.071 23.807 12.655 23.39 12.381 23.39 12.151 23.15 11.669 23.15 11.362 22.854 11.067 22.854 10.815 22.591 10.815 22.46 10.913 22.35 10.913 22.197 10.158 21.441 10.158 21.277 9.993 21.124 9.862 21.124 9.862 21.222 9.982 21.343 9.982 21.441 10.377 21.835 10.377 22.054 10.508 22.186 10.508 22.284 10.377 22.284 10.18 22.076 10.18 21.912 9.95 21.682 9.95 21.573 9.555 21.178 9.555 20.937 8.811 20.193 8.811 18.868 8.373 18.43 8.373 18.057 7.606 17.291 7.321 17.006 6.631 17.006 6.358 16.732 5.92 16.732 5.635 17.017 5.635 17.225 5.263 17.597 5.087 17.597 4.989 17.696 4.792 17.696 4.584 17.904 4.375 17.904 4.277 17.816 4.277 17.718 4.496 17.718 4.671 17.543 4.868 17.543 5.065 17.334 5.065 17.192 4.737 17.192 4.584 17.05 4.397 17.05 4.178 16.82 4.178 16.535 4.419 16.294 4.682 16.294 4.77 16.206 4.77 16.119 4.233 16.119 4.091 15.977 4.091 15.823 4.2 15.714 4.507 15.714 4.562 15.768 4.682 15.768 4.737 15.714 4.737 15.626 4.573 15.626 4.529 15.582 4.343 15.407 4.266 15.407 4.211 15.352 4.211 15.265 4.266 15.199 4.529 15.199 4.715 15.013 4.824 15.013 4.967 14.87 5.175 14.87 5.328 14.717 5.438 14.717 5.525 14.805 5.799 14.805 5.931 14.947 6.369 14.947 6.5 15.079 7.124 15.079 7.343 15.308 7.716 15.308 7.989 15.024 8.34 15.024 8.427 14.936 8.548 14.936 8.745 15.133 8.92 15.133 9.019 15.035 9.336 15.035 9.577 15.276 9.829 15.276 10.048 15.495 10.475 15.495 10.64 15.659 10.738 15.659 10.815 15.582 10.716 15.484 10.716 15.407 10.837 15.407 10.902 15.341 11.056 15.341 11.165 15.451 11.319 15.451 11.384 15.528 11.965 15.528 12.227 15.254 12.227 15.155 11.987 14.914 11.987 14.717 12.063 14.64 12.249 14.64 12.37 14.761 12.37 14.881 12.468 14.98 12.468 15.144 12.611 15.298 12.687 15.298 12.775 15.21 12.874 15.21 12.972 15.308 12.972 15.396 12.906 15.462 12.906 15.528 12.961 15.582 13.038 15.582 13.235 15.385 13.235 15.265 13.147 15.177 13.147 15.068 13.421 15.068 13.563 15.21 13.563 15.33 13.509 15.385 13.64 15.517 13.64 15.615 13.443 15.812 13.125 15.812 13.005 15.933 13.005 16.031 12.808 16.228 12.687 16.228 12.556 16.36 12.447 16.36 12.118 16.688 12.118 16.984 12.282 17.148 12.282 17.334 12.425 17.477 12.775 17.477 12.994 17.696 13.421 17.696 13.531 17.805 13.531 18.112 13.761 18.342 13.837 18.342 13.958 18.211 13.958 18.046 13.783 17.871 13.783 17.762 13.925 17.762 14.111 17.564 14.111 17.324 13.947 17.17 13.947 17.05 14.056 16.94 14.056 16.645 13.969 16.546 13.969 16.458 14.045 16.371 14.188 16.371 14.308 16.502 14.538 16.502 14.757 16.721 14.889 16.721 15.075 16.896 15.075 17.083 15.195 17.203 15.305 17.203 15.425 17.083 15.425 16.951 15.524 16.951 15.907 17.324 15.907 17.608 16.082 17.783 16.225 17.783 16.323 17.882 16.323 18.002 16.422 18.101"/><polygon fill="url(#0fWAkZb~Z1VOmioLoH8S3i)" points="13.233 22.37 13.435 22.168 13.716 22.168 13.868 22.32 14.035 22.32 14.146 22.43 14.282 22.43 14.439 22.588 14.374 22.653 14.091 22.653 14.017 22.579 14.017 22.488 13.822 22.488 13.675 22.342 13.499 22.342 13.404 22.437 13.282 22.437 13.233 22.37"/><polygon fill="url(#0fWAkZb~Z1VOmioLoH8S3i)" points="13.949 22.823 14.024 22.898 14.133 22.898 14.192 22.839 14.192 22.783 13.988 22.783 13.949 22.823"/><polygon fill="url(#0fWAkZb~Z1VOmioLoH8S3i)" points="14.439 22.68 14.564 22.556 14.607 22.556 14.667 22.617 14.852 22.617 14.936 22.7 15.036 22.7 15.107 22.77 15.107 22.869 14.813 22.869 14.75 22.931 14.6 22.931 14.53 22.861 14.414 22.861 14.351 22.798 14.351 22.744 14.42 22.744 14.455 22.779 14.517 22.779 14.553 22.742 14.553 22.701 14.465 22.701 14.439 22.68"/><polygon fill="url(#0fWAkZb~Z1VOmioLoH8S3c)" points="14.947 13.294 14.666 13.294 14.521 13.15 14.521 13.014 14.837 13.014 15.019 12.832 15.289 12.832 15.439 12.681 15.19 12.681 15.127 12.618 15.127 12.582 15.291 12.582 15.455 12.417 15.6 12.417 15.689 12.328 15.811 12.328 15.811 12.207 15.885 12.132 16.142 12.132 16.53 12.132 16.708 11.954 17.311 11.954 17.527 11.738 18.161 11.738 18.256 11.644 19.313 11.644 19.657 11.644 19.93 11.916 20.275 11.916 20.399 12.039 20.273 12.165 20.273 12.22 20.631 12.22 20.738 12.112 21.232 12.112 21.351 12.232 21.351 12.316 21.033 12.635 20.762 12.635 20.507 12.89 20.507 13.128 20.685 13.306 20.685 13.917 20.147 14.455 20.147 14.759 20.259 14.872 20.259 15.049 20.022 15.286 19.543 15.286 19.429 15.4 19.144 15.4 18.701 15.843 18.302 15.843 18.197 15.948 18.197 16.211 17.876 16.531 17.876 16.935 17.692 16.935 17.541 16.783 17.333 16.783 16.875 16.326 16.875 16.014 16.665 15.804 16.665 15.54 16.983 15.222 16.983 15.113 16.874 15.005 16.874 14.817 16.731 14.674 16.651 14.755 16.425 14.755 16.425 14.64 16.574 14.491 16.574 14.383 16.373 14.182 16.373 13.998 16.188 13.813 16.188 13.715 15.858 13.715 15.736 13.594 15.493 13.594 15.346 13.74 15.032 13.74 14.919 13.627 14.788 13.627 14.678 13.517 14.678 13.396 14.851 13.396 14.947 13.294"/><polygon fill="url(#0fWAkZb~Z1VOmioLoH8S3j)" points="20.284 15.902 20.357 15.902 20.432 15.826 20.747 15.826 20.833 15.74 20.922 15.74 21.098 15.915 21.098 16.038 20.943 16.192 20.822 16.192 20.627 16.387 20.368 16.387 20.235 16.254 20.118 16.254 20.118 16.106 19.979 16.106 19.926 16.052 19.926 16.005 20.052 16.005 20.1 15.956 20.1 15.931 19.971 15.931 19.94 15.9 19.94 15.858 20.017 15.781 20.106 15.781 20.15 15.738 20.206 15.738 20.285 15.816 20.284 15.902"/><polygon fill="url(#0fWAkZb~Z1VOmioLoH8S3k)" points="18.831 25.745 18.831 26.041 18.229 26.632 18.229 27.431 17.966 27.694 17.594 27.694 17.254 28.045 17.254 28.428 17.046 28.636 17.046 28.844 16.63 29.26 16.279 29.26 16.279 29.326 16.389 29.446 16.389 29.556 16.126 29.819 15.743 29.819 15.743 30.027 15.688 30.082 15.535 30.082 15.491 30.114 15.491 30.191 15.568 30.268 15.568 30.487 15.436 30.607 15.316 30.607 15.184 30.75 15.184 30.837 15.294 30.947 15.294 31.1 15.119 31.264 15.119 31.385 14.965 31.549 14.965 31.801 15.13 31.976 15.349 31.976 15.436 32.053 15.436 32.151 15.37 32.206 15.173 32.206 15.086 32.305 14.932 32.305 14.659 32.02 14.418 32.02 14.363 31.965 14.363 31.823 14.461 31.713 14.461 31.308 14.286 31.133 14.286 30.859 14.582 30.564 14.582 30.323 14.494 30.235 14.418 30.169 14.418 30.027 14.527 29.917 14.527 29.863 14.44 29.764 14.44 29.534 14.691 29.282 14.691 28.318 14.823 28.176 14.823 27.169 14.461 26.796 14.253 26.796 14.177 26.731 14.177 26.555 14.045 26.424 14.045 26.172 13.804 25.931 13.804 25.854 13.684 25.734 13.684 25.646 13.64 25.614 13.64 25.493 13.815 25.329 13.815 25.219 13.793 25.219 13.772 25.241 13.772 25.274 13.739 25.307 13.706 25.307 13.673 25.274 13.673 25.066 13.914 24.825 13.914 24.727 14.078 24.551 14.078 24.223 14.023 24.168 14.023 24.102 14.199 23.927 14.199 23.796 14.275 23.719 14.429 23.73 14.615 23.533 14.9 23.533 15.086 23.719 15.765 23.719 15.852 23.807 15.852 23.927 15.973 24.059 16.082 24.059 16.301 24.277 16.717 24.277 16.98 24.54 16.98 24.65 17.079 24.759 17.079 24.858 16.915 25.022 16.915 25.099 17.013 25.197 17.123 25.197 17.265 25.055 17.484 25.055 17.648 25.219 17.845 25.219 17.944 25.329 18.251 25.329 18.502 25.57 18.645 25.57 18.831 25.745"/><polygon fill="url(#0fWAkZb~Z1VOmioLoH8S3l)" points="18.831 25.745 18.831 26.041 18.229 26.632 18.229 27.431 17.966 27.694 17.594 27.694 17.254 28.045 17.254 28.428 17.046 28.636 17.046 28.844 16.63 29.26 16.279 29.26 16.279 29.326 16.389 29.446 16.389 29.556 16.126 29.819 15.743 29.819 15.743 30.027 15.688 30.082 15.535 30.082 15.491 30.114 15.491 30.191 15.568 30.268 15.568 30.487 15.436 30.607 15.316 30.607 15.184 30.75 15.184 30.837 15.294 30.947 15.294 31.1 15.119 31.264 15.119 31.385 14.965 31.549 14.965 31.801 15.13 31.976 15.349 31.976 15.436 32.053 15.436 32.151 15.37 32.206 15.173 32.206 15.086 32.305 14.932 32.305 14.659 32.02 14.418 32.02 14.363 31.965 14.363 31.823 14.461 31.713 14.461 31.308 14.286 31.133 14.286 30.859 14.582 30.564 14.582 30.323 14.494 30.235 14.418 30.169 14.418 30.027 14.527 29.917 14.527 29.863 14.44 29.764 14.44 29.534 14.691 29.282 14.691 28.318 14.823 28.176 14.823 27.169 14.461 26.796 14.253 26.796 14.177 26.731 14.177 26.555 14.045 26.424 14.045 26.172 13.804 25.931 13.804 25.854 13.684 25.734 13.684 25.646 13.64 25.614 13.64 25.493 13.815 25.329 13.815 25.219 13.793 25.219 13.772 25.241 13.772 25.274 13.739 25.307 13.706 25.307 13.673 25.274 13.673 25.066 13.914 24.825 13.914 24.727 14.078 24.551 14.078 24.223 14.023 24.168 14.023 24.102 14.199 23.927 14.199 23.796 14.275 23.719 14.429 23.73 14.615 23.533 14.9 23.533 15.086 23.719 15.765 23.719 15.852 23.807 15.852 23.927 15.973 24.059 16.082 24.059 16.301 24.277 16.717 24.277 16.98 24.54 16.98 24.65 17.079 24.759 17.079 24.858 16.915 25.022 16.915 25.099 17.013 25.197 17.123 25.197 17.265 25.055 17.484 25.055 17.648 25.219 17.845 25.219 17.944 25.329 18.251 25.329 18.502 25.57 18.645 25.57 18.831 25.745"/><polygon fill="url(#0fWAkZb~Z1VOmioLoH8S3m)" points="15.815 12.025 15.667 12.173 15.398 12.173 15.195 12.376 15.001 12.376 14.71 12.667 14.71 12.748 14.512 12.748 14.316 12.945 14.316 13.132 14.037 13.411 14.037 13.574 13.803 13.808 13.803 13.982 13.746 14.038 12.535 14.038 12.402 13.905 12.402 13.669 12.311 13.578 12.311 13.502 12.366 13.447 12.674 13.447 12.865 13.255 12.865 13.156 12.381 13.156 11.909 12.684 11.909 12.566 12.201 12.274 12.401 12.274 12.641 12.515 12.699 12.515 12.762 12.452 12.762 12.393 12.573 12.205 12.455 12.205 12.455 12.145 12.504 12.097 12.837 12.097 12.924 12.01 13.609 12.01 13.87 11.749 15.479 11.749 15.638 11.908 15.76 11.908 15.814 11.962 15.815 12.025"/><polygon fill="url(#0fWAkZb~Z1VOmioLoH8S3i)" points="16.453 18.437 16.352 18.437 16.205 18.584 16.205 18.737 16.041 18.902 16.041 19.014 16.422 19.014 16.494 19.086 16.653 19.086 16.712 19.145 16.78 19.145 16.78 19 16.653 18.873 16.653 18.805 16.686 18.772 16.686 18.715 16.477 18.715 16.385 18.623 16.385 18.54 16.453 18.472 16.453 18.437"/><polygon fill="url(#0fWAkZb~Z1VOmioLoH8S3i)" points="13.793 16.217 13.793 16.316 13.706 16.404 13.563 16.404 13.465 16.305 13.377 16.305 13.268 16.404 13.136 16.404 13.005 16.272 13.005 16.174 13.147 16.031 13.147 15.977 13.18 15.944 13.377 15.944 13.553 16.13 13.706 16.13 13.793 16.217"/><polygon fill="url(#0fWAkZb~Z1VOmioLoH8S3n)" points="14.701 14.289 15.104 14.692 15.322 14.692 15.582 14.951 15.582 15.143 15.677 15.238 15.975 15.238 16.117 15.379 16.117 15.492 15.878 15.731 15.76 15.613 15.76 15.524 15.622 15.386 15.51 15.498 15.51 15.608 15.717 15.815 15.717 15.996 15.657 16.056 15.477 16.056 15.119 15.698 14.937 15.698 14.864 15.771 14.727 15.771 14.659 15.703 14.659 15.599 14.719 15.538 14.979 15.538 14.979 15.472 15.131 15.32 15.131 15.246 14.761 14.876 14.65 14.876 14.605 14.921 14.472 14.921 14.371 14.82 14.064 14.82 13.979 14.905 13.864 14.905 13.735 14.777 13.735 14.538 13.833 14.44 13.833 14.336 13.878 14.291 14.701 14.289"/><polygon fill="url(#0fWAkZb~Z1VOmioLoH8S3o)" points="39.584 28.012 39.584 28.746 39.375 28.954 39.375 29.162 39.189 29.359 39.189 29.578 39.135 29.633 39.025 29.633 38.894 29.764 38.795 29.764 38.74 29.72 38.675 29.72 38.543 29.841 38.445 29.841 38.357 29.753 38.149 29.753 38.018 29.622 38.018 29.26 37.853 29.096 37.788 29.096 37.7 29.184 37.59 29.184 37.339 28.921 37.196 28.789 37.185 28.778 36.868 28.778 36.725 28.921 36.473 28.921 36.298 29.107 35.992 29.107 35.751 29.348 35.433 29.348 35.28 29.195 35.28 29.074 35.378 28.976 35.378 28.494 35.137 28.253 35.137 27.76 35.433 27.464 35.597 27.464 35.707 27.355 35.904 27.355 36.024 27.223 36.024 27.015 36.145 26.895 36.287 26.895 36.572 26.621 36.692 26.621 36.78 26.709 36.911 26.709 36.911 26.588 37.087 26.413 37.174 26.413 37.229 26.369 37.623 26.369 37.678 26.424 37.678 26.544 37.536 26.687 37.536 26.785 37.645 26.895 37.908 26.895 38.007 26.993 38.105 26.993 38.258 26.851 38.258 26.358 38.313 26.314 38.346 26.314 38.488 26.457 38.488 26.588 38.642 26.742 38.642 26.884 38.74 26.982 38.74 27.267 38.894 27.267 39.135 27.508 39.135 27.694 39.266 27.694 39.584 28.012"/><polygon fill="url(#0fWAkZb~Z1VOmioLoH8S3p)" points="39.584 28.012 39.584 28.746 39.375 28.954 39.375 29.162 39.189 29.359 39.189 29.578 39.135 29.633 39.025 29.633 38.894 29.764 38.795 29.764 38.74 29.72 38.675 29.72 38.543 29.841 38.445 29.841 38.357 29.753 38.149 29.753 38.018 29.622 38.018 29.26 37.853 29.096 37.788 29.096 37.7 29.184 37.59 29.184 37.339 28.921 37.196 28.789 37.185 28.778 36.868 28.778 36.725 28.921 36.473 28.921 36.298 29.107 35.992 29.107 35.751 29.348 35.433 29.348 35.28 29.195 35.28 29.074 35.378 28.976 35.378 28.494 35.137 28.253 35.137 27.76 35.433 27.464 35.597 27.464 35.707 27.355 35.904 27.355 36.024 27.223 36.024 27.015 36.145 26.895 36.287 26.895 36.572 26.621 36.692 26.621 36.78 26.709 36.911 26.709 36.911 26.588 37.087 26.413 37.174 26.413 37.229 26.369 37.623 26.369 37.678 26.424 37.678 26.544 37.536 26.687 37.536 26.785 37.645 26.895 37.908 26.895 38.007 26.993 38.105 26.993 38.258 26.851 38.258 26.358 38.313 26.314 38.346 26.314 38.488 26.457 38.488 26.588 38.642 26.742 38.642 26.884 38.74 26.982 38.74 27.267 38.894 27.267 39.135 27.508 39.135 27.694 39.266 27.694 39.584 28.012"/><polygon fill="url(#0fWAkZb~Z1VOmioLoH8S3o)" points="38.581 30.074 38.746 30.074 38.795 30.123 38.845 30.123 38.919 30.049 39.012 30.049 39.012 30.321 38.937 30.396 38.937 30.465 38.876 30.526 38.772 30.526 38.646 30.4 38.646 30.215 38.579 30.148 38.581 30.074"/><polygon fill="url(#0fWAkZb~Z1VOmioLoH8S3o)" points="41.572 30.107 41.638 30.173 41.673 30.173 41.719 30.219 41.775 30.219 41.81 30.253 41.759 30.304 41.716 30.304 41.595 30.425 41.595 30.515 41.509 30.6 41.45 30.6 41.45 30.742 41.239 30.952 41.137 30.952 41.072 30.886 40.956 30.886 40.912 30.842 40.912 30.791 41.026 30.677 41.026 30.603 41.117 30.513 41.206 30.513 41.409 30.31 41.409 30.222 41.513 30.118 41.572 30.107"/><polygon fill="url(#0fWAkZb~Z1VOmioLoH8S3o)" points="41.822 29.817 41.917 29.722 41.917 29.584 41.787 29.454 41.787 29.357 41.684 29.254 41.684 29.192 41.725 29.152 41.801 29.152 41.877 29.228 41.877 29.324 42.021 29.467 42.021 29.538 42.105 29.622 42.18 29.622 42.234 29.569 42.325 29.569 42.378 29.622 42.378 29.798 42.315 29.861 42.216 29.861 42.156 29.921 42.156 29.992 42.021 30.126 41.95 30.126 41.914 30.09 41.914 30.028 41.958 29.983 41.958 29.936 41.92 29.898 41.848 29.898 41.822 29.868 41.822 29.817"/><polygon fill="url(#0fWAkZb~Z1VOmioLoH8S3j)" points="23.797 12.777 23.797 12.908 24.054 13.165 24.054 13.307 24.169 13.423 24.284 13.423 24.391 13.529 24.504 13.529 24.674 13.359 24.674 13.242 24.769 13.147 24.769 13.093 24.805 13.056 24.848 13.056 24.888 13.096 24.888 13.139 24.934 13.184 24.934 13.294 24.992 13.352 25.109 13.352 25.147 13.39 25.245 13.39 25.378 13.257 25.378 13.207 25.307 13.135 25.183 13.135 25.068 13.02 24.986 13.02 24.915 12.949 24.915 12.873 24.949 12.839 25.194 12.839 25.254 12.899 25.444 12.899 25.623 12.72 25.623 12.623 25.57 12.57 25.26 12.57 25.207 12.517 25.124 12.517 25.056 12.585 24.968 12.585 24.891 12.508 24.771 12.508 24.646 12.634 24.581 12.698 24.506 12.698 24.464 12.656 24.385 12.656 24.313 12.729 24.216 12.729 24.166 12.678 24.045 12.678 24.013 12.71 23.887 12.71 23.797 12.777"/><path fill="url(#0fWAkZb~Z1VOmioLoH8S3q)" d="M43.373,15.637h-.362l-.317-.329h-.263l-.329-.317h-.843l-.109.109H40.3v-.12l-.12-.121h-.7l-.131-.131h-.121v-.077l-.109-.12h-.219V14.6l-.066.065h-.11v-.12l-.109-.11h-.34l-.065.055v.11l-.186.2h-.23l-.077-.088H37.47l-.077-.077h-.087l-.077.066v.175l-.077.077H37.01l-.033-.033-.087-.087-.033-.033V14.64l.065-.065v-.154l-.208-.208h-.361l-.142.143h-.395l-.12-.121h-.821v-.1l.317-.307v-.12l-.208-.208h-.3l-.087-.088h-.2l-.088-.1h-.339l-.241.252h-.362l-.23.23h-.679l-.405.416h-.624l-.2.2h-.92l-.548.558h-.449l-.252.252h-.547l-.241.241h-.307l-.153-.154h-.285l-.131.132H27.1l-.328-.329h-.34L26,14.673h-.613l-.23.23h-.57l-.427.416v.318l-1.007,1.008v.525l.1.1H23.5l.175-.175H23.8v.219l.2.2h.427v-.154l.186-.186v-.219l-.164-.153v-.263l.142-.142h.154l.262-.263v-.2h.373v.153l-.34.34v.328l.176.175v.165l-.3.295V17.6l-.121.11h-.262l-.274.274H23.157l-.679.689h-.515v.143l.175.175h.285v.23l-.142.142h-.493l-.2.2v.591l.263.252h.492l.176-.186V20l.208-.2h.164l.164-.164H23.3l.186-.175h.23l.6.6h.2l.306.3h.186l.066-.077v-.2l.11-.109h.12l.164.164V20.4l.187.175h.251l.132-.131h.285l.131.131v.383l-.208.219h-.788l-.187-.186h-.263l-.164.164v.154h-.131l-.11-.11h-.131l-.186-.186h-.241l-.132-.142V20.5l-.1-.1h-.175l-.088.087h-.778l-.328.329H21.8l-.252.252v.274l-.832.832v.274l.142.142v.471l-.164.164v.241l.974.975h.756l.208-.208h.394l.2.2h.252l.121.131v.548l.339.328V25.8l.2.208v.372l-.251.252V27.3l.361.361V28.4l.307.307v.427l.131.142h.252l.153-.153h.493l.712-.7V28.2l.263-.274v-.416l-.11-.109v-.154l.055-.054h.241l.405-.406V26.1l-.241-.251V25.5l1.457-1.456v-.274l-.154-.154h-.263l-.186.187h-.383l-.339-.351v-.285l-.351-.35v-.569l-.109-.11-.23-.23v-.219l.065-.066h.165v.2l.043.044.3.307v.372l.537.537V23.5h.142l.12-.12h.329l.285-.285h.339l.57-.559v-.175L29.07,22.2h-.2l-.12.12h-.241l-.3-.3V21.89l-.274-.274v-.2l.077-.076h.121l.46.46h.219l.175.175h.733l.515.514h.2l.143.143v.482l.394.383v.361l.142.132h.132l.317-.307v-.438l.668-.668v-.2l.121-.12h.361l.066.076v.143L33,22.69v.394l.066.066h.076l.066-.066h.23v1.007l.383.395v.273h.164l.1.1h.088l.043-.044-.142-.153v-.285l-.405-.394V23.4h.109l.318.318v.263h.263l.35-.362v-.438l-.306-.306v-.252l.2-.2h.865l.263-.263v-.186l.416-.416v-.395l-.208-.208v-.175l.241-.241v-.109l-.055-.055h-.285l-.1-.088v-.153l.087-.088H35.9l.12.11h.11l.077-.077h.12v.154l.1.087h.087l.055.044v.307l.077.076h.2l.065-.065v-.362l-.1-.109v-.088l.142-.142v-.154l.132-.131h.284l.767-.778v-.175l.263-.263v-.438l-.143-.142h-.186l-.131.131h-.11l-.087-.087v-.165l.668-.668h.569l.11-.109h.2l.087.077h.263L39.715,17v-.066l.241-.241h.164l.153.143h.088l.11-.11.054.055v.109l-.317.318h-.154L40,17.269v.109l-.285.285v.712l.12.109h.154l.383-.372v-.131l.285-.285v-.132L40.6,17.5v-.143l.044-.043v-.252l.087-.088h.241l.121-.12h.153l.11.1h.12l.34-.328h.175l.131-.132h.132l.087.088h.121v-.143l-.132-.131v-.142l.219-.219h.1l.1.109h.165l.186.175h.164l.11-.109V16h.153l.055-.054v-.1ZM27.143,19.8l-.109.11h-.362l-.164-.175h-.274l-.186.208h-.2l-.186-.2v-.132l.109-.12v-.208l.263-.263H26.2l.088.1h.175l.153-.154h.154l.065.055v.109l-.142.143v.066l.11.109h.131l.208.208Zm1.489-.383h-.208l-.054-.055h-.1l-.066.066V19.5l.165.153h.142l.1.1v.131l-.043.044h-.1V20l.077.076v.219l.087.088v.109l-.065.077h-.3l-.121-.12h-.12l-.088-.088v-.142l.143-.132v-.142l-.186-.186-.022-.022v-.2l-.077-.11v-.109l.142-.143h.077l.164-.164h.252l.121.131v.121l.076.077Z"/><polygon fill="url(#0fWAkZb~Z1VOmioLoH8S3r)" points="35.729 24.77 35.729 25.044 35.597 25.165 35.597 25.395 35.422 25.559 35.313 25.559 35.214 25.46 34.907 25.46 34.798 25.351 34.798 25.252 34.655 25.11 34.655 24.858 34.831 24.683 35.028 24.683 35.258 24.431 35.345 24.431 35.455 24.321 35.455 24.212 35.488 24.179 35.575 24.179 35.696 24.299 35.696 24.398 35.575 24.518 35.575 24.628 35.729 24.77"/><polygon fill="url(#0fWAkZb~Z1VOmioLoH8S3r)" points="37.091 25.171 37.197 25.277 37.197 25.43 37.317 25.551 37.793 25.551 37.954 25.712 37.954 25.805 38.093 25.944 38.093 26.005 38.166 26.077 38.416 26.077 38.486 26.007 38.486 25.906 38.542 25.85 38.637 25.85 38.953 26.165 39.072 26.165 39.168 26.262 39.265 26.262 39.265 26.178 39.152 26.065 39.074 26.065 38.926 25.918 38.926 25.862 38.964 25.825 38.964 25.718 38.637 25.391 38.372 25.391 38.269 25.288 38.054 25.288 37.925 25.158 37.824 25.158 37.741 25.241 37.653 25.241 37.55 25.343 37.477 25.343 37.389 25.255 37.389 25.16 37.449 25.101 37.449 25.011 37.337 24.9 37.183 24.9 37.096 24.987 37.091 25.171"/><polygon fill="url(#0fWAkZb~Z1VOmioLoH8S3s)" points="28.304 26.501 28.304 26.884 28.074 27.114 28.074 27.442 27.822 27.694 27.822 27.979 27.669 28.132 27.45 28.132 27.296 27.979 27.296 27.585 27.493 27.388 27.493 26.961 27.669 26.785 27.899 26.785 28.019 26.665 28.019 26.457 28.085 26.391 28.194 26.391 28.304 26.501"/><polygon fill="url(#0fWAkZb~Z1VOmioLoH8S3r)" points="33.183 24.525 33.183 24.715 33.65 25.182 33.65 25.34 33.914 25.604 34.124 25.604 34.311 25.791 35.078 25.791 35.382 26.095 35.382 26.312 35.265 26.429 35.088 26.252 35.088 26.143 34.958 26.013 34.177 26.013 34.067 25.904 33.802 25.904 33.668 25.77 33.668 25.63 33.578 25.539 33.447 25.539 33.447 25.314 33.292 25.159 33.183 25.159 33.049 25.025 33.049 24.807 32.982 24.741 32.982 24.439 32.916 24.373 32.916 24.312 32.975 24.253 33.065 24.253 33.149 24.337 33.149 24.457 33.183 24.525"/><polygon fill="url(#0fWAkZb~Z1VOmioLoH8S3t)" points="40.887 35.382 40.887 35.798 40.679 36.006 40.295 36.006 40.054 36.247 40.054 36.521 35.466 36.083 25.029 37.079 24 37.178 23.31 37.112 19.85 36.784 19.85 36.587 20.025 36.411 20.025 36.16 20.288 35.897 20.715 35.897 21.098 35.524 21.098 35.262 21.273 35.086 21.503 35.086 21.678 35.262 21.974 35.262 22.16 35.448 22.434 35.448 22.675 35.207 23.168 35.207 23.42 34.955 23.803 34.955 23.934 35.086 24.153 35.086 24.318 34.922 25.051 34.922 25.237 35.108 25.895 35.108 26.387 34.615 26.847 34.615 27.023 34.791 27.187 34.791 27.614 34.375 28.249 34.375 28.643 33.98 29.213 33.98 29.498 33.696 29.826 33.696 30.089 33.958 30.089 34.309 30.22 34.429 30.713 34.429 30.812 34.539 30.812 34.703 30.363 35.152 30.363 35.273 30.45 35.36 30.614 35.36 31.162 34.823 31.512 34.823 31.786 34.561 32.159 34.561 32.454 34.265 33.429 34.265 33.615 34.079 34.655 34.079 34.864 33.86 35.269 33.86 35.488 34.068 35.488 34.254 35.663 34.254 35.926 33.991 36.309 33.991 36.462 34.145 36.462 34.32 37.755 34.32 38.05 34.024 39.069 34.024 39.857 34.813 40.131 34.813 40.482 35.163 40.668 35.163 40.887 35.382"/><polygon fill="url(#0fWAkZb~Z1VOmioLoH8S3u)" points="10.859 36.127 10.957 36.236 5.832 36.718 5.832 36.488 6.128 36.192 6.577 36.192 6.763 36.006 7.179 36.006 7.398 35.787 7.781 35.787 7.967 35.962 8.603 35.962 8.734 36.105 8.986 36.105 9.139 35.962 9.501 35.962 9.687 35.765 10.256 35.765 10.431 35.951 10.672 35.951 10.859 36.127"/><polygon fill="url(#0fWAkZb~Z1VOmioLoH8S3v)" points="17.068 33.06 17.068 33.159 16.947 33.279 16.772 33.279 16.674 33.378 16.466 33.378 16.104 33.739 16.104 33.893 16.038 33.947 15.929 33.947 15.677 34.21 15.677 34.473 15.874 34.67 15.874 34.889 16.017 35.021 16.017 35.382 16.192 35.568 16.192 35.787 16.049 35.941 16.049 36.138 15.787 36.4 12.534 36.083 11.647 36.171 11.757 36.061 11.757 35.875 11.932 35.7 12.468 35.7 12.709 35.459 13.246 35.459 13.585 35.798 13.848 35.798 13.991 35.656 14.188 35.656 14.33 35.798 14.976 35.798 15.272 35.502 15.272 34.758 15.425 34.594 15.425 34.134 16.411 33.159 16.619 33.159 16.794 32.973 16.991 32.973 17.068 33.06"/><polygon fill="url(#0fWAkZb~Z1VOmioLoH8S3d)" points="13.191 19.196 13.191 19.722 12.895 20.018 12.578 20.018 12.337 20.269 12.337 20.456 12.425 20.554 12.425 20.718 12.151 20.992 11.866 20.992 11.647 21.222 11.647 21.518 11.461 21.693 11.461 22.284 11.614 22.438 11.614 22.613 11.779 22.777 11.779 22.931 11.997 23.15 11.669 23.15 11.362 22.854 11.067 22.854 10.815 22.591 10.815 22.46 10.913 22.35 10.913 22.197 10.158 21.441 10.158 21.277 9.993 21.124 9.862 21.124 9.862 21.222 9.982 21.343 9.982 21.441 10.377 21.835 10.377 22.054 10.508 22.186 10.508 22.284 10.377 22.284 10.18 22.076 10.18 21.912 9.95 21.682 9.95 21.573 9.555 21.178 9.555 20.937 8.811 20.193 8.811 18.868 8.373 18.43 8.373 18.057 7.606 17.291 7.321 17.006 6.631 17.006 6.358 16.732 5.92 16.732 5.777 16.59 5.777 16.239 6.139 15.878 6.412 15.878 6.664 15.626 7.102 15.626 7.573 16.097 7.573 16.316 8.099 16.316 8.635 16.853 8.854 16.853 9.008 17.006 9.008 17.148 9.117 17.258 9.928 17.258 10.103 17.083 10.322 17.083 10.486 16.918 11.067 16.918 11.45 17.302 11.45 17.772 11.888 18.211 11.888 18.441 12.249 18.802 12.797 18.802 13.191 19.196"/><polygon fill="url(#0fWAkZb~Z1VOmioLoH8S3w)" points="15.458 27.891 15.458 28.406 15.611 28.559 15.611 28.997 15.414 29.184 15.414 29.633 15.195 29.852 15.195 30.355 15.338 30.498 15.338 30.607 15.316 30.607 15.184 30.75 15.184 30.837 15.294 30.947 15.294 31.1 15.119 31.264 15.119 31.385 14.965 31.549 14.965 31.801 15.13 31.976 15.349 31.976 15.436 32.053 15.436 32.151 15.37 32.206 15.173 32.206 15.086 32.305 14.932 32.305 14.659 32.02 14.418 32.02 14.363 31.965 14.363 31.823 14.461 31.713 14.461 31.308 14.286 31.133 14.286 30.859 14.582 30.564 14.582 30.323 14.494 30.235 14.418 30.169 14.418 30.027 14.527 29.917 14.527 29.863 14.44 29.764 14.44 29.534 14.691 29.282 14.691 28.318 14.823 28.176 14.823 27.169 14.461 26.796 14.253 26.796 14.177 26.731 14.177 26.555 14.045 26.424 14.045 26.172 13.804 25.931 13.804 25.854 13.684 25.734 13.684 25.646 13.64 25.614 13.64 25.493 13.815 25.329 13.815 25.219 13.793 25.219 13.772 25.241 13.772 25.274 13.739 25.307 13.706 25.307 13.673 25.274 13.673 25.066 13.914 24.825 13.914 24.727 14.078 24.551 14.078 24.223 14.023 24.168 14.023 24.113 14.264 24.113 14.396 24.245 14.527 24.245 14.691 24.42 14.801 24.42 14.921 24.54 14.921 24.956 14.691 25.175 14.308 25.175 14.122 25.362 14.122 25.646 14.264 25.789 14.823 25.789 15.075 26.041 15.075 26.391 15.305 26.61 15.589 26.61 15.776 26.807 15.776 26.993 15.94 27.158 15.94 27.41 15.458 27.891"/><path fill="url(#0fWAkZb~Z1VOmioLoH8S3x)" d="M28.359,24.048v-.274l-.154-.154h-.263l-.186.187h-.383l-.339-.351v-.285l-.351-.35v-.569l-.109-.11-.274.274h-.471l-.351-.362H25.04l-.328.34h-.723l-.208-.219h-.876l-.482-.482H21.9l-.35-.35-.832.832v.274l.142.142v.471l-.164.164v.241l.974.975h.756l.208-.208h.394l.2.2h.252l.121.131v.548l.339.328V25.8l.2.208v.372l-.251.252V27.3l.361.361V28.4l.307.307v.427l.131.142h.252l.153-.153h.493l.712-.7V28.2l.263-.274v-.416l-.11-.109v-.154l.055-.054h.241l.405-.406V26.1l-.241-.251V25.5Z"/><polygon fill="url(#0fWAkZb~Z1VOmioLoH8S3y)" points="18.831 25.745 18.831 26.041 18.229 26.632 18.229 27.431 17.966 27.694 17.594 27.694 17.254 28.045 17.254 28.428 17.188 28.494 16.586 28.494 16.477 28.373 16.477 28.154 16.356 28.045 16.356 27.859 16.225 27.716 16.225 27.475 16.378 27.322 16.378 27.048 16.29 26.961 15.995 26.961 15.896 26.862 15.896 26.643 15.71 26.457 15.403 26.457 15.338 26.391 15.338 26.216 15.425 26.106 15.589 26.106 15.798 25.909 16.104 25.909 16.279 25.734 16.542 25.734 16.794 25.471 17.32 25.471 17.495 25.646 17.714 25.646 17.9 25.46 18.174 25.46 18.284 25.57 18.645 25.57 18.831 25.745"/><polygon fill="url(#0fWAkZb~Z1VOmioLoH8S3z)" points="28.194 26.391 28.304 26.501 28.304 26.884 28.074 27.114 28.074 27.442 27.822 27.694 27.822 27.979 27.669 28.132 27.45 28.132 27.296 27.979 27.296 27.585 27.493 27.388 27.493 26.961 27.669 26.785 27.899 26.785 28.019 26.665 28.019 26.457 28.085 26.391 28.194 26.391"/><polygon fill="url(#0fWAkZb~Z1VOmioLoH8S3A)" points="28.359 23.774 28.359 24.048 26.902 25.504 26.902 25.844 27.143 26.095 27.143 26.785 26.738 27.191 26.497 27.191 26.442 27.245 26.442 27.399 26.552 27.508 26.552 27.924 26.289 28.198 26.289 28.417 25.577 29.118 25.084 29.118 24.931 29.271 24.679 29.271 24.548 29.129 24.548 28.702 24.241 28.395 24.241 27.661 23.88 27.3 23.88 26.632 24.131 26.38 24.131 26.008 23.934 25.8 23.934 25.438 23.595 25.11 23.595 24.562 23.474 24.431 23.222 24.431 23.025 24.234 23.529 23.73 24.077 23.73 24.252 23.555 24.767 23.555 25.227 24.004 25.708 24.004 25.938 23.774 26.201 23.774 26.705 23.259 26.705 22.843 27.034 23.171 27.034 23.456 27.373 23.807 27.756 23.807 27.942 23.62 28.205 23.62 28.359 23.774"/><path fill="url(#0fWAkZb~Z1VOmioLoH8S3B)" d="M38.894,16.754h-.526l-.12-.12V16.5l-.307-.306h-.6l-.165.153v.3l.154.153v.209h-.32l-.2-.2h-.642l-.2.2h-.379v-.134l.225-.224v-.336l-.344-.344h-.431l-.277-.277h-.406l-.2.2h-.629l-.262.262h-.65l-.165.166v.273l.312.312v.389l.419.419-.174.174h-.679l-.274.274h-.405l-.372.361H30.4l-.439.449v.613l-.328.318v.394l-.263.274H28.271l-.121-.12h-.12l-.088-.088v-.142l.143-.132v-.142l-.186-.186-.033-.011-.3-.3H27.4l-.132-.131V18.8l-.317-.318h-.383l-.154.165H25.73l-.317.317v.34l-.176.175H24.9l-.58.58h.2l.306.3h.186l.066-.077v-.2l.11-.109h.12l.164.164V20.4l.187.175h.251l.132-.131h.285l.131.131v.383l-.208.219h-.788l-.187-.186h-.263l-.164.164v.154h-.131l-.11-.11h-.131l-.186-.186h-.241l-.132-.142V20.5l-.1-.1h-.175l-.088.087h-.778l-.328.329H21.8l-.252.252v.274l.35.35h.526l.482.482h.876l.208.219h.723l.328-.34h.438l.351.362H26.3l.274-.274-.23-.23v-.219l.065-.066h.165v.2l.043.044.3.307v.372l.537.537V23.5h.142l.12-.12h.329l.285-.285h.339l.57-.559v-.175L29.07,22.2h-.2l-.12.12h-.241l-.3-.3V21.89l-.274-.274v-.2l.077-.076h.121l.46.46h.219l.175.175h.7l.011-.022.2-.186h.35v-.34l.383-.394h1.041l.383-.383h.865l.329-.329h1.029l.493.5H35.4l.285-.285h.493v-.109l-.055-.055h-.285l-.1-.088v-.153l.087-.088H35.9l.12.11h.11l.077-.077h.12v.154l.1.087h.087l.055.044v.307l.077.076h.2l.065-.065v-.362l-.1-.109v-.088l.142-.142v-.154l.132-.131h.284l.767-.778v-.175l.263-.263v-.438l-.143-.142h-.186l-.131.131h-.11l-.087-.087v-.165l.668-.668h.569l.11-.109h.033v-.033ZM27.143,19.8l-.109.11h-.362l-.164-.175h-.274l-.186.208h-.2l-.186-.2v-.132l.109-.12v-.208l.263-.263H26.2l.088.1h.175l.153-.154h.154l.065.055v.109l-.142.143v.066l.11.109h.131l.208.208Z"/><polygon fill="url(#0fWAkZb~Z1VOmioLoH8S3C)" points="38.226 27.442 38.226 27.738 38.007 27.957 38.007 28.165 37.886 28.286 37.886 28.45 37.711 28.625 37.36 28.625 37.196 28.789 37.185 28.778 36.868 28.778 36.725 28.921 36.473 28.921 36.298 29.107 35.992 29.107 35.751 29.348 35.433 29.348 35.28 29.195 35.28 29.074 35.378 28.976 35.378 28.494 35.137 28.253 35.137 27.76 35.433 27.464 35.597 27.464 35.707 27.355 35.904 27.355 36.024 27.223 36.024 27.015 36.145 26.895 36.287 26.895 36.572 26.621 36.692 26.621 36.78 26.709 36.911 26.709 36.911 26.588 37.087 26.413 37.174 26.413 37.229 26.369 37.623 26.369 37.678 26.424 37.678 26.544 37.536 26.687 37.536 26.785 37.645 26.895 37.908 26.895 38.007 26.993 38.007 27.223 38.226 27.442"/><polygon fill="url(#0fWAkZb~Z1VOmioLoH8S3C)" points="39.584 28.012 39.584 28.746 39.375 28.954 39.375 29.162 39.189 29.359 38.959 29.129 38.959 28.713 39.178 28.505 39.178 28.297 38.894 28.012 38.686 28.012 38.521 27.848 38.521 27.344 38.642 27.223 38.642 26.884 38.74 26.982 38.74 27.267 38.894 27.267 39.135 27.508 39.135 27.694 39.266 27.694 39.584 28.012"/><path fill="url(#0fWAkZb~Z1VOmioLoH8S3D)" d="M43.373,15.637h-.362l-.317-.329h-.263l-.329-.317h-.843l-.109.109H40.3v-.12l-.12-.121h-.7l-.131-.131h-.121v-.077l-.109-.12h-.219V14.6l-.066.065h-.11v-.12l-.109-.11h-.34l-.065.055v.11l-.186.2h-.23l-.077-.088H37.47l-.077-.077h-.087l-.077.066v.175l-.077.077H37.01l-.033-.033-.087-.087-.033-.033V14.64l.065-.065v-.154l-.208-.208h-.361l-.142.143h-.395l-.12-.121h-.821v-.1l.317-.307v-.12l-.208-.208h-.3l-.087-.088h-.2l-.088-.1h-.339l-.241.252h-.362l-.23.23h-.679l-.405.416h-.624l-.2.2h-.92l-.548.558h-.449l-.252.252h-.547l-.241.241h-.307l-.153-.154h-.285l-.131.132H27.1l-.328-.329h-.34L26,14.673h-.613l-.23.23h-.57l-.427.416v.318l-1.007,1.008v.525l.1.1H23.5l.175-.175H23.8v.219l.2.2h.427v-.154l.186-.186v-.219l-.164-.153v-.263l.142-.142h.154l.262-.263v-.2h.373v.153l-.34.34v.328l.176.175v.165l-.3.295V17.6l-.121.11h-.262l-.274.274H23.157l-.679.689h-.515v.143l.175.175h.285v.23l-.142.142h-.493l-.2.2v.591l.263.252h.492l.176-.186V20l.208-.2h.164l.164-.164H23.3l.186-.175h.23l.6.6.58-.58h.339l.176-.175v-.34l.317-.317h.679l.154-.165h.383l.317.318v.515l.132.131h.175l.3.3.033.011-.022-.022v-.2l-.077-.11v-.109l.142-.143h.077l.164-.164h.252l.121.131v.121l.076.077v.076h-.208l-.054-.055h-.1l-.066.066V19.5l.165.153h.142l.1.1v.131l-.043.044h-.1V20l.077.076v.219l.087.088v.109l-.065.077h.8l.263-.274V19.9l.328-.318v-.613l.439-.449h.887l.372-.361h.405l.274-.274h.679l.175-.175-.416-.416V16.9l-.318-.306v-.274l.165-.164h.657l.263-.263h.624l.2-.2h.405l.274.274h.438l.339.35v.329l-.219.23v.131h.373l.2-.2h.646l.2.2h.318V16.8l-.154-.153v-.3l.165-.153h.6l.307.306v.132l.12.12h.526l.23.219v.033h.164l.087.077h.263L39.715,17v-.066l.241-.241h.164l.153.143h.088l.11-.11.054.055v.109l-.317.318h-.154L40,17.269v.109l-.285.285v.712l.12.109h.154l.383-.372v-.131l.285-.285v-.132L40.6,17.5v-.143l.044-.043v-.252l.087-.088h.241l.121-.12h.153l.11.1h.12l.34-.328h.175l.131-.132h.132l.087.088h.121v-.143l-.132-.131v-.142l.219-.219h.1l.1.109h.165l.186.175h.164l.11-.109V16h.153l.055-.054v-.1Z"/><polygon fill="url(#0fWAkZb~Z1VOmioLoH8S3E)" points="36.714 14.213 36.922 14.421 36.922 14.575 36.857 14.64 36.857 14.794 36.89 14.827 36.364 14.827 36.167 15.024 35.762 15.024 35.521 14.794 34.918 14.794 34.623 14.498 34.623 14.159 34.393 13.929 34.108 13.929 33.878 14.148 33.495 14.148 33.144 13.797 33.374 13.567 33.736 13.567 33.977 13.315 34.316 13.315 34.404 13.414 34.601 13.414 34.688 13.502 34.984 13.502 35.192 13.71 35.192 13.83 34.875 14.137 34.875 14.235 35.696 14.235 35.816 14.356 36.211 14.356 36.353 14.213 36.714 14.213"/><polygon fill="url(#0fWAkZb~Z1VOmioLoH8S3F)" points="43.581 15.845 43.581 15.944 43.526 15.998 43.373 15.998 43.373 16.119 43.263 16.228 43.099 16.228 42.913 16.053 42.748 16.053 42.65 15.944 42.65 15.79 42.464 15.79 42.201 15.528 41.741 15.528 41.5 15.758 40.241 15.758 39.89 15.407 39.474 15.407 39.047 14.98 38.587 14.98 38.237 15.341 37.952 15.341 37.809 15.188 37.481 15.188 37.35 15.319 37.152 15.319 36.977 15.144 36.977 14.914 37.01 14.947 37.152 14.947 37.229 14.87 37.229 14.695 37.306 14.629 37.393 14.629 37.47 14.706 37.711 14.706 37.788 14.794 38.018 14.794 38.204 14.597 38.204 14.487 38.269 14.432 38.609 14.432 38.718 14.542 38.718 14.662 38.828 14.662 38.894 14.597 38.894 14.531 39.113 14.531 39.222 14.651 39.222 14.728 39.343 14.728 39.474 14.859 40.175 14.859 40.295 14.98 40.295 15.1 41.15 15.1 41.259 14.991 42.102 14.991 42.431 15.308 42.694 15.308 43.011 15.637 43.373 15.637 43.581 15.845"/><path fill="url(#0fWAkZb~Z1VOmioLoH8S3G)" d="M35.937,20.784l.241-.241h-.493l-.285.285h-.624l-.493-.5H33.254l-.329.329H32.06l-.383.383H30.636l-.383.394v.34H29.9l-.2.186-.011.022h.032l.515.514h.2l.143.143v.482l.394.383v.361l.142.132h.132l.317-.307v-.438l.668-.668v-.2l.121-.12h.361l.066.076v.143L33,22.69v.394l.066.066h.076l.066-.066h.23v1.007l.383.395v.273h.164l.1.1h.088l.043-.044-.142-.153v-.285l-.405-.394V23.4h.109l.318.318v.263h.263l.35-.362v-.438l-.306-.306v-.252l.2-.2h.865l.263-.263v-.186l.416-.416v-.395l-.208-.208Z"/><polygon fill="url(#0fWAkZb~Z1VOmioLoH8S3H)" points="35.532 22.931 35.532 38.295 35.466 38.284 24 39.379 24 24.026 35.532 22.931" opacity=".65"/><polygon fill="url(#0fWAkZb~Z1VOmioLoH8S3I)" points="12.468 22.931 12.468 38.295 1.003 39.379 1.003 24.026 12.468 22.931" opacity=".3"/><polygon fill="url(#0fWAkZb~Z1VOmioLoH8S3e)" points="24 8.716 24 24.026 12.468 22.931 12.468 7.621 24 8.716" opacity=".75"/><polygon fill="url(#0fWAkZb~Z1VOmioLoH8S3J)" points="24 24.026 24 39.379 12.534 38.284 12.468 38.295 12.468 22.931 24 24.026" opacity=".75"/><polygon fill="url(#0fWAkZb~Z1VOmioLoH8S3K)" points="24 24.026 24 39.379 12.534 38.284 12.468 38.295 12.468 22.931 24 24.026" opacity=".4"/><polygon fill="url(#0fWAkZb~Z1VOmioLoH8S3L)" points="46.997 8.716 46.997 24.026 35.532 22.931 35.532 7.621 46.997 8.716" opacity=".7"/><polygon fill="url(#0fWAkZb~Z1VOmioLoH8S3M)" points="46.997 24.026 46.997 39.379 35.532 38.295 35.532 22.931 46.997 24.026" opacity=".7"/><polygon fill="url(#0fWAkZb~Z1VOmioLoH8S3N)" points="46.997 24.026 46.997 39.379 35.532 38.295 35.532 22.931 46.997 24.026" opacity=".4"/></g></svg>