<svg xmlns="http://www.w3.org/2000/svg" viewBox="0 0 48 48"><linearGradient id="X6BrxWsEbLbgzM947EMcea" x1="25" x2="25" y1="-12.94" y2="63.944" gradientUnits="userSpaceOnUse"><stop offset=".252" stop-color="#efebe9"/><stop offset=".584" stop-color="#e4e1da"/><stop offset="1" stop-color="#d9d8cb"/></linearGradient><path fill="url(#X6BrxWsEbLbgzM947EMcea)" d="M40.139,14.963L29.037,3.861C27.846,2.669,26.23,2,24.545,2H8v44h34V19.455 C42,17.77,41.331,16.154,40.139,14.963z"/><linearGradient id="X6BrxWsEbLbgzM947EMceb" x1="28.868" x2="43.832" y1="20.132" y2="5.168" gradientUnits="userSpaceOnUse"><stop offset="0" stop-color="#efebe9" stop-opacity="0"/><stop offset=".235" stop-color="#d1cfc9" stop-opacity=".323"/><stop offset=".385" stop-color="#c3c1ba" stop-opacity=".529"/><stop offset=".403" stop-color="#c0beb5" stop-opacity=".542"/><stop offset=".514" stop-color="#b0ae9e" stop-opacity=".618"/><stop offset=".633" stop-color="#a5a28d" stop-opacity=".699"/><stop offset=".763" stop-color="#9e9b83" stop-opacity=".788"/><stop offset=".927" stop-color="#9c9980" stop-opacity=".9"/></linearGradient><path fill="url(#X6BrxWsEbLbgzM947EMceb)" d="M40.139,14.963L29.037,3.861C27.846,2.669,26.23,2,24.545,2H8v44h34V19.455 C42,17.77,41.331,16.154,40.139,14.963z"/><linearGradient id="X6BrxWsEbLbgzM947EMcec" x1="37.347" x2="4.552" y1="9.153" y2="41.948" gradientUnits="userSpaceOnUse"><stop offset="0" stop-color="#968c88" stop-opacity=".8"/><stop offset=".126" stop-color="#a19692" stop-opacity=".8"/><stop offset=".288" stop-color="#b5a9a5" stop-opacity=".8"/></linearGradient><path fill="url(#X6BrxWsEbLbgzM947EMcec)" d="M18,13v-1h6v1H18z M23,18v1h7v-1H23z M20,9h-7v1h7V9z M26,22v-1h-6v1H26z M27,21v1h5v-1H27z M28,15v1h4v-1H28z M25,12v1h8v-1H25z M38,18h-7v1h7V18z M26,16v-1h-7v1H26z M30,33v1h7v-1H30z M26,30v1h8v-1H26z M23,34v-1h-5v1 H23z M29,34v-1h-5v1H29z M22,19v-1h-5v1H22z M23,24v1h7v-1H23z M29,28h4v-1h-4V28z M28,28v-1h-9v1H28z M35,31h2v-1h-2V31z M34,28h3 v-1h-3V28z M31,25h4v-1h-4V25z M33,21.5h5v-1h-5V21.5z M17,12h-4v1h4V12z M33,16h3v-1h-3V16z M22,24h-9v1h9V24z M16,18h-3v1h3V18z M19,21h-6v1h6V21z M18,15h-5v1h5V15z M17,33h-4v1h4V33z M26,37v-1h-5v1H26z M32,37v-1h-5v1H32z M20,36h-7v1h7V36z M17,40h-4v1h4 V40z M25,40h-7v1h7V40z M18,27h-5v1h5V27z M25,30H13v1h12V30z"/><linearGradient id="X6BrxWsEbLbgzM947EMced" x1="30.059" x2="39.702" y1="13.941" y2="4.298" gradientUnits="userSpaceOnUse"><stop offset=".07" stop-color="#fdfdfd"/><stop offset=".167" stop-color="#f9f9f7"/><stop offset=".29" stop-color="#eeede8"/><stop offset=".408" stop-color="#dedcd2"/><stop offset=".46" stop-color="#dfddd4"/><stop offset=".479" stop-color="#e4e2db"/><stop offset=".492" stop-color="#ede9e6"/><stop offset=".494" stop-color="#efebe9"/></linearGradient><path fill="url(#X6BrxWsEbLbgzM947EMced)" d="M40.139,14.963L29.037,3.861c-0.532-0.532-1.152-0.954-1.822-1.264 C29.263,3.935,30,5.583,30,14c8.417,0,10.065,0.737,11.404,2.785C41.093,16.115,40.672,15.495,40.139,14.963z"/></svg>