<svg xmlns="http://www.w3.org/2000/svg" viewBox="0 0 48 48"><radialGradient id="KUVvoqs60lViVvpS83ruFa" cx="15.106" cy="19.662" r="9.732" fx="24.813" fy="20.347" gradientUnits="userSpaceOnUse"><stop offset=".013" stop-color="#ffe8e6"/><stop offset=".395" stop-color="#ff7265"/><stop offset=".761" stop-color="#cc564b"/><stop offset=".797" stop-color="#af463d"/><stop offset="1" stop-color="#963830"/></radialGradient><path fill="url(#KUVvoqs60lViVvpS83ruFa)" d="M13,25c-2.539,0-7.999-1.929-7.999-8c0-5.881,5.999-6.968,5.999-8	c0-0.343,0.485-0.654,0.622-0.68C12.794,8.101,16.989,15.385,17,18C17.004,18.973,15.539,25,13,25z"/><radialGradient id="KUVvoqs60lViVvpS83ruFb" cx="19.834" cy="2.628" r="30.647" gradientUnits="userSpaceOnUse"><stop offset=".301" stop-color="#ffd9a1"/><stop offset=".729" stop-color="#e8812a"/><stop offset=".823" stop-color="#a3591e"/><stop offset=".905" stop-color="#6d3b14"/><stop offset=".967" stop-color="#4c280e"/><stop offset="1" stop-color="#40210c"/></radialGradient><path fill="url(#KUVvoqs60lViVvpS83ruFb)" d="M13,7c0.993,0,2.031,1,3,1s2.705-1,5-1c8.159,0,11,5.987,11,11c-1.596,2.011-9.429,14-10,14	c-7.956,0-11-5.37-11-10.002c0-5.835,3-7.158,3-9.998c0-1.208-0.677-3-3-3C11,7.781,11.953,7,13,7z"/><radialGradient id="KUVvoqs60lViVvpS83ruFc" cx="10.198" cy="24.731" r="27.181" gradientUnits="userSpaceOnUse"><stop offset="0" stop-color="#c76f24" stop-opacity=".2"/><stop offset=".092" stop-color="#c76f24" stop-opacity="0"/><stop offset=".193" stop-color="#c76f24" stop-opacity=".2"/><stop offset=".212" stop-color="#c76f24" stop-opacity="0"/><stop offset=".329" stop-color="#c76f24" stop-opacity=".2"/><stop offset=".354" stop-color="#c76f24" stop-opacity="0"/><stop offset=".483" stop-color="#c76f24" stop-opacity=".2"/><stop offset=".51" stop-color="#c76f24" stop-opacity="0"/><stop offset=".627" stop-color="#c76f24" stop-opacity=".2"/><stop offset=".658" stop-color="#c76f24" stop-opacity="0"/><stop offset=".768" stop-color="#c76f24" stop-opacity=".2"/><stop offset=".787" stop-color="#c76f24" stop-opacity="0"/><stop offset=".885" stop-color="#c76f24" stop-opacity=".2"/><stop offset=".91" stop-color="#c76f24" stop-opacity="0"/></radialGradient><path fill="url(#KUVvoqs60lViVvpS83ruFc)" d="M13,7c0.993,0,2.031,1,3,1s2.705-1,5-1c8.159,0,11,5.987,11,11c-1.596,2.011-9.429,14-10,14	c-7.956,0-11-5.37-11-10.002c0-5.835,3-7.158,3-9.998c0-1.208-0.677-3-3-3C11,7.781,11.953,7,13,7z"/><radialGradient id="KUVvoqs60lViVvpS83ruFd" cx="26.907" cy="12.5" r="24.714" gradientUnits="userSpaceOnUse"><stop offset=".301" stop-color="#ffd9a1"/><stop offset=".729" stop-color="#e8812a"/><stop offset=".823" stop-color="#a3591e"/><stop offset=".905" stop-color="#6d3b14"/><stop offset=".967" stop-color="#4c280e"/><stop offset="1" stop-color="#40210c"/></radialGradient><path fill="url(#KUVvoqs60lViVvpS83ruFd)" d="M32,17c0.547,0,5.422,1.471,5,9c-1.818,0.881-3.496,2.064-4.597,3.758	C31.278,31.488,29.18,36,29,36c-4.714,0-8-3.087-8-5C21,22.506,27.143,17,32,17z"/><radialGradient id="KUVvoqs60lViVvpS83ruFe" cx="15.639" cy="28.774" r="23.757" gradientUnits="userSpaceOnUse"><stop offset="0" stop-color="#c76f24" stop-opacity=".2"/><stop offset=".092" stop-color="#c76f24" stop-opacity="0"/><stop offset=".193" stop-color="#c76f24" stop-opacity=".2"/><stop offset=".212" stop-color="#c76f24" stop-opacity="0"/><stop offset=".329" stop-color="#c76f24" stop-opacity=".2"/><stop offset=".354" stop-color="#c76f24" stop-opacity="0"/><stop offset=".483" stop-color="#c76f24" stop-opacity=".2"/><stop offset=".51" stop-color="#c76f24" stop-opacity="0"/><stop offset=".627" stop-color="#c76f24" stop-opacity=".2"/><stop offset=".658" stop-color="#c76f24" stop-opacity="0"/><stop offset=".768" stop-color="#c76f24" stop-opacity=".2"/><stop offset=".787" stop-color="#c76f24" stop-opacity="0"/><stop offset=".885" stop-color="#c76f24" stop-opacity=".2"/><stop offset=".91" stop-color="#c76f24" stop-opacity="0"/></radialGradient><path fill="url(#KUVvoqs60lViVvpS83ruFe)" d="M32,17c0.547,0,5.422,1.471,5,9c-1.818,0.881-3.496,2.064-4.597,3.758	C31.278,31.488,29.18,36,29,36c-4.714,0-8-3.087-8-5C21,22.506,27.143,17,32,17z"/><radialGradient id="KUVvoqs60lViVvpS83ruFf" cx="33.94" cy="19.641" r="19.946" gradientUnits="userSpaceOnUse"><stop offset=".301" stop-color="#ffd9a1"/><stop offset=".729" stop-color="#e8812a"/><stop offset=".823" stop-color="#a3591e"/><stop offset=".905" stop-color="#6d3b14"/><stop offset=".967" stop-color="#4c280e"/><stop offset="1" stop-color="#40210c"/></radialGradient><path fill="url(#KUVvoqs60lViVvpS83ruFf)" d="M36,25c1.617,0,4,2.371,4,6c0,0.804-4.566,6.997-7,6.997c-3.52,0-5-1.768-5-2.997	C28,28.276,32.386,25,36,25z"/><radialGradient id="KUVvoqs60lViVvpS83ruFg" cx="26.349" cy="32.289" r="19.946" gradientUnits="userSpaceOnUse"><stop offset="0" stop-color="#c76f24" stop-opacity=".2"/><stop offset=".092" stop-color="#c76f24" stop-opacity="0"/><stop offset=".193" stop-color="#c76f24" stop-opacity=".2"/><stop offset=".212" stop-color="#c76f24" stop-opacity="0"/><stop offset=".329" stop-color="#c76f24" stop-opacity=".2"/><stop offset=".354" stop-color="#c76f24" stop-opacity="0"/><stop offset=".483" stop-color="#c76f24" stop-opacity=".2"/><stop offset=".51" stop-color="#c76f24" stop-opacity="0"/><stop offset=".627" stop-color="#c76f24" stop-opacity=".2"/><stop offset=".658" stop-color="#c76f24" stop-opacity="0"/><stop offset=".768" stop-color="#c76f24" stop-opacity=".2"/><stop offset=".787" stop-color="#c76f24" stop-opacity="0"/><stop offset=".885" stop-color="#c76f24" stop-opacity=".2"/><stop offset=".91" stop-color="#c76f24" stop-opacity="0"/></radialGradient><path fill="url(#KUVvoqs60lViVvpS83ruFg)" d="M36,25c1.617,0,4,2.371,4,6c0,0.804-4.566,6.997-7,6.997c-3.52,0-5-1.768-5-2.997	C28,28.276,32.386,25,36,25z"/><radialGradient id="KUVvoqs60lViVvpS83ruFh" cx="37.364" cy="23.593" r="17.279" gradientUnits="userSpaceOnUse"><stop offset=".301" stop-color="#ffd9a1"/><stop offset=".729" stop-color="#e8812a"/><stop offset=".823" stop-color="#a3591e"/><stop offset=".905" stop-color="#6d3b14"/><stop offset=".967" stop-color="#4c280e"/><stop offset="1" stop-color="#40210c"/></radialGradient><path fill="url(#KUVvoqs60lViVvpS83ruFh)" d="M38,30c2.564,0,2.999,2.448,2.999,3c0,3.943-2.889,4.846-2.999,7c-3.702,0-5-1.54-5-3	C33,34.469,33.763,30,38,30z"/><radialGradient id="KUVvoqs60lViVvpS83ruFi" cx="30.76" cy="35.531" r="17.279" gradientUnits="userSpaceOnUse"><stop offset="0" stop-color="#c76f24" stop-opacity=".2"/><stop offset=".092" stop-color="#c76f24" stop-opacity="0"/><stop offset=".193" stop-color="#c76f24" stop-opacity=".2"/><stop offset=".212" stop-color="#c76f24" stop-opacity="0"/><stop offset=".329" stop-color="#c76f24" stop-opacity=".2"/><stop offset=".354" stop-color="#c76f24" stop-opacity="0"/><stop offset=".483" stop-color="#c76f24" stop-opacity=".2"/><stop offset=".51" stop-color="#c76f24" stop-opacity="0"/><stop offset=".627" stop-color="#c76f24" stop-opacity=".2"/><stop offset=".658" stop-color="#c76f24" stop-opacity="0"/><stop offset=".768" stop-color="#c76f24" stop-opacity=".2"/><stop offset=".787" stop-color="#c76f24" stop-opacity="0"/><stop offset=".885" stop-color="#c76f24" stop-opacity=".2"/><stop offset=".91" stop-color="#c76f24" stop-opacity="0"/></radialGradient><path fill="url(#KUVvoqs60lViVvpS83ruFi)" d="M38,30c2.564,0,2.999,2.448,2.999,3c0,3.943-2.889,4.846-2.999,7c-3.702,0-5-1.54-5-3	C33,34.469,33.763,30,38,30z"/><radialGradient id="KUVvoqs60lViVvpS83ruFj" cx="40.694" cy="28.132" r="14.093" gradientUnits="userSpaceOnUse"><stop offset=".301" stop-color="#ffd9a1"/><stop offset=".729" stop-color="#e8812a"/><stop offset=".823" stop-color="#a3591e"/><stop offset=".905" stop-color="#6d3b14"/><stop offset=".967" stop-color="#4c280e"/><stop offset="1" stop-color="#40210c"/></radialGradient><path fill="url(#KUVvoqs60lViVvpS83ruFj)" d="M40,34c2.693,0,1.573,4.024,4,5c0,1.218-1.988,2-3.572,2C38.418,41,37,40.367,37,39	C37,35.488,39.278,34,40,34z"/><radialGradient id="KUVvoqs60lViVvpS83ruFk" cx="33.336" cy="38.258" r="14.093" gradientUnits="userSpaceOnUse"><stop offset="0" stop-color="#c76f24" stop-opacity=".2"/><stop offset=".092" stop-color="#c76f24" stop-opacity="0"/><stop offset=".193" stop-color="#c76f24" stop-opacity=".2"/><stop offset=".212" stop-color="#c76f24" stop-opacity="0"/><stop offset=".329" stop-color="#c76f24" stop-opacity=".2"/><stop offset=".354" stop-color="#c76f24" stop-opacity="0"/><stop offset=".483" stop-color="#c76f24" stop-opacity=".2"/><stop offset=".51" stop-color="#c76f24" stop-opacity="0"/><stop offset=".627" stop-color="#c76f24" stop-opacity=".2"/><stop offset=".658" stop-color="#c76f24" stop-opacity="0"/><stop offset=".768" stop-color="#c76f24" stop-opacity=".2"/><stop offset=".787" stop-color="#c76f24" stop-opacity="0"/><stop offset=".885" stop-color="#c76f24" stop-opacity=".2"/><stop offset=".91" stop-color="#c76f24" stop-opacity="0"/></radialGradient><path fill="url(#KUVvoqs60lViVvpS83ruFk)" d="M40,34c2.693,0,1.573,4.024,4,5c0,1.218-1.988,2-3.572,2C38.418,41,37,40.367,37,39	C37,35.488,39.278,34,40,34z"/><radialGradient id="KUVvoqs60lViVvpS83ruFl" cx="28.5" cy="13.5" r="1.5" gradientUnits="userSpaceOnUse"><stop offset="0" stop-color="#faecdf"/><stop offset=".139" stop-color="#faecdf" stop-opacity=".861"/><stop offset="1" stop-color="#faecdf" stop-opacity="0"/></radialGradient><circle cx="28.5" cy="13.5" r="1.5" fill="url(#KUVvoqs60lViVvpS83ruFl)"/><radialGradient id="KUVvoqs60lViVvpS83ruFm" cx="25.5" cy="9.5" r="1.5" gradientUnits="userSpaceOnUse"><stop offset="0" stop-color="#faecdf"/><stop offset=".139" stop-color="#faecdf" stop-opacity=".861"/><stop offset="1" stop-color="#faecdf" stop-opacity="0"/></radialGradient><circle cx="25.5" cy="9.5" r="1.5" fill="url(#KUVvoqs60lViVvpS83ruFm)"/><radialGradient id="KUVvoqs60lViVvpS83ruFn" cx="21.5" cy="16.5" r="1.5" gradientUnits="userSpaceOnUse"><stop offset="0" stop-color="#faecdf"/><stop offset=".139" stop-color="#faecdf" stop-opacity=".861"/><stop offset="1" stop-color="#faecdf" stop-opacity="0"/></radialGradient><circle cx="21.5" cy="16.5" r="1.5" fill="url(#KUVvoqs60lViVvpS83ruFn)"/><radialGradient id="KUVvoqs60lViVvpS83ruFo" cx="26.5" cy="16.5" r="1.5" gradientUnits="userSpaceOnUse"><stop offset="0" stop-color="#faecdf"/><stop offset=".139" stop-color="#faecdf" stop-opacity=".861"/><stop offset="1" stop-color="#faecdf" stop-opacity="0"/></radialGradient><circle cx="26.5" cy="16.5" r="1.5" fill="url(#KUVvoqs60lViVvpS83ruFo)"/><radialGradient id="KUVvoqs60lViVvpS83ruFp" cx="19.5" cy="9.5" r="1.5" gradientUnits="userSpaceOnUse"><stop offset="0" stop-color="#faecdf"/><stop offset=".139" stop-color="#faecdf" stop-opacity=".861"/><stop offset="1" stop-color="#faecdf" stop-opacity="0"/></radialGradient><circle cx="19.5" cy="9.5" r="1.5" fill="url(#KUVvoqs60lViVvpS83ruFp)"/><radialGradient id="KUVvoqs60lViVvpS83ruFq" cx="23.5" cy="12.5" r="1.5" gradientUnits="userSpaceOnUse"><stop offset="0" stop-color="#faecdf"/><stop offset=".139" stop-color="#faecdf" stop-opacity=".861"/><stop offset="1" stop-color="#faecdf" stop-opacity="0"/></radialGradient><circle cx="23.5" cy="12.5" r="1.5" fill="url(#KUVvoqs60lViVvpS83ruFq)"/><radialGradient id="KUVvoqs60lViVvpS83ruFr" cx="31.5" cy="19.5" r="1.5" gradientUnits="userSpaceOnUse"><stop offset="0" stop-color="#faecdf"/><stop offset=".139" stop-color="#faecdf" stop-opacity=".861"/><stop offset="1" stop-color="#faecdf" stop-opacity="0"/></radialGradient><circle cx="31.5" cy="19.5" r="1.5" fill="url(#KUVvoqs60lViVvpS83ruFr)"/><radialGradient id="KUVvoqs60lViVvpS83ruFs" cx="26.5" cy="23.5" r="1.5" gradientUnits="userSpaceOnUse"><stop offset="0" stop-color="#faecdf"/><stop offset=".139" stop-color="#faecdf" stop-opacity=".861"/><stop offset="1" stop-color="#faecdf" stop-opacity="0"/></radialGradient><circle cx="26.5" cy="23.5" r="1.5" fill="url(#KUVvoqs60lViVvpS83ruFs)"/><radialGradient id="KUVvoqs60lViVvpS83ruFt" cx="17.5" cy="13.5" r="1.5" gradientUnits="userSpaceOnUse"><stop offset="0" stop-color="#faecdf"/><stop offset=".139" stop-color="#faecdf" stop-opacity=".861"/><stop offset="1" stop-color="#faecdf" stop-opacity="0"/></radialGradient><circle cx="17.5" cy="13.5" r="1.5" fill="url(#KUVvoqs60lViVvpS83ruFt)"/><radialGradient id="KUVvoqs60lViVvpS83ruFu" cx="29.5" cy="20.5" r="1.5" gradientUnits="userSpaceOnUse"><stop offset="0" stop-color="#faecdf"/><stop offset=".139" stop-color="#faecdf" stop-opacity=".861"/><stop offset="1" stop-color="#faecdf" stop-opacity="0"/></radialGradient><circle cx="29.5" cy="20.5" r="1.5" fill="url(#KUVvoqs60lViVvpS83ruFu)"/><radialGradient id="KUVvoqs60lViVvpS83ruFv" cx="33.5" cy="22.5" r="1.5" gradientUnits="userSpaceOnUse"><stop offset="0" stop-color="#faecdf"/><stop offset=".139" stop-color="#faecdf" stop-opacity=".861"/><stop offset="1" stop-color="#faecdf" stop-opacity="0"/></radialGradient><circle cx="33.5" cy="22.5" r="1.5" fill="url(#KUVvoqs60lViVvpS83ruFv)"/><radialGradient id="KUVvoqs60lViVvpS83ruFw" cx="30.5" cy="23.5" r="1.5" gradientUnits="userSpaceOnUse"><stop offset="0" stop-color="#faecdf"/><stop offset=".139" stop-color="#faecdf" stop-opacity=".861"/><stop offset="1" stop-color="#faecdf" stop-opacity="0"/></radialGradient><circle cx="30.5" cy="23.5" r="1.5" fill="url(#KUVvoqs60lViVvpS83ruFw)"/><radialGradient id="KUVvoqs60lViVvpS83ruFx" cx="35.5" cy="28.5" r="1.5" gradientUnits="userSpaceOnUse"><stop offset="0" stop-color="#faecdf"/><stop offset=".139" stop-color="#faecdf" stop-opacity=".861"/><stop offset="1" stop-color="#faecdf" stop-opacity="0"/></radialGradient><circle cx="35.5" cy="28.5" r="1.5" fill="url(#KUVvoqs60lViVvpS83ruFx)"/><radialGradient id="KUVvoqs60lViVvpS83ruFy" cx="38.5" cy="31.5" r="1.5" gradientUnits="userSpaceOnUse"><stop offset="0" stop-color="#faecdf"/><stop offset=".139" stop-color="#faecdf" stop-opacity=".861"/><stop offset="1" stop-color="#faecdf" stop-opacity="0"/></radialGradient><circle cx="38.5" cy="31.5" r="1.5" fill="url(#KUVvoqs60lViVvpS83ruFy)"/><radialGradient id="KUVvoqs60lViVvpS83ruFz" cx="40.5" cy="36.5" r="1.5" gradientUnits="userSpaceOnUse"><stop offset="0" stop-color="#faecdf"/><stop offset=".139" stop-color="#faecdf" stop-opacity=".861"/><stop offset="1" stop-color="#faecdf" stop-opacity="0"/></radialGradient><circle cx="40.5" cy="36.5" r="1.5" fill="url(#KUVvoqs60lViVvpS83ruFz)"/><radialGradient id="KUVvoqs60lViVvpS83ruFA" cx="32.5" cy="28.5" r="1.5" gradientUnits="userSpaceOnUse"><stop offset="0" stop-color="#faecdf"/><stop offset=".139" stop-color="#faecdf" stop-opacity=".861"/><stop offset="1" stop-color="#faecdf" stop-opacity="0"/></radialGradient><circle cx="32.5" cy="28.5" r="1.5" fill="url(#KUVvoqs60lViVvpS83ruFA)"/></svg>