<svg xmlns="http://www.w3.org/2000/svg" viewBox="0 0 48 48"><path fill="#ffde36" d="M23.088,3.53l-5.833,12.171L3.878,17.488C3.037,17.6,2.7,18.636,3.315,19.221l9.773,9.308 l-2.435,13.275c-0.153,0.835,0.728,1.475,1.475,1.072L24,36.458l11.873,6.418c0.747,0.404,1.628-0.237,1.475-1.072L34.912,28.53 l9.773-9.308c0.614-0.585,0.278-1.621-0.563-1.734l-13.378-1.786L24.912,3.53C24.545,2.765,23.455,2.765,23.088,3.53z"/><path fill="#ffdd35" d="M23.096,3.699l-5.782,12.065L4.053,17.535c-0.834,0.111-1.168,1.139-0.558,1.719l9.688,9.227 l-2.414,13.16c-0.152,0.827,0.722,1.462,1.462,1.062L24,36.341l11.77,6.362c0.74,0.4,1.614-0.235,1.462-1.062l-2.414-13.16 l9.688-9.227c0.609-0.58,0.275-1.607-0.558-1.719l-13.261-1.771L24.904,3.699C24.54,2.941,23.46,2.941,23.096,3.699z"/><path fill="#ffdc34" d="M23.104,3.868l-5.731,11.959L4.228,17.583c-0.827,0.11-1.157,1.129-0.554,1.704l9.603,9.147 l-2.393,13.044c-0.15,0.82,0.716,1.449,1.449,1.053L24,36.224l11.666,6.307c0.734,0.397,1.6-0.233,1.449-1.053l-2.393-13.044 l9.603-9.147c0.604-0.575,0.273-1.593-0.554-1.704l-13.145-1.755L24.896,3.868C24.535,3.116,23.465,3.116,23.104,3.868z"/><path fill="#ffdb33" d="M23.112,4.037l-5.681,11.854l-13.029,1.74c-0.819,0.109-1.147,1.119-0.549,1.689l9.518,9.066 L11,41.314c-0.149,0.813,0.709,1.437,1.436,1.044L24,36.107l11.563,6.251c0.727,0.393,1.586-0.231,1.436-1.044l-2.372-12.929 l9.518-9.066c0.598-0.57,0.271-1.579-0.549-1.689l-13.029-1.74L24.888,4.037C24.531,3.292,23.469,3.292,23.112,4.037z"/><path fill="#ffda32" d="M23.12,4.206l-5.63,11.748L4.577,17.678c-0.812,0.108-1.137,1.109-0.544,1.674l9.433,8.985 L11.116,41.15c-0.148,0.806,0.703,1.424,1.424,1.034L24,35.99l11.46,6.195c0.721,0.39,1.571-0.229,1.424-1.034l-2.351-12.814 l9.433-8.985c0.593-0.565,0.268-1.565-0.544-1.674L30.51,15.954L24.88,4.206C24.526,3.467,23.474,3.467,23.12,4.206z"/><path fill="#ffd932" d="M23.128,4.375l-5.579,11.642L4.752,17.726c-0.805,0.107-1.127,1.099-0.539,1.659l9.348,8.904 l-2.329,12.698c-0.146,0.798,0.697,1.411,1.411,1.025L24,35.873l11.357,6.139c0.714,0.386,1.557-0.227,1.411-1.025l-2.329-12.698 l9.348-8.904c0.588-0.56,0.266-1.551-0.539-1.659l-12.797-1.709L24.872,4.375C24.521,3.643,23.479,3.643,23.128,4.375z"/><path fill="#ffd831" d="M23.136,4.544l-5.529,11.537l-12.68,1.693c-0.797,0.106-1.116,1.089-0.534,1.643l9.264,8.823 l-2.308,12.583c-0.145,0.791,0.69,1.398,1.398,1.016L24,35.755l11.254,6.084c0.708,0.383,1.543-0.225,1.398-1.016L34.344,28.24 l9.264-8.823c0.582-0.555,0.263-1.537-0.534-1.643l-12.68-1.693L24.864,4.544C24.516,3.819,23.484,3.819,23.136,4.544z"/><path fill="#ffd730" d="M23.144,4.713l-5.478,11.431L5.102,17.821c-0.79,0.105-1.106,1.079-0.529,1.628l9.179,8.742 L11.464,40.66c-0.144,0.784,0.684,1.385,1.385,1.006L24,35.638l11.151,6.028c0.701,0.379,1.529-0.222,1.385-1.006l-2.287-12.468 l9.179-8.742c0.577-0.55,0.261-1.523-0.529-1.628l-12.564-1.678L24.856,4.713C24.512,3.994,23.488,3.994,23.144,4.713z"/><path fill="#ffd62f" d="M23.152,4.882l-5.427,11.325L5.276,17.869c-0.783,0.105-1.096,1.069-0.524,1.613l9.094,8.661 L11.58,40.496c-0.142,0.777,0.678,1.373,1.372,0.997L24,35.521l11.048,5.972c0.695,0.376,1.515-0.22,1.372-0.997l-2.266-12.352 l9.094-8.661c0.572-0.545,0.258-1.509-0.524-1.613l-12.448-1.662L24.848,4.882C24.507,4.17,23.493,4.17,23.152,4.882z"/><path fill="#ffd52e" d="M23.16,5.051L17.783,16.27L5.451,17.917c-0.775,0.104-1.086,1.059-0.519,1.598l9.009,8.581 l-2.245,12.237c-0.141,0.769,0.671,1.36,1.36,0.988L24,35.404l10.945,5.916c0.688,0.372,1.501-0.218,1.36-0.988l-2.245-12.237 l9.009-8.581c0.566-0.54,0.256-1.495-0.519-1.598L30.217,16.27L24.84,5.051C24.502,4.345,23.498,4.345,23.16,5.051z"/><path fill="#ffd42d" d="M23.168,5.22l-5.326,11.114L5.626,17.964c-0.768,0.103-1.076,1.049-0.514,1.583l8.924,8.5 l-2.224,12.122c-0.14,0.762,0.665,1.347,1.347,0.978L24,35.287l10.841,5.861c0.682,0.368,1.487-0.216,1.347-0.978l-2.224-12.122 l8.924-8.5c0.561-0.534,0.254-1.481-0.514-1.583l-12.216-1.631L24.832,5.22C24.497,4.521,23.503,4.521,23.168,5.22z"/><path fill="#ffd32c" d="M23.176,5.389L17.9,16.397L5.801,18.012c-0.761,0.102-1.065,1.039-0.51,1.568l8.839,8.419 l-2.202,12.007c-0.138,0.755,0.659,1.334,1.334,0.969L24,35.17l10.738,5.805c0.675,0.365,1.472-0.214,1.334-0.969L33.87,27.999 l8.839-8.419c0.556-0.529,0.251-1.467-0.51-1.568L30.1,16.397L24.824,5.389C24.493,4.696,23.507,4.696,23.176,5.389z"/><path fill="#ffd22b" d="M23.183,5.557L17.959,16.46l-11.983,1.6c-0.753,0.101-1.055,1.029-0.505,1.553l8.754,8.338 l-2.181,11.891c-0.137,0.748,0.652,1.321,1.321,0.96L24,35.053l10.635,5.749c0.669,0.361,1.458-0.212,1.321-0.96l-2.181-11.891 l8.754-8.338c0.55-0.524,0.249-1.452-0.505-1.553l-11.983-1.6L24.817,5.557C24.488,4.872,23.512,4.872,23.183,5.557z"/><path fill="#ffd12a" d="M23.191,5.726l-5.174,10.797L6.15,18.108c-0.746,0.1-1.045,1.019-0.5,1.538l8.669,8.257 l-2.16,11.776c-0.136,0.74,0.646,1.309,1.308,0.951L24,34.936l10.532,5.693c0.662,0.358,1.444-0.21,1.308-0.951l-2.16-11.776 l8.669-8.257c0.545-0.519,0.246-1.438-0.5-1.538l-11.867-1.585L24.809,5.726C24.483,5.048,23.517,5.048,23.191,5.726z"/><path fill="#ffd02a" d="M23.199,5.895l-5.123,10.691L6.325,18.155c-0.739,0.099-1.035,1.009-0.495,1.523l8.584,8.176 l-2.139,11.661c-0.134,0.733,0.64,1.296,1.296,0.941L24,34.819l10.429,5.638c0.656,0.354,1.43-0.208,1.296-0.941l-2.139-11.661 l8.584-8.176c0.54-0.514,0.244-1.424-0.495-1.523l-11.751-1.569L24.801,5.895C24.479,5.223,23.521,5.223,23.199,5.895z"/><path fill="#ffcf29" d="M23.207,6.064l-5.073,10.585L6.5,18.203c-0.732,0.098-1.024,0.999-0.49,1.508l8.5,8.096 l-2.118,11.545c-0.133,0.726,0.633,1.283,1.283,0.932L24,34.702l10.326,5.582c0.649,0.351,1.416-0.206,1.283-0.932l-2.118-11.545 l8.5-8.096c0.534-0.509,0.242-1.41-0.49-1.508l-11.635-1.553L24.793,6.064C24.474,5.399,23.526,5.399,23.207,6.064z"/><path fill="#ffce28" d="M23.215,6.233l-5.022,10.48L6.675,18.251C5.95,18.347,5.66,19.24,6.189,19.743l8.415,8.015 l-2.097,11.43c-0.132,0.719,0.627,1.27,1.27,0.923L24,34.585l10.223,5.526c0.643,0.347,1.402-0.204,1.27-0.923l-2.097-11.43 l8.415-8.015c0.529-0.504,0.239-1.396-0.485-1.493l-11.519-1.538l-5.022-10.48C24.469,5.574,23.531,5.574,23.215,6.233z"/><path fill="#ffcd27" d="M23.223,6.402l-4.971,10.374L6.849,18.298c-0.717,0.096-1.004,0.979-0.48,1.478l8.33,7.934 l-2.076,11.315c-0.131,0.711,0.621,1.257,1.257,0.913L24,34.468l10.12,5.47c0.636,0.344,1.388-0.202,1.257-0.913L33.301,27.71 l8.33-7.934c0.524-0.499,0.237-1.382-0.48-1.478l-11.402-1.522L24.777,6.402C24.464,5.75,23.536,5.75,23.223,6.402z"/><path fill="#ffcc26" d="M23.231,6.571L18.31,16.839L7.024,18.346c-0.71,0.095-0.994,0.969-0.475,1.463l8.245,7.853 l-2.054,11.199c-0.129,0.704,0.614,1.244,1.244,0.904L24,34.35l10.016,5.415c0.63,0.34,1.373-0.2,1.244-0.904l-2.054-11.199 l8.245-7.853c0.518-0.494,0.234-1.368-0.475-1.463L29.69,16.839L24.769,6.571C24.46,5.925,23.54,5.925,23.231,6.571z"/><path fill="#ffcb25" d="M23.239,6.74l-4.87,10.162l-11.17,1.491c-0.702,0.094-0.983,0.959-0.47,1.448l8.16,7.772 l-2.033,11.084c-0.128,0.697,0.608,1.232,1.231,0.895L24,34.233l9.913,5.359c0.623,0.337,1.359-0.198,1.231-0.895l-2.033-11.084 l8.16-7.772c0.513-0.489,0.232-1.354-0.47-1.448l-11.17-1.491L24.761,6.74C24.455,6.101,23.545,6.101,23.239,6.74z"/><path fill="#ffca24" d="M23.247,6.909l-4.819,10.057L7.374,18.441C6.679,18.534,6.4,19.39,6.908,19.874l8.075,7.691 l-2.012,10.969c-0.127,0.69,0.602,1.219,1.219,0.885L24,34.116l9.81,5.303c0.617,0.333,1.345-0.196,1.219-0.885l-2.012-10.969 l8.075-7.691c0.508-0.484,0.23-1.34-0.465-1.433l-11.054-1.476L24.753,6.909C24.45,6.276,23.55,6.276,23.247,6.909z"/><path fill="#ffc923" d="M23.255,7.078l-4.769,9.951l-10.938,1.46c-0.688,0.092-0.963,0.939-0.461,1.418l7.99,7.61 l-1.991,10.854c-0.125,0.682,0.595,1.206,1.206,0.876L24,33.999l9.707,5.247c0.61,0.33,1.331-0.194,1.206-0.876l-1.991-10.854 l7.99-7.61c0.502-0.479,0.227-1.326-0.461-1.418l-10.938-1.46l-4.769-9.951C24.445,6.452,23.555,6.452,23.255,7.078z"/><path fill="#ffc823" d="M23.263,7.247l-4.718,9.845L7.723,18.537c-0.68,0.091-0.953,0.929-0.456,1.403l7.905,7.53 l-1.97,10.738c-0.124,0.675,0.589,1.193,1.193,0.867L24,33.882l9.604,5.192c0.604,0.326,1.317-0.192,1.193-0.867l-1.97-10.738 l7.905-7.53c0.497-0.473,0.225-1.312-0.456-1.403l-10.821-1.445l-4.718-9.845C24.441,6.628,23.559,6.628,23.263,7.247z"/><path fill="#ffc722" d="M23.271,7.416l-4.667,9.74L7.898,18.584c-0.673,0.09-0.943,0.919-0.451,1.387l7.82,7.449 l-1.949,10.623c-0.123,0.668,0.583,1.18,1.18,0.857L24,33.765l9.501,5.136c0.597,0.323,1.303-0.19,1.18-0.857l-1.949-10.623 l7.82-7.449c0.492-0.468,0.222-1.298-0.451-1.387l-10.705-1.429l-4.667-9.74C24.436,6.803,23.564,6.803,23.271,7.416z"/><path fill="#ffc621" d="M23.278,7.584l-4.617,9.634L8.073,18.632c-0.666,0.089-0.932,0.909-0.446,1.372l7.736,7.368 L13.435,37.88c-0.121,0.661,0.577,1.168,1.167,0.848L24,33.648l9.398,5.08c0.591,0.319,1.289-0.187,1.167-0.848l-1.928-10.508 l7.736-7.368c0.486-0.463,0.22-1.283-0.446-1.372l-10.589-1.414l-4.617-9.634C24.431,6.979,23.569,6.979,23.278,7.584z"/><path fill="#ffc520" d="M23.286,7.753l-4.566,9.528L8.247,18.68c-0.658,0.088-0.922,0.899-0.441,1.357l7.651,7.287 l-1.906,10.392c-0.12,0.653,0.57,1.155,1.155,0.839L24,33.531l9.295,5.024c0.584,0.316,1.274-0.185,1.155-0.839l-1.906-10.392 l7.651-7.287c0.481-0.458,0.217-1.269-0.441-1.357L29.28,17.281l-4.566-9.528C24.426,7.154,23.574,7.154,23.286,7.753z"/><path fill="#ffc41f" d="M23.294,7.922l-4.516,9.422L8.422,18.728c-0.651,0.087-0.912,0.889-0.436,1.342l7.566,7.206 l-1.885,10.277c-0.119,0.646,0.564,1.142,1.142,0.83L24,33.414l9.191,4.969c0.578,0.312,1.26-0.183,1.142-0.83l-1.885-10.277 l7.566-7.206c0.476-0.453,0.215-1.255-0.436-1.342l-10.357-1.383l-4.516-9.422C24.422,7.33,23.578,7.33,23.294,7.922z"/><path fill="#ffc31e" d="M23.302,8.091l-4.465,9.317l-10.24,1.367c-0.644,0.086-0.902,0.879-0.431,1.327l7.481,7.125 l-1.864,10.162c-0.117,0.639,0.558,1.129,1.129,0.82L24,33.297l9.088,4.913c0.571,0.309,1.246-0.181,1.129-0.82l-1.864-10.162 l7.481-7.125c0.47-0.448,0.213-1.241-0.431-1.327l-10.24-1.367l-4.465-9.317C24.417,7.505,23.583,7.505,23.302,8.091z"/><path fill="#ffc21d" d="M23.31,8.26l-4.414,9.211L8.772,18.823c-0.637,0.085-0.891,0.869-0.426,1.312l7.396,7.044 l-1.843,10.046c-0.116,0.632,0.551,1.116,1.116,0.811L24,33.18l8.985,4.857c0.565,0.305,1.232-0.179,1.116-0.811L32.258,27.18 l7.396-7.044c0.465-0.443,0.21-1.227-0.426-1.312l-10.124-1.352L24.69,8.26C24.412,7.681,23.588,7.681,23.31,8.26z"/><path fill="#ffc11c" d="M23.318,8.429l-4.364,9.105L8.947,18.871c-0.629,0.084-0.881,0.859-0.421,1.297l7.311,6.964 l-1.822,9.931c-0.115,0.624,0.545,1.104,1.103,0.802L24,33.063l8.882,4.801c0.558,0.302,1.218-0.177,1.103-0.802l-1.822-9.931 l7.311-6.964c0.46-0.438,0.208-1.213-0.421-1.297l-10.008-1.336l-4.364-9.105C24.408,7.857,23.592,7.857,23.318,8.429z"/><path fill="#ffc01b" d="M23.326,8.598l-4.313,9l-9.892,1.321C8.499,19.001,8.25,19.768,8.705,20.2l7.226,6.883l-1.801,9.816 c-0.113,0.617,0.539,1.091,1.091,0.792L24,32.946l8.779,4.746c0.552,0.298,1.204-0.175,1.091-0.792l-1.801-9.816l7.226-6.883 c0.454-0.433,0.205-1.199-0.417-1.282l-9.892-1.321l-4.313-9C24.403,8.032,23.597,8.032,23.326,8.598z"/><path fill="#ffc01b" d="M23.334,8.767l-4.262,8.894l-9.776,1.305c-0.615,0.082-0.861,0.839-0.412,1.267l7.141,6.802 l-1.779,9.701c-0.112,0.61,0.532,1.078,1.078,0.783L24,32.828l8.676,4.69c0.546,0.295,1.19-0.173,1.078-0.783l-1.779-9.701 l7.141-6.802c0.449-0.428,0.203-1.185-0.412-1.267l-9.776-1.305l-4.262-8.894C24.398,8.208,23.602,8.208,23.334,8.767z"/><path fill="#ffbf1a" d="M23.342,8.936l-4.212,8.788l-9.659,1.29c-0.607,0.081-0.85,0.829-0.407,1.252l7.057,6.721 l-1.758,9.585c-0.111,0.603,0.526,1.065,1.065,0.774L24,32.711l8.573,4.634c0.539,0.291,1.175-0.171,1.065-0.774l-1.758-9.585 l7.057-6.721c0.444-0.423,0.201-1.171-0.407-1.252l-9.659-1.29l-4.212-8.788C24.393,8.383,23.607,8.383,23.342,8.936z"/><path fill="#ffbe19" d="M23.35,9.105l-4.161,8.682l-9.543,1.274c-0.6,0.08-0.84,0.819-0.402,1.237l6.972,6.64l-1.737,9.47 c-0.109,0.595,0.52,1.052,1.052,0.764L24,32.594l8.47,4.578c0.533,0.288,1.161-0.169,1.052-0.764l-1.737-9.47l6.972-6.64 c0.438-0.418,0.198-1.157-0.402-1.237l-9.543-1.274L24.65,9.105C24.389,8.559,23.611,8.559,23.35,9.105z"/><path fill="#ffbd18" d="M23.358,9.274l-4.11,8.577L9.82,19.109c-0.593,0.079-0.83,0.809-0.397,1.222l6.887,6.559 l-1.716,9.355c-0.108,0.588,0.513,1.039,1.039,0.755L24,32.477L32.366,37c0.526,0.284,1.147-0.167,1.039-0.755L31.69,26.89 l6.887-6.559c0.433-0.412,0.196-1.143-0.397-1.222l-9.427-1.259l-4.11-8.577C24.384,8.734,23.616,8.734,23.358,9.274z"/><path fill="#ffbc17" d="M23.366,9.443l-4.06,8.471l-9.311,1.243c-0.585,0.078-0.82,0.799-0.392,1.207l6.802,6.479 l-1.695,9.239c-0.107,0.581,0.507,1.027,1.027,0.746L24,32.36l8.263,4.467c0.52,0.281,1.133-0.165,1.027-0.746l-1.695-9.239 l6.802-6.479c0.428-0.407,0.193-1.129-0.392-1.207l-9.311-1.243l-4.06-8.471C24.379,8.91,23.621,8.91,23.366,9.443z"/><path fill="#ffbb16" d="M23.374,9.611l-4.009,8.365l-9.195,1.228c-0.578,0.077-0.81,0.789-0.387,1.192l6.717,6.398 l-1.674,9.124c-0.105,0.574,0.501,1.014,1.014,0.736L24,32.243l8.16,4.411c0.513,0.277,1.119-0.163,1.014-0.736L31.5,26.794 l6.717-6.398c0.422-0.402,0.191-1.114-0.387-1.192l-9.195-1.228l-4.009-8.365C24.374,9.085,23.626,9.085,23.374,9.611z"/><path fill="#ffba15" d="M23.381,9.78l-3.958,8.26l-9.078,1.212c-0.571,0.076-0.799,0.779-0.382,1.177l6.632,6.317 l-1.653,9.009c-0.104,0.566,0.494,1.001,1.001,0.727L24,32.126l8.057,4.356c0.507,0.274,1.105-0.161,1.001-0.727l-1.653-9.009 l6.632-6.317c0.417-0.397,0.189-1.1-0.382-1.177l-9.078-1.212l-3.958-8.26C24.37,9.261,23.63,9.261,23.381,9.78z"/><path fill="#ffb914" d="M23.389,9.949l-3.908,8.154L10.519,19.3c-0.564,0.075-0.789,0.769-0.377,1.162l6.547,6.236 l-1.631,8.893c-0.103,0.559,0.488,0.988,0.988,0.718l7.954-4.3l7.954,4.3c0.5,0.27,1.091-0.159,0.988-0.718l-1.631-8.893 l6.547-6.236c0.412-0.392,0.186-1.086-0.377-1.162l-8.962-1.197l-3.908-8.154C24.365,9.437,23.635,9.437,23.389,9.949z"/><path fill="#ffb813" d="M23.397,10.118l-3.857,8.048l-8.846,1.181c-0.556,0.074-0.779,0.759-0.373,1.146l6.462,6.155 l-1.61,8.778c-0.101,0.552,0.482,0.975,0.975,0.709L24,31.892l7.851,4.244c0.494,0.267,1.077-0.157,0.975-0.709l-1.61-8.778 l6.462-6.155c0.406-0.387,0.184-1.072-0.373-1.146l-8.846-1.181l-3.857-8.048C24.36,9.612,23.64,9.612,23.397,10.118z"/><path fill="#ffb713" d="M23.405,10.287l-3.806,7.942l-8.73,1.166c-0.549,0.073-0.769,0.75-0.368,1.131l6.377,6.074 l-1.589,8.663c-0.1,0.545,0.475,0.963,0.962,0.699L24,31.775l7.748,4.188c0.487,0.263,1.062-0.155,0.962-0.699l-1.589-8.663 l6.377-6.074c0.401-0.382,0.181-1.058-0.368-1.131l-8.73-1.166l-3.806-7.942C24.356,9.788,23.644,9.788,23.405,10.287z"/><path fill="#ffb612" d="M23.413,10.456l-3.756,7.837l-8.614,1.15c-0.542,0.072-0.758,0.74-0.363,1.116l6.293,5.993 L15.406,35.1c-0.099,0.537,0.469,0.95,0.95,0.69L24,31.658l7.645,4.133c0.481,0.26,1.048-0.153,0.95-0.69l-1.568-8.548l6.293-5.993 c0.396-0.377,0.179-1.044-0.363-1.116l-8.614-1.15l-3.756-7.837C24.351,9.963,23.649,9.963,23.413,10.456z"/><path fill="#ffb511" d="M23.421,10.625l-3.705,7.731l-8.497,1.135c-0.534,0.071-0.748,0.73-0.358,1.101l6.208,5.913 l-1.547,8.432c-0.097,0.53,0.463,0.937,0.937,0.681L24,31.541l7.542,4.077c0.474,0.256,1.034-0.15,0.937-0.681l-1.547-8.432 l6.208-5.913c0.39-0.372,0.176-1.03-0.358-1.101l-8.497-1.135l-3.705-7.731C24.346,10.139,23.654,10.139,23.421,10.625z"/><path fill="#ffb410" d="M23.429,10.794l-3.654,7.625l-8.381,1.119c-0.527,0.07-0.738,0.72-0.353,1.086l6.123,5.832 l-1.526,8.317c-0.096,0.523,0.456,0.924,0.924,0.671L24,31.423l7.438,4.021c0.468,0.253,1.02-0.148,0.924-0.671l-1.526-8.317 l6.123-5.832c0.385-0.367,0.174-1.016-0.353-1.086l-8.381-1.119l-3.654-7.625C24.341,10.314,23.659,10.314,23.429,10.794z"/><path fill="#ffb30f" d="M23.437,10.963l-3.604,7.52l-8.265,1.104c-0.52,0.069-0.728,0.71-0.348,1.071l6.038,5.751 l-1.504,8.202c-0.095,0.516,0.45,0.911,0.911,0.662L24,31.306l7.335,3.965c0.461,0.249,1.006-0.146,0.911-0.662l-1.504-8.202 l6.038-5.751c0.38-0.362,0.172-1.002-0.348-1.071l-8.265-1.104l-3.604-7.52C24.337,10.49,23.663,10.49,23.437,10.963z"/><path fill="#ffb20e" d="M23.445,11.132l-3.553,7.414l-8.149,1.088c-0.512,0.068-0.717,0.7-0.343,1.056l5.953,5.67 l-1.483,8.086c-0.093,0.508,0.444,0.899,0.898,0.653L24,31.189l7.232,3.91c0.455,0.246,0.992-0.144,0.898-0.653l-1.483-8.086 l5.953-5.67c0.374-0.357,0.169-0.988-0.343-1.056l-8.149-1.088l-3.553-7.414C24.332,10.666,23.668,10.666,23.445,11.132z"/><path fill="#ffb10d" d="M23.453,11.301l-3.502,7.308l-8.033,1.073c-0.505,0.067-0.707,0.69-0.338,1.041l5.868,5.589 l-1.462,7.971c-0.092,0.501,0.437,0.886,0.886,0.643L24,31.072l7.129,3.854c0.448,0.242,0.978-0.142,0.886-0.643l-1.462-7.971 l5.868-5.589c0.369-0.351,0.167-0.974-0.338-1.041l-8.033-1.073l-3.502-7.308C24.327,10.841,23.673,10.841,23.453,11.301z"/><path fill="#ffb00c" d="M23.461,11.47l-3.452,7.202l-7.917,1.057c-0.498,0.066-0.697,0.68-0.333,1.026l5.783,5.508 l-1.441,7.856c-0.091,0.494,0.431,0.873,0.873,0.634L24,30.955l7.026,3.798c0.442,0.239,0.963-0.14,0.873-0.634l-1.441-7.856 l5.783-5.508c0.364-0.346,0.164-0.96-0.333-1.026l-7.917-1.057l-3.452-7.202C24.322,11.017,23.678,11.017,23.461,11.47z"/><path fill="#ffaf0c" d="M23.469,11.638l-3.401,7.097l-7.8,1.042c-0.49,0.065-0.687,0.67-0.328,1.011l5.698,5.428l-1.42,7.74 c-0.089,0.487,0.425,0.86,0.86,0.625L24,30.838l6.923,3.742c0.435,0.235,0.949-0.138,0.86-0.625l-1.42-7.74l5.698-5.428 c0.358-0.341,0.162-0.945-0.328-1.011l-7.8-1.042l-3.401-7.097C24.318,11.192,23.682,11.192,23.469,11.638z"/><path fill="#ffae0b" d="M23.476,11.807l-3.35,6.991l-7.684,1.026c-0.483,0.065-0.677,0.66-0.324,0.996l5.614,5.347 l-1.399,7.625c-0.088,0.479,0.418,0.847,0.847,0.616L24,30.721l6.82,3.687c0.429,0.232,0.935-0.136,0.847-0.616l-1.399-7.625 l5.614-5.347c0.353-0.336,0.16-0.931-0.324-0.996l-7.684-1.026l-3.35-6.991C24.313,11.368,23.687,11.368,23.476,11.807z"/><path fill="#ffad0a" d="M23.484,11.976l-3.3,6.885l-7.568,1.01c-0.476,0.064-0.666,0.65-0.319,0.981l5.529,5.266 l-1.378,7.51c-0.087,0.472,0.412,0.834,0.834,0.606L24,30.604l6.717,3.631c0.422,0.228,0.921-0.134,0.834-0.606l-1.378-7.51 l5.529-5.266c0.348-0.331,0.157-0.917-0.319-0.981l-7.568-1.01l-3.3-6.885C24.308,11.543,23.692,11.543,23.484,11.976z"/><path fill="#ffac09" d="M23.492,12.145l-3.249,6.78l-7.452,0.995c-0.469,0.063-0.656,0.64-0.314,0.966l5.444,5.185 l-1.356,7.394c-0.085,0.465,0.406,0.822,0.822,0.597L24,30.487l6.613,3.575c0.416,0.225,0.907-0.132,0.822-0.597l-1.356-7.394 l5.444-5.185c0.342-0.326,0.155-0.903-0.314-0.966l-7.452-0.995l-3.249-6.78C24.303,11.719,23.697,11.719,23.492,12.145z"/><path fill="#ffab08" d="M23.5,12.314l-3.198,6.674l-7.336,0.979c-0.461,0.062-0.646,0.63-0.309,0.951l5.359,5.104 l-1.335,7.279c-0.084,0.458,0.399,0.809,0.809,0.588L24,30.37l6.51,3.519c0.409,0.221,0.893-0.13,0.809-0.588l-1.335-7.279 l5.359-5.104c0.337-0.321,0.152-0.889-0.309-0.951l-7.336-0.979L24.5,12.314C24.299,11.895,23.701,11.895,23.5,12.314z"/><path fill="#ffaa07" d="M23.508,12.483l-3.148,6.568l-7.219,0.964c-0.454,0.061-0.636,0.62-0.304,0.936l5.274,5.023 l-1.314,7.164c-0.083,0.45,0.393,0.796,0.796,0.578L24,30.253l6.407,3.464c0.403,0.218,0.879-0.128,0.796-0.578l-1.314-7.164 l5.274-5.023c0.332-0.316,0.15-0.875-0.304-0.936l-7.219-0.964l-3.148-6.568C24.294,12.07,23.706,12.07,23.508,12.483z"/><path fill="#ffa906" d="M23.516,12.652l-3.097,6.462l-7.103,0.948c-0.447,0.06-0.625,0.61-0.299,0.921l5.189,4.942 l-1.293,7.049c-0.081,0.443,0.387,0.783,0.783,0.569L24,30.136l6.304,3.408c0.396,0.214,0.864-0.126,0.783-0.569l-1.293-7.049 l5.189-4.942c0.326-0.311,0.148-0.861-0.299-0.921l-7.103-0.948l-3.097-6.462C24.289,12.246,23.711,12.246,23.516,12.652z"/><path fill="#ffa805" d="M23.524,12.821l-3.046,6.357l-6.987,0.933c-0.439,0.059-0.615,0.6-0.294,0.906l5.104,4.862 l-1.272,6.933c-0.08,0.436,0.38,0.77,0.77,0.56L24,30.019l6.201,3.352c0.39,0.211,0.85-0.124,0.77-0.56l-1.272-6.933l5.104-4.862 c0.321-0.306,0.145-0.847-0.294-0.906l-6.987-0.933l-3.046-6.357C24.285,12.421,23.715,12.421,23.524,12.821z"/><path fill="#ffa704" d="M23.532,12.99l-2.996,6.251l-6.871,0.917c-0.432,0.058-0.605,0.59-0.289,0.89l5.019,4.781 l-1.251,6.818c-0.079,0.429,0.374,0.758,0.757,0.55L24,29.901l6.098,3.296c0.383,0.207,0.836-0.122,0.757-0.55l-1.251-6.818 l5.019-4.781c0.316-0.301,0.143-0.833-0.289-0.89l-6.871-0.917l-2.996-6.251C24.28,12.597,23.72,12.597,23.532,12.99z"/><path fill="#ffa604" d="M23.54,13.159l-2.945,6.145l-6.755,0.902c-0.425,0.057-0.595,0.58-0.284,0.875l4.934,4.7 l-1.23,6.703c-0.077,0.421,0.368,0.745,0.745,0.541L24,29.784l5.995,3.241c0.377,0.204,0.822-0.12,0.745-0.541l-1.23-6.703 l4.934-4.7c0.31-0.296,0.14-0.819-0.284-0.875l-6.755-0.902l-2.945-6.145C24.275,12.772,23.725,12.772,23.54,13.159z"/><path fill="#ffa503" d="M23.548,13.328l-2.894,6.04l-6.638,0.886c-0.417,0.056-0.584,0.57-0.28,0.86l4.85,4.619 l-1.208,6.587c-0.076,0.414,0.361,0.732,0.732,0.532L24,29.667l5.892,3.185c0.37,0.2,0.808-0.118,0.732-0.532l-1.208-6.587 l4.85-4.619c0.305-0.29,0.138-0.805-0.28-0.86l-6.638-0.886l-2.894-6.04C24.27,12.948,23.73,12.948,23.548,13.328z"/><path fill="#ffa402" d="M23.556,13.497l-2.844,5.934l-6.522,0.871c-0.41,0.055-0.574,0.56-0.275,0.845l4.765,4.538 l-1.187,6.472c-0.075,0.407,0.355,0.719,0.719,0.522L24,29.55l5.788,3.129c0.364,0.197,0.794-0.115,0.719-0.522l-1.187-6.472 l4.765-4.538c0.3-0.285,0.135-0.791-0.275-0.845l-6.522-0.871l-2.844-5.934C24.266,13.123,23.734,13.123,23.556,13.497z"/><path fill="#ffa301" d="M23.564,13.665l-2.793,5.828l-6.406,0.855c-0.403,0.054-0.564,0.55-0.27,0.83l4.68,4.457 l-1.166,6.357c-0.073,0.4,0.349,0.706,0.706,0.513L24,29.433l5.685,3.073c0.357,0.193,0.78-0.113,0.706-0.513l-1.166-6.357 l4.68-4.457c0.294-0.28,0.133-0.776-0.27-0.83l-6.406-0.855l-2.793-5.828C24.261,13.299,23.739,13.299,23.564,13.665z"/><path fill="#ffa200" d="M23.571,13.834l-2.742,5.722l-6.29,0.84c-0.395,0.053-0.554,0.54-0.265,0.815l4.595,4.376 l-1.145,6.241c-0.072,0.392,0.342,0.694,0.693,0.504L24,29.316l5.582,3.018c0.351,0.19,0.765-0.111,0.693-0.504l-1.145-6.241 l4.595-4.376c0.289-0.275,0.131-0.762-0.265-0.815l-6.29-0.84l-2.742-5.722C24.256,13.475,23.744,13.475,23.571,13.834z"/></svg>