<svg xmlns="http://www.w3.org/2000/svg" viewBox="0 0 48 48"><radialGradient id="dxkRLZLhlOCZ8_i7yizB_a" cx="432" cy="24" r="18" fx="431.905" fy="16.289" gradientTransform="matrix(-1 0 0 1 456 0)" gradientUnits="userSpaceOnUse"><stop offset="0" stop-color="#ffe16e"/><stop offset=".629" stop-color="#ffd226"/><stop offset=".75" stop-color="#fdcd23"/><stop offset=".899" stop-color="#f6bd1b"/><stop offset=".999" stop-color="#f0af13"/></radialGradient><circle cx="24" cy="24" r="18" fill="url(#dxkRLZLhlOCZ8_i7yizB_a)"/><path fill="#212121" d="M34.499,24c-0.102,0-0.204-0.031-0.292-0.095C34.18,23.886,31.525,22,27.5,22	c-0.24,0-0.446-0.17-0.491-0.405c-0.045-0.235,0.083-0.47,0.306-0.559l5-2c0.254-0.103,0.547,0.022,0.65,0.279	c0.103,0.256-0.022,0.547-0.279,0.65l-0.453,0.181c-0.777,0.311-0.742,1.406,0.044,1.692c1.547,0.563,2.452,1.211,2.517,1.258	c0.223,0.163,0.272,0.475,0.11,0.698C34.807,23.928,34.654,24,34.499,24z"/><path fill="#212121" d="M13.501,24c0.102,0,0.204-0.031,0.292-0.095C13.82,23.886,16.475,22,20.5,22	c0.24,0,0.446-0.17,0.491-0.405c0.045-0.235-0.083-0.47-0.306-0.559l-5-2c-0.254-0.103-0.547,0.022-0.65,0.279	c-0.103,0.256,0.022,0.547,0.279,0.65l0.453,0.181c0.777,0.311,0.742,1.406-0.044,1.692c-1.547,0.563-2.452,1.211-2.517,1.258	c-0.223,0.163-0.272,0.475-0.11,0.698C13.193,23.928,13.346,24,13.501,24z"/><radialGradient id="dxkRLZLhlOCZ8_i7yizB_b" cx="24.136" cy="28.855" r="8.058" gradientUnits="userSpaceOnUse"><stop offset="0" stop-color="#1c1911"/><stop offset=".999" stop-color="#171714"/></radialGradient><path fill="url(#dxkRLZLhlOCZ8_i7yizB_b)" d="M14,32l3.306-2.75c0.4-0.333,0.983-0.328,1.377,0.012l1.811,1.558	c0.291,0.25,0.721,0.25,1.012,0l1.799-1.548c0.4-0.344,0.991-0.344,1.391,0l1.799,1.548c0.291,0.25,0.721,0.25,1.012,0l1.811-1.558	c0.395-0.34,0.977-0.345,1.377-0.012L34,32l-3.356-1.011c-0.401-0.121-0.836-0.029-1.154,0.245l-1.679,1.445	c-0.471,0.405-1.163,0.42-1.651,0.034l-0.752-0.596c-0.826-0.654-1.992-0.654-2.818,0l-0.752,0.596	c-0.487,0.386-1.18,0.372-1.651-0.034l-1.679-1.445c-0.318-0.273-0.753-0.366-1.154-0.245L14,32z"/><radialGradient id="dxkRLZLhlOCZ8_i7yizB_c" cx="18.797" cy="36.121" r="7.814" gradientTransform="matrix(.9992 .0403 -.0846 2.0963 3.07 -40.356)" gradientUnits="userSpaceOnUse"><stop offset="0" stop-color="#4a3500"/><stop offset=".342" stop-color="#4e3800" stop-opacity=".658"/><stop offset=".71" stop-color="#5b4100" stop-opacity=".29"/><stop offset="1" stop-color="#6b4c00" stop-opacity="0"/></radialGradient><path fill="url(#dxkRLZLhlOCZ8_i7yizB_c)" d="M22.482,24.726c-1.085,0.355-2.637,3.474-7.021,7.732c-1.672,1.624-3.269,2.858-4.606,3.81	C14.14,39.787,18.806,42,24,42c0.554,0,1.1-0.034,1.642-0.083c1.115-3.542,1.636-8.953-0.648-15.941	C24.691,25.048,23.567,24.372,22.482,24.726z"/><radialGradient id="dxkRLZLhlOCZ8_i7yizB_d" cx="23.392" cy="24.622" r="6.346" gradientUnits="userSpaceOnUse"><stop offset="0" stop-color="#ffe16e"/><stop offset=".001" stop-color="#f7fcff"/><stop offset=".252" stop-color="#eaf7ff"/><stop offset=".674" stop-color="#daf0ff"/><stop offset="1" stop-color="#d4eeff"/></radialGradient><path fill="url(#dxkRLZLhlOCZ8_i7yizB_d)" d="M23,24.009c1.142,0,2,0.992,2,1.968C25,39.436,17.71,45,16.57,45s0.469-2.231-1.716-5.055 C14.708,39.754,11.753,41,6,41c1.597-2.589,0.524-5.379,0.45-5.55C6.383,35.295,4,34.45,4,33c0-0.812,4.269-1.055,9.925-3.822 C19.415,26.492,21.858,24.009,23,24.009z"/><path fill="#d4eeff" d="M20.663,27.473C21.202,28.012,11.753,41,6,41c1.597-2.589,0.524-5.379,0.45-5.55 C13.126,33.437,20.14,26.95,20.663,27.473z"/><path fill="#d1ebfc" d="M20.301,27.798c0.524,0.524-8.68,13.144-14.269,13.144c1.551-2.515,0.519-5.261,0.447-5.427 C12.964,33.56,19.794,27.29,20.301,27.798z"/><path fill="#cfe9f9" d="M19.94,28.123c0.509,0.509-8.451,12.761-13.876,12.761c1.506-2.441,0.513-5.142,0.443-5.303 C12.802,33.683,19.447,27.63,19.94,28.123z"/><path fill="#cce6f7" d="M19.579,28.448c0.493,0.493-8.222,12.378-13.483,12.378c1.46-2.367,0.507-5.023,0.439-5.179 C12.64,33.806,19.101,27.971,19.579,28.448z"/><path fill="#cae3f4" d="M19.217,28.774c0.478,0.478-7.992,11.995-13.089,11.995c1.414-2.294,0.501-4.904,0.436-5.056 C12.478,33.93,18.754,28.311,19.217,28.774z"/><path fill="#c7e1f1" d="M18.856,29.099c0.463,0.463-7.763,11.612-12.696,11.612c1.369-2.22,0.496-4.786,0.432-4.932 C12.315,34.053,18.408,28.651,18.856,29.099z"/><path fill="#c5deee" d="M18.494,29.424c0.447,0.447-7.534,11.229-12.303,11.229c1.323-2.146,0.49-4.667,0.429-4.808 C12.153,34.176,18.061,28.991,18.494,29.424z"/><path fill="#c2dbeb" d="M18.133,29.75c0.432,0.432-7.304,10.846-11.909,10.846c1.278-2.072,0.484-4.548,0.425-4.685 C11.991,34.299,17.715,29.331,18.133,29.75z"/><path fill="#c0d9e9" d="M17.771,30.075c0.416,0.416-7.075,10.463-11.516,10.463c1.232-1.998,0.478-4.429,0.421-4.561 C11.829,34.423,17.368,29.672,17.771,30.075z"/><path fill="#bdd6e6" d="M17.41,30.4c0.401,0.401-6.846,10.08-11.123,10.08c1.187-1.924,0.473-4.311,0.418-4.438 C11.667,34.546,17.022,30.012,17.41,30.4z"/><path fill="#bbd3e3" d="M17.049,30.725c0.386,0.386-6.617,9.697-10.73,9.697c1.141-1.851,0.467-4.192,0.414-4.314 C11.505,34.669,16.675,30.352,17.049,30.725z"/><path fill="#b8d1e0" d="M16.687,31.051c0.37,0.37-6.387,9.314-10.336,9.314c1.096-1.777,0.461-4.073,0.41-4.19 C11.343,34.792,16.329,30.692,16.687,31.051z"/><path fill="#b6cedd" d="M16.326,31.376c0.355,0.355-6.158,8.93-9.943,8.93c1.05-1.703,0.455-3.954,0.407-4.067 C11.181,34.915,15.982,31.032,16.326,31.376z"/><path fill="#b3cbda" d="M15.964,31.701c0.34,0.34-5.929,8.547-9.55,8.547c1.005-1.629,0.45-3.836,0.403-3.943 C11.019,35.039,15.636,31.372,15.964,31.701z"/><path fill="#b1c9d8" d="M15.603,32.027c0.324,0.324-5.7,8.164-9.156,8.164c0.959-1.555,0.444-3.717,0.4-3.82 C10.857,35.162,15.289,31.713,15.603,32.027z"/><path fill="#aec6d5" d="M15.242,32.352c0.309,0.309-5.47,7.781-8.763,7.781c0.914-1.482,0.438-3.598,0.396-3.696 C10.695,35.285,14.943,32.053,15.242,32.352z"/><path fill="#acc3d2" d="M14.88,32.677c0.293,0.293-5.241,7.398-8.37,7.398c0.868-1.408,0.433-3.479,0.392-3.572 C10.533,35.408,14.596,32.393,14.88,32.677z"/><path fill="#a9c1cf" d="M14.519,33.002c0.278,0.278-5.012,7.015-7.976,7.015c0.823-1.334,0.427-3.361,0.389-3.449 C10.371,35.532,14.25,32.733,14.519,33.002z"/><path fill="#a7becc" d="M14.157,33.328c0.263,0.263-4.783,6.632-7.583,6.632c0.777-1.26,0.421-3.242,0.385-3.325 C10.209,35.655,13.903,33.073,14.157,33.328z"/><path fill="#a4bbca" d="M13.796,33.653c0.247,0.247-4.553,6.249-7.19,6.249c0.732-1.186,0.415-3.123,0.381-3.201 C10.047,35.778,13.557,33.414,13.796,33.653z"/><path fill="#a2b9c7" d="M13.435,33.978c0.232,0.232-4.324,5.866-6.796,5.866c0.686-1.112,0.41-3.004,0.378-3.078 C9.884,35.901,13.21,33.754,13.435,33.978z"/><path fill="#9fb6c4" d="M13.073,34.303c0.216,0.216-4.095,5.483-6.403,5.483c0.64-1.039,0.404-2.886,0.374-2.954 C9.722,36.024,12.864,34.094,13.073,34.303z"/><g><path fill="#d4eeff" d="M23.746,28.236C25.168,28.624,17.71,45,16.57,45s0.643-2.383-1.542-5.207 C22.026,33.185,22.94,28.017,23.746,28.236z"/><path fill="#d1ebfc" d="M23.56,28.663c1.375,0.376-5.884,16.275-6.997,16.275c-1.1,0,0.603-2.342-1.493-5.086 C21.802,33.503,22.775,28.448,23.56,28.663z"/><path fill="#cfe9f9" d="M23.374,29.09c1.328,0.364-5.731,15.786-6.818,15.786c-1.061,0,0.564-2.301-1.445-4.965 C21.579,33.82,22.609,28.88,23.374,29.09z"/><path fill="#cce6f7" d="M23.188,29.516c1.282,0.352-5.579,15.298-6.639,15.298c-1.022,0,0.524-2.26-1.396-4.843 C21.355,34.137,22.444,29.311,23.188,29.516z"/><path fill="#cae3f4" d="M23.002,29.943c1.235,0.34-5.426,14.809-6.46,14.809c-0.983,0,0.484-2.218-1.348-4.722 C21.131,34.455,22.278,29.743,23.002,29.943z"/><path fill="#c7e1f1" d="M22.816,30.369c1.188,0.328-5.274,14.321-6.281,14.321c-0.944,0,0.445-2.177-1.299-4.601 C20.907,34.772,22.113,30.174,22.816,30.369z"/><path fill="#c5deee" d="M22.63,30.796c1.141,0.316-5.121,13.832-6.102,13.832c-0.905,0,0.405-2.136-1.251-4.479 C20.683,35.09,21.947,30.605,22.63,30.796z"/><path fill="#c2dbeb" d="M22.444,31.222c1.094,0.304-4.969,13.344-5.923,13.344c-0.866,0,0.365-2.095-1.202-4.358 C20.459,35.407,21.781,31.037,22.444,31.222z"/><path fill="#c0d9e9" d="M22.259,31.649c1.048,0.292-4.816,12.855-5.744,12.855c-0.827,0,0.326-2.054-1.154-4.236 C20.235,35.725,21.616,31.468,22.259,31.649z"/><path fill="#bdd6e6" d="M22.073,32.075c1.001,0.28-4.664,12.367-5.565,12.367c-0.787,0,0.286-2.013-1.105-4.115 C20.012,36.042,21.45,31.9,22.073,32.075z"/><path fill="#bbd3e3" d="M21.887,32.502c0.954,0.268-4.511,11.878-5.386,11.878c-0.748,0,0.246-1.972-1.056-3.994 C19.788,36.36,21.285,32.331,21.887,32.502z"/><path fill="#b8d1e0" d="M21.701,32.928c0.907,0.255-4.359,11.389-5.207,11.389c-0.709,0,0.207-1.93-1.008-3.872 C19.564,36.677,21.119,32.763,21.701,32.928z"/><path fill="#b6cedd" d="M21.515,33.355c0.861,0.243-4.206,10.901-5.029,10.901c-0.67,0,0.167-1.889-0.959-3.751 C19.34,36.995,20.954,33.194,21.515,33.355z"/><path fill="#b3cbda" d="M21.329,33.781c0.814,0.231-4.054,10.412-4.85,10.412c-0.631,0,0.127-1.848-0.911-3.63 C19.116,37.312,20.788,33.625,21.329,33.781z"/><path fill="#b1c9d8" d="M21.143,34.208c0.767,0.219-3.901,9.924-4.671,9.924c-0.592,0,0.088-1.807-0.862-3.508 C18.892,37.629,20.622,34.057,21.143,34.208z"/><path fill="#aec6d5" d="M20.957,34.634c0.72,0.207-3.749,9.435-4.492,9.435c-0.553,0,0.048-1.766-0.814-3.387 C18.668,37.947,20.457,34.488,20.957,34.634z"/><path fill="#acc3d2" d="M20.771,35.061c0.673,0.195-3.596,8.947-4.313,8.947c-0.514,0,0.008-1.725-0.765-3.265 C18.445,38.264,20.291,34.92,20.771,35.061z"/><path fill="#a9c1cf" d="M20.585,35.487c0.627,0.183-3.444,8.458-4.134,8.458c-0.474,0-0.031-1.684-0.716-3.144 C18.221,38.582,20.126,35.351,20.585,35.487z"/><path fill="#a7becc" d="M20.399,35.914c0.58,0.171-3.291,7.97-3.955,7.97c-0.435,0-0.071-1.643-0.668-3.023 C17.997,38.899,19.96,35.783,20.399,35.914z"/><path fill="#a4bbca" d="M20.213,36.34c0.533,0.159-3.139,7.481-3.776,7.481c-0.396,0-0.111-1.601-0.619-2.901 C17.773,39.217,19.795,36.214,20.213,36.34z"/><path fill="#a2b9c7" d="M20.027,36.767c0.486,0.147-2.986,6.992-3.597,6.992c-0.357,0-0.15-1.56-0.571-2.78 C17.549,39.534,19.629,36.645,20.027,36.767z"/><path fill="#9fb6c4" d="M19.841,37.193c0.439,0.135-2.834,6.504-3.418,6.504c-0.318,0-0.19-1.519-0.522-2.659 C17.325,39.852,19.463,37.077,19.841,37.193z"/></g></svg>