<svg xmlns="http://www.w3.org/2000/svg" viewBox="0 0 48 48"><radialGradient id="Sf49CarRKLskpGQzicXKaa" cx="24" cy="24" r="18" fx="23.905" fy="16.289" gradientTransform="matrix(-1 0 0 1 48 0)" gradientUnits="userSpaceOnUse"><stop offset="0" stop-color="#ffe16e"/><stop offset=".629" stop-color="#ffd426"/><stop offset=".72" stop-color="#fdcd23"/><stop offset=".854" stop-color="#f8b919"/><stop offset="1" stop-color="#f09c0c"/></radialGradient><circle cx="24" cy="24" r="18" fill="url(#Sf49CarRKLskpGQzicXKaa)"/><radialGradient id="Sf49CarRKLskpGQzicXKab" cx="975.997" cy="-937.416" r="8.414" gradientTransform="matrix(-1 0 0 -.3754 1000 -318.47)" gradientUnits="userSpaceOnUse"><stop offset="0" stop-color="#1c1911"/><stop offset=".999" stop-color="#171714"/></radialGradient><path fill="url(#Sf49CarRKLskpGQzicXKab)" d="M18.356,34.929l-1.292-1.285c0,0,2.111-5.643,6.935-5.643s6.941,5.658,6.941,5.658	l-1.254,1.288c0,0-2.715-0.947-5.687-0.947S18.356,34.929,18.356,34.929z"/><radialGradient id="Sf49CarRKLskpGQzicXKac" cx="30" cy="33.441" r="1.771" gradientTransform="matrix(-1 0 0 -.3754 60 45.994)" gradientUnits="userSpaceOnUse"><stop offset="0" stop-color="#1c1911"/><stop offset=".999" stop-color="#171714"/></radialGradient><circle cx="30" cy="34" r="1" fill="url(#Sf49CarRKLskpGQzicXKac)"/><radialGradient id="Sf49CarRKLskpGQzicXKad" cx="18" cy="33.441" r="1.771" gradientTransform="matrix(-1 0 0 -.3754 36 45.994)" gradientUnits="userSpaceOnUse"><stop offset="0" stop-color="#1c1911"/><stop offset=".999" stop-color="#171714"/></radialGradient><circle cx="18" cy="34" r="1" fill="url(#Sf49CarRKLskpGQzicXKad)"/><radialGradient id="Sf49CarRKLskpGQzicXKae" cx="43.983" cy="32.566" r="3.551" gradientTransform="matrix(.0176 .9997 -3.6937 .1086 143.52 -14.943)" gradientUnits="userSpaceOnUse"><stop offset=".724" stop-color="#ffe16e"/><stop offset=".872" stop-color="#ffe16e" stop-opacity="0"/></radialGradient><path fill="url(#Sf49CarRKLskpGQzicXKae)" d="M18.115,35.033c0,0,1.721,0.967,5.884,0.967c3.856,0,5.83-0.967,5.83-0.967S27.267,34,24,34	S18.115,35.033,18.115,35.033z"/><radialGradient id="Sf49CarRKLskpGQzicXKaf" cx="975.93" cy="-937.993" r="6.206" gradientTransform="matrix(-1 0 0 -.4899 1000 -425.575)" gradientUnits="userSpaceOnUse"><stop offset=".041" stop-color="#cc9000"/><stop offset=".284" stop-color="#cc9000"/><stop offset="1" stop-color="#cc9000" stop-opacity="0"/></radialGradient><path fill="url(#Sf49CarRKLskpGQzicXKaf)" d="M24,35c5.488,0,6.221,0.005,6.221,0.005S28.779,37,24,37s-6.081-1.967-6.081-1.967	S18.512,35,24,35z"/><linearGradient id="Sf49CarRKLskpGQzicXKag" x1="19.887" x2="28.099" y1="30" y2="30" gradientUnits="userSpaceOnUse"><stop offset=".001" stop-color="#968f72"/><stop offset=".048" stop-color="#b2ad97"/><stop offset=".098" stop-color="#cac6b7"/><stop offset=".153" stop-color="#dddbd2"/><stop offset=".213" stop-color="#ecebe6"/><stop offset=".281" stop-color="#f7f6f4"/><stop offset=".363" stop-color="#fdfdfc"/><stop offset=".5" stop-color="#fff"/><stop offset=".637" stop-color="#fdfdfc"/><stop offset=".719" stop-color="#f7f6f4"/><stop offset=".787" stop-color="#ecebe6"/><stop offset=".847" stop-color="#dddbd2"/><stop offset=".902" stop-color="#cac6b7"/><stop offset=".952" stop-color="#b2ad97"/><stop offset="1" stop-color="#968f72"/></linearGradient><path fill="url(#Sf49CarRKLskpGQzicXKag)" d="M19.887,31h8.212c-0.977-1.063-2.335-2-4.099-2C22.222,29,20.862,29.938,19.887,31z"/><path fill="#805b2a" d="M36.093,16.791c-0.449-0.501-1.075-0.982-1.701-1.354c-0.637-0.379-1.317-0.679-2.017-0.911 c-0.709-0.209-1.427-0.38-2.163-0.451c-0.732-0.089-1.474-0.086-2.211-0.06l-0.035,0.001c-0.562,0.02-1.034-0.419-1.054-0.981 c-0.02-0.562,0.419-1.034,0.981-1.054c0.036-0.001,0.073-0.001,0.108,0.002c0.844,0.06,1.685,0.151,2.511,0.343 c0.828,0.173,1.633,0.457,2.41,0.785c0.771,0.351,1.505,0.776,2.178,1.284c0.677,0.52,1.276,1.069,1.807,1.813 c0.16,0.224,0.108,0.535-0.116,0.695c-0.209,0.149-0.493,0.114-0.661-0.073L36.093,16.791z"/><path fill="#805b2a" d="M11.093,16.209c0.531-0.744,1.131-1.293,1.807-1.813c0.673-0.508,1.408-0.934,2.178-1.284 c0.777-0.328,1.582-0.612,2.41-0.785c0.826-0.192,1.667-0.284,2.511-0.343c0.561-0.04,1.048,0.383,1.088,0.944 c0.04,0.561-0.383,1.048-0.944,1.088c-0.036,0.003-0.072,0.003-0.107,0.002L20,14.016c-0.737-0.026-1.479-0.03-2.211,0.06 c-0.736,0.07-1.454,0.241-2.163,0.451c-0.7,0.232-1.381,0.531-2.017,0.911c-0.627,0.371-1.252,0.853-1.701,1.354l-0.037,0.041 c-0.184,0.205-0.499,0.222-0.704,0.038C10.975,16.699,10.947,16.413,11.093,16.209z"/><circle cx="18" cy="23" r="4" fill="#fff"/><circle cx="18" cy="23" r="2" fill="#212121"/><circle cx="30" cy="23" r="4" fill="#fff"/><circle cx="30" cy="23" r="2" fill="#212121"/></svg>