<svg xmlns="http://www.w3.org/2000/svg" viewBox="0 0 48 48"><radialGradient id="PpKLpiPGZFNjpY9QkIKMKa" cx="-248" cy="24" r="18" fx="-248.095" fy="16.289" gradientTransform="matrix(-1 0 0 1 -224 0)" gradientUnits="userSpaceOnUse"><stop offset="0" stop-color="#ffe16e"/><stop offset=".629" stop-color="#ffd426"/><stop offset=".72" stop-color="#fdcd23"/><stop offset=".854" stop-color="#f8b919"/><stop offset="1" stop-color="#f09c0c"/></radialGradient><circle cx="24" cy="24" r="18" fill="url(#PpKLpiPGZFNjpY9QkIKMKa)"/><linearGradient id="PpKLpiPGZFNjpY9QkIKMKb" x1="24" x2="24" y1="6.253" y2="29.051" gradientUnits="userSpaceOnUse"><stop offset="0" stop-color="#6eafff"/><stop offset="1" stop-color="#6ee4ff" stop-opacity="0"/></linearGradient><circle cx="24" cy="24" r="18" fill="url(#PpKLpiPGZFNjpY9QkIKMKb)"/><radialGradient id="PpKLpiPGZFNjpY9QkIKMKc" cx="703.997" cy="-936.416" r="8.414" gradientTransform="matrix(-1 0 0 -.3754 728 -319.094)" gradientUnits="userSpaceOnUse"><stop offset="0" stop-color="#1c1911"/><stop offset=".999" stop-color="#171714"/></radialGradient><path fill="url(#PpKLpiPGZFNjpY9QkIKMKc)" d="M18.356,33.929l-1.292-1.285c0,0,2.111-5.643,6.935-5.643s6.941,5.658,6.941,5.658	l-1.254,1.288c0,0-2.715-0.947-5.687-0.947S18.356,33.929,18.356,33.929z"/><radialGradient id="PpKLpiPGZFNjpY9QkIKMKd" cx="30" cy="32.441" r="1.771" gradientTransform="matrix(-1 0 0 -.3754 60 44.618)" gradientUnits="userSpaceOnUse"><stop offset="0" stop-color="#1c1911"/><stop offset=".999" stop-color="#171714"/></radialGradient><circle cx="30" cy="33" r="1" fill="url(#PpKLpiPGZFNjpY9QkIKMKd)"/><radialGradient id="PpKLpiPGZFNjpY9QkIKMKe" cx="18" cy="32.441" r="1.771" gradientTransform="matrix(-1 0 0 -.3754 36 44.618)" gradientUnits="userSpaceOnUse"><stop offset="0" stop-color="#1c1911"/><stop offset=".999" stop-color="#171714"/></radialGradient><circle cx="18" cy="33" r="1" fill="url(#PpKLpiPGZFNjpY9QkIKMKe)"/><radialGradient id="PpKLpiPGZFNjpY9QkIKMKf" cx="83.945" cy="31.566" r="3.551" gradientTransform="matrix(.0176 .9997 -3.6937 .1086 139.124 -55.786)" gradientUnits="userSpaceOnUse"><stop offset=".724" stop-color="#ffe16e"/><stop offset=".872" stop-color="#ffe16e" stop-opacity="0"/></radialGradient><path fill="url(#PpKLpiPGZFNjpY9QkIKMKf)" d="M18.115,34.033c0,0,1.721,0.967,5.884,0.967c3.856,0,5.83-0.967,5.83-0.967S27.267,33,24,33	S18.115,34.033,18.115,34.033z"/><radialGradient id="PpKLpiPGZFNjpY9QkIKMKg" cx="703.93" cy="-936.993" r="6.206" gradientTransform="matrix(-1 0 0 -.4899 728 -426.085)" gradientUnits="userSpaceOnUse"><stop offset=".041" stop-color="#cc9000"/><stop offset=".284" stop-color="#cc9000"/><stop offset="1" stop-color="#cc9000" stop-opacity="0"/></radialGradient><path fill="url(#PpKLpiPGZFNjpY9QkIKMKg)" d="M24,34c5.488,0,6.221,0.005,6.221,0.005S28.779,36,24,36s-6.081-1.967-6.081-1.967	S18.512,34,24,34z"/><linearGradient id="PpKLpiPGZFNjpY9QkIKMKh" x1="19.887" x2="28.099" y1="29" y2="29" gradientUnits="userSpaceOnUse"><stop offset=".001" stop-color="#968f72"/><stop offset=".048" stop-color="#b2ad97"/><stop offset=".098" stop-color="#cac6b7"/><stop offset=".153" stop-color="#dddbd2"/><stop offset=".213" stop-color="#ecebe6"/><stop offset=".281" stop-color="#f7f6f4"/><stop offset=".363" stop-color="#fdfdfc"/><stop offset=".5" stop-color="#fff"/><stop offset=".637" stop-color="#fdfdfc"/><stop offset=".719" stop-color="#f7f6f4"/><stop offset=".787" stop-color="#ecebe6"/><stop offset=".847" stop-color="#dddbd2"/><stop offset=".902" stop-color="#cac6b7"/><stop offset=".952" stop-color="#b2ad97"/><stop offset="1" stop-color="#968f72"/></linearGradient><path fill="url(#PpKLpiPGZFNjpY9QkIKMKh)" d="M19.887,30h8.212c-0.977-1.063-2.335-2-4.099-2C22.222,28,20.862,28.938,19.887,30z"/><path fill="#4f6980" d="M36.093,17.791c-0.449-0.501-1.075-0.982-1.701-1.354c-0.637-0.379-1.317-0.679-2.017-0.911 c-0.709-0.209-1.427-0.38-2.163-0.451c-0.732-0.089-1.474-0.086-2.211-0.06l-0.035,0.001c-0.562,0.02-1.034-0.419-1.054-0.981 c-0.02-0.562,0.419-1.034,0.981-1.054c0.036-0.001,0.073-0.001,0.108,0.002c0.844,0.06,1.685,0.151,2.511,0.343 c0.828,0.173,1.633,0.457,2.41,0.785c0.771,0.351,1.505,0.776,2.178,1.284c0.677,0.52,1.277,1.069,1.807,1.813 c0.16,0.224,0.108,0.535-0.116,0.695c-0.209,0.149-0.493,0.114-0.661-0.073L36.093,17.791z"/><path fill="#4f6980" d="M11.093,17.209c0.531-0.744,1.131-1.293,1.807-1.813c0.673-0.508,1.408-0.934,2.178-1.284 c0.777-0.328,1.582-0.612,2.41-0.785c0.826-0.192,1.667-0.284,2.511-0.343c0.561-0.04,1.048,0.383,1.088,0.944 c0.04,0.561-0.383,1.048-0.944,1.088c-0.036,0.003-0.072,0.003-0.107,0.002L20,15.016c-0.737-0.026-1.479-0.03-2.211,0.06 c-0.736,0.07-1.454,0.241-2.163,0.451c-0.7,0.232-1.381,0.531-2.017,0.911c-0.627,0.371-1.252,0.853-1.701,1.354l-0.037,0.041 c-0.184,0.205-0.499,0.222-0.704,0.038C10.975,17.699,10.947,17.413,11.093,17.209z"/><path fill="#fff" d="M13,22c0-2.209,1.791-4,4-4s4,1.791,4,4c0,0-1.791,1-4,1S13,22,13,22z"/><path fill="#212121" d="M18.844,22.776C18.944,22.537,19,22.275,19,22c0-1.105-0.895-2-2-2s-2,0.895-2,2	c0,0.275,0.056,0.537,0.156,0.776C15.71,22.904,16.331,23,17,23S18.29,22.904,18.844,22.776z"/><path fill="#fff" d="M35,22c0-2.209-1.791-4-4-4s-4,1.791-4,4c0,0,1.791,1,4,1S35,22,35,22z"/><path fill="#212121" d="M29.156,22.776C29.056,22.537,29,22.275,29,22c0-1.105,0.895-2,2-2s2,0.895,2,2	c0,0.275-0.056,0.537-0.156,0.776C32.29,22.904,31.669,23,31,23S29.71,22.904,29.156,22.776z"/><radialGradient id="PpKLpiPGZFNjpY9QkIKMKi" cx="39.056" cy="28.479" r="4.596" fx="36.945" fy="28.485" gradientTransform="matrix(0 -1 .8265 0 15.519 67.534)" gradientUnits="userSpaceOnUse"><stop offset="0" stop-color="#b3f1ff"/><stop offset=".166" stop-color="#9ee4fc"/><stop offset=".509" stop-color="#68c2f3"/><stop offset=".996" stop-color="#118ce6"/><stop offset="1" stop-color="#108ce6"/></radialGradient><path fill="url(#PpKLpiPGZFNjpY9QkIKMKi)" d="M42,30c0,1.657-1.343,3-3,3s-3-1.343-3-3c0-2.4,2.4-8,3-8S42,27.6,42,30z"/></svg>